<?xml version="1.0" encoding="iso-8859-1"?>
<!-- Generator: Adobe Illustrator 16.0.4, SVG Export Plug-In . SVG Version: 6.00 Build 0)  -->
<!DOCTYPE svg PUBLIC "-//W3C//DTD SVG 1.1//EN" "http://www.w3.org/Graphics/SVG/1.1/DTD/svg11.dtd">
<svg version="1.1" xmlns="http://www.w3.org/2000/svg" xmlns:xlink="http://www.w3.org/1999/xlink" x="0px" y="0px"
	 width="47.633px" height="34.396px" viewBox="0 0 47.633 34.396" style="enable-background:new 0 0 47.633 34.396;"
	 xml:space="preserve">
<g id="Layer_100">
	<g id="Layer_105">
		<path id="DISTRICT_x3D_Leiah_x2C_PROVINCE_x3D_Punjab" style="fill:#CCCCCC;stroke:#FFFFFF;stroke-width:1.07;" d="M2.273,3.844
			L2.273,3.844L1.942,4.041L1.72,4.529L1.667,4.677L1.508,4.794L1.292,4.889l-0.18,0.094L0.972,5.083L0.87,5.191L0.797,5.316
			l0.004,0.114l0.021,0.057l0.077,0.056l0.126,0.038l0.363,0.099l0.3,0.108L1.9,5.891l0.089,0.121L2.03,6.117l-0.007,0.09
			L1.876,6.374L1.765,6.498L1.63,6.779L1.542,7.034L1.459,7.46L1.397,8.296L1.376,8.58l0.049,0.375l0.046,0.269L1.6,9.417
			l0.162,0.364l0.146,0.447l0.064,0.317v0.319l-0.031,0.22l-0.014,0.221l0.016,0.212l0.061,0.105l0.097,0.055L2.244,11.7
			l0.152-0.003l0.104,0.014l0.03,0.057l0.002,0.081L2.49,12.021l-0.04,0.246l0.014,0.163l0.053,0.179l0.018,0.27l0.007,0.27
			l-0.096,0.305l-0.078,0.27l-0.034,0.483l-0.017,0.417l0.019,0.662l0.133,0.692l0.066,0.325l-0.042,0.189L2.43,16.648l-0.044,0.124
			L2.201,16.98l-0.242,0.185l-0.192,0.225l-0.092,0.133l0.002,0.065l0.06,0.056l0.095,0.006l0.209-0.012l0.189-0.037l0.197-0.02
			l0.37-0.008l0.134,0.014l0.049,0.023l0.059,0.056l0.021,0.065l-0.011,1.022l-0.054,0.099l-0.121,0.109l-0.178,0.091l-0.319,0.139
			L2.254,19.25l-0.147,0.094l-0.203,0.191l-0.167,0.188l-0.109,0.142l-0.072,0.156l-0.023,0.131l0.014,0.163l0.243,0.87l0.061,0.139
			l0.067,0.047l0.067,0.022l0.085-0.019l0.244-0.086l0.197-0.037l0.133,0.006l0.105,0.047l0.068,0.072l0.031,0.128l0.014,0.098
			l-0.056,0.124l-0.109,0.109l-0.082,0.115l-0.089,0.207l-0.199,0.363l-0.152,0.338l-0.1,0.149l-0.15,0.088l-0.132,0.011
			l-0.153-0.029l-0.125-0.07l-0.258-0.061l-0.209-0.012L0.84,22.974l-0.123,0.051l-0.102,0.067l-0.057,0.066l-0.017,0.09
			l0.012,0.082l0.061,0.064l0.115,0.071l0.173,0.069l0.097,0.056l0.05,0.097l0.015,0.155l-0.032,0.858l-0.053,0.517l-0.075,0.254
			l-0.045,0.082l-0.017,0.123l0.05,0.098l0.068,0.063l0.124,0.014l0.208-0.005l0.399,0.041l0.313,0.042l0.189,0.037l0.182,0.045
			l0.249,0.093l0.184,0.144l0.166,0.16l0.101,0.178l0.033,0.17L3.09,27.149l0.016,1.259L3.101,28.58l-0.042,0.213L3.02,29.096
			l-0.03,0.581l0.015,0.522l0.043,0.18l0.049,0.072l0.041,0.098l0.001,0.393l0.36,0.061l0.367-0.018l0.281-0.04H4.4l0.334-0.034
			l0.23-0.053l0.198-0.07l0.203-0.096l0.168-0.113l0.133-0.117l0.078-0.067l0.085-0.06l0.056-0.02l0.162,0.008l0.43,0.036
			l0.554,0.072l0.508,0.034l0.285,0.031l0.165-0.011l0.115-0.024l0.207-0.082l0.236-0.071l0.207-0.037l0.293-0.015l0.365-0.092
			l0.336-0.009l0.21,0.041l0.11,0.048l0.021,0.047l-0.096,0.117l-0.04,0.104v0.083l0.068,0.073l0.183,0.062l0.203,0.029l0.248,0.025
			l0.258,0.016l0.387-0.047l0.26,0.01l0.252,0.046l0.151,0.071l0.147,0.135l0.145,0.146l0.108,0.104l0.14,0.089l0.164,0.047
			l0.254,0.033l0.25,0.016l0.092-0.015l0.114-0.056l0.139-0.11l0.26-0.159l0.295-0.154l0.177-0.072l0.243-0.025l0.274,0.033
			l0.251,0.007l0.263,0.035l0.131,0.062l0.104,0.086l0.097,0.127l0.095,0.052l0.064,0.009l0.117-0.029l0.144-0.045l0.202-0.095
			l0.354-0.229l0.44-0.34l0.437-0.283l0.422-0.232l0.1-0.059l0.018-0.056l-0.051-0.09l-0.183-0.19l-0.155-0.207l-0.098-0.168
			l-0.14-0.179l-0.06-0.124l0.001-0.089l0.032-0.104l0.068-0.094l0.15-0.174l0.157-0.178l0.166-0.178l0.183-0.226l0.257-0.352
			l0.07-0.146l0.021-0.104l-0.027-0.14l-0.07-0.266l-0.056-0.154l-0.044-0.09l0.011-0.095l0.045-0.084l0.077-0.06l0.247-0.097
			l0.195-0.051l0.187,0.005l0.219,0.029l0.443,0.098l0.245,0.045l0.168-0.021l0.189-0.059l0.16-0.062l0.157-0.088l0.16-0.022
			l0.132,0.019l0.469,0.088l0.224,0.035l0.28,0.02l0.396,0.034l0.289,0.085l0.111,0.047l0.242,0.143l0.201,0.168l0.084,0.113
			L23.271,27l0.235,0.019l0.203-0.011l0.497,0.054l0.287,0.058l0.132,0.057l0.136,0.115l0.218,0.158l0.352,0.284l0.281,0.218
			l0.363,0.332l0.244,0.219l0.399,0.306l0.258,0.253l0.181,0.197l0.116,0.184l0.15,0.238l0.114,0.145l0.131,0.103l0.248,0.149
			l0.14,0.096l0.177,0.178l0.235,0.18l0.216,0.165l0.131,0.224l0.235,0.248l0.287,0.265l0.197,0.136l0.236,0.173l0.208,0.169
			l0.229,0.174l0.357,0.209l0.326,0.166l0.369,0.225l0.401,0.242l0.398,0.182l0.433,0.191l0.404,0.189l0.304,0.125l0.205,0.104
			l0.211,0.068l0.073,0.073l0.042-0.001l0.039,0.003h0.059l0.101-0.026l0.088-0.041l0.109-0.037l0.143-0.053l0.065-0.033
			l0.078-0.004l0.062,0.017l0.173,0.043l0.116,0.014l0.181,0.011l0.108,0.006l0.108-0.033l0.068-0.038l0.053-0.026l0.077-0.016
			l0.097-0.007l0.093-0.044l0.054-0.041l0.043-0.016l0.066,0.008l0.078,0.017l0.062-0.005l0.147-0.031l0.101-0.052l0.103-0.086
			l0.089-0.106l0.047-0.074l0.011-0.062l-0.023-0.104l-0.047-0.143l-0.035-0.193l-0.003-0.123l0.042-0.092l0.047-0.078l0.077-0.08
			l0.068-0.047l0.088-0.027l0.074-0.01l0.111,0.008l0.281,0.076l0.184,0.062l0.052,0.028l0.061,0.045l0.117,0.039l0.238,0.066
			l0.142,0.047l0.174,0.103l0.068,0.043l0.078,0.047l0.091,0.03l0.092,0.017l0.092-0.021l0.033-0.023l0.043-0.029l0.043-0.031
			l0.072-0.03l0.051-0.033l0.04-0.037l0.062-0.073l0.078-0.096l0.128-0.154l0.144-0.283l0.311-0.317l0.08-0.087l0.037-0.117
			l0.006-0.154l0.005-0.141l-0.018-0.318l0.033-0.205l0.077-0.279l0.012-0.104l-0.005-0.104l-0.079-0.194l-0.048-0.119l-0.081-0.136
			l0.002-0.051l0.021-0.081l0.044-0.059l0.132-0.084l0.396-0.064l0.27-0.083l0.167-0.122l0.183-0.092l0.089-0.116l0.047-0.117
			l0.004-0.073l-0.031-0.09l-0.048-0.119l-0.021-0.119l-0.011-0.199l-0.034-0.172l0.021-0.088l0.075-0.211l0.077-0.279l0.065-0.153
			l0.046-0.11l0.054-0.072l0.054-0.051l0.113-0.057l0.13-0.062l0.184-0.069l0.208-0.054l0.224-0.047l0.147-0.078l0.115-0.122
			l0.136-0.183l0.047-0.132l0.006-0.161l0.032-0.215l0.022-0.191l0.027-0.051l0.082-0.123l0.124-0.131l0.081-0.115l0.104-0.08
			l0.07-0.041l0.116-0.055l0.096-0.021l0.291,0.007l0.282,0.016l0.385,0.023l0.181-0.025l0.165-0.062l0.2-0.091l0.16-0.159
			l0.118-0.197l0.057-0.161l0.031-0.162l0.005-0.147l-0.02-0.164l-0.061-0.289l-0.025-0.208l0.036-0.096l0.081-0.108l0.19-0.062
			l0.146,0.002l0.23,0.037l0.188,0.004l0.164-0.024l0.147-0.063l0.123-0.078l0.133-0.114l0.205-0.209l0.178-0.195l0.107-0.138
			l0.103-0.166l0.089-0.079l0.105-0.086l0.072-0.103l0.021-0.109l-0.006-0.082l-0.031-0.075l-0.05-0.046l-0.102-0.096l-0.069,0.027
			l-0.069,0.021l-0.224,0.001l-0.583-0.029l-0.44-0.213l-0.247-0.519l0.005-0.51l0.188-0.336l0.15-0.137l0.123-0.079l0.082-0.067
			l0.055-0.092l0.003-0.115l-0.038-0.14l-0.117-0.151l-0.252-0.189l-0.265-0.166l-0.169-0.257l-0.132-0.142l-0.607-0.436
			l-0.146-0.129l-0.213-0.119l-0.064-0.07l0.002-0.116l0.003-0.15l0.1-0.253l0.15-0.148l0.084-0.138l0.138-0.171l0.112-0.229
			l0.083-0.149l0.219-0.17l0.355-0.307l0.208-0.286l0.112-0.276l0.073-0.323l0.006-0.278l-0.007-0.335l-0.01-0.209l-0.142-0.256
			l-0.372-0.398l-0.208-0.35l-0.233-0.443l-0.282-0.675l-0.208-0.396l-0.209-0.269l-0.145-0.21l-0.103-0.268l-0.101-0.406
			L43.38,10.02l-0.082-0.637L43.29,9.332l-0.442-0.129l-0.409-0.076l-0.4-0.024l-0.411,0.002l-0.361,0.034l-0.457,0.079L40.331,9.28
			l-0.138,0.004l-0.108-0.056l-0.132-0.123L39.793,9l-0.32-0.194l-0.251-0.178L39.02,8.423l-0.246-0.288l-0.334-0.319L38.147,7.58
			l-0.24-0.187l-0.38-0.191L37.23,7.046l-0.367-0.158l-0.396-0.141l-0.494-0.113L35.56,6.57l-0.541-0.044L34.41,6.475L34,6.47
			L33.813,6.5L33.63,6.572l-0.096,0.07l-0.21,0.148l-0.192,0.089l-0.155,0.038l-0.263,0.041l-0.185,0.047l-0.136,0.062l-0.064,0.078
			L32.274,7.29l-0.038,0.261l-0.063,0.422L31.957,8.38l-0.333,0.547L31.253,9.45L30.79,9.9l-0.384,0.212l-0.34,0.102l-0.478,0.047
			l-0.702,0.053l-0.643,0.009l-0.568-0.01l-0.624,0.06l-0.564,0.041l-0.381,0.036l-0.445,0.088l-0.39,0.095l-0.23,0.083L24.9,10.693
			l-0.151-0.076L24.53,10.48l-0.214-0.139l-0.102-0.091l-0.084-0.119l-0.077-0.125L24.008,9.86l-0.069-0.218l-0.077-0.231
			l-0.046-0.158l-0.066-0.455l-0.093-0.482l-0.055-0.449l-0.077-0.39l-0.046-0.383l-0.055-0.255L23.37,6.72l-0.054-0.053
			l-0.056-0.04l-0.054-0.013l-0.085,0.013l-0.101,0.026L22.96,6.679l-0.069,0.054l-0.039,0.066l-0.046,0.092l-0.054,0.053
			L22.706,6.97l-0.062,0.02l-0.1,0.013h-0.07l-0.139-0.026l-0.068-0.033l-0.068-0.066l-0.077-0.092l-0.146-0.205L21.812,6.39
			l-0.169-0.264L21.49,5.868L21.223,5.52L21.03,5.309l-0.178-0.198l-0.062-0.112L20.768,4.88l-0.068-0.218l-0.179-0.224
			l-0.216-0.265l-0.262-0.277l-0.255-0.178l-0.093-0.066l-0.03-0.033l-0.023-0.046V3.481l0.037-0.237l-0.001-0.33l0.008-0.324
			l0.008-0.238l-0.022-0.125l-0.031-0.04l-0.039-0.026h-0.046l-0.076,0.053L19.231,2.36l-0.106,0.066l-0.069,0.006l-0.101-0.006
			l-0.115-0.06l-0.386-0.125l-0.263-0.065h-0.153l-0.225,0.027l-0.161,0.06l-0.345,0.105l-0.293,0.06l-0.162,0.02l-0.114-0.013
			l-0.107-0.053L16.476,2.27l-0.14-0.178l-0.131-0.145l-0.077-0.119l-0.063-0.051l-0.096-0.024l-0.174-0.024l-0.316,0.005
			l-0.461,0.049l-0.264,0.034l-0.236,0.011l-0.264,0.019h-0.112l-0.163-0.024l-0.394-0.047l-0.389-0.038l-0.26-0.009l-0.241-0.023
			l-0.36-0.028l-0.444,0.001l-0.207,0.029L11.48,1.762l-0.387,0.151L10.92,1.962l-0.141,0.024h-0.084l-0.103-0.01l-0.19-0.033
			l-0.163-0.009h-0.142l-0.096,0.015l-0.22,0.068L9.569,2.085l-0.118,0.02L9.203,2.106L8.898,2.097L8.742,2.054L8.624,2.002
			L8.562,1.92L8.505,1.809l-0.04-0.154L8.464,1.497l0.055-0.198l0.078-0.164l0.111-0.223l0.045-0.116V0.738L8.725,0.671L8.673,0.618
			L8.521,0.58L8.127,0.538L7.94,0.558L7.812,0.597L7.7,0.626L7.516,0.704L7.465,0.738L7.414,0.786L7.348,0.935L7.23,1.201
			L7.186,1.249L7.091,1.341L6.917,1.482L6.766,1.584L6.514,1.715L6.345,1.803L6.216,1.842l-0.25,0.095l-0.18,0.049L5.649,2.015
			H5.538L5.437,1.996L5.335,1.967L5.238,1.929l-0.09-0.033L5.081,1.881L4.939,1.882L4.76,1.906L4.631,1.911L4.535,1.897L4.416,1.821
			L3.764,1.518L3.755,1.536L3.651,1.655L3.532,1.759L3.428,1.827L3.316,1.849l-0.183,0.03L2.895,1.936L2.812,1.968L2.755,2.005
			L2.716,2.077L2.694,2.143L2.686,2.234L2.707,2.33L2.76,2.491l0.039,0.11l0.017,0.121L2.781,2.93L2.699,3.297L2.635,3.485
			L2.56,3.612L2.441,3.746L2.273,3.847V3.844"/>
	</g>
</g>
<g id="Layer_1">
</g>
</svg>
