<?xml version="1.0" encoding="iso-8859-1"?>
<!-- Generator: Adobe Illustrator 16.0.4, SVG Export Plug-In . SVG Version: 6.00 Build 0)  -->
<!DOCTYPE svg PUBLIC "-//W3C//DTD SVG 1.1//EN" "http://www.w3.org/Graphics/SVG/1.1/DTD/svg11.dtd">
<svg version="1.1" xmlns="http://www.w3.org/2000/svg" xmlns:xlink="http://www.w3.org/1999/xlink" x="0px" y="0px" width="3.789px"
	 height="3.047px" viewBox="0 0 3.789 3.047" style="enable-background:new 0 0 3.789 3.047;" xml:space="preserve">
<g id="Layer_36">
	<g id="Layer_41">
		<path id="DISTRICT_x3D_Thatta_x2C_PROVINCE_x3D_Sindh_10_" style="fill:#CCCCCC;stroke:#FFFFFF;stroke-width:1.07;" d="
			M3.168,0.849L3.168,0.849L2.979,0.656l-0.326-0.11L2.361,0.582L1.919,0.657L1.312,0.859L0.889,0.908l-0.129,0.1L0.726,1.087
			l0.172,0.055l0.179-0.015l0.296-0.183l0.276,0.033l0.279,0.13l0.189,0.229L1.819,1.259L1.375,1.256L1.125,1.412L0.813,1.423
			l0.063,0.171l-0.02,0.217L0.678,2.312l0.11,0.152L1.36,2.366l0.228,0.01l0.183,0.081l0.293-0.02l0.052-0.104L2.04,2.066
			l0.021-0.191l0.219-0.216l-0.005-0.13l-0.09-0.118l0.102-0.047l0.56,0.275l0.235-0.06l0.114-0.188l0.046-0.296L3.168,0.849"/>
	</g>
</g>
<g id="Layer_1">
</g>
</svg>
