<?xml version="1.0" encoding="iso-8859-1"?>
<!-- Generator: Adobe Illustrator 16.0.4, SVG Export Plug-In . SVG Version: 6.00 Build 0)  -->
<!DOCTYPE svg PUBLIC "-//W3C//DTD SVG 1.1//EN" "http://www.w3.org/Graphics/SVG/1.1/DTD/svg11.dtd">
<svg version="1.1" xmlns="http://www.w3.org/2000/svg" xmlns:xlink="http://www.w3.org/1999/xlink" x="0px" y="0px" width="115px"
	 height="54.681px" viewBox="0 0 115 54.681" style="enable-background:new 0 0 115 54.681;" xml:space="preserve">
<g id="Layer_126">
	<g id="Layer_131">
		<path id="DISTRICT_x3D_Kech_x2C_PROVINCE_x3D_Balochistan_1_" style="fill:#CCCCCC;stroke:#FFFFFF;stroke-width:1.07;" d="
			M100.117,45.957L100.117,45.957l0.532-0.686l0.968-1.275l0.271-0.216l0.33-0.011l0.355-0.012l0.198-0.168l0.065-0.278l0.146-0.188
			l0.254-0.009l0.5,0.444l0.365,0.22l0.431-0.061l0.396-0.266l0.228-0.03l0.31,0.129l0.205,0.039l0.429-0.128l0.397-0.267
			l0.34-0.204l0.43-0.082l0.372-0.267l0.092-0.278l-0.115-0.343l-0.604-0.487l-0.576-0.443l-0.646-0.233l-0.359-0.104l-0.236-0.178
			l-0.115-0.343l-0.35-0.495l-0.16-0.181l-0.179-0.686l-0.021-0.507l0.114-0.351l0.326-0.147l0.604-0.181l0.449-0.243l0.446-0.338
			l0.09-0.324l0.083-0.511l-0.104-0.822l-0.002-0.762l0.184-0.536l0.193-0.281l0.225-0.146l0.355-0.011l0.28-0.009l0.224-0.168
			l0.018-0.231l-0.201-0.593l-0.111-0.229l-0.062-0.344l0.209-1.229l0.279-1.415l0.252-0.77l0.395-1.141l0.483-0.752l0.399-0.267
			l0.451-0.222l0.406-0.082l1.146-0.103l0.783-0.231l0.654-0.272l0.477-0.244l0.444-0.451l0.376-0.91l0.092-0.303l0.131-0.649
			l-0.072-0.573l-0.353-1.235l-0.366-0.958l-0.914-1.191l-0.795-0.736l-0.488-0.264l-0.242-0.131l-1.275-0.562l-0.99-0.454
			l-0.778-0.364l-0.116,0.414l-0.062,0.371l-0.113,0.396l-0.342,0.473l-0.371,0.335l-0.452,0.243l-0.698,0.308l-0.958,0.398
			l-0.502,0.271l-0.399,0.243l-0.35,0.241l-0.396,0.336l-0.279,0.03l-0.592-0.072l-0.772-0.114l-1.096,0.104l-0.894,0.075
			l-1.619,0.444l-1.575,0.282l-0.584,0.11l-0.386-0.033l-0.49-0.121l-0.764-0.507l-1.16-1.103l-0.803-0.85l-0.219-0.315
			l-0.958-0.868l-0.741-0.552l-1.102-1.231l-1.034-0.816l-0.704-0.276l-0.831-0.248l-0.924-0.037l-0.69,0.024l-0.688,0.116
			l-0.826,0.166l-1.186,0.457l-0.399,0.244l-0.366,0.384l-0.248,0.216l-0.252,0.102l-0.229,0.009l-0.491-0.098l-0.493-0.121
			l-0.332,0.035l-0.327,0.104l-0.259-0.037l-0.358,0.013l-0.453,0.179l-0.631,0.186l-0.637,0.114l-0.406,0.062l-0.344-0.057
			l-0.174-0.225l-0.023-0.06l-0.049-0.19l-0.07-0.279l-0.098-0.215l-0.056-0.312l-0.011-0.566l0.096-0.651l0.098-0.635l0.063-0.684
			l-0.065-0.292l-0.186-0.264l-0.282-0.117l-0.293-0.059l-0.412,0.012l-0.542,0.088l-0.574,0.107l-0.4,0.001l-0.206-0.059
			l-0.25-0.137l-0.195-0.225l-0.011-0.233l0.086-0.321l0.119-0.108h0.074l0.076,0.039l0.217,0.098l0.142,0.01l0.108-0.049
			l0.119-0.187l0.054-0.378l0.042-0.127l0.087-0.059l0.194-0.03h0.24l0.162-0.029l0.163-0.078l0.065-0.106l0.087-0.029l0.086-0.001
			l0.098,0.078l0.109,0.117l0.118,0.049h0.207l0.174-0.06l0.162-0.078l0.142-0.06h0.151l0.107,0.029l0.108,0.039h0.108l0.055-0.029
			l0.043-0.06l0.043-0.146l-0.076-0.272L76.16,9.81L75.89,9.674l-0.912-0.419L73.836,8.71l-0.368-0.194l-0.413-0.253L72.414,8
			l-0.521-0.194l-1.365-0.423l-1.074-0.397l-0.762-0.231l-0.174-0.028h-0.25L67.92,6.736l-0.487,0.052l-0.619,0.138l-0.401,0.089
			l-0.93,0.278l-1.029,0.424l-0.855,0.374l-0.455,0.138L62.33,8.485l-0.629,0.257l-0.4,0.118L60.986,8.93l-0.367,0.188l-0.261,0.107
			L59.99,9.325l-0.43,0.118l-0.357,0.04l-0.349-0.057l-0.705-0.056l-0.521-0.036l-0.413-0.097L57.03,9.054l-0.034-0.165l0.117-0.265
			l0.41-0.383l0.639-0.511l0.117-0.216l0.01-0.215l-0.076-0.097l-0.098-0.029l-0.174-0.009l-0.228,0.05l-0.423,0.108l-0.444,0.148
			l-0.239,0.03L56.5,7.464l-0.077-0.087l0.043-0.117l0.151-0.188l0.107-0.195l0.021-0.099l-0.011-0.067l-0.065-0.067l-0.12-0.029
			L56.18,6.627l-0.488,0.032l-0.348-0.019l-0.152-0.087l-0.045-0.176l0.032-0.166l0.064-0.176l0.075-0.1l0.3-0.43l0.312-0.44
			l0.367-0.295l0.52-0.432l0.117-0.322l-0.001-0.176l-0.1-0.234l-0.219-0.271L56.035,2.86l-0.273-0.34l-0.176-0.253l-0.222-0.316
			L55.058,1.66L54.86,1.495l-0.062-0.062l-0.234-0.405L53.592,1.19l-2.057-0.597l-0.667-0.059L49.493,0.55l-0.259,0.003
			l-1.124,0.282l-3.298-0.059l-0.768-0.193l-0.317-0.001L43.29,0.58l-1.029-0.001l-0.748,0.16l-0.991,0.41l-0.218,0.177L40.087,1.75
			l-0.208,0.175l-0.464,0.12l-0.542,0.149l-0.499,0.034l-1.01-0.164l-0.52,0.307l-0.438,0.403l-1.232,0.6l-1.088,0.091l-0.218,0.019
			l-1.946,0.163l-0.744-0.12l-1.393,0.489L29.16,4.098l-0.918-0.101l-0.279,0.078l-0.99,0.986l-0.297,0.209l-0.267,0.043
			l-1.487-0.051l-0.329,0.15L24.17,5.606L23.77,5.719L23,5.705L22.624,5.89l-0.275,0.448l-0.146,0.619l0.049,0.19l0.31,0.388
			l0.179,0.338L22.467,8.25l-0.524,0.544l-0.292,0.302L21.12,9.158L20.619,9.03l-0.055,0.117l0.342,0.577l0.004,0.807l1.106,1.073
			l0.008,0.652l-0.375,0.53l-0.788,0.006l-1.048-0.271l-0.223-0.058l-1.382-0.139L15.923,11.5l-0.511-0.027l-0.179,0.399v0.676
			v1.435l-0.288,0.533l-0.599,0.104l-1.895-0.05l-0.94,0.451l-2.153,1.034l-1.181,0.46L6.12,16.86l-0.056,0.011l-1.521,0.553
			l-0.95,0.772l-0.617,2.369L2.954,20.69l-0.915,5.178l-0.361,2.045l-0.432,2.833l-0.067,0.307l-0.301,1.375L0.783,33.04l0.07,0.807
			l-0.066,1.38l-0.02,0.029l0.351,0.204l0.066,0.087l0.27,0.039l0.135-0.048l0.257,0.003l0.039,0.146l-0.001,0.099l-0.056,0.134
			l-0.015,0.108l-0.015,0.122l0.038,0.158l0.092,0.208l0.092,0.208l0.037,0.292l-0.031,0.27L1.93,37.431l-0.177,0.132l-0.096,0.183
			l0.011,0.158l0.092,0.185l0.105,0.208l0.024,0.171l0.221,0.007l0.388,0.164l0.167-0.02l0.296,0.026l0.254,0.102l0.268,0.147
			l0.228,0.124l0.363,0.065l0.471,0.029l2.238,0.755l0.16,0.11l0.188,0.063l0.31,0.003l0.269-0.009l0.162,0.002l0.309,0.052
			l0.188,0.075l0.188,0.062l0.216,0.003l0.203-0.096l0.218-0.155l0.273-0.254l0.926-0.169l0.057-0.195l0.017-0.268l0.031-0.268
			l0.11-0.171l0.137-0.145l0.163-0.096l0.096-0.098l0.005-0.327l-0.051-0.173l0.004-0.315l0.097-0.17l0.19-0.107l0.176-0.071
			l0.337,0.005l0.183,0.069l0.125,0.104l0.079,0.109l0.079,0.185l0.011,0.146l-0.031,0.279L12,38.415l-0.015,0.146l-0.032,0.422
			l0.051,0.501l0.076,0.349l0.145,0.156l0.249,0.235l0.249,0.217l0.121,0.233l0.246,0.333l0.035,0.288l0.013,0.327l-0.072,0.324
			l-0.163,0.556l-0.029,0.307l-0.004,0.153l0.077,0.29l0.165,0.196l0.124,0.155l0.079,0.213l0.097,0.329l0.226,0.293l0.214,0.164
			l0.27,0.207l0.292,0.199l0.204,0.312l-0.006,0.229l-0.091,0.248l-0.11,0.151l-0.193,0.071l-0.341,0.052l-0.553,0.084l-0.366,0.184
			l-0.24,0.265l-0.241,0.283l-0.112,0.247L12.25,47.46l-0.052,0.364l-0.027,0.249l0.058,0.065l0.044,0.051l0.096,0.035l0.072,0.026
			l0.528,0.069l0.803,0.074l0.293,0.103l0.208,0.178l0.026,0.149l0.011,0.062l0.053,0.405l0.206,0.233l0.147,0.023l0.36-0.012
			l0.642-0.217l0.554-0.157l0.322-0.093l1.155-0.415l0.879-0.347l0.383-0.066l0.747-0.177l1.176-0.338l1.262-0.394l1.263-0.412
			l1.28-0.317l1.323-0.295l0.661-0.119l0.87-0.017l0.804,0.077l0.176-0.007l0.397-0.019l0.872-0.073l0.912-0.034l2.271-0.021
			l1.146-0.047l1.105-0.049l0.764-0.037l0.846,0.099l0.804,0.061L38.39,46.1l0.597-0.08l0.957-0.09l1.317-0.079l1.17-0.103
			l0.554-0.062l0.339,0.01l0.396,0.185l0.375,0.184l0.317,0.048l0.489-0.045l0.282-0.202l0.352-0.336l0.219-0.205l0.217-0.129
			l0.427-0.084l0.576-0.101l0.702-0.057l0.793-0.126l0.616-0.26l0.522-0.197l0.538-0.087l0.279-0.013l0.337,0.124l0.246,0.335
			l0.383,0.515l0.807,0.843l0.376,0.397l0.142,0.295l0.089,0.25l0.136,0.179l0.259,0.081l0.555-0.092l0.459,0.025l0.357,0.031
			l0.447,0.281l0.365,0.191l0.769,0.106l1.271-0.006l0.688,0.018l0.426-0.133l0.301-0.081l0.361,0.101l0.266,0.221l0.164,0.224
			l0.279-0.012l0.504-0.089l0.771,0.176l1.409,0.22l0.865,0.094l1.145,0.001l1.095,0.026l0.492,0.188l0.239,0.222l0.117,0.317
			l0.301,0.449l0.14,0.248l0.287,0.172l0.31,0.104l0.739,0.041l0.261,0.149l0.219,0.338l0.15,0.502l0.162,0.199l0.342,0.241
			l0.09,0.272l0.035,0.206l-0.22,0.216l-0.562,0.46l-0.366,0.312l-0.218,0.263l-0.014,0.23l0.141,0.294l0.385,0.102l0.398-0.154
			l1.029-0.8l0.746-0.882l0.994-0.477l1.564-0.796l2.281-1.238l1.344-0.626l0.846-0.398l1.791-0.838l1.994-0.879l0.576-0.229
			l0.681-0.14l0.373-0.198l0.217-0.284l0.349-0.149l0.881-0.217l1.408-0.372l1.912-0.505l2.217-0.515l0.957-0.24l0.68-0.207
			l1.01-0.195l1.011-0.037l0.94-0.056l0.334,0.104l0.24,0.292l0.234,0.13l0.281,0.037l0.412,0.102l0.16,0.202l0.037,0.299
			l0.194,0.407l0.319,0.335l0.548,0.353l0.692,0.139l0.888-0.052L100.117,45.957"/>
	</g>
</g>
<g id="Layer_1">
</g>
</svg>
