<?xml version="1.0" encoding="iso-8859-1"?>
<!-- Generator: Adobe Illustrator 16.0.4, SVG Export Plug-In . SVG Version: 6.00 Build 0)  -->
<!DOCTYPE svg PUBLIC "-//W3C//DTD SVG 1.1//EN" "http://www.w3.org/Graphics/SVG/1.1/DTD/svg11.dtd">
<svg version="1.1" xmlns="http://www.w3.org/2000/svg" xmlns:xlink="http://www.w3.org/1999/xlink" x="0px" y="0px"
	 width="24.959px" height="24.445px" viewBox="0 0 24.959 24.445" style="enable-background:new 0 0 24.959 24.445;"
	 xml:space="preserve">
<g id="Layer_166">
	<g id="Layer_171">
		<path id="DISTRICT_x3D_Buner_x2C_PROVINCE_x3D_NWFP" style="fill:#CCCCCC;stroke:#FFFFFF;stroke-width:1.07;" d="M14.329,0.831
			L14.329,0.831l-0.021-0.02l-0.183-0.017l-0.062,0.002l-0.048,0.007l-0.08-0.002l-0.087,0.003L13.78,0.781L13.773,0.78
			l-0.077-0.026h-0.001l-0.04-0.014l-0.196-0.078l-0.201,0.023L13.155,0.68l-0.1-0.107l-0.103,0.016l-0.152,0.026L12.66,0.658
			l-0.086,0.057l-0.047,0.031l-0.094,0.173l-0.012,0.039l-0.026,0.095l-0.015,0.064l-0.026,0.109l-0.027,0.103l-0.009,0.124
			l-0.018,0.086l-0.052,0.138l-0.007,0.008L12.207,1.76l-0.101,0.123l-0.063,0.069l-0.064,0.069l-0.043,0.04l-0.05,0.031
			L11.88,2.097l-0.019,0.018l-0.099-0.006l-0.127-0.026L11.593,2.07l-0.164-0.033l-0.018-0.003l-0.047-0.003l-0.147-0.022
			l-0.032-0.006L11.1,1.986l-0.104-0.02l-0.147-0.019h-0.01l-0.031-0.004l-0.177-0.02l-0.191-0.032l-0.048-0.027l-0.074-0.043
			l-0.039-0.074l-0.126-0.168L10.022,1.5L9.896,1.497l-0.218,0.08L9.588,1.614l-0.094,0.03l-0.08,0.029L9.32,1.711L9.217,1.748
			L9.126,1.784L8.998,1.869l-0.05,0.05L8.803,2.037L8.773,2.056L8.756,2.074L8.723,2.093L8.633,2.21L8.511,2.275L8.489,2.283l0,0
			L8.422,2.31L8.31,2.343L8.178,2.39L8.062,2.435L7.927,2.484L7.843,2.519l-0.02,0.009L7.789,2.559L7.771,2.673L7.745,2.833
			L7.735,2.92L7.728,3.042L7.661,3.209l-0.06,0.073L7.588,3.302L7.566,3.335L7.506,3.405l-0.032,0.04L7.396,3.542L7.384,3.556l0,0
			L7.319,3.637L7.253,3.719L7.172,3.827L7.011,4.026L6.927,4.124L6.862,4.177L6.759,4.261l-0.12,0.01L6.523,4.289l-0.122,0.02
			L6.249,4.33L6.143,4.363L6.024,4.409l-0.13,0.069L5.749,4.542L5.684,4.555L5.52,4.618L5.21,4.651L4.899,4.649l-0.252,0.02H4.645
			H4.644L4.55,4.697l-0.125,0.05L4.313,4.822l-0.14,0.099L4.071,5.003L3.998,5.07L3.854,5.153L3.767,5.211L3.68,5.256l-0.07,0.045
			L3.601,5.307H3.6L3.422,5.458L3.301,5.572L3.245,5.64L3.236,5.744L3.226,5.871L3.216,5.89v0.034L3.19,5.936l-0.02,0.037
			L3.084,5.985L3.062,5.988L2.97,5.999L2.874,6.007L2.791,6.02L2.66,6.042L2.548,6.076L2.454,6.11L2.358,6.171L2.275,6.226
			L2.193,6.269L2.126,6.317L2.112,6.337l0,0l-0.03,0.053l-0.011,0.01L2.064,6.419L2.062,6.428L2.041,6.432L2.021,6.453L1.955,6.445
			L1.91,6.45L1.772,6.438L1.745,6.438L1.66,6.455L1.632,6.453L1.626,6.454L1.568,6.457L1.442,6.453L1.311,6.5L1.308,6.533v0.024
			l0.004,0.066l0.021,0.094l0,0l0.012,0.119L1.346,6.84l0.028,0.08l0.04,0.128l0,0l0.02,0.062l0.052,0.054l0.119,0.082L1.7,7.331
			l0.021,0.041l0.009,0.042l0.007,0.042l0.013,0.059l0.026,0.03l0.027,0.042l0.019,0.021l0.01,0.012l0.102,0.109l0.066,0.058
			l0.006,0.008l0.008,0.034l-0.02,0.065l-0.016,0.04l-0.02,0.039L1.95,7.994l0.003,0.012L1.879,8.042L1.668,8.047L1.469,8.053
			L1.417,8.058L1.352,8.071L1.258,8.167L1.211,8.352L1.209,8.411l0.01,0.092v0.038l-0.06,0.047L0.98,8.655L0.966,8.66L0.878,8.722
			L0.749,8.778L0.717,8.792L0.689,8.83L0.672,8.855L0.665,8.983l0.021,0.123l-0.017,0.04L0.645,9.204L0.634,9.241l0.09,0.049
			l0.059,0.028l0.104,0.04l0.02,0.008l0.05,0.017L1.122,9.44l0.043,0.006l0.052,0.018l0.039,0.018l0.056,0.02l0.127,0.074
			l0.061,0.032L1.53,9.625l0.006,0.005l0.026,0.024L1.562,9.696l-0.01,0.034L1.524,9.831L1.523,9.879l0.001,0.047l0.006,0.05
			l-0.002,0.056l-0.003,0.053l-0.007,0.044l-0.02,0.048l-0.021,0.058l-0.001,0.001l-0.001,0.011l-0.021,0.061l-0.008,0.089
			l0.045,0.161l-0.021,0.125L1.438,10.9l0.023,0.152l0.023,0.112l0.028,0.032l0.025,0.032l0.045,0.049l0.057,0.042l0.059,0.023
			l0.045,0.023l0.057,0.024l0.073,0.021l0.048,0.012l0.044,0.037l0.016,0.024l0.006,0.002l0.044,0.055l0.036,0.03l0,0l0.011,0.006
			l0.033,0.02l0.034,0.015l0.031,0.007l0.003,0.005l0.034-0.001h0.027l0.032,0.001l0.056,0.006l0.053,0.021l0.056,0.021l0.058,0.006
			h0.038h0.029h0.029h0.029h0.026l0.019,0.08l0.033,0.03L2.713,11.8l0.021,0.013l0.065,0.048l0.02,0.003l0.027,0.006l0.025,0.007
			L2.9,11.891l0.035,0.02l0.036,0.031l0.03,0.034l0.037,0.05l0.036,0.05l0.026,0.029l0.035,0.025l0.052,0.018l0.035,0.016
			l0.034,0.019l0.047,0.02l0.044,0.017l0.035,0.011l0.036,0.008l0.043,0.012l0.054,0.017l0.032,0.009l0.023,0.01l0.049,0.023
			l0.026,0.015l0.019,0.014l0,0l0.017,0.006l0.114-0.06L3.8,12.28l0.048-0.063l0.033-0.035l0.044-0.036l0.072-0.043l0.054-0.027
			l0.04-0.016l0.045-0.008l0.051-0.01l0.048-0.001l0.041-0.001l0.068-0.004l0.101-0.008l0.147-0.042l0.065-0.022l0.064-0.021
			l0.054-0.027l0.075-0.018l0.059-0.007l0.047,0.005l0.062,0.012l0.098,0.022l0.061,0.012l0.038,0.006l0.033,0.001l0.01,0.001
			l0.024,0.001l0.056-0.028l0.152-0.053h0.053l0,0l0.069-0.021l0.052-0.014l0.078-0.004l0.071-0.011h0.058l0.067-0.003l0.071-0.003
			l0.068,0.003l0.055,0.014l0.028,0.011l0.04,0.016l0.054,0.021l0.046,0.017l0.059,0.022l0.038,0.014l0.063,0.025l0.053,0.018
			l0.041,0.018l0.04,0.016l0.051,0.019l0.038,0.009l0.077-0.022l0.062-0.021l0.048-0.016l0.051-0.011h0.031l0.03,0.015l0.051,0.023
			l0.04,0.017l0.021,0.007l0.097,0.011l0.027,0.001l0.058-0.01h0.059l0.05-0.001l0.056,0.01l0.043,0.026l0.021,0.012l0.023,0.012
			l0.058,0.015l0.042,0.012l0.038,0.006l0.049,0.018l0.044,0.018l0.034,0.03l0.028,0.041l0.024,0.087l0.021,0.068l0.05,0.132
			l0.088,0.131l0.044,0.028l0.071,0.014l0.07,0.03l0.049,0.022l0.062,0.045l0.056,0.053l0.038,0.045l0.081,0.102l0.044,0.03
			l0.064,0.034l0.069,0.03l0.062,0.021l0.083,0.021l0.046,0.01l0.074,0.009l0.078,0.004l0.102-0.012l0.076-0.007l0.086-0.006h0.075
			h0.046l0.065,0.002l0.078-0.002l0.064-0.002l0.078,0.021l0.057,0.029l0.061,0.043l0.065,0.053l0.048,0.049L9.92,13.34l0.024,0.064
			l0.016,0.051l0.003,0.012l0.016,0.055l0.025,0.081l0.02,0.062l0.014,0.06l0.024,0.063l0.015,0.041l0.011,0.045l-0.013,0.051
			l-0.013,0.07l-0.018,0.055l-0.02,0.062l0.014,0.071l0.032,0.076l0.001,0.005l0.012,0.012l0.021,0.014l0.003-0.002l0.054,0.018
			l0.058,0.035l0.056,0.02l0.097,0.043l0.043,0.039l0.035,0.049l0.031,0.045l0.048,0.067l0.041,0.048l0.066,0.045l0.071,0.002
			l0.058-0.002l0.048-0.005l0.062,0.001l0.094,0.02l0.067,0.023l0.058,0.038l0.035,0.022l0.088-0.008l0.085-0.062l0.012,0.001
			l0.038-0.029l0.089-0.004l0.071,0.02l0.091,0.009l0.062,0.002l0.099-0.013l0.105-0.012l0.094-0.019l0.089,0.042l-0.003,0.061
			l0.004,0.049l0.002,0.053l0.001,0.07l-0.021,0.06l-0.001,0.063l0.001,0.021l0.025,0.075l0.012,0.018l0.053,0.047l0.033,0.047
			l0.024,0.059l0.04,0.1l0.044,0.092l0.039,0.054l0.062,0.081l0.008,0.053l0.013,0.062l-0.005,0.023l-0.003,0.018l-0.005,0.025l0,0
			l0.002,0.016l-0.003,0.018l-0.002,0.044l-0.008,0.065l-0.01,0.059l-0.002,0.051L12.35,16.16l-0.018,0.041l0.01,0.031l-0.027,0.064
			l-0.021,0.05L12.273,16.4l-0.051,0.012l-0.043,0.016l-0.006,0.004l-0.039,0.04l-0.05,0.062l-0.024,0.063l-0.039,0.041
			l-0.065,0.052l-0.018,0.066l-0.031,0.039l-0.068,0.033l-0.07,0.006l-0.057,0.007l-0.014,0.005l-0.021,0.008l-0.022,0.03
			l-0.041,0.055l-0.061,0.026l-0.005,0.002L11.5,16.998l-0.046,0.043l-0.062,0.06l-0.049,0.044l-0.01,0.01l-0.027,0.109l0.001,0.001
			l0.012,0.048l-0.035,0.008l-0.012,0.02l-0.079,0.016l-0.126,0.025l-0.049,0.046l0.004,0.026l-0.02,0.06l-0.017,0.048l0.028,0.059
			l-0.001,0.066l-0.018,0.057l-0.011,0.051l0.028,0.046l0.036,0.046l-0.032,0.044l-0.04,0.007l-0.013,0.023L10.875,18l-0.02,0.021
			l-0.003,0.024l0.028,0.042l0.026,0.059l0.005,0.06l-0.04,0.029l-0.042,0.014l-0.021,0.018l0.033,0.028l0.048,0.026l0.001,0.033
			l0.052,0.034l0.029,0.009h0.07l0.045-0.005l0.015-0.007l0.059-0.012l0.048,0.033l0.009,0.062l-0.002,0.008l-0.013,0.046
			l-0.022,0.071l-0.002,0.006l-0.023,0.078l-0.003,0.044l0,0l0.034,0.044l0.059,0.017l0.047,0.006l0.107,0.011l0.049,0.01
			l0.07,0.034l0.033,0.042l-0.001,0.015l0,0l-0.006,0.043l-0.05,0.047l-0.046,0.029l-0.045,0.029l-0.056,0.045L11.3,19.145
			l-0.055,0.047l-0.056,0.051l-0.05,0.049h-0.001l-0.104,0.084l-0.09,0.062l-0.054,0.027l-0.026,0.052l-0.023,0.052l-0.006,0.004
			L10.827,19.6l-0.052,0.025l-0.035,0.018l-0.049,0.042l-0.003,0.072l-0.016,0.021l-0.074,0.068l-0.086,0.064l-0.091,0.107
			l-0.074,0.081l-0.146,0.091l-0.108,0.061l0.002,0.018l0,0l0.018,0.043l0.015,0.051l-0.016,0.051l0.001,0.004l-0.066,0.092
			l-0.069,0.068l-0.005,0.022l0,0l0.004,0.034l0.003,0.066L9.952,20.72L9.93,20.734l-0.059,0.019l-0.069-0.005H9.727l-0.046,0.064
			l-0.052,0.041l-0.013,0.016l-0.027,0.033l0.004,0.062l0.018,0.039l0.006,0.011L9.65,21.09l0.021,0.068l0.016,0.051l0.017,0.048
			l0.01,0.021l0.021,0.043l0.021,0.031l0.034,0.062l0.032,0.052l0.002,0.003l0.029,0.045l0.013,0.059l-0.021,0.059l-0.029,0.068
			l-0.028,0.056l-0.022,0.056l-0.021,0.053l-0.02,0.059l-0.005,0.07l0.021,0.047l-0.006,0.056l-0.021,0.052l-0.047,0.025
			l-0.018,0.009L9.59,22.234L9.546,22.27l-0.051,0.055l-0.018,0.047h0.001h0.027l0.075,0.002l0.066-0.002l0.089-0.002l0.07-0.004
			l0.049-0.002h0.052l0.068-0.002l0.068,0.03l0.068,0.019l0.08,0.026l0.076,0.005l0.055,0.002l0.053,0.002l0.081,0.004l0.08-0.006
			l0.084,0.006l0.047,0.021l0.053,0.04l0.064,0.01l0.08-0.007l0.067,0.004h0.005l0.011,0.001l0.051,0.003l0.068,0.003h0.077
			l0.062,0.016l0.046,0.022l0.072,0.013l0.053-0.004l0.062-0.016l0.06-0.033l0.061-0.007l0.082,0.001l0.076,0.003l0.079,0.002
			l0.065,0.011l0.021,0.053l0.007,0.06l0.015,0.052l0.002,0.029l0,0l0.02,0.049h0.001l0.019,0.021l0.058,0.029l0.053,0.027
			l0.042,0.023l0.052,0.039l0.089,0.068l0.07,0.016l0.042,0.041l0.038,0.051l0.04,0.031l0.089,0.035l0.069,0.014l0.047,0.013
			l0.076,0.019l0.066,0.019l0.021,0.002l0.061,0.008l0.078,0.007l0.073-0.007h0.008l0.012-0.026l0.104,0.035l0.125-0.041
			l0.005-0.004l0.057-0.039l0.047-0.016h0.008l0.039,0.003l0.013,0.001l0.062,0.034h0.001h0.001l0.077,0.169l0.161,0.057h0.006
			l0.004,0.002l0.139,0.018l0.017,0.018l0.009,0.002l0.016,0.021l0,0l0.016,0.021l0.023,0.043l0.037,0.049l0.043,0.043l0.049,0.024
			l0.063,0.007h0.06l0.047,0.022l0.036,0.034l0.032,0.045l0.051,0.025l0.069,0.002l0.062,0.022l0.064,0.039l0.039,0.06l0.042,0.002
			h0.007h0.022l0.061-0.059l0.03-0.07l0.001-0.006l0.002-0.062l-0.024-0.051l-0.029-0.047l0.032-0.053l0.036-0.062l0.032-0.058
			l0.025-0.044l0.036-0.086l0.027-0.053l0.011-0.018l0,0l0.025-0.066l0.021-0.045l0.001-0.002l0.025-0.078l0.015-0.082l0.049,0.019
			l0.017,0.009l0,0l0.057,0.019l0.066,0.098l0.1,0.033l0.059-0.037l0.039-0.065l0.034-0.047l0.062-0.02l0.057,0.023l0.046,0.021
			l0.067,0.022l0.062,0.031l0.062,0.023l0.006,0.002l0.148-0.003l0.02-0.019h0.001l0.005-0.015l0.033-0.062l0.054-0.053l0.035-0.039
			l0.058-0.029L16.2,22.84l0.035-0.038l0.031-0.04l0.042-0.039l0.103-0.055l0.04-0.027l0.021-0.045l0.081-0.104l-0.024-0.043
			l-0.012-0.051l0.024-0.048l0.025-0.06l0.029-0.064l0.005-0.068l-0.028-0.045l0.026-0.028l-0.003-0.042v0.009l-0.004-0.054
			l-0.038-0.057l-0.03-0.043l-0.033-0.062l-0.031-0.062l-0.039-0.037l-0.02-0.049l-0.018-0.046l0.007-0.053l-0.049-0.048
			l-0.037-0.064l-0.007-0.013h-0.001l-0.025-0.024l-0.021-0.027l-0.012-0.008l-0.049-0.023l-0.048-0.026l-0.048-0.03l-0.046-0.033
			l-0.045-0.029l-0.049-0.029l-0.049-0.041l-0.037-0.039l-0.012-0.052l0.014-0.053l0.037-0.06l0.05-0.039l0.066-0.024l0.053-0.021
			l0.062-0.023l0.053-0.021l0.104-0.08l0.168-0.084l0.116-0.072l0.055-0.08l0.042-0.068l0.032-0.014l0.078-0.112l0.063-0.046
			l0.015-0.035l0.063-0.051l0.062-0.034l0.031-0.06l0.054-0.023l0.064-0.033l0.046-0.035l0.04-0.035l0.05-0.026l0.018-0.001
			l0.062-0.006l0.064-0.012l0.054-0.022l0.066-0.022l0.011-0.008l0.004-0.002l0.005-0.003h0.001h0.003l0.001-0.001l0.028-0.018
			l0.034-0.039l0.029-0.039l0.042-0.035l0.009-0.029l0.011-0.025h0.001l0.021-0.043l0.032-0.043l0.047-0.031l0,0l0.027-0.02
			l0.031-0.021l0.078-0.029l0.021-0.046l0.057-0.072l0,0l0.007-0.015l0.006-0.001l0.004-0.006l0.104-0.041l0.08-0.066l0.023-0.086
			l0.005-0.012l0.004-0.02l0.029-0.076l0.027-0.053l0.042-0.041l0.062-0.039l0.061-0.017l0.067-0.001l0.078-0.016l0.085-0.01
			l0.16-0.094l0.233-0.252l0.081-0.088l0.203-0.191l0.016-0.004l0.037-0.037l0.064-0.027l0.083-0.01l0.081,0.01l0.046,0.009h0.001
			l0.121,0.006l0.24-0.118l0.154-0.152l0.077-0.076l0.088-0.064l0.033-0.027l0.049-0.031l0.031-0.03l0.158-0.09l0.146-0.011
			l0.091-0.002l0.19-0.004l0.261,0.004l0.178,0.02l0.113-0.006l0.076-0.044l0.062-0.097l0.041-0.076l0.109-0.187l0.087-0.135
			l0.105-0.164l0.103-0.162l0.128-0.112l0.104-0.139l0.143-0.256l0.168-0.24l0.088-0.105l0.106-0.143l0.102-0.181l-0.019-0.206
			l-0.001-0.031l-0.005-0.076l-0.003-0.045l-0.016-0.131l-0.015-0.184l0.017-0.147l0.017-0.087l0.016-0.074l0.039-0.203l0.092-0.36
			l0.084-0.188l0.045-0.07l0.08-0.092l0.1-0.75l-0.05-0.14l-0.025-0.053l-0.063-0.058l-0.055-0.048l-0.081-0.078l-0.044-0.036
			l-0.058-0.046l-0.023-0.019l-0.087-0.096l-0.065-0.075l-0.079-0.066l-0.123-0.105l-0.058-0.041l-0.007-0.005l-0.01-0.006
			l-0.051-0.047l-0.01-0.009l0.002-0.001l-0.049-0.088l-0.053-0.086l-0.053-0.083l-0.062-0.084l-0.097-0.093l-0.124-0.053
			l-0.108-0.041l-0.066-0.023l-0.033-0.016l-0.006-0.001v-0.03l0.002-0.043l0.008-0.093l0.017-0.061l0.01-0.072l-0.001-0.036
			l0.079-0.104l0.086-0.027l0.096-0.03h0.04l0.229,0.021l0.301,0.027l0.159,0.062l0.062,0.01l0.094-0.023l0.074-0.052l0.098-0.08
			l0.091-0.178l0.056-0.044l0.071-0.057l0.072-0.054l0.133-0.04l0.131-0.015h0.021l0.073-0.007l0.164-0.012l0.02-0.003l0.087-0.05
			l0.088-0.218l-0.091-0.085l-0.147-0.129L23.92,9.903l-0.071-0.165l-0.13-0.167l-0.048-0.041l-0.097-0.055l-0.091-0.038
			l-0.044-0.07l-0.015-0.009l-0.007-0.024V9.333l-0.001-0.001L23.39,9.28l-0.025-0.044l-0.042-0.058l-0.024-0.037L23.292,9.14
			l-0.203-0.25L23.076,8.88l-0.038-0.03l-0.029-0.023l-0.111-0.052L22.67,8.638L22.54,8.54l-0.036-0.071l0.016-0.13l0.03-0.13
			l0.007-0.023l-0.042-0.198l0.002-0.003l0.061-0.149l0.027-0.068l0.086-0.184l0.051-0.189l0,0l-0.023-0.146l-0.022-0.096
			l-0.033-0.128l-0.033-0.117l-0.045-0.125l-0.036-0.104l-0.052-0.105l-0.055-0.14l-0.072-0.167l-0.024-0.065L22.33,6.163
			l-0.011-0.045l-0.002-0.006l-0.021-0.076l-0.036-0.082l-0.095-0.139l-0.079-0.085l-0.079-0.066l-0.084-0.07l-0.05-0.061
			L21.856,5.52l-0.071-0.062l-0.03-0.043l-0.039-0.055l-0.026-0.074l-0.006-0.014L21.65,5.2l-0.015-0.099l-0.019-0.161l-0.001-0.066
			l-0.018-0.05l-0.014-0.021L21.549,4.77l-0.062-0.04l-0.11-0.117l-0.089-0.121l-0.029-0.161l0.023-0.092l0.012-0.129l0.003-0.106
			L21.28,3.841l-0.014-0.087l0.057-0.176l0.048-0.102l0.05-0.085l0.117-0.149l0.104-0.102l0.12-0.135l0.05-0.098l0.018-0.159
			l0.09,0.003l0.013,0.002h0.137l0.062-0.034L22.02,2.617l0.041-0.076l0.042-0.017l0,0l0.04-0.015l0.116-0.083l-0.024-0.052V2.373
			l-0.023-0.041l-0.045-0.067l-0.157-0.073l-0.121,0.024l0,0l-0.124,0.071l-0.056,0.005l-0.107,0.01L21.59,2.26l-0.001-0.001
			L21.553,2.12l-0.03-0.104l-0.005-0.019l-0.095-0.038L21.401,1.96l-0.129,0.016l-0.192,0.04l-0.136-0.004l-0.054-0.021h-0.02
			l-0.058-0.053l-0.066-0.042l-0.113,0.007l-0.176,0.088L20.424,2.01l-0.075,0.049l-0.073,0.044l-0.09,0.039l-0.084,0.027
			l-0.171,0.039l-0.082,0.019l-0.113,0.04l-0.104,0.016l-0.157,0.01l-0.136,0.07l-0.016,0.155l-0.039,0.056l-0.006,0.018
			l-0.022,0.021l0,0l-0.014,0.021l-0.035,0.025l-0.043,0.039l-0.028,0.069l-0.001,0.011l0.001,0.07l0.086,0.097l0.145,0.082
			l-0.078,0.125l-0.079,0.074l-0.124,0.066l-0.008,0.001h-0.017l0.003,0.006l-0.015,0.008l-0.153-0.003l-0.049,0.004l-0.169,0.015
			l-0.032-0.001L18.549,3.33l-0.285,0.002l-0.099-0.014l-0.211-0.001l-0.188-0.016l-0.132,0.011l-0.15,0.052l-0.188,0.122
			L17.16,3.553l-0.166,0.04l-0.246,0.045L16.612,3.69L16.594,3.7l-0.093,0.052l-0.112,0.049l-0.113,0.014l-0.087-0.01l-0.114-0.076
			l-0.092-0.138l-0.001-0.003l-0.007-0.039V3.547l-0.021-0.059l-0.027-0.098l-0.027-0.17l-0.021-0.076l-0.021-0.084l-0.032-0.081
			l-0.037-0.083l-0.064-0.058l-0.073-0.056l-0.027-0.03l0,0l-0.03-0.031l-0.056-0.074l-0.057-0.084L15.37,2.438l-0.021-0.012
			l-0.064-0.034l0,0l-0.116-0.028L15,2.378l-0.14,0.026l-0.052-0.018l-0.034-0.005l-0.076-0.039l-0.074-0.047L14.571,2.2
			l-0.004-0.01l-0.053-0.106l-0.068-0.141l-0.032-0.08l-0.011-0.024l-0.047-0.105l-0.039-0.066l-0.045-0.176L14.28,1.37
			l-0.004-0.051l-0.02-0.113l-0.002-0.104l-0.012-0.068l0.013-0.029l0.001-0.001l0.036-0.101L14.329,0.831"/>
	</g>
</g>
<g id="Layer_1">
</g>
</svg>
