<?xml version="1.0" encoding="iso-8859-1"?>
<!-- Generator: Adobe Illustrator 16.0.4, SVG Export Plug-In . SVG Version: 6.00 Build 0)  -->
<!DOCTYPE svg PUBLIC "-//W3C//DTD SVG 1.1//EN" "http://www.w3.org/Graphics/SVG/1.1/DTD/svg11.dtd">
<svg version="1.1" xmlns="http://www.w3.org/2000/svg" xmlns:xlink="http://www.w3.org/1999/xlink" x="0px" y="0px" width="3.345px"
	 height="3.176px" viewBox="0 0 3.345 3.176" style="enable-background:new 0 0 3.345 3.176;" xml:space="preserve">
<g id="Layer_131">
	<g id="Layer_136">
		<path id="DISTRICT_x3D_Karachi_West_x2C_PROVINCE_x3D_Sindh" style="fill:#CCCCCC;stroke:#FFFFFF;stroke-width:1.07;" d="
			M1.886,2.259L1.886,2.259l0.023-0.003l0.059,0.013l0.076-0.001l0.047-0.005l0.042-0.021l0.065-0.016l0.055-0.02l0.085-0.024
			L2.4,2.162l0.045-0.023l0.039-0.03l0.021-0.027l0.032-0.054l0.021-0.054l0.027-0.052L2.624,1.86l0.046-0.071l0.06-0.074
			l0.035-0.038l0.014-0.021L2.79,1.627L2.802,1.57L2.81,1.512V1.458L2.796,1.389L2.771,1.333L2.746,1.297L2.708,1.259L2.691,1.253
			L2.672,1.255L2.589,1.296L2.527,1.316L2.448,1.33L2.382,1.334L2.314,1.335L2.236,1.332L2.159,1.321L2.083,1.307L1.909,1.275
			l-0.177-0.03L1.6,1.22L1.568,1.216L1.554,1.214L1.491,1.232l-0.043,0.01H1.439L1.433,1.236l-0.015-0.02L1.412,1.205l0.003-0.014
			l0.022-0.014L1.499,1.14L1.52,1.126V1.114L1.507,1.101L1.475,1.074L1.446,1.048L1.429,1.024L1.426,1.004l0.008-0.017l0.029-0.035
			l0.026-0.034l0.003-0.012V0.9L1.486,0.886L1.479,0.871L1.46,0.863L1.425,0.858L1.354,0.848L1.306,0.833L1.272,0.812L1.253,0.789
			L1.226,0.815l-0.427,0.24L0.663,1.199L0.55,1.881l0.033,0.095l0.122-0.039l0.076-0.117l0.058-0.087l0.167-0.085l0.056,0.207
			L0.944,2.214l0.154,0.255l0.173,0.055l0.096-0.212L1.524,2.22l0.257,0.008L1.886,2.259"/>
	</g>
</g>
<g id="Layer_1">
</g>
</svg>
