<?xml version="1.0" encoding="iso-8859-1"?>
<!-- Generator: Adobe Illustrator 16.0.4, SVG Export Plug-In . SVG Version: 6.00 Build 0)  -->
<!DOCTYPE svg PUBLIC "-//W3C//DTD SVG 1.1//EN" "http://www.w3.org/Graphics/SVG/1.1/DTD/svg11.dtd">
<svg version="1.1" xmlns="http://www.w3.org/2000/svg" xmlns:xlink="http://www.w3.org/1999/xlink" x="0px" y="0px" width="30.6px"
	 height="36.494px" viewBox="0 0 30.6 36.494" style="enable-background:new 0 0 30.6 36.494;" xml:space="preserve">
<g id="Layer_81">
	<g id="Layer_86">
		<path id="DISTRICT_x3D_Nasirabad_x2C_PROVINCE_x3D_Balochistan" style="fill:#CCCCCC;stroke:#FFFFFF;stroke-width:1.07;" d="
			M3.072,35.973L3.072,35.973l0.98-0.225l1.158-0.26l1.062-0.273l0.905-0.184l0.821-0.188l1.192-0.311l0.472-0.213l0.47-0.214
			l0.494-0.377l0.308-0.271l0.161-0.275l0.3-0.396l0.257-0.295l0.171-0.121l0.544-0.562l0.668-0.455l0.723-0.602l0.428-0.443
			l0.142-0.361l0.001-0.271l-0.066-0.651l0.093-0.359l0.161-0.291l0.32-0.312l0.53-0.32l1.082-0.545l0.684-0.322l1.201-0.436
			l0.778-0.203l0.59-0.123l0.708-0.029l0.548,0.021l0.453,0.038l0.372,0.027l0.496-0.077l0.731-0.158l0.435-0.019l0.797,0.14
			l0.767,0.183l0.698,0.113l0.477-0.036l0.314-0.127l0.374-0.256l0.229-0.267l0.112-0.629l0.128-0.646l0.012-0.74l0.011-0.412
			l-0.18-1.002l-0.029-0.879l-0.073-1.107l-0.036-0.709l0.021-0.701l-0.032-0.342l0.007-0.369l0.042-0.238l0.142-0.25l0.191-0.189
			l0.29-0.246l0.309-0.207l0.363-0.159l0.414-0.152l0.306-0.096l0.326-0.079l0.366-0.08l0.08-0.002l-0.101-0.307l-0.1-0.233
			l-0.029-0.272l-0.049-0.561l-0.09-0.552l0.034-0.22l0.024-0.449l0.002-0.527l-0.008-0.447l-0.081-0.621l-0.062-0.641l-0.041-0.598
			l-0.058-0.453l-0.169-0.551L28.956,9.29l-0.174-0.688l-0.271-0.837l-0.06-0.227L28.399,6.89l-0.014-0.658l0.001-0.537l0.019-0.615
			l0.066-0.381l0.025-0.396l-0.051-0.297l-0.069-0.333L28.273,3.56l-0.131-0.168l-0.092-0.227l-0.128-0.551l-0.074-0.394
			l-0.19-0.435l-0.209-0.479l-0.139-0.23l-0.165-0.244l-0.094,0.093l-0.53,0.39l-0.658,0.492l-0.545,0.391l-0.651,0.455
			l-0.906,0.399l-0.8,0.296L22.33,3.475l-0.316,0.062l-0.137,0.104L21.8,3.786l-0.092,0.196l-0.169,0.288l-0.212,0.196l-0.229,0.169
			l-0.302,0.182L20.69,4.963l-0.017,0.092l0.104,0.172l0.282,0.188l0.391,0.07l0.345,0.067l0.179,0.055L22.019,5.7l-0.003,0.146
			l-0.108,0.407l-0.133,0.38L21.604,7.12l-0.172,0.524L21.259,8.29l-0.14,0.42l-0.138,0.197L20.74,9.062l-0.512,0.181l-0.497,0.147
			l-0.45,0.133l-0.783,0.312l-0.648,0.324l-0.512,0.246l-0.904,0.479l-0.616,0.323l-0.509,0.209l-0.391,0.089l-0.315,0.17
			l-0.512,0.192l-0.811,0.166l-0.51,0.062l-0.281,0.016l-0.28-0.023l-0.007,0.277l0.126,0.315l0.218,0.397l0.087,0.225l0.017,0.18
			l-0.001,0.436l-0.048,0.188l-0.144,0.168l-0.197,0.168l-0.347,0.197l-0.259,0.146l-0.351,0.135l-0.305,0.104l-0.26,0.162
			L10.576,15.3l-0.167,0.027l-0.105,0.004l-0.142-0.004l-0.145-0.043L9.946,15.23l-0.058-0.122l-0.034-0.146l0.02-0.43l-0.006-0.879
			l0.106-0.914l-0.012-0.574l-0.023-0.178L9.83,11.903l-0.142,0.004l-0.183,0.084l-0.198,0.146l-0.307,0.312l-0.725,0.963
			l-0.441,0.728l-0.292,0.521l-0.141,0.246l-0.267,0.428l-0.21,0.271l-0.397,0.263l-0.38,0.205l-0.213,0.192l-0.161,0.176
			L5.61,16.788l0.003,0.101l0.04,0.115l0.173,0.136l0.351,0.184l0.413,0.183l0.072,0.036l0.047,0.062l0.003,0.095l-0.054,0.094
			l-0.272,0.266l-0.167,0.246L6.13,18.532l-0.15,0.447l-0.117,0.159l-0.219,0.053l-0.249-0.048l-0.36-0.191L4.73,18.831
			l-0.311-0.039l-0.354-0.027l-0.406,0.013L3.166,18.8l-0.387,0.019l-0.437,0.146l-0.417,0.206l0.07,0.296l0.006,0.353l0.127,0.465
			l0.107,0.531l0.169,0.475l0.081,0.275l-0.028,0.238l-0.218,0.574l-0.356,0.635L1.693,23.3l-0.191,0.174l-0.128,0.127l-0.156,0.314
			l-0.179,0.346l-0.188,0.385l-0.175,0.488l-0.083,0.265l-0.058,0.994l0.006,0.313l0.158,0.445l0.175,0.646l0.221,0.949l0.181,0.513
			l0.216,0.646l0.285,0.883l0.204,0.521l0.214,0.567L2.3,32.391l0.25,0.759l0.284,0.939l0.067,0.406L2.917,34.8L3.072,35.973"/>
	</g>
</g>
<g id="Layer_1">
</g>
</svg>
