<?xml version="1.0" encoding="iso-8859-1"?>
<!-- Generator: Adobe Illustrator 16.0.4, SVG Export Plug-In . SVG Version: 6.00 Build 0)  -->
<!DOCTYPE svg PUBLIC "-//W3C//DTD SVG 1.1//EN" "http://www.w3.org/Graphics/SVG/1.1/DTD/svg11.dtd">
<svg version="1.1" xmlns="http://www.w3.org/2000/svg" xmlns:xlink="http://www.w3.org/1999/xlink" x="0px" y="0px"
	 width="20.915px" height="27.137px" viewBox="0 0 20.915 27.137" style="enable-background:new 0 0 20.915 27.137;"
	 xml:space="preserve">
<g id="Layer_57">
	<g id="Layer_62">
		<path id="DISTRICT_x3D_Shangla_x2C_PROVINCE_x3D_NWFP" style="fill:#CCCCCC;stroke:#FFFFFF;stroke-width:1.07;" d="M8.894,26.428
			L8.894,26.428l0.128,0.018l0.228,0.032l0.439,0.062l0.098,0.023l0.029,0.031l0.088,0.007l0.103,0.001l0.176-0.021l0.085-0.027
			l0.093-0.102l0.084-0.037l0.099-0.057l0.041-0.023l0.05-0.129h0.005l0.095-0.037h0.001l0.115-0.021l0.006,0.006l0.079,0.064
			l0.119,0.121l0.062,0.08l0.062,0.013l0.077,0.015l0.077-0.046l0.068-0.052l0.089-0.057l0.077-0.043l0.149-0.068l0.083-0.061
			l0.104-0.072l0.117-0.118l0.112-0.097l0.007-0.002l0.02-0.024l0.083-0.103l0.08-0.09l0.049-0.072l0.039-0.08l0.027-0.051
			l0.014-0.023l0.028-0.09l0.016-0.232V25.05l-0.021-0.136l-0.021-0.086l-0.046-0.067l-0.074-0.078l-0.072-0.092l-0.067-0.093
			l-0.026-0.037l-0.009-0.008l-0.08-0.106l-0.072-0.099l-0.073-0.092l-0.059-0.063l-0.092-0.087l-0.104-0.072l-0.073-0.018
			l-0.108-0.026l-0.094-0.009l-0.096-0.043l-0.077-0.057l-0.196-0.248L11.02,23.51l-0.021-0.041L10.965,23.4l-0.043-0.111
			l-0.033-0.09l-0.02-0.089l0.001-0.083l0.054-0.072l0.152-0.099l0.147-0.104L11.3,22.69l0.112-0.106l0.074-0.092l0.06-0.09
			l0.061-0.096l0.037-0.078l0.056-0.104l0.061-0.116l0.053-0.108l0.05-0.101l0.043-0.114l0.037-0.115l0.003-0.008l0.026-0.113
			l0.026-0.106l0.022-0.101l0.018-0.05l0.039-0.17l-0.045-0.171l-0.11-0.243l-0.084-0.077l-0.001-0.002l-0.093-0.097l-0.057-0.091
			l-0.021-0.121l-0.013-0.122l0.004-0.122l0.018-0.104l0.033-0.157l0.018-0.112l0.021-0.109l0.044-0.131l0.037-0.091l0.043-0.08
			l0.056-0.091l0.006-0.009l0.077-0.125l0.07-0.116l0.062-0.089l0.008-0.013l0.005-0.006l0.064-0.197l0.029-0.206l0.016-0.199
			l0.02-0.103l0.077-0.127l0.092-0.155l0.098-0.155l0.01-0.016l0.003-0.002l0.014-0.021l0.03-0.017l0.089-0.074l0.08-0.105
			l0.174-0.281l0.109-0.172l0.041-0.037l0.031-0.028l0.227-0.048l0.179-0.006l0.112,0.004h0.012h0.095l0.105-0.004l0.132,0.002
			l0.203,0.009l0.201,0.01l0.123,0.021l0.192,0.057l0.146,0.033l0.2,0.035l0.028,0.009l0.02,0.002L15.265,17l0.3,0.062l0.193,0.02
			l0.108,0.004l0.072-0.006l0.18-0.027l0.084-0.055l0.257-0.164l0.131-0.041l0.243-0.068l0.091-0.023l0.094-0.029l0.033-0.018
			l0.068-0.08l0.031-0.037l-0.032-0.174l-0.024-0.412l0.047-0.121l0.014-0.106l0.088-0.172l0.044-0.079l0.066-0.098l0.208-0.084
			l0.062-0.004l0.182,0.025l0.169-0.027l0.18-0.142l0.124,0.001l0.145-0.043l0.094-0.055L18.6,14.98l0.088-0.069l0.075-0.058
			l0.129-0.055l0.059-0.026l0.036-0.006l0.123,0.021l0.104,0.055l0.098,0.039l0.138,0.037l0.087,0.002l0.19-0.024l0.226,0.032
			l0.167-0.202l0.104-0.131l0.041-0.107l0.032-0.093l0.084-0.076l0.001-0.189l-0.018-0.097l-0.104-0.21l0.001-0.086l-0.077-0.155
			l-0.136-0.03l-0.319-0.071l-0.214-0.011l-0.162-0.016l-0.394-0.053l-0.082-0.027l-0.131-0.043l-0.27-0.122l-0.151-0.128
			l-0.031-0.083l-0.11-0.107l-0.121-0.117l-0.08-0.03l-0.147-0.056l-0.091-0.033l0,0L17.6,12.603l-0.031,0.008l-0.012-0.001
			l-0.079-0.008l-0.193-0.005l-0.141-0.094l-0.122,0.042l-0.145-0.042l-0.038,0.043h-0.032l-0.162-0.153l-0.077-0.069l-0.223-0.1
			l-0.122-0.05l-0.1,0.064l-0.203-0.021l-0.097-0.042l-0.104-0.061l-0.085-0.043l-0.104-0.004l-0.028-0.018l-0.145-0.062
			l-0.22-0.089l-0.123-0.004l-0.022-0.005l-0.119-0.026l-0.105-0.015l-0.118-0.038l-0.148-0.091l-0.041-0.103l-0.008-0.063
			l0.012-0.129l0.031-0.095l0.04-0.113l0.045-0.087l0.062-0.081l0.068-0.08l0.092-0.098l0.105-0.09l0.074-0.052l0.036-0.091
			l0.031-0.079l0.003-0.006l0.023-0.133l0.041-0.115l0.054-0.079l0.001-0.013l0.013-0.124L15.18,9.931l0.002-0.085L15.18,9.749
			l0.004-0.056l0.004-0.035l0.002-0.104l0.008-0.032l0.052-0.125l0.078-0.074l0.159-0.094l0.086-0.047l0.098-0.05l0.104-0.05
			l0.08-0.043l0.065-0.053l0.031-0.064l0.028-0.057l0.007-0.097V8.766l0.032-0.081l0.01-0.025l0.105-0.115l0.066-0.09L16.2,8.453
			l-0.001-0.001l-0.058-0.089l-0.077,0.002l-0.044,0.008l-0.019-0.001L15.93,8.369l-0.135-0.014l-0.207-0.056l-0.164-0.113
			l-0.013-0.009l-0.104-0.129l-0.134-0.086l-0.118-0.023l-0.007-0.001L14.917,7.93l-0.146,0.027l-0.074,0.014l-0.271,0.042
			l-0.016,0.002l-0.078,0.004l-0.065,0.003l-0.273,0.05l-0.307,0.057l-0.267,0.048l-0.12-0.002l-0.021-0.004L13.006,8.09
			l-0.111-0.042l-0.072-0.042l-0.104-0.092L12.63,7.835l-0.092-0.089l-0.064-0.078l-0.074-0.088l-0.133-0.159l-0.013-0.079
			l-0.021-0.104l0.007-0.03l-0.003-0.007l0.015-0.095l0,0l-0.01-0.099l0.009-0.08l0.032-0.111l0.041-0.14l0.007-0.092l-0.01-0.037
			l-0.011-0.108l-0.004-0.015l-0.005-0.124l-0.004-0.175l-0.064-0.173l-0.057-0.175l-0.088-0.154l-0.06-0.077L11.92,5.397
			l-0.057-0.107l-0.08-0.104l-0.034-0.018l-0.072-0.036l-0.165-0.09l-0.1-0.113l-0.04-0.06l-0.004-0.006l0.011-0.085l0.017-0.108
			l0.021-0.082l0.046-0.169l-0.016-0.125l-0.025-0.083l-0.022-0.096l-0.062-0.118l-0.143-0.103l0.048-0.076l0.012-0.002l0.069-0.043
			l0.013-0.016l0.065-0.088l-0.038-0.138l-0.016-0.056l-0.062-0.154l-0.033-0.09l-0.023-0.098V3.127l0.019-0.074l0.032-0.067
			l0.021-0.04l0.133-0.101l0.122-0.136l0.07-0.084l-0.113-0.059l-0.11-0.133L11.334,2.36l-0.072-0.045l-0.027-0.03l-0.098-0.109
			l-0.004-0.008l0.008-0.058L11.14,2.076l-0.003-0.13l-0.043-0.113l-0.158-0.112l-0.117-0.077L10.76,1.612l-0.113,0.022
			l-0.108,0.049l-0.099,0.029L10.365,1.69l-0.207-0.06l-0.018-0.003l-0.074-0.047l-0.03-0.038L9.988,1.412l0.004-0.14L9.986,1.258
			L9.943,1.159l-0.1-0.148l0.003-0.018L9.861,0.91L9.819,0.807L9.723,0.772L9.586,0.744L9.448,0.708l-0.15-0.071L9.19,0.617
			L9.097,0.654L8.978,0.628l-0.12-0.052L8.729,0.555L8.605,0.614L8.512,0.68L8.428,0.745L8.375,0.817L8.27,0.943l-0.08,0.075
			L8.12,1.077L8.05,1.13L7.918,1.172L7.706,1.199L7.634,1.253L7.63,1.341l0.006,0.123L7.56,1.58l0.047,0.168l0.056,0.141
			L7.654,2.006l-0.01,0.085L7.643,2.207L7.634,2.318L7.567,2.429L7.505,2.517L7.471,2.602L7.434,2.705L7.395,2.792L7.327,2.852
			L7.189,2.843L7.011,2.85L6.93,2.89L6.86,2.954L6.798,3.013L6.721,3.07l-0.04,0.076L6.626,3.303L6.595,3.49L6.57,3.572L6.54,3.674
			L6.51,3.78L6.456,3.917L6.402,3.997L6.149,4.145l-0.098,0.03l-0.12,0.07L5.779,4.323L5.679,4.35L5.544,4.345L5.46,4.332
			L5.301,4.258L5.179,4.294L5.06,4.392l-0.07,0.06L4.921,4.504L4.846,4.559L4.77,4.591L4.624,4.615L4.512,4.669l-0.07,0.243
			L4.386,5.034L4.316,5.161L4.28,5.284l0.012,0.141l-0.143,0.07L4.071,5.539L3.958,5.65L3.861,5.785l-0.06,0.094L3.748,5.966
			L3.7,6.055L3.627,6.199L3.606,6.357L3.59,6.592L3.507,6.551L3.371,6.549L3.234,6.562L3.146,6.539L2.96,6.518L2.844,6.557
			L2.762,6.628L2.656,6.704l-0.09,0.055l0.048,0.099L2.67,7.003l0.014,0.102l0.019,0.098L2.69,7.317l-0.05,0.105L2.593,7.5
			L2.548,7.639l0.045,0.103L2.65,7.825l0.062,0.113l0.055,0.101l0.08,0.085L2.93,8.21l0.111,0.102l0.104,0.11l0.087,0.085
			l0.102,0.107l0.092,0.093l0.08,0.122L3.452,8.896L3.32,9.04L3.292,9.141L3.291,9.315l0.017,0.123L3.307,9.562L3.224,9.684
			l-0.06,0.069l-0.083,0.1L3.058,9.994l-0.004,0.089L3.04,10.208l-0.017,0.149L3,10.461l-0.011,0.142l-0.01,0.12l0.005,0.136
			l0.029,0.12l0.077,0.152l0.051,0.12l0.061,0.118L3.23,11.5l-0.017,0.11L3.21,11.805L3.196,11.89l-0.008,0.084l-0.008,0.084
			L3.18,12.17l0.014,0.151l0.034,0.097l0.008,0.101l-0.095,0.122l-0.077,0.066l-0.062,0.097l-0.028,0.113l-0.049,0.205l-0.07,0.101
			l-0.053,0.097l-0.045,0.103L2.711,13.53l0.008,0.17l0.04,0.09l0.104,0.167l0.028,0.154l-0.064,0.096l-0.037,0.074l-0.016,0.087
			l0.033,0.087l0.055,0.095l0.059,0.11l0.007,0.108l-0.055,0.126l-0.057,0.111l-0.045,0.104l0.015,0.105L2.784,15.34l-0.052,0.119
			l-0.046,0.104L2.633,15.69l-0.07,0.144l-0.039,0.109L2.48,16.067l-0.031,0.097l-0.032,0.097l-0.021,0.081l-0.003,0.093l0.014,0.14
			l-0.056,0.146l-0.036,0.123l0.039,0.122l0.058,0.124l0.077,0.136l0.021,0.028L2.56,17.32l-0.003,0.129L2.531,17.58l-0.198,0.056
			l-0.12,0.035l-0.128,0.056l-0.097,0.035l-0.138,0.064l-0.104,0.135L1.73,18.062l0.003,0.182L1.677,18.38l-0.049,0.069L1.54,18.537
			l-0.063,0.076l-0.104,0.115l-0.097,0.042l-0.069,0.045l-0.049,0.073l-0.055,0.068l-0.097,0.072l-0.063,0.075l-0.104,0.121
			l-0.09,0.084l-0.078,0.09l-0.025,0.046l-0.04,0.069l-0.036,0.101l-0.001,0.002l-0.013,0.028l0.012,0.068l0.002,0.104l0.021,0.113
			l0.004,0.051l-0.008,0.122l0.045,0.176l0.039,0.066l0.047,0.105l0.01,0.023l0.033,0.08l0.067,0.141l0.054,0.106l0.004,0.01
			l0.052,0.097l0.074,0.047l0.077,0.039l0.033,0.004l0.053,0.019l0.139-0.026l0.168-0.015l0.116,0.028l0,0l0.064,0.033l0.021,0.013
			l0.11,0.126l0.056,0.084l0.056,0.074l0.03,0.031l0,0l0.028,0.029l0.072,0.057l0.064,0.058l0.037,0.083l0.033,0.081l0.021,0.084
			l0.021,0.075l0.026,0.17l0.027,0.099l0.021,0.06l0,0l0.008,0.039l0.001,0.004l0.091,0.138l0.115,0.075l0.087,0.011L2.7,22.412
			l0.112-0.049l0.093-0.052l0.02-0.009L3.06,22.25l0.246-0.045l0.166-0.041l0.135-0.066l0.189-0.122l0.149-0.052l0.132-0.012
			l0.188,0.017l0.211,0.001l0.099,0.014l0.285-0.002l0.098-0.008l0.031,0.001l0.169-0.015l0.05-0.004l0.152,0.003l0.016-0.009
			l-0.003-0.006h0.016h0.008l0.124-0.066L5.6,21.764l0.078-0.125l-0.145-0.082L5.447,21.46l-0.001-0.07l0.001-0.011l0.028-0.069
			l0.043-0.039l0.035-0.024l0.014-0.021l0,0l0.023-0.021l0.005-0.018l0.039-0.056l0.016-0.155l0.136-0.07l0.157-0.01l0.104-0.016
			l0.112-0.04l0.082-0.019l0.172-0.039l0.084-0.027l0.09-0.039l0.072-0.044l0.075-0.05l0.034-0.018l0.176-0.088l0.113-0.007
			l0.067,0.042l0.057,0.053h0.02l0.055,0.021l0.135,0.004l0.193-0.04l0.129-0.017l0.021-0.002l0.095,0.039l0.006,0.019l0.029,0.104
			l0.036,0.14h0.001l0.012,0.043l0.106-0.01l0.056-0.006l0.124-0.07l0,0l0.112-0.029l0.168,0.061l0.045,0.067l0.023,0.041v0.001
			l0.024,0.052l-0.117,0.083l-0.04,0.016l0,0l-0.041,0.017l-0.041,0.075l0.111,0.104l-0.062,0.034H8.245l-0.012-0.002l-0.09-0.003
			l-0.018,0.158l-0.05,0.099l-0.121,0.135l-0.104,0.103l-0.117,0.148l-0.05,0.086l-0.048,0.102L7.579,22.35l0.015,0.087l0.017,0.162
			l-0.003,0.106l-0.012,0.129l-0.023,0.092l0.029,0.16l0.089,0.121l0.11,0.117l0.062,0.041l0.036,0.032l0.014,0.021l0.018,0.051
			l0.001,0.066l0.019,0.16l0.015,0.1l0.032,0.072l0.007,0.014l0.026,0.074l0.039,0.055l0.03,0.043l0.071,0.062l0.018,0.012
			l0.05,0.062l0.084,0.07L8.4,24.324l0.079,0.086l0.095,0.139l0.036,0.082l0.021,0.076l0.002,0.006l0.011,0.045l0.015,0.039
			l0.024,0.064l0.072,0.168l0.055,0.139l0.052,0.105l0.036,0.104l0.045,0.125l0.033,0.117l0.033,0.129l0.022,0.096l0.023,0.146l0,0
			l-0.051,0.188l-0.086,0.185L8.894,26.428"/>
	</g>
</g>
<g id="Layer_1">
</g>
</svg>
