<?xml version="1.0" encoding="iso-8859-1"?>
<!-- Generator: Adobe Illustrator 16.0.4, SVG Export Plug-In . SVG Version: 6.00 Build 0)  -->
<!DOCTYPE svg PUBLIC "-//W3C//DTD SVG 1.1//EN" "http://www.w3.org/Graphics/SVG/1.1/DTD/svg11.dtd">
<svg version="1.1" xmlns="http://www.w3.org/2000/svg" xmlns:xlink="http://www.w3.org/1999/xlink" x="0px" y="0px" width="94.89px"
	 height="69.641px" viewBox="0 0 94.89 69.641" style="enable-background:new 0 0 94.89 69.641;" xml:space="preserve">
<g id="Layer_3">
	<g id="Layer_8">
		<path id="DISTRICT_x3D_Zhob_x2C_PROVINCE_x3D_Balochistan" style="fill:#CCCCCC;stroke:#FFFFFF;stroke-width:1.07;" d="
			M55.77,59.098L55.77,59.098l0.73,0.115l1.141,0.116l0.717,0.125l0.197,0.108l0.104,0.222l0.049,0.56l0.354,1.028l0.174,0.388
			l0.26,0.022l0.844,0.011l1.201,0.088l1.072,0.09l0.844,0.039l0.59,0.239l0.301,0.274l0.662,0.962l0.764,0.687l1.125,0.873
			l1.377,0.646l0.754,0.35l0.561,0.438l0.824,0.545l0.656,0.38l0.691,0.491l0.398,0.44l0.562,0.547l0.494,0.301l-0.436-0.573
			l-0.143-0.323l0.029-0.377l0.145-0.184l0.225-0.232l0.057-0.127l-0.006-0.152l-0.121-0.174l-0.119-0.072l-0.293-0.043
			l-0.205,0.004l-0.236-0.045l-0.061-0.101l0.084-0.128l0.021-0.178l-0.033-0.101l-0.15-0.173l-0.121-0.148l-0.031-0.101
			l0.023-0.151l0.023-0.178l-0.035-0.176l-0.18-0.122l-0.119-0.048l-0.176,0.004l-0.201,0.057l-0.344,0.235l-0.26,0.132
			l-0.176,0.004l-0.18-0.121l-0.18-0.174l-0.236-0.045l-0.205,0.005l-0.205-0.021l-0.092-0.149l-0.162-0.478l-0.068-0.353
			l-0.018-0.479l0.156-0.635l0.248-0.412l0.139-0.256l0.285-0.233l0.459-0.289l0.518-0.341l0.312-0.26l0.316-0.386L71.77,60.6
			l0.166-0.334L71.93,60.09l-0.156-0.324l-0.035-0.177l0.109-0.204L71.9,59.18l0.023-0.177l-0.066-0.276l0.082-0.153l-0.006-0.202
			l-0.037-0.277l-0.121-0.072l-0.004-0.152l0.023-0.178l0.227-0.258l0.109-0.229l-0.008-0.228L72,56.777l-0.004-0.103l0.229-0.233
			L72.736,56l0.289-0.158l0.32-0.083l0.199-0.182l0.275-0.538l0.312-0.311l0.484-0.416l0.656-0.571l0.6-0.57l0.424-0.541
			l0.582-1.299l0.275-0.588l0.311-0.411l0.395-0.54l0.078-0.306l-0.01-0.328l0.309-0.463l0.422-0.666l0.398-0.413l0.457-0.415
			l0.227-0.309l0.021-0.305l0.018-0.379l0.154-0.736l0.166-0.359l0.197-0.256l-0.004-0.178l-0.33-0.17l-0.441-0.289l-0.332-0.271
			l-0.066-0.302l-0.01-0.254l0.168-0.332l0.396-0.539l0.314-0.285l-0.006-0.152l-0.031-0.075l-0.295-0.044l-0.5,0.037l-0.209-0.122
			l-0.062-0.149l0.107-0.28l0.189-0.611l-0.084-0.858l-0.166-0.603l-0.107-0.655l0.158-0.56l0.539-0.72l0.137-0.307l-0.004-0.177
			l-0.33-0.194l-0.426-0.264l-0.123-0.2l-0.033-0.125L78.828,36l0.174-0.13l0.461-0.364l0.287-0.284l0.051-0.279l0.01-0.658
			l-0.01-0.278l0.17-0.256l0.463-0.263l0.201-0.231l0.227-0.185l0.01-0.01l0.139-0.027l0.094,0.039l0.094,0.145l0.064,0.436
			l0.203,0.264l0.201,0.117l0.201,0.039l0.293-0.001l0.584-0.177l0.23-0.173l0.213-0.239l0.123-0.146l0.168-0.12l0.201-0.094
			l0.322-0.068l0.385-0.108l0.23-0.094l0.139-0.067h0.123l0.188,0.117l0.326,0.263l0.51,0.222l0.357,0.183l0.51,0.155l0.557,0.249
			l0.311,0.184l0.387,0.143l0.217,0.078l0.293,0.051h0.078l0.232,0.065l0.186,0.157l0.154,0.026l0.092-0.053l0.121-0.265
			l0.291-0.398l0.26-0.24l0.354-0.345l0.506-0.42l0.152-0.12h0.186l0.186,0.052l0.355,0.091l0.355,0.011l0.445-0.028l0.416-0.121
			l0.275-0.2l0.229-0.345l0.062-0.278l-0.066-0.661l-0.004-0.608l0.045-0.305l0.105-0.239l0.047-0.08l0.107-0.04l0.123-0.001
			L93.82,30.08l-0.166-0.242l-0.109-0.477l-0.145-0.7l-0.111-0.463l-0.018-0.304l-0.236-0.542l-0.25-0.687l-0.08-0.344l-0.297-0.488
			l-0.096-0.396l-0.109-0.277l-0.125-0.145l-0.217-0.052l-0.771-0.049l-0.543,0.003l-0.293-0.025l-0.248-0.078l-0.156-0.159
			l-0.248-0.236l-0.344-0.25l-0.188-0.303l-0.125-0.264l-0.002-0.225l0.027-0.265l0.139-0.372l0.037-0.859l0.039-0.913l-0.008-1.138
			l0.057-0.623l0.117-0.94l0.023-0.953l0.023-0.795l0.029-0.411l-0.02-0.356l-0.049-0.265l-0.016-0.186l-0.096-0.211l-0.018-0.211
			l-0.002-0.305l0.074-0.305l0.141-0.08l0.168-0.147l0.076-0.238v-0.119l-0.031-0.079l-0.125-0.105L89.33,13.37l-0.096-0.118
			l-0.062-0.172l-0.098-0.423l-0.131-0.978l-0.035-0.45l0.016-0.263l0.027-0.159l0.078-0.106l0.123-0.12l0.186-0.16l0.186-0.12
			l0.092-0.133l0.047-0.08v-0.08l-0.049-0.171l-0.062-0.132V9.599L89.549,9.44l0.105-0.411l0.121-0.345l0.076-0.437l0.074-0.226
			V7.81l-0.002-0.252l-0.002-0.057V7.346L89.766,7.32l-0.232,0.001l-0.342,0.055l-0.279,0.08L88.773,7.55l-0.154,0.107l-0.244,0.345
			l-0.186,0.266l-0.217,0.239L87.805,8.72l-0.201,0.239l-0.215,0.279l-0.139,0.12l-0.232,0.067l-0.232,0.067l-0.217,0.042
			l-0.232-0.052l-0.25-0.144L85.93,9.22l-0.191-0.017l-0.279,0.002L85.412,9.14l-0.064-0.331l-0.002-0.252l-0.021-0.569l0.029-0.146
			l0.17-0.226l0.215-0.252l0.246-0.24l0.186-0.345l0.105-0.239l0.061-0.251l0.076-0.187l0.107-0.12l0.061-0.199l-0.002-0.159
			L86.484,5.48l-0.219-0.078l-0.467-0.183l-0.312-0.091l-0.469-0.183l-0.779-0.379l-0.268-0.223l-0.297-0.184l-0.285-0.207
			l-0.236-0.171l-0.016-0.066V3.662l0.123-0.067l0.172-0.067l0.293-0.214l0.139-0.12l0.029-0.146l0.047-0.08l0.154-0.146
			l0.184-0.332l0.307-0.664l0.244-0.518l0.186-0.212l0.309-0.267l0.062-0.186l-0.002-0.066l-0.062-0.04l-0.109,0.001l-0.248,0.041
			l-0.42,0.042l-0.266,0.094l-0.201,0.054l-0.17,0.014l-0.141,0.014l-0.234-0.012l-0.078-0.039h-0.078L83.314,0.76l-0.217,0.094
			l-0.094,0.054l-0.109,0.027l-0.186,0.041L82.631,1.03l-0.123,0.093L82.414,1.15l-0.107,0.001H82.26l-0.062-0.066l-0.062-0.079
			l-0.109-0.052L81.84,0.995l-0.156,0.134l-0.324,0.108l-0.258,0.058L81.1,1.296l-0.004,0.001l-0.02,0.007L81.004,1.33l-0.158,0.047
			l-0.107,0.032L80.633,1.44l-0.086,0.025l-0.225,0.022l-0.271,0.022l-0.225,0.019L79.678,1.53l-0.164-0.005L79.43,1.517
			l-0.053,0.01h-0.055l-0.559,0.07l-0.258,0.031l-0.221,0.026l-0.031,0.004l-0.029,0.006l-0.088,0.019l-0.008,0.002l-0.107,0.093
			l-0.164,0.158l-0.102,0.099l-0.135,0.13l-0.215,0.26l-0.023,0.019l-0.061,0.06l-0.08,0.074l-0.096,0.04l-0.004,0.001l-0.006,0.002
			l-0.143,0.058L76.85,2.735l-0.121,0.121l-0.004,0.006L76.68,2.927l-0.045,0.212l0.002,0.093v0.132l-0.045,0.08L76.498,3.55
			l-0.184,0.24l-0.107,0.146l-0.016,0.027l-0.012,0.02l-0.033,0.06l-0.045,0.132l-0.004,0.023l-0.01,0.105l-0.006,0.051l-0.061,0.09
			l-0.111,0.07L75.902,4.52l-0.012,0.005l-0.084,0.054l-0.102,0.056l-0.086,0.021l-0.096,0.023l-0.201,0.045l-0.064,0.035
			l-0.08,0.044l-0.135,0.102l-0.191,0.203l-0.146,0.191l-0.057,0.027l-0.057,0.027L74.52,5.424l-0.078,0.078l-0.051,0.033
			l-0.059,0.037l-0.084,0.059l-0.027,0.018l-0.305,0.157l-0.23,0.081l-0.092,0.04l-0.223,0.136l-0.182,0.126l-0.055,0.039
			l-0.014,0.01l-0.074,0.055l-0.16,0.119L72.85,6.437L72.846,6.44l-0.061,0.04l-0.082,0.061L72.697,6.54h-0.002l-0.006-0.002
			l-0.238-0.042l-0.061-0.023h-0.004l-0.033-0.014l-0.189-0.071l-0.09-0.108L71.92,6.092l-0.135-0.163L71.73,5.85l-0.072-0.084
			l-0.07-0.035l-0.117-0.009L71.4,5.74l-0.072,0.021L71.17,5.827l-0.025,0.011h-0.004l-0.002,0.001l-0.033,0.009l-0.055,0.025
			l-0.303,0.072l-0.693,0.153L69.73,6.152l-0.232,0.009l-0.07-0.007l-0.23-0.021l-0.203-0.008l-0.367-0.018H68.51l-0.117,0.036
			l-0.189,0.054l-0.207,0.054l-0.109,0.004L67.764,6.26l-0.189,0.007l-0.045,0.002h-0.293l-0.33-0.029l-0.201-0.016L66.67,6.222
			l-0.148,0.024l-0.074,0.013l-0.092,0.018h-0.018h-0.023h-0.027H66.27h-0.111l-0.107-0.018l-0.152-0.045L65.67,6.14l-0.191-0.042
			h-0.002l-0.119,0.016l-0.102,0.025l-0.01,0.003l-0.033,0.013l-0.047,0.038l-0.123,0.094l-0.01,0.007l-0.09,0.072l-0.18,0.108
			L64.537,6.6l-0.105,0.054l-0.109,0.054l-0.055,0.018l-0.17-0.009l-0.021-0.016l-0.115-0.059l-0.047-0.023l-0.113-0.055
			L63.76,6.525l-0.047-0.042l-0.018-0.017l-0.002-0.002l-0.01-0.022l-0.035-0.077l-0.018,0.024l-0.002,0.002l-0.104,0.108
			l-0.18,0.146l-0.107,0.072l-0.004-0.008l0.107,0.321l-0.01,0.143l-0.201,0.454l-0.033,0.072l-0.076,0.052l-0.123,0.083
			l-0.18,0.075L62.336,8.07l-0.898,0.316l-0.121,0.112l-0.119,0.11l-0.191,0.459l-0.193,0.354l-1.307,0.998l-0.354,0.146l-0.5,0.208
			l-0.195,0.041l-0.104,0.021l-0.084,0.061l-0.158,0.114l-0.219,0.764l-0.039,0.04l-0.234,0.24l-0.133,0.379l-0.066,0.194
			l-0.119,0.182l-0.141,0.212l-0.734,0.639l-0.031,0.028l-0.303,1.042l-0.428,0.34l-0.143,0.115l-0.123,0.486l-0.203,0.488
			l-0.307,0.176l0.037,0.38l0.004,0.047l-0.1,0.216l-0.029,0.062l-0.164,0.058l-0.178,0.062l-0.416,0.214l-0.135,0.07v0.013v0.025
			l-0.197,0.148l-0.438,0.327l-0.346,0.329l-0.266,0.251l-0.801,0.301l-0.018,0.006l-0.637,0.399l-0.199,0.222l-0.104,0.115
			l-0.086,0.415l-0.045,0.226l-0.422,0.082l-0.189-0.067l-0.225-0.079l-0.25,0.042l-0.061,0.01l-0.312-0.042l-0.246-0.261
			l-0.072-0.076l-0.188,0.012l-0.201,0.013l-0.305-0.205l-0.199-0.085l-0.317-0.135l-0.196,0.146l-0.446,0.901l-0.217,0.298
			l-0.48,0.36l-0.202,0.042l-0.473,0.102l-0.928-0.015l-0.264-0.004l-0.552,0.142l-0.433,0.036l-0.27-0.071l-0.42-0.273
			l-0.009-0.006l-0.399,0.036l-0.021-0.01l-0.384-0.183l-0.302-0.014l-0.106-0.128l-0.104-0.123l-0.098-0.115l-0.615-0.684
			l-0.197-0.825l-0.185-0.244l-0.896-0.356l-0.244-0.267l-0.134-0.146l-0.668-0.444l-0.404-0.269l-0.021-0.038l-0.105-0.188
			l0.075-0.581l-0.157-0.846l-0.111-0.605l-0.309-0.784l-0.157-0.063l-0.106-0.016l-0.553-0.078l-0.084,0.006l-0.082,0.006
			l-1.1-0.065l-0.506-0.031l-0.283-0.101l-0.021-0.007l-2.082-1.77l-0.014-0.011l-0.235-0.184l-0.249-0.1l-0.638,0.316l-0.088,0.05
			l-0.592,0.334l-0.406,0.228l-0.33,0.185l-1.781,0.852l-0.494,0.276l-0.223,0.053l-0.386,0.092l-0.595,0.221L26.5,14.47
			l-0.153,0.08l0.602,0.223l0.352,0.2l0.066,0.039l0.25,0.167l0.176-0.024l0.469-0.064l0.444-0.083l0.353-0.065l0.599-0.011
			l1.07-0.02l1.06,0.085l0.502,0.038l0.246,0.053l-0.307,0.643l-0.463,0.627l-0.327,0.225l-0.769,0.014l-1.111-0.826l-0.211-0.098
			l-0.184-0.084l-0.374-0.075l-0.062-0.012l-0.467,0.047l-0.579-0.036l-0.357-0.022l-0.062-0.029l-0.073-0.035l-0.334-0.013
			l-0.384-0.192l-0.543-0.341l-0.046-0.071l-0.008-0.013l-0.093,0.048l-0.414-0.039l-1.559-0.055l-2.125,0.042l-1.425,0.02
			l-0.35-0.117l-0.17-0.15l-0.846-0.751l-0.116-0.16l0.348-0.673l-0.751-0.203l-2.586-0.327l-0.062-0.008l-0.231-0.299l-0.03-0.256
			l-0.097-0.265l-0.163,0.146l-0.451,0.552l-0.125,0.208l-0.277,0.466l-0.152,0.118l-0.012,0.009l-0.27,0.446L13.2,14.741
			l-0.643,0.461l-0.035,0.038l-0.396,0.428l-0.194,0.223l-0.085,0.097l-0.591,0.465l-0.105,0.083l0.007,0.218l-0.142,0.45
			l-0.195,0.19l-0.064,0.063l-0.457,0.305l-0.467,0.205l-0.17,0.075L9.29,18.269l-0.718,0.512l-0.729,0.52l-0.638,0.332
			l-0.106,0.056l-0.598,0.185l-0.229,0.072l-1.055,0.042l-0.319,0.093l-0.244,0.082l-0.273,0.091l-0.411,0.01L3.643,20.11
			l-0.534-0.006l-0.083,0.013l-0.127,0.02l-0.827,0.398l-0.234,0.112l-1.07,0.795l0.222,0.272l0.551,0.425l1,0.607l1.35,0.628
			l2.022,0.916l1.504,0.463l1.798,0.894l1.568,1.165l1.098,0.879l1.489,1.362l1.194,1.014l1.066,0.989l0.996,0.664l0.964,0.638
			l0.642,0.316l1.18,0.39l2.677,0.831l1.71,0.476l0.351,0.104l0.475-0.033l0.505-0.116l0.882-0.365l0.974-0.42l1.381-0.778
			l0.881-0.365l0.633-0.089l0.567-0.143l0.599-0.17l0.818-0.363l0.568-0.197l0.253-0.003l0.413,0.05l0.351,0.158l1.022,0.478
			l0.796,0.29l0.35,0.05l0.099,0.189l0.104,0.569l-0.133,1.631l-0.117,0.654l-0.058,0.354l0.002,0.136l0.064,0.135l0.223,0.052
			l0.285,0.052l0.116,0.15l0.296,0.729l0.197,0.434l-0.028,0.245l-0.437,0.411l-0.219,0.193l-0.028,0.219l0.298,0.865l0.161,0.188
			l0.351,0.187l0.227,0.242l0.005,0.326l-0.087,0.544l0.136,0.596l0.162,0.271l0.385,0.376l0.349,0.051l0.883-0.2l0.785-0.334
			l0.596-0.359l0.529-0.576l0.467-0.521l0.186-0.301l0.126-0.056l0.158,0.025l0.286,0.133l0.223,0.106l0.189-0.002l0.188-0.058
			l0.441-0.112l0.158-0.001l0.254,0.078l0.191,0.188l0.352,0.241l0.35,0.078l0.252-0.002l0.853-0.198l0.567-0.06l0.191,0.053
			l0.158,0.08l0.098,0.189l0.1,0.405l0.067,0.326l0.13,0.243l0.222,0.053l0.41-0.059l0.786-0.307l0.441-0.221l0.562-0.385
			l0.25-0.221l0.096-0.027l0.098,0.135v0.001l0.002,0.243l0.004,0.271l0.033,0.08l0.127,0.053h0.188l0.408-0.222l0.66-0.386
			l0.316-0.057l0.221-0.002l0.348,0.023l0.539,0.159l0.316,0.051l0.189-0.028l0.213-0.215l0.283-0.22l0.221-0.11l0.252-0.056
			l0.285,0.052l0.316,0.079l0.35,0.216l0.352,0.269l0.639,0.538l0.479,0.486l1.111,0.479l0.316,0.08l0.285-0.029l0.283-0.002
			l0.254,0.079l0.223,0.162l0.297,0.501l0.258,0.487l0.35,0.351l0.445,0.295l0.447,0.485l0.254,0.298l0.443,0.188l0.602,0.131
			l0.6-0.058l0.379-0.11l0.471-0.274L63.84,44.5l0.504-0.383l0.312-0.301l0.252-0.137l0.158-0.001l0.189,0.053l0.223,0.107
			l0.285,0.188l0.002,0.189l-0.062,0.244l-0.906,1.256l-0.344,0.518l-0.346,0.165l-0.566,0.112l-0.852,0.222l-0.156,0.11
			l-0.154,0.326l-0.186,0.518l-0.279,0.572l-0.312,0.273l0.002,0.19l0.127,0.217l0.129,0.298l-0.027,0.463l-0.434,0.871l-0.215,0.6
			l-0.293,0.542l-0.219,0.3l-0.092,0.408l-0.027,0.326l-0.188,0.19l-0.314,0.111l-0.723,0.356l-0.941,0.36l-1.162,0.226
			l-0.977,0.226l-0.688,0.331l-0.783,0.468L54.309,55.4l-0.188,0.165l-0.188,0.083l-0.379,0.059l-0.689,0.304l-0.594,0.358
			l-0.123,0.217v0.108l0.191,0.162l0.381,0.214l0.096,0.189l0.002,0.217l0.289,0.459l0.16,0.379l0.004,0.271l-0.061,0.354
			l0.064,0.136l0.158,0.08l0.221-0.002l0.312-0.139l0.533-0.193l0.627-0.25l0.156-0.056l0.158,0.053l0.16,0.271L55.77,59.098"/>
	</g>
</g>
<g id="Layer_1">
</g>
</svg>
