<?xml version="1.0" encoding="iso-8859-1"?>
<!-- Generator: Adobe Illustrator 16.0.4, SVG Export Plug-In . SVG Version: 6.00 Build 0)  -->
<!DOCTYPE svg PUBLIC "-//W3C//DTD SVG 1.1//EN" "http://www.w3.org/Graphics/SVG/1.1/DTD/svg11.dtd">
<svg version="1.1" xmlns="http://www.w3.org/2000/svg" xmlns:xlink="http://www.w3.org/1999/xlink" x="0px" y="0px"
	 width="26.297px" height="19.335px" viewBox="0 0 26.297 19.335" style="enable-background:new 0 0 26.297 19.335;"
	 xml:space="preserve">
<g id="Layer_7">
	<g id="Layer_12">
		
			<path id="DISTRICT_x3D_Tribal_Area_adj_Tank_x2C_PROVINCE_x3D_F.A.T.A." style="fill:#CCCCCC;stroke:#FFFFFF;stroke-width:1.07;" d="
			M19.211,0.46L19.211,0.46l-0.105,0.063l-2.719,0.634L15.48,1.429l-1.994,0.332l-1.51,0.212l-0.876,0.423L9.983,2.879L8.804,3.362
			L7.235,3.997L5.844,4.601L5.421,4.781L4.877,5.506L4.576,5.959L2.43,7.379L1.948,7.772L1.796,8.255L1.222,9.374l-0.271,0.665
			l-0.181,1.54L0.62,12.727l-0.076,0.664l0.363,1.299l0.211,0.695l0.665,1.238l0.604,1.057l1.148,0.876l0.589,0.147l0.009-0.022
			l0.85-0.323l0.862-0.328l0.655-0.25l0.247-0.094l0.092-0.049l0.148-0.149l0.201-0.293l0.092-0.133l0.062-0.054l0.163-0.028
			l0.079-0.052l0.159-0.237l0.311-0.458l0.676-0.998l0.233-0.347l0.07-0.104l0.212-0.337l0.02-0.026l0.056-0.035l0.033-0.012
			L9.5,14.474l0.031,0.038l0.077,0.07l0.062,0.025l0.073,0.034l0.056,0.022l0.044,0.021l0.108,0.029l0.086-0.019l0.091-0.021
			l0.282-0.088l0.07-0.023l0.091-0.027h0.121l0.144,0.06l0.112,0.001l0.093,0.008l0.096,0.008l0.134-0.009l0.103,0.024l0.379,0.039
			l0.18,0.02l0.037,0.014l0.108,0.039l0.102,0.047l0.064,0.02l0.158,0.05l0.119,0.032l0.112,0.033l0.074,0.011l0.125-0.031
			l0.091,0.017l0.197,0.039l0.179-0.213l0.147-0.178l0.114-0.137l0.104-0.069l0.012-0.049l0.022-0.09v-0.089l0.111-0.234l0.04-0.166
			l0.028-0.113l0.074-0.166l0.151-0.168l0.148-0.168l0.115-0.107l0.012-0.055l0.039-0.18l0.008-0.076l0.072-0.052l0.162-0.089
			l0.215-0.117l0.197-0.146l0.197-0.104l0.1-0.052l0.27-0.191l0.564-0.349l0.326-0.202l0.051-0.085l0.088-0.131l0.111-0.093
			l0.174-0.049l0.201-0.236l0.412-0.486l-0.008-0.097l0.193-0.167l0.025-0.074l0.275-0.419l0.07-0.115l0.137-0.22l0.08-0.176
			l0.035-0.053l0.045-0.102l0.053-0.123l0.055-0.082l0.084-0.107l0.025-0.127l0.033-0.268l0.002-0.059l0.033-0.158l0.037-0.145
			l0.057-0.153l0.07-0.137l0.211-0.256l0.115-0.142l0.133-0.125l0.154-0.124l0.107-0.053l0.109-0.062l0.066-0.06l0.096-0.083
			l0.123-0.096l0.219-0.164l0.168-0.133l0.09-0.072l0.191-0.068l0.178,0.136l0.176,0.123l0.137,0.204l0.15,0.123l0.043,0.021
			l0.186,0.095l0.195,0.089l0.082,0.037l0.078,0.061l0.26,0.204l0.32,0.25l0.176,0.048l0.188,0.076l0.148,0.066l0.117,0.045
			l0.082,0.033l0.088,0.044l0.061,0.035l0.107,0.083l0.178,0.134l0.086,0.075l0.094,0.152l0.295-0.071l0.676-0.163l0.473-0.113
			l0.215-0.051l0.223-0.053l0.02-0.005l0.004-0.007l0.016-0.027L25.66,7.636L25.631,7.55l-0.033-0.097l-0.061-0.222l-0.02-0.117
			l-0.057-0.162L25.424,6.84l-0.035-0.138l-0.025-0.182L25.314,6.52l-0.031-0.021l-0.158-0.27l-0.172-0.214l-0.031-0.042
			l-0.053-0.084L24.824,5.82l-0.057-0.07l-0.061-0.05L24.66,5.67l-0.043-0.026L24.58,5.614l-0.062-0.044l-0.078-0.056l-0.113-0.082
			l-0.037-0.027L24.283,5.4l-0.047-0.057l-0.422-0.565l-0.299-0.399l-0.139-0.188l-0.025-0.035l-0.02-0.036l-0.018-0.074
			l0.006-0.048l0.018-0.091l0.021-0.057l0.025-0.031l0.008-0.071l0.012-0.102L23.383,3.61L23.34,3.578l-0.043-0.033L23.26,3.516
			l-0.053-0.017l-0.113-0.034l-0.039-0.012l-0.195-0.019L22.49,3.195l-0.104-0.067L21.91,2.821V2.82l-0.121-0.078l-0.367-0.237
			L21.336,2.45l-0.305-0.231l-0.297-0.227l-0.236-0.181l-0.062-0.103l-0.109-0.122l-0.029-0.031l-0.039-0.031L20.23,1.488
			L20.014,1.19l-0.119-0.165l-0.082-0.086l-0.066-0.026l-0.045-0.019l-0.076-0.033l-0.072-0.038L19.52,0.809l-0.074-0.037
			L19.41,0.749l-0.041-0.042l-0.047-0.048l-0.045-0.082l-0.051-0.092L19.211,0.46"/>
	</g>
</g>
<g id="Layer_1">
</g>
</svg>
