<?xml version="1.0" encoding="iso-8859-1"?>
<!-- Generator: Adobe Illustrator 16.0.4, SVG Export Plug-In . SVG Version: 6.00 Build 0)  -->
<!DOCTYPE svg PUBLIC "-//W3C//DTD SVG 1.1//EN" "http://www.w3.org/Graphics/SVG/1.1/DTD/svg11.dtd">
<svg version="1.1" xmlns="http://www.w3.org/2000/svg" xmlns:xlink="http://www.w3.org/1999/xlink" x="0px" y="0px"
	 width="11.431px" height="12.16px" viewBox="0 0 11.431 12.16" style="enable-background:new 0 0 11.431 12.16;"
	 xml:space="preserve">
<g id="Layer_9">
	<g id="Layer_14">
		
			<path id="DISTRICT_x3D_Tribal_Area_adj_Lakki_Marwat_x2C_PROVINCE_x3D_F.A.T.A." style="fill:#CCCCCC;stroke:#FFFFFF;stroke-width:1.07;" d="
			M6.093,0.64L6.093,0.64L6.086,0.661l-0.04-0.016l-0.5,0.625L3.923,4.393L3.236,5.785L1.861,8.576l-0.749,1.811l-0.125,0.375
			l0.874-0.561l0.874-0.189h0.938l1.062,0.562l0.828,0.779l0.104-0.143L5.602,11.08l0.01-0.115l0.211-0.277l0.083-0.128l0.035-0.106
			l0.029-0.127l0.049-0.117l0.159-0.153l0.05-0.134l0.327-0.321l0.09-0.349L6.74,9.133L6.726,8.987l0.06-0.112l0.074-0.064
			l0.281-0.178l0.18-0.336l0.298-0.328l0.436-0.316l0.299-0.369l0.006-0.097L8.343,7.104l0.097-0.107l0.084-0.062L8.47,6.843
			L8.361,6.841L8.276,6.836L8.182,6.831L8.095,6.827L8.037,6.759L8.032,6.583L7.803,6.318L7.736,6.177L7.726,6.075l0.202-0.148
			l0.145-0.054l0.122-0.04l0.101-0.06l0.112-0.147l0.165-0.104l0.116-0.043l0.063-0.087l0.07-0.052l0.106,0.006l0.144,0.034
			l0.113-0.034L9.28,5.339l0.104-0.022L9.51,5.292L9.581,5.17l0.126-0.166l0.062-0.081l0.076-0.117l0.051-0.067l0.051-0.082
			l0.083-0.13l0.092-0.097L10.2,4.369l0.117-0.08l0.076-0.071l0.123-0.186l0.062-0.07l0.032-0.079l-0.049-0.097l0.015-0.098
			l-0.13-0.118l0.087-0.034l0.033-0.022l-0.351-0.319L9.619,2.846L9.122,2.274L8.627,1.901L8.104,1.504L7.657,1.207L6.763,0.958
			L6.093,0.64"/>
	</g>
</g>
<g id="Layer_1">
</g>
</svg>
