<?xml version="1.0" encoding="iso-8859-1"?>
<!-- Generator: Adobe Illustrator 16.0.4, SVG Export Plug-In . SVG Version: 6.00 Build 0)  -->
<!DOCTYPE svg PUBLIC "-//W3C//DTD SVG 1.1//EN" "http://www.w3.org/Graphics/SVG/1.1/DTD/svg11.dtd">
<svg version="1.1" xmlns="http://www.w3.org/2000/svg" xmlns:xlink="http://www.w3.org/1999/xlink" x="0px" y="0px"
	 width="42.053px" height="28.269px" viewBox="0 0 42.053 28.269" style="enable-background:new 0 0 42.053 28.269;"
	 xml:space="preserve">
<g id="Layer_79">
	<g id="Layer_84">
		<path id="DISTRICT_x3D_Nawabshah_x2C_PROVINCE_x3D_Sindh" style="fill:#CCCCCC;stroke:#FFFFFF;stroke-width:1.07;" d="
			M21.792,0.689L21.792,0.689H21.73l-0.274,0.004l-0.22-0.039l-0.229-0.062L20.895,0.58l-0.14-0.008l-0.314-0.011l-0.239-0.024
			l-0.23,0.016L19.7,0.568l-0.194,0.035l-0.314,0.052l-0.326,0.058l-0.366,0.079l-0.32,0.059l-0.33,0.062l-0.181,0.039l-0.238,0.026
			l-0.062,0.007l-0.073,0.007L17.064,1.02l-0.229,0.028l-0.17,0.026L16.53,1.135l-0.099,0.069l-0.062,0.052L16.287,1.29
			l-0.122,0.014l-0.075,0.011l-0.14,0.066l-0.166,0.131l-0.092,0.08l-0.035,0.052l-0.048,0.104l-0.015,0.077l-0.021,0.068
			L15.525,1.94l-0.132,0.028L15.165,1.99l-0.187-0.007l-0.305,0.008l-0.229,0.006l-0.238,0.027l-0.161,0.028L13.94,2.058
			l-0.127-0.028l-0.123-0.05l-0.104-0.022L13.39,1.954L13.224,1.95l-0.312-0.005l-0.229-0.026l-0.227-0.018l-0.129-0.002
			l-0.125,0.02l-0.1,0.018l-0.079,0.034l-0.146,0.063l-0.119,0.039L11.738,2.08l-0.092,0.031l-0.082,0.037l-0.043,0.036
			l-0.035,0.055l-0.001,0.016l-0.057,0.064L11.39,2.396l-0.027,0.095l-0.063,0.047l-0.086,0.043l-0.096,0.062L11.08,2.719
			L11.053,2.78l-0.029,0.034L10.967,2.85l-0.074,0.025l-0.114,0.026l-0.104,0.044l-0.066,0.043l-0.133,0.104L10.371,3.11
			l-0.058,0.001L9.951,3.045L9.826,3.003L9.712,2.995L9.608,3.004L9.484,3.057L9.407,3.058L9.36,3.023L9.293,2.989L9.216,2.99H9.15
			L9.064,2.948L9.025,2.879L8.996,2.828L8.959,2.794L8.872,2.786L8.7,2.787L8.556,2.764L8.452,2.729L8.365,2.669L8.307,2.584
			L8.221,2.533H8.154L8.078,2.525L7.953,2.483l-0.104-0.06L7.8,2.329l-0.039-0.11L7.723,2.201L7.599,2.177L7.532,2.151L7.465,2.083
			L7.436,1.998l-0.087-0.12L7.272,1.811l-0.06-0.031L7.128,1.645L6.937,1.877L6.785,1.974L6.7,2.085L6.586,2.197L6.568,2.274
			L6.54,2.352L6.445,2.419L6.34,2.463L6.217,2.517L6.151,2.603L6.086,2.74L6.001,2.86L5.888,3.008L5.85,3.032H5.812L5.726,3.016
			L5.448,2.89l-0.19-0.095L5.003,2.741L4.687,2.657l-0.22,0.002L4.2,2.713L4.011,2.816L3.859,2.912L3.708,3.059L3.576,3.257
			L3.52,3.376L3.455,3.565l-0.017,0.24L3.262,3.979L3.014,4.104L2.886,4.109L2.762,4.106l-0.09-0.01l-0.12-0.016L2.469,4.059
			L2.37,4.022L2.306,3.938L2.226,4.03L2.175,4.109l0.024,0.098l0.068,0.127l0.12,0.281l0.131,0.352L2.693,5.58l0.045,0.497
			L2.719,6.38l-0.03,0.231L2.528,6.974L2.339,7.308L1.943,7.769L1.533,8.2L1.27,8.489L1.022,8.793L0.804,9.099L0.763,9.247
			L0.756,9.37l0.143,0.158l0.406,0.104l0.337-0.011l0.213,0.024l0.136,0.021l0.06,0.03l0.005,0.151l-0.009,0.15l-0.096,0.312
			l-0.194,0.416l-0.094,0.283l-0.122,0.476l-0.054,0.382l-0.062,0.244l-0.163,0.17l-0.237,0.112l-0.207,0.14L0.7,12.692
			l-0.027,0.191l0.093,0.458l0.04,0.332l0.08,0.43l-0.07,0.165l-0.128,0.145l0.06,0.081l0.066,0.063l0.087,0.126l0.107,0.168
			l0.015,0.206l0.033,0.35l0.111,0.086l0.114-0.018l0.141-0.1l0.075-0.182l0.007-0.206l0.125-0.284l0.145-0.2l0.138-0.017
			l0.136,0.024l0.063,0.125l-0.007,0.185l-0.013,0.37l0.025,0.393l0.019,0.286l0.167,0.416l0.252,0.284l0.134,0.087l0.38,0.217
			l0.317,0.05l0.204,0.027l0.154,0.107l0.243,0.213l0.267,0.192l0.27,0.132l0.219,0.232l0.555,0.427l0.312,0.135l0.523,0.036
			l0.362,0.031l0.155,0.128l0.192,0.335l0.065,0.64l-0.084,0.429l0.031,0.352l0.128,0.229l0.284,0.338l0.57,0.552l1.013,0.915
			l1.734,1.637l0.936,0.865l0.458,0.509l0.807,0.907l0.24,0.255l0.196,0.191l0.588,0.101l0.973,0.029l0.792-0.044l0.558-0.048
			l0.155,0.192l0.237,0.227l0.192,0.168l0.157,0.151l0.189-0.195l0.217-0.191l0.316-0.278l0.153-0.156l0.101-0.062l0.028-0.001
			l0.039,0.041l0.029,0.074l0.042,0.126l0.076,0.048l0.047-0.001l0.036-0.018l0.044-0.104l0.021-0.17l0.04-0.194l0.146-0.113
			l0.129-0.055l0.204-0.015l0.132,0.004l0.046-0.018l0.06-0.188l0.038-0.246l0.077-0.194l0.106-0.238l0.126-0.398l0.255-0.446
			l0.25-0.328l0.36-0.406l0.36-0.373l0.447-0.3l0.439-0.257l0.295-0.127l0.064-0.002h0.037l0.059,0.04l0.067,0.073l0.173,0.131
			l0.246,0.103l0.105,0.058l0.107,0.14l0.217,0.158L23,23.521l0.152,0.097l0.172,0.104l0.105,0.098l0.066,0.024l0.074-0.012
			l0.031,0.066l0.021,0.126l0.248-0.065l0.1,0.005l0.096,0.022l0.094,0.045l0.115,0.097l0.141,0.126l0.1,0.071l0.078,0.022
			l0.047-0.001l0.096-0.021l0.102-0.038l0.148-0.08l0.146-0.092l0.174-0.11l0.055-0.065l0.064-0.067l0.104-0.107l0.045-0.084
			l0.002-0.064l-0.027-0.091l-0.043-0.095l-0.125-0.248l-0.068-0.15l-0.051-0.181l-0.039-0.144l-0.135-0.352l-0.152-0.322
			l-0.242-0.492l-0.199-0.425l-0.129-0.247l-0.061-0.105l-0.119-0.201l-0.07-0.094l-0.109-0.07l-0.117-0.035l-0.162,0.022
			l-0.541,0.101l-0.299,0.031l-0.068-0.007l-0.045-0.033l-0.029-0.125l-0.053-0.39l-0.041-0.29l-0.027-0.217l-0.014-0.073
			l-0.01-0.112l-0.021-0.199l-0.029-0.146l-0.008-0.065l0.02-0.013l0.037-0.011l0.055,0.007l0.086-0.021l0.082-0.016l0.107-0.043
			l0.029-0.013l0.064,0.03l0.008-0.017l0.037-0.043l0.111-0.029l0.461-0.074l0.348-0.088l0.092-0.046l0.025-0.077l0.055-0.079
			l0.211-0.169l0.121-0.055l0.113-0.003l0.246,0.018l0.172,0.055l0.057-0.002l0.121-0.056l0.141-0.081l0.176-0.091l0.104-0.029
			l0.094-0.02l0.092-0.054l0.062-0.335l-0.025-0.195l-0.088-0.073l-0.117-0.099l-0.293-0.155l-0.203-0.103l-0.014-0.05l0.004-0.049
			l0.105-0.062l0.727-0.492l0.084-0.03l0.061,0.01l0.236,0.166l0.225,0.157l0.18,0.099l0.234,0.117l0.217,0.131l0.207,0.162
			l0.145,0.115l0.209,0.107l0.234,0.107l0.342,0.19l0.16,0.104l0.084,0.062l0.211,0.098l0.254,0.167l0.111,0.078l0.053,0.086
			l0.002,0.038l-0.07,0.084l-0.234,0.203l-0.129,0.113l-0.027,0.039v0.017l0.025,0.043l0.135,0.056l0.346,0.158l0.205,0.104
			l0.367,0.131l0.289,0.127l0.209,0.082l0.26,0.133l0.203,0.109l0.135,0.056l0.123,0.013l0.102-0.029l0.064-0.073l0.051-0.072
			l0.008-0.104l0.021-0.133l0.041-0.039l0.084-0.02l0.1-0.058l0.057-0.096l0.039-0.104l0.016-0.082l0.045-0.122l0.08-0.095
			l0.066-0.002l0.068,0.041l0.139,0.138l0.113,0.117l0.094,0.095l0.156,0.156l0.125,0.138l0.082,0.09l0.059,0.091l0.115,0.188
			l0.051,0.069l0.037-0.001l0.053-0.046l0.062-0.115l0.104-0.112l0.09-0.232l0.117-0.275l0.012-0.126l-0.002-0.093l-0.057-0.167
			l-0.02-0.055l-0.002-0.055l0.004-0.038l0.027-0.018l0.031-0.022l0.107-0.03l0.127-0.021l0.066-0.013l0.059-0.052l0.027-0.065
			l-0.008-0.262l-0.027-0.256l-0.039-0.068l-0.062-0.021l-0.188-0.017l-0.057-0.024l-0.021-0.055l-0.018-0.512l-0.018-0.627
			l-0.006-0.229l-0.02-0.044l-0.031-0.031l-0.078-0.009l-0.74,0.006l-0.121-0.007l-0.023-0.038l-0.018-0.097l-0.012-0.655
			l0.002-0.087l0.059-0.062l0.205-0.171l0.053-0.094l0.016-0.064l-0.037-0.186l-0.002-0.114l0.037-0.119l0.072-0.047l0.084-0.023
			l0.465-0.025l0.135,0.014l0.068,0.058l0.09,0.161l0.045,0.043l0.182,0.011l0.666-0.015l0.049-0.023l0.016-0.055L34.361,14.4
			l-0.006-0.142l0.021-0.071l0.072-0.02l0.055-0.002l0.055,0.005l0.021,0.064l0.014,0.19l0.016,0.107l0.021,0.049l0.031,0.011
			l0.041-0.023l0.027-0.071l0.014-0.29l-0.014-0.507l0.006-0.049l0.053-0.029l0.104,0.002l0.049-0.018l-0.01-0.093l-0.029-0.424
			l0.01-0.308l0.037-0.024l0.098-0.015l0.164-0.004l0.041,0.004l0.008,0.021l0.016,0.125l0.002,0.049l0.025,0.037l0.043,0.01
			l0.133-0.009l0.098-0.021l0.027-0.044l-0.008-0.229l0.018-0.018l0.055-0.013l0.127,0.002l0.037,0.01l0.008,0.038l-0.002,0.12
			l0.008,0.049l0.043,0.026l0.086-0.014l0.43-0.02l0.346-0.016l0.078-0.002l0.014,0.032l-0.008,0.114l-0.035,0.203l-0.02,0.322
			l0.004,0.1v0.021l0.021,0.086l0.031,0.021l0.047-0.002l0.174-0.087l0.26-0.215l0.365-0.267l0.367-0.263l0.367-0.215l0.146-0.086
			l0.262-0.188l0.383-0.289l0.301-0.261l0.293-0.286l0.17-0.196l0.109-0.146l0.236-0.327l0.234-0.323l0.219-0.333l0.193-0.36
			L41.059,9.7l0.074-0.144l0.098-0.123l0.107-0.091l0.076-0.046l0.047-0.089l0.053-0.378l-0.018-0.141l-0.031-0.043l-0.141-0.018
			l-0.127-0.002L41.172,8.61L41.17,8.595l-0.004-0.022l0.027-0.191l0.043-0.197l0.047-0.182l0.068-0.309l0.01-0.278l-0.023-0.136
			l-0.023-0.365L41.264,6.71l-0.15-0.318L40.973,6.21l-0.184-0.19l-0.113-0.145l-0.074-0.2l-0.098-0.188l-0.049-0.124l-0.021-0.18
			L40.373,4.89l-0.115-0.308l-0.172-0.394l-0.146-0.215l-0.135-0.198l-0.186-0.189l-0.23-0.207l-0.312-0.215l-0.266-0.149
			l-0.336-0.204l-0.189-0.097l-0.289-0.102l-0.229-0.13L37.6,2.384l-0.068-0.025l-0.049-0.004l-0.041,0.007l-0.055,0.034
			L37.262,2.48l-0.047,0.013l-0.049-0.021l-0.201-0.169l-0.111-0.067l-0.197-0.049l-0.572-0.055l-0.439-0.041L35.566,2.1
			l-0.115,0.025l-0.34-0.003L34.791,2.1l-0.195-0.011l-0.303,0.015l-0.371,0.006l-0.166-0.028l-0.414-0.021L32.859,2.01
			l-0.354-0.044l-0.312-0.034l-0.23-0.004l-0.27-0.024l-0.234-0.017L31.215,1.84l-0.359-0.032l-0.488-0.04l-0.346-0.03l-0.117-0.01
			l-0.287-0.046l-0.223-0.081l-0.283-0.067l-0.316-0.056l-0.207-0.022l-0.41-0.091L27.699,1.28l-0.258-0.046l-0.158-0.021
			L26.777,1.2l-0.42-0.02l-0.205,0.033L25.93,1.28l-0.115,0.031l-0.072,0.002l-0.123-0.045l-0.406-0.135l-0.25-0.054l-0.281-0.024
			l-0.275-0.052l-0.275-0.073l-0.127-0.006l-0.115,0.003L23.73,0.96l-0.084,0.034l-0.061,0.002l-0.135-0.017l-0.275-0.096
			l-0.273-0.111l-0.27-0.084l-0.184-0.005l-0.213,0.018l-0.084,0.013L21.912,0.68L21.792,0.689"/>
	</g>
</g>
<g id="Layer_1">
</g>
</svg>
