<?xml version="1.0" encoding="iso-8859-1"?>
<!-- Generator: Adobe Illustrator 16.0.4, SVG Export Plug-In . SVG Version: 6.00 Build 0)  -->
<!DOCTYPE svg PUBLIC "-//W3C//DTD SVG 1.1//EN" "http://www.w3.org/Graphics/SVG/1.1/DTD/svg11.dtd">
<svg version="1.1" xmlns="http://www.w3.org/2000/svg" xmlns:xlink="http://www.w3.org/1999/xlink" x="0px" y="0px"
	 width="80.157px" height="87.292px" viewBox="0 0 80.157 87.292" style="enable-background:new 0 0 80.157 87.292;"
	 xml:space="preserve">
<g id="Layer_175">
	<g id="Layer_180">
		<path id="DISTRICT_x3D_Bahawalpur_x2C_PROVINCE_x3D_Punjab" style="fill:#CCCCCC;stroke:#FFFFFF;stroke-width:1.07;" d="
			M67.21,44.134L67.21,44.134l-0.061-0.145l-0.096-0.274l-0.188-0.399l-0.287-0.459l-0.131-0.281l-0.104-0.235l-0.229-0.626
			l-0.425-1.018l-0.435-1.018l-0.201-0.587l-0.146-0.534l-0.111-0.597l-0.168-0.745l-0.068-0.229l-0.303-0.728l-0.541-0.952
			l-0.481-0.71l-0.438-0.684l-0.49-0.632l-0.304-0.373l-0.192-0.178l-0.107-0.029h-0.1l-0.126-0.027l-0.174-0.107l-0.204-0.271
			l-0.156-0.188l-0.073-0.076H60.79l-0.089,0.033l-0.034,0.049l-0.025,0.078l0.038,0.103l0.049,0.116l0.026,0.063l0.01,0.022
			l0.022,0.197l0.005,0.221l0.011,0.086l0.011,0.048l-0.025,0.062l-0.104,0.138l-0.062,0.071l-0.079,0.041l-0.108,0.002
			l-0.136-0.029l-0.055-0.055l-0.108-0.029l-0.08,0.04l-0.079,0.032l-0.062,0.088l-0.016,0.072l0.002,0.094l0.021,0.117l0.003,0.144
			l-0.024,0.079l-0.044,0.023l-0.085,0.062l-0.116,0.011l-0.182-0.028l-0.116-0.045l-0.064-0.07l-0.03-0.141l-0.047-0.875
			l-0.029-0.164l-0.064-0.062l-0.072-0.03l-0.135-0.006l-0.377,0.015l-0.127-0.029l-0.109-0.092l-0.028-0.104l-0.003-0.102
			l0.06-0.184l0.235-0.326l0.06-0.16l0.014-0.084l-0.036-0.039l-0.082-0.047l-0.244-0.058l-0.127-0.062l-0.057-0.07l-0.021-0.094
			l-0.002-0.11l0.033-0.149l0.076-0.127l0.104-0.152l0.124-0.112l0.023-0.079l-0.027-0.07l-0.091-0.062l-0.246-0.146l-0.156-0.14
			l-0.074-0.108l-0.012-0.125l0.05-0.168l0.077-0.143l0.141-0.145l0.132-0.129l0.125-0.127l0.061-0.136l-0.002-0.103l-0.01-0.055
			L58.35,28.7l-0.082-0.047l-0.152-0.004l-0.136-0.021l-0.083-0.062l-0.036-0.086l-0.003-0.109l0.031-0.143l0.044-0.063l0.035-0.023
			l0.045-0.024l0.126-0.019l0.099-0.002l0.09-0.024l0.062-0.041l0.025-0.047l-0.002-0.062l-0.027-0.055l-0.046-0.039l-0.055-0.031
			l-0.091-0.053l-0.038-0.07l-0.001-0.062l0.067-0.121l0.106-0.096l0.079-0.063l0.045-0.032l0.071-0.009l0.09-0.011L58.73,27.3
			l0.071-0.001l0.135-0.011l0.055-0.024l0.104-0.08l0.054-0.032l0.091,0.006l0.037,0.031l0.019,0.047l0.01,0.062l0.012,0.047
			l0.045,0.008l0.071-0.002l0.081-0.009l0.062-0.041l0.105-0.089l0.099-0.041l0.106-0.01l0.09-0.018l0.081-0.009l0.071-0.032
			l0.024-0.096l0.044-0.048l0.035-0.041l0.09-0.009l0.09-0.019l0.053-0.062l0.044-0.058l0.107-0.01l0.151-0.002l0.028,0.016
			l0.02,0.056l0.027,0.055l0.055,0.007l0.136,0.029l0.082,0.029l0.047,0.086l0.001,0.048l-0.024,0.118l0.002,0.103l0.003,0.095
			l0.029,0.143l0.064,0.07l0.128,0.092l0.229,0.186l0.29,0.152l0.235,0.115l0.198,0.027l0.162-0.011l0.206-0.026l0.062-0.049
			l0.062-0.096l0.09-0.049l0.341-0.037l0.271,0.011l0.207,0.054l0.146,0.012l0.358-0.021l0.306-0.028l0.233-0.02l0.117-0.002
			l0.072,0.021l0.099,0.022l0.118-0.002l0.16-0.021l0.215-0.074l0.098-0.023l0.173,0.014l0.063,0.062l0.046,0.069l0.108,0.021
			l0.162-0.02l0.258-0.129l0.178-0.138l0.221-0.161l0.196-0.082l0.026-0.062l0.007-0.07l-0.073-0.055l-0.092-0.094l-0.01-0.055
			l0.008-0.07l0.088-0.072l0.099-0.033l0.055,0.018l0.071,0.017l0.1-0.024l0.105-0.064l0.09-0.025l0.116-0.002l0.153-0.011
			l0.115-0.033L68.1,26.78l0.07-0.096l0.025-0.096l0.016-0.086l0.026-0.041l0.07-0.023l0.117,0.037l0.183,0.028l0.161,0.015
			l0.343,0.002l0.386-0.037l0.458-0.039l0.449-0.037l0.296-0.036l0.478-0.009l0.458-0.021l0.522-0.008l0.162,0.053l0.101,0.093
			l0.103,0.125l0.07,0.088l0.104,0.164l0.083,0.094l0.1,0.068l0.092,0.094l0.093,0.078l0.127,0.067l0.145,0.021l0.135,0.021
			l0.154,0.085l0.183,0.093l0.174,0.092l0.164,0.115l0.1,0.055l0.1,0.006l0.106-0.024l0.089-0.08l0.079-0.11l0.062-0.064l0.1-0.009
			l0.091,0.022l0.082,0.053l0.062,0.078l0.147,0.194l0.092,0.086l0.063,0.023l0.091-0.003l0.133-0.064l0.133-0.136l0.115-0.097
			l0.168-0.129l0.135-0.057l0.197,0.005l0.199,0.093l0.165,0.123l0.101,0.069l0.1,0.022l0.106-0.019l0.151-0.088l0.205-0.112
			l0.19-0.107l0.161-0.025l0.207-0.003l0.227,0.028l0.261,0.004l0.216-0.02l0.125-0.063l0.035-0.04l0.008-0.071l-0.055-0.03
			l-0.146-0.045l-0.198,0.002l-0.396,0.029l-0.081-0.015l-0.136-0.062l-0.155-0.125l-0.047-0.086l-0.001-0.062l0.062-0.104
			l0.025-0.056l0.008-0.071l-0.036-0.062l-0.073-0.055l-0.063-0.07l-0.02-0.062l0.033-0.127l0.008-0.126l-0.037-0.056l-0.063-0.015
			h-0.062l-0.055,0.032l-0.08,0.089l-0.062,0.055l-0.081,0.002l-0.081,0.002l-0.099,0.009l-0.116,0.024l-0.125,0.058l-0.135,0.026
			l-0.063-0.016l-0.062-0.039l-0.011-0.062l-0.003-0.15l-0.021-0.142l-0.055-0.055l-0.073-0.031l-0.108-0.021l-0.151,0.019
			l-0.062,0.056l-0.025,0.04l0.011,0.055l0.026,0.039l0.002,0.062l-0.034,0.088l-0.071,0.033h-0.071l-0.046-0.03l-0.028-0.039
			l-0.071-0.022l-0.1,0.002l-0.136-0.037l-0.037-0.071l-0.011-0.086l0.009-0.056l0.025-0.049l0.062-0.048l0.116-0.032l0.106-0.049
			l0.062-0.057l0.007-0.11l-0.046-0.086l-0.063-0.046l-0.1-0.008l-0.037-0.055l-0.011-0.056l0.087-0.204l0.051-0.128l0.079-0.126
			l0.045-0.031l0.072-0.018l0.055,0.031l0.035-0.002l0.062-0.016l0.062-0.119l0.112-0.237l0.079-0.08l0.106-0.05l0.288-0.043
			l0.107-0.002l0.09,0.015l0.038,0.071l0.063,0.093l0.056,0.03l0.045,0.009l0.054-0.009l0.044-0.088l0.018-0.062l0.053-0.057h0.045
			l0.162,0.013l0.137,0.039l0.261,0.021l0.092,0.029l0.137,0.085l0.082,0.029l0.117,0.022l0.071-0.002l0.151-0.041l0.099-0.063
			l0.105-0.097l0.07-0.096l0.106-0.064l0.198-0.01l0.251-0.004l0.188-0.025l0.144-0.065l0.07-0.087l0.016-0.126l-0.066-0.26
			l-0.121-0.212l-0.083-0.094l-0.055-0.047l-0.054,0.002h-0.101l-0.089,0.033l-0.018,0.07l-0.015,0.174l-0.017,0.135l-0.016,0.11
			l-0.035,0.048L78.9,23.771l-0.072,0.002l-0.046-0.031l-0.027-0.055l-0.038-0.086l-0.062-0.039l-0.099,0.002l-0.055,0.031
			l-0.008,0.079l0.02,0.056l-0.034,0.07l-0.072,0.002l-0.055-0.039l-0.063-0.039l-0.1-0.014l-0.072,0.001l-0.062-0.039l-0.058-0.108
			l-0.108-0.078l-0.072-0.031l-0.101,0.003l-0.105,0.049l-0.188,0.112l-0.203,0.168l-0.099,0.089l-0.08,0.041l-0.126,0.01
			l-0.072-0.03l-0.109-0.07l-0.103-0.172l-0.102-0.155L76.5,23.442l-0.001-0.062l0.044-0.071l0.043-0.087l-0.003-0.143l-0.093-0.172
			l-0.101-0.133l-0.068-0.053l-0.055-0.047l-0.01-0.047l0.053-0.079l0.017-0.097l-0.028-0.062l-0.062-0.03l-0.154-0.028l-0.18,0.019
			l-0.179,0.025l-0.126,0.049l-0.07,0.088l-0.132,0.16l-0.224,0.191l-0.204,0.104l-0.144,0.065h-0.09l-0.073-0.045l-0.064-0.125
			l-0.14-0.252l-0.184-0.146l-0.264-0.153L73.8,22.221l-0.146-0.1l-0.157-0.242l-0.148-0.258l-0.113-0.275l-0.031-0.267l0.047-0.371
			l0.045-0.348l-0.037-0.606l-0.005-0.196l-0.001-0.103l0.025-0.039l0.08-0.058l0.152-0.074l0.133-0.096l0.052-0.149l0.271-0.035
			l0.067-0.021l0.101-0.025l0.098-0.018l0.135-0.021l0.063-0.022l0.032-0.035l0.019-0.047l0.011-0.061l0.033-0.035l0.084-0.033
			l0.092-0.046l0.1-0.016l0.064-0.015l0.068-0.033l0.064-0.039l0.055-0.025l0.055-0.011l0.064-0.026l0.045-0.05l0.056-0.056
			l0.061-0.041l0.076-0.016l0.124-0.004l0.195-0.009l0.057-0.017l0.076-0.031l0.041-0.041l0.025-0.068l0.009-0.109l0.005-0.141
			l0.012-0.113l0.022-0.118l0.021-0.089l0.029-0.065l0.053-0.062l0.06-0.051l0.064-0.039l0.047-0.018l0.125-0.01h0.193l0.134-0.008
			l0.072-0.002l0.027-0.022l0.023-0.052l0.03-0.066l0.036-0.018l0.049-0.008h0.046l0.024-0.025l0.019-0.053l-0.002-0.105
			l-0.011-0.097l0.006-0.14l0.036-0.395l0.051-0.447l0.023-0.348l0.012-0.1l-0.016-0.069l-0.03-0.07l-0.045-0.084l-0.043-0.108
			l0.004-0.119l0.006-0.172l0.015-0.164l-0.011-0.109l-0.019-0.08l-0.045-0.043l-0.068-0.033l-0.106-0.029l-0.055-0.028l-0.038-0.05
			l-0.021-0.096l-0.046-0.082l-0.055-0.047l-0.077-0.027l-0.098-0.021l-0.071-0.001l-0.118,0.021l-0.108,0.019l-0.044-0.003
			l-0.029-0.018l-0.018-0.054l-0.027-0.062l-0.021-0.012l-0.036-0.014l-0.021-0.02l-0.012-0.053l0.003-0.069l0.024-0.067
			l0.029-0.041l0.062-0.031l0.094-0.02l0.107-0.018l0.097-0.015l0.016-0.014l0.018-0.05l-0.016-0.053l-0.062-0.07l-0.001-0.053
			l0.037-0.043l0.061-0.055l0.062-0.02h0.112l0.053-0.021l0.062-0.041l0.098-0.058l0.016-0.045l-0.003-0.075l-0.021-0.052
			l-0.035-0.026l-0.051-0.015l-0.069-0.02l-0.033-0.035l-0.026-0.093l-0.003-0.103l-0.031-0.084l-0.034-0.075l-0.061-0.07
			l-0.099-0.04l-0.107-0.021L76.1,12.329l-0.034-0.006l-0.035-0.026l-0.018-0.05l-0.021-0.067l-0.025-0.042l-0.048-0.036
			l-0.054-0.032l-0.03-0.043l-0.007-0.052l-0.01-0.057l-0.015-0.043l-0.031-0.027l-0.066-0.026l-0.112-0.014l-0.073,0.012
			l-0.045,0.022l-0.062,0.041l-0.061,0.026h-0.081l-0.107-0.013l-0.059-0.021l-0.054,0.008l-0.051,0.039l-0.04,0.041l-0.06,0.023
			l-0.056-0.002l-0.064-0.031l-0.019-0.045l0.018-0.105l0.019-0.053l-0.002-0.036l-0.019-0.019l-0.027-0.009l-0.049,0.009
			l-0.064,0.014l-0.028-0.008l-0.045-0.029l0.001-0.071v-0.058l-0.016-0.057l0.018-0.06l0.046-0.058l0.062-0.02l0.059-0.006
			l0.055-0.008l0.048-0.049l0.023-0.107l0.022-0.064l0.027-0.104l0.016-0.085l-0.019-0.045l-0.039-0.033l-0.06-0.024l-0.034-0.031
			l-0.022-0.036l-0.01-0.043l0.008-0.078l-0.005-0.041l-0.035-0.045l-0.027-0.062l0.007-0.048l0.012-0.019l0.053-0.034l0.049-0.035
			l0.018-0.044l0.021-0.034l0.03-0.014l0.052-0.003l0.098,0.014l0.08,0.004l0.057-0.016l0.034-0.053l0.03-0.071l0.004-0.136
			l-0.01-0.102l-0.023-0.072l-0.03-0.045l-0.06-0.017l-0.064,0.009l-0.071,0.029L74.879,9.85l-0.08,0.04L74.738,9.9l-0.049-0.019
			l-0.023-0.033l-0.015-0.044L74.654,9.7l0.001-0.103l-0.049-0.09l-0.075-0.06l-0.088-0.053l-0.165-0.084l-0.134-0.037l-0.091-0.002
			l-0.076,0.014L73.909,9.32l-0.093,0.06l-0.109,0.05l-0.049-0.007L73.601,9.4l-0.032-0.05l-0.014-0.092l0.003-0.19l0.028-0.146
			l0.07-0.252l0.022-0.176l-0.001-0.094l-0.041-0.056l-0.018-0.05v-0.07l0.03-0.111l-0.018-0.066l-0.055-0.072l-0.208-0.092
			l-0.175-0.066l-0.178-0.04l-0.215-0.028L72.72,7.735l-0.054-0.033l-0.038-0.05l-0.015-0.071l0.02-0.18l-0.004-0.145L72.602,7.21
			l-0.075-0.029l-0.084-0.023l-0.076,0.002L72.262,7.18l-0.169,0.016h-0.111l-0.084-0.021l-0.06-0.032l-0.115-0.104l-0.057-0.067
			l-0.067-0.056l-0.13-0.049l-0.147-0.055l-0.086-0.041L71.1,6.636l-0.104-0.135L70.925,6.32L70.88,6.109l-0.038-0.174L70.81,5.882
			l-0.037-0.021l-0.056-0.006l-0.055,0.038l-0.066,0.07l-0.049,0.039l-0.043,0.006l-0.029-0.004l-0.02-0.031l-0.031-0.137
			l-0.036-0.308l-0.046-0.351l-0.039-0.176l-0.044-0.086l-0.125-0.19l-0.066-0.149l-0.029-0.094l-0.041-0.152l-0.024-0.146
			l0.011-0.151l0.144-0.544l0.107-0.483l-0.013-0.191l-0.164,0.002l-0.252,0.042l-0.262-0.026l-0.183-0.088l-0.117-0.101
			l-0.097-0.128L69.101,2.39l-0.031-0.139l-0.076-0.18l-0.078-0.122l-0.079-0.099l-0.278-0.201l-0.204-0.186L68.158,1.37
			L68.05,1.357l-0.138,0.056l-0.094,0.086l-0.091,0.172l-0.021,0.176l-0.072,0.471l-0.042,0.068l-0.086,0.057l-0.154,0.025
			L67.3,2.462L67.229,2.37l-0.055-0.1l-0.024-0.145l0.013-0.154l0.012-0.115l-0.027-0.068l-0.038-0.022h-0.062l-0.172,0.062
			l-0.223,0.096l-0.246,0.17L66.18,2.238l-0.125,0.058l-0.12-0.02l-0.058-0.04l-0.066-0.075l-0.036-0.063l-0.001-0.12l0.021-0.062
			L65.853,1.8l0.059-0.153l0.012-0.108l0.047-0.184l0.031-0.12l0.024-0.108l-0.036-0.068L65.9,1.038l-0.104,0.028l-0.079,0.052
			l-0.038,0.107l-0.046,0.177l-0.062,0.074h-0.059l-0.067-0.058L65.39,1.343l-0.044-0.028l-0.075-0.007l-0.079,0.021l-0.171,0.073
			l-0.126,0.085l-0.144,0.016h-0.058l-0.09-0.028l-0.152-0.047l-0.217-0.054L64.041,1.24L63.93,1.137l-0.123-0.065L63.7,0.927
			l-0.098-0.088l-0.111-0.055l-0.08-0.129l-0.025-0.059l-0.099-0.055l-0.121-0.004l-0.1,0.045l-0.062,0.092l-0.079,0.101
			l-0.121,0.081l-0.106,0.055l-0.129,0.07L62.5,1.046l-0.11,0.096l-0.05,0.09l-0.03,0.168l-0.005,0.1L62.29,1.573l-0.057,0.042
			l-0.067,0.021l-0.074,0.001l-0.101-0.037l-0.118-0.055l-0.092-0.06l-0.133-0.092L61.544,1.35l-0.104-0.015l-0.18-0.002
			l-0.11,0.029l-0.067,0.029l-0.059,0.004l-0.052-0.012l-0.088-0.033l-0.065-0.006l-0.067,0.019l-0.057,0.042l-0.053,0.117
			l-0.003,0.062l0.014,0.059l-0.005,0.04l-0.044,0.022H60.49l-0.114,0.01l-0.075,0.035l-0.108,0.084l-0.167,0.162l-0.138,0.146
			l-0.074,0.107L59.76,2.396l-0.032,0.121l0.012,0.109l0.022,0.082L59.754,2.8l-0.041,0.117l-0.049,0.078l-0.061,0.018l-0.052,0.002
			l-0.041-0.02l-0.012-0.023l0.002-0.037l0.024-0.036l0.011-0.058l-0.021-0.065l-0.053-0.05l-0.03-0.021l-0.072-0.006l-0.065-0.025
			l-0.04-0.06l-0.071-0.062L59.089,2.54l-0.062,0.002l-0.111,0.054L58.81,2.702L58.713,2.86l-0.138,0.119l-0.123,0.033l-0.124-0.008
			l-0.189-0.062l-0.331-0.108l-0.142-0.069l-0.072-0.05l-0.043-0.09l-0.067-0.055L57.41,2.559l-0.094-0.006l-0.071,0.011l-0.1,0.062
			l-0.14,0.135l-0.122,0.173l-0.055,0.101l-0.059,0.09l-0.057,0.09l-0.049,0.058l-0.084,0.048l-0.082,0.016l-0.107,0.029
			l-0.062,0.028l-0.054,0.08l-0.022,0.054L56.25,3.594L56.289,3.7l0.024,0.065l-0.003,0.078l-0.035,0.087l-0.017,0.074l0.004,0.092
			l0.017,0.08l0.004,0.105l-0.005,0.102l-0.02,0.062L56.21,4.503l-0.096,0.035l-0.09,0.018L55.95,4.554l-0.105-0.018L55.736,4.54
			l-0.101,0.051l-0.063,0.062l-0.047,0.074l-0.003,0.081l0.023,0.062l0.105,0.092l0.165,0.084l0.06,0.045l0.029,0.054l0.043,0.089
			l0.057,0.053l0.066,0.037l0.063,0.032l0.128,0.12l0.056,0.08l0.015,0.126l-0.008,0.173l0.012,0.093l0.078,0.099l0.061,0.06
			l0.134,0.062l0.046,0.039l0.023,0.053l0.05,0.064l0.063,0.026l0.07,0.009l0.065,0.006l0.07,0.002l0.021,0.025l-0.001,0.04
			l-0.026,0.104l-0.02,0.084l-0.061,0.142l-0.153,0.206l-0.085,0.076l-0.083,0.01L56.458,7.05l-0.086,0.014l-0.04,0.03l-0.163,0.062
			l-0.23,0.033l-0.19-0.006l-0.144-0.021l-0.218-0.045l-0.135-0.041l-0.117-0.089l-0.099-0.071l-0.081-0.022l-0.07-0.002
			l-0.052,0.019l-0.06,0.049l-0.044,0.104l-0.025,0.136l-0.008,0.189l-0.004,0.201l-0.029,0.098l-0.097,0.16l-0.062,0.15
			l-0.052,0.121l-0.005,0.118l-0.001,0.112l0.025,0.105l-0.011,0.067l-0.041,0.058L54.369,8.61L54.29,8.626l-0.066,0.021
			l-0.028,0.026l-0.02,0.074l0.016,0.103l0.021,0.065l0.062,0.109l0.042,0.135l0.025,0.112l-0.004,0.085l-0.019,0.062l-0.058,0.067
			l-0.079,0.038L54.13,9.54l-0.084-0.014l-0.129-0.021l-0.093-0.006L53.69,9.521l-0.115,0.037L53.48,9.609l-0.054,0.04l-0.021,0.073
			l-0.004,0.092l0.012,0.112l0.044,0.061l0.062,0.061l0.029,0.055l0.002,0.041l-0.01,0.047l-0.02,0.068l0.003,0.041l0.021,0.037
			l0.053,0.062l0.056,0.091l0.026,0.082l0.002,0.047l-0.045,0.048l-0.056,0.028l-0.081-0.007l-0.051-0.008l-0.047,0.009
			l-0.041,0.028l-0.032,0.041l-0.034,0.062l-0.071,0.035l-0.083,0.018l-0.078,0.012l-0.1,0.062l-0.128,0.081l-0.181,0.146
			l-0.238,0.192l-0.191,0.188l-0.178,0.168l-0.066,0.031l-0.028,0.002l-0.072-0.029l-0.088-0.026L51.735,11.7l-0.052,0.016
			l-0.049,0.054l-0.083,0.03l-0.108,0.011l-0.185-0.007L51.123,11.8l-0.22,0.021l-0.174-0.179l-0.03-0.24l-0.074,0.026l-0.064,0.014
			l-0.088,0.012l-0.062,0.01l-0.103,0.033l-0.093,0.018l-0.075,0.019l-0.047,0.003l-0.038-0.016l-0.041-0.039l-0.105-0.113
			l-0.07-0.084l-0.076-0.07l-0.059-0.018h-0.049l-0.035,0.012l-0.034,0.027l-0.02,0.045l-0.008,0.049l0.021,0.049l0.095,0.082
			l0.113,0.092l0.056,0.072l0.021,0.033l0.008,0.062l-0.008,0.051l-0.01,0.046l-0.036,0.065l-0.022,0.043l-0.014,0.045l0.014,0.066
			l0.032,0.144l0.015,0.124l0.024,0.107l0.029,0.135l0.044,0.246l0.016,0.205l-0.008,0.121l-0.028,0.11l-0.032,0.062l-0.039,0.032
			l-0.049,0.021l-0.083,0.021l-0.097,0.023l-0.072,0.037l-0.096,0.039l-0.146,0.021l-0.142-0.008l-0.062-0.003l-0.137,0.024
			l-0.067,0.004l-0.078-0.012l-0.064-0.037l-0.055-0.041l-0.136-0.102l-0.239-0.158l-0.265-0.125l-0.163-0.088l-0.091-0.068
			l-0.055-0.059l-0.014-0.045l0.015-0.1l0.016-0.106l0.011-0.067l-0.001-0.059l-0.021-0.038l-0.033-0.024l-0.042-0.004l-0.029,0.006
			l-0.027,0.021l-0.021,0.033l-0.036,0.063l-0.063,0.135l-0.051,0.146l-0.064,0.192l-0.074,0.173l-0.062,0.192l-0.061,0.142
			l-0.035,0.055l-0.036,0.024l-0.077,0.025l-0.168,0.041l-0.173,0.024l-0.302,0.042l-0.205,0.018l-0.234-0.012l-0.19-0.016
			l-0.11-0.041l-0.097-0.063l-0.057-0.058l-0.034-0.108l-0.039-0.183l-0.027-0.15l-0.041-0.105l-0.04-0.047l-0.062-0.018
			l-0.062-0.004l-0.062,0.008l-0.042,0.021l-0.063,0.027l-0.129,0.109l-0.148,0.105l-0.16,0.094l-0.079,0.022l-0.062,0.001
			l-0.05-0.025l-0.054-0.053l-0.033-0.062l-0.039-0.074l-0.075-0.125l-0.03-0.041L44.13,12.89l-0.031,0.009l-0.052,0.028
			l-0.092,0.064l-0.101,0.068l-0.043,0.015l-0.075,0.001l-0.059-0.016l-0.069-0.066l-0.076-0.045l-0.104-0.023l-0.088-0.016
			l-0.057,0.006l-0.055,0.017l-0.046,0.018l-0.017,0.021l-0.003,0.023l-0.001,0.049l0.01,0.049l0.008,0.062l0.002,0.147l0.035,0.127
			l0.038,0.126l0.064,0.126l0.033,0.039l0.115,0.054l0.165,0.082l0.09,0.063l0.051,0.053l0.182,0.193l0.179,0.146l0.203,0.177
			l0.07,0.109l0.13,0.164l0.082,0.144l0.005,0.06l-0.008,0.049l-0.021,0.053l-0.034,0.031l-0.079,0.023l-0.073,0.022l-0.092,0.014
			l-0.084-0.016l-0.137-0.026l-0.11-0.035l-0.064-0.058l-0.084-0.081l-0.061-0.095l-0.051-0.109l-0.119-0.161l-0.113-0.154
			l-0.12-0.112l-0.081-0.044l-0.082-0.003l-0.072,0.019l-0.027,0.012l-0.038,0.03l-0.013,0.042v0.09l0.028,0.125l0.003,0.107
			l0.004,0.109l0.032,0.266l-0.007,0.092l-0.006,0.057l-0.05,0.211l-0.06,0.199l-0.071,0.105l-0.066,0.027l-0.081,0.006
			l-0.096-0.025l-0.104-0.087l-0.055-0.079l-0.027-0.115l0.006-0.133l0.023-0.16l0.005-0.125l-0.013-0.16L42.51,14.78l-0.031-0.053
			l-0.014-0.07l0.015-0.121l0.022-0.184l0.023-0.227l-0.002-0.058l-0.015-0.047l-0.024-0.026l-0.093-0.035l-0.143-0.045l-0.213-0.07
			l-0.15-0.043l-0.16-0.037l-0.087-0.027l-0.064-0.008l-0.035,0.016l-0.023,0.025l-0.036,0.1l-0.056,0.166l-0.04,0.178l-0.038,0.195
			l0.007,0.236l0.012,0.059l0.072,0.056l0.059,0.069l0.02,0.078l-0.006,0.041l-0.017,0.021l-0.146,0.038l-0.203,0.027l-0.198-0.024
			l-0.105-0.029l-0.059-0.056l-0.041-0.083l-0.056-0.138l-0.014-0.112l0.023-0.247v-0.094l-0.035-0.064l-0.086-0.07l-0.127-0.058
			l-0.108-0.013l-0.116,0.018l-0.174,0.04l-0.244,0.058l-0.307,0.033l-0.183,0.02l-0.078,0.039l-0.021,0.026l-0.028,0.058
			l-0.02,0.024l-0.071,0.032l-0.059,0.014l-0.073,0.053l-0.033,0.066l-0.036,0.156l-0.05,0.122l-0.08,0.142l-0.129,0.207
			l-0.05,0.068l-0.132,0.115l-0.09,0.062l-0.132,0.063l-0.16,0.052l-0.141,0.024l-0.16-0.012l-0.179-0.005l-0.03-0.026l-0.068-0.086
			l-0.082-0.117l-0.026-0.055l-0.133-0.179l-0.066-0.089l-0.14-0.105l-0.074-0.048l-0.052-0.077l-0.045-0.043l-0.124-0.084
			l-0.101-0.059l-0.146-0.055l-0.138-0.074l-0.15-0.037l-0.187-0.031l-0.152-0.004l-0.11,0.03l-0.054,0.03l-0.065,0.047
			l-0.056,0.053l-0.043,0.086l-0.029,0.09l-0.005,0.098l0.004,0.086l0.072,0.267l0.028,0.2l-0.004,0.141l-0.03,0.112l-0.036,0.063
			l-0.083,0.107l-0.097,0.086l-0.124,0.057l-0.101,0.041l-0.041,0.026l-0.037,0.046l-0.037,0.064l-0.021,0.084l-0.006,0.102
			L34.99,16.31l-0.021,0.029l-0.095,0.063l-0.134,0.06l-0.141,0.037l-0.071,0.006l-0.037-0.021l-0.077-0.099l-0.078-0.1
			l-0.033-0.022l-0.092-0.019l-0.043,0.01l-0.081,0.049l-0.096,0.103l-0.185,0.173l-0.183,0.166l-0.131,0.114l-0.054,0.024
			l-0.051,0.019l-0.071,0.002l-0.06-0.022l-0.075-0.053l-0.067-0.064l-0.076-0.066l-0.086-0.047l-0.081-0.031l-0.15-0.022
			l-0.253-0.009l-0.261,0.004h-0.217l-0.133,0.021l-0.086,0.035l-0.208,0.104l-0.113,0.049l-0.102,0.07l-0.137,0.131l-0.111,0.127
			l-0.131,0.164l-0.116,0.162l-0.076,0.131l-0.044,0.127l-0.021,0.109l-0.003,0.152l0.008,0.139l-0.015,0.07l-0.027,0.035
			l-0.027,0.023l-0.043,0.008l-0.043-0.004l-0.134-0.037l-0.171-0.09l-0.128-0.097l-0.117-0.082l-0.104-0.062l-0.122-0.039
			l-0.065-0.004l-0.094,0.006l-0.053,0.031l-0.079,0.072l-0.05,0.078l-0.075,0.157l-0.094,0.135l-0.081,0.113l-0.104,0.1
			l-0.092,0.099l-0.07,0.051l-0.057,0.019L28.817,18.7l-0.056-0.004l-0.038-0.027l-0.06-0.035l-0.042-0.043l-0.029-0.002
			L28.569,18.6l-0.057,0.054l-0.11,0.071l-0.126,0.077l-0.221,0.095l-0.103,0.039l-0.134,0.058l-0.062,0.012l-0.037-0.008
			l-0.021-0.035l-0.003-0.043l0.011-0.062l0.021-0.093l0.035-0.071l0.062-0.108l0.047-0.086l0.008-0.045l-0.005-0.025l-0.037-0.014
			l-0.059-0.026l-0.093-0.034l-0.091-0.051l-0.086-0.057l-0.128-0.086l-0.149-0.107l-0.146-0.102l-0.143-0.097L26.841,17.8
			l-0.065-0.01l-0.062,0.002l-0.042,0.026l-0.086,0.097l-0.064,0.049l-0.066,0.055l-0.024,0.02l0.002,0.028l0.018,0.044
			l-0.004,0.062l-0.021,0.084l-0.056,0.17l-0.024,0.178l-0.042,0.243l-0.043,0.135l-0.024,0.196l-0.012,0.178l-0.029,0.062
			l-0.065,0.068l-0.149,0.096l-0.104,0.045l-0.146,0.041l-0.107,0.008l-0.058,0.012l-0.085,0.035l-0.093,0.042l-0.108,0.058
			l-0.095,0.059l-0.037,0.039l-0.026,0.056l-0.014,0.075l0.004,0.063l0.033,0.087l0.114,0.191l0.037,0.081l0.022,0.071l-0.01,0.045
			l-0.044,0.123l-0.054,0.141l-0.052,0.053l-0.049,0.027l-0.036,0.008l-0.08-0.016l-0.1-0.043l-0.119-0.115l-0.1-0.084l-0.106-0.116
			l-0.167-0.146L24.21,20.22l-0.074-0.08l-0.026-0.09l-0.003-0.047l0.021-0.045l0.037-0.068l0.018-0.061l-0.003-0.052l-0.026-0.049
			l-0.072-0.058l-0.142-0.084l-0.12-0.072l-0.062-0.049l-0.055-0.067l-0.058-0.065l-0.102-0.113l-0.087-0.078l-0.08-0.061
			l-0.104-0.06l-0.096-0.009l-0.098,0.005l-0.171,0.054l-0.127,0.055l-0.198,0.08l-0.104,0.043l-0.126,0.019l-0.091,0.001
			l-0.139-0.008h-0.148l-0.146,0.016l-0.109,0.008l-0.143,0.032l-0.056,0.04l-0.08,0.064l-0.035,0.069l-0.047,0.129l-0.071,0.161
			l-0.107,0.271l-0.086,0.164l-0.043,0.057l-0.05,0.021l-0.036,0.002l-0.043-0.006l-0.053-0.018l-0.063-0.047l-0.049-0.039
			l-0.051-0.053l-0.052-0.082l-0.018-0.063l0.002-0.049l0.01-0.039l0.02-0.054l0.024-0.051l0.029-0.059l-0.003-0.048l-0.002-0.044
			l-0.04-0.032l-0.051-0.019l-0.072-0.006l-0.264-0.28l-0.054-0.072l0.003-0.073l0.044-0.135l0.01-0.1l-0.054-0.059l-0.048-0.014
			l-0.07-0.002l-0.061,0.01l-0.042-0.047l-0.056,0.049l-0.099,0.131l-0.096,0.029l-0.108-0.02l-0.082-0.062l-0.074-0.08
			l-0.115-0.159l-0.113-0.146l-0.191-0.081l-0.079,0.001l-0.074,0.017l-0.061,0.078l-0.041,0.129l-0.003,0.172l-0.016,0.14
			l-0.073,0.128l-0.108,0.078l-0.144-0.014l-0.105-0.051L18.3,19.081l-0.02-0.078l0.041-0.086l0.061-0.104l0.14-0.179l0.306-0.383
			l0.277-0.36l0.092-0.161l0.032-0.194v-0.18l-0.029-0.172l-0.083-0.104l-0.115-0.049l-0.076,0.01l-0.066,0.074l-0.085,0.15
			l-0.111,0.195l-0.153,0.156l-0.099,0.117l-0.105,0.046l-0.102,0.039l-0.169,0.019l-0.093,0.037l-0.032,0.057l-0.024,0.1
			l-0.08,0.057l-0.124,0.023l-0.162-0.033l-0.208-0.137l-0.076-0.033l-0.086,0.012l-0.289-0.004l-1.375-0.035l-0.274-0.004
			l-0.107-0.047l-0.052-0.049l-0.025-0.094l-0.038-0.715l-0.032-0.305l-0.068-0.201l-0.096-0.055l-0.185-0.052l-0.308-0.004
			L13.947,16.4l-0.529,0.081l-0.494,0.137l-0.435,0.147l-0.459,0.151l-0.341,0.194l-0.255,0.118l-0.128,0.102l-0.323,0.285
			l-0.067,0.047h-0.047l-0.032-0.014l-0.052-0.104l-0.033-0.193l-0.05-0.359l-0.023-0.209l-0.062-0.056l-0.042,0.003l-0.07,0.055
			l-0.082,0.131l-0.062,0.11l-0.092,0.106l-0.058,0.072l-0.031,0.125v0.098l0.062,0.156l0.071,0.127l0.006,0.072l-0.031,0.041
			l-0.076-0.019l-0.057-0.06l-0.135-0.07l-0.142-0.031l-0.134-0.002l-0.087,0.025l-0.092,0.094l-0.104,0.128l-0.085,0.206
			L9.325,18.27l-0.084,0.149l-0.112,0.1l-0.165,0.082l-0.241-0.006l-0.088-0.029L8.59,18.519L8.528,18.39l-0.014-0.145l-0.097-0.123
			l-0.09-0.08l-0.097-0.041l-0.198-0.027l-0.153,0.02l-0.046,0.012l-0.102,0.099L7.707,18.23l-0.02,0.24l-0.079,0.141l-0.112,0.121
			l-0.113,0.04l-0.205,0.062l-0.146,0.092l-0.103,0.09l-0.136,0.131l-0.044,0.131l0.003,0.199l0.097,0.408l0.004,0.339l0.001,0.11
			l-0.09,0.131l-0.136,0.131l-0.341,0.182l-0.521,0.186l-0.285,0.093l-0.228,0.082l-0.078,0.069L5.074,21.31L4.939,21.48
			l-0.092,0.062H4.756l-0.112,0.002l-0.126-0.06l-0.14-0.077l-0.092-0.061l-0.103-0.01l-0.067,0.012l-0.068,0.05l-0.09,0.142
			l-0.092,0.198L3.788,21.87l-0.17,0.142l-0.216,0.052l-0.184-0.008L2.99,22.007L2.761,21.96l-0.158,0.002l-0.138,0.061
			l-0.156,0.131L2.14,22.385l-0.135,0.2l-0.2,0.4l-0.054,0.189v0.07l0.06,0.06l0.125,0.019l0.137,0.02l0.114,0.009l0.08,0.03
			l0.139,0.138l0.193,0.077l0.229,0.107l0.218,0.117l0.172,0.108l0.164,0.258l0.082,0.22l0.094,0.188l0.048,0.168l-0.031,0.17
			l-0.112,0.142l-0.113,0.092l-0.146,0.031h-0.16l-0.259-0.084l-0.218-0.098l-0.345-0.166l-0.354-0.156l-0.148-0.037H1.65
			l-0.058,0.041l-0.044,0.079l0.024,0.159l0.059,0.129l0.14,0.118l0.137,0.089l0.104,0.3L1.999,25.96l-0.238,0.42l0.085,0.082
			l0.032,0.19l-0.033,0.304l-0.062,0.276l-0.089,0.291l-0.09,0.229l-0.146,0.195L1.23,28.181l-0.241,0.246L0.763,28.72l-0.159,0.195
			l-0.039,0.072L0.58,29.06l0.042,0.048l0.18,0.031l0.22-0.027l0.202-0.101l0.218-0.124l0.148-0.063l0.138-0.003l0.124,0.033
			l0.058,0.084l0.023,0.131l-0.008,0.24l0.019,0.119l0.085,0.106l0.084,0.07l0.125,0.059l0.097,0.045l0.111,0.06l0.071,0.144
			l0.032,0.181l-0.035,0.253l-0.021,0.193l0.016,0.084l0.113,0.131l0.309,0.258l0.153,0.13l0.076,0.265l0.033,0.238l0.005,0.205
			l0.029,0.12l0.07,0.069l0.349,0.248l0.393,0.315l0.545,0.353l0.235,0.114l0.139,0.046l0.109,0.01l0.095-0.062l0.134-0.135
			l0.132-0.22l0.234-0.521l0.325-0.752l0.195-0.413l0.119-0.157l0.188-0.173l0.298-0.198l0.38-0.176l0.409-0.128l0.383-0.065
			l0.302-0.006l0.165,0.021l0.111,0.032l0.084,0.072l0.101,0.201l0.006,0.205l-0.055,0.098l-0.175,0.135l-0.175,0.137l0.41,0.475
			l0.168,0.989l0.027,1.099l-0.086,0.104l-0.086,0.111l-0.148,0.101L8.37,34.013l-0.229,0.154l-0.192,0.125l-0.139,0.152
			l-0.029,0.184l0.021,0.148l0.08,0.219l0.077,0.146l0.021,0.117l-0.023,0.103l-0.053,0.05L7.81,35.483l-0.098,0.059l-0.068,0.064
			l-0.024,0.072l-0.04,0.127l-0.033,0.096L7.494,35.95l-0.169,0.035l-0.134,0.036l-0.122,0.104l-0.041,0.088l-0.031,0.16
			l0.007,0.188l0.049,0.102L7.154,36.7l0.099,0.006l0.144-0.028l0.179-0.005l0.11,0.061l0.085,0.107l0.039,0.117l0.032,0.164
			l-0.02,0.197l-0.048,0.176l-0.061,0.08l-0.104,0.073l-0.08,0.063L7.468,37.77l-0.014,0.103l0.043,0.196l0.081,0.281l0.115,0.209
			l0.088,0.188l0.066,0.141l0.023,0.148l-0.016,0.078l-0.052,0.072l-0.139,0.13l-0.309,0.183L7.26,39.564L7.173,39.63l-0.042,0.08
			l-0.022,0.095l0.014,0.149l0.067,0.131l0.185,0.154l0.104,0.113l0.104,0.115l0.095,0.154l0.06,0.148l0.061,0.171v0.253
			l-0.044,0.27L7.66,42.152l-0.178,0.792l-0.056,0.285l-0.197,0.699L6.94,44.614l-0.118,0.209l-0.291,0.631L6.408,45.78L6.14,46.385
			l-0.354,0.569l-0.432,0.683l-0.319,0.584l-0.167,0.336l-0.144,0.303l-0.18,0.479l-0.131,0.342l-0.12,0.391l-0.146,0.649
			L4.085,51.22l-0.11,0.68l-0.255,0.85l-0.292,0.828l-0.103,0.381l-0.074,0.72l-0.111,0.66l0.021,0.598l-0.007,0.746l0.088,0.535
			l0.029,0.806l0.089,0.596l0.125,0.625l0.059,0.332l0.155,0.676l0.142,0.592l0.07,0.314l0.048,0.311l0.112,0.798l0.043,0.675
			l0.035,0.482l-0.015,0.781l-0.063,0.523l0.006,0.168l-0.035,0.344l-0.062,0.387l-0.029,0.34l0.002,0.367l0.028,0.289l0.016,0.096
			l0.031,0.204l0.116,0.751l0.097,0.523l0.088,0.276l0.109,0.376l0.156,0.571l0.146,0.56l0.124,0.303l0.095,0.281l0.197,0.354
			l0.45,0.588l0.251,0.352l0.182,0.248l0.146,0.228l0.164,0.254l0.103,0.203l0.104,0.233l0.079,0.221l0.072,0.341L6.77,73.83
			l0.032,0.257l0.021,0.253l0.043,0.204l0.054,0.178l0.129,0.281l0.165,0.465L7.3,75.701l0.037,0.211l0.082,0.293l0.145,0.358
			l0.124,0.303l0.156,0.429l0.062,0.251l0.011,0.126l0.004,0.273l0.045,0.258l0.094,0.435L8.2,79.104l0.034,0.284l0.043,0.372
			l0.071,0.377l0.122,0.402l0.135,0.449l0.103,0.22l0.177,0.427l0.181,0.369l0.042,0.167l0.024,0.227l0.015,0.396l-0.012,0.206
			L9.124,83.22l0.022,0.3l0.052,0.299l0.074,0.431l0.037,0.216l0.03,0.196l0.039,0.263l0.013,0.391l0.302,1.229l2.039-0.902
			l0.572-0.254l2.178-0.906l0.534-0.153l0.421-0.121l0.226,0.009l0.917-0.153l2.979-0.501l0.386-0.048l2.79-0.139l1.72-0.078
			l2.089-0.097l3.08-0.135l2.06-0.199l1.654-0.16l0.894-0.265l1.192-0.472l0.384-0.129l0.605-0.201l3.506-1.263l1.452-0.433
			l0.729-0.21l0.186-0.053l0.354-0.225l0.034-0.021l0.254-1.721l0.22-1.48l0.225-1.248l0.221-1.229l0.013-0.26l0.014-0.284
			l1.954-2.603l0.406-0.481l0.537-0.639l1.067-0.942l0.06-0.052l0.068-0.053l1.588-1.187l1.213-0.832l0.521-0.384l0.976-0.723
			l0.686-0.615l0.413-0.455l0.032-0.15l0.22-0.164l1.151-0.859l0.441-0.76l0.573-0.984l0.815-2.271l0.304-0.839l0.14-0.403
			l0.171-0.491L57,56.937l0.207-0.208l0.099-0.397l0.069-0.277l1.089-3.09l0.244-0.725l0.33-0.922l0.354-0.988l1.157-1.621
			l2.757-2.941l0.026-0.021l0.606-0.459l0.209-0.059l0.062-0.018l0.953-0.305l1.328-0.428L67.21,44.134"/>
	</g>
</g>
<g id="Layer_1">
</g>
</svg>
