<?xml version="1.0" encoding="iso-8859-1"?>
<!-- Generator: Adobe Illustrator 16.0.4, SVG Export Plug-In . SVG Version: 6.00 Build 0)  -->
<!DOCTYPE svg PUBLIC "-//W3C//DTD SVG 1.1//EN" "http://www.w3.org/Graphics/SVG/1.1/DTD/svg11.dtd">
<svg version="1.1" xmlns="http://www.w3.org/2000/svg" xmlns:xlink="http://www.w3.org/1999/xlink" x="0px" y="0px"
	 width="75.271px" height="38.094px" viewBox="0 0 75.271 38.094" style="enable-background:new 0 0 75.271 38.094;"
	 xml:space="preserve">
<g id="Layer_154">
	<g id="Layer_159">
		<path id="DISTRICT_x3D_Ghanche_x2C_PROVINCE_x3D_FANA" style="fill:#CCCCCC;stroke:#FFFFFF;stroke-width:1.07;" d="M24.702,37.385
			L24.702,37.385l0.229-0.034l0.216-0.034l0.23-0.023l0.331,0.023h0.374l0.401,0.092l0.331,0.069l0.433,0.081h0.389l0.316-0.011
			l0.315-0.034l0.274-0.059l0.417-0.114l0.332-0.093l0.358-0.092l0.288-0.104l0.303-0.059l0.303-0.057l0.332-0.104l0.303-0.069
			l0.287-0.104l0.26-0.068l0.36-0.127l0.346-0.219l0.375-0.186l0.317-0.242l0.332-0.185l0.272-0.231l0.289-0.23l0.23-0.23
			l0.245-0.22l0.217-0.219l0.173-0.173l0.217-0.162l0.229-0.162l0.317-0.208l0.332-0.197l0.36-0.196l0.303-0.242l0.245-0.209
			l0.316-0.139l0.244-0.138l0.261-0.092l0.229-0.128l0.229-0.172l0.305-0.174l0.259-0.149l0.158-0.14l0.23-0.115l0.288-0.174
			l0.217-0.104l0.201-0.126l0.217-0.127l0.273-0.149l0.26-0.104l0.273-0.116l0.303-0.104l0.346-0.059l0.331-0.068l0.403-0.139
			l0.303-0.127l0.375-0.173l0.36-0.185l0.272-0.104l0.274-0.173l0.26-0.208l0.115-0.358l0.202-0.115l0.347-0.139l0.417-0.195
			l0.489-0.115l0.304-0.139l0.217-0.139l0.272-0.092l0.23-0.104l0.217-0.115l0.331-0.059l0.389-0.08l0.461-0.174l0.462-0.322
			l0.777-0.162l0.677-0.114l0.807-0.196l0.721-0.138l0.906-0.093l0.579-0.129l0.575-0.42l0.52-0.377l0.301-0.348l0.232-0.27
			l0.542-0.276l0.287-0.146l0.382-0.367l0.462-0.393l0.316-0.208l0.548-0.254l0.604-0.282l0.536-0.353l0.629-0.251l0.294-0.178
			l0.329-0.197l0.419-0.253l0.514-0.31l0.474-0.291l0.386-0.238l0.419-0.312l0.366-0.275l0.438-0.325l0.259-0.194l0.301-0.225
			l0.278-0.299l0.248-0.244l0.358-0.346l0.562-0.346l0.511-0.133l0.392-0.225l0.554-0.196l0.384-0.344l0.453-0.187l0.289-0.24
			l0.296-0.195l0.477-0.313l0.495-0.245l0.663-0.323l0.562-0.208l0.34-0.333l0.525-0.245l0.375-0.3l0.273-0.185l0.159-0.326
			l0.106-0.144l-0.038-0.339l-0.015-0.116l-0.021-0.197l0.106-0.166l0.092-0.141l0.105-0.165l0.151-0.111l0.136-0.1l0.271-0.199
			l0.208-0.153l0.146-0.108l0.272-0.201l0.054-0.106l0.097-0.191l0.197-0.088l0.232-0.104l0.222-0.099l0.265-0.126l0.195-0.073
			l0.118-0.044l0.099-0.087l0.059-0.165l-0.02-0.103l0.032-0.165l0.026-0.142l0.047-0.075l0.092-0.153l0.128-0.173l0.03-0.165
			l-0.003-0.008l-0.137,0.009l-0.273-0.351l-0.378-0.348l-0.315-0.26L73.209,9.1l-0.374-0.038l-0.273,0.184l0.065,0.674
			l-0.165,0.113L71.99,9.836l-0.464-0.131l-0.553-0.057l-0.342,0.036l-0.2,0.127l-0.107-0.002L70.239,9.69l-0.027-0.264
			l-0.125-0.168l-0.17-0.087l-0.872-0.137l-0.744-0.102l-0.372,0.211l-0.487-0.232L66.76,8.984l-0.644,0.181l-0.417,0.112
			l-0.726,0.334l-0.319,0.203l-0.442-0.021l-0.336-0.11l-0.371-0.154l-0.177-0.077l-0.421,0.023l-0.536,0.037l-0.366-0.141
			l-0.347-0.247l-0.097-0.353l0.035-0.27l-0.113-0.092l-0.133-0.045l-0.197,0.01l-0.27,0.039H60.63l-0.317-0.255l-0.147-0.37
			l-0.234-0.616l-0.28-0.278L59.13,6.667l-0.468-0.179l-0.539,0.077l-0.54,0.106l-0.561,0.07l-0.846,0.268l-0.738,0.159l-0.747,0.2
			l-0.68,0.002l-0.426-0.155l-0.358-0.277l-0.603-0.263l-0.386-0.152l-0.31-0.216l-0.343-0.248l-0.271-0.188l-0.354-0.124
			l-0.658-0.188L49.75,5.284L49.19,4.79l-0.306-0.396l-0.334-0.196l-0.393-0.084L47.911,4.06l-0.326-0.016L47.12,4.012l-0.441-0.183
			L46.253,3.57l-0.452-0.012l-0.212,0.193l-0.149,0.275l-0.412,0.191l-0.523,0.137l-0.358-0.037l-0.258-0.135l-0.431-0.231
			l-0.313-0.103l-0.32-0.064l-0.348-0.128L42.009,3.39L41.78,3.197l-0.126-0.136l-0.008,0.014l-0.129,0.104l-0.108,0.167
			l-0.103,0.139l-0.13,0.092l-0.145,0.116l-0.23,0.139l-0.145,0.127l-0.188,0.104l-0.202,0.081l-0.172,0.115L39.865,4.34
			l-0.159,0.185l-0.188,0.092l-0.159,0.058l-0.123,0.021L39.143,4.72l-0.114,0.069L38.94,4.882l-0.043,0.081l-0.087,0.116
			L38.71,5.275l-0.088,0.196l-0.059,0.173l-0.13,0.173l-0.116,0.162l-0.13,0.162l-0.145,0.162l-0.201,0.231l-0.174,0.185
			L37.407,7.02L37.22,7.262l-0.205,0.236l-0.187,0.204L36.67,7.933l-0.116,0.208l-0.159,0.231L36.236,8.58l-0.146,0.219L35.902,9.03
			l-0.129,0.184l-0.087,0.231l-0.159,0.347l-0.159,0.37l-0.201,0.243l-0.246,0.254l-0.23,0.312l-0.23,0.416l-0.174,0.196
			l-0.157-0.127l-0.173-0.116l-0.287-0.197l-0.244-0.208l-0.188-0.208l-0.2-0.22l-0.157-0.139l-0.202-0.046l-0.188-0.069
			l-0.187-0.197l-0.129-0.22l-0.145-0.22l-0.057-0.312l-0.114-0.23l-0.07-0.209l-0.114-0.266l-0.102-0.243l-0.2-0.197l-0.144-0.243
			l-0.144-0.243l-0.172-0.231l-0.087-0.231l-0.043-0.208l-0.143-0.208l-0.072-0.162l-0.2-0.254l-0.101-0.174l-0.188-0.197
			L29.839,5.8L29.65,5.614l-0.229-0.197l-0.259-0.162l-0.216-0.139l-0.244-0.139l-0.315-0.186l-0.287-0.127l-0.245-0.058
			l-0.244-0.104l-0.287-0.173l-0.157-0.128l-0.229-0.173l-0.216-0.197l-0.188-0.116l-0.144-0.174l-0.201-0.173l-0.201-0.15
			l-0.113-0.104l-0.217-0.116l-0.157-0.093l-0.157-0.15l-0.117-0.092l-0.132-0.08l-0.144-0.1l-0.11-0.145l-0.164-0.115l-0.128-0.089
			L24.36,2.001L24.266,1.84l-0.069-0.118l-0.135-0.103l-0.158-0.12l-0.106-0.12L23.674,1.24l-0.127-0.143L23.398,0.93l-0.085-0.095
			L23.208,0.75l-0.099-0.078l-0.082-0.066l-0.076-0.061l-0.144-0.003L22.674,0.54l-0.188-0.004l-0.143,0.029l-0.127,0.026
			l-0.117,0.024l-0.125,0.026l-0.168,0.035l-0.276,0.085l-0.125,0.033l-0.273,0.127l-0.235,0.036l-0.173,0.04L20.535,1.04
			l-0.217,0.078L20.14,1.186l-0.165,0.09l-0.172,0.055l-0.215,0.056l-0.144,0.086l-0.188,0.069l-0.159,0.006L18.97,1.607
			l-0.202,0.038l-0.104,0.057L18.559,1.76L18.43,1.83l-0.194,0.107l-0.104,0.058l-0.198,0.066L17.788,2.13l-0.123,0.069L17.558,2.28
			l-0.174,0.036l-0.172,0.092l-0.131,0.07L16.923,2.57l-0.146,0.115l-0.086,0.127l-0.13,0.093l-0.116,0.139l-0.259,0.139
			l-0.173,0.104l-0.217,0.081L15.609,3.46l-0.23,0.058l-0.158,0.069l-0.188,0.081L14.86,3.726l-0.246,0.069l-0.272,0.104
			l-0.216,0.116l-0.23,0.139L13.65,4.316l-0.188,0.115l-0.174,0.15l-0.131,0.173L12.929,4.95l-0.13,0.162l-0.13,0.116l-0.13,0.116
			l-0.131,0.115l-0.115,0.173l-0.13,0.139l-0.102,0.104l-0.13,0.092l-0.115,0.127l-0.059,0.139l-0.115,0.104L11.47,6.591
			l-0.146,0.139l-0.102,0.081L11.05,6.973l-0.102,0.104l-0.196,0.102l-0.156,0.125l-0.137,0.085l-0.188,0.08l-0.145,0.058
			L9.909,7.619L9.692,7.712L9.464,7.804L9.19,7.839L8.858,7.931L8.614,7.965L8.312,8.011L8.082,8.057L7.821,8.103L7.605,8.161
			L7.39,8.229L7.188,8.333L7.015,8.437L6.842,8.553L6.64,8.668L6.424,8.83L6.179,8.945L5.977,9.072L5.788,9.176L5.631,9.28
			L5.413,9.407L5.227,9.488l-0.22,0.117L4.79,9.743L4.66,9.87l-0.115,0.162L4.386,10.24l-0.073,0.22l-0.087,0.197l0.016,0.104
			l-0.059,0.127l-0.028,0.174l-0.032,0.125l-0.005,0.166L4.11,11.484l-0.024,0.209l0.051,0.096l0.016,0.139l0.015,0.139
			l-0.044,0.185l0.028,0.186l0.057,0.139l0.02,0.202L4.193,12.97l-0.059,0.162L4.12,13.34l-0.102,0.196l-0.06,0.277l-0.072,0.173
			l-0.059,0.185l-0.072,0.127l-0.101,0.161l-0.116,0.139l-0.115,0.173L3.25,14.944l-0.158,0.185l-0.131,0.127L2.832,15.43
			l-0.13,0.116L2.6,15.696L2.44,15.858l-0.114,0.173l-0.173,0.173l-0.116,0.139l-0.145,0.116L1.72,16.667l-0.146,0.185l-0.102,0.196
			l-0.087,0.07l-0.072,0.104l-0.087,0.173l-0.102,0.173l-0.202,0.231l-0.159,0.277l-0.13,0.289L0.59,18.7l-0.045,0.289l0.057,0.243
			l0.072,0.254l0.101,0.197l0.157,0.174l0.173,0.185l0.216,0.162l0.215,0.221l0.156,0.186l0.103,0.139l0.114,0.149l0.187,0.14
			l0.217,0.197l0.187,0.184l0.172,0.197l0.258,0.231l0.245,0.231l0.303,0.22l0.258,0.187l0.302,0.266l0.315,0.149l0.316,0.093h0.302
			l0.23-0.011l0.172,0.046l0.346,0.082l0.374,0.104l0.244,0.104l0.288,0.082l0.316,0.047l0.388,0.092l0.346,0.117l0.359,0.104
			l0.359,0.058l0.33,0.139l0.26,0.14l0.302,0.14l0.33,0.174l0.432,0.244l0.416,0.23l0.402,0.22l0.229,0.116l0.244,0.139l0.273,0.127
			l0.244,0.081l0.229,0.162l0.33,0.082h0.331h0.36l0.243,0.022l0.273,0.129l0.259,0.104l0.272,0.035l0.247-0.031l0.167-0.047
			l0.087-0.023l0.104-0.029l0.126-0.037L14.99,25.9l0.159-0.021l0.144-0.02l0.107,0.03l0.114,0.021l0.119,0.052l0.084,0.062
			l0.084,0.071l0.072,0.088l0.055,0.084l0.084,0.093l0.074,0.082l0.03,0.09l0.005,0.088l0.037,0.06l0.037,0.06l0.062,0.084
			l0.078,0.084l0.062,0.073l0.084,0.032l0.104,0.02h0.123l0.153-0.002h0.099l0.139-0.002h0.108l0.132-0.021l0.146-0.023l0.216-0.007
			l0.274,0.002l0.174,0.024l0.147,0.021l0.107-0.007l0.1,0.016l0.039,0.043l0.055,0.09l0.048,0.064l0.066,0.092l0.069,0.08
			l0.053,0.062l0.031,0.036l0.102,0.098l0.132,0.045l0.059,0.004l0.058,0.021l0.083,0.027l0.098,0.027l0.067,0.031l0.082,0.031
			l0.077,0.035l0.082,0.035l0.067,0.062l0.064,0.057l0.067,0.083l0.101,0.067l0.06,0.043l0.092,0.055l0.093,0.037l0.12,0.025
			l0.084,0.014l0.126,0.029l0.109,0.068l0.018,0.055l-0.003,0.086l0.008,0.08l-0.02,0.092l-0.06,0.115l-0.062,0.088l0.062,0.043
			l0.09,0.054l0.07,0.126l0.06,0.109l0.116,0.067l0.09,0.072l0.106,0.056l0.132,0.074l0.096,0.068l0.089,0.133l0.032,0.103
			l0.006,0.11l0.015,0.129l-0.039,0.139l0.004,0.002l-0.041,0.1l-0.04,0.142l-0.021,0.161l-0.054,0.105l-0.019,0.136l0.082,0.411
			l-0.001,0.128l0.049,0.096l0.076,0.158l0.053,0.116l0.104,0.191l0.09,0.124l0.089,0.134l0.097,0.155l0.092,0.106l0.085,0.111
			l0.053,0.117l0.065,0.096l0.078,0.076l0.046,0.086l0.04,0.143l0.019-0.008l0.038,0.052l0.023,0.075l0.045,0.082l0.05,0.043
			l0.04,0.078l0.029,0.09l0.057,0.078l0.065,0.092l0.05,0.104l0.062,0.119l0.034,0.081l0.074,0.065l0.043,0.108l0.064,0.105
			l0.021,0.103v0.123l0.013,0.094l-0.041,0.154l0.022,0.143l0.016,0.123l0.011,0.119l0.019,0.084l0.016,0.071l0.037,0.104
			l0.051,0.139l0.093,0.154l0.095,0.117l0.202,0.164l0.109,0.082l0.119,0.09l0.14,0.098l0.144,0.066l0.118,0.043l0.158,0.075
			l0.199,0.087l0.156,0.094l0.074,0.115l0.062,0.123v0.108l-0.021,0.096l-0.064,0.118l-0.068,0.105L24.702,37.385"/>
	</g>
</g>
<g id="Layer_1">
</g>
</svg>
