<?xml version="1.0" encoding="iso-8859-1"?>
<!-- Generator: Adobe Illustrator 16.0.4, SVG Export Plug-In . SVG Version: 6.00 Build 0)  -->
<!DOCTYPE svg PUBLIC "-//W3C//DTD SVG 1.1//EN" "http://www.w3.org/Graphics/SVG/1.1/DTD/svg11.dtd">
<svg version="1.1" xmlns="http://www.w3.org/2000/svg" xmlns:xlink="http://www.w3.org/1999/xlink" x="0px" y="0px"
	 width="52.987px" height="42.025px" viewBox="0 0 52.987 42.025" style="enable-background:new 0 0 52.987 42.025;"
	 xml:space="preserve">
<g id="Layer_180">
	<g id="Layer_185">
		<path id="DISTRICT_x3D_Attock_x2C_PROVINCE_x3D_Punjab" style="fill:#CCCCCC;stroke:#FFFFFF;stroke-width:1.07;" d="M1.216,39.894
			L1.216,39.894l0.051,0.146l-0.049,0.174L1.07,40.39l-0.086,0.102l-0.007,0.125l0.042,0.06l0.228,0.009l0.311-0.035l0.169,0.036
			l0.199,0.104l0.176,0.104l0.217,0.201l0.138,0.168l0.14,0.16l0.099,0.062l0.16,0.006l0.32-0.034l0.096-0.016l0.377-0.061
			l0.47-0.047l0.37-0.08l0.206-0.031l0.149-0.021l0.13-0.062l0.358-0.291l0.227-0.153l0.246-0.124l0.422-0.174l0.373-0.146
			l0.396-0.127l0.428-0.119l0.311-0.043l0.689-0.096l0.562-0.062l0.152-0.069l0.391-0.224l0.614-0.348l0.287-0.218l0.54-0.447
			l0.411-0.385l0.294-0.323l0.129-0.134l0.152-0.089l0.188-0.079l0.161-0.013l0.123,0.035l0.067-0.006l0.105-0.054l0.083-0.044
			l0.115-0.014l0.125,0.006l0.441,0.048l0.226,0.058l0.158,0.006l0.094-0.023l0.292-0.111l0.115-0.033l0.222-0.058l0.436-0.2
			l0.45,0.086l0.311,0.036l0.336,0.015l0.128-0.008l0.088-0.006l0.102,0.008l0.091,0.021l0.126,0.033l0.081,0.027l0.125,0.069
			l0.158,0.114l0.09,0.061l0.058,0.024l0.146,0.04l0.287,0.07l0.129,0.017l0.156-0.011l0.167-0.012l0.232-0.022l0.28-0.003
			l0.245-0.004l0.202,0.003l0.147,0.007l0.1,0.018l0.163,0.055l0.366,0.134l0.155,0.04l0.096,0.006l0.106-0.007l0.107-0.007
			l0.114-0.028l0.076-0.03l0.073-0.058l0.062-0.066l0.04-0.094l0.075-0.097l0.099-0.108l0.161-0.205l0.192-0.202l0.146-0.139
			l0.063-0.104l0.028-0.119l0.004-0.161l-0.017-0.181l-0.032-0.342l-0.002-0.223l0.013-0.08l0.019-0.059l0.032-0.027l0.049-0.008
			l0.061,0.009l0.073,0.041l0.296,0.162l0.252,0.178l0.115,0.071l0.062,0.025l0.101,0.025l0.082,0.027l0.093,0.039l0.095,0.064
			l0.073,0.053l0.118,0.117l0.107,0.092l0.084,0.057l0.111,0.029l0.129,0.017l0.178,0.01l0.212,0.002l0.438-0.008l0.171-0.015
			l0.121-0.021l0.09-0.031l0.057-0.023l0.087-0.072l0.061-0.049l0.041-0.032l0.067-0.008l0.062,0.012l0.062,0.019l0.289,0.146
			l0.111,0.034l0.105,0.025l0.107,0.052l0.114,0.059l0.125,0.025l0.133,0.003l0.177-0.008l0.143-0.019l0.101-0.022l0.142-0.06
			l0.104-0.056l0.163-0.044l0.16-0.027l0.2-0.014l0.166-0.011l0.136-0.025l0.114-0.032l0.104-0.032l0.075-0.03l0.109-0.081
			l0.157-0.118l0.13-0.083l0.112-0.057l0.115-0.032l0.116-0.024l0.082-0.01l0.117-0.008l0.157,0.002l0.119,0.013l0.174,0.017
			l0.181,0.026l0.079,0.017l0.186,0.021l0.263,0.021l0.213,0.027l0.202,0.012l0.198,0.013l0.09,0.011l0.211-0.005l0.288-0.019
			l0.198-0.033l0.104-0.032l0.14-0.05l0.157-0.047l0.222-0.053l0.17-0.026l0.162-0.011l0.109-0.008l0.296,0.014l0.213-0.002
			l0.243-0.023l0.185-0.037l0.211-0.055l0.146-0.059l0.163-0.103l0.124-0.095l0.123-0.111l0.052-0.078l0.103-0.176l0.077-0.178
			l0.045-0.139l0.082-0.283l0.024-0.101l0.042-0.081l0.073-0.107l0.135-0.199l0.093-0.122l0.086-0.088l0.097-0.072l0.101-0.089
			l0.391-0.346l0.127-0.123l0.149-0.131l0.112-0.08l0.098-0.049l0.091-0.02l0.131,0.006l0.104,0.018l0.143,0.049L36.389,33
			l0.08,0.021l0.094,0.006l0.065,0.012l0.111,0.048l0.095,0.063l0.104,0.104l0.127,0.178l0.11,0.133l0.177,0.212l0.086,0.081
			l0.084,0.057l0.108,0.059l0.146,0.062l0.094,0.048l0.08,0.016l0.078-0.004l0.105-0.027l0.098-0.014l0.126-0.018l0.139,0.004
			l0.079,0.026l0.131,0.024l0.187-0.008l0.102-0.009h0.073l0.054,0.013l-0.023-0.252l-0.018-0.217l0.398-0.508l0.051-0.128
			l0.027-0.331l0.104-0.299l0.075-0.182l0.093-0.111l0.043-0.057l0.025-0.051l0.017-0.02l0.001-0.014v-0.014l0.003-0.01l0.002-0.01
			l0.003-0.008l0.003-0.009l0.005-0.009l0.005-0.008l0.007-0.01l0.007-0.01l0.008-0.01l0.009-0.012l0.01-0.014l0.01-0.014
			l0.012-0.015l0.013-0.017l0.012-0.017l0.014-0.019l0.015-0.018l0.014-0.018l0.016-0.019l0.016-0.018l0.016-0.019l0.018-0.018
			l0.016-0.018l0.016-0.017l0.017-0.016l0.016-0.017l0.015-0.016l0.016-0.016l0.014-0.014l0.014-0.014l0.013-0.014l0.012-0.012
			l0.012-0.014l0.013-0.014l0.01-0.012l0.011-0.012l0.009-0.012l0.01-0.012l0.008-0.012l0.008-0.012l0.007-0.012l0.006-0.012
			l0.006-0.012l0.007-0.012l0.004-0.012l0.004-0.014l0.004-0.013l0.003-0.013l0.003-0.014l0.002-0.013l0.002-0.013l0.002-0.014
			l0.001-0.015l0.001-0.015l0.001-0.014l0.001-0.014l0.001-0.014l0.001-0.014l0.001-0.014l0.002-0.014l0.001-0.012l0.003-0.012
			l0.002-0.011l0.002-0.011l0.002-0.01l0.002-0.01l0.003-0.008l0.002-0.007l0.003-0.007l0.002-0.006l0.004-0.006l0.003-0.004
			l0.003-0.004l0.004-0.003l0.005-0.004l0.006-0.003l0.005-0.003l0.006-0.003l0.007-0.004l0.008-0.002l0.008-0.002l0.011-0.002
			l0.01-0.002h0.011l0.013-0.002l0.013-0.002h0.014l0.014-0.002l0.015-0.003l0.015-0.003l0.015-0.003l0.015-0.003l0.014-0.004
			l0.013-0.004l0.014-0.006l0.013-0.004l0.013-0.006l0.013-0.004l0.011-0.006l0.011-0.004l0.01-0.005l0.012-0.004l0.009-0.004
			l0.009-0.005l0.009-0.004l0.009-0.004l0.008-0.004l0.009-0.004l0.008-0.005l0.007-0.004l0.007-0.004l0.008-0.004l0.007-0.003
			l0.007-0.003l0.006-0.003l0.005-0.002l0.005-0.002h0.006l0.006-0.002h0.005h0.005h0.005h0.005h0.005h0.006h0.007l0.006,0.002
			l0.007,0.002l0.007,0.002l0.009,0.003l0.011,0.003l0.01,0.005l0.011,0.005l0.012,0.006l0.013,0.006l0.013,0.008l0.013,0.006
			l0.015,0.008l0.014,0.007l0.012,0.007l0.015,0.008l0.012,0.006l0.013,0.008l0.011,0.007l0.012,0.006l0.011,0.006l0.009,0.005
			l0.009,0.004l0.007,0.004l0.008,0.004l0.005,0.004l0.006,0.002l0.005,0.002l0.005,0.002l0.004,0.002l0.005,0.001l0.004,0.001
			l0.005,0.001h0.005h0.006h0.006h0.007l0.009-0.001l0.01-0.001l0.011-0.001l0.011-0.001l0.013-0.002l0.014-0.001l0.012-0.002
			l0.014-0.002l0.015-0.002l0.014-0.002l0.014-0.002l0.014-0.002l0.013-0.004l0.014-0.002l0.014-0.002l0.013-0.003l0.013-0.002
			l0.014-0.002l0.012-0.002l0.012-0.002l0.011-0.003l0.011-0.002l0.01-0.002l0.009-0.002l0.008-0.002l0.006-0.004l0.007-0.002
			l0.004-0.002l0.004-0.004l0.003-0.002l0.003-0.006l0.002-0.005l0.002-0.006l0.001-0.007l0.002-0.008l0.002-0.008l0.001-0.01
			l0.002-0.009l0.001-0.01l0.003-0.021l0.001-0.01l0.002-0.01l0.002-0.01l0.002-0.01l0.002-0.01l0.002-0.01l0.001-0.01l0.002-0.01
			l0.002-0.009l0.001-0.01l0.002-0.01l0.002-0.011l0.001-0.01l0.001-0.01l0.001-0.011l0.001-0.011v-0.012l-0.001-0.013l-0.001-0.013
			l-0.001-0.012l-0.001-0.012l-0.002-0.011l-0.002-0.011l-0.002-0.01l-0.002-0.01l-0.002-0.009l-0.003-0.008l-0.003-0.009
			l-0.005-0.008l-0.005-0.008l-0.006-0.008l-0.007-0.008l-0.009-0.01l-0.009-0.008l-0.012-0.012l-0.012-0.011l-0.013-0.013
			l-0.016-0.012l-0.015-0.014l-0.017-0.016l-0.018-0.016l-0.018-0.017l-0.02-0.017l-0.019-0.019l-0.02-0.019l-0.019-0.017
			l-0.019-0.017l-0.017-0.016l-0.015-0.017l-0.016-0.015l-0.013-0.015l-0.013-0.013l-0.012-0.012l-0.011-0.012l-0.009-0.01
			l-0.008-0.009l-0.008-0.009l-0.007-0.008l-0.006-0.008l-0.006-0.006l-0.004-0.006l-0.004-0.006l-0.004-0.006l-0.002-0.006
			l-0.002-0.006l-0.002-0.006l-0.002-0.006l-0.001-0.007l-0.001-0.007L41.157,30.1v-0.008v-0.008l0.002-0.009v-0.01l0.001-0.011
			l0.001-0.01v-0.012v-0.011l0.001-0.013l-0.001-0.012v-0.012l-0.001-0.014l-0.003-0.012l-0.001-0.015l-0.002-0.013l-0.002-0.014
			l-0.002-0.013l-0.003-0.013l-0.002-0.012l-0.003-0.013l-0.002-0.012l-0.002-0.011l-0.002-0.012l-0.002-0.011l-0.002-0.011
			l-0.001-0.01l-0.001-0.01v-0.01v-0.009v-0.009l0.002-0.01l0.002-0.008l0.002-0.01l0.004-0.009l0.006-0.009l0.005-0.01l0.006-0.01
			l0.009-0.01l0.007-0.01l0.009-0.01l0.009-0.011l0.009-0.009l0.011-0.009l0.01-0.011l0.01-0.008l0.011-0.01l0.013-0.009
			l0.013-0.009l0.013-0.01l0.015-0.008l0.016-0.01l0.016-0.009l0.017-0.009l0.017-0.01l0.017-0.009l0.016-0.009l0.015-0.009
			l0.015-0.009l0.013-0.01l0.011-0.01l0.011-0.009l0.01-0.011l0.009-0.008l0.008-0.011l0.007-0.009l0.007-0.009l0.006-0.009
			l0.006-0.01l0.006-0.009l0.004-0.009l0.005-0.01l0.004-0.01l0.004-0.009l0.003-0.01l0.003-0.011l0.003-0.01l0.002-0.012
			l0.004-0.011l0.002-0.011l0.002-0.012l0.003-0.011l0.002-0.01l0.003-0.011l0.002-0.008l0.004-0.01l0.003-0.009l0.004-0.009
			l0.004-0.01l0.006-0.01l0.007-0.011l0.006-0.011l0.008-0.012l0.008-0.014l0.008-0.014l0.011-0.014l0.01-0.017l0.009-0.016
			l0.01-0.017l0.011-0.019l0.011-0.019l0.01-0.019l0.01-0.021l0.011-0.02l0.01-0.02l0.01-0.021l0.008-0.021l0.009-0.021l0.009-0.021
			l0.008-0.02l0.007-0.02l0.007-0.018l0.006-0.018l0.006-0.018l0.007-0.016l0.005-0.016l0.005-0.012l0.005-0.014l0.004-0.011
			l0.004-0.013l0.005-0.011l0.004-0.011l0.004-0.012l0.005-0.01l0.005-0.012l0.004-0.011l0.004-0.011l0.004-0.01l0.005-0.011
			l0.004-0.01l0.005-0.009l0.004-0.01l0.006-0.009l0.005-0.009l0.006-0.008l0.006-0.008l0.008-0.008l0.008-0.008l0.01-0.01
			l0.01-0.009l0.012-0.011l0.013-0.01l0.014-0.012l0.014-0.011l0.015-0.011l0.015-0.012l0.016-0.012l0.017-0.011l0.016-0.011
			l0.016-0.013l0.017-0.011l0.016-0.012l0.016-0.012l0.017-0.013l0.015-0.012l0.016-0.013l0.014-0.013l0.015-0.013l0.014-0.012
			l0.012-0.014l0.012-0.011l0.011-0.011l0.01-0.01l0.009-0.01l0.007-0.009l0.008-0.008l0.005-0.009l0.005-0.008l0.006-0.006
			l0.003-0.008l0.004-0.007l0.002-0.007l0.002-0.008l0.002-0.008l0.001-0.006l0.001-0.009v-0.008v-0.009l-0.001-0.01l-0.001-0.008
			l-0.002-0.01l-0.002-0.011l-0.002-0.011l-0.002-0.01l-0.002-0.011l-0.003-0.01l-0.002-0.011l-0.002-0.012l-0.002-0.01l-0.002-0.01
			l-0.001-0.01l-0.001-0.01l-0.001-0.009v-0.009l-0.001-0.01v-0.008l0.001-0.008V27.95l0.001-0.008l0.002-0.008l0.003-0.009
			l0.003-0.008l0.004-0.009l0.006-0.009l0.005-0.01l0.007-0.01l0.007-0.011l0.009-0.011l0.01-0.012l0.011-0.012l0.012-0.013
			l0.013-0.013l0.015-0.014l0.015-0.013l0.014-0.013l0.016-0.014l0.014-0.012l0.013-0.012l0.014-0.011l0.01-0.011l0.01-0.01
			l0.009-0.009l0.008-0.008l0.007-0.007l0.006-0.008l0.005-0.006l0.005-0.006l0.004-0.005l0.005-0.005l0.004-0.005l0.005-0.005
			l0.004-0.006l0.005-0.004l0.006-0.006l0.006-0.006l0.007-0.006l0.009-0.006l0.01-0.006l0.01-0.006l0.011-0.008l0.013-0.006
			l0.011-0.008l0.013-0.008l0.013-0.008l0.014-0.008l0.013-0.008l0.013-0.009l0.014-0.008l0.013-0.008l0.012-0.009l0.012-0.006
			l0.012-0.008l0.01-0.007l0.009-0.007l0.008-0.006l0.008-0.006l0.007-0.006l0.005-0.006l0.005-0.007l0.003-0.005l0.003-0.006
			l0.001-0.005l0.001-0.005l0.001-0.006v-0.004l-0.001-0.006v-0.005l-0.001-0.004v-0.005l-0.001-0.005l-0.001-0.005l-0.001-0.006
			l-0.001-0.006l-0.002-0.008l-0.001-0.008l-0.002-0.008l-0.002-0.01l-0.002-0.01l-0.002-0.01l-0.002-0.01l-0.002-0.01l-0.002-0.01
			l-0.002-0.008l-0.001-0.008l-0.001-0.007v-0.006v-0.006v-0.007l0.002-0.006l0.002-0.008l0.003-0.007l0.002-0.008l0.004-0.011
			l0.005-0.01l0.005-0.012l0.006-0.014l0.006-0.016l0.008-0.017l0.01-0.019l0.01-0.021l0.01-0.023l0.011-0.022l0.013-0.024
			l0.011-0.025l0.021-0.049l0.012-0.022l0.009-0.021l0.009-0.021l0.008-0.019l0.009-0.019l0.009-0.017l0.008-0.016l0.009-0.018
			l0.01-0.018l0.01-0.017l0.011-0.017l0.011-0.018l0.012-0.017l0.014-0.019l0.012-0.017l0.013-0.017l0.013-0.016l0.013-0.017
			l0.013-0.017l0.014-0.015l0.013-0.015l0.013-0.014l0.012-0.014l0.013-0.013l0.012-0.013l0.01-0.012l0.011-0.011l0.011-0.011
			l0.011-0.01l0.01-0.01l0.01-0.01l0.011-0.008l0.01-0.008l0.011-0.008l0.012-0.008l0.012-0.008l0.01-0.007l0.012-0.007l0.012-0.006
			l0.012-0.006l0.011-0.006l0.011-0.007l0.013-0.006l0.011-0.007l0.012-0.007l0.013-0.007l0.014-0.008l0.015-0.008l0.017-0.008
			l0.017-0.009l0.018-0.009l0.021-0.01l0.02-0.011l0.021-0.01l0.021-0.011l0.021-0.01l0.021-0.011l0.022-0.01l0.021-0.009
			l0.021-0.01l0.021-0.01l0.021-0.008l0.021-0.008l0.02-0.007l0.019-0.007l0.017-0.006l0.016-0.006l0.015-0.006l0.015-0.005
			l0.013-0.005l0.012-0.004l0.014-0.004l0.012-0.004l0.012-0.004l0.011-0.004l0.013-0.004l0.012-0.002l0.011-0.004l0.012-0.003
			l0.011-0.002l0.01-0.002L44,26.147l0.009-0.002l0.011-0.001l0.01-0.002l0.009-0.001l0.01-0.001h0.011l0.01-0.001h0.011h0.011
			h0.012h0.011h0.012h0.012l0.032-0.021l0.019-0.035l0.042-0.092l0.073-0.125l0.104-0.31l0.051,0.022l0.127,0.202l0.126,0.107
			l0.191,0.001l0.205-0.096l-0.075-0.235l-0.075-0.353l0.027-0.246l0.181-0.36l0.002-0.226l-0.062-0.267l0.063-0.183l0.104-0.127
			l0.256-0.106l0.281-0.052l0.243-0.063l0.166-0.127l0.218-0.042l0.179-0.074l0.154-0.117l0.18-0.074l0.291-0.042l0.242,0.055
			l0.141-0.011l0.23-0.074l0.652-0.275l0.537-0.18l0.27,0.012l0.408,0.108l0.269-0.063l0.356-0.051l0.032-0.017l0.015-0.011
			l0.018-0.012l0.011-0.012l0.128-0.07l0.085-0.035l0.163-0.08l0.115-0.045l0.134-0.049l0.199-0.076l0.073-0.032l0.086-0.026
			l0.062-0.009l0.036-0.009l0.052-0.012l0.014-0.002l-0.021-0.014L51.509,22.1l-0.039-0.012l-0.026-0.006h-0.036l-0.029,0.006
			l-0.03,0.013l-0.02,0.012l-0.012,0.004H51.31l-0.012-0.01l-0.006-0.006l0.007-0.017l0.009-0.014l0.007-0.008v-0.004l-0.004-0.006
			l-0.009-0.004l-0.022-0.006l-0.014-0.004l-0.016-0.006l-0.005-0.005l-0.002-0.006l0.009-0.019l0.007-0.015l0.011-0.01v-0.001
			l-0.002-0.004l-0.013-0.014l-0.021-0.013l-0.009-0.013l-0.013-0.016l-0.003-0.011l-0.008-0.013l-0.005-0.011l-0.004-0.009
			l-0.022-0.018l-0.014-0.007l-0.009-0.011l-0.004-0.015l0.006-0.027l0.003-0.013l-0.003-0.01l-0.014-0.016l-0.018-0.007
			l-0.013-0.006l-0.015-0.003l-0.006-0.001l-0.006-0.001l-0.014,0.002l-0.007,0.002h-0.006l-0.009,0.004l-0.009,0.002l-0.006,0.003
			l-0.017,0.006l-0.01,0.003h-0.012l-0.013-0.003l-0.031-0.014l-0.005-0.012l-0.018-0.013l-0.016-0.005l-0.016-0.008l-0.014-0.011
			l-0.004-0.024l0.019-0.028l0.004-0.009l-0.004-0.008l-0.001-0.006l-0.005-0.011l-0.02-0.016l-0.006-0.018l-0.007-0.028
			l-0.012-0.031l-0.018-0.029l-0.005-0.044l0.012-0.049l-0.002-0.052l-0.008-0.045l-0.01-0.02l-0.021-0.021l-0.019-0.009
			l-0.02-0.018L50.743,21.2l-0.021-0.031l-0.023-0.038l-0.012-0.014l-0.021-0.013l-0.034-0.008l-0.021-0.004l-0.015-0.007
			l-0.013-0.011l-0.005-0.013l-0.007-0.022l-0.009-0.032l-0.013-0.033l-0.005-0.027l-0.016-0.019l-0.015-0.032l-0.005-0.022v-0.015
			l-0.009-0.012l-0.018-0.009l-0.026-0.001l-0.02,0.001l-0.039,0.01l-0.037,0.012l-0.04-0.005l-0.019-0.011l-0.009-0.013
			l-0.002-0.026v-0.018l-0.012-0.008l-0.013,0.001l-0.019,0.002l-0.011,0.002L50.2,20.787l-0.021-0.007l-0.012-0.019l-0.008-0.008
			l-0.018-0.009l-0.021-0.002l-0.022,0.002l-0.019-0.002l-0.017-0.016V20.71l0.001-0.018l-0.005-0.016l-0.088-0.026l-0.01-0.011
			l-0.018-0.005l-0.01-0.002l-0.016,0.005l-0.01,0.004l-0.011,0.003l-0.014,0.002l-0.018,0.001l-0.03-0.013l-0.012-0.013
			l-0.015-0.008l-0.021-0.007l-0.023-0.002l-0.016-0.006l-0.024-0.014l-0.021-0.031l-0.006-0.016l-0.012-0.015l-0.032-0.021
			l-0.024-0.017l-0.024-0.003l-0.029-0.006l-0.025-0.002l-0.025,0.001l-0.052,0.017l-0.022,0.006l-0.016,0.006l-0.019,0.005h-0.01
			l-0.007-0.002l-0.011-0.013l-0.005-0.016l-0.002-0.016l-0.007-0.02l-0.002-0.01l-0.008-0.005l-0.01-0.003h-0.019h-0.014
			l-0.021,0.002l-0.018,0.001h-0.016l-0.039,0.004l-0.034-0.001l-0.046,0.006l-0.015,0.002l-0.015-0.004l-0.013-0.005l-0.019-0.009
			l-0.008-0.007l-0.035-0.009l-0.027-0.004l-0.015-0.005l-0.017-0.007l-0.009-0.013l-0.017-0.014l-0.021-0.003l-0.025,0.007
			l-0.022,0.018l-0.03,0.012h-0.026l-0.029-0.007l-0.032-0.007l-0.025-0.01l-0.02-0.021l-0.027-0.008l-0.048-0.01l-0.033-0.018
			l-0.031-0.014l-0.014-0.018l-0.017-0.019l-0.017-0.003h-0.01l-0.009,0.002l-0.011,0.006L48.5,20.278l-0.012,0.004h-0.018
			l-0.011-0.004l-0.017-0.008l-0.007-0.01l-0.005-0.012l-0.006-0.008l-0.007-0.007l-0.023-0.007l-0.021-0.003l-0.012-0.013
			l-0.006-0.016l0.001-0.022l0.034-0.035l0.024-0.04l0.021-0.024l0.028-0.023l0.019-0.04v-0.039l0.008-0.036l0.01-0.035l0.002-0.035
			l0.001-0.041l-0.017-0.046l-0.029-0.019l-0.035-0.019l-0.004-0.047l0.01-0.04l0.016-0.038l0.003-0.029l-0.027-0.022l-0.031-0.021
			l-0.006-0.017l-0.008-0.016l-0.003-0.012l-0.015-0.014l-0.028-0.006l-0.021-0.004l-0.022-0.009l-0.029-0.016l-0.013-0.015
			l-0.019-0.025l-0.014-0.016l-0.022-0.004l-0.007-0.004l-0.002-0.011l-0.006-0.013l-0.008-0.013l-0.012-0.001l-0.01-0.002
			l-0.018-0.009l-0.005-0.015l-0.012-0.03l-0.013-0.039l-0.02-0.026l-0.016-0.022l-0.022-0.014l-0.014-0.012l-0.016-0.02
			l-0.009-0.022l-0.009-0.026v-0.025l-0.004-0.022l-0.01-0.012l-0.035,0.005l-0.078,0.016l-0.037,0.01l-0.029,0.006l-0.021,0.006
			h-0.017l-0.016-0.012l-0.028-0.038l-0.021-0.032l-0.025-0.028l-0.012-0.008l-0.013-0.014h-0.021l-0.017,0.001l-0.022,0.006h-0.02
			l-0.034-0.005l-0.022-0.011l-0.019-0.006l-0.024-0.006l-0.05-0.003l-0.04,0.002l-0.048,0.012l-0.048,0.023l-0.031,0.006
			l-0.028,0.003l-0.039-0.004l-0.022-0.009l-0.028-0.02L47.11,18.92l-0.026-0.032l-0.017-0.037l-0.018-0.013l-0.019-0.011
			l-0.019-0.003l-0.021-0.001l-0.016-0.005l-0.027-0.005l-0.021-0.001l-0.014,0.004l-0.019,0.016l-0.02-0.002l-0.02-0.009
			l-0.021-0.025l-0.017-0.015l-0.011-0.019l-0.007-0.016l0.001-0.016l0.014-0.021l0.031-0.028l0.015-0.029l0.013-0.022l0.004-0.012
			l0.002-0.012l0.008-0.014l0.013-0.03l0.019-0.037l0.021-0.04l0.026-0.042l0.032-0.033l0.019-0.024l0.002-0.013l0.001-0.017
			l-0.007-0.019l-0.002-0.013V18.28l0.007-0.021l0.001-0.02l-0.001-0.02l-0.007-0.015l-0.011-0.022l-0.015-0.03l-0.044-0.045
			l-0.043-0.043l-0.018-0.025l-0.005-0.027l-0.01-0.021l-0.006-0.009l0.004-0.011l0.006-0.004l0.031-0.006l0.023-0.01l0.023-0.018
			l0.009-0.014l0.005-0.016l0.003-0.021l0.004-0.018l0.008-0.016l0.011-0.013l0.02-0.028l0.006-0.016l0.021-0.042l0.016-0.035
			l0.021-0.033l0.016-0.021l0.01-0.017l0.001-0.014l-0.007-0.013l-0.004-0.011l-0.025-0.022l-0.013-0.014l0.001-0.012l0.007-0.015
			l0.021-0.065l0.004-0.02v-0.02l-0.004-0.014l-0.005-0.012L47.065,17.4l-0.022-0.018l-0.04-0.028l-0.022-0.011l-0.055-0.023
			l-0.03-0.014l-0.024-0.009l-0.018-0.016l-0.004-0.014l-0.001-0.012v-0.016l-0.002-0.015l-0.004-0.017l-0.012-0.016l-0.017-0.016
			l-0.024-0.014l-0.023-0.008l-0.034,0.002l-0.021-0.002l-0.023-0.005l-0.043,0.003l-0.024-0.002l-0.033-0.01l-0.03-0.004
			l-0.041-0.002l-0.028,0.005l-0.008-0.002l0.005-0.012l0.02-0.016l0.045-0.049l0.007-0.025l0.006-0.03l0.002-0.03l-0.001-0.032
			l-0.007-0.019l-0.015-0.034l-0.037-0.042l-0.073-0.071l-0.061-0.038l-0.039-0.022l-0.03-0.006l-0.023-0.01l-0.012-0.01
			l-0.013-0.013l-0.007-0.013l-0.004-0.012l-0.008-0.01l-0.021-0.007l-0.019-0.003l-0.018-0.004l-0.014-0.007l-0.014-0.015
			l-0.015-0.02l-0.016-0.011l-0.021-0.008h-0.014h-0.01l-0.001-0.007l0.004-0.015l0.001-0.038v-0.03l-0.005-0.023l-0.007-0.019
			l-0.012-0.02l0.007-0.016l0.01-0.01l0.018-0.005l0.04-0.034l0.03-0.013l0.124-0.093l0.035-0.026l0.023-0.013l0.014-0.006
			l0.019-0.004l0.021-0.003l0.026-0.001h0.029l0.034-0.007l0.034-0.013l0.037-0.025l0.046-0.031l0.047-0.028l0.018-0.025
			l0.012-0.015l0.009-0.006v-0.008l-0.001-0.005l-0.002-0.008l-0.002-0.012v-0.014l0.005-0.012l0.012-0.009l0.021-0.006l0.025-0.004
			l0.021-0.006l0.008-0.006v-0.008l-0.005-0.006l-0.009-0.006l-0.021-0.005l-0.033-0.005l-0.048-0.003l-0.033-0.002l-0.035-0.007
			l-0.023-0.008l-0.019-0.011l-0.011-0.01l-0.006-0.014l0.001-0.014l0.004-0.021l0.018-0.01l0.04-0.024l0.019-0.021l0.014-0.024
			l0.003-0.012v-0.012l-0.004-0.008l-0.008-0.012l-0.01-0.009l-0.021-0.014l-0.016-0.012l-0.023-0.006l-0.02-0.002l-0.021-0.004
			l-0.026,0.002h-0.02l-0.016,0.009l-0.025,0.021l-0.02,0.015l-0.027,0.021l-0.048,0.034l-0.047,0.019l-0.055,0.028l-0.042,0.021
			l-0.042,0.022l-0.022,0.012l-0.037,0.01l-0.256-0.001l-0.396,0.012l-0.357-0.002l-0.409,0.029l-0.279-0.034l-0.097-0.006
			l-0.136,0.038l-0.136,0.038h-0.061l-0.105-0.005l-0.082-0.024l0.008-0.054l0.021-0.078l0.065-0.346l-0.014-0.134l-0.047-0.14
			l0.007-0.101l0.014-0.083l0.039-0.067l0.007-0.106l0.015-0.095l-0.021-0.056l-0.026-0.078l-0.007-0.056l-0.033-0.056l-0.039-0.033
			l-0.034-0.05l-0.12-0.184l-0.054-0.056l-0.026-0.017l-0.04,0.006l-0.047,0.006l-0.066,0.017l-0.054-0.005l-0.02-0.033v-0.028
			l0.007-0.056v-0.05v-0.05l-0.034-0.123l-0.021-0.106l0.046-0.028l0.107-0.012l0.153-0.022l0.112-0.028h0.034l0.014-0.011
			l0.013-0.011l0.181-0.006h0.123l0.099-0.114l0.06-0.052l0.033-0.046l0.026-0.16l-0.073-0.203l-0.063-0.054l0.003-0.17L44.08,12.62
			l-0.101-0.118l-0.204-0.033l-0.312,0.264l-0.166,0.01l0.028-0.139l-0.085-0.459l-0.034-0.363l-0.021-0.224l-0.113-0.161
			l-0.33-0.172l-0.025,0.042l0.022,0.182l0.048,0.235l-0.013,0.064l-0.128,0.042l-0.384-0.045L41.905,11.7l-0.216-0.119
			l-0.023-0.192l0.258-0.062l0.141-0.061l-0.049-0.171l-0.188-0.375l-0.036-0.128l0.027-0.192l0.18-0.127l0.144-0.105l-0.013-0.128
			l-0.088-0.107l-0.189-0.119l-0.037-0.16l-0.023-0.182L41.68,9.269l-0.254-0.236l-0.05-0.15l-0.037-0.192l0.005-0.256l0.104-0.18
			l0.205-0.052l0.167-0.021l0.191,0.076h0.14l0.231-0.02l0.09-0.042l0.562,0.015l0.242,0.001l0.282-0.083l-0.075-0.107L43.191,7.87
			l-0.165-0.128l-0.101-0.161l0.235-0.507l0.079-0.267l0.168-0.138l0.194-0.158l0.219-0.095L44,6.428l0.27,0.087l0.178,0.097
			l0.305,0.183l0.188,0.279l0.293,0.173l0.102,0.086l0.242,0.012L45.719,7.4l0.149,0.225l0.148,0.439l0.061,0.213l0.089,0.086
			l0.146,0.136l0.104,0.008l0.055,0.042l0.035,0.041l0.006,0.079l-0.006,0.078l0.022,0.104l-0.005,0.087l0.022,0.08l0.063,0.05
			l0.099,0.022l0.029-0.018l0.021-0.019l0.032-0.026l0.036-0.024l0.02-0.012l0.029-0.029l0.021-0.024l-0.003-0.016l-0.01-0.021
			L46.87,8.878l-0.005-0.035l0.006-0.041l0.008-0.045l-0.017-0.051L46.84,8.649l-0.019-0.04l-0.025-0.042L46.75,8.52l-0.032-0.03
			l-0.017-0.025l-0.029-0.028l-0.044-0.024l-0.022-0.04l-0.011-0.024l0.004-0.018l0.003-0.016l0.008-0.012l0.011-0.008l0.046-0.026
			l0.021-0.02L46.7,8.234l0.002-0.019l-0.008-0.031l0.001-0.033l0.001-0.011L46.7,8.128l0.023-0.021l0.024-0.017l0.005-0.02
			l0.004-0.016l0.036-0.029l0.02-0.017l0.042-0.017l0.035-0.018l0.021-0.025l0.031-0.034l0.032-0.01l0.046,0.011l0.013,0.027
			l0.033,0.017l-0.051-0.13l-0.037-0.142l-0.074-0.113l-0.02-0.295l0.123-0.006l0.169-0.022l0.171-0.025l0.104,0.121l0.007,0.127
			l0.138-0.086l0.044-0.139l-0.036-0.275l-0.083-0.073l-0.071-0.216l-0.007-0.112l-0.001-0.119l0.011-0.226l0.019-0.12l0.023-0.093
			l0.047-0.167l-0.02-0.104l-0.023-0.243l-0.992-0.06l-0.13,0.146l-0.113,0.015l-0.363-0.091L45.858,5.41l-0.076-0.086L45.71,5.242
			l-0.028-0.187l-0.143-0.052l-0.11-0.079l-0.116-0.05l-0.117-0.035l-0.295-0.5l0.27,0.013l0.119,0.005l0.173-0.026l0.112-0.069
			l0.11-0.126l0.009-0.16l-0.078-0.122l-0.053-0.192l-0.096-0.341l-0.061-0.084l-0.16-0.069l-0.132-0.112l-0.133-0.081l-0.146-0.059
			l-0.142-0.111L44.57,2.744l-0.139,0.199L44.33,3.042l-0.288,0.332l-0.127,0.069L43.807,3.42l-0.023,0.117l-0.232,0.15
			l-0.108,0.091l-0.086,0.084l-0.176,0.137l-0.117,0.082l-0.086,0.073l-0.035,0.135l0.068,0.078l0.111,0.043l0.16,0.07l0.119,0.062
			l0.066,0.077l-0.051,0.092l-0.145,0.005l-0.641,0.037l-0.105,0.024l-0.158-0.019l-0.173-0.022l-0.032,0.13l0.156,0.11
			l-0.049,0.211l0.067,0.12l0.034,0.118l-0.021,0.281l-0.087,0.075l-0.283,0.184L41.69,6.161l-0.238,0.011l-0.059,0.081
			l-0.346,0.102l-0.146,0.022l-0.172,0.072l-0.144,0.067l-0.19,0.041l-0.251-0.108l-0.482,0.289L39.63,6.55l-0.103-0.145
			l0.075-0.206l-0.188-0.111L39.23,5.795l-0.173,0.127l-0.28,0.099l-0.221-0.027l-0.121-0.01l-0.214,0.022l-0.146-0.083l-0.01-0.207
			l0.18-0.151l-0.085-0.241l0.355-0.223l0.112,0.012l0.301-0.259l0.148-0.198l-0.039-0.087l0.021-0.124l-0.07-0.114l0.108-0.03
			l0.103-0.018l0.483-0.124l0.098-0.055l0.109-0.081l0.136-0.096l0.015-0.145L40.01,3.678l-0.155-0.1l-0.271-0.142l-0.074-0.077
			l-0.07-0.097l-0.2-0.133l-0.08-0.03l-0.112-0.043l-0.087-0.034l-0.096-0.058l-0.15-0.022l-0.268-0.059l-0.333-0.108L37.97,2.749
			l-0.215,0.09l-0.181,0.04l-0.163-0.052l-0.074-0.07l-0.229-0.003l-0.194-0.093l-0.796-0.166l-0.211,0.17l-0.152-0.812l0.024-0.125
			l0.009-0.198l-0.092-0.261l0.004-0.177h0.027l-0.012-0.021l-0.003-0.049l0.019-0.083l0.002-0.052l-0.062,0.03l-0.069,0.034
			l-0.013,0.006l-0.072,0.052l-0.059,0.008l-0.05-0.024l-0.047-0.03l-0.048-0.021L35.15,0.85l-0.062-0.042l-0.052-0.023l-0.052-0.01
			l-0.062,0.008l-0.049,0.02l-0.042,0.028l-0.056,0.041l-0.034,0.036l-0.05,0.04l-0.066,0.006l-0.075-0.001l-0.062-0.009
			L34.361,0.94l-0.094-0.002h-0.085l-0.088-0.004l-0.07-0.008h-0.057l-0.094,0.006l-0.073-0.018l-0.062-0.035l-0.166-0.072
			l-0.331-0.053l-0.174,0.05l-0.095,0.021l-0.197,0.058l-0.24,0.046L32.2,1.022l-0.285,0.07h-0.004l-0.18,0.031l-0.188,0.045
			l-0.039-0.05l-0.024-0.05l-0.055-0.063l-0.078-0.114l-0.036-0.084l-0.064-0.019l-0.104-0.002l-0.095,0.008l-0.112,0.001
			l-0.06,0.004l-0.061-0.002l-0.082-0.003h-0.049l-0.035-0.011l-0.033-0.005l-0.072-0.02L30.495,0.74l-0.09-0.029L30.33,0.695
			l-0.104-0.024l-0.089-0.014l-0.062-0.021l-0.054-0.019L29.95,0.598l-0.074-0.022l-0.074-0.027l-0.069-0.005l-0.056,0.023
			l-0.06,0.036l-0.003,0.052l0.01,0.077l-0.006,0.053l0.002,0.023l0.027,0.09l0.002,0.057l0.003,0.084l-0.001,0.049v0.065
			L29.65,1.236l-0.003,0.091l-0.007,0.078l-0.009,0.086l-0.005,0.057l0.001,0.057l-0.007,0.068l-0.002,0.065l-0.047,0.061
			l-0.06,0.014l-0.091,0.022l-0.054,0.009l-0.057,0.017L29.237,1.88l-0.164,0.04l-0.061,0.012l-0.058,0.011L28.89,1.961
			l-0.059,0.013l-0.048,0.012L28.729,2l-0.011,0.002l-0.046,0.009l-0.045,0.018l-0.008,0.102l-0.003,0.062l-0.001,0.073l0.01,0.06
			l-0.004,0.116l-0.01,0.05l-0.136,0.094l-0.069,0.022l-0.083,0.023l-0.106,0.033l-0.091,0.035l-0.152,0.056L27.77,2.834
			l-0.134,0.048l-0.129,0.046l-0.215,0.087l-0.244,0.087L26.97,3.136l-0.181-0.042l-0.13-0.036l-0.117-0.023l-0.126-0.038
			L26.314,2.97l-0.047,0.011l-0.091,0.046l-0.156,0.107l-0.275,0.165l-0.164,0.12L25.329,3.54l-0.33,0.177l-0.176,0.098l-0.03,0.015
			l-0.19,0.096l-0.249,0.127l-0.318,0.175l-0.242,0.118l-0.3,0.137l-0.167,0.114L23.24,4.648L23.011,4.76l-0.144,0.074l-0.124,0.073
			l-0.055,0.018l-0.048,0.022l-0.034,0.032l-0.042,0.218l-0.05,0.108l-0.031,0.143l0.061,0.284l0.101,0.184l0.099,0.157l0.088,0.16
			l0.032,0.135l-0.021,0.167l-0.019,0.038l-0.038,0.193l-0.047,0.096l-0.041,0.163l0.037,0.201l0.052,0.216l0.011,0.394L22.78,7.981
			L22.763,8.13l-0.008,0.175l-0.011,0.183l-0.011,0.195l-0.022,0.206L22.7,9.022l-0.008,0.112l-0.015,0.098l-0.031,0.202
			l-0.006,0.067l-0.014,0.195l0.026,0.094l0.125,0.237l0.115,0.244l0.037,0.062l0.078,0.128l0.054,0.128l0.006,0.038l-0.006,0.04
			l-0.045,0.05l-0.2-0.018l-0.237-0.084l-0.287-0.151l-0.188-0.104l-0.273-0.123l-0.12-0.01l-0.09,0.014l-0.037,0.058l0.029,0.092
			l0.043,0.077l-0.014,0.065L21.49,10.57l-0.119,0.034l-0.093,0.012l-0.079,0.025l-0.287,0.064l-0.427-0.033l-0.112-0.052
			l-0.297-0.132l-0.349-0.066l-0.27-0.041l-0.366-0.05l-0.232-0.017l-0.052,0.002l-0.081-0.017l-0.517-0.122l-0.563-0.179
			l-0.392-0.125l-0.368-0.136l-0.415-0.092l-0.291,0.02l-0.208,0.09l-0.099,0.094l0.083,0.105l0.124,0.176l0.105,0.139l0.028,0.078
			l-0.028,0.111l-0.125,0.14l-0.174,0.105l-0.135,0.091l-0.5,0.087l-0.097,0.032l-0.091,0.047l-0.146,0.021l-0.217,0.037
			l-0.159,0.042l-0.073,0.03l-0.062,0.044l-0.035,0.055l0.018,0.018l-0.026,0.071l-0.027,0.119l0.003,0.07l0.005,0.097l-0.013,0.076
			l-0.029,0.078l-0.074,0.071l-0.108,0.125l-0.056,0.07l-0.052,0.104l-0.074,0.104l-0.081,0.109l-0.126,0.142l-0.108,0.11
			l-0.006,0.007l-0.057,0.043l-0.113,0.076l-0.053,0.031l-0.054,0.007l-0.062-0.071l-0.055,0.003l-0.048,0.035l-0.077,0.09
			l-0.092,0.173l-0.081,0.314l-0.077,0.314l-0.057,0.67l-0.09,0.029l-0.063,0.037l-0.072,0.045l-0.096,0.082l-0.05,0.074
			l-0.086,0.086l-0.098,0.095l-0.088,0.126l-0.039,0.153l0.012,0.138l0.006,0.092l0.016,0.117l0.071,0.165l0.059,0.113l0.027,0.086
			v0.134l-0.066,0.082l-0.146,0.152l-0.047,0.072l-0.001,0.106l-0.021,0.152l-0.01,0.115l0.03,0.146v0.117l-0.02,0.187l0.015,0.136
			l0.013,0.152l0.016,0.076l0.016,0.201l-0.02,0.17l-0.025,0.174l-0.041,0.131l-0.073,0.084l-0.066,0.074l-0.196,0.105l-0.202,0.045
			l-0.196,0.045l-0.14,0.074l-0.128,0.089l-0.094,0.16l0.082,0.237l0.045,0.121l0.068,0.116l0.045,0.167l0.07,0.097l0.05,0.046
			l0.072,0.069l0.054,0.051l0.062,0.17l0.054,0.145l0.026,0.19l-0.06,0.139l-0.091,0.128l-0.066,0.128l-0.08,0.129l-0.095,0.17
			l-0.088,0.127l-0.088,0.119l-0.068,0.079l-0.088,0.089l-0.097,0.105l-0.16,0.121l-0.098,0.065l-0.099,0.097l-0.041,0.04
			l-0.272,0.143l-0.111,0.125l-0.061,0.05l-0.076,0.05l-0.101,0.051l-0.116,0.034L9.47,22.088l-0.13,0.023l-0.124,0.037l-0.07,0.02
			l-0.085,0.023l-0.074,0.027l-0.032,0.133l-0.021,0.121L8.922,22.59l-0.075,0.118l-0.094,0.16l-0.174,0.2l-0.057,0.055l-0.08,0.055
			l-0.262,0.09l-0.234,0.063l-0.188,0.073l-0.096,0.054l-0.193,0.216l-0.044,0.114l-0.04,0.091l-0.022,0.108l-0.012,0.125
			l0.005,0.134l0.074,0.236l0.049,0.141l0.039,0.137l-0.006,0.196l-0.017,0.108l-0.131,0.197l-0.078,0.062l-0.1,0.074l-0.15,0.105
			L6.96,25.564l-0.139,0.041l-0.08,0.011l-0.16-0.028l-0.272-0.084l-0.17-0.092l-0.101-0.031l-0.11-0.01l-0.15,0.069l-0.19,0.09
			l-0.173,0.067l-0.191,0.067l-0.208,0.103l-0.188,0.115l-0.22,0.112L4.415,26.1l-0.158,0.076l-0.181,0.057l-0.178,0.064
			l-0.287,0.114l-0.118,0.058l-0.308,0.166L3.02,26.729l-0.041,0.021l-0.082,0.042l-0.199,0.103L2.519,26.98l-0.133,0.041
			L2.254,27.09L1.91,27.186l-0.122,0.126l-0.122,0.124l-0.111,0.107l-0.097,0.09L1.286,27.78l-0.031,0.104l-0.025,0.072
			l-0.064,0.094l-0.049,0.06l-0.05,0.099l-0.028,0.075l0.065,0.054l0.084,0.01l0.121-0.01l0.086,0.017l0.018,0.014l-0.006,0.003
			l0.02,0.006l0.089,0.062l0.048,0.055l0.065,0.184l0.049,0.141l0.018,0.076l-0.002,0.259v0.092l-0.054,0.242l-0.117,0.218
			l-0.081,0.12L1.358,29.94l-0.08,0.092l-0.092,0.041l-0.104,0.062l-0.12,0.091l-0.108,0.061l-0.096,0.06l-0.053,0.051l-0.062,0.138
			l0.012,0.112l0.017,0.091l0.02,0.108l0.043,0.098l0.037,0.18l0.033,0.203l0.021,0.152L0.8,31.608L0.783,31.76l0.058,0.123
			l0.082,0.096l0.005,0.074l0.038,0.069l0.043,0.074l0.11,0.151l0.11,0.111l0.125,0.111l0.122,0.102l0.133,0.099l0.105,0.073
			l0.117,0.1l0.133,0.095l0.11,0.115l0.082,0.062l0.066,0.063l0.118,0.106l0.104,0.097l0.061,0.05l0.084,0.084l0.044,0.078
			l0.048,0.08l0.038,0.093l0.029,0.109l0.047,0.125l0.065,0.122l0.034,0.111l0.037,0.123l0.032,0.105l0.015,0.101l-0.004,0.116
			l-0.008,0.1l-0.008,0.127L2.95,35.174l-0.022,0.113l-0.041,0.137L2.85,35.547l-0.038,0.142l-0.063,0.153l-0.084,0.135L2.62,36.049
			l-0.031,0.066l-0.075,0.111l-0.03,0.029l-0.021,0.047L2.42,36.381l-0.068,0.09l-0.182,0.15l-0.262,0.19l-0.184,0.128l-0.275,0.199
			L1.22,37.391l-0.213,0.322L0.91,38.118l0.024,0.363l0.013,0.12l0.019,0.115l0.02,0.199l0.029,0.25l0.006,0.077l0.027,0.147
			l0.049,0.183l0.056,0.177l0.03,0.092L1.216,39.894"/>
	</g>
</g>
<g id="Layer_1">
</g>
</svg>
