<?xml version="1.0" encoding="iso-8859-1"?>
<!-- Generator: Adobe Illustrator 16.0.4, SVG Export Plug-In . SVG Version: 6.00 Build 0)  -->
<!DOCTYPE svg PUBLIC "-//W3C//DTD SVG 1.1//EN" "http://www.w3.org/Graphics/SVG/1.1/DTD/svg11.dtd">
<svg version="1.1" xmlns="http://www.w3.org/2000/svg" xmlns:xlink="http://www.w3.org/1999/xlink" x="0px" y="0px"
	 width="227.91px" height="83.611px" viewBox="0 0 227.91 83.611" style="enable-background:new 0 0 227.91 83.611;"
	 xml:space="preserve">
<g id="Layer_165">
	<g id="Layer_170">
		<path id="DISTRICT_x3D_Chagai_x2C_PROVINCE_x3D_Balochistan" style="fill:#CCCCCC;stroke:#FFFFFF;stroke-width:1.07;" d="
			M81.506,83.15L81.506,83.15l1.042-0.612l1.1-0.682l0.993-0.729l0.879-1.008l0.724-0.861l1.248-1.252l1.726-1.306l1.252-1.156
			l1.204-0.918l0.89-0.724l1.468-1.062l0.945-0.679l0.838-0.675l0.74-0.296l0.906-0.016l0.373-0.007l0.422-0.241l0.411-0.716
			l0.206-0.382l0.042-0.565l0.195-0.9l0.415-0.571l0.61-0.512l0.423-0.242l0.32-0.006l0.858,0.223l1.927,0.254l1.334,0.026
			l1.223-0.255l1.223-0.302l1.753-0.449l1.759-0.166l2.507-0.129l2.244,0.11l1.817,0.119l1.386-0.112l2.183-0.451l1.328-0.438
			l0.579-0.526l0.089-0.374l0.012-0.053l0,0l0.264-0.191l0.295-0.152l0.175,0.694l0.05,0.446l0.078,0.541l0.016-0.01l0.213-0.137
			l0.953-0.857l0.899-0.742l0.716-0.58l0.607-0.416l0.74-0.323l0.422-0.045l0.422,0.097l0.633,0.002l0.607-0.16l0.24-0.278
			l0.344-0.229h0.264l0.105,0.094l0.156,0.258l0.209,0.117l0.105,0.023l0.186-0.139l0.293-0.465l0.771-0.694l0.239-0.326
			l0.291-0.138l0.449-0.044l0.715-0.205l0.531-0.464l0.689-0.51l0.584-0.485l0.186-0.093l0.502,0.005l0.528,0.003l0.503-0.184
			l0.502-0.066l0.369,0.05l0.448,0.097l0.416-0.059l0.717-0.438l0.53-0.369l0.584-0.158l0.58,0.004l0.424-0.043l0.292-0.162
			l0.214-0.254l0.003-0.28l-0.126-0.606l0.029-0.325l0.24-0.231l0.237,0.002l0.448,0.121l0.578,0.329l0.71,0.285l0.871,0.077
			l0.978,0.031l1.059-0.131l0.664-0.461l0.588-0.531l0.539-0.857l0.481-0.556l1.123-1.038l0.427-0.229l0.396,0.004l0.556-0.02
			l0.686-0.241l2.1-0.771l0.586-0.297l0.396-0.066l0.424,0.051l0.555,0.029l1.01-0.27l0.822-0.201l0.957-0.362l0.932-0.271
			l0.742-0.179l0.876-0.223l0.904-0.293l1.038-0.361l0.583-0.016l0.634,0.124l1.583,0.322l0.845,0.08h0.551l0.69-0.131l0.375-0.252
			l0.62-0.668l0.994-0.896l0.97-0.942l0.918-1.036l0.782-0.734l0.48-0.25l0.586-0.155l0.955-0.033l1.192-0.076l0.956-0.103
			l0.799-0.199l0.645-0.363l0.97-0.824l0.937-0.801l0.598-0.783l0.701-0.572l0.754-0.502l1.041-0.379l0.834-0.523l0.568-0.527
			l0.916-0.685l0.674-0.433l1.076-0.705l1.318-0.795l0.757-0.594l0.565-0.363l0.765-0.219h0.005l0.232-0.041l0.771-0.104
			l1.011-0.115l0.633,0.055l1.066,0.107l0.486,0.113l0.459,0.068l0.229-0.025l0.418-0.122l0.213-0.25l0.293-0.347l0.479-0.488
			l0.295-0.168L199.917,34l0.524-0.168l0.417-0.123l0.509-0.177l0.2-0.228l0.091-0.295l-0.021-0.864l0.053-0.166l0.173-0.226
			l0.55-0.336l0.768-0.303l0.633-0.146l0.607-0.016l0.432,0.021l0.525,0.021l0.932-0.066l0.418-0.002l0.311,0.033l0.176,0.104
			l0.285,0.176l0.395,0.224l0.379,0.162l0.324,0.059l0.256-0.037l0.134-0.084l0.899-0.52l0.389-0.228l0.324-0.12l0.834-0.277
			l1.076-0.349l0.592-0.323l0.727-0.5l0.473-0.181l0.282-0.106l0.188-0.18l0.348-0.594l0.469-0.771l0.328-0.509l0.403-0.321
			l0.229-0.262l0.078-0.261l-0.001-0.272l-0.137-0.317l-0.043-0.367l0.106-0.284l0.308-0.559l0.765-0.709l0.311-0.42l0.134-0.392
			l0.084-0.184l0.12-0.097l0.189-0.013l0.176,0.106l0.381,0.281l0.435,0.365l0.259,0.213l0.352,0.116l0.298,0.011l0.256-0.013
			l0.243-0.084l0.297-0.153l0.146-0.369l0.229-0.498l0.254-0.592l0.146-0.272l0.457-0.537l0.244-0.271l0.409-0.449l0.337-0.403
			l0.079-0.344l0.095-0.249l0.121-0.201L223.768,19l0.054-0.235l0.095-0.132l0.229-0.392l0.188-0.226l0.121-0.236l0.08-0.367
			l0.161-0.354l0.162-0.298l0.242-0.284l0.066-0.179l0.04-0.201l0.095-0.602l-0.029-0.828l0.066-0.332l0.271-0.203l0.297-0.248
			l0.203-0.332l0.312-0.344l0.215-0.31l0.067-0.226l0.013-0.332l0.053-0.449l0.259-0.436l0.202-0.439l0.135-0.283l-0.014-0.143
			l-0.068-0.154l-0.148-0.094l-0.164-0.096l-0.272-0.307l-0.19-0.402l-0.017-0.65l-0.001-0.414l-0.123-0.332L226.256,8l0.012-0.225
			l0.066-0.318l0.026-0.345l-0.015-0.235l-0.056-0.154l-0.136-0.131l-0.137-0.164l-0.041-0.189l-0.043-0.285V5.409l0.011-0.71
			l0.079-0.498l0.148-0.414l0.416-0.521l0.434-0.381l0.136-0.283L227.17,2.4V2.176l-0.055-0.227l-0.15-0.13l-0.258-0.069
			l-0.681-0.164l-0.462-0.105l-0.26-0.141l-0.123-0.178l-0.006-0.021l-0.24,0.294l-0.174,0.09l-0.172,0.088l-0.078,0.024
			l-0.547,0.17l-0.613,0.16l-0.564,0.148l-0.764,0.256l-0.789,0.199l-0.377,0.129L220.09,2.91l-0.861,0.238l-1.836,0.496
			l-0.481,0.135l-1.049,0.294l-1.371,0.355l-2.677,0.692l-0.938,0.281l-0.855,0.196l-0.289,0.065l-0.307,0.097l-0.254,0.077
			l-0.229,0.06l-0.656,0.166l-0.796,0.24l-2.198,0.608L203.9,7.244l-0.432,0.103l-0.246,0.104l-1.393,0.332l-1.189,0.325
			l-0.438,0.119l-0.895,0.218l-0.045,0.012h-0.002l-1.045,0.231l-1.635,0.485l-1.531,0.367l-0.232,0.084l-0.27,0.099l-0.054,0.007
			l-0.229,0.033l-3.09,0.785l-0.742,0.211l-0.744,0.216l-1.492,0.431l-3.465,0.919l-0.286,0.05l-0.146,0.025l-0.58,0.178
			l-0.344,0.098l-0.57,0.16l-0.316,0.082l-1.555,0.399l-2.722,0.744l-1.34,0.366l-1.25,0.273l-0.287,0.033l-0.254,0.029
			l-1.058,0.019l-1.187-0.13l-1.838-0.671l-0.042-0.004l-5.527-0.433l-0.238-0.028l-0.206-0.024l-1.677-0.197l-0.354-0.043
			l-0.573-0.043l-3.361-0.259l-1.475-0.11l-1.337,0.068l-2.803,0.146l-0.146,0.014l-0.225,0.021l-1.486,0.136l-1.305,0.315
			l-0.031,0.008l-0.109,0.053l-1.027,0.49l-0.678,0.242l-0.875,0.039l-0.164-0.037l-0.045-0.01l-0.233-0.051l-0.42-0.093
			l-0.724,0.139l-1.133,0.457l-0.418,0.168l-1.488,0.095l-0.523,0.176l-0.271,0.197l-0.358,0.262l-0.463,0.338l-0.128,0.093
			l-0.766,0.211l-0.455,0.125l-0.61,0.575l-0.927,0.873l-0.777,0.412l-0.238,0.646l-0.645,1.747l-0.461,0.409l-0.61,0.191
			l-0.685-0.205l-0.064-0.02l-0.109-0.05l-0.696-0.32l-0.61-0.56l-0.113-0.09l-0.25-0.229l-0.512-0.194l-1.414-0.242l-3.416-0.59
			l-0.144-0.023l-0.078-0.014l-5.679-0.875l-5.37-0.822l-0.527-0.107l-0.608-0.123l-1.108-0.225l-1.131,0.037l-0.143,0.004
			l-3.183,0.212l-2.794,0.187l-0.949,0.064l-1.203,0.08l-3.814,0.355l-1.76,0.166l-4.198,0.395l-1.799,0.171l-4.158,0.396
			l-5.955,0.572l-3.648,0.355l-2.306,0.224l-2.09,0.205l-3.862,0.38l-4.164,0.413l-0.719-0.214l-0.983-0.294l-4.064-1.208
			l-1.607-0.479l-5.675-1.681l-5.681-1.676l-1.188-0.349l-4.496-1.32l-1.952-0.571l-3.736-1.092l-1.934-0.563l-1.337-0.39
			l-2.408-0.742l-5.662-1.741L20.016,6.77L14.344,5.04L8.669,3.315l-5.68-1.718L2.216,1.364L1.601,1.178l3.6,4.195l3.594,4.198
			l3.079,3.606l0.541,0.57l2.231,2.355l1.745,1.56l3.18,2.847l1.078,0.836l1.476,1.148l0.203,0.557l-0.169,0.781l-0.651,1.399
			l0.245,0.584l0.825,1.964l0.311,0.326l0.339,0.211l0.969,0.333l0.258,0.278l-0.38,1.035l-0.194,0.527l-0.062,0.621l0.102,0.232
			l1.152,0.312l0.627,0.237l0.494,0.352l0.309,0.465l0.039,0.924l0.104,0.104l0.905,0.898l0.1,0.348l-0.097,1.197l0.045,0.485
			l1.46,1.528l0.322,0.337l0.669,0.838l0.427,1.183l1.656,2.08l0.272,0.342l0.842,1.416l1.056,1.098l0.638,1.023l0.519,0.42
			l1.145,0.926l2.346,2.422l0.432,0.574l0.32,0.427l0.354,0.649l0.779,0.312l1.961,1.479l0.916,0.555l0.683,0.414l2.035,1.042
			l1.479,0.329l0.942,0.506l0.101,0.076l1.04,0.783l3.012,0.946l1.361-0.164l0.159-0.02l0.756,0.081l1.324,0.367l1.556,0.535
			l1.229-0.025l0.725,0.08l0.391,0.045l2.23,0.925l0.937,0.132l1.835,0.816l0.065,0.033l0.89,0.434L67.82,62.9l1.269,1.857
			l0.367,0.254l0.177,0.123l1.064,0.512l1.31,1.307l0.798,0.973l1.15-0.127l0.444-0.05l5.854-0.817l0.637-0.088l0.208,0.168
			l0.192,2.832l-0.234,1.573l-0.421,2.831l-0.42,2.359l-0.102,0.569l0.149,0.723l0.758,1.534l0.261,2.245l0.047,0.398L81.506,83.15"
			/>
	</g>
</g>
<g id="Layer_1">
</g>
</svg>
