<?xml version="1.0" encoding="iso-8859-1"?>
<!-- Generator: Adobe Illustrator 16.0.4, SVG Export Plug-In . SVG Version: 6.00 Build 0)  -->
<!DOCTYPE svg PUBLIC "-//W3C//DTD SVG 1.1//EN" "http://www.w3.org/Graphics/SVG/1.1/DTD/svg11.dtd">
<svg version="1.1" xmlns="http://www.w3.org/2000/svg" xmlns:xlink="http://www.w3.org/1999/xlink" x="0px" y="0px"
	 width="65.966px" height="36.527px" viewBox="0 0 65.966 36.527" style="enable-background:new 0 0 65.966 36.527;"
	 xml:space="preserve">
<g id="Layer_114">
	<g id="Layer_119">
		<path id="DISTRICT_x3D_Kohlu_x2C_PROVINCE_x3D_Balochistan" style="fill:#CCCCCC;stroke:#FFFFFF;stroke-width:1.07;" d="
			M54.907,1.622L54.907,1.622l-0.185,0.132L54.535,1.85l-0.254,0.133l-0.229,0.109L53.84,2.232l-0.331,0.154l-0.118,0.015
			l-0.094-0.022L53.11,2.307l-0.145-0.016l-0.17,0.021L52.72,2.356l-0.018,0.051l0.009,0.082l0.067,0.104l0.067,0.072v0.053V2.77
			l-0.034,0.037l-0.076,0.029L52.6,2.844h-0.137l-0.144,0.014l-0.067,0.029l-0.06,0.082l-0.034,0.08l-0.043,0.045l-0.076,0.028
			l-0.178-0.008l-0.144-0.012l-0.102-0.037l-0.042-0.074l-0.025-0.043l-0.066-0.03l-0.085,0.008l-0.104,0.053l-0.22,0.043
			l-0.391-0.016l-0.329,0.022L50.04,3.049l-0.364,0.045l-0.482,0.021l-0.51-0.001L48.286,3.1l-0.618-0.008H47.38l-0.354,0.031
			l-0.204-0.008l-0.552-0.007L45.89,3.123l-0.297,0.029l-0.542,0.133l-0.236,0.061l-0.195,0.117L44.51,3.588l-0.102,0.141
			l-0.161,0.154L44.153,3.92l-0.145-0.008L43.745,3.86l-0.127-0.015l-0.093,0.021l-0.152,0.059l-0.237,0.097L42.95,4.09h-0.117
			l-0.212-0.021l-0.305-0.088l-0.483-0.134L41.57,3.805h-0.179h-0.194l-0.11,0.021l-0.254,0.111l-0.254,0.146l-0.245,0.17
			l-0.152,0.09l-0.194,0.088l-0.118,0.037h-0.11l-0.245-0.043l-0.204-0.06l-0.354-0.089l-0.128,0.001L38.734,4.25l-0.061-0.104
			L38.585,4.01L38.5,3.951h-0.06l-0.203,0.061l-0.221,0.021l-0.255,0.008l-0.278,0.016l-0.122,0.012l-0.133-0.322l-0.151-0.328
			l-0.103-0.22l-0.202-0.239l-0.329-0.264l-0.431-0.262L35.81,2.301l-0.176,0.023l-0.15,0.11l-0.528,0.286l-0.681,0.244
			l-0.579,0.133l-0.354,0.046l-0.68,0.243l-0.555,0.223l-0.804,0.814l-0.625,0.644L30,5.596l-0.779,0.398L28.14,6.438l-1.536,0.271
			L25.067,6.87l-1.261,0.095l-1.26,0.052l-1.135-0.06l-1.059,0.096L19.646,6.99l-0.201-0.13L19.19,6.643L18.76,6.404l-0.886-0.322
			L17.09,5.801l-0.606-0.303l-0.331-0.326l-0.306-0.283l-0.322-0.252l-0.383-0.37l-0.534-0.523l-1.022-0.935l-0.027,0.3
			l-0.095,0.358l-0.044,0.285l-0.128,0.405l-0.058,0.435l-0.078,0.301l-0.112,0.33l0.011,0.447l0.032,0.162l0.021,0.131l0.015,0.155
			l-0.006,0.61l-0.015,0.346l0.197,0.319l0.445,0.261l0.592,0.365l0.667,0.414l0.6,0.185l0.609,0.415l0.976,0.504l0.223,0.139
			l0.799,0.404l0.657,0.17l0.503,0.213l0.377,0.045l0.433,0.078l0.224,0.141l0.125,0.169l0.025,0.28l-0.335,0.783l-0.229,0.537
			l-0.031,0.312l0.1,0.812l0.263,0.569l0.063,0.268l-0.023,0.131l-0.195,0.143l-0.222,0.322l-0.229,0.521l-0.238,0.258l-0.442,0.361
			l-1.137,0.479l-1.137,0.51l-0.845,0.32l-0.346,0.123l-0.235,0.223l-0.143,0.244l-0.321,0.469l-0.342,0.535l-0.271,0.106
			l-0.416,0.005l-0.68-0.021l-0.546-0.066l-0.698-0.053L10.746,19l-0.981-0.045l-1.378-0.056l-0.775,0.01l-0.23,0.095l-0.468,0.381
			l-0.172,0.271l-0.106,0.311l-0.312,0.24L5.84,20.506l-0.514,0.102L4.87,20.645l-0.248,0.092l-0.158,0.161l-0.181,0.31
			l-0.272,0.719L3.49,22.752L3.223,23.34l-0.525,0.977l-0.404,0.73l-0.088,0.17l-0.42,0.806l-0.534,0.694l-0.51,0.547l-0.12,0.18
			L0.6,27.525l0.092,0.084l0.315,0.125l0.54,0.195l0.73,0.169l0.616,0.183l0.199,0.203l0.271,0.305l0.325,0.404l0.163,0.17
			l0.087,0.104l0.208,0.199l0.448,0.27l0.613,0.454l0.373,0.319l0.53,0.314l0.555,0.282l0.702,0.521l0.73,0.535l0.912,0.562
			l0.972,0.629l0.852,0.51l0.929,0.393l0.558,0.252l0.509,0.215l0.675,0.244l0.733,0.299l0.629,0.23l0.45,0.098l0.615,0.1l0.57,0.1
			h0.282l0.195-0.087l0.666-0.249l0.481-0.179l0.618-0.187l0.915-0.207l0.915-0.217l0.772-0.176l0.522-0.154l0.81-0.248l0.784-0.164
			l0.547-0.071l0.737,0.002l0.808,0.022l0.595,0.065l0.783,0.116l1.246,0.191l0.914,0.139l0.914,0.129l1.033,0.182l1.009,0.223
			l1.079,0.267l0.974,0.284l0.261,0.054l0.451,0.043l0.319-0.009l0.416-0.051l0.548-0.205l0.524-0.205l0.524-0.288l0.215-0.177
			l0.204-0.217l0.227-0.104l0.274-0.144l0.355-0.113l0.376-0.062l0.535-0.019l0.783,0.035l0.604,0.129l0.795,0.141l0.559,0.128
			l0.913,0.132l0.5,0.004l0.604-0.027l0.561-0.121l0.727-0.193l0.524-0.162l0.463-0.232l0.3-0.247l0.349-0.437l0.446-0.609
			l0.289-0.437l0.326-0.508l0.301-0.331l0.396-0.413l0.335-0.206l0.311-0.152l0.357-0.082l0.632-0.099l0.489-0.12l0.404-0.133
			l0.348-0.185l0.429-0.298l0.288-0.217l0.24-0.259l0.277-0.383l0.267-0.29l0.216-0.175l0.264-0.164l0.538-0.246l0.562-0.213
			l0.49-0.257l0.646-0.297l0.692-0.231l0.335-0.187l0.59-0.379l0.396-0.36l0.486-0.535l0.34-0.508l0.196-0.445l0.088-0.385
			l0.002-0.188l-0.104-0.281l-0.142-0.157L58.487,23.5l-0.368-0.076l-0.572-0.047l-0.498-0.119l-0.38-0.159l-0.415-0.183
			l-0.307-0.272l-0.129-0.209l-0.021-0.345l-0.009-0.301l0.027-0.312l0.038-0.197l0.159-0.467l0.207-0.354l0.193-0.236l0.278-0.301
			l0.386-0.318l0.229-0.27l0.389-0.412l0.252-0.217l0.301-0.217l0.35-0.246l0.445-0.298l0.266-0.237l0.241-0.185l0.275-0.112
			l0.754-0.277l0.467-0.141l0.323-0.091l0.358-0.069l0.169,0.002l0.465,0.016l0.417,0.046l0.644,0.091l0.818,0.252l0.26-0.223
			l0.216-0.27l0.235-0.193l-0.242-0.105l-0.339-0.203l-0.713-0.268l-0.928-0.253l-1.035-0.081l-0.964,0.043l-1.146,0.137
			l-1.125,0.153l-0.805,0.169l-0.732,0.279l-0.732,0.418L55.6,17.338l-0.392,0.315l-0.5,0.218l-0.5,0.092l-0.465,0.154l-0.429,0.25
			l-0.75,0.311L51.6,19.033l-1.159,0.312l-0.946,0.217l-0.392,0.062h-0.375l-0.535-0.141l-0.66-0.171l-0.644-0.296l-0.43-0.066
			l-0.432-0.1l-0.072-0.051l-0.348-0.262l-0.455-0.266l-0.221-0.18l-0.458-0.366l-0.248-0.149l-0.455-0.164l-0.514-0.188
			l-0.601-0.291l-0.442-0.204l-0.326-0.212l-0.35-0.4l-0.126-0.307l-0.209-0.27l-0.308-0.401l-0.272-0.297l0.104-0.384l0.169-0.127
			l0.286-0.146l0.17-0.141l0.178-0.118l0.211-0.089l0.396-0.118l0.532-0.191l0.474-0.161l0.363-0.127l0.514-0.22l0.312-0.162
			l0.178-0.155l0.066-0.154l0.034-0.191l0.066-0.125l0.103-0.146l0.127-0.096l0.271-0.193l0.264-0.184l0.329-0.258l0.254-0.236
			l0.193-0.133l0.466-0.242l0.475-0.235l0.529-0.25l0.777-0.404L49.049,9.5l0.533-0.287l0.22-0.124l0.297-0.118l0.363-0.133
			l0.356-0.059l0.329-0.029l0.203-0.021l0.212-0.021l0.17-0.051l0.135-0.066l0.051-0.066l0.019-0.074l0.066-0.103l0.136-0.103
			l0.382-0.162l0.295-0.041l0.49-0.074l0.567-0.072l0.397-0.08L54.38,7.74l0.076-0.103l0.035-0.317l0.06-0.324l0.095-0.133
			l0.127-0.125l0.093-0.072l0.018-0.06l0.009-0.11l0.025-0.088l0.085-0.074l0.136-0.072l0.297-0.125l0.313-0.146l0.264-0.199
			l0.302-0.239l0.271-0.228l0.146-0.215l0.254-0.25l0.11-0.14l0.052-0.199l0.203-0.286l0.289-0.404l0.247-0.375l0.071-0.141V3.218
			l-0.025-0.044l-0.136-0.081l-0.127-0.126l-0.084-0.109l-0.008-0.089l0.051-0.089l0.17-0.161l0.399-0.286L58.4,2.07l0.06-0.134
			l-0.023-0.169l-0.025-0.089V1.502l-0.042-0.11V1.355l0.06-0.089l0.204-0.161l0.188-0.272l0.018-0.089l-0.06-0.104L58.712,0.58
			l-0.145-0.036h-0.161l-0.195-0.009h-0.229l-0.11,0.029l-0.161,0.08l-0.204,0.059l-0.288,0.104l-0.373,0.117l-0.264,0.044
			l-0.246,0.028l-0.195,0.06l-0.396,0.14L55.55,1.246L55.321,1.35L55.1,1.475l-0.194,0.141L54.907,1.622"/>
	</g>
</g>
<g id="Layer_1">
</g>
</svg>
