<?xml version="1.0" encoding="iso-8859-1"?>
<!-- Generator: Adobe Illustrator 16.0.4, SVG Export Plug-In . SVG Version: 6.00 Build 0)  -->
<!DOCTYPE svg PUBLIC "-//W3C//DTD SVG 1.1//EN" "http://www.w3.org/Graphics/SVG/1.1/DTD/svg11.dtd">
<svg version="1.1" xmlns="http://www.w3.org/2000/svg" xmlns:xlink="http://www.w3.org/1999/xlink" x="0px" y="0px"
	 width="22.081px" height="12.013px" viewBox="0 0 22.081 12.013" style="enable-background:new 0 0 22.081 12.013;"
	 xml:space="preserve">
<g id="Layer_67">
	<g id="Layer_72">
		<path id="DISTRICT_x3D_Rahim_Yar_Khan_x2C_PROVINCE_x3D_Punjab" style="fill:#CCCCCC;stroke:#FFFFFF;stroke-width:1.07;" d="
			M21.521,5.996L21.521,5.996l0.006-0.019l0.02-0.106V5.833L21.53,5.771l-0.096-0.094l-0.341-0.413l-0.606-0.661l-0.257-0.28
			l-0.346-0.29l-0.396-0.298l-0.216-0.143l-0.183-0.087l-0.243-0.033l-0.296-0.02l-0.228,0.036l-0.148,0.027l-0.279,0.105
			l-0.367,0.111L17.293,3.76l-0.2-0.003L16.937,3.74L16.85,3.684l-0.06-0.055l-0.067-0.116L16.68,3.405l-0.031-0.141l-0.024-0.14
			l-0.042-0.077l-0.026-0.022l-0.053,0.021l-0.07,0.068l-0.089,0.114l-0.105,0.106l-0.123,0.053L16.002,3.41l-0.108-0.031
			l-0.029-0.008l-0.13-0.064l-0.096-0.078l-0.12-0.094l-0.126-0.036L15.24,3.145l-0.204,0.052L14.905,3.21l-0.25,0.075l-0.156,0.062
			l-0.15,0.104l-0.085,0.03l-0.085,0.05l-0.084,0.042l-0.099,0.037L13.93,3.604l-0.105-0.037l-0.107-0.068l-0.194-0.119l-0.2-0.102
			l-0.253-0.104l-0.248-0.118l-0.159-0.02L12.51,3.027l-0.245-0.042l-0.427-0.134l-0.261-0.116l-0.252-0.061l-0.142-0.05
			l-0.299-0.029L10.62,2.573l-0.339-0.06l-0.272-0.075L9.782,2.355L9.607,2.236l-0.223-0.13L9.076,1.954L8.803,1.849L8.537,1.776
			L8.172,1.714L7.966,1.689L7.682,1.695L7.497,1.728L7.24,1.745l-0.206-0.02L6.796,1.69L6.564,1.654L6.303,1.559L6.023,1.46
			L5.83,1.382L5.655,1.275L5.5,1.161L5.312,1.077L5.044,0.972L4.671,0.845L4.399,0.772L3.934,0.666L3.753,0.629L3.448,0.612
			L3.177,0.594L2.965,0.604L2.78,0.632l-0.25,0.04L2.312,0.688L2.087,0.711l-0.11,0.015L1.843,0.711L1.644,0.668L1.452,0.654
			L1.214,0.666L0.776,0.646L0.755,0.643l0.079,0.26l0.104,0.39l0.098,0.396l0.058,0.396l0.061,0.245l0.099,0.215l0.184,0.382
			l0.209,0.405l0.16,0.277l0.093,0.144l0.096,0.115L2.123,3.98l0.061,0.012l0.079,0.004l0.099-0.025l0.104-0.085l0.136-0.143
			l0.09-0.084l0.064-0.031l0.139-0.037l0.06-0.014l0.073,0.011l0.04,0.028l0.034,0.046l0.048,0.062l0.068,0.087l0.062,0.086
			l0.093,0.046L3.46,3.975l0.105-0.002l0.072-0.008L3.67,3.983l0.034,0.033L3.692,4.07L3.66,4.112l-0.058,0.06L3.519,4.233
			l-0.1,0.036L3.321,4.301L3.217,4.345L3.132,4.369L3.04,4.394L2.993,4.407L2.988,4.454l0.028,0.082l0.036,0.128l0.029,0.093
			l0.055,0.075L3.28,4.964l0.222,0.158l0.289,0.17l0.247,0.123l0.135,0.066L4.228,5.54l0.001,0.035L4.224,5.616L4.191,5.646
			L4.166,5.664L4.101,5.688L3.779,5.701L3.41,5.721L3.186,5.738L3.107,5.781l-0.064,0.06L3.005,5.906L2.981,5.965l0.021,0.1
			l0.082,0.121l0.089,0.068l0.247,0.1l0.326,0.11l0.345,0.068l0.214,0.076l0.293,0.064L5.01,6.758l0.246,0.048l0.198,0.013
			l0.358,0.068l0.259,0.042l0.187,0.077l0.24,0.095l0.174,0.09l0.193,0.072l0.128,0.086l0.155,0.125l0.103,0.115l0.08,0.067
			l0.146,0.065l0.371,0.086l0.054,0.024l0.134,0.06l0.201,0.113l0.229,0.159l0.116,0.12l0.2,0.118l0.261,0.106l0.198,0.008
			l0.462-0.01l0.369-0.025l0.224,0.008l0.172,0.015l0.106,0.033l0.128,0.078l0.254,0.131l0.222,0.13l0.188,0.09l0.187,0.061
			l0.246,0.075l0.205,0.037l0.186,0.021l0.094,0.004l0.079,0.021l0.047,0.028l0.061,0.051l0.042,0.076l0.037,0.18l0.06,0.216
			l0.07,0.21l0.104,0.231l0.062,0.087l0.16,0.084l0.147,0.092l0.147,0.138l0.175,0.132l0.114,0.066l0.066-0.001l-0.021,0.418
			l0.367,0.2l0.14-0.089l0.184-0.181l0.142-0.149l0.121-0.157l0.086-0.198l0.019-0.165l-0.02-0.104l-0.05-0.178l-0.032-0.129
			L14.6,9.921l0.001-0.073l0.037-0.14l0.111-0.072l0.057-0.035l0.068,0.001l0.09,0.002l0.157,0.046l0.138-0.004l0.174-0.034
			l0.178-0.044l0.15-0.034l0.153-0.095l0.162-0.132l0.133-0.113l0.188-0.088l0.104-0.054l0.153-0.101L16.8,8.874l0.127-0.107
			l0.062-0.06l0.071-0.104l0.099-0.084l0.098-0.071l0.168-0.105l0.217-0.119l0.168-0.112l0.177-0.124l0.155-0.016l0.408-0.014
			l0.251,0.02l0.297,0.025l0.139,0.009l0.064-0.02l0.111-0.061l0.115-0.125l0.198-0.278l0.147-0.179l0.128-0.154l0.116-0.131
			l0.089-0.147l0.103-0.189l0.096-0.136l0.067-0.165l0.052-0.095L20.6,6.201l0.073-0.074l0.17-0.067l0.164-0.038l0.205-0.004
			l0.197-0.021L21.521,5.996"/>
	</g>
</g>
<g id="Layer_1">
</g>
</svg>
