<?xml version="1.0" encoding="iso-8859-1"?>
<!-- Generator: Adobe Illustrator 16.0.4, SVG Export Plug-In . SVG Version: 6.00 Build 0)  -->
<!DOCTYPE svg PUBLIC "-//W3C//DTD SVG 1.1//EN" "http://www.w3.org/Graphics/SVG/1.1/DTD/svg11.dtd">
<svg version="1.1" xmlns="http://www.w3.org/2000/svg" xmlns:xlink="http://www.w3.org/1999/xlink" x="0px" y="0px" width="51.43px"
	 height="45.373px" viewBox="0 0 51.43 45.373" style="enable-background:new 0 0 51.43 45.373;" xml:space="preserve">
<g id="Layer_169">
	<g id="Layer_174">
		<path id="DISTRICT_x3D_Bhakkar_x2C_PROVINCE_x3D_Punjab" style="fill:#CCCCCC;stroke:#FFFFFF;stroke-width:1.07;" d="
			M0.486,35.625L0.486,35.625l0.651,0.303l0.119,0.076l0.096,0.014l0.129-0.005l0.181-0.024h0.141l0.068,0.015l0.09,0.033
			l0.096,0.038l0.103,0.029l0.101,0.019h0.112l0.136-0.029l0.18-0.049l0.25-0.095l0.129-0.039l0.17-0.088l0.252-0.131l0.15-0.103
			l0.174-0.142l0.096-0.092l0.045-0.047l0.117-0.267l0.065-0.149l0.051-0.048l0.052-0.034l0.184-0.078l0.112-0.028l0.129-0.039
			l0.186-0.021l0.395,0.043l0.151,0.037l0.053,0.053l0.027,0.067v0.058L5.43,35.02l-0.11,0.223l-0.078,0.164l-0.056,0.197
			l0.001,0.158l0.04,0.154l0.058,0.111l0.062,0.082l0.118,0.052l0.157,0.043l0.304,0.009l0.248-0.001l0.118-0.021l0.213-0.067
			l0.22-0.067l0.097-0.016h0.141l0.163,0.009l0.191,0.033l0.102,0.01h0.084l0.141-0.024l0.175-0.049l0.387-0.15l0.203-0.055
			l0.207-0.028l0.443-0.001l0.36,0.027l0.242,0.023l0.259,0.009l0.389,0.038l0.395,0.047l0.163,0.024h0.111l0.265-0.019l0.235-0.012
			l0.265-0.033l0.461-0.05l0.315-0.005l0.175,0.023l0.096,0.024l0.062,0.052l0.077,0.118l0.131,0.146l0.141,0.178l0.155,0.111
			l0.106,0.054l0.115,0.013l0.162-0.02l0.293-0.061l0.344-0.104l0.162-0.06l0.224-0.027h0.153l0.263,0.064l0.387,0.125l0.114,0.061
			l0.102,0.006l0.068-0.006l0.107-0.066l0.247-0.146l0.076-0.053h0.046l0.039,0.026l0.03,0.04l0.022,0.125l-0.007,0.238L16.4,37.021
			l0.001,0.33l-0.037,0.236v0.092l0.022,0.047l0.03,0.032l0.093,0.065l0.255,0.179l0.263,0.276l0.216,0.266l0.178,0.225l0.069,0.217
			l0.022,0.119l0.062,0.112l0.177,0.198l0.193,0.211l0.267,0.348l0.154,0.258l0.169,0.265l0.162,0.19l0.146,0.205l0.077,0.092
			l0.069,0.066l0.067,0.033l0.14,0.025h0.069l0.101-0.013l0.062-0.02l0.046-0.026l0.055-0.053l0.046-0.092l0.039-0.066l0.068-0.054
			l0.062-0.026l0.1-0.025l0.085-0.014l0.055,0.014l0.055,0.039l0.054,0.054l0.055,0.118l0.055,0.256l0.046,0.383l0.077,0.391
			l0.054,0.448l0.093,0.481l0.067,0.455l0.046,0.158l0.077,0.231l0.068,0.218l0.047,0.146l0.076,0.125l0.084,0.119l0.103,0.09
			l0.213,0.14l0.219,0.137l0.152,0.076l0.14,0.022l0.231-0.082l0.389-0.096l0.446-0.088l0.38-0.035l0.565-0.041l0.624-0.061
			l0.567,0.01l0.644-0.009l0.701-0.054l0.479-0.047l0.339-0.102l0.384-0.212l0.463-0.45l0.371-0.523l0.333-0.547l0.216-0.406
			l0.063-0.422l0.039-0.262l0.054-0.145l0.065-0.078l0.135-0.062l0.185-0.047l0.264-0.041l0.154-0.037l0.192-0.09l0.21-0.147
			l0.096-0.07l0.185-0.071l0.186-0.031l0.41,0.006l0.609,0.051l0.541,0.044l0.413,0.063l0.493,0.113l0.396,0.141l0.368,0.158
			l0.297,0.156l0.379,0.191l0.241,0.188l0.292,0.235l0.334,0.319l0.246,0.287l0.202,0.205l0.251,0.179l0.319,0.194l0.16,0.104
			l0.132,0.123l0.109,0.056l0.137-0.004l0.479-0.062l0.457-0.078l0.36-0.034l0.411-0.002l0.401,0.024l0.409,0.075l0.441,0.13
			l0.008,0.051l0.082,0.637l0.533-0.422l0.207-0.325l0.35-0.368l0.033-0.29l0.021-0.312l0.011-0.444l0.109-0.315l0.156-0.363
			l0.191-0.264l0.137-0.072l0.455-0.176l0.599-0.149l0.547-0.158l0.287-0.146l0.442-0.364l0.381-0.257l0.241-0.066l0.614-0.117
			l0.463-0.031l0.338,0.028l0.627,0.093l0.951,0.135l0.589,0.106l0.537,0.12l0.354,0.095l0.237,0.078l0.207,0.001l0.178-0.052
			l0.16-0.129l0.145-0.195l0.122-0.338l0.099-0.925l0.092-0.614l0.202-0.508l0.082-0.259l0.09-0.226l-0.006-0.1l-0.102-0.173
			l-0.104-0.217l-0.043-0.287l0.025-0.224l0.073-0.479l0.027-0.412l-0.041-0.242l-0.167-0.402l-0.264-0.511l-0.075-0.163
			l0.008-0.089l0.053-0.213l0.053-0.19l-0.006-0.1l-0.073-0.34l-0.084-0.54l0.002-0.601l0.008-0.731l-0.025-0.209l-0.029-0.065
			l-0.08-0.041l-0.263-0.055l-0.45-0.158l-0.255-0.133l-0.069-0.085l-0.004-0.067l-0.027-0.609l0.045-0.316l0.19-0.23l0.139-0.213
			l0.093-0.125l-0.238-0.043l-0.39-0.146l-0.182-0.062l-0.168-0.072l-0.384-0.193l-0.28-0.129l-0.234-0.145l-0.163-0.109l-0.122-0.1
			l-0.062-0.078l-0.025-0.074l-0.022-0.23l-0.024-0.199l-0.029-0.135l-0.073-0.181l-0.076-0.127l-0.113-0.127l-0.135-0.167
			l-0.16-0.137l-0.229-0.181l-0.188-0.108l-0.171-0.102l-0.192-0.105l-0.162-0.051l-0.15-0.039l-0.143-0.069l-0.159-0.093
			l-0.213-0.072l-0.214-0.062l-0.346-0.039l-0.218-0.049l-0.097-0.039l-0.084-0.08l-0.048-0.093l-0.041-0.077l-0.021-0.054
			l-0.11-0.138l-0.368-0.297l-0.296-0.256l-0.201-0.138l-0.167-0.105l-0.25-0.15l-0.136-0.081l-0.264-0.151l-0.097-0.07
			l-0.025-0.053l-0.014-0.064l-0.015-0.11l-0.021-0.05l-0.05-0.042l-0.228-0.081l-0.268-0.079l-0.234-0.094l-0.317-0.161
			l-0.254-0.132l-0.155-0.116l-0.281-0.204l-0.219-0.159l-0.123-0.184l-0.094-0.152l-0.026-0.135l-0.033-0.17l-0.049-0.288
			l-0.042-0.306l-0.036-0.292l-0.008-0.26l-0.01-0.137l0.007-0.118l-0.001-0.039l-0.046-0.057l-0.038-0.056l-0.021-0.061
			l0.007-0.064l0.021-0.085l0.045-0.111l0.028-0.057l0.004-0.05l-0.005-0.039l-0.015-0.056l-0.093-0.103l-0.195-0.247l-0.189-0.212
			l-0.188-0.212l-0.132-0.23l-0.104-0.223l-0.106-0.209l-0.113-0.358l-0.126-0.362l-0.103-0.216l-0.049-0.081l-0.126-0.091
			l-0.21-0.091l-0.294-0.076l-0.227-0.069l-0.214-0.087l-0.382-0.157l-0.362-0.13l-0.518-0.199l-0.155-0.073l-0.429-0.178
			l-0.536-0.168l-0.256-0.094l-0.089-0.074l-0.015-0.05l0.004-0.075l0.095-0.168l0.108-0.218l0.132-0.232l0.081-0.125l0.092-0.115
			l0.227-0.237l0.132-0.111l0.083-0.04l0.104-0.037l0.166-0.041l0.138-0.022l0.121-0.005l0.2-0.016l0.111-0.026l0.204-0.073
			l0.165-0.094l0.199-0.126l0.121-0.129l0.032-0.05l0.073-0.09l0.054-0.122l0.056-0.192l0.032-0.139l0.031-0.125l0.027-0.083
			l0.032-0.075l0.053-0.082l0.104-0.151l0.111-0.186l0.036-0.051l0.05-0.061l0.057-0.129l0.049-0.114l0.087-0.094l0.091-0.093
			l0.124-0.119l0.065-0.104l0.049-0.075l0.07-0.068l0.1-0.149l0.089-0.162l0.073-0.235l0.026-0.178l-0.012-0.171l-0.052-0.148
			l-0.129-0.237l-0.095-0.17l-0.068-0.11l-0.039-0.12L37.93,9.54l0.05-0.054l0.074-0.061l0.133-0.073L38.27,9.28l0.132-0.161
			l0.223-0.255l0.245-0.268l0.145-0.137l0.286-0.23l0.184-0.137l0.275-0.248l0.303-0.334l0.179-0.233l0.073-0.122l0.068-0.193
			l0.03-0.203l0.007-0.203l-0.033-0.242L40.38,6.146l0.008-0.395l0.02-0.545l0.025-0.295l0.011-0.178l0.075-0.36l0.037-0.328
			l0.021-0.093l0.049-0.1l0.045-0.111l0.014-0.096l0.019-0.164l0.007-0.139l-0.044-0.128l-0.098-0.148L40.44,2.922l-0.138-0.138
			l-0.209-0.221l-0.098-0.106l-0.238-0.276l-0.141-0.248l-0.049-0.17V1.734l-0.149-0.033l-0.142-0.022l-0.24-0.038l-0.231-0.03
			l-0.099-0.072l0.001,0.013l-0.294-0.097L37.869,1.37l-0.605-0.044l-0.776,0.089l-0.812,0.131l-0.692,0.105l-0.609,0.095
			l-0.641,0.051l-0.285-0.009l-0.232-0.079l-0.196-0.092l-0.195-0.135l-0.214-0.121l-0.195-0.135l-0.275-0.124l-0.396-0.126
			L31.23,0.76l-0.5-0.115l-0.4-0.07l-0.437-0.014l-0.353-0.025L29.02,0.577L28.8,0.584l-0.137,0.039l-0.139,0.11l-0.157,0.138
			l-0.192,0.18L28.02,1.161l-0.326,0.161l-0.309,0.12L27.012,1.53l-0.339,0.047l-0.219,0.021l-0.233-0.05l-0.165-0.062l-0.282-0.08
			l-0.465-0.114l-0.553-0.074l-0.652-0.063l-0.57-0.017l-0.201-0.006l-0.327-0.152l-0.199-0.063l-0.201,0.008L22.502,0.95
			l-0.176,0.195L22.18,1.426l-0.223,0.521l-0.218,0.379l-0.119,0.04l-0.118,0.011l-0.166-0.062L21.124,2.18l-0.359-0.225
			l-0.396-0.183l-0.364-0.125l-0.583-0.131l-0.279-0.123l-0.297-0.166L18.63,1.135l-0.232-0.05L18.126,1.12l-0.137,0.053
			l-0.104,0.098L17.76,1.438l-0.025,0.228l0.029,0.115l0.062,0.145l-0.006,0.128l-0.035,0.071l-0.103,0.025l-0.117-0.003
			l-0.133-0.032l-0.124-0.26l-0.05-0.059l-0.133-0.032l-0.233-0.035l-0.268-0.036l-0.166-0.062l-0.097-0.103l-0.045-0.129
			l-0.062-0.116l-0.013-0.101l-0.1-0.046l-0.149-0.047l-0.15-0.004l-0.155-0.041l-0.045-0.121l-0.013,0.011l-0.095,0.245
			l-0.132,0.146l-0.098,0.13l-0.249,0.26l-0.242,0.39L14.651,2.28l-0.215,0.175l-0.149,0.031l-0.506-0.019L13.51,2.401l-0.321-0.094
			l-0.085,0.002L13.04,2.396l-0.033,0.029l-0.03,0.129l-0.077,0.215l-0.08,0.145l-0.06,0.302l-0.158,0.36l0.004,0.114l0.004,0.143
			l0.053,0.085l0.085,0.056l0.086,0.055l0.12,0.083l0.07,0.113l0.035,0.099l0.009,0.3L13.003,4.71l-0.097,0.159l-0.112,0.188
			l-0.193,0.318l-0.025,0.258l-0.076,0.302l-0.063,0.129L12.36,6.352L12.333,6.52l-0.08,0.144l-0.097,0.145l-0.047,0.129
			l0.003,0.115l0.002,0.042l0.002,0.101l-0.093,0.272l-0.148,0.103L11.71,7.703l-0.217,0.033l-0.27,0.005l-0.133,0.045L10.977,7.86
			l0.001,0.058l0.004,0.114l0.069,0.112l0.054,0.114l0.104,0.098l0.045,0.413l0.094,0.384L11.278,9.64L11.25,9.841l-0.129,0.488
			l0.033,0.063l0.068,0.321l0.077,0.462l-0.119,0.327l-0.037,0.145L11.1,11.811l-0.04,0.167l-0.021,0.15l0.057,0.218l0.049,0.134
			l0.067,0.101l-0.021,0.084l-0.119,0.124l-0.103,0.116l-0.067,0.074l-0.062,0.108l-0.021,0.143l0.047,0.176l0.065,0.276l0.02,0.109
			l-0.002,0.108l-0.01,0.067l-0.07,0.05l-0.188,0.065l-0.441,0.172l-0.178,0.083l-0.14,0.133l-0.1,0.125l-0.062,0.217L9.71,15.07
			l-0.041,0.175l-0.092,0.342l-0.091,0.234l-0.144,0.507L9.2,16.762l-0.14,0.342l-0.188,0.25l-0.389,0.58l-0.024,0.05l-0.05,0.164
			l-0.03,0.104l-0.072,0.056l-0.095,0.066l-0.153,0.021l-0.15,0.001H7.771l-0.091,0.02l-0.064,0.033l-0.055,0.06L7.52,18.65
			l-0.09,0.266L7.362,19.02l-0.092,0.059l-0.152,0.109l-0.19,0.078L6.847,19.32l-0.062,0.05L6.73,19.43l-0.066,0.16L6.59,19.906
			l-0.02,0.121l-0.053,0.115l-0.052,0.076l-0.108,0.055L6.15,20.378l-0.197,0.131l-0.048,0.069L5.8,20.713l-0.101,0.184
			l-0.064,0.279l-0.076,0.292l-0.036,0.246l0.026,0.093l0.024,0.044l0.093,0.028l0.253,0.055l0.041,0.048l0.047,0.09l-0.03,0.072
			l-0.064,0.033l-0.25-0.031l-0.453-0.098l-0.135-0.014l-0.143,0.041l-0.315,0.184l-0.102,0.058L4.37,22.491l-0.214,0.286
			l-0.195,0.282l-0.16,0.29l-0.138,0.279l-0.128,0.305l-0.051,0.17l-0.017,0.053l0.021,0.027l0.078,0.049l0.122,0.026l0.077,0.048
			l0.069,0.079l0.013,0.113l-0.04,0.134l-0.057,0.036l-0.109,0.157l-0.104,0.167l-0.026,0.089L3.5,25.214l0.102,0.093l0.105,0.047
			l0.122,0.09l0.034,0.134l0.013,0.112l0.098,0.141l0.055,0.1l0.112,0.119l0.031,0.078L4.17,26.229l-0.023,0.082l-0.058,0.035
			l-0.149,0.008l-0.045,0.021l-0.038,0.07l-0.01,0.156l-0.03,0.104l-0.039,0.07l-0.118,0.086l-0.094,0.035l-0.08-0.01l-0.067,0.01
			l-0.04,0.039l-0.02,0.065l0.008,0.129l0.041,0.086l-0.006,0.117L3.37,27.406L3.326,27.46l-0.062,0.05l-0.09,0.021l-0.057,0.003
			L3.07,27.57l-0.028,0.033l-0.046,0.092l-0.035,0.088l-0.039,0.134l0.027,0.062l0.066,0.022l0.081,0.011l0.115,0.018l0.13,0.027
			l0.05,0.051l0.067,0.086l0.071,0.166l0.1,0.101l0.16,0.114l0.137,0.101l0.251,0.149l0.065,0.062l0.034,0.07l0.008,0.16
			l-0.024,0.082l-0.027,0.096l-0.035,0.023l-0.073,0.033l-0.078,0.015l-0.383-0.021l-0.23-0.002l-0.161-0.051l-0.079-0.01
			l-0.156-0.002L2.951,29.29l-0.026,0.026L2.92,29.362l0.092,0.036l0.08,0.041l0.119,0.065l0.023,0.077l-0.008,0.117l0.01,0.16
			l0.001,0.119l0.004,0.144l0.067,0.079l0.052,0.082l0.066,0.023l0.069,0.015l0.281,0.046l0.104,0.021l0.106,0.047l0.068,0.047
			l0.028,0.062l-0.011,0.068l-0.074,0.126L3.89,30.889l-0.079,0.174l-0.067,0.229l-0.031,0.167l-0.044,0.18l-0.065,0.16L3.57,31.911
			l-0.024,0.114l0.013,0.082l0.107,0.07L3.77,32.2l0.108,0.071l0.047,0.09l-0.02,0.066l-0.019,0.06l-0.113,0.069l-0.146,0.056
			l-0.039,0.039l-0.062,0.05l-0.055,0.061L3.345,32.82l-0.159,0.068l-0.17,0.041l-0.489,0.004l-0.354,0.035l-0.089,0.02
			l-0.089-0.012l-0.087-0.019l-0.06,0.011l-0.048,0.037L1.792,33.1l-0.005,0.203L1.784,33.5l0.04,0.145l0.007,0.136l-0.024,0.079
			l-0.027,0.097l0.031,0.046l0.012,0.089l-0.037,0.063l-0.089,0.02L1.52,34.175l-0.101-0.006l-0.128-0.004l-0.078,0.046
			l-0.041,0.078l-0.014,0.045l0.091,0.035l0.156,0.064l0.072,0.032l0.06,0.052l0.002,0.088l-0.055,0.186l-0.231,0.164l-0.26-0.005
			l-0.248,0.021l-0.133,0.082l-0.028,0.104l0.022,0.137L0.575,35.43L0.486,35.625"/>
	</g>
</g>
<g id="Layer_1">
</g>
</svg>
