<?xml version="1.0" encoding="iso-8859-1"?>
<!-- Generator: Adobe Illustrator 16.0.4, SVG Export Plug-In . SVG Version: 6.00 Build 0)  -->
<!DOCTYPE svg PUBLIC "-//W3C//DTD SVG 1.1//EN" "http://www.w3.org/Graphics/SVG/1.1/DTD/svg11.dtd">
<svg version="1.1" xmlns="http://www.w3.org/2000/svg" xmlns:xlink="http://www.w3.org/1999/xlink" x="0px" y="0px"
	 width="27.828px" height="40.736px" viewBox="0 0 27.828 40.736" style="enable-background:new 0 0 27.828 40.736;"
	 xml:space="preserve">
<g id="Layer_138">
	<g id="Layer_143">
		<path id="DISTRICT_x3D_Jhal_Magsi_x2C_PROVINCE_x3D_Balochistan" style="fill:#CCCCCC;stroke:#FFFFFF;stroke-width:1.07;" d="
			M27.299,27.282L27.299,27.282l-0.155-1.179l-0.017-0.305l-0.066-0.406l-0.284-0.939l-0.25-0.759l-0.104-0.515l-0.215-0.567
			l-0.203-0.521l-0.285-0.883l-0.217-0.646l-0.181-0.513L25.1,19.102l-0.174-0.646l-0.158-0.445l-0.006-0.313l0.058-0.994
			l0.083-0.265l0.175-0.488l0.188-0.385l0.179-0.346l0.155-0.314l0.129-0.127l0.191-0.174l0.189-0.287l0.355-0.635l0.219-0.574
			l0.027-0.238l-0.08-0.275l-0.17-0.475l-0.106-0.531l-0.127-0.465l-0.007-0.353l-0.069-0.296l-0.011-0.047l-0.248-0.586
			l-0.221-0.836l-0.271-0.598l-0.16-0.493L25.17,7.449l-0.084-0.447l-0.104-0.351l-0.2-0.322l-0.242-0.272l-0.318-0.301
			l-0.146-0.207l-0.422-0.528l-0.291-0.53l-0.17-0.436l-0.095-0.398l0.029-0.258l0.049-0.229l0.104-0.25l0.256-0.223l0.332-0.232
			l0.278-0.205l0.234-0.24l0.125-0.111l0.008-0.115l-0.034-0.096l-0.154-0.131L23.986,1.36l-0.579-0.239l-0.501-0.136l-0.54-0.067
			l-0.003-0.002l-0.574-0.029L21.17,0.857l-0.281,0.023l-0.422,0.053l-0.68,0.201l-0.742,0.258l-0.453,0.16l-0.237,0.021
			l-0.214-0.004l-0.11-0.065L17.985,1.42l0.021-0.135l0.039-0.238l0.006-0.22l-0.047-0.19l-0.076-0.074l-0.131-0.026L17.536,0.54
			l-0.431,0.103l-0.279,0.156l-0.182,0.137l-0.245,0.24L16.219,1.36l-0.105,0.164L16.002,1.86L15.836,2.34l-0.08,0.314l-0.047,0.4
			l0.053,0.485l0.062,0.371l0.08,0.388l-0.013,0.43l-0.018,0.248l-0.025,0.382l-0.08,0.344L15.645,6l-0.096,0.105l-0.149,0.068
			l-0.185,0.051l-0.227-0.006l-0.272-0.072l-0.219-0.157L14.342,5.84l-0.113-0.228l-0.236-0.416L13.725,4.79L13.45,4.566
			l-0.329-0.188L12.837,4.26l-0.294-0.062l-0.292,0.006l-0.302,0.081l-0.278,0.166l-0.128,0.098l-0.322,0.119l-0.599,0.229L10,5.146
			L9.517,5.354L9.207,5.512l-0.215,0.09L8.819,5.652L8.453,5.753L8.238,5.854L8.1,5.969L8.006,6.114L7.858,6.27L7.688,6.396
			l-0.214,0.07L7.118,6.576L6.752,6.63L6.417,6.637L6.264,6.602L5.511,6.559L5.022,6.471L4.729,6.4L4.51,6.328L3.717,5.996
			L3.692,6.564L3.458,7.604l-0.23,0.985L3.195,9.082l-0.164,0.87l-0.197,0.931L2.77,11.607l-0.131,0.9l-0.263,0.695l-0.657,0.523
			l-0.756,0.465L0.667,14.51l-0.131,0.203v0.174l0.066,0.174l0.197,0.203l0.329,0.088l0.559-0.088l0.526-0.088H2.64l0.46,0.202
			l0.633,0.603l0.427,0.378l0.23,0.405l0.264,0.609l0.263,0.318l0.395,0.174l0.46,0.059l0.46-0.029l0.361,0.029l0.23,0.116
			l0.046,0.037l0.282,0.224l0.23,0.262l0.131,0.349L7.479,20.13v0.261l0.197,0.379l0.459,0.435l0.263,0.175l0.098,0.465l0.065,1.103
			l0.197,0.348l0.164,0.203l0.23,0.146l0.426,0.696l0.432,1.332l0.196,0.552l0.13,1.016v0.755l-0.067,1.363l0.195,1.274l0.162,1.22
			v0.261l-0.099,0.377l-0.197,0.58l-0.23,0.841l0.066,1.854l-0.002,2.232l0.13,1.45l-0.004,0.051l0.417-0.011l0.202,0.08
			l0.113,0.117l0.045,0.141l0.067,0.139l0.068,0.14l0.157,0.1h0.247l0.538-0.062l0.493-0.079l0.717-0.102l0.627-0.081l0.426-0.04
			l0.538-0.061l0.516-0.08l0.604-0.08l0.224,0.04l0.248,0.118l0.2,0.061l0.112-0.021l0.156-0.199l0.203-0.158l0.312-0.16l0.47-0.198
			l0.628-0.119l0.784-0.141l0.875-0.14l0.538-0.099l0.381-0.062l0.246-0.02l0.333-0.045l-0.021-0.167l0.014-0.125l0.07-0.176
			l0.113-0.126l-0.014-0.188v-0.877l0.016-0.551l-0.058-0.188l-0.099-0.1l-0.014-0.163l-0.016-0.288l-0.07-0.188l-0.171-0.35
			l-0.396-0.477l-0.297-0.264l-0.383-0.489l-0.127-0.312L20.27,33.21v-0.238l0.07-0.362l0.113-0.728l0.027-0.351l-0.07-0.339
			l-0.212-0.889l-0.155-0.389l-0.099-0.188v-0.075l0.071-0.075l0.254-0.062l0.75-0.213l0.361-0.105l0.021-0.007l3.608-1.359
			l1.886-0.416L27.299,27.282"/>
	</g>
</g>
<g id="Layer_1">
</g>
</svg>
