<?xml version="1.0" encoding="iso-8859-1"?>
<!-- Generator: Adobe Illustrator 16.0.4, SVG Export Plug-In . SVG Version: 6.00 Build 0)  -->
<!DOCTYPE svg PUBLIC "-//W3C//DTD SVG 1.1//EN" "http://www.w3.org/Graphics/SVG/1.1/DTD/svg11.dtd">
<svg version="1.1" xmlns="http://www.w3.org/2000/svg" xmlns:xlink="http://www.w3.org/1999/xlink" x="0px" y="0px"
	 width="31.498px" height="17.426px" viewBox="0 0 31.498 17.426" style="enable-background:new 0 0 31.498 17.426;"
	 xml:space="preserve">
<g id="Layer_144">
	<g id="Layer_149">
		<path id="DISTRICT_x3D_Hangu_x2C_PROVINCE_x3D_NWFP" style="fill:#CCCCCC;stroke:#FFFFFF;stroke-width:1.07;" d="M10.96,16.795
			L10.96,16.795l0.197-0.734l0.167-0.628l0.008-0.198l0.033-0.152l0.061-0.139l0.039-0.077l0.064-0.167l0.069-0.154l0.045-0.088
			l0.039-0.096l0.002-0.096l-0.031-0.127l-0.04-0.081l-0.05-0.106l-0.017-0.084l0.043-0.123l0.062-0.125l0.054-0.099l0.049-0.104
			l0.037-0.086l-0.046-0.1l-0.148-0.087l-0.02-0.101l0.07-0.156l-0.134-0.029l-0.138,0.027l-0.1-0.019l0.028-0.073l-0.011-0.092
			l0.01-0.082l0.076-0.046l0.085-0.069l0.062-0.049l0.177-0.068l0.061-0.104l-0.012-0.118l-0.035-0.084l-0.03-0.109l-0.026-0.114
			l0.013-0.001l0.113-0.006l0.112,0.027l0.152,0.063l0.071-0.056l0.046-0.092l0.07,0.028l0.12,0.043l0.085,0.04l0.085,0.039
			l0.158,0.062l0.113,0.037l0.135,0.051l0.111,0.053l0.117,0.059l0.111,0.041l0.139,0.071l0.113,0.054l0.17,0.055l0.121,0.023
			l0.137,0.031l0.193,0.061l0.079,0.021l0.107,0.025l0.144,0.016l0.181,0.007l0.121,0.011l0.134,0.014l0.164,0.025l0.074,0.006
			l0.159,0.029l0.093,0.02l0.092,0.018l0.083,0.02l0.09,0.031l0.104,0.028l0.164,0.041l0.09,0.017l0.104,0.01l0.119,0.028
			l0.154,0.068l0.099-0.035l0.041-0.088l0.046-0.121l-0.103-0.08l-0.079-0.065l-0.035-0.062l0.062-0.094l0.073,0.005l0.099,0.012
			l0.082,0.007l0.148-0.06l0.066-0.099l0.056-0.084l0.053-0.095l0.043-0.09l0.062-0.144l0.037-0.116l0.021-0.097l0.004-0.086
			l0.074-0.058l0.072-0.043l0.146-0.058l-0.041-0.074l-0.065-0.088l-0.049-0.075l-0.047-0.07l0.11-0.024l0.08-0.002h0.003
			l0.117-0.01l0.107-0.021l0.097-0.013l0.086-0.015l0.116-0.001l0.08,0.006l0.146,0.029l0.16-0.007l0.085-0.017l0.093-0.015
			l0.118-0.015l0.102-0.018l0.147-0.029l0.077-0.03l0.148-0.036l0.129-0.023l0.132-0.015l0.1-0.019l0.047-0.016l0.025-0.008
			l0.07-0.021l0.096-0.027l0.123-0.02l0.086-0.002l0.104,0.008l0.131,0.043l0.066-0.037l0.092-0.024l0.09-0.019l0.119-0.053
			l0.088-0.025l0.076-0.027l0.099,0.018l0.122-0.004l0.083-0.021l0.079-0.012l0.142-0.024l0.09,0.017l0.02-0.012l0.076,0.008
			l0.124-0.004l0.17-0.002l0.088,0.004l0.143,0.021l0.113,0.025l0.131,0.021l0.177,0.021l0.125,0.004l0.125,0.015l0.101,0.034
			l0.104,0.037l0.047,0.018l0.195-0.009l0.145-0.034l0.115-0.027l0.097-0.076l0.071-0.078l0.121-0.166l0.076-0.15l0.003-0.1
			L23.6,10.069l-0.146,0.015l-0.109-0.085l-0.006-0.131l-0.094-0.062l-0.148-0.141l0.166-0.019l0.149,0.041l0.083,0.008l0.181-0.098
			l0.101-0.067l0.091-0.063h0.01l-0.017-0.028l-0.032-0.075l-0.011-0.091l0.078-0.077l0.109-0.036l0.145-0.025l0.106-0.023
			l0.159-0.034l0.129-0.025l0.112-0.03l0.092,0.033l0.118,0.026l0.163,0.006l0.152,0.034l0.128,0.005l0.209-0.052l0.124-0.032
			l0.086-0.071l0.065-0.103l0.058-0.088l0.074-0.096l0.084-0.076l0.047-0.057l0.028-0.075l0.032-0.09l0.041-0.116l0.021-0.09
			l0.088-0.078l0.041-0.085L26.222,8.01l-0.1,0.006l-0.128,0.004l-0.071-0.029l0.038-0.126l0.054-0.125l0.036-0.083l0.045-0.128
			l0.02-0.101l0.014-0.11l0.013-0.111l0.007-0.084V7.121l0.029-0.097l0.053-0.067l-0.092-0.037l-0.13-0.032L25.935,6.85
			l-0.118-0.072l-0.07-0.049l-0.092-0.069l-0.08-0.065L25.49,6.54l-0.108-0.042l-0.003-0.073l-0.037-0.082l-0.046-0.103l0.048-0.099
			l0.062,0.04l0.088,0.032l0.12,0.014l0.104-0.023l0.104-0.049l0.071-0.033l0.077-0.018l0.118,0.004L26.174,6.1l0.335,0.001
			l0.107-0.017l0.079-0.028l0.171-0.07l0.088-0.023l0.105-0.097l0.03-0.122l-0.008-0.075l0.009-0.131l0.022-0.128l0.02-0.09
			l0.045-0.085l0.023-0.104l-0.005-0.175l0.036-0.035l0.093-0.084l0.094-0.067l0.077-0.058l0.129-0.016l0.091,0.024l0.138,0.003
			l0.125,0.045l0.119,0.08l0.133,0.004l0.207,0.005l0.131-0.019l0.118-0.006l0.133-0.011l0.102,0.012l0.119,0.012h0.133h0.181
			l0.092,0.014l0.084,0.017l0.11-0.018l0.122-0.047l0.08-0.018l0.09-0.009l0.109-0.018l0.112-0.022l0.092-0.031l0.016-0.005
			l-0.021-0.169l-0.046-0.162l-0.052-0.132l-0.131-0.128l-0.146-0.084l-0.085-0.03l-0.083-0.063l-0.076-0.074l-0.085-0.037
			L29.443,3.83l-0.127,0.006l-0.064-0.058l0.023-0.138L29.258,3.55l0.014-0.088l0.023-0.112V3.347l-0.003-0.102l-0.024-0.136
			L29.25,3.004l0.099-0.058l0.119-0.014l0.181-0.025l0.148-0.011l0.149-0.009l0.073-0.025l0.027-0.211l0.071-0.094l0.114-0.133
			l0.056-0.062l0.099-0.048l0.154-0.064l0.098-0.028l0.059-0.104l-0.001-0.114l0.07-0.128l0.054-0.054l0.016-0.091l0.007-0.074
			l0.017-0.121l0.021-0.091l-0.108-0.049H30.6l-0.205-0.01l-0.232,0.025l-0.16,0.019l-0.191,0.013l-0.097-0.079l-0.226-0.017
			L29.267,1.37L29.17,1.361l0.122-0.15l0.132-0.046l0.064-0.093l-0.221-0.088l-0.193-0.003l-0.192-0.102L28.78,0.732l-0.146-0.183
			l-0.162-0.008L28.316,0.62l-0.111,0.092l-0.078,0.059l-0.11,0.073l-0.094,0.085l-0.115,0.067L27.66,1.04l-0.187,0.028
			l-0.151,0.018l-0.188-0.017l-0.117-0.011l-0.14-0.005l-0.115-0.006L26.74,1.043L26.712,1.09l-0.189,0.068L26.391,1.17l-0.085,0.01
			L26.18,1.211l-0.126,0.006l-0.165,0.028l-0.13,0.015L25.68,1.246l-0.115-0.004l-0.103,0.019l-0.108,0.045l-0.066,0.068
			l-0.062,0.063l-0.103,0.02l-0.164,0.012l-0.217,0.019l-0.08,0.008l-0.143,0.013l-0.133,0.045l-0.276,0.042l-0.045,0.063
			l-0.097,0.06l-0.146,0.047l-0.138,0.027l-0.091,0.015l-0.065,0.046l-0.129,0.119l-0.062,0.034l-0.048,0.025l-0.09,0.05
			l-0.107,0.076l-0.158,0.09l-0.098,0.053l-0.029,0.016l-0.118,0.065l-0.134,0.073l-0.096,0.053l-0.083,0.054l-0.13,0.042
			l-0.078,0.105l-0.083,0.084l-0.093,0.054l-0.083,0.079l-0.123,0.048l-0.091,0.042l-0.175-0.001l-0.056-0.06l-0.124,0.073
			l0.006-0.037L21.26,3.013l-0.091-0.045l-0.123,0.037l-0.071,0.042l-0.162,0.076l-0.138,0.013l-0.103,0.009l-0.081,0.001
			l-0.164-0.02l-0.131-0.004l-0.084-0.01l-0.066-0.033l-0.066-0.032l-0.115-0.102L19.78,2.873l-0.077-0.045l-0.104-0.035
			l-0.084-0.024l-0.083-0.012l-0.096-0.003L19.128,2.76L19.05,2.753l-0.093-0.015L18.88,2.719l-0.117-0.031l-0.092-0.067
			l-0.147-0.079L18.45,2.535l-0.119-0.033l-0.12-0.045l-0.079-0.018l-0.108-0.044l-0.084-0.03l-0.106-0.008l-0.104,0.019
			l-0.108,0.041l-0.144,0.084l-0.082,0.06l-0.11,0.083l-0.083,0.063l-0.093,0.029l-0.113-0.023L16.89,2.674l-0.173,0.024
			l-0.076-0.034l-0.119-0.071l-0.065-0.035l-0.084-0.041l-0.129,0.067l-0.068,0.055L15.99,2.622l-0.092-0.029l-0.079-0.004
			L15.714,2.6l-0.146,0.019L15.47,2.583l-0.072-0.032l-0.081,0.024l-0.081-0.05l-0.063-0.051L15.121,2.46L15.01,2.429l-0.098-0.025
			l-0.1-0.004l-0.126,0.019l-0.104,0.048l-0.076,0.06l-0.108,0.013l-0.07-0.027l-0.093-0.061l-0.104-0.106L14.053,2.27l-0.047-0.045
			L13.963,2.16l-0.044-0.081l-0.073-0.072l-0.121-0.021l-0.086-0.001L13.52,1.997l-0.078-0.011l-0.061-0.043l-0.007-0.094
			l-0.058-0.065l-0.146,0.018L13.07,1.832l-0.109,0.002L12.88,1.807L12.763,1.75l-0.113-0.025l-0.067-0.06l-0.137-0.052L12.347,1.58
			l-0.086-0.063l-0.084-0.05l-0.17-0.037l-0.095,0.019l-0.114,0.059L11.707,1.57l-0.102,0.016l-0.151,0.018l-0.111,0.017
			l-0.101,0.021l-0.086-0.018l-0.07-0.051l-0.089-0.044l-0.042,0.004l-0.057,0.911l-0.004,0.008l-0.028,0.079l-0.053,0.077v0.094
			l-0.075,0.053l-0.078,0.03l-0.084,0.052l-0.054,0.055l-0.045,0.061l-0.072,0.051l0.01,0.088l0.041,0.12l0.02,0.109l-0.014,0.084
			l-0.018,0.092L10.42,3.621l-0.034,0.066l-0.083,0.128l-0.073,0.108l-0.025,0.078l0.007,0.112l0.036,0.117l0.021,0.081l0.039,0.064
			l-0.042,0.073l0.025,0.106l0.066,0.082l0.074,0.044l0.079,0.073l0.043,0.085L10.504,4.9L10.5,4.979l-0.029,0.082l0.005,0.075
			l0.027,0.067l0.054,0.063l0.058,0.061l0.036,0.101l-0.002,0.086l-0.016,0.102l-0.006,0.091l-0.055,0.047L10.57,5.755l-0.116-0.04
			l-0.069-0.027L10.229,5.66L10.15,5.648l-0.112-0.02L9.955,5.623l-0.08-0.021L9.713,5.576l-0.105-0.03L9.524,5.512L9.426,5.456
			L9.348,5.414L9.221,5.388L9.03,5.395L8.953,5.417L8.815,5.456L8.754,5.508l-0.119,0.1L8.556,5.683L8.492,5.769L8.419,5.864
			L8.354,5.962L8.291,6.034L8.263,6.061L8.257,6.066L8.161,6.125L8.002,6.21L7.938,6.247L7.836,6.254l-0.084-0.06L7.636,6.149
			L7.559,6.128L7.457,6.104L7.312,6.112L7.227,6.105L7.119,6.098L7.008,6.11L6.837,6.119L6.731,6.13L6.598,6.145L6.494,6.146
			L6.418,6.104l-0.081-0.06L6.212,6.026l-0.1,0.006l-0.12,0.006l-0.08-0.007L5.825,6.063L5.763,6.145L5.737,6.256L5.6,6.363
			L5.54,6.458L5.454,6.53L5.413,6.654l0.016,0.074L5.403,6.831L5.245,7.027L5.197,7.088L5.149,7.155l-0.1,0.117L4.965,7.37
			L4.911,7.438L4.856,7.512L4.803,7.583L4.75,7.646L4.661,7.763L4.609,7.827L4.513,7.947L4.447,8.028L4.385,8.066L4.298,8.102
			L4.14,8.144l-0.073,0.02L3.98,8.19L3.899,8.215L3.8,8.253L3.662,8.299L3.524,8.342L3.433,8.369L3.264,8.323L3.161,8.304
			L3.089,8.303L2.987,8.271L2.896,8.222L2.804,8.21L2.673,8.179L2.558,8.2L2.454,8.213L2.355,8.202L2.222,8.206L2.145,8.242
			L2.03,8.287L1.893,8.312L1.813,8.346L1.718,8.393l-0.19,0.062L1.452,8.479L1.291,8.547L1.212,8.589L1.204,8.593L1.109,8.586
			l-0.1-0.011L0.883,8.563l-0.146-0.04L0.629,8.527L0.566,8.581L0.541,8.606L0.572,9.75l0.057,0.058l0.066,0.048l0.079,0.031
			L0.87,9.908l0.089,0.03l0.088,0.132l0.05,0.053L1.18,10.18l0.106,0.054l0.098,0.017l0.084,0.014l0.083,0.027l0.09,0.066
			l0.073,0.07l0.075,0.055l0.068,0.059l0.071,0.053l0.146,0.059l0.087,0.045l0.067,0.072l0.097,0.088l0.079,0.072l0.036,0.134
			l-0.004,0.134L2.34,11.264l-0.065,0.103l-0.004,0.076L2.27,11.588l-0.021,0.076l-0.064,0.103l-0.042,0.146l0.09,0.022l0.079,0.006
			l0.157-0.009l0.034-0.096l0.075-0.02l0.085,0.004l0.061,0.047l0.039,0.09l0.072,0.125l0.112,0.033l0.083,0.107l0.014,0.09
			l-0.031,0.1l-0.035,0.096l-0.032,0.088l-0.031,0.105l0.045,0.116l0.097,0.042l0.123,0.043l0.089,0.051l0.099,0.073l0.041,0.097
			l0.018,0.103v0.062l-0.001,0.045l-0.009,0.121l0.066,0.129l0.059,0.049l0.108,0.076l0.103,0.098l0.106,0.078l0.121,0.076
			l0.148,0.062l0.205,0.074l0.089,0.031l0.135,0.037l0.199,0.063l0.11,0.041l0.06,0.042l0.103,0.078l0.131,0.064l0.067,0.051
			l0.165,0.029l0.076-0.02l0.139-0.021l0.156-0.01l0.108-0.007l0.105-0.011l0.021,0.105l-0.037,0.088l-0.044,0.08l-0.049,0.1
			l-0.037,0.084l0.026,0.086l0.099-0.024l0.07-0.044l0.081-0.049l0.081,0.007l0.133,0.024l0.111,0.01l0.068-0.026l0.101-0.022
			l0.106,0.021l0.117,0.047l0.094,0.065l0.11,0.077l0.071,0.039l0.153,0.041l0.123,0.014l0.128,0.033l0.119,0.012l0.146,0.018
			l0.132,0.033l0.111,0.024l0.144-0.04l0.112-0.062l0.077-0.016l0.102,0.021l0.108,0.033l0.014,0.09L8.523,15.41l-0.024,0.045
			l-0.07,0.039l-0.12,0.038L8.243,15.5l-0.146-0.014l-0.136,0.082l-0.017,0.105l0.115,0.035l0.064,0.035l0.017,0.08l0.054,0.051
			l0.041,0.078l0.075,0.086l0.083,0.025l0.049,0.096l0.045,0.061l0.087,0.039l0.116,0.033l0.074,0.017l0.075,0.021l0.091,0.019
			l0.062,0.047v0.079l-0.011,0.129l0.066,0.081l0.112,0.009l0.086-0.003l0.085,0.095l0.071,0.02l0.085,0.01l0.094,0.044l0.088,0.013
			l0.092,0.018h0.137h0.133l0.123,0.002l0.139-0.016l0.129-0.017l0.104-0.011l0.092,0.015l0.107-0.017l0.112-0.02L10.96,16.795"/>
	</g>
</g>
<g id="Layer_1">
</g>
</svg>
