<?xml version="1.0" encoding="iso-8859-1"?>
<!-- Generator: Adobe Illustrator 16.0.4, SVG Export Plug-In . SVG Version: 6.00 Build 0)  -->
<!DOCTYPE svg PUBLIC "-//W3C//DTD SVG 1.1//EN" "http://www.w3.org/Graphics/SVG/1.1/DTD/svg11.dtd">
<svg version="1.1" xmlns="http://www.w3.org/2000/svg" xmlns:xlink="http://www.w3.org/1999/xlink" x="0px" y="0px"
	 width="22.337px" height="10.098px" viewBox="0 0 22.337 10.098" style="enable-background:new 0 0 22.337 10.098;"
	 xml:space="preserve">
<g id="Layer_10">
	<g id="Layer_15">
		
			<path id="DISTRICT_x3D_Tribal_Area_adj_Kohat_x2C_PROVINCE_x3D_F.A.T.A." style="fill:#CCCCCC;stroke:#FFFFFF;stroke-width:1.07;" d="
			M1.97,5.031L1.97,5.031l0.009-0.004L2.062,5l0.193,0.016l0.141,0.06h0.113l0.153-0.003l0.079-0.026L2.875,4.99l0.172-0.059
			l0.134-0.003l0.104,0.099L3.39,5.163L3.45,5.205L3.538,5.22l0.099,0.03l0.157,0.088l0.07-0.037L3.95,5.305l0.034,0.001
			l0.082,0.023l0.138,0.008l0.097-0.011L4.336,5.24l0.091-0.11l0.062-0.082l0.045-0.103l0.078-0.104l0.119-0.09l0.08-0.027
			l0.088,0.04l0.07,0.054l0.067,0.03l0.107,0.023l0.062,0.083l0.032,0.14l0.085,0.014l0.099-0.02l0.104-0.011l0.102,0.029
			l0.095,0.112l0.12,0.046l0.096,0.019l0.1,0.029L6.1,5.357L6.104,5.36l0.117,0.051l0.098,0.047l0.085,0.025l0.078,0.024
			l0.077,0.013l0.11,0.03l0.092,0.055l0.059,0.048l0.134,0.072l0.169,0.008l0.084,0.024l0.163-0.004L7.454,5.74l0.077-0.024
			l0.08-0.017l0.018,0.027l0.113,0.03l0.172,0.003l0.113-0.045l0.204-0.091l0.232-0.118l0.141-0.036l0.095-0.011l0.09,0.015
			l0.107,0.065l0.137,0.007l0.136-0.008l0.184-0.076l0.12-0.081L9.58,5.312l0.177-0.085l0.065,0.028l0.114,0.071l0.043,0.069
			l0.017,0.071l0.065,0.089l0.145,0.054l0.107,0.001l0.102,0.015l0.104-0.019l0.095,0.03l0.21-0.069l0.062,0.05l0.093,0.09
			l0.118,0.043l0.139-0.026L11.356,5.7l0.089,0.022l0.088,0.008l0.169,0.009l0.134-0.013l0.097-0.006l0.138-0.017l0.143-0.04
			l0.161,0.004l0.12-0.102l-0.047-0.064l-0.061-0.137l0.071-0.033l0.13-0.026l0.219-0.027l0.227-0.03l0.228-0.037l0.188-0.018
			l0.121,0.062l0.035,0.064l0.044,0.09l-0.003,0.122l-0.062,0.056l0.064,0.124l0.109,0.046l0.09,0.081l0.024,0.097l-0.063,0.056
			l-0.17,0.072l0.097,0.116l0.058,0.139l0.048,0.08l0.094,0.12l0.016,0.075l-0.076,0.062l-0.151,0.039l-0.148,0.031l-0.092,0.052
			l-0.084,0.034l-0.091-0.004l-0.165,0.025L13.035,6.86l-0.182,0.084L12.79,7l-0.116,0.02l-0.133-0.004l-0.084-0.01L12.3,6.984
			l-0.113-0.005l-0.162-0.005l-0.184-0.002l-0.006,0.109l0.072,0.109L11.85,7.319l0.096,0.099v0.078l-0.095,0.049l-0.112,0.076
			l-0.062,0.041L11.603,7.68l-0.128,0.015l-0.117,0.017l-0.11,0.006h-0.162l-0.142,0.011l-0.188,0.05L10.63,7.87l-0.069,0.104
			l-0.086,0.029l-0.271,0.047l0.022,0.088l0.15,0.029l0.083,0.066l0.003,0.01l0.014,0.082l0.105,0.035L10.7,8.37l0.126,0.019
			L10.979,8.4l0.17,0.006l0.079,0.061l-0.008,0.09l0.003,0.051l0.006,0.087l0.031,0.092l-0.019,0.103l-0.085,0.06l-0.186,0.17
			l0.11,0.013l0.056,0.051l0.076-0.004l0.095-0.006l0.073,0.024l0.178,0.048l-0.022,0.085l0.058,0.065l0.135,0.031l0.11,0.123
			l0.062,0.004l0.026,0.002l0.104-0.041l0.09-0.047l0.116-0.063l0.132-0.021l0.112-0.008l0.135-0.015l0.189-0.009l0.124,0.023
			l0.145-0.027l0.121-0.062l0.12-0.013l0.157-0.018L13.618,9.2l0.176-0.063l0.091-0.071l0.102-0.002l0.103-0.034l0.134-0.057
			l0.082,0.078l0.058,0.047l0.037,0.082l0.049,0.095l0.104,0.017l0.112,0.024l0.137,0.048l0.046-0.062l0.116-0.022l0.133-0.022
			l0.135-0.021l0.079-0.083l0.036-0.07l0.076-0.039l0.131-0.062l0.122-0.051l0.086-0.039l0.09-0.073l0.062-0.048l0.111-0.024
			l0.128-0.032l0.184-0.02l0.14-0.08l0.102-0.062l0.101-0.059l0.112-0.083l0.069-0.041l0.159-0.081l0.095-0.029l0.082-0.031
			l0.112-0.051l0.176-0.062l0.171-0.093l0.127-0.026l0.091-0.003l0.119,0.005l0.006-0.002l0.098-0.003l0.139-0.019l0.077-0.053
			l0.107-0.144l0.122-0.132l0.085-0.059l0.011-0.008l0.124-0.056l0.104-0.041l0.228-0.104l0.104-0.046l0.137-0.052l0.138,0.018
			l0.157,0.076l0.13-0.027l0.12-0.103l0.091-0.06l0.168-0.014l0.146,0.032l0.131-0.062l0.146-0.031l0.226-0.102l0.125-0.049
			l0.146-0.058l0.176-0.077l0.135-0.059l0.091-0.051l-0.012-0.08L21.36,6.561l0.031-0.116l0.066-0.088l0.151-0.151l0.082-0.078
			l0.035-0.101l-0.094-0.102l-0.092-0.152l-0.11-0.183l-0.045-0.062l-0.154,0.021l-0.163,0.06l-0.098,0.024L20.868,5.61
			l-0.122-0.119l-0.077-0.112L20.572,5.32l-0.089-0.022l-0.168-0.033l-0.074-0.033l-0.077-0.105l-0.092-0.164L19.996,4.85
			l-0.082-0.087l-0.092-0.071l-0.413-0.051l-1.062-0.254l-0.933-0.265l-0.699-0.326l-1.428-0.688l-1.68-0.857L13.1,1.973
			l-0.314-0.387L12.54,1.265l-0.33,0.171l-0.062,0.027l-0.415,0.15l-0.115,0.006l-0.103,0.01l-0.08,0.023l-0.074,0.015l-0.19,0.013
			l-0.477,0.036l-0.128-0.018l-0.153-0.003l-0.138,0.021l-0.133,0.04L10.004,1.74L9.896,1.727L9.775,1.744L9.349,1.807L9.163,1.729
			L9.155,1.727L9.139,1.749L7.579,1.74L6.574,1.697L6.229,1.693L5.726,1.776L5.073,1.788L4.8,1.747L4.271,1.743L3.897,1.731
			L3.474,1.689l-0.411-0.1L2.663,1.56L2.285,1.443L1.944,1.306L1.184,1.053L0.726,0.869l0.066,0.32L0.875,1.63l0.112,0.295
			l0.05,0.374L1.046,2.64l0.055,0.258l0.106,0.507l0.075,0.274L1.244,4.082L1.378,4.29l0.297,0.477L1.97,5.031"/>
	</g>
</g>
<g id="Layer_1">
</g>
</svg>
