<?xml version="1.0" encoding="iso-8859-1"?>
<!-- Generator: Adobe Illustrator 16.0.4, SVG Export Plug-In . SVG Version: 6.00 Build 0)  -->
<!DOCTYPE svg PUBLIC "-//W3C//DTD SVG 1.1//EN" "http://www.w3.org/Graphics/SVG/1.1/DTD/svg11.dtd">
<svg version="1.1" xmlns="http://www.w3.org/2000/svg" xmlns:xlink="http://www.w3.org/1999/xlink" x="0px" y="0px"
	 width="32.043px" height="33.986px" viewBox="0 0 32.043 33.986" style="enable-background:new 0 0 32.043 33.986;"
	 xml:space="preserve">
<g id="Layer_54">
	<g id="Layer_59">
		<path id="DISTRICT_x3D_Sialkot_x2C_PROVINCE_x3D_Punjab" style="fill:#CCCCCC;stroke:#FFFFFF;stroke-width:1.07;" d="
			M15.759,33.612L15.759,33.612l0.083-0.147l0.093-0.164l0.099-0.114l0.126-0.091l0.167-0.137l0.15-0.049l0.18-0.025l0.166,0.022
			l0.146,0.062l0.133-0.035l0.135,0.004l0.053,0.006l0.074-0.014l0.043-0.033l0.09-0.01l0.1-0.061l0.05-0.066l0.058-0.125
			l0.035-0.092l0.029-0.022l0.054,0.003l0.03,0.025l0.046,0.047l0.035,0.026l0.031,0.013h0.032l0.025-0.013l0.026-0.03l0.013-0.017
			l0.042-0.026h0.073l0.076,0.024l0.051,0.037l0.042,0.034l0.049,0.002l0.03-0.026l0.021-0.082l0.01-0.12l-0.048-0.162l-0.051-0.146
			l-0.006-0.023l0.002-0.024l0.048-0.058l0.092-0.141l0.027-0.039l-0.001-0.045l-0.015-0.07l-0.04-0.072l-0.005-0.049l0.039-0.057
			l0.062-0.061l0.058-0.018l0.184-0.046l0.11-0.058l0.142-0.086l0.197-0.195l0.147-0.186l0.072-0.095l0.123-0.122l0.147-0.138
			l0.104-0.124l0.072-0.09l0.106-0.082l0.068-0.038l0.097-0.047l0.111-0.074l0.136-0.103l0.079-0.08l0.057-0.039l0.056-0.025
			l0.065-0.014l0.062,0.003l0.115,0.03l0.121,0.022l0.094,0.013l0.083-0.015l0.097-0.04l0.074-0.062l0.078-0.068l0.044-0.04
			l0.051-0.032l0.042-0.009l0.061,0.003l0.133,0.023h0.136l0.065-0.01l0.068-0.035l0.07-0.072l0.053-0.042l0.033-0.009h0.094
			l0.107-0.035l0.074-0.069l0.079-0.079l0.064-0.042l0.071-0.038l0.045-0.021l0.047-0.005l0.093,0.012l0.077,0.011l0.058-0.007
			l0.06-0.031l0.057-0.039l0.053-0.043l0.04-0.057l0.031-0.044l0.03-0.022l0.075-0.023l0.069-0.003l0.077,0.008l0.084,0.024
			l0.093,0.016l0.074-0.01l0.052-0.033l0.043-0.04l0.044-0.099l0.05-0.24l0.053-0.213L24,28.202l0.008-0.131l0.004-0.11l-0.019-0.05
			l-0.009-0.046l0.011-0.027l0.058-0.056l0.075-0.08l0.023-0.058l-0.008-0.066l-0.041-0.109l-0.088-0.133l-0.157-0.214l-0.118-0.177
			l-0.168-0.186l-0.159-0.179l-0.101-0.137l-0.041-0.117l-0.023-0.13l0.007-0.135l0.023-0.059l0.087-0.063l0.08-0.083l0.108-0.146
			l0.065-0.137l0.1-0.168l0.063-0.17l0.014-0.051l-0.014-0.051l-0.026-0.088l0.013-0.062l0.033-0.062l0.03-0.015l0.034-0.019
			l0.04,0.002l0.064,0.023l0.039,0.021l0.116,0.026l0.064,0.006l0.074-0.006l0.055-0.024l0.027-0.03l0.006-0.031l-0.014-0.095
			l-0.014-0.223l-0.029-0.151l-0.002-0.049l0.015-0.018l0.025-0.021l0.044-0.033l0.098-0.043l0.081-0.044l0.039-0.04l0.008-0.042
			v-0.055l-0.022-0.077l-0.046-0.098l-0.061-0.075l-0.053-0.065l-0.025-0.043l-0.008-0.066l0.013-0.057l0.023-0.048l0.059-0.073
			l0.061-0.108l0.048-0.084l0.04-0.036l0.043-0.021l0.04-0.002l0.045,0.014h0.023l0.025-0.012l0.021-0.037l0.027-0.029l0.038-0.022
			l0.036,0.003l0.034,0.036l0.062,0.042l0.108,0.04l0.134,0.021l0.22,0.013l0.077,0.015l0.08,0.028l0.098,0.05l0.043,0.037
			l0.055,0.047l0.038,0.037l0.08,0.032l0.09,0.008l0.053-0.008l0.072-0.031l0.064-0.052l0.083-0.079l0.049-0.058l0.054-0.049
			l0.028-0.016l0.033-0.005l0.05-0.001l0.023,0.016l0.047,0.03l0.047,0.037l0.064,0.014l0.068-0.011l0.015-0.018l0.004-0.041
			l-0.008-0.129l-0.021-0.103l-0.02-0.058l-0.048-0.06l-0.01-0.046l0.004-0.038l0.021-0.051l0.035-0.04l0.03-0.025l0.062-0.029
			l0.042-0.002l0.036,0.007l0.039,0.019l0.029,0.04l0.044,0.03l0.048,0.01h0.073l0.079-0.021l0.032,0.002l0.118,0.017l0.137,0.032
			l0.137,0.035l0.135,0.021h0.072l0.051-0.011l0.021-0.023l0.007-0.037l0.004-0.056l0.023-0.044l0.036-0.036l0.014-0.03l0.005-0.06
			l-0.011-0.077l-0.04-0.074l-0.09-0.063l-0.062-0.069l-0.038-0.082l0.009-0.062l0.013-0.038l0.053-0.045l0.058-0.042L27.982,22
			l0.041-0.013l0.046-0.004l0.048,0.01l0.04,0.022l0.044,0.006l0.033-0.006l0.033-0.057l0.052-0.205l0.076-0.201l0.071-0.243
			l0.085-0.329l0.056-0.201l0.053-0.157V20.58l-0.02-0.029l-0.066-0.037l-0.064-0.06l-0.018-0.046l-0.001-0.045l0.022-0.029
			l0.051-0.019l0.087-0.017l0.087-0.006l0.144,0.008l0.058-0.008l0.026-0.02l0.012-0.055l0.059-0.297l0.01-0.064l-0.007-0.031
			l-0.022-0.021l-0.044-0.017l-0.046-0.041l-0.022-0.028l-0.021-0.08l0.025-0.09l0.06-0.076l0.041-0.053l0.052-0.037l0.042-0.019
			l0.054-0.004l0.057,0.026l0.158,0.022l0.18,0.009l0.103-0.005l0.087-0.013l0.14-0.053l0.103-0.061l0.084-0.079l0.086-0.106
			l0.142-0.184l0.088-0.142l0.096-0.075l0.068-0.038l0.149-0.081l0.146-0.123l0.151-0.139l0.097-0.146l0.08-0.229l0.116-0.306
			l0.033-0.257l-0.004-0.372l0.145-0.885l-0.133-0.091l-0.077-0.006l-0.317-0.022l-1.017,0.088l-0.359-0.163l-0.021-0.029
			l-0.22-0.318l-0.098-0.142l-0.259-0.159l-0.63-0.159l-0.212-0.133l-0.489-0.083l-0.386-0.064l-0.323,0.003l-0.373,0.003
			l-0.818,0.498l-0.707,0.036l-0.851,0.042L24.03,15.52l-0.227,0.016l-0.202,0.015l-0.06-0.034l-0.111-0.062l-0.935-0.01
			l-0.942-0.133l-0.484-0.338l-0.104-0.21l-0.118-0.236l-0.036-0.192l-0.055-0.29l0.16-0.59l-0.082-0.278l-0.022-0.079l-0.724-0.517
			l-0.048-0.035l-0.027-0.025l-0.054-0.049l-0.316-0.287l-0.053-0.142l-0.128-0.345l-0.197-1l-0.034-0.479l-0.011-0.148l0.112-0.237
			l0.181-0.379l0.382-0.477l0.274-0.218l0.173-0.138l0.291-0.501l-0.011-0.1l-0.026-0.243l-0.245-0.359L20.345,7.41l-0.298-0.223
			l-0.329-0.499l-0.169-1.079l0.488-1.513l0.104-0.145l0.151-0.212l-0.01-0.067l-0.012-0.065l0.08-0.119l0.345-0.504l0.412-0.603
			l0.045-0.087l0.241-0.471l0.241-0.728l-0.14-0.526l-0.071,0.006l-0.602,0.056l-0.274,0.145l-0.53,0.278l-0.809,0.213l-0.025,0.03
			l-0.141,0.169l-0.022,0.216l-0.009,0.086l0.009,0.04l0.17,0.747l-0.362,0.591l-0.751,0.83l-0.855,0.035l-0.568,0.134l-0.053,0.012
			l-0.195-0.079l-0.036-0.014l-0.158,0.009L16.1,4.078l-1.076,0.438l-0.4,0.164l-0.826-0.548l-0.372-0.247l-0.953-0.531
			l-0.076-0.111l-0.491-0.25l-0.11-0.258l-0.073-0.171l-0.3-0.057h-0.312h-0.005l-0.003,0.001l0,0l0.013,0.031l0.02,0.054
			l0.012,0.071L11.152,2.7l0.033,0.216l0.194,0.238l0.002,0.039l-0.018,0.022l-0.05,0.056l-0.08,0.066l-0.153,0.088l-0.037,0.068
			l-0.003,0.038l0.046,0.072l0.022,0.044l-0.007,0.064l-0.036,0.057l-0.07,0.028l-0.123,0.02l-0.166,0.007l-0.215-0.017
			l-0.064-0.003l-0.053,0.029L10.371,3.88l0.018,0.022l0.067,0.041l0.255,0.164l0.353,0.223l0.077,0.074l0.008,0.059L11.1,4.525
			l-0.105,0.064l-0.128,0.095l-0.119,0.148l-0.023,0.053l-0.012,0.074l0.021,0.071l0.055,0.045l0.088,0.016l0.102,0.011l0.159-0.013
			l0.212-0.021l0.089,0.005l0.069,0.014l0.054,0.046l0.075,0.096l0.037,0.093l0.019,0.184l-0.027,0.127l-0.066,0.115l-0.073,0.05
			L11.42,5.831l-0.135,0.009l-0.146-0.008l-0.126-0.018l-0.156-0.041L10.806,5.77l-0.02,0.01l-0.015,0.01l0.005,0.021l0.024,0.104
			l0.071,0.144l0.075,0.09l0.044,0.018h0.096l0.123-0.025l0.265-0.051l0.18-0.012l0.096,0.005l0.066,0.036l0.027,0.05l0.014,0.076
			l-0.03,0.165l-0.099,0.28l-0.093,0.371l-0.079,0.211L11.44,7.459l-0.234,0.257l-0.272,0.243l-0.207,0.124L10.569,8.15l-0.142,0.03
			l-0.104,0.011L10.245,8.23l-0.18,0.104L9.906,8.422L9.65,8.603L9.367,8.818l-0.354,0.25L8.761,9.227L8.287,9.523L7.663,9.975
			l-0.301,0.194l-0.179,0.164l-0.132,0.122l-0.125,0.143l-0.338,0.137L6.511,10.86l-0.087,0.019l-0.12,0.02l-0.114,0.019
			l-0.091,0.005l-0.104,0.011L5.91,10.938L5.733,10.92l-0.165-0.016L5.504,10.9l-0.04,0.017L5.406,10.95l-0.067,0.043l-0.064,0.036
			l-0.064,0.02l-0.13,0.037l-0.126,0.032l-0.047,0.004L4.869,11.12L4.82,11.103l-0.057-0.053l-0.056-0.044l-0.063-0.046
			l-0.059-0.027l-0.07-0.018l-0.151-0.015l-0.165-0.011L4.146,10.89L4.104,10.9l-0.088,0.057l-0.197,0.128L3.671,11.18l-0.103,0.053
			l-0.09,0.047l-0.062,0.038l-0.102,0.044l-0.072,0.02l-0.098,0.011l-0.116,0.006l-0.085,0.013l-0.12,0.065l-0.067,0.017
			l-0.168,0.044l-0.14,0.025l-0.107,0.025l-0.056,0.021l-0.04,0.041l-0.021,0.033l-0.045,0.083l-0.041,0.123L2.065,12.09
			l-0.043,0.084l-0.043,0.04l-0.06,0.044l-0.071,0.049l-0.095,0.043l-0.146,0.056l-0.107,0.022l-0.108,0.01L1.279,12.45H1.238
			l0.033,0.353v0.298l-0.011,0.098L1.185,13.26l-0.076,0.05l-0.022,0.065l-0.019,0.098l-0.05,0.071L0.93,13.627L0.81,13.7
			l-0.103,0.044l-0.023,0.043l0.033,0.027l0.135,0.031l0.115-0.002l0.063-0.001l0.032,0.021l0.015,0.07L1.1,14.112l0.017,0.162
			l0.004,0.179l0.055,0.107l0.026,0.097l0.002,0.076l-0.029,0.065l-0.058,0.045l-0.023,0.071l0.023,0.227L1.1,15.277l-0.012,0.07
			l0.008,0.027l0.024,0.016h0.026l0.038,0.016l0.014,0.038l-0.005,0.043l-0.05,0.077v0.021l0.015,0.049l-0.03,0.049l-0.052,0.033
			l-0.096,0.04l-0.037,0.039L0.92,15.838l-0.019,0.109l-0.021,0.13l-0.05,0.104L0.77,16.35l-0.023,0.12l0.035,0.13l0.087,0.14
			l0.077,0.053l0.071,0.021l0.021,0.038v0.021l-0.006,0.033l-0.044,0.044l-0.03,0.044l0.015,0.032l0.02,0.038l-0.006,0.032
			l-0.038,0.028l-0.038,0.022l-0.051,0.028l-0.005,0.043l0.008,0.043l0.192,0.355l0.203,0.47l0.021,0.107l-0.012,0.061l-0.036,0.086
			l-0.044,0.084l-0.087,0.105l-0.119,0.104l-0.036,0.082l0.008,0.065l0.08,0.14l0.197,0.279l0.117,0.091l0.084,0.037l0.09,0.021
			h0.058l0.104,0.002l0.052,0.016l0.039,0.032l0.04,0.075l0.008,0.082l0.043,0.188l0.07,0.313l0.024,0.199l-0.005,0.107
			l-0.074,0.094l-0.082,0.057l-0.107,0.072l-0.057,0.039l-0.013,0.043l0.04,0.074l0.099,0.074l0.084,0.025l0.063,0.017l0.021,0.021
			l0.021,0.043l0.041,0.146l0.041,0.119l0.06,0.068l0.078,0.075l0.047,0.075l0.035,0.124l0.008,0.103l0.017,0.133l0.007,0.062
			l0.027,0.098l0.046,0.037l0.033,0.03l-0.012,0.048l-0.106,0.043l0.025,0.062l0.026,0.055l0.024,0.052l0.036,0.019l0.087,0.017
			l0.074,0.036l0.062,0.047l0.041,0.077L2.662,22.5l0.003,0.062l-0.013,0.04l-0.029,0.021l-0.049,0.019l-0.049,0.033l-0.043,0.037
			l-0.035,0.041l-0.019,0.029l-0.04,0.02l-0.026,0.019l-0.021,0.026L2.34,22.889l0.033,0.039l0.062,0.041l0.085,0.059l0.05,0.045
			l0.019,0.045l-0.005,0.038l-0.023,0.074l-0.021,0.042l-0.035,0.027l-0.039,0.018l-0.058,0.01l-0.031,0.006l-0.041,0.022
			l-0.018,0.024L2.31,23.407l0.007,0.033l0.021,0.028l0.042,0.021l0.04,0.004l0.051,0.011l0.027,0.023l0.013,0.016l0.012,0.051
			l0.021,0.041l0.044,0.039l0.053,0.043l0.061,0.035l0.098,0.049l0.095,0.062l0.022,0.043l0.031,0.066l0.048,0.084l0.059,0.09
			l0.035,0.066l0.025,0.064l0.033,0.113l0.021,0.104l0.031,0.073l0.097,0.059l0.168,0.086l0.105,0.033l0.145,0.049l0.204,0.067
			L4.08,24.93l0.219,0.074l0.18,0.045L4.58,25.06l0.161,0.006l0.175,0.002l0.223-0.005l0.164-0.02l0.146-0.011l0.104,0.007
			l0.114,0.034l0.078,0.034l0.094,0.027L5.91,25.18l0.056,0.055l0.03,0.102l0.051,0.195l0.051,0.189L6.12,25.83l0.022,0.096v0.103
			l0.002,0.049v0.103L6.13,26.289l-0.02,0.112l0.021,0.119l0.005,0.116l0.021,0.102l0.031,0.082l0.034,0.05l0.067,0.065l0.118,0.062
			l0.098,0.024l0.098,0.015l0.095,0.039l0.072,0.049l0.039,0.047l0.027,0.058l0.016,0.036l0.004,0.051l0.012,0.074l0.025,0.037
			l0.068,0.06l0.149,0.104l0.177,0.109l0.102,0.057l0.062,0.021l0.052,0.004l0.047-0.017l0.062-0.047l0.081-0.07l0.06-0.029
			l0.056-0.009l0.033,0.012l0.022,0.034l0.014,0.061l0.009,0.064l0.034,0.076l0.057,0.096l0.065,0.149l0.059,0.134l0.042,0.072
			l0.02,0.095l0.006,0.071l0.007,0.054l0.018,0.022l0.04,0.013l0.064,0.008l0.119-0.022l0.062-0.006l0.104-0.002l0.083-0.007
			l0.057-0.017h0.055l0.076,0.022l0.076,0.03l0.104,0.02l0.12-0.006l0.071-0.021l0.071-0.042l0.097-0.055l0.083-0.037l0.061-0.026
			l0.059-0.006l0.047,0.013l0.024,0.043L9.66,28.534l0.007,0.077l0.03,0.049l0.066,0.044l0.139,0.042l0.205,0.038l0.114,0.015
			l0.056-0.004l0.029-0.012l0.014-0.027v-0.051L10.3,28.631l-0.041-0.078l-0.028-0.066l-0.008-0.05l0.021-0.033l0.035-0.008
			l0.08,0.013l0.104,0.025l0.141,0.031l0.09,0.018l0.091,0.003l0.102-0.015l0.088,0.007l0.073,0.021l0.028,0.043l0.016,0.04
			l-0.007,0.052l-0.021,0.106l-0.005,0.063l0.02,0.043l0.028,0.018l0.05,0.005l0.081-0.01l0.048,0.002l0.066,0.021l0.135,0.069
			l0.242,0.069l0.178,0.053l0.097,0.035l0.06,0.015l0.062-0.003l0.064-0.029l0.031-0.029l0.043-0.014l0.036,0.01l0.021,0.035
			l0.049,0.027l0.09,0.016l0.129,0.016l0.062,0.029l0.041,0.033l0.058,0.004l0.082,0.002l0.055,0.01l0.039,0.037l0.023,0.051
			l0.021,0.078l0.017,0.06l-0.005,0.032l-0.026,0.05l-0.046,0.037l-0.027,0.029l-0.005,0.038l-0.013,0.031l-0.026,0.026l-0.04,0.019
			l-0.034,0.018l-0.013,0.021l-0.012,0.028l-0.025,0.021l-0.03,0.016l-0.017,0.027l-0.008,0.052l0.005,0.073l0.006,0.053
			l0.028,0.017l0.061,0.015h0.083l0.048,0.002l0.029,0.011l0.017,0.028l0.008,0.033l-0.015,0.027l-0.021,0.027l-0.014,0.051
			l-0.007,0.052l-0.008,0.058l0.011,0.055l0.066,0.042l0.105,0.051l0.11,0.045l0.045,0.027l0.051,0.005l0.028-0.006l0.043,0.013
			l0.053,0.04l0.116,0.087l0.076,0.065l0.026,0.033l0.023,0.055l0.041,0.057l0.1,0.077l0.086,0.079l0.069,0.068l0.021,0.052
			l0.008,0.05l-0.001,0.04l-0.028,0.035l-0.044,0.04l-0.048,0.027l-0.05,0.016l-0.058,0.009l-0.063-0.003l-0.035,0.005l-0.051,0.019
			l-0.039,0.035l-0.04,0.043l-0.026,0.043l-0.022,0.07l-0.009,0.059l0.024,0.055l0.048,0.051l0.026,0.061l0.017,0.058l0.037,0.053
			l0.055,0.029l0.108,0.036l0.101,0.048l0.11,0.071l0.062,0.051l0.021,0.039l0.01,0.049l0.006,0.046l0.018,0.054l0.047,0.031
			l0.054,0.038l0.01,0.012l0.032,0.039l0.041,0.045l0.038,0.048l0.019,0.051l0.028,0.067l0.021,0.063l0.023,0.029l0.038,0.021
			l0.064,0.012l0.104,0.025l0.287,0.046l0.305,0.029l0.061,0.018l0.052,0.021l0.066,0.05l0.065,0.062l0.086,0.088l0.066,0.104
			l0.064,0.117l0.021,0.07l0.018,0.086L15.759,33.612"/>
	</g>
</g>
<g id="Layer_1">
</g>
</svg>
