<?xml version="1.0" encoding="iso-8859-1"?>
<!-- Generator: Adobe Illustrator 16.0.4, SVG Export Plug-In . SVG Version: 6.00 Build 0)  -->
<!DOCTYPE svg PUBLIC "-//W3C//DTD SVG 1.1//EN" "http://www.w3.org/Graphics/SVG/1.1/DTD/svg11.dtd">
<svg version="1.1" xmlns="http://www.w3.org/2000/svg" xmlns:xlink="http://www.w3.org/1999/xlink" x="0px" y="0px"
	 width="89.811px" height="83.699px" viewBox="0 0 89.811 83.699" style="enable-background:new 0 0 89.811 83.699;"
	 xml:space="preserve">
<g id="Layer_179">
	<g id="Layer_184">
		<path id="DISTRICT_x3D_Awaran_x2C_PROVINCE_x3D_Balochistan" style="fill:#CCCCCC;stroke:#FFFFFF;stroke-width:1.07;" d="
			M13.85,49.959L13.85,49.959l0.488,0.264l0.795,0.736l0.913,1.191l0.367,0.958l0.352,1.235l0.072,0.573l-0.131,0.649l-0.091,0.303
			l-0.376,0.91l-0.444,0.451l-0.477,0.244l-0.654,0.272l-0.784,0.231l-1.146,0.103l-0.406,0.082l-0.452,0.223l-0.399,0.266
			l-0.483,0.752l-0.395,1.141l-0.252,0.77l-0.279,1.415l-0.209,1.229l0.063,0.345l0.111,0.228l0.201,0.593l-0.017,0.231
			l-0.224,0.168l-0.28,0.009l-0.356,0.011l-0.224,0.146L8.938,65.97l-0.184,0.535l0.003,0.762l0.103,0.822L8.777,68.6l-0.09,0.324
			l-0.446,0.338l-0.45,0.243l-0.604,0.181l-0.326,0.147l-0.114,0.351l0.02,0.507l0.179,0.686l0.16,0.181l0.35,0.496l0.115,0.342
			l0.236,0.178l0.36,0.104l0.646,0.232l0.577,0.443l0.604,0.487l0.115,0.343l-0.092,0.278l-0.372,0.267l-0.43,0.082l-0.34,0.204
			L8.479,75.28L8.05,75.408l-0.205-0.039l-0.31-0.129l-0.228,0.03l-0.396,0.266L6.48,75.597l-0.365-0.22l-0.5-0.444l-0.254,0.009
			l-0.146,0.188L5.15,75.407l-0.198,0.168l-0.355,0.012l-0.331,0.011l-0.271,0.216l-0.968,1.275l-0.533,0.686l-0.144,0.212
			l-0.04,0.047l-0.062,0.261L2.07,78.753l-0.393,0.56l-0.608,0.723l-0.214,0.296l-0.25,0.395l-0.07,0.295l0.001,0.163l0.074,0.262
			l0.579,0.192l0.83,0.026l1.479,0.024l1.55-0.073l0.396,0.031l1.223,0.074l0.469,0.096l0.434,0.26l0.651,0.389l0.939,0.355
			l0.758,0.226l0.577,0.063l0.469-0.067l0.503-0.264l0.864-0.396l0.647-0.525l0.611-0.361l0.72-0.428l0.396-0.263l0.504-0.23
			l1.118-0.265l1.154-0.167l2.2-0.268l1.19-0.101l1.298-0.166l2.128-0.297l1.912-0.396l2.163-0.309l1.372-0.131l0.794-0.065h0.577
			l0.614-0.032l0.721-0.195l0.939-0.13l0.975-0.065l1.083-0.063l1.191-0.161l1.697-0.325l1.625-0.39l2.457-0.615l1.301-0.39
			l0.325,0.001l0.324,0.229l0.432,0.459l0.502,0.885l0.062,0.276l0.258-0.183l0.536-0.182l0.152-0.142l0.116-0.001l0.191,0.031
			l0.273,0.171l0.195,0.241l0.193,0.032l0.344-0.248l0.336-0.598l0.188-0.316l0.496-0.32l0.308-0.073l0.27-0.003l0.193-0.003
			l0.113-0.106l-0.041-0.104l-0.081-0.243l-0.002-0.141l0.154-0.002l0.116-0.002l0.31,0.137l0.349,0.136l0.506,0.343l0.156,0.172
			l0.155,0.033l0.192-0.037l0.113-0.106l-0.041-0.174l-0.08-0.277l0.072-0.245l0.342-0.317l0.728-0.356l0.308-0.039l0.271,0.065
			l0.576-0.077l0.537-0.181l0.653-0.182l0.609-0.496l0.457-0.39l0.383-0.214l0.846-0.147l0.73-0.184l0.649-0.391l0.268-0.247
			l0.23-0.003l0.194,0.103l0.08,0.175l-0.11,0.42l-0.188,0.421l-0.147,0.489l0.002,0.14l0.195,0.173l0.002,0.174l-0.037,0.142
			l-0.231,0.002l-0.383,0.108l-0.293,0.271l-0.266,0.282l0.002,0.14l0.041,0.174l0.354,0.449l0.234,0.347l0.004,0.278l-0.113,0.176
			l0.004,0.279l0.08,0.139l0.426,0.274l0.427,0.238l0.12,0.384l0.16,0.485l-0.033,0.384l-0.031,0.524l0.042,0.278l0.117,0.139
			l0.119,0.277l-0.075,0.175l-0.268,0.178l-0.149,0.28l-0.034,0.349l-0.148,0.315l-0.42,0.319l-0.496,0.215l-0.537,0.215
			l-0.074,0.175l0.002,0.175l0.117,0.139l0.387,0.171l0.577,0.062l0.921-0.149l1.3-0.606l1.375-0.816l0.763-0.461l1.074-0.358
			l1.264-0.5l1.149-0.359l1.113-0.254l0.462-0.005l0.448,0.175l0.811,0.272l0.966,0.409l1.121,0.409l0.771,0.133l0.577-0.039
			l0.574-0.249l0.498-0.353l0.383-0.072l0.192-0.036l0.31,0.103l0.193,0.278l0.234,0.381l0.232,0.104l0.424,0.137l0.384-0.004
			l0.536-0.178l0.422-0.212l0.154-0.001l0.271,0.103l0.231,0.104l0.425,0.242l0.581,0.519l0.464,0.347l0.385,0.137l0.231-0.001
			l0.269-0.072l0.497-0.387l0.727-0.632l0.686-0.946l0.686-1.119l0.627-0.973l0.953-1.574l0.493-0.945l0.456-1.014l0.725-1.19
			l0.647-1.224l0.379-1.119l0.456-1.224l0.533-1.118l0.457-1.05l0.342-0.942l0.346-0.56l0.111-0.524L89.23,64.87l-0.237-0.94
			l-0.2-1.187l-0.158-0.593l-0.275-1.011l-0.2-1.082l-0.356-1.569l-0.202-1.395l-0.237-0.838l-0.125-0.938L87,54.131l-0.164-1.324
			l-0.354-1.046l-0.433-0.768l-0.549-1.01l-0.197-0.593l-0.084-0.732l-0.004-0.594l0.188-1.118l-0.004-0.594l0.036-0.42l0.114-0.314
			l0.229-0.314l0.388-0.317l0.465-0.275l0.311-0.141l0.387-0.177l0.271-0.315l0.307-0.561l0.152-0.596l-0.005-0.732l0.033-0.943
			l0.035-0.699l0.076-0.313l0.155-0.176l0.387-0.352l0.195-0.139l-1.21-1.548l-0.051-0.489l0.055-0.17l-0.322-0.241l-0.302-0.386
			l-0.302-0.32l-0.264-0.354l-0.263-0.225l-0.438-0.056l-0.504,0.176l-0.357,0.271l-0.504,0.208l-0.354,0.399l-0.603,0.604
			l-0.455,0.851l-0.166,0.562l-0.062,0.394l0.125,0.521l0.19,0.321l0.083,0.358l-0.023,0.426l-0.16,0.757l-0.532,0.472l-0.503,0.239
			l-0.139,0.2l-0.018,0.654l0.016,0.522l-0.021,0.524l0.156,0.389l0.188,0.226l0.005,0.164l-0.022,0.49l0.133,0.782l0.205,0.78
			l0.152,0.291l0.191,0.322l0.154,0.322l0.006,0.196l-0.087,0.196l-0.167-0.19l-1.069-1.773l-1.418-2.485l-1.183-1.837l-1.258-1.867
			l-1.074-1.639l-1.069-1.61l-0.241-0.747l-0.092-0.619l0.125-0.657l0.119-0.888l0.498-1.584l0.398-1.286l0.432-1.387l0.466-1.646
			l0.335-0.99l0.768-2.442l0.381-1.876l0.397-1.385l0.306-2.038l0.48-2.104l0.25-1.447l0.27-2.069l0.104-1.443l0.047-0.854
			l-0.018-0.621l-0.209-0.813l-0.116-0.228l-0.257,0.006l-0.25,0.203l-0.463,0.502l-0.42,0.665l-0.566,0.669l-0.542,0.243
			l-0.949,0.154l-1.172,0.028l-0.958-0.174l-0.757-0.733l-0.537-0.74l-0.444-1.3l-0.313-1.197l-0.208-0.781l-0.475-1.035
			l-0.771-1.192l-0.84-0.93L69.26,3.11l-0.485-0.217l-0.892-0.271l-1.191-0.46l-1.6-0.548l-1.896-0.604l-1.636-0.397l-0.062,0.103
			l-0.172,0.313l0.006,0.43L61.283,2.28l-0.048,0.835l-0.11,0.522l-0.281,0.889L60.39,5.47L59.875,6.36l-0.572,0.894l-0.631,0.787
			l-0.517,0.684l-0.459,0.631l-0.685,1.205L56.44,11.35l-1.026,1.626l-0.973,1.366l-0.688,0.894l-0.682,0.903l-0.881,1.127
			l-0.533,0.914l-0.305,0.457l-0.146,0.596L51.18,20l-0.103,1.015l-0.104,0.874l-0.077,0.419l-0.065,0.351l-0.375,1.053l-0.756,1.51
			l-0.375,0.912l-0.352,0.482l-0.69,0.637l-0.959,0.851l-0.993,1.129l-1.032,1.13l-0.879,0.92l-0.88,0.85l-1.301,1.204l-1.531,1.312
			l-1.494,1.208l-1.93,1.556l-1.762,1.247l-1.108,0.925l-0.723,0.743l-0.302,0.458l0.009,0.453l0.13,0.695l0.557,0.759l0.048,0.487
			l-0.067,0.523l-0.226,0.317l-0.306,0.214l-0.734,0.151l-1.085,0.018l-1.476-0.149l-1.202-0.017l-1.509,0.095l-1.664,0.135
			l-2.431-0.16l-3.376-0.184l-1.978-0.067l-1.125-0.015l-2.052,0.075l-1.018,0.209l-0.665,0.562l-0.387,0.801l0.038,1.525
			l0.368,1.213L13.85,49.959"/>
	</g>
</g>
<g id="Layer_1">
</g>
</svg>
