<?xml version="1.0" encoding="iso-8859-1"?>
<!-- Generator: Adobe Illustrator 16.0.4, SVG Export Plug-In . SVG Version: 6.00 Build 0)  -->
<!DOCTYPE svg PUBLIC "-//W3C//DTD SVG 1.1//EN" "http://www.w3.org/Graphics/SVG/1.1/DTD/svg11.dtd">
<svg version="1.1" xmlns="http://www.w3.org/2000/svg" xmlns:xlink="http://www.w3.org/1999/xlink" x="0px" y="0px" width="33.83px"
	 height="15.266px" viewBox="0 0 33.83 15.266" style="enable-background:new 0 0 33.83 15.266;" xml:space="preserve">
<g id="Layer_74">
	<g id="Layer_79">
		<path id="DISTRICT_x3D_Orakzai_Agency_x2C_PROVINCE_x3D_F.A.T.A." style="fill:#CCCCCC;stroke:#FFFFFF;stroke-width:1.07;" d="
			M7.244,13.656L7.244,13.656l0.004-0.008l0.057-0.911l0.042-0.005l0.089,0.045l0.07,0.051l0.086,0.018l0.101-0.021l0.111-0.017
			l0.151-0.019l0.102-0.017l0.091-0.062l0.114-0.06l0.095-0.019l0.17,0.037l0.084,0.05l0.086,0.063l0.099,0.032l0.137,0.052
			L9,12.928l0.112,0.025l0.117,0.059l0.081,0.025l0.11-0.002l0.1-0.029l0.146-0.018l0.058,0.064l0.007,0.094l0.061,0.043
			l0.078,0.012l0.119-0.012h0.086l0.121,0.021l0.073,0.072l0.044,0.081l0.043,0.065l0.047,0.045l0.078,0.075l0.104,0.106
			l0.092,0.061l0.07,0.027l0.108-0.014l0.076-0.06l0.104-0.048l0.126-0.02l0.1,0.004l0.098,0.025l0.111,0.031l0.051,0.014
			l0.064,0.051l0.08,0.051l0.081-0.024l0.072,0.032l0.099,0.036l0.146-0.019l0.106-0.012l0.078,0.004l0.092,0.029l0.185,0.018
			l0.068-0.056l0.129-0.067l0.084,0.041l0.065,0.035l0.119,0.071l0.076,0.034l0.173-0.024l0.106,0.039l0.113,0.022l0.093-0.028
			l0.083-0.063l0.11-0.082l0.082-0.061l0.144-0.084l0.108-0.041l0.104-0.02l0.106,0.008l0.084,0.031l0.108,0.043l0.079,0.019
			l0.12,0.045l0.119,0.033l0.073,0.007l0.147,0.079l0.092,0.067l0.117,0.03l0.077,0.019l0.093,0.016l0.078,0.007l0.208-0.007
			l0.096,0.003l0.083,0.013l0.084,0.023l0.104,0.035l0.077,0.045l0.084,0.072l0.115,0.103l0.066,0.032l0.066,0.033l0.084,0.01
			l0.131,0.004l0.164,0.02h0.081l0.103-0.01l0.138-0.013l0.162-0.076l0.071-0.042l0.123-0.037l0.091,0.045l0.087-0.021l-0.006,0.037
			l0.124-0.073l0.056,0.06l0.175,0.002l0.091-0.043l0.123-0.048l0.083-0.079l0.093-0.054l0.083-0.084l0.078-0.104l0.13-0.043
			l0.083-0.054l0.096-0.053l0.135-0.073l0.117-0.064l0.029-0.017l0.098-0.053l0.158-0.09l0.109-0.072l0.09-0.05l0.048-0.025
			l0.063-0.033l0.128-0.119l0.065-0.047l0.091-0.015l0.138-0.026l0.146-0.047l0.097-0.061l0.046-0.062l0.275-0.043l0.133-0.045
			l0.143-0.013l0.08-0.008l0.217-0.019l0.164-0.013l0.103-0.021l0.062-0.062l0.066-0.068l0.108-0.045l0.103-0.019l0.115,0.004
			l0.079,0.015l0.13-0.016l0.165-0.028l0.126-0.006l0.126-0.03l0.085-0.011l0.132-0.012l0.189-0.068l0.028-0.047l0.039-0.063
			l0.062-0.125l0.016-0.125l-0.081-0.008l-0.111,0.006l-0.117,0.01l-0.153,0.011l-0.196,0.019l-0.151,0.002l-0.127-0.019
			l-0.104-0.048l-0.139-0.135l-0.062-0.094l-0.078-0.149l-0.103,0.003l-0.128,0.001H21.58l-0.155-0.019l-0.143-0.059l-0.077-0.062
			l-0.046-0.057l-0.045-0.104l0.026-0.097l0.067-0.074l0.17-0.082l0.163-0.061l0.088-0.027l0.202-0.102l0.091-0.02l0.051-0.084
			l0.021-0.084l0.034-0.11l0.091-0.092l0.066-0.035l0.158-0.06l0.197-0.064l0.065-0.043l0.082-0.068l0.119-0.033l0.11-0.017
			l0.145-0.021l0.114-0.109l0.076-0.068l0.103,0.008l0.125-0.023l0.095,0.086l0.076,0.077l0.088,0.048l0.085,0.028l0.112,0.021
			l0.078,0.039l0.125,0.023l0.109,0.039l0.149,0.013l0.101-0.015l0.086,0.043l0.127,0.035l0.21,0.015l0.195-0.054l-0.05-0.076
			l-0.063-0.062l-0.108-0.091l-0.087-0.082l-0.091-0.078l-0.096-0.045l-0.062-0.045l-0.112-0.041l-0.141-0.026l-0.104-0.067
			L24.08,9.551l-0.047-0.072l-0.019-0.039l-0.061-0.125l-0.05-0.09l-0.073-0.076L23.77,9.094l-0.107-0.058l-0.073-0.045
			l-0.208-0.143l-0.104-0.09l-0.045-0.147l0.028-0.079l0.045-0.099l0.038-0.106l0.046-0.103l0.043-0.088l0.025-0.101L23.47,7.96
			l0.001-0.128V7.804l-0.015-0.083l-0.029-0.087l-0.03-0.109L23.36,7.443l-0.043-0.111L23.303,7.24L23.22,7.098l-0.07-0.062
			l-0.076-0.029l-0.101-0.022l-0.091-0.079l0.036-0.073l0.036-0.069l-0.055-0.06l-0.041-0.091l-0.025-0.136L22.806,6.4l0.038-0.069
			l0.066-0.042l0.074-0.046l0.106-0.052l0.142-0.065l0.142-0.048l0.203-0.05l0.175,0.034l0.056,0.089l0.036,0.064l0.041,0.077
			l0.126,0.097l0.095,0.047l0.092,0.022l0.146,0.011l0.1,0.021l0.026,0.088l0.025,0.067l0.07,0.055l0.104-0.015l0.111-0.025
			l0.106-0.01l0.101-0.107l0.105-0.062l0.132,0.014l0.121,0.068l0.144,0.112l0.123,0.046l0.094,0.113l0.067,0.038l0.148,0.039
			l0.104,0.027l0.104,0.01l0.084,0.036l0.082-0.008l0.083-0.007l0.129,0.049l0.057,0.105l0.049,0.143l0.033,0.065l0.084,0.128
			l0.089,0.127l0.09,0.107l0.061,0.069l-0.025,0.147l0.004,0.083l0.03,0.191l0.046,0.071l0.053,0.061l0.066,0.039l0.118,0.038
			l0.084,0.021l0.126,0.097l0.088,0.095l0.097,0.073l0.104,0.042l0.118-0.012l0.201,0.194l0.125,0.083l0.12,0.085l0.027,0.076
			l0.104,0.08l0.096,0.134l0.097,0.144l0.124,0.053l0.08,0.021l0.082-0.014l0.131,0.046l0.081,0.026l0.087,0.039l0.1,0.036
			l0.103,0.054l0.178,0.058l0.113,0.058l0.115,0.088l0.171,0.117l0.09,0.062l0.165,0.039l0.084,0.056l0.124,0.085l0.163-0.007h0.073
			l0.076-0.027l0.078,0.069l0.069,0.064l0.061,0.096l0.098,0.115l0.111,0.105l0.073,0.07l0.071,0.078l0.101,0.123l0.082,0.041h0.001
			l0.085-0.069l0.074,0.003l0.112,0.02l0.161,0.074l0.166,0.066l0.113,0.002l0.116-0.04l0.109-0.048l0.093-0.062l0.075-0.08
			l0.032-0.078l0.045-0.084l-0.026-0.105l-0.028-0.096l0.047-0.061l0.049-0.096l-0.096-0.114l-0.055-0.055l0.016-0.077l0.068-0.096
			l0.147-0.065l-0.302-0.258L32.24,9.26l-0.133-0.207l0.038-0.403L32.07,8.375l-0.106-0.507L31.908,7.61L31.9,7.269l-0.05-0.374
			L31.738,6.6l-0.083-0.441l-0.066-0.32l-0.226-0.195l-0.262-0.212l-0.225-0.366l-0.369-0.354l-0.213-0.403L30.24,3.968
			l-0.277-0.631l-0.274,0.091L29.332,3.54l-0.517-0.033l-0.374-0.22l-0.19-0.204l-0.32-0.087l-0.308-0.004l-0.467-0.174
			l-0.234-0.112l-0.177-0.083l-0.257-0.141L26.18,2.324l-0.249-0.183l-0.138-0.208l-0.226-0.175L24.92,1.484l-0.603-0.242
			l-0.549-0.216l-0.342-0.162l-0.282-0.07l-0.341-0.229l-0.438,0.079l-0.129,0.333l-0.2,0.428l-0.073,0.353l-0.199,0.274
			l-0.241,0.149l-0.2,0.254l-0.356,0.187l-0.24,0.05L20.348,2.83l-0.457,0.054L19.616,2.93l-0.458,0.012l-0.526,0.121l-0.333,0.004
			l-0.678,0.054l-0.308,0.017l-0.392,0.083l-0.411,0.025l-0.207,0.2L16.24,3.683l0.019,0.502l-0.005,0.316l0.066,0.266l-0.009,0.428
			l-0.229,0.179l-0.554,0.075L15.15,5.511l-0.411,0.071l-0.345,0.111l-0.092,0.03l-0.241,0.046l-0.274,0.062l-0.285,0.075
			l-0.287,0.037l-0.301,0.054l-0.562,0.159l-0.299-0.004l-0.399,0.017l-0.355,0.092l-0.242,0.045l-0.241,0.058l-0.366,0.1
			L9.772,6.61L9.639,6.616L9.382,6.627L8.809,6.794L8.234,6.856L7.822,6.948L7.328,7.106H7.033L6.447,7.185l-0.77,0.062l-0.42-0.033
			L4.579,7.21l-0.53-0.437L3.753,6.62L3.508,6.275L3.278,6.084l-0.12-0.336L2.971,5.337L2.741,5.062l-0.19-0.167L2.027,4.742
			L1.831,4.929L1.633,5.203L1.411,5.498L1.168,5.731L1.006,5.972l-0.098,0.35L0.663,6.559L0.64,6.692L0.577,7.016l0.374,0.395
			l0.354,0.237l-0.018,0.27L1.205,8.259L1.396,8.45L1.309,8.79l0.354,0.408l0.213,0.141L2.24,9.594l0.521,0.323l0.203,0.138
			l0.387,0.213l0.549,0.166l0.433,0.158l0.329,0.161l0.398,0.15l0.286,0.058l0.616,0.188l0.443,0.041h0.263l0.42,0.188l-0.143,0.407
			l-0.324,0.341l-0.05,0.407l-0.027,0.25l-0.006,0.324l0.542,0.488L7.244,13.656"/>
	</g>
</g>
<g id="Layer_1">
</g>
</svg>
