<?xml version="1.0" encoding="iso-8859-1"?>
<!-- Generator: Adobe Illustrator 16.0.4, SVG Export Plug-In . SVG Version: 6.00 Build 0)  -->
<!DOCTYPE svg PUBLIC "-//W3C//DTD SVG 1.1//EN" "http://www.w3.org/Graphics/SVG/1.1/DTD/svg11.dtd">
<svg version="1.1" xmlns="http://www.w3.org/2000/svg" xmlns:xlink="http://www.w3.org/1999/xlink" x="0px" y="0px"
	 width="84.337px" height="67.136px" viewBox="0 0 84.337 67.136" style="enable-background:new 0 0 84.337 67.136;"
	 xml:space="preserve">
<g id="Layer_125">
	<g id="Layer_130">
		<path id="DISTRICT_x3D_Khairpur_x2C_PROVINCE_x3D_Sindh" style="fill:#CCCCCC;stroke:#FFFFFF;stroke-width:1.07;" d="
			M12.285,2.245L12.285,2.245l0.055,0.06l0.055,0.077l0.479,0.557l0.741,0.933l0.104,0.175l0.019,0.143L13.71,4.438l-0.06,0.17
			l-0.228,0.115l-0.15,0.143L13.1,4.954L12.864,5.01l-0.25,0.035l-0.192,0.02h-0.208L11.97,5.048l-0.077,0.021l-0.034,0.01
			l-0.115,0.095l-0.128,0.177l-0.104,0.093L11.37,5.519L11.1,5.566L10.858,5.58l-0.199-0.029l-0.147,0.015l-0.214,0.042
			l-0.249,0.045L9.174,5.659L8.385,5.627L7.891,5.553L7.729,5.467L7.682,5.395L7.664,5.41L7.528,5.483L7.335,5.562L7.258,5.615
			L7.163,5.683l-0.1,0.112L6.986,5.891L6.938,5.975L6.903,6.098L6.872,6.274L6.871,6.347l0.014,0.107l0.041,0.1l0.043,0.098
			L7.04,6.749l0.027,0.045l0.066,0.132l0.105,0.104l0.069,0.114l0.042,0.089l0.035,0.129l0.035,0.155l0.031,0.124l0.047,0.096
			l0.008,0.042L7.496,7.885L7.476,8.006l-0.02,0.108v0.101L7.46,8.283L7.453,8.378L7.427,8.472l-0.04,0.095L7.32,8.648L7.209,8.765
			L7.044,8.911L6.878,9.019l-0.148,0.07L6.565,9.167L6.351,9.268l-0.076,0.04L6.236,9.341L6.157,9.444L6.016,9.592L5.908,9.698
			L5.807,9.771l-0.115,0.05L5.603,9.85l-0.099,0.01L5.391,9.866l-0.13-0.007L5.134,9.854L5.021,9.869L4.917,9.89L4.785,9.934
			L4.671,10.01l-0.048,0.04L4.52,10.107l-0.103,0.07l-0.048,0.056l0.091,0.125l0.034,0.103l0.056,0.127l0.056,0.178l0.008,0.156
			l0.026,0.228l0.05,0.187l0.109,0.188l0.111,0.104l0.102,0.119l0.078,0.104l0.125,0.215l0.093,0.222l0.128,0.26l0.04,0.248
			l0.057,0.214l0.082,0.117l0.105,0.144l0.256,0.293l0.241,0.241l0.107,0.149l0.079,0.142l0.122,0.109l0.188,0.135l0.178,0.098
			l0.196,0.071l0.175,0.084l0.132,0.113l0.073,0.15L7.5,14.978l-0.014,0.132l-0.001,0.007L7.39,15.265l-0.255,0.28l-0.151,0.129
			l-0.127,0.095l-0.265,0.086l-0.231,0.08l-0.25,0.045l-0.327,0.01l-0.301-0.023L5.405,15.96l-0.171-0.039L5.105,15.88l-0.131-0.018
			l-0.17-0.032l-0.15-0.027l-0.096-0.01L4.423,15.82l-0.357,0.084L3.883,15.95L3.65,16.06l-0.248,0.144L3.219,16.31l-0.194,0.124
			l-0.298,0.153l-0.242,0.165l-0.131,0.079l-0.09,0.109l-0.107,0.196l-0.059,0.192l-0.029,0.173L2.048,17.68l-0.026,0.089v0.128
			l-0.005,0.145l0.007,0.18l-0.029,0.179l-0.073,0.174L1.75,18.82L1.523,19.05l-0.168,0.163l-0.223,0.176l-0.139,0.119l-0.099,0.104
			l-0.085,0.123l-0.085,0.124l-0.063,0.143l-0.06,0.106l-0.036,0.125L0.561,20.4l-0.006,0.155l0.012,0.104l-0.005,0.044l0.004,0.074
			l0.022,0.03l-0.014,0.043l0.031,0.065l0.034,0.049l0.101,0.077l0.081,0.053l0.023,0.038l0.011,0.064l0.031,0.005H0.94l0.059-0.017
			l0.107-0.043l0.049-0.03l0.061-0.052l0.088-0.078l0.044-0.034l0.034-0.021l0.049-0.013l0.059,0.005l0.066,0.032l0.102,0.065
			l0.078,0.053l0.072,0.022H1.92L1.992,21.1l0.205,0.062l0.038,0.025l0.024,0.053l0.038,0.078l0.032,0.07l0.087,0.062l0.078,0.049
			l0.054,0.04l0.098,0.021h0.078l0.352-0.032l0.078,0.001l0.068,0.014l0.043,0.021L3.3,21.616l0.038,0.053l0.033,0.03l0.111,0.056
			l0.17,0.053l0.19,0.05l0.237,0.049l0.22,0.046l0.312,0.051l0.199,0.019l0.098-0.017l0.061-0.021l0.028-0.029l0.035-0.132
			l0.021-0.072l0.028-0.021h0.05l0.059,0.014l0.078,0.035l0.281,0.15l0.198,0.104l0.146,0.04l0.16,0.014l0.175,0.026l0.191-0.004
			l0.292,0.003l0.22,0.011l0.131,0.011l0.107,0.035l0.071,0.04l0.043,0.087l0.054,0.14l0.027,0.052l0.039,0.066l0.033,0.039
			l0.073,0.053l0.076,0.053l0.088,0.045l0.062,0.062l0.054,0.049l0.016,0.111l-0.041,0.195l-0.025,0.096l-0.104,0.16l-0.1,0.143
			l-0.063,0.109l-0.011,0.056l0.015,0.026H7.55l0.034-0.025l0.038-0.013l0.06,0.009l0.062,0.02l0.181-0.004l0.083,0.021l0.043,0.058
			l0.032,0.108l0.006,0.101L8.077,24.12l0.015,0.091l0.027,0.079l0.054,0.057l0.054,0.022l0.103,0.025l0.082,0.044l0.116,0.062
			l0.121,0.074l0.17,0.08l0.17,0.049l0.103,0.045l0.218,0.114l0.253,0.128l0.206,0.105l0.198,0.127l0.11,0.105l0.11,0.114
			l0.111,0.127l0.065,0.104l0.023,0.071l0.01,0.033l0.048,0.117l0.043,0.074l0.022,0.184l0.022,0.092l0.076,0.122l0.146,0.18
			l0.109,0.162l0.104,0.075l0.076,0.086l0.079,0.087l0.056,0.048l0.067,0.022l0.064,0.095l0.064,0.109l0.075,0.18l0.008,0.017
			l0.075,0.17l0.082,0.271l0.044,0.263l0.031,0.275l-0.023,0.257l-0.024,0.27l-0.057,0.259l-0.162,0.342l-0.09,0.207l-0.106,0.135
			l-0.112,0.146l-0.088,0.162l-0.206,0.286l-0.281,0.288l-0.214,0.172l-0.161,0.136L9.79,31.232l-0.369,0.135l-0.244,0.067
			l-0.076,0.043l-0.082,0.091l-0.037,0.072l-0.067,0.202l-0.132,0.319l-0.137,0.37L8.54,32.784l-0.072,0.158l-0.033,0.07
			l-0.163,0.28l-0.15,0.213l-0.106,0.156l-0.137,0.225l-0.125,0.181l-0.145,0.195l-0.156,0.196l-0.087,0.146l-0.192,0.161
			l-0.156,0.106l-0.112,0.04l-0.182,0.039l-0.125,0.021l-0.05,0.022l-0.006,0.021l0.012,0.039l0.082,0.039l0.088,0.034l0.156,0.021
			l0.119,0.006l0.08,0.011l0.02,0.028v0.033l-0.088,0.121l-0.119,0.221l-0.162,0.252l-0.062,0.095l-0.037,0.141l-0.024,0.141
			l-0.044,0.186l-0.018,0.162l-0.031,0.129l-0.02,0.106l-0.013,0.129l-0.007,0.296l-0.018,0.291l-0.044,0.196l-0.037,0.174
			l-0.057,0.15l-0.075,0.136l-0.012,0.101l-0.006,0.089l0.031,0.112l0.051,0.129l0.094,0.162l0.011,0.042l0.016,0.054L6.49,39.01
			l0.014,0.112l0.189,0.354l-0.06,0.21l-0.081,0.111l-0.125,0.135l-0.103,0.111L6.259,40.15l-0.017,0.099l-0.025,0.18L6.19,40.67
			l-0.05,0.224L6.058,41.15l-0.022,0.074l-0.079,0.239l-0.069,0.183l-0.069,0.244l-0.036,0.224l-0.047,0.197L5.684,42.47
			l-0.069,0.241l-0.086,0.19l-0.071,0.168l-0.022,0.172l-0.041,0.186l-0.051,0.132l-0.149,0.187l-0.11,0.139l-0.092,0.11
			l-0.016,0.048l0.003,0.177l0.008,0.271l0.005,0.058l0.013,0.146l0.032,0.188l0.001,0.092l0.024,0.05l0.08,0.032l0.14,0.046
			l0.315,0.082l0.297,0.112l0.409,0.162l0.134,0.043l0.219,0.077l0.188,0.034l0.313-0.004l0.266,0.018l0.257,0.048l0.19,0.044
			l0.279,0.067l0.302,0.067l0.221,0.072l0.062,0.043l0.098,0.134l0.052,0.076l0.107,0.001l0.241,0.034L9.315,46.2l0.212-0.018
			l0.184,0.005l0.271,0.084l0.272,0.111l0.276,0.096l0.134,0.017l0.062-0.002l0.084-0.035l0.157-0.031l0.114-0.003l0.129,0.006
			l0.275,0.073l0.275,0.052l0.279,0.024l0.252,0.054l0.405,0.135l0.123,0.045l0.073-0.002l0.114-0.031l0.223-0.066l0.205-0.033
			l0.421,0.02l0.505,0.013l0.158,0.021l0.258,0.046l0.479,0.084l0.41,0.091l0.206,0.022l0.318,0.056l0.282,0.067l0.223,0.081
			l0.287,0.046l0.117,0.01l0.346,0.03l0.488,0.04l0.36,0.032l0.243,0.047l0.235,0.017l0.269,0.024l0.231,0.004l0.312,0.034
			l0.354,0.044l0.482,0.051l0.413,0.021l0.165,0.028l0.371-0.006l0.304-0.015l0.194,0.011l0.322,0.022l0.34,0.002l0.115-0.024
			l0.078-0.008l0.438,0.041l0.573,0.055l0.196,0.049l0.11,0.067l0.201,0.169l0.049,0.021l0.049-0.013l0.125-0.085l0.054-0.034
			l0.042-0.007l0.049,0.004l0.067,0.025l0.168,0.099l0.229,0.13l0.289,0.102l0.19,0.097l0.335,0.204l0.267,0.149l0.312,0.215
			l0.23,0.206l0.185,0.19l0.135,0.198l0.146,0.215l0.174,0.394l0.114,0.308l0.061,0.293l0.022,0.18l0.047,0.124l0.099,0.188
			l0.073,0.199l0.114,0.146l0.184,0.189l0.141,0.183l0.15,0.317l0.051,0.205l0.023,0.365l0.023,0.136l-0.009,0.278L28.362,53.5
			l-0.048,0.183l-0.042,0.197l-0.029,0.191l0.004,0.022l0.604-0.204l0.392-0.155l0.548-0.254l0.406-0.226l0.234-0.113l0.233-0.169
			l0.361-0.184l0.078-0.043h0.141l0.062,0.17l0.141,0.395l0.242,0.416l0.188,0.267l0.173,0.239l0.155,0.127l0.049,0.126l0.062,0.227
			l0.109,0.407l0.016,0.239l0.109,0.395l0.078,0.31v0.366l-0.062,0.183l0.062,0.197l0.142,0.07l0.312,0.026l0.502,0.143l0.28,0.126
			l0.078,0.085l0.566,0.98l0.438,0.873l0.345,0.703l0.094,0.057l0.312,0.043l0.578,0.07l0.688,0.028l0.155,0.027l0.062,0.058v0.126
			l-0.109,0.268l-0.126,0.464l-0.125,0.492l-0.016,0.169l0.016,0.1l0.094,0.057l0.155,0.056l0.143,0.058h0.062l0.047-0.127
			l0.017-0.196l0.077-0.057l0.096,0.014l0.233,0.043l0.188,0.057l0.047,0.07l-0.031,0.141l-0.203,0.381l-0.108,0.195l0.047,0.1
			l0.234,0.111l0.404,0.156l0.499,0.099l0.636,0.133h0.423l0.687,0.001l0.719-0.041l0.5-0.057l0.671-0.125l0.845-0.195l0.454-0.111
			l0.422-0.056l0.203-0.057l0.215,0.057l0.241,0.116l0.365,0.119l0.586,0.051l0.729,0.065l1.036,0.07l0.926,0.095l0.681,0.122
			l0.569,0.112l0.531,0.067l0.729,0.088l0.58,0.035l0.566-0.021l0.468-0.02l0.419,0.026l0.789,0.055l0.825,0.021l0.493,0.003
			l0.259,0.007l0.433,0.071l0.617,0.046l0.629,0.079l0.298,0.095l0.422,0.139l0.271,0.04l0.233,0.02l0.21-0.037l0.502-0.174
			l0.464-0.229l0.158-0.069l0.136-0.002l0.247,0.02l0.333,0.04l0.297,0.04l0.735-0.057l0.629-0.02l0.406,0.061l0.298,0.118
			l0.508,0.081l0.913,0.076l0.91,0.01l1.098,0.029l0.946-0.058l1.011-0.103l0.504-0.007l0.789,0.057l0.495,0.104l0.31,0.087
			l0.532,0.204l0.507,0.094l0.544,0.138l0.567,0.061l0.555,0.026l0.37,0.051l0.372,0.141l0.196,0.063l0.507,0.026l0.517,0.005
			l0.481,0.039l0.566,0.061l0.592,0.094l0.385,0.14l0.531,0.204l0.396,0.188l0.347,0.15l0.569,0.184l0.519,0.139l0.346,0.041
			l0.592,0.026l0.629,0.061l0.211,0.086l0.173,0.087l0.199,0.177l0.045,0.029l0.078-0.11l0.672-0.956l0.182-0.36l0.41-0.816
			l0.092-0.307l0.366-1.437l0.092-0.359l-0.004-0.032l-0.074-0.549l-0.163-0.561l-0.066-0.19l-0.02-0.432l-0.008-0.142l0.01-0.062
			l0.08-0.605l0.379-1.399l0.102-0.377l-0.001-0.051l-0.016-0.616l0.06-0.393l-0.035-0.376v-0.005l-0.019-0.82l-0.085-1.21
			l0.026-0.195l0.181-1.312l0.121-0.716l-0.068-0.485l-0.154-0.646l-0.179-0.642l-0.062-0.226l-0.208-0.656l-0.187-0.212
			l-0.114-0.129l-0.096-0.087l-0.332-0.301l-0.284-0.154l-0.185-0.1l-1.213-0.572l-0.119-0.057l-0.767-0.252l-0.925-0.153
			l-0.763,0.006l-0.308-0.016l-0.347,0.018l-0.301,0.016l-0.639,0.108l-0.396,0.067l-0.082,0.014l-0.071,0.012l-1.726,0.273
			l-0.908,0.117l-0.604,0.077l-0.309,0.013l-1.312,0.051l-0.287-0.021l-0.7-0.055l-0.988-0.199l-0.682-0.185l-0.853-0.325
			l-0.896-0.538l-0.055-0.033l-1.191-1.026l-0.889-0.64l-0.951-0.467l-0.384-0.119l-0.303-0.107L62.72,44.3l-2.84-1.15l-0.097-0.071
			l-0.173-0.126l-0.404-0.09l-0.06-0.023l-0.421-0.171l-0.246-0.149l-0.851-0.321l-0.153-0.058l-0.284-0.115l-0.881-0.356
			l-0.125-0.072L56.021,41.5l-0.324-0.35l-0.365-0.82l-0.472-1.058l-0.075-0.251l-0.082-0.271l0.074-0.718l0.183-0.866l0.243-1.17
			l0.216-1.155l0.109-1.785l0.387-2.954l0.006-0.043l0.002-0.009v-0.004l0.006-0.048l0.934-2.033l-0.06-0.002l-0.833-0.147
			l-0.732-0.21l-0.582-0.404l-0.651-0.569l-0.587-0.207l-1.063-0.214l-1.063-0.313l-0.878-0.375l-0.582-0.404l-1.047-0.631
			l-0.548-0.304l-1.285-0.315l-1.943-0.588l-1.325-0.217l-0.773-0.075l-0.479,0.025l-0.48,0.025l-0.258-0.067L41.4,22.771
			l-0.842-0.439l-0.81-0.208l-0.699-0.074l-0.591-0.008l-0.591,0.025l-0.445,0.192l-0.481,0.126l-0.629,0.058l-0.627-0.007
			l-0.736-0.108l-0.845-0.272l-0.698-0.206l-0.659-0.337l-0.955-0.341l-1.738-1.061L28.7,19.107l-0.842-0.569l-0.218-0.267
			l-0.071-0.23l0.082-0.626l0.122-0.855l0.158-0.756l0.111-0.131l0.37-0.096l0.523-0.391l0.678-0.915l0.095-0.147l0.395-0.608
			l-0.097-0.051l-0.213-0.186l-0.236-0.223l-0.161-0.181l-0.204-0.187l-0.087-0.138l-0.031-0.09v-0.088l0.023-0.077l0.035-0.072
			l0.039-0.063l0.037-0.063l0.046-0.074l0.065-0.072l0.104-0.171l0.217-0.219l0.176-0.191l0.081-0.146l0.042-0.11l0.127-0.133
			l0.032-0.08l-0.017-0.076l-0.031-0.036l-0.083-0.066l-0.23-0.027l-0.306,0.047l-0.36,0.062l-0.253,0.022l-0.274,0.048
			l-0.387,0.104l-0.223,0.024l-0.114-0.04l-0.104-0.188l-0.048-0.112l-0.015-0.131l0.023-0.167l0.024-0.159l0.009-0.153
			l-0.022-0.065l-0.053-0.065l-0.079-0.049l-0.204-0.008l-0.51-0.022L26.604,9.79l-0.197-0.106L26.26,9.545l-0.104-0.188
			l-0.047-0.229l0.027-0.214l0.101-0.296l0.075-0.279L26.4,8.012l0.055-0.283l0.063-0.195l0.115-0.325l0.113-0.344l0.125-0.312
			l0.099-0.214l0.217-0.516l0.089-0.213l0.065-0.25l0.015-0.103l0.003-0.081l0.014-0.049l0.035-0.046l0.038-0.036l0.086-0.041
			l0.194-0.079l0.146-0.067l0.079-0.064l0.031-0.089l0.154-0.101l0.066-0.075l0.199-0.313l0.079-0.194l-0.001-0.051L28.452,3.93
			l-0.049-0.049l-0.201-0.139L28.135,3.66l-0.05-0.1l-0.017-0.234l-0.024-0.259l-0.012-0.385l0.002-0.284l0.037-0.354l-0.018-0.159
			l-0.021-0.033l-0.038-0.008l-0.179,0.021l-0.169,0.021l-0.243,0.039l-0.375,0.083l-0.178,0.021l-0.488,0.036l-0.037,0.005
			l-0.082-0.021l-0.14-0.015l-0.071-0.018L25.91,1.979l-0.137-0.032l-0.159-0.042l-0.209-0.056l-0.229-0.031l-0.175-0.024
			l-0.165-0.002l-0.087,0.015l-0.093,0.023l-0.055,0.043L24.48,1.967l-0.117,0.127L24.28,2.187l-0.087,0.087l-0.127,0.168
			L24.01,2.525l-0.065,0.083L23.88,2.677l-0.062,0.04l-0.097,0.019l-0.109,0.016l-0.126-0.018l-0.083-0.039l-0.142-0.017l-0.17-0.04
			l-0.217-0.064l-0.143-0.038L22.55,2.513l-0.191-0.048l-0.176-0.031l-0.177-0.062L21.881,2.31l-0.117-0.095l-0.085-0.08
			L21.55,1.979l-0.119-0.157l-0.084-0.139l-0.084-0.174l-0.071-0.124l-0.1-0.14l-0.08-0.162l-0.114-0.2l-0.224,0.044l-0.183,0.024
			l-0.159,0.005l-0.137-0.012h-0.173L19.93,0.931l-0.14-0.058L19.582,0.79L19.36,0.691l-0.129-0.036l-0.087-0.01L19.03,0.648
			l-0.562-0.111l-0.196-0.002l-0.112,0.01l-0.067,0.008l-0.177,0.043L17.74,0.652l-0.211,0.097l-0.171,0.094l-0.166,0.101
			l-0.286,0.119l-0.322,0.127l-0.206,0.052l-0.148-0.01l-0.195-0.046l-0.335-0.123l-0.554-0.166L14.91,0.859l-0.274-0.023
			l-0.227-0.002l-0.135,0.021l-0.207,0.079l-0.15,0.084l-0.12,0.102l-0.126,0.11l-0.173,0.182l-0.206,0.163l-0.146,0.089
			l-0.256,0.158L12.753,1.92l-0.165,0.128l-0.182,0.119L12.285,2.245"/>
	</g>
</g>
<g id="Layer_1">
</g>
</svg>
