<?xml version="1.0" encoding="iso-8859-1"?>
<!-- Generator: Adobe Illustrator 16.0.4, SVG Export Plug-In . SVG Version: 6.00 Build 0)  -->
<!DOCTYPE svg PUBLIC "-//W3C//DTD SVG 1.1//EN" "http://www.w3.org/Graphics/SVG/1.1/DTD/svg11.dtd">
<svg version="1.1" xmlns="http://www.w3.org/2000/svg" xmlns:xlink="http://www.w3.org/1999/xlink" x="0px" y="0px"
	 width="62.293px" height="69.958px" viewBox="0 0 62.293 69.958" style="enable-background:new 0 0 62.293 69.958;"
	 xml:space="preserve">
<g id="Layer_14">
	<g id="Layer_19">
		<path id="DISTRICT_x3D_Thatta_x2C_PROVINCE_x3D_Sindh_32_" style="fill:#CCCCCC;stroke:#FFFFFF;stroke-width:1.07;" d="
			M44.563,29.091L44.563,29.091l-0.029-0.095l-0.041-0.081l-0.013-0.088l-0.049-0.222l-0.021-0.164l-0.021-0.062l-0.041-0.1
			l-0.014-0.067l-0.06-0.064l-0.1-0.055l-0.121-0.097l-0.15-0.134l-0.104-0.115l-0.167-0.127l-0.175-0.123l-0.214-0.119
			l-0.172-0.081l-0.209-0.068l-0.167-0.065l-0.142-0.043l-0.144-0.05l-0.1-0.039l-0.071-0.058l-0.079-0.072L42.12,26.81v-0.049
			l0.052-0.143l0.071-0.118l0.042-0.159l0.011-0.184v-0.111l-0.051-0.109l-0.065-0.073l-0.097-0.065l-0.139-0.022l-0.19-0.039
			l-0.169-0.035l-0.07-0.042l-0.066-0.076l-0.07-0.138l-0.017-0.035l-0.047-0.121l-0.008-0.18l0.015-0.447l0.001-0.179l-0.041-0.092
			l-0.104-0.107l-0.135-0.127l-0.104-0.088l-0.096-0.062l-0.075-0.035l-0.046-0.076l-0.014-0.064l0.01-0.067l0.038-0.042
			l0.201-0.106l0.182-0.087l0.233-0.091l0.109-0.068l0.076-0.076l0.038-0.092l0.005-0.095l0.004-0.077l-0.041-0.137l-0.083-0.153
			v-0.068l0.005-0.054l0.038-0.138l0.044-0.106l0.131-0.105l0.193-0.079l0.108-0.019l0.21-0.012l0.134-0.003l0.118-0.025l0.104-0.05
			l0.092-0.096l0.064-0.125l0.021-0.119l0.004-0.109l-0.028-0.08l-0.066-0.097l-0.142-0.161l-0.129-0.118l-0.051-0.03l-0.139-0.134
			l-0.209-0.216l-0.153-0.236l-0.092-0.199l-0.045-0.168l-0.079-0.169l-0.096-0.156l-0.146-0.135l-0.164-0.095l-0.326-0.07
			l-0.276-0.066l-0.025-0.071l-0.023-0.13l-0.009-0.118l-0.024-0.138l-0.005-0.109l0.016-0.188l-0.007-0.127l-0.015-0.174
			l0.026-0.325l0.018-0.285l0.026-0.242l0.053-0.315l0.003-0.163l0.028-0.305l0.077-0.468l0.099-0.386l0.053-0.376l0.086-0.313
			l0.078-0.354l0.061-0.202l0.161-0.2l0.129-0.273l0.002-0.102l0.024-0.092l0.048-0.11l0.068-0.081l0.08-0.061l0.125-0.067
			l0.101-0.009l0.224,0.004l0.427-0.002l0.905,0.065l0.482,0.009l0.124-0.027l0.067-0.051l0.115-0.14l0.093-0.131l0.208-0.281
			l0.071-0.223l0.016-0.185l-0.06-0.348l-0.04-0.245l-0.007-0.163l-0.064-0.133l-0.108-0.176l-0.207-0.229l-0.222-0.126
			l-0.132-0.146l-0.03-0.145l0.003-0.091l0.07-0.183l0.071-0.224l0.071-0.172l0.105-0.243l0.105-0.229l-0.008-0.015l-0.058-0.084
			l-0.062-0.071L43.9,9.624L43.832,9.56l-0.058-0.087l-0.099-0.107l-0.092-0.102l-0.092-0.076l-0.167-0.146l-0.079-0.082L43.2,8.884
			l-0.008-0.067L43.19,8.761l0.012-0.055l0.042-0.067l0.089-0.13l0.079-0.117l0.093-0.095l0.092-0.128l0.095-0.154l0.083-0.157
			l0.04-0.13l0.078-0.198l0.087-0.216l0.056-0.167L44.082,6.9l0.01-0.081l-0.005-0.04l-0.548,0.193l-0.364,0.109l-0.657,0.061
			l-0.746,0.017l-0.812-0.027l-0.312-0.071l-0.218-0.191l-0.11-0.064l-0.271,0.031l-0.296,0.052l-0.223-0.09l-0.397-0.196
			l-0.225-0.069l-0.341,0.05l-0.379,0.104L37.67,6.627L36.931,6.48l-0.265-0.193l-0.283-0.255l-0.405-0.588l-0.322-0.421
			l-0.51-0.837L34.81,3.52l-0.36-0.606l-0.233-0.376l-0.264-0.214l-0.352-0.277l-0.663-0.391l-0.618-0.39l-0.531-0.305l-0.554-0.283
			L30.63,0.535l-0.543,0.004L29.7,0.567l-0.207,0.116L29.21,1.003l-0.217,0.343l-0.216,0.32l-0.26,0.3l-0.342,0.071l-0.341,0.052
			l-0.294-0.05l-0.214,0.046l-0.019,0.482l-0.147,0.222L27.074,3.03l-0.129,0.372l-0.188,0.184l-0.229,0.128l-0.29,0.146
			l-0.271,0.184l-0.092,0.274l0.057,0.299l0.18,0.282l0.139,0.282l0.018,0.168l-0.085,0.167l-0.127,0.203l-0.085,0.167l-0.002,0.148
			l0.1,0.15l-0.022,0.131l-0.105,0.166l-0.332,0.145l-0.332,0.183l-0.167,0.129l-0.085,0.203l-0.253,0.407l-0.147,0.203l-0.27,0.126
			l-0.268,0.054l-0.208,0.184l-0.126,0.147l-0.15,0.428L23.38,9.135l-0.4,0.502l-0.413,0.337l-0.183,0.136l-0.047,0.095l0.057,0.261
			l0.25,0.443l0.042,0.205l-0.153,1.109l-0.219,1.215l-0.146,0.671l-0.205,0.546l-0.142,0.409l-0.184,0.188l-0.273,0.135
			l-0.362,0.05l-0.468,0.021l-0.378,0.091l-0.396,0.229l-0.534,0.404l-0.335,0.257L18.6,17.02l-0.156,0.341l-0.281,0.71
			l-0.237,0.737l-0.107,0.163l-0.166,0.024l-0.256-0.044l-0.569-0.198l-1.2-0.385l-0.36-0.073l-0.271,0.012l-0.166,0.039
			l-0.746,0.565l-1.021,0.936l-0.366,0.353l-0.333,0.16l-0.377-0.004l-0.465-0.074l-0.839-0.296l-0.66-0.213l-0.187-0.092
			l0.048,0.246l0.16,0.989l0.103,0.903l0.167,0.663l0.276,0.623l0.432,0.784l0.503,0.907l0.55,1.158l0.266,0.8l0.103,0.613
			l0.024,0.15l-0.065,0.165l-0.19,0.116l-0.206,0.004l-0.458-0.104l-0.607-0.052l-0.5-0.167l-0.611-0.188l-0.473-0.279l-0.419-0.256
			l-0.296-0.271l-0.212-0.261L8.15,25.991l-0.129-0.249l-0.113-0.123L7.66,25.611l-0.303,0.02l-0.374-0.03l-0.276-0.058L6.65,25.544
			L6.583,25.62l-0.133,0.19l0.007,0.302l0.058,0.715l-0.031,0.454l-0.048,0.314l-0.134,0.179l-0.095,0.052l-0.221-0.021L5.46,27.702
			l-0.234,0.005l-0.438,0.084l-0.165,0.027l-0.069-0.022l-0.152-0.022l-0.302,0.069l-0.124,0.026l-0.124-0.021l-0.179,0.016
			l-0.095,0.065l0.002,0.088l0.016,0.153l0.313-0.166l0.21,0.02l0.418,0.255l0.249,0.035l0.149-0.073l0.349-0.063l0.627,0.258
			L6.1,28.411l0.652-0.342l0.217-0.016l0.488,0.088l0.118,0.109l-0.024,0.112l-0.157,0.093l0.014,0.129l0.402,0.316l0.062,0.138
			l-0.115,0.193l-0.096-0.031l-0.156-0.099l-0.059-0.294l-0.181-0.245l-0.005-0.13l-0.138-0.126l-0.417,0.005L6.32,28.456
			l0.001,0.043l-0.29,0.104l-0.701-0.193l-0.49,0.111l-0.189-0.003l-0.531-0.226l-0.256,0.017l-0.398,0.256l-0.425,0.066
			l-0.219,0.225l0.064,0.439l-0.056,0.271l0.082,0.146l0.183,0.071l0.075,0.188l0.31,0.163l0.133,0.247l0.126,0.083l0.445-0.05
			l0.126,0.083l0.085,0.239l0.172,0.021l0.06,0.067l-0.055,0.288l0.073,0.162l0.453,0.167l0.472-0.059l0.555,0.104l0.154,0.057
			l0.139,0.161l0.017,0.181l-0.078,0.176l-0.587,0.54l0.466,0.522l0.272,0.174l0.146,0.333l0.095,0.015l0.272-0.386l0.079-0.111
			l0.038,0.241L6.86,33.824l-0.251,0.12l-0.266-0.009l-0.611-0.337l-0.209-0.026l-0.09,0.376l-0.221,0.188L4.88,34.139l-0.364-0.101
			l-0.265,0.018l-0.119,0.116l-0.04,0.643l-0.133,0.247l-0.238,0.226l-0.206,0.094l-0.422-0.125L2.84,35.325l-0.366,0.342
			l-0.119,0.351l-0.054,0.071l-0.15,0.021L1.73,36.012l-0.062,0.105l0.097,0.273l-0.018,0.08l-0.007,0.034L1.613,36.63l-0.198,0.016
			l-0.431-0.342l-0.188,0.023L0.731,36.39l0.026,0.182l0.647,0.76L1.379,37.41l-0.376,0.056L0.94,37.563L1,37.64l0.151-0.006
			l0.252-0.086l0.339,0.188l0.529-0.034l0.665-0.214l0.37-0.229l0.27-0.131l0.661-0.567l0.709-0.293l0.275-0.208l0.417-0.031
			l0.834,0.502l0.101,0.146L6.531,36.79l-0.259-0.062l-0.588-0.501l-0.19-0.011L5.3,36.343l-0.461,0.104l-0.715,0.379l-0.98,0.855
			l-0.078,0.185l0.111,0.17l0.437,0.246l0.217-0.008l0.053-0.104l-0.083-0.197l0.028-0.039l0.017-0.022l0.114-0.003l0.139,0.159
			l0.161-0.015l0.218-0.232l0.099,0.11l0.157-0.118l0.143,0.021l0.119,0.118l0.017,0.189l-0.026,0.287l-0.158,0.326l-0.092,0.072
			l-0.181-0.048l-0.449-0.322L3.935,38.41l-0.243,0.103l-0.618,1.148l0.055,0.423L3.083,40.14l-0.17,0.203l0.039,0.276l-0.228,0.225
			l-0.301,0.062l-0.16-0.446l-0.212-0.105l-0.103,0.038l-0.077,0.211l0.082,0.37L1.849,41.22l-0.177,0.075L1.321,41.29l-0.131,0.056
			l-0.022,0.141l0.116,0.083l0.22,0.035l0.217-0.024l0.242-0.111l0.578,0.007l0.349-0.188l0.096-0.052l0.245-0.034l0.634-0.265
			l0.341-0.487l0.256-0.227l0.453-0.03l0.109-0.125L5.02,39.729l-0.09-0.118l-0.21-0.055l-0.157-0.368l0.035-0.078l0.16-0.015
			l0.1,0.127l0.179-0.031l0.396-0.309l0.045,0.189l-0.324,0.201l-0.057,0.235l0.164,0.575l0.314,0.276l0.092,0.422l0.15,0.212
			L6.031,40.9l0.065-0.264l0.331-0.019l0.051,0.076l-0.091,0.114l-0.003,0.165l0.236,0.235l0.164,0.073l0.433-0.075l-0.042,0.14
			L7.027,41.43l-0.294-0.008l-0.341-0.267L6.24,41.152l-0.185,0.109l-0.218-0.011l-0.137-0.1l-0.22-0.539l-0.225-0.176L4.97,40.419
			l-0.245,0.043L4.41,40.611l-0.305,0.452l-0.82,0.34l0.03,0.05l0.349-0.046l0.276,0.052l0.302,0.207l0.033,0.12l-0.098,0.16
			l-0.423,0.316l-0.042,0.141l0.193,0.105l0.247-0.217L4.44,42.17l0.018-0.261l0.064-0.062l0.123,0.014L4.731,42.1l0.023,0.14
			l0.106,0.048l0.435-0.014l1.066-0.104l0.246,0.262l0.21,0.02l0.331,0.258l0.265,0.001l0.393-0.135l0.117,0.092l0.025,0.146
			l-0.091,0.1l-0.245,0.043l-0.334-0.067l-0.192-0.055l-0.301-0.225l-0.472-0.21l-0.361-0.032l-0.321,0.037l-0.448,0.161
			l-0.129,0.107l-0.117,0.134l-0.076,0.229l-0.336,0.124l-0.182,0.188l-0.517,0.32l-0.323-0.023l-0.359,0.255l-0.331,0.012
			l-0.091,0.098l0.037,0.207l0.119,0.145l0.41,0.081l0.088-0.185l0.54-0.234l0.489-0.067l0.456,0.027l0.125,0.068l0.203,0.111
			l0.131-0.021l0.264-0.269l0.129,0.16l-0.057,0.254l0.087,0.04l0.339-0.055l0.04,0.554l0.033,0.354l-0.052,0.374l-0.227,0.024
			l-0.144-0.064l-0.051-0.11l0.208-0.467l-0.04-0.285l-0.186-0.158l-0.511-0.227L4.84,44.231l-0.436-0.003l-0.46,0.094l-0.305,0.2
			l-0.225,0.295l-0.066,0.243l0.108,0.354l0.183,0.297l-0.104,0.255l0.128,0.135l1.124,0.691l0.278,0.096l0.322,0.006l0.254-0.024
			l0.154-0.161l0.207-0.041l-0.055,0.288l0.115,0.039l0.187-0.06l0.077,0.153l0.026,0.053l0.152,0.013l0.435-0.733l0.338-0.089
			l0.059,0.041l0.121,0.213l0.231,0.097l0.381,0.335l0.481-0.023l0.276-0.46l0.253-0.052l0.265-0.26l0.093-0.047l0.16-0.272
			l0.162,0.028l0.379,0.525l0.149,0.193l-0.163,0.196l-0.292-0.477l-0.144-0.047l-0.396,0.264l-0.363,0.159l-0.239,0.433
			l-0.352-0.041L7.99,47.183l-0.312-0.259l-0.312,0.01l-0.263-0.208l-0.141,0.022l-0.106,0.419l-0.18,0.249l-0.304-0.025
			L6.094,47.27l-0.331,0.012l-0.213,0.12l-0.171,0.214l-0.19-0.037l-0.242-0.383l-1.111-0.598L2.888,46.3l-0.18,0.006l-0.11,0.082
			l-0.212,0.137l-0.011,0.218l0.115,0.172l0.749,1.118l0.115,0.281l-0.107,0.159l-0.202-0.098l-0.482-0.46l-0.121-0.196l-0.07-0.578
			l-0.183-0.313l-0.176-0.15l-0.188,0.015l-0.372,0.16l-0.08,0.124l0.04,0.06l0.228,0.019l0.071,0.11l-0.035,0.097l-0.229,0.198
			l-0.396,0.005l-0.204,0.119l-0.19,0.197l-0.075,0.263l0.08,0.119l0.188-0.268l0.104,0.015l0.08,0.102L0.93,48.438l-0.165,0.128
			l0.005,0.121l0.22,0.296l0.133,0.508l0.183,0.313l0.542,0.572l0.124,0.021l0.089-0.149L2.04,50.14l-0.015-0.081l0.165-0.118
			l0.16-0.021l0.227-0.259l0.353-0.646l0.273-0.252l0.195-0.085l0.257,0.026l0.237,0.27l0.162,0.038l0.599-0.401l0.096,0.031
			l0.101,0.162L4.156,49.2L3.91,49.19l-0.29-0.155l-0.3,0.062l-0.427,0.439l-0.086,0.202l0.047,0.249l0.991,0.453l0.484,0.045
			l0.482,0.01l0.495,0.322l0.218,0.011l0.2,0.271l0.025,0.398l0.059,0.05l0.16-0.014l0.136-0.396l-0.076-0.509l0.034-0.34
			l0.182-0.01l0.042,0.189l0.012,0.056L6.226,51.35l-0.127,0.368l-0.307,0.114l-0.163-0.047L5.56,51.7v-0.494l-0.112-0.195
			l-0.227-0.002l-0.224-0.157l-0.552-0.103l-1.073-0.112L3.25,50.666l0.067,0.267L2.875,50.74l-0.357,0.038L2.313,51.14l0.072,0.137
			l0.262,0.174l0.023,0.121l-0.062,0.08l-0.325-0.095l-0.071,0.099l-0.01,0.218l0.131,0.221l0.079,0.336l0.17,0.229l0.307,0.12
			l0.149,0.177l-0.137,0.101l-0.456-0.062l-0.14,0.056l-0.088,0.177l-0.013,0.156l0.155,0.333l0.298,0.363l0.266,0.017l0.143,0.039
			l0.05,0.302l0.177,0.193l0.368,0.214l0.555,0.198l0.675,0.134l0.644,0.021l0.344-0.132l0.069,0.075l0.023,0.086l-0.182,0.18
			l-0.368,0.021l-1.648-0.371l-0.397-0.004l-0.004,0.6l0.143,0.28l-0.025,0.062l-0.024,0.104l0.179,0.229l-0.004,0.382l0.084,0.214
			l0.205,0.185l0.144,0.048l0.229,0.062l0.126,0.325l0.293,0.26l0.023,0.12l-0.073,0.072l-0.17-0.021l-0.341-0.273l-0.123,0.004
			l-0.023,0.122l0.143,0.272l0.443,0.471l0.201,0.071l0.188-0.016l0.131-1.001l0.02-0.243l0.157-0.316l0.595-0.471l0.438-0.621
			l0.39-0.41l0.141-0.006l0.1,0.146l-0.098,0.168l-0.371,0.167L6.396,56.17l-0.089,0.386l-0.2,0.196l-0.41,0.134l-0.016,0.089
			l0.119,0.126l0.384,0.169l0.328,0.642l-0.112,0.102l-0.457,0.106l-0.596,0.688l-0.033,0.122v0.226l0.521,1.301l-0.559,0.102
			l0.076,0.101l0.231,0.118l0.714-0.02l0.117,0.111l0.033,0.075l-0.072,0.326l-0.271,0.272l-0.035,0.211l-0.256,0.426l-0.058,0.469
			l0.109,0.196l0.229,0.052l2.059-1.128l0.23-0.084l0.138-0.051l0.26,0.032l0.336,0.145l0.15,0.157l-0.12,0.146l-0.299,0.056
			l-0.225,0.11l-0.41,0.486l-0.415-0.01l-0.122,0.07l-0.005,0.134l0.147,0.119l0.485-0.04l0.18,0.119l0.123,0.292l-0.073,0.335
			l0.176,0.349L8.6,64.316l-0.203,0.12L8.25,64.421l-0.298-0.25L7.767,63.86l-0.095-0.045l-0.144,0.042L7.49,64.011l0.158,0.424
			l0.17,0.139l0.999,0.138l0.084,0.056l0.576,0.557l0.4,0.229l0.597,0.213l0.06-0.06l-0.04-0.294l-0.137-0.405l0.197-0.005
			l0.441,0.208l0.355,0.458l-0.227,0.054l-0.017,0.096l0.679,0.212l0.218,0.004l0.091-0.06l0.036-0.191l-0.052-0.369l0.168-0.242
			l0.12,0.216l0.059,0.561l-0.064,0.659l0.184,0.624l0.053,0.046l0.549,0.006l0.101-0.098l0.031-0.363l0.683,0.326l0.329-0.063
			l0.056,0.054l0.211,0.206l0.035,0.123l-0.274,0.893l0.035,0.143l0.47,0.142l0.572,0.453l0.166-0.005l0.306-0.149l0.341-0.026
			l0.22,0.08l0.342-0.343l0.322,0.051l0.586,0.232l0.439-0.173l0.336,0.135l0.869-0.011l0.152-0.08l0.038-0.134l-0.109-0.198
			l-1.295-1.131l-0.336-0.521l-0.173-0.268l0.166-0.021l0.035,0.039l0.083,0.092l0.96,0.634l0.754,0.296l0.771,0.173l0.44,0.189
			l0.349,0.229l0.417,0.113l0.289-0.045l0.552,0.14l0.267-0.092l0.155-0.133l0.128-0.111l0.077-0.212L23,67.02l0.052-0.354
			l0.111-0.832l-0.044-0.104l0.324-1.396l0.369-0.515l0.375-1.027l0.353-0.359l0.359-0.504l0.471-0.211l0.079-0.122l0.364,0.43
			l-0.685,0.717l-0.55,0.746l-0.086,0.24l-0.234,0.919l-0.01,0.393l0.287,1.394l0.922,0.426l1.254,0.781l0.229,0.023l-0.324-0.497
			l-0.112-0.312l0.038-0.135l0.086,0.122l0.171,0.196l0.409,0.257l0.65,1.07l0.137,0.035l0.118-0.192l0.208,0.022l0.295,0.165
			l0.351,0.335l0.102,0.284l0.631,0.404l1.551-0.055l0.068-0.017l0.312-0.077l0.077-0.192l-0.036-0.218l-0.147-0.11l0.104-0.326
			l-0.104-0.455l0.083-0.354l-0.602-1.625l0.02-0.429l0.19-0.623l-0.121-0.357l0.504-0.358l0.151,0.034l0.118,0.242l0.285,0.092
			l-0.206,0.247l-0.105,0.297l-0.031,0.354l0.248,1.146l0.105,0.122l0.323,0.115l0.277,0.289l0.121,0.266l0.126,0.062l0.33-0.045
			l0.849-0.371l0.133-0.106l-0.168-0.404l0.338,0.084l0.217,0.073l0.11,0.293l0.19,0.102l0.748,0.107l0.049-0.077l-0.265-0.613
			l-0.094-0.397l0.058-0.152l0.31-0.004l0.681,0.619l0.33-0.073l0.225,0.224l0.204-0.128l0.448,0.172l0.061-0.077l0.104-0.812
			l-0.302-0.615l0.615,0.037l0.357-0.096l0.181-0.049l1.014-0.469l0.397-0.274l0.681-0.91l0.447-0.352l0.185-0.062l0.301,0.014
			l0.864,0.602l0.344,0.06l0.146-0.049l0.033,0.147l0.097-0.029l0.166-0.051l0.08-0.051l0.092-0.059l0.051-0.132l0.031-0.081
			l0.022-0.126l0.03-0.166l-0.023-0.097l-0.037-0.142l-0.004-0.292l-0.001-0.021l-0.005-0.349l0.065-0.139l0.073-0.155l0.057-0.025
			l0.115-0.056l0.172-0.081l0.202-0.003l0.122-0.033l0.078-0.021l0.175-0.065l0.112-0.044l0.056-0.134l0.111-0.06l0.089-0.049
			l0.144-0.078l0.058-0.03l0.04-0.016l0.104-0.039l0.087,0.052l0.071,0.127l0.047,0.084l0.062,0.264l0.06,0.132l0.086,0.096
			l0.018,0.02l0.016,0.017l7.604,0.045l7.531,0.044l0.027-0.62l0.042-0.957l0.358-1.488l0.064-2.233l0.012-0.434l0.009-1.283
			l0.01-1.26l0.006-0.558l0.008-0.681l0.038-0.647l0.046-1.221l-0.002-1.708v-0.291l0.008-0.013l-0.38-0.368l0.022-0.115
			l-0.129-0.103l-0.11-0.48l-0.11-0.5l-0.146-0.554l-0.104-0.623l-0.294-0.721l-0.161-0.254l-0.089-0.144l-0.251,0.006l-0.848-0.07
			l-1.216-0.015l-1.025,0.028l-1.087,0.098l-0.683,0.114l-0.21,0.021l-0.117,0.048l-0.121,0.119l-0.161,0.117l-0.121,0.119
			l-0.37,0.055l-0.25-0.01l-0.482-0.019l-0.266-0.101l-0.385-0.033l-0.667-0.186l-0.78-0.243l-0.357-0.189l-0.229-0.08l-0.386,0.003
			l-0.307-0.083l-0.415-0.211l-0.202-0.202l-0.055-0.091l-0.094-0.058l-0.08,0.05l-0.044,0.123l-0.062,0.067l-0.098-0.003
			l-0.135-0.006l-0.227-0.114l-0.051-0.162l0.006-0.123l0.104-0.138l0.143-0.171l0.228-0.292l0.129-0.277l0.079-0.438l-0.108-0.163
			l-0.172-0.042l-0.271,0.023l-0.253,0.044l-0.236,0.098l-0.32,0.234l-0.104,0.154l-0.142,0.101l-0.155,0.047l-0.132-0.109
			l-0.159-0.308l-0.191-0.548l-0.069-0.586l-0.032-0.531l0.083-0.545l0.089-0.244l-0.023-0.478l-0.033-0.124l-0.074-0.039
			l-0.343-0.154l-0.108-0.128l-0.049-0.196l0.006-0.141l0.116-0.438l-0.005-0.318l0.079-0.456l0.063-0.121l0.138-0.048l0.119-0.049
			l0.043-0.104l0.004-0.088l-0.073-0.092l-0.072-0.073l-0.138-0.005l-0.154,0.029l-0.232,0.009l-0.134-0.041l-0.071-0.127
			l-0.062-0.303l-0.263-0.63l-0.178-0.343l-0.033-0.125l0.124-0.172l0.265-0.255l0.023-0.105l-0.05-0.195l-0.106-0.082l-0.028-0.138
			l-0.04-0.177l-0.074-0.189l-0.129-0.207l-0.095-0.168l-0.104-0.084l-0.201-0.098l-0.158-0.051l-0.157-0.016l-0.062-0.038
			l-0.059-0.081l-0.033-0.08l0.001-0.152l0.051-0.054l0.163-0.105l0.23-0.141l0.102-0.103l0.067-0.152l0.033-0.146l-0.023-0.1
			l-0.062-0.134l-0.059-0.126l-0.012-0.149l0.026-0.263l0.039-0.348l0.035-0.19l0.084-0.202l0.062-0.162l0.055-0.176l0.014-0.156
			l-0.004-0.1l-0.041-0.068l-0.092-0.059l-0.121-0.072l-0.217-0.089l-0.129-0.097l-0.171-0.13l-0.066-0.069l-0.038-0.104
			l0.001-0.068l0.067-0.146l0.043-0.197l0.047-0.173L44.563,29.091"/>
	</g>
</g>
<g id="Layer_1">
</g>
</svg>
