<?xml version="1.0" encoding="iso-8859-1"?>
<!-- Generator: Adobe Illustrator 16.0.4, SVG Export Plug-In . SVG Version: 6.00 Build 0)  -->
<!DOCTYPE svg PUBLIC "-//W3C//DTD SVG 1.1//EN" "http://www.w3.org/Graphics/SVG/1.1/DTD/svg11.dtd">
<svg version="1.1" xmlns="http://www.w3.org/2000/svg" xmlns:xlink="http://www.w3.org/1999/xlink" x="0px" y="0px"
	 width="66.565px" height="59.426px" viewBox="0 0 66.565 59.426" style="enable-background:new 0 0 66.565 59.426;"
	 xml:space="preserve">
<g id="Layer_137">
	<g id="Layer_142">
		<path id="DISTRICT_x3D_Jhang_x2C_PROVINCE_x3D_Punjab" style="fill:#CCCCCC;stroke:#FFFFFF;stroke-width:1.07;" d="M66.098,8.434
			L66.098,8.434L66.007,8.27l-0.036-0.087l-0.072-0.08l-0.116-0.14l-0.133-0.13l-0.104-0.116l-0.117-0.16L65.34,7.382l-0.066-0.126
			l-0.037-0.094l-0.049-0.113l-0.05-0.104l-0.057-0.077l-0.052-0.043l-0.044-0.029l-0.071-0.023l-0.099-0.019l-0.13-0.012
			L64.44,6.699l-0.067-0.009l-0.03-0.033L64.337,6.58l-0.021-0.121l-0.033-0.097l-0.045-0.063l-0.071-0.063l-0.114-0.049
			l-0.187-0.065l-0.111-0.028l-0.159-0.022l-0.106-0.019l-0.062-0.036L63.39,5.974l-0.068-0.07L63.258,5.84L63.19,5.788l-0.052-0.02
			l-0.062-0.006l-0.062-0.016l-0.044-0.05l-0.014-0.043l0.012-0.044l0.051-0.058l0.05-0.084l0.083-0.179L63.194,5.2l0.007-0.066
			l0.006-0.067l-0.009-0.071L63.182,4.93l-0.029-0.104l-0.033-0.104l-0.001-0.083l0.008-0.058l0.025-0.054l0.085-0.128l0.104-0.149
			l0.136-0.143L63.302,3.96l-0.062-0.053L63.22,3.83l-0.026-0.1l-0.022-0.133l-0.009-0.161l-0.001-0.129L63.148,3.27l-0.056-0.049
			L63.02,3.172l-0.104-0.038l-0.094-0.034l-0.158-0.018l-0.126-0.037l-0.096-0.071l-0.122-0.051h-0.097l-0.049,0.015l-0.06,0.007
			l-0.07-0.021l-0.039-0.021l-0.057-0.042L61.86,2.828l-0.114-0.005l-0.087-0.001L61.59,2.815l-0.077-0.03L61.456,2.75l-0.041-0.059
			l-0.029-0.059l-0.048-0.072l-0.062-0.039l-0.061-0.03l-0.082,0.003l-0.086,0.008l-0.043,0.029l-0.047,0.03l-0.059,0.025
			l-0.112,0.018l-0.373,0.027l-0.309,0.002L59.91,2.612l-0.16-0.049L59.642,2.53L59.567,2.45L59.5,2.401l-0.146-0.022L59.18,2.373
			l-0.161,0.034l-0.103,0.018l-0.169-0.017l-0.088-0.029l-0.072-0.03l-0.038-0.038l-0.062-0.075L58.419,2.16l-0.172-0.178
			l-0.132-0.138L57.94,1.726L57.803,1.67l-0.231-0.084l-0.216-0.08l-0.114-0.023l-0.119,0.004L57.036,1.5l-0.104-0.034L56.827,1.42
			l-0.072-0.048l-0.119-0.102l-0.085-0.089l-0.185-0.169l-0.085,0.077l-0.177,0.186l-0.155,0.084l-0.124,0.023L55.72,1.363
			l-0.216,0.009l-0.227-0.049l-0.08-0.067l-0.066-0.056l-0.08-0.05l-0.049-0.016l-0.073-0.074l-0.025-0.064l-0.002-0.137
			l0.006-0.137l-0.003-0.059l-0.047-0.075l-0.085-0.032l-0.142-0.005L54.36,0.54l-0.104,0.04l-0.038,0.055l-0.026,0.132l0.047,0.194
			l0.012,0.189l-0.006,0.143L54.203,1.39l-0.108,0.165L54.074,1.68l0.018,0.171l0.1,0.161l0.063,0.051l0.115,0.06l0.086,0.032
			l0.219,0.032l0.093,0.02l0.051,0.039l0.099,0.025l0.07,0.015l0.036,0.022l0.018,0.041l-0.055,0.038l-0.002,0.072l0.003,0.053
			l0.052,0.045l0.004,0.053l-0.039,0.049l-0.075,0.01l-0.086-0.032l-0.159-0.1l-0.163-0.153l-0.164-0.076l-0.201-0.098l-0.156-0.041
			L53.943,2.17l-0.034,0.013l-0.031,0.055l-0.039,0.044l-0.096,0.022L53.632,2.31l-0.061,0.032l-0.051,0.091l-0.01,0.19
			l-0.017,0.078l-0.05,0.085l-0.052,0.067l-0.115,0.053l-0.084-0.008l-0.064-0.027l-0.123-0.066l-0.115-0.09l-0.062-0.08
			l-0.052-0.033l-0.078-0.026l-0.033,0.013l-0.067,0.027l-0.031,0.061l-0.043,0.084l-0.068,0.021l-0.049,0.002l-0.078-0.026h-0.111
			L52.15,2.778l-0.047,0.032l-0.011,0.066l0.017,0.041l0.053,0.057l0.106,0.037l0.023,0.046l-0.018,0.061l-0.078,0.087l-0.039,0.055
			l0.053,0.063l0.115,0.06l0.104,0.125l0.076,0.11l0.142,0.125l0.195,0.14l0.106,0.036l0.084,0.009l0.122,0.053l0.184,0.152
			l0.124,0.09l0.078,0.02l0.048-0.002l0.042-0.007l0.021-0.025l0.024-0.03l0.047-0.032l0.041-0.014l0.069-0.003l0.09-0.01
			l0.047-0.026l0.065-0.068l0.025-0.042l0.048-0.02l0.033-0.001l0.044,0.01l0.029,0.04l0.015,0.105l0.047,0.087l0.072,0.056
			l0.195,0.122l0.229,0.085l0.169,0.034l0.188-0.008l0.14-0.006l0.116-0.017l0.058,0.016l0.064,0.044l0.052,0.152l0.034,0.105
			l0.045,0.051l0.093,0.037l0.104,0.014l0.029,0.022l0.039,0.063l0.021,0.112L55.91,5.194l-0.011,0.042l-0.145,0.06L55.55,5.341
			L55.468,5.38l-0.01,0.048l0.001,0.029l0.017,0.041l0.029,0.028l0.037,0.034l0.023,0.041l0.001,0.018l-0.018,0.06l-0.03,0.091
			l0.004,0.047l0.017,0.035l0.065,0.045l0.041,0.01l0.069-0.003l0.07,0.015l0.085,0.026l0.031,0.052l0.003,0.048l-0.053,0.067
			l-0.12,0.071l-0.091,0.01l-0.077-0.02l-0.11-0.001l-0.056,0.02l-0.02,0.019l-0.056,0.002l-0.029-0.022l-0.036-0.016l-0.069,0.003
			l-0.04,0.025l-0.086,0.081l-0.069,0.098l-0.108,0.041l-0.056,0.002l-0.08-0.044l-0.032-0.076l0.009-0.089l0.021-0.114L54.74,6.02
			L54.7,5.926l-0.076-0.11l-0.052-0.039l-0.119-0.018l-0.326,0.008l-0.188,0.021l-0.348,0.069L53.404,5.89L53.24,5.938l-0.128,0.059
			l-0.12,0.095l-0.179,0.055l-0.062-0.009l-0.043-0.027l0.003-0.066l0.038-0.061l0.012-0.042l-0.031-0.04l-0.099-0.025l-0.037-0.04
			l-0.002-0.035l0.013-0.036l0.023-0.055l-0.002-0.03l-0.029-0.028l-0.063-0.033l-0.136-0.047L52.36,5.527L52.357,5.48l-0.007-0.077
			l-0.021-0.041l-0.03-0.034l-0.058-0.033l-0.003-0.041l0.024-0.055l0.03-0.067l0.03-0.079l-0.002-0.035l-0.038-0.04l-0.044-0.034
			l-0.022-0.034l-0.025-0.076l-0.042-0.016l-0.049,0.008L52.02,4.865l-0.057,0.002l-0.035-0.01l-0.042-0.004l-0.048,0.008
			l-0.066,0.045l-0.123,0.035l-0.08,0.045l-0.074,0.057L51.39,5.061l-0.073,0.027L51.27,5.113l-0.055,0.038l-0.081,0.033
			l-0.076,0.003l-0.056,0.009l-0.04,0.031l-0.062,0.098l-0.064,0.08l-0.102,0.04l-0.127-0.018L50.559,5.43l-0.073,0.063
			l-0.063,0.104l0.005,0.065l0.017,0.034l0.067,0.086l0.033,0.093L50.526,5.93l-0.065,0.074l-0.139,0.101l-0.085,0.099l-0.011,0.048
			l0.009,0.03l0.044,0.045l0.051,0.027l0.036,0.017l0.001,0.023l0.002,0.029l-0.052,0.062l0.003,0.042l0.018,0.059l0.058,0.027
			l0.017,0.035l-0.026,0.031l-0.072,0.051l-0.143,0.078L50.04,6.831l-0.034-0.004l-0.038-0.052l-0.031-0.076l-0.069-0.11
			L49.73,6.513l-0.071-0.038l-0.302-0.147L49.14,6.183l-0.064-0.026l-0.112-0.007l-0.075,0.015l-0.082-0.002l-0.043,0.002
			l-0.039,0.025L48.657,6.24l-0.09,0.016L48.484,6.26l-0.159,0.007l-0.068,0.027l-0.053,0.044l-0.135,0.065l-0.132,0.012
			l-0.076,0.004l-0.168-0.017l-0.124,0.03l-0.135,0.053l-0.141,0.113l-0.151,0.126l-0.094,0.075l-0.127,0.083l-0.088,0.04
			l-0.137,0.03L46.58,6.971l-0.164,0.067l-0.065,0.044l-0.088,0.051l-0.201,0.11l-0.174,0.115l-0.142,0.264l-0.021,0.067
			l-0.022,0.059l-0.044,0.064l-0.048,0.052l-0.075,0.023l-0.079,0.001l-0.091-0.024l-0.1-0.057l-0.084-0.063l-0.095-0.044
			l-0.108-0.038l-0.155-0.021l-0.071,0.004l-0.045,0.017l-0.067,0.065l-0.044,0.049l-0.028,0.062l-0.033,0.074l-0.04,0.041
			l-0.097,0.052l-0.146,0.069l-0.153,0.089L43.991,8.23L43.887,8.31l-0.155,0.143l-0.115,0.094L43.474,8.65L43.31,8.762
			l-0.104,0.053l-0.091,0.007l-0.053,0.007l-0.079-0.005l-0.071-0.031l-0.084-0.044l-0.106-0.047l-0.061-0.038L42.552,8.62
			l-0.091-0.006l-0.083,0.004l-0.127,0.031l-0.139,0.056l-0.209,0.08l-0.185,0.063l-0.153,0.027l-0.146,0.03l-0.176,0.024
			l-0.17,0.018l-0.207,0.019l-0.135,0.008l-0.269,0.016l-0.248,0.014l-0.176,0.024l-0.064,0.017l-0.06,0.02l-0.037,0.032
			l-0.033,0.029l-0.041,0.068L39.76,9.238l-0.028,0.029l-0.091,0.024l-0.087,0.017l-0.162,0.005l-0.16-0.008l-0.1-0.005
			l-0.149-0.001L38.76,9.315l-0.14,0.011l-0.149,0.053l-0.09,0.036l-0.069,0.04l-0.075,0.056L38.18,9.58l-0.049,0.081l-0.033,0.058
			l-0.014,0.093l-0.01,0.106l0.002,0.058l0.034,0.074l0.051,0.089l0.051,0.093l0.034,0.054l0.005,0.067l-0.015,0.045l-0.044,0.042
			l-0.053,0.026l-0.029,0.017l-0.05,0.014h-0.029l-0.045,0.023l-0.025,0.026l-0.025,0.051l-0.007,0.052l-0.024,0.058l-0.037,0.045
			l-0.045,0.036l-0.078,0.014l-0.062-0.009l-0.05-0.044l-0.08-0.063l-0.054-0.051L37.4,10.597l-0.075-0.021l-0.063-0.012
			l-0.057,0.004l-0.136,0.034l-0.092,0.029L36.9,10.664l-0.119,0.062l-0.123,0.079l-0.056,0.052l-0.057,0.065l-0.033,0.058
			l-0.027,0.074l-0.002,0.116l0.021,0.096l0.028,0.09l0.038,0.07l0.03,0.076l0.024,0.071l0.017,0.07l-0.003,0.071l-0.021,0.086
			l-0.021,0.071l-0.056,0.075l-0.094,0.04l-0.116-0.005l-0.083-0.002l-0.087-0.028l-0.136-0.014l-0.086,0.004l-0.062,0.033
			l-0.051,0.052l0.001,0.077l0.039,0.086l0.059,0.099l0.076,0.092l0.021,0.074l0.001,0.081l-0.029,0.042l-0.108,0.04l-0.161,0.041
			l-0.252,0.025l-0.229,0.029l-0.161,0.037l-0.045,0.029l-0.024,0.045l-0.027,0.071l-0.021,0.11l-0.032,0.093l-0.044,0.046
			l-0.073,0.062l-0.104,0.059l-0.193,0.093l-0.279,0.116l-0.328,0.033l-0.441,0.024l-0.418,0.073l-0.145-0.013l-0.146,0.029
			l-0.256,0.099l-0.241,0.057l-0.417,0.1l-0.192,0.016l-0.322-0.011l-0.355-0.093l-0.177-0.04l-0.111,0.001l-0.16,0.084
			l-0.191,0.167l-0.013,0.207l0.052,0.288l0.15,0.397l0.001,0.097l-0.047,0.11l-0.159,0.125l-0.271,0.14l-0.271,0.181l-0.288,0.165
			l-0.176,0.066l-0.14,0.012l-0.113-0.063l-0.064-0.032l-0.101,0.012l-0.112,0.109l-0.137,0.12l-0.201,0.121l-0.226,0.11
			l-0.238,0.121l-0.075,0.044l-0.125,0.045l-0.113,0.076l-0.074,0.098l-0.1,0.055l-0.201,0.045l-0.188,0.056l-0.139,0.023
			l-0.075,0.087l0.001,0.054l0.001,0.108l-0.049,0.108L26.76,17.17l-0.036,0.109l0.002,0.119l0.002,0.13l-0.049,0.13l-0.162,0.131
			l-0.149,0.045h-0.089l-0.103-0.031l-0.14-0.096l-0.077-0.053l-0.14-0.031l-0.102,0.001l-0.163,0.067l-0.301,0.132l-0.151,0.013
			l-0.062-0.01l-0.039-0.075v-0.054l0.023-0.098l0.11-0.098l0.327-0.123l0.062-0.098l-0.001-0.086l-0.092-0.129l-0.307-0.277
			l-0.041-0.15l-0.001-0.086l-0.001-0.129l0.137-0.121l0.149-0.12l0.177-0.067l0.138-0.056l0.051-0.065l0.01-0.184l-0.002-0.107
			l0.011-0.098l0.124-0.142l0.337-0.317l0.312-0.251l0.399-0.274l0.188-0.11l0.399-0.188l0.251-0.175l0.034-0.249l-0.051-0.278
			l-0.065-0.129l-0.113-0.064l-0.015-0.075l0.074-0.076l-0.014-0.097l-0.065-0.194l0.086-0.152l0.102-0.066h0.088l0.166,0.084
			l0.179,0.149l0.091,0.193l0.179,0.128l0.103,0.01l0.201-0.088l0.148-0.153l0.023-0.108l-0.025-0.032l-0.076-0.042l-0.063-0.053
			l0.037-0.087l0.074-0.13l0.225-0.164l0.201-0.121l0.049-0.087v-0.064l0.087-0.087l0.187-0.185l0.25-0.251l0.036-0.141
			l-0.001-0.043l-0.063-0.097l-0.166-0.096l-0.103-0.096l-0.116-0.171l-0.242-0.203l-0.103-0.053l-0.203-0.02l-0.102-0.031
			l-0.039-0.054l-0.052-0.129l-0.204-0.138l-0.154-0.139l-0.217-0.084l-0.165-0.074L27.85,9.994l-0.077-0.075l-0.254-0.105
			l-0.375-0.099L26.94,9.642l-0.241-0.095l-0.242-0.148l-0.279-0.073l-0.176,0.045l-0.227,0.088l-0.139,0.131l-0.099,0.152
			l-0.162,0.229l-0.073,0.109l-0.089,0.022l-0.152-0.031l-0.076-0.086l-0.672-0.286l-0.521-0.109l-0.085,0.194L23.59,9.986
			l-0.157,0.324l-0.074,0.148l-0.097,0.102l-0.151,0.047l-0.225,0.094l-0.237,0.038l-0.227-0.008l-0.313-0.082l-0.293-0.201
			l-0.326-0.191l-0.303-0.201l-0.142-0.082H20.97l-0.043,0.028l-0.086,0.11l-0.14,0.222l-0.186,0.218l-0.169,0.323l-0.32,0.5
			l-0.297,0.417l-0.267,0.379L19.1,12.599l-0.396,0.371l-0.25,0.211l-0.301,0.223l-0.256,0.278l-0.278,0.287l-0.213,0.241
			l-0.191,0.25l-0.343,0.315l-0.256,0.25l-0.213,0.269l-0.19,0.324l-0.114,0.452l-0.024,0.192l-0.027,0.442l-0.01,0.203
			l-0.053,0.111l-0.031,0.175l0.023,0.156l0.002,0.138l-0.064,0.093l-0.19,0.222l-0.203,0.186l-0.332,0.232l-0.234,0.213
			l-0.128,0.194l-0.289,0.422l-0.093,0.125l-0.139,0.213l-0.19,0.231l-0.045,0.316l0.027,0.61l0.004,0.067l0.068,0.085l0.256,0.133
			l0.449,0.158l0.264,0.055l0.08,0.041l0.029,0.065l0.025,0.209l-0.008,0.732l-0.002,0.6l0.084,0.54l0.072,0.34l0.007,0.1
			l-0.053,0.19l-0.053,0.213l-0.008,0.089l0.075,0.163l0.264,0.51l0.167,0.403l0.041,0.242l-0.027,0.412l-0.073,0.48l-0.025,0.223
			l0.043,0.287l0.104,0.217l0.102,0.173l0.006,0.1l-0.09,0.226l-0.082,0.258l-0.202,0.508l-0.092,0.614l-0.099,0.925l-0.122,0.338
			l-0.145,0.195l-0.16,0.129l-0.178,0.052l-0.207-0.001l-0.237-0.078l-0.354-0.095l-0.537-0.12l-0.589-0.106l-0.951-0.135
			l-0.627-0.093l-0.338-0.029l-0.463,0.032l-0.614,0.117L9.66,30.174l-0.381,0.257l-0.443,0.364L8.55,30.94l-0.548,0.158
			l-0.598,0.149l-0.455,0.176l-0.137,0.072l-0.191,0.265l-0.157,0.362l-0.108,0.315l-0.011,0.444l-0.021,0.312l-0.033,0.29
			l-0.35,0.368l-0.207,0.326L5.201,34.6l0.122,0.592l0.102,0.406l0.102,0.268l0.145,0.211l0.21,0.269l0.208,0.396l0.281,0.676
			l0.233,0.442l0.208,0.351l0.372,0.397l0.142,0.257l0.01,0.209l0.008,0.334l-0.006,0.278l-0.073,0.323L7.15,40.283L6.942,40.57
			l-0.355,0.307l-0.219,0.17l-0.083,0.148l-0.111,0.229l-0.139,0.171l-0.084,0.138l-0.149,0.148l-0.101,0.253l-0.003,0.15
			L5.696,42.4l0.065,0.07l0.213,0.119l0.146,0.129l0.607,0.436l0.132,0.141l0.169,0.258l0.265,0.166l0.253,0.189l0.116,0.151
			l0.038,0.14l-0.003,0.114l-0.055,0.093l-0.082,0.067l-0.123,0.079l-0.15,0.137L7.1,45.025l-0.004,0.51l0.247,0.519l0.439,0.213
			l0.583,0.028H8.59l0.068-0.021l0.069-0.027l0.102,0.096l0.051,0.046l0.03,0.075l0.006,0.082l-0.021,0.109l-0.072,0.103
			l-0.104,0.086L8.63,46.922l-0.104,0.166L8.42,47.226L8.241,47.42l-0.205,0.209l-0.133,0.115L7.78,47.822l-0.146,0.063L7.47,47.91
			l-0.188-0.004l-0.229-0.037l-0.146-0.002l-0.189,0.062l-0.081,0.108l-0.037,0.096l0.026,0.208l0.06,0.288l0.02,0.164l-0.005,0.148
			l-0.03,0.162L6.61,49.265l-0.118,0.196l-0.16,0.16l-0.199,0.09l-0.165,0.062l-0.182,0.025l-0.385-0.024L5.119,49.76l-0.291-0.008
			l-0.096,0.021l-0.116,0.056l-0.069,0.041l-0.105,0.08L4.36,50.064l-0.124,0.131l-0.082,0.123l-0.026,0.051l-0.023,0.191
			l-0.032,0.214l-0.006,0.162L4.02,51.068L3.885,51.25l-0.116,0.123l-0.147,0.078l-0.224,0.047l-0.208,0.054l-0.183,0.069
			l-0.131,0.062L2.764,51.74l-0.055,0.051l-0.054,0.072l-0.046,0.11l-0.065,0.153l-0.076,0.278l-0.076,0.212l-0.021,0.088
			l0.034,0.172l0.011,0.199l0.021,0.119l0.048,0.119l0.031,0.09l-0.003,0.073l-0.047,0.117l-0.089,0.116l-0.184,0.092l-0.167,0.121
			l-0.269,0.084l-0.396,0.063L1.23,54.156l-0.044,0.059l-0.021,0.08l-0.002,0.052l0.081,0.135l0.048,0.12l0.079,0.193l0.006,0.104
			l-0.013,0.104l-0.077,0.279l-0.032,0.205l0.017,0.318l-0.005,0.14l-0.005,0.155l-0.038,0.117l-0.08,0.087l-0.31,0.317L0.69,56.906
			l0.045,0.031l0.149,0.105l0.209,0.156l0.113,0.084l0.148,0.137l0.128,0.115l0.067,0.058l0.054,0.022l0.104,0.016l0.148-0.006
			l0.089,0.021l0.03,0.011l0.055,0.033l0.078,0.072l0.18,0.197l0.08,0.133l0.059,0.142l0.042,0.101l0.041,0.063l0.096,0.058
			l0.061,0.021l0.084,0.019l0.129,0.002l0.119-0.009l0.136-0.024l0.133-0.01l0.13,0.008l0.067,0.019l0.08,0.054l0.038,0.058
			l0.06,0.062l0.088-0.091l0.155-0.188l0.096-0.133l0.375-0.146l0.759-0.212h0.123l0.135-0.04l0.133-0.089l0.348-0.209l0.144-0.094
			l0.064-0.051l-0.002-0.035l-0.023-0.035l-0.084-0.055l-0.09-0.08l-0.043-0.035v-0.06l0.039-0.08l0.176-0.253l0.228-0.284
			l0.243-0.327l0.189-0.17l0.242-0.184l0.178-0.174l0.126-0.084l0.064-0.025l0.075,0.016l0.09,0.049l0.112,0.062l0.064,0.015
			l0.059-0.004l0.093-0.055l0.242-0.184l0.206-0.204l0.145-0.099l0.15-0.06l0.209-0.06l0.128-0.064l0.114-0.079l0.115-0.108
			l0.104-0.069l0.175-0.084l0.133-0.03l0.135-0.014l0.034-0.03l0.046-0.044l0.033-0.061l0.051-0.064l0.047-0.016l0.088,0.011
			l0.025,0.04l0.001,0.045l0.015,0.115l0.049,0.055l0.111,0.025l0.129-0.004l0.076-0.021l0.058-0.045l0.092-0.119l0.062-0.075
			l0.074-0.064h0.035l0.054,0.025l0.03,0.045l0.126,0.096l0.195,0.097l0.203,0.126l0.12,0.109l0.095,0.152l0.101,0.094l0.064,0.025
			l0.224-0.02l0.175-0.049l0.109-0.073l0.049-0.119l0.029-0.205l-0.003-0.12l0.01-0.09l0.021-0.03l0.035-0.01l0.059,0.015
			l0.132,0.026h0.108l0.072,0.006l0.135,0.03l0.042,0.041l0.055,0.061l0.061,0.029h0.111l0.327-0.027l0.136-0.004l0.083,0.021
			l0.036,0.05l0.014,0.06l-0.006,0.2l0.02,0.084l0.025,0.035l0.104,0.011l0.095-0.009l0.217-0.028l0.334-0.026l0.205-0.028
			l0.109-0.039l0.063-0.035l0.051-0.059l0.072-0.159l0.025-0.108l-0.015-0.104l-0.014-0.065l-0.008-0.064l0.038-0.055l0.034-0.055
			l-0.014-0.055l-0.038-0.07l-0.114-0.115l-0.113-0.102l-0.08-0.091l0.005-0.035l0.046-0.024l0.048,0.006l0.087,0.033l0.219,0.057
			l0.213,0.037h0.095l0.081-0.023l0.08-0.064l0.093-0.068l0.156-0.062l0.244-0.037l0.239-0.037l0.094-0.039l0.093-0.069l0.026-0.069
			l0.021-0.074l0.062-0.076l0.058-0.053l0.08-0.055l0.122-0.033l0.116-0.023l0.122-0.033l0.069-0.059l0.043-0.096l0.024-0.175
			l0.015-0.256l0.002-0.106l0.051-0.049l0.047-0.01l0.047-0.004l0.095,0.04l0.35,0.11l0.332,0.09l0.284,0.046l0.271,0.024
			l0.218-0.026l0.372-0.087l0.314-0.057l0.28-0.06l0.205-0.005l0.171,0.004l0.184,0.029l0.164,0.043l0.458,0.127l0.399,0.147
			l0.32,0.08l0.286,0.104l0.39,0.177l0.215,0.067l0.06,0.002l0.05-0.008l0.129-0.041l0.244-0.078l0.437-0.052l0.454-0.038
			l0.385,0.036l0.085-0.168l0.128-0.182l0.085-0.118l0.037-0.064v-0.05v-0.041l0.012-0.019l0.068-0.01l0.074-0.008h0.095
			l0.053,0.008l0.079,0.023l0.037,0.027l0.163,0.128l0.131,0.104l0.115,0.088l0.053,0.031l0.069,0.01l0.104-0.018l0.105-0.041
			l0.09-0.041l0.085-0.04l0.068-0.005h0.036l0.062,0.027l0.263,0.147l0.153,0.083l0.143,0.023l0.101-0.004l0.069-0.022l0.104-0.067
			l0.054-0.045l0.069-0.051l0.068-0.013h0.062l0.102,0.042l0.132,0.078l0.104,0.082l0.073,0.027h0.069l0.067-0.026l0.102-0.063
			l0.085-0.09l0.043-0.045l0.031-0.023l0.048-0.004l0.058,0.01l0.048,0.004l0.101,0.051l0.151,0.15l0.143,0.129l0.084,0.063
			l0.127,0.023h0.115l0.096-0.022l0.102-0.045l0.174-0.107l0.254-0.221l0.219-0.264l0.138-0.141l0.043-0.092l0.043-0.035
			l-0.065-0.006l-0.031-0.063l-0.06-0.071l-0.144-0.052l-0.131,0.013l-0.063,0.042l-0.074,0.011l-0.095-0.004l-0.077-0.055
			l-0.05-0.055l-0.003-0.064l0.036-0.033l0.083-0.02l0.038-0.01l0.017-0.049l-0.003-0.057l-0.021-0.072l0.035-0.058l0.09-0.076
			l0.083-0.036l0.084-0.011l0.113,0.044l0.085-0.02l0.229-0.112l0.127-0.095l0.045-0.049l-0.003-0.057l-0.03-0.048l-0.152-0.067
			l-0.296-0.119l-0.335-0.15l-0.156-0.125l-0.11-0.166l-0.045-0.152l-0.036-0.387l-0.029-0.16l-0.006-0.089l0.035-0.252l0.06-0.172
			l0.14-0.224l0.056-0.221l-0.013-0.267l-0.033-0.128l-0.088-0.062l-0.104-0.013l-0.065,0.019l-0.054,0.051l-0.049,0.154
			l-0.034,0.293l-0.032,0.114l-0.025,0.049l-0.211,0.104l-0.14,0.029l-0.075-0.007l-0.068-0.054L28.37,48.91l-0.058-0.015
			l-0.057,0.001l-0.138,0.078l-0.093,0.02l-0.095-0.021l-0.068-0.055l-0.251-0.347l-0.595-0.676l-0.1-0.117l-0.09-0.041
			l-0.062-0.012l-0.073,0.043l-0.055,0.042l-0.079,0.116l-0.082,0.051l-0.047-0.006l-0.088-0.07l-0.126-0.093l-0.202-0.09
			l-0.369-0.082l-0.332-0.063l-0.126-0.078l-0.021-0.063l0.023-0.082l0.054-0.075l0.169-0.261l0.021-0.06l0.048-0.18l0.06-0.148
			l0.116-0.109l0.079-0.115l0.061-0.132l0.079-0.134l0.184-0.289l0.152-0.135l0.19-0.137l0.231-0.088l0.287-0.076l0.232-0.041
			l0.148-0.028l0.095,0.005l0.163,0.066l0.076,0.021l0.094-0.003l0.074-0.019l0.091-0.061l0.091-0.084l0.076-0.173l0.012-0.146
			l-0.012-0.058l-0.022-0.071l-0.003-0.065l0.027-0.033l0.045-0.034l0.234-0.016l0.233-0.008l0.149-0.021l0.119-0.076l0.016-0.065
			l-0.003-0.065l-0.032-0.072l-0.012-0.056l0.035-0.065l0.09-0.076l0.17-0.102l0.164-0.103l0.091-0.068l0.062-0.091l0.021-0.139
			l0.006-0.072l0.025-0.057l0.054-0.06l0.101-0.084l0.053-0.075l0.026-0.041l0.006-0.089l-0.01-0.186l-0.038-0.242l0.033-0.261
			l0.032-0.139l0.079-0.115l0.174-0.119l0.183-0.12l0.119-0.077l0.09-0.092l0.051-0.107l0.035-0.074l-0.01-0.193l0.016-0.34
			l-0.003-0.09l0.081-0.076l0.081-0.067l0.023-0.098l-0.005-0.105l0.001-0.17l0.031-0.163l0.033-0.099l0.062-0.066l0.14-0.038
			l0.12-0.035l0.177-0.071l0.138-0.069l0.11-0.052l0.062-0.091l0.109-0.076l0.186-0.047l0.122-0.012l0.122-0.013l0.102-0.06
			l0.061-0.115l0.033-0.1l0.044-0.082l0.098-0.107l0.185-0.104l0.094-0.012l0.104-0.003l0.103-0.052l0.108-0.077l0.113-0.198
			l0.1-0.357l0.044-0.309l-0.02-0.193l-0.062-0.16l-0.089-0.086l-0.017-0.153l0.024-0.284l0.114-0.587l0.043-0.09l0.083-0.043
			l0.168-0.038l0.225-0.04l0.213-0.096l0.259-0.104l0.154-0.127l0.069-0.123l0.043-0.107l0.111-0.02l0.303,0.021l0.146,0.02h0.064
			l0.079-0.049l0.089-0.091l0.018-0.097v-0.096l0.02-0.062l0.024-0.032l0.05-0.011l0.062-0.032l0.03-0.017v-0.041l0.007-0.08
			l-0.037-0.043l-0.149-0.037l-0.148-0.038l-0.149-0.09l-0.124-0.097l-0.074-0.08l-0.087-0.123l-0.044-0.08l-0.013-0.063
			l0.013-0.091l0.05-0.08l0.044-0.042l0.1-0.017l0.305-0.004l0.224-0.017l0.211-0.032l0.118-0.053l0.118-0.102l0.074-0.182
			l0.019-0.177l-0.035-0.203l-0.031-0.069l-0.062-0.059l-0.218-0.096l-0.242-0.085l-0.105-0.063l-0.024-0.064l-0.006-0.059
			l0.006-0.092l0.021-0.058l0.05-0.048l0.087-0.092l0.05-0.059l0.013-0.042L35.4,32.715l-0.023-0.038l-0.044-0.032l-0.074-0.041
			l-0.05-0.054l-0.044-0.063l-0.02-0.076l0.02-0.074l0.057-0.064l0.056-0.048l0.112-0.021l0.105-0.006l0.073-0.01l0.031-0.033
			l-0.024-0.041l-0.067-0.037l-0.038-0.092l0.013-0.063l0.031-0.06l0.05-0.031l0.093-0.006l0.069,0.026l0.067,0.064l0.087,0.032
			l0.044,0.011l0.087-0.017l0.131-0.037l0.074-0.016l0.068-0.005l0.08,0.075l0.02,0.064l0.043,0.047l0.075,0.017l0.089-0.006
			l0.188-0.091l0.316-0.145l0.138-0.048h0.074l0.118,0.048l0.111,0.021l0.074-0.017l0.101-0.032l0.067-0.037l0.051-0.049
			l0.018-0.053v-0.048l-0.018-0.06l-0.02-0.068l0.013-0.053l0.02-0.033l0.08-0.053l0.081-0.021l0.044-0.031l0.031-0.054l0.036-0.097
			l0.014-0.074l0.024-0.021l0.062-0.021l0.087-0.011l0.118-0.021l0.137-0.053l0.145-0.112l0.104-0.049h0.087l0.081,0.016
			l0.081,0.054l0.02,0.064v0.069l0.043,0.069l0.148,0.068l0.137,0.049l0.111,0.016l0.162-0.032l0.268-0.08l0.312-0.138l0.198-0.053
			h0.081l0.143,0.032l0.188,0.086l0.161,0.043l0.329-0.005l0.317,0.005l0.243,0.059l0.252,0.063l0.105,0.032l0.329,0.059
			l0.225,0.022l0.175-0.011l0.197-0.021l0.149-0.021l0.112-0.043l0.093-0.059l0.069-0.059l0.198-0.17l0.169-0.144l0.292-0.179
			l0.369-0.213l0.4-0.176l0.48-0.219l0.4-0.182l0.275-0.133l0.131-0.086l0.057-0.07l0.025-0.091l0.067-0.085l0.16-0.251l0.188-0.23
			l0.301-0.342l0.332-0.326l0.363-0.332l0.31-0.298l0.056-0.059l0.113-0.096l0.119-0.083l0.014-0.091l0.05-0.084l0.021-0.151
			l0.005-0.098l0.064-0.153l0.078-0.251l0.021-0.129l0.005-0.14l0.02-0.438l0.017-0.265l0.056-0.152l0.106-0.229l0.146-0.306
			l0.136-0.162l0.242-0.324l0.202-0.255l0.351-0.371l0.22-0.248l0.271-0.34l0.189-0.322l0.231-0.406l0.229-0.436l0.154-0.359
			l0.096-0.274l0.108-0.259l0.063-0.137l0.209-0.292l0.31-0.265l0.352-0.267l0.354-0.235l0.196-0.141l0.129-0.102l0.301-0.242
			l0.422-0.298l0.396-0.244l0.31-0.149l0.636-0.251l0.738-0.329l0.538-0.241l0.582-0.249l0.547-0.241l0.484-0.246l0.481-0.291
			l0.267-0.195l0.291-0.264l0.332-0.348l0.222-0.255l0.211-0.27l0.158-0.253l0.132-0.29l0.041-0.084l0.034-0.016h0.026l0.037,0.044
			l0.102,0.133l0.062-0.077v-0.046l0.122-0.237l0.068-0.13l0.26-0.572l0.229-0.411l0.179-0.448l0.054-0.107l0.249-0.314l0.167-0.241
			l0.116-0.265l0.114-0.16l0.118-0.184l0.021-0.079l0.115-0.133l0.177-0.168l0.321-0.24l0.279-0.229l0.479-0.405l0.404-0.298
			l0.146-0.148l0.209-0.218l0.237-0.235l0.216-0.235l0.281-0.287l0.229-0.209l0.125-0.095L66.098,8.434"/>
	</g>
</g>
<g id="Layer_1">
</g>
</svg>
