<?xml version="1.0" encoding="iso-8859-1"?>
<!-- Generator: Adobe Illustrator 16.0.4, SVG Export Plug-In . SVG Version: 6.00 Build 0)  -->
<!DOCTYPE svg PUBLIC "-//W3C//DTD SVG 1.1//EN" "http://www.w3.org/Graphics/SVG/1.1/DTD/svg11.dtd">
<svg version="1.1" xmlns="http://www.w3.org/2000/svg" xmlns:xlink="http://www.w3.org/1999/xlink" x="0px" y="0px"
	 width="51.507px" height="39.217px" viewBox="0 0 51.507 39.217" style="enable-background:new 0 0 51.507 39.217;"
	 xml:space="preserve">
<g id="Layer_52">
	<g id="Layer_57">
		
			<path id="DISTRICT_x3D_South_Waziristan_Agency_x2C_PROVINCE_x3D_F.A.T.A." style="fill:#CCCCCC;stroke:#FFFFFF;stroke-width:1.07;" d="
			M7.488,8.956L7.488,8.956l-0.24,0.388l-0.617,0.961l-0.706,0.282L4.868,11.01l-0.411,0.172l-0.284,0.119l-1.054,0.06l-0.645,0.338
			l-0.623,1.14l-1.227,1.835l-0.079,0.71l0.477,1.259l0.219,0.416l0.661,1.255l0.358,0.663l0.032,0.06l-0.052,2.667l-0.105,0.219
			l-0.294,0.615l0.121,1.944l0.04,0.642l0.079,0.67L2.04,26.223l-0.045,0.459L1.96,27.57l0.691,2.422l-0.141,0.887l0.08,0.463
			l0.363,2.1l0.069,0.404l0.078,0.335l0.242,0.12l0.241,0.121l0.022,0.31l0.008,0.108l0.105,0.304l0.17,0.509l0.064,0.193
			l0.003,0.008l0.107-0.072l0.18-0.146l0.104-0.107l0.002-0.002l0.018-0.023l0.035,0.076l0.01,0.022l0.002,0.002l0.018,0.017
			l0.047,0.042L4.521,35.7l0.112,0.056l0.047,0.022l0.115,0.06l0.021,0.016l0.171,0.009l0.054-0.019l0.109-0.053l0.106-0.055
			l0.226-0.126l0.18-0.108l0.09-0.072l0.01-0.006l0.123-0.094l0.047-0.039l0.033-0.013l0.009-0.003l0.104-0.025l0.119-0.016h0.002
			l0.189,0.042l0.229,0.074l0.153,0.045l0.106,0.019h0.111h0.018h0.028h0.022h0.019l0.091-0.019l0.075-0.013l0.146-0.024
			l0.036,0.002l0.202,0.017l0.33,0.028H8.25l0.045-0.002l0.189-0.007l0.122-0.005l0.11-0.005l0.207-0.053l0.189-0.055l0.116-0.036
			h0.116l0.369,0.019l0.203,0.008l0.229,0.021l0.07,0.006l0.233-0.008l0.324-0.055l0.692-0.152l0.303-0.072l0.055-0.025l0.034-0.009
			l0.002-0.001h0.003l0.024-0.012l0.159-0.065l0.072-0.021l0.071-0.019l0.116,0.009l0.07,0.035l0.072,0.084l0.056,0.079l0.134,0.163
			l0.154,0.188l0.09,0.108l0.189,0.071l0.034,0.014h0.003l0.062,0.023l0.237,0.041l0.007,0.002h0.001l0.007,0.002l0.081-0.062
			l0.061-0.04l0.004-0.003l0.037-0.024l0.16-0.119l0.075-0.055l0.014-0.011l0.055-0.039l0.181-0.126l0.224-0.136l0.091-0.04
			l0.231-0.081l0.305-0.157l0.026-0.018l0.085-0.059l0.058-0.037l0.052-0.033l0.078-0.078l0.07-0.071l0.058-0.026l0.057-0.027
			l0.146-0.191l0.19-0.203l0.136-0.102l0.081-0.044l0.063-0.035l0.202-0.045l0.095-0.022l0.086-0.021l0.102-0.057l0.085-0.053
			l0.011-0.006l0.008-0.006l0.111-0.07l0.062-0.09l0.004-0.051l0.012-0.105l0.003-0.022l0.045-0.132l0.034-0.061l0.012-0.02
			l0.016-0.027l0.107-0.146l0.184-0.239l0.092-0.106l0.047-0.08l-0.001-0.132l-0.001-0.093l0.044-0.212l0.046-0.065l0.004-0.006
			l0.12-0.121l0.146-0.056l0.143-0.058l0.006-0.002l0.003-0.002l0.097-0.039l0.079-0.074l0.061-0.061l0.023-0.019l0.215-0.261
			l0.135-0.129l0.103-0.1l0.164-0.158l0.106-0.093l0.009-0.002l0.088-0.019l0.028-0.006l0.031-0.004l0.221-0.026l0.258-0.031
			l0.56-0.069h0.055l0.053-0.011l0.083,0.008l0.163,0.005l0.149-0.002l0.225-0.019l0.271-0.022l0.225-0.021l0.086-0.025l0.105-0.031
			l0.108-0.031l0.157-0.047l0.073-0.026l0.02-0.007l0.004-0.001l0.002-0.001l0.257-0.059l0.325-0.107l0.154-0.135l0.187-0.041
			l0.108,0.053l0.063,0.078l0.062,0.066h0.048l0.108-0.001l0.093-0.026l0.123-0.094l0.078-0.054l0.187-0.041l0.108-0.026
			l0.094-0.055l0.217-0.094l0.062-0.014h0.078l0.078,0.039l0.234,0.012l0.14-0.014l0.171-0.015l0.201-0.054l0.265-0.094l0.419-0.043
			l0.249-0.041h0.109l0.062,0.039l0.003,0.066l-0.062,0.186l-0.309,0.268l-0.186,0.212l-0.245,0.519l-0.306,0.664l-0.184,0.332
			l-0.154,0.146l-0.046,0.08l-0.03,0.146l-0.139,0.12l-0.293,0.214l-0.171,0.067l-0.124,0.067l0.001,0.053l0.016,0.066l0.235,0.17
			l0.286,0.207l0.297,0.185l0.267,0.223l0.78,0.38l0.468,0.182l0.312,0.092l0.468,0.183l0.218,0.078l0.095,0.146L27.3,34.92
			l-0.06,0.199l-0.108,0.12l-0.076,0.187l-0.061,0.25l-0.106,0.24l-0.184,0.344l-0.246,0.24l-0.216,0.252l-0.169,0.227l-0.03,0.146
			l0.021,0.568l0.002,0.252l0.064,0.331l0.047,0.065l0.279-0.002l0.192,0.017l0.155,0.118l0.25,0.144l0.233,0.052l0.217-0.041
			l0.232-0.067l0.231-0.067l0.14-0.119l0.215-0.279l0.2-0.239l0.169-0.213l0.216-0.239l0.185-0.266l0.246-0.346l0.154-0.106
			l0.139-0.095l0.279-0.08l0.342-0.055h0.232l0.154,0.025l0.002,0.154l2.3-0.147l2.322,0.401l1.924,0.24l2.243,0.801l1.278-0.285
			l-0.034-0.129l-0.055-0.217l-0.059-0.284l-0.055-0.261l-0.097-0.4l-0.065-0.249l-0.043-0.185l-0.068-0.306l-0.08-0.228
			l-0.054-0.162l-0.021-0.178l-0.014-0.123l-0.019-0.107l-0.048-0.16l-0.105-0.072l-0.093-0.049l-0.117-0.072l-0.07-0.047
			l0.088-0.094l0.116-0.081l0.103-0.077l0.058-0.074l-0.06-0.075l-0.092-0.097l-0.077-0.088l0.02-0.246l-0.178,0.064l-0.062,0.025
			l-0.325,0.252l-0.126-0.029l-0.044-0.069l-0.158-0.021l-1.542-0.965l-0.881-3.158l0.171-0.753l-0.067-0.188l-0.231-0.566l-0.1-0.1
			h-0.001l-0.474-0.18l-0.188-0.031l-0.312-0.163l-0.078-0.475l-0.187-0.599l-0.036-0.117l0.04-0.137l0.043-0.104l0.026-0.062
			l0.115-0.177l0.319-0.487l0.034-0.086l0.045-0.099l0.128-0.289l-0.589-0.147l-1.148-0.875l-0.604-1.058l-0.665-1.237l-0.211-0.695
			l-0.363-1.299l0.076-0.664l0.151-1.148l0.181-1.54l0.271-0.665l0.574-1.118l0.151-0.483l0.482-0.393l2.146-1.42l0.302-0.453
			L37,11.152l0.423-0.181l1.391-0.604l1.569-0.634l1.179-0.483l1.117-0.483l0.876-0.423l1.511-0.212L47.06,7.8l0.905-0.272
			l2.719-0.634l0.106-0.063l-0.075-0.138l-0.139-0.252l-0.074-0.104L50.49,6.286l-0.01-0.045l-0.001-0.002l-0.012-0.044
			l-0.021-0.041l-0.058-0.049l-0.071-0.084l-0.026-0.034l-0.052-0.082l-0.083-0.127l-0.104-0.042L50,5.714l-0.016-0.006
			l-0.061-0.025l-0.043-0.021L49.78,5.596l-0.069-0.069l-0.173-0.18l-0.124-0.129l-0.12-0.126l-0.104-0.11l-0.098-0.221
			l-0.057-0.146l-0.026-0.098l0.033-0.063l0.014-0.052l-0.013-0.124l-0.098-0.227L48.864,3.86l-0.037-0.085l-0.021-0.097
			l-0.021-0.096l-0.239,0.09l-0.117,0.044l-0.149,0.163L48.15,4.019l-0.118,0.126l-0.069,0.062l-0.168,0.149l-0.159,0.142
			l0.091-0.389l0.034-0.152l0.096-0.484l0.034-0.169l0.057-0.204l0.097-0.405l0.1-0.425l0.047-0.207l0.045-0.418l0.013-0.12
			l-0.229-0.046l-0.357-0.072L47.56,1.383l-0.094-0.045l-0.049-0.074l0.026-0.101l0.067-0.266l-0.185,0.076l-0.172,0.105
			l-0.082,0.064l-0.103,0.08l-0.115,0.092l-0.195,0.17l-0.188,0.178l-0.22,0.209l-0.135,0.11l-0.197,0.164L45.378,2.32l-0.199,0.287
			l-0.087,0.052l-0.13,0.077L44.788,2.84l-0.324,0.17l-0.09,0.085l-0.098,0.093L44.15,3.319l-0.081,0.085l-0.254,0.075L43.65,3.583
			l-0.122,0.076l-0.265,0.117l-0.129,0.057l-0.011,0.005L42.87,4.119l-0.081,0.057l-0.326,0.226l-0.36-0.095L41.907,4.14
			l-0.304-0.146l-0.55-0.042l0.051,0.391l0.236,0.204L41.328,4.83l-0.357,0.054L40.709,4.78l-0.522-0.083l-0.32-0.087l-0.039-0.001
			l-0.248-0.003l-0.411-0.088l-0.375,0.008l-0.457-0.042l-0.3,0.091l-0.436-0.012L37.258,4.56l-0.311-0.021l-0.387,0.071
			l-0.064,0.026l-0.352,0.144l-0.482,0.216l-0.527,0.116l-0.254,0.17l-0.258,0.216l-0.424,0.32L33.875,5.95L33.538,6.25
			l-0.503,0.075l-0.528,0.167l-0.273,0.025L31.785,6.57L31.12,6.625l-0.354-0.042l-0.758,0.166l-0.503-0.129l-0.549-0.033
			L28.57,6.583l-0.507,0.091L27.814,6.66h-0.312l-0.411,0.108h-0.378l-0.387-0.062l-0.438-0.033l-0.444-0.021l-0.766-0.046
			L24.23,6.639l-0.388,0.008l-0.436-0.004l-0.399-0.042l-0.47-0.021l-0.562,0.033l-0.694-0.038L20.97,6.641l-0.365,0.083
			l-0.365-0.012l-0.278,0.025l-0.512,0.017l-0.309-0.05l-0.606,0.004l-0.29,0.023L18.007,6.75l-0.273-0.029l-0.346-0.013
			l-0.341-0.091l-0.354,0.038l-0.3-0.05l-0.263,0.062l-0.075,0.021l-0.314,0.09l-0.254,0.133l-0.153,0.266L15.326,7.18l-0.312,0.134
			l-0.212,0.428l-0.05,0.245l0.112,0.241l0.283,0.125l0.229,0.108L15.62,8.91l-0.415,0.282l-0.474,0.196l-0.3,0.141l-0.541,0.216
			l-0.516,0.241l-0.345,0.162l-0.396,0.217l-0.73,0.162l-0.066,0.026l-0.199,0.078l-0.379,0.054l-0.397,0.009l-0.358,0.012
			l-0.295-0.133l-0.374-0.167l-0.216-0.199L9.414,9.982L9.11,9.591L8.899,9.387L8.624,9.271L8.329,9.125L7.988,9.046L7.488,8.956"/>
	</g>
</g>
<g id="Layer_1">
</g>
</svg>
