<?xml version="1.0" encoding="iso-8859-1"?>
<!-- Generator: Adobe Illustrator 16.0.4, SVG Export Plug-In . SVG Version: 6.00 Build 0)  -->
<!DOCTYPE svg PUBLIC "-//W3C//DTD SVG 1.1//EN" "http://www.w3.org/Graphics/SVG/1.1/DTD/svg11.dtd">
<svg version="1.1" xmlns="http://www.w3.org/2000/svg" xmlns:xlink="http://www.w3.org/1999/xlink" x="0px" y="0px"
	 width="36.191px" height="40.979px" viewBox="0 0 36.191 40.979" style="enable-background:new 0 0 36.191 40.979;"
	 xml:space="preserve">
<g id="Layer_5">
	<g id="Layer_10">
		<path id="DISTRICT_x3D_Upper_Dir_x2C_PROVINCE_x3D_NWFP" style="fill:#CCCCCC;stroke:#FFFFFF;stroke-width:1.07;" d="
			M0.801,30.819L0.801,30.819l0.243,0.024l0.146,0.024l0.203,0.047l0.231,0.078l0.429,0.103l0.239,0.039L2.53,31.18l0.174,0.033
			l0.294,0.012l0.155,0.233l0.084,0.146l0.229,0.164l0.253,0.06l0.81,0.075l0.174,0.085l0.175,0.149l0.109,0.106l0.393-0.096
			l0.177-0.06l0.215,0.032l0.237-0.017l0.164-0.066l0.312-0.046l0.212,0.03l0.279,0.049l0.245,0.074l0.214,0.086l0.415,0.005
			l0.625-0.009l0.33,0.099l0.032-0.388l0.062-0.109l0.119-0.092l0.137-0.096l0.188-0.053l0.12-0.044l0.084-0.159l0.062-0.16
			l0.182-0.137l0.317-0.023l0.207,0.006l0.151-0.001l0.217-0.088l0.115-0.077l0.073-0.032l0.172-0.015l0.42,0.041l0.119-0.02
			l0.139-0.025l0,0l0.118-0.012l0.141-0.015l0.148-0.086l0.608-0.437l0.248-0.041l0.207-0.015l0.168,0.07l0.188,0.077l0.014,0.013
			l0.037,0.046l0.127,0.17l0.153,0.146l0.3,0.148l0.217,0.111l0.184,0.156l0.182,0.127l0.593,0.529l0.256,0.221l0.225,0.305
			l0.045,0.164l0.147,0.341l0.033,0.179l0.135,0.282l0.014,0.015l0.022,0.117l0.101,0.139l0.244,0.074L17,33.811l0.092,0.062
			l-0.013,0.26l0.002,0.115L17,34.92l-0.104,0.305l-0.119,0.195l-0.135,0.225l-0.054,0.44l0.015,0.291l0.021,0.058l0.061,0.054
			l0.383,0.053l0.265,0.039l0.139,0.038l0.164,0.029l0.112,0.123l0.006,0.428l0.064,0.148l0.104,0.108l-0.076,0.151l0.134,0.318
			l0.339,0.361l0.104-0.046l0.374-0.269l0.172-0.037l0.047,0.02l0.24,0.291l0.249,0.188l0.128,0.11l0.278,0.347l0.056,0.16
			l0.129,0.041l0.117,0.2l0.133,0.068l0.159,0.083l0.173,0.291l0.056,0.066l0.058,0.024l0.202,0.002l0.08,0.056l0.16,0.152
			l0.176,0.104l0.166,0.051l0.255,0.037l0.307,0.031l0.218,0.035l0.18-0.007l0.118,0.017l0.131,0.067l0.114,0.049l0.153-0.036h0.001
			l0.201-0.108l0.172-0.04l0.172-0.021l0.188-0.037l0.081-0.076l0.126-0.219l0.256-0.078l0.148-0.08l0.071-0.104l0.055-0.103
			l0.08-0.078l0.16-0.057l0.093-0.054l0.188-0.205l0.041-0.032l0.104-0.023l0.204-0.083l-0.017-0.122l0.022-0.055l-0.007-0.049
			l0.1-0.168l0.051-0.041l0.021-0.087L25.5,38.344l-0.103-0.181l-0.052-0.093l-0.056-0.146l0.062-0.027l0.063-0.027l0.187-0.087
			l0.233-0.042l0.22-0.084l0.146-0.062l0.259-0.11l0.102-0.024l0.085-0.064l0.037-0.125l0.039-0.158l0.042-0.196l0.001-0.01
			l-0.046-0.149l-0.012-0.199l0.054-0.186l0.064-0.072l0,0l0.1-0.189l0.037-0.104l0.04-0.097l0.041-0.14l-0.012-0.178l-0.001-0.113
			l0.053-0.139l0.07-0.105l0.062-0.074l0.054-0.105l0.06-0.058l0.119-0.067l0.135-0.095l0.068-0.048l0.083-0.059l0.107-0.06
			l-0.035-0.079l-0.116-0.234l-0.131-0.398l-0.001-0.064l-0.01-0.075l-0.008-0.084l0.005-0.101l0.004-0.091l0.004-0.124l0.039-0.085
			l0.072-0.058l0.193-0.155l0.17-0.112l0.104-0.121l0.181,0.014l0.102-0.085l0.028-0.112l0.004-0.205l0.031-0.084l0.048-0.132
			l0.231-0.265l0.183-0.184l-0.01-0.1l-0.013-0.143l-0.01-0.098l-0.004-0.043l-0.015-0.15V31.17l0.04-0.111l-0.032-0.146
			l-0.043-0.186l-0.02-0.082l-0.109-0.18l-0.112-0.277l-0.035-0.204l-0.117-0.24l-0.021-0.142l-0.043-0.156l-0.104-0.174
			l-0.085-0.104l-0.095-0.103l-0.049-0.04l-0.021-0.033l0.093-0.147l0.141-0.091l0.013-0.124l0.028-0.117l0.023-0.104l0.143-0.127
			l0.107-0.026l0.118-0.027h0.229l0.159,0.021l0.245,0.041l0.225-0.044l0.115-0.045l0.096-0.064l0.099-0.043l0.172-0.054
			l0.205-0.026l0.062-0.101l0.148,0.019l0.075-0.104l0.097-0.101l0.058-0.101l0.051-0.089l0.065-0.169l0.012-0.028l0.021-0.051
			l0.025-0.105l0.188-0.17l0.092-0.074l0.03-0.043l0.006-0.075l0.012-0.121l-0.002-0.167l0.001-0.002l0.034-0.219l0.046-0.131
			l0.038-0.156l0.022-0.098l0.104-0.113l0.104-0.002l0.134-0.002h0.108l0.099,0.013l0.085,0.021l0.05-0.08l0.033-0.053l0.039-0.066
			l0.104-0.096l0.017-0.009l0.111-0.014l0.138,0.006h0.007l0.154,0.067l0.021,0.004l0.033,0.007l0.132,0.028l0.136,0.03l0.2-0.021
			l0.141-0.037l0.087-0.014l0.102-0.017l0.113-0.019l0.122-0.018l0.073-0.1l0.047-0.129l-0.115-0.157l-0.113-0.11l-0.118-0.123
			l-0.029-0.145l-0.03-0.094l0.009-0.02l0.066-0.148l-0.006-0.053l0.053-0.14l-0.232,0.026l-0.087-0.006l-0.103-0.008l-0.09-0.035
			l-0.142-0.082l-0.039-0.166l-0.015-0.111l0.077-0.251l0.004-0.158l0.002-0.026L32.79,23.45l-0.137-0.058l-0.173-0.131
			l-0.062-0.218l0.021-0.088l-0.043-0.054l0.001-0.042l-0.049-0.031l-0.04-0.026l-0.057-0.062l-0.084-0.071l-0.078-0.065
			l-0.099-0.076l-0.15-0.051l0.035-0.113l0.053-0.085l0.044-0.07l0.038-0.05l-0.009-0.083l0.025-0.146l0.025-0.125l0.008-0.045
			l0.001-0.012l0.116-0.143l0.058-0.014h0.082l0,0l0.162-0.002l0.191-0.074l0.08-0.086l0.062-0.088l0.065-0.111l0.014-0.104
			l-0.005-0.03l-0.015-0.148l0.134-0.225l0.036-0.093l0.108-0.118l-0.018-0.082l-0.072-0.113l-0.084-0.147l0.013-0.225L33,19.857
			l0.015-0.14l0.017-0.142l0.185-0.088l0.047-0.083l0.032-0.104l0.054-0.084l0.046-0.071l0.021-0.031l0.124-0.022l0.154,0.038
			l0.277-0.009l0.364-0.043l0.115-0.038l0.158-0.015l0.188-0.018l0.092-0.05l0.119-0.048l-0.006-0.019l0.062-0.037l-0.079-0.082
			l0.009-0.102l0.018-0.101l0.059-0.132l0.093-0.077l0.143-0.093v-0.072l0.001-0.092v-0.133l-0.177-0.125l-0.171-0.142l-0.182-0.162
			l-0.078-0.272l-0.105-0.177l0.019-0.123l0.015-0.1l0.026-0.177l0.021-0.154l0.024-0.161l0.015-0.099l0.129-0.153l0.072-0.187
			l0.057-0.088l0.109-0.175l0.137-0.202l0.121-0.173l0.002-0.003l0.112-0.151l-0.029-0.135l-0.146-0.167l-0.002-0.079l-0.13-0.521
			l-0.177-0.133l-0.175-0.069l-0.129-0.05l-0.24-0.049l-0.055-0.173l-0.021-0.098l-0.092-0.079l0.002-0.207l0.093-0.152l0.149-0.082
			l0.191-0.052l0.166-0.112l0.09-0.062l0.135-0.094l0.081-0.071l0.132-0.079l0.122-0.042l0.07-0.105l-0.093-0.083l-0.053-0.068
			v-0.001l-0.193-0.172l-0.259-0.072l-1.068-0.505l-0.152,0.083l-0.083-0.053l-0.193-0.037l-0.119-0.025l-0.146-0.031l-0.186-0.224
			l-0.103-0.123l0.03-0.125l-0.04-0.136v-0.001l-0.054-0.058l-0.035-0.013l-0.018-0.026l-0.104-0.059l-0.203-0.036l-0.238-0.024
			l-0.216-0.116l-0.112-0.061l-0.168-0.167l-0.097-0.096l-0.084-0.06l-0.143-0.103l-0.095-0.068l-0.148-0.206l-0.135-0.186
			l-0.085-0.161l-0.062-0.127l-0.095-0.085l-0.05-0.17L30.62,8.98l-0.107-0.044l-0.089-0.108L30.2,8.766l-0.152-0.023l-0.191-0.03
			l-0.098-0.029L29.552,8.62l-0.091-0.079L29.46,8.539l-0.086-0.086L29.3,8.391L29.196,8.32l-0.088-0.066h-0.001l-0.124-0.166
			l-0.032-0.08l-0.075-0.045l-0.042-0.088l-0.017-0.092l-0.043-0.15L28.756,7.55l-0.021-0.098l0.206-0.175l0.07-0.108l0.129-0.097
			l0.152-0.004l0.109-0.003l0.084-0.029l0.209-0.071l0.085-0.039l0.094-0.114l0.112-0.104l0.061-0.075l0.135-0.183l0.187-0.086
			l0.075-0.055L30.47,6.25l0.01-0.043L30.445,5.99l0.003-0.023l0.015-0.097l0.07-0.12l0.116-0.108l0.082-0.077l0.054-0.084
			l0.043-0.074l-0.001-0.002l-0.057-0.137l-0.009-0.183l0.062-0.062l0.083-0.068l0.004-0.012l0.038-0.138l-0.014-0.167l0.06-0.148
			l0.069-0.11l0.063-0.085l0.091-0.121l0.047-0.098l0.035-0.11l0.003-0.032l0.008-0.09h0.001l0.031-0.116l0.021-0.216l0.094-0.16
			l0.033-0.086l0.054-0.134l0.08-0.042l0.011-0.097l0.115-0.142l0.056-0.042l0.005-0.052L31.79,2.626l0.108-0.111l0.059-0.123
			l0.018-0.09L32,2.217l0.21-0.686l-0.075,0.017L31.99,1.534L31.801,1.55l-0.083,0.019l-0.083,0.009l-0.151,0.01l-0.115-0.002
			l-0.122-0.038l-0.152-0.064l-0.088,0.004l-0.089,0.001l-0.153-0.083l-0.051-0.07l-0.096-0.065l-0.14,0.104l-0.115,0.092
			l-0.11,0.061l-0.229-0.015l-0.065-0.061l-0.072-0.065l-0.122-0.086l-0.115-0.074l-0.134-0.056l-0.198-0.044l-0.137,0.029
			l-0.095,0.031l-0.068,0.07l-0.127,0.11l-0.112,0.084l-0.067,0.051l-0.191,0.146L28.445,1.7l-0.092,0.064l-0.073,0.11L28.22,1.982
			l-0.121,0.114L28.03,2.145L27.9,2.097L27.828,2.05l-0.093-0.061l-0.024-0.125L27.64,1.773l-0.065-0.084l-0.129-0.06l-0.081-0.06
			l-0.021-0.168l0.027-0.102l-0.003-0.173l-0.12-0.128l-0.092-0.099l-0.115-0.041l-0.09-0.033l-0.199-0.066L26.67,0.763
			l-0.218,0.006l-0.057,0.065l-0.104,0.09l-0.238,0.038l-0.126-0.019l-0.175-0.051l-0.096-0.028l-0.09-0.103l-0.1-0.115
			l-0.104-0.048l-0.146,0.08L25.178,0.8l0.02,0.168l0.032,0.114l0.018,0.138l-0.141,0.06l-0.078,0.033l-0.096,0.128l-0.101,0.12
			L24.8,1.645l-0.038,0.099l-0.114,0.027l-0.002,0.11l0.023,0.17l-0.073,0.111v0.007l0.008,0.118l-0.002,0.008v0.001L24.6,2.301
			L24.582,2.38L24.57,2.41l-0.025,0.062l-0.012,0.027h-0.001l-0.048,0.102l-0.06,0.153L24.396,2.88l-0.028,0.098L24.35,3.001
			l-0.062,0.167l-0.166,0.258L23.93,3.434l-0.073,0.185l-0.082,0.125l-0.025,0.087L23.64,3.993l0.069,0.05l0.113-0.056l0.151-0.019
			l0.114,0.061l0.099,0.096l0.021,0.054l0.009,0.01l0.095,0.136h0.001l0.047,0.037l0.075,0.09l0.014,0.034l0.01,0.011l0.16,0.343
			l0.06,0.056l-0.003,0.003l0.007,0.006l-0.04,0.032H24.64l-0.158,0.178l0,0l-0.005,0.007v0.001l-0.062,0.135l-0.084,0.136
			l-0.002,0.013l-0.021,0.114l0.004,0.131L24.279,5.78l-0.013,0.017l-0.008,0.031l-0.072,0.143l-0.157,0.031l-0.093,0.01
			l-0.062,0.041L23.83,6.175L23.77,6.312l-0.115,0.049l-0.176,0.121l-0.062,0.102l-0.089,0.019L23.231,6.66l-0.109,0.016
			l-0.114,0.06L22.932,6.8l-0.161-0.06l-0.103-0.062l-0.149,0.019l-0.104-0.062l-0.143-0.014L22.166,6.62l-0.074-0.039l-0.128,0.025
			l-0.085-0.092l-0.137,0.052L21.72,6.65l-0.068,0.1l-0.119,0.078l-0.14,0.077l-0.431,0.293l-0.29,0.164l-0.199-0.006L20.26,7.521
			l-0.104,0.053L20.066,7.61h-0.079l-0.171,0.007l-0.13,0.071l-0.36,0.327L19.103,8.1l-0.237,0.006l-0.017,0.101l-0.041,0.129
			l0.023,0.12l-0.134,0.096l-0.229,0.227l-0.221,0.104L18.04,9.076l-0.126,0.126l-0.239,0.333l-0.197,0.14l-0.186,0.133l-0.04,0.081
			l-0.031,0.121l-0.066,0.184l-0.109,0.145l-0.22,0.233l-0.085,0.091l-0.002,0.004l-0.05,0.129l-0.008,0.085l-0.006,0.09
			l-0.011,0.141l-0.016,0.207l-0.019,0.23l-0.007,0.086l-0.011,0.144L16.6,11.932l-0.012,0.155l-0.008,0.1l-0.013,0.167
			l-0.009,0.099l-0.007,0.098l0.023,0.108l0.032,0.148l0.033,0.137l0.016,0.201l0.043,0.097l0.027,0.012l0.213,0.15l0.184,0.092
			l0.166,0.068l-0.168,0.092L16.926,13.8l-0.086,0.064l-0.22,0.151l-0.218,0.004l-0.222,0.004l-0.266,0.019l-0.223,0.017
			l-0.234,0.122l-0.123,0.063l-0.118,0.151l-0.082,0.14l-0.107,0.179l-0.066,0.203l-0.014,0.06l-0.016,0.071l0.026,0.099L15,15.301
			l0.124,0.169l0.216,0.243l0.146,0.101l-0.022,0.17l-0.099,0.052l-0.08,0.042l-0.258,0.134l-0.081,0.042l-0.002,0.216l-0.001,0.144
			l-0.004,0.351l-0.001,0.163l-0.019,0.084l-0.009,0.017l-0.033,0.059l-0.053,0.134l-0.058,0.133l0.046,0.19l-0.001,0.001
			l-0.219,0.204l-0.109,0.103l-0.018,0.029L14.401,18.2l-0.02,0.032l0.008,0.059l-0.061,0.137l-0.009,0.15l0.002,0.005l-0.066,0.108
			l-0.134-0.032l-0.237-0.056l-0.106-0.026l-0.192-0.089l-0.169-0.125l-0.176-0.091h-0.234l-0.082-0.001l-0.205-0.003l-0.167-0.028
			l-0.24-0.042l-0.143,0.083l-0.069,0.041l-0.062,0.092l-0.106,0.078l-0.074,0.073l-0.057,0.11l-0.124,0.058l-0.021,0.133
			l-0.082,0.156l-0.152,0.104l-0.104,0.08l-0.117,0.089l-0.084,0.071l-0.111,0.093l-0.059,0.193l-0.062,0.189l-0.156,0.094
			l0.053,0.097l0.105,0.193l0.068,0.156l-0.02,0.184l-0.124,0.105l-0.11,0.102h-0.001l-0.188,0.174l-0.273,0.079l-0.111,0.04
			l-0.141,0.211l-0.062,0.096L9.912,21.59l0.089,0.186l-0.046,0.219l0.036,0.156l0.037,0.156l-0.083,0.221l-0.022,0.104
			l-0.009,0.016l0.093,0.238L9.74,22.934H9.737l-0.028,0.05L9.38,22.997l-0.547,0.099L8.746,23.18l-0.099,0.164l-0.102,0.211
			L8.498,23.69l-0.124,0.157l-0.159,0.043l-0.198,0.028l-0.173,0.013l-0.266,0.015l-0.183,0.001l-0.172,0.01l-0.188,0.079
			L6.902,24.2l-0.043,0.021l-0.349,0.137l0.154,0.396l-0.048,0.26l-0.028,0.158l-0.617,0.541l-0.877,0.77l-0.42,0.67l-0.479,0.377
			l-0.19,0.055l-0.377,0.109l-0.761,0.27l-0.586,0.383l-0.774,0.506L0.809,29.58l-0.081,0.255l-0.155,0.496l0.162,0.351
			L0.801,30.819"/>
	</g>
</g>
<g id="Layer_1">
</g>
</svg>
