<?xml version="1.0" encoding="iso-8859-1"?>
<!-- Generator: Adobe Illustrator 16.0.4, SVG Export Plug-In . SVG Version: 6.00 Build 0)  -->
<!DOCTYPE svg PUBLIC "-//W3C//DTD SVG 1.1//EN" "http://www.w3.org/Graphics/SVG/1.1/DTD/svg11.dtd">
<svg version="1.1" xmlns="http://www.w3.org/2000/svg" xmlns:xlink="http://www.w3.org/1999/xlink" x="0px" y="0px"
	 width="63.486px" height="31.856px" viewBox="0 0 63.486 31.856" style="enable-background:new 0 0 63.486 31.856;"
	 xml:space="preserve">
<g id="Layer_139">
	<g id="Layer_144">
		<path id="DISTRICT_x3D_Jaffarabad_x2C_PROVINCE_x3D_Balochistan" style="fill:#CCCCCC;stroke:#FFFFFF;stroke-width:1.07;" d="
			M12.433,28.778L12.433,28.778l0.062-0.079l0.082-0.099l0.058-0.118l0.048-0.113l0.072-0.11l0.083-0.105l0.127-0.184l0.186-0.274
			l0.229-0.411l0.187-0.325l0.071-0.136l0.04-0.098l0.055-0.06l0.169-0.196l0.127-0.204l0.184-0.237l0.169-0.191l0.193-0.184
			l0.219-0.13l0.209-0.104l0.43-0.155l0.108-0.04l0.505-0.187l0.396-0.146l0.201-0.087l0.148-0.083l0.078-0.077l0.144-0.119
			l0.273-0.206l0.458-0.361l0.558-0.433l0.817-0.659l0.399-0.299l0.556-0.449l0.493-0.388l0.381-0.301l0.412-0.32l0.52-0.399
			l0.587-0.458l0.236-0.193l0.365-0.291l0.241-0.188l0.339-0.261l0.102-0.092l0.2-0.153l0.269-0.219l0.283-0.211l0.082-0.061
			l0.098-0.057l0.054-0.058l0.14-0.038l0.529-0.156l0.422-0.121l0.515-0.146l0.499-0.131l0.488-0.154l0.479-0.145l0.452-0.129
			l0.725-0.194l0.463-0.135l0.645-0.194l0.365-0.091l0.154-0.04l0.127-0.081l0.111-0.099l0.125-0.16l0.182-0.371l0.191-0.412
			l0.077-0.176l0.187-0.404l0.327-0.682l0.267-0.553l0.205-0.439l0.226-0.482l0.111-0.27l0.145-0.223l0.162-0.15l0.154-0.137
			l0.423-0.289l0.464-0.312l0.581-0.398l0.429-0.295l0.255-0.185l0.104-0.044l0.147-0.012l0.354-0.008l0.504,0.012l0.515-0.012
			l0.587,0.011l0.195,0.004l0.175,0.001l0.449-0.011l0.729,0.009l0.833,0.021l0.562-0.002l0.848,0.014l0.859,0.003l0.642-0.009
			l0.862,0.01l0.489,0.006l0.74,0.014l0.54-0.002l0.649-0.009l0.914,0.011l0.454,0.006l0.52-0.008l0.601-0.027l0.564-0.024
			l0.658,0.009l0.531,0.014l0.549,0.002l0.387,0.003l0.4-0.024l0.468-0.023l0.612-0.008h0.293l0.332,0.021l0.322,0.02l0.243,0.022
			l0.287,0.007h0.002l0.391,0.035l0.69-0.023l0.743-0.021l0.945-0.028l0.604-0.001l0.352-0.026l0.35-0.019l0.787-0.045l0.753-0.045
			l0.454-0.011l0.229-0.026l0.411-0.05l0.244-0.027l0.324-0.012l0.376-0.025l0.51-0.07l0.454-0.032l-0.075-0.716l-0.088-0.312
			L62.522,8.91l-0.191-0.214l-0.146-0.158L61.963,8.34l-0.191-0.187l-0.267-0.143L61.256,7.95l-0.138,0.017L60.935,8.04
			l-0.211,0.154l-0.375,0.297l-0.287,0.184l-0.375,0.283l-0.269,0.279l-0.271,0.211l-0.106,0.029L58.917,9.44l-0.126-0.078
			l-0.263-0.021l-0.324-0.005l-0.525-0.04l-0.587-0.038l-0.141-0.036l-0.396-0.044l-0.603-0.023l-0.816,0.01l-0.831,0.062
			l-0.479-0.014l-0.447-0.027l-0.604-0.052l-0.714-0.129l-0.864-0.069l-0.947-0.164l-0.788-0.117L48.39,8.454l-0.998-0.312
			l-0.925-0.395l-0.659-0.293l-0.974-0.462l-0.602-0.362l-0.882-0.463l-0.916-0.53l-0.584-0.349l-0.854-0.505l-1.235-0.807
			l-1.04-0.539l-0.742-0.385l-0.93-0.475L36.4,2.151l-0.41-0.205l-0.476-0.258L35.21,1.399l-0.391-0.492l-0.14-0.363L34.6,0.546
			l-0.365,0.08l-0.326,0.078l-0.307,0.097l-0.414,0.151l-0.362,0.16l-0.31,0.207l-0.29,0.246l-0.191,0.189l-0.142,0.25l-0.042,0.238
			l-0.007,0.369l0.032,0.342l-0.02,0.701l0.035,0.709l0.073,1.107l0.029,0.878l0.18,1.003l-0.011,0.412l-0.011,0.74l-0.128,0.646
			L31.911,9.78l-0.229,0.267l-0.374,0.256l-0.314,0.127l-0.477,0.036l-0.697-0.114l-0.768-0.182l-0.797-0.14l-0.434,0.019
			l-0.732,0.158l-0.496,0.077l-0.372-0.027l-0.452-0.038l-0.549-0.021l-0.708,0.029l-0.59,0.123l-0.778,0.203l-1.2,0.436
			l-0.685,0.322l-1.082,0.545l-0.529,0.32l-0.321,0.312l-0.161,0.291l-0.093,0.359l0.066,0.651l-0.001,0.271l-0.142,0.361
			l-0.427,0.443l-0.724,0.602l-0.668,0.455l-0.544,0.562l-0.171,0.121l-0.257,0.295l-0.3,0.396l-0.161,0.275l-0.307,0.271
			l-0.494,0.377l-0.471,0.213l-0.472,0.214l-1.192,0.311l-0.821,0.188l-0.905,0.184l-1.062,0.273l-1.158,0.26l-0.98,0.225
			l-0.399,0.128l-1.885,0.416l-3.609,1.359l-0.021,0.007L1.61,22.104l-0.75,0.213l-0.254,0.062l-0.071,0.075v0.075l0.099,0.188
			l0.155,0.389l0.212,0.889l0.07,0.339l-0.028,0.351L0.93,25.411l-0.07,0.362v0.238l0.057,0.238l0.127,0.312l0.382,0.489
			l0.297,0.263l0.396,0.478l0.171,0.35l0.07,0.188l0.015,0.288l0.014,0.163l0.099,0.1l0.057,0.188L2.53,29.619v0.877l0.014,0.188
			L2.431,30.81L2.36,30.984l-0.014,0.125l0.021,0.168l0.423-0.038l0.503-0.054l0.495-0.06l0.219-0.003l0.475-0.083l0.434-0.043
			l0.477-0.083l0.346-0.065l0.373-0.051l0.174-0.002l0.148,0.021l0.052,0.047l0.044,0.021l0.07,0.038l0.095-0.024l0.113-0.04
			l0.104-0.069l0.077-0.078l0.139-0.07l0.138-0.087l0.025-0.077l-0.002-0.131l0.022-0.271l0.032-0.208l0.068-0.133l0.096-0.2
			l0.118-0.071l0.146-0.094l0.25-0.136l0.233-0.087l0.232-0.053l0.425-0.051l0.452-0.014l0.33-0.058l0.321-0.064l0.241-0.142
			l0.139-0.102l0.103-0.057l0.104-0.03l0.347-0.042l0.217,0.005l0.305,0.021l0.192,0.061L12.433,28.778"/>
	</g>
</g>
<g id="Layer_1">
</g>
</svg>
