<?xml version="1.0" encoding="iso-8859-1"?>
<!-- Generator: Adobe Illustrator 16.0.4, SVG Export Plug-In . SVG Version: 6.00 Build 0)  -->
<!DOCTYPE svg PUBLIC "-//W3C//DTD SVG 1.1//EN" "http://www.w3.org/Graphics/SVG/1.1/DTD/svg11.dtd">
<svg version="1.1" xmlns="http://www.w3.org/2000/svg" xmlns:xlink="http://www.w3.org/1999/xlink" x="0px" y="0px"
	 width="29.122px" height="25.103px" viewBox="0 0 29.122 25.103" style="enable-background:new 0 0 29.122 25.103;"
	 xml:space="preserve">
<g id="Layer_145">
	<g id="Layer_150">
		<path id="DISTRICT_x3D_Hafizabad_x2C_PROVINCE_x3D_Punjab" style="fill:#CCCCCC;stroke:#FFFFFF;stroke-width:1.07;" d="
			M22.279,0.542L22.279,0.542l-0.046-0.004l-0.14,0.014l-0.146,0.052l-0.253,0.114L21.5,0.801l-0.254,0.096l-0.312,0.152
			l-0.271,0.128l-0.174,0.089L20.33,1.355l-0.093,0.081l-0.175,0.077l-0.174,0.088l-0.317,0.128l-0.159,0.082l-0.188,0.096
			l-0.2,0.126l-0.146,0.063l-0.428,0.105l-0.271,0.034l-0.182,0.033l-0.346,0.095l-0.436,0.172l-0.427,0.197L16.37,2.979
			l-0.273,0.177l-0.229,0.17l-0.193,0.151l-0.173,0.139l-0.07,0.125l-0.068,0.187l-0.043,0.087L15.3,4.163l0.003,0.18l0.015,0.104
			l-0.014,0.105l-0.021,0.081L15.24,4.689l-0.035,0.032l-0.059,0.013L15.03,4.741l-0.161-0.029l-0.124-0.035l-0.081-0.055
			l-0.118-0.061l-0.088-0.042l-0.065-0.005l-0.08,0.013L14.226,4.56l-0.107,0.057l-0.129,0.138L13.868,4.88L13.84,4.923l0.001,0.037
			l0.029,0.043l0.021,0.03l0.009,0.05L13.88,5.126l-0.092,0.138l-0.215,0.238L13.51,5.571l-0.028,0.056l-0.027,0.056l-0.028,0.062
			l-0.057,0.069l-0.094,0.088l-0.101,0.094l-0.078,0.063l-0.079,0.094l-0.085,0.106l-0.106,0.119l-0.239,0.213l-0.129,0.113
			l-0.114,0.15l-0.068,0.092L12.19,6.972l-0.069,0.026l-0.156,0.043l-0.155,0.04l-0.091,0.021l-0.201,0.064l-0.155,0.048
			l-0.15,0.035l-0.183,0.056L10.92,7.348l-0.176,0.061l-0.087,0.043l-0.095,0.06L10.422,7.62l-0.134,0.123l-0.096,0.095l-0.13,0.129
			L9.928,8.083L9.812,8.161L9.707,8.213L9.597,8.26l-0.11,0.039L9.351,8.338L9.286,8.359l-0.051,0.03L9.17,8.445L9.085,8.506
			L8.97,8.575L8.854,8.644l-0.08,0.043L8.74,8.73L8.716,8.764L8.67,8.807L8.603,8.839L8.517,8.882l-0.16,0.064L8.19,9.003
			L8.035,9.051l-0.08,0.047L7.87,9.154L7.75,9.223L7.653,9.288l-0.18,0.09L7.383,9.43L7.281,9.465L7.217,9.474L7.196,9.479
			L7.133,9.524L7.078,9.538L7.016,9.552L6.968,9.563l-0.021,0.01L6.925,9.594L6.908,9.618L6.905,9.661L6.898,9.782L6.881,9.863
			L6.857,9.93L6.826,9.967l-0.051,0.044L6.71,10.052l-0.201,0.122l-0.26,0.094l-0.204,0.076l-0.06,0.027l-0.034,0.031l-0.039,0.047
			l-0.047,0.084l-0.02,0.037l-0.027,0.034l-0.047,0.027L5.639,10.69l-0.138,0.059l-0.079,0.035l-0.078,0.055l-0.073,0.064
			l-0.069,0.102L5.18,11.038l-0.012,0.03l-0.021,0.024l-0.031,0.021l-0.033,0.031l-0.035,0.017l-0.031,0.041l-0.02,0.03
			l-0.013,0.034l-0.007,0.058l0.005,0.067L5,11.458l0.013,0.05L5.01,11.549l-0.016,0.047l-0.027,0.031l-0.02,0.021l-0.043,0.021
			l-0.06,0.003l-0.051,0.007l-0.021,0.014l-0.017,0.014l-0.011,0.027v0.034l0.028,0.097l0.033,0.07l0.061,0.12l0.058,0.067
			l0.032,0.056l0.04,0.087v0.037l-0.003,0.044l-0.03,0.061l-0.098,0.105l-0.124,0.109l-0.122,0.092L4.57,12.747l-0.025,0.03
			l-0.023,0.034L4.51,12.845l0.013,0.034l0.001,0.047l0.004,0.037l-0.012,0.054l-0.02,0.037l-0.03,0.03l-0.082,0.028L4.25,13.15
			l-0.111,0.012l-0.074,0.014L3.985,13.19l-0.079,0.035l-0.102,0.062l-0.129,0.089l-0.074,0.061L3.58,13.475L3.56,13.526
			l-0.011,0.03l0.004,0.043l0.021,0.027l0.048,0.036l0.115,0.025l0.097,0.04l0.038,0.053l0.033,0.047l0.041,0.11l0.018,0.07
			l0.014,0.099l0.003,0.18v0.059l-0.002,0.087l-0.042,0.158l-0.071,0.209l-0.114,0.21l-0.104,0.118L3.51,15.292L3.401,15.4
			L3.253,15.51L2.947,15.73l-0.168,0.127l-0.198,0.135l-0.113,0.076l-0.051,0.037L2.4,16.129l-0.033,0.064l-0.026,0.07l-0.026,0.085
			l-0.021,0.07L2.25,16.49l-0.059,0.078l-0.026,0.069l-0.02,0.033l-0.03,0.038l-0.039,0.027L2.01,16.783l-0.055,0.055l-0.022,0.037
			l-0.007,0.051v0.057l0.018,0.062l0.036,0.036l0.044,0.025l0.031,0.021l0.018,0.026l-0.005,0.041L2.057,17.26l-0.011,0.055
			l-0.019,0.041l-0.052,0.073l-0.05,0.078l-0.054,0.114l-0.02,0.052L1.842,17.73L1.82,17.808l-0.009,0.043l-0.015,0.041l-0.031,0.03
			l-0.043,0.034l-0.03,0.047L1.67,18.047l-0.02,0.062l0.002,0.088l0.008,0.211l-0.006,0.135l-0.012,0.064l-0.019,0.073l-0.017,0.038
			L1.539,18.79l-0.062,0.067l-0.046,0.055l-0.052,0.061L1.32,19.017l-0.082,0.065L1.14,19.127l-0.065,0.051L0.938,19.32L0.834,19.47
			l-0.085,0.128l-0.026,0.055L0.716,19.71l0.001,0.083l0.033,0.104l0.029,0.104l0.017,0.065l0.009,0.071l-0.006,0.067l-0.007,0.066
			l-0.043,0.088l-0.083,0.178l-0.05,0.084L0.564,20.68l-0.011,0.044l0.013,0.043l0.045,0.05l0.062,0.017l0.062,0.006l0.052,0.021
			l0.066,0.053l0.064,0.062l0.068,0.07l0.035,0.043l0.063,0.036l0.105,0.019l0.159,0.022l0.112,0.028l0.186,0.064l0.115,0.049
			l0.071,0.062l0.045,0.063l0.033,0.097l0.021,0.121l0.006,0.077l0.031,0.033l0.067,0.009l0.245,0.045l0.13,0.012l0.099,0.019
			l0.071,0.022l0.044,0.029l0.052,0.043l0.056,0.077l0.051,0.104l0.049,0.113l0.037,0.094l0.065,0.125l0.089,0.175l0.117,0.159
			l0.104,0.117l0.133,0.129l0.116,0.141l0.072,0.08l0.035,0.087l0.092,0.164l0.13,0.233l0.112,0.224l0.095,0.211L4.064,24.3
			l0.019,0.081l0.02,0.043l0.025,0.037l0.09,0.049l0.127,0.039l0.17,0.016l0.146-0.021l0.184-0.045l0.298-0.127l0.22-0.083
			l0.133-0.035l0.115-0.005l0.182,0.018l0.142,0.036l0.131,0.037l0.075,0.033L6.206,24.4l0.067,0.01l0.121-0.004l0.322-0.014
			l0.153-0.031l0.113-0.028l0.091-0.001l0.256-0.036l0.204-0.046l0.078-0.028l0.025-0.026l0.013-0.039l0.003-0.101l0.019-0.063
			L7.675,23.9l-0.003-0.178l-0.009-0.15l0.019-0.131l0.026-0.062l0.031-0.034l0.046-0.031L7.88,23.27l0.077-0.054l0.059-0.085
			l0.03-0.081l0.003-0.051l0.017-0.04l0.026-0.008l0.051,0.018l0.068,0.066l0.119,0.049l0.166,0.062l0.087,0.055l0.076,0.037
			l0.066,0.029l0.091,0.014l0.119-0.002l0.116-0.024l0.152-0.056l0.104-0.068l0.109-0.079l0.047-0.024l0.062-0.01l0.11,0.006
			l0.099-0.006l0.195-0.029l0.299-0.069l0.228-0.073l0.078-0.041l0.015-0.029l0.004-0.037l-0.017-0.088l-0.013-0.106l0.023-0.138
			l0.05-0.143l0.112-0.107l0.06-0.062l0.087-0.019l0.109,0.021l0.11,0.036l0.136,0.096l0.057,0.063l0.048,0.06l0.044,0.083
			l0.014,0.063l0.036,0.061l0.052,0.039l0.063,0.037l0.146,0.064l0.087,0.026l0.148,0.028l0.166,0.012l0.213-0.019l0.188-0.046
			l0.146-0.051l0.113-0.09l0.076-0.104l0.076-0.192l0.08-0.219l0.08-0.188l0.07-0.104l0.068-0.078l0.019-0.046l-0.013-0.098
			l0.01-0.135l0.019-0.091l0.046-0.062l0.066-0.014h0.06l0.063,0.014l0.048,0.033l0.04,0.061l0.041,0.087l0.039,0.06l0.036,0.03
			l0.088,0.05l0.182,0.062l0.131,0.042l0.13,0.035l0.101,0.029l0.047,0.03l0.04,0.047l0.023,0.058l0.049,0.053l0.035,0.043
			l0.057,0.036l0.097,0.042l0.178,0.064l0.184,0.096l0.198,0.115l0.241,0.144l0.101,0.065l0.043,0.026l0.032,0.006l0.048-0.01
			l0.064-0.048l0.175-0.196l0.138-0.151l0.089-0.082l0.079-0.039l0.062-0.014L16.356,22l0.087-0.038l0.077-0.048l0.056-0.067
			l0.059-0.098l0.072-0.175l0.039-0.074l0.03-0.024l0.089-0.047l0.102-0.051l0.117-0.082l0.09-0.099l0.062-0.119l0.074-0.205
			l0.065-0.188l0.018-0.138l0.02-0.135l0.038-0.098l0.017-0.086l0.007-0.064l-0.013-0.066l-0.032-0.054l-0.078-0.073l-0.053-0.037
			l-0.016-0.029l-0.001-0.037l0.022-0.028l0.043-0.017l0.088-0.018l0.059-0.034l0.062-0.063l0.038-0.055l0.019-0.069l0.043-0.044
			l0.06-0.038l0.056-0.027l0.091-0.015l0.074,0.003l0.083,0.022l0.088,0.063l0.135,0.112l0.211,0.16l0.115,0.084l0.079,0.039
			l0.052,0.029l0.067,0.066l0.067,0.043l0.047,0.006l0.104-0.001l0.142-0.021l0.103-0.031l0.105-0.065l0.082-0.047l0.063-0.021
			l0.015-0.088l0.04-0.041l0.046-0.031l0.062-0.03l0.034-0.015l0.087-0.026l0.046-0.005l0.123-0.01l0.152-0.006l0.107-0.016
			l0.076-0.018l0.116-0.037l0.066-0.01h0.087l0.098,0.028l0.036,0.026l0.027,0.052l0.062,0.073l0.107,0.06l0.067-0.005l0.029-0.018
			l0.056-0.102l0.104-0.224l0.074-0.136l0.096-0.094l0.111-0.062l0.112-0.027l0.251-0.007l0.262,0.01l0.153,0.029l0.164,0.029
			l0.138,0.009l0.147-0.015l0.225-0.068l0.111-0.08l0.074-0.083l0.076-0.049l0.193-0.063l0.188-0.089l0.121-0.106l0.121-0.118
			l0.045-0.136l0.108-0.192l0.068-0.188l0.055-0.136l0.027-0.042l0.03-0.018l0.051-0.002l0.1,0.035l0.139,0.062l0.077,0.043
			l0.052,0.021l0.066-0.002l0.075-0.026l0.076-0.04l0.103-0.055l0.074-0.113l0.034-0.131l0.038-0.162L25,17.335l0.03-0.04
			l0.061-0.035l0.14-0.006l0.091-0.027l0.051-0.044l0.034-0.073l0.023-0.119l0.04-0.092l0.085-0.104l0.077-0.091l0.115-0.15
			l0.09-0.154l0.086-0.104l0.121-0.103l0.22-0.146l0.196-0.103l0.281-0.104l0.178-0.06l0.168-0.088l0.132-0.094l0.197-0.164
			l0.184-0.133l0.003-0.003l-0.054-0.114l-0.03-0.081L27.52,15l0.033-0.076l0.069-0.077l0.083-0.079l0.106-0.088l0.123-0.091
			l0.111-0.089l0.071-0.077l0.038-0.081l0.084-0.182l0.092-0.117l0.042-0.093l0.023-0.117l0.013-0.104l-0.013-0.111l-0.039-0.139
			l-0.053-0.115l-0.068-0.128l-0.071-0.117L28.13,13.05l0.007-0.055l0.006-0.028l0.028-0.038l0.054-0.046l0.083-0.079l0.104-0.066
			l0.077-0.078l0.06-0.097l0.024-0.085l0.01-0.039l-0.003-0.043l-0.007-0.025l-0.055-0.017l-0.149-0.071l-0.261-0.112l-0.188-0.098
			l-0.154-0.097l-0.146-0.083l-0.108-0.062l-0.132-0.016l-0.124-0.043l-0.056-0.023l-0.043-0.046l-0.039-0.059l-0.006-0.053v-0.027
			l0.009-0.017l0.041-0.04l0.069-0.055l0.075-0.078l0.076-0.11l0.038-0.136l0.008-0.179l-0.013-0.164l-0.09-0.195l-0.053-0.115
			l-0.046-0.089l-0.015-0.058l0.003-0.07l0.016-0.126l0.034-0.146l0.06-0.29l0.021-0.117l0.087-0.171l0.086-0.149l0.021-0.101
			l-0.01-0.152l0.076-0.177l-0.101,0.072l-0.051,0.001l-0.078-0.025l-0.109-0.036l-0.135-0.073l-0.098-0.063L26.98,8.63
			l-0.029-0.097l-0.059-0.069L26.8,8.396l-0.11-0.112l-0.099-0.08l-0.096-0.036l-0.078-0.053l-0.021-0.103l-0.031-0.216L26.29,7.634
			l-0.11-0.197l-0.06-0.075L26.062,7.32l-0.09-0.009l-0.141,0.002l-0.115-0.025L25.6,7.258L25.53,7.265l-0.083,0.002l-0.032-0.032
			l-0.027-0.07l-0.015-0.064l0.018-0.055l0.025-0.022l0.057-0.039l0.044-0.05l-0.001-0.038l-0.021-0.075l-0.132-0.177l-0.158-0.16
			L25.08,6.368l-0.162-0.089l-0.226-0.087l-0.22-0.088l-0.117-0.085L24.334,5.96l0.017-0.093l0.023-0.06l0.047-0.093l0.104-0.251
			l0.027-0.109L24.525,5.29l-0.053-0.069l-0.145-0.127l-0.179-0.208l-0.197-0.213l-0.216-0.196l-0.173-0.225l-0.079-0.123
			l-0.031-0.163l0.014-0.157l0.004-0.136l-0.021-0.048l-0.071-0.036l-0.026-0.043l-0.038-0.265l-0.018-0.125l-0.042-0.113
			l-0.078-0.058l-0.144-0.122l-0.158-0.176l-0.132-0.128l-0.072-0.08l-0.047-0.102l-0.035-0.118l0.001-0.168l-0.02-0.232
			l-0.05-0.405l-0.035-0.119l-0.037-0.184l-0.056-0.167l-0.058-0.199L22.279,0.542"/>
	</g>
</g>
<g id="Layer_1">
</g>
</svg>
