<?xml version="1.0" encoding="iso-8859-1"?>
<!-- Generator: Adobe Illustrator 16.0.4, SVG Export Plug-In . SVG Version: 6.00 Build 0)  -->
<!DOCTYPE svg PUBLIC "-//W3C//DTD SVG 1.1//EN" "http://www.w3.org/Graphics/SVG/1.1/DTD/svg11.dtd">
<svg version="1.1" xmlns="http://www.w3.org/2000/svg" xmlns:xlink="http://www.w3.org/1999/xlink" x="0px" y="0px" width="8.382px"
	 height="4.582px" viewBox="0 0 8.382 4.582" style="enable-background:new 0 0 8.382 4.582;" xml:space="preserve">
<g id="Layer_45">
	<g id="Layer_50">
		<path id="DISTRICT_x3D_Thatta_x2C_PROVINCE_x3D_Sindh_1_" style="fill:#CCCCCC;stroke:#FFFFFF;stroke-width:1.07;" d="
			M5.035,0.924L5.035,0.924L4.513,0.663L4.11,0.546L3.77,0.593L3.36,0.788L3.114,0.924L2.943,1.02L2.371,1.663L2.093,1.829
			L1.819,1.848L1.617,1.776L0.898,1.15l-0.237-0.01L0.543,1.258l0.006,0.163l0.266,0.703l0.146,0.082l0.38,0.004l0.138,0.144
			l0.259,0.538L1.83,3.044l0.212,0.07l0.279-0.13l0.248,0.034L2.69,2.945l0.143,0.021l0.04,0.051L2.552,3.288l-0.106,0.43
			l0.111,0.179L2.78,4.02l0.161-0.032L2.81,3.575l0.032-0.157l0.129-0.091L3.664,3.34l0.112-0.047l0.023-0.148L3.462,2.791
			L3.406,2.575l0.052-0.141l0.118-0.025l0.116-0.024L4.18,2.481L4.498,2.86l0.203,0.09l0.198-0.023L5.113,3.05l0.121-0.048
			l0.137-0.369l0.285-0.218l0.387-0.072L6.98,2.32l0.438,0.046l0.364-0.133L7.759,2.078L7.545,1.93L7.514,1.636L7.361,1.606
			L7.094,1.328L6.83,1.391L6.533,1.078L6.197,0.941l-0.279-0.32l-0.36,0.003L5.32,0.857l-0.101,0.1L5.035,0.924"/>
	</g>
</g>
<g id="Layer_1">
</g>
</svg>
