<?xml version="1.0" encoding="iso-8859-1"?>
<!-- Generator: Adobe Illustrator 16.0.4, SVG Export Plug-In . SVG Version: 6.00 Build 0)  -->
<!DOCTYPE svg PUBLIC "-//W3C//DTD SVG 1.1//EN" "http://www.w3.org/Graphics/SVG/1.1/DTD/svg11.dtd">
<svg version="1.1" xmlns="http://www.w3.org/2000/svg" xmlns:xlink="http://www.w3.org/1999/xlink" x="0px" y="0px"
	 width="26.174px" height="24.909px" viewBox="0 0 26.174 24.909" style="enable-background:new 0 0 26.174 24.909;"
	 xml:space="preserve">
<g id="Layer_84">
	<g id="Layer_89">
		<path id="DISTRICT_x3D_Muzaffarabad_x2C_PROVINCE_x3D_AJK" style="fill:#CCCCCC;stroke:#FFFFFF;stroke-width:1.07;" d="
			M15.519,9.174L15.519,9.174L15.49,9.176h-0.008h-0.054h-0.021l-0.034,0.002l-0.021,0.005L15.337,9.19l-0.032,0.002h-0.018
			l-0.015-0.001l-0.016-0.004l-0.024-0.004h-0.021l-0.034,0.006l-0.031,0.008l-0.034,0.005l-0.042,0.005l-0.057,0.01L14.96,9.222
			l-0.082-0.006l-0.047-0.011l-0.045-0.01h-0.041l-0.051,0.013l-0.036,0.01l-0.049-0.003l-0.009-0.02l-0.004-0.038V9.121
			l0.005-0.065l0.021-0.066l0.01-0.037l0.012-0.025l0.011-0.059l0.015-0.038l0.021-0.014l0.04-0.002h0.062l0.042-0.004L14.876,8.8
			l0.062-0.015l0.042-0.035l0.027-0.03l0.016-0.028l0.003-0.041L15.019,8.6l-0.017-0.046l-0.009-0.015l-0.011-0.021V8.464
			l0.025-0.042l0.011-0.04l0.017-0.035l0.033-0.04L15.1,8.272l0.024-0.039l0.021-0.021l0.017-0.025l0.009-0.02l0.003-0.02
			l0.009-0.037l-0.005-0.053V8.039l-0.002-0.044l-0.001-0.028l-0.011-0.059l-0.005-0.054l-0.001-0.057V7.778l-0.003-0.051
			l-0.009-0.02l-0.011-0.03l-0.01-0.032l-0.012-0.034L15.1,7.569l0.017-0.044l0.018-0.035l0.008-0.019l0.022-0.04l0.023-0.04
			l0.018-0.025l0.001-0.027v-0.01l-0.027-0.022l-0.067-0.035l-0.011-0.016l-0.045-0.021l-0.029-0.051l-0.036-0.01L14.97,7.154
			l-0.027-0.021l-0.039-0.045l-0.034-0.055L14.848,6.97l-0.013-0.058l-0.006-0.026L14.82,6.831V6.819l0.006-0.025l0.04-0.022
			l0.045-0.027l0.042-0.014l0.024-0.015L15,6.703l0.052-0.009l0.029-0.006l0.062-0.004l0.032-0.006h0.025l0.012-0.02l0.001-0.025
			l0.002-0.031V6.555V6.533l-0.003-0.044l-0.001-0.032L15.21,6.438l-0.007-0.023l-0.021-0.046l-0.021-0.031l-0.053-0.046
			l-0.029-0.019l-0.062-0.014l-0.039-0.018l-0.055-0.039l-0.025-0.038l-0.033-0.027l-0.03-0.039L14.79,6.046L14.73,5.98
			l-0.047-0.044l-0.029-0.032l-0.047-0.05L14.581,5.8l-0.035-0.033l-0.011-0.024l0.018-0.048l0.021-0.031l0.032-0.035l0.035-0.025
			l0.042-0.025l0.021-0.031l0.057-0.041l0.023-0.032l0.027-0.028l0.029-0.034l0.008-0.025l0.003-0.039l0.003-0.035l0.025-0.036
			l0.045-0.032l0.051-0.028l0.042-0.029l0.034-0.024l0.057-0.017l0.044-0.018l0.042-0.01l0.09,0.001l0.039-0.004l0.034-0.023
			L15.4,5.073l0.036-0.013l0.031-0.015l0.02-0.032l0.025-0.022l0.01-0.036l0.032-0.02l0.015-0.025l0.021-0.027l0.027-0.025
			l0.026-0.027l0.021-0.018l0.013-0.014l0.028-0.025l0.004-0.031l0.002-0.031l-0.008-0.036l-0.01-0.036L15.68,4.618L15.659,4.59
			l-0.014-0.033L15.62,4.5l-0.024-0.022l-0.021-0.03l-0.014-0.03L15.552,4.39l0.02-0.035l0.024-0.028l0.043-0.02l0.005-0.036
			l-0.011-0.037l0.003-0.072L15.639,4.1l0.001-0.03l-0.007-0.041l0.008-0.043l0.014-0.032l0.013-0.045l0.011-0.032l0.01-0.027
			l0.021-0.036l0.014-0.031l0.023-0.038l0.014-0.027l0.008-0.03l0.008-0.034l-0.001-0.035l-0.008-0.036l-0.011-0.039l-0.021-0.035
			l-0.021-0.026l-0.051-0.006h-0.056h-0.052h-0.065h-0.044l-0.072,0.01h-0.06h-0.02L15.24,3.485l-0.043-0.004l-0.062-0.002
			l-0.012-0.014l-0.017-0.019l-0.044-0.064l-0.019-0.014l-0.02-0.015l-0.021-0.022l-0.031-0.026l-0.059-0.039L14.886,3.24
			l-0.012-0.011L14.86,3.224l-0.053-0.033l-0.037,0.007l-0.041,0.01l-0.027,0.01l-0.036,0.01l-0.06,0.026l-0.024,0.021L14.531,3.29
			l-0.043,0.011l-0.05,0.013l-0.05,0.023l-0.021,0.008l-0.053-0.016l-0.05-0.01l-0.071-0.01l-0.034,0.003l-0.021,0.015l-0.016,0.016
			l-0.025,0.01l-0.03,0.005l-0.021,0.005h-0.025l-0.04-0.019l-0.019-0.021l-0.058-0.015l-0.04-0.002l-0.04-0.008l-0.059-0.021
			h-0.044l-0.046-0.016h-0.041h-0.06h-0.059l-0.022,0.013l-0.033-0.003v-0.04L13.476,3.2l0.006-0.023V3.152V3.134l-0.004-0.021
			l-0.015-0.014l-0.021-0.017l-0.024-0.01l-0.036-0.011l-0.063-0.012l-0.052-0.015L13.2,3.01l-0.018-0.013l-0.026-0.006
			l-0.024-0.006l-0.038-0.012l-0.025-0.008L13.05,2.953l-0.021-0.014L13,2.922l-0.049-0.027l-0.022-0.038l-0.023-0.021L12.889,2.82
			l-0.026-0.018l-0.027-0.015l-0.018-0.009l-0.031-0.012l-0.033-0.012l-0.021-0.019H12.69l-0.027-0.003l-0.025-0.006h-0.031
			l-0.061-0.022h-0.038L12.47,2.698l-0.009-0.009l-0.044-0.021l-0.05,0.001H12.31h-0.038l-0.02,0.009L12.228,2.69l-0.04,0.015
			l-0.018,0.02L12.148,2.74L12.13,2.76l-0.021,0.015L12.08,2.789l-0.02,0.012l-0.058,0.011l-0.015,0.009l-0.012,0.016l-0.015,0.017
			l-0.028,0.029l-0.021,0.04H11.89l-0.01-0.014l-0.055-0.04l-0.006-0.012l-0.002-0.011l-0.029-0.032l-0.006-0.02l-0.026-0.033
			L11.735,2.73L11.72,2.693l-0.013-0.021l-0.014-0.019l-0.024-0.024l-0.021-0.023l-0.011-0.021l0.001-0.043l0.018-0.024l0.011-0.021
			v-0.02l0.003-0.017L11.65,2.439l-0.02-0.021l-0.021-0.016l-0.036-0.027l-0.009-0.018l-0.014-0.015l-0.021-0.015l-0.021-0.024
			L11.5,2.286L11.483,2.26l-0.012-0.018l-0.013-0.024l-0.012-0.017l-0.02-0.015l-0.034-0.037l-0.015-0.017l-0.016-0.021
			l-0.016-0.012l-0.046-0.037l-0.021-0.016l-0.014-0.017l-0.007-0.02l-0.005-0.012l-0.001-0.003L11.243,1.98l-0.011-0.013
			l-0.018-0.061L11.199,1.88l-0.014-0.026l-0.005-0.031l-0.007-0.021l-0.003-0.021l-0.004-0.018l-0.019-0.021L11.133,1.72
			l-0.061,0.01L10.99,1.734l-0.056,0.014l-0.071-0.014L10.78,1.739l-0.071,0.019l-0.071-0.014l-0.071-0.027l-0.093-0.046
			l-0.052-0.078l-0.055-0.069l-0.038-0.055l-0.011-0.064l-0.039-0.064L10.24,1.277l-0.027-0.101l-0.075-0.064L10.06,1.066
			L9.978,1.029L9.884,0.974L9.745,0.928L9.619,0.872l-0.122-0.06L9.453,0.775L9.288,0.761L9.185,0.77H9.134L9.029,0.751h-0.05
			L8.896,0.742H8.796L8.697,0.747h-0.11H8.538L8.449,0.742l-0.05-0.004L8.312,0.766l-0.05,0.027L8.179,0.812L8.091,0.839
			L8.035,0.853H7.974L7.925,0.844L7.824,0.793L7.792,0.738l-0.083-0.06l-0.07-0.042L7.522,0.581L7.385,0.544L7.303,0.535H7.214
			l-0.066,0.05L7.109,0.622L7.048,0.668L7.016,0.705L6.971,0.733L6.943,0.76L6.938,0.806L6.91,0.851L6.884,0.888L6.845,0.921
			L6.802,0.962L6.773,1.008l-0.05,0.046L6.652,1.091L6.619,1.123L6.575,1.164L6.542,1.201L6.497,1.219L6.42,1.256L6.316,1.275
			L6.251,1.294L6.174,1.303L6.085,1.308H5.986L5.92,1.285H5.871H5.787H5.761H5.699H5.634L5.529,1.276H5.469h-0.1L5.28,1.267
			L5.203,1.258L5.115,1.213l-0.05-0.028L5.005,1.153l-0.1-0.055L4.845,1.061l-0.133-0.05L4.603,0.997L4.514,1.002L4.382,1.03
			L4.31,1.057L4.243,1.085L4.149,1.112l-0.044,0.01L4.044,1.131L4.007,1.14H3.94L3.847,1.163L3.764,1.19L3.72,1.223L3.682,1.232
			L3.625,1.218L3.564,1.181L3.503,1.135L3.454,1.089L3.415,1.071L3.35,1.057L3.294,1.084L3.229,1.103H3.19L3.107,1.112L3.041,1.121
			H3.003l-0.05,0.005L2.908,1.14L2.893,1.158L2.887,1.195L2.854,1.218L2.792,1.26L2.755,1.306L2.716,1.362L2.693,1.399L2.673,1.435
			v0.046L2.66,1.591L2.654,1.633L2.639,1.67L2.611,1.707L2.583,1.735L2.551,1.762L2.523,1.781v0.041v0.051l0.044,0.078l0.016,0.037
			l0.022,0.051l0.017,0.055l0.027,0.064l0.018,0.046l0.006,0.055l0.005,0.055l0.006,0.065L2.672,2.452L2.66,2.53v0.046v0.056
			l0.006,0.046L2.639,2.742L2.583,2.788L2.528,2.844L2.483,2.89L2.435,2.941L2.352,2.978L2.29,3.02L2.219,3.066L2.152,3.121
			L2.132,3.172L2.087,3.218L2.065,3.255L2.07,3.338l0.039,0.064l0.049,0.102l0.033,0.074L2.23,3.642l0.027,0.083l0.038,0.092
			L2.323,3.9v0.079l0.021,0.064v0.055v0.046v0.083L2.339,4.31L2.326,4.374L2.306,4.438L2.294,4.503L2.282,4.558L2.261,4.613
			L2.244,4.668L2.227,4.733v0.055l0.011,0.046l0.007,0.055L2.193,4.953L2.149,5.018L2.1,5.082L2.034,5.155L1.979,5.247L1.918,5.311
			L1.885,5.394L1.828,5.468L1.817,5.551L1.784,5.625l0.027,0.046l0.033,0.074L1.865,5.8L1.859,5.929L1.854,6.003l0.021,0.102v0.073
			v0.064L1.837,6.293L1.82,6.335l-0.028,0.06l0.019,0.069L1.865,6.51l0.044,0.083l0.044,0.055l0.021,0.055l0.026,0.046L2.02,6.823
			l0.01,0.064l0.006,0.055l0.006,0.083L2.003,7.108L1.97,7.172L1.926,7.236L1.882,7.291L1.849,7.337L1.826,7.401l0.006,0.033
			l0.018,0.05l0.005,0.064L1.837,7.603L1.805,7.636L1.733,7.677l-0.05,0.028L1.645,7.733L1.617,7.788L1.597,7.843L1.579,7.907
			L1.552,7.962v0.046l0.032,0.041l0.039,0.019l0.033,0.019v0.037L1.617,8.161L1.573,8.207L1.528,8.244L1.49,8.3L1.464,8.364
			L1.457,8.438l-0.061,0.18L1.357,8.705L1.337,8.769L1.309,8.833L1.286,8.888L1.28,8.962L1.27,9.017L1.231,9.026L1.192,9.045v0.046
			l0.011,0.027l0.033,0.028l0.022,0.019L1.253,9.211L1.226,9.257L1.208,9.289L1.164,9.303L1.087,9.307L0.998,9.312L0.899,9.34
			L0.855,9.354L0.772,9.386L0.729,9.4L0.646,9.446L0.574,9.474L0.535,9.488v0.051l0.057,0.073l0.044,0.042L0.69,9.696l0.049,0.046
			l0.045,0.037l0.027,0.037l0.021,0.042l0.021,0.041v0.037l0.011,0.046l0.045,0.111l0.017,0.036l0.011,0.028v0.055L0.92,10.24v0.05
			l0.022,0.069l-0.001,0.046v0.046l0.027,0.055l0.021,0.027l0.033,0.009l0.05-0.019L1.117,10.5l0.033-0.032l0.031-0.011l0.052-0.017
			l0.061-0.018l0.066,0.004l0.049,0.027l0.022,0.055l0.031,0.037l0.033,0.064l0.05,0.028h0.066h0.077l0.082-0.009l0.094,0.013
			l0.033,0.01l0.017,0.037l-0.038,0.046l-0.044,0.018L1.8,10.789l-0.027,0.028l-0.038,0.036l-0.033,0.028l-0.017,0.036v0.037
			L1.717,11l0.033,0.027l0.044,0.037l0.027,0.019l0.005,0.037l0.006,0.045v0.065l0.018,0.027l0.044,0.005l0.055,0.014l0.039,0.037
			l0.038,0.046l0.039,0.037l0.064,0.056l0.072,0.027l0.062,0.005l0.061,0.004l0.1,0.055l0.056,0.027l0.032,0.032l0.033,0.014
			l0.012,0.051l0.005,0.046l0.006,0.05l0.012,0.055l-0.001,0.05l0.006,0.042l0.005,0.051l0.006,0.046l0.018,0.032l0.017,0.027
			l0.021,0.037l0.017,0.027l0.011,0.027v0.037v0.037l-0.021,0.028l-0.088,0.037L2.55,12.315l-0.016,0.027v0.037v0.018l0.032,0.015
			L2.6,12.434l0.032,0.032l0.045,0.042l0.032,0.009l0.033,0.028l0.044,0.004l0.055,0.005l0.039,0.014l0.021,0.027l-0.005,0.028
			L2.884,12.65l0.013,0.028l0.038,0.018l0.021,0.027l0.012,0.028l0.017,0.037L3,12.816l0.034,0.009l0.049,0.009l0.044,0.018
			l0.028,0.014l0.027,0.028v0.032l0.011,0.037l-0.012,0.092L3.17,13.092l-0.005,0.061l-0.006,0.051v0.042v0.032l0.011,0.037v0.037
			H3.148l-0.062-0.015l-0.026-0.01l-0.044,0.005l-0.027,0.027v0.045L3,13.451l0.027,0.046l0.027,0.028l0.021,0.037l0.022,0.022
			l0.049,0.005l0.061,0.01l0.072,0.008l0.049-0.022l0.012-0.037l0.018-0.046v-0.061l0.027-0.027l0.021-0.018h0.1l0.077-0.01
			l0.057-0.046l0.033-0.055l0.026-0.06l0.027-0.047l0.017-0.097l0.012-0.052l0.082-0.018l0.098-0.007l0.1,0.076l0.005,0.056
			l0.023,0.041l-0.004,0.072v0.042l0.021,0.037l0.039,0.046l0.032,0.037l0.039,0.037l0.05,0.035l0.021,0.047l0.006,0.046
			l-0.018,0.032l-0.033,0.031l-0.044,0.033l-0.056,0.036l-0.044,0.022l-0.033,0.043l-0.055,0.041l-0.045,0.051l-0.043,0.055
			l-0.045,0.064l-0.044,0.074l-0.033,0.072l-0.039,0.064l-0.018,0.083l-0.026,0.083l0.021,0.092l0.005,0.057l0.033,0.072
			l0.033,0.074l0.021,0.055l0.027,0.074l0.019,0.031l0.01,0.015l0.039,0.056l0.032,0.073l0.033,0.097l0.021,0.088l0.021,0.063
			l0.018,0.063l0.039,0.078L4.096,15.4l0.038,0.055l0.051,0.055l0.05,0.061l0.043,0.06l0.039,0.05l0.05,0.051l0.044,0.056
			l0.038,0.046l0.044,0.046l0.039,0.056l0.033,0.055l0.021,0.046l0.033,0.046l0.018,0.046l0.011,0.042v0.051l0.011,0.036
			l0.028,0.037l0.026,0.037l0.005,0.046v0.055l-0.038,0.047l-0.006,0.035l-0.055,0.033l-0.045,0.023l-0.044,0.027l-0.011,0.036
			v0.037l0.016,0.056l0.022,0.055l0.017,0.037l0.021,0.056l0.018,0.056l-0.001,0.045l-0.017,0.055l-0.018,0.074l-0.038,0.055
			l-0.045,0.056l-0.027,0.037L4.45,17.295v0.055l0.006,0.084l0.021,0.045l0.011,0.056l0.018,0.036l0.017,0.056v0.051l-0.006,0.069
			L4.5,17.801l-0.012,0.037l-0.018,0.064l-0.017,0.063l-0.011,0.063l-0.006,0.084l0.017,0.082l0.011,0.056l0.044,0.065l0.018,0.055
			l-0.018,0.055L4.488,18.49L4.47,18.546l-0.011,0.056l0.027,0.063l0.017,0.063v0.045l0.027,0.065l0.027,0.06l0.021,0.043
			l0.005,0.045v0.057L4.558,19.08l-0.056,0.055l-0.045,0.047l-0.021,0.036l0.005,0.073l0.033,0.046l0.032,0.046l0.044,0.02
			l0.044,0.026l0.062,0.046l0.05,0.028l0.027,0.037v0.036l-0.027,0.027l-0.033,0.037l-0.065,0.028l-0.05,0.015l-0.045,0.031
			L4.48,19.752v0.055l0.021,0.057l0.032,0.082l0.05,0.064l0.018,0.064l0.026,0.055l0.022,0.064l0.026,0.074l0.012,0.045l0.006,0.065
			v0.063v0.056l0.005,0.036l0.038,0.037l0.051,0.004l0.049,0.027l0.039,0.018l0.005,0.011h0.045l0.04,0.019l0.05,0.023l0.015,0.003
			l0.014,0.004H5.08l0.036-0.03l0.013-0.031l0.014-0.039l0.02-0.022l0,0l0.054-0.019l0.055-0.023l0.062-0.035l0.031-0.011
			l0.049-0.008l0.059-0.003h0.077h0.05l0.041,0.011l0.035,0.017l0.046,0.01l0.022-0.006l0.004-0.047v-0.022l0.004-0.058l0.005-0.041
			l0.014-0.047l0.055-0.041l0.026-0.026l0.031-0.042l0.031-0.016H5.94h0.075h0.037l0.03,0.012l0.041-0.023l-0.001-0.033
			l-0.062-0.062l-0.022-0.03l-0.036-0.034l-0.036-0.016l-0.036-0.008l-0.035-0.012l-0.031-0.008l-0.027-0.007l-0.05-0.012
			l-0.04-0.011l-0.019-0.008l-0.031-0.008l-0.019-0.015l0.009-0.05l0.019-0.023l0.014-0.027l0.026-0.019l0.031-0.021l0.05-0.006
			l0.036,0.014l0.036,0.054l0.01,0.017l0.044,0.008h0.023h0.018l0.022-0.008l0.019-0.022v-0.011l-0.027-0.02l-0.045-0.031
			l-0.026-0.011l-0.041-0.011l-0.036-0.042l0.021-0.031l0.045-0.015l0.027-0.004h0.054h0.067l0.062-0.004l0.046-0.004l0.035-0.015
			l0.031-0.004h0.055l0.04-0.004l0.022,0.004l0.014,0.038l0.02,0.031l0.021,0.029l0.036,0.043l0.036,0.049l0.031,0.039v0.015
			l0.005,0.03v0.054l-0.014,0.038l0.01,0.058l0.021,0.026l0.014,0.027l0.019,0.022l0.001,0.019v0.035L6.57,20.17l-0.019,0.029
			L6.539,20.23v0.03l-0.005,0.046v0.03l-0.013,0.026l-0.007,0.016l-0.021,0.042l-0.005,0.026l0.031,0.022l0.035,0.017l0.055,0.021
			l0.001,0.001l0.021,0.037v0.015v0.004l-0.04,0.062l-0.018,0.022l-0.023,0.043l-0.035,0.053l-0.022,0.031l-0.026,0.039L6.459,20.83
			l-0.015,0.029v0.031l0.045,0.008l0.031,0.004h0.023h0.021l0.081-0.027l0.027-0.004h0.013h0.041l0.031,0.007l0.045,0.019
			l0.046,0.008h0.039h0.037h0.049h0.072h0.05l0.036-0.016l0.008-0.007l0.021-0.017l0.03-0.026l0.01-0.001l0.014-0.002l0.067,0.012
			l0.006,0.004l0.035,0.023l0.034,0.02l0.006,0.002l0.026,0.012l0.05,0.004h0.09h0.036h0.04l0.019,0.006l0.014,0.005l0.037,0.013
			h0.031l0.059,0.002H7.81h0.027l0.031,0.012l0.008,0.018L7.891,21l0.014,0.033l0.01,0.031l0.005,0.016l0.018,0.027l0.022,0.037
			l0.002,0.006l0.012,0.039v0.018v0.021l0.001,0.012v0.011v0.034l-0.005,0.02l0.014,0.042l0.013,0.019h0.002l0,0l0.018,0.016
			l0.032,0.031l0.041,0.037l0.036,0.031l0.02,0.018l0.012,0.009l0.041,0.026l0.021,0.031l0.027,0.029l0.035,0.034l0.02,0.034
			l0.041,0.039l0.031,0.039l0.009,0.011l0.026,0.034L8.43,21.82l0.021,0.029l0.02,0.035l0.021,0.02l0.04,0.031l0.027,0.014
			l0.027,0.009l0,0l0.039,0.019l0.032,0.02l0.031,0.017l0.014,0.007l0.036,0.016l0.05,0.022l0.022,0.017l0,0l0.05,0.027l0.024,0.012
			l0.023,0.015l0.046,0.015l0.023,0.008l0.025,0.008l0.021,0.008l0.067,0.021l0.031,0.021l0.031,0.015l0.009,0.004L9.2,22.242
			l0.032,0.016l0.026,0.016l0.047,0.014h0.003l0.041,0.02l0.026,0.008l0.022,0.012l0.03,0.009l0.005,0.002l0.022,0.007l0.019,0.004
			l0.026,0.008l0.01,0.004l0.055,0.03l0.035,0.015l0.031,0.012l0.076,0.016l0.003,0.008l0.011,0.022l0.031,0.008h0.001l0.027,0.021
			l0.004,0.002l0.007-0.002l0.002-0.002l0.009-0.039L9.794,22.42l-0.009-0.031l-0.019-0.037L9.756,22.32l-0.009-0.039v-0.023v-0.039
			v-0.033v-0.018v-0.021l-0.01-0.015l-0.009-0.013l-0.021-0.03l-0.022-0.03l-0.004-0.043V21.97l0.018-0.034l0.018-0.023l0.015-0.027
			l0.01-0.018l0.021-0.035l0.011-0.016l0.012-0.015l0.021-0.022l0.039-0.016l0.055-0.016l0.05-0.016l0.063-0.004l0.034-0.016
			l0.032-0.02l0.04-0.026l0.055-0.031h0.031l0.04,0.019v0.031v0.008v0.004v0.033l0.015,0.035l0.014,0.022l0.009,0.008l0.004,0.021
			l0.001,0.01l0.005,0.031v0.03l-0.004,0.054v0.015l0,0l-0.005,0.099l0.009,0.038l0.023,0.039l0.009,0.03l0.021,0.033l0.022,0.035
			l0.009,0.017l0.005,0.011l0.014,0.034l0.004,0.007l0.011,0.031l0.019,0.029l0.019,0.013l0.03,0.021l0.036,0.018l0.056,0.016
			l0.03,0.012l0.026,0.01l0.021,0.014l0.012,0.006l0.03,0.02l0.027,0.016l0.054,0.016h0.001l0.019,0.01l0.026,0.027l0.022,0.012
			l0.027,0.015l0.03-0.009l0.011-0.002l0.021-0.006l0.006-0.002l0.03-0.02l0.04-0.016l0.025-0.004h0.002h0.066h0.01h0.01l0.03,0.015
			l0,0l0.022,0.007l0.006,0.002l0.008,0.002l0.031,0.004h0.021h0.02h0.018h0.005h0.003h0.012l0.031-0.008l0.009-0.008l0.026-0.01
			l0.004-0.002h0.002l0,0l0.034-0.008l0.05-0.012h0.04h0.037l0.014,0.002l0.036,0.005l0.041,0.005l0.03,0.006l0.045,0.008h0.121
			l0.051-0.022l0.04-0.007l0.062-0.012L12,22.479h0.045l0.026-0.012l0.041-0.02l0.066-0.016l0.027-0.015l0,0l0.045-0.013
			l0.012-0.006l0.007-0.006l0,0h0.001l0.021-0.021l0.018-0.016l0.012-0.009l0.021-0.015l0.036-0.016l0.025-0.008h0.032h0.011h0.012
			h0.037l0.022,0.006l0.021,0.004l0.022,0.004h0.007h0.012H12.6l0.019,0.004h0.005l0.034,0.003h0.02h0.045l0.027-0.042l0.025-0.021
			l0.009-0.005l0.015-0.008l0.045-0.03l0.041-0.012l0.049-0.031l0.019-0.033l0.021-0.041l0.002-0.006l0.026-0.031l0.009-0.037
			l0.014-0.047l0.008-0.023l0.006-0.02l0.003-0.031l0.001-0.021v-0.035v-0.029l-0.004-0.026l-0.026-0.026L13,21.699l0.02-0.023
			h0.059l0.055,0.008h0.036h0.039l0.052-0.023l0.04-0.012h0.05l0.026,0.01l0.045,0.023l0.035,0.008l0.032,0.023l0.04,0.023
			l0.036,0.025l0.021,0.016l0.051,0.035l0.026,0.014l0.031,0.013l0.019,0.015l0.022,0.012l0.032,0.008l0.075,0.004l0.031-0.004
			l0.006-0.004l0.025-0.02l0.036-0.016l0.025-0.02l0.037-0.016l0.045-0.02l0.045-0.026l0.026-0.015l0.041-0.004h0.04l0.036-0.013
			l0.09-0.026h0.126l0.055-0.008h0.036h0.063l0.045-0.008l0.025-0.004l0.055-0.007l0.037-0.004h0.045h0.049l0.031,0.008h0.036
			l0.046-0.008l0.03-0.009l0.031-0.025l0.027-0.004h0.062l0.036,0.007l0.036,0.007l0.036,0.008h0.036l0.026-0.019l0.031-0.013
			l0.031-0.008l0.076-0.016l0.041-0.011l0.045-0.003h0.059l0.05,0.011l0.045,0.015l0.045,0.008l0.046,0.019l0.026,0.017l0.027,0.015
			l0.03,0.021l0.022,0.01l0.136,0.031h0.019h0.05l0.031-0.012l0.045-0.023l0.051-0.008h0.035h0.05l0.062,0.027l0.032,0.016
			l0.071,0.012l0.036,0.015l0.026,0.011l0.031,0.016l0.023,0.02l0.049,0.016l0.036,0.016l0.021,0.004l0.05,0.011l0.051,0.021
			l0.035,0.011h0.036h0.035l0.056-0.015l0.021-0.02l0.021-0.023l0.022-0.022l0.026-0.022l0.031-0.02L17.1,21.74l0.026-0.022
			l0.027-0.015l0.026-0.016l0.054-0.017l0.05-0.026l0.059-0.022l0.05-0.021l0.046-0.019l0.095-0.031l0.035-0.019l0.031-0.012h0.063
			l0.03-0.004h0.056l0.076,0.014l0.055,0.013l0.045,0.011l0.054,0.016l0.067,0.007l0.01,0.008l0.045,0.011l0.081,0.012l0.019,0.015
			l0.095,0.03l0.036,0.012l0.026,0.016l0.055,0.016l0.031,0.004l0.067,0.019l0.045,0.013l0.031,0.01l0.1,0.035l0.031,0.022
			l0.063,0.077l0.021,0.042l0.014,0.038l0.004,0.016l0.007,0.026l0.008,0.017l0.01,0.014l0.036,0.023l0.036,0.02l0.026,0.007
			l0.026,0.016l0.032,0.011l0.049,0.02l0.041,0.012l0.041,0.02l0.026,0.022l0.031,0.027l0.05,0.022l0.031,0.026l0.035,0.017
			l0.036-0.002l0.091,0.016l0.045,0.013l0.026,0.026l0.01,0.045v0.054v0.115v0.026l-0.018,0.03v0.042l-0.019,0.023l-0.019,0.021
			l-0.004,0.023l-0.005,0.023l-0.019,0.045l-0.014,0.017v0.038l0.005,0.046l0.019,0.03l0.022,0.035l0.031,0.049l0.006,0.021
			l0.003,0.011l0.004,0.022l0.006,0.034v0.039v0.041l-0.022,0.047l-0.004,0.042l-0.005,0.021l-0.005,0.021l-0.009,0.05l-0.009,0.046
			l-0.004,0.038v0.038v0.033l0.001,0.013l0.004,0.019l0.035,0.035l0.035,0.022l0.027,0.026l0.031,0.031l0.005,0.008l0.014,0.026
			l0.031,0.026l0,0l0.01,0.046l0.003,0.04l0.001,0.014v0.055l0.004,0.012l0.007,0.019l0.025,0.035l0.041,0.022l0.032,0.016
			l0.021,0.012l0.011,0.004l0.004,0.004l0.014,0.008l0.014,0.027l0.019,0.025l0.006,0.016v0.034v0.009l0.004,0.029l0.002,0.004
			l0.008,0.021l0.021,0.008l0.022,0.008l0.026,0.003h0.022h0.022h0.031l0.01,0.003l0.039,0.012l0.019,0.012l0.02,0.02l0.016,0.02
			l0.002,0.004l0.019,0.007l0.031,0.026l0.014,0.012l0.005,0.004l0.036,0.031l0.036,0.004l0.077,0.007l0.045,0.004l0.015-0.002
			l0.018-0.002l0.03-0.017l0.036-0.012l0.04-0.007l0.037-0.011h0.005l0.03-0.004h0.032l0.035-0.016h0.002l0.033-0.007l0.023-0.004
			l0.013-0.003h0.051h0.018h0.037h0.03h0.04h0.051h0.026l0.031,0.007l0.031,0.013l0.041,0.012l0.049,0.003l0.036,0.006l0.046,0.009
			l0.031,0.004l0.026,0.02l0.027,0.023l0.026,0.022l0.031,0.008h0.035h0.036l0.036-0.004h0.005l0.031-0.011l0.021-0.016l0.027-0.019
			l0.026-0.022l0.021-0.023l0.01-0.006l0.019-0.01l0.025-0.019l0.005-0.004l0.019-0.017h0.001l0.021-0.035l0.018-0.018l0.021-0.02
			l0.018-0.008l0.021-0.01h0.022l0.038,0.014l0.027,0.018l0.05,0.02l0.032,0.008l0.062,0.023l0.026,0.014l0.053-0.012h0.002
			l0.021-0.009l0.02-0.017l0.026-0.014l0.031-0.025l0.035-0.022l0.032-0.022l0.034-0.021l0.057-0.016l0.053-0.032l0.067,0.003
			l0.031-0.016l0.034-0.024l0.021-0.022l0.03-0.015l0.021-0.009l0.011-0.021l-0.037-0.014l-0.011-0.031l-0.014-0.043l-0.02-0.027
			l-0.021-0.047l-0.02-0.033l-0.016-0.062l-0.019-0.056l-0.015-0.049l-0.013-0.056l-0.032-0.055l-0.019-0.049l-0.024-0.036
			l-0.04-0.04l-0.022-0.037l-0.02-0.021l-0.049-0.004l-0.045,0.009l-0.043-0.013l-0.051-0.008l-0.043-0.011l-0.057-0.008H21.95
			l-0.047-0.009l-0.04-0.01l-0.022-0.021l-0.027-0.029l-0.028-0.033l-0.026-0.026l-0.034-0.019l-0.032-0.031l-0.031-0.028
			l-0.032-0.028l-0.034-0.027l-0.029-0.026l-0.023-0.03l-0.018-0.023l-0.021-0.025l-0.008-0.018l-0.018-0.043l-0.018-0.045
			l-0.018-0.035l-0.025-0.049l-0.024-0.037l-0.011-0.022l-0.029-0.046l-0.008-0.051l-0.011-0.045l-0.003-0.045l0.008-0.043
			l0.017-0.03l0.018-0.026l0.002-0.033v-0.043v-0.039l0.014-0.031l0.017-0.041l0.012-0.021l0.021-0.02l0.026-0.018l0.021-0.027
			l0.015-0.041v-0.039v-0.045v-0.036l0.03-0.033l0.039-0.019l0.029-0.006l0.043-0.004l0.026-0.019l0.029-0.048l0.016-0.047
			l0.011-0.051l0.02-0.045l0.011-0.056l0.021-0.033l0.021-0.021l0.026-0.004l0.021-0.024l-0.014-0.052l-0.017-0.039l-0.023-0.026
			l-0.031-0.019l-0.02-0.016l-0.052,0.004h-0.045l-0.028-0.021l-0.023-0.031l-0.029-0.025l0.005-0.045v-0.035l0.02-0.031
			l0.021-0.018l0.026-0.004l0.021-0.015l0.012-0.026l-0.015-0.019l-0.013-0.019l0.026-0.039l0.003-0.055l0.011-0.035l0.016-0.057
			l0.01-0.047v-0.044l-0.003-0.038l-0.004-0.041v-0.044l0.01-0.041l0.019-0.031l0.034-0.019l0.038-0.018l0.071-0.002l0.069,0.018
			l0.074,0.014l0.063-0.007h0.063l0.077,0.007l0.046,0.014l0.021,0.022l0.044,0.026l0.04,0.021l0.056,0.014l0.075,0.002l0.051-0.019
			l0.018-0.026l0.006-0.023v-0.049l0.015-0.037l0.016-0.037l0.015-0.047l0.008-0.045l0.02-0.066l0.008-0.038l0.014-0.042
			l0.009-0.031v-0.047l0.002-0.049l0.006-0.042l0.003-0.044V20.01l-0.003-0.042l-0.021-0.056l-0.029-0.047l-0.013-0.04l-0.003-0.041
			v-0.048l0.003-0.039l0.011-0.036l0.014-0.036l0.013-0.031l0.027-0.021l0.034-0.022l0.037-0.015l0.031-0.014l0.021-0.021
			l0.035-0.009h0.037l0.046-0.01l0.088-0.018l0.051-0.009l0.051-0.021l0.046-0.018L23.19,19.4l0.037-0.026l0.027-0.022l0.025-0.016
			l0.026-0.012l0.024-0.012l0.019-0.019l0.021-0.009l0.026-0.004l0.035,0.009l0.034,0.006l0.031-0.002l0.02-0.013l0.014-0.031
			l-0.003-0.042l-0.002-0.041l0.005-0.035l0.003-0.024l-0.003-0.021l-0.019-0.011H23.48l-0.035-0.006l-0.019-0.008l-0.006-0.024
			l0.003-0.019l0.016-0.013l0.037-0.019l0.041-0.021l0.031-0.021l0.032-0.012l0.037-0.027l0.045-0.026l0.029-0.019l0.027-0.016
			l0.01-0.02l0.003-0.022l-0.019-0.038l-0.012-0.043l-0.005-0.037v-0.033l0.027-0.021l0.025-0.019l0.051-0.008l0.054,0.006
			l0.032,0.01l0.037,0.011l0.028,0.015l0.029,0.01l0.041,0.009h0.053l0.066-0.007l0.049-0.01l0.023-0.013l0.026-0.028l0.021-0.027
			l0.016-0.029l0.011-0.035l0.009-0.031l0.011-0.029l0.011-0.021l0.005-0.025v-0.021l-0.021-0.031l-0.062-0.011l-0.065-0.013
			l-0.064-0.018l-0.053-0.016l-0.057-0.016l-0.046-0.047v-0.039v-0.045l0.003-0.045V18.07l0.012-0.043l0.019-0.047l0.021-0.031
			l0.017-0.023l0.02-0.025l0.037-0.014l0.021,0.008l0.021,0.021l0.021,0.018l0.029,0.016l0.023,0.002h0.023l0.023-0.006l0.04-0.01
			l0.032-0.021l0.031-0.042l0.014-0.021l0.027-0.027l0.014-0.031l0.01-0.02l0.02-0.006l0.04,0.01l0.014,0.029l0.029,0.018
			l0.021,0.01h0.06l0.059-0.016l0.064-0.027l0.022-0.023l0.043-0.023l0.038-0.026l0.026-0.03l0.022-0.029l0.021-0.01l0.043,0.002
			l0.045,0.026l0.053,0.002l0.046-0.002l0.058,0.007h0.053l0.069-0.007l0.043-0.022l0.037-0.018l0.028-0.02l0.024-0.021l0.021-0.018
			l0.034-0.021l0.041-0.023l0.031-0.019l0.037-0.016l0.017-0.015l0.011-0.021l0.003-0.033l0.006-0.018l0.008-0.022l0.012-0.021
			l0.01-0.016V17.31l-0.008-0.067v-0.051l0.018-0.031v-0.047l-0.006-0.041v-0.035l-0.009-0.045l-0.019-0.037l-0.008-0.043
			l-0.008-0.026l0.006-0.036l0.021-0.031l0.006-0.029l0.02-0.023l0.003-0.035v-0.033l-0.012-0.027l-0.011-0.036l-0.009-0.042
			l-0.01-0.059l0.006-0.06v-0.041l-0.008-0.053v-0.042l0.008-0.039l0.005-0.027v-0.035l0.006-0.024l0.013-0.022l0.012-0.021v-0.04
			l0.003-0.041v-0.035l-0.021-0.058l-0.002-0.049l-0.02-0.059l-0.019-0.036l-0.017-0.038l-0.005-0.064v-0.049l0.008-0.03
			l-0.002-0.036v-0.025l0.016-0.022l0.021-0.022l0.008-0.031v-0.079l-0.005-0.044l0.005-0.057v-0.037l-0.005-0.037l-0.006-0.025
			l-0.002-0.021l-0.02-0.031v-0.02l-0.014-0.039l-0.011-0.039V15.07l0.008-0.049l-0.008-0.082l0.008-0.049l0.017-0.02l0.006-0.018
			l0.002-0.029l0.021-0.021l0.016-0.019l0.006-0.036v-0.04l-0.005-0.042v-0.047v-0.031v-0.027l-0.028-0.039l-0.038-0.055
			l-0.021-0.035L25.506,14.4l-0.032-0.039l-0.039-0.027l-0.032-0.041l-0.021-0.033l-0.042-0.037l-0.013-0.037v-0.049l0.015-0.045
			l0.006-0.035l0.002-0.062l0.004-0.054l0.008-0.053v-0.054l0.02-0.067v-0.035v-0.027l-0.024-0.014l-0.045-0.004h-0.051l-0.052-0.01
			l-0.073-0.013l-0.041-0.009l-0.039-0.014l-0.051-0.013l-0.047-0.019L24.899,13.6l-0.056-0.015l-0.055-0.024l-0.054-0.004
			l-0.059-0.002l-0.037-0.009l-0.06-0.007l-0.072,0.005l-0.049,0.013l-0.042,0.01l-0.037-0.008l-0.054-0.02L24.27,13.53
			l-0.047-0.005L24.16,13.52h-0.037l-0.043-0.002l-0.048,0.008h-0.036l-0.049-0.01L23.894,13.5l-0.045-0.021L23.8,13.48
			l-0.036,0.012l-0.035,0.011l-0.043,0.009h-0.037h-0.043l-0.057-0.009l-0.051-0.017l-0.046-0.03l-0.031-0.026l-0.009-0.047
			l-0.019-0.049l-0.021-0.049l-0.025-0.042l-0.046-0.036l-0.046-0.014h-0.042h-0.034l-0.044,0.002h-0.033h-0.037l-0.03-0.016
			l-0.008-0.031v-0.035l0.003-0.047l0.006-0.037l0.008-0.046v-0.062l0.003-0.043l-0.009-0.073l0.012-0.051l-0.003-0.051l0.005-0.024
			l0.01-0.014l0.025-0.002l0.037-0.015l0.048-0.018l0.053-0.018l0.056-0.035l0.051-0.022l0.029-0.022l0.019-0.022l-0.005-0.042
			v-0.074l-0.006-0.047l0.009-0.065l0.008-0.042l0.006-0.044v-0.04l-0.009-0.058l-0.025-0.041l-0.023-0.027l-0.026-0.018
			l-0.055-0.011L23.188,12l-0.045,0.002h-0.05l-0.048,0.007H22.98h-0.03l-0.031,0.002l-0.023,0.007l-0.029,0.014l-0.008,0.024v0.02
			l0.008,0.036l0.003,0.024l0.01,0.024v0.018l-0.008,0.026l-0.021,0.014l-0.006,0.027l-0.003,0.022l-0.008,0.018l-0.017,0.014
			l-0.045,0.008l-0.051-0.006l-0.046-0.002l-0.066-0.005l-0.045-0.009L22.5,12.276l-0.062-0.002h-0.046l-0.04-0.007l-0.024-0.024
			l-0.01-0.038l-0.003-0.038l0.005-0.042l0.02-0.051l0.017-0.036l0.017-0.029l0.017-0.022l0.026-0.028l0.032-0.016l0.025-0.027
			l0.051-0.035l0.049-0.025l0.026-0.02l0.028-0.018l0.026-0.024l0.02-0.011l0.032-0.026l0.029-0.059l0.011-0.051l0.029-0.036
			l0.025-0.034l0.038-0.044l0.026-0.027l0.024-0.036l0.022-0.027l0.024-0.029l0.019-0.031l0.032-0.033l0.023-0.045l0.028-0.036
			l0.021-0.033l0.028-0.036l0.026-0.044l0.011-0.041l0.03-0.038l0.018-0.036l-0.002-0.036l-0.031-0.018l-0.06-0.013l-0.056-0.013
			l-0.062-0.009h-0.062l-0.077-0.014l-0.062-0.02l-0.049-0.016l-0.061-0.024l-0.007-0.026l-0.041-0.027l-0.038-0.04l-0.04-0.038
			l-0.06-0.029l-0.08-0.009l-0.037-0.004l-0.043,0.006l-0.063,0.007l-0.085-0.007l-0.08,0.007l-0.067-0.002h-0.093l-0.054-0.002
			l-0.049,0.013l-0.046-0.007l-0.061,0.009l-0.064,0.029l-0.056,0.026l-0.061,0.027l-0.053,0.027l-0.069,0.027l-0.051,0.013
			L21.3,10.896l-0.037,0.013l-0.048,0.016l-0.049,0.027l-0.021,0.031l-0.021,0.027l-0.021,0.026l-0.021,0.031l-0.02,0.029
			l-0.031,0.02L20.98,11.12l-0.05,0.005l-0.068,0.009h-0.061h-0.085l-0.072-0.002h-0.08l-0.056-0.011l-0.062-0.007l-0.069-0.018
			l-0.048-0.017l-0.041-0.014l-0.077-0.004h-0.054l-0.048,0.024l-0.009,0.036l-0.013,0.036l-0.021,0.04l-0.026,0.027l-0.056,0.058
			l-0.035,0.032l-0.038,0.053l-0.025,0.045l-0.017,0.044l-0.018,0.047l-0.037,0.04l-0.045,0.022l-0.057,0.022l-0.037,0.016
			l-0.072,0.004l-0.028-0.027l-0.057-0.036l-0.014-0.049l-0.021-0.035l-0.036-0.052l-0.043-0.036l-0.052-0.026l-0.068-0.016
			l-0.057-0.022l-0.062-0.022l-0.048-0.018l-0.06-0.009l-0.072-0.004l-0.07-0.011l-0.067-0.002l-0.063-0.004h-0.049l-0.059-0.002
			h-0.077l-0.06-0.002l-0.057,0.005L18.4,11.23l-0.08,0.002l-0.086-0.007l-0.08-0.004l-0.063-0.013l-0.037-0.009l-0.053-0.047
			l-0.049-0.047l-0.043-0.042l-0.019-0.031l-0.014-0.024l-0.052-0.005h-0.034l-0.014-0.036l0.015-0.024l0.028-0.022l0.02-0.013
			l0.028-0.022l0.026-0.022l0.024-0.04l0.008-0.038l0.006-0.031l0.026-0.021l0.051-0.038l0.019-0.042l0.006-0.029v-0.024
			l-0.014-0.02l-0.034-0.002l-0.019,0.027l-0.02,0.018l-0.026,0.027l-0.04,0.018h-0.062l-0.033-0.034l-0.029-0.018l-0.046-0.007
			l-0.052,0.014l-0.031,0.009h-0.037l-0.053-0.011l-0.043-0.013l-0.044,0.002l-0.036,0.008l-0.021,0.036l-0.021,0.031l-0.04,0.018
			l-0.018,0.041l-0.002,0.036l0.02,0.031l0.016,0.036v0.042l-0.034,0.018l-0.038,0.022l-0.042,0.014l-0.049,0.018l-0.069,0.004
			l-0.054,0.019L17,11.001l-0.035,0.016l-0.063,0.018l-0.057,0.007l-0.098,0.016l-0.044,0.022l-0.079,0.014l-0.064,0.013
			l-0.075,0.018l-0.062,0.009l-0.045,0.011l-0.064,0.006l-0.048,0.002L16.22,11.14l-0.06-0.042l-0.056-0.042l-0.059-0.04
			l-0.086-0.054l-0.057-0.049l-0.069-0.049L15.8,10.837l-0.008-0.005l-0.014-0.01l-0.072-0.058l-0.048-0.054l-0.032-0.033
			l-0.031-0.022h-0.063l-0.083,0.013L15.39,10.67l-0.051,0.009l-0.029,0.005l-0.021-0.018l-0.011-0.029v-0.04v-0.038l0.014-0.044
			l0.017-0.036l0.017-0.044l0.011-0.024l0.014-0.042l0.021-0.054l0.014-0.056l0.011-0.058l0.014-0.069v-0.054v-0.053l0.002-0.058
			l-0.016-0.056L15.36,9.876l-0.023-0.045l-0.029-0.02l-0.005-0.026l0.008-0.049l0.017-0.029l0.005-0.052l0.021-0.049l0.014-0.036
			l0.021-0.035l0.019-0.032l0.026-0.036l0.025-0.027l0.05-0.031l0.028-0.031l0.034-0.027l0.011-0.022l0.007-0.022l-0.024-0.041
			l-0.016-0.04L15.52,9.195L15.519,9.174"/>
	</g>
</g>
<g id="Layer_1">
</g>
</svg>
