<?xml version="1.0" encoding="iso-8859-1"?>
<!-- Generator: Adobe Illustrator 16.0.4, SVG Export Plug-In . SVG Version: 6.00 Build 0)  -->
<!DOCTYPE svg PUBLIC "-//W3C//DTD SVG 1.1//EN" "http://www.w3.org/Graphics/SVG/1.1/DTD/svg11.dtd">
<svg version="1.1" xmlns="http://www.w3.org/2000/svg" xmlns:xlink="http://www.w3.org/1999/xlink" x="0px" y="0px"
	 width="42.909px" height="41.154px" viewBox="0 0 42.909 41.154" style="enable-background:new 0 0 42.909 41.154;"
	 xml:space="preserve">
<g id="Layer_62">
	<g id="Layer_67">
		<path id="DISTRICT_x3D_Rawalpindi_x2C_PROVINCE_x3D_Punjab" style="fill:#CCCCCC;stroke:#FFFFFF;stroke-width:1.07;" d="
			M0.651,34.994L0.651,34.994l-0.01,0.193l0.055,0.074l0.266-0.093l0.35-0.2l0.17-0.184l0.071-0.163l0.141-0.171l0.079-0.033
			l0.176,0.046l0.242,0.168l0.226,0.03l0.134-0.059l0.216-0.138l0.114,0.038l0.203,0.102l0.254-0.017l0.246-0.129l0.229-0.033
			L3.97,34.54l0.219,0.188l0.159,0.151l0.029,0.122l0.033,0.167l0.104,0.03l0.289,0.029l0.493,0.103l0.348,0.092l0.289-0.041
			l0.155,0.017l0.163,0.131l0.243,0.156l0.468,0.256l0.406,0.279l0.272,0.131l0.219,0.062l0.13,0.188l0.104,0.072l0.15-0.004
			l0.228,0.025l0.149,0.043l0.095-0.024l0.012-0.255l0.04-0.042l0.119-0.038l0.08,0.03l0.184,0.114l0.12,0.037l0.209,0.019
			l0.148,0.063l0.109-0.013l0.119-0.069l0.15-0.088l0.186-0.058l0.199-0.017l0.215-0.094l0.233,0.143l0.197,0.084l0.104,0.005
			l0.2-0.054l0.14-0.065l0.25-0.065l0.489-0.07l0.299-0.026l0.255,0.015l0.144,0.154l0.106,0.252l0.029,0.172l0.038,0.168
			l0.021,0.137l0.01,0.138l-0.037,0.192l0.099,0.209l0.118,0.164l0.104,0.104l0.175,0.08l0.093,0.116l0.105,0.248l0.114,0.125
			l0.119,0.052l0.095-0.024l0.136-0.041l0.214-0.027l0.113,0.055l0.13,0.084l0.163,0.094L15,38.746l0.185-0.096l0.186-0.049
			l0.06,0.047l0.229,0.135l0.184,0.084l0.079,0.014l0.118-0.027l0.094-0.062l0.087-0.029l0.08-0.002l0.074,0.02l0.066,0.033
			l0.062,0.041l0.059,0.041l0.053,0.041l0.048,0.035l0.041,0.03l0.035,0.028l0.027,0.027l0.021,0.024l0.013,0.022l0.003,0.021
			l-0.006,0.021l-0.014,0.021l-0.021,0.021l-0.022,0.019l-0.026,0.019l-0.026,0.017l-0.024,0.015L16.64,39.27l-0.019,0.012
			l-0.015,0.01l-0.011,0.008l-0.007,0.008l-0.004,0.006l-0.003,0.006v0.004l0.002,0.006l0.003,0.005l0.003,0.005l0.006,0.006
			l0.006,0.004l0.009,0.006l0.01,0.004l0.012,0.006l0.014,0.005l0.017,0.005l0.018,0.005l0.021,0.007l0.021,0.006l0.021,0.006
			l0.021,0.006l0.021,0.009l0.021,0.009l0.021,0.01l0.021,0.012l0.02,0.012l0.019,0.012l0.018,0.014l0.018,0.013l0.017,0.014
			l0.017,0.013l0.015,0.014l0.017,0.013l0.014,0.013l0.013,0.014l0.013,0.014l0.011,0.014l0.011,0.016l0.009,0.016l0.008,0.016
			l0.006,0.018l0.006,0.018l0.005,0.02l0.003,0.02l0.003,0.021l0.002,0.021l0.002,0.024l0.001,0.026v0.026l0.001,0.028l-0.001,0.029
			l-0.001,0.029l-0.002,0.03l-0.004,0.03l-0.003,0.029l-0.005,0.03l-0.008,0.029l-0.007,0.028l-0.007,0.026l-0.007,0.026
			l-0.008,0.023l-0.009,0.023l-0.006,0.021l-0.007,0.02l-0.007,0.018l-0.004,0.016l-0.004,0.015l-0.003,0.015l-0.001,0.016
			l-0.001,0.015l0.001,0.017L17,40.371l0.005,0.02l0.006,0.019l0.006,0.021l0.008,0.019l0.008,0.019l0.009,0.018L17.05,40.5
			l0.008,0.016l0.008,0.012l0.01,0.011l0.012,0.01l0.013,0.009l0.016,0.008l0.019,0.009l0.021,0.008l0.026,0.008l0.029,0.009
			l0.032,0.008l0.036,0.006l0.04,0.005l0.043,0.003h0.045l0.048-0.001l0.051-0.004l0.052-0.007l0.054-0.01l0.058-0.014l0.057-0.016
			l0.06-0.018l0.061-0.021l0.061-0.021l0.062-0.025l0.062-0.025l0.062-0.027l0.06-0.027l0.059-0.028l0.055-0.028l0.052-0.027
			l0.046-0.024l0.041-0.022l0.037-0.021l0.033-0.02l0.029-0.02l0.027-0.018l0.027-0.016l0.026-0.014l0.026-0.014l0.027-0.012
			l0.029-0.013l0.028-0.012l0.03-0.013l0.029-0.012l0.028-0.012l0.028-0.014l0.028-0.014l0.024-0.017l0.024-0.017l0.023-0.019
			l0.021-0.019l0.021-0.021l0.02-0.021l0.021-0.021l0.017-0.021l0.017-0.021l0.018-0.021l0.015-0.023l0.017-0.023l0.015-0.023
			l0.015-0.023l0.017-0.025l0.016-0.024l0.017-0.024l0.017-0.025l0.017-0.025l0.018-0.025l0.018-0.024l0.018-0.024l0.018-0.024
			l0.019-0.024l0.017-0.022l0.018-0.022l0.017-0.021l0.017-0.021l0.017-0.02l0.016-0.02l0.015-0.018l0.016-0.016l0.014-0.016
			l0.014-0.014l0.014-0.014l0.012-0.012l0.012-0.012l0.012-0.012l0.01-0.012l0.01-0.013l0.008-0.013l0.008-0.014l0.009-0.015
			l0.006-0.015l0.006-0.014l0.005-0.016l0.004-0.014l0.003-0.016l0.003-0.014l0.002-0.014l0.001-0.014l0.001-0.016v-0.014
			l-0.001-0.014l-0.001-0.016l-0.002-0.016l-0.003-0.015l-0.002-0.015l-0.002-0.016l-0.001-0.014v-0.012l0.002-0.012l0.003-0.008
			l0.008-0.008l0.011-0.004l0.012-0.002h0.015l0.018,0.001l0.018,0.002l0.021,0.002l0.02,0.002l0.021,0.003h0.021h0.021h0.02
			l0.021-0.002l0.021-0.001l0.021-0.003l0.021-0.002l0.022-0.003l0.022-0.003l0.024-0.003l0.024-0.005l0.027-0.002l0.027-0.004
			l0.028-0.004l0.03-0.004l0.032-0.004l0.033-0.005l0.032-0.004l0.034-0.003l0.032-0.002l0.03-0.001l0.026,0.001l0.023,0.003
			l0.019,0.006l0.015,0.009l0.01,0.012l0.004,0.017l0.002,0.019l-0.001,0.022l-0.002,0.026l-0.003,0.031l-0.004,0.033l-0.003,0.038
			l-0.002,0.042l-0.002,0.043l-0.001,0.045v0.045l-0.002,0.045v0.045v0.041v0.039v0.037v0.033l-0.001,0.03l-0.024,0.03v0.025
			l-0.002,0.023l-0.001,0.021l-0.001,0.02l-0.002,0.019l-0.002,0.017l-0.002,0.015v0.013v0.012l0.002,0.012l0.003,0.01l0.004,0.009
			l0.007,0.009l0.008,0.008l0.01,0.01l0.012,0.01l0.013,0.012l0.016,0.012l0.018,0.014l0.019,0.016l0.021,0.018l0.021,0.021
			l0.021,0.02l0.021,0.021l0.021,0.022l0.021,0.022l0.021,0.021l0.02,0.021l0.018,0.021l0.017,0.021l0.016,0.019l0.017,0.019
			l0.015,0.018l0.017,0.017l0.016,0.015l0.017,0.014l0.019,0.012l0.017,0.01l0.02,0.01l0.018,0.008l0.018,0.006l0.017,0.005
			l0.016,0.004l0.017,0.004l0.014,0.002l0.014,0.002l0.015,0.001h0.014h0.013h0.014l0.014-0.001l0.013-0.001l0.016-0.002
			l0.014-0.001l0.015-0.001l0.015-0.002l0.015-0.001l0.014-0.002l0.016-0.001l0.014-0.001h0.015l0.014-0.001l0.014-0.001
			l0.013-0.001l0.013-0.002h0.012l0.012-0.002l0.012-0.004l0.011-0.002l0.01-0.004l0.01-0.004l0.009-0.006l0.01-0.005l0.009-0.006
			l0.008-0.005l0.009-0.008l0.008-0.006l0.009-0.008l0.007-0.008l0.007-0.009l0.008-0.011l0.007-0.012l0.008-0.012l0.007-0.014
			l0.007-0.016l0.006-0.017l0.008-0.019l0.006-0.021l0.008-0.021l0.009-0.022l0.008-0.024l0.008-0.027l0.01-0.028l0.009-0.028
			l0.01-0.029l0.008-0.029l0.008-0.027l0.007-0.027l0.007-0.025l0.005-0.023l0.004-0.02l0.003-0.02l0.002-0.017l0.001-0.016
			l0.002-0.015l0.001-0.015l0.001-0.015l0.002-0.014l0.002-0.014l0.002-0.014l0.004-0.014l0.002-0.015l0.003-0.015l0.003-0.014
			l0.003-0.014l0.004-0.014l0.003-0.014l0.003-0.015l0.004-0.013l0.003-0.012l0.003-0.012l0.004-0.01l0.004-0.01l0.004-0.008
			l0.004-0.006l0.005-0.007l0.005-0.006l0.005-0.004l0.006-0.005l0.006-0.004l0.006-0.004l0.008-0.004l0.008-0.004l0.009-0.004
			l0.007-0.004l0.009-0.004l0.008-0.003l0.01-0.002l0.009-0.002h0.008h0.008l0.007,0.001l0.008,0.002l0.008,0.002l0.007,0.003
			l0.007,0.003l0.006,0.006l0.006,0.004l0.005,0.006l0.005,0.007l0.005,0.007l0.004,0.007l0.004,0.009l0.002,0.008l0.002,0.008
			l0.001,0.008l0.001,0.008v0.008V39.4v0.008l0.001,0.009l0.001,0.007l0.002,0.007l0.003,0.007l0.003,0.004l0.005,0.006l0.005,0.004
			l0.008,0.004l0.006,0.004l0.009,0.003l0.008,0.003l0.01,0.003l0.011,0.003l0.01,0.004l0.012,0.002l0.011,0.002l0.013,0.002h0.012
			l0.012,0.002h0.013l0.012,0.002h0.012h0.013h0.011l0.012-0.002l0.01-0.002l0.011-0.002l0.01-0.004l0.008-0.004l0.009-0.005
			l0.008-0.006l0.008-0.007l0.006-0.008l0.005-0.008l0.004-0.009l0.004-0.009l0.003-0.01l0.006-0.01l0.009-0.012l0.012-0.009
			l0.018-0.009l0.022-0.008l0.03-0.006l0.038-0.004l0.048-0.004l0.054-0.002l0.06-0.001h0.062l0.067-0.001l0.069-0.001l0.071-0.001
			l0.072-0.002l0.071-0.003l0.073-0.004l0.071-0.004l0.071-0.007l0.07-0.006l0.07-0.006l0.068-0.009l0.067-0.009l0.065-0.01
			l0.062-0.01l0.061-0.012l0.055-0.01l0.051-0.01l0.044-0.01l0.039-0.008l0.031-0.007l0.026-0.006l0.021-0.004l0.018-0.004
			l0.015-0.003h0.011h0.01h0.011l0.01,0.002l0.01,0.002l0.01,0.003l0.009,0.004l0.011,0.004l0.009,0.004l0.008,0.005l0.008,0.004
			l0.008,0.004l0.007,0.004l0.006,0.004l0.006,0.002l0.006,0.003l0.007,0.001l0.007,0.001h0.008l0.008-0.001l0.009-0.002
			l0.009-0.002l0.01-0.004l0.012-0.004l0.012-0.004l0.012-0.002l0.015-0.004l0.014-0.004l0.014-0.003l0.017-0.003l0.015-0.002
			l0.015-0.001l0.017-0.001l0.014,0.001l0.015,0.001l0.015,0.002l0.014,0.003l0.013,0.005l0.015,0.004l0.012,0.006l0.014,0.006
			l0.014,0.007l0.013,0.006l0.014,0.006l0.015,0.006l0.014,0.007l0.013,0.006l0.013,0.006l0.012,0.008l0.011,0.007l0.009,0.007
			l0.007,0.008l0.006,0.008l0.007,0.008l0.004,0.008l0.003,0.007l0.003,0.007l0.004,0.006l0.003,0.006l0.004,0.004l0.005,0.004
			l0.004,0.004l0.006,0.002l0.006,0.001h0.006h0.005l0.006-0.001l0.005-0.002l0.005-0.002l0.006-0.004l0.007-0.004l0.006-0.004
			l0.007-0.006l0.008-0.006l0.009-0.008l0.011-0.009l0.013-0.009l0.013-0.01l0.013-0.012l0.016-0.012l0.014-0.012l0.016-0.013
			l0.017-0.012l0.016-0.013l0.018-0.01l0.017-0.01l0.02-0.005l0.021-0.001l0.021,0.004l0.023,0.012l0.027,0.021l0.028,0.028
			l0.031,0.035l0.033,0.041l0.033,0.043l0.032,0.045l0.029,0.047l0.029,0.043l0.026,0.039l0.021,0.035l0.021,0.029l0.017,0.023
			l0.016,0.02l0.017,0.016l0.015,0.01l0.019,0.006l0.018,0.002l0.021-0.002l0.021-0.005l0.025-0.007l0.028-0.01l0.031-0.012
			l0.033-0.012l0.036-0.014l0.039-0.012l0.041-0.012l0.043-0.012l0.045-0.01l0.045-0.011l0.046-0.01l0.045-0.009l0.043-0.008
			l0.042-0.008l0.04-0.008l0.037-0.006l0.035-0.005l0.033-0.005l0.031-0.004l0.03-0.002h0.028h0.025l0.026,0.002l0.025,0.004
			l0.023,0.004l0.025,0.004l0.022,0.003l0.024,0.004l0.025,0.002l0.024,0.001l0.026-0.001l0.026-0.002l0.027-0.004l0.029-0.005
			l0.028-0.005l0.03-0.007l0.03-0.006l0.031-0.006l0.03-0.006l0.031-0.006l0.031-0.006l0.032-0.005l0.029-0.005l0.031-0.006
			l0.03-0.006l0.029-0.006l0.027-0.006l0.027-0.006l0.027-0.007l0.025-0.007l0.026-0.008l0.024-0.006l0.025-0.008l0.025-0.006
			l0.023-0.007l0.025-0.007l0.024-0.006l0.025-0.008l0.025-0.007l0.023-0.008l0.025-0.009l0.026-0.01l0.023-0.01l0.025-0.012
			l0.022-0.012l0.023-0.012l0.021-0.013l0.021-0.013l0.019-0.014l0.017-0.012l0.013-0.013l0.012-0.013l0.009-0.012l0.01-0.011
			l0.008-0.011l0.01-0.01l0.01-0.01l0.013-0.008l0.015-0.007l0.018-0.007l0.02-0.006l0.021-0.006l0.021-0.002L27.3,39.15h0.024
			l0.025-0.002l0.024,0.002h0.025l0.026,0.002l0.025,0.002l0.026,0.004l0.027,0.002l0.028,0.003l0.028,0.002h0.029h0.028h0.03
			l0.031-0.001l0.029-0.002l0.031-0.004l0.031-0.002l0.032-0.004l0.032-0.004l0.031-0.004l0.031-0.007l0.032-0.005l0.032-0.005
			l0.03-0.006l0.031-0.005l0.031-0.006l0.03-0.004l0.029-0.004l0.029-0.004l0.029-0.005l0.029-0.004l0.028-0.004l0.029-0.005
			l0.028-0.004l0.029-0.006l0.029-0.006l0.03-0.004l0.029-0.007l0.029-0.006l0.031-0.006l0.03-0.007l0.031-0.006l0.032-0.006
			l0.032-0.008l0.033-0.007l0.03-0.007l0.031-0.007l0.031-0.007l0.028-0.008l0.028-0.006l0.027-0.008l0.023-0.006l0.025-0.006
			l0.022-0.006l0.022-0.006l0.022-0.006l0.021-0.004l0.022-0.005l0.022-0.004l0.023-0.004l0.023-0.003l0.024-0.003l0.022-0.002
			l0.024-0.003h0.024l0.022-0.002h0.024l0.021-0.002h0.022h0.021l0.021,0.002h0.019l0.018,0.002l0.017,0.002l0.015,0.003
			l0.014,0.003l0.011,0.004l0.011,0.004l0.01,0.004l0.011,0.004l0.01,0.004l0.011,0.006l0.012,0.004l0.014,0.004l0.014,0.003
			l0.014,0.004l0.017,0.003l0.018,0.002l0.02,0.002l0.019,0.001h0.021h0.021l0.022-0.001l0.021-0.002l0.023-0.002l0.022-0.003
			l0.023-0.003l0.021-0.004l0.022-0.004l0.021-0.004l0.021-0.004l0.021-0.004l0.021-0.006l0.021-0.006l0.02-0.006l0.02-0.008
			l0.02-0.008l0.02-0.008l0.019-0.01l0.02-0.01l0.017-0.012l0.018-0.012l0.015-0.014l0.014-0.016l0.013-0.016l0.011-0.017
			l0.009-0.019l0.009-0.017l0.008-0.017l0.006-0.017l0.007-0.015l0.005-0.014l0.005-0.01l0.006-0.008l0.006-0.006l0.007-0.004
			l0.007-0.003l0.009-0.001l0.01-0.002h0.012h0.015h0.016l0.017,0.002l0.019,0.002l0.021,0.002l0.02,0.003l0.021,0.005l0.021,0.005
			l0.021,0.007l0.021,0.008l0.021,0.01l0.021,0.012l0.021,0.014l0.021,0.016l0.02,0.019l0.021,0.021l0.021,0.023l0.021,0.023
			l0.021,0.025l0.021,0.024l0.021,0.024l0.019,0.022l0.019,0.021l0.018,0.018l0.016,0.014l0.016,0.012l0.013,0.007l0.011,0.004
			l0.012,0.003h0.011l0.009-0.001l0.009-0.002L30.715,39l0.008-0.004l0.007-0.004l0.007-0.004l0.005-0.006l0.005-0.006l0.004-0.006
			l0.003-0.007l0.004-0.009l0.002-0.008l0.002-0.008l0.001-0.008l0.003-0.007v-0.006l0.003-0.005l0.003-0.004l0.004-0.002h0.004
			l0.005,0.002l0.006,0.005l0.008,0.005l0.009,0.006l0.009,0.007l0.011,0.009l0.012,0.01l0.014,0.012l0.013,0.011l0.014,0.011
			l0.016,0.012l0.014,0.011l0.014,0.011l0.013,0.008l0.014,0.008l0.011,0.008l0.011,0.006l0.012,0.005l0.01,0.004l0.01,0.002
			l0.011,0.001l0.011,0.002h0.011h0.011l0.011-0.002l0.013-0.001l0.013-0.002l0.013-0.002l0.014-0.003l0.013-0.003l0.014-0.004
			l0.015-0.004l0.014-0.005l0.014-0.004l0.014-0.006l0.014-0.004l0.013-0.005l0.012-0.004l0.011-0.004l0.01-0.004l0.01-0.004
			l0.009-0.005l0.009-0.002l0.008-0.004l0.008-0.002l0.008-0.004l0.007-0.002l0.008-0.002l0.008-0.002l0.006-0.003l0.007-0.004
			l0.004-0.004l0.005-0.006l0.002-0.007l0.003-0.01v-0.01v-0.012l-0.002-0.014l-0.001-0.012l-0.001-0.015l-0.002-0.015l-0.002-0.014
			l-0.001-0.015l-0.001-0.013v-0.014l0.002-0.012l0.002-0.012l0.003-0.012l0.005-0.01l0.008-0.012l0.009-0.012l0.01-0.01l0.01-0.01
			l0.013-0.009l0.01-0.009l0.01-0.01l0.009-0.008l0.009-0.01l0.005-0.008l0.002-0.01l0.002-0.008v-0.01l-0.001-0.008l-0.002-0.008
			l-0.002-0.008l-0.002-0.008l-0.002-0.008l-0.002-0.009l-0.002-0.008l-0.001-0.007v-0.008l0.001-0.008l0.001-0.006l0.003-0.008
			l0.004-0.006l0.005-0.007l0.006-0.007l0.006-0.008l0.007-0.006l0.007-0.01l0.009-0.009l0.008-0.011l0.009-0.01l0.009-0.013
			l0.008-0.012l0.009-0.015l0.01-0.013l0.009-0.013l0.009-0.014l0.008-0.013l0.009-0.012l0.009-0.011l0.009-0.012l0.008-0.011
			l0.008-0.011l0.01-0.012l0.011-0.01l0.01-0.013l0.011-0.012l0.011-0.013l0.013-0.014l0.013-0.014l0.011-0.014l0.013-0.016
			l0.012-0.016l0.01-0.016l0.01-0.017l0.009-0.017l0.008-0.018l0.008-0.018l0.007-0.016l0.007-0.016l0.006-0.016l0.008-0.012
			l0.008-0.013l0.007-0.011l0.008-0.01l0.01-0.008l0.012-0.01l0.013-0.009l0.014-0.011l0.018-0.01l0.019-0.011l0.021-0.012
			l0.022-0.013l0.023-0.015l0.023-0.015L32,37.902l0.024-0.017l0.021-0.017l0.021-0.018l0.021-0.017l0.021-0.019l0.019-0.018
			l0.018-0.018l0.019-0.019l0.018-0.019l0.018-0.018l0.018-0.017l0.018-0.017l0.018-0.018l0.016-0.016l0.017-0.016l0.016-0.015
			l0.014-0.015l0.013-0.012l0.01-0.013l0.008-0.013l0.007-0.01l0.003-0.012v-0.012l-0.004-0.012l-0.008-0.014l-0.012-0.016
			l-0.017-0.018l-0.021-0.019l-0.023-0.021l-0.026-0.021l-0.029-0.022l-0.032-0.025l-0.033-0.027l-0.033-0.029l-0.034-0.03
			l-0.035-0.032l-0.035-0.033l-0.033-0.033l-0.032-0.033l-0.03-0.031l-0.029-0.03l-0.025-0.028l-0.023-0.025l-0.021-0.023
			l-0.02-0.021l-0.017-0.019l-0.017-0.018l-0.014-0.016l-0.013-0.014l-0.014-0.011l-0.013-0.011l-0.013-0.008L31.685,36.9
			l-0.011-0.008l-0.01-0.006l-0.01-0.007l-0.009-0.009l-0.008-0.008l-0.006-0.008l-0.005-0.011l-0.004-0.012l-0.002-0.011
			l-0.003-0.014l-0.001-0.013v-0.013v-0.012v-0.014v-0.012l0.001-0.012l0.001-0.012v-0.011l0.002-0.011v-0.012v-0.01v-0.01v-0.01
			l-0.002-0.01l-0.001-0.008l-0.003-0.01l-0.002-0.009l-0.005-0.009l-0.006-0.01l-0.005-0.008l-0.007-0.009l-0.008-0.011
			l-0.008-0.01l-0.011-0.012l-0.011-0.012l-0.012-0.014l-0.013-0.014L31.515,36.5l-0.014-0.018l-0.016-0.018l-0.017-0.018
			l-0.016-0.018l-0.017-0.015l-0.015-0.013l-0.015-0.01l-0.015-0.006l-0.014-0.002h-0.012l-0.011,0.002l-0.012,0.004l-0.011,0.006
			l-0.011,0.006l-0.009,0.006l-0.011,0.006l-0.01,0.006l-0.009,0.005l-0.01,0.004l-0.009,0.003l-0.009,0.002l-0.009,0.002h-0.008
			l-0.008-0.002l-0.008-0.002l-0.01-0.004l-0.007-0.005l-0.007-0.007l-0.007-0.01l-0.007-0.01l-0.007-0.011l-0.005-0.013
			l-0.006-0.014l-0.005-0.016l-0.005-0.016l-0.003-0.014L31.154,36.3l-0.003-0.015l-0.002-0.014l-0.002-0.014l-0.002-0.012
			l-0.002-0.012l-0.002-0.011l-0.001-0.01l-0.002-0.011l-0.003-0.012l-0.003-0.012l-0.004-0.012l-0.005-0.014l-0.005-0.012
			l-0.006-0.015l-0.006-0.013l-0.007-0.014l-0.004-0.013l-0.006-0.013l-0.004-0.01l-0.003-0.011l-0.003-0.01l-0.002-0.009
			l-0.002-0.01l-0.002-0.008l-0.002-0.008l-0.002-0.009l-0.001-0.009l-0.001-0.01l-0.001-0.01v-0.011v-0.013l0.001-0.012
			l0.002-0.015l0.004-0.017l0.004-0.018l0.006-0.02l0.006-0.02l0.008-0.02l0.009-0.02l0.009-0.02l0.009-0.018l0.009-0.018
			l0.009-0.016l0.011-0.012l0.01-0.011l0.01-0.009l0.011-0.008l0.013-0.008l0.013-0.004l0.015-0.006l0.017-0.003l0.017-0.003
			l0.018-0.003l0.017-0.003l0.017-0.003l0.016-0.003l0.014-0.004l0.011-0.004l0.009-0.006l0.006-0.006l0.003-0.007l0.002-0.009
			l-0.001-0.01l-0.002-0.012l-0.004-0.013l-0.005-0.014l-0.008-0.017l-0.007-0.018l-0.009-0.02l-0.007-0.02l-0.009-0.021
			l-0.009-0.021L31.3,35.445l-0.007-0.025l-0.006-0.026l-0.005-0.026l-0.003-0.026l-0.003-0.026v-0.027l0.002-0.025l0.004-0.023
			l0.007-0.023l0.008-0.021l0.013-0.019l0.013-0.017l0.015-0.017l0.017-0.015l0.017-0.014l0.018-0.012l0.018-0.012l0.017-0.012
			l0.019-0.01l0.016-0.009l0.018-0.008l0.015-0.007l0.015-0.006l0.015-0.004l0.014-0.002h0.012l0.013,0.002l0.011,0.004l0.011,0.006
			l0.01,0.009l0.012,0.011l0.011,0.014l0.01,0.018l0.012,0.02l0.013,0.022l0.013,0.024l0.014,0.025l0.015,0.024l0.015,0.026
			l0.017,0.025l0.018,0.025l0.019,0.023l0.02,0.021l0.02,0.021l0.021,0.018l0.02,0.018l0.021,0.016l0.019,0.015l0.019,0.012
			l0.017,0.011l0.016,0.008l0.017,0.006l0.016,0.005l0.018,0.003l0.019,0.003l0.021,0.002l0.021,0.001l0.024,0.001l0.026,0.001
			h0.029h0.03h0.029l0.03-0.001l0.029-0.001l0.028-0.003l0.024-0.003l0.023-0.004l0.021-0.006l0.021-0.006l0.018-0.008l0.017-0.009
			l0.015-0.009l0.013-0.012l0.013-0.012l0.01-0.015l0.009-0.015l0.009-0.016l0.008-0.015l0.011-0.017l0.008-0.015l0.01-0.014
			l0.01-0.015l0.013-0.014l0.012-0.012l0.012-0.012l0.014-0.012l0.013-0.012l0.013-0.011l0.014-0.011l0.013-0.01l0.013-0.01
			l0.015-0.009l0.014-0.009l0.015-0.008l0.018-0.008l0.019-0.008l0.021-0.007l0.021-0.007l0.024-0.006l0.025-0.006l0.026-0.006
			l0.027-0.004l0.024-0.006l0.025-0.004l0.023-0.004l0.021-0.004l0.021-0.004l0.02-0.006l0.018-0.004l0.018-0.006l0.014-0.007
			l0.015-0.008l0.015-0.009l0.014-0.01l0.013-0.012l0.013-0.014l0.011-0.016l0.01-0.014l0.009-0.017l0.007-0.017l0.007-0.017
			l0.004-0.017l0.002-0.018l0.001-0.017l-0.001-0.017l-0.001-0.018l-0.003-0.018l-0.002-0.016l-0.003-0.016l-0.003-0.016
			l-0.004-0.016l-0.002-0.014l-0.002-0.014l-0.001-0.014l-0.001-0.014l0.001-0.012l0.002-0.013l0.003-0.012l0.005-0.011l0.004-0.012
			l0.005-0.011l0.005-0.011l0.004-0.012l0.004-0.01l0.002-0.013l0.001-0.013l-0.001-0.012l-0.078-0.006l-0.001-0.014l-0.003-0.012
			l-0.002-0.014l-0.003-0.012l-0.002-0.011v-0.011l-0.001-0.012v-0.01l0.001-0.012v-0.012v-0.014l0.002-0.015v-0.017v-0.02
			l-0.001-0.021L33.06,34.34l-0.001-0.021l-0.001-0.024l-0.002-0.022l-0.003-0.022l-0.002-0.021l-0.003-0.021l-0.003-0.019
			l-0.003-0.017l-0.003-0.017l-0.002-0.014l-0.002-0.015l-0.001-0.013l0.002-0.012l0.002-0.012l0.004-0.012l0.005-0.012l0.006-0.01
			l0.007-0.012l0.011-0.011l0.009-0.011l0.01-0.012l0.011-0.013l0.013-0.015l0.011-0.014l0.011-0.013l0.011-0.015l0.011-0.014
			l0.008-0.013l0.006-0.013l0.004-0.012l0.003-0.013l0.002-0.013v-0.014l0.001-0.015v-0.017l-0.002-0.02l0.002-0.023l0.003-0.024
			l0.005-0.026l0.004-0.029l0.006-0.03l0.006-0.03l0.005-0.029l0.004-0.027l0.004-0.023l0.002-0.021l0.002-0.018l0.001-0.016
			l0.001-0.012l0.002-0.01l0.004-0.006l0.005-0.006l0.009-0.005l0.01-0.003l0.013-0.002l0.016-0.002l0.018-0.001l0.021-0.001
			l0.022-0.003l0.025-0.004l0.026-0.005l0.029-0.008l0.033-0.008l0.033-0.011l0.034-0.011l0.036-0.012l0.036-0.014l0.037-0.012
			l0.035-0.014l0.035-0.012l0.034-0.012l0.033-0.012l0.033-0.012l0.032-0.012l0.031-0.011l0.029-0.011l0.029-0.012l0.029-0.011
			l0.026-0.011l0.026-0.012l0.024-0.01l0.022-0.009l0.021-0.009l0.02-0.008l0.018-0.006l0.016-0.004l0.014-0.004l0.011-0.002h0.011
			h0.009h0.007l0.007,0.002l0.005,0.004l0.007,0.006l0.004,0.006l0.004,0.007l0.004,0.007l0.002,0.008l0.004,0.008l0.002,0.006
			l0.002,0.009l0.003,0.007l0.001,0.007l0.002,0.007l0.003,0.006l0.003,0.006l0.003,0.006l0.003,0.005l0.003,0.005l0.004,0.004
			l0.005,0.003l0.005,0.003l0.005,0.002l0.007,0.002l0.005,0.002h0.008h0.007l0.007-0.002h0.006l0.007-0.004l0.008-0.004
			l0.006-0.004l0.006-0.006l0.005-0.008l0.005-0.008l0.003-0.008l0.003-0.012l0.002-0.011l0.002-0.013l0.002-0.012l0.001-0.012
			l0.002-0.014l0.002-0.012l0.003-0.012l0.003-0.012l0.004-0.012l0.004-0.012l0.005-0.011l0.004-0.011l0.005-0.012l0.006-0.01
			l0.006-0.011l0.007-0.011l0.006-0.01l0.006-0.01l0.009-0.012l0.009-0.012l0.011-0.01l0.012-0.013l0.013-0.012l0.014-0.015
			l0.017-0.013l0.017-0.013l0.018-0.014l0.019-0.012l0.021-0.012l0.02-0.012l0.021-0.01l0.021-0.008l0.021-0.008l0.022-0.007
			l0.023-0.006l0.022-0.005l0.025-0.004l0.026-0.002l0.026-0.002l0.028-0.002h0.029l0.028,0.002l0.029,0.002l0.031,0.002
			l0.029,0.004l0.03,0.005l0.03,0.005l0.03,0.007l0.027,0.007l0.028,0.008l0.026,0.01l0.024,0.01l0.023,0.011l0.021,0.011
			l0.02,0.014l0.017,0.013l0.016,0.013l0.013,0.014l0.011,0.016l0.009,0.014l0.009,0.015l0.006,0.014l0.006,0.015l0.004,0.013
			l0.003,0.012l0.001,0.013v0.012l-0.001,0.012l-0.003,0.01l-0.004,0.01l-0.006,0.01L35.3,33.156l-0.011,0.008l-0.012,0.008
			l-0.013,0.008l-0.016,0.01l-0.017,0.01l-0.02,0.01l-0.021,0.012l-0.021,0.014l-0.021,0.014l-0.021,0.016l-0.021,0.016l-0.02,0.017
			l-0.017,0.017l-0.013,0.019l-0.011,0.019l-0.005,0.019l-0.003,0.019l0.001,0.02l0.003,0.02l0.006,0.018l0.01,0.02l0.01,0.018
			l0.012,0.019l0.014,0.019l0.016,0.017l0.016,0.017l0.018,0.016l0.019,0.016l0.02,0.014l0.021,0.014l0.021,0.014l0.021,0.012
			l0.021,0.012l0.02,0.012l0.019,0.01l0.016,0.01l0.014,0.008l0.011,0.01l0.01,0.008l0.005,0.008l0.003,0.008l0.002,0.008v0.006
			L35.36,33.74l-0.001,0.008l-0.001,0.008l-0.001,0.01v0.01l-0.001,0.01l-0.002,0.01l-0.003,0.01l-0.005,0.01l-0.008,0.011
			l-0.01,0.009l-0.013,0.01l-0.015,0.008l-0.019,0.008l-0.019,0.008l-0.02,0.008l-0.02,0.007l-0.02,0.007l-0.017,0.008l-0.017,0.006
			l-0.014,0.007l-0.013,0.007l-0.011,0.007l-0.011,0.009l-0.008,0.008L35.11,33.95l-0.007,0.01l-0.006,0.013l-0.005,0.012
			l-0.004,0.014l-0.003,0.014l-0.001,0.014v0.014l0.001,0.014l0.005,0.012l0.005,0.012l0.007,0.011l0.009,0.009l0.012,0.008
			l0.012,0.008l0.014,0.007l0.015,0.005l0.014,0.001l0.018,0.004l0.02,0.003l0.019,0.003l0.021,0.003l0.02,0.002l0.02,0.002
			l0.019,0.002l0.018,0.002l0.017,0.002l0.014,0.002l0.015,0.004l0.013,0.002l0.013,0.002l0.014,0.002l0.014,0.001h0.014
			l0.016-0.001l0.015-0.002l0.016-0.004l0.018-0.006l0.017-0.008l0.018-0.011l0.016-0.013l0.017-0.016l0.017-0.02l0.015-0.021
			l0.016-0.021l0.015-0.023l0.016-0.025l0.017-0.022l0.015-0.022l0.018-0.021l0.017-0.017l0.018-0.016l0.02-0.012l0.02-0.011
			l0.021-0.009l0.021-0.006l0.022-0.006l0.021-0.004l0.023-0.005l0.024-0.003l0.023-0.002l0.025-0.002l0.025-0.002h0.025
			l0.025-0.001l0.026-0.001h0.025h0.024h0.026h0.026l0.024,0.001l0.027,0.001l0.027,0.003l0.026,0.003l0.028,0.004l0.029,0.006
			l0.029,0.006l0.029,0.006l0.029,0.006l0.028,0.008l0.029,0.007l0.028,0.007l0.026,0.008l0.027,0.006l0.027,0.006l0.027,0.005
			l0.027,0.005l0.029,0.003l0.029,0.003l0.032,0.001l0.033,0.001l0.035-0.001l0.035-0.002l0.036-0.004l0.036-0.004l0.036-0.006
			l0.035-0.007l0.035-0.008l0.032-0.008l0.03-0.009l0.03-0.009l0.029-0.01l0.028-0.01l0.029-0.011l0.029-0.01l0.029-0.011
			l0.028-0.01l0.031-0.009l0.03-0.009l0.029-0.01l0.031-0.008l0.03-0.008l0.028-0.007l0.027-0.006l0.026-0.006l0.026-0.005
			l0.022-0.006l0.022-0.006l0.021-0.006l0.02-0.007l0.017-0.008l0.015-0.009l0.013-0.012l0.011-0.012l0.009-0.015l0.008-0.017
			l0.005-0.02l0.006-0.021l0.004-0.023l0.002-0.027l0.002-0.029l0.002-0.032l0.002-0.034l0.002-0.034l0.001-0.034l0.001-0.031
			l0.002-0.03l0.003-0.026l0.003-0.023l0.003-0.02l0.004-0.017l0.006-0.015l0.006-0.012l0.007-0.01l0.008-0.01l0.009-0.008
			l0.011-0.01l0.013-0.008l0.013-0.008l0.014-0.007l0.015-0.007l0.016-0.004l0.016-0.004l0.017-0.002h0.017h0.018l0.017,0.004
			l0.017,0.006l0.016,0.007l0.015,0.008l0.014,0.013l0.013,0.012l0.01,0.016l0.009,0.018l0.007,0.018l0.009,0.02l0.006,0.021
			l0.005,0.021l0.006,0.024l0.005,0.024l0.006,0.026l0.007,0.026l0.008,0.027l0.006,0.026l0.006,0.026l0.006,0.023l0.006,0.023
			l0.005,0.021l0.005,0.018l0.005,0.018l0.005,0.016l0.004,0.015l0.004,0.014l0.005,0.015l0.005,0.017l0.005,0.017l0.007,0.02
			l0.008,0.021l0.008,0.021l0.009,0.022l0.01,0.021l0.012,0.021l0.012,0.02l0.014,0.018l0.016,0.018l0.016,0.015l0.017,0.015
			l0.019,0.012l0.018,0.011l0.019,0.011l0.018,0.012l0.02,0.01l0.017,0.013l0.018,0.013l0.018,0.014l0.016,0.014l0.016,0.016
			l0.014,0.018l0.013,0.019l0.013,0.021l0.011,0.021l0.009,0.022l0.008,0.025l0.006,0.025l0.005,0.025l0.005,0.029l0.002,0.027
			l0.002,0.029v0.029l-0.002,0.03l-0.002,0.03l-0.003,0.029l-0.004,0.028l-0.004,0.028l-0.004,0.027L38.504,34.5l-0.003,0.025
			l-0.002,0.023l-0.002,0.022l-0.001,0.021v0.021l0.001,0.02l0.002,0.021l0.004,0.019l0.004,0.02l0.007,0.019l0.008,0.019
			l0.009,0.019l0.009,0.019l0.008,0.02l0.01,0.02l0.01,0.021l0.009,0.021l0.008,0.021l0.009,0.021l0.009,0.021l0.011,0.019
			l0.011,0.019l0.012,0.016l0.014,0.015l0.016,0.012l0.016,0.009l0.019,0.007l0.018,0.004l0.021,0.002h0.02l0.021-0.005l0.02-0.007
			l0.021-0.01l0.019-0.014l0.019-0.016l0.017-0.02l0.016-0.021l0.016-0.023l0.013-0.027l0.012-0.03l0.008-0.032l0.009-0.035
			l0.006-0.035l0.004-0.038l0.002-0.038l0.002-0.039v-0.038v-0.038v-0.037l-0.001-0.035v-0.035V34.4l0.001-0.033l0.002-0.031
			l0.005-0.029l0.006-0.027l0.01-0.026l0.012-0.024l0.013-0.021l0.016-0.021l0.015-0.019l0.017-0.017l0.017-0.016l0.016-0.013
			l0.016-0.012l0.017-0.011l0.014-0.008l0.015-0.009l0.014-0.008l0.012-0.007l0.013-0.008l0.013-0.008l0.011-0.01l0.01-0.01
			l0.009-0.012l0.009-0.012l0.007-0.011l0.005-0.012l0.003-0.013v-0.012l-0.002-0.013l-0.004-0.013l-0.006-0.012l-0.008-0.013
			l-0.009-0.012l-0.009-0.013l-0.011-0.01l-0.01-0.012l-0.011-0.012l-0.01-0.01l-0.011-0.01l-0.009-0.011l-0.01-0.013l-0.007-0.012
			l-0.007-0.014l-0.005-0.016l-0.004-0.018l-0.002-0.019v-0.019v-0.021l0.002-0.021l0.002-0.019l0.004-0.019l0.004-0.017
			l0.005-0.014l0.006-0.013l0.008-0.01l0.006-0.009l0.008-0.006l0.01-0.004l0.009-0.002h0.011l0.011,0.002l0.012,0.004l0.013,0.005
			l0.014,0.006l0.015,0.006l0.017,0.006l0.017,0.006l0.018,0.004l0.021,0.004l0.02,0.002h0.021h0.021l0.021-0.002l0.021-0.002
			l0.021-0.004l0.019-0.004l0.02-0.004l0.017-0.004l0.018-0.007l0.016-0.005l0.015-0.005l0.018-0.006l0.016-0.005l0.018-0.006
			l0.017-0.006l0.019-0.004l0.019-0.005l0.018-0.003l0.019-0.002l0.018-0.001l0.019,0.001l0.017,0.003l0.016,0.005l0.015,0.008
			l0.014,0.008l0.014,0.009l0.013,0.009l0.012,0.01l0.013,0.01l0.011,0.008l0.012,0.008l0.01,0.006l0.013,0.005l0.012,0.005
			l0.012,0.002l0.013,0.002h0.013h0.014l0.016-0.004l0.016-0.002l0.016-0.005l0.017-0.005l0.016-0.005l0.016-0.007l0.016-0.004
			l0.014-0.004l0.013-0.002l0.013-0.002l0.012-0.002h0.012h0.012l0.012,0.002l0.013,0.002l0.014,0.002l0.014,0.004l0.014,0.004
			l0.016,0.005l0.016,0.005l0.014,0.005l0.015,0.005l0.012,0.006l0.012,0.004l0.008,0.004l0.009,0.004l0.006,0.002l0.005,0.005
			l0.006,0.004l0.006,0.004l0.007,0.004l0.008,0.005l0.011,0.006l0.011,0.006l0.013,0.006l0.015,0.006l0.014,0.006l0.015,0.006
			l0.016,0.006l0.015,0.006l0.014,0.006l0.014,0.004l0.014,0.004l0.012,0.004l0.013,0.005l0.013,0.002l0.011,0.002l0.012,0.002
			h0.012h0.011h0.011l0.011-0.001l0.011-0.002l0.01-0.003l0.01-0.005l0.009-0.004l0.01-0.006l0.008-0.008l0.008-0.008l0.007-0.009
			l0.006-0.011l0.005-0.01l0.004-0.012l0.003-0.013l0.001-0.013v-0.014l-0.001-0.014l-0.003-0.016l-0.004-0.015l-0.004-0.017
			l-0.003-0.016l-0.003-0.018l-0.004-0.018l-0.004-0.02l-0.002-0.02l-0.003-0.019l-0.003-0.019l-0.001-0.021l-0.001-0.019
			l-0.001-0.02l-0.001-0.019l0.001-0.019l0.001-0.018l0.002-0.018l0.003-0.017l0.004-0.017l0.005-0.016l0.006-0.015l0.008-0.015
			l0.009-0.014l0.01-0.012l0.011-0.014l0.011-0.012l0.012-0.011l0.012-0.012l0.011-0.013l0.012-0.012l0.012-0.012l0.011-0.012
			l0.01-0.012l0.009-0.013l0.009-0.012l0.007-0.013l0.006-0.012l0.005-0.012l0.004-0.011l0.003-0.011l0.004-0.012l0.004-0.01
			l0.005-0.009l0.006-0.009l0.008-0.008l0.009-0.008l0.011-0.006l0.015-0.005l0.014-0.004l0.017-0.003l0.018-0.002l0.02-0.002h0.021
			h0.02h0.021h0.022h0.023h0.025h0.024h0.028l0.028-0.002l0.03-0.002l0.032-0.004l0.035-0.006l0.038-0.006l0.041-0.009L41.39,32.9
			l0.021-0.004l0.016-0.061l0.049-0.035l0.056-0.004l0.07-0.009l0.045-0.012l0.028-0.011l0.291-0.039l0.002-0.047l-0.244-0.48
			l-0.245-0.482l0.013-0.143l0.01-0.115l0.109-0.207l0.037-0.07l-0.004-0.004l-0.336-0.293l-0.045-0.136l0.033-0.063l0.073-0.141
			l-0.006-0.064l-0.006-0.079l-0.075-0.058l-0.353-0.272l0.089-0.265l0.269-0.371l-0.227-0.172l-0.121-0.092l-0.144,0.004
			l-0.444,0.019l-0.428-0.999l-0.161-0.375l0.001-0.034l0.011-0.427l0.186-0.404l0.104-0.176l0.114-0.193l0.635-0.658l-0.057-0.484
			l0.115-0.403l0.206-0.116l0.242-0.138l0.208-0.075l0.393-0.144l0.164-0.36l0.01-0.021l-0.043-0.131l-0.107-0.33l-0.346-0.381
			l-0.266-0.496l0.127-0.865l0.093-0.099l0.229-0.247l0.212-0.089l0.309-0.13l-0.041-0.208l-0.051-0.254l-0.138-0.225l-0.129-0.213
			l0.006-0.215l0.007-0.247l0.149-0.404l-0.3-0.415l-0.382-0.288l-0.172-0.195l-0.162-0.186l-0.161-0.497l-0.382-0.322l-0.854-0.393
			l0.115-0.427l0.002-0.002l0.183-0.367l-0.138-0.438l0.027-0.255l0.019-0.184l0.06-0.056l0.265-0.255l0.427-0.312l0.048-0.08
			l0.078-0.129l0.082-0.137l0.08-0.45l0.023-0.958l-0.092-0.496l-0.088-0.245l-0.109-0.31l-0.393-0.57l-0.256-0.372l-0.218-0.316
			L39.6,10.511l-0.022-0.461l0.046-0.461l0.039-0.104l0.11-0.3l0.038-0.202l0.113,0.027l0.06-0.076V8.877l0.029-0.044l0.015-0.051
			l0.022-0.057l0.008-0.063l-0.03-0.177l0.007-0.057l0.022-0.063l0.015-0.05l0.022-0.038l0.021-0.051l0.074-0.107l0.016-0.063
			l0.029-0.069l0.029-0.032l0.015-0.038l0.053-0.051l0.045-0.095l0.044-0.076l0.015-0.057l0.022-0.019l0.089-0.076l0.007-0.076
			V7.404V7.353L40.5,7.315l0.021-0.069l-0.03-0.057l-0.016-0.063l-0.007-0.05l-0.008-0.051l0.052-0.094l0.06-0.038l0.037-0.025
			l0.074-0.038l0.015-0.038l0.016-0.051V6.679V6.584l0.065-0.228l-0.038-0.063l-0.015-0.056l-0.022-0.038l-0.052-0.095l-0.12-0.208
			l-0.037-0.101l-0.187-0.189l-0.06-0.051l-0.06-0.038l-0.078-0.046l-0.028-0.018l-0.088-0.049L39.95,5.372l-0.052-0.057h-0.029
			l-0.036-0.031l-0.104-0.05l-0.021-0.038l-0.164-0.17l-0.098-0.107l-0.127-0.227l-0.097-0.101l-0.097-0.076l-0.149-0.062
			l-0.021-0.069l-0.046-0.057l-0.104-0.114l-0.03-0.138L38.747,4.03l-0.12-0.195L38.56,3.734L38.485,3.62l-0.037-0.063V3.519
			l-0.045-0.183l0.008-0.069l0.015-0.031l0.008-0.026V3.164l-0.067-0.113l-0.06-0.038l-0.09-0.088l-0.008-0.063V2.811l0.021-0.019
			l0.029-0.12l-0.061-0.075l-0.008-0.082l-0.028-0.063l-0.037-0.044l-0.03-0.062l-0.022-0.038l-0.052-0.126l-0.016-0.038
			l-0.033-0.037l-0.054-0.03l-0.041-0.027l-0.045-0.026l-0.06-0.038l-0.05-0.035L37.67,1.923l-0.086-0.038l-0.072-0.064L37.48,1.786
			l-0.022-0.069l-0.005-0.042l0.019-0.077l0.018-0.068l0.022-0.039l0.026-0.054l-0.001-0.053l-0.004-0.05V1.253l-0.001-0.149V0.955
			L37.459,1L37.39,1.005L37.3,1.016l-0.19,0.004h-0.1l-0.045,0.009L36.927,1.04l-0.06-0.006l-0.028-0.011l-0.06-0.009l-0.05-0.002
			l-0.042-0.009l-0.043-0.007l-0.052-0.009h-0.067l-0.087,0.001l-0.091,0.003h-0.061L36.23,0.995l-0.112,0.028l-0.119,0.043
			L35.94,1.099l-0.078,0.017l-0.055-0.017l-0.035-0.015l-0.057-0.015L35.661,1.05l-0.007,0.036l-0.013,0.066l0.001,0.057
			l0.003,0.047l-0.062,0.059l-0.02,0.069l-0.037,0.04L35.513,1.45L35.31,1.564l-0.045,0.021l0.051,0.071l-0.021,0.022l-0.033,0.023
			l-0.028,0.03l-0.05,0.027L35.18,1.766l-0.048,0.053l-0.02,0.043l-0.021,0.031l-0.043,0.038l-0.047,0.03l-0.041,0.022L34.93,2.008
			L34.887,2.05l-0.019,0.035L34.844,2.12l-0.035,0.034l-0.036,0.027l-0.049,0.034l-0.035,0.033l-0.045,0.049l-0.049,0.045
			l-0.044,0.026L34.486,2.4l-0.062,0.03l-0.016,0.025l-0.04,0.046l-0.014,0.042l-0.021,0.054l-0.037,0.052l-0.007,0.076l0.006,0.037
			L34.28,2.796l-0.033,0.025l-0.038,0.023l-0.047,0.054l-0.035,0.055l-0.05,0.043l-0.06,0.041l-0.062,0.044L33.93,3.113
			l-0.021,0.033l-0.041,0.041l-0.062,0.029L33.737,3.24l-0.07,0.022l-0.044,0.021L33.59,3.305l-0.022,0.037l-0.014,0.065
			l0.035,0.088l0.021,0.065l-0.021,0.028l-0.041,0.013l-0.071,0.003l-0.062,0.003L33.342,3.59L33.28,3.548V3.477l0.054-0.033
			l0.027-0.034l-0.014-0.046l-0.125-0.08l-0.015-0.062L33.22,3.18l0.006-0.031l-0.027-0.043l-0.044-0.039l-0.079-0.04l-0.078-0.081
			l-0.042-0.022l-0.059-0.028l-0.04-0.041l-0.023-0.053L32.802,2.76l-0.023-0.012l-0.061-0.009l-0.054,0.007l-0.139,0.026
			l-0.051,0.013l-0.141,0.061l-0.036,0.05L32.282,2.93l-0.018,0.045l-0.04,0.067l-0.046,0.09l-0.051,0.064L32.08,3.239l-0.079,0.064
			l-0.072,0.015h-0.073l-0.081-0.014l-0.054,0.002L31.7,3.363l-0.002,0.033V3.44l-0.072,0.072l-0.088,0.062l0.003,0.033l0.001,0.001
			l0.078,0.019l0.053-0.003l0.081-0.004l0.111-0.022l0.077-0.014l0.062,0.01l0.01,0.015l0.003,0.067l-0.014,0.095l-0.017,0.101
			l-0.019,0.09L31.863,4.16l-0.049,0.056l-0.065,0.086l-0.041,0.063l-0.052,0.049L31.569,4.47l-0.06,0.05l-0.09,0.057l-0.082,0.058
			l-0.046,0.057L31.27,4.724l-0.08,0.042L31.118,4.78l-0.053,0.004l-0.123,0.024l-0.074,0.034l-0.06,0.062l-0.155,0.159l-0.04,0.021
			l-0.12,0.029h-0.062L30.388,5.12v0.03l0.042,0.145l0.027,0.076l-0.001,0.054l-0.009,0.07l-0.003,0.083l-0.02,0.032l-0.03,0.033
			L30.311,5.7l-0.098,0.053l-0.05,0.016l-0.039,0.014l-0.045,0.023l-0.044,0.055L30.002,5.93l-0.05,0.127l-0.035,0.076l-0.025,0.035
			l-0.07,0.068l-0.043,0.037l-0.07,0.065l-0.097,0.083l-0.019,0.072l0.033,0.056l0.052,0.064l0.046,0.038l0.021,0.054l-0.006,0.08
			l-0.022,0.097l-0.029,0.067l-0.038,0.062l-0.04,0.049l-0.052,0.039L29.408,7.18l-0.092,0.089l-0.08,0.066l-0.063,0.071
			l0.018,0.036l0.06,0.017l0.016,0.09l-0.024,0.02l-0.03,0.033l-0.037,0.052L29.147,7.69l-0.043,0.02l-0.037-0.001l-0.139-0.018
			l-0.062,0.02l-0.078,0.045L28.74,7.794l-0.113,0.17l-0.086,0.094l-0.089,0.101L28.38,8.19l-0.069,0.009L28.25,8.186l-0.068-0.031
			l-0.089-0.028l-0.069-0.023l-0.078-0.006l-0.09,0.013l-0.134,0.042L27.438,8.28l-0.342,0.206l-0.055-0.007L27.006,8.43
			l-0.064-0.127l-0.036-0.054l-0.062-0.063l-0.068-0.04l-0.091,0.017l-0.021,0.009l-0.067,0.015L26.54,8.198l-0.065,0.028
			l-0.061,0.037l-0.146,0.043l-0.062,0.025l-0.051,0.05l-0.052,0.061l-0.031,0.043l-0.043,0.107l-0.022,0.072l-0.09,0.232
			l-0.033,0.065L25.825,9.03l-0.03,0.034l-0.136,0.059l-0.107,0.059l-0.086,0.039L25.38,9.256L25.301,9.29l-0.124,0.027
			l-0.058,0.024L25.061,9.35l-0.08,0.022l-0.138,0.031l-0.064-0.008l-0.055-0.022l-0.382,0.124l-0.44,0.136l-0.236,0.016
			l-0.23-0.034L23.119,9.72l-0.132,0.147l0.088-0.018l0.086-0.013l0.087-0.004h0.062l0.064,0.005l0.06,0.007l0.031,0.008
			l0.038,0.009l0.036,0.015l0.037,0.02l0.073,0.032l0.076,0.039l0.053,0.028l0.025,0.017l0.022,0.015l0.039,0.025l0.039,0.031
			l0.062,0.042l0.023,0.011l0.018,0.013l0.02,0.007l0.02,0.003l0.04,0.009l0.047,0.013l0.131,0.03l0.159,0.039l0.12,0.028
			l0.097,0.024l0.075,0.024l0.036,0.006l0.109,0.02l0.093,0.02l0.061,0.019l0.087,0.02l0.061,0.014l0.05,0.012l0.06,0.016
			l0.067,0.016l0.093,0.024l0.027,0.006l0.024,0.011l0.034,0.014l0.036,0.017l0.037,0.011l0.035,0.006l0.03,0.004l0.021-0.004
			l0.02-0.002l0.036,0.006l0.022,0.005l0.043,0.017l0.036,0.018l0.028,0.008l0.048,0.007l0.075,0.01l0.042,0.015l0.049,0.019
			l0.041,0.021l0.018,0.012l0.023,0.037l0.021,0.021l0.042,0.029l0.035,0.015l0.044,0.006l0.048,0.005l0.033,0.009l0.025,0.012
			l0.033,0.025l0.031,0.039l0.049,0.045l0.023,0.016h0.021l0.026-0.006l0.056-0.015l0.075-0.015l0.052,0.002l0.04,0.01l0.029,0.012
			l0.043,0.03l0.05,0.026l0.037,0.019l0.058,0.026l0.056,0.022l0.035,0.022l0.022,0.029l0.055,0.051l0.082,0.063l0.072,0.063
			l0.026,0.032l0.025,0.018l0.104,0.065l0.128,0.108l0.075,0.059l0.138,0.11l0.178,0.14l0.049,0.042l0.06,0.062l0.075,0.059
			l0.067,0.043l0.063,0.034l0.062,0.032l0.022,0.021l0.029,0.039l0.004,0.019l-0.003,0.032l0.001,0.033l0.013,0.019l0.021,0.019
			l0.056,0.037l0.047,0.033l0.018,0.024l0.015,0.025l0.021,0.034l0.026,0.028l0.034,0.027l0.12,0.064l0.176,0.078l0.165,0.06
			l0.06,0.018l0.055,0.027l0.106,0.048l0.068,0.03l0.07,0.027l0.104,0.046l0.269,0.127l0.018,0.008l0.062,0.023l0.019,0.011
			l0.019,0.021l0.028,0.051l0.081,0.23l0.038,0.146l0.021,0.078l0.009,0.042l0.011,0.018l0.026,0.03l0.104,0.104l0.072,0.062
			l0.055,0.031l0.089,0.028l0.09,0.021l0.142,0.023l0.079,0.012l0.06,0.004l0.057,0.001h0.035l0.039-0.004l0.061-0.004l0.062,0.003
			l0.06,0.012l0.033,0.012l0.028,0.02l0.023,0.031l0.034,0.056l0.022,0.024l0.021,0.02h0.014l0.025-0.017l0.048-0.031l0.081-0.041
			l0.034-0.014l0.028-0.006h0.034l0.083,0.008l0.099,0.008l0.086,0.004l0.022,0.004l0.054,0.004l0.062-0.013l0.087,0.021
			l0.005,0.014l-0.008,0.055l-0.05,0.101l-0.076,0.087l-0.051,0.131l-0.058,0.126l-0.017,0.016l-0.106,0.098l-0.049,0.049
			l-0.059,0.046l-0.104,0.08l-0.131,0.091l-0.045,0.033l-0.049,0.033l-0.047,0.021l-0.054,0.026l-0.062,0.035l-0.08,0.059
			l-0.104,0.09l-0.067,0.062L30.88,15.37l-0.024,0.025l-0.006,0.017l0.002,0.028l0.008,0.042l0.002,0.062l-0.005,0.048l-0.02,0.051
			l-0.028,0.048l-0.045,0.04l-0.056,0.038l-0.042,0.015l-0.05,0.024l-0.035,0.01l-0.032-0.001l-0.031-0.01l-0.026-0.015
			l-0.021-0.021l-0.021-0.046l-0.008-0.02l-0.014-0.012l-0.022-0.007l-0.028,0.002l-0.069,0.013l-0.047,0.004l-0.041,0.013
			l-0.074,0.007l-0.111-0.005l-0.102-0.012l-0.131-0.027l-0.026-0.006l-0.061-0.018l-0.032-0.008l-0.022-0.012l-0.019-0.022
			l-0.018-0.014l-0.023-0.007l-0.017-0.001L29.564,15.6l-0.033,0.014l-0.018,0.005l-0.02-0.001l-0.02-0.012l-0.026-0.009
			l-0.021,0.002l-0.025,0.011l-0.052,0.017l-0.071,0.018l-0.059,0.02l-0.025,0.016l-0.006,0.012l0.003,0.01l0.021,0.013l0.016,0.009
			l0.001,0.006l-0.004,0.008l-0.027,0.016l-0.053,0.021L29.1,15.804l-0.053,0.029l-0.041,0.021l-0.039,0.016l-0.054,0.021
			l-0.044,0.02l-0.036,0.027l-0.018,0.017l-0.026,0.03l-0.021,0.033l-0.011,0.011l-0.03,0.014l-0.049,0.015l-0.115,0.015
			l-0.033,0.007l-0.017,0.014l-0.005,0.017l0.007,0.027l0.015,0.036l0.015,0.036l0.021,0.037l0.021,0.029l0.021,0.031l0.006,0.016
			l-0.002,0.008l-0.006,0.007l-0.025,0.016l-0.04,0.022L28.488,16.4l-0.043,0.033l-0.028,0.039L28.399,16.5l-0.021,0.045
			l-0.013,0.035l-0.01,0.031l0.001,0.044l0.012,0.033l0.021,0.029l0.014,0.023l0.023,0.024l0.023,0.019l0.037,0.033l0.011,0.021
			l0.006,0.014l0.006,0.027l-0.002,0.016l-0.002,0.015l-0.013,0.039l-0.021,0.054l-0.027,0.077l-0.001,0.075l0.01,0.09l0.004,0.04
			l0.008,0.025l0.009,0.038l0.008,0.082l0.002,0.071l0.009,0.044l0.028,0.077l0.005,0.014l-0.004,0.021l-0.011,0.037l-0.002,0.065
			l0.008,0.046l0.013,0.035l0.019,0.037l0.005,0.042l-0.003,0.015l-0.014,0.016l-0.035,0.024l-0.053,0.03l-0.054,0.037l-0.054,0.035
			l-0.038,0.039l-0.029,0.05l-0.021,0.045l-0.03,0.08L28.2,18.325l-0.02,0.035l-0.004,0.047l-0.013,0.055l-0.001,0.059v0.03
			l-0.008,0.047v0.054l0.003,0.029l0.009,0.02l0.012,0.006l0.063,0.012l0.066,0.002l0.085-0.001l0.024-0.001l-0.016,0.014
			l-0.057,0.058l-0.039,0.041l-0.024,0.042l-0.036,0.037l-0.036,0.033l-0.033,0.023l-0.024,0.027l-0.104,0.126l-0.076,0.063
			l-0.076,0.075l-0.123,0.144l-0.066,0.06l-0.085,0.08l-0.05,0.043l-0.123,0.139l-0.041,0.042l-0.057,0.066l-0.203,0.208
			l-0.102,0.104l-0.276,0.254l-0.042,0.041l-0.311,0.284l-0.178,0.182l-0.062,0.067l-0.223,0.229l-0.149,0.152l-0.185,0.196
			l-0.043,0.044l-0.281,0.292l-0.257,0.27l-0.096,0.099l-0.227,0.235l-0.097,0.103l-0.151,0.157l-0.104,0.111l-0.079,0.092
			l-0.012-0.006l-0.116-0.055l-0.227-0.104l-0.282-0.132L23.523,22.6l-0.259-0.123l-0.234-0.115l-0.117-0.053l-0.269-0.127
			l-0.294-0.144l-0.229-0.105l-0.312-0.144l-0.154-0.075L21.402,21.6l-0.274-0.131l-0.087-0.042l-0.283-0.132l-0.35-0.162
			l-0.087-0.037l-0.145-0.065l-0.34-0.158l-0.147-0.072l-0.097-0.041l0.188-0.095l0.25-0.136l0.105-0.058l0.205-0.104l0.295-0.154
			l0.266-0.138l0.221-0.119l0.169-0.082l0.166-0.088l0.252-0.138l0.218-0.121l0.135-0.073l0.223-0.118l0.124-0.067L22.4,19.26
			l-0.096-0.124l-0.154-0.203l-0.045-0.058l-0.202-0.26l-0.105-0.142l-0.188-0.247l-0.179-0.234l-0.146-0.188l-0.137-0.178
			l-0.055-0.067l-0.192-0.258l-0.128-0.161l-0.166-0.205l-0.065-0.09l-0.21-0.277l-0.231-0.302l-0.21-0.275l-0.033-0.043
			l-0.053-0.072l-0.033-0.03l-0.056-0.062L19.648,15.7l-0.02,0.009l-0.122,0.065l-0.315,0.163l-0.241,0.126l-0.369,0.196
			l-0.209,0.106l-0.306,0.163l-0.198,0.104l-0.34,0.178l-0.164,0.087l-0.344,0.18l-0.131,0.072l-0.354,0.183l-0.178,0.091
			l-0.187,0.1l-0.114,0.064l-0.038-0.045l-0.163-0.189l-0.133-0.158l-0.127-0.141l-0.043-0.052l-0.035-0.042l-0.018-0.006
			l-0.019,0.002l-0.043,0.026l-0.119,0.084l-0.075,0.039l-0.104,0.049l-0.142,0.068l-0.049,0.01l-0.021-0.004l-0.018-0.01
			l-0.046-0.042l-0.109-0.089l-0.052-0.029l-0.014-0.001l-0.012,0.007l-0.035,0.063l-0.037,0.069l-0.016,0.049l0.005,0.011
			l0.042,0.02l0.07,0.022l0.095,0.035l0.079,0.035l0.045,0.021l0.047,0.034l0.07,0.059l0.094,0.1l0.08,0.103l0.068,0.1l0.118,0.145
			l-0.017,0.008l-0.118,0.063l-0.455,0.236l-0.327,0.174l-0.278,0.144l-0.204,0.107l-0.238,0.127l-0.195,0.102l-0.179,0.093
			l-0.182,0.097l-0.189,0.101l-0.194,0.103l-0.151,0.079l-0.134,0.072l-0.12,0.067l-0.016-0.019l-0.13-0.165l-0.111-0.148
			l-0.383-0.487l-0.11-0.152l-0.363-0.465l-0.19-0.243l-0.036-0.047l-0.219-0.282l-0.095-0.121l-0.374-0.477l-0.119-0.151
			l-0.369-0.471L9.771,16.1l-0.337-0.431l-0.22-0.282l-0.201-0.27l-0.118-0.15l-0.272-0.349l-0.053-0.063l-0.07-0.09l-0.062-0.086
			l-0.075-0.094l-0.063-0.081l-0.043-0.052l0.042-0.005l0.057-0.006l0.094-0.011l0.099-0.011l0.137-0.015l0.174-0.015l0.147-0.027
			l0.096-0.02l0.076-0.021l0.072-0.022l0.063-0.012l0.071-0.016l0.015-0.01l0.019-0.012l0.007-0.032l0.012-0.066l0.025-0.083
			l0.029-0.057l0.028-0.053l0.076-0.081l0.114-0.086l0.074-0.048l0.099-0.037l0.105-0.019l0.06-0.006l0.041,0.004l0.084,0.023
			l0.119,0.032l0.08,0.013l0.066,0.012l0.05-0.005l0.106-0.017l0.104-0.036l0.07-0.014l0.041-0.002l0.074,0.005l0.095,0.013
			l0.087,0.006l0.048,0.004l0.082-0.003l0.104-0.014l0.103-0.027l0.054-0.009l0.088-0.017l0.09-0.019l0.035-0.011l0.012-0.011
			l0.007-0.014l0.008-0.028l0.005-0.026l0.017-0.04l0.029-0.046l0.051-0.044l0.051-0.023l0.047-0.014l0.053-0.019l0.074-0.012
			l0.053-0.008l0.049,0.003l0.041-0.003h0.062l0.045,0.001h0.052l0.031-0.003l0.041-0.006l0.059-0.014L12.491,13l0.024-0.013
			l0.172-0.212l0.229-0.112l-0.091-0.351l-0.128-0.028l-0.166-0.019l-0.087-0.054l-0.113,0.011l-0.818-0.112l-0.147-0.033
			l-0.085-0.067l-0.247-0.192l0.09-0.042l0.141-0.046l0.089-0.096l0.055-0.083l-0.041-0.104l-0.334,0.102l-0.198,0.101l-0.215,0.032
			l-0.134-0.053l-0.104-0.235l-0.118-0.083l-0.189-0.02l-0.09,0.034l-0.142,0.003l0.028,0.115L9.81,11.534l-0.174,0.091
			l-0.088-0.016l-0.025-0.086L9.405,11.51l-0.139,0.043l-0.115,0.03L9.018,11.61l-0.114-0.033l-0.086-0.294l-0.236-0.329
			l0.202-0.188l0.03-0.112l0.062-0.124l0.058-0.099l0.122-0.117l0.118-0.122l0.104-0.088l0.053-0.073l0.087-0.095l0.148,0.056
			l0.071,0.051l0.22,0.122l0.127,0.009l0.064-0.055l0.087-0.103l0.078-0.089l0.096-0.097l0.124-0.16l0.06-0.128l0.085-0.111
			l0.019-0.102l0.07-0.352l-0.507,0.054l-0.086,0.038l-0.152-0.01L9.794,9.034L9.745,8.961l0.006-0.223L9.63,8.663L9.443,8.675
			L9.061,8.982L8.96,8.968L8.84,8.966L8.618,8.909L8.609,8.885L8.576,8.868L8.563,8.841L8.517,8.83L8.485,8.84L8.454,8.874
			L8.432,8.899L8.397,8.917L8.355,8.934l-0.02,0.017L8.3,8.98L8.296,8.996l-0.005,0.02L8.266,9.033L8.243,9.054L8.239,9.066
			L8.238,9.077L8.237,9.11l0.008,0.031L8.243,9.16L8.229,9.175l-0.02,0.02L8.163,9.221L8.152,9.229L8.144,9.241L8.141,9.257
			L8.137,9.275l0.012,0.024l0.022,0.04l0.044,0.024l0.029,0.028L8.26,9.416l0.033,0.03l0.046,0.047l0.025,0.042l0.019,0.04
			l0.022,0.057l0.017,0.051L8.414,9.728L8.408,9.769l0.005,0.035l0.013,0.023l0.01,0.021l0.003,0.016l-0.02,0.024l-0.03,0.029
			L8.37,9.929L8.334,9.953L8.302,9.979L8.281,9.998l-0.029,0.018L8.153,9.994L8.09,9.944l-0.022-0.08l0.005-0.087L8.05,9.673
			l0.005-0.078L8.05,9.516L8.014,9.475L7.96,9.433L7.854,9.425L7.709,9.289L7.62,9.203L7.559,8.99L7.411,8.551l-0.15-0.225
			L7.12,8.271L6.878,8.259L6.776,8.173L6.483,8L6.295,7.721L5.99,7.538L5.812,7.441L5.543,7.354L5.364,7.342l-0.22,0.095
			L4.951,7.595L4.783,7.733L4.704,8L4.468,8.507l0.102,0.161l0.165,0.128l0.292,0.152l0.074,0.107L4.819,9.138L4.577,9.137
			L4.014,9.122l-0.09,0.042l-0.23,0.02H3.553l-0.19-0.076L3.195,9.129L2.99,9.181l-0.104,0.18L2.882,9.617l0.037,0.192l0.049,0.15
			l0.254,0.236l0.112,0.203l0.023,0.182l0.036,0.16l0.19,0.119l0.088,0.107l0.012,0.128l-0.143,0.104l-0.18,0.127l-0.027,0.192
			l0.036,0.128l0.188,0.375l0.05,0.171l-0.142,0.061l-0.257,0.062l0.023,0.192l0.216,0.119l0.356,0.045l0.385,0.045l0.128-0.042
			L4.33,12.61l-0.048-0.235l-0.023-0.182l0.026-0.042l0.33,0.172l0.112,0.161l0.022,0.224l0.034,0.363l0.085,0.459l-0.028,0.139
			l0.166-0.01l0.312-0.264l0.204,0.033l0.101,0.118l0.037,0.171l-0.003,0.17l0.062,0.054l0.074,0.203l-0.027,0.16L5.734,14.35
			l-0.061,0.052l-0.098,0.114H5.453l-0.181,0.006l-0.014,0.011l-0.013,0.011H5.212l-0.113,0.028l-0.152,0.022l-0.107,0.012
			l-0.046,0.028l0.021,0.106l0.033,0.123v0.05v0.05L4.84,15.019v0.028L4.86,15.08l0.054,0.005l0.066-0.017l0.047-0.006l0.04-0.006
			l0.025,0.017l0.055,0.056l0.119,0.184l0.034,0.05l0.04,0.033l0.033,0.056l0.007,0.056l0.026,0.078l0.021,0.056l-0.014,0.095
			l-0.007,0.106L5.368,15.91l-0.015,0.083l-0.007,0.101l0.047,0.14l0.015,0.134l-0.066,0.346l-0.021,0.078l-0.008,0.054l0.081,0.024
			l0.106,0.005h0.06l0.137-0.038l0.136-0.038l0.096,0.006l0.28,0.034l0.409-0.029l0.356,0.002L7.371,16.8l0.256,0.001l0.037-0.01
			l0.021-0.012l0.042-0.021l0.042-0.021l0.056-0.028l0.047-0.019l0.048-0.034l0.027-0.021l0.02-0.015l0.025-0.021l0.016-0.009h0.02
			l0.025-0.002l0.021,0.004l0.02,0.002l0.023,0.006l0.016,0.012l0.021,0.014l0.01,0.009l0.008,0.012l0.004,0.008v0.012l-0.003,0.012
			l-0.014,0.024l-0.02,0.021l-0.04,0.024l-0.017,0.01l-0.004,0.021l-0.001,0.014l0.006,0.014l0.011,0.01l0.019,0.011l0.023,0.008
			l0.035,0.007l0.033,0.002l0.048,0.003l0.033,0.005l0.021,0.005l0.008,0.006l0.006,0.006v0.008l-0.009,0.006l-0.02,0.006
			l-0.026,0.004l-0.02,0.006l-0.013,0.009L8.228,16.92v0.014l0.002,0.012l0.002,0.008l0.002,0.005v0.008l-0.01,0.006l-0.011,0.015
			l-0.018,0.025l-0.048,0.028l-0.046,0.031l-0.036,0.025L8.031,17.11l-0.034,0.007H7.968l-0.026,0.001L7.92,17.121l-0.019,0.004
			l-0.015,0.006l-0.022,0.013L7.829,17.17l-0.124,0.093l-0.03,0.013l-0.04,0.034l-0.018,0.005l-0.011,0.01L7.6,17.341l0.013,0.02
			l0.007,0.019l0.005,0.023v0.03l-0.001,0.038l-0.004,0.015l0.001,0.007h0.01h0.013l0.021,0.008l0.015,0.011l0.016,0.02l0.014,0.015
			l0.013,0.007l0.019,0.004l0.019,0.003l0.021,0.007l0.008,0.01L7.79,17.59l0.007,0.013l0.012,0.013l0.013,0.01l0.022,0.01
			l0.031,0.006l0.039,0.022l0.06,0.038l0.074,0.071l0.037,0.042l0.014,0.034l0.007,0.019L8.106,17.9l-0.002,0.03l-0.006,0.03
			l-0.006,0.025l-0.045,0.049l-0.02,0.016l-0.006,0.012l0.009,0.002l0.027-0.005L8.1,18.061l0.031,0.004l0.033,0.01l0.023,0.002
			l0.043-0.003l0.024,0.005l0.02,0.002l0.034-0.002l0.024,0.008l0.023,0.014l0.018,0.016l0.012,0.016L8.39,18.15l0.001,0.015v0.016
			l0.001,0.012l0.004,0.014l0.019,0.016l0.023,0.009l0.031,0.014l0.054,0.023l0.023,0.011l0.04,0.028l0.021,0.018l0.01,0.011
			l0.005,0.012l0.004,0.014v0.021l-0.004,0.02l-0.021,0.065l-0.006,0.015l-0.001,0.012l0.012,0.014l0.026,0.022l0.004,0.011
			l0.006,0.013l-0.001,0.014l-0.009,0.017l-0.016,0.021L8.595,18.64l-0.016,0.035l-0.021,0.042l-0.005,0.016l-0.02,0.028
			l-0.012,0.013L8.514,18.79l-0.003,0.018l-0.003,0.021l-0.005,0.016l-0.009,0.014l-0.023,0.018l-0.023,0.01l-0.031,0.006
			L8.41,18.897l-0.004,0.011l0.006,0.009l0.01,0.021l0.005,0.027l0.018,0.025l0.043,0.043l0.044,0.045l0.015,0.03l0.01,0.022
			l0.007,0.015l0.001,0.02l-0.001,0.02l-0.007,0.021v0.044l0.002,0.013l0.007,0.019l-0.001,0.017l-0.002,0.013l-0.018,0.024
			l-0.032,0.033l-0.026,0.042l-0.021,0.04l-0.019,0.037l-0.014,0.03l-0.007,0.014l-0.002,0.012l-0.004,0.012l-0.013,0.022
			l-0.016,0.029l-0.031,0.028l-0.013,0.021l-0.001,0.016l0.006,0.016l0.012,0.019l0.017,0.015l0.02,0.025l0.021,0.009l0.019,0.002
			l0.02-0.016l0.014-0.004l0.021,0.001l0.026,0.005l0.017,0.005l0.021,0.001l0.019,0.003l0.019,0.011l0.017,0.013l0.018,0.037
			l0.026,0.032l0.022,0.031l0.028,0.02l0.021,0.009l0.039,0.004l0.029-0.003l0.031-0.006l0.048-0.023l0.048-0.012l0.04-0.002
			l0.05,0.003l0.024,0.006l0.019,0.006l0.022,0.011l0.034,0.005h0.02l0.021-0.006l0.018-0.001h0.021l0.014,0.014l0.012,0.008
			l0.025,0.028l0.021,0.032l0.028,0.038l0.016,0.012h0.017l0.021-0.006l0.029-0.006l0.037-0.01l0.078-0.016l0.034-0.005l0.011,0.012
			l0.004,0.022v0.025l0.009,0.026l0.009,0.022l0.016,0.02l0.014,0.012l0.021,0.014l0.017,0.022l0.019,0.026l0.014,0.039l0.012,0.03
			l0.005,0.015l0.017,0.009l0.011,0.002l0.012,0.001l0.008,0.013L9.723,20.3l0.002,0.011l0.007,0.004l0.023,0.004l0.013,0.016
			l0.02,0.025L9.8,20.375l0.029,0.016L9.851,20.4l0.022,0.004l0.028,0.006l0.015,0.014l0.003,0.012l0.008,0.016l0.005,0.017
			l0.032,0.021l0.027,0.022l-0.003,0.029l-0.017,0.038l-0.009,0.04l0.004,0.047l0.035,0.019l0.029,0.019l0.017,0.046l-0.001,0.041
			l-0.002,0.035l-0.01,0.035l-0.008,0.036v0.039l-0.019,0.04l-0.029,0.023l-0.02,0.024l-0.025,0.04l-0.033,0.035L9.9,21.12
			l0.006,0.016l0.012,0.013l0.02,0.003l0.024,0.007l0.007,0.007l0.005,0.008l0.005,0.012l0.008,0.01l0.017,0.008l0.01,0.004h0.019
			l0.012-0.004l0.016-0.011l0.012-0.006l0.009-0.002h0.01l0.016,0.003l0.018,0.019l0.014,0.018l0.031,0.014l0.033,0.018l0.048,0.01
			l0.026,0.008l0.021,0.021l0.025,0.01l0.031,0.007l0.03,0.007h0.026l0.029-0.012l0.023-0.018l0.025-0.007l0.021,0.003l0.016,0.014
			l0.01,0.013l0.017,0.007l0.014,0.005l0.028,0.004l0.035,0.009l0.008,0.007l0.019,0.009l0.013,0.005l0.014,0.004l0.016-0.002
			l0.046-0.006l0.034,0.001l0.038-0.004h0.017l0.017-0.001l0.022-0.002h0.014H10.9l0.01,0.003l0.008,0.005l0.002,0.01l0.006,0.02
			l0.002,0.016l0.005,0.016l0.012,0.013l0.007,0.002h0.01l0.018-0.005l0.017-0.006l0.021-0.006l0.053-0.017l0.024-0.001l0.026,0.002
			l0.029,0.006l0.024,0.003l0.024,0.017l0.031,0.021l0.013,0.015l0.006,0.016l0.021,0.031l0.025,0.014l0.015,0.006l0.024,0.002
			l0.02,0.007l0.016,0.008l0.012,0.013l0.03,0.013l0.017-0.001l0.015-0.002l0.011-0.003l0.01-0.004l0.016-0.005l0.01,0.002
			l0.017,0.005l0.01,0.011l0.014,0.017l0.005,0.016l-0.001,0.018v0.016l0.017,0.016l0.019,0.002l0.022-0.002l0.021,0.002
			l0.018,0.009l0.008,0.008l0.012,0.019l0.021,0.007l0.039-0.003l0.011-0.002l0.019-0.002l0.013-0.001l0.012,0.008v0.018
			l0.002,0.026l0.009,0.013l0.019,0.011l0.04,0.005l0.037-0.012l0.039-0.01l0.02-0.001l0.026,0.001l0.018,0.009l0.01,0.012v0.015
			l0.004,0.021l0.015,0.032l0.017,0.019l0.005,0.027l0.012,0.033l0.009,0.032l0.007,0.022l0.005,0.013l0.013,0.011l0.015,0.008
			l0.021,0.004l0.033,0.008l0.021,0.013l0.012,0.015l0.023,0.037l0.021,0.031l0.013,0.029l0.019,0.018l0.019,0.01l0.021,0.021
			l0.01,0.021L12.3,22.26l0.002,0.051l-0.012,0.05l0.005,0.044l0.018,0.029l0.012,0.031l0.007,0.027l0.006,0.018l0.02,0.017
			l0.005,0.011l0.001,0.006l0.004,0.008l-0.004,0.01l-0.018,0.027l0.004,0.024l0.013,0.011l0.016,0.008l0.016,0.006l0.018,0.013
			l0.005,0.012l0.031,0.015l0.013,0.002h0.013l0.009-0.002l0.017-0.006l0.006-0.004l0.01-0.002l0.008-0.004h0.006l0.007-0.002
			l0.014-0.002l0.007,0.001l0.006,0.001l0.014,0.003l0.013,0.007l0.018,0.006l0.014,0.017l0.003,0.01l-0.003,0.013l-0.006,0.027
			l0.004,0.016l0.009,0.01l0.014,0.008l0.022,0.018l0.004,0.01l0.005,0.011l0.008,0.013l0.004,0.012l0.012,0.016l0.009,0.013
			l0.022,0.013l0.012,0.014l0.002,0.005v0.001l-0.01,0.01L12.72,22.92l-0.009,0.02l0.002,0.006l0.005,0.005l0.016,0.007l0.014,0.002
			l0.023,0.008l0.008,0.002l0.004,0.006v0.005l-0.007,0.008L12.768,23l-0.008,0.018l0.007,0.006l0.011,0.01h0.007l0.012-0.004
			l0.02-0.012l0.031-0.014L12.875,23h0.036l0.027,0.004l0.039,0.012l0.037,0.013l0.021,0.013l-0.013,0.004l-0.053,0.01l-0.035,0.01
			l-0.063,0.009L12.785,23.1l-0.073,0.031l-0.199,0.078l-0.134,0.049l-0.114,0.043l-0.163,0.08l-0.085,0.037l-0.129,0.069
			l-0.011,0.011l-0.018,0.014l-0.015,0.01l-0.032,0.016l-0.356,0.053l-0.269,0.062l-0.408-0.107l-0.27-0.013l-0.536,0.181
			L9.32,23.987l-0.23,0.074l-0.141,0.011l-0.242-0.055L8.416,24.06l-0.18,0.075L8.082,24.25l-0.179,0.075l-0.217,0.042L7.52,24.494
			l-0.243,0.062l-0.281,0.053l-0.256,0.105l-0.104,0.129l-0.063,0.182l0.062,0.268l-0.002,0.225l-0.181,0.359l-0.027,0.246
			l0.075,0.354l0.075,0.234l-0.205,0.096h-0.19l-0.127-0.107l-0.127-0.203l-0.051-0.021l-0.104,0.31l-0.074,0.125L5.654,27
			l-0.019,0.037l-0.032,0.02H5.592H5.58H5.569H5.559H5.547H5.536h-0.01h-0.01l-0.011,0.002L5.497,27.06l-0.01,0.002l-0.01,0.001
			l-0.01,0.002l-0.011,0.002l-0.01,0.002L5.437,27.07l-0.012,0.003l-0.011,0.003L5.402,27.08l-0.012,0.004l-0.012,0.002L5.367,27.09
			l-0.012,0.004l-0.013,0.005L5.33,27.103l-0.013,0.005l-0.014,0.005l-0.016,0.005l-0.016,0.006l-0.017,0.006l-0.019,0.008
			l-0.019,0.007l-0.021,0.008L5.177,27.16l-0.021,0.008l-0.021,0.01l-0.021,0.01l-0.022,0.01l-0.021,0.01l-0.021,0.01l-0.021,0.012
			l-0.021,0.01l-0.02,0.01l-0.02,0.01l-0.019,0.01l-0.017,0.009l-0.017,0.008l-0.015,0.009l-0.013,0.006l-0.014,0.008l-0.012,0.007
			L4.853,27.32l-0.012,0.006l-0.012,0.006l-0.011,0.006l-0.012,0.006l-0.011,0.007l-0.013,0.007l-0.01,0.007l-0.012,0.007
			L4.75,27.379l-0.011,0.008l-0.01,0.009l-0.01,0.008l-0.011,0.009l-0.01,0.01l-0.011,0.01l-0.01,0.012l-0.012,0.012l-0.01,0.012
			l-0.012,0.012l-0.012,0.013l-0.013,0.013l-0.013,0.015l-0.013,0.015l-0.014,0.016l-0.013,0.016L4.557,27.58l-0.013,0.016
			l-0.013,0.018L4.52,27.631l-0.013,0.018l-0.013,0.018l-0.011,0.016l-0.011,0.018l-0.009,0.018l-0.011,0.017L4.444,27.75
			l-0.008,0.017l-0.009,0.017L4.42,27.801l-0.009,0.02l-0.009,0.02l-0.009,0.021l-0.011,0.021l-0.021,0.049l-0.011,0.025
			l-0.012,0.025l-0.012,0.023l-0.01,0.022l-0.01,0.021l-0.009,0.02L4.29,28.086L4.284,28.1l-0.006,0.015l-0.005,0.013l-0.005,0.01
			l-0.004,0.01l-0.002,0.008l-0.002,0.007l-0.002,0.007l-0.002,0.008v0.006v0.006v0.006L4.258,28.2l0.001,0.009l0.002,0.008
			l0.001,0.008l0.002,0.011l0.002,0.01l0.002,0.011l0.002,0.01l0.002,0.009l0.002,0.008l0.001,0.009l0.002,0.006l0.001,0.006
			l0.001,0.006l0.001,0.006l0.001,0.005v0.005l0.001,0.004v0.006l0.001,0.004v0.006l-0.001,0.004L4.28,28.354l-0.001,0.005
			l-0.003,0.006l-0.003,0.005l-0.005,0.006l-0.005,0.006l-0.007,0.006L4.25,28.394l-0.009,0.006l-0.009,0.007l-0.01,0.008
			L4.212,28.42l-0.013,0.008l-0.012,0.008l-0.013,0.008l-0.014,0.008l-0.013,0.008l-0.013,0.008l-0.013,0.008l-0.014,0.009
			l-0.013,0.008l-0.011,0.007l-0.013,0.008l-0.011,0.006l-0.01,0.006l-0.009,0.007l-0.01,0.006l-0.007,0.006l-0.006,0.007
			l-0.006,0.004l-0.005,0.006l-0.004,0.004l-0.004,0.006l-0.004,0.005l-0.006,0.005l-0.004,0.005l-0.005,0.007L3.979,28.59
			l-0.006,0.006l-0.007,0.008L3.96,28.611l-0.01,0.01l-0.01,0.01l-0.01,0.01l-0.013,0.011l-0.014,0.013l-0.014,0.012l-0.015,0.013
			l-0.015,0.013l-0.015,0.014l-0.014,0.013L3.819,28.74l-0.012,0.012l-0.01,0.012l-0.011,0.013l-0.009,0.011l-0.007,0.01
			l-0.007,0.01L3.76,28.817l-0.005,0.009l-0.004,0.01l-0.004,0.008l-0.003,0.008l-0.002,0.008l-0.001,0.008v0.008L3.74,28.883v0.01
			l0.001,0.009v0.009l0.001,0.01l0.001,0.008l0.001,0.011l0.003,0.01l0.002,0.011l0.002,0.01l0.002,0.012l0.002,0.01l0.002,0.012
			l0.002,0.01l0.002,0.01l0.002,0.011l0.002,0.009l0.001,0.01l0.001,0.008v0.01v0.008l-0.001,0.008l-0.001,0.008L3.763,29.1
			l-0.002,0.007l-0.002,0.007L3.755,29.12l-0.003,0.007l-0.005,0.008l-0.006,0.008L3.736,29.15l-0.008,0.008l-0.007,0.01
			l-0.009,0.008l-0.009,0.01l-0.012,0.012l-0.012,0.012l-0.012,0.012l-0.014,0.013l-0.015,0.013l-0.014,0.012l-0.016,0.014
			l-0.015,0.012l-0.016,0.012l-0.017,0.012l-0.016,0.013L3.532,29.33l-0.016,0.012l-0.016,0.012l-0.017,0.011l-0.016,0.013
			l-0.014,0.01l-0.016,0.012l-0.014,0.011L3.413,29.42l-0.014,0.012l-0.012,0.01l-0.01,0.009l-0.009,0.009L3.36,29.467l-0.008,0.008
			l-0.006,0.009l-0.006,0.008L3.336,29.5l-0.005,0.01l-0.004,0.008l-0.006,0.01l-0.004,0.01l-0.005,0.01l-0.004,0.012l-0.004,0.01
			l-0.004,0.011L3.296,29.59l-0.004,0.012l-0.004,0.011l-0.005,0.011l-0.005,0.012l-0.004,0.012l-0.004,0.011L3.266,29.67
			l-0.005,0.014l-0.005,0.015L3.25,29.715L3.243,29.73l-0.006,0.019L3.23,29.768l-0.007,0.019l-0.008,0.021l-0.008,0.02l-0.01,0.021
			l-0.008,0.02l-0.01,0.02l-0.01,0.021L3.16,29.928l-0.01,0.02l-0.01,0.02L3.13,29.984l-0.011,0.018l-0.01,0.018l-0.009,0.016
			l-0.01,0.016l-0.01,0.015l-0.009,0.014l-0.008,0.013l-0.008,0.013l-0.006,0.011l-0.006,0.01l-0.007,0.01l-0.004,0.01l-0.004,0.01
			l-0.003,0.009l-0.004,0.009l-0.002,0.01l-0.003,0.01l-0.002,0.01l-0.003,0.012l-0.002,0.01L3.01,30.234l-0.003,0.011l-0.002,0.011
			l-0.003,0.012l-0.003,0.01l-0.004,0.01l-0.004,0.01l-0.004,0.01l-0.005,0.009l-0.004,0.009l-0.006,0.01l-0.006,0.008l-0.005,0.01
			L2.954,30.36l-0.007,0.009l-0.008,0.01l-0.009,0.01l-0.009,0.01L2.91,30.407l-0.011,0.011l-0.013,0.008l-0.015,0.01l-0.015,0.009
			l-0.016,0.009l-0.017,0.01l-0.017,0.008l-0.016,0.01l-0.017,0.009l-0.016,0.009l-0.014,0.01l-0.014,0.008l-0.013,0.01
			l-0.012,0.009l-0.012,0.009l-0.01,0.01l-0.01,0.01l-0.01,0.009l-0.01,0.009l-0.009,0.01L2.641,30.6L2.634,30.61l-0.008,0.01
			l-0.007,0.009l-0.005,0.01l-0.006,0.01l-0.004,0.009l-0.002,0.009l-0.002,0.01l-0.002,0.008v0.01v0.009v0.009l0.001,0.01
			l0.001,0.011l0.002,0.011l0.002,0.012l0.002,0.01l0.002,0.012l0.002,0.012l0.003,0.012l0.002,0.012l0.003,0.014l0.002,0.014
			l0.003,0.012l0.002,0.014l0.001,0.014l0.002,0.014l0.001,0.013v0.013l0.001,0.012l-0.001,0.012v0.011v0.011l-0.001,0.012
			l-0.001,0.01v0.01l-0.001,0.01v0.008v0.008l0.001,0.007l0.001,0.007l0.001,0.007l0.002,0.007l0.002,0.006l0.002,0.004l0.002,0.006
			l0.004,0.007l0.004,0.006l0.004,0.006l0.006,0.007l0.007,0.008L2.667,31.1l0.008,0.01l0.008,0.009l0.009,0.011l0.012,0.01
			l0.011,0.013l0.013,0.013l0.013,0.014l0.016,0.016l0.015,0.016l0.018,0.016l0.018,0.018l0.02,0.018l0.019,0.018l0.019,0.018
			l0.02,0.018l0.018,0.017l0.018,0.017l0.017,0.015l0.016,0.015l0.015,0.012l0.013,0.012l0.013,0.011l0.011,0.011l0.009,0.01
			l0.009,0.009l0.007,0.008l0.007,0.008l0.005,0.009l0.004,0.008l0.003,0.008l0.003,0.008l0.002,0.009l0.002,0.009l0.002,0.01
			l0.002,0.012l0.002,0.011l0.001,0.013l0.001,0.012l0.001,0.012l0.001,0.012v0.012l-0.001,0.012l-0.001,0.011l-0.001,0.011
			l-0.001,0.01l-0.002,0.01l-0.002,0.01l-0.001,0.01l-0.002,0.01l-0.002,0.01l-0.001,0.009l-0.002,0.01l-0.002,0.009l-0.002,0.01
			l-0.001,0.011l-0.002,0.01l-0.001,0.011l-0.003,0.02l-0.002,0.01l-0.002,0.01l-0.001,0.008l-0.002,0.008l-0.002,0.009
			l-0.001,0.007l-0.002,0.006l-0.002,0.006l-0.003,0.004l-0.003,0.004l-0.004,0.002l-0.004,0.004l-0.006,0.002l-0.007,0.002
			l-0.008,0.003L2.976,31.86l-0.01,0.002l-0.01,0.002l-0.012,0.003l-0.012,0.002l-0.012,0.002l-0.014,0.002l-0.013,0.002
			l-0.013,0.004l-0.014,0.002l-0.014,0.002l-0.013,0.002l-0.013,0.002l-0.015,0.002l-0.014,0.002l-0.015,0.002l-0.014,0.002
			l-0.012,0.002l-0.013,0.002L2.734,31.9l-0.011,0.001l-0.011,0.001l-0.009,0.001l-0.01,0.001H2.688H2.682H2.676H2.671l-0.004-0.001
			l-0.004-0.001l-0.006-0.001l-0.004-0.002l-0.005-0.003l-0.005-0.002l-0.006-0.002l-0.005-0.002l-0.007-0.004l-0.008-0.004
			l-0.009-0.004l-0.009-0.006L2.59,31.867l-0.011-0.006l-0.012-0.008l-0.013-0.006L2.543,31.84l-0.015-0.007l-0.012-0.007
			l-0.014-0.007l-0.015-0.007l-0.013-0.008l-0.013-0.006L2.45,31.792l-0.012-0.006l-0.011-0.005l-0.01-0.005l-0.011-0.003
			L2.398,31.77l-0.007-0.002l-0.007-0.002H2.379l-0.006-0.002H2.366H2.361H2.356H2.352H2.347l-0.005,0.002H2.337l-0.006,0.002
			L2.325,31.77L2.32,31.771l-0.006,0.002l-0.007,0.003l-0.007,0.003l-0.007,0.004l-0.008,0.004l-0.007,0.004l-0.008,0.004
			l-0.009,0.006l-0.008,0.004l-0.008,0.004l-0.01,0.004l-0.009,0.004L2.22,31.82l-0.011,0.004l-0.011,0.005l-0.011,0.004
			l-0.011,0.005l-0.012,0.006l-0.014,0.004l-0.013,0.006l-0.013,0.005l-0.014,0.004l-0.014,0.004l-0.014,0.003l-0.016,0.003
			l-0.015,0.003l-0.014,0.002l-0.015,0.002l-0.014,0.002H2.001l-0.014,0.002l-0.011,0.002l-0.01,0.002l-0.01,0.002l-0.009,0.002
			L1.94,31.893l-0.007,0.002l-0.006,0.004l-0.005,0.003l-0.005,0.003l-0.005,0.004l-0.005,0.003l-0.003,0.004L1.902,31.92
			l-0.004,0.004L1.896,31.93l-0.003,0.008l-0.002,0.007l-0.003,0.008l-0.002,0.009l-0.002,0.01l-0.002,0.012l-0.002,0.011
			l-0.002,0.013l-0.001,0.012L1.876,32.03l-0.002,0.013l-0.001,0.014l-0.001,0.015l-0.001,0.015L1.87,32.1l-0.001,0.014
			l-0.001,0.014l-0.002,0.014l-0.002,0.014l-0.002,0.014L1.859,32.18l-0.003,0.014l-0.004,0.014l-0.004,0.012l-0.004,0.013
			l-0.006,0.012l-0.007,0.013l-0.006,0.012l-0.007,0.011l-0.008,0.013l-0.008,0.01l-0.01,0.013l-0.009,0.012l-0.011,0.013
			l-0.01,0.012l-0.012,0.013L1.74,32.375l-0.012,0.014l-0.012,0.013l-0.015,0.014L1.688,32.43l-0.015,0.015l-0.016,0.017
			l-0.016,0.016l-0.017,0.016L1.61,32.51l-0.016,0.017l-0.018,0.019l-0.016,0.018L1.547,32.58L1.53,32.598l-0.014,0.019
			l-0.014,0.019l-0.015,0.018L1.477,32.67l-0.012,0.016L1.452,32.7l-0.01,0.015l-0.01,0.013l-0.008,0.012L1.416,32.75l-0.007,0.01
			l-0.007,0.008l-0.005,0.009l-0.005,0.009L1.39,32.793l-0.003,0.01l-0.002,0.009l-0.002,0.01v0.013L1.382,32.85l-0.018,0.019
			L1.34,32.92l-0.043,0.055l-0.094,0.111l-0.074,0.182l-0.104,0.3l-0.027,0.331l-0.051,0.128l-0.397,0.508l0.017,0.218L0.651,34.994
			"/>
	</g>
</g>
<g id="Layer_1">
</g>
</svg>
