<?xml version="1.0" encoding="iso-8859-1"?>
<!-- Generator: Adobe Illustrator 16.0.4, SVG Export Plug-In . SVG Version: 6.00 Build 0)  -->
<!DOCTYPE svg PUBLIC "-//W3C//DTD SVG 1.1//EN" "http://www.w3.org/Graphics/SVG/1.1/DTD/svg11.dtd">
<svg version="1.1" xmlns="http://www.w3.org/2000/svg" xmlns:xlink="http://www.w3.org/1999/xlink" x="0px" y="0px" width="9.656px"
	 height="7.553px" viewBox="0 0 9.656 7.553" style="enable-background:new 0 0 9.656 7.553;" xml:space="preserve">
<g id="Layer_133">
	<g id="Layer_138">
		<path id="DISTRICT_x3D_Karachi_East_x2C_PROVINCE_x3D_Sindh" style="fill:#CCCCCC;stroke:#FFFFFF;stroke-width:1.07;" d="
			M3.567,1.177L3.567,1.177L3.564,1.209L3.558,1.245L3.543,1.321L3.522,1.373L3.503,1.422L3.481,1.453L3.46,1.48L3.427,1.506
			L3.404,1.531L3.368,1.552L3.314,1.574L3.259,1.596L3.197,1.629L3.162,1.65L3.139,1.666L3.127,1.682L3.115,1.702L3.099,1.73
			L3.09,1.771L3.082,1.823L3.081,1.904L3.075,1.95L3.068,2.013L3.062,2.057L3.046,2.1L3.033,2.122L3.017,2.135L2.999,2.15
			L2.967,2.175L2.946,2.189L2.907,2.206L2.869,2.217L2.801,2.238L2.744,2.254L2.702,2.262L2.677,2.268L2.635,2.281L2.589,2.299
			L2.568,2.312L2.552,2.331L2.529,2.366L2.508,2.394L2.479,2.44L2.464,2.473L2.443,2.525L2.44,2.548L2.427,2.585L2.413,2.617
			L2.401,2.656L2.384,2.699L2.368,2.723L2.334,2.762L2.312,2.783l-0.02,0.014L2.274,2.803L2.25,2.809L2.193,2.823L2.162,2.832
			L2.114,2.846l-0.05,0.016L2.02,2.879L1.982,2.894l-0.04,0.022L1.92,2.932L1.869,2.964L1.841,2.979L1.784,3L1.739,3.015
			l-0.03,0.015L1.66,3.049L1.635,3.056L1.604,3.057L1.567,3.061L1.528,3.06L1.506,3.058L1.489,3.052L1.466,3.053L1.421,3.057
			L1.384,3.059L1.351,3.067L1.323,3.078L1.288,3.092L1.269,3.105L1.217,3.13L1.181,3.15l-0.03,0.01L1.125,3.167L1.102,3.172
			L1.076,3.18l-0.02,0.006L1.012,3.201l-0.033,0.01l-0.03,0.007L0.917,3.232l-0.02,0.011l-0.025,0.02v0.001L0.856,3.279L0.837,3.3
			l-0.146,0.06L0.654,3.422L0.622,3.484l0.05,0.071l0.021,0.025L0.735,3.64l0.037,0.089l0.036,0.082l0.033,0.058l0.037,0.06
			l0.026,0.049l0.008,0.031l0.019,0.024L0.93,4.043L0.927,4.055L0.905,4.07L0.889,4.083v0.012l0.062,0.122l0.046,0.098l0.011,0.008
			l0.035,0.02l0.033,0.015L1.09,4.359l0.014-0.003l0.037-0.013l0.021-0.006l0.019,0.001l0.014,0.002l0.074,0.032l0.035,0.013
			l0.082,0.002l0.067,0.011l0.119,0.034l0.067,0.025l0.048,0.021h0.007h0.009l0.071-0.036L1.9,4.379l0.046-0.021l0.03-0.012
			L1.99,4.347l0.022,0.005l0.022,0.012l0.019,0.028l0.088,0.149l0.033,0.052l0.008,0.016L2.189,4.61l0.01-0.005l0.023-0.012
			l0.011,0.001l0.008,0.013l0.035,0.063l0.007,0.001L2.29,4.673l0.034-0.017l0.021-0.014h0.006l0.003,0.009l0.064,0.122l0.007,0.008
			l0.008,0.004l0.035-0.011l0.205-0.059L2.89,4.654l0.041-0.009l0.002-0.009L2.932,4.631L2.91,4.604L2.876,4.557L2.814,4.481
			L2.785,4.45V4.44l0.004-0.005l0.009-0.007l0.131-0.062l0.209-0.099L3.22,4.228l0.009-0.001l0.008,0.001l0.017,0.024l0.103,0.146
			l0.095,0.138l0.039,0.04l0.032,0.039l0.021,0.054L3.56,4.71l0.021,0.029l0.032,0.034l0.026,0.033l0.012,0.034L3.642,4.878
			L3.605,4.935L3.542,4.996L3.495,5.041L3.45,5.072L3.433,5.089L3.409,5.151L3.368,5.212L3.323,5.266L3.262,5.33L3.196,5.387
			l-0.068,0.05L3.113,5.462L3.076,5.501L2.993,5.57L2.935,5.624L2.899,5.666L2.878,5.699L2.868,5.74L2.846,5.823L2.841,5.916
			L2.838,5.998l0.006,0.047l0.022,0.097v0.001l0.279-0.026l0.017-0.003l0.03-0.038l0.089-0.131L3.31,5.899l0.013-0.017L3.315,5.835
			L3.31,5.803l0.006-0.009l0.016,0.005l0.07,0.045l0.087,0.039l0.066,0.028l0.036,0.015L3.65,5.963l0.054,0.023l0.047,0.008
			l0.07,0.008l0.064,0.017l0.034,0.022l0.037,0.017l0.049,0.008L4.07,6.109l0.092,0.057L4.22,6.204l0.041,0.021l0.108-0.024
			l0.239-0.049l0.183-0.038l0.133-0.027h0.01l0.011,0.002l0.004,0.009l0.038,0.141l0.008,0.039l0.008,0.007l0.014,0.002l0.065-0.018
			l0.087-0.016l0.042-0.008L5.22,6.249l0.006,0.021L5.25,6.367l0.033,0.145l0.015,0.086l0.035,0.188L5.34,6.811l0.021,0.019
			l0.056,0.037l0.092,0.06l0.068,0.047L5.593,6.98l0.01-0.003l0.044-0.05l0.058-0.062l0.05-0.028l0.072-0.015l0.145-0.038
			L6.074,6.76l0.08-0.01l0.068-0.011L6.266,6.73l0.07-0.04l0.075-0.037l0.09-0.033l0.035-0.008l0.051-0.004l0.127-0.033l0.011-0.009
			l0.004-0.016L6.707,6.456L6.689,6.38V6.366l0.01-0.008l0.043-0.011l0.076-0.012l0.108-0.012l0.12-0.011l0.046-0.01L7.214,6.27
			l0.031-0.01l0.001-0.009l-0.034-0.12L7.174,5.989L7.143,5.874l0.002-0.011l0.012-0.011L7.191,5.85L7.21,5.853l0.028,0.021
			l0.143,0.113l0.148,0.119l0.053,0.043l0.014,0.007l0.01-0.006l0.035-0.038l0.125-0.141L7.9,5.818l0.004-0.012l-0.002-0.01
			L7.863,5.768L7.758,5.684L7.751,5.67l0.006-0.01l0.046-0.06l0.014-0.009l0.019-0.009l0.112-0.022l0.287-0.06l0.014-0.008
			l0.003-0.01L8.241,5.45L8.208,5.292L8.202,5.243l0.006-0.021l0.035-0.112l0.019-0.093l0.004-0.02L8.264,4.989L8.255,4.99
			L8.242,4.999L8.234,5.003L8.221,5.004l-0.025-0.02L8.132,4.913L8.109,4.867L8.1,4.83L8.094,4.826L8.066,4.827L7.811,4.876
			L7.588,4.92L7.391,4.956l-0.09,0.017h-0.01L7.284,4.956L7.251,4.829L6.842,4.911L6.59,4.965L6.402,4.999L6.375,5.004L6.368,5.001
			L6.363,4.987L6.331,4.803L6.285,4.531L6.232,4.238L6.172,3.906L6.157,3.82L6.154,3.797l0.004-0.008l0.009,0.004l0.05,0.029
			l0.176,0.105l0.105,0.055l0.083,0.036l0.104,0.028L6.782,4.07l0.112,0.035L7.02,4.148l0.062,0.034l0.064,0.039l0.078,0.045
			l0.069,0.022l0.069,0.019l0.043,0.006l0.064-0.005l0.112-0.018l0.085-0.006l0.116-0.011l0.073-0.003L7.945,4.27l0.049-0.012
			l0.01-0.007L7.975,4.198L7.896,4.087L7.787,3.963L7.66,3.836L7.562,3.75L7.52,3.713L7.514,3.701l0.01-0.014L7.557,3.65
			l0.116-0.117l0.015-0.019l0.004-0.016L7.686,3.487L7.645,3.449L7.637,3.445L7.622,3.446l-0.04,0.02L7.527,3.489L7.516,3.49
			L7.508,3.486L7.5,3.465L7.493,3.449L7.492,3.438l0.006-0.013l0.029-0.017L7.6,3.363l0.032-0.026l0.017-0.005l0.027,0.009
			L7.699,3.35l0.009,0.006L7.706,3.363L7.691,3.377L7.689,3.39l0.006,0.005l0.023,0.002h0.049l0.014-0.004l0.01-0.015l0.027-0.05
			l0.013-0.009L7.84,3.323l0.024,0.021L7.893,3.37l0.017,0.008l0.019-0.002l0.1-0.028l0.164-0.051l0.021-0.008L8.23,3.268
			l0.047-0.083l0.021-0.027l0.019-0.02l0.078-0.05l0.062-0.036l0.055-0.043l0.014-0.021L8.52,2.971L8.514,2.947l0.002-0.009
			l0.01-0.011L8.58,2.902L8.648,2.86l0.084-0.039L8.775,2.8l0.008-0.009L8.782,2.777L8.766,2.756L8.76,2.733l0.002-0.021l0.006-0.13
			l0.004-0.146l0.008-0.038l0.005-0.015l0.015-0.008l0.066-0.003L8.989,2.37l0.104-0.009l0.012-0.004l0.009-0.01l0.003-0.063
			L9.113,2.271L9.102,2.268L8.841,2.273L8.624,2.278L8.082,2.289L7.714,2.297L7.473,2.302H7.395L7.355,2.419L7.324,2.502
			L7.286,2.605L7.266,2.664L7.197,2.859L7.135,3.044L7.104,3.15L7.075,3.218l-0.08,0.224L6.984,3.478L6.979,3.482L6.963,3.478
			L6.91,3.463L6.801,3.452l-0.14-0.006L6.583,3.438L6.3,3.423L5.935,3.405L5.764,3.394l-0.12-0.006L5.465,3.381L5.432,3.377
			L5.419,3.37L5.413,3.345L5.41,3.324l0.012-0.021l0.01-0.033l0.025-0.02l0.037-0.021l0.023-0.02L5.53,3.188V3.165L5.522,3.141
			L5.519,3.109l0.003-0.028l0.003-0.025L5.524,3.044L5.509,3.022l-0.003-0.01L5.505,2.998V2.963l0.002-0.041l0.01-0.024L5.514,2.882
			l-0.03-0.064L5.48,2.796l-0.002-0.03L5.487,2.74l0.021-0.055l0.016-0.055l0.011-0.028l0.04-0.031l0.017-0.016l0.011-0.027
			l0.004-0.026l0.009-0.019l0.016-0.009l0.027-0.006l0.016-0.012l0.017-0.049l0.005-0.063L5.694,2.271l0.003-0.013l0.018-0.008
			l0.03-0.006l0.01-0.009L5.768,2.21l0.01-0.043l0.009-0.026l0.016-0.029l0.008-0.019l0.001-0.019l0.006-0.009l0.006-0.004
			L5.843,2.06h0.02l0.013-0.002l0.017-0.006l0.012-0.015L5.913,2L5.907,1.943L5.905,1.921L5.912,1.91l0.056-0.063l0.106-0.119
			l0.044-0.053l0.011-0.012L6.128,1.654L6.111,1.637L6.029,1.563L6.016,1.55V1.545l0.01-0.016l0.016-0.017l0.055-0.065l0.108-0.121
			l0.077-0.092L6.318,1.19l0.009-0.009l-0.054-0.01L6.23,1.167l-0.033,0.01L5.976,1.218l-0.112,0.02L5.45,1.311L5.321,1.337H5.3
			L5.293,1.33L5.288,1.312L5.261,1.161L5.254,1.117L5.246,1.096L5.184,0.99l-0.119-0.22L5.038,0.724L4.944,0.552L4.937,0.549
			L4.929,0.55L4.881,0.57l-0.29,0.144L4.242,0.886L4.198,0.906L4.189,0.907L4.177,0.895L4.125,0.834L4.073,0.779L4.064,0.776
			l-0.01,0.003L3.979,0.832L3.808,0.958L3.802,0.966L3.8,0.979L3.822,1.01l0.009,0.021v0.008L3.827,1.046L3.814,1.05l-0.05,0.002
			L3.703,1.061L3.68,1.067L3.65,1.092L3.595,1.147L3.567,1.177"/>
	</g>
</g>
<g id="Layer_1">
</g>
</svg>
