<?xml version="1.0" encoding="iso-8859-1"?>
<!-- Generator: Adobe Illustrator 16.0.4, SVG Export Plug-In . SVG Version: 6.00 Build 0)  -->
<!DOCTYPE svg PUBLIC "-//W3C//DTD SVG 1.1//EN" "http://www.w3.org/Graphics/SVG/1.1/DTD/svg11.dtd">
<svg version="1.1" xmlns="http://www.w3.org/2000/svg" xmlns:xlink="http://www.w3.org/1999/xlink" x="0px" y="0px"
	 width="41.711px" height="35.76px" viewBox="0 0 41.711 35.76" style="enable-background:new 0 0 41.711 35.76;"
	 xml:space="preserve">
<g id="Layer_124">
	<g id="Layer_129">
		<path id="DISTRICT_x3D_Khanewal_x2C_PROVINCE_x3D_Punjab" style="fill:#CCCCCC;stroke:#FFFFFF;stroke-width:1.07;" d="
			M8.955,6.985L8.955,6.985l-0.062,0.07L8.843,7.154L8.746,7.327L8.618,7.546L8.466,7.792L8.405,7.89l-0.22,0.271L8.082,8.312
			L7.936,8.463L7.828,8.547L7.655,8.645l-0.192,0.09l-0.196,0.06L6.933,8.838L6.766,8.832L6.698,8.854L6.653,8.889L6.6,8.967
			L6.521,9.062l-0.062,0.1l-0.12,0.15L6.163,9.417L6.012,9.481l-0.22,0.087L5.459,9.693l-0.34,0.081L4.781,9.851L4.549,9.913
			L4.337,9.981l-0.209,0.09l-0.111,0.063L3.958,10.2l-0.022,0.063l-0.007,0.169l-0.004,0.165L3.89,10.726l-0.021,0.048l-0.066,0.058
			l-0.151,0.09l-0.13,0.042L3.438,10.98l-0.066,0.053l-0.029,0.041l-0.021,0.043l-0.007,0.053l0.011,0.069l0.012,0.09v0.065
			l-0.026,0.057l-0.072,0.046L2.989,11.56l-0.178,0.081l-0.149,0.141l-0.121,0.125L2.415,12.02l-0.133,0.177l-0.094,0.129
			l-0.083,0.053l-0.12,0.025l-0.138-0.006l-0.097-0.033l-0.135-0.076l-0.095-0.062l-0.06-0.061l-0.059-0.065l-0.102-0.06
			l-0.09-0.045l-0.078-0.021l-0.043,0.005l-0.099,0.062l-0.096,0.063l-0.062,0.02l-0.041,0.001l-0.08-0.017l-0.067-0.018
			l-0.05,0.008l-0.02,0.019L0.56,12.153l-0.021,0.059l-0.003,0.161l0.054,0.204l0.063,0.092l0.071,0.085l0.058,0.095l0.007,0.088
			l-0.018,0.047l0.033,0.021l0.048,0.055l0.077,0.024h0.081l0.111-0.01l0.109-0.04l0.093-0.065l0.053-0.005l0.07,0.005l0.104-0.005
			l0.169-0.021l0.215-0.065l0.1-0.015l0.124,0.03l0.146,0.099l0.125,0.094l0.126,0.204l0.041,0.088l0.024,0.045l0.008,0.075
			l0.03,0.084l0.028,0.04l0.065,0.025l0.1,0.01l0.048,0.015l0.04,0.04l0.056,0.055l0.047,0.014h0.058l0.029-0.025l0.022-0.05
			l-0.024-0.064l-0.036-0.07l-0.014-0.06l0.018-0.035l0.034-0.021l0.088-0.005l0.106,0.055l0.143,0.109l0.265,0.113l0.247,0.089
			l0.131,0.035l0.054,0.029l0.006,0.055l-0.027,0.09L4.075,14.16l-0.068,0.08L3.985,14.3l0.001,0.04l0.042,0.035l0.1,0.04
			l0.153,0.059l0.143,0.094l0.218,0.164l0.143,0.143l0.024,0.095l0.001,0.054l-0.027,0.07l-0.058,0.069l-0.053,0.05l-0.08,0.051
			l-0.022,0.024l-0.006,0.056l0.037,0.099l0.03,0.086l0.008,0.107l0.049,0.061l0.129,0.06l0.276,0.069l0.241,0.099l0.229,0.099
			L5.8,16.176l0.083,0.028h0.053l0.059-0.055l0.119-0.203l0.067-0.14l0.046-0.051l0.075-0.015l0.083,0.029l0.036,0.049v0.045
			l-0.062,0.104l-0.074,0.12l-0.058,0.068l-0.068,0.064l-0.019,0.034l-0.005,0.041l0.024,0.044l0.036,0.039v0.056l-0.039,0.06
			l-0.1,0.1l-0.079,0.084l-0.091,0.135l-0.08,0.148l-0.05,0.193l0.002,0.094l0.007,0.109l0.04,0.047l0.203,0.15l0.26,0.158
			l0.143,0.078l0.129,0.011l0.287-0.002l0.274-0.006l0.095,0.03l0.199,0.092l0.39,0.158l0.108,0.041l0.118,0.094l0.036,0.063
			l0.047,0.011l0.041,0.004l0.053-0.035l0.053-0.02l0.083,0.006l0.053,0.033l0.059,0.034l0.06-0.011l0.07-0.034l0.056-0.101
			l0.111-0.107l0.062-0.089l0.1-0.07l0.063-0.015l0.059,0.02l0.024,0.049l0.019,0.075l0.02,0.054l0.03,0.061l0.059,0.029
			l0.146,0.062l0.084,0.061l0.047,0.049l0.048,0.024H9.54l0.151-0.04l0.264-0.08l0.274-0.021l0.335,0.024l0.287,0.078l0.124,0.049
			l0.086,0.035l0.023,0.041l0.024,0.062l0.001,0.084l-0.017,0.123l-0.04,0.158l-0.062,0.129l-0.1,0.145l-0.067,0.162l-0.086,0.188
			L10.671,19.7l-0.051,0.188l-0.046,0.107l0.001,0.064l0.047,0.023h0.1l0.188-0.035l0.141-0.006l0.112,0.029l0.082,0.049
			l0.061,0.035l0.041,0.02h0.06l0.1-0.024l0.198-0.035l0.292-0.086l0.264-0.09l0.142-0.035l0.125-0.045l0.157-0.063l0.107,0.156
			l0.108,0.166l0.106,0.182l0.041,0.07l0.058,0.086l0.08,0.026l0.109,0.005l0.105,0.036l0.034,0.039l-0.003,0.054l-0.087,0.211
			l-0.032,0.057l-0.047,0.029l-0.037,0.014l-0.046,0.006l-0.039,0.044l-0.013,0.053l-0.033,0.091l-0.04,0.043H13.03l-0.057,0.021
			l-0.038,0.021l-0.04,0.051l-0.042,0.091l-0.036,0.014l-0.138,0.002l-0.118,0.011l-0.021,0.029l-0.062,0.119l-0.019,0.145
			l0.104,0.066l0.079,0.027l-0.05,0.029l-0.047,0.103l-0.094,0.185l-0.092,0.147l-0.058,0.063l-0.078,0.027l-0.057,0.018
			l-0.066,0.019l-0.033,0.037l-0.059,0.081l-0.013,0.085l-0.003,0.103l-0.024,0.111l-0.035,0.074l-0.081,0.119l-0.067,0.074
			l-0.035,0.12l-0.027,0.195l-0.062,0.251l-0.096,0.266l-0.138,0.188l-0.102,0.101l-0.136,0.101l-0.189,0.054l-0.125,0.034
			l-0.169,0.119l-0.079,0.072l-0.104,0.194l-0.035,0.065l-0.015,0.102l-0.003,0.111l0.021,0.104l-0.002,0.057l-0.035,0.094
			l-0.047,0.056l-0.157,0.108l-0.101,0.063l-0.113,0.082l-0.057,0.036L9.97,25.673l-0.013,0.055l-0.003,0.104l0.052,0.15
			l-0.001,0.046L9.979,26.12l-0.092,0.121l-0.012,0.055l-0.002,0.058l-0.025,0.121l-0.021,0.037l-0.015,0.073l-0.048,0.121
			l-0.09,0.063l-0.034,0.056l-0.116,0.231l-0.152,0.261l-0.16,0.236l-0.069,0.094l-0.09,0.092l-0.09,0.073l-0.023,0.036
			l-0.003,0.094l-0.046,0.074l-0.068,0.111l-0.061,0.147l0.008,0.142l-0.037,0.147l-0.058,0.074l-0.057,0.063l-0.014,0.037
			l-0.022,0.074L8.58,28.87l-0.047,0.084l-0.09,0.045l-0.179,0.102l-0.166,0.018l-0.143-0.003l-0.075-0.048l-0.077-0.029H7.749
			l-0.044,0.019l-0.014,0.065l-0.002,0.073L7.643,29.27l-0.056,0.037L7.53,29.343l-0.09,0.035l-0.021,0.037l-0.023,0.028
			l-0.034,0.103l-0.078,0.019l-0.065-0.001l-0.044-0.027l-0.075-0.039l-0.076-0.029l-0.045,0.019l-0.045,0.037l-0.045,0.046
			l-0.046,0.064l-0.045,0.018l-0.11,0.037l-0.149,0.043l-0.14,0.064L6.33,29.859l-0.09,0.103l-0.113,0.203l-0.029,0.067
			l-0.053,0.036l-0.053-0.001l-0.089,0.006l-0.062,0.028l-0.072,0.09l-0.054,0.044l-0.054,0.036l-0.08,0.021l-0.185,0.006
			l-0.105,0.012l-0.201,0.007L4.933,30.53L4.6,30.533l-0.115,0.015l-0.079,0.043l-0.091,0.082L4.26,30.738l-0.063,0.118
			l-0.054,0.036l-0.09,0.059l-0.079,0.021L3.84,31.038l-0.071,0.051l-0.056,0.119l-0.067,0.238l-0.028,0.127l-0.059,0.17l-0.08,0.09
			l-0.055,0.051l-0.07,0.037H3.292L3.224,31.89l-0.051-0.075l-0.066-0.173l-0.032-0.053L3.005,31.55l-0.14-0.023L2.76,31.533
			l-0.088,0.035L2.45,31.663l-0.062,0.036l-0.026,0.029L2.351,31.79l0.007,0.073l-0.036,0.067l-0.046,0.06l-0.036,0.089l0.032,0.061
			l0.068,0.066l0.087,0.023l0.14,0.039l0.062,0.029l0.043,0.047l0.104,0.031l0.054-0.016l0.054-0.029l0.087,0.002l0.026,0.021
			l0.05,0.099l0.042,0.067l0.068,0.061l0.062-0.014l0.062-0.021l0.097-0.037l0.044,0.002h0.062l0.062,0.017l0.079,0.017h0.069
			l0.072-0.088l0.036-0.06l0.056-0.119l0.055-0.044l0.097-0.016l0.062,0.002l0.088,0.023l0.051,0.053l0.078,0.039l0.095,0.053
			l0.034,0.054l0.022,0.082l-0.019,0.06l-0.046,0.053L4.335,32.71l-0.02,0.053l-0.002,0.074l-0.021,0.09l-0.046,0.096l-0.045,0.053
			l-0.1,0.088l-0.1,0.088l-0.081,0.09L3.885,33.43l-0.04,0.155l0.017,0.113l0.03,0.112l0.083,0.149l0.102,0.145l0.139,0.09
			l0.189,0.094l0.094,0.09l0.217,0.191l0.188,0.129l0.137,0.1l0.096,0.023l0.185-0.014l0.228-0.004l0.148,0.001l0.13,0.054
			l0.111,0.023l0.142-0.014l0.104-0.021l0.088,0.001l0.053,0.008l0.031,0.091l0.041,0.104l0.049,0.135l0.043,0.023l0.096,0.008
			l0.07-0.021l0.144-0.109l0.127-0.147l0.094-0.201l0.002-0.089L6.97,34.597l-0.066-0.061l-0.025-0.039l0.001-0.045l0.002-0.06
			l0.062-0.036l0.062-0.045l0.062-0.066l0.002-0.065l-0.06-0.068l-0.121-0.017l-0.147-0.031L6.665,33.98l-0.007-0.06l0.029-0.098
			l0.082-0.119l0.143-0.103l0.16-0.072l0.073-0.11l0.101-0.142l0.037-0.073l0.054-0.029l0.087,0.009l0.094,0.09l0.053,0.031
			l0.062-0.007l0.035-0.016l0.026-0.021l0.07-0.029l0.104,0.001l0.062-0.029l0.045-0.052l0.027-0.036l-0.015-0.091l-0.032-0.082
			l0.002-0.053l0.054-0.036l0.069,0.001l0.061,0.022l0.042,0.074l0.04,0.099l0.016,0.112l0.051,0.053l0.069,0.009l0.07-0.015
			l0.026-0.029l0.106-0.053l0.053-0.006l0.098-0.021l0.122,0.002l0.096,0.008l0.149-0.028l0.104-0.097l0.077-0.125l-0.016-0.177
			L9.3,32.527l0.113-0.118l0.044-0.035l0.032-0.006h0.031l0.038,0.016l0.033,0.018l0.037,0.053l0.073,0.043l0.051,0.012l0.054,0.002
			l0.058-0.029l0.064-0.076l0.034-0.062l0.017-0.129l-0.007-0.133l-0.016-0.096l0.014-0.064l0.025-0.057l0.051-0.07l0.045-0.06
			l0.063-0.039l0.14-0.067l0.065-0.072l0.033-0.051l0.027-0.036l0.01-0.044l-0.003-0.034l-0.001-0.062l0.015-0.059l0.021-0.04
			l0.017-0.017l0.027-0.014l0.051-0.012l0.028-0.018l0.028-0.029l0.021-0.025l0.011-0.052l0.018-0.036l0.021-0.023l0.057-0.028
			l0.044-0.022l0.063-0.031l0.035-0.033l0.021-0.047l0.002-0.047l-0.01-0.055l-0.024-0.072l-0.057-0.063l-0.102-0.122l-0.037-0.082
			l0.013-0.089l0.034-0.087l0.068-0.057l0.091-0.035l0.123-0.036l0.143-0.015h0.176l0.216-0.002l0.102,0.022l0.096,0.037
			l0.067,0.054l0.057,0.09l0.017,0.082l0.048,0.073l0.062,0.028l0.16-0.002l0.102-0.002l0.043,0.022l0.042,0.019l0.044,0.064
			l0.099,0.126l0.075,0.063l0.104,0.029l0.21,0.03l0.152,0.001l0.169-0.017l0.189-0.056l0.185-0.09l0.173-0.113l0.102-0.101
			l0.07-0.106l0.022-0.125l0.017-0.098l0.02-0.117L14,29.936l0.041-0.033l0.074-0.021l0.155-0.051l0.08-0.052l0.04-0.061
			l0.022-0.073l0.021-0.104l0.005-0.114l0.033-0.071l0.055-0.076l0.049-0.046l0.056-0.028l0.047-0.006l0.067,0.002h0.03l0.039,0.025
			l0.005,0.072l-0.005,0.135L14.8,29.591l0.062,0.203l0.059,0.121l0.046,0.045l0.066,0.006l0.055-0.01l0.107-0.041l0.071-0.064
			l0.099-0.104l0.139-0.164l0.109-0.1l0.083-0.124l0.144-0.25l0.116-0.184l0.045-0.048l0.036-0.012h0.031l0.043,0.004l0.062,0.021
			l0.178,0.087l0.142,0.089l0.157,0.086l0.27,0.113l0.242,0.123l0.146,0.049l0.095,0.011h0.09l0.1-0.019l0.117-0.009l0.129,0.013
			l0.039-0.013l0.044-0.045l0.052-0.039l0.047-0.057l0.045-0.047l0.045-0.035l0.07-0.024l0.104-0.021l0.126-0.028l0.093-0.049
			l0.085-0.068l0.069-0.08l0.041-0.135l0.002-0.071l-0.028-0.069l-0.04-0.064l-0.086-0.108l-0.023-0.086l-0.004-0.088l0.002-0.06
			L18.54,28.2l0.042-0.063l0.104-0.153l0.115-0.156l0.069-0.082l0.068-0.033l0.043-0.006l0.055,0.02l0.06,0.073l0.069,0.11
			l0.072,0.07l0.062,0.025h0.035l0.083-0.014l0.045-0.039l0.09-0.11l0.088-0.099l0.068-0.088l0.039-0.091l0.027-0.101l0.035-0.096
			l0.043-0.076l0.045-0.057l0.071-0.025l0.078-0.012l0.082,0.01l0.134,0.024l0.199,0.062l0.245,0.059l0.212,0.066l0.193,0.074
			l0.33,0.141l0.107,0.047l0.309,0.156l0.192,0.072l0.225,0.071l0.159,0.05l0.14,0.041l0.086,0.008l0.07-0.013l0.084-0.052
			l0.069-0.066l0.047-0.087l0.031-0.032l0.061-0.019h0.036l0.049,0.022l0.034,0.031l0.037,0.053l0.042,0.037l0.065,0.002
			l0.043-0.008l0.08-0.035l0.09-0.103l0.088-0.124l0.033-0.043l0.023-0.014l0.082,0.014l0.059,0.021l0.056,0.066l0.067,0.087
			l0.064,0.039l0.112,0.015l0.168,0.006l0.066,0.002l0.039,0.021l0.014,0.024l0.046,0.138l0.046,0.113l0.041,0.049l0.043,0.021
			l0.059,0.013l0.099-0.017l0.124-0.048l0.128-0.089l0.139-0.113l0.096-0.117l0.047-0.086l0.052-0.119l0.055-0.092l0.075-0.158
			l0.034-0.075l0.041-0.134l0.083-0.104l-0.005-0.039l0.031-0.111l0.084-0.221l0.086-0.141l0.151-0.152l0.182-0.174L26.4,26.1
			l0.228-0.067l0.283-0.102l0.232-0.028l0.126-0.006l0.124,0.022l0.063,0.039l0.229,0.174l0.136,0.062l0.151,0.013l0.04-0.029
			l0.025-0.105l0.004-0.086l-0.022-0.056l-0.089-0.085l-0.138-0.156l-0.071-0.111l-0.063-0.176l-0.084-0.275l-0.038-0.18
			l0.026-0.129l0.023-0.09l0.044-0.072l0.062-0.074l0.098-0.096l0.123-0.084l0.061-0.017l0.066-0.001l0.039,0.006l0.083,0.051
			l0.183,0.062l0.091,0.033l0.17,0.021l0.1-0.001l0.101-0.005l0.101-0.035l0.146-0.057l0.192-0.022l0.087-0.017l0.074-0.029
			l0.069-0.066l0.049-0.067l0.044-0.084l0.029-0.039l0.055-0.046l0.088-0.045l0.126-0.023l0.147-0.051l0.088-0.04l0.048-0.039
			l0.03-0.062l0.002-0.057l-0.01-0.072l0.01-0.045l0.029-0.066l0.034-0.034l0.041-0.019l0.083,0.004l0.163,0.031l0.131-0.001
			l0.146-0.012l0.102-0.034l0.094-0.051l0.089-0.073l0.095-0.028h0.099l0.115,0.045l0.139,0.094l0.068,0.057l0.079,0.006
			l0.053-0.013l0.073-0.022l0.075-0.062l0.067-0.051l0.067-0.034l0.07,0.005l0.046,0.007h0.04l0.047-0.023l0.066-0.045l0.028-0.039
			l0.003-0.041l-0.03-0.055l-0.022-0.045l-0.036-0.052l-0.04-0.101L32.2,22.93l0.012-0.078l0.021-0.058l0.084-0.09l0.055-0.039
			l0.152-0.053l0.125-0.012l0.104-0.012l0.048-0.041l0.058-0.084l0.044-0.078l0.058-0.043l0.096-0.062l0.086-0.029l0.176,0.006
			l0.072-0.002l0.064-0.012l0.062-0.027l0.116-0.125l0.075-0.062h0.06l0.062,0.027l0.048,0.066l0.099,0.106l0.124,0.104l0.105,0.066
			l0.146,0.072l0.103,0.021l0.109,0.016l0.106,0.051l0.042,0.05l0.146,0.062l0.135,0.021l0.145-0.022l0.149-0.035l0.217-0.069
			l0.172-0.062l0.238-0.109l0.198-0.086l0.094-0.069l0.145-0.142l0.082-0.092l0.041-0.039l0.148-0.023l0.141-0.002l0.123,0.005
			l0.021-0.56l-0.062-0.299l-0.01-0.086l0.008-0.062l0.037-0.065l0.047-0.096l0.029-0.115l0.012-0.092l-0.01-0.143l0.019-0.077
			l0.024-0.14l0.029-0.121l0.002-0.172l-0.008-0.152v-0.159l-0.009-0.196l-0.04-0.068l-0.056-0.063l-0.088-0.071l-0.115-0.084
			l-0.047-0.07l-0.01-0.129l-0.008-0.104l0.022-0.128l0.04-0.09l0.064-0.063l0.052-0.021l0.075-0.04l0.056-0.054l0.05-0.059
			l0.03-0.078l0.021-0.103l-0.009-0.085l-0.013-0.221l-0.011-0.184l0.025-0.141l0.039-0.047l0.07-0.053l0.104-0.056l0.146-0.05
			l0.12-0.067l0.123-0.093l0.085-0.118l0.032-0.091l0.061-0.088l0.036-0.121l0.024-0.243l0.023-0.079l0.016-0.061l0.055-0.045
			l0.083-0.107l0.081-0.137l0.134-0.203l0.048-0.082l0.057-0.107l0.093-0.189l0.055-0.102l0.008-0.062l-0.013-0.122l-0.012-0.123
			l-0.014-0.171l-0.001-0.1l0.02-0.204l0.032-0.2l0.04-0.321l0.007-0.127l-0.018-0.073l-0.04-0.129l-0.046-0.123l-0.014-0.116
			l-0.01-0.14l0.052-0.224l-0.04-0.268l0.019-0.145l0.048-0.162l0.078-0.143l0.133-0.177l0.151-0.188l0.132-0.17l0.133-0.123
			l0.199-0.18l0.174-0.182l0.137-0.164l0.09-0.104l0.142-0.226l0.128-0.201l0.085-0.184l0.104-0.183l0.089-0.111l0.046-0.088
			l0.009-0.072v-0.054l-0.03-0.084l-0.04-0.062l-0.018-0.09l0.01-0.066l0.007-0.06l0.001-0.06l-0.027-0.056l-0.067-0.068
			l-0.021-0.043l0.002-0.071l0.018-0.083l0.015-0.155l-0.012-0.12L40.153,8.87l-0.026-0.108l-0.009-0.083l0.024-0.077l0.036-0.063
			l0.055-0.04l0.105-0.026l0.136-0.031l0.155-0.024l0.102-0.026l0.064-0.021l0.074-0.039l0.088-0.038l0.09-0.044l0.082-0.085
			l0.019-0.071l0.009-0.059l-0.026-0.054l-0.025-0.054l-0.088-0.104l-0.11-0.116l-0.047-0.09l-0.009-0.106l0.017-0.093l0.061-0.179
			l0.054-0.133l-0.014-0.065l0.003-0.06l-0.215,0.01l-0.36-0.052l-0.134-0.051L40.2,6.837l-0.045-0.1l-0.022-0.1l-0.011-0.125
			l-0.005-0.125l-0.035-0.06l-0.074-0.065l-0.074-0.081L39.819,6.11l-0.151,0.004l-0.099,0.02l-0.15,0.019l-0.231-0.017
			l-0.093-0.021l-0.134-0.021l-0.149,0.009l-0.141,0.019l-0.302,0.099L38.194,6.28l-0.093,0.095L37.96,6.509l-0.134,0.034
			l-0.104-0.025l-0.046-0.045l-0.062-0.021l-0.088,0.02l-0.069,0.02l-0.087,0.037l-0.25,0.104l-0.238,0.109l-0.109,0.069
			l-0.088,0.115l-0.252,0.344L36.25,7.449l-0.145,0.075l-0.11,0.004l-0.093-0.031l-0.226-0.166l-0.213-0.182l-0.075-0.051
			L35.32,7.104l-0.035,0.035l-0.066,0.265l-0.041,0.206l-0.059,0.1l-0.047-0.005l-0.058-0.175l-0.005-0.12l0.03-0.225l0.024-0.181
			l-0.022-0.035L34.92,6.947l-0.214,0.009L34.561,6.98l-0.151,0.06l-0.168,0.124L34.1,7.339l-0.153,0.313l-0.053,0.179l-0.03,0.141
			l-0.036,0.12L33.74,8.181l-0.28,0.214l-0.116,0.084l-0.23,0.084l-0.088,0.064l-0.047,0.115l-0.007,0.17l-0.014,0.17l-0.041,0.06
			l-0.04,0.04h-0.07l-0.062-0.025l-0.051-0.05l-0.056-0.112l-0.057-0.141l-0.012-0.115l0.042-0.175l0.076-0.149l0.059-0.055
			l0.122-0.115l0.063-0.07l0.069-0.095l0.047-0.09l0.03-0.064L33.1,7.892l0.082-0.095l0.076-0.06l0.059-0.04l0.075-0.035
			l0.115-0.044l0.088-0.045l0.069-0.055l0.029-0.07l0.001-0.041l-0.029-0.02h-0.058l-0.064,0.02l-0.075,0.06L33.38,7.53
			l-0.075,0.015L33.236,7.55l-0.104,0.035l-0.204,0.154l-0.168,0.1l-0.15,0.054l-0.19,0.009l-0.1,0.015l-0.047,0.019l-0.215,0.135
			l-0.318,0.104L31.524,8.22l-0.209-0.006l-0.15-0.036l-0.19-0.07l-0.16-0.096l-0.087-0.076l-0.154-0.156l-0.075-0.181l-0.057-0.1
			l-0.047-0.061l-0.08-0.025l-0.081,0.005l-0.06,0.019l-0.128,0.075l-0.14,0.08l-0.115,0.035l-0.684-0.008l-0.481-0.052
			l-0.312-0.041l-0.603-0.12L27.48,7.353l-0.66-0.137L26.629,7.19l-0.035-0.041l0.007-0.07l0.041-0.18l0.064-0.16l0.122-0.16
			l0.076-0.08l0.099-0.06l0.093-0.055L27.19,6.29l0.153-0.356l0.104-0.227l0.135-0.353l0.132-0.297l0.054-0.219l0.007-0.06
			l-0.042-0.055l-0.074,0.004h-0.054l-0.058-0.022V4.623l0.032-0.046l0.043-0.031l0.068-0.039l0.104-0.059l0.09-0.073l0.085-0.109
			l0.208-0.313l0.224-0.336l0.336-0.491l0.139-0.205l0.182-0.286l0.207-0.345l0.111-0.237l0.071-0.149l0.06-0.159l0.111-0.25
			l0.14-0.273l-0.385-0.036L28.92,1.224l-0.436,0.051L28.24,1.354l-0.129,0.04l-0.051,0.008l-0.06-0.002l-0.215-0.067l-0.39-0.177
			l-0.285-0.104l-0.321-0.08l-0.399-0.147l-0.458-0.127l-0.164-0.044l-0.184-0.029l-0.171-0.004l-0.205,0.005l-0.28,0.06
			l-0.314,0.057l-0.372,0.086l-0.217,0.026l-0.271-0.024L23.47,0.786l-0.332-0.091l-0.35-0.11l-0.094-0.04l-0.048,0.004L22.6,0.559
			l-0.051,0.049l-0.002,0.106L22.532,0.97l-0.024,0.175L22.465,1.24l-0.069,0.059l-0.121,0.033l-0.117,0.024l-0.122,0.033
			l-0.08,0.054l-0.057,0.054l-0.062,0.075l-0.021,0.074l-0.026,0.07l-0.092,0.069l-0.095,0.039L21.363,1.86l-0.245,0.037
			L20.962,1.96l-0.093,0.068l-0.08,0.065l-0.081,0.024l-0.094-0.001L20.401,2.08l-0.22-0.057l-0.087-0.033l-0.048-0.005
			l-0.046,0.024l-0.005,0.035l0.08,0.091l0.113,0.101l0.114,0.116l0.038,0.07l0.014,0.055L20.322,2.53l-0.039,0.055l0.008,0.065
			l0.014,0.065l0.016,0.104l-0.026,0.109l-0.072,0.159l-0.051,0.059l-0.062,0.035l-0.11,0.039l-0.205,0.028l-0.334,0.027
			l-0.217,0.028l-0.094,0.009l-0.105-0.011l-0.025-0.035l-0.02-0.084l0.006-0.2l-0.014-0.06l-0.036-0.05l-0.083-0.021l-0.135,0.004
			l-0.328,0.027h-0.111l-0.06-0.03l-0.056-0.06L18.14,2.751l-0.135-0.03l-0.072-0.006h-0.108l-0.131-0.026l-0.06-0.015l-0.035,0.01
			l-0.021,0.03l-0.009,0.09l0.003,0.12l-0.03,0.205l-0.049,0.119l-0.109,0.074l-0.175,0.049l-0.223,0.019L16.92,3.366l-0.1-0.095
			L16.725,3.12l-0.119-0.11l-0.203-0.126l-0.196-0.096L16.08,2.691l-0.03-0.045l-0.054-0.025h-0.035l-0.074,0.064l-0.062,0.075
			l-0.091,0.119l-0.059,0.045L15.6,2.944l-0.129,0.004l-0.11-0.025l-0.05-0.055l-0.015-0.115l-0.001-0.045l-0.025-0.04l-0.088-0.01
			l-0.047,0.015l-0.051,0.065l-0.033,0.06l-0.046,0.044l-0.034,0.03l-0.135,0.014l-0.133,0.03L14.529,3l-0.104,0.069L14.31,3.179
			l-0.113,0.079l-0.128,0.065l-0.209,0.059L13.708,3.44L13.563,3.54l-0.206,0.204l-0.241,0.184l-0.094,0.055l-0.059,0.004
			L12.9,3.972l-0.113-0.061l-0.089-0.05l-0.076-0.015l-0.064,0.025l-0.126,0.084l-0.178,0.174l-0.242,0.184l-0.188,0.169
			L11.579,4.81l-0.228,0.284l-0.176,0.253l-0.039,0.08v0.059l0.043,0.036l0.09,0.08l0.084,0.055l0.023,0.035l0.002,0.035
			l-0.063,0.05l-0.145,0.095L10.823,6.08l-0.132,0.089l-0.136,0.04h-0.123L9.674,6.42L9.299,6.565L9.203,6.7L9.048,6.887
			L8.955,6.985"/>
	</g>
</g>
<g id="Layer_1">
</g>
</svg>
