<?xml version="1.0" encoding="iso-8859-1"?>
<!-- Generator: Adobe Illustrator 16.0.4, SVG Export Plug-In . SVG Version: 6.00 Build 0)  -->
<!DOCTYPE svg PUBLIC "-//W3C//DTD SVG 1.1//EN" "http://www.w3.org/Graphics/SVG/1.1/DTD/svg11.dtd">
<svg version="1.1" xmlns="http://www.w3.org/2000/svg" xmlns:xlink="http://www.w3.org/1999/xlink" x="0px" y="0px"
	 width="16.269px" height="15.638px" viewBox="0 0 16.269 15.638" style="enable-background:new 0 0 16.269 15.638;"
	 xml:space="preserve">
<g id="Layer_61">
	<g id="Layer_66">
		<path id="DISTRICT_x3D_Sahiwal_x2C_PROVINCE_x3D_Punjab" style="fill:#CCCCCC;stroke:#FFFFFF;stroke-width:1.07;" d="
			M7.031,15.131L7.031,15.131l0.26-0.091l0.354-0.116l0.104-0.074l0.041-0.037l0.063-0.029l0.062,0.008l0.077,0.076l0.212,0.154
			l0.135,0.056l0.069,0.017l0.037-0.004l0.015-0.047l0.036-0.033l0.047-0.033l0.06-0.006L8.727,15l0.093,0.075l0.097,0.021h0.053
			l0.079-0.039l0.12-0.09l0.024-0.068l0.016-0.164l-0.032-0.186L9.174,14.49l0.029-0.109l0.14-0.121l0.089-0.058l0.069-0.001
			l0.091,0.012l0.091,0.029l0.074-0.006l0.089-0.053l0.09-0.061l0.039-0.087l0.055-0.142l0.041-0.2l0.046-0.087l0.066-0.043
			l0.105-0.038l0.109-0.07l0.062-0.078l0.004-0.04l-0.022-0.055l-0.065-0.072l-0.002-0.066l0.06-0.129l0.065-0.129l0.072-0.097
			l0.077-0.088l0.057-0.063l0.004-0.037l-0.006-0.037l-0.061-0.016l-0.091-0.013l-0.104-0.075l-0.043-0.08l-0.002-0.064l0.057-0.051
			l0.054,0.008l0.075,0.05l0.076,0.03l0.059-0.006l0.046-0.047l-0.001-0.05l-0.044-0.036l-0.086-0.016l-0.027-0.04l0.016-0.046
			l0.073-0.038l0.228-0.046l0.157-0.076l0.073-0.057l0.023-0.049l-0.001-0.041l-0.049-0.045l-0.075-0.006l-0.101,0.002l-0.092-0.025
			l-0.033-0.036l0.016-0.037l0.083-0.052l0.066-0.084l0.035-0.082l-0.015-0.1l-0.065-0.103l-0.007-0.032l0.01-0.041l0.041-0.033
			l0.109-0.066l0.049-0.014l0.068,0.008l0.124,0.057l0.163,0.128l0.138,0.138l0.061,0.035l0.048-0.001l0.042-0.015l0.046-0.051
			l0.036-0.055l0.041-0.064l0.041-0.037l0.079-0.016l0.043-0.011l0.031-0.019l0.036-0.02l0.021-0.037l0.024-0.029l0.017-0.014
			l0.065-0.045l0.074-0.007l0.069,0.026l0.061,0.049l0.065,0.053l0.087,0.071l0.071,0.062l0.075,0.018l0.048-0.002l0.029-0.031
			l0.011-0.051l-0.033-0.049l-0.098-0.062l-0.07-0.058l-0.029-0.045l0.021-0.055l0.064-0.139l0.067-0.064l0.089-0.053l0.052-0.023
			l0.059-0.032l0.021-0.041l0.005-0.037l-0.002-0.05l-0.029-0.068l-0.06-0.062l-0.07-0.033l-0.074-0.003l-0.055-0.026l-0.012-0.031
			l-0.001-0.05l0.057-0.042l0.069-0.029l0.078-0.047l0.042-0.033l0.085-0.006l0.063,0.021l0.099,0.074l0.241,0.214l0.074,0.038
			h0.054l0.058-0.033l0.084-0.074l0.2-0.244l0.154-0.199l0.193-0.25l0.021-0.065L14.256,9.5l-0.029-0.042l-0.001-0.03l0.083-0.056
			l0.021-0.037l-0.017-0.047L14.22,9.212l-0.08-0.088l-0.113-0.076l-0.071,0.003L13.78,9.066h-0.07L13.554,9.01l-0.266-0.156
			l-0.059-0.053l-0.008-0.042l0.031-0.126l0.081-0.128l0.047-0.072l0.006-0.054l-0.03-0.054l-0.001-0.042l-0.002-0.06l0.076-0.062
			l0.041-0.037l0.07-0.001l0.035,0.029l0.063,0.004l0.041-0.013l0.034-0.042l0.055-0.073l0.033-0.055l0.021-0.055l-0.001-0.042
			L13.819,7.81l-0.018-0.102l-0.063-0.069l-0.039-0.113L13.688,7.43l0.004-0.125l0.062-0.085l0.005-0.09l0.03-0.139l0.093-0.218
			l0.052-0.157l0.109-0.128l0.108-0.074l0.1-0.026l0.099-0.002l0.062-0.001l0.062-0.049l0.09-0.056l0.182-0.07l0.188-0.022
			l0.17-0.073l0.117-0.118l0.059-0.086l0.034-0.108l0.02-0.125l-0.016-0.14l-0.014-0.079L15.25,5.378l-0.158-0.076l-0.174-0.099
			l-0.073-0.068l-0.026-0.07L14.814,5l0.03-0.073l0.037-0.067L14.878,4.8l-0.01-0.041l-0.064-0.026l-0.037-0.04l-0.005-0.065
			l0.005-0.03l0.119-0.101l0.051-0.074L14.933,4.37l-0.037-0.04L14.81,4.287l-0.104-0.019l-0.133,0.006l-0.142-0.023l-0.115-0.048
			l-0.067,0.016l-0.125,0.006l-0.099-0.013l-0.09-0.085l-0.069-0.009l-0.074,0.027L13.646,4.2l-0.103,0.028l-0.07-0.015L13.38,4.164
			l-0.074-0.056l-0.004-0.06l0.005-0.036l0.039-0.043l0.108-0.053l0.043-0.061l0.012-0.042l-0.004-0.06L13.459,3.69l-0.054-0.081
			L13.4,3.55l-0.002-0.024l0.021-0.019l0.056-0.002l0.058,0.003l0.084,0.008l0.062-0.021l0.115-0.047l0.068-0.009l0.069-0.003
			l0.071,0.026l0.074,0.068l0.047,0.081l0.107,0.054l0.084,0.008l0.062-0.021l0.093-0.07l0.07-0.099l0.078-0.08l0.104-0.095
			l0.111-0.112l0.1-0.088l0.056-0.003l0.05,0.016l0.037,0.027l0.06,0.057l0.052,0.057l0.094,0.013l0.09-0.01l0.075-0.016
			l0.079-0.051l0.061-0.05l0.072-0.075l0.029-0.067l-0.017-0.041l-0.058-0.027l-0.114-0.036l-0.123-0.071l-0.174-0.099l-0.115-0.048
			l-0.154-0.016l-0.204-0.032l-0.385-0.023l-0.318-0.068l-0.26-0.023l-0.509,0.001l-0.259-0.012l-0.102-0.048l-0.004-0.047
			l0.038-0.056l0.064-0.086l0.031-0.049L13.004,2.19l-0.052-0.039l-0.238-0.119L12.683,1.98l0.019-0.048l0.031-0.043l0.074-0.045
			l0.034-0.001l0.044,0.039l0.047,0.075l0.1,0.013l0.109-0.029l0.135,0.041l0.339,0.15l0.375,0.19l0.284,0.087l0.168,0.021
			l0.133-0.018l0.119-0.077l0.031-0.073L14.72,2.197l-0.032-0.062l-0.025-0.082l-0.005-0.083l-0.005-0.047l0.03-0.079l0.005-0.036
			l-0.023-0.046L14.56,1.653l-0.071-0.101l-0.091-0.085l-0.115-0.083l-0.083,0.01l-0.081,0.051l-0.194,0.217l-0.14,0.107
			l-0.077,0.004l-0.053-0.069l-0.03-0.135l-0.087-0.061l-0.323-0.026l-0.308-0.003l-0.221,0.052l-0.301,0.086l-0.208,0.01
			l-0.222-0.073l-0.12-0.018l-0.166,0.02l-0.081,0.181l-0.046,0.126l-0.012,0.09l-0.003,0.108l0.018,0.138l0.002,0.066l0.002,0.071
			l-0.046,0.091l-0.096,0.11l-0.199,0.154l-0.188,0.125l-0.236,0.106l-0.167,0.052l-0.141,0.027l-0.092-0.004l-0.179-0.074
			l-0.167-0.177L9.935,2.581L9.839,2.433L9.736,2.328L9.579,2.259L9.432,2.238L9.326,2.24L9.173,2.28L9.025,2.307L8.927,2.309
			L8.668,2.295L8.504,2.269L8.271,2.262l-0.28,0.006L7.66,2.275L7.449,2.262L7.263,2.194L7.062,2.067L6.91,1.908L6.849,1.783
			L6.825,1.682l0.028-0.187l0.045-0.163l0.011-0.138L6.87,1.093L6.763,1.042L6.457,0.959L6.121,0.86L5.873,0.799l-0.15-0.08
			L5.651,0.666L5.575,0.722L5.549,0.771l-0.006,0.03l0.002,0.072l-0.019,0.09L5.493,1.03l-0.11,0.092l-0.15,0.093L5.116,1.338
			L5.064,1.525L5.053,1.609l0.001,0.143L5.03,1.866L4.982,1.921L4.865,1.99L4.682,2.024L4.444,2.035l-0.1,0.014L4.297,2.086
			L4.249,2.141L4.223,2.214l0.003,0.102l0.067,0.112l0.088,0.124l-0.09,0.149l-0.338-0.03L3.599,2.753L3.475,2.875L3.403,2.904
			L3.337,2.915L3.254,2.912L3.103,2.874L2.978,2.842L2.919,2.846L2.864,2.875L2.843,2.903L2.773,2.966L2.666,3.088l-0.05,0.075
			L2.608,3.248L2.638,3.43L2.61,3.618L2.607,3.735l0.029,0.093l0.051,0.074l0.102,0.035l0.134,0.028l0.125,0.039l0.194,0.102
			l0.112,0.067l0.03,0.067v0.089l-0.02,0.153l-0.111,0.28L3.035,5.215L2.969,5.404L2.945,5.536L2.943,5.828L2.941,6.17L2.904,6.255
			l-0.059,0.04L2.733,6.313L2.629,6.32L2.591,6.339L2.57,6.392l0.01,0.085l0.029,0.078L2.63,6.597l0.102,0.035L2.828,6.66
			l0.108,0.032l0.032,0.039l0.03,0.085l0.039,0.181L3.06,7.136L3.11,7.257l0.085,0.142l0.084,0.11l0.093,0.092l0.055,0.042
			l0.021,0.06L3.431,7.782L3.424,7.91l0.029,0.103l0.034,0.1L3.55,8.195l0.042,0.039l0.06,0.024l0.107,0.018l0.088,0.01l0.093,0.01
			l0.032,0.036l0.035,0.089l0.025,0.146L4.024,8.663L3.987,8.721l-0.07,0.077L3.855,8.881L3.827,8.92l0.004,0.054l0.038,0.157
			L3.866,9.188l-0.037,0.05L3.774,9.262L3.658,9.277L3.582,9.274L3.508,9.242L3.377,9.161L3.285,9.076l-0.08-0.049L3.117,9.01
			L3.009,8.995L2.871,8.967L2.783,8.932L2.695,8.933L2.65,8.968l-0.01,0.068l0.001,0.085l0.034,0.085l0.038,0.056l0.021,0.137
			l0.021,0.16L2.728,9.664L2.72,9.732l0.014,0.05l0.032,0.049l0.063,0.042l0.083,0.031l0.092,0.039l0.072,0.046l0.055,0.075
			l0.019,0.07l-0.014,0.082l-0.041,0.082v0.039l0.014,0.051l0.089,0.103l0.034,0.104l-0.005,0.078l-0.021,0.053l-0.1,0.068
			l-0.021,0.053l-0.009,0.067l-0.014,0.058l-0.021,0.045l-0.058,0.021l-0.108,0.018l-0.138-0.016l-0.144-0.05l-0.158-0.017H2.303
			l-0.075,0.021l-0.036,0.029l-0.005,0.042l0.037,0.05l0.068,0.066l0.059,0.061l0.018,0.061L2.344,11.34l-0.045,0.047l-0.08,0.031
			l-0.162,0.037l-0.142,0.029l-0.066,0.054l-0.041,0.104l-0.012,0.096l0.001,0.075l0.033,0.032l0.059,0.014l0.051,0.01l0.028,0.028
			l0.009,0.082l-0.043,0.073l-0.074,0.056l-0.108,0.056l-0.139,0.065l-0.099,0.036l-0.043,0.047l-0.031,0.083v0.073l-0.021,0.11
			l-0.054,0.065l-0.141,0.111l-0.128,0.11l-0.14,0.177l0.521,0.108l0.672,0.286l0.076,0.086l0.152,0.031l0.089-0.022l0.073-0.108
			l0.162-0.229l0.099-0.151l0.138-0.132l0.228-0.088l0.176-0.045l0.279,0.073L3.864,13l0.241,0.094l0.203,0.074l0.375,0.098
			l0.254,0.105l0.077,0.075l0.115,0.118l0.165,0.074l0.217,0.084l0.154,0.139L5.87,14l0.052,0.129l0.039,0.053l0.102,0.031
			l0.203,0.021l0.103,0.053l0.242,0.203l0.116,0.171l0.103,0.096l0.166,0.096l0.063,0.098l0.001,0.043L7.031,15.131"/>
	</g>
</g>
<g id="Layer_1">
</g>
</svg>
