<?xml version="1.0" encoding="iso-8859-1"?>
<!-- Generator: Adobe Illustrator 16.0.4, SVG Export Plug-In . SVG Version: 6.00 Build 0)  -->
<!DOCTYPE svg PUBLIC "-//W3C//DTD SVG 1.1//EN" "http://www.w3.org/Graphics/SVG/1.1/DTD/svg11.dtd">
<svg version="1.1" xmlns="http://www.w3.org/2000/svg" xmlns:xlink="http://www.w3.org/1999/xlink" x="0px" y="0px" width="49.57px"
	 height="38.729px" viewBox="0 0 49.57 38.729" style="enable-background:new 0 0 49.57 38.729;" xml:space="preserve">
<g id="Layer_6">
	<g id="Layer_11">
		<path id="DISTRICT_x3D_Umer_Kot_x2C_PROVINCE_x3D_Sindh" style="fill:#CCCCCC;stroke:#FFFFFF;stroke-width:1.07;" d="
			M0.707,10.025L0.707,10.025l-0.045,0.068l-0.025,0.11l0.007,0.234L0.64,10.757l0.023,0.438l-0.012,0.152l-0.01,0.176L0.616,11.59
			l-0.021,0.05l-0.027,0.045l-0.019,0.019l0.001,0.017l0.015,0.026l0.03,0.021l0.043,0.016l0.164,0.004l0.141,0.017l0.03,0.025
			l0.04,0.063l0.04,0.086l0.016,0.153l0.031,0.269l0.02,0.377l0.028,0.315l0.018,0.229l0.01,0.181l-0.018,0.247l-0.014,0.089
			l-0.035,0.133l0.004,0.071l0.012,0.125l0.022,0.076l0.102,0.104l0.101,0.064l0.019,0.013l0.196,0.162l0.275,0.201l0.17,0.142
			l0.152,0.143l0.109,0.121l0.08,0.104l0.083,0.095l0.164,0.131l0.256,0.164l0.162,0.099l0.217,0.122l0.225,0.133l0.18,0.063
			l0.127,0.021l0.104,0.005l0.121,0.041l0.094,0.078l0.027,0.054l0.004,0.071L4.09,16.403l-0.033,0.027l-0.049,0.02l-0.089,0.037
			l-0.046,0.021l0.038,0.018l0.092,0.017l0.106,0.018l0.12,0.017l0.111,0.003l0.112-0.021l0.07,0.012l0.179,0.104l0.152,0.138
			l0.088,0.112l0.096,0.138l0.001,0.053l-0.013,0.062L4.97,17.271l-0.073,0.117l-0.175,0.278l-0.033,0.078l0.001,0.019l0.028,0.02
			l0.085,0.004l0.119,0.011l0.171,0.04l0.099,0.023l0.05-0.009l0.041-0.025l0.047-0.078l0.062-0.071l0.036-0.001l0.049,0.005
			l0.05,0.013L5.61,17.66l0.013-0.02l0.027-0.025l0.028-0.001l0.021,0.024l0.116,0.118l0.13,0.112l0.058,0.036l0.07-0.001
			l0.133-0.029l0.125-0.035h0.05l0.052,0.043L6.46,17.94l0.003,0.096l-0.028,0.212l-0.037,0.179L6.4,18.485l0.029,0.062l0.087,0.074
			l0.114,0.062l0.052,0.074l0.019,0.152l-0.01,0.16l0.038,0.089l0.146,0.147l0.227,0.25l0.166,0.149l0.259,0.198l0.509,0.363
			l0.267,0.174l0.106,0.073l0.043,0.037l0.018,0.076l0.078,0.737l0.063,0.49l0.048,0.216l0.033,0.42L8.685,22.78l-0.049,0.274
			l-0.021,0.23l0.004,0.127l0.076,0.228L8.78,23.9l0.164,0.334L9,24.514l0.031,0.351l0.048,0.452l0.007,0.249l0.07,0.227
			l0.085,0.247l0.172,0.392l0.045,0.12l0.152,0.169l0.061,0.145l-0.022,0.13l-0.066,0.131l0.068,0.144l0.127,0.127l0.14,0.113
			l0.095,0.151l0.053,0.061l0.022,0.037l0.062,0.099l0.121,0.238l0.081,0.206l0.063,0.179l0.04,0.249l0.013,0.172l0.009,0.167
			l-0.021,0.09l-0.086,0.204l-0.198,0.354l-0.052,0.157l-0.068,0.2l-0.019,0.151l0.037,0.155l0.046,0.108l0.049,0.092l0.006,0.066
			l0.003,0.108l0.003,0.099l0.018,0.068l0.019,0.06l0.075,0.068l0.102,0.107l0.14,0.122l0.088,0.114l0.163,0.204l0.124,0.183
			l0.205,0.265l0.065,0.077l0.113,0.106l0.185,0.188l0.145,0.177l0.172,0.192l0.177,0.227l0.105,0.166l0.079,0.088l0.097,0.064
			l0.216,0.121l0.137,0.131l0.101,0.107l0.085,0.149l0.061,0.163l0.062,0.283l0.028,0.339l0.013,0.234l0.013,0.146l0.041,0.104
			l0.074,0.064l0.101,0.045l0.039,0.034l0.034,0.065l0.024,0.137l0.005,0.214l-0.004,0.277l-0.025,0.203l-0.036,0.276l-0.025,0.43
			l-0.02,0.336l-0.023,0.262l0.015,0.097l0.031,0.066l0.053,0.081l0.083,0.072l0.062,0.093l0.049,0.072l0.034,0.082l0.181-0.081
			l0.275-0.146l0.282-0.207l0.2-0.206l0.322-0.381l0.176-0.189l0.177-0.175l0.185-0.198l0.209-0.192l0.315-0.302l0.354-0.404
			l0.142-0.158l0.249-0.246l0.101-0.148l0.173-0.209l0.149-0.24l0.101-0.13l0.083-0.08l0.077-0.048l0.105-0.036l0.238-0.07
			l0.152-0.085l0.015-0.019L17.787,34l0.045-0.098l0.053-0.204l0.053-0.23l0.047-0.194l0.064-0.201l0.092-0.153l0.162-0.252
			l0.129-0.209l0.163-0.217l0.15-0.155l0.225-0.226l0.236-0.194l0.197-0.175l0.199-0.12l0.19-0.124l0.388,0.098l0.417,0.236
			l0.353,0.362l0.351,0.271l0.385,0.27l0.453,0.329l0.553,0.232l0.432,0.206l0.566-0.076l0.489-0.162l0.128-0.127l0.02-0.171
			l-0.041-0.301l0.035-0.198l0.005-0.2l-0.027-0.172l-0.121-0.173l-0.139-0.174l-0.029-0.086l0.035-0.128l0.079-0.1l0.003-0.086
			l-0.062-0.071l0.003-0.114l0.174-0.082l0.331-0.066l0.27-0.065l0.096-0.099l-0.061-0.102l-0.186-0.174l-0.354-0.351l-0.152-0.244
			L24.111,29.5l0.084-0.241l0.08-0.084l0.104-0.21l-0.03-0.058l-0.154-0.104l-0.451-0.208l-0.573-0.295l-0.154-0.117l-0.246-0.231
			l-0.573-0.381l-0.466-0.279l-0.123-0.102l0.002-0.102l0.127-0.068l0.616-0.188l0.681-0.289l0.238-0.078l0.521-0.046l0.204-0.109
			l0.227-0.073l0.477-0.229l0.585-0.283l0.94-0.444l0.621-0.271l0.572-0.337l0.596-0.348l0.717-0.326l0.869-0.479l0.834-0.424
			l0.107-0.054h0.178l0.18,0.021l0.549,0.206l0.682,0.305l0.598,0.313l0.584,0.336l0.418,0.238l0.631,0.305l0.441,0.131l0.441,0.021
			l0.145-0.044l0.143-0.108l0.203-0.15l0.238-0.142h0.096l0.061,0.021l0.096,0.098l0.107,0.186l0.117,0.098l0.119,0.021l0.141-0.044
			l0.287-0.131l0.537-0.216l0.441-0.13l0.273-0.021h0.18l0.369,0.055l0.561,0.196l0.24,0.075l0.143,0.022l0.131-0.021l0.061-0.021
			l0.059-0.065l0.121-0.13l0.061-0.063l0.166-0.013l0.096,0.001l0.119,0.021l0.145,0.055l0.119,0.021l0.131,0.001l0.096-0.043
			l0.037-0.033l0.059-0.119l0.084-0.185l0.049-0.055l0.047-0.032h0.119l0.145,0.022h0.096l0.072-0.076l0.059-0.098l0.098-0.205
			l0.143-0.056l0.334-0.01l0.586,0.023l0.178,0.055l0.275,0.055l0.346,0.12l0.236,0.006l0.096,0.001l0.072-0.055l0.07-0.151
			l0.061-0.107l0.084-0.075l0.18-0.108l0.287-0.106h0.131l0.133,0.021l0.248,0.056l0.229,0.064l0.049,0.065l0.01,0.098l-0.023,0.13
			l-0.061,0.186l-0.012,0.075l0.047,0.108l0.25-0.011l0.156-0.086l0.287-0.205l0.299-0.26l0.287-0.237l0.336-0.312l0.336-0.454
			l0.156-0.304l0.061-0.281l-0.068-0.749l-0.094-0.312l-0.047-0.194l0.049-0.238l0.025-0.479l-0.01-0.261l-0.023-0.173l0.012-0.174
			l0.084-0.108l0.168-0.118l0.072-0.074v-0.088l-0.084-0.119l-0.166-0.013L47.498,18.8l-0.107-0.055l-0.168-0.1l-0.096-0.011
			l-0.131-0.021l-0.119-0.087l-0.096-0.076v-0.217l0.049-0.163l0.061-0.13l0.133-0.064l0.154-0.086l0.191-0.108l0.439-0.224
			l0.289-0.184l0.369-0.161l0.432-0.324l0.133-0.174l0.002-0.119L48.9,16.409h-0.096l-0.215,0.063l-0.215,0.086l-0.145-0.021
			l-0.072-0.099v-0.087l0.072-0.161l0.049-0.142l-0.012-0.087l-0.084-0.033l-0.25,0.055l-0.229,0.106l-0.107,0.011l-0.07-0.055
			l-0.023-0.217l0.072-0.108l0.014-0.174V15.46l-0.096-0.054l-0.096-0.001l-0.145,0.185l-0.217,0.205l-0.096,0.054h-0.217
			l-0.178,0.054l-0.062,0.108l-0.119,0.161l-0.205,0.151l-0.168,0.076l-0.178,0.01l-0.156-0.032l-0.084-0.055l-0.059-0.12
			l0.035-0.13l0.074-0.162l0.119-0.119l0.023-0.098V15.65l-0.059-0.022l-0.443-0.001l-0.191-0.012l-0.191-0.076l-0.201-0.142
			l-0.061-0.131l-0.012-0.098l0.035-0.098l0.121-0.087l0.154-0.055l0.098-0.086l-0.023-0.131l-0.049-0.141l0.002-0.108l0.084-0.163
			l0.264-0.271l0.361-0.312l0.516-0.312l0.324-0.281l0.361-0.368l0.119-0.228l0.049-0.142v-0.142l-0.047-0.075l-0.131-0.065
			l-0.191-0.088l-0.121-0.075L46.477,11.8l0.002-0.141l0.082-0.13l0.205-0.13l0.084-0.064l0.061-0.119l0.035-0.076l0.002-0.107
			l-0.035-0.076l-0.107-0.119l-0.061-0.088v-0.043l0.098-0.108l0.059-0.074l0.146-0.076l0.131-0.086l0.061-0.064l0.014-0.064
			l-0.014-0.076l-0.021-0.054l-0.098-0.033l-0.215,0.032l-0.168,0.106l-0.264-0.001l-0.176-0.05l-0.369-0.175l-0.264-0.076
			l-0.17-0.022l-0.189,0.032l-0.203,0.13l-0.396,0.248l-0.266,0.216l-0.311,0.348l-0.156,0.107l-0.191,0.012l-0.084-0.022
			l-0.07-0.076l-0.025-0.098l-0.01-0.271l-0.049-0.063h-0.07l-0.168,0.075l-0.109,0.118l-0.168,0.281l-0.203,0.173l-0.133,0.022
			l-0.215-0.044l-0.203-0.1l-0.084-0.107l-0.021-0.119l0.105-0.152l0.48-0.399l0.443-0.411l0.35-0.39l0.275-0.229l0.229-0.118
			l0.203-0.063l0.205-0.119l0.18-0.142l0.061-0.064V8.604V8.561l-0.084-0.044l-0.229-0.033l-0.525-0.057l-0.42-0.119l-0.287-0.1
			l-0.215-0.044l-0.133,0.011L42.604,8.25l-0.301,0.314l-0.275,0.173h-0.084l-0.119-0.055L41.729,8.65l-0.084-0.001l-0.133,0.063
			l-0.168,0.109l-0.25-0.001l-0.648-0.045l-0.203-0.032l-0.021-0.109l0.059-0.136l0.205-0.206l0.217-0.282l0.191-0.304l0.049-0.238
			l0.084-0.194l0.072-0.108l0.119-0.075l0.205-0.098l0.105-0.064l0.014-0.118l-0.012-0.12l-0.035-0.108l-0.023-0.13V6.354
			l0.037-0.152l0.07-0.108l0.146-0.141l0.215-0.119l0.42-0.053l0.24-0.055l0.131-0.075l0.26-0.268l0.168-0.207l0.182-0.173
			l0.299-0.162l0.301-0.129l0.408-0.237l0.312-0.162l0.371-0.228l0.205-0.107l0.145-0.119l0.096-0.173l0.074-0.147l0.57-0.474
			l-0.453-1.104l-0.49-0.808l-0.41-0.53l-0.824,0.262L43.76,0.898l-0.246-0.075l-0.186-0.075l-0.125-0.099l-0.146-0.032L42.934,0.64
			l-0.182,0.092l-0.084,0.145l-0.074,0.057L42.51,0.99l-0.135,0.078L42.24,1.18l-0.145,0.035l-0.197,0.002l-0.295-0.053L41.26,1.112
			l-0.344-0.02l-0.281,0.015l-0.158,0.046l-0.135,0.079l-0.135,0.111l-0.156,0.08l-0.234,0.024L39.596,1.45l-0.221-0.086l-0.148-0.1
			l-0.16-0.042l-0.135-0.011l-0.389,0.099l-0.781,0.264l-0.477,0.172l-0.293,0.17l-0.156,0.2L36.74,2.24l-0.195,0.079L36.154,2.38
			l-0.258,0.036l-0.207,0.135L35.41,2.777L34.9,3.061l-0.307,0.059l-0.207,0.014l-0.209-0.02l-0.137-0.087l-0.16-0.176l-0.189-0.188
			l-0.285-0.308l-0.199-0.23l-0.25-0.272l-0.246-0.132l-0.174-0.053l-0.172-0.009l-0.207,0.08l-0.291,0.225l-0.289,0.358L31.15,2.8
			l-0.41,0.449l-0.422,0.438l-0.191,0.245l-0.291,0.271l-0.303,0.281L29.4,4.619l-0.084,0.035l-0.062,0.001l-0.1-0.021l-0.086-0.055
			l-0.086-0.01l-0.158,0.058l-0.293,0.114l-0.389,0.228L27.9,5.138l-0.229,0.215l-0.279,0.17l-0.146,0.08l-0.242,0.092l-0.256,0.114
			l-0.203,0.225l-0.17,0.157l-0.096,0.134l-0.053,0.165l-0.094,0.245l-0.117,0.278l-0.022,0.179L25.898,7.37l-0.13,0.268
			l-0.104,0.335l-0.07,0.155l-0.156,0.157l-0.218,0.214l-0.215,0.258l-0.192,0.247l-0.061,0.089L24.67,9.327l-0.13,0.29
			l-0.252,0.336l-0.33,0.291l-0.192,0.146l-0.328,0.159l-0.365,0.139l-0.183,0.014l-0.134,0.035l-0.062,0.079l-0.083,0.11
			l-0.169,0.113l-0.184,0.081l-0.158,0.013l-0.146,0.002l-0.108,0.024l-0.12,0.123l-0.254,0.215l-0.362,0.237l-0.229,0.147
			l-0.183,0.035l-0.16-0.042l-0.186-0.13l-0.088-0.077l-0.086-0.021l-0.098,0.057l-0.168,0.158l-0.145,0.146l-0.091,0.366
			l-0.045,0.257l-0.047,0.134L19.5,12.778l-0.142-0.036l-0.209-0.097l-0.271-0.118l-0.394-0.071l-0.418-0.094l-0.416-0.016
			l-0.293,0.005l-0.256,0.059l-0.244,0.026l-0.05-0.044l-0.001-0.044l0.012-0.046l0.12-0.111l0.097-0.068l0.242-0.137l0.146-0.091
			l0.021-0.111l-0.025-0.044l-0.049,0.001l-0.072,0.001V11.72l0.034-0.045l0.023-0.076l-0.001-0.057l-0.05-0.055l-0.074,0.001
			l-0.084,0.046l-0.048,0.067H17.05l-0.001-0.066l-0.051-0.043l-0.086,0.012l-0.084,0.079l-0.021,0.146l-0.104,0.29l-0.071,0.101
			l-0.049,0.057l-0.146-0.021l-0.136-0.075l-0.249-0.229l-0.177-0.196l-0.021-0.034l-0.067-0.108l-0.025-0.109l-0.002-0.078
			l0.048-0.056l0.062-0.023l0.073,0.01l0.136,0.055l0.125,0.131l0.05,0.021l0.134-0.023l0.122-0.059l0.217-0.136l0.205-0.158
			l0.035-0.066l-0.014-0.056l-0.038-0.055l-0.062-0.077l-0.074-0.088l-0.063-0.109l-0.037-0.076l-0.001-0.033l0.012-0.045
			l0.021-0.045l0.037-0.033l0.061-0.067l0.022-0.056l-0.036-0.033l-0.051-0.044l-0.086-0.01l-0.109-0.021l-0.037-0.031l-0.002-0.077
			l0.084-0.103l0.121-0.067l0.171-0.048l0.133-0.102l0.06-0.057l0.023-0.057l0.036-0.066l-0.016-0.089l-0.135-0.031l-0.171,0.048
			l-0.193,0.104l-0.145,0.168l-0.145,0.079l-0.087-0.021l-0.037-0.056l0.047-0.09l0.107-0.124l0.061-0.066l-0.001-0.044
			l-0.062-0.077l-0.086-0.01l-0.17,0.059l-0.107,0.135l-0.108,0.068l-0.232,0.003l-0.246-0.04l-0.062-0.064l-0.003-0.101
			l-0.015-0.122l-0.087-0.076l-0.132-0.021l-0.086,0.001l-0.084,0.068l-0.06,0.101l-0.06,0.123L14.765,9.61l-0.098,0.034
			L14.436,9.66l-0.122,0.068l-0.13,0.213l-0.094,0.201l-0.072,0.09h-0.062l-0.024-0.011L13.895,10.2l-0.001-0.056l-0.002-0.101
			l-0.013-0.056l-0.051,0.001l-0.107,0.101l-0.085,0.035l-0.037-0.032l-0.038-0.1l-0.014-0.077L13.51,9.896l-0.074-0.032
			l-0.172,0.014l-0.17,0.069l-0.169,0.103l-0.146,0.124l-0.157,0.104L12.489,10.3l-0.108,0.035l-0.133,0.113l-0.107,0.123
			l-0.096,0.068l-0.122,0.023l-0.16-0.042l-0.16-0.062l-0.333-0.128l-0.333-0.14l-0.285-0.14l-0.284-0.15l-0.224-0.185L9.97,9.753
			L9.799,9.756l-0.108,0.09L9.644,9.969l-0.083,0.112L9.5,10.094l-0.099,0.001l-0.196-0.041l-0.328-0.07L8.558,9.911L8.126,9.796
			L7.844,9.734L7.61,9.616L7.362,9.499L7.253,9.501l-0.145,0.18L7.015,9.882l-0.07,0.156l-0.497,0.209l-0.425,0.15L5.608,10.46
			l-0.504-0.103l-0.479-0.08L4.33,10.238l-0.184,0.015l-0.108,0.059L3.88,10.348L3.758,10.35L3.61,10.309l-0.209-0.074l-0.209-0.041
			l-0.258,0.005l-0.048,0.001L2.69,10.092L2.399,9.961L2.202,9.889l-0.183-0.01L1.707,9.932l-0.455,0.084l-0.229,0.031l-0.181,0.014
			l-0.098,0.004L0.707,10.025"/>
	</g>
</g>
<g id="Layer_1">
</g>
</svg>
