<?xml version="1.0" encoding="iso-8859-1"?>
<!-- Generator: Adobe Illustrator 16.0.4, SVG Export Plug-In . SVG Version: 6.00 Build 0)  -->
<!DOCTYPE svg PUBLIC "-//W3C//DTD SVG 1.1//EN" "http://www.w3.org/Graphics/SVG/1.1/DTD/svg11.dtd">
<svg version="1.1" xmlns="http://www.w3.org/2000/svg" xmlns:xlink="http://www.w3.org/1999/xlink" x="0px" y="0px" width="5.242px"
	 height="3.32px" viewBox="0 0 5.242 3.32" style="enable-background:new 0 0 5.242 3.32;" xml:space="preserve">
<g id="Layer_42">
	<g id="Layer_47">
		<path id="DISTRICT_x3D_Thatta_x2C_PROVINCE_x3D_Sindh_4_" style="fill:#CCCCCC;stroke:#FFFFFF;stroke-width:1.07;" d="
			M3.722,1.543L3.722,1.543l0.284-0.261l0.287-0.417L4.16,0.609L3.958,0.546L3.326,0.628L2.493,0.941L1.596,0.942L1.088,0.943
			L0.62,1.072L0.568,1.229l0.105,0.267l0.234,0.157l0.796-0.019l0.136,0.065l0.305,0.284l0.401,0.551l0.126,0.057l0.214-0.094
			l0.144,0.021l0.139,0.169l0.208-0.031l0.128-0.36l0.083-0.047l0.191,0.029l0.137,0.104l0.508,0.388l0.152-0.014l0.051-0.132
			L4.181,2.1L3.749,1.732L3.722,1.543"/>
	</g>
</g>
<g id="Layer_1">
</g>
</svg>
