<?xml version="1.0" encoding="iso-8859-1"?>
<!-- Generator: Adobe Illustrator 16.0.4, SVG Export Plug-In . SVG Version: 6.00 Build 0)  -->
<!DOCTYPE svg PUBLIC "-//W3C//DTD SVG 1.1//EN" "http://www.w3.org/Graphics/SVG/1.1/DTD/svg11.dtd">
<svg version="1.1" xmlns="http://www.w3.org/2000/svg" xmlns:xlink="http://www.w3.org/1999/xlink" x="0px" y="0px"
	 width="38.428px" height="37.849px" viewBox="0 0 38.428 37.849" style="enable-background:new 0 0 38.428 37.849;"
	 xml:space="preserve">
<g id="Layer_75">
	<g id="Layer_80">
		<path id="DISTRICT_x3D_Okara_x2C_PROVINCE_x3D_Punjab" style="fill:#CCCCCC;stroke:#FFFFFF;stroke-width:1.07;" d="M16.597,0.586
			L16.597,0.586l-0.123-0.028l-0.149-0.015l-0.167-0.006l-0.191,0.051L15.853,0.65l-0.114,0.087L15.57,0.807l-0.152,0.041
			L15.29,0.906l-0.111,0.082l-0.064,0.092l-0.098,0.173L14.96,1.421l-0.015,0.123l-0.013,0.154l0.013,0.204l-0.023,0.146
			l-0.047,0.153l-0.054,0.082l-0.115,0.087l-0.188,0.115L14.37,2.54l-0.104-0.017l-0.147-0.046l-0.113-0.083l-0.09-0.115l-0.1-0.129
			l-0.078-0.055l-0.077-0.011l-0.062,0.011l-0.146,0.048l-0.117-0.001l-0.089-0.021l-0.08-0.049l-0.175-0.077l-0.138-0.051
			l-0.186-0.041L12.45,1.896l-0.163,0.033l-0.272,0.102l-0.311,0.106l-0.232,0.086l-0.204,0.098l-0.152,0.096l-0.185,0.097
			L10.76,2.57l-0.161,0.026l-0.062,0.011l-0.211-0.003l-0.079,0.02l-0.09,0.03l-0.116-0.001L9.986,2.64L9.979,2.57L9.974,2.438
			L9.948,2.355l-0.089-0.07L9.832,2.279L9.771,2.265L9.71,2.271L9.634,2.303L9.566,2.357L9.475,2.493L9.361,2.599L9.215,2.648
			l-0.21,0.016L8.79,2.673L8.702,2.697l-0.11,0.051L8.49,2.794L8.399,2.875L8.352,2.958L8.339,3.093l0.016,0.123L8.331,3.293
			L8.273,3.362l-0.13,0.065l-0.147,0.03L7.852,3.475L7.724,3.534L7.641,3.566L7.552,3.71L7.493,3.872L7.466,3.985L7.444,4.106
			L7.42,4.308L7.397,4.41L7.329,4.539L7.237,4.6L7.133,4.652L7.038,4.674L6.929,4.7L6.856,4.746L6.761,4.844L6.653,4.908
			L6.513,4.964L6.399,4.996L6.302,5.005L6.171,5.026L6.07,5.066L5.963,5.13l-0.09,0.081L5.736,5.325L5.632,5.414l0.153,0.228
			l0.161,0.407l0.083,0.002l0.048,0.061l0.01,0.107L6.068,6.373l-0.053,0.1L5.958,6.522L5.834,6.546L5.727,6.542l-0.08,0.045
			L5.531,6.646L5.342,6.667L5.207,6.614L5.142,6.51L5.131,6.39l0.005-0.105L5.129,6.2L5.095,6.174H5.051L4.953,6.199L4.755,6.293
			L4.467,6.444L4.362,6.507L4.308,6.545l-0.052,0.05L4.192,6.672L4.13,6.785L3.999,6.926L3.929,6.97L3.863,6.988L3.796,6.973
			L3.759,6.912L3.721,6.891L3.627,6.884L3.535,6.907L3.476,6.97L3.419,7.049L3.344,7.123L3.282,7.153L3.229,7.152L3.134,7.135
			L3.07,7.091L3.036,7.015L3.021,6.917L2.988,6.81L2.937,6.778l-0.07-0.026l-0.05,0.009L2.777,6.818L2.779,6.92l0.002,0.086
			l-0.027,0.09L2.693,7.127L2.631,7.094L2.538,7.02L2.496,6.905l-0.04-0.074L2.396,6.793l-0.06,0.008L2.285,6.857L2.277,7.032
			L2.28,7.271l-0.018,0.09l-0.05,0.056L2.148,7.441L2.016,7.424L1.866,7.414l-0.12,0.009L1.608,7.505L1.5,7.652L1.451,7.715
			L1.403,7.861l0.015,0.176l0.019,0.177L1.4,8.293L1.317,8.297L1.153,8.276L1.032,8.271L0.923,8.281L0.874,8.336L0.776,8.46
			L0.652,8.72L0.585,8.809l-0.029,0.02L0.55,8.891l0.068,0.108l0.027,0.189l0.02,0.146L0.644,9.611l-0.052,0.578l-0.021,0.55
			L0.61,10.92l0.066,0.174l0.079,0.082l0.136,0.127l0.092,0.057l0.078,0.013l0.081-0.012l0.349-0.173l0.276-0.116l0.112,0.008
			l0.046,0.062l0.008,0.093l-0.01,0.092l-0.06,0.072l-0.471,0.438l-0.11,0.139l-0.035,0.092l0.012,0.069l0.06,0.046l0.104,0.006
			l0.283-0.087l0.152-0.008l0.147,0.026l0.073,0.072l0.021,0.053l-0.005,0.068L2.068,12.44L2.01,12.498L1.881,12.56l-0.349,0.144
			l-0.365,0.12L0.94,12.89l-0.065,0.049l-0.04,0.06l0.002,0.105l0.08,0.144l0.093,0.084l0.216,0.16l0.139,0.095l0.093,0.102
			l0.04,0.099l0.014,0.125l-0.028,0.07l-0.056,0.033l-0.135,0.021l-0.135,0.002L1.023,14.05l-0.064,0.051l-0.037,0.061l0.007,0.055
			l0.076,0.129l0.097,0.14l0.087,0.185l0.087,0.25l0.081,0.233l0.045,0.094l0.072,0.124l0.082,0.078l0.163,0.081l0.208,0.083
			l0.127,0.005l0.348-0.145l0.222-0.175l0.384-0.204l0.171-0.001L3.42,15.16l0.425,0.183l0.438,0.321l0.162,0.144l0.114,0.171
			l0.092,0.181L4.7,16.5l0.027,0.354l0.004,0.574l-0.012,0.28l0.004,0.115l-0.088,0.311l-0.149,0.201l-0.16,0.126l-0.372,0.304
			l-0.112,0.13L3.79,19.039l-0.029,0.123l0.022,0.228l0.04,0.197l0.06,0.167l0.103,0.145L4.1,20.021l0.105,0.11l0.063,0.101
			l0.06,0.144l0.195,0.604l-0.039,0.057l-0.021,0.092l0.06,0.066l0.206,0.119l0.105,0.062l0.047,0.092l0.01,0.186L4.956,22
			l-0.001,0.203l-0.058,0.142l-0.03,0.058l-0.099,0.17l-0.13,0.081l-0.189,0.073l-0.384,0.126L3.86,22.955l-0.113,0.086L3.7,23.123
			l-0.02,0.086l0.03,0.131l0.063,0.104l0.171,0.088l0.218,0.09l0.095,0.041l0.056,0.062l0.02,0.096l-0.025,0.095L4.291,24.01
			l-0.069,0.078L4.146,24.15l-0.055,0.042l-0.071,0.042l-0.077,0.02l-0.17,0.007L3.555,24.22l-0.197-0.046L3.29,24.186l-0.068,0.02
			l-0.134,0.084l-0.327,0.263l-0.3,0.213l-0.129,0.069l-0.107,0.033l-0.17,0.022l-0.224,0.013l-0.172,0.039l-0.08,0.049
			l-0.111,0.068l-0.12,0.079l-0.053,0.051l-0.021,0.106l0.205,0.072l0.227,0.057l0.381-0.012l-0.002,0.021L2.082,25.48l-0.019,0.066
			l-0.021,0.074l0.007,0.121l0.053,0.092l0.074,0.076l0.105,0.063l0.155,0.081l0.122,0.057l0.08,0.041l0.115,0.026l0.104,0.024
			l0.057,0.018l0.05,0.037L3,26.319l0.01,0.072l-0.014,0.088l-0.047,0.118L2.875,26.74l-0.049,0.096l-0.031,0.086l-0.001,0.043
			l0.002,0.024l0.013,0.026l0.061,0.064l0.089,0.051l0.064,0.033h0.08l0.035-0.02l0.055-0.046l0.018-0.031l0.01-0.078l0.008-0.069
			l0.012-0.03l0.027-0.041l0.028-0.024l0.042-0.019l0.082-0.005l0.076-0.012l0.073-0.025l0.059-0.034l0.058-0.042l0.039-0.046
			l0.007-0.046l-0.013-0.049l-0.034-0.069l-0.031-0.046l-0.031-0.059l-0.005-0.021l0.011-0.021l0.032-0.033l0.054-0.028l0.071-0.008
			l0.056-0.003l0.056-0.01l0.104-0.025l0.066-0.031l0.05-0.025l0.043-0.027l0.045-0.002l0.051,0.003l0.058,0.019l0.036,0.025
			l0.048,0.117l0.045,0.08l0.059,0.041l0.051,0.012l0.079,0.001l0.066-0.021l0.08-0.027l0.046-0.028l0.054-0.043l0.042-0.011
			l0.047,0.009l0.033,0.021l0.025,0.035l0.002,0.041l-0.018,0.045l-0.04,0.039l-0.021,0.037l-0.01,0.04l0.01,0.023l0.04,0.015
			l0.048,0.01l0.055-0.013l0.084-0.03l0.057-0.017h0.062l0.108,0.021l0.115,0.072l0.081,0.035l0.052,0.016h0.037l0.045-0.015
			l0.066-0.028l0.028-0.02l0.024-0.034l0.007-0.046l-0.013-0.037l-0.024-0.04l-0.05-0.038l-0.053-0.057l-0.039-0.035l-0.021-0.046
			l0.002-0.028l0.018-0.06l0.02-0.08l0.003-0.048l-0.01-0.026l-0.006-0.017l-0.031-0.032l-0.021-0.029l-0.03-0.06l-0.004-0.04
			l0.01-0.031l0.018-0.014l0.05-0.025L5.72,25.81l0.064,0.003l0.045,0.009l0.05,0.021l0.071,0.012l0.058,0.016h0.048l0.053-0.009
			l0.062-0.008l0.088-0.026l0.057-0.029l0.036-0.02l0.018-0.02l0.01-0.036l-0.002-0.028l-0.012-0.029l-0.033-0.062l-0.007-0.045
			l0.005-0.024l0.01-0.035l0.019-0.062l0.028-0.054l0.042-0.041l0.075-0.045l0.061-0.019l0.076-0.007l0.085-0.016l0.051-0.025
			l0.041-0.036l0.021-0.053l0.007-0.044l-0.002-0.047L6.814,25L6.78,24.97l-0.056-0.04l-0.049-0.039l-0.026-0.039l-0.006-0.053
			l0.006-0.047l0.02-0.051l0.036-0.048l0.039-0.043l0.024-0.043l0.007-0.022l0.012-0.037l-0.004-0.03l-0.015-0.033l-0.02-0.039
			l-0.004-0.03l0.017-0.045l0.028-0.035l0.048-0.027l0.092-0.029l0.134-0.042l0.141-0.032l0.101-0.023l0.077-0.026l0.068-0.04
			l0.047-0.039l0.032-0.054l0.013-0.037l0.011-0.026l-0.011-0.039l-0.023-0.032L7.456,23.83H7.383l-0.086,0.017l-0.062-0.001
			l-0.03-0.012l-0.005-0.023v-0.045l0.017-0.059l0.04-0.074l0.037-0.053l0.043-0.043l0.054-0.045l0.068-0.066l0.057-0.061
			l0.083-0.06l0.097-0.056l0.039-0.017l0.048-0.009h0.026l0.021,0.008l0.025,0.027l0.005,0.031l-0.014,0.025l-0.043,0.053
			l-0.049,0.06l-0.006,0.026l0.004,0.021l0.048,0.042l0.058,0.033l0.055,0.011h0.034l0.036-0.004l0.038-0.019l0.024-0.02
			l0.006-0.031l-0.002-0.027L8.04,23.414l0.007-0.033l0.016-0.025l0.026-0.023l0.053-0.02l0.037-0.007l0.034,0.006l0.061,0.028
			l0.062,0.037l0.067,0.033l0.047,0.01h0.027l0.062-0.021l0.057-0.033l0.015-0.032l0.003-0.057l-0.019-0.066l-0.039-0.073
			l-0.024-0.04l-0.062-0.034l-0.086-0.026L8.28,23.01l-0.074-0.016l-0.039-0.025l-0.03-0.032l0.002-0.021l0.01-0.023l0.033-0.029
			l0.057-0.033l0.069-0.035l0.098-0.039l0.078-0.033l0.053-0.03l0.049-0.051l0.072-0.056l0.031-0.029l0.036-0.018l0.043-0.012
			l0.056-0.018l0.078-0.01l0.05-0.028l0.036-0.026l0.026-0.031l0.037-0.027l0.06-0.028l0.066-0.021l0.042-0.006l0.051,0.002
			l0.035,0.01l0.022,0.016l-0.004,0.023l-0.034,0.031L9.21,22.455l-0.069,0.03L9.08,22.529l-0.027,0.034l-0.017,0.035l0.001,0.016
			l0.038,0.026l0.059,0.018l0.083,0.018l0.094,0.041l0.098,0.044l0.04,0.03l0.022,0.039l-0.007,0.033l-0.013,0.031l-0.029,0.051
			l-0.016,0.043l-0.005,0.049L9.41,23.09l0.041,0.058l0.053,0.062l0.025,0.041l0.018,0.03l0.015,0.056v0.047l-0.015,0.051
			l-0.067,0.064l-0.091,0.047l-0.08,0.045l-0.067,0.043l-0.063,0.041l-0.037,0.029l-0.034,0.069l0.002,0.05l0.011,0.084
			l-0.006,0.032l-0.023,0.06L9.067,24.06l-0.017,0.149l-0.029,0.082L8.98,24.36L8.96,24.463L8.917,24.59L8.88,24.724l-0.031,0.123
			l-0.02,0.083l-0.013,0.074l0.013,0.086l0.01,0.047l0.048,0.037l0.073,0.037l0.053,0.017l0.057-0.002l0.052-0.024l0.033-0.023
			l0.03-0.039l0.021-0.066l0.033-0.05l0.03-0.026l0.033-0.02l0.042-0.012h0.057l0.074,0.016l0.064,0.012l0.026,0.021l0.006,0.039
			l-0.016,0.04L9.52,25.147l-0.016,0.054l-0.03,0.057l-0.01,0.029l0.018,0.041l0.022,0.045l0.049,0.037l0.063,0.026l0.072,0.04
			l0.073,0.034l0.042,0.034l0.013,0.053l0.032,0.064l0.043,0.051l0.032,0.022l0.038,0.013l0.104-0.002l0.077-0.002l0.093,0.006
			l0.081,0.031l0.045,0.034l0.031,0.037l0.021,0.039l-0.001,0.062l-0.015,0.053l-0.028,0.058l-0.011,0.056v0.041l0.035,0.039
			l0.025,0.023l0.069-0.002l0.059-0.002l0.078-0.018l0.066-0.002l0.047,0.012l0.067,0.061l0.039,0.043l0.041,0.068l0.062,0.068
			l0.05,0.035l0.048,0.012l0.062,0.01l0.065-0.002l0.141-0.014h0.045l0.051,0.019l0.036,0.032l0.036,0.039l0.021,0.016l0.073,0.006
			l0.126-0.014l0.312-0.016l0.224-0.013l0.119-0.005l0.065-0.008l0.054-0.021l0.025-0.017l0.018-0.042l0.003-0.04l-0.005-0.042
			l0.017-0.022l0.022-0.025l0.073-0.018l0.087-0.002l0.073,0.006l0.058,0.023l0.019,0.037l0.015,0.043l0.011,0.048l0.017,0.022
			l0.028,0.018l0.09,0.021l0.206,0.033l0.3,0.041l0.378,0.063l0.094,0.012l0.051,0.021l0.021,0.035l-0.002,0.057l-0.028,0.07
			l-0.041,0.041l-0.027,0.045l-0.016,0.031l0.006,0.074l0.018,0.062l0.041,0.072l0.079,0.066l0.07,0.044l0.101,0.019l0.078,0.006
			l0.209,0.002l0.149,0.004l0.135,0.004l0.183-0.021l0.137-0.013l0.106,0.009l0.099,0.01l0.078,0.018l0.051,0.027l0.012,0.021
			l-0.013,0.034l-0.058,0.033l-0.093,0.029l-0.086,0.027l-0.073,0.037l-0.042,0.029l-0.037,0.076l-0.012,0.072l0.009,0.061
			l0.049,0.084l0.053,0.05l0.103,0.044l0.087,0.013l0.184,0.017l0.155,0.016l0.079,0.023l0.045,0.018l0.028,0.033l0.012,0.055
			l-0.002,0.052l-0.056,0.075l-0.102,0.084l-0.092,0.064l-0.076,0.061l-0.036,0.053l-0.052,0.084l-0.052,0.08l-0.05,0.116
			l-0.017,0.082l0.008,0.087l0.029,0.059l0.033,0.047l0.047,0.035l0.049,0.019l0.076,0.009l0.059,0.004l0.019,0.01l0.025,0.028
			l0.009,0.038l-0.024,0.046l-0.054,0.035l-0.088,0.04l-0.067,0.046l-0.058,0.035l-0.021,0.058l-0.002,0.067L15.398,29.6
			l-0.036,0.044L15.32,29.67l-0.054,0.021l-0.056,0.012l-0.046,0.017l-0.045,0.022l-0.039,0.039l-0.036,0.049l-0.053,0.025
			l-0.057,0.006l-0.049-0.004l-0.061-0.027l-0.087-0.016l-0.098-0.029l-0.075-0.016l-0.082-0.013l-0.066,0.011l-0.057,0.023
			l-0.038,0.035l-0.036,0.043l-0.029,0.076l-0.006,0.125l0.032,0.131l0.005,0.138l-0.009,0.097l-0.04,0.088l-0.101,0.152L14,30.813
			l-0.119,0.114l-0.152,0.131l-0.089,0.1l-0.057,0.067l-0.01,0.042l-0.012,0.05l0.018,0.064l0.048,0.057l0.055,0.036l0.065,0.023
			l0.09,0.017l0.074-0.011l0.128-0.014l0.125-0.025l0.083-0.02l0.087-0.023l0.056-0.035l0.039-0.038l0.011-0.05l0.001-0.042
			l-0.015-0.062l0.001-0.06V31.1l0.021-0.053l0.035-0.029l0.045-0.029l0.11-0.024l0.104,0.004l0.087,0.026l0.055,0.03l0.073,0.033
			l0.075,0.019l0.107-0.002l0.101-0.024l0.104-0.015l0.073,0.002l0.104,0.01l0.083,0.016l0.053,0.021l0.022,0.033v0.047
			l-0.021,0.084l-0.081,0.1l-0.071,0.073l-0.025,0.028l-0.014,0.035l-0.001,0.051l0.024,0.051l0.109,0.088l0.116,0.081l0.166,0.081
			l0.083,0.046l0.031,0.036l0.021,0.054l0.027,0.104l0.021,0.117l0.01,0.129l0.023,0.057l0.018,0.098l-0.004,0.045l-0.027,0.035
			l-0.059,0.029l-0.076,0.017L15.901,32.6l-0.095-0.021l-0.08-0.02h-0.041l-0.056,0.018l-0.059,0.025l-0.05,0.032l-0.049,0.05
			l-0.027,0.068l-0.008,0.08l0.008,0.179l0.03,0.327l0.011,0.211l0.005,0.27l0.015,0.35l0.002,0.218l-0.018,0.146l-0.014,0.166
			l-0.054,0.219l-0.037,0.149l-0.029,0.229l-0.008,0.08l0.03,0.254l-0.002,0.219l0.004,0.046l-0.001,0.258l0.035,0.183l0.28,0.084
			l0.066,0.084l0.031,0.125l-0.055,0.195l-0.09,0.182l-0.006,0.115l0.03,0.133l0.047,0.054l0.118,0.004l0.121-0.069l0.163-0.211
			l0.139-0.232l0.14-0.192l0.147-0.159l0.172-0.131l0.133-0.066l0.156-0.037l0.202,0.006l0.165,0.025l0.163,0.086l0.045,0.074
			l0.063,0.207l0.09,0.137l0.058,0.033l0.06,0.012l0.072-0.019l0.122-0.09l0.231-0.127l0.12-0.06l0.155-0.047h0.346l0.392,0.031
			l0.118,0.035l0.08,0.074l0.092,0.085l0.09,0.126l0.094,0.023l0.072-0.008l0.066-0.074l0.232-0.189l0.231-0.127l0.241-0.096
			l0.469-0.131l0.287-0.054l0.109-0.069l0.052-0.09l0.021-0.248l0.035-0.896l0.004-0.093l0.051-0.07l0.098-0.049l0.169-0.077
			l0.264-0.054l0.204-0.036l0.204-0.056l0.144-0.017l0.131,0.004l0.142,0.045l0.151,0.058l0.237,0.027l0.118,0.014l0.223,0.089
			l0.268,0.048l0.271,0.07l0.187,0.119l0.102,0.127l0.043,0.113l-0.01,0.258l0.068,0.063l0.069,0.022l0.071,0.002l0.073-0.039
			l0.052-0.102l0.01-0.248l0.014-0.051l0.038-0.051l0.084-0.008l0.145-0.037l0.146-0.047l0.183-0.099l0.194-0.116l0.282-0.209
			l0.417-0.326l0.259-0.219l0.136-0.101l0.085-0.019l0.059,0.013l0.046,0.043l0.032,0.083l0.025,0.249l0.021,0.319l0.031,0.113
			l0.151,0.057l0.18-0.004l0.096-0.019l0.053-0.112l0.052-0.091l0.027-0.123l0.016-0.071l0.061-0.02l0.083,0.003l0.009-0.005
			l-0.114-0.143l-0.016-0.032l-0.007-0.013l-0.01-0.021l-1.156-0.736l-0.562-0.335l-0.185-0.061L25.76,32.81l-0.131-0.231
			l-0.015-0.268l0.024-0.093l0.071-0.258l0.271-0.319l0.4-0.326l0.172-0.139l0.032-0.044l0.286-0.388l0.093-0.17l0.695-0.14
			l0.318-0.032l0.045-0.074l0.06-0.096l0.053-0.342l0.209-0.406l-0.182-0.642l0.125-0.188l0.482,0.029l0.148,0.076l0.199,0.102
			l0.079,0.004l0.229,0.012l0.16-0.244l0.095-0.694l0.048-0.097l0.115-0.232l0.279-0.318l0.174-0.197l0.035-0.027l0.167-0.14
			l0.603-0.338l0.938-0.526l0.265-0.433l0.344-0.079l0.062,0.074l0.248,0.304l0.333,0.272l0.188,0.033l0.261,0.043l0.462-0.381
			l0.3-0.47l-0.009-0.083l-0.01-0.098l-0.355-0.236l-0.008-0.162l0.076-0.089l0.117-0.136l0.358-0.08l0.34-0.076l-0.04-0.548
			l-0.008-0.099l0.054-0.224l0.152-0.635l-0.023-0.323l0.034-0.046l0.126-0.167l0.502-0.146l0.212-0.174l0.408-0.337l0.195-0.006
			l0.334-0.011l0.289-0.146l0.449-0.373l-0.099-0.132l-0.035-0.399l-0.074-0.043l-0.051-0.041L37.4,20.584l-0.055-0.107L37.25,20.29
			l-0.054-0.071l-0.115-0.123l-0.08-0.062l-0.113-0.044l-0.118-0.036l-0.053-0.033l-0.045-0.033l-0.029-0.057l-0.021-0.091
			l0.017-0.199l-0.004-0.14l-0.025-0.096l-0.028-0.048l-0.047-0.033l-0.057-0.019l-0.101-0.012l-0.092-0.013l-0.051-0.023
			l-0.092-0.051l-0.058-0.047l-0.093-0.095l-0.07-0.1L35.85,18.71l-0.063-0.26l-0.021-0.309l-0.021-0.097l-0.041-0.091l-0.076-0.085
			l-0.114-0.08l-0.326-0.205l-0.2-0.117l-0.045-0.038l-0.047-0.052l-0.013-0.043l-0.007-0.062l-0.004-0.111l-0.031-0.106
			l-0.07-0.081l-0.148-0.112l-0.354-0.214l-0.089-0.039l-0.103-0.046l-0.062-0.037l-0.04-0.048l-0.025-0.071l0.009-0.102
			l0.073-0.157l0.093-0.133l0.034-0.107l0.007-0.135l-0.037-0.149l-0.125-0.249l-0.175-0.334l-0.03-0.066l-0.047-0.062l-0.081-0.066
			l-0.062-0.027l-0.112-0.007l-0.252,0.025l-0.291,0.031l-0.168-0.016l-0.373-0.073l-0.283-0.114l-0.059-0.057l-0.035-0.062
			l-0.03-0.096l-0.037-0.091l-0.054-0.071l-0.046-0.038l-0.057-0.018l-0.106-0.002l-0.04-0.013l-0.028-0.033l-0.041-0.067
			l-0.037-0.11l-0.018-0.15l0.021-0.112l0.029-0.117l0.042-0.098l0.004-0.078l-0.02-0.028l-0.046-0.033l-0.2-0.07l-0.119-0.036
			l-0.146-0.016l-0.111,0.032l-0.049,0.045l-0.07,0.093l-0.048,0.079l-0.062,0.132l-0.053,0.098l-0.033,0.034l-0.056,0.031
			l-0.066,0.001l-0.079-0.018l-0.035-0.038l-0.025-0.101l-0.024-0.096l-0.047-0.057l-0.08-0.051l-0.104-0.036l-0.046-0.042
			l-0.053-0.071l-0.041-0.052l-0.067-0.039l-0.126-0.015l-0.234,0.001l-0.104-0.014l-0.164-0.025l-0.125-0.045l-0.229-0.135
			l-0.166-0.103l-0.115-0.08l-0.046-0.047l-0.02-0.048l-0.007-0.039l0.009-0.048l0.045-0.059l0.03-0.078l-0.015-0.106l-0.036-0.053
			l-0.104-0.07l-0.204-0.102l-0.165-0.062l-0.146-0.035l-0.188-0.039l-0.168-0.015l-0.107,0.002l-0.044,0.016l-0.016,0.053
			l0.008,0.058l0.003,0.077l-0.017,0.044l-0.032,0.03l-0.066,0.002l-0.158-0.016l-0.229-0.016l-0.227,0.001l-0.168,0.018
			l-0.146-0.001l-0.113-0.041l-0.179-0.131l-0.119-0.055l-0.131-0.016l-0.096,0.002l-0.14,0.038l-0.139,0.018l-0.208,0.005
			l-0.271-0.018l-0.097-0.042l-0.126-0.089l-0.064-0.066l-0.069-0.085l-0.038-0.125l-0.017-0.13l0.02-0.131l0.037-0.088l0.008-0.095
			l-0.032-0.106l-0.174-0.344l-0.173-0.291L24.1,10.155l-0.272-0.331l-0.054-0.096l-0.062-0.124l-0.12-0.249L23.51,9.236
			l-0.082-0.104L23.364,9.09l-0.085-0.012l-0.124,0.003l-0.122,0.027L22.895,9.16l-0.293,0.157l-0.193,0.102L22.287,9.48
			l-0.078,0.036l-0.056,0.016l-0.044,0.001l-0.051-0.008l-0.063-0.032l-0.096-0.077l-0.073-0.062l-0.084-0.062l-0.033-0.026
			l-0.131-0.123l-0.391-0.268l-0.341-0.257l-0.102-0.095l-0.023-0.096l0.013-0.127l0.056-0.102l0.096-0.125L21,7.903l0.111-0.204
			l0.093-0.32l0.023-0.1l-0.012-0.119l-0.023-0.089l-0.041-0.095l-0.03-0.244l-0.004-0.035l-0.02-0.041l-0.082-0.015l-0.142-0.012
			l-0.163-0.01l-0.419-0.126l-0.269-0.178l-0.239-0.215L19.609,5.79l-0.145-0.404l-0.122-0.37l-0.06-0.171l-0.032-0.082l-0.05-0.095
			l-0.062-0.073l-0.13-0.082l-0.211-0.07L18.27,4.268L17.66,4.112l-0.352-0.109l-0.307-0.126l-0.08-0.072l-0.008-0.083l0.02-0.071
			l0.058-0.081l0.051-0.073l0.008-0.085L17.042,3.33l-0.065-0.192L16.94,3.006l0.009-0.084l0.025-0.079l0.082-0.083l0.124-0.065
			l0.148-0.059l0.189-0.069l0.1-0.07l0.05-0.081l0.011-0.057l-0.013-0.055l-0.06-0.1l-0.085-0.127l-0.039-0.165L17.41,1.749
			l-0.108-0.196l-0.086-0.177l-0.082-0.099l-0.078-0.136l-0.04-0.078l-0.102-0.156L16.84,0.775l-0.09-0.089L16.597,0.586"/>
	</g>
</g>
<g id="Layer_1">
</g>
</svg>
