<?xml version="1.0" encoding="iso-8859-1"?>
<!-- Generator: Adobe Illustrator 16.0.4, SVG Export Plug-In . SVG Version: 6.00 Build 0)  -->
<!DOCTYPE svg PUBLIC "-//W3C//DTD SVG 1.1//EN" "http://www.w3.org/Graphics/SVG/1.1/DTD/svg11.dtd">
<svg version="1.1" xmlns="http://www.w3.org/2000/svg" xmlns:xlink="http://www.w3.org/1999/xlink" x="0px" y="0px"
	 width="46.333px" height="26.285px" viewBox="0 0 46.333 26.285" style="enable-background:new 0 0 46.333 26.285;"
	 xml:space="preserve">
<g id="Layer_120">
	<g id="Layer_125">
		<path id="DISTRICT_x3D_Khyber_Agency_x2C_PROVINCE_x3D_F.A.T.A." style="fill:#CCCCCC;stroke:#FFFFFF;stroke-width:1.07;" d="
			M45.922,25.203L45.922,25.203l-0.107-0.037l-0.348-0.141l-0.125-0.053l-0.113-0.04l-0.139-0.052l-0.146-0.086l-0.048-0.041
			l-0.045-0.034l-0.026-0.031l-0.038-0.038l-0.063-0.084l-0.049-0.086l-0.058-0.064l-0.104-0.069l-0.019-0.041l-0.003-0.046
			l0.004-0.041l0.012-0.055l-0.027-0.178l0.004-0.121l0.007-0.021l0.009-0.048l0.018-0.059l0.064-0.121l0.056-0.125l0.06-0.054
			l0.075-0.004l-0.027-0.22l-0.008-0.064l0.015-0.039l0.042-0.039l0.088-0.141l0.077-0.164l0.052-0.186l0.028-0.111l0.027-0.085
			l0.036-0.132l0.036-0.11L45.163,22l-0.006-0.062l-0.039-0.047l-0.175-0.13l-0.161-0.094l-0.046-0.019l-0.034-0.043l-0.048-0.056
			l-0.042-0.038l-0.053-0.042l-0.114-0.096l-0.079-0.064l-0.08-0.045l-0.164-0.096l-0.129-0.053l-0.166-0.049l-0.117-0.025
			l-0.026-0.014l-0.016-0.048l-0.031-0.051l-0.028-0.022h-0.029l-0.05,0.012l-0.034-0.016l-0.063-0.047l-0.032-0.023l-0.021-0.015
			l-0.062-0.118l-0.012-0.178l-0.021-0.066l-0.396-0.203l-0.05-0.036l-0.277-0.144l-0.126-0.062l-0.207-0.127l-0.131-0.112
			L42,19.672l-0.085-0.084L41.8,19.485l-0.132-0.173l-0.056-0.1v-0.032l0.017-0.179l0.042-0.141l0.027-0.197l0.021-0.168l0.046-0.27
			l0.101-0.105l0.089-0.078l0.06-0.006l0.192-0.094l0.012-0.061l0.001-0.002l0.012-0.051l0.018-0.028l0.045-0.06l-0.014-0.047
			l-0.04-0.102l-0.037-0.092l-0.061-0.109l-0.062-0.117l-0.069-0.137l-0.076-0.133l-0.058-0.121l-0.009-0.037l-0.015-0.061
			l-0.018-0.063l-0.271-0.269l-0.131-0.1l-0.1-0.094l-0.031-0.215l-0.061-0.043l-0.057-0.043l-0.069-0.045l-0.143-0.114
			l-0.068-0.048l-0.064-0.033l-0.13-0.113l-0.019-0.105l0.014-0.164l0.021-0.078l0.069-0.199l0.022-0.158l-0.056-0.105l-0.021-0.092
			l-0.025-0.104l-0.08-0.192l-0.055-0.045l-0.027-0.051l-0.041-0.086l-0.034-0.073l-0.034-0.048l-0.071-0.023l-0.096-0.028
			l-0.062-0.017L40.144,14l-0.187-0.019l-0.089,0.01l-0.047,0.01H39.77l-0.065-0.032l-0.068-0.009l-0.021,0.003l-0.216,0.03
			l0.019-0.157l0.012-0.089l0.002-0.015l0.011-0.066l0.006-0.103l0.017-0.085l0.021-0.088l0.021-0.088l0.037-0.114l0.026-0.073
			l0.04-0.092l0.057-0.185l0.066-0.173l0.028-0.1l0.021-0.18l-0.015-0.052l-0.021-0.069l-0.057-0.102l-0.05-0.052l-0.123-0.131
			l-0.03-0.089l-0.031-0.109l-0.004-0.063l-0.006-0.098l0.006-0.078l0.005-0.119l0.002-0.043l-0.014-0.135l-0.106-0.093
			l-0.104-0.075l-0.243-0.241l0.021-0.062l-0.002-0.136l-0.036-0.115l-0.016-0.165l0.022-0.042l0.032-0.033l0.143-0.098l0.098-0.073
			l0.051-0.032l0.069-0.042l0.078-0.085l0.02-0.039l0.015-0.142l-0.051-0.174l-0.044-0.29l0.006-0.13l0.077-0.106l0.122-0.084
			l0.054-0.037l0.065-0.05l0.033-0.031l0.059-0.06l0.084-0.085l0.098-0.101l0.109-0.117l0.141-0.119l0.133-0.095l0.107-0.093
			l0.092-0.09l0.004-0.004l-1.023-0.392L39.38,7.713L38.964,7.71l-0.262,0.046l-0.479-0.013L37.72,7.652L37.375,7.61l-0.282-0.066
			l-0.379-0.063l-0.062-0.324l-0.061-0.032L36.41,7.024l-0.244-0.077L36.16,6.946l-0.412-0.062l-0.376-0.153L35.35,6.723
			l0.029-0.449l0.336-0.32l0.031-0.055l0.132-0.231l0.175-0.225l0.003-0.016l0.06-0.263L36.107,4.89l-0.056-0.271l-0.041-0.207
			l-0.009-0.303l0.191-0.37L36.181,3.48l-0.18-0.212l-0.282-0.27l-0.474-0.383l-0.354-0.174l-0.217-0.146l-0.328-0.212l-0.271-0.441
			l-0.271-0.232l-0.262-0.146l-0.316-0.183l-0.285-0.117l-0.283-0.058l-0.569-0.1l-0.481-0.137l-0.249-0.05l-0.287-0.004
			l-0.32-0.021l-0.195-0.009l-0.37-0.03L30.18,0.562l-0.068,0.399l-1.099,1.34l-0.344,0.569l-0.031,0.51l0.156,0.532l0.062,0.208
			l0.364,0.49l-0.293,0.462l-0.094,0.256l-0.064,0.175l0.043,0.648l0.024,0.377v0.28l0.001,0.414l-0.076,0.06l-0.618,0.495
			l-1.234,1.48l-0.286,0.323l0.095,0.541l0.096,0.54l-0.044,0.713l-0.42,0.409l-0.037,0.037l-0.472,0.05l-0.479,0.052l-0.105-0.015
			l-0.235-0.035l-0.246,0.21l-0.435,0.369l-0.669,0.273l-0.124,0.051l-0.645,0.008l-0.666,0.233l-0.521,0.182l-0.488,0.179
			l-0.303,0.11l-0.428-0.018l-0.104,0.032l-0.13,0.04l-0.071,0.022l-0.064,0.354l-0.205,0.221l-0.529,0.57l-0.57,0.228l-0.473-0.044
			l-0.211-0.02l-0.251-0.037l-0.474-0.065l-0.995-0.041L16.3,14.725l-0.014,0.007l-0.31,0.147l-0.297,0.143l-0.875,0.286
			l-0.366,0.413l-0.479,0.125l-0.364-0.125l-0.352-0.118l-0.392,0.017l-0.038,0.002l-1.631-0.029l-1.031,0.029l-1.044,0.245
			l-0.854-0.104L7.902,15.69l-1.177-0.237l-1.389,0.268l-0.131,0.066l-0.398,0.199l-0.325,0.217l-0.03,0.02L3.866,15.95
			l-0.226,0.062l-0.342,0.096l-0.217,0.109l-0.181,0.09H2.887l-1.402,0.019L0.556,15.98l0.016,1.163l-0.033,0.407l0.041,0.304
			L0.575,18.1l0.079,0.25l0.258,0.307l0.271,0.309l0.32,0.211l0.396,0.242l0.364,0.153l0.476,0.437l0.373,0.346l0.176,0.428
			l0.133,0.366l0.107,0.39l0.648,0.329l0.444,0.138l0.444,0.078l0.248,0.174l0.354,0.184l0.262,0.117l0.341,0.24l-0.087,0.371
			l-0.097,0.457l0.117,0.479l0.087,0.428l0.1,0.271l0.18,0.258l0.244-0.237l0.098-0.351l0.162-0.24L7.316,24l0.222-0.295
			l0.199-0.275l0.195-0.187l0.523,0.153l0.19,0.167l0.229,0.274l0.188,0.412l0.12,0.336l0.229,0.19l0.245,0.345l0.296,0.153
			l0.531,0.437l0.678,0.004l0.42,0.033l0.77-0.062l0.586-0.079h0.296l0.493-0.158l0.412-0.092l0.574-0.062l0.573-0.166l0.257-0.012
			l0.134-0.006l0.677-0.146l0.366-0.1l0.241-0.059l0.242-0.045l0.355-0.092l0.399-0.017l0.299,0.004l0.562-0.159l0.3-0.054
			l0.287-0.037l0.286-0.075l0.273-0.062l0.241-0.046l0.092-0.03l0.345-0.11l0.411-0.072l0.378-0.062l0.555-0.075l0.229-0.179
			l0.009-0.428l-0.066-0.267l0.005-0.315l-0.019-0.502l0.063-0.237l0.207-0.199l0.411-0.025l0.392-0.084l0.309-0.016l0.677-0.055
			l0.333-0.004l0.526-0.121l0.458-0.012l0.274-0.047l0.457-0.053l0.379-0.158l0.24-0.051l0.356-0.187l0.2-0.255l0.241-0.148
			l0.199-0.273l0.074-0.354l0.199-0.428l0.129-0.333l0.438-0.079l0.341,0.229l0.282,0.07l0.342,0.162l0.549,0.217l0.603,0.241
			l0.647,0.274l0.226,0.175l0.138,0.208l0.249,0.184l0.309,0.157l0.258,0.142l0.176,0.082l0.234,0.112l0.468,0.175l0.307,0.004
			l0.32,0.086l0.19,0.205l0.374,0.219l0.517,0.033l0.356-0.111l0.274-0.092l0.277,0.631l0.055,0.342l0.213,0.402l0.369,0.354
			l0.225,0.366l0.262,0.212l0.226,0.194l0.458,0.185l0.761,0.253l0.341,0.137l0.378,0.117l0.399,0.029l0.411,0.1l0.424,0.043
			l0.374,0.012l0.528,0.004l0.273,0.041l0.652-0.012l0.503-0.084l0.346,0.004l1.005,0.043l1.56,0.01L45.922,25.203"/>
	</g>
</g>
<g id="Layer_1">
</g>
</svg>
