<?xml version="1.0" encoding="iso-8859-1"?>
<!-- Generator: Adobe Illustrator 16.0.4, SVG Export Plug-In . SVG Version: 6.00 Build 0)  -->
<!DOCTYPE svg PUBLIC "-//W3C//DTD SVG 1.1//EN" "http://www.w3.org/Graphics/SVG/1.1/DTD/svg11.dtd">
<svg version="1.1" xmlns="http://www.w3.org/2000/svg" xmlns:xlink="http://www.w3.org/1999/xlink" x="0px" y="0px"
	 width="54.546px" height="42.268px" viewBox="0 0 54.546 42.268" style="enable-background:new 0 0 54.546 42.268;"
	 xml:space="preserve">
<g id="Layer_115">
	<g id="Layer_120">
		<path id="DISTRICT_x3D_Kohistan_x2C_PROVINCE_x3D_NWFP" style="fill:#CCCCCC;stroke:#FFFFFF;stroke-width:1.07;" d="M21.027,2.112
			L21.027,2.112l-0.121-0.098l-0.109-0.043l-0.098,0.013l-0.095,0.083l-0.082,0.12l-0.1,0.132l-0.14,0.146L20.16,2.581l-0.167,0.092
			l-0.146,0.029L19.678,2.78l-0.193-0.013l-0.179-0.067L19.14,2.672l-0.104-0.049L18.94,2.596l-0.123-0.028l-0.121-0.049
			l-0.135-0.059l0.025-0.021L18.513,2.34l-0.074-0.146l-0.164-0.085l-0.119-0.037l-0.164-0.049l-0.075-0.085l-0.06-0.085
			l-0.091-0.11l-0.148-0.183L17.423,1.39L17.23,1.401L16.96,1.536l-0.087,0.202l-0.241,0.213l-0.041,0.074l-0.228-0.062L16.08,1.936
			h-0.252l-0.132,0.087l-0.013,0.205L15.64,2.329l-0.151,0.098l-0.167,0.03l-0.148-0.02l-0.058,0.104l-0.17,0.107l-0.247,0.125
			l-0.252-0.01l-0.215-0.04l-0.085-0.182l-0.088-0.153l-0.07-0.161L13.875,2.07L13.66,1.889l-0.25-0.061l-0.19,0.034l-0.166,0.014
			l-0.115,0.037l-0.283,0.103l-0.314,0.214l-0.223,0.121l-0.192,0.054l-0.229,0.012l-0.19,0.023l-0.271,0.104l-0.271,0.092
			L10.66,2.73l-0.329,0.024L9.988,2.729L9.704,2.717L9.42,2.668L9.227,2.57L9.122,2.424L9.093,2.24l0.045-0.171L9.18,1.833
			l0.038-0.306L9.216,1.333L9.077,1.313L8.958,1.3L8.674,1.276L8.42,1.313L8.181,1.326L7.957,1.362l-0.27,0.061L7.36,1.473
			L7.002,1.484L6.776,1.473L6.613,1.338L6.404,1.204L6.239,1.069L6.091,0.922L6.03,1.057L5.927,1.258L5.853,1.538L5.837,1.878
			L5.731,1.974L5.553,1.95L5.403,1.925L5.21,1.901L5.046,1.925L4.875,1.994L4.9,2.246l0.034,0.24L4.836,2.608h-0.18L4.476,2.621
			L4.374,2.678L4.316,2.742L4.224,2.816L4.105,2.934L3.991,3.022L3.889,3.114L3.813,3.122l0.012,0.074l0.011,0.069L3.687,3.374
			L3.534,3.485L3.385,3.595L3.25,3.693L3.124,3.719L2.997,3.744L2.767,3.79L2.672,3.802L2.568,3.804L2.463,3.814L2.369,3.835
			L2.202,3.927L2.038,3.993L1.896,3.999L1.804,4.027L1.738,4.187L1.699,4.358L1.654,4.486L1.642,4.583l0.034,0.09L1.69,4.757
			L1.657,4.838L1.519,4.975L1.392,5.063L1.36,5.16L1.461,5.23L1.56,5.295l0.08,0.061L1.629,5.464L1.566,5.539L1.561,5.663L1.525,5.8
			L1.497,5.9l0.077,0.052l0.103,0.055l0.192,0.066L1.98,6.105l0.117,0.047l0.076,0.048l0.175,0.065l0.134,0.006L2.62,6.27
			L2.723,6.28l0.149,0.096l0.08,0.04l0.108,0.036L3.043,6.62l-0.03,0.105l-0.036,0.13L2.946,6.95l0.026,0.08l0.135,0.088l0.886-0.24
			l0.499-0.135l0.335,0.062L4.806,6.979l0.051,0.148L4.89,7.281L4.87,7.514L4.833,7.742L4.802,7.945l0.003,0.343L4.763,8.512
			L4.669,8.752v0.01L4.637,8.838L4.614,8.865L4.547,8.99L4.449,9.198L4.396,9.438L4.374,9.604L4.352,9.846l-0.032,0.303l0.021,0.211
			L4.3,10.62l-0.075,0.163l-0.051,0.193l-0.018,0.136l0.004,0.197l-0.039,0.332l-0.039,0.116l-0.165,0.257l-0.126,0.224l-0.17,0.286
			l-0.123,0.27l-0.09,0.299l-0.065,0.222l-0.048,0.128l-0.03,0.325l-0.039,0.248l-0.032,0.106l-0.03,0.202L3.14,14.582l0.013,0.342
			l0.016,0.241l0.012,0.251l-0.008,0.286l0.003,0.251l0.075,0.237l0.047,0.146l0.084,0.285l0.104,0.272l0.001,0.003l0.038,0.268
			l-0.048,0.225l-0.119,0.226L3.289,17.68l-0.043,0.044l-0.069,0.068l0.152,0.35l0.021,0.004l0.059,0.085l0.143,0.04l0.009,0.002
			l0.094,0.077l-0.021,0.112l-0.057,0.16l-0.04,0.045l-0.054,0.063l-0.01,0.062l0.013,0.09l0.002,0.015l-0.113,0.122L3.29,19.12
			l-0.051,0.237l-0.162,0.11l-0.13,0.103l-0.104,0.102l-0.078,0.136l-0.198,0.109l-0.134,0.018l-0.092,0.012l-0.123,0.076
			l-0.104,0.091l-0.078,0.153l0.223,0.285l0.015,0.166l-0.044,0.108l0.015,0.114l0.095,0.006l0.104,0.066l0.171,0.104L2.73,21.17
			l0.127,0.124l0.077,0.122l0.127,0.086l0.149,0.021l0.142,0.09l0.064,0.041l0.076,0.09l0.027,0.011h0.147l0.092-0.007l0.022,0.002
			l0.046,0.004l0.143,0.031l0.152,0.018l0.072,0.026l0.167,0.019l0.064,0.009l0.068,0.006l0.08,0.018l0.07,0.049l0.068,0.034
			l0.007,0.045l-0.024,0.125l0.001,0.08l0.001,0.035v0.008l0.017,0.135V22.4l-0.05,0.116l-0.104,0.075l-0.008,0.031l-0.036,0.055
			l0.04,0.119l0.024,0.059l-0.043,0.122L4.531,23l-0.098,0.107l-0.097,0.146l-0.016,0.039l-0.015,0.041l0.016,0.086l0.021,0.086
			l0.033,0.088l0.03,0.098l0.026,0.094L4.33,23.922L4.235,24.01l-0.062,0.068l-0.046,0.084l-0.021,0.121l-0.003,0.09l0.006,0.104
			v0.007l-0.005,0.085l-0.001,0.063l-0.038,0.179l-0.07,0.126l-0.026,0.05l-0.105,0.081l-0.065,0.033l-0.023,0.043l-0.027,0.048
			l0.054,0.124l0.069,0.068l0.073,0.062l0.004,0.051l-0.049,0.055l-0.016,0.006l-0.08,0.031L3.73,25.621l-0.028,0.028L3.667,25.73
			l0.011,0.122l0.001,0.004l0.002,0.021l0.089,0.106l0.14,0.138L3.857,26.23l-0.02,0.023L3.797,26.31l-0.071,0.065l-0.043,0.062
			l-0.005,0.024l-0.022,0.115l-0.117,0.071l-0.083,0.069l-0.09,0.062l-0.113,0.008l-0.074-0.041l-0.082-0.019l-0.084-0.019
			l-0.107-0.037l-0.1,0.055l-0.146,0.059l-0.114-0.012l-0.11-0.002l-0.096,0.014l-0.096,0.027l-0.076,0.049l-0.115,0.088
			l-0.088,0.105l0.078,0.099l0.06,0.086l0.096,0.167l0.043,0.123l-0.069,0.16L2.007,27.78l-0.118,0.087L1.84,27.943l-0.037,0.139
			l-0.097,0.011l-0.138,0.009H1.552l-0.107,0.004l-0.112,0.014l-0.045,0.146l0.048,0.08l0.035,0.082l-0.048,0.129l-0.065,0.146
			l-0.058,0.073l-0.042,0.179l-0.02,0.168l-0.064,0.059l-0.111,0.092l-0.075,0.062l-0.122,0.125l-0.05,0.076L0.653,29.65
			l-0.035,0.125l-0.036,0.084l-0.031,0.08l0.028,0.184l0.069,0.064l0.098,0.083l0.08,0.045l0.104,0.05l0.1,0.029l0.118,0.029
			l0.099,0.022l0.165,0.039l0.177-0.011l0.087,0.021l0.103,0.098l0.047,0.078l0.032,0.082l0.049,0.076l0.092,0.092l0.128,0.113
			l0.123-0.059l0.129,0.021l0.12,0.052l0.119,0.026l0.094-0.037l0.107,0.021l0.15,0.071l0.137,0.035l0.138,0.028l0.097,0.034
			l0.042,0.104l-0.015,0.082l-0.003,0.019l0.1,0.147l0.043,0.1l0.006,0.014l-0.004,0.141l0.048,0.131l0.03,0.037L3.66,32.05
			l0.018,0.003l0.207,0.06l0.074,0.021l0.098-0.029l0.109-0.049l0.113-0.022l0.059,0.032l0.117,0.077l0.158,0.111l0.043,0.113
			l0.003,0.131l0.001,0.033L4.652,32.59l0.004,0.008l0.098,0.109l0.027,0.029l0.071,0.045l0.068,0.074l0.11,0.133l0.112,0.059
			l-0.069,0.084l-0.122,0.137l-0.133,0.102l-0.021,0.039l-0.033,0.067l-0.018,0.073v0.007l0.022,0.098l0.034,0.091l0.062,0.153
			l0.016,0.056l0.038,0.139L4.854,34.18l-0.012,0.016l-0.07,0.043L4.762,34.24l-0.048,0.076l0.142,0.104l0.062,0.117l0.021,0.096
			l0.026,0.084l0.015,0.125l-0.046,0.169l-0.02,0.081l-0.018,0.109l-0.01,0.084l0.003,0.006l0.04,0.061l0.101,0.113l0.165,0.09
			l0.071,0.035l0.035,0.019l0.08,0.104l0.056,0.106l0.11,0.149l0.059,0.076l0.089,0.154l0.057,0.176l0.064,0.172l0.004,0.176
			l0.005,0.124l0.004,0.015l0.011,0.108l0.009,0.036l-0.006,0.093l-0.041,0.14L5.77,37.35l-0.008,0.08l0.009,0.099l0,0l-0.014,0.095
			l0.003,0.008L5.753,37.66l0.02,0.104l0.014,0.079l0.133,0.158l0.074,0.088l0.063,0.078l0.092,0.09l0.09,0.078l0.104,0.092
			l0.072,0.042l0.11,0.042l0.272,0.081l0.021,0.004l0.12,0.002l0.268-0.048l0.307-0.057l0.273-0.051L7.85,38.44l0.079-0.004
			l0.016-0.002l0.271-0.042l0.074-0.014l0.146-0.027l0.133,0.008l0.007,0.001l0.118,0.022l0.134,0.087l0.103,0.129l0.014,0.009
			l0.163,0.113l0.207,0.056l0.136,0.015l0.071,0.002l0.02,0.002l0.044-0.008l0.077-0.002l0.058,0.088l0.001,0.002l-0.001,0.002
			l-0.066,0.09l-0.105,0.115l-0.01,0.024l-0.032,0.081v0.002l-0.007,0.098L9.47,39.344l-0.032,0.064l-0.064,0.053l-0.08,0.043
			l-0.104,0.05l-0.097,0.05L9.006,39.65l-0.159,0.094l-0.079,0.074l-0.051,0.125l-0.008,0.032L8.707,40.08l-0.004,0.034L8.699,40.17
			l0.002,0.098l-0.002,0.085l0.004,0.157l-0.014,0.123l-0.001,0.014l-0.053,0.079L8.595,40.84l-0.023,0.134l-0.003,0.006
			l0.048,0.042l0.078,0.035l0.014,0.006l0.185,0.061h0.005l0.135,0.043l0.022-0.002l0.05-0.02l0.194-0.143l0.115-0.117l0.067-0.049
			l0.184-0.062l0.11-0.066l0.129-0.103l0.282-0.122l0.087-0.096l0.049-0.12l0.063-0.069l0.041-0.012l0.017-0.004l0.092,0.001
			l0.151-0.019l0.067-0.009l0.329-0.036l0.271-0.039l0.114-0.028l0.159-0.039l0.062-0.019l0.218-0.062l0.058-0.009l0.055-0.008
			l0.032,0.008l0.059-0.037l0.173-0.082l0.177-0.098l0.032-0.035L12.5,39.67l0.146-0.151l0.344-0.106l0.08,0.006l0.312,0.031
			l0.115-0.041l0.185-0.002l0.21-0.057l0.248-0.077l0.132-0.037l0.302-0.104l0.188-0.032l0.134,0.004l0.402-0.048l0.231-0.02
			l0.138-0.011l0.09,0.006l0.187,0.064l0.155,0.079l0.334,0.188l0.151,0.058l0.206,0.064l0.174,0.08l0.069,0.141l0.081,0.186
			l0.126,0.146l0.233,0.147l0.056,0.028l0.139,0.07l0.251,0.162l0.127,0.104l0.038,0.031l0.052,0.047l0.294,0.11l0.369,0.009
			l0.273,0.004h0.023l0.183-0.023l0.11-0.016l0.393-0.006l0.222,0.002l0.109-0.008l0.182-0.007l0.146-0.053l0.016-0.004l0.169-0.048
			l0.119-0.008h0.053h0.008l0.111-0.004l0.088,0.004l0.146,0.016l0.122-0.037l0.066-0.039l0.363-0.211l0.115-0.116l0.219,0.083
			l0.017,0.001l0.095,0.009l0.185-0.051l0.06,0.008l0.194,0.02l0.059,0.164l-0.023,0.183l0.038,0.09l0.024,0.101l0.021,0.082
			l0.086,0.141l0.067,0.04l0.058,0.024l0.284,0.045l0.464-0.19l0.109-0.073l0.246-0.054l0.256,0.135l0.146,0.011l0.217-0.018
			l0.343-0.085l0.322-0.09l0.315,0.032l0.275-0.024l0.374-0.053l0.59-0.168l0.208,0.051l0.259-0.075l0.344-0.052l0.19-0.026
			l0.285,0.039l0.388,0.076l0.398,0.078l0.431,0.057l0.433-0.084h0.231l0.238,0.102l0.256,0.105l0.101,0.062l0.066,0.054
			l0.259,0.209l0.17,0.17l0.21,0.17l0.006,0.001l0.283,0.088l0.142,0.057l0.312,0.097l0.216-0.003h0.165l0.262-0.062l0.17-0.041
			l0.229,0.006l0.205,0.002l0.406,0.033l0.436,0.027l0.066-0.027l0.119-0.054l0.072-0.153l0.034-0.023l0.072-0.051l0.137-0.107
			l0.218-0.139l0.167-0.084l0.02-0.006l0.061-0.019l0.113-0.028l0.208-0.012l0.152-0.049l0.025-0.012l0.246-0.133l0.082-0.043
			l0.151-0.11l0.053-0.06l0.093-0.144l0.07-0.091l0.071-0.096l0.075-0.086l0.057-0.092l0.018-0.029l0.026-0.113l0.076-0.221
			l0.007-0.015l0.008-0.14l-0.043-0.131l0.059-0.143l0.001-0.027l0.046-0.118l0.093-0.125l0.128-0.124l0.062-0.312l0.007-0.035
			l0.014-0.078l0.094-0.08l0.021-0.01l0.133,0.082l0.151,0.047l0.04-0.006l0.086-0.031l0.106-0.023l0.075-0.027l0.092-0.086
			l0.049-0.187l0.029-0.13l0.025-0.145l0.011-0.101l0.033-0.003l0.475-0.044l1.238-0.117l0.125-0.013l0.005,0.011h0.002l0.003,0.003
			l0.038,0.049l0.065,0.07l0.047,0.053l0.013,0.018l0.038,0.031l0.167,0.357l0.152,0.025l0.033,0.004l0.109,0.013l0.029,0.003
			l0.277,0.197l0.1,0.021l0.154-0.003l0.17-0.052l0.097-0.104l0.035-0.033l0.091-0.084l0.004-0.006l0.088-0.129l0.094-0.086
			l0.115-0.074l0.094-0.158l0.042-0.098l0.004-0.007l0.018,0.001l0.066-0.097l0.013-0.076l0.011-0.142l-0.024-0.092l-0.027-0.097
			v-0.006l0.074-0.171l0.062-0.064l0.024-0.024l0.141,0.028l0.127,0.037l0.134,0.02l0.194-0.032l0.195-0.002l0.102-0.045
			l0.021-0.086l0.01-0.099l0.081-0.084l0.103-0.06l0.122-0.01l0.14-0.013l0.1,0.012l0.105,0.051l0.052,0.068l0.068,0.07l0.093,0.067
			l0.155,0.013l0.143-0.019l0.172,0.032l0.085,0.062l0.089,0.042l0.084,0.021l0.072,0.007l0.009-0.003l0.126-0.018l0.039-0.003
			l0.253,0.06l0.279,0.033l0.146-0.021l0.131-0.082l0.198-0.145l0.15-0.037l0.003,0.002h0.002l0.436,0.31l0.154,0.138l0.111,0.098
			l0.069,0.044l0.245,0.077l0.084,0.041l0.072,0.035l0.229,0.082l0.087-0.019l0.106-0.048l0.047-0.027l0.095-0.064l0.078-0.053
			l0.031-0.021l0.471-0.418l0.062-0.063l0.068-0.174l-0.002-0.037l-0.013-0.242l0.162-0.102l0.048-0.038l0.059-0.046l0.014-0.113
			l-0.01-0.142l-0.035-0.068l-0.021-0.042l-0.021-0.045l-0.061-0.062l-0.031-0.039l-0.009-0.172l0.104-0.082l0.089-0.156
			l0.034-0.256l-0.012-0.042l-0.025-0.087l-0.013-0.073l-0.045-0.272l0.002-0.082l0.033-0.139l0.024-0.177l0.006-0.022l0.059-0.089
			l0.146-0.14l0.165-0.143l0.146-0.229l0.161-0.179l0.028-0.012l0.057-0.015l0.081-0.022l0.4-0.039l0.336-0.035l0.126-0.026
			l0.167-0.032l0.189-0.025l0.239,0.013l0.152,0.052l0.149,0.021l0.175,0.005l0.114-0.007l0.413-0.342l0.109-0.072l0.183-0.122
			l0.111-0.134l0.005-0.004l0.008-0.011l0.09-0.088l0.113-0.048l0.118-0.059l0.468-0.45l0.056-0.125l-0.071-0.091l-0.029-0.059
			l0.001-0.122l-0.038-0.178l-0.073-0.261l0.003-0.033l0.011-0.102l0.086-0.119l0.065-0.084l0.143-0.008l0.045-0.033l-0.103-0.039
			l-0.051-0.066l-0.056-0.109l-0.043-0.123l-0.055-0.119l-0.067-0.096l-0.08-0.082l-0.157-0.248l-0.096-0.106l-0.088-0.125
			l-0.118-0.103l-0.143-0.076l-0.096-0.088l-0.097-0.199l-0.017-0.1l-0.061-0.119l-0.041-0.031l-0.164-0.014l-0.107,0.014
			l-0.144,0.018l-0.15,0.029l-0.171,0.021l-0.146-0.029l-0.14-0.034l-0.095-0.033l-0.222,0.074l-0.104,0.022l-0.118,0.004
			l-0.074,0.006l-0.091,0.045l-0.219,0.084l-0.123,0.051l-0.094,0.043l-0.064,0.029l-0.118-0.006l-0.237-0.152l-0.118-0.08
			l-0.082-0.061l-0.02-0.052l-0.043-0.053l-0.024-0.054l-0.045-0.08l-0.066-0.078l-0.018-0.032L49.044,28.5l-0.054-0.066
			l-0.021-0.051l-0.022-0.037l-0.054-0.047l-0.054-0.025l-0.061-0.007l-0.056,0.043l-0.062,0.015l-0.078,0.012H48.51l-0.142-0.019
			l-0.051-0.002l-0.076-0.082l-0.08-0.063l-0.132-0.092l-0.163-0.123l-0.073-0.05l-0.16-0.085l-0.066-0.033l-0.089-0.047
			l-0.09-0.035l-0.094-0.018l-0.075-0.025l-0.089-0.019l-0.242,0.093l-0.092,0.018l-0.088,0.054l-0.074,0.044l-0.08,0.021
			l-0.091,0.01l-0.136-0.004l-0.106-0.014l-0.109,0.026l-0.098,0.132l-0.077,0.094l-0.126,0.143l-0.107,0.078l-0.089,0.043
			l-0.091,0.07l-0.137,0.068l-0.086-0.062l-0.233-0.01l-0.101-0.004l-0.103,0.028l-0.082,0.012l-0.062-0.021l-0.042-0.082
			l-0.014-0.08l0.01-0.068l0.003-0.119l-0.009-0.07l-0.031-0.09l-0.021-0.055l0.05-0.036l0.033-0.062l-0.078-0.006l-0.137,0.014
			h-0.059l-0.078-0.014l-0.104-0.027l-0.131-0.03l-0.146-0.093l-0.01-0.057l0.087-0.084l0.091-0.063l0.088-0.048l0.029-0.042
			l0.017-0.052l-0.005-0.045l-0.029-0.03l-0.021-0.062l-0.046-0.094l-0.035-0.074l-0.029-0.068l-0.04-0.079l-0.033-0.138
			l-0.025-0.049l-0.026-0.049l0.009-0.058l-0.016-0.042l-0.039-0.041l-0.062-0.04l-0.067-0.031l-0.062-0.04l-0.06-0.068l-0.04-0.08
			l-0.02-0.063l-0.073-0.047l-0.021-0.033l-0.188-0.028l-0.089-0.017l-0.065-0.048l-0.019-0.053l-0.052-0.067l-0.053-0.052
			l-0.061-0.051l-0.024-0.061l-0.041-0.058l-0.016-0.044l0.047-0.074l0.043-0.059l0.025-0.061l0.015-0.061l0.019-0.07l0.007-0.069
			l0.004-0.056l-0.002-0.051l-0.026-0.082l-0.025-0.088l-0.064-0.099l-0.071-0.075l-0.12-0.115l-0.101-0.066l-0.102-0.07
			l-0.066-0.063l-0.049-0.069l-0.041-0.058l-0.051-0.06l-0.04-0.097l-0.017-0.094l-0.038-0.07l-0.023-0.108l0.07-0.155l0.086-0.103
			l0.033-0.103l0.017-0.077l-0.019-0.092l-0.004-0.133L42.401,23.1l-0.013-0.085l0.046-0.05l0.076,0.008l0.115,0.055l0.057,0.016
			l0.037-0.037l-0.023-0.045l-0.029-0.065l-0.039-0.092l-0.021-0.079l-0.035-0.09l-0.035-0.107l-0.039-0.052l-0.006-0.076
			l-0.021-0.069l-0.013-0.086l0.021-0.091l0.052-0.098l0.126-0.104l0.105-0.056l0.104-0.069l0.104-0.084l0.122-0.149l-0.005-0.104
			l0.005-0.099l-0.002-0.093l0.004-0.088l0.137-0.091l0.068-0.064l0.073-0.069l0.048-0.091l0.047-0.108l0.029-0.109l0.021-0.116
			l0.037-0.117l0.03-0.055l0.076-0.079l0.079-0.038l0.15-0.004l0.104-0.02l0.097-0.024l0.123-0.068l0.092-0.071l0.08-0.092
			l0.162-0.14l0.164-0.162l0.17-0.167l0.098-0.208l0.047-0.101l0.072-0.066l0.123-0.008l0.086,0.052l0.152,0.024l0.123-0.017
			l0.072,0.012l0.093,0.043l0.1,0.009l0.123-0.021l0.117-0.086l0.082-0.048l0.103-0.03l0.098-0.021l0.128-0.016l0.088-0.04
			l0.018-0.125l-0.04-0.179l-0.086-0.069l-0.133-0.071l-0.044-0.27l-0.015-0.096l-0.01-0.105l0.008-0.104l-0.066-0.275l-0.011-0.115
			l-0.062-0.176l-0.02-0.11l-0.033-0.091l-0.021-0.174l0.021-0.155l0.006-0.247l0.053-0.085l0.012-0.067l0.001-0.091l0.124-0.12
			l0.042-0.104l-0.092-0.12l-0.087-0.06l-0.086-0.021L45.9,15.977l-0.169,0.027l-0.161,0.001l-0.143-0.044l-0.146-0.032
			l-0.158-0.024l-0.122,0.008l-0.141,0.026l-0.114,0.039l-0.102,0.027l-0.13,0.007l-0.09,0.01l-0.114-0.084l-0.053-0.07
			l-0.031-0.087l-0.047-0.083l-0.037-0.102l-0.08-0.042l-0.09-0.064l-0.123-0.031l-0.097-0.03l-0.125-0.004l-0.095-0.013
			l-0.125-0.01l-0.16,0.002l-0.179,0.009l-0.177,0.016l-0.179,0.035l-0.16,0.048l-0.146,0.044l-0.15,0.024l-0.312,0.053
			l-0.105,0.012l-0.165,0.012l-0.183,0.021l-0.196,0.01l-0.156-0.032l-0.205-0.061L40.8,15.521l-0.125-0.078l-0.138-0.046
			l-0.142-0.065l-0.146-0.062l-0.128-0.036L40.01,15.19l-0.138-0.057l-0.086-0.048l-0.135-0.171l-0.115-0.124l-0.083-0.048
			l-0.249,0.068l-0.167,0.009l-0.177,0.056L38.575,15l-0.256,0.082l-0.229,0.039l-0.229,0.027l-0.247,0.022l-0.146,0.086
			l-0.192,0.031l-0.197,0.102l-0.144,0.084l-0.175,0.083l-0.164-0.012l-0.111-0.007l-0.121-0.046l-0.14-0.137l-0.121-0.112
			l-0.163-0.077l-0.172-0.083l-0.186-0.076l-0.165-0.017l-0.089,0.094l-0.142,0.149l-0.211,0.146l-0.213,0.069l-0.015,0.001
			l-0.001,0.004l-0.207,0.053l-0.261-0.03l-0.176-0.036l-0.147-0.113l-0.134-0.132l-0.104-0.072l-0.165-0.007l-0.168,0.022
			L33.275,15.2l-0.175,0.138l-0.183,0.08l-0.18,0.002l-0.202,0.021L32.33,15.5l-0.197,0.056l-0.237,0.062l-0.216,0.03l-0.205,0.05
			l-0.153-0.016l-0.132,0.014l-0.192,0.06l-0.176,0.12l-0.181,0.034l-0.109-0.122l-0.064-0.128l-0.132-0.121l-0.104-0.103
			l-0.039-0.128l0.016-0.179l0.005-0.14l0.038-0.232l0.008-0.116l-0.048-0.189l-0.028-0.125l-0.011-0.205l-0.016-0.146l-0.025-0.147
			l-0.003-0.155l0.059-0.182l-0.028-0.095l-0.088-0.15l-0.129-0.034l-0.186-0.076L29.579,13.1l-0.15-0.064l-0.175-0.056h-0.104
			l-0.186-0.063l-0.074-0.044l-0.082-0.047l-0.138-0.111l-0.09-0.107l-0.093-0.08l-0.141-0.288l-0.107-0.203l-0.05-0.281
			l-0.049-0.143l-0.078-0.132l-0.048-0.143l-0.129-0.109l-0.246-0.154l-0.03-0.098l-0.104-0.196l-0.064-0.151l0.026-0.191
			l-0.021-0.118l-0.113-0.099l-0.099-0.039l-0.146,0.03l-0.112,0.042l-0.175,0.04l-0.152,0.049l-0.111-0.007L26.353,10.3
			l-0.207-0.077l-0.227-0.068l-0.121-0.06l-0.062-0.103l-0.108-0.086L25.44,9.839l-0.16,0.064l-0.27,0.061l-0.172-0.007
			l-0.203,0.027l-0.176,0.051l-0.175,0.04l-0.219,0.026l-0.162,0.076l-0.165,0.111l-0.261-0.018l-0.155-0.132l-0.134-0.208
			l-0.143-0.029l-0.273,0.001L22.426,9.86l-0.167,0.018l-0.354-0.099l-0.327-0.301l-0.563-0.512L20.52,8.634l-0.354-0.098
			l-0.355-0.367L19.517,7.96l-0.4-0.001l-0.25-0.218l-0.071-0.108l-0.151-0.269l-0.167-0.162l-0.102-0.164l-0.071-0.232l-0.07-0.142
			l0.016-0.239l0.057-0.189l0.065-0.109l0.087-0.031l0.086-0.028l0.07-0.015l0.146-0.049l0.159-0.047l0.079-0.025L19.4,5.99
			l0.417,0.051l0.299,0.013l0.221-0.051l0.133-0.096l0.148-0.236l0.298-0.21l0.455-0.23l0.242-0.096l0.149-0.051l0.107-0.08
			l0.031-0.094l-0.006-0.129l-0.031-0.169l0.023-0.195l-0.089-0.115l-0.042-0.226l0.031-0.138l0.094-0.167l0.126-0.095l-0.013-0.205
			l-0.175-0.21l-0.104-0.175l-0.243-0.302L21.352,2.62l-0.14-0.194l-0.047-0.034l-0.069-0.124L21.027,2.112"/>
	</g>
</g>
<g id="Layer_1">
</g>
</svg>
