<?xml version="1.0" encoding="iso-8859-1"?>
<!-- Generator: Adobe Illustrator 16.0.4, SVG Export Plug-In . SVG Version: 6.00 Build 0)  -->
<!DOCTYPE svg PUBLIC "-//W3C//DTD SVG 1.1//EN" "http://www.w3.org/Graphics/SVG/1.1/DTD/svg11.dtd">
<svg version="1.1" xmlns="http://www.w3.org/2000/svg" xmlns:xlink="http://www.w3.org/1999/xlink" x="0px" y="0px" width="51.58px"
	 height="33.676px" viewBox="0 0 51.58 33.676" style="enable-background:new 0 0 51.58 33.676;" xml:space="preserve">
<g id="Layer_77">
	<g id="Layer_82">
		
			<path id="DISTRICT_x3D_North_Waziristan_Agency_x2C_PROVINCE_x3D_F.A.T.A." style="fill:#CCCCCC;stroke:#FFFFFF;stroke-width:1.07;" d="
			M1.102,31.396L1.102,31.396l0.511,0.082l0.341,0.079l0.295,0.146l0.275,0.116l0.211,0.204l0.304,0.392l0.204,0.225l0.216,0.199
			l0.374,0.166l0.295,0.133l0.358-0.012l0.397-0.009l0.38-0.054l0.198-0.078l0.066-0.025l0.73-0.162l0.396-0.217l0.345-0.162
			l0.517-0.242l0.541-0.215l0.299-0.142l0.474-0.196l0.415-0.281L9,30.893l-0.229-0.108l-0.283-0.125l-0.112-0.241l0.051-0.244
			l0.212-0.429l0.312-0.134l0.008-0.003l0.153-0.267l0.254-0.133l0.315-0.09l0.074-0.021l0.263-0.062l0.3,0.05l0.354-0.037
			l0.342,0.09l0.345,0.014l0.273,0.029l0.237-0.02l0.29-0.023l0.607-0.004l0.308,0.051l0.512-0.018l0.278-0.024l0.365,0.012
			l0.366-0.083l0.312-0.066l0.694,0.039l0.562-0.033l0.471,0.021l0.398,0.042l0.437,0.004l0.387-0.008l0.449-0.033l0.765,0.047
			l0.445,0.021l0.437,0.032l0.387,0.062h0.379l0.41-0.107h0.312l0.249,0.013l0.507-0.091l0.387,0.004l0.55,0.033l0.503,0.129
			l0.757-0.166l0.354,0.041l0.665-0.053l0.448-0.055l0.273-0.025l0.528-0.166l0.503-0.076l0.337-0.299l0.324-0.133l0.424-0.32
			l0.259-0.215l0.254-0.17l0.526-0.117l0.482-0.215l0.352-0.145l0.064-0.025l0.387-0.072l0.312,0.021l0.342,0.004l0.436,0.012
			l0.3-0.09l0.457,0.041l0.375-0.008l0.411,0.088l0.248,0.004h0.039l0.32,0.088l0.522,0.082l0.263,0.104l0.356-0.054l0.014-0.283
			l-0.237-0.204l-0.05-0.392l0.549,0.043l0.304,0.146l0.195,0.167l0.36,0.096l0.326-0.227l0.081-0.057l0.254-0.282l0.012-0.005
			l0.129-0.057l0.264-0.117l0.122-0.076l0.165-0.104l0.254-0.074l0.081-0.086l0.126-0.131l0.098-0.093l0.09-0.085l0.324-0.17
			l0.174-0.104l0.131-0.078l0.087-0.051l0.198-0.287l0.541-0.176l0.197-0.164l0.135-0.109l0.221-0.209l0.188-0.178l0.195-0.17
			l0.116-0.093l0.102-0.08l0.082-0.063l0.172-0.105l0.186-0.076l0.03-0.121l0.129-0.285l-0.016-0.113l-0.043-0.229l0.089-0.225
			l0.051-0.066l0.038-0.084l0.001-0.099l-0.045-0.341l-0.289-0.09l-0.108-0.051l-0.094-0.043l0.265-0.431l0.083,0.05l0.162,0.072
			l0.1,0.07l0.078,0.052l0.119-0.101l0.06-0.061l0.174-0.079l0.03,0.146l0.09,0.061l0.438-0.152l-0.01-0.297l0.063-0.087
			l-0.828-0.778l-1.062-0.562h-0.938l-0.874,0.188l-0.874,0.562l0.125-0.375l0.749-1.811l1.375-2.792l0.687-1.392l1.623-3.123
			l0.5-0.625l0.041,0.016l0.006-0.021L43.16,9.73l1.449-2.172l0.908-1.111l0.395-0.482l2.535-1.594l0.913-0.599l1.043-0.715
			l-0.089-0.031l-0.205-0.074L49.961,2.89L49.84,2.813l-0.106-0.078l-0.103-0.097l-0.108-0.076l-0.059-0.05l-0.066-0.128
			l0.009-0.122l0.001-0.044V2.156L49.39,2.053l-0.041-0.096L49.25,1.884l-0.089-0.051l-0.123-0.043l-0.097-0.042l-0.045-0.116
			l0.031-0.105l0.032-0.088l0.035-0.096l0.031-0.1l-0.014-0.089L48.93,1.046l-0.112-0.033l-0.072-0.126l-0.039-0.089l-0.061-0.047
			l-0.085-0.004l-0.075,0.02l-0.034,0.095l-0.157,0.009l-0.079-0.006l-0.09-0.022l-0.048,0.139l-0.178,0.214l-0.286,0.28
			l-0.424,0.008l-0.309-0.013l-0.249,0.025l-0.411,0.017l-0.481-0.004l-0.333-0.021L44.97,1.53l-0.388-0.021l-0.318-0.146
			l-0.2-0.391l-0.191-0.278L43.61,0.577l-0.333,0.121l-0.299,0.037l-0.457,0.062l-0.403,0.216l-0.42-0.1l-0.183-0.191L41.09,0.859
			l-0.369,0.179h-0.273l-0.379,0.1l-0.47,0.025L39.235,0.96l-0.009,0.026l-0.639,0.021l-0.694,0.108l-0.847,0.949l-0.13,0.125
			l-0.379,0.363l-1.055,1.015l-0.831,0.606l-0.215,0.157L34.2,4.446l-0.524,0.257l-0.908,0.146l-0.17,0.217L32.493,5.21
			l-0.238,0.334l-0.164,0.052l-0.858,0.269l-0.616,0.077l-0.504,0.062l-0.428,0.074l-0.619-0.333L28.68,5.838l-0.099,0.024
			l-0.373,0.593l-1.465,2.328L26.259,8.86L26.05,8.893l-0.266,0.035L25.25,9l-0.23,0.04l-0.195,0.034L24.337,9.28l-0.799,0.106
			l-0.64,0.419l-0.071,0.047l-0.091,0.101l-0.412,0.461l-0.641,0.113l-0.118-0.004l-0.252-0.008l-0.699,0.244l-0.793-0.026
			l-0.748-0.228l-0.4-0.122l-0.558-0.36l-0.677-0.437L16.98,9.455l-0.064-0.018l-0.311,0.168l-0.232,0.125l-0.275,0.259
			l-0.444,0.009l-0.404,0.01l-0.378,0.167l-0.043,0.06l-0.239,0.332l-0.067,0.062l-0.264,0.239l-0.559,0.083l-0.188,0.027
			l-0.629-0.153l-0.23-0.081l-0.186-0.065l-0.327-0.01l-0.201-0.007l-0.479,0.118l-0.003,0.001l-1.584-0.094l-1.46-0.002H8.337
			L8.066,11L7.78,11.334l-0.992,0.949L5.307,13.53l-0.024,0.09l-0.285,1.014l-0.273,1.505l-0.04,0.939l-0.001,0.039l0.663,1.623
			l0.294,0.721l0.665,0.51l0.146,0.316L6.43,20.315l-0.146,0.19l-0.751,0.289l-0.235,0.123l-0.25,0.129l-1.103-0.121l-0.43,0.164
			l-0.143,0.347l-0.093,0.226l-0.718,0.78l-0.449,0.337l-0.748,0.562l-0.705,0.47l-0.021,0.055l-0.098,0.253l0.031,0.535l0.4,0.501
			l0.34,0.247l0.173,0.125l0.671,0.331l0.414,0.19l0.015,0.117l0.024,0.194l-0.07,0.442l-0.068,0.399l-0.063,0.265l-0.01,0.234
			l-0.003,0.077l0.249,0.362l0.092,0.127l0.107,0.146l0.145,0.316l-0.283,0.48l-0.444,0.61L1.539,30.69L1.102,31.396"/>
	</g>
</g>
<g id="Layer_1">
</g>
</svg>
