<?xml version="1.0" encoding="iso-8859-1"?>
<!-- Generator: Adobe Illustrator 16.0.4, SVG Export Plug-In . SVG Version: 6.00 Build 0)  -->
<!DOCTYPE svg PUBLIC "-//W3C//DTD SVG 1.1//EN" "http://www.w3.org/Graphics/SVG/1.1/DTD/svg11.dtd">
<svg version="1.1" xmlns="http://www.w3.org/2000/svg" xmlns:xlink="http://www.w3.org/1999/xlink" x="0px" y="0px"
	 width="31.506px" height="56.978px" viewBox="0 0 31.506 56.978" style="enable-background:new 0 0 31.506 56.978;"
	 xml:space="preserve">
<g id="Layer_142">
	<g id="Layer_147">
		<path id="DISTRICT_x3D_Hyderabad_x2C_PROVINCE_x3D_Sindh" style="fill:#CCCCCC;stroke:#FFFFFF;stroke-width:1.07;" d="
			M5.034,33.881L5.034,33.881l0.005,0.04L5.03,34.002l-0.048,0.246l-0.056,0.167L4.84,34.631l-0.078,0.198l-0.04,0.13l-0.083,0.156
			l-0.095,0.155l-0.092,0.128l-0.093,0.095L4.28,35.61l-0.089,0.13l-0.042,0.067l-0.012,0.054l0.002,0.057l0.008,0.066l0.046,0.076
			l0.079,0.082l0.167,0.146l0.093,0.076l0.091,0.102l0.099,0.107l0.059,0.087l0.067,0.064l0.12,0.111l0.062,0.071l0.058,0.084
			l0.008,0.015l-0.104,0.229l-0.106,0.243L4.813,37.65l-0.071,0.224l-0.07,0.183l-0.003,0.091l0.03,0.145l0.132,0.146l0.222,0.126
			l0.207,0.229l0.108,0.176l0.064,0.133l0.007,0.163l0.04,0.245l0.06,0.348l-0.016,0.185l-0.071,0.223l-0.208,0.281l-0.093,0.131
			l-0.115,0.14l-0.067,0.051l-0.124,0.027l-0.482-0.009l-0.905-0.066L3.03,40.821l-0.224-0.005l-0.101,0.01l-0.125,0.067
			l-0.08,0.061l-0.068,0.081l-0.048,0.11L2.36,41.236l-0.002,0.103l-0.129,0.272l-0.161,0.201l-0.061,0.202L1.93,42.369
			l-0.086,0.313l-0.053,0.376l-0.099,0.385l-0.076,0.469l-0.029,0.305L1.584,44.38l-0.052,0.315l-0.027,0.242l-0.018,0.285
			l-0.026,0.325l0.015,0.174l0.007,0.127l-0.016,0.188l0.005,0.109l0.024,0.138L1.505,46.4l0.023,0.131l0.025,0.071l0.276,0.066
			l0.326,0.07l0.164,0.095l0.146,0.135l0.096,0.156l0.079,0.169l0.045,0.168l0.092,0.199l0.153,0.236l0.209,0.216l0.14,0.134
			l0.05,0.03l0.129,0.118l0.142,0.161l0.066,0.097l0.028,0.08l-0.004,0.109l-0.021,0.119l-0.064,0.125l-0.092,0.096l-0.104,0.05
			l-0.118,0.025l-0.134,0.003l-0.21,0.011l-0.108,0.02L2.646,49.37l-0.131,0.105l-0.044,0.106L2.434,49.72l-0.005,0.054v0.068
			l0.083,0.153l0.041,0.137l-0.004,0.077l-0.005,0.095l-0.038,0.092L2.43,50.472L2.32,50.54l-0.233,0.091l-0.182,0.087l-0.201,0.106
			l-0.038,0.042l-0.01,0.067l0.014,0.064l0.046,0.076l0.075,0.035l0.096,0.062l0.104,0.088l0.134,0.127l0.104,0.107l0.041,0.092
			l-0.001,0.179l-0.015,0.447l0.008,0.18l0.047,0.121l0.017,0.035l0.07,0.138l0.066,0.076l0.07,0.042l0.169,0.035l0.19,0.039
			l0.139,0.022l0.097,0.065l0.065,0.073l0.051,0.109v0.111l-0.011,0.183l-0.042,0.16L3.119,53.72l-0.052,0.142v0.05l0.043,0.092
			l0.079,0.072l0.071,0.058l0.1,0.039l0.144,0.05l0.142,0.043l0.167,0.065l0.209,0.068l0.172,0.081l0.214,0.119l0.175,0.123
			l0.167,0.127l0.104,0.115l0.15,0.134l0.121,0.096l0.1,0.056l0.06,0.064l0.014,0.067l0.041,0.1l0.021,0.062l0.021,0.164
			l0.049,0.222l0.013,0.088l0.041,0.081l0.029,0.095l0.325-0.179l0.125-0.14l0.184-0.17l0.271-0.209l0.238-0.199l0.352-0.218
			l0.205-0.128l0.19-0.078l0.123-0.019l0.101,0.032l0.101-0.019l0.046-0.04l0.104-0.091l0.078-0.009l0.1,0.032l0.155,0.064
			l0.133,0.022l0.18-0.028l0.158-0.058l0.124-0.048l0.069-0.091l0.022-0.091l-0.04-0.186l-0.007-0.193l0.039-0.265l0.285-0.41
			l0.264-0.342l0.097-0.231L9.5,52.842l-0.107-0.175l-0.021-0.133l0.023-0.071l0.079-0.028l0.066,0.001l0.077,0.073l0.165,0.114
			l0.151,0.166l0.077,0.062l0.09-0.027l0.104-0.08l0.047-0.091l0.047-0.102l0.09-0.049l0.113-0.039l0.057-0.039l0.047-0.111
			l0.004-0.122l0.048-0.101l0.045-0.021l0.079-0.028l0.111-0.049l0.023-0.04l0.002-0.082l-0.053-0.153l-0.029-0.143l0.062-0.244
			l0.059-0.07l0.066-0.019l0.044,0.03l0.043,0.072l-0.004,0.163l0.028,0.225l0.118,0.176l0.197,0.177l0.143,0.115l0.057,0.001
			l0.057-0.039l0.023-0.071l-0.007-0.193l0.026-0.151l0.104-0.183l0.094-0.12l0.192-0.128l0.136-0.1l0.148-0.119l0.081-0.131
			l0.048-0.111l0.046-0.05l0.09-0.039l0.067,0.013l0.11,0.053L13.218,51l0.155,0.034l0.269-0.017l0.381-0.021l0.234,0.005
			l0.078,0.032l0.076,0.071l0.094,0.298l0.085,0.164l0.075,0.104l0.101,0.033l0.124-0.069l0.272-0.137l0.169-0.078l0.587-0.279
			l0.508-0.203l0.418-0.175l0.192-0.057l0.247-0.058l0.18-0.036l0.124-0.027l0.09-0.06l0.07-0.102l0.014-0.092l-0.02-0.122
			l-0.076-0.093l-0.232-0.087l-0.088-0.083l0.002-0.052l0.047-0.102l0.124-0.038l0.314-0.044l0.189-0.047l0.093-0.049l0.046-0.071
			l0.146-0.077l0.236-0.036l0.336-0.034l0.279,0.007l0.146,0.003l0.1,0.062l0.053,0.123l-0.004,0.153l-0.028,0.244l-0.053,0.323
			l-0.003,0.112l-0.002,0.061l0.055,0.062l0.066,0.021l0.155,0.015l0.48-0.01l0.234-0.017l0.202-0.046l0.024-0.062l0.023-0.091
			l0.104-0.059l0.076,0.062l0.054,0.072l0.031,0.133l0.017,0.194l0.009,0.092l0.056,0.052l0.11,0.003l0.125-0.049l0.293-0.125
			l0.118-0.046l0.21-0.08l0.223-0.12l0.058-0.06l0.001-0.062l-0.042-0.103l-0.163-0.166l-0.108-0.114l-0.254-0.139L21.46,49.73
			l0.003-0.092l0.062-0.253l0.052-0.192l0.015-0.143l-0.054-0.104l-0.162-0.177l-0.107-0.195l-0.062-0.154l0.023-0.08l0.093-0.061
			l0.157-0.078l0.104-0.13l0.058-0.519l0.017-0.335l0.001-0.028l-0.041-0.144l-0.086-0.136l-0.089-0.062l-0.211-0.076l-0.544-0.144
			l-0.29-0.048l-0.32-0.14l-0.286-0.169l-0.252-0.24l-0.195-0.228l-0.085-0.165l-0.188-0.156l-0.254-0.147l-0.319-0.181L18.3,45.051
			l-0.244-0.098l-0.177-0.085l-0.169-0.122l-0.078-0.043l-0.056,0.01l-0.024,0.051l-0.013,0.081l-0.003,0.111l-0.013,0.052
			l-0.046,0.028l-0.045-0.001l-0.09-0.002l-0.155-0.054l-0.121-0.084l-0.064-0.062l0.001-0.051l0.002-0.062l0.068-0.069l0.048-0.111
			l0.001-0.029l0.001-0.041l-0.033-0.021l-0.245-0.056l-0.154-0.064l-0.177-0.116l-0.099-0.104l-0.128-0.228l-0.13-0.227
			l-0.171-0.289l-0.241-0.239l-0.198-0.116l-0.244-0.097l-0.223-0.056l-0.257-0.035l-0.156-0.055l-0.218-0.22l-0.13-0.206
			l-0.009-0.059l0.023-0.05l0.067,0.001l0.199,0.045l0.225,0.015l0.226-0.036l0.328-0.126l0.34-0.187l0.445-0.327l0.24-0.188
			l0.192-0.14l0.284-0.146l0.376-0.236l0.365-0.298l0.354-0.278l0.355-0.309l0.104-0.109l0.024-0.117l-0.03-0.144l-0.054-0.073
			l-0.067-0.021l-0.089-0.002l-0.26,0.057l-0.26,0.086l-0.272,0.126l-0.261,0.117l-0.124,0.038l-0.09-0.002l-0.089-0.021
			l-0.088-0.084l-0.12-0.114l-0.066-0.053L16.5,39.687l-0.18-0.004l-0.077-0.032l-0.055-0.072l0.002-0.041l0.012-0.061l0.093-0.102
			l0.092-0.109l0.125-0.049l0.169-0.036l0.17-0.068l0.125-0.1l0.126-0.078l0.228-0.077l0.202-0.026l0.158-0.048l0.125-0.048
			l0.047-0.081l0.014-0.102l-0.041-0.154l0.023-0.05l0.047-0.062l0.056-0.019l0.123,0.013l0.135,0.014l0.091-0.039l0.137-0.068
			l0.126-0.078l0.181-0.078l0.158-0.026l0.202-0.036l0.293-0.057l0.352-0.114l0.261-0.138l0.03-0.129l-0.03-0.104l-0.076-0.072
			l-0.179-0.035l-0.123-0.033l-0.088-0.072l-0.01-0.062l0.002-0.092l0.069-0.061l0.091-0.049l0.26-0.065l0.271-0.086l0.238-0.138
			l0.297-0.208l0.151-0.211l0.175-0.251l0.108-0.272l0.003-0.15l0.024-0.069l-0.004-0.083l0.069-0.021l0.068,0.006l0.146,0.052
			l0.25,0.112l0.109,0.06l0.172,0.078l0.087,0.034l0.095,0.06l0.168,0.115l0.078,0.026l0.184,0.019l0.169,0.008l0.146,0.031
			l0.046,0.021l0.026,0.046l-0.015,0.087l-0.054,0.1l-0.057,0.104l-0.109,0.189l-0.01,0.071l-0.042,0.152l-0.012,0.153l-0.003,0.129
			l0.021,0.154l0.084,0.159l0.209,0.146l0.155,0.031l0.344-0.027l0.313-0.074l0.354-0.115l0.327-0.116l0.374-0.109l0.317-0.082
			l0.203-0.057l0.179-0.036l0.279,0.01l0.196,0.003l0.092-0.007l0.162-0.063l0.322-0.096l0.207-0.038l0.312-0.028l0.197-0.043
			l0.171-0.068l0.132-0.15l0.034-0.153l-0.011-0.143l-0.025-0.075l-0.072-0.181l-0.023-0.142l0.001-0.062l0.001-0.047l0.011-0.046
			l0.057-0.116l0.008-0.148l-0.026-0.071l-0.024-0.084l-0.003-0.083l0.022-0.059l0.046-0.012l0.118,0.072l0.117,0.127l0.126,0.11
			l0.073,0.018l0.133-0.002l0.135-0.061l0.219-0.125l0.273-0.175l0.176-0.081l0.134-0.031l0.192-0.009l0.097-0.02l0.09-0.058
			l0.064-0.078l0.122-0.192l0.107-0.119l0.131-0.101l0.015-0.016l0.061-0.068l0.023-0.069l0.057-0.127l0.133-0.11l0.326-0.13
			l0.314-0.106l0.01-0.457l0.017-0.066l-0.008-0.023l-0.013-0.034l-0.081-0.116l-0.053-0.159l0.002-0.103l-0.007-0.3l-0.008-0.287
			l-0.042-0.312l-0.037-0.242l-0.017-0.198l-0.008-0.299l0.013-0.517l-0.016-0.3l-0.027-0.307l-0.076-0.346l-0.093-0.264
			l-0.088-0.212l-0.155-0.32l-0.102-0.181l-0.188-0.31l-0.128-0.232l-0.115-0.219l-0.137-0.193l-0.123-0.136l-0.115-0.175
			l-0.089-0.104l-0.188-0.169l-0.232-0.221l-0.199-0.221l-0.151-0.244L28.3,26.102l-0.081-0.181l-0.059-0.218l-0.167-0.386
			l-0.158-0.31l-0.125-0.396l-0.073-0.187l-0.032-0.204l-0.025-0.083l-0.034-0.358l-0.023-0.223l0.025-0.178l0.033-0.274
			l0.024-0.178l0.024-0.152l0.054-0.185l0.052-0.113l0.01-0.096l-0.005-0.104l0.017-0.113l0.039-0.152l0.006-0.254l0.039-0.209
			l0.032-0.191l0.023-0.151l0.047-0.166l0.043-0.088l0.023-0.09l0.003-0.103l0.003-0.172l0.038-0.127l0.067-0.185l0.017-0.096
			l0.038-0.12l0.051-0.095l0.037-0.056l0.023-0.096l0.023-0.146l0.016-0.069l0.066-0.12l0.022-0.102l0.002-0.104l-0.029-0.249
			l-0.078-0.295l-0.092-0.256l-0.062-0.161l-0.067-0.084l-0.075-0.116l-0.211-0.41l-0.135-0.276l-0.17-0.283l-0.13-0.231
			l-0.085,0.104l-0.09,0.1L27.13,17.19l-0.15,0.063l-0.046,0.009l-0.067-0.004l-0.085-0.052l-0.056-0.082l-0.093-0.107l-0.19-0.197
			l-0.156-0.153l-0.188-0.145l-0.194-0.164l-0.136-0.114l-0.201-0.146l-0.199-0.118l-0.17-0.104L25.022,15.8l-0.19-0.092
			l-0.141-0.044l-0.202-0.077l-0.171-0.067l-0.18-0.05l-0.213-0.05l-0.215-0.044l-0.181-0.029l-0.142-0.011l-0.137,0.001
			l-0.173-0.001l-0.133-0.018l-0.198-0.05l-0.159-0.062l-0.169-0.054l-0.202-0.104l-0.178-0.088l-0.144-0.053l-0.129-0.092
			l-0.195-0.057l-0.072-0.01l-0.043,0.006l-0.044,0.039l-0.055,0.087l-0.038,0.129l-0.062,0.204l-0.067,0.239l-0.027,0.132
			l-0.042,0.255l-0.06,0.195l-0.122,0.209l-0.07,0.11l-0.062,0.032l-0.1,0.008l-0.132-0.016l-0.144-0.064l-0.099-0.06l-0.132-0.063
			l-0.206-0.089l-0.201-0.106l-0.179-0.102l-0.196-0.107l0.055,0.104l0.05,0.201l-0.013,0.285l-0.027,0.137l-0.109,0.153
			l-0.127,0.132l-0.098,0.086l-0.104,0.049l-0.032,0.018l0.001,0.028l0.069,0.065l0.027,0.074l0.012,0.06l-0.047,0.077l-0.103,0.153
			l-0.14,0.229l-0.076,0.161l-0.029,0.113l-0.002,0.143l0.021,0.061l-0.056,0.092l-0.03,0.039l-0.082,0.018l-0.048-0.004
			l-0.021-0.002l-0.075-0.034l-0.113-0.115l-0.22-0.309l-0.165-0.175l-0.181-0.159l-0.145-0.048l-0.143-0.025l-0.24,0.01
			l-0.139,0.05l-0.098,0.033l-0.085-0.021l-0.046-0.104l-0.072-0.162l-0.044-0.06h-0.024l-0.032,0.024l-0.039,0.067l-0.021,0.084
			l-0.023,0.054l-0.073,0.024l-0.066-0.021l-0.152-0.147l-0.19-0.195l-0.294-0.299l-0.122-0.146l-0.039-0.134l-0.004-0.09
			l-0.012-0.053l-0.032-0.007l-0.092,0.003l-0.074-0.005l-0.043-0.021l-0.02-0.045l-0.012-0.098l-0.036-0.065l-0.059-0.014
			l-0.167-0.018l-0.168-0.047l-0.195-0.113l-0.269-0.246l-0.274-0.223l-0.093-0.026l-0.083,0.003l-0.082,0.025l-0.073,0.032
			l-0.058,0.031l-0.006,0.061l-0.014,0.054l-0.015,0.045l-0.032,0.031l-0.04,0.031l-0.074,0.024l-0.266-0.013l-0.241-0.015
			l-0.117-0.019l-0.003-0.061l0.004-0.099l0.031-0.054l0.073-0.04l0.113-0.057l0.05-0.018l0.032-0.001l0.062,0.052l0.033,0.014
			l0.065-0.003l0.031-0.054l0.09-0.033l0.113-0.058l0.103-0.123l0.118-0.14l0.051-0.189l-0.008-0.18l-0.103-0.214l-0.182-0.166
			l-0.313-0.154l-0.104-0.071l-0.002-0.045l0.044-0.129l0.05-0.234l0.025-0.339l-0.044-0.261l-0.137-0.273l-0.116-0.191
			l-0.037-0.096l0.01-0.158l-0.042-0.193l-0.053-0.073l-0.085-0.042l-0.176-0.047l-0.229-0.065l-0.325-0.034l-0.332-0.146
			l-0.401-0.158l-0.136-0.082l-0.083-0.093l-0.021-0.075l0.002-0.097l0.031-0.111l-0.032-0.126l-0.002-0.067l0.026-0.06l0.073-0.019
			l0.204-0.016l0.232-0.022l0.202-0.072l0.223-0.065l0.249-0.073l0.164-0.105l0.025-0.068l-0.002-0.074l-0.06-0.075l-0.179-0.062
			l-0.338-0.023l-0.364-0.041l-0.161-0.079l-0.125-0.115l-0.069-0.148L11.246,9.65l-0.032-0.127l-0.06-0.091l-0.123-0.056
			l-0.133-0.072L10.84,9.247L10.787,9.08l-0.044-0.159l-0.004-0.143l-0.004-0.103l-0.059-0.091l-0.049-0.041l-0.037,0.001
			l-0.057,0.002l-0.09,0.095l-0.097,0.163l-0.092,0.062L10.145,8.87L9.995,8.849L9.824,8.787L9.606,8.701L9.377,8.521L9.212,8.332
			l-0.041-0.1l0.022-0.137l0.099-0.172l0.082-0.061l0.072-0.036l0.149-0.004l0.326-0.019l0.166-0.039l0.129-0.045l0.072-0.068
			l0.079-0.13l0.045-0.076l0.072-0.062l0.146-0.089l0.024-0.051l-0.002-0.076l-0.041-0.083l-0.011-0.067l0.014-0.127l0.061-0.195
			l0.04-0.187l0.021-0.25l-0.022-0.143l-0.002-0.094l0.053-0.076l0.074-0.002l0.064-0.02l0.036-0.035l-0.002-0.042l-0.02-0.05
			l-0.06-0.041V5.725L10.867,5.7l0.085-0.028l0.1-0.07l0.135-0.154l0.141-0.3l0.05-0.203l-0.005-0.126l-0.053-0.143l-0.012-0.066
			l0.027-0.043l0.063-0.02l0.096,0.031l0.074,0.022l0.084-0.02l0.026-0.043l-0.002-0.06l0.008-0.051l0.044-0.052l0.045-0.052
			l0.008-0.061l-0.05-0.107l-0.097-0.081L11.56,4.052l-0.112-0.006l-0.036-0.007l-0.039-0.041l0.269-0.175l0.071-0.139l0.04-0.101
			l-0.001-0.057l-0.033-0.104L11.67,3.317l0.004-0.035l0.004-0.03l0.028-0.022l0.075-0.036l0.203-0.099l0.121-0.078l0.162-0.065
			l0.16-0.07L12.6,2.806l0.104-0.067l0.038-0.016l0.066-0.006l0.193,0.016l0.091-0.012l0.104-0.024l0.199-0.08l0.138-0.082
			l0.036-0.04l0.026-0.071l-0.002-0.057l-0.017-0.042l-0.035-0.038l-0.098-0.011l-0.158,0.001l-0.072-0.021l-0.03-0.012
			l-0.024-0.048l-0.03-0.024h-0.146L12.93,2.148l-0.026-0.043l-0.086-0.114l-0.123-0.07L12.627,1.91L12.58,1.929l-0.056,0.11
			l-0.036,0.153L12.377,2.3l-0.155,0.083l-0.164,0.084l-0.146,0.058L11.391,2.67l-0.444,0.075l-0.424,0.049L10.1,2.833L9.459,2.85
			L9.237,2.839L9.184,2.795l-0.05-0.051L9.062,2.698L9.043,2.631L8.946,2.566L8.799,2.352L8.654,2.211L8.519,2.088L8.438,1.922
			L8.435,1.829L8.413,1.703l-0.03-0.066L8.308,1.648L8.242,1.624L8.137,1.526L7.965,1.422L7.812,1.325L7.613,1.237L7.395,1.079
			l-0.106-0.14L7.183,0.882L6.937,0.779L6.764,0.648L6.696,0.575l-0.059-0.04H6.601L6.536,0.537L6.241,0.664L5.802,0.921l-0.448,0.3
			L4.994,1.594L4.634,2l-0.25,0.328L4.129,2.774L4.003,3.173L3.896,3.411L3.819,3.606L3.781,3.853L3.722,4.04L3.676,4.058
			L3.544,4.054L3.34,4.068L3.211,4.123L3.064,4.236l-0.04,0.194L3.004,4.602L2.96,4.704L2.924,4.722L2.877,4.723L2.801,4.675
			L2.759,4.549l-0.03-0.074l-0.039-0.04L2.662,4.436L2.561,4.497L2.408,4.653L2.092,4.932L1.875,5.123L1.686,5.318l0.472,0.339
			L2.125,5.753L1.716,6.294L0.907,7.191L0.573,7.57L0.54,7.837l0.036,0.228l0.392,0.424l0.729,0.558l0.371,0.361l0.731,0.436
			l0.888,0.522l0.332,0.195l0.125,0.271l0.311,0.771l0.075,0.49l-0.008,0.719l-0.149,0.344l-0.256,0.156l-0.551,0.125l-0.187,0.116
			l-0.123,0.242l0.019,0.637l0.335,0.71l0.321,0.463l0.599,0.349l0.979,0.444l1.334,0.641l1.002,0.424l0.738,0.231l0.943,0.236
			l0.244,0.093l0.163,0.091l-0.02,0.242l-0.076,0.202l-0.237,0.259l-0.623,0.266l-0.853,0.319l-0.872,0.258l-0.71,0.181
			l-0.555,0.287L5.8,20.305l-0.312,0.441L5.457,20.95l0.011,0.287l0.233,0.378l0.344,0.441l0.271,0.604l0.214,0.478l0.075,0.17
			l0.226,0.582l0.232,0.378l-0.05,0.12l-0.207,0.075l-0.362,0.008l-0.455,0.066l-0.731,0.181l-0.644,0.225l-0.574,0.228l-0.28,0.195
			l-0.189,0.239l-0.221,0.383L3.31,26.397l0.028,0.391l0.091,0.45l0.072,0.434l0.04,0.264l0.014,0.088l-0.081,0.324l-0.237,0.301
			l-0.261,0.278L2.94,29.234l-0.01,0.225l0.058,0.289l0.21,0.396l0.309,0.729l0.147,0.194l0.027,0.062l0.032,0.058l0.018,0.043
			l0.027,0.021l0.026,0.004l0.021,0.012l0.041,0.05l0.057,0.075l0.029,0.07l0.015,0.043l0.049,0.111l0.039,0.135l0.048,0.086
			l0.049,0.131l0.037,0.122l0.053,0.1L4.294,32.3l0.125,0.184l0.064,0.092l0.077,0.104l0.091,0.11l0.082,0.118l0.07,0.124
			l0.062,0.188l0.066,0.229l0.067,0.225l0.017,0.107L5.034,33.881"/>
	</g>
</g>
<g id="Layer_1">
</g>
</svg>
