<?xml version="1.0" encoding="iso-8859-1"?>
<!-- Generator: Adobe Illustrator 16.0.4, SVG Export Plug-In . SVG Version: 6.00 Build 0)  -->
<!DOCTYPE svg PUBLIC "-//W3C//DTD SVG 1.1//EN" "http://www.w3.org/Graphics/SVG/1.1/DTD/svg11.dtd">
<svg version="1.1" xmlns="http://www.w3.org/2000/svg" xmlns:xlink="http://www.w3.org/1999/xlink" x="0px" y="0px"
	 width="27.257px" height="20.86px" viewBox="0 0 27.257 20.86" style="enable-background:new 0 0 27.257 20.86;"
	 xml:space="preserve">
<g id="Layer_113">
	<g id="Layer_118">
		<path id="DISTRICT_x3D_Kotli_x2C_PROVINCE_x3D_AJK" style="fill:#CCCCCC;stroke:#FFFFFF;stroke-width:1.07;" d="M18.861,18.996
			L18.861,18.996l0.039-0.005h0.041L19,18.986l0.111-0.025l0.104-0.046l0.07-0.038l0.041-0.038l0.019-0.038v-0.046l0.045-0.045
			v-0.058v-0.026l0.009-0.03l0.005-0.023l-0.014-0.038l-0.02-0.007l-0.035-0.023l-0.019-0.038l-0.01-0.026l-0.009-0.034
			l-0.022-0.015l0.041-0.039l0.045-0.045l0.021-0.039l0.036-0.026l0.021-0.027l0.031-0.008l0.095,0.031l0.041,0.026l0.036,0.019
			l0.041,0.026l0.031,0.031l0.05,0.004l0.058-0.009l0.023-0.03l0.018-0.037l0.036-0.035l-0.009-0.035l-0.01-0.021v-0.047
			l0.045-0.004l0.026-0.012l0.019-0.038l0.021-0.021l0.06-0.033l0.025-0.017l0.046-0.026l0.041-0.019l0.055-0.022l0.04-0.016
			l0.045-0.008l0.04-0.016L20.4,17.88l0.049-0.02l0.046-0.021l0.036-0.025l0.049-0.023l0.011-0.025v-0.043v-0.033l-0.006-0.073
			l0.021-0.058l0.045-0.03l0.05-0.031h0.041l0.055,0.004l0.05,0.031l0.021,0.022l0.05,0.049l0.019,0.031l0.019,0.034l0.04,0.042
			l0.015,0.03v0.022h0.022h0.031l0.04-0.008l0.036-0.007l0.05-0.042l0.071-0.027h0.046l0.05,0.008l0.031,0.008h0.014h0.085
			l0.036-0.012l0.021-0.03l0.006-0.038l0.065-0.026h0.041h0.032l0.035-0.001l0.041-0.025l0.05-0.008l0.035-0.023l0.055-0.016
			l0.04-0.008h0.05l0.036,0.023h0.036l0.059-0.003h0.045h0.027l0.045-0.023l0.059-0.012l0.112,0.038l0.054,0.023l0.051,0.015h0.036
			l0.014-0.026l0.018-0.012l-0.004-0.023v-0.031l0.004-0.045l0.015-0.02l0.035-0.02l0.062-0.004l0.041-0.012l0.04-0.029l0.018-0.059
			l0.027-0.046l0.036-0.046l0.036-0.023l0.018-0.021l0.023-0.008l0.035-0.016l0.021-0.016l0.031-0.023l0.019-0.023l0.067-0.049
			l0.021-0.03l0.031-0.019l0.027-0.023l0.014-0.023l0.021-0.031h0.021h0.032l0.026,0.008l0.026,0.023h0.032l0.021-0.031l0.011-0.031
			l0.008-0.037l0.019-0.027l0.022-0.004h0.041l0.04-0.016l0.026-0.026h0.036h0.041l0.04,0.004l0.031,0.011l0.021,0.023l0.027-0.003
			l0.004-0.022l0.036-0.02l0.021,0.004l0.056,0.003h0.036l0.04-0.003l0.026-0.031l0.022-0.029l0.018-0.031l0.036-0.031l0.036-0.027
			l0.05-0.019l0.035-0.022l0.032-0.023l0.07-0.02l0.02-0.027l0.009-0.03l0.009-0.035l0.04-0.03l0.023-0.022l0.03-0.03l0.055-0.029
			l0.04-0.027l0.014-0.022l0.041-0.034l0.026-0.039l0.026-0.03l0.019-0.023l0.026-0.016l0.005-0.015l-0.001-0.035l0.032-0.026
			l0.021-0.019l0.031-0.023l0.036-0.035l0.045-0.02l0.055-0.004h0.031h0.04l0.036-0.008l0.055-0.031l0.05-0.03l0.03-0.019
			l0.04-0.031l0.041-0.023l0.026-0.023l0.023-0.039v-0.029l-0.006-0.016l-0.026-0.026l-0.005-0.019l-0.004-0.016v-0.038l0.009-0.008
			v-0.045l-0.02-0.013l-0.03-0.019l0.004-0.042l0.059-0.016l0.032-0.016h0.05l0.035-0.004h0.041L25.4,15.42l0.031-0.007l0.041-0.017
			l0.055-0.022l0.035-0.021l0.027-0.025l0.045-0.023l0.018-0.021l0.005-0.042l0.014-0.05l0.022-0.047l0.008-0.072v-0.027
			l-0.004-0.029l-0.031-0.031l-0.031-0.008l-0.02-0.039v-0.053v-0.023l0.045-0.061l0.046-0.044v-0.045V14.67l0.004-0.031
			l0.019-0.037l0.005-0.047v-0.041v-0.031l0.014-0.049l0.014-0.031l0.009-0.038l0.014-0.038l0.004-0.012V14.28l0.015-0.046
			l0.021-0.043l0.019-0.034l0.021-0.026l0.031-0.031l0.005-0.035v-0.041v-0.035l0.013-0.034l0.02-0.031l0.019-0.039l0.04-0.007
			h0.026l0.022,0.012l0.022,0.016l0.018,0.025h0.027h0.045h0.027l0.036-0.002l0.021-0.017l0.006-0.019l0.035-0.047l0.009-0.039
			v-0.022l0.019-0.045l0.005-0.111l0.014-0.026l0.008-0.039l0.032-0.041l0.04-0.058l0.031-0.022l0.021-0.039l0.027-0.026
			l0.045-0.101l0.009-0.057v-0.106l-0.001-0.05v-0.051v-0.022v-0.054l0.005-0.068v-0.055l0.013-0.041l0.006-0.053l0.004-0.062
			v-0.059l0.021-0.054l-0.005-0.067v-0.043l-0.009-0.045l-0.02-0.035l-0.018-0.02l-0.045-0.016l-0.05-0.008l-0.04-0.022
			l-0.055-0.022l-0.036-0.015l-0.036-0.012l-0.045-0.011l-0.036-0.013l-0.036-0.026l-0.014-0.03v-0.042v-0.046v-0.026v-0.076V11.93
			l0.004-0.041l0.018-0.051v-0.046l-0.004-0.008l0.014-0.03l-0.001-0.046l0.006-0.03l-0.023-0.07v-0.053v-0.046v-0.058l-0.027-0.034
			l-0.025-0.03l-0.011-0.008l-0.035-0.035l-0.004-0.035v-0.041v-0.035v-0.026l0.018-0.031v-0.019l0.031-0.042l0.009-0.031
			l0.009-0.03l0.072-0.039v-0.03l0.021-0.019l0.015-0.027l0.03-0.016l0.027-0.045l0.018-0.023l0.027-0.008l0.04-0.003l0.009-0.035
			l-0.019-0.05l-0.019-0.026l-0.018-0.046l-0.023-0.023l-0.014-0.03v-0.031l-0.013-0.031l-0.02-0.03l-0.014-0.03l0.005-0.027
			l0.013-0.035l0.02-0.042l0.005-0.05l-0.001-0.031l0.036-0.068l0.026-0.023l0.022-0.038l0.03-0.054V10.09l-0.019-0.084
			l-0.005-0.058l-0.031-0.034l0.032-0.09l0.152-0.046l0.165-0.069l0.026-0.041l0.005-0.092V9.537V9.495l-0.014-0.026l-0.031-0.031
			L26.636,9.4l-0.014-0.02l-0.041-0.019l-0.021-0.03l-0.023-0.05L26.51,9.254L26.484,9.22l-0.02-0.019L26.43,9.186l-0.051-0.027
			l-0.036-0.023l-0.018-0.019l-0.036-0.023l-0.031-0.019l-0.055-0.027l-0.054-0.011l-0.055-0.015L26.068,9.01l-0.045-0.03
			l-0.036-0.034l-0.036-0.035l-0.02-0.046V8.846L25.873,8.8l-0.031-0.038L25.796,8.72L25.76,8.697l-0.049-0.023l-0.059-0.023
			L25.53,8.594L25.494,8.56l-0.036-0.042l-0.036-0.046l-0.005-0.039l0.019-0.045l-0.001-0.069l-0.049-0.054l-0.032-0.026
			l-0.018-0.046l-0.027-0.042L25.29,8.07l-0.036-0.058L25.23,7.978l-0.031-0.031L25.194,7.89l0.014-0.061l0.01-0.046V7.741
			l-0.005-0.053l-0.02-0.023V7.573V7.527V7.481V7.443l0.014,0.015V7.416l-0.005-0.035V7.343l-0.009-0.046l-0.005-0.03V7.229
			l-0.014-0.031l-0.011-0.042l-0.018-0.027l-0.02-0.031l-0.018-0.03l-0.014-0.019L25.081,7.03V7.007V6.953l-0.004-0.031
			l-0.006-0.045l-0.025-0.023l-0.031-0.039l-0.028-0.03l-0.049-0.023l-0.055-0.039l-0.05-0.03l-0.055-0.034l-0.021-0.016
			l-0.02-0.019V6.589V6.563V6.517l-0.009-0.03l-0.014-0.035l-0.02-0.027l-0.031-0.027l-0.035-0.015l-0.022-0.011l-0.018-0.016
			l-0.027-0.019L24.54,6.311l-0.032-0.023l-0.021-0.031l-0.022-0.023l-0.062-0.03l-0.045-0.015l-0.05-0.008l-0.032-0.012
			l-0.021-0.003l-0.06-0.008l-0.021-0.019l-0.036-0.031L24.1,6.085l-0.107-0.034h-0.036L23.93,6.025l-0.019-0.031V5.963
			l-0.027-0.015L23.839,5.94l-0.027-0.008L23.75,5.928l-0.041-0.012l-0.031-0.015l-0.036-0.023l-0.062-0.053l-0.035-0.023
			l-0.037-0.019l-0.04-0.031l-0.032-0.034L23.39,5.683l-0.045-0.042l-0.067-0.038l-0.05-0.03l-0.045-0.038l-0.045-0.046
			l-0.095-0.011l-0.05,0.016l-0.072,0.027l-0.062,0.027l-0.063,0.034h-0.072l-0.09-0.023l-0.067-0.034L22.531,5.49l-0.036-0.046
			l-0.032-0.042l-0.026-0.039L22.41,5.321l-0.041-0.023l-0.036-0.019L22.284,5.26l-0.036-0.046l-0.027-0.039l-0.055-0.034
			L22.14,5.129l-0.041-0.035l-0.05-0.034l-0.076-0.039h-0.021l-0.056,0.015l-0.044,0.02l-0.041,0.027l-0.05,0.03l-0.059-0.007
			l-0.076-0.023l-0.072-0.03h-0.021H21.5l-0.054,0.015l-0.019,0.004L21.4,5.088L21.375,5.1l-0.027,0.011l-0.031,0.004h-0.031
			l-0.041,0.011l-0.04,0.019l-0.049,0.031L21.1,5.214l-0.03,0.031l-0.01,0.046l-0.018,0.045l-0.041,0.015L20.97,5.386l-0.066,0.023
			l-0.036,0.023h-0.041h-0.035h-0.05h-0.036l-0.108-0.008h-0.036l-0.059-0.007h-0.036L20.398,5.41L20.34,5.402l-0.062-0.008
			l-0.041-0.011L20.182,5.38h-0.058l-0.041-0.012l-0.027-0.02L20.024,5.31l-0.019-0.046l-0.018-0.035l-0.022-0.034l-0.019-0.027
			l-0.019-0.035L19.91,5.099l-0.02-0.05l-0.018-0.042L19.851,4.95l-0.014-0.042l-0.021-0.061l-0.02-0.027L19.76,4.751l-0.026-0.05
			l-0.022-0.042l-0.021-0.027l-0.031-0.034l-0.031-0.031L19.59,4.525l-0.037,0.012L19.53,4.549l-0.021,0.018l-0.048,0.028h-0.055
			L19.38,4.615L19.321,4.63l-0.037,0.021l-0.041,0.012l-0.062,0.032l-0.022,0.021h-0.051H19.08l-0.065-0.023l-0.017-0.017
			l-0.021-0.029l-0.021-0.025L18.936,4.61l-0.03-0.041L18.86,4.528L18.833,4.5l-0.034-0.015L18.77,4.479l-0.031-0.012l-0.027-0.009
			l-0.034-0.005L18.636,4.45l-0.029-0.015l-0.023-0.003l-0.031-0.009l-0.022-0.005l-0.024-0.012l-0.021-0.017l-0.027-0.012
			l-0.023-0.012l-0.036-0.021l-0.024-0.014l-0.059-0.023l-0.026-0.017H18.27h-0.026l-0.027-0.009l-0.026-0.006l-0.021-0.009
			l-0.021-0.008l-0.023-0.012l-0.017-0.021l-0.016-0.015l-0.026-0.023l-0.023-0.014l-0.021-0.018l-0.021-0.023L17.98,4.112
			l-0.03-0.026l-0.021-0.02L17.878,4.02l-0.03-0.035H17.81l-0.017,0.009l-0.018,0.014l-0.014,0.009l-0.023,0.029l-0.018,0.02h-0.023
			l-0.026-0.008h-0.059l-0.056,0.026l-0.029,0.011l-0.024,0.012l-0.03,0.012L17.45,4.137h-0.034h-0.021l-0.051-0.005L17.302,4.12
			l-0.03-0.012l-0.021-0.023l-0.027-0.018l-0.021-0.029l-0.015-0.015l-0.014-0.02l-0.034-0.075l-0.014-0.032L17.12,3.878
			l-0.015-0.017l-0.021-0.032l-0.017-0.015l-0.018-0.041L17.04,3.756l-0.019-0.035l-0.011-0.018l-0.017-0.029l-0.015-0.022
			l-0.023-0.015L16.93,3.634l-0.017,0.012l-0.025,0.018l-0.022,0.009l-0.03,0.023l-0.03,0.026L16.784,3.74h-0.03l-0.031,0.003
			l-0.037,0.009l-0.023,0.009l-0.059,0.011L16.59,3.778l-0.01,0.021V3.81v0.009v0.015v0.014v0.021l-0.004,0.012l-0.004,0.012
			l-0.014,0.011l-0.007,0.015l-0.014,0.017l-0.007,0.018l-0.024,0.02H16.49l-0.052-0.003l-0.03-0.009L16.382,3.96l-0.034-0.002
			l-0.023-0.003l-0.021-0.006L16.249,3.94L16.23,3.937l-0.034-0.012l-0.021-0.008l-0.023-0.018l-0.008-0.008l-0.017-0.015
			L16.11,3.859l-0.026-0.015L16.053,3.83l-0.023-0.012l-0.018-0.006h-0.023l-0.029,0.003l-0.024,0.003L15.921,3.83l-0.018,0.017
			l-0.022,0.02L15.85,3.885l-0.023,0.012l-0.014,0.015l-0.014,0.02l-0.007,0.012l-0.015,0.029l-0.01,0.015l-0.014,0.018
			l-0.015,0.022l-0.014,0.029l-0.01,0.038l-0.004,0.02l-0.031,0.026l-0.023,0.012l-0.014,0.006h-0.055h-0.04l-0.085,0.009
			l-0.024,0.006l-0.026,0.015l-0.021,0.014l-0.014,0.009l-0.021,0.015L15.34,4.244l-0.024,0.012l-0.034,0.003l-0.022,0.009
			l-0.044,0.026L15.19,4.3l-0.066,0.009l-0.031,0.023l-0.04,0.012h-0.027l-0.041,0.015l-0.026,0.015l-0.023,0.003l-0.062-0.003
			h-0.021l-0.021,0.003L14.807,4.38l-0.022,0.006h-0.027h-0.041l-0.019,0.003l-0.025,0.009l-0.014,0.009l-0.015,0.014l-0.017,0.015
			l-0.011,0.008h-0.012h-0.017h-0.011l-0.014-0.005l-0.017-0.011l-0.014-0.015L14.515,4.41h-0.021v0.012L14.479,4.44v0.017v0.015
			v0.009v0.012h-0.014l-0.01,0.002l-0.034-0.011l-0.011-0.006l-0.027-0.003l-0.022-0.003l-0.018-0.011l-0.018-0.005l-0.034,0.011
			l-0.015,0.018l-0.021,0.014L14.24,4.52l-0.015,0.011l-0.01,0.021l-0.007,0.015l-0.024,0.014l-0.017,0.015l-0.021,0.012
			L14.12,4.619l-0.027,0.015L14.065,4.64H14.04l-0.019-0.003L14.01,4.636l-0.013-0.001l-0.013-0.011L13.977,4.62l-0.014-0.012
			l-0.011-0.012l-0.014-0.014L13.93,4.568l-0.005-0.009l-0.004-0.01l-0.007-0.014l-0.026-0.023L13.874,4.49l-0.009-0.012
			l-0.037-0.012l-0.029-0.015L13.765,4.44l-0.021-0.003l-0.032-0.005l-0.059-0.003h-0.023l-0.027,0.003l-0.03,0.005h-0.026h-0.027
			L13.49,4.446l-0.014,0.015L13.46,4.479h-0.021h-0.018l-0.023-0.018h-0.03l-0.03,0.003l-0.023,0.015H13.29l-0.034,0.026
			l-0.003,0.012v0.012V4.55l0.004,0.011l0.013,0.014l0.021,0.012l0.014,0.009l0.017,0.003l0.015,0.006h0.022l0.028,0.002L13.4,4.61
			l0.018,0.012l0.01,0.009l0.007,0.014l0.004,0.009l0.003,0.012v0.011l0.008,0.021l0.011,0.011l0.003,0.012l0.011,0.012l0.01,0.017
			v0.012V4.78L13.48,4.803l-0.018,0.012L13.457,4.82l-0.008,0.012l-0.037,0.009h-0.011L13.381,4.85l-0.027,0.009l-0.021,0.006
			l-0.031,0.002h-0.03h-0.034l-0.029,0.006L13.17,4.876l-0.029,0.009l-0.031,0.006l-0.034,0.011l-0.021,0.003h-0.037h-0.038h-0.034
			h-0.033h-0.055l-0.031,0.003L12.797,4.92L12.77,4.931l-0.023,0.015l-0.023,0.012l-0.021,0.009l-0.033,0.012l-0.021,0.009L12.6,5
			l-0.034,0.003l-0.034,0.006l-0.055,0.002l-0.034,0.003l-0.033,0.012l-0.018,0.006h-0.059l-0.021-0.006L12.289,5.02l-0.027-0.003
			l-0.027-0.008l-0.062-0.012l-0.015-0.003h-0.036l-0.027-0.003l-0.017-0.012L12.05,4.968l-0.026-0.012L12.02,4.935l-0.01-0.009
			l-0.001-0.015V4.889l0.008-0.023l0.003-0.021V4.822l-0.004-0.035l-0.014-0.021l-0.018-0.025l-0.018-0.026l-0.027-0.026
			l-0.04-0.025l-0.034-0.015l-0.03-0.015L11.798,4.62l-0.045-0.015l-0.03-0.014l-0.041-0.009l-0.048-0.02l-0.021-0.009l-0.037-0.009
			l-0.026-0.008l-0.031-0.021L11.47,4.513L11.415,4.53l-0.062-0.015l-0.038-0.011l-0.026-0.015l-0.044-0.026L11.227,4.44
			l-0.022-0.017L11.18,4.411l-0.021-0.014l-0.026-0.026l-0.014-0.02l-0.049-0.017l-0.025-0.023l-0.027-0.018l-0.026-0.02
			l-0.027-0.014l-0.031-0.012l-0.017-0.015l-0.024-0.008L10.84,4.209l-0.045-0.003l-0.023-0.003l-0.047-0.017l-0.021-0.005
			l-0.03-0.009l-0.03-0.006l-0.026-0.012l-0.021-0.009l-0.02-0.017l-0.027-0.02l-0.014-0.021l-0.008-0.023l-0.007-0.035L10.51,4.006
			l-0.014-0.029l-0.018-0.015l-0.021-0.008h-0.042l-0.018-0.018l-0.029-0.008L10.328,3.91l-0.021-0.015l-0.027-0.017l-0.023-0.021
			l-0.018-0.011l-0.026-0.014l-0.015-0.009l-0.01-0.003l-0.021-0.021L10.156,3.79H10.13l-0.042,0.015l-0.023,0.009l-0.021,0.012
			l-0.027,0.012L9.994,3.856L9.97,3.873L9.923,3.908L9.901,3.931L9.884,3.949L9.856,3.972L9.844,3.99L9.815,4.007l-0.014,0.02
			L9.785,4.039L9.748,4.042H9.721H9.698L9.664,4.048L9.657,4.071v0.023v0.017L9.649,4.132L9.643,4.149L9.629,4.175l-0.03,0.003
			H9.567H9.542L9.514,4.175L9.477,4.169L9.439,4.157l-0.03-0.011L9.372,4.137L9.301,4.102L9.272,4.084l-0.01-0.002L9.212,4.059
			L9.163,4.042L9.134,4.027L9.109,4.012l-0.018-0.02L9.065,3.98l-0.03-0.014L9.001,3.943L8.974,3.925L8.939,3.91L8.917,3.899
			L8.886,3.885L8.852,3.876L8.785,3.844L8.758,3.83L8.724,3.812L8.682,3.797L8.659,3.791L8.632,3.783l-0.03-0.015L8.578,3.751
			L8.537,3.728L8.51,3.722L8.466,3.705L8.429,3.702L8.401,3.696L8.363,3.688L8.343,3.676H8.285H8.258H8.224H8.21L8.188,3.682
			l-0.02,0.006L8.155,3.706L8.141,3.718L8.13,3.744v0.032l0.024,0.035l0.014,0.023v0.012v0.029v0.022V3.92L8.164,3.949l-0.01,0.015
			L8.147,3.986L8.137,4.009L8.126,4.032L8.108,4.064L8.092,4.102v0.037v0.029v0.026l0.01,0.026l0.004,0.029l-0.007,0.04l0.004,0.015
			l0.007,0.018l0.023,0.026l0.023,0.023l0.045,0.021L8.183,4.407l-0.02,0.005L8.122,4.433L8.095,4.462l-0.01,0.023v0.023
			L8.066,4.534l-0.02,0.038v0.029v0.023L8.029,4.647L8.019,4.668L8.015,4.694l-0.01,0.012L7.998,4.732L7.99,4.755L7.984,4.784
			L7.977,4.813l-0.01,0.023L7.943,4.873L7.933,4.888L7.91,4.923L7.898,4.945L7.869,4.974v0.023L7.876,5.02l0.011,0.023l0.01,0.018
			l0.007,0.023l0.015,0.015l0.021,0.026l0.007,0.017v0.021v0.02v0.023L7.938,5.224v0.017L7.932,5.258L7.929,5.27L7.912,5.288
			L7.894,5.299l-0.02,0.018L7.855,5.326L7.838,5.334H7.823L7.798,5.332H7.756H7.732L7.703,5.323L7.679,5.311L7.657,5.305H7.624
			l-0.03-0.008L7.566,5.288L7.55,5.276L7.528,5.273L7.511,5.264L7.493,5.258l-0.026-0.02L7.426,5.215L7.412,5.209L7.397,5.195
			L7.387,5.177l-0.01-0.012L7.359,5.15L7.346,5.139L7.328,5.124L7.313,5.107L7.297,5.089L7.282,5.072L7.269,5.051L7.24,5.034
			L7.218,5.016L7.167,4.981L7.14,4.964L7.119,4.949L7.093,4.932L7.071,4.92L7.051,4.911L7.029,4.902L7.012,4.899L6.984,4.882
			L6.955,4.867L6.931,4.861L6.914,4.849l-0.021-0.02L6.886,4.818L6.872,4.812V4.803L6.857,4.782L6.851,4.768l-0.01-0.012
			L6.833,4.739L6.826,4.71L6.815,4.693L6.809,4.675l-0.007-0.02L6.799,4.623L6.788,4.6L6.785,4.579l-0.012-0.02L6.76,4.541
			L6.753,4.523L6.742,4.509L6.731,4.486L6.725,4.471L6.711,4.456L6.687,4.442L6.67,4.43L6.648,4.41L6.635,4.389L6.613,4.371
			l-0.026-0.02L6.565,4.34L6.552,4.328L6.541,4.322L6.538,4.313L6.523,4.305L6.497,4.284L6.482,4.267L6.459,4.241L6.441,4.22
			L6.428,4.205l-0.01-0.012L6.399,4.179L6.383,4.156L6.361,4.135l-0.014-0.02L6.345,4.089L6.328,4.068L6.307,4.045L6.289,4.028
			L6.271,4.016L6.251,4.004L6.233,3.992L6.207,3.964L6.189,3.946L6.169,3.928L6.145,3.917L6.118,3.899L6.085,3.876l-0.021-0.02
			L6.041,3.835L6.022,3.818L5.996,3.797L5.973,3.78L5.95,3.768L5.929,3.759L5.904,3.751L5.868,3.748L5.847,3.742L5.812,3.739
			l-0.03-0.003H5.73L5.71,3.73L5.699,3.719L5.695,3.701l0.008-0.029l0.004-0.023L5.71,3.632l0.003-0.023V3.588V3.57V3.55
			L5.709,3.529l-0.01-0.023V3.481L5.681,3.452L5.667,3.426L5.652,3.401L5.639,3.383L5.622,3.368l-0.021-0.02L5.587,3.331
			L5.573,3.313L5.555,3.295L5.538,3.272L5.527,3.261L5.513,3.235L5.499,3.218L5.481,3.197L5.461,3.168L5.45,3.148L5.433,3.13
			L5.412,3.116H5.391H5.374L5.359,3.121L5.342,3.133L5.321,3.142L5.294,3.16L5.277,3.174L5.267,3.189L5.26,3.201l-0.023,0.02
			L5.232,3.233L5.219,3.239H5.198L5.181,3.236H5.154L5.127,3.234L5.103,3.231L5.082,3.228L5.068,3.222L5.048,3.201L5.033,3.186
			L5.016,3.161L4.992,3.138L4.984,3.115L4.971,3.087V3.072l-0.01-0.023l-0.004-0.02l-0.01-0.017L4.933,2.983L4.929,2.96l-0.01-0.012
			L4.892,2.922l-0.027-0.02L4.838,2.884L4.807,2.867L4.784,2.852L4.766,2.841l-0.02-0.012L4.715,2.817L4.688,2.796L4.665,2.782
			L4.641,2.768L4.62,2.753L4.599,2.744H4.572L4.558,2.753L4.531,2.788L4.523,2.8l-0.01,0.012l-0.01,0.023L4.496,2.849l-0.01,0.012
			L4.481,2.87l-0.01,0.015L4.455,2.903L4.434,2.921L4.42,2.941L4.386,2.953H4.365L4.358,2.95L4.338,2.948L4.32,2.936L4.297,2.919
			L4.283,2.916L4.28,2.91L4.269,2.904L4.255,2.892L4.252,2.884L4.245,2.869L4.224,2.848L4.21,2.837L4.191,2.823L4.171,2.811H4.157
			L4.137,2.817L4.126,2.828L4.104,2.846l-0.01,0.017L4.088,2.875L4.085,2.884L4.074,2.893H4.066H4.053H4.026L4.006,2.887
			L3.998,2.881L3.977,2.87L3.97,2.855L3.963,2.84L3.936,2.817L3.919,2.8H3.905L3.878,2.794L3.847,2.788L3.824,2.782L3.793,2.773
			L3.767,2.759L3.753,2.751L3.722,2.745L3.711,2.739L3.701,2.73L3.694,2.721L3.684,2.712L3.673,2.707L3.666,2.701L3.643,2.692
			L3.619,2.68L3.604,2.669L3.588,2.657L3.577,2.646L3.562,2.631L3.557,2.622L3.543,2.611L3.529,2.602L3.505,2.59l-0.01-0.009
			L3.481,2.573L3.46,2.558L3.449,2.546L3.436,2.537L3.418,2.529L3.395,2.517L3.38,2.511L3.354,2.5L3.342,2.497L3.325,2.495H3.302
			L3.288,2.492H3.271H3.244H3.227L3.179,2.489L3.151,2.486l-0.03-0.003L3.104,2.474L3.076,2.459L3.056,2.442V2.431L3.035,2.416
			L3.02,2.401V2.389V2.378l0.005-0.023l0.003-0.018l0.007-0.015l0.011-0.009l0.013-0.014l0.015-0.015l0.011-0.011L3.09,2.264
			l0.021-0.018l0.021-0.029l0.021-0.022l0.021-0.021V2.159V2.138l-0.01-0.014L3.159,2.115L3.133,2.1L3.119,2.088L3.105,2.079
			L3.091,2.065L3.08,2.056L3.066,2.051L3.052,2.042L3.038,2.033L3.027,2.018L3.021,2.012H2.994H2.983H2.971L2.956,2.015H2.938
			L2.932,2.021L2.904,2.023H2.887L2.86,2.021L2.833,2.018L2.819,2.015L2.809,2.006L2.801,1.997l-0.01-0.015L2.777,1.968L2.773,1.954
			L2.746,1.913L2.732,1.905L2.719,1.893L2.698,1.878L2.684,1.87L2.662,1.855l-0.01-0.008L2.635,1.835L2.614,1.823L2.597,1.811
			L2.569,1.797l-0.031-0.02L2.516,1.759L2.497,1.75L2.475,1.73L2.471,1.724L2.444,1.718L2.416,1.703L2.41,1.694l-0.034-0.02
			L2.362,1.656L2.344,1.639L2.327,1.613L2.323,1.595V1.578V1.549L2.33,1.488V1.467V1.444L2.329,1.415V1.389L2.326,1.36L2.319,1.343
			L2.315,1.331L2.305,1.322l-0.018-0.02L2.284,1.287l-0.011-0.02l-0.01-0.021L2.259,1.229L2.249,1.2L2.245,1.186L2.231,1.177H2.205
			H2.167L2.141,1.168L2.113,1.166L2.096,1.157L2.085,1.148L2.062,1.142L2.055,1.14L2.028,1.131L1.987,1.108L1.963,1.09L1.922,1.07
			L1.908,1.049L1.896,1.031l-0.019-0.02L1.863,0.999l-0.01-0.015L1.825,0.966l-0.03-0.014L1.774,0.938L1.757,0.926L1.739,0.908
			L1.72,0.887L1.643,1.016l-0.049,0.08L1.167,1.408L0.902,1.663l-0.06,0.056L0.824,1.903L0.797,2.158l0.139,0.438L0.752,2.963
			L0.75,2.965L0.635,3.392l0.854,0.393l0.382,0.322l0.161,0.497L2.194,4.79l0.172,0.195l0.382,0.288l0.3,0.415L2.898,6.092
			L2.893,6.339L2.886,6.554l0.13,0.213l0.137,0.225l0.051,0.254l0.041,0.208l-0.309,0.13L2.725,7.673L2.495,7.92L2.402,8.019
			L2.275,8.884l0.266,0.497l0.346,0.381l0.107,0.329l0.043,0.132l-0.01,0.021l0.058,0.007l0.231,0.028l0.019,0.004h0.031h0.036
			h0.054l0.032-0.004l0.045-0.016h0.035h0.055l0.05,0.008l0.055,0.011l0.055,0.016l0.036,0.008l0.013,0.019h0.02l0.054,0.027
			l0.027,0.015h0.026l0.026-0.015l0.021-0.004h0.023l0.031-0.008l0.021-0.007h0.013h0.023l0.035-0.012v-0.019l-0.009-0.023
			l-0.006-0.016v-0.007l-0.004-0.015l0.01-0.016v-0.011l0.005-0.015l0.013-0.019l0.021-0.023l0.02-0.011l0.018-0.019l0.005-0.023
			v-0.023l0.015-0.015l0.018-0.011l0.022-0.016l0.018-0.019l0.014-0.008l0.015-0.007l0.021-0.008l0.027-0.016V9.959L4.37,9.936
			L4.365,9.909L4.4,9.901L4.46,9.92l0.046,0.016l0.039,0.015l0.041,0.008l0.05,0.007l0.05,0.015l0.027,0.02l0.031,0.019l0.031,0.019
			l0.026,0.031l0.023,0.031l0.004,0.049l0.041,0.046l0.004,0.046l0.005,0.038l0.022,0.02h0.018h0.032l0.036-0.004l0.021-0.003
			l0.031-0.016l0.036-0.023l0.026-0.015l0.019-0.008l0.018-0.012l0.032-0.003l0.036-0.004h0.049h0.059h0.051H5.41h0.062h0.06h0.054
			h0.036h0.055H5.73h0.051l0.035,0.011l0.041,0.016l0.035,0.016l0.031,0.015l0.036,0.012l0.018,0.007l0.037,0.012l0.035,0.015
			l0.023,0.004h0.049l0.036,0.008l0.021,0.015l0.027,0.034l0.059,0.047l0.041,0.029l0.031,0.031l0.046,0.03l0.031,0.023l0.05,0.038
			l0.026,0.027l0.014,0.015l0.049,0.032l0.011,0.006l0.035,0.03l0.031,0.02l0.037,0.026l0.021,0.016l0.022,0.019h0.027l0.025,0.015
			l0.045,0.027l0.036,0.023l0.031,0.022L6.9,10.869l0.062,0.038L6.98,10.93l0.04,0.019l0.041,0.031l0.032,0.016l0.014,0.011
			l0.021,0.015l0.032,0.02l0.035,0.027l0.027,0.021l0.031,0.023l0.05,0.019l0.021,0.021l0.037,0.029l0.025,0.023l0.023,0.023
			l0.025,0.022l0.027,0.035l0.027,0.026l0.03,0.03l0.022,0.031l0.046,0.034l0.022,0.027l0.021,0.026l0.027,0.034l0.004,0.023
			l0.031,0.019l0.014,0.022l0.036,0.02l0.036,0.023l0.03,0.025l0.027,0.031l0.036,0.019l0.032,0.027l0.021,0.019l0.054,0.027
			l0.032,0.016l0.022,0.014l0.03,0.023l0.041,0.027l0.031,0.033l0.036,0.031l0.021,0.034l0.046,0.042l0.041,0.053l0.041,0.039
			l0.03,0.023l0.022,0.027l0.018,0.026l0.02,0.03l0.019,0.029l0.019,0.023l0.031,0.035l0.019,0.025l0.018,0.039l0.023,0.031
			l0.018,0.026l0.036,0.05l0.027,0.047v0.037l-0.019,0.016L8.554,12.57l-0.027,0.026l-0.03,0.03l-0.022,0.035l-0.032,0.046
			l-0.021,0.038l-0.027,0.035l-0.021,0.045L8.35,12.861l-0.004,0.041v0.039l0.004,0.041l0.02,0.043l0.018,0.03L8.4,13.083
			l0.036,0.03l0.005,0.037l-0.009,0.039l-0.021,0.031l-0.022,0.021l-0.014,0.039L8.37,13.316l-0.049,0.058l-0.031,0.03l-0.027,0.072
			v0.051l0.001,0.054v0.03l0.009,0.054l0.005,0.042v0.033l0.015,0.051l0.021,0.035l0.031,0.037l0.072,0.026l0.054,0.015l0.02,0.016
			l0.018,0.012l0.021,0.02l0.037,0.007l0.054,0.004l0.046,0.008l0.026,0.027l0.045,0.049l0.022,0.026l0.014,0.031l0.009,0.03
			l0.027,0.077l0.009,0.042l0.015,0.03l0.005,0.031l0.019,0.022l0.031,0.03l0.021,0.031l0.036,0.015l0.05,0.022l0.022,0.012
			l0.045,0.02l0.021,0.007l0.072,0.023l0.032,0.011l0.018,0.027v0.021l-0.009,0.035l-0.036,0.035l-0.025,0.021L9.095,14.68
			l-0.036,0.027l-0.054,0.031l-0.081,0.022l-0.051,0.022l-0.076,0.055l-0.054,0.046l-0.05,0.038L8.672,14.96l0.059,0.019
			l0.062,0.008l0.051,0.016l0.04,0.011l0.045,0.007l0.032,0.012l0.013,0.008l0.034,0.019l0.012,0.024l0.031,0.029l0.036,0.023
			l0.021,0.016l0.036,0.026l0.036,0.022l0.036,0.031l0.036,0.035l0.036,0.03l0.035,0.022l0.031,0.02l0.063,0.021l0.05,0.035
			l0.072,0.038h0.021l0.113,0.038l0.03,0.004l0.041,0.008l0.06,0.013l0.036,0.011l0.045,0.016l0.036,0.004l0.054,0.015l-0.005,0.015
			l0.001,0.016l-0.02,0.023l-0.034,0.027l-0.037,0.023l-0.04,0.03l-0.045,0.03L9.761,15.72l-0.036,0.027l-0.018,0.045l0.026,0.026
			l0.026,0.02l0.027,0.02l0.018,0.01l0.046,0.02l0.022,0.012l0.03,0.022l0.027,0.022l0.018,0.022l0.037,0.022l0.06,0.023
			l0.059,0.055l0.021,0.021l0.014,0.027l0.019,0.031l0.041,0.049l0.027,0.041l0.018,0.026l0.022,0.031l0.027,0.03l0.026,0.035
			l0.019,0.025l0.022,0.031l0.035,0.027l0.027,0.025l0.041,0.038l0.021,0.035l0.02,0.022L10.53,16.6l0.022,0.031l0.045,0.042
			l0.031,0.026l0.063,0.041l0.045,0.043l0.031,0.037l0.031,0.039l0.041,0.041l0.021,0.035l0.055,0.049l0.026,0.039l0.027,0.034
			l0.041,0.035l0.035,0.034l0.036,0.039l0.036,0.042l0.055,0.054l0.035,0.038l0.06,0.034l0.086,0.088l0.05,0.042l0.055,0.019
			l0.055,0.08l0.026,0.023l0.051,0.038l0.041,0.039l0.021,0.026l0.059,0.043l0.036,0.029l0.027,0.023l0.027,0.029l0.091,0.039
			l0.035,0.029l0.071,0.046l0.027,0.022l0.045,0.031l0.027,0.022l0.034,0.038l0.032,0.023l0.05,0.045l0.045,0.035l0.037,0.033
			l0.062,0.042l0.04,0.05l0.036,0.043l0.055,0.058l0.068,0.061l0.049,0.062l0.045,0.029l0.059,0.034l0.063,0.05l0.014,0.039
			l0.032,0.004l0.025,0.026l0.036,0.035l0.046,0.038l0.036,0.029l0.026,0.031l0.027,0.023l0.025,0.042l0.02,0.03l0.031,0.026
			l0.031,0.03l0.027,0.023l0.062,0.045l0.036,0.029l0.027,0.021l0.036,0.022l0.03,0.026l0.036,0.015l0.068,0.008l0.058,0.02
			l0.086,0.02l0.081,0.016l0.072,0.021l0.091,0.023l0.072,0.011l0.014,0.078l0.087,0.144l0.039,0.09l-0.002,0.054l-0.034,0.076
			l0.017,0.034l0.084,0.051l0.039,0.07l0.045,0.092l0.012,0.039l0.171-0.02l0.062-0.012l0.102-0.004l0.022-0.145l0.051-0.062
			l0.019-0.015l0.018-0.012l0.055,0.016l0.042,0.026l0.04,0.037l0.049-0.001l0.037,0.016l0.044-0.012l0.001-0.035l0.079-0.024
			l0.119-0.054l0.035-0.058l0.03-0.062l0.06-0.058l0.033-0.067l0.022-0.045l0.062-0.058l0.04-0.071l0.028-0.033l0.124-0.02
			l0.099-0.02l0.082-0.049l0.066-0.071l0.014-0.05l0.043-0.014l0.042-0.097l0.078,0.037l0.029-0.099l0.048-0.117l0.071-0.1
			l0.084-0.095l0.081,0.036l0.102,0.029l0.06,0.027l0.086,0.04l0.064,0.036l0.045,0.031l0.046,0.025l0.054,0.045l0.051,0.051
			l0.055,0.061l0.007,0.057l-0.011,0.021l-0.126-0.005l0.015,0.037l0.066,0.064l0.08,0.07l0.074,0.091l0.059,0.038l0.108,0.062
			l0.136-0.021l0.108-0.029l0.155-0.056l0.034,0.011l0.021,0.057l0.038,0.103l-0.001,0.074l-0.015,0.122l0.169-0.135l0.177-0.148
			l0.168-0.16l0.071-0.066l0.043-0.025l0.032-0.042l0.096-0.047l0.051-0.026l0.058-0.029l0.084-0.01l0.16-0.119l0.153,0.008
			l-0.026,0.08L18.861,18.996"/>
	</g>
</g>
<g id="Layer_1">
</g>
</svg>
