<?xml version="1.0" encoding="iso-8859-1"?>
<!-- Generator: Adobe Illustrator 16.0.4, SVG Export Plug-In . SVG Version: 6.00 Build 0)  -->
<!DOCTYPE svg PUBLIC "-//W3C//DTD SVG 1.1//EN" "http://www.w3.org/Graphics/SVG/1.1/DTD/svg11.dtd">
<svg version="1.1" xmlns="http://www.w3.org/2000/svg" xmlns:xlink="http://www.w3.org/1999/xlink" x="0px" y="0px"
	 width="31.388px" height="25.544px" viewBox="0 0 31.388 25.544" style="enable-background:new 0 0 31.388 25.544;"
	 xml:space="preserve">
<g id="Layer_129">
	<g id="Layer_134">
		<path id="DISTRICT_x3D_Karak_x2C_PROVINCE_x3D_NWFP" style="fill:#CCCCCC;stroke:#FFFFFF;stroke-width:1.07;" d="M0.517,7.9
			L0.517,7.9l0.021-0.004l0.043,0.005l0.132,0.011l0.108,0.007l0.144,0.002l0.209-0.024l0.058-0.015l0.126,0.031l0.117-0.023
			l0.071,0.022l0.115,0.064l0.025,0.02L1.737,8.05l0.04,0.033l0.025,0.028l0.011,0.056l0.058,0.024l0.096,0.016L2.022,8.25
			l0.063,0.033l0.08-0.026l0.021-0.004l0.034-0.015l0.021-0.06l0.016-0.036l0.096,0.009l0.084-0.046l0.025,0.03l0.012,0.025
			L2.54,8.222l0.042-0.027L2.63,8.197l0.047-0.025l0.076,0.028l0.033-0.01l0.024,0.02l0.13,0.01l0.008-0.018l0.062-0.011
			l0.099,0.033l0.11,0.028l0.02,0.006L3.316,8.29l0.066-0.04l0.013,0.021l0.094,0.026l0.047,0.039L3.61,8.361l0.098,0.024
			l0.069-0.021L3.773,8.347L3.82,8.346L3.843,8.36l0.062,0.001l0.02-0.018l0.062,0.061l0.041,0.02l0.065,0.035l0.021,0.042
			l0.01,0.04l0.002,0.055l0.068,0.021L4.229,8.6l0.044,0.035l0.035,0.028l0.04,0.041L4.364,8.75l0.181,0.033l0.023-0.008
			l0.085-0.009l0.086-0.034l0.05,0.027L4.8,8.834l0.083-0.051l0.025,0.007l0.054,0.042l0.11,0.051l0.137,0.018l0.033-0.002
			l0.026,0.027l0.023,0.06l0.029,0.038l0.035,0.039l0.079,0.034l0.033,0.02L5.418,9.161l0.028,0.029l0.095,0.018l0.038,0.013
			l0.05,0.049l0.128,0.041L5.85,9.361l0.017,0.081L5.854,9.55L5.813,9.617L5.739,9.697L5.687,9.752L5.625,9.833L5.582,9.83
			L5.473,9.827l0.014,0.087L5.477,9.98l-0.051,0.128l-0.066,0.068l-0.215,0.046l-0.111,0.02l-0.079,0.012l-0.089,0.028l-0.069,0.021
			l-0.104,0.039l-0.135,0.036L4.36,10.422l-0.076,0.031l-0.038,0.14l-0.15,0.076L4.02,10.725l-0.006,0.051l-0.092,0.057
			l-0.041,0.056l0.104-0.002l0.132-0.017L4.128,10.9l-0.031,0.023L4.07,10.938l-0.08,0.034l-0.062,0.063l-0.07,0.046l-0.104,0.042
			l0.008,0.106l0.001,0.098l0.008,0.026l0.044,0.022l0.119,0.023l-0.016,0.06l-0.146,0.009H3.715l-0.065,0.066L3.572,11.65
			l-0.031,0.088l-0.004,0.096l-0.016,0.077l-0.013,0.053l-0.026-0.005l-0.018-0.02l-0.014-0.02l-0.018-0.033l-0.098,0.036
			l-0.094,0.047l-0.121,0.016l-0.205,0.007l-0.16,0.038l-0.225,0.086l-0.092,0.119l-0.025,0.129l-0.011,0.105l-0.053,0.118
			l-0.062,0.093l-0.027,0.092l0.05,0.08l0.064,0.052l0.033,0.027l0.003,0.004l0.044,0.062l0.025,0.092l0.082,0.049l0.095,0.061
			L2.659,13.2l-0.007,0.118l-0.097,0.087l-0.057,0.079l0.105,0.085l0.056,0.074l0.06,0.078l0.036,0.071l-0.004,0.056l0.005,0.11
			l0.025,0.088l0.023,0.078l0.032,0.08l0.011,0.021l0,0l0.066,0.092l0.091,0.16l0.032,0.116l0.093,0.154l0.115,0.196l0.057,0.097
			l0.059,0.103l0.186,0.14l0.188,0.131L4,15.586l0.166,0.156l0.098,0.092l0.053,0.012l0.114,0.023l0.132,0.016l0.091,0.011
			l0.026,0.002l0.063,0.008l0.04,0.005l0.051,0.006l0.045,0.004l0.024,0.004l0.034,0.002l0.085,0.009l0.037-0.002l0.187,0.022h0.018
			l0.053-0.049l0.021,0.006l0.151,0.029l0.08,0.021l0.024,0.009l0.108,0.014l0.188,0.038l0.036,0.007l0.096,0.039l0.167,0.067
			l0.214,0.086l0.021,0.009l0.218,0.088l0.087,0.034l0.176-0.016l0.254-0.021l0.198-0.018l0.036,0.041l0.048,0.057l0.037,0.208
			l0.037,0.208l-0.068,0.102l0.008,0.053l0.006,0.037l0.004,0.117l0.037,0.238L7.534,17.5l0.041,0.133l0.107,0.117l0.008,0.043
			l0.038,0.061l0.107,0.105l0.022,0.026l0.002,0.002v0.001l0.036,0.036l0.087,0.095l0.039,0.053l0.067,0.066l0.034,0.035l0.07,0.055
			l0.062,0.057l0.098,0.145l0.076,0.172l0.082,0.157l0.062,0.162l0.028,0.062l0.145,0.213l0.033,0.063l0.044,0.122l0.1,0.232
			l0.058,0.133l0.113,0.193l0.112,0.184l0.027,0.09l0.117,0.259l0.019,0.026l0.004,0.001l0.021,0.036l0.015,0.031l0.029,0.063
			l-0.013,0.178l-0.012,0.154l-0.036,0.194l-0.024,0.152l-0.007,0.15l-0.02,0.13l-0.014,0.086l-0.005,0.06l-0.035,0.143l-0.04,0.076
			l-0.082,0.132l-0.021,0.034l-0.07,0.037l-0.045,0.078l0.005,0.014l0,0l0.029,0.092l0.027,0.093l0.037,0.099l0.022,0.037h0.001
			l0.039,0.106l0.047,0.091l0.023,0.055l0.044,0.11l0.039,0.052l0.027,0.041l0.072,0.135l0.051,0.074h0.001l0.005,0.013l0.038,0.058
			l0.038,0.044l0.033,0.04l0.044,0.049l0.049,0.039l0.051,0.039l0.069,0.043l0.024,0.022l0.056,0.051l0.121,0.097l0.11,0.135
			l0.035,0.022l0.084,0.123l0.019,0.028l0.005,0.009l0.044,0.067l0.028,0.045l0.032,0.035l0.001,0.002l0.023,0.031l0.059,0.068
			l0.081,0.074l0.062,0.039l0.037,0.023l0.041,0.036l0.034,0.013l0.077,0.045l0.047,0.02l0.003,0.001l0.052,0.035l0.028-0.005
			l0.104,0.02l0.211-0.025l0.291-0.041l0.275-0.043l0.204-0.039l0.134,0.017l0.092,0.063l0.115,0.104l0.001,0.001l0.076,0.148
			l0.069,0.104L12.547,25h0.063l0.187,0.008l0.382-0.025l0.159-0.018l0.276-0.034l0.269-0.024l0.314,0.002l0.323,0.012l0.201-0.015
			l0.182-0.055l0.324-0.017l0.062-0.008l0.038-0.004l0.157-0.017l0.182,0.021l0.151,0.077l0.159,0.062l0.143-0.012l0.18-0.035
			l0.093-0.061l0.064-0.092l-0.036-0.229l0.022-0.144l0.011-0.099l-0.014-0.117l-0.011-0.094l0.029-0.23l0.082-0.131l0.031-0.064
			l0.021-0.119l0.009-0.318l0.004-0.149l0.009-0.181l0.024-0.159l0.027-0.119l0.111-0.108l0.055-0.123l0.02-0.106l0.007-0.155
			l0.012-0.221l0.02-0.146l0.035-0.188l-0.042-0.074l-0.037-0.034l-0.061-0.143l-0.02-0.128l0.027-0.175l0.011-0.191l-0.03-0.23
			l0.04-0.244l0,0l0.004-0.024l0.018-0.141l0.048-0.175l0.069-0.123l0.111-0.133l0.141-0.138l0.152-0.103l0.135-0.121l0.041-0.055
			l0.017-0.082l-0.035-0.054l0.001-0.122l0.049-0.105l0.138-0.258l0.078-0.146l0.142-0.131l0.127-0.039l0.115-0.064l0.09-0.06
			l0.161-0.099l0.173-0.117l0.101-0.078l0.055-0.048l0.056-0.019l0.075-0.031h0.001l0.062-0.008l0.095-0.013l0.076-0.015
			l0.176,0.009l0.185-0.015l0.216-0.049l0.188-0.041l0.1-0.026l0.057-0.022l0.103-0.088l0.036-0.07l0.09-0.119l0.107-0.021
			l0.116-0.07l0.083-0.065l0.059-0.056l0.055-0.037l0.034-0.063l0.073-0.071l0.072,0.034l0.079,0.062l0.028-0.003l0.02-0.023
			l0.021-0.023l0.029-0.047l0.023-0.076l0.236-0.06l0.02,0.011l0.023,0.015l0.036,0.013l0.054,0.025l0.067,0.023l0.062-0.003
			l0.048-0.017l0.062-0.031l0.04-0.02l0.018-0.012l0.107-0.035l0.113-0.033l0.162-0.047l0.117-0.028l0.152-0.041l0.188-0.05
			l0.17-0.038l0.167-0.048l0.207-0.06l0.163-0.06l0.125-0.035l0.092-0.033l0.136-0.031l0.162-0.043l0.158-0.055l0.068-0.025
			l0.114-0.023l-0.009,0.141l-0.024,0.088l-0.011,0.084l-0.018,0.098l0.032,0.188l0.105,0.049l0.067,0.041l0.032,0.027l0.021,0.018
			l0.029,0.018L24.404,17l0.074,0.041l0.107,0.049l0.094,0.035l0.157,0.057l0.099,0.049l0.114,0.035l0.129,0.01l0.341,0.021
			l0.142,0.002l0.081-0.025l0.042-0.027l0.047-0.031l0.098-0.078l0.073-0.057l0.057-0.047l0.079-0.068l0.063-0.049l0.004-0.002
			l0.06-0.052l0.062-0.05l0.128-0.091l0.064-0.044l0.071,0.076l0.089,0.047l0.098,0.058l0.123,0.097h0.062l0.054-0.011l0.05-0.01
			l0.066-0.032l0.094-0.023l0.13-0.047l0.1-0.06l0.107-0.08l0.136-0.073l0.051-0.134l0.084,0.041l0.105,0.03l0.147,0.016
			l0.119,0.027l0.121,0.066l0.071,0.059l0.071,0.043l0.146,0.021l0.08-0.006l0.162-0.033l0.105-0.051l0.075-0.054l0.085-0.042
			l0.145-0.08l0.095-0.07l0.079-0.049l0.087-0.039l0.126-0.062l0.108-0.071l0.095-0.094l0.084-0.097l0.054-0.088l0.066-0.18
			l0.074-0.109l0.004-0.101l0.005-0.086l0.032-0.179l0.049-0.111l0.081-0.107l0.076-0.018l0.144-0.035L30.619,15l0.061-0.08
			l-0.057-0.057l-0.111-0.041l-0.102-0.043l-0.065-0.08l-0.059-0.092l-0.137-0.165l-0.101-0.062l-0.026-0.071l0.002-0.097
			l0.019-0.079l0.014-0.074l-0.06-0.043l-0.149-0.001l-0.101,0.027l-0.1,0.043l-0.101,0.037l-0.089,0.029l-0.101-0.016l-0.122-0.088
			l0.017-0.102l-0.019-0.113l-0.047,0.072h-0.082l-0.089-0.06l-0.118-0.117l-0.046-0.078l-0.106-0.043l-0.071-0.127l-0.025-0.116
			l-0.001-0.003l-0.045-0.108l0.002-0.078l-0.053-0.073l-0.068-0.057l0.01-0.024l0.021-0.048l0.08-0.124l0.095-0.103l0.062-0.075
			l0.094-0.107l0.046-0.085l0.015-0.074l-0.002-0.125l0.047-0.06l0.098-0.097l0.062-0.092l0.098-0.1l0.106,0.009l0.096,0.02
			l0.073-0.046l0.043-0.078l0.059-0.149l0.109-0.177l-0.089-0.05l-0.066-0.052l0.007-0.078l-0.062-0.058l-0.073-0.04l-0.099-0.05
			l-0.076-0.054l-0.01-0.118l0.031-0.176v-0.177l-0.109-0.064l-0.1-0.069l-0.054-0.055l-0.098-0.146l-0.014-0.079l0.01-0.139
			l-0.04-0.062l-0.023-0.13l-0.011-0.081l-0.031-0.099l0.047-0.092l0.125-0.083l0.047-0.076l0.011-0.081l-0.068-0.077l-0.072-0.04
			l-0.11-0.015L28.67,9.276l-0.113,0.052l-0.099,0.007l-0.063-0.037l-0.082-0.08l-0.064-0.07l-0.086-0.017l-0.089-0.009l-0.1-0.048
			l-0.053-0.059L27.814,8.87l0.062-0.095l0.019-0.153l0.061-0.088l0.025-0.09l-0.073-0.121l0.075-0.091l0.059-0.062l0.071-0.157
			l-0.052-0.056l-0.048-0.135l0.069-0.107l0.043-0.068l0.062-0.092L28.261,7.5l0.063,0.046l0.098-0.021l0.103-0.054l0.109,0.033
			L28.806,7.4l0.006-0.098l0.075-0.14l0.029-0.072l0.059-0.083l0.093-0.05l0.128,0.063l0.104-0.033l0.077-0.053l0.062-0.125
			l0.181-0.359l-0.003-0.093l-0.015-0.073l-0.018-0.093l-0.031-0.123l-0.014-0.102l-0.007-0.072l0.016-0.124l0.065-0.098
			l0.004-0.119l-0.08-0.052L29.47,5.465l-0.006-0.135l0.021-0.085l0.029-0.13l0.009-0.105l0.006-0.075l0.016-0.083l0.026-0.082
			l0.016-0.098l-0.021-0.084l-0.006-0.027L29.56,4.561l-0.172-0.01l-0.111,0.027l-0.124,0.009l-0.078,0.055l-0.131,0.005
			l-0.132-0.004l-0.097,0.021l-0.124,0.078l-0.155,0.135l-0.067,0.046l-0.034,0.087l-0.055,0.053l-0.134-0.008l-0.152,0.022h-0.114
			l-0.069-0.08l-0.072-0.051l-0.14-0.032l-0.143-0.042l-0.152-0.006L27.108,4.86l-0.1,0.011l-0.165-0.021L26.72,4.774l0.104-0.085
			l0.093-0.017l0.066-0.033l0.054-0.066L26.982,4.44l-0.023-0.124l-0.026-0.092l-0.023-0.077l-0.062-0.111l-0.288-0.05l-0.179-0.02
			l-0.207,0.013l-0.107,0.023l-0.087,0.02l-0.244,0.039L25.63,4.088l-0.118,0.039h-0.119l-0.087-0.031l-0.137-0.083l-0.102,0.018
			l-0.146,0.025l-0.166,0.021l-0.199,0.014L24.32,4.097l-0.133-0.018L24.126,4.01l-0.003-0.103l-0.008-0.139V3.684l0.07-0.062
			l-0.013-0.108L24.13,3.441l-0.053-0.084l-0.001-0.004L24.053,3.28l-0.042-0.096l-0.028-0.084l-0.021-0.104l-0.025-0.177
			l-0.024-0.101l-0.046-0.066l0.076-0.015l0.115,0.007l0.046-0.059l-0.01-0.133l-0.125-0.039l-0.16-0.004L23.73,2.378l-0.119-0.044
			l-0.132-0.043l-0.166-0.02l-0.234,0.002l-0.281,0.022l-0.1,0.015l-0.106-0.023l-0.006-0.008l-0.041-0.057L22.544,2.14
			l-0.078-0.081l-0.087-0.044l-0.227,0.018l-0.211,0.005l-0.163-0.021l-0.216,0.008L21.419,2.02l-0.093-0.01l-0.012-0.013
			l-0.093-0.002l-0.085,0.009l-0.09,0.012l-0.074,0.019L20.88,2.066l-0.109,0.032l-0.103,0.023l-0.132,0.01l-0.128-0.004
			l-0.097-0.011l-0.075-0.015L20.123,2.07l-0.025-0.112l0.029-0.128l0.017-0.166l-0.042-0.075l-0.141-0.057l-0.076,0.001
			L19.78,1.545l-0.1,0.005l-0.086-0.021l-0.142-0.041l-0.086-0.012l-0.16,0.027l-0.145,0.039l-0.12,0.036l-0.127,0.016l-0.136,0.01
			l-0.115,0.015L18.369,1.61l-0.162-0.005l-0.098-0.013l-0.16-0.039l-0.171-0.035l-0.08-0.022l-0.091-0.007L17.455,1.5l-0.12,0.03
			l-0.127,0.019l-0.187-0.023l-0.136-0.01l-0.163-0.002l-0.154,0.003L16.4,1.529l-0.133,0.016L16.151,1.56l-0.076,0.002
			l-0.138,0.015l-0.231,0.019l-0.104,0.021L15.414,1.63l-0.087-0.004l-0.249-0.045l-0.086-0.012L14.83,1.53l-0.178-0.046
			L14.562,1.46l-0.134-0.05l-0.157-0.047l-0.194-0.057l-0.161-0.049l-0.148-0.058L13.65,1.163L13.56,1.122l0.066-0.148l0.047-0.059
			l0.074-0.127l-0.005-0.113l-0.142-0.121l-0.165,0.015h-0.01l-0.09,0.063l-0.102,0.067l-0.181,0.098l-0.083-0.008l-0.149-0.041
			l-0.166,0.019l0.148,0.141l0.094,0.062l0.006,0.131l0.109,0.086l0.146-0.015l0.099,0.071l-0.003,0.1l-0.076,0.15l-0.121,0.167
			l-0.071,0.078L12.89,1.813L12.774,1.84L12.63,1.875l-0.195,0.009l-0.047-0.017l-0.104-0.038l-0.101-0.034L12.058,1.78
			l-0.125-0.005l-0.177-0.021l-0.13-0.022l-0.114-0.025l-0.143-0.021l-0.088-0.005l-0.17,0.003l-0.124,0.004l-0.075-0.009
			l-0.021,0.013l-0.09-0.017L10.66,1.699l-0.078,0.012l-0.083,0.021l-0.122,0.005l-0.1-0.018l-0.076,0.027l-0.088,0.026L9.994,1.824
			l-0.09,0.019L9.812,1.868L9.747,1.904L9.615,1.861L9.511,1.854L9.425,1.856L9.302,1.875L9.207,1.903L9.136,1.924L9.11,1.933
			L9.063,1.947l-0.1,0.019L8.833,1.98l-0.13,0.024L8.555,2.041L8.478,2.071L8.331,2.1L8.229,2.117L8.11,2.132L8.018,2.146
			L7.933,2.164L7.772,2.17L7.627,2.142L7.546,2.135L7.43,2.136L7.344,2.15L7.248,2.164L7.14,2.185L7.022,2.193H7.02l-0.08,0.002
			L6.83,2.22l0.047,0.07l0.048,0.075L6.99,2.454l0.041,0.075L6.886,2.585L6.813,2.628L6.739,2.687L6.735,2.771L6.715,2.868
			L6.678,2.984L6.615,3.128l-0.043,0.09L6.52,3.312L6.464,3.397L6.397,3.496L6.25,3.556L6.168,3.548l-0.1-0.012L5.996,3.531
			L5.933,3.625l0.035,0.063l0.079,0.065l0.103,0.08L6.104,3.955L6.062,4.042L5.964,4.077L5.81,4.009L5.69,3.98L5.587,3.971
			L5.498,3.955L5.333,3.914L5.229,3.885l-0.09-0.032L5.056,3.834L4.964,3.817l-0.092-0.02l-0.16-0.029L4.638,3.762L4.474,3.737
			L4.34,3.723l-0.121-0.01l-0.18-0.007L3.895,3.689L3.788,3.665L3.709,3.644L3.515,3.583L3.378,3.551L3.257,3.527l-0.17-0.055
			L2.974,3.419L2.836,3.348l-0.112-0.04L2.606,3.249l-0.11-0.052L2.36,3.145L2.248,3.107L2.089,3.045L2.004,3.006L1.92,2.966
			L1.799,2.923l-0.07-0.028L1.683,2.987L1.611,3.042L1.46,2.979L1.347,2.951L1.233,2.958L1.221,2.958l0.027,0.114l0.029,0.11
			l0.035,0.083l0.012,0.119L1.264,3.488L1.088,3.558L1.024,3.605l-0.085,0.07L0.863,3.72l-0.01,0.083l0.011,0.091L0.837,3.968
			l0.099,0.019l0.138-0.028l0.135,0.029L1.137,4.145l0.02,0.101l0.148,0.087l0.046,0.1L1.313,4.519L1.265,4.623L1.212,4.722
			L1.149,4.846L1.106,4.969l0.017,0.084l0.05,0.106L1.214,5.24l0.03,0.127L1.242,5.463L1.203,5.559L1.158,5.647L1.09,5.801
			L1.024,5.968L0.985,6.045L0.925,6.184L0.892,6.336L0.884,6.534L0.717,7.163L0.517,7.9"/>
	</g>
</g>
<g id="Layer_1">
</g>
</svg>
