<?xml version="1.0" encoding="iso-8859-1"?>
<!-- Generator: Adobe Illustrator 16.0.4, SVG Export Plug-In . SVG Version: 6.00 Build 0)  -->
<!DOCTYPE svg PUBLIC "-//W3C//DTD SVG 1.1//EN" "http://www.w3.org/Graphics/SVG/1.1/DTD/svg11.dtd">
<svg version="1.1" xmlns="http://www.w3.org/2000/svg" xmlns:xlink="http://www.w3.org/1999/xlink" x="0px" y="0px"
	 width="38.107px" height="31.455px" viewBox="0 0 38.107 31.455" style="enable-background:new 0 0 38.107 31.455;"
	 xml:space="preserve">
<g id="Layer_112">
	<g id="Layer_117">
		<path id="DISTRICT_x3D_Kurrum_Agency_x2C_PROVINCE_x3D_F.A.T.A." style="fill:#CCCCCC;stroke:#FFFFFF;stroke-width:1.07;" d="
			M24.832,4.584L24.832,4.584l-0.25-0.093L24.297,4.35l-0.258-0.128l-0.938-0.106l-3.219-0.012l-0.975-0.391l-0.201-0.081
			l-0.005,0.071l-0.777-0.309L17.169,3.5l-0.92,0.19l-0.625-0.334l-1.052-0.17l-0.009-0.001l-1.201-0.577l-0.292-0.177L12.739,2.23
			l-0.741-0.16l-1.02,0.054L10.583,2.22l-0.094,0.022L9.647,1.945L9.223,1.638L9.129,1.57L8.245,1.05L7.34,0.93L7.208,0.926
			L7.126,0.922L6.823,0.556L6.395,0.541L6.326,0.58L5.79,0.877l-0.86,0.104L2.733,0.998L2.458,1.174L2.07,1.422L2.045,1.95
			L2.034,2.179l0.184,0.675L2.216,2.879L2.2,3.209L2.019,3.45L1.971,3.514L1.592,3.7l-0.39,0.19L1.202,3.892L0.751,4.41L0.642,4.791
			L0.561,5.072l0.188,0.541l0.718,0.692L1.878,6.7l0.456,0.436l0.089,0.165l0.256,0.47l0.124,0.648l0.048,0.249l0.05,0.068
			l0.352,0.479l0.37,0.232l0.459,0.286l0.405,0.459l0.075,0.354l0.229,1.082l0.281,0.812l0.729,0.734l0.187,0.188l0.181,0.091
			l0.157,0.079l0.234,0.117l0.848,0.118l0.375-0.032l0.866,0.225l1.504,0.391l0.431-0.074l0.596-0.158l0.081,0.003l0.237,0.009
			l0.479,0.263l0.041,0.022l0.365,0.55l0.18,0.271l0.018,0.365l0.01,0.171l-0.146,0.797l0.04,0.188l0.046,0.216l0.834,0.386
			l0.469,0.092l0.375,0.072l0.251,0.227l0.056,0.052l-0.022,0.112l-0.12,0.596l-0.561,2.058l-0.028,0.104l-0.195,0.705l-0.025,0.521
			l-0.021,0.413l0.138,0.198l0.21,0.304l0.773,0.473l0.204,0.35l0.09,0.15l0.298,0.412l0.599,0.139l0.086,0.02l0.011,0.003
			l0.355,0.099l0.512,1.444l0.138,0.125l0.116,0.106l0.09,0.004l1.13,0.041l0.377,0.216l0.036,0.021l0.132,0.541l0.6,0.734
			l-0.02,0.355l-0.098,0.387l-0.036,0.143l0.385,0.771l0.068,0.184l0.164,0.449l-0.076,0.24l-0.042,0.13l0.364,0.203l0.469-0.025
			l0.379-0.1h0.273l0.371-0.179l0.424-0.137l0.184,0.19l0.42,0.1l0.402-0.216l0.457-0.062l0.299-0.037l0.334-0.12l0.262,0.116
			l0.191,0.279l0.199,0.391l0.318,0.146l0.389,0.021l0.436-0.041l0.334,0.021l0.48,0.004l0.412-0.017l0.25-0.025l0.307,0.014
			l0.424-0.008l0.283-0.289l0.178-0.215l0.049-0.139l0.041-0.146l0.064-0.103l0.021-0.076l0.002-0.146l0.004-0.075l0.064-0.103
			l0.1-0.066l0.004-0.135l-0.037-0.133l-0.08-0.072l-0.096-0.088l-0.068-0.072l-0.086-0.045l-0.146-0.059l-0.07-0.054l-0.07-0.058
			l-0.074-0.055l-0.074-0.07l-0.09-0.066l-0.082-0.027l-0.084-0.014l-0.098-0.018l-0.107-0.053l-0.082-0.057l-0.051-0.053
			l-0.088-0.133l-0.088-0.029l-0.096-0.021l-0.08-0.031l-0.066-0.047l-0.057-0.059l-0.031-1.145l0.027-0.025l0.061-0.053
			l0.109-0.004l0.145,0.039l0.127,0.013l0.102,0.011l0.094,0.008l0.008-0.005l0.078-0.042l0.162-0.068l0.074-0.024l0.191-0.062
			l0.096-0.047l0.078-0.035l0.139-0.024l0.115-0.044l0.076-0.037l0.135-0.004l0.098,0.012l0.104-0.013l0.115-0.021l0.131,0.03
			l0.094,0.013l0.09,0.049l0.102,0.031l0.072,0.002l0.102,0.019l0.17,0.045l0.092-0.026l0.137-0.043l0.139-0.046l0.1-0.038
			l0.082-0.025l0.086-0.026l0.072-0.021l0.158-0.041l0.086-0.035l0.062-0.038l0.066-0.081l0.098-0.121l0.051-0.062l0.088-0.119
			l0.053-0.062l0.055-0.071l0.055-0.074l0.053-0.068l0.086-0.098l0.1-0.116l0.047-0.067l0.049-0.061l0.158-0.197l0.025-0.102
			l-0.016-0.074l0.041-0.124l0.086-0.073l0.059-0.094l0.139-0.107l0.025-0.111l0.062-0.082l0.086-0.031l0.08,0.007l0.121-0.006
			l0.1-0.007l0.125,0.019l0.08,0.06l0.076,0.043l0.104-0.002l0.135-0.015l0.105-0.012l0.17-0.008l0.111-0.013l0.107,0.008
			l0.086,0.007l0.145-0.009l0.102,0.024l0.078,0.021l0.115,0.046l0.084,0.06l0.104-0.008l0.062-0.036l0.16-0.085l0.096-0.059
			l0.006-0.006l0.027-0.027l0.064-0.071l0.064-0.098l0.072-0.097l0.064-0.086l0.078-0.074l0.121-0.098l0.062-0.052l0.137-0.039
			l0.078-0.022l0.189-0.006l0.127,0.025l0.078,0.042l0.1,0.056l0.084,0.034l0.104,0.03l0.162,0.025l0.08,0.021l0.084,0.005
			l0.113,0.021l0.078,0.012L36.912,24l0.07,0.027l0.117,0.04l0.002-0.001l0.053-0.047l0.006-0.091l0.018-0.103l0.002-0.086
			l-0.037-0.101l-0.059-0.062l-0.053-0.062l-0.027-0.066l-0.006-0.076l0.029-0.082l0.004-0.078l0.049-0.062l-0.043-0.085
			l-0.078-0.073l-0.074-0.043l-0.066-0.082l-0.025-0.106l0.041-0.073l-0.039-0.064l-0.02-0.08l-0.037-0.117l-0.006-0.112
			l0.025-0.078l0.072-0.108L36.914,22l0.033-0.066l0.025-0.124l0.018-0.092l0.014-0.084l-0.02-0.109l-0.041-0.12l-0.01-0.088
			l0.072-0.051l0.045-0.061l0.053-0.056l0.084-0.052l0.08-0.03l0.074-0.053v-0.094l0.053-0.077l0.029-0.079l-0.158-0.062
			l-0.543-0.489l0.006-0.324l0.027-0.25l0.051-0.407l0.324-0.341l0.141-0.407l-0.42-0.188H36.59l-0.443-0.041l-0.617-0.188
			l-0.285-0.058l-0.398-0.15l-0.328-0.162l-0.434-0.158l-0.549-0.166l-0.387-0.211l-0.203-0.139l-0.52-0.324l-0.367-0.254
			l-0.211-0.141l-0.355-0.408l0.088-0.34l-0.189-0.191l0.082-0.341l0.018-0.27l-0.354-0.237l-0.375-0.395l0.062-0.324l0.023-0.133
			l-0.18-0.258l-0.1-0.271l-0.086-0.428l-0.117-0.479l0.096-0.457l0.088-0.37l-0.342-0.241l-0.262-0.117l-0.354-0.183l-0.248-0.174
			l-0.445-0.079l-0.443-0.137l-0.648-0.329l-0.107-0.39l-0.133-0.366l-0.176-0.428l-0.373-0.346l-0.477-0.436l-0.363-0.154
			l-0.396-0.241L25.463,7.57l-0.271-0.308l-0.258-0.307l-0.08-0.25l0.004-0.245l-0.041-0.304l0.033-0.407L24.832,4.584"/>
	</g>
</g>
<g id="Layer_1">
</g>
</svg>
