<?xml version="1.0" encoding="iso-8859-1"?>
<!-- Generator: Adobe Illustrator 16.0.4, SVG Export Plug-In . SVG Version: 6.00 Build 0)  -->
<!DOCTYPE svg PUBLIC "-//W3C//DTD SVG 1.1//EN" "http://www.w3.org/Graphics/SVG/1.1/DTD/svg11.dtd">
<svg version="1.1" xmlns="http://www.w3.org/2000/svg" xmlns:xlink="http://www.w3.org/1999/xlink" x="0px" y="0px"
	 width="24.027px" height="24.317px" viewBox="0 0 24.027 24.317" style="enable-background:new 0 0 24.027 24.317;"
	 xml:space="preserve">
<g id="Layer_181">
	<g id="Layer_186">
		<path id="DISTRICT_x3D_Abbottabad_x2C_PROVINCE_x3D_NWFP" style="fill:#CCCCCC;stroke:#FFFFFF;stroke-width:1.07;" d="
			M1.632,7.257L1.632,7.257l0.003,0.004l0.016,0.02l0.016,0.038L1.652,7.357L1.639,7.395l-0.024,0.03l-0.04,0.007L1.543,7.414
			L1.509,7.406L1.457,7.411L1.423,7.413L1.388,7.42L1.373,7.446l0.032,0.039l0.025,0.018l0.023,0.04L1.447,7.602L1.383,7.655
			l0.059,0.199L1.427,7.881L1.258,8.192L1.24,8.198L1.151,8.232L1.104,8.253L1.048,8.275L0.962,8.357l-0.055,0.04L0.884,8.42
			l-0.026,0.03L0.837,8.47L0.815,8.488L0.804,8.502l0.719,0.444l0.012,0.007l0.003,0.001l0.205,0.126l0.065,0.199l0.13-0.077
			l0.094-0.062l0.166-0.012h0.065h0.055l0.07,0.003l0.094,0.011l0.062,0.01l0.055,0.005l0.068,0.006L2.73,9.169l0.07,0.018
			l0.049,0.01l0.058,0.012L2.96,9.215l0.081,0.029l0.041,0.021l0.061,0.038l0.061,0.07l0.096,0.118l0.055,0.078l0.053,0.074
			l0.009,0.014l0.127,0.213l-0.109,0.214l-0.042,0.077l-0.06,0.11l-0.098,0.064l-0.146,0.079l-0.112,0.102l-0.078,0.128L2.9,10.776
			l0.07,0.125l0.068,0.068l0.112,0.065l0.191,0.028l0.172-0.016l0.114,0.007l0.136,0.008l0.158,0.013l0.092,0.008l0.128,0.011
			l0.134,0.018l0.093,0.035l0.075,0.027l0.05,0.02l0.062,0.032l0.11,0.092l0.077,0.064l0.084,0.088l0.097,0.134l0.044,0.08
			l0.202,0.389l0.188,0.135l0.09-0.008l0.089-0.007l0.082,0.017l0.043,0.008l0.073,0.036l0.005,0.006l0.065,0.021l0.002,0.119
			l0.029,0.13l0.01,0.149l0.021,0.14l0.019,0.134l0.027,0.104l0.024,0.134l-0.021,0.114l-0.056,0.092l-0.063,0.105l-0.115,0.103
			l-0.125,0.106l-0.098,0.08l-0.071,0.061l-0.096,0.115l0.028,0.102l-0.029,0.01H5.266l-0.001,0.015l-0.003,0.059L5.251,14.22
			l-0.019,0.088l0.01,0.096L5.3,14.527l0.083,0.129l0.084,0.096l0.077,0.051l0.064,0.107l0.045,0.129l0.021,0.172l0.123,0.035
			l0.082,0.043l0.076,0.047l0.093,0.047l0.189-0.057l0.112-0.119l0.062-0.098l0.079-0.074l0.093-0.1l0.101,0.039l0.128,0.05
			l0.146,0.062l0.132,0.068l0.104,0.062l0.086,0.037l0.095,0.047l0.064,0.035l0.016,0.014l0.024,0.023l0.079,0.028l0.075,0.019
			l0.059,0.031l0.041,0.057l0.056,0.094l0.104,0.064l0.202,0.125l0.122,0.076l0.007,0.049l0.01,0.064v0.066l0.001,0.07H8.135
			l-0.047,0.031L8.056,16.17l-0.129,0.133l-0.083,0.078l0.012,0.101l-0.027,0.144l-0.077,0.071l-0.042,0.095l0.001,0.172
			l-0.004,0.146l0.059,0.162l-0.072,0.071l-0.062,0.063l-0.07,0.072l-0.09,0.09l-0.054,0.065l-0.069,0.084l-0.009,0.162
			l-0.001,0.014v0.007l0.044,0.103l-0.045,0.084l-0.039,0.072l-0.026,0.016l-0.059,0.035L7.155,18.23l-0.063,0.016l-0.053,0.012
			l-0.05,0.012l-0.113,0.023l-0.151-0.021l-0.082,0.009l-0.057,0.008l-0.16,0.022l-0.112,0.055l-0.064,0.123L6.247,18.49
			l-0.099,0.073L6.102,18.6l-0.089,0.066l-0.033,0.109l-0.061,0.042l-0.085,0.058l0.215,0.086l0.018,0.01l0.023,0.043l-0.002,0.031
			l0.01,0.037l0.035,0.026l0.05,0.041l0.042,0.037l0.069,0.122l0.089,0.01l0.098,0.07l0.017,0.121l-0.052,0.097l-0.063,0.121
			l0.025,0.104l-0.05,0.072l-0.026,0.04l-0.04,0.058l-0.034,0.039L6.22,20.084l-0.085,0.022l-0.065,0.019l-0.111,0.086l-0.001,0.006
			L5.92,20.42v0.004v0.002l0.024,0.05l0.025,0.022l0.028,0.021l0.128-0.017l0.084-0.022l0.003-0.001l0.051-0.018l0.021-0.008
			l0.256,0.01l0.107,0.08l0.07,0.053l0.102,0.007l0.083,0.006l0.087-0.028L7,20.576l0.078-0.025l0.047-0.016l0.07-0.022l0.113-0.035
			l0.007-0.013l0.059-0.103l0.079-0.059l0.013-0.011l0.009,0.006l0.198,0.091l0.054-0.019l0.072-0.023l0.097-0.034l0.04-0.015
			l0.049-0.019l0.061-0.017l0.074-0.002l0.031,0.003l0.05-0.013l0.075-0.037l0.153-0.075l0.026-0.042l0.034-0.059l0.05-0.084
			l0.028-0.027l0.138-0.029l0.075-0.087l0.038-0.06l0.021-0.035l-0.021-0.135l0.016-0.01l0.051-0.021l0.027-0.006l0.073,0.029
			l0.047,0.146l0.012,0.003l0.136,0.034l0.086-0.074l0.125-0.006l0.117,0.025l0.094,0.021l0.044-0.028l0.026-0.017l0.117-0.075
			v0.028l0.01,0.053l0.021,0.033l0.062,0.06l0.064,0.028l0.03-0.012l0.016-0.021l0.016-0.028l0.022-0.047l0.021-0.021l0.062-0.026
			l0.038-0.014l0.015-0.007l0.084-0.045l0.007-0.03l0.003-0.052l0.001-0.028l0.005-0.013l0.008-0.02l0.029-0.034l0.031-0.004
			l0.051,0.021l0.032,0.022l0.023,0.103l-0.079,0.1l-0.088,0.075l-0.007,0.118l-0.003,0.062l-0.061,0.01l-0.027,0.004l-0.104,0.051
			l-0.07-0.004l-0.046,0.031l-0.016,0.037l-0.038,0.03l-0.002,0.001l-0.184,0.09l-0.018,0.012l-0.06,0.028l-0.049,0.231l0.092,0.039
			l-0.075,0.09l-0.007,0.009L9.57,20.607l-0.001,0.005l0.03,0.03l0.032-0.006h0.041l0.055,0.021l0.042,0.016l0.061,0.016
			l0.059,0.004H9.89l0.039-0.001l0.084,0.03l0.117,0.021l0.051,0.028l0.038,0.006l0.062,0.007l0.021,0.002l0.068-0.004l0.079-0.009
			l0.096-0.011l0.109-0.036l0.058-0.024l0.049-0.019l0.033-0.005l0.045,0.078l0.025,0.096l0.023,0.08l-0.03,0.092l-0.028,0.092
			l-0.005,0.012l-0.146,0.029l-0.08,0.071L10.5,21.274l-0.104,0.056l-0.085,0.041l-0.098,0.049l-0.021,0.008l-0.064,0.033
			l-0.15,0.023l-0.025,0.037L9.932,21.58l-0.026,0.017l-0.011,0.02l-0.001,0.032l-0.012,0.055l0.002,0.031l0.027,0.021l0.044,0.035
			L10,21.851l0.034,0.047l0.06,0.067l0.002,0.057l-0.004,0.072l0.007,0.09l-0.01,0.053l-0.012,0.09l0.016,0.021l0.05-0.004
			l0.055-0.021l0.136-0.048l0.101-0.025l0.119-0.024l0.137-0.027l0.083,0.117l0.052,0.087l-0.005,0.104l-0.046,0.082l-0.06,0.051
			l-0.025,0.039l0.017,0.025l0.025,0.039l0.035,0.057l0.042,0.207l-0.154,0.141l-0.161,0.146l-0.02,0.019l-0.062,0.062l0.036,0.135
			l0.06,0.05l0.069,0.071l0.048,0.058l0.062,0.06l0.055,0.021l0.064,0.008l0.138-0.031l0.08-0.021l0.059-0.01l0.058-0.023
			l0.119-0.027l0.079-0.035l0.086-0.035l0.086-0.039l0.107-0.059l0.136-0.059l0.03-0.034l0.058-0.069l0.032-0.064l0.091-0.232
			l0.022-0.072l0.043-0.106l0.031-0.043l0.052-0.062l0.05-0.049l0.063-0.025l0.146-0.043l0.062-0.037l0.065-0.028l0.057-0.011
			l0.066-0.016l0.021-0.009l0.091-0.017l0.068,0.04l0.062,0.063l0.036,0.053l0.064,0.127l0.035,0.05l0.055,0.007l0.342-0.206
			l0.284-0.127l0.134-0.042l0.09-0.014l0.078,0.007l0.069,0.022l0.089,0.028l0.067,0.031l0.062,0.013l0.069-0.009l0.072-0.031
			l0.088-0.101l0.086-0.094l0.114-0.17l0.047-0.039l0.079-0.045l0.062-0.02l0.139,0.018l0.037,0.002l0.043-0.021l0.026-0.036
			l0.036-0.052l0.031-0.033l0.024-0.021l-0.017-0.09l-0.059-0.017l-0.018-0.036l0.063-0.07l0.08-0.066l0.092-0.09l0.148-0.08
			l0.052-0.039l0.04-0.049l0.038-0.062l0.029-0.066l0.022-0.098l0.006-0.08l-0.021-0.054l-0.046-0.038l-0.053-0.064l-0.032-0.056
			l0.019-0.071l0.097-0.084l0.07-0.064l0.043-0.037l0.07-0.068l0.024-0.035l0.036-0.075l0.049-0.128l0.034-0.068l0.044-0.055
			l0.044-0.023l0.04-0.014l0.05-0.016l0.098-0.054l0.084-0.057l0.03-0.033l0.02-0.032l0.003-0.083l0.008-0.069l0.001-0.055
			l-0.026-0.076l-0.042-0.145v-0.03l0.043-0.007h0.062l0.121-0.029l0.04-0.021l0.155-0.159l0.059-0.062l0.075-0.033l0.123-0.024
			l0.052-0.004l0.072-0.014l0.08-0.042l0.022-0.032l0.046-0.058l0.082-0.058l0.09-0.057l0.06-0.05l0.087-0.057l0.052-0.049
			l0.041-0.062l0.065-0.086l0.049-0.057l0.104-0.197l0.019-0.09l0.017-0.101l0.014-0.095l-0.003-0.067l-0.01-0.015l-0.062-0.01
			l-0.077,0.014l-0.111,0.021l-0.081,0.004L17.575,18l-0.077-0.02l-0.001-0.001l-0.003-0.033l0.088-0.063l0.071-0.071l0.001-0.044
			l0.001-0.033l0.021-0.057l0.054-0.002l0.081,0.014h0.073l0.072-0.016l0.078-0.063l0.049-0.043l0.051-0.063l0.046-0.09l0.04-0.067
			l0.018-0.046l0.016-0.033l0.036-0.051l0.141-0.061l0.051-0.013l0.139-0.026l0.054-0.007l0.061,0.009l0.023,0.012l0.031,0.043
			l0.023,0.053l0.04,0.041l0.058,0.027l0.043,0.022l0.077,0.081l0.08,0.04l0.043,0.039l0.028,0.043l-0.006,0.03l-0.012,0.043
			l0.015,0.062l0.125,0.08l0.014,0.046l-0.027,0.034l-0.054,0.033l-0.001,0.071l0.062,0.041l0.072,0.018l0.062-0.003l0.071-0.003
			l0.041-0.014l0.021-0.027l-0.021-0.065l-0.035-0.088l0.014-0.065l0.022-0.037l0.033-0.021l0.044-0.021l0.069-0.021l0.069-0.023
			l0.061-0.029l0.041-0.041l0.022-0.033l0.026-0.032l0.062-0.044l0.06-0.041l0.05-0.043l0.034-0.055l0.048-0.055l0.038-0.022
			l0.033-0.024l0.017-0.035l-0.006-0.037l0.007-0.075l0.037-0.052l0.021-0.055l0.013-0.041l0.04-0.047l0.017-0.025l0.062-0.029
			l0.064-0.032l0.044-0.026l0.049-0.045l0.045-0.049l0.035-0.033l0.049-0.033l0.036-0.027l0.035-0.034l0.023-0.034l0.02-0.035
			l0.043-0.043l0.031-0.024l0.041-0.022l0.047-0.029l0.043-0.038l0.021-0.031l0.02-0.043l0.048-0.054l0.004-0.008l0.05-0.026
			l0.028-0.03l0.033-0.023l0.021-0.021l-0.051-0.07l0.045-0.021l0.137-0.113l0.015-0.025l0.037-0.041l0.02-0.068l0.062-0.059
			l-0.003-0.047l-0.002-0.058l0.014-0.065l0.007-0.037l0.054,0.02l0.058,0.016l0.034,0.015l0.056,0.017l0.078-0.017l0.059-0.033
			l0.119-0.043l0.112-0.028l0.057-0.004h0.061l0.091-0.003l0.087-0.001h0.066l0.053,0.009l0.043,0.007l0.042,0.01l0.05,0.002
			l0.059,0.009l0.029,0.011l0.059,0.006l0.038-0.011l0.045-0.009H23l0.189-0.004l0.091-0.012l0.068-0.004l0.074-0.046l-0.019-0.084
			l-0.036-0.038l-0.022-0.031l-0.031-0.037L23.207,15l-0.036-0.062v-0.077v-0.042l-0.001-0.062l0.005-0.026v-0.095l0.004-0.1V14.5
			v-0.043v-0.031l-0.014-0.033l-0.023-0.096v-0.088v-0.035v-0.008l-0.01-0.156v-0.055v-0.041l-0.004-0.031l-0.019-0.03v-0.046
			l-0.015-0.038l-0.005-0.039l-0.021-0.062l-0.045-0.113l-0.016-0.047l-0.021-0.045l0.002-0.051l-0.034-0.049l-0.04-0.008
			l-0.044-0.02l-0.046-0.022l-0.022-0.011L22.76,13.26l-0.012,0.008l-0.032-0.034l-0.021-0.026l-0.005-0.045v-0.055v-0.046V13.03
			l0.014-0.035l0.021-0.026l0.019-0.034l0.014-0.027l-0.005-0.049l-0.009-0.023l-0.05-0.069v-0.035v-0.045v-0.042V12.6l-0.001-0.045
			v-0.046l0.014-0.045l0.031-0.023l0.041-0.038l0.03-0.03l0.022-0.042l0.004-0.034l0.009-0.034l-0.018-0.107l-0.02-0.031
			l-0.026-0.049l-0.036-0.05l-0.022-0.027l-0.009-0.034v-0.058v-0.035l-0.001-0.042v-0.035v-0.03l0.01-0.027l0.015-0.007
			l0.009-0.004l-0.005-0.01l-0.039-0.018l-0.049-0.027l-0.052-0.004l-0.038-0.037l-0.005-0.037v-0.055v-0.064l-0.006-0.065
			l-0.011-0.046l-0.027-0.074l-0.021-0.064l-0.027-0.055l-0.017-0.064l-0.05-0.064l-0.032-0.083l-0.022-0.056v-0.055l0.033-0.037
			l0.044-0.032l0.05-0.014l0.066-0.028L22.57,10.7l0.026-0.027v-0.037L22.57,10.6l-0.05-0.028l-0.062-0.046l-0.044-0.027
			l-0.044-0.019l-0.033-0.046l-0.033-0.046L22.3,10.314l0.021-0.037l0.045-0.046l0.055-0.055l0.027-0.037v-0.056l-0.005-0.046
			l-0.022-0.042l-0.026-0.06l-0.027-0.065V9.825L22.35,9.761l-0.026-0.064l0.011-0.055l0.019-0.055l0.021-0.065l0.018-0.055
			l-0.018-0.055l-0.044-0.065l-0.011-0.055l-0.018-0.083l0.006-0.083l0.012-0.064l0.017-0.064l0.018-0.064l0.012-0.037l0.016-0.055
			l0.006-0.069V8.723L22.37,8.667L22.353,8.63l-0.012-0.056L22.32,8.529l-0.006-0.083V8.392l0.017-0.046l0.027-0.037l0.045-0.055
			l0.038-0.055l0.017-0.074l0.018-0.055l0.001-0.045l-0.019-0.056l-0.021-0.055L22.42,7.876L22.398,7.82l-0.017-0.055V7.729
			l0.012-0.037l0.044-0.027l0.045-0.023l0.055-0.033l0.006-0.036l0.038-0.046V7.472l-0.005-0.046l-0.027-0.037l-0.027-0.037
			L22.51,7.314v-0.05l-0.011-0.042l-0.017-0.046L22.449,7.13l-0.021-0.045l-0.032-0.055l-0.039-0.056l-0.044-0.046l-0.038-0.046
			L22.23,6.827l-0.051-0.05l-0.039-0.05l-0.043-0.06l-0.05-0.06l-0.05-0.055L21.96,6.497l-0.033-0.046l-0.039-0.078l-0.017-0.064
			L21.85,6.245l-0.021-0.087l-0.033-0.097l-0.033-0.074l-0.039-0.055l-0.009-0.015l-0.019-0.031l-0.027-0.074l-0.021-0.055
			l-0.033-0.074l-0.033-0.073l-0.005-0.056l-0.022-0.092l0.027-0.083l0.017-0.083l0.039-0.064l0.033-0.073l0.044-0.074l0.045-0.064
			l0.043-0.055l0.045-0.051l0.056-0.041l0.033-0.042l0.044-0.023l0.056-0.036L22.08,4.74l0.033-0.032l0.017-0.032l-0.006-0.046
			l-0.021-0.046l-0.051-0.036l-0.038-0.037l-0.032-0.037l-0.039-0.046l-0.021-0.037V4.349l0.004-0.072l-0.022-0.042L21.898,4.18
			l-0.101-0.076l-0.097,0.006l-0.082,0.019L21.607,4.18L21.59,4.276l-0.026,0.046l-0.027,0.06l-0.033,0.055l-0.056,0.046
			L21.37,4.493h-0.1l-0.021,0.018l-0.026,0.028v0.06l-0.018,0.046l-0.012,0.037l-0.062,0.014l-0.072-0.009l-0.061-0.009
			l-0.049-0.005l-0.022-0.023l-0.021-0.037l-0.027-0.028l-0.027-0.046L20.84,4.493V4.446l0.027-0.027l0.044-0.005l0.026,0.01
			l0.062,0.014h0.021V4.401L21.01,4.364V4.333V4.291l0.006-0.051l0.005-0.06l0.012-0.037l0.012-0.092l-0.011-0.037V3.981
			l-0.027-0.028l-0.028-0.014l-0.044-0.018l-0.049-0.009l-0.034-0.009l-0.016-0.028l-0.017-0.037l-0.012-0.028l-0.021-0.027
			l-0.038-0.018l-0.013-0.028l0.013-0.027l0.005-0.028L20.73,3.655l-0.039-0.014l-0.055-0.005l-0.044-0.004L20.56,3.604
			l-0.032-0.009l-0.045-0.042L20.45,3.521L20.417,3.5l-0.032-0.015V3.466V3.43L20.4,3.402l0.019-0.019l0.088-0.037l0.021-0.028
			V3.281V3.245l-0.011-0.027L20.5,3.19l-0.021-0.037l-0.017-0.027l-0.018-0.032l-0.006-0.046l-0.005-0.051l-0.006-0.042l0.001-0.05
			l-0.012-0.055L20.411,2.8l-0.005-0.046l-0.012-0.051l-0.033-0.014l-0.032-0.032L20.273,2.63l-0.1-0.055l-0.061-0.004l-0.062-0.005
			L19.979,2.54l-0.064-0.056l-0.039-0.037L19.838,2.4l-0.039-0.037L19.744,2.35L19.7,2.344l-0.018-0.027V2.252l-0.006-0.045
			L19.672,2.17l-0.027-0.019l-0.044-0.037l-0.033-0.027l-0.032-0.046V2.004l0.017-0.036l0.033-0.028l0.038-0.036l0.027-0.028
			l0.033-0.037l0.044-0.018l0.038-0.046l-0.017-0.037l-0.033-0.01l-0.094-0.013L19.54,1.725h-0.077h-0.066l-0.05-0.028l-0.033-0.064
			l-0.031-0.037L19.26,1.541l-0.049-0.027l-0.066-0.004l-0.061,0.018l-0.052,0.017l-0.031,0.011l-0.033,0.032L18.924,1.61
			l-0.05,0.019l-0.033-0.009l-0.021-0.027l-0.027-0.055V1.493l0.001-0.046l-0.022-0.069v-0.05l0.018-0.028V1.245l-0.011-0.028
			l-0.017-0.036l-0.045-0.111l-0.011-0.046V0.986l-0.021-0.041l-0.021-0.042l-0.027-0.037L18.59,0.83l-0.049-0.046l-0.055-0.042
			l-0.044-0.042l-0.057-0.073l-0.043,0.014L18.33,0.647l-0.004,0.002l-0.264,0.188l-0.111,0.009l-0.226-0.028l-0.181-0.006
			l-0.093-0.007L17.316,0.77l-0.063-0.042l-0.227,0.038l-0.115,0.039l-0.05,0.059l-0.029,0.075l-0.167,0.004l-0.049-0.027
			l-0.113,0.009l0.015,0.051v0.046l-0.01,0.044L16.497,1.11l-0.001,0.001l-0.01,0.09l0.001,0.016l0.005,0.157l0.001,0.056
			L16.4,1.535l-0.103,0.118l-0.09,0.062l-0.104,0.057l-0.002,0.003l-0.005,0.052l0.106,0.025l0.059,0.077l-0.035,0.019l-0.043,0.036
			L16.158,2.02l-0.04,0.058l-0.04,0.037l-0.111,0.043l-0.086,0.038l-0.025,0.014L15.833,2.23l-0.024,0.036l-0.064,0.046
			l-0.025,0.055l0.016,0.031l-0.063,0.046l-0.02-0.01l-0.017,0.016l-0.016,0.046l-0.012,0.029l-0.023,0.016L15.548,2.58
			l-0.016,0.033L15.528,2.66l-0.015,0.046l-0.02,0.035l-0.036,0.021L15.4,2.779L15.31,2.797l-0.051,0.002l-0.087-0.009l-0.036-0.003
			L15.108,2.8l-0.013,0.012l0.022,0.029l-0.009,0.08l-0.027,0.135l-0.143,0.012l-0.375,0.061l-0.029,0.067l-0.072,0.09l-0.141,0.141
			l-0.104,0.038L14.134,3.47l-0.108-0.021l-0.072,0.043l-0.17,0.074l-0.077-0.034l-0.094,0.024l-0.209-0.076l-0.097-0.06
			l-0.06,0.002l-0.006,0.06l0.017,0.103l0.022,0.06l0.01,0.025l0.034,0.032l0.003,0.006v0.021l-0.015,0.043l-0.029,0.048
			l-0.059,0.072l-0.006,0.035l-0.005,0.038l0.009,0.047l0.005,0.03l-0.001,0.031l-0.001,0.042l-0.018,0.035l-0.206,0.052
			l-0.089,0.065l-0.071,0.131l-0.183,0.104L12.541,4.57l0.053,0.172l-0.059,0.112l-0.103,0.025l-0.129-0.049L12.27,4.781
			l-0.016-0.004l-0.048-0.014l-0.031-0.011L12.15,4.742l-0.031-0.019l-0.033-0.028l-0.027-0.034l-0.022-0.026l-0.037-0.038
			l-0.025-0.035l-0.034-0.04l-0.027-0.009l-0.006-0.001l-0.034,0.009l-0.028,0.025l-0.019,0.031l-0.032,0.024l-0.029,0.02
			L11.702,4.62l-0.011-0.1l0.008-0.074l-0.036-0.112l-0.029-0.047l-0.137-0.088l-0.045-0.001l0,0l-0.079-0.013l-0.044,0.003
			l-0.051-0.003h-0.056l-0.027,0.016l-0.014,0.024L11.129,4.27l-0.036,0.012l-0.05,0.003l-0.086,0.001l-0.081-0.043l-0.07-0.017
			l-0.043-0.011l-0.041,0.033L10.68,4.319l-0.06-0.005l0.005,0.033l-0.042,0.018l-0.016,0.026l0.01,0.046l0.009,0.05l-0.014,0.042
			l-0.038,0.04l-0.022,0.02l-0.021,0.042l-0.034,0.031l-0.001,0.05l-0.01,0.055l-0.013,0.044l-0.005,0.07l-0.021,0.051l-0.027,0.056
			l-0.018,0.052l0.005,0.047l0.021,0.049l0.028,0.043l0.007,0.054l-0.01,0.107l-0.023,0.067l-0.032,0.065l-0.031,0.042l-0.028,0.037
			l0.003,0.038L10.29,5.618l-0.029,0.035l-0.053,0.032l-0.023,0.045l-0.01,0.086v0.083l-0.021,0.047l-0.006,0.077l0.002,0.015
			l0.007,0.043l-0.027,0.052l-0.01,0.02l-0.021,0.086l-0.025,0.113L9.931,6.548L9.909,6.636L9.898,6.678L9.892,6.685l-0.106,0.05
			L9.698,6.744L9.622,6.719L9.575,6.691L9.537,6.669L9.505,6.634l-0.04-0.073L9.452,6.532L9.454,6.5l0.045-0.101l0.002-0.004
			l0.055-0.093L9.539,6.253l-0.021-0.02L9.485,6.181L9.317,5.995L9.265,6.042l-0.02,0.16l-0.007,0.09L9.122,6.274L9.043,6.282
			L8.961,6.319L8.94,6.315l-0.052-0.01L8.797,6.292H8.794L8.686,6.276H8.683l-0.061-0.02L8.609,6.248L8.595,6.244L8.57,6.204
			L8.562,6.188l0.014-0.08L8.515,6.133L8.493,6.12L8.438,6.087L8.381,6.055L8.335,6.088L8.329,6.094L8.321,6.106L8.293,6.127
			L8.189,6.022L8.168,5.997L8.146,5.969l-0.01-0.007L8.075,5.92L8.028,5.896l-0.01-0.006L7.883,5.815l-0.06-0.123L7.738,5.648
			L7.726,5.651L7.717,5.653L7.706,5.697L7.701,5.712L7.683,5.729L7.665,5.745L7.603,5.752L7.551,5.797L7.508,5.832L7.389,5.944
			L7.324,6.021L7.238,6.083L7.09,6.092L7.028,6.054L6.995,6.039L6.965,6.05L6.944,6.061l-0.01,0.005L6.913,6.142L6.884,6.186
			l-0.02,0.011L6.853,6.201L6.801,6.222L6.71,6.259L6.639,6.276L6.626,6.275l-0.04-0.004L6.561,6.27L6.543,6.268L6.461,6.271
			L6.43,6.272L6.374,6.279l-0.021,0.03L6.35,6.313l-0.033,0.02L6.267,6.34L6.204,6.308L6.133,6.313L6.092,6.326L6.074,6.327
			L6.048,6.328l-0.022,0.02L6.013,6.477L5.999,6.494L5.947,6.481l0,0L5.85,6.461L5.727,6.527l-0.02-0.015L5.665,6.512L5.614,6.498
			L5.577,6.485L5.561,6.48L5.521,6.423l-0.026-0.07L5.457,6.305L5.456,6.306L5.448,6.285L5.411,6.321L5.391,6.393L5.388,6.5
			L5.364,6.546L5.36,6.555L5.232,6.669L5.207,6.691L5.063,6.72L5.021,6.695l0.011-0.062l0.029-0.038l0.011-0.044L5.071,6.544
			L5.061,6.491L4.919,6.348L4.894,6.3L4.858,6.212L4.71,6.098L4.686,6.062L4.641,5.999L4.622,5.975l-0.015-0.07L4.606,5.864
			l0.051-0.103L4.652,5.725L4.527,5.688L4.508,5.67L4.475,5.648L4.458,5.638H4.406L4.333,5.675L4.232,5.709L4.177,5.688L4.136,5.689
			H4.127l-0.05-0.001l-0.052-0.01L4.008,5.678L3.996,5.675l-0.05-0.124l0.015-0.038l0.041-0.095L3.936,5.385L3.892,5.328l0.01-0.116
			l0.066-0.028l0.059-0.035L4.016,5.12L3.93,5.006L3.787,5.021H3.783L3.688,5.015L3.415,4.997L3.404,5.004L3.399,5.009L3.283,5.111
			L3.199,5.117L3.186,5.133L3.164,5.138L3.12,5.136L3.074,5.143L3.046,5.147L3.039,5.167L2.886,5.385L2.828,5.417L2.745,5.442
			L2.644,5.479L2.621,5.516L2.615,5.597L2.572,5.709L2.389,5.725L2.373,5.756L2.34,5.773L2.285,5.803L2.227,5.856l-0.14-0.102
			L1.998,5.659L1.93,5.653L1.908,5.772l0.006,0.143l0.03,0.221l0.089,0.203l0.042,0.179L1.911,6.814L1.777,6.932l-0.108,0.01
			l-0.016,0.05l-0.01,0.032L1.639,7.036l0.011,0.036v0.033L1.625,7.151L1.613,7.183L1.609,7.194L1.608,7.223L1.632,7.257"/>
	</g>
</g>
<g id="Layer_1">
</g>
</svg>
