<?xml version="1.0" encoding="iso-8859-1"?>
<!-- Generator: Adobe Illustrator 16.0.4, SVG Export Plug-In . SVG Version: 6.00 Build 0)  -->
<!DOCTYPE svg PUBLIC "-//W3C//DTD SVG 1.1//EN" "http://www.w3.org/Graphics/SVG/1.1/DTD/svg11.dtd">
<svg version="1.1" xmlns="http://www.w3.org/2000/svg" xmlns:xlink="http://www.w3.org/1999/xlink" x="0px" y="0px" width="4.229px"
	 height="6.662px" viewBox="0 0 4.229 6.662" style="enable-background:new 0 0 4.229 6.662;" xml:space="preserve">
<g id="Layer_134">
	<g id="Layer_139">
		<path id="DISTRICT_x3D_Karachi_Central_x2C_PROVINCE_x3D_Sindh" style="fill:#CCCCCC;stroke:#FFFFFF;stroke-width:1.07;" d="
			M3.65,3.535L3.65,3.535l-0.01-0.04L3.624,3.437L3.602,3.401L3.596,3.38L3.589,3.356l-0.014-0.04L3.562,3.287L3.52,3.229
			L3.493,3.19L3.465,3.146L3.432,3.104L3.402,3.068l-0.02-0.024L3.37,3.019L3.367,3.002L3.366,2.977l0.007-0.042L3.395,2.87
			l0.01-0.034l0.004-0.032L3.406,2.778l-0.008-0.03L3.393,2.704V2.656l0.004-0.045l0.01-0.037l0.007-0.019l0.008-0.013l0.021-0.021
			l0.027-0.025l0.016-0.02l0.021-0.024l0.024-0.034L3.55,2.393L3.568,2.36l0.014-0.04L3.58,2.293l-0.006-0.03V2.244l0.006-0.02
			L3.6,2.188l0.004-0.022L3.602,2.141L3.588,2.116L3.574,2.084L3.561,2.023L3.559,2.002l0.002-0.03l0.006-0.028l0.013-0.038
			l0.006-0.05l0.003-0.04l0.008-0.031l0.002-0.021l0.006-0.015l0.027-0.016l0.026-0.012l0.017-0.022l0.002-0.01l-0.01-0.019
			L3.65,1.65L3.639,1.638L3.607,1.612L3.587,1.589L3.574,1.56L3.568,1.517L3.572,1.48l0.004-0.025L3.58,1.41l0.003-0.042
			l0.011-0.023l0.004-0.026L3.6,1.306l0.008-0.015l0.019-0.014l0.021-0.019L3.66,1.246l0.016-0.033l0.002-0.026v-0.03L3.669,1.104
			L3.645,1.034L3.635,0.99l-0.02-0.062L3.604,0.881L3.6,0.835V0.782L3.604,0.75l0.008-0.023l0.004-0.046l0.001-0.055L3.605,0.583
			L3.598,0.558L3.596,0.547L3.588,0.545L3.575,0.547L3.562,0.549L3.533,0.55L3.492,0.555L3.443,0.554L3.4,0.55L3.355,0.544
			L3.334,0.547l-0.042,0.01L3.137,0.563L3.023,0.57L2.85,0.579L2.636,0.59L2.455,0.598L2.211,0.612L1.972,0.624L1.864,0.63
			L1.745,0.664L1.588,0.706L1.396,0.759L1.395,0.764l0.004,0.005l0.022,0.01l0.058,0.027l0.084,0.04l0.044,0.021l0.054,0.034
			l0.036,0.027l0.034,0.024l0.033,0.032l0.025,0.027L1.8,1.035l0.007,0.023L1.81,1.085L1.806,1.15L1.804,1.209L1.798,1.326
			L1.794,1.4L1.788,1.446l-0.01,0.039L1.764,1.524L1.736,1.585L1.693,1.677L1.676,1.728L1.66,1.789L1.658,1.811l0.001,0.017
			l0.004,0.018l0.01,0.032L1.679,1.91L1.68,1.952l0.006,0.041l0.016,0.053l0.007,0.05v0.041L1.706,2.171L1.682,2.258L1.655,2.35
			L1.629,2.425L1.612,2.482L1.599,2.525L1.587,2.57l-0.012,0.07L1.563,2.679l-0.02,0.039L1.517,2.762L1.497,2.8L1.466,2.85
			L1.434,2.908L1.398,2.966L1.356,3.02L1.295,3.091L1.249,3.146L1.217,3.193L1.182,3.242l-0.01,0.024L1.147,3.317L1.113,3.37
			L1.085,3.403L1.06,3.427L1.019,3.459L0.995,3.476L0.967,3.491L0.915,3.519L0.859,3.555L0.821,3.582L0.778,3.62L0.74,3.653
			L0.704,3.679l-0.04,0.027L0.631,3.728L0.608,3.735l-0.03,0.006L0.554,3.745L0.542,3.753L0.535,3.761v0.012l0.01,0.014l0.029,0.028
			L0.595,3.83l0.036,0.046l0.018,0.026l0.018,0.013l0.017,0.019l0.014,0.013l0.008,0.01l0.004,0.01l-0.003,0.01l-0.012,0.01
			l-0.009,0.01L0.674,4.003l-0.01,0.009L0.659,4.019l-0.008,0.02l-0.006,0.01l-0.013,0.01L0.621,4.069L0.616,4.077v0.01L0.62,4.094
			l0.006,0.014L0.628,4.12L0.627,4.128L0.62,4.146L0.602,4.169L0.597,4.18v0.028L0.593,4.255l-0.002,0.05l0.006,0.039l0.012,0.052
			l0.006,0.039L0.61,4.457L0.608,4.47v0.015l0.008,0.012l0.006,0.021l0.002,0.036l0.001,0.011L0.621,4.585L0.608,4.618L0.595,4.662
			L0.588,4.685L0.587,4.698l0.002,0.01l0.019,0.027l0.019,0.029l0.026,0.034l0.018,0.02l0.021,0.018l0.025,0.02l0.018,0.019
			l0.011,0.011l0.007,0.015v0.012l-0.002,0.01L0.745,4.928L0.742,4.934L0.743,4.96l0.004,0.018L0.744,5.014l0.001,0.029L0.75,5.078
			l0.002,0.051l0.003,0.018v0.019L0.743,5.202L0.736,5.237L0.733,5.267L0.73,5.283L0.729,5.302l0.002,0.012l0.007,0.019l0.021,0.02
			l0.019,0.021l0.027,0.03l0.034,0.04l0.037,0.03l0.02,0.015l0.026,0.014l0.012,0.013l0.008,0.014l0.008,0.02l0.002,0.015
			L0.951,5.579l0.001,0.02V5.61l0.003,0.019V5.628L0.98,5.607L1,5.597l0.032-0.014l0.03-0.008l0.033-0.01l0.044-0.015l0.02-0.006
			l0.026-0.008l0.023-0.006l0.026-0.007l0.03-0.01L1.3,5.495l0.052-0.024l0.019-0.014l0.035-0.015l0.028-0.011l0.033-0.008
			l0.037-0.002l0.045-0.004l0.023-0.001l0.017,0.006l0.022,0.002L1.65,5.426l0.037-0.004l0.031-0.001l0.025-0.007l0.049-0.021
			l0.03-0.014l0.045-0.016l0.057-0.021l0.028-0.015l0.051-0.032L2.025,5.28l0.04-0.021l0.038-0.016l0.044-0.018l0.05-0.015
			l0.048-0.015l0.031-0.009l0.057-0.014l0.024-0.006l0.018-0.006l0.02-0.015l0.022-0.021l0.034-0.039l0.016-0.024l0.017-0.043
			l0.012-0.039L2.51,4.95l0.013-0.037L2.526,4.89l0.021-0.052l0.015-0.033l0.029-0.046L2.612,4.73l0.023-0.035l0.016-0.018
			l0.021-0.014l0.046-0.019L2.76,4.633l0.025-0.006l0.042-0.008l0.057-0.017l0.068-0.021L2.99,4.571l0.039-0.018L3.051,4.54
			l0.031-0.025L3.1,4.5l0.017-0.014l0.013-0.021l0.016-0.043l0.007-0.044l0.007-0.063l0.006-0.046l0.001-0.081l0.009-0.052
			l0.008-0.041l0.017-0.028l0.012-0.02L3.223,4.03l0.022-0.016L3.28,3.994l0.062-0.033l0.055-0.022l0.055-0.021l0.036-0.021
			L3.51,3.871l0.033-0.025l0.021-0.028l0.021-0.03l0.02-0.05l0.021-0.052l0.015-0.076l0.006-0.036L3.65,3.535"/>
	</g>
</g>
<g id="Layer_1">
</g>
</svg>
