<?xml version="1.0" encoding="iso-8859-1"?>
<!-- Generator: Adobe Illustrator 16.0.4, SVG Export Plug-In . SVG Version: 6.00 Build 0)  -->
<!DOCTYPE svg PUBLIC "-//W3C//DTD SVG 1.1//EN" "http://www.w3.org/Graphics/SVG/1.1/DTD/svg11.dtd">
<svg version="1.1" xmlns="http://www.w3.org/2000/svg" xmlns:xlink="http://www.w3.org/1999/xlink" x="0px" y="0px"
	 width="141.566px" height="103.324px" viewBox="0 0 141.566 103.324" style="enable-background:new 0 0 141.566 103.324;"
	 xml:space="preserve">
<g id="Layer_123">
	<g id="Layer_128">
		<path id="DISTRICT_x3D_Kharan_x2C_PROVINCE_x3D_Balochistan" style="fill:#CCCCCC;stroke:#FFFFFF;stroke-width:1.07;" d="
			M141.056,1.387L141.056,1.387l-0.298,0.154l-0.242,0.084l-0.256,0.014l-0.297-0.012l-0.354-0.117l-0.258-0.212l-0.436-0.364
			l-0.379-0.283l-0.177-0.105l-0.188,0.014l-0.121,0.096l-0.084,0.184l-0.133,0.391l-0.312,0.42l-0.765,0.709l-0.309,0.56
			l-0.105,0.284l0.043,0.367l0.137,0.318l0.001,0.271l-0.079,0.261l-0.229,0.263l-0.403,0.32l-0.329,0.51l-0.468,0.771l-0.349,0.594
			l-0.188,0.179l-0.283,0.107l-0.472,0.18L133,7.843l-0.592,0.323l-1.078,0.35l-0.834,0.276l-0.324,0.12l-0.389,0.227l-0.898,0.521
			l-0.135,0.084l-0.256,0.036l-0.324-0.057l-0.379-0.164l-0.394-0.223l-0.285-0.176l-0.176-0.105l-0.312-0.033l-0.418,0.002
			l-0.931,0.066l-0.526-0.021l-0.432-0.021l-0.607,0.017l-0.633,0.146l-0.767,0.302l-0.55,0.336l-0.174,0.227l-0.053,0.166
			l0.022,0.863l-0.091,0.297l-0.2,0.227l-0.509,0.178l-0.418,0.121l-0.523,0.17l-0.711,0.301l-0.295,0.168l-0.48,0.49l-0.293,0.346
			l-0.213,0.25l-0.416,0.121l-0.229,0.025l-0.459-0.066l-0.486-0.114l-1.065-0.108l-0.635-0.054l-1.01,0.114l-0.771,0.104
			l-0.231,0.041h-0.005l-0.766,0.22l-0.564,0.362l-0.757,0.595l-1.318,0.793l-1.077,0.707l-0.673,0.432l-0.917,0.685l-0.566,0.527
			l-0.834,0.522L104,18.938l-0.752,0.5l-0.701,0.574l-0.6,0.782l-0.936,0.802l-0.971,0.823l-0.644,0.363l-0.799,0.198l-0.956,0.104
			l-1.193,0.076l-0.955,0.033l-0.586,0.154l-0.479,0.25l-0.782,0.735l-0.918,1.036l-0.971,0.943l-0.993,0.896l-0.62,0.668
			l-0.375,0.252L89.08,28.26h-0.552l-0.845-0.082l-1.583-0.322l-0.634-0.123l-0.584,0.016l-1.037,0.361l-0.904,0.293l-0.876,0.223
			l-0.743,0.18l-0.931,0.27l-0.957,0.361l-0.823,0.201l-1.009,0.271l-0.556-0.029l-0.422-0.051l-0.397,0.065l-0.586,0.297
			l-2.099,0.771l-0.687,0.241l-0.556,0.019l-0.396-0.004l-0.426,0.229l-1.123,1.038l-0.482,0.556l-0.538,0.858l-0.588,0.529
			l-0.665,0.461l-1.058,0.131l-0.978-0.03l-0.871-0.077l-0.71-0.285l-0.578-0.33l-0.448-0.121l-0.238-0.002l-0.239,0.232
			l-0.03,0.326l0.126,0.605l-0.003,0.28l-0.214,0.254l-0.292,0.162l-0.423,0.043l-0.581-0.004l-0.583,0.157L60.432,36.6
			l-0.717,0.438l-0.416,0.058L58.851,37l-0.369-0.05l-0.502,0.065L57.477,37.2l-0.528-0.003l-0.502-0.004l-0.186,0.092l-0.584,0.486
			l-0.69,0.508l-0.531,0.465l-0.714,0.205l-0.449,0.044l-0.291,0.138l-0.24,0.326l-0.77,0.693l-0.293,0.466l-0.186,0.139
			l-0.105-0.024l-0.21-0.117l-0.156-0.256l-0.105-0.094l-0.264-0.002l-0.344,0.23l-0.239,0.279l-0.608,0.16l-0.633-0.004
			l-0.422-0.096l-0.422,0.045l-0.74,0.323l-0.608,0.416l-0.715,0.579l-0.9,0.742l-0.953,0.858l-0.213,0.136l-0.015,0.01
			l-0.078-0.539l-0.05-0.447l-0.175-0.694l-0.295,0.152L43,42.604l-0.001,0.002l-0.012,0.052l-0.088,0.374l-0.58,0.525l-1.328,0.439
			l-2.182,0.451l-1.386,0.111l-1.817-0.117l-2.244-0.111l-2.507,0.129l-1.759,0.166l-1.753,0.449l-1.223,0.302l-1.223,0.255
			l-1.334-0.027l-1.927-0.254l-0.858-0.222l-0.32,0.005l-0.423,0.243l-0.61,0.511l-0.415,0.572l-0.195,0.9l-0.042,0.565
			l-0.206,0.382l-0.411,0.716l-0.422,0.241L17.36,49.27l-0.906,0.017l-0.74,0.296l-0.838,0.675l-0.945,0.678l-1.468,1.063
			l-0.89,0.724L10.37,53.64l-1.252,1.156l-1.726,1.306l-1.248,1.251l-0.724,0.862l-0.879,1.008l-0.993,0.729l-1.1,0.682
			l-1.042,0.612l0.266,1.545l0.48,1.935l0.031,0.219l0.392,2.681l0.248,2.531l0.108,1.117l0.525,4.096l0.033,0.257l0.14,3.222
			l-0.64,1.667l-1.354,3.528l0.858,0.861l0.108,0.35l0.077,0.249L2.29,86.28l-1.732,1.444l0.062,0.712l0.622,0.53l0.547,0.215
			l0.426,0.168l0.927-0.031l1.44-0.169l0.581,0.265l0.681,0.479l1.478,0.247l0.307,0.052l1.063-0.126l3.381-1.582l0.668-0.015
			l1.706-0.035l2.844-0.294l1.127,0.581l1.368,0.707l0.482-0.153l0.341,0.12l0.267,0.076l0.223,0.035l0.98,0.073l0.682,0.054
			l0.591,0.094l0.597,0.074l0.362-0.001l0.255-0.039l0.426-0.059l0.469-0.001l0.448,0.132l0.363,0.188l0.319,0.075l0.469-0.021
			l0.362-0.115l0.234-0.172l0.468-0.153l0.404-0.096l0.64-0.06l1.257,0.018l1.256-0.04l1.385-0.154l0.639-0.134l0.298-0.152
			l0.148-0.113l0.192-0.361l0.127-0.152l0.086-0.114l0.213-0.037l0.532,0.074l0.533,0.189l0.467,0.112l0.683,0.037l0.724-0.096
			l0.895-0.113l1.044-0.059l0.512-0.038l0.384-0.095l0.384-0.171l0.661-0.381l0.554-0.267l0.341-0.113l0.533,0.001l0.426,0.019
			l0.319,0.096l0.192,0.097l0.149,0.171l0.17,0.305l0.319,0.343l0.532,0.381l0.617,0.458l0.404,0.609l0.531,0.495l0.191,0.152v0.189
			l-0.022,0.19l-0.128,0.304v0.19l0.021,0.189l0.212,0.286l0.204,0.206l1.382,0.916l1.19,0.782l0.637,0.344l0.34,0.267l0.34,0.173
			l0.553,0.135l0.937,0.078l1.681,0.081l0.574-0.018l0.468,0.135l0.169,0.171l0.147,0.344l0.021,0.267l-0.001,0.343l-0.194,0.514
			l-0.428,0.664l-0.534,0.588l-0.214,0.531l0.021,0.268l0.042,0.076l0.106,0.038l0.17-0.02l0.448-0.341l0.299-0.266l0.267-0.457
			l0.429-0.816l0.259-0.95l0.086-0.397l0.001-0.229l-0.084-0.248l-0.233-0.324l-0.211-0.343l-0.084-0.267v-0.247l0.129-0.209
			l0.384-0.341l0.469-0.15l0.618-0.15l0.639-0.035l0.681-0.055l0.532-0.073l0.619-0.321l0.47-0.34l0.29-0.379l0.173-0.417
			l0.193-0.284l0.107-0.114l0.106,0.001l0.149,0.058l0.084,0.172l0.104,0.267l0.085,0.058l0.106-0.019l0.064-0.113l0.129-0.171
			l0.235-0.074l0.149-0.113l0.172-0.208l0.171-0.113l0.235-0.133l0.494-0.568l0.664-0.644l0.365-0.437l0.28-0.437l0.193-0.188
			l0.214-0.151l0.364-0.207l0.491-0.226l0.342-0.094l0.299-0.094l0.171-0.037l0.085-0.075l0.064-0.133l0.001-0.172l0.023-0.229
			l0.108-0.247l0.193-0.208l0.279-0.322l0.215-0.17l0.192-0.112l0.171-0.019l0.213,0.001l0.283,0.154l0.036,0.02l0.318,0.287
			l0.288,0.56l0.189,0.323l0.189,0.325l0.275,0.191l0.212,0.135l0.084,0.152l-0.024,0.476l0.061,0.362l0.169,0.189l0.402,0.25
			l0.382,0.231l0.169,0.172l0.04,0.21l0.019,0.361l0.082,0.476l0.146,0.27l0.317,0.323l0.104,0.211l-0.024,0.361l-0.09,0.57
			l-0.261,0.605l-0.044,0.171l0.042,0.152l0.131,0.17l0.444,0.25l1.609,0.867l1.906,0.926l0.762,0.501l0.611,0.575l0.42,0.422
			l0.359,0.174l0.467,0.1l0.381,0.155l0.189,0.19l0.252,0.287l0.359,0.079l0.49-0.016l0.726-0.26l0.938-0.411l1.152-0.606
			l0.898-0.524l1.094-0.675l1.136-0.73l1.394-0.882l1.115-0.635l1.116-0.73l1.995-1.141l0.363-0.109l0.256-0.018l0.171-0.055
			l0.237-0.169l0.387-0.3l0.193-0.112l0.148-0.036l0.17,0.039l0.148,0.059l0.582,0.562l0.481,0.538l0.207,0.479l0.121,0.496
			l0.013,0.646l0.121,0.496l0.438,0.557l0.372,0.728l0.242,0.84l-0.006,0.532l0.018,0.247l0.125,0.153l0.189,0.117l0.594,0.083
			l0.469,0.005l0.704-0.124l0.896-0.085l0.572,0.102l0.473,0.156l0.357,0.271l0.562,0.69l0.436,0.747l0.279,1.202l0.14,0.591
			l0.272,0.252l0.211,0.098l0.211,0.021l0.127,0.097l0.059,0.323l-0.004,0.248l0.145,0.269l0.188,0.174l0.272,0.192l0.274,0.1
			l0.422,0.195l0.189,0.099l0.147,0.002l0.299-0.072l0.405-0.107l0.405-0.109l0.404-0.032l0.641,0.049l0.078-0.419l0.104-0.874
			l0.103-1.014L107,99.442l0.147-0.597l0.306-0.457l0.532-0.914l0.882-1.127l0.682-0.902l0.687-0.895l0.972-1.366l1.027-1.626
			l0.572-0.789l0.684-1.205l0.459-0.631l0.516-0.683l0.633-0.788l0.572-0.894l0.514-0.891l0.455-0.943l0.281-0.889l0.109-0.521
			l0.049-0.835l0.047-0.821l-0.004-0.43l0.172-0.314l0.062-0.102l0.226-0.37l4.668-4.248l-0.095-0.115l-0.196-0.279l-0.285-0.647
			l-0.12-0.492l-0.128-0.309l0.015-0.396l0.19-0.574l0.228-0.604l0.188-0.544l0.236-0.879l0.305-0.876l0.428-0.446l1.266-0.88
			l0.426-0.416l0.15-0.361l0.053-0.487l-0.097-0.884l0.338-0.813l0.585-1.021l0.61-0.746l0.633-0.409l0.701-0.377l0.907-0.4
			l0.887-0.737l0.716-0.772l0.433-0.537l0.227-0.543l0.434-0.567l0.768-0.562l0.58-0.335l0.402-0.82l0.334-0.632l0.088-0.517
			l-0.031-1.009l-0.317-0.737l-0.323-0.559l-0.57-0.413l-0.307-0.102l-0.516-0.016l-0.18,0.147l-0.248,0.236l-0.28,0.114
			l-0.276,0.022l-0.205-0.037l-0.268-0.222l-0.417-0.837l-0.048-0.58l0.027-0.764l0.096-0.729l0.205-0.88l0.311-0.938l0.121-0.485
			l-0.148-0.676l-0.262-0.374l-0.404-0.256l-0.377-0.072l-0.486,0.078l-0.346,0.021l-0.479-0.136l-0.471-0.318l-0.026-0.245
			l0.049-0.396l0.267-0.695l0.482-0.934l0.191-0.514l0.742-1.438l0.348-1.029l0.384-0.699l0.461-0.65l0.347-0.354l0.197-0.438
			l0.284-0.617l0.366-0.616l0.458-0.323l0.702-0.456l0.427-0.43l0.971-0.966l0.49-0.834l0.46-1.075l0.581-0.644l0.888-1.021
			l0.338-0.699l0.246-0.754l0.123-0.457l0.246-0.482l0.491-0.699l0.124-0.563l0.221-2.153l-0.027-0.908l-0.063-0.055l-0.149-0.134
			l-0.215-0.001l-0.244,0.08l-0.185,0.27l-0.245,0.188l-0.307,0.188l-0.184,0.026l-0.427-0.082l-0.915-0.594l-0.305-0.323V25.88
			l0.124-0.646l0.187-0.969l0.215-0.861l0.248-0.752l0.152-0.242l0.307-0.322l0.368-0.025h0.521l0.429-0.133l0.123-0.297
			l0.247-0.807l0.188-0.834l0.368-0.592l0.462-0.859l0.559-0.936l0.154-0.484l0.098-1.318l0.216-0.592l0.248-0.727l0.28-1.346
			l0.004-0.834l-0.03-0.404l-0.151-0.377l-0.643-0.647l-0.273-0.513l-0.274-0.619l-0.274-0.701l-0.061-0.722l0.062-0.565
			l0.436-1.264l0.465-1.291l0.682-1.561l0.467-1.265L141.056,1.387"/>
	</g>
</g>
<g id="Layer_1">
</g>
</svg>
