<?xml version="1.0" encoding="iso-8859-1"?>
<!-- Generator: Adobe Illustrator 16.0.4, SVG Export Plug-In . SVG Version: 6.00 Build 0)  -->
<!DOCTYPE svg PUBLIC "-//W3C//DTD SVG 1.1//EN" "http://www.w3.org/Graphics/SVG/1.1/DTD/svg11.dtd">
<svg version="1.1" xmlns="http://www.w3.org/2000/svg" xmlns:xlink="http://www.w3.org/1999/xlink" x="0px" y="0px" width="59.95px"
	 height="44.141px" viewBox="0 0 59.95 44.141" style="enable-background:new 0 0 59.95 44.141;" xml:space="preserve">
<g id="Layer_56">
	<g id="Layer_61">
		<path id="DISTRICT_x3D_Sheikhupura_x2C_PROVINCE_x3D_Punjab" style="fill:#CCCCCC;stroke:#FFFFFF;stroke-width:1.07;" d="
			M4.937,43.732L4.937,43.732l0.104-0.088l0.137-0.115l0.09-0.08l0.107-0.064l0.101-0.04l0.13-0.021l0.099-0.01l0.112-0.031
			l0.142-0.057l0.106-0.063l0.097-0.099l0.071-0.045l0.11-0.026l0.095-0.022l0.104-0.052l0.092-0.062l0.068-0.129l0.022-0.102
			l0.024-0.202l0.021-0.121l0.027-0.112l0.059-0.162l0.089-0.145l0.082-0.031l0.129-0.06l0.145-0.019l0.147-0.029l0.13-0.065
			l0.058-0.069l0.023-0.076l-0.016-0.123l0.013-0.135l0.048-0.084l0.091-0.08l0.102-0.047l0.11-0.051l0.088-0.023l0.215-0.01
			l0.21-0.016l0.146-0.049l0.113-0.105l0.092-0.137l0.067-0.054l0.076-0.033l0.062-0.005l0.061,0.014l0.027,0.006l0.089,0.07
			l0.025,0.082l0.005,0.133l0.008,0.07l0.055,0.014h0.116l0.09-0.029l0.079-0.021l0.211,0.003l0.062-0.011l0.161-0.026l0.171-0.056
			l0.185-0.097l0.152-0.096l0.204-0.099l0.232-0.086l0.311-0.106l0.272-0.102l0.163-0.033l0.219,0.006l0.186,0.041l0.138,0.051
			l0.175,0.078l0.08,0.049l0.089,0.021l0.117,0.001l0.146-0.048l0.062-0.011l0.077,0.011l0.078,0.056l0.1,0.129l0.09,0.114
			l0.113,0.083l0.146,0.046l0.104,0.017l0.147-0.053l0.188-0.115l0.115-0.088l0.054-0.082l0.047-0.152l0.023-0.146l-0.013-0.203
			l0.013-0.154l0.015-0.123l0.056-0.168l0.099-0.174l0.063-0.092l0.112-0.082l0.128-0.059l0.152-0.041l0.168-0.068l0.114-0.088
			l0.113-0.062l0.191-0.052l0.167,0.007l0.148,0.015l0.123,0.028l0.115-0.112l0.101-0.109l0.027-0.094l0.028-0.068l0.033-0.037
			l0.042-0.016l0.085,0.057l0.09,0.064l0.089,0.045l0.052,0.023l0.114,0.007l0.104-0.046l0.171-0.081l0.174-0.11l0.2-0.188
			l0.174-0.206l0.117-0.144l0.058-0.164l0.061-0.125l0.126-0.123l0.074-0.051l0.077-0.015l0.097,0.046l0.111,0.133l0.112,0.114
			l0.083,0.088l0.078,0.03l0.098,0.016l0.13-0.039l0.22-0.115l0.229-0.129l0.132-0.097l0.066-0.073l0.024-0.082l-0.011-0.084
			l0.018-0.104l0.041-0.085l0.059-0.094l0.036-0.118l0.016-0.122l0.002-0.094l0.03-0.074l0.071-0.04l0.134-0.077l0.135-0.057
			l0.138-0.063l0.121-0.062l0.094-0.041l0.11-0.025l0.099-0.009l0.105,0.012l0.146-0.022l0.103-0.047l0.116-0.067l0.128-0.084
			l0.077-0.058l0.076-0.033l0.104-0.033l0.151,0.01l0.184-0.002l0.125-0.021l0.198-0.074l0.185-0.098l0.134-0.102l0.065-0.117
			l0.007-0.068l0.055-0.057l0.046-0.008l0.123,0.053l0.167,0.102l0.098,0.084l0.086,0.127l0.07,0.035l0.065,0.002l0.119-0.03
			l0.175-0.117l0.101-0.084l0.116-0.054l0.078-0.039l0.062-0.012l0.058,0.008l0.094,0.053l0.084,0.038l0.115,0.026l0.125-0.022
			l0.148-0.079l0.161-0.07l0.136-0.037l0.156-0.054l0.229-0.048l0.146-0.023l0.135-0.031l0.053-0.002l0.072,0.023l0.066,0.047
			l0.071,0.053l0.089,0.021l0.121-0.034l0.153-0.072l0.2-0.125l0.144-0.105l0.085-0.105l0.026-0.088l0.004-0.106l0.02-0.109
			l0.021-0.071l0.07-0.06l0.204-0.104l0.117-0.092l0.04-0.062l0.005-0.062l-0.029-0.096l-0.109-0.074l-0.196-0.121l-0.117-0.097
			l-0.07-0.104l-0.022-0.111l0.024-0.083l0.062-0.056l0.139-0.043l0.258-0.049l0.184-0.045l0.087-0.044l0.033-0.062l-0.001-0.094
			l0.051-0.064l0.089-0.023l0.099-0.06l0.084-0.082l0.062-0.101l0.054-0.057l0.073-0.046l0.099-0.034l0.196-0.035l0.203-0.017
			l0.281,0.015l0.225,0.014l0.203-0.018l0.18-0.035l0.158-0.082l0.177-0.117l0.16-0.114l0.176-0.117l0.047-0.06l0.092-0.079
			l0.14-0.024l0.184,0.004l0.145,0.033l0.18,0.061l0.073,0.047l0.103,0.023l0.147-0.023l0.077-0.038l0.066-0.073l0.037-0.098
			l0.057-0.063l0.077-0.032l0.172-0.012l0.312,0.025l0.105,0.012l0.022,0.012l-0.019-0.05l-0.036-0.112l-0.129-0.166l-0.244-0.295
			l-0.164-0.189l-0.127-0.191l-0.18-0.283l-0.106-0.229l-0.173-0.25l-0.105-0.155l-0.032-0.104l-0.004-0.123l0.019-0.049
			l0.045-0.066l0.053-0.028l0.074-0.028l0.131-0.031l0.109-0.031l0.063-0.02l0.076-0.033l0.045-0.049l0.016-0.043l0.113,0.047
			l0.278,0.134l0.27,0.092l0.083,0.013l0.096,0.004l0.133-0.035l0.255-0.092l0.243-0.093l0.146-0.046l0.107-0.025l0.145-0.004
			l0.143,0.006l0.192-0.023l0.062-0.048l0.027-0.081l-0.021-0.062l-0.039-0.145l-0.007-0.123l0.007-0.111l0.029-0.015l0.025-0.01
			l0.023-0.025l0.096-0.049l0.086-0.067l0.062-0.082l0.044-0.091l0.022-0.106l0.019-0.045l0.037-0.059l0.027-0.04l0.028-0.071
			l0.007-0.028l-0.02-0.038l-0.019-0.042l-0.029-0.013l-0.034-0.012l-0.068,0.016l-0.203,0.037l-0.156,0.007l-0.041-0.017
			l-0.031-0.033l-0.027-0.07l-0.01-0.092l0.02-0.035l0.038-0.04l0.059-0.062l0.033-0.068l0.013-0.063l-0.008-0.063L33.32,27.3
			l0.026-0.028l0.062-0.018l0.048-0.029l0.036-0.026l0.03-0.026l0.015-0.035l-0.004-0.074l-0.004-0.054l0.016-0.038l0.016-0.016
			l0.064-0.018l0.122-0.019l0.062-0.017l0.025-0.033l0.063-0.098l0.031-0.101l0.025-0.075l0.034-0.041l0.03-0.029l0.057-0.029
			l0.03-0.047l0.024-0.068l0.013-0.062l0.033-0.068l0.034-0.044l0.093-0.046l0.108-0.036l0.207-0.022l0.236-0.011l0.156-0.01
			l0.076-0.028l0.088-0.057l0.122-0.082l0.056-0.031l0.059-0.002l0.046,0.01l0.021,0.029l0.003,0.039l-0.013,0.061l-0.062,0.114
			l-0.021,0.072l0.011,0.118l0.033,0.084l0.048,0.061l0.054,0.051l0.029,0.03l0.008,0.05l0.002,0.031l-0.021,0.043l-0.031,0.029
			l-0.058,0.006l-0.042-0.016l-0.054-0.08l-0.044-0.055l-0.052-0.008l-0.039,0.016l-0.03,0.052l-0.021,0.116l0.03,0.098l0.087,0.078
			l0.098,0.066L35.499,27l0.103,0.01l0.058-0.017l0.032-0.026l0.03-0.029l0.091-0.074l0.039-0.026l0.05-0.002l0.062,0.008
			l0.021-0.015l0.034-0.096l0.006-0.061l-0.003-0.039l-0.03-0.047l-0.03-0.038l-0.005-0.067l0.006-0.053l0.014-0.043l0.032-0.02
			l0.043-0.029l0.076-0.042l0.067-0.09l0.054-0.101l0.051-0.168l0.036-0.082l0.068-0.092l0.044-0.033l0.072-0.017l0.155-0.015
			l0.081-0.017l0.162-0.034l0.154-0.039l0.061-0.023l0.035-0.033l0.03-0.047l0.028-0.055l0.047-0.051l0.039-0.029l0.058-0.018
			l0.078-0.017l0.051-0.03l0.072-0.045l0.062-0.055l0.085-0.1l0.057-0.097l0.018-0.05l-0.001-0.023l-0.017-0.017l-0.043-0.021
			l-0.097-0.026l-0.055-0.029L37.523,24.8l-0.022-0.026l-0.01-0.039l0.01-0.037l0.062-0.072l0.089-0.105l0.073-0.076l0.064-0.094
			l0.029-0.059l0.028-0.072l0.013-0.095l0.02-0.089l0.021-0.092l-0.003-0.045l-0.016-0.043l-0.019-0.033l-0.057-0.047l-0.093-0.053
			l-0.04-0.052l-0.032-0.062l-0.012-0.057l0.001-0.049l0.011-0.036l0.047-0.051l0.049-0.022l0.049-0.002l0.096,0.014l0.133,0.016
			l0.11-0.008l0.101-0.032l0.076-0.049l0.086-0.084l0.022-0.036l0.009-0.057l-0.008-0.074l-0.015-0.08l-0.016-0.063l-0.001-0.024
			l0.012-0.022l0.02-0.025l0.057-0.023l0.113-0.037l0.06-0.038l0.026-0.029l0.011-0.039l-0.011-0.042l-0.053-0.062l-0.049-0.058
			l-0.034-0.055l-0.001-0.031l0.014-0.04l0.035-0.037l0.049-0.02l0.09,0.003l0.114-0.019l0.084-0.042l0.096-0.06l0.062-0.08
			l0.025-0.046l0.001-0.057l0.006-0.046l0.007-0.025l0.026-0.029l0.027-0.026l0.035-0.047l0.007-0.025l-0.007-0.028l-0.029-0.026
			l-0.002-0.032l0.015-0.029l0.032-0.019l0.064-0.013l0.117-0.033l0.077-0.021l0.061-0.034l0.059-0.058l0.015-0.043l0.019-0.05
			l0.014-0.046l0.035-0.037l0.048-0.019l0.079,0.007l0.054,0.012l0.041-0.001l0.023-0.022l0.033-0.032l0.014-0.043l0.014-0.053
			l0.016-0.025l0.061-0.02l0.046,0.002l0.072,0.039l0.076,0.04l0.064-0.003l0.031-0.025l0.038-0.062l0.051-0.122l0.047-0.069
			l0.009-0.067l-0.004-0.063l-0.017-0.059l-0.036-0.055l-0.061-0.064l-0.032-0.055l-0.023-0.083l-0.018-0.066l0.018-0.071
			l0.021-0.061l0.03-0.047l0.136-0.15l0.073-0.091l0.021-0.05l0.002-0.024l0.004-0.021l-0.041-0.072l-0.036-0.08l-0.096-0.141
			l-0.138-0.17l-0.115-0.154L40.12,19.26l-0.016-0.052l0.003-0.035l0.019-0.032l0.049-0.027l0.044-0.005l0.125,0.03l0.18,0.021
			l0.187,0.024h0.087l0.063-0.031l0.035-0.033l0.029-0.054l0.02-0.07l0.005-0.124l0.008-0.081l0.031-0.04l0.044-0.026l0.048-0.034
			l0.106-0.057l0.048-0.033l0.04-0.03l0.047-0.054l0.021-0.05l0.007-0.042l-0.012-0.045l-0.014-0.034l-0.04-0.055l-0.032-0.056
			l-0.014-0.038l0.012-0.068l0.026-0.057l0.03-0.026l0.062-0.03l0.101-0.036l0.068-0.031l0.052-0.037l0.064-0.062l0.062-0.076
			l0.099-0.089l0.051-0.047l0.043-0.037l0.02-0.036l0.021-0.068l0.023-0.085l0.021-0.085l0.018-0.057l0.031-0.043l0.051-0.051
			l0.304-0.255l0.08-0.052l0.053-0.013l0.033,0.002l0.042,0.012l0.054-0.002l0.035-0.029l0.043-0.041l0.079-0.063l0.052-0.041
			l0.048-0.02l0.054-0.002l0.051,0.012l0.07,0.025l0.123,0.059l0.131,0.132l0.066,0.118l0.03,0.101l0.021,0.186l0.014,0.239
			l0.021,0.168l0.04,0.051l0.056,0.037l0.083,0.021l0.129,0.005l0.104,0.021l0.051,0.016l0.086-0.004l0.058-0.026l0.056-0.037
			l0.067-0.045l0.003-0.009l0.01-0.032l0.028-0.091l0.036-0.094l0.022-0.042l0.04-0.058l0.026-0.028l0.057-0.025l0.034-0.019
			l0.065-0.023l0.042-0.01l0.057-0.022l0.026-0.019l0.021-0.021l0.029-0.049l0.017-0.045l0.003-0.033l-0.007-0.021l-0.026-0.032
			l-0.051-0.038l-0.05-0.022l-0.063-0.008l-0.062-0.011l-0.035-0.008l-0.009-0.021l-0.005-0.024l0.024-0.025l0.044-0.034
			l0.038-0.019l0.035-0.004l0.043-0.004l0.041-0.004l0.018-0.009l0.021-0.019l0.026-0.028l0.021-0.021l0.024-0.01h0.027l0.019,0.012
			l0.019,0.023l0.002,0.057l-0.007,0.105l0.001,0.039l0.005,0.037l0.035,0.02l0.012,0.032l0.001,0.021l-0.021,0.066l-0.006,0.03
			l0.019,0.03l0.063,0.011l0.042-0.001l0.047-0.016l0.052-0.055l0.04-0.052l0.022-0.037l0.019-0.019l0.034-0.016h0.021l0.042-0.001
			l0.035-0.013l0.013-0.024l0.006-0.027l-0.001-0.036l0.008-0.036l0.016-0.031l0.021-0.021l0.047-0.013l0.06-0.007l0.049-0.01
			l0.024-0.016l0.021-0.024l0.006-0.027l0.003-0.033l0.014-0.016h0.021h0.024l0.039,0.017l0.016,0.033l0.017,0.045l0.012,0.048
			l0.064,0.059l0.104,0.063l0.086,0.067l0.059,0.047l0.021,0.06l0.002,0.061l-0.003,0.039l-0.009,0.045l0.015,0.036l0.053,0.049
			l0.075,0.046l0.089,0.025l0.058,0.002l0.119-0.009l0.092,0.003l0.027,0.015l0.022,0.039l0.034,0.062l0.024,0.051l0.036,0.022
			h0.039l0.042-0.007l0.034-0.028l0.042-0.022l0.035-0.001l0.026,0.012l0.033,0.029l0.022,0.039l0.007,0.09l0.016,0.087l0.053,0.056
			l0.054,0.038l0.068,0.022l0.092,0.004l0.08-0.002l0.053-0.007l0.039-0.02l0.025-0.021l0.018-0.037v-0.024l-0.016-0.032
			l-0.022-0.03l-0.036-0.035l-0.012-0.033v-0.03l0.02-0.034l0.021-0.021l0.045-0.028l0.062-0.013l0.111-0.039l0.058-0.024
			l0.062-0.046l0.047-0.047l0.055-0.085l0.084-0.128l0.084-0.107l0.065-0.062l0.067-0.071l0.069-0.041l0.076-0.02l0.123-0.012
			l0.134-0.003l0.13-0.021l0.076-0.026l0.066-0.032l0.037-0.037l0.072-0.149l0.019-0.106v-0.03l-0.016-0.029l-0.05-0.017
			l-0.082-0.01l-0.147-0.021l-0.075-0.034l-0.071-0.053l-0.044-0.047l-0.02-0.065v-0.1l-0.001-0.033l-0.02-0.021l-0.021-0.011
			l-0.109-0.01l-0.07,0.001l-0.031-0.023L48.183,16l0.003-0.051l0.045-0.052l0.089-0.08l0.12-0.09l0.076-0.034l0.038-0.01
			l0.043,0.005l0.021,0.014l0.016,0.048l0.006,0.087l0.017,0.048l0.029,0.026l0.034,0.018l0.067,0.02l0.11,0.003l0.106-0.018
			l0.091-0.05l0.085-0.071l0.111-0.189l0.043-0.07l0.038-0.031l0.066-0.017l0.079-0.006l0.136-0.048l0.144-0.057l0.158-0.082
			l0.093-0.101l0.095-0.12l0.068-0.085l0.043-0.064l0.045-0.031l0.074-0.014l0.081-0.001l0.085,0.001l1.235-0.278l0.036-0.762
			l-0.005-0.107l-0.014-0.417l-0.024-0.256l0.145-0.064l0.203,0.017l0.33,0.188l0.011,0.006l0.33,0.033l0.159-0.064l0.021-0.228
			l-0.182-0.258l-0.04-0.193l-0.029-0.145l-0.085-0.364l0.091-0.492l0.059-0.311l0.008-0.309l0.007-0.241l0.083-0.146l0.597,0.025
			l0.291,0.026l0.087,0.008l0.087-0.032l0.151-0.057l0.088-0.139l0.041-0.064l0.004-0.133l0.161-0.319l0.054-0.104l0.091-0.076
			l0.265-0.22l1.243-0.551l0.111-0.083l0.678-0.507l0.26-0.263l0.109-0.109l1.28-1.006l0.314-0.202l0.406-0.262l-0.109-0.158
			l-0.021-0.217l-0.033-0.231L58.999,5.76L58.86,5.739l-0.204-0.008L58.489,5.7l-0.034-0.041l-0.023-0.072L58.41,5.483l-0.057-0.169
			l-0.051-0.113l-0.096-0.115l-0.135-0.101l-0.136-0.077L57.75,4.734l-0.023-0.072l0.006-0.103l-0.031-0.104l-0.033-0.089
			l-0.119-0.028l-0.132,0.019l-0.235,0.038l-0.12,0.003l-0.093-0.02l-0.044-0.057l-0.014-0.088l-0.065-0.24l-0.033-0.065
			l-0.055-0.034l-0.062-0.042l-0.091-0.036l-0.056-0.042l-0.062-0.05l-0.035-0.057l-0.065-0.161l-0.064-0.17l-0.046-0.184
			l-0.021-0.128L56.24,2.936l-0.018-0.04l-0.035-0.018l-0.092-0.035l-0.071-0.042l-0.117-0.076L55.84,2.588L55.8,2.467l-0.021-0.104
			l-0.061-0.098l-0.08-0.09l-0.079-0.066l-0.092-0.036l-0.12-0.028L55.22,1.984l-0.105-0.107L55.056,1.74l-0.062-0.209l-0.022-0.096
			L54.924,1.01l-0.064-0.177L54.79,0.728l-0.078-0.106l-0.146-0.061L54.4,0.539L54.22,0.564L54.07,0.613L53.903,0.75l-0.126,0.09
			l-0.1,0.115l-0.093,0.164l-0.083,0.147l-0.078,0.068l-0.138,0.138L53.13,1.601l-0.242,0.181L52.658,1.9l-0.239,0.118L52.19,2.104
			l-0.146,0.082l-0.068,0.068l-0.042,0.102l0.002,0.135l-0.018,0.142l-0.044,0.133l-0.078,0.068L51.71,2.887l-0.076,0.028
			l-0.132,0.027l-0.177-0.007l-0.316-0.012l-0.297-0.036l-0.141,0.019l-0.229,0.079l-0.15,0.042L50.04,3.076l-0.078,0.077
			L49.937,3.23l-0.022,0.079l0.024,0.057L50,3.439l0.042,0.081l0.031,0.113l0.005,0.095l-0.023,0.086L50.023,3.9l-0.041,0.07
			l-0.043,0.102l-0.032,0.094l-0.053,0.109l-0.07,0.092l-0.096,0.06l-0.137,0.09l-0.093,0.005l-0.094,0.004l-0.129-0.028
			L49.05,4.475l-0.159,0.034l-0.198,0.056l-0.115,0.067l-0.106,0.083l-0.098,0.092l-0.052,0.085l0.007,0.048l0.064,0.019
			l0.024,0.048l-0.021,0.047l-0.098,0.083l-0.209,0.08l-0.222,0.134l-0.129,0.138L47.65,5.596L47.56,5.72l-0.202,0.23L47.17,6.133
			l-0.098,0.083l-0.116,0.091l-0.06,0.069l-0.042,0.102L46.84,6.557l-0.042,0.078L46.723,6.68L46.59,6.699h-0.193h-0.226
			l-0.074,0.028L45.99,6.795l-0.05,0.062l-0.06,0.062l-0.03,0.054l-0.067,0.053l-0.131,0.011l-0.04,0.039l-0.03,0.062l-0.003,0.047
			l-0.034,0.118l-0.061,0.093l-0.08,0.108l-0.069,0.084L45.238,7.68l-0.069,0.069l-0.181,0.073L44.811,7.84L44.55,7.838
			l-0.225,0.016l-0.166-0.03l-0.082-0.043L43.95,7.713L43.78,7.58l-0.144-0.108l-0.09-0.059L43.382,7.37l-0.084-0.003l-0.065,0.014
			l-0.077,0.053L43.067,7.51l-0.09,0.124L42.868,7.78l-0.062,0.117l-0.077,0.061l-0.075,0.021l-0.065-0.002L42.517,7.95
			l-0.053-0.065l-0.073-0.01l-0.13-0.005l-0.143,0.035l-0.122,0.02l-0.085,0.013l-0.093-0.004l-0.117-0.06l-0.145-0.108l-0.127-0.06
			l-0.12-0.013l-0.095,0.013l-0.144,0.066l-0.209,0.095l-0.17,0.057l-0.217,0.032l-0.243,0.031l-0.214-0.008l-0.224-0.016
			l-0.137-0.052l-0.137-0.068L39.395,7.79l-0.168-0.006L39.067,7.81l-0.144,0.018l-0.161,0.074l-0.137,0.114l-0.215,0.207
			l-0.109,0.139l-0.06,0.077l0.023,0.072l0.054,0.042l0.054,0.073l0.031,0.088L38.41,8.81l-0.075,0.203l-0.108,0.124l-0.085,0.044
			l-0.119,0.065l-0.164,0.023l-0.122-0.004l-0.168-0.029L37.4,9.195l-0.113-0.021l-0.123,0.001l-0.057,0.027l-0.043,0.056
			l-0.018,0.086l-0.016,0.15L37.01,9.679l-0.02,0.098L36.92,9.85l-0.099,0.054l-0.15,0.035l-0.188,0.063l-0.233,0.084l-0.086,0.066
			l-0.138,0.181l-0.087,0.101l-0.092,0.078l-0.124,0.042l-0.161,0.011l-0.479-0.017l-0.184-0.031l-0.261-0.058l-0.331-0.063
			l-0.06,0.069l-0.12,0.053l-0.093,0.01l-0.102-0.026l-0.104-0.037l-0.088-0.023l-0.061,0.01l-0.035,0.012l-0.042,0.039l-0.081,0.03
			l-0.114,0.02l-0.147-0.035l-0.104-0.068l-0.13-0.092l-0.146-0.066l-0.125-0.022l-0.075,0.002l-0.104-0.01l-0.091-0.06
			l-0.088-0.082l-0.085-0.147l-0.082-0.11L32.11,9.776l-0.104-0.042l-0.162-0.016l-0.217-0.006l-0.113,0.025l-0.032,0.026
			l-0.001,0.049l0.029,0.097l-0.003,0.07l-0.045,0.051l-0.104,0.049l-0.091,0.016l-0.099-0.016l-0.088-0.027h-0.07l-0.102,0.015
			l-0.268,0.05l-0.361,0.023l-0.205-0.019l-0.115-0.007l-0.249,0.015l-0.173-0.014l-0.157-0.049l-0.047-0.04l-0.008-0.059
			L29.34,9.83V9.642L29.328,9.51l0.016-0.094l0.007-0.082l0.032-0.075l0.014-0.051l-0.009-0.041l-0.026-0.028h-0.088l-0.141,0.023
			l-0.235,0.045l-0.29,0.028l-0.096,0.021l-0.068,0.033l-0.041,0.044l-0.021,0.09l-0.061,0.15l-0.104,0.152l-0.116,0.154
			l-0.068,0.055l-0.062,0.01L27.88,9.933l-0.087-0.072l-0.046-0.062l-0.058-0.028l-0.193-0.048l-0.3-0.067l-0.229-0.045
			l-0.121-0.033L26.62,9.562l-0.15,0.031l-0.206,0.062l-0.189,0.022l-0.087-0.018l-0.056-0.018l-0.103-0.09l-0.136-0.117
			L25.54,9.315L25.449,9.25l-0.071-0.004L25.32,9.267l-0.033,0.022l-0.061,0.016l-0.035-0.016l-0.002-0.038l0.013-0.056l0.062-0.118
			l0.067-0.249l0.058-0.241l0.016-0.181l-0.009-0.09L25.374,8.25l-0.062-0.076l-0.176-0.212L25.042,7.86l-0.168-0.203l-0.12-0.109
			l-0.18-0.12L24.402,7.29l-0.181-0.12L24.11,7.066l-0.069-0.107l-0.057-0.13l-0.017-0.067l0.003-0.017l0.041-0.013h0.031
			l0.066-0.016l0.058-0.021l0.146-0.057l0.066-0.039l0.105-0.061l0.081-0.057l0.051-0.057l0.021-0.063l0.107-0.083l0.152-0.102
			l0.098-0.049l0.102-0.076l0.041-0.04l0.048-0.067l0.047-0.094l0.047-0.126l0.015-0.158l0.013-0.11l0.016-0.04l0.058-0.053
			l0.038-0.028l0.019-0.052l-0.019-0.056L25.386,5.2l-0.055,0.009l-0.079,0.04l-0.124,0.092l-0.085,0.041l-0.074,0.007l-0.067-0.016
			l-0.066-0.047l-0.112-0.073l-0.098-0.069l-0.123-0.065l-0.104-0.068l-0.107-0.03l-0.173-0.036l-0.394-0.03l-0.21-0.007
			l-0.162-0.043l-0.104-0.041l-0.082-0.078l-0.082-0.109l-0.067-0.124l-0.061-0.091l-0.033-0.059l-0.115-0.169l-0.086-0.066
			l-0.097-0.091l-0.155-0.07l-0.067-0.042l-0.031-0.059l-0.072-0.063l-0.087-0.071L22.2,3.747L22.197,3.75l-0.184,0.133
			l-0.197,0.164L21.685,4.14l-0.168,0.089l-0.178,0.059l-0.281,0.104L20.86,4.495l-0.219,0.146l-0.121,0.102l-0.086,0.105
			l-0.09,0.154l-0.115,0.15l-0.077,0.091l-0.085,0.105l-0.04,0.092l-0.023,0.118L19.97,5.632l-0.051,0.044l-0.091,0.027l-0.14,0.006
			l-0.061,0.035l-0.03,0.04L19.559,5.91l-0.038,0.162l-0.034,0.131l-0.074,0.114L19.31,6.371l-0.076,0.04l-0.075,0.027l-0.066,0.001
			L19.04,6.418l-0.077-0.043l-0.139-0.063l-0.1-0.034l-0.051,0.001l-0.03,0.018l-0.028,0.042l-0.054,0.136l-0.068,0.188
			l-0.108,0.193L18.34,6.991L18.219,7.11l-0.121,0.106L17.91,7.305l-0.193,0.063l-0.076,0.049L17.565,7.5l-0.11,0.08L17.23,7.648
			l-0.147,0.015l-0.138-0.009l-0.164-0.029l-0.153-0.029l-0.262-0.01l-0.251,0.007L16.003,7.62l-0.111,0.062l-0.096,0.093
			l-0.074,0.136l-0.104,0.224l-0.056,0.101l-0.029,0.018l-0.067,0.005l-0.107-0.06l-0.062-0.073L15.27,8.074l-0.036-0.026
			l-0.098-0.029L15.049,8.02l-0.066,0.01l-0.116,0.036L14.79,8.084l-0.107,0.015l-0.153,0.006l-0.122,0.01L14.36,8.12l-0.086,0.027
			L14.24,8.161l-0.062,0.031l-0.046,0.031l-0.04,0.04l-0.015,0.088l-0.063,0.021l-0.082,0.047l-0.105,0.065l-0.103,0.031
			l-0.142,0.021l-0.104,0.001l-0.047-0.006l-0.068-0.043l-0.066-0.066l-0.052-0.03l-0.079-0.039L13.051,8.27L12.84,8.11
			l-0.135-0.113l-0.088-0.063l-0.083-0.023L12.46,7.908l-0.091,0.015L12.313,7.95l-0.06,0.038l-0.043,0.044l-0.019,0.07
			l-0.039,0.054L12.092,8.22l-0.059,0.034l-0.088,0.017l-0.043,0.017L11.88,8.316l0.001,0.037l0.016,0.03l0.052,0.037l0.079,0.073
			l0.032,0.054l0.013,0.067l-0.007,0.064l-0.017,0.086l-0.038,0.098l-0.02,0.134l-0.018,0.138l-0.065,0.188l-0.074,0.206
			l-0.062,0.119l-0.09,0.098l-0.117,0.082l-0.102,0.051l-0.09,0.047l-0.029,0.024l-0.039,0.074l-0.072,0.175l-0.059,0.098
			l-0.056,0.067l-0.078,0.048l-0.086,0.038l-0.09,0.018l-0.062,0.014l-0.079,0.038l-0.089,0.082l-0.138,0.152l-0.175,0.196
			l-0.064,0.048l-0.049,0.01l-0.031-0.006l-0.043-0.026l-0.101-0.066l-0.241-0.143l-0.198-0.115l-0.184-0.096L9.233,10.49
			l-0.097-0.042L9.08,10.412l-0.035-0.043l-0.049-0.053l-0.023-0.057l-0.04-0.047l-0.047-0.03l-0.101-0.029l-0.13-0.036
			l-0.131-0.042l-0.182-0.062L8.255,9.964l-0.036-0.03L8.18,9.874L8.139,9.787l-0.04-0.061L8.051,9.693L7.987,9.68h-0.06
			L7.861,9.694L7.815,9.755L7.797,9.846L7.787,9.98L7.8,10.078l-0.019,0.046l-0.068,0.078l-0.07,0.104l-0.08,0.189l-0.08,0.219
			l-0.076,0.192L7.33,11.01l-0.113,0.089l-0.146,0.052l-0.188,0.045l-0.213,0.019l-0.166-0.012l-0.148-0.028L6.27,11.149
			l-0.146-0.065l-0.063-0.037l-0.052-0.039l-0.036-0.061l-0.014-0.063l-0.044-0.083l-0.049-0.06l-0.056-0.063l-0.136-0.096
			l-0.11-0.036l-0.109-0.02l-0.088,0.018l-0.059,0.061l-0.112,0.108l-0.05,0.142l-0.023,0.138L5.136,11.1l0.017,0.087l-0.004,0.037
			l-0.015,0.03l-0.078,0.041l-0.228,0.073l-0.299,0.07l-0.195,0.029l-0.099,0.005l-0.11-0.005l-0.062,0.01l-0.047,0.024L3.906,11.58
			l-0.104,0.068l-0.152,0.056l-0.117,0.025L3.414,11.73l-0.091-0.013l-0.066-0.03l-0.076-0.036l-0.087-0.056l-0.166-0.062
			l-0.119-0.049L2.74,11.418l-0.051-0.017l-0.027,0.007l-0.016,0.04l-0.003,0.051l-0.03,0.081l-0.059,0.085l-0.077,0.054
			l-0.095,0.045l-0.046,0.031l-0.031,0.034L2.279,11.89l-0.019,0.131l0.009,0.151l0.003,0.178L2.27,12.441l-0.019,0.064
			l-0.003,0.101l-0.013,0.038L2.21,12.671l-0.078,0.028l-0.204,0.046l-0.256,0.036L1.58,12.782L1.468,12.81l-0.153,0.032
			l-0.322,0.013L0.87,12.86l0.188,0.356l-0.034,0.24l-0.006,0.049l-0.026,0.031l-0.047,0.052l-0.08,0.062l-0.083,0.043l-0.067,0.069
			l-0.026,0.049l-0.006,0.045l0.02,0.036l0.046,0.049l0.027,0.018l0.144,0.035l0.168,0.039l0.149,0.053l0.159,0.049l0.15,0.053
			l0.122,0.056l0.077,0.034l0.035,0.019l0.094,0.069l0.08,0.065l0.052,0.061l0.087,0.107l0.067,0.093l0.039,0.054l0.044,0.046
			l0.061,0.047l0.053,0.012h0.046l0.074-0.026l0.151-0.081l0.133-0.067l0.188-0.048l0.148-0.021l0.051-0.006l0.09,0.009l0.091,0.006
			l0.085,0.003h0.124l0.173,0.004l0.077,0.027l0.049,0.029l0.027,0.032l0.02,0.043l0.006,0.049l-0.018,0.049l-0.005,0.038
			l-0.007,0.046l0.012,0.039l0.016,0.046l-0.002,0.032l-0.001,0.042l-0.011,0.073l-0.002,0.078l0.013,0.106l0.03,0.095l0.034,0.092
			l0.05,0.1l0.083,0.125l0.07,0.089l0.057,0.079l0.04,0.046l0.025,0.057l0.021,0.05l0.001,0.066l-0.019,0.07L4.213,16.29
			l-0.068,0.093l-0.031,0.069l-0.01,0.056l-0.002,0.046l0.022,0.064l0.052,0.047l0.049,0.026l0.078,0.001l0.106,0.017l0.134,0.042
			l0.166,0.057l-0.42,0.455l0.363,0.1l0.206,0.068l0.211,0.05l0.177,0.067l0.173,0.075l0.178,0.083l0.21,0.111l0.16,0.079
			l0.161,0.061l0.234,0.082l0.193,0.076l0.26,0.076l0.183,0.075l0.106,0.05l0.072,0.045l0.074,0.061l0.094,0.106l0.111,0.125
			l0.102,0.124l0.115,0.132l0.037,0.067l0.016,0.092l0.011,0.163l0.003,0.18l-0.002,0.162l-0.012,0.071l-0.031,0.127L7.678,19.87
			l-0.005,0.092L7.671,20.11l-0.014,0.127L7.64,20.343l-0.009,0.099l-0.025,0.091l-0.039,0.092l-0.029,0.106l-0.051,0.208
			l-0.024,0.074l-0.01,0.05l0.009,0.049l0.021,0.05l0.049,0.036l0.091,0.043l0.17,0.029l0.234,0.033L8.1,21.314l0.054,0.029
			l0.008,0.053l0.009,0.057v0.042L8.151,21.53l-0.033,0.021l-0.058,0.042l-0.055,0.031l-0.029,0.053l-0.046,0.092l-0.021,0.06
			l0.005,0.042l0.027,0.032l0.046,0.032l0.097,0.021l0.074,0.007l0.078,0.004l0.104,0.001l0.062-0.007l0.091,0.004l0.148,0.04
			l0.12,0.036l0.057,0.039l0.041,0.064l0.032,0.067l0.021,0.061l0.004,0.049L8.91,22.363L8.89,22.44l-0.047,0.117l-0.029,0.088
			l-0.01,0.082l-0.013,0.116l0.008,0.091l0.022,0.173l-0.048,0.23l-0.058,0.137l0.021,0.043l0.038,0.029l0.041,0.051l0.03,0.068
			l0.008,0.072l0.009,0.115l0.054,0.164l-0.003,0.08l-0.019,0.059l-0.072,0.092l-0.104,0.076l-0.258,0.125l-0.288,0.125
			l-0.101,0.054L8.009,24.66l-0.045,0.059l-0.032,0.108l-0.008,0.112l0.064,0.096l0.068,0.084l0.19,0.123l0.199,0.092L8.62,25.43
			l0.179,0.121l0.171,0.188l0.233,0.203l0.205,0.254l0.204,0.252l0.148,0.218l0.04,0.09l0.104,0.093l0.309,0.139l0.193,0.066
			l0.192,0.031l0.209-0.021l0.136-0.051l0.255-0.127l0.234-0.154l0.242-0.176l0.173-0.168l0.232-0.145l0.193-0.151l0.197-0.117
			l0.143-0.071l0.13-0.027l0.154,0.023l0.282,0.121l0.342,0.158l0.214,0.049l0.215-0.045l0.156-0.113l0.261-0.148l0.248-0.105
			l0.171-0.076l0.175-0.041l0.113,0.025l0.094,0.09l0.098-0.012l0.175-0.087l0.156-0.114l0.131-0.027l0.16,0.002l0.125,0.074
			l0.118,0.096l0.084,0.123l0.005,0.07l-0.03,0.143l-0.04,0.129l0.032,0.156l0.093,0.183l0.077,0.099l0.163,0.082l0.118,0.096
			l0.143,0.147l0.073,0.155l-0.008,0.113l-0.055,0.045l-0.1,0.059l-0.028,0.051l-0.021,0.111l0.049,0.148l0.174,0.352l0.1,0.206
			l0.044,0.206l0.011,0.141l-0.003,0.042l-0.031,0.044l-0.098,0.049l-0.029,0.043l-0.024,0.08l-0.033,0.107l-0.038,0.098
			l-0.027,0.037l-0.151,0.116l-0.114,0.074l-0.103,0.112l-0.068,0.092l-0.046,0.097l-0.025,0.108l-0.01,0.141l-0.009,0.162
			l0.018,0.132l0.043,0.131l0.11,0.183l0.102,0.129l0.121,0.121l0.052,0.076l0.016,0.061l-0.022,0.072l-0.104,0.099l-0.099,0.104
			l-0.072,0.098l-0.067,0.141l-0.089,0.236l-0.086,0.252l-0.075,0.189l-0.062,0.094l-0.081,0.074l-0.054,0.065l-0.057,0.158
			l-0.047,0.261l-0.024,0.1l-0.062,0.101l-0.097,0.121l-0.161,0.12l-0.362,0.261l-0.267,0.188l-0.154,0.101l-0.12,0.036
			l-0.066,0.029l-0.058,0.051l-0.126,0.143l-0.179,0.174l-0.108,0.083l-0.129,0.013l-0.132-0.029l-0.12-0.014L13.5,34.174
			l-0.053,0.088l-0.077,0.062l-0.166-0.002l-0.071,0.019l-0.067,0.056l-0.003,0.121l0.057,0.113l0.049,0.089l-0.007,0.062
			l-0.016,0.055l-0.037,0.042l-0.062,0.042l-0.07,0.013l-0.096-0.015l-0.188-0.035l-0.157-0.028l-0.071-0.009l-0.031,0.021
			l-0.021,0.066l-0.061,0.172l-0.043,0.141l-0.05,0.082l-0.091,0.08l-0.082,0.131l-0.078,0.146L11.94,35.82l-0.106,0.133
			l-0.232,0.189l-0.149,0.109l-0.148,0.08l-0.169,0.062l-0.122,0.022l-0.096,0.014l-0.077,0.033l-0.058,0.051l-0.061,0.144
			l-0.049,0.095l-0.042,0.083l-0.051,0.053l-0.096,0.042l-0.161,0.035h-0.156l-0.134-0.001l-0.066-0.021l-0.015-0.039l-0.021-0.041
			l-0.033-0.029l-0.106-0.002l-0.083,0.002l-0.113-0.012l-0.079-0.039l-0.05-0.082L9.445,36.66l-0.03-0.008l-0.068,0.035
			L9.28,36.794l-0.115,0.137L9.061,37l-0.125,0.058l-0.129,0.015l-0.16-0.022l-0.186-0.015l-0.138,0.013l-0.126,0.086l-0.203,0.153
			l-0.165,0.104l-0.187,0.144l-0.134,0.113l-0.121,0.15l-0.099,0.135l-0.158,0.27l-0.145,0.253l-0.121,0.235l-0.081,0.16
			l-0.044,0.17l0.003,0.101l0.058,0.056l0.189,0.057l0.088,0.099l0.048,0.139l-0.015,0.21l-0.025,0.116L7.029,39.9l-0.087,0.037
			l-0.101,0.034L6.755,39.98l-0.067,0.006l-0.104,0.019L6.51,40.053l-0.077,0.118l-0.085,0.116l-0.062,0.1l-0.063,0.042
			l-0.115,0.054l-0.207,0.082l-0.202,0.09l-0.161,0.099l-0.164,0.104l-0.055,0.066l-0.023,0.081l-0.009,0.112l0.047,0.089
			l0.066,0.079l0.042,0.08l0.009,0.053l-0.01,0.062l-0.044,0.062l-0.088,0.044l-0.11,0.089l-0.104,0.104l-0.06,0.108l-0.03,0.078
			l-0.037,0.149L5,42.193l0.067,0.102l0.063,0.093l0.027,0.099l-0.029,0.102l-0.066,0.135l-0.061,0.172l-0.035,0.198l-0.036,0.255
			l-0.006,0.184L4.937,43.732"/>
	</g>
</g>
<g id="Layer_1">
</g>
</svg>
