<?xml version="1.0" encoding="iso-8859-1"?>
<!-- Generator: Adobe Illustrator 16.0.4, SVG Export Plug-In . SVG Version: 6.00 Build 0)  -->
<!DOCTYPE svg PUBLIC "-//W3C//DTD SVG 1.1//EN" "http://www.w3.org/Graphics/SVG/1.1/DTD/svg11.dtd">
<svg version="1.1" xmlns="http://www.w3.org/2000/svg" xmlns:xlink="http://www.w3.org/1999/xlink" x="0px" y="0px"
	 width="33.348px" height="35.041px" viewBox="0 0 33.348 35.041" style="enable-background:new 0 0 33.348 35.041;"
	 xml:space="preserve">
<g id="Layer_91">
	<g id="Layer_96">
		<path id="DISTRICT_x3D_Mastung_x2C_PROVINCE_x3D_Balochistan" style="fill:#CCCCCC;stroke:#FFFFFF;stroke-width:1.07;" d="
			M22.371,27.819L22.371,27.819l-0.023-0.012l-0.03-0.201l0.106-0.299l0.139-0.332l0.106-0.269l0.222-0.429l0.349-0.682l0.272-0.462
			l0.353-0.62l0.526-0.766l0.199-0.227l0.635-0.942l0.647-1.021l0.368-0.668l0.604-0.895l0.508-0.704l0.723-0.978l0.896-1.186
			l0.553-0.846l0.578-0.738l0.517-0.875l0.569-0.908l0.228-0.351l0.231-0.599l0.224-1.031l0.119-0.747l0.017-0.312l0.201-0.521
			l0.152-0.425l0.305-0.57l0.094-0.516l0.055-0.592l-0.006-0.695l-0.021-0.387l-0.109-0.646l-0.207-0.812l-0.177-0.58l-0.243,0.045
			l-0.542-0.034L30.93,4.911l-0.455-0.165l-0.399-0.129l-0.11-0.035l-0.191,0.013l-0.109,0.049l-0.355,0.252l-0.666,0.541
			l-0.045,0.037l-0.354,0.204l-0.246,0.146l-0.138,0.023h-0.137l-0.488,0.036L27.014,5.92l-0.289-0.082l-0.221-0.165l-0.07-0.215
			l-0.002-0.215l0.014-0.191l0.094-0.238l0.178-0.074l0.274-0.049l0.315-0.074l0.273-0.203l0.04-0.145l-0.029-0.203l-0.11-0.129
			l-0.125-0.119l-0.164-0.07L26.93,3.713l-0.51-0.069l-0.386-0.236l-0.07-0.202l-0.003-0.382L25.93,2.31l-0.098-0.19l-0.125-0.083
			L25.28,1.968l-0.386-0.082l-0.522-0.092L24.068,1.7l-0.317-0.237l-0.235-0.297l-0.289-0.382l-0.345-0.178l-0.345-0.068
			l-0.221,0.013l-0.248,0.015L21.82,0.582l-0.123,0.062l-0.15,0.155l-0.258,0.349l-0.324,0.646l-0.311,0.635L20.426,2.92
			l-0.324,0.636l-0.42,0.743l-0.391,0.779l-0.297,0.526l-0.206,0.396l-0.147,0.432l-0.172,0.633l-0.093,0.396l-0.063,0.455
			l-0.174,0.502L17.924,8.91l-0.149,0.239l-0.258,0.287l-0.611,0.59l-0.325,0.41l-0.135,0.203l0.012,0.143l0.043,0.227l0.073,0.453
			l0.003,0.299l-0.078,0.442l-0.134,0.299L16.23,12.72l-0.163,0.228l-0.202,0.36l-0.133,0.334l-0.174,0.455l-0.216,0.266
			l-0.367,0.302l-0.3,0.122l-0.328,0.05l-0.452,0.017l-0.521-0.08l-0.44-0.127l-0.385-0.164l-0.416-0.354l-0.278-0.354l-0.279-0.394
			l-0.221-0.151l-0.234-0.117l-0.206-0.094l-0.164-0.011l-0.384,0.027l-0.465,0.088l-0.465,0.11l-0.603,0.09H8.669l-0.234-0.057
			l-0.564-0.174l-0.455-0.127L7.004,12.92l-0.37,0.003l-0.33,0.066l-0.272,0.012l-1-0.26l-0.997-0.506l-0.344,0.418l0.006,0.021
			l0.123,0.178l0.259,0.142l0.462,0.104l0.681,0.164l0.258,0.07l0.15,0.13l0.055,0.226v0.226l-0.013,0.2l-0.135,0.285l-0.434,0.379
			L4.687,15.3l-0.148,0.415l-0.08,0.498l-0.011,0.71l0.001,0.544l0.042,0.285l0.041,0.188l0.137,0.166l0.136,0.129L4.86,18.39
			l0.015,0.236L4.849,18.97l-0.066,0.319l-0.012,0.224l0.109,0.141l0.123,0.332l0.001,0.414l0.016,0.651l0.191,0.402l0.272,0.307
			l0.164,0.095l0.149,0.094l0.068,0.154l0.014,0.144l-0.135,0.282l-0.202,0.439l-0.259,0.436l-0.053,0.451l-0.012,0.33L5.15,24.411
			L4.934,24.72l-0.311,0.344L4.42,25.396l-0.297,0.25l-0.27,0.203l-0.067,0.33l0.03,0.829L3.721,27.61l-0.04,0.201l-0.067,0.178
			l-0.242,0.285L3.21,28.571l-0.161,0.354l-0.08,0.367l-0.121,0.235l-0.189,0.227l-0.228,0.393l-0.095,0.131l-0.053,0.236
			l-0.095,0.106l-0.121,0.2l-0.094,0.25l-0.08,0.344l-0.336,0.402l-0.41,0.449l-0.244,0.271l0.485,0.201l0.585,0.258l1.012,0.517
			l0.728,0.351l0.903,0.271l0.708,0.226l0.575,0.072l0.584,0.073L7.1,34.501l0.511-0.081l0.422-0.11l0.403-0.25l0.228-0.188
			l0.174-0.294l0.19-0.434l0.137-0.513l0.031-0.433L9.175,31.92l-0.001-0.17l0.016-0.185l0.104-0.233l0.141-0.291l0.171-0.588
			l0.207-0.496l0.54-0.868l0.489-0.652l0.473-0.56l0.313-0.496l0.473-0.574l0.49-0.56l0.606-0.649l0.281-0.233l0.58-0.561
			l0.333-0.342l0.457-0.404l0.687-0.451l0.405-0.312l0.634-0.375l0.529-0.328l0.53-0.203l0.318-0.002l0.301-0.002l0.23,0.062
			l0.426,0.215l0.32,0.261l0.16,0.308l0.162,0.37l0.127,0.401l0.002,0.309l-0.067,0.525l-0.237,0.679l-0.191,0.341l-0.141,0.279
			l-0.033,0.293l-0.174,0.389l-0.14,0.416l-0.155,0.543l-0.051,0.34l-0.064,0.711l0.056,0.463l0.161,0.293l0.23,0.199l0.567,0.244
			l0.266,0.045l0.3-0.047l0.424-0.127l0.211-0.171l0.229-0.249l0.157-0.23l0.21-0.325l0.281-0.312l0.281-0.248L22.371,27.819"/>
	</g>
</g>
<g id="Layer_1">
</g>
</svg>
