<?xml version="1.0" encoding="iso-8859-1"?>
<!-- Generator: Adobe Illustrator 16.0.4, SVG Export Plug-In . SVG Version: 6.00 Build 0)  -->
<!DOCTYPE svg PUBLIC "-//W3C//DTD SVG 1.1//EN" "http://www.w3.org/Graphics/SVG/1.1/DTD/svg11.dtd">
<svg version="1.1" xmlns="http://www.w3.org/2000/svg" xmlns:xlink="http://www.w3.org/1999/xlink" x="0px" y="0px"
	 width="90.443px" height="73.496px" viewBox="0 0 90.443 73.496" style="enable-background:new 0 0 90.443 73.496;"
	 xml:space="preserve">
<g id="Layer_173">
	<g id="Layer_178">
		<path id="DISTRICT_x3D_Baltistan_x2C_PROVINCE_x3D_FANA" style="fill:#CCCCCC;stroke:#FFFFFF;stroke-width:1.07;" d="
			M0.286,22.695L0.286,22.695l0.186,0.117l0.087,0.041l0.062,0.022l0.078,0.028l0.108,0.036l0.079,0.046l0.061,0.009L0.997,23
			l0.061,0.006l0.06,0.006l0.066,0.007l0.127,0.006l0.23-0.061l0.124-0.055l0.093-0.038l0.107-0.031l0.089,0.011l0.118,0.024
			l0.097,0.011l0.109,0.03l0.103,0.042l0.129,0.08l0.129,0.062l0.114-0.012l0.136-0.005L3.01,23.06l0.114-0.018l0.123-0.049
			l0.094-0.044l0.095-0.062l0.058-0.052l0.08-0.069l0.046-0.035l0.042-0.034l0.071-0.058l0.099-0.001l0.097,0.011l0.079,0.035
			l0.101,0.06l0.106,0.073l0.057,0.052l0.093,0.065l0.106,0.124l0.134,0.084l0.146,0.021l0.283,0.015l0.129-0.011l0.136-0.005
			l0.111,0.012l0.018,0.062l0.084,0.071l0.048,0.058l0.048,0.063l0.075,0.083l0.056,0.07l0.053,0.094l0.038,0.082l0.044,0.118
			l0.062,0.144l0.044,0.112l0.029,0.105l0.036,0.106l0.042,0.13l0.002,0.074l-0.002,0.122l-0.043,0.065l-0.01,0.085l-0.022,0.09
			l-0.014,0.085l-0.054,0.095l-0.05,0.064l-0.052,0.05l-0.037,0.03l-0.085,0.026l-0.004,0.055l0.008,0.093l0.001,0.085l0.021,0.117
			l0.037,0.094l0.066,0.102l0.039,0.069l-0.016,0.097l-0.066,0.079l-0.038,0.066l-0.025,0.054l-0.08,0.069l-0.081,0.069
			l-0.124,0.055l-0.152,0.035l-0.166,0.009l-0.141-0.02l0.04,0.063L5.03,26.54l0.003,0.049l-0.02,0.066l-0.062,0.119l-0.044,0.083
			l-0.059,0.07l-0.078,0.033l-0.075,0.015l-0.068,0.014L4.56,27l-0.066,0.012l-0.066-0.01l-0.067-0.01l-0.128,0.012L4.14,27.019
			l-0.042,0.065l-0.045,0.096l0.017,0.138l-0.03,0.103l-0.008,0.098l0.021,0.105l0.1,0.066l0.077,0.065l0.093,0.066l0.1,0.066
			l0.105,0.073l0.154,0.064l0.063,0.046l0.069,0.053l0.04,0.062l0.027,0.027l0.042,0.045L4.997,28.3l0.062,0.037l0.086,0.041
			l0.043,0.05l0.04,0.046l0.085,0.054l0.091-0.005l0.082-0.004l0.061,0.049l0.088,0.075l0.037,0.038l0.039,0.04l0.049,0.051
			L5.746,28.83l-0.012,0.046L5.7,28.94l-0.099,0.111L5.54,29.099l-0.073,0.056l-0.08,0.049l-0.093,0.058l0.055,0.07l0.032,0.057
			l0.071,0.046l0.069,0.059l0.101,0.061l0.127,0.013l0.071,0.022l0.089,0.029l0.074,0.083l0.069,0.071l0.07,0.053l0.07,0.053
			l-0.016,0.097l0.001,0.086l0.107-0.027l0.053-0.014l0.117,0.025l0.094,0.06l0.083,0.078l0.087,0.036l0.106,0.054l0.117,0.042
			l0.138,0.069l0.054,0.04l0.015,0.093l0.031,0.081l0.023,0.081l0.001,0.085l0.024,0.05l0.027,0.032l0.086-0.044l0.113-0.012
			l0.129-0.024l0.099-0.019l0.091-0.007l0.098-0.001l0.104-0.007l0.097,0.005l0.081,0.023l0.056,0.064l0.056,0.052l0.049,0.045
			l0.063,0.046l0.086,0.047l0.062,0.046l0.085,0.06l0.078,0.047l0.078,0.06l0.07,0.053l0.079,0.041l0.078,0.047l0.078,0.041
			l0.023,0.08l0.01,0.081l0.029,0.093l0.016,0.086l0.053,0.089l0.023,0.069l0.002,0.073l0.018,0.068l0.078,0.047l0.079,0.029
			l0.075,0.003l0.057,0.028l0.012,0.062l0.04,0.051l0.032,0.063l0.019,0.062l0.032,0.057l0.062,0.04l0.042,0.045l0.032,0.063
			l0.064,0.034l0.055,0.044l0.049,0.06l0.028,0.028l0.034,0.036l0.043,0.019h0.028l0.038,0.001l0.072,0.005l0.085,0.012l0.098,0.01
			h0.051l0.035,0.007l0.037,0.029l0.05,0.019l0.032,0.057l0.025,0.062l0.049,0.072l0.072,0.022l0.11,0.016l0.091-0.011l0.084-0.02
			l0.047-0.016l0.104-0.08l0.042-0.065l0.017-0.043l0.023-0.071l0.043-0.077l0.055-0.016l0.051,0.015l0.052,0.009l0.012,0.062
			l-0.008,0.079v0.092l0.001,0.05l0.024,0.068l0.056,0.052l0.04,0.057l0.05,0.039l0.04,0.051l0.059,0.119l0.047,0.076l-0.007,0.079
			l0.001,0.085l-0.015,0.073l0.011,0.067l-0.008,0.079L11.74,33.95l-0.057,0.052l-0.05,0.052l-0.005,0.061l0.042,0.032l0.074,0.004
			l0.072,0.016l0.082,0.011l0.081,0.01l0.081,0.022l0.058,0.034l0.041,0.045l0.041,0.045l0.016,0.036l0.021,0.063l0.042,0.033
			l0.075-0.002l0.082,0.004l0.057-0.046l0.042-0.059l0.076-0.026l0.049-0.034l0.053-0.01l0.059,0.009l0.049,0.052l0.041,0.051
			l0.049,0.052l0.046,0.093l0.042,0.039l0.034,0.039l0.067-0.021l0.055-0.021l0.062-0.021l0.069-0.021l0.074-0.014l0.092-0.013
			l0.095,0.029l0.089,0.011L13.7,34.58l0.08,0.022l0.075-0.002l0.052,0.009l0.05,0.039l0.024,0.057l-0.036,0.071l-0.079,0.069
			l-0.014,0.072l0.017,0.074l0.053,0.088l0.046,0.082l0.116,0.042l0.079,0.035l0.104,0.018l0.089-0.001l0.108-0.043l0.098-0.007
			l0.083-0.007l0.038,0.075l0.031,0.075l0.033,0.056l0.055,0.064l0.034,0.045l0.079,0.035l0.062,0.04l0.063,0.046l0.069,0.053
			l0.062,0.064l0.047,0.058l0.033,0.062l0.037,0.082l0.028,0.058l0.009,0.085l-0.014,0.054l-0.025,0.054l-0.021,0.066l-0.05,0.059
			l-0.05,0.064l-0.073,0.076l-0.042,0.052l-0.005,0.067l0.072,0.034l0.088,0.017l0.064,0.016l0.072,0.029l0.161,0.045l0.071,0.034
			l0.064,0.021l0.072,0.035l0.071,0.041l0.042,0.039l0.055,0.058l0.04,0.051l0.025,0.062l0.047,0.064l0.047,0.063l0.031,0.081
			l0.037,0.069l0.064,0.046l0.036,0.064l-0.003,0.042l-0.003,0.031l0.048,0.052l0.043,0.02l0.046,0.015l0.039,0.005l0.058,0.004
			l0.062,0.038l0.002,0.061l0.011,0.056l0.032,0.051l0.064,0.045l0.055,0.058l0.057,0.034l0.065,0.013l0.08,0.022l0.079,0.035
			l0.104,0.023l0.094,0.036l0.125,0.024l0.13,0.051l0.109,0.037l0.093,0.041l0.064,0.03l0.086,0.058l0.033,0.057l0.084,0.054
			l0.063,0.05l0.058,0.035l0.06,0.051l0.073,0.056l0.064,0.048l0.042,0.086l0.069,0.079l0.008,0.099l0.001,0.078l-0.021,0.078
			l-0.007,0.08l0.003,0.061l0.027,0.101l0.076,0.077l0.022,0.086l0.054,0.076l0.007,0.086l0.018,0.076l0.019,0.056l0.023,0.075
			l0.011,0.043l0.048,0.058l0.1,0.062l0.095,0.035l0.063,0.034l0.011,0.05l-0.02,0.059l-0.042,0.06l-0.059,0.027l-0.058,0.063
			l-0.07,0.045l-0.056,0.039l-0.02,0.049l0.041,0.057l0.062,0.046l0.033,0.058l0.062,0.045l0.039,0.063l0.033,0.051l0.047,0.056
			l0.031,0.056l0.029,0.06l0.002,0.057l0.001,0.059l0.002,0.043l0.014,0.044l0.038,0.036l0.025,0.055l0.007,0.053l0.002,0.047
			l-0.004,0.054l-0.034,0.052l-0.021,0.051l-0.021,0.037L18.86,41.65l-0.034,0.057l-0.038,0.045l-0.033,0.047l-0.04,0.061
			L18.688,41.9l-0.032,0.042l-0.045,0.045l-0.039,0.05l-0.043,0.022l0.003,0.038l-0.038,0.041l-0.021,0.043l-0.024,0.027
			l-0.057,0.035l-0.011,0.061l-0.039,0.041l-0.037,0.027l-0.025,0.09l0.02,0.054l0.003,0.038l0.004,0.035l-0.009,0.101l-0.032,0.037
			l-0.038,0.041l0.014,0.049l-0.017,0.047l-0.039,0.046l-0.033,0.057l-0.026,0.045l0.012,0.109l0.007,0.053l0.024,0.049l0.032,0.045
			l0.05,0.035l0.044,0.033l0.038,0.041l0.067,0.021l0.039,0.018l0.062,0.022l0.057,0.026l0.058,0.033l0.057,0.018l0.046,0.012
			l0.05,0.037l0.043,0.055l0.043,0.036l0.057,0.042l0.055,0.042l0.038,0.046l0.032,0.034l0.044,0.026l0.051,0.037l0.037,0.041
			l0.021,0.035L19.178,44l-0.016,0.047l0.002,0.049l0.007,0.048l0.032,0.036l0.021,0.039l0.03,0.06l0.031,0.05l0.031,0.045
			l0.049,0.045l0.021,0.041l0.055,0.055l0.055,0.057l0.048,0.057l0.062,0.045l0.076,0.062l0.073,0.038l0.039,0.017l0.06,0.004
			l0.063-0.006l0.072-0.021l0.071-0.011l0.066-0.039l0.062-0.03l0.056-0.031l0.055-0.03l0.084-0.023l0.062-0.016l0.054-0.017
			l0.055-0.021l0.075,0.004l0.066-0.021l0.053-0.002l0.057,0.018l0.09,0.062l0.007,0.059l0.001,0.058l0.013,0.058l0.008,0.053
			l0.002,0.049l0.021,0.043l0.045,0.031l0.014,0.045l0.02,0.059l0.021,0.04l0.02,0.054l0.035,0.051l-0.004,0.057l-0.004,0.048v0.067
			l-0.006,0.066l-0.005,0.066l0.006,0.068l0.011,0.073l0.021,0.06l0.042,0.049l0.05,0.046l0.037,0.05l0.045,0.036l0.056,0.026
			l0.057,0.037l0.066,0.033l0.069,0.014l0.072-0.01l0.077-0.007l0.063-0.019l0.095-0.02h0.082h0.082l0.174,0.01l0.068,0.033
			l0.014,0.049l-0.01,0.039l-0.026,0.041l-0.032,0.043l-0.043,0.025l-0.06,0.006l-0.072,0.016l-0.061,0.024l-0.077,0.015
			l-0.059,0.006l-0.061,0.006l-0.054,0.008l-0.066,0.021l-0.063,0.004l-0.056,0.021l-0.065,0.025l-0.053,0.006l-0.056,0.021h-0.059
			l-0.066,0.021l-0.06,0.011l-0.071,0.017l-0.063,0.01H20.95l-0.061,0.017l-0.064,0.011l-0.07,0.006l-0.06,0.006L20.587,46.5
			l-0.065,0.014l-0.049,0.023l-0.025,0.036l-0.039,0.046l-0.022,0.065l-0.04,0.056l-0.013,0.076l0.007,0.068l0.054,0.06l0.035,0.06
			l0.037,0.056l0.029,0.045l0.03,0.06l0.02,0.049l-0.004,0.049l-0.052,0.05l-0.133,0.041l-0.076,0.015l-0.072,0.02l-0.078,0.025
			l-0.067,0.034l-0.044,0.045l-0.062,0.04l-0.044,0.036l-0.018,0.052l0.008,0.049l0.025,0.049l0.038,0.041l0.046,0.012l0.042,0.055
			l0.036,0.055l0.002,0.045l-0.003,0.047l-0.017,0.057l-0.032,0.032l-0.037,0.026l-0.065,0.006l-0.082,0.011l-0.049,0.012
			l-0.076,0.005l-0.104-0.015l-0.089,0.009l-0.063-0.003H19.4l-0.089-0.005l-0.084,0.023l-0.082,0.006l-0.06,0.012l-0.025,0.021
			l0.014,0.055l0.023,0.059l0.021,0.04l0.007,0.058l0.031,0.086l-0.001,0.086l0.013,0.054l0.029,0.069l0.009,0.105l0.036,0.061
			l0.02,0.054l0.024,0.054l0.001,0.04l0.055,0.069l0.02,0.059l0.018,0.062l0.021,0.05l0.03,0.055l0.031,0.046l0.025,0.049
			l0.043,0.045l0.049,0.047l0.049,0.051l0.021,0.04l0.05,0.026l0.062,0.014l0.14,0.025l0.051,0.022l0.057,0.026l0.037,0.037
			l0.004,0.047l0.015,0.041l0.002,0.053L20.05,49.89l-0.045,0.046l-0.042,0.018l-0.078,0.014l-0.049,0.027l-0.02,0.036l-0.005,0.048
			l-0.005,0.053l-0.011,0.058l-0.012,0.065l-0.004,0.054l-0.027,0.051l-0.017,0.052l-0.053,0.061l-0.032,0.05l-0.034,0.056v0.072
			l0.013,0.059l0.021,0.055l0.014,0.043l0.051,0.023l0.058,0.021h0.047l0.073,0.012l0.053,0.021l0.057,0.019l0.037,0.05l0.002,0.043
			l0.014,0.055l-0.013,0.076l-0.018,0.053l-0.011,0.062l-0.027,0.052l-0.011,0.057l-0.01,0.037l0.045,0.033l0.057,0.017h0.082
			l0.075,0.014l0.049,0.037l0.07-0.001l0.068,0.021l0.058,0.019l0.059,0.013l0.036,0.036l-0.021,0.048l-0.021,0.051l-0.021,0.043
			l-0.017,0.057l-0.018,0.062l-0.016,0.123l0.017,0.084l0.062,0.051l0.059,0.066l-0.011,0.057l-0.027,0.062l-0.022,0.065
			l-0.026,0.047l-0.034,0.056L20.429,52.5l-0.065,0.096l-0.059,0.039l-0.081,0.048l-0.111,0.09l-0.087,0.103L19.9,52.977
			l-0.074,0.104l-0.085,0.088l-0.085,0.086l-0.078,0.096l-0.09,0.09l-0.068,0.102l-0.061,0.084l-0.037,0.078l0.039,0.041
			l0.057,0.061l0.122,0.103l0.07,0.091l-0.004,0.076l-0.021,0.069l-0.011,0.056l0.06,0.057l0.087,0.054l0.062,0.047l0.031,0.06
			l0.034,0.045l0.043,0.051l0.015,0.041v0.053l-0.035,0.037l-0.031,0.056l-0.104,0.048l-0.063,0.055l-0.034,0.037l-0.013,0.008
			l-0.069,0.043l-0.087,0.051L19.416,55l-0.047,0.053l-0.089,0.074l-0.08,0.066l-0.061,0.021l-0.073,0.024l-0.07,0.017l-0.076,0.019
			l-0.034,0.028l-0.071,0.033l-0.074,0.016l-0.073,0.006l-0.092,0.005l-0.078,0.026l-0.049-0.002l-0.053-0.008l-0.075,0.017
			l-0.075,0.015l-0.049-0.011l-0.046-0.007l-0.071-0.014l-0.07,0.01l-0.053-0.008l-0.037-0.016l-0.018-0.009l-0.043-0.017
			l-0.053-0.025l-0.052-0.016l-0.044-0.002l-0.048-0.006h-0.033l-0.02,0.037l-0.019,0.021l-0.022,0.033l-0.03,0.024l-0.047,0.028
			l-0.048,0.037l-0.04,0.031l-0.02,0.037l-0.022,0.039l-0.021,0.039l-0.002,0.066l0.019,0.047l0.004,0.045l0.008,0.027l0.011,0.033
			l-0.017,0.029L17.351,55.9l-0.037,0.062l-0.015,0.01l-0.009,0.014l-0.036-0.002l-0.048-0.003l-0.035,0.004l-0.037-0.004
			l-0.028-0.011l-0.031,0.002l-0.013,0.008L17.024,56l-0.021,0.035l-0.033,0.077l-0.025,0.029l-0.023,0.044l-0.03,0.031
			l-0.042,0.018l-0.045,0.006l-0.048,0.006l-0.048-0.005l-0.076-0.026l-0.058,0.004l-0.053-0.008l-0.062,0.027l-0.035,0.02
			l-0.034,0.01l-0.065,0.035l-0.055,0.017l-0.051-0.003l-0.04-0.008l-0.032,0.001l-0.06,0.019l-0.084,0.004l-0.035,0.019
			l-0.021,0.034l-0.021,0.031l-0.057,0.022l-0.027,0.017l-0.014,0.012l-0.03,0.031l-0.048,0.018l-0.039,0.027l-0.036,0.028
			l-0.042,0.021l-0.042,0.024l-0.038,0.017l-0.093,0.023l-0.051,0.008l-0.038,0.012l0.005,0.029l0.021,0.024l0.011,0.037
			l-0.003,0.036l0.022,0.039l0.021,0.055l0.023,0.061l0.029,0.065l0.029,0.058l0.054,0.073l0.06,0.056l0.059,0.063l0.086,0.05
			l0.082,0.043l0.073,0.039l0.062,0.036l0.058,0.034l0.018,0.054v0.046l0.021,0.064l0.057,0.037l0.064,0.031l0.11,0.049l0.063,0.014
			l0.078,0.016l0.07,0.006l0.061,0.002l0.075,0.006l0.062,0.019l0.037,0.03l0.04,0.043l0.051,0.029l0.051,0.049l0.058,0.033
			l0.064,0.024l0.063,0.019l0.043,0.021l0.029,0.025l0.017,0.029l0.006,0.051l-0.023,0.072l-0.023,0.043l-0.038,0.059l-0.018,0.086
			l0.02,0.057l0.016,0.045l0.006,0.031l0.014,0.042l0.015,0.028l0.021,0.027l0.035,0.037l0.024,0.03l0.01-0.013l0.014,0.043
			l0.021,0.035l0.009,0.026l-0.021,0.031l-0.018,0.03l-0.01,0.021l-0.024,0.03l-0.019,0.039l-0.021,0.046l-0.026,0.053l0.007,0.05
			l0.011,0.043l-0.001,0.055l0.012,0.043l0.012,0.068l0.008,0.045l0.011,0.03l0.038,0.015l0.048,0.025l0.057,0.02l0.062-0.002
			l0.035,0.008l0.036,0.008l0.031-0.01l0.027-0.008l0.047-0.026l0.05-0.027l0.062-0.019l0.069-0.004h0.055l0.056,0.013l0.049,0.011
			l0.113,0.016l0.032-0.004l0.063-0.008l0.064-0.006l0.062-0.005l0.086-0.013l0.106-0.028l0.081,0.048l0.079,0.064l0.088,0.074
			l0.134,0.061l0.101,0.059l0.091,0.049l0.089,0.064l0.104,0.032l0.082,0.039l0.09,0.057l0.025,0.071l0.032,0.042l0.078,0.034
			l0.114,0.039h0.131l0.094,0.007l0.089,0.03l0.078,0.043l0.131,0.053l0.146,0.037l0.082,0.012l0.056,0.032l0.018,0.086l-0.051,0.11
			l0.102,0.041l0.104,0.014l0.145,0.051l0.08,0.048l0.057,0.081l0.09,0.057l0.065,0.1l0.068,0.064l0.056,0.09l0.068,0.074
			l0.118,0.084l0.049,0.055l0.047,0.082l0.034,0.072l-0.035,0.059l0.012,0.095l-0.027,0.077L21.439,61.7l0.006,0.034l0.021,0.049
			l0.056,0.038l0.056,0.081l0.009,0.049L21.581,62.1l-0.001,0.054l-0.009,0.058l-0.006,0.071l0.007,0.068l0.014,0.062l0.002,0.075
			l0.005,0.075l-0.018,0.066l0.006,0.072l0.001,0.075l0.021,0.073l0.036,0.062l0.049,0.1l0.024,0.055l0.043,0.059l0.072,0.149
			l0.044,0.106l0.035,0.09l0.007,0.166l0.047,0.072l0.096,0.068l0.058,0.04l0.059,0.062l-0.021,0.069l-0.014,0.046l-0.015,0.045
			l-0.018,0.041l-0.003,0.088l0.016,0.07l-0.012,0.057l-0.065,0.031l-0.055,0.023l-0.058,0.066l-0.032,0.129l0.066,0.072
			l0.005,0.079l0.005,0.078l-0.059,0.058l-0.1,0.055l-0.076,0.039L21.7,65.004l0.037,0.053l0.033,0.115l0.036,0.095l0.017,0.058
			l0.022,0.053l0.043,0.06l0.03,0.045l0.002,0.05l0.01,0.045l0.001,0.027l-0.017,0.023l-0.059,0.01l-0.087,0.039l-0.087,0.029
			l-0.074,0.006l-0.066,0.039l-0.128,0.027l-0.085,0.012l-0.09,0.065l-0.047,0.065l-0.061,0.071l-0.065,0.028l-0.052,0.056
			l-0.044,0.021l0.021-0.008l-0.076,0.037l-0.051,0.032l-0.055,0.044l-0.023,0.057l-0.022,0.082l-0.034,0.047l-0.096,0.127
			l-0.059,0.057l-0.021,0.121l-0.038,0.084l-0.04,0.102l-0.062,0.092l-0.11,0.082l-0.1,0.045l-0.089,0.057l-0.193,0.059
			l-0.066,0.041l-0.038,0.084l-0.027,0.078l-0.013,0.1l0.07,0.113l0.122,0.039l0.131,0.039l0.148,0.049l0.16,0.041l0.149-0.021
			l0.173-0.046l0.173-0.068l0.117-0.061l0.062-0.023l0.106-0.039l0.146,0.088l0.132,0.109l0.202,0.121l0.136,0.109l0.057,0.123
			l0.039,0.113l0.015,0.168l0.031,0.088l0.028,0.121l-0.002,0.135l-0.066,0.115l-0.021,0.125l0.09,0.076l0.171,0.018l0.159,0.074
			l0.144,0.102l0.112,0.037l0.174,0.09l0.142,0.048l0.163-0.006l0.173-0.007l0.04,0.099l0.069,0.138l0.111,0.098l0.201,0.041
			l0.235,0.013l0.097,0.127l0.059,0.149l0.11,0.053l0.159,0.043l0.085,0.132l0.069,0.187l0.146,0.111l0.193-0.029l0.188-0.061
			l0.185-0.029l0.147,0.072l0.165,0.098l0.302,0.092l0.259,0.023l0.288,0.035l0.303,0.068l0.272,0.035l0.288,0.024l0.287,0.069
			l0.287,0.127l0.272,0.208l0.303,0.093l0.331,0.059l0.345,0.058h0.316h0.33l0.304,0.06l0.374,0.034l0.288,0.058l0.33,0.059
			l0.272,0.023l0.375-0.059l0.331-0.092l0.374-0.059l0.36,0.012l0.416,0.082l0.402,0.15l0.461,0.116l0.445,0.149l0.345,0.129
			l0.417,0.185l0.446,0.127l0.345,0.048l0.389,0.068l0.26,0.104l0.417,0.14l0.358,0.034l0.346,0.013l0.347,0.013l0.272-0.012
			l0.23-0.081l0.302-0.022l0.303,0.023l0.303-0.012l0.375,0.07l0.33,0.012l0.346,0.035l0.346-0.012l0.33,0.012H41.5l0.316,0.013
			l0.331,0.022l0.272-0.022l0.245-0.081l0.273-0.021l0.229-0.023l0.316,0.023l0.259-0.022l0.26-0.035l0.26-0.035l0.244-0.011
			l0.346,0.023l0.359-0.012l0.245-0.08l0.23-0.14l0.229-0.162l0.174-0.127l0.244-0.093l0.303-0.068l0.273-0.023l0.244,0.012
			l0.346-0.021l0.274-0.059l0.229-0.115l0.245-0.127l0.158-0.127l0.173-0.15l0.116-0.242l0.087-0.196l0.145-0.231l0.045-0.195
			l0.102-0.243l0.072-0.231l0.087-0.266l0.116-0.289l0.173-0.127l0.188-0.173l0.202-0.104l0.202-0.08l0.229-0.14l0.188-0.14
			l0.187-0.114l0.275-0.162l0.273-0.173l0.26-0.196l0.245-0.185l0.303-0.186l0.245-0.185l0.26-0.196l0.244-0.162l0.174-0.185v-0.196
			l0.045-0.22l0.072-0.255l0.072-0.219l0.201,0.058l0.288,0.149l0.259,0.104l0.33,0.162l0.272,0.22l0.259,0.139l0.243,0.15
			l0.288,0.208l0.229,0.187l0.388,0.185l0.201,0.127l0.315,0.162l0.331,0.127l0.302,0.151l0.288,0.104l0.388,0.116l0.331,0.069
			l0.245,0.023l0.302,0.012l0.259,0.127l0.331,0.139l0.316,0.14l0.345,0.149l0.345,0.094h0.303l0.446-0.023l0.374-0.127l0.288-0.104
			l0.217-0.104l0.201-0.117l0.288-0.045l0.316-0.082l0.316-0.104l0.346-0.045l0.317-0.104l0.288-0.047l0.346-0.127l0.23-0.126
			l0.26-0.127l0.245-0.185l0.158-0.139l0.173-0.162l0.217-0.094l0.331-0.104l0.375-0.139l0.259-0.127l0.245-0.127l0.188-0.127
			l0.217-0.115l0.216-0.115l0.158-0.127l0.145-0.116l0.174-0.162l0.146-0.173l0.201-0.242l0.174-0.173l0.202-0.231l0.217-0.162
			l0.173-0.149l0.188-0.208l0.201-0.219l0.218-0.209l0.216-0.266l0.072-0.115l0.071-0.117l0.188-0.161l0.216-0.173l0.217-0.162
			l0.146-0.15l0.2-0.173l0.146-0.162l0.146-0.185l0.145-0.104l0.102-0.139l-0.058-0.162l0.015-0.162l0.131-0.116l0.201-0.15
			l0.158-0.08l0.159-0.116l0.146-0.149l0.086-0.14l0.173-0.127l0.188-0.104l0.174-0.127l0.099-0.133l0.067-0.105l0.065-0.118
			l0.02-0.097v-0.108l-0.062-0.123l-0.075-0.114l-0.156-0.094l-0.198-0.087l-0.158-0.076l-0.118-0.042l-0.144-0.066l-0.141-0.098
			l-0.119-0.091L71.81,59.61l-0.202-0.163l-0.095-0.117l-0.094-0.154l-0.05-0.139l-0.038-0.105l-0.015-0.07l-0.02-0.084
			l-0.011-0.119l-0.015-0.124l-0.023-0.142l0.041-0.155l-0.012-0.093v-0.123l-0.021-0.104l-0.063-0.104l-0.043-0.108l-0.074-0.066
			l-0.035-0.08l-0.062-0.119l-0.05-0.104l-0.065-0.093l-0.057-0.077l-0.029-0.091l-0.04-0.077l-0.05-0.043l-0.045-0.082
			l-0.024-0.076l-0.038-0.051l-0.018,0.008l-0.04-0.144l-0.046-0.086l-0.078-0.075l-0.066-0.096l-0.052-0.118l-0.085-0.11
			l-0.092-0.106l-0.097-0.155l-0.09-0.134l-0.09-0.124l-0.104-0.191l-0.054-0.117l-0.075-0.158l-0.05-0.096l0.001-0.127
			l-0.082-0.412l0.02-0.135l0.053-0.105l0.021-0.161l0.04-0.142l0.041-0.1l-0.005-0.003l0.039-0.138l-0.014-0.129l-0.006-0.11
			l-0.033-0.103l-0.088-0.133l-0.096-0.068l-0.132-0.074l-0.106-0.057l-0.09-0.071l-0.116-0.068l-0.06-0.108l-0.07-0.127
			l-0.09-0.054l-0.062-0.043l0.062-0.088l0.06-0.114l0.02-0.092l-0.009-0.08l0.003-0.087l-0.017-0.054l-0.11-0.068l-0.126-0.029
			l-0.084-0.015l-0.119-0.024l-0.094-0.037l-0.091-0.055l-0.06-0.043l-0.102-0.068l-0.066-0.082l-0.064-0.057l-0.068-0.062
			l-0.082-0.035l-0.076-0.036l-0.082-0.03l-0.067-0.031l-0.098-0.028l-0.083-0.026l-0.059-0.021l-0.058-0.004l-0.132-0.045
			l-0.103-0.098l-0.03-0.037l-0.054-0.061l-0.068-0.08l-0.066-0.092l-0.048-0.064l-0.055-0.091l-0.039-0.042l-0.101-0.016
			l-0.106,0.007l-0.148-0.021l-0.173-0.024l-0.275-0.003l-0.216,0.008l-0.146,0.023l-0.132,0.021l-0.108,0.001l-0.139,0.001
			l-0.1,0.001l-0.152,0.001l-0.123,0.001l-0.104-0.02l-0.083-0.032l-0.062-0.074l-0.078-0.084l-0.062-0.083L64.3,50.344
			l-0.036-0.059l-0.006-0.089l-0.029-0.089l-0.074-0.083l-0.084-0.093l-0.055-0.084l-0.072-0.088l-0.084-0.07l-0.084-0.062
			l-0.119-0.051l-0.115-0.021l-0.106-0.03l-0.145,0.021l-0.159,0.021l-0.104,0.031L62.9,49.635l-0.105,0.029l-0.087,0.023
			l-0.167,0.047l-0.247,0.031l-0.271-0.035l-0.259-0.104l-0.273-0.129l-0.244-0.022h-0.359h-0.331l-0.33-0.082l-0.23-0.162
			l-0.244-0.081l-0.272-0.127l-0.244-0.139l-0.229-0.116l-0.402-0.22l-0.416-0.231l-0.432-0.244l-0.33-0.174l-0.303-0.14
			l-0.259-0.139l-0.33-0.139l-0.359-0.059l-0.359-0.104l-0.346-0.116L55.08,47.11l-0.315-0.046l-0.288-0.082l-0.244-0.104
			l-0.374-0.104l-0.346-0.081l-0.172-0.046l-0.23,0.011h-0.302l-0.316-0.093l-0.315-0.149l-0.303-0.267l-0.258-0.187l-0.302-0.22
			l-0.245-0.231l-0.258-0.23l-0.172-0.197l-0.188-0.185l-0.216-0.196l-0.187-0.14l-0.114-0.149l-0.104-0.139l-0.155-0.186
			l-0.216-0.221l-0.216-0.162l-0.172-0.185l-0.158-0.175l-0.1-0.196l-0.072-0.254l-0.057-0.243l0.045-0.289l0.044-0.335l0.13-0.289
			l0.159-0.276l0.202-0.231l0.102-0.173l0.087-0.174l0.072-0.104l0.087-0.07l0.101-0.195l0.146-0.186l0.173-0.207l0.145-0.117
			l0.115-0.139l0.173-0.173l0.115-0.173l0.159-0.162l0.102-0.15l0.131-0.115l0.129-0.174l0.131-0.127l0.158-0.186l0.174-0.173
			l0.115-0.173l0.115-0.139l0.102-0.162l0.072-0.127l0.059-0.185l0.072-0.173l0.059-0.277l0.103-0.196l0.015-0.208l0.058-0.162
			l0.035-0.191l-0.02-0.202l-0.058-0.139l-0.027-0.186l0.044-0.185l-0.016-0.139l-0.015-0.139l-0.051-0.096l0.023-0.209l0.007-0.131
			l0.006-0.166l0.031-0.125l0.029-0.174l0.058-0.127l-0.015-0.104l0.087-0.197l0.073-0.22l0.159-0.208l0.114-0.162l0.13-0.127
			l0.199-0.145l0.23-0.115l0.187-0.081l0.217-0.127l0.158-0.104l0.188-0.104l0.201-0.127l0.245-0.115l0.216-0.162l0.202-0.115
			l0.173-0.116l0.174-0.104l0.201-0.104l0.217-0.068l0.216-0.058l0.26-0.046l0.23-0.046l0.303-0.046l0.244-0.034l0.332-0.092
			l0.272-0.035l0.229-0.092l0.217-0.093l0.216-0.092l0.146-0.058l0.188-0.08l0.137-0.085l0.156-0.125l0.197-0.102l0.101-0.104
			l0.173-0.162l0.103-0.081l0.145-0.139l0.174-0.254l0.114-0.104l0.06-0.139l0.114-0.127l0.131-0.092l0.102-0.104l0.129-0.139
			l0.116-0.173l0.13-0.115l0.13-0.116l0.13-0.116l0.13-0.162l0.23-0.196l0.13-0.173l0.174-0.15l0.188-0.115l0.245-0.162l0.229-0.139
			l0.216-0.116l0.273-0.104l0.246-0.069l0.172-0.058l0.188-0.081l0.158-0.069l0.231-0.058l0.187-0.092l0.217-0.081l0.174-0.104
			l0.259-0.139l0.116-0.139l0.13-0.093l0.086-0.127l0.145-0.115l0.158-0.092l0.131-0.07l0.172-0.092l0.174-0.036l0.107-0.081
			l0.123-0.069l0.145-0.069l0.198-0.066l0.105-0.058l0.193-0.107l0.13-0.07l0.104-0.058l0.104-0.057l0.201-0.038l0.128-0.059
			l0.159-0.006l0.188-0.069l0.143-0.086l0.215-0.056l0.173-0.055l0.164-0.09l0.18-0.068l0.217-0.078l0.187-0.043l0.174-0.04
			l0.234-0.036l0.274-0.127l0.125-0.033l0.275-0.085l0.168-0.035l0.125-0.026l0.117-0.024l0.127-0.026l0.144-0.029l0.188,0.004
			l0.134,0.002l0.145,0.003l0.076,0.061l0.082,0.066l0.098,0.078l0.106,0.085l0.085,0.095l0.147,0.167l0.127,0.143l0.123,0.139
			l0.107,0.12l0.158,0.12l0.135,0.103l0.068,0.118l0.096,0.161l0.188,0.133l0.128,0.089l0.164,0.115l0.111,0.145l0.143,0.1
			l0.133,0.08l0.116,0.092l0.157,0.15l0.158,0.093l0.216,0.116l0.114,0.104l0.201,0.15l0.2,0.173l0.145,0.174l0.187,0.116
			l0.217,0.197l0.229,0.173l0.158,0.128l0.287,0.173l0.244,0.104l0.244,0.058l0.287,0.127l0.316,0.186l0.244,0.139l0.216,0.139
			l0.258,0.162l0.229,0.197l0.188,0.186l0.243,0.208l0.187,0.197l0.102,0.174l0.2,0.254l0.071,0.162l0.144,0.208l0.043,0.208
			l0.086,0.231l0.172,0.231l0.145,0.243l0.143,0.243l0.201,0.197l0.101,0.243l0.114,0.266l0.071,0.209l0.113,0.23l0.058,0.312
			l0.144,0.22l0.129,0.22l0.188,0.197l0.187,0.069l0.202,0.046l0.157,0.139l0.201,0.22l0.187,0.208l0.244,0.208L82.089,35
			l0.173,0.116l0.157,0.127l0.174-0.196l0.231-0.416l0.229-0.312l0.246-0.254l0.202-0.243l0.159-0.37l0.159-0.347l0.087-0.231
			l0.129-0.184l0.188-0.231l0.146-0.219l0.158-0.208l0.158-0.231l0.116-0.208l0.158-0.231l0.188-0.204l0.204-0.236l0.188-0.242
			l0.26-0.301l0.174-0.185l0.201-0.231l0.146-0.162l0.13-0.162l0.116-0.162l0.13-0.173l0.058-0.173l0.088-0.196l0.102-0.196
			l0.087-0.116l0.043-0.081l0.088-0.093l0.114-0.069l0.093-0.024l0.123-0.021l0.159-0.058l0.188-0.092L87.998,28l0.23-0.081
			l0.172-0.115l0.202-0.081l0.188-0.104l0.146-0.127l0.229-0.139l0.146-0.116l0.13-0.092l0.092-0.141l0.114-0.162l0.13-0.104
			l0.008-0.014l-0.145-0.156l-0.644-0.479l-0.244-0.193l-0.255-0.208l-0.154-0.125l-0.15-0.212l-0.219-0.313l-0.232-0.191
			l-0.172,0.057L87.238,25.1l-0.383,0.013l-0.514,0.051l-0.679,0.123l-0.332,0.071l-0.42,0.02l-0.479,0.056l-0.336-0.075
			l-0.271-0.709l-0.13-0.311l-0.283-0.309l-0.504-0.421l-0.285-0.359l-0.296-0.281l-0.362-0.169L81.69,22.7l-0.201-0.102
			l-0.013-0.418l-0.036-0.307l-0.174-0.327l-0.368-0.103l-0.354,0.029l-0.393-0.108l-0.479-0.167l-0.196-0.241l-0.192-0.123
			l-0.17-0.022l-0.488,0.033l-0.328,0.148l-0.674-0.242l-0.484-0.226l-0.196-0.441l-0.347-0.57l-0.243-0.211l-0.138-0.207
			l-0.211-0.534l0.254-0.293l0.515-0.425l0.122-0.157l-0.049-0.326l-0.011-0.039l-0.273-0.721l0.077-0.272l0.363-0.449l0.297-0.493
			l-0.209-0.437l-0.201-0.324l-0.479-0.282l-0.75-0.097l-0.381,0.167l-0.141,0.672L74.9,15.36l-1.021,0.645l-0.98-0.334h-0.405
			l-0.434,0.135l-0.3,0.192l-0.272,0.261l-0.354,0.4l-0.244,0.232l-0.492,0.334l-0.377,0.068l-0.377-0.019l-0.435-0.065L68.411,17
			l-0.592-0.254l-0.392,0.231l-0.081,0.35l0.145,0.33l0.213,0.59l-0.043,0.123l-0.586-0.087l-0.521-0.079l-0.377-0.048l-0.707-0.242
			l-0.221-0.076l-0.375-0.194l-0.512,0.003l-0.369,0.109l-0.521,0.083l-0.415-0.01l-0.231-0.046l-0.287-0.003l-0.342,0.011
			l-0.234,0.042l-0.039,0.219l-0.077,0.234l-0.18,0.114l-0.231,0.015l-0.524-0.033l-0.608,0.048l-0.683,0.022l-0.502-0.093
			l-0.319-0.223l-0.231-0.148l-0.014-0.278l0.149-0.334l0.183-0.218l0.221-0.433l-0.067-0.259l-0.065-0.302l0.005-0.407l0.193-0.387
			l0.089-0.272l0.042-0.245l-0.08-0.332l-0.247-0.415l-0.154-0.32L58.6,13.557l-0.256-0.391l-0.229-0.236l-0.193-0.266l-0.355-0.281
			l-0.246-0.28l-0.173-0.264l-0.228-0.295l-0.076-0.249l-0.107-0.201l0.061-0.553l-0.015-0.252L56.5,10.134l-0.333-0.033
			l-0.463-0.074l-0.48-0.023l-0.354-0.023l-0.563-0.025l-0.146,0.058l-0.532,0.344l-0.185,0.028l-0.38-0.073l-0.45-0.164
			l-0.439-0.173l-0.43-0.222l-0.58-0.444l-0.305-0.395l-0.144-0.283l-0.014-0.401l-0.287-0.08L50.06,8.363l-0.107,0.095L49.771,8.47
			l-0.164-0.001l-0.237,0.066l-0.155,0.067l-0.192,0.052l-0.146,0.015l-0.192-0.016L48.647,8.75v0.067l0.065,0.149l0.001,0.119
			v0.134l-0.182,0.097l-0.222,0.06l-0.19,0.067l-0.156,0.052l-0.177,0.076l-0.098,0.045l-0.104,0.058l-0.089,0.063l-0.084,0.073
			l-0.124,0.086l-0.141,0.108l-0.008,0.014l-0.124,0.091l-0.12,0.046l-0.165,0.052l-0.146,0.044l-0.148,0.001l-0.106-0.017
			l-0.146,0.039l-0.199,0.003l-0.146-0.035l-0.146-0.03L45.5,10.165l-0.159-0.015L45.18,10.15l-0.172,0.052l-0.183,0.025
			l-0.192,0.067l-0.197,0.051l-0.251,0.079l-0.198,0.056l-0.247,0.029h-0.188l-0.201-0.082l-0.13-0.06l-0.143-0.056l-0.139-0.039
			l-0.104-0.043l-0.034-0.134l-0.015-0.137l0.034-0.086l0.048-0.107l0.039-0.144l-0.008-0.117l0.013-0.129L42.84,9.323l-0.089-0.088
			L42.68,9.168l-0.101-0.1l-0.086-0.109l-0.062-0.118l-0.023-0.158l-0.004-0.099l-0.011-0.168l-0.02-0.084l-0.153,0.069
			l-0.135-0.008l-0.131,0.029l-0.165-0.02l-0.146-0.045L41.464,8.29L41.258,8.22l-0.198-0.08l-0.136-0.065l-0.082-0.08l0.084-0.156
			l0.053-0.081l0.099-0.161l0.088-0.193l0.098-0.156l0.103-0.136l0.053-0.098l0.009-0.167l-0.135-0.144l-0.19-0.1l-0.2-0.064
			l-0.223-0.107l-0.327-0.155l-0.093-0.042L40.117,6.14l-0.222-0.137l-0.188-0.148l-0.181-0.131l-0.092-0.142l-0.121-0.096
			l-0.102-0.084l-0.13-0.055l-0.121-0.022l0.028,0.127L38.915,5.58l-0.026,0.087L38.817,5.74l-0.133,0.044l-0.158-0.02L38.381,5.74
			l-0.16-0.004l-0.16-0.01l-0.166-0.009L37.78,5.773l-0.267,0.032l-0.27,0.111L36.96,5.998l-0.294-0.003l-0.32,0.094L35.95,6.065
			l-0.277,0.015l-0.216-0.018l-0.165,0.007l-0.225,0.037l-0.201-0.052L34.571,6l-0.133-0.085l-0.134-0.052l-0.18-0.063l-0.207-0.062
			l-0.176-0.076l-0.189-0.078l-0.229-0.04l-0.16-0.089l-0.225-0.056l-0.312-0.015l-0.334-0.065l-0.376-0.05l-0.236-0.021
			l-0.435-0.032l-0.477-0.097l-0.316-0.145l-0.3-0.243l-0.251-0.099l-0.246-0.168l-0.322-0.173l-0.106-0.223l-0.199-0.306
			l-0.11-0.329L28.861,3.11l-0.212-0.166L28.348,2.83l-0.264-0.169l-0.192-0.165l-0.179-0.15l-0.225-0.209l-0.525-0.338
			l-0.211-0.167l-0.247-0.154l-0.196-0.123L25.848,1.07l-0.238-0.251L25.4,0.638l-0.254,0.126L24.822,0.9L24.63,1.004L24.407,1.11
			l-0.249,0.105l-0.201,0.162l-0.213,0.139L23.64,1.663l-0.226,0.128l-0.175,0.174l-0.116,0.113l-0.229,0.02l-0.202,0.021
			l-0.229,0.009l-0.256,0.029l-0.229,0.031l-0.224,0.096l-0.254,0.007l-0.257,0.04l-0.322,0.015l-0.285,0.06l-0.287,0.092
			l-0.183,0.087l-0.176,0.034l-0.187,0.13l-0.058,0.06l-0.08,0.158l-0.421,0.82l-0.112,0.232l-0.124,0.198l-0.124,0.209
			l-0.085,0.222l-0.136,0.188l-0.067,0.169l-0.088,0.093l-0.079,0.147l-0.057,0.203l-0.136,0.187l-0.128,0.253l-0.138,0.198
			l-0.109,0.199l-0.057,0.109l-0.044,0.124l-0.123,0.198l-0.086,0.233l-0.112,0.243l-0.115,0.264l-0.13,0.274L17.029,7.99
			l-0.07,0.202l-0.146,0.144l-0.093-0.167l-0.028-0.131l-0.018-0.13l-0.03-0.11l-0.107,0.178l-0.204,0.205l-0.23,0.215l-0.164,0.218
			l-0.229,0.204l-0.231,0.223L15.256,9.14L14.99,9.277l-0.299,0.081l-0.288-0.07l-0.246-0.089l-0.249-0.152l-0.05,0.116
			l-0.026,0.268l-0.212,0.15l-0.239,0.15l-0.237-0.013l-0.26-0.101l-0.186-0.172l-0.076-0.209l-0.023-0.196l0.02-0.226l0.018-0.226
			l-0.093-0.354l-0.025-0.174l-0.289-0.048l-0.114-0.071l-0.147-0.159l-0.134-0.147l-0.127-0.083l-0.154-0.073l-0.119,0.177
			l-0.109,0.188l-0.058,0.213l-0.09,0.114l-0.128,0.283l-0.158,0.37l-0.202,0.208l-0.346-0.104l-0.331-0.174L9.595,8.607
			L9.275,8.774l-0.4,0.162L8.543,9.104L8.265,9.272L7.877,9.273L7.485,9.167L7.297,9.25L7.154,9.372L7.102,9.53L7.058,9.755
			L7.031,9.917l-0.079,0.198l-0.049,0.125l-0.078,0.195l-0.188,0.155l-0.194,0.104l-0.108,0.058l0.104,0.189l0.058,0.086
			l0.079,0.118l0.161,0.12L6.9,11.353l0.334,0.159l0.147,0.101l0.036,0.125l0.107,0.154l0.111,0.161l0.143,0.124l0.128,0.061
			l0.135,0.02l0.15,0.085l0.088,0.097l0.148,0.144l0.091,0.093l0.182,0.182l-0.03,0.146L8.55,13.126l-0.143,0.141l-0.113,0.106
			l-0.2,0.133l-0.138,0.077L7.88,13.648l-0.025,0.073l0.154,0.024l0.167,0.041l0.147,0.034l0.141,0.039L8.618,13.9l0.174,0.046
			l0.19,0.063l0.115,0.033l0.12,0.043l0.081,0.058l0.027,0.065L9.3,14.292l0.052,0.083l0.066,0.078l0.078,0.084l0.045,0.093
			L9.587,14.7l0.042,0.125l0.057,0.109l0.061,0.077l0.048,0.062l-0.017,0.105l-0.041,0.109l-0.016,0.11l-0.05,0.131l-0.027,0.089
			l-0.025,0.084l0.001,0.074l0.071,0.079l0.054,0.072l0.023,0.102l0.006,0.096L9.771,16.23l-0.009,0.106l-0.075,0.113l0.062,0.057
			l0.007,0.036L9.739,16.62l-0.023,0.058l-0.068,0.076l-0.078,0.052l-0.101,0.076l-0.13,0.107l-0.128,0.068l-0.088,0.039
			l-0.091,0.053l-0.09,0.059l-0.13,0.004l-0.095,0.037l-0.104,0.069l-0.125,0.02l-0.113,0.037l-0.098-0.011l-0.15,0.003
			l-0.158,0.023l-0.202,0.015l-0.169,0.065l-0.146,0.019l-0.106,0.032l-0.153,0.035l-0.186,0.043l-0.142,0.035l-0.066,0.028
			l0.021,0.124l0.003,0.128L6.815,18.02l-0.014,0.09l-0.004,0.122L6.78,18.353l-0.022,0.132l-0.055,0.104l-0.067,0.124l-0.073,0.103
			l-0.086,0.091L6.38,18.976l-0.138,0.078L6.12,19.107l-0.176,0.07l-0.142,0.057l-0.18,0.033L5.492,19.34l-0.135,0.062l-0.168,0.065
			l-0.136,0.062l-0.163,0.072l-0.124,0.083l-0.13,0.084l-0.084,0.075L4.52,19.921l-0.031,0.073l-0.02,0.084l-0.027,0.089
			L4.396,20.26l-0.059,0.062l-0.045,0.072l-0.03,0.073l-0.072,0.081l-0.048,0.109L4.09,20.746l-0.022,0.11L4.047,20.96l-0.014,0.084
			l-0.07,0.076l-0.097,0.059l-0.15,0.087l-0.145,0.089l-0.155,0.051l-0.12,0.004l-0.211-0.025l-0.16-0.027H2.792l-0.143,0.07
			l-0.114,0.08l-0.092,0.06l-0.089,0.039l-0.12,0.077L2.16,21.716L2.079,21.76l-0.087,0.074l-0.129,0.049l-0.106,0.098l-0.188,0.097
			L1.508,22.17l-0.097,0.048l-0.148,0.083l-0.115,0.052l-0.045,0.005l-0.08,0.05l-0.084,0.05l-0.132,0.065l-0.08,0.027l-0.08,0.038
			l-0.108,0.035l-0.114,0.05L0.286,22.695"/>
	</g>
</g>
<g id="Layer_1">
</g>
</svg>
