<?xml version="1.0" encoding="iso-8859-1"?>
<!-- Generator: Adobe Illustrator 16.0.4, SVG Export Plug-In . SVG Version: 6.00 Build 0)  -->
<!DOCTYPE svg PUBLIC "-//W3C//DTD SVG 1.1//EN" "http://www.w3.org/Graphics/SVG/1.1/DTD/svg11.dtd">
<svg version="1.1" xmlns="http://www.w3.org/2000/svg" xmlns:xlink="http://www.w3.org/1999/xlink" x="0px" y="0px"
	 width="21.125px" height="33.234px" viewBox="0 0 21.125 33.234" style="enable-background:new 0 0 21.125 33.234;"
	 xml:space="preserve">
<g id="Layer_11">
	<g id="Layer_16">
		
			<path id="DISTRICT_x3D_Tribal_Area_adj_D._I._Khan_x2C_PROVINCE_x3D_F.A.T.A." style="fill:#CCCCCC;stroke:#FFFFFF;stroke-width:1.07;" d="
			M20.637,29.277L20.637,29.277l-0.109-0.056l-0.112-0.073l-0.096-0.065l-0.078-0.043l-0.128-0.07l-0.126-0.098l-0.123-0.058
			l-0.148-0.061l-0.125-0.092l-0.031-0.076l-0.071-0.258l-0.113-0.344l-0.036-0.119l-0.083-0.293l-0.079-0.281l-0.045-0.163
			l-0.081-0.229l-0.151-0.371l-0.103-0.311l-0.064-0.303l-0.021-0.141l-0.047-0.203l-0.213-0.367l-0.047-0.073l-0.066-0.238
			l-0.044-0.309l-0.007-0.29l0.003-0.268l-0.007-0.139l-0.084-0.254l-0.062-0.244l-0.039-0.115l-0.039-0.117l-0.021-0.097
			l-0.041-0.229l-0.024-0.073l-0.099-0.21l-0.091-0.196l-0.122-0.248l-0.067-0.241l0.048-0.223v-0.34l-0.053-0.175l-0.123-0.327
			l-0.087-0.25l-0.017-0.118l-0.008-0.17l0.004-0.082l0.012-0.081l-0.049-0.18l-0.118-0.094l-0.118-0.088l-0.078-0.056l-0.086-0.045
			l-0.147-0.142l0.072-0.137l0.061-0.059l0.212-0.243l0.066-0.104l-0.01-0.129l0.074-0.125l0.022-0.031l0.077-0.108l0.043-0.101
			l-0.053-0.114l-0.141-0.093l-0.233-0.069l-0.108-0.062l-0.093-0.133l-0.056-0.127L16.6,17.688l-0.108-0.223l-0.025-0.178
			l0.003-0.111l-0.041-0.086l-0.12-0.204l-0.114-0.206l-0.045-0.242l-0.027-0.194l-0.091-0.269l-0.049-0.129l-0.042-0.115
			l-0.036-0.103l-0.093-0.266l-0.123-0.183l-0.149-0.177l-0.11-0.188l-0.094-0.124l-0.047-0.198l-0.063-0.165l-0.139-0.221
			l-0.119-0.217l-0.082-0.236l-0.145-0.31l-0.087-0.189l-0.082-0.18L14.499,12.8l-0.05-0.137l-0.015-0.077l-0.009-0.065
			l-0.011-0.164l0.021-0.129l0.029-0.101l0.05-0.212l0.046-0.321l0.031-0.191l0.021-0.158l-0.036-0.087L14.43,11.09l-0.207-0.136
			l-0.149-0.158l-0.164-0.164l-0.104-0.134l-0.086-0.03l-0.076,0.078l-0.094-0.027l-0.068-0.098l-0.023-0.016l-0.049,0.011
			l-0.122-0.134l-0.07-0.084l-0.132-0.15l-0.094-0.103l-0.146-0.177l-0.135-0.153l-0.063-0.06l-0.097-0.09l-0.143-0.168
			l-0.146-0.174l-0.064-0.104l-0.062-0.195L12.08,8.608l-0.117-0.034l-0.162-0.053L11.607,8.47l0.005-0.085l0.071-0.099l0.166-0.082
			l0.103-0.121l0.051-0.077l0.043-0.089l0.076-0.291l0.011-0.168l-0.005-0.139l-0.012-0.174l-0.021-0.144l-0.034-0.183l-0.038-0.236
			L12.01,6.398l-0.027-0.225l-0.008-0.105l-0.011-0.093L11.92,5.777l-0.035-0.182l0.026-0.156l0.054-0.25l0.071-0.179l0.076-0.255
			l0.067-0.21l0.048-0.141l0.012-0.115l-0.097-0.208l-0.082-0.25l-0.043-0.192l-0.059-0.281l-0.062-0.257l-0.043-0.149L11.76,2.658
			L11.654,2.27l0.001-0.212l-0.038-0.363L10.339,1.98L8.096,1.179l-1.924-0.24L3.85,0.538l-2.3,0.148l0.001,0.057l0.002,0.252
			l0.001,0.211L1.479,1.432L1.403,1.869L1.282,2.214L1.177,2.625l0.001,0.159L1.179,2.89l0.062,0.132l0.048,0.171v0.08l-0.046,0.08
			L1.151,3.486l-0.186,0.12L0.78,3.766l-0.124,0.12L0.579,3.992L0.551,4.151L0.536,4.414l0.035,0.45l0.131,0.978l0.097,0.423
			l0.062,0.172l0.095,0.118l0.202,0.131l0.125,0.105L1.314,6.87l0.001,0.119L1.239,7.227L1.07,7.374l-0.14,0.08L0.856,7.759
			l0.002,0.305l0.017,0.211l0.096,0.211l0.017,0.186l0.049,0.265l0.019,0.356L1.026,9.704l-0.024,0.795l-0.023,0.953l-0.117,0.94
			l-0.057,0.623l0.008,1.138l-0.039,0.913l-0.037,0.859l-0.138,0.372L0.57,16.562l0.002,0.225l0.125,0.264l0.188,0.303l0.343,0.25
			l0.249,0.236l0.156,0.159l0.248,0.077l0.293,0.025l0.542-0.003l0.771,0.05l0.217,0.051l0.125,0.146l0.11,0.277l0.095,0.396
			l0.297,0.488l0.08,0.344l0.251,0.688l0.235,0.541l0.018,0.305l0.111,0.463l0.145,0.7l0.11,0.478l0.165,0.241l0.006,0.009h0.046
			l0.461,0.072l0.151-0.021l0.092-0.049L6.3,23.15l0.041-0.283l0.008-0.18l0.097-0.152l0.396-0.118l0.186-0.099l0.097-0.151
			l0.014-0.31l-0.019-0.336l-0.104-0.391l0.01-0.232l0.034-0.102l0.092-0.023l0.12,0.004l0.417,0.115l0.121,0.004l0.083,0.157
			l0.083,0.209l0.022,0.156l0.146,0.159l0.117,0.08l0.179,0.031l0.093-0.049l0.035-0.128l0.063-0.101l0.123-0.074l0.238,0.084
			l0.12,0.003l0.181,0.006l0.097-0.126l0.034-0.128l0.064-0.103l0.304-0.041l0.241,0.008l0.151-0.021l0.123-0.074l0.253-0.275
			l0.131-0.254l0.381-0.453l0.219-0.174l0.246-0.147l0.4-0.194l0.43-0.166l0.221-0.227l0.315-0.326l0.378-0.4l0.271,0.008
			l0.212,0.007l0.148,0.031l0.056,0.13l-0.01,0.207l0.142,0.959l0.092,0.674l0.188,0.574l0.186,0.6l0.091,0.727v0.697l-0.109,0.582
			l-0.111,0.514l-0.199,1.156l-0.09,0.693l-0.021,0.516l0.093,0.648l-0.008,0.903l0.098,0.571l0.076,0.312l-0.01,0.231L14.3,29.352
			l-0.277,0.172l-0.188,0.174l-0.065,0.152l-0.006,0.129l0.022,0.182l0.175,0.134l0.204,0.136l0.146,0.159l-0.075,0.283L13.986,31.1
			l0.203,0.514l0.837,0.967l0,0l0.211-0.098l0.719-0.289l1.128-0.326l0.708-0.178l0.617-0.153l0.489-0.108l0.554-0.131l0.438-0.145
			l-0.022-0.254l0.041-0.275l0.193-0.249l0.161-0.282l0.205-0.438L20.637,29.277"/>
	</g>
</g>
<g id="Layer_1">
</g>
</svg>
