<?xml version="1.0" encoding="iso-8859-1"?>
<!-- Generator: Adobe Illustrator 16.0.4, SVG Export Plug-In . SVG Version: 6.00 Build 0)  -->
<!DOCTYPE svg PUBLIC "-//W3C//DTD SVG 1.1//EN" "http://www.w3.org/Graphics/SVG/1.1/DTD/svg11.dtd">
<svg version="1.1" xmlns="http://www.w3.org/2000/svg" xmlns:xlink="http://www.w3.org/1999/xlink" x="0px" y="0px"
	 width="27.952px" height="21.236px" viewBox="0 0 27.952 21.236" style="enable-background:new 0 0 27.952 21.236;"
	 xml:space="preserve">
<g id="Layer_174">
	<g id="Layer_179">
		<path id="DISTRICT_x3D_Bajaur_Agency_x2C_PROVINCE_x3D_F.A.T.A." style="fill:#CCCCCC;stroke:#FFFFFF;stroke-width:1.07;" d="
			M0.513,11.192L0.513,11.192l0.239,0.799l0.12,0.315l0.133,0.354l0.291,0.382l0.237,0.316l0.27,0.25l0.191,0.212l0.315,0.366
			l0.433,0.287l0.396,0.224l0.309,0.212l0.192,0.064l0.193,0.063l0.241,0.136l0.11,0.063l0.31,0.1l0.536,0.226l0.262-0.112
			l0.527,0.033l0.316,0.088l0.069,0.021l0.606,0.086l0.412-0.004l0.261-0.017l0.458,0.013l0.241-0.046l0.312-0.062l0.457-0.084
			l0.098-0.023l0.21-0.051l0.449-0.1l0.573-0.166l0.198-0.154l0.208-0.274l0.358-0.319l0.303-0.225l0.229-0.104l0.391-0.112
			l0.491-0.004l0.457,0.212l0.249,0.087l0.273,0.034l0.366-0.075l0.503-0.042l0.43-0.104l0.272-0.018l0.32,0.004l0.379-0.025
			l0.295,0.108l0.308,0.191l0.208,0.096l0.062,0.029l0.145,0.212l-0.137,0.208l-0.232,0.258l-0.245,0.291l-0.05,0.258l0.055,0.249
			l0.133,0.354l0.22,0.544l0.021,0.295l0.087,0.324l0.225,0.258l0.249,0.262l0.521,0.291l0.055,0.35l0.074,0.478l0.055,0.295
			l-0.004,0.249v0.038l0.004,0.392l-0.004,0.295l0.054,0.354l0.528,0.004l0.272-0.008l0.255-0.121l0.24-0.083l0.267-0.253
			l0.312-0.287l0.403-0.128l0.988-0.097l-0.015-0.045l-0.029-0.052l-0.03-0.044l-0.12-0.094l-0.058-0.044l-0.07-0.062l-0.07-0.051
			l-0.049-0.049l-0.043-0.037l-0.065-0.074l-0.075-0.098l-0.038-0.048l-0.023-0.039l-0.028-0.036l0.062-0.004l0.068,0.004
			l0.046-0.003l0.095-0.011l0.103-0.012l0.053-0.013l0.07-0.007l0.038-0.006l0.063-0.047l0.035-0.021l0.033-0.037l0.041-0.043
			l0.052-0.046l0.033-0.022l0.046-0.021l0.029-0.021l0.028-0.023l0.016-0.042l-0.008-0.078l-0.022-0.06l-0.022-0.045l-0.021-0.035
			l-0.021-0.028l-0.022-0.038l0.015-0.066l0.02-0.03l0.058-0.03l0.054-0.011l0.06-0.001l0.03-0.012l0.041-0.01h0.061h0.032h0.056
			l0.032-0.01l0.033-0.027l0.021-0.024l0.002-0.034l-0.002-0.042l-0.008-0.034l-0.007-0.035l-0.028-0.048l-0.028-0.049l-0.035-0.047
			l-0.019-0.042L21.53,17.7l-0.018-0.034l-0.002-0.037l0.008-0.064l-0.002-0.053l-0.008-0.041v-0.035l0.004-0.034l0.002-0.037
			l0.006-0.034l-0.009-0.029l0.004-0.015l0.015-0.039l0.034-0.041l0.031-0.024l0.035-0.022l0.044-0.039l0.03-0.053l0.006-0.05
			l0.005-0.047l0.018-0.056l0.02-0.034l0.034-0.054l0.041-0.069l0.028-0.061l0.014-0.035l0.027-0.031l0.035-0.029l0.035-0.028
			l0.035-0.033l0.033-0.04l0.014-0.041l0.009-0.045l0.009-0.046v-0.062l-0.009-0.06l-0.003-0.039l-0.004-0.046l0.007-0.044
			l0.011-0.04l0.005-0.033l-0.003-0.049l-0.013-0.053l-0.019-0.041l-0.023-0.032l-0.016-0.028l-0.006-0.035l0.004-0.054l0.009-0.06
			l0.005-0.02l0.156-0.023l0.032,0.005l0.072,0.008l0.043-0.017l0.047-0.036l0.027-0.05l0.033-0.041l0.037-0.027l0.041-0.021
			l0.03-0.014l0.029-0.011l0.041-0.011l0.045-0.01l0.047,0.004l0.044,0.004h0.062l0.045-0.002l0.037-0.008l0.053,0.006l0.059,0.008
			l0.04-0.002l0.062-0.028l0.054-0.03l0.021-0.025l0.015-0.043l0.01-0.041l0.01-0.061l0.035-0.021l0.04,0.011l0.078,0.019
			l0.039-0.006l0.03-0.042l-0.002-0.041v-0.041l-0.009-0.073l-0.004-0.05l-0.005-0.042l-0.013-0.033l-0.012-0.098l0.026-0.038
			l0.025-0.021l0.059-0.02l0.058,0.01l0.059,0.024l0.053,0.015l0.033,0.02l0.049,0.02l0.043,0.014h0.036l0.06-0.025l-0.005-0.062
			l-0.012-0.071l-0.002-0.038l0.002-0.046l0.008-0.048l0.031-0.038l0.038-0.037l0.036-0.021l0.068-0.004l0.04,0.012l0.045,0.014
			l0.051,0.02l0.042,0.02l0.044,0.025l0.025,0.02l0.064,0.016l0.06,0.01h0.05l0.043-0.002l0.062,0.002l0.056,0.006l0.07,0.01
			l0.036-0.002l0.044,0.005l0.047-0.007l0.041-0.008l0.04-0.012l0.04-0.027l0.024-0.047l0.04-0.037l0.006-0.032l0.003-0.033
			l0.021-0.038l0.033-0.009l0.037-0.006l0.057,0.019l0.049,0.01l0.052-0.013l0.048-0.044l0.033-0.04l0.021-0.073l0.014-0.045v-0.02
			v-0.038l0.008-0.047l0.017-0.042l0.03-0.064l0.085-0.188l-0.019-0.142l0.179-0.088l0.021-0.232l-0.052-0.086l-0.081-0.07
			l-0.051-0.062l0.026-0.11l0.075-0.084l0.055-0.271l0.078-0.09l-0.077-0.072l-0.094-0.026l-0.031-0.054l-0.039-0.049l-0.029-0.256
			l0.026-0.06l0.168-0.193l-0.061-0.03l-0.092-0.022l-0.049-0.171l-0.065,0.014l-0.117,0.015l-0.062-0.038l-0.031-0.122l0.087-0.115
			l-0.014-0.123l-0.025-0.098l0.016-0.126l-0.02-0.104l0.119-0.067l0.122-0.095l0.109-0.021l0.079,0.072l0.06,0.076l0.084,0.027
			l0.039-0.091l0.02-0.066l0.044-0.039l0.042-0.116l0.071-0.119l0.182-0.047l0.062-0.154l-0.047-0.213l0.058-0.103l0.102,0.001
			l0.09,0.09l0.107,0.097l0.101,0.025l0.104,0.021l0.1-0.007l0.119-0.076l0.162-0.131l0.095-0.085l-0.067-0.116l-0.085-0.017
			l-0.312-0.011L26.772,9.65l-0.008-0.128l-0.009-0.147L26.629,9.44l-0.1,0.053l-0.116,0.054l-0.157,0.017l-0.188-0.126l-0.29-0.278
			l-0.189-0.246l-0.101-0.212L24.87,8.558l-0.4-0.144l-0.148-0.193l-0.098-0.043l-0.327,0.018l-0.287,0.053L23.203,8.24
			l-0.285-0.126L22.781,7.84l-0.146-0.071l-0.24-0.084l-0.641-0.062l-0.439-0.009l-0.432-0.075l-0.354-0.047l-0.157-0.01
			L20.329,7.48L20.17,7.539l-0.26,0.088l-0.116-0.031l-0.14-0.078l-0.288-0.211L19.259,7.11l-0.031-0.13l0.004-0.185l-0.03-0.206
			l0.018-0.167l-0.013-0.169L19.177,6.13l-0.035-0.134l-0.059-0.131l-0.078-0.144l-0.094-0.196L18.848,5.28l-0.04-0.17l-0.105-0.189
			L18.58,4.723l-0.025-0.206l-0.272-0.486l-0.11-0.258l-0.11-0.165l-0.093-0.092l-0.184-0.221l-0.129-0.11l-0.222-0.166
			l-0.129-0.147l-0.092-0.128l-0.073-0.239l-0.037-0.129l-0.109-0.165l-0.073-0.129l-0.185-0.184L16.57,1.751l-0.275-0.147
			l-0.129-0.11l-0.368-0.257l-0.077-0.102l-0.19-0.148L15.43,0.878l-0.112-0.126l-0.144-0.135L15.021,0.6l0.001,0.052l-0.043,0.097
			l-0.121,0.276l-0.301,0.329l-0.216,0.034l-0.345,0.054l-0.345,0.315l-0.052,0.047l-0.887,0.225L12.396,2.11l-0.064,0.017
			l-0.528,0.28l-0.178,0.131l-0.26,0.192l-0.567,0.237l-0.337,0.141L9.799,3.307L9.195,3.356L8.603,3.501L8.537,3.518l-0.44,0.361
			L7.996,3.963L7.459,4.421L7.072,4.653L6.688,4.882L6.468,5.223L6.329,5.437L6.102,6.074L6.055,6.309L5.968,6.734l-0.003,0.02
			L5.658,7.433L5.425,7.949L5.082,8.238L4.41,8.431L4.047,8.535L3.365,9.8L3.286,9.916l-0.124,0.18l-0.245,0.218l-0.729,0.025
			l-0.242,0.008l-0.475,0.352l-0.105,0.08l-0.435,0.286l-0.363,0.121L0.513,11.192"/>
	</g>
</g>
<g id="Layer_1">
</g>
</svg>
