<?xml version="1.0" encoding="iso-8859-1"?>
<!-- Generator: Adobe Illustrator 16.0.4, SVG Export Plug-In . SVG Version: 6.00 Build 0)  -->
<!DOCTYPE svg PUBLIC "-//W3C//DTD SVG 1.1//EN" "http://www.w3.org/Graphics/SVG/1.1/DTD/svg11.dtd">
<svg version="1.1" xmlns="http://www.w3.org/2000/svg" xmlns:xlink="http://www.w3.org/1999/xlink" x="0px" y="0px"
	 width="26.841px" height="21.554px" viewBox="0 0 26.841 21.554" style="enable-background:new 0 0 26.841 21.554;"
	 xml:space="preserve">
<g id="Layer_168">
	<g id="Layer_173">
		<path id="DISTRICT_x3D_Bhimber_x2C_PROVINCE_x3D_AJK" style="fill:#CCCCCC;stroke:#FFFFFF;stroke-width:1.07;" d="M26.342,20.021
			L26.342,20.021l-0.057-0.146l-0.025-0.073V19.74l-0.021-0.06l-0.03-0.049l-0.074-0.211l-0.059-0.162l-0.026-0.078l-0.014-0.104
			l-0.021-0.086l-0.024-0.037l-0.012-0.051l-0.041-0.076l-0.016-0.059l-0.046-0.072l-0.049-0.109l-0.074-0.102l-0.062-0.065
			l-0.041-0.044l-0.071-0.078l-0.094-0.116l-0.071-0.11l-0.08-0.199l-0.028-0.082l-0.095-0.094L25.12,17.59l-0.053-0.033
			l-0.055-0.102l-0.026-0.059l-0.018-0.074l-0.021-0.047l-0.023-0.096l-0.039-0.061l-0.016-0.067l-0.016-0.09l-0.013-0.083
			l0.033-0.092l0.023-0.08l0.021-0.067l0.023-0.086l0.023-0.069l0.026-0.078l0.016-0.123l-0.007-0.067l-0.043-0.056l-0.02-0.051
			l-0.021-0.064l-0.011-0.077l0.039-0.032l-0.028-0.025l-0.016-0.039l-0.004-0.041l-0.092-0.069l-0.093-0.034l-0.066-0.027
			l-0.048-0.019l-0.093-0.036l-0.096-0.007l-0.127-0.024l-0.059-0.002l-0.058-0.033l-0.062-0.055l-0.045-0.041l-0.142-0.131
			l-0.078-0.06l-0.03-0.024l-0.03-0.011l-0.067-0.024l-0.111-0.011l-0.159-0.007l-0.148-0.021l-0.13-0.062l-0.083-0.039l0.032-0.033
			l0.15,0.03l-0.005-0.035l-0.022-0.019l-0.012-0.014l-0.041-0.017l-0.03-0.048l-0.017-0.021l-0.048-0.02l-0.066,0.014l-0.128-0.002
			l-0.062-0.002l-0.071-0.018l-0.062,0.014l-0.047-0.027l-0.103-0.029l-0.118-0.037l-0.127-0.024l-0.107-0.034l-0.095-0.019
			l-0.088,0.046l-0.166,0.061l-0.111-0.017l-0.118,0.013l-0.144,0.043l-0.097,0.018l-0.048,0.009L21.29,14.9l-0.06-0.006
			l-0.065-0.009l-0.027-0.051l-0.019-0.065l-0.067-0.006l-0.037-0.033l-0.055-0.012l-0.026-0.057l-0.054-0.038l-0.037-0.048
			l-0.045-0.043l0.086-0.236l0.135-0.088l0.372-0.254l0.155-0.11l0.229-0.151l0.052-0.069l-0.05-0.169l-0.055-0.184l-0.047-0.164
			l-0.072-0.276l-0.12-0.437L21.375,12l-0.079-0.354l-0.054-0.34l-0.108-0.23l-0.002-0.086l-0.015-0.043l0.028-0.091l-0.064-0.144
			l-0.086-0.042l-0.002-0.038l0.057-0.084l0.069-0.082l0.039-0.051l0.018-0.046l-0.007-0.041l-0.002-0.052l-0.037-0.027
			l-0.118-0.022l-0.122,0.022l-0.128,0.024l-0.161-0.025l-0.116-0.061l-0.154,0.038l-0.121-0.005l-0.161-0.038l-0.157-0.061
			l-0.174-0.087L19.58,10.04l-0.104-0.03L19.42,9.955l-0.069-0.063l-0.07-0.065l-0.123-0.072l-0.029-0.03l-0.102-0.03l-0.068-0.032
			l-0.033-0.016l-0.028-0.036l-0.102-0.066l-0.078,0.031l-0.079,0.025l-0.136,0.013h-0.028l-0.065-0.055l-0.021-0.042l-0.051-0.018
			l-0.107-0.011L18.2,9.47l-0.023-0.067l-0.086-0.036l-0.103-0.066l-0.072-0.066l-0.227-0.121l-0.202-0.157l-0.168-0.05
			l-0.087-0.021L17.145,8.87l-0.056-0.016l-0.102-0.057l-0.042-0.031l-0.09-0.028l-0.062-0.006l-0.05-0.022l-0.061-0.07
			l-0.078-0.105l-0.05-0.059l-0.104-0.011L16.357,8.52l-0.101,0.041L16.21,8.562l-0.049-0.027l-0.138-0.073l-0.279-0.187
			l-0.104-0.06l-0.082-0.014l-0.194,0.033l-0.119-0.001l-0.091-0.021l-0.123-0.001l-0.065-0.164l0.019-0.045V7.951l0.089-0.083
			l0.007-0.069l0.021-0.056l0.039-0.04l0.195,0.001l0.074-0.061l0.011-0.048L15.4,7.508l-0.095-0.133l-0.057-0.073l-0.096-0.053
			l-0.076-0.037l-0.068-0.047l-0.052-0.026l-0.086-0.056l-0.037-0.034L14.75,6.991L14.694,6.92l-0.062-0.102l-0.029-0.122
			l-0.009-0.097l0.04-0.145l0.012-0.082l0.005-0.186l-0.037-0.075l-0.167-0.007l-0.041-0.031l-0.073-0.104l-0.078-0.133
			l-0.073-0.141L14.08,5.537l-0.088-0.126l-0.088-0.113l-0.148-0.179l-0.09-0.062l-0.155-0.15l-0.157-0.092L13.3,4.809L13.19,4.768
			l-0.223-0.03l-0.065-0.019l-0.059-0.034l-0.141-0.081l-0.09-0.086l-0.127-0.105l-0.087-0.051l-0.061,0.004l-0.116-0.023
			L12.126,4.33l-0.278,0.014l-0.062,0.001l-0.097-0.018l-0.058-0.03l-0.099-0.068l-0.089-0.081L11.35,4.063l-0.07-0.085
			l-0.048-0.069l-0.062-0.062l-0.111-0.119l-0.062-0.082L10.933,3.57l-0.142-0.081l-0.09-0.041l-0.123-0.059l-0.141-0.041
			l-0.257-0.067l-0.168,0.062L9.991,3.234L9.907,3.155L9.82,3.059L9.672,2.987L9.563,2.974L9.426,3.036L9.302,3.093L9.156,3.088
			L9.047,3.017l-0.08-0.065l-0.084-0.04L8.754,2.877L8.693,2.852L8.595,2.777L8.525,2.68L8.464,2.636L8.381,2.597L8.269,2.566
			l-0.06-0.018L8.095,2.481L8.039,2.427L8.018,2.394L7.988,2.153l-0.01-0.097l0.062-0.209l0.024-0.064L8.021,1.65L7.959,1.543
			L7.945,1.464L7.94,1.37l0.062-0.154l0.048-0.147l0.035-0.062l0.026-0.08L7.959,0.918l-0.16,0.119l-0.084,0.01l-0.057,0.03
			L7.606,1.103L7.511,1.15L7.479,1.192L7.436,1.218l-0.07,0.066l-0.169,0.16L7.02,1.592L6.851,1.727l0.015-0.122l0.002-0.074
			L6.829,1.429L6.807,1.372L6.772,1.361L6.617,1.416l-0.108,0.03L6.374,1.467L6.265,1.405L6.207,1.367L6.132,1.276l-0.08-0.071
			L5.985,1.141L5.971,1.104l0.126,0.005l0.011-0.021L6.101,1.032L6.047,0.971l-0.052-0.05L5.941,0.876L5.896,0.85L5.851,0.819
			L5.786,0.783L5.7,0.743l-0.06-0.027l-0.102-0.03L5.459,0.65L5.375,0.745l-0.072,0.1L5.256,0.961L5.226,1.06L5.147,1.023
			L5.105,1.12L5.062,1.134L5.05,1.183L4.982,1.254L4.9,1.303l-0.098,0.02l-0.124,0.02L4.649,1.375l-0.04,0.072L4.548,1.504
			L4.524,1.549L4.491,1.617l-0.06,0.057l-0.03,0.062L4.366,1.793L4.247,1.847L4.168,1.871L4.167,1.907L4.123,1.919L4.086,1.903
			L4.037,1.904l-0.04-0.037L3.955,1.84L3.9,1.825l0.034,0.084L3.929,1.958v0.056l0.023,0.104v0.053l0.001,0.072l0.023,0.049
			l0.018,0.074l0.037,0.078L4.023,2.518L4.006,2.586L3.959,2.681L3.946,2.715l0.062,0.071l0.014,0.076L4.014,2.948L3.935,3.001
			L3.862,3.082L3.795,3.166L3.788,3.202L3.803,3.27l0.015,0.02l0.052,0.033l0.03,0.026l0.03,0.016l0.067,0.066l0.047,0.066
			l0.033,0.104l0.048,0.136l0.062,0.074l0.08,0.107l0.004,0.08l0.031,0.125l-0.062,0.05l-0.04,0.052L4.139,4.288L4.066,4.34
			L3.987,4.407L3.919,4.484L3.885,4.566l-0.146,0.09L3.669,4.682l-0.17,0.069l-0.062,0.04L3.288,4.865L3.163,4.918L3.046,4.961
			L2.962,4.969L2.857,5.037L2.799,5.08L2.757,5.151l0.021,0.108l0.035,0.135L2.805,5.469l0.046,0.078l0.051,0.145l0.021,0.082
			l0.003,0.091L2.912,6.027L2.891,6.139L2.88,6.176L2.865,6.284L2.777,6.343L2.633,6.382L2.448,6.446L2.324,6.503L2.207,6.564
			L2.145,6.611L2.083,6.646L2.046,6.682L1.992,6.735L1.916,6.821L1.864,6.883L1.809,6.98L1.76,7.059L1.722,7.11L1.693,7.14
			L1.646,7.197l0.021,0.051l0.021,0.033l0.039,0.051l0.047,0.06l0.032,0.036L1.87,7.506l0.032,0.047l0.022,0.046l0.05,0.095
			l0.038,0.042l0.048,0.07l0.107,0.15l0.08,0.115L2.314,8.12l0.06,0.022l0.153,0.025L2.59,8.188L2.713,8.25l0.02,0.028l0.073,0.116
			L2.784,8.437l0.019,0.004L2.768,8.485L2.762,8.522L2.729,8.639L2.64,8.855L2.535,9.037L2.401,9.193L2.303,9.292L2.116,9.363
			L1.967,9.457L1.785,9.563L1.768,9.605l-0.01,0.184l0.004,0.125l0.007,0.123l-0.034,0.024l-0.097,0.082L1.632,10.23l-0.047,0.075
			l-0.097,0.024l-0.175-0.064l-0.118-0.076l-0.07-0.005l-0.149,0.024l-0.057,0.063l-0.072,0.146l-0.051,0.137l-0.261,0.303v0.008
			l0.922-0.441l0.392-0.15l0.139-0.104l0.533-0.137l0.275-0.07L3.038,9.94l0.045-0.015L3.246,9.87l0.275-0.011l0.23,0.011
			l0.738,0.139l0.877,0.508l0.127,0.173l0.161,0.126l0.054,0.113l0.027,0.061l0.029,0.029l0.098,0.098l0.175,0.381l0.668,0.98
			l0.242,0.276l0.105,0.083l0.056,0.044l0.094,0.138l0.129,0.057l0.033,0.014l0.36,0.242l0.158,0.104l1.015,0.438l0.125,0.039
			l0.456,0.14l0.318,0.1l0.793,0.183l0.408,0.095l0.266,0.104l0.627,0.312l0.157,0.078l0.323,0.221l0.516,0.188l0.304,0.111
			l0.521,0.234l0.068,0.03l0.047,0.03l0.076,0.05l0.072,0.047l0.318,0.12l0.144,0.053l0.322,0.162l0.087,0.031l0.778,0.281h0.001
			l0.04,0.021l0.217,0.11l0.332,0.168l0.427,0.162l0.346,0.195l0.208,0.069l1.327,0.692l0.131,0.047l0.505,0.184l0.161,0.104
			l0.461,0.174l0.385,0.176l0.17,0.078l0.168,0.094l0.352,0.195l0.255,0.082l0.206,0.068l0.104-0.004l0.174-0.009l0.081,0.243
			l0.115,0.449l0.192,0.295l0.05,0.074l0.301,0.324l0.381,0.266l0.292,0.115l0.203,0.08l0.301,0.059l0.346,0.023l0.565-0.059
			l0.474-0.161l0.312-0.226l0.057-0.041l0.065-0.043l0.314-0.209l0.428-0.192l0.012-0.005l0.247-0.057L26.342,20.021"/>
	</g>
</g>
<g id="Layer_1">
</g>
</svg>
