<?xml version="1.0" encoding="iso-8859-1"?>
<!-- Generator: Adobe Illustrator 16.0.4, SVG Export Plug-In . SVG Version: 6.00 Build 0)  -->
<!DOCTYPE svg PUBLIC "-//W3C//DTD SVG 1.1//EN" "http://www.w3.org/Graphics/SVG/1.1/DTD/svg11.dtd">
<svg version="1.1" xmlns="http://www.w3.org/2000/svg" xmlns:xlink="http://www.w3.org/1999/xlink" x="0px" y="0px" width="93.56px"
	 height="74.416px" viewBox="0 0 93.56 74.416" style="enable-background:new 0 0 93.56 74.416;" xml:space="preserve">
<g id="Layer_101">
	<g id="Layer_106">
		<path id="DISTRICT_x3D_Lasbela_x2C_PROVINCE_x3D_Balochistan_7_" style="fill:#CCCCCC;stroke:#FFFFFF;stroke-width:1.07;" d="
			M62.922,73.795L62.922,73.795l0.204-0.312l0.291-0.297l0.308-0.272l0.408-0.322l0.385-0.264l0.435-0.372l0.42-0.408l0.444-0.42
			l0.476-0.35l0.239-0.135l0.48-0.158l0.416-0.168l0.452-0.204l0.347-0.262l0.334-0.249l0.297-0.152l0.479-0.218l0.628-0.126
			l0.667-0.138l0.694-0.093l0.443-0.107l0.297-0.164l0.631-0.486l0.443-0.479l0.521-0.49l0.471-0.468l0.329-0.404l0.448-0.408
			l0.357-0.355l0.316-0.369l0.074-0.169l-0.02-0.167l-0.119-0.417l-0.117-0.332l0.029-0.395l0.09-0.506l0.031-0.264l0.055-0.302
			l0.15-0.231l0.264-0.427l0.313-0.477l0.149-0.244l0.099-0.229l0.151-0.185l0.246-0.175l0.277-0.138l0.467-0.276l0.439-0.264
			l0.218-0.174l0.31-0.2l0.295-0.259l0.268-0.331l0.084-0.254l0.141-0.159l0.207-0.149l0.151-0.184l0.021-0.192l-0.019-0.154
			l0.034-0.169l0.109-0.29l0.299-0.561l0.216-0.258l0.258-0.229l0.194-0.125l0.042-0.024l-0.14-0.065l0.049-0.504l-0.014-0.306
			l0.006-0.338l0.111-0.266l0.031-0.267l0.138-0.216l0.464-0.524l0.221-0.408l0.141-0.434l-0.062-0.97l-0.017-0.532l0.013-0.63
			l0.11-0.24l0.408-0.381l0.624-0.547l0.207-0.479l0.33-0.552l0.353-0.236l0.403-0.139l0.512-0.21l0.516-0.403l0.248-0.383
			l0.223-0.48l0.007-0.34l0.032-0.338l0.031-0.218l0.244-0.165l0.727-0.278l0.486-0.259l0.33-0.382l0.469-0.791l0.199-0.554
			l0.201-0.675l0.008-0.363l0.229-0.771l0.259-0.866l0.034-0.363l0.142-0.36l0.396-0.741l0.469-0.67l0.439-0.573l0.469-0.598
			l0.546-0.522l0.412-0.479l0.335-0.672l0.09-0.411l0.062-0.411l-0.15-0.511l-0.253-0.683l-0.151-0.463l-0.072-0.391l-0.021-0.218
			l0.141-0.337l0.069-0.727l-0.011-0.728l0.072-0.845l-0.012-0.68l0.186-1.159l0.154-0.847l0.088-0.36l0.066-0.629l0.088-0.339
			l0.311-0.697l0.033-0.267l-0.047-0.291l-0.183-0.295l-0.37-0.297l-0.281-0.611L91.8,23.014l-0.179-0.438l-0.128-0.27l-0.132-0.173
			l-0.396-0.272l-0.238-0.125l-0.322-0.079l-0.213-0.102l-0.207-0.343l-0.155-0.293l-0.212-0.559l-0.098-0.511l-0.227-0.707
			L88.9,18.579l-0.282-0.635l-0.567-1.222l-0.494-0.834l-0.363-0.636l-0.285-0.562L86.6,14.006l-0.312-0.635l-0.366-0.54
			l-0.443-0.71l-0.365-0.661l-0.504-0.903l-0.474-0.564l-0.26-0.489l-0.157-0.245L83.48,9.035l-0.346-0.247l-0.292-0.296
			l-0.21-0.295l-0.178-0.584l-0.41-1.146L81.812,5.93l-0.281-0.828l-0.303-1.146l-0.223-1.071l-0.309-0.854l-0.096-0.656
			l-0.205-0.723l-0.08-0.099L80.02,0.574l-0.791,0.425l-0.957,0.568l-1.09,0.47l-0.871,0.399L75.71,2.768l-0.817,0.448L74.374,3.5
			l-0.272,0.19l-0.22,0.19l-0.11,0.191l-0.004,0.146l-0.002,0.146l0.131,0.268l0.211,0.271l0.205,0.36l0.129,0.342l0.074,0.414
			l0.102,0.39l0.048,0.34l0.159,0.147l0.16,0.1l0.242,0.124l0.078,0.147l0.077,0.171l0.077,0.242l0.131,0.245l0.21,0.317
			l0.211,0.294l0.21,0.343l0.236,0.294l0.186,0.173l0.133,0.147l0.104,0.269l0.312,0.636l0.211,0.27l0.234,0.416l0.237,0.294
			l0.263,0.368l0.453,0.249l0.159,0.172l0.103,0.316l0.199,0.853l0.233,0.921l0.125,0.535l0.101,0.341l0.184,0.317l0.156,0.245
			l0.24,0.148l0.32,0.15l0.455,0.128l0.188,0.052l0.188,0.075l0.105,0.123l0.022,0.243l0.021,0.388l-0.016,0.775l0.014,0.68
			l0.062,1.043l-0.034,0.363l-0.117,0.481l-0.114,0.338l-0.041,0.728l-0.014,0.728l-0.05,1.307l-0.052,1.284l-0.117,0.556
			l-0.344,1.085l-0.254,0.724l-0.117,0.458l-0.01,0.559l0.148,0.704l0.172,0.852l0.092,0.85l0.037,0.85l0.096,0.582l-0.032,0.265
			l-0.035,0.411l-0.005,0.29l0.072,0.365l0.129,0.268l-0.002,0.194l-0.031,0.193l-0.137,0.19l-0.299,0.237l-0.138,0.168
			l-0.085,0.289L80.16,35.23l0.096,0.606l0.069,0.631l-0.063,0.483l-0.195,0.457l-0.328,0.383l-0.219,0.263l-0.219,0.19
			l-0.189,0.118l-0.401,0.043l-0.429,0.018l-0.512,0.09l-0.32-0.005l-0.373-0.103l-0.375,0.043l-0.538,0.113l-0.619,0.16
			l-0.349,0.093l-0.428-0.006l-0.535-0.032l-0.024,0.003l-0.01-0.127l-0.038-0.279l-0.145-0.053l0.176-0.341l0.152-0.486
			l0.008-0.383l-0.01-0.365l-0.199-0.628l-0.34-1.023l-0.219-0.595l-0.273-0.593l-0.109-0.663l-0.109-0.628l-0.302-0.975
			l-0.164-0.596l-0.315-0.759l-0.252-0.478l-0.307-0.442l-0.293-0.608l-0.253-0.494l-0.203-0.66l-0.258-0.659l-0.123-0.432
			l-0.267-0.906l-0.053-0.581l-0.074-0.647l-0.221-0.661l-0.229-0.942l-0.161-0.479l-0.239-0.645l-0.325-1.041l-0.144-0.514
			l-0.151-0.644l-0.113-0.747l-0.267-0.943l-0.217-0.493l-0.327-0.459l-0.398-0.373l-0.252-0.41l-0.33-0.56l-0.392-0.739
			l-0.271-0.41l-0.101-0.265l-0.028-0.35l-0.098-0.729l-0.098-0.813l-0.258-1.227l-0.152-0.812l-0.216-1.061l-0.104-0.447L65,8.401
			l-0.132-0.063l-0.095-0.03l-0.129,0.003L64.5,8.413L64.355,8.55l-0.127,0.12l-0.127,0.069l-0.203,0.005l-0.43-0.09l-0.111-0.03
			l-0.111,0.003l-0.111,0.02l-0.054,0.052L62.991,8.8l-0.017,0.052l0.002,0.115l0.041,0.116l0.004,0.133l0.002,0.05l-0.071,0.087
			l-0.073,0.033L62.75,9.389l-0.076-0.063l-0.132-0.097L62.467,9.18l-0.076-0.031l-0.092,0.019l-0.162,0.121l-0.203,0.038
			l-0.332,0.075l-0.406,0.01l-0.297,0.007l-0.146,0.054L60.551,9.51l-0.24,0.039l-0.205,0.005L59.885,9.61l-0.189,0.141
			l-0.163,0.138l-0.087,0.17l-0.107,0.136l-0.031,0.184l-0.015,0.102l-0.015,0.116l-0.088,0.136l-0.301,0.183l-0.082-0.122
			l-0.271-0.593l-0.312-0.664l-0.817-0.696l-0.39-0.14l-0.232-0.034L56.551,8.7l-0.195,0.141l-0.31,0.175l-0.389,0.105l-0.466,0.002
			l-0.272-0.14l-0.155,0.001l-0.543,0.245l-0.504,0.386l-0.271,0.28l-0.155,0.175l-0.193,0.001l-0.429-0.104l-0.545-0.208
			l-0.506-0.243L50.801,8.82l-0.39-0.174l-0.156-0.033l-0.271,0.035L49.807,8.63l-0.428-0.173L48.407,8.32l-1.01-0.065l-0.39-0.139
			l-0.429-0.452L46.227,7.56l-0.39-0.242L45.68,7.108l-0.155,0.001l-0.271,0.105l-0.582,0.281L44.171,7.85l-0.195,0.14L43.589,8.34
			l-0.155,0.176L43.358,8.83l-0.035,0.699l-0.033,0.942l0.004,0.733L43.142,11.8l-0.307,0.562l-0.27,0.314l-0.387,0.178l-0.31,0.141
			l-0.466,0.274l-0.387,0.317l-0.23,0.315l-0.114,0.313l-0.036,0.42l0.004,0.594l-0.187,1.118l0.004,0.595l0.083,0.731l0.198,0.593
			l0.549,1.011l0.432,0.767l0.354,1.046l0.164,1.325l0.239,1.187l0.125,0.938l0.237,0.837l0.202,1.396l0.357,1.568l0.2,1.082
			l0.276,1.011l0.158,0.594l0.2,1.186l0.237,0.941l0.043,0.872l-0.112,0.523l-0.345,0.561l-0.342,0.941l-0.457,1.05l-0.533,1.118
			l-0.456,1.225l-0.379,1.118l-0.648,1.225l-0.724,1.189l-0.456,1.015l-0.494,0.944l-0.952,1.574l-0.628,0.974l-0.685,1.118
			l-0.686,0.946l-0.726,0.632l-0.497,0.388l-0.269,0.071l-0.231,0.001l-0.385-0.137l-0.464-0.346l-0.581-0.52l-0.425-0.242
			l-0.231-0.103l-0.271-0.104l-0.154,0.001l-0.421,0.213l-0.537,0.178l-0.384,0.004l-0.424-0.137l-0.232-0.104l-0.234-0.381
			l-0.194-0.278l-0.309-0.102l-0.192,0.036l-0.384,0.071l-0.497,0.354l-0.575,0.249l-0.577,0.039l-0.771-0.133l-1.12-0.409
			l-0.966-0.41l-0.811-0.271l-0.448-0.176l-0.462,0.005l-1.113,0.255l-1.15,0.358l-1.264,0.5l-1.073,0.359l-0.763,0.461
			l-1.375,0.815l-1.3,0.606l-0.921,0.15l-0.577-0.063l-0.387-0.171l-0.117-0.138l-0.002-0.175l0.075-0.176l0.536-0.215l0.497-0.215
			l0.419-0.319l0.149-0.314l0.034-0.35l0.15-0.279l0.267-0.179l0.075-0.175l-0.119-0.276l-0.117-0.14l-0.042-0.277l0.031-0.524
			l0.034-0.384l-0.161-0.486l-0.12-0.383l-0.426-0.239l-0.427-0.273l-0.079-0.14l-0.004-0.278l0.113-0.177l-0.004-0.277
			l-0.235-0.348l-0.353-0.448l-0.041-0.175l-0.002-0.14l0.266-0.282l0.292-0.27l0.384-0.109l0.231-0.002l0.037-0.141l-0.002-0.174
			l-0.195-0.174l-0.002-0.139l0.147-0.49l0.188-0.421l0.11-0.42l-0.08-0.174l-0.194-0.104L14,40.812l-0.267,0.247l-0.65,0.392
			l-0.73,0.183l-0.846,0.148l-0.383,0.214l-0.457,0.389l-0.609,0.496l-0.653,0.183l-0.537,0.181l-0.577,0.077L8.02,43.255
			l-0.308,0.039l-0.727,0.357l-0.342,0.316L6.57,44.213l0.081,0.278l0.041,0.174l-0.114,0.106l-0.192,0.036l-0.155-0.032
			l-0.156-0.173L5.569,44.26L5.22,44.125l-0.31-0.137L4.794,43.99L4.64,43.992l0.002,0.14l0.081,0.243l0.041,0.104L4.65,44.585
			l-0.193,0.003l-0.27,0.003L3.88,44.665l-0.496,0.32l-0.188,0.315l-0.337,0.599l-0.343,0.248l-0.193-0.032l-0.196-0.241
			l-0.273-0.171l-0.192-0.032l-0.116,0.001l-0.152,0.143l-0.536,0.182L0.6,46.178l0.151,0.673l0.066,1.438l-0.042,1.373l0.067,1.472
			l-0.06,0.772l-0.073,0.327L0.635,52.69l0.07,0.458l0.143,0.326l0.251,0.394l0.754,0.559l0.219,0.22l-0.001,0.207L2.05,55.021
			l0.099-0.08l0.334-1.146l0.121-0.214l0.155-0.129l0.557-0.123l0.757,0.033l0.492-0.076l0.481,0.055l0.362-0.494l-0.071,0.411
			l0.071,0.075l0.488,0.012l0.307,0.177l0.229-0.012l0.764-0.332l0.379-0.062l0.146,0.033l1.327,0.306l1.308-0.025l0.262,0.081
			l0.34-0.075l0.205,0.076l0.323-0.022l0.99,0.266l0.694-0.05l0.163-0.09l0.18-0.1l0.244-0.255l0.83-1.388l0.154,0.013l-0.228,0.551
			l-0.068,0.472l-0.192,0.495l-0.226,0.235l-0.388,0.235l0.032,0.067l0.163,0.019l0.3-0.101l0.783,0.188l2.636,0.637l0.536,0.019
			l0.484,0.108l0.217-0.046l1.025-0.464l0.64-0.008l0.707-0.009l0.912-0.423l0.873-0.301l0.943-0.06l0.386-0.104l0.177-0.086
			l0.315-0.354l0.311-0.083l0.569-0.423l0.414-0.307l0.942-0.241l0.85-0.029l1.85,0.275l0.968,0.054l0.556-0.092l0.089-0.016
			l0.519,0.064l1.704-0.308l0.765-0.016l0.14-0.066l0.06-0.124l-0.372-0.342l-0.045-0.128l0.086-0.186l0.532,0.298l-0.012-0.397
			l0.146,0.036l0.18,0.331l0.033,0.26l0.08,0.065l0.202,0.019l1.123-0.273l1.079-0.393l1.187-0.287l0.201-0.051l1.427-0.128
			l3.082-0.492l1.002-0.052l0.762-0.038l1.885,0.036l1.582,0.284l1.431,0.447l0.957,0.299l1.516,0.688l2.16,0.844l0.308,0.031
			l0.272-0.08l0.09-0.07l0.205-0.158l0.06-0.158l-0.674-0.504l-0.25-0.033l-0.322-0.144l-0.144-0.212l-0.088-0.439l0.149-0.457
			l0.706-0.635l0.04-0.357l0.163-0.196l-0.038-0.189l-0.629-0.212l-0.274-0.092l-0.355-0.047l-0.495,0.036l-0.285,0.038
			l-0.517,0.185l-0.631,0.407l-0.235,0.069l-0.354,0.006l-0.279-0.259l-0.424-0.062l-0.168-0.089l-0.055-0.153l0.065-0.42
			l-0.397,0.085l-0.08-0.101l0.113-0.144l0.139-0.171l-0.129-0.308l-0.373-0.187l-1.027,0.137l-0.232-0.086l-0.191-0.191
			l-0.117-0.256l-0.088-0.456l-0.23-0.199l-0.329-0.073l-0.353,0.015l-0.37,0.259l-0.363,0.006l-0.055,0.062l0.379,0.115l0.018,0.03
			l0.044,0.071l-0.168,0.085l-1.007-0.237l-0.208,0.052l-0.305,0.203l-0.14,0.284l-0.361,0.23l-0.131,0.259l-0.322,0.256
			l-0.224,0.112l-0.307-0.021l-0.345,0.161l-0.406,0.304l-0.796,0.287l-0.369,0.134l-0.254-0.103l-0.304,0.057l-0.411,0.19
			l-0.389,0.051l-0.55,0.283l-0.238,0.019l-0.087-0.196l-0.144-0.02l-0.436,0.278l-0.246,0.054l-0.048-0.187l0.034-0.262
			l-0.099-0.074l-0.143,0.015l-0.346,0.327l-0.269,0.159l-0.192-0.027l-0.068-0.062l-0.112-0.104l0.158-0.268l0.168-0.068h0.421
			l0.121-0.064l0.051-0.323l0.127-0.136l0.488-0.169l0.165-0.146l0.059-0.158l-0.145-0.401l0.248-0.394l-0.198-0.312l0.074-0.246
			l0.218-0.228l0.495-0.246l0.221-0.175l0.117-0.159l0.106-0.145l0.545-0.388l0.253-0.279l0.159-0.467l0.229-0.2l0.264-0.09
			l0.583-0.032l0.548,0.438l0.166,0.071l0.19-0.017l0.073-0.072l0.022-0.322l0.17-0.051l0.158,0.089l0.142-0.021l0.352-0.249
			l0.232-0.086l0.322-0.119l0.278-0.186l0.481-0.124l0.457-0.253l0.134,0.013l0.16,0.322l0.271,0.241l0.717-0.012l0.568-0.311
			l0.679,0.189l0.264-0.122l0.143,0.011l0.103,0.118l-0.134,0.188l0.098,0.163l0.143,0.234l0.172-0.007l0.146-0.11l0.121,0.291
			l0.663,0.469l0.398-0.276l1.151-0.115l0.375-0.179l0.154-0.172l0.073-0.246l-0.026-0.363l0.204-0.139l0.173,0.229l-0.05,0.34
			l0.082,0.118l0.228-0.034l0.061,0.051l0.152,0.565l-0.229,0.644l0.083,0.145l0.142-0.031l0.054-0.105l-0.038-0.189l0.051-0.141
			l0.322-0.273l0.152,0.168l0.389-0.067l0.08,0.084l-0.131,0.257l0.091,0.118h0.229l0.137-0.127l0.004-0.286v-0.044l0.113-0.248
			l0.205-0.111l0.125-0.161l-0.145-0.229l0.365-0.17l0.062-0.706l0.192-0.391l0.217-0.269l0.186-0.12l0.189-0.042l0.09,0.065
			l0.031,0.06l-0.167,0.528l-0.226,0.286l0.043,0.076l0.217-0.044l0.1,0.059l0.066,0.205l-0.112,0.332l-0.231,0.68l-0.144,0.196
			l-0.384,0.197l-0.252,0.713l0.197,0.322l0.33,0.309l-0.068,0.149l0.08,0.103l0.355,0.093l0.168,0.043l0.221-0.009l0.248-0.191
			l0.203,0.235l0.041,0.259l-0.057,0.507l-0.064,0.574l0.041,0.832l-0.066,0.228l0.197,0.73l0.01,0.407l0.558,0.292l0.613,0.443
			l0.249,0.426L58.33,51.84l-0.348,0.152l-0.094,0.102l-0.143,0.15l-0.071,0.315l0.228,0.771l-0.014,0.313l-0.095,0.203l-0.24,0.174
			l-0.134-0.003l-0.177-0.099L57.1,53.734l-0.093-0.552l-0.216-0.141l-0.209,0.842l-0.006,0.277l0.156,0.289l0.25,0.213l0.14,0.12
			l2.351,1.281l1.137,0.842l0.971,0.874l0.324,0.292l1.244,1.333l0.938,1.376l0.268,0.393l0.196,0.549l0.087,0.656l-0.229,1.05
			l-0.166,0.337l-0.639,0.84l-0.033,0.539L63.211,65.4l-0.077,0.104l-0.103,0.14l-0.055,0.262l0.23,0.694l0.104,1.428l-0.129,0.316
			l-0.523,0.827l-0.043,0.166l-0.07,0.28l0.206,0.765l0.007,0.109l0.061,0.938l-0.137,0.144l-0.748,0.479l-0.09,0.135l-0.061,0.322
			l0.123,0.611l0.354,0.672l0.137,0.082l0.342,0.005L62.922,73.795"/>
	</g>
</g>
<g id="Layer_1">
</g>
</svg>
