<?xml version="1.0" encoding="iso-8859-1"?>
<!-- Generator: Adobe Illustrator 16.0.4, SVG Export Plug-In . SVG Version: 6.00 Build 0)  -->
<!DOCTYPE svg PUBLIC "-//W3C//DTD SVG 1.1//EN" "http://www.w3.org/Graphics/SVG/1.1/DTD/svg11.dtd">
<svg version="1.1" xmlns="http://www.w3.org/2000/svg" xmlns:xlink="http://www.w3.org/1999/xlink" x="0px" y="0px"
	 width="60.137px" height="41.768px" viewBox="0 0 60.137 41.768" style="enable-background:new 0 0 60.137 41.768;"
	 xml:space="preserve">
<g id="Layer_93">
	<g id="Layer_98">
		<path id="DISTRICT_x3D_Mansehra_x2C_PROVINCE_x3D_NWFP" style="fill:#CCCCCC;stroke:#FFFFFF;stroke-width:1.07;" d="M59.543,4.068
			L59.543,4.068l0.05-0.131l0.009-0.061V3.712l-0.026-0.086l-0.111-0.13l-0.104-0.078l-0.096-0.017L59.048,3.34l-0.146-0.078
			L58.78,3.193l-0.165-0.095l-0.138-0.078l-0.069-0.104V2.805l0.043-0.052l0.121-0.061l0.043-0.139l0.104-0.164V2.276l-0.053-0.139
			l-0.053-0.112l-0.12-0.095l-0.112,0.086l-0.068,0.086L58.14,2.207l-0.112,0.078l-0.181,0.018l-0.104-0.07l-0.189-0.112
			l-0.129-0.13L57.25,1.938L57,1.834l-0.191-0.009L56.74,1.92l-0.053,0.078l-0.111,0.07l-0.182,0.025h-0.165l-0.242-0.025
			l-0.155-0.026l-0.173-0.069l-0.095,0.018l-0.104,0.078h-0.19l-0.121-0.052l-0.078-0.086L54.874,1.75L54.77,1.567l-0.146-0.208
			l-0.155-0.009l-0.216-0.06l-0.131-0.069l0.009-0.139l-0.077-0.138l-0.009-0.182l0.018-0.147l-0.139-0.026l-0.062,0.086
			l-0.009,0.112L53.74,0.866h-0.12l-0.208-0.018h-0.183l-0.112,0.061l-0.05,0.032l-0.088,0.055L52.814,1.1l-0.259,0.233
			l-0.208,0.104l-0.189,0.035l-0.186-0.032l-0.064,0.084l-0.087,0.118l-0.011,0.102l-0.003,0.033l0.073,0.261l0.038,0.178
			l-0.001,0.122l0.03,0.059l0.07,0.09l-0.056,0.125l-0.467,0.45l-0.119,0.059l-0.113,0.048l-0.09,0.088l-0.008,0.011l-0.004,0.004
			L51.05,3.405l-0.182,0.123l-0.11,0.071l-0.413,0.343L50.23,3.948l-0.175-0.005l-0.149-0.021L49.754,3.87l-0.239-0.013
			l-0.188,0.026l-0.168,0.032L49.033,3.94l-0.337,0.035l-0.4,0.04l-0.081,0.022l-0.057,0.015L48.13,4.063l-0.161,0.179l-0.146,0.23
			l-0.164,0.142l-0.146,0.14l-0.058,0.089l-0.007,0.022l-0.024,0.177L47.39,5.182l-0.002,0.082l0.045,0.272l0.013,0.073l0.025,0.087
			l0.012,0.042l-0.033,0.256l-0.09,0.156l-0.104,0.082l0.009,0.172l0.031,0.04l0.061,0.062l0.021,0.045l0.021,0.042l0.035,0.068
			l0.01,0.142L47.43,6.916l-0.058,0.046L47.324,7l-0.162,0.102l0.012,0.242l0.002,0.037l-0.068,0.173l-0.062,0.064l-0.47,0.418
			l-0.032,0.021l-0.078,0.053l-0.095,0.064l-0.046,0.027l-0.107,0.048l-0.087,0.018l-0.229-0.081L45.831,8.15l-0.084-0.042
			l-0.246-0.077l-0.069-0.044l-0.11-0.098l-0.155-0.137l-0.436-0.31h-0.002l-0.003-0.001l-0.149,0.036l-0.199,0.145l-0.13,0.082
			l-0.146,0.021l-0.278-0.032l-0.254-0.06L43.53,7.636l-0.126,0.018l-0.01,0.003L43.323,7.65l-0.084-0.022L43.15,7.586l-0.086-0.062
			l-0.172-0.032L42.75,7.511l-0.155-0.012l-0.093-0.067l-0.068-0.07l-0.052-0.069l-0.104-0.051L42.177,7.23l-0.14,0.012l-0.122,0.01
			l-0.103,0.059l-0.081,0.085l-0.01,0.098l-0.02,0.086L41.6,7.625l-0.194,0.002L41.21,7.66l-0.133-0.019L40.95,7.603l-0.142-0.028
			L40.785,7.6l-0.062,0.064l-0.074,0.171V7.84l0.027,0.097l0.025,0.091L40.689,8.17l-0.013,0.076l-0.065,0.097l-0.019-0.001
			l-0.004,0.006l-0.042,0.098l-0.094,0.158L40.338,8.68l-0.093,0.086l-0.088,0.128l-0.005,0.006l-0.091,0.084l-0.034,0.033
			L39.93,9.121l-0.17,0.052l-0.154,0.003l-0.1-0.021l-0.277-0.198L39.2,8.954l-0.11-0.012l-0.033-0.004l-0.151-0.026l-0.167-0.357
			l-0.039-0.032l-0.013-0.017L38.64,8.453l-0.065-0.07l-0.038-0.049l-0.003-0.003h-0.001l-0.005-0.01l-0.125,0.012L37.163,8.45
			l-0.474,0.044l-0.033,0.003l-0.012,0.101l-0.025,0.144l-0.029,0.13l-0.049,0.186l-0.092,0.086l-0.075,0.028l-0.106,0.024
			l-0.086,0.03l-0.04,0.007l-0.15-0.047l-0.133-0.083l-0.021,0.01l-0.094,0.08L35.73,9.271l-0.008,0.035l-0.062,0.313l-0.128,0.124
			l-0.092,0.125l-0.047,0.119l-0.001,0.026l-0.059,0.143l0.043,0.131l-0.008,0.14l-0.006,0.014l-0.077,0.221l-0.026,0.113
			l-0.018,0.03l-0.057,0.092l-0.074,0.085l-0.072,0.096l-0.07,0.091l-0.093,0.144l-0.052,0.059l-0.152,0.111l-0.082,0.042
			l-0.246,0.133l-0.024,0.012l-0.153,0.049l-0.208,0.011l-0.113,0.029l-0.061,0.018l-0.02,0.006l-0.167,0.084l-0.218,0.139
			l-0.137,0.107l-0.072,0.051l-0.034,0.023l-0.071,0.154l-0.119,0.054l-0.067,0.027l-0.09,0.082l-0.061,0.062l-0.067,0.076
			l0.062,0.117l0.011,0.044l0.01,0.042l0.043,0.125l0.021,0.113l0.019,0.13l0.02,0.083l0.001,0.093l0.009,0.091l0.02,0.083
			l0.064,0.091l-0.001,0.007l-0.048,0.123l-0.069,0.061l-0.138,0.045l-0.096,0.046l-0.082,0.04l-0.035,0.021l-0.151,0.087
			l-0.074,0.045l-0.082,0.06l-0.141,0.094l-0.12,0.075l-0.071,0.062l-0.068,0.063l-0.073,0.071l-0.051,0.069l-0.138,0.153
			L31.4,14.919l-0.061,0.089l-0.081,0.076l-0.069,0.075l-0.084,0.077l-0.139,0.085l-0.146,0.094l-0.104,0.065l-0.04,0.108
			l-0.023,0.055l-0.033,0.096l-0.025,0.138l-0.001,0.141l-0.001,0.084l0.002,0.093l-0.054,0.124l-0.098,0.059l-0.021,0.005
			l-0.358,0.055l-0.269,0.041l-0.411,0.062l-0.214,0.033l-0.054,0.004l-0.218,0.042l-0.066,0.055l-0.068,0.062l-0.021,0.036
			l-0.046,0.142l-0.02,0.088l-0.018,0.132l0.016,0.29l0.011,0.129l-0.085,0.128l-0.19,0.122l-0.462-0.016l-0.665-0.096l-0.367-0.156
			l-0.256-0.172l-0.473-0.069l-0.416-0.344l-0.364-0.044l-0.441-0.038H23.76l-0.203,0.034l-0.33,0.023h-0.232L22.6,17.022
			l-0.256,0.095l-0.186,0.095l-0.302,0.133l-0.325,0.115l-0.112,0.104l-0.169,0.183l0.036,0.152l0.029,0.161l0.118,0.21l0.074,0.122
			l0.143,0.167l0.049,0.079l0.027,0.107l-0.194,0.156l-0.043,0.073l-0.14,0.182l-0.109,0.021l-0.25,0.142l-0.057,0.152l-0.062,0.212
			l-0.148,0.274l-0.169,0.455l0.109,0.157l0.026,0.121l-0.001,0.128l-0.002,0.131l-0.095,0.305l-0.119,0.122l-0.208,0.13
			l-0.11,0.165l-0.027,0.089l-0.058,0.229l-0.016,0.25l0.005,0.24l0.006,0.201l-0.009,0.214l-0.06,0.011l-0.162,0.027l-0.75-0.023
			l-0.795-0.026l-0.4-0.101l-0.101-0.024l-0.129,0.114l-0.104,0.035l-0.138,0.073l-0.104,0.063l-0.179,0.088l-0.096,0.042
			l-0.09,0.051l-0.072,0.049l-0.034,0.024h-0.001l-0.002,0.002l-0.006,0.004v0.001l-0.024,0.022h-0.001L16.728,23.4l-0.079,0.07
			l-0.068,0.087l-0.091,0.118l-0.022,0.018l0,0l-0.072,0.059l-0.094,0.074h-0.002l-0.201,0.18l-0.019,0.066l-0.002,0.075
			l0.015,0.084v0.048l-0.003,0.039l-0.026,0.032l-0.026,0.04l-0.028,0.068L16,24.515l0.009,0.041L16,24.606l0.002,0.101l0,0
			l-0.048,0.197l-0.001,0.008l0.052,0.035l0.001,0.127l-0.024,0.344l-0.002,0.145l-0.001,0.061l0.105,0.15l0.03,0.105l-0.007,0.086
			l-0.006,0.066v0.082l-0.025,0.049l-0.034,0.084l-0.062,0.094h-0.001l-0.038,0.035l-0.113,0.086l-0.106,0.057l-0.043,0.02
			l-0.172,0.078l-0.172,0.09l-0.195,0.029l-0.331,0.023l-0.198,0.023l-0.172-0.021l-0.103-0.046l-0.099-0.074l-0.124-0.033h-0.021
			l-0.105,0.002l-0.041,0.001h-0.003l-0.08-0.021l-0.023-0.014l-0.028-0.021l-0.052-0.09l-0.021-0.031l-0.097-0.148l-0.054-0.108
			l-0.062-0.121l-0.04-0.079l-0.021-0.057l-0.041-0.131l-0.023-0.047L13.4,25.74l-0.025-0.086L13.331,25.6l-0.056-0.073
			l-0.001-0.001l-0.005-0.001L13.112,25.5l-0.04,0.011l-0.174,0.05l-0.241-0.035l-0.114-0.011l-0.064,0.015l-0.065,0.045
			l-0.056,0.094l-0.125,0.09l-0.111,0.08v-0.004l-0.091,0.108l-0.048,0.048l-0.232,0.016l-0.18-0.018l-0.202-0.061l-0.057-0.02
			l-0.071-0.025l-0.075-0.028l-0.168-0.028l-0.099,0.004l-0.111,0.109l-0.014,0.014l-0.229,0.219L10.52,26.19l-0.07,0.048
			l-0.168,0.045l-0.196,0.055l-0.22,0.186L9.74,26.469l-0.137-0.125l-0.15-0.184l-0.172-0.117l-0.13-0.084l-0.062-0.041L9.078,25.91
			l-0.096-0.095l-0.01,0.005l0.008-0.007l-0.209-0.207l-0.069-0.167l-0.023-0.059l-0.014,0.005l-0.218-0.25l-0.015-0.017
			l-0.027-0.111l-0.003-0.295l-0.014-0.11l0.028-0.323l-0.02-0.066l-0.127-0.016l-0.04-0.048l0.021-0.461l-0.002-0.196l0.071-0.425
			l0.079-0.308l0.083-0.371l0.04-0.264l-0.05-0.086l-0.052-0.085l-0.265-0.146L8.07,21.729l-0.04-0.086l-0.007-0.13l0.182-0.948
			l0.053-0.191l0.021-0.107l-0.043-0.14l-0.147-0.203l0.04-0.317l-0.092-0.298l0.127-0.575l0.02-0.119l0.021-0.133l0.166-0.289
			l-0.18,0.027l-0.072,0.006l-0.109-0.003l-0.192-0.02l-0.3-0.062l-0.159-0.029l-0.02-0.002l-0.028-0.008l-0.2-0.036l-0.146-0.033
			l-0.192-0.056l-0.123-0.021l-0.201-0.01l-0.203-0.009l-0.132-0.002l-0.106,0.004H5.911H5.899l-0.112-0.004L5.608,17.94
			l-0.228,0.048l-0.03,0.028L5.31,18.055L5.2,18.226l-0.174,0.282l-0.08,0.105l-0.089,0.074l-0.03,0.017l-0.014,0.02l-0.003,0.002
			l-0.01,0.016l-0.098,0.155l-0.092,0.155L4.534,19.18l-0.02,0.102L4.499,19.48L4.47,19.687l-0.064,0.198L4.4,19.891l-0.008,0.012
			l-0.062,0.089l-0.07,0.116l-0.077,0.125l-0.006,0.009l-0.056,0.091l-0.043,0.08l-0.037,0.09l-0.044,0.131l-0.021,0.11
			l-0.018,0.112l-0.033,0.157l-0.018,0.104l-0.004,0.122l0.013,0.122l0.021,0.121l0.057,0.091l0.092,0.097l0.001,0.001l0.085,0.078
			l0.11,0.243l0.045,0.17l-0.039,0.17l-0.018,0.049l-0.022,0.102l-0.026,0.105l-0.026,0.115l-0.003,0.008l-0.037,0.115l-0.043,0.113
			l-0.05,0.102l-0.053,0.107L3.95,23.266l-0.056,0.104l-0.037,0.077l-0.061,0.097l-0.06,0.09l-0.074,0.092L3.551,23.83l-0.076,0.062
			l-0.147,0.104l-0.152,0.1l-0.054,0.072L3.12,24.25l0.02,0.088l0.033,0.09l0.043,0.113l0.033,0.067l0.021,0.041l0.013,0.022
			l0.196,0.25l0.077,0.056l0.096,0.043l0.094,0.009l0.108,0.026l0.073,0.019l0.104,0.071l0.092,0.087l0.059,0.062l0.073,0.094
			l0.072,0.098l0.08,0.105l0.009,0.01l0.026,0.037L4.51,25.73l0.072,0.092L4.656,25.9l0.046,0.068l0.021,0.086l0.021,0.135v0.016
			l-0.016,0.231l-0.028,0.09l-0.014,0.024l-0.027,0.05l-0.039,0.081l-0.049,0.072l-0.08,0.09l-0.083,0.102l-0.02,0.025l-0.007,0.002
			l-0.112,0.096l-0.117,0.119L4.049,27.26l-0.083,0.06l-0.149,0.069l-0.077,0.042L3.65,27.487l-0.068,0.052l-0.078,0.047
			L3.428,27.57l-0.062-0.012l-0.062-0.08l-0.119-0.122l-0.079-0.063L3.1,27.287l-0.115,0.021H2.983l-0.095,0.036l-0.005,0.001
			l-0.05,0.128l-0.041,0.024l-0.099,0.057L2.61,27.592l-0.093,0.101l-0.085,0.028l-0.176,0.021L2.154,27.74l-0.088-0.007
			l-0.029-0.03l-0.098-0.024L1.5,27.617l-0.228-0.031l-0.128-0.019l-0.062,0.149L1.081,27.72l0.042,0.198L1.117,27.94l-0.031,0.13
			l-0.015,0.131l0.036,0.07l0.13,0.098l0.228,0.139l0.111,0.052l0.029,0.022l0.038,0.03l0.013,0.009l0.203,0.25l0.006,0.002
			L1.89,28.91l0.042,0.057l0.025,0.045l0.027,0.053l0.001,0.001v0.001l0.007,0.023l0.014,0.01l0.045,0.07l0.091,0.037l0.097,0.056
			l0.048,0.041l0.129,0.167l0.072,0.165l0.168,0.128l0.147,0.129l0.091,0.085l-0.088,0.218l-0.087,0.051l-0.02,0.002l-0.164,0.013
			l-0.074,0.007h-0.02l-0.131,0.016l-0.133,0.039l-0.072,0.055l-0.071,0.057l-0.056,0.044l-0.091,0.179L1.79,30.735l-0.075,0.052
			l-0.093,0.023l-0.062-0.01l-0.159-0.062l-0.301-0.027L0.871,30.69h-0.04l-0.096,0.03l-0.086,0.027L0.57,30.852l0.001,0.036
			l-0.01,0.071l-0.018,0.062l-0.007,0.093l-0.002,0.043v0.03l0.006,0.001l0.033,0.016l0.066,0.023l0.108,0.041l0.124,0.053
			l0.097,0.094l0.062,0.084l0.052,0.082l0.054,0.086l0.049,0.088l-0.002,0.002l0.01,0.009l0.051,0.047l0.009,0.006l0.008,0.005
			l0.058,0.041l0.123,0.105l0.079,0.066l0.064,0.074l0.087,0.096l0.024,0.02l0.057,0.046l0.044,0.036l0.081,0.078l0.056,0.048
			l0.063,0.058l0.025,0.053l0.05,0.141l-0.1,0.75l-0.08,0.092l-0.045,0.07l-0.084,0.188l-0.093,0.361l-0.039,0.203l-0.015,0.074
			l-0.017,0.087l-0.017,0.147l0.015,0.184l0.016,0.13l0.003,0.045l0.005,0.077l0.015,0.02l0.167,0.01l0.171-0.088l0.209-0.119
			l0.168-0.125l0.072-0.037l0.195-0.102l0.325,0.102l0.146,0.076l0.249,0.102l0.185,0.195l0.109,0.101l0.146,0.118l0.146,0.062
			l0.17,0.053l0.14,0.031l0.393-0.14l0.146-0.049l0.071-0.077l0.036-0.062l0.146-0.09l0.126,0.053l0.122,0.016l0.216,0.152
			l0.194,0.187l0.101,0.099l0.047,0.104l0.008,0.087l0.364,0.207l0.322,0.184l0.128,0.094l0.047,0.082l0.021,0.119l-0.002,0.181
			l0.003,0.122l-0.001,0.003l-0.098,0.065l-0.051,0.102l-0.18,0.117L6.274,37.15l-0.117,0.143l0.021,0.121l0.037,0.004l0.104,0.015
			l0.167,0.009l0.072,0.043l0.09,0.096l0.227,0.252l0.162,0.082l0.148,0.043l0.176,0.037l0.128,0.066l0.364,0.154l0.119,0.123
			l0.018,0.053l0.012,0.012l0.067,0.051l0.015,0.242l-0.032,0.094l-0.009,0.037l0.028,0.146l0.096,0.077l0.072,0.099l0.118,0.067
			l0.057,0.056l0.241,0.231l0.829,0.154l0.013,0.096l-0.02,0.069l-0.012,0.037l0.138-0.01l0.143,0.036l0.017,0.031l0.027,0.013
			L9.9,39.965l0.027,0.009l0.146,0.19l0.327,0.125l0.125-0.033l0.013-0.107l0.074-0.051l0.125,0.127l0.099,0.087l0.103,0.004
			l0.113,0.122l0.16,0.031l0.108,0.025l0.078,0.037l0.144,0.124l0.018,0.013l0.062,0.049l0.064,0.103l0.015,0.147l0.025,0.097
			l0.078,0.05l0.093-0.027l0.12,0.033l0.04-0.103l-0.014-0.022l0.001-0.029l0.004-0.012l0.013-0.031l0.023-0.047v-0.033
			l-0.011-0.035l0.005-0.012l0.011-0.032l0.016-0.05l0.107-0.01l0.135-0.117l0.164-0.297L12.47,40.11l-0.09-0.202l-0.029-0.222
			l-0.006-0.144l0.021-0.119l0.069,0.006l0.089,0.096l0.139,0.102l0.06-0.053l0.055-0.029l0.033-0.018l0.016-0.031l0.183-0.016
			l0.043-0.113l0.007-0.08l0.021-0.037l0.103-0.037l0.083-0.024l0.058-0.032l0.153-0.219l0.007-0.02l0.027-0.004l0.047-0.008
			l0.044,0.002l0.021-0.005l0.014-0.016l0.084-0.005l0.116-0.104l0.005-0.004l0.012-0.008l0.271,0.018l0.096,0.008h0.005
			l0.142-0.016l0.086,0.113l0.011,0.029l-0.058,0.035l-0.067,0.027l-0.01,0.116l0.044,0.058l0.067,0.032l-0.041,0.095l-0.016,0.039
			l0.051,0.123l0.012,0.004h0.017l0.053,0.01l0.05,0.002h0.009l0.041-0.002l0.055,0.021l0.102-0.035l0.072-0.037h0.053l0.016,0.012
			l0.034,0.021l0.019,0.018l0.125,0.037l0.006,0.035l-0.052,0.104l0.001,0.041l0.016,0.07l0.018,0.023l0.045,0.062l0.025,0.037
			l0.147,0.114l0.035,0.087l0.026,0.049l0.141,0.143l0.011,0.054l0.001,0.007l-0.011,0.043l-0.029,0.039l-0.011,0.061l0.042,0.025
			l0.145-0.027l0.024-0.022l0.128-0.114l0.004-0.009l0.024-0.046l0.002-0.107l0.021-0.072l0.036-0.036l0.009,0.021h0.001
			l0.038,0.047l0.025,0.07l0.039,0.059l0.018,0.004l0.036,0.013l0.052,0.015h0.042l0.019,0.016l0.123-0.066l0.098,0.02l0,0
			l0.053,0.013l0.014-0.017l0.012-0.129l0.023-0.021l0.025-0.001l0.019-0.001l0.041-0.013l0.071-0.006l0.062,0.032l0.05-0.006
			l0.033-0.021l0.004-0.004l0.021-0.031l0.055-0.006h0.032l0.082-0.004l0.017,0.002l0.026,0.002l0.04,0.004h0.013l0.071-0.018
			l0.091-0.037l0.051-0.021l0.013-0.005l0.02-0.01l0.029-0.045l0.021-0.076l0.01-0.004l0.021-0.012l0.03-0.011l0.033,0.015
			l0.062,0.038l0.148-0.008l0.086-0.062l0.063-0.078l0.119-0.112l0.043-0.034l0.052-0.045l0.063-0.008l0.017-0.016l0.02-0.017
			l0.005-0.017l0.01-0.043l0.009-0.002l0.014-0.002l0.085,0.043l0.059,0.123l0.136,0.076l0.011,0.006l0.047,0.023l0.061,0.041
			l0.01,0.008l0.022,0.027l0.021,0.025l0.104,0.105l0.028-0.021l0.008-0.012l0.006-0.006l0.046-0.033l0.057,0.032l0.056,0.032
			l0.021,0.013l0.062-0.024l-0.015,0.08l0.01,0.016l0.023,0.04l0.015,0.004l0.014,0.009l0.06,0.02h0.003l0.109,0.016h0.003
			l0.091,0.014l0.052,0.01l0.021,0.004l0.082-0.037l0.079-0.008l0.116,0.019l0.007-0.09l0.019-0.16l0.053-0.048l0.169,0.186
			l0.032,0.053l0.021,0.021l0.016,0.05l-0.054,0.092l-0.002,0.004l-0.045,0.102l-0.002,0.031l0.013,0.029l0.04,0.072l0.032,0.036
			l0.038,0.022l0.047,0.027l0.076,0.024l0.087-0.009l0.105-0.051l0.007-0.006l0.012-0.043l0.021-0.087l0.144-0.196l0.024-0.113
			l0.021-0.086l0.01-0.021l0.027-0.052l-0.008-0.043l-0.002-0.016l0.006-0.076l0.022-0.047v-0.084L20.62,39.5l0.024-0.045
			l0.053-0.031l0.029-0.035l0.012-0.028l-0.003-0.038l0.028-0.037l0.03-0.041l0.032-0.066l0.024-0.066l0.01-0.107l-0.007-0.053
			l-0.028-0.043l-0.021-0.05l-0.006-0.047l0.019-0.052l0.026-0.057l0.021-0.051l0.004-0.07l0.013-0.043l0.011-0.056l0.001-0.05
			l0.033-0.031l0.021-0.042l0.021-0.021l0.038-0.039l0.015-0.043l-0.009-0.049l-0.011-0.047l0.017-0.025l0.042-0.018l-0.005-0.033
			l0.06,0.004l0.042-0.071l0.041-0.033l0.043,0.011l0.07,0.018l0.081,0.043l0.086-0.002l0.05-0.002l0.036-0.012l0.053-0.045
			l0.013-0.025l0.028-0.016h0.055l0.052,0.004l0.044-0.004l0.079,0.014l0,0h0.045l0.137,0.089l0.029,0.047l0.035,0.112l-0.008,0.074
			l0.012,0.1l0.062,0.001l0.029-0.021l0.031-0.023l0.02-0.031l0.028-0.025l0.033-0.009l0.006,0.001l0.027,0.01l0.035,0.039
			l0.025,0.035l0.036,0.038l0.023,0.026l0.027,0.033l0.032,0.029l0.031,0.018l0.025,0.012l0.031,0.012l0.048,0.014l0.015,0.004
			l0.035,0.049l0.129,0.049l0.102-0.025l0.06-0.111l-0.053-0.172l0.117-0.069l0.184-0.104l0.071-0.131l0.089-0.064l0.206-0.053
			l0.018-0.035l0.001-0.041l0.001-0.031l-0.005-0.03l-0.009-0.047l0.005-0.038l0.006-0.035l0.058-0.072l0.03-0.047l0.014-0.043
			v-0.021l-0.003-0.006l-0.033-0.032l-0.011-0.024l-0.021-0.061l-0.018-0.104l0.006-0.06l0.061-0.002l0.096,0.06l0.209,0.076
			l0.094-0.023l0.077,0.033l0.17-0.074l0.072-0.043l0.109,0.021l0.084-0.004l0.104-0.038l0.142-0.141l0.071-0.091L25,36.9
			l0.375-0.061l0.143-0.012l0.027-0.136l0.009-0.08l-0.021-0.028l0.012-0.013l0.028-0.013l0.036,0.003l0.087,0.009l0.051-0.002
			l0.09-0.018l0.059-0.019l0.035-0.021l0.021-0.035l0.014-0.047l0.004-0.047l0.017-0.032l0.036-0.038l0.022-0.016l0.012-0.029
			l0.017-0.047l0.016-0.016l0.021,0.01l0.062-0.045l-0.015-0.031l0.024-0.055l0.064-0.047l0.025-0.035l0.021-0.021l0.026-0.014
			l0.086-0.039l0.111-0.043l0.04-0.037l0.039-0.057l0.026-0.037l0.042-0.035l0.036-0.02l-0.06-0.076l-0.105-0.025l0.005-0.053
			l0.001-0.002l0.105-0.058l0.09-0.062l0.102-0.119l0.093-0.104l-0.001-0.056l-0.005-0.157l-0.001-0.016l0.011-0.09l0.001-0.002
			l0.011-0.045l0.01-0.043v-0.047l-0.015-0.051l0.112-0.009l0.05,0.026l0.167-0.004l0.028-0.074l0.05-0.06l0.115-0.038l0.228-0.039
			l0.062,0.043l0.136,0.035l0.094,0.008l0.181,0.006l0.225,0.027l0.112-0.009l0.263-0.188l0.004-0.002l0.014-0.006l0.043-0.015
			v-0.052l0.039-0.014l0.07-0.027l0.084-0.047l0.044-0.014l0.083-0.031l0.044-0.015l0.099-0.028l0.088-0.004l0.078-0.004
			l0.044-0.015l0.017-0.032l0.027-0.046l0.006-0.046l-0.021-0.02l-0.033-0.027l-0.011-0.027v-0.046l0.039-0.019l0.038-0.01
			l0.011-0.055l0.006-0.074l0.021-0.055l0.028-0.064l0.021-0.063l0.039-0.087l0.061-0.18l0.006-0.074l0.027-0.064l0.038-0.056
			l0.045-0.037l0.044-0.046l0.039-0.037v-0.037l-0.033-0.02l-0.039-0.019l-0.033-0.041V32.82l0.028-0.055l0.017-0.064l0.021-0.055
			l0.026-0.055l0.039-0.028l0.051-0.028l0.07-0.041l0.033-0.033l0.017-0.055l-0.005-0.064l-0.017-0.049l-0.006-0.033l0.021-0.064
			l0.033-0.046l0.044-0.056l0.044-0.063l0.033-0.063l0.039-0.084l-0.006-0.082l-0.006-0.055l-0.01-0.064l-0.019-0.074l-0.027-0.046
			l-0.021-0.056l-0.044-0.055l-0.044-0.082l-0.055-0.047l-0.019-0.068l0.028-0.061l0.016-0.042l0.039-0.051l0.001-0.063v-0.074
			l-0.021-0.102l0.005-0.074l0.006-0.129l-0.021-0.055l-0.033-0.074l-0.026-0.046l0.033-0.073l0.011-0.084l0.056-0.074l0.033-0.082
			l0.062-0.064l0.056-0.092l0.065-0.073l0.05-0.063l0.044-0.065l0.051-0.063l-0.007-0.056l-0.011-0.046v-0.055l0.018-0.065
			l0.016-0.055l0.022-0.056l0.011-0.055l0.012-0.064l0.021-0.064l0.012-0.064l0.006-0.082v-0.084v-0.045v-0.056l-0.021-0.063v-0.08
			l-0.028-0.082l-0.038-0.092L30.518,28.5l-0.039-0.063l-0.033-0.073l-0.049-0.103l-0.039-0.063l-0.005-0.084l0.021-0.037
			l0.045-0.045l0.021-0.052l0.065-0.056l0.072-0.045l0.061-0.043l0.083-0.037l0.05-0.051l0.045-0.045l0.055-0.057l0.055-0.046
			l0.028-0.063l-0.006-0.047v-0.056v-0.046l0.011-0.078l0.012-0.073l-0.006-0.065l-0.005-0.055l-0.006-0.055l-0.017-0.046
			l-0.027-0.063l-0.017-0.056l-0.022-0.051l-0.016-0.037l-0.044-0.078v-0.051V26.64l0.026-0.019l0.033-0.027l0.028-0.028
			l0.026-0.036l0.017-0.037l0.006-0.043l0.012-0.109v-0.047l0.021-0.035l0.021-0.037l0.039-0.057l0.038-0.045l0.062-0.043
			l0.032-0.022l0.006-0.037l0.017-0.019l0.045-0.014l0.05-0.005h0.038l0.066-0.009l0.083-0.01h0.038l0.065-0.019l0.055-0.026
			l0.066,0.014l0.039,0.018l0.049,0.047l0.062,0.045l0.061,0.037l0.056,0.014l0.038-0.008l0.044-0.033l0.083-0.027l0.095-0.023
			h0.065l0.038-0.008l0.062-0.01l0.044-0.01l0.094-0.027l0.065-0.027l0.072-0.027L32.8,25.86l0.089-0.005l0.109,0.014l0.133,0.051
			l0.062,0.037l0.099,0.055l0.061,0.031l0.051,0.029l0.088,0.045l0.077,0.008l0.089,0.01h0.099h0.062l0.104,0.009h0.066h0.061h0.027
			h0.084h0.049l0.066,0.022h0.099l0.089-0.004l0.077-0.01l0.064-0.02l0.104-0.018l0.077-0.037l0.045-0.019l0.033-0.037l0.044-0.041
			l0.033-0.032l0.07-0.037l0.05-0.045l0.028-0.047l0.043-0.041l0.039-0.033l0.027-0.037l0.027-0.045l0.006-0.045l0.026-0.027
			l0.045-0.028l0.033-0.037l0.062-0.046l0.037-0.037l0.067-0.05h0.088l0.082,0.009l0.138,0.037l0.116,0.055l0.071,0.043l0.083,0.06
			l0.032,0.055l0.1,0.052l0.049,0.008h0.062l0.055-0.014l0.088-0.027l0.083-0.019l0.05-0.026l0.088-0.028l0.051,0.004l0.089,0.005
			h0.049h0.11l0.099-0.005h0.1l0.083,0.009h0.051l0.104,0.02h0.051l0.104-0.01l0.165,0.014l0.044,0.037l0.122,0.061l0.126,0.057
			l0.138,0.045l0.094,0.056l0.082,0.036l0.078,0.047l0.076,0.064l0.027,0.101l0.039,0.063l0.038,0.064l0.012,0.064l0.038,0.055
			l0.055,0.068l0.051,0.078l0.093,0.047l0.071,0.026l0.072,0.015l0.071-0.02l0.083-0.006l0.07,0.015l0.057-0.015l0.082-0.004
			l0.061-0.01l0.021-0.027l0.051-0.036l0.026-0.056l0.039-0.072l0.033-0.074l0.033-0.064l0.021-0.063l0.051-0.073l0.039-0.055
			l0.037-0.037l0.033-0.057l0.027-0.059l0.039-0.074v-0.074l0.026-0.045v-0.055l-0.016-0.043l-0.017-0.064l-0.018-0.082
			l-0.017-0.064l-0.038-0.045l-0.027-0.078l-0.033-0.064L39.7,25.16l-0.044-0.056l-0.033-0.042l-0.018-0.051v-0.027l0.039-0.037
			l0.044-0.063l0.065-0.074l0.056-0.036l0.05-0.037l0.039-0.046l0.071-0.055l0.061-0.073l0.051-0.064l0.044-0.056l0.044-0.056
			l0.056-0.045l0.033-0.047V24.25l0.027-0.064l0.006-0.046l0.026-0.037l0.033-0.022l0.05-0.037l0.051-0.028l0.088-0.063l0.061-0.056
			l0.061-0.056l0.066-0.073l0.044-0.056l0.056-0.069l0.065-0.092l0.056-0.074l0.033-0.063l0.139-0.139l0.1-0.092l0.056-0.083
			l0.044-0.056l0.033-0.055l0.011-0.064l-0.021-0.045l-0.066-0.028l-0.076-0.026l-0.05-0.037l-0.018-0.037l-0.049-0.02l-0.095-0.023
			l-0.05-0.014l-0.094,0.01l-0.066-0.027l-0.05-0.037l-0.055-0.046l-0.061-0.019l-0.095-0.027l-0.077-0.014l-0.088-0.02
			l-0.077-0.023l-0.104-0.018l-0.1-0.027l-0.044-0.047l-0.071-0.046l-0.049-0.046l-0.066-0.055v-0.064v-0.055l0.012-0.055
			l0.038-0.074l0.028-0.064l0.011-0.055l0.038-0.073l0.045-0.046l0.033-0.028l0.038-0.027l0.038-0.037l0.027-0.032v-0.041
			l0.022-0.046l0.016-0.092l0.033-0.074l0.062-0.055l0.077-0.028h0.104l0.066-0.019l0.076-0.037l0.045-0.074l0.076-0.079
			l0.051-0.064l0.05-0.064l0.026-0.097l0.007-0.078l-0.007-0.083l-0.017-0.074l0.001-0.046l0.021-0.037l0.061-0.046l0.056-0.046
			l0.065-0.046l0.045-0.074l0.088-0.028l0.083-0.014l0.071-0.014l0.065-0.027l0.027-0.037l0.05-0.046l0.033-0.042l0.061-0.05
			l0.057-0.046l0.077-0.073l0.038-0.046l0.045-0.046l0.055-0.074l0.039-0.055l0.044-0.11v-0.055v-0.056l0.006-0.055l0.033-0.064
			l0.033-0.073l0.026-0.064l0.033-0.046l0.018-0.055l0.017-0.079v-0.055l0.033-0.064l0.061-0.056l0.05-0.055l0.071-0.046
			l0.044-0.037l0.083-0.028l0.071-0.009l0.028-0.028v-0.027l0.005-0.028v-0.037v-0.028l0.006-0.055v-0.051v-0.074v-0.064
			l0.021-0.069l0.005-0.064l0.028-0.092l0.039-0.037l0.055-0.037l0.062-0.028l0.056-0.037l0.021-0.046l0.027-0.06l0.021-0.087
			l0.062-0.009l0.089,0.004l0.081,0.019l0.089,0.014l0.039-0.037l0.032-0.037l0.027-0.046l0.077-0.05l0.039-0.042l0.061-0.056
			l0.066-0.074l0.088-0.037l0.089-0.019l0.055-0.069l0.066-0.064l0.077-0.079l0.083-0.064l0.082-0.055l0.088-0.06l0.062-0.055
			l0.1-0.06l0.065-0.051l0.072-0.009h0.077l0.05-0.028l0.094-0.022h0.062l0.055,0.055l0.072,0.056l0.07,0.055l0.139,0.042h0.104
			h0.095l0.076-0.022l0.062-0.033l0.116-0.037l0.093-0.028l0.171-0.032h0.133l0.083,0.009l0.071,0.036l0.065,0.06h0.051l0.061-0.037
			h0.071l0.056,0.041l0.056,0.032h0.049l0.065-0.027l0.066-0.014l0.05-0.014h0.066h0.044l0.038-0.018l0.021-0.019l0.033-0.051
			l0.021-0.055l0.013-0.055l0.021-0.037l0.022-0.028l0.026-0.027l0.033-0.046v-0.064l0.022-0.055l0.032-0.056l0.045-0.074
			l0.07-0.032l0.062-0.032l0.012-0.042l0.017-0.078h0.061h0.045l0.055-0.023l0.051-0.027l0.05-0.028l0.044-0.051l0.039,0.018
			l0.033,0.042l0.109,0.046l0.088,0.032l0.062,0.046l0.07,0.037l0.072,0.033h0.061l0.084-0.001l0.104-0.036l0.083-0.033l0.089-0.05
			l0.049-0.046l0.066-0.018l0.083-0.037l0.104-0.028l0.072,0.009h0.088l0.077-0.009l0.061-0.009l0.089-0.005l0.065-0.014
			l0.065-0.014h0.065l0.083-0.01l0.045-0.022l0.055-0.033l0.027-0.027l0.032-0.042l0.039-0.042l0.072-0.009l0.104,0.009l0.056,0.041
			l0.039,0.06l0.082,0.046l0.062,0.037l0.038,0.069l0.032,0.037h0.127h0.104h0.088l0.077,0.037l0.089,0.018h0.071l0.071-0.022
			l0.039-0.037l0.016-0.037l0.028-0.069v-0.06l0.021-0.042l0.033-0.023l0.056-0.028l0.026-0.037l0.027-0.042l0.006-0.042
			l0.027-0.046l0.012-0.064l-0.012-0.051l-0.006-0.069l0.027-0.046l0.039-0.045l0.027-0.042l0.038-0.056l0.077-0.05l0.077-0.009
			l0.11,0.004l0.109-0.004l0.056-0.018l0.094,0.018l0.077,0.004h0.082l0.061-0.019l0.057-0.027l0.05-0.023h0.077l0.083-0.004
			l0.109-0.028l0.045-0.027l0.044-0.037l0.032-0.037l0.022-0.045l0.021-0.055l0.013-0.046l0.005-0.064v-0.064v-0.046l0.011-0.064
			l0.051-0.037l0.038-0.046l0.044-0.028l-0.005-0.046l-0.021-0.046l-0.033-0.056l0.017-0.055l0.033-0.019l0.027-0.037l0.021-0.037
			l0.033-0.037l0.038-0.037l0.006-0.055l-0.006-0.037l-0.016-0.037L52.667,14l0.028-0.019l0.061-0.014l0.077-0.013l0.061-0.014
			l0.033,0.027l0.066,0.023l0.061,0.014l0.071-0.009l0.071-0.014l0.065-0.027l0.039-0.019l0.055-0.028l0.062,0.004l0.033,0.042
			l0.055-0.01l0.027-0.027l0.056-0.023l0.072-0.018l0.044,0.027l0.055,0.019l0.044-0.005l0.05-0.027l0.027-0.019l0.017-0.028
			l0.022-0.027l0.038-0.037l0.021-0.033l0.012-0.051l0.017-0.055v-0.037l-0.011-0.06h0.017l0.05,0.027l0.139,0.046l0.07,0.032
			l0.062-0.009l0.044-0.032l0.066-0.042l0.109-0.051l0.05,0.037l0.027,0.051l0.056,0.05l0.071,0.028l0.104,0.014l0.076-0.009
			l0.071-0.009l0.039-0.019v-0.055l0.056-0.046l0.038-0.046l0.018-0.074v-0.078l0.021-0.065l0.05-0.055l0.062-0.055l0.088-0.037
			l0.072-0.056l0.061-0.027l0.05-0.037l0.062-0.037l0.044-0.037l0.039-0.051l0.016-0.042l-0.038-0.019l-0.026-0.018l-0.066-0.009
			l-0.021-0.037l-0.021-0.046l-0.039-0.037l-0.033-0.046l-0.043-0.033l-0.012-0.05l-0.005-0.106l-0.022-0.073l-0.011-0.074
			l0.011-0.119l0.019-0.083l0.011-0.074v-0.074l0.011-0.06l0.022-0.056l0.021-0.055l0.021-0.064l0.056-0.073l0.062-0.046
			l0.064-0.032h0.078l0.071,0.009l0.064,0.014l0.083-0.019h0.096l0.055-0.014l0.033-0.041l0.032-0.037l0.044-0.037l0.062-0.037
			l0.05-0.037l0.104-0.064l0.077-0.056l0.104-0.055l0.116-0.051l0.083-0.023l0.064-0.019l-0.021-0.037l-0.022-0.037l-0.026-0.046
			l-0.011-0.06l-0.007-0.083l-0.016-0.064l-0.021-0.097l-0.027-0.064l-0.038-0.074l-0.028-0.073v-0.074l0.007-0.096l-0.045-0.018
			l-0.055-0.019l0.011-0.037l0.012-0.074l0.006-0.069l0.006-0.074V9.933l-0.011-0.046l-0.057-0.005l-0.061-0.018L56.433,9.84V9.795
			V9.708V9.644l0.007-0.055l0.011-0.055l0.006-0.055l0.011-0.056l-0.021-0.027L56.435,9.34l0.027-0.046l0.056-0.147l0.027-0.055
			l-0.011-0.055l-0.062-0.014l-0.099-0.041l-0.044-0.074l-0.027-0.055l0.044-0.055l0.05-0.046l0.062-0.046l0.049-0.074l0.033-0.083
			l0.018-0.074l0.082-0.019l0.066-0.009h0.077l0.104-0.019l0.078,0.004l0.055,0.033l0.071,0.018l0.033-0.004l0.05-0.023l0.066-0.032
			l0.075-0.023h0.072l0.072-0.004l0.099-0.015l0.145,0.014h0.088l0.088-0.018l0.066-0.037l0.065-0.028l0.062-0.027l0.012-0.055
			l0.011-0.037l0.027-0.046l0.033-0.027l0.056-0.028l0.043-0.027l0.033-0.037l0.045-0.027l0.055-0.028l0.033-0.027l0.033-0.032
			l0.05-0.032l0.055-0.037l0.071-0.056l0.006-0.046L58.59,7.708l-0.05-0.051l-0.043-0.06l-0.039-0.045l-0.022-0.06l0.006-0.051
			V7.372l-0.026-0.046l-0.071-0.033l-0.033-0.037l-0.006-0.042l-0.021-0.055l-0.05-0.046l-0.062-0.023l-0.104-0.019l-0.121,0.019
			l-0.095-0.023l-0.12-0.041l-0.101-0.037l-0.121-0.027h-0.055l-0.039-0.027l-0.021-0.06l-0.022-0.069l-0.044-0.037l-0.039-0.046
			l-0.016-0.037l-0.022-0.06L57.21,6.557h-0.061h-0.082l-0.084,0.004V6.505V6.459l0.021-0.055l0.045-0.056l0.038-0.022l0.056-0.046
			l0.018-0.037l-0.056-0.019L57.05,6.188l-0.044-0.064l0.005-0.046l0.028-0.055l0.044-0.069l0.05-0.055l0.062-0.092l0.072-0.064
			l0.055-0.065l-0.006-0.046V5.567l-0.017-0.064l0.05-0.056l0.032-0.045l0.039-0.065V5.223l0.033-0.083l0.018-0.097l0.044-0.083
			l0.088-0.009l0.065-0.01l0.044-0.037l0.022-0.055l0.039-0.065l0.077-0.119l0.07-0.06l0.057-0.111l0.148-0.128l0.126-0.037
			l0.033-0.064l0.127-0.037l0.183-0.019l0.183-0.064l0.154-0.028l0.241-0.055l0.121,0.004l0.154,0.004L59.543,4.068"/>
	</g>
</g>
<g id="Layer_1">
</g>
</svg>
