<?xml version="1.0" encoding="iso-8859-1"?>
<!-- Generator: Adobe Illustrator 16.0.4, SVG Export Plug-In . SVG Version: 6.00 Build 0)  -->
<!DOCTYPE svg PUBLIC "-//W3C//DTD SVG 1.1//EN" "http://www.w3.org/Graphics/SVG/1.1/DTD/svg11.dtd">
<svg version="1.1" xmlns="http://www.w3.org/2000/svg" xmlns:xlink="http://www.w3.org/1999/xlink" x="0px" y="0px"
	 width="90.818px" height="56.183px" viewBox="0 0 90.818 56.183" style="enable-background:new 0 0 90.818 56.183;"
	 xml:space="preserve">
<g id="Layer_157">
	<g id="Layer_162">
		<path id="DISTRICT_x3D_Diamir_x2C_PROVINCE_x3D_FANA" style="fill:#CCCCCC;stroke:#FFFFFF;stroke-width:1.07;" d="M3.335,4.29
			L3.335,4.29l0.068,0.155l0.069,0.124L3.52,4.603l0.14,0.194l0.122,0.164l0.243,0.302l0.104,0.175l0.174,0.21l0.013,0.205
			L4.189,5.948L4.096,6.115L4.064,6.253l0.042,0.226l0.089,0.115L4.173,6.789l0.03,0.169L4.21,7.087L4.178,7.181L4.07,7.261
			L3.922,7.312L3.679,7.408l-0.455,0.23l-0.298,0.21L2.777,8.084L2.645,8.18l-0.22,0.051L2.126,8.218L1.709,8.167L1.307,8.11
			L1.228,8.135L1.068,8.182L0.923,8.231L0.852,8.246L0.766,8.274L0.679,8.305L0.613,8.414L0.557,8.603L0.542,8.842l0.069,0.142
			l0.071,0.232L0.785,9.38l0.166,0.162l0.151,0.269l0.071,0.108l0.25,0.218l0.4,0.001l0.295,0.208l0.354,0.367l0.354,0.098
			l0.493,0.333l0.563,0.512l0.328,0.301l0.354,0.099l0.167-0.018l0.349,0.042l0.272-0.001l0.144,0.029l0.133,0.208l0.156,0.132
			l0.261,0.018l0.165-0.111l0.162-0.076l0.218-0.026l0.175-0.04l0.176-0.051l0.203-0.027l0.172,0.007l0.271-0.061l0.16-0.064
			l0.186,0.066l0.109,0.086l0.062,0.103l0.121,0.06L8.453,12.4l0.207,0.077l0.186,0.037l0.112,0.007l0.151-0.049l0.175-0.04
			l0.112-0.042l0.146-0.03l0.098,0.039l0.114,0.099l0.021,0.118L9.75,12.807l0.063,0.151l0.104,0.196l0.029,0.098l0.246,0.154
			l0.129,0.109l0.049,0.143l0.077,0.132l0.05,0.143l0.05,0.281l0.106,0.203l0.142,0.288l0.092,0.08l0.09,0.107l0.138,0.111
			l0.082,0.047l0.074,0.044l0.186,0.063h0.104l0.175,0.056l0.15,0.064l0.176,0.037l0.186,0.076l0.13,0.034l0.088,0.15l0.027,0.095
			l-0.059,0.182l0.003,0.155l0.026,0.147l0.015,0.146l0.011,0.205l0.028,0.125l0.048,0.189l-0.008,0.116l-0.038,0.232l-0.005,0.14
			L12.5,17.485l0.038,0.128l0.104,0.103l0.132,0.121l0.065,0.128l0.108,0.122l0.182-0.034l0.175-0.12l0.193-0.06l0.132-0.014
			l0.152,0.016l0.205-0.05l0.216-0.03l0.237-0.062l0.197-0.056l0.206-0.059l0.203-0.021l0.179-0.002l0.183-0.08l0.176-0.138
			l0.11-0.063l0.168-0.022l0.165,0.007l0.104,0.072l0.134,0.132l0.148,0.113l0.176,0.036l0.26,0.03l0.207-0.053l0.001-0.004
			l0.015-0.001l0.214-0.069l0.211-0.146l0.141-0.149l0.089-0.094l0.165,0.017l0.186,0.076l0.173,0.083l0.163,0.077l0.12,0.112
			l0.141,0.137l0.121,0.046l0.11,0.007l0.164,0.012l0.175-0.083l0.144-0.084l0.198-0.102l0.191-0.031l0.147-0.086l0.247-0.022
			l0.228-0.027l0.229-0.039l0.256-0.082l0.285-0.124l0.176-0.056l0.167-0.009l0.249-0.068l0.083,0.048l0.116,0.124l0.134,0.171
			l0.086,0.048l0.138,0.057l0.111,0.043l0.128,0.036l0.146,0.062l0.142,0.065l0.138,0.046l0.125,0.078l0.136,0.074l0.205,0.061
			l0.156,0.032l0.196-0.01l0.183-0.021l0.165-0.012l0.106-0.012l0.312-0.053l0.151-0.024l0.145-0.044l0.16-0.048l0.179-0.035
			l0.178-0.016l0.178-0.009l0.161-0.002l0.124,0.01l0.095,0.013l0.125,0.004l0.097,0.03l0.123,0.031l0.09,0.064l0.08,0.042
			l0.037,0.102l0.047,0.083l0.031,0.087l0.053,0.07l0.114,0.084l0.09-0.01l0.13-0.007l0.102-0.027l0.115-0.039l0.14-0.026
			l0.122-0.008l0.159,0.024l0.145,0.032l0.144,0.044l0.161-0.001l0.169-0.027l0.166-0.004l0.086,0.021l0.086,0.06l0.092,0.12
			l-0.042,0.104l-0.124,0.12l-0.001,0.091l-0.011,0.067l-0.053,0.085l-0.007,0.247l-0.021,0.155l0.021,0.174l0.033,0.091l0.021,0.11
			l0.062,0.176l0.011,0.115l0.066,0.275l-0.007,0.104l0.009,0.105l0.015,0.096l0.044,0.27l0.134,0.071l0.086,0.069l0.04,0.179
			l-0.019,0.125l-0.088,0.04l-0.128,0.016l-0.097,0.021l-0.104,0.03l-0.082,0.048l-0.117,0.086l-0.122,0.021l-0.101-0.009
			l-0.093-0.043l-0.072-0.012l-0.123,0.017l-0.151-0.024l-0.087-0.052l-0.122,0.008l-0.072,0.066l-0.047,0.101l-0.099,0.208
			l-0.17,0.167l-0.164,0.162l-0.162,0.14l-0.08,0.092l-0.092,0.071L26.4,22.402l-0.097,0.024l-0.104,0.02l-0.151,0.004l-0.079,0.038
			l-0.076,0.079l-0.03,0.055l-0.036,0.117l-0.022,0.116l-0.029,0.109l-0.047,0.108l-0.048,0.091l-0.073,0.069l-0.067,0.064
			l-0.138,0.091l-0.004,0.088l0.002,0.093l-0.005,0.099l0.005,0.104l-0.121,0.149l-0.105,0.084l-0.104,0.069l-0.105,0.056
			l-0.126,0.104l-0.051,0.098l-0.022,0.091l0.014,0.085l0.02,0.07l0.006,0.076l0.039,0.052l0.035,0.107l0.036,0.09l0.021,0.079
			l0.039,0.092l0.029,0.066l0.023,0.044l-0.036,0.037l-0.058-0.015l-0.115-0.055l-0.075-0.008l-0.046,0.05l0.013,0.085l0.024,0.114
			l0.005,0.132l0.018,0.092l-0.016,0.077l-0.033,0.102l-0.086,0.103l-0.071,0.155l0.024,0.109l0.038,0.07l0.016,0.094l0.04,0.097
			l0.051,0.059l0.041,0.058l0.049,0.069l0.066,0.063l0.102,0.071l0.102,0.067l0.12,0.114l0.07,0.076l0.064,0.098l0.025,0.088
			l0.026,0.083l0.002,0.05l-0.004,0.056l-0.007,0.069l-0.019,0.071l-0.015,0.06l-0.025,0.06l-0.043,0.059l-0.047,0.074l0.017,0.044
			l0.041,0.058l0.023,0.061l0.062,0.05l0.052,0.052l0.052,0.067l0.02,0.053l0.064,0.048l0.089,0.017l0.188,0.028l0.021,0.033
			l0.073,0.047l0.02,0.063l0.04,0.08l0.06,0.069l0.062,0.04l0.067,0.031l0.062,0.04l0.039,0.041l0.017,0.042l-0.009,0.058
			l0.025,0.049l0.025,0.049l0.034,0.137l0.04,0.079l0.028,0.068l0.035,0.074l0.046,0.094l0.021,0.062l0.028,0.03l0.006,0.045
			l-0.018,0.052L26.53,29.57l-0.088,0.048l-0.091,0.063l-0.087,0.084l0.01,0.057l0.146,0.093l0.13,0.03l0.104,0.027l0.078,0.014
			h0.06l0.136-0.014l0.078,0.006l-0.033,0.062l-0.05,0.036l0.021,0.055l0.031,0.09l0.009,0.07l-0.003,0.119l-0.01,0.068l0.014,0.08
			l0.042,0.082l0.062,0.021l0.083-0.012l0.102-0.028l0.102,0.004l0.232,0.01l0.086,0.062l0.138-0.068l0.091-0.07l0.088-0.043
			l0.108-0.078l0.125-0.143l0.077-0.094l0.099-0.132l0.108-0.026l0.106,0.014l0.136,0.004l0.091-0.01l0.08-0.021l0.074-0.044
			l0.088-0.054l0.092-0.018l0.242-0.093l0.089,0.019l0.075,0.025l0.094,0.018l0.091,0.035l0.089,0.047l0.065,0.033l0.16,0.085
			l0.073,0.05l0.164,0.123l0.131,0.092l0.08,0.063l0.077,0.082l0.05,0.002l0.142,0.019h0.073l0.078-0.013l0.062-0.014l0.057-0.043
			l0.06,0.007l0.055,0.025l0.053,0.047l0.022,0.037l0.021,0.051l0.054,0.066l0.025,0.022l0.018,0.032l0.066,0.078l0.045,0.08
			l0.025,0.054l0.043,0.053l0.019,0.052l0.082,0.061l0.119,0.08l0.237,0.152l0.117,0.006l0.064-0.029l0.094-0.043l0.123-0.051
			l0.219-0.084l0.092-0.045l0.073-0.006l0.118-0.004l0.104-0.022l0.221-0.074l0.095,0.033l0.141,0.034l0.146,0.029l0.171-0.021
			l0.151-0.029l0.143-0.018l0.108-0.014l0.164,0.014l0.041,0.031l0.06,0.119l0.018,0.1l0.096,0.199l0.096,0.088l0.144,0.076
			l0.117,0.103l0.089,0.125l0.095,0.106l0.158,0.248l0.08,0.082l0.066,0.096l0.055,0.119l0.044,0.123l0.055,0.109l0.051,0.066
			l0.104,0.039l-0.045,0.033l-0.144,0.008l0.187,0.033l0.188-0.035l0.208-0.104l0.259-0.233l0.165-0.104l0.088-0.055l0.051-0.032
			l0.111-0.062h0.183l0.208,0.019h0.12l0.112-0.078l0.009-0.112l0.062-0.086l0.139,0.026l-0.018,0.147l0.009,0.182l0.077,0.138
			l-0.009,0.14l0.131,0.068l0.216,0.061l0.155,0.008l0.146,0.209l0.104,0.182l0.197,0.182l0.078,0.086l0.121,0.053h0.19l0.104-0.078
			l0.095-0.018l0.174,0.068l0.154,0.025l0.242,0.025h0.165l0.182-0.025l0.111-0.069l0.053-0.078l0.068-0.095l0.191,0.009l0.25,0.104
			l0.174,0.052l0.129,0.13l0.189,0.111l0.104,0.07l0.181-0.018l0.112-0.078l0.174-0.104l0.068-0.086l0.112-0.086l0.12,0.094
			l0.053,0.113l0.053,0.139v0.111l-0.104,0.164l-0.043,0.139l-0.121,0.062l-0.043,0.052v0.112l0.069,0.104l0.138,0.078l0.165,0.094
			l0.121,0.07l0.146,0.077l0.216,0.062l0.096,0.017l0.104,0.078l0.111,0.13l0.026,0.086v0.164l-0.009,0.061l-0.049,0.131l0.135,0.09
			l0.035,0.113l0.051,0.11l-0.027,0.181l0.143,0.024l0.121,0.019l0.14,0.047l0.11,0.07l0.135,0.068l0.088,0.081l0.045,0.079
			l0.188,0.051l0.145-0.011l0.149,0.013l0.15-0.016l0.076-0.051l0.095-0.019l0.124-0.035l0.174-0.021l0.133-0.035l0.218-0.025
			l0.143,0.014l0.137,0.013l0.089-0.043l0.045-0.116v-0.105l0.048-0.069l0.038,0.062l0.166,0.092l0.112,0.028l0.099,0.04
			l0.002,0.061v0.111l-0.019,0.158l-0.007,0.184l0.01,0.184l-0.003,0.143l0.127,0.028l0.142,0.031l0.201,0.004l0.168-0.052
			l0.154-0.112l0.073-0.032l0.031,0.131l0.005,0.127l-0.034,0.174l-0.058,0.16l0.012,0.104l-0.041,0.094l0.165,0.152l0.073,0.118
			l0.265,0.26l0.162-0.047l0.267,0.019l0.239-0.019l0.172-0.035l0.161-0.042l0.249-0.111l0.104-0.075l0.094-0.091l0.079-0.175
			l0.128-0.23l0.103-0.093l0.188-0.178l0.196-0.122l0.212,0.016l0.331,0.022l0.305,0.094l0.428,0.146l0.273-0.027l0.533,0.083
			l0.292,0.073l0.372,0.006l0.352-0.088l0.028-0.061l0.205-0.262l0.251-0.307l0.169-0.301l0.248-0.172l0.08-0.102l0.213-0.15
			l0.047-0.166l0.188-0.08l0.171-0.096l0.265-0.121l0.207-0.078l0.187-0.146l0.032-0.148l0.032-0.141l0.031-0.092l0.121-0.26
			l0.057-0.117l0.145-0.229l0.128-0.057h0.14h0.068l0.081,0.019l0.075-0.026l0.062,0.141l0.08,0.186l0.091,0.182l0.123,0.177
			l0.17,0.187l0.104,0.15l0.251-0.021l0.224-0.063h0.15l0.143,0.022l0.17,0.043l0.128,0.086l0.092,0.037h0.115l0.033-0.043
			l0.034,0.01l0.113,0.044l0.139,0.08l0.146,0.092l0.119,0.104l0.115,0.052l0.123,0.059l-0.075,0.153l-0.011,0.145l0.037,0.146
			l0.102,0.149l0.18,0.159l0.157,0.134l0.247,0.084l0.175,0.121l0.129,0.084l0.094,0.129l0.098,0.09l0.021,0.151l0.012,0.165
			l-0.007,0.085l-0.1,0.054l-0.093,0.067l-0.074,0.083l-0.053,0.155l-0.037,0.188L59.6,38.253l0.007,0.119l0.111,0.104l0.121,0.092
			l0.099,0.062l0.057,0.103l0.01,0.092l0.073,0.076l0.137,0.092l0.146,0.079l0.076,0.05l0.105,0.07l0.135,0.125l0.156,0.034
			l0.177-0.012l0.057-0.115l0.076-0.067l0.101-0.054l0.114-0.033l0.079-0.002l0.086,0.023l0.034,0.074l0.002,0.085l0.036,0.159
			l0.062,0.121l0.085,0.148l0.15,0.119l-0.111,0.219l-0.064,0.063l-0.064,0.062l-0.098,0.033l-0.106,0.053l-0.081,0.048
			l-0.035,0.086l0.021,0.134l0.049,0.168l-0.01,0.137l-0.09,0.133l-0.127,0.093l-0.119,0.112l0.007,0.111l0.063,0.096l0.035,0.066
			l0.019,0.086l-0.07,0.044l-0.056,0.035l-0.079,0.101l-0.001,0.131l0.123,0.15l0.144,0.148l0.147,0.047l0.084,0.057l-0.049,0.063
			l-0.065,0.087l-0.063,0.097l-0.004,0.144v0.119l-0.104,0.1l-0.126,0.092l-0.061,0.049l0.127,0.008l0.087,0.017l0.085,0.037
			l0.058,0.075l-0.007,0.098l-0.026,0.136l-0.064,0.134l-0.107,0.152L61.1,43.766l0.009,0.098l0.082,0.07l0.164,0.047l0.088,0.043
			l0.217-0.127l0.152-0.102l0.114-0.074l0.2-0.129l0.163-0.107l0.231-0.113h0.136l0.133,0.033l0.14,0.053l0.141,0.04l0.159,0.069
			l0.124,0.045l0.186,0.068l0.089,0.037l0.126,0.072l0.148,0.034l0.072,0.045l0.086,0.069l0.09,0.076l0.092,0.037l0.157,0.047
			l0.181,0.022l0.167,0.002l0.142-0.063l0.093-0.082l0.118-0.078l0.091-0.035l0.045,0.127l0.041,0.094l0.012,0.165l0.109,0.019
			l0.09,0.07l0.085,0.148l0.042,0.179l0.028,0.146l0.054,0.127L65.739,45l0.114,0.059l0.065,0.076l0.137,0.092l0.101,0.045
			l0.188-0.057l0.152-0.018l0.135,0.013l0.072,0.044l-0.067,0.123l-0.048,0.028l0.048,0.047l0.131,0.351l0.073,0.075l0.085,0.031
			l0.135,0.015l0.114-0.041l0.152-0.143l0.113-0.014l0.11,0.012l0.07,0.1l0.072,0.1l0.078,0.142l0.005,0.108v0.105l-0.098,0.18
			l0.121,0.062l0.154,0.069l0.125,0.072l0.125,0.076l0.113,0.114l0.097,0.133l0.108,0.104l0.125,0.064l0.146,0.082l0.113,0.083
			l0.108,0.128l0.038,0.137l0.034,0.143l0.005,0.154l0.002,0.16l0.01,0.133l0.072,0.175l0.052,0.202l0.067,0.174l0.062,0.119
			l0.107,0.096l0.045,0.124l0.079,0.142l0.074,0.125l0.097,0.15l0.131,0.139l0.131,0.113l0.112,0.083l0.165,0.073l0.17,0.064
			l0.084,0.045l0.17,0.063l0.239,0.083l0.296,0.064l0.148,0.035l0.131,0.037l0.125,0.037l0.103,0.069l0.097,0.092l0.08,0.101
			l0.072,0.114l0.058,0.069l0.123,0.105l0.069,0.068l0.086,0.105l0.097,0.06l0.052,0.063l0.091,0.078l0.131,0.121l0.164,0.154
			l0.119,0.128l0.119,0.134l0.104,0.109l0.078,0.119l0.098,0.142l0.091,0.15l0.079,0.17l0.062,0.173l0.08,0.161l0.084,0.137
			l0.085,0.146l0.098,0.184l0.103,0.124l0.13,0.188l0.109,0.104l0.01,0.016l0.137,0.092l0.144,0.087l0.158,0.073l0.217,0.105
			l0.176,0.102l0.188,0.072l0.131,0.073l0.137,0.026l0.171-0.045l0.153-0.049l0.154-0.027l0.107,0.018l0.147,0.124l0.08,0.104
			l0.078,0.098l0.092,0.119l0.072,0.115l0.098,0.082l0.137,0.078l0.143,0.041l0.147-0.027l0.177-0.063l0.211-0.026l0.147,0.009
			l0.153,0.036l0.143,0.037l0.199,0.056l0.198,0.083l0.188,0.041l0.223,0.087l0.159,0.06l0.097,0.061l0.153,0.087l0.193,0.092
			l0.204,0.069l0.159,0.019l0.199,0.015h0.183l0.238,0.009h0.279l0.268-0.041l0.172-0.114l0.104-0.143l0.074-0.168l0.103-0.16
			l0.159-0.124l0.121-0.123l0.119-0.142l0.143-0.119l0.172-0.174l0.104-0.088l0.188-0.101l0.148-0.041l0.182-0.019l0.207-0.035
			l0.184-0.051l0.142-0.037l0.118-0.032l0.245-0.093l0.158-0.092l0.13-0.115l0.044-0.162l0.102-0.301l0.086-0.14l0.087-0.162
			l0.13-0.127l0.202-0.058l0.188-0.047h0.259l0.188-0.01l0.145,0.034l0.144,0.023l0.23,0.104l0.259,0.092l0.2,0.093l0.202,0.058
			l0.269,0.083l0.211,0.087l0.216,0.088l0.159,0.127l0.085,0.129l0.104,0.097l0.076,0.138l0.104,0.118l0.083,0.106l0.062,0.084
			l0.042,0.074l0.071,0.107l0.049,0.086l0.193-0.059l0.089-0.057l0.1-0.046l0.11-0.081l0.062-0.092l0.04-0.102l0.038-0.084
			l0.021-0.121l0.059-0.058l0.096-0.126l0.034-0.047l0.022-0.082l0.023-0.057l0.055-0.045l0.051-0.031l0.076-0.038l-0.021,0.009
			l0.044-0.021l0.052-0.055l0.064-0.029l0.062-0.07l0.047-0.066l0.09-0.064l0.085-0.012l0.128-0.027l0.066-0.04l0.074-0.005
			l0.087-0.03l0.087-0.038l0.059-0.01l0.017-0.023l-0.001-0.027l-0.011-0.045l-0.001-0.051l-0.03-0.045l-0.043-0.059l-0.022-0.053
			l-0.017-0.059l-0.036-0.094l-0.033-0.115l-0.037-0.054l0.038-0.077l0.076-0.039l0.1-0.055l0.059-0.059l-0.006-0.078l-0.004-0.078
			l-0.066-0.073l0.031-0.129L90,51.497l0.055-0.022l0.065-0.031l0.012-0.057l-0.016-0.07l0.003-0.088l0.018-0.041l0.014-0.045
			l0.015-0.047l0.021-0.069l-0.059-0.062l-0.059-0.039l-0.095-0.069l-0.047-0.072l-0.007-0.166l-0.035-0.089l-0.044-0.107
			l-0.072-0.149l-0.043-0.058l-0.045-0.058l-0.049-0.101l-0.036-0.062l-0.021-0.072l-0.001-0.076l-0.006-0.071l0.019-0.067
			l-0.005-0.074l-0.002-0.076l-0.015-0.062l-0.007-0.067l0.006-0.071l0.009-0.058l0.001-0.055l0.006-0.148l-0.01-0.049l-0.056-0.08
			l-0.055-0.039l-0.021-0.049l-0.006-0.033l0.025-0.055l0.026-0.076l-0.012-0.096l0.036-0.059l-0.035-0.072l-0.047-0.081
			l-0.048-0.056l-0.119-0.084l-0.068-0.073l-0.056-0.09l-0.068-0.065l-0.064-0.099l-0.091-0.058l-0.057-0.08l-0.08-0.049
			l-0.144-0.051l-0.104-0.014l-0.102-0.041l0.051-0.11l-0.017-0.086l-0.057-0.032l-0.082-0.012l-0.146-0.037l-0.13-0.053
			l-0.078-0.043l-0.089-0.03l-0.095-0.007h-0.131L87.54,47.2l-0.078-0.035l-0.033-0.042l-0.025-0.07l-0.09-0.058l-0.082-0.039
			l-0.103-0.032l-0.09-0.064l-0.091-0.049l-0.101-0.059l-0.133-0.06l-0.088-0.074l-0.079-0.065l-0.081-0.047l-0.107,0.028
			l-0.086,0.013l-0.062,0.004l-0.065,0.006l-0.062,0.008l-0.032,0.004l-0.114-0.016l-0.049-0.011l-0.055-0.013h-0.056l-0.068,0.005
			l-0.062,0.019l-0.05,0.026l-0.046,0.027l-0.028,0.008l-0.031,0.009l-0.035-0.008l-0.035-0.007l-0.062,0.001l-0.056-0.02
			l-0.048-0.025l-0.038-0.014l-0.011-0.031l-0.009-0.045l-0.012-0.067l-0.011-0.043l0.001-0.056l-0.011-0.043l-0.008-0.049
			l0.026-0.054l0.021-0.045l0.019-0.04l0.024-0.029l0.011-0.021l0.017-0.031l0.021-0.03l-0.01-0.026l-0.021-0.036l-0.013-0.042
			l-0.011,0.012l-0.024-0.03l-0.035-0.037l-0.02-0.026l-0.016-0.029l-0.008-0.04l-0.006-0.031l-0.016-0.045l-0.021-0.057
			l0.018-0.086l0.038-0.061l0.024-0.041l0.022-0.073l-0.006-0.052l-0.016-0.027l-0.03-0.025l-0.043-0.022l-0.062-0.019l-0.065-0.024
			l-0.057-0.033l-0.051-0.048l-0.052-0.03l-0.04-0.042l-0.037-0.031l-0.062-0.018l-0.076-0.007l-0.06-0.001l-0.07-0.006
			l-0.079-0.017l-0.062-0.014l-0.11-0.048l-0.065-0.031l-0.057-0.038l-0.021-0.063v-0.047l-0.019-0.054l-0.057-0.034l-0.062-0.035
			l-0.073-0.039l-0.081-0.043l-0.087-0.051l-0.059-0.062l-0.059-0.057l-0.055-0.072l-0.028-0.059l-0.029-0.064l-0.024-0.062
			l-0.021-0.054l-0.023-0.04l0.003-0.036l-0.011-0.037l-0.021-0.025l-0.006-0.027l0.038-0.012l0.052-0.008l0.093-0.023l0.038-0.018
			l0.042-0.024l0.042-0.021l0.036-0.027l0.039-0.028l0.048-0.017l0.03-0.032l0.014-0.013l0.026-0.016l0.058-0.021l0.021-0.032
			l0.021-0.034l0.035-0.018l0.084-0.004l0.059-0.02l0.033-0.001l0.04,0.009l0.05,0.002l0.055-0.017l0.066-0.035l0.034-0.009
			l0.035-0.02l0.062-0.027l0.053,0.008l0.059-0.005l0.076,0.026l0.048,0.006l0.048-0.006l0.045-0.006l0.042-0.018l0.03-0.032
			l0.022-0.044l0.026-0.029l0.033-0.076l0.021-0.035l0.038-0.02l0.012-0.009l0.031-0.001l0.029,0.01l0.037,0.004l0.034-0.004
			l0.049,0.004l0.035,0.002l0.01-0.015l0.015-0.01l0.037-0.062l0.012-0.033l0.018-0.03l-0.012-0.032l-0.008-0.027l-0.004-0.045
			l-0.018-0.048l0.002-0.067l0.02-0.039l0.023-0.038l0.019-0.036l0.04-0.032l0.048-0.037l0.047-0.028l0.03-0.024l0.023-0.033
			l0.018-0.022l0.021-0.035l0.032-0.002l0.049,0.007l0.044,0.002l0.052,0.017l0.052,0.025l0.043,0.016l0.019,0.01l0.037,0.015
			l0.053,0.009l0.069-0.01l0.071,0.013l0.046,0.007l0.049,0.01l0.075-0.014l0.075-0.016l0.053,0.007l0.05,0.002l0.077-0.026
			l0.093-0.004l0.072-0.007l0.074-0.016l0.072-0.033l0.034-0.028l0.075-0.018l0.07-0.018l0.074-0.024l0.06-0.021l0.08-0.067
			l0.089-0.074l0.047-0.053l0.054-0.06l0.087-0.052l0.068-0.042l0.014-0.009l0.034-0.037l0.062-0.054l0.104-0.049l0.03-0.056
			l0.035-0.036v-0.054l-0.014-0.041l-0.043-0.05l-0.034-0.046l-0.032-0.06l-0.061-0.047l-0.087-0.053l-0.061-0.057l0.012-0.057
			l0.021-0.068l0.004-0.078l-0.07-0.09l-0.122-0.103l-0.057-0.06l-0.039-0.043l0.037-0.077l0.061-0.084l0.068-0.101l0.09-0.091
			l0.078-0.095l0.085-0.087l0.085-0.089l0.074-0.103l0.125-0.101l0.087-0.104l0.112-0.09l0.081-0.048l0.058-0.039l0.066-0.095
			l0.039-0.057l0.033-0.056l0.026-0.046l0.023-0.066l0.026-0.062l0.012-0.058l-0.06-0.065l-0.061-0.051l-0.018-0.083l0.017-0.124
			l0.018-0.062L88.5,38.86l0.021-0.042l0.021-0.053l0.021-0.047l-0.037-0.035l-0.058-0.014l-0.059-0.018l-0.067-0.021h-0.07
			l-0.049-0.037l-0.075-0.014h-0.082l-0.057-0.017l-0.045-0.032l0.01-0.038l0.01-0.057l0.028-0.052l0.011-0.062l0.017-0.052
			l0.014-0.077l-0.015-0.054l-0.002-0.043L88,38.047l-0.057-0.018l-0.052-0.021l-0.074-0.013h-0.047l-0.057-0.022l-0.052-0.021
			l-0.014-0.044l-0.02-0.054l-0.014-0.059v-0.072l0.034-0.057l0.033-0.05l0.052-0.06l0.018-0.053l0.026-0.051l0.004-0.053
			l0.013-0.066l0.011-0.058l0.004-0.052l0.005-0.049l0.021-0.037l0.049-0.025l0.078-0.016l0.042-0.017l0.045-0.046l0.015-0.038
			l-0.002-0.053l-0.014-0.04l-0.004-0.048l-0.037-0.036l-0.058-0.027l-0.051-0.021l-0.139-0.026l-0.063-0.013l-0.05-0.027
			l-0.02-0.04l-0.05-0.051l-0.049-0.046l-0.043-0.045l-0.024-0.051l-0.031-0.045l-0.031-0.055l-0.02-0.049l-0.019-0.062l-0.019-0.06
			l-0.056-0.069l-0.001-0.039l-0.023-0.055l-0.021-0.054l-0.036-0.06l-0.009-0.106l-0.028-0.069l-0.014-0.053l0.001-0.086
			l-0.03-0.086l-0.008-0.059l-0.021-0.039l-0.024-0.06l-0.013-0.054l0.025-0.021l0.06-0.012l0.082-0.006l0.084-0.023l0.088,0.004
			h0.076l0.062,0.004l0.09-0.01l0.104,0.014l0.076-0.004l0.049-0.012l0.082-0.01l0.064-0.006l0.037-0.027l0.032-0.031l0.018-0.058
			l0.003-0.047l-0.002-0.044l-0.036-0.055l-0.042-0.056l-0.046-0.012l-0.038-0.04l-0.025-0.05l-0.008-0.048l0.017-0.053l0.044-0.035
			l0.062-0.041l0.044-0.045l0.067-0.035l0.077-0.023l0.072-0.02l0.077-0.016l0.132-0.041l0.052-0.05l0.005-0.048l-0.021-0.049
			l-0.03-0.061l-0.028-0.045l-0.037-0.055l-0.035-0.061l-0.054-0.06l-0.008-0.067l0.014-0.076l0.04-0.057l0.021-0.066l0.039-0.045
			l0.026-0.037l0.049-0.021l0.065-0.015l0.107-0.032l0.061-0.007l0.069-0.005l0.065-0.012l0.06-0.016h0.083l0.064-0.011l0.07-0.017
			l0.061-0.011l0.065-0.021l0.06-0.002l0.055-0.021l0.053-0.006l0.066-0.024l0.055-0.021l0.064-0.006l0.065-0.021l0.055-0.007
			l0.06-0.006l0.06-0.006l0.077-0.016l0.061-0.024l0.072-0.015l0.059-0.006l0.043-0.027l0.033-0.041l0.026-0.043l0.01-0.037
			l-0.014-0.049l-0.068-0.033l-0.174-0.01h-0.082h-0.082l-0.095,0.02l-0.064,0.018l-0.077,0.008l-0.072,0.009l-0.068-0.013
			L89.4,33.104l-0.056-0.037l-0.057-0.027l-0.045-0.035l-0.036-0.051l-0.051-0.045l-0.042-0.05l-0.02-0.06l-0.011-0.072
			l-0.007-0.068l0.006-0.066l0.006-0.067v-0.067l0.004-0.048l0.004-0.058l-0.036-0.049l-0.019-0.055l-0.021-0.04l-0.007-0.051
			L89,32.113l-0.045-0.031l-0.021-0.044l-0.002-0.048l-0.008-0.053l-0.013-0.059l-0.002-0.058l-0.007-0.058L88.814,31.7
			l-0.057-0.017l-0.053,0.002l-0.066,0.021l-0.075-0.004l-0.055,0.021l-0.054,0.017l-0.062,0.017l-0.084,0.023l-0.055,0.029
			l-0.057,0.031l-0.062,0.03l-0.067,0.04l-0.07,0.01l-0.072,0.021l-0.064,0.006l-0.059-0.003l-0.039-0.018l-0.073-0.037
			l-0.077-0.062l-0.061-0.046l-0.048-0.056l-0.056-0.057l-0.054-0.056l-0.021-0.04l-0.05-0.046l-0.03-0.045l-0.031-0.05l-0.03-0.059
			l-0.021-0.04l-0.032-0.036l-0.007-0.048l-0.002-0.048l0.016-0.047l0.009-0.042l-0.021-0.035l-0.037-0.041L87.089,31l-0.044-0.027
			l-0.032-0.034l-0.038-0.046l-0.055-0.041l-0.057-0.043l-0.043-0.035l-0.043-0.055l-0.05-0.037l-0.046-0.012l-0.058-0.019
			l-0.057-0.032l-0.057-0.027l-0.062-0.022l-0.039-0.017l-0.067-0.022l-0.038-0.041l-0.044-0.032l-0.051-0.035l-0.031-0.046
			l-0.024-0.049l-0.007-0.053l-0.012-0.108l0.026-0.046l0.033-0.056l0.039-0.047l0.016-0.047l-0.013-0.049l0.038-0.041l0.032-0.037
			l0.009-0.101l-0.004-0.034l-0.003-0.039l-0.02-0.054l0.025-0.09l0.037-0.026l0.039-0.041l0.011-0.062l0.056-0.035l0.025-0.026
			l0.021-0.043l0.038-0.041l-0.003-0.039l0.043-0.021l0.039-0.051l0.045-0.045l0.033-0.041l0.027-0.041l0.04-0.062l0.033-0.046
			l0.037-0.046l0.034-0.056l0.06-0.068l0.021-0.038l0.021-0.051l0.034-0.051l0.004-0.053l-0.002-0.048L87,28.442l-0.024-0.054
			l-0.038-0.036l-0.014-0.044l-0.002-0.043l-0.002-0.058l-0.002-0.058L86.89,28.09l-0.031-0.055l-0.047-0.056l-0.033-0.051
			l-0.039-0.063l-0.062-0.046l-0.033-0.057l-0.062-0.046l-0.041-0.057l0.021-0.048l0.056-0.04l0.07-0.044l0.058-0.064l0.059-0.027
			l0.042-0.059l0.02-0.06l-0.011-0.049l-0.064-0.034l-0.094-0.036l-0.1-0.061l-0.048-0.058l-0.012-0.043l-0.022-0.075l-0.02-0.056
			l-0.017-0.075l-0.007-0.086l-0.055-0.076l-0.021-0.086l-0.076-0.078l-0.028-0.1l-0.003-0.061l0.008-0.08l0.021-0.078l-0.001-0.079
			l-0.008-0.098l-0.069-0.079l-0.042-0.086l-0.064-0.048l-0.073-0.056l-0.061-0.051l-0.057-0.034l-0.063-0.05l-0.084-0.054
			l-0.033-0.057l-0.086-0.057l-0.064-0.031l-0.093-0.041l-0.109-0.037l-0.13-0.05l-0.125-0.025l-0.094-0.036l-0.104-0.023
			l-0.079-0.035l-0.08-0.023l-0.064-0.013l-0.057-0.034l-0.056-0.058l-0.063-0.045l-0.032-0.051l-0.011-0.056l-0.002-0.061
			l-0.062-0.038l-0.058-0.004l-0.039-0.005l-0.046-0.015l-0.043-0.02l-0.049-0.052l0.004-0.031l0.003-0.042l-0.036-0.064
			L84.119,24.5l-0.038-0.069l-0.03-0.081l-0.048-0.063l-0.047-0.064l-0.024-0.062l-0.04-0.051l-0.056-0.058l-0.042-0.039
			l-0.07-0.041l-0.072-0.035l-0.065-0.021l-0.07-0.034l-0.161-0.045l-0.072-0.029l-0.065-0.016l-0.088-0.017l-0.071-0.034
			l0.005-0.067l0.042-0.052l0.073-0.076l0.05-0.064l0.05-0.059l0.021-0.066l0.026-0.054l0.013-0.054l-0.008-0.085L83.3,23.106
			l-0.036-0.082l-0.033-0.062l-0.047-0.058l-0.062-0.064l-0.07-0.053l-0.062-0.046l-0.063-0.04l-0.078-0.035l-0.034-0.045
			l-0.056-0.064l-0.032-0.056l-0.031-0.075l-0.038-0.075l-0.083,0.007l-0.098,0.007l-0.108,0.043l-0.089,0.001l-0.104-0.018
			l-0.079-0.035l-0.115-0.042l-0.046-0.082l-0.054-0.088l-0.016-0.074l0.013-0.072l0.08-0.069l0.036-0.071l-0.025-0.057
			l-0.049-0.039l-0.052-0.009l-0.075,0.002l-0.08-0.022l-0.064-0.022L81.558,21.7l-0.096-0.029l-0.091,0.013l-0.075,0.014
			l-0.068,0.021l-0.062,0.021l-0.055,0.021l-0.068,0.021l-0.034-0.039l-0.042-0.039l-0.046-0.093l-0.048-0.052l-0.041-0.051
			l-0.049-0.052l-0.059-0.009l-0.054,0.01l-0.048,0.034l-0.077,0.026l-0.042,0.059l-0.056,0.046l-0.082-0.004L80.29,21.62
			l-0.042-0.033l-0.021-0.063l-0.017-0.036l-0.041-0.045l-0.041-0.045l-0.057-0.034l-0.081-0.022l-0.081-0.01l-0.082-0.011
			l-0.073-0.016l-0.073-0.004l-0.042-0.032l0.005-0.061l0.05-0.052l0.056-0.052l0.035-0.066l0.007-0.079l-0.01-0.067l0.014-0.073
			l-0.001-0.085l0.008-0.079l-0.048-0.076l-0.058-0.119l-0.04-0.051l-0.05-0.039l-0.04-0.057l-0.056-0.052l-0.024-0.068l-0.001-0.05
			v-0.092l0.007-0.079l-0.011-0.062l-0.052-0.009l-0.052-0.015l-0.054,0.016l-0.043,0.077l-0.023,0.071l-0.017,0.043L79.2,20.157
			l-0.103,0.081l-0.047,0.016l-0.084,0.02l-0.09,0.011l-0.111-0.016l-0.072-0.022l-0.049-0.072l-0.025-0.062l-0.031-0.057
			l-0.051-0.019l-0.036-0.029l-0.036-0.007h-0.051l-0.098-0.01l-0.085-0.012l-0.072-0.005l-0.038-0.001h-0.028l-0.043-0.019
			l-0.034-0.036l-0.028-0.028l-0.049-0.06l-0.055-0.044l-0.064-0.034l-0.032-0.063l-0.042-0.045l-0.062-0.04l-0.032-0.057
			l-0.018-0.062L77.6,19.422l-0.04-0.051l-0.011-0.062l-0.058-0.028l-0.075-0.003l-0.078-0.029l-0.079-0.047l-0.018-0.068
			l-0.002-0.073l-0.023-0.069l-0.053-0.089l-0.016-0.086l-0.029-0.093l-0.01-0.081l-0.022-0.08l-0.078-0.041l-0.079-0.047
			l-0.079-0.041l-0.07-0.053l-0.078-0.06l-0.078-0.047l-0.085-0.06l-0.062-0.046l-0.086-0.047l-0.063-0.046l-0.049-0.045
			l-0.056-0.052l-0.056-0.064l-0.08-0.023l-0.098-0.005l-0.104,0.007l-0.098,0.001l-0.091,0.007l-0.099,0.019l-0.129,0.024
			l-0.113,0.012L75.269,18l-0.027-0.032l-0.024-0.05l-0.001-0.085l-0.023-0.081l-0.031-0.081l-0.015-0.093l-0.054-0.04l-0.138-0.069
			l-0.116-0.042l-0.107-0.054l-0.087-0.036l-0.083-0.078l-0.094-0.06l-0.117-0.025l-0.052,0.014l-0.108,0.027l-0.001-0.086
			l0.016-0.097l-0.07-0.053l-0.07-0.053l-0.069-0.071l-0.074-0.083l-0.089-0.029l-0.071-0.022l-0.127-0.013l-0.101-0.061
			l-0.069-0.059l-0.071-0.046l-0.032-0.057l-0.055-0.07l0.093-0.058l0.08-0.049l0.073-0.056l0.062-0.047l0.099-0.111l0.034-0.065
			l0.012-0.046l0.013-0.057l-0.049-0.051l-0.039-0.04l-0.037-0.038l-0.088-0.075l-0.06-0.049l-0.082,0.004l-0.092,0.005
			l-0.085-0.054l-0.04-0.046l-0.043-0.05l-0.086-0.041l-0.062-0.037l-0.074-0.044l-0.042-0.045l-0.027-0.027l-0.04-0.062
			l-0.069-0.053l-0.063-0.046l-0.153-0.064l-0.106-0.073l-0.1-0.066l-0.093-0.066l-0.076-0.065l-0.101-0.066l-0.021-0.105
			l0.008-0.098l0.03-0.103l-0.017-0.138l0.045-0.096l0.042-0.065l0.093-0.014l0.128-0.012l0.066,0.01l0.066,0.01l0.066-0.012
			l0.068-0.012l0.069-0.014l0.074-0.015l0.078-0.033l0.059-0.07l0.044-0.083l0.062-0.119l0.02-0.066l-0.002-0.049l0.007-0.091
			l-0.04-0.063l0.141,0.02l0.166-0.009l0.152-0.035l0.124-0.055l0.081-0.069l0.08-0.069l0.025-0.054l0.038-0.066l0.066-0.079
			l0.016-0.097l-0.039-0.069l-0.066-0.102l-0.037-0.094l-0.021-0.117l-0.001-0.085l-0.008-0.093l0.004-0.055l0.085-0.026l0.037-0.03
			l0.052-0.05l0.051-0.064l0.053-0.095l0.014-0.085l0.022-0.09l0.01-0.085l0.043-0.065l0.002-0.122l-0.002-0.074l-0.042-0.13
			l-0.036-0.106l-0.029-0.105l-0.044-0.112l-0.062-0.144L73.84,10.91l-0.038-0.082l-0.053-0.094l-0.056-0.07l-0.074-0.083
			l-0.049-0.063l-0.048-0.058l-0.084-0.071l-0.018-0.062l-0.111-0.012l-0.136,0.005l-0.129,0.011l-0.283-0.015l-0.146-0.021
			l-0.134-0.084l-0.106-0.124l-0.092-0.065L72.226,9.97L72.12,9.897l-0.102-0.06l-0.079-0.035l-0.097-0.011l-0.098,0.001
			L71.673,9.85l-0.042,0.034l-0.046,0.035l-0.08,0.069l-0.058,0.052l-0.095,0.062l-0.094,0.044l-0.123,0.049l-0.114,0.018
			L70.9,10.237l-0.136,0.005l-0.114,0.012l-0.129-0.062l-0.129-0.08l-0.102-0.042l-0.11-0.03l-0.097-0.011l-0.118-0.024
			l-0.089-0.011l-0.107,0.031l-0.093,0.038l-0.124,0.055l-0.23,0.061l-0.127-0.006l-0.066-0.007l-0.06-0.006l-0.061-0.006
			l-0.051-0.006l-0.061-0.009l-0.079-0.046l-0.108-0.036l-0.078-0.028l-0.062-0.022l-0.087-0.041l-0.186-0.117l-0.053-0.138
			l0.022-0.089l0.037-0.077l0.061-0.034l0.076-0.03l0.054-0.124l0.021-0.1L68.513,9.14l-0.021-0.123l-0.004-0.122L68.514,8.8
			l0.112-0.098l0.146-0.069l0.187-0.066l0.06-0.132l0.067-0.144l0.04-0.104l0.008-0.111l-0.004-0.117l0.01-0.116l-0.03-0.088
			l-0.06-0.109l-0.058-0.079l-0.079-0.095l-0.036-0.083l-0.104-0.072l-0.111-0.072l-0.137-0.062l-0.067-0.051l-0.056-0.074L68.351,7
			l-0.049-0.04l-0.08-0.012l-0.084,0.006L68.057,6.95l-0.088-0.031l-0.046-0.042l-0.023-0.069l0.024-0.099l0.036-0.064l0.065-0.057
			l0.082-0.049L68.19,6.47l0.048-0.077l0.012-0.115l0.008-0.121l0.023-0.107l0.039-0.083l0.032-0.083l0.021-0.054l-0.017-0.083
			l-0.042-0.118l-0.007-0.087l0.016-0.076l0.019-0.097l-0.047-0.128l-0.006-0.09l-0.043-0.073l-0.033-0.073l-0.002-0.101
			l0.037-0.093l0.042-0.093l0.034-0.096l-0.013-0.098L68.297,4.46l-0.035-0.082l-0.044-0.073l-0.077-0.028l-0.086-0.026l-0.1-0.002
			l-0.099,0.008l-0.103,0.029l-0.123,0.036l-0.106,0.034l-0.102,0.061L67.349,4.5L67.26,4.559l-0.104,0.082l-0.071,0.018
			l-0.076,0.059L66.93,4.769l-0.102,0.058l-0.104,0.058l-0.107,0.04l-0.081,0.001l-0.104,0.005L66.328,4.95l-0.11,0.031l-0.087,0.03
			l-0.076,0.022l-0.087-0.015l-0.129-0.001l-0.098,0.045l-0.021,0.012l-0.068,0.039l-0.083,0.036L65.494,5.15l-0.118-0.012
			l-0.062-0.002h-0.041l-0.116-0.011h-0.1l-0.08,0.025l-0.098,0.002l-0.064,0.039l-0.047,0.033l-0.021,0.017l-0.08,0.027
			l-0.06,0.068l-0.018,0.052l-0.013,0.031l-0.035,0.05l-0.012,0.016l-0.046,0.043l-0.022,0.057l-0.044,0.056l-0.048,0.077
			l-0.037,0.059l-0.05,0.058l-0.069,0.076L64.15,5.95l-0.084,0.041l-0.093,0.026L63.888,6.05l-0.06,0.042l-0.051,0.037l-0.039,0.038
			l-0.029,0.051l-0.036,0.054l-0.048,0.066l-0.041,0.08l-0.036,0.075l-0.027,0.04l-0.043,0.054l-0.062,0.088l-0.044,0.084
			L63.346,6.86v0.087l0.029,0.088l0.101,0.085l0.106,0.066l0.116,0.037l0.108,0.051l0.107,0.062l0.077,0.05l0.07,0.06l0.073,0.101
			L64.168,7.6l0.103,0.061l0.102,0.056l0.083,0.065l0.064,0.054l-0.031,0.076L64.427,8l-0.045,0.094l-0.09,0.098v0.08l-0.076,0.104
			l-0.071,0.042l-0.086,0.057l-0.121,0.034l-0.131,0.065l-0.136,0.06L63.55,8.697l-0.118,0.054l-0.079,0.105l-0.027,0.116
			l0.007,0.098l-0.007,0.076l-0.007,0.086l0.012,0.087l0.025,0.078l-0.005,0.071l0.021,0.113L63.43,9.65l0.062,0.075l0.052,0.074
			l0.05,0.079l0.062,0.095l0.082,0.075l0.097,0.061l0.085,0.025l0.13,0.027l0.134,0.042l0.103,0.051l0.082,0.071l0.015,0.067
			l-0.013,0.075l-0.014,0.015L64.3,10.545l-0.071,0.04l-0.082,0.085l-0.067,0.04l-0.033,0.072l-0.038,0.085l-0.005,0.071
			l-0.001,0.087l-0.016,0.111l-0.003,0.117l0.004,0.112l-0.002,0.112l0.017,0.118l-0.037,0.075l-0.024,0.075l-0.045,0.089
			l-0.098,0.051l-0.073,0.062l-0.115,0.04l-0.136,0.054L63.326,12.1l-0.085,0.046l-0.08,0.062l-0.081,0.077l-0.05,0.089
			l-0.047,0.087l-0.024,0.042l-0.033,0.121l-0.021,0.056l-0.01,0.019l-0.031,0.08l0.024,0.083l0.076,0.086l0.021,0.084l-0.02,0.063
			l-0.015,0.091l0.031,0.078l-0.006,0.065v0.092l-0.012,0.104l0.05,0.135l0.002,0.002l-0.013,0.155l-0.005,0.052l-0.08,0.068
			l-0.104,0.066l-0.104,0.035l-0.163,0.022l-0.176-0.004l-0.204-0.025l-0.18-0.024l-0.166-0.024l-0.146-0.039l-0.124-0.021
			l-0.144-0.007l-0.142-0.022l-0.138,0.003l-0.179,0.01l-0.061,0.048l-0.013,0.081l0.002,0.071l0.013,0.077l-0.005,0.066
			l-0.058,0.084l-0.042,0.069l-0.08,0.062l-0.066,0.068l-0.066,0.048l-0.037,0.079l-0.049,0.069l-0.018,0.07l-0.062,0.063
			l-0.056,0.084l-0.074,0.072l-0.087,0.067l-0.136,0.075l-0.08,0.067l-0.056,0.059l-0.056,0.079l-0.07,0.099l-0.03,0.097
			l-0.018,0.068l-0.006,0.095l-0.015,0.088l-0.022,0.063l-0.09-0.014l-0.105-0.022l-0.121-0.034l-0.118-0.021l-0.114-0.002
			l-0.121-0.005l-0.124,0.018l-0.118,0.011l-0.138,0.022l-0.136,0.016L58.4,15.853l-0.11,0.009l-0.105,0.007h-0.115l-0.188-0.007
			l-0.133-0.007l-0.131,0.001l-0.141,0.038l-0.114,0.108l-0.052,0.083l-0.062,0.092l-0.096,0.082l-0.088,0.083l-0.087,0.04
			l-0.1,0.021l-0.108,0.013l-0.155,0.012l-0.114-0.054l-0.064-0.104l-0.037-0.121l-0.058-0.151l-0.062,0.042l-0.262,0.022
			l-0.089,0.006l-0.104-0.02l-0.17,0.017l-0.168-0.003l-0.146-0.063L55.19,15.92l-0.138-0.078l-0.102-0.071l-0.138-0.083
			l-0.105-0.092l-0.123-0.103l-0.104-0.097l-0.062-0.095l-0.078-0.02l-0.097,0.021l-0.079,0.057l-0.05,0.079l-0.074,0.083
			L54.004,15.6l-0.051,0.08l-0.038,0.095l-0.01,0.127l-0.031,0.095l-0.097,0.036l-0.104-0.025l-0.124-0.067l-0.126-0.067
			l-0.123-0.103l-0.111-0.103l-0.106-0.082l-0.099-0.097l-0.093-0.096l-0.081-0.096l-0.092-0.106l-0.066-0.092l-0.062-0.088
			l-0.029-0.065l-0.042-0.109l-0.159-0.033l-0.117,0.061l-0.138,0.1l-0.156,0.074l-0.139,0.024l-0.113-0.029l-0.124-0.059
			l-0.077-0.055l-0.048-0.11l-0.063-0.064l-0.072-0.121l-0.081-0.079l-0.052-0.049l-0.098-0.04l-0.074-0.08l-0.127-0.057
			l-0.146-0.066l-0.07-0.069l-0.062-0.09l-0.078-0.122l-0.081-0.085l-0.05-0.094l-0.057-0.089l-0.104-0.026l-0.144-0.006
			l-0.11-0.021l-0.133,0.007l-0.145-0.013l-0.118-0.024l-0.085-0.03l-0.062-0.064l-0.062-0.12l-0.053-0.13l-0.045-0.16l-0.158,0.028
			l-0.162-0.003l-0.155-0.002l-0.226,0.004l-0.124-0.016l-0.104-0.01l0.064,0.125l0.019,0.104l-0.062,0.088l-0.06,0.033
			l-0.119,0.015l-0.133,0.02l-0.162,0.007l-0.178,0.038l-0.157,0.013l-0.138,0.004l-0.119-0.072l-0.066-0.125l-0.089-0.152
			l-0.048-0.114l-0.047-0.129l-0.028-0.129l-0.101-0.071l-0.146-0.088l-0.062-0.069l-0.09-0.065l-0.049-0.065l-0.049-0.099
			l-0.08-0.111l-0.06-0.12l-0.105-0.097l-0.135-0.042l-0.092-0.06l-0.085-0.034l-0.118-0.016l-0.148-0.102l-0.085-0.121
			l-0.073-0.095l-0.1-0.097l-0.064-0.136l-0.036-0.108l-0.094-0.106l-0.032-0.053l-0.063-0.074l-0.104-0.102l-0.093-0.117
			l-0.072-0.105l-0.025-0.087l0.001-0.097l-0.009-0.051l-0.042-0.114l-0.106-0.092l-0.024-0.175l0.006-0.081l-0.044-0.073
			l-0.016-0.067l-0.093-0.096l-0.084-0.084l-0.077-0.064l-0.103-0.012L44.15,9.563l-0.127,0.03l-0.12,0.062l-0.106,0.049
			L43.664,9.77l-0.018,0.048l-0.008-0.033l-0.017-0.003l-0.049-0.009l-0.049-0.004l-0.033-0.013l-0.125-0.05l-0.149-0.094
			l-0.246-0.275l-0.154-0.196l-0.101-0.096l-0.078-0.116l-0.093-0.111l-0.062-0.069l-0.093-0.02l-0.098-0.051L42.19,8.602
			l-0.111-0.097L41.98,8.398l-0.094-0.091l-0.123-0.112l-0.106-0.092l-0.1-0.102l-0.114-0.062l-0.128-0.041h-0.113L41.106,7.9
			l-0.15,0.032l-0.08-0.009l-0.091,0.042l-0.114,0.02L40.54,7.989l-0.112,0.005L40.29,7.982l-0.093-0.01L40.049,7.94l-0.171-0.054
			l-0.133-0.067L39.512,7.68l-0.125-0.098L39.367,7.5l0.021-0.101l-0.014-0.098l-0.012-0.102L39.318,7.12l-0.106-0.086L39.11,6.973
			l-0.096-0.076l-0.119-0.072l-0.141-0.181l-0.008-0.082l-0.03-0.093l0.006-0.081l0.013-0.098l-0.023-0.109l-0.03-0.137
			l-0.008-0.111l-0.01-0.128L38.656,5.72l-0.01-0.061l-0.055-0.097L38.488,5.53L38.32,5.517l-0.155-0.018l-0.139,0.019l-0.159,0.039
			l-0.046,0.028l-0.067,0.063l-0.078,0.113l-0.066,0.097l-0.052,0.106l-0.087,0.083h-0.097l-0.232-0.086l-0.144-0.029L36.9,5.934
			l-0.146,0.038l-0.122,0.029l-0.144-0.006l-0.122-0.023L36.259,5.92l-0.114-0.075l-0.129-0.083l-0.085-0.059l-0.084-0.057
			l-0.055-0.025l-0.17-0.083L35.528,5.49L35.44,5.414l-0.053-0.089l-0.011-0.069l0.043-0.113l0.055-0.072l0.062-0.083l0.046-0.061
			l0.025-0.052l0.003-0.06l-0.046-0.043l-0.062-0.03l-0.006-0.003l-0.091-0.036l-0.096-0.007l-0.198-0.045l-0.166-0.04l-0.092-0.039
			L34.72,4.515l-0.154-0.078l-0.126-0.038L34.312,4.4l-0.166,0.086l-0.156,0.066l-0.167,0.043l-0.188,0.057l-0.1,0.048l-0.108,0.074
			l-0.093,0.062l-0.124,0.06l-0.116,0.061l-0.147,0.059L32.833,5.03l-0.146,0.007l-0.11-0.018l-0.133-0.052l-0.107-0.145
			L32.313,4.71l-0.008-0.137l-0.019-0.086l-0.025-0.093l-0.049-0.05L32.16,4.289l-0.173-0.088l-0.122-0.062L31.771,4.1l-0.108-0.064
			L31.551,3.99l-0.114-0.049l-0.112-0.053l-0.123-0.045l-0.107-0.036l-0.157-0.079l-0.11-0.052l-0.045-0.045l-0.067-0.047
			L30.63,3.611l-0.067,0.056l-0.097,0.12L30.38,3.868l-0.123,0.047l-0.114,0.034l-0.248,0.057l-0.158,0.016l-0.192-0.009
			l-0.198-0.01l-0.062-0.022l-0.118-0.022L28.93,3.883l-0.242-0.194l-0.122-0.104L28.35,3.452L28.244,3.46l-0.062,0.122
			l-0.135,0.073l-0.088,0.114l-0.005,0.007l-0.081,0.12l-0.039,0.125l-0.036,0.103l-0.015,0.098l-0.044,0.093L27.65,4.476h-0.291
			l-0.168-0.031l-0.207-0.018l-0.131-0.03l-0.208-0.049l-0.182-0.025L26.31,4.29l-0.1-0.004l-0.201-0.125l-0.12-0.042L25.79,4.044
			l-0.095-0.105l-0.103-0.013l-0.135-0.007l-0.141-0.021l-0.132-0.025l-0.112-0.038L24.958,3.79l-0.097-0.076l-0.122-0.096
			l-0.062-0.05l-0.067-0.04l-0.011-0.01l-0.056-0.057L24.41,3.33l-0.082-0.081l-0.087-0.051l-0.046,0.004l-0.055-0.003l-0.087,0.038
			l-0.058,0.054L23.81,3.476l-0.113,0.076l-0.102,0.04l-0.092,0.002l-0.121-0.027l-0.105-0.028l-0.098-0.031L23.081,3.48
			l-0.136-0.02l-0.1-0.011l-0.1-0.001l-0.07,0.011L22.59,3.506l-0.066,0.058l-0.069,0.074l-0.068,0.091l-0.055,0.079l-0.062,0.078
			l-0.037,0.066l-0.048,0.092l-0.06,0.085L22.08,4.161l-0.069-0.009l-0.067-0.03l-0.08-0.05L21.758,4.04l-0.097-0.041l-0.184-0.077
			l-0.099-0.007l-0.095-0.011l-0.106-0.015l-0.079-0.003l-0.082,0.003l-0.08,0.01L20.805,3.9l-0.093-0.041l-0.071-0.076
			l-0.067-0.071l-0.05-0.06L20.463,3.61l-0.049-0.016l-0.047,0.019l-0.057,0.042l-0.089,0.027l-0.183,0.069l-0.084,0.014
			L19.87,3.738l-0.146-0.07l-0.067-0.033l-0.071-0.047l-0.1-0.058l-0.098-0.048l-0.083-0.057l-0.111-0.056l-0.108-0.058L18.983,3.3
			L18.87,3.322l-0.05,0.065l-0.038,0.08l-0.081,0.101l-0.075,0.081l-0.001,0.084l-0.019,0.08l0.003,0.095l0.006,0.168l-0.106,0.099
			l-0.123,0.042l-0.133,0.069l-0.075,0.01l-0.193,0.046l-0.11-0.011l-0.08,0.007L17.688,4.33L17.61,4.316L17.52,4.295l-0.104-0.038
			l-0.092-0.064l-0.05-0.056l-0.047-0.066l-0.101-0.176l-0.024-0.072L17.046,3.74l-0.073-0.155l-0.059-0.046l-0.053-0.026
			l-0.085-0.02l-0.098,0.016l-0.17,0.064l-0.123,0.056l-0.103,0.056l-0.115,0.042l-0.102,0.04l-0.144,0.028l-0.111-0.011
			l-0.09-0.021l-0.081-0.024L15.54,3.698l-0.129-0.063l-0.148-0.073l-0.118-0.028l-0.119-0.055l-0.129-0.083l-0.146-0.06
			l-0.252-0.117l-0.176-0.027l-0.161,0.03l-0.126,0.025l-0.133,0.002l-0.132-0.044l-0.227-0.017l-0.009-0.027l-0.12-0.014
			l-0.106-0.012L13.12,3.12l-0.103-0.043l-0.126-0.114l-0.2-0.239l-0.064-0.081l-0.062-0.076l-0.079-0.093l-0.041-0.087
			l-0.082-0.073L12.23,2.293l-0.155,0.048l-0.107,0.058l-0.172,0.008l-0.11-0.066l-0.051-0.103l0.066-0.133l-0.046-0.18
			l-0.033-0.226l-0.146-0.277l-0.218-0.164L11.113,1.12l-0.145-0.138l-0.157-0.076l-0.18-0.09l-0.137-0.098l-0.148-0.061
			l-0.108-0.074l-0.121-0.044l-0.104,0.004L9.93,0.585L9.774,0.631L9.656,0.707l-0.13,0.055L9.238,0.959L9.037,1.018l-0.26-0.13
			L8.642,0.88L8.404,0.886L8.175,0.892L7.88,0.895L7.729,0.874L7.54,0.859L7.379,0.845L7.263,0.827L7.136,0.836L7.095,0.962
			L7.086,1.088L7.102,1.21L7.078,1.349L6.991,1.452L6.833,1.554L6.738,1.701L6.733,1.874L6.75,2.031l0.179,0.156l0.109,0.082
			L7.029,2.384L6.872,2.648L6.805,2.704L6.753,2.995l0.04,0.093l0.083,0.076l0.125,0.124l0.053,0.14l0.099,0.163l0.028,0.134
			L7.145,3.819L7.071,3.922L6.965,4.004L6.749,4.023l-0.18,0.049L6.429,4.095L6.1,4.098L5.942,4.105L5.834,4.088L5.595,4.079
			L5.6,4.153L5.539,4.299L5.391,4.437L5.245,4.533l-0.4,0.181L4.457,4.795L4.149,4.819L3.954,4.764L3.69,4.56L3.335,4.29"/>
	</g>
</g>
<g id="Layer_1">
</g>
</svg>
