<?xml version="1.0" encoding="iso-8859-1"?>
<!-- Generator: Adobe Illustrator 16.0.4, SVG Export Plug-In . SVG Version: 6.00 Build 0)  -->
<!DOCTYPE svg PUBLIC "-//W3C//DTD SVG 1.1//EN" "http://www.w3.org/Graphics/SVG/1.1/DTD/svg11.dtd">
<svg version="1.1" xmlns="http://www.w3.org/2000/svg" xmlns:xlink="http://www.w3.org/1999/xlink" x="0px" y="0px"
	 width="36.971px" height="27.341px" viewBox="0 0 36.971 27.341" style="enable-background:new 0 0 36.971 27.341;"
	 xml:space="preserve">
<g id="Layer_94">
	<g id="Layer_99">
		<path id="DISTRICT_x3D_Mandi_Bahauddin_x2C_PROVINCE_x3D_Punjab" style="fill:#CCCCCC;stroke:#FFFFFF;stroke-width:1.07;" d="
			M6.813,7.333L6.813,7.333L6.827,7.37L6.818,7.412l-0.09,0.17l-0.053,0.15l-0.03,0.163l0.009,0.373l0.048,0.423l0.089,0.375
			l0.062,0.197l0.083,0.429L6.94,9.779L6.912,9.872L6.86,9.92L6.711,9.976l-0.106,0.059L6.528,10.12l-0.023,0.103l-0.039,0.075
			l-0.069,0.039l-0.117,0.041l-0.198,0.058l-0.08,0.035l-0.03,0.042l-0.077,0.104l-0.107,0.11l-0.127,0.087l-0.15,0.061
			l-0.307,0.112l-0.14,0.06l-0.11,0.073l-0.029,0.065l0.015,0.069l0.03,0.054l0.083,0.039l0.116,0.028l0.196,0.012l0.104,0.015
			l0.056,0.03l0.041,0.054l0.039,0.128l-0.039,0.23l-0.13,0.342L5.385,12.29l-0.166,0.158l-0.207,0.123L4.68,12.68l-0.205,0.035
			L4.276,12.71l-0.182-0.007l-0.191-0.03l-0.183-0.035H3.585l-0.238,0.027l-0.335,0.049l-0.422,0.07l-0.319,0.044l-0.168,0.015
			l-0.119-0.01l-0.1-0.019l-0.077,0.002l-0.053,0.021l-0.047,0.034l-0.062,0.104l-0.051,0.182L1.6,13.254l0.034,0.104L1.62,13.414
			l-0.037,0.057L1.53,13.51l-0.17,0.089L1.2,13.656L1.069,13.67L0.87,13.71l-0.112,0.027l-0.074,0.049l-0.083,0.081l-0.056,0.076
			l-0.007,0.088l-0.003,0.591l0.043,0.1l0.054,0.076l0.111,0.065l0.104,0.033l0.273,0.032l0.149,0.041l0.193,0.066l0.204,0.112
			l0.13,0.101l0.119,0.089l0.035,0.045l0.002,0.05l-0.033,0.094L1.903,15.6l0.025,0.105l0.152,0.096l0.123,0.079l0.062,0.044
			l0.069,0.072l0.05,0.141l0.081,0.209l0.037,0.073l0.079,0.065l0.084,0.047l0.041,0.06l0.023,0.151l-0.002,0.166l0.022,0.133
			l0.021,0.091l0.064,0.085l0.074,0.062l0.062,0.062l0.046,0.035l0.02,0.045l0.005,0.114l-0.01,0.121l-0.049,0.131l-0.096,0.166
			L2.8,18.039l-0.067,0.058l-0.083,0.091l-0.086,0.118l-0.022,0.079l-0.047,0.154l-0.057,0.09l-0.036,0.037l-0.128,0.051
			l-0.188,0.057L1.833,18.82l-0.107,0.041l-0.057,0.058l-0.018,0.098l-0.019,0.065l-0.041,0.039L1.48,19.193l-0.059,0.03
			l-0.013,0.065l0.009,0.068l0.034,0.055l0.067,0.039l0.11,0.027l0.12,0.006l0.101-0.041l0.076-0.018l0.077,0.021l0.045,0.029
			l0.023,0.069l0.021,0.101l-0.001,0.088l0.025,0.086l0.046,0.035l0.071,0.03l0.088,0.024l0.082,0.011l0.099-0.013l0.146-0.033
			l0.191-0.081l0.195-0.123l0.189-0.091l0.414-0.203l0.186-0.113l0.097-0.031l0.076-0.003l0.081,0.017l0.058,0.021l0.062,0.058
			l0.023,0.056l0.003,0.055l-0.06,0.113L4.12,19.633l-0.062,0.1L4.037,19.82l0.011,0.097l0.024,0.091L4.12,20.07l0.184,0.141
			l0.158,0.234l0.13,0.222l0.231,0.495l0.062,0.274l0.102,0.314l0.063,0.062l0.056,0.035l0.167,0.004l0.107-0.027l0.122-0.068
			l0.127-0.057l0.107-0.013l0.143,0.019l0.188,0.053l0.179,0.072l0.182,0.039l0.098,0.002l0.08-0.021l0.084-0.053l0.152-0.117
			l0.225-0.188l0.062-0.072l0.044-0.094l0.03-0.057l0.009-0.051l0.018-0.074l-0.002-0.046l0.016-0.032l0.025-0.025l0.053-0.028
			l0.063-0.021l0.064-0.03l0.041-0.038l0.035-0.043l0.029-0.064l0.02-0.057l0.031-0.033l0.074-0.025l0.098-0.004l0.062,0.021
			l0.04,0.035l0.031,0.087l-0.007,0.097l-0.031,0.107l0.008,0.074l0.036,0.059l0.072,0.048l0.177,0.05L8.23,21.31l0.078,0.052
			l0.06,0.09l0.015,0.074l0.001,0.062l-0.042,0.149l-0.055,0.112l-0.064,0.122l-0.007,0.083l0.015,0.078l0.052,0.062l0.052,0.041
			l0.099,0.02l0.1,0.02l0.062,0.055l0.029,0.045l0.021,0.104l0.012,0.124l0.055,0.123l0.07,0.089l0.13,0.103l0.124,0.102
			l0.037,0.086l0.015,0.193l-0.017,0.125l-0.024,0.121l-0.124,0.378l-0.031,0.12l0.004,0.181l0.021,0.119l0.043,0.123l0.076,0.099
			l0.101,0.07l0.129,0.074l0.138,0.046l0.145,0.041h0.146l0.137-0.005l0.114,0.027l0.072,0.035l0.062,0.067l0.027,0.142
			l-0.004,0.133l0.009,0.088l0.044,0.108l0.069,0.085l0.119,0.107l0.168,0.113l0.135,0.092l0.097,0.08l0.053,0.078l0.043,0.104
			l0.062,0.164l0.101,0.149l0.099,0.125l0.113,0.111l0.129,0.078l0.023-0.021l0.02-0.01l0.048-0.011l0.062-0.015l0.055-0.014
			l0.064-0.045l0.02-0.005l0.065-0.009l0.101-0.035l0.091-0.052l0.181-0.091l0.096-0.064l0.12-0.068l0.085-0.057l0.08-0.047
			l0.156-0.048l0.166-0.058l0.159-0.063l0.086-0.043l0.067-0.032l0.046-0.043l0.024-0.034l0.035-0.043l0.079-0.043l0.115-0.069
			L13.5,25.59l0.085-0.061l0.066-0.057l0.05-0.029l0.064-0.021l0.137-0.039l0.109-0.039l0.11-0.047l0.104-0.053l0.116-0.078
			l0.135-0.115l0.131-0.129l0.095-0.096l0.134-0.123l0.141-0.107l0.096-0.061l0.086-0.043l0.176-0.061l0.109-0.043l0.183-0.057
			l0.151-0.034l0.154-0.048l0.201-0.064l0.091-0.021l0.155-0.039l0.156-0.043l0.069-0.026l0.085-0.026l0.068-0.092l0.114-0.15
			l0.129-0.112l0.239-0.213l0.106-0.119l0.085-0.106l0.079-0.094l0.078-0.062l0.102-0.094l0.093-0.089l0.057-0.069l0.028-0.062
			l0.028-0.056l0.027-0.057l0.063-0.068l0.215-0.238l0.092-0.138l0.021-0.044l-0.01-0.049l-0.021-0.03l-0.029-0.043l-0.001-0.037
			l0.028-0.043l0.121-0.125l0.129-0.138l0.108-0.058l0.087-0.032l0.079-0.014l0.065,0.005l0.088,0.042l0.118,0.061l0.081,0.056
			l0.124,0.035l0.161,0.028l0.116-0.006l0.059-0.014l0.035-0.032l0.043-0.056l0.021-0.081l0.014-0.104l-0.015-0.104l-0.003-0.181
			l0.02-0.147l0.043-0.087l0.069-0.188l0.069-0.125l0.173-0.139l0.193-0.15l0.229-0.17l0.273-0.178l0.419-0.246l0.427-0.197
			l0.436-0.172l0.346-0.096l0.182-0.033l0.271-0.033l0.428-0.105l0.146-0.062l0.201-0.127l0.188-0.096l0.159-0.082l0.317-0.128
			l0.175-0.088l0.174-0.077l0.093-0.081l0.159-0.089l0.174-0.089l0.271-0.128l0.312-0.152l0.254-0.096l0.195-0.083l0.253-0.114
			l0.146-0.052l0.14-0.015l0.046,0.005l-0.021-0.08l-0.015-0.081l-0.001-0.038l0.062-0.034l0.104-0.018l0.032-0.008l0.141,0.008
			l0.256,0.012l0.205-0.004l0.159-0.014l0.07-0.012l0.03-0.033l0.02-0.043l0.004-0.056l0.023-0.087l0.019-0.044l0.037-0.038
			l0.101-0.04l0.203-0.08l0.127-0.024l0.071,0.016l0.039,0.025l0.04,0.055l0.059,0.064l0.052,0.025l0.053,0.01l0.058-0.007
			l0.044-0.022l0.057-0.066l0.062-0.126l0.055-0.065l0.043-0.066l0.031-0.049l0.031-0.027l0.088-0.029l0.135-0.013l0.097,0.003
			l0.067,0.003l0.033,0.043l0.062,0.124l0.03,0.194l0.074,0.118l0.033,0.048l0.046,0.042l0.046,0.059l0.033,0.049l0.063,0.021
			l0.027,0.06l0.059,0.057l0.109,0.037l0.18-0.004l0.129-0.02l0.044-0.033l0.017-0.082l0.046-0.207l0.003-0.13l0.023-0.065
			l0.031-0.033l-0.008-0.043l-0.014-0.027l-0.015-0.054l-0.001-0.05l0.022-0.075l0.013-0.05l-0.003-0.037l-0.02-0.061l-0.002-0.037
			l0.019-0.033l0.038-0.012l0.069-0.018l0.052,0.004l0.021,0.098l0.001,0.271l0.003,0.114l0.025,0.025h0.045l0.063-0.039l0.15-0.084
			l0.068-0.056l0.03-0.05l0.03-0.076l0.042-0.087l0.044-0.056l0.05-0.033l0.063-0.012l0.045-0.022l0.023-0.027l-0.001-0.039
			l-0.026-0.048l-0.039-0.043l0.019-0.033l0.025-0.021l0.044-0.012l0.052,0.016l0.206,0.056l0.122,0.003l0.096,0.014l0.046,0.033
			l0.04,0.047h0.051l0.044-0.022l0.045-0.044l0.056-0.051l0.086-0.047l0.088-0.056l0.07-0.028l0.068-0.008l0.109-0.018l0.069-0.018
			l0.058-0.022l0.062-0.034l0.14-0.095l0.207-0.149l0.105-0.09l0.151-0.089l0.151-0.074l0.113-0.019l0.116,0.009l0.116,0.021
			l0.07,0.015l0.045-0.013l0.018-0.032l-0.004-0.034l-0.021-0.027l0.019-0.033l0.031-0.033l0.058-0.016l0.063-0.002h0.051
			l0.078,0.014l0.044-0.012l0.024-0.027l0.024-0.038l0.038-0.022l0.05-0.012l0.09,0.004l0.091,0.016l0.148,0.039l0.122,0.059
			l0.084,0.031l0.07-0.006l0.045-0.018l0.044-0.028l0.037-0.038l0.036-0.084l0.024-0.033l0.037-0.032l0.082-0.023l0.084-0.001
			l0.058,0.004l0.026,0.016l0.007,0.05l0.027,0.049l0.031,0.026l0.046,0.01l0.113-0.04l0.165-0.062l-0.119-0.082l-0.134-0.12
			l-0.062-0.007l-0.035-0.008l-0.031-0.025l-0.052-0.059l-0.042-0.072l-0.023-0.082l0.003-0.086l0.01-0.095l-0.014-0.098
			l-0.069-0.153l-0.061-0.154l-0.038-0.094l0.003-0.098l0.008-0.104l0.032-0.108l0.039-0.073l0.048-0.083l0.045-0.044L35.33,13.51
			l-0.011-0.047l-0.037-0.06l-0.062-0.055l-0.118-0.066l-0.087-0.042l-0.159-0.04l-0.062-0.033L34.687,13.1l-0.089-0.084
			l-0.138-0.225l-0.072-0.08l-0.082-0.132l-0.099-0.147l-0.103-0.067l-0.197-0.082l-0.269-0.107l-0.194-0.112l-0.119-0.05
			l-0.121-0.034l-0.116-0.014l-0.152-0.028l-0.154-0.052l-0.162-0.08l-0.104-0.077l-0.084-0.089l-0.024-0.062l0.01-0.055
			l0.011-0.066l-0.001-0.036L32.4,11.389l-0.056-0.041l-0.086-0.018l-0.262-0.036l-0.077-0.013l-0.065-0.026l-0.139-0.093
			l-0.145-0.132l-0.015-0.055l-0.001-0.039l-0.003-0.046l-0.023-0.027l-0.063-0.018l-0.086-0.021l-0.062-0.062l-0.068-0.147
			l-0.028-0.093v-0.229l0.006-0.27l0.001-0.085l0.044-0.343l-0.006-0.394l-0.021-0.044V9.113l0.017-0.048l0.03-0.062l0.036-0.043
			l0.089-0.09l0.099-0.097l0.071-0.076l0.062-0.09l0.046-0.095l0.008-0.051l0.016-0.062l0.002-0.066l-0.033-0.085l-0.028-0.067
			l-0.029-0.03l-0.038-0.026l-0.077-0.034l-0.15-0.032l-0.144-0.014l-0.207-0.037l-0.169-0.021l-0.146-0.021L30.56,7.948
			l-0.16-0.014L30.257,7.91l-0.174-0.051l-0.2-0.088l-0.31-0.156L29.406,7.52L29.262,7.4l-0.116-0.101l-0.098-0.086l-0.057-0.06
			l-0.033-0.06l-0.002-0.059l0.006-0.066l0.021-0.073l0.007-0.125l-0.003-0.062l0.002-0.04L28.964,6.62l-0.043-0.056l-0.033-0.045
			l-0.037-0.048l-0.021-0.052l0.001-0.037l0.019-0.021l0.019-0.029l0.015-0.033l-0.004-0.048l-0.012-0.044l-0.038-0.052
			l-0.051-0.056l-0.062-0.04l-0.111-0.062l-0.177-0.084l-0.141-0.041L28.07,5.825l-0.4-0.104L27.48,5.674l-0.095-0.056l-0.057-0.049
			l-0.104-0.11l-0.075-0.083l-0.101-0.099l-0.05-0.044L26.942,5.2l-0.083-0.028l-0.107-0.034L26.69,5.099L26.653,5.06l-0.057-0.065
			l-0.056-0.082l-0.018-0.076L26.513,4.75l-0.011-0.151l-0.03-0.107L26.4,4.285l-0.14-0.283l-0.104-0.174l-0.087-0.115l-0.043-0.06
			l-0.024-0.044l-0.006-0.032l0.027-0.043l0.046-0.064l0.047-0.085l0.033-0.064l0.034-0.086l0.014-0.059l-0.011-0.065l-0.024-0.06
			l-0.049-0.071L25.98,2.907l-0.113-0.056l-0.07-0.028L25.57,2.74l-0.33-0.145l-0.074,0.088l-0.032,0.078l-0.027,0.047l-0.037,0.026
			l-0.044,0.018l-0.064,0.01l-0.062-0.003l-0.097-0.018l-0.057-0.026l-0.099-0.086l-0.108-0.094l-0.076-0.1l-0.147-0.221
			l-0.105-0.22L24.115,1.89l-0.079-0.093l-0.08-0.082l-0.121-0.111l-0.124-0.056l-0.188-0.065l-0.151-0.058l-0.097-0.032
			l-0.068-0.057l-0.034-0.061l-0.029-0.106l-0.002-0.066l0.019-0.089l0.026-0.113L23.18,0.845l-0.036-0.079l-0.045-0.06
			l-0.008-0.039l0.012-0.033l-0.051-0.009h-0.026l-0.017,0.006l-0.021,0.007l-0.01,0.028L22.962,0.69l-0.026,0.02l-0.038,0.002
			l-0.041-0.004l-0.034-0.01l-0.021-0.032l-0.031-0.067l-0.038-0.041L22.67,0.551l-0.036,0.021l-0.01,0.022l-0.021,0.07
			l-0.015,0.055L22.57,0.764l-0.013,0.051L22.55,0.854l-0.038,0.112l-0.096,0.178l-0.069,0.125l-0.088,0.112l-0.062,0.098
			l-0.09,0.096l-0.15,0.149l-0.108,0.111L21.8,1.901l-0.032,0.078l-0.016,0.102l0.003,0.062L21.754,2.21L21.73,2.256L21.712,2.29
			l-0.023,0.019l-0.03,0.005l-0.074,0.002l-0.097-0.003l-0.068,0.015l-0.052,0.017l-0.061,0.026l-0.055,0.045L21.208,2.47
			l-0.061,0.075l-0.09,0.082L20.96,2.693l-0.101,0.066l-0.045,0.016l-0.086,0.046l-0.168,0.075L20.46,2.937l-0.062,0.037
			l-0.03,0.032l-0.039,0.065l-0.04,0.068l-0.028,0.043l-0.026,0.014L20.19,3.214L20.111,3.22l-0.108-0.008L19.866,3.2L19.81,3.205
			l-0.072,0.021l-0.031,0.01l-0.077,0.046l-0.073,0.065l-0.049,0.038l-0.107,0.09l-0.169,0.18l-0.13,0.143l-0.099,0.093
			l-0.115,0.075l-0.131,0.073l-0.149,0.056l-0.121,0.029l-0.171,0.034H18.15L17.929,4.14L17.85,4.136l-0.052-0.002l-0.085,0.022
			l-0.118,0.073l-0.239,0.185L17.139,4.56l-0.184,0.108l-0.137,0.101l-0.087,0.065l-0.062,0.023l-0.13,0.029l-0.141,0.021
			l-0.081,0.03l-0.144,0.025l-0.226,0.022l-0.201,0.039l-0.28,0.06l-0.182,0.088l-0.171,0.076l-0.133,0.044l-0.167,0.042
			l-0.174,0.014l-0.223,0.019L14.269,5.38l-0.002,0.143l-0.16,0.022l-0.352,0.083l-0.346,0.087L13.19,5.784l-0.07,0.025
			l-0.064,0.033l-0.051,0.037l-0.025,0.04l-0.022,0.057l-0.017,0.06l-0.036,0.069l-0.018,0.056l-0.025,0.052l-0.023,0.021
			l-0.032,0.017L12.77,6.256l-0.033-0.011l-0.033-0.023l-0.011-0.031l-0.014-0.103l-0.017-0.063L12.638,6.01l-0.026-0.003
			L12.54,6.016l-0.232,0.042l-0.154,0.027l-0.158,0.033l-0.07,0.013l-0.093,0.026l-0.069,0.042l-0.138,0.095l-0.12,0.083
			l-0.166,0.107L11.15,6.592l-0.129,0.074l-0.189,0.108l-0.167,0.091L10.56,6.931l-0.093,0.066l-0.056,0.017l-0.057,0.001
			l-0.08-0.01l-0.076-0.021l-0.033-0.003l-0.041,0.017l-0.031,0.061l-0.045,0.068L9.984,7.184L9.928,7.21L9.756,7.277L9.534,7.352
			L9.212,7.423L9.006,7.452L8.884,7.447l-0.166-0.02L8.587,7.438L8.513,7.456L8.429,7.502l-0.16,0.095l-0.152,0.08l-0.1,0.014
			L7.922,7.666L7.85,7.628L7.816,7.577L7.799,7.498L7.785,7.379L7.729,7.265L7.675,7.187L7.614,7.152l-0.09-0.018L7.416,7.125
			l-0.14,0.047L7.033,7.23L6.813,7.333"/>
	</g>
</g>
<g id="Layer_1">
</g>
</svg>
