<?xml version="1.0" encoding="iso-8859-1"?>
<!-- Generator: Adobe Illustrator 16.0.4, SVG Export Plug-In . SVG Version: 6.00 Build 0)  -->
<!DOCTYPE svg PUBLIC "-//W3C//DTD SVG 1.1//EN" "http://www.w3.org/Graphics/SVG/1.1/DTD/svg11.dtd">
<svg version="1.1" xmlns="http://www.w3.org/2000/svg" xmlns:xlink="http://www.w3.org/1999/xlink" x="0px" y="0px"
	 width="28.007px" height="18.105px" viewBox="0 0 28.007 18.105" style="enable-background:new 0 0 28.007 18.105;"
	 xml:space="preserve">
<g id="Layer_170">
	<g id="Layer_175">
		<path id="DISTRICT_x3D_Batagram_x2C_PROVINCE_x3D_NWFP" style="fill:#CCCCCC;stroke:#FFFFFF;stroke-width:1.07;" d="M2.212,8.978
			L2.212,8.978L2.046,9.267L2.025,9.399l-0.02,0.119l-0.127,0.575l0.093,0.298l-0.04,0.317l0.146,0.202l0.043,0.14l-0.02,0.107
			L2.048,11.35l-0.182,0.947l0.007,0.131l0.04,0.086l0.086,0.078l0.266,0.146l0.051,0.085l0.05,0.086l-0.04,0.265l-0.083,0.371
			l-0.079,0.308l-0.07,0.424l0.002,0.196l-0.021,0.462l0.04,0.048l0.127,0.016l0.021,0.066l-0.029,0.322l0.014,0.111l0.003,0.295
			l0.027,0.11L2.29,15.92l0.219,0.25l0.013-0.004l0.023,0.059l0.069,0.167l0.209,0.206l-0.008,0.008l0.01-0.005l0.096,0.095
			l0.012,0.007l0.062,0.041l0.13,0.085l0.172,0.117l0.15,0.184l0.137,0.125l0.125,0.055l0.221-0.186l0.195-0.056l0.168-0.045
			l0.07-0.047l0.026-0.019l0.228-0.219l0.014-0.014l0.111-0.109l0.1-0.005l0.168,0.028l0.074,0.029l0.071,0.024l0.057,0.021
			l0.202,0.06l0.181,0.019l0.231-0.016l0.048-0.048l0.091-0.108v0.004l0.111-0.08L6.2,16.452l0.057-0.093l0.064-0.046l0.065-0.015
			L6.5,16.311l0.241,0.035l0.174-0.051l0.04-0.01l0.157,0.024l0.005,0.001l0.001,0.001l0.057,0.073l0.043,0.055l0.025,0.086
			l0.001,0.002l0.023,0.046l0.041,0.132l0.021,0.057l0.04,0.078l0.062,0.121l0.054,0.109l0.097,0.148l0.021,0.031l0.052,0.09
			l0.028,0.021l0.023,0.015l0.08,0.021h0.003l0.041-0.001l0.105-0.002h0.021l0.124,0.033L8.178,17.5l0.103,0.045l0.172,0.021
			l0.198-0.023l0.331-0.023l0.195-0.03l0.172-0.09l0.172-0.077l0.043-0.02l0.107-0.057l0.112-0.086l0.038-0.035h0.001l0.062-0.095
			l0.035-0.083l0.024-0.049v-0.083L9.95,16.75l0.008-0.086l-0.031-0.105l-0.105-0.15l0.001-0.061l0.002-0.145l0.024-0.345
			l-0.001-0.127l-0.051-0.034l0.001-0.008l0.047-0.197v-0.001l-0.002-0.1l0.009-0.052l-0.008-0.041l0.007-0.055l0.029-0.068
			l0.025-0.041l0.026-0.031l0.003-0.039v-0.048l-0.014-0.084l0.002-0.076l0.018-0.065l0.201-0.18l0.002-0.001l0.094-0.073
			l0.072-0.059l0,0l0.023-0.018l0.091-0.119l0.067-0.086l0.079-0.07l0.081-0.073h0.001l0.024-0.022h0.001l0.005-0.004l0.002-0.002
			h0.001l0.035-0.024l0.071-0.05l0.091-0.051l0.095-0.041l0.179-0.088l0.105-0.063l0.137-0.074l0.104-0.035l0.129-0.114l0.1,0.025
			l0.401,0.1l0.795,0.027l0.75,0.023l0.162-0.028l0.059-0.011l0.009-0.213l-0.006-0.201l-0.005-0.24l0.016-0.251l0.058-0.229
			l0.027-0.088l0.11-0.166l0.204-0.131l0.119-0.121l0.094-0.306l0.002-0.131l0.001-0.128l-0.026-0.121l-0.108-0.157l0.169-0.455
			l0.147-0.274l0.063-0.211l0.056-0.152l0.25-0.142l0.109-0.021l0.14-0.182l0.043-0.073l0.194-0.156l-0.027-0.107l-0.049-0.079
			l-0.142-0.167l-0.075-0.122l-0.118-0.21l-0.029-0.161l-0.035-0.152l0.169-0.183l0.111-0.104l0.325-0.115l0.302-0.133l0.187-0.095
			l0.255-0.095l0.395-0.096h0.232l0.33-0.023l0.204-0.034h1.207l0.44,0.038l0.364,0.044l0.416,0.344l0.473,0.069l0.257,0.172
			l0.366,0.156l0.665,0.096l0.462,0.016l0.19-0.122l0.085-0.128l-0.01-0.129l-0.017-0.29l0.019-0.132l0.019-0.088l0.046-0.142
			l0.021-0.036l0.068-0.062l0.065-0.055l0.218-0.042l0.055-0.004l0.214-0.033l0.411-0.062l0.268-0.041l0.359-0.055l0.02-0.005
			l0.099-0.059l0.054-0.124l-0.002-0.093l0.001-0.084l0.001-0.141l0.024-0.138l0.033-0.096l0.024-0.055l0.04-0.108l0.104-0.065
			l0.147-0.094l0.138-0.085l0.084-0.077l0.07-0.075l0.081-0.076l0.06-0.089L25.34,5.56l0.138-0.153l0.05-0.069l0.074-0.071
			l0.067-0.063l0.071-0.062l0.12-0.075l0.141-0.094l0.082-0.06l0.074-0.045L26.31,4.78l0.035-0.021l0.081-0.04l0.097-0.046
			l0.137-0.045l0.07-0.061l0.048-0.123l0.001-0.007l-0.065-0.091l-0.019-0.083l-0.009-0.091l-0.001-0.093l-0.021-0.083l-0.018-0.13
			l-0.021-0.113l-0.043-0.125l-0.01-0.042l-0.01-0.044L26.5,3.425l0.068-0.076l0.06-0.062l0.09-0.082l-0.435-0.028l-0.407-0.032
			l-0.205-0.002l-0.228-0.007l-0.17,0.042L25.011,3.24h-0.164L24.63,3.243l-0.312-0.097l-0.143-0.057l-0.282-0.087l-0.007-0.001
			l-0.21-0.17l-0.17-0.17l-0.258-0.209l-0.066-0.054l-0.101-0.062L22.826,2.23l-0.239-0.101l-0.23-0.001l-0.434,0.084l-0.43-0.056
			l-0.399-0.078l-0.387-0.076l-0.286-0.039l-0.189,0.026l-0.345,0.052l-0.259,0.075L19.42,2.065l-0.589,0.168l-0.374,0.053
			l-0.276,0.025l-0.314-0.033l-0.323,0.09l-0.342,0.085L16.984,2.47l-0.146-0.01l-0.255-0.135l-0.247,0.053l-0.108,0.074
			l-0.465,0.19l-0.283-0.045l-0.059-0.024l-0.066-0.04l-0.086-0.14l-0.021-0.082L15.224,2.21l-0.038-0.09l0.023-0.183L15.15,1.773
			l-0.194-0.02l-0.06-0.007l-0.185,0.05l-0.095-0.008l-0.017-0.001l-0.22-0.083L14.267,1.82l-0.363,0.211L13.836,2.07l-0.122,0.037
			l-0.146-0.015L13.48,2.087l-0.111,0.005h-0.008h-0.054L13.189,2.1l-0.169,0.048l-0.017,0.004l-0.146,0.053l-0.183,0.007
			l-0.108,0.007l-0.223-0.001l-0.392,0.005l-0.111,0.016L11.66,2.262h-0.024l-0.272-0.005L10.994,2.25L10.7,2.138l-0.052-0.046
			L10.61,2.062l-0.127-0.104l-0.251-0.162l-0.14-0.07l-0.055-0.029L9.804,1.548L9.678,1.402L9.597,1.217L9.528,1.076l-0.174-0.08
			L9.148,0.933L8.997,0.875L8.663,0.687l-0.156-0.08L8.321,0.542l-0.09-0.006L8.093,0.547l-0.23,0.019L7.46,0.614L7.326,0.61
			L7.138,0.643L6.837,0.748L6.705,0.784L6.457,0.861l-0.21,0.057L6.062,0.92L5.947,0.961L5.635,0.93l-0.08-0.006L5.212,1.03
			L5.066,1.182L5.059,1.185L5.027,1.219L4.85,1.316L4.677,1.398L4.619,1.437L4.587,1.427L4.532,1.436L4.474,1.444L4.256,1.506
			L4.194,1.524L4.035,1.563L3.92,1.591l-0.271,0.04L3.32,1.667L3.253,1.675L3.102,1.694L3.009,1.693L2.993,1.697L2.952,1.709
			L2.888,1.778l-0.049,0.12L2.752,1.994L2.47,2.116L2.341,2.218L2.231,2.285L2.047,2.349L1.98,2.396L1.865,2.513L1.67,2.656
			L1.621,2.675L1.598,2.678L1.463,2.635L1.459,2.634l-0.185-0.06L1.26,2.568L1.182,2.533L1.134,2.491L1.103,2.57L1.067,2.662
			L0.993,2.713l-0.106,0.09L0.795,2.901l-0.068,0.08L0.665,3.062L0.621,3.149L0.58,3.262L0.549,3.357L0.538,3.486l0.007,0.063
			l0.041,0.103l0.149,0.091l0.117,0.038l0.105,0.015l0.12,0.026L1.1,3.827l0.123,0.004L1.443,3.92l0.144,0.062L1.616,4l0.103,0.004
			l0.085,0.043l0.105,0.061L2.005,4.15l0.203,0.021l0.1-0.064l0.122,0.05l0.224,0.1L2.73,4.326l0.161,0.153h0.032l0.038-0.043
			l0.146,0.042l0.122-0.042l0.14,0.094l0.194,0.005l0.078,0.008l0.013,0.001l0.03-0.008l0.144,0.053h0.001l0.09,0.033l0.148,0.056
			l0.08,0.03l0.121,0.117l0.109,0.107L4.41,5.016l0.151,0.128L4.83,5.266l0.131,0.043l0.082,0.027l0.394,0.053l0.162,0.016
			l0.214,0.011l0.319,0.071l0.136,0.03l0.077,0.155L6.344,5.757l0.104,0.21l0.017,0.097L6.464,6.253L6.38,6.33L6.348,6.422
			L6.307,6.529L6.204,6.66L6.037,6.862L5.811,6.831L5.621,6.854L5.534,6.853L5.396,6.815L5.298,6.776L5.195,6.721L5.072,6.7
			L5.036,6.707l-0.06,0.026L4.848,6.788L4.772,6.845L4.685,6.915L4.6,6.98L4.506,7.035L4.362,7.078L4.238,7.077L4.058,7.218
			L3.889,7.247L3.708,7.221L3.646,7.225L3.438,7.31L3.372,7.406L3.328,7.485L3.24,7.657L3.226,7.764L3.179,7.885l0.025,0.412
			l0.031,0.174l-0.03,0.037L3.136,8.587L3.103,8.605L3.009,8.634l-0.09,0.024L2.675,8.728l-0.13,0.041L2.288,8.933L2.212,8.978"/>
	</g>
</g>
<g id="Layer_1">
</g>
</svg>
