<?xml version="1.0" encoding="iso-8859-1"?>
<!-- Generator: Adobe Illustrator 16.0.4, SVG Export Plug-In . SVG Version: 6.00 Build 0)  -->
<!DOCTYPE svg PUBLIC "-//W3C//DTD SVG 1.1//EN" "http://www.w3.org/Graphics/SVG/1.1/DTD/svg11.dtd">
<svg version="1.1" xmlns="http://www.w3.org/2000/svg" xmlns:xlink="http://www.w3.org/1999/xlink" x="0px" y="0px" width="44.81px"
	 height="50.372px" viewBox="0 0 44.81 50.372" style="enable-background:new 0 0 44.81 50.372;" xml:space="preserve">
<g id="Layer_122">
	<g id="Layer_127">
		<path id="DISTRICT_x3D_Khushab_x2C_PROVINCE_x3D_Punjab" style="fill:#CCCCCC;stroke:#FFFFFF;stroke-width:1.07;" d="
			M15.711,49.844L15.711,49.844L16,49.422l0.128-0.194l0.234-0.213l0.332-0.231l0.203-0.187l0.19-0.222l0.064-0.094l-0.002-0.138
			l-0.023-0.156l0.031-0.175l0.053-0.111l0.01-0.203l0.027-0.441l0.024-0.191l0.114-0.453l0.19-0.324l0.213-0.269l0.256-0.25
			l0.343-0.315l0.191-0.25l0.213-0.24l0.278-0.287l0.256-0.277l0.301-0.224l0.25-0.211l0.396-0.371l0.363-0.427l0.267-0.379
			l0.298-0.418l0.32-0.5l0.169-0.322l0.186-0.219l0.14-0.221l0.086-0.111l0.043-0.027h0.075l0.142,0.082l0.303,0.201l0.326,0.191
			l0.293,0.2l0.313,0.082l0.227,0.009l0.237-0.039l0.225-0.094l0.151-0.047l0.097-0.102l0.074-0.148l0.148-0.322l0.116-0.203
			l0.085-0.194l0.141-0.177l0.128-0.11l0.14-0.111l0.054-0.065l0.021-0.11v-0.073l0.031-0.082l0.043-0.047l0.098-0.037l0.139-0.064
			l0.108-0.057l0.075-0.056l0.043-0.073L25.97,39.24l-0.029-0.027l-0.05-0.01l-0.06-0.015l-0.032-0.032l-0.001-0.074l0.012-0.097
			l0.041-0.104l0.065-0.053l0.143-0.029l0.162-0.037l0.08-0.032l0.045-0.046l0.023-0.036l-0.017-0.06l-0.06-0.061l-0.067-0.066
			l-0.037-0.051l0.004-0.041l0.037-0.029l0.075-0.022h0.134l0.158,0.017l0.143,0.05l0.138,0.017l0.108-0.018l0.058-0.021
			l0.021-0.046l0.013-0.058l0.01-0.066l0.021-0.053l0.1-0.068l0.021-0.054l0.004-0.078l-0.034-0.104l-0.089-0.103l-0.013-0.05
			v-0.039l0.041-0.082l0.013-0.082l-0.018-0.07l-0.056-0.076l-0.071-0.045l-0.093-0.039l-0.083-0.031l-0.062-0.043l-0.033-0.049
			l-0.013-0.049l0.008-0.068l0.028-0.106l-0.021-0.159l-0.021-0.137l-0.038-0.057l-0.034-0.084l-0.001-0.086l0.009-0.067
			l0.045-0.035l0.088-0.001l0.088,0.035l0.139,0.027l0.107,0.015l0.088,0.019l0.08,0.049l0.093,0.084l0.131,0.082l0.074,0.031
			l0.075,0.004l0.116-0.016l0.055-0.025l0.037-0.05l0.003-0.057l-0.038-0.156l-0.004-0.054l0.028-0.039l0.062-0.083l0.069-0.077
			l0.037-0.059l0.008-0.096l-0.024-0.146l-0.035-0.089L27.94,35.64l-0.092-0.011l-0.088-0.01l-0.108-0.018l-0.059-0.023
			l-0.042-0.039l-0.063-0.082l-0.034-0.101l-0.028-0.103l0.007-0.129l0.017-0.078l-0.021-0.061l-0.055-0.042l-0.094-0.092
			l-0.084-0.11l-0.085-0.142l-0.051-0.121l-0.021-0.14l-0.039-0.18l-0.03-0.086l-0.033-0.039l-0.108-0.031l-0.097-0.028
			l-0.101-0.035l-0.021-0.042l-0.028-0.078l-0.011-0.085l0.021-0.053l0.038-0.019l0.104-0.008l0.113-0.018l0.058-0.04l0.037-0.085
			l0.002-0.342l0.002-0.293l0.024-0.131l0.065-0.189l0.22-0.453l0.11-0.268l0.021-0.153v-0.089l-0.03-0.067l-0.113-0.067
			l-0.193-0.102l-0.125-0.039l-0.134-0.027l-0.102-0.035l-0.051-0.074l-0.03-0.094l0.003-0.116l0.028-0.188l-0.03-0.182l0.008-0.085
			l0.051-0.075l0.107-0.122l0.069-0.063l0.021-0.027l0.056-0.029l0.059-0.004l0.125,0.032l0.151,0.038l0.083,0.003l0.065-0.011
			l0.072-0.029l0.124-0.122l0.354-0.082l0.339,0.03l0.09-0.149l-0.088-0.124l-0.067-0.111l-0.003-0.103l0.026-0.073l0.048-0.055
			l0.048-0.037l0.099-0.014l0.238-0.012l0.183-0.033l0.117-0.069l0.048-0.055l0.024-0.114l-0.001-0.143l0.012-0.084l0.051-0.188
			l0.116-0.123l0.151-0.093l0.109-0.093l0.033-0.066l0.02-0.09l-0.002-0.072l0.006-0.029l0.025-0.049l0.076-0.057l0.013-0.055
			l0.048-0.072l0.032-0.061l-0.002-0.049l-0.009-0.066l-0.037-0.053l-0.063-0.053l-0.048-0.137l-0.003-0.217l0.095-0.188
			l0.026-0.156l-0.021-0.115l-0.011-0.131l-0.022-0.28l-0.024-0.319l0.015-0.176l0.037-0.1l0.078-0.102l0.062-0.072l0.038-0.09
			l0.023-0.069l-0.005-0.058l-0.012-0.057l-0.005-0.063l-0.006-0.062l0.019-0.06l0.025-0.113l0.006-0.069l-0.006-0.072l-0.007-0.087
			l-0.023-0.066l-0.108-0.291l-0.103-0.329l-0.044-0.196l0.009-0.181l0.072-0.228l0.105-0.322l0.083-0.199l0.223-0.431l0.199-0.357
			l0.052-0.149l0.067-0.295l0.024-0.323l-0.019-0.242l0.001-0.272l0.03-0.124l0.104-0.137l0.165-0.146l0.181-0.103l0.148-0.082
			l0.136-0.095l0.19-0.196l0.113-0.138l0.062-0.091l0.104-0.054l0.028-0.007l0.12-0.007l0.231,0.036l0.286,0.002l0.112-0.026
			l0.065-0.033l0.071-0.033l0.082-0.039l0.143-0.164l0.203-0.245l0.161-0.213l0.162-0.18l0.104-0.074l0.072-0.023l0.106-0.025
			l0.175-0.03l0.157-0.043l0.078-0.02l0.045-0.022l0.036-0.046l0.013-0.059l-0.01-0.111l0.016-0.02l0.087-0.063l0.194-0.143
			l0.061-0.047l0.046-0.002l0.036,0.021l0.043,0.032l0.048,0.031l0.052,0.002l0.052-0.003l0.044-0.017l0.05-0.042l0.104-0.055
			l0.111-0.035l0.067-0.009l0.138-0.008l0.108,0.008l0.104-0.006l0.066-0.009l0.05-0.018l0.054-0.066l0.033-0.089l-0.013-0.072
			l0.018-0.054l0.14-0.125l0.072-0.096l0.006-0.064l0.019-0.132l0.055-0.11l0.091-0.093l0.137-0.076l0.127-0.065l0.09-0.093
			l0.167-0.136l0.145-0.071l0.226-0.042l0.324-0.102l0.24-0.087l0.141-0.11l0.121-0.124l0.202-0.196l0.157-0.121l0.164-0.106
			l0.271-0.123l0.216-0.105l0.07-0.057l0.136-0.227l0.114-0.152l0.097-0.088l0.172-0.078l0.322-0.126l0.209-0.041l0.076,0.015
			l0.054,0.036l0.115,0.081l0.077,0.03l0.074-0.004l0.124-0.026l0.102-0.025l0.117-0.041l0.113-0.084l0.116-0.051l0.117-0.036
			l0.254-0.051l0.129-0.037l0.105-0.035l0.077-0.043l0.131-0.09l0.136-0.105l0.107-0.089l0.169-0.116l0.14-0.042l0.073-0.014
			l0.194-0.021l0.13-0.017l0.095-0.035l0.111-0.045l0.113-0.079l0.127-0.065l0.058-0.008l0.04-0.002l0.034,0.003l0.042,0.022
			l0.084,0.039l0.168,0.034l0.192,0.038l0.31-0.003l-0.285-0.673l-0.112-0.422l-0.013-0.127l-0.044-0.165l-0.062-0.17l-0.024-0.111
			l0.012-0.068l0.013-0.093l-0.012-0.099l-0.024-0.082l-0.022-0.054L43.396,11.8l-0.053-0.106l-0.036-0.084l-0.064-0.104
			l-0.012-0.075l0.004-0.058l0.057-0.077l0.139-0.109l0.174-0.077l0.173-0.038l0.111-0.028l0.022-0.018l-0.007-0.032l-0.028-0.053
			l-0.062-0.119l-0.06-0.113l-0.081-0.202l-0.083-0.24l-0.08-0.173l-0.022-0.097l-0.01-0.09l-0.016-0.069l-0.037-0.065l-0.054-0.058
			l-0.073-0.069l-0.053-0.082l-0.029-0.081l-0.014-0.127l-0.003-0.181l-0.021-0.073l-0.04-0.075l-0.109-0.182l-0.057-0.144
			l-0.03-0.206l-0.043-0.185l-0.002-0.104l0.05-0.104l0.076-0.084l0.088-0.062l0.035-0.04l0.01-0.058l0.004-0.082l0.012-0.049
			l0.062-0.078l0.031-0.058l0.004-0.082l-0.022-0.097l-0.036-0.161l-0.066-0.237l0.113-0.729l0.035-0.619l-0.223,0.061l-0.609-0.009
			l-0.354-0.044l-0.387-0.042l-0.455-0.149l-0.233-0.21l-0.364-0.287l-0.477-0.328L40.186,4.65l-0.049-0.517l-0.019-0.102
			l-0.069-0.072l-0.097-0.025l-0.106,0.015l-0.103-0.014l-0.091-0.077l-0.016-0.21l0.04-0.183l0.062-0.235l0.045-0.075l0.081-0.087
			l-0.003-0.063l-0.05-0.066l-0.069-0.061l-0.259-0.049l-0.263,0.002l-0.156-0.024l-0.107-0.037l-0.081,0.003l-0.131,0.072
			l-0.14,0.078l-0.074,0.008l-0.09-0.048l-0.035-0.056l0.005-0.057l0.07-0.082l0.107-0.146l0.132-0.221l0.059-0.224l-0.01-0.244
			l-0.041-0.141l-0.07-0.1l-0.146-0.104l-0.03,0.081l-0.07,0.065l-0.177,0.13l-0.186,0.091l-0.257,0.145l-0.155,0.327l-0.11,0.128
			l-0.2,0.167l-0.214,0.05l-0.197,0.007l-0.229-0.055l-0.271-0.055l-0.146,0.019l-0.108,0.044l-0.18,0.109l-0.293,0.23l-0.271,0.236
			l-0.176,0.187l-0.183,0.23l-0.227,0.168l-0.358,0.194l-0.095,0.106l-0.073,0.124l-0.071,0.267l-0.072,0.162l-0.096,0.05
			l-0.189,0.057l-0.234,0.039l-0.206-0.012l-0.073-0.081l-0.029-0.149l-0.008-0.092l-0.001-0.106l-0.036-0.068l-0.066-0.074
			l-0.199-0.067h-0.109L32.82,4.188l-0.196,0.131L32.47,4.333l-0.088-0.05l-0.061-0.13l-0.009-0.167l0.037-0.401V3.423l-0.023-0.217
			l-0.053-0.093L32.2,3.095l-0.08,0.006l-0.205,0.013l-0.133-0.011l-0.08-0.049l-0.066-0.081l-0.082-0.13l-0.067-0.198l-0.037-0.099
			l-0.096-0.061l-0.146-0.062l-0.222-0.067l-0.287-0.16L30.5,1.956L30.381,1.72l-0.017-0.148l-0.021-0.056l-0.11-0.019l-0.125,0.007
			l-0.109,0.013L29.743,1.56L29.2,1.643l-0.551,0.034l-0.411-0.004l-0.359-0.072l-0.436-0.091l-0.581-0.158l-0.589-0.096
			l-0.301-0.004l-0.249,0.063l-0.33,0.083l-0.189-0.005l-0.302-0.042l-0.646-0.151l-0.552-0.052l-0.572,0.016l-0.117-0.006
			l-0.082-0.062l-0.029-0.093l-0.022-0.118L22.864,0.68l-0.038-0.099l-0.117-0.043l-0.191,0.007l-0.205,0.057l-0.071,0.062
			l0.001,0.13l0.022,0.167l0.068,0.26l0.062,0.285L22.5,1.803l0.076,0.316l0.021,0.228l0.023,0.192l0.001,0.143l-0.058,0.149
			l-0.139,0.112L22.28,3.025L22.2,3.094L22.148,3.2l-0.014,0.093l-0.063,0.149l-0.116,0.131l-0.212,0.101l-0.302,0.064l-0.108,0.057
			l-0.051,0.056l-0.028,0.1l-0.08,0.093l-0.271,0.107l-0.302,0.076L20.26,4.309l-0.205,0.057l-0.63,0.197L19.235,4.62l-0.196,0.119
			l-0.351,0.25l-0.275,0.263l-0.168,0.144l-0.14,0.075l-0.32,0.102l-0.688,0.234L16.2,6.07l-0.265,0.083l-0.328,0.108l-0.168,0.125
			L15.316,6.53l-0.042,0.167l0.002,0.167l0.053,0.118l0.029,0.049l0.118,0.049l0.022,0.081l-0.021,0.038l-0.051,0.043l-0.161,0.039
			l-0.189,0.02l-0.242-0.017h-0.153l-0.117,0.032l-0.168,0.113l-0.137,0.112l-0.055,0.215l-0.062,0.309L14.13,8.196l-0.048,0.03
			l-0.062,0.062l-0.166,0.096l-0.106,0.045l-0.188,0.017L13.4,8.445l-0.119-0.034l-0.12-0.062l-0.054-0.051l-0.032-0.112
			l-0.007-0.102L13.056,8l-0.033-0.051l-0.047-0.04l-0.08-0.023l-0.085-0.004l-0.025,0.011l-0.087,0.051l-0.095,0.034l-0.152,0.017
			l-0.173-0.029L12.05,7.933l-0.206-0.04l-0.187-0.074l-0.134-0.045L11.43,7.739h-0.093L11.29,7.756l-0.04,0.034l-0.054,0.096
			L11.17,8.039L11.136,8.23l-0.073,0.107l-0.134,0.067l-0.334,0.09l-0.467,0.135l-0.18,0.05L9.733,8.696L9.567,8.691L9.455,8.679
			H9.388L9.362,8.713L9.369,8.77l0.02,0.096L9.375,9.006L9.353,9.18L9.339,9.22L9.306,9.282L9.259,9.327L9.186,9.35l-0.04,0.034
			L9.132,9.435L9.125,9.496L9.15,9.609l0.008,0.073L9.11,9.772L9.031,9.84L8.891,9.941l-0.201,0.084l-0.191,0.062l-0.102,0.045
			l-0.061,0.045l-0.039,0.067L8.27,10.318l-0.007,0.079l-0.046,0.051l-0.054,0.017l-0.055,0.022l-0.032,0.028l-0.033,0.022
			L8.01,10.548l-0.08-0.022l-0.12-0.04L7.69,10.458L7.59,10.469l-0.06,0.017l-0.04,0.034l-0.027,0.056l0.006,0.071l0.046,0.152
			l0.007,0.09l-0.014,0.113l-0.04,0.068l-0.08,0.062l-0.06,0.079l-0.015,0.073l0.021,0.067l0.047,0.068l0.079,0.056l0.167,0.022
			l0.14,0.017l0.055,0.034l0.053,0.074l0.027,0.062l0.006,0.102l0.039,0.09l0.041,0.057l0.046,0.022h0.054l0.06-0.028l0.066-0.045
			l0.047-0.005h0.067l0.086,0.04l0.073,0.084l0.06,0.057l0.08,0.022h0.073l0.12,0.006l0.065,0.04l0.033,0.068l0.002,0.049
			l-0.034,0.074l-0.02,0.095l0.019,0.08l0.094,0.084l0.146,0.136l0.053,0.034h0.08l0.133-0.011l0.087,0.006l0.066,0.056l0.04,0.107
			L9.562,13.05l0.008,0.119l0.02,0.107l0.053,0.113l0.061,0.113L9.696,13.56l-0.054,0.056l-0.094,0.039l-0.1,0.034l-0.021,0.045
			l0.006,0.187l0.014,0.236L9.44,14.241l-0.068,0.083l-0.191,0.183l-0.598,0.505l-0.42,0.312l-0.242,0.247l-0.445,0.463
			l-0.471,0.517l-0.753,0.847L5.73,17.969l-0.852,0.915l-0.102,0.107v0.043l0.012,0.054l0.062,0.151l0.254,0.689l0.038,0.14
			L5.13,20.101l-0.102,0.042l-0.267,0.075l-0.09,0.033l-0.205,0.192l0.092,0.217l0.118,0.718l0.261,0.908l0.048,0.527l0.099,0.072
			l0.23,0.03l0.24,0.038l0.143,0.022l0.148,0.033v0.029l0.049,0.17l0.142,0.248l0.237,0.276l0.099,0.106l0.209,0.221l0.137,0.138
			l0.127,0.145l0.098,0.148l0.045,0.128l-0.008,0.139L6.961,24.92l-0.013,0.096l-0.045,0.111l-0.05,0.1l-0.02,0.093l-0.038,0.328
			l-0.075,0.359l-0.01,0.179l-0.026,0.295l-0.019,0.545l-0.008,0.396l0.006,0.166l0.033,0.242l-0.008,0.203L6.66,28.236L6.591,28.43
			l-0.073,0.121l-0.179,0.233l-0.302,0.334l-0.276,0.248l-0.183,0.138l-0.286,0.229L5.146,29.87l-0.245,0.269l-0.223,0.255
			l-0.132,0.161l-0.083,0.072l-0.132,0.072L4.257,30.76l-0.049,0.055l-0.004,0.058l0.039,0.12l0.067,0.11l0.096,0.17l0.129,0.237
			l0.052,0.147l0.011,0.171l-0.025,0.178l-0.073,0.235L4.41,32.403L4.31,32.553L4.24,32.62l-0.05,0.075l-0.064,0.104l-0.124,0.119
			l-0.091,0.094l-0.092,0.092l-0.049,0.114l-0.058,0.129l-0.049,0.062l-0.037,0.051l-0.11,0.186l-0.104,0.15l-0.053,0.082
			l-0.032,0.076l-0.028,0.082l-0.03,0.125l-0.032,0.139l-0.056,0.193l-0.054,0.121l-0.074,0.09l-0.031,0.051L2.9,34.883
			l-0.199,0.125l-0.165,0.095l-0.204,0.073L2.22,35.201l-0.199,0.017l-0.121,0.005l-0.139,0.021l-0.166,0.041l-0.104,0.037
			l-0.083,0.04l-0.132,0.111l-0.228,0.237l-0.091,0.115l-0.081,0.125l-0.132,0.231L0.636,36.4l-0.094,0.168l-0.004,0.075l0.014,0.05
			l0.09,0.074l0.256,0.094l0.536,0.168l0.429,0.178l0.155,0.073l0.518,0.199l0.362,0.13l0.382,0.157l0.214,0.087l0.226,0.068
			l0.294,0.076l0.211,0.092l0.126,0.091l0.049,0.081l0.103,0.216l0.126,0.362l0.113,0.357l0.106,0.209l0.104,0.223l0.132,0.23
			l0.188,0.212l0.189,0.212l0.195,0.247l0.093,0.104l0.014,0.056l0.006,0.039l-0.004,0.05l-0.028,0.058l-0.045,0.11l-0.021,0.085
			l-0.007,0.064l0.021,0.061l0.038,0.057l0.046,0.057l0.001,0.039l-0.008,0.118l0.011,0.137l0.008,0.261l0.036,0.291l0.042,0.307
			l0.049,0.287l0.033,0.17l0.025,0.136l0.095,0.151l0.123,0.185l0.219,0.159l0.281,0.203l0.154,0.117l0.254,0.131l0.318,0.162
			l0.234,0.094l0.268,0.078l0.227,0.082l0.051,0.041l0.021,0.051l0.015,0.109l0.014,0.064l0.024,0.053l0.098,0.07l0.264,0.15
			l0.135,0.082l0.25,0.149l0.167,0.104l0.202,0.138l0.295,0.257l0.369,0.296l0.11,0.138l0.021,0.055l0.041,0.076l0.047,0.093
			l0.084,0.081l0.098,0.039l0.218,0.048l0.346,0.04l0.213,0.062l0.213,0.073l0.159,0.092l0.144,0.07l0.149,0.038l0.163,0.052
			l0.192,0.105l0.171,0.102l0.188,0.107l0.23,0.181l0.16,0.137l0.135,0.167l0.113,0.127l0.076,0.127l0.072,0.182l0.03,0.135
			l0.024,0.199l0.022,0.229l0.025,0.075l0.062,0.078l0.122,0.1l0.163,0.108l0.234,0.146l0.279,0.129l0.385,0.192l0.168,0.073
			l0.182,0.062l0.389,0.146L15.711,49.844"/>
	</g>
</g>
<g id="Layer_1">
</g>
</svg>
