<?xml version="1.0" encoding="iso-8859-1"?>
<!-- Generator: Adobe Illustrator 16.0.4, SVG Export Plug-In . SVG Version: 6.00 Build 0)  -->
<!DOCTYPE svg PUBLIC "-//W3C//DTD SVG 1.1//EN" "http://www.w3.org/Graphics/SVG/1.1/DTD/svg11.dtd">
<svg version="1.1" xmlns="http://www.w3.org/2000/svg" xmlns:xlink="http://www.w3.org/1999/xlink" x="0px" y="0px"
	 width="17.664px" height="11.508px" viewBox="0 0 17.664 11.508" style="enable-background:new 0 0 17.664 11.508;"
	 xml:space="preserve">
<g id="Layer_51">
	<g id="Layer_56">
		<path id="DISTRICT_x3D_Sudhnoti_x2C_PROVINCE_x3D_AJK" style="fill:#CCCCCC;stroke:#FFFFFF;stroke-width:1.07;" d="M1.787,6.525
			L1.787,6.525l0.019,0.021l0.019,0.018l0.017,0.012L1.861,6.59l0.03,0.014L1.92,6.623l0.01,0.015l0.014,0.012l0.019,0.02
			l0.013,0.018l0.015,0.021l0.041,0.02l0.023,0.018L2.095,6.77l0.027,0.009L2.129,6.78l0.023,0.006l0.011,0.009L2.18,6.805
			l0.027,0.002l0.026,0.009h0.038h0.026l0.014,0.009l0.004,0.014l0.011,0.029L2.33,6.884l0.01,0.021l0.011,0.02L2.354,6.94
			l0.019,0.02l0.01,0.009l0.004,0.012l0.007,0.017l0.003,0.029v0.026l0.001,0.028v0.023v0.021L2.39,7.188v0.029v0.017l0.004,0.019
			l0.018,0.025l0.018,0.018l0.015,0.018l0.033,0.02l0.006,0.01l0.028,0.015l0.026,0.006l0.004,0.007l0.023,0.02l0.018,0.009
			l0.023,0.019l0.03,0.02l0.027,0.014l0.018,0.012l0.021,0.013l0.018,0.012l0.01,0.009L2.75,7.508l0.015,0.009l0.021,0.015
			l0.014,0.012l0.014,0.008L2.84,7.592l0.004,0.015l0.015,0.015l0.01,0.014l0.007,0.01l0.011,0.009L2.9,7.656L2.927,7.66
			l0.027,0.002h0.017L2.998,7.66l0.007-0.007h0.019L3.037,7.65H3.05h0.011h0.027l0.006,0.006l0.011,0.016l0.015,0.009l0.014,0.009
			l0.014,0.005l0.012,0.009l0.014,0.014l0.014,0.01l0.014,0.012l0.026,0.016l0.004,0.009L3.24,7.776v0.021v0.016L3.219,7.834
			l-0.02,0.021L3.178,7.885L3.156,7.902l-0.007,0.01l-0.011,0.01L3.125,7.938L3.111,7.951l-0.011,0.01L3.094,7.976L3.091,7.994
			L3.087,8.017v0.011v0.012l0.015,0.016l0.021,0.015V8.08l0.02,0.018L3.17,8.112l0.018,0.009l0.03,0.004l0.028,0.002l0.047,0.004
			h0.018h0.027h0.017l0.015,0.003h0.022l0.018,0.002L3.42,8.139l0.027,0.011l0.014,0.007l0.023,0.012l0.018,0.008l0.014,0.009
			l0.011,0.012l0.021,0.015L3.562,8.22l0.01,0.009L3.596,8.24l0.014,0.01l0.015,0.011L3.63,8.27l0.014,0.016l0.011,0.01l0.018,0.013
			l0.014,0.011L3.71,8.33l0.022,0.01l0.007,0.006l0.012,0.005l0.01,0.009l0.007,0.01l0.01,0.008l0.012,0.007l0.03,0.006l0.015,0.008
			l0.025,0.015L3.891,8.42l0.023,0.007l0.03,0.006l0.027,0.006h0.014l0.018,0.017l0.026,0.023l0.008,0.016l0.007,0.014L4.064,8.52
			l0.008,0.006l0.021,0.006h0.026h0.015h0.007l0.011-0.009l0.003-0.009l0.008-0.012l0.01-0.018l0.021-0.018l0.011-0.012l0.021-0.006
			h0.014l0.021,0.012l0.018,0.015l0.015,0.011l0.021,0.021l0.007,0.015L4.321,8.53l0.015,0.013l0.011,0.006L4.35,8.555l0.014,0.003
			l0.024,0.017l0.017,0.012l0.021,0.002l0.006,0.004h0.021L4.486,8.58L4.5,8.56l0.021-0.019l0.017-0.018l0.011-0.016L4.553,8.5
			l0.01-0.013L4.57,8.474l0.01-0.022l0.011-0.013l0.007-0.012l0.027-0.035l0.014-0.009h0.027l0.021,0.009l0.021,0.015L4.731,8.42
			l0.023,0.015l0.026,0.021l0.031,0.012l0.02,0.013L4.851,8.49l0.022,0.016l0.031,0.017l0.026,0.019l0.028,0.02l0.026,0.025
			l0.01,0.013L5,8.621L5.014,8.65l0.01,0.018l0.004,0.02l0.01,0.023v0.015l0.015,0.028l0.007,0.022l0.024,0.022L5.1,8.824
			L5.114,8.84L5.135,8.86l0.014,0.006L5.17,8.869l0.023,0.004l0.027,0.002h0.027l0.017,0.002h0.021L5.3,8.871l0.003-0.012
			l0.023-0.02l0.008-0.012l0.01-0.016L5.36,8.799L5.388,8.78l0.021-0.009L5.427,8.76L5.44,8.754h0.018h0.021L5.5,8.769l0.017,0.019
			l0.011,0.02l0.021,0.029l0.017,0.021L5.58,8.873l0.014,0.026L5.604,8.91l0.017,0.023L5.64,8.951L5.653,8.97l0.015,0.017
			l0.021,0.02l0.017,0.016L5.72,9.039l0.014,0.025L5.747,9.09l0.019,0.029v0.025l0.01,0.023l0.004,0.021v0.021v0.018v0.021
			L5.776,9.271L5.773,9.287L5.77,9.311L5.763,9.34l0.003,0.018l0.011,0.012l0.021,0.006h0.051L5.88,9.377l0.033,0.004l0.021,0.006
			L5.972,9.39l0.023,0.008l0.021,0.009l0.022,0.012l0.023,0.018L6.09,9.457l0.018,0.017l0.023,0.021l0.021,0.021l0.033,0.022
			l0.027,0.019l0.023,0.011l0.021,0.018l0.017,0.019l0.027,0.028l0.017,0.012l0.021,0.012l0.017,0.012l0.018,0.018l0.021,0.023
			l0.017,0.021l0.003,0.026l0.015,0.02l0.021,0.021l0.018,0.022l0.018,0.015l0.01,0.012l0.015,0.015l0.017,0.021L6.55,9.905
			l0.014,0.017l0.027,0.021l0.014,0.008l0.003,0.01l0.011,0.006l0.015,0.012l0.021,0.011l0.027,0.021l0.021,0.018l0.015,0.021
			l0.021,0.02l0.018,0.012l0.023,0.015l0.014,0.015l0.008,0.016l0.011,0.022l0.01,0.015l0.007,0.018l0.015,0.018l0.011,0.02
			l0.003,0.021l0.011,0.023l0.003,0.031l0.007,0.021l0.008,0.019l0.011,0.017l0.006,0.028l0.008,0.018l0.01,0.012l0.008,0.014
			l0.014,0.021v0.01l0.014,0.006l0.007,0.01l0.021,0.021L6.997,10.5l0.024,0.006l0.03,0.015l0.026,0.017l0.019,0.004l0.021,0.008
			l0.021,0.01l0.021,0.012l0.026,0.018l0.021,0.015l0.027,0.017l0.051,0.035l0.023,0.018l0.027,0.018l0.015,0.021l0.014,0.017
			l0.018,0.019l0.014,0.017l0.018,0.015l0.015,0.012l0.017,0.015l0.01,0.012l0.012,0.019l0.014,0.014l0.014,0.006l0.041,0.023
			l0.027,0.02l0.017,0.006l0.019,0.01l0.021,0.002l0.018,0.013l0.026,0.009l0.03,0.008h0.034l0.021,0.006l0.024,0.012l0.03,0.01
			h0.022h0.042l0.026,0.002h0.014l0.018-0.008l0.019-0.01l0.02-0.018l0.019-0.012l0.017-0.018l0.003-0.012l0.008-0.018v-0.017
			l0.007-0.018v-0.023v-0.021V10.78l-0.007-0.017l-0.021-0.026l-0.014-0.015l-0.007-0.023l-0.011-0.018l-0.011-0.023l-0.007-0.022
			v-0.023l0.03-0.028l0.011-0.022l0.022-0.035l0.012-0.015l0.022-0.037l0.01-0.023l0.009-0.029l0.006-0.028l0.007-0.022l0.007-0.026
			l0.01-0.013l0.005-0.025l0.01-0.021l0.018-0.022v-0.023v-0.028l0.021-0.039l0.018-0.025v-0.023l0.01-0.022l0.027-0.029
			l0.041-0.021l0.021-0.006l0.018-0.015L8.223,10.01L8.199,9.986L8.177,9.961L8.17,9.942L8.166,9.928l0.007-0.04L8.169,9.858
			L8.158,9.832V9.807V9.777V9.74l0.018-0.037L8.192,9.67l0.011-0.022l0.012-0.022l0.006-0.022l0.01-0.015l0.004-0.029V9.535V9.514
			V9.484V9.473L8.221,9.449L8.196,9.414V9.383l0.012-0.026l0.014-0.012l0.014-0.019L8.256,9.32l0.021-0.006h0.015h0.033h0.027h0.058
			l0.021,0.012l0.038,0.008L8.495,9.34l0.037,0.004L8.576,9.36l0.027,0.007L8.645,9.39l0.023,0.017l0.03,0.016L8.726,9.43
			l0.022,0.006L8.79,9.451l0.034,0.018l0.027,0.014l0.066,0.032l0.034,0.009l0.031,0.014l0.023,0.012L9.04,9.563l0.027,0.019
			l0.034,0.022l0.031,0.015l0.025,0.012l0.019,0.02L9.2,9.666l0.029,0.015l0.049,0.017l0.051,0.023L9.34,9.723L9.367,9.74
			l0.071,0.035l0.037,0.01l0.031,0.01l0.036,0.013L9.58,9.813l0.028,0.003h0.026h0.03l0.03-0.003l0.014-0.026l0.008-0.017
			L9.724,9.75V9.732V9.709L9.73,9.687l0.034-0.006h0.022h0.027l0.037-0.003l0.017-0.012l0.015-0.021L9.91,9.629L9.924,9.61
			L9.95,9.588l0.019-0.019l0.021-0.022l0.047-0.035l0.024-0.018l0.023-0.018l0.026-0.012l0.021-0.012l0.022-0.01l0.042-0.015h0.026
			l0.011,0.009l0.021,0.021l0.01,0.002l0.014,0.01l0.027,0.014l0.017,0.012l0.024,0.021l0.026,0.017l0.021,0.016l0.041,0.018
			l0.03,0.008l0.017,0.019h0.042l0.021,0.008l0.017,0.015l0.014,0.029l0.012,0.023l0.007,0.035l0.007,0.022l0.014,0.021l0.027,0.021
			l0.02,0.017l0.021,0.01l0.027,0.012l0.029,0.006l0.03,0.009l0.021,0.005l0.048,0.018l0.022,0.003l0.045,0.003l0.051,0.015
			l0.024,0.009l0.017,0.015l0.031,0.012l0.027,0.015l0.027,0.02l0.026,0.018l0.026,0.023l0.048,0.018l0.014,0.02l0.027,0.025
			l0.021,0.015l0.024,0.012l0.022,0.017l0.019,0.023l0.044,0.025l0.027,0.016l0.037,0.011l0.062,0.015l0.055-0.017l0.048,0.002
			l0.031,0.021l0.027,0.008l0.037,0.009l0.021,0.01l0.048,0.02l0.041,0.009l0.03,0.015l0.045,0.015l0.037,0.014l0.031,0.015
			l0.034,0.016l0.039,0.025l0.027,0.025l0.018,0.025l0.018,0.025l0.014,0.021l0.004,0.035v0.022l-0.003,0.021l-0.008,0.023v0.022
			l0.001,0.015l0.01,0.01l0.004,0.021l0.026,0.012l0.028,0.011l0.017,0.012l0.027,0.004h0.037l0.014,0.003l0.062,0.012l0.026,0.008
			l0.027,0.003l0.023,0.006l0.021,0.006h0.059l0.019-0.006l0.033-0.012l0.033-0.003l0.056-0.002l0.034-0.006l0.033-0.003
			l0.048-0.012l0.021-0.01l0.034-0.012l0.021-0.009l0.023-0.013l0.023-0.015l0.027-0.011l0.03-0.012l0.03-0.004h0.056h0.033h0.033
			h0.038h0.037l0.021-0.002l0.034-0.012l0.03-0.006l0.029-0.009l0.038-0.003l0.03-0.006h0.033h0.03l0.031-0.002l0.021-0.006
			l0.027-0.01l0.021-0.009h0.01l0.038-0.009l0.007-0.012l0.006-0.006l0.019-0.012l0.003-0.023V10.4v-0.012l-0.011-0.018
			l-0.011-0.012l-0.003-0.012l-0.011-0.012l-0.007-0.021v-0.011l-0.003-0.012l-0.005-0.01l-0.007-0.014l-0.01-0.009l-0.017-0.013
			l-0.015-0.002l-0.027-0.002h-0.023l-0.014-0.007l-0.018-0.003l-0.014-0.009l-0.021-0.013l-0.013-0.014l-0.004-0.011v-0.021v-0.012
			l0.003-0.013l0.034-0.026h0.023l0.023-0.015l0.031-0.003h0.03l0.022,0.018h0.019h0.021l0.017-0.018l0.015-0.016l0.026-0.008h0.027
			h0.027l0.029-0.006l0.027-0.003h0.024l0.058,0.003l0.033,0.006l0.021,0.002l0.034,0.012l0.03,0.015l0.037,0.013l0.008,0.012
			l0.014,0.021l0.027,0.023l0.006,0.014l0.004,0.01l0.005,0.01l0.009,0.014l0.015,0.014l0.01,0.012l0.014,0.013l0.008,0.004
			l0.014,0.007l0.013,0.001l0.012,0.001l0.019,0.003h0.025l0.027-0.006l0.027-0.015l0.026-0.012l0.021-0.012l0.017-0.015
			l0.024-0.015l0.007-0.015l0.01-0.021l0.015-0.012l0.017-0.021l0.021-0.015l0.014-0.018l0.034-0.011l0.018,0.005l0.017,0.011
			l0.023,0.003l0.027,0.004l0.011,0.006l0.034,0.01l0.01-0.002h0.014v-0.012v-0.009v-0.015v-0.018l0.015-0.018v-0.012h0.021
			l0.019,0.003l0.014,0.015l0.017,0.012l0.014,0.004h0.011h0.017h0.012l0.011-0.008l0.017-0.015l0.015-0.015l-0.003-0.027
			l-0.021-0.029L14.68,9.967L14.654,9.94L14.633,9.92l-0.025-0.026L14.591,9.86l-0.029-0.043l-0.016-0.028L14.534,9.76l-0.014-0.026
			l-0.017-0.026l-0.013-0.021l-0.01-0.021L14.47,9.642l-0.012-0.017L14.45,9.6L14.43,9.578l-0.006-0.017l-0.012-0.047l0.018-0.021
			l0.02-0.019l0.02-0.021l0.049-0.039L14.546,9.4l0.023-0.013l0.032-0.017l0.033-0.016l0.034-0.02l0.026-0.014l0.023-0.014
			l0.021-0.014l0.023-0.014l0.023-0.014l0.027-0.016l0.042-0.02l0.022-0.008l0.036-0.004l0.028-0.008l0.023-0.008l0.019-0.006
			l0.025-0.01l0.032-0.01l0.018-0.012l0.019-0.008l0.027-0.006l0.044-0.006l0.023-0.01l0.03-0.016l0.036-0.024l0.008-0.015
			l0.019-0.016l0.009-0.021l0.006-0.019l0.001-0.027V8.976V8.943V8.914V8.89V8.863V8.842L15.274,8.83l-0.005-0.02l0.002-0.061
			L15.27,8.727l-0.008-0.016l-0.004-0.024l-0.013-0.021L15.23,8.64l-0.016-0.037l-0.023-0.024l-0.038-0.015l-0.03-0.019
			l-0.029-0.021l-0.015-0.025l-0.011-0.026l-0.001-0.039V8.41l0.013-0.009l0.022-0.007l0.029-0.005l0.033-0.003l0.022-0.003h0.036
			l0.032-0.001l0.043-0.006l0.035-0.006l0.028-0.002l0.021-0.009l0.021-0.015L15.42,8.33l0.01-0.018V8.291l0.008-0.041V8.242
			L15.43,8.205l-0.007-0.014L15.402,8.17l-0.015-0.026l-0.009-0.022l-0.016-0.023L15.347,8.08l-0.023-0.039l-0.02-0.012L15.29,8.017
			l-0.018-0.015l-0.017-0.018l-0.002-0.021l0.017-0.002h0.016h0.026h0.023h0.033l0.021,0.002h0.028h0.021l0.019-0.004h0.018h0.018
			h0.019h0.019l0.021,0.006l0.017,0.006l0.021,0.015l0.022,0.009L15.634,8l0.025,0.008l0.045,0.023l0.054,0.008h0.024l0.017-0.006
			l0.044-0.012l0.021-0.006l0.063,0.003l0.022,0.004l0.021,0.001l0.03,0.005l0.032,0.009l0.021,0.006l0.021,0.01l0.011,0.002h0.017
			l0.021-0.012l0.014-0.019l0.024-0.008l0.034-0.005l0.02-0.014l0.025-0.011l0.02-0.006l0.146-0.048l0.103,0.045l0.069-0.007
			l0.031-0.034l0.036-0.025l0.029-0.022l0.032-0.024l0.03-0.021l0.042-0.022l0.034-0.015l0.051-0.034l0.018-0.013l-0.036-0.043
			l0.002-0.021l0.022-0.011l0.038-0.011l0.034-0.006h0.04h0.013l0.035,0.01V7.658l-0.019-0.031l-0.021-0.021L16.97,7.58
			l-0.021-0.023L16.93,7.535l-0.014-0.019l-0.021-0.021l-0.024-0.021l-0.024-0.022l-0.03-0.031l-0.022-0.02l-0.028-0.02l-0.022-0.02
			l-0.036-0.021l-0.021-0.011l-0.024-0.015l-0.008-0.012L16.62,7.303l-0.013-0.006l-0.021-0.006l-0.025-0.013l-0.022-0.008
			L16.513,7.26l-0.034-0.026L16.452,7.22l-0.021-0.022l-0.029-0.015l-0.03-0.021l-0.034-0.017l-0.027-0.015l-0.019-0.02L16.277,7.1
			l-0.023-0.016l-0.015-0.01l-0.03-0.012l-0.014-0.014l-0.019-0.021L16.17,7.014l-0.02-0.023l-0.018-0.022L16.117,6.95l-0.021-0.016
			l-0.015-0.008L16.06,6.911l-0.021-0.016l-0.021-0.018l-0.023-0.014l-0.026-0.012l-0.024-0.009l-0.036-0.015l-0.022-0.02
			L15.862,6.79l-0.02-0.015l-0.025-0.018l-0.015-0.013L15.789,6.73L15.763,6.7l-0.017-0.021L15.73,6.661l-0.015-0.01l-0.035-0.032
			L15.64,6.583l-0.017-0.013l-0.024-0.026L15.57,6.512l-0.019-0.016l-0.019-0.02l-0.016-0.016l-0.012-0.013l-0.012-0.016
			l-0.019-0.022l-0.007-0.015V6.375V6.35V6.338v-0.05l-0.001-0.029l-0.002-0.013L15.46,6.225L15.466,6.2l0.004-0.024V6.153V6.132
			l-0.002-0.014l-0.014-0.004h-0.017l-0.028-0.009l-0.057-0.013l-0.017-0.005l-0.021-0.006L15.3,6.076l-0.034-0.011L15.23,6.06
			l-0.017-0.008l-0.024-0.003l-0.026-0.003l-0.032-0.005l-0.028-0.003l-0.044-0.011l-0.015-0.006l-0.018-0.004l-0.016-0.003
			l-0.04-0.003l-0.048-0.003l-0.021-0.006l-0.051-0.01l-0.017-0.003l-0.023-0.005l-0.046-0.01l-0.021-0.003l-0.022-0.003
			l-0.029-0.001l-0.029-0.002h-0.02h-0.02h-0.018L14.58,5.958l-0.019-0.005L14.546,5.95l-0.013-0.001l-0.032-0.001L14.48,5.945
			l-0.037-0.003l-0.022-0.001l-0.016-0.003l-0.021-0.005l-0.04-0.002L14.338,5.93h-0.059h-0.028l-0.021,0.001L14.222,5.94
			l-0.037,0.013l-0.031,0.011l-0.021,0.01l-0.023,0.013L14.089,6l-0.021,0.02l-0.021,0.015l-0.026,0.011L14,6.054L13.982,6.07
			L13.96,6.09l-0.03,0.013l-0.013,0.008l-0.021,0.012l-0.011,0.008l-0.016,0.011l-0.02,0.001l-0.022-0.001l-0.023-0.023
			l-0.015-0.022l-0.012-0.022l-0.014-0.031L13.75,6.022l-0.008-0.016L13.738,5.98l-0.009-0.029l-0.015-0.02l-0.004-0.016
			l-0.004-0.014l-0.004-0.012L13.699,5.87l-0.007-0.013L13.69,5.842V5.803L13.688,5.79l-0.002-0.018l-0.002-0.018l-0.002-0.018
			V5.714V5.699V5.685V5.633l0.006-0.031l0.005-0.018l0.004-0.016V5.553V5.521l-0.016-0.018L13.669,5.49l-0.011-0.01L13.64,5.467
			l-0.012-0.01l-0.013-0.013L13.59,5.417l-0.011-0.02l-0.019-0.016l-0.008-0.015l-0.01-0.017L13.53,5.331L13.519,5.31l-0.013-0.024
			V5.265l-0.001-0.022l0.002-0.016l0.012-0.031l0.012-0.022l0.009-0.018l0.015-0.019l0.01-0.011l0.007-0.018l0.011-0.016
			l0.012-0.019l0.004-0.013l0.008-0.013l0.009-0.008l0.009-0.037l0.011-0.024l0.016-0.016l0.017-0.016l0.013-0.015l0.016-0.013
			l0.018-0.011l0.014-0.005l0.019-0.007l0.013-0.009l0.018-0.013l0.016-0.013l0.014-0.016l0.033-0.031l0.044-0.06V4.733l0.002-0.018
			l0.008-0.022l0.005-0.02l0.003-0.021l0.005-0.018l0.013-0.021l0.008-0.024l0.005-0.052l0.008-0.032v-0.02l-0.027-0.028
			l-0.021-0.006l-0.021-0.015l-0.022-0.011l-0.031-0.009l-0.019-0.009l-0.026-0.011l-0.018-0.008l-0.018-0.011l-0.026-0.013
			L13.683,4.35l-0.018-0.011L13.65,4.327l-0.009-0.012L13.628,4.31l-0.009-0.011l-0.014-0.011L13.593,4.28l-0.016-0.008
			l-0.011-0.013L13.56,4.238l-0.009-0.021l-0.014-0.02l-0.004-0.02V4.158V4.146V4.134V4.12l0.006-0.013l0.007-0.016l0.013-0.02
			l0.021-0.019l0.02-0.015l0.02-0.018l0.015-0.013l0.021-0.018l0.017-0.013l0.019-0.008l0.019-0.013l0.012-0.01l0.015-0.007
			l0.028-0.016l0.017-0.016l0.006-0.003l0.018-0.013l0.009-0.012l0.005-0.013l0.002-0.012V3.844l-0.006-0.006l-0.028-0.002
			l-0.022-0.001L13.74,3.834l-0.046-0.002h-0.058H13.61l0.003-0.011h-0.017h-0.021l-0.021,0.003l-0.021,0.001l-0.022,0.002
			l-0.016,0.003h-0.008h-0.043h-0.035h-0.047l-0.033-0.006l-0.036-0.003h-0.041h-0.038h-0.044h-0.04H13.11h-0.04H13.05l-0.043,0.006
			l0.004,0.027l-0.01,0.014l-0.02,0.008l-0.014,0.012l-0.023,0.013l-0.029,0.003l-0.021,0.001l-0.032,0.013l-0.023,0.007
			l-0.019,0.01l-0.015,0.008l-0.021,0.004l-0.017,0.005l-0.032,0.002h-0.037l-0.015,0.008l-0.016,0.012l-0.022,0.008l-0.024,0.005
			H12.6h-0.017h-0.018h-0.021l-0.016-0.002l-0.013-0.004L12.499,3.98h-0.012h-0.021h-0.017l-0.021,0.001l-0.015,0.013l-0.022,0.014
			l-0.016,0.005l-0.02,0.006l-0.024,0.002h-0.034l-0.029,0.005l-0.017,0.007l-0.032,0.013L12.21,4.049l-0.02,0.006l-0.018,0.01
			l-0.016,0.015l-0.04,0.004l-0.015,0.001l-0.019,0.002l-0.022,0.001h-0.014l-0.015,0.007l-0.019-0.007l-0.021,0.013l-0.025,0.015
			l-0.034,0.011l-0.019,0.011l-0.024,0.005l-0.032,0.002l-0.021,0.011l-0.013,0.013l-0.016,0.02L11.8,4.211l-0.015,0.02l-0.01,0.022
			l-0.005,0.02l-0.023,0.013H11.73h-0.021l-0.015-0.009l-0.035-0.019L11.643,4.25l-0.018-0.008l-0.016-0.008l-0.023-0.008
			L11.562,4.22l-0.028-0.008h-0.023l-0.025-0.003l-0.014-0.001l-0.032,0.005l-0.012,0.013l-0.021,0.005L11.39,4.239l-0.022,0.013
			l-0.016,0.012l-0.013,0.011l-0.012,0.016l-0.032,0.01l-0.013,0.011l-0.008,0.006l-0.009,0.008L11.25,4.334h-0.038h-0.015h-0.033
			l-0.022-0.016l-0.015-0.011l-0.016-0.024h-0.019l-0.011-0.013l-0.021-0.008l-0.039-0.015l-0.015-0.01L10.99,4.223l-0.028-0.019
			l-0.008-0.008V4.159l-0.002-0.018V4.116L10.95,4.101l-0.015-0.039V4.045l0.002-0.019l-0.02-0.02l-0.001-0.019l-0.021-0.018
			l-0.025-0.015l-0.012-0.018l-0.021-0.014L10.822,3.91L10.79,3.904l0.048,0.006L10.832,3.89l-0.003-0.018V3.854l-0.018-0.008
			h-0.046l-0.009-0.013l0.003-0.021l0.023-0.013l0.063-0.015l-0.016-0.017l-0.03-0.022l-0.004-0.028V3.686l0.012-0.025l0.024-0.02
			l0.028-0.021l0.025-0.027l0.028-0.034l-0.119-0.092l-0.104-0.03l-0.163-0.085L10.469,3.32l-0.046-0.024l-0.044-0.022l-0.055-0.035
			l-0.063-0.04l-0.062-0.035L10.13,3.125l-0.081-0.043l-0.095-0.05L9.936,3.027L9.935,3.028L9.893,3.013l-0.071-0.02l-0.14-0.04
			L9.614,2.916l-0.072-0.04L9.429,2.787L9.376,2.775l-0.08-0.041L9.235,2.683l-0.05-0.03L9.137,2.611L9.089,2.573L9.041,2.521
			L8.997,2.484L8.922,2.446l-0.07-0.078L8.795,2.342L8.686,2.294L8.67,2.275L8.608,2.196H8.545L8.5,2.187L8.414,2.131L8.381,2.125
			L8.352,2.134H8.297L8.261,2.135l-0.02,0.008L8.209,2.14H8.194H8.171L8.162,2.134L8.15,2.12L8.148,2.105V2.087L8.142,2.059
			L8.14,2.038L8.134,2.02L8.132,1.996L8.126,1.974L8.122,1.96L8.118,1.944L8.11,1.937L8.086,1.921L8.073,1.91L8.062,1.902
			l-0.01-0.01L8.047,1.871V1.838V1.825L8.024,1.824H8.013H7.997H7.984L7.963,1.822L7.941,1.818L7.925,1.811L7.916,1.8L7.908,1.792
			l-0.01-0.005L7.886,1.775L7.874,1.768L7.863,1.762L7.848,1.754L7.828,1.75L7.808,1.743l-0.01-0.008L7.785,1.723l-0.004-0.01
			L7.768,1.699L7.76,1.687L7.752,1.681L7.736,1.674l-0.013-0.01L7.705,1.646l-0.014-0.01L7.676,1.628L7.668,1.609v-0.02L7.65,1.574
			L7.642,1.568H7.62L7.606,1.565L7.589,1.563H7.562H7.531H7.502L7.48,1.562L7.468,1.562L7.446,1.552L7.425,1.544L7.41,1.54H7.396
			H7.374H7.356H7.339H7.316L7.295,1.542H7.258H7.234L7.214,1.54L7.195,1.539L7.175,1.534L7.154,1.532L7.129,1.527l-0.03-0.004
			L7.075,1.519L7.046,1.513L7.028,1.508L7.001,1.5l-0.021-0.01L6.965,1.485L6.942,1.475L6.925,1.468L6.911,1.46L6.863,1.452
			L6.857,1.456v0.016h-0.04L6.804,1.479L6.787,1.49L6.772,1.497H6.756h-0.01L6.686,1.509L6.673,1.522L6.65,1.547L6.645,1.563
			L6.639,1.568L6.621,1.569L6.59,1.568L6.574,1.565L6.546,1.552L6.524,1.54l-0.02-0.003H6.479H6.442H6.414h-0.02H6.367L6.334,1.539
			L6.318,1.542l-0.05-0.022L6.247,1.504L6.179,1.483L6.131,1.465l-0.03-0.011L6.079,1.45L6.05,1.443L6.033,1.43l-0.04-0.029
			L5.972,1.394L5.951,1.385L5.936,1.374L5.913,1.357L5.9,1.341L5.882,1.319L5.87,1.312L5.849,1.308L5.835,1.312L5.831,1.325
			L5.82,1.354L5.812,1.365L5.803,1.376L5.771,1.401l-0.021,0.01L5.739,1.422L5.731,1.438L5.726,1.454v0.016L5.718,1.478l-0.022,0.01
			L5.673,1.49L5.656,1.496l-0.021,0.01l-0.01,0.011L5.621,1.529L5.618,1.542v0.004L5.613,1.557L5.608,1.564L5.598,1.569L5.582,1.573
			L5.563,1.583L5.543,1.593H5.525L5.51,1.59L5.5,1.58L5.494,1.568L5.488,1.553L5.479,1.535L5.473,1.529L5.47,1.521L5.469,1.51
			L5.463,1.502L5.461,1.497L5.455,1.492l-0.018-0.01L5.43,1.475L5.426,1.474l-0.028-0.02L5.391,1.452l-0.009-0.01L5.374,1.426
			L5.367,1.415L5.358,1.401L5.356,1.38V1.367L5.351,1.362l-0.01-0.008L5.337,1.341L5.333,1.329L5.327,1.313l-0.01-0.016L5.309,1.289
			L5.3,1.273L5.294,1.256L5.29,1.243L5.288,1.226L5.279,1.214L5.259,1.175L5.253,1.172L5.251,1.169L5.238,1.164L5.234,1.158
			L5.223,1.152L5.214,1.146L5.208,1.142L5.194,1.129L5.183,1.122l-0.01-0.009L5.169,1.104L5.163,1.102V1.088V1.072L5.161,1.064
			V1.046l-0.007-0.03L5.14,1.004L5.131,0.986L5.128,0.971L5.115,0.965L5.106,0.955L5.101,0.941L5.099,0.927L5.091,0.909L5.083,0.896
			L5.064,0.883L5.049,0.865L5.042,0.862L5.034,0.85L5.025,0.838L5.024,0.823V0.811L5.02,0.788L5.013,0.768L4.997,0.753L4.988,0.74
			l-0.01-0.013L4.973,0.714L4.969,0.697L4.966,0.685L4.964,0.666L4.956,0.643L4.941,0.631H4.931L4.917,0.632L4.896,0.639
			l-0.02,0.006H4.855L4.837,0.643H4.799H4.781h-0.02H4.744H4.703H4.678L4.651,0.647L4.635,0.649H4.589L4.561,0.647L4.494,0.66
			L4.479,0.661L4.457,0.665L4.41,0.67H4.373L4.352,0.676L4.328,0.681H4.31H4.289h-0.04H4.23L4.216,0.678l-0.015-0.01l-0.01-0.011
			L4.17,0.635L4.162,0.625L4.149,0.606l-0.015-0.01L4.111,0.583H4.097L4.078,0.589L4.063,0.595L4.02,0.606L4.012,0.609l-0.02,0.007
			L3.972,0.625L3.949,0.627H3.929H3.91L3.888,0.625L3.865,0.621L3.845,0.618L3.829,0.617L3.807,0.614L3.795,0.613H3.771L3.729,0.619
			L3.705,0.62L3.684,0.625L3.667,0.628L3.631,0.629L3.619,0.634L3.605,0.64L3.583,0.646L3.569,0.649L3.565,0.655L3.558,0.658
			L3.537,0.669L3.519,0.681L3.497,0.71L3.484,0.72L3.477,0.729L3.468,0.745L3.46,0.756L3.449,0.768l-0.007,0.01L3.431,0.79
			l-0.01,0.013L3.407,0.815l-0.01,0.015L3.382,0.846L3.364,0.859L3.344,0.877L3.326,0.888L3.308,0.904L3.292,0.909H3.279H3.258
			L3.243,0.908H3.229L3.215,0.905L3.207,0.904L3.198,0.903L3.184,0.898L3.166,0.89L3.152,0.887l-0.034-0.01L3.101,0.871L3.059,0.858
			L3.04,0.852L3.027,0.847L2.998,0.839L2.981,0.836L2.96,0.832l-0.015-0.01L2.938,0.813L2.931,0.8L2.923,0.783L2.91,0.773
			L2.896,0.762L2.88,0.756L2.864,0.749L2.849,0.742L2.827,0.736L2.799,0.73L2.782,0.725L2.767,0.721H2.746H2.728H2.707H2.669
			L2.645,0.724L2.629,0.729L2.611,0.73L2.585,0.736L2.569,0.744L2.556,0.752l-0.01,0.01L2.537,0.771L2.522,0.778l-0.021,0.01
			L2.483,0.793l-0.01,0.003L2.455,0.805L2.442,0.812L2.424,0.818L2.407,0.823L2.396,0.828l-0.02,0.006L2.359,0.84L2.342,0.848
			l-0.02,0.008l-0.017,0.01L2.287,0.875L2.275,0.882L2.234,0.89H2.212H2.201L2.185,0.892L2.152,0.903L2.146,0.906L2.131,0.911
			L2.12,0.915H2.1H2.089H2.074L2.061,0.919L2.045,0.925h-0.02L2.007,0.927L1.994,0.93L1.976,0.934L1.939,0.937L1.934,0.941
			L1.926,0.947L1.918,0.956L1.912,0.958L1.9,0.975L1.895,0.987L1.871,1.022H1.842L1.804,1.02L1.781,1.017L1.77,1.021L1.749,1.036
			H1.733H1.718L1.699,1.033H1.679H1.654H1.633L1.612,1.041L1.559,1.042L1.535,1.041H1.514l-0.03-0.003L1.472,1.024L1.461,1.008
			L1.453,1.005L1.444,0.999L1.431,0.983L1.427,0.969L1.414,0.956L1.4,0.941L1.384,0.927L1.362,0.912L1.342,0.883V0.869V0.852H1.329
			H1.282L1.266,0.848H1.244L1.224,0.841L1.211,0.827L1.189,0.802L1.176,0.792L1.164,0.784L1.139,0.771L1.117,0.759L1.08,0.745
			L1.055,0.742L1.013,0.739L0.975,0.729L0.937,0.714L0.884,0.676L0.771,0.649L0.732,0.851l-0.111,0.3L0.582,1.255L0.536,1.716
			L0.56,2.177l0.207,0.485l0.218,0.316L1.24,3.35l0.393,0.57l0.109,0.31l0.087,0.245l0.093,0.496L1.898,5.929l-0.08,0.45
			L1.787,6.525"/>
	</g>
</g>
<g id="Layer_1">
</g>
</svg>
