<?xml version="1.0" encoding="iso-8859-1"?>
<!-- Generator: Adobe Illustrator 16.0.4, SVG Export Plug-In . SVG Version: 6.00 Build 0)  -->
<!DOCTYPE svg PUBLIC "-//W3C//DTD SVG 1.1//EN" "http://www.w3.org/Graphics/SVG/1.1/DTD/svg11.dtd">
<svg version="1.1" xmlns="http://www.w3.org/2000/svg" xmlns:xlink="http://www.w3.org/1999/xlink" x="0px" y="0px"
	 width="50.577px" height="74.119px" viewBox="0 0 50.577 74.119" style="enable-background:new 0 0 50.577 74.119;"
	 xml:space="preserve">
<g id="Layer_83">
	<g id="Layer_88">
		<path id="DISTRICT_x3D_Muzaffargarh_x2C_PROVINCE_x3D_Punjab" style="fill:#CCCCCC;stroke:#FFFFFF;stroke-width:1.07;" d="
			M8.1,46.31L8.1,46.31l-0.051,0.203l-0.089,0.1l-0.097,0.105l-0.121,0.076l-0.205,0.09L7.356,47l-0.088,0.085l-0.002,0.044
			l0.022,0.03l0.074,0.032l0.143,0.032l0.208,0.037l0.137,0.121l0.048,0.053l0.021,0.08l0.04,0.229l0.02,0.14l-0.03,0.139
			l-0.073,0.137l-0.128,0.223L7.64,48.568l-0.087,0.069l-0.068,0.049l-0.037,0.064l-0.003,0.073l0.043,0.169l0.011,0.133
			l-0.029,0.115L7.323,49.47l-0.085,0.223l-0.17,0.25l-0.057,0.13l-0.099,0.144l-0.079,0.069l-0.128,0.076l-0.104,0.077
			l-0.105,0.127l-0.021,0.096l-0.005,0.109l0.002,0.16L6.6,51.103l0.118,0.166l0.135,0.18l0.282,0.236l0.355,0.274l0.088,0.091
			l0.029,0.104l-0.056,0.07l-0.068,0.041l-0.044,0.049l-0.011,0.045l-0.014,0.115l-0.021,0.108l-0.029,0.095L7.33,52.705
			l-0.075,0.004l-0.107-0.004l-0.186,0.038l-0.027,0.027l-0.002,0.066l0.061,0.127l0.055,0.117l0.028,0.098l0.028,0.117l0.011,0.124
			l-0.007,0.153l-0.034,0.035l-0.066,0.02l-0.203,0.045l-0.262,0.035L6.225,53.72l-0.283-0.01l-0.215-0.08l-0.223-0.052
			l-0.191-0.021L5.17,53.552l-0.095,0.033l-0.088,0.094l-0.123,0.162l-0.054,0.106L4.67,54.272l-0.066,0.129l-0.058,0.378
			l0.027,0.294l-0.005,0.124l-0.074,0.166L4.48,55.472l0.047,0.088l0.008,0.213l0.053,0.148l0.015,0.002v0.002l-0.021,0.069
			l0.002,0.08l0.047,0.101l0.022,0.1l0.002,0.078l0.015,0.16l-0.042,0.209l-0.057,0.131l-0.066,0.041l-0.059,0.002l-0.012-0.09
			l-0.082-0.09l-0.068-0.039H4.238l-0.046,0.002l-0.033,0.069l-0.01,0.11l-0.031,0.158l-0.021,0.102l-0.091,0.041L3.893,57.16
			l-0.057-0.039l-0.015-0.079l-0.023-0.109l-0.024-0.1l-0.081-0.08l-0.104-0.048l-0.091,0.001L3.44,56.728l0.001,0.049l-0.01,0.109
			l-0.027,0.192l-0.021,0.228L3.34,57.495v0.021l0.059,0.068l0.205,0.059l0.219,0.047l0.16,0.048l0.07,0.108l-0.021,0.221
			l-0.062,0.359l-0.077,0.211l-0.077,0.149l-0.09,0.11l-0.182,0.082l-0.095,0.06l0.001,0.07l0.024,0.049l0.08,0.021l0.103-0.002
			l0.046,0.069l0.025,0.099l0.001,0.102l-0.045,0.061l-0.032,0.08l-0.011,0.069l0.001,0.06l0.068,0.021l0.036,0.069l0.013,0.06
			L3.75,59.966l-0.045,0.08l-0.031,0.12l0.001,0.101l0.003,0.148l0.081,0.129l0.038,0.209l0.059,0.119l0.126,0.038l0.115,0.049
			l0.092,0.068l0.024,0.079l-0.021,0.121l-0.055,0.119l-0.078,0.102l-0.056,0.131l-0.01,0.141l-0.02,0.229l-0.033,0.07l-0.079,0.07
			L3.737,62.14l-0.146,0.031l-0.124,0.062L3.33,62.308L3.207,62.41l-0.045,0.11l0.002,0.078l0.003,0.131l0.001,0.08l-0.011,0.07
			l-0.057,0.029L2.976,62.96l-0.137,0.012l-0.183,0.043l-0.124,0.052l-0.066,0.051l-0.102,0.11l-0.043,0.17l-0.075,0.24l-0.02,0.31
			l0.002,0.159l-0.02,0.15l-0.034,0.059L2.04,64.378l-0.284,0.033l-0.171,0.012l-0.182,0.094l-0.111,0.11l-0.102,0.11l-0.1,0.142
			l-0.022,0.05l0.001,0.07l0.035,0.01l0.103-0.002l0.182-0.053l0.102-0.041l0.125-0.001l0.093,0.038l0.048,0.109l0.095,0.258
			l0.165,0.328l0.131,0.316l0.048,0.188l0.002,0.109l-0.075,0.221l-0.144,0.291l-0.074,0.261L1.885,67.34l0.052,0.398l0.031,0.459
			l0.108,0.478l0.039,0.288l-0.031,0.132l-0.067,0.061l-0.102,0.031l-0.158,0.021L1.54,69.222l-0.057,0.061l-0.065,0.1l-0.042,0.17
			l-0.029,0.312l-0.042,0.229l-0.065,0.141l-0.157,0.229L1.05,70.563l-0.032,0.119L1.01,70.912l0.037,0.179L1.13,71.31l0.015,0.16
			l0.002,0.119l-0.031,0.17l-0.12,0.252l-0.298,0.571l-0.155,0.231l0.003,0.063l0.023,0.06l0.094,0.14l0.14,0.202l0.149-0.154
			l0.142-0.105l0.205-0.146l0.234-0.131l0.189-0.095l0.314-0.164l0.379-0.143l0.368-0.121l0.37-0.107l0.207-0.04l0.14-0.067
			l0.078-0.033L3.472,71.69l0.105-0.588l0.061-0.225l0.041-0.107l0.054-0.08l0.098-0.069l0.177-0.082l0.376-0.065l0.575-0.101
			l0.552-0.129l0.409-0.067l0.241-0.074l0.164-0.101l0.099-0.09l0.086-0.108l0.062-0.129L6.61,69.47l0.044-0.154l0.092-0.275
			l0.094-0.275l0.125-0.295l0.085-0.166l0.112-0.306l0.095-0.245l0.073-0.119l0.088-0.08l0.109-0.041l0.065-0.021l0.078-0.001
			l0.167,0.006l0.122-0.013l0.132-0.052l0.132-0.07l0.12-0.09l0.108-0.053l0.078-0.002l0.104,0.041l0.111,0.082l0.085,0.094
			l0.085,0.07l0.109,0.01l0.137-0.025l0.067-0.062l0.066-0.062l0.116-0.255l0.145-0.28l0.285-0.644l0.287-0.561l0.152-0.412
			l0.086-0.41l0.073-0.34l0.186-0.584l0.093-0.135l0.107-0.062l0.138-0.039l0.19-0.004l0.125,0.034l0.194,0.093l0.181,0.092
			l0.25,0.068l0.222,0.055l0.305,0.056l0.428,0.075l0.191-0.016l0.082-0.039l0.053-0.049l0.035-0.254l-0.007-0.265l-0.005-0.192
			l-0.005-0.119l0.054-0.098l0.094-0.1l0.137-0.039l0.15-0.002l0.153,0.045l0.235,0.104l0.32,0.162l0.526,0.171l1.026,0.413
			l0.224,0.129l0.237-0.42l0.014-0.387l-0.104-0.301l-0.137-0.088l-0.14-0.119l-0.059-0.129l-0.024-0.158l0.045-0.08l0.057-0.041
			h0.068l0.147,0.038l0.355,0.155l0.344,0.166l0.218,0.099l0.259,0.084l0.16-0.001l0.147-0.031l0.112-0.092l0.112-0.141l0.031-0.17
			l-0.047-0.168l-0.095-0.189l-0.082-0.219l-0.163-0.258l-0.173-0.108l-0.218-0.117l-0.229-0.108l-0.194-0.076l-0.139-0.139
			l-0.08-0.029l-0.114-0.01l-0.137-0.019l-0.125-0.019l-0.06-0.061v-0.068l0.055-0.19l0.199-0.4l0.136-0.2l0.168-0.231l0.156-0.132
			l0.138-0.061l0.159-0.002l0.229,0.047l0.229,0.049l0.183,0.008l0.216-0.051l0.17-0.143l0.078-0.131l0.092-0.199l0.091-0.141
			l0.067-0.051l0.067-0.011l0.103,0.009l0.092,0.061l0.14,0.078l0.126,0.059l0.113-0.001l0.091-0.001l0.092-0.061l0.135-0.172
			l0.103-0.101l0.077-0.069l0.228-0.082l0.285-0.094l0.521-0.185l0.341-0.183l0.136-0.131l0.09-0.131l-0.001-0.109l-0.004-0.34
			l-0.097-0.408l-0.003-0.198l0.044-0.132l0.137-0.131l0.102-0.09l0.147-0.092l0.205-0.062l0.112-0.039l0.112-0.121l0.079-0.141
			l0.02-0.24l0.025-0.127l0.102-0.1l-0.129,0.032l-0.148,0.04l-0.104,0.066l-0.065,0.117l-0.031,0.057l-0.054,0.013l-0.276-0.095
			l-0.446-0.219l-0.123-0.107l-0.007-0.127l0.036-0.141l0.013-0.078l0.019-0.187l-0.033-0.096l-0.097-0.097l-0.059-0.094
			l0.024-0.128l0.047-0.11l0.057-0.17l-0.008-0.142l-0.039-0.128l-0.104-0.167l-0.062-0.13l0.015-0.152l-0.008-0.252l-0.04-0.215
			l-0.122-0.459l-0.25-0.609l-0.171-0.42l-0.028-0.07l-0.102-0.297l0.002-0.117l0.031-0.057l0.048-0.027l0.083-0.006l0.1,0.006
			l0.046,0.021l0.117,0.043l0.106,0.022l0.089-0.018l0.061-0.063l0.041-0.06l0.094-0.168l0.047-0.125l0.026-0.146l-0.017-0.098
			l-0.058-0.08l-0.126-0.101l-0.047-0.144l0.019-0.116l0.041-0.101l0.146-0.192l0.393-0.415l0.073-0.075l0.062-0.075l0.105-0.06
			l0.076-0.022l0.121-0.019l0.264-0.097l0.121-0.06l0.145-0.058l0.092-0.092l0.013-0.063l-0.022-0.06l-0.136-0.152l-0.263-0.27
			l-0.315-0.312l-0.109-0.144l0.002-0.102l0.058-0.129l0.267-0.316l0.044-0.076l0.028-0.092l-0.018-0.07l-0.021-0.116l0.021-0.095
			l0.052-0.049l0.073-0.018l0.166-0.014l0.154,0.011l0.131-0.021l0.083-0.05l0.041-0.071l0.034-0.131l-0.01-0.107l-0.068-0.104
			l-0.077-0.06l-0.011-0.066l0.038-0.066l0.067-0.049l0.096-0.015l0.073-0.019l0.167,0.029l0.198,0.084l0.214,0.116l0.129,0.054
			l0.122,0.053l0.076,0.004l0.101-0.006l0.186-0.033l0.163-0.035l0.106,0.011l0.096,0.013l0.08,0.014l0.104-0.003l0.085-0.021
			l0.137-0.046l0.087-0.067l0.076-0.133l0.023-0.045l0.014-0.092l-0.008-0.093l-0.032-0.11l-0.015-0.089l0.035-0.047l0.115-0.034
			l0.129-0.001l0.128,0.054l0.154,0.064l0.167,0.043l0.174,0.018l0.17,0.01l0.246-0.041l0.312-0.104l0.285-0.079l0.24-0.059
			l0.134-0.066l0.084-0.035l0.076-0.105l0.044-0.092v-0.069l-0.011-0.121l-0.094-0.157l-0.123-0.134l-0.269-0.229l-0.24-0.189
			l-0.119-0.1l-0.102-0.146l-0.025-0.079l0.051-0.131l0.107-0.176l0.127-0.111l0.174-0.135l0.122-0.061l0.143-0.07l-0.002-0.645
			l0.001-0.16l-0.106-0.131l-0.071-0.254l-0.082-0.18l-0.115-0.089l-0.121-0.103l-0.008-0.115l0.07-0.096l0.063-0.104l-0.021-0.088
			l-0.029-0.102l0.045-0.063l0.031-0.034l0.123-0.035l0.256-0.009l0.092-0.022l0.056-0.061l0.019-0.062l-0.023-0.111l-0.025-0.158
			l-0.099-0.229l-0.046-0.306l-0.002-0.182l0.048-0.177l0.054-0.105l0.127-0.148l0.104-0.076l0.126-0.066l0.149-0.061l0.09-0.047
			l0.056-0.059l-0.023-0.062l-0.085-0.202l-0.026-0.238l0.025-0.187l0.086-0.195l0.059-0.196l0.022-0.229l-0.028-0.184L27.672,37.5
			l-0.079-0.028l-0.133-0.025l-0.081,0.005l-0.162,0.032l-0.157,0.021l-0.147,0.004l-0.084-0.021l-0.069-0.15l-0.006-0.174
			l0.026-0.161l-0.072-0.198l-0.047-0.119l0.027-0.08l0.043-0.009l0.123,0.046h0.108l0.128-0.045l0.176-0.085l0.137-0.165
			l0.058-0.117l0.006-0.17l-0.062-0.17l-0.038-0.162l0.051-0.152l0.097-0.273l0.301-0.742l0.165-0.377l0.176-0.339l0.234-0.559
			l0.154-0.149l0.086-0.094l0.086-0.037l0.145,0.03l0.118,0.056l0.185,0.09l0.172,0.051l0.107-0.006h0.121l0.166-0.065l0.162-0.111
			l0.165-0.146l0.059-0.114l0.072-0.063l0.064-0.022l0.152,0.011l0.16,0.001l0.146-0.026l0.155-0.021l0.104-0.021l0.105-0.133
			l0.043-0.086l0.012-0.1l-0.062-0.114l-0.087-0.146l-0.127-0.094l-0.139-0.096l-0.018-0.1l-0.031-0.045l-0.058-0.043l-0.075-0.062
			l-0.019-0.098l-0.006-0.094l-0.026-0.056l-0.07-0.071l-0.016-0.074l0.049-0.098l0.038-0.076l0.062-0.045l0.111-0.119l0.081-0.107
			l-0.095-0.195l-0.035-0.216l0.005-0.153l0.021-0.135l0.005-0.09l0.043-0.096l0.034-0.039l0.074-0.039l0.074,0.015l0.114,0.044
			l0.079,0.006l0.088-0.029l0.102-0.071l0.066-0.084l0.031-0.097l0.021-0.168l0.021-0.148v-0.04l-0.029-0.024l-0.044-0.004
			l-0.082,0.002l-0.046-0.025l-0.069-0.055l-0.014-0.06l0.006-0.079l0.028-0.05l0.07-0.026l0.135,0.01l0.124-0.033l0.084-0.059
			l0.059-0.08l0.038-0.099l0.033-0.14l-0.001-0.102l-0.077-0.19l-0.066-0.175l-0.041-0.18l0.009-0.162l0.086-0.192l0.058-0.168
			l-0.017-0.105l-0.034-0.092l-0.03-0.126l-0.031-0.087l-0.012-0.129l0.023-0.093l0.062-0.127l0.094-0.145l0.036-0.148l0.055-0.196
			l0.053-0.093l0.086-0.062l0.121-0.09l0.033-0.074l0.008-0.084l-0.027-0.08l-0.076-0.09l-0.049-0.098l0.013-0.081l0.058-0.087
			l0.093-0.104l0.118-0.146l0.074-0.075l0.056-0.072l0.023-0.053l0.018-0.079l0.056-0.137l0.079-0.074l0.086-0.036l0.095-0.028
			l0.058-0.037l0.033-0.049l0.02-0.044l0.011-0.051l-0.02-0.058l-0.005-0.067l0.015-0.045l0.057-0.088l0.073-0.075l0.047-0.039
			l0.086-0.021l0.136-0.004l0.126-0.009l0.078-0.02l0.062-0.039l0.065-0.134l0.112-0.213l0.111-0.211l0.049-0.108l0.094-0.113
			l0.085-0.062l0.089-0.017l0.172-0.008l0.087-0.024l0.131-0.071l0.064-0.079l0.044-0.086l0.023-0.117l0.036-0.109l0.103-0.162
			l0.046-0.049l0.048-0.029l0.079-0.008l0.101-0.018l0.104-0.035l0.071-0.082l0.038-0.072l-0.012-0.063l-0.038-0.06l0.004-0.059
			l0.045-0.076l0.026-0.021l0.03,0.011l0.071,0.061l0.097,0.058l0.055,0.009l0.095-0.004l0.058-0.036l0.021-0.022l0.021-0.059
			l-0.021-0.031l-0.08-0.067l-0.141-0.062l-0.148-0.111l-0.09-0.069l-0.118-0.046l-0.136-0.061l-0.077-0.086v-0.041l0.042-0.105
			l0.082-0.104l0.069-0.027l0.081,0.002l0.121,0.041l0.185,0.093l0.15,0.04l0.138,0.002l0.101-0.042l0.083-0.082l0.094-0.114
			l0.027-0.102l-0.016-0.098l0.004-0.123l0.038-0.123l0.023-0.043l0.049-0.029l0.08-0.023l0.078-0.033l0.067-0.071l0.015-0.046
			l0.002-0.069l-0.03-0.071l-0.031-0.086l0.005-0.062l0.038-0.073l0.119-0.096l0.123-0.119l0.048-0.08l-0.001-0.051l-0.059-0.075
			l-0.031-0.061l-0.006-0.054l-0.007-0.062l-0.03-0.061l-0.061-0.062l-0.015-0.062l0.02-0.119l0.011-0.127v-0.142l0.016-0.101
			l0.035-0.104l0.071-0.092l0.115-0.132l0.095-0.104l0.128-0.104l0.043-0.029l0.288-0.2l0.231-0.192l0.099-0.078l0.068-0.012
			l0.104-0.024l0.104-0.025l0.088-0.03l0.077-0.055l0.061-0.105l0.037-0.071l0.041-0.026l0.081,0.026l0.107,0.006l0.133-0.01
			l0.176-0.082l0.108-0.084l0.085-0.111l0.069-0.129l0.061-0.187l0.057-0.188l0.03-0.146l0.021-0.048l0.049-0.044h0.088l0.07,0.024
			l0.062-0.009l0.082-0.002l0.085-0.007l0.062-0.02l0.052-0.038l0.02-0.044l0.021-0.069l0.007-0.028l0.019-0.029l0.043-0.016
			l0.091-0.02l0.078-0.019l0.029-0.03l0.02-0.04l0.007-0.053l0.002-0.044L40,15.697l-0.059-0.029l-0.07-0.024l-0.214-0.017
			l-0.212-0.006l-0.178,0.005l-0.096-0.007l-0.091-0.046l-0.118-0.06l-0.09-0.111l-0.063-0.103l-0.01-0.094v-0.129l0.005-0.114
			l0.024-0.057l0.043-0.057l0.067-0.032l0.087,0.014l0.047,0.051L39.1,14.95l0.052,0.144l0.044,0.136l0.044,0.07l0.059,0.039
			l0.068,0.028l0.1,0.039l0.094,0.012l0.128-0.012l0.115-0.036l0.107-0.075l0.064-0.079l-0.005-0.067l-0.033-0.092l-0.006-0.077
			l0.007-0.094l0.001-0.08l0.002-0.17l0.045-0.126l0.068-0.113l0.049-0.043l0.09-0.056l0.106-0.044l0.15-0.039l0.098-0.008
			l0.085,0.019l0.107,0.057l0.08,0.067l0.144,0.109l0.226,0.106l0.131,0.034l0.108,0.017l0.074-0.025l0.036-0.028l0.067-0.058
			l0.063-0.081l0.018-0.047l-0.007-0.088l-0.058-0.095l-0.071-0.085l-0.063-0.092l-0.054-0.204l0.003-0.161l0.021-0.059l0.018-0.035
			l0.02-0.019l0.05-0.008l0.067,0.018l0.08,0.017l0.041-0.001l0.062-0.02l0.096-0.063l0.099-0.062l0.043-0.005l0.078,0.021
			l0.09,0.045l0.102,0.06l0.059,0.065l0.06,0.061l0.095,0.062l0.135,0.076l0.097,0.033l0.138,0.006l0.12-0.025l0.083-0.053
			l0.094-0.129l0.133-0.177l0.126-0.113l0.121-0.125l0.149-0.141L43.887,13l0.249-0.062l0.072-0.046l0.026-0.057V12.77l-0.012-0.09
			l-0.011-0.069l0.007-0.053l0.021-0.043l0.029-0.041l0.066-0.053l0.083-0.017l0.131-0.042l0.15-0.09l0.066-0.058l0.021-0.048
			l0.035-0.129l0.004-0.165l0.007-0.169l0.022-0.063l0.059-0.065l0.111-0.063l0.209-0.09l0.212-0.069l0.232-0.062l0.338-0.077
			l0.34-0.081l0.333-0.124l0.22-0.087l0.151-0.064l0.177-0.106l0.12-0.15l0.062-0.1l0.078-0.095l0.054-0.078l0.045-0.035
			l0.067-0.022l0.167,0.006l0.334-0.043l0.196-0.06l0.192-0.09l0.173-0.098l0.107-0.084l0.146-0.151l0.104-0.151l0.22-0.271
			l0.061-0.098l0.152-0.246l0.128-0.219l0.097-0.173l0.051-0.099l0.062-0.07l-0.06-0.063l-0.037-0.058l-0.081-0.053l-0.067-0.018
			l-0.13-0.009l-0.133,0.01l-0.136,0.025L49.09,8.268l-0.129-0.002l-0.084-0.019l-0.061-0.02l-0.096-0.058L48.68,8.105l-0.042-0.1
			l-0.059-0.142l-0.08-0.133l-0.18-0.197l-0.078-0.072l-0.055-0.034l-0.03-0.01l-0.089-0.02L47.92,7.402l-0.104-0.015l-0.054-0.023
			l-0.067-0.058l-0.128-0.115l-0.148-0.136l-0.113-0.084l-0.209-0.156l-0.149-0.106l-0.045-0.031l-0.128,0.154l-0.078,0.095
			l-0.062,0.074l-0.04,0.037l-0.052,0.033l-0.071,0.03l-0.043,0.031l-0.043,0.03l-0.034,0.024l-0.091,0.02l-0.093-0.017l-0.091-0.03
			l-0.078-0.047l-0.067-0.043l-0.174-0.102L45.614,6.92l-0.238-0.066l-0.116-0.04l-0.062-0.045l-0.052-0.028l-0.184-0.062
			l-0.28-0.075L44.57,6.596l-0.074,0.01l-0.088,0.026l-0.067,0.047l-0.077,0.08l-0.047,0.079L44.175,6.93l0.003,0.123l0.034,0.193
			l0.048,0.142l0.022,0.104l-0.011,0.062l-0.046,0.075l-0.089,0.106l-0.104,0.086l-0.1,0.052l-0.148,0.031l-0.061,0.005
			l-0.079-0.017l-0.066-0.008L43.536,7.9l-0.054,0.042l-0.092,0.043l-0.098,0.007l-0.076,0.015l-0.054,0.027l-0.067,0.038
			l-0.109,0.034L42.878,8.1l-0.181-0.011l-0.116-0.014l-0.173-0.043l-0.062-0.017l-0.078,0.004l-0.066,0.033l-0.142,0.053
			l-0.11,0.038l-0.088,0.041l-0.1,0.026h-0.06l-0.039-0.003l-0.042,0.001L41.55,8.134l-0.212-0.067l-0.204-0.104l-0.305-0.125
			l-0.403-0.19l-0.434-0.191l-0.397-0.182l-0.402-0.242l-0.369-0.224l-0.326-0.167l-0.356-0.209L37.911,6.26l-0.208-0.169
			l-0.235-0.173L37.27,5.782l-0.287-0.264l-0.235-0.249l-0.131-0.223L36.4,4.881l-0.235-0.18l-0.177-0.178L35.85,4.427l-0.249-0.149
			l-0.13-0.102l-0.115-0.145l-0.15-0.238L35.09,3.61l-0.182-0.198L34.65,3.159l-0.398-0.305l-0.244-0.219l-0.364-0.332l-0.281-0.218
			L33.012,1.8l-0.219-0.158l-0.136-0.115l-0.132-0.056l-0.287-0.058l-0.497-0.054L31.538,1.37l-0.234-0.019l-0.115-0.06
			l-0.084-0.114l-0.201-0.168l-0.242-0.142l-0.11-0.047l-0.289-0.085l-0.396-0.034l-0.279-0.019l-0.225-0.036l-0.469-0.088
			L28.762,0.54l-0.161,0.023l-0.157,0.088l-0.16,0.062l-0.188,0.058l-0.168,0.022l-0.245-0.045L27.237,0.65l-0.219-0.029
			l-0.187-0.005l-0.194,0.051L26.39,0.763l-0.077,0.06l-0.045,0.084l-0.01,0.095l0.044,0.089l0.055,0.155l0.071,0.266l0.026,0.139
			l-0.021,0.105l-0.07,0.145l-0.257,0.352l-0.182,0.226l-0.166,0.177l-0.158,0.178l-0.15,0.173l-0.067,0.094L25.35,3.206
			l-0.001,0.089l0.06,0.124l0.141,0.179l0.097,0.167l0.156,0.207l0.182,0.191l0.051,0.09l-0.018,0.056l-0.099,0.058L25.495,4.6
			l-0.437,0.283l-0.44,0.34l-0.354,0.229l-0.202,0.095L23.92,5.592l-0.117,0.029l-0.065-0.009l-0.095-0.051l-0.096-0.128
			l-0.104-0.085l-0.131-0.062L23.05,5.251l-0.251-0.007l-0.275-0.033L22.28,5.236l-0.177,0.073l-0.295,0.154L21.55,5.622l-0.14,0.11
			l-0.113,0.056l-0.093,0.014l-0.25-0.015L20.7,5.754l-0.164-0.047l-0.14-0.089l-0.108-0.104l-0.145-0.147l-0.147-0.135l-0.15-0.071
			l-0.252-0.046l-0.261-0.009l-0.392,0.049L18.684,5.14l-0.248-0.026l-0.203-0.029l-0.182-0.062l-0.069-0.074V4.866l0.04-0.104
			l0.096-0.116l-0.021-0.048l-0.11-0.047l-0.21-0.041L17.44,4.518l-0.365,0.093l-0.293,0.014l-0.207,0.037L16.34,4.734l-0.207,0.082
			L16.017,4.84l-0.165,0.01l-0.285-0.031l-0.508-0.034l-0.553-0.072l-0.431-0.036l-0.162-0.008l-0.056,0.019l-0.085,0.06
			l-0.078,0.067l-0.133,0.118l-0.168,0.113L13.19,5.141l-0.198,0.071l-0.23,0.053l-0.334,0.034h-0.253l-0.282,0.04l-0.367,0.017
			l-0.36-0.06l-0.007,0.399l0.007,0.253L11.2,6.209l0.062,0.17l0.068,0.096l0.088,0.08l0.145,0.079l0.182,0.07L11.861,6.8
			l0.05,0.097l0.021,0.114l-0.035,0.09l-0.111,0.101L11.62,7.328l-0.129,0.109l-0.063,0.059l-0.035,0.131l0.002,0.09l0.023,0.122
			l0.114,0.118L11.62,8.07l0.203,0.126l0.105,0.088l0.043,0.187l-0.015,0.131L11.863,8.71l-0.129,0.109L11.51,8.905l-0.167,0.101
			l-0.129,0.133l-0.14,0.109l-0.053,0.14l-0.015,0.172l0.045,0.252l0.12,0.227l0.042,0.188l0.053,0.163l0.248,0.358l0.02,0.347
			l-0.166,0.422l-0.32,0.528l0.081,0.086l0.003,0.088l-0.055,0.099l0.002,0.078l0.05,0.126l0.085,0.214l0.062,0.224l0.004,0.146
			l-0.041,0.167l0.015,0.078l0.07,0.106l0.08,0.077l0.16,0.036l0.181,0.006l0.216,0.005l0.146,0.026l0.116,0.105l0.05,0.175
			l-0.051,0.197l0.019,0.194l0.043,0.312l0.065,0.332l0.145,0.368l0.146,0.339l0.089,0.341l-0.035,0.392l-0.061,0.256l-0.192,0.404
			l-0.135,0.414l-0.037,0.312l0.047,0.508l0.005,0.187l-0.08,0.383l-0.093,0.335l-0.014,0.303l0.177,1.111l0.092,0.495l0.04,0.214
			l-0.008,0.146l-0.076,0.08l-0.145,0.09l-0.224,0.084l-0.348,0.086l-0.134,0.051l-0.088,0.08l-0.042,0.139l0.028,0.215l0.119,0.271
			l0.223,0.259l0.475,0.461l0.334,0.266l0.209,0.222l0.232,0.271l0.05,0.133l0.104,1.387l0.177,1.561l0.089,0.311l0.311,0.814
			l0.194,0.377l0.224,0.357l0.163,0.222l0.174,0.192l0.187,0.211l0.167,0.339l0.086,0.263l-0.008,0.156l-0.076,0.09l-0.146,0.041
			l-0.45-0.02l-0.18,0.022l-0.065,0.03l-0.012,0.057L14,30.651l0.081,0.126l0.183,0.094l0.113,0.037l0.023,0.067l-0.02,0.089
			l-0.122,0.09l-0.153,0.149l-0.052,0.138l-0.029,0.178l0.062,0.252l0.063,0.293l0.181,0.466l0.017,0.166l0.054,0.351l0.107,0.229
			l0.096,0.224l-0.018,0.178l-0.076,0.117l-0.088,0.031l-0.104-0.018l-0.092-0.076l-0.16-0.104l-0.066,0.001l-0.044,0.04
			l-0.031,0.099l0.025,0.126l0.082,0.126l0.07,0.097l0.002,0.078l0.068,0.037l0.123-0.002l0.18-0.004l0.159,0.075l0.128,0.153
			l0.131,0.262l0.003,0.117l-0.076,0.1l-0.232,0.083l-0.271,0.005l-0.314-0.043l-0.236-0.023l-0.135,0.031l-0.133,0.071l-0.144,0.12
			l-0.308,0.314l-0.326,0.377l-0.108,0.149l-0.009,0.106l0.025,0.107l0.068,0.076l0.183,0.055l0.225,0.025l0.272,0.082l0.126,0.086
			l0.093,0.125l0.038,0.156l-0.092,0.344l-0.198,0.59l-0.132,0.54l-0.107,0.599l-0.098,0.256l-0.23,0.201l-0.155,0.041l-0.146,0.023
			l-0.043,0.078l-0.087,0.129l-0.124,0.385l-0.117,0.246l-0.106,0.148l-0.232,0.133l-0.199,0.082l-0.287,0.201l-0.124,0.203
			l-0.043,0.026l-0.054,0.079v0.176l-0.005,0.109l-0.044,0.05l-0.062,0.058l-0.102,0.024l-0.077,0.041L10.7,41.74l-0.054,0.079
			l-0.072,0.122l-0.145,0.235l-0.176,0.178l-0.208,0.314l-0.147,0.174l-0.188,0.258l-0.42,0.593L8.969,44.15l-0.104,0.062
			l-0.108-0.011l-0.057-0.053l-0.115-0.033L8.48,44.162L8.41,44.24l-0.112,0.092L8.199,44.46l-0.003,0.073l-0.021,0.072l0.038,0.089
			l0.098,0.048l0.058,0.074l0.02,0.079l0.09,0.056l0.134,0.021l0.065,0.045l-0.003,0.065l0.011,0.14L8.662,45.39l-0.057,0.123
			l-0.048,0.114l-0.031,0.152l-0.013,0.087l-0.039,0.123l-0.078,0.062l-0.13,0.084l-0.077,0.033l-0.044,0.064L8.1,46.31"/>
	</g>
</g>
<g id="Layer_1">
</g>
</svg>
