<?xml version="1.0" encoding="iso-8859-1"?>
<!-- Generator: Adobe Illustrator 16.0.4, SVG Export Plug-In . SVG Version: 6.00 Build 0)  -->
<!DOCTYPE svg PUBLIC "-//W3C//DTD SVG 1.1//EN" "http://www.w3.org/Graphics/SVG/1.1/DTD/svg11.dtd">
<svg version="1.1" xmlns="http://www.w3.org/2000/svg" xmlns:xlink="http://www.w3.org/1999/xlink" x="0px" y="0px" width="5.745px"
	 height="4.577px" viewBox="0 0 5.745 4.577" style="enable-background:new 0 0 5.745 4.577;" xml:space="preserve">
<g id="Layer_44">
	<g id="Layer_49">
		<path id="Thatta" style="fill:#CCCCCC;stroke:#FFFFFF;stroke-width:1.07;" d="M3.28,1.277
			L3.28,1.277L2.407,1.272L2.104,0.814l-0.236-0.2L1.665,0.543L1.467,0.56L1.037,0.73L0.579,1.153L0.556,1.275L0.724,1.66
			L0.705,1.904l0.286,0.477L0.882,2.731l0.04,0.061l0.071,0.109L1.406,2.8l0.147-0.102l0.321,0.189l0.47-0.58L2.571,2.29l0.07,0.094
			l-0.19,0.448l0.104,0.215L2.81,3.245l0.51,0.19l0.166,0.106l0.172,0.271l0.417,0.212l0.387-0.048l0.305-0.201l0.323-0.444
			l0.103-0.55L5.137,2.645L4.943,2.548L4.626,1.95L4.479,1.8L4.161,1.697l-0.07-0.328L3.965,1.313L3.53,1.354L3.28,1.277"/>
	</g>
</g>
<g id="Layer_1">
</g>
</svg>
