<?xml version="1.0" encoding="utf-8"?>
<!-- Generator: Adobe Illustrator 16.0.4, SVG Export Plug-In . SVG Version: 6.00 Build 0)  -->
<!DOCTYPE svg PUBLIC "-//W3C//DTD SVG 1.1//EN" "http://www.w3.org/Graphics/SVG/1.1/DTD/svg11.dtd">
<svg version="1.1" id="Layer_1" xmlns="http://www.w3.org/2000/svg" xmlns:xlink="http://www.w3.org/1999/xlink" x="0px" y="0px"
	 width="301.169px" height="220.507px" viewBox="-136.918 -99.982 301.169 220.507"
	 style="enable-background:new -136.918 -99.982 301.169 220.507;" xml:space="preserve">
<g id="Layer_69">
	<path id="Kotli" style="fill:#CCCCCC;stroke:#FFFFFF;stroke-width:1.15;" d="M71.531,105.111L71.531,105.111l0.433-0.043h0.455
		l0.65-0.054l1.233-0.281l1.146-0.498l0.747-0.434l0.455-0.411l0.228-0.433v-0.498l0.497-0.498v-0.66v-0.271l0.109-0.347l0.054-0.26
		l-0.163-0.411l-0.228-0.087l-0.356-0.26l-0.228-0.411l-0.119-0.293l-0.087-0.367l-0.248-0.184L76.564,98l0.498-0.519l0.227-0.412
		l0.412-0.293l0.228-0.291l0.335-0.087l1.062,0.335l0.455,0.271l0.389,0.228l0.455,0.292l0.346,0.325l0.563,0.043l0.639-0.086
		l0.248-0.324l0.206-0.423l0.401-0.39l-0.108-0.39l-0.108-0.228v-0.541l0.498-0.043l0.26-0.141l0.237-0.412l0.228-0.228l0.682-0.378
		l0.249-0.185l0.531-0.281l0.454-0.216l0.628-0.25l0.433-0.184l0.499-0.087l0.454-0.162l0.605-0.206l0.542-0.227l0.509-0.228
		l0.4-0.293l0.541-0.249l0.151-0.281v-0.476v-0.368l-0.064-0.812l0.237-0.64l0.499-0.335l0.551-0.347h0.455l0.639,0.054l0.563,0.336
		l0.237,0.25l0.585,0.551l0.206,0.336l0.227,0.368l0.454,0.477l0.174,0.324v0.26h0.238h0.336l0.443-0.086l0.4-0.099l0.553-0.454
		l0.79-0.292h0.509l0.551,0.087l0.347,0.087h0.152h0.941l0.4-0.131l0.228-0.347l0.064-0.411l0.693-0.303h0.455h0.356h0.39
		l0.455-0.281l0.552-0.086l0.39-0.25l0.606-0.184l0.443-0.087h0.552l0.4,0.26h0.401l0.649-0.044h0.52h0.281l0.498-0.259l0.692-0.13
		l1.213,0.433l0.628,0.238l0.562,0.173h0.4l0.151-0.281l0.227-0.13l-0.063-0.26V88.27l0.063-0.509l0.174-0.217l0.391-0.217
		l0.692-0.043l0.454-0.13l0.434-0.347l0.228-0.639l0.27-0.52l0.412-0.498l0.39-0.248l0.194-0.239l0.26-0.086l0.39-0.174l0.238-0.184
		l0.336-0.248l0.228-0.25l0.735-0.552l0.217-0.325l0.325-0.216l0.303-0.26l0.151-0.261l0.238-0.324h0.238h0.347l0.291,0.087
		l0.249,0.237h0.357l0.228-0.324l0.141-0.335l0.087-0.434l0.206-0.292l0.249-0.043h0.454l0.443-0.185l0.281-0.271h0.368h0.455
		l0.454,0.043l0.336,0.108l0.228,0.249l0.281-0.021l0.044-0.249l0.4-0.228l0.228,0.044l0.627,0.054h0.4l0.444-0.054l0.281-0.336
		l0.228-0.325l0.205-0.346l0.391-0.346l0.399-0.282l0.553-0.217l0.39-0.26l0.357-0.249l0.768-0.228l0.228-0.27l0.098-0.347
		l0.13-0.379l0.433-0.347l0.239-0.238l0.335-0.347l0.605-0.313l0.444-0.303l0.151-0.228l0.454-0.39l0.293-0.433l0.271-0.325
		l0.227-0.26l0.271-0.173l0.075-0.173l-0.01-0.39L136,72.391l0.228-0.218l0.346-0.26l0.401-0.39l0.497-0.216l0.606-0.044h0.347
		h0.443l0.38-0.087l0.627-0.335l0.552-0.336l0.336-0.216l0.444-0.347l0.454-0.26l0.271-0.237l0.238-0.434v-0.325l-0.064-0.173
		l-0.293-0.281l-0.054-0.228l-0.043-0.184V67.41l0.097-0.087v-0.497l-0.228-0.141l-0.324-0.206l0.043-0.477l0.671-0.183l0.347-0.163
		h0.562l0.368-0.043h0.455l0.238-0.108l0.324-0.065l0.455-0.185l0.628-0.248l0.368-0.228l0.281-0.292l0.498-0.238l0.237-0.249
		l0.055-0.454l0.163-0.563l0.227-0.509l0.098-0.812v-0.291l-0.043-0.325l-0.347-0.347l-0.347-0.075l-0.216-0.434v-0.596v-0.259
		l0.497-0.672l0.509-0.476V57.69v-0.477l0.044-0.336l0.228-0.422l0.063-0.509v-0.465v-0.336l0.163-0.552l0.162-0.347l0.12-0.411
		l0.162-0.433l0.042-0.13v-0.368l0.174-0.52l0.238-0.466l0.237-0.379l0.228-0.304l0.347-0.324l0.054-0.389V50.06v-0.39l0.152-0.358
		l0.238-0.346l0.217-0.433l0.433-0.087h0.292l0.228,0.13l0.238,0.173l0.216,0.293h0.281h0.499h0.281l0.411-0.033l0.227-0.173
		l0.065-0.228l0.39-0.509l0.098-0.432v-0.239l0.237-0.509l0.065-1.223l0.152-0.303l0.087-0.423l0.356-0.466l0.443-0.628l0.347-0.259
		l0.238-0.412l0.292-0.303l0.498-1.115l0.097-0.628v-1.18v-0.562v-0.553v-0.248v-0.606l0.044-0.758v-0.596l0.174-0.465l0.064-0.585
		l0.054-0.692v-0.639l0.228-0.596l-0.043-0.758v-0.465l-0.108-0.509l-0.238-0.39l-0.194-0.217l-0.509-0.173l-0.552-0.087
		l-0.444-0.237l-0.639-0.25l-0.379-0.162l-0.39-0.141l-0.498-0.13l-0.4-0.141l-0.4-0.282l-0.163-0.324V28.93v-0.497V28.14v-0.844
		v-0.422l0.055-0.466l0.205-0.563v-0.497l-0.043-0.098l0.152-0.336v-0.497l0.075-0.347l-0.248-0.769v-0.584v-0.596v-0.649
		l-0.305-0.368l-0.237-0.347l-0.13-0.086l-0.379-0.368l-0.054-0.39v-0.478v-0.367v-0.292l0.216-0.336v-0.227l0.336-0.455
		l0.098-0.336l0.108-0.346l0.79-0.434v-0.325l0.227-0.216l0.195-0.293l0.313-0.178l0.293-0.499l0.205-0.254l0.292-0.091l0.434-0.033
		l0.108-0.391l-0.217-0.551l-0.238-0.287l-0.194-0.509l-0.26-0.26l-0.152-0.33v-0.341l-0.151-0.347l-0.238-0.33l-0.15-0.335
		l0.063-0.299l0.152-0.389l0.228-0.466l0.054-0.552V9.024l0.39-0.752l0.26-0.255l0.238-0.422L155.106,7V6.41l-0.228-0.931
		l-0.065-0.644l-0.324-0.379l0.346-0.996l1.678-0.509l1.829-0.763l0.26-0.455l0.065-1.023V0.268v-0.466l-0.238-0.286l-0.324-0.341
		l-0.455-0.423l-0.173-0.222l-0.455-0.211l-0.237-0.336l-0.228-0.552l-0.292-0.298l-0.249-0.379l-0.228-0.211l-0.391-0.162
		l-0.605-0.304l-0.389-0.254l-0.206-0.211l-0.401-0.255l-0.325-0.211l-0.627-0.298l-0.606-0.124l-0.628-0.162l-0.26-0.136
		l-0.519-0.33l-0.38-0.379l-0.4-0.39l-0.237-0.509v-0.211l-0.661-0.509l-0.335-0.422l-0.52-0.466l-0.39-0.254l-0.553-0.255
		l-0.682-0.254l-1.331-0.633l-0.391-0.374l-0.4-0.466l-0.399-0.514l-0.055-0.433l0.217-0.498v-0.764l-0.562-0.601l-0.347-0.287
		l-0.206-0.509l-0.292-0.465l-0.217-0.898l-0.4-0.645l-0.174-0.373l-0.346-0.347l-0.044-0.633l0.142-0.677l0.151-0.509v-0.466
		l-0.065-0.584l-0.228-0.26V-21.5v-0.509v-0.509v-0.423l0.162,0.169v-0.466l-0.063-0.39v-0.422l-0.099-0.509l-0.054-0.336v-0.417
		l-0.151-0.347l-0.162-0.465l-0.184-0.298l-0.239-0.346l-0.194-0.331l-0.152-0.211l-0.204-0.211v-0.254v-0.602l-0.044-0.341
		l-0.055-0.498l-0.281-0.254l-0.303-0.433l-0.313-0.336l-0.553-0.254l-0.628-0.434l-0.562-0.33l-0.605-0.379l-0.239-0.173
		l-0.216-0.217v-0.384v-0.287v-0.515l-0.108-0.33l-0.185-0.39l-0.227-0.298l-0.336-0.298l-0.39-0.167l-0.227-0.125l-0.228-0.173
		l-0.271-0.211l-0.237-0.287l-0.347-0.26l-0.228-0.341l-0.228-0.254l-0.693-0.336l-0.486-0.162l-0.552-0.093l-0.357-0.129
		l-0.227-0.033l-0.683-0.092l-0.228-0.211l-0.411-0.342l-0.39-0.254l-1.19-0.379h-0.39l-0.26-0.287l-0.238-0.346v-0.341l-0.26-0.168
		l-0.498-0.087l-0.303-0.092l-0.693-0.044l-0.455-0.129l-0.324-0.168l-0.39-0.255l-0.692-0.59l-0.411-0.254l-0.391-0.211
		l-0.454-0.341l-0.346-0.379l-0.499-0.391l-0.497-0.465l-0.748-0.417l-0.551-0.336l-0.499-0.422l-0.497-0.509l-1.062-0.119
		l-0.573,0.174l-0.769,0.303l-0.693,0.298l-0.691,0.373h-0.79l-1.008-0.249l-0.736-0.378l-0.4-0.391l-0.356-0.509l-0.368-0.465
		l-0.281-0.433l-0.281-0.466l-0.455-0.255l-0.39-0.211l-0.541-0.211l-0.391-0.509l-0.303-0.433l-0.605-0.379l-0.293-0.13
		l-0.454-0.39l-0.553-0.373l-0.844-0.434h-0.238l-0.649,0.162l-0.487,0.223l-0.454,0.303l-0.553,0.33l-0.671-0.075l-0.822-0.255
		l-0.802-0.336h-0.237h-0.347l-0.628,0.168l-0.194,0.043l-0.293,0.179L99.5-48.912l-0.303,0.124l-0.347,0.043h-0.303l-0.454,0.125
		l-0.455,0.211l-0.562,0.341l-0.628,0.422l-0.336,0.341l-0.107,0.515l-0.206,0.498l-0.455,0.168l-0.335,0.384l-0.747,0.255
		l-0.368,0.254h-0.455h-0.39h-0.562h-0.39l-1.19-0.087h-0.4l-0.661-0.075h-0.389l-0.748-0.081l-0.649-0.087l-0.682-0.087
		l-0.455-0.124l-0.616-0.033h-0.639l-0.454-0.135l-0.304-0.222l-0.346-0.417l-0.218-0.515l-0.216-0.384l-0.238-0.379l-0.237-0.298
		l-0.206-0.39l-0.228-0.379l-0.228-0.552l-0.206-0.466l-0.237-0.633l-0.151-0.466l-0.239-0.676l-0.216-0.298l-0.411-0.763
		l-0.281-0.558L81.035-53.8l-0.237-0.298l-0.325-0.379l-0.324-0.341l-0.412-0.465l-0.411,0.129l-0.26,0.136l-0.228,0.2l-0.53,0.309
		h-0.628l-0.281,0.232l-0.649,0.168l-0.412,0.232l-0.454,0.13L75.2-53.389l-0.227,0.232h-0.605h-0.261l-0.714-0.254L73.198-53.6
		l-0.228-0.319L72.744-54.2l-0.239-0.13l-0.303-0.455l-0.541-0.455l-0.26-0.308l-0.379-0.168l-0.325-0.064l-0.313-0.136
		l-0.303-0.098l-0.379-0.06l-0.466-0.032l-0.325-0.162l-0.227-0.038l-0.346-0.098l-0.228-0.055l-0.26-0.135l-0.238-0.189
		l-0.293-0.13l-0.249-0.135l-0.39-0.232l-0.26-0.157l-0.649-0.255l-0.292-0.184h-0.205h-0.293l-0.303-0.104l-0.249-0.064
		l-0.238-0.103l-0.238-0.087l-0.26-0.136l-0.195-0.228l-0.205-0.167l-0.249-0.255l-0.259-0.157l-0.239-0.2l-0.228-0.254
		l-0.227-0.232l-0.336-0.287l-0.228-0.222l-0.573-0.509l-0.336-0.39h-0.41l-0.196,0.097l-0.216,0.157l-0.174,0.098l-0.237,0.324
		l-0.228,0.223h-0.227l-0.293-0.093h-0.661L57.33-60.17l-0.282,0.119l-0.27,0.135l-0.336,0.131l-0.227,0.199h-0.38h-0.238
		l-0.54-0.054l-0.478-0.135l-0.324-0.131l-0.228-0.254l-0.313-0.2l-0.217-0.325l-0.195-0.162l-0.162-0.222l-0.378-0.834
		l-0.152-0.352l-0.075-0.2l-0.206-0.189L52.123-63l-0.206-0.163l-0.216-0.454l-0.119-0.189l-0.228-0.39l-0.129-0.201l-0.195-0.318
		l-0.194-0.244l-0.239-0.168l-0.281-0.032l-0.194,0.136l-0.271,0.194l-0.228,0.103l-0.335,0.255l-0.335,0.287l-0.217,0.2h-0.313
		l-0.358,0.032l-0.41,0.103l-0.228,0.098l-0.683,0.125l-0.162,0.064l-0.119,0.232v0.125v0.097v0.168v0.152v0.232l-0.043,0.136
		l-0.064,0.135l-0.162,0.119l-0.056,0.168l-0.15,0.188l-0.108,0.195l-0.238,0.222h-0.216l-0.574-0.032l-0.314-0.098l-0.27-0.021
		l-0.38-0.021l-0.26-0.038l-0.237-0.064l-0.606-0.098l-0.422-0.032l-0.38-0.136l-0.237-0.087l-0.238-0.199l-0.087-0.093
		l-0.194-0.162l-0.228-0.189l-0.293-0.168L40.4-62.989l-0.26-0.131l-0.194-0.064h-0.261l-0.324,0.032l-0.227,0.032l-0.163,0.131
		l-0.227,0.188l-0.228,0.223l-0.347,0.2l-0.26,0.135l-0.152,0.163l-0.15,0.222l-0.087,0.135l-0.194,0.319l-0.109,0.168l-0.15,0.2
		l-0.185,0.255l-0.162,0.318l-0.108,0.423l-0.044,0.222l-0.346,0.287l-0.25,0.135l-0.162,0.055h-0.606h-0.432l-0.953,0.103
		l-0.26,0.064l-0.304,0.168l-0.237,0.152l-0.13,0.103l-0.238,0.168L32.456-58.4l-0.271,0.136l-0.379,0.032l-0.237,0.103
		l-0.477,0.287l-0.271,0.065l-0.704,0.103l-0.347,0.249l-0.454,0.135h-0.292l-0.455,0.168l-0.248,0.162l-0.26,0.038l-0.693-0.038
		H27.14l-0.249,0.038l-0.26,0.032l-0.237,0.065h-0.281h-0.455l-0.25,0.032L25.16-56.69l-0.184,0.098l-0.163,0.157l-0.195,0.168
		l-0.15,0.086h-0.131h-0.194h-0.13l-0.141-0.054l-0.185-0.124l-0.194-0.169l-0.217-0.031h-0.227v0.135l-0.163,0.2v0.184v0.168v0.104
		v0.13h-0.151l-0.151,0.021l-0.368-0.119l-0.13-0.065l-0.281-0.037l-0.228-0.033l-0.206-0.118l-0.227-0.061l-0.368,0.125l-0.185,0.2
		l-0.217,0.151l-0.194,0.238l-0.151,0.119l-0.141,0.232l-0.076,0.168l-0.238,0.151l-0.216,0.168l-0.217,0.136l-0.292,0.118
		l-0.287,0.168l-0.281,0.065h-0.276l-0.211-0.033l-0.151-0.01l-0.157-0.011l-0.01-0.125l-0.093-0.044l-0.151-0.129l-0.157-0.136
		l-0.157-0.157l-0.097-0.151l-0.044-0.098l-0.043-0.113l-0.113-0.157l-0.255-0.254l-0.179-0.244l-0.108-0.13l-0.411-0.135
		l-0.287-0.168L15-56.225l-0.232-0.032l-0.319-0.06l-0.688-0.032h-0.232l-0.303,0.032l-0.33,0.06h-0.255h-0.298l-0.292,0.097
		l-0.162,0.169l-0.2,0.199h-0.233h-0.2l-0.254-0.199h-0.325l-0.308,0.031l-0.266,0.168H9.871l-0.379,0.287l-0.033,0.13v0.135v0.233
		l0.044,0.124l0.146,0.152l0.232,0.135l0.156,0.098l0.201,0.032l0.184,0.07h0.232l0.304,0.021l0.151,0.033l0.232,0.13l0.113,0.103
		l0.076,0.157l0.055,0.098l0.037,0.135v0.119l0.098,0.232l0.136,0.124l0.032,0.131l0.119,0.135l0.124,0.189v0.13v0.2L12.1-52.203
		l-0.211,0.135l-0.07,0.055l-0.098,0.13l-0.4,0.103h-0.162l-0.238,0.098l-0.298,0.103l-0.232,0.065l-0.342,0.021H9.713H9.351
		L9.037-51.43L8.62-51.392l-0.324,0.098l-0.33,0.064l-0.357,0.125l-0.232,0.032h-0.4H6.558h-0.39H5.811H5.183L4.859-51.04
		L4.54-50.904l-0.287,0.119L4.02-50.617l-0.244,0.135l-0.232,0.098l-0.39,0.135l-0.232,0.098L2.39-50.017l-0.378,0.032l-0.357,0.065
		l-0.628,0.021l-0.379,0.032L0.307-49.73l-0.222,0.065h-0.666l-0.232-0.065l-0.223-0.064l-0.292-0.038l-0.298-0.086l-0.688-0.136
		l-0.167-0.032h-0.396l-0.287-0.032l-0.199-0.131l-0.314-0.124l-0.276-0.136l-0.043-0.228l-0.114-0.102l-0.031-0.168v-0.244
		l0.102-0.254l0.033-0.233v-0.254l-0.044-0.39l-0.167-0.232l-0.222-0.276l-0.211-0.287l-0.276-0.287l-0.433-0.281l-0.38-0.162
		l-0.319-0.168l-0.411-0.157l-0.498-0.162l-0.318-0.156l-0.455-0.104l-0.547-0.217l-0.232-0.103l-0.396-0.097l-0.281-0.093
		l-0.341-0.232l-0.53-0.021l-0.623,0.189l-0.687-0.168l-0.423-0.119l-0.275-0.168l-0.487-0.287l-0.232-0.254l-0.233-0.189
		l-0.254-0.135l-0.232-0.152l-0.282-0.292l-0.162-0.216l-0.546-0.19l-0.276-0.254l-0.287-0.2l-0.266-0.222l-0.324-0.157L-16-58.368
		l-0.2-0.162l-0.255-0.092l-0.562-0.162l-0.504-0.038l-0.243-0.032l-0.53-0.185l-0.232-0.06l-0.319-0.097l-0.336-0.065l-0.265-0.136
		l-0.233-0.097l-0.232-0.189l-0.287-0.223l-0.168-0.232l-0.098-0.255l-0.081-0.389l-0.13-0.255l-0.168-0.319l-0.222-0.168
		l-0.232-0.092h-0.466l-0.211-0.195l-0.309-0.092l-0.454-0.2l-0.233-0.162l-0.275-0.189l-0.249-0.232l-0.206-0.125l-0.292-0.157
		l-0.162-0.097l-0.136-0.033l-0.232-0.232l-0.124-0.103h-0.287l-0.466,0.168l-0.232,0.103l-0.232,0.13l-0.287,0.136l-0.232,0.2
		l-0.255,0.184l-0.52,0.39l-0.26,0.255l-0.217,0.2l-0.281,0.254l-0.162,0.2l-0.292,0.189l-0.174,0.222l-0.189,0.13l-0.411,0.038
		h-0.53h-0.244l-0.356,0.065l-0.098,0.254v0.255v0.189l-0.092,0.232l-0.076,0.189l-0.157,0.287l-0.33,0.032h-0.335h-0.266
		l-0.308-0.032l-0.423-0.065l-0.4-0.135l-0.319-0.119l-0.4-0.104l-0.785-0.384l-0.313-0.2l-0.108-0.027l-0.562-0.249l-0.547-0.189
		l-0.319-0.168l-0.266-0.167l-0.211-0.223l-0.275-0.13l-0.314-0.156l-0.374-0.255l-0.313-0.2l-0.362-0.168l-0.222-0.118
		l-0.357-0.157l-0.374-0.098l-0.703-0.357l-0.309-0.156l-0.373-0.195l-0.466-0.168l-0.222-0.064l-0.314-0.093l-0.308-0.162
		l-0.244-0.189l-0.454-0.254l-0.314-0.07l-0.486-0.189l-0.396-0.033l-0.282-0.064l-0.416-0.087l-0.243-0.135h-0.634h-0.313h-0.352
		h-0.18l-0.222,0.064l-0.243,0.07l-0.141,0.195l-0.179,0.135l-0.146,0.287v0.357l0.266,0.39l0.156,0.254v0.13v0.325v0.243v0.255
		l-0.031,0.319l-0.114,0.168l-0.087,0.243l-0.146,0.255l-0.108,0.254l-0.211,0.356l-0.211,0.423v0.406v0.324v0.287l0.113,0.286
		l0.064,0.32l-0.103,0.443l0.06,0.168l0.087,0.2l0.232,0.286l0.254,0.255l0.498,0.232l-0.232,0.168l-0.222,0.054l-0.443,0.233
		l-0.309,0.325l-0.108,0.254v0.254l-0.222,0.287l-0.223,0.422v0.325v0.249l-0.222,0.26l-0.135,0.232l-0.033,0.287l-0.113,0.13
		l-0.087,0.292l-0.098,0.255l-0.07,0.319l-0.086,0.324l-0.114,0.255l-0.254,0.405l-0.119,0.168l-0.232,0.39l-0.146,0.244
		l-0.309,0.318v0.255l0.087,0.26l0.124,0.254l0.119,0.201l0.081,0.254l0.174,0.162l0.232,0.293l0.081,0.184v0.232v0.223v0.254
		l-0.092,0.2v0.189l-0.087,0.189l-0.021,0.135l-0.2,0.195l-0.233,0.125l-0.222,0.2l-0.222,0.097l-0.2,0.092h-0.189l-0.254-0.026
		h-0.466h-0.254l-0.309-0.098l-0.255-0.13l-0.232-0.07h-0.368l-0.319-0.087l-0.298-0.103l-0.189-0.13l-0.243-0.032l-0.2-0.104
		l-0.212-0.064l-0.275-0.222l-0.454-0.255l-0.168-0.064l-0.189-0.157l-0.108-0.2l-0.124-0.135l-0.211-0.163l-0.152-0.124
		l-0.222-0.168l-0.168-0.184l-0.2-0.201l-0.179-0.189l-0.151-0.232l-0.314-0.189l-0.222-0.2l-0.573-0.384l-0.293-0.189l-0.243-0.168
		l-0.265-0.189l-0.244-0.13l-0.222-0.103l-0.244-0.098l-0.2-0.032l-0.297-0.189l-0.309-0.168l-0.255-0.064l-0.2-0.136l-0.232-0.222
		l-0.081-0.12l-0.173-0.064v-0.103l-0.157-0.233l-0.087-0.151l-0.124-0.135l-0.098-0.189l-0.081-0.319l-0.119-0.189l-0.082-0.2
		l-0.086-0.222l-0.043-0.357l-0.125-0.255l-0.032-0.232l-0.13-0.217l-0.168-0.2l-0.086-0.2l-0.125-0.157l-0.125-0.254l-0.075-0.168
		l-0.179-0.168l-0.243-0.151l-0.211-0.135l-0.233-0.222l-0.162-0.233l-0.222-0.2l-0.292-0.216l-0.233-0.125l-0.173-0.136
		l-0.125-0.064l-0.032-0.098l-0.168-0.092l-0.286-0.233l-0.168-0.188l-0.255-0.287l-0.2-0.233l-0.173-0.167l-0.113-0.13
		l-0.211-0.157l-0.212-0.255l-0.222-0.232l-0.185-0.222l-0.037-0.287l-0.174-0.232l-0.243-0.255l-0.189-0.188l-0.222-0.136
		l-0.222-0.13l-0.222-0.136l-0.266-0.308l-0.222-0.2l-0.222-0.201l-0.266-0.119l-0.271-0.199l-0.363-0.255l-0.232-0.222
		l-0.232-0.232l-0.232-0.19l-0.266-0.232l-0.266-0.189l-0.222-0.13l-0.243-0.103l-0.238-0.087l-0.395-0.038l-0.244-0.064
		l-0.368-0.032l-0.309-0.033h-0.688l-0.222-0.064l-0.124-0.124l-0.044-0.2l0.092-0.32l0.044-0.254l0.032-0.189l0.033-0.254v-0.233
		v-0.2v-0.222l-0.044-0.233l-0.113-0.254v-0.275l-0.233-0.325l-0.151-0.287l-0.179-0.276l-0.168-0.199l-0.188-0.169l-0.233-0.222
		l-0.162-0.189l-0.168-0.194l-0.222-0.2l-0.2-0.255l-0.13-0.124l-0.157-0.287l-0.179-0.189l-0.211-0.232l-0.232-0.319l-0.119-0.222
		l-0.2-0.2l-0.244-0.157h-0.222h-0.211l-0.179,0.055l-0.222,0.135l-0.222,0.098l-0.287,0.2l-0.2,0.156l-0.108,0.168l-0.081,0.13
		l-0.255,0.222l-0.043,0.136l-0.156,0.064h-0.244l-0.189-0.031h-0.298l-0.287-0.022l-0.243-0.032l-0.243-0.032l-0.168-0.07
		l-0.232-0.233l-0.179-0.162l-0.189-0.281l-0.266-0.255l-0.075-0.254l-0.157-0.309v-0.168l-0.13-0.254l-0.049-0.222l-0.108-0.189
		l-0.168-0.319l-0.064-0.255l-0.108-0.136l-0.281-0.286l-0.298-0.222l-0.287-0.201l-0.324-0.188l-0.255-0.163l-0.2-0.124
		l-0.243-0.136l-0.33-0.13l-0.276-0.232l-0.243-0.157l-0.244-0.151l-0.243-0.168l-0.222-0.103h-0.304l-0.151,0.103l-0.303,0.384
		l-0.076,0.136l-0.113,0.136l-0.13,0.254l-0.087,0.152l-0.124,0.135l-0.044,0.098l-0.113,0.167l-0.222,0.201l-0.223,0.2
		l-0.173,0.222l-0.379,0.13h-0.232l-0.065-0.032l-0.243-0.022l-0.2-0.13l-0.254-0.188l-0.168-0.033l-0.021-0.07l-0.136-0.065
		l-0.173-0.135l-0.049-0.087l-0.076-0.167l-0.232-0.233l-0.179-0.118l-0.2-0.157l-0.243-0.13h-0.152l-0.243,0.064l-0.135,0.119
		l-0.244,0.2l-0.124,0.189l-0.087,0.136l-0.021,0.097l-0.125,0.104h0.157h-0.168h-0.287l-0.222-0.07l-0.097-0.065l-0.223-0.124
		l-0.081-0.162l-0.098-0.168l-0.275-0.255l-0.212-0.189h-0.167l-0.287-0.064l-0.319-0.071l-0.26-0.064l-0.33-0.097l-0.266-0.157
		l-0.178-0.087l-0.32-0.07l-0.146-0.064l-0.108-0.098l-0.092-0.103l-0.108-0.098l-0.146-0.06l-0.075-0.065l-0.232-0.098
		l-0.255-0.135l-0.168-0.119l-0.211-0.135l-0.135-0.12l-0.151-0.167l-0.082-0.104l-0.162-0.118l-0.168-0.098l-0.254-0.136
		l-0.125-0.103l-0.141-0.087l-0.232-0.168l-0.136-0.129l-0.146-0.104l-0.228-0.087l-0.223-0.135l-0.188-0.065l-0.266-0.118
		l-0.156-0.038l-0.201-0.021h-0.243l-0.168-0.033h-0.179h-0.309h-0.188l-0.553-0.032l-0.276-0.032l-0.335-0.033l-0.2-0.103
		l-0.309-0.162l-0.223-0.189v-0.124l-0.243-0.163l-0.168-0.168v-0.135v-0.119l0.06-0.255l0.033-0.2l0.075-0.167l0.136-0.098
		l0.141-0.157l0.179-0.168l0.124-0.119l0.087-0.103l0.232-0.2l0.233-0.319l0.232-0.244l0.232-0.232v-0.167v-0.233l-0.136-0.157
		l-0.043-0.097l-0.275-0.168l-0.168-0.13l-0.141-0.104l-0.189-0.151l-0.136-0.103l-0.141-0.054l-0.189-0.098l-0.168-0.103
		l-0.108-0.162l-0.07-0.07h-0.309h-0.107h-0.157l-0.189,0.031h-0.189l-0.087,0.071l-0.286,0.021h-0.211l-0.282-0.021l-0.308-0.032
		l-0.146-0.039l-0.119-0.097l-0.098-0.103l-0.135-0.163l-0.146-0.156l-0.043-0.157l-0.298-0.455l-0.157-0.087l-0.168-0.129
		l-0.232-0.168l-0.162-0.092l-0.233-0.163l-0.113-0.092l-0.211-0.13l-0.232-0.135l-0.2-0.13l-0.298-0.157l-0.342-0.222l-0.232-0.2
		l-0.232-0.098l-0.233-0.223l-0.059-0.07l-0.276-0.064l-0.309-0.168l-0.065-0.097l-0.378-0.223l-0.157-0.2l-0.222-0.189l-0.2-0.286
		l-0.044-0.201v-0.188v-0.32l0.081-0.676v-0.233v-0.254l-0.011-0.325v-0.287l-0.037-0.318l-0.076-0.189l-0.044-0.136l-0.135-0.097
		l-0.211-0.223l-0.032-0.168l-0.119-0.222l-0.136-0.232l-0.043-0.185l-0.124-0.324l-0.044-0.151l-0.151-0.104h-0.292h-0.423
		l-0.287-0.097l-0.275-0.021l-0.222-0.104l-0.119-0.097l-0.233-0.07l-0.113-0.022l-0.265-0.098l-0.455-0.254l-0.265-0.2
		l-0.455-0.222l-0.157-0.233l-0.141-0.199l-0.232-0.223l-0.157-0.135l-0.113-0.163l-0.309-0.2l-0.33-0.156l-0.233-0.152
		l-0.222-0.135l-0.2-0.2l-0.232-0.233l-0.866,1.429l-0.541,0.889l-4.735,3.458l-2.939,2.825l-0.688,0.622l-0.205,2.041l-0.304,2.824
		l1.554,4.855l-2.052,4.069l-0.021,0.022l-1.278,4.729l9.467,4.357l4.237,3.571l1.786,5.51l1.791,2.057l1.911,2.165l4.232,3.193
		l3.322,4.6l-1.629,4.477l-0.075,2.738l-0.076,2.381l1.439,2.36l1.543,2.495l0.562,2.814l0.454,2.306l-3.447,1.444l-2.338,0.985
		l-2.538,2.738l-1.034,1.099l-1.406,9.586l2.949,5.509l3.848,4.222l1.175,3.647l0.477,1.462l-0.114,0.232l0.645,0.081l2.56,0.309
		l0.211,0.043h0.347h0.395h0.602l0.357-0.043l0.497-0.179h0.385h0.611l0.552,0.092l0.634,0.119l0.622,0.179l0.4,0.087l0.141,0.211
		h0.233l0.611,0.303l0.275,0.163h0.276l0.287-0.163l0.232-0.048h0.26l0.33-0.087l0.233-0.076h0.156h0.244l0.384-0.135V8.749
		l-0.108-0.255l-0.064-0.179V8.24l-0.06-0.169l0.124-0.178V7.774l0.055-0.168l0.156-0.211l0.233-0.255l0.232-0.118l0.211-0.212
		l0.055-0.254v-0.26l0.188-0.163l0.212-0.124l0.232-0.179l0.2-0.205l0.174-0.092l0.178-0.076l0.233-0.093l0.286-0.173V4.949
		l-0.075-0.255l-0.054-0.303l0.389-0.087l0.66,0.211l0.515,0.179l0.428,0.162l0.455,0.093l0.557,0.076l0.574,0.167l0.281,0.222
		l0.341,0.212l0.347,0.205l0.254,0.347l0.255,0.347l0.043,0.541l0.454,0.509l0.044,0.509l0.055,0.422l0.243,0.222h0.2h0.357
		l0.4-0.043l0.232-0.033l0.341-0.178l0.4-0.255l0.276-0.167l0.222-0.087l0.211-0.136l0.341-0.032l0.4-0.043h0.542h0.676h0.58h0.497
		h0.688h0.677h0.596h0.4h0.622h0.622h0.542l0.39,0.119l0.454,0.179l0.385,0.178l0.313,0.168l0.396,0.13l0.232,0.076l0.4,0.135
		l0.379,0.168l0.243,0.043h0.542l0.4,0.087l0.232,0.168l0.276,0.379l0.676,0.52l0.455,0.319l0.319,0.347l0.524,0.33l0.331,0.254
		l0.562,0.422l0.281,0.303l0.151,0.163l0.568,0.357l0.13,0.064l0.379,0.336l0.319,0.216l0.411,0.293l0.232,0.173l0.233,0.211h0.313
		l0.255,0.168l0.509,0.298l0.384,0.254l0.336,0.249l0.243,0.174l0.688,0.422l0.232,0.254l0.444,0.212l0.454,0.346l0.33,0.173
		l0.19,0.119l0.232,0.174l0.356,0.216l0.385,0.293l0.265,0.227l0.347,0.261l0.553,0.216l0.232,0.228l0.411,0.335l0.243,0.239
		l0.255,0.26l0.265,0.259l0.282,0.379l0.298,0.281l0.318,0.336l0.233,0.347l0.514,0.368l0.233,0.303l0.232,0.304l0.287,0.356
		l0.054,0.249l0.336,0.228l0.162,0.248l0.4,0.206l0.39,0.249l0.384,0.347l0.304,0.335l0.396,0.228l0.346,0.293l0.232,0.216
		l0.606,0.293l0.347,0.173l0.232,0.162l0.33,0.249l0.455,0.292l0.324,0.38l0.401,0.346l0.232,0.367l0.509,0.455l0.454,0.606
		l0.455,0.434l0.319,0.237l0.232,0.304l0.211,0.303l0.233,0.324l0.222,0.325l0.232,0.238l0.341,0.39l0.222,0.292l0.212,0.433
		l0.243,0.347l0.211,0.293l0.39,0.541l0.287,0.52v0.411l-0.211,0.184l-0.617,0.423l-0.271,0.324l-0.33,0.324l-0.233,0.391
		l-0.33,0.52l-0.232,0.411l-0.292,0.39l-0.233,0.509l-0.232,0.379l-0.065,0.465v0.423l0.065,0.466l0.222,0.465l0.211,0.347
		l0.179,0.292l0.4,0.324l0.055,0.422l-0.103,0.434l-0.228,0.325l-0.238,0.249l-0.173,0.433l-0.06,0.379l-0.553,0.649l-0.33,0.335
		l-0.281,0.791v0.562l0.011,0.606v0.325L-46.714,46l0.055,0.454v0.38l0.179,0.552l0.232,0.39l0.33,0.422l0.79,0.293l0.617,0.162
		l0.222,0.162l0.212,0.13l0.232,0.227l0.411,0.087l0.611,0.054l0.509,0.087l0.276,0.293l0.498,0.553l0.243,0.281l0.157,0.346
		l0.103,0.325l0.298,0.844l0.098,0.476l0.179,0.325l0.054,0.347l0.232,0.26l0.347,0.325l0.232,0.335l0.396,0.173l0.558,0.249
		l0.243,0.131l0.498,0.216l0.232,0.087l0.791,0.249l0.352,0.119l0.211,0.292v0.228l-0.114,0.39l-0.395,0.39l-0.325,0.303
		l-0.454,0.325l-0.374,0.303l-0.622,0.347l-0.898,0.26l-0.573,0.249l-0.834,0.595l-0.611,0.521l-0.552,0.41l-0.232,0.434
		l0.676,0.216l0.688,0.077l0.573,0.184l0.434,0.129l0.498,0.076l0.356,0.13l0.157,0.076l0.362,0.227l0.157,0.25l0.319,0.335
		l0.4,0.249l0.233,0.173l0.399,0.303l0.374,0.239l0.4,0.347l0.39,0.367l0.4,0.346l0.385,0.239l0.346,0.216l0.688,0.249l0.563,0.391
		l0.79,0.422h0.232l1.229,0.41l0.319,0.044l0.454,0.097l0.688,0.142l0.389,0.108l0.498,0.184l0.391,0.044l0.627,0.184l-0.064,0.151
		v0.184l-0.233,0.249l-0.373,0.293l-0.4,0.26l-0.444,0.335l-0.497,0.325l-0.4,0.173l-0.379,0.304l-0.233,0.497l0.292,0.293
		l0.266,0.206l0.287,0.228l0.211,0.118l0.53,0.217l0.233,0.13l0.335,0.26l0.287,0.238l0.211,0.237l0.411,0.249l0.666,0.25
		l0.682,0.605l0.232,0.238l0.179,0.292l0.223,0.347l0.454,0.541l0.287,0.466l0.211,0.281l0.232,0.347l0.281,0.336l0.287,0.378
		l0.211,0.281l0.244,0.335l0.373,0.304l0.281,0.271l0.455,0.434l0.232,0.39l0.222,0.248l0.276,0.38l0.232,0.347l0.509,0.476
		l0.33,0.271l0.688,0.466l0.498,0.466l0.336,0.422l0.33,0.422l0.454,0.465l0.233,0.391l0.611,0.54l0.275,0.412l0.276,0.39
		l0.455,0.39l0.39,0.367l0.4,0.434l0.395,0.477l0.612,0.585l0.389,0.433l0.678,0.367l0.952,0.975l0.562,0.477l0.623,0.217
		l0.622,0.887l0.275,0.239l1.597,0.432l0.455,0.434l0.232,0.281l0.688,0.477l0.363,0.325l0.303,0.248l0.297,0.336l1.007,0.412
		l0.391,0.324l0.752,0.52l0.303,0.26l0.498,0.324l0.298,0.25l0.346,0.411l0.353,0.248l0.552,0.521l0.503,0.367l0.406,0.39
		l0.688,0.455l0.444,0.562l0.399,0.455l0.612,0.66l0.741,0.683l0.552,0.67l0.498,0.325l0.655,0.39l0.698,0.542l0.156,0.432
		l0.353,0.044l0.26,0.303l0.384,0.379l0.525,0.411L6,102.622l0.287,0.336l0.281,0.238l0.266,0.476l0.232,0.347l0.319,0.281
		l0.347,0.314l0.286,0.249l0.688,0.508l0.4,0.336l0.287,0.228l0.39,0.228l0.33,0.303l0.39,0.173l0.741,0.065l0.655,0.228
		l0.952,0.227l0.898,0.174l0.784,0.237l1.023,0.25l0.784,0.141l0.169,0.854l0.964,1.591l0.432,1.018l0.065,0.715l-0.368,0.834
		l0.2,0.368l0.926,0.562l0.433,0.79l0.498,1.006l0.151,0.455l1.895-0.228l0.682-0.15l1.147-0.044l0.238-1.592l0.574-0.692
		l0.227-0.173l0.217-0.119l0.616,0.162l0.466,0.292l0.444,0.412l0.552-0.022l0.401,0.195l0.486-0.13l0.011-0.411l0.877-0.249
		l1.31-0.606l0.39-0.639l0.314-0.682l0.682-0.639l0.356-0.747l0.239-0.498l0.691-0.639l0.434-0.79l0.303-0.346l1.364-0.228
		l1.126-0.238l0.888-0.541l0.726-0.779l0.162-0.541l0.476-0.174l0.477-1.062l0.866,0.401l0.303-1.104l0.542-1.277l0.778-1.114
		l0.931-1.062l0.888,0.39l1.148,0.347l0.682,0.281l0.952,0.455l0.704,0.39l0.497,0.336l0.52,0.292l0.596,0.498l0.574,0.552
		l0.628,0.682l0.087,0.628l-0.131,0.238l-1.407-0.076l0.184,0.412l0.727,0.703l0.865,0.779l0.822,1.018l0.671,0.433l1.181,0.683
		l1.505-0.228l1.19-0.325l1.71-0.605l0.368,0.108l0.238,0.649l0.422,1.125l-0.011,0.822l-0.174,1.343l1.862-1.493l1.981-1.646
		l1.861-1.753l0.769-0.727l0.477-0.291l0.367-0.455l1.062-0.531l0.573-0.291l0.66-0.325l0.931-0.108l1.765-1.32l1.688,0.108
		l-0.281,0.887L71.531,105.111"/>
</g>
<g id="Layer_1_1_">
</g>
</svg>
