<?xml version="1.0" encoding="utf-8"?>
<!-- Generator: Adobe Illustrator 16.0.4, SVG Export Plug-In . SVG Version: 6.00 Build 0)  -->
<!DOCTYPE svg PUBLIC "-//W3C//DTD SVG 1.1//EN" "http://www.w3.org/Graphics/SVG/1.1/DTD/svg11.dtd">
<svg version="1.1" id="Layer_1" xmlns="http://www.w3.org/2000/svg" xmlns:xlink="http://www.w3.org/1999/xlink" x="0px" y="0px"
	 width="301.224px" height="244.542px" viewBox="-134.929 -109.497 301.224 244.542"
	 style="enable-background:new -134.929 -109.497 301.224 244.542;" xml:space="preserve">
<g id="Layer_57">
	<path id="Karak" style="fill:#CCCCCC;stroke:#FFFFFF;stroke-width:1.15;" d="M-129.317-34.201L-129.317-34.201l0.202-0.038
		l0.414,0.047l1.296,0.108l1.01,0.065l1.405,0.019l2.011-0.23l0.559-0.146l1.212,0.301l1.127-0.221l0.681,0.211l1.081,0.615
		l0.239,0.193l0.488,0.517l0.386,0.319l0.249,0.268l0.108,0.54l0.568,0.23l0.949,0.155l0.521,0.413l0.597,0.319l0.761-0.253
		l0.202-0.038l0.324-0.145l0.207-0.579l0.188-0.333l0.926,0.084l0.808-0.442l0.221,0.287l0.136,0.235l0.597,0.597l0.404-0.263
		l0.488,0.033l0.456-0.244l0.7,0.272l0.319-0.099l0.23,0.192l1.25,0.099l0.075-0.174l0.606-0.108l0.954,0.319l1.057,0.268
		l0.193,0.057l0.742,0.301l0.635-0.385l0.127,0.202l0.902,0.249l0.456,0.375l0.709,0.249l0.944,0.23l0.663-0.197l-0.047-0.165
		l0.451-0.01l0.211,0.141l0.597,0.01l0.202-0.174l0.597,0.592l0.395,0.188l0.635,0.329l0.202,0.404l0.099,0.385l0.019,0.531
		l0.653,0.202l0.348-0.174l0.423,0.333l0.338,0.272l0.385,0.395l0.141,0.442l1.753,0.319l0.211-0.08l0.817-0.084l0.827-0.329
		l0.483,0.258l0.137,0.733l0.798-0.489l0.212,0.066l0.526,0.404l1.048,0.489l1.32,0.174l0.319-0.019l0.249,0.258l0.202,0.578
		l0.277,0.366l0.338,0.375l0.761,0.329l0.296,0.192l-0.489,0.423l0.268,0.268l0.917,0.174l0.366,0.126l0.479,0.47l1.231,0.395
		l0.926,0.489l0.159,0.78l-0.112,1.039l-0.395,0.639l-0.723,0.78l-0.498,0.526l-0.606,0.78l-0.413-0.028l-1.02-0.028l0.131,0.836
		l-0.094,0.644l-0.512,1.231l-0.616,0.653l-2.067,0.446l-1.066,0.192l-0.761,0.113l-0.855,0.273l-0.667,0.202l-1.001,0.371
		l-1.297,0.347l-1.898,0.433l-0.728,0.3l-0.367,1.349l-1.414,0.729l-0.733,0.53l-0.056,0.489l-0.907,0.549l-0.386,0.541l1.001-0.019
		l1.273-0.164l0.113,0.296l-0.268,0.221l-0.25,0.136l-0.77,0.329l-0.597,0.606l-0.672,0.441l-1,0.404l0.094,1.02l0.01,0.944
		l0.075,0.25l0.428,0.211l1.142,0.221l-0.174,0.578l-1.405,0.084h-0.587l-0.615,0.639l-0.738,1.132l-0.31,0.841l-0.038,0.921
		l-0.155,0.742l-0.131,0.508l-0.245-0.047l-0.183-0.193l-0.15-0.192l-0.174-0.315l-0.973,0.343l-0.883,0.456l-1.165,0.15
		l-1.973,0.07l-1.541,0.367l-2.166,0.827l-0.883,1.142l-0.24,1.246l-0.108,1.01l-0.507,1.132l-0.597,0.897l-0.24,0.883l0.489,0.77
		l0.596,0.504l0.319,0.258l0.028,0.037l0.414,0.605l0.24,0.885l0.789,0.475l0.912,0.586l0.023,0.01l-0.071,1.123l-0.93,0.846
		l-0.579,0.752l1.029,0.816l0.541,0.715l0.592,0.752l0.329,0.686l-0.038,0.535l0.047,1.062l0.239,0.846l0.221,0.752l0.282,0.77
		l0.131,0.197l0,0l0.611,0.885l0.874,1.539l0.306,1.119l0.897,1.484l1.104,1.879l0.559,0.941l0.587,0.986l1.79,1.344l1.809,1.258
		l2.551,1.654l1.597,1.504l0.973,0.883l0.507,0.121l1.1,0.217l1.269,0.16l0.874,0.104l0.254,0.02l0.597,0.074l0.385,0.057
		l0.488,0.057L-87.348,43l0.23,0.037l0.329,0.02l0.818,0.084l0.356-0.02l1.799,0.217h0.202l0.507-0.471l0.202,0.057l1.442,0.273
		l0.771,0.197l0.221,0.094l1.024,0.133l1.809,0.365l0.343,0.066l0.935,0.375l1.606,0.648l2.058,0.826l0.202,0.086l2.128,0.846
		l0.836,0.328l1.692-0.16l2.448-0.197l1.903-0.178l0.347,0.395l0.461,0.555l0.356,2.002l0.348,2l-0.648,0.988l0.08,0.506
		l0.057,0.357l0.047,1.129l0.329,2.273l0.311,1.354l0.395,1.277l1.02,1.127l0.084,0.414l0.367,0.592l1,1.006l0.211,0.254
		l0.019,0.027l0,0l0.347,0.348l0.836,0.91l0.376,0.508l0.615,0.641l0.324,0.338l0.677,0.525l0.597,0.555l0.973,1.4l0.719,1.654
		l0.789,1.502l0.597,1.561l0.268,0.602l1.396,2.049l0.319,0.602l0.422,1.174l0.973,2.227l0.578,1.287l1.076,1.852l1.062,1.775
		l0.258,0.865l1.123,2.49L-44.186,88l0.042,0.01l0.202,0.346l0.141,0.293l0.282,0.609l-0.146,1.721l-0.126,1.475l-0.343,1.871
		l-0.192,1.465l-0.08,1.447l-0.202,1.25l-0.132,0.826l-0.052,0.572l-0.333,1.381L-45.511,102l-0.79,1.27l-0.202,0.328l-0.643,0.348
		l-0.447,0.75l0.061,0.143l0,0l0.259,0.883l0.249,0.893l0.357,0.959l0.202,0.357h0.009l0.375,1.014l0.461,0.883l0.202,0.527
		l0.422,1.051l0.376,0.51l0.263,0.395l0.681,1.297l0.498,0.713h0.024l0.047,0.121l0.367,0.557l0.362,0.432l0.31,0.375l0.422,0.471
		l0.479,0.375l0.494,0.377l0.653,0.412l0.211,0.217l0.559,0.488l1.146,0.932l1.057,1.295l0.339,0.217l0.808,1.184l0.183,0.273
		l0.056,0.084l0.432,0.648l0.249,0.432l0.311,0.34l0.009,0.018l0.211,0.301l0.578,0.648l0.78,0.705l0.597,0.375l0.343,0.227
		l0.395,0.348l0.329,0.121l0.742,0.434l0.451,0.197l0.028,0.008l0.503,0.338l0.268-0.057l1,0.199l2.039-0.234l2.791-0.395
		l2.627-0.414l1.963-0.377l1.287,0.16l0.907,0.611l1.085,0.996l0.009,0.01l0.733,1.418l0.662,1.006l0.587,0.178h0.606l1.799,0.076
		l3.688-0.244l1.517-0.17l2.655-0.328l2.588-0.236l3.021,0.02l3.101,0.113l1.917-0.133l1.776-0.535l3.11-0.16l0.597-0.074
		L13,128.656l1.509-0.168l1.752,0.207l1.451,0.732l1.523,0.602l1.385-0.113l1.73-0.338l0.91-0.592l0.602-0.883l-0.348-2.209
		l0.217-1.381l0.102-0.949l-0.141-1.127l-0.131-0.902l0.281-2.219l0.789-1.258l0.301-0.621l0.197-1.146l0.104-3.053l0.037-1.438
		l0.096-1.738l0.207-1.531l0.262-1.148l1.072-1.033l0.525-1.184l0.207-1.023l0.074-1.494l0.113-2.123l0.189-1.41l0.338-1.805
		l-0.404-0.715l-0.348-0.318l-0.592-1.381l-0.197-1.23l0.252-1.684l0.104-1.832l-0.262-2.217l0.375-2.35l0,0l0.057-0.225
		l0.168-1.363l0.461-1.682l0.668-1.184l1.051-1.277l1.373-1.334l1.465-0.988l1.297-1.164l0.396-0.535l0.158-0.791l-0.328-0.508
		l0.02-1.184l0.469-1.004l1.344-2.49l0.752-1.4l1.361-1.26l1.223-0.375l1.109-0.611l0.863-0.582l1.551-0.959l1.664-1.119l0.996-0.75
		l0.535-0.461l0.535-0.188l0.723-0.301h0.01l0.602-0.076l0.912-0.121l0.723-0.143l1.701,0.086l1.795-0.141l2.086-0.471l1.805-0.395
		l0.977-0.254l0.564-0.217l0.996-0.846l0.338-0.676l0.883-1.146l1.016-0.188l1.117-0.676l0.799-0.631l0.564-0.535l0.545-0.357
		l0.32-0.602l0.693-0.693l0.697,0.338l0.76,0.592l0.254-0.029l0.197-0.225l0.197-0.227l0.281-0.449l0.207-0.734l2.256-0.564
		l0.207,0.096l0.205,0.15l0.34,0.121l0.525,0.244l0.639,0.217l0.602-0.02l0.451-0.168l0.602-0.303l0.385-0.188l0.197-0.111
		l1.006-0.34l1.09-0.318l1.551-0.451l1.127-0.271l1.438-0.395l1.814-0.48l1.635-0.365l1.598-0.461l1.99-0.584l1.561-0.572
		l1.203-0.338l0.902-0.32l1.307-0.291l1.559-0.414l1.514-0.535l0.639-0.234l1.09-0.227l-0.084,1.354l-0.234,0.846l-0.105,0.809
		l-0.178,0.949l0.283,1.812l1.014,0.471l0.639,0.395l0.281,0.254l0.207,0.178l0.244,0.17l0.564,0.281l0.715,0.395l0.996,0.471
		l0.9,0.338l1.514,0.545l0.969,0.469l1.08,0.34l1.24,0.094l3.316,0.207l1.354,0.018l0.789-0.244l0.395-0.262l0.461-0.293l0.939-0.75
		l0.705-0.557l0.564-0.449l0.742-0.648l0.609-0.48l0.039-0.018l0.572-0.488l0.592-0.49l1.24-0.873l0.602-0.422l0.668,0.732
		l0.855,0.451l0.977,0.562l1.184,0.922h0.592l0.516-0.094l0.508-0.104l0.611-0.311l0.93-0.217l1.26-0.459l0.959-0.564l1.014-0.77
		l1.316-0.715l0.498-1.277l0.807,0.395l1.006,0.281l1.41,0.15l1.146,0.264l1.164,0.639l0.678,0.562l0.658,0.414l1.41,0.207
		l0.77-0.057l1.559-0.32l0.996-0.486l0.715-0.527l0.828-0.404l1.391-0.762l0.938-0.676l0.771-0.469l0.826-0.377l1.223-0.602
		l1.004-0.676l0.951-0.912l0.807-0.93l0.518-0.846l0.611-1.73l0.705-1.051l0.035-0.979l0.049-0.826l0.311-1.719l0.469-1.072
		l0.779-1.023l0.734-0.18l1.408-0.328l0.902-0.264l0.592-0.77l-0.545-0.545l-1.072-0.395l-0.986-0.414l-0.619-0.771l-0.564-0.883
		l-1.314-1.596l-1.006-0.592l-0.217-0.688l0.02-0.939l0.18-0.752l0.158-0.713l-0.592-0.414l-1.418-0.01l-0.986,0.254l-0.969,0.414
		l-0.996,0.357l-0.855,0.281l-0.969-0.15l-1.184-0.846l0.17-0.979l-0.188-1.088l-0.451,0.693h-0.752l-0.883-0.582l-1.109-1.127
		l-0.451-0.752l-1.006-0.414l-0.686-1.221l-0.205-1.109l-0.02-0.037l-0.432-1.039l0.018-0.746l-0.535-0.705l-0.629-0.549l0.102-0.23
		l0.197-0.461l0.771-1.193l0.939-0.992l0.592-0.723l0.912-1.029l0.451-0.817l0.158-0.709l-0.018-1.203l0.451-0.578l0.949-0.935
		l0.592-0.883l0.939-0.963l1.023,0.084l0.922,0.193l0.705-0.442l0.412-0.751l0.564-1.433l1.053-1.701l-0.855-0.484l-0.639-0.498
		l0.074-0.751l-0.6-0.56l-0.705-0.385l-0.949-0.479l-0.734-0.521l-0.094-1.132l0.264-1.696v-1.729l-1.014-0.616l-0.996-0.667
		l-0.518-0.526l-0.949-1.404l-0.16-0.762l0.123-1.339l-0.377-0.597l-0.225-1.25l-0.113-0.78l-0.291-0.953L143-17.419l1.203-0.798
		l0.451-0.733l0.121-0.78l-0.639-0.738l-0.695-0.385l-1.033-0.146l-0.939,0.065l-1.072,0.503l-0.977,0.065l-0.621-0.357
		l-0.789-0.766l-0.619-0.676l-0.828-0.164l-0.854-0.084l-0.969-0.461l-0.535-0.568l-0.986-1.404l0.592-0.917l0.197-1.471
		l0.592-0.846l0.234-0.869l-0.695-1.161l0.725-0.878l0.562-0.597l0.688-1.508l-0.508-0.541l-0.451-1.296l0.629-1.034l0.414-0.653
		l0.592-0.884l0.676-0.521l0.611,0.442l0.939-0.202l1.006-0.517l1.014,0.314l1.674-1.01l0.074-0.94l0.695-1.348l0.273-0.696
		l0.592-0.798l0.902-0.479l1.23,0.606l1.006-0.315l0.732-0.512l0.602-1.203l1.738-3.453l-0.027-0.897l-0.152-0.7l-0.037-0.907
		l-0.262-1.184l-0.17-0.982l-0.047-0.69l0.178-1.193l0.602-0.945l0.039-1.142l-0.771-0.502l-0.611-0.348l-0.064-1.296l0.205-0.818
		l0.283-1.25L149.802-62l0.057-0.719l0.178-0.798l0.227-0.79l0.188-0.944l-0.207-0.808l-0.057-0.258l-0.01-0.009l-1.662-0.108
		l-1.07,0.263l-1.193,0.084l-0.744,0.531l-1.268,0.047l-1.268-0.038l-0.941,0.202l-1.184,0.751l-1.494,1.297l-0.648,0.441
		l-0.318,0.836l-0.545,0.512l-1.289-0.075l-1.455,0.211h-1.072l-0.666-0.771l-0.686-0.493l-1.354-0.305l-1.41-0.404l-1.428-0.056
		l-1.879-0.052l-0.959,0.108l-1.588-0.202l-1.193-0.733l0.996-0.817l0.902-0.164l0.629-0.315l0.518-0.634l-0.518-1.283l-0.215-1.193
		l-0.236-0.874l-0.215-0.742l-0.592-1.067l-2.773-0.484l-1.719-0.192l-1.992,0.127l-1.023,0.221l-0.846,0.193l-2.35,0.375
		l-0.996,0.249l-1.137,0.376h-1.146l-0.836-0.296l-1.316-0.799l-0.996,0.174l-1.41,0.24l-1.596,0.202l-1.918,0.131L99.804-70.8
		l-1.277-0.174l-0.602-0.658l-0.02-0.986l-0.094-1.339v-0.808l0.668-0.597L98.357-76.4l-0.414-0.695L97.4-77.904v-0.038
		l-0.189-0.709l-0.404-0.925l-0.271-0.808l-0.207-1.001l-0.234-1.705l-0.217-0.973l-0.451-0.634l0.734-0.141l1.098,0.066
		l0.441-0.568l-0.094-1.278l-1.203-0.376l-1.541-0.037l-0.742-0.301l-1.137-0.423l-1.277-0.414l-1.598-0.192l-2.236,0.019
		l-2.688,0.211l-0.977,0.145l-1.006-0.221l-0.057-0.08l-0.395-0.545l-0.018-0.79l-0.752-0.78l-0.836-0.423l-2.199,0.174
		l-2.029,0.047l-1.58-0.202l-2.076,0.075l-1.4-0.047l-0.902-0.099l-0.121-0.122l-0.893-0.019l-0.809,0.075l-0.865,0.118
		l-0.713,0.183l-0.902,0.305l-1.043,0.31l-1.006,0.23l-1.277,0.094l-1.24-0.038l-0.932-0.103l-0.723-0.146l-1.07-0.31l-0.227-1.076
		l0.283-1.231l0.158-1.598l-0.404-0.724l-1.352-0.545l-0.734,0.009l-0.996,0.113l-0.967,0.047l-0.826-0.202l-1.4-0.395l-0.828-0.113
		l-1.521,0.259l-1.4,0.375l-1.156,0.348l-1.221,0.15l-1.307,0.099l-1.107,0.146l-1.891-0.089l-1.539-0.047l-0.959-0.127
		l-1.541-0.375l-1.645-0.333l-0.762-0.212l-0.883-0.065l-1.447,0.104l-1.146,0.291l-1.221,0.179l-1.805-0.221l-1.305-0.094
		l-1.57-0.019l-1.484,0.028l-1.617,0.113l-1.277,0.155l-1.127,0.146l-0.719,0.019l-1.34,0.146l-2.193,0.169l-1.001,0.207
		l-1.809,0.132l-0.846-0.038L10.834-95l-0.836-0.117l-1.541-0.372l-1.743-0.446l-0.874-0.23l-1.287-0.479l-1.513-0.456l-1.856-0.545
		l-1.532-0.475l-1.423-0.554l-1.118-0.357l-0.874-0.395l0.634-1.423l0.451-0.568l0.714-1.222l-0.065-1.09l-1.377-1.165l-1.588,0.146
		h-0.099l-0.865,0.606l-1,0.648l-1.743,0.939L-9.5-102.63l-1.433-0.395l-1.598,0.183l1.424,1.358l0.907,0.592l0.057,1.264
		l1.047,0.827l1.409-0.146l0.978,0.687l-0.028,0.958l-0.728,1.447l-1.165,1.607l-0.686,0.747l-0.93,0.732l-1.118,0.259l-1.386,0.338
		l-1.875,0.085l-0.451-0.16l-1-0.366l-0.982-0.329l-1.193-0.141l-1.203-0.051l-1.706-0.202l-1.25-0.211l-1.095-0.24l-1.395-0.202
		l-0.859-0.046l-1.635,0.028l-1.193,0.037l-0.709-0.084l-0.202,0.122l-0.87-0.164l-1.395,0.234l-0.738,0.113l-0.799,0.202
		l-1.156,0.047l-0.991-0.174l-0.733,0.264l-0.845,0.249l-1.146,0.503l-0.864,0.179l-0.874,0.244l-0.625,0.343l-1.282-0.413
		l-0.991-0.066l-0.827,0.019l-1.184,0.183l-0.931,0.268l-0.667,0.202l-0.249,0.089l-0.442,0.136l-0.963,0.178l-1.278,0.137
		l-1.263,0.229l-1.396,0.357l-0.738,0.287l-1.405,0.282l-0.991,0.165l-1.146,0.141l-0.883,0.137l-0.818,0.174l-1.541,0.057
		l-1.404-0.268l-0.78-0.071l-1.118,0.01l-0.827,0.136l-0.94,0.137l-1.024,0.202l-1.123,0.075h-0.028l-0.771,0.019l-1.048,0.24
		l0.47,0.676l0.46,0.724l0.596,0.846l0.395,0.719l-1.396,0.55l-0.69,0.413l-0.724,0.568l-0.038,0.808l-0.193,0.935l-0.357,1.114
		l-0.606,1.386l-0.414,0.864l-0.498,0.907l-0.541,0.817l-0.634,0.954l-1.405,0.578l-0.78-0.08l-0.991-0.103l-0.682-0.057
		l-0.597,0.902l0.334,0.606l0.761,0.625l0.992,0.771l-0.442,1.174l-0.395,0.836l-0.954,0.338l-1.479-0.658l-1.146-0.277
		l-1.001-0.084l-0.855-0.155l-1.588-0.395l-1-0.282l-0.864-0.305l-0.799-0.183l-0.888-0.165l-0.893-0.193l-1.532-0.268l-0.714-0.066
		l-1.574-0.244l-1.292-0.132l-1.165-0.099l-1.738-0.065l-1.405-0.165l-1.01-0.229l-0.752-0.202l-1.865-0.588l-1.32-0.31
		l-1.165-0.229l-1.635-0.526l-1.085-0.512l-1.33-0.681l-1.076-0.386l-1.128-0.568l-1.048-0.512l-1.33-0.489l-1.047-0.366
		l-1.532-0.597l-0.817-0.375l-0.808-0.385l-1.166-0.414l-0.671-0.268l-0.442,0.883l-0.695,0.531l-1.423-0.606l-1.085-0.268
		l-1.099,0.066h-0.113l0.258,1.099l0.249,1.057l0.338,0.799l0.127,1.142l-0.587,1l-1.696,0.677l-0.615,0.451l-0.817,0.672
		l-0.724,0.432l-0.094,0.799l0.118,0.878l-0.254,0.709l0.954,0.183l1.348-0.268l1.306,0.277l-0.691,1.513l0.202,0.973l1.405,0.836
		l0.441,0.963l-0.347,0.827l-0.479,1.001l-0.503,0.953l-0.592,1.194l-0.418,1.179l0.183,0.808l0.484,1.024l0.395,0.78l0.277,1.222
		l-0.019,0.921l-0.375,0.926l-0.442,0.846l-0.634,1.48l-0.625,1.606l-0.376,0.743l-0.587,1.339l-0.329,1.461l-0.065,1.907
		l-1.607,6.052L-129.317-34.201"/>
</g>
<g id="Layer_1_1_">
</g>
</svg>
