<?xml version="1.0" encoding="utf-8"?>
<!-- Generator: Adobe Illustrator 16.0.4, SVG Export Plug-In . SVG Version: 6.00 Build 0)  -->
<!DOCTYPE svg PUBLIC "-//W3C//DTD SVG 1.1//EN" "http://www.w3.org/Graphics/SVG/1.1/DTD/svg11.dtd">
<svg version="1.1" id="Layer_1" xmlns="http://www.w3.org/2000/svg" xmlns:xlink="http://www.w3.org/1999/xlink" x="0px" y="0px"
	 width="301.077px" height="238.766px" viewBox="-108.36 -85.805 301.077 238.766"
	 style="enable-background:new -108.36 -85.805 301.077 238.766;" xml:space="preserve">
<g id="Layer_59">
	<path id="Khairpur" style="fill:#CCCCCC;stroke:#FFFFFF;stroke-width:1.15;" d="M-61.935-75.248L-61.935-75.248l0.203,0.215
		l0.192,0.269l1.669,1.939l2.581,3.26l0.362,0.612l0.066,0.5l-0.08,0.864l-0.216,0.596l-0.798,0.395l-0.522,0.5l-0.604,0.317
		l-0.818,0.197l-0.872,0.122l-0.658,0.071h-0.725l-0.851-0.062l-0.271,0.071l-0.119,0.042l-0.396,0.333l-0.451,0.619l-0.362,0.323
		l-0.505,0.262l-0.945,0.167l-0.838,0.058l-0.694-0.102l-0.509,0.054l-0.746,0.146l-0.868,0.16l-3.045,0.021l-2.749-0.109
		l-1.72-0.262l-0.562-0.299l-0.167-0.249l-0.063,0.062l-0.481,0.252l-0.662,0.272l-0.272,0.189l-0.338,0.229l-0.348,0.388
		l-0.269,0.337l-0.17,0.293l-0.119,0.429l-0.104,0.619l-0.012,0.248l0.06,0.371l0.143,0.351l0.149,0.344l0.249,0.347l0.083,0.156
		l0.229,0.464l0.363,0.36l0.244,0.391l0.146,0.313L-79-57.35l0.123,0.535l0.097,0.432l0.167,0.34l0.036,0.146l-0.05,0.364
		l-0.069,0.418l-0.077,0.378v0.354l0.017,0.234l-0.03,0.33l-0.081,0.33l-0.139,0.333l-0.23,0.283l-0.384,0.405l-0.574,0.51
		l-0.575,0.364l-0.516,0.241l-0.572,0.275l-0.75,0.351l-0.264,0.14l-0.133,0.112l-0.279,0.367l-0.492,0.508l-0.376,0.37
		l-0.353,0.249l-0.4,0.177l-0.311,0.095l-0.343,0.034l-0.395,0.03l-0.453-0.03l-0.442-0.021l-0.393,0.062l-0.368,0.071l-0.466,0.153
		l-0.386,0.262l-0.172,0.14l-0.359,0.204l-0.362,0.242l-0.173,0.2l0.323,0.436l0.112,0.361l0.207,0.441l0.195,0.623l0.027,0.541
		l0.09,0.8l0.175,0.653l0.379,0.656l0.376,0.361l0.362,0.414l0.276,0.357l0.436,0.752l0.323,0.779l0.446,0.905l0.14,0.864
		l0.199,0.749l0.286,0.405l0.366,0.507l0.891,1.021l0.841,0.837l0.362,0.517l0.275,0.497l0.425,0.378l0.655,0.47l0.619,0.347
		l0.683,0.245l0.611,0.293l0.459,0.391l0.255,0.518l0.103,0.419l-0.044,0.462l-0.003,0.027l-0.336,0.511l-0.888,0.974l-0.512,0.408
		l-0.442,0.33l-0.924,0.299l-0.805,0.279l-0.872,0.156l-1.14,0.037l-1.048-0.074l-0.269-0.021l-0.596-0.137l-0.451-0.143
		l-0.456-0.068l-0.592-0.102l-0.522-0.096l-0.335-0.033l-0.473,0.085l-1.244,0.292l-0.638,0.16l-0.808,0.378l-0.865,0.51
		l-0.641,0.361l-0.676,0.432l-1.04,0.534l-0.842,0.578l-0.457,0.276l-0.313,0.367l-0.373,0.685l-0.206,0.67l-0.101,0.603
		l-0.073,0.619l-0.092,0.31v0.445l-0.017,0.511l0.025,0.626l-0.103,0.626l-0.243,0.605l-0.604,0.861l-0.792,0.796l-0.587,0.571
		l-0.775,0.613l-0.492,0.414l-0.346,0.365l-0.296,0.428l-0.296,0.433l-0.22,0.507l-0.209,0.364l-0.126,0.436l-0.02,0.585
		l-0.021,0.531l0.041,0.363l-0.017,0.164l0.014,0.248l0.073,0.103l-0.051,0.149l0.107,0.228l0.119,0.171l0.352,0.269l0.282,0.184
		l0.08,0.133l0.038,0.218l0.109,0.023h0.187l0.206-0.067l0.373-0.15l0.172-0.102l0.216-0.185l0.31-0.271l0.153-0.115l0.116-0.075
		l0.173-0.045l0.206,0.018l0.229,0.103l0.356,0.224l0.271,0.185l0.25,0.078h0.383l0.249,0.026l0.714,0.219l0.131,0.078l0.08,0.184
		l0.129,0.271l0.109,0.245l0.303,0.219l0.271,0.18l0.191,0.136l0.349,0.072h0.272l1.226-0.112l0.272,0.003l0.236,0.062l0.15,0.071
		l0.11,0.19l0.129,0.19l0.116,0.096l0.386,0.204l0.592,0.184l0.655,0.177l0.823,0.174l0.769,0.167l1.087,0.177l0.694,0.068
		l0.34-0.062l0.216-0.071l0.092-0.092l0.121-0.467l0.073-0.245l0.092-0.071h0.177l0.212,0.059l0.272,0.115l0.972,0.517l0.687,0.364
		l0.509,0.14l0.553,0.051l0.614,0.089l0.658-0.021l1.018,0.01l0.772,0.048l0.458,0.037l0.366,0.123l0.247,0.14l0.149,0.303
		l0.192,0.49l0.09,0.188l0.136,0.221l0.111,0.136l0.258,0.167l0.262,0.194l0.31,0.156l0.216,0.214l0.187,0.174l0.063,0.385
		l-0.143,0.68l-0.083,0.334l-0.362,0.558l-0.353,0.501l-0.216,0.377l-0.044,0.194l0.06,0.092h0.25l0.116-0.089l0.131-0.044
		l0.216,0.03l0.216,0.075l0.634-0.014l0.29,0.071l0.149,0.211l0.109,0.368l0.023,0.36l-0.046,0.337l0.056,0.316l0.09,0.275
		l0.192,0.201l0.192,0.075l0.362,0.078l0.286,0.156l0.403,0.214l0.422,0.259l0.592,0.279l0.592,0.17l0.362,0.156l0.764,0.398
		l0.885,0.445l0.714,0.361l0.686,0.442l0.381,0.367l0.379,0.398l0.383,0.442l0.223,0.36l0.073,0.248l0.04,0.116l0.17,0.404
		l0.149,0.249l0.073,0.653l0.073,0.319l0.262,0.426l0.509,0.626l0.38,0.564l0.362,0.263l0.262,0.299l0.274,0.303l0.199,0.167
		l0.229,0.078l0.219,0.33l0.216,0.382l0.262,0.625l0.027,0.059l0.262,0.592l0.282,0.946l0.157,0.915l0.104,0.959l-0.077,0.896
		l-0.08,0.945l-0.203,0.909l-0.56,1.19l-0.318,0.722l-0.362,0.47l-0.386,0.51l-0.306,0.562l-0.718,0.986l-0.977,1.005l-0.745,0.599
		l-0.562,0.486l-1.307,0.585l-1.281,0.47l-0.851,0.235l-0.265,0.149l-0.286,0.316l-0.101,0.214l-0.232,0.705l-0.461,1.109
		l-0.48,1.289l-0.362,0.878l-0.245,0.544l-0.111,0.242l-0.568,0.977l-0.522,0.741l-0.362,0.541l-0.481,0.787l-0.436,0.629
		l-0.508,0.681L-78.801,37l-0.303,0.507l-0.667,0.562l-0.543,0.371l-0.389,0.139l-0.638,0.138l-0.435,0.07l-0.179,0.075l-0.02,0.071
		l0.046,0.136l0.286,0.137l0.307,0.119l0.539,0.072l0.415,0.026l0.276,0.037l0.073,0.089v0.115l-0.307,0.426l-0.412,0.766
		l-0.565,0.885l-0.219,0.337l-0.126,0.49l-0.08,0.496l-0.153,0.649l-0.069,0.565l-0.104,0.449l-0.073,0.367l-0.046,0.449
		l-0.027,1.031l-0.067,1.014l-0.156,0.674l-0.126,0.616l-0.202,0.514l-0.26,0.479l-0.036,0.357l-0.024,0.31l0.104,0.388l0.182,0.449
		l0.33,0.565l0.039,0.146l0.063,0.191l0.216,0.581l0.051,0.388l0.655,1.232l-0.216,0.731l-0.277,0.388l-0.436,0.47l-0.362,0.384
		l-0.228,0.361l-0.061,0.354l-0.085,0.63l-0.083,0.837l-0.177,0.783l-0.289,0.895l-0.073,0.259l-0.275,0.833l-0.233,0.637
		l-0.236,0.851l-0.125,0.782l-0.167,0.681l-0.178,0.552l-0.24,0.836l-0.3,0.653l-0.245,0.586l-0.073,0.602l-0.143,0.66l-0.181,0.46
		l-0.516,0.657l-0.381,0.485l-0.324,0.382l-0.056,0.166l0.011,0.619l0.029,0.946l0.017,0.207l0.053,0.511l0.104,0.653l0.003,0.32
		l0.083,0.177l0.279,0.109l0.488,0.159l1.098,0.286l1.034,0.388l1.422,0.565l0.47,0.149l0.764,0.269l0.655,0.112l1.087-0.018
		l0.934,0.072l0.898,0.17l0.654,0.152l0.974,0.231l1.051,0.225l0.774,0.253l0.215,0.149l0.344,0.467l0.186,0.265l0.366,0.003
		l0.841,0.116l0.292-0.051l0.738-0.065l0.645,0.018l0.944,0.292l0.944,0.386l0.955,0.336l0.466,0.067l0.216-0.013l0.292-0.115
		l0.544-0.105l0.393-0.015l0.449,0.024l0.956,0.251l0.955,0.185l0.968,0.081l0.877,0.188l1.409,0.474l0.427,0.155l0.255-0.006
		l0.39-0.105l0.784-0.225l0.715-0.112l1.466,0.071l1.759,0.051l0.551,0.075l0.898,0.16l1.669,0.292l1.429,0.324l0.714,0.07
		l1.108,0.201l0.98,0.228l0.779,0.283l1,0.159l0.405,0.038l1.208,0.103l1.698,0.14l1.251,0.108l0.844,0.166l0.818,0.062l0.938,0.082
		l0.805,0.013l1.087,0.116l1.233,0.153l1.672,0.181l1.439,0.074l0.572,0.093l1.291-0.025l1.063-0.054l0.672,0.041l1.12,0.074
		l1.188,0.011l0.398-0.081l0.267-0.031l1.526,0.144l1.994,0.193l0.679,0.174l0.379,0.231l0.701,0.589l0.17,0.074l0.175-0.044
		l0.436-0.3l0.19-0.115l0.146-0.027l0.172,0.017l0.23,0.082l0.585,0.351l0.797,0.453l1.007,0.36l0.655,0.344l1.167,0.707
		l0.938,0.518l1.087,0.748l0.798,0.719l0.648,0.656l0.47,0.687l0.509,0.753l0.611,1.378l0.393,1.075l0.216,1.021l0.073,0.63
		l0.163,0.433l0.349,0.652l0.255,0.694l0.393,0.511l0.645,0.653l0.499,0.639l0.516,1.103l0.18,0.711l0.073,1.27l0.077,0.478
		l-0.034,0.966l-0.23,1.078l-0.172,0.64l-0.146,0.685l-0.097,0.659l0.014,0.075l2.104-0.711l1.37-0.537l1.909-0.886l1.416-0.792
		l0.808-0.392l0.808-0.588l1.254-0.65l0.272-0.149h0.495l0.216,0.599l0.499,1.378l0.839,1.449l0.655,0.933l0.604,0.834l0.536,0.441
		L7.56,106.8l0.214,0.797l0.377,1.412l0.058,0.834l0.377,1.377l0.271,1.086v1.272l-0.216,0.641l0.216,0.683l0.499,0.242l1.087,0.085
		l1.752,0.504l0.973,0.439l0.267,0.299l1.97,3.413l1.526,3.042l1.205,2.45l0.329,0.203l1.087,0.15l2.009,0.238l2.397,0.095
		l0.538,0.092l0.216,0.204v0.438l-0.372,0.939l-0.439,1.62l-0.436,1.708l-0.063,0.592l0.063,0.354l0.326,0.201l0.538,0.201
		l0.505,0.204h0.214l0.168-0.442l0.062-0.681l0.267-0.2l0.335,0.051l0.808,0.149l0.655,0.204l0.167,0.238l-0.104,0.496l-0.708,1.331
		l-0.373,0.678l0.167,0.35l0.813,0.385l1.404,0.538l1.739,0.35l2.215,0.467h1.478l2.397,0.004l2.504-0.144l1.742-0.201l2.339-0.436
		l2.945-0.677l1.58-0.384l1.471-0.198l0.707-0.204l0.748,0.204l0.844,0.401l1.264,0.416l2.041,0.176l2.541,0.222l3.607,0.241
		l3.236,0.333l2.375,0.426l1.98,0.389l1.84,0.225l2.541,0.312l2.021,0.116l1.967-0.075l1.635-0.071l1.455,0.089l2.75,0.193
		l2.871,0.071l1.723,0.011l0.904,0.026l1.512,0.245l2.143,0.16l2.197,0.275l1.035,0.334l1.471,0.482l0.945,0.14l0.811,0.072
		l0.727-0.13l1.75-0.605l1.619-0.796l0.551-0.235l0.471-0.007l0.863,0.075l1.158,0.14l1.041,0.14l2.551-0.204l2.197-0.072
		l1.41,0.215l1.041,0.405l1.77,0.282l3.184,0.265l3.166,0.038l3.83,0.098l3.293-0.207l3.525-0.36l1.756-0.024l2.75,0.204l1.721,0.36
		l1.09,0.308l1.848,0.708l1.762,0.329l1.902,0.487l1.971,0.217l1.932,0.085l1.295,0.181l1.291,0.493l0.678,0.215l1.773,0.085
		l1.807,0.023l1.67,0.129l1.963,0.216l2.062,0.329l1.352,0.494l1.84,0.711l1.381,0.652l1.213,0.521l1.973,0.643l1.816,0.486
		l1.205,0.144l2.068,0.088l2.191,0.214l0.734,0.304l0.607,0.307l0.688,0.615l0.156,0.103l0.271-0.382l2.342-3.33l0.639-1.253
		l1.43-2.838l0.32-1.075l1.271-5.008l0.32-1.249l-0.014-0.108l-0.248-1.916l-0.572-1.96l-0.221-0.657l-0.076-1.507l-0.027-0.504
		l0.055-0.234l0.281-2.106l1.318-4.868l0.361-1.314v-0.177l-0.062-2.146l0.213-1.376l-0.123-1.309v-0.018l-0.072-2.858l-0.299-4.216
		l0.084-0.674l0.637-4.569l0.422-2.494l-0.227-1.691l-0.539-2.252l-0.619-2.238l-0.217-0.793l-0.729-2.287l-0.654-0.739
		l-0.395-0.448l-0.34-0.303l-1.15-1.052l-0.992-0.534l-0.65-0.354l-4.227-1.989l-0.414-0.201l-2.676-0.878l-3.229-0.53l-2.66,0.023
		l-1.076-0.062l-1.211,0.068l-1.051,0.055l-2.232,0.377l-1.377,0.229l-0.281,0.051l-0.252,0.045l-6.018,0.948l-3.154,0.405
		l-2.104,0.27l-1.076,0.051l-4.572,0.18l-1-0.074l-2.436-0.197l-3.443-0.695l-2.375-0.646l-2.975-1.129l-3.123-1.875l-0.197-0.112
		l-4.145-3.569l-3.104-2.232l-3.307-1.633l-1.342-0.412l-1.055-0.367l-0.844-0.299l-9.895-4.006l-0.34-0.241l-0.605-0.439
		l-1.402-0.318l-0.217-0.076l-1.463-0.595l-0.859-0.514l-2.967-1.12l-0.531-0.2l-0.986-0.402l-3.074-1.234l-0.438-0.244l-0.57-0.341
		l-1.123-1.225l-1.273-2.852l-1.646-3.692l-0.258-0.874l-0.287-0.946l0.26-2.501l0.643-3.018l0.84-4.076l0.76-4.022l0.371-6.217
		l1.354-10.293l0.023-0.149l0.008-0.03v-0.021l0.02-0.167l3.264-7.084l-0.215-0.007l-2.906-0.507l-2.541-0.731l-2.027-1.402
		l-2.266-1.977L81.32,9.085l-3.701-0.752L73.92,7.248l-3.055-1.307l-2.027-1.402L65.18,2.341l-1.914-1.064l-4.471-1.093
		l-6.777-2.058l-4.613-0.763l-2.689-0.259l-1.67,0.085l-1.668,0.082l-0.902-0.229l-1.01-0.704l-2.94-1.527l-2.822-0.725
		l-2.437-0.252l-2.059-0.034l-2.063,0.081l-1.547,0.671l-1.672,0.439l-2.191,0.2l-2.185-0.024l-2.562-0.37L14.04-6.144l-2.429-0.718
		L9.319-8.036L5.991-9.231l-6.057-3.698l-4.716-3.494L-7.716-18.4l-0.763-0.937l-0.245-0.8l0.286-2.181l0.425-2.974l0.543-2.634
		l0.388-0.459l1.286-0.337l1.818-1.368l2.365-3.188l0.335-0.51l1.38-2.113l-0.342-0.184l-0.742-0.653l-0.822-0.776l-0.559-0.636
		l-0.708-0.653l-0.306-0.486l-0.105-0.313v-0.306l0.073-0.269l0.123-0.245l0.136-0.222l0.129-0.214l0.16-0.259l0.223-0.249
		l0.362-0.599l0.756-0.762l0.617-0.66l0.282-0.507l0.146-0.385l0.442-0.463l0.107-0.278L0.02-45.277l-0.109-0.126l-0.289-0.225
		l-0.798-0.096l-1.073,0.17l-1.247,0.218l-0.881,0.072L-5.326-45.1l-1.353,0.364l-0.779,0.078l-0.395-0.14l-0.362-0.653
		l-0.167-0.385l-0.057-0.459l0.073-0.582l0.08-0.551l0.036-0.528l-0.073-0.224l-0.188-0.229l-0.276-0.174l-0.709-0.03l-1.778-0.071
		l-0.832-0.19l-0.681-0.364l-0.509-0.486l-0.363-0.657l-0.167-0.796l0.09-0.749l0.359-1.03l0.259-0.967l0.31-1.144l0.195-0.986
		l0.216-0.674l0.4-1.133l0.391-1.201l0.436-1.086l0.347-0.748l0.76-1.804l0.31-0.745l0.223-0.871l0.056-0.357l0.01-0.282
		l0.056-0.177l0.117-0.16l0.129-0.126l0.303-0.143l0.667-0.269l0.509-0.235l0.271-0.218l0.105-0.31l0.533-0.357l0.227-0.259
		l0.69-1.085l0.276-0.677l-0.009-0.178l-0.097-0.143l-0.17-0.17l-0.701-0.49l-0.226-0.286l-0.174-0.354l-0.066-0.81l-0.077-0.908
		l-0.049-1.341l0.007-0.99l0.129-1.235l-0.056-0.548l-0.077-0.115l-0.132-0.027l-0.623,0.071l-0.594,0.075l-0.842,0.136
		l-1.307,0.289l-0.625,0.072l-1.696,0.125l-0.129,0.018l-0.286-0.071l-0.491-0.055l-0.244-0.068l-0.428-0.133l-0.481-0.112
		l-0.55-0.146l-0.728-0.193l-0.794-0.109l-0.611-0.078l-0.573-0.007l-0.305,0.058l-0.33,0.075l-0.196,0.15l-0.422,0.337
		l-0.403,0.442l-0.289,0.323l-0.303,0.302l-0.447,0.586l-0.197,0.292l-0.227,0.29l-0.216,0.237l-0.216,0.14l-0.338,0.065
		l-0.376,0.054l-0.439-0.067l-0.29-0.133l-0.499-0.059l-0.592-0.139l-0.76-0.219l-0.505-0.132l-0.636-0.071l-0.667-0.167
		l-0.612-0.109l-0.609-0.221l-0.435-0.215l-0.409-0.33l-0.296-0.278l-0.449-0.545l-0.416-0.541l-0.212-0.568l-0.292-0.605
		l-0.247-0.432l-0.349-0.497l-0.279-0.558l-0.398-0.694l-0.779,0.153l-0.648,0.074l-0.555,0.024l-0.473-0.048h-0.604l-0.323-0.051
		l-0.499-0.208l-0.725-0.289l-0.774-0.351l-0.449-0.126l-0.303-0.034l-0.396,0.011l-1.96-0.385l-0.679-0.007l-0.389,0.041
		l-0.23,0.03l-0.621,0.149l-0.613,0.201l-0.735,0.34l-0.597,0.334l-0.579,0.354l-0.995,0.412l-1.123,0.442l-0.718,0.184
		l-0.509-0.037l-0.679-0.16l-1.167-0.429l-1.931-0.582l-0.818-0.126l-0.945-0.074l-0.797-0.008l-0.471,0.072l-0.72,0.275
		l-0.524,0.293l-0.41,0.363l-0.442,0.375l-0.607,0.643l-0.718,0.562l-0.509,0.316L-59.84-76.7l-0.492,0.347l-0.575,0.445
		l-0.633,0.416L-61.935-75.248"/>
</g>
<g id="Layer_1_1_">
</g>
</svg>
