<?xml version="1.0" encoding="iso-8859-1"?>
<!-- Generator: Adobe Illustrator 16.0.4, SVG Export Plug-In . SVG Version: 6.00 Build 0)  -->
<!DOCTYPE svg PUBLIC "-//W3C//DTD SVG 1.1//EN" "http://www.w3.org/Graphics/SVG/1.1/DTD/svg11.dtd">
<svg version="1.1" xmlns="http://www.w3.org/2000/svg" xmlns:xlink="http://www.w3.org/1999/xlink" x="0px" y="0px"
	 width="152.216px" height="33.855px" viewBox="0 0 152.216 33.855" style="enable-background:new 0 0 152.216 33.855;"
	 xml:space="preserve">
<g id="Layer_146">
	<g id="Layer_151">
		<path id="Gwadar" style="fill:#CCCCCC;stroke:#FFFFFF;stroke-width:1.07;" d="
			M107.337,11.392L107.337,11.392l-0.86,0.098l-0.888,0.052l-0.692-0.139l-0.548-0.352l-0.319-0.335l-0.193-0.407l-0.037-0.299
			l-0.161-0.202l-0.412-0.103l-0.28-0.037l-0.234-0.13l-0.241-0.292l-0.334-0.104l-0.94,0.055l-1.011,0.037l-1.01,0.196
			l-0.679,0.207l-0.957,0.239l-2.217,0.516l-1.912,0.505l-1.408,0.372l-0.881,0.216l-0.35,0.15l-0.217,0.284l-0.373,0.197
			L89.5,12.258l-0.574,0.228l-1.995,0.879l-1.791,0.838l-0.847,0.399l-1.344,0.626l-2.281,1.238l-1.563,0.796l-0.993,0.476
			l-0.746,0.882l-1.03,0.801l-0.399,0.153l-0.385-0.101l-0.141-0.294l0.015-0.231l0.217-0.262l0.366-0.313l0.562-0.46l0.219-0.216
			l-0.035-0.206l-0.09-0.271l-0.341-0.241l-0.162-0.2l-0.15-0.501l-0.219-0.338l-0.261-0.15l-0.739-0.041l-0.31-0.104l-0.287-0.172
			l-0.14-0.248l-0.301-0.449l-0.117-0.318l-0.239-0.222l-0.492-0.188l-1.095-0.026l-1.144-0.001l-0.866-0.094l-1.409-0.221
			l-0.771-0.176l-0.504,0.089l-0.279,0.013l-0.164-0.225l-0.265-0.22l-0.361-0.102l-0.302,0.081L65.322,13.3l-0.688-0.019
			l-1.271,0.006l-0.769-0.105l-0.365-0.192l-0.447-0.281l-0.357-0.03l-0.459-0.026l-0.555,0.092l-0.259-0.081l-0.136-0.179
			l-0.089-0.25l-0.142-0.294l-0.376-0.398l-0.807-0.843l-0.383-0.514L57.973,9.85l-0.337-0.124l-0.279,0.012l-0.538,0.087
			l-0.522,0.198l-0.616,0.259l-0.793,0.126l-0.702,0.058l-0.576,0.1l-0.427,0.084l-0.217,0.129l-0.219,0.205l-0.352,0.336
			l-0.282,0.203l-0.489,0.044l-0.317-0.047l-0.375-0.184l-0.396-0.186l-0.339-0.009l-0.554,0.062l-1.17,0.104l-1.317,0.079
			l-0.957,0.09l-0.597,0.08l-0.699,0.022l-0.804-0.06l-0.846-0.099l-0.764,0.036l-1.105,0.05l-1.146,0.047l-2.271,0.02l-0.912,0.034
			l-0.872,0.074l-0.397,0.018l-0.176,0.007l-0.804-0.076l-0.87,0.017l-0.661,0.119l-1.323,0.295l-1.28,0.316l-1.263,0.412
			l-1.262,0.395l-1.176,0.338l-0.747,0.176l-0.383,0.067l-0.879,0.346l-1.155,0.415l-0.322,0.093l-0.554,0.157l-0.642,0.217
			l-0.36,0.013l-0.147-0.023l-0.206-0.234l-0.053-0.404l-0.011-0.062l-0.026-0.148l-0.208-0.179l-0.293-0.102l-0.803-0.075
			l-0.528-0.069l-0.072-0.025l-0.096-0.035l-0.044-0.051l-0.058-0.066l0.027-0.249l0.052-0.364l0.114-0.323l0.112-0.247l0.241-0.283
			l0.24-0.265l0.366-0.185l0.553-0.084l0.341-0.051l0.193-0.072l0.11-0.15l0.091-0.248l0.006-0.23l-0.204-0.312l-0.292-0.199
			l-0.27-0.207L20.85,9.894l-0.226-0.293l-0.097-0.329l-0.079-0.213l-0.124-0.156l-0.165-0.196l-0.077-0.29l0.004-0.152l0.029-0.308
			l0.163-0.555l0.072-0.325l-0.013-0.327l-0.035-0.288l-0.246-0.333l-0.121-0.232l-0.249-0.217l-0.249-0.235l-0.145-0.157
			l-0.076-0.348l-0.051-0.501l0.032-0.422l0.015-0.146l0.208-0.364l0.031-0.278l-0.011-0.147l-0.079-0.184l-0.079-0.11l-0.125-0.104
			l-0.183-0.07l-0.337-0.004L18.46,2.679l-0.19,0.106l-0.097,0.17l-0.004,0.316l0.051,0.172l-0.005,0.328L18.12,3.868l-0.163,0.097
			L17.82,4.109l-0.11,0.17l-0.031,0.269l-0.017,0.268l-0.057,0.195L16.679,5.18l-0.273,0.254l-0.218,0.155l-0.203,0.096
			l-0.216-0.003l-0.188-0.063l-0.188-0.075l-0.309-0.052l-0.162-0.002l-0.269,0.009l-0.31-0.003l-0.188-0.062l-0.16-0.111
			l-2.238-0.755l-0.471-0.029l-0.363-0.064l-0.228-0.124L10.427,4.2L10.173,4.1L9.876,4.072L9.709,4.093L9.322,3.929L9.101,3.922
			L9.077,3.75L8.972,3.542L8.88,3.358L8.869,3.199l0.096-0.182l0.177-0.132l0.096-0.146l0.031-0.269L9.231,2.179L9.14,1.971
			L9.048,1.763L9.01,1.604l0.015-0.122L9.04,1.373l0.056-0.134l0.001-0.098L9.058,0.995L8.801,0.992L8.666,1.04l-0.27-0.039
			L8.33,0.914L7.979,0.71L7.521,1.364l-0.242,0.04l-0.6,0.102l-1.282,0.1L4.211,1.475l0.057,1.688L4.257,3.92L4.242,4.851
			l0.625,0.584l0.073,0.729L4.846,6.736L4.203,7.15L3.858,7.491L3.763,8.497L3.298,13.39l0.01,0.331l0.099,3.429l-0.113,1.809
			l-0.116,1.869l-0.362,1.49l-0.438,0.991L1.996,24l-0.27,0.488l-0.786,2.089l0.543-0.229l0.421-0.096l0.25,0.043l0.175,0.099
			l0.417,0.505l0.22,0.014l0.91-0.399l0.277-0.205l0.088-0.16l0.345,0.046l0.023,0.305l0.242,0.358l0.334-0.017l0.075-0.005
			l0.293,0.417l0.403-0.191l0.292,0.035l0.174,0.166l0.18,0.347l0.229,0.062l0.49-0.742l0.427-0.297l0.197,0.043l0.092,0.098
			L8.2,28.167l-0.014,0.096l-0.075,0.522l-0.2,0.425l-0.194,0.243l-0.19,0.073l-0.208-0.033l-0.523-0.401l-0.16,0.102l-0.003,0.134
			l0.284,0.339l0.158,0.747L7.05,30.595l-0.14,0.141L6.5,30.793l-0.192,0.13l-0.11,0.208l0.021,0.25l0.004,0.045l-0.06,0.296
			l-0.376,0.41l-0.123,0.304l0.026,0.211l0.131,0.192l0.474,0.286l0.394,0.113l0.646,0.08l0.409-0.029l0.967-0.217h0.91l0.47,0.001
			l0.41-0.087l0.181-0.11l0.074-0.407l0.133-0.283l0.585-0.761l0.005-0.181l-0.163-0.176l-0.067-0.239l0.035-0.143l0.213-0.147
			l0.422-0.125l1.102-0.118l0.132-0.007l3.335-0.163l2.413,0.146l0.125,0.008l0.792,0.095l0.914,0.251l0.479,0.06l0.255-0.118
			l0.037-0.22l-0.676-0.521l-0.002-0.541l-0.099-0.191l-0.687-0.493l-0.101-0.252l-0.045-0.114l0.122-0.588l0.168-0.397l0.472-0.397
			l1.332-0.455l1.288-0.359l0.789-0.144l0.282-0.03l1.231-0.133l0.576-0.005l1.52,0.285l0.467,0.146l0.971,0.444l0.512,0.346
			l0.114,0.121l0.302,0.318l0.17,0.271l0.287,0.865l0.016,0.544l-0.081,0.589l-0.119,0.15l-0.297,0.105l-1.229,0.16l-0.403,0.171
			l-0.119,0.149l0.038,0.105l0.152,0.077l0.064,0.032l1.895,0.296l0.836,0.041l1.536-0.275l0.412-0.15l0.13-0.121l-0.019-0.086
			l-0.226-0.12l-0.365-0.057l-0.768,0.142l-0.428-0.021l-0.295-0.294l-0.077-0.525l0.08-0.552l0.247-0.557l0.452-0.723l0.335-0.335
			l0.67-0.468l0.229-0.157l1.073-0.518l0.781-0.198l1.668-0.1l0.267-0.136l-0.028-0.087l-0.185-0.129l-0.372-0.173l-0.13-0.185
			l0.155-0.281l0.098-0.086l0.323-0.285l0.858-0.311l4.183-0.393l0.187,0.002l0.214,0.003l2.196,0.027l1.548,0.082l1.128,0.117
			l0.655,0.123l0.729,0.137l3.137,0.177l1.832,0.374l3.242,0.664l1.703,0.414l0.544,0.025l0.117-0.057l0.714-0.338l1.585-0.353
			l0.394-0.18l1.037-0.816l0.457-0.177l1.02-0.032l0.177-0.006L66,24.191l2.471,0.603l1.443,0.279l0.397,0.077l3.562,0.26
			l1.748,0.325l0.561,0.105l2.511,0.581l0.45,0.006l0.233-0.088l0.121-0.14l-0.017-0.104l-0.18-0.207l-0.022-0.201l0.379-0.292
			l-0.047-0.136l-0.356-0.2l-0.401-0.228l-0.08-0.106l-0.059-0.593L78.619,23.9l-0.229-0.284l-0.537-0.457l-0.39-0.501l0.159-0.262
			l0.226-0.135l0.474,0.464l0.342,0.117l0.14-0.081l0.19-0.318l0.055-0.175l0.152-0.495l0.179-0.29l1.549-1.188l0.385-0.179
			l0.987-0.261l1.245-0.479l0.301-0.116l1.573-0.231l1.302-0.269l1.83,0.142l0.68,0.009l0.937,0.012l0.307,0.174l1.191,0.091
			l2.047,0.714l1.047,0.261l1.947,0.327l0.591,0.166l0.68,0.055l2.487-0.081l0.506-0.018l0.646,0.083l1.275,0.325l0.13-0.081
			l-0.229-0.477l0.443-0.736l-0.024-0.154l-0.511-0.324l-0.293-0.67l-0.025-0.032l-0.43-0.566l-0.232-0.19l-0.318-0.146
			l-0.314,0.007l-0.131,0.101l-0.229,0.62l-0.169,0.252l-0.161,0.069l-0.197-0.026l-0.131-0.138l-0.113-0.721l-0.098-0.176
			l-0.256-0.144l-0.189,0.031l-0.459,0.364l-0.061-0.041l-0.009-0.034l-0.019-0.071l0.151-0.558l0.142-0.109l0.313,0.012
			l0.226,0.113l0.557,0.47l0.205,0.104l0.226-0.345l0.372-0.339l-0.018-0.077l-0.104-0.032l-0.669,0.165l-0.219-0.027l-0.164-0.082
			l-0.017-0.087l0.08-0.14l0.715-0.258l0.607-0.218l0.143-0.118l0.082-0.217l-0.104-0.462l0.02-0.189l0.238,0.065l0.19,0.188
			l0.093,0.252l-0.27,0.619l0.232,0.171l0.29,0.097l0.16-0.041l0.345-0.396l0.194-0.137l0.627,0.062l0.172-0.049l1.414-0.396
			l0.11,0.09l0.174,0.552l0.255-0.066l1.048-0.627l0.232-0.029l0.162,0.13l0.074,0.203l-0.037,0.113l-0.844,0.302l-0.203,0.163
			l-0.113,0.091l-0.032,0.238l0.229,0.495l-0.039,0.142l-0.594-0.099l-0.181,0.031l-0.586,0.416l-0.257,0.086l-0.797,0.007
			l-0.121,0.119l0.006,0.104l0.109,0.128l1.186,0.877l0.162,0.12l0.058,0.137l-0.09,0.12h-0.241l-0.662-0.206l-0.076,0.045
			l-0.059,0.141l0.001,0.648l-0.312,0.58l0.037,0.145l0.351,0.109l1.957-0.125l0.122,0.005l0.883,0.033l2.484,0.451l0.349-0.033
			l0.259-0.143l0.346-0.426l0.199,0.228l-0.455,0.596l-0.025,0.034l-0.049,0.122l0.069,0.079l1.114,0.178l3.062,1.078l0.941,0.422
			l0.555,0.25l0.479,0.314l0.496,0.555l0.248,0.06l2.146-0.122l0.298-0.093l0.301-0.159l0.365-0.567l0.262-0.218l0.47-0.152
			l1.256-0.157l0.622,0.132l1.367,0.743l1.053,0.824l0.146,0.114l0.232,0.555l0.04,0.45l-0.103,0.387l-0.205,0.308l-0.356,0.193
			l-0.53,0.13l-0.035,0.088l-0.097,0.231l0.121,0.511l0.069,0.08l0.639,0.198l0.691,0.001l0.193-0.023l1.703-0.2l0.672-0.229
			l0.604-0.347l0.167-0.202l0.046-0.104l0.099-0.225l-0.056-0.165l-0.214-0.114l-1.475-0.054l-0.031-0.01l-0.391-0.132l-0.341-0.312
			l-0.132-0.283l-0.075-0.574l0.364-1.368l0.355-0.587l0.312-0.358l0.492-0.39l0.384-0.212l0.869-0.479l1.005-0.367l0.985-0.177
			l1.574-0.036l0.205-0.086l-0.517-0.576l-0.015-0.041l-0.104-0.295l0.128-0.08l0.195,0.13l0.545,0.614l0.694,0.347l0.498,0.106
			l1.235,0.035l1.597-0.267l0.342-0.059l1.977,0.108l0.624,0.114l0.563-0.139l0.652-0.057l0.195,0.122l0.113-0.034l1.701,0.322
			l1.717,0.113l0.486,0.158l0.024-0.399l0.138-0.076l0.053,0.075l0.189-0.026l0.119,0.237l0.188-0.095l0.06,0.203l0.101,0.091
			l0.178-0.062l0.461,0.021l0.475,0.116l0.499,0.027l0.808-0.222l0.305-0.024l0.272,0.101l0.239-0.004l0.277-0.3l0.248,0.127
			l0.229,0.023l0.222-0.132l0.303-0.033l0.135-0.153l-0.059-0.301l-0.01-0.044l0.047-0.201l0.156-0.251l0.221-0.179l0.021-0.168
			l0.001-0.207l-0.219-0.22l-0.754-0.559l-0.252-0.393l-0.143-0.327l-0.07-0.458l0.074-0.457l0.073-0.327l0.06-0.772l-0.066-1.472
			l0.042-1.373l-0.066-1.438l-0.151-0.674l-0.062-0.275l-0.502-0.885l-0.433-0.459l-0.323-0.229l-0.325-0.001l-1.301,0.389
			l-2.457,0.616l-1.625,0.389l-1.697,0.325l-1.191,0.162l-1.082,0.063l-0.976,0.064l-0.938,0.13l-0.721,0.196l-0.615,0.032h-0.576
			l-0.794,0.064l-1.372,0.132l-2.163,0.309l-1.912,0.395l-2.128,0.298l-1.298,0.166l-1.19,0.101l-2.199,0.267l-1.154,0.167
			l-1.118,0.266l-0.504,0.229l-0.396,0.264l-0.721,0.428l-0.611,0.361l-0.646,0.525l-0.864,0.396l-0.503,0.264l-0.469,0.067
			l-0.577-0.063l-0.758-0.226l-0.939-0.355l-0.651-0.389l-0.434-0.26l-0.469-0.097l-1.223-0.074l-0.396-0.03l-1.55,0.072
			l-1.479-0.023l-0.83-0.027l-0.578-0.191l-0.074-0.263l-0.002-0.163l0.07-0.295l0.25-0.394l0.215-0.296l0.607-0.724l0.393-0.559
			l0.179-0.459l0.062-0.261l0.041-0.047L107.337,11.392"/>
	</g>
</g>
<g id="Layer_1">
</g>
</svg>
