<?xml version="1.0" encoding="utf-8"?>
<!-- Generator: Adobe Illustrator 16.0.4, SVG Export Plug-In . SVG Version: 6.00 Build 0)  -->
<!DOCTYPE svg PUBLIC "-//W3C//DTD SVG 1.1//EN" "http://www.w3.org/Graphics/SVG/1.1/DTD/svg11.dtd">
<svg version="1.1" id="Layer_1" xmlns="http://www.w3.org/2000/svg" xmlns:xlink="http://www.w3.org/1999/xlink" x="0px" y="0px"
	 width="301.082px" height="232.275px" viewBox="-125.728 -96.779 301.082 232.275"
	 style="enable-background:new -125.728 -96.779 301.082 232.275;" xml:space="preserve">
<g id="Layer_132">
	<path id="Umar_Kot" style="fill:#CCCCCC;stroke:#FFFFFF;stroke-width:1.15;" d="M-119.241-36.163L-119.241-36.163l-0.269,0.388
		l-0.148,0.656l0.058,1.38l-0.04,1.908l0.137,2.613l-0.073,0.904l-0.058,1.05l-0.155,0.399l-0.128,0.301l-0.143,0.269l-0.126,0.125
		l0.006,0.103l0.107,0.154l0.164,0.125l0.257,0.114l0.977,0.023l0.861,0.103l0.169,0.149l0.239,0.37l0.233,0.514l0.11,0.916
		l0.188,1.604l0.119,2.261l0.166,1.875l0.108,1.368l0.062,1.088l-0.114,1.467l-0.085,0.534l-0.21,0.793l0.026,0.423l0.07,0.747
		l0.131,0.456l0.609,0.621l0.622,0.382l0.113,0.078l1.17,0.969l1.625,1.199l1.023,0.849l0.901,0.866l0.65,0.712l0.479,0.622
		l0.496,0.566l0.98,0.782l1.528,0.979l0.969,0.61l1.295,0.724l1.345,0.802l1.094,0.368l0.759,0.125l0.621,0.032l0.724,0.245
		l0.561,0.464l0.163,0.324l0.023,0.423l-0.132,0.151l-0.187,0.161l-0.303,0.125l-0.534,0.216l-0.28,0.125l0.228,0.104l0.558,0.123
		l0.627,0.104l0.715,0.12l0.653,0.018l0.662-0.126l0.417,0.084l1.07,0.622l0.907,0.825l0.525,0.668l0.574,0.826l0.006,0.333
		l-0.078,0.347l-0.345,0.569l-0.432,0.697l-1.044,1.663L-95.44,9.98l0.006,0.114l0.16,0.125l0.517,0.027l0.691,0.064l1.026,0.239
		l0.604,0.137l0.301-0.072l0.245-0.128l0.28-0.467l0.37-0.426l0.204-0.006l0.304,0.029l0.298,0.096l0.501-0.201l0.079-0.125
		l0.16-0.131l0.169-0.006l0.126,0.123l0.691,0.706l0.779,0.671l0.35,0.213l0.414-0.012l0.794-0.172l0.746-0.21h0.304l0.324,0.257
		l0.154,0.364l0.018,0.575l-0.155,1.266l-0.222,1.068l0.015,0.373l0.173,0.368l0.519,0.443l0.668,0.371l0.324,0.429l0.113,0.91
		l-0.058,0.954l0.225,0.534l0.872,0.872l1.368,1.494l0.991,0.889l1.55,1.18l3.039,2.157l1.613,1.051l0.621,0.42l0.257,0.223
		l0.125,0.455l0.462,4.398l0.37,2.917l0.285,1.307l0.199,2.509l-0.038,1.716l-0.292,1.622l-0.125,1.376l0.023,0.759l0.455,1.359
		l0.507,1.558l0.98,1.995l0.347,1.669l0.179,2.111l0.285,2.685l0.05,1.493l0.412,1.365l0.507,1.477l1.026,2.339l0.277,0.718
		l0.901,1.01l0.371,0.875l-0.126,0.776l-0.388,0.781l0.399,0.857l0.759,0.759l0.843,0.677l0.581,0.903l0.314,0.362l0.126,0.223
		l0.37,0.589l0.724,1.423l0.484,1.231l0.37,1.067l0.239,1.494l0.088,1.026l0.055,1.004l-0.125,0.548l-0.514,1.214l-1.178,2.117
		l-0.315,0.939l-0.396,1.19l-0.126,0.887l0.216,0.928l0.28,0.647l0.301,0.548l0.034,0.374l0.023,0.647l0.018,0.59l0.108,0.407
		l0.125,0.362l0.443,0.402l0.616,0.624l0.843,0.725l0.524,0.682l0.975,1.219l0.741,1.098l1.216,1.599l0.392,0.455l0.668,0.624
		l1.111,1.126l0.872,1.056l1.033,1.15l1.064,1.354l0.621,0.991l0.47,0.525l0.587,0.386l1.298,0.723l0.816,0.781l0.615,0.619
		l0.508,0.893l0.37,0.975l0.371,1.691l0.154,2.019l0.091,1.383l0.085,0.869l0.244,0.624l0.436,0.38l0.609,0.273l0.233,0.205
		l0.198,0.367l0.137,0.834l0.029,1.284l-0.023,1.633l-0.143,1.214l-0.21,1.645l-0.144,2.574l-0.125,2.007l-0.132,1.568l0.094,0.596
		l0.181,0.373l0.324,0.484l0.493,0.432l0.37,0.555l0.301,0.432l0.195,0.49l1.094-0.484l1.631-0.87l1.686-1.236l1.188-1.236
		l1.92-2.275l1.056-1.126l1.064-1.044l1.111-1.185l1.249-1.15l1.875-1.802l2.115-2.41l0.86-0.934l1.488-1.47l0.609-0.881
		l1.033-1.249l0.884-1.417l0.609-0.794l0.496-0.455l0.461-0.31l0.621-0.192l1.409-0.42l0.901-0.513l0.102-0.123l0.324-0.368
		l0.269-0.606l0.314-1.201l0.324-1.372l0.286-1.161l0.37-1.178l0.557-0.916l0.966-1.506l0.773-1.254l0.972-1.296l0.893-0.921
		l1.348-1.365l1.405-1.144l1.17-1.05l1.185-0.712l1.129-0.747l2.322,0.589l2.491,1.407l2.114,2.146l2.104,1.622l2.308,1.61
		l2.707,1.965l3.308,1.389l2.588,1.231l3.375-0.455l2.914-0.969l0.768-0.758l0.125-1.021l-0.245-1.802l0.201-1.18l0.038-1.196
		l-0.163-1.025l-0.718-1.033l-0.834-1.038l-0.17-0.514l0.205-0.771l0.473-0.612l0.017-0.514l-0.37-0.42l-0.029-0.647l1.039-0.49
		l1.978-0.396l1.619-0.374l0.581-0.605l-0.371-0.607l-1.117-1.038l-2.115-2.119l-0.904-1.458l-0.429-1.371l0.502-1.435l0.479-0.502
		l0.621-1.255l-0.172-0.344l-0.916-0.624l-2.688-1.243l-3.424-1.762l-0.913-0.7l-1.465-1.365l-3.416-2.274l-2.809-1.664
		l-0.735-0.624l0.012-0.606l0.759-0.408l3.681-1.12l4.075-1.727l1.415-0.468l3.112-0.273l1.22-0.653l1.368-0.415l2.855-1.371
		l3.495-1.691L33.457,55l3.693-1.635l3.419-2.013l3.576-2.082l4.282-1.943l5.192-2.864l4.982-2.532l0.624-0.321h1.074l1.079,0.123
		l3.291,1.231l4.071,1.838l3.571,1.867l3.488,2.007L78.3,50.1l3.779,1.819l2.626,0.782l2.626,0.128l0.875-0.263l0.862-0.647
		l1.202-0.875l1.436-0.869h0.56l0.367,0.123l0.578,0.589l0.625,1.126l0.712,0.589l0.693,0.123l0.857-0.257l1.704-0.788l3.209-1.289
		l2.631-0.775l1.622-0.123h1.085l2.205,0.344l3.35,1.149l1.424,0.449l0.868,0.135l0.782-0.129l0.367-0.122l0.367-0.392l0.707-0.775
		l0.373-0.367l0.991-0.094l0.584,0.006l0.712,0.128l0.869,0.327l0.694,0.122l0.799,0.012l0.584-0.269l0.21-0.181l0.367-0.712
		l0.502-1.125l0.292-0.327l0.292-0.187h0.699l0.869,0.128h0.578l0.426-0.455l0.368-0.596l0.583-1.213l0.863-0.35l1.995-0.064
		l3.501,0.134l1.067,0.332l1.64,0.334l2.071,0.712l1.406,0.034l0.577,0.012l0.426-0.332l0.42-0.904l0.362-0.619l0.502-0.449
		l1.09-0.636l1.704-0.624h0.794l0.793,0.122l1.482,0.351l1.37,0.373l0.292,0.385l0.07,0.584l-0.129,0.781l-0.367,1.121l-0.082,0.443
		l0.292,0.63l1.494-0.064l0.916-0.514l1.715-1.226l1.803-1.552l1.709-1.417l1.996-1.867l2.013-2.707l0.928-1.832l0.367-1.663
		l-0.391-4.475l-0.565-1.867l-0.292-1.154l0.303-1.407l0.134-2.863l-0.059-1.558l-0.157-1.046l0.082-1.038l0.501-0.647l1.005-0.703
		l0.419-0.432v-0.531l-0.501-0.707l-0.992-0.087l-1.125-0.067l-0.637-0.327l-1.003-0.615l-0.578-0.067l-0.793-0.125l-0.7-0.525
		l-0.584-0.443v-1.307l0.304-0.968l0.368-0.782l0.804-0.371l0.904-0.514l1.132-0.647l2.626-1.336l1.715-1.111l2.218-0.957
		l2.59-1.928l0.793-1.047V2.527l-0.781-0.522h-0.584l-1.295,0.371l-1.283,0.52l-0.875-0.123l-0.408-0.604V1.646l0.42-0.954
		l0.303-0.86l-0.081-0.519l-0.502-0.199l-1.505,0.341l-1.359,0.622l-0.624,0.064l-0.409-0.327l-0.128-1.298l0.42-0.645l0.081-1.039
		v-0.52l-0.571-0.329l-0.583-0.006l-0.863,1.111l-1.312,1.225L157.3-1.359h-1.301l-1.073,0.33l-0.368,0.633l-0.712,0.962
		l-1.213,0.896l-1.004,0.455l-1.085,0.064l-0.91-0.189l-0.502-0.33l-0.367-0.718l0.222-0.776L149.412-1l0.712-0.709l0.122-0.592
		v-0.251l-0.361-0.125l-2.638-0.006l-1.125-0.073l-1.126-0.452l-1.215-0.855l-0.367-0.791l-0.082-0.589l0.205-0.592l0.724-0.522
		l0.922-0.338l0.583-0.514l-0.122-0.784l-0.292-0.846v-0.639l0.514-0.974l1.581-1.619l2.152-1.864L152.697-16l1.919-1.675
		l2.141-2.197l0.712-1.368l0.298-0.86v-0.855l-0.285-0.443l-0.783-0.388l-1.137-0.514l-0.712-0.449l-0.367-0.852l0.011-0.849
		l0.49-0.791l1.226-0.776l0.502-0.37l0.373-0.708l0.21-0.456l0.012-0.627l-0.315-0.42l-0.63-0.709l-0.374-0.525v-0.26l0.602-0.645
		l0.367-0.423l0.87-0.456l0.794-0.513l0.367-0.382l0.082-0.371l-0.082-0.455l-0.129-0.327l-0.583-0.192l-1.284,0.187l-1.004,0.621
		l-1.592-0.006l-1.05-0.301l-2.205-1.044l-1.587-0.456l-1.004-0.131l-1.132,0.192l-1.196,0.776l-2.368,1.482l-1.587,1.289
		l-1.861,2.097l-0.929,0.622l-1.132,0.085l-0.501-0.126l-0.42-0.455l-0.129-0.587l-0.082-1.619l-0.279-0.37h-0.432l-1.004,0.449
		l-0.624,0.691l-1.004,1.674l-1.225,1.039l-0.788,0.125l-1.283-0.262l-1.226-0.61l-0.49-0.627l-0.121-0.709l0.624-0.904l2.863-2.371
		l2.638-2.454l2.101-2.331l1.634-1.369l1.37-0.706l1.214-0.371l1.226-0.712l1.073-0.86l0.374-0.368v-0.324v-0.257l-0.508-0.262
		l-1.372-0.198l-3.121-0.353l-2.515-0.697l-1.708-0.616l-1.29-0.262l-0.805,0.064l-1.202,0.449l-1.809,1.875l-1.628,1.033h-0.502
		l-0.712-0.329l-0.577-0.19l-0.502-0.006l-0.805,0.371l-1.004,0.65l-1.493-0.006l-3.856-0.268l-1.214-0.193l-0.123-0.65l0.362-0.811
		l1.225-1.231l1.295-1.687l1.145-1.814l0.292-1.424l0.501-1.14l0.42-0.645l0.712-0.449l1.226-0.583l0.624-0.379l0.082-0.691
		l-0.07-0.718l-0.21-0.645l-0.123-0.776v-0.598l0.211-0.907l0.414-0.642l0.869-0.846l1.283-0.712l2.515-0.314l1.43-0.33l0.781-0.449
		l1.558-1.614l1.004-1.237l1.091-1.039l1.809-0.962l1.797-0.776l2.439-1.403l1.86-0.962l2.218-1.368l1.226-0.622l0.868-0.711
		l0.583-1.033l0.444-0.878l3.39-2.833l-2.702-6.596l-2.928-4.825l-2.438-3.167l-4.925,1.572l-1.108,0.093l-1.459-0.446l-1.126-0.45
		l-0.747-0.589l-0.869-0.192l-0.734,0.125l-1.103,0.56l-0.502,0.867l-0.426,0.353l-0.514,0.353l-0.811,0.467l-0.806,0.65
		l-0.869,0.21l-1.167,0.012l-1.762-0.324l-2.053-0.31l-2.071-0.125l-1.664,0.103l-0.944,0.274l-0.816,0.473l-0.812,0.65
		l-0.928,0.479l-1.389,0.137l-1.318,0.012l-1.336-0.514l-0.869-0.61l-0.957-0.25l-0.816-0.073l-2.346,0.604l-4.656,1.584
		l-2.853,1.021l-1.739,1.015l-0.944,1.196l-0.571,0.741l-1.167,0.473l-2.334,0.368l-1.546,0.21l-1.236,0.814l-1.652,1.368
		L85.3-77.667l-1.832,0.353l-1.236,0.084l-1.248-0.125l-0.823-0.52l-0.956-1.053l-1.127-1.123l-1.709-1.841l-1.19-1.368
		l-1.482-1.619l-1.481-0.799l-1.026-0.318l-1.027-0.058l-1.236,0.478l-1.739,1.348l-1.727,2.135l-2.572,2.862l-2.445,2.675
		l-2.526,2.617l-1.138,1.458l-1.728,1.619l-1.808,1.678l-0.811,0.796l-0.502,0.21l-0.367,0.005L50.96-68.3l-0.525-0.327
		l-0.502-0.061l-0.95,0.347l-1.739,0.683l-2.328,1.368l-1.446,1.009l-1.364,1.295l-1.658,1.015l-0.868,0.478l-1.447,0.551
		l-1.528,0.68l-1.214,1.339l-1.016,0.936l-0.589,0.803l-0.304,0.985l-0.571,1.462l-0.7,1.657l-0.123,1.073l-0.577,1.071
		l-0.782,1.619l-0.618,2.001l-0.42,0.913l-0.922,0.934l-1.31,1.284l-1.287,1.543l-1.135,1.473l-0.37,0.534l-0.484,1.392
		l-0.775,1.733l-1.506,2.007l-1.972,1.738l-1.146,0.872l-1.948,0.937l-2.18,0.843l-1.236,0.044l-0.809,0.207l-0.37,0.473
		l-0.496,0.639l-1.01,0.677L9.621-29.59l-0.936,0.076l-0.872,0.011l-0.64,0.143l-0.705,0.735l-1.529,1.287l-2.152,1.415
		l-1.368,0.872l-1.097,0.21l-0.957-0.25l-1.117-0.779l-0.531-0.458l-0.514-0.125l-0.592,0.338l-1.004,0.945l-0.872,0.872
		l-0.545,2.188l-0.269,1.535l-0.28,0.811l-0.52,0.084l-0.849-0.216l-1.248-0.578l-1.619-0.706l-2.349-0.423l-2.497-0.563
		l-2.485-0.114l-1.75,0.041l-1.541,0.361l-1.446,0.149l-0.312-0.266l-0.007-0.268l0.085-0.28l0.706-0.645l0.59-0.406l1.446-0.819
		l0.872-0.548l0.126-0.66l-0.149-0.262l-0.292,0.005l-0.426,0.006v-0.131l0.198-0.269l0.138-0.44l-0.018-0.353l-0.301-0.329
		l-0.429,0.005l-0.514,0.274l-0.288,0.394h-0.292l-0.006-0.385l-0.312-0.26l-0.513,0.073l-0.502,0.473l-0.126,0.872l-0.621,1.733
		l-0.417,0.61l-0.298,0.338l-0.872-0.125l-0.813-0.447l-1.488-1.368l-1.062-1.167l-0.125-0.201l-0.392-0.639l-0.143-0.639
		l-0.012-0.466l0.286-0.336l0.37-0.137l0.438,0.059l0.812,0.347l0.746,0.785l0.301,0.123l0.805-0.123l0.729-0.374l1.299-0.811
		l1.222-0.945l0.21-0.376l-0.09-0.353l-0.225-0.327l-0.371-0.46l-0.432-0.525l-0.37-0.65l-0.222-0.438l-0.006-0.196l0.073-0.269
		l0.125-0.271l0.216-0.196l0.37-0.402l0.126-0.333l-0.211-0.198l-0.312-0.262l-0.514-0.059l-0.645-0.125l-0.222-0.169l-0.012-0.458
		l0.502-0.621l0.724-0.382l1.021-0.289l0.797-0.622l0.37-0.338l0.126-0.359l0.213-0.376l-0.094-0.569l-0.809-0.184l-1.032,0.286
		l-1.141,0.627l-0.866,1.003l-0.872,0.46l-0.52-0.125l-0.222-0.335l0.286-0.558l0.633-0.726l0.37-0.388l-0.006-0.266l-0.37-0.458
		l-0.513-0.062l-1.027,0.353l-0.627,0.805l-0.639,0.409l-1.374,0.017l-1.471-0.239l-0.37-0.371l-0.018-0.621l-0.103-0.724
		l-0.519-0.452l-0.791-0.125l-0.514,0.006l-0.502,0.411l-0.364,0.598l-0.364,0.736l-0.364,0.735l-0.584,0.201l-1.374,0.096
		l-0.729,0.406l-0.775,1.274l-0.569,1.199l-0.423,0.537h-0.37l-0.141-0.063l-0.219-0.125l-0.006-0.336l-0.096-0.703l-0.097-0.335
		l-0.304,0.005l-0.642,0.604l-0.508,0.207l-0.201-0.189l-0.228-0.598l-0.102-0.461l-0.222-0.125l-0.423-0.172l-1.045,0.084
		l-1.018,0.411l-1.01,0.616l-0.872,0.741l-0.937,0.622l-0.802,0.125l-0.645,0.21l-0.794,0.674l-0.633,0.735l-0.58,0.388
		l-0.729,0.137l-0.957-0.251l-0.937-0.371l-1.989-0.764l-1.989-0.837l-1.704-0.843l-1.694-0.889l-1.345-1.112l-1.054-0.371
		l-1.021,0.021l-0.627,0.537l-0.28,0.735l-0.496,0.668l-0.37,0.079l-0.593,0.006l-1.169-0.245l-1.967-0.4l-1.893-0.438l-2.588-0.685
		l-1.687-0.364l-1.379-0.712l-1.482-0.701l-0.65,0.015l-0.866,1.074l-0.566,1.202l-0.408,0.93l-2.967,1.249l-2.541,0.878
		l-2.479,0.376l-3.01-0.621l-2.862-0.464l-1.762-0.234l-1.1,0.091l-0.645,0.344l-0.939,0.216l-0.735,0.011l-0.872-0.245
		l-1.248-0.423l-1.249-0.245l-1.552,0.029l-0.292,0.005l-1.149-0.645l-1.738-0.782l-1.176-0.432l-1.1-0.058l-1.869,0.315
		l-2.719,0.501l-1.369,0.187l-1.1,0.099l-0.583,0.026L-119.241-36.163"/>
</g>
<g id="Layer_1_1_">
</g>
</svg>
