<?xml version="1.0" encoding="utf-8"?>
<!-- Generator: Adobe Illustrator 16.0.4, SVG Export Plug-In . SVG Version: 6.00 Build 0)  -->
<!DOCTYPE svg PUBLIC "-//W3C//DTD SVG 1.1//EN" "http://www.w3.org/Graphics/SVG/1.1/DTD/svg11.dtd">
<svg version="1.1" id="Layer_1" xmlns="http://www.w3.org/2000/svg" xmlns:xlink="http://www.w3.org/1999/xlink" x="0px" y="0px"
	 width="300.981px" height="243.6px" viewBox="-105.251 -85.052 300.981 243.6"
	 style="enable-background:new -105.251 -85.052 300.981 243.6;" xml:space="preserve">
<g id="Layer_18">
	<path id="Baltistan" style="fill:#CCCCCC;stroke:#FFFFFF;stroke-width:1.15;" d="M-99.76-8.958L-99.76-8.958l0.601,0.379
		l0.281,0.133l0.203,0.071l0.253,0.09l0.339,0.117l0.256,0.148l0.2,0.03l0.171,0.019l0.195,0.019l0.203,0.019l0.202,0.024
		l0.411,0.019l0.747-0.198l0.402-0.177l0.3-0.124l0.346-0.102l0.291,0.037l0.379,0.078l0.317,0.035l0.342,0.098l0.338,0.136
		l0.418,0.26l0.418,0.201l0.37-0.04l0.439-0.016l0.393-0.078l0.37-0.059l0.399-0.158l0.303-0.144l0.308-0.201l0.199-0.167
		l0.26-0.223l0.148-0.114l0.136-0.111l0.219-0.188l0.332-0.003l0.313,0.036l0.256,0.114l0.326,0.195l0.346,0.235l0.184,0.169
		l0.312,0.21l0.336,0.402l0.433,0.272l0.476,0.068l0.917,0.047l0.418-0.035l0.439-0.016l0.361,0.038l0.057,0.201l0.272,0.231
		l0.155,0.187l0.154,0.204l0.244,0.269l0.189,0.228l0.175,0.304l0.123,0.266l0.143,0.383l0.199,0.467l0.143,0.362l0.095,0.34
		l0.117,0.344l0.136,0.42l0.007,0.241l-0.007,0.396l-0.14,0.21l-0.031,0.275l-0.073,0.292l-0.044,0.275l-0.184,0.307l-0.164,0.208
		l-0.165,0.166l-0.12,0.096l-0.275,0.084l-0.013,0.179l0.025,0.3l0.004,0.277l0.069,0.378l0.116,0.305l0.206,0.329l0.127,0.225
		l-0.051,0.313l-0.215,0.256l-0.124,0.214L-82.071,2.3l-0.26,0.223l-0.263,0.225l-0.401,0.174l-0.494,0.114l-0.538,0.029
		l-0.455-0.065l0.129,0.205l-0.037,0.299l0.016,0.158l-0.069,0.213l-0.199,0.386l-0.146,0.269l-0.192,0.226l-0.253,0.108
		l-0.244,0.049l-0.205,0.041l-0.222,0.04l-0.206,0.038l-0.215-0.032l-0.216-0.032l-0.433,0.039l-0.298,0.049l-0.137,0.21
		l-0.145,0.31l0.066,0.448l-0.099,0.333l-0.025,0.318l0.066,0.34l0.336,0.213l0.237,0.21l0.312,0.214l0.323,0.213l0.342,0.237
		l0.487,0.207l0.206,0.149l0.212,0.172l0.129,0.201l0.089,0.087l0.137,0.146l0.24,0.143l0.199,0.12l0.278,0.133l0.14,0.162
		l0.13,0.15l0.274,0.174l0.295-0.016l0.266-0.013l0.202,0.158l0.285,0.244l0.12,0.124l0.127,0.129l0.158,0.165l-0.041,0.185
		l-0.051,0.149l-0.099,0.21l-0.332,0.359l-0.199,0.153l-0.237,0.181l-0.26,0.16l-0.301,0.187l0.178,0.228l0.104,0.186l0.228,0.148
		l0.216,0.191l0.338,0.196l0.411,0.042l0.219,0.071l0.288,0.095l0.243,0.269l0.225,0.229l0.225,0.173l0.219,0.171l-0.051,0.314
		l0.003,0.279l0.336-0.087l0.184-0.046l0.367,0.081l0.316,0.194l0.269,0.253l0.281,0.115l0.336,0.175l0.38,0.137l0.446,0.223
		l0.187,0.13l0.048,0.302l0.102,0.263l0.065,0.261l0.004,0.277l0.079,0.162l0.088,0.102l0.282-0.145l0.354-0.038l0.417-0.078
		l0.333-0.062l0.294-0.024l0.316-0.003l0.339-0.022l0.313,0.015l0.262,0.075l0.19,0.208l0.184,0.168l0.158,0.145l0.205,0.149
		L-73.28,18l0.199,0.148l0.275,0.195l0.253,0.151l0.253,0.195l0.228,0.171l0.251,0.133l0.246,0.153l0.253,0.133l0.076,0.257
		l0.032,0.263l0.095,0.302l0.05,0.279l0.171,0.288l0.076,0.225l0.007,0.236l0.057,0.22l0.254,0.152l0.256,0.095l0.243,0.01
		l0.184,0.09l0.051,0.201l0.13,0.166l0.092,0.205l0.069,0.2l0.104,0.186l0.199,0.128l0.137,0.147l0.104,0.199l0.199,0.111
		l0.189,0.143l0.158,0.194l0.092,0.09l0.099,0.117l0.145,0.062h0.086l0.124,0.003l0.233,0.018l0.275,0.038l0.316,0.032h0.168
		l0.111,0.023l0.119,0.094l0.162,0.062l0.104,0.185l0.083,0.201l0.158,0.233l0.234,0.071l0.345,0.052l0.298-0.035l0.271-0.068
		l0.158-0.052l0.374-0.253l0.136-0.21l0.066-0.14l0.066-0.229l0.143-0.25l0.187-0.052l0.165,0.049l0.167,0.028l0.051,0.201
		l-0.038,0.256v0.297l0.003,0.163l0.079,0.22l0.181,0.169l0.13,0.184l0.161,0.126l0.13,0.166l0.203,0.384l0.151,0.247l-0.022,0.256
		l0.003,0.275l-0.06,0.236l0.048,0.216l-0.029,0.256l-0.107,0.215l-0.199,0.168l-0.161,0.167l-0.016,0.198l0.136,0.104l0.24,0.013
		l0.222,0.052l0.266,0.035l0.263,0.034l0.263,0.071l0.199,0.111l0.134,0.146l0.132,0.145l0.051,0.117l0.07,0.204l0.136,0.106
		l0.234-0.006l0.266,0.012l0.196-0.149l0.136-0.191l0.234-0.084l0.171-0.111l0.171-0.031l0.189,0.029l0.171,0.169l0.133,0.165
		l0.159,0.169l0.148,0.301l0.136,0.126l0.111,0.126l0.205-0.068l0.19-0.068l0.199-0.069l0.225-0.068l0.233-0.046l0.305-0.041
		l0.307,0.094l0.288,0.036l0.209,0.071l0.259,0.071l0.231-0.006l0.181,0.028l0.161,0.127l0.066,0.185l-0.114,0.229l-0.247,0.223
		l-0.057,0.234l0.066,0.239l0.171,0.286l0.148,0.266l0.377,0.136l0.256,0.112l0.336,0.059l0.288-0.003l0.352-0.139l0.316-0.022
		l0.269-0.023l0.123,0.244l0.102,0.243l0.107,0.181l0.178,0.207l0.11,0.146l0.256,0.114l0.2,0.13l0.206,0.148l0.212,0.173
		l0.202,0.207l0.152,0.188l0.107,0.201l0.12,0.266l0.079,0.187l0.037,0.275l-0.054,0.176l-0.069,0.176l-0.069,0.213l-0.161,0.191
		l-0.161,0.207l-0.238,0.245l-0.136,0.169l-0.016,0.217l0.234,0.111l0.285,0.054l0.198,0.052l0.234,0.095l0.522,0.145l0.231,0.109
		l0.199,0.07l0.233,0.112l0.222,0.133l0.14,0.127l0.184,0.188l0.13,0.164l0.072,0.201l0.152,0.207l0.161,0.205l0.092,0.262
		l0.12,0.225l0.206,0.148l0.117,0.209l-0.014,0.135l-0.015,0.1l0.164,0.17l0.139,0.062l0.149,0.053l0.126,0.014l0.187,0.014
		l0.203,0.123l0.006,0.195l0.035,0.186l0.104,0.164l0.199,0.145l0.181,0.191l0.189,0.105l0.202,0.045l0.26,0.07l0.257,0.113
		l0.338,0.076l0.305,0.115l0.404,0.078l0.421,0.164l0.354,0.121l0.301,0.133l0.205,0.098l0.282,0.188l0.099,0.186l0.271,0.172
		l0.202,0.164l0.19,0.115l0.202,0.164l0.234,0.182l0.203,0.152l0.136,0.279l0.225,0.26l0.025,0.32l0.003,0.25l-0.069,0.252
		l-0.022,0.26l0.01,0.199l0.085,0.326l0.247,0.25l0.066,0.279l0.174,0.246l0.032,0.277l0.057,0.248l0.069,0.18l0.067,0.244
		l0.034,0.139l0.165,0.188l0.322,0.203l0.311,0.113l0.202,0.107l0.035,0.164l-0.066,0.189l-0.143,0.197l-0.193,0.088l-0.187,0.203
		l-0.228,0.145l-0.184,0.127l-0.069,0.158l0.132,0.184l0.203,0.152l0.102,0.186l0.202,0.146l0.127,0.205l0.104,0.164l0.155,0.182
		l0.095,0.18l0.089,0.197l0.01,0.184l0.003,0.189l0.007,0.139l0.054,0.146l0.117,0.113l0.075,0.18l0.025,0.172l0.007,0.154
		l-0.013,0.172l-0.107,0.17l-0.067,0.166l-0.069,0.119l-0.192,0.221l-0.107,0.184l-0.124,0.146l-0.107,0.152l-0.127,0.195
		l-0.082,0.133l-0.104,0.141l-0.146,0.145l-0.127,0.162l-0.139,0.072l0.013,0.119l-0.123,0.135l-0.066,0.139l-0.08,0.088
		l-0.184,0.115l-0.037,0.195l-0.127,0.133l-0.117,0.088l-0.082,0.293l0.069,0.176l0.013,0.121l0.013,0.113l-0.032,0.328
		l-0.101,0.121l-0.124,0.133l0.048,0.158l-0.057,0.152l-0.127,0.148l-0.107,0.184l-0.076,0.148l0.041,0.352l0.022,0.17l0.079,0.162
		l0.095,0.146l0.171,0.113l0.143,0.105l0.123,0.133l0.206,0.064l0.127,0.061l0.199,0.074l0.187,0.082l0.189,0.107l0.193,0.057
		l0.148,0.039l0.162,0.119l0.139,0.18l0.14,0.117l0.192,0.137l0.181,0.135l0.124,0.15l0.101,0.109l0.146,0.082l0.165,0.121
		l0.12,0.133l0.066,0.113l-0.028,0.135l-0.051,0.15l0.007,0.158l0.021,0.158l0.104,0.115l0.066,0.127l0.098,0.195l0.102,0.162
		l0.092,0.145l0.165,0.146l0.069,0.133l0.181,0.18l0.187,0.184l0.155,0.184l0.199,0.146l0.243,0.201l0.237,0.121l0.127,0.057
		l0.196,0.014l0.202-0.021l0.231-0.068l0.222-0.035l0.215-0.125l0.199-0.1l0.189-0.098l0.178-0.098l0.272-0.076l0.199-0.051
		l0.177-0.055l0.177-0.068l0.244,0.016l0.212-0.07l0.175-0.006l0.183,0.057l0.295,0.203l0.028,0.189l0.003,0.189l0.045,0.188
		l0.024,0.17l0.007,0.162l0.066,0.139l0.148,0.1l0.045,0.145l0.066,0.193l0.069,0.125l0.066,0.178l0.11,0.166l-0.013,0.184
		l-0.012,0.158v0.213l-0.02,0.217l-0.016,0.215l0.019,0.219l0.035,0.236l0.069,0.193l0.137,0.162l0.161,0.146l0.12,0.164
		l0.146,0.113l0.181,0.086l0.195,0.119l0.203,0.109l0.225,0.043l0.231-0.031l0.243-0.023l0.202-0.062l0.308-0.064h0.266h0.266
		l0.563,0.033l0.222,0.107l0.044,0.158l-0.031,0.127l-0.086,0.133l-0.101,0.117l-0.148,0.078l-0.197,0.02l-0.233,0.053l-0.196,0.08
		l-0.25,0.047l-0.193,0.02l-0.202,0.02l-0.174,0.027l-0.216,0.066l-0.199,0.014l-0.192,0.066l-0.2,0.082l-0.181,0.02l-0.184,0.068
		h-0.189l-0.215,0.07l-0.193,0.031l-0.23,0.059l-0.203,0.031h-0.269l-0.199,0.057l-0.206,0.033l-0.219,0.02l-0.202,0.02
		l-0.339,0.107l-0.212,0.049l-0.158,0.072l-0.076,0.117l-0.12,0.148l-0.072,0.211l-0.13,0.178l-0.041,0.246l0.021,0.223l0.175,0.195
		l0.113,0.193l0.12,0.18l0.096,0.146l0.088,0.195l0.07,0.16l-0.013,0.156l-0.178,0.166l-0.434,0.133l-0.243,0.047l-0.225,0.066
		l-0.26,0.072l-0.219,0.111l-0.142,0.146l-0.2,0.125l-0.142,0.121l-0.07,0.168l0.035,0.158l0.073,0.158l0.123,0.133l0.148,0.041
		l0.137,0.178l0.117,0.176l0.006,0.146l-0.01,0.152l-0.057,0.182l-0.102,0.109l-0.12,0.082l-0.212,0.02l-0.263,0.037l-0.161,0.037
		l-0.243,0.018l-0.336-0.049l-0.288,0.025l-0.206-0.006h-0.233l-0.298-0.02l-0.272,0.076l-0.263,0.02l-0.196,0.037l-0.082,0.07
		l0.057,0.178l0.066,0.191l0.07,0.131l0.022,0.188l0.098,0.277l-0.003,0.279l0.044,0.174l0.092,0.225l0.031,0.338l0.117,0.199
		l0.063,0.174l0.079,0.178l0.004,0.127l0.177,0.227l0.066,0.191l0.06,0.201l0.067,0.158l0.088,0.182l0.102,0.148l0.079,0.158
		l0.14,0.146l0.161,0.15l0.158,0.164l0.066,0.135l0.161,0.082l0.203,0.043l0.461,0.082l0.168,0.07l0.184,0.086l0.12,0.121
		l0.013,0.15l0.058,0.133l0.006,0.174l-0.06,0.121l-0.146,0.152l-0.137,0.057l-0.253,0.043l-0.158,0.09l-0.066,0.117l-0.016,0.154
		l-0.022,0.172l-0.038,0.189l-0.037,0.209l-0.017,0.178l-0.085,0.164l-0.058,0.168l-0.177,0.199l-0.099,0.158l-0.11,0.184v0.234
		l0.044,0.189l0.066,0.178l0.048,0.139l0.164,0.076l0.196,0.068h0.152l0.234,0.039l0.174,0.066l0.187,0.061l0.12,0.164l0.007,0.139
		l0.047,0.178l-0.044,0.246l-0.06,0.172l-0.045,0.201l-0.079,0.168l-0.041,0.188l-0.035,0.121l0.146,0.104l0.193,0.055h0.266
		l0.237,0.047l0.165,0.119l0.218-0.002l0.222,0.066l0.187,0.061l0.199,0.043l0.117,0.117l-0.066,0.156l-0.069,0.164l-0.066,0.139
		l-0.058,0.184l-0.066,0.203l-0.05,0.398l0.054,0.271l0.199,0.166l0.192,0.211l-0.034,0.188l-0.089,0.201l-0.069,0.209l-0.082,0.152
		l-0.108,0.184l-0.126,0.18l-0.203,0.314l-0.198,0.125l-0.264,0.152l-0.351,0.293l-0.285,0.334l-0.404,0.33l-0.238,0.338
		l-0.274,0.285l-0.276,0.281l-0.253,0.311l-0.291,0.291l-0.222,0.328l-0.199,0.273l-0.117,0.252l0.127,0.133l0.184,0.197
		l0.396,0.334l0.225,0.295l-0.013,0.246l-0.066,0.225l-0.035,0.182l0.196,0.186l0.281,0.172l0.203,0.154l0.098,0.193l0.107,0.146
		l0.143,0.164l0.051,0.133v0.174l-0.113,0.117l-0.099,0.184l-0.335,0.154l-0.203,0.182l-0.104,0.121l-0.05,0.023l-0.216,0.141
		l-0.288,0.164l-0.171,0.195l-0.155,0.172l-0.287,0.24l-0.26,0.215l-0.199,0.07l-0.234,0.076l-0.228,0.057l-0.244,0.061l-0.104,0.09
		l-0.228,0.109l-0.243,0.006l-0.234,0.02l-0.301,0.012l-0.25,0.088l-0.162-0.01l-0.173-0.025l-0.241,0.055l-0.24,0.049l-0.161-0.035
		l-0.149-0.02l-0.228-0.049l-0.222,0.035l-0.177-0.027l-0.12-0.055l-0.061-0.025l-0.14-0.057l-0.174-0.082l-0.174-0.051
		l-0.143-0.006l-0.154-0.02h-0.108l-0.066,0.121l-0.066,0.07l-0.066,0.104l-0.098,0.078l-0.152,0.09l-0.155,0.119l-0.13,0.102
		l-0.069,0.121l-0.066,0.127l-0.069,0.125l-0.007,0.217l0.063,0.15l0.017,0.146l0.028,0.086l0.041,0.107l-0.063,0.092l-0.045,0.107
		l-0.12,0.201l-0.054,0.033l-0.028,0.043l-0.117-0.006l-0.154-0.006l-0.111,0.012l-0.117-0.012l-0.092-0.039l-0.098,0.008
		l-0.044,0.025l-0.121,0.066l-0.066,0.109l-0.104,0.254l-0.079,0.092l-0.069,0.143l-0.098,0.102l-0.137,0.057l-0.146,0.018
		l-0.155,0.023l-0.161-0.016l-0.24-0.086l-0.196,0.014l-0.174-0.025l-0.199,0.086l-0.107,0.064l-0.111,0.035l-0.206,0.111
		l-0.183,0.053l-0.165-0.006l-0.13-0.025h-0.101l-0.196,0.064l-0.272,0.012l-0.114,0.062l-0.066,0.109l-0.069,0.1l-0.19,0.07
		l-0.082,0.057l-0.051,0.039l-0.092,0.102l-0.154,0.057l-0.127,0.088l-0.117,0.088L-50,100.87l-0.137,0.076l-0.123,0.057
		l-0.301,0.076l-0.171,0.025l-0.123,0.037l0.02,0.096l0.065,0.076l0.041,0.119l-0.009,0.117l0.066,0.127l0.069,0.182l0.069,0.195
		l0.089,0.209l0.092,0.189l0.178,0.234l0.199,0.184l0.196,0.203l0.278,0.164l0.266,0.139l0.234,0.127l0.199,0.113l0.187,0.111
		l0.063,0.174v0.152l0.066,0.205l0.189,0.121l0.203,0.1l0.351,0.16l0.2,0.047l0.253,0.051l0.221,0.02l0.2,0.006l0.243,0.02
		l0.203,0.062l0.117,0.094l0.129,0.141l0.168,0.094l0.165,0.158l0.199,0.117l0.202,0.08l0.199,0.061l0.14,0.066l0.095,0.082
		l0.057,0.096l0.022,0.164l-0.069,0.234l-0.07,0.139l-0.123,0.189l-0.063,0.279l0.069,0.184l0.058,0.148l0.019,0.098l0.048,0.139
		l0.057,0.09l0.07,0.088l0.113,0.121l0.073,0.094l0.034-0.041l0.048,0.141l0.066,0.113l0.028,0.086l-0.066,0.1l-0.06,0.096
		l-0.035,0.068l-0.072,0.096l-0.067,0.127l-0.066,0.152l-0.079,0.17l0.025,0.162l0.038,0.139l-0.003,0.178l0.038,0.139l0.044,0.223
		l0.028,0.145l0.038,0.098l0.123,0.049l0.155,0.078l0.187,0.066l0.203-0.006l0.11,0.025l0.117,0.027l0.095-0.033l0.086-0.025
		l0.151-0.086l0.162-0.088l0.199-0.061l0.218-0.014h0.184l0.184,0.043l0.158,0.037l0.367,0.051l0.102-0.014l0.202-0.025l0.206-0.018
		l0.202-0.02l0.278-0.041l0.346-0.092l0.259,0.158l0.257,0.205l0.284,0.24l0.438,0.201l0.332,0.189l0.297,0.156l0.292,0.211
		l0.335,0.1l0.266,0.127l0.294,0.184l0.08,0.234l0.101,0.133l0.254,0.111l0.363,0.127h0.428l0.31,0.021l0.288,0.098l0.253,0.139
		l0.424,0.176l0.472,0.117l0.263,0.039l0.193,0.1l0.057,0.281l-0.164,0.357l0.329,0.133l0.338,0.047l0.472,0.166l0.256,0.152
		l0.19,0.264l0.298,0.186l0.202,0.322l0.218,0.209l0.184,0.291l0.219,0.24l0.383,0.271l0.158,0.178l0.152,0.266l0.11,0.234
		l-0.13,0.195l0.041,0.305l-0.082,0.252l-0.075,0.176l0.021,0.109l0.069,0.158l0.181,0.121l0.19,0.266l0.031,0.158l-0.02,0.48
		l-0.003,0.172l-0.034,0.189l-0.02,0.23l0.022,0.219l0.054,0.203l0.006,0.24l0.017,0.246l-0.061,0.213l0.019,0.234l0.004,0.242
		l0.069,0.234l0.117,0.203l0.161,0.322l0.076,0.178l0.139,0.193l0.231,0.484l0.143,0.342l0.11,0.291l0.025,0.537l0.155,0.234
		l0.31,0.223l0.193,0.125l0.196,0.203l-0.069,0.221l-0.051,0.152l-0.051,0.146l-0.063,0.133l-0.009,0.285l0.057,0.227l-0.045,0.184
		l-0.205,0.102l-0.181,0.076l-0.192,0.213l-0.102,0.416l0.212,0.232l0.016,0.26l0.016,0.252l-0.195,0.193l-0.33,0.178l-0.246,0.125
		l-0.12,0.254l0.117,0.174l0.104,0.371l0.117,0.307l0.058,0.189l0.069,0.17l0.139,0.197l0.095,0.145l0.007,0.162l0.035,0.145
		l0.003,0.086l-0.057,0.076l-0.196,0.033l-0.285,0.125l-0.281,0.096l-0.237,0.02l-0.209,0.127l-0.415,0.088l-0.275,0.037
		l-0.297,0.209l-0.152,0.213l-0.202,0.23l-0.206,0.088l-0.171,0.186l-0.146,0.068l0.069-0.029l-0.243,0.121l-0.168,0.104
		l-0.177,0.143l-0.076,0.184l-0.066,0.266l-0.107,0.152l-0.316,0.414l-0.196,0.184l-0.069,0.393l-0.121,0.271l-0.129,0.33
		l-0.203,0.297l-0.348,0.268l-0.332,0.145l-0.288,0.184l-0.62,0.193l-0.209,0.133l-0.124,0.271l-0.082,0.254l-0.047,0.326
		l0.228,0.363l0.393,0.127l0.427,0.127l0.472,0.158l0.516,0.133l0.481-0.066l0.562-0.152l0.561-0.223l0.38-0.195l0.199-0.072
		l0.342-0.127l0.472,0.285l0.427,0.352l0.655,0.393l0.439,0.354l0.19,0.398l0.126,0.367l0.055,0.545l0.095,0.285l0.091,0.391
		l-0.006,0.438l-0.215,0.373l-0.069,0.406l0.297,0.246l0.554,0.057l0.516,0.24l0.466,0.33l0.363,0.119l0.563,0.291l0.465,0.158
		l0.529-0.018l0.56-0.025l0.13,0.322l0.219,0.447l0.36,0.314l0.646,0.135l0.76,0.039l0.316,0.412l0.196,0.484l0.351,0.174
		l0.517,0.141l0.274,0.424l0.219,0.605l0.472,0.361l0.626-0.094l0.611-0.197l0.598-0.094l0.475,0.234l0.532,0.316l0.983,0.297
		l0.839,0.076l0.934,0.113l0.98,0.219l0.884,0.113l0.93,0.08l0.927,0.221l0.931,0.412l0.88,0.678l0.98,0.297l1.073,0.191
		l1.123,0.188h1.02h1.069l0.984,0.197l1.212,0.107l0.934,0.189l1.069,0.189l0.876,0.076l1.216-0.189l1.072-0.299l1.212-0.191
		l1.161,0.041l1.349,0.262l1.304,0.488l1.493,0.377l1.437,0.48l1.124,0.418l1.351,0.602l1.44,0.41l1.12,0.156l1.262,0.217
		l0.846,0.34l1.354,0.451l1.154,0.111l1.12,0.041l1.13,0.045l0.88-0.037l0.74-0.268l0.984-0.07l0.98,0.078l0.984-0.039l1.216,0.225
		l1.069,0.041l1.126,0.111l1.124-0.039l1.066,0.039h0.984l1.021,0.041l1.073,0.072l0.876-0.072l0.794-0.26l0.88-0.07l0.744-0.074
		l1.021,0.074l0.839-0.068l0.845-0.115l0.842-0.113l0.791-0.037l1.124,0.074l1.161-0.037l0.794-0.26l0.74-0.455l0.743-0.525
		l0.563-0.412l0.792-0.297l0.98-0.221l0.883-0.076l0.791,0.037l1.123-0.066l0.883-0.191l0.744-0.371l0.795-0.412l0.509-0.414
		l0.563-0.484l0.373-0.781l0.282-0.639l0.471-0.748l0.146-0.633l0.339-0.783l0.228-0.752l0.289-0.863l0.366-0.936l0.563-0.412
		l0.61-0.557l0.655-0.338l0.651-0.26l0.741-0.453l0.61-0.455l0.607-0.367l0.893-0.527l0.877-0.562l0.848-0.633l0.791-0.602
		l0.987-0.6l0.791-0.602l0.849-0.633l0.791-0.525l0.562-0.602v-0.633l0.146-0.715l0.234-0.824l0.225-0.711l0.648,0.188l0.934,0.484
		l0.841,0.338l1.069,0.525l0.88,0.711l0.849,0.438l0.788,0.484l0.934,0.678l0.739,0.604l1.264,0.598l0.648,0.412l1.019,0.525
		l1.073,0.41l0.979,0.49l0.933,0.34l1.26,0.373l1.069,0.225l0.794,0.072l0.981,0.041l0.842,0.412l1.072,0.453l1.019,0.449
		l1.121,0.484l1.123,0.307h0.984l1.439-0.076l1.215-0.412l0.931-0.334l0.709-0.34l0.646-0.379l0.934-0.146l1.019-0.266l1.022-0.338
		l1.123-0.146l1.022-0.334l0.934-0.152l1.126-0.412l0.74-0.408l0.849-0.412l0.791-0.598l0.509-0.451l0.561-0.525l0.709-0.305
		l1.073-0.338l1.215-0.449l0.842-0.412l0.791-0.41l0.607-0.412l0.703-0.375l0.705-0.371l0.506-0.412l0.475-0.373l0.566-0.525
		l0.475-0.564l0.646-0.785l0.569-0.557l0.648-0.748l0.709-0.527l0.563-0.484l0.607-0.67l0.651-0.711l0.706-0.678l0.705-0.861
		l0.228-0.373l0.231-0.377l0.611-0.525l0.699-0.561l0.705-0.521l0.472-0.486l0.649-0.564l0.475-0.521l0.471-0.598l0.475-0.34
		l0.336-0.451l-0.193-0.525l0.054-0.525l0.424-0.375l0.652-0.486l0.507-0.26l0.515-0.373l0.473-0.484l0.278-0.453l0.56-0.41
		l0.611-0.338l0.568-0.412l0.327-0.432l0.211-0.338l0.206-0.385l0.061-0.314v-0.352l-0.199-0.398l-0.243-0.367l-0.501-0.303
		l-0.643-0.285l-0.506-0.246l-0.383-0.133l-0.472-0.217l-0.462-0.316l-0.38-0.297l-0.345-0.266l-0.655-0.525l-0.31-0.381
		l-0.308-0.498l-0.167-0.449l-0.124-0.342l-0.047-0.229l-0.07-0.273l-0.041-0.383l-0.053-0.4l-0.07-0.463l0.133-0.5l-0.038-0.303
		v-0.4l-0.069-0.338l-0.2-0.338l-0.139-0.35l-0.24-0.215l-0.114-0.258l-0.202-0.387l-0.164-0.336l-0.206-0.301l-0.189-0.25
		l-0.089-0.295l-0.131-0.248l-0.164-0.141l-0.146-0.266l-0.076-0.246l-0.117-0.164l-0.066,0.025l-0.129-0.471l-0.149-0.277
		l-0.25-0.24l-0.209-0.311l-0.173-0.387l-0.276-0.354l-0.301-0.342l-0.316-0.506l-0.291-0.43l-0.297-0.406l-0.339-0.617
		l-0.174-0.379l-0.241-0.516l-0.161-0.314l0.003-0.41l-0.266-1.336l0.07-0.438l0.171-0.338l0.066-0.525l0.129-0.459l0.133-0.326
		l-0.016-0.006l0.127-0.449l-0.051-0.418l-0.019-0.355l-0.107-0.334l-0.285-0.432l-0.316-0.221l-0.428-0.24l-0.338-0.184
		l-0.298-0.229l-0.37-0.221l-0.199-0.352l-0.226-0.41l-0.293-0.176l-0.2-0.139l0.2-0.285l0.199-0.369l0.066-0.301l-0.029-0.256
		l0.01-0.283l-0.061-0.176L122,85.976l-0.408-0.096l-0.271-0.047l-0.387-0.078l-0.311-0.121l-0.294-0.178l-0.199-0.139l-0.335-0.221
		l-0.209-0.264l-0.203-0.186l-0.215-0.201l-0.266-0.113l-0.247-0.117l-0.266-0.098l-0.212-0.102l-0.323-0.088l-0.275-0.092
		l-0.192-0.066l-0.194-0.014l-0.429-0.148l-0.337-0.316l-0.091-0.119l-0.181-0.201l-0.215-0.258l-0.209-0.299l-0.158-0.205
		l-0.181-0.295l-0.127-0.139l-0.332-0.051l-0.339,0.025l-0.474-0.07l-0.561-0.076l-0.886-0.012l-0.706,0.025l-0.475,0.076
		l-0.427,0.07h-0.346l-0.455,0.006h-0.329l-0.487,0.006h-0.398l-0.336-0.064l-0.27-0.1l-0.202-0.242l-0.253-0.271l-0.2-0.271
		l-0.113-0.195l-0.116-0.191l-0.02-0.291l-0.095-0.283l-0.234-0.273l-0.272-0.297l-0.184-0.275l-0.23-0.285l-0.275-0.225
		l-0.272-0.203l-0.38-0.164l-0.373-0.07l-0.339-0.094l-0.471,0.066l-0.51,0.066l-0.336,0.102l-0.408,0.119l-0.338,0.096
		l-0.282,0.076l-0.541,0.15l-0.801,0.102l-0.876-0.113l-0.845-0.338l-0.88-0.418l-0.791-0.072h-1.162h-1.072l-1.063-0.268
		l-0.743-0.525l-0.789-0.258l-0.876-0.412l-0.791-0.451l-0.743-0.377l-1.298-0.713l-1.348-0.75l-1.404-0.791l-1.07-0.564
		l-1.01-0.451l-0.841-0.449l-1.07-0.453l-1.162-0.189l-1.154-0.336l-1.13-0.377l-1.259-0.299L76.8,69.999l-0.928-0.268l-0.787-0.334
		l-1.212-0.336l-1.13-0.266l-0.557-0.145l-0.74,0.029h-0.985l-1.019-0.297l-1.02-0.484l-0.98-0.863l-0.838-0.607l-0.979-0.709
		l-0.794-0.752l-0.835-0.748l-0.563-0.637l-0.607-0.596l-0.703-0.637l-0.611-0.453l-0.363-0.484l-0.335-0.453l-0.503-0.6
		l-0.699-0.715l-0.703-0.525l-0.557-0.602l-0.513-0.566l-0.322-0.637l-0.234-0.822l-0.189-0.785l0.145-0.936l0.148-1.09l0.421-0.938
		l0.513-0.891l0.652-0.748l0.335-0.562l0.281-0.562l0.234-0.336l0.282-0.229l0.329-0.633l0.475-0.602l0.561-0.67l0.471-0.381
		l0.374-0.449l0.56-0.562l0.37-0.557l0.516-0.525l0.332-0.488l0.428-0.373l0.421-0.562l0.427-0.412l0.507-0.602l0.569-0.562
		l0.367-0.561l0.37-0.449l0.339-0.525l0.225-0.41l0.199-0.6l0.228-0.562l0.196-0.896l0.336-0.635l0.054-0.674l0.189-0.525
		l0.111-0.619l-0.067-0.654l-0.192-0.45l-0.082-0.603l0.146-0.6L68.8,32.823l-0.05-0.449l-0.165-0.312l0.066-0.677l0.022-0.424
		l0.019-0.538l0.102-0.406l0.092-0.564l0.189-0.412l-0.051-0.337l0.282-0.638l0.237-0.713l0.513-0.674l0.364-0.525l0.42-0.412
		l0.634-0.473l0.743-0.372l0.607-0.263l0.702-0.412l0.513-0.337l0.608-0.337l0.642-0.411l0.795-0.374l0.699-0.525l0.654-0.372
		l0.561-0.377l0.572-0.337l0.643-0.337l0.716-0.22l0.698-0.188l0.843-0.149l0.74-0.148l0.987-0.149l0.791-0.111l1.076-0.297
		l0.876-0.114l0.744-0.297l0.702-0.302l0.699-0.297l0.472-0.188l0.611-0.259l0.442-0.275l0.506-0.405l0.64-0.33l0.326-0.337
		l0.561-0.525l0.339-0.263l0.468-0.449l0.576-0.823l0.356-0.338l0.203-0.45l0.357-0.411l0.437-0.299l0.329-0.337l0.418-0.449
		l0.376-0.562l0.421-0.372l0.422-0.376l0.421-0.375l0.427-0.525l0.743-0.634l0.421-0.562l0.564-0.486l0.61-0.374l0.794-0.524
		l0.74-0.451l0.699-0.376l0.887-0.336l0.797-0.224l0.557-0.188l0.608-0.261l0.512-0.225l0.75-0.188l0.605-0.298l0.709-0.262
		l0.568-0.337l0.839-0.45l0.377-0.451l0.421-0.303l0.278-0.411l0.468-0.372l0.513-0.299l0.424-0.227l0.561-0.299l0.572-0.116
		l0.336-0.262l0.398-0.224l0.476-0.225l0.629-0.214l0.342-0.188l0.62-0.347l0.427-0.226l0.336-0.188l0.339-0.185l0.64-0.124
		l0.414-0.19l0.516-0.021l0.611-0.223l0.461-0.278l0.697-0.182l0.566-0.177l0.531-0.292l0.588-0.22l0.703-0.253l0.607-0.139
		l0.57-0.13l0.746-0.116l0.89-0.411l0.405-0.107l0.882-0.276l0.548-0.114l0.405-0.084l0.373-0.077l0.411-0.085l0.475-0.094
		l0.608,0.013l0.445,0.007l0.469,0.011l0.247,0.196l0.266,0.215l0.316,0.251l0.345,0.275l0.275,0.309l0.472,0.541l0.411,0.463
		l0.398,0.451l0.349,0.388l0.513,0.389l0.437,0.334l0.219,0.383l0.313,0.521l0.606,0.432l0.421,0.288l0.529,0.374l0.357,0.468
		l0.469,0.324l0.436,0.26l0.367,0.299l0.507,0.486l0.513,0.301l0.698,0.376l0.371,0.337l0.651,0.485l0.646,0.561l0.471,0.565
		l0.607,0.375l0.706,0.639l0.74,0.561l0.513,0.414l0.93,0.562l0.792,0.335l0.791,0.188l0.928,0.411l1.016,0.603l0.791,0.451
		l0.698,0.451l0.84,0.524l0.742,0.639l0.608,0.603l0.784,0.674l0.611,0.638l0.329,0.565l0.648,0.823l0.228,0.525l0.47,0.674
		l0.139,0.674l0.278,0.748l0.56,0.749l0.475,0.787l0.463,0.788l0.651,0.638l0.335,0.788l0.361,0.862l0.23,0.678l0.367,0.745
		l0.188,1.011l0.468,0.713l0.427,0.712l0.608,0.639l0.61,0.223l0.646,0.148l0.506,0.451l0.652,0.711l0.607,0.674l0.788,0.674
		l0.93,0.64l0.563,0.375l0.507,0.411l0.563-0.635l0.75-1.348l0.74-1.011l0.794-0.823l0.655-0.788l0.517-1.2l0.515-1.123l0.282-0.749
		l0.418-0.596l0.606-0.749l0.476-0.71l0.512-0.674l0.51-0.748l0.368-0.674l0.512-0.749l0.607-0.662l0.659-0.764l0.61-0.784
		l0.841-0.975l0.57-0.6l0.646-0.748l0.475-0.525l0.421-0.525l0.374-0.524l0.424-0.562l0.186-0.56l0.285-0.636l0.339-0.634
		l0.281-0.375l0.14-0.263l0.284-0.302l0.371-0.223l0.301-0.078l0.397-0.068l0.517-0.188l0.607-0.299l0.517-0.598l0.742-0.263
		l0.562-0.373l0.651-0.263l0.61-0.337l0.472-0.411l0.743-0.449l0.472-0.377l0.424-0.297l0.263-0.457l0.36-0.525l0.425-0.337
		l0.034-0.046l-0.474-0.505l-2.085-1.552l-0.791-0.625l-0.826-0.674l-0.501-0.405l-0.486-0.688l-0.709-1.012l-0.74-0.621
		l-0.563,0.185l-1.072,0.631l-1.247,0.043l-1.665,0.166l-2.199,0.397l-1.076,0.231l-1.36,0.064l-1.554,0.18l-1.089-0.242
		l-0.88-2.297l-0.424-1.008l-0.91-1.002l-1.637-1.363l-0.921-1.163l-0.959-0.912l-1.174-0.547l-0.89-0.321l-0.639-0.331
		l-0.054-1.354l-0.117-0.994l-0.563-1.06l-1.189-0.334l-1.146,0.093l-1.277-0.35l-1.551-0.541l-0.636-0.78l-0.611-0.399l-0.55-0.071
		l-1.583,0.106l-1.063,0.479l-2.184-0.783l-1.568-0.733l-0.624-1.429l-1.136-1.848l-0.791-0.668l-0.449-0.671l-0.684-1.729
		l0.822-0.949l1.675-1.378l0.392-0.508l-0.162-1.057l-0.034-0.126l-0.879-2.335l0.243-0.881l1.178-1.456l0.962-1.598l-0.678-1.415
		l-0.651-1.051l-1.552-0.914l-2.43-0.313l-1.237,0.541l-0.465,2.177l-0.763,0.891l-3.307,2.09l-3.174-1.082h-1.311l-1.411,0.438
		l-0.978,0.622l-0.88,0.845l-1.146,1.298l-0.791,0.751l-1.589,1.082l-1.225,0.22l-1.222-0.062l-1.411-0.21l-2.585-0.68l-1.922-0.823
		l-1.277,0.748l-0.263,1.135l0.472,1.068l0.693,1.913l-0.14,0.398l-1.901-0.282l-1.688-0.256l-1.222-0.157l-2.291-0.783
		l-0.714-0.247l-1.217-0.628l-1.661,0.009l-1.192,0.353l-1.689,0.269l-1.346-0.032l-0.739-0.148l-0.932-0.011l-1.109,0.036
		l-0.757,0.136l-0.127,0.708l-0.249,0.76l-0.583,0.369l-0.746,0.049l-1.69-0.107l-1.972,0.155l-2.212,0.073l-1.627-0.302
		l-1.034-0.723l-0.74-0.479l-0.054-0.9l0.48-1.082l0.592-0.707l0.722-1.402l-0.212-0.84l-0.206-0.978l0.017-1.319l0.62-1.253
		l0.288-0.883l0.139-0.792l-0.26-1.076l-0.797-1.345l-0.493-1.036l-0.729-0.742l-0.829-1.268l-0.74-0.766l-0.626-0.86l-1.146-0.912
		l-0.798-0.907l-0.56-0.855l-0.744-0.956l-0.243-0.807l-0.338-0.652l0.195-1.791l-0.047-0.816l-0.911-0.5l-1.079-0.103l-1.5-0.241
		l-1.596-0.074l-1.145-0.077l-1.826-0.081l-0.472,0.188l-1.725,1.114l-0.602,0.09l-1.24-0.236l-1.449-0.532l-1.421-0.56l-1.393-0.72
		l-1.879-1.438l-0.99-1.276l-0.473-0.921l-0.043-1.299l-0.931-0.259l-1.149,0.687l-0.335,0.309l-0.602,0.038l-0.521-0.003
		l-0.766,0.215l-0.503,0.216l-0.624,0.168l-0.472,0.049l-0.623-0.052l-0.117,0.315v0.216l0.212,0.483l0.003,0.386v0.433
		l-0.588,0.315l-0.731,0.194l-0.607,0.217l-0.506,0.169l-0.573,0.246l-0.33,0.147L53.5-51.15l-0.288,0.205l-0.271,0.237
		l-0.402,0.278l-0.459,0.35l-0.025,0.045l-0.401,0.295l-0.39,0.148l-0.534,0.169l-0.472,0.142l-0.48,0.003l-0.336-0.055
		l-0.475,0.126l-0.636,0.009l-0.472-0.112l-0.475-0.098l-0.627-0.155l-0.516-0.049l-0.521,0.003l-0.558,0.169l-0.592,0.081
		l-0.623,0.216l-0.64,0.165l-0.812,0.256l-0.63,0.182l-0.801,0.093h-0.61l-0.652-0.266l-0.421-0.193l-0.462-0.182l-0.459-0.127
		l-0.335-0.139l-0.111-0.435l-0.047-0.44l0.11-0.278l0.155-0.347l0.127-0.467l-0.035-0.38l0.051-0.418l-0.234-0.167l-0.288-0.287
		l-0.23-0.216l-0.326-0.324l-0.278-0.354l-0.203-0.382l-0.066-0.511l-0.012-0.322l-0.048-0.544l-0.063-0.272l-0.497,0.223
		l-0.437-0.025l-0.421,0.091l-0.534-0.065l-0.476-0.146l-0.585-0.22l-0.668-0.225l-0.643-0.258l-0.439-0.21l-0.266-0.26l0.272-0.506
		l0.171-0.262l0.332-0.522l0.284-0.625l0.317-0.505l0.338-0.441l0.171-0.316l0.028-0.543l-0.437-0.465l-0.617-0.324l-0.636-0.208
		l-0.734-0.346l-1.06-0.503l-0.301-0.136l-0.459-0.307L28.6-63.045l-0.607-0.479l-0.598-0.424l-0.298-0.46l-0.392-0.312
		l-0.326-0.272l-0.421-0.179l-0.393-0.069l0.092,0.411l-0.244,0.412l-0.085,0.285l-0.228,0.241l-0.434,0.142l-0.51-0.064
		l-0.472-0.078l-0.519-0.015l-0.52-0.032l-0.538-0.03l-0.356,0.182l-0.877,0.104l-0.874,0.359l-0.921,0.263l-0.952-0.009
		l-1.038,0.303l-1.281-0.074l-0.898,0.049l-0.699-0.059l-0.535,0.022l-0.737,0.12l-0.643-0.169l-0.955-0.177l-0.443-0.275
		l-0.434-0.172l-0.582-0.204l-0.671-0.201l-0.57-0.242l-0.613-0.253l-0.744-0.13L6.77-64.821l-0.741-0.182l-1.01-0.049l-1.082-0.21
		l-1.218-0.162l-0.766-0.068l-1.408-0.104l-1.554-0.313l-1.014-0.473l-0.977-0.788l-0.811-0.321l-0.798-0.544l-1.04-0.557
		l-0.346-0.723l-0.636-0.992l-0.354-1.065l-0.19-1.044l-0.687-0.538l-0.987-0.372l-0.854-0.547l-0.624-0.535l-0.579-0.488
		l-0.731-0.677l-1.699-1.095l-0.683-0.541l-0.801-0.499l-0.637-0.398l-1.493-0.921l-0.763-0.813l-0.677-0.585l-0.829,0.409
		l-1.048,0.437l-0.613,0.337l-0.722,0.343l-0.808,0.34l-0.651,0.525l-0.689,0.451l-0.339,0.476l-0.731,0.415l-0.569,0.563
		l-0.373,0.367l-0.744,0.065l-0.654,0.068l-0.741,0.028l-0.829,0.095l-0.743,0.1l-0.725,0.312l-0.823,0.022l-0.832,0.13
		l-1.044,0.047l-0.924,0.195l-0.931,0.299l-0.592,0.282l-0.576,0.111l-0.607,0.421l-0.187,0.195l-0.26,0.511l-1.363,2.658
		l-0.364,0.751l-0.402,0.641l-0.401,0.677l-0.275,0.72l-0.439,0.609l-0.203,0.547l-0.285,0.302l-0.256,0.477l-0.184,0.656
		l-0.442,0.606l-0.415,0.819l-0.456,0.643l-0.345,0.646l-0.192,0.353l-0.143,0.402l-0.399,0.641l-0.278,0.757l-0.354,0.786
		l-0.37,0.856l-0.424,0.888l-0.544,0.846l-0.225,0.653l-0.475,0.467l-0.301-0.544l-0.089-0.424l-0.06-0.421l-0.099-0.357
		l-0.335,0.578l-0.662,0.665l-0.746,0.696l-0.538,0.706l-0.74,0.661l-0.75,0.727l-0.719,0.321l-0.861,0.443l-0.974,0.262
		l-0.934-0.226l-0.788-0.291l-0.807-0.494l-0.175,0.376l-0.072,0.869l-0.687,0.485l-0.775,0.486l-0.769-0.042l-0.843-0.326
		l-0.601-0.558l-0.247-0.678l-0.076-0.634l0.07-0.732l0.057-0.732l-0.301-1.147l-0.082-0.563l-0.939-0.157l-0.358-0.229
		l-0.478-0.515l-0.434-0.478l-0.411-0.269l-0.5-0.233l-0.39,0.57l-0.342,0.609l-0.196,0.691l-0.294,0.369l-0.415,0.917l-0.512,1.2
		l-0.652,0.674l-1.12-0.339l-1.072-0.563l-1.349-0.477l-1.028,0.541l-1.294,0.529l-1.076,0.541l-0.902,0.547h-1.256l-1.269-0.343
		l-0.61,0.272l-0.463,0.393l-0.18,0.511l-0.146,0.73l-0.072,0.525l-0.256,0.641l-0.158,0.405l-0.253,0.633l-0.611,0.501
		l-0.617,0.337l-0.354,0.188l0.339,0.612l0.189,0.278l0.257,0.383l0.521,0.39l0.529,0.285l1.082,0.514l0.472,0.327l0.117,0.405
		l0.348,0.5l0.349,0.52l0.474,0.402l0.415,0.198l0.437,0.065l0.487,0.275l0.285,0.315l0.471,0.467l0.295,0.3l0.598,0.59
		l-0.136,0.473l-0.393,0.396l-0.462,0.458l-0.367,0.343l-0.648,0.431l-0.446,0.25l-0.247,0.208l-0.082,0.235l0.5,0.08l0.541,0.132
		l0.478,0.109l0.456,0.126l0.5,0.133l0.563,0.149l0.607,0.204l0.373,0.108l0.39,0.139l0.263,0.188l0.089,0.21l-0.086,0.272
		l0.168,0.269l0.215,0.253l0.254,0.272l0.145,0.301l0.149,0.231l0.136,0.405l0.184,0.353l0.202,0.249l0.155,0.202l-0.066,0.338
		l-0.133,0.354l-0.051,0.356l-0.161,0.424l-0.086,0.287l-0.072,0.275l0.003,0.239l0.219,0.256l0.187,0.232l0.066,0.331l0.019,0.312
		l-0.006,0.343l-0.028,0.343l-0.244,0.368l0.203,0.184l0.021,0.117l-0.069,0.25l-0.066,0.186l-0.222,0.247l-0.253,0.169
		l-0.326,0.245l-0.421,0.346l-0.414,0.222l-0.285,0.125l-0.304,0.172l-0.294,0.191l-0.422,0.012l-0.307,0.121l-0.338,0.223
		l-0.405,0.064l-0.354,0.121l-0.326-0.04l-0.475,0.011l-0.513,0.074l-0.654,0.047l-0.548,0.21l-0.472,0.062l-0.338,0.105
		l-0.497,0.112l-0.602,0.141l-0.469,0.112l-0.212,0.095l0.066,0.402l0.01,0.415l-0.028,0.343l-0.044,0.292l-0.013,0.396l-0.07,0.392
		l-0.066,0.427l-0.187,0.337l-0.206,0.399l-0.236,0.333l-0.278,0.295l-0.313,0.225l-0.456,0.251l-0.393,0.176l-0.576,0.226
		l-0.458,0.185l-0.593,0.107l-0.42,0.236l-0.438,0.201l-0.544,0.21l-0.44,0.201l-0.527,0.237l-0.402,0.269l-0.421,0.272
		l-0.272,0.239l-0.107,0.253l-0.101,0.237l-0.063,0.272l-0.089,0.288l-0.148,0.301l-0.2,0.201l-0.146,0.234l-0.088,0.235
		l-0.234,0.263l-0.155,0.354l-0.171,0.285l-0.069,0.356l-0.066,0.34l-0.054,0.271l-0.219,0.25l-0.322,0.189l-0.476,0.283
		l-0.474,0.288l-0.5,0.166l-0.384,0.013l-0.683-0.082l-0.516-0.087h-0.44l-0.469,0.227l-0.37,0.26l-0.297,0.194l-0.288,0.126
		l-0.39,0.25l-0.237,0.103l-0.263,0.142l-0.281,0.241l-0.421,0.158l-0.335,0.318l-0.611,0.314l-0.196,0.297l-0.322,0.155
		l-0.472,0.269l-0.373,0.169l-0.146,0.016l-0.259,0.163l-0.272,0.162l-0.427,0.21l-0.26,0.087l-0.26,0.123l-0.345,0.114
		l-0.363,0.161L-99.76-8.958"/>
</g>
<g id="Layer_1_1_">
</g>
</svg>
