<?xml version="1.0" encoding="iso-8859-1"?>
<!-- Generator: Adobe Illustrator 16.0.4, SVG Export Plug-In . SVG Version: 6.00 Build 0)  -->
<!DOCTYPE svg PUBLIC "-//W3C//DTD SVG 1.1//EN" "http://www.w3.org/Graphics/SVG/1.1/DTD/svg11.dtd">
<svg version="1.1" xmlns="http://www.w3.org/2000/svg" xmlns:xlink="http://www.w3.org/1999/xlink" x="0px" y="0px"
	 width="41.629px" height="46.504px" viewBox="0 0 41.629 46.504" style="enable-background:new 0 0 41.629 46.504;"
	 xml:space="preserve">
<g id="Layer_178">
	<g id="Layer_183">
		<path id="Badin" style="fill:#CCCCCC;stroke:#FFFFFF;stroke-width:1.07;" d="M26.107,0.507
			L26.107,0.507l-0.315,0.106l-0.325,0.13l-0.134,0.109L25.277,0.98L25.254,1.05l-0.061,0.068l-0.015,0.016l-0.131,0.101
			L24.94,1.353l-0.122,0.193l-0.065,0.078l-0.089,0.058l-0.097,0.02L24.374,1.71l-0.133,0.031l-0.176,0.081l-0.274,0.175
			l-0.218,0.125l-0.135,0.061l-0.133,0.002l-0.073-0.018l-0.126-0.11L22.989,1.93l-0.118-0.073l-0.046,0.013l-0.022,0.059
			l0.003,0.083l0.024,0.084l0.026,0.071l-0.008,0.149l-0.058,0.115l-0.01,0.046L22.78,2.523l-0.001,0.062l0.023,0.143l0.071,0.18
			L22.9,2.982l0.011,0.143l-0.035,0.153l-0.131,0.15l-0.171,0.068L22.376,3.54l-0.312,0.028l-0.207,0.038l-0.322,0.096l-0.162,0.062
			l-0.092,0.008L21.084,3.77l-0.278-0.01l-0.18,0.036l-0.202,0.057l-0.317,0.082l-0.374,0.109L19.405,4.16l-0.354,0.115L18.737,4.35
			l-0.344,0.027l-0.155-0.03L18.029,4.2l-0.084-0.159l-0.021-0.153l0.003-0.13l0.012-0.153l0.042-0.152l0.01-0.071l0.109-0.189
			l0.057-0.104l0.053-0.1l0.016-0.087l-0.026-0.046l-0.046-0.021l-0.146-0.03l-0.169-0.009l-0.184-0.019L17.577,2.75l-0.168-0.114
			l-0.095-0.061l-0.087-0.034l-0.172-0.078l-0.109-0.06l-0.25-0.112l-0.146-0.052l-0.068-0.006l-0.069,0.021l0.003,0.083
			l-0.023,0.069l-0.003,0.15l-0.108,0.272L16.106,3.08l-0.151,0.211l-0.297,0.208L15.42,3.637l-0.271,0.086l-0.26,0.065
			l-0.091,0.049l-0.069,0.061l-0.002,0.092l0.01,0.062l0.088,0.071l0.123,0.033l0.178,0.035l0.077,0.072l0.03,0.104l-0.03,0.129
			l-0.261,0.138L14.59,4.748l-0.293,0.057l-0.202,0.036l-0.158,0.026l-0.181,0.078L13.63,5.023l-0.137,0.068L13.402,5.13
			l-0.135-0.013l-0.123-0.013l-0.056,0.019l-0.047,0.062l-0.023,0.05l0.041,0.154L13.046,5.49l-0.048,0.081l-0.125,0.048
			l-0.157,0.048l-0.202,0.026l-0.228,0.077L12.16,5.849l-0.125,0.1l-0.17,0.068l-0.169,0.037l-0.125,0.048l-0.092,0.109
			l-0.093,0.102l-0.013,0.061l-0.002,0.041l0.056,0.072l0.077,0.032l0.18,0.004l0.089,0.021l0.066,0.054l0.119,0.113l0.089,0.084
			l0.089,0.021l0.09,0.002l0.124-0.038l0.261-0.117l0.272-0.126l0.26-0.086l0.26-0.057l0.089,0.002l0.067,0.021l0.054,0.073
			l0.03,0.144L13.619,6.75l-0.104,0.109L13.16,7.168l-0.354,0.278l-0.365,0.298L12.065,7.98l-0.284,0.146l-0.192,0.14l-0.24,0.188
			l-0.445,0.327l-0.34,0.187l-0.328,0.126L10.01,9.13L9.785,9.115l-0.2-0.045L9.519,9.069l-0.023,0.05l0.008,0.06l0.131,0.205
			l0.218,0.22l0.156,0.055l0.257,0.035l0.223,0.056l0.244,0.098l0.198,0.115l0.24,0.239l0.172,0.289l0.13,0.227l0.128,0.228
			l0.099,0.104l0.177,0.116l0.154,0.064l0.245,0.056l0.033,0.021l-0.001,0.041l-0.001,0.029l-0.049,0.111l-0.067,0.069l-0.002,0.062
			l-0.001,0.051l0.064,0.062l0.121,0.084l0.155,0.054l0.09,0.002l0.045,0.001l0.046-0.028l0.013-0.052l0.003-0.111l0.013-0.081
			l0.024-0.052l0.056-0.009l0.078,0.043l0.169,0.122l0.177,0.085l0.244,0.098l0.198,0.105l0.319,0.181l0.254,0.147l0.188,0.156
			l0.085,0.165l0.195,0.228l0.252,0.24l0.286,0.169l0.32,0.141l0.29,0.047l0.544,0.144l0.211,0.076l0.089,0.062l0.086,0.136
			l0.041,0.144l-0.002,0.028l-0.016,0.335l-0.058,0.519l-0.104,0.13l-0.158,0.078l-0.092,0.061l-0.023,0.08l0.062,0.154l0.107,0.195
			l0.162,0.177l0.054,0.104l-0.015,0.143l-0.052,0.192l-0.062,0.253l-0.003,0.092l0.063,0.113l0.254,0.139l0.108,0.114l0.163,0.166
			l0.042,0.103l-0.001,0.062l-0.059,0.06l-0.222,0.12l-0.21,0.08l-0.118,0.046l-0.293,0.125l-0.125,0.049l-0.11-0.003l-0.056-0.052
			l-0.009-0.092l-0.017-0.194l-0.031-0.133l-0.054-0.072l-0.076-0.062l-0.104,0.059l-0.023,0.092l-0.024,0.062l-0.202,0.046
			l-0.234,0.016l-0.48,0.011l-0.156-0.015l-0.065-0.021l-0.056-0.062l0.003-0.061l0.003-0.112l0.053-0.323l0.028-0.244l0.004-0.153
			l-0.054-0.123l-0.099-0.062l-0.146-0.004l-0.279-0.006l-0.336,0.034l-0.236,0.036l-0.146,0.077l-0.047,0.071l-0.092,0.049
			l-0.189,0.047l-0.314,0.044l-0.124,0.038l-0.047,0.102l-0.002,0.052l0.088,0.083l0.232,0.087l0.076,0.093l0.02,0.122l-0.014,0.092
			l-0.07,0.101l-0.09,0.061l-0.124,0.027l-0.18,0.036l-0.247,0.058l-0.192,0.057l-0.418,0.175l-0.508,0.203l-0.587,0.279
			l-0.169,0.078l-0.272,0.137L9.95,18.54L9.85,18.507l-0.075-0.104l-0.085-0.163L9.596,17.94L9.52,17.869l-0.078-0.032l-0.234-0.005
			l-0.381,0.021L8.558,17.87l-0.155-0.034l-0.354-0.17l-0.109-0.054l-0.067-0.012l-0.09,0.039l-0.046,0.05l-0.048,0.111
			l-0.081,0.131l-0.148,0.119l-0.136,0.1l-0.193,0.128l-0.093,0.12l-0.104,0.183l-0.026,0.151l0.007,0.193L6.89,18.997l-0.057,0.039
			l-0.057-0.001L6.634,18.92l-0.197-0.177l-0.118-0.176L6.29,18.343l0.004-0.163l-0.043-0.072l-0.044-0.03l-0.066,0.019l-0.059,0.07
			L6.021,18.41l0.028,0.143l0.054,0.153l-0.002,0.082l-0.023,0.04l-0.112,0.049l-0.078,0.028l-0.046,0.021l-0.047,0.101L5.79,19.148
			L5.743,19.26l-0.057,0.039l-0.113,0.039l-0.09,0.049l-0.047,0.103l-0.047,0.09l-0.104,0.08l-0.09,0.027l-0.077-0.062l-0.152-0.166
			l-0.165-0.114l-0.076-0.073l-0.066-0.001L4.58,19.299L4.557,19.37l0.021,0.133l0.107,0.175l0.031,0.062L4.62,19.972l-0.264,0.342
			l-0.285,0.41l-0.039,0.266l0.007,0.192l0.04,0.186l-0.022,0.091l-0.069,0.091l-0.124,0.048l-0.158,0.058l-0.18,0.028L3.393,21.66
			l-0.155-0.064l-0.1-0.032L3.06,21.572l-0.104,0.091l-0.046,0.04L2.81,21.722l-0.101-0.032l-0.123,0.019l-0.19,0.078L2.19,21.914
			l-0.352,0.218l-0.238,0.199L1.329,22.54l-0.184,0.17l-0.125,0.14l-0.325,0.179l-0.001,0.126l-0.047,0.173l-0.043,0.197
			L0.537,23.67l-0.001,0.067l0.038,0.104l0.066,0.069l0.171,0.13l0.129,0.097l0.217,0.089l0.121,0.072l0.092,0.059l0.041,0.068
			l0.004,0.1l-0.014,0.156l-0.055,0.176L1.285,25.02l-0.084,0.202l-0.035,0.19L1.127,25.76l-0.026,0.263l0.012,0.149l0.059,0.126
			l0.062,0.134l0.023,0.1l-0.033,0.146l-0.067,0.152l-0.103,0.103l-0.229,0.141l-0.163,0.105L0.61,27.231l-0.001,0.152l0.033,0.08
			l0.059,0.081l0.062,0.038l0.158,0.016l0.158,0.051l0.201,0.098l0.104,0.084l0.096,0.168l0.129,0.207l0.074,0.189l0.039,0.176
			l0.029,0.139l0.106,0.082l0.05,0.195l-0.024,0.105l-0.264,0.255L1.495,29.52l0.033,0.125l0.178,0.343l0.262,0.629l0.063,0.304
			l0.071,0.127l0.134,0.041l0.231-0.009l0.155-0.029l0.137,0.005l0.073,0.073l0.073,0.092l-0.004,0.088l-0.043,0.104L2.74,31.461
			l-0.138,0.048L2.539,31.63L2.46,32.086l0.005,0.318l-0.116,0.438l-0.007,0.141l0.05,0.196L2.5,33.308l0.342,0.154l0.075,0.039
			l0.033,0.124l0.023,0.478l-0.09,0.244l-0.083,0.545l0.033,0.531l0.069,0.586l0.188,0.538l0.16,0.307l0.131,0.11l0.156-0.047
			l0.141-0.102l0.104-0.154l0.32-0.234l0.235-0.097l0.253-0.044l0.272-0.024l0.172,0.042l0.108,0.163l-0.079,0.438l-0.129,0.277
			l-0.228,0.292l-0.143,0.171l-0.104,0.139l-0.005,0.122l0.05,0.162l0.228,0.114l0.135,0.006l0.097,0.003l0.062-0.066l0.044-0.123
			l0.08-0.05l0.094,0.057L5.3,38.1l0.203,0.202l0.415,0.211l0.306,0.083l0.387-0.003l0.229,0.08l0.358,0.189l0.78,0.243l0.667,0.187
			l0.385,0.033l0.266,0.1l0.482,0.019l0.25,0.011l0.37-0.056l0.121-0.119l0.16-0.116l0.121-0.119l0.118-0.048l0.21-0.021
			l0.683-0.114l1.087-0.098l1.024-0.028l1.216,0.016l0.849,0.069l0.251-0.006l0.089,0.145l0.161,0.254l0.294,0.72l0.104,0.623
			l0.146,0.554l0.11,0.5l0.11,0.481l0.128,0.102l-0.021,0.115l0.38,0.368l0.133-0.219l0.214-0.187l0.815-0.242l0.537-0.134
			l0.879-0.216l0.235,0.377L20.531,42.3l-0.021,0.23l0.2,1.577l0.147,0.72l0.037,0.183l0.186,0.495l0.123,0.328l0.164,0.092
			l0.035,0.02l0.047,0.001l0.432,0.021l0.145-0.041l0.253-0.338l0.229-0.461l0.077-0.249l0.001-0.096l0.003-0.238l0.286-0.938
			l0.045-0.145l0.343-0.474l0.542-0.391l0.634-0.295l0.047-0.021l0.07,0.003l0.23,0.012l0.069,0.037l0.141,0.073l0.227,0.392
			l0.14,0.241l0.22,0.327l0.177,0.266l0.11,0.321l0.438,0.67l0.454,0.373l0.198,0.092l0.593,0.019l0.548-0.132l1.068-0.542
			l0.771-0.455l0.504-0.298l0.006-0.003l-0.007-0.25l0.034-0.097l0.036-0.294l0.023-0.229l-0.04-0.146l-0.178-0.311l-0.269-0.436
			l-0.293-0.574l-0.117-0.528l0.073-0.347l0.05-0.069l0.101-0.115l0.024-0.149l-0.002-0.207l-0.026-0.265l-0.064-0.207l-0.026-0.186
			l0.037-0.161l0.11-0.369l0.074-0.366l0.05-0.127l0.112-0.14L30.213,38l0.049-0.23l0.035-0.356l0.035-0.496l0.048-0.288l0.075-0.14
			l0.112-0.127l0.087-0.161l0.074-0.242l0.011-0.173l-0.001-0.207l0.036-0.162l0.05-0.092l0.051-0.069l0.088-0.012l0.127,0.057
			l0.15,0.045l0.164-0.013l0.149-0.081l0.125-0.187l0.124-0.275l0.058-0.229l0.087-0.196l0.213-0.208l0.238-0.187l0.163-0.104
			l0.265-0.095l0.162-0.127l0.326-0.267l0.326-0.188l0.401-0.242l0.201-0.187l0.465-0.279l0.327-0.186l0.339-0.267l0.113-0.048h0.05
			l0.062,0.059l0.039,0.161l0.025,0.138l0.063,0.149l0.089,0.033l0.127-0.034l0.175-0.14l0.288-0.335l0.217-0.213l-0.047-0.132
			l-0.142-0.154l-0.116-0.072l-0.146-0.132l-0.188-0.106l0.008-0.013l0.002-0.055l0.05-0.054l0.098-0.062l0.184-0.083l0.208-0.114
			l0.074-0.063l0.086-0.063l0.062-0.073l0.062-0.064l0.025-0.076l0.003-0.077l-0.068-0.101l-0.256-0.227l-0.139-0.201l-0.198-0.191
			l-0.209-0.203l-0.188-0.158l-0.078-0.166l-0.033-0.102l0.003-0.064l0.026-0.087l0.111-0.097l0.135-0.084l0.12-0.008l0.118,0.069
			l0.175,0.17l0.186,0.19l0.103,0.188l0.091,0.179l0.127,0.146l0.082,0.046l0.049,0.002l0.062-0.031l0.088-0.118l0.018-0.164
			l0.01-0.272l0.023-0.373L37.2,28.464l0.007-0.197l0.028-0.151l0.052-0.108l0.101-0.138l0.174-0.149l0.193-0.061l0.122-0.062
			l0.027-0.087l0.015-0.076l-0.08-0.123l-0.222-0.182l-0.249-0.104l-0.297-0.107l-0.249-0.105l-0.25-0.071l-0.107-0.036
			l-0.033-0.034l0.001-0.044l0.042-0.186l0.214-0.278l0.188-0.271l0.176-0.225l0.138-0.14l0.184-0.104l0.259-0.189l0.148-0.105
			l0.063-0.071l0.053-0.106l0.122-0.074l0.195-0.104L38.41,24.7l0.315-0.102l0.218-0.049l0.206-0.038l0.109-0.062l0.074-0.074
			l0.04-0.098l-0.01-0.077l-0.094-0.047l-0.287-0.053l-0.589-0.006l-0.266-0.008l-0.106-0.035l-0.104-0.135l-0.075-0.266
			l-0.076-0.222l0.016-0.099l0.05-0.064l0.087-0.053l0.203,0.017l0.242-0.025l0.486-0.161l0.23-0.104l0.088-0.097l0.256-0.103
			l0.413-0.131l0.296-0.15l0.16-0.084l0.149-0.16l0.147-0.127l0.125-0.14l0.054-0.143l0.018-0.142l0.039-0.108l0.039-0.063
			l0.05-0.055l0.049-0.021l0.017-0.109l0.005-0.13v-0.013l-0.03-0.165l-0.019-0.177l-0.031-0.11l-0.083-0.058l-0.12-0.015
			l-0.154-0.049l-0.166-0.081l-0.188-0.147l-0.14-0.157l-0.038-0.134L40,20.004l0.02-0.054l0.045-0.067l0.061-0.06l0.088-0.083
			l0.035-0.054l0.027-0.066l0.003-0.093l-0.015-0.062l0.002-0.054l0.035-0.068l0.111-0.058l0.077-0.029l0.053-0.06l0.055-0.1
			l0.052-0.037l0.077-0.043l0.052-0.037l0.036-0.053l0.003-0.077l-0.023-0.055l-0.022-0.077l0.027-0.084l0.062-0.044l0.054-0.075
			l0.045-0.099l0.021-0.13l-0.001-0.23L41,17.895l0.037-0.098l0.044-0.061l0.011-0.062l0.002-0.068l-0.003-0.146l-0.062-0.132
			l-0.178-0.197l-0.146-0.181l-0.088-0.118l-0.027-0.192v-0.275l-0.051-0.226l-0.143-0.25l-0.113-0.148l-0.156-0.127l-0.164-0.12
			l-0.154-0.158l-0.113-0.148l-0.084-0.1l-0.001-0.23l0.021-0.338l0.039-0.168l-0.021-0.115l-0.075-0.024l-0.077,0.044l-0.063,0.159
			l-0.104,0.065l-0.224,0.141l-0.23,0.062l-0.236,0.018l-0.422,0.004l-0.36-0.058l-0.557-0.037l-0.413-0.013l-0.381,0.051
			l-0.622,0.184l-0.265,0.085l-0.264,0.077l-0.237,0.023l-0.169-0.005l-0.15-0.042l-0.139-0.119l-0.078-0.143l-0.086-0.202
			l-0.142-0.326l-0.145-0.258l-0.138-0.173l-0.155-0.165l-0.387-0.205l-0.23-0.111l-0.375-0.06l-0.053-0.099l-0.008-0.11
			l0.054-0.095l0.084-0.139l0.042-0.134l0.013-0.122l-0.055-0.188l-0.076-0.179l-0.177-0.168l-0.309-0.197l-0.312-0.148
			l-0.289-0.166l-0.117-0.075l-0.348-0.237l-0.147-0.16l-0.086-0.152l0.007-0.122l-0.028-0.291l-0.044-0.277l-0.188-0.254
			l-0.309-0.212l-0.416-0.184L29.8,9.368l-0.387-0.073l-0.355-0.116l-0.34-0.161l-0.227-0.145l-0.175-0.064l-0.192-0.124
			l-0.298-0.217l-0.352-0.226l-0.343-0.245l-0.237-0.241l-0.152-0.212l-0.153-0.373l-0.092-0.468l-0.04-0.53l0.021-0.448
			l-0.057-0.641L26.36,4.25L26.34,4.062l-0.043-0.466l-0.013-0.49l-0.036-0.769l-0.032-0.529l-0.062-0.362l-0.042-0.328
			l-0.005-0.522V0.507"/>
	</g>
</g>
<g id="Layer_1">
</g>
</svg>
