<?xml version="1.0" encoding="iso-8859-1"?>
<!-- Generator: Adobe Illustrator 16.0.4, SVG Export Plug-In . SVG Version: 6.00 Build 0)  -->
<!DOCTYPE svg PUBLIC "-//W3C//DTD SVG 1.1//EN" "http://www.w3.org/Graphics/SVG/1.1/DTD/svg11.dtd">
<svg version="1.1" xmlns="http://www.w3.org/2000/svg" xmlns:xlink="http://www.w3.org/1999/xlink" x="0px" y="0px"
	 width="56.033px" height="37.478px" viewBox="0 0 56.033 37.478" style="enable-background:new 0 0 56.033 37.478;"
	 xml:space="preserve">
<g id="Layer_109">
	<g id="Layer_114">
		<path id="Larkana" style="fill:#CCCCCC;stroke:#FFFFFF;stroke-width:1.07;" d="M54.047,13.64
			L54.047,13.64l-0.064-0.037l-0.092-0.056l-0.174-0.052l-0.184-0.073l-0.332-0.139l-0.127-0.05l-0.055-0.081l-0.025-0.06
			l-0.023-0.087l-0.006-0.073l-0.035-0.122l-0.014-0.077l-0.051-0.114l-0.076-0.087l-0.168-0.114l-0.32-0.11l-0.186-0.042
			l-0.158-0.011l-0.219,0.008l-0.17,0.036l-0.145,0.035h-0.092l-0.072-0.015l-0.051-0.022l-0.029-0.036V12.22l0.031-0.104
			l0.051-0.068l0.084-0.107l0.041-0.077l0.016-0.073l-0.004-0.086l-0.072-0.092l-0.137-0.114l-0.139-0.027l-0.123-0.001
			l-0.092,0.015l-0.082,0.029l-0.129,0.041l-0.117,0.019l-0.098-0.02l-0.055-0.015l-0.037-0.041l-0.154-0.109L50.01,11.28
			l-0.121-0.062l-0.193-0.051l-0.18-0.046l-0.18-0.051l-0.168-0.078l-0.051-0.028l-0.016-0.031l0.01-0.041l0.025-0.182l0.033-0.132
			V10.47l-0.023-0.19l-0.061-0.224l-0.029-0.19l-0.029-0.2l-0.041-0.122l-0.162-0.311l-0.193-0.247l-0.197-0.229L48.072,8.3
			l-0.434-0.447l-0.203-0.236l-0.234-0.288l-0.225-0.215l-0.107-0.109l-0.035-0.087V6.862l0.012-0.055l0.035-0.072l0.094-0.101
			l0.059-0.1l0.016-0.109l-0.041-0.132l-0.051-0.104l-0.094-0.072l-0.129-0.078l-0.117-0.082l-0.086-0.005l-0.062,0.031
			l-0.092,0.082l-0.062,0.021l-0.057-0.001l-0.104-0.05l-0.133-0.114L45.85,5.693l-0.162-0.229l-0.225-0.334l-0.174-0.405
			l-0.15-0.44l-0.121-0.4l-0.029-0.137l0.01-0.073L44.9,3.588l-0.088-0.092l-0.248-0.124l-0.205-0.046l-0.287-0.002l-0.07,0.001
			l-0.057,0.021l-0.041,0.042l-0.039,0.089l-0.062,0.187l-0.051,0.034l-0.076,0.001l-0.113-0.043L43.52,3.652l-0.08,0.019
			l-0.055,0.061l-0.102,0.063l-0.08,0.001l-0.062-0.022l-0.055-0.078l-0.084-0.199l-0.045-0.125l-0.039-0.049l-0.062-0.037
			l-0.227-0.021L42.326,3.24L41.85,3.208L41.312,3.16l-0.336-0.035l-0.16,0.003l-0.08,0.015l-0.041,0.021L40.6,3.333l-0.092,0.144
			l-0.121,0.032H40.17l-0.209-0.024l-0.076-0.082l-0.061-0.138l-0.006-0.011L39.76,3.146l-0.09-0.179l-0.131-0.201l-0.152-0.227
			l-0.182-0.256l-0.16-0.231l-0.162-0.218l-0.127-0.198l-0.131-0.127l-0.092-0.086l-0.139-0.081l-0.207-0.037l-0.283,0.007
			l-0.451,0.05L37.256,1.38l-0.07,0.002L37.1,1.367l-0.053-0.032l-0.041-0.107l-0.107-0.216L36.826,0.95L36.74,0.93l-0.453-0.007
			L35.99,0.938l-0.178,0.033l-0.141,0.078L35.5,1.187l-0.254,0.15l-0.148,0.074l-0.084,0.015l-0.092-0.022l-0.256-0.049
			l-0.443-0.078L34,1.259l-0.279-0.011L33.34,1.252l-0.201,0.033l-0.445,0.122l-0.201,0.042l-0.113,0.015l-0.104-0.001l-0.131-0.094
			L31.91,1.198l-0.231-0.167l-0.263-0.136l-0.215-0.117l-0.767-0.156l-0.192-0.06l-0.305-0.021l-0.217-0.005l-0.348,0.042
			L29.27,0.609l-0.103,0.056l-0.14,0.102l-0.241,0.142l-0.321,0.064l-0.33,0.059l-0.452,0.013l-0.425,0.051l-0.232,0.054
			l-0.233,0.087l-0.25,0.135l-0.146,0.094L26.28,1.535l-0.096,0.201l-0.068,0.132l-0.032,0.208l-0.022,0.271l0.002,0.132
			l-0.025,0.076l-0.138,0.088l-0.139,0.069L25.685,2.79l-0.104,0.07L25.468,2.9l-0.095,0.023l-0.07-0.038l-0.044-0.021l-0.052-0.046
			l-0.148-0.021l-0.174,0.002l-0.373,0.052l-0.346,0.064l-0.477,0.083l-0.434,0.043L22.78,3.124l-0.219,0.003l-0.495,0.061
			L21.563,3.24L21.14,3.278l-0.333,0.045l-0.246,0.02L20.18,3.404l-0.538,0.099l-0.875,0.141l-0.784,0.14l-0.628,0.119l-0.47,0.199
			l-0.313,0.159L16.37,4.419l-0.157,0.199L16.101,4.64L15.9,4.578L15.653,4.46l-0.224-0.04L14.824,4.5l-0.515,0.08l-0.538,0.062
			l-0.426,0.039l-0.627,0.081L12,4.863l-0.493,0.08L10.97,5.004h-0.247l-0.157-0.1l-0.068-0.14l-0.067-0.139l-0.045-0.14
			l-0.113-0.118l-0.202-0.08L9.654,4.299L9.592,5.117L9.265,6.161l-0.522,0.95L8.251,8.213L8.014,9.021l0.097,1.159l-0.229,0.782
			l-0.587,0.985l-1.142,1.102L5.592,13.41L4.49,14.18l-0.652,0.552L3.61,15.166L3.382,16.21l-0.296,1.182l-0.293,0.812l-0.357,0.493
			l-0.651,0.406l-0.423,0.29l-0.325,0.262l-0.162,0.317l-0.226,1.885l-0.096,1.651l0.683,0.417L1.4,24.074l0.165,0.164l0.242,0.172
			l0.545,0.056l0.252,0.077l0.179,0.098l0.191,0.109l0.1,0.072l0.072,0.094l0.033,0.092l0.015,0.12l0.014,0.114l0.032,0.077
			l0.081,0.04l0.187,0.043l0.203,0.048l0.215,0.088l0.229,0.141l0.07,0.075l0.063,0.021l0.246-0.037l0.23,0.024l0.342,0.069
			l0.273,0.062l0.294,0.113l0.224,0.161l0.131,0.144l0.11,0.166l0.076,0.128l0.061,0.141l0.04,0.077l0.033,0.022l0.074-0.007
			l0.28-0.128l0.34-0.141l0.167-0.063l0.124-0.039l0.14,0.021l0.148,0.101l0.064,0.089l0.021,0.119l0.021,0.182l0.018,0.146
			l0.013,0.106l0.026,0.03l0.122,0.01l0.226-0.016l0.162-0.042l0.053-0.064l0.052-0.142l0.002-0.176l0.078-0.298l0.05-0.093
			l0.087-0.104l0.118-0.086l0.105-0.069l0.096-0.023l0.228-0.001L9.4,26.179l0.373,0.079l0.33,0.092l0.351,0.148l0.167,0.065
			l0.346,0.179l0.346,0.171l0.027,0.011l0.024,0.114l0.05,0.133l0.047,0.062l0.04,0.025l0.146,0.022l0.19,0.016l0.097,0.021
			l0.146,0.012l0.148,0.015l0.152,0.123l0.068,0.15l0.104,0.173l0.013,0.047l0.032,0.018l0.077,0.013l0.255,0.044l0.24,0.105
			l0.203,0.115l0.151,0.128l0.16,0.104l0.087,0.1l0.157,0.183l0.066,0.114l0.043,0.055l0.002,0.003l0.049,0.028l0.046,0.003
			l0.028-0.005l0.01,0.002l0.319,0.075l0.495,0.088l0.34-0.002l0.344-0.042l0.342-0.027l0.403-0.052l0.192,0.001l0.116,0.021
			l0.227,0.107l0.245,0.069l0.396,0.028l0.455,0.033l0.432-0.035l0.397-0.145l0.235-0.153l0.191-0.158l0.227-0.049l0.117,0.008
			l0.102,0.021l0.153,0.104l0.171,0.235l0.199,0.253l0.192,0.172l0.15,0.13l0.233,0.028l0.777,0.045l0.454,0.046l0.606-0.01
			l0.338,0.024l0.665-0.005l0.804-0.061l0.771-0.022l0.59,0.017l0.396,0.028l0.597-0.062l0.73-0.064l0.572-0.116l0.404-0.113
			l0.297-0.176l0.235-0.154l0.213-0.05l0.104,0.007l0.231,0.045l0.517,0.17l0.51,0.249l0.408,0.215l0.266,0.164l0.361,0.094
			l0.244,0.07l0.443,0.007l0.648,0.009l0.398,0.003l0.225-0.021l0.191-0.014l0.09,0.007l0.189,0.05l0.193,0.013l0.316-0.011
			l-0.094,0.16l-0.111,0.212l-0.109,0.159l-0.105,0.14l-0.172,0.179l-0.18,0.174l-0.217,0.179l-0.162,0.137l-0.271,0.179
			l-0.123,0.092l-0.109,0.11l-0.084,0.067l-0.021,0.056l-0.02,0.064l0.002,0.075l0.014,0.067l0.039,0.083l0.059,0.093l0.035,0.089
			l0.014,0.093v0.121l-0.021,0.086l-0.047,0.08l-0.078,0.067l-0.143,0.057l-0.271,0.063l-0.086,0.021l-0.033,0.022l-0.02,0.035
			l0.01,0.112l0.01,0.187l0.01,0.185v0.188l0.012,0.083l0.014,0.026l0.031,0.038l0.105,0.055l0.254,0.146l0.32,0.203l0.27,0.159
			l0.244,0.153l0.123,0.061l0.197,0.104l0.119,0.086l0.135,0.111l0.074,0.045l0.082,0.019l0.096,0.08l0.104,0.108l0.035,0.048
			l0.062,0.067l0.1,0.115l0.07,0.074l0.055,0.069l0.07,0.056l0.092,0.092l0.102,0.084l0.07,0.051l0.078,0.059l0.1,0.075l0.143,0.09
			l0.1,0.075l0.055,0.047l0.076,0.034l0.139,0.097l0.139,0.093l0.102,0.084l0.09,0.036l0.105,0.1l0.133,0.062l0.072,0.026
			l0.094,0.03l0.121,0.034l0.09,0.038l0.098,0.036l0.004,0.001l0.078,0.022l0.219,0.062l0.244,0.045l0.258,0.05l0.193,0.036
			l0.111,0.005l0.107-0.004l0.127,0.001l0.039-0.019l0.033-0.017l0.01-0.039L38.33,36.83l-0.023-0.026l-0.039-0.013l-0.17-0.014
			l-0.254-0.05l-0.238-0.04l-0.141-0.011l-0.107-0.025l-0.062-0.05l-0.023-0.029l-0.01-0.048l0.016-0.049l0.025-0.047l0.053-0.044
			l0.045-0.025l0.053-0.018l0.086-0.011h0.146l0.105,0.006l0.166,0.014l0.146-0.008l0.135,0.019l0.084,0.021l0.062-0.004
			l0.082-0.021l0.117-0.057l0.088-0.073l0.051-0.068l0.016-0.117l-0.014-0.096L38.67,35.85l-0.057-0.073l-0.098-0.087l-0.078-0.04
			l-0.125-0.083l-0.117-0.113l-0.039-0.048l-0.004-0.054l0.02-0.081l0.08-0.141l0.113-0.203l0.068-0.135l0.062-0.091l0.055-0.082
			l0.072-0.061l0.084-0.077l0.131-0.092l0.084-0.061l0.039-0.057l0.029-0.069l0.002-0.048l-0.006-0.058l-0.053-0.057l-0.043-0.034
			l-0.09-0.049l-0.115-0.049l-0.131-0.058l-0.059-0.019l-0.029-0.034l-0.016-0.018l0.016-0.035l0.029-0.047l0.084-0.078l0.111-0.064
			l0.133-0.061l0.082-0.017L39,33.48l0.043,0.019l0.068,0.096l0.1,0.149l0.035,0.034l0.029,0.005l0.033-0.014l0.078-0.039
			l0.229-0.09l0.094-0.039l0.039-0.004l0.023,0.014l0.02,0.053l0.029,0.083l0.059,0.057l0.059,0.019l0.076,0.014l0.064-0.021
			l0.117-0.073l0.137-0.107l0.182-0.174l0.145-0.159l0.105-0.092l0.113-0.095l0.166-0.1l0.266-0.177l0.121-0.086l0.188-0.116
			l0.117-0.073l0.111-0.029l0.152-0.021l0.154-0.003l0.195,0.022l0.16,0.036l0.105,0.018l-0.012-0.065l-0.023-0.037l-0.08-0.054
			l-0.102-0.077l-0.033-0.049l-0.031-0.064l0.012-0.043l-0.021-0.03l-0.004-0.074l0.006-0.044l-0.012-0.104l0.006-0.155l0.006-0.168
			l0.035-0.125l0.061-0.107l0.062-0.142l0.086-0.124l0.084-0.123l0.1-0.104l0.139-0.118l0.223-0.177l0.168-0.163l0.225-0.229
			l0.172-0.247l0.074-0.174l0.029-0.179l-0.008-0.181l0.006-0.144v-0.128l0.025-0.089l0.021-0.179l0.029-0.172l0.059-0.192
			l0.107-0.196l0.09-0.109l0.131-0.08l0.242-0.165l0.297-0.152l0.195-0.124l0.184-0.106l0.248-0.144l0.23-0.109l0.184-0.046
			l0.357-0.084l0.137-0.028l0.096,0.011l0.15,0.027l0.17,0.032l0.131,0.017l0.129,0.041l0.17,0.039l0.078,0.006l0.301,0.024
			l0.326-0.01l0.25-0.045l0.23-0.08l0.266-0.086l0.127-0.096l0.152-0.129l0.254-0.279l0.096-0.148l0.002-0.007l0.012-0.132
			l-0.031-0.121l-0.072-0.15l-0.133-0.114l-0.176-0.084l-0.195-0.07l-0.178-0.099l-0.188-0.134l-0.123-0.109l-0.078-0.142
			l-0.107-0.149l-0.242-0.241l-0.256-0.293l-0.105-0.145l-0.082-0.116l-0.057-0.215l-0.039-0.248l-0.129-0.259l-0.094-0.222
			l-0.125-0.215l-0.076-0.104l-0.102-0.12l-0.113-0.104l-0.107-0.188l-0.051-0.186l-0.025-0.229l-0.008-0.155l-0.057-0.179
			l-0.055-0.127l-0.035-0.102l-0.09-0.125l0.047-0.056l0.104-0.07l0.104-0.059l0.047-0.039l0.115-0.076l0.131-0.044l0.104-0.021
			l0.113-0.016l0.127,0.006l0.131,0.007l0.111-0.007l0.1-0.01l0.09-0.028l0.115-0.05l0.102-0.073l0.107-0.106l0.141-0.147
			l0.08-0.104l0.037-0.032l0.076-0.04l0.215-0.102l0.164-0.078l0.148-0.069l0.166-0.107l0.166-0.146l0.111-0.116l0.066-0.082
			l0.039-0.095l0.027-0.095l0.006-0.094l-0.004-0.069v-0.1l0.02-0.109l0.021-0.12l0.01-0.106l-0.008-0.042l-0.047-0.096
			l-0.031-0.124l-0.035-0.155l-0.035-0.129l-0.041-0.089l-0.07-0.114l-0.105-0.104l-0.066-0.133l-0.027-0.045l-0.07-0.097
			l-0.045-0.098l-0.039-0.1l-0.014-0.107v-0.072l0.031-0.177l0.035-0.123l0.049-0.084l0.076-0.097l0.1-0.111l0.094-0.067
			l0.078-0.053l0.193-0.079l0.137-0.073l0.018-0.016l0.047,0.072l0.162,0.086l0.494,0.073l0.787,0.033l0.875-0.007l0.25-0.045
			l0.215-0.042l0.146-0.015l0.199,0.029l0.242-0.014l0.27-0.048l0.143-0.075l0.104-0.093l0.127-0.178l0.115-0.094l0.035-0.01
			l0.076-0.022l0.244,0.018h0.207l0.193-0.021l0.25-0.034l0.236-0.056l0.172-0.089l0.15-0.143l0.229-0.115l0.059-0.17l0.027-0.249
			l-0.02-0.144l-0.104-0.174l-0.74-0.933l-0.479-0.558l-0.057-0.076L54.047,13.64"/>
	</g>
</g>
<g id="Layer_1">
</g>
</svg>
