<?xml version="1.0" encoding="utf-8"?>
<!-- Generator: Adobe Illustrator 16.0.4, SVG Export Plug-In . SVG Version: 6.00 Build 0)  -->
<!DOCTYPE svg PUBLIC "-//W3C//DTD SVG 1.1//EN" "http://www.w3.org/Graphics/SVG/1.1/DTD/svg11.dtd">
<svg version="1.1" id="Layer_1" xmlns="http://www.w3.org/2000/svg" xmlns:xlink="http://www.w3.org/1999/xlink" x="0px" y="0px"
	 width="301.072px" height="337.562px" viewBox="-129.722 -145.512 301.072 337.562"
	 style="enable-background:new -129.722 -145.512 301.072 337.562;" xml:space="preserve">
<g id="Layer_13">
	<path id="Badin" style="fill:#CCCCCC;stroke:#FFFFFF;stroke-width:1.15;" d="M58.667-139.381L58.667-139.381l-2.255,0.758
		l-2.297,0.933l-0.984,0.778l-0.398,0.915l-0.154,0.471l-0.446,0.489l-0.098,0.112l-0.936,0.743l-0.769,0.831l-0.88,1.379
		l-0.453,0.559l-0.643,0.415l-0.691,0.15l-1.383,0.062l-0.95,0.225l-1.256,0.575l-1.963,1.254l-1.558,0.894l-0.963,0.437
		l-0.95,0.014l-0.53-0.129l-0.894-0.785l-0.839-0.908l-0.845-0.517l-0.328,0.108l-0.14,0.415l0.014,0.594l0.154,0.601l0.181,0.507
		l-0.041,1.05l-0.44,0.824l-0.077,0.328v0.35l-0.013,0.443l0.167,1.029l0.488,1.303l0.182,0.534l0.084,1.023l-0.251,1.096
		l-0.929,1.044l-1.222,0.485l-1.418,0.308l-2.228,0.199l-1.48,0.272l-2.305,0.688l-1.159,0.443l-0.659,0.077l-1.407-0.021
		l-1.966-0.094l-1.309,0.258l-1.425,0.43l-2.267,0.579l-2.681,0.765l-2.34,0.832l-2.524,0.82l-2.237,0.51L3.5-111.735l-1.11-0.217
		l-1.494-1.04l-0.602-1.139l-0.149-1.096l0.021-0.929l0.088-1.086l0.3-1.071l0.073-0.51l0.779-1.345l0.408-0.744l0.377-0.712
		l0.137-0.625l-0.186-0.328l-0.328-0.15l-1.044-0.213l-1.212-0.066l-1.337-0.136l-0.556-0.185l-1.2-0.814l-0.682-0.437l-0.621-0.244
		l-1.229-0.559l-0.781-0.426l-1.788-0.803l-1.044-0.37l-0.485-0.046l-0.492,0.15l0.021,0.594l-0.149,0.495l-0.021,1.052
		l-0.771,1.944l-1.253,1.795l-1.086,1.515l-2.123,1.487l-1.69,0.984l-1.938,0.618l-1.857,0.465l-0.652,0.349l-0.492,0.443
		l-0.021,0.66l0.073,0.44l0.629,0.509l0.88,0.238l1.284,0.248l0.538,0.492l0.213,0.747l-0.213,0.921l-1.868,0.985l-2.517,0.816
		l-2.096,0.405l-1.441,0.259l-1.132,0.195l-1.288,0.555l-0.9,0.56l-0.999,0.464l-0.652,0.272l-0.964-0.094l-0.873-0.077
		l-0.401,0.129l-0.356,0.443l-0.143,0.356l0.293,1.078l-0.122,0.744l-0.343,0.58l-0.894,0.345l-1.104,0.343l-1.441,0.185
		l-1.638,0.552l-0.901,0.534l-0.894,0.736l-1.215,0.465l-1.211,0.266l-0.901,0.366l-0.656,0.771l-0.667,0.737l-0.104,0.443
		l-0.015,0.293l0.42,0.514l0.53,0.216l1.31,0.042l0.636,0.15l0.45,0.384l0.852,0.811l0.636,0.601l0.659,0.149l0.643,0.015
		l0.887-0.272l1.865-0.835l1.938-0.9l1.882-0.618l1.857-0.419l0.639,0.014l0.479,0.15l0.388,0.521l0.213,1.03l-0.172,0.838
		l-0.743,0.778l-2.552,2.217l-2.531,1.987l-2.612,2.133l-2.688,1.672l-2.028,1.052l-1.375,1.005l-1.694,1.348l-3.18,2.336
		l-2.434,1.337l-2.347,0.901l-1.62,0.259l-1.623-0.108l-1.432-0.321l-0.458-0.008l-0.164,0.36l0.057,0.426l0.946,1.466l1.57,1.597
		l1.104,0.395l1.851,0.247l1.596,0.402l1.742,0.708l1.417,0.813l1.694,1.711l1.239,2.067l0.942,1.62l0.915,1.638L-44.323-64
		l1.265,0.831l1.104,0.457l1.752,0.402l0.234,0.149l-0.007,0.293l-0.007,0.186l-0.374,0.792l-0.458,0.493l-0.014,0.446l-0.007,0.363
		l0.443,0.443l0.866,0.601l1.11,0.388l0.642,0.014l0.322,0.007l0.328-0.188l0.101-0.384l0.035-0.771l0.094-0.579l0.157-0.388
		l0.416-0.07l0.556,0.308l1.207,0.873l1.268,0.607l1.746,0.723l1.414,0.743l2.259,1.306l1.815,1.044l1.348,1.117l0.607,1.181
		l1.379,1.631l1.815,1.714l2.025,1.208l2.287,1.017l2.074,0.342l3.89,1.036l1.508,0.545l0.636,0.444l0.618,0.987l0.289,1.037
		l-0.014,0.199l-0.111,2.395l-0.423,3.712l-0.744,0.942l-1.131,0.545l-0.656,0.443l-0.157,0.565l0.443,1.086l0.751,1.394
		l1.148,1.267l0.408,0.744l-0.129,1.023l-0.37,1.372l-0.443,1.809l-0.027,0.659l0.443,0.807l1.814,0.995l0.772,0.813l1.159,1.188
		l0.307,0.736l-0.014,0.443l-0.437,0.43l-1.589,0.859l-1.501,0.572l-0.841,0.328l-2.099,0.894l-0.895,0.363l-0.785-0.035
		l-0.401-0.373l-0.063-0.657l-0.143-1.386l-0.213-0.953l-0.395-0.513l-0.545-0.444l-0.744,0.423l-0.163,0.671l-0.15,0.443
		l-1.442,0.327l-1.661,0.102l-3.426,0.077l-1.114-0.119l-0.45-0.149l-0.415-0.443l0.021-0.444l0.021-0.803l0.395-2.294l0.186-1.746
		l0.027-1.085l-0.384-0.88l-0.709-0.443l-1.044-0.035l-1.986-0.049l-2.409,0.241l-1.669,0.258l-1.044,0.552l-0.336,0.499
		l-0.655,0.35l-1.352,0.346l-2.231,0.314l-0.887,0.269l-0.335,0.729l-0.018,0.388l0.632,0.594l1.638,0.621l0.541,0.674l0.15,0.869
		l-0.122,0.66l-0.479,0.729l-0.656,0.444l-0.88,0.185l-1.303,0.251l-1.767,0.423l-1.352,0.412l-2.988,1.261l-3.646,1.445
		l-4.207,1.993l-1.208,0.552l-1.938,0.984l-0.887,0.485l-0.729-0.227l-0.514-0.744l-0.614-1.166l-0.688-2.15l-0.541-0.496
		l-0.537-0.227l-1.673-0.035l-2.723,0.15l-1.938,0.133l-1.089-0.234l-2.531-1.223l-0.758-0.387l-0.479-0.098l-0.643,0.275
		l-0.332,0.36l-0.349,0.792l-0.573,0.936l-1.058,0.853l-0.97,0.729l-1.383,0.914l-0.664,0.846l-0.743,1.323l-0.164,1.064l0.049,1.38
		l-0.157,0.498l-0.416,0.28l-0.404-0.008l-1.044-0.82l-1.403-1.267l-0.859-1.271l-0.199-1.609l0.028-1.166l-0.308-0.514
		l-0.314-0.202l-0.471,0.144l-0.423,0.492l-0.443,1.745l0.192,1.03l0.395,1.086l-0.015,0.586l-0.149,0.287l-0.803,0.353
		l-0.556,0.185l-0.328,0.15l-0.339,0.729L-86.59-6l-0.336,0.793l-0.423,0.278l-0.792,0.28l-0.646,0.355l-0.35,0.744l-0.342,0.643
		l-0.744,0.572l-0.646,0.182l-0.541-0.437l-1.09-1.188l-1.177-0.81l-0.537-0.521l-0.457-0.007l-0.566,0.199l-0.156,0.499
		l0.149,0.953l0.751,1.257l0.213,0.443l-0.685,1.638l-1.902,2.447l-2.022,2.93l-0.279,1.917l0.05,1.358l0.285,1.344l-0.156,0.653
		l-0.472,0.649l-0.9,0.342l-1.132,0.43l-1.288,0.185l-0.964-0.15l-1.092-0.45l-0.737-0.213l-0.552,0.063l-0.744,0.652l-0.328,0.286
		l-0.736,0.144l-0.729-0.217l-0.88,0.137l-1.352,0.558l-1.459,0.915l-2.531,1.562l-1.693,1.414l-1.938,1.494l-1.33,1.215
		l-0.895,1.009l-2.312,1.296l-0.007,0.9l-0.349,1.236l-0.308,1.407l-0.464,1.043l-0.008,0.482l0.272,0.744l0.45,0.481l1.223,0.936
		l0.929,0.698l1.567,0.649l0.862,0.496l0.66,0.439l0.293,0.476l0.028,0.726l-0.102,1.11l-0.415,1.264l-0.44,1.159l-0.604,1.433
		l-0.247,1.354l-0.279,2.492l-0.186,1.893l0.104,1.048l0.423,0.9l0.443,0.971l0.157,0.726l-0.233,1.041l-0.458,1.082l-0.744,0.74
		l-1.637,1.006l-1.167,0.74l-0.366,0.397l-0.014,1.069l0.224,0.572l0.443,0.572l0.443,0.279l1.128,0.133l1.131,0.363l1.438,0.705
		l0.74,0.601l0.694,1.2l0.937,1.481l0.509,1.348l0.28,1.264l0.206,0.999l0.743,0.579l0.374,1.396l-0.175,0.74l-1.886,1.822
		l-0.887,1.236l0.234,0.894l1.274,2.458l1.871,4.498l0.454,2.178l0.485,0.914l0.978,0.294l1.638-0.076l1.109-0.195l0.979,0.041
		l0.523,0.51l0.52,0.67l-0.041,0.629l-0.308,0.747l-0.838,0.363l-1.006,0.342l-0.442,0.859l-0.566,3.254l0.035,2.276l-0.828,3.129
		l-0.052,1.02l0.359,1.396l0.771,0.914l2.444,1.083l0.538,0.278l0.233,0.881l0.15,3.428l-0.643,1.746l-0.594,3.896l0.237,3.792
		l0.479,4.189l1.344,3.841l1.146,2.207l0.935,0.781l1.114-0.349l1.009-0.733l0.744-1.096l2.266-1.662l1.683-0.712l1.809-0.308
		l1.938-0.154l1.242,0.294l0.751,1.165l-0.565,3.137l-0.922,1.976l-1.631,2.088l-1.044,1.222l-0.743,0.999l-0.042,0.865l0.363,1.159
		l1.63,0.817l0.975,0.042l0.709,0.021l0.443-0.475l0.321-0.865l0.586-0.378l0.691,0.427l0.388,0.656l1.452,1.445l2.968,1.508
		l2.186,0.594l2.77-0.021l1.637,0.565l2.546,1.348l5.568,1.731l4.77,1.341l2.762,0.238l1.917,0.726l3.425,0.14l1.788,0.084
		l2.646-0.405l0.862-0.852l1.145-0.824l0.866-0.852l0.845-0.35l1.502-0.146l4.881-0.817l7.775-0.705l7.321-0.188l8.694,0.112
		l6.071,0.487l1.795-0.041l0.643,1.048l1.145,1.822l2.109,5.153l0.743,4.448l1.044,3.966l0.779,3.575l0.789,3.436l0.914,0.74
		l-0.15,0.817l2.724,2.625l0.964-1.57l1.532-1.341l5.807-1.732l3.837-0.964l6.288-1.55l1.68,2.696l-0.15,1.752l-0.149,1.642
		l1.432,11.27l1.043,5.153l0.262,1.319l1.345,3.534l0.873,2.347l1.17,0.656l0.251,0.146l0.335,0.015l3.107,0.147l1.04-0.294
		l1.802-2.423l1.642-3.296l0.551-1.781l0.007-0.691l0.021-1.696l2.046-6.711l0.321-1.04l2.45-3.4l3.876-2.801l4.532-2.109
		l0.336-0.146l0.502,0.014l1.634,0.098l0.489,0.252l1.02,0.53l1.634,2.808l1.006,1.717l1.592,2.333l1.264,1.92l0.775,2.283
		l3.128,4.79l3.247,2.668l1.418,0.664l4.239,0.146l3.916-0.943l7.641-3.875l5.516-3.254l3.604-2.13l0.042-0.028l-0.057-1.787
		l0.252-0.705l0.251-2.109l0.154-1.634l-0.294-1.048l-1.271-2.221l-1.928-3.128l-2.095-4.099l-0.796-3.806l0.517-2.501l0.363-0.475
		l0.727-0.823l0.168-1.048l-0.021-1.48l-0.174-1.913l-0.448-1.48l-0.181-1.327l0.265-1.151l0.775-2.64l0.523-2.619l0.363-0.908
		l0.797-0.998l0.439-0.747l0.35-1.634l0.251-2.542l0.244-3.547l0.35-2.047l0.53-1.012l0.796-0.908l0.614-1.159l0.531-1.718
		l0.084-1.243l-0.015-1.479l0.266-1.16l0.349-0.655l0.378-0.476l0.636-0.112l0.907,0.434l1.054,0.321l1.174-0.111l1.061-0.573
		l0.895-1.341l0.888-1.955l0.426-1.642l0.614-1.402l1.536-1.48l1.689-1.342l1.174-0.739l1.898-0.685l1.146-0.907l2.333-1.928
		l2.331-1.341l2.856-1.732l1.432-1.333l3.33-1.997l2.326-1.334l2.437-1.927l0.804-0.343h0.363l0.439,0.426l0.279,1.146l0.174,1.006
		l0.44,1.047l0.649,0.238l0.908-0.245l1.243-0.998l2.066-2.396l1.55-1.529l-0.335-0.964l-1.026-1.075l-0.817-0.517l-1.047-0.942
		l-1.341-0.761l0.057-0.092l0.014-0.397l0.362-0.405l0.705-0.439l1.32-0.594l1.494-0.816l0.531-0.44l0.614-0.447l0.439-0.517
		l0.439-0.447l0.175-0.545l0.022-0.551l-0.476-0.727l-1.829-1.642l-1.007-1.438l-1.417-1.342l-1.494-1.451l-1.348-1.132
		l-0.552-1.188l-0.23-0.733l0.021-0.454l0.175-0.621l0.795-0.69l0.964-0.601l0.852-0.07l0.839,0.488l1.256,1.216l1.349,1.354
		l0.747,1.341l0.643,1.299l0.922,1.047l0.586,0.322l0.35,0.013l0.446-0.209l0.629-0.831l0.14-1.173l0.07-1.948l0.16-2.667
		l-0.021-2.019l0.056-1.404l0.195-1.075l0.377-0.761l0.727-0.999l1.257-1.047l1.368-0.447l0.873-0.439l0.175-0.621l0.126-0.545
		l-0.573-0.88l-1.592-1.306l-1.781-0.748l-2.13-0.746l-1.773-0.748l-1.787-0.502l-0.761-0.252l-0.231-0.237l0.015-0.314l0.293-1.348
		l1.536-1.976l1.341-1.941l1.257-1.613l0.991-1.02l1.334-0.74l1.851-1.34l1.055-0.748l0.439-0.503l0.392-0.761l0.866-0.51
		l1.39-0.747l1.39-0.51l2.248-0.733l1.55-0.355l1.48-0.266l0.769-0.44l0.53-0.517l0.286-0.712l-0.076-0.553l-0.685-0.342
		l-2.053-0.376l-4.204-0.043l-1.913-0.062l-0.755-0.244l-0.74-0.972l-0.537-1.916l-0.544-1.589l0.132-0.712l0.363-0.454l0.621-0.384
		l1.446,0.129l1.731-0.164l3.457-1.152l1.641-0.744l0.635-0.694l1.83-0.743l2.954-0.937l2.115-1.058l1.145-0.601l1.055-1.139
		l1.041-0.907l0.894-1.022l0.384-1.023l0.14-1.03l0.28-0.758l0.279-0.443l0.363-0.397l0.355-0.15l0.133-0.775l0.042-0.929V8.58
		l-0.209-1.18l-0.154-1.281l-0.21-0.765l-0.6-0.437l-0.852-0.108l-1.098-0.35l-1.187-0.579l-1.348-1.044l-1.012-1.113l-0.259-0.968
		l-0.126-0.485l0.153-0.395l0.321-0.464l0.44-0.444l0.628-0.6l0.252-0.388l0.188-0.465l0.015-0.67l-0.118-0.443l0.021-0.401
		l0.244-0.472l0.796-0.437l0.537-0.192l0.393-0.443l0.391-0.716l0.376-0.265l0.56-0.308l0.377-0.266l0.252-0.377l0.027-0.552
		l-0.161-0.401l-0.146-0.548l0.182-0.601l0.447-0.314l0.391-0.53l0.321-0.716l0.154-0.943l-0.015-1.637l0.154-1.152l0.265-0.709
		l0.314-0.443l0.076-0.439l0.015-0.482l-0.021-1.044l-0.44-0.957l-1.284-1.393l-1.041-1.31l-0.628-0.838l-0.196-1.358v-1.965
		l-0.363-1.617l-1.04-1.787l-0.789-1.059l-1.117-0.907l-1.173-0.858l-1.098-1.125l-0.795-1.044l-0.601-0.719l-0.015-1.642
		l0.154-2.416l0.279-1.201l-0.154-0.82l-0.516-0.157l-0.553,0.314l-0.439,1.128l-0.747,0.457l-1.613,1.017l-1.641,0.443
		l-1.684,0.129l-3.016,0.035l-2.569-0.423l-3.981-0.262l-2.96-0.095l-2.73,0.363l-4.435,1.334l-1.906,0.607l-1.906,0.548
		l-1.676,0.15l-1.208-0.034l-1.068-0.301l-0.999-0.852l-0.559-1.03l-0.614-1.442l-1.026-2.325l-1.048-1.851l-0.991-1.239
		l-1.104-1.181l-2.779-1.462l-1.634-0.79l-2.682-0.436l-0.376-0.724l-0.07-0.771l0.397-0.691l0.601-0.995l0.3-0.957l0.099-0.873
		l-0.398-1.344l-0.545-1.282l-1.264-1.2l-2.221-1.407l-2.234-1.044L99.63-60.83l-0.824-0.53l-2.5-1.693l-1.048-1.138l-0.614-1.072
		l0.056-0.873l-0.188-2.081l-0.314-1.979l-1.342-1.819l-2.22-1.516l-2.975-1.319l-2.591-0.933l-2.765-0.52l-2.536-0.824l-2.43-1.152
		l-1.627-1.04l-1.306-0.503l-1.355-0.887l-2.136-1.55l-2.528-1.631l-2.458-1.746l-1.689-1.721l-1.075-1.52l-1.09-2.664l-0.656-3.354
		l-0.293-3.774l0.153-3.205l-0.411-4.592l-0.44-5.963l-0.153-1.345l-0.308-3.331l-0.098-3.505l-0.252-5.499l-0.217-3.788
		l-0.439-2.588l-0.307-2.346l-0.028-3.726v-0.743"/>
</g>
<g id="Layer_1_1_">
</g>
</svg>
