<?xml version="1.0" encoding="utf-8"?>
<!-- Generator: Adobe Illustrator 16.0.4, SVG Export Plug-In . SVG Version: 6.00 Build 0)  -->
<!DOCTYPE svg PUBLIC "-//W3C//DTD SVG 1.1//EN" "http://www.w3.org/Graphics/SVG/1.1/DTD/svg11.dtd">
<svg version="1.1" id="Layer_1" xmlns="http://www.w3.org/2000/svg" xmlns:xlink="http://www.w3.org/1999/xlink" x="0px" y="0px"
	 width="301.464px" height="161.163px" viewBox="-111.884 -59.703 301.464 161.163"
	 style="enable-background:new -111.884 -59.703 301.464 161.163;" xml:space="preserve">
<g id="Layer_110">
	<path id="Sanghar" style="fill:#CCCCCC;stroke:#FFFFFF;stroke-width:1.15;" d="M-29.985,64.704L-29.985,64.704l-0.126-0.409
		l-0.052-0.268l0.062-0.275l0.063-0.408l0.056-0.412l0.007-0.249l-0.081-0.413l-0.074-0.39l-0.097-0.553l-0.037-0.74l0.007-0.312
		l0.142-0.312l0.193-0.208l0.297-0.163l0.431-0.098l0.487-0.141l0.869-0.078l0.955-0.063l0.557-0.036l0.669,0.036l0.587,0.127
		l0.405,0.126h0.107l0.078-0.082v-0.096l-0.07-0.424l-0.097-0.412l-0.071-0.51l0.012-0.489l0.004-0.286l0.115-0.19l0.188-0.096
		l0.32,0.008l0.349,0.073l0.547,0.205l0.345,0.297l0.394,0.346l1.717,1.292l1.186,0.944l1.861,1.493l1.812,1.363l1.939,1.52
		l0.791,0.558l0.394,0.237l0.554,0.079l0.234,0.032l0.234-0.078l0.093-0.171l0.089-0.312l0.041-0.605l-0.041-0.513l0.037-0.413
		l0.078-0.312l0.123-0.146l0.237-0.077l0.513-0.056l0.884-0.06l0.967-0.06l0.669,0.019l0.188-0.056l0.108-0.078l0.077-0.145
		l0.008-0.171l-0.025-0.29l-0.045-0.363l-0.041-0.465l-0.019-0.461l0.097-0.233l0.107-0.179l0.078-0.082l0.193-0.021l0.346,0.088
		l0.739,0.536l0.843,0.553l1.029,0.773l0.58,0.397l0.293,0.141l0.216,0.015l0.134-0.096l0.167-0.164l0.111-0.268l0.063-0.431
		l0.111-0.104l0.107-0.082l0.115,0.007l0.193,0.148l0.082,0.245l0.557,0.588l0.245,0.178l0.479,0.089l0.75,0.06l1.152,0.134
		l0.71,0.156l0.639,0.271l0.505,0.135l0.825,0.309l0.69,0.549l0.413,0.327l0.445,0.438l0.531,0.238l0.391,0.119l0.895,0.021
		l0.45,0.038l0.427,0.177l0.925,0.506l0.814,0.677l0.643,0.553l0.468,0.495l0.23,0.441l0.104,0.197l-0.008,0.237l-0.167,0.312
		l-0.305,0.334l-0.405,0.383L9.677,70.12l-0.134,0.134l-0.082,0.114l-0.073,0.234l0.408,0.811l0.643,1.1l0.309,0.397l0.234,0.205
		l0.542,0.304l0.643,0.249l0.564,0.249l0.387,0.29l0.387,0.583l0.468,0.591l0.68,0.936l0.227,0.29l0.301,0.714l0.049,0.342
		l-0.034,0.2l-0.375,0.42l-0.397,0.554l-0.119,0.42l0.082,0.382l0.368,1.35l0.583,1.445l0.208,1.188l0.067,0.624l-0.012,0.396
		l-0.179,0.695l-0.062,0.119l0.505,1.285l0.309,1.033l0.052,0.081l0.097,0.134l0.368-0.021l0.69-0.049l0.874-0.123l1.73-0.319
		l1.186-0.197l0.709,0.034l0.736,0.278l1.106,0.498l0.743,0.404h0.183l0.983-0.021l0.8,0.148l0.799,0.274l0.554,0.157l0.464-0.008
		l0.602-0.138l0.394-0.219l0.718-0.06l1.122,0.138l1.82,0.3l1.917,0.395l1.578-0.237l1.632-0.559l1.89-0.795l0.249-0.591
		l0.376-0.765l0.546-0.687l0.416-0.008l0.943,0.445l0.873,0.436l1.081,0.233l1.635,0.438l1.219,0.26l1.248,0.271l0.739,0.156
		l0.383-0.004l0.23-0.052l0.319-0.424l0.189-0.469l0.397-0.342l0.646-0.014l0.661,0.236l0.866,0.714l1.084,0.561l1.067,0.547
		l1.271,0.528l1.263,0.497l0.609,0.238l0.609,0.163l0.461-0.093l0.371-0.249l0.408-0.461l0.498-0.432l0.416-0.133l0.513-0.09
		l0.595-0.394l0.55-0.472l0.646-0.397l0.646-0.256l0.654-0.063l0.282,0.115l0.141,0.077l0.052,0.298l0.149,0.379l0.133,0.119
		l0.327-0.13l0.409-0.39l0.192-0.008l0.052,0.223l0.008,0.379v0.229l0.142,0.079l0.097,0.04h0.23l0.274-0.342l0.356-0.758
		l0.498-0.816l0.46-0.245l0.878-0.075l0.371-0.119l0.238-0.468l0.223-0.461l0.238-0.397l0.318-0.248l0.327-0.008l0.506,0.081
		l0.327,0.29l0.059,0.461l0.008,0.383l0.238,0.249l0.936,0.148l0.869-0.007l0.416-0.261l0.397-0.513l0.654-0.238l0.331,0.053
		l0.229,0.282l0.008,0.171l-0.23,0.249l-0.408,0.472l-0.179,0.338l0.142,0.219l0.326,0.082l0.554-0.305l0.558-0.639l0.731-0.394
		l0.65-0.187l0.513,0.108l0.06,0.338l-0.134,0.256l-0.078,0.213l-0.238,0.23l-0.513,0.39l-0.646,0.179l-0.461,0.26l-0.319,0.386
		l0.007,0.294l0.142,0.122l0.416,0.078l0.327,0.053l0.192,0.163l0.142,0.119l-0.09,0.223l-0.229,0.245l-0.141,0.119l-0.079,0.171
		l-0.052,0.179v0.118l0.142,0.294l0.245,0.412l0.271,0.335l0.234,0.297l0.147,0.208l0.045,0.208l-0.133,0.256l-0.773,0.598
		l-0.833,0.521l-0.461,0.22l-0.512,0.093l-0.186-0.082l-0.476-0.501l-0.524-0.204l-0.271-0.038l-0.234,0.078l-0.186,0.227
		l0.008,0.29l0.096,0.413l0.242,0.412l0.082,0.119l0.668,0.739l0.944,0.873l0.519,0.278l0.559,0.081l0.178-0.227l0.275-0.39
		l0.394-1.104l0.09-0.55l0.318-0.305l0.327-0.052l0.186,0.163l0.008,0.245h0.187l0.185-0.249l0.32-0.175l0.274-0.003l0.193,0.219
		l0.008,0.212l-0.078,0.294l-0.135,0.171v0.077l0.276-0.004l0.185-0.004l0.094,0.168l-0.078,0.416l-0.554,0.349l-0.917,0.528
		l-0.384,0.249l-0.445,0.427l-0.06,0.171v0.167l0.201,0.168l0.921-0.094L79.5,96.62l1.113-0.02l1.583,0.067l1.59,0.364l1.505,0.26
		l1.029,0.446l0.795,0.375l0.546,0.138l0.327-0.06l0.179-0.505l0.171-0.974l0.349-1.396l0.554-0.555l0.639-0.598l0.372-0.227
		l0.326,0.078l0.335,0.285l0.717,0.503l0.609,0.163l0.69-0.134l0.877-0.558l1.363-0.892l0.966-0.828l0.454-0.468l0.415-0.086
		l0.555-0.007l0.602-0.056l0.717-0.302l0.64-0.431l0.319-0.42l0.229-0.293l0.513-0.127l0.71-0.066l1.379-0.528l1.24-0.604
		l0.736-0.559l1.255-1.103l0.959-1.281l0.49-1.104l0.312-0.885l0.234-0.334l0.722-0.943l0.816-0.98l0.832-0.821l0.588-0.592
		l0.274-0.591l0.394-1.271l0.505-1.029l0.368-0.687l0.078-0.68l0.446-1.059l0.363-0.925l0.212-0.628l0.363-0.517l0.64-0.591
		l0.78-0.862l0.974-0.435l0.921-0.35l0.554-0.304l1.056-0.646l0.873-0.817l0.917-0.64l1.482-0.873l1.115-0.427l0.601-0.234
		l0.327,0.045l0.327,0.219l0.379,0.078l0.238-0.007l0.319-0.127l0.505-0.517l1.152-1.062l1.1-1.029l0.735-0.937l1.604-1.668
		l1.561-1.709l1.628-1.82l1.099-1.345l1.107-0.869l0.788-0.302l0.653,0.041l0.654,0.205l0.943,0.497l0.951,1.037l0.758,0.873
		l1.085,1.185l0.713,0.714l0.609,0.668l0.521,0.342l0.795,0.078l0.795-0.056l1.178-0.233l1.939-1.077l1.062-0.858l0.78-0.514
		l0.988-0.141l1.485-0.234l0.743-0.293l0.364-0.469l0.594-0.758l1.115-0.646l1.813-0.662l2.972-1.01l1.485-0.372l0.517,0.04
		l0.609,0.161l0.554,0.378l0.839,0.335l0.858-0.015l0.873-0.078l0.595-0.305l0.513-0.427l0.524-0.298l0.591-0.178l1.069-0.053
		l1.308,0.074l1.318,0.208l1.123,0.204l0.739-0.008l0.553-0.133l0.513-0.428l0.514-0.282l0.319-0.23l0.274-0.215l0.32-0.557
		l0.708-0.346l0.469-0.078l0.551,0.107l0.475,0.394l0.706,0.278l0.937,0.275l0.71-0.049l3.135-0.999l-1.188-1.549l-1.036-0.984
		l-1.148-1.067l-0.554-0.794l-2.548-2.359l-7.367-6.813l-0.413-0.869l-0.104-0.23l-5.528-7.705l-1.664-3.18l-0.539-2.3l-0.234-0.992
		l-0.056-5l-0.706-5.435l-0.401-1.797l-0.553-2.476l0.334-2.47l0.557-1.308l0.179-0.323l1.13-2.081l5.074-6.643l0.107-0.171
		l-0.17-0.115l-0.747-0.669l-0.661-0.33l-0.813-0.327l-2.393-0.238l-2.251-0.082l-1.315-0.156l-1.98-0.544L154.7-7.655l-1.326-0.574
		l-1.505-0.715l-2.028-0.776l-1.457-0.533l-2.258-0.374l-2.155-0.227l-1.82-0.149l-1.98-0.02l-1.924-0.103l-0.744-0.235
		l-1.418-0.552l-1.404-0.193l-2.118-0.097l-2.146-0.23l-2.073-0.525l-1.933-0.37l-2.021-0.771l-1.182-0.336l-1.887-0.396
		l-2.994-0.225l-1.925,0.035l-3.842,0.388l-3.604,0.229l-4.168-0.104l-3.471-0.041l-3.469-0.286l-1.933-0.308l-1.129-0.448
		l-1.553-0.236l-2.386,0.08l-2.809,0.208l-1.129-0.152l-1.271-0.147l-0.937-0.076l-0.521,0.008l-0.602,0.261l-1.761,0.872
		l-1.91,0.661l-0.795,0.141l-0.891-0.072l-1.029-0.152l-1.605-0.541L74.45-15.1l-2.399-0.301l-2.337-0.175l-1.661-0.268l-0.981-0.03
		l-1.879-0.011l-3.136-0.08l-3.002-0.222l-1.59-0.087L55.681-16.2l-2.144,0.08l-2.207-0.134l-2.775-0.334l-2.021-0.258l-2.15-0.423
		l-2.602-0.459l-3.524-0.369l-3.938-0.254l-2.771-0.244l-2.229-0.195l-1.393-0.452l-0.918-0.446l-0.817-0.214l-0.772,0.214
		l-1.604,0.225l-1.728,0.411l-3.211,0.747l-2.552,0.476l-1.902,0.212l-2.745,0.156l-2.615-0.004H7.456l-2.422-0.502l-1.898-0.377
		l-1.538-0.592L0.71-19.365l-0.183-0.377l0.417-0.745l0.769-1.445l0.107-0.537l-0.182-0.266l-0.71-0.221L0.037-23.12l-0.36-0.061
		l-0.297,0.228l-0.067,0.734l-0.186,0.482h-0.233l-0.554-0.215l-0.576-0.222l-0.368-0.225l-0.066-0.377l0.066-0.643l0.476-1.873
		l0.483-1.765l0.404-1.031v-0.429l-0.233-0.225l-0.591-0.099l-2.615-0.104l-2.192-0.266l-1.185-0.163l-0.356-0.222l-1.319-2.671
		l-1.665-3.32l-2.157-3.733l-0.29-0.323l-1.062-0.479l-1.906-0.539l-1.188-0.104l-0.539-0.258l-0.237-0.741l0.237-0.704v-1.393
		l-0.297-1.187l-0.416-1.5l-0.063-0.908l-0.412-1.553l-0.234-0.86l-0.182-0.483l-0.595-0.483l-0.657-0.905l-0.718-1.023
		l-0.913-1.583l-0.547-1.507l-0.233-0.646h-0.554l-0.29,0.167l-1.356,0.694l-0.892,0.652l-0.888,0.421l-1.53,0.872l-2.084,0.966
		l-1.509,0.578l-2.296,0.776l0.008,0.069l0.078,0.065l0.486,0.007l0.546,0.08l0.107,0.164l0.079,0.541l-0.201,1.438l-0.186,0.331
		l-0.282,0.18l-0.405,0.349l-0.375,0.468l-0.282,0.556l-0.364,0.78l-0.735,1.362l-0.832,1.267l-0.892,1.221l-0.885,1.248
		l-0.416,0.556l-0.643,0.737l-1.115,1.092l-1.144,0.994l-1.476,1.098l-0.991,0.717l-0.554,0.327l-1.396,0.818l-1.394,0.997
		l-1.393,1.028l-0.985,0.821l-0.661,0.327l-0.182,0.007l-0.119-0.08l-0.082-0.327v-0.081L-51.91-32.6l0.081-1.217l0.134-0.773
		l0.033-0.435l-0.063-0.117l-0.285,0.008l-1.33,0.069l-1.635,0.08l-0.323,0.058l-0.164-0.097l-0.029-0.186l0.004-0.458l-0.022-0.148
		l-0.141-0.041l-0.483-0.008l-0.227,0.054l-0.066,0.069l0.033,0.869l-0.108,0.173l-0.367,0.08l-0.506,0.041l-0.163-0.044
		l-0.097-0.138l-0.008-0.189l-0.059-0.485l-0.03-0.08l-0.156-0.015l-0.624,0.015l-0.386,0.061l-0.135,0.087l-0.04,1.176l0.107,1.612
		l0.037,0.362l-0.182,0.072l-0.397-0.007l-0.205,0.103l-0.019,0.189l0.049,1.93l-0.052,1.104l-0.104,0.265l-0.156,0.081l-0.1-0.041
		l-0.082-0.191l-0.063-0.403l-0.06-0.715l-0.078-0.24l-0.208-0.019l-0.227,0.007l-0.26,0.08l-0.078,0.265l0.022,0.548l0.082,0.282
		l-0.078,0.219l-0.183,0.082l-2.529,0.056l-0.691-0.048l-0.171-0.164l-0.346-0.609l-0.26-0.226l-0.509-0.05l-1.775,0.085
		l-0.32,0.091l-0.268,0.178l-0.141,0.453l0.008,0.429l0.141,0.711l-0.07,0.24l-0.201,0.362l-0.78,0.646l-0.223,0.236l-0.012,0.334
		l0.045,2.484l0.078,0.377l0.082,0.141l0.46,0.03l2.813-0.022l0.297,0.037l0.111,0.111l0.082,0.171l0.019,0.871l0.074,2.385
		l0.078,1.949l0.078,0.219l0.227,0.08l0.713,0.077l0.237,0.08l0.149,0.26l0.089,0.977l0.041,0.994l-0.101,0.247l-0.227,0.197
		l-0.249,0.05l-0.479,0.08l-0.412,0.109l-0.107,0.081l-0.097,0.076l-0.019,0.138l0.008,0.221l0.077,0.208l0.227,0.635l0.012,0.355
		l-0.052,0.479l-0.442,1.049l-0.338,0.872l-0.397,0.421l-0.234,0.442l-0.22,0.171l-0.137,0.003l-0.193-0.262l-0.442-0.715
		l-0.219-0.351l-0.312-0.345l-0.479-0.534l-0.594-0.588l-0.357-0.366l-0.431-0.444l-0.535-0.526l-0.26-0.156l-0.237,0.008
		l-0.309,0.366l-0.167,0.46l-0.075,0.312l-0.148,0.394l-0.211,0.366l-0.397,0.186l-0.319,0.072l-0.156,0.152l-0.078,0.514
		l-0.03,0.396l-0.2,0.269l-0.238,0.279l-0.386,0.103l-0.465-0.051L-74.737-9.5l-0.765-0.413l-1-0.509l-0.795-0.312l-1.1-0.482
		l-1.396-0.498l-0.763-0.396l-1.329-0.602l-0.514-0.214l-0.096-0.163v-0.073l0.104-0.143l0.49-0.427l0.892-0.771l0.249-0.322v-0.143
		l-0.196-0.327l-0.424-0.297l-0.97-0.635l-0.799-0.377l-0.323-0.236l-0.609-0.396l-1.3-0.719l-0.873-0.399l-0.799-0.403
		l-0.561-0.442l-0.784-0.617l-0.825-0.498l-0.895-0.446l-0.681-0.375l-0.854-0.598l-0.898-0.631l-0.234-0.038l-0.327,0.11
		l-2.768,1.872l-0.397,0.236l-0.022,0.186l0.07,0.199l0.773,0.396l1.11,0.585l0.438,0.381l0.346,0.273l0.078,0.743l-0.23,1.274
		l-0.36,0.204l-0.364,0.08l-0.397,0.111l-0.676,0.345l-0.535,0.309l-0.461,0.214l-0.216,0.015l-0.661-0.217l-0.932-0.072
		l-0.432,0.011l-0.46,0.214l-0.803,0.643l-0.204,0.301l-0.097,0.294l-0.354,0.174l-1.326,0.334l-1.754,0.282l-0.416,0.106
		l-0.141,0.164l-0.022,0.065l-0.245-0.111l-0.101,0.054l-0.408,0.164l-0.312,0.065l-0.33,0.08l-0.205-0.029l-0.145,0.044
		l-0.082,0.055l0.034,0.243l0.104,0.556l0.082,0.754l0.041,0.425l0.052,0.269l0.101,0.834l0.155,1.1l0.204,1.486l0.112,0.476
		l0.171,0.126l0.249,0.026l1.144-0.113l2.059-0.389l0.616-0.08l0.438,0.13l0.408,0.266l0.265,0.359l0.449,0.763l0.237,0.396
		l0.487,0.94l0.762,1.616l0.914,1.873l0.568,1.22l0.523,1.343l0.148,0.556l0.197,0.693l0.249,0.566l0.476,0.944l0.163,0.362
		l0.101,0.349l0.004,0.232l-0.171,0.319l-0.397,0.403l-0.234,0.25l-0.22,0.25l-0.668,0.413l-0.554,0.35l-0.565,0.304l-0.382,0.145
		l-0.371,0.08l-0.19,0.004l-0.293-0.08l-0.379-0.271l-0.543-0.479l-0.427-0.368l-0.36-0.17l-0.375-0.082l-0.379-0.026l-0.947,0.243
		l0.014,0.359l0.306,0.631l0.516,0.468l0.554,0.531l0.558,0.831l0.375,0.236l0.082,0.251l0.271,0.174l0.188,0.199l0.205,0.171
		l0.851,0.041l2.444-0.067l1.612-0.149l1.609-0.187l1.689-0.281l1.98-0.555l0.558-0.229l0.624-0.32l0.583-0.315l0.416-0.399
		l0.142-0.582l0.211-0.417l0.183-0.076l0.253,0.043l0.468,0.265l0.327,0.422l0.097,0.164l0.208,0.093h0.554l0.107,0.087l0.093,0.182
		l0.107,0.05l0.268,0.08l0.606-0.004l0.371,0.041l0.13,0.145l0.078,0.16l0.007,0.217l-0.096,0.27l-0.142,0.153l-0.523,0.312
		l-0.755,0.304l-0.394,0.083l-0.353,0.051l-0.729-0.065l-0.253,0.022l-0.145,0.069l-0.394,0.247l-0.654,0.286l-0.609,0.262
		l-0.612,0.25l-0.461,0.297l-0.776,0.381l-0.183,0.139l-0.107,0.085l-0.015,0.113l-0.015,0.134l0.182,0.396l0.126,0.396l0.004,0.216
		l-0.152,0.384l-0.271,0.541l-1.022,0.665l0.148,0.156l0.142,0.028l0.408,0.022l0.286,0.087l0.387,0.308l0.189,0.396l-0.029,0.235
		l-0.189,0.197l-0.167,0.199l-0.03,0.201l0.007,0.232l-0.081,0.165l-0.319,0.078l-0.286-0.078l-0.36-0.123l-0.245,0.08l-0.104,0.164
		l0.063,0.24l0.197,0.555l0.018,0.479l-0.188,0.773l-0.547,1.141l-0.516,0.582l-0.38,0.26l-0.319,0.105l-0.029,0.084v0.123
		l0.223,0.155l0.078,0.19l0.019,0.159l-0.134,0.134l-0.249,0.078l-0.278,0.007l-0.204,0.298l0.007,0.35l0.09,0.546l-0.082,0.951
		l-0.152,0.717l-0.227,0.732l-0.071,0.485l0.06,0.25l0.156,0.315l0.008,0.29l-0.097,0.192l-0.558,0.35l-0.278,0.238l-0.167,0.289
		l-0.305,0.49l-0.278,0.253l-0.491,0.171l-0.631,0.148l-1.241,0.082l-0.554,0.015l-0.278,0.134l-0.312,0.233l-0.371,0.654
		l-0.089,0.532l0.155,0.382l0.628,0.718l0.877,0.684l0.828,0.33l0.646,0.234l0.564,0.082l0.421-0.016l0.345-0.233l0.387-0.62
		l0.342-0.368l0.212-0.008l0.141-0.004l0.186,0.156l0.238,0.346l0.015,0.397l0.015,0.542l0.163,0.606l0.201,0.635l0.238,0.227
		l0.505,0.268l0.468,0.219l0.224,0.356l0.122,0.477l0.16,0.476l0.268,0.557l0.476,0.438l0.609,0.301l1.37,0.156l1.297,0.082
		l0.688,0.237l0.223,0.286l0.007,0.282l-0.081,0.246l-0.624,0.4l-0.947,0.264l-0.854,0.249l-0.766,0.275l-0.877,0.078l-0.779,0.069
		l-0.271,0.075l-0.094,0.233l0.012,0.246l0.115,0.479L-91.413,43l-0.008,0.368l0.082,0.286l0.308,0.353l0.528,0.312l1.516,0.599
		l1.264,0.558l1.24,0.126l0.873,0.245l0.673,0.178l0.322,0.164l0.205,0.275l0.159,0.724l-0.041,0.599l0.138,0.367l0.442,0.725
		l0.523,1.041l0.168,0.995l-0.104,1.301l-0.186,0.887l-0.167,0.495l0.007,0.171l0.397,0.256l1.186,0.587l0.694,0.632l0.395,0.813
		l0.033,0.698l-0.197,0.718l-0.445,0.53l-0.395,0.469l-0.427,0.23l-0.346,0.126l-0.115,0.208l-0.241,0.007l-0.123-0.052
		l-0.237-0.211l-0.123,0.004l-0.189,0.081l-0.431,0.216l-0.274,0.152l-0.115,0.204l-0.016,0.387l0.012,0.234l0.442,0.077l0.917,0.06
		l1.014,0.052l0.279-0.081l0.152-0.119l0.119-0.111l0.059-0.179l0.06-0.205l0.022-0.233l0.228-0.118l0.274-0.119l0.312-0.09
		l0.316-0.015l0.356,0.097l1.036,0.847l1.029,0.937l0.732,0.431l0.643,0.179l0.639,0.074l0.227,0.06l0.138,0.238l0.048,0.382
		l0.082,0.171l0.167,0.078l0.268,0.015l0.356-0.015l0.115,0.037l0.052,0.201l0.016,0.342l0.148,0.513l0.465,0.557l1.118,1.133
		l0.717,0.74l0.572,0.557l0.248,0.082l0.275-0.093l0.082-0.204l0.077-0.32l0.149-0.256l0.115-0.078h0.081l0.171,0.227l0.275,0.616
		l0.175,0.397l0.319,0.079l0.383-0.127l0.535-0.188l0.906-0.038l0.55,0.086l0.558,0.183l0.69,0.601l0.628,0.669l0.84,1.186
		l0.427,0.435l0.286,0.126l0.078,0.008l0.186,0.022l0.312-0.082l0.111-0.148l0.215-0.35l-0.081-0.237l0.011-0.547l0.104-0.427
		l0.285-0.609l0.539-0.873l0.397-0.579l0.179-0.294l-0.049-0.229l-0.1-0.282l-0.257-0.238l-0.003-0.104l0.118-0.074l0.394-0.186
		l0.376-0.327l0.482-0.509l0.413-0.575l0.1-0.528l0.053-1.078l-0.193-0.765l-0.212-0.397l0.735,0.405l0.691,0.39l0.762,0.397
		l0.776,0.35l0.509,0.234l0.383,0.233l0.553,0.238l0.502,0.066l0.386-0.037l0.238-0.119l0.264-0.412l0.465-0.795l0.23-0.739
		l0.159-0.97l0.101-0.505l0.249-0.903l0.233-0.78l0.146-0.49l0.212-0.331l0.167-0.145l0.167-0.029l0.271,0.044l0.735,0.223
		l0.494,0.35l0.55,0.208l0.684,0.335l0.765,0.394l0.644,0.204l0.602,0.237l0.751,0.193l0.509,0.071l0.661,0.008l0.523-0.008
		l0.55,0.044l0.688,0.111l0.821,0.164l0.81,0.193l0.694,0.193l0.65,0.252l0.77,0.286l0.534,0.175l0.718,0.349l0.672,0.29
		l0.644,0.394l0.761,0.446l0.755,0.554l0.527,0.435l0.728,0.624l0.718,0.558l0.594,0.576l0.718,0.746l0.353,0.397l0.223,0.312
		l0.323,0.205l0.245,0.015l0.175-0.037l0.568-0.234l0.234-0.282l0.349-0.39L-29.985,64.704"/>
</g>
<g id="Layer_1_1_">
</g>
</svg>
