<?xml version="1.0" encoding="utf-8"?>
<!-- Generator: Adobe Illustrator 16.0.4, SVG Export Plug-In . SVG Version: 6.00 Build 0)  -->
<!DOCTYPE svg PUBLIC "-//W3C//DTD SVG 1.1//EN" "http://www.w3.org/Graphics/SVG/1.1/DTD/svg11.dtd">
<svg version="1.1" id="Layer_1" xmlns="http://www.w3.org/2000/svg" xmlns:xlink="http://www.w3.org/1999/xlink" x="0px" y="0px"
	 width="301.29px" height="298.229px" viewBox="-131.434 -130.185 301.29 298.229"
	 style="enable-background:new -131.434 -130.185 301.29 298.229;" xml:space="preserve">
<g id="Layer_100">
	<path id="Okara" style="fill:#CCCCCC;stroke:#FFFFFF;stroke-width:1.15;" d="M-0.478-124.321L-0.478-124.321l-0.961-0.221
		l-1.159-0.115l-1.312-0.038l-1.495,0.396l-0.862,0.48l-0.884,0.679l-1.312,0.542l-1.189,0.321l-0.999,0.465l-0.847,0.641
		l-0.496,0.717l-0.771,1.35l-0.465,1.312l-0.114,0.961l-0.106,1.205l0.106,1.586l-0.184,1.144l-0.366,1.198l-0.419,0.64l-0.9,0.679
		l-1.472,0.893l-1.159,0.427l-0.832-0.145l-1.144-0.358l-0.885-0.648l-0.702-0.9l-0.785-1.007l-0.603-0.427l-0.603-0.083
		l-0.488,0.083l-1.136,0.374l-0.916-0.007l-0.701-0.153l-0.626-0.381l-1.365-0.603l-1.083-0.404l-1.464-0.32l-1.709-0.053
		l-1.273,0.267l-2.12,0.8l-2.434,0.824l-1.792,0.671l-1.594,0.77l-1.183,0.748l-1.449,0.755l-1.342,0.427l-1.251,0.206l-0.48,0.084
		l-1.647-0.023l-0.618,0.161l-0.701,0.229l-0.907-0.008l-0.443-0.091l-0.061-0.557l-0.038-1.03l-0.19-0.648l-0.702-0.542
		l-0.206-0.053l-0.48-0.099l-0.48,0.038l-0.587,0.251l-0.519,0.419l-0.709,1.068l-0.886,0.824l-1.136,0.381l-1.64,0.137
		l-1.687,0.061l-0.686,0.191l-0.854,0.404l-0.801,0.351l-0.717,0.633l-0.374,0.649l-0.114,1.052l0.146,0.961l-0.184,0.602
		l-0.458,0.534l-1.015,0.511l-1.144,0.244l-1.137,0.13l-0.991,0.465l-0.648,0.244l-0.694,1.129l-0.48,1.266l-0.205,0.877
		l-0.176,0.946l-0.175,1.579l-0.176,0.801l-0.526,1.007l-0.717,0.472l-0.809,0.405l-0.763,0.175l-0.832,0.207l-0.571,0.358
		l-0.74,0.763l-0.839,0.503l-1.098,0.435l-0.893,0.252l-0.756,0.068l-1.021,0.16l-0.816,0.312l-0.809,0.504l-0.725,0.633
		l-1.075,0.892l-0.801,0.694l1.175,1.777l1.251,3.18l0.648,0.015l0.381,0.473l0.084,0.838l-0.16,1.206l-0.412,0.778l-0.419,0.381
		l-0.969,0.191l-0.824-0.031l-0.625,0.351l-0.893,0.458l-1.479,0.167l-1.053-0.412l-0.496-0.816l-0.099-0.938l0.046-0.816
		l-0.062-0.664l-0.259-0.206h-0.351l-0.764,0.198l-1.548,0.732l-2.25,1.174l-0.808,0.496l-0.45,0.297l-0.404,0.39l-0.48,0.602
		l-0.488,0.885l-1.021,1.098l-0.55,0.343l-0.488,0.137l-0.526-0.114l-0.289-0.473l-0.298-0.167l-0.732-0.053l-0.717,0.183
		l-0.48,0.488l-0.45,0.618l-0.587,0.58l-0.48,0.229l-0.42-0.007l-0.763-0.13l-0.48-0.343l-0.267-0.595l-0.122-0.763l-0.252-0.839
		l-0.42-0.251l-0.533-0.198l-0.396,0.069l-0.298,0.442l0.016,0.801l0.016,0.671l-0.214,0.702l-0.474,0.244l-0.487-0.259l-0.725-0.58
		l-0.328-0.893l-0.312-0.58l-0.48-0.297l-0.48,0.061l-0.397,0.435l-0.068,1.373l0.031,1.86l-0.168,0.702l-0.39,0.442l-0.48,0.184
		l-1.029-0.13l-1.167-0.076l-0.938,0.068l-1.083,0.641l-0.839,1.144l-0.381,0.496l-0.382,1.137l0.122,1.388l0.16,1.38l-0.282,0.61
		l-0.647,0.031l-1.274-0.167l-0.946-0.038l-0.854,0.084l-0.381,0.427l-0.763,0.969l-0.969,2.029l-0.526,0.694l-0.214,0.161
		l-0.061,0.48l0.533,0.846l0.206,1.472l0.16,1.144l-0.168,2.158l-0.427,4.515l-0.16,4.302l0.297,1.411l0.496,1.357l0.618,0.641
		l1.083,0.991l0.717,0.443l0.61,0.107l0.625-0.099l2.738-1.35l2.144-0.9l0.861,0.061l0.358,0.48l0.076,0.725l-0.092,0.725
		l-0.473,0.557l-3.684,3.424l-0.847,1.083l-0.274,0.717l0.099,0.541l0.48,0.358l0.816,0.046l2.212-0.679l1.183-0.061l1.144,0.206
		l0.572,0.557l0.16,0.419l-0.054,0.526l-0.183,0.991l-0.48,0.45l-0.999,0.488l-2.723,1.129l-2.854,0.938l-1.776,0.511l-0.504,0.381
		l-0.312,0.473l0.016,0.816l0.625,1.129l0.725,0.656l1.708,1.251l1.091,0.74l0.725,0.793l0.313,0.778l0.114,0.976l-0.206,0.542
		l-0.458,0.259l-1.06,0.168l-1.053,0.015l-1.053,0.084l-0.496,0.396l-0.289,0.48l0.068,0.427l0.579,1.007l0.771,1.09l0.687,1.449
		l0.687,1.953l0.626,1.815l0.358,0.739l0.549,0.969l0.641,0.61l1.258,0.633l1.625,0.648l0.999,0.039l2.738-1.137l1.731-1.366
		l2.997-1.594l1.343-0.007l1.884,0.511l3.333,1.426l3.425,2.51l1.266,1.121l0.877,1.335l0.732,1.418l0.366,2.662l0.198,2.761
		l0.038,4.484l-0.114,2.189l0.046,0.9l-0.702,2.425l-1.136,1.571l-1.251,0.984l-2.906,2.379l-0.869,1.015l-0.412,1.121l-0.214,0.961
		l0.168,1.777l0.312,1.541l0.466,1.303l0.816,1.129l0.877,0.955l0.815,0.861l0.48,0.785l0.48,1.129l1.519,4.713l-0.298,0.449
		l-0.168,0.719l0.488,0.51l1.602,0.932l0.816,0.488l0.366,0.717l0.084,1.447l0.487,2.709l-0.007,1.586l-0.458,1.107l-0.229,0.449
		l-0.785,1.334l-1.021,0.627l-1.465,0.57l-3.005,0.984l-1.602,0.809l-0.877,0.67l-0.366,0.643l-0.168,0.67l0.229,1.021l0.488,0.811
		l1.335,0.693L-97.6,55.6l0.748,0.32l0.449,0.48l0.161,0.756l-0.184,0.738l-0.145,0.727l-0.526,0.609l-0.587,0.48l-0.443,0.328
		l-0.541,0.328l-0.595,0.16l-1.327,0.053l-1.724-0.32l-1.525-0.359l-0.519,0.092l-0.526,0.16l-1.053,0.656l-2.548,2.053
		l-2.349,1.654l-1.015,0.541l-0.823,0.26l-1.327,0.168l-1.754,0.1l-1.351,0.305l-0.625,0.389l-0.862,0.527l-0.931,0.617
		l-0.419,0.396l-0.16,0.83l1.594,0.566l1.777,0.441l2.982-0.092l-0.016,0.16l-0.038,0.373l-0.152,0.52l-0.16,0.58l0.061,0.945
		l0.42,0.717l0.572,0.596l0.815,0.488l1.205,0.633l0.946,0.441l0.625,0.32l0.893,0.207l0.809,0.189l0.449,0.137l0.396,0.291
		l0.26,0.48l0.084,0.564l-0.114,0.693l-0.366,0.924l-0.579,1.121l-0.382,0.746l-0.236,0.672l-0.008,0.336l0.016,0.191l0.114,0.197
		l0.48,0.504l0.701,0.396l0.488,0.26h0.626l0.267-0.16l0.442-0.359l0.145-0.244l0.084-0.609l0.068-0.535l0.1-0.234l0.206-0.322
		l0.206-0.184l0.327-0.15l0.642-0.039l0.587-0.092l0.572-0.199l0.465-0.266l0.465-0.328l0.298-0.359l0.069-0.357l-0.115-0.381
		l-0.267-0.543l-0.229-0.357l-0.237-0.457l-0.084-0.168l0.092-0.16l0.244-0.26l0.427-0.221l0.55-0.061l0.442-0.023l0.457-0.076
		l0.809-0.199l0.512-0.244l0.389-0.189l0.336-0.215l0.351-0.014l0.404,0.021l0.473,0.152l0.274,0.191l0.382,0.916l0.351,0.623
		l0.465,0.322l0.404,0.092l0.61,0.008l0.511-0.162l0.626-0.213l0.358-0.221l0.427-0.336l0.328-0.084l0.366,0.068l0.259,0.168
		l0.191,0.275l0.015,0.32l-0.145,0.352l-0.312,0.305l-0.161,0.289l-0.075,0.312l0.075,0.176l0.313,0.113l0.381,0.084l0.436-0.105
		l0.655-0.23l0.458-0.137h0.48l0.839,0.168l0.893,0.559l0.633,0.273l0.412,0.129h0.29l0.351-0.121l0.495-0.215l0.214-0.158
		l0.184-0.268l0.061-0.359l-0.114-0.289l-0.176-0.312l-0.396-0.291l-0.427-0.449l-0.298-0.275l-0.16-0.357l0.016-0.215l0.16-0.473
		l0.16-0.625l0.022-0.373l-0.076-0.207l-0.054-0.129l-0.236-0.252l-0.167-0.221l-0.214-0.473l-0.038-0.314l0.084-0.242l0.145-0.107
		l0.396-0.197l0.366-0.062l0.488,0.023l0.351,0.076l0.39,0.16l0.557,0.092l0.45,0.129h0.396l0.411-0.068l0.48-0.068l0.694-0.197
		l0.457-0.23l0.283-0.152l0.145-0.16l0.076-0.281l-0.016-0.221l-0.091-0.223l-0.26-0.488l-0.053-0.35l0.038-0.184l0.075-0.275
		l0.169-0.486l0.221-0.422l0.32-0.318l0.572-0.352l0.488-0.145l0.595-0.062l0.663-0.121L-77,68.162l0.32-0.283l0.16-0.412
		l0.068-0.344l-0.015-0.365l-0.274-0.404L-77,66.117l-0.442-0.312l-0.396-0.305l-0.19-0.307l-0.046-0.41l0.046-0.367l0.16-0.396
		l0.282-0.381l0.305-0.336l0.184-0.336l0.061-0.168l0.092-0.289l-0.03-0.236l-0.122-0.26l-0.168-0.297l-0.03-0.236l0.152-0.352
		l0.198-0.273l0.374-0.215l0.739-0.221l1.045-0.328l1.106-0.252l0.801-0.182l0.603-0.199l0.519-0.312l0.365-0.305l0.245-0.428
		l0.106-0.281l0.099-0.207l-0.099-0.305l-0.16-0.252l-0.496-0.152h-0.557l-0.671,0.131l-0.488-0.01l-0.236-0.092l-0.038-0.182
		v-0.352l0.145-0.457l0.312-0.58l0.275-0.412l0.335-0.336l0.442-0.35l0.512-0.52l0.465-0.473l0.648-0.473l0.763-0.436l0.305-0.137
		l0.374-0.068h0.198l0.16,0.061l0.19,0.215l0.046,0.242l-0.114,0.191l-0.336,0.436l-0.381,0.465l-0.062,0.207l0.038,0.158
		l0.382,0.328l0.465,0.26l0.428,0.084h0.267l0.282-0.031l0.289-0.145l0.176-0.16l0.054-0.244l-0.016-0.205l-0.076-0.367l0.069-0.258
		l0.129-0.199l0.199-0.176l0.419-0.16l0.282-0.053l0.267,0.045l0.48,0.221l0.488,0.291l0.511,0.26l0.366,0.076h0.206l0.48-0.168
		l0.45-0.252l0.129-0.252l0.023-0.449l-0.16-0.512l-0.298-0.572l-0.183-0.312l-0.48-0.266l-0.671-0.199l-0.809-0.221l-0.572-0.123
		l-0.297-0.197l-0.236-0.252l0.022-0.16l0.084-0.184l0.251-0.221l0.45-0.26l0.534-0.275l0.771-0.305l0.609-0.26l0.412-0.234
		l0.396-0.396l0.55-0.436l0.244-0.229l0.274-0.139l0.335-0.1l0.443-0.137l0.609-0.076l0.397-0.221l0.273-0.205l0.198-0.238
		l0.29-0.213l0.474-0.221l0.503-0.16l0.336-0.045l0.404,0.014l0.267,0.078l0.16,0.121l-0.038,0.184l-0.259,0.242l-0.618,0.314
		l-0.534,0.229l-0.488,0.342l-0.198,0.268l-0.145,0.275l0.008,0.129l0.29,0.199l0.473,0.145l0.655,0.137l0.732,0.32l0.778,0.344
		l0.305,0.236l0.168,0.305l-0.062,0.252l-0.106,0.244l-0.222,0.396l-0.137,0.336l-0.038,0.389l0.076,0.412l0.32,0.449l0.42,0.488
		l0.183,0.32l0.152,0.236l0.122,0.436v0.365l-0.122,0.396l-0.519,0.504l-0.709,0.359l-0.626,0.35l-0.519,0.336l-0.48,0.32
		l-0.282,0.229l-0.267,0.533l0.022,0.398l0.1,0.654l-0.054,0.246l-0.175,0.473l-0.184,0.48l-0.137,1.166l-0.214,0.641l-0.32,0.533
		l-0.16,0.811l-0.344,0.99l-0.289,1.045l-0.236,0.961l-0.16,0.648l-0.114,0.58l0.114,0.672l0.076,0.365l0.381,0.289L-59.854,68
		l0.412,0.131l0.458-0.016l0.419-0.182l0.244-0.184l0.229-0.305l0.168-0.512l0.252-0.396l0.221-0.199l0.26-0.16l0.328-0.092h0.449
		l0.572,0.123l0.496,0.1l0.198,0.145l0.062,0.305l-0.138,0.312l-0.29,0.436l-0.13,0.428l-0.229,0.441l-0.084,0.229l0.146,0.32
		l0.167,0.352l0.39,0.289l0.48,0.199l0.557,0.312l0.563,0.268l0.336,0.266l0.1,0.412l0.252,0.504l0.335,0.396l0.244,0.168
		l0.298,0.105l0.809-0.014l0.602-0.016l0.74,0.045l0.626,0.244l0.351,0.26l0.236,0.289l0.16,0.307l-0.008,0.488l-0.122,0.41
		l-0.206,0.443l-0.092,0.441v0.32l0.268,0.307l0.184,0.174l0.533-0.016l0.473-0.014l0.603-0.137l0.504-0.016l0.373,0.092
		l0.519,0.471l0.298,0.336l0.32,0.533l0.48,0.535l0.389,0.268l0.374,0.1l0.488,0.076l0.496-0.016L-41.58,78h0.358l0.404,0.145
		l0.282,0.252l0.267,0.307l0.16,0.121l0.572,0.045l0.984-0.107l2.44-0.121l1.754-0.107l0.923-0.037l0.496-0.061l0.435-0.168
		l0.183-0.131l0.152-0.328l0.023-0.312l-0.038-0.326l0.145-0.176l0.168-0.191l0.557-0.145l0.679-0.016l0.572,0.053l0.466,0.176
		l0.159,0.291l0.123,0.334l0.091,0.375l0.146,0.176l0.206,0.137l0.717,0.168l1.602,0.252l2.349,0.32l2.952,0.494l0.739,0.092
		l0.404,0.168l0.16,0.275l-0.016,0.441l-0.213,0.549l-0.32,0.32l-0.198,0.352l-0.138,0.236l0.054,0.58l0.152,0.488l0.32,0.557
		l0.61,0.52l0.534,0.342l0.8,0.152l0.61,0.047l1.633,0.014l1.151,0.031l1.061,0.031l1.441-0.168l1.075-0.1l0.815,0.068l0.786,0.084
		l0.603,0.137l0.404,0.215l0.1,0.16l-0.107,0.266l-0.457,0.26l-0.74,0.221l-0.671,0.215l-0.564,0.289l-0.32,0.23l-0.29,0.586
		l-0.106,0.564l0.076,0.48l0.389,0.656l0.419,0.389l0.809,0.344l0.679,0.098l1.45,0.139l1.205,0.121l0.617,0.184l0.352,0.137
		l0.205,0.26l0.106,0.428l-0.015,0.402l-0.45,0.59l-0.809,0.654l-0.724,0.504l-0.588,0.473l-0.274,0.412l-0.412,0.656l-0.42,0.625
		L-9.715,96.1l-0.145,0.641l0.068,0.678l0.221,0.465l0.244,0.367l0.374,0.275l0.389,0.145l0.588,0.068l0.473,0.029l0.153,0.084
		l0.198,0.215l0.068,0.297l-0.176,0.357l-0.435,0.275l-0.687,0.312l-0.512,0.359l-0.465,0.273l-0.168,0.451l-0.015,0.525
		l-0.092,0.359l-0.274,0.342l-0.32,0.207l-0.435,0.16l-0.45,0.1l-0.358,0.129l-0.351,0.176l-0.306,0.305l-0.274,0.383l-0.419,0.189
		l-0.458,0.045l-0.389-0.029l-0.48-0.205l-0.687-0.131l-0.771-0.221l-0.572-0.123l-0.641-0.098l-0.503,0.082l-0.458,0.184
		l-0.282,0.275l-0.282,0.336l-0.222,0.586l-0.053,0.977l0.251,1.029l0.039,1.076l-0.068,0.756l-0.313,0.686l-0.801,1.189
		l-1.105,1.074l-0.931,0.895l-1.175,1.021l-0.694,0.785l-0.457,0.52l-0.076,0.326l-0.107,0.389l0.152,0.506l0.374,0.441l0.442,0.281
		l0.496,0.184l0.701,0.129l0.58-0.084l0.999-0.105l0.977-0.199l0.648-0.16l0.679-0.174l0.449-0.275l0.298-0.297l0.092-0.389
		l0.008-0.33l-0.122-0.488l0.007-0.463v-0.275l0.16-0.412l0.26-0.229l0.351-0.221l0.854-0.191l0.809,0.031l0.679,0.205l0.427,0.229
		l0.572,0.26l0.572,0.152l0.823-0.016l0.809-0.189l0.809-0.115l0.572,0.016l0.815,0.076l0.648,0.121l0.42,0.168l0.16,0.26v0.365
		l-0.16,0.656l-0.626,0.779l-0.557,0.572l-0.183,0.221l-0.122,0.266l-0.008,0.404l0.184,0.396l0.839,0.688l0.899,0.633l1.297,0.633
		l0.648,0.359l0.244,0.281l0.167,0.42l0.198,0.816l0.168,0.885l0.085,1.037l0.159,0.441l0.152,0.764l-0.029,0.35l-0.199,0.275
		l-0.473,0.229l-0.595,0.131l-0.366-0.031l-0.755-0.16l-0.61-0.16h-0.32l-0.45,0.145l-0.473,0.191l-0.396,0.25l-0.389,0.391
		l-0.198,0.533l-0.069,0.625l0.069,1.396l0.221,2.555l0.1,1.648l0.037,2.104l0.13,2.738l0.016,1.725l-0.152,1.145l-0.122,1.295
		l-0.42,1.709l-0.29,1.145l-0.213,1.793l-0.076,0.625l0.236,1.982l-0.016,1.725l0.03,0.357l-0.007,2.029l0.267,1.441l2.182,0.656
		l0.503,0.656l0.244,0.975l-0.442,1.52l-0.71,1.426l-0.053,0.893l0.236,1.045l0.366,0.418l0.923,0.031l0.931-0.527l1.273-1.646
		l1.099-1.809l1.099-1.479l1.144-1.236l1.342-1.037l1.045-0.496l1.213-0.289l1.579,0.047l1.273,0.197l1.273,0.672l0.351,0.572
		l0.489,1.602l0.701,1.09l0.473,0.252l0.474,0.1l0.556-0.16l0.954-0.717l1.784-0.992l0.938-0.48l1.205-0.365h2.707l3.066,0.242
		l0.923,0.26l0.626,0.58l0.716,0.664l0.718,0.982l0.739,0.176l0.55-0.084l0.503-0.555l1.808-1.473l1.793-0.992l1.876-0.756
		l3.668-1.021l2.235-0.441l0.854-0.52l0.405-0.717l0.167-1.922l0.274-7.002l0.031-0.74l0.411-0.533l0.771-0.389l1.32-0.596
		l2.066-0.428l1.594-0.273l1.594-0.449l1.137-0.146l1.03,0.031l1.112,0.352l1.175,0.465l1.847,0.205l0.907,0.115l1.761,0.709
		l2.098,0.375l2.113,0.533l1.473,0.93l0.808,0.992l0.335,0.869l-0.091,2.029l0.526,0.48l0.534,0.168l0.541,0.014l0.572-0.305
		l0.404-0.814l0.091-1.939l0.114-0.396l0.299-0.41l0.655-0.062l1.144-0.289l1.137-0.367l1.434-0.785l1.511-0.898l2.197-1.633
		l3.256-2.539l2.028-1.725l1.068-0.785l0.664-0.16l0.472,0.1l0.359,0.334l0.252,0.656l0.183,1.938l0.16,2.494l0.229,0.869
		l1.175,0.457l1.411-0.029l0.763-0.16l0.419-0.877l0.412-0.709l0.198-0.961l0.138-0.543l0.48-0.16l0.647,0.023l0.069-0.039
		l-0.877-1.137l-0.137-0.234l-0.092-0.107l-0.084-0.16l-9.023-5.744l-4.394-2.615l-1.456-0.473l-0.29-0.52l-1.03-1.799l-0.121-2.098
		l0.176-0.725l0.549-2.014l2.113-2.502l3.118-2.539l1.343-1.092l0.252-0.334l2.228-3.045l0.731-1.326l5.423-1.082l2.471-0.254
		l0.352-0.578l0.48-0.748l0.42-2.676l1.631-3.166l-1.425-5.01l0.976-1.473l3.753,0.221l1.144,0.596l1.548,0.799l0.618,0.031
		l1.792,0.092l1.243-1.906l0.748-5.416l0.373-0.762l0.9-1.816l2.166-2.479l1.365-1.539l0.274-0.215l1.305-1.084l4.713-2.637
		l7.329-4.111l2.075-3.379l2.685-0.627l0.488,0.588l1.938,2.373l2.601,2.119l1.464,0.252l2.044,0.344l3.623-2.975l2.342-3.67
		l-0.076-0.656l-0.084-0.77l-2.761-1.838l-0.062-1.266l0.58-0.688l0.915-1.066l2.784-0.627l2.662-0.594l-0.313-4.271l-0.068-0.785
		l0.427-1.74l1.182-4.957l-0.167-2.531l0.259-0.352l0.984-1.312l3.92-1.143l1.663-1.365l3.181-2.623l1.518-0.047l2.608-0.092
		l2.258-1.143l3.492-2.922l-0.777-1.021l-0.274-3.129l-0.571-0.326l-0.405-0.328l-0.214-0.207l-0.434-0.832l-0.756-1.455
		l-0.435-0.564l-0.885-0.961l-0.625-0.488l-0.878-0.352l-0.915-0.273l-0.419-0.26l-0.351-0.26l-0.222-0.441l-0.16-0.719l0.137-1.547
		l-0.03-1.098l-0.19-0.748l-0.206-0.375l-0.366-0.26l-0.458-0.145l-0.8-0.098l-0.717-0.1l-0.413-0.184l-0.708-0.389l-0.466-0.365
		l-0.732-0.741l-0.533-0.785l-0.564-1.19l-0.48-2.037l-0.168-2.41l-0.16-0.755l-0.321-0.709l-0.595-0.671l-0.884-0.618l-2.54-1.602
		l-1.563-0.915l-0.351-0.297l-0.366-0.404l-0.106-0.336l-0.062-0.488l-0.03-0.862l-0.237-0.832l-0.541-0.633l-1.144-0.877
		l-2.77-1.67l-0.701-0.306l-0.809-0.358l-0.488-0.29l-0.305-0.374l-0.198-0.565l0.076-0.793l0.558-1.228l0.738-1.037l0.26-0.839
		l0.062-1.053l-0.282-1.159l-0.977-1.945l-1.373-2.608l-0.229-0.511l-0.374-0.48l-0.633-0.519l-0.488-0.213l-0.862-0.053
		l-1.975,0.198l-2.273,0.236l-1.312-0.122l-2.914-0.572l-2.196-0.884l-0.48-0.451l-0.267-0.48l-0.222-0.754l-0.29-0.709
		l-0.434-0.549l-0.359-0.298l-0.45-0.145l-0.823-0.015l-0.305-0.099l-0.214-0.259l-0.32-0.526l-0.282-0.854l-0.16-1.175l0.16-0.87
		l0.221-0.915l0.329-0.771l0.03-0.602l-0.161-0.222l-0.365-0.259l-1.557-0.55l-0.93-0.274l-1.145-0.13l-0.861,0.251l-0.39,0.351
		l-0.541,0.725l-0.374,0.618l-0.488,1.03l-0.419,0.77l-0.252,0.259l-0.449,0.244l-0.505,0.007l-0.617-0.137l-0.267-0.298
		l-0.184-0.793l-0.176-0.748l-0.373-0.442l-0.625-0.396l-0.809-0.282l-0.358-0.328l-0.419-0.557l-0.321-0.404l-0.519-0.305
		l-0.983-0.123l-1.815,0.008l-0.809-0.107l-1.281-0.19l-0.977-0.358l-1.792-1.053l-1.297-0.801l-0.884-0.625l-0.366-0.366
		l-0.161-0.374l-0.054-0.305l0.069-0.381l0.366-0.458l0.221-0.61l-0.122-0.824l-0.274-0.419l-0.815-0.542l-1.595-0.8L90-34.551
		l-1.136-0.275l-1.472-0.305l-1.312-0.115l-0.824,0.016l-0.343,0.122l-0.138,0.412l0.069,0.458l0.022,0.603l-0.152,0.343
		l-0.237,0.229l-0.503,0.015l-1.235-0.123l-1.792-0.122l-1.785,0.007l-1.312,0.138l-1.145-0.008l-0.869-0.32l-1.411-1.022
		l-0.915-0.427l-1.038-0.13l-0.762,0.015l-1.091,0.298l-1.098,0.145l-1.625,0.038l-2.112-0.145l-0.764-0.327l-0.991-0.694
		l-0.496-0.511l-0.525-0.671l-0.298-0.977l-0.146-1.014l0.161-1.022l0.282-0.687l0.068-0.74l-0.244-0.832l-1.357-2.685l-1.357-2.273
		l-2.021-2.486l-2.112-2.585l-0.427-0.748l-0.481-0.968l-0.923-1.945l-0.641-0.93l-0.641-0.809l-0.48-0.328l-0.663-0.092
		l-0.969,0.023l-0.953,0.206l-1.092,0.412l-2.296,1.22l-1.494,0.801l-0.946,0.473l-0.609,0.282l-0.436,0.123l-0.35,0.007
		l-0.413-0.046l-0.495-0.251L40.92-55.38l-0.564-0.488l-0.654-0.473l-0.26-0.206l-1.022-0.961l-3.059-2.09l-2.669-2.006
		l-0.785-0.732l-0.168-0.748l0.099-0.991l0.442-0.793l0.77-0.976l0.87-1.328l0.87-1.586l0.724-2.501l0.176-0.778l-0.106-0.93
		l-0.168-0.694l-0.32-0.748l-0.229-1.907l-0.03-0.267l-0.16-0.32l-0.64-0.122l-1.13-0.091l-1.273-0.076l-3.271-0.984l-2.105-1.396
		l-1.861-1.678l-1.357-2.425l-1.137-3.158l-0.945-2.891l-0.473-1.335L20.229-91.7l-0.389-0.739l-0.48-0.58L18.33-93.66l-1.647-0.549
		l-4.104-1.366l-4.752-1.212l-2.753-0.847l-2.418-0.984l-0.625-0.564L1.97-99.83l0.16-0.557l0.458-0.633l0.396-0.565l0.062-0.663
		l-0.062-0.641l-0.496-1.502l-0.282-1.022l0.076-0.656l0.191-0.618l0.641-0.648l0.961-0.511l1.144-0.458l1.473-0.542l0.785-0.542
		l0.389-0.633l0.084-0.45l-0.099-0.427l-0.473-0.778l-0.664-0.991l-0.305-1.289l-0.558-1.282l-0.846-1.533l-0.672-1.38l-0.641-0.778
		l-0.595-1.06l-0.297-0.618l-0.809-1.213l-0.58-1.029l-0.702-0.694L-0.478-124.321"/>
</g>
<g id="Layer_1_1_">
</g>
</svg>
