<?xml version="1.0" encoding="iso-8859-1"?>
<!-- Generator: Adobe Illustrator 16.0.4, SVG Export Plug-In . SVG Version: 6.00 Build 0)  -->
<!DOCTYPE svg PUBLIC "-//W3C//DTD SVG 1.1//EN" "http://www.w3.org/Graphics/SVG/1.1/DTD/svg11.dtd">
<svg version="1.1" xmlns="http://www.w3.org/2000/svg" xmlns:xlink="http://www.w3.org/1999/xlink" x="0px" y="0px"
	 width="58.844px" height="58.386px" viewBox="0 0 58.844 58.386" style="enable-background:new 0 0 58.844 58.386;"
	 xml:space="preserve">
<g id="Layer_167">
	<g id="Layer_172">
		<path id="Bolan" style="fill:#CCCCCC;stroke:#FFFFFF;stroke-width:1.07;" d="
			M0.921,20.062L0.921,20.062l0.245-0.039l0.229-0.043l0.28,0.043l0.203,0.022l0.356,0.11l0.458,0.154l0.433,0.066l0.229-0.021
			l0.204-0.045H3.71l0.152,0.021l0.306,0.066l0.28,0.021l0.305-0.065l0.305-0.066h0.153l0.229,0.044l0.229,0.067l0.381,0.088h0.28
			l0.331-0.045l0.381-0.11l0.484-0.2l0.788-0.422l0.408-0.223l0.356-0.088l0.229,0.021l0.178,0.044l0.152,0.156l0.127,0.178v0.155
			l0.025,0.134l0.152,0.179l0.076,0.178L9.993,20.6l-0.076,0.198l0.025,0.334l0.089,0.681l0.279,0.801l0.533,0.777l0.382,0.369
			l0.125,0.12l0.991,0.558l0.711,0.399l0.609,0.181l0.229,0.154l0.228,0.245l0.05,0.179l-0.002,1v0.467l0.227,0.711l0.126,0.423
			l0.061,0.579l0.041,0.395l0.302,1.156l0.074,0.956l0.125,1.178l-0.104,1.267l-0.205,0.89l-0.255,0.776l-0.306,0.533l-0.355,0.443
			l-0.563,0.376l-0.381,0.333L12.547,37.5l-0.457,0.6l-0.406,0.933l-0.305,0.821l-0.28,0.91l-0.354,0.756l-0.406,0.978l-0.228,0.601
			l-0.178,0.645l-0.095,0.574l-0.253,0.777l-0.178,0.578L9.18,46.203l-0.405,0.512l-0.329,0.467l-0.405,0.311L7.763,47.67
			l-0.101-0.045v-0.088l0.051-0.134l-0.026-0.089L7.61,47.27l-0.278-0.021l-0.14,0.021l-0.479,0.303L6.351,47.95L5.89,48.502
			l-0.495,0.812l-0.165,0.521l-0.098,0.696l0.396,1.422l0.066,1.017l-0.007,0.157l0.793,0.332l0.218,0.072l0.294,0.069L7.38,53.69
			l0.753,0.043l0.152,0.034l0.336-0.006l0.366-0.054l0.355-0.11l0.214-0.069l0.171-0.127l0.148-0.155l0.094-0.145l0.138-0.116
			l0.215-0.101l0.366-0.101l0.172-0.051l0.215-0.089l0.311-0.158l0.483-0.208l0.622-0.249l0.599-0.229l0.322-0.121l0.128-0.097
			l0.278-0.166l0.302-0.081l0.292-0.006l0.294,0.062l0.284,0.119l0.329,0.187l0.275,0.224l0.268,0.406l0.236,0.416l0.113,0.227
			l0.155,0.15l0.219,0.158l0.272,0.072l0.227,0.006l0.184-0.051l0.15-0.068l0.095-0.105l0.124-0.299l0.08-0.344l0.025-0.382
			l0.017-0.248l0.013-0.429l-0.08-0.389l-0.061-0.371l-0.054-0.484l0.047-0.401l0.081-0.315l0.165-0.479l0.112-0.336l0.105-0.164
			l0.181-0.184l0.245-0.241l0.182-0.136l0.279-0.157l0.431-0.103l0.26-0.004l0.131,0.026l0.077,0.075l0.047,0.189l-0.007,0.219
			l-0.039,0.24l-0.02,0.133l0.045,0.086l0.11,0.064l0.214,0.004l0.238-0.021l0.452-0.16l0.743-0.259l0.679-0.2l0.422-0.054
			l0.282-0.022l0.618,0.029l0.575,0.03h0.003l0.54,0.068l0.501,0.137l0.579,0.238l0.339,0.206l0.154,0.131l0.034,0.095l-0.008,0.117
			l-0.125,0.11l-0.234,0.241l-0.278,0.203l-0.332,0.233l-0.256,0.224l-0.104,0.248l-0.05,0.229l-0.028,0.258l0.094,0.398l0.17,0.436
			l0.291,0.53l0.422,0.527l0.145,0.207l0.319,0.302l0.242,0.272l0.2,0.322l0.104,0.352l0.084,0.447l0.072,0.465l0.16,0.494
			l0.271,0.596l0.22,0.836l0.248,0.588l0.011,0.047l0.417-0.207l0.437-0.146l0.387-0.019l0.493-0.022L30.16,57.2l0.354,0.028
			l0.312,0.037l0.305,0.123l0.359,0.19l0.249,0.048l0.22-0.053l0.116-0.158l0.15-0.449l0.089-0.228l0.167-0.246l0.272-0.266
			l0.053-0.095l-0.002-0.094l-0.047-0.061l-0.072-0.037l-0.413-0.182l-0.351-0.185l-0.174-0.136l-0.039-0.115l-0.004-0.101
			l0.164-0.349l0.161-0.176l0.214-0.193l0.379-0.205l0.397-0.262l0.21-0.27l0.268-0.428l0.141-0.246l0.291-0.521l0.441-0.728
			l0.725-0.962l0.309-0.312l0.197-0.146l0.182-0.082l0.143-0.004l0.109,0.082l0.023,0.179l0.012,0.575l-0.107,0.914l0.006,0.877
			l-0.02,0.431l0.035,0.147l0.057,0.121l0.072,0.053l0.145,0.044l0.143,0.004l0.104-0.003l0.168-0.028l0.162-0.112l0.26-0.164
			l0.307-0.103l0.35-0.134l0.258-0.147l0.348-0.196l0.197-0.168l0.145-0.168l0.047-0.188v-0.437l-0.016-0.179l-0.088-0.224
			l-0.217-0.398l-0.127-0.314l0.008-0.278l0.279,0.024l0.281-0.017l0.51-0.062l0.811-0.166l0.512-0.193l0.316-0.17l0.391-0.088
			l0.508-0.209l0.617-0.324l0.904-0.48l0.512-0.246l0.648-0.323l0.783-0.312l0.449-0.133l0.498-0.148l0.512-0.18l0.24-0.156
			l0.139-0.196l0.139-0.42l0.174-0.646l0.172-0.525l0.17-0.485l0.133-0.38l0.109-0.407l0.002-0.146l-0.043-0.094l-0.18-0.055
			l-0.346-0.068l-0.389-0.069l-0.283-0.188L46.77,43.49l0.016-0.092l0.107-0.145l0.303-0.183l0.227-0.169l0.213-0.195l0.168-0.289
			l0.092-0.197l0.078-0.145l0.137-0.104l0.316-0.062l0.631-0.126l0.801-0.296l0.904-0.4l0.652-0.455l0.545-0.39l0.658-0.491
			l0.531-0.391l0.092-0.092l-0.107-0.16l-0.139-0.246l-0.137-0.172l-0.203-0.188l-0.172-0.244l-0.189-0.303l-0.496-0.722
			l-0.621-0.746l-0.322-0.345l-0.324-0.358l-0.424-0.416l-0.393-0.415l-0.355-0.33l-0.291-0.375l-0.125-0.361l-0.021-0.203
			l-0.008-0.352l0.023-0.451l0.205-0.5l0.209-0.267l0.295-0.194l0.15-0.031l0.281-0.004l0.316,0.037l0.588,0.194l0.604,0.269
			l0.787,0.234l0.586,0.164l0.867,0.09l0.633,0.047l0.531,0.008l0.646-0.039l0.598-0.082l0.531-0.066l0.381-0.162l0.256-0.158
			l0.139-0.137h-0.281l-0.57-0.099l-0.615-0.099l-0.451-0.099l-0.629-0.229l-0.732-0.299l-0.676-0.244L53.076,31l-0.559-0.252
			l-0.928-0.392l-0.852-0.511l-0.973-0.629l-0.91-0.562l-0.732-0.535L47.422,27.6l-0.555-0.282l-0.531-0.315l-0.373-0.318
			l-0.613-0.454l-0.447-0.269l-0.209-0.199l-0.367,0.352l-0.592,0.247l-0.539,0.282l-0.768,0.375l-0.629,0.182l-0.266,0.041
			l-0.613-0.133l-0.424-0.242l-0.371-0.176L39.83,26.5l-0.371-0.158l-0.279-0.123l-0.377-0.025l-0.449-0.045l-0.277-0.156
			l-0.354-0.174l-0.369-0.191l-0.207-0.021l-0.457,0.104l-0.039,0.02l-0.307,0.138l-0.291,0.272l-0.762,0.74l-0.408,0.367
			l-0.572,0.233l-0.514,0.118l-0.717-0.002l-0.939-0.072l-0.128-0.104l0.005-0.164l0.137-0.162l0.176-0.16l0.14-0.229l0.126-0.393
			l0.027-0.247l-0.097-0.53l-0.13-0.63l-0.052-0.729l-0.165-0.713l-0.234-0.319l-0.48-0.325l-0.707-0.266l-0.676-0.133l-0.373-0.142
			l-0.221-0.171l-0.089-0.167l-0.03-0.248l0.103-0.245l0.055-0.246l-0.142-0.543l-0.229-0.818l-0.045-0.349l0.011-0.347l0.01-0.329
			l-0.031-0.198l-0.105-0.251l-0.221-0.187l-0.203-0.154l-0.108-0.184l0.006-0.183l-0.007-0.362l0.006-0.183l-0.141-0.334
			l-0.181-0.251l-0.428-0.241l-0.318-0.091l-0.284,0.01l-0.646,0.116l-0.435-0.011l-0.241-0.139l-0.167-0.086l-0.132-0.004
			l-0.135,0.08l-0.194,0.16l-0.231,0.143l-0.132-0.02l-0.111-0.053l-0.163-0.219l-0.18-0.316l-0.144-0.252l-0.008-0.346
			l-0.158-0.385l-0.102-0.197L23.7,14.442l-0.375-0.124l-0.301-0.057l-0.186-0.104L22.429,13.9l-0.278-0.172l-0.329-0.043
			l-0.444-0.059l-0.851-0.02l-0.587,0.02l-0.262-0.088l-0.186-0.119l-0.471-0.061l-0.318-0.123l-0.22-0.253l-0.22-0.22l-0.141-0.366
			l-0.166-0.136l-0.262-0.088l-0.263-0.088l-0.315-0.224l-0.201-0.269l-0.211-0.532l-0.16-0.351l-0.096-0.629l0.015-0.496
			l-0.139-0.449L16.294,8.84l-0.012-0.394l-0.084-0.397L16.007,7.5l-0.23-0.551l-0.285-0.617l-0.235-0.4l-0.346-0.504l-0.22-0.269
			l-0.142-0.35l-0.31-0.438l-0.197-0.366l-0.373-0.224l-0.6-0.276l-1.017-0.27L11.418,3.03L10.846,3.26l-0.387,0.078l-0.242,0.119
			l-0.32,0.014L9.682,3.448L9.482,3.379l-0.13-0.103L9.197,2.694L9.051,2.299L8.898,2.104L8.644,2.006L8.451,2.061L8.294,2.129
			L8.197,2.303l0.042,0.433L8.14,2.895l-0.172,0.1L7.753,2.988l-0.238-0.13l-0.22-0.114L7.177,2.516L7.144,2.239L6.98,1.875
			L6.75,1.574L6.5,1.244l-0.279-0.22L5.853,0.793L5.651,0.692l-0.16,0.007L5.279,0.738L5.091,0.871l0.015,0.262L5.081,1.321
			L4.975,1.342l-0.161-0.01L4.54,1.204L4.33,0.95L4.158,0.725l-0.223-0.16L3.773,0.54L3.579,0.564L3.297,0.607L2.715,0.855
			L2.254,1.2L1.67,1.565L1.292,1.814L0.97,2.075L0.664,2.338L0.541,2.684l0.017,0.293L0.68,3.249l0.183,0.396l0.195,0.316
			l0.188,0.487l0.229,0.594l0.158,0.597l0.109,1.248l0.1,1.141l0.113,0.429L2.114,8.76L2.259,9.11l0.103,0.243l0.24,0.175
			l0.343,0.094l0.17,0.179l0.122,0.273l0.083,0.213l0.15,0.148l0.271,0.08l0.344,0.109l0.33,0.188l0.474,0.229l0.577,0.161
			l0.55,0.252l0.224,0.207l0.21,0.271l0.292,0.143l0.303,0.018l0.143,0.01l0.09,0.027l0.004,0.077L7.271,12.33l-0.208,0.411
			l-0.338,0.308l-0.566,0.351L5.518,13.69l-0.463,0.282l-0.306,0.244l-0.301,0.322l-0.146,0.254l-0.208,0.396l-0.217,0.24
			l-0.102,0.408l0.03,0.85l-0.038,0.279l-0.198,0.271l-0.399,0.311l-0.1,0.111l-0.446,0.252l-0.362,0.186l-0.269,0.26l-0.75,0.513
			L0.973,19.1l-0.111,0.236l-0.025,0.172L0.921,20.062"/>
	</g>
</g>
<g id="Layer_1">
</g>
</svg>
