<?xml version="1.0" encoding="utf-8"?>
<!-- Generator: Adobe Illustrator 16.0.4, SVG Export Plug-In . SVG Version: 6.00 Build 0)  -->
<!DOCTYPE svg PUBLIC "-//W3C//DTD SVG 1.1//EN" "http://www.w3.org/Graphics/SVG/1.1/DTD/svg11.dtd">
<svg version="1.1" id="Layer_1" xmlns="http://www.w3.org/2000/svg" xmlns:xlink="http://www.w3.org/1999/xlink" x="0px" y="0px"
	 width="301.31px" height="290.093px" viewBox="-127.851 -123.172 301.31 290.093"
	 style="enable-background:new -127.851 -123.172 301.31 290.093;" xml:space="preserve">
<g id="Layer_111">
	<path id="Sargodha" style="fill:#CCCCCC;stroke:#FFFFFF;stroke-width:1.15;" d="M138.146-117.818L138.146-117.818l-0.319,0.013
		l-0.442,0.044l-0.689,0.412l-0.979,0.886l-0.64,0.438l-1.183,0.681l-1.215,0.556l-1.074,0.518l-0.851,0.24l-0.966,0.218
		l-1.591,0.144l-0.953,0.032l-1.138,0.25l-1.656,0.393l-1.886,0.793l-1.477,0.626l-1.81,0.674l-2.32,0.598l-2.315,0.607
		l-1.132,0.131l-0.639,0.269l-0.613,0.595l-0.608,0.505l-0.677,0.368l-2.545,0.668l-1.062,0.131l-0.403-0.048l-0.3-0.352
		l-0.274-0.479l-0.192-0.294l-0.256-0.138l-0.192-0.051l-0.498,0.02l-0.415,0.163l-0.8,0.419l-1.804,1.304l-0.754,0.419
		l-0.812,0.243l-1.062,0.157l-1.139,0.105l-1.86-0.086H95.04l-0.671,0.269l-0.844,0.25l-1.33,0.352l-1.988,0.317l-1.355,0.051
		l-1.004-0.119l-0.473-0.22l-0.307-0.355l-0.62-0.917l-0.339-0.32l-0.461-0.08l-0.895,0.067l-0.812,0.243l-1.017,0.128l-0.998,0.067
		l-0.671,0.326l-0.581,0.444l-0.295,0.524l-0.179,0.585l-0.103,0.85l-0.083,1.119l-0.141,0.576l-0.505,0.537l-2.634,2.241
		l-0.505,0.345l-0.735,0.349l-0.569,0.112l-0.997-0.054l-1.113-0.195l-1.297-0.224l-0.447,0.02l-0.198,0.16l-0.192,0.275
		l0.089,0.326l0.41,0.255l0.019,0.275l-0.236,0.364l-0.326,0.274l-0.454,0.141l-0.685,0.182l-0.632,0.438l-0.634,0.294l-0.779,0.061
		l-1.848-0.022l-1.029-0.202l-0.352-0.23l-0.313-0.47l-0.301-0.23l-0.415-0.07l-0.493,0.02l-0.517,0.201l-0.168,0.217l-0.3,0.489
		l-0.224,0.406l-0.512,0.38l-1.017,0.674l-1.599,0.668l-1.246,0.387l-0.761,0.157l-0.613,0.051l-0.735,0.093l-0.461,0.323
		l-1.067,0.889l-0.39,0.313l-0.365,0.224l-0.313,0.138L52-90.898l-0.952-0.02l-0.781,0.058l-0.479,0.08l-0.383,0.432l-0.269,0.281
		l-0.262,0.55l-0.384,0.38l-0.358,0.255l-0.319,0.131l-0.685,0.208l-0.274,0.192l-0.217,0.371l-0.136,0.905l-0.134,0.368
		l-0.256,0.55l-0.466,0.53l-0.468,0.438l-0.665,0.477l-1.471,0.837l-1.572,0.997l-0.959,0.432l-1.17,0.693l-0.857,0.643
		l-0.754,0.633l-0.856,0.636l-0.754,0.479l-1.279,1.388l-0.851,0.818l-0.633,0.407l-1.004,0.431l-1.451,0.662l-1.017,0.489
		l-0.678,0.447l-0.307,0.313l-0.23,0.15l-0.505,0.02l-0.601-0.032l-0.717-0.157l-0.39-0.013l-0.575,0.02L25.294-74.1l-0.696,0.144
		l-1.068,0.042l-1.188-0.042l-0.997-0.176l-1.234-0.086l-1.24,0.013l-1.637,0.125l-0.952,0.23l-0.768,0.361l-0.447,0.195
		l-0.269,0.191l-0.237,0.346l-0.601,0.78l-0.735,0.786l-0.735,0.543l-0.754,0.483l-0.959,0.399L9.58-69.359l-0.889,0.15l-0.89,0.064
		l-0.946,0.042L5.361-68.87l-0.838,0.368l-0.505,0.438l-0.135,0.342l-0.07,0.694l0.205,0.562l0.141,0.361l0.115,0.138l-0.237,0.044
		l-0.678,0.262l-0.62,0.256l-0.806,0.269l-0.844,0.169l-0.607,0.068L-0.4-65.11l-1.4-0.464l-0.959-0.172l-1.042,0.061l-1.835,0.025
		l-2.033,0.019l-1.253-0.249l-1.106-0.221l-0.55-0.256l-0.274-0.144l-0.211-0.019l-0.263,0.013l-0.384,0.051l-0.831,0.425
		l-0.748,0.518l-0.703,0.294l-0.639,0.23l-0.857,0.112l-1.247,0.137l-0.479,0.09l-0.927,0.274l-1.105,0.761l-0.685,0.582
		l-0.896,0.687l-0.869,0.591l-0.492,0.281l-0.684,0.227l-0.845,0.243l-1.662,0.336l-0.767,0.233l-0.768,0.335l-0.716,0.55
		l-0.768,0.269l-0.69,0.169l-0.812,0.169l-0.461,0.029l-0.512-0.198l-0.748-0.531l-0.357-0.236l-0.493-0.096l-1.367,0.269
		l-2.11,0.818l-1.125,0.508l-0.64,0.578l-0.741,0.995l-0.896,1.486l-0.454,0.371l-1.419,0.69l-1.771,0.806l-1.074,0.69l-1.003,0.793
		l-1.317,1.285l-0.793,0.812l-0.927,0.719l-1.573,0.569l-2.116,0.668l-1.482,0.275l-0.953,0.467l-1.094,0.888l-0.588,0.607
		l-0.831,0.429l-0.901,0.496l-0.62,0.61l-0.352,0.719l-0.128,0.863l-0.045,0.418l-0.467,0.63l-0.939,0.818l-0.103,0.355l0.076,0.47
		l-0.204,0.582l-0.358,0.431l-0.325,0.119l-0.441,0.061l-0.685,0.039l-0.709-0.045l-0.896,0.051l-0.447,0.061l-0.703,0.227
		l-0.678,0.361l-0.326,0.274l-0.288,0.112l-0.345,0.02l-0.353-0.013l-0.326-0.205l-0.281-0.208l-0.236-0.137l-0.301,0.013
		l-0.396,0.307l-1.266,0.937l-0.569,0.412l-0.108,0.131l0.07,0.726l-0.09,0.387l-0.23,0.294l-0.294,0.144l-0.512,0.131l-1.022,0.281
		l-1.151,0.198l-0.696,0.163l-0.448,0.15l-0.684,0.486l-1.068,1.176l-1.055,1.397l-1.311,1.602l-0.946,1.074l-0.537,0.256
		l-0.473,0.217l-0.409,0.214l-0.729,0.169l-1.881-0.013l-1.502-0.233l-0.779,0.045l-0.186,0.044l-0.685,0.362l-0.403,0.594
		l-0.747,0.905l-1.228,1.282l-0.896,0.623l-0.966,0.537l-1.188,0.674l-1.074,0.956l-0.685,0.896l-0.172,0.812l-0.007,1.78
		l0.128,1.586l-0.16,2.106l-0.422,1.934l-0.346,0.975l-1.297,2.337l-1.478,2.823l-0.55,1.301l-0.684,2.107l-0.474,1.496
		l-0.058,1.183l0.288,1.285l0.678,2.151l0.697,1.905l0.146,0.431l0.052,0.573l0.038,0.47l-0.038,0.454l-0.167,0.738l-0.114,0.4
		l0.038,0.406l0.032,0.413l0.07,0.371l0.044,0.38l-0.134,0.454l-0.249,0.588l-0.41,0.47l-0.511,0.662l-0.237,0.655l-0.121,1.15
		l0.166,2.097l0.135,1.832l0.083,0.86l0.134,0.751l-0.159,1.023l-0.634,1.23l0.014,1.414l0.332,0.898l0.409,0.346l0.243,0.348
		l0.058,0.432l0.013,0.312l-0.198,0.402l-0.32,0.475l-0.089,0.357l0.473,0.346l0.953,0.523l1.624,0.396l2.199,0.652l2.033,0.537
		l0.678,0.332l0.256,0.666l-0.064,0.908l-0.294,1.061l-0.191,1.232l0.159,0.672l0.396,0.818l0.998,1.035l1.311,0.832l1.221,0.441
		l1.381,0.082l2.168-0.043l1.841-0.039l1.496,0.045l1.067,0.166l1.721,0.096l0.652-0.012l0.952-0.174l0.984-0.256l0.69-0.025
		l0.959,0.141l1.029,0.461l0.678,0.678l0.652,0.959l0.678,1.086l1.094,1.152l1.195,0.484l0.606,0.025l0.915-0.166l1.094-0.344
		l1.553-0.691l1.228-0.818l1.299-0.998l0.639-0.729l0.313-0.588l-0.032-0.473l-0.02-0.422l-0.127-0.914l0.019-0.697l0.083-0.602
		l0.307-0.818l0.524-1.189l1.087-0.141l0.78,0.129l1.471,0.473l1.368-0.064l1.976-0.562l1.438-0.344l2.033,0.018l2.097,0.174
		l0.575,0.396l0.192,0.881l0.352,0.455l0.499-0.025l0.939-0.697l1.246-1.42l0.531-0.34l0.544-0.068l0.761,0.549l0.588,0.551
		l0.473,0.664l0.678,0.709l0.153,0.301l-0.032,0.23l-0.197,0.523l0.025,0.307l0.031,0.537l0.173,0.537l0.211,0.424l0.032,0.414
		l-0.205,0.467l-0.786,0.512l-0.862,0.121l-1.1-0.133l-1.867-0.562l-2.455-1.254l-2.212-0.979l-0.883-0.268l-0.723,0.191
		l-0.646-0.084l-0.313-0.498l-0.294-0.256l-0.211,0.014l-0.485,0.293l-0.211,0.281l-0.115,0.314l0.179,0.338l1.554,0.779
		l0.345,0.256l0.147,0.23l-0.211,0.32l-0.403,0.562l-0.269,0.371l0.025,0.307l0.666,0.312l1.707,0.084l3.344-0.006l1.7,0.146
		l2.078,0.447l2.525,0.141l1.336,0.219l0.998,0.102l0.734,0.312l1.151,0.646l0.799,0.473l0.742,0.23l0.396,0.18l0.121,0.268
		l-0.198,0.436l-0.454,0.484l-0.402,0.332l-0.524,0.334l-0.486,0.109l-0.595,0.062l-0.607-0.084l-0.345-0.369l-0.402-0.385
		l-0.237-0.166l-0.332-0.115l-0.358,0.02l-0.671,0.582l-0.71,0.729l-0.685,0.627l-0.511,0.518l-0.435,0.658l-0.62,0.449
		l-0.403,0.141l-0.55-0.053l-0.703-0.357l-0.308-0.523l-0.473-0.449l-0.454-0.166l-0.46,0.02l-0.428,0.059l-0.742,0.307
		l-0.409,0.141l-0.55-0.051l-0.378-0.027l-0.383,0.014l-0.135,0.127l0.013,0.154l0.025,0.396l0.365,0.525l0.312,0.408l0.032,0.396
		l-0.103,0.273l-0.281,0.404l-0.684,0.352l-0.256,0.281l-0.032,0.225l0.026,0.408l0.479,0.371l0.62,0.32l0.441,0.096l0.685-0.186
		l0.953-0.359l0.473-0.178l0.46,0.064l0.588,0.549l0.652,0.096l0.818-0.037l0.436-0.109l0.754,0.307l0.921,0.152l0.875-0.037
		l0.685,0.127l0.562,0.281l0.243,0.256l0.025,0.354l-0.332,0.479l-0.78,0.672l-0.032,0.184l0.032,0.436l0.243,0.256l0.402,0.166
		l0.077,0.27l0.038,0.396l-0.236,0.434l-0.198,0.486l0.025,0.416l0.173,0.459l0.46,0.441l1.157,0.646l1.017,0.492l0.371,0.537
		l0.089,0.512l0.115,0.928l-0.141,0.818l-0.229,0.695l-0.378,0.562l-0.767,0.781l-1.112,0.473l-1.234,0.141l-1.189,0.461
		l-0.588,0.371l-0.409,0.318h-0.402l-0.672,0.014l-0.652,0.18l-0.709,0.473l-0.69,0.844l-0.352,1.021l-0.62,1.434l-0.18,0.906
		l-0.038,0.59l-0.409,0.562l-0.025,0.818l0.063,0.627l0.256,0.74l0.416,0.449l0.121,0.67l0.013,0.428l0.007,0.281l-0.128,0.359
		l-0.218,0.357l-0.364,0.48l-0.217,0.273l-0.27,0.09l-0.415-0.025l-0.224-0.191h-0.474l-0.269,0.242l-0.498,0.41l0.013,0.396
		l0.006,0.268l0.198,0.359l-0.038,0.357l-0.326,0.461l-0.524,0.85l-0.191,0.818l0.051,0.281l0.391,0.346l1.758,1.021l1.011,0.379
		l0.447-0.014l1.15-0.109l0.454-0.018l0.748,0.498l0.524,0.574l0.607,0.5l0.115,0.307l-0.135,0.242l-0.543,0.379l0.006,0.184
		l0.192,0.281l0.166,0.23l-0.135,0.43l-1.272,1.635l-0.997,1.299l-1.291,1.611l-0.55,0.486l-0.409,0.203l-0.346,0.014l-0.492-0.256
		l-1.566-1.4l-0.652-0.479l-0.409-0.141l-0.556,0.039l-0.282,0.217l-0.505,0.307l-0.44,0.191l-0.384,0.27l0.006,0.332l0.09,0.203
		l0.352,0.168l0.492,0.025l0.46,0.211l0.391,0.402l0.191,0.447l0.013,0.32l-0.031,0.242l-0.141,0.27l-0.378,0.217l-0.352,0.152
		l-0.588,0.34l-0.422,0.428l-0.422,0.896l-0.134,0.363l0.172,0.295l0.447,0.377l0.659,0.41l0.197,0.318l-0.063,0.332l-0.186,0.205
		l-0.326,0.006l-0.479-0.107l-0.454-0.41l-0.569-0.459l-0.422-0.346l-0.409-0.326l-0.441-0.172l-0.486,0.037l-0.409,0.312
		l-0.127,0.09l-0.141,0.186l-0.141,0.23l-0.243,0.141l-0.192,0.129l-0.281,0.068l-0.505,0.109l-0.269,0.236l-0.269,0.404
		l-0.229,0.363l-0.308,0.332l-0.274,0.109h-0.326l-0.403-0.23l-0.901-0.895l-1.067-0.844l-0.825-0.371l-0.454-0.045l-0.312,0.09
		l-0.71,0.428l-0.269,0.219l-0.077,0.268l0.058,0.217l0.422,0.666l0.097,0.658l-0.225,0.537l-0.415,0.543l-0.55,0.346l-0.121,0.242
		l0.211,0.23l0.607,0.166l0.677-0.014l0.493,0.047l0.319,0.287l0.007,0.268l-0.147,0.326l-0.474,0.365l-1.022,0.498l-1.502,0.307
		l-0.467,0.244l-0.115,0.307l0.179,0.256l0.562,0.102l0.288,0.244l0.007,0.324l-0.301,0.307l-0.396,0.039l-0.486-0.184l-0.492-0.334
		l-0.358-0.051l-0.39,0.332l0.02,0.41l0.281,0.523l0.684,0.498l0.595,0.078l0.403,0.115l0.051,0.236l-0.032,0.242l-0.39,0.416
		l-0.492,0.574l-0.467,0.641l-0.416,0.838l-0.402,0.844l0.025,0.428l0.402,0.473l0.153,0.359l-0.025,0.268l-0.415,0.512
		l-0.697,0.453L-69.73,111l-0.429,0.275l-0.301,0.576l-0.269,1.303l-0.364,0.934l-0.263,0.562l-0.582,0.41l-0.581,0.346
		l-0.486,0.037l-0.594-0.191l-0.595-0.076l-0.454,0.012l-0.589,0.365l-0.927,0.787l-0.179,0.715l0.013,0.385l0.211,1.221
		l-0.128,1.074l-0.135,0.453l-0.786,0.582l-0.518,0.256l-0.345,0.006l-0.659-0.141l-0.607-0.498l-0.806-0.18l-0.384,0.039
		l-0.312,0.217l-0.23,0.205l-0.108,0.307l-0.243,0.039l-0.435-0.115l-0.889-0.371l-1.4-1.01l-0.492-0.498l-0.409-0.053l-0.409,0.193
		l-0.275,0.248l-0.678,0.492l-2.32,0.754l-1.714,0.59l-1.637,1.635l-1.228,1.223l-0.568,0.582v0.408l-0.326,0.568l-1.312,0.793
		l-1.482,1.068l-0.474,0.857l-0.236,0.568l0.403,0.346l0.485,0.287l0.16,0.199l-0.147,0.695l-0.959,1.012l-1.311,0.574l-0.685-0.07
		l-1.176-0.838l-0.588-1.266l-1.177-0.965l-1.087-0.551h-0.589l-0.671,0.43l-0.562,0.99l0.409,1.271l0.103,0.635l-0.479,0.498
		l0.103,0.492l0.734,0.41l0.422,0.855l0.339,1.811l-0.224,1.629l-1.643,1.146l-2.596,1.232l-1.228,0.729l-2.608,1.783l-2.04,1.645
		l-2.206,2.07l-0.812,0.934l-0.076,0.652l0.013,0.691l-0.077,1.215l-0.332,0.428l-0.908,0.365l-1.164,0.439l-0.972,0.775
		l-0.901,0.791l0.007,0.844l0.006,0.562l0.269,0.986l2.021,1.814l0.601,0.846l0.013,0.562l-0.402,0.639l-2.142,0.805l-0.716,0.652
		l-0.142,0.641v0.357l0.256,0.486l0.403,0.076l0.979-0.096l1.975-0.863l1.062-0.436h0.678l0.927,0.193l0.499,0.357l0.927,0.627
		l0.679,0.203h0.588l0.965-0.293l1.055-0.869l0.326-0.852l-0.013-0.85l-0.019-0.779l0.236-0.703l0.569-0.576l0.326-0.703
		l-0.007-0.703l-0.013-0.365l0.486-0.568l0.914-0.141l1.233-0.377l1.317-0.295l0.658-0.365l0.479-0.645l0.735-0.492l0.818-0.295
		l0.486-0.293l1.554-0.793l1.489-0.717l1.311-0.787l0.901-0.785l0.723-0.703l0.678-0.09l0.402,0.205l0.742,0.408l0.921-0.076
		l1.157-0.436l1.886-1.074l1.777-1.189l1.771-0.92l1.03-0.818l0.319-0.715l-0.006-0.641l-0.979-2.596l-0.353-1.879l0.09-1.355
		l1.247-1.1l1.036-0.551h0.722l1.17,0.256l2.321,0.615l2.104,0.076l1.247-0.115l2.729-0.652l1.573-0.371l1.675-0.658l0.952-0.186
		l0.953,0.09l2.742-0.48l2.884-0.16l2.148-0.217l1.821-0.748l1.247-0.619l0.685-0.385l0.473-0.402l0.295-0.301l0.204-0.613
		l0.134-0.717l0.16-0.467l0.153-0.293l0.294-0.186L-55.23,128l1.502-0.186l1.662-0.166l1.043-0.268l0.703-0.262l0.179-0.275
		l-0.006-0.518l-0.141-0.486l-0.499-0.602l-0.384-0.658l-0.256-0.562l-0.007-0.506l0.333-0.346l0.409-0.209l0.575-0.025l0.889,0.09
		l0.569,0.184l0.543,0.014l0.761,0.031l0.614-0.262l0.371-0.486l0.134-0.461l0.141-0.562l0.032-0.465l-0.128-0.461l-0.141-0.467
		l-0.191-0.498l-0.25-0.447l-0.186-0.596l-0.134-0.633l0.02-0.754l0.159-0.48l0.211-0.391l0.384-0.414l0.377-0.354l0.806-0.504
		l0.78-0.402l0.518-0.244l0.607-0.178l0.889-0.225l0.378-0.025l0.409,0.078l0.492,0.133l0.646,0.242l0.357,0.346l0.524,0.41
		l0.326,0.281l0.403,0.062l0.512-0.088l0.294-0.244l0.242-0.293l0.141-0.377l0.058-0.34l0.147-0.332l0.166-0.172l0.294-0.148h0.173
		l0.339-0.096l0.179-0.109l0.352-0.172l0.301-0.275l0.096-0.293l-0.032-0.441l-0.224-0.352l-0.332-0.613l-0.333-0.576l-0.224-0.486
		l-0.013-0.383l0.064-0.691l0.096-0.613l0.217-0.385l0.32-0.523l0.39-0.447l0.479-0.359l0.448-0.268l0.588-0.23l0.972-0.357
		l0.921-0.07l1.471-0.109h0.965l0.665,0.039l1.049,0.059l1.048-0.033l0.569-0.115l0.607-0.152l0.173-0.193l0.287-0.293l0.269-0.436
		l0.211-0.191l0.243-0.211l0.396-0.135l0.416-0.113l1.157-0.154l1.617-0.096l1.771-0.109l0.895-0.051l1.355-0.127l1.112-0.115
		l1.157-0.162l0.953-0.197l0.997-0.178l1.221-0.404l1.375-0.518l0.914-0.371l0.831-0.203l0.544-0.027l0.595,0.039l0.71,0.295
		l0.408,0.242l0.678,0.32l0.55,0.281l0.461,0.197l0.511,0.045l0.358-0.059l0.595-0.043l0.685-0.357l1.073-0.717l0.94-0.678
		l0.748-0.621l1.01-0.939l0.678-0.512l0.697-0.436l0.984-0.594l0.959-0.441l0.633-0.352l0.263-0.268l0.217-0.48l0.166-0.408
		l0.294-0.32l0.429-0.428l0.294-0.109l0.467-0.037l1.004,0.141l0.697,0.248l0.639,0.289l0.55,0.408l0.658,0.377l0.595,0.16
		l0.519-0.012l0.492-0.148l0.313-0.338l0.288-0.422l0.141-0.385l0.134-0.434l0.939-1.732l1.139-0.756l1.317-0.723l0.575-0.332
		l0.415-0.281l1.074-0.447l0.768-0.115l0.895-0.191l0.576-0.27l0.83-0.537l0.627-0.498l0.979-0.818l0.933-0.736l0.896-0.35
		l0.812-0.191l1.1,0.113l0.498-0.025l0.863-0.084l0.883-0.414l0.351-0.295l0.442-0.178l1.042-0.039l0.543-0.025l0.588-0.115
		l0.422-0.332l0.263-0.154l0.274-0.012l0.544,0.012l0.473-0.107l0.735,0.043l0.409,0.168l1.438,0.951l1.976,0.967l0.467,0.242
		l0.896,0.498l0.447,0.717l0.186,0.498l0.249,0.346l0.224,0.025l0.857-0.152l0.959-0.506l0.447-0.338l0.173-0.199l-0.109-0.23
		l-0.402-0.172l-0.115-0.391l-0.019-0.273l0.339-0.41l-0.014-0.186l-0.007-0.146l-0.235-0.115l-0.333-0.174l-0.287-0.299
		l-0.083-0.193l0.095-0.307l0.557-0.658l0.908-0.672l0.428-0.486l0.115-0.357l-0.217-0.607l-0.416-0.562l-0.135-0.225l-0.031-0.422
		l0.415-0.676l0.454-0.41l0.332-0.012l0.839,0.121l0.664-0.262l0.422-0.525l0.403-0.639l0.262-0.205l0.364-0.059l0.499-0.018
		l0.531-0.217l0.37-0.25l0.319-0.174l0.461-0.166l0.685-0.115l0.485-0.377l0.518-0.293l0.806-0.23l0.415-0.295l0.313-0.051
		l0.275,0.025l0.229,0.064l0.371-0.014l0.525-0.256l0.344-0.051l0.275,0.109l0.147,0.498l0.146,0.217l0.288,0.225l0.249,0.262
		l0.013,0.23l-0.198,0.512l-0.197,0.436l-0.135,0.371l0.02,0.268l0.377,0.217l0.198,0.211l0.134,0.27l0.058,0.504l0.02,0.307
		l0.243,0.301l0.901,0.314l0.403,0.211l0.191,0.172l0.012,0.205l-0.141,0.357l-0.095,0.23l0.012,0.23l0.244,0.268l0.658,0.16
		l0.191,0.262l-0.077,0.275l-0.249,0.402l-0.019,0.43l0.281,0.172l0.409,0.064l1.176-0.359l0.78-0.627l0.845-0.389l1.073-0.326
		l1.222-0.205l2.295-0.447l1.228-0.141l2.136-0.064l0.779,0.129l0.339,0.256l0.499,0.715l0.262,0.615l0.039,0.537l-0.135,0.74
		l-0.07,0.59l0.211,0.498l0.524,0.281l0.364-0.014l0.709-0.268l0.449-0.639l0.562-0.525l0.255-0.166l0.441-0.025l0.236,0.115
		l0.186,0.141l0.371-0.014l0.141-0.127l0.37-0.129h0.717l0.486,0.135l0.606-0.07l0.774-0.461l0.37-0.434l-0.032-0.32l-0.191-0.338
		l-0.557-0.174l-0.46-0.096l-0.435,0.02l-0.274-0.064l-0.417-0.295l-0.12-0.229l-0.021-0.309l0.18-0.6l0.134-0.391l-0.012-0.121
		l-0.141-0.268l-0.244-0.225l-0.152-0.146l-0.129-0.27l-0.006-0.191l0.077-0.32l0.523-0.254l1.344-0.295l0.958-0.391l0.083-0.273
		l0.115-0.705l-0.141-0.723l-0.256-0.402l-0.191-0.152l-0.773-0.078l-0.608-0.242l-0.293-0.346l-0.224-0.678l-0.339-0.998
		l-0.416-0.287l-0.384-0.109l-0.761,0.115l-0.914,0.039l-1.228,0.051l-1.106-0.217l-1.502-0.562L69.8,72.697l-0.468-0.371
		l-0.313-0.562l-0.095-0.684l-0.192-0.27l-0.281-0.068l-0.218,0.012l-0.319,0.133l-0.159,0.277l-0.41,0.434l-0.307,0.18
		l-0.602,0.064l-0.434,0.012l-0.27,0.102L65.42,72.16l-0.153,0.191l-0.141,0.166l-0.275,0.053l-0.332,0.012l-0.492-0.141
		l-0.812-0.588l-1.222-0.992l-0.798-0.35l-0.551-0.051l-0.684-0.244l-1.279-0.92l-0.927-0.82l-0.498-0.715l-0.679-0.818
		l-0.735-0.396l-0.364-0.41l0.256-0.357l0.512-0.574l0.128-0.41l-0.147-0.293l-0.684-0.238l-0.352-0.377l-0.115-0.268l0.077-0.43
		l0.307-0.209l0.435-0.141h0.716l0.506,0.166l0.332-0.014l0.435-0.141l0.281-0.549l0.199-0.396l0.44-0.18l0.198-0.084l0.512,0.174
		l0.351,0.217l0.41,0.525l0.754,0.588l0.806,0.422l0.409,0.178l0.55,0.053l0.754-0.354l0.339-0.434l0.326-0.557l0.128-0.512
		l0.07-1.24l0.333-0.588l0.402-0.219l0.723-0.025l0.633-0.146l0.256-0.287l0.198-0.359l0.211-0.088l0.384-0.014l1.004,0.268
		l1.316,0.641l1.074,0.498l1.068,0.998l1.028,0.666l0.562,0.203l0.5-0.07l0.256-0.318l-0.025-0.352l-0.359-0.295l-0.019-0.346
		l0.013-0.473l0.377-0.256l-0.134-0.27l-0.237-0.133l-0.44-0.098l-0.665-0.166l-0.339-0.242l-0.607-0.141L70.49,58.88l-0.574-0.197
		l-0.742-0.402l-0.409-0.34l-0.659-1.061l-0.127-1.113l0.134-0.818l0.703-1.086l0.269-0.627l0.051-0.939l-0.095-1.234l-0.302-1.26
		l0.167-0.863l0.249-0.357l0.684-0.27l1.771,0.078l0.927,0.037l0.562,0.205l0.308,0.498l0.038,0.385l-0.058,0.895l0.014,0.895
		l0.152,0.408l0.486,0.486l0.32,0.104l0.523,0.326l0.416,0.363l0.524,0.441l1.495,0.326l1.407-0.064l0.697,0.129l0.812-0.146
		l0.99-0.551l1.171-1.221l0.569-0.512l1.201,1.111l0.557,0.59l0.779,0.678l0.479,0.307l0.678,0.307l0.685,0.217l0.562-0.088
		l0.78-0.027l0.722,0.141l1.427,0.525l1.502,0.549l0.908,0.359l1.164,0.779l0.862,0.908l1.119,1.162l0.44,0.5l0.403,0.492
		l0.217,0.223l0.468,0.193l0.581,0.191l1.106,0.115l0.672-0.121l1.054-0.225l1.139,0.051l0.959,0.141l0.422,0.314l0.479,0.529
		l0.71,0.219l1.036,0.318l1.291,0.141l2.039-0.012l2.442-0.174l0.717-0.121l0.408-0.166l0.307-0.191l0.276-0.18l0.562-0.064
		l0.537-0.018l0.402,0.191l0.409,0.25l0.307,0.473l0.192,0.396l0.268,0.396l0.378,0.217l0.498,0.197l0.454,0.039l0.569,0.008
		l0.735,0.029l0.575,0.227l0.384,0.273l0.256,0.135l0.447,0.141l0.402-0.045l0.327-0.109h0.639l0.8,0.334l0.639,0.473l0.831,0.242
		l1.03,0.115l0.62,0.217l0.677,0.256l0.479,0.307l0.371,0.32l0.103,0.242v0.844l0.058,1.062l0.141,0.875l0.159,0.652l0.142,0.512
		l0.402,0.352l1.145,0.953l0.429-0.338l0.646-0.295l0.537-0.422l0.402-0.289l0.346-0.402l0.307-0.357l0.409-0.447l0.441-0.453
		l0.115-0.25l0.134-0.486l0.076-0.41l0.051-0.881l-0.058-1.381l-0.012-0.582l0.141-0.402l0.134-0.295l0.191-0.307l0.281-0.217
		l0.205-0.199l0.097-0.27l0.058-0.281l0.141-0.51l0.069-0.377l0.141-0.334l0.365-0.754l0.326-0.504l0.338-0.486l0.141-0.27
		l0.071-0.352l0.083-0.436l0.025-0.268l-0.153-0.191l-0.198-0.129l-0.294-0.166l-0.23-0.242l-0.121-0.396v-0.371l0.044-0.332
		l0.141-0.242l0.365-0.359l0.408-0.318l0.256-0.166l0.198-0.256l0.141-0.213l0.147-0.459l0.403-0.506l0.288-0.473l0.134-0.447
		l0.173-0.557l0.159-0.467l0.205-0.41l0.127-0.152l0.339-0.244l0.735-0.498l1.285-0.889l1.113-0.824l2.007-1.445l0.952-0.715
		l0.71-0.717l0.89-1.088l0.684-0.76l0.735-1.389l0.46-1.367l0.275-1.023l0.012-0.568v-0.402l-0.019-1.184l-0.096-0.645l-0.135-0.455
		l-0.268-0.723l-0.198-0.307l-0.256-0.346l-0.646-0.262l-0.735-0.16l-0.332-0.242l-0.134-0.166l-0.025-0.281l0.076-0.199
		l0.134-0.332l0.141-0.25l0.479-0.408l0.845-0.576l0.671-0.402l0.519-0.23l0.517-0.09l0.479-0.096l0.717-0.082l0.889-0.25
		l0.537-0.178l0.191-0.193L152,31.306l0.083-0.357l-0.026-0.238l-0.006-0.312l-0.089-0.217l0.083-0.225l0.141-0.223l0.152-0.193
		l0.346-0.217l0.786-0.602l0.818-0.717l0.652-0.689l0.186-0.396l0.032-0.287l-0.007-0.25l-0.255-0.568l-0.205-0.365l-0.39-0.441
		l-0.403-0.785l-0.21-0.457l-0.187-0.637v-0.223l0.09-0.176l0.115-0.094l0.141-0.09l0.332-0.047l0.403-0.02l0.281-0.138l0.141-0.138
		l0.166-0.201l0.115-0.31l0.025-0.269l-0.09-0.326l-0.134-0.438l-0.032-0.438l0.045-0.38l0.103-0.224l0.134-0.195l0.198-0.269
		l0.23-0.112l0.211-0.201l0.191-0.138l0.141-0.16l0.077-0.195l0.135-0.218l0.447-0.665l0.473-0.422l0.512-0.358l0.512-0.23
		l0.907-0.387l0.876-0.387l0.307-0.175l0.173-0.221l0.134-0.243l0.302-0.55l0.256-0.307l0.217-0.205l0.409-0.175l1.33-0.499
		l1.706-0.617l1.318-0.795l0.408-0.269l0.346-0.291l0.192-0.24l0.146-0.438l0.121-0.531l0.052-0.792l0.025-0.282l0.114-0.157
		l-0.843-0.511l-0.735-0.732l-0.652-0.818l-0.678-0.979l-0.403-1.074l-0.281-0.678L163.847,3.6l-0.639-0.524l-0.889-0.601
		l-1.1-0.748l-0.781-0.7l-0.44-0.557l-0.294-0.712l-0.064-0.569l0.032-0.873l-0.166-0.931l-0.403-0.438l-0.466-0.23l-0.749-0.188
		l-0.908,0.032h-0.952l-0.959-0.269l-0.914-0.3l-0.844-0.486l-0.678-0.457l-0.486-0.649l-0.287-0.806l-0.135-0.776l-0.025-1.18
		l0.198-0.793l0.812-2.474l0.154-0.793l0.115-0.818l-0.115-1.263l-0.237-0.562l-0.812-0.668l-0.856-0.668l-0.441-0.582l-0.365-0.806
		l-0.089-0.812l-0.141-0.687l-0.179-0.294l-0.41-0.355l-0.651-0.131L148.03-20.2l-0.345-0.259l-0.352-0.409l-0.103-0.508
		l0.045-0.543l0.409-0.799l0.371-0.739l0.274-0.978l-0.007-0.406l-0.108-0.477l-0.403-0.588l-0.505-0.342l-0.415-0.23l-1.177-0.319
		l-0.461-0.313l-0.229-0.387l-0.058-0.486l0.191-0.7l0.064-0.636l-0.205-0.569l-0.263-0.227l-0.403-0.137l-0.651,0.019l-0.479,0.169
		l-0.191,0.217l-0.141,0.365l-0.186,0.425l-0.218,0.281l-0.281,0.25l-0.409,0.198l-0.402,0.137l-0.353,0.188l-0.159,0.157
		l-0.108,0.218l0.012,0.3l-0.12,0.486l-0.064,0.333l-0.191,0.368l-0.288,0.613l-0.403,0.474l-1.477,1.23l-0.991,0.764l-0.55,0.349
		l-0.518,0.137l-0.652-0.006l-1.195-0.262l-1.183-0.473l-1.234-0.345l-0.952-0.119l-0.685,0.086l-0.831,0.364l-0.799,0.454
		l-0.697,0.176l-1.093-0.026l-0.371-0.23l-0.403-0.406l-0.678-2.055l-0.371-1.794l-1.502-3.241l-0.851-1.451l-1.028-1.535
		l-1.215-0.914l-0.327-0.416l-0.141-0.595l-0.083-0.627l0.141-0.585l0.403-0.649l0.307-0.556l0.403-0.738l-0.032-0.368l-0.147-0.358
		l-0.403-0.38l-0.39-0.138l-0.523-0.105l-0.506,0.02l-0.646,0.204l-1.228,0.739l-2.704,1.336l-1.24,0.588l-1.26,0.806l-1.247,0.531
		l-0.959,0.217l-0.664,0.083l-0.525-0.064l-0.581-0.157l-0.448-0.198l-0.294-0.227l-0.172-0.572l0.013-0.569l-0.142-0.662
		l-0.141-0.451l-0.293-0.195l-0.5-0.138l-0.498,0.112l-0.664,0.266l-0.787-0.032l-0.716-0.182l-0.416-0.256l-0.23-0.355
		l-0.063-0.451l0.096-0.425l0.39-0.195l0.723-0.479l0.269-0.255l0.135-0.425l0.128-0.643l0.377-0.377l0.696-0.268l1.656-0.304
		l1.228-0.371l0.845-0.329l0.23-0.25l0.383-0.588l0.313-1.007l0.134-0.518l0.562-0.774l0.544-0.595l0.435-0.38l0.575-0.562
		l0.627-1.081l0.326-0.856l0.069-0.793l-0.037-0.754l-0.135-0.294l-0.308-0.23l-0.408-0.403l-0.479-0.406l-0.416-0.56l-0.134-0.595
		l-0.141-0.869l0.013-1.087l-0.135-0.991l-0.269-0.384l-0.55-0.307l-0.53-0.441l-0.242-0.477l-0.525-1.368l-0.332-0.924
		l-0.447-0.473l-0.41-0.288l-0.799-0.515l-0.991-0.629l-0.152-0.688l0.127-0.492l0.212-0.607l-0.014-0.33l-0.23-0.294l-0.786-0.576
		l-0.856-0.662l-1.33-0.726l-1.259-0.438l-0.973-0.269l-1.777-0.211l-0.677-0.214l-0.724-0.428l-0.357-0.496l-0.281-0.656
		l0.019-3.868l0.052-0.576l0.37-0.499L98.11-75.5l0.479-0.32l0.729-0.179l1.299-0.262l0.855-0.09l1.043-0.374l1.112-0.582
		l0.352-0.256l0.23-0.374l0.09-0.368l-0.218-0.681l-0.032-0.633l0.333-1.192l0.408-0.681l0.307-0.224l0.353-0.138l0.505-0.013
		l0.652,0.125l0.786,0.067l1.1-0.099l2.078-0.288l2.768-0.46l2.193-0.319l1.554-0.176h0.895l1.196,0.227l1.253,0.198l1.189,0.045
		l1.298,0.032l1.343-0.227l2.174-0.713l1.349-0.805l1.087-1.036l0.326-0.681l0.85-2.238l0.263-1.5l-0.256-0.837l-0.268-0.355
		l-0.378-0.195l-0.685-0.099l-1.271-0.08l-0.761-0.183l-0.551-0.262l-0.191-0.354l-0.102-0.451l0.185-0.425l0.71-0.479l0.927-0.39
		l2.014-0.735l0.973-0.399l0.844-0.569l0.684-0.72l0.499-0.681l0.198-0.275l0.524-0.23l1.278-0.38l0.768-0.269l0.447-0.256
		l0.256-0.489l0.134-0.675l0.5-0.557l0.689-0.386l0.953-0.368l0.358-0.313l0.166-0.607l-0.032-0.572l-0.544-2.807l-0.408-1.291
		l-0.588-2.456l-0.327-2.769l-0.058-2.442l0.198-1.068l0.346-0.981l0.581-1.113l0.077-0.275L138.146-117.818"/>
</g>
<g id="Layer_1_1_">
</g>
</svg>
