<?xml version="1.0" encoding="utf-8"?>
<!-- Generator: Adobe Illustrator 16.0.4, SVG Export Plug-In . SVG Version: 6.00 Build 0)  -->
<!DOCTYPE svg PUBLIC "-//W3C//DTD SVG 1.1//EN" "http://www.w3.org/Graphics/SVG/1.1/DTD/svg11.dtd">
<svg version="1.1" id="Layer_1" xmlns="http://www.w3.org/2000/svg" xmlns:xlink="http://www.w3.org/1999/xlink" x="0px" y="0px"
	 width="301.1px" height="188.033px" viewBox="-123.815 -76.715 301.1 188.033"
	 style="enable-background:new -123.815 -76.715 301.1 188.033;" xml:space="preserve">
<g id="Layer_133">
	<path id="Vehari" style="fill:#CCCCCC;stroke:#FFFFFF;stroke-width:1.15;" d="M-35.31,104.788L-35.31,104.788l0.173,1.33
		l0.957,0.996l1.217-0.119l0.757,0.021l1.038,0.033l0.584-0.054l0.46-0.174l0.27-0.292l0.303-0.108h0.308l0.493,0.125l0.395,0.162
		l0.157-0.012l0.346-0.173l0.99-0.93l1.055-1.044l1.32-1.055l1-0.806l0.708-0.454l0.579-0.341l0.411-0.07l0.46-0.097l0.389-0.195
		l0.189-0.33l0.178-0.216l0.227-0.157l0.26-0.059l0.281,0.048l0.449,0.054l0.314-0.161l0.249-0.26l-0.011-0.26l-0.13-0.455
		l-0.325-0.508l-0.297-0.347l-0.113-0.194l-0.011-0.228l0.103-0.367l0.06-0.271l-0.011-0.227l-0.146-0.304l-0.346-0.346
		l-0.244-0.341l-0.064-0.621l0.021-0.515l0.119-0.395l0.313-0.217l0.525-0.297l0.638-0.2l0.74-0.119l0.52,0.054l0.714,0.119
		l0.465,0.075l0.292-0.086l0.438-0.216l0.335-0.353l0.108-0.341l0.021-0.476l-0.124-0.622l-0.233-0.741l-0.341-0.61l-0.141-0.362
		l-0.103-0.579l0.113-0.405l0.157-0.13l0.347-0.113l0.438-0.093l0.292-0.173l0.227-0.312l0.065-0.373l-0.124-0.59l0.005-0.606
		l0.027-0.66l0.292-0.67l0.341-0.822l0.541-0.876l0.157-0.552l0.022-1.113l0.048-1.039l0.136-0.757l0.243-0.573l0.335-0.281
		l0.287-0.108l0.389,0.011l0.443,0.114l0.552,0.384l0.649,0.486l0.752,0.232l1.217,0.249l0.8,0.113l1.049,0.033l1.271-0.179
		l0.903-0.347l0.222-0.146l0.476-0.103l0.735,0.021l0.459-0.054l0.477-0.422l0.843-1.13l0.341-0.795l0.113-0.466l0.141-0.578
		l0.006-0.216l-0.114-0.141l-0.373-0.012l-0.362-0.032l-0.384-0.054l-0.346-0.141l-0.275-0.362l-0.125-0.281l-0.259-0.217
		l-0.735-0.341l-0.341-0.346l-0.427-0.552l-0.07-0.52l0.043-0.967l-0.087-0.704l-0.308-0.428l-0.714-0.659l-0.341-0.184l-0.362-0.2
		l-0.319-0.297l-0.238-0.487l-0.162-0.309l-0.336-0.26l-0.914-0.465l-0.574-0.514l-0.119-0.346l0.021-0.443l0.26-0.411l0.341-0.341
		l0.568-0.281l0.595-0.027l0.579,0.103l0.406,0.011l0.503-0.098l0.53-0.183l0.281-0.319l0.119-0.352l0.027-0.567l-0.021-0.579
		l-0.098-0.443l-0.027-0.509l0.103-0.411l0.189-0.476l0.016-0.433l-0.13-0.341l-0.216-0.578l0.021-0.374l0.12-0.292l0.297-0.443
		l0.346-0.157l0.579-0.167l0.454-0.087l0.465-0.259l0.275-0.319l0.325-0.498l0.33-0.519l0.313-0.568l0.676-0.974l0.785-0.746
		l0.551-0.346l0.395-0.06l0.519,0.032l0.406,0.07l0.368,0.303l0.238,0.498l0.384,0.28l0.806,0.379l1.828,0.605l1.043,0.335
		l0.687,0.044l0.681-0.162l0.768-0.66l0.557-0.876l0.573-0.579l0.617-0.303h0.341l0.535,0.055l0.378,0.341l0.222,0.346l0.356,0.119
		l0.395,0.043l0.157,0.119l0.303,0.271l0.119,0.346l-0.06,0.336l-0.13,0.205l-0.016,0.185l0.081,0.129l0.222,0.108l0.297-0.011
		l0.341-0.108l0.275-0.41l0.222-0.66l0.059-0.509l-0.125-0.454l-0.064-0.606l0.172-0.648l0.26-0.795l0.406-0.578l0.768-0.812
		l0.925-0.876l0.589-0.477l0.411-0.194l0.627-0.065l0.622,0.012l0.244-0.119l0.033-0.228l-0.082-0.329l0.022-0.341l0.292-0.649
		l0.319-0.232l0.368-0.114l0.351,0.044l0.492,0.168L22,49.42l0.33-0.033l0.368-0.146l0.601-0.146l1,0.012l0.579,0.086l0.574,0.249
		l0.741,0.514l0.514,0.329l0.648,0.314l0.568,0.194h0.406l0.367-0.113l0.319-0.228l0.092-0.395l0.026-0.578l0.163-0.931l0.281-0.503
		l0.6-0.53l0.373-0.352l0.714-0.378l0.579-0.313l0.671-0.443l0.433-0.568l0.341-0.53l0.557-0.249l0.671,0.021l0.558,0.314
		l0.129,0.346l0.443,0.714l0.611,0.314l0.547,0.486l0.584,0.806l0.676,0.352l0.605,0.578l1.065,0.753l1.205,0.302l0.839,0.266
		l0.497,0.156h0.325l0.806-0.103l0.698-0.476l0.945-0.4l0.438-0.113l0.411,0.049l0.249,0.146l0.313,0.411l0.367,0.341h0.276
		l0.346-0.411l0.255-0.989l0.211-0.59l0.427-0.281l0.574-0.146l0.491,0.107l0.2,0.378l-0.113,0.579l-0.162,0.66l-0.266,1.032
		l-0.07,0.59l-0.329,0.839l-0.336,0.616l-0.118,0.347l0.004,0.67l0.2,0.341l0.353,0.422l0.335,0.217l0.666,0.113l0.691-0.319
		l1.249-0.806l1.363-0.94l1.238-0.547l0.957-0.341h0.341l0.211,0.114l0.141,0.373L55.887,52.6l-0.07,0.865l0.119,0.801l0.319,0.546
		l0.383,0.52l0.303,0.048l0.845-0.141l0.476-0.324l0.232-0.367l0.39-2.618l0.119-0.989l0.503-0.941l0.519-0.476l0.773-0.319
		l0.589,0.082l1.082,0.535l1.13,1.026l1.521,1.104l0.438,0.563l0.434,0.682l0.421,0.994l0.174,0.768l0.26,0.703l0.535,0.72
		l0.648,0.552l1.012,0.514l1.471,0.124l1.401-0.227l0.902-0.012l0.081-1.725l-0.113-1.395l-0.173-0.553l-0.119-1.092l0.141-0.779
		l0.249-0.757l0.341-0.547l0.346-0.178l0.492-0.227l1.271-0.119l0.807,0.063l1.222,0.087l1.503,0.141l1.267,0.044l1.044-0.108
		l0.805-0.335l0.395-0.477l0.353-0.951l0.573-0.72l0.509-0.654l0.562-0.049l0.574-0.228l0.395-0.529l0.648-0.362l1.06-0.357
		l0.769,0.022l1.309-0.032l1.249-0.044l0.579-0.281l0.838-0.946l0.796-1.13l0.604-0.573l0.654-0.281l0.958,0.075l0.73,0.249
		l0.416,0.346l0.303,0.373l0.52,0.443l0.61,0.385l0.514-0.032l0.341,0.119l0.412,0.302l0.373,0.784l0.351,0.428l0.472,0.205
		l0.422-0.043l0.562-0.605l0.605-1.73l0.287-1.731l0.189-0.768l-0.038-0.487l-0.395-0.486l-0.822-0.822l-0.807-0.632l-0.658-0.795
		l-0.239-0.612l0.417-1.146l0.795-1.012l0.405-0.319l0.353,0.012l0.199,0.135l0.185,0.729l0.183,0.666l0.163,0.919l0.454,0.547
		l0.573,0.26l0.477,0.059l0.178-0.368l0.032-0.778l-0.535-1.217l-0.275-1.271l0.081-0.373l0.448-0.524l0.498-0.417l0.578-0.124
		l0.222-0.341l0.087-0.477l0.589-0.578l1.136-0.573l0.979-0.119l0.287-0.184l0.713-0.012l0.606,0.304h0.281l1.038-0.173l0.936-0.173
		l0.677,0.113l0.308,0.227l0.108,0.714l0.069,0.567l0.579,0.941l0.579,1.352l0.492,1.045l0.303,0.772l0.341,0.412l0.584,0.454
		l0.644,0.486l0.893,0.465l0.812,0.151l0.687-0.064l0.85-0.465l1.054-0.866l0.379-0.616l0.07-0.541l-0.055-0.356l-0.486-0.357
		l-0.611-0.703l-0.795-1.098l-0.432-0.627l-0.515-0.741l0.021-0.347l0.13-0.805l0.223-0.309l1.14-0.735l1.558-1.33l0.335-0.477
		l0.077-0.362l-0.266-0.784l-0.509-0.887l-0.72-1.109l-0.497-0.843l-0.27-0.59l-0.104-0.807l0.168-0.735l0.384-0.772l0.584-0.806
		l1.076-0.984l0.925-0.579l0.812-0.4l1.423-0.318l1.444-0.113l1.74-0.044l1.97-0.081h1.502l1.267,0.119l0.664,0.287l0.466,0.335
		l0.324,0.379l0.282,0.659l0.395,0.541l0.422,0.357l0.551,0.281l0.335,0.28l0.195,0.659l0.136,1.018l0.178,1.395l1.055,1.169
		l0.697,1.249l0.017,1.022l0.356,0.811l0.816,0.812l0.639,0.633l0.703,0.319l1.602,0.465l0.335,0.064l0.146-0.129l0.341-0.341
		l0.572-0.341l0.244-0.503l0.069-0.341l-0.335-0.346l-0.524-0.131l-0.854-0.124l-0.671-0.405l-0.546-0.611l-0.406-1.271
		l-0.173-1.093l0.293-1.044l0.643-0.941l0.547-0.616l0.416-0.643l0.4-0.585l0.584-0.572l1.4-1.045l1.31-1.044l0.778-0.957l0.335-0.9
		l0.232-1.087l0.136-0.636l0.243-0.5l0.752-0.581l0.936-0.52l1.352-0.184l1.645,0.032l1.114,0.24l1.189,0.565l1.038,0.578
		l1.001,1.115l0.854,1.471l1.314,1.763l0.578,1.169l0.601,1.286l0.784,0.579l0.562,0.298l0.595,0.108l0.72-0.119l1.833-0.238
		l2.493-0.076l-1.692-4.283l-0.249-0.486l-0.151-0.611l-0.06-0.476l0.135-0.555l0.304-0.616l0.27-0.477l0.173-0.443l0.157-0.397
		l0.113-0.613l0.108-0.771l0.108-0.997l0.13-0.625L166.196,10l0.498-0.411l0.719-0.344l0.666-0.365l0.395-0.465l0.151-0.327
		l-0.038-0.365l-0.248-0.272L167.9,7.236l-0.882-0.119l-0.568-0.341l-1.038-0.416l-1.017-0.333l-0.729-0.249l-0.319-0.397
		l-0.384-0.273l-0.541-0.072l-0.72,0.151l-0.557,0.187l-0.902,0.083l-0.947,0.122l-0.266,0.195l-0.129,0.26l-0.021,0.702
		l-0.071,0.517l-0.356,0.576l-0.405,0.228l-0.438,0.086l-0.331-0.054l-0.351-0.327l-0.168-0.814l-0.104-1.327l0.018-0.676
		l0.237-0.465l0.189-0.344l0.562-0.522l0.459-0.465l0.454-0.53l0.347-0.648l0.244-0.671l-0.044-1.02l-0.297-1.268l-0.704-1.539
		l-0.595-1.331l-0.118-0.575L157.23-5.17l-0.087-1.157l0.075-0.454l0.385-0.614l0.428-0.365l0.529-0.443l0.567-0.576l0.449-0.575
		l0.319-0.577l0.146-0.405l0.129-0.862l0.216-2.244l0.033-0.514l0.119-1.258l0.044-1.501l0.004-2.033l-0.194-2.464l-0.384-2.076
		l-0.113-0.804l0.006-1.838l0.118-0.83l0.281-0.619l0.341-0.423l0.454-0.543l0.617-0.37l0.513-0.322l0.336-0.17l0.265-0.417
		l0.266-1.124l0.113-0.809l0.216-1.434l0.098-1.098l0.065-1.776l-0.076-1.479l-0.07-0.646l-0.2-0.471l-0.194-0.352l-0.405-0.44
		l-0.374-0.344l-0.162-0.332l-0.092-0.327l-0.065-0.582l0.131-1.04l0.297-0.809l0.46-1.042l0.335-0.754l0.325-1.269l0.514-1.312
		l0.324-0.659l0.308-0.56l0.525-0.382l0.291-0.216l0.46-0.16l0.353-0.032l0.346,0.138l0.503,0.182l0.351,0.083l0.281,0.011
		l0.379-0.094l0.341-0.182l0.53-0.344l0.562-0.321l0.546-0.249l0.406-0.1l0.384-0.027l0.249-0.046l0.184-0.116l0.167-0.181
		l0.125-0.344l0.114-0.4l-0.027-0.265l-0.136-0.387l-0.509-0.717l-0.162-0.313l-0.032-0.39l0.104-0.52l0.069-0.327l-0.054-0.397
		l-0.054-0.295l-0.249-0.338l-0.303-0.222l-0.346-0.17h-0.277l-0.88,0.148l-1.336,0.454l-1.088,0.271l-0.945,0.138l-0.504-0.011
		l-1-0.116l-1.417,0.062l-1.249,0.165l-1.267,0.095l-0.605-0.084l-0.395-0.133l-0.308-0.249l-0.574-0.809l-0.302-0.575l-0.736-0.755
		l-0.919-0.692l-1.131-0.529l-0.784-0.105l-0.584,0.116l-1.173-0.038l-1.109,0.049l-1.292,0.105l-1.845,0.306l-1.195,0.07
		l-0.735-0.105l-0.579-0.165l-0.503-0.344l-0.27-0.427l-0.238-0.228l-0.362-0.054l-0.427,0.084l-0.601,0.081l-1.287,0.156
		l-0.812,0.055l-1.119,0.032l-0.854-0.165l-0.871-0.312l-0.59-1.321l-0.94-1.923v-1.744l-0.151-1.812l0.043-1.955l0.173-2.193
		l0.422-1.599l0.108-1.054l-0.341,0.4l-0.59,0.313l-0.67,0.084l-0.957-0.117l-1.012-0.116l-0.546,0.011l-0.309,0.133l-0.222,0.194
		l-0.113,0.317l-0.173,0.181l-0.53-0.043l-0.46-0.238l-0.346-0.281l-0.596-0.105l-0.676,0.011l-0.676,0.105l-0.347,0.16
		l-0.514,0.259l-0.405,0.273l-0.259,0.271l-0.31,0.714l-0.172,0.749l-0.022,0.454l0.13,0.344l0.347,0.116l0.567-0.035l0.346-0.133
		l0.185-0.344l0.087-0.332l0.264-0.101l0.119,0.035l0.114,0.238l0.161,0.52l0.114,0.775l-0.07,0.587l-0.044,0.4l-0.183,0.344
		l-0.303,0.164l-0.46,0.052l-0.368-0.078l-0.448-0.105l-0.633-0.116h-0.384l-0.492,0.021l-0.255,0.189l-0.119,0.297l0.021,0.333
		l0.19,0.4l0.194,0.486l0.113,0.382l-0.07,0.471l-0.237,0.405l-0.422,0.387l-0.391,0.116l-0.416-0.073l-0.384-0.381l-0.26-0.504
		l-0.119-0.448l-0.016-0.333l-0.195-0.232l-0.303-0.043l-0.691,0.098l-0.438,0.272l-0.39,0.276l-0.281,0.338l-0.06,0.343
		l0.017,0.333l0.194,0.344l0.341,0.27l0.081,0.295l-0.064,0.365l-0.341,0.344l-0.93,0.343l-0.947,0.117l-0.908-0.117l-0.578-0.289
		l-0.574-0.43l-0.427-0.021l-0.379,0.049l-0.682,0.3l-0.811,0.165l-0.638-0.011l-0.525-0.052l-0.562-0.335l-0.367-0.549
		l-0.341-0.809l-0.39-0.854l-0.379-0.43l-0.551-0.179l-0.601-0.011l-0.341,0.154l-0.466,0.311l-0.589,0.417l-0.606,0.514
		l-0.503,0.405l-0.227,0.265L108.6-62.31l-0.061,0.343l0.061,0.455l0.34,0.809l0.185,0.63l0.016,0.638l-0.216,0.898l-0.427,0.757
		l-0.634,0.841L107.2-56.12l-0.541,0.703l-0.52,0.573l-0.379,0.319l-0.313,0.211l-0.34,0.062l-0.25-0.045l-0.275-0.217l-0.222-0.376
		l-0.422-0.497l-0.639-0.411l-0.811-0.271l-0.807-0.249l-0.448-0.095l-0.33-0.189l-0.07-0.343l0.06-0.576l0.254-0.874l0.25-0.738
		l0.15-0.397l-0.016-0.349l-0.276-0.343l-0.509-0.273l-0.616-0.359l-0.248-0.287l-0.39-0.433l-0.292-0.382l-0.314-0.199l-0.28-0.011
		l-0.384,0.205l-0.336,0.217l-0.313,0.237l-0.113,0.52l-0.006,0.565l0.124,0.67l-0.075,0.398l-0.249,0.564l-0.373,0.549
		l-0.211,0.344l-0.336,0.205l-0.464,0.054l-0.493-0.148l-0.589-0.359l-0.438-0.465l-0.659-0.263l-0.59-0.038l-0.324,0.096
		l-0.157,0.153l-0.092,0.278l0.119,0.382l0.243,0.344l0.194,0.316l0.076,0.343l-0.043,0.425l-0.303,0.39l-0.271,0.26l-0.373,0.11
		l-0.514,0.057l-0.362,0.011l-0.243,0.033l-0.119,0.094l-0.026,0.304l0.06,0.227l0.238,0.39l0.172,0.176l0.044,0.343l-0.081,0.295
		l-0.206,0.303l-0.286,0.105l-0.39,0.058l-0.466,0.11l-0.248,0.217l-0.027,0.248l0.152,0.419l0.254,0.327l-0.027,0.228l-0.211,0.127
		l-0.237,0.079l-0.51-0.067l-0.285-0.044l-0.31,0.044l-0.188,0.078l-0.233,0.067l-0.243-0.111l-0.151-0.116l-0.249-0.173
		l-0.329-0.043l-0.206,0.116l-0.119,0.275l-0.037,0.333l0.027,0.321l0.113,0.312l0.265,0.121l0.352,0.192l0.2,0.238l0.103,0.2
		l-0.103,0.321l-0.292,0.281l-0.557,0.284l-0.217,0.303l-0.021,0.194l0.281,0.306l0.584,0.021l0.313,0.058l0.13,0.113l0.012,0.295
		l-0.033,0.289l-0.341,0.37l-0.708,0.281l-0.741,0.127l-0.395,0.266l-0.26,0.294l-0.027,0.289l0.341,0.217l0.52,0.144l0.118,0.344
		l-0.135,0.265l-0.335,0.217l-0.417,0.094l-0.902-0.034l-0.985-0.06l-0.648,0.094l-0.497,0.344l-0.736,0.603l-0.319,0.344
		l-0.113,0.555l0.113,0.682l0.357,0.497l0.011,0.354l-0.368,0.338l-0.341,0.101l-0.567-0.228l-0.547-0.622l-0.318-0.266
		l-0.443-0.115l-0.433,0.115l-0.26,0.344l0.06,0.598l0.356,0.538l0.108,0.56l-0.049,0.36l-0.806,0.343l-0.892,0.021l-0.341-0.132
		l-0.347-0.382l-0.043-0.526l0.119-1.036l-0.2-0.306l-0.385-0.271l-0.514-0.216l-0.313-0.327l-0.205-0.249l-0.254-0.497l0.081-0.39
		l0.287-0.148l0.448,0.089l0.347,0.116l0.231-0.111l0.044-0.387l-0.108-0.384l-0.205-0.57l-0.298-0.52l-0.341-0.376l-0.184-0.343
		l0.043-0.396l0.119-0.476l0.135-0.344l-0.054-0.297l-0.2-0.252l-0.524-0.121l-1.319-0.117l-0.893-0.059l-0.778-0.228l-0.573-0.073
		l-0.341,0.062l-0.406,0.266l-0.249,0.227l-0.308,0.427l-0.362,0.333l-0.471,0.11l-0.481-0.104l-0.335-0.252l-0.2-0.573l0.026-0.578
		l-0.016-0.314l-0.167-0.116l-0.341,0.105l-0.368,0.349l-0.645,0.081l-0.303,0.307l-0.221,0.354l-0.039,0.338l0.039,0.376
		l-0.027,0.273l-0.211,0.191l-0.318,0.057l-0.299-0.115l-0.323-0.327l-0.276-0.206l-0.59-0.122l-0.341-0.043l-0.838,0.203
		l-0.433,0.228l-0.313,0.638l-0.07,0.554l0.141,1.226l0.118,1.151l0.113,0.674l-0.113,0.682l-0.103,0.549l-0.416,0.691l-0.319,0.466
		l-0.535,0.343l-0.752,0.211l-0.422,0.122L59.5-39.333l-0.216,0.259l0.118,0.238l0.639,0.068l0.714,0.104l0.476,0.182l0.411,0.416
		l0.005,0.312l-0.275,0.393l-0.552,0.138l-0.346,0.067l-0.244,0.181l-0.264,0.781l-0.45,1.041h-0.129l-0.255,0.116l-0.308,0.284
		l-0.357,0.365l-0.395,0.254l-1.217,0.725l-0.74,0.593l-0.617,0.522l-0.459,0.724l-0.2,0.565l-0.119,0.908l-0.044,0.82l0.167,0.792
		l-0.021,0.397l-0.119,0.66l-0.15,0.443l-0.368,0.476l-0.211,0.222l-0.216,0.1h-0.46l-0.709-0.156l-0.523-0.114l-0.466,0.104
		l-0.362,0.333l-0.341,0.438l-0.275,0.549l-0.427,0.692l-0.347,0.332l-0.352,0.154h-0.417l-1.859-0.508l-1.385-0.49l-0.73-0.408
		l-0.309-0.359l0.06-0.343l0.179-0.249l0.476-0.306l0.347-0.344l0.054-0.321L45.73-27.76l-0.567-0.249l-1.206-0.116l-4.63-0.338
		l-0.87-0.238l-0.465-0.078l-0.498,0.019l-1.173-0.119l-0.817-0.281l-0.725-0.502l-0.298-0.576l-0.059-0.804l0.346-0.908
		l0.682-0.836l0.779-0.809l0.545-0.622l0.287-0.575l-0.016-0.376l-0.255-0.614l-0.552-0.465l-0.584-0.284l-0.616-0.116l-0.676-0.021
		l-0.795,0.011l-0.812,0.122l-0.228,0.216l-0.454,0.509l-0.806,0.787l-0.529,0.381l-1.088,0.484l-1.309,0.587l-0.957,0.343
		l-1.082,0.084l-0.827,0.192l-0.801,0.121l-0.768-0.116l-0.811-0.343l-0.233-0.276l-0.6-0.3l-0.584-0.095l-0.574-0.114l-0.811-0.389
		l-0.584-0.354l-0.687-0.581l-0.552-0.576l-0.265-0.365l-0.346-0.138h-0.33l-0.417,0.344l-0.643,0.691l-0.341,0.149l-0.357,0.072
		l-0.378,0.006l-0.995-0.029l-0.476,0.156l-0.53,0.338l-0.319,0.238l-0.265,0.43l-0.319,0.474l-0.265,0.219l-0.579,0.084
		l-0.692,0.067l-0.822,0.292L9.81-32.728l-0.465,0.501l-0.119,0.318l-0.065,0.433l-0.038,0.4l0.222,0.562l0.194,0.289l0.125,0.254
		l0.167,0.317l-0.033,0.221l-0.13,0.206l-0.373,0.249l-0.26,0.116H8.815l-0.249-0.035l-0.389-0.021l-0.352,0.179l-0.378,0.286
		l-0.416,0.344l-0.384,0.116l-0.313,0.067l-0.438-0.017l-0.357-0.327l-0.79-0.526l-0.617-0.249H3.563l-0.524,0.143l-0.492,0.406
		l-0.519,0.292L1.449-28.02l-0.801,0.064l-0.735,0.014l-0.892-0.167l-0.459-0.017l-0.227,0.11l-0.189,0.179l-0.168,0.349
		l-0.049,0.26l0.049,0.398l-0.011,0.321l-0.162,0.338l-0.271,0.217l-0.486,0.216l-0.806,0.292l-0.708,0.116l-0.498,0.252
		l-0.308,0.26l-0.157,0.211l-0.244,0.465l-0.276,0.375L-6.317-23.4l-0.4,0.143l-0.481,0.105l-1.065,0.116l-0.806,0.333l-0.579,0.179
		l-0.552,0.037l-0.579,0.011l-0.94-0.116l-0.498-0.184l-1.011-0.343l-0.459-0.281l-0.216-0.044l-0.368,0.011l-0.335,0.111
		l-0.682,0.465l-0.568,0.53l-0.34,0.411l-0.244,0.386l-0.135,0.512l-0.13,0.714l0.211,0.997l0.465,1.523l0.341,0.973l0.395,0.604
		l0.762,0.854l0.487,0.476l0.13,0.327l-0.022,0.466l-0.141,0.575l-0.227,0.16l-0.827-0.079l-0.763-0.341l-1.266-0.965l-0.357-0.216
		l-0.687-0.117l-0.698,0.033l-1.266,0.151l-1.568,0.575l-1.271,0.36l-1.622,0.94l-1.001,0.963l-0.843,0.833l-0.477,0.795
		l-0.465,1.225l-0.157,0.608l0.038,0.217l-0.46,0.576l-0.227,0.743l-0.189,0.414l-0.416,0.87l-0.303,0.515l-0.303,0.653
		l-0.271,0.481l-0.524,0.634l-0.768,0.624l-0.708,0.486l-0.687,0.273l-0.574,0.111l-0.319-0.073l-0.238-0.116l-0.227-0.271
		l-0.254-0.627l-0.254-0.769l-0.103-0.13l-0.211-0.116l-0.346-0.011l-0.93-0.032l-0.627-0.1l-0.341-0.217l-0.368-0.477l-0.308-0.354
		l-0.346-0.116l-0.454-0.084l-0.114,0.084l-0.184,0.237l-0.486,0.682l-0.498,0.576l-0.444,0.189l-0.238,0.048l-0.368-0.011
		l-0.232-0.21l-0.206-0.292l-0.189-0.174l-0.271-0.116h-0.2l-0.33,0.111l-0.179,0.179l-0.254,0.486l-0.389,0.349l-0.465,0.298
		l-0.362,0.072l-0.476-0.037l-0.8-0.238l-0.881-0.278l-1.239-0.382l-1.07-0.402l-1.704-0.854l-0.535-0.298l-1.807-0.786l-1.07-0.4
		l-1.174-0.365l-1.357-0.333l-1.103-0.343l-0.741-0.127l-0.454-0.055l-0.433,0.065l-0.395,0.138l-0.249,0.311l-0.238,0.428
		L-59.619-6.4l-0.13,0.56l-0.216,0.511l-0.378,0.477l-0.481,0.57l-0.503,0.587l-0.249,0.217l-0.46,0.104l-0.194-0.005l-0.341-0.119
		l-0.4-0.387l-0.379-0.613l-0.335-0.4l-0.325-0.111l-0.238,0.03l-0.357,0.175l-0.378,0.455l-0.644,0.876l-0.578,0.824l-0.233,0.344
		l-0.119,0.265l-0.011,0.333l0.022,0.497l0.13,0.477l0.476,0.589l0.222,0.35l0.156,0.37l-0.016,0.393l-0.222,0.749l-0.384,0.442
		l-0.459,0.347l-0.514,0.284l-0.698,0.148l-0.573,0.116l-0.39,0.122l-0.259,0.194l-0.249,0.26l-0.249,0.327l-0.292,0.216
		l-0.243,0.244l-0.216,0.073l-0.714-0.068l-0.649,0.046l-0.551,0.113h-0.519l-0.52-0.054l-0.811-0.287l-1.341-0.681l-1.498-0.611
		l-0.849-0.476l-0.806-0.503l-0.984-0.487l-0.34-0.116l-0.238-0.024L-80.3,1.33l-0.2,0.09l-0.249,0.259l-0.644,1.031l-0.806,1.384
		l-0.459,0.692l-0.59,0.555l-0.784,0.897l-0.547,0.576l-0.395,0.354l-0.579,0.227l-0.303,0.055l-0.362-0.033l-0.26-0.248
		l-0.34-0.671l-0.346-1.125l0.081-0.857l0.027-0.752l-0.027-0.395l-0.216-0.121h-0.152l-0.368-0.012l-0.265,0.022l-0.308,0.159
		l-0.292,0.257l-0.297,0.419l-0.189,0.373l-0.027,0.631l-0.114,0.575l-0.119,0.393l-0.227,0.343L-90.1,6.714l-0.838,0.276
		l-0.411,0.116l-0.227,0.173l-0.189,0.344l-0.108,0.659l-0.108,0.552L-92.1,9.526l-0.39,0.576l-0.573,0.57l-0.958,0.622
		l-1.022,0.497l-1.049,0.317l-0.936,0.11l-0.822-0.011l-1.163-0.157l-0.574-0.165l-0.422-0.343l-0.546-0.692l-0.243-0.344
		l-0.233-0.116l-0.238-0.116l-0.573,0.006l-0.871-0.011l-0.341-0.139l-0.271-0.399l-0.092-0.471l-0.33-0.487l-0.362-0.321
		l-0.546-0.189l-0.562-0.114l-1.19,0.006l-0.995,0.006l-0.79,0.075l-0.682,0.2l-0.502,0.194l-0.379,0.319l-0.189,0.476l-0.07,0.501
		l0.21,0.454l0.562,0.671l0.335,0.349l0.119,0.392l0.076,0.312l-0.017,0.26l-0.119,0.265l-0.194,0.179l-0.357,0.176l-0.249,0.116
		l-0.33,0.146l-0.119,0.116l-0.114,0.192l-0.059,0.284l-0.114,0.148l-0.146,0.162l-0.151,0.098l-0.287,0.078l-0.151,0.079
		l-0.092,0.11l-0.113,0.228l-0.081,0.318l0.005,0.344l0.017,0.189l-0.054,0.243l-0.151,0.194l-0.189,0.287l-0.346,0.395l-0.795,0.37
		l-0.336,0.226l-0.249,0.329l-0.281,0.373l-0.141,0.33l-0.076,0.352l0.092,0.535l0.032,0.73l-0.092,0.72l-0.189,0.341l-0.352,0.422
		l-0.319,0.141l-0.303-0.012l-0.287-0.054l-0.4-0.237l-0.205-0.314l-0.184-0.098l-0.21-0.086l-0.157-0.011l-0.173,0.032
		l-0.249,0.217l-0.628,0.648l-0.303,0.854l0.092,0.995l-0.433,0.692l0.362,2.634l0.027,0.373l0.119,0.119l0.303,0.108l1.043,0.107
		l0.503,0.027l0.481-0.021l0.254-0.049l0.254-0.086l0.265-0.114l0.238-0.146l0.356-0.422l0.341-0.331l0.297-0.2l0.233-0.075
		l0.13,0.012l0.103,0.097l0.049,0.304l-0.135,0.497l-0.222,0.379l-0.362,0.351l-0.682,0.666l-0.119,0.205l-0.016,0.205l0.005,0.206
		l0.103,0.313l0.427,0.844l0.341,0.639l0.222,0.346l0.119,0.136l0.172,0.103l0.347,0.06l0.384,0.124l0.719,0.227l0.828,0.292
		l1.043,0.341l0.455,0.114l0.275,0.086l0.211,0.2l0.303,0.179l0.357,0.119l0.341,0.108l0.351,0.054l0.238,0.119l0.265,0.33
		l0.097,0.124l0.141,0.141l0.108,0.037l0.222,0.039l0.471-0.018l0.374,0.05l0.113,0.043l0.211,0.217l0.184,0.113l0.346,0.092
		l0.562,0.086l0.319,0.017l0.12,0.092l0.027,0.113l-0.011,0.157l-0.038,0.422l0.113,0.347l0.119,0.367l0.151,0.228l0.184,0.108
		l0.238,0.069l0.335-0.037l0.341-0.131l0.552-0.335l0.259-0.26l0.141-0.303l0.135-0.433l0.195-0.399l0.113-0.205l0.103-0.12
		l0.346-0.28l0.319-0.239l0.249-0.15l0.2-0.054l0.244-0.012l0.222,0.021h0.34l0.319-0.054l0.346-0.075l0.189-0.098l0.113-0.093
		l0.092-0.194l0.244-0.519l0.103-0.217l0.065-0.081l0.216-0.075l0.2-0.044l0.07-0.118l0.005-0.076l0.043-0.195l0.06-0.064h0.125
		l0.249,0.086l0.216,0.238l0.216,0.114l0.163-0.114l0.097-0.173l0.021-0.313l0.136-0.124l0.146-0.113l0.114-0.056l0.054-0.335
		l0.065-0.167l0.206-0.043h0.356l0.347,0.222l0.389,0.222l0.454,0.157l0.384,0.248L-92.523,32l0.346,0.352l0.471,0.228l0.871,0.399
		l1.044,0.352l0.93,0.341l0.854,0.184l0.779,0.109l0.968,0.183l0.39,0.158l0.319-0.012l0.119-0.043l0.114-0.113l0.13-0.119
		l0.254-0.131l0.162-0.032l0.324,0.012l0.492-0.043l0.449-0.119l0.455-0.217l0.27-0.205l0.222-0.238l0.292-0.352l0.216-0.113
		l0.26-0.065l0.341,0.033l0.2,0.081l0.092,0.123l-0.087,0.418l-0.184,0.318l-0.562,0.573l-0.406,0.238l-0.514,0.313l-0.34,0.228
		l-0.168,0.216l-0.103,0.341l-0.065,0.541v0.329l-0.178,0.373l-0.352,0.703l-0.092,0.466l0.098,0.454l0.216,0.578l0.266,0.341
		l0.194,0.081l0.146,0.065l0.157-0.043l0.579-0.136l0.476-0.211l0.346-0.185l0.222-0.01l0.227,0.032l0.195,0.118l0.119,0.266
		l0.172,0.476l0.027,0.368l-0.27,0.622l-0.233,0.384l-0.357,0.249l-0.222,0.266l-0.206,0.378l-0.114,0.438l-0.119,0.66l-0.119,0.27
		l-0.194,0.184l-0.428,0.223l-0.265,0.091l-0.297,0.152l-0.395,0.146l-0.113,0.184l-0.195,0.347l-0.119,0.341l-0.043,0.567
		l0.01,0.573l0.119,0.179l0.125,0.136l0.265,0.26l0.244,0.194l0.297,0.064l0.195-0.011l0.216-0.119l0.167-0.173l0.076-0.303
		l0.064-0.347l-0.027-0.308l-0.043-0.341l0.06-0.216l0.092-0.076l0.119,0.011l0.433,0.249l0.313,0.216l0.271,0.238l0.125,0.135
		l0.265,0.011l0.141-0.107l0.119-0.2l0.059-0.395l0.022-1.357l0.173-1.299l0.254-0.963l0.254-0.627l0.167-0.211l0.113-0.113
		l0.335-0.038l0.113,0.011l0.254,0.093l0.146,0.054l0.319-0.054l0.281-0.104l0.26-0.032h0.492l0.508,0.103l0.368,0.184l0.303,0.169
		l0.313,0.28l0.162,0.205l0.038,0.287l-0.033,0.346l-0.113,0.39l-0.26,0.276l-0.368,0.341l-0.584,0.324l-0.341,0.151l-0.595,0.097
		l-0.287,0.055l-0.114,0.086l-0.119,0.168l-0.07,0.189l-0.005,0.118l0.038,0.217l-0.027,0.293l-0.119,0.205l-0.189,0.395
		l0.081,0.205l0.119,0.168l0.346,0.119l0.546,0.087l0.508,0.021l0.227,0.06l0.081,0.113l0.07,0.248l-0.114,0.412l-0.297,0.454
		l-0.341,0.432l-0.238,0.396l-0.119,0.341l-0.038,0.498l0.146,0.227l0.341,0.174l0.227,0.086l0.259-0.044l0.271-0.113l0.211-0.113
		l0.438-0.411l0.444-0.433l0.389-0.416l0.33-0.249l0.216-0.124l0.33-0.119l0.346,0.021l0.254,0.054l0.167,0.125l0.157,0.146
		l0.097,0.335l-0.027,0.314l-0.162,0.497l-0.167,0.585l-0.055,0.67l0.12,0.433l0.14,0.281l0.168,0.119l0.227,0.033l0.319-0.056
		l0.508-0.145l0.638-0.082l0.416-0.081l0.314,0.032l0.194,0.104l0.184,0.237l0.152,0.362l0.135,0.466l0.184,0.578l0.249,0.195
		l0.346,0.107l0.227,0.033l0.13,0.075l0.151,0.287l0.249,0.491l0.173,0.449l0.049,0.433l0.184,0.232l0.141,0.104l0.357,0.178
		l0.244,0.119l0.232,0.362l0.135,0.238l0.244,0.179l0.194,0.172l0.011,0.163l-0.119,0.249l-0.016,0.237l-0.011,0.119l0.092,0.163
		l0.302,0.097l0.444,0.173l0.335,0.119l0.163,0.156l-0.006,0.125l-0.146,0.237l0.011,0.287l0.065,0.579l0.184,0.238l0.282,0.113
		l0.67-0.038l0.698-0.054l0.703-0.087l0.411-0.071l0.2,0.039l0.119,0.119l0.189,0.297l0.297,0.362l0.222,0.136l0.129,0.069
		l0.292,0.012l0.324,0.021l0.352,0.194l0.411,0.248l0.043,0.206l-0.076,0.303l-0.259,0.298l-0.33,0.228l-0.579,0.188l-0.946,0.238
		l-0.682,0.13l-0.508,0.021l-0.421,0.119l-0.33,0.184l-0.357,0.362l-0.108,0.341l-0.092,0.595l-0.113,0.362l-0.195,0.309
		l-0.238,0.304l-0.249,0.28l-0.6,0.573l-0.34,0.292l-0.46,0.26l-0.541,0.26l-0.503,0.27l-0.741,0.276l-0.747,0.136l-0.589,0.135
		l-0.714,0.341l-0.487,0.313l-0.806,0.595l-0.259,0.249l-0.146,0.281l-0.043,0.173l0.06,0.341l0.021,0.416l0.179,0.444l0.13,0.271
		l0.064,0.573l-0.054,0.346l0.07,0.205l0.217,0.152l0.567,0.183l0.493,0.033l0.362-0.043l0.173-0.152l0.178-0.194l0.206-0.281
		l0.135-0.113l0.124-0.065l0.082-0.01l0.173,0.021l0.568,0.054l0.352,0.021l0.346,0.151l0.249,0.324l0.232,0.454l0.081,0.444
		l0.021,0.487l0.065,0.254l0.113,0.124l0.12,0.054l0.184,0.021l0.232-0.075l0.146-0.103l0.136-0.157l0.07-0.13l0.01-0.098
		l-0.113-0.162l-0.119-0.216l-0.097-0.136l0.005-0.173l0.081-0.211l0.108-0.113l0.244,0.021l0.13,0.092l0.276,0.113l0.465,0.103
		l0.232-0.048l0.114-0.114l0.103-0.205l0.238-0.217l0.12-0.199l0.205-0.07l0.13,0.021l0.141,0.113l0.065,0.135l0.07,0.299v0.248
		l-0.032,0.265l0.119,0.325l0.195,0.578l0.114,0.39l-0.049,0.573l0.07,0.309l0.222,0.124l0.135,0.06l0.33,0.021l0.6-0.07
		l0.406-0.021l0.286,0.032l0.114,0.119l0.352,0.189l0.438,0.141l0.254,0.064l0.459-0.032l0.341-0.022h0.167l0.141,0.055l0.07,0.113
		l0.06,0.217l-0.065,0.39l-0.119,0.573l-0.227,0.572l-0.06,0.396l0.06,0.189l0.498,0.811l0.114,0.466l-0.038,0.373l-0.13,0.881
		l0.048,0.866l0.227,0.827l0.184,0.341l0.244,0.103l0.146,0.027l0.12-0.098l0.329-0.103l0.238-0.055l0.454-0.113l0.244-0.146
		l0.287-0.141l0.173-0.054l0.232,0.033l0.276,0.113l0.351,0.156l0.173,0.244l0.146,0.373l0.406,1.395l0.151,0.341l0.114,0.092
		l0.271,0.049l0.233-0.016l0.351-0.114l0.287-0.107l0.335-0.054l0.368,0.01l0.492,0.054l0.39,0.012l0.259-0.033l0.53-0.086
		l0.346,0.021l0.341-0.064l0.179-0.081l0.227-0.022l0.103,0.044l0.125,0.103l0.525,0.444l1.362,1.405l0.622,0.562l0.309,0.151
		l0.238,0.021l0.205-0.021l0.347-0.086l0.459-0.027h0.854l1.503,0.027l1,0.113l0.514,0.113l0.298,0.216l0.113,0.362v0.309
		l-0.076,0.26l-0.125,0.135l-0.173,0.082l-0.378,0.129h-0.276l-0.124,0.119l-0.065,0.151l-0.081,0.298l-0.108,0.206l-0.341,0.037
		l-0.421-0.097l-0.638-0.119l-0.822-0.055l-0.335,0.021l-0.217,0.119l-0.189,0.114l-0.082,0.173l-0.13,0.373l0.022,0.228
		l0.119,0.204l0.113,0.141l0.59,0.26l0.395,0.206l0.308,0.146l0.217,0.329l0.135,0.271l0.168,0.345l0.33,0.347l0.341,0.189
		l0.276,0.113l0.654,0.086l0.433-0.069l0.303-0.06l0.346,0.021l0.341-0.021l0.4-0.092l0.346-0.168l0.341-0.108l0.363-0.098
		l0.216,0.033l0.233,0.064l0.227,0.099l0.341,0.389l0.238,0.228l0.271,0.119l0.346-0.06l0.276-0.071l0.162-0.167l0.092-0.168
		l0.027-0.194l-0.081-0.341l-0.114-0.373l-0.065-0.434l-0.162-0.443l-0.087-0.28l0.043-0.309l0.027-0.168l0.092-0.081l0.065-0.07
		l0.097-0.043l0.167-0.011l0.363,0.021l0.205,0.032l0.39-0.119l0.325-0.141l0.324-0.162l0.173-0.151l0.151-0.118l0.12-0.022
		l0.091,0.011l0.163,0.141l0.005,0.228l-0.146,0.313l-0.157,0.271l-0.163,0.357l-0.043,0.291l0.006,0.195l0.075,0.124l0.189,0.06
		l0.184,0.021l0.319-0.037l0.2-0.113l0.135-0.099l0.125,0.033l0.151,0.075l0.254,0.298l0.963,1l0.281,0.347l0.06,0.346l-0.07,0.206
		l-0.135,0.228l-0.346,0.135l-0.806,0.313l-0.259,0.108l-0.189,0.179l-0.233,0.318l-0.195,0.341l-0.254,0.595l-0.346,0.908
		l-0.222,0.866l-0.033,1.005l0.141,0.639l0.282,0.487l0.308,0.27l0.465,0.52l0.347,0.617l0.335,0.983l0.211,0.66l0.135,0.347
		l-0.66,0.816l-0.324,0.329l-0.557,0.515L-35.31,104.788"/>
</g>
<g id="Layer_1_1_">
</g>
</svg>
