<?xml version="1.0" encoding="iso-8859-1"?>
<!-- Generator: Adobe Illustrator 16.0.4, SVG Export Plug-In . SVG Version: 6.00 Build 0)  -->
<!DOCTYPE svg PUBLIC "-//W3C//DTD SVG 1.1//EN" "http://www.w3.org/Graphics/SVG/1.1/DTD/svg11.dtd">
<svg version="1.1" xmlns="http://www.w3.org/2000/svg" xmlns:xlink="http://www.w3.org/1999/xlink" x="0px" y="0px"
	 width="30.802px" height="25.51px" viewBox="0 0 30.802 25.51" style="enable-background:new 0 0 30.802 25.51;"
	 xml:space="preserve">
<g id="Layer_87">
	<g id="Layer_92">
		<path id="Mohmand_Agency" style="fill:#CCCCCC;stroke:#FFFFFF;stroke-width:1.07;" d="
			M17.81,25.01L17.81,25.01l0.043-0.043l0.107-0.101l0.065-0.151l-0.06-0.127l-0.003-0.188l0.039-0.035l0.024-0.101l-0.004-0.098
			l-0.067-0.082l0.009-0.1l0.032-0.033l0.049-0.021l0.094-0.047l0.091-0.088l0.097-0.047l0.121-0.095l0.04-0.065l-0.005-0.051
			l0.082-0.072l0.098-0.076l0.043-0.029l0.089-0.061l0.042-0.045l0.045-0.074l-0.018-0.043l-0.015-0.051l0.021-0.117l0.089-0.062
			l0.132-0.062l0.104-0.045l0.157-0.053l0.215-0.058l0.077-0.052l0.104-0.067l0.122-0.095l0.104-0.07l0.152-0.061l0.126-0.068
			l0.057-0.068l0.066-0.137l0.037-0.083l0.039-0.071l-0.064-0.059l-0.071-0.061l0.031-0.041l0.125-0.056l0.147-0.046l0.105-0.01
			l0.18-0.055l0.072-0.086l0.062-0.01l0.041,0.016l0.045,0.031l0.027,0.018l0.042,0.041l0.02,0.027l0.005,0.006l0.009-0.055
			l0.092-0.089l0.118-0.063l0.122-0.058l-0.052-0.112l0.033-0.121l0.02-0.142l-0.044-0.084l-0.09-0.049l-0.124-0.052l-0.071-0.069
			l0.104-0.079l-0.112-0.117l0.385,0.047l0.009,0.002l0.081,0.031l0.072,0.022l0.066,0.022l0.061,0.029l0.043,0.028l0.074,0.034
			l0.053,0.021l0.078,0.031l0.06,0.016l0.024,0.012l0.245-0.432l0.035-0.008l0.145-0.091l0.015-0.017l0.199-0.119l0.104-0.061
			l0.14-0.041l0.09-0.127l0.01-0.084l-0.023-0.124l0.059-0.142l0.026-0.088l-0.01-0.149l-0.094-0.106l-0.127-0.104l-0.062-0.06
			l-0.07-0.074l-0.001-0.141l0.068-0.109l0.06-0.084l0.058-0.063l0.109-0.11l0.017-0.127l-0.068-0.123l-0.085-0.101l-0.068-0.101
			l0.056-0.065l0.093-0.081l0.077-0.051l0.073-0.055l0.077-0.051l0.155-0.108l0.131-0.083l0.079-0.049l0.087-0.053l0.047-0.037
			l0.033-0.025l0.095-0.061l0.118-0.095l0.039-0.094l-0.055-0.104l0.06-0.062l0.095-0.122l-0.047-0.26l0.115-0.066l0.104-0.043
			l0.089-0.054l0.096-0.063l0.136-0.045l0.107,0.019l0.091-0.033l0.073-0.04l0.073-0.084l0.114-0.102l0.049-0.07l0.033-0.168
			l0.06-0.141l0.102-0.08l0.146,0.006l0.142,0.061l0.13,0.042l0.086,0.002l0.088,0.025l0.107,0.123l0.073,0.085l0.085,0.076
			l0.145,0.094l0.11,0.057l0.103,0.022l0.147-0.029l0.027-0.081l0.029-0.09l-0.003-0.083l-0.019-0.09l-0.009-0.089l0.011-0.184
			l-0.01-0.088l-0.011-0.096l-0.021-0.085l0.015-0.132l0.156-0.021l0.097-0.075l0.139-0.106l0.123-0.025l0.163-0.002l0.119-0.01
			l0.107-0.035l0.104-0.035l0.146-0.062l0.098-0.049l0.1-0.104l0.057-0.141l-0.038-0.09l-0.074-0.072l-0.057-0.073l0.018-0.127
			l0.073-0.131l0.003-0.117l0.004-0.11l-0.018-0.135l0.072-0.094l0.165-0.04l0.122-0.032l0.099-0.134l0.035-0.079l0.066-0.111
			l0.099-0.102l0.15-0.019l0.091-0.006l0.15-0.061l0.12-0.097l0.128-0.063l0.129-0.004l0.088,0.032l0.141-0.081l0.046-0.077
			l0.062-0.079l0.072-0.077l0.073-0.066l0.176-0.065l0.004-0.049l-0.051-0.014l-0.017-0.041l-0.034-0.032l-0.047-0.017l-0.104-0.048
			l-0.034-0.018l-0.058-0.08l-0.021-0.041l-0.033-0.059l-0.04-0.062l-0.043-0.052l-0.067-0.064l-0.038-0.029l-0.058-0.033
			l-0.062-0.031l-0.099-0.038l-0.09-0.041l-0.065-0.026l-0.054-0.01l-0.042,0.002l-0.072,0.019l-0.152,0.055l-0.044,0.046
			l-0.015,0.035l-0.004,0.045l-0.049,0.009l-0.012-0.037l-0.034-0.041l-0.04-0.005l-0.045,0.003l-0.052,0.004l-0.053-0.007
			l-0.047-0.023l-0.032-0.019l-0.059-0.038l-0.05-0.048l-0.016-0.038l-0.054-0.077L28.3,11.475l-0.029-0.04l0.006-0.04l0.017-0.04
			l0.011-0.054l0.008-0.049l0.006-0.055v-0.045l-0.016-0.042l0.022-0.055l0.031-0.073l0.016-0.041l0.001-0.038l-0.004-0.052
			l-0.007-0.047l-0.005-0.048l-0.011-0.051l-0.01-0.049l-0.033-0.059l-0.042-0.052l-0.044-0.043l-0.034-0.045l-0.021-0.044
			l-0.005-0.04l0.024-0.074l0.021-0.043l0.018-0.068l-0.023-0.028l-0.042-0.051l-0.032-0.042l-0.003-0.207l-0.019-0.063L28.094,9.75
			l-0.01-0.058l-0.026-0.056L28.054,9.59l0.022-0.041l0.034-0.068l0.021-0.052l0.015-0.032l0.014-0.034l0.001-0.043l-0.028-0.069
			l-0.03-0.036l-0.988,0.097L26.711,9.44l-0.312,0.287L26.133,9.98l-0.241,0.083l-0.254,0.121l-0.272,0.008l-0.528-0.004
			l-0.054-0.354l0.004-0.295l-0.004-0.391V9.11l0.004-0.249l-0.055-0.295l-0.074-0.478L24.604,7.74l-0.521-0.291l-0.249-0.262
			l-0.225-0.258l-0.087-0.324L23.501,6.31l-0.22-0.544l-0.133-0.354l-0.055-0.249l0.05-0.258l0.245-0.291l0.232-0.258l0.137-0.208
			l-0.145-0.212l-0.062-0.029l-0.208-0.096L23.035,3.62L22.74,3.512l-0.379,0.025l-0.32-0.004L21.769,3.55l-0.43,0.104l-0.503,0.042
			L20.47,3.771l-0.273-0.034l-0.249-0.087L19.49,3.438l-0.491,0.004l-0.391,0.112l-0.229,0.104l-0.303,0.224l-0.358,0.32
			L17.51,4.476l-0.198,0.154l-0.573,0.166l-0.449,0.1l-0.21,0.051l-0.098,0.024l-0.457,0.083l-0.312,0.062l-0.241,0.046
			l-0.458-0.013l-0.261,0.017L13.84,5.169l-0.606-0.087l-0.069-0.02l-0.317-0.088L12.32,4.941l-0.262,0.112l-0.536-0.225l-0.31-0.1
			l-0.11-0.063L10.861,4.53l-0.193-0.064l-0.192-0.064l-0.309-0.212L9.771,3.966L9.339,3.679L9.023,3.312L8.832,3.101l-0.27-0.25
			L8.325,2.535L8.034,2.152L7.901,1.799l-0.12-0.316L7.542,0.684l-0.297,0.1L6.808,1.145L6.53,1.386L6.515,1.398L5.594,1.359
			L5.328,1.72L5.24,1.838L5.146,2.05L5.02,2.335L4.811,2.811l0.004,0.292l0.004,0.317L5.23,4.199l0.198,0.503L5.382,4.83l-0.1,0.271
			L4.453,6.344L4.191,6.505l-0.29,0.18L3.641,6.757l-0.549,0.15L1.58,7.062L1.553,7.074L0.99,7.329L0.65,7.827L0.598,8.338
			L0.536,8.954l0.085,1.501l0.259,0.661l0.237,0.602l0.095,0.077l0.577,0.463l1.271,0.857l0.489,0.642l0.066,0.101l0.377,0.576
			l0.312,0.184l0.155,0.092l0.288,0.094l1.008,0.328l0.79,0.21l0.685,0.183l0.646,0.247l0.074,0.222l-0.008,0.803l-0.473,0.603
			L7.42,17.459l0.37,0.031l0.195,0.008l0.319,0.021l0.287,0.004l0.249,0.051l0.482,0.137l0.568,0.1l0.283,0.059l0.286,0.116
			l0.316,0.183l0.262,0.146l0.271,0.232l0.271,0.44l0.328,0.212l0.217,0.146l0.354,0.174l0.474,0.383l0.282,0.27l0.18,0.213
			l0.012,0.258l-0.19,0.37l0.009,0.303l0.041,0.207l0.055,0.271l0.008,0.274L13.29,22.33l-0.003,0.017l-0.175,0.225l-0.132,0.231
			l-0.031,0.055l-0.336,0.32l-0.029,0.449l0.022,0.009l0.376,0.153l0.412,0.062l0.006,0.001l0.244,0.077l0.182,0.101l0.06,0.032
			l0.062,0.324l0.379,0.063l0.282,0.065l0.345,0.042l0.504,0.091l0.479,0.013l0.262-0.045l0.416,0.002l0.171,0.002L17.81,25.01"/>
	</g>
</g>
<g id="Layer_1">
</g>
</svg>
