<?xml version="1.0" encoding="utf-8"?>
<!-- Generator: Adobe Illustrator 16.0.4, SVG Export Plug-In . SVG Version: 6.00 Build 0)  -->
<!DOCTYPE svg PUBLIC "-//W3C//DTD SVG 1.1//EN" "http://www.w3.org/Graphics/SVG/1.1/DTD/svg11.dtd">
<svg version="1.1" id="Layer_1" xmlns="http://www.w3.org/2000/svg" xmlns:xlink="http://www.w3.org/1999/xlink" x="0px" y="0px"
	 width="301.08px" height="162.872px" viewBox="-137.538 -74.177 301.08 162.872"
	 style="enable-background:new -137.538 -74.177 301.08 162.872;" xml:space="preserve">
<g id="Layer_135">
	<path id="Ziarat" style="fill:#CCCCCC;stroke:#FFFFFF;stroke-width:1.15;" d="M-87.829,57.609L-87.829,57.609l2.676-1.204
		l2.477-1.205l2.62-0.807l1.522-0.251l2.664,0.023l2.273,0.522l1.567,0.432l1.608,1.228l2.591,1.5l2.597,1.216l2.028,1.17
		l3.022,1.638l3.244,0.477l4.658,0.568l4.631,0.216l4.921,0.182l2.807,0.022l4.363,0.728l4.408,1.284l1.876,0.909l1.732,1.159
		l1.602,1.272l1.143,0.284h3.642l4.762-0.183l4.187-0.522l1.103-0.397l2.052-1.057l1.221-1.046l0.812-0.522l3.074-0.455l2.386,0.023
		l4.5,0.341l4.238,0.455l6.472,0.499l2.545,0.398l1.988,0.749l2.131,0.558l3.579,1.454l2.023,1.375l0.772,1.705l0.658,2.033
		l0.479,1.091l1.17,0.818l4.409,1.546l3.715,1.692l5.876,2.204l5.261,1.91l4.25,1.204l2.25,0.545l1.704,0.069l2.182-0.898
		l3.409-2.432l1.636-1.272l3.296-1.796l4.386-1.841l5.818-2.158l5.249-1.398l2.796-0.318l3.091-0.113l2.954,0.25l4.796,0.716
		l2.682,0.262l2.091,0.045l2.658-0.716l5.228-2.193l4.817-2.477l4.25-1.637l3.318-1.579l6.068-2.182l2.886-1.216l3.296-1.796
		l2.375-2.329l1.602-1.75l1.739-2.137l1.431-2.478l1.694-3.704l0.613-1.795l-0.113-2.784l-0.751-1.442l-1.182-0.762l-2.409-1.022
		l-2.432-1.058l-2.75-2.113l-0.477-1.307l-0.068-1.103l0.659-0.988l0.591-0.954l0.614-1.034l2.033-4.932l1-2.818l-0.058-1.329
		l-0.806-2.171l-0.478-1.204l-0.068-1.682l-0.022-1.103l0.454-2.079l1.159-2.717l0.932-4.045l1.001-5.863l1.363-4.659l1.432-2.352
		l1.625-1.625l3.591-1.705l3.136-2.42l3.228-3.272l3.068-3.739l0.909-1.977l-0.047-0.738v-0.364l-0.454-0.591l-1.011-0.329
		l-1.738-1.545l-0.751-1.613l-0.022-0.035l0.092-1.216l0.932-4.284l-0.228-2.193l-0.455-0.716l-1-0.455l-4.136-1.693l-4.886-2.397
		l-4.5-2.761l-3.625-2.443l-4.647-3.364l-2.955-3.307l-3.227-2.818l-1.455-1.182l-7.771-14l-0.478-0.738l-17.045,1.204l-3.625,0.489
		l-4.057,0.738l-1.807,0.057l-4.125-0.591l-5.921-0.295l-5.602,0.318l-4.478,0.511l-3.362,0.239l-4.08,0.5l-4,1.466l-3.17,1.079
		l-3.079,0.83l-2.341,1.17l-0.614,0.534l-0.647,1.364l-0.205,1.955l-0.295,2.443l-0.716,2.818l-0.478,1.841l-1.262,2.955l-1.5,1.397
		l-1.204,0.875l-2.067,1.307l-3.307,1.455l-0.558,0.5l-0.715,2.216l-0.568,2.932l-0.647,1.602l-0.308,2.318l-0.387,0.625
		l-0.806,0.625l-0.978,0.034l-2.432-0.75l-2.558-0.523l-3.521-0.489l-4.126-0.591l-2.556-0.409l-1.159-0.818l-0.631-1.193
		l-0.335-1.33l-0.052-1.08l-0.312-0.966l-0.033-0.853l-0.591-0.727l-3.171-1.466l-2.613-1.852l-1.631-1.647L3.77-47.694
		l-1.631-1.773l-2.363-5.386l-2.211-5.273l-2.13-3.329l-1.159-0.807l-3.574-1.091l-1.557-0.432l-3.841-1.466l-2.153-0.898
		l-2.307-1.147l-2.312-1.375l-2.688-0.273l-4.642,0.045l-2.397,0.08l-2.795,0.716l-5.653,2.284l-5.926,2.932l-5.165,3.466
		l-4.363,3.068l-4.607,3.443l-4.75,3.931l-1.625,1.273l-1.244,0.307l-1.006-0.341l-0.58-0.238l-0.698,0.023l-3.522,2.443
		l-3.983,2.103l-5.875,3.625l-3.152,1.568l-2.597,1.045l-1.512,0.66l-1.363,0.909l-1.324,1.512l-1.198,1.136l-0.897,1.978
		l-0.768,1.625l-0.323,1.705l-0.489,1.352l-0.085,1.466l-0.625,1.238l-1.863,2.25l-2.177,1.784l-4.164,3.682l-2.711,1.932
		l-3.807,3.057l-2.42,2.034l-0.512,1.239l0.068,1.454l0.489,1.307l1.051,1.193l0.449,0.818l0.188,0.727l-0.522,0.989l-0.921,1.261
		l-1.722,1.875l-0.909,1.5l-0.478,1.716l0.097,0.863l0.137,1.193l-0.613,1.477l-2.268,2.523l-1.863,2.011l-4.409,5.499l-2.528,3.012
		l-1.732,2.012l-0.756,0.92l-0.347,1.466l-0.233,1.227l-0.198,1.354l0.137,2.783l0.664,1.796l0.631,1.431l0.233,1.841l0.103,2.183
		l0.079,1.704l0.244,2.068l1.074,1.909l1.346,1.75l2.495,2.192l1.613,1.388l1.887,1.249l2.187,1.5l2.296,1.022l1.454,1.045
		l0.768,1.433l0.625,1.295l1.454,0.909l3.153,1.455l4.585,1.761l3.853,1.091l2.71,1.125l1.028,0.808l2.767-1.5l2.863-1.694
		l2.466-1.216L-87.829,57.609"/>
</g>
<g id="Layer_1_1_">
</g>
</svg>
