<?xml version="1.0" encoding="utf-8"?>
<!-- Generator: Adobe Illustrator 16.0.4, SVG Export Plug-In . SVG Version: 6.00 Build 0)  -->
<!DOCTYPE svg PUBLIC "-//W3C//DTD SVG 1.1//EN" "http://www.w3.org/Graphics/SVG/1.1/DTD/svg11.dtd">
<svg version="1.1" id="Layer_1" xmlns="http://www.w3.org/2000/svg" xmlns:xlink="http://www.w3.org/1999/xlink" x="0px" y="0px"
	 width="301.281px" height="343.198px" viewBox="-132.539 -151.111 301.281 343.198"
	 style="enable-background:new -132.539 -151.111 301.281 343.198;" xml:space="preserve">
<g id="Layer_131">
	<path id="Upper_Dir" style="fill:#CCCCCC;stroke:#FFFFFF;stroke-width:1.15;" d="M-124.96,106.13L-124.96,106.13l2.016,0.194
		l1.212,0.211l1.663,0.389l1.917,0.649l3.564,0.859l1.983,0.309l1.966,0.373l1.447,0.275l2.441,0.097l1.285,1.947l0.698,1.208
		l1.902,1.362l2.1,0.494l6.748,0.617l1.443,0.705l1.452,1.232l0.905,0.893l3.264-0.803l1.48-0.463l1.808,0.26l1.946-0.138
		l1.359-0.551l2.591-0.382l1.764,0.235l2.291,0.413l2.036,0.625l1.776,0.697l3.447,0.049l5.19-0.081l2.741,0.835l0.264-3.22
		l0.515-0.908l0.965-0.771l1.16-0.786l1.561-0.454l0.998-0.357l0.698-1.33l0.515-1.313l1.512-1.151l2.632-0.195l1.719,0.057
		l1.229-0.007l1.805-0.73l0.953-0.632l0.608-0.269l1.427-0.129l3.487,0.34l0.989-0.154l1.151-0.227l0,0l0.981-0.081l1.196-0.13
		l1.212-0.714l5.048-3.625l2.06-0.357l1.719-0.113l1.395,0.576l1.562,0.648l0.118,0.106l0.308,0.381l1.054,1.41l1.27,1.217
		l2.49,1.233l1.804,0.908l1.553,1.289l1.512,1.062l4.939,4.403l2.133,1.825l1.869,2.538l0.373,1.362l1.225,2.83l0.247,1.492
		l1.147,2.336l0.114,0.129l0.182,0.974l0.84,1.136l2.027,0.633l3.528,1.07l0.766,0.526l-0.11,2.166l0.017,0.948l-0.673,5.588
		l-0.872,2.555l-0.985,1.621l-1.131,1.85l-0.466,3.666l0.149,2.416l0.175,0.486l0.515,0.446l3.183,0.438l2.198,0.324l1.172,0.315
		l1.346,0.228l0.929,1.021l0.049,3.568l0.535,1.217l0.859,0.908l-0.612,1.24l1.119,2.66l2.818,2.993l0.863-0.382l3.105-2.229
		l1.444-0.325l0.397,0.179l1.971,2.417l2.067,1.557l1.062,0.908l2.312,2.888l0.462,1.312l1.087,0.357l0.957,1.654l1.119,0.561
		l1.306,0.688l1.451,2.417l0.479,0.56l0.479,0.187l1.678,0.024l0.665,0.454l1.33,1.273l1.459,0.858l1.38,0.406l2.107,0.308
		l2.571,0.276l1.824,0.283l1.492-0.057l0.974,0.146l1.087,0.552l0.957,0.405l1.256-0.309h0.009l1.654-0.892l1.444-0.332l1.435-0.171
		l1.565-0.301l0.665-0.648l1.054-1.8l2.125-0.648l1.233-0.682l0.575-0.859l0.462-0.852l0.665-0.665l1.322-0.454l0.786-0.454
		l1.558-1.703l0.341-0.26l0.859-0.211l1.702-0.682l-0.17-1.014l0.187-0.445l-0.08-0.373l0.827-1.396l0.421-0.341l0.178-0.729
		l-0.518-0.973l-0.845-1.492l-0.445-0.778l-0.479-1.217l0.511-0.211l0.511-0.228l1.565-0.721l1.905-0.35l1.85-0.696l1.216-0.528
		l2.142-0.908l0.867-0.194l0.706-0.527l0.308-1.054l0.316-1.298l0.35-1.631l0.016-0.08l-0.389-1.249l-0.114-1.639l0.454-1.548
		l0.52-0.593l0,0l0.835-1.573l0.3-0.859l0.341-0.812l0.34-1.159l-0.097-1.477l-0.017-0.956l0.438-1.151l0.584-0.869l0.519-0.607
		l0.471-0.867l0.503-0.486l0.989-0.553l1.119-0.795l0.567-0.396l0.682-0.503l0.867-0.486l-0.275-0.665l-0.948-1.947l-1.096-3.291
		l-0.008-0.528l-0.105-0.624l-0.073-0.706l0.049-0.843l0.032-0.746l0.049-1.029l0.308-0.706l0.601-0.486l1.598-1.282l1.42-0.924
		l0.858-1.021l1.525,0.122l0.844-0.706l0.243-0.925l0.032-1.703l0.251-0.697l0.397-1.095l1.906-2.198l1.549-1.532l-0.097-0.835
		l-0.131-1.177l-0.081-0.819l-0.032-0.356l-0.129-1.24v-1.087l0.332-0.924l-0.26-1.217l-0.356-1.541l-0.188-0.697l-0.899-1.493
		l-0.9-2.302l-0.292-1.688l-0.973-1.987l-0.179-1.192l-0.357-1.28l-0.859-1.46l-0.714-0.859l-0.777-0.86l-0.414-0.332l-0.171-0.268
		l0.771-1.217l1.192-0.762l0.113-1.022l0.228-0.974l0.179-0.867l1.217-1.055l0.858-0.21l0.974-0.244h1.906l1.297,0.179l2.036,0.341
		l1.897-0.364l0.924-0.374l0.827-0.543l0.811-0.356l1.437-0.438l1.694-0.21l0.52-0.844l1.217,0.162l0.616-0.868l0.811-0.835
		l0.502-0.844l0.423-0.737l0.526-1.403l0.122-0.228l0.171-0.429l0.201-0.868l1.565-1.411l0.787-0.616l0.227-0.357l0.05-0.625
		l0.129-1.005l-0.016-1.387v-0.017l0.275-1.815l0.389-1.104l0.309-1.29l0.179-0.803l0.86-0.939l0.858-0.018l1.12-0.016l0.892-0.017
		l0.827,0.122l0.705,0.17l0.414-0.681l0.275-0.431l0.324-0.543l0.86-0.794l0.146-0.082l0.925-0.121l1.144,0.057h0.057l1.281,0.544
		l0.171,0.031l0.275,0.065l1.095,0.243l1.151,0.243l1.639-0.179l1.199-0.3l0.714-0.121l0.852-0.13l0.941-0.154l1.013-0.153
		l0.601-0.836l0.39-1.07l-0.949-1.298l-0.94-0.908l-0.949-1.021l-0.243-1.209l-0.251-0.794l0.072-0.154l0.552-1.241l-0.049-0.438
		l0.438-1.151l-1.898,0.219l-0.746-0.049l-0.859-0.065l-0.746-0.308l-1.208-0.665l-0.316-1.379l-0.13-0.933l0.633-2.084l0.041-1.306
		l0.016-0.227l-1.095-0.471l-1.136-0.479l-1.451-1.104l-0.512-1.8l0.179-0.729l-0.364-0.454l0.024-0.349l-0.438-0.252l-0.332-0.211
		l-0.479-0.519l-0.697-0.592l-0.642-0.552l-0.818-0.625l-1.249-0.43l0.292-0.924l0.438-0.706l0.365-0.584l0.315-0.413l-0.08-0.69
		l0.211-1.216l0.186-1.022l0.065-0.372l0.009-0.105l0.965-1.2l0.511-0.098l0.681-0.016l0,0l1.314-0.017l1.589-0.616l0.665-0.697
		l0.511-0.73l0.544-0.94l0.113-0.859l-0.04-0.243l-0.122-1.233l1.103-1.873l0.309-0.771l0.884-0.981l-0.17-0.682l-0.592-0.94
		l-0.697-1.216l0.138-1.874l0.081-0.722l0.121-1.159l0.17-1.176l1.533-0.73l0.39-0.689l0.267-0.867l0.446-0.697l0.382-0.592
		l0.179-0.252l1.021-0.187l1.28,0.316L150.475,9l3.025-0.356l0.956-0.316l1.29-0.13l1.564-0.146l0.764-0.414l0.989-0.396
		l-0.05-0.163l0.512-0.308l-0.641-0.682l0.081-0.844l0.154-0.843l0.511-1.095l0.778-0.641l1.184-0.771V1.296l0.009-0.762v-1.111
		l-1.468-1.038l-1.428-1.176l-1.509-1.347l-0.648-2.262l-0.867-1.469l0.17-1.021l0.129-0.827l0.212-1.476l0.179-1.273l0.194-1.338
		l0.129-0.827l1.07-1.266l0.601-1.557l0.471-0.73l0.908-1.451l1.135-1.679l1.006-1.436l0.017-0.024l0.925-1.257l-0.235-1.119
		l-1.208-1.387l-0.017-0.657l-1.104-4.322l-1.476-1.11l-1.46-0.568l-1.069-0.413l-1.987-0.414l-0.463-1.436l-0.17-0.811
		l-0.763-0.657l0.017-1.719l0.771-1.266l1.232-0.681l1.59-0.43l1.37-0.933l0.755-0.511l1.118-0.779l0.682-0.592l1.087-0.656
		l1.021-0.35l0.584-0.867l-0.803-0.689l-0.446-0.567v-0.009l-1.581-1.427L158.106-49l-8.839-4.192l-1.266,0.689l-0.697-0.438
		l-1.589-0.309l-0.974-0.211l-1.208-0.26l-1.549-1.856l-0.86-1.022l0.243-1.038l-0.323-1.127v-0.009l-0.455-0.485l-0.292-0.106
		l-0.17-0.21l-0.867-0.495l-1.688-0.3l-1.971-0.195l-1.792-0.965l-0.933-0.511l-1.395-1.387l-0.803-0.795l-0.698-0.494l-1.199-0.86
		l-0.804-0.56l-1.208-1.711l-1.151-1.549l-0.706-1.338l-0.511-1.054l-0.763-0.706l-0.438-1.411l-0.552-1.322l-0.883-0.364
		l-0.738-0.893l-1.866-0.519l-1.265-0.187l-1.565-0.252l-0.826-0.243l-1.72-0.527l-0.754-0.656l-0.017-0.017l-0.714-0.714
		l-0.608-0.519l-0.867-0.592l-0.738-0.544h-0.008l-1.029-1.379l-0.253-0.665l-0.632-0.372l-0.341-0.73l-0.154-0.762l-0.356-1.249
		l-0.17-0.689l-0.179-0.812l1.703-1.459l0.583-0.893l1.079-0.803l1.257-0.04l0.9-0.025l0.705-0.234l1.736-0.592l0.705-0.324
		l0.786-0.949l0.926-0.859l0.502-0.625l1.128-1.517l1.565-0.713l0.615-0.463l0.195-0.486l0.08-0.357l-0.259-1.8l0.032-0.194
		l0.113-0.803l0.585-0.998l0.965-0.9l0.656-0.641l0.471-0.697l0.356-0.608v-0.016l-0.503-1.144l-0.08-1.517l0.519-0.519l0.689-0.56
		l0.041-0.105l0.308-1.144l-0.122-1.387l0.511-1.225l0.552-0.917l0.519-0.705l0.763-1.006l0.39-0.811l0.291-0.917l0.018-0.268
		l0.072-0.746h0.008l0.26-0.965l0.171-1.792l0.786-1.33l0.268-0.714l0.446-1.11l0.664-0.35l0.099-0.803l0.956-1.184l0.454-0.349
		l0.049-0.43l-0.178-1.087l0.876-0.925l0.518-1.021l0.146-0.746l0.211-0.706l1.735-5.692l-0.616,0.138l-1.217-0.113l-1.557,0.13
		l-0.682,0.154l-0.696,0.08l-1.249,0.081l-0.925-0.016l-1.021-0.316l-1.258-0.535l-0.737,0.041l-0.747,0.008l-1.265-0.689
		l-0.422-0.584l-0.794-0.544l-1.192,0.868l-0.957,0.763l-0.884,0.503l-1.906-0.122l-0.511-0.503l-0.6-0.543l-1.015-0.714
		l-0.957-0.616l-1.11-0.462l-1.646-0.365l-1.136,0.243l-0.787,0.252l-0.567,0.583l-1.054,0.917l-0.933,0.697l-0.528,0.422
		l-1.59,1.208l-0.599,0.438l-0.795,0.527l-0.585,0.916l-0.511,0.893l-1.005,0.948l-0.544,0.406l-1.07-0.397l-0.6-0.39l-0.811-0.502
		l-0.195-1.038l-0.593-0.763l-0.526-0.697l-1.07-0.495l-0.665-0.502l-0.178-1.396l0.227-0.843l-0.032-1.436l-0.989-1.062
		l-0.763-0.827l-0.958-0.341l-0.745-0.268l-1.654-0.552l-0.682,0.032l-1.816,0.049l-0.471,0.543l-0.859,0.747l-1.979,0.315
		l-1.046-0.162l-1.452-0.421l-0.795-0.228l-0.745-0.859l-0.86-0.957l-0.86-0.397l-1.216,0.665l-0.324,1.014l0.179,1.395l0.259,0.949
		l0.146,1.144l-1.167,0.503l-0.65,0.268l-0.818,1.062l-0.835,0.997l-0.275,0.697l-0.31,0.827l-0.924,0.219l-0.024,0.917l0.171,1.411
		l-0.601,0.924v0.057l0.081,0.981l-0.032,0.065v0.008l-0.017,0.041l-0.146,0.656l-0.105,0.252l-0.203,0.511l-0.081,0.227h-0.017
		l-0.397,0.844l-0.51,1.273l-0.235,1.046l-0.219,0.811l-0.17,0.195l-0.512,1.387l-1.379,2.141l-1.59,0.065l-0.592,1.54l-0.681,1.038
		l-0.202,0.722l-0.908,1.347l0.567,0.413l0.939-0.47l1.233-0.154l0.941,0.511l0.826,0.795l0.179,0.446l0.065,0.081l0.795,1.135
		h0.023l0.397,0.301l0.601,0.754l0.146,0.275l0.082,0.098l1.329,2.847l0.494,0.462l-0.023,0.024l0.057,0.057l-0.332,0.26h-0.009
		l-1.289,1.484l0,0l-0.049,0.057v0.008l-0.519,1.119l-0.698,1.127l-0.016,0.113l-0.171,0.941l0.049,1.086l-0.251,1.071l-0.138,0.138
		l-0.065,0.26l-0.584,1.184l-1.29,0.26l-0.786,0.081l-0.511,0.341l-0.373,1.013l-0.519,1.136l-0.925,0.405l-1.492,1.006l-0.52,0.852
		l-0.729,0.154l-0.827,0.479l-0.892,0.129l-0.941,0.495l-0.633,0.535l-1.337-0.494l-0.852-0.52l-1.241,0.162l-0.884-0.519
		l-1.209-0.114l-0.867-0.008l-0.608-0.324l-1.062,0.203l-0.714-0.763l-1.136,0.43l-0.178,0.697l-0.535,0.836l-0.99,0.648
		l-1.191,0.641l-3.576,2.433l-2.417,1.354L38.4-88.713l-1.767,1.371l-0.869,0.446l-0.737,0.292h-0.656l-1.42,0.064l-1.103,0.584
		l-2.96,2.717l-1.882,0.705l-1.946,0.049l-0.162,0.843l-0.341,1.071l0.194,0.997l-1.118,0.795l-1.882,1.89l-1.837,0.859
		l-1.719,1.606l-1.046,1.046l-1.983,2.766l-1.638,1.159l-1.545,1.103l-0.333,0.674l-0.255,1.005l-0.523,1.525l-0.905,1.208L8.14-62
		l-0.706,0.755l-0.016,0.032l-0.442,1.07l-0.065,0.706L6.862-58.69l-0.094,1.167l-0.133,1.72L6.46-53.889l-0.057,0.714l-0.093,1.199
		l-0.13,1.266L6.08-49.422l-0.065,0.828l-0.118,1.387l-0.093,0.826l-0.057,0.812l0.19,0.9l0.251,1.225l0.264,1.135l0.158,1.671
		l0.356,0.812l0.199,0.097l1.78,1.249l1.544,0.763l1.379,0.559l-1.399,0.771l-1.569,1.191l-0.714,0.535l-1.825,1.249l-1.812,0.032
		l-1.869,0.033l-2.206,0.161l-1.829,0.139l-1.942,1.014l-1.021,0.527l-0.981,1.249l-0.682,1.167l-0.863,1.484l-0.548,1.687
		l-0.114,0.495l-0.158,0.592l0.215,0.819l0.349,1.281l1.03,1.402l1.792,2.02l1.213,0.836l-0.174,1.41l-0.823,0.438l-0.661,0.349
		l-2.153,1.111l-0.665,0.349l-0.016,1.792l-0.017,1.2l-0.048,2.911L-7.63-7.559l-0.158,0.697l-0.073,0.138l-0.276,0.495l-0.442,1.11
		l-0.507,1.104L-8.7-2.434l-0.008,0.009l-1.82,1.694l-0.904,0.852l-0.15,0.243l-0.515,0.981l-0.166,0.26L-12.2,2.1l-0.503,1.135
		l-0.101,1.249l0.024,0.04l-0.531,0.893l-1.111-0.26l-1.971-0.471l-0.872-0.21l-1.578-0.738l-1.403-1.038l-1.464-0.763h-1.941
		l-0.682-0.008l-1.703-0.024l-1.387-0.228l-1.991-0.349l-1.188,0.689l-0.571,0.341l-0.515,0.762l-0.88,0.649l-0.6,0.6l-0.491,0.917
		l-1.03,0.479l-0.174,1.11l-0.677,1.29l-1.265,0.868l-0.863,0.664l-0.961,0.738l-0.697,0.592l-0.924,0.771l-0.491,1.598
		l-0.515,1.573l-1.293,0.779l0.466,0.811l0.863,1.598l0.564,1.297l-0.175,1.525l-1.03,0.876l-0.888,0.843h-0.008l-1.562,1.452
		l-2.25,0.648l-0.924,0.333l-1.192,1.751l-0.515,0.804l-0.109,1.816l0.738,1.533l-0.382,1.823l0.3,1.29l0.296,1.289l-0.689,1.841
		l-0.175,0.868l-0.073,0.113l0.771,1.995l-2.214,0.389h-0.052l-0.231,0.422l-2.733,0.113l-4.509,0.828l-0.722,0.697l-0.823,1.347
		l-0.864,1.768l-0.397,1.119l-1.03,1.297l-1.322,0.357l-1.642,0.243l-1.436,0.098l-2.209,0.138l-1.545,0.008l-1.428,0.082
		l-1.561,0.655l-1.107,1.363l-0.357,0.17l-2.923,1.127l1.281,3.293l-0.401,2.173l-0.231,1.299l-5.125,4.508l-7.282,6.383
		l-3.487,5.563l-3.969,3.121l-1.57,0.454l-3.13,0.901l-6.321,2.238l-4.866,3.179l-6.427,4.2l-5.802,6.059l-0.673,2.116l-1.265,4.12
		l1.338,2.902L-124.96,106.13"/>
</g>
<g id="Layer_1_1_">
</g>
</svg>
