<?xml version="1.0" encoding="iso-8859-1"?>
<!-- Generator: Adobe Illustrator 16.0.4, SVG Export Plug-In . SVG Version: 6.00 Build 0)  -->
<!DOCTYPE svg PUBLIC "-//W3C//DTD SVG 1.1//EN" "http://www.w3.org/Graphics/SVG/1.1/DTD/svg11.dtd">
<svg version="1.1" xmlns="http://www.w3.org/2000/svg" xmlns:xlink="http://www.w3.org/1999/xlink" x="0px" y="0px"
	 width="31.214px" height="35.438px" viewBox="0 0 31.214 35.438" style="enable-background:new 0 0 31.214 35.438;"
	 xml:space="preserve">
<g id="Layer_127">
	<g id="Layer_132">
		<path id="Kech" style="fill:#CCCCCC;stroke:#FFFFFF;stroke-width:1.07;" d="
			M17.812,31.301L17.812,31.301l-0.08-0.545l0.025-0.172l0.111-0.236l0.27-0.229l0.75-0.513l0.27-0.26l0.361-0.186l0.446-0.252
			l0.1-0.111l0.399-0.311l0.197-0.271l0.039-0.279l-0.031-0.85l0.103-0.408l0.218-0.24l0.207-0.396l0.146-0.254l0.301-0.322
			l0.307-0.244l0.463-0.282l0.641-0.291l0.566-0.351l0.338-0.308l0.207-0.411l0.012-0.124l-0.004-0.077l-0.09-0.027l-0.144-0.01
			l-0.303-0.018l-0.292-0.143l-0.21-0.271l-0.224-0.207l-0.551-0.252l-0.576-0.161l-0.475-0.228l-0.33-0.188l-0.344-0.109
			l-0.271-0.08l-0.149-0.148l-0.083-0.213l-0.122-0.273l-0.17-0.179l-0.343-0.094l-0.24-0.175l-0.104-0.243l-0.145-0.351
			l-0.159-0.304l-0.112-0.429l-0.101-1.141l-0.108-1.248l-0.158-0.597l-0.229-0.594l-0.188-0.487l-0.194-0.316l-0.183-0.396
			l-0.123-0.272l-0.017-0.293l0.123-0.346l0.306-0.263l0.323-0.261l0.377-0.249l0.585-0.365l0.461-0.345l0.582-0.248l0.281-0.043
			l0.194-0.024l0.161,0.024l0.224,0.16l0.172,0.226l0.21,0.254l0.273,0.128l0.162,0.01l0.105-0.021l0.025-0.188l-0.016-0.262
			l0.188-0.133l0.212-0.039l0.16-0.007l0.201,0.101l0.369,0.231l0.279,0.22l0.25,0.33l0.23,0.301l0.162,0.364l0.033,0.276
			l0.119,0.229l0.221,0.114l0.237,0.13l0.214,0.006l0.172-0.1l0.1-0.159l-0.042-0.433l0.098-0.174l0.156-0.068l0.192-0.055
			l0.256,0.099l0.152,0.194l0.146,0.396l0.155,0.582l0.131,0.103l0.199,0.069l0.215,0.022l0.32-0.014l0.241-0.119l0.388-0.078
			l0.572-0.229l-0.288-0.094l-0.17-0.253l0.025-0.273l0.012-0.328L27.902,13l-0.066-0.332l-0.104-0.349l-0.196-0.435l-0.185-0.201
			l-0.087-0.299l-0.012-0.264l0.043-0.166l0.099-0.113l0.192-0.078l0.496-0.121l0.591-0.037l0.346-0.143l0.386-0.205l0.25-0.159
			l0.102-0.214l0.042-0.146l-0.052-0.184L29.617,9.42l-0.355-0.172L28.99,9.156l0.383-0.324l0.117-0.097l0.401-0.123l0.229-0.045
			l0.414,0.157l0.09,0.123l0.049-0.403L30.56,7.746l-0.192-1.244L30.182,5.52l-0.113-0.646l-0.145-0.699l-0.107-0.49L29.687,3.4
			l-0.245-0.148l-0.24-0.045l-0.271,0.006l-0.176,0.109l-0.198,0.316L28.26,3.725L28.05,3.73l-0.513-0.09l-0.418,0.012l-0.328,0.035
			l-0.567,0.068l-0.479,0.012l-0.42-0.065l-0.277-0.2L24.92,3.297l-0.193-0.358l-0.369-0.274l-0.132-0.283l0.022-0.209l-0.012-0.363
			l0.041-0.469l0.107-0.343l0.049-0.312l-0.095-0.129l-0.181-0.021l-0.24,0.007L23.57,0.864l-0.285,0.397l-0.381,0.244l-1.088-0.217
			l-0.092,0.076l-0.238,0.082L21.248,1.5l-0.355,0.174l-0.386,0.266l-0.5,0.433L19.69,2.666L19.56,2.781l-0.364,0.27l-0.518,0.302
			l-0.503,0.254L17.736,3.75l-0.371,0.062l-0.409,0.018l-0.75,0.003L16.011,3.84l-0.302,0.014l-0.229,0.04l-0.565,0.411L14.68,4.454
			l-0.343,0.341l-0.099,0.145l-0.057,0.25l-0.028,0.125L14.164,5.5l0.171,0.18l0.243,0.5v0.184l0.006,0.107l-0.068,0.063
			l-0.14,0.054l-0.158,0.037l-0.106,0.021l-0.12,0.082l-0.078,0.205l-0.06,0.498L13.776,7.93l-0.101,0.408l-0.072,0.28l-0.096,0.206
			l-0.203,0.18l-0.511,0.1L12.168,9.1l-0.854,0.008l-0.61-0.064l-0.18,0.014l0.176,0.58l0.208,0.812l0.109,0.646l0.022,0.387
			l0.005,0.695l-0.054,0.592l-0.094,0.515l-0.305,0.571l-0.152,0.424l-0.201,0.521l-0.017,0.311l-0.119,0.747l-0.224,1.03
			l-0.231,0.6L9.42,17.84l-0.569,0.908l-0.517,0.875L7.756,20.36l-0.553,0.847l-0.896,1.186l-0.723,0.977l-0.508,0.704l-0.603,0.896
			l-0.368,0.666l-0.649,1.019l-0.635,0.942l-0.199,0.227l-0.526,0.766l-0.352,0.621L1.471,29.67l-0.348,0.683L0.9,30.78
			l-0.107,0.269l-0.139,0.332L0.549,31.68l0.03,0.201l0.024,0.012l0.086,0.045l0.194-0.01l0.272-0.184l1.008-0.898l1.174-1.09
			l0.502-0.488l0.328-0.139l0.332-0.078l0.212-0.01l0.484,0.086l0.558,0.146l0.602,0.281l0.449,0.217l0.239,0.158l0.119,0.213
			l0.05,0.244l0.011,0.186l-0.07,0.312l-0.12,0.36L6.897,31.67l-0.403,0.67l-0.478,0.594l-0.562,0.676l-0.42,0.67l-0.026,0.154
			l0.012,0.201l0.078,0.121l0.237,0.112l0.268,0.033l0.935-0.043l0.599-0.058l0.698-0.155l0.722-0.063l0.648-0.121l0.487-0.132
			l0.468-0.176l0.474-0.067l0.39-0.002l0.428,0.059l0.876,0.146l0.639,0.034l0.77,0.149l0.676,0.08l0.423,0.043l0.424-0.018
			l0.243-0.089l0.114-0.175l0.073-0.592l-0.012-0.2l0.083-0.112l0.125,0.025l0.186,0.146l0.144,0.041l0.123-0.021l0.116-0.129
			l0.007-0.201l0.075-0.235l0.267-0.29l0.472-0.424l0.318-0.307l0.196-0.287l0.061-0.189L17.812,31.301"/>
	</g>
</g>
<g id="Layer_1">
</g>
</svg>
