<?xml version="1.0" encoding="utf-8"?>
<!-- Generator: Adobe Illustrator 16.0.4, SVG Export Plug-In . SVG Version: 6.00 Build 0)  -->
<!DOCTYPE svg PUBLIC "-//W3C//DTD SVG 1.1//EN" "http://www.w3.org/Graphics/SVG/1.1/DTD/svg11.dtd">
<svg version="1.1" id="Layer_1" xmlns="http://www.w3.org/2000/svg" xmlns:xlink="http://www.w3.org/1999/xlink" x="0px" y="0px"
	 width="301.343px" height="341.465px" viewBox="-128.274 -145.546 301.343 341.465"
	 style="enable-background:new -128.274 -145.546 301.343 341.465;" xml:space="preserve">
<g id="Layer_62">
	<path id="Khushab" style="fill:#CCCCCC;stroke:#FFFFFF;stroke-width:1.15;" d="M-21.303,189.711L-21.303,189.711l1.929-2.815
		l0.854-1.297l1.564-1.421l2.216-1.545l1.353-1.244l1.255-1.48l0.427-0.625l-0.014-0.926l-0.153-1.042l0.209-1.167l0.353-0.736
		l0.087-1.355l0.16-2.946l0.16-1.277l0.749-3.023l1.262-2.165l1.421-1.791l1.707-1.669l2.311-2.105l1.254-1.668l1.421-1.597
		l1.854-1.916l1.711-1.845l2.007-1.499l1.669-1.407l2.643-2.478l2.415-2.854l1.789-2.528l1.99-2.789l2.135-3.337l1.128-2.145
		l1.241-1.467l0.955-1.473l0.573-0.743l0.287-0.176h0.502l0.947,0.548l2.021,1.343l2.174,1.271l1.955,1.336l2.092,0.547l1.52,0.059
		L34.403,134l1.499-0.625l1.01-0.312l0.646-0.678l0.495-0.99l0.978-2.152l0.769-1.355l0.573-1.29l0.958-1.186l0.854-0.729
		l0.938-0.743l0.353-0.431l0.144-0.736v-0.489l0.208-0.547l0.286-0.312l0.652-0.249l0.925-0.429l0.724-0.379l0.502-0.371
		l0.287-0.489l-0.065-0.547l-0.188-0.183l-0.333-0.065l-0.417-0.098l-0.208-0.229l-0.014-0.495l0.098-0.652l0.273-0.689l0.411-0.353
		L47.738,116l1.068-0.248l0.535-0.215l0.3-0.307l0.144-0.241l-0.111-0.397l-0.411-0.411l-0.43-0.436l-0.248-0.339l0.026-0.274
		l0.248-0.195l0.488-0.149h0.906l1.043,0.11l0.964,0.339l0.927,0.111l0.716-0.124l0.392-0.137l0.137-0.307l0.085-0.391l0.065-0.438
		l0.143-0.353l0.665-0.455l0.144-0.359l0.026-0.521l-0.222-0.691l-0.6-0.69l-0.092-0.333v-0.261l0.268-0.547l0.098-0.548
		l-0.13-0.463l-0.379-0.508l-0.482-0.3l-0.612-0.261l-0.56-0.208l-0.411-0.287l-0.222-0.326l-0.098-0.325l0.064-0.456l0.17-0.711
		l-0.137-1.062l-0.137-0.912l-0.261-0.378l-0.209-0.561l-0.006-0.573l0.059-0.45l0.3-0.234l0.586-0.007l0.587,0.234l0.951,0.184
		l0.691,0.097l0.586,0.124l0.535,0.325l0.625,0.562l0.874,0.547l0.495,0.209l0.495,0.026l0.775-0.104l0.372-0.169l0.247-0.326
		l0.013-0.385l-0.247-1.043l-0.026-0.358l0.183-0.261l0.417-0.554l0.457-0.516l0.247-0.391l0.052-0.639l-0.156-0.978l-0.215-0.6
		l-0.222-0.235l-0.612-0.078l-0.606-0.064l-0.704-0.117l-0.404-0.156l-0.287-0.262l-0.409-0.547l-0.229-0.672l-0.177-0.684
		l0.06-0.86l0.117-0.521l-0.144-0.41l-0.391-0.28l-0.626-0.613l-0.561-0.729l-0.566-0.951l-0.339-0.809l-0.137-0.938l-0.262-1.199
		l-0.183-0.573l-0.222-0.261l-0.717-0.208l-0.651-0.184l-0.69-0.234l-0.137-0.28l-0.189-0.521l-0.064-0.567l0.13-0.353l0.261-0.13
		l0.69-0.052l0.756-0.117l0.392-0.269l0.24-0.566l0.014-2.281l0.02-1.955l0.156-0.873l0.417-1.265l1.473-3.024l0.724-1.785
		l0.138-1.023v-0.593l-0.189-0.45l-0.749-0.449l-1.291-0.678L53.5,66.078l-0.9-0.183l-0.678-0.234l-0.339-0.489l-0.201-0.633
		l0.02-0.769l0.188-1.251L51.387,61.3l0.052-0.567l0.339-0.502l0.718-0.814L52.952,59l0.144-0.183l0.378-0.195l0.41-0.026
		l0.835,0.216l0.996,0.254l0.548,0.02l0.431-0.071l0.482-0.196l0.828-0.814l2.365-0.547l2.255,0.201l0.612-0.991l-0.6-0.833
		l-0.424-0.743l-0.019-0.685l0.155-0.489l0.327-0.365l0.332-0.247l0.658-0.092l1.591-0.078l1.225-0.221l0.775-0.463l0.319-0.365
		l0.163-0.763l-0.007-0.951l0.078-0.562l0.339-1.257l0.776-0.821l1.01-0.619l0.703-0.626l0.223-0.437l0.144-0.6l-0.027-0.476
		l0.065-0.195l0.144-0.326l0.509-0.385l0.091-0.371l0.326-0.476l0.208-0.41l-0.012-0.327l-0.065-0.442l-0.248-0.353l-0.418-0.352
		l-0.325-0.912l-0.014-1.447l0.652-1.258l0.156-1.036l-0.143-0.77l-0.092-0.873l-0.137-1.87l-0.15-2.132l0.111-1.173l0.247-0.665
		l0.502-0.685l0.417-0.479l0.255-0.603l0.137-0.459l-0.039-0.389l-0.079-0.381l-0.031-0.417l-0.04-0.417l0.125-0.397l0.169-0.757
		l0.038-0.459l-0.038-0.479l-0.053-0.584l-0.149-0.439l-0.711-1.942l-0.697-2.196l-0.293-1.307l0.064-1.209l0.477-1.522l0.697-2.146
		l0.548-1.33l1.506-2.874l1.309-2.386l0.365-0.994l0.431-1.968l0.156-2.153l-0.144-1.616l0.013-1.815l0.195-0.828l0.691-0.916
		l1.095-0.971l1.213-0.691l0.978-0.544l0.919-0.635l1.258-1.307l0.743-0.923l0.416-0.605l0.691-0.362l0.183-0.045l0.795-0.05
		l1.531,0.241l1.91,0.014l0.742-0.173l0.425-0.222l0.469-0.219l0.548-0.26l0.958-1.096l1.355-1.636l1.068-1.421l1.082-1.202
		l0.691-0.492l0.482-0.153l0.69-0.166l1.18-0.202l1.036-0.286l0.521-0.134l0.301-0.146l0.234-0.307l0.104-0.395l-0.078-0.74
		l0.117-0.133l0.58-0.421l1.284-0.954l0.417-0.316l0.312-0.013l0.235,0.143l0.286,0.212l0.326,0.206l0.352,0.016l0.352-0.022
		l0.301-0.11l0.332-0.28l0.697-0.368l0.729-0.235l0.443-0.059l0.919-0.056l0.724,0.056l0.69-0.039l0.431-0.062l0.339-0.12
		l0.364-0.439l0.216-0.594l-0.085-0.481l0.123-0.359l0.945-0.834l0.47-0.642l0.053-0.427l0.13-0.88l0.371-0.736l0.619-0.619
		l0.913-0.509l0.854-0.434l0.599-0.619l1.115-0.909l0.979-0.473l1.518-0.28l2.157-0.681l1.591-0.58l0.958-0.736l0.802-0.827
		l1.342-1.308l1.043-0.808l1.096-0.707l1.812-0.821l1.44-0.7l0.462-0.382l0.912-1.513l0.757-1.017l0.652-0.586l1.146-0.521
		l2.15-0.841l1.396-0.273l0.508,0.101l0.358,0.241l0.762,0.541l0.509,0.199l0.496-0.026l0.821-0.173l0.689-0.166l0.783-0.273
		l0.743-0.562l0.769-0.342l0.782-0.241l1.694-0.339l0.86-0.247l0.69-0.235l0.509-0.286l0.887-0.6l0.912-0.7l0.704-0.594l1.12-0.775
		l0.952-0.28l0.482-0.092l1.277-0.143l0.873-0.111l0.639-0.234l0.736-0.3l0.75-0.528l0.848-0.433l0.391-0.056l0.273-0.013
		l0.216,0.022l0.286,0.146l0.561,0.261l1.153,0.231l1.277,0.254l2.073-0.02l-1.903-4.49l-0.729-2.818l-0.105-0.848l-0.286-1.102
		l-0.418-1.134l-0.155-0.74l0.091-0.452l0.091-0.623l-0.091-0.661l-0.149-0.548l-0.137-0.358l-0.229-0.476l-0.359-0.707
		l-0.247-0.561l-0.417-0.694l-0.078-0.498l0.026-0.389l0.391-0.515l0.925-0.727l1.167-0.515l1.153-0.251l0.73-0.189l0.143-0.12
		l-0.045-0.212l-0.176-0.355l-0.417-0.791l-0.417-0.757l-0.534-1.349l-0.562-1.601l-0.521-1.156l-0.144-0.646l-0.065-0.6
		l-0.117-0.463l-0.248-0.434l-0.371-0.387l-0.476-0.46l-0.365-0.548l-0.169-0.541l-0.111-0.847l-0.02-1.209l-0.143-0.479
		l-0.262-0.502l-0.724-1.212l-0.384-0.961l-0.195-1.376l-0.287-1.234l-0.014-0.694l0.333-0.694l0.509-0.561l0.586-0.413l0.229-0.268
		l0.071-0.388l0.025-0.548l0.085-0.325l0.418-0.521l0.195-0.389l0.038-0.547l-0.155-0.645l-0.235-1.076l-0.424-1.58l0.75-4.865
		l0.222-4.132l-1.492,0.407l-4.061-0.062l-2.359-0.293l-2.594-0.28l-3.037-0.994l-1.544-1.401l-2.419-1.916l-3.193-2.187
		l-0.014-0.062l-0.339-3.451l-0.137-0.678l-0.449-0.482l-0.658-0.166l-0.697,0.101l-0.691-0.094l-0.605-0.516l-0.11-1.401
		l0.26-1.222l0.418-1.567l0.299-0.499l0.542-0.582l-0.02-0.421l-0.333-0.44l-0.463-0.407l-1.727-0.325l-1.767,0.013l-1.017-0.153
		l-0.704-0.247l-0.534,0.019l-0.887,0.482l-0.938,0.519l-0.495,0.056l-0.6-0.323l-0.234-0.371l0.039-0.381l0.462-0.548l0.711-0.975
		l0.873-1.473l0.404-1.496l-0.064-1.629l-0.274-0.942l-0.469-0.668l-0.979-0.694l-0.188,0.541l-0.463,0.438l-1.187,0.866
		l-1.251,0.606l-1.721,0.968l-1.03,2.184l-0.723,0.854l-1.336,1.114l-1.427,0.332l-1.311,0.05l-1.524-0.368l-1.812-0.368
		l-0.971,0.127l-0.711,0.293l-1.212,0.73l-1.955,1.534l-1.812,1.574l-1.187,1.248l-1.219,1.535l-1.531,1.12l-2.372,1.294
		l-0.64,0.707l-0.495,0.821l-0.47,1.782l-0.469,1.082l-0.651,0.333l-1.252,0.381l-1.564,0.268l-1.374-0.082l-0.496-0.547
		l-0.176-0.994l-0.065-0.613v-0.707l-0.247-0.455l-0.424-0.493l-1.33-0.446h-0.723l-0.646,0.166l-1.297,0.874l-1.017,0.095
		l-0.6-0.333l-0.411-0.87l-0.059-1.114l0.248-2.676v-1.075l-0.156-1.447l-0.353-0.622l-0.482-0.12l-0.534,0.042l-1.368,0.088
		l-0.848-0.074l-0.535-0.326l-0.417-0.541l-0.546-0.87l-0.444-1.319l-0.247-0.662l-0.646-0.407l-0.971-0.413l-1.487-0.447
		l-1.915-1.068l-1.316-1.606l-0.775-1.571l-0.137-0.983l-0.137-0.375l-0.737-0.127l-0.834,0.045l-0.729,0.089l-1.708,0.286
		l-3.624,0.554l-3.676,0.225l-2.75-0.025l-2.372-0.479l-2.934-0.609l-3.871-1.053l-3.937-0.642l-2.007-0.026l-1.662,0.421
		l-2.203,0.554l-1.258-0.032l-2.021-0.28l-4.313-1.007l-3.703-0.349l-3.793,0.107l-0.781-0.039l-0.548-0.414l-0.195-0.622
		l-0.137-0.789l-0.134-1.358l-0.254-0.662l-0.783-0.286l-1.254,0.045l-1.365,0.382l-0.476,0.413l0.007,0.867l0.146,1.114
		l0.434,1.737l0.413,1.899l0.694,1.984l0.509,2.108l0.14,1.522l0.14,1.28l0.007,0.955l-0.388,0.994l-0.933,0.746l-0.974,0.547
		l-0.534,0.46l-0.349,0.71l-0.098,0.619l-0.414,0.994l-0.775,0.877l-1.414,0.671l-2.018,0.414l-0.72,0.381l-0.333,0.375
		l-0.183,0.668l-0.524,0.612l-1.809,0.714l-2.018,0.509l-2.287,0.541l-1.362,0.378l-4.203,1.323l-1.255,0.381l-1.311,0.792
		l-2.342,1.668L-3.27-107.9l-1.121,0.961l-0.936,0.499l-2.134,0.681l-4.592,1.564l-5.986,1.76l-1.77,0.554l-2.189,0.721
		l-1.121,0.834l-0.821,0.961l-0.28,1.108l0.017,1.114l0.352,0.789l0.192,0.325l0.789,0.329l0.14,0.541l-0.14,0.254l-0.346,0.287
		l-1.069,0.258l-1.261,0.14l-1.616-0.11h-1l-0.782,0.212l-1.121,0.753l-0.912,0.749l-0.389,1.434l-0.414,2.062l-0.101,0.874
		l-0.326,0.202l-0.413,0.414l-1.108,0.639l-0.7,0.299l-1.255,0.114l-1.069-0.006l-0.792-0.226l-0.801-0.413l-0.362-0.343
		l-0.212-0.746l-0.049-0.681l-0.084-0.562l-0.222-0.339l-0.312-0.267l-0.535-0.156l-0.567-0.032l-0.166,0.074l-0.58,0.339
		l-0.635,0.229l-1.014,0.113l-1.157-0.195l-1.528-0.225l-1.372-0.267l-1.254-0.496l-0.896-0.3l-0.632-0.228h-0.629l-0.319,0.113
		l-0.268,0.229l-0.361,0.639l-0.166,1.017l-0.223,1.28l-0.479,0.714l-0.893,0.447l-2.239,0.603l-3.128,0.899l-1.202,0.332
		l-1.428,0.114l-1.108-0.033l-0.746-0.074h-0.427l-0.176,0.222l0.049,0.374l0.141,0.639l-0.107,0.942l-0.134,1.17l-0.102,0.264
		l-0.212,0.411l-0.322,0.306l-0.479,0.147l-0.268,0.225l-0.102,0.342l-0.059,0.414l0.166,0.753l0.056,0.488l-0.322,0.6l-0.527,0.446
		l-0.933,0.675l-1.343,0.561l-1.274,0.414l-0.681,0.3l-0.414,0.3l-0.261,0.449l-0.166,0.492l-0.062,0.535l-0.307,0.341l-0.371,0.111
		l-0.368,0.146l-0.216,0.189l-0.212,0.146l-0.215,0.072l-0.534-0.147l-0.792-0.267l-0.795-0.186l-0.688,0.071l-0.407,0.114
		l-0.268,0.228l-0.173,0.375l0.046,0.473l0.316,1.013l0.046,0.604l-0.108,0.746l-0.261,0.453l-0.534,0.414l-0.411,0.527
		l-0.101,0.489l0.141,0.446l0.319,0.453l0.521,0.375l1.121,0.146l0.948,0.114l0.365,0.225l0.355,0.495l0.18,0.413l0.042,0.682
		l0.257,0.6l0.274,0.381l0.31,0.147h0.365l0.413-0.189l0.427-0.3l0.323-0.032h0.434l0.573,0.268l0.479,0.566l0.408,0.382
		l0.527,0.146h0.485l0.802,0.04l0.427,0.267l0.209,0.453l0.02,0.329l-0.222,0.492l-0.14,0.636l0.14,0.534l0.636,0.561l0.974,0.906
		l0.368,0.228h0.532l0.896-0.075l0.58,0.043l0.421,0.371l0.267,0.714l-0.14,0.975l0.052,0.795l0.14,0.714l0.368,0.756l0.401,0.746
		l-0.046,0.381l-0.361,0.372l-0.629,0.261l-0.678,0.228l-0.144,0.3l0.049,1.248l0.095,1.574l-0.056,0.57l-0.453,0.554l-1.255,1.219
		l-4.005,3.37l-2.809,2.085l-1.604,1.646l-2.962,3.092l-3.15,3.448l-5.025,5.653l-3.478,3.81l-5.692,6.106l-0.694,0.717v0.287
		l0.088,0.358l0.414,1.007l1.694,4.598l0.254,0.936l-0.088,0.229l-0.694,0.28l-1.788,0.498l-0.6,0.222l-1.369,1.281l0.623,1.449
		l0.778,4.791l1.75,6.061l0.319,3.517l0.668,0.479l1.528,0.202l1.6,0.255l0.955,0.146l0.987,0.219V10.8l0.329,1.135l0.948,1.655
		l1.58,1.841l0.669,0.707l1.395,1.477l0.925,0.919l0.851,0.968l0.652,0.987l0.3,0.856l-0.059,0.919l-0.134,1.096l-0.101,0.642
		l-0.3,0.739l-0.333,0.668l-0.134,0.619l-0.247,2.19l-0.496,2.392l-0.071,1.199l-0.166,1.969l-0.141,3.636l-0.062,2.646l0.049,1.108
		l0.212,1.616l-0.052,1.355l-0.195,1.349l-0.447,1.284l-0.479,0.808l-1.202,1.564l-2.021,2.229l-1.831,1.649L-89,53.943l-1.896,1.53
		l-0.975,0.919l-1.635,1.786l-1.49,1.708l-0.886,1.068l-0.548,0.495l-0.886,0.482l-0.496,0.404l-0.332,0.364l-0.033,0.392
		l0.258,0.795l0.449,0.736l0.64,1.134l0.86,1.584l0.361,0.979l0.081,1.146l-0.169,1.186l-0.479,1.564l-0.6,1.082l-0.674,0.991
		l-0.463,0.456l-0.333,0.495l-0.414,0.69l-0.827,0.796l-0.626,0.638l-0.603,0.613l-0.319,0.756l-0.4,0.86l-0.333,0.417l-0.241,0.339
		l-0.72,1.245l-0.694,0.997l-0.355,0.548l-0.218,0.495l-0.176,0.561l-0.192,0.834l-0.215,0.926l-0.372,1.277l-0.375,0.814
		l-0.479,0.606l-0.209,0.339l-0.808,0.859l-1.326,0.835l-1.102,0.632l-1.362,0.488l-0.727,0.17l-1.329,0.104l-0.806,0.039
		l-0.935,0.144l-1.108,0.274l-0.701,0.24l-0.553,0.268l-0.884,0.749l-1.528,1.584l-0.619,0.756l-0.534,0.834l-0.887,1.551
		l-0.714,1.454l-0.642,1.12l-0.026,0.503l0.107,0.332l0.606,0.496l1.708,0.625l3.578,1.121l2.864,1.192l1.033,0.482l3.457,1.33
		l2.415,0.866l2.551,1.049l1.428,0.581l1.521,0.449l1.968,0.509l1.408,0.612l0.841,0.613l0.329,0.534l0.691,1.446l0.844,2.411
		l0.739,2.386l0.707,1.395l0.694,1.486l0.894,1.538l1.254,1.414l1.255,1.414l1.297,1.649l0.626,0.696l0.107,0.372l0.039,0.261
		l-0.026,0.332l-0.186,0.379l-0.3,0.743l-0.146,0.572l-0.056,0.438l0.14,0.411l0.255,0.364l0.306,0.392l0.007,0.261l-0.053,0.781
		l0.072,0.92l0.056,1.739l0.24,1.942l0.281,2.046l0.326,1.93l0.218,1.134l0.163,0.899l0.639,1.017l0.821,1.213l1.463,1.055
		l1.874,1.369l1.02,0.77l1.698,0.887l2.108,1.068l1.561,0.626l1.789,0.534l1.528,0.534l0.339,0.287l0.141,0.325l0.106,0.743
		l0.095,0.417l0.16,0.353l0.655,0.469l1.766,1.004l0.909,0.534l1.669,1.004l1.114,0.704l1.349,0.912l1.969,1.714l2.46,1.975
		l0.724,0.926l0.14,0.352l0.274,0.522l0.312,0.611l0.561,0.535l0.662,0.261l1.453,0.332l2.323,0.254l1.421,0.418l1.427,0.488
		l1.056,0.613l0.969,0.469l0.986,0.254l1.089,0.346l1.268,0.697l1.141,0.685l1.255,0.724l1.528,1.198l1.068,0.913l0.906,1.114
		l0.749,0.854l0.506,0.847l0.476,1.199l0.186,0.912l0.16,1.317l0.14,1.537l0.159,0.503l0.414,0.521l0.815,0.658l1.081,0.73
		l1.562,0.964l1.857,0.861l2.574,1.29l1.121,0.488l1.215,0.41l2.61,0.979L-21.303,189.711"/>
</g>
<g id="Layer_1_1_">
</g>
</svg>
