<?xml version="1.0" encoding="iso-8859-1"?>
<!-- Generator: Adobe Illustrator 16.0.4, SVG Export Plug-In . SVG Version: 6.00 Build 0)  -->
<!DOCTYPE svg PUBLIC "-//W3C//DTD SVG 1.1//EN" "http://www.w3.org/Graphics/SVG/1.1/DTD/svg11.dtd">
<svg version="1.1" xmlns="http://www.w3.org/2000/svg" xmlns:xlink="http://www.w3.org/1999/xlink" x="0px" y="0px"
	 width="38.119px" height="46.012px" viewBox="0 0 38.119 46.012" style="enable-background:new 0 0 38.119 46.012;"
	 xml:space="preserve">
<g id="Layer_90">
	<g id="Layer_95">
		<path id="Mianwali" style="fill:#CCCCCC;stroke:#FFFFFF;stroke-width:1.07;" d="
			M27.219,44.637L27.219,44.637l-0.047-0.527l-0.262-0.908l-0.117-0.718L26.7,42.266l0.205-0.191l0.09-0.033l0.267-0.074
			l0.102-0.043l0.015-0.033l-0.038-0.139l-0.254-0.689l-0.063-0.151l-0.012-0.054v-0.043l0.102-0.107l0.853-0.914l0.521-0.572
			l0.753-0.846l0.472-0.518l0.444-0.463l0.242-0.247l0.42-0.312l0.598-0.506l0.191-0.183l0.069-0.083l0.006-0.086l-0.013-0.235
			l-0.007-0.187l0.021-0.045l0.1-0.035l0.095-0.038l0.053-0.056l0.007-0.058l-0.06-0.112L31.823,35.1l-0.02-0.107l-0.007-0.119
			l0.021-0.146l-0.04-0.106l-0.065-0.056l-0.087-0.006l-0.134,0.011h-0.08l-0.053-0.034l-0.146-0.136l-0.095-0.084l-0.019-0.08
			l0.02-0.095l0.034-0.074l-0.002-0.049l-0.033-0.068l-0.065-0.04l-0.12-0.006h-0.073l-0.08-0.022l-0.06-0.057l-0.073-0.084
			l-0.086-0.04h-0.067l-0.047,0.005l-0.065,0.045l-0.061,0.028h-0.054l-0.046-0.022l-0.041-0.057l-0.039-0.09l-0.006-0.102
			l-0.027-0.062l-0.053-0.074l-0.054-0.033L29.86,33.32l-0.167-0.021l-0.079-0.057l-0.047-0.068l-0.02-0.066l0.014-0.073l0.06-0.079
			l0.08-0.062l0.04-0.067l0.015-0.112l-0.007-0.09l-0.047-0.152l-0.006-0.071l0.027-0.056l0.04-0.035l0.06-0.016l0.101-0.012
			l0.12,0.027l0.12,0.041l0.079,0.021l0.033-0.011l0.033-0.022l0.033-0.027l0.054-0.022l0.054-0.017l0.046-0.051l0.008-0.08
			l0.026-0.073L30.569,32l0.062-0.045l0.101-0.045l0.192-0.062l0.2-0.084l0.141-0.1l0.08-0.068l0.047-0.09l-0.007-0.074
			l-0.026-0.112l0.007-0.062l0.015-0.051l0.04-0.035l0.072-0.021l0.047-0.045l0.033-0.062l0.015-0.039l0.021-0.174l0.014-0.142
			l-0.02-0.097l-0.007-0.056l0.025-0.034h0.067l0.113,0.012l0.166,0.006l0.214-0.018l0.18-0.05l0.467-0.135l0.334-0.09l0.135-0.067
			l0.072-0.107l0.034-0.191l0.026-0.152l0.054-0.096l0.04-0.033l0.047-0.018h0.093l0.095,0.033l0.133,0.045l0.187,0.074l0.206,0.041
			l0.229,0.033l0.173,0.029l0.153-0.018l0.094-0.033l0.087-0.051l0.026-0.012l0.085,0.004l0.079,0.023l0.048,0.04l0.032,0.051
			l0.014,0.084l0.006,0.103l0.033,0.111l0.053,0.051l0.12,0.062l0.12,0.034l0.16,0.001l0.187-0.018l0.107-0.045l0.166-0.096
			l0.061-0.062l0.048-0.029l-0.08-0.174l-0.04-0.033l-0.047-0.029l-0.133-0.011H35.89l-0.12-0.035l-0.093-0.058l-0.054-0.078
			l-0.047-0.096l0.015-0.08l0.033-0.123l0.08-0.119l0.095-0.118l0.054-0.142l0.021-0.174l-0.013-0.186l-0.033-0.096L35.7,28.355
			l-0.26-0.182l-0.173-0.164l-0.073-0.106l-0.024-0.135l0.021-0.181l0.061-0.299l0.048-0.232l0.015-0.155l-0.053-0.203l-0.066-0.103
			l-0.134-0.123l-0.232-0.192l-0.152-0.175l-0.054-0.107l-0.007-0.102l0.007-0.152l-0.046-0.188l-0.053-0.096l-0.067-0.09
			l-0.065-0.027l-0.133-0.019l-0.101-0.045l-0.04-0.079l-0.096-0.101l-0.087-0.068l-0.039-0.067l-0.027-0.073l0.001-0.05
			l0.026-0.047l0.027-0.026l0.038-0.028l0.128-0.027l0.228-0.039l0.2-0.045l0.121-0.045l0.071-0.041l0.056-0.062l0.04-0.119
			l0.055-0.354l0.048-0.276l-0.034-0.062l-0.032-0.028l-0.04-0.005l-0.086-0.012h-0.067l-0.062-0.017l-0.072-0.028l-0.066-0.057
			l-0.065-0.04l-0.04-0.023l-0.048-0.011l-0.046-0.011l-0.054-0.017l-0.04-0.017l-0.061-0.105l-0.08-0.13l-0.054-0.146l-0.025-0.181
			l0.021-0.124l0.04-0.057l0.087-0.079l0.095-0.084l0.061-0.062l0.007-0.057l-0.007-0.062l-0.053-0.062l-0.08-0.045l-0.12-0.062
			l-0.054-0.045l-0.04-0.057l-0.031-0.067l0.021-0.057l0.014-0.101l0.008-0.339l0.054-0.253l-0.025-0.152l-0.021-0.102v-0.095
			l0.047-0.09l0.102-0.096l0.208-0.158l0.074-0.056l0.06-0.017l0.147-0.006l0.112-0.028l0.102-0.04l0.187-0.084l0.121-0.118
			l0.102-0.102l0.062-0.066l0.086-0.045l0.062-0.011l0.113-0.017l0.046-0.039l0.041-0.096l0.066-0.096l0.108-0.124l0.174-0.13
			l0.208-0.123l0.188-0.141l0.182-0.118l0.188-0.073l0.208-0.084l0.188-0.039l0.152-0.067l0.095-0.039l0.04-0.034l0.008-0.084
			l-0.027-0.09l-0.039-0.096l-0.033-0.09V18.28l0.028-0.083l0.095-0.073l0.106-0.045L37.569,18l0.007-0.079l-0.025-0.079
			l-0.033-0.012l-0.062,0.006l-0.106,0.05l-0.086,0.022l-0.127,0.006l-0.128-0.029l-0.046-0.04v-0.04l0.007-0.045l0.04-0.051
			l0.061-0.095l0.054-0.107l0.008-0.119l-0.026-0.051l-0.087-0.023l-0.174-0.018l-0.12-0.017l-0.113-0.057l-0.153-0.13l-0.153-0.102
			l-0.221-0.102l-0.207-0.085l-0.189-0.048l-0.201-0.012l-0.261-0.045l-0.134-0.057l-0.127-0.091l-0.086-0.107l-0.008-0.118
			l-0.104-0.468l-0.039-0.299l-0.054-0.198l-0.146-0.169l-0.193-0.091l-0.102-0.061l-0.094-0.056l-0.026-0.062l-0.033-0.141
			l-0.02-0.198l-0.026-0.169l-0.08-0.152l-0.146-0.266l-0.119-0.406l-0.014-0.175l-0.014-0.271l-0.031-0.552l0.008-0.327
			l0.034-0.135v-0.135l-0.04-0.152l-0.08-0.096L33.451,11.6l-0.026-0.102l-0.006-0.073l-0.055-0.068l-0.105-0.062l-0.194-0.079
			l-0.273-0.153l-0.198-0.06l-0.214-0.012l-0.176-0.028l-0.127-0.051l-0.072-0.074l-0.055-0.102l-0.06-0.073l-0.128-0.057
			l-0.127-0.039l-0.154-0.023h-0.06l-0.088,0.034l-0.135,0.056l-0.128,0.045l-0.08,0.028h-0.088l-0.146-0.034l-0.274-0.068
			l-0.234-0.051l-0.167-0.045l-0.241,0.005l-0.277,0.039l-0.349,0.022l-0.229-0.023l-0.114-0.028l-0.128-0.091l-0.053-0.101
			l-0.025-0.141v-0.119l0.047-0.124l0.072-0.13l0.009-0.079L28.78,9.714L28.685,9.73l-0.32,0.034l-0.16-0.006l-0.099-0.062
			l-0.139-0.159l-0.139-0.169l-0.217-0.201l-0.176-0.103L27.236,8.96l-0.169-0.036l-0.31,0.035l-0.229-0.009l-0.042-0.059
			l0.007-0.125l0.086-0.102l0.147-0.176l0.049-0.175l-0.051-0.145l-0.074-0.007l-0.123-0.01l-0.169-0.028l-0.253-0.011l-0.258-0.031
			l-0.196-0.029L25.49,7.981l-0.126-0.074l-0.069-0.034l-0.087-0.055L25.034,7.75L24.89,7.708l-0.177-0.015L24.462,7.66l-0.24-0.059
			L24.038,7.49l-0.13-0.086l-0.145-0.061l-0.113-0.07l-0.145-0.079l-0.155-0.091l-0.143-0.107l-0.083-0.187l0.015-0.105L23.135,6.57
			l-0.098-0.199l-0.066-0.097l-0.072-0.099l-0.149-0.171l-0.052-0.054l-0.086-0.129l-0.114-0.146l-0.036-0.072L22.358,5.52
			l-0.064-0.091l-0.123-0.173l-0.067-0.055l-0.096,0.003L21.929,5.12l-0.012-0.123l-0.024-0.189l-0.017-0.149L21.842,4.44
			L21.82,4.242l-0.032-0.195l-0.02-0.143l-0.032-0.097v-0.1l0.048-0.111l0.048-0.165l0.037-0.186l0.018-0.149l0.021-0.094
			l-0.112-0.133l-0.157-0.088l-0.209-0.116L21.25,2.54l-0.168-0.114l-0.215-0.204l-0.055-0.081l-0.05-0.064l-0.099-0.11
			l-0.191-0.189l-0.156-0.14l-0.184-0.139l-0.087-0.026L19.979,1.35L19.974,1.21l-0.128-0.049l-0.262,0.034l-0.212,0.052
			l-0.226,0.076l-0.141,0.065l-0.233,0.12L18.61,1.589l-0.172,0.062l-0.121-0.02l-0.045,0.078l0.022,0.075l0.026,0.076l0.077,0.136
			l0.035,0.08l0.061,0.078l0.082-0.016l0.058,0.048l0.039,0.076l-0.036,0.076L18.53,2.442l-0.143,0.024l-0.183-0.047l-0.1-0.04
			l-0.133-0.021l-0.102,0.047l-0.14-0.021l-0.088-0.021l-0.008-0.182l0.063-0.063l-0.019-0.086l-0.076,0.016l-0.1-0.012L17.398,2.06
			l-0.12,0.016l-0.045-0.08l0.045-0.085l0.062-0.127l-0.032-0.095l-0.142-0.003l-0.175,0.044l-0.079,0.012L16.84,1.744l-0.087-0.045
			L16.69,1.649l-0.173-0.04l-0.122-0.026l-0.231-0.02L16.05,1.544l-0.167-0.01l-0.121,0.004l-0.095-0.011l-0.125-0.049l-0.01-0.116
			l-0.039-0.066l-0.142-0.035L15.27,1.219l0.046-0.102l0.058-0.051l0.074-0.038l-0.032-0.074l-0.09-0.097l0.067-0.103l-0.035-0.072
			l-0.015-0.012l-0.078,0.053l-0.103,0.033l-0.129-0.063l-0.093,0.05l-0.058,0.083l-0.03,0.072l-0.075,0.14l-0.006,0.098L14.6,1.241
			L14.49,1.208l-0.102,0.054l-0.098,0.02l-0.064-0.046L14.153,1.29l-0.062,0.092L14.049,1.45l-0.07,0.107l0.048,0.135l0.052,0.056
			l-0.07,0.157l-0.06,0.062l-0.074,0.091l0.072,0.121l-0.024,0.09L13.86,2.356l-0.018,0.153L13.78,2.604l0.107,0.146l0.052,0.059
			l0.101,0.048l0.089,0.009l0.086,0.017l0.063,0.07l0.082,0.08l0.064,0.037l0.098-0.007l0.114-0.052l0.095-0.007l0.111,0.015
			l0.071,0.04l0.068,0.077l-0.01,0.081l-0.047,0.076l-0.125,0.083l-0.047,0.092l0.03,0.099l0.012,0.081l0.022,0.13l0.04,0.062
			L14.85,3.979l0.013,0.079l0.099,0.146l0.054,0.055l0.099,0.069l0.11,0.064v0.177l-0.032,0.176l0.01,0.118l0.076,0.054l0.1,0.05
			l0.072,0.04l0.062,0.058l-0.007,0.078l0.065,0.052l0.089,0.05l-0.108,0.177l-0.06,0.149l-0.043,0.078l-0.072,0.046l-0.097-0.02
			l-0.105-0.009l-0.099,0.1l-0.061,0.092l-0.098,0.097l-0.048,0.06l0.002,0.125l-0.015,0.074l-0.046,0.085l-0.093,0.107
			l-0.062,0.075l-0.095,0.103l-0.08,0.124L14.46,6.756l-0.011,0.024l0.068,0.057l0.053,0.073l-0.002,0.078l0.045,0.108L14.614,7.1
			l0.026,0.116l0.071,0.127l0.105,0.043l0.046,0.078l0.118,0.117l0.089,0.06h0.082l0.047-0.072l0.02,0.113l-0.018,0.102l0.122,0.088
			l0.102,0.016l0.089-0.029l0.1-0.037l0.101-0.043l0.1-0.028l0.15,0.001l0.059,0.043L16.01,7.869l-0.02,0.079l-0.002,0.097
			l0.027,0.071l0.1,0.062l0.138,0.165l0.058,0.091l0.066,0.081l0.101,0.042l0.112,0.042l0.056,0.056l-0.06,0.081L16.49,8.763
			l-0.143,0.035l-0.077,0.017l-0.081,0.108l-0.049,0.111l-0.032,0.179l-0.005,0.086l-0.004,0.1l-0.074,0.11l-0.065,0.18
			l-0.055,0.088l-0.084,0.096l-0.095,0.094l-0.108,0.071L15.492,10.1l-0.087,0.04l-0.079,0.048l-0.095,0.071l-0.144,0.08
			l-0.085,0.042l-0.075,0.054l-0.106,0.05l-0.162,0.034l-0.08,0.005l-0.146-0.021l-0.071-0.043l-0.07-0.059l-0.121-0.066
			l-0.119-0.027l-0.148-0.016l-0.104-0.03l-0.084-0.041l-0.052,0.134l-0.136,0.073l-0.106,0.08l-0.101,0.06l-0.13,0.047
			l-0.093,0.023l-0.067,0.032l-0.05,0.01l-0.053,0.011h-0.062l-0.123-0.097l-0.098-0.058l-0.088-0.046l-0.072-0.077l-0.063,0.044
			l-0.128,0.091l-0.062,0.05l-0.059,0.052l-0.004,0.002L12.104,10.7l-0.079,0.068l-0.056,0.048l-0.074,0.056l-0.097,0.079
			l-0.047,0.031l-0.042,0.027l-0.081,0.025l-0.143-0.002l-0.341-0.021L11.016,11l-0.114-0.035l-0.098-0.049l-0.158-0.057
			l-0.093-0.034l-0.108-0.05l-0.073-0.041l-0.056-0.029l-0.028-0.018l-0.021-0.017l-0.032-0.027l-0.066-0.042l-0.106-0.048
			l-0.032-0.187l0.019-0.099l0.01-0.083l0.025-0.088l0.009-0.141L9.976,9.979l-0.068,0.026L9.75,10.059l-0.162,0.044l-0.136,0.031
			l-0.093,0.033l-0.125,0.035l-0.163,0.06L8.864,10.32l-0.167,0.048l-0.17,0.038l-0.188,0.05l-0.153,0.041l-0.117,0.029
			l-0.162,0.047l-0.112,0.032l-0.108,0.036L7.67,10.653l-0.04,0.019l-0.062,0.031L7.52,10.721l-0.061,0.003L7.391,10.7l-0.053-0.025
			l-0.036-0.013l-0.024-0.014l-0.019-0.011l-0.237,0.059l-0.022,0.077L6.97,10.819l-0.021,0.023l-0.02,0.023L6.9,10.869
			l-0.079-0.062L6.75,10.771l-0.073,0.072l-0.035,0.063l-0.054,0.038L6.528,11l-0.083,0.066l-0.115,0.07l-0.108,0.022l-0.089,0.118
			l-0.037,0.071l-0.102,0.087l-0.058,0.023l-0.099,0.027l-0.189,0.04l-0.216,0.049l-0.184,0.015l-0.177-0.009l-0.075,0.015
			l-0.096,0.013L4.84,11.614H4.839l-0.076,0.03l-0.055,0.019l-0.056,0.048L4.552,11.79L4.38,11.908l-0.161,0.098l-0.09,0.059
			l-0.116,0.065l-0.127,0.039l-0.141,0.131l-0.078,0.146l-0.139,0.258L3.479,12.81l-0.001,0.122l0.035,0.053l-0.016,0.083
			l-0.041,0.054l-0.136,0.121L3.17,13.345l-0.142,0.138l-0.11,0.132l-0.07,0.123l-0.047,0.175l-0.019,0.141l-0.004,0.024l0,0
			l-0.04,0.245l0.03,0.229l-0.01,0.191L2.73,14.919l0.021,0.128l0.06,0.143l0.037,0.034l0.042,0.074l-0.035,0.188l-0.019,0.147
			l-0.013,0.22l-0.007,0.156l-0.019,0.107l-0.056,0.122l-0.11,0.109l-0.028,0.119L2.58,16.625l-0.01,0.181l-0.004,0.149
			l-0.009,0.318l-0.02,0.119l-0.031,0.065l-0.082,0.131l-0.03,0.231l0.011,0.093l0.015,0.117l-0.012,0.099l-0.021,0.143L2.423,18.5
			l-0.065,0.092l-0.093,0.061l-0.179,0.035L1.942,18.7l-0.159-0.061l-0.15-0.078l-0.183-0.02l-0.156,0.017l-0.038,0.004l0.048,0.043
			L1.33,18.64l0.021,0.039l0.024,0.046l-0.002,0.059l0.011,0.38l0.01,0.031l0.04,0.028l0.031,0.017l0.02,0.007l0.014,0.014
			l0.01,0.023l0.071,0.073l0.014,0.019l0.022,0.054l0.01,0.068l0.003,0.082l0.008,0.034l0.029,0.072l0.021,0.037l0.068,0.086
			l0.058,0.057l0.046,0.043l0.04,0.085l-0.002,0.05l-0.021,0.042l0.006,0.087l0.014,0.043l0.051,0.204l0.021,0.04l0.021,0.032
			l0.037,0.059l0.017,0.063l0.004,0.019L2.051,20.7l-0.002,0.038l-0.014,0.03l-0.028,0.072l-0.028,0.03l-0.054,0.072l0.064,0.098
			l0.282,0.309l0.058,0.067l0.02,0.046l0.03,0.07l0.081,0.061l0.057,0.037l0.042,0.03l0.075,0.065l0.034,0.042l0.069,0.095
			l0.033,0.062l0.006,0.051l0.011,0.058l0.035,0.089l0.028,0.058l-0.057,0.488l-0.059,0.015l-0.054,0.054l-0.017,0.062l-0.067-0.005
			l-0.011,0.079l-0.028,0.065l-0.026,0.074l-0.076,0.201l-0.021,0.111l0.058,0.098l0.028,0.06l0.021,0.069l0.046,0.068l0.049,0.062
			l0.049,0.134l-0.003,0.059l0.042,0.078l0.072,0.049l0.083,0.045l0.084,0.074l0.04,0.041l0.083,0.043l0.051,0.008l0.056-0.01
			l0.093-0.029l0.115-0.031L3.34,24.226l-0.315,0.573l-0.013,0.06l0.002,0.077l-0.003,0.062l0.024,0.104l0.055,0.02l0.092,0.019
			l0.08-0.036l0.076-0.014l0.083,0.019l-0.044,0.087l-0.066,0.075l0.004,0.054l0.015,0.055l0.02,0.105l0.015,0.084l0.012,0.12
			l0.021,0.069l0.032,0.131l0.051,0.089l0.029,0.062l0.032,0.072l0.034,0.045l0.029,0.057l0.07,0.058l0.051,0.045l0.059,0.062
			l0.05,0.104l0.014,0.07L3.855,26.6l0.01,0.113l0.023,0.175l-0.034,0.05l-0.046,0.021l-0.094,0.014l-0.061,0.081l-0.032,0.104
			l0.009,0.057l0.02,0.033l0.03,0.053l0.068,0.064l0.045,0.037l0.083,0.071l0.103,0.063l0.103,0.056l0.05,0.017l0.061,0.002
			l0.103-0.005l2.918,1.96l-0.002,0.131l-0.038,0.08l-0.042,0.116L6.71,30.629l-0.108,0.189l-0.09,0.1l0.03,0.037l0.227,0.147
			l0.207,0.162l0.168,0.228l0.228,0.146l0.169,0.114l0.228,0.066H7.9l0.151-0.031l0.04-0.192l0.08-0.37l0.041-0.176l0.076-0.129
			l0.076-0.063l0.152-0.03l0.208,0.002h0.19l0.17,0.033L9.2,30.847l0.135-0.128l0.002-0.178l0.002-0.145l-0.094-0.129l0.001-0.049
			l0.001-0.081l0.038-0.063l0.285-0.047l0.304-0.014l0.209-0.029l0.229,0.018l0.074,0.064l0.131,0.243l0.351,0.856l0.062,0.162
			l0.165,0.076l0.215,0.024l0.128,0.001h0.063l0.038,0.043l-0.015,0.064l-0.055,0.301l-0.068,0.398l-0.094,0.346l-0.146,0.43
			l-0.014,0.076l-0.003,0.023l-0.008,0.086l-0.061,0.322l-0.104,0.239l-0.141,0.375L10.8,34.33l-0.033,0.136l0.001,0.062l0.062,0.03
			l0.148,0.101l0.197,0.09l0.04,0.134l-0.097,0.075l-0.135-0.008l-0.176-0.021l-0.098,0.002l-0.097,0.062l-0.046,0.137l-0.115,0.26
			l0.006,0.217l0.053,0.164l0.076,0.113l0.175,0.151l0.124,0.112l0.051,0.082l0.053,0.154l0.008,0.278l-0.047,0.104l-0.059,0.082
			l-0.084,0.074l-0.133,0.055l-0.145,0.084l-0.269,0.016l-0.062-0.009L9.97,37.04l-0.172-0.007L9.406,37.01l-0.171-0.019L9.1,36.952
			l-0.171-0.019l-0.109,0.022l-0.084,0.033l-0.06,0.054l-0.071,0.094l-0.071,0.084l-0.201,0.211l-0.18,0.127l-0.184,0.168
			l-1.146,0.921l-0.44,0.401l-0.25,0.201l-0.203,0.18l-0.094,0.136L5.74,39.732L5.648,39.92l-0.066,0.229l-0.067,0.208l-0.07,0.104
			L5.36,40.545l-0.155,0.086l-0.12,0.064l-0.146,0.062l-0.192,0.096l-0.214,0.201l-0.142,0.188l-0.093,0.199L4.181,41.59
			l-0.13,0.156l-0.094,0.146L3.89,42.08L3.78,42.579l0.007,0.248l0.02,0.279l0.043,0.216l0.152,0.225l0.062,0.071l0.038,0.062
			l0.051,0.082l0.038,0.041l0.002,0.084l0.001,0.041l-0.046,0.086l0.045,0.121l0.156,0.041l0.15,0.004l0.148,0.047l0.101,0.046
			l0.013,0.101l0.062,0.116l0.045,0.129l0.098,0.103l0.166,0.062l0.267,0.036l0.234,0.034l0.133,0.033l0.049,0.059l0.124,0.26
			l0.133,0.032l0.117,0.003l0.104-0.025l0.034-0.07l0.007-0.129L6.27,44.871L6.24,44.756l0.026-0.228l0.125-0.167l0.104-0.098
			l0.137-0.053l0.271-0.035l0.233,0.049l0.215,0.093l0.296,0.166l0.28,0.123l0.583,0.131l0.364,0.125l0.396,0.183l0.36,0.225
			l0.212,0.136l0.166,0.062l0.118-0.011l0.119-0.04l0.218-0.379l0.223-0.521l0.146-0.28l0.176-0.195l0.102-0.024l0.202-0.008
			l0.199,0.062l0.327,0.152l0.2,0.006l0.57,0.017l0.653,0.063l0.552,0.074l0.465,0.113l0.283,0.08l0.165,0.062l0.233,0.049
			l0.219-0.02l0.339-0.048l0.373-0.088l0.308-0.12l0.326-0.16l0.156-0.109l0.191-0.18l0.157-0.139l0.14-0.109l0.137-0.039
			l0.219-0.008l0.522-0.041l0.352,0.024l0.438,0.015l0.399,0.069l0.5,0.114l0.512,0.217l0.397,0.126l0.275,0.124l0.194,0.135
			l0.214,0.121l0.195,0.135l0.197,0.092l0.231,0.08l0.285,0.008l0.642-0.051l0.608-0.095l0.693-0.104l0.812-0.131l0.777-0.09
			l0.605,0.045l0.545,0.084l0.294,0.098L27.219,44.637"/>
	</g>
</g>
<g id="Layer_1">
</g>
</svg>
