<?xml version="1.0" encoding="utf-8"?>
<!-- Generator: Adobe Illustrator 16.0.4, SVG Export Plug-In . SVG Version: 6.00 Build 0)  -->
<!DOCTYPE svg PUBLIC "-//W3C//DTD SVG 1.1//EN" "http://www.w3.org/Graphics/SVG/1.1/DTD/svg11.dtd">
<svg version="1.1" id="Layer_1" xmlns="http://www.w3.org/2000/svg" xmlns:xlink="http://www.w3.org/1999/xlink" x="0px" y="0px"
	 width="301.141px" height="398.746px" viewBox="-142.815 -189.3 301.141 398.746"
	 style="enable-background:new -142.815 -189.3 301.141 398.746;" xml:space="preserve">
<g id="Layer_86">
	<path id="Mirpur" style="fill:#CCCCCC;stroke:#FFFFFF;stroke-width:1.15;" d="M143.887,16.093L143.887,16.093l-0.354,0.218
		l-0.354,0.295l-1.104,1.241l-0.435,2.917l-2.089,0.079l-1.261,0.236l-3.448,0.414l-0.296-0.809l-0.946-1.852l-0.748-1.419
		l-1.695-1.025l-0.355-0.689l0.69-1.537l0.039-1.064l-0.788-1.852l-1.754-2.878l-0.354-1.576l-1.38-0.217l-1.813-0.474l-1.438-0.434
		l-1.635-0.334l-1.735-0.375l-1.222-0.414l-1.339-0.138l-0.73-0.296l-0.61-0.552l-0.749-0.434l-0.453-0.413l-0.729-0.592
		l-1.261-0.906l-0.453-0.474l-0.611-0.61l-0.67-0.513l-0.375-0.63l-0.531-0.848l-0.473-0.474l-0.513-0.61l-0.71-0.611l-0.946-0.769
		l-0.709-0.709l-0.571-0.532l-0.611-0.079l-0.354-0.788l-1.222-1.005l-1.262-0.69l-0.945-0.591l-0.986-1.241l-1.339-1.222
		l-1.144-1.184l-0.71-0.847l-0.788-1.005l-1.261-0.848l-0.749-0.689l-0.906-0.67l-1.006-0.946l-0.65-0.453l-0.709-0.769
		l-0.512-0.453l-0.906-0.611l-0.493-0.473l-1.438-0.927l-0.71-0.61l-1.853-0.769l-0.513-0.592l-0.492-0.473l-0.729-0.611
		l-1.241-0.847l-0.414-0.532l-0.828-0.788l-1.024-0.77l-0.552-0.473l-1.064-1.615l-1.143-0.375l-1.064-0.848l-1.733-1.773
		l-1.203-0.689l-0.729-0.749l-1.104-1.084l-0.729-0.867l-0.729-0.788l-0.709-0.689l-0.827-0.71l-0.533-0.71l-0.473-0.768
		l-1.163-0.985l-0.434-0.71l-0.827-0.848l-0.591-0.748l-0.592-0.77l-0.945-0.847l-1.262-0.828l-0.63-0.532l-0.907-0.847
		l-0.434-0.631l-0.513-0.709l-0.413-0.454l-0.414-0.709l-0.828-0.769l-0.552-0.532l-0.65-0.532l-0.453-0.631l-0.375-0.532
		l-0.531-0.67l-0.513-0.631l-0.434-0.63l-0.433-0.513l-0.474-0.848l-0.827-1.024l-0.435-0.591l-0.275-0.552L52.25-57.73
		l-1.222-1.084l-1.202-0.434l-0.729-0.473l-0.395-0.434l-0.513-0.473l-0.61-0.474l-0.453-0.216l-0.906-0.375l-0.395-0.256
		l-0.512-0.355L44.8-62.676l-0.513-0.571l0.354-0.907l0.749-0.552l0.71-0.295l0.906-0.611l0.828-0.631l0.709-0.453l0.71-0.532
		l0.394-0.453v-0.335l0.119-0.295l-1.144-0.315l-0.71-0.099l-0.906-0.276l-0.71-0.236l-1.222-0.256l-0.828-0.158l-0.63-0.06
		L41.39-70.5h-0.413l-1.459-0.769l-1.023-0.709l-1.243-0.414l-0.61-0.414l-0.709-0.433l-0.749-0.611l-0.709-0.729l-0.71-0.591
		l-0.709-0.474l-0.75-0.552l-0.394-0.295l-0.749-0.453l-0.571-0.611l-0.296-0.512l-0.65-0.375l-0.296-0.118l-0.61-0.276
		l-0.926-0.118l-0.828-0.217l-1.025-0.314l-1.261-0.178l-1.222-0.355l0.434-0.768l1.024-0.769L26-82.482l1.576-1.084l0.985-0.473
		l1.656-0.453l1.104-0.631l0.709-0.552l0.828-0.631l0.513-0.434l0.729-0.709l0.178-0.71v-0.434l-0.395-0.552l-0.611-0.217
		l-1.438-0.492l-0.434-0.118l-0.906-0.375l-0.434-0.275l-1.024-0.454l-0.709-0.295l-0.415-0.591l-0.61-0.632l-0.434-0.492
		l-0.079-0.591l-0.315-0.611l-0.197-0.848l-0.512-1.557l-0.217-0.61l-0.296-0.611l-0.433-0.552l-0.928-1.005l-0.491-0.532
		l-0.947-0.157l-1.084-0.079l-0.748-0.139l-0.414-0.413l-0.395-0.236l-0.394-0.296l-1.094-0.296l-1.459-0.512l-0.601-0.77
		l-0.423-0.709l-0.326-1.005v-0.71l-0.099-0.848l-0.188-1.063v-0.611l-0.039-1.084v-1.024l0.552-1.438l0.581-0.631l0.986-1.183
		l0.146-0.67l0.297-0.788l0.434-0.453l0.424-0.631l0.177-0.788l-0.099-0.749l-0.729-0.611l-0.306-0.552l-0.404-0.63l-0.404-0.848
		l-0.078-0.848v-0.749l0.098-0.848l0.424-0.689l0.424-0.926l0.513-0.71l0.423-0.769l0.612-0.926l0.433-0.71l0.611-0.61l0.532-0.532
		l1.104-0.769l0.374-0.335v-0.789l-0.493-0.926l-0.748-1.005l-0.394-0.532l-0.395-0.591l-0.434-0.788l-0.355-0.533l-0.65-0.729
		l-0.373-0.434l-0.415-0.61l-0.403-0.611l-0.404-0.532l-0.404-0.552l-0.62-0.473l-0.828-0.789l-0.828-1.063l-0.906-0.848
		l-0.443-0.709l-0.709-0.592l-0.602-0.689l-0.827-0.552l-0.611-0.453l-0.424-0.335l-0.621-0.276l-1.113-0.571l-0.443-0.375
		l-0.621-0.531l-0.689-0.375l-0.522-0.631l-0.61-0.532l-0.749-0.473l-0.72-0.395l-0.286-0.453l-0.62-0.394l-0.089-0.454l-0.502-0.67
		l-0.444-0.571l-0.403-0.512l-0.946-0.69l-0.404-0.631l-0.61-0.63l-0.522-0.513l-0.522-0.71l-0.521-0.492l-0.404-0.453l-0.522-0.474
		l-0.749-0.61l-0.424-0.395l-1.015-0.354l-0.601-0.473l-0.562-0.453l-0.71-0.532l-0.611-0.395l-0.442-0.295l-0.257-0.236
		l-0.67-0.315l-0.828-0.611l-0.808-0.395l-0.364-0.453l-1.271-0.769l-0.403-0.354l-0.621-0.395l-0.749-0.492l-0.907-0.513
		l-0.502-0.335h-0.482l-0.463-0.354l-0.404-0.335l-0.729-0.513l-0.65-0.453l-0.699-0.592l-0.227-0.117l-0.966-0.631l-0.325-0.335
		l-0.483-0.513l-1.034-0.788l-0.601-0.474l-0.946-0.61l-0.611-0.611l-0.848-0.571l-1.212-0.945l-0.521-0.69l-0.404-0.315
		l-0.709-0.138h-1.025l-0.424-0.099l-0.709-0.296l-0.72-0.236l-0.364-0.138l-0.749-0.256l-0.601-0.296l-0.729-0.315l-0.828-0.335
		l-0.689-0.217h-1.024h-1.113h-1.114h-0.699h-1.153h-1.389h-1.271h-0.927h-1.034h-1.173h-1.005l-0.729,0.079l-0.621,0.059
		l-0.404,0.236l-0.403,0.178l-0.523,0.296l-0.689,0.473l-0.61,0.315l-0.443,0.059l-0.7,0.079h-0.61h-0.424l-0.424-0.395
		l-0.099-0.768l-0.079-0.927l-0.827-0.946l-0.099-1.005l-0.424-0.591l-0.552-0.631l-0.602-0.395l-0.61-0.374l-0.522-0.414
		l-1.005-0.295l-1.035-0.139l-0.827-0.157l-0.759-0.315l-0.956-0.315l-1.231-0.394l-0.719,0.177l0.117,0.532l0.119,0.473v0.434
		l-0.522,0.335l-0.443,0.158l-0.325,0.138l-0.257,0.157l-0.403,0.395l-0.404,0.315l-0.403,0.217l-0.286,0.315v0.453l-0.118,0.473
		l-0.385,0.375l-0.403,0.236l-0.444,0.453l-0.305,0.395l-0.099,0.295v0.217l-0.188,0.335l0.089,0.296v0.139l0.118,0.334l0.178,0.454
		v0.394l-0.681,0.236h-0.443h-0.285l-0.404,0.139l-0.631,0.157h-0.424L-71-173.036l-0.502,0.336h-0.503l-0.521-0.336l-1.134-0.512
		h-0.404l-0.285-0.395l-0.7-0.157l-1.152-0.315l-1.113-0.236l-1.005-0.157h-1.134h-0.68l-0.906,0.334l-0.65,0.079h-1.094h-0.72
		h-0.631l-0.424-0.079l-4.621-0.571l-1.173-0.138l-3.301,7.252l-7.951,2.897l-4.179,1.537l-4.906,2.759l-4.158,2.365l-2.297,8.118
		l1.163,9.795l-12.829,13.283l-2.306,3.882l-2.099,3.567l-3.774,8.139l-0.236,8.632l-0.02,0.67l3.252,7.567l8.632,20.16l8.956-0.354
		l2.907-0.099l2.443,1.853l4.602,3.488l-5.449,7.489l-1.793,5.32l7.164,5.498l1.468,1.163l0.167,1.615l0.1,1.302l-1.449,2.837
		l-0.67,1.281l0.906,2.739l6.779,5.912l0.079,0.06l-0.719,1.419l-2.179,4.178l-0.227,2.346l-0.285,2.857l4.946,9.755l4.927,9.676
		l-0.039,0.966l-0.306,8.415l4.197,4.69l12.189,5.123l-2.237,11.057l0.946,2.561l1.98-1.576l4.641-3.823l0.257-0.019l3.872-0.336
		l3.232,2.503l1.961,1.459l1.892,0.808l2.138,0.926l1.695,0.749l1.251,10.405l1.134,9.519l-0.346,8.849l-0.738,19.273l-2.208,2.601
		l-3.971,4.711l-14.593,6.247l-5.045,2.602l-0.157,0.078l-0.424,0.217l-4.523,2.05l-1.39,2.188l-2.926,4.434l-0.247,10.958
		l-0.423,2.01l-1.212,5.676l1.714,4.887l1.558,4.415l8.917,5.262l3.35,1.971l11.647,4.198l32.566,6.996l10.514,3.803l34.911,12.712
		l4.621,3.211l2.414,1.676l4.809,7.567l8.08,12.356l3.783,0.867l0.396,0.079l8.828,3.488l10.741,6.011l2.936,1.675l0.434-0.04
		l9.164-1.162l4.434-1.36l2.896-1.34v-0.177l5.282-6.13l1.045-2.778l1.438-2.937l1.162-1.281l2.995-0.453l1.38,0.1l2.365,1.536
		l3.548,1.262l1.989-0.453l0.946-1.518l0.138-1.754l1.932-1.655l0.71-0.474l-0.158-2.482l-0.079-2.523l0.197-3.724l0.414-0.848
		l3.686-2.128l2.995-1.892l3.783-1.459l2.011-1.971l2.738-3.153l2.109-3.686l1.773-4.354l0.671-2.366l0.118-0.748l0.709-0.887
		l-0.414-0.079l0.414-0.866l-1.458-2.347l-0.414-0.551l-2.483-1.241l-1.241-0.434l-3.015-0.474l-1.242-0.453l-1.28-0.985
		l-1.616-2.325l-2.148-2.996l-0.985-1.398l-0.749-0.868l-1.024-1.911l-0.435-0.926l-0.591-0.966l-1.301-1.557l-0.631-0.729
		l-0.945-1.222l-0.788-1.024l-0.434-0.671l-0.414-1.024l0.946-1.162l0.571-0.611l0.748-1.025l0.986-1.596l1.202-1.972l1.044-1.241
		l1.557-1.733l1.084-1.064l0.75-0.729l1.241-0.69l1.241-0.966l2.364-1.261l2.503-1.144l3.726-1.281l2.955-0.788l1.774-1.201
		l0.314-2.169l0.218-0.729l0.413-2.247l0.275-3.271l-0.038-1.854l-0.435-1.654l-1.063-2.938l-0.946-1.557l0.178-1.517l-0.809-2.779
		l-0.433-2.167l0.866-1.419l1.203-0.868l2.107-1.379l1.695-0.157l2.346-0.868l2.521-1.063l2.938-1.498l1.261-0.827l3.429-1.36
		l1.399-0.513l2.937-1.832l0.69-1.637l1.319-1.576l1.576-1.34l1.459-1.064l1.261-1.241l0.789-1.084l1.261-0.985l-0.631-2.522
		l-0.078-1.616l-1.616-2.147l-1.261-1.498l-0.946-2.739l-0.67-2.108l-0.946-1.301l-1.341-1.32l-0.63-0.336l-0.532-0.531l-1.123-0.67
		l-0.275-0.395l-0.315-1.38l0.118-0.71l1.301-1.694l1.457-1.655l1.616-1.064l0.158-1.733l-0.275-1.537l-1.262-1.419l0.335-0.67
		l0.946-1.932l0.374-1.359l0.177-1.498l-0.729-1.577l-0.395-1.498l-0.434-0.984l-0.039-1.458v-1.065l-0.434-2.088v-1.144
		l0.118-0.985L143.887,16.093"/>
</g>
<g id="Layer_1_1_">
</g>
</svg>
