<?xml version="1.0" encoding="iso-8859-1"?>
<!-- Generator: Adobe Illustrator 16.0.4, SVG Export Plug-In . SVG Version: 6.00 Build 0)  -->
<!DOCTYPE svg PUBLIC "-//W3C//DTD SVG 1.1//EN" "http://www.w3.org/Graphics/SVG/1.1/DTD/svg11.dtd">
<svg version="1.1" xmlns="http://www.w3.org/2000/svg" xmlns:xlink="http://www.w3.org/1999/xlink" x="0px" y="0px"
	 width="27.054px" height="20.021px" viewBox="0 0 27.054 20.021" style="enable-background:new 0 0 27.054 20.021;"
	 xml:space="preserve">
<g id="Layer_92">
	<g id="Layer_97">
		<path id="Mardan" style="fill:#CCCCCC;stroke:#FFFFFF;stroke-width:1.07;" d="M1.041,7.396
			L1.041,7.396l0.011,0.05L1.072,7.52l0.022,0.079L1.11,7.667l0.011,0.054l0.022,0.05l0.013,0.05L1.148,7.894L1.185,8.01
			l0.039,0.057l0.041,0.029l0.044,0.036l0.042,0.058l0.026,0.078l0.051,0.066L1.291,8.322L1.208,8.314L1.097,8.323L1.021,8.325
			L0.973,8.34L0.911,8.43L0.878,8.524L0.833,8.572L0.811,8.614L0.79,8.682L0.781,8.752L0.771,8.861l-0.01,0.084L0.75,9.053
			L0.745,9.079L0.739,9.112L0.724,9.217L0.688,9.406L0.67,9.497l-0.02,0.11L0.636,9.688L0.619,9.794L0.604,9.911l-0.016,0.098
			l-0.005,0.022l-0.017,0.073L0.562,10.22v0.096l-0.006,0.086L0.55,10.467L0.54,10.54l0.002,0.059L0.536,10.65l0.004,0.092
			l0.09,0.098l0.008,0.008l0.07,0.035l0.09,0.045l0.074,0.024l0.049,0.028l0.035,0.029l0.031,0.035l0.043,0.052l0.017,0.037
			l-0.028,0.079l-0.011,0.054l-0.005,0.05l0.002,0.032l0.016,0.047l0.041,0.04l0.051,0.055l0.021,0.03l0.02,0.032l0.021,0.031
			l0.021,0.048l0.016,0.062l0.005,0.033l-0.001,0.046L1.24,11.82l0.04,0.034l0.03,0.044l0.082,0.049l0.114,0.021l0.054,0.014
			l0.065,0.01l0.049,0.021l0.032,0.026l0.018,0.033l0.03,0.031l0.052,0.02l0.091,0.021l0.037-0.002l0.046-0.001l0.044,0.02
			l0.045,0.008l0.036-0.01l0.035-0.005l0.083,0.013l0.034,0.008l0.052,0.005l0.035,0.003l0.051,0.016l0.062,0.004h0.028l0.04-0.013
			l0.058,0.013l0.05-0.004l0.04-0.007l0.051,0.011l0.067,0.014l0.056,0.01l0.062,0.023l0.054,0.01l0.041,0.006l0.052,0.002
			l0.067-0.006l0.035,0.008l0.008-0.003l0.04-0.019L3.18,12.42l-0.017,0.099l-0.021,0.077l0.012,0.043l0.122,0.006l0.015,0.004
			l0.049,0.01l0.064,0.004l0.069-0.002h0.05l0.109,0.016l0.036,0.009l0.036,0.009l0.03,0.047l0.022,0.047l0.026,0.069l0.021,0.058
			l0.002,0.004l0.016,0.039l0.059,0.16l0,0l0.011,0.026l0.021,0.054l0.036,0.098l0.046,0.104l0.045,0.077l0.038,0.116l0.021,0.063
			l0.017,0.075l0.018,0.127l0.011,0.05l0.092,0.305l0.078,0.154l0.027,0.053l0.038,0.076l0.049,0.162l0.054,0.123l0.028,0.102
			l0.036,0.156l0.049,0.119l0.045,0.096l0.057,0.137l0.039,0.056l0.021,0.028l0.065,0.105l0.06,0.096l0.057,0.121l0.047,0.099
			l0.048,0.097l0.043,0.086l0.043,0.106l0.03,0.05L5.21,16.33l0.045,0.084l0.052,0.107l0.013,0.057l0.019,0.07l-0.001,0.059
			l0.019,0.039l0.052,0.045l0.048,0.035l0.051,0.025l0.021,0.011L5.61,16.9l0.063,0.021l0.07,0.007l0.13,0.012l0.098,0.021
			l0.094,0.041l0.111,0.043l0.072,0.025l0.146,0.034l0.068-0.007l0.085,0.006l0.079,0.02l0.107,0.024l0.105,0.026l0.108,0.021
			l0.061,0.028l0.082,0.008l0.053,0.019l0.081-0.006l0.091-0.016l0.118-0.02l0.096-0.024l0.084-0.022l0.091-0.014l0.084-0.023
			l0.065,0.006l0.07,0.013l0.087,0.015l0.047,0.004l0.079-0.017l0.021-0.024l0.018-0.033l0.003-0.02l0.074,0.001l0.095,0.013
			l0.116,0.006l0.086,0.018l0.079,0.016l0.075,0.008l0.065,0.006l0.062,0.007l0.09,0.004l0.025,0.003l0.03,0.003l0.033,0.021
			l0.025,0.043l0.024,0.058l0.018,0.062l0.016,0.051l0.02,0.033l0.02,0.039l0.028,0.012l0.029,0.029l0.026,0.028l0.03,0.035
			l0.052,0.062l0.053,0.121l-0.004,0.045l-0.061,0.056v0.082l-0.023,0.044l-0.017,0.052l-0.018,0.06l-0.008,0.061l0.003,0.054
			l0.026,0.077l0.067,0.115l0.035,0.033l0.119,0.066l0.1,0.024l0.061,0.013h0.109h0.087l0.064,0.032l-0.005,0.069L9.87,18.672
			l-0.015,0.033l-0.021,0.037L9.8,18.783L9.743,18.84l-0.045,0.041l-0.024,0.033l-0.017,0.047l-0.013,0.041l-0.006,0.055
			l0.002,0.074l0.002,0.037l0.035,0.08l0.044,0.03l0.064-0.001l0.089-0.007l0.096-0.003l0.085-0.006l0.047,0.002l0.079,0.029
			l0.099,0.028l0.067,0.028l0.064,0.038l0.049,0.032l0.011,0.007l0.06,0.024l0.115,0.025l0.062-0.01l0.092,0.013l0.05-0.01
			l0.069-0.042l0.184-0.038l0.321-0.113l0.013-0.004h0.001l0.034-0.007l0.111-0.028l0.117-0.024l0.074-0.012l0.079-0.013
			l0.095-0.011l0.119-0.006l0.099-0.006l0.11-0.006l0.118-0.002l0.059,0.006l0.058,0.01l0.04,0.01l0.062,0.027l0.128,0.049
			l0.189,0.057l0,0l0.021,0.01l0.091,0.039l0.088-0.005l0.108,0.002l0.063,0.021l0.085,0.031l0.122,0.053l0.102,0.002l0.091-0.006
			h0.078l0.113,0.004l0.165,0.009l0.071,0.001l0.105-0.02l0.045-0.017l0.019-0.017l0.03-0.029l0.023-0.045l0.026-0.083l0.019-0.054
			l0.021-0.073l0.021-0.073v-0.001l0.003-0.012l0.012-0.062l0.009-0.066l0.018-0.071l0.012-0.009l0.051-0.045l0.068-0.012
			l0.303-0.035l0.039-0.004h0.06l0.1,0.045l0.048,0.037l0.079,0.049l0.035,0.035l0.02,0.01l0.003,0.005h0.005l0.059,0.03l0.021-0.02
			l0.026-0.027l-0.003-0.056l0.003-0.067l-0.003-0.072l0,0l-0.002-0.021l0.015-0.018l0.021-0.014l0.11,0.021l0.066,0.057
			l0.035,0.022l0.067,0.022l0.078,0.023l0.266-0.004l0.083-0.004l0.071,0.021l0.02,0.01l0.052,0.035l0.044,0.014l0.008,0.002
			l0.043-0.004l0.061-0.019l0.001-0.001l0.042-0.029l0.003-0.004l0.017-0.017l0.019-0.017l0.03-0.059l0.019-0.042l0.04-0.046
			l0.045-0.038l0.019-0.075l-0.009-0.066l-0.014-0.053l0.008-0.041l0.009-0.094l0.018-0.166l0.002-0.097l-0.001-0.108l0.003-0.078
			l0.015-0.106l0.011-0.083v-0.012l0.003-0.02l-0.002-0.081l-0.003-0.073v-0.071l-0.014-0.072l-0.013-0.032l0,0l-0.006-0.07
			l-0.017-0.067l-0.005-0.024l-0.011-0.067l-0.021-0.115l-0.013-0.077l-0.007-0.068v-0.004l-0.007-0.072l-0.001-0.062l0.001-0.058
			l0.008-0.081l0.018-0.084l0.006-0.074l0.004-0.079l0.001-0.025v-0.002l0.009-0.039l0.005-0.053l-0.005-0.041l-0.007-0.029
			l-0.001-0.031l-0.011-0.044l-0.017-0.086l0.015-0.074l0.03-0.093l0.026-0.09l0.025-0.07l0.026-0.053l0.025-0.062l0.023-0.043
			l0.041-0.056l0.026-0.035l0.032-0.032l0.048-0.021l0.034-0.018l0.005-0.051l-0.007-0.055l-0.013-0.069l-0.006-0.048l-0.006-0.055
			l-0.026-0.187l-0.005-0.028l-0.006-0.031L16.889,14.7l-0.02-0.047l-0.023-0.055l-0.026-0.076l-0.017-0.056L16.79,14.42
			l-0.011-0.062l-0.017-0.047l-0.001-0.001l-0.006-0.023l-0.012-0.064l-0.034-0.157l0.03-0.078l0,0l0.071-0.028l0.212-0.078
			l0.243-0.104l0.047-0.021l-0.011-0.08l-0.002-0.006l-0.006-0.043l-0.013-0.047l-0.001-0.049l0.011-0.053l0.015-0.07l0.021-0.096
			l0.014-0.064l0.024-0.133l0.015-0.07l0.011-0.041l0.018-0.059l0.018-0.038l0.038-0.067l0.026-0.049l0.026-0.045l0.036-0.045
			l0.041-0.06l0.041-0.077l0.035-0.035l0.036-0.046l0.038-0.041l0.044-0.044l0.04-0.043l0.005-0.003l0.055-0.033l0.043-0.019
			l0.056-0.026l0.055-0.022l0.034-0.023l0.032-0.02l0.305-0.112l0.033-0.001h0.029l0.035-0.002h0.033h0.026l0.022-0.008l0.188-0.073
			h0.001l0.022-0.007l0.098-0.014l0.058-0.005l0.079-0.01l0.076-0.011l0.067-0.036l0.059-0.043l0.059-0.024l0.037-0.002l0.033-0.001
			l0.056,0.013l0.069,0.012l0.04,0.015l0.047,0.008l0.085,0.021l0.037,0.017l0.06,0.013l0.058,0.008l0.064-0.002h0.002h0.019
			l0.015-0.002l0.083-0.004h0.014l0,0h0.033h0.002h0.029l0.037,0.004h0.001l0.097,0.008l0.078,0.015h0.004l0.041,0.005l0.033,0.006
			l0.016,0.004l0.113,0.012l0.035,0.002l0,0l0.034,0.003l0.064,0.001l0.113,0.018l0.078,0.032l0.018,0.01h0.001l0.027,0.011
			l0.073,0.024l0.06,0.029l0.024,0.007h0.001l0.062,0.004l0.064,0.016l0.049,0.012l0.06,0.029l0.042,0.035h0.001l0.05,0.032
			l0.023,0.017l0.055,0.033l0.08,0.034l0.064,0.009h0.006l0.089-0.025l0.044-0.022l0.072-0.052l0.06-0.033l0.018-0.009l0.064-0.033
			l0.029-0.012l0.055-0.022l0.031-0.031l-0.01-0.053l-0.022-0.053l-0.011-0.041l-0.003-0.01l-0.007-0.055l-0.027-0.052l-0.064-0.088
			l-0.032-0.037l-0.066-0.049l-0.048-0.038l-0.07-0.057l-0.047-0.043l-0.032-0.029l-0.064-0.059l-0.067-0.016l-0.044-0.037
			l-0.013-0.059l-0.029-0.066h-0.05l-0.018-0.031l0,0l-0.012-0.019l0.014-0.011l0.007-0.016l0.04-0.035l0.031-0.036l0.002-0.026
			l-0.017-0.029l-0.028-0.035l-0.019-0.039v-0.004l-0.01-0.015l0.02-0.052l0,0l0.031-0.039l0.049-0.057l0.051-0.012l0.059-0.039
			l0.052-0.04l0.046-0.025l0.047-0.041l0.032-0.031l0.002-0.002l0.012-0.009l0.027-0.04l0.05-0.05l0.021-0.064l0.006-0.06
			l0.053-0.055l0.068-0.046l0.069-0.069l0.033-0.051l0.054-0.042l0.066-0.054l0.02-0.022l0.036-0.054l0.012-0.066L22.25,9.89V9.855
			V9.814l-0.003-0.05l-0.002-0.059l-0.004-0.061l-0.022-0.039l-0.037-0.042l-0.057-0.069l-0.049-0.065l-0.021-0.043h-0.001
			l-0.008-0.011l0.003-0.009l-0.005-0.019l0.01-0.05l-0.006-0.052l-0.024-0.028L22.001,9.18l0.032-0.04l0.01-0.022l0.012-0.025
			l0.021-0.018l0.011-0.009h0.001l0.004-0.007l0.083-0.055l0.077-0.02l0.061,0.006l0.015,0.002l0.022-0.003l0.091-0.006l0.052-0.014
			l0.021-0.023l0,0l0.003-0.004l-0.009-0.057l0.027-0.044l0.021-0.075l0.009-0.014l0.026-0.053l0.058-0.065l0.05-0.075l0.048-0.051
			l0.01-0.011l0.048-0.011l0.083-0.002l0.153-0.007l0.081,0.006h0.005l0.01,0.001h0.086l0.08-0.015l0.055,0.005l0.062,0.016h0.001
			l0.104-0.025l0.059,0.006l0.093,0.012l0.089,0.01l0.085,0.026l0.081-0.006l0.007,0.003l0.036-0.093l0.025-0.07L24.033,8.3
			l0.039-0.035L24.13,8.2l0.044-0.061l0.022-0.062l0.021-0.052l0.037-0.052l0.045-0.041l0.058-0.034l0.061-0.031l0.025-0.008
			l0.043-0.026L24.6,7.77l0.074-0.039l0.109-0.06l0.071-0.049l0.048-0.054l0.027-0.042l0.057-0.093l0.082-0.096l0.012-0.006
			l0.009-0.01l0.064-0.038l0.063-0.018l0.049-0.006l0.071-0.015l0.014-0.002l0.035-0.011l0.119-0.056l0.115-0.062l0.002-0.001
			l0.025-0.02l0.054-0.027l0.046-0.022l0.028-0.019l0.004-0.003l0.06-0.042l0.031-0.027l0.002-0.001l0.073-0.084l0.019-0.032
			l0.015-0.053l0.013-0.008l0.008-0.004l0.025-0.014l-0.021-0.014l-0.011-0.012l-0.001-0.005l-0.033-0.076l-0.013-0.072l0.019-0.062
			l0.019-0.055l0.012-0.07l0.013-0.05l-0.011-0.046l-0.014-0.041l-0.025-0.063L25.944,6.13l-0.021-0.062l-0.024-0.081l-0.017-0.055
			L25.88,5.921L25.865,5.87L25.84,5.805l-0.021-0.027l-0.048-0.049l-0.066-0.053l-0.06-0.043l-0.058-0.029L25.51,5.583l-0.063,0.002
			l-0.079,0.001l-0.065-0.001h-0.046l-0.075-0.001L25.095,5.59L25.02,5.597l-0.103,0.012l-0.078-0.004l-0.073-0.009l-0.047-0.009
			l-0.083-0.021l-0.062-0.021l-0.07-0.03L24.44,5.481l-0.044-0.03L24.315,5.35l-0.038-0.045l-0.057-0.053l-0.062-0.045l-0.048-0.022
			l-0.071-0.03l-0.071-0.014l-0.044-0.028l-0.088-0.131l-0.05-0.132l-0.021-0.068l-0.024-0.087l-0.029-0.041l-0.034-0.03
			l-0.044-0.018l-0.049-0.018l-0.038-0.006l-0.042-0.012l-0.057-0.015l-0.024-0.012L23.404,4.53l-0.043-0.026l-0.057-0.01
			l-0.05,0.001h-0.058l-0.059,0.01l-0.026-0.001l-0.098-0.011l-0.021-0.007l-0.04-0.017l-0.05-0.023l-0.031-0.015h-0.031
			l-0.051,0.011l-0.048,0.016l-0.062,0.021l-0.076,0.022l-0.038-0.009l-0.052-0.019l-0.039-0.016l-0.041-0.018l-0.054-0.018
			l-0.062-0.025L22.28,4.382l-0.06-0.022l-0.046-0.017l-0.054-0.021l-0.04-0.016l-0.028-0.011l-0.055-0.014l-0.067-0.003
			l-0.071,0.003l-0.068,0.003h-0.057l-0.072,0.011l-0.078,0.004l-0.052,0.014l-0.069,0.021l0,0H21.41l-0.152,0.053l-0.056,0.028
			l-0.024-0.001l-0.01-0.001l-0.033-0.001l-0.038-0.006l-0.061-0.012l-0.097-0.022L20.876,4.36l-0.047-0.005l-0.058,0.007
			L20.696,4.38l-0.054,0.027l-0.065,0.022l-0.065,0.022l-0.146,0.042l-0.101,0.008l-0.068,0.004l-0.041,0.001l-0.048,0.001
			l-0.051,0.01l-0.046,0.008l-0.04,0.016l-0.054,0.027l-0.072,0.043l-0.044,0.036l-0.032,0.035L19.72,4.745L19.717,4.75l-0.113,0.06
			l-0.018-0.006l0,0l-0.018-0.014l-0.027-0.015l-0.049-0.023l-0.023-0.01l-0.031-0.009l-0.055-0.017L19.34,4.705l-0.036-0.008
			L19.27,4.686l-0.044-0.017l-0.048-0.02l-0.033-0.019l-0.035-0.016l-0.052-0.018L19.022,4.57l-0.027-0.029l-0.036-0.05l-0.037-0.05
			l-0.029-0.034l-0.036-0.031l-0.035-0.02l-0.03-0.014l-0.024-0.007l-0.027-0.006l-0.021-0.003l-0.064-0.048l-0.021-0.013
			l-0.014-0.013l-0.033-0.03l-0.018-0.08h-0.027h-0.029h-0.028h-0.03h-0.038l-0.057-0.006l-0.057-0.021l-0.053-0.021l-0.055-0.006
			l-0.033-0.001h-0.027l-0.033,0.001l-0.004-0.005l-0.03-0.007l-0.034-0.015l-0.034-0.02l-0.01-0.006l0,0l-0.037-0.03L17.908,3.95
			l-0.006-0.002l-0.017-0.024l-0.044-0.037l-0.048-0.012l-0.073-0.021l-0.057-0.024l-0.045-0.023l-0.058-0.023l-0.058-0.042
			l-0.045-0.049l-0.024-0.032l-0.028-0.032l-0.024-0.112l-0.022-0.152l0.031-0.216l0.021-0.125l-0.044-0.161l0.007-0.089
			l0.022-0.061l0.001-0.011l0.001-0.001l0.021-0.058l0.021-0.048l0.007-0.044l0.003-0.053l0.002-0.056l-0.006-0.05l-0.001-0.047
			l0.001-0.049l0.026-0.101l0.011-0.034l0.001-0.041l-0.027-0.024l-0.005-0.005l-0.032-0.017l-0.06-0.032l-0.127-0.074l-0.057-0.02
			L17.137,1.93l-0.052-0.018l-0.043-0.006l-0.166-0.058l-0.049-0.017l-0.021-0.008l-0.104-0.04l-0.06-0.028l-0.09-0.049l0.012-0.037
			l0.023-0.058l0.018-0.04l-0.021-0.123l0.007-0.127l0.019-0.026l-0.055-0.039l-0.059-0.015L16.44,1.22l-0.076-0.024l-0.041-0.013
			l-0.048-0.021l-0.046-0.023l-0.052-0.021l-0.055-0.013l-0.058-0.007l-0.051-0.006h-0.004h-0.01h-0.053l-0.104,0.006h-0.008h-0.044
			L15.74,1.07L15.68,1.011l-0.007-0.013l-0.021-0.04l-0.017-0.045l-0.018-0.032l-0.016-0.026l-0.04-0.065l-0.04-0.036l-0.039-0.036
			l-0.041-0.026l-0.039-0.014l-0.035-0.007l-0.074-0.002l-0.066,0.007l-0.082,0.015l-0.037,0.013l-0.054,0.01l-0.053,0.009
			l-0.056,0.011l-0.044,0.004l-0.048,0.005L14.79,0.734l-0.05-0.001h-0.029l-0.025,0.01l-0.054,0.032l-0.067-0.014l-0.039-0.029
			l-0.021-0.011l-0.029-0.015l-0.073-0.039l-0.065-0.029l-0.061-0.025l-0.069-0.011l-0.154-0.009l-0.064-0.025l-0.121-0.03
			l-0.054-0.002l-0.085,0.011l-0.104,0.031l-0.063,0.024l-0.114,0.042L13.431,0.65l0,0l-0.067,0.032l-0.134,0.069l-0.073,0.036
			l-0.043,0.026l-0.047,0.014l-0.058,0.01l-0.061,0.008l-0.055,0.022L12.863,0.9l-0.032,0.079l-0.007,0.06L12.8,1.106l-0.012,0.103
			l-0.018,0.048L12.769,1.26l-0.07,0.049l-0.061,0.021l-0.08,0.025l-0.073,0.026l-0.011,0.003l-0.115,0.078l-0.052,0.049
			l-0.033,0.043L12.249,1.6L12.22,1.645l-0.043,0.07l-0.018,0.044l-0.003,0.072L12.2,1.833l-0.047,0.026l-0.068,0.015h-0.002h-0.001
			l-0.037,0.017l-0.044,0.016l-0.006,0.002l-0.036,0.023L11.938,1.97l-0.041,0.088l-0.021,0.035L11.853,2.12L11.79,2.159L11.7,2.195
			L11.666,2.21l-0.062,0.029L11.556,2.26l-0.053,0.024l-0.04,0.024l-0.048,0.03l-0.001,0.024l-0.001,0.024l0.04,0.028l0.04,0.023
			l0.054,0.031l0.027,0.039l-0.041,0.068l-0.005,0.02l0,0L11.522,2.62l0.003,0.046l0.009,0.04l0.002,0.055l0.027,0.056l0.024,0.057
			l0.022,0.038v0.022l0.001,0.022l-0.032,0.038l-0.033,0.02l0.002,0.024l-0.004,0.033l-0.016,0.018l-0.008,0.011l-0.017,0.003
			l-0.016,0.021l-0.025-0.03V3.093l-0.02-0.018l-0.013-0.027l-0.019-0.028l0.032-0.013l0.008-0.021l0,0L11.45,2.972l-0.004-0.066
			l-0.014-0.072l-0.005-0.051l0.007-0.041l-0.014-0.051l-0.05-0.068l-0.034-0.045l-0.021-0.03l-0.022-0.05l-0.013-0.046
			l-0.005-0.106l-0.001-0.135l-0.001-0.07l-0.006-0.078L11.25,2.009l-0.023-0.044l-0.032-0.03l-0.01-0.003l-0.035-0.014L11.07,1.919
			l-0.048,0.014l-0.047,0.011l-0.093-0.012h-0.076l-0.08-0.006l-0.078-0.001l-0.034-0.016l-0.012-0.053l-0.001-0.001l0,0
			l-0.044-0.034l-0.031-0.048l-0.012-0.017l-0.07-0.061l-0.002-0.002l-0.04-0.045l-0.059-0.083l-0.065-0.05l-0.04-0.026l-0.06-0.042
			l-0.046-0.031l-0.047-0.041l-0.051-0.048l-0.031-0.032l-0.02-0.037L9.953,1.209L9.93,1.165L9.923,1.148L9.905,1.107l0,0
			L9.887,1.08L9.828,1.021L9.78,0.985L9.745,0.997l-0.048,0.01L9.64,1.017L9.589,1.023L9.535,1.019L9.474,0.979L9.438,0.952
			L9.405,0.938L9.37,0.922L9.331,0.899L9.288,0.876L9.232,0.81L9.176,0.739l-0.024-0.03L9.123,0.692L9.015,0.631L8.963,0.606
			L8.944,0.6L8.906,0.603L8.89,0.606l0,0l-0.04,0.01L8.792,0.638l-0.035,0.01L8.708,0.655L8.664,0.667H8.618L8.539,0.64L8.505,0.627
			L8.416,0.621L8.33,0.626L8.266,0.635l-0.06,0.015L8.191,0.672L8.185,0.7l-0.03,0.01L8.136,0.714l-0.022,0.01L8.097,0.739l0,0
			L8.08,0.762L8.062,0.789L8.044,0.825L8.021,0.898L8.021,0.96L7.989,1.018L7.954,1.057L7.915,1.08L7.882,1.097L7.816,1.124
			L7.772,1.152L7.749,1.178L7.68,1.239L7.637,1.281L7.607,1.303l-0.03,0.022L7.543,1.356l-0.056,0.07L7.446,1.47L7.369,1.533
			L7.323,1.566L7.292,1.595L7.268,1.636L7.264,1.685l0.004,0.073L7.265,1.814L7.246,1.84L7.165,1.874L7.113,1.916L7.069,1.957
			L7.033,1.998L6.994,2.03L6.933,2.064L6.855,2.096L6.799,2.126L6.757,2.147l-0.05,0.022L6.662,2.19L6.595,2.223L6.547,2.256
			l-0.03,0.027L6.489,2.351L6.479,2.401L6.46,2.456L6.459,2.478l0.035,0.03l0.055,0.035l0.033,0.042l0.02,0.049l0.005,0.044
			L6.605,2.682l0,0l0.007,0.023L6.602,2.869L6.589,2.913l0.002,0.055l0.022,0.048l0.009,0.047l0.034,0.013l0.047,0.019L6.76,3.153
			L6.761,3.16l0.015,0.003l0.026,0.049L6.784,3.272L6.761,3.317l0.003,0.06l0.021,0.055L6.778,3.472L6.741,3.537l-0.01,0.067
			L6.727,3.642L6.697,3.685l-0.08,0.071L6.574,3.798l-0.04,0.084L6.52,3.922L6.519,3.961L6.517,4.002l0.002,0.039l-0.012,0.04
			L6.489,4.123L6.482,4.133L6.467,4.161L6.446,4.191L6.41,4.227L6.382,4.251L6.337,4.298L6.312,4.326L6.274,4.356l-0.031,0.02
			L6.166,4.4L6.11,4.412L6.064,4.418L6.011,4.424L5.958,4.427l-0.06,0.001L5.844,4.427L5.787,4.429L5.74,4.436L5.686,4.457
			L5.642,4.48L5.638,4.483L5.597,4.519l-0.038,0.03L5.515,4.583L5.479,4.609L5.395,4.666l-0.048,0.02L5.261,4.712L5.195,4.715
			L5.154,4.713L5.119,4.711L5.042,4.705L4.979,4.708L4.94,4.707H4.904L4.86,4.713L4.823,4.752L4.761,4.765L4.72,4.758L4.712,4.763
			l0,0L4.666,4.786L4.64,4.812l0.001,0.005l0.013,0.04l-0.01,0.035L4.633,4.978L4.628,5.034L4.632,5.1L4.623,5.14L4.596,5.164
			L4.54,5.19L4.459,5.214l-0.062,0.01H4.396L4.317,5.247L4.257,5.266L4.181,5.287l-0.05,0.007L4.065,5.305L4.051,5.315L4.028,5.362
			L3.998,5.39L3.969,5.417L3.964,5.474L3.98,5.506L3.944,5.581L3.912,5.602L3.903,5.607L3.86,5.647L3.827,5.671L3.816,5.714
			L3.811,5.735L3.797,5.796L3.784,5.834L3.753,5.859L3.752,5.892L3.729,5.926L3.68,5.953L3.637,5.961l-0.01,0.02l-0.01,0.042
			L3.593,6.061L3.563,6.128l0.003,0.037l0.013,0.049v0.051L3.576,6.307L3.573,6.358L3.568,6.412L3.564,6.425l0.004,0.042
			L3.557,6.513L3.508,6.574L3.446,6.618L3.398,6.625L3.35,6.602L3.288,6.568L3.234,6.557L3.161,6.543L3.084,6.544L2.989,6.553
			l-0.078,0.01L2.837,6.565L2.753,6.561L2.654,6.553L2.585,6.548L2.522,6.558l-0.097,0.02l-0.07,0.024L2.294,6.621L2.206,6.65
			L2.1,6.696L1.998,6.742L1.891,6.797L1.806,6.841l-0.062,0.03L1.672,6.909L1.609,6.945L1.562,6.98L1.511,7.014L1.455,7.046
			L1.408,7.08L1.404,7.083L1.333,7.12L1.265,7.148L1.181,7.18L1.106,7.222L1.091,7.234L1.094,7.25l0.01,0.049L1.043,7.381
			L1.041,7.396"/>
	</g>
</g>
<g id="Layer_1">
</g>
</svg>
