<?xml version="1.0" encoding="utf-8"?>
<!-- Generator: Adobe Illustrator 16.0.4, SVG Export Plug-In . SVG Version: 6.00 Build 0)  -->
<!DOCTYPE svg PUBLIC "-//W3C//DTD SVG 1.1//EN" "http://www.w3.org/Graphics/SVG/1.1/DTD/svg11.dtd">
<svg version="1.1" id="Layer_1" xmlns="http://www.w3.org/2000/svg" xmlns:xlink="http://www.w3.org/1999/xlink" x="0px" y="0px"
	 width="301.763px" height="234.152px" viewBox="-121.812 -94.636 301.763 234.152"
	 style="enable-background:new -121.812 -94.636 301.763 234.152;" xml:space="preserve">
<g id="Layer_116">
	<path id="Sibbi" style="fill:#CCCCCC;stroke:#FFFFFF;stroke-width:1.15;" d="M138.272-11.549L138.272-11.549l-3.646-3.481
		l-0.532-1.127l-0.016-1.143l-0.01-0.678l-0.01-0.462l-0.388-1.004l-1.054-0.982l-1.949-0.771l-3.004-1.672l-2.893-1.67l-2.623-1.78
		l-1.571-1.125l-1.692-1.105l-1.438-0.553l-2.351-0.771l-2.467-0.992l-3.023-1.874l-3.928-2.014l-3.274-1.781l-2.888-1.213
		l-2.361-1.56l-0.935-1.455l-0.15-1.918l-0.302-1.441l-0.553-1.12l-0.16-0.756l-0.366-0.485l-1.075-0.467l-1.155-0.156l-1.477-0.271
		l-1.075-0.536l-1.01-0.896l-0.823-1.394l-1.035-1.193l-0.794-0.59l-1.366-0.573l-2.27-0.432l-1.788-0.442l-0.724-0.663
		l-0.321-0.967l-0.674-0.966l-0.803-0.766l-0.98-0.653l-2.521-1.349l-1.446-0.952l-0.743-0.839l-0.321-0.914l-0.101-0.849
		l-0.111-1.354l-0.37-0.419l-0.82-0.455l-1.812-0.52L65.32-66.06l-4.49-0.605l-2.914-0.339l-2.561-0.49l-2.211-0.751l-1.517-0.884
		l-1.617-1.486l-1.176-1.256l-0.793-0.663l-0.945-0.462l-2.149-0.741l-3.134-0.716l-2.803-1.213l-1.824-0.941l-2.571-0.922
		l-2.255-0.535l-1.647-0.442l-2.566-0.601l-1.588-0.809l-1.376-0.703l-1.36-0.455l-0.939-0.58l-0.222-0.319l-0.02-0.485l0.271-0.442
		l0.332-0.502l0.401-0.623l0.051-0.545l-0.021-0.613l-0.302-0.535l-1.145-0.462l-6.901-1.972l-16.565-1.964l-3.848-0.098
		l-0.251,0.421l-0.292,0.437l0.025,0.482l0.211,0.578l1.216,0.942l1.075,0.447l1.069,0.462l0.518,0.339l0.331,0.638l0.056,1.231
		l-0.276,0.801l-0.738,1.625l-0.638,1.107l-0.769,0.937l-0.708,0.771l-1.05,1.032l-1.457,0.794l-1.275,0.535l-2.688,0.966
		l-1.462,0.699l-1.889,0.726l-2.124,1.09l-2.315,0.972l-1.166,0.319l-0.929-0.025L-21.797-72l-2.125-0.304l-1.301-0.113
		l-1.361,0.045l-1.23,0.141l-2.33,0.623l-2.567,0.949l-1.943,0.819l-1.457,0.793l-0.718,0.545l-1.507,1.08l-0.975,0.409l-0.743-0.03
		l-1.005-0.236l-1.868-0.535l-2.336-0.829l-2.587-0.977l-1.647-0.751l-1.954-0.693l-0.518-0.349l-0.211-0.479l-0.286-0.912
		l-0.346-0.753l-0.895-0.603l-1.577-0.643l-0.944-0.251l-0.879-0.332l-1.126-0.178l-2.857-0.221l-1.874-0.201l-1.988-0.128
		l-1.056-0.027l-1.355,0.211l-0.361,0.221l-0.543,0.465l-0.904,0.462l-0.487,0.181l-1.848,0.222l-2.11,0.08h-1.607l-0.507-0.133
		l-0.703-0.56l-0.764-0.525l-0.829-0.389l-1.948-0.568l-1.929-0.319l-1.246-0.015l-2.17-0.088l-2.049-0.108l-2.055-0.241
		l-1.441-0.216l-1.336-0.711l-0.899-0.517l-1.145-0.537l-1.141-0.663l-0.719-0.561l-0.688-0.19l-1.01-0.231l-1.176-0.01
		l-0.673,0.128l-1.16,0.356l-1.095,0.535l-1.181,0.525l0.171,0.199l0.572,1.206l0.407,1.378l0.246,1.818l0.593,1.673l0.211,0.833
		l-0.231,0.997l-1.195,1.271l-2.315,1.991l-2.23,1.906l-1.275,1.58l-0.949,1.203l-1.638,1.183l-0.698,0.259l-1.326,0.108
		l-1.406,0.191l-0.422,0.621l-0.965,2.423l-0.392,0.319l5.591,1.12l1.959-1.253l1.467-2.037l1.788-1.643l1.235-0.041l0.929,0.108
		l0.492,0.663l-0.251,1.605l-0.552,1.76l-0.217,2.417l0.065,1.863l-0.11,1.075l0.673,1.455l1.904,1.403l0.984,1.844l0.653,1.052
		l1.426,1.025l2.165,0.319l2.466-0.063l2.913-0.344l1.688-0.176l2.16-0.065l2.637,0.472l1.08-0.04l1.526-0.432l1.015-1.625
		l0.909-0.55l1.387-0.042l1.24,0.241l1.261,0.751l0.668,1.447l0.548,2.519l0.748,3.591l0.583,3.323l0.949,5.045l0.994,6.399
		l0.583,3.588l-0.251,2.08l-0.462-0.638l-2.13-0.804l-1.176,0.231l-2.069,0.633l-0.603,0.5l-1.969,1.665l1.401,0.475l1.828,0.884
		l0.663,0.701l0.261,0.955l-0.216,0.753l-0.517,1.095l-1.291,0.821l-1.979,1.04l-1.788,0.746l-3.034,0.191l-2.556,0.623
		l-0.985,0.399l-0.513,0.573l-0.215,0.859l0.06,1.369l0.447,1.537l0.944,1.035l1.015,2.235l0.532,1.801l0.347,1.703l-0.045,1.693
		l-0.065,1.675l-0.126,1.401l0.874,1.296l1.482,0.493l3.255,1.06l5.229,1.394l3.089,1.414l1.919,1.158l1.015,1.883l1.592,2.253
		l0.729,1.806l1.135,1.383l1.778,2.592l1.211,2.049l1.461,3.175l1.186,2.833l0.989,2.833l0.433,2.034l0.061,2.033l0.15,1.528
		l0.713,2.3l-0.075,2.552l0.492,3.234l0.824,1.809l1.084,2.742l1.035,1.392l1.617,1.16l1.352,0.457l1.351,0.452l0.854,0.703
		l0.724,1.879l1.13,1.135l1.135,1.301l1.633,0.634l2.426,0.32l0.954,0.614l1.347,0.451l3.019-0.11l4.38,0.11L-29,63.487l1.688,0.221
		l1.432,0.885l2.104,1.326l0.955,0.532l1.552,0.301l1.929,0.633l1.226,1.216l0.527,1.015l0.813,1.979l0.041,1.788l0.738,1.296
		l0.929,1.617l0.834,1.13l0.572,0.277l0.679,0.105l1.19-0.738l0.994-0.819l0.698-0.411l0.678,0.02l0.859,0.442l1.24,0.718
		l2.235,0.061l3.325-0.583l1.456-0.061l1.638,0.482l2.2,1.226l0.935,1.286l0.723,1.718l-0.03,0.954l0.036,1.859l-0.03,0.943
		l0.558,0.955l1.039,0.783l1.141,0.97l0.537,1.285l0.161,1.02l-0.051,1.688l-0.06,1.793l0.236,1.798l1.175,4.2l0.729,2.792
		l-0.281,1.261l-0.527,1.266l0.15,1.276l0.462,0.854l1.136,0.884l1.918,0.738l3.471,0.688l3.642,1.366l2.467,1.678l1.205,1.632
		l0.85,3.667l0.266,3.752l0.668,3.244l0.498,2.723l-0.141,1.267l-0.648,2.029l-0.719,1.175l-0.898,0.823l-0.708,0.835l-0.025,0.838
		l0.658,0.537l4.836,0.372h3.687l2.633-0.603l2.953-1.19l2.1-1.878l3.908-3.803l1.507-1.396l1.567-0.713l0.2-0.11l2.351-0.533
		l1.065,0.106l1.898,0.969l1.828,0.899l1.411,0.798l2.321,0.231l1.928,0.126l1.438,0.632l1.908,0.81l1.518,0.965l1.908,0.914
		l2.19,1.235l3.129,0.692l1.382-0.21l3.234-0.945l3.947-1.929l2.772-1.446l3.06-1.275l1.873-1.812l-0.438-0.559l-0.843-0.874
		l-1.652-2.069l-1.396-1.577l-1.035-1.044l-3.159-0.95l-3.752-0.863l-2.782-1l-1.612-0.643l-0.478-0.433l0.11-0.422l0.603-0.929
		l2.632-2.823l2.753-3.562l2.16-4.153l0.451-0.874l2.07-3.752l2.687-5.033l1.392-3.014l2.673-4.259l1.396-3.697l0.935-1.597
		l0.814-0.824l1.274-0.487l2.341-0.187l2.652-0.517l2.472-1.562l1.598-1.21l0.541-1.603l0.895-1.396l2.411-1.969l1.181-0.493
		l3.982-0.05l7.093,0.292l5.043,0.23l6.017,0.342l3.577,0.271l2.822,0.336l3.496,0.106l2.14-0.021l1.387-0.532l1.773-2.747
		l1.643-2.426l0.753-1.245l1.181-1.166l1.803-0.613l4.35-1.646l5.847-2.632l5.852-2.467l2.266-1.864l1.226-1.315l1.18-2.682
		l1.166-1.668l0.984-0.743l0.115-0.673l-0.326-1.372l-1.351-2.929l-0.513-4.173l0.141-1.604l1.181-2.762l1.728-4.028l-0.141-1.447
		l-0.643-0.863l-1.146-0.724l-2.23-0.402l-1.948-0.229L165.38,26.7l-3.365-0.864l-4.124-2.079l-1.15-0.716l-5.013-2.597
		l-3.134-2.135l-3.085-0.947l-3.435-2.14l-3.054-1.879l-2.281-1.335l-1.015-1.64l0.086-1.786l0.04-3.132l-0.096-0.804l-0.101-0.663
		l-0.171-0.834l-0.05-2.297l0.548-1.698l0.401-1.547l0.321-2.243l0.652-2.08l0.231-1.464l0.482-1.838L138.272-11.549"/>
</g>
<g id="Layer_1_1_">
</g>
</svg>
