<?xml version="1.0" encoding="utf-8"?>
<!-- Generator: Adobe Illustrator 16.0.4, SVG Export Plug-In . SVG Version: 6.00 Build 0)  -->
<!DOCTYPE svg PUBLIC "-//W3C//DTD SVG 1.1//EN" "http://www.w3.org/Graphics/SVG/1.1/DTD/svg11.dtd">
<svg version="1.1" id="Layer_1" xmlns="http://www.w3.org/2000/svg" xmlns:xlink="http://www.w3.org/1999/xlink" x="0px" y="0px"
	 width="301.069px" height="323.639px" viewBox="-120.906 -129.875 301.069 323.639"
	 style="enable-background:new -120.906 -129.875 301.069 323.639;" xml:space="preserve">
<g id="Layer_108">
	<path id="Rajanpur" style="fill:#CCCCCC;stroke:#FFFFFF;stroke-width:1.15;" d="M174.629-75.637L174.629-75.637l-0.73-1.713
		l-0.175-0.575l-0.146-0.506l-0.312-0.729l-0.38-0.804l-0.272-0.589l-0.248-0.447l-0.141-0.414l-0.249-0.579l-0.521-0.798
		l-0.316-0.594l-0.847-1.558l-0.36-0.584l-0.103-0.385l0.024-0.365l0.098-0.408l0.325-0.633l0.312-0.517l0.146-0.501l0.024-0.438
		l-0.16-0.292l-0.205-0.312l-0.253-0.176l-0.268,0.049l-0.268,0.059l-0.282-0.024l-0.243-0.107l-0.107-0.175l-0.073-0.307
		l-0.199-0.448l-0.126-0.111l-0.346-0.176l-0.327-0.067l-0.291-0.117l-0.204-0.171l-0.156-0.242l-0.117-0.269l-0.029-0.38
		l0.103-0.827l0.214-0.837l0.194-0.808l0.356-0.652l0.287-0.594l0.17-1.042l-0.098-0.798l-0.077-0.935l-0.215-0.687l-0.209-0.389
		l-0.472-0.643l-0.585-0.613l-0.764-0.618l-0.442-0.312l-0.415-0.224l-0.472-0.38l-0.554-0.292l-0.404-0.165l-0.463-0.225
		l-0.603-0.491l-0.239-0.142l-0.36-0.214l-1.07-0.253l-1.562-0.277l-1.1-0.005l-0.862-0.054l-0.773,0.068l-0.778-0.015l-0.726,0.122
		l-0.623,0.141l-0.569,0.189l-0.312,0.005l-0.341-0.067l-0.478-0.078l-0.729-0.103l-0.447,0.005l-0.517,0.107l-0.428,0.17
		l-0.565,0.346l-0.599,0.633l-0.599,0.73l-0.433,0.603l-0.355,0.312l-0.438,0.264l-0.809,0.447l-0.37,0.272l-0.37,0.429l-0.165,0.33
		l-0.165,0.355l-0.205,0.331l-0.544,0.672l-0.186,0.287l-0.097,0.292l-0.045,0.351l-0.067,0.652l-0.083,0.555l-0.062,1.183
		l-0.093,1.339l-0.059,0.783l0.098,0.827l0.029,0.789l-0.098,0.457l-0.083,0.277l-0.277,0.939l-0.186,0.545l-0.403,0.866
		l-0.278,0.711l-0.398,0.788l-0.312,0.706l-0.189,0.486L142-84.651l-0.409,0.672l-0.467,0.516l-0.418,0.525l-0.429,0.604
		l-0.205,0.282l-0.652,0.726l-0.583,0.827l-0.249,0.438l-0.315,0.779l-0.161,0.516l-0.195,0.468l-0.258,0.467l-0.521,0.643
		l-0.521,0.696l-0.496,0.501l-0.673,0.521l-0.573,0.575l-0.468,0.389l-0.729,0.517l-0.517,0.447l-0.652,0.399l-1.197,0.652
		l-1.334,0.613l-1.182,0.545l-0.837,0.569l-0.511,0.35l-0.623,0.39l-0.541,0.326l-0.91,0.516l-1.581,0.838l-1.523,0.681
		l-0.817,0.263l-1.062,0.195l-0.194,0.024l-0.613-0.146l-0.521-0.258l-0.316-0.146l-0.312-0.103l-0.37,0.02l-0.418,0.185
		l-0.915,0.463l-0.608,0.408l-0.462,0.429l-0.517,0.287l-0.788,0.181l-0.808,0.038l-0.321-0.059l-0.176-0.155l-0.088-0.132
		l-0.097-0.258l-0.082-0.54l0.16-0.726l0.312-0.681l0.369-0.726l0.243-0.739l-0.005-0.502l-0.102-0.17l-0.214-0.186l-0.545-0.146
		l-0.526-0.194l-0.307-0.171l-0.219-0.224l-0.146-0.399l-0.014-0.423l-0.093-0.307l-0.127-0.234l-0.302-0.268l-0.365-0.17
		l-0.472-0.165l-0.633-0.288l-0.447-0.209l-0.604-0.419l-0.438-0.369l-0.516-0.429l-0.233-0.166l-0.478-0.544l-0.38-0.517
		l-0.111-0.321l0.053-0.292l0.098-0.258l0.126-0.326l0.142-0.39l0.063-0.307l0.106-0.622l-0.009-0.521l-0.077-0.672l-0.312-0.759
		l-0.264-0.56l-0.37-0.521l-0.516-0.667l-0.939-1.144l-0.939-1.042l-0.76-0.866l-0.827-0.662l-0.652-0.647l-0.651-0.53l-1.31-0.847
		l-1.144-0.696l-0.725-0.325l-0.644-0.176l-1.104-0.106l-0.935-0.107l-1.002-0.024l-0.788-0.01l-0.774,0.024l-0.725,0.034
		l-2.186-0.015l-2.443,0.077l-1.47-0.087h-1.358l-1.518,0.058l-1.135,0.029l-0.939,0.01l-0.935-0.01l-1.032-0.097l-1.693-0.103
		l-1.528-0.199L73.75-90.2l-1.685-0.194L70.3-90.662l-1.349-0.22l-1.197-0.238l-1.431-0.199l-0.979-0.204l-1.041-0.243l-1.349-0.307
		l-1.236-0.308l-1.144-0.389l-0.799-0.307l-1.158-0.525l-1.085-0.613l-1.523-0.949l-0.773-0.584l-0.594-0.39l-1.115-0.808
		l-0.651-0.496l-1.022-0.696l-2.599-2.186l-0.478-1.664l-1.344-2.074l-4.15-2.438l-5.457-1.878l-5.891-1.295l-1.101-0.185h-1.097
		l-3.258-0.351l-4.147-1.119l-3.479-0.935l-5.247-1.489l-3.48-0.939l-4.023-1.401l-3.401-3.407l-2.92-4.312l-4.487,4.702
		l-4.171,3.037l-4.541,9.077l-0.424,1.532l-1.932,3.621l-1.726,3.052l-1.08,1.913l-1.316,0.949l-1.521,0.389l-1.31,0.939
		l-1.75,1.148l-1.516,1.344L-27.5-89.99l-1.302,1.723l-1.519,1.728l-2.178,0.959l-3.699,0.399l-1.536,0.398l-1.304,1.344
		l-2.806,0.77l-2.164,0.598l-2.387,1.145l-1.854,1.348l-1.166,0.944l-1.078,1.348l-1.299,1.115l-0.623,2.706l-1.501,3.227
		l-1.533,0.194l-1.745,0.399l-1.307,0.39l-1.076,1.908l0.238,1.527l1.555,2.083l0.679,2.463l-0.908,3.606l-0.26,3.11l0.032,2.594
		l0.049,4.283l-0.728,4.195l-0.552,1.431l-1.142,1.602l-1.341,1.431l-1.141,1.114l-1.003,1.733l-0.771,1.747l-0.47,1.762
		l-0.09,1.587l0.022,3.114l-0.081,2.355l0.029,2.025l0.395,1.153l0.494,0.681l0.956,0.414l1.061-0.103l1.536-0.603l1.046-0.847
		l1.35-1.022l1.047-1.013l1.051-0.589l0.869-0.01l1.061,0.151l0.961,0.584l1.636,1.144l2.801,2.594l2.355,2.745l0.704,1.1
		l0.812,1.037l1.611,3.402l0.309,1.431l-0.564,1.266l-1.236,1.348l-1.903,1.548l-1.141,1.173l-0.762,0.939l-0.66,1.271l0.199,0.997
		l0.105,0.687l0.769,0.506l1.922-0.015l1.825-0.015l1.061,0.322l0.866,0.408l1.166,1.674l1.074,1.256l0.109,2.093l-0.1,2.021
		l0.015,1.26l0.389,0.838l0.499,0.516l0.757,0.248l0.956-0.103l0.743-0.33l0.499-0.424l0.737-0.76l1.621-1.104l1.723-1.285
		l1.611-1.348l1.618-1.436l1.916-1.022l1.351-0.604l1.241-0.258l1.141,0.156l0.572,0.155l0.395,0.939l0.104,1.845l-0.353,1.431
		l-1.351,1.859l-1.864,3.348l-0.937,1.602l-0.664,1.689l-0.088,2.434l-0.265,2.783l0.204,1.684l0.584,1.515l0.387,0.837l0.494,0.584
		l0.389,0.672l-0.104,1.104l-0.355,1.349l-1.042,1.591l-1.141,1.859l-1.042,1.533l-0.937,1.592l-1.227,2.277l-1.528,1.952
		l-0.852,1.266l-0.35,1.767l-0.214,1.674l-0.343,1.148l-0.37,0.76l-0.857,0.682l-1.808,0.768l-1.625,0.857l-2.183,0.521l-2.098,0.69
		l-1.81,0.764l-1.142,0.687l-0.732,0.935l-0.852,1.115l-0.747,1.265l-1.042,1.533l-1.227,1.533l-0.951,0.754l-1.227,1.275
		l-0.856,1.012l-0.957,1.821l-0.822,1.041l-1.336,1.285l-0.937,1.265l-0.655,1.685l-0.458,1.587l-0.484,1.601l-1.07,2.181
		l-1.417,1.267l-1.793,0.282l-1.351,0.009l-0.752,0.165l-0.679,0.517l-0.533,1.44l-0.752,1.431l-0.842,1.427l-1.231,1.018
		l-1.236,0.764l-1.426,0.847l-1.784,0.939l-1.426,0.69l-1.538,1.022l-1.512,1.353l-0.662,1.014l-0.18,1.002l0.005,0.939
		l-0.166,2.594l-0.078,1.173l-0.937,1.528l0.02,1.003l0.01,0.681l0.304,0.838l0.385,0.574l0.866,0.32l1.141,0.151l1.609,0.248
		l1.63,0.307l1.246,0.734l0.774,0.512l0.771,0.993l1.35,2.176l0.694,1.582l0.508,1.353l0.015,1.587l-0.459,1.85l-0.543,2.365
		l-1.764,2.963l-2.183,3.125l-2.064,3.125l-1.689,2.194l-1.774,2.444l-0.555,0.895l-3.13,5.865l-1.414,1.946l-2.339,3.812
		l-2.436,3.553l-2.054,3.543l-1.759,2.872l-1.979,1.542l-2.752,0.774l-2.388,0.779l-2.934,1.552l-3.021,0.876l-2.835,1.451
		l-2.333,1.172l-1.679,0.721l-0.562,1.11l-0.131,1.26l1.307,2.151l1.081,2.103l1.153,2.248l0.407,2.259l0.898,1.587l0.699,2
		l1.095,3.606l2.182,4.298l2.876,0.019l3.4-0.165l4.047-0.354l0.608-0.215l0.397-0.453l0.56-0.754l0.756-1.353l0.465-1.066
		l0.348-0.725l0.462-0.506l0.509-0.273l0.764-0.307l1.973-0.525l2.142-0.307l1.212-0.277l1.351-0.438l1.266-0.225l1.93-0.087
		l4.046-0.166l1.56,0.01l1.933,0.103l3.541,0.594l5.456,1.022l2.882,0.232l3.538,0.545l3.996,0.692l1.974,0.408l0.304,0.277v0.277
		l-0.205,0.399l-0.922,0.725l-1.071,1.065l-1.136,1.154l-0.922,0.964l-0.149,0.453l-0.005,0.306l0.409,0.282l1.309,0.525
		l1.363,0.409l1.514,0.517l2.477,0.501l1.665,0.292l2.022,0.126l2.329-0.067l1.536-0.312l1.271-0.117l1.141,0.049l1.555,0.336
		l1.205,0.306l2.263,0.282l0.958,0.239l2.066,0.54l1.012,0.408l0.256,0.112l0.591,0.556l1.446,1.246l1.346,1.09l0.598,0.447
		l6.809,0.726l3.198,0.652l0.465,0.312l0.582,0.072l0.409,0.01l0.514-0.092l0.732-0.302l0.75-0.418l0.852-0.57l0.795-0.667
		l0.594-0.7l0.409-0.546l0.194-0.32l0.105-0.355l0.114-0.521l0.128-0.521l0.181-0.258l0.409-0.268l0.528-0.336l0.474-0.171
		l0.696-0.258l1.112,0.01l0.833,0.063l1.103,0.155l0.686-0.126l0.534-0.181l0.199-0.155l0.136-0.276l-0.037-0.386l-0.095-0.37
		l-0.368-0.836l-0.309-0.75l-0.518-0.77l-0.633-0.935l-0.494-0.914l-0.104-0.545l0.104-0.317l0.105-0.194l0.294-0.136l0.294-0.059
		l0.562-0.088l0.456,0.039l0.467,0.107l0.594,0.194l0.424,0.321l0.481,0.398l0.575,0.478l0.358,0.341l0.727,0.866l0.728,0.584
		l0.569,0.691l0.608,0.682l0.896,0.89l0.37,0.419l0.604,0.37l0.389,0.102l0.687,0.107l0.783,0.029l0.942-0.137l0.796-0.242
		l0.479-0.273l0.523-0.229l0.353-0.078l0.521-0.224l0.506-0.214l0.694-0.457l0.623-0.381l0.409-0.306l0.937-0.687l0.479-0.316
		l0.523-0.336l0.518-0.287l0.713-0.336l0.686-0.429l0.813-0.447l0.871-0.399l0.519-0.307l0.304-0.296l0.19-0.234l0.139-0.263
		l0.156-0.36l0.129-0.525l0.289-1.295l0.081-1.552l-0.005-1.811l-0.046-0.478l-0.019-0.662l-0.105-0.37l-0.065-0.691l0.022-0.637
		l0.078-0.438l0.156-0.467l0.17-0.307l0.319-0.321l0.343-0.214l0.647-0.316l0.793-0.248l0.682-0.181l0.649-0.146l0.492-0.146
		l0.399-0.194l0.409-0.293l0.36-0.311l0.309-0.308l0.377-0.54l0.251-0.408l0.258-0.511l0.061-0.365l0.029-0.321l-0.104-0.375
		l-0.066-0.268l0.037-0.306l0.2-0.58l0.187-0.214l0.309-0.278l0.231-0.185l0.514-0.326l0.272-0.131l0.937-0.171l0.494-0.097h0.489
		l0.404,0.121l0.671,0.321l0.623,0.467l1.112,0.779l0.248,0.194l0.564,0.507l0.613,0.438l0.525,0.408l0.916,0.511l0.564,0.263
		l0.661,0.146l0.326,0.024l0.2-0.034l0.477-0.176l0.729-0.336l0.341-0.287l0.272-0.17l0.186-0.248l0.083-0.341l0.043-0.325v-0.531
		l0.088-0.545l0.199-0.613l0.248-0.516l0.263-0.341l0.2-0.308l0.189-0.219l0.39-0.359l0.39-0.224l0.457-0.244l-0.33-0.564
		l-0.103-0.73l0.01-0.604l0.267-0.569l0.779-0.535l0.73-0.667l0.472-0.506l0.672-0.935l0.594-0.827l0.613-0.545l0.336-0.331
		l0.779-0.569l0.729-0.521l0.808-0.447l1.057-0.399l0.71-0.491l0.75-0.521l0.521-0.517l0.17-0.491l0.02-0.253l-0.277-0.502
		l-0.628-0.506l-1.236-0.359l-1.348-0.244l-1.83-0.39l-1.611-0.452l-1.227-0.521l-0.589-0.556l-0.233-0.52l-0.097-0.75l-0.029-0.837
		l0.029-0.399l0.224-0.535l0.253-0.355l0.199-0.258l0.725-0.73l0.989-0.915l0.959-0.993l1.134-0.855l1.377-0.939l1.158-0.53
		l0.939-0.409l0.521-0.176l0.876-0.009l1.736,0.048l1.203-0.048l1.139-0.234l1.217-0.272l0.788-0.126l1.256-0.029l1.771,0.102
		l1.713-0.102l1.373-0.117h2.39l1.348-0.102l1.14-0.108l0.72-0.203l0.682-0.352l0.71-0.389l0.526-0.521l0.516-0.54l0.813-1.246
		l0.725-1.338l0.521-1.349l0.102-0.929l-0.102-1.207l-0.146-0.818l-0.263-0.643l-0.57-0.774l-0.72-0.729l-1.222-0.886l-1.28-0.827
		l-1.339-1.085l-0.919-0.765l-0.497-0.564l-0.194-0.56l-0.02-0.657l0.029-0.33l0.312-0.312l0.477-0.517l0.322-0.161l0.312,0.021
		l0.306,0.111l0.307,0.234l0.506,0.37l0.546,0.583l0.467,0.336l0.716,0.106l0.687-0.097l0.52-0.141l0.521-0.322l0.307-0.447
		l0.17-0.389l0.029-0.293l-0.009-0.306l-0.117-0.312l-0.21-0.458l-0.111-0.517l-0.01-0.375l0.073-0.312l0.121-0.306l0.409-0.287
		l0.312-0.083l0.545,0.117l0.73,0.569l0.739,0.788l0.799,0.905l0.764,0.827l0.403,0.214l0.293,0.083l0.521,0.01l0.297-0.053
		l0.584-0.214l0.754-0.316l0.613-0.166l0.745-0.127l0.496,0.029l0.486,0.127l0.731,0.263l0.729,0.321l0.682,0.38l0.555,0.35
		l0.584,0.151l0.661,0.126h0.438l0.336,0.021l0.53-0.104l0.53-0.213l1.096-0.316l0.896-0.438l0.642-0.457l0.361-0.623l0.243-0.716
		l0.01-0.468l-0.385-0.788l-1.124-1.883l-1.46-1.972l-1.524-1.718l-1.44-1.275l-0.54-0.517l-0.214-0.418l-0.077-0.517l0.028-0.253
		l0.214-0.316l0.112-0.282l0.268-0.267l0.682-0.322l1.274-0.447l1.762-0.37l1.11-0.292l1.558-0.307l1.547-0.131l2.03-0.36
		l1.207-0.103l0.521,0.039l0.57,0.195l0.359,0.33l0.336,0.517l0.409,0.583l0.521,0.517l0.502,0.443l0.56,0.729l0.213,0.39
		l0.229,0.725l0.136,0.37l0.448,0.531l1.202,1.62l0.521,0.55l0.395,0.287l0.521,0.103l0.604-0.088l0.438-0.117l0.564-0.467
		l0.613-0.574l0.457-0.725l0.726-1.544l0.53-1.684l0.351-1.139l0.335-1.587l0.22-0.929l0.19-0.53l0.179-0.497l0.42-0.74l0.676-1.158
		l0.438-0.837l0.298-0.561l0.194-0.738l-0.049-0.877l-0.175-0.715l-0.234-0.935l-0.287-0.506l-0.876-0.774l-2.204-1.592l-1.606-1.07
		l-1.294-0.939l-0.361-0.501l-0.729-0.857l-0.729-0.91l-0.604-0.404l-1.654-1.188l-1.431-0.71l-0.837-0.443l-0.784-0.354
		l-0.419-0.827l0.016-0.521l0.312-0.521l1.124-1.197l0.881-0.623l0.517-0.623l0.447-0.37l0.769-0.185l1.256-0.398l1.897-0.673
		l0.926-0.914l1.23,0.262l2.269,0.716l1.377,0.312l1.305,0.282l1.533,0.517l1.801,0.462l1.377,0.254l1.013,0.116l0.662,0.01
		l0.545-0.039l0.886-0.156l0.886-0.087l0.521-0.107l0.646-0.243l0.316-0.204l0.233-0.205l0.141-0.312l0.138-0.608l0.185-0.725
		l0.059-0.307l0.233-0.194l0.185-0.104l0.37-0.203l0.468-0.166l0.652-0.103l0.7,0.005l0.413,0.006l0.482-0.05l0.355-0.106
		l0.325-0.205l0.312-0.35l0.181-0.321l0.02-0.496l-0.103-0.517l-0.107-0.521l-0.408-1.31l-0.463-1.354l-0.277-0.855l-0.098-0.516
		l0.005-0.614l0.133-0.447l1.07-0.521l0.739-0.361l1.124-0.312l0.735-0.106l0.93,0.098l0.418,0.097l0.735,0.205l0.316,0.093
		l0.414,0.038l0.516-0.077l0.428-0.248l0.652-0.282l1.314-0.604l0.896-0.652l0.934-0.725l0.838-0.696l0.608-0.7l0.716-0.77
		l-0.706-0.993l-0.463-0.7l-0.111-0.312l-0.024-0.312l0.779-1.145l1.479-2.832l0.604-1.266l0.146-0.847l-0.01-0.584l-0.078-0.798
		l-0.413-1.1l-0.186-0.896l0.045-1.138l0.155-0.594l0.15-0.512l0.783-1.144l0.322-0.701l0.208-1.144l0.133-1.553l0.208-0.852
		L141.523,39l0.282-0.302l1.09-0.088l0.779-0.103l0.516-0.155l0.32-0.307l0.156-0.657l-0.194-1.432l-0.531-2.389l-0.15-2.288
		l-0.263-1.972l0.106-1.552l0.36-1.295l0.721-1.45l0.38-1.115l-0.01-0.53l-0.243-0.939l-0.657-1.562l-0.822-1.636l-0.478-1.285
		l-0.253-0.545l-0.457-0.18h-0.623l-0.512,0.204l-0.92,0.272l-0.516,0.01l-0.175-0.058l-0.005-0.332l0.102-0.258l0.516-0.72
		l0.507-0.541l0.555-0.545l0.905-0.467l0.856-0.068l1.411-0.155l0.687-0.312l0.161-0.302l0.102-0.74l-0.01-0.788l0.103-1.548
		l0.37-1.197l0.214-0.847l0.516-0.54l0.331-0.268l0.613-0.254l0.91-0.214l0.696-0.068l0.623-0.258l0.292-0.141l0.049-0.351
		l-0.005-0.399l-0.015-0.643l-0.01-0.399l0.224-0.53l0.613-0.516l0.691-0.38l0.617-0.307l0.726-0.15l0.623-0.263l0.39-0.351
		l0.155-0.351l0.106-1.139l0.045-0.706l0.296-0.652l0.38-0.516l0.282-0.584l0.107-0.604l-0.107-0.39l-0.467-0.341l-0.565-0.243
		l-0.632-0.194l-0.302-0.584l-0.185-1.052l-0.404-0.643l-0.015-0.734l-0.005-0.502l0.151-0.594l0.219-0.398l0.063-0.507
		l-0.073-0.306l-0.18-0.332l-0.321-0.102l-0.011-0.312l0.059-0.331l0.156-0.399l0.224-0.312v-0.506l-0.122-0.501l-0.229-0.341
		l-0.516,0.01l-0.39-0.107l-0.117-0.243l-0.005-0.346l0.473-0.307l0.915-0.409l0.457-0.544l0.38-0.74l0.38-1.052l0.307-1.786
		l0.103-1.104l-0.341-0.53l-0.794-0.243l-1.095-0.239l-1.021-0.297l-0.303-0.335v-0.107l0.215-0.935l0.106-1.139l0.127-0.954
		l0.059-0.54l-0.01-0.244l0.287-0.106h0.462l0.516,0.243l0.409,0.39l0.107,0.521l0.106,0.521l0.083,0.399l0.287,0.194l0.564-0.02
		l0.458-0.194l0.106-0.516l0.156-0.789l0.049-0.535l0.165-0.346l0.229-0.004h0.229l0.341,0.194l0.409,0.442l0.058,0.458h0.297
		l0.326-0.204l0.287-0.667l0.209-1.042l-0.077-0.783l-0.011-0.399l-0.106-0.506l-0.239-0.511l-0.014-0.39l0.106-0.341v-0.01
		l-0.087-0.01l-0.268-0.73l-0.044-1.061l-0.234-0.458l0.073-0.525l0.365-0.827l0.029-0.623l-0.131-1.46l0.296-1.889l0.322-0.633
		l0.71-1.625l0.272-0.521l0.613-0.813l0.438-0.462l0.472-0.171l0.726,0.034l0.943,0.103l1.12,0.263l1.075,0.398l1.406,0.055
		l1.568-0.069l1.313-0.17l1.013-0.224l0.325-0.107l0.171-0.175l0.034-0.75l-0.054-0.618l-0.141-0.584l-0.133-0.491l-0.282-0.584
		l-0.312-0.628l0.021-0.331l0.117-0.126l0.935-0.181l0.52,0.02l0.381-0.02l0.175-0.142l0.142-0.472l0.102-0.525l0.072-0.584
		l0.068-0.215l0.214-0.253l0.332-0.204l0.291-0.351l-0.145-0.516l-0.438-0.448l-1.763-1.367l-1.401-1.168l-0.681-0.905l-0.585-0.817
		l-0.632-0.856l-0.011-0.809l0.029-0.53l0.104-0.482l0.52-0.642l0.517-0.375l0.637-0.37l0.395-0.341l0.497-0.725l0.296-0.662
		l0.848-1.246l0.424-1.109l0.729-1.139l0.136-0.57l-0.053-0.661l-0.215-0.838l0.015-0.369l0.185-0.317l0.332-0.242l0.428-0.326
		l0.53-0.939l0.638-1.12l0.365-0.695l0.142-0.696l-0.103-0.691l-0.2-1.144l-0.106-0.399l-0.243-0.268l-0.691-0.599l-1.037-0.185
		l-0.706-0.165l-0.368-0.146l-0.108-0.146l0.01-0.225l0.448-0.418l0.905-0.579L172.778-73l0.604-0.369l0.481-0.521l0.438-0.511
		L174.629-75.637"/>
</g>
<g id="Layer_1_1_">
</g>
</svg>
