<?xml version="1.0" encoding="utf-8"?>
<!-- Generator: Adobe Illustrator 16.0.4, SVG Export Plug-In . SVG Version: 6.00 Build 0)  -->
<!DOCTYPE svg PUBLIC "-//W3C//DTD SVG 1.1//EN" "http://www.w3.org/Graphics/SVG/1.1/DTD/svg11.dtd">
<svg version="1.1" id="Layer_1" xmlns="http://www.w3.org/2000/svg" xmlns:xlink="http://www.w3.org/1999/xlink" x="0px" y="0px"
	 width="301.31px" height="222.397px" viewBox="-120.614 -89.129 301.31 222.397"
	 style="enable-background:new -120.614 -89.129 301.31 222.397;" xml:space="preserve">
<g id="Layer_113">
	<path id="Sheikhupura" style="fill:#CCCCCC;stroke:#FFFFFF;stroke-width:1.15;" d="M-93.915,129.104L-93.915,129.104l0.515-0.436
		l0.678-0.572l0.447-0.391l0.53-0.32l0.498-0.199l0.646-0.1l0.506-0.055l0.54-0.15l0.719-0.285l0.516-0.309l0.496-0.494l0.336-0.223
		l0.544-0.125l0.472-0.111l0.516-0.258l0.455-0.309l0.336-0.641l0.104-0.502l0.121-1.002l0.104-0.6l0.133-0.559l0.293-0.803
		l0.44-0.717l0.407-0.154l0.644-0.295l0.724-0.098l0.724-0.141l0.648-0.322l0.288-0.344l0.109-0.373l-0.089-0.611l0.065-0.672
		l0.254-0.416l0.45-0.396l0.506-0.232l0.54-0.248l0.436-0.111l1.067-0.053l1.041-0.078l0.724-0.24l0.544-0.523l0.47-0.678
		l0.319-0.266l0.375-0.164l0.307-0.025l0.303,0.068l0.133,0.029l0.443,0.348l0.109,0.406l0.024,0.658l0.055,0.35l0.271,0.066h0.576
		l0.445-0.145l0.392-0.102l1.045,0.016l0.307-0.055l0.799-0.131l0.847-0.275l0.932-0.484l0.748-0.475l1.002-0.488l1.154-0.42
		l1.542-0.529l1.348-0.504l0.809-0.164l1.084,0.029l0.926,0.203l0.695,0.252l0.866,0.387l0.397,0.242l0.443,0.107l0.579,0.004
		l0.724-0.236l0.307-0.059l0.382,0.059l0.387,0.275l0.494,0.639l0.448,0.566l0.559,0.412l0.724,0.227l0.515,0.082l0.724-0.26
		l0.932-0.572l0.571-0.436l0.266-0.406l0.232-0.75l0.116-0.727l-0.08-1.006l0.08-0.76l0.072-0.609l0.279-0.834l0.505-0.865
		l0.307-0.455l0.555-0.406l0.634-0.291l0.755-0.203l0.833-0.34l0.554-0.436l0.557-0.305l0.946-0.262l0.828,0.035l0.723,0.076
		l0.61,0.141l0.568-0.557l0.501-0.541l0.133-0.465l0.136-0.34l0.157-0.184l0.203-0.078l0.431,0.281l0.453,0.32l0.44,0.223
		l0.257,0.115l0.566,0.035l0.516-0.229l0.847-0.402l0.874-0.547l0.985-0.928l0.874-1.021l0.569-0.717l0.298-0.812l0.302-0.621
		l0.625-0.609l0.365-0.25l0.382-0.074l0.481,0.229l0.549,0.658l0.55,0.566l0.411,0.436l0.387,0.148l0.492,0.078l0.643-0.193
		l1.092-0.572l1.135-0.639l0.654-0.479l0.321-0.363l0.109-0.406l-0.053-0.416l0.09-0.514l0.203-0.42l0.308-0.471l0.167-0.584
		l0.089-0.602l0.01-0.469l0.15-0.367L-21,93.221l0.678-0.383l0.67-0.287l0.683-0.309l0.6-0.311l0.467-0.203l0.544-0.121l0.491-0.043
		l0.521,0.059l0.724-0.111l0.515-0.232l0.574-0.33l0.636-0.416l0.375-0.289l0.368-0.166l0.515-0.16l0.738,0.049l0.922-0.01
		l0.62-0.105l0.98-0.367L-8.462,89l0.666-0.504l0.321-0.582l0.034-0.338l0.274-0.281l0.228-0.039l0.61,0.262l0.827,0.504
		l0.501,0.416l0.426,0.629l0.336,0.174l0.317,0.012l0.59-0.146l0.866-0.582l0.515-0.414l0.562-0.271l0.384-0.189l0.308-0.062
		l0.288,0.039l0.467,0.266l0.417,0.189l0.569,0.125l0.619-0.107l0.733-0.391l0.789-0.348l0.685-0.186l0.762-0.266l1.135-0.236
		l0.724-0.117l0.68-0.15l0.262-0.014l0.358,0.115l0.312,0.232L8.454,87l0.44,0.107l0.6-0.17l0.76-0.359l0.98-0.619l0.724-0.518
		l0.421-0.521l0.128-0.438l0.022-0.521l0.097-0.543l0.106-0.354l0.337-0.295l1.004-0.518l0.581-0.455l0.199-0.305l0.024-0.309
		l-0.138-0.477l-0.53-0.367l-0.973-0.6l-0.579-0.479l-0.332-0.518l-0.109-0.549l0.118-0.41l0.308-0.281l0.701-0.213l1.281-0.242
		l0.912-0.223l0.431-0.217l0.162-0.305l-0.005-0.471l0.254-0.314l0.455-0.115l0.491-0.297l0.417-0.404l0.307-0.506l0.278-0.279
		l0.356-0.229l0.496-0.168l0.971-0.176l0.997-0.082l1.387,0.074l1.13,0.072l1.002-0.094l0.897-0.172l0.782-0.408l0.878-0.576
		l0.794-0.566l0.871-0.58l0.233-0.295l0.458-0.393l0.709-0.121l0.909,0.02l0.725,0.164l0.893,0.301l0.363,0.238l0.508,0.109
		l0.732-0.109l0.371-0.189l0.32-0.363l0.184-0.484l0.281-0.314l0.381-0.16l0.857-0.059l1.543,0.127l0.52,0.059l0.105,0.059
		l-0.105-0.248l-0.176-0.557l-0.637-0.822l-1.211-1.461l-0.803-0.936l-0.641-0.949l-0.895-1.402l-0.518-1.133l-0.861-1.24
		l-0.518-0.768l-0.158-0.514l-0.021-0.611l0.104-0.246l0.23-0.324l0.26-0.141l0.369-0.135l0.648-0.154l0.527-0.156l0.311-0.096
		l0.377-0.166l0.223-0.24l0.078-0.215l0.561,0.232l1.365,0.664l1.346,0.455l0.412,0.062l0.479,0.025l0.658-0.176l1.273-0.459
		l1.195-0.461l0.725-0.227l0.514-0.121l0.727-0.023l0.705,0.033l0.955-0.117l0.305-0.236l0.125-0.4l-0.102-0.311l-0.193-0.717
		l-0.043-0.609l0.043-0.553l0.131-0.072l0.121-0.049l0.111-0.125l0.479-0.242l0.426-0.334l0.305-0.406l0.223-0.451l0.107-0.521
		l0.096-0.223l0.186-0.295l0.131-0.199l0.139-0.348l0.035-0.141l-0.102-0.189L48.9,50.348l-0.145-0.062l-0.164-0.064l-0.326,0.082
		l-1.006,0.186l-0.773,0.033l-0.205-0.088l-0.148-0.16l-0.121-0.348l-0.053-0.455l0.102-0.174l0.188-0.197l0.291-0.311l0.164-0.334
		l0.068-0.316l-0.039-0.309l0.072-0.107l0.111-0.135l0.311-0.092l0.236-0.145l0.18-0.127l0.137-0.131l0.086-0.174l-0.02-0.363
		l-0.02-0.27l0.078-0.189l0.076-0.078l0.32-0.088l0.605-0.096l0.305-0.082l0.127-0.164l0.309-0.484l0.145-0.504l0.127-0.371
		l0.164-0.205l0.137-0.139l0.299-0.146l0.135-0.232l0.117-0.338l0.068-0.305l0.158-0.34l0.17-0.219l0.461-0.227l0.537-0.178
		l1.025-0.107l1.162-0.059l0.764-0.049l0.377-0.141l0.438-0.279l0.604-0.408l0.281-0.154l0.305-0.01l0.229,0.049l0.1,0.145
		l0.029,0.195l-0.082,0.305l-0.305,0.561l-0.105,0.357l0.059,0.588l0.158,0.416l0.246,0.299l0.273,0.256l0.135,0.146l0.047,0.246
		l0.012,0.156l-0.104,0.213l-0.148,0.145l-0.291,0.029l-0.209-0.078l-0.266-0.396l-0.223-0.275l-0.262-0.039l-0.193,0.082
		l-0.145,0.256l-0.102,0.576l0.15,0.484l0.43,0.387l0.49,0.324l0.516,0.059l0.52,0.049l0.295-0.082l0.16-0.131l0.129-0.145
		l0.461-0.365l0.193-0.129l0.252-0.01l0.309,0.039l0.107-0.072l0.154-0.48l0.039-0.301l-0.02-0.193l-0.145-0.232l-0.145-0.188
		l-0.025-0.334l0.029-0.262l0.072-0.213l0.156-0.098l0.213-0.145l0.377-0.209l0.328-0.445l0.271-0.502l0.252-0.834l0.18-0.406
		l0.334-0.453l0.223-0.166l0.348-0.082l0.76-0.078l0.402-0.082l0.803-0.168l0.766-0.195l0.299-0.109l0.174-0.166l0.146-0.232
		l0.127-0.271l0.24-0.256l0.193-0.141L66.828,38l0.387-0.082l0.258-0.15l0.354-0.223l0.309-0.271l0.422-0.498l0.295-0.479
		l0.092-0.248l-0.006-0.115l-0.086-0.082l-0.223-0.107l-0.484-0.125l-0.271-0.145l-0.279-0.199l-0.107-0.131l-0.049-0.193
		l0.049-0.18l0.311-0.357l0.445-0.523l0.357-0.377l0.311-0.465l0.135-0.289l0.131-0.359l0.072-0.469l0.102-0.441l0.102-0.459
		l-0.01-0.225l-0.086-0.211l-0.107-0.16l-0.281-0.238l-0.463-0.266l-0.199-0.252l-0.156-0.309l-0.061-0.281l0.004-0.242l0.057-0.18
		l0.232-0.25l0.248-0.111l0.252-0.012l0.475,0.074l0.662,0.076l0.543-0.039l0.502-0.158l0.373-0.242l0.426-0.416l0.107-0.18
		l0.049-0.281l-0.039-0.367l-0.088-0.396l-0.082-0.314l-0.006-0.117l0.064-0.111l0.102-0.121l0.285-0.115l0.557-0.186l0.305-0.188
		l0.127-0.141l0.053-0.193l-0.053-0.209l-0.277-0.309l-0.242-0.285l-0.164-0.277l-0.01-0.15l0.082-0.197l0.17-0.184l0.246-0.102
		l0.447,0.014l0.564-0.092l0.416-0.209l0.48-0.293l0.305-0.398l0.121-0.232l0.004-0.281l0.029-0.228l0.039-0.125l0.125-0.141
		l0.127-0.13l0.174-0.233l0.039-0.125l-0.039-0.135l-0.141-0.131l-0.01-0.16l0.078-0.14l0.154-0.097l0.305-0.062l0.582-0.165
		L77.23,19.7l0.305-0.169l0.295-0.291l0.082-0.213l0.102-0.247l0.072-0.228l0.17-0.184l0.242-0.092l0.387,0.034l0.275,0.058
		l0.203-0.004l0.107-0.107l0.164-0.16l0.068-0.213l0.078-0.261l0.086-0.126l0.311-0.102l0.23,0.009l0.344,0.194l0.379,0.199
		l0.305-0.015l0.154-0.121l0.184-0.31l0.262-0.604l0.232-0.339l0.049-0.334l-0.02-0.31l-0.098-0.295l-0.174-0.271l-0.305-0.319
		l-0.16-0.271l-0.105-0.411l-0.098-0.33l0.098-0.348l0.105-0.305l0.15-0.232l0.674-0.746l0.363-0.45l0.1-0.247l0.01-0.121
		l0.029-0.102l-0.203-0.358l-0.174-0.397l-0.484-0.697l-0.691-0.842l-0.566-0.765l-0.311-0.44l-0.086-0.256l0.02-0.174l0.102-0.16
		l0.242-0.131l0.217-0.029l0.619,0.15l0.9,0.106l0.936,0.116h0.43l0.311-0.155l0.174-0.16l0.131-0.271l0.102-0.343l0.029-0.615
		l0.043-0.401l0.15-0.199l0.223-0.13l0.236-0.169l0.518-0.281l0.242-0.165l0.193-0.15l0.232-0.266l0.107-0.247l0.039-0.208
		l-0.064-0.223L86.43,3.288l-0.193-0.271l-0.16-0.281l-0.072-0.184l0.064-0.338l0.119-0.281l0.146-0.131l0.309-0.15l0.5-0.179
		l0.334-0.15l0.262-0.184l0.318-0.31l0.305-0.377l0.498-0.44l0.262-0.232l0.213-0.184l0.102-0.179l0.102-0.334l0.107-0.421
		L89.75-1.76l0.092-0.286l0.15-0.213l0.256-0.251l1.516-1.264L92.15-4.03l0.271-0.068l0.164,0.01l0.213,0.063l0.268-0.009
		l0.17-0.146l0.211-0.204l0.398-0.314l0.256-0.203l0.238-0.097l0.27-0.01l0.262,0.059l0.34,0.125l0.609,0.291l0.648,0.654
		l0.324,0.585l0.15,0.504l0.102,0.919l0.072,1.186l0.102,0.833l0.199,0.251l0.279,0.184l0.412,0.102l0.645,0.029l0.512,0.102
		l0.258,0.082l0.426-0.024l0.295-0.125l0.279-0.184l0.33-0.223l0.02-0.043l0.049-0.16l0.135-0.45l0.174-0.47l0.102-0.208
		l0.199-0.286l0.117-0.14l0.289-0.121l0.174-0.097l0.311-0.111l0.207-0.053l0.295-0.107l0.117-0.097l0.107-0.102l0.129-0.242
		l0.094-0.222l0.018-0.165L103.35-2.84l-0.119-0.155l-0.258-0.189l-0.25-0.111l-0.307-0.039l-0.305-0.053l-0.174-0.039l-0.049-0.106
		l-0.018-0.121l0.1-0.122l0.223-0.169l0.186-0.091l0.168-0.02l0.213-0.024l0.203-0.02l0.098-0.043l0.107-0.092l0.115-0.141
		l0.105-0.106l0.117-0.048h0.125l0.107,0.063l0.096,0.111l0.01,0.28l-0.039,0.523l0.006,0.194l0.023,0.184l0.176,0.097l0.062,0.16
		l0.004,0.106l-0.105,0.324l-0.029,0.15l0.096,0.15l0.311,0.053l0.213-0.004l0.232-0.083l0.256-0.271l0.199-0.256l0.102-0.184
		l0.102-0.092l0.174-0.083h0.102l0.203-0.005l0.176-0.062l0.066-0.122l0.035-0.13l-0.01-0.179l0.047-0.179l0.084-0.155l0.102-0.102
		l0.242-0.067l0.299-0.034l0.252-0.049l0.111-0.082l0.102-0.116l0.029-0.135l0.02-0.165l0.078-0.078h0.105h0.111l0.193,0.087
		l0.082,0.16l0.098,0.223l0.059,0.242l0.309,0.291l0.514,0.31l0.426,0.334l0.301,0.232l0.102,0.3l0.01,0.3l-0.016,0.193
		l-0.043,0.223l0.076,0.179l0.268,0.242l0.367,0.228l0.445,0.126l0.295,0.009l0.586-0.043l0.461,0.015l0.121,0.073l0.105,0.194
		l0.17,0.31l0.111,0.251l0.174,0.106h0.188l0.209-0.034l0.17-0.14l0.209-0.107l0.172-0.004l0.117,0.058l0.16,0.145l0.111,0.194
		l0.033,0.445l0.084,0.431l0.26,0.275l0.281,0.189l0.328,0.111l0.465,0.02l0.389-0.01l0.27-0.033l0.193-0.102l0.117-0.102
		l0.098-0.184V0.849l-0.088-0.155l-0.105-0.15l-0.18-0.174l-0.059-0.165v-0.15l0.102-0.165l0.107-0.106l0.223-0.14l0.309-0.063
		l0.543-0.193l0.291-0.116l0.309-0.228l0.232-0.237l0.281-0.421l0.416-0.635l0.416-0.527l0.314-0.31l0.334-0.349l0.324-0.203
		l0.377-0.102l0.611-0.058l0.662-0.015l0.648-0.106l0.373-0.126l0.324-0.16l0.174-0.184l0.357-0.74l0.107-0.522v-0.15l-0.088-0.145
		l-0.256-0.083L123.5-6.077l-0.723-0.106l-0.371-0.169l-0.354-0.261l-0.217-0.232l-0.104-0.324v-0.494v-0.165l-0.105-0.102
		l-0.107-0.058l-0.527-0.049l-0.344,0.005l-0.145-0.111l-0.039-0.194l0.02-0.252l0.223-0.261l0.445-0.397l0.59-0.446l0.369-0.169
		l0.193-0.049l0.213,0.024l0.105,0.073l0.078,0.237l0.039,0.43l0.092,0.238l0.131,0.13l0.164,0.087l0.334,0.107l0.537,0.014
		l0.518-0.092l0.451-0.247l0.426-0.354l0.547-0.934l0.213-0.349l0.189-0.155l0.318-0.083l0.387-0.029l0.688-0.237l0.711-0.286
		l0.785-0.406l0.459-0.499l0.475-0.595l0.334-0.421l0.213-0.319l0.223-0.15l0.367-0.073l0.402-0.005l0.422,0.005l6.113-1.375
		l0.174-3.78l-0.025-0.527l-0.072-2.067l-0.115-1.268l0.725-0.32l1.008,0.087l1.637,0.93l0.053,0.029l1.635,0.165l0.789-0.319
		l0.102-1.128l-0.898-1.278l-0.199-0.958l-0.145-0.716l-0.422-1.805l0.459-2.439l0.301-1.539l0.039-1.535l0.033-1.195l0.412-0.721
		l2.961,0.125l1.443,0.126l0.436,0.039l0.436-0.155l0.734-0.286l0.447-0.687l0.203-0.32l0.02-0.658l0.793-1.578l0.281-0.518
		l0.449-0.377l1.312-1.089l6.16-2.729l0.547-0.412l3.363-2.512l1.289-1.307l0.541-0.542l6.336-4.99l1.549-0.997l2.014-1.302
		l-0.543-0.779l-0.105-1.08l-0.16-1.142l-0.16-0.363l-0.688-0.102l-1.012-0.043l-0.826-0.15l-0.17-0.203l-0.102-0.358l-0.105-0.518
		l-0.281-0.837l-0.262-0.557l-0.484-0.571l-0.668-0.503l-0.678-0.377l-0.93-0.867l-0.105-0.353l0.029-0.513l-0.15-0.513l-0.164-0.44
		l-0.592-0.141l-0.652,0.092l-1.152,0.188l-0.59,0.015l-0.475-0.097l-0.213-0.286l-0.078-0.436l-0.318-1.186l-0.156-0.324
		l-0.281-0.169l-0.309-0.208l-0.465-0.179l-0.275-0.208l-0.305-0.247l-0.176-0.28l-0.318-0.799l-0.305-0.842l-0.236-0.915
		l-0.104-0.634l-0.072-0.436l-0.096-0.198l-0.176-0.087l-0.455-0.174l-0.348-0.208l-0.58-0.377l-0.334-0.677l-0.199-0.601
		l-0.102-0.518l-0.305-0.484l-0.396-0.446l-0.398-0.329l-0.455-0.174l-0.59-0.14l-0.629-0.305l-0.518-0.527l-0.295-0.678
		l-0.311-1.035l-0.105-0.479l-0.287-2.105l-0.314-0.876l-0.328-0.522l-0.389-0.523l-0.725-0.305l-0.822-0.106l-0.896,0.121
		l-0.73,0.242l-0.832,0.683l-0.639,0.445l-0.494,0.571l-0.455,0.813l-0.41,0.726l-0.389,0.339l-0.682,0.682l-0.775,0.639l-1.199,0.9
		l-1.133,0.581l-1.186,0.585l-1.139,0.426l-0.721,0.407l-0.334,0.339l-0.213,0.503l0.01,0.673l-0.086,0.702l-0.219,0.658
		l-0.387,0.339l-0.432,0.261l-0.377,0.14l-0.654,0.131L136-73.092l-1.566-0.058l-1.471-0.179l-0.707,0.097l-1.133,0.387
		l-0.746,0.208l-0.734,0.247l-0.389,0.377l-0.125,0.382l-0.102,0.392l0.102,0.286l0.309,0.358l0.209,0.402l0.15,0.562l0.029,0.469
		l-0.117,0.426l-0.145,0.426l-0.203,0.348l-0.213,0.508l-0.145,0.464l-0.281,0.538l-0.33,0.46l-0.492,0.295l-0.68,0.446
		l-0.459,0.024l-0.479,0.02l-0.639-0.136l-0.93-0.116l-0.789,0.169l-0.982,0.276l-0.557,0.334l-0.523,0.411l-0.482,0.455
		l-0.277,0.421l0.049,0.238l0.311,0.097l0.115,0.237l-0.098,0.232l-0.488,0.412l-1.035,0.397l-1.109,0.663l-0.648,0.687
		l-0.436,0.527l-0.449,0.615l-1.002,1.142l-0.93,0.905l-0.494,0.412l-0.57,0.45l-0.305,0.344l-0.209,0.503l-0.072,0.392
		l-0.213,0.387l-0.367,0.223l-0.658,0.097h-0.959h-1.123l-0.363,0.135l-0.521,0.338l-0.252,0.305l-0.295,0.31l-0.15,0.266
		l-0.328,0.261l-0.65,0.058l-0.203,0.194l-0.135,0.305l-0.029,0.232l-0.154,0.585l-0.311,0.46l-0.396,0.537l-0.33,0.417
		l-0.492,0.455l-0.33,0.343l-0.91,0.363l-0.881,0.087l-1.293-0.01l-1.127,0.078l-0.822-0.146l-0.406-0.213l-0.629-0.339
		l-0.842-0.658l-0.713-0.537l-0.449-0.291l-0.818-0.213l-0.416-0.015l-0.32,0.068l-0.383,0.262l-0.436,0.377l-0.445,0.615
		l-0.541,0.726L93.734-48.5l-0.383,0.305l-0.369,0.102l-0.312-0.009l-0.354-0.131l-0.268-0.324l-0.357-0.048l-0.645-0.024
		l-0.727,0.174l-0.598,0.097l-0.428,0.063l-0.455-0.019l-0.58-0.295l-0.727-0.538l-0.629-0.295l-0.59-0.068l-0.479,0.068
		l-0.723,0.324l-1.035,0.474l-0.842,0.281l-1.08,0.16l-1.199,0.149l-1.061-0.039l-1.123-0.078l-0.678-0.256l-0.682-0.339
		l-0.621-0.261l-0.832-0.029l-0.783,0.125l-0.648,0.097L73.73-48.47l-0.678,0.566l-1.064,1.026l-0.543,0.688l-0.299,0.382
		l0.105,0.358l0.271,0.208l0.279,0.363l0.146,0.436l0.039,0.475l-0.373,1.007l-0.537,0.61l-0.426,0.217l-0.59,0.324L69.248-41.7
		l-0.6-0.019l-0.832-0.146l-0.832-0.203l-0.549-0.102l-0.613,0.005l-0.301,0.136l-0.213,0.275l-0.082,0.426l-0.092,0.745
		l-0.107,0.915l-0.105,0.484l-0.33,0.363l-0.502,0.266l-0.73,0.174l-0.936,0.315l-1.137,0.416l-0.426,0.324l-0.703,0.9l-0.426,0.499
		l-0.459,0.387l-0.615,0.208l-0.793,0.053l-2.377-0.082l-0.924-0.155L53.268-35.8l-1.641-0.315l-0.297,0.344l-0.596,0.261
		l-0.469,0.049l-0.514-0.126l-0.512-0.184l-0.445-0.116l-0.305,0.053l-0.174,0.058l-0.209,0.193l-0.402,0.15l-0.566,0.097
		l-0.721-0.174L45.9-35.843l-0.648-0.46l-0.727-0.324l-0.619-0.111l-0.369,0.009l-0.512-0.048l-0.465-0.295l-0.436-0.407
		l-0.422-0.731l-0.406-0.546l-0.604-0.431l-0.514-0.208l-0.805-0.078l-1.082-0.029l-0.553,0.122l-0.16,0.13l-0.004,0.242
		l0.145,0.484l-0.02,0.344l-0.223,0.256l-0.514,0.242l-0.449,0.077l-0.488-0.077l-0.447-0.136h-0.338l-0.514,0.073l-1.334,0.251
		l-1.791,0.112l-1.006-0.092l-0.57-0.034l-1.229,0.073l-0.861-0.068l-0.775-0.247l-0.232-0.198l-0.044-0.291l0.077-0.678v-0.934
		l-0.058-0.653l0.085-0.465l0.034-0.406l0.157-0.373L27.252-42l-0.044-0.203l-0.131-0.141h-0.435l-0.7,0.116l-1.164,0.223
		l-1.438,0.135l-0.474,0.107l-0.338,0.164l-0.204,0.218l-0.104,0.445l-0.312,0.746l-0.515,0.75l-0.574,0.765l-0.332,0.271
		l-0.308,0.048l-0.452-0.053l-0.436-0.358l-0.228-0.305l-0.298-0.14l-0.946-0.237l-1.498-0.329l-1.135-0.228l-0.598-0.16
		l-1.13-0.083l-0.736,0.155l-1.019,0.31l-0.939,0.106l-0.43-0.087l-0.271-0.092l-0.516-0.445l-0.68-0.581l-0.752-0.591L7.66-41.792
		l-0.337-0.02l-0.302,0.102l-0.157,0.111L6.556-41.52l-0.174-0.078l-0.01-0.188l0.071-0.281l0.307-0.581l0.322-1.233l0.298-1.196
		l0.078-0.896l-0.043-0.45l-0.104-0.324l-0.307-0.377l-0.874-1.05l-0.464-0.508l-0.833-1.002l-0.595-0.542l-0.903-0.595
		l-0.852-0.683l-0.898-0.595l-0.549-0.518l-0.336-0.528L0.399-53.79L0.31-54.124l0.019-0.082l0.204-0.068h0.145L1-54.351
		l0.293-0.107l0.724-0.28l0.317-0.194l0.515-0.3l0.402-0.286l0.251-0.281l0.104-0.315l0.515-0.411l0.753-0.503L5.36-57.27
		l0.516-0.377l0.203-0.199l0.237-0.334l0.235-0.464l0.232-0.625l0.084-0.784l0.068-0.542l0.08-0.198l0.298-0.266l0.189-0.136
		l0.099-0.257l-0.099-0.281l-0.15-0.13L7.076-61.82l-0.387,0.198L6.07-61.166l-0.417,0.204l-0.363,0.034l-0.332-0.077l-0.312-0.233
		l-0.554-0.363l-0.491-0.344l-0.61-0.319l-0.515-0.338l-0.521-0.15l-0.866-0.179l-1.953-0.145l-1.041-0.034l-0.803-0.213
		l-0.516-0.204l-0.397-0.387l-0.407-0.542l-0.332-0.615l-0.307-0.45l-0.157-0.295l-0.571-0.837l-0.426-0.324l-0.481-0.451
		l-0.767-0.348L-7.4-67.986l-0.15-0.291l-0.346-0.314l-0.43-0.354l-0.07-0.121l-0.029,0.015l-0.912,0.658l-0.978,0.813l-0.653,0.46
		l-0.833,0.44l-0.883,0.295l-1.391,0.513l-0.978,0.518l-1.084,0.721l-0.6,0.508l-0.426,0.518l-0.446,0.765l-0.571,0.741
		l-0.382,0.455l-0.421,0.518l-0.198,0.455l-0.104,0.586l-0.167,0.368l-0.254,0.218l-0.459,0.135l-0.694,0.029l-0.308,0.174
		l-0.143,0.199l-0.194,0.625l-0.188,0.803l-0.169,0.648l-0.366,0.561l-0.511,0.271l-0.377,0.199l-0.37,0.131l-0.317,0.005
		l-0.269-0.102l-0.382-0.213l-0.692-0.314l-0.496-0.169l-0.259,0.01l-0.138,0.087l-0.139,0.208l-0.269,0.672l-0.336,0.934
		l-0.521,0.954l-0.232,0.673l-0.59,0.586l-0.6,0.527l-0.932,0.44l-0.941,0.315l-0.377,0.242l-0.371,0.411l-0.542,0.397l-1.121,0.334
		l-0.738,0.078l-0.688-0.044l-0.813-0.145l-0.743-0.145l-1.314-0.048L-38.55-50l-0.54,0.135l-0.552,0.305l-0.474,0.46l-0.368,0.677
		L-41-47.314l-0.278,0.499l-0.143,0.091l-0.322,0.025l-0.529-0.296l-0.308-0.363l-0.133-0.256l-0.179-0.131l-0.486-0.145
		l-0.431,0.004l-0.327,0.054l-0.576,0.174l-0.36,0.092l-0.538,0.073l-0.757,0.029l-0.605,0.053l-0.232,0.024l-0.426,0.13
		l-0.169,0.073l-0.307,0.15l-0.228,0.155l-0.198,0.199l-0.09,0.436l-0.307,0.106l-0.402,0.232l-0.515,0.32l-0.516,0.155
		l-0.702,0.106l-0.516,0.005l-0.234-0.029l-0.337-0.213l-0.312-0.329l-0.266-0.15l-0.382-0.193l-0.571-0.412l-1.046-0.793
		l-0.678-0.557l-0.442-0.315l-0.417-0.111l-0.351-0.015l-0.458,0.073l-0.286,0.136l-0.298,0.188l-0.213,0.218l-0.104,0.344
		l-0.194,0.271l-0.307,0.314l-0.307,0.169l-0.436,0.083l-0.203,0.087l-0.104,0.136v0.184l0.084,0.15l0.257,0.184l0.392,0.363
		l0.158,0.267l0.065,0.333l-0.034,0.315l-0.089,0.426l-0.184,0.484l-0.104,0.667l-0.089,0.683l-0.322,0.934l-0.368,1.017
		l-0.308,0.59l-0.445,0.488l-0.578,0.407l-0.516,0.251l-0.453,0.232l-0.133,0.121l-0.188,0.363l-0.356,0.871l-0.303,0.484
		l-0.283,0.333l-0.387,0.237l-0.426,0.189l-0.446,0.087l-0.307,0.068l-0.382,0.189l-0.45,0.406l-0.685,0.755l-0.867,0.973
		l-0.317,0.237l-0.244,0.049l-0.152-0.029l-0.213-0.131l-0.501-0.324l-1.196-0.711l-0.979-0.571l-0.913-0.474l-0.883-0.319
		l-0.494-0.208l-0.283-0.179l-0.169-0.213l-0.242-0.266l-0.108-0.281l-0.199-0.232l-0.237-0.15l-0.501-0.146l-0.643-0.174
		l-0.651-0.208l-0.917-0.31l-0.43-0.242l-0.179-0.15l-0.191-0.295l-0.203-0.431l-0.194-0.305l-0.244-0.164l-0.302-0.063h-0.252
		l-0.321,0.068l-0.228,0.305l-0.1,0.45l-0.05,0.663l0.065,0.489l-0.104,0.228l-0.327,0.387l-0.344,0.513l-0.395,0.939l-0.397,1.083
		l-0.373,0.954l-0.37,0.513l-0.566,0.441l-0.724,0.256l-0.932,0.228l-1.055,0.092l-0.823-0.058l-0.729-0.141l-0.431-0.13
		l-0.724-0.319l-0.308-0.184l-0.264-0.194l-0.174-0.3l-0.073-0.314l-0.217-0.412l-0.245-0.295l-0.288-0.315l-0.678-0.475
		l-0.54-0.179l-0.532-0.102l-0.436,0.092l-0.303,0.3l-0.554,0.537l-0.247,0.702l-0.104,0.687l0.063,0.528l0.089,0.431l-0.019,0.184
		l-0.08,0.15l-0.382,0.204l-1.135,0.363l-1.491,0.344l-0.956,0.145l-0.5,0.024l-0.535-0.024l-0.307,0.048l-0.24,0.121l-0.53,0.392
		l-0.515,0.333l-0.748,0.281l-0.581,0.121l-0.583,0.005l-0.453-0.063l-0.327-0.149l-0.371-0.18l-0.438-0.275l-0.823-0.305
		l-0.583-0.247l-0.327-0.324l-0.263-0.087l-0.124,0.039l-0.09,0.199l-0.014,0.251l-0.141,0.402l-0.307,0.421l-0.375,0.267
		l-0.477,0.223l-0.227,0.155l-0.148,0.169l-0.126,0.3l-0.104,0.648l0.05,0.75l0.015,0.881l-0.015,0.45l-0.099,0.319l-0.015,0.499
		l-0.075,0.189l-0.113,0.135l-0.387,0.14l-1.012,0.228l-1.268,0.179l-0.455,0.005l-0.557,0.136l-0.748,0.159l-1.59,0.063
		l-0.605,0.024l0.932,1.767l-0.165,1.19l-0.034,0.242l-0.119,0.155l-0.239,0.256l-0.39,0.305l-0.411,0.213l-0.334,0.343
		l-0.133,0.242l-0.029,0.223l0.104,0.179l0.228,0.242l0.128,0.092l0.718,0.174l0.833,0.193l0.733,0.262l0.789,0.242l0.733,0.261
		l0.605,0.281l0.382,0.165l0.172,0.097l0.467,0.344l0.397,0.319l0.256,0.31l0.431,0.528l0.334,0.46l0.193,0.271l0.218,0.228
		l0.302,0.232l0.271,0.058h0.228l0.368-0.126l0.738-0.402l0.658-0.333l0.935-0.237l0.721-0.106l0.264-0.029l0.446,0.044l0.457,0.034
		l0.421,0.015h0.615l0.857,0.019l0.382,0.131l0.242,0.146l0.133,0.16l0.099,0.213l0.041,0.242l-0.099,0.242l-0.024,0.188
		l-0.037,0.228l0.061,0.194l0.09,0.228l-0.015,0.16v0.208l-0.065,0.363l-0.01,0.387l0.07,0.523l0.143,0.475l0.169,0.455l0.247,0.494
		l0.412,0.62l0.341,0.44l0.288,0.392l0.198,0.228l0.119,0.286l0.104,0.247l0.004,0.325l-0.099,0.348L-97.47-6.89l-0.327,0.46
		l-0.148,0.343l-0.06,0.276l-0.015,0.228l0.104,0.319l0.257,0.232l0.25,0.126l0.387,0.005l0.521,0.087l0.663,0.208l0.823,0.28
		l-2.082,2.256l1.793,0.499l1.021,0.333l1.045,0.247l0.883,0.334l0.856,0.373l0.888,0.412l1.041,0.547l0.786,0.392l0.799,0.305
		l1.154,0.407l0.951,0.377l1.29,0.373l0.917,0.373l0.516,0.247l0.351,0.223l0.368,0.305l0.464,0.528l0.552,0.62l0.511,0.61
		l0.564,0.658l0.184,0.329l0.085,0.455l0.062,0.809L-80,8.578l-0.015,0.803l-0.062,0.348l-0.15,0.629l-0.094,0.494l-0.015,0.455
		l-0.009,0.73l-0.075,0.635l-0.099,0.522l-0.044,0.489l-0.119,0.455l-0.193,0.455l-0.133,0.522l-0.259,1.031l-0.114,0.368
		l-0.048,0.247l0.043,0.247l0.104,0.247l0.246,0.179l0.453,0.213l0.842,0.14l1.15,0.165l0.363,0.053l0.276,0.145l0.046,0.261
		l0.043,0.286v0.208l-0.104,0.174l-0.153,0.102l-0.298,0.208l-0.278,0.155l-0.138,0.261l-0.235,0.455l-0.104,0.3l0.036,0.208
		l0.124,0.155l0.228,0.16l0.491,0.106l0.36,0.034l0.382,0.019l0.516,0.005l0.308-0.034l0.458,0.02l0.724,0.199l0.593,0.179
		l0.288,0.194l0.204,0.314l0.155,0.334l0.104,0.3L-74.18,23l-0.041,0.209l-0.104,0.377l-0.232,0.582l-0.128,0.436l-0.056,0.406
		l-0.063,0.576l0.039,0.449l0.104,0.857l-0.237,1.143l-0.293,0.676l0.104,0.215l0.189,0.145l0.203,0.258l0.143,0.338l0.046,0.357
		l0.044,0.566l0.273,0.818l-0.015,0.396l-0.104,0.295l-0.358,0.451l-0.515,0.381l-1.278,0.621l-1.428,0.615l-0.506,0.266
		l-0.308,0.16l-0.223,0.289l-0.16,0.537l-0.034,0.543l0.317,0.479l0.322,0.416l0.941,0.609l0.978,0.455l0.881,0.475l0.888,0.6
		l0.847,0.936l1.154,1.002l1.017,1.258l1.001,1.254l0.729,1.078l0.198,0.445l0.515,0.461l1.546,0.688l0.951,0.328l0.942,0.156
		l1.035-0.107l0.676-0.252l1.268-0.629l1.155-0.764l1.2-0.873l0.856-0.832l1.145-0.717l0.946-0.748l0.978-0.582l0.713-0.354
		l0.644-0.131l0.757,0.111l1.399,0.6l1.694,0.785l1.06,0.242l1.072-0.223l0.767-0.561l1.3-0.732l1.229-0.521l0.847-0.373
		l0.876-0.203l0.552,0.121l0.474,0.445l0.486-0.059l0.867-0.432l0.774-0.566l0.648-0.129l0.794,0.01l0.625,0.348l0.585,0.479
		l0.417,0.611l0.024,0.344l-0.15,0.711l-0.196,0.639l0.158,0.773l0.462,0.906l0.38,0.488l0.808,0.406l0.585,0.479l0.709,0.727
		l0.361,0.77l-0.039,0.562l-0.283,0.223l-0.5,0.289l-0.133,0.252l-0.104,0.553l0.242,0.73l0.864,1.748l0.51,1.021l0.218,1.02
		l0.053,0.697l-0.015,0.209l-0.155,0.217l-0.484,0.242l-0.145,0.213l-0.109,0.396l-0.157,0.533l-0.188,0.484l-0.133,0.184
		l-0.733,0.576l-0.566,0.367l-0.516,0.553l-0.322,0.459l-0.228,0.479l-0.124,0.537l-0.051,0.697l-0.043,0.803l0.089,0.654
		l0.213,0.648l0.545,0.91l0.505,0.639l0.601,0.602l0.256,0.371l0.094,0.305l-0.108,0.359l-0.516,0.488l-0.505,0.514l-0.341,0.488
		l-0.332,0.697l-0.443,1.17l-0.425,1.25l-0.37,0.934l-0.308,0.471l-0.401,0.361l-0.269,0.326l-0.283,0.783l-0.232,1.291
		l-0.118,0.494l-0.308,0.504l-0.496,0.6l-0.798,0.596l-1.779,1.293l-1.338,0.928l-0.748,0.504l-0.595,0.18l-0.327,0.141
		l-0.289,0.256l-0.624,0.707l-0.9,0.861l-0.522,0.41l-0.639,0.068l-0.653-0.145l-0.595-0.068l-0.421,0.301l-0.279,0.436
		l-0.365,0.311l-0.823-0.01l-0.354,0.092l-0.331,0.275l-0.015,0.6l0.292,0.562l0.247,0.439l-0.043,0.311l-0.084,0.271l-0.184,0.207
		l-0.308,0.209l-0.346,0.062l-0.477-0.074l-0.932-0.172l-0.768-0.141l-0.346-0.045l-0.155,0.107l-0.104,0.324l-0.307,0.852
		l-0.213,0.701l-0.247,0.408l-0.452,0.396l-0.407,0.648l-0.385,0.721l-0.324,0.674l-0.516,0.656l-1.149,0.936l-0.724,0.541
		l-0.734,0.396l-0.837,0.305l-0.605,0.111l-0.474,0.068l-0.383,0.164l-0.288,0.252l-0.307,0.717l-0.242,0.471l-0.208,0.41
		l-0.254,0.262l-0.489,0.207l-0.799,0.176h-0.757l-0.675-0.006l-0.317-0.105l-0.075-0.189l-0.104-0.203l-0.162-0.145l-0.515-0.01
		l-0.412,0.01l-0.562-0.059l-0.392-0.193l-0.247-0.408l-0.138-0.217l-0.135-0.043l-0.337,0.174l-0.316,0.527l-0.564,0.678
		l-0.525,0.35l-0.62,0.285l-0.641,0.076l-0.791-0.109l-0.922-0.074l-0.685,0.062l-0.619,0.422l-1.007,0.76l-0.818,0.514
		l-0.932,0.717l-0.664,0.555l-0.6,0.746l-0.492,0.672l-0.781,1.342l-0.724,1.254l-0.595,1.162l-0.402,0.793l-0.218,0.842
		l0.015,0.504l0.288,0.275l0.937,0.281l0.436,0.494l0.24,0.688l-0.08,1.039l-0.119,0.576l-0.288,0.494l-0.431,0.184l-0.505,0.176
		l-0.431,0.037l-0.329,0.029l-0.516,0.098l-0.361,0.236l-0.382,0.586l-0.421,0.576l-0.307,0.494l-0.312,0.207L-88.018,113
		l-1.026,0.408l-0.997,0.443l-0.798,0.494l-0.811,0.514l-0.278,0.328l-0.109,0.402l-0.046,0.557l0.235,0.441l0.322,0.391
		l0.208,0.398l0.048,0.26l-0.063,0.307l-0.218,0.309l-0.448,0.219l-0.535,0.439l-0.515,0.514l-0.298,0.537l-0.148,0.387l-0.184,0.74
		l0.169,0.383l0.327,0.508l0.307,0.461l0.133,0.488l-0.143,0.508l-0.329,0.668l-0.3,0.852l-0.174,0.982l-0.179,1.264l-0.029,0.914
		L-93.915,129.104"/>
</g>
<g id="Layer_1_1_">
</g>
</svg>
