<?xml version="1.0" encoding="utf-8"?>
<!-- Generator: Adobe Illustrator 16.0.4, SVG Export Plug-In . SVG Version: 6.00 Build 0)  -->
<!DOCTYPE svg PUBLIC "-//W3C//DTD SVG 1.1//EN" "http://www.w3.org/Graphics/SVG/1.1/DTD/svg11.dtd">
<svg version="1.1" id="Layer_1" xmlns="http://www.w3.org/2000/svg" xmlns:xlink="http://www.w3.org/1999/xlink" x="0px" y="0px"
	 width="301.122px" height="195.754px" viewBox="-136.877 -88.825 301.122 195.754"
	 style="enable-background:new -136.877 -88.825 301.122 195.754;" xml:space="preserve">
<g id="Layer_21">
	<path id="Batagram" style="fill:#CCCCCC;stroke:#FFFFFF;stroke-width:1.15;" d="M-112.745,8.248L-112.745,8.248l-1.829,3.195
		l-0.231,1.456l-0.232,1.327l-1.408,6.345l1.052,3.303l-0.431,3.496l1.613,2.233l0.475,1.544l-0.222,1.188l-0.631,2.126
		l-2.008,10.457l0.076,1.445l0.442,0.961l0.949,0.853l2.951,1.618l0.588,0.938l0.551,0.95l-0.442,2.924l-0.917,4.102l-0.885,3.409
		l-0.771,4.673l0.043,2.17l-0.232,5.104l0.443,0.529l1.402,0.173l0.231,0.733l-0.296,3.55l0.151,1.23l0.037,3.259l0.297,1.22
		l0.167,0.183l2.417,2.764l0.179-0.044l0.231,0.658l0.762,1.846l2.309,2.277L-106,92.529l0.107-0.056l1.063,1.048l0.167,0.075
		l0.686,0.453l1.435,0.939l1.899,1.295l1.656,2.028l1.517,1.382l1.382,0.615l2.477-2.062l2.12-0.615l1.856-0.496l0.771-0.519
		l0.291-0.216l2.515-2.417l0.167-0.151l1.214-1.209l1.128-0.054l1.866,0.313l0.788,0.312l0.783,0.27l0.631,0.227l2.233,0.67
		l2.035,0.205l2.524-0.173l0.534-0.529l1.025-1.197v0.043l1.203-0.885l1.382-1.004l0.652-1.025l0.686-0.507l0.663-0.151l1.215,0.141
		l2.665,0.389l1.921-0.572l0.442-0.107l1.737,0.27l0.054,0.011l0.011,0.011l0.653,0.799l0.475,0.614l0.254,0.95l0.011,0.021
		l0.253,0.507l0.454,1.458l0.231,0.636l0.442,0.853l0.686,1.339l0.599,1.208l1.068,1.63l0.232,0.345l0.577,0.993l0.308,0.237
		l0.231,0.161l0.885,0.238h0.033l0.453-0.011l1.16-0.021h0.231l1.371,0.355l1.116,0.821l1.149,0.496l1.899,0.237l2.19-0.259
		l3.658-0.248l2.132-0.336l1.921-0.992l1.904-0.853l0.476-0.227l1.159-0.625l1.225-0.95l0.422-0.389h0.011l0.685-1.047l0.372-0.917
		l0.26-0.54v-0.917l0.064-0.724l0.097-0.949l-0.34-1.155l-1.148-1.661l0.011-0.669l0.021-1.607l0.254-3.81v-1.402l-0.582-0.379
		l0.011-0.086l0.518-2.18v-0.012l-0.021-1.101l0.118-0.582l-0.107-0.453l0.086-0.604l0.313-0.755l0.265-0.453l0.264-0.335
		l0.043-0.432V74.97l-0.167-0.928l0.022-0.842l0.221-0.723l2.212-1.985l0.021-0.012l1.053-0.809l0.782-0.648l0,0l0.231-0.204
		l1.015-1.317l0.734-0.949l0.868-0.766l0.896-0.811h0.012l0.242-0.248h0.011l0.06-0.042l0.021-0.022h0.011l0.383-0.258l0.777-0.562
		l1.015-0.561l1.052-0.453l2.002-0.972l1.149-0.69l1.511-0.82l1.149-0.389l1.435-1.263l1.106,0.281l4.43,1.101l8.79,0.303
		l8.287,0.248l1.775-0.303l0.664-0.118l0.124-2.364l-0.081-2.212l-0.064-2.654l0.199-2.773l0.652-2.536l0.286-0.971l1.192-1.835
		l2.257-1.445l1.315-1.339l1.047-3.378l0.021-1.446l0.011-1.413l-0.274-1.339l-1.183-1.736l1.867-5.029l1.608-3.032l0.69-2.331
		l0.647-1.672l2.763-1.576l1.176-0.227l1.564-2.018l0.475-0.799l2.126-1.727l-0.269-1.187l-0.54-0.875l-1.598-1.845l-0.83-1.338
		l-1.284-2.32L29.923,5l-0.379-1.684l1.879-2.018l1.219-1.155l3.582-1.284l3.346-1.468l2.072-1.047l2.816-1.046l4.37-1.068h2.558
		l3.637-0.249l2.256-0.377h13.338l4.846,0.421l4.035,0.486l4.598,3.798l5.223,0.766l2.849,1.899l4.036,1.727l7.338,1.058
		l5.116,0.173l2.071-1.349l0.949-1.414l-0.118-1.425l-0.206-3.205l0.227-1.458l0.228-0.971l0.518-1.564l0.227-0.399l0.745-0.691
		l0.701-0.604l2.428-0.464l0.616-0.043l2.362-0.367l4.544-0.68l2.988-0.453l3.939-0.616l0.227-0.054l1.111-0.647l0.594-1.37
		l-0.021-1.036l0.01-0.928l0.012-1.554l0.259-1.521l0.367-1.068l0.236-0.604l0.443-1.187l1.154-0.723l1.608-1.036l1.521-0.939
		l0.928-0.853l0.776-0.831l0.896-0.842l0.68-0.982l1.144-1.586l1.522-1.695l0.571-0.766l0.799-0.777l0.733-0.701l0.777-0.68
		l1.316-0.831l1.576-1.036l0.906-0.669l0.82-0.497l1.65-0.96l0.378-0.237l0.885-0.442l1.09-0.507l1.544-0.496l0.744-0.669
		l0.528-1.36l0.021-0.076l-0.712-1.003l-0.227-0.917l-0.097-1.014l-0.012-1.025l-0.227-0.917l-0.227-1.435l-0.227-1.252
		l-0.475-1.381l-0.14-0.464l-0.108-0.486l-0.68-1.294l0.723-0.832l0.68-0.69l0.993-0.906l-4.792-0.313l-4.51-0.345l-2.266-0.022
		l-2.525-0.086l-1.878,0.464l-2.871,0.691h-1.813l-2.395,0.032l-3.453-1.068l-1.598-0.637l-3.097-0.96l-0.098-0.011l-2.309-1.877
		l-1.878-1.878l-2.849-2.309l-0.724-0.594l-1.133-0.69l-2.839-1.165l-2.622-1.123l-2.536-0.011l-4.802,0.928l-4.78-0.615
		l-4.393-0.863l-4.272-0.841l-3.151-0.432l-2.083,0.292l-3.831,0.571l-2.85,0.832l-2.309-0.562l-6.497,1.856l-4.143,0.583
		l-3.044,0.28l-3.453-0.367l-3.561,0.993l-3.777,0.939l-2.428,0.184l-1.607-0.108l-2.828-1.489l-2.72,0.583l-1.188,0.82
		l-5.146,2.104l-3.119-0.497l-0.669-0.27l-0.712-0.442l-0.949-1.543l-0.238-0.907l-0.248-1.122l-0.41-0.993l0.248-2.018l-0.68-1.813
		l-2.126-0.227l-0.68-0.075l-2.062,0.55l-1.057-0.086l-0.217-0.011l-2.422-0.917l-1.236,1.284l-3.993,2.331l-0.739,0.432
		l-1.349,0.41l-1.613-0.173l-0.971-0.054l-1.203,0.054h-0.113H9.872l-1.316,0.097l-1.866,0.529l-0.222,0.043l-1.613,0.582
		l-2.056,0.076l-1.16,0.076l-2.498-0.011l-4.327,0.065l-1.23,0.172l-2.007,0.27h-0.271l-2.994-0.065l-4.052-0.086l-3.249-1.22
		l-0.577-0.518l-0.421-0.334l-1.402-1.155l-2.773-1.791l-1.581-0.766l-0.604-0.324l-2.573-1.651l-1.393-1.608l-0.896-2.05
		l-0.729-1.554l-1.926-0.885l-2.277-0.69l-1.667-0.648l-3.69-2.071l-1.728-0.896l-2.05-0.712l-0.998-0.064l-1.56,0.118l-2.53,0.216
		l-4.44,0.529l-1.479-0.043l-2.067,0.367l-3.351,1.154l-1.457,0.399l-2.74,0.853l-2.32,0.626l-2.045,0.021l-1.268,0.453
		l-3.448-0.334l-0.853-0.076l-3.825,1.176l-1.614,1.684l-0.075,0.033l-0.355,0.367l-1.953,1.079l-1.948,0.907l-0.637,0.431
		l-0.356-0.118l-0.609,0.107l-0.658,0.097l-2.434,0.68l-0.674,0.195l-1.76,0.431L-94-73.388l-2.995,0.442l-3.636,0.399l-0.74,0.086
		l-1.635,0.216l-1.062-0.011l-0.178,0.043l-0.454,0.129l-0.685,0.766l-0.562,1.328l-0.96,1.058l-3.098,1.349l-1.445,1.122
		l-1.183,0.745l-2.066,0.712l-0.696,0.518l-1.283,1.295l-2.153,1.575l-0.539,0.205l-0.222,0.033l-1.527-0.475l-0.043-0.011
		l-2.045-0.659l-0.188-0.064l-0.848-0.389l-0.545-0.464l-0.308,0.874l-0.399,1.015l-0.814,0.561l-1.16,0.993l-1.03,1.09
		l-0.718,0.885l-0.696,0.896l-0.485,0.96l-0.453,1.252l-0.346,1.046l-0.118,1.425l0.075,0.69l0.453,1.144l1.646,1.003l1.296,0.421
		l1.148,0.162l1.328,0.291l0.231,0.054l1.333,0.043l2.477,0.981l1.592,0.69l0.323,0.195l1.134,0.043l0.966,0.475l1.149,0.68
		l1.046,0.464l2.245,0.227l1.128-0.701l1.338,0.55l2.498,1.101l0.847,0.766l1.781,1.694h0.318l0.421-0.475l1.613,0.464l1.349-0.464
		l1.548,1.036l2.143,0.054l0.863,0.086l0.141,0.011l0.335-0.086l1.591,0.583h0.011l0.993,0.367l1.635,0.616l0.885,0.334l1.338,1.295
		l1.171,1.187l0.433,0.917l1.667,1.414l2.973,1.349l1.446,0.475l0.906,0.291l4.376,0.594l1.77,0.172l2.374,0.119l3.502,0.788
		l1.506,0.334l0.852,1.705l0.012,0.95l1.149,2.32l0.184,1.08l-0.012,2.083l-0.928,0.841l-0.329,1.025l-0.464,1.187l-1.149,1.446
		l-1.846,2.233l-2.509-0.345l-2.088,0.258l-0.961-0.01l-1.538-0.421l-1.105-0.432l-1.139-0.604l-1.354-0.237l-0.399,0.075
		l-0.664,0.281l-1.446,0.604l-0.81,0.637l-0.971,0.777l-0.961,0.723l-1.041,0.604l-1.592,0.475l-1.37-0.011l-2.019,1.554
		l-1.872,0.313l-1.996-0.27l-0.686,0.032l-2.31,0.95l-0.696,1.058l-0.377,0.874l-0.971,1.899l-0.168,1.187l-0.507,1.328l0.242,4.554
		l0.34,1.931l-0.329,0.399l-0.75,0.874l-0.356,0.205l-1.057,0.313l-0.998,0.27l-2.692,0.777l-1.441,0.453l-2.838,1.813
		L-112.745,8.248"/>
</g>
<g id="Layer_1_1_">
</g>
</svg>
