<?xml version="1.0" encoding="utf-8"?>
<!-- Generator: Adobe Illustrator 16.0.4, SVG Export Plug-In . SVG Version: 6.00 Build 0)  -->
<!DOCTYPE svg PUBLIC "-//W3C//DTD SVG 1.1//EN" "http://www.w3.org/Graphics/SVG/1.1/DTD/svg11.dtd">
<svg version="1.1" id="Layer_1" xmlns="http://www.w3.org/2000/svg" xmlns:xlink="http://www.w3.org/1999/xlink" x="0px" y="0px"
	 width="301.15px" height="218.658px" viewBox="-137.423 -99.664 301.15 218.658"
	 style="enable-background:new -137.423 -99.664 301.15 218.658;" xml:space="preserve">
<g id="Layer_130">
	<path id="Tank." style="fill:#CCCCCC;stroke:#FFFFFF;stroke-width:1.15;" d="M83.354-95.493L83.354-95.493l-1.204,0.726
		l-31.37,7.313l-10.403,3.13L17.38-80.496l-17.407,2.449l-10.1,4.875l-12.881,5.557l-13.63,5.567l-18.055,7.324l-16.073,6.964
		l-4.875,2.072l-6.272,8.36l-3.468,5.235l-24.742,16.372l-5.534,4.532l-1.756,5.556l-6.615,12.904l-3.125,7.667l-2.089,17.768
		l-1.728,13.23l-0.879,7.656l4.188,14.975l2.433,7.996l7.668,14.275l6.964,12.184l13.235,10.111l6.789,1.689l0.102-0.248
		l9.835-3.717l9.908-3.783l7.55-2.883l2.849-1.08l1.059-0.586l1.706-1.711l2.319-3.377l1.058-1.531l0.716-0.631l1.88-0.316
		l0.912-0.607l1.835-2.725l3.587-5.27l7.825-11.508l2.651-4.008l0.811-1.193l2.443-3.896l0.242-0.314l0.659-0.406l0.377-0.135
		l1.661,1.17l0.359,0.43l0.885,0.811l0.715,0.293l0.845,0.404l0.641,0.26l0.508,0.236l1.249,0.348l0.991-0.236l1.047-0.225
		l3.254-1.035l0.806-0.248l1.047-0.305h1.396l1.661,0.676l1.295,0.012l1.069,0.09l1.121,0.09l1.564-0.09l1.188,0.281l4.369,0.451
		l2.111,0.215l0.416,0.178l1.223,0.451l1.198,0.518l0.716,0.248l1.817,0.562l1.374,0.373l1.256,0.371l0.855,0.135l1.441-0.359
		l1.047,0.213l2.274,0.428l2.061-2.455l1.694-2.037l1.317-1.588l1.2-0.799l0.135-0.564l0.259-1.035v-1.035l1.283-2.68l0.45-1.914
		l0.293-1.318l0.855-1.914l1.757-1.936l1.666-1.914l1.329-1.238l0.135-0.631l0.45-2.084l0.09-0.9l0.834-0.586l1.869-1.012
		l2.477-1.352l2.274-1.701l2.241-1.205l1.182-0.596l3.107-2.197l6.509-4.029l3.761-2.32l0.585-0.99l1.013-1.51l1.284-1.059
		l2.004-0.584l2.319-2.713l4.753-5.598l-0.146-1.125l2.229-1.926l0.281-0.85l3.153-4.831l0.811-1.329l1.576-2.533l0.924-2.032
		l0.405-0.608l0.518-1.177l0.608-1.418l0.652-0.946l0.969-1.233l0.27-1.464l0.384-3.091l0.022-0.681l0.382-1.824l0.429-1.667
		l0.652-1.768l0.811-1.576l2.434-2.956l1.328-1.638l1.531-1.441l1.745-1.43l1.228-0.608l1.238-0.715l0.743-0.692l1.126-0.958
		l1.419-1.103l2.521-1.892l1.937-1.537l1.036-0.827l2.207-0.788l2.049,1.57l2.049,1.418l1.565,2.354l1.723,1.418l0.519,0.242
		l2.128,1.092l2.273,1.024l0.913,0.428l0.9,0.704l3.028,2.353l3.66,2.883l2.06,0.552l2.174,0.878l1.677,0.76l1.341,0.518
		l0.946,0.383l1.013,0.506l0.71,0.405l1.204,0.958l2.128,1.531l0.969,0.867l1.115,1.751l3.423-0.816l7.791-1.88l5.449-1.306
		l2.5-0.585l2.566-0.614l0.237-0.056l0.045-0.079l0.236-0.315l-0.473-1.21l-0.338-0.98l-0.417-1.103l-0.71-2.562l-0.235-1.351
		l-0.653-1.864l-0.428-1.294l-0.405-1.588l-0.236-2.1l-0.563-0.011l-0.36-0.242l-1.823-3.113l-1.982-2.466l-0.371-0.49l-0.619-0.968
		l-0.519-0.783l-0.675-0.805l-0.722-0.574l-0.54-0.35l-0.495-0.298l-0.405-0.36l-0.71-0.519l-0.866-0.647l-1.329-0.929l-0.417-0.315
		l-0.078-0.045l-0.541-0.67l-4.908-6.514l-3.424-4.6l-1.621-2.167l-0.293-0.405l-0.202-0.411l-0.248-0.856l0.091-0.552l0.235-1.052
		l0.237-0.653l0.259-0.36l0.09-0.816l0.191-1.176l-0.247-0.417l-0.496-0.377l-0.495-0.383l-0.428-0.332l-0.608-0.197l-1.307-0.394
		l-0.461-0.124l-2.24-0.219l-4.212-2.747l-1.216-0.771l-5.472-3.542l-0.023-0.011l-1.385-0.895l-4.255-2.736l-0.991-0.641
		l-3.502-2.669l-3.468-2.612l-2.669-2.089l-0.709-1.188l-1.238-1.408l-0.338-0.36l-0.451-0.355l-0.314-0.405l-2.5-3.434
		l-1.374-1.903l-0.945-0.991l-0.709-0.298l-0.519-0.219l-0.878-0.383l-0.845-0.45l-0.405-0.158l-0.811-0.428l-0.428-0.264
		l-0.473-0.484l-0.541-0.552l-0.518-0.946l-0.608-1.064L83.354-95.493"/>
</g>
<g id="Layer_1_1_">
</g>
</svg>
