<?xml version="1.0" encoding="iso-8859-1"?>
<!-- Generator: Adobe Illustrator 16.0.4, SVG Export Plug-In . SVG Version: 6.00 Build 0)  -->
<!DOCTYPE svg PUBLIC "-//W3C//DTD SVG 1.1//EN" "http://www.w3.org/Graphics/SVG/1.1/DTD/svg11.dtd">
<svg version="1.1" xmlns="http://www.w3.org/2000/svg" xmlns:xlink="http://www.w3.org/1999/xlink" x="0px" y="0px" width="7.673px"
	 height="7.343px" viewBox="0 0 7.673 7.343" style="enable-background:new 0 0 7.673 7.343;" xml:space="preserve">
<g id="Layer_46">
	<g id="Layer_51">
		<path id="Thatta" style="fill:#CCCCCC;stroke:#FFFFFF;stroke-width:1.07;" d="M6.904,0.87
			L6.904,0.87L6.816,0.652l-0.676-0.07L6.113,0.706l0.275,0.643L6.371,1.473l-0.23-0.081L5.879,1.636L5.633,1.707L5.195,1.679
			L4.684,1.527L4.188,1.13L4.074,1.123L2.967,1.936L2.918,2.088l-0.22,0.3L2.391,2.463L2.26,2.618L1.93,4.234l0.118,0.18l0.065,0.18
			L2.013,4.691L1.867,4.657L1.75,4.545L0.643,5.692L0.549,6.038l0.047,0.229l0.085,0.084l0.362,0.011l0.212-0.194L1.16,6.103
			L0.851,6.138l0.007-0.114L1,5.905l0.206-0.042l0.353,0.03l0.567,0.213l1.521,0.57L3.78,6.636l0.131-0.165l-0.128-0.14l-0.66-0.319
			l-0.14-0.197L2.967,5.605l0.092-0.067l0.359,0.314l0.062-0.392l0.695,0.912L4.38,6.642l0.241,0.147l0.26,0.014l0.533-0.164
			l0.193-0.146l0.188-0.339l-0.01-0.398L5.721,5.65L5.346,5.554l0.439-0.553l0.682-0.867l0.141-0.179l0.469-0.726l0.057-0.287
			L6.904,0.87"/>
	</g>
</g>
<g id="Layer_1">
</g>
</svg>
