<?xml version="1.0" encoding="utf-8"?>
<!-- Generator: Adobe Illustrator 16.0.4, SVG Export Plug-In . SVG Version: 6.00 Build 0)  -->
<!DOCTYPE svg PUBLIC "-//W3C//DTD SVG 1.1//EN" "http://www.w3.org/Graphics/SVG/1.1/DTD/svg11.dtd">
<svg version="1.1" id="Layer_1" xmlns="http://www.w3.org/2000/svg" xmlns:xlink="http://www.w3.org/1999/xlink" x="0px" y="0px"
	 width="301.621px" height="166.42px" viewBox="-117.837 -64.948 301.621 166.42"
	 style="enable-background:new -117.837 -64.948 301.621 166.42;" xml:space="preserve">
<g id="Layer_68">
	<path id="Kohlu" style="fill:#CCCCCC;stroke:#FFFFFF;stroke-width:1.15;" d="M132.794-56.806L132.794-56.806l-0.845,0.594
		l-0.846,0.432l-1.144,0.616l-1.026,0.476l-0.96,0.651l-1.488,0.678l-0.537,0.084l-0.423-0.097l-0.84-0.326l-0.656-0.075
		l-0.767,0.097l-0.343,0.207l-0.084,0.225l0.04,0.369l0.304,0.467l0.291,0.326v0.238v0.238l-0.155,0.163l-0.329,0.127l-0.621,0.036
		h-0.617l-0.655,0.07l-0.295,0.123l-0.277,0.37l-0.141,0.361l-0.193,0.203l-0.344,0.124l-0.811-0.04l-0.655-0.058l-0.463-0.163
		l-0.193-0.334l-0.11-0.194l-0.286-0.127l-0.392,0.035l-0.467,0.247l-1,0.194l-1.77-0.08l-1.488,0.097l-1.399,0.093l-1.646,0.203
		l-2.167,0.097l-2.302-0.004l-1.783-0.07l-2.791-0.044h-1.29l-1.599,0.141l-0.916-0.035l-2.504-0.031l-1.717,0.066l-1.339,0.132
		l-2.438,0.599l-1.065,0.273l-0.868,0.528l-0.492,0.563l-0.467,0.647l-0.722,0.682l-0.432,0.167l-0.647-0.036l-1.193-0.233
		l-0.572-0.07l-0.427,0.097l-0.674,0.269l-1.066,0.449l-0.845,0.291h-0.528l-0.959-0.092l-1.379-0.396l-2.161-0.612l-1.197-0.193
		h-0.814h-0.858l-0.493,0.097l-1.154,0.498l-1.144,0.66l-1.109,0.771l-0.683,0.405l-0.859,0.396l-0.527,0.167h-0.502l-1.101-0.193
		l-0.925-0.277l-1.595-0.405l-0.571,0.009l-0.422-0.128l-0.282-0.471l-0.396-0.607l-0.388-0.273h-0.272l-0.916,0.278l-1.008,0.097
		l-1.146,0.035l-1.246,0.084l-0.546,0.062l-0.611-1.453l-0.664-1.479l-0.477-0.99L51-50.779l-1.475-1.188l-1.951-1.18l-0.915-0.599
		l-0.792,0.097l-0.674,0.484l-2.369,1.285l-3.081,1.101l-2.606,0.599l-1.599,0.211l-3.066,1.092l-2.516,1.017l-3.615,3.659
		l-2.817,2.91l-3.058,2.369l-3.511,1.796l-4.878,2.003l-6.925,1.219l-6.918,0.726l-5.69,0.432l-5.675,0.238l-5.118-0.277
		l-4.788,0.436l-3.188-0.273l-0.896-0.59l-1.16-0.995l-1.941-1.057l-3.996-1.453l-3.533-1.254l-2.729-1.378l-1.49-1.458
		l-1.384-1.277l-1.449-1.135l-1.73-1.673l-2.404-2.351l-4.603-4.218l-0.121,1.356l-0.423,1.607l-0.198,1.276l-0.579,1.823
		l-0.271,1.972l-0.35,1.356l-0.497,1.488l0.05,2.008l0.146,0.726l0.092,0.594l0.081,0.696l-0.026,2.734l-0.081,1.576l0.889,1.426
		l2.005,1.189L-50.154-28l3.007,1.867l2.706,0.85l2.747,1.871l4.398,2.272l1.019,0.638l3.604,1.81l2.96,0.766l2.268,0.973
		l1.699,0.203l1.953,0.343l1.023,0.643l0.564,0.757l0.099,1.268l-1.51,3.518l-1.033,2.421l-0.138,1.404l0.449,3.663l1.2,2.562
		l0.279,1.21l-0.095,0.604l-0.878,0.642l-1.002,1.453l-1.033,2.351l-1.072,1.163l-1.979,1.628l-5.131,2.157l-5.135,2.298
		l-3.809,1.436l-1.561,0.55l-1.059,1.017l-0.65,1.101l-1.442,2.112l-1.543,2.413l-1.222,0.472l-1.875,0.021l-3.064-0.097
		l-2.463-0.29l-3.146-0.242l-5.274-0.3l-4.423-0.202l-6.227-0.26l-3.48,0.048l-1.037,0.437l-2.108,1.712l-0.777,1.224l-0.478,1.405
		l-1.406,1.079l-2.177,1.355l-2.315,0.466l-2.056,0.159l-1.118,0.423l-0.718,0.726l-0.812,1.396l-1.226,3.239L-99,38.461
		l-1.222,2.649l-2.354,4.416l-1.82,3.28l-0.396,0.766l-1.894,3.646l-2.408,3.117l-2.3,2.469l-0.54,0.82l-0.094,0.369l0.422,0.379
		l1.406,0.563l2.435,0.871l3.291,0.766l2.773,0.828l0.888,0.916l1.221,1.383l1.466,1.813l0.724,0.766l0.403,0.467l0.938,0.895
		l2.005,1.224l2.778,2.038l1.682,1.439l2.389,1.409l2.502,1.264l3.164,2.351l3.286,2.408l4.107,2.536l4.392,2.84l3.846,2.306
		l4.187,1.779l2.529,1.136l2.296,0.969l3.042,1.101l3.304,1.348l2.835,1.034l2.03,0.448l2.758,0.458l2.571,0.454h1.27l0.876-0.396
		l2.998-1.117l2.164-0.812l2.785-0.85l4.125-0.933l4.125-0.986l3.476-0.792l2.353-0.688l3.652-1.118l3.536-0.739l2.465-0.326
		l3.321,0.014l3.643,0.101l2.696,0.282l3.516,0.52l5.618,0.858l4.121,0.626l4.121,0.585l4.656,0.828l4.55,1.012l4.865,1.206
		l4.394,1.276l1.181,0.251l2.033,0.194l1.426-0.044l1.876-0.233l2.475-0.925l2.36-0.924l2.346-1.299l0.991-0.797l0.902-0.978
		l1.034-0.471l1.229-0.647l1.599-0.511l1.699-0.277l2.412-0.093l3.531,0.158l2.721,0.582l3.583,0.643l2.527,0.577l4.12,0.598
		l2.255,0.019l2.726-0.119l2.53-0.537l3.28-0.872l2.355-0.722l2.087-1.048l1.356-1.105l1.571-1.977l2.017-2.747l1.298-1.972
		l1.471-2.294l1.36-1.493l1.778-1.857l1.52-0.934l1.404-0.678l1.599-0.37l2.853-0.448l2.192-0.537l1.822-0.608l1.567-0.845
		l1.946-1.339l1.303-0.981l1.066-1.172l1.249-1.726l1.215-1.308l0.979-0.792l1.192-0.739l2.418-1.104l2.535-0.965l2.21-1.162
		l2.914-1.339l3.104-1.035l1.506-0.85l2.659-1.707l1.783-1.62l2.192-2.408l1.532-2.294l0.872-2.003l0.414-1.739l0.008-0.846
		l-0.471-1.268l-0.639-0.709l-1.188-0.436l-1.646-0.344l-2.58-0.211l-2.245-0.537l-1.718-0.718l-1.867-0.823l-1.39-1.22
		l-0.591-0.942l-0.089-1.562l-0.043-1.356l0.109-1.404l0.168-0.89l0.718-2.104l0.933-1.599l0.872-1.064l1.241-1.356l1.744-1.431
		l1.029-1.22l1.766-1.857l1.136-0.986l1.37-0.978l1.575-1.109l2.008-1.347l1.197-1.057l1.084-0.845l1.236-0.501l3.403-1.242
		l2.104-0.643l1.463-0.414l1.598-0.299l0.758,0.009l2.104,0.07l1.876,0.211l2.909,0.41l3.681,1.135l1.181-1.008l0.969-1.219
		l1.056-0.859l-1.082-0.467l-1.532-0.916l-3.224-1.211l-4.182-1.148l-4.667-0.357l-4.35,0.194l-5.159,0.621l-5.072,0.687
		l-3.641,0.762l-3.289,1.254l-3.302,1.884l-2.668,2.236l-1.761,1.414l-2.254,0.978l-2.255,0.427l-2.1,0.682l-1.946,1.127
		l-3.38,1.405l-4.355,1.598l-5.226,1.404l-4.253,0.986l-1.782,0.277h-1.69l-2.408-0.635l-2.967-0.77l-2.911-1.339l-1.937-0.295
		l-1.964-0.453l-0.309-0.229l-1.584-1.18l-2.053-1.21l-0.995-0.823l-2.06-1.642l-1.118-0.656l-2.052-0.74l-2.315-0.85l-2.726-1.312
		l-1.977-0.916l-1.471-0.96L72.37,8.572l-0.572-1.387l-0.942-1.224L69.46,4.156l-1.22-1.338l0.471-1.735l0.758-0.572l1.295-0.661
		l0.766-0.642l0.806-0.524l0.951-0.41l1.783-0.524l2.403-0.854l2.131-0.731l1.638-0.572l2.315-0.991l1.408-0.731l0.802-0.691
		l0.299-0.691l0.15-0.858l0.286-0.563l0.471-0.661l0.572-0.431l1.225-0.872l1.188-0.828l1.487-1.167l1.146-1.061l0.871-0.599
		l2.096-1.092l2.148-1.052l2.377-1.127l3.501-1.818l2.642-1.598l2.403-1.29l0.991-0.563l1.338-0.524l1.634-0.603l1.598-0.273
		l1.488-0.127l0.915-0.092l0.951-0.097l0.767-0.229l0.616-0.295l0.238-0.291l0.078-0.334l0.3-0.467l0.617-0.471l1.756-0.744
		l1.33-0.185l2.205-0.33l2.562-0.317l1.779-0.361l0.493-0.334l0.344-0.467l0.149-1.426l0.282-1.457l0.422-0.604l0.573-0.563
		l0.431-0.317l0.08-0.277l0.043-0.493l0.115-0.396l0.379-0.326l0.615-0.321l1.343-0.563l1.405-0.661l1.188-0.894l1.368-1.07
		l1.22-1.034l0.656-0.969l1.154-1.127l0.487-0.634l0.234-0.898l0.911-1.286l1.303-1.818l1.118-1.69l0.317-0.639v-0.458l-0.115-0.198
		l-0.606-0.365l-0.572-0.568l-0.379-0.484l-0.035-0.405l0.237-0.401l0.767-0.727l1.782-1.286l0.925-0.73l0.277-0.607l-0.105-0.762
		l-0.097-0.4v-0.802l-0.193-0.493v-0.163l0.272-0.405l0.916-0.722l0.845-1.224l0.089-0.406l-0.274-0.466l-0.299-0.282l-0.656-0.163
		h-0.721l-0.876-0.044h-1.035l-0.489,0.137l-0.73,0.356l-0.916,0.269l-1.304,0.471l-1.681,0.524l-1.188,0.198l-1.11,0.123
		l-0.88,0.277l-1.778,0.634l-0.881,0.233l-1.035,0.471l-1.013,0.563l-0.862,0.643L132.794-56.806"/>
</g>
<g id="Layer_1_1_">
</g>
</svg>
