<?xml version="1.0" encoding="iso-8859-1"?>
<!-- Generator: Adobe Illustrator 16.0.4, SVG Export Plug-In . SVG Version: 6.00 Build 0)  -->
<!DOCTYPE svg PUBLIC "-//W3C//DTD SVG 1.1//EN" "http://www.w3.org/Graphics/SVG/1.1/DTD/svg11.dtd">
<svg version="1.1" xmlns="http://www.w3.org/2000/svg" xmlns:xlink="http://www.w3.org/1999/xlink" x="0px" y="0px"
	 width="49.071px" height="32.501px" viewBox="0 0 49.071 32.501" style="enable-background:new 0 0 49.071 32.501;"
	 xml:space="preserve">
<g id="Layer_78">
	<g id="Layer_83">
		<path id="Neelum" style="fill:#CCCCCC;stroke:#FFFFFF;stroke-width:1.07;" d="M48.38,16.515
			L48.38,16.515l-0.17-0.064l-0.084-0.045l-0.17-0.064l-0.165-0.073l-0.113-0.083l-0.131-0.114l-0.13-0.138l-0.098-0.151
			l-0.073-0.124l-0.079-0.142l-0.045-0.124l-0.108-0.096l-0.062-0.119l-0.068-0.174l-0.051-0.202l-0.073-0.174l-0.009-0.134
			l-0.002-0.159l-0.005-0.155l-0.034-0.142L46.671,13.9l-0.108-0.128l-0.112-0.083l-0.147-0.082l-0.125-0.064l-0.107-0.105
			l-0.098-0.133l-0.112-0.114l-0.125-0.077l-0.125-0.071l-0.155-0.07l-0.121-0.062l0.098-0.179v-0.105l-0.005-0.109l-0.078-0.142
			l-0.071-0.1l-0.071-0.099l-0.11-0.012l-0.112,0.014l-0.153,0.143l-0.114,0.04l-0.135-0.014l-0.085-0.031l-0.073-0.076l-0.131-0.35
			l-0.047-0.047l0.047-0.028l0.068-0.123l-0.073-0.044l-0.134-0.013L44,11.655l-0.187,0.056l-0.102-0.044l-0.136-0.093l-0.066-0.075
			l-0.114-0.059l-0.044-0.062l-0.054-0.127l-0.028-0.146l-0.042-0.179l-0.085-0.148l-0.09-0.07l-0.108-0.019l-0.013-0.165
			l-0.041-0.094l-0.045-0.127l-0.091,0.035l-0.118,0.079l-0.093,0.081l-0.141,0.064l-0.167-0.002l-0.182-0.022l-0.157-0.047
			l-0.092-0.038l-0.09-0.076l-0.086-0.069l-0.072-0.045l-0.147-0.034l-0.126-0.073l-0.089-0.036l-0.187-0.069l-0.124-0.045
			l-0.159-0.069l-0.141-0.04l-0.139-0.053l-0.134-0.033h-0.136l-0.23,0.113l-0.163,0.108l-0.2,0.128l-0.115,0.075l-0.152,0.101
			l-0.217,0.127l-0.088-0.043l-0.164-0.047l-0.082-0.07l-0.009-0.098l0.051-0.148l0.107-0.152l0.065-0.134l0.025-0.136l0.007-0.098
			l-0.058-0.075l-0.085-0.037l-0.086-0.017L38.656,9.4l0.06-0.049l0.126-0.092l0.104-0.1V9.042l0.004-0.144l0.062-0.097l0.065-0.087
			l0.049-0.063l-0.084-0.057l-0.146-0.047l-0.145-0.148l-0.123-0.15l0.001-0.131l0.079-0.101l0.056-0.035l0.07-0.044l-0.018-0.086
			l-0.035-0.067l-0.064-0.095l-0.007-0.112l0.119-0.112l0.127-0.092l0.09-0.133l0.011-0.137l-0.05-0.168l-0.021-0.134l0.035-0.086
			l0.081-0.048l0.105-0.052l0.099-0.033l0.063-0.062l0.065-0.063l0.11-0.22l-0.149-0.119l-0.085-0.148L39.25,5.85L39.214,5.69
			l-0.002-0.085l-0.034-0.074l-0.086-0.024L39.013,5.51l-0.113,0.033l-0.102,0.054l-0.076,0.068L38.665,5.78l-0.176,0.011
			l-0.157-0.034l-0.134-0.125l-0.106-0.07l-0.075-0.05L37.87,5.433l-0.136-0.092L37.66,5.265l-0.009-0.092L37.594,5.07l-0.099-0.062
			l-0.121-0.092l-0.111-0.104l-0.007-0.119l0.027-0.162l0.038-0.188l0.052-0.155l0.074-0.083l0.093-0.067l0.1-0.054l0.008-0.085
			l-0.013-0.165l-0.021-0.151l-0.098-0.09l-0.095-0.129l-0.129-0.085l-0.175-0.12l-0.247-0.085L36.714,2.94l-0.18-0.16l-0.102-0.149
			l-0.036-0.146l0.011-0.144l0.075-0.153l-0.123-0.059l-0.116-0.052l-0.119-0.104l-0.145-0.092l-0.14-0.08l-0.112-0.044
			l-0.034-0.009l-0.034,0.043h-0.115l-0.092-0.038l-0.128-0.085l-0.169-0.043l-0.144-0.023h-0.149l-0.225,0.063l-0.251,0.022
			l-0.104-0.151l-0.17-0.186L33.99,1.173L33.9,0.993l-0.08-0.186l-0.063-0.14l-0.074,0.026l-0.081-0.019h-0.069h-0.139L33.266,0.73
			L33.12,0.959l-0.056,0.117l-0.121,0.259l-0.032,0.092l-0.032,0.141l-0.031,0.148L32.66,1.864l-0.207,0.078l-0.264,0.121
			l-0.171,0.096l-0.188,0.08l-0.047,0.165L31.57,2.555l-0.08,0.101l-0.248,0.172l-0.169,0.301l-0.251,0.307l-0.205,0.262
			l-0.028,0.06l-0.352,0.088l-0.372-0.006l-0.292-0.073L29.04,3.684L28.768,3.71l-0.429-0.145l-0.305-0.094l-0.331-0.023
			l-0.212-0.015l-0.196,0.122l-0.188,0.178l-0.103,0.093l-0.128,0.23l-0.079,0.175l-0.094,0.09l-0.104,0.076l-0.249,0.111
			l-0.162,0.042l-0.171,0.035l-0.24,0.019l-0.266-0.019l-0.162,0.047l-0.266-0.259l-0.072-0.119l-0.165-0.152l0.041-0.094
			l-0.013-0.104l0.059-0.161l0.034-0.173l-0.006-0.128l-0.03-0.13l-0.074,0.032l-0.154,0.113l-0.168,0.051l-0.201-0.004
			l-0.142-0.031l-0.127-0.029l0.003-0.142l-0.009-0.184l0.006-0.183l0.019-0.158V2.666l-0.002-0.06l-0.098-0.04l-0.113-0.029
			l-0.166-0.091l-0.038-0.062L23.62,2.453v0.106l-0.045,0.116l-0.089,0.043l-0.136-0.013l-0.144-0.013l-0.218,0.025l-0.132,0.035
			l-0.174,0.021L22.56,2.808l-0.096,0.019l-0.075,0.05l-0.151,0.016l-0.149-0.013l-0.145,0.011L21.755,2.84L21.71,2.761L21.622,2.68
			l-0.135-0.068l-0.11-0.07l-0.14-0.048l-0.121-0.018l-0.142-0.024l0.026-0.181l-0.051-0.11l-0.035-0.114L20.78,1.958l-0.092-0.011
			l-0.154-0.004l-0.121-0.004l-0.242,0.055l-0.153,0.028l-0.184,0.064l-0.182,0.019l-0.127,0.037l-0.033,0.064l-0.126,0.037
			l-0.148,0.128l-0.057,0.111l-0.071,0.06l-0.076,0.119l-0.039,0.065l-0.022,0.055l-0.044,0.037l-0.065,0.01l-0.089,0.009
			L18.71,2.919l-0.017,0.097L18.66,3.1v0.115L18.621,3.28l-0.033,0.045l-0.049,0.056l0.017,0.064v0.064l0.006,0.046L18.506,3.62
			l-0.071,0.064l-0.062,0.092l-0.05,0.055l-0.044,0.069l-0.028,0.055L18.246,4l0.044,0.064l0.055,0.037l0.057,0.019l-0.019,0.037
			l-0.055,0.046L18.29,4.226l-0.045,0.056l-0.021,0.055v0.046v0.055l0.084-0.004h0.082h0.061l0.044,0.069l0.022,0.06L18.532,4.6
			l0.039,0.046l0.044,0.037l0.021,0.069l0.021,0.06l0.039,0.027h0.055l0.121,0.027l0.1,0.037l0.121,0.041l0.095,0.023l0.12-0.019
			l0.104,0.019l0.061,0.023l0.051,0.046l0.021,0.055l0.006,0.042l0.033,0.037l0.071,0.033l0.026,0.046v0.069l-0.006,0.051
			l0.022,0.06l0.039,0.045l0.043,0.06l0.05,0.051l0.044,0.037l-0.006,0.046l-0.071,0.056l-0.055,0.037l-0.05,0.032l-0.033,0.032
			l-0.033,0.027L19.571,5.88l-0.045,0.027l-0.033,0.037L19.45,5.971l-0.057,0.028L19.36,6.025l-0.026,0.046l-0.011,0.037
			l-0.013,0.055L19.25,6.19l-0.066,0.028l-0.065,0.037L19.03,6.273h-0.088L18.798,6.26l-0.099,0.015l-0.072,0.004h-0.072
			l-0.076,0.023l-0.065,0.032l-0.05,0.023L18.33,6.361l-0.071-0.018L18.204,6.31l-0.078-0.004l-0.104,0.019h-0.076l-0.066,0.009
			l-0.082,0.019l-0.018,0.074L17.746,6.51l-0.049,0.074L17.636,6.63l-0.05,0.046L17.542,6.73l0.027,0.055l0.044,0.074L17.712,6.9
			l0.062,0.014l0.011,0.055l-0.027,0.055l-0.056,0.147l-0.027,0.046l0.011,0.055L17.707,7.3l-0.011,0.056L17.69,7.411l-0.012,0.055
			l-0.006,0.055v0.064v0.088v0.045l0.062,0.023l0.061,0.018l0.056,0.005l0.012,0.046v0.078l-0.006,0.074L17.85,8.031l-0.011,0.074
			l-0.011,0.037l0.055,0.019l0.045,0.018l-0.007,0.096v0.074l0.028,0.073l0.038,0.074l0.026,0.064l0.022,0.097l0.016,0.064
			l0.006,0.083l0.012,0.06l0.026,0.046l0.022,0.037l0.021,0.037l-0.064,0.019l-0.083,0.023l-0.116,0.051l-0.104,0.055l-0.077,0.056
			L17.59,9.251l-0.05,0.037l-0.062,0.037l-0.043,0.037l-0.033,0.037L17.369,9.44l-0.056,0.014h-0.095l-0.083,0.019L17.07,9.459
			L17,9.451h-0.078l-0.065,0.032l-0.061,0.046l-0.057,0.073l-0.021,0.064l-0.022,0.055l-0.021,0.056l-0.011,0.06v0.074l-0.011,0.074
			l-0.019,0.083l-0.011,0.119l0.011,0.074l0.022,0.073l0.005,0.106l0.012,0.05l0.043,0.033l0.033,0.046l0.039,0.037l0.021,0.046
			l0.022,0.037l0.065,0.009l0.027,0.018l0.038,0.019l-0.016,0.042l-0.039,0.051l-0.044,0.037l-0.062,0.037l-0.05,0.037l-0.061,0.027
			l-0.072,0.056l-0.088,0.037l-0.062,0.055l-0.05,0.055l-0.021,0.065v0.078l-0.018,0.074l-0.038,0.046l-0.056,0.046v0.055
			l-0.039,0.019l-0.071,0.009l-0.077,0.009l-0.104-0.014l-0.071-0.028l-0.056-0.05l-0.027-0.051l-0.05-0.037l-0.11,0.051
			l-0.065,0.042l-0.044,0.032l-0.062,0.009l-0.071-0.032l-0.138-0.046l-0.05-0.027h-0.017l0.011,0.06v0.037l-0.018,0.055
			l-0.011,0.051l-0.021,0.033l-0.038,0.037l-0.022,0.027l-0.017,0.028l-0.027,0.019l-0.05,0.027l-0.044,0.005l-0.055-0.019
			l-0.045-0.027l-0.071,0.018l-0.057,0.023l-0.026,0.027l-0.056,0.01l-0.032-0.042l-0.062-0.004l-0.055,0.028l-0.039,0.019
			l-0.066,0.027l-0.07,0.014l-0.071,0.009l-0.061-0.014l-0.066-0.023l-0.033-0.027l-0.061,0.014l-0.077,0.013l-0.062,0.014
			l-0.027,0.019l0.027,0.069l0.017,0.037l0.006,0.037l-0.006,0.055l-0.038,0.037l-0.033,0.037l-0.021,0.037l-0.027,0.037
			l-0.033,0.019l-0.017,0.055l0.032,0.056l0.022,0.046l0.005,0.046l-0.044,0.028l-0.038,0.046l-0.051,0.037l-0.011,0.064v0.046
			v0.064l-0.005,0.064L13.68,12.84l-0.021,0.055l-0.022,0.045l-0.033,0.037l-0.044,0.037l-0.045,0.027l-0.108,0.028l-0.083,0.004
			h-0.077l-0.05,0.023l-0.057,0.027l-0.061,0.019h-0.082l-0.077-0.004l-0.094-0.018l-0.057,0.018l-0.108,0.004l-0.11-0.004
			l-0.077,0.009l-0.078,0.05l-0.038,0.056l-0.026,0.042l-0.039,0.045l-0.027,0.046l0.005,0.069l0.013,0.051L12.27,13.57
			l-0.026,0.046l-0.006,0.042L12.21,13.7l-0.027,0.037l-0.055,0.028l-0.033,0.023l-0.021,0.042v0.06l-0.028,0.069l-0.016,0.037
			l-0.039,0.037l-0.071,0.022h-0.072l-0.088-0.018L11.682,14h-0.088h-0.104h-0.127l-0.032-0.037l-0.038-0.069l-0.062-0.037
			l-0.082-0.046l-0.039-0.06l-0.055-0.041l-0.104-0.009l-0.072,0.009l-0.039,0.042l-0.032,0.042l-0.027,0.027l-0.056,0.033
			l-0.044,0.022l-0.083,0.01h-0.065l-0.065,0.014l-0.066,0.014l-0.089,0.005l-0.06,0.009l-0.077,0.009h-0.088l-0.072-0.009
			L9.91,13.956l-0.083,0.037l-0.066,0.018l-0.049,0.046l-0.089,0.05L9.54,14.14l-0.104,0.036l-0.084,0.001h-0.06L9.22,14.144
			l-0.071-0.037l-0.061-0.046L9,14.029l-0.11-0.046L8.856,13.94l-0.039-0.018l-0.044,0.051l-0.049,0.028l-0.051,0.027l-0.055,0.023
			H8.574H8.514L8.497,14.13l-0.013,0.042l-0.061,0.032l-0.071,0.032L8.309,14.31l-0.033,0.056l-0.021,0.055v0.064l-0.033,0.046
			l-0.026,0.027l-0.022,0.028l-0.021,0.037l-0.013,0.055l-0.021,0.055l-0.033,0.051l-0.022,0.019l-0.038,0.018H7.98H7.915
			l-0.05,0.014l-0.066,0.014l-0.065,0.027h-0.05l-0.055-0.032l-0.056-0.041H7.502L7.44,14.84H7.39l-0.064-0.06l-0.071-0.036
			l-0.083-0.009H7.038l-0.171,0.032l-0.094,0.028l-0.115,0.037l-0.062,0.033L6.52,14.887H6.426H6.322l-0.14-0.042L6.113,14.79
			l-0.072-0.056l-0.056-0.055H5.925l-0.094,0.022l-0.05,0.028H5.704l-0.072,0.009l-0.066,0.051l-0.099,0.06l-0.062,0.055
			l-0.089,0.06l-0.081,0.055l-0.084,0.064l-0.076,0.079l-0.066,0.064l-0.055,0.069l-0.089,0.019l-0.089,0.037l-0.065,0.074
			L4.649,15.48l-0.038,0.042l-0.077,0.05l-0.027,0.046l-0.033,0.037l-0.039,0.037l-0.088-0.014L4.265,15.66l-0.088-0.004
			l-0.062,0.009l-0.021,0.087l-0.028,0.06l-0.021,0.046l-0.056,0.037l-0.062,0.028L3.873,15.96l-0.039,0.037l-0.026,0.098
			l-0.005,0.064L3.78,16.228v0.064v0.074v0.051l-0.006,0.055V16.5v0.037L3.77,16.564v0.027L3.741,16.62l-0.07,0.009l-0.083,0.028
			l-0.044,0.037L3.473,16.74l-0.05,0.055l-0.062,0.056l-0.032,0.064v0.055l-0.018,0.079l-0.017,0.055l-0.033,0.046l-0.027,0.064
			l-0.033,0.073l-0.032,0.063l-0.006,0.056v0.055v0.056l-0.045,0.11l-0.039,0.055l-0.055,0.074l-0.045,0.046l-0.038,0.046
			L2.864,17.92l-0.056,0.047l-0.062,0.05l-0.032,0.042l-0.05,0.046l-0.027,0.037l-0.066,0.026l-0.07,0.015l-0.083,0.015
			l-0.089,0.027l-0.045,0.074L2.22,18.345l-0.057,0.046l-0.061,0.046l-0.021,0.037L2.081,18.52l0.017,0.074l0.006,0.083
			l-0.006,0.077L2.07,18.852l-0.05,0.064l-0.05,0.063l-0.077,0.079L1.85,19.133L1.772,19.17l-0.065,0.019H1.603l-0.077,0.028
			l-0.062,0.055l-0.033,0.074l-0.016,0.092l-0.022,0.046v0.041l-0.028,0.032l-0.038,0.037l-0.038,0.027l-0.032,0.027l-0.045,0.046
			l-0.038,0.073l-0.012,0.055l-0.027,0.064l-0.038,0.074l-0.013,0.055v0.055v0.064l0.066,0.055l0.049,0.046l0.072,0.046l0.044,0.047
			l0.099,0.027l0.105,0.018l0.077,0.023l0.088,0.02l0.077,0.014l0.094,0.027l0.061,0.019l0.056,0.046l0.05,0.037l0.066,0.027
			l0.094-0.01l0.05,0.015l0.094,0.022l0.049,0.02l0.019,0.037l0.049,0.037l0.077,0.026l0.065,0.028l0.021,0.045l-0.011,0.064
			l-0.033,0.055l-0.044,0.056L2.46,21.064l-0.1,0.092l-0.138,0.139l-0.033,0.063l-0.056,0.074l-0.065,0.092l-0.056,0.069
			l-0.044,0.056l-0.066,0.073l-0.061,0.056L1.78,21.834l-0.088,0.063l-0.05,0.028l-0.05,0.037L1.56,21.985l-0.027,0.037
			l-0.006,0.046l-0.027,0.064v0.046l-0.032,0.046L1.41,22.27l-0.044,0.057l-0.044,0.055l-0.05,0.064l-0.061,0.073l-0.071,0.056
			l-0.039,0.045l-0.05,0.037l-0.057,0.036l-0.064,0.074L0.887,22.83l-0.039,0.037v0.027l0.017,0.051l0.033,0.042l0.044,0.056
			l0.033,0.055l0.033,0.064l0.026,0.078l0.038,0.045L1.09,23.35l0.017,0.083l0.018,0.063l0.016,0.043v0.055L1.112,23.64v0.073
			l-0.039,0.074l-0.026,0.06l-0.033,0.056l-0.038,0.037l-0.039,0.055l-0.05,0.073l-0.021,0.063l-0.032,0.064L0.8,24.27l-0.039,0.072
			l-0.027,0.056l-0.05,0.037l-0.021,0.026l0.015,0.022l0.019,0.021L0.7,24.522l0.003,0.021l0.006,0.021l0.005,0.031l0.014,0.025
			l0.016,0.026l0.018,0.062l0.011,0.013l0.013,0.014v0.003l0.005,0.012l0.007,0.021l0.014,0.017l0.021,0.017l0.045,0.036
			l0.016,0.013l0.016,0.021l0.015,0.018l0.035,0.037l0.019,0.015l0.012,0.017l0.014,0.024l0.011,0.019l0.017,0.025l0.01,0.018
			l0.02,0.023l0.021,0.016l0.014,0.015l0.009,0.019l0.036,0.026l0.021,0.017l0.02,0.021l0.019,0.021l-0.003,0.018v0.02L1.184,25.26
			l-0.017,0.023l-0.002,0.043l0.011,0.021l0.021,0.023l0.024,0.023l0.014,0.02l0.013,0.021l0.016,0.037l0.021,0.03l0.026,0.033
			l0.006,0.021l0.029,0.032l0.002,0.011l0.006,0.012l0.055,0.04l0.011,0.014h0.023l0.021-0.039l0.028-0.029l0.015-0.018l0.012-0.016
			l0.015-0.009l0.058-0.011l0.02-0.013l0.029-0.014l0.021-0.015l0.019-0.021L1.7,25.467l0.018-0.021l0.04-0.015l0.024-0.012
			l0.02-0.01H1.84h0.058h0.05l0.044,0.021l0.008,0.009l0.038,0.006h0.038l0.062,0.021h0.03l0.026,0.007l0.027,0.003h0.042
			l0.021,0.02l0.033,0.012l0.031,0.012l0.018,0.009l0.027,0.015l0.026,0.019l0.017,0.017l0.022,0.021l0.023,0.038l0.049,0.027
			l0.028,0.017l0.021,0.014l0.02,0.013l0.025,0.008l0.037,0.012l0.025,0.006l0.026,0.006l0.018,0.014l0.065,0.023l0.052,0.016
			l0.062,0.012l0.036,0.011l0.025,0.01l0.021,0.017l0.016,0.015l0.004,0.021v0.019v0.026l-0.006,0.022l-0.015,0.031v0.04
			l0.034,0.003l0.022-0.013h0.059h0.06h0.041l0.046,0.016h0.044l0.059,0.021l0.04,0.008l0.04,0.002l0.058,0.015l0.019,0.021
			l0.04,0.02h0.025l0.021-0.005l0.03-0.005l0.024-0.01l0.017-0.017l0.021-0.015l0.034-0.004l0.071,0.011l0.05,0.01l0.053,0.017
			l0.021-0.008l0.05-0.023l0.05-0.014l0.043-0.011l0.05-0.015l0.025-0.021l0.059-0.025l0.037-0.01L4.26,25.95l0.041-0.01
			l0.037-0.007l0.053,0.033l0.013,0.005l0.013,0.011l0.027,0.025l0.06,0.039l0.031,0.026l0.021,0.022l0.019,0.015l0.02,0.015
			l0.044,0.063l0.016,0.019l0.013,0.015l0.062,0.002l0.043,0.004l0.053,0.002h0.02h0.059l0.073-0.011h0.044h0.065h0.052H5.19
			l0.052,0.007l0.021,0.026l0.021,0.035l0.011,0.038l0.008,0.036l0.001,0.035l-0.008,0.034l-0.008,0.03l-0.015,0.026l-0.022,0.038
			l-0.015,0.031l-0.02,0.035l-0.01,0.027l-0.012,0.032l-0.012,0.045l-0.014,0.032l-0.008,0.043l0.007,0.041l-0.001,0.029
			l-0.003,0.062l-0.003,0.072l0.011,0.037l-0.005,0.035l-0.043,0.021l-0.024,0.028l-0.02,0.035l0.009,0.027l0.014,0.03l0.021,0.03
			l0.023,0.021l0.026,0.057l0.014,0.033L5.21,27.36l0.015,0.022l0.009,0.035l0.008,0.037l-0.002,0.03l-0.004,0.031l-0.027,0.024
			l-0.014,0.015l-0.02,0.018l-0.026,0.027L5.12,27.625L5.1,27.652l-0.015,0.025l-0.032,0.02l-0.01,0.036l-0.025,0.022l-0.021,0.031
			l-0.03,0.016l-0.036,0.013l-0.043,0.021l-0.034,0.023l-0.039,0.004l-0.09-0.001l-0.042,0.011l-0.044,0.018l-0.058,0.017
			l-0.033,0.024l-0.042,0.029l-0.052,0.027l-0.045,0.032l-0.024,0.036l-0.003,0.035l-0.003,0.039L4.37,28.155l-0.028,0.034
			l-0.027,0.027L4.29,28.25l-0.056,0.041l-0.021,0.03l-0.042,0.024l-0.035,0.025l-0.032,0.035l-0.021,0.031l-0.018,0.048l0.01,0.024
			l0.036,0.033l0.026,0.053l0.047,0.051l0.029,0.031l0.047,0.045l0.06,0.066l0.045,0.051l0.03,0.039l0.033,0.027l0.025,0.038
			l0.055,0.039l0.039,0.019l0.062,0.014l0.029,0.019l0.053,0.046l0.021,0.031l0.021,0.046l0.006,0.023l0.002,0.019l0.001,0.032
			l0.003,0.044v0.021v0.047l-0.002,0.031L4.742,29.4l-0.011,0.02H4.706l-0.032,0.006l-0.062,0.005l-0.03,0.006L4.53,29.445
			l-0.022,0.014l-0.024,0.015l-0.042,0.014l-0.045,0.027l-0.04,0.022l-0.006,0.024v0.012l0.009,0.056l0.006,0.025l0.013,0.059
			l0.021,0.062l0.034,0.056l0.039,0.045l0.026,0.021l0.021,0.02l0.036,0.01l0.029,0.052l0.045,0.021l0.011,0.017l0.066,0.034
			l0.028,0.022v0.011l-0.001,0.026l-0.018,0.024l-0.023,0.041l-0.022,0.039l-0.009,0.02l-0.017,0.035L4.63,30.312l0.014,0.042
			l0.012,0.033l0.009,0.033l0.012,0.029l0.009,0.02l0.003,0.052v0.019l0.001,0.057l0.005,0.055l0.011,0.059l0.001,0.028l0.002,0.044
			v0.018l0.004,0.054L4.703,30.89L4.7,30.909L4.691,30.93l-0.017,0.025l-0.021,0.021l-0.025,0.039l-0.03,0.034L4.565,31.09
			l-0.018,0.035l-0.01,0.039l-0.025,0.043v0.053l0.011,0.021l0.009,0.016l0.016,0.045l0.008,0.052l-0.004,0.041l-0.015,0.028
			l-0.028,0.029l-0.042,0.035l-0.061,0.016l-0.043,0.01l-0.042,0.005H4.259L4.22,31.56l-0.021,0.014l-0.015,0.038L4.173,31.67
			l-0.011,0.025l-0.01,0.037l-0.021,0.066l-0.004,0.064v0.036l0.003,0.038l0.01,0.02l0.049,0.004l0.036-0.011l0.051-0.013h0.041
			l0.045,0.01l0.047,0.012l0.082,0.006l0.053-0.006l0.057-0.01l0.042-0.005l0.033-0.005l0.032-0.008l0.034-0.006h0.021l0.025,0.004
			l0.015,0.004l0.016,0.001h0.018l0.032-0.002l0.015-0.007l0.021-0.006l0.034-0.002h0.021h0.053h0.009l0.027-0.002L5.044,31.9
			l0.021-0.02l0.037-0.027l0.028-0.02l0.024-0.021l0.022-0.027l0.029-0.018l0.043-0.015l0.054-0.012l0.092-0.007h0.063h0.048
			l0.04-0.021l0.026-0.03l0.025-0.031l0.021-0.036l0.021-0.029l0.01-0.033l0.019-0.033l0.02-0.047l0.028-0.049l0.021-0.057
			l0.019-0.042l0.021-0.044l0.029-0.051l0.054-0.049l0.035-0.027l0.03-0.031L5.953,31.1l0.026-0.031l0.037-0.034L6.04,31.01
			l0.04-0.021l0.043-0.02l0.032-0.024l0.035-0.026l0.048-0.059l0.025-0.029l0.043-0.013l0.052-0.019l0.073-0.018l0.04-0.029
			l0.115-0.091l0.056-0.036l0.021-0.045l0.026-0.031l0.062-0.054l0.048-0.032l0.046-0.039l0.028-0.02l0.041-0.021l0.056-0.052
			l0.026-0.04l0.017-0.025l0.014-0.032l0.017-0.04l0.014-0.055l0.012-0.035v-0.04l0.008-0.038l0.014-0.029l0.02-0.027h0.025
			l0.043,0.017l0.057,0.026l0.037,0.005l0.063,0.004l0.057-0.002h0.089l0.077-0.005h0.076l0.069,0.007l0.062-0.004h0.087
			l0.093,0.004h0.062h0.083l0.048,0.005l0.09-0.002h0.07l0.066,0.002l0.081,0.004l0.074,0.005l0.054-0.003l0.045-0.018l0.038-0.017
			l0.01-0.018l0.006-0.024l-0.014-0.031l-0.023-0.035l-0.014-0.031l-0.026-0.039l-0.017-0.025l-0.005-0.029l0.011-0.029l0.029-0.023
			l0.021-0.022l0.021-0.019l0.019-0.009l0.043,0.011l0.029,0.019l0.032,0.009l0.037,0.014l0.021,0.018v0.021l0.018,0.029
			l0.022,0.023l0.037,0.037l0.023-0.008l0.019-0.018l0.027-0.021l0.036-0.019l0.024-0.019l0.062-0.041l0.067-0.033l0.046-0.03
			l0.045-0.029l0.062-0.038l0.059-0.037l0.046-0.025l0.054-0.034l0.021-0.019l0.037-0.018L9.57,29.44l0.043-0.041l0.033-0.026
			l0.055-0.033l0.025-0.033l0.048-0.032l0.044-0.038l0.041-0.027l0.053-0.035l0.035-0.029l0.022-0.027l0.04-0.027l0.035-0.026
			l0.035-0.027l0.05-0.041l0.029-0.021l0.034-0.04l0.029-0.021l0.058-0.006l0.076,0.006l0.094,0.002l0.078,0.004l0.051,0.004
			l0.021-0.013l0.002-0.038l0.003-0.054v-0.118v-0.047l0.001-0.057l0.011-0.059l0.011-0.049l0.003-0.035l-0.029-0.024l-0.043,0.009
			l-0.034-0.011l-0.014-0.022l0.017-0.031l0.017-0.035l0.014-0.036l0.008-0.022l-0.019-0.029l-0.032-0.037l-0.019-0.04l-0.018-0.036
			l-0.021-0.031l-0.02-0.031l-0.008-0.018l-0.023-0.004l-0.04,0.002l-0.017-0.031l0.002-0.061l0.015-0.04l-0.002-0.013l0.008-0.037
			l0.002-0.051l0.009-0.045v-0.041l0.008-0.043l0.02-0.021l0.028-0.01l0.055-0.013l0.04-0.009l0.059-0.027l0.016-0.021l0.015-0.034
			l0.021-0.038l0.024-0.023l0.019-0.022l0.02-0.04l0.025-0.031l0.021-0.031l0.011-0.03l0.008-0.033l0.003-0.036l-0.016-0.029
			l-0.021-0.035l-0.022-0.031L10.7,27.142l-0.026-0.06l-0.019-0.069v-0.047l0.021-0.026l0.023-0.031l0.017-0.043l0.021-0.035
			l0.023-0.028l0.045-0.019l0.06-0.018l0.03-0.036l0.046-0.03l0.02-0.031l0.026-0.024l0.026-0.021l0.032-0.02l0.032-0.025
			l0.031-0.011l0.042-0.013l0.021-0.02l0.063-0.019l0.062-0.011l0.029-0.008l0.022-0.018l0.07-0.009l0.053-0.005h0.057l0.029-0.01
			l0.031-0.018l0.043-0.009l0.032-0.013l0.04-0.015l0.031-0.022l0.037-0.039l0.03-0.025l0.045-0.025l0.04-0.027l0.032-0.021
			l0.032-0.019l0.033-0.019l0.027-0.037l0.026-0.045l0.013-0.068l0.014-0.059l0.024-0.039l0.04-0.031l0.043-0.036l0.077-0.031
			l0.071-0.021l0.046-0.021l0.041-0.019l0.065-0.016l0.062-0.018l0.071-0.021l0.063-0.021l0.072-0.031l0.062-0.031l0.048-0.039
			l0.072-0.027l0.136-0.064l0.024-0.029l0.054-0.026l0.035-0.04l0.042-0.036l0.021-0.022l0.02-0.009l0.04,0.013l0.037,0.017
			l0.072,0.002l0.079,0.007l0.067,0.016l0.05,0.043l0.021,0.023l0.046,0.029l0.025,0.035l0.017,0.014l0.025,0.009l0.027-0.018
			l0.026-0.04l0.026-0.027l0.046-0.044l0.039-0.036l0.058-0.037l0.053-0.041l0.035-0.026l0.08-0.038l0.04-0.014l0.038-0.004h0.048
			l0.045-0.004l0.066-0.015l0.064-0.019l0.056-0.025l0.057-0.031l0.021-0.018l0.055-0.01l0.025-0.021l0.008-0.038l0.037-0.026
			l0.03-0.019l0.011-0.052l0.014-0.042l0.014-0.036l0.021-0.059l0.014-0.039l0.02-0.027l0.04-0.027l0.062-0.047l0.051-0.033
			l0.051-0.02l0.045-0.034l0.041-0.041l0.039-0.026l0.043-0.033l0.024-0.031l0.045-0.01l0.066-0.004l0.069-0.026l0.082-0.022
			l0.083-0.026l0.04-0.022l0.046-0.04l0.085-0.021l0.062-0.014l0.063-0.013l0.053-0.016l0.043-0.011l0.062,0.018l0.059,0.033
			l0.018,0.011h0.019l0.024-0.019l0.056-0.025l0.032-0.021l0.048-0.029l0.048-0.021l0.04-0.031l0.048-0.004l0.029,0.025l0.063,0.025
			l0.064,0.022l0.031,0.024l0.035,0.014l0.03,0.018l0.061,0.022h0.04l0.051-0.007l0.056-0.02l0.085-0.033l0.035-0.019l0.064-0.047
			l0.037-0.041l0.037-0.054l0.034-0.064l0.031-0.049l0.035-0.036l0.027-0.056l0.036-0.049l0.024-0.069l0.008-0.031l0.006-0.044
			l0.009-0.035l0.017-0.048l0.034-0.04l0.025-0.037l0.029-0.029l0.035-0.033l0.021-0.018l0.04-0.045l0.029-0.039l0.029-0.049
			l0.011-0.072l0.006-0.062l0.011-0.049l0.011-0.034l0.041-0.006l0.059,0.002l0.063,0.023l0.043,0.039l0.036,0.03l0.044,0.035
			l0.034,0.036l0.021,0.027l0.03,0.033l0.045,0.059l0.025,0.041l0.021,0.045l0.021,0.027l0.021,0.037l0.023,0.03l0.017,0.022
			l0.021,0.004l0.028-0.021l0.03-0.018h0.056l0.056-0.006l0.043-0.002l0.049,0.004l0.036-0.008l0.047-0.01l0.051-0.027l0.025-0.039
			l0.047-0.055l0.019-0.037l0.024-0.039l0.025-0.028l0.063,0.008l0.041,0.009l0.061-0.021l0.049-0.045l0.052-0.035l0.04-0.036
			l0.065-0.039l0.021-0.033l0.025-0.021l0.041-0.024l0.023-0.015l0.046,0.007l0.04,0.022l0.037,0.035l0.03,0.031l0.01,0.034
			l0.008,0.028l0.021,0.052l0.042,0.026l0.027,0.028l0.04,0.029l0.04,0.03l0.039,0.037l0.046,0.026l0.056,0.029l0.051,0.038
			l0.067,0.023l0.045,0.029l0.083,0.025l0.051,0.019l0.072,0.013l0.062,0.027l0.036,0.031l0.072,0.029l0.038,0.023l0.062,0.031
			l0.046,0.021l0.065,0.01l0.052-0.01l0.051-0.014l0.046-0.012l0.029-0.021l0.005-0.052v-0.069v-0.085v-0.044l0.012-0.047
			l0.026-0.021l0.042-0.012l0.069-0.018l0.06-0.024l0.028-0.021l0.055-0.026l0.025-0.026l0.026-0.027l0.024-0.027l0.021-0.025
			l0.008-0.022l0.009-0.026l0.032-0.031l0.005-0.047l0.009-0.037l0.04-0.053l0.056-0.024l0.07-0.029l0.062-0.026l0.062-0.033
			l0.04-0.018l0.043-0.023l0.051-0.031l0.031-0.034l0.052-0.019l0.051,0.012l0.042,0.031l0.041,0.031l0.021,0.021l0.021,0.018
			l0.056,0.004l0.062-0.006l0.057-0.005l0.045-0.009l0.04-0.014l0.055-0.026l0.046-0.041l0.039-0.035l0.043-0.042l0.049-0.045
			l0.037-0.033l0.045-0.021l0.08-0.014l0.104,0.004l0.101,0.006h0.065l0.07-0.006l0.066-0.022l0.061-0.017l0.055-0.006l0.068-0.024
			l0.043-0.048l0.054-0.028l0.037-0.044l0.032-0.034l0.008-0.044l0.006-0.049l0.006-0.071v-0.06v-0.059l-0.009-0.062l0.009-0.047
			l-0.011-0.052l-0.005-0.039l-0.014-0.035l0.014-0.038l0.019-0.036l0.046-0.031l0.071-0.02l0.057-0.004l0.062-0.017h0.061h0.033
			l0.029-0.013l0.018-0.027l0.002-0.082l0.021-0.09l0.017-0.04l0.014-0.049l0.017-0.054l0.02-0.051l0.021-0.067v-0.049l0.021-0.042
			l0.008-0.033l0.016-0.041l0.015-0.031l0.061,0.018l0.062,0.033l0.061,0.037l0.051,0.032l0.043,0.019l0.053,0.037l0.055,0.021
			l0.051,0.026l0.048,0.031l0.064,0.031l0.045,0.031l0.065,0.025l0.06,0.031l0.059,0.036l0.084,0.04l0.042,0.027l0.035,0.027
			l0.034-0.005l0.043-0.032l0.056-0.045l0.043-0.076l0.037-0.041l0.061-0.031l0.037-0.036l0.045-0.031l0.055-0.04l0.047-0.027
			l0.051-0.051l0.049-0.013h0.049l0.074,0.024l0.066,0.049l0.05,0.021l0.041,0.04l0.028,0.026l0.06,0.009l0.057-0.013l0.078-0.002
			h0.073l0.085-0.01l0.104-0.014h0.071l0.068,0.002l0.062,0.029l0.048,0.034l0.04,0.049l0.04,0.03l0.017,0.014l0.04,0.011h0.045
			l0.04-0.032l0.029-0.025l0.068-0.018l0.047-0.014l0.061-0.002l0.115-0.004l0.065-0.007h0.07l0.062-0.007l0.055-0.012v-0.056
			l-0.018-0.052l-0.022-0.038l-0.045-0.035l-0.062-0.034l-0.047-0.033l-0.043-0.033l-0.037-0.036l-0.041-0.06l-0.013-0.054
			l-0.008-0.056v-0.049l-0.012-0.055l-0.011-0.058l-0.042-0.076l-0.008-0.042l0.008-0.064l0.008-0.045l0.023-0.064v-0.053v-0.067
			l0.001-0.063l-0.003-0.072l0.014-0.049l0.02-0.045l0.008-0.018l0.003-0.027l-0.017-0.039l-0.011-0.061l-0.019-0.049v-0.069v-0.03
			v-0.037l-0.02-0.056l-0.019-0.06V19.5v-0.053l0.019-0.041l0.062-0.054l0.045-0.019l0.055-0.032l0.031-0.032l0.029-0.035
			l0.014-0.042l0.026-0.054l0.026-0.051l0.045-0.029l0.04-0.025l0.046-0.017l0.017-0.021l0.003-0.065v-0.062l0.006-0.05l0.013-0.047
			l0.014-0.026l0.024-0.033l0.026-0.004l0.042,0.008l0.043,0.018l0.063,0.022l0.048,0.026l0.069,0.022l0.059,0.015l0.058,0.022
			l0.065,0.022l0.043,0.02l0.049,0.011l0.07,0.031l0.035,0.018l0.048,0.019l0.058,0.023l0.059,0.021l0.056,0.009l0.104,0.018
			l0.045,0.01l0.078-0.002l0.074-0.014l0.094-0.031l0.048-0.039l0.043-0.037l0.031-0.031l0.017-0.1l0.006-0.074v-0.062v-0.049
			l-0.017-0.051v-0.034l0.043-0.06l0.027-0.043l0.04-0.047l0.017-0.021v-0.047v-0.067l-0.027-0.094l-0.021-0.063l-0.005-0.037
			v-0.043v-0.047l0.014-0.065l0.016-0.116l0.001-0.104v-0.082l0.014-0.065v-0.078l0.001-0.058l0.013-0.045l0.026-0.026l0.043-0.042
			l0.023-0.023l0.021-0.033l0.022-0.032l0.027-0.036l0.032-0.021l0.034-0.019l0.034-0.038l0.017-0.044l-0.014-0.06V16.89
			l0.012-0.054l-0.02-0.058l-0.021-0.042l-0.021-0.046l-0.016-0.045l-0.017-0.044v-0.042l-0.015-0.049l-0.005-0.042v-0.06
			l-0.005-0.045l-0.019-0.06l-0.024-0.053l-0.008-0.034l-0.02-0.04l-0.019-0.021L28.76,16.12l0.014-0.042l0.011-0.02l0.003-0.027
			l-0.019-0.047l-0.027-0.04l-0.036-0.044l-0.026-0.058l-0.051-0.062l-0.021-0.041l-0.028-0.04l-0.014-0.042l-0.023-0.045
			l-0.02-0.038l-0.006-0.049l-0.019-0.031l-0.02-0.038l-0.019-0.022l-0.024-0.022l-0.016-0.018l-0.008-0.018l0.011-0.029
			l0.021-0.016l0.03-0.022l0.023-0.022l0.021-0.026l0.023-0.036l0.016-0.027l0.018-0.027l0.021-0.031l0.032,0.002l0.085,0.015
			l0.032,0.002l0.03-0.016l0.038-0.014l0.032-0.018l0.051-0.013l0.032-0.005l0.04-0.006l0.061,0.009l0.052,0.013l0.035,0.013
			l0.048-0.011l0.059-0.018l0.051-0.02l0.047-0.009l0.051-0.018l0.039-0.009h0.041l0.039-0.002l0.066,0.009l0.055,0.018l0.042,0.022
			l0.031,0.004l0.146-0.047l0.043-0.013l0.056-0.007l0.077,0.005l0.069,0.008l0.08,0.005h0.108h0.146l0.128,0.013l0.126-0.007
			l0.089,0.01l0.082,0.014l0.174-0.009l0.082,0.011l0.126-0.007l0.099,0.005l0.097,0.018l0.086,0.018l0.136,0.012l0.046,0.031
			l0.06,0.022l0.076,0.04l0.049,0.02l0.073,0.016h0.043h0.04l0.077,0.011l0.064,0.011l0.059-0.011l0.032-0.018l0.054-0.008
			l0.062,0.015l0.028,0.029l0.037,0.034l0.04,0.042l0.019,0.025l0.02,0.02l0.043,0.011l0.045,0.007l0.029,0.014l0.032,0.009
			l0.029,0.007l0.048,0.029l0.021,0.011l0.032,0.004h0.029l0.021,0.004l0.034,0.013l0.023,0.014l0.02,0.013l0.037,0.009l0.029-0.006
			l0.028-0.002l0.043,0.018l0.032,0.018l0.024,0.016l0.051,0.009l0.045,0.007h0.043l0.029-0.022l0.016-0.031l0.016-0.042l0.03-0.038
			l0.011-0.032l0.02-0.029l0.016-0.027l0.008-0.018l0.05-0.009l0.059-0.011l0.045-0.007l0.049-0.018l0.02-0.014l0.048-0.004
			l0.062-0.002l0.043-0.016h0.039h0.049h0.046l0.051-0.004l0.057,0.007l0.057-0.004l0.068,0.004l0.035-0.002l0.039,0.002
			l0.054-0.007l0.021,0.031l0.031,0.026v0.032l0.029,0.029l0.031,0.022l0.009,0.04l0.026,0.035l0.045,0.042l0.012,0.036l0.023,0.036
			l0.035,0.036l0.005,0.024l0.046,0.004h0.056l0.069,0.029l0.074,0.009l0.051,0.016l0.028-0.009l0.021-0.049v-0.044l0.029-0.049
			l0.002-0.074l0.026-0.051l0.026-0.049l0.019-0.051l0.038-0.004l0.057,0.033l0.091,0.027l0.048,0.031l0.091,0.047l0.057,0.013
			l0.057,0.018l0.061,0.033l0.078,0.022l0.06,0.025l0.08,0.028l0.04,0.027l0.036,0.022l0.052,0.022l0.043,0.011l0.091-0.002
			l0.051-0.009l0.077,0.011l0.064,0.022l0.059,0.028l0.058,0.021l0.075,0.011l0.046,0.024l0.063,0.049l0.094,0.018l0.097,0.006
			h0.091l0.034-0.011l0.032-0.016l0.097-0.009h0.094l0.101,0.006l0.035-0.031l0.054-0.007h0.048l0.05-0.011l0.019-0.033l0.024-0.022
			l0.042-0.013l0.048-0.009l0.021-0.053l0.029-0.022l0.043-0.022l0.031-0.018l0.026-0.018l0.02-0.013l0.063-0.002l0.057-0.011
			l0.046-0.011l0.062-0.002l0.098-0.009l0.077,0.009l0.051,0.006l0.032,0.031l0.034,0.01l0.034,0.007l0.033,0.02l0.067,0.002h0.049
			l0.063,0.007l0.043,0.011l0.042,0.007l0.043,0.018l0.038,0.036l0.016,0.027l0.06,0.015l0.025,0.049l0.007,0.027l0.021,0.042
			l0.023,0.036l0.028,0.018l0.043,0.004l0.043,0.026l0.04,0.014l0.045,0.018l0.052,0.005l0.04,0.031l0.051,0.007l0.048,0.024
			l0.029,0.027l0.043,0.029h0.065l0.04,0.025l0.043,0.026l0.045,0.021l0.072,0.026l0.066,0.026l0.062,0.02l0.048,0.036l0.07,0.014
			l0.085,0.009l0.059,0.018l0.052,0.016l0.051,0.002h0.066l0.063,0.008l0.037,0.036l0.026,0.036l0.062,0.031l0.051,0.047
			l0.021,0.035l0.025,0.065l0.015,0.073l0.021,0.103l0.026,0.053l0.013,0.051l0.024,0.031l0.025,0.036l0.01,0.031l0.013,0.049
			l0.026,0.045l0.048,0.053l0.046,0.043l0.048,0.031l0.08,0.013l0.085,0.004l0.097,0.022l0.043,0.012l0.074,0.022l0.069,0.019
			l0.06,0.049l0.028,0.061l0.021,0.041l0.008,0.037l0.018,0.034l0.031,0.035l0.023,0.036l0.029,0.035l0.026,0.037l0.036,0.032
			l0.055,0.021l0.059,0.009h0.077h0.051l0.029,0.009l0.027,0.024l0.051,0.022l0.034,0.024l0.059,0.032l0.049,0.029l0.042,0.045
			l0.032,0.021l0.026,0.027l0.073,0.033l0.038,0.037l0.057,0.053l0.054,0.039l0.048,0.037l0.054,0.025l0.055,0.036l0.088,0.013
			l0.053,0.018h0.075l0.074,0.019L42.6,18.26l0.057,0.016l0.077-0.005h0.077l0.057-0.016l0.063-0.011l0.037-0.029l0.078-0.012
			l0.077,0.006l0.069-0.002l0.08,0.008l0.045,0.037l0.074,0.019l0.045,0.007h0.058l0.059-0.021l0.021-0.011l0.065-0.025l0.032-0.025
			l0.029-0.015l0.04-0.009l0.033-0.022l0.041-0.022l0.046-0.021l0.051-0.004l0.045-0.009l0.051-0.01l0.067,0.007l0.059-0.013
			l0.035-0.013l0.045-0.026l0.056-0.008l0.067,0.008l0.045-0.016l0.078-0.009l0.059-0.007l0.074,0.004l0.08,0.014l0.064,0.022
			l0.088,0.013l0.072,0.005l0.091,0.009h0.077l0.076,0.008l0.084,0.01h0.088h0.123l0.111-0.002l0.088-0.014l0.058-0.041l0.03-0.025
			l0.052-0.045l0.019-0.045l0.027-0.041l0.053-0.043l0.061-0.041l0.03-0.028l0.041-0.026l0.026-0.016l0.046-0.006l0.042-0.031
			l0.024-0.016l0.033-0.021h0.043l0.029-0.002l0.261,0.054l0.208,0.024h0.149l0.164-0.012l0.147-0.037l0.209-0.074l0.224-0.11
			l0.148-0.112l0.18-0.075l0.269-0.049l0.179-0.1l0.104-0.123l0.03-0.163l-0.06-0.209L48.38,16.515"/>
	</g>
</g>
<g id="Layer_1">
</g>
</svg>
