<?xml version="1.0" encoding="utf-8"?>
<!-- Generator: Adobe Illustrator 16.0.4, SVG Export Plug-In . SVG Version: 6.00 Build 0)  -->
<!DOCTYPE svg PUBLIC "-//W3C//DTD SVG 1.1//EN" "http://www.w3.org/Graphics/SVG/1.1/DTD/svg11.dtd">
<svg version="1.1" id="Layer_1" xmlns="http://www.w3.org/2000/svg" xmlns:xlink="http://www.w3.org/1999/xlink" x="0px" y="0px"
	 width="301.157px" height="162.846px" viewBox="-134.838 -72.708 301.157 162.846"
	 style="enable-background:new -134.838 -72.708 301.157 162.846;" xml:space="preserve">
<g id="Layer_46">
	<path id="Hangu" style="fill:#CCCCCC;stroke:#FFFFFF;stroke-width:1.15;" d="M-29.641,85.979L-29.641,85.979l1.877-7.033
		l1.598-5.996l0.084-1.906l0.308-1.447l0.588-1.336l0.374-0.719l0.588-1.605l0.663-1.467l0.43-0.85l0.374-0.926l0.019-0.914
		l-0.298-1.215l-0.383-0.766l-0.477-1.008l-0.159-0.805l0.411-1.186l0.589-1.186l0.551-0.953l0.467-0.99l0.355-0.822l-0.439-0.971
		l-1.42-0.822l-0.187-0.971l0.636-1.494l-1.28-0.281l-1.317,0.271l-0.99-0.178l0.271-0.709l-0.103-0.869l0.093-0.795l0.729-0.43
		l0.812-0.672l0.588-0.457l1.719-0.664l0.588-0.99l-0.112-1.139l-0.336-0.795l-0.29-1.055l-0.215-1.082l0.122-0.02l1.083-0.057
		l1.037,0.262l1.457,0.617l0.682-0.543l0.439-0.877l0.654,0.262l1.13,0.42l0.812,0.363l0.812,0.375l1.513,0.598l1.084,0.355
		l1.289,0.494l1.064,0.496l1.111,0.578l1.037,0.383l1.354,0.682l1.056,0.514l1.625,0.523l1.158,0.223l1.336,0.291l1.821,0.598
		l0.757,0.205l1.018,0.232l1.382,0.16l1.756,0.074l1.14,0.094l1.298,0.141l1.569,0.242l0.682,0.057l1.522,0.271l0.887,0.195
		l0.906,0.158l0.794,0.195l0.869,0.301l0.99,0.27l1.568,0.393l0.859,0.168l1,0.084l1.131,0.279l1.447,0.646l0.98-0.338l0.393-0.84
		l0.439-1.158l-1-0.766l-0.748-0.617l-0.316-0.598l0.598-0.896l0.699,0.057l0.945,0.111l0.783,0.066l1.42-0.57l0.598-0.953
		l0.57-0.812l0.504-0.896l0.41-0.869l0.588-1.381l0.328-1.102l0.205-0.936l0.037-0.812l0.711-0.551l0.672-0.41l1.4-0.561
		l-0.393-0.711l-0.607-0.84l-0.484-0.711L30.6,31.686l1.057-0.242l0.756-0.02h0.037l1.111-0.084l1-0.195l0.924-0.141l0.852-0.131
		l1.082-0.018l0.768,0.064l1.391,0.262l1.531-0.057l0.812-0.168l0.896-0.131l1.121-0.148l0.98-0.178l1.4-0.271l0.721-0.279
		l1.41-0.355l1.232-0.225l1.26-0.131l0.98-0.195l0.459-0.141l0.205-0.094l0.672-0.195l0.916-0.271l1.176-0.178l0.822-0.018l1,0.066
		l1.252,0.41l0.625-0.336l0.887-0.234l0.859-0.195l1.141-0.496l0.84-0.252l0.721-0.252l0.951,0.178l1.168-0.047l0.793-0.195
		l0.758-0.113l1.354-0.223l0.887,0.158l0.197-0.123l0.729,0.084l1.186-0.035l1.625-0.029l0.84,0.047l1.393,0.195l1.055,0.242
		l1.252,0.207l1.719,0.195l1.195,0.047l1.195,0.15l0.971,0.316l0.99,0.355l0.449,0.168l1.84-0.074l1.4-0.336l1.094-0.252
		l0.934-0.729l0.672-0.738l1.158-1.605L92,23.271l0.027-0.963l-0.941-0.672l-1.402,0.148l-1.027-0.822l-0.064-1.25l-0.906-0.598
		l-1.383-1.336l1.588-0.178l1.391,0.393l0.814,0.074l1.746-0.934l0.961-0.645l0.869-0.607h0.121l-0.186-0.262l-0.291-0.719
		l-0.121-0.869l0.748-0.742l1.035-0.342l1.393-0.242l1.008-0.219l1.514-0.322l1.242-0.242l1.047-0.285l0.896,0.318l1.111,0.246
		l1.559,0.057l1.459,0.326l1.223,0.047l1.998-0.494l1.186-0.309l0.822-0.678l0.617-0.984l0.561-0.842l0.701-0.919l0.803-0.729
		l0.457-0.546l0.262-0.715l0.289-0.859l0.383-1.112l0.195-0.859l0.852-0.747l0.391-0.813l-0.811-0.07l-0.973,0.061l-1.232,0.038
		l-0.664-0.275l0.365-1.205l0.523-1.196l0.336-0.793l0.439-1.224l0.186-0.967l0.158-1.055l0.133-1.06l0.064-0.803v-0.028
		l0.281-0.929l0.504-0.64l-0.869-0.355l-1.242-0.304l-0.711-0.364l-1.129-0.691l-0.662-0.467l-0.889-0.659l-0.766-0.625
		l-0.803-0.523l-1-0.402l-0.027-0.701l-0.355-0.784l-0.449-0.981l0.459-0.948l0.588,0.383l0.869,0.304l1.121,0.135l1-0.22
		l0.988-0.467l0.684-0.317l0.736-0.173l1.131,0.037l0.812-0.074l3.203,0.009l0.99-0.163l0.756-0.267l1.635-0.672l0.869-0.22
		l0.998-0.924l0.281-1.168l-0.074-0.719l0.092-1.252l0.197-1.223l0.205-0.864l0.43-0.812l0.197-0.995l-0.057-1.672l0.344-0.336
		l0.898-0.803l0.914-0.64l0.73-0.556l1.24-0.154l0.879,0.229l1.316,0.033l1.195,0.43l1.141,0.766l1.27,0.038l1.98,0.046l1.252-0.182
		l1.129-0.056l1.27-0.107l0.99,0.117l1.141,0.112h1.279h1.729l0.877,0.135l0.803,0.163l1.057-0.172l1.166-0.449l0.768-0.172
		l0.859-0.084l1.035-0.172l1.047-0.21l0.906-0.299l0.158-0.047l-0.205-1.616l-0.447-1.55l-0.496-1.261l-1.252-1.224l-1.4-0.803
		l-0.822-0.29l-0.793-0.602l-0.721-0.706l-0.812-0.354l-0.896,0.009l-1.215,0.056l-0.598-0.556l0.207-1.317l-0.168-0.854
		l0.131-0.841l0.215-1.07v-0.028l-0.029-0.976l-0.223-1.303l-0.178-1.004l0.951-0.551l1.141-0.135l1.727-0.238l1.41-0.107
		l1.402-0.084l0.699-0.243l0.252-2.017l0.664-0.896l1.084-1.275l0.551-0.593l0.961-0.458l1.467-0.612l0.943-0.266l0.561-0.995
		l-0.008-1.092l0.672-1.224l0.521-0.514l0.178-0.874l0.076-0.705l0.158-1.158l0.195-0.874l-1.027-0.467h-1.645l-1.959-0.093
		l-2.195,0.238l-1.523,0.182l-1.83,0.122l-0.943-0.752l-2.195-0.164l-2.109,0.22l-0.936-0.089l1.168-1.434l1.27-0.439l0.59-0.887
		l-2.121-0.845l-1.84-0.028l-1.812-0.977l-0.998-1.405l-1.383-1.751l-1.551-0.075l-1.484,0.756l-1.047,0.878l-0.748,0.565
		l-1.045,0.696l-0.896,0.817l-1.102,0.639l-1.402,0.411l-1.791,0.267l-1.42,0.172l-1.795-0.163l-1.119-0.103l-1.336-0.051
		l-1.111-0.056l-0.207-0.028l-0.26,0.448l-1.812,0.654l-1.262,0.112l-0.812,0.098l-1.205,0.294l-1.203,0.056l-1.578,0.271
		l-1.244,0.14l-0.756-0.131l-1.102-0.037l-0.98,0.182l-1.037,0.43l-0.607,0.649l-0.588,0.603l-0.98,0.191L104.19-60.6l-2.084,0.187
		l-0.766,0.075l-1.383,0.121l-1.27,0.434l-2.615,0.402l-0.457,0.602l-0.926,0.57l-1.4,0.453L91.944-57.5l-0.857,0.145l-0.6,0.439
		l-1.26,1.139l-0.59,0.322l-0.467,0.243l-0.857,0.476l-1.02,0.728l-1.514,0.86l-0.934,0.504l-0.279,0.154l-1.131,0.621l-1.279,0.701
		l-0.924,0.504l-0.795,0.519l-1.242,0.401l-0.746,1.004l-0.795,0.803l-0.887,0.518l-0.795,0.752l-1.176,0.462l-0.879,0.402
		l-1.689-0.009l-0.531-0.575l-1.188,0.696l0.055-0.35l-0.83,0.21l-0.877-0.434l-1.168,0.355l-0.672,0.401l-1.551,0.729l-1.316,0.126
		l-1,0.084l-0.766,0.009l-1.57-0.191l-1.25-0.038l-0.805-0.098l-0.635-0.313L56.5-45.507l-1.084-0.976l-0.803-0.696l-0.738-0.429
		l-0.99-0.337l-0.803-0.228l-0.795-0.117l-0.914-0.028l-1.99,0.065l-0.746-0.065l-0.898-0.14l-0.727-0.187l-1.121-0.294l-0.879-0.64
		l-1.41-0.757l-0.672-0.065l-1.139-0.317l-1.141-0.43l-0.766-0.173l-1.037-0.42l-0.803-0.285l-0.99-0.08l-1,0.182l-0.998,0.393
		l-1.41,0.803l-0.785,0.574l-1.037,0.794l-0.795,0.603l-0.904,0.275l-1.055-0.219l-1.02-0.374l-1.652,0.234l-0.729-0.327
		L23.53-49.85l-0.588-0.332l-0.812-0.392l-1.232,0.64l-0.654,0.528l-1.773-0.164l-0.889-0.28l-0.746-0.037l-1,0.107l-1.401,0.182
		l-0.962-0.345l-0.672-0.309l-0.766,0.234l-0.775-0.481l-0.598-0.486l-0.486-0.135L9.11-51.415l-0.934-0.238l-0.971-0.042L6-51.513
		l-0.99,0.458l-0.729,0.574l-1.008,0.126l-0.664-0.257l-0.896-0.584l-0.99-1.013l-0.748-0.729l-0.448-0.43l-0.411-0.621l-0.43-0.775
		l-0.7-0.691l-1.158-0.201l-0.822-0.009l-1.121,0.117l-0.738-0.107l-0.588-0.411l-0.075-0.896l-0.561-0.621l-1.391,0.168
		l-0.972,0.28l-1.037,0.019l-0.775-0.247l-1.121-0.556l-1.055-0.238l-0.635-0.575l-1.308-0.5l-0.981-0.303l-0.822-0.603
		l-0.803-0.481l-1.625-0.35l-0.906,0.182l-1.093,0.561l-0.869,0.593l-0.99,0.154l-1.429,0.173l-1.065,0.163l-0.962,0.201
		l-0.822-0.173l-0.672-0.485l-0.85-0.421l-0.402,0.038l-0.56,8.709l-0.056,0.079l-0.233,0.756l-0.542,0.734v0.901l-0.691,0.504
		l-0.738,0.29l-0.803,0.495l-0.542,0.528l-0.429,0.583l-0.654,0.485l0.093,0.841l0.393,1.149l0.186,1.046l-0.13,0.803l-0.187,0.878
		l-0.224,1.186l-0.327,0.631l-0.794,1.223l-0.701,1.032l-0.205,0.747l0.065,1.074l0.336,1.107l0.196,0.775l0.374,0.612l-0.401,0.7
		l0.242,1.014l0.598,0.78l0.71,0.425l0.756,0.696l0.411,0.812l-0.467,0.593l-0.028,0.757l-0.28,0.784l0.047,0.715l0.262,0.645
		l0.513,0.602l0.589,0.584l0.336,0.962l-0.037,0.836l-0.178,0.976l-0.056,0.869l-0.532,0.448l-0.038,0.009l-1.083-0.383
		l-0.663-0.257l-1.495-0.266l-0.747-0.117l-1.037-0.191l-0.794-0.047l-0.766-0.201l-1.55-0.248l-1-0.29l-0.812-0.322l-0.934-0.537
		l-0.747-0.402l-1.215-0.248l-1.793,0.065l-0.738,0.21l-1.354,0.374l-0.579,0.495l-1.14,0.958l-0.757,0.709l-0.588,0.822l-0.7,0.92
		l-0.625,0.934l-0.579,0.682l-0.271,0.257l-0.056,0.056l-0.916,0.565l-1.522,0.813l-0.617,0.345l-0.971,0.075l-0.803-0.574
		l-1.112-0.43l-0.747-0.201l-0.962-0.238l-1.41,0.084l-0.822-0.065l-0.99-0.075l-1.064,0.121l-1.635,0.08l-0.99,0.112l-1.308,0.135
		l-0.98,0.019l-0.729-0.401l-0.775-0.574l-1.196-0.173l-0.953,0.061l-1.148,0.056l-0.766-0.065l-0.832,0.304l-0.597,0.775
		l-0.215,1.07l-1.354,1.027l-0.569,0.897l-0.813,0.7l-0.392,1.187l0.149,0.705l-0.215,0.976l-1.513,1.882l-0.458,0.583l-0.458,0.645
		l-0.981,1.116l-0.812,0.929l-0.514,0.649l-0.542,0.719l-0.523,0.677l-0.504,0.593l-0.85,1.13l-0.504,0.603l-0.953,1.158
		l-0.588,0.771l-0.598,0.364l-0.831,0.336l-1.513,0.401l-0.663,0.191l-0.841,0.257l-0.766,0.238l-0.981,0.364l-1.317,0.439
		l-1.345,0.411l-0.878,0.252l-1.616-0.43l-0.98-0.182l-0.691-0.009l-0.98-0.308l-0.888-0.467l-0.887-0.117l-1.252-0.294
		l-1.102,0.201l-0.99,0.122l-0.962-0.112l-1.289,0.037l-0.738,0.355l-1.074,0.421l-1.335,0.238l-0.756,0.336l-0.915,0.439
		l-1.822,0.593l-0.691,0.238l-1.541,0.649l-0.757,0.402l-0.075,0.037l-0.934-0.065l-0.952-0.103l-1.214-0.117l-1.401-0.383
		l-1.008,0.037l-0.607,0.509l-0.206,0.248l0.28,10.942l0.561,0.551l0.607,0.467l0.756,0.299l0.943,0.195l0.85,0.289l0.84,1.252
		l0.477,0.514l0.794,0.533l1.018,0.523l0.934,0.168l0.803,0.131l0.794,0.262l0.859,0.615l0.701,0.672l0.719,0.523l0.626,0.57
		l0.672,0.514l1.392,0.561l0.85,0.43l0.607,0.691l0.962,0.84l0.738,0.691l0.336,1.289l-0.046,1.27l-0.934,0.635l-0.607,0.973
		l-0.047,0.729l-0.009,1.383l-0.196,0.729l-0.616,0.99l-0.402,1.4l0.869,0.205l0.747,0.057l1.504-0.094l0.327-0.906l0.71-0.197
		l0.822,0.039l0.579,0.457l0.374,0.85l0.691,1.205l1.055,0.309l0.794,1.047l0.149,0.84l-0.298,0.961l-0.336,0.916l-0.289,0.85
		l-0.28,1l0.429,1.111l0.925,0.393l1.177,0.41l0.85,0.494l0.981,0.701l0.392,0.916l0.168,0.99v0.598l-0.009,0.42l-0.084,1.168
		l0.607,1.223l0.588,0.477l1,0.729l0.999,0.934l0.99,0.738l1.158,0.738l1.42,0.598l1.961,0.709l0.85,0.291l1.289,0.363l1.905,0.598
		l1.027,0.393l0.589,0.393l0.99,0.746l1.28,0.627l0.607,0.477l1.578,0.289l0.729-0.195l1.326-0.207l1.495-0.094l1.037-0.074
		l0.99-0.104l0.206,1l-0.355,0.85l-0.42,0.756l-0.486,0.963l-0.336,0.803l0.215,0.812l0.98-0.223l0.635-0.412l0.776-0.467
		l0.775,0.057l1.28,0.232l1.055,0.104l0.654-0.262l0.962-0.205l1.009,0.205l1.102,0.449l0.925,0.615l1.018,0.729l0.681,0.383
		l1.458,0.383l1.176,0.15l1.233,0.299l1.121,0.131l1.401,0.168l1.261,0.318l1.093,0.223l1.383-0.373l1.064-0.598l0.738-0.15
		l0.972,0.207l1.036,0.316l0.131,0.859l-0.42,0.729l-0.215,0.42l-0.663,0.375l-1.149,0.373l-0.607-0.318l-1.392-0.121l-1.298,0.785
		l-0.187,1l1.093,0.336l0.616,0.326l0.159,0.775l0.514,0.477l0.392,0.756l0.719,0.812l0.794,0.242l0.467,0.916l0.439,0.588
		l0.841,0.375l1.093,0.316l0.71,0.158l0.719,0.197l0.868,0.178l0.588,0.447v0.766l-0.121,1.234l0.635,0.766l1.055,0.092l0.822-0.035
		l0.813,0.906l0.672,0.195l0.813,0.094l0.906,0.41l0.859,0.131l0.878,0.188h1.308h1.289l1.167,0.018l1.354-0.168l1.233-0.168
		l0.99-0.094l0.887,0.131l1.009-0.148l1.074-0.188L-29.641,85.979"/>
</g>
<g id="Layer_1_1_">
</g>
</svg>
