<?xml version="1.0" encoding="utf-8"?>
<!-- Generator: Adobe Illustrator 16.0.4, SVG Export Plug-In . SVG Version: 6.00 Build 0)  -->
<!DOCTYPE svg PUBLIC "-//W3C//DTD SVG 1.1//EN" "http://www.w3.org/Graphics/SVG/1.1/DTD/svg11.dtd">
<svg version="1.1" id="Layer_1" xmlns="http://www.w3.org/2000/svg" xmlns:xlink="http://www.w3.org/1999/xlink" x="0px" y="0px"
	 width="301.112px" height="242.581px" viewBox="-138.147 -111.511 301.112 242.581"
	 style="enable-background:new -138.147 -111.511 301.112 242.581;" xml:space="preserve">
<g id="Layer_99">
	<path id="Nowshera" style="fill:#CCCCCC;stroke:#FFFFFF;stroke-width:1.15;" d="M-71.879,124.722L-71.879,124.722l1.15,1.162
		l0.067,0.062l0.785,0.544l1.619-0.024l0.847-0.284l1.428-0.52l2.269-0.864l1.315-0.075l1.558,0.568l2.188,0.779l0.291-0.1
		l1.328-0.493l0.155-0.024l2.15-0.359l1.496,0.235l0.605,0.086l0.457,0.05l1.235,0.074l1.484,0.654l0.63-0.024l1.316-0.111
		l1.811-1.532l0.853-0.791l1.848-0.902l1.73-1.347l0.939-1.138l1.088-0.655l0.451-0.26l0.878,0.866l1.848,1.458l0.958,0.073h0.031
		l2.564-0.778l0.735-0.655l0.822-0.753l2.088-1.509l0.606-0.26l2.156-1.112l2.226-0.432l0.71-0.187l2.404-0.68l0.482-0.717
		l0.16-0.778l0.785-0.42l2.219-1.483l2.44-1.632l0.532-0.333l2.269-1.373l3.541-1.396l2.923-0.902h0.34l2.8-0.099l2.28,0.965
		l1.848,1.087l2.021,1.1l0.434,0.235l1.304,0.42l1.582-0.333l2.849-0.581l1.138-0.224l2.379-0.642l1.342-0.099l0.507,0.185
		l0.166,0.062l0.267,0.148l-0.408,0.667l0.266,0.791l0.507,0.173l0.847,0.271l2.162,0.297l2.065-0.024l1.718-0.272l2.459-0.209
		l0.557-0.025l-0.037-0.136l2.003,0.099l0.828,0.815l0.778,0.815l0.754,1.756l0.692,1.892l0.79,0.914l0.669-0.099l0.704-0.396
		l1.396-0.964l0.779-0.544l0.074-0.074l1.323-1.384l1.582-1.806l1.038-1.371l0.927-1.323l0.654-1.31l0.767-0.891l1.311-1.582
		l0.939-0.902l0.383-0.988l0.148-0.952l-0.049-1.223l-0.037-0.878l0.321-1.508l0.296-0.902l-0.209-0.235l0.407-0.704l0.791-0.544
		l0.939-0.396l2.002-0.52l2.757-0.457l1.842-0.272l1.161-0.593l1.262-0.396l6.328-1.113l1.692-1.148l2.213-1.322l1.582-1.781
		l0.359-1.408l-0.359-0.977L66.5,83.748l-1.57-2.225l-1.05-1.335l1.248-1.187l2.62-1.137l3.684-0.247l5.253,1.161l4.672,1.718
		l4.956,1.582l7.133,2.262l6.539,1.558l1.013,0.223l0.667-0.036l2.941,0.222l4.636,0.643l3.399,0.52l4.475,0.827l3.757,1.67
		l1.359,0.667l5.464,0.408l3.609-0.804l0.964-0.309l1.235-0.149l1.484-0.433l1.902-0.469l0.198-0.829l-0.494-0.976l-0.347-1.162
		l0.471-0.741l1.136-0.174l1.521,0.124l3.424,1.558l2.397,1.31l3.609,1.916l2.966,1.062l2.546,0.235l0.569-0.643l0.073-0.494
		l-0.073-0.494l-0.68-1.607l-1.002-1.632l-0.469-0.778l-1.46-3.078l-1.581-3.003l-0.271-1.187l0.173-2.473l0.073-0.827l0.396-2.559
		l0.174-1.262l0.136-1.396l0.161-1.693l0.271-2.62l0.186-2.447l0.136-2.323l0.099-2.226l0.235-1.866l0.26-1.842l-0.148-4.993
		l-0.705-2.756l-0.433-2.521l0.52-2.064l0.605-1.224l0.47-2.435l0.26-0.482l0.26-2.114l-0.433-1.655l-1.113-2.028l-1.31-1.978
		l-1.261-2.335l-0.779-3.597l0.384-1.806l0.643-1.371l0.52-2.757l-0.828-1.236l0.086-1.1v-1.656l0.174-1.31l0.024-0.767l0.049-1.261
		l0,0l-0.593-1.854l-0.519-0.42l-0.311-1.409l0,0l-0.333-0.383l-0.074-0.681l0.05-0.753l0.173-0.816l0.495-1.014l0.271-0.506
		l-0.271-1.014l-0.1-1.793l0.074-1.025l-0.272-2.015l-0.667-2.003l-0.939-2.026l-2.262-3.448l-0.272-0.606l-0.148-0.21l-0.68-1.31
		l-1.211-1.446l-0.964-1.656l-0.742-1.929l-1.558-2.063l-1.31-1.125l-0.791-1.36l0.271-0.457l0.347-0.915l0.049-0.086l-0.519-0.445
		l0.396-1.384l0.433-1.236l0.284-0.631l0.52-0.531l0.915-0.778l0.567-0.21l0.792-0.211l0.89-0.284l0.568-0.827l0.42-0.471
		l0.68-0.988l0.655-0.618l0.582-0.197l0.654-0.137l0.791-0.47l0.074-0.766l0.507-0.828l0.494-0.815l0.284-0.544l0.495-0.062
		l0.346,1.273v-0.705l0.111-0.68l0.396-0.433l0.655-0.407l0.123-0.074l0.692-0.371l0.655-0.42l0.235-0.68l0.16-0.644l-0.037-0.815
		l0.037-0.865l-0.136-0.531l-0.024-0.198l-0.1-0.643l0.074-0.531l0.05-0.557v-0.828l-0.024-1.149l0.049-0.68l0.234-1.335
		l0.112-0.741l0.172-0.605l0.224-0.915l-0.013-1.063l-0.111-0.667l-0.05-0.594l-0.099-0.543l-0.099-0.841l-0.075-0.704l-0.098-0.755
		l0.049-0.89l0.024-0.618l0.075-1.062l0.073-0.692l0.271-0.594l0.767-2.397l0.408-0.68h0.012l0.025-0.086l0.297-0.705l0.297-0.692
		l0.568-0.383l0.198-0.037l0.889-0.939l0.025-0.581l-0.025-0.099l-0.222-0.816l-0.038-0.63l0.26-0.481l0.31-0.508l0.26-0.643
		l0.222-0.68l0.013-1.125l0.123-0.766l0.235-0.841l0.198-0.557l0.272-0.84l0.259-0.618l0.26-0.668v-0.036l0.297-0.569l0.147-0.544
		l0.173-0.68l0.024-0.037l0.298-0.605l-0.186-0.568l-0.062-0.123l0,0l-0.272-0.347l-0.259-0.717l-0.187-0.667l-0.593-0.606
		l-1.693,0.05l-0.086,0.024h-0.693l-2.051,0.606l-0.396,0.073l-0.371,0.445l-0.272,0.444l-0.767,0.47l-0.061,0.025l-0.644,0.321
		l-1.273,0.197l-0.667,0.075l-1.1-0.013l-0.717-0.137l-0.681-0.284l-1.26-0.63l-1.162-0.482l-0.346-0.11h-0.038l-0.753-0.137
		l-1.051-0.284l0,0l-0.26-0.024l-1.062-0.1l-0.606-0.148l-0.1-0.247l-0.185-0.358l-0.321-0.767l-0.717-0.556l-0.741-0.334
		L135-81.321l-0.865-0.099l-1.187-0.173l-0.52-0.087l-0.481-0.223l-0.52-0.247l-0.223,0.21l-0.049,0.037l-0.52,0.384l-0.024,0.012
		l-0.778,0.223l-0.544,0.049l-0.111-0.024l-0.568-0.16l-0.669-0.445l-0.258-0.136l-0.902-0.272l-1.039,0.05l-3.387,0.062
		l-0.952-0.309l-0.853-0.284l-0.42-0.284l-0.816-0.705l-1.384-0.284l-0.271,0.173l-0.224,0.235l0.025,0.26l0,0l0.05,0.914
		l-0.05,0.865l0.05,0.692l-0.31,0.358l-0.259,0.247l-0.767-0.396h-0.062l-0.037-0.049l-0.271-0.137l-0.47-0.444l-0.988-0.619
		l-0.619-0.456l-1.272-0.581h-0.778l-0.495,0.049l-3.831,0.457l-0.865,0.148l-0.643,0.557l-0.174,0.123l-0.21,0.903l-0.136,0.827
		l-0.16,0.779l-0.038,0.16v0.013l-0.271,0.914l-0.26,0.939l-0.26,0.668l-0.296,1.051l-0.297,0.581l-0.347,0.358l-0.247,0.223
		l-0.568,0.21l-1.322,0.234l-0.891-0.013l-2.088-0.099l-1.434-0.049h-0.99l-1.136,0.062l-1.311-0.024l-1.546-0.668l-1.075-0.383
		l-0.791-0.26l-1.347-0.024l-1.124,0.062l-1.162-0.507l-0.272-0.111l0,0l-2.373-0.729l-1.606-0.617l-0.791-0.347L80.813-77.6
		l-0.755-0.124l-0.766-0.074l-1.483,0.037L76.426-77.7l-1.262,0.087l-1.483,0.062l-1.223,0.148l-1.002,0.161l-0.939,0.136
		l-1.482,0.321l-1.372,0.346l-0.433,0.1h-0.013l-0.161,0.049l-4.065,1.422l-2.337,0.481l-0.865,0.531l-0.63,0.137l-1.198-0.173
		l-0.779,0.123l-1.446-0.321l-0.494-0.26l-0.124-0.086l-0.631-0.408l-0.803-0.47l-0.816-0.358l-1.285-0.371l-0.977-0.37l-0.63-0.025
		l-1.063,0.087l-1.224,0.037l-1.124,0.086l-0.816,0.013l-0.544-0.383l-0.444-1.014l-0.024-0.47l-0.025-0.939l0.074-0.692
		l0.198-0.531l0.222-0.593l0.298-0.421l0.567-0.519l0.717-0.705l0.445-0.52l0.26-0.47l0.197-0.432l0.235-0.569l0.073-0.865
		l-0.791-0.407h-1.111h-1.385l-0.766-0.174l-1.311-0.296l-1.471-0.841l-0.433-0.433l-0.841-1.446l-0.346-0.977l-0.05-0.68
		l0.161-0.767l0.21-0.753l0.223-0.668l0.296-0.557v-1.038l0.767-0.704l0.074-0.557l-0.692-1.545l-0.667-0.766l-0.371-0.445
		l-0.297-0.371l-0.371-0.371l-0.346-0.136l-0.247-0.507l-0.271-0.42l-0.223-0.643l-0.235-0.767l-0.284-0.729l-0.321-0.544
		l-0.371-0.259l-0.396-0.037l-0.32-0.038l-1.138-0.049l-0.779-0.099l-0.827-0.074l-0.964-0.087l-0.989-0.197l-1.088-0.223
		l-1.459-0.087l-1.211-0.147l-0.939-0.013l-0.037,0.247l-0.234,0.42l-0.26,0.309l-0.977,0.198l-0.618-0.037l-1.101-0.186
		l-0.853-0.16l-0.815-0.074l-1.062,0.297l-1.162,0.16l-1.063,0.297l-1.235,0.31l-1.453,0.246l-1.218,0.186l-1,0.087l-0.712-0.234
		l-1.031-0.1l-0.772-0.358l-1.372-0.284l-1.316-0.321l-1.366-0.321l-1.001-0.235l-1.075-0.086l-0.822,0.099l-1.848-0.433
		l-0.908-0.334l-1.354-0.543l-1.23-0.508l-1.254-0.259l-1.644-0.161l-0.885-0.087l-0.784-0.259l-1.051-0.482l-0.266-0.136
		l-4.129,1.199l-5.023,0.939l-1.316,0.21l-0.989,0.186l-1.755,0.494l-1.063,0.309l-1.749,0.334l-1.402,0.124l-0.977,0.222
		l-1.978,2.67l-1.86,2.447l-2.33,3.091l-2.602,4.375l-2.102,3.275l-1.675,2.806l-1.909,2.608l-1.811,3.448l-1.546,2.583
		l-1.391,2.225l-1.316,1.793l-0.951,1.582l-1.125,1.668l-1.161,1.806l-0.761,1.359l-0.637,1.075l-0.945,0.828l-1.1,1.062
		l-0.557,1.805l1.552,1.286l0.599,0.89l-1.897,0.26l-1.569-0.26l-2.269,0.16l-2.533,0.26l-1.211-0.024l-0.928-0.346l-0.692-0.816
		l-1.291-1.211l-0.637-0.742l-0.68-1.335l-0.835-1.458l-0.673-1.508l-0.111-1.496l-0.562-2.026l-0.451-1.632l-0.167-1.545
		l-0.191-1.138l-0.254-1.768l-0.277-0.791l-0.859-0.383l-1.402-0.26l-0.977-0.334l-1.719-0.717l-1.786-1.124l-1.18-0.865
		l-0.785-0.644l-0.97-0.396l-1.459-0.444l-1.112-0.47l-1.125-0.371l-0.797-0.234l-1.305-0.284l-1.328-0.396l-1.168-0.359
		l-1.947-0.531l-1.112-0.074l0.315,0.655l0.266,0.643v0.482l-0.859-0.371l-2.089-1.335l-0.89-0.296l-1.779-0.445l-1.28-0.136
		l-3.621-0.248l-1.365-0.185l-3.801,1.322l-0.581-0.074l-1.051,0.136l-0.81,0.037h-0.934l-0.938,0.223l-1.076,0.111h-1.062
		l-1.354-0.531l-0.859-0.569l-0.927-0.691l-0.531-0.421l-0.644,0.087l-1.902,1.199l0.012,0.865l0.013,0.704l-0.1,0.754l-0.617,0.013
		l-0.674-0.421l-0.52-0.433l-0.63-0.544l-0.266-0.383l-0.384,0.272l-0.797,0.346l-1.279,0.124l-1.478-0.396l-2.039-0.013
		l-1.786,0.321l-1.848,0.47l-0.847,0.68l-0.797,2.213l-0.507,1.842l-0.438,1.544l-0.143,1.15l-0.062,0.691l0.036,1.359l0.025,1.682
		l0.921,1.1l1.242,0.965l0.772,0.964l0.229,1.656l0.433,0.939l0.556,0.47l0.692,0.52l0.736,0.568l0.58,0.556l0.31,0.433l0.259,0.643
		l-0.791,0.705l-0.396,0.21l-1.205,0.519l-1.606,0.742l-1.279,1.149l-0.594,0.556l-0.457,0.705l0.687,0.013l1.1,0.457l0.408,0.951
		l0.556,1.199l1.112,1.038l0.544,0.618l0.557,1.014l0.191,0.902l0.191,0.902l0.785,0.31l1.606,1.495l0.148,0.667l0.117,0.433
		l0.192,0.384l0.222,0.271l0.266,0.198l0.396-0.025l0.471-0.037l1.681,0.161l0.915,0.519l0.327,0.508l0.364,0.642l0.117,0.557
		l-1.229,0.05l-1.483,0.074l-1.124,0.654l-0.687,1.014l-0.871,1.558l-1.101,1.396l-1.217,1.348l-0.772,0.68l0.89,0.173l1.014,0.087
		l0.352,0.37l0.785,0.445l2.38,0.247l0.506,0.297l0.229,0.544l0.401,0.42l1.038,0.618l0.253,0.445l0.025,0.383l-1.174,1.063
		l-0.013,0.21l-0.167,2.076l-0.68,0.247v0.013l-0.08,0.012l-0.111,0.05h-0.204L-123-29.927l-0.667-0.148h-0.687l-1.316-0.099
		l-1.495,0.37l-0.253,0.198l-0.681,1.174l-0.834,0.544l-0.321,1.298l0.068,0.124l0.784,1.458l0.402,0.482l1.025,1.014l-0.037,0.741
		l0.229,0.31l-0.117,0.407l0.544,0.47l2.379,0.717l2.677,1.174l0.519,0.396l1.582,0.532l0.247,0.062l2.089-0.284l3.177-0.631
		l2.886-0.234l2.861-0.841l1.014-0.396l1.521,0.334l0.785-0.297l0.934-1.198l0.506-0.644l0.557-0.271l2.941-0.593l2.021,0.073
		l2.077-0.222l0.884-0.186l2.873-1.435l0.891-0.357l0.785-0.124l-0.13,0.877l0.519,1.533l-0.16,2.719v2.473l-0.687,1.149
		l-0.29,0.408l-0.217,1.248l-0.747,1.656v1.248l-0.124,2.077l-0.834,2.484l-0.347,1.025l-0.556,1.756l-0.797,2.385l0.24,1.558
		l0.143,1.272l0.062,0.903l1.316,3.016l0.123,1.124l0,0l0.155,1.484l-0.093,1.718l-0.013,0.37l-0.123,1.298l-0.267,1.966
		l-0.327,0.976l-0.266,1.582l-0.266,1.359l-0.458,2.979l0.074,0.605l0.05,0.915l-0.327,0.803l0.117,0.915l-0.167,1.322l-0.76,2.56
		l-0.013,0.073l0.384,1.199l0.778,1.829l0.815,1.323l2.139,1.742l0.785,2.521l-0.785,0.42l0.81,0.842v1.396l-1.354,0.915
		l-0.785-0.297l-2.206,0.037l-1.533,1.051l-1.427,1.211l-0.241,0.396l-1.138,1.78l-1.205,1.063l-1.174,0.964l-1.471,0.185
		l-0.772-0.32l-0.668,0.617l-0.785,0.482l0.532,15.87l0.556,0.593l0.711,0.779l1.261,1.311l1.903,1.507l2.046,1.349l2.343,0.939
		l1.736,1.037l1.619,0.805l1.341,0.432v0.741l-0.884,0.829l-0.674,1.644l1.193,0.951l2.367,1.101l1.315,1.088l1.051,0.481
		l1.076,0.482l2.162,1.311l1.632,1.162l2.076,0.309l2.163-0.247l3.164-0.433l2.521-0.062l4.833,0.05l2.694,0.47l2.064,0.346
		l2.002-0.024l1.935-0.05l1.304,0.26l0.13,0.099l0.779,0.581l0.785,0.667l1.217,1.385l1.205,1.694l0.772,1.31l0.909,1.792
		l0.593,2.114l0.822,1.334l0.772,0.989l0.358,1.014l0.352,1.631l0.482,1.322l0.364,0.779l0.421,0.667h0.668l-0.353,0.668
		l-1.112,1.285l-1.051,1.273l-1.823,1.421l-2.38,1.744l-2.379,1.42l-1.725,1.583l-1.315,1.805l-1.632,1.582l-0.631,1.038
		l-1.532,1.272l-1.762,1.73l-1.835,1.743l-2.77,2.188l-2.052,1.841l-1.037,2.707l0.049,0.494l0.191,1.261L-71.879,124.722"/>
</g>
<g id="Layer_1_1_">
</g>
</svg>
