<?xml version="1.0" encoding="utf-8"?>
<!-- Generator: Adobe Illustrator 16.0.4, SVG Export Plug-In . SVG Version: 6.00 Build 0)  -->
<!DOCTYPE svg PUBLIC "-//W3C//DTD SVG 1.1//EN" "http://www.w3.org/Graphics/SVG/1.1/DTD/svg11.dtd">
<svg version="1.1" id="Layer_1" xmlns="http://www.w3.org/2000/svg" xmlns:xlink="http://www.w3.org/1999/xlink" x="0px" y="0px"
	 width="301.112px" height="199.274px" viewBox="-129.472 -85.512 301.112 199.274"
	 style="enable-background:new -129.472 -85.512 301.112 199.274;" xml:space="preserve">
<g id="Layer_96">
	<path id="Nawabshah" style="fill:#CCCCCC;stroke:#FFFFFF;stroke-width:1.15;" d="M25.943-80.484L25.943-80.484h-0.436l-1.941,0.028
		L22-80.729l-1.63-0.444l-0.79-0.09l-0.998-0.056l-2.225-0.079l-1.698-0.17l-1.629,0.11l-1.92,0.139l-1.358,0.246l-2.225,0.371
		L5.21-80.293l-2.579,0.562l-2.267,0.439l-2.343,0.44l-1.29,0.277l-1.698,0.17l-0.451,0.052l-0.499,0.049l-1.622,0.19l-1.629,0.184
		l-1.207,0.188l-0.977,0.44l-0.7,0.481l-0.444,0.367l-0.582,0.243l-0.859,0.121l-0.534,0.076l-1.005,0.447l-1.178,0.953
		l-0.652,0.544l-0.249,0.392l-0.34,0.738l-0.111,0.548l-0.145,0.481l-0.347,0.34l-0.936,0.201l-1.629,0.148l-1.331-0.052
		l-2.169,0.06l-1.622,0.041l-1.677,0.19l-1.137,0.201l-0.742,0.035l-0.901-0.198l-0.874-0.356l-0.742-0.156l-1.373-0.021
		l-1.179-0.028l-2.218-0.034l-1.623-0.188l-1.622-0.124l-0.929-0.018l-0.887,0.142l-0.707,0.149l-0.561,0.242l-1.04,0.44
		l-0.846,0.277l-0.146,0.048l-0.652,0.222l-0.582,0.264l-0.298,0.239l-0.25,0.392l-0.014,0.111l-0.409,0.457l-0.264,0.545
		l-0.194,0.676l-0.437,0.332l-0.61,0.306l-0.7,0.44l-0.27,0.533l-0.16,0.44l-0.208,0.239l-0.409,0.249l-0.568,0.149l-0.811,0.184
		l-0.742,0.312l-0.464,0.306l-0.942,0.745l-0.749,0.152l-0.409,0.007l-2.579-0.472l-0.887-0.298l-0.783-0.056l-0.742,0.062
		l-0.88,0.392l-0.547,0.007l-0.333-0.239l-0.45-0.242l-0.548,0.007h-0.471l-0.61-0.298l-0.277-0.492l-0.194-0.36l-0.25-0.243
		l-0.631-0.056l-1.233,0.008l-1.013-0.149l-0.749-0.239l-0.617-0.443l-0.402-0.604l-0.61-0.36h-0.485l-0.527-0.056l-0.887-0.298
		l-0.734-0.419l-0.354-0.697l-0.27-0.759l-0.271-0.149l-0.88-0.148l-0.485-0.184l-0.451-0.485l-0.208-0.603l-0.61-0.836
		l-0.555-0.479l-0.422-0.218l-0.596-0.957l-1.359,1.636l-1.067,0.697l-0.61,0.779l-0.818,0.776l-0.152,0.548l-0.187,0.544
		l-0.686,0.461l-0.735,0.312l-0.874,0.398l-0.471,0.609l-0.437,0.981l-0.604,0.853l-0.832,1.025l-0.271,0.167h-0.271l-0.61-0.115
		l-1.982-0.894l-1.331-0.696l-1.802-0.382l-2.246-0.596l-1.566,0.014l-1.913,0.381l-1.324,0.738l-1.088,0.683l-1.053,1.044
		l-0.943,1.383l-0.402,0.846l-0.451,1.342l-0.139,1.688l-1.241,1.251l-1.761,0.887l-0.908,0.035l-0.88-0.014l-0.645-0.08
		l-0.853-0.125l-0.589-0.142l-0.7-0.256l-0.45-0.597l-0.569,0.651l-0.367,0.555l0.173,0.696l0.485,0.901l0.852,1.993l0.929,2.498
		l1.241,4.354l0.319,3.528l-0.139,2.149l-0.208,1.639l-1.144,2.575l-1.345,2.375l-2.808,3.271l-2.911,3.067l-1.865,2.041
		l-1.76,2.159l-1.546,2.194l-0.292,1.029l-0.056,0.873l1.019,1.12l2.884,0.738l2.392-0.076l1.511,0.169l0.963,0.149l0.423,0.212
		l0.042,1.07l-0.069,1.054l-0.679,2.212l-1.379,2.96l-0.665,1.989l-0.867,3.399l-0.381,2.704l-0.444,1.732l-1.151,1.207
		l-1.684,0.793l-1.47,0.995l-0.839,1.129l-0.194,1.335l0.666,3.251l0.284,2.356l0.568,3.075l-0.499,1.167l-0.908,1.033l0.423,0.572
		l0.471,0.439l0.617,0.901l0.756,1.192l0.111,1.456l0.236,2.495l0.783,0.609l0.811-0.138l0.999-0.715l0.534-1.296l0.048-1.456
		l0.888-2.023l1.033-1.414l0.977-0.121l0.964,0.148l0.45,0.888l-0.048,1.331l-0.097,2.634l0.18,2.786l0.132,2.024l1.185,2.953
		l1.796,2.024l0.95,0.609l2.682,1.546l2.246,0.354l1.449,0.193l1.088,0.742l1.712,1.525l1.913,1.345l1.92,0.936l1.566,1.65
		l3.944,3.029l2.218,0.964l3.708,0.249l2.571,0.222l1.082,0.901l1.359,2.384l0.444,4.547l-0.596,3.064l0.222,2.496l0.908,1.622
		l2.01,2.397l4.048,3.925l7.188,6.494l12.325,11.61l6.648,6.142l3.25,3.612l5.74,6.439l1.691,1.81l1.386,1.352l4.18,0.721
		l6.918,0.208l5.615-0.319l3.972-0.332l1.102,1.338l1.663,1.628l1.359,1.192l1.116,1.055l1.338-1.373l1.539-1.352l2.239-1.969
		l1.088-1.088l0.714-0.443l0.201-0.008l0.277,0.292l0.188,0.519l0.298,0.902l0.541,0.34l0.333-0.008l0.256-0.125l0.312-0.741
		l0.146-1.206l0.284-1.379l1.04-0.777l0.916-0.415l1.449-0.104l0.936,0.028l0.333-0.133l0.437-1.331l0.271-1.746l0.547-1.358
		l0.742-1.686l0.895-2.827l1.809-3.141l1.774-2.329l2.551-2.884l2.558-2.647l3.154-2.128l3.112-1.823l2.094-0.901l0.443-0.014h0.264
		l0.438,0.277l0.457,0.499l1.248,0.943l1.725,0.741l0.742,0.409l0.748,1.012l1.561,1.123l1.4,0.624l1.066,0.692l1.229,0.735
		l0.74,0.714l0.445,0.146l0.525-0.083l0.215,0.471l0.152,0.888l1.762-0.457l0.721,0.034l0.686,0.159l0.674,0.319l0.803,0.687
		l1.012,0.894l0.721,0.506l0.555,0.146l0.34-0.013l0.68-0.146l0.742-0.271l1.033-0.568l1.039-0.651l1.234-0.783l0.395-0.438
		l0.457-0.478l0.734-0.741l0.32-0.596l0.014-0.452l-0.166-0.645l-0.307-0.679l-0.887-1.761l-0.484-1.061l-0.361-1.282l-0.277-1.04
		l-0.963-2.495l-1.082-2.287l-1.705-3.494l-1.42-3.015l-0.908-1.754l-0.443-0.735l-0.848-1.428l-0.49-0.666l-0.75-0.499l-0.83-0.249
		l-1.158,0.151l-3.842,0.722l-2.121,0.222l-0.471-0.056l-0.318-0.235l-0.193-0.887l-0.396-2.787l-0.291-2.052l-0.166-1.546
		l-0.117-0.506l-0.076-0.79l-0.146-1.407l-0.201-1.033l-0.049-0.458l0.139-0.096l0.264-0.098l0.389,0.069l0.609-0.146l0.584-0.118
		l0.762-0.305l0.207-0.11l0.445,0.214l0.055-0.118l0.264-0.305l0.783-0.208l3.271-0.526l2.467-0.624l0.672-0.326l0.16-0.547
		l0.389-0.562l1.496-1.199l0.861-0.388l0.797-0.028l1.746,0.132l1.234,0.409l0.416-0.027l0.846-0.402l1.012-0.576l1.248-0.645
		l0.742-0.208l0.686-0.139l0.652-0.388l0.443-2.392l-0.166-1.366l-0.645-0.54l-0.84-0.707l-2.072-1.096l-1.436-0.741l-0.111-0.36
		l0.029-0.347l0.74-0.443l5.172-3.487l0.596-0.215l0.438,0.069l1.67,1.179l1.602,1.115l1.297,0.707l1.643,0.825l1.553,0.937
		l1.455,1.144l1.033,0.811l1.49,0.763l1.65,0.742l2.432,1.352l1.139,0.734l0.602,0.444l1.49,0.692l1.811,1.179l0.775,0.555
		l0.389,0.609l0.008,0.278l-0.486,0.596l-1.65,1.442l-0.928,0.797l-0.174,0.256v0.14l0.158,0.305l0.979,0.402l2.453,1.122
		l1.449,0.734l2.607,0.943l2.045,0.901l1.482,0.582l1.857,0.942l1.443,0.763l0.955,0.402l0.867,0.097l0.729-0.2l0.449-0.507
		l0.375-0.513l0.055-0.734l0.146-0.964l0.291-0.278l0.596-0.146l0.721-0.415l0.424-0.693l0.27-0.741l0.125-0.583l0.312-0.866
		l0.574-0.68l0.451-0.021l0.471,0.284l0.992,0.998l0.797,0.832l0.672,0.68l1.102,1.102l0.896,0.978l0.58,0.638l0.424,0.651
		l0.811,1.331l0.381,0.471l0.244-0.006l0.395-0.326l0.443-0.804l0.734-0.79l0.631-1.643l0.832-1.935l0.098-0.895l-0.027-0.68
		l-0.396-1.185l-0.145-0.389l-0.016-0.388l0.035-0.277l0.182-0.146l0.215-0.146l0.756-0.222l0.893-0.146l0.465-0.111l0.424-0.367
		l0.188-0.444l-0.057-1.885l-0.193-1.816l-0.277-0.457l-0.438-0.153l-1.338-0.117l-0.395-0.173l-0.146-0.39l-0.139-3.652
		l-0.145-4.45l-0.035-1.629l-0.145-0.312l-0.223-0.214l-0.561-0.07l-5.24,0.042l-0.861-0.049l-0.152-0.27l-0.145-0.687l-0.084-4.651
		l0.021-0.617l0.43-0.437l1.449-1.22l0.389-0.666l0.117-0.45l-0.264-1.32l-0.014-0.812l0.264-0.842l0.498-0.336l0.596-0.149
		l3.314-0.177l0.949,0.101l0.486,0.434l0.645,1.14l0.318,0.306l1.297,0.079l4.727-0.106l0.359-0.164l0.119-0.392l-0.152-0.537
		l-0.049-1.008l0.146-0.503l0.506-0.149l0.395-0.014l0.395,0.034l0.146,0.454l0.098,1.335l0.123,0.752l0.152,0.347l0.209,0.094
		l0.297-0.156l0.168-0.503l0.125-2.059l-0.119-3.601l0.041-0.347l0.396-0.204l0.74,0.014l0.348-0.128l-0.076-0.662l-0.193-3.03
		l0.076-2.187l0.248-0.163l0.715-0.114l1.164-0.027l0.291,0.027l0.055,0.149l0.127,0.887l0.014,0.347l0.172,0.264l0.307,0.073
		l0.941-0.066l0.707-0.149l0.18-0.312l-0.062-1.625l0.133-0.149l0.416-0.094l0.9,0.018l0.264,0.069l0.049,0.271l-0.008,0.853
		l0.057,0.347l0.305,0.184l0.604-0.118l3.057-0.146l2.475-0.118l0.555-0.021l0.098,0.219l-0.057,0.808l-0.248,1.441l-0.154,2.288
		l0.035,0.707v0.152l0.152,0.617l0.223,0.148l0.34-0.014l1.232-0.62l1.844-1.525l2.594-1.917l2.6-1.868l2.605-1.524l1.033-0.61
		l1.852-1.334l2.744-2.052l2.135-1.852l2.08-2.03l1.199-1.383l0.783-1.04l1.65-2.318l1.656-2.288l1.553-2.364l1.373-2.54
		l0.678-1.456l0.527-1.036l0.707-0.87l0.748-0.654l0.549-0.326l0.324-0.631l0.375-2.686l-0.131-0.999l-0.215-0.305l-1.012-0.149
		l-0.908-0.017l-0.154-0.118l-0.02-0.135l-0.027-0.149l0.18-1.355l0.299-1.393l0.346-1.3l0.471-2.19l0.07-1.976l-0.146-0.964
		l-0.207-2.513l-0.367-1.448l-1.061-2.25l-1.006-1.3l-1.303-1.341l-0.805-1.037l-0.527-1.42l-0.691-1.335l-0.348-0.88l-0.152-1.29
		l-0.43-2.079l-0.811-2.194l-1.221-2.804l-1.039-1.528l-0.965-1.39l-1.309-1.342l-1.629-1.47l-2.219-1.524l-1.906-1.051
		l-2.379-1.448l-1.336-0.696l-2.053-0.725l-1.623-0.929l-1.191-0.718l-0.465-0.163l-0.354-0.034l-0.297,0.062l-0.389,0.229
		l-0.887,0.603l-0.34,0.104l-0.354-0.149l-1.422-1.206l-0.783-0.454l-1.387-0.367l-4.047-0.398l-3.113-0.291l-0.561,0.065
		l-0.805,0.17l-2.426-0.024l-2.26-0.146l-1.393-0.08l-2.15,0.115l-2.633,0.048l-1.172-0.19l-2.939-0.148l-3.418-0.371l-2.51-0.312
		l-2.217-0.246l-1.629-0.038l-1.92-0.149L94.75-72.18l-1.734-0.34l-2.551-0.218l-3.445-0.284l-2.482-0.201l-0.822-0.083
		l-2.025-0.326l-1.602-0.575l-1.996-0.465l-2.238-0.408l-1.463-0.149l-2.912-0.648l-3.402-0.589l-1.844-0.325l-1.104-0.149
		l-3.598-0.094l-2.994-0.146l-1.455,0.225l-1.58,0.469l-0.812,0.207l-0.498,0.015l-0.867-0.319l-2.885-0.967l-1.787-0.378
		l-1.982-0.163l-1.934-0.374l-1.955-0.513l-0.908-0.049L41.062-79l-1.117,0.222l-0.604,0.239l-0.436,0.014l-0.957-0.132
		l-1.953-0.689l-1.922-0.78l-1.928-0.596l-1.303-0.038l-1.51,0.142l-0.596,0.094l-1.707-0.235L25.943-80.484"/>
</g>
<g id="Layer_1_1_">
</g>
</svg>
