<?xml version="1.0" encoding="utf-8"?>
<!-- Generator: Adobe Illustrator 16.0.4, SVG Export Plug-In . SVG Version: 6.00 Build 0)  -->
<!DOCTYPE svg PUBLIC "-//W3C//DTD SVG 1.1//EN" "http://www.w3.org/Graphics/SVG/1.1/DTD/svg11.dtd">
<svg version="1.1" id="Layer_1" xmlns="http://www.w3.org/2000/svg" xmlns:xlink="http://www.w3.org/1999/xlink" x="0px" y="0px"
	 width="301.269px" height="296.848px" viewBox="-138.165 -136.203 301.269 296.848"
	 style="enable-background:new -138.165 -136.203 301.269 296.848;" xml:space="preserve">
<g id="Layer_25">
	<path id="Buner" style="fill:#CCCCCC;stroke:#FFFFFF;stroke-width:1.15;" d="M35.454-127.563L35.454-127.563l-0.251-0.239
		l-2.249-0.228l-0.754,0.024l-0.599,0.083l-0.98-0.012l-1.077,0.036l-0.777-0.275l-0.12-0.012l-0.909-0.323h-0.036l-0.467-0.168
		l-2.404-0.957l-2.465,0.287l-1.257-0.06l-1.269-1.316l-1.257,0.191l-1.866,0.323l-1.724,0.526l-1.053,0.694l-0.609,0.383
		l-1.161,2.118l-0.144,0.479l-0.312,1.161l-0.191,0.789l-0.311,1.34l-0.3,1.257l-0.131,1.52l-0.228,1.053L9.92-117.2l-0.107,0.107
		l-0.407,0.909l-1.279,1.508l-0.73,0.85l-0.766,0.85l-0.526,0.491l-0.623,0.371l-0.071,0.071l-0.251,0.215L3.938-111.9l-1.556-0.323
		l-0.526-0.155l-2.011-0.407l-0.215-0.035l-0.599-0.036l-1.794-0.275l-0.396-0.071l-1.041-0.204l-1.269-0.251l-1.795-0.228h-0.119
		l-0.383-0.048l-2.166-0.251l-2.345-0.383l-0.599-0.335l-0.897-0.526l-0.479-0.91l-1.544-2.058l-1.579-0.97l-1.544-0.036
		l-2.681,0.981l-1.101,0.455l-1.16,0.371l-0.97,0.347l-1.185,0.467l-1.269,0.454l-1.112,0.443l-1.58,1.041l-0.634,0.61l-1.783,1.447
		l-0.371,0.239l-0.203,0.216l-0.407,0.228l-1.101,1.448l-1.495,0.789l-0.264,0.096l0,0l-0.79,0.335l-1.388,0.395l-1.604,0.587
		l-1.436,0.55l-1.64,0.599l-1.029,0.431l-0.263,0.107l-0.395,0.384l-0.252,1.388l-0.287,1.974l-0.144,1.054l-0.107,1.508
		l-0.778,2.034l-0.766,0.909l-0.155,0.228l-0.275,0.406l-0.729,0.861l-0.396,0.491l-0.969,1.185l-0.132,0.18l0,0l-0.789,0.981
		l-0.778,1.005l-0.993,1.328l-1.975,2.44l-1.028,1.197l-0.79,0.646l-1.269,1.029l-1.472,0.132l-1.412,0.215l-1.495,0.252
		l-1.831,0.251l-1.316,0.406l-1.436,0.562l-1.604,0.85l-1.771,0.79l-0.813,0.156l-2.01,0.766l-3.781,0.406l-3.829-0.023
		l-3.087,0.239h-0.048h-0.012l-1.137,0.347l-1.532,0.61l-1.376,0.921l-1.699,1.209l-1.28,1.005l-0.861,0.813l-1.807,1.029
		l-1.065,0.706l-1.053,0.551l-0.862,0.55l-0.119,0.084h-0.012l-2.166,1.843l-1.483,1.4l-0.706,0.837l-0.12,1.269l-0.144,1.556
		l-0.119,0.239v0.407l-0.312,0.155l-0.239,0.455l-1.065,0.144l-0.263,0.035l-1.125,0.132l-1.196,0.096l-1.005,0.168l-1.628,0.263
		l-1.34,0.419l-1.185,0.419l-1.185,0.742l-1.017,0.682l-1.006,0.526l-0.79,0.586l-0.203,0.239l0,0l-0.347,0.671l-0.144,0.119
		l-0.096,0.216l-0.036,0.107l-0.251,0.061l-0.264,0.251l-0.777-0.096l-0.562,0.06l-1.699-0.144l-0.323,0.012l-1.041,0.191
		l-0.311-0.023l-0.084,0.012l-0.742,0.035l-1.544-0.047l-1.603,0.586l-0.036,0.395v0.3l0.048,0.802l0.263,1.148l0,0l0.168,1.46
		l0.024,0.048l0.323,0.981l0.49,1.567l0,0l0.251,0.766l0.635,0.658l1.46,1.005l1.172,1.041l0.251,0.503l0.108,0.514l0.096,0.515
		l0.191,0.73l0.275,0.358l0.335,0.515l0.239,0.264l0.155,0.144l1.244,1.34l0.814,0.706l0.071,0.096l0.096,0.419l-0.263,0.802
		l-0.216,0.49l-0.239,0.479l-0.12,0.251l0.049,0.145l-0.886,0.454l-2.585,0.048l-2.441,0.072l-0.646,0.072l-0.802,0.155
		l-1.137,1.173l-0.574,2.272l-0.024,0.719l0.119,1.124v0.467l-0.765,0.562l-2.202,0.838l-0.167,0.06l-1.089,0.766l-1.592,0.683
		l-0.371,0.167l-0.347,0.467l-0.216,0.312l-0.096,1.567l0.251,1.508l-0.215,0.49l-0.275,0.706l-0.132,0.454l1.101,0.599l0.73,0.347
		l1.269,0.491l0.251,0.096l0.622,0.203l2.034,0.718l0.526,0.072l0.646,0.216l0.479,0.227l0.682,0.239l1.556,0.91l0.766,0.395
		l0.359,0.203l0.072,0.06l0.299,0.3l-0.012,0.502l-0.12,0.419l-0.335,1.232l-0.012,0.586l0.012,0.575l0.084,0.622l-0.036,0.694
		l-0.035,0.646l-0.084,0.538l-0.24,0.587l-0.263,0.718l-0.012,0.012l-0.012,0.132l-0.252,0.754l-0.119,1.089l0.562,1.975
		l-0.263,1.531l-0.395,2.645l0.274,1.855l0.252,1.375l0.347,0.396l0.287,0.395l0.562,0.599l0.706,0.515l0.718,0.275l0.574,0.286
		l0.718,0.3l0.874,0.251l0.598,0.144l0.551,0.455l0.191,0.299l0.072,0.023l0.55,0.671l0.432,0.371l0,0l0.155,0.071l0.383,0.239
		l0.419,0.191l0.383,0.084l0.035,0.06l0.419-0.012h0.287l0.396,0.012l0.706,0.072l0.67,0.264l0.682,0.251l0.73,0.071h0.467h0.335
		h0.358h0.347h0.3l0.264,0.981l0.395,0.371l0.191,0.155l0.251,0.167l0.802,0.587l0.239,0.036l0.335,0.071l0.287,0.084l0.335,0.18
		l0.432,0.239l0.442,0.383l0.358,0.419l0.443,0.61l0.431,0.609l0.312,0.359l0.43,0.3l0.635,0.227l0.431,0.191l0.407,0.239
		l0.586,0.239l0.539,0.204l0.43,0.144l0.432,0.096l0.526,0.144l0.67,0.216l0.383,0.107l0.251,0.119l0.61,0.287l0.312,0.18
		l0.251,0.168l0,0l0.228,0.071l1.388-0.729l0.048-0.061l0.587-0.777l0.395-0.419l0.55-0.442l0.85-0.527l0.694-0.335l0.491-0.19
		l0.55-0.108l0.622-0.119l0.587-0.012l0.502-0.013l0.838-0.048l1.232-0.096l1.807-0.515l0.754-0.275l0.79-0.251l0.658-0.335
		l0.921-0.215l0.73-0.084l0.574,0.06l0.766,0.144l1.196,0.275l0.767,0.144l0.454,0.072l0.383,0.012l0.144,0.012l0.264,0.012
		L-75,8.344l1.831-0.646h0.67l0,0l0.825-0.251l0.646-0.18l0.957-0.048l0.861-0.131h0.718l0.814-0.037l0.873-0.035l0.802,0.035
		l0.694,0.168l0.323,0.132l0.49,0.203l0.682,0.252l0.562,0.215l0.73,0.264l0.467,0.179l0.766,0.3l0.67,0.227l0.503,0.216
		l0.479,0.191l0.634,0.239l0.467,0.107l0.933-0.263l0.754-0.264l0.599-0.191l0.646-0.144h0.358l0.359,0.191l0.634,0.275l0.479,0.216
		l0.264,0.084l1.196,0.131l0.359,0.013l0.718-0.12h0.754l0.622-0.012l0.683,0.119l0.526,0.323l0.263,0.144l0.252,0.144l0.729,0.191
		l0.526,0.144l0.455,0.072l0.61,0.228l0.538,0.215l0.406,0.371l0.324,0.503l0.286,1.064l0.252,0.826l0.634,1.627l1.089,1.604
		l0.539,0.335l0.85,0.18l0.85,0.358l0.598,0.275l0.766,0.551l0.694,0.646l0.467,0.551l0.993,1.256l0.538,0.371l0.766,0.407
		l0.826,0.371l0.766,0.264l1.017,0.251l0.562,0.119l0.897,0.12l0.945,0.047l1.269-0.154l0.934-0.084l1.053-0.072h0.909h0.562
		l0.766,0.024l0.958-0.024l0.766-0.024l0.945,0.264l0.718,0.348l0.754,0.526l0.777,0.658l0.599,0.599l0.251,0.322l0.287,0.79
		l0.203,0.623l0.036,0.143l0.228,0.682l0.275,0.993l0.264,0.755l0.179,0.742l0.288,0.765l0.19,0.503l0.144,0.55l-0.179,0.622
		l-0.155,0.862l-0.252,0.67l-0.251,0.766l0.18,0.873l0.383,0.922l0.012,0.071l0.155,0.144l0.264,0.168l0.036-0.023l0.67,0.227
		l0.729,0.419l0.694,0.251l1.196,0.527l0.526,0.479l0.419,0.599l0.383,0.55l0.587,0.825l0.502,0.587l0.802,0.551l0.85,0.023
		l0.729-0.023l0.599-0.048h0.754l1.173,0.238l0.802,0.288l0.729,0.479l0.419,0.263l1.089-0.107l1.041-0.754l0.155,0.013l0.455-0.359
		l1.101-0.048l0.861,0.239l1.125,0.12l0.754,0.023l1.232-0.156l1.269-0.154l1.173-0.228l1.089,0.515l-0.036,0.742l0.048,0.597
		l0.024,0.647l0.012,0.861l-0.264,0.741l-0.012,0.767l0.012,0.263l0.299,0.909l0.144,0.228l0.659,0.574l0.395,0.574l0.287,0.73
		l0.49,1.221l0.539,1.124l0.479,0.658l0.754,1.006l0.096,0.646l0.179,0.754l-0.06,0.287l-0.036,0.215l-0.083,0.312l0,0l0.023,0.192
		l-0.036,0.227l-0.023,0.539l-0.107,0.789l-0.12,0.73l-0.036,0.622l-0.023,0.693l-0.239,0.503l0.144,0.383l-0.323,0.778
		l-0.264,0.622l-0.227,0.609l-0.635,0.144l-0.526,0.191l-0.084,0.061l-0.467,0.49l-0.634,0.754l-0.275,0.778l-0.479,0.502
		l-0.777,0.635l-0.228,0.801l-0.383,0.491l-0.802,0.395l-0.862,0.072l-0.718,0.084l-0.19,0.071l-0.252,0.096l-0.263,0.359
		l-0.503,0.682l-0.754,0.312l-0.071,0.023l-0.599,0.384l-0.562,0.525l-0.754,0.742l-0.599,0.539l-0.144,0.119l-0.311,1.34
		l0.012,0.013l0.156,0.586l-0.432,0.096l-0.155,0.239l-0.957,0.203l-1.556,0.3l-0.599,0.562l0.048,0.322l-0.263,0.742l-0.228,0.586
		l0.347,0.719l-0.012,0.812l-0.251,0.695l-0.144,0.622l0.335,0.562l0.431,0.574l-0.371,0.538l-0.49,0.084l-0.18,0.275l-1.065,0.479
		l-0.251,0.263l-0.036,0.288l0.323,0.515l0.299,0.729l0.084,0.742l-0.49,0.358l-0.515,0.144l-0.251,0.239l0.383,0.336l0.61,0.334
		l0.012,0.406l0.634,0.407l0.336,0.12h0.861l0.55-0.072l0.203-0.095l0.742-0.156l0.587,0.407l0.107,0.753l-0.024,0.108l-0.155,0.574
		l-0.252,0.85l-0.035,0.107l-0.275,0.945l-0.048,0.551l0,0l0.419,0.538l0.742,0.192l0.574,0.071l1.292,0.144l0.61,0.131l0.85,0.407
		l0.383,0.515l-0.012,0.18l0,0l-0.072,0.526l-0.622,0.574l-0.562,0.371l-0.562,0.347l-0.682,0.551l-0.61,0.67l-0.682,0.551
		l-0.694,0.646l-0.635,0.586l-0.012,0.013l-1.268,1.018l-1.102,0.766l-0.67,0.335l-0.311,0.646l-0.264,0.646l-0.071,0.048
		l-0.132,0.323l-0.635,0.311l-0.431,0.216l-0.599,0.515l-0.035,0.874l-0.216,0.251l-0.909,0.85l-1.053,0.789l-1.113,1.317
		l-0.909,0.98l-1.783,1.124l-1.304,0.73l0.023,0.239l0,0l0.239,0.526l0.204,0.622l-0.216,0.599l0.012,0.06l-0.789,1.137
		l-0.826,0.813l-0.06,0.264l0,0l0.048,0.407l0.036,0.825l-0.323,0.252l-0.251,0.191l-0.742,0.215l-0.861-0.061h-0.898l-0.562,0.767
		l-0.658,0.526l-0.18,0.168l-0.312,0.431l0.049,0.741l0.239,0.479l0.083,0.143l0.407,0.922l0.251,0.826l0.216,0.634l0.227,0.587
		l0.12,0.262l0.264,0.527l0.251,0.383l0.419,0.742l0.383,0.634l0.023,0.035l0.348,0.563l0.167,0.718l-0.251,0.718l-0.359,0.838
		l-0.322,0.682l-0.251,0.694l-0.264,0.646l-0.251,0.718l-0.084,0.837l0.251,0.575l-0.084,0.682l-0.263,0.646l-0.575,0.299
		l-0.239,0.119l-0.741,0.659l-0.515,0.431l-0.622,0.67l-0.239,0.574h0.012h0.312l0.921,0.024l0.79-0.024l1.089-0.024l0.837-0.048
		l0.623-0.023h0.634l0.825-0.024l0.826,0.371l0.813,0.228l0.981,0.322l0.909,0.061l0.694,0.023l0.67,0.024l0.993,0.048l0.957-0.072
		l1.029,0.072l0.599,0.264l0.646,0.479l0.766,0.132l0.981-0.084l0.802,0.047h0.072l0.144,0.013l0.646,0.036l0.813,0.035h0.922
		l0.766,0.192l0.574,0.275l0.861,0.154l0.671-0.047l0.766-0.191l0.753-0.407l0.742-0.084l1.005,0.013l0.934,0.035l0.97,0.024
		l0.777,0.132l0.251,0.646l0.084,0.742l0.204,0.634l0.023,0.359l0,0l0.251,0.599h0.036l0.251,0.251l0.73,0.358l0.658,0.335
		l0.515,0.276l0.646,0.479l1.089,0.837l0.861,0.191l0.515,0.503l0.455,0.622l0.49,0.383l1.101,0.431l0.826,0.168l0.574,0.167
		l0.933,0.228l0.79,0.239l0.252,0.024l0.766,0.095l0.957,0.084l0.874-0.084h0.107l0.155-0.322l1.269,0.431l1.531-0.503l0.061-0.048
		l0.717-0.479l0.575-0.191h0.12l0.479,0.035l0.167,0.013l0.754,0.419h0.012h0.013l0.944,2.07l1.975,0.694h0.072l0.047,0.023
		l1.724,0.215l0.228,0.228l0.119,0.023l0.204,0.252l0,0l0.215,0.263l0.264,0.527l0.454,0.598l0.526,0.527l0.599,0.299l0.766,0.083
		h0.755l0.586,0.264l0.431,0.419l0.383,0.551l0.635,0.311l0.837,0.024l0.766,0.264l0.766,0.479l0.468,0.741l0.514,0.024h0.096h0.264
		l0.753-0.73l0.348-0.85l0.012-0.071l0.024-0.767l-0.275-0.622l-0.335-0.574l0.371-0.646l0.442-0.766l0.396-0.706l0.286-0.538
		l0.42-1.053l0.335-0.658l0.131-0.216l0,0l0.287-0.813l0.251-0.551l0.013-0.023l0.312-0.957l0.179-1.006l0.622,0.24l0.228,0.107l0,0
		l0.694,0.228l0.813,1.208l1.221,0.407l0.742-0.455l0.479-0.802l0.418-0.574l0.754-0.239l0.707,0.274l0.573,0.264l0.802,0.264
		l0.766,0.383l0.754,0.275l0.072,0.024l1.794-0.036l0.253-0.228h0.011l0.061-0.18l0.407-0.767l0.682-0.646l0.406-0.479l0.729-0.358
		l0.694-0.384l0.419-0.455l0.371-0.489l0.515-0.479l1.269-0.683l0.49-0.323l0.263-0.55l0.993-1.28l-0.274-0.527l-0.18-0.646
		l0.275-0.586l0.287-0.742l0.359-0.753l0.06-0.862l-0.323-0.55l0.3-0.336l-0.036-0.514v0.107l-0.061-0.646l-0.442-0.719
		l-0.371-0.502l-0.383-0.766l-0.383-0.755l-0.479-0.454l-0.251-0.598l-0.24-0.551l0.107-0.67l-0.622-0.575l-0.431-0.789
		l-0.107-0.168h-0.012l-0.287-0.287l-0.264-0.335l-0.144-0.096l-0.622-0.287l-0.586-0.299l-0.611-0.384l-0.562-0.406l-0.55-0.347
		l-0.599-0.359l-0.622-0.503l-0.432-0.479l-0.167-0.622l0.191-0.67l0.454-0.729l0.611-0.479l0.789-0.286l0.67-0.264l0.766-0.287
		l0.659-0.252l1.268-0.98l2.058-1.029l1.425-0.886l0.67-0.97l0.515-0.837l0.395-0.167l0.957-1.377l0.766-0.562l0.192-0.43
		l0.753-0.622l0.767-0.42l0.358-0.741l0.682-0.275l0.755-0.406l0.586-0.432l0.491-0.431l0.609-0.311l0.24-0.013l0.765-0.071
		l0.766-0.156l0.671-0.263l0.801-0.275l0.133-0.096l0.047-0.023l0.084-0.023h0.013h0.035l0.012-0.025l0.324-0.228l0.418-0.466
		l0.335-0.491l0.515-0.418l0.132-0.359l0.132-0.311h0.012l0.264-0.527l0.395-0.526l0.574-0.37l0,0l0.312-0.252l0.383-0.251
		l0.957-0.347l0.263-0.575l0.719-0.886l0,0l0.084-0.179l0.071-0.013l0.047-0.06l1.281-0.502l0.981-0.826l0.263-1.053l0.06-0.144
		l0.072-0.252l0.335-0.933l0.312-0.646l0.515-0.502l0.753-0.479l0.767-0.204l0.802-0.012l0.957-0.203l1.041-0.12l1.962-1.148
		l2.837-3.088l0.993-1.076l2.488-2.346l0.215-0.048l0.432-0.454l0.766-0.335l1.017-0.12l0.993,0.132l0.562,0.108h0.013l1.482,0.071
		l2.944-1.448l1.866-1.866l0.945-0.921l1.077-0.79l0.395-0.336l0.611-0.358l0.358-0.383l1.938-1.102l1.796-0.144l1.124-0.023
		l2.311-0.048l3.207,0.048l2.201,0.251l1.364-0.071l0.921-0.539l0.766-1.196l0.502-0.921l1.305-2.286l1.077-1.663l1.268-2.01
		l1.281-1.975l1.567-1.388l1.269-1.699l1.771-3.135l2.058-2.943l1.077-1.293l1.28-1.747l1.268-2.214l-0.251-2.524l-0.012-0.383
		l-0.061-0.934l-0.035-0.551l-0.216-1.603l-0.203-2.237l0.227-1.807l0.228-1.077l0.204-0.909l0.467-2.489l1.148-4.403l1.029-2.31
		l0.55-0.861l0.981-1.125l1.245-9.19l-0.611-1.71l-0.311-0.647l-0.754-0.717l-0.706-0.587l-0.957-1.018l-0.538-0.442l-0.73-0.562
		l-0.263-0.228l-1.09-1.185l-0.753-0.909l-0.97-0.814l-1.508-1.292l-0.729-0.503l-0.084-0.06l-0.144-0.072l-0.622-0.574
		l-0.132-0.107l0.035-0.012l-0.622-1.077l-0.67-1.053l-0.646-1.018l-0.755-1.029l-1.208-1.148l-1.52-0.646l-1.304-0.503l-0.79-0.275
		l-0.407-0.203l-0.071-0.013v-0.37l0.024-0.527l0.107-1.136l0.238-0.742l0.12-0.886l-0.012-0.442l0.969-1.269l1.053-0.335
		l1.174-0.371h0.49l2.812,0.264l3.686,0.322l1.95,0.767l0.755,0.119l1.172-0.275l0.886-0.646l1.231-0.98l1.126-2.178l0.682-0.538
		l0.874-0.694l0.873-0.67l1.639-0.49l1.604-0.181h0.264l0.873-0.083l2.011-0.144l0.263-0.036l1.065-0.622l1.089-2.669l-1.125-1.04
		l-1.795-1.58l-2.058-1.567l-0.85-2.022l-1.615-2.046l-0.587-0.502l-1.185-0.671l-1.125-0.467l-0.55-0.861l-0.203-0.107
		l-0.084-0.312v-0.012l-0.012-0.012l-0.324-0.646l-0.286-0.538l-0.527-0.694l-0.287-0.454l-0.071-0.013l-2.488-3.063l-0.156-0.119
		l-0.466-0.359l0.131-0.322l-1.352-0.635l-2.8-1.687l-1.592-1.209l-0.443-0.873l0.203-1.592l0.36-1.592l0.083-0.274l-0.515-2.43
		l0.036-0.036l0.754-1.83l0.299-0.826l1.053-2.262l0.658-2.31l0,0l-0.287-1.794l-0.251-1.173l-0.395-1.567l-0.407-1.437l-0.55-1.531
		l-0.443-1.28l-0.634-1.28l-0.706-1.711l-0.85-2.047l-0.287-0.801l-0.191-0.479l-0.132-0.551l-0.061-0.071l-0.263-0.934
		l-0.443-1.005l-1.16-1.699l-0.97-1.041l-0.98-0.813l-1.029-0.862l-0.61-0.741l-0.251-0.156l-0.838-0.766l-0.37-0.526l-0.479-0.67
		l-0.312-0.909l-0.071-0.168l-0.407-0.886l-0.191-1.208l-0.227-1.975l-0.024-0.813l-0.251-0.61l-0.167-0.264l-0.443-0.395
		l-0.754-0.491l-1.316-1.436l-1.089-1.483l-0.358-1.975l0.263-1.125l0.18-1.579l0.036-1.305l-0.239-1.986l-0.18-1.064l0.706-2.153
		l0.622-1.245l0.61-1.041l1.436-1.831l1.28-1.244l1.461-1.663l0.622-1.196l0.251-1.95l1.101,0.035l0.167,0.024h1.676l0.754-0.419
		l-1.353-1.257l0.503-0.933l0.515-0.204l0,0l0.49-0.191l1.412-1.017l-0.287-0.635v-0.012l-0.264-0.502l-0.55-0.814l-1.999-0.896
		l-1.483,0.286l0,0l-1.52,0.874l-0.683,0.06l-1.305,0.12l-0.143-0.515l-0.012-0.012l-0.442-1.699l-0.36-1.269l-0.06-0.239
		l-1.172-0.467l-0.251,0.024l-1.581,0.203l-2.32,0.49l-1.699-0.048l-0.658-0.263h-0.251l-0.742-0.646l-0.778-0.515l-1.388,0.084
		l-2.153,1.077l-0.419,0.215l-0.909,0.61l-0.921,0.539l-1.102,0.479l-1.029,0.322l-2.105,0.479l-1.005,0.239l-1.377,0.491
		l-1.279,0.191l-1.927,0.12l-1.664,0.861l-0.191,1.902l-0.479,0.682l-0.096,0.216l-0.251,0.263l0,0l-0.168,0.252l-0.431,0.312
		l-0.526,0.479l-0.347,0.849l-0.012,0.132l0.012,0.862l1.053,1.184l1.796,1.006l-0.958,1.531l-0.969,0.909l-1.521,0.802
		l-0.095,0.012h-0.24l0.036,0.072l-0.191,0.107l-1.866-0.048l-0.61,0.061l-2.07,0.179l-0.383-0.012l-1.196,0.096l-3.495,0.023
		l-1.208-0.167l-2.585-0.012l-2.309-0.203l-1.615,0.143l-1.831,0.635l-2.31,1.496l-1.651,0.813l-2.034,0.49l-3.015,0.562
		l-1.699,0.646l-0.24,0.107l-1.112,0.622l-1.389,0.61l-1.375,0.18l-1.064-0.12l-1.364-0.933l-1.161-1.699l-0.013-0.036l-0.095-0.479
		v-0.024l-0.252-0.718l-0.322-1.185l-0.335-2.094l-0.252-0.922l-0.263-1.028l-0.36-0.993l-0.453-1.018l-0.791-0.718l-0.885-0.683
		l-0.3-0.37l0,0l-0.371-0.371l-0.682-0.909l-0.729-1.029l-1.305-1.544l-0.251-0.155l-0.766-0.407l0,0l-1.425-0.347l-2.058,0.18
		l-1.735,0.322l-0.657-0.227l-0.42-0.071l-0.896-0.479l-0.91-0.574l-0.646-1.173l-0.084-0.119l-0.646-1.305l-0.803-1.723
		l-0.395-0.981l-0.144-0.299l-0.599-1.28l-0.479-0.814l-0.55-2.142l0.132-1.495l-0.084-0.623l-0.251-1.388l-0.024-1.269
		l-0.144-0.837l0.155-0.359l0.013-0.012l0.442-1.232L35.454-127.563"/>
</g>
<g id="Layer_1_1_">
</g>
</svg>
