<?xml version="1.0" encoding="utf-8"?>
<!-- Generator: Adobe Illustrator 16.0.4, SVG Export Plug-In . SVG Version: 6.00 Build 0)  -->
<!DOCTYPE svg PUBLIC "-//W3C//DTD SVG 1.1//EN" "http://www.w3.org/Graphics/SVG/1.1/DTD/svg11.dtd">
<svg version="1.1" id="Layer_1" xmlns="http://www.w3.org/2000/svg" xmlns:xlink="http://www.w3.org/1999/xlink" x="0px" y="0px"
	 width="301.597px" height="169.123px" viewBox="-138.035 -77.26 301.597 169.123"
	 style="enable-background:new -138.035 -77.26 301.597 169.123;" xml:space="preserve">
<g id="Layer_49">
	<path id="Islamabad" style="fill:#CCCCCC;stroke:#FFFFFF;stroke-width:1.15;" d="M-80.543-32.238L-80.543-32.238l-0.308,0.16
		l-0.415,0.142l-0.733,0.172l-0.497,0.071l-0.391,0.035h-0.616l-0.544-0.012h-0.758l-0.497,0.041l-0.639-0.041l-0.615,0.101
		l-0.923,0.142l-0.615,0.231l-0.58,0.172l-0.615,0.277l-0.651,0.532l-0.32,0.557l-0.249,0.485l-0.035,0.313l-0.107,0.344
		l-0.083,0.165l-0.154,0.137l-0.415,0.136l-1.101,0.225l-1.101,0.207l-0.627,0.112l-1.255,0.326l-1.254,0.171l-0.994,0.036
		l-0.592-0.048l-1.053-0.077l-1.148-0.153l-0.899-0.065l-0.497,0.024l-0.84,0.171l-1.266,0.438l-1.278,0.207l-0.615,0.059
		l-0.817-0.147l-0.935-0.153l-1.432-0.392l-1.018-0.277l-0.497-0.036l-0.746,0.06l-1.267,0.23l-1.23,0.45l-0.888,0.579l-1.361,1.042
		l-0.923,0.982l-0.343,0.646l-0.32,0.686l-0.308,1.006l-0.142,0.805l-0.083,0.385l-0.249,0.148l-0.189,0.118l-0.864,0.195
		l-0.746,0.147l-0.864,0.267l-0.923,0.254l-1.16,0.243l-1.775,0.325l-2.119,0.184l-1.657,0.178l-1.231,0.136l-1.136,0.131
		l-0.687,0.076l-0.509,0.06l0.521,0.634l0.758,0.976l0.911,1.143l0.757,1.041l0.841,1.089l0.651,0.764l3.278,4.23l1.432,1.817
		l2.438,3.271l2.663,3.421l4.083,5.219l1.657,2.124l4.486,5.711l1.432,1.835l4.533,5.775l1.148,1.467l2.663,3.409l0.414,0.592
		l2.308,2.935l4.403,5.633l1.29,1.847l4.651,5.894l1.337,1.799l1.574,1.988l0.236,0.237l1.432-0.806l1.645-0.876l1.858-1.018
		l2.331-1.23l2.296-1.23l2.201-1.184l2.178-1.125l2.354-1.242l2.9-1.538l2.462-1.291l3.373-1.739l3.952-2.106l5.515-2.864
		l1.432-0.757l0.213-0.096l-1.42-1.774l-0.816-1.219l-0.971-1.243l-1.124-1.219l-0.864-0.723l-0.568-0.401l-0.545-0.261
		l-0.958-0.426l-1.136-0.415l-0.864-0.271l-0.509-0.237l-0.059-0.143l0.201-0.591l0.438-0.828l0.426-0.758l0.154-0.095l0.213,0.023
		l0.616,0.344l1.313,1.077l0.58,0.509l0.201,0.13l0.26,0.047l0.604-0.117l1.704-0.829l1.267-0.592l0.875-0.473l1.444-1.03
		l0.521-0.319l0.249-0.023l0.201,0.082l0.426,0.509l0.521,0.628l1.539,1.716l1.622,1.918l1.964,2.283l0.461,0.545l1.385-0.77
		l2.284-1.219l2.177-1.101l4.273-2.237l1.598-0.864l4.213-2.178l1.988-1.053l4.119-2.154l2.391-1.26l3.705-1.977l2.532-1.284
		l4.485-2.379L0.395,3.45l3.776-1.971L5.65,0.692L5.91,0.58l0.77,1.018L7.378,2.35l0.379,0.366l0.686,0.87l0.355,0.521l2.556,3.331
		l2.794,3.664l2.543,3.354l0.783,1.089l2.012,2.498l1.561,1.94l2.285,3.124l0.697,0.816l1.67,2.154l1.764,2.284l2.213,2.828
		l2.271,2.982l1.277,1.74l2.439,3.148l0.557,0.71l1.82,2.449l1.209,1.503l0.094,0.119l-1.504,0.804l-2.721,1.421l-1.656,0.898
		l-2.641,1.456l-3.053,1.669l-2.012,1.065l-2.049,0.993l-2.686,1.444l-3.254,1.681l-3.574,1.87l-2.486,1.255l-1.254,0.71
		l-3.03,1.656l-2.284,1.148l1.195,0.497L8.1,63.275l4.119,1.917l1.775,0.78l1.053,0.45l4.238,1.965l3.432,1.598l1.053,0.509
		l3.326,1.586l3.064,1.385l1.834,0.911l3.787,1.752l2.77,1.254l3.562,1.752l3.289,1.538l1.422,0.64l2.805,1.396l3.137,1.492
		l1.561,0.662l3.396,1.586l2.781,1.278l1.408,0.663l0.143,0.07l0.959-1.111l1.254-1.351l1.836-1.893l1.17-1.255l2.781-2.84
		l1.16-1.208l3.113-3.266l3.408-3.538l0.52-0.534l2.238-2.366l1.811-1.847l2.697-2.769l0.758-0.829l2.143-2.201l3.787-3.432
		l0.498-0.497l3.312-3.077l1.268-1.254l2.449-2.533l0.709-0.793l0.498-0.497l1.49-1.692l0.592-0.521l1.031-0.971l0.816-0.733
		l1.479-1.752l0.877-0.899l0.922-0.758l1.266-1.538l0.25-0.319l0.4-0.272l0.439-0.402l0.438-0.438l0.248-0.509l0.475-0.496
		l0.732-0.71l0.189-0.179l-0.26,0.013l-1.029,0.012l-0.793-0.024l-0.77-0.154l-0.143-0.07l-0.105-0.236l-0.037-0.355v-0.663
		l0.096-0.567v-0.354l0.012-0.723l0.154-0.675l0.225-0.568l0.236-0.426l0.262-0.449l0.33-0.971l0.262-0.544l0.33-0.592l0.463-0.474
		l0.674-0.427l0.65-0.449l0.639-0.367l0.426-0.295l0.201-0.19l0.037-0.177l-0.072-0.509l-0.248-0.45l-0.152-0.427l-0.119-0.556
		l0.023-0.793l0.152-0.449l0.049-0.248l-0.059-0.178l-0.344-0.923l-0.107-0.545l-0.023-0.853l-0.094-0.994l-0.131-0.449
		l-0.117-0.308l-0.014-0.498l-0.117-1.088l0.012-0.899l0.32-0.935l0.248-0.651l0.152-0.474l0.037-0.189l0.035-0.188l-0.096-0.332
		l-0.07-0.166l-0.131-0.261l-0.449-0.396l-0.26-0.23l-0.26-0.289l-0.178-0.278l-0.273-0.355l-0.141-0.396l-0.014-0.532l0.119-0.379
		l0.166-0.42l0.26-0.55l0.225-0.339l0.332-0.473l0.521-0.396l0.639-0.295l0.484-0.268l0.309-0.188l0.07-0.089l0.023-0.095
		l-0.082-0.195l-0.25-0.373l-0.248-0.355l-0.26-0.443l-0.201-0.438l-0.178-0.438l-0.105-0.325l0.07-0.208l0.213-0.171l0.402-0.083
		l1.385-0.184l0.604-0.177l0.344-0.172l0.154-0.136l0.248-0.396l0.307-0.368l0.225-0.206l0.428-0.326l0.531-0.242l0.674-0.255
		l0.475-0.195l0.51-0.254l0.662-0.349l0.568-0.338l0.639-0.255l0.332-0.195l0.047-0.101l-0.012-0.07l-0.213-0.106l-0.262-0.16
		l-0.035-0.118l0.072-0.148l0.307-0.194l0.711-0.243l0.863-0.213l0.627-0.208l0.309-0.136l0.248-0.023l0.32,0.106l0.248,0.148
		l0.26,0.012l0.225-0.06l0.391-0.172l0.248-0.082l0.225,0.012l0.273,0.082l0.225,0.172l0.248,0.267l0.262,0.142l0.391,0.101
		l0.732,0.22l0.309,0.07l1.586,0.326l1.242,0.147l1.338,0.06l0.898-0.083l0.498-0.16l0.568-0.047l0.816-0.16l0.32-0.023l0.271,0.089
		l0.164,0.142l0.096,0.243l0.262,0.556l0.248,0.255l0.318,0.184l0.355,0.124L138.461,2l0.414-0.124l0.627-0.29l0.496-0.184
		l0.711-0.462l0.545-0.484l0.32-0.581l0.26-0.614l0.059-0.58l-0.023-0.758l-0.094-0.509l-0.025-0.337l0.072-0.207l0.271-0.303
		l0.793-0.786l0.816-0.752l1.254-1.089l0.971-0.716l0.746-0.427l0.662-0.313l0.568-0.254l0.592-0.402l0.568-0.396l1.586-1.106
		l1.266-0.965l0.734-0.562l0.615-0.592l1.254-1.189l0.227-0.196l0.721-1.526l0.615-1.586l0.924-1.053l0.604-1.226l0.154-0.668
		l-0.072-0.166l-1.053-0.254l-0.746,0.159l-0.674-0.054l-0.248-0.047l-1.053-0.047l-1.221-0.101l-1.006-0.095h-0.391l-0.33,0.07
		l-0.416,0.172l-0.98,0.497l-0.605,0.373l-0.295,0.207h-0.178l-0.248-0.242l-0.26-0.291l-0.414-0.674l-0.248-0.379l-0.332-0.242
		l-0.404-0.143l-0.732-0.147l-0.77-0.036l-0.746,0.048l-0.473,0.047h-0.426l-0.699-0.012L142-20.64l-0.959-0.148l-1.729-0.278
		l-1.102-0.254l-1.076-0.338l-0.686-0.372l-0.828-0.758l-1.268-1.254l-0.309-0.367l-0.141-0.219l-0.107-0.509l-0.26-0.947
		l-0.449-1.77l-0.971-2.786l-0.332-0.616l-0.26-0.254l-0.236-0.137l-0.758-0.278l-0.225-0.095l-3.266-1.538l-1.268-0.557
		l-0.84-0.331l-0.805-0.36l-1.268-0.587l-0.674-0.325l-0.721-0.219l-2.002-0.722l-2.154-0.947l-1.455-0.775l-0.389-0.331
		l-0.309-0.337l-0.248-0.414l-0.203-0.302l-0.225-0.29l-0.568-0.402l-0.697-0.444l-0.248-0.23l-0.178-0.23l-0.012-0.403l0.035-0.384
		l-0.047-0.23l-0.332-0.474l-0.26-0.255l-0.746-0.391l-0.758-0.408l-0.781-0.521l-0.91-0.716l-0.746-0.752l-0.604-0.509
		l-2.154-1.698l-1.68-1.331l-0.912-0.717l-1.551-1.308l-1.266-0.787l-0.271-0.219l-0.309-0.391l-0.875-0.764l-0.982-0.763
		l-0.676-0.615l-0.26-0.35l-0.402-0.272l-0.697-0.266l-0.723-0.314l-0.438-0.23l-0.615-0.313l-0.521-0.366l-0.344-0.143
		l-0.484-0.118l-0.639-0.03l-0.9,0.184l-0.686,0.184l-0.332,0.071h-0.248l-0.26-0.195L88.801-57.7l-0.365-0.474l-0.391-0.302
		l-0.285-0.148l-0.389-0.106l-0.594-0.06l-0.531-0.07l-0.414-0.184l-0.51-0.349l-0.26-0.261l-0.248-0.443l-0.25-0.148L84.068-60.5
		l-0.604-0.23l-0.51-0.178l-0.898-0.124l-0.592-0.083l-0.309-0.101l-0.426-0.219l-0.533-0.201l-0.26-0.065l-0.438-0.07l-0.236,0.023
		l-0.262,0.047l-0.33-0.047l-0.416-0.071l-0.449-0.136l-0.438-0.207l-0.414-0.166l-0.248-0.136l-0.391-0.071l-1.125-0.29
		l-0.816-0.195l-0.723-0.195l-0.756-0.13l-0.734-0.172l-1.09-0.243l-0.721-0.23l-1.125-0.242l-1.324-0.255l-0.428-0.07l-0.875-0.29
		l-1.219-0.29l-1.443-0.344l-1.93-0.467l-1.586-0.367l-0.568-0.153l-0.484-0.113l-0.25-0.035l-0.248-0.089l-0.225-0.154
		l-0.271-0.136l-0.758-0.509l-0.473-0.373l-0.475-0.302l-0.26-0.183l-0.273-0.208l-0.639-0.337l-0.934-0.474l-0.889-0.391
		l-0.449-0.242l-0.426-0.178l-0.461-0.112l-0.344-0.095l-0.758-0.083l-0.746-0.064h-0.758l-1.053,0.053L47.64-70.34l-1.078,0.219
		l-2.201-2.959l-2.77-0.775l-3.053,0.497l-3.479,3.143l-2.273-0.054l-3.184,2.148l-1.893,0.847l-3.055,2.946l-0.84,1.687
		l-0.758,1.124l-1.963,0.532l-1.232-0.047L9.437-59.771l-0.71-1.261l-0.249-1.154l-0.296-1.271l-4.284-0.823l-1.136-0.313
		l-2.899,2.131l-2.402,1.201l-1.219,1.029l-2.426,0.254l-2.568,1.189l-1.349-1.029l-2.853-0.147l-1.254-0.278l-1.231-0.106
		l-1.668,0.36l-3.776,2.095l-1.964,0.113L-24.41-57.7l-5.977,2.615l-0.899,2.704l-1.184,1.178l0.746,2.178l-0.485,2.271l-1.03-0.053
		l-1.326-1.041l-3.432,1.745l-4.45-0.313l-0.497,3.539l-5.231,3.401l-0.769,1.042l-2.876,0.704l-1.053,0.077l-1.953,0.236
		l-1.704,0.462l-1.444,1.781l-1.029,0.391l-1.065,0.567l-0.012,1.083l-1.385,0.178l-1.267,0.048l-3.301,0.562l-5.433-0.331
		l-1.728,0.184l-1.597-0.314l-1.101-0.047l-1.492-0.018L-80.543-32.238"/>
</g>
<g id="Layer_1_1_">
</g>
</svg>
