<?xml version="1.0" encoding="utf-8"?>
<!-- Generator: Adobe Illustrator 16.0.4, SVG Export Plug-In . SVG Version: 6.00 Build 0)  -->
<!DOCTYPE svg PUBLIC "-//W3C//DTD SVG 1.1//EN" "http://www.w3.org/Graphics/SVG/1.1/DTD/svg11.dtd">
<svg version="1.1" id="Layer_1" xmlns="http://www.w3.org/2000/svg" xmlns:xlink="http://www.w3.org/1999/xlink" x="0px" y="0px"
	 width="300.785px" height="254.012px" viewBox="-137.954 -116.321 300.785 254.012"
	 style="enable-background:new -137.954 -116.321 300.785 254.012;" xml:space="preserve">
<g id="Layer_120">
	<path id="Swabi" style="fill:#CCCCCC;stroke:#FFFFFF;stroke-width:1.15;" d="M-132.562,35.604L-132.562,35.604l0.501,0.264
		l0.465,0.213l0.501,0.096l1.145,0.168l0.847,0.082l0.745,0.156l0.727,0.32l0.674,0.537l0.328,0.74l0.161,0.357l0.095,0.238
		l0.638,0.143l1.026,0.096l0.243,0.023l0,0l1.014,0.264l0.733,0.143h0.023l0.34,0.119l1.127,0.453l1.228,0.619l0.638,0.262
		l0.698,0.133l1.061,0.012l0.644-0.072l1.223-0.191l0.626-0.311l0.06-0.023l0.721-0.453l0.257-0.428l0.363-0.43l0.382-0.072
		l2.003-0.584h0.644l0.083-0.023l1.627-0.047l0.597,0.584l0.161,0.643l0.256,0.705l0.257,0.322l0,0l0.071,0.129l0.197,0.549
		l-0.257,0.572l-0.024,0.049l-0.22,0.656l-0.316,0.5l-0.286,0.549l-0.012,0.023l-0.244,0.643l-0.257,0.598l-0.256,0.809
		l-0.203,0.525l-0.208,0.822l-0.125,0.729l-0.013,1.096l-0.256,0.633l-0.257,0.619l-0.304,0.488l-0.245,0.465l0.036,0.609
		l0.209,0.775l0.024,0.094l-0.013,0.572l-0.9,0.906l-0.161,0.023l-0.536,0.371l-0.315,0.678l-0.256,0.68l-0.042,0.072h-0.013
		l-0.398,0.668l-0.758,2.312l-0.244,0.572l-0.071,0.668l-0.078,1.025l-0.023,0.584l-0.084,0.846l0.132,0.752l0.077,0.68l0.096,0.799
		l0.095,0.535l0.03,0.572l0.071,0.645l-0.012,1.025l-0.173,0.883l-0.155,0.596l-0.113,0.715l-0.232,1.287l-0.035,0.645l0.012,1.121
		l0.012,0.785l-0.035,0.549l-0.072,0.502l0.084,0.619l0.035,0.189l0.102,0.525l-0.03,0.834l0.013,0.775l-0.119,0.633l-0.221,0.643
		l-0.674,0.406l-0.62,0.357l-0.119,0.072l-0.625,0.393l-0.376,0.404l-0.113,0.67v0.678l-0.328-1.227l-0.477,0.059l-0.328,0.525
		l-0.453,0.773l-0.465,0.799l-0.107,0.752l-0.757,0.453l-0.638,0.119l-0.572,0.203l-0.638,0.572l-0.62,0.977l-0.429,0.453
		l-0.537,0.799l-0.876,0.273l-0.757,0.203l-0.561,0.203l-0.87,0.764l-0.501,0.5l-0.28,0.621l-0.429,1.18l-0.388,1.336l0.501,0.416
		l-0.048,0.084l-0.334,0.869l-0.257,0.453l0.758,1.312l1.27,1.084l1.502,1.99l0.722,1.861l0.941,1.596l1.156,1.385l0.614,1.264
		l0.196,0.189l0.251,0.596l2.14,3.328l0.954,1.955l0.596,1.93l0.256,1.92l-0.071,1.025l0.107,1.729l0.257,0.979l-0.245,0.5
		l-0.488,0.979l-0.167,0.773l-0.042,0.729l0.078,0.666l0.268,0.359l0,0l0.352,1.369l0.489,0.395l0.524,1.787l0,0l-0.048,1.229v0.715
		l-0.161,1.275l-0.012,1.598l-0.119,1.062l0.853,1.191l0.417-0.393l0.584-0.252l0.674-0.227l1.514-0.893l1.782-0.906l2.796-1.359
		l1.05-0.619l2.038-1.385l3.708-1.691l2.908-1.432l3.881-2.145l3.04-1.551l2.331-1.168l0.321-0.18l2.193-1.203l3.982-2.17
		l3.088-1.479l1.991-1.455l3.355-2.025l1.919-1.301l1.098-0.547l0.571-0.156l1.27,0.334l1.55,0.465l1.383,0.275l1.586,0.43
		l2.26,0.523l0.947-0.404l2.98-1.074l2.629-1.072l1.573-0.549l1.621-0.596l2.492-0.967l1.865-0.691l1.115-0.416l1.27-0.406
		l1.013-0.262l0.841-0.275l1.657-1.156l0.125-0.596l0.096-1.43l-0.167-0.74l0.012-0.881l0.036-0.764l0.144-1.252l0.554-0.227
		l0.561-0.107l0.119-0.023l0.674-0.18l0.632-0.143l0.709-0.166l0.793-0.24l0.709-0.117l0.745-0.156l2.003-0.488l0.9-0.238
		l0.733-0.215l0.673-0.107l1.097-0.25l0.733-0.191l0.614-0.75l0.023-0.787l0.096-0.822l-0.012-0.703l0.06-0.693l0.102-1.049
		l0.083-0.953l0.035-1.133l0.013-1.002v-0.785l0.012-0.598l-0.036-1.025l-0.023-0.715l-0.292-1.096l-0.024-0.275l0.084-0.654
		l-0.149-0.918l0.042-0.656l0.757-0.43l0.668-0.273l0.858,0.059l0.9,0.322l0.894,0.25l0.841,0.25l0.686,0.227l0.757,0.264
		l1.073,0.178l1.27,0.299l0.9,0.191l1.114,0.357l0.596,0.213l0.853,0.24l0.382,0.082l0.429,0.131h0.596l1.002,0.037l0.757,0.023
		l0.722-0.047l1.377-0.014l1.15-0.094l1.27,0.023l0.757,0.238l0.436,1.025l0.966,1.383l0.661,0.762l0.305,0.609l0.477,0.619
		l2.295-0.549l2.235-0.381h0.06l3.463-0.846l4.107-1.145l2.891-0.561l2.402-0.715l1.162-0.252l2.157-0.619l4.03,0.645l2.027,0.881
		l0.75,0.43l0.906,0.215l1.145-0.072h0.68l0.87,0.096l1.061,0.049h1.038l1.144,0.023l1.562,0.047l0.752,0.133l0.93,0.01l0.751-0.082
		l0.645-0.477l0.381-0.441l0.728-0.502l0.524-0.334l0.596-0.25l0.739-0.107l0.667,0.131l0.645,0.275l0.764,0.5l1.966,1.121
		l0.608,0.262l0.597,0.357l0.596,0.311l0.728-0.119l0.894-0.631l0.143-0.072l0.859-0.418l0.75-0.357l-0.035,0.645l-0.215,1.002
		l0.023,0.596l0.144,0.25h0.931l1.406-0.25l1.18,0.094h3.994l2.718-0.07l2.838,0.07l1.729,0.049l1.062,0.035l0.62,0.012l0.75-0.096
		l1.085-0.689l0.931-0.656l0.93-0.715l0.763-0.549l0.716-0.584l0.596-0.381l0.656-0.514l1.275-0.703l1.144-0.871l0.979-0.762
		l1.68-1.287l1.205-0.037h1.299h0.084l2.289-0.023l1.621-0.023l0.286-0.119l0.811-0.383l0.561-0.262l0.512-0.285l0.764-0.359
		l2.754-0.893l1.275-0.561l1.729-0.74l1.442-0.654l0.954-1.277l0.858-0.75l0.31-1.121l0.703-1.002l1.062-0.703l1.336-1.311
		l1.812-1.455l1.681-1.633l1.109-1.098l1.788-1.752l0.727-0.75l0.848-0.932l1.072-1.156l0.811-0.906l0.835-0.93l1.514-1.621
		l0.752-0.834l1.896-0.703l1.227-0.441l1.276-1.836l0.846-1.168l0.084-0.119l0.871-1.217l0.154,0.049l0.167-0.168l0.728-0.977
		l0.524-0.859l0.273-0.572l0.68-0.846l0.655-0.729l0.562-0.762l0.62-0.74l0.429-0.477l0.787-0.93l0.404-0.537l0.668-0.809
		l0.357-0.67l0.049-0.105l0.262-0.836l0.418-0.977l0.25-0.68l0.548-0.5l0.549-0.275l0.596-0.178l1.073-0.275l1.025-0.381
		l0.584-0.262l1.121-0.43l1.275-0.596l0.881-0.357l1.074-0.43l0.62-0.25l0.607-0.25l0.728-0.264l0.644-0.238l1.049-0.357
		l1.097-0.346l0.859-0.346l0.714-0.299l0.572-0.297l1.265-0.406l1.001-0.299l0.716-0.178l0.632-0.143l0.751-0.275l0.524-0.654
		l0.524-4.102l0.119-0.715l0.144-0.488l1.646-1.205l1.835-1.264l0.764-23.116v0.012l0.835-0.674l0.869-0.501l0.704-0.709
		l0.763-0.584l0.632-0.381l0.548-0.316l0.752-0.608l0.572-0.662l0.357-0.513l0.523-1.013l0.252-0.632l0.143-1.103l-0.143-1.025
		l-0.37-1.037l-0.31-0.698l-0.406-0.644l-0.333-0.536l-0.716-0.805l-0.525-0.524l-0.619-0.721l-0.477-0.823l-0.43-0.739
		l-0.429-0.733l-0.263-0.722l-0.166-0.572l-0.12-0.894l0.311-1.038l0.263-0.804l0.261-0.662l0.252-0.68l0.273-1.061l0.263-0.798
		l0.333-0.572l0.251-0.572l0.227-0.733l0.202-0.685l0.561-1.121l0.31-1.037l0.144-0.662l0.858-1.794l0.262-0.918l0.572-1.526
		l0.501-0.715l0.62-0.757l0.404-0.525l0.383-0.59l0.381-0.501l0.311-0.667l0.25-0.65l0.19-0.709l0.06-0.596l0.096-0.864l0.071-0.686
		l-0.119-2.259l-0.263-2.294l-0.19-0.561l0.048-0.709l-0.478-0.876l-0.381-0.465l-0.501-0.465l-0.44-0.525l-0.18-0.846l-0.047-0.62
		v-0.667l-0.12-0.882l-0.25-0.632l-0.25-0.638l-0.43-0.816l-0.273-0.572l-0.703-0.734l-0.942-0.101l-0.585,0.221l-0.786,0.477
		l-0.763,0.095l-0.751-0.28l-0.549-0.435l-0.68-0.566l-0.047,0.012l-1.646-1.669l-0.299-0.608l-0.273-0.763l-0.107-0.781
		l-0.036-0.876l-0.047-0.757l0.071-0.757v-0.942l0.048-0.757l0.06-0.757l0.107-0.631l-0.107-0.793l-0.143-0.805l-0.299-0.757
		l-0.286-0.53l-0.43-0.596l-0.739-0.679l-0.763-0.382l-0.524-0.28l-0.858-0.328l-0.763-0.31l-0.763-0.269l-0.931-0.327l-0.596-0.12
		l-1.169-0.053l-0.667,0.185l-0.858,0.161l-0.763,0.167l-0.847,0.369l-0.751,0.256l-0.787,0.339l-1.013,0.453l-0.87,0.43
		l-0.716,0.399l-0.918,0.244l-1.001-0.06l-1.002-0.048l-0.847-0.102l-1.288-0.059v-0.292l-1.37,0.072l-2.182-0.245l-3.194-0.047
		l-2.313,0.06l-1.121,0.024l-1.765,0.125l-1.93,1.097l-0.383,0.381l-0.596,0.375l-0.405,0.333l-1.073,0.793l-0.93,0.912
		l-1.872,1.872l-2.921,1.437l-1.453-0.071h-0.025l-0.595-0.102l-0.979-0.119l-1.025,0.107l-0.763,0.346l-0.453,0.453l-0.19,0.048
		l-2.504,2.331l-0.978,1.073l-2.813,3.076l-1.955,1.139l-1.025,0.131l-0.953,0.185l-0.811,0.012l-0.739,0.197l-0.763,0.477
		l-0.513,0.513l-0.299,0.643l-0.381,0.931l-0.048,0.232l-0.072,0.143l-0.273,1.055l-0.966,0.817l-1.264,0.5l-0.071,0.06
		l-0.084,0.012l-0.096,0.185l0,0l-0.75,0.876l-0.263,0.56l-0.942,0.358l-0.369,0.256l-0.334,0.232l0,0l-0.596,0.388l-0.37,0.513
		l-0.25,0.537h-0.023l-0.144,0.31l-0.119,0.352l-0.513,0.429l-0.334,0.483l-0.417,0.465l-0.358,0.22v0.012h-0.023h-0.023
		l-0.048,0.042l-0.072,0.023l-0.13,0.083l-0.8,0.28l-0.667,0.268l-0.786,0.161l-0.752,0.06l-0.25,0.012l-0.597,0.316l-0.477,0.429
		l-0.572,0.441l-0.775,0.4l-0.68,0.28l-0.356,0.733l-0.764,0.417l-0.763,0.62l-0.19,0.429l-0.763,0.56l-0.942,1.377l-0.369,0.161
		l-0.525,0.84l-0.703,0.966l-1.396,0.882l-2.05,1.037l-1.263,0.978l-0.645,0.256l-0.751,0.292l-0.656,0.244l-0.774,0.304
		l-0.632,0.477l-0.441,0.721l-0.203,0.644l0.155,0.626l0.453,0.489l0.62,0.501l0.596,0.352l0.561,0.352l0.572,0.406l0.572,0.375
		l0.573,0.322l0.619,0.292l0.167,0.083l0.262,0.345l0.311,0.292h0.023l0.071,0.155l0.453,0.792l0.597,0.578l-0.096,0.644
		l0.226,0.561l0.252,0.602l0.477,0.453l0.346,0.751l0.394,0.763l0.381,0.513l0.453,0.704l0.048,0.65v0.023l0.048,0.513l-0.322,0.339
		l0.346,0.548l-0.071,0.847l-0.358,0.781l-0.262,0.733l-0.285,0.573l0.142,0.631l0.286,0.525l-0.977,1.264l-0.263,0.548
		l-0.489,0.328l-1.275,0.674l-0.501,0.477l-0.369,0.483l-0.417,0.465l-0.692,0.381l-0.69,0.352l-0.43,0.489l-0.68,0.632
		l-0.393,0.763l-0.048,0.167h-0.024L55.27-4.112l-1.788,0.035L53.398-4.1l-0.751-0.292l-0.763-0.381l-0.787-0.268l-0.572-0.245
		l-0.727-0.292l-0.752,0.244l-0.404,0.572l-0.489,0.798L47.45-3.516l-1.252-0.4l-0.775-1.198l-0.728-0.232l0,0l-0.202-0.096
		l-0.597-0.232L43.682-4.66l-0.263,0.941l-0.023,0.024l-0.263,0.548l-0.286,0.804l0,0L42.68-2.109l-0.286,0.632l-0.453,1.055
		l-0.298,0.537l-0.369,0.691l-0.43,0.769l-0.382,0.638l0.335,0.584l0.262,0.626l-0.012,0.757l-0.013,0.072l-0.369,0.853
		l-0.751,0.721l-0.263-0.012h-0.096l-0.512-0.012L38.58,5.068l-0.763-0.477l-0.752-0.28l-0.822-0.023l-0.644-0.304l-0.381-0.537
		l-0.43-0.429l-0.572-0.281h-0.763l-0.739-0.071l-0.62-0.298l-0.858-0.399l-0.453-0.596L30.532,0.83l-0.25-0.238l0,0l-0.19-0.25
		l-0.096-0.036l-0.238-0.203l-1.693-0.22L28.017-0.13h-0.072l-1.967-0.698L25.037-2.89l0,0h-0.024l-0.751-0.417l-0.154-0.012
		l-0.478-0.035h-0.096l-0.572,0.196l-0.739,0.465l-0.071,0.06l-1.525,0.5l-1.264-0.429l-0.155,0.316h-0.125L18.23-2.157
		l-0.966-0.089l-0.733-0.096l-0.256-0.023l-0.793-0.221l-0.931-0.232l-0.584-0.155l-0.816-0.173l-1.108-0.43l-0.489-0.375
		l-0.44-0.626L10.6-5.066L9.759-5.263L8.68-6.103L8-6.568L7.5-6.86L6.838-7.188L6.129-7.551L5.873-7.814H5.861L5.617-8.41l0,0
		L5.581-8.762L5.372-9.399L5.3-10.121l-0.256-0.655l-0.781-0.125l-0.966-0.024l-0.924-0.036l-0.989-0.012l-0.77,0.083l-0.744,0.405
		l-0.758,0.185l-0.649,0.048l-0.864-0.149l-0.561-0.28l-0.757-0.197h-0.93l-0.758-0.024l-0.619-0.036l-0.125-0.012h-0.108
		l-0.78-0.048l-0.978,0.083l-0.78-0.119l-0.65-0.489l-0.572-0.256l-1.037-0.059l-0.978,0.059l-0.989-0.036l-0.644-0.023l-0.686-0.03
		l-0.895-0.06l-1.001-0.328l-0.829-0.22l-0.805-0.364l-0.828,0.012l-0.626,0.012l-0.632,0.012l-0.835,0.06l-1.073,0.024
		l-0.816,0.012l-0.918-0.023h-0.292l-0.012,0.012l0.208-0.573l0.621-0.673l0.542-0.435l0.757-0.65l0.203-0.107l0.578-0.31
		l0.256-0.632l0.06-0.686l-0.244-0.572l0.06-0.852l0.256-0.709l0.257-0.65l0.256-0.679l0.358-0.686l0.304-0.829l0.256-0.709
		l-0.137-0.722l-0.363-0.548l-0.024-0.035l-0.394-0.626l-0.411-0.77l-0.256-0.375l-0.274-0.525l-0.119-0.256l-0.197-0.59
		l-0.244-0.62l-0.244-0.829l-0.411-0.93l-0.066-0.131l-0.256-0.478l-0.048-0.745l0.334-0.417l0.155-0.185l0.638-0.513l0.607-0.769
		h0.865l0.846,0.054l0.722-0.221l0.268-0.185l0.34-0.245l-0.059-0.816l-0.061-0.417l0,0l0.084-0.28l0.816-0.828l0.805-1.127
		l-0.012-0.047l0.196-0.608l-0.185-0.626l-0.244-0.524l0,0l-0.024-0.221l1.317-0.733l1.783-1.109l0.905-0.989l1.108-1.306
		l1.05-0.793l0.906-0.84l0.221-0.245l0.059-0.882l0.585-0.512l0.44-0.209l0.626-0.315l0.107-0.328l0.071-0.048l0.28-0.638
		l0.298-0.632l0.68-0.346L-5-49.307l1.271-1.014l0.023-0.012l0.645-0.584l0.673-0.638l0.668-0.56l0.59-0.644l0.721-0.548
		l0.549-0.358l0.561-0.363l0.607-0.578l0.078-0.525l0,0l0.012-0.167L0.991-55.81l-0.864-0.417l-0.59-0.119l-1.317-0.137
		l-0.572-0.072l-0.709-0.197l-0.412-0.536l0,0l0.024-0.537l0.256-0.953l0.023-0.072l0.269-0.871l0.155-0.56l0.029-0.096
		l-0.113-0.757l-0.584-0.405l-0.709,0.149l-0.221,0.083l-0.549,0.06h-0.852l-0.311-0.107l-0.68-0.417l-0.012-0.399l-0.59-0.328
		l-0.399-0.345l0.257-0.221l0.512-0.155l0.489-0.357l-0.06-0.733l-0.322-0.715l-0.315-0.513l0.06-0.298l0.232-0.245l1.073-0.512
		l0.173-0.28l0.488-0.083l0.375-0.536l-0.435-0.561L-5.5-68.602l0.119-0.638l0.221-0.685l0.023-0.817l-0.304-0.709l0.196-0.584
		l0.257-0.733l-0.09-0.316l0.614-0.561l1.538-0.31l0.966-0.19l0.131-0.245l0.44-0.089l-0.185-0.584l-0.012-0.012l0.316-1.341
		l0.125-0.113l0.644-0.536L0.257-77.8l0.561-0.513l0.59-0.387l0.072-0.024l0.756-0.322l0.501-0.667l0.257-0.37l0.256-0.095
		l0.174-0.06l0.744-0.077l0.805-0.071l0.829-0.4l0.394-0.489l0.202-0.811l0.811-0.632l0.471-0.5l0.257-0.769l0.614-0.757
		l0.477-0.489l0.083-0.048l0.525-0.185l0.661-0.161l0.244-0.644l0.257-0.608l0.28-0.787l-0.125-0.376l0.256-0.513l0.035-0.685
		l0.03-0.62l0.107-0.709l0.096-0.805l0.023-0.537l0.042-0.208l-0.054-0.196l0,0l0.065-0.316l0.036-0.208l0.071-0.28L11.488-93.9
		l-0.096-0.631l-0.757-1.002l-0.453-0.65l-0.548-1.121l-0.489-1.222l-0.269-0.709l-0.398-0.573l-0.65-0.59L7.697-100.6l-0.322-0.918
		l-0.012-0.256l0.012-0.769l0.244-0.709l-0.012-0.864l-0.035-0.638l-0.048-0.608l0.048-0.745l-1.085-0.513l-1.15,0.221l-1.282,0.172
		l-1.222,0.143l-0.745-0.023l-1.156-0.107l-0.816-0.232l-1.091,0.048l-0.459,0.352l-0.197-0.012l-1.037,0.757l-1.061,0.101
		l-0.43-0.286l-0.709-0.471l-0.816-0.269l-1.15-0.25l-0.757-0.012l-0.633,0.065l-0.709,0.012l-0.864-0.024l-0.757-0.537l-0.501-0.59
		l-0.59-0.829l-0.388-0.548l-0.429-0.602L-12.987-110l-1.169-0.524l-0.733-0.245l-0.697-0.429l-0.649-0.221l-0.084,0.036
		l-0.256,0.172l-0.096,0.048l-0.196,0.096l-0.173,0.638l-0.257,0.406l-0.864,1.025l-0.023,0.012l-0.382,0.328l-0.769,0.513
		l-0.048,0.035l-0.304,0.221l-0.561,0.268l-0.697,0.34l-0.257,0.245l-0.035,0.012l-1.407,0.757l-1.454,0.674l-0.436,0.148
		l-0.161,0.024l-0.864,0.179l-0.602,0.078l-0.77,0.214l-0.757,0.465l-0.107,0.125l-0.185,0.059l-0.978,1.175l-0.703,1.145
		l-0.346,0.513l-0.584,0.662l-0.829,0.584l-1.335,0.733l-0.9,0.489l-1.419,0.781l-0.524,0.316l-0.256,0.101l-0.769,0.364
		l-0.68,0.429l-0.555,0.5l-0.447,0.632l-0.257,0.638l-0.256,0.757l-0.542,0.745l-0.703,0.793l-0.478,0.423l-0.441,0.65l-0.304,0.853
		l-0.453,1.138l-0.071-0.036l-0.989,0.072l-1.037-0.316l-1.085-0.125l-1.139-0.143l-0.77-0.078l-1.257,0.304h-0.012l-0.77-0.191
		l-0.644-0.059l-0.978,0.179h-1.049l-0.125-0.012h-0.061l-0.989-0.071l-1.865,0.083l-1.014,0.023l-0.59,0.137l-0.12,0.131
		l-0.626,0.626l-0.619,0.918l-0.686,0.793l-0.328,0.632l-0.095,0.185l-0.257,0.912l-0.334,0.542l0.113,0.691l-0.035,0.048l0,0
		l-0.257,0.286l-0.661,0.167l-1.098,0.072l-0.256,0.042l-0.209-0.03l-0.745-0.072l-0.941,0.245l-1.013,0.673l-0.048,0.083h-0.013
		l-0.173,0.113l-0.244,0.221l-0.144,0.304l-0.16,0.269l-0.352,0.489l0.256,0.453l0.304,0.34l0.072,0.631l-0.12,0.614l0.06,0.232
		l-0.035,0.107l0.096,0.137h0.012l0.256,0.525l0.638,0.792l0.698,0.841l0.446,0.512l0.257,0.477l0.09,0.745v0.721l0.035,0.608v0.501
		v0.417l-0.048,1.002l-0.185,0.804l-0.441,0.656l-0.244,0.268l-0.805,0.649l-0.649,0.513l-0.411,0.637l-0.805,0.84l-0.835,0.561
		l-0.644,0.673l-0.072,0.727l-0.256,0.787l-0.614,0.608l-0.34,0.489l-0.137,0.107l-0.023,0.024l-0.388,0.381l-0.578,0.501
		L-70.45-62.6l-0.632,0.489l-0.757,0.489l-0.614,0.149l-0.596,0.691l-0.376,0.477l0,0l-0.244,0.638l0.119,0.167v0.065l0.221,0.459
		l0.352,0.44l0.208,0.353l-0.035,0.322l-0.34,0.435l-0.489,0.43l-0.125,0.196l-0.155,0.131l0.144,0.221v0.012l0.244,0.381h0.614
		l0.352,0.805l0.161,0.709l0.536,0.465l0.817,0.191l0.757,0.709l0.399,0.37l0.578,0.513l0.853,0.691l0.584,0.465l0.799,0.596
		l0.352,0.453l0.793,1.073l0.304,0.626l0.125,0.673l0.036,0.119l0.131,0.501l0.256,0.65l0.161,0.631l-0.393,0.394l-0.668,0.268
		l-0.357,0.143l-0.793,0.406l-0.209,0.107l-0.739,0.405l-0.87,0.632l-0.536,0.269l-1.085,0.322h-0.102l-0.757-0.113l-0.972-0.412
		l-0.674-0.417l-0.292-0.197l-0.602-0.387h-0.012l-0.513-0.429l-0.745-0.364l-0.62-0.149l-0.745-0.185l-0.77-0.047l0,0l-0.268-0.083
		l-0.757-0.358l-0.877-0.316l-0.322-0.119h-0.012l-0.256-0.125l-0.924-0.375l-1.371-0.221l-0.805-0.012l-0.388-0.023l0,0
		l-0.405-0.024l-1.383-0.161l-0.191-0.036l-0.404-0.078l-0.501-0.06h-0.048l-0.954-0.179l-1.204-0.113h-0.018l-0.423-0.023
		l-0.358-0.012h-0.023h-0.399l0,0h-0.173l-1.014,0.036l-0.22,0.036l-0.221,0.012h-0.024l-0.805,0.012l-0.686-0.095l-0.769-0.149
		l-0.424-0.191l-1.036-0.262l-0.603-0.095l-0.488-0.179l-0.806-0.149l-0.721-0.149l-0.363,0.012l-0.453,0.023l-0.757,0.298
		l-0.71,0.524l-0.828,0.453l-0.918,0.119l-0.948,0.12l-0.732,0.065l-1.187,0.167l-0.28,0.077h-0.012l-2.283,0.888l-0.28,0.113h-0.28
		h-0.405l-0.424,0.013h-0.369l-0.363,0.012l-3.762,1.365l-0.369,0.256l-0.399,0.292l-0.722,0.268l-0.661,0.322l-0.524,0.227
		l-0.68,0.405l-0.078,0.036l-0.482,0.525l-0.542,0.536l-0.447,0.5l-0.429,0.561l-0.43,0.429l-0.501,0.942l-0.5,0.733l-0.436,0.549
		l-0.322,0.548l-0.292,0.584l-0.465,0.834l-0.244,0.459l-0.215,0.721l-0.137,0.489l-0.221,0.87l-0.257,1.622l-0.196,0.781
		l-0.167,1.162l-0.185,0.852l-0.137,0.644l0.017,0.602l0.156,0.561l0.07,0.524l0.024,0.071l0.161,0.99l-0.596,0.245l-2.957,1.281
		l-2.587,0.942l-0.853,0.352l0,0l-0.37,0.954l0.418,1.919l0.143,0.781l0.078,0.292l0.012,0.012l0.244,0.572l0.132,0.745l0.148,0.59
		l0.232,0.667l0.292,0.93l0.28,0.668l0.244,0.578l0.209,0.691l0.071,0.393l0.06,0.34l0.305,2.271l0.089,0.673l0.071,0.584
		l0.161,0.841l0.096,0.673l-0.072,0.62l-0.393,0.209l-0.608,0.269l-0.369,0.393l-0.316,0.429l-0.5,0.68l-0.28,0.524l-0.281,0.77
		l-0.315,0.638l-0.292,0.864l-0.31,1.091l-0.364,1.132l-0.185,0.906l0.221,1.049l0.161,0.536l0.012,0.376l0.071,0.357l0.06,0.513
		l-0.071,0.644l-0.096,0.477v0.012l-0.012,0.316l-0.065,0.966l-0.084,0.906l-0.231,1.025l-0.096,0.989l-0.012,0.704l0.012,0.745
		l0.083,0.894v0.048l0.096,0.828l0.173,0.943l0.256,1.406l0.149,0.816l0.06,0.305l0.244,0.828l0.06,0.857l0,0l0.173,0.389
		l0.155,0.881v0.859l0.042,0.906l0.036,0.99l-0.048,0.25v0.131l-0.138,1.014l-0.209,1.311l-0.035,0.955l0.012,1.311l-0.023,1.191
		l-0.232,2.027l-0.119,1.121l-0.102,0.5l0.185,0.668l0.131,0.811l-0.256,0.906l-0.549,0.465l-0.488,0.561l-0.232,0.512l-0.376,0.727
		h-0.501"/>
</g>
<g id="Layer_1_1_">
</g>
</svg>
