<?xml version="1.0" encoding="utf-8"?>
<!-- Generator: Adobe Illustrator 16.0.4, SVG Export Plug-In . SVG Version: 6.00 Build 0)  -->
<!DOCTYPE svg PUBLIC "-//W3C//DTD SVG 1.1//EN" "http://www.w3.org/Graphics/SVG/1.1/DTD/svg11.dtd">
<svg version="1.1" id="Layer_1" xmlns="http://www.w3.org/2000/svg" xmlns:xlink="http://www.w3.org/1999/xlink" x="0px" y="0px"
	 width="301.575px" height="335.188px" viewBox="-145.186 -161.44 301.575 335.188"
	 style="enable-background:new -145.186 -161.44 301.575 335.188;" xml:space="preserve">
<g id="Layer_128">
	<path id="Lakki_Marwat_1_" style="fill:#CCCCCC;stroke:#FFFFFF;stroke-width:1.15;" d="M14.501-155.226L14.501-155.226
		l-0.235,0.633l-1.206-0.486L-2.005-136.25l-48.896,94.087L-71.644-0.223l-41.424,84.084l-22.565,54.546l-3.766,11.298
		l26.331-16.888l26.331-5.707h28.244l32.01,16.945l24.949,23.478l3.118-4.324l-1.854-3.913l0.294-3.472l6.355-8.355l2.5-3.824
		l1.06-3.207l0.883-3.825l1.472-3.53l4.795-4.619l1.5-4.03l9.856-9.68l2.707-10.503l2.883-3.589l-0.441-4.442l1.795-3.354
		l2.235-1.941l8.474-5.354l5.414-10.121l8.973-9.886l13.209-9.532l9.004-11.092l0.176-2.913l-0.44-2.529l2.912-3.207l2.501-1.854
		l-1.589-2.795l-3.295-0.059l-2.56-0.147l-2.854-0.146l-2.588-0.118l-1.854-2.06l-0.147-5.296l-6.854-7.988l-2.031-4.25l-0.323-3.06
		l6.091-4.473l4.354-1.618l3.678-1.206l3.148-1.81l3.265-4.428l4.973-3.133l3.501-1.294l1.883-2.618l2.03-1.574l3.207,0.191
		l4.324,1.016l3.413-1.016l2.854-0.191l3.118-0.662l3.825-0.78l2.088-3.678l3.854-5.001l1.883-2.442l2.295-3.516l1.529-2.015
		l1.53-2.472l2.501-3.927l2.795-2.913l2.354-1.868l3.53-2.412l2.295-2.148l3.708-5.59l1.853-2.118l0.972-2.383l-1.472-2.912
		l0.441-2.957l-3.913-3.56l2.618-1.015l1.001-0.663l-10.592-9.62l-18.064-10.474l-14.976-17.241l-14.856-11.239l-15.711-11.959
		l-13.476-8.944l-26.919-7.502L14.501-155.226"/>
</g>
<g id="Layer_1_1_">
</g>
</svg>
