<?xml version="1.0" encoding="utf-8"?>
<!-- Generator: Adobe Illustrator 16.0.4, SVG Export Plug-In . SVG Version: 6.00 Build 0)  -->
<!DOCTYPE svg PUBLIC "-//W3C//DTD SVG 1.1//EN" "http://www.w3.org/Graphics/SVG/1.1/DTD/svg11.dtd">
<svg version="1.1" id="Layer_1" xmlns="http://www.w3.org/2000/svg" xmlns:xlink="http://www.w3.org/1999/xlink" x="0px" y="0px"
	 width="301.16px" height="285.427px" viewBox="-129.041 -122.133 301.16 285.427"
	 style="enable-background:new -129.041 -122.133 301.16 285.427;" xml:space="preserve">
<g id="Layer_109">
	<path id="Rawalpindi" style="fill:#CCCCCC;stroke:#FFFFFF;stroke-width:1.15;" d="M-121.937,118.813L-121.937,118.813l-0.071,1.338
		l0.381,0.507l1.861-0.642l2.422-1.385l1.176-1.271l0.489-1.128l0.977-1.183l0.547-0.229l1.239,0.317l1.652,1.162l1.584,0.21
		l0.925-0.406l1.497-0.959l0.787,0.264l1.405,0.71l1.757-0.122l1.702-0.893l1.584-0.229l1.094,0.784l1.514,1.304l1.101,1.04
		l0.2,0.845l0.229,1.155l0.719,0.209l2,0.203l3.409,0.709l2.408,0.635l2-0.283l1.071,0.121l1.128,0.905l1.682,1.081l3.236,1.77
		l2.81,1.926l1.875,0.912l1.521,0.426l0.915,1.304l0.719,0.493l1.037-0.026l1.578,0.176l1.03,0.297l0.655-0.169l0.084-1.764
		l0.277-0.29l0.824-0.264l0.551,0.209l1.273,0.791l0.831,0.256l1.446,0.129l1.023,0.438l0.74-0.094l0.817-0.474l1.037-0.614
		l1.287-0.398l1.378-0.115l1.486-0.655l1.611,0.993l1.364,0.581l0.72,0.034l1.381-0.371l0.97-0.453l1.729-0.445l3.381-0.486
		l2.07-0.184l1.764,0.108l1.01,1.061l0.72,1.743l0.199,1.195l0.263,1.162l0.146,0.946l0.084,0.952l-0.257,1.331l0.686,1.445
		l0.813,1.136l0.723,0.716l1.209,0.554l0.641,0.805l0.72,1.715l0.783,0.865l0.821,0.357l0.659-0.161l0.963-0.284l1.479-0.189
		l0.767,0.379l0.915,0.58l1.111,0.649l0.983,0.175l1.28-0.661l1.3-0.338l0.416,0.323l1.584,0.933l1.273,0.581l0.547,0.095
		l0.814-0.183l0.652-0.433l0.602-0.195l0.553-0.021l0.51,0.143l0.442,0.229l0.429,0.284l0.416,0.283l0.382,0.284l0.331,0.242
		l0.284,0.203l0.244,0.196l0.165,0.188l0.146,0.163l0.091,0.154l0.02,0.143l-0.044,0.148l-0.094,0.142l-0.146,0.149l-0.146,0.128
		l-0.179,0.135l-0.175,0.114l-0.152,0.103l-0.145,0.101l-0.139,0.081l-0.108,0.068l-0.091,0.054l-0.047,0.061l-0.03,0.04
		l-0.021,0.041v0.027l0.014,0.04l0.024,0.033l0.02,0.034l0.041,0.047l0.041,0.028l0.078,0.04l0.074,0.027l0.084,0.04l0.104,0.033
		l0.128,0.034l0.125,0.034l0.145,0.054l0.145,0.041l0.146,0.04l0.145,0.041l0.146,0.061l0.145,0.062l0.146,0.073l0.145,0.081
		l0.145,0.081l0.132,0.088l0.145,0.095l0.125,0.088l0.132,0.095l0.125,0.095l0.111,0.095l0.132,0.088l0.095,0.094l0.098,0.095
		l0.105,0.096l0.074,0.101l0.084,0.107l0.061,0.115l0.071,0.108l0.041,0.121l0.041,0.128l0.038,0.136l0.02,0.143l0.021,0.142
		l0.02,0.147l0.013,0.163l0.007,0.182v0.184l0.006,0.188l-0.006,0.203l-0.007,0.202l-0.013,0.203l-0.034,0.209l-0.021,0.203
		l-0.037,0.202l-0.054,0.203l-0.061,0.196l-0.051,0.176l-0.054,0.182l-0.057,0.162l-0.061,0.155l-0.041,0.149l-0.064,0.135
		l-0.047,0.129l-0.034,0.107l-0.027,0.102l-0.024,0.107l-0.006,0.107l-0.007,0.103l0.007,0.122l0.023,0.12l0.034,0.143l0.047,0.129
		l0.041,0.147l0.064,0.129l0.061,0.135l0.064,0.122l0.067,0.108l0.055,0.114l0.064,0.081l0.074,0.075l0.084,0.074l0.098,0.061
		l0.125,0.054l0.139,0.062l0.145,0.054l0.166,0.061l0.193,0.061l0.223,0.055l0.247,0.04l0.27,0.034l0.297,0.02h0.317l0.334-0.006
		l0.358-0.027l0.361-0.048l0.378-0.067l0.416-0.095l0.402-0.114l0.422-0.122l0.429-0.148l0.429-0.136l0.429-0.176l0.429-0.175
		l0.429-0.183l0.422-0.203l0.422-0.182l0.385-0.189l0.362-0.189l0.324-0.168l0.284-0.162l0.257-0.143l0.219-0.148l0.196-0.129
		l0.18-0.121l0.179-0.107l0.172-0.109l0.175-0.101l0.172-0.081l0.199-0.081l0.189-0.088l0.199-0.081l0.192-0.081l0.189-0.095
		l0.186-0.088l0.179-0.107l0.165-0.115l0.152-0.122l0.091-0.182l0.146-0.136l0.146-0.142l0.145-0.143l0.145-0.147l0.125-0.142
		l0.132-0.156l0.125-0.148l0.115-0.155l0.125-0.148l0.111-0.169l0.119-0.162l0.118-0.162l0.125-0.176l0.122-0.156l0.125-0.182
		l0.132-0.163l0.132-0.175l0.138-0.176l0.132-0.169l0.131-0.162l0.146-0.155l0.125-0.162l0.132-0.155l0.125-0.149l0.128-0.142
		l0.125-0.147l0.119-0.129l0.118-0.135l0.111-0.115l0.102-0.108l0.111-0.095l0.098-0.088l0.091-0.088l0.095-0.087l0.084-0.075
		l0.074-0.095l0.078-0.087l0.061-0.088l0.058-0.102l0.061-0.102l0.047-0.095l0.044-0.107l0.041-0.108l0.034-0.102l0.02-0.101
		l0.021-0.102l0.017-0.102l0.006-0.101l0.007-0.103v-0.101l-0.007-0.108l-0.006-0.102l-0.017-0.108l-0.021-0.107l-0.121-0.068
		l-0.017-0.107l-0.014-0.101v-0.082l0.021-0.081l0.023-0.054l0.054-0.062l0.078-0.026l0.087-0.014h0.119l0.132,0.007l0.138,0.014
		l0.146,0.014l0.145,0.013l0.145,0.015l0.146,0.007h0.146l0.145-0.007l0.145-0.007l0.146-0.008l0.146-0.02l0.145-0.014l0.146-0.021
		l0.152-0.02l0.152-0.027l0.159-0.027l0.172-0.014l0.182-0.027l0.193-0.026l0.192-0.027l0.216-0.041l0.226-0.026l0.223-0.027
		l0.226-0.02l0.216-0.014l0.199-0.007l0.183,0.007l0.145,0.021l0.145,0.04l0.102,0.067l0.078,0.081l0.034,0.115l0.014,0.135
		l-0.007,0.148l-0.021,0.184l-0.02,0.215l-0.027,0.224l-0.03,0.264l-0.014,0.29l-0.013,0.297l-0.007,0.312v0.311l-0.013,0.317v0.311
		v0.284v0.27v0.244v0.236l-0.007,0.202l-0.152,0.217v0.169l-0.02,0.162l-0.007,0.142l-0.006,0.142l-0.014,0.129l-0.014,0.121
		l-0.017,0.102v0.088v0.087l0.017,0.082l0.02,0.067l0.027,0.061l0.061,0.068l0.058,0.054l0.067,0.066l0.091,0.068l0.104,0.088
		l0.108,0.081l0.139,0.095l0.138,0.115l0.146,0.121l0.146,0.142l0.145,0.148l0.146,0.149l0.146,0.148l0.145,0.148l0.145,0.148
		l0.146,0.148l0.132,0.143l0.132,0.142l0.111,0.135l0.139,0.129l0.104,0.135l0.132,0.108l0.115,0.114l0.125,0.081l0.145,0.088
		l0.119,0.074l0.145,0.061l0.125,0.055l0.145,0.041l0.118,0.04l0.119,0.026l0.128,0.027l0.098,0.014l0.112,0.021l0.111,0.007h0.094
		h0.105h0.104l0.095-0.007l0.104-0.008l0.119-0.02l0.104-0.007l0.108-0.006l0.111-0.015l0.112-0.007l0.111-0.013l0.111-0.007
		l0.108-0.007h0.111l0.098-0.007l0.108-0.007l0.098-0.014h0.091l0.095-0.013l0.084-0.015l0.091-0.013l0.081-0.027l0.078-0.026
		l0.075-0.027l0.064-0.034l0.067-0.041l0.078-0.039l0.054-0.034l0.071-0.047l0.054-0.056l0.067-0.04l0.057-0.061l0.048-0.068
		l0.057-0.066l0.054-0.081l0.054-0.095l0.064-0.102l0.047-0.095l0.041-0.129l0.064-0.135l0.041-0.148l0.054-0.142l0.078-0.162
		l0.054-0.169l0.058-0.189l0.073-0.188l0.072-0.196l0.073-0.202l0.058-0.197l0.054-0.188l0.055-0.188l0.051-0.169l0.04-0.149
		l0.034-0.148l0.023-0.128l0.014-0.122l0.007-0.115l0.014-0.107l0.007-0.101l0.006-0.096l0.014-0.095l0.014-0.107l0.014-0.102
		l0.034-0.095l0.013-0.101l0.024-0.095l0.021-0.096l0.026-0.107l0.034-0.101l0.021-0.096l0.02-0.101l0.03-0.082l0.021-0.081
		l0.021-0.094l0.027-0.067l0.034-0.062l0.03-0.054l0.026-0.054l0.04-0.047l0.041-0.041l0.037-0.027l0.041-0.041l0.041-0.027
		l0.047-0.026l0.057-0.027l0.067-0.026l0.064-0.027l0.048-0.027l0.07-0.026l0.054-0.021L24,148.552l0.061-0.013h0.055h0.064
		l0.054,0.007l0.064,0.013l0.054,0.014l0.047,0.021l0.051,0.026l0.048,0.034l0.047,0.04l0.044,0.041l0.033,0.04l0.034,0.048
		l0.027,0.047l0.026,0.062l0.017,0.054l0.015,0.054l0.007,0.062l0.007,0.054v0.067v0.055v0.054l0.006,0.054l0.007,0.047l0.021,0.048
		l0.021,0.047l0.021,0.041l0.05,0.027l0.034,0.027l0.054,0.026l0.044,0.034l0.061,0.02l-0.146,0.048l0.085,0.02l0.075,0.027
		l0.073,0.021l0.081,0.013l0.095,0.015l0.088,0.013l0.088,0.014h0.102l0.088,0.014h0.081h0.107h0.088h0.075l0.094-0.014h0.082
		l0.081-0.026l0.066-0.015l0.055-0.033l0.081-0.04l0.055-0.041l0.054-0.055l0.04-0.039l0.041-0.055l0.026-0.067l0.04-0.068
		l0.021-0.074l0.047-0.067l0.068-0.074l0.08-0.067l0.136-0.067l0.148-0.054l0.203-0.041l0.27-0.027l0.324-0.013l0.378-0.021
		l0.426-0.007h0.426l0.473-0.013l0.467-0.007l0.479-0.007l0.499-0.014l0.48-0.02l0.493-0.027l0.486-0.027l0.493-0.04l0.479-0.041
		l0.473-0.054l0.46-0.062l0.445-0.06l0.453-0.075l0.426-0.067l0.433-0.081l0.377-0.067l0.365-0.075l0.311-0.054l0.271-0.054
		l0.203-0.062l0.169-0.04l0.142-0.026l0.142-0.027l0.115-0.014l0.067-0.013h0.088h0.081l0.074,0.013l0.027,0.061l0.081,0.021
		l0.067,0.026l0.081,0.027l0.054,0.034l0.067,0.041l0.061,0.026l0.062,0.027l0.054,0.027l0.041,0.014l0.04,0.027l0.048,0.013
		l0.054,0.007l0.047,0.007h0.068l0.054-0.007l0.062-0.02l0.073-0.015l0.068-0.013l0.094-0.028l0.088-0.026l0.088-0.027l0.108-0.027
		l0.107-0.02l0.109-0.021l0.12-0.026l0.115-0.014l0.115-0.008l0.122-0.006l0.107,0.006l0.108,0.008l0.107,0.014l0.109,0.026
		l0.094,0.027l0.107,0.04l0.095,0.041l0.103,0.041l0.101,0.04l0.108,0.041l0.095,0.047l0.107,0.04l0.108,0.041l0.095,0.041
		l0.095,0.054l0.094,0.047l0.081,0.047l0.068,0.054l0.054,0.062l0.041,0.054l0.054,0.055l0.033,0.047l0.021,0.055l0.02,0.047
		l0.027,0.048l0.02,0.04L43,149.092l0.034,0.027l0.026,0.014l0.055,0.021l0.047,0.007h0.041h0.033l0.047-0.007l0.034-0.021
		l0.041-0.014l0.04-0.013l0.061-0.027l0.041-0.041l0.048-0.026l0.066-0.048l0.055-0.054l0.087-0.067l0.096-0.068l0.102-0.067
		l0.087-0.074l0.129-0.094l0.095-0.081l0.128-0.082l0.129-0.087l0.108-0.081l0.147-0.082l0.115-0.061l0.142-0.04l0.148-0.007
		l0.149,0.033l0.142,0.088l0.182,0.135l0.19,0.189l0.202,0.243l0.229,0.284l0.095,0.304l0.217,0.311l0.188,0.311l0.196,0.298
		l0.169,0.284l0.148,0.243l0.148,0.195l0.121,0.162l0.122,0.136l0.128,0.101l0.102,0.068l0.149,0.047l0.121,0.014l0.148-0.014
		l0.142-0.034l0.176-0.054l0.183-0.068l0.202-0.081l0.23-0.08l0.249-0.088l0.265-0.089l0.283-0.088l0.297-0.073l0.317-0.081
		l0.312-0.068l0.317-0.073l0.311-0.068l0.304-0.054l0.284-0.054l0.277-0.055l0.256-0.04l0.244-0.033l0.216-0.034l0.217-0.021
		l0.195-0.014h0.196h0.176l0.169,0.014l0.169,0.021l0.142,0.026l0.169,0.027l0.147,0.021l0.149,0.026l0.169,0.014l0.155,0.014
		l0.176-0.014l0.175-0.014l0.163-0.026l0.202-0.034l0.196-0.033l0.196-0.041l0.195-0.04l0.216-0.041l0.21-0.041l0.189-0.054
		l0.216-0.04l0.223-0.034l0.183-0.041l0.216-0.04l0.203-0.026l0.202-0.041l0.162-0.054l0.189-0.04l0.175-0.049l0.163-0.054
		l0.176-0.04l0.148-0.055l0.176-0.054l0.176-0.04l0.142-0.048l0.169-0.054l0.148-0.04l0.176-0.041l0.162-0.062l0.148-0.054
		l0.176-0.061l0.155-0.061l0.155-0.088l0.163-0.075l0.147-0.088l0.149-0.08l0.148-0.088l0.142-0.088l0.143-0.088l0.114-0.102
		l0.115-0.081l0.081-0.081l0.054-0.081l0.081-0.088l0.067-0.074l0.067-0.061l0.068-0.067l0.107-0.062l0.108-0.054l0.129-0.047
		l0.142-0.048l0.148-0.027l0.148-0.026l0.142-0.014l0.169-0.02h0.163h0.147l0.176,0.02l0.162,0.014l0.176,0.014l0.169,0.013
		l0.169,0.027l0.195,0.014l0.19,0.014h0.182h0.195h0.203l0.196-0.007l0.202-0.021l0.216-0.013l0.203-0.027l0.217-0.027l0.216-0.033
		l0.216-0.027l0.203-0.041l0.217-0.033l0.216-0.034l0.21-0.04l0.208-0.04l0.203-0.027l0.203-0.034l0.188-0.041l0.203-0.026
		l0.188-0.027l0.19-0.027l0.202-0.026l0.183-0.034l0.195-0.034l0.188-0.026l0.19-0.048l0.209-0.04l0.195-0.04l0.183-0.041
		l0.216-0.04l0.196-0.055l0.217-0.041l0.216-0.047l0.217-0.041l0.216-0.054l0.21-0.047l0.216-0.048l0.195-0.054l0.189-0.047
		l0.195-0.055l0.169-0.047l0.156-0.041l0.154-0.041l0.149-0.047l0.148-0.047l0.142-0.026l0.143-0.041l0.148-0.027l0.148-0.027
		l0.148-0.026l0.156-0.021l0.154-0.021l0.149-0.013l0.148-0.015l0.162-0.013h0.148l0.162-0.014h0.148h0.143h0.142h0.148l0.136,0.014
		h0.142l0.115,0.013l0.12,0.027l0.103,0.021l0.073,0.027l0.081,0.027l0.081,0.026l0.082,0.034l0.067,0.027l0.088,0.026l0.095,0.034
		l0.101,0.027l0.103,0.026l0.107,0.027l0.115,0.02l0.142,0.014l0.142,0.014l0.143,0.007h0.142h0.147l0.149-0.007l0.142-0.014
		l0.156-0.014l0.142-0.02l0.154-0.027l0.143-0.014l0.142-0.027l0.148-0.033l0.149-0.027l0.142-0.04l0.142-0.034l0.148-0.041
		l0.136-0.04l0.147-0.048l0.137-0.06l0.147-0.068l0.136-0.061l0.142-0.067l0.128-0.074l0.129-0.102l0.115-0.088l0.094-0.102
		l0.103-0.121l0.087-0.115l0.067-0.129l0.068-0.121l0.054-0.128l0.04-0.108l0.067-0.102l0.027-0.094l0.041-0.068l0.04-0.061
		l0.048-0.04l0.047-0.027l0.054-0.021l0.068-0.014h0.066h0.096h0.121h0.114h0.115l0.148,0.014l0.149,0.021l0.142,0.021l0.142,0.033
		l0.149,0.034l0.147,0.054l0.142,0.055l0.143,0.073l0.148,0.075l0.149,0.101l0.142,0.115l0.142,0.122l0.149,0.147l0.147,0.143
		l0.142,0.169l0.143,0.162l0.148,0.176L86,145.701l0.143,0.162l0.142,0.142l0.135,0.122l0.115,0.101l0.114,0.068l0.243,0.229
		l0.082,0.027l0.081,0.02h0.081l0.081-0.007l0.061-0.013l0.054-0.021l0.054-0.021l0.062-0.027l0.054-0.04l0.04-0.026l0.034-0.041
		l0.026-0.048l0.021-0.054l0.027-0.054l0.013-0.055l0.014-0.055l0.013-0.06l0.027-0.054v-0.028l0.014-0.04l0.027-0.014l0.04-0.013
		h0.027l0.033,0.013l0.041,0.027l0.055,0.033l0.073,0.041l0.068,0.055l0.081,0.066l0.081,0.068l0.107,0.074l0.102,0.081l0.102,0.081
		l0.122,0.067l0.101,0.081l0.102,0.074l0.102,0.068l0.102,0.054l0.081,0.047l0.081,0.04l0.088,0.041l0.073,0.027l0.068,0.014
		l0.094,0.006l0.075,0.021h0.088h0.081l0.081-0.021l0.088-0.006l0.101-0.014l0.102-0.014l0.102-0.021l0.095-0.027l0.107-0.026
		l0.108-0.027l0.107-0.04l0.103-0.027l0.101-0.026l0.108-0.041l0.095-0.027l0.081-0.026l0.095-0.027l0.066-0.034l0.082-0.026
		l0.055-0.027l0.066-0.027l0.068-0.014l0.054-0.027l0.068-0.013l0.039-0.014l0.055-0.013l0.074-0.027l0.04-0.014l0.062-0.027
		l0.026-0.034l0.027-0.04l0.014-0.054l0.027-0.055v-0.067v-0.095l-0.014-0.088l-0.014-0.094v-0.103l-0.014-0.107l-0.013-0.095
		l-0.015-0.102v-0.095v-0.081l0.015-0.094l0.013-0.088l0.014-0.067l0.04-0.081l0.068-0.081l0.061-0.075l0.074-0.066l0.068-0.075
		l0.107-0.067l0.068-0.061l0.08-0.062l0.055-0.067l0.066-0.067l0.048-0.054l0.014-0.061l0.014-0.068v-0.054l-0.007-0.067
		l-0.014-0.055l-0.014-0.06l-0.014-0.055l-0.027-0.055h-0.147l-0.014-0.06l-0.014-0.048v-0.062l0.014-0.04v-0.054l0.026-0.048
		l0.041-0.047l0.027-0.047l0.047-0.041l0.047-0.054l0.048-0.055l0.047-0.067l0.068-0.061l0.066-0.067l0.068-0.081l0.067-0.088
		l0.055-0.081l0.066-0.095l0.075-0.095l0.06-0.095l0.068-0.088l0.054-0.095l0.075-0.088l0.066-0.081l0.062-0.066l0.067-0.088
		l0.055-0.075l0.073-0.074l0.088-0.081l0.068-0.088l0.081-0.081l0.081-0.095l0.095-0.095l0.094-0.094l0.088-0.102l0.102-0.108
		l0.081-0.101l0.074-0.108l0.074-0.129l0.067-0.122l0.068-0.12l0.054-0.115l0.054-0.108l0.047-0.121l0.048-0.103l0.055-0.101
		l0.066-0.081l0.048-0.067l0.061-0.067l0.067-0.075l0.096-0.061l0.094-0.061l0.108-0.067l0.135-0.068l0.136-0.088l0.148-0.081
		l0.147-0.094l0.149-0.102l0.148-0.101l0.155-0.115l0.155-0.115l0.149-0.122l0.148-0.121l0.142-0.115l0.142-0.128l0.142-0.128
		l0.129-0.129l0.149-0.128l0.135-0.122l0.135-0.135l0.135-0.115l0.129-0.128l0.142-0.115l0.108-0.115L98.896,137l0.114-0.102
		l0.109-0.102l0.094-0.094l0.081-0.081l0.055-0.082l0.047-0.087l0.027-0.075v-0.081l-0.034-0.095l-0.162,0.088l-0.088-0.107
		l-0.142-0.115l-0.142-0.142l-0.156-0.135l-0.169-0.149l-0.195-0.154l-0.216-0.169l-0.216-0.183l-0.23-0.196l-0.229-0.216
		l-0.244-0.217l-0.242-0.229l-0.229-0.223l-0.196-0.23l-0.21-0.223l-0.216-0.216l-0.148-0.189l-0.162-0.182l-0.142-0.149
		l-0.143-0.148l-0.121-0.135l-0.136-0.122l-0.101-0.102l-0.095-0.101l-0.115-0.081l-0.088-0.067l-0.095-0.055l-0.087-0.054
		l-0.082-0.048l-0.066-0.04l-0.081-0.054l-0.068-0.054l-0.061-0.055l-0.04-0.067l-0.034-0.074l-0.027-0.082l-0.02-0.081
		l-0.021-0.088l-0.013-0.094v-0.081v-0.095v-0.095v-0.088l0.013-0.081l0.008-0.081v-0.074l0.014-0.081v-0.067v-0.081v-0.068v-0.033
		l-0.014-0.055l-0.008-0.066l-0.026-0.068l-0.013-0.061l-0.027-0.062l-0.041-0.054l-0.041-0.061l-0.047-0.067l-0.061-0.067
		l-0.055-0.067l-0.094-0.088l-0.075-0.088l-0.088-0.088l-0.094-0.108l-0.102-0.102l-0.102-0.128l-0.121-0.122l-0.122-0.128
		l-0.121-0.114l-0.129-0.108l-0.115-0.095l-0.114-0.054l-0.102-0.054l-0.107-0.015h-0.095l-0.074,0.015l-0.088,0.033l-0.081,0.033
		l-0.088,0.041l-0.061,0.04l-0.081,0.041l-0.081,0.047l-0.061,0.034l-0.075,0.034l-0.067,0.02l-0.067,0.014l-0.067,0.007h-0.055
		l-0.067-0.007l-0.054-0.014l-0.075-0.034l-0.047-0.032l-0.061-0.049l-0.047-0.061l-0.055-0.067l-0.054-0.088l-1.716-0.095
		l-0.04-0.094l-0.034-0.115l-0.034-0.102l-0.02-0.101l0.02-0.075l-0.02-0.101l-0.015-0.096l-0.013-0.101l-0.014-0.081l-0.021-0.081
		l-0.014-0.067v-0.081l-0.013-0.074l-0.027-0.082l-0.014-0.087l-0.027-0.082l-0.04-0.094l-0.048-0.081l-0.047-0.108l-0.041-0.088
		l-0.054-0.094l-0.027-0.096l-0.04-0.08l-0.027-0.074l-0.021-0.075l-0.02-0.074l-0.027-0.061l-0.021-0.068l-0.014-0.054
		l-0.013-0.061l-0.014-0.061l-0.008-0.061l-0.013-0.068v-0.073v-0.075v-0.081v-0.088l0.021-0.107l0.026-0.115l0.048-0.128
		l0.04-0.129l0.041-0.147l0.054-0.137l0.067-0.142l0.061-0.135l0.088-0.122l0.055-0.128l0.067-0.107l0.074-0.088l0.067-0.075
		l0.088-0.06l0.081-0.055l0.088-0.055l0.115-0.033l0.101-0.041l0.115-0.013l0.135-0.028l0.129-0.02l0.142-0.021l0.115-0.02
		l0.128-0.021l0.102-0.021l0.074-0.034l0.068-0.04l0.04-0.048l0.026-0.04l0.027-0.067l-0.027-0.067l-0.013-0.082l-0.068,0.034
		l-0.04-0.107l-0.055-0.115l-0.047-0.128l-0.061-0.136l-0.067-0.142l-0.067-0.143l-0.062-0.147l-0.061-0.156l-0.027-0.176
		l-0.04-0.169L90,121.401l-0.021-0.183l-0.026-0.189v-0.182l0.014-0.176L90,120.509l0.066-0.161l0.055-0.143l0.088-0.135
		l0.102-0.115l0.108-0.107l0.121-0.115l0.136-0.095l0.128-0.081l0.142-0.088l0.122-0.074l0.135-0.074l0.129-0.054l0.128-0.067
		l0.121-0.048l0.102-0.033l0.114-0.034l0.108-0.014h0.082l0.094,0.014l0.095,0.027l0.074,0.04l0.075,0.061l0.094,0.081l0.081,0.102
		l0.067,0.122l0.095,0.135l0.102,0.155l0.088,0.163l0.107,0.175l0.115,0.163l0.102,0.182l0.135,0.169l0.128,0.176l0.143,0.162
		l0.148,0.142l0.149,0.148l0.142,0.129l0.142,0.121l0.148,0.108l0.136,0.102l0.147,0.095l0.122,0.067l0.122,0.054l0.135,0.041
		l0.115,0.034l0.142,0.02l0.128,0.021l0.142,0.014l0.149,0.006l0.162,0.021h0.169h0.196h0.073h0.196h0.203l0.188-0.021l0.189-0.02
		l0.148-0.021l0.163-0.027l0.142-0.041l0.142-0.039l0.128-0.055l0.142-0.054l0.102-0.075l0.102-0.073l0.095-0.088l0.074-0.108
		l0.061-0.102l0.067-0.108l0.068-0.107l0.08-0.115l0.055-0.095l0.067-0.108l0.081-0.101l0.101-0.102l0.082-0.081l0.102-0.081
		l0.101-0.081l0.088-0.088l0.095-0.074l0.108-0.074l0.095-0.067l0.094-0.075l0.115-0.061l0.102-0.061l0.122-0.055l0.128-0.054
		l0.142-0.061l0.142-0.047l0.143-0.048l0.154-0.041l0.17-0.039l0.162-0.041l0.188-0.034l0.149-0.04l0.169-0.027l0.154-0.026
		l0.143-0.027l0.142-0.027l0.148-0.041l0.135-0.026l0.137-0.041l0.094-0.047l0.122-0.062l0.107-0.061l0.095-0.067l0.108-0.088
		l0.095-0.095l0.081-0.107l0.074-0.102l0.067-0.114l0.054-0.115l0.047-0.122l0.027-0.114l0.014-0.129l0.014-0.114l-0.014-0.115
		v-0.129l-0.026-0.121l-0.015-0.114l-0.013-0.109l-0.027-0.114l-0.033-0.108l-0.015-0.094l-0.013-0.102l-0.007-0.096l-0.162,0.049
		l0.013-0.088l0.015-0.081l0.013-0.096l0.041-0.073l0.034-0.081l0.033-0.075l0.033-0.081l0.034-0.081l0.027-0.067l0.026-0.094
		v-0.081v-0.088l-0.912-0.041l-0.006-0.102l-0.021-0.081l-0.014-0.095l-0.02-0.088l-0.014-0.073v-0.075l-0.008-0.081v-0.034
		l0.008-0.081v-0.08v-0.096l0.014-0.107v-0.115v-0.142l-0.007-0.142l-0.007-0.149l-0.008-0.142l-0.006-0.169l-0.014-0.147
		l-0.02-0.156l-0.015-0.142l-0.02-0.149l-0.027-0.128l-0.014-0.122l-0.027-0.114l-0.013-0.094l-0.014-0.109v-0.087l0.014-0.082
		l0.013-0.087l0.027-0.082l0.026-0.081l0.049-0.066l0.047-0.088l0.095-0.081l0.066-0.068l0.068-0.095l0.074-0.081l0.114-0.101
		l0.068-0.102l0.081-0.088l0.081-0.102l0.095-0.101l0.054-0.088l0.04-0.088l0.027-0.081l0.021-0.095l0.013-0.088v-0.095l0.008-0.108
		v-0.115l-0.136-0.142l0.014-0.154l0.026-0.169l0.034-0.176l0.027-0.203l0.041-0.209l0.061-0.21l0.04-0.195l0.027-0.19l0.026-0.154
		l0.015-0.149l0.013-0.121l0.007-0.114l0.007-0.082l0.014-0.067l0.026-0.041l0.041-0.047l0.081-0.033l0.068-0.021l0.088-0.014
		l0.128-0.014l0.129-0.007l0.142-0.007l0.147-0.02l0.176-0.027l0.156-0.034l0.195-0.054l0.23-0.061l0.229-0.074l0.229-0.075
		l0.237-0.081l0.25-0.101l0.257-0.081l0.243-0.095l0.243-0.088l0.223-0.081l0.217-0.081l0.223-0.088l0.229-0.081l0.209-0.074
		l0.183-0.074l0.203-0.088l0.196-0.074l0.154-0.075l0.189-0.081l0.148-0.073l0.149-0.062l0.142-0.061l0.142-0.054l0.135-0.04
		l0.122-0.034l0.095-0.027l0.087-0.014h0.088h0.068h0.041l0.054,0.014l0.04,0.027l0.054,0.047l0.034,0.041l0.034,0.047l0.026,0.047
		l0.014,0.054l0.027,0.055l0.014,0.048l0.014,0.061l0.027,0.047v0.047l0.02,0.048l0.021,0.04l0.02,0.048l0.027,0.04l0.027,0.034
		l0.021,0.034l0.026,0.027l0.04,0.02l0.027,0.021l0.041,0.014l0.054,0.013l0.041,0.014h0.061h0.048l0.054-0.014h0.041l0.054-0.026
		l0.061-0.027l0.047-0.027l0.04-0.04l0.041-0.054l0.027-0.061l0.027-0.055l0.026-0.08l0.015-0.075l0.013-0.095l0.02-0.081
		l0.007-0.081l0.015-0.101l0.013-0.081l0.021-0.081l0.02-0.082l0.04-0.087l0.027-0.082l0.026-0.074l0.028-0.073l0.047-0.088
		l0.047-0.068l0.041-0.074l0.054-0.081l0.04-0.067l0.041-0.068l0.068-0.081l0.073-0.088l0.074-0.066l0.095-0.088l0.095-0.081
		l0.108-0.108l0.122-0.088l0.135-0.088l0.121-0.102l0.148-0.081l0.149-0.081l0.148-0.088l0.135-0.067l0.149-0.055l0.147-0.054
		l0.148-0.047l0.143-0.047l0.142-0.034l0.162-0.026l0.176-0.015l0.169-0.013l0.183-0.014h0.203l0.182,0.014l0.195,0.013l0.217,0.015
		l0.183,0.026l0.195,0.034l0.217,0.04l0.203,0.048l0.175,0.047l0.189,0.054l0.169,0.068l0.155,0.074l0.155,0.073l0.143,0.075
		l0.148,0.094l0.121,0.095l0.122,0.088l0.095,0.096l0.081,0.114l0.066,0.095l0.068,0.102l0.041,0.101l0.054,0.102l0.027,0.088
		l0.013,0.088l0.014,0.088v0.081l-0.014,0.088l-0.013,0.067l-0.027,0.067l-0.054,0.067l-0.055,0.062l-0.095,0.054l-0.08,0.054
		l-0.096,0.054l-0.121,0.068l-0.121,0.074l-0.149,0.067l-0.142,0.081l-0.142,0.095l-0.149,0.102l-0.148,0.107l-0.142,0.115
		l-0.143,0.114l-0.121,0.115l-0.108,0.135l-0.081,0.129l-0.04,0.135l-0.014,0.128v0.143l0.026,0.136l0.041,0.128l0.074,0.135
		l0.081,0.129l0.088,0.128l0.102,0.129l0.128,0.121l0.108,0.114l0.136,0.115l0.135,0.107l0.149,0.096l0.147,0.102l0.142,0.094
		l0.143,0.081l0.148,0.088l0.148,0.081l0.143,0.067l0.114,0.068l0.108,0.06l0.081,0.068l0.067,0.054l0.04,0.054l0.027,0.055
		l0.014,0.061v0.041l-0.014,0.054v0.055l-0.013,0.054v0.073v0.068l-0.015,0.068l-0.013,0.066l-0.014,0.068l-0.04,0.073l-0.062,0.075
		l-0.074,0.062l-0.095,0.066l-0.114,0.062l-0.143,0.054l-0.142,0.054l-0.142,0.054l-0.149,0.048l-0.148,0.055l-0.121,0.054
		l-0.122,0.04l-0.107,0.048l-0.095,0.047l-0.074,0.047l-0.088,0.068l-0.054,0.054l-0.088,0.047l-0.055,0.068l-0.048,0.095
		l-0.04,0.081l-0.026,0.094l-0.015,0.102l-0.013,0.095v0.095l0.013,0.102l0.027,0.081l0.041,0.081l0.054,0.073l0.068,0.068
		l0.094,0.054l0.081,0.054l0.108,0.048l0.108,0.033l0.054,0.007l0.128,0.027l0.142,0.021l0.135,0.026l0.149,0.021l0.135,0.013
		l0.148,0.014l0.129,0.014l0.143,0.014l0.121,0.013l0.108,0.015l0.108,0.026l0.094,0.013l0.095,0.015l0.107,0.013l0.103,0.007h0.101
		l0.129-0.007l0.101-0.013l0.136-0.027l0.121-0.041l0.135-0.054l0.129-0.081l0.115-0.088l0.135-0.107l0.115-0.143l0.115-0.142
		l0.12-0.148l0.109-0.155l0.128-0.176l0.114-0.149l0.122-0.154l0.128-0.149l0.129-0.114l0.135-0.108l0.149-0.088l0.142-0.074
		l0.142-0.061l0.148-0.041l0.148-0.041l0.143-0.026l0.155-0.04l0.148-0.021l0.148-0.014l0.162-0.013l0.176-0.015h0.162l0.162-0.007
		l0.176-0.007h0.155h0.169h0.155h0.183l0.161,0.007l0.169,0.007l0.184,0.021l0.161,0.021l0.196,0.027l0.195,0.047l0.19,0.04
		l0.195,0.041l0.196,0.041l0.195,0.054l0.184,0.047l0.188,0.054l0.176,0.055l0.175,0.041l0.189,0.039l0.162,0.034l0.189,0.034
		l0.202,0.02l0.176,0.021l0.216,0.006l0.23,0.007l0.243-0.007l0.236-0.013l0.236-0.027l0.25-0.026l0.25-0.041l0.243-0.047
		l0.243-0.055l0.21-0.061l0.195-0.062l0.203-0.061l0.203-0.067l0.175-0.067l0.203-0.081l0.195-0.068l0.189-0.073l0.183-0.068
		l0.217-0.066l0.201-0.062l0.19-0.067l0.216-0.055l0.202-0.054l0.176-0.054l0.189-0.041l0.169-0.04l0.169-0.034l0.142-0.041
		l0.142-0.04l0.149-0.041l0.148-0.054l0.121-0.054l0.107-0.061l0.096-0.081l0.088-0.088l0.067-0.102l0.062-0.114l0.026-0.143
		l0.054-0.142l0.027-0.163l0.021-0.188l0.013-0.196l0.014-0.223l0.014-0.236l0.021-0.236v-0.229l0.013-0.217l0.015-0.209l0.02-0.183
		l0.02-0.155l0.028-0.142l0.027-0.115l0.04-0.102l0.054-0.088l0.047-0.067l0.061-0.067l0.068-0.054l0.068-0.074l0.107-0.054
		l0.094-0.055l0.095-0.048l0.122-0.047l0.121-0.026l0.109-0.027l0.135-0.02h0.121h0.143l0.114,0.032l0.136,0.041l0.121,0.047
		l0.102,0.055l0.114,0.088l0.095,0.088l0.067,0.107l0.062,0.122l0.061,0.129l0.067,0.135l0.04,0.148l0.041,0.142l0.04,0.169
		l0.034,0.17l0.041,0.175l0.074,0.183l0.054,0.182l0.041,0.183l0.04,0.184l0.041,0.154l0.04,0.162l0.041,0.142l0.04,0.129
		l0.041,0.122l0.04,0.114l0.027,0.102l0.027,0.095l0.033,0.108l0.033,0.114l0.041,0.115l0.067,0.142l0.055,0.143l0.054,0.147
		l0.062,0.148l0.073,0.149l0.095,0.142l0.088,0.142l0.102,0.122l0.128,0.128l0.108,0.102l0.143,0.108l0.128,0.081l0.128,0.074
		l0.148,0.074l0.122,0.087l0.148,0.068l0.121,0.088l0.142,0.088l0.129,0.101l0.128,0.096l0.108,0.114l0.102,0.122l0.108,0.128
		l0.088,0.148l0.074,0.143l0.067,0.154l0.068,0.176l0.047,0.169l0.033,0.176l0.04,0.196l0.015,0.188l0.013,0.203v0.203l-0.013,0.202
		l-0.015,0.209l-0.026,0.203l-0.027,0.189l-0.034,0.196l-0.026,0.188l-0.115,0.169l-0.026,0.176l-0.027,0.155l-0.013,0.155v0.143
		v0.148v0.135l0.013,0.149l0.041,0.127l0.026,0.143l0.062,0.129l0.054,0.135l0.061,0.128l0.067,0.135l0.068,0.136l0.073,0.142
		l0.068,0.143l0.061,0.147l0.067,0.142l0.067,0.149l0.068,0.142l0.081,0.135l0.066,0.129l0.103,0.108l0.101,0.107l0.122,0.081
		l0.115,0.061l0.142,0.049l0.135,0.032l0.148,0.015h0.143l0.142-0.034l0.148-0.054l0.108-0.122l0.142-0.094l0.143-0.115l0.127-0.136
		l0.115-0.148l0.122-0.155l0.095-0.189l0.094-0.209l0.055-0.216l0.067-0.244l0.047-0.243l0.027-0.264l0.014-0.263l0.013-0.271
		v-0.263v-0.264v-0.257l-0.006-0.237v-0.242v-0.244l0.006-0.229l0.015-0.217l0.047-0.196l0.041-0.188l0.074-0.183l0.088-0.162
		l0.095-0.149l0.121-0.142l0.108-0.135l0.135-0.115l0.122-0.107l0.108-0.095l0.135-0.081l0.061-0.074l0.115-0.061l0.107-0.062
		l0.095-0.054l0.095-0.048l0.102-0.054l0.087-0.061l0.082-0.067l0.081-0.068l0.066-0.081l0.068-0.088l0.041-0.073l0.04-0.081
		l0.014-0.088v-0.088l-0.014-0.088l-0.027-0.088l-0.04-0.089l-0.055-0.088l-0.067-0.08l-0.067-0.095l-0.081-0.067l-0.074-0.081
		l-0.724-0.081l-0.066-0.075l-0.102-0.066l-0.062-0.075l-0.066-0.088l-0.055-0.087l-0.041-0.095l-0.054-0.108l-0.034-0.129
		l-0.013-0.135v-0.135v-0.142l0.013-0.142l0.021-0.136l0.041-0.129l0.026-0.114l0.041-0.102l0.04-0.088l0.054-0.074l0.041-0.055
		l0.062-0.047l0.088-0.026l0.054-0.021h0.081l0.074,0.021l0.102,0.026l0.094,0.041l0.095,0.04l0.122,0.041l0.121,0.04l0.136,0.041
		l0.128,0.027l0.142,0.033l0.149,0.014h0.148h0.143l0.142-0.014l0.147-0.021l0.149-0.027l0.135-0.026l0.148-0.027l0.122-0.034
		l0.121-0.04l0.136-0.033l0.101-0.04l0.143-0.041l0.114-0.034l0.129-0.04l0.135-0.041l0.136-0.034l0.142-0.026l0.128-0.021
		l0.142-0.014l0.122-0.006l0.142,0.006l0.129,0.021l0.115,0.033l0.121,0.055l0.095,0.055l0.107,0.061l0.103,0.067l0.087,0.067
		l0.095,0.067l0.081,0.054l0.095,0.061l0.067,0.041l0.095,0.034l0.095,0.027l0.094,0.02l0.088,0.007h0.102h0.095l0.121-0.021
		l0.122-0.021l0.122-0.026l0.121-0.034l0.122-0.04l0.114-0.048l0.128-0.027l0.103-0.026l0.094-0.014l0.088-0.02l0.102-0.007h0.081
		h0.088l0.095,0.007l0.095,0.02l0.107,0.014l0.108,0.026l0.095,0.027l0.122,0.034l0.121,0.041l0.108,0.033l0.107,0.033l0.088,0.034
		l0.088,0.027l0.055,0.033l0.066,0.027l0.055,0.014l0.033,0.033l0.041,0.027l0.047,0.027l0.055,0.033l0.054,0.034l0.088,0.041
		l0.074,0.04l0.095,0.041l0.114,0.047l0.103,0.041l0.107,0.04l0.128,0.041l0.115,0.04l0.102,0.033l0.101,0.034l0.108,0.027
		l0.088,0.034l0.088,0.026l0.108,0.015l0.081,0.013l0.081,0.014h0.095h0.088h0.074h0.081l0.081-0.014l0.081-0.027l0.067-0.026
		l0.067-0.034l0.068-0.04l0.073-0.055l0.055-0.055l0.048-0.066l0.04-0.075l0.041-0.074l0.026-0.073l0.027-0.096v-0.088v-0.095
		v-0.094l-0.027-0.115l-0.026-0.102l-0.724-0.121l-0.021-0.114l-0.02-0.115l-0.048-0.129l-0.027-0.135l-0.013-0.142l-0.027-0.128
		l-0.014-0.137l-0.013-0.142v-0.135l-0.015-0.135v-0.142v-0.122l0.015-0.121l0.013-0.129l0.014-0.115l0.027-0.121l0.04-0.108
		l0.061-0.101l0.054-0.108l0.062-0.095l0.067-0.081l0.081-0.102l0.095-0.081l0.081-0.074l0.081-0.095l0.102-0.081l0.088-0.081
		l0.08-0.081l0.088-0.088l0.075-0.08l0.067-0.088l0.054-0.096l0.061-0.081l0.048-0.08l0.033-0.088l0.034-0.081l0.027-0.068
		l0.026-0.081l0.027-0.073l0.027-0.068l0.054-0.054l0.061-0.062l0.075-0.047l0.067-0.047l0.114-0.041l0.115-0.026l0.107-0.015
		l0.143-0.013l0.142-0.014h0.148h0.149h0.142h0.142h0.155h0.163h0.169h0.175l0.189-0.014l0.203-0.014l0.216-0.027l0.242-0.047
		l0.251-0.041l0.283-0.06l0.331-0.061l0.149-0.027l0.107-0.42l0.351-0.242l0.392-0.034l0.487-0.062l0.311-0.087l0.176-0.067
		l2.013-0.271l0.015-0.324l-1.676-3.324l-1.689-3.337l0.095-0.986l0.068-0.79l0.756-1.438l0.25-0.479L162,92.218l-2.323-2.027
		l-0.312-0.946l0.217-0.432l0.5-0.973l-0.041-0.446L160,86.84l-0.514-0.399l-2.452-1.884l0.635-1.824l1.858-2.567l-1.574-1.188
		l-0.832-0.642l-1.013,0.033l-3.046,0.121l-2.979-6.903l-1.115-2.594l0.007-0.237l0.095-2.952l1.284-2.797l0.723-1.216l0.77-1.331
		l4.411-4.553l-0.418-3.351l0.797-2.784l1.432-0.811l1.669-0.952l1.438-0.521l2.716-1l1.135-2.479l0.075-0.149l-0.298-0.904
		l-0.723-2.283l-2.411-2.635l-1.845-3.433l0.878-5.992l0.648-0.683l1.581-1.709l1.473-0.614l2.135-0.899l-0.283-1.438l-0.352-1.764
		l-0.96-1.554l-0.891-1.473l0.04-1.486l0.054-1.709l1.027-2.796l-2.095-2.872l-2.647-1.992l-1.188-1.345l-1.122-1.29l-1.108-3.438
		l-2.647-2.223l-5.905-2.723l0.777-2.952l0.013-0.014l1.291-2.54l-0.973-3.033l0.176-1.764l0.148-1.27l0.419-0.385l1.83-1.771
		l2.973-2.155l0.332-0.554l0.54-0.892l0.567-0.945l0.554-3.114l0.149-6.628l-0.636-3.432l-0.952-1.507l-0.75-2.148l-2.743-3.938
		l-1.77-2.573l-1.514-2.188l-1.432-3.358l-0.142-3.188l0.316-3.188l0.271-0.716l0.743-2.074l0.257-1.398l0.784,0.183l0.418-0.521
		v-0.398l0.203-0.305l0.101-0.351l0.156-0.392l0.054-0.439l-0.21-1.223l0.062-0.398l0.148-0.433l0.101-0.345l0.156-0.263
		l0.142-0.352l0.507-0.743l0.135-0.433l0.183-0.479l0.196-0.223l0.107-0.264l0.379-0.352l0.324-0.655l0.298-0.527l0.107-0.392
		l0.148-0.135l0.622-0.526l0.04-0.527v-0.433v-0.352l-0.351-0.263l0.142-0.479l-0.203-0.393l-0.114-0.439l-0.055-0.344l-0.054-0.352
		l0.365-0.648l0.411-0.264l0.257-0.176l0.507-0.263l0.108-0.265l0.135-0.351v-0.426v-0.662l0.426-1.574l-0.257-0.438l-0.114-0.386
		l-0.143-0.263l-0.357-0.656l-0.831-1.438l-0.257-0.702l-1.304-1.304l-0.419-0.352l-0.433-0.264l-0.533-0.317l-0.184-0.128
		l-0.607-0.339l-0.311-0.223l-0.364-0.392h-0.196l-0.236-0.216l-0.724-0.345l-0.142-0.264l-1.134-1.176l-0.697-0.743l-0.878-1.567
		l-0.668-0.702l-0.663-0.52l-1.04-0.433l-0.142-0.479l-0.324-0.392l-0.71-0.791l-0.209-0.952l-0.189-0.311l-0.817-1.352
		l-0.473-0.696l-0.507-0.79l-0.257-0.433v-0.264l-0.311-1.27l0.062-0.473l0.12-0.217l0.055-0.183v-0.317l-0.446-0.783l-0.432-0.257
		l-0.622-0.614l-0.067-0.433v-0.352l0.149-0.135l0.202-0.831l-0.432-0.514l-0.055-0.567l-0.176-0.438l-0.257-0.305l-0.202-0.426
		l-0.149-0.263l-0.364-0.872l-0.108-0.264l-0.229-0.257l-0.378-0.209l-0.298-0.189l-0.311-0.175l-0.426-0.264l-0.345-0.244
		l-0.377-0.188l-0.596-0.264l-0.5-0.439l-0.209-0.243l-0.142-0.479l-0.041-0.29l0.135-0.527l0.143-0.473l0.142-0.271l0.176-0.371
		v-0.372l-0.041-0.345v-0.561v-1.026v-1.034l-0.5,0.312l-0.473,0.033l-0.621,0.081l-1.317,0.027h-0.695l-0.312,0.061l-0.271,0.074
		l-0.419-0.04l-0.188-0.074l-0.426-0.062l-0.352-0.014l-0.29-0.067l-0.298-0.047l-0.364-0.061h-0.46l-0.601,0.006l-0.629,0.021
		h-0.432l-0.405,0.027l-0.764,0.196l-0.824,0.297l-0.405,0.229l-0.54,0.115l-0.386-0.115l-0.236-0.107l-0.398-0.102l-0.385-0.136
		l-0.062,0.251l-0.094,0.459l0.013,0.392l0.015,0.324l-0.426,0.412l-0.143,0.473l-0.257,0.277l-0.095,0.183l-1.351,0.783
		l-0.311,0.142l0.357,0.493l-0.142,0.149l-0.229,0.161l-0.189,0.21l-0.352,0.183l-0.027,0.061l-0.323,0.365l-0.149,0.297
		l-0.148,0.216l-0.297,0.264l-0.324,0.203l-0.284,0.155l-0.216,0.169l-0.298,0.29l-0.142,0.243l-0.155,0.243l-0.243,0.236
		l-0.243,0.189l-0.338,0.23l-0.242,0.229l-0.312,0.338l-0.338,0.312l-0.312,0.183l-0.438,0.223l-0.426,0.209l-0.135,0.169
		l-0.264,0.317l-0.114,0.291l-0.143,0.378l-0.249,0.358l-0.062,0.526l0.047,0.257l-0.135,0.23l-0.216,0.175l-0.264,0.155
		l-0.331,0.379l-0.217,0.378l-0.364,0.298l-0.419,0.283l-0.433,0.304l-0.175,0.224l-0.136,0.229l-0.284,0.283l-0.432,0.196
		l-0.466,0.169l-0.466,0.155l-0.312,0.142l-0.216,0.156l-0.155,0.249l-0.102,0.453l0.243,0.607l0.148,0.453l-0.148,0.189
		l-0.283,0.094l-0.486,0.021l-0.433,0.021l-0.5-0.121l-0.433-0.291v-0.486l0.392-0.229l0.169-0.236l-0.101-0.318l-0.865-0.554
		l-0.102-0.426l0.088-0.29l0.04-0.216l-0.188-0.298l-0.304-0.271l-0.541-0.276l-0.521-0.561l-0.304-0.155l-0.418-0.189l-0.277-0.283
		l-0.148-0.372l-0.217-0.291l-0.148-0.081l-0.433-0.061l-0.371,0.048l-0.974,0.182l-0.357,0.088l-0.974,0.426l-0.242,0.345
		l-0.129,0.236l-0.128,0.311l-0.27,0.459l-0.325,0.622l-0.352,0.446l-0.344,0.297l-0.534,0.439l-0.5,0.107h-0.499l-0.561-0.095
		l-0.372,0.014L92.796-100l-0.015,0.23v0.304l-0.485,0.5l-0.622,0.426l0.041,0.229v0.007l0.526,0.129l0.393-0.021l0.554-0.027
		l0.75-0.148l0.533-0.102l0.432,0.067l0.068,0.108l0.014,0.459l-0.095,0.662l-0.135,0.696l-0.136,0.621l-0.716,1.365l-0.338,0.385
		l-0.446,0.594l-0.283,0.439l-0.365,0.338l-0.607,0.385l-0.405,0.352L90.83-91.61l-0.567,0.399l-0.311,0.398l-0.155,0.223
		l-0.555,0.29l-0.485,0.095l-0.365,0.027l-0.852,0.169l-0.507,0.229l-0.426,0.433l-1.066,1.101l-0.277,0.142l-0.824,0.203H84
		l-0.297,0.048v0.209l0.297,1l0.183,0.526l-0.02,0.372l-0.068,0.486l-0.026,0.574l-0.135,0.223l-0.203,0.23l-0.581,0.392
		l-0.682,0.365l-0.365,0.114l-0.264,0.095l-0.317,0.162l-0.291,0.378l-0.216,0.479l-0.357,0.879l-0.237,0.52l-0.161,0.243
		l-0.479,0.473l-0.298,0.257l-0.487,0.446l-0.682,0.574l-0.121,0.5L78.4-77.97l0.371,0.446l0.325,0.264l0.142,0.371l-0.041,0.554
		l-0.142,0.669L78.852-75.2l-0.27,0.426l-0.271,0.345l-0.365,0.271l-1.02,0.561l-0.642,0.615l-0.548,0.452l-0.426,0.493l0.122,0.25
		l0.426,0.114l0.115,0.622l-0.162,0.142l-0.19,0.229l-0.27,0.358l-0.176,0.25l-0.297,0.135l-0.257-0.007l-0.96-0.121l-0.432,0.135
		l-0.533,0.311l-0.332,0.264l-0.771,1.176l-0.594,0.655l-0.628,0.696l-0.493,0.216l-0.473,0.061l-0.419-0.088l-0.474-0.216
		l-0.621-0.196l-0.473-0.155l-0.527-0.04l-0.635,0.087l-0.933,0.291l-1.959,0.878l-2.365,1.426l-0.377-0.047l-0.244-0.339
		l-0.438-0.885l-0.243-0.371l-0.426-0.433l-0.466-0.277l-0.636,0.115l-0.142,0.062l-0.473,0.107l-0.392,0.074l-0.453,0.196
		l-0.426,0.257l-1.006,0.297l-0.426,0.169l-0.365,0.345l-0.371,0.426l-0.203,0.297l-0.297,0.736l-0.143,0.5l-0.621,1.607
		l-0.229,0.446l-0.412,0.479l-0.196,0.236l-0.953,0.405L50.33-59.75l-0.594,0.264l-0.595,0.243L48.6-59.007l-0.878,0.196
		l-0.404,0.162l-0.419,0.067l-0.555,0.148l-0.959,0.217l-0.439-0.055l-0.385-0.155l-2.635,0.858l-3.046,0.938l-1.615,0.115
		l-1.588-0.236l-2.169,0.723l-0.938,1.02l0.621-0.121l0.601-0.095l0.608-0.027h0.426l0.438,0.034l0.42,0.048l0.216,0.061
		l0.257,0.061l0.257,0.102l0.249,0.142l0.487,0.217l0.52,0.27l0.371,0.196l0.169,0.121L38.36-53.9l0.271,0.169l0.256,0.216
		l0.433,0.291l0.142,0.074l0.142,0.095l0.143,0.047l0.142,0.021l0.283,0.061l0.325,0.095L41.4-52.63l1.094,0.271l0.838,0.196
		l0.662,0.162l0.527,0.169l0.243,0.04L45.5-51.65l0.662,0.135l0.426,0.135l0.595,0.135l0.432,0.096l0.352,0.087l0.411,0.108
		l0.467,0.108l0.635,0.169l0.189,0.04l0.162,0.074l0.229,0.102l0.257,0.115l0.257,0.074l0.243,0.047L51-50.198l0.142-0.027
		l0.142-0.014l0.25,0.041l0.149,0.033l0.297,0.115l0.249,0.129l0.176,0.054l0.331,0.047l0.521,0.068l0.291,0.107l0.338,0.128
		l0.283,0.149l0.149,0.081l0.142,0.257l0.142,0.142l0.297,0.203l0.244,0.101l0.297,0.041l0.337,0.04l0.23,0.061l0.148,0.082
		l0.229,0.175l0.216,0.271l0.338,0.311l0.143,0.108h0.142l0.183-0.041l0.385-0.101l0.526-0.108l0.352,0.014l0.284,0.074l0.195,0.081
		l0.304,0.21l0.338,0.175l0.257,0.136l0.405,0.175l0.406,0.156l0.229,0.148l0.148,0.202l0.378,0.352l0.567,0.439l0.5,0.432
		l0.176,0.224l0.149,0.121l0.722,0.453l0.886,0.75l0.506,0.405l0.967,0.763l1.229,0.967l0.338,0.29l0.432,0.426l0.508,0.412
		l0.452,0.297l0.432,0.237l0.433,0.223l0.143,0.142l0.195,0.271l0.027,0.128l-0.027,0.223l0.014,0.23l0.102,0.128l0.142,0.135
		l0.398,0.257l0.331,0.229l0.136,0.162l0.107,0.176l0.148,0.236l0.17,0.189l0.229,0.189l0.831,0.439l1.216,0.54l1.143,0.419
		l0.426,0.121l0.385,0.189l0.736,0.331l0.452,0.21l0.479,0.182l0.717,0.317l1.878,0.878l0.128,0.062l0.426,0.155l0.142,0.074
		l0.143,0.148l0.183,0.352l0.561,1.595l0.264,1.006l0.142,0.541l0.067,0.29l0.081,0.129l0.176,0.202l0.716,0.723l0.493,0.426
		l0.393,0.216l0.627,0.196l0.622,0.143l0.986,0.161l0.541,0.081l0.425,0.027l0.398,0.007h0.244l0.27-0.027l0.419-0.026l0.433,0.02
		l0.412,0.082l0.223,0.087l0.196,0.136l0.142,0.216l0.243,0.385l0.142,0.17l0.142,0.135h0.108l0.162-0.115l0.338-0.216l0.554-0.284
		l0.244-0.095l0.175-0.04h0.236l0.575,0.054l0.702,0.054l0.595,0.027l0.142,0.027l0.371,0.027l0.433-0.088l0.595,0.142l0.04,0.102
		l-0.054,0.378l-0.351,0.702l-0.527,0.602l-0.352,0.905L94.235-22.5l-0.128,0.108l-0.696,0.683l-0.338,0.338l-0.412,0.317
		L91.938-20.5l-0.912,0.629l-0.312,0.229l-0.337,0.229l-0.324,0.142l-0.392,0.183l-0.433,0.236l-0.555,0.412l-0.715,0.622
		l-0.447,0.432l-0.458,0.446l-0.149,0.175l-0.041,0.115l0.015,0.196l0.054,0.29l0.013,0.426l-0.04,0.331l-0.142,0.358l-0.183,0.331
		l-0.324,0.276l-0.392,0.264l-0.29,0.102l-0.345,0.169l-0.243,0.067l-0.217-0.007l-0.203-0.067l-0.175-0.108l-0.148-0.142
		l-0.142-0.317l-0.062-0.142l-0.107-0.081l-0.149-0.048l-0.182,0.014l-0.467,0.088l-0.324,0.027l-0.284,0.088l-0.513,0.054
		l-0.763-0.041l-0.71-0.081l-0.905-0.182l-0.176-0.048l-0.433-0.122l-0.216-0.054l-0.142-0.081l-0.142-0.155l-0.137-0.095
		l-0.147-0.054L78.116-15.4l-0.142,0.054l-0.23,0.095l-0.12,0.034l-0.149-0.007l-0.135-0.081l-0.189-0.061l-0.143,0.014
		l-0.168,0.073l-0.352,0.115l-0.5,0.128L75.576-14.9l-0.169,0.115l-0.041,0.081l0.027,0.067l0.142,0.088l0.129,0.067v0.04
		l-0.026,0.054l-0.183,0.108l-0.372,0.148l-0.324,0.196l-0.378,0.196l-0.284,0.148l-0.27,0.107l-0.379,0.149l-0.304,0.135
		l-0.25,0.189l-0.122,0.115l-0.183,0.209l-0.142,0.229l-0.094,0.074l-0.19,0.095l-0.357,0.108l-0.777,0.101L70.8-12.029
		l-0.129,0.095l-0.04,0.122l0.06,0.188L70.8-11.38l0.101,0.25l0.142,0.257l0.149,0.202l0.148,0.217l0.04,0.107l-0.013,0.055
		l-0.041,0.047l-0.176,0.115l-0.276,0.148l-0.372,0.169l-0.297,0.229l-0.189,0.271l-0.121,0.189l-0.149,0.311L69.651-8.57
		l-0.066,0.216l0.013,0.305l0.081,0.229l0.148,0.195l0.096,0.162l0.147,0.169l0.148,0.129l0.257,0.229l0.081,0.142l0.041,0.102
		l0.047,0.183l-0.02,0.114L70.61-6.293l-0.094,0.271l-0.142,0.372l-0.169,0.533l-0.014,0.52l0.074,0.622l0.026,0.277l0.055,0.175
		l0.074,0.264l0.068,0.567l0.013,0.486l0.061,0.305l0.196,0.533l0.027,0.095l-0.027,0.148l-0.088,0.257l-0.013,0.445l0.06,0.324
		l0.095,0.237l0.135,0.257l0.041,0.29l-0.026,0.108l-0.096,0.108l-0.242,0.169l-0.365,0.202L69.881,1.53l-0.385,0.243l-0.264,0.27
		l-0.189,0.345l-0.142,0.312l-0.196,0.554l-0.148,0.25l-0.148,0.243l0.026,0.324L68.34,4.448L68.334,4.86v0.203l-0.054,0.331v0.371
		l0.02,0.203l0.061,0.135l0.102,0.041l0.426,0.081l0.452,0.02l0.582-0.006l0.154-0.014l-0.115,0.102l-0.405,0.398l-0.27,0.283
		L69.131,7.3l-0.243,0.257l-0.25,0.229l-0.149,0.148l-0.168,0.189l-0.723,0.871l-0.527,0.438l-0.52,0.514l-0.852,1l-0.439,0.412
		l-0.581,0.554l-0.352,0.298l-0.852,0.966l-0.283,0.29l-0.412,0.453l-1.405,1.438l-0.71,0.724l-1.904,1.756l-0.29,0.284
		l-2.155,1.966l-1.23,1.257l-0.432,0.466l-1.54,1.581l-1.027,1.054l-1.283,1.352L50.505,26.1l-1.945,2.02l-1.77,1.872l-0.688,0.682
		l-1.568,1.628l-0.675,0.71l-1.04,1.088l-0.724,0.769l-0.541,0.636l-0.101-0.04l-0.79-0.379l-1.588-0.723l-1.946-0.911l-0.884-0.372
		l-1.791-0.852l-1.621-0.797l-0.791-0.365l-1.871-0.878l-2.04-1l-1.581-0.723l-2.158-1l-1.063-0.521l-1.757-0.783l-1.875-0.912
		l-0.601-0.291l-1.959-0.911l-2.422-1.122l-0.608-0.25l-0.976-0.452l-2.351-1.094l-1.017-0.501l-0.672-0.283l1.3-0.655l1.729-0.939
		l0.727-0.398l1.419-0.723l2.04-1.067l1.841-0.953l1.55-0.824l1.169-0.567l1.148-0.607l1.743-0.953l1.51-0.837l0.932-0.507
		l1.568-0.818l0.851-0.459l-0.061-0.067l-0.683-0.858l-1.047-1.397l-0.324-0.405l-1.379-1.798L24.399,4.53l-1.3-1.71l-1.257-1.621
		l-1.01-1.298l-0.97-1.235l-0.381-0.46l-1.307-1.79l-0.905-1.107L16.12-6.111L15.691-6.74l-1.452-1.911l-1.598-2.088l-1.452-1.905
		l-0.229-0.297l-0.365-0.5l-0.23-0.202l-0.388-0.433l-0.47-0.581l-0.138,0.061l-0.845,0.453l-2.179,1.128l-1.651,0.871l-2.547,1.352
		l-1.446,0.736l-2.138,1.128l-1.355,0.716l-2.374,1.236l-1.122,0.602L-8.68-5.131l-0.905,0.5l-2.449,1.263l-1.253,0.629
		l-1.293,0.695l-0.79,0.439l-0.26-0.311l-1.128-1.304l-0.922-1.095l-0.878-0.973l-0.297-0.364l-0.24-0.291l-0.125-0.041
		l-0.145,0.014l-0.297,0.183l-0.824,0.581l-0.52,0.271l-0.72,0.337l-1.003,0.474l-0.338,0.067l-0.145-0.027l-0.146-0.074
		l-0.318-0.29l-0.733-0.615l-0.381-0.195l-0.098-0.008l-0.081,0.048l-0.243,0.433l-0.257,0.479l-0.108,0.338l0.034,0.074
		l0.291,0.142l0.463,0.148l0.679,0.243l0.547,0.244l0.311,0.148l0.324,0.229l0.463,0.412l0.672,0.688l0.554,0.717l0.449,0.688
		l0.814,1.007l-0.115,0.054l-0.817,0.433l-3.148,1.635l-2.263,1.203l-1.922,0.999l-1.412,0.737l-1.625,0.878l-1.348,0.709
		l-1.239,0.642l-1.28,0.669l-1.3,0.702l-1.341,0.71l-1.024,0.547l-0.942,0.5l-0.821,0.46l-0.119-0.129l-0.909-1.142l-0.76-1.026
		l-2.648-3.364l-0.753-1.055l-2.506-3.215l-1.308-1.683l-0.243-0.324l-1.52-1.952l-0.666-0.838l-2.587-3.297l-0.821-1.047
		l-2.547-3.257l-0.929-1.209l-2.33-2.985l-1.527-1.946l-1.385-1.871l-0.817-1.04l-1.875-2.412l-0.371-0.432l-0.47-0.629
		l-0.429-0.595l-0.52-0.648l-0.429-0.561l-0.297-0.357l0.291-0.034l0.396-0.041L-68-25.52l0.699-0.074l0.949-0.102l1.203-0.107
		l1.017-0.183l0.666-0.142l0.523-0.142l0.493-0.155l0.429-0.082l0.49-0.107l0.104-0.075l0.146-0.08l0.047-0.224l0.084-0.452
		l0.172-0.574l0.186-0.399l0.189-0.364l0.523-0.561l0.784-0.595l0.503-0.331l0.706-0.257l0.719-0.128l0.429-0.047l0.284,0.026
		l0.581,0.162l0.817,0.223l0.544,0.088l0.453,0.082l0.345-0.034l0.732-0.115l0.72-0.25l0.476-0.095l0.284-0.014l0.514,0.034
		l0.655,0.088l0.604,0.041l0.331,0.026l0.568-0.021l0.719-0.094l0.719-0.189l0.378-0.061l0.618-0.115l0.628-0.135l0.237-0.074
		l0.087-0.074l0.051-0.102l0.061-0.189l0.034-0.183l0.132-0.276l0.196-0.318l0.358-0.304l0.354-0.162l0.324-0.095l0.372-0.128
		l0.507-0.088l0.381-0.054l0.345,0.02l0.283-0.02h0.429l0.311,0.006h0.375l0.199-0.02l0.284-0.041l0.429-0.095l0.223-0.087
		l0.152-0.088l1.195-1.467l1.584-0.776l-0.638-2.426l-0.885-0.195l-1.148-0.129l-0.608-0.378l-0.767,0.081l-5.658-0.777l-1.01-0.229
		l-0.591-0.466l-1.706-1.324l0.628-0.291l0.976-0.316l0.622-0.669l0.395-0.574l-0.284-0.717l-2.31,0.703l-1.372,0.702l-1.486,0.223
		l-0.936-0.371l-0.719-1.621l-0.814-0.574l-1.3-0.142l-0.632,0.236l-0.986,0.02l0.192,0.798l-0.429,0.628l-1.202,0.628l-0.611-0.107
		l-0.166-0.595l-0.808-0.095l-0.976,0.298l-0.783,0.209l-0.933,0.189l-0.773-0.229l-0.604-2.034l-1.625-2.276l1.398-1.297
		l0.192-0.777l0.429-0.857l0.402-0.683l0.845-0.811l0.814-0.845l0.72-0.608l0.375-0.506l0.602-0.655l1.017,0.385l0.479,0.352
		l1.534,0.845l0.878,0.061l0.429-0.379l0.601-0.709l0.541-0.622l0.672-0.668l0.858-1.108l0.429-0.885l0.588-0.764l0.131-0.709
		l0.483-2.432l-3.506,0.371l-0.594,0.264l-1.054-0.067l-0.878-0.176l-0.338-0.507l0.041-1.54l-0.837-0.521l-1.301,0.081
		l-2.648,2.128l-0.706-0.102l-0.831-0.014l-1.534-0.392l-0.071-0.169l-0.219-0.114l-0.098-0.189l-0.331-0.074l-0.209,0.067
		l-0.206,0.236l-0.152,0.176l-0.23,0.121l-0.29,0.122l-0.139,0.115l-0.25,0.202l-0.027,0.108l-0.034,0.142l-0.172,0.115
		l-0.146,0.148l-0.027,0.081l-0.007,0.074l-0.007,0.229l0.054,0.217l-0.014,0.128l-0.118,0.102l-0.145,0.142l-0.311,0.183
		l-0.084,0.054l-0.068,0.081l-0.02,0.108l-0.031,0.128l0.098,0.163l0.146,0.276l0.304,0.169l0.203,0.195l0.108,0.17l0.23,0.209
		l0.317,0.324l0.166,0.29l0.138,0.277l0.146,0.392l0.125,0.358l-0.054,0.311l-0.051,0.284l0.044,0.243l0.088,0.155l0.078,0.148
		l0.02,0.108l-0.145,0.169l-0.206,0.195l-0.132,0.088l-0.25,0.162l-0.223,0.183l-0.152,0.128l-0.192,0.129l-0.7-0.155l-0.429-0.345
		l-0.145-0.554l0.041-0.602l-0.146-0.723l0.038-0.541l-0.038-0.54l-0.247-0.284l-0.375-0.29l-0.726-0.061l-1.004-0.939l-0.614-0.594
		l-0.429-1.473l-1.01-3.034l-1.037-1.554l-0.976-0.378l-1.676-0.088l-0.713-0.595l-2.026-1.195l-1.293-1.926l-2.108-1.271
		l-1.246-0.668l-1.868-0.602l-1.246-0.088l-1.521,0.662l-1.327,1.095l-1.162,0.952l-0.547,1.845l-1.635,3.506l0.72,1.114
		l1.135,0.886l2.02,1.054l0.507,0.743l-1.932,0.574l-1.672-0.007l-3.895-0.108l-0.625,0.291l-1.581,0.142h-0.99l-1.3-0.527
		l-1.155,0.142l-1.419,0.365l-0.719,1.243l-0.027,1.771l0.253,1.33l0.341,1.034l1.756,1.635l0.773,1.405l0.152,1.256l0.25,1.108
		l1.3,0.824l0.608,0.736l0.098,0.885l-1.003,0.723l-1.247,0.878l-0.186,1.331l0.25,0.886l1.3,2.594l0.358,1.182l-1.003,0.42
		l-1.777,0.432l0.152,1.324l1.503,0.824l2.445,0.311l2.679,0.311l0.885-0.29l0.098-0.439l-0.332-1.628l-0.162-1.256l0.183-0.291
		l2.283,1.188l0.76,1.115l0.145,1.547l0.237,2.514l0.587,3.175l-0.196,0.959l1.148-0.067l2.158-1.824l1.405,0.224l0.713,0.817
		l0.257,1.182l-0.021,1.183l0.425,0.371l0.514,1.405l-0.179,1.107l-0.224,0.318l-0.428,0.358l-0.669,0.79h-0.852l-1.26,0.04
		l-0.105,0.075l-0.087,0.073h-0.237l-0.78,0.196l-1.04,0.148l-0.733,0.088l-0.318,0.189l0.146,0.736l0.223,0.851v0.345v0.345
		l-0.05,0.392v0.189l0.145,0.229l0.381,0.034l0.443-0.115l0.331-0.04l0.277-0.041l0.159,0.115l0.396,0.385l0.811,1.276l0.233,0.345
		l0.277,0.23l0.229,0.385l0.047,0.385l0.172,0.54l0.146,0.393l-0.095,0.655l-0.057,0.729l-0.264,0.466l-0.115,0.574l-0.058,0.696
		l0.335,0.973l0.115,0.926l-0.456,2.391l-0.146,0.541l-0.061,0.378l0.561,0.162l0.726,0.034h0.416l0.959-0.264l0.949-0.263
		l0.663,0.047l1.939,0.229l2.83-0.196l2.446,0.014l2.732-0.088l1.773,0.007l0.257-0.067l0.145-0.081l0.291-0.148l0.291-0.142
		l0.405-0.196l0.328-0.128l0.331-0.237l0.179-0.148l0.145-0.102l0.166-0.142l0.118-0.067h0.146l0.159-0.014l0.146,0.027l0.145,0.014
		l0.139,0.047l0.118,0.081l0.146,0.095l0.078,0.061l0.054,0.088l0.027,0.055v0.08l-0.021,0.088L-70-7.718l-0.145,0.148l-0.277,0.162
		l-0.115,0.067l-0.037,0.148l-0.006,0.095l0.05,0.101l0.074,0.068l0.146,0.074l0.145,0.054l0.243,0.048l0.227,0.013l0.334,0.027
		l0.22,0.034l0.146,0.034l0.058,0.04l0.047,0.04v0.055l-0.067,0.04l-0.139,0.048l-0.182,0.026l-0.139,0.041l-0.095,0.061
		l-0.044,0.081v0.102l0.014,0.081l0.024,0.054l0.02,0.034v0.054l-0.078,0.048l-0.074,0.101l-0.139,0.176l-0.334,0.189l-0.324,0.216
		l-0.24,0.176l-0.236,0.088l-0.23,0.048h-0.192l-0.172,0.006l-0.146,0.021l-0.145,0.027l-0.111,0.04l-0.145,0.095l-0.237,0.176
		l-0.858,0.648l-0.206,0.088l-0.277,0.236l-0.132,0.034l-0.081,0.067L-73.915-3.3l0.105,0.142l0.047,0.128l0.044,0.162v0.21
		l-0.01,0.264l-0.034,0.101l0.014,0.048h0.071h0.088l0.146,0.054l0.104,0.081l0.125,0.136l0.104,0.101l0.088,0.055l0.145,0.026
		l0.132,0.021l0.132,0.047l0.064,0.068l0.027,0.081l0.047,0.094l0.091,0.088l0.105,0.068l0.142,0.074l0.216,0.04l0.27,0.149
		l0.416,0.263l0.51,0.493l0.257,0.291l0.098,0.236l0.061,0.128l0.006,0.223l-0.02,0.21l-0.047,0.202l-0.044,0.177l-0.311,0.337
		l-0.139,0.108l-0.054,0.088l0.078,0.014l0.165-0.034l0.284,0.014l0.213,0.027l0.23,0.067l0.146,0.014l0.297-0.021l0.159,0.034
		l0.145,0.013l0.227-0.013l0.169,0.054l0.145,0.102l0.139,0.107l0.082,0.108l0.027,0.121l0.006,0.102v0.115l0.007,0.081l0.031,0.094
		l0.145,0.115l0.145,0.062l0.207,0.094l0.381,0.162l0.152,0.075l0.277,0.195l0.146,0.122l0.081,0.074l0.037,0.088l0.027,0.094v0.143
		l-0.027,0.142l-0.139,0.445l-0.043,0.108l-0.007,0.081l0.091,0.095l0.172,0.155l0.027,0.074l0.043,0.095l-0.01,0.095l-0.061,0.115
		l-0.118,0.148l-0.145,0.229l-0.111,0.236l-0.146,0.291l-0.034,0.114l-0.139,0.196l-0.094,0.088l-0.051,0.107l-0.021,0.129
		l-0.021,0.142l-0.033,0.115l-0.064,0.095l-0.159,0.121l-0.145,0.074l-0.207,0.041l-0.044,0.027l-0.041,0.073l0.051,0.062
		l0.067,0.148l0.034,0.183l0.139,0.175l0.304,0.298l0.304,0.311l0.104,0.21l0.071,0.148l0.061,0.107l0.007,0.136l-0.007,0.142
		l-0.061,0.142v0.305l0.021,0.095l0.054,0.128l-0.013,0.115l-0.014,0.095l-0.132,0.161l-0.223,0.23l-0.166,0.29l-0.146,0.277
		l-0.138,0.257l-0.115,0.209l-0.051,0.095l-0.013,0.081l-0.028,0.088l-0.084,0.148l-0.125,0.203l-0.206,0.195l-0.105,0.143
		l-0.006,0.107l0.044,0.115l0.094,0.128l0.125,0.108l0.146,0.169l0.146,0.061l0.138,0.014l0.146-0.108l0.098-0.026l0.145,0.006
		l0.166,0.034l0.131,0.034l0.145,0.007l0.146,0.021l0.132,0.08l0.139,0.088l0.125,0.257l0.179,0.224l0.145,0.209l0.192,0.142
		l0.146,0.062l0.264,0.026l0.199-0.021l0.216-0.04l0.331-0.162l0.331-0.081l0.277-0.014l0.348,0.021l0.166,0.04l0.131,0.041
		l0.152,0.081l0.236,0.033h0.138l0.146-0.04l0.122-0.007h0.139l0.098,0.095l0.084,0.054l0.172,0.196l0.145,0.223l0.193,0.257
		l0.111,0.088h0.139l0.145-0.041l0.199-0.047l0.25-0.067l0.541-0.108l0.219-0.034l0.091,0.081l0.027,0.155v0.169l0.064,0.183
		l0.061,0.148l0.132,0.143l0.098,0.081L-59.876,16l0.115,0.156l0.131,0.183l0.119,0.263l0.084,0.21l0.034,0.108l0.139,0.06
		l0.074,0.014L-59.096,17l0.054,0.088l0.044,0.088l0.027,0.081l0.047,0.027l0.146,0.027l0.111,0.107l0.138,0.176l0.091,0.102
		l0.2,0.115l0.145,0.061l0.145,0.026l0.193,0.041l0.104,0.095l0.021,0.088l0.057,0.107l0.054,0.122l0.199,0.142l0.189,0.155
		l-0.024,0.196l-0.135,0.264l-0.064,0.276l0.027,0.325l0.243,0.135l0.199,0.128l0.119,0.318l-0.007,0.283l-0.013,0.243l-0.067,0.243
		l-0.058,0.25v0.271l-0.146,0.277l-0.179,0.154l-0.146,0.169l-0.158,0.277l-0.264,0.243l-0.007,0.148l0.041,0.115l0.084,0.088
		l0.146,0.021l0.145,0.047l0.047,0.048l0.034,0.054l0.058,0.088l0.054,0.067l0.118,0.054l0.068,0.027h0.145l0.084-0.027l0.132-0.074
		l0.081-0.041l0.064-0.013h0.067l0.132,0.02l0.125,0.129l0.111,0.128l0.199,0.096l0.23,0.12l0.331,0.075l0.179,0.054l0.148,0.143
		l0.172,0.073l0.213,0.048l0.189,0.048h0.179l0.199-0.081l0.146-0.129l0.172-0.047l0.145,0.02l0.132,0.095l0.071,0.095l0.125,0.048
		l0.108,0.033l0.175,0.027l0.24,0.061l0.064,0.055l0.145,0.061l0.088,0.033l0.118,0.026l0.111-0.013l0.318-0.041l0.236,0.007
		l0.263-0.026h0.115l0.139-0.007l0.146-0.014h0.104h0.145l0.071,0.021l0.061,0.033l0.014,0.067l0.054,0.143l0.017,0.108l0.034,0.107
		l0.081,0.095l0.051,0.014h0.074l0.139-0.034l0.125-0.047l0.145-0.041l0.368-0.115l0.166-0.006l0.158,0.014l0.199,0.04l0.166,0.021
		l0.145,0.122l0.216,0.142l0.091,0.101l0.041,0.115l0.146,0.216l0.152,0.095l0.125,0.041l0.146,0.013l0.146,0.048l0.111,0.055
		l0.102,0.094l0.188,0.088l0.136-0.007l0.104-0.013l0.078-0.021l0.088-0.027l0.111-0.033l0.071,0.013l0.138,0.034l0.067,0.073
		l0.098,0.122l0.034,0.108l-0.007,0.122v0.114l0.139,0.108l0.131,0.014l0.152-0.014l0.146,0.014l0.146,0.061l0.054,0.061
		l0.084,0.129l0.146,0.047l0.263-0.021l0.082-0.014l0.131-0.013l0.111-0.007l0.084,0.054v0.129l0.014,0.175l0.061,0.095l0.146,0.075
		l0.271,0.033l0.25-0.081l0.267-0.074l0.148-0.007l0.166,0.007l0.139,0.067l0.068,0.082v0.101l0.033,0.148l0.119,0.223l0.125,0.128
		l0.034,0.19l0.091,0.223l0.067,0.223l0.051,0.155l0.034,0.088l0.098,0.081l0.114,0.041l0.146,0.033l0.229,0.055l0.146,0.095
		l0.084,0.094l0.146,0.271l0.145,0.209l0.095,0.196l0.145,0.129l0.139,0.061l0.145,0.147l0.071,0.137l0.061,0.311l0.013,0.371
		l-0.088,0.338l0.034,0.304l0.132,0.196l0.098,0.21l0.047,0.195l0.041,0.135l0.145,0.108l0.048,0.073l0.01,0.048l0.027,0.062
		l-0.027,0.054l-0.138,0.196l0.027,0.161l0.102,0.081l0.118,0.055l0.112,0.033l0.139,0.096l0.04,0.08l0.209,0.102l0.095,0.026h0.091
		l0.071-0.026l0.128-0.047l0.044-0.014l0.067-0.014l0.058-0.034h0.054l0.054-0.013l0.098-0.014l0.047,0.007l0.044,0.007l0.115,0.02
		l0.091,0.041l0.131,0.061l0.111,0.108l0.021,0.067l-0.021,0.095l-0.044,0.182l0.031,0.103l0.061,0.088l0.098,0.047l0.152,0.129
		l0.027,0.06l0.034,0.081l0.058,0.088l0.034,0.075l0.098,0.114l0.06,0.094l0.146,0.096l0.098,0.101l0.013,0.028v0.006l-0.084,0.067
		l-0.06,0.108l-0.064,0.129l0.013,0.04l0.037,0.034l0.132,0.04l0.095,0.027l0.145,0.047l0.071,0.027l0.027,0.04v0.027l-0.047,0.055
		l-0.071,0.094l-0.054,0.115l0.047,0.048l0.091,0.066h0.047l0.084-0.026l0.146-0.088l0.199-0.081l0.007-0.115h0.25l0.186,0.041
		l0.263,0.088l0.25,0.081l0.145,0.094l-0.091,0.014l-0.382,0.088l-0.233,0.062l-0.429,0.061l-0.588,0.169l-0.5,0.223l-1.368,0.526
		l-0.943,0.338l-0.773,0.311l-1.122,0.555l-0.595,0.243l-0.898,0.486l-0.084,0.081l-0.125,0.088l-0.118,0.074l-0.213,0.114
		l-2.456,0.353l-1.868,0.438l-2.817-0.75l-1.874-0.081l-3.706,1.243l-4.506,1.904l-1.584,0.514l-0.979,0.075l-1.675-0.379
		l-2.013,0.291l-1.247,0.507l-1.071,0.81l-1.24,0.514l-1.506,0.291l-1.155,0.885l-1.676,0.426l-1.941,0.365l-1.773,0.722
		l-0.72,0.893l-0.425,1.263l0.425,1.852l-0.013,1.561l-1.257,2.479l-0.183,1.703l0.514,2.452l0.52,1.614l-1.419,0.669h-1.307
		l-0.878-0.743l-0.882-1.404l-0.358-0.143l-0.719,2.142l-0.507,0.865l-0.297,0.607l-0.145,0.25l-0.213,0.148h-0.084h-0.088h-0.078
		h-0.074h-0.473h-0.081h-0.071h-0.075l-0.077,0.014l-0.067,0.007l-0.071,0.014l-0.068,0.007l-0.077,0.006l-0.088,0.015l-0.071,0.013
		l-0.067,0.014l-0.098,0.021l-0.084,0.02l-0.075,0.028l-0.091,0.026l-0.095,0.014l-0.078,0.026l-0.082,0.027l-0.104,0.034
		l-0.098,0.034l-0.088,0.033l-0.111,0.033l-0.119,0.034l-0.111,0.041l-0.138,0.04l-0.132,0.061l-0.146,0.048l-0.145,0.055
		l-0.159,0.047l-0.146,0.061l-0.145,0.081l-0.145,0.054l-0.152,0.068l-0.145,0.073l-0.146,0.068l-0.145,0.081l-0.146,0.066
		l-0.145,0.075l-0.139,0.067l-0.131,0.067l-0.139,0.068l-0.111,0.033l-0.121,0.055l-0.084,0.047l-0.098,0.054l-0.102,0.054
		l-0.071,0.034l-0.081,0.047l-0.091,0.041l-0.091,0.04l-0.082,0.041l-0.077,0.054l-0.105,0.041l-0.075,0.055l-0.084,0.047
		l-0.067,0.047l-0.091,0.067l-0.068,0.055l-0.071,0.054l-0.081,0.061l-0.084,0.068l-0.074,0.081l-0.071,0.066l-0.087,0.081
		l-0.084,0.082l-0.085,0.087l-0.087,0.095l-0.098,0.088l-0.075,0.088l-0.098,0.095l-0.105,0.108l0.047,0.115l-0.081,0.094
		l-0.091,0.114l-0.108,0.122l-0.078,0.108l-0.091,0.135l-0.095,0.115l-0.091,0.121l-0.075,0.122l-0.064,0.115l-0.081,0.121
		l-0.064,0.102l-0.054,0.115l-0.064,0.121l-0.061,0.121l-0.057,0.129l-0.074,0.135l-0.061,0.149l-0.078,0.142l-0.145,0.345
		l-0.078,0.169l-0.081,0.175l-0.098,0.148l-0.074,0.156l-0.071,0.142l-0.068,0.143l-0.064,0.114l-0.04,0.121l-0.041,0.095
		l-0.037,0.088l-0.034,0.074l-0.027,0.075l-0.013,0.054l-0.014,0.027l-0.014,0.054l-0.013,0.047v0.047v0.048v0.04l0.006,0.041
		l0.007,0.061l0.014,0.055l0.006,0.066l0.021,0.068l0.014,0.067l0.013,0.074l0.014,0.074l0.014,0.061l0.017,0.054l0.007,0.062
		l0.013,0.048l0.007,0.047l0.007,0.04l0.006,0.041l0.007,0.027v0.04l0.013,0.027v0.033l0.007,0.034v0.041l-0.007,0.033l-0.013,0.04
		l-0.014-0.006l0.02,0.04l-0.02,0.041l-0.034,0.04l-0.037,0.041l-0.047,0.047l-0.054,0.041l-0.064,0.04l-0.074,0.054l-0.071,0.048
		l-0.068,0.04l-0.098,0.048l-0.091,0.067l-0.088,0.054l-0.104,0.054l-0.104,0.055l-0.095,0.055l-0.077,0.054l-0.111,0.054
		l-0.082,0.047l-0.084,0.055l-0.104,0.047l-0.074,0.055l-0.078,0.04l-0.061,0.041l-0.084,0.04l-0.047,0.041l-0.041,0.047
		l-0.05,0.034l-0.034,0.033l-0.027,0.04l-0.027,0.041l-0.034,0.027l-0.05,0.041l-0.027,0.026l-0.034,0.048l-0.044,0.04l-0.041,0.055
		l-0.047,0.054l-0.054,0.054l-0.078,0.055l-0.047,0.054l-0.071,0.073l-0.098,0.068l-0.102,0.081l-0.098,0.088l-0.119,0.095
		l-0.111,0.094l-0.102,0.088l-0.111,0.096l-0.091,0.08l-0.082,0.081l-0.077,0.088l-0.088,0.081l-0.064,0.081l-0.047,0.068
		l-0.048,0.073l-0.044,0.068l-0.033,0.067l-0.021,0.048l-0.034,0.054l-0.024,0.067l-0.013,0.047l-0.007,0.055v0.054l-0.007,0.054
		v0.068l0.007,0.054v0.067l0.007,0.061l0.007,0.061l0.006,0.075l0.024,0.067l0.014,0.074l0.02,0.074l0.021,0.088l0.013,0.067
		l0.014,0.074l0.014,0.074l0.013,0.075l0.023,0.066l0.014,0.068l0.007,0.061l0.007,0.067v0.068v0.054l-0.007,0.054l-0.007,0.047
		l-0.014,0.062l-0.03,0.014l-0.014,0.054l-0.027,0.04l-0.02,0.055l-0.047,0.047l-0.044,0.062l-0.027,0.054l-0.054,0.054
		l-0.058,0.062l-0.054,0.061l-0.078,0.074l-0.081,0.081l-0.092,0.074l-0.081,0.095l-0.111,0.08l-0.112,0.096l-0.111,0.081
		l-0.095,0.08l-0.111,0.081l-0.125,0.081l-0.125,0.088l-0.118,0.082l-0.108,0.074l-0.119,0.081l-0.125,0.081l-0.125,0.074
		l-0.119,0.081l-0.102,0.088l-0.118,0.081l-0.105,0.067l-0.077,0.067l-0.108,0.081l-0.078,0.068l-0.074,0.054l-0.064,0.066
		l-0.068,0.055l-0.064,0.061l-0.04,0.054l-0.041,0.048l-0.038,0.067l-0.034,0.061l-0.027,0.068l-0.054,0.067l-0.03,0.067
		l-0.034,0.068l-0.027,0.081l-0.027,0.073l-0.034,0.068l-0.031,0.066l-0.027,0.082l-0.027,0.074l-0.047,0.081l-0.037,0.074
		l-0.027,0.095l-0.027,0.067l-0.027,0.081l-0.041,0.095l-0.038,0.102l-0.047,0.114l-0.047,0.108l-0.044,0.122l-0.047,0.135
		l-0.054,0.128l-0.057,0.148l-0.061,0.142l-0.078,0.149l-0.054,0.142l-0.078,0.142l-0.067,0.136l-0.091,0.148l-0.068,0.142
		l-0.078,0.135l-0.074,0.129l-0.091,0.121l-0.068,0.129l-0.071,0.108l-0.067,0.114l-0.058,0.041l-0.061,0.094l-0.054,0.096
		l-0.064,0.088l-0.047,0.081l-0.05,0.067l-0.048,0.067l-0.027,0.073l-0.027,0.068l-0.021,0.054l-0.031,0.068l-0.02,0.066
		l-0.021,0.075l-0.014,0.067l-0.02,0.074l-0.014,0.081l-0.021,0.081l-0.03,0.068l-0.014,0.081l-0.02,0.08l-0.021,0.074l-0.027,0.068
		l-0.027,0.061l-0.03,0.074l-0.034,0.061l-0.033,0.068l-0.041,0.061l-0.058,0.067l-0.034,0.061l-0.054,0.062l-0.051,0.066
		l-0.061,0.068l-0.078,0.067l-0.061,0.074l-0.084,0.054l-0.081,0.074l-0.104,0.068l-0.105,0.067l-0.108,0.054l-0.125,0.067
		l-0.118,0.067l-0.139,0.062l-0.112,0.067l-0.125,0.055l-0.125,0.066l-0.095,0.068l-0.111,0.061l-0.098,0.067l-0.082,0.054
		l-0.091,0.075l-0.082,0.061l-0.071,0.074l-0.068,0.054l-0.077,0.068l-0.075,0.073l0.014-0.013l-0.05,0.067l-0.055,0.067
		l-0.057,0.067l-0.041,0.074l-0.047,0.067l-0.027,0.055l-0.014,0.067l-0.014,0.061l-0.017,0.068v0.066v0.055v0.067l0.007,0.074
		l0.01,0.067l0.014,0.081l0.014,0.074l0.014,0.082l0.014,0.081l0.013,0.081l0.02,0.088l0.027,0.081l0.021,0.095l0.023,0.087
		l0.027,0.054l0.013,0.095l0.007,0.095l0.013,0.095l0.006,0.088v0.081l0.007,0.095l-0.007,0.088v0.067v0.081l-0.006,0.081
		l-0.007,0.074v0.067l-0.006,0.062v0.061v0.054l0.006,0.048l0.007,0.054l0.006,0.041l0.014,0.047l0.014,0.047l0.013,0.034
		l0.014,0.041l0.03,0.04l0.027,0.04l0.027,0.041l0.054,0.048l0.058,0.061l0.027,0.006l0.054,0.068l0.057,0.054l0.068,0.074
		l0.098,0.081l0.075,0.081l0.091,0.095l0.111,0.102l0.111,0.107l0.102,0.108l0.145,0.115l0.125,0.121l0.145,0.122l0.132,0.128
		l0.146,0.122l0.138,0.128l0.146,0.107l0.125,0.122l0.132,0.103l0.118,0.101l0.102,0.088l0.105,0.088l0.098,0.067l0.075,0.081
		l0.077,0.067l0.067,0.061l0.051,0.055l0.047,0.054l0.034,0.067l0.027,0.055l0.023,0.061l0.027,0.054l0.014,0.055l0.02,0.073
		l0.013,0.068l0.014,0.081l0.014,0.067l0.007,0.095l0.014,0.08l0.01,0.088l0.007,0.088v0.081l-0.007,0.082l-0.01,0.067l-0.014,0.081
		l-0.007,0.067l-0.061-0.02l-0.014,0.066l-0.007,0.068l-0.014,0.061l-0.023,0.074L-106.159,96l-0.02,0.068l-0.014,0.067
		l-0.014,0.074l-0.007,0.067l-0.013,0.067l-0.007,0.062l-0.02,0.147l-0.013,0.068l-0.014,0.054l-0.007,0.074l-0.017,0.048
		l-0.02,0.054l-0.007,0.054l-0.014,0.041l-0.013,0.033l-0.014,0.027l-0.02,0.021l-0.041,0.027l-0.03,0.02l-0.041,0.015l-0.047,0.02
		l-0.058,0.013l-0.067,0.015l-0.084,0.013l-0.068,0.014l-0.084,0.027l-0.104,0.013l-0.082,0.015l-0.098,0.013l-0.111,0.014
		l-0.088,0.021l-0.078,0.007l-0.118,0.014l-0.088,0.021l-0.091,0.02l-0.125,0.014l-0.095,0.014l-0.104,0.014l-0.118,0.013
		l-0.081,0.015l-0.091,0.013l-0.091,0.007h-0.075l-0.077,0.014h-0.055l-0.091,0.014h-0.047h-0.041h-0.044h-0.034l-0.027-0.014h-0.02
		l-0.058-0.014l-0.034-0.013l-0.034-0.015l-0.034-0.013l-0.044-0.014l-0.034-0.015l-0.047-0.032l-0.071-0.027l-0.067-0.027
		l-0.064-0.033l-0.075-0.041l-0.077-0.04l-0.088-0.054l-0.091-0.049l-0.082-0.047l-0.118-0.054l-0.084-0.041l-0.105-0.054
		l-0.115-0.047l-0.091-0.048l-0.099-0.055l-0.101-0.047l-0.084-0.041l-0.075-0.026l-0.078-0.04l-0.091-0.014l-0.041-0.014
		l-0.041-0.014l-0.057-0.013l-0.041-0.008l-0.054-0.007h-0.051h-0.034h-0.027h-0.034h-0.043l-0.034,0.007l-0.041,0.008l-0.047,0.006
		l-0.044,0.014l-0.033,0.014l-0.041,0.021l-0.057,0.013l-0.047,0.027l-0.061,0.026l-0.058,0.028l0.416,0.027l-0.054,0.026
		l-0.058,0.027l-0.067,0.04l-0.057,0.027l-0.068,0.026l-0.061,0.027l-0.071,0.026l-0.091,0.027l-0.074,0.034l-0.078,0.026
		l0.271,0.034l-0.095,0.034l-0.104,0.04l-0.091,0.041l-0.101,0.026l-0.104,0.027l-0.098,0.027l-0.111,0.026l-0.088,0.008
		l-0.111,0.02l-0.098,0.014l-0.108,0.014l-0.098,0.007l-0.091,0.007l-0.102,0.013l-0.084,0.015l-0.071,0.02l-0.068,0.014
		l-0.068,0.014l-0.064,0.014l-0.047,0.013l-0.05,0.027l-0.027,0.007l-0.034,0.027l-0.041,0.026l-0.037,0.021l-0.027,0.026
		l-0.02,0.028l-0.027,0.033l-0.007,0.048l-0.02,0.054l-0.021,0.04l-0.023,0.061l-0.014,0.062l-0.013,0.074l-0.014,0.067
		l-0.014,0.074l-0.013,0.082l-0.014,0.094l-0.014,0.081l-0.013,0.088l-0.006,0.102l-0.007,0.088l-0.013,0.102l-0.01,0.107
		l-0.007,0.095l-0.007,0.094l-0.013,0.103l-0.014,0.095l-0.013,0.087l-0.021,0.082l-0.02,0.094l-0.027,0.088l-0.03,0.088
		l-0.027,0.074l-0.047,0.088l-0.058,0.081l-0.041,0.095l-0.054,0.068l-0.051,0.08l-0.054,0.074l-0.075,0.088l-0.071,0.088
		l-0.084,0.081l-0.067,0.095l-0.098,0.081l-0.094,0.095l-0.084,0.102l-0.082,0.061l-0.104,0.101l-0.098,0.109l-0.118,0.094
		l-0.108,0.108l-0.112,0.121l-0.132,0.108l-0.111,0.115l-0.125,0.114l-0.132,0.129l-0.115,0.135l-0.098,0.108l-0.125,0.129
		l-0.105,0.128l-0.102,0.128l-0.111,0.129l-0.091,0.114l-0.091,0.122l-0.081,0.081l-0.078,0.101l-0.074,0.088l-0.057,0.088
		l-0.068,0.068l-0.041,0.067l-0.058,0.061l-0.033,0.054l-0.041,0.068l-0.014,0.047l-0.02,0.067l-0.017,0.062l-0.021,0.074v0.088
		l-0.007,0.107l-0.132,0.128l-0.159,0.352l-0.297,0.392l-0.648,0.764l-0.513,1.264l-0.72,2.067l-0.179,2.297l-0.361,0.878
		l-2.74,3.506l0.125,1.5L-121.937,118.813"/>
</g>
<g id="Layer_1_1_">
</g>
</svg>
