<?xml version="1.0" encoding="utf-8"?>
<!-- Generator: Adobe Illustrator 16.0.4, SVG Export Plug-In . SVG Version: 6.00 Build 0)  -->
<!DOCTYPE svg PUBLIC "-//W3C//DTD SVG 1.1//EN" "http://www.w3.org/Graphics/SVG/1.1/DTD/svg11.dtd">
<svg version="1.1" id="Layer_1" xmlns="http://www.w3.org/2000/svg" xmlns:xlink="http://www.w3.org/1999/xlink" x="0px" y="0px"
	 width="301.071px" height="207.064px" viewBox="-120.465 -82.649 301.071 207.064"
	 style="enable-background:new -120.465 -82.649 301.071 207.064;" xml:space="preserve">
<g id="Layer_82">
	<path id="Mansehra" style="fill:#CCCCCC;stroke:#FFFFFF;stroke-width:1.15;" d="M174.763-61.53L174.763-61.53l0.264-0.642
		l0.044-0.297v-0.805l-0.135-0.422l-0.527-0.638l-0.514-0.383l-0.469-0.086l-1.061-0.297l-0.718-0.383l-0.595-0.34l-0.811-0.465
		l-0.677-0.383l-0.34-0.508v-0.547l0.211-0.254l0.595-0.302l0.211-0.681l0.513-0.806v-0.556l-0.264-0.681l-0.273-0.551l-0.584-0.46
		l-0.537,0.422l-0.336,0.422l-0.854,0.513l-0.552,0.384l-0.887,0.086l-0.513-0.345l-0.921-0.547l-0.633-0.637l-0.862-0.259
		l-1.228-0.508l-0.93-0.043l-0.341,0.46l-0.259,0.384l-0.542,0.34l-0.896,0.125h-0.81l-1.189-0.125l-0.743-0.125l-0.858-0.34
		l-0.508,0.091l-0.513,0.378h-0.931l-0.594-0.254l-0.384-0.422l-0.974-0.887l-0.508-0.897l-0.72-1.021l-0.742-0.043l-1.064-0.292
		l-0.657-0.34l0.062-0.681l-0.379-0.681l-0.062-0.892l0.105-0.719l-0.682-0.13l-0.307,0.422l-0.043,0.551l-0.551,0.384h-0.59
		l-1.021-0.091h-0.896l-0.551,0.302l-0.245,0.153l-0.431,0.273l-0.815,0.508l-1.271,1.146l-1.021,0.508l-0.93,0.173l-0.911-0.158
		l-0.316,0.412l-0.427,0.58l-0.052,0.504l-0.016,0.158l0.355,1.285l0.187,0.873l-0.005,0.599l0.134,0.288l0.346,0.441l-0.278,0.613
		l-2.301,2.21l-0.575,0.292l-0.552,0.235l-0.445,0.431l-0.039,0.053l-0.033,0.019l-0.537,0.657l-0.906,0.599l-0.517,0.35
		l-2.023,1.683l-0.561,0.034l-0.858-0.029l-0.733-0.101l-0.739-0.254l-1.17-0.072l-0.925,0.129l-0.829,0.158l-0.613,0.125
		l-1.655,0.172l-1.945,0.197l-0.398,0.11l-0.297,0.072l-0.12,0.052l-0.791,0.882l-0.719,1.126l-0.806,0.7l-0.714,0.685l-0.288,0.437
		l-0.048,0.11l-0.101,0.868l-0.163,0.681l-0.01,0.403l0.221,1.337l0.062,0.355l0.125,0.426l0.058,0.207l-0.157,1.261l-0.447,0.762
		l-0.508,0.403l0.044,0.844l0.152,0.197l0.298,0.307l0.105,0.221l0.102,0.206l0.171,0.335l0.049,0.695l-0.067,0.557l-0.297,0.225
		l-0.24,0.192l-0.791,0.499l0.072,1.188l0.01,0.183l-0.336,0.849l-0.302,0.316l-2.325,2.052l-0.139,0.101l-0.384,0.259l-0.475,0.317
		l-0.235,0.134l-0.508,0.235l-0.427,0.086l-1.132-0.397l-0.335-0.178l-0.412-0.206l-1.204-0.374l-0.34-0.22l-0.542-0.475
		l-0.747-0.676l-2.153-1.524h-0.01l-0.014-0.005l-0.725,0.182l-0.974,0.714l-0.637,0.403l-0.72,0.101l-1.352-0.158l-1.257-0.292
		l-0.176,0.009l-0.629,0.086l-0.053,0.02l-0.34-0.039l-0.413-0.105l-0.445-0.207l-0.422-0.307l-0.849-0.153l-0.699,0.086
		l-0.763-0.058l-0.455-0.331l-0.336-0.345L90.574-45.7l-0.512-0.249l-0.494-0.058l-0.691,0.062l-0.595,0.048l-0.512,0.288
		l-0.394,0.417l-0.053,0.484l-0.105,0.421l-0.508,0.221l-0.95,0.009l-0.943,0.163l-0.662-0.096l-0.628-0.187l-0.7-0.134l-0.11,0.12
		l-0.302,0.316l-0.364,0.839v0.024l0.135,0.475l0.11,0.445l-0.063,0.7l-0.062,0.374l-0.316,0.475l-0.09-0.005l-0.021,0.029
		l-0.205,0.479l-0.476,0.777l-0.551,0.374l-0.47,0.422l-0.431,0.628l-0.029,0.029l-0.446,0.413l-0.168,0.163l-0.479,0.513
		l-0.833,0.254l-0.759,0.015l-0.493-0.101l-1.356-0.973l-0.134-0.015l-0.528-0.062l-0.163-0.019l-0.738-0.125l-0.819-1.754
		l-0.191-0.158l-0.067-0.082l-0.23-0.259l-0.316-0.346l-0.187-0.239l-0.015-0.015h-0.01l-0.023-0.053L71.01-40.59l-6.074,0.576
		l-2.34,0.216l-0.157,0.015l-0.062,0.494l-0.12,0.709l-0.13,0.638l-0.249,0.911l-0.455,0.422l-0.359,0.139l-0.518,0.115
		l-0.422,0.149l-0.196,0.034l-0.734-0.23l-0.651-0.407l-0.102,0.048l-0.475,0.393l-0.067,0.384l-0.042,0.173l-0.307,1.539
		l-0.629,0.609l-0.455,0.613l-0.23,0.58v0.129l-0.293,0.705l0.212,0.643l-0.048,0.686l-0.028,0.067l-0.375,1.088l-0.12,0.551
		l-0.1,0.148l-0.283,0.451l-0.36,0.417l-0.349,0.475l-0.336,0.446l-0.46,0.705l-0.265,0.293l-0.733,0.542l-0.402,0.206l-1.208,0.657
		l-0.115,0.057l-0.743,0.24l-1.017,0.053l-0.556,0.144l-0.307,0.086l-0.102,0.033l-0.819,0.412l-1.068,0.681l-0.682,0.523
		l-0.345,0.254l-0.168,0.11l-0.346,0.758l-0.579,0.264l-0.321,0.134l-0.446,0.402l-0.303,0.302l-0.325,0.375l0.307,0.575
		l0.058,0.216l0.053,0.206l0.216,0.614l0.105,0.556l0.105,0.638l0.101,0.408l0.01,0.456l0.043,0.445l0.105,0.407l0.302,0.446
		l-0.004,0.038l-0.235,0.604l-0.335,0.297l-0.682,0.221l-0.475,0.225l-0.402,0.197l-0.168,0.105l-0.738,0.427l-0.355,0.22
		l-0.402,0.292l-0.705,0.465l-0.579,0.365l-0.346,0.307l-0.33,0.307l-0.36,0.351l-0.249,0.34l-0.681,0.748l-0.509,0.71l-0.302,0.436
		l-0.397,0.374l-0.336,0.369L35.246-6.7l-0.681,0.422l-0.719,0.46l-0.509,0.316l-0.196,0.532L33.036-4.7l-0.158,0.474l-0.12,0.676
		l-0.005,0.69l-0.005,0.413l0.01,0.455L32.49-1.383l-0.484,0.292l-0.102,0.024l-1.75,0.268l-1.328,0.202L26.813-0.29l-1.054,0.163
		l-0.264,0.019l-1.074,0.207L24.1,0.367l-0.331,0.302l-0.101,0.177l-0.225,0.7l-0.105,0.431l-0.091,0.647l0.081,1.424l0.053,0.633
		l-0.417,0.628l-0.92,0.6l-2.268-0.077L16.51,5.357l-1.803-0.762l-1.256-0.844l-2.33-0.34L9.08,1.723L7.301,1.508L5.139,1.321
		h-5.926l-0.997,0.163l-1.621,0.115h-1.126l-1.947,0.47l-1.256,0.47l-0.916,0.465l-1.491,0.652l-1.587,0.566l-0.546,0.508
		l-0.83,0.901l0.178,0.743l0.129,0.791l0.576,1.031l0.364,0.599l0.709,0.82l0.245,0.388l0.12,0.527l-0.939,0.762l-0.211,0.36
		l-0.699,0.896l-0.523,0.101l-1.228,0.695l-0.292,0.749l-0.302,1.04l-0.724,1.347l-0.83,2.234l0.532,0.767l0.12,0.595l-0.005,0.628
		l-0.009,0.647l-0.47,1.497l-0.585,0.6l-1.021,0.637l-0.532,0.811l-0.125,0.436l-0.292,1.127l-0.086,1.232l0.029,1.174l0.029,0.988
		l-0.048,1.049l-0.297,0.053l-0.791,0.135l-3.701-0.115l-3.907-0.135l-1.96-0.488l-0.499-0.125l-0.638,0.566l-0.508,0.172
		l-0.681,0.355l-0.513,0.312l-0.882,0.43l-0.48,0.201l-0.44,0.254l-0.351,0.24l-0.163,0.121h-0.005l-0.009,0.008l-0.034,0.02v0.006
		l-0.115,0.109h-0.004l-0.394,0.35l-0.388,0.346l-0.326,0.428l-0.45,0.578l-0.101,0.088l0,0l-0.35,0.293l-0.465,0.363h-0.01
		l-0.987,0.883l-0.101,0.32l-0.01,0.369l0.082,0.412v0.236l-0.015,0.191l-0.125,0.158l-0.12,0.195l-0.134,0.336l-0.039,0.273
		l0.043,0.201l-0.043,0.25l0.01,0.498l0,0l-0.24,0.963v0.045l0.254,0.168l0.004,0.627l-0.11,1.688l-0.009,0.709l-0.01,0.303
		l0.513,0.734l0.139,0.516l-0.033,0.422l-0.039,0.328v0.396l-0.11,0.244l-0.163,0.414l-0.307,0.459h-0.01l-0.182,0.172l-0.546,0.422
		l-0.523,0.279l-0.211,0.1l-0.843,0.385l-0.844,0.441l-0.959,0.139l-1.625,0.115l-0.964,0.115l-0.854-0.102l-0.508-0.221
		l-0.494-0.363l-0.609-0.164h-0.101l-0.513,0.01l-0.201,0.004h-0.015l-0.394-0.1l-0.105-0.066l-0.139-0.105l-0.254-0.441
		l-0.105-0.154l-0.484-0.725l-0.264-0.537l-0.307-0.588l-0.192-0.389l-0.101-0.277l-0.202-0.643l-0.11-0.23v-0.016l-0.115-0.426
		l-0.215-0.264l-0.293-0.359V43.81l-0.029-0.004l-0.762-0.119l-0.196,0.047l-0.863,0.25l-1.169-0.174l-0.556-0.053l-0.316,0.068
		l-0.307,0.23l-0.288,0.459l-0.613,0.441l-0.527,0.393v-0.018l-0.451,0.527l-0.25,0.24l-1.122,0.076l-0.892-0.098l-0.987-0.291
		l-0.292-0.096l-0.335-0.125l-0.365-0.139l-0.829-0.135l-0.499,0.02l-0.532,0.531l-0.082,0.072l-1.122,1.074l-0.125,0.092
		l-0.335,0.234l-0.825,0.225l-0.954,0.27l-1.088,0.91l-0.614-0.27l-0.681-0.613l-0.729-0.91l-0.849-0.574l-0.647-0.414l-0.302-0.201
		l-0.053-0.037l-0.484-0.471l-0.048,0.023l0.038-0.033l-1.026-1.016l-0.326-0.82l-0.11-0.287l-0.072,0.02l-1.078-1.229l-0.077-0.076
		l-0.129-0.547l-0.015-1.447l-0.072-0.541l0.134-1.588l-0.105-0.32l-0.623-0.078l-0.197-0.238l0.106-2.264l-0.01-0.959l0.336-2.09
		l0.388-1.51l0.407-1.822l0.197-1.295l-0.244-0.422l-0.259-0.416l-1.304-0.715l-0.422-0.389l-0.192-0.422l-0.039-0.637l0.906-4.656
		l0.259-0.935l0.101-0.528l-0.211-0.686l-0.715-0.997l0.197-1.558l-0.456-1.462l0.628-2.824l0.101-0.58l0.105-0.657l0.815-1.419
		l-0.896,0.135l-0.345,0.029l-0.527-0.015l-0.944-0.096l-1.472-0.307l-0.782-0.144l-0.101-0.009l-0.134-0.038l-0.982-0.178
		l-0.715-0.158l-0.954-0.278l-0.604-0.101l-0.987-0.052l-0.983-0.043l-0.662-0.009l-0.508,0.019h-0.46h-0.072l-0.537-0.019
		l-0.892,0.024l-1.117,0.234l-0.148,0.139l-0.202,0.187l-0.522,0.839l-0.868,1.386l-0.388,0.513l-0.441,0.364l-0.135,0.086
		l-0.081,0.096l-0.015,0.015l-0.048,0.082l-0.484,0.757l-0.46,0.762l-0.374,0.628l-0.101,0.503l-0.072,0.969l-0.139,1.011
		l-0.307,0.974l-0.033,0.029l-0.043,0.058l-0.302,0.44l-0.34,0.566l-0.379,0.613l-0.029,0.048l-0.278,0.446l-0.211,0.394
		l-0.182,0.44l-0.216,0.643l-0.105,0.542l-0.091,0.546l-0.158,0.773l-0.096,0.512l-0.019,0.596l0.072,0.6l0.101,0.594l0.292,0.451
		l0.451,0.473l0.009,0.006l0.417,0.383l0.532,1.193l0.226,0.84l-0.192,0.834l-0.101,0.24l-0.101,0.498l-0.125,0.518l-0.12,0.566
		l-0.019,0.037l-0.173,0.566l-0.216,0.551l-0.254,0.504l-0.259,0.523l-0.307,0.574l-0.283,0.514l-0.182,0.373l-0.302,0.48
		l-0.307,0.439l-0.354,0.453l-0.542,0.516l-0.374,0.303l-0.72,0.512l-0.738,0.49l-0.269,0.355l-0.005,0.402l0.101,0.432l0.158,0.441
		l0.215,0.555l0.158,0.326l0.101,0.201l0.072,0.111l0.954,1.227l0.378,0.273l0.475,0.211l0.47,0.043l0.518,0.125l0.359,0.096
		l0.508,0.35l0.456,0.428l0.292,0.307l0.355,0.459l0.35,0.48l0.393,0.518l0.048,0.047l0.115,0.184l0.326,0.451l0.354,0.455
		l0.355,0.379l0.235,0.336l0.105,0.422l0.101,0.66v0.082l-0.086,1.135l-0.13,0.443l-0.076,0.119l-0.125,0.244l-0.192,0.398
		l-0.25,0.354l-0.388,0.441l-0.413,0.494l-0.101,0.125l-0.033,0.01l-0.547,0.469l-0.575,0.586l-0.508,0.359l-0.408,0.291
		l-0.729,0.342l-0.383,0.201l-0.436,0.283l-0.321,0.258l-0.384,0.23l-0.378-0.086l-0.302-0.053l-0.302-0.393l-0.58-0.6l-0.393-0.312
		l-0.029-0.027l-0.565,0.1h-0.005l-0.47,0.172l-0.023,0.01l-0.245,0.629l-0.201,0.121l-0.499,0.277l-0.413,0.182l-0.456,0.494
		l-0.421,0.139l-0.863,0.105l-0.503-0.006l-0.431-0.037l-0.135-0.145l-0.489-0.125l-2.147-0.297l-1.127-0.152l-0.628-0.096
		l-0.307,0.732l-0.01,0.014l0.206,0.979l-0.038,0.105l-0.139,0.637l-0.086,0.648l0.177,0.34l0.638,0.484l1.127,0.682l0.532,0.254
		l0.144,0.109l0.182,0.145l0.067,0.049l0.998,1.227l0.029,0.01l0.115,0.182l0.206,0.279l0.12,0.219l0.12,0.26l0.01,0.006v0.004
		l0.034,0.113l0.077,0.049l0.225,0.346l0.446,0.182l0.479,0.27l0.244,0.201l0.633,0.824l0.345,0.805l0.825,0.635l0.719,0.631
		l0.446,0.418l-0.432,1.068l-0.427,0.254l-0.105,0.01l-0.801,0.053l-0.355,0.039h-0.105l-0.643,0.08l-0.652,0.193l-0.355,0.268
		l-0.345,0.277l-0.278,0.217l-0.446,0.877l-0.484,0.389l-0.369,0.26l-0.46,0.109l-0.302-0.047l-0.781-0.303l-1.477-0.135
		l-1.121-0.115h-0.188l-0.479,0.148l-0.427,0.135l-0.384,0.508l0.005,0.178l-0.053,0.352l-0.091,0.301l-0.043,0.455l-0.01,0.215
		v0.145l0.034,0.006l0.158,0.08l0.321,0.111l0.518,0.201l0.618,0.26l0.484,0.465l0.307,0.412l0.254,0.402l0.278,0.422l0.24,0.432
		l-0.01,0.01l0.048,0.043l0.254,0.23l0.052,0.029l0.043,0.027l0.288,0.201l0.6,0.51l0.388,0.324l0.312,0.365l0.432,0.479
		l0.105,0.092l0.288,0.225l0.22,0.178l0.394,0.379l0.278,0.24l0.302,0.293l0.115,0.258l0.25,0.686l-0.494,3.682l-0.393,0.451
		l-0.221,0.33l-0.412,0.93l-0.46,1.766l-0.192,0.996l-0.082,0.365l-0.082,0.432l-0.091,0.729l0.082,0.891l0.077,0.643l0.019,0.221
		l0.024,0.373l0.086,0.102l0.82,0.053l0.839-0.432l1.026-0.584l0.825-0.615l0.35-0.182l0.949-0.502l1.592,0.502l0.714,0.375
		l1.223,0.498l0.911,0.959l0.532,0.494l0.719,0.58l0.715,0.307l0.839,0.258l0.686,0.154l1.941-0.691l0.719-0.244l0.35-0.373
		l0.172-0.303l0.719-0.445l0.619,0.264l0.599,0.076l1.064,0.748l0.949,0.916l0.499,0.49l0.24,0.508l0.043,0.426l1.779,1.018
		l1.572,0.904l0.633,0.461l0.23,0.402l0.105,0.586l-0.009,0.881l0.014,0.604l-0.014,0.006l-0.484,0.326l-0.259,0.498l-0.887,0.574
		l-0.594,0.514l-0.575,0.705l0.101,0.594l0.182,0.02l0.513,0.072l0.82,0.043l0.354,0.211l0.441,0.475l1.117,1.238l0.796,0.402
		l0.724,0.211l0.863,0.182l0.628,0.32l1.789,0.758l0.584,0.604l0.086,0.26l0.067,0.057l0.321,0.256l0.082,1.184l-0.149,0.465
		l-0.048,0.182l0.125,0.709l0.484,0.385l0.34,0.484l0.58,0.33l0.283,0.273l1.179,1.137l4.07,0.752l0.072,0.475l-0.101,0.336
		l-0.062,0.182l0.68-0.047l0.705,0.178l0.096,0.152l0.125,0.059l0.527,0.182l0.13,0.043l0.719,0.936l1.606,0.613l0.614-0.164
		l0.062-0.527l0.364-0.248l0.614,0.623l0.494,0.426l0.513,0.02l0.556,0.6l0.776,0.152l0.523,0.125l0.383,0.182l0.705,0.605
		l0.105,0.066l0.302,0.24l0.317,0.504l0.072,0.723l0.125,0.475l0.384,0.25l0.455-0.135l0.59,0.164l0.196-0.51l-0.077-0.104
		l0.005-0.145l0.024-0.059l0.067-0.152l0.105-0.23v-0.162l-0.062-0.174l0.024-0.057l0.067-0.164l0.082-0.24l0.522-0.047l0.667-0.576
		l0.805-1.457l-0.206-0.881l-0.451-0.994l-0.135-1.088l-0.028-0.705l0.101-0.584l0.34,0.029l0.436,0.469l0.681,0.504l0.307-0.264
		l0.268-0.139l0.163-0.092l0.077-0.148l0.916-0.082l0.211-0.551l0.034-0.393l0.101-0.182l0.513-0.184l0.408-0.119l0.283-0.158
		l0.752-1.074l0.034-0.096l0.134-0.02l0.23-0.037l0.216,0.008l0.101-0.027l0.077-0.082l0.413-0.02l0.57-0.512l0.024-0.02
		l0.058-0.039l1.328,0.092l0.474,0.037h0.024l0.7-0.08l0.422,0.557l0.067,0.143l-0.297,0.172l-0.316,0.131l-0.058,0.57l0.22,0.277
		l0.316,0.162l-0.201,0.471l-0.077,0.182l0.249,0.609l0.063,0.014l0.096,0.012l0.259,0.047l0.244,0.01h0.048l0.201-0.01l0.283,0.102
		l0.499-0.174l0.354-0.178h0.259l0.096,0.059l0.154,0.1l0.105,0.092l0.614,0.182l0.029,0.168l-0.254,0.514l0.004,0.201l0.077,0.344
		l0.105,0.111l0.221,0.307l0.11,0.182l0.719,0.557l0.172,0.426l0.11,0.246l0.705,0.699l0.058,0.264l0.004,0.029l-0.053,0.221
		l-0.144,0.182l-0.053,0.307l0.206,0.125l0.709-0.135l0.12-0.109l0.627-0.557l0.02-0.049l0.105-0.225l0.019-0.521l0.101-0.355
		l0.178-0.178l0.043,0.105h0.004l0.187,0.23l0.125,0.34l0.192,0.293l0.086,0.02l0.177,0.061l0.254,0.078h0.207l0.105,0.076
		l0.604-0.324l0.484,0.1l0,0l0.259,0.062l0.077-0.082l0.067-0.633l0.101-0.105l0.12-0.004l0.101-0.01l0.201-0.059l0.34-0.029
		l0.307,0.154l0.25-0.029l0.163-0.1l0.02-0.02l0.101-0.152l0.278-0.029h0.148l0.403-0.02l0.096,0.01l0.115,0.01l0.196,0.02h0.072
		l0.34-0.092l0.451-0.178l0.259-0.105l0.062-0.02l0.105-0.049l0.129-0.219l0.105-0.375l0.048-0.02l0.105-0.062l0.139-0.051
		l0.163,0.076l0.307,0.182l0.719-0.039l0.421-0.301l0.312-0.383l0.57-0.553l0.216-0.168l0.264-0.219l0.302-0.039l0.101-0.076
		l0.096-0.088l0.029-0.08l0.058-0.213l0.048-0.008l0.039-0.006l0.417,0.211l0.307,0.605l0.667,0.373l0.053,0.029l0.235,0.109
		l0.307,0.201l0.048,0.039l0.101,0.135l0.105,0.123l0.508,0.514l0.134-0.1l0.043-0.068l0.038-0.023l0.225-0.158l0.283,0.152
		l0.278,0.158l0.105,0.062l0.302-0.115l-0.077,0.393l0.053,0.078l0.11,0.197l0.077,0.018l0.067,0.045l0.307,0.1h0.014l0.532,0.076
		h0.019l0.446,0.072l0.258,0.049l0.106,0.018l0.403-0.182l0.383-0.037l0.566,0.09l0.034-0.439l0.105-0.787l0.264-0.234l0.829,0.914
		l0.154,0.26l0.105,0.102l0.081,0.244l-0.268,0.455l-0.01,0.02l-0.225,0.498l-0.015,0.152l0.072,0.145l0.196,0.355l0.153,0.172
		l0.182,0.111l0.235,0.129l0.369,0.119l0.427-0.043l0.513-0.25l0.034-0.033l0.062-0.205l0.105-0.432l0.709-0.959l0.115-0.557
		l0.101-0.422l0.057-0.105l0.125-0.254l-0.043-0.211l-0.009-0.076l0.029-0.375l0.105-0.23v-0.41l0.043-0.422l0.115-0.221
		l0.264-0.154l0.139-0.172l0.062-0.141l-0.015-0.182l0.129-0.182l0.144-0.201l0.153-0.326l0.11-0.326l0.058-0.523l-0.043-0.262
		l-0.129-0.213l-0.105-0.244l-0.034-0.23l0.106-0.254l0.12-0.277l0.105-0.254l0.019-0.34l0.067-0.211l0.058-0.279l0.004-0.244
		l0.163-0.154l0.105-0.205l0.091-0.102l0.182-0.191l0.081-0.211l-0.047-0.238l-0.058-0.23l0.086-0.125l0.206-0.092l-0.024-0.158
		l0.302,0.02l0.206-0.35l0.202-0.164l0.215,0.059l0.331,0.086l0.398,0.211l0.422-0.01l0.254-0.01l0.178-0.057l0.258-0.221
		l0.072-0.125l0.129-0.076h0.278l0.254,0.02l0.215-0.02l0.389,0.066l0,0h0.22l0.681,0.432l0.134,0.236l0.173,0.551l-0.043,0.363
		l0.062,0.49h0.307l0.134-0.098l0.149-0.115l0.105-0.152l0.129-0.119l0.163-0.043l0.028,0.004l0.13,0.049l0.172,0.191l0.11,0.172
		l0.178,0.188l0.11,0.125l0.12,0.162l0.158,0.139l0.149,0.092l0.11,0.057l0.153,0.059l0.235,0.07l0.086,0.021l0.168,0.238
		l0.638,0.24l0.503-0.119l0.297-0.547l-0.264-0.844l0.571-0.342l0.911-0.508l0.345-0.643l0.436-0.316l1.012-0.258l0.1-0.174
		l0.005-0.201l0.005-0.152l-0.029-0.145l-0.052-0.23l0.028-0.188l0.039-0.172l0.283-0.354l0.148-0.23l0.072-0.211v-0.105
		l-0.019-0.029l-0.159-0.158l-0.058-0.115l-0.101-0.301l-0.091-0.51l0.029-0.291l0.307-0.016l0.475,0.297l1.026,0.375l0.465-0.115
		l0.378,0.162l0.834-0.363l0.35-0.211l0.527,0.105l0.412-0.02l0.508-0.188l0.705-0.699l0.345-0.461l0.139-0.326l1.841-0.297
		l0.705-0.062l0.129-0.666l0.043-0.393l-0.101-0.135l0.062-0.066l0.129-0.062l0.177,0.014l0.427,0.043l0.259-0.01l0.441-0.086
		l0.292-0.092l0.173-0.105L10,97.562l0.072-0.23l0.024-0.229l0.086-0.164l0.177-0.182l0.101-0.078l0.062-0.143l0.096-0.23
		L10.7,96.23l0.106,0.049l0.301-0.223l-0.072-0.152l0.106-0.27l0.312-0.23l0.11-0.17l0.106-0.107l0.12-0.066l0.427-0.191
		l0.532-0.211l0.197-0.184l0.191-0.277l0.129-0.182l0.206-0.172l0.172-0.102l-0.307-0.369l-0.508-0.125l0.024-0.258l0.005-0.01
		l0.508-0.289l0.446-0.301l0.513-0.586l0.456-0.508l-0.005-0.277l-0.023-0.771l-0.005-0.078l0.057-0.441l0.005-0.01l0.062-0.219
		l0.053-0.213v-0.229l-0.086-0.254l0.546-0.043l0.25,0.129l0.819-0.02l0.134-0.365l0.245-0.295l0.565-0.188l1.122-0.188l0.307,0.211
		l0.667,0.168l0.465,0.043l0.902,0.029l1.103,0.129l0.551-0.043l1.29-0.922l0.024-0.008l0.081-0.033l0.211-0.074v-0.254l0.192-0.066
		l0.33-0.135l0.413-0.229l0.216-0.072l0.407-0.148l0.221-0.078l0.494-0.133l0.431-0.02l0.383-0.029l0.216-0.066l0.086-0.158
		l0.129-0.227l0.029-0.225L27.566,85.4l-0.153-0.135L27.35,85.13v-0.225l0.192-0.092l0.072-0.037l0.057-0.273l0.028-0.359
		l0.106-0.277l0.139-0.307l0.101-0.318l0.192-0.426l0.302-0.887l0.034-0.359l0.115-0.312l0.187-0.277l0.221-0.184l0.22-0.225
		l0.187-0.182v-0.178l-0.148-0.096l-0.192-0.1l-0.158-0.203v-0.219l0.125-0.275l0.096-0.311l0.101-0.273l0.125-0.268l0.191-0.141
		l0.25-0.133l0.345-0.197l0.164-0.162l0.081-0.273l-0.023-0.312l-0.086-0.25l-0.034-0.156l0.105-0.312l0.163-0.23l0.216-0.268
		l0.216-0.316l0.157-0.307l0.193-0.408l-0.034-0.408l-0.034-0.273l-0.052-0.311l-0.097-0.365l-0.129-0.225l-0.106-0.27l-0.22-0.268
		l-0.221-0.416l-0.273-0.223l-0.096-0.34l0.129-0.291l0.086-0.211l0.191-0.25l0.005-0.312v-0.354l-0.101-0.504l0.024-0.359
		l0.034-0.639l-0.105-0.271l-0.158-0.359l-0.12-0.23l0.153-0.365l0.068-0.398l0.278-0.363l0.157-0.412l0.308-0.312l0.287-0.451
		l0.308-0.359l0.254-0.311l0.216-0.316l0.254-0.312l-0.034-0.271l-0.066-0.227v-0.27l0.101-0.32l0.081-0.268l0.105-0.27l0.054-0.273
		l0.062-0.316l0.102-0.311l0.062-0.312l0.028-0.412v-0.402v-0.23v-0.273l-0.106-0.307v-0.369l-0.134-0.408l-0.187-0.455l-0.13-0.402
		l-0.187-0.307l-0.154-0.359l-0.249-0.508l-0.191-0.307l-0.028-0.414l0.104-0.182l0.221-0.221l0.102-0.254l0.316-0.273l0.35-0.225
		l0.303-0.207l0.406-0.182l0.245-0.254l0.221-0.221l0.282-0.283l0.273-0.225l0.134-0.307l-0.028-0.23v-0.277v-0.227l0.058-0.383
		l0.058-0.35l-0.029-0.322l-0.023-0.273l-0.034-0.271l-0.095-0.227l-0.12-0.307l-0.097-0.273l-0.105-0.254L33.97,50.12l-0.216-0.379
		v-0.254v-0.201l0.129-0.092l0.159-0.135l0.134-0.133l0.12-0.178l0.092-0.184l0.032-0.209l0.058-0.537v-0.227l0.106-0.178
		l0.101-0.182l0.191-0.277l0.188-0.221l0.307-0.211l0.157-0.111l0.029-0.182l0.086-0.092l0.221-0.07l0.245-0.02h0.187l0.312-0.049
		l0.413-0.043h0.182l0.316-0.096l0.272-0.129l0.322,0.066l0.191,0.092l0.24,0.23l0.307,0.221l0.302,0.182l0.277,0.072l0.188-0.043
		l0.216-0.164l0.407-0.135l0.479-0.115h0.302l0.188-0.037l0.307-0.053l0.221-0.049l0.46-0.133l0.307-0.131l0.351-0.135l0.652-0.129
		l0.445-0.033l0.522,0.072l0.656,0.248l0.303,0.184l0.483,0.268l0.308,0.158l0.254,0.139l0.432,0.221l0.379,0.045l0.437,0.041h0.488
		h0.303l0.513,0.049h0.32h0.303h0.13h0.411h0.24l0.326,0.111h0.483l0.442-0.025l0.374-0.047l0.315-0.096l0.508-0.092l0.379-0.182
		l0.221-0.096l0.164-0.178l0.215-0.201l0.163-0.158l0.335-0.184l0.255-0.219l0.125-0.23l0.21-0.201l0.188-0.164l0.134-0.178
		l0.13-0.225l0.033-0.221l0.11-0.133l0.226-0.137l0.158-0.176l0.307-0.234l0.178-0.184l0.316-0.244h0.431l0.403,0.049l0.69,0.176
		l0.556,0.273l0.351,0.211l0.407,0.293l0.158,0.279l0.489,0.248l0.239,0.043h0.307l0.27-0.072l0.432-0.129l0.406-0.09l0.259-0.137
		l0.433-0.139l0.254,0.021l0.436,0.023h0.24h0.542l0.484-0.023h0.503l0.407,0.047h0.255l0.513,0.096h0.258l0.509-0.049l0.811,0.072
		l0.215,0.182l0.6,0.293l0.618,0.283l0.681,0.221l0.475,0.273l0.398,0.182l0.374,0.225l0.369,0.318l0.134,0.494l0.192,0.311
		l0.187,0.312l0.058,0.314l0.187,0.27l0.27,0.336l0.264,0.383l0.459,0.23l0.341,0.125l0.346,0.076l0.35-0.1l0.407-0.025l0.341,0.072
		l0.282-0.072l0.403-0.02l0.302-0.053l0.101-0.129l0.25-0.182l0.13-0.268l0.187-0.361l0.157-0.363l0.154-0.312l0.105-0.312
		l0.254-0.354l0.191-0.273l0.178-0.182l0.162-0.273l0.12-0.293l0.192-0.363V44.97l0.125-0.225v-0.268l-0.092-0.211l-0.081-0.312
		l-0.096-0.406l-0.091-0.312l-0.188-0.225l-0.124-0.379l-0.159-0.316l-0.153-0.27l-0.216-0.273l-0.163-0.211l-0.091-0.248v-0.131
		l0.192-0.182l0.215-0.311l0.307-0.361l0.283-0.176l0.249-0.184l0.192-0.219l0.341-0.279l0.307-0.359l0.249-0.312l0.216-0.268
		l0.216-0.283l0.287-0.219l0.153-0.227v-0.227l0.13-0.314l0.028-0.227l0.13-0.178l0.152-0.109l0.251-0.182l0.254-0.141l0.431-0.307
		l0.308-0.271l0.302-0.279l0.321-0.354l0.216-0.279l0.277-0.336l0.316-0.455l0.278-0.359l0.162-0.312l0.682-0.68l0.504-0.457
		l0.277-0.406l0.216-0.273l0.163-0.268l0.053-0.316l-0.101-0.221l-0.321-0.135l-0.374-0.129l-0.245-0.182l-0.095-0.184l-0.25-0.1
		l-0.465-0.107l-0.244-0.07l-0.465,0.047l-0.322-0.133l-0.244-0.184l-0.277-0.225l-0.303-0.09l-0.465-0.135l-0.379-0.068l-0.432-0.1
		l-0.378-0.111l-0.514-0.092l-0.494-0.129l-0.2-0.264l-0.351-0.221l-0.24-0.229l-0.315-0.27v-0.316v-0.268l0.066-0.27l0.188-0.363
		l0.124-0.316l0.067-0.27l0.182-0.359l0.222-0.225l0.153-0.135l0.188-0.135l0.187-0.182l0.129-0.158v-0.201l0.101-0.225l0.087-0.451
		l0.157-0.365l0.303-0.268l0.379-0.139h0.508l0.316-0.092l0.374-0.182l0.221-0.365l0.374-0.389l0.249-0.311l0.244-0.316l0.13-0.475
		l0.034-0.384l-0.034-0.407l-0.096-0.365l0.005-0.225l0.104-0.182l0.303-0.226l0.287-0.225l0.308-0.225l0.221-0.364l0.436-0.14
		l0.407-0.067l0.341-0.067l0.321-0.135l0.119-0.182l0.25-0.225l0.158-0.206l0.307-0.245l0.277-0.225l0.38-0.36l0.187-0.225
		l0.221-0.226l0.278-0.364l0.187-0.268l0.216-0.542v-0.269v-0.278l0.033-0.269l0.154-0.312l0.162-0.36l0.13-0.316l0.153-0.225
		l0.096-0.269l0.087-0.388V11.94l0.157-0.316l0.303-0.273l0.249-0.273l0.341-0.226l0.216-0.182l0.412-0.134l0.341-0.043l0.134-0.139
		v-0.134l0.023-0.134V9.902V9.763l0.029-0.269V9.24V8.881V8.565l0.101-0.34l0.028-0.312l0.13-0.451l0.191-0.182l0.278-0.182
		l0.303-0.14l0.282-0.182l0.105-0.225l0.134-0.292l0.102-0.427l0.307-0.043l0.436,0.02l0.398,0.091l0.437,0.067l0.191-0.177
		l0.148-0.182l0.129-0.225l0.375-0.25l0.191-0.206l0.303-0.273l0.315-0.364l0.432-0.182l0.441-0.091l0.283-0.34l0.307-0.312
		l0.378-0.388l0.408-0.316l0.402-0.269l0.432-0.297l0.302-0.269l0.494-0.292l0.315-0.254l0.346-0.043h0.374l0.249-0.134l0.471-0.11
		h0.307l0.278,0.269l0.345,0.278l0.345,0.269l0.681,0.206h0.509h0.47l0.374-0.105l0.302-0.163l0.57-0.182l0.461-0.14l0.844-0.158
		h0.656l0.407,0.048l0.341,0.172l0.316,0.297h0.249l0.303-0.182h0.34l0.283,0.202l0.278,0.158h0.239l0.316-0.135l0.316-0.067
		l0.254-0.072h0.312h0.216l0.188-0.086l0.1-0.091l0.159-0.254l0.101-0.269l0.067-0.269l0.1-0.182l0.105-0.139l0.125-0.13l0.163-0.23
		v-0.312l0.106-0.269l0.157-0.278l0.221-0.364l0.34-0.154l0.307-0.158l0.073-0.207l0.086-0.384h0.302h0.22l0.274-0.115l0.254-0.129
		l0.244-0.139l0.216-0.249l0.192,0.086l0.162,0.206l0.532,0.226l0.432,0.158l0.307,0.225l0.346,0.182l0.35,0.163h0.303l0.411-0.005
		l0.509-0.177l0.407-0.163l0.437-0.244l0.244-0.225l0.322-0.086l0.406-0.183l0.514-0.139l0.35,0.043h0.432l0.379-0.043l0.302-0.043
		l0.441-0.024l0.312-0.072l0.321-0.067h0.307l0.407-0.048l0.221-0.11l0.282-0.163l0.12-0.129l0.154-0.207l0.191-0.206l0.355-0.043
		l0.508,0.043l0.287,0.202l0.188,0.292l0.397,0.225l0.302,0.182l0.188,0.34l0.153,0.182h0.628h0.508h0.437l0.374,0.182l0.441,0.086
		h0.345l0.35-0.105l0.188-0.182l0.082-0.183l0.139-0.34v-0.292l0.1-0.206l0.164-0.115l0.278-0.139l0.124-0.178l0.13-0.206
		l0.033-0.207l0.119-0.229l0.072-0.312l-0.072-0.25l-0.032-0.34l0.134-0.225l0.191-0.22l0.12-0.207l0.182-0.278l0.379-0.245
		l0.379-0.043l0.541,0.02l0.519-0.02l0.293-0.086l0.46,0.086l0.378,0.02h0.403l0.297-0.091l0.298-0.134l0.244-0.11h0.379
		l0.407-0.024l0.518-0.134l0.222-0.134l0.215-0.182l0.158-0.182l0.105-0.221l0.101-0.269l0.067-0.226l0.034-0.316V-8.89v-0.226
		l0.057-0.316l0.25-0.182l0.187-0.225l0.216-0.139l-0.024-0.226l-0.101-0.226l-0.148-0.273l0.081-0.268l0.163-0.097l0.13-0.182
		l0.101-0.182l0.163-0.182l0.187-0.177l0.029-0.273l-0.029-0.182l-0.096-0.182l-0.119-0.336l0.119-0.096l0.308-0.067l0.378-0.062
		l0.298-0.072l0.162,0.135l0.317,0.115l0.302,0.067l0.35-0.043l0.331-0.072l0.321-0.129L144-13.086l0.269-0.134l0.308,0.02
		l0.144,0.206l0.287-0.053l0.114-0.13l0.293-0.114l0.336-0.086l0.235,0.129l0.268,0.096l0.217-0.024l0.244-0.134l0.134-0.091
		l0.081-0.139l0.111-0.134l0.187-0.182l0.101-0.158l0.058-0.254l0.101-0.269v-0.183l-0.053-0.292h0.082l0.244,0.13l0.699,0.23
		l0.326,0.153l0.307-0.043l0.217-0.158l0.307-0.206l0.537-0.25l0.244,0.182l0.134,0.25l0.273,0.245l0.35,0.139l0.508,0.067
		l0.375-0.043l0.35-0.043l0.191-0.091v-0.273l0.273-0.226l0.188-0.225l0.101-0.365v-0.383l0.101-0.316l0.244-0.269l0.307-0.273
		l0.432-0.182l0.354-0.273l0.298-0.134l0.244-0.182l0.308-0.178l0.216-0.182l0.191-0.254l0.076-0.207l-0.187-0.091l-0.115-0.086
		l-0.321-0.048l-0.101-0.182l-0.105-0.225l-0.191-0.182l-0.163-0.226l-0.211-0.158l-0.058-0.249l-0.023-0.518l-0.111-0.359
		l-0.053-0.365l0.053-0.584l0.106-0.408l0.053-0.359v-0.364l0.052-0.297l0.11-0.273l0.102-0.269l0.105-0.317l0.272-0.359
		l0.307-0.226l0.303-0.154h0.383l0.351,0.043l0.302,0.067l0.408-0.091h0.484l0.272-0.072l0.163-0.202l0.139-0.182l0.23-0.177
		l0.303-0.182l0.244-0.183l0.513-0.316l0.369-0.273l0.508-0.269l0.571-0.254l0.406-0.11l0.303-0.096l-0.101-0.178l-0.11-0.182
		l-0.11-0.225l-0.067-0.297l-0.038-0.407l-0.077-0.312l-0.105-0.48l-0.114-0.312l-0.187-0.364l-0.14-0.359v-0.36l0.034-0.47
		l-0.222-0.086l-0.268-0.096l0.053-0.182l0.071-0.36l0.033-0.34l0.029-0.364v-0.383l-0.062-0.226l-0.287-0.023l-0.298-0.086
		l-0.307-0.115v-0.22v-0.432v-0.317l0.038-0.269l0.067-0.268l0.028-0.273l0.053-0.273l-0.1-0.135l-0.073-0.268l0.136-0.226
		l0.272-0.724l0.134-0.269l-0.014-0.269l-0.307-0.072l-0.484-0.201l-0.216-0.36l-0.135-0.273l0.216-0.268l0.25-0.226l0.302-0.225
		l0.239-0.364l0.164-0.407l0.162-0.37l0.403-0.091l0.32-0.043h0.369l0.514-0.096l0.384,0.02l0.268,0.163l0.351,0.086l0.152-0.02
		l0.255-0.11l0.312-0.158l0.365-0.115h0.354l0.351-0.019l0.488-0.072l0.715,0.067h0.441l0.431-0.086l0.316-0.182l0.317-0.139
		l0.301-0.129l0.068-0.273l0.057-0.182l0.12-0.225l0.163-0.129l0.283-0.139l0.211-0.134l0.158-0.178l0.225-0.134l0.273-0.14
		l0.159-0.129l0.157-0.158l0.249-0.159l0.274-0.182l0.345-0.273l0.033-0.225l-0.216-0.182l-0.249-0.25l-0.216-0.297l-0.187-0.22
		l-0.105-0.292l0.033-0.254v-0.336l-0.119-0.225l-0.346-0.163l-0.158-0.182l-0.033-0.206l-0.102-0.269l-0.254-0.225l-0.297-0.12
		l-0.513-0.096l-0.6,0.096l-0.466-0.115l-0.589-0.202l-0.493-0.172l-0.595-0.135h-0.274l-0.191-0.134l-0.1-0.292l-0.106-0.34
		l-0.216-0.183l-0.191-0.225l-0.086-0.182l-0.102-0.292l-0.22-0.34h-0.302h-0.403l-0.412,0.02v-0.273v-0.226l0.101-0.268
		l0.226-0.278l0.183-0.105l0.282-0.225l0.096-0.182l-0.283-0.096l-0.277-0.182l-0.216-0.312l0.023-0.226l0.135-0.273l0.216-0.336
		l0.249-0.273l0.302-0.446l0.351-0.312l0.272-0.321l-0.033-0.23v-0.316l-0.092-0.312l0.254-0.273l0.149-0.226l0.191-0.316v-0.561
		l0.164-0.407l0.091-0.475l0.225-0.413l0.432-0.043l0.312-0.053l0.217-0.182l0.104-0.269l0.191-0.316l0.375-0.585l0.335-0.297
		l0.288-0.542l0.72-0.628l0.613-0.182l0.162-0.316l0.623-0.182l0.906-0.091l0.906-0.316l0.753-0.135l1.175-0.273l0.594,0.02
		l0.753,0.019L174.763-61.53"/>
</g>
<g id="Layer_1_1_">
</g>
</svg>
