<?xml version="1.0" encoding="iso-8859-1"?>
<!-- Generator: Adobe Illustrator 16.0.4, SVG Export Plug-In . SVG Version: 6.00 Build 0)  -->
<!DOCTYPE svg PUBLIC "-//W3C//DTD SVG 1.1//EN" "http://www.w3.org/Graphics/SVG/1.1/DTD/svg11.dtd">
<svg version="1.1" xmlns="http://www.w3.org/2000/svg" xmlns:xlink="http://www.w3.org/1999/xlink" x="0px" y="0px"
	 width="93.794px" height="98.494px" viewBox="0 0 93.794 98.494" style="enable-background:new 0 0 93.794 98.494;"
	 xml:space="preserve">
<g id="Layer_153">
	<g id="Layer_158">
		<path id="Swat" style="fill:#CCCCCC;stroke:#FFFFFF;stroke-width:1.07;" d="M81.401,4.04
			L81.401,4.04l-0.11-0.002l-0.23-0.153l-0.009-0.006l-0.135-0.027l-0.325-0.064l-0.337-0.066l-0.252,0.114l-0.846,0.041
			l-0.685-0.186l-1.149-1.24l-0.755-0.367l-0.375-0.201l-0.757,0.092l-0.263-0.017l-0.193-0.26l-1.354-0.545l-1.016,0.041
			l-0.589,0.174l-0.324,0.155l-0.24-0.227l-0.15-0.257l-0.255-0.087l-0.36,0.083l-0.523-0.033l-0.556-0.177l-0.403,0.08
			l-0.142,0.097L68.93,1.064l-0.35-0.022l-0.468-0.171l-0.364-0.305l-0.482-0.03l-1.284,0.096L65.026,0.96l0.976,0.624l0.23,0.289
			l0.059,0.173l0.102,0.169l0.175,0.292l0.254,0.265l0.094,0.162l0.124,0.096l0.349,0.273l0.427,0.184l0.162,0.07l0.352,0.09
			l0.63,0.163l0.289,0.057h0.242l1.153,0.127l0.254,0.058l0.049,0.042l0.113,0.097l0.068,0.127l0.081,0.173l0.093,0.381l0.289,0.243
			l0.831,0.022l0.266,0.058l0.187,0.09l0.194,0.094l0.27,0.207l0.03,0.024l0.388,0.543l0.04,0.057l0.127,0.126l0.058,0.185
			l0.254,0.484L74.3,7.328l0.015,0.069l-0.021,0.624l-0.015,0.044l-0.057,0.187l-0.115,0.261l-0.139,0.316l-0.275,0.242L73.68,9.083
			l-0.066,0.028l-0.13,0.053l-0.508,0.011l-0.008-0.001l-0.223-0.056l-0.386-0.171l-0.03-0.014l-0.111-0.038l-0.766-0.262
			l-0.531-0.104l-0.565-0.012l-0.312,0.047l-0.15,0.022l-0.577,0.219l-0.011,0.002l-0.243,0.044l-1.233-0.312l-0.178,0.018
			l-0.065,0.006L67.17,8.689l-0.118,0.078l-0.216,0.142L66.687,9.07l-0.143,0.061l-0.021,0.008L66.329,9.22l-0.14,0.022L65.889,9.29
			L65.19,9.26l-0.396-0.017l-1.985-0.15l-0.166-0.146l-0.122-0.108l-0.438-0.576l-0.231-0.069l-0.466,0.01l-0.042,0.001
			l-1.119,0.231l-0.808-0.034l-0.354-0.041l-0.535-0.063l-0.473-0.083l-0.577-0.101l-0.72-0.365l-0.077-0.04L56.484,7.64
			l-0.093-0.054l-0.265-0.154l-0.312-0.09l-0.208-0.06l-0.23-0.023l-0.944,0.098l-0.278,0.029L54.035,7.37l-0.146-0.019
			l-0.166,0.032L53.23,7.478l-0.416,0.139l-0.496,0.335l-0.113,0.027l-0.082,0.019l-0.196,0.104L51.72,8.125l-0.107,0.044
			l-0.09,0.036l-0.438,0.093L49.851,8.69l-0.22,0.023l-0.129,0.032l-0.748,0.187l-0.728,0.069l-0.569-0.042l-0.538-0.04L46.735,8.88
			l-0.302-0.064l-0.793-0.271l-0.119-0.041l-0.193-0.021l-0.336-0.036l-0.636,0.172l-0.924,0.669l-0.184,0.104l-0.395,0.15
			L41.966,9.68l-0.52,0.047l-0.242-0.012L41.005,9.77l-0.054,0.014l-0.302,0.208l-0.114,0.162l-0.104,0.45l0.01,0.084l0.014,0.1
			l0.139,0.577l0.026,0.049l0.228,0.436l0.058,0.173l0.304,0.495l0.171,0.278l0.115,0.542l-0.088,0.218l-0.005,0.013l-0.521,0.519
			l-0.08,0.184l-0.127,0.173l-0.014,0.043l-0.113,0.361l-0.115,0.173l-0.196,0.611l-0.185,0.392l-0.007,0.007l-0.108,0.12
			l-0.461,0.365l-0.149,0.12l-0.509,0.312l-0.332,0.165L38.1,17.306l-0.484,0.143l-0.334,0.099l-0.099,0.072l-0.214,0.159
			l0.059,0.392l-0.012,0.428l-0.047,0.104l-0.045,0.104l-0.03,0.021l-0.107,0.082l-0.197,0.081l-1.072-0.046l-0.506,0.064
			l-0.222,0.028l-0.02,0.004l-0.178,0.042l-0.668,0.289l-0.104,0.045l-0.186,0.046l-0.359,0.207l-0.125,0.126l-0.129,0.128
			l-0.092,0.185l-0.127,0.427l-0.037,0.358l-0.055,0.541l-0.243,1.107l-0.104,0.208l-0.024,0.03l-0.079,0.096l-0.174,0.127
			l-0.356,0.184l-0.381,0.15l-0.852,0.419l-0.038,0.019l-0.038,0.029l-0.262,0.202l-0.496,0.3l-0.623,0.461l-0.457,0.257
			l-0.097,0.054l-0.221,0.023l-0.347,0.15l-0.295,0.1l-0.524,0.177l-0.203,0.085l-0.153,0.064l-0.369,0.208L26.109,26.2
			l-0.104,0.123l-0.023,0.047l-0.058,0.114l-0.15,0.15l-0.062,0.124l-0.021,0.038l-0.138,0.126l-0.127,0.208l-0.393,0.369
			l-0.565,0.208l-0.541,0.012l-0.451-0.173l-1.05-0.162l-0.364,0.057L21.688,27.5l-0.505,0.215l-0.036,0.016l-0.67,0.438
			l-0.254,0.266l-0.179,0.227l-0.167,0.212l-0.232,0.346l-0.024,0.072l-0.125,0.342l-0.034,0.208l-0.104,0.231l-0.033,0.219
			l-0.004,0.049l-0.031,0.377l0.015,0.26l0.009,0.155l0.017,0.109l0.007,0.053l0.046,0.101l0.047,0.106l0.035,0.169l0.08,0.374
			l-0.023,0.291l-0.012,0.136l-0.066,0.171l-0.096,0.244l-0.469,0.679l-0.072,0.106l-0.185,0.369l-0.057,0.233l-0.105,0.448
			l0.139,0.761l0.095,0.15l0.103,0.162l0.473,0.554l0.16,0.114l0.164,0.117l0.353,0.325l0.213,0.194l0.185,0.312l0.07,0.173
			l0.034,0.23l0.022,0.162v0.196l-0.099,0.312l-0.307,0.635l-0.483,0.624l-0.19,0.352l-0.189,0.352l-0.059,0.185l-0.277,0.487
			l-0.138,0.239l-0.058,0.162l-0.323,0.496l-0.081,0.185l-0.046,0.427l0.041,0.035l-0.254,0.183l-0.096,0.079l-0.094,0.119
			l-0.021,0.03l-0.057,0.104l0.043,0.18l0.008,0.033l0.061,0.12l-0.059,0.121l-0.064,0.163l-0.011,0.033l-0.038,0.111l-0.133,0.007
			l-0.124,0.071l-0.098,0.103l-0.026,0.087l-0.029,0.094l-0.017,0.085l-0.021,0.082l-0.053,0.082l-0.07,0.036l-0.085,0.043
			l-0.134,0.031l-0.119,0.013l-0.108,0.019l-0.139,0.036l-0.108,0.04l-0.081,0.04l-0.13,0.064l-0.087,0.071l-0.026,0.08
			l-0.026,0.173l-0.059,0.074l-0.063,0.081l-0.055,0.067l-0.185,0.064l-0.131,0.039l-0.084,0.026l-0.115,0.015l-0.272-0.003
			l-0.181-0.077l-0.14-0.061l-0.166-0.015l-0.098,0.05l-0.116,0.071l-0.097,0.079l-0.008,0.006l-0.062,0.055l-0.094,0.094
			l-0.096,0.129l-0.031,0.061l-0.053,0.104l0.053,0.149l0.02,0.024l0.061,0.08l-0.038,0.1l-0.06,0.083l-0.104,0.104l-0.066,0.106
			l0.039,0.144l0.016,0.123l-0.049,0.097l-0.115,0.136l-0.082,0.085l-0.068,0.071l-0.089,0.077L13.41,47.49l-0.093,0.058
			l-0.147,0.078l-0.084,0.043l-0.143,0.071l-0.067,0.036l-0.113,0.06l-0.019,0.01l-0.1,0.056L12.6,48.037l-0.081,0.057l-0.056,0.016
			l-0.116,0.027l-0.085,0.031l-0.048,0.028l-0.092,0.063l-0.074,0.136l-0.084,0.019l-0.119,0.027l-0.125-0.057l-0.142-0.06
			l-0.09-0.01l-0.179-0.009l-0.085-0.019l-0.139-0.031l-0.104-0.03l-0.09-0.027l-0.189,0.022l-0.06,0.085l-0.124,0.123l-0.094,0.084
			l-0.15,0.042l-0.091,0.01l-0.113,0.012l-0.013-0.087l-0.014-0.099l-0.006-0.11L9.993,48.2l-0.004-0.008l-0.043-0.073l-0.04-0.085
			l-0.016-0.083l0.013-0.09l0.014-0.116l-0.005-0.019l-0.016-0.045L9.773,47.65l-0.117,0.022l-0.071,0.045l-0.105,0.091
			l-0.142,0.106l-0.067,0.058l-0.11,0.099l-0.032,0.126l-0.109,0.024l-0.21,0.686l-0.024,0.085l-0.019,0.09l-0.059,0.123
			l-0.108,0.111l0.022,0.131l-0.005,0.052L8.56,49.541l-0.114,0.142L8.434,49.78l-0.08,0.042L8.3,49.956l-0.033,0.086l-0.094,0.16
			l-0.02,0.216l-0.032,0.116H8.12l-0.007,0.09L8.11,50.656l-0.035,0.109l-0.047,0.099l-0.092,0.12L7.873,51.07L7.804,51.18
			l-0.06,0.148l0.014,0.167L7.72,51.633l-0.004,0.012l-0.083,0.068l-0.062,0.062l0.008,0.183l0.057,0.138l0.001,0.002l-0.043,0.073
			L7.54,52.255l-0.082,0.077l-0.116,0.107l-0.07,0.121l-0.015,0.097L7.254,52.68l0.034,0.217l-0.009,0.043l-0.027,0.06l-0.075,0.056
			l-0.186,0.086l-0.136,0.183l-0.061,0.075l-0.112,0.104l-0.094,0.114l-0.085,0.038l-0.209,0.072l-0.084,0.028l-0.109,0.003
			L5.95,53.762l-0.129,0.098L5.75,53.967l-0.206,0.176l0.021,0.098l0.019,0.083l0.043,0.149l0.017,0.092l0.042,0.088l0.075,0.046
			l0.032,0.079l0.124,0.166h0.001l0.088,0.066l0.104,0.071l0.073,0.062l0.086,0.086L6.27,55.23l0.092,0.08l0.207,0.063l0.097,0.028
			l0.191,0.031l0.152,0.022l0.224,0.062l0.09,0.108l0.106,0.044l0.069,0.159l0.05,0.17l0.095,0.085l0.062,0.127l0.085,0.161
			l0.135,0.187l0.149,0.205l0.094,0.068l0.143,0.104l0.084,0.06l0.098,0.096l0.168,0.167l0.111,0.061l0.217,0.117l0.237,0.023
			l0.203,0.036l0.104,0.06L9.55,57.58l0.035,0.014l0.054,0.057v0.002l0.04,0.136l-0.03,0.125l0.103,0.123l0.186,0.224l0.146,0.031
			l0.12,0.025l0.192,0.037l0.083,0.053l0.152-0.083l1.069,0.505l0.258,0.072l0.194,0.172v0.001l0.052,0.067l0.093,0.084l-0.07,0.104
			l-0.122,0.042l-0.132,0.079l-0.081,0.071l-0.135,0.094l-0.09,0.062l-0.166,0.111l-0.191,0.052l-0.148,0.082l-0.093,0.152
			l-0.003,0.207l0.093,0.079l0.02,0.098l0.055,0.173l0.24,0.05l0.129,0.049l0.176,0.07l0.177,0.133l0.129,0.521l0.002,0.079
			l0.146,0.167l0.029,0.135l-0.112,0.151l-0.002,0.003l-0.121,0.173l-0.137,0.202l-0.108,0.175l-0.058,0.088l-0.072,0.188
			l-0.129,0.152l-0.015,0.1l-0.024,0.16l-0.021,0.154l-0.026,0.178l-0.015,0.1l-0.019,0.123l0.105,0.177l0.078,0.272l0.182,0.162
			l0.171,0.142l0.178,0.125v0.133l-0.001,0.093v0.071l-0.144,0.093l-0.093,0.077l-0.058,0.132l-0.019,0.102l-0.009,0.102l0.08,0.082
			L11.81,65.58l0.006,0.02l-0.118,0.047l-0.093,0.051l-0.188,0.018l-0.158,0.016l-0.115,0.037l-0.363,0.043l-0.278,0.01
			l-0.154-0.038l-0.124,0.022l-0.02,0.03l-0.046,0.071l-0.055,0.084l-0.031,0.104l-0.048,0.084L9.84,66.266l-0.016,0.142
			l-0.016,0.14l-0.01,0.088l-0.012,0.225l0.084,0.146l0.072,0.113l0.017,0.082l-0.108,0.117l-0.036,0.094l-0.134,0.225l0.016,0.149
			l0.005,0.03L9.688,67.92l-0.065,0.112L9.56,68.12l-0.08,0.085l-0.191,0.074l-0.162,0.002l0,0l-0.082,0.001l-0.057,0.013
			l-0.116,0.143L8.87,68.45l-0.008,0.045l-0.026,0.124l-0.025,0.146l0.01,0.082l-0.038,0.051l-0.044,0.07l-0.054,0.084l-0.035,0.113
			l0.15,0.051l0.099,0.076l0.078,0.066l0.084,0.07l0.058,0.063l0.04,0.026l0.048,0.031l-0.001,0.041l0.043,0.055l-0.021,0.088
			l0.062,0.217l0.173,0.132l0.137,0.058l0.128,0.057l-0.002,0.027l-0.004,0.157l-0.077,0.251l0.016,0.112l0.039,0.166l0.141,0.081
			l0.09,0.035l0.104,0.009l0.087,0.006l0.231-0.026l-0.053,0.139l0.006,0.053l-0.065,0.148l-0.01,0.02l0.03,0.094l0.029,0.146
			l0.119,0.122l0.112,0.111l0.115,0.156l-0.047,0.129l-0.073,0.1l-0.122,0.019L10.28,72.27l-0.103,0.016l-0.087,0.014l-0.14,0.037
			L9.75,72.357l-0.135-0.03l-0.133-0.029L9.45,72.291l-0.021-0.004l-0.154-0.066H9.268L9.13,72.214l-0.111,0.015l-0.017,0.008
			l-0.104,0.097L8.86,72.398l-0.033,0.053l-0.05,0.081l-0.085-0.021l-0.1-0.014l-0.107,0.001l-0.135,0.002l-0.104,0.002
			l-0.104,0.113L8.12,72.713l-0.038,0.156l-0.045,0.132l-0.035,0.218l-0.001,0.002l0.002,0.168L7.992,73.51l-0.006,0.075
			l-0.031,0.043l-0.091,0.074l-0.188,0.17l-0.024,0.104L7.63,74.027l-0.011,0.029l-0.066,0.168l-0.051,0.09l-0.057,0.101
			l-0.098,0.101L7.272,74.62l-0.148-0.019l-0.062,0.101l-0.204,0.026l-0.173,0.053l-0.099,0.043l-0.095,0.064l-0.116,0.045
			l-0.224,0.045l-0.245-0.041l-0.16-0.021H5.518L5.4,74.943l-0.108,0.027L5.15,75.098l-0.024,0.104l-0.028,0.116l-0.013,0.125
			l-0.14,0.091l-0.094,0.147l0.021,0.032l0.049,0.04l0.095,0.104l0.085,0.104l0.104,0.174l0.043,0.156l0.021,0.143l0.117,0.239
			l0.035,0.204l0.113,0.277l0.108,0.18l0.02,0.083l0.043,0.185l0.033,0.147l-0.04,0.11v0.132l0.014,0.149l0.004,0.043l0.01,0.099
			l0.014,0.142l0.009,0.1l-0.182,0.185l-0.232,0.265l-0.048,0.131l-0.031,0.084l-0.004,0.205l-0.028,0.112L5.122,79.59l-0.18-0.014
			l-0.104,0.122l-0.17,0.112l-0.193,0.154l-0.071,0.059l-0.039,0.084L4.36,80.232l-0.005,0.09l-0.005,0.101l0.009,0.084l0.009,0.076
			l0.001,0.063L4.5,81.045l0.117,0.234l0.035,0.08l-0.108,0.059l-0.083,0.059l-0.068,0.049L4.258,81.62l-0.119,0.067l-0.06,0.058
			L4.026,81.85l-0.062,0.074l-0.07,0.105l-0.053,0.139l0.001,0.114l0.012,0.178L3.812,82.6l-0.039,0.096l-0.037,0.104l-0.101,0.189
			l0,0l-0.063,0.072l-0.055,0.187l0.013,0.198l0.046,0.15l-0.001,0.01l-0.042,0.195l-0.04,0.158l-0.037,0.126l-0.085,0.063
			L3.27,84.173l-0.259,0.11l-0.146,0.062L2.645,84.43l-0.233,0.043l-0.187,0.086l-0.063,0.028l-0.062,0.026l0.057,0.146l0.051,0.094
			l0.103,0.18L2.37,85.15L2.35,85.236l-0.051,0.041L2.2,85.445l0.006,0.05l-0.022,0.054l0.018,0.122l0.165,0.192l0.335,0.062
			l0.144,0.062l0.088,0.143l0.075,0.072l0.021,0.076l0.005,0.02l0.01,0.146l0.062,0.066l0.125,0.092l0.062,0.061l0.116,0.137
			l0.118,0.049l0.156,0.049l0.091,0.031l0.108,0.025l0.085,0.029L4.05,87.02l0.046,0.071l0.031,0.112l0.071,0.1l0.076,0.092
			l0.062,0.06l0.087,0.112l-0.021,0.149l-0.003,0.097l0.1,0.121l0.056,0.07l0.115,0.107l0.069,0.063l0.201,0.095l-0.088,0.138
			l-0.068,0.147L4.709,88.77l-0.041,0.112l-0.054,0.144l-0.091,0.062l-0.268,0.224l-0.239,0.139l-0.188,0.025l-0.105,0.017
			L3.69,89.68l-0.548,0.092l-0.169,0.135l-0.32,0.199l-0.146,0.23l-0.33,0.229L2.092,90.76l-0.273,0.236l-0.104,0.225l0.011,0.121
			l0.009,0.09l0.01,0.111l-0.01,0.066l-0.024,0.17l-0.038,0.109l-0.03,0.09l-0.038,0.106L1.48,92.283l-0.024,0.16l0.104,0.15
			l-0.096,0.178l0,0l0.021,0.105L1.25,93.125l-0.113,0.186l-0.271,0.063l-0.174,0.09l0.023,0.054l0.051,0.117l0.076,0.094
			l0.021,0.049l0.009,0.031l0.09-0.02l0.109-0.021l0.133-0.01l0.115,0.008l0.109,0.012l0.098,0.025l0.116,0.045l0.093,0.041
			l0.097,0.029l0.136,0.021l0.086,0.008l0.08,0.007l0.123-0.009h0.098l0.091,0.002l0.146,0.012l-0.064,0.096l-0.058,0.08
			l-0.092,0.077l-0.088,0.067l-0.051,0.132l-0.031,0.097l-0.006,0.021l-0.035,0.109l0.004,0.105l-0.027,0.039l-0.039,0.05
			l-0.038,0.042l-0.01,0.01l-0.044,0.047l-0.054,0.051l-0.044,0.054l-0.037,0.058l-0.03,0.047l-0.027,0.059l-0.021,0.072
			l-0.014,0.051l-0.008,0.044l-0.017,0.069l-0.012,0.058l-0.012,0.046l-0.012,0.059l-0.014,0.071l-0.004,0.063l-0.001,0.017
			l0.001,0.006l0.042,0.113l0.061,0.106l0.104,0.1l0.088,0.092l0.091,0.084l0.021,0.021l0.022,0.018l0.05,0.036l0.047,0.046
			l0.007,0.007l0.027,0.03l0.053,0.053l0.039,0.037l0.062,0.061l0.022,0.064l0.003,0.008l0.023,0.057L2.49,96.76l0.001,0.072
			l-0.004,0.064v0.012L2.461,96.91l-0.044,0.033v0.144l0.062,0.095l0.018,0.026l0.039,0.062h0.001l0.039,0.037l0.03,0.028
			l0.066,0.058l0.046,0.026l0.071,0.044l0.062,0.038l0.059,0.021l0.062,0.025l0.067,0.033l0.095,0.04l0.069,0.024l0.053,0.027
			l0.056,0.029l0.073,0.023l0.081,0.025l0.146,0.023l0.145,0.002l0.066,0.006L3.9,97.788h0.066l0.058-0.004l0.059-0.013l0.074-0.03
			l0.156-0.079l0.161-0.016l0.141,0.025l0.088,0.024l0.122,0.034L4.93,97.76l0.076,0.033l0.11,0.038l0.107,0.032l0.112,0.039
			l0.104,0.025l0.09,0.01l0.104,0.013l0.082,0.009H5.76l0.055-0.007l0.052,0.003l0.024,0.008l0.021,0.008l0.016,0.019l0.01,0.026
			l0.02,0.041l-0.004-0.065v-0.024l0.003-0.031l0.132-0.049l0.126,0.004l0.058-0.002l0.006-0.002l0.028,0.002l0.085-0.016
			l0.027-0.001l0.138,0.013L6.6,97.879l0.065,0.008l0.021-0.021l0.021-0.005l0.003-0.008l0.008-0.019l0.01-0.01l0.031-0.054l0,0
			l0.013-0.021l0.068-0.048L6.92,97.66l0.084-0.055l0.095-0.062l0.094-0.034l0.112-0.033l0.131-0.022l0.083-0.013l0.096-0.008
			l0.093-0.012l0.021-0.003l0.087-0.012l0.02-0.037l0.025-0.013v-0.033l0.01-0.02l0.012-0.127l0.008-0.104l0.056-0.068l0.121-0.113
			l0.178-0.151h0.001l0.01-0.007l0.069-0.045l0.087-0.043l0.087-0.06l0.145-0.083l0.074-0.066l0.102-0.082l0.14-0.1l0.111-0.074
			l0.125-0.051l0.094-0.027h0.001h0.003l0.253-0.021l0.31,0.002l0.31-0.032l0.164-0.063l0.065-0.013l0.146-0.064l0.131-0.068
			l0.117-0.047l0.106-0.033l0.153-0.021l0.122-0.021l0.114-0.018l0.12-0.01l0.104-0.084l0.063-0.053l0.084-0.099l0.161-0.198
			l0.081-0.109l0.067-0.082l0.063-0.08l0,0l0.012-0.014l0.078-0.098l0.032-0.04l0.062-0.069l0.021-0.033l0.014-0.02l0.06-0.072
			l0.066-0.168l0.009-0.121l0.009-0.088l0.026-0.16l0.018-0.114l0.034-0.031l0.02-0.009l0.084-0.035l0.135-0.049l0.116-0.045
			l0.132-0.047l0.112-0.033l0.067-0.027l0,0l0.021-0.008l0.122-0.064l0.09-0.117l0.033-0.02l0.018-0.018l0.029-0.02l0.146-0.117
			l0.05-0.051l0.128-0.084l0.091-0.037l0.104-0.035l0.093-0.039l0.08-0.029l0.094-0.029l0.091-0.037l0.218-0.08l0.126,0.002
			l0.13,0.08l0.126,0.168l0.038,0.073l0.074,0.043l0.048,0.027l0.191,0.032l0.177,0.02l0.031,0.004h0.01l0.147,0.02l0.104,0.02
			l0.085,0.018l0.032,0.006l0.147,0.021l0.047,0.004l0.018,0.002l0.164,0.033l0.043,0.014l0.127,0.025l0.1,0.006l0.018-0.018
			l0.006-0.006l0.05-0.03l0.043-0.04l0.064-0.068l0.064-0.07l0.1-0.123l0.035-0.074l0.007-0.008l0.052-0.139l0.019-0.086
			l0.008-0.123l0.027-0.104l0.026-0.109l0.015-0.064l0.026-0.094l0.012-0.039l0.095-0.174l0.046-0.031l0.086-0.057l0.141-0.043
			l0.152-0.025l0.103-0.016l0.1,0.106l0.103,0.005l0.201-0.023l0.197,0.078l0.04,0.014h0.001l0.076,0.026l0.007,0.001l0.067,0.023
			l0.087-0.004l0.08,0.003l0.048-0.007l0.062-0.002l0.183,0.017l0.021,0.021l0.024-0.045l0.078-0.091l0.09-0.084l0.105-0.12
			l0.062-0.076l0.098-0.072l0.055-0.068l0.048-0.072l0.07-0.045l0.096-0.043l0.105-0.115l0.062-0.076l0.088-0.088l0.05-0.069
			l0.057-0.136l-0.003-0.182l0.015-0.101l0.105-0.136l0.138-0.064l0.096-0.035l0.129-0.056l0.119-0.035L20.86,90.4l0.025-0.131
			l0.003-0.129l-0.051-0.066l-0.021-0.028l-0.078-0.136l-0.057-0.124l-0.039-0.122l0.036-0.123l0.056-0.146l-0.014-0.14l0.003-0.093
			l0.021-0.081l0.033-0.097l0.031-0.096l0.043-0.125l0.039-0.108l0.07-0.144l0.054-0.129l0.046-0.103l0.052-0.12l0.001-0.125
			L21.1,87.93l0.045-0.104l0.056-0.111l0.056-0.126l-0.008-0.107l-0.058-0.11l-0.055-0.095l-0.033-0.088l0.015-0.086l0.038-0.074
			l0.064-0.096l-0.028-0.154l-0.104-0.168l-0.04-0.09l-0.009-0.17l0.046-0.105l0.045-0.104l0.053-0.097l0.07-0.101l0.049-0.205
			l0.027-0.113l0.063-0.098l0.077-0.065l0.095-0.122l-0.008-0.101l-0.034-0.097l-0.014-0.151l0.001-0.113l0.008-0.084l0.008-0.084
			l0.013-0.085l0.005-0.195l0.017-0.109l-0.029-0.131l-0.06-0.117l-0.051-0.12l-0.077-0.151l-0.029-0.121l-0.005-0.136l0.01-0.12
			l0.01-0.142l0.024-0.104l0.016-0.148l0.015-0.127l0.004-0.088l0.022-0.141l0.083-0.101l0.061-0.069l0.083-0.121l0.001-0.123
			l-0.018-0.123l0.002-0.176l0.028-0.102l0.131-0.143l0.054-0.066l-0.08-0.123l-0.092-0.092l-0.102-0.107l-0.087-0.085l-0.104-0.11
			l-0.11-0.102l-0.082-0.088l-0.08-0.084l-0.055-0.102l-0.062-0.113l-0.058-0.082l-0.045-0.104l0.045-0.139l0.048-0.077l0.05-0.104
			l0.011-0.115l-0.018-0.098l-0.014-0.102l-0.056-0.146l-0.048-0.099l0.09-0.056l0.105-0.074l0.082-0.072l0.116-0.039l0.187,0.021
			l0.088,0.023l0.136-0.014l0.137,0.002l0.083,0.041l0.017-0.234l0.02-0.158l0.074-0.145l0.047-0.089l0.055-0.087l0.06-0.094
			l0.096-0.135l0.114-0.111l0.078-0.045l0.142-0.069l-0.011-0.142l0.036-0.123l0.069-0.127l0.056-0.121l0.07-0.242l0.111-0.055
			l0.146-0.024l0.076-0.032l0.075-0.055l0.068-0.053l0.07-0.06l0.119-0.097l0.122-0.037l0.159,0.074l0.084,0.013l0.135,0.005
			l0.101-0.027l0.152-0.078l0.12-0.069l0.098-0.03l0.253-0.148l0.053-0.078l0.055-0.139l0.029-0.105l0.031-0.102l0.024-0.082
			l0.031-0.188l0.055-0.156l0.04-0.076l0.077-0.058l0.062-0.06l0.069-0.063l0.081-0.04l0.179-0.007l0.137,0.009l0.068-0.059
			l0.039-0.088l0.037-0.104l0.034-0.085l0.062-0.088l0.066-0.11l0.009-0.111l0.002-0.116l0.01-0.085l0.007-0.117l-0.055-0.141
			L25.889,74.4l0.076-0.116l-0.006-0.123l0.004-0.088l0.071-0.054l0.212-0.027l0.133-0.042l0.069-0.054l0.07-0.059l0.08-0.074
			l0.104-0.127l0.054-0.072l0.084-0.064l0.094-0.066l-0.128-0.112l-0.092-0.093l-0.048-0.075l-0.033-0.083l-0.047-0.078
			l-0.103-0.098l-0.087-0.021l-0.177,0.012l-0.165-0.039l-0.098-0.023l-0.119-0.029l-0.1-0.029l-0.104-0.049l-0.08-0.046
			l-0.098-0.083l-0.069-0.064l-0.028-0.184l0.031-0.08l0.036-0.084l0.035-0.125l0.062-0.113l0.05-0.076l0.122-0.125l0.075-0.062
			l0.111-0.092l0.064-0.059l0.02-0.168l0.042-0.178l0.058-0.074l0.065-0.146l0.048-0.129l-0.035-0.082l-0.048-0.08l0.045-0.146
			l0.112-0.014l0.107-0.004h0.017l0.138-0.009l0.097-0.011l0.037-0.139l0.049-0.076l0.118-0.086l0.164-0.092l0.069-0.16
			l-0.043-0.123l-0.095-0.166l-0.061-0.086l-0.078-0.1l0.088-0.105l0.115-0.088l0.076-0.049l0.096-0.027l0.097-0.014l0.109,0.002
			l0.114,0.012l0.146-0.059l0.1-0.055l0.107,0.037l0.084,0.019l0.082,0.019l0.074,0.041l0.113-0.008l0.09-0.062l0.083-0.069
			l0.117-0.071l0.022-0.115l0.006-0.024l0.043-0.062l0.07-0.065l0.041-0.056l0.02-0.023l0.052-0.109l-0.14-0.137l-0.089-0.107
			l-0.002-0.021l-0.001-0.004l-0.011-0.122l0.035-0.081l0.028-0.028l0.073-0.031l0.08-0.031l0.016-0.006l0.049-0.055l-0.004-0.051
			l-0.073-0.062l-0.069-0.068l-0.054-0.123l0.027-0.049l0.023-0.043l0.065-0.033l0.105-0.08l0.026-0.051l0.07-0.126l0.038-0.179
			l0.001-0.062l0.005-0.086v-0.007l-0.006-0.104l0.003-0.09l0.021-0.121l0.046-0.084l0.062-0.068l0.095-0.088l0.104-0.137
			l-0.027-0.094l-0.03-0.098l-0.033-0.087l-0.021-0.087l-0.015-0.086l0.014-0.041l0.016-0.039l0.098-0.146l0.097-0.107l0.008-0.022
			l0.043-0.122l-0.024-0.059l-0.039-0.119l0.035-0.055l0.008-0.031l0.104-0.075l0.05-0.116v0.006l-0.017-0.134v-0.009l-0.001-0.034
			l-0.001-0.081l0.024-0.125l-0.007-0.045l-0.068-0.033l-0.07-0.05l-0.08-0.019l-0.068-0.006l-0.064-0.008l-0.167-0.02l-0.072-0.026
			l-0.152-0.018l-0.143-0.031l-0.046-0.004l-0.022-0.002l-0.092,0.007H28.33l-0.027-0.011l-0.076-0.091l-0.063-0.041l-0.143-0.09
			l-0.149-0.021l-0.126-0.086l-0.078-0.122l-0.127-0.124l-0.116-0.056l-0.171-0.104l-0.104-0.066l-0.095-0.006l-0.015-0.113
			l0.044-0.108l-0.015-0.166l-0.223-0.284l0.078-0.154l0.104-0.09l0.123-0.076l0.092-0.012l0.134-0.019l0.198-0.108l0.078-0.137
			l0.104-0.102l0.13-0.104l0.162-0.109l0.051-0.237l0.083-0.101l0.113-0.123l-0.002-0.015l-0.013-0.09l0.01-0.062l0.054-0.063
			l0.04-0.045l0.057-0.16l0.021-0.112l-0.093-0.076l-0.01-0.002l-0.143-0.041l-0.059-0.084l-0.021-0.004l-0.152-0.351l0.069-0.067
			l0.043-0.045l0.068-0.064l0.12-0.227l0.047-0.225l-0.038-0.268l-0.001-0.004l-0.104-0.271l-0.084-0.285l-0.047-0.146l-0.075-0.236
			l-0.003-0.251l0.008-0.286l-0.012-0.251l-0.016-0.241l-0.013-0.342l0.023-0.258l0.03-0.202l0.032-0.106l0.039-0.248l0.03-0.324
			l0.048-0.129l0.065-0.222l0.09-0.299l0.123-0.271l0.17-0.285l0.126-0.225l0.165-0.257l0.039-0.116l0.039-0.332l-0.004-0.197
			l0.018-0.135l0.051-0.193l0.075-0.163l0.04-0.261l-0.021-0.211l0.033-0.303l0.021-0.24l0.021-0.168l0.054-0.238l0.098-0.209
			l0.067-0.125l0.022-0.026l0.032-0.075v-0.011l0.094-0.241l0.042-0.223l-0.003-0.344l0.033-0.2l0.035-0.229l0.02-0.232
			l-0.032-0.155l-0.052-0.148l0.021-0.174l-0.335-0.062l-0.499,0.135l-0.885,0.24l-0.136-0.088l-0.025-0.08l0.029-0.095l0.036-0.13
			l0.03-0.105l0.018-0.167l-0.108-0.036l-0.08-0.04l-0.149-0.096l-0.103-0.011l-0.137,0.002l-0.135-0.006l-0.175-0.065l-0.076-0.048
			l-0.116-0.047l-0.112-0.032l-0.192-0.066l-0.103-0.055l-0.077-0.052l0.029-0.1l0.035-0.138l0.006-0.124l0.062-0.074l0.011-0.108
			l-0.08-0.061l-0.099-0.065l-0.1-0.071l0.03-0.096l0.128-0.089l0.138-0.136l0.034-0.081l-0.016-0.085l-0.034-0.09l0.013-0.096
			l0.045-0.128l0.039-0.172l0.065-0.159l0.094-0.029l0.141-0.006l0.164-0.066l0.167-0.091l0.094-0.021l0.106-0.011l0.103-0.002
			l0.095-0.012l0.23-0.046l0.127-0.025l0.126-0.025l0.135-0.099l0.149-0.109l0.153-0.112l0.148-0.109l-0.011-0.069l-0.011-0.074
			l0.074-0.007l0.103-0.092l0.115-0.089l0.117-0.117l0.094-0.075l0.057-0.064l0.102-0.057l0.181-0.012h0.18l0.099-0.123l-0.033-0.24
			l-0.026-0.252l0.171-0.068l0.164-0.024l0.193,0.024l0.149,0.024l0.18,0.024l0.104-0.095l0.016-0.341l0.074-0.279l0.104-0.202
			l0.061-0.134l0.148,0.147l0.165,0.134l0.209,0.135l0.164,0.134l0.225,0.012l0.358-0.012l0.328-0.049l0.269-0.061l0.224-0.037
			l0.239-0.012l0.254-0.037l0.284,0.024l0.119,0.013l0.139,0.019l0.002,0.195l-0.038,0.306l-0.042,0.236l-0.045,0.171l0.029,0.184
			l0.105,0.146l0.192,0.098l0.284,0.049l0.284,0.012l0.343,0.025l0.329-0.024l0.305-0.095l0.271-0.092l0.271-0.104l0.19-0.023
			l0.229-0.012l0.192-0.054l0.223-0.121l0.314-0.214l0.284-0.103l0.114-0.037l0.166-0.014l0.19-0.034l0.25,0.061l0.215,0.182
			l0.113,0.156l0.071,0.161l0.088,0.153l0.085,0.182l0.214,0.04l0.252,0.01l0.247-0.125l0.17-0.107l0.058-0.104l0.148,0.02
			l0.167-0.03l0.151-0.098l0.045-0.101l0.012-0.205l0.132-0.087h0.252l0.283,0.027l0.228,0.062l0.041-0.074l0.241-0.213l0.087-0.202
			l0.271-0.134l0.192-0.012l0.194,0.171l0.149,0.183l0.09,0.11l0.06,0.085l0.075,0.085l0.164,0.049l0.119,0.037l0.164,0.085
			l0.075,0.146l0.073,0.098l-0.025,0.021l0.135,0.059l0.121,0.049l0.123,0.028l0.096,0.028l0.104,0.049l0.166,0.028l0.178,0.067
			l0.194,0.013l0.169-0.079l0.146-0.029l0.167-0.092l0.123-0.115l0.14-0.146l0.1-0.132l0.083-0.12l0.094-0.083l0.098-0.013
			l0.109,0.043l0.121,0.098l0.355,0.27l0.264,0.204l0.195,0.055l0.308-0.024l0.388-0.081l0.4-0.181l0.146-0.096l0.148-0.138
			l0.061-0.146l-0.005-0.074l0.239,0.009l0.109,0.017l0.156-0.007l0.329-0.003l0.142-0.023l0.179-0.049l0.216-0.019l0.107-0.082
			l0.072-0.103l0.036-0.094l-0.028-0.134l-0.099-0.163l-0.053-0.14l-0.125-0.124l-0.083-0.076l-0.04-0.093l0.052-0.291l0.067-0.056
			l0.158-0.264l0.008-0.115l-0.109-0.082l-0.179-0.156l-0.016-0.157l0.005-0.173l0.094-0.147l0.158-0.102l0.087-0.103l0.023-0.139
			l-0.016-0.122l0.009-0.126l0.041-0.126l0.127-0.009l0.116,0.018l0.161,0.014l0.188,0.015l0.151,0.021l0.295-0.003l0.229-0.006
			l0.237-0.006l0.137,0.008l0.259,0.13l0.202-0.059l0.288-0.197l0.129-0.055l0.119-0.076l0.154-0.046l0.083-0.042l0.104-0.004
			l0.121,0.044l0.108,0.074l0.148,0.061l0.137,0.098l0.181,0.09l0.156,0.076l0.145,0.138l0.145,0.138l0.218,0.164l0.146,0.277
			l0.033,0.226l0.046,0.18l-0.066,0.133l0.052,0.103l0.109,0.066l0.172-0.008l0.107-0.058l0.155-0.048l0.132,0.021l0.082,0.073
			l0.041,0.087l0.079,0.093l0.062,0.076l0.064,0.081l0.201,0.239l0.125,0.114l0.103,0.043l0.188,0.015l0.106,0.012l0.12,0.014
			l0.009,0.027l0.228,0.017l0.131,0.044l0.133-0.002l0.126-0.025l0.161-0.03L57,43.456l0.252,0.117l0.147,0.06l0.128,0.083
			l0.119,0.055l0.118,0.028l0.148,0.073l0.129,0.063l0.101,0.041L58.224,44l0.091,0.021l0.11,0.011l0.144-0.028l0.102-0.04
			l0.115-0.042l0.103-0.056l0.123-0.056l0.17-0.064l0.098-0.016l0.085,0.02l0.053,0.026l0.059,0.046l0.073,0.155l0.058,0.083
			l0.023,0.072l0.102,0.176l0.046,0.066l0.05,0.056l0.092,0.064l0.104,0.038l0.09,0.021l0.078,0.014l0.105,0.008l0.08-0.007
			l0.11,0.011l0.193-0.046l0.075-0.01l0.133-0.069l0.123-0.042l0.106-0.099l-0.006-0.168l-0.003-0.095l0.019-0.08l0.001-0.084
			l0.075-0.081l0.081-0.101l0.038-0.08l0.05-0.065l0.113-0.022l0.103,0.011l0.108,0.058l0.111,0.056l0.083,0.057l0.098,0.048
			l0.1,0.058l0.071,0.047l0.067,0.033l0.146,0.07l0.085,0.027l0.084-0.014l0.183-0.069l0.089-0.027l0.057-0.042l0.047-0.019
			l0.049,0.016l0.061,0.042l0.05,0.06l0.067,0.071l0.071,0.076l0.093,0.041l0.133-0.001l0.08-0.01l0.081-0.003l0.079,0.003
			l0.106,0.015l0.095,0.011l0.1,0.007l0.183,0.077l0.097,0.041l0.105,0.032l0.08,0.05l0.067,0.03l0.069,0.009l0.044-0.032
			l0.06-0.085l0.049-0.092l0.036-0.066l0.062-0.078l0.055-0.079l0.068-0.091l0.069-0.074l0.066-0.058l0.086-0.047l0.07-0.011
			l0.1,0.001l0.101,0.011l0.135,0.02l0.098,0.028l0.099,0.031l0.104,0.028l0.121,0.027l0.092-0.002l0.103-0.04l0.112-0.076
			l0.187-0.185l0.058-0.054l0.089-0.037l0.055-0.005l0.046-0.004l0.087,0.051l0.082,0.081l0.134,0.131l0.055,0.057l0.011,0.01
			l0.068,0.04l0.062,0.05l0.122,0.096l0.098,0.076l0.114,0.045l0.112,0.038l0.132,0.025l0.142,0.021l0.135,0.007l0.102,0.013
			l0.096,0.105l0.098,0.075l0.121,0.042l0.201,0.125l0.099,0.004l0.155,0.033l0.181,0.025l0.208,0.049l0.131,0.03l0.207,0.018
			l0.168,0.031h0.291l0.089-0.161l0.044-0.093l0.016-0.098l0.036-0.103l0.039-0.125l0.081-0.12l0.005-0.007l0.088-0.114l0.134-0.073
			l0.062-0.122l0.105-0.008l0.216,0.133l0.122,0.104l0.243,0.194l0.236,0.076l0.117,0.022l0.062,0.022l0.198,0.01l0.191,0.009
			l0.158-0.016l0.248-0.057l0.115-0.034l0.123-0.047l0.086-0.081l0.096-0.12l0.068-0.056l0.084-0.027l0.066,0.047l0.045,0.045
			l0.11,0.052l0.158,0.079l0.106,0.036l0.123,0.045l0.112,0.053l0.115,0.049l0.11,0.046l0.108,0.064l0.095,0.039l0.122,0.062
			l0.173,0.088l0.054,0.055l0.049,0.05l0.024,0.093l0.02,0.086l0.007,0.137l0.024,0.112l0.106,0.145l0.133,0.052l0.11,0.018
			l0.146-0.007l0.113-0.014l0.148-0.059l0.116-0.061l0.123-0.06l0.094-0.062l0.107-0.074l0.101-0.048l0.187-0.057l0.167-0.043
			l0.156-0.066l0.166-0.086l0.128-0.001l0.126,0.038l0.155,0.078l0.134,0.057l0.092,0.039l0.166,0.04l0.198,0.045l0.096,0.007
			l0.091,0.036l0.007,0.003l0.037-0.082l0.014-0.18v-0.113l0.017-0.133l0.005-0.101l-0.006-0.125l0.009-0.126l-0.071-0.157
			l-0.057-0.151l-0.061-0.155l-0.096-0.155l-0.104-0.171l-0.047-0.143l-0.01-0.145l-0.016-0.136l0.018-0.106l0.016-0.113
			l0.025-0.122l0.012-0.133l0.062,0.004l0.068,0.037l0.129,0.02l0.089,0.025l0.157,0.039l0.197,0.044l0.209,0.031l0.072,0.031
			l0.067,0.081l0.066,0.095l0.032,0.037l0.083,0.05l0.086,0.018l0.169-0.003l0.148-0.018l0.122-0.022l0.103-0.031l0.101-0.006
			l0.091-0.006l0.085-0.028l0.095-0.034l0.085-0.068l0.021-0.102l0.001-0.158l-0.005-0.162l-0.021-0.163l-0.005-0.115l0.022-0.141
			l0.036-0.14l-0.052-0.086L80,41.484l0.012-0.116l0.006-0.166v-0.12l0.001-0.116l-0.026-0.115l-0.016-0.081l0.016-0.082
			l0.064-0.081l0.091-0.068l0.117-0.03l0.112,0.044l0.146,0.058l0.123,0.037l0.127,0.006l0.146-0.001l0.123-0.03l0.123-0.026
			l0.083-0.079l0.062-0.056l0.063-0.021l0.073-0.004l0.077,0.015l0.07,0.035l0.089,0.04l0.095,0.036l0.076,0.015l0.106-0.011
			l0.086-0.04l0.091-0.052l0.092-0.063l0.074-0.099l0.075-0.107l0.068-0.084l0.077-0.056l0.081-0.051l0.096-0.043h0.103l0.131,0.006
			l0.13,0.018l0.131,0.002l0.054-0.006l0.058-0.049l0.073-0.087l0.062-0.112l0.014-0.114l-0.025-0.123l-0.082-0.134l-0.057-0.113
			l-0.041-0.084l-0.041-0.056l-0.045-0.061l-0.01-0.066l-0.019-0.074l0.013-0.108l0.031-0.13l-0.003-0.088l0.033-0.091l0.019-0.074
			l0.02-0.067l0.033-0.084l0.02-0.079l0.012-0.07l0.017-0.076l0.039-0.105l0.031-0.085l0.01-0.085l0.026-0.087l0.025-0.083
			l0.023-0.067l0.025-0.089l0.034-0.09l0.035-0.09l0.039-0.094l0.039-0.092l0.04-0.073l0.046-0.085l0.031-0.068l0.028-0.137
			l0.05-0.088l0.045-0.088l0.062-0.102l0.059-0.107l0.052-0.09l0.043-0.048l0.065-0.034l0.032,0.014l0.06,0.027l0.044,0.024
			l0.041,0.031l0.043,0.024l0.03,0.019l0.051,0.023l0.062,0.021l0.062,0.008l0.056-0.015l0.04-0.017l0.023-0.031l0.007-0.041v-0.049
			l-0.003-0.049l-0.004-0.052l-0.008-0.048l-0.006-0.057l-0.011-0.069l-0.021-0.053l-0.017-0.06l-0.015-0.071l-0.018-0.075
			l-0.019-0.074l-0.022-0.078l-0.021-0.07l-0.023-0.071L84.5,35.293l-0.032-0.087l-0.031-0.055l-0.01-0.062l-0.021-0.062
			l-0.026-0.036l-0.024-0.062l-0.033-0.035l-0.026-0.059l-0.04-0.049l-0.057-0.06l-0.034-0.053l-0.019-0.061l-0.025-0.055
			l-0.043-0.035l-0.044-0.04l-0.048-0.05l-0.036-0.035l-0.041-0.053l-0.027-0.049l-0.024-0.042l-0.01-0.054l0.008-0.076
			l-0.008-0.078l0.001-0.075l-0.001-0.075l-0.005-0.063l0.004-0.086l0.008-0.082l-0.007-0.073l0.006-0.092l0.009-0.085l0.021-0.101
			l0.021-0.077l0.034-0.068L84,33.103l0.062-0.062l0.067-0.051l0.075-0.047l0.081-0.048l0.078-0.052l0.089-0.063l0.072-0.05
			l0.056-0.027l0.109-0.082l0.081-0.093l0.085-0.104l0.062-0.084l0.041-0.091l0.024-0.146l0.012-0.17l0.012-0.076l0.003-0.059
			l-0.006-0.084l-0.021-0.067l-0.005-0.033l-0.03-0.049l-0.053-0.058l-0.063-0.057l-0.109-0.086l-0.075-0.049l-0.093-0.038
			l-0.086-0.039l-0.091-0.069l-0.061-0.047l-0.078-0.04l-0.062-0.041l-0.073-0.037l-0.076-0.048l-0.081-0.042l-0.094-0.057
			l-0.07-0.059l-0.081-0.051l-0.063-0.035l-0.062-0.035l-0.013-0.047l0.009-0.075l0.028-0.065l0.018-0.058l0.004-0.047l0.009-0.062
			l-0.025-0.078l-0.037-0.066L83.507,30.1l-0.054-0.064l-0.039-0.059l-0.028-0.062l-0.037-0.06l-0.021-0.059l-0.051-0.099
			l-0.032-0.062l-0.028-0.065l-0.05-0.077L83.12,29.44l-0.045-0.058L83.02,29.34l-0.072-0.031l-0.081,0.006L82.8,29.304
			l-0.051-0.026l-0.046-0.043l-0.064-0.043l-0.053-0.051l-0.041-0.056l-0.055-0.058l-0.05-0.043l-0.06-0.051l-0.041-0.046
			l-0.062-0.05l-0.08-0.061l-0.061-0.033l-0.07-0.011l-0.062-0.001l-0.074-0.006l-0.067-0.017l-0.047-0.031l-0.044-0.043
			l-0.051-0.05l-0.033-0.063l-0.021-0.06l-0.017-0.068l-0.008-0.053l-0.005-0.054l-0.006-0.07l-0.007-0.04l-0.01-0.073l-0.009-0.057
			l-0.021-0.06l-0.01-0.042l-0.021-0.066l-0.031-0.076l-0.006-0.062l-0.024-0.054l-0.034-0.046l-0.047-0.031l-0.054-0.01
			l-0.055-0.031l-0.038-0.04l-0.002-0.087l0.018-0.118l0.01-0.134l0.005-0.15l0.02-0.201l0.038-0.125l0.04-0.082l-0.019-0.123
			l-0.016-0.086l-0.014-0.071l-0.011-0.055l-0.034-0.103l-0.015-0.038l-0.047-0.101l-0.008-0.099l-0.002-0.111l-0.024-0.147
			l0.01-0.066v-0.126l-0.021-0.139l0.015-0.138l0.026-0.094l0.01-0.074l0.048-0.058l0.063-0.06l0.064-0.061l0.056-0.058l0.031-0.033
			l0.047-0.052l0.027-0.032l0.049-0.073l0.032-0.059l0.03-0.09l-0.002-0.099l-0.015-0.084l-0.011-0.067l0.055-0.065l0.071-0.056
			l0.032-0.05l0.029-0.058l0.039-0.073l0.02-0.07l0.059-0.057l0.071-0.056l0.121-0.029l0.073,0.012l0.078-0.001l0.08-0.02
			l0.094-0.016l0.077-0.048l0.058-0.049l0.083-0.068l0.073-0.063l0.063-0.077l0.022-0.063l0.064-0.092l0.042-0.104l0.029-0.094
			l0.031-0.089l0.041-0.093l0.031-0.098l0.067-0.056l0.09-0.027l0.048-0.007l0.037-0.005l0.043-0.002l0.035-0.002l0.059-0.008
			l0.06-0.013l0.059-0.046l0.034-0.028l0.04-0.019l0.037-0.017l0.046-0.021l0.044-0.017l0.062-0.036l0.04-0.016l0.062-0.023
			l0.048-0.017l0.042-0.015l0.104-0.063l0.082-0.043l0.072-0.048l0.028-0.066l0.005-0.06l-0.025-0.064l-0.059-0.07l-0.061-0.062
			l-0.063-0.054l-0.07-0.046l-0.089-0.06l-0.07-0.051l-0.074-0.055l-0.094-0.067l-0.073-0.071l-0.076-0.09l-0.062-0.083
			l-0.039-0.081l-0.034-0.072l-0.038-0.077l-0.021-0.057l-0.064-0.062l-0.067-0.071l-0.05-0.069l-0.028-0.077l0.028-0.07
			l0.053-0.041l0.052-0.041l0.058-0.049l0.072-0.052l0.065-0.094l0.058-0.084l0.044-0.069l0.036-0.085l0.054-0.065l0.034-0.077
			l0.045-0.077l0.034-0.074l0.007-0.072l0.03-0.082l0.016-0.094L83.87,19.55l0.001-0.045l0.001-0.046l-0.007-0.038l-0.007-0.038
			l-0.015-0.045v-0.042l0.022-0.025l0.025-0.028l0.048-0.027l0.039-0.021l0.08-0.032l0.104-0.027l0.091-0.023l0.101-0.035
			l0.104-0.027l0.09-0.023l0.086-0.027l0.07-0.04l0.062-0.041l0.023-0.018l0.05-0.057l0.035-0.108l0.019-0.108l0.021-0.088
			l0.022-0.102l0.013-0.099l0.014-0.091l0.009-0.084l0.035-0.119l0.021-0.09l0.021-0.09l0.056-0.051l0.025-0.06l-0.013-0.074
			l0.014-0.087l-0.021-0.081l-0.01-0.088l-0.013-0.084l-0.034-0.238v-0.081l0.001-0.06l-0.005-0.109l0.03-0.102l0.022-0.074
			l0.057-0.066l0.074-0.052l0.106-0.023l0.104-0.007l0.099-0.008l0.104,0.013l0.102,0.009l0.089,0.008l0.106,0.021l0.11,0.021
			l0.113,0.001l0.127,0.006l0.104-0.007l0.104-0.015l0.096-0.027l0.087-0.04l0.071-0.048l0.045-0.034l0.025-0.02l0.035-0.027
			l0.047-0.037l0.046-0.059l0.036-0.014l0.034-0.007l0.041,0.002l0.029,0.003l0.021,0.008l0.03,0.013l0.032,0.012l0.041,0.022
			l0.039,0.017l0.037,0.026l0.032,0.019l0.044,0.022l0.035,0.021l0.051,0.025l0.069,0.023l0.068,0.011l0.054,0.001l0.045-0.007
			l0.043-0.008l0.035-0.018l0.035-0.068l0.012-0.074l0.006-0.099l-0.029-0.068l-0.038-0.082l0.005-0.021l-0.015-0.067l-0.017-0.067
			l0.01-0.07l0.023-0.062l0.039-0.062l0.051-0.073l0.062-0.076l0.04-0.081l0.024-0.066l0.024-0.082l0.015-0.066l-0.019-0.051
			l-0.034-0.035l-0.042-0.043l-0.046-0.069l-0.008-0.062V14.95l0.008-0.051l0.039-0.054l0.062-0.048l0.085-0.046l0.063-0.06
			l0.069-0.03l0.077-0.037l0.058-0.032l0.069-0.037l0.047-0.033l0.047-0.024l0.072-0.021l0.055-0.02l0.045-0.017l0.077-0.01
			l0.103-0.05l0.096-0.046l0.077-0.048l0.062-0.052l0.033-0.062l0.045-0.069l0.029-0.07l0.021-0.074l0.029-0.064l0.037-0.047
			l0.044-0.054l0.021-0.046l0.021-0.03l0.04-0.003l0.029,0.004l0.049,0.004l0.034,0.007l0.073,0.005l0.047,0.002l0.043,0.002
			l0.031,0.002l0.043,0.002l0.031,0.002l0.032,0.001l0.047,0.003l0.051,0.002l0.044,0.003l0.032,0.002l0.028,0.002l0.024,0.006
			l0.049,0.011l0.033,0.002l0.048,0.003l0.038,0.007l0.04,0.008l0.037,0.005l0.038,0.005l0.021,0.005l0.053,0.012l0.03,0.011
			l0.036,0.013l0.036,0.008l0.031,0.006l0.053,0.016l0.049,0.011l0.054,0.012l0.045,0.017l0.03,0.011l0.038,0.024l0.035,0.008
			l0.048,0.012l0.048,0.015l0.031,0.01l0.036,0.012l0.036,0.011l0.04,0.012l0.036,0.011l0.055,0.015l0.031,0.008l0.037,0.008
			l0.048,0.009l0.037,0.007l0.053,0.007l0.035,0.008h0.028l0.038-0.004l0.027-0.008l0.02-0.012l0.032-0.02l0.018-0.033l0.001-0.045
			l0.001-0.035l-0.01-0.032l-0.011-0.04l-0.009-0.029l-0.002-0.022l-0.003-0.031l0.008-0.046l0.001-0.024l0.001-0.032l0.001-0.033
			l-0.006-0.033l-0.007-0.038l-0.003-0.021l-0.003-0.026l0.003-0.036l0.014-0.036l0.02-0.033l0.019-0.02l0.031-0.035l0.021-0.02
			l0.021-0.016l0.021-0.016l0.026-0.016l0.043-0.026l0.029-0.018l0.034-0.028l0.032-0.024l0.033-0.021l0.029-0.028l0.02-0.019
			l0.021-0.025l0.021-0.028l0.02-0.03l0.02-0.032l0.01-0.036l0.012-0.035l0.027-0.05l0.019-0.025l0.021-0.032l0.052-0.044
			l0.038-0.029l0.022-0.017l0.029-0.018l0.023-0.006l0.038-0.007l0.038-0.007l0.026-0.007l0.029-0.007l0.024-0.007l0.029-0.009
			l0.012-0.004l0.025-0.006l0.029-0.007l0.035-0.009l0.038-0.01l0.078-0.014l0.026-0.008l0.029-0.009l0.046-0.013l0.044-0.011
			l0.039-0.009l0.027-0.007l0.028-0.006l0.027-0.006l0.034-0.007l0.032-0.014l0.045-0.02l0.03-0.015l0.038-0.019l0.023-0.017
			l0.024-0.019l0.033-0.019l0.021-0.015l0.027-0.026l0.016-0.024l0.001-0.024l0.002-0.03l-0.004-0.041L93.25,12.26l-0.004-0.024
			l-0.019-0.037l-0.021-0.014l-0.025-0.015l-0.029-0.011l-0.033-0.004l-0.026-0.007l-0.033-0.011l-0.015-0.002l-0.021-0.003
			l-0.032-0.005h-0.042h-0.035l-0.038-0.002l-0.029-0.001l-0.058-0.007l-0.038-0.005l-0.033-0.004l-0.056-0.007l-0.062-0.016
			l-0.055-0.015l-0.067-0.017l-0.068-0.016l-0.049-0.012l-0.042-0.016l-0.05-0.014l-0.045-0.019l-0.042-0.018l-0.044-0.024
			l-0.023-0.013L92.091,11.9l-0.004-0.018l-0.003-0.019l0.005-0.026l0.005-0.026l0.016-0.04l0.003-0.019l0.006-0.023l0.007-0.024
			l0.014-0.043l-0.004-0.028l-0.006-0.047l-0.041-0.065l-0.084-0.039l-0.059-0.015l-0.066-0.012l-0.088-0.008h-0.1l-0.078-0.004
			l-0.072-0.007l-0.08-0.015l-0.07-0.027l-0.06-0.038l-0.052-0.045l-0.06-0.054l-0.074-0.059l-0.072-0.078l-0.078-0.067l-0.063-0.07
			l-0.085-0.065l-0.079-0.081l-0.076-0.059l-0.06-0.073l-0.074-0.067l-0.068-0.06l-0.114-0.067l-0.05-0.034l-0.062-0.036
			l-0.092-0.036l-0.092-0.032l-0.087-0.02l-0.087-0.016l-0.093-0.02l-0.102-0.021l-0.093-0.02l-0.08-0.027l-0.098-0.021
			l-0.065-0.009l-0.073,0.001l-0.052,0.005l-0.06,0.004l-0.064,0.001l-0.044,0.016l-0.035,0.012l-0.062,0.007l-0.044,0.004
			l-0.118,0.001l-0.077-0.003l-0.094-0.008h-0.099l-0.067-0.005l-0.053-0.003l-0.089-0.004l-0.052-0.007l-0.066-0.009l-0.062-0.013
			l-0.056-0.012l-0.052-0.021l-0.048-0.019l-0.053-0.046l-0.05-0.043l-0.03-0.032l-0.029-0.026l-0.027-0.029l-0.017-0.024
			l-0.008-0.033l-0.005-0.025l0.003-0.021l-0.007-0.033l-0.005-0.04l-0.011-0.029l-0.005-0.045l-0.005-0.034l-0.002-0.043
			l-0.002-0.028l-0.006-0.025l-0.006-0.027l-0.008-0.032L87.731,9.52l-0.007-0.041L87.717,9.44l0.005-0.044l0.015-0.048l0.01-0.046
			l0.004-0.037l0.003-0.035l0.008-0.04l0.026-0.033l0.021-0.041l0.024-0.038l0.022-0.034l0.024-0.031l0.023-0.03l0.023-0.024
			l0.039-0.04l0.029-0.032l0.029-0.032l0.035-0.029l0.027-0.022l0.033-0.029l0.023-0.02l0.023-0.032l0.02-0.026l0.031-0.035
			l0.004-0.022l0.003-0.027L88.201,8.59l-0.025-0.023l-0.034-0.001l-0.035,0.003l-0.045,0.005L88.028,8.58l-0.033,0.006
			l-0.036,0.007l-0.052-0.004l-0.048-0.004h-0.038h-0.055l-0.072-0.011L87.666,8.56l-0.028-0.013l-0.037-0.018l-0.034-0.017
			l-0.038-0.023l-0.022-0.015l-0.038-0.03l-0.031-0.025l-0.062-0.03l-0.055-0.027l-0.056-0.021L87.22,8.325l-0.046-0.013
			l-0.036-0.01L87.06,8.286L87.024,8.28l-0.047-0.009l-0.065-0.02l-0.083-0.008l-0.062-0.005l-0.04-0.003l-0.055-0.004l-0.067-0.005
			l-0.099-0.004l-0.108-0.001l-0.088,0.003l-0.12-0.008l-0.085-0.003L86.012,8.22l-0.094,0.003l-0.13-0.001l-0.114,0.016
			l-0.129,0.006L85.436,8.26l-0.094,0.007l-0.113,0.006l-0.104,0.012l-0.103,0.007l-0.092,0.016l-0.082,0.003l-0.101,0.03
			l-0.1,0.018l-0.068,0.04l-0.125,0.025l-0.137,0.024l-0.104,0.029l-0.115,0.009l-0.097-0.012L83.913,8.47l-0.072-0.019
			l-0.017-0.048l0.088-0.059l0.043-0.049l0.07-0.044l0.032-0.031l0.048-0.045l0.066-0.044l0.053-0.045l0.058-0.049l0.05-0.069
			l0.009-0.055l0.005-0.067l0.003-0.047l0.006-0.075l0.01-0.075l0.029-0.062l0.062-0.037l0.072-0.044l0.077-0.043l0.071-0.045
			l0.077-0.048l0.066-0.044l0.038-0.058l-0.005-0.065l0.004-0.056l-0.021-0.06l-0.039-0.069l-0.05-0.065l-0.035-0.062l-0.03-0.068
			l-0.033-0.084l-0.02-0.064l-0.024-0.076l0.006-0.083l0.016-0.078l0.001-0.075l0.021-0.074l0.014-0.07l0.017-0.079l0.02-0.066
			l0.013-0.1l0.006-0.083L84.69,5.847l-0.028-0.039l-0.039-0.049l-0.071-0.043L84.455,5.68l-0.102-0.024L84.25,5.655L84.124,5.65
			l-0.113-0.005L83.912,5.64l-0.098-0.008l-0.119,0.006l-0.107-0.001l-0.104-0.001l-0.098-0.009l-0.088-0.016l-0.077-0.038
			l-0.096-0.036L83.048,5.51l-0.055-0.048l-0.064-0.053l-0.048-0.047L82.848,5.29l-0.028-0.075l-0.014-0.067l-0.005-0.059
			l-0.022-0.068L82.736,4.97l-0.031-0.057l-0.039-0.065l-0.065-0.042l-0.067-0.027l-0.076-0.027l-0.092-0.02l-0.094-0.008
			l-0.078-0.007l-0.078-0.022l-0.055-0.024l-0.229-0.212l-0.069-0.043l-0.038-0.045l-0.044-0.042l-0.04-0.04l-0.236-0.237
			L81.401,4.04"/>
	</g>
</g>
<g id="Layer_1">
</g>
</svg>
