<?xml version="1.0" encoding="utf-8"?>
<!-- Generator: Adobe Illustrator 16.0.4, SVG Export Plug-In . SVG Version: 6.00 Build 0)  -->
<!DOCTYPE svg PUBLIC "-//W3C//DTD SVG 1.1//EN" "http://www.w3.org/Graphics/SVG/1.1/DTD/svg11.dtd">
<svg version="1.1" id="Layer_1" xmlns="http://www.w3.org/2000/svg" xmlns:xlink="http://www.w3.org/1999/xlink" x="0px" y="0px"
	 width="301.972px" height="242.576px" viewBox="-139.897 -112.734 301.972 242.576"
	 style="enable-background:new -139.897 -112.734 301.972 242.576;" xml:space="preserve">
<g id="Layer_106">
	<path id="Poonch" style="fill:#CCCCCC;stroke:#FFFFFF;stroke-width:1.15;" d="M-131.551-15.318L-131.551-15.318l0.768,0.555
		l0.554,0.199l0.554,0.163l0.612,0.042l0.355,0.043l0.554,0.206l0.313,0.157l0.355,0.206l0.185,0.085l0.256,0.178l0.312,0.363
		l0.228,0.206l0.298,0.1h0.313l0.242,0.042h0.668h0.213v0.263v0.206l0.298,0.419l0.313,0.22l0.284,0.206l0.199,0.199l0.213,0.207
		l0.085,0.206l0.143,0.199l0.128,0.107l0.114,0.042l0.199,0.249l0.185,0.185l0.441,0.043h0.313l0.341,0.014l0.782-0.014l0.313-0.1
		h0.298h0.341h0.313l0.299,0.042h0.242h0.213l0.298-0.221l0.185-0.071l0.298,0.042l0.555,0.042h0.384l0.341-0.504l0.085-0.192
		l0.17-0.235l0.1-0.042l0.128-0.114l0.143-0.085l0.071-0.092l0.541-0.042l0.284-0.042l0.199-0.043l0.313-0.028h0.27l0.256-0.085
		l0.213-0.078h0.228h0.17h0.298l0.156-0.043l0.271-0.071l0.1-0.043l0.426-0.177l0.285-0.014h0.156h0.313l0.583-0.1l0.199-0.106
		l0.271-0.128l0.284-0.149l0.299-0.114l0.298-0.114l0.256-0.085l0.313-0.092l0.171-0.071l0.256-0.071l0.298-0.107l0.185-0.085
		l0.313-0.128l0.114-0.057l0.27-0.078l0.313-0.142l0.213-0.121l0.143-0.1l0.156-0.142l0.228-0.121l0.241-0.114l0.37-0.092
		l0.271-0.028l0.256-0.085l0.312-0.028h0.541h0.313h0.256h0.327l0.256,0.042l0.27,0.085l0.398,0.092l0.312,0.085l0.242,0.085
		l0.256,0.121l0.256,0.1l0.228,0.142l0.17,0.149l0.128,0.249l0.114,0.185l0.1,0.121l0.242,0.142l0.299,0.078l0.27,0.042l0.384,0.114
		l0.213,0.057l0.299,0.1l0.597,0.192l0.313,0.092l0.469,0.142l0.213,0.043l0.285,0.114l0.256,0.078l0.114,0.014l0.128,0.015
		l0.171,0.057h0.256l0.213,0.014h0.312h0.199l0.228-0.071l0.313-0.234l0.256-0.157l0.313-0.263l0.242-0.207l0.284-0.234l0.142-0.221
		l0.185-0.17l0.17-0.192l0.199-0.17l0.114-0.149l0.142-0.156l0.128-0.164l0.157-0.234l0.127-0.128l0.185-0.143l0.313-0.426
		l0.285-0.171l0.312-0.164l0.142-0.042l0.029-0.106l0.199-0.043l0.327-0.085l0.199-0.085l0.199-0.071l0.498-0.014l0.298-0.049
		l0.299-0.071l0.341-0.014l0.611-0.085h0.313l0.199,0.014l0.298,0.043l0.256,0.014l0.299,0.042l0.313,0.042l0.312,0.05h0.285h0.298
		l0.284-0.05l0.298-0.114l0.285-0.099l0.142-0.05l0.654-0.156l0.228-0.085l0.256-0.092h0.256l0.313,0.192l0.256,0.142l0.185,0.263
		l0.128,0.164l0.298,0.32l0.156,0.164l0.213,0.142l0.256,0.043h0.285h0.583h0.298h0.313l0.27-0.057l0.299-0.085h0.541l0.682-0.092
		l0.298-0.043l0.27-0.014l0.924-0.192l0.398,0.036h0.668l0.284-0.036l0.341-0.071h0.341h0.597h0.299h0.298h0.27h0.555l0.299,0.042
		h0.312l0.298-0.085l0.299-0.099l0.227-0.015h0.171l0.213,0.143l0.114,0.334l0.028,0.277l0.057,0.192l0.071,0.249l0.1,0.185
		l0.17,0.192l0.114,0.192l0.271,0.199l0.1,0.306l0.085,0.32v0.192l0.029,0.22l0.114,0.157l0.085,0.206l0.114,0.043l0.271,0.263
		l0.27,0.185l0.128,0.191l0.142,0.263l0.043,0.206l0.099,0.185l0.128,0.164l0.17,0.085l0.057,0.22l0.171,0.263l0.228,0.17
		l0.085,0.44v0.256l-0.015,0.121v0.234v0.185L-67.5-9.09l0.057,0.121l0.199,0.128l0.171,0.121l0.185,0.156l0.114,0.057l0.157,0.121
		l0.17,0.085l0.057,0.057l0.199,0.093l0.015,0.057l0.114,0.042l0.298,0.569l-0.526,0.143l0.042,0.263l0.057,0.191l0.085,0.242
		l0.157,0.22l0.142,0.135l0.128,0.228l0.085,0.22l0.085,0.192l0.071,0.185l0.142,0.135l0.1,0.071v0.192l0.028,0.306l0.114,0.185
		l0.128,0.178l0.128,0.234l0.142,0.142h0.099l0.398,0.292l0.057,0.014l0.128,0.114l0.27,0.149l0.1,0.057l0.028,0.092l0.1,0.114
		l0.014,0.157l0.057,0.121l0.1,0.085l0.114,0.263l0.085,0.22l0.1,0.157l0.156,0.163l0.242,0.043h0.285l0.298-0.164l0.299-0.128
		l0.256-0.057l0.156-0.079l0.085-0.114l0.085-0.156v-0.064l0.042-0.17l0.043-0.192l0.17-0.156l0.313-0.149l0.242-0.057l0.312-0.043
		l0.299-0.149l0.114-0.114v-0.249l0.085-0.22l0.142-0.213l0.17-0.164l0.299-0.142l0.469-0.384l0.128-0.156l0.142-0.164l0.17-0.419
		l0.057-0.192l0.228-0.071l0.313,0.057l0.185,0.121l0.313,0.32l0.171,0.228l0.256,0.234l0.256,0.178l0.299,0.114l0.312,0.121
		l0.583,0.419l0.271,0.192l0.397,0.114l0.299,0.057l0.44,0.164l0.711,0.242l0.967,0.312l0.298,0.228l0.768,0.32l0.228-0.057
		l0.469-0.029h0.37h0.313h0.412h0.483h0.37l0.298,0.043l0.341,0.206l0.398,0.185l0.256,0.036L-46.5-2.33l0.27-0.015l0.071-0.078
		l0.128-0.228l0.298-0.37l0.199-0.185l0.924-0.192h0.142h0.298l0.213-0.085l0.256-0.164l0.242-0.114h0.583v-0.235l0.1-0.042
		l0.682,0.121l0.199,0.114l0.313,0.085l0.298,0.163l0.256,0.057l0.298,0.142l0.412,0.135l0.199,0.071l0.427,0.071l0.327,0.071
		l0.412,0.064l0.384,0.085l0.298,0.028l0.313,0.057l0.27,0.014l0.313,0.049h-2.147h0.341l0.299-0.049h0.341h0.242h0.27h0.313h0.213
		l0.27,0.078l0.298,0.114l0.327,0.114l0.171,0.014l0.313,0.014h0.384h0.441h0.398l0.242,0.028l0.213,0.05h0.313l0.114,0.085
		l0.284,0.22v0.292l0.156,0.277l0.213,0.114l0.213,0.142l0.299,0.263l0.185,0.15l0.271,0.085l0.128,0.085l0.114,0.192l0.199,0.192
		l0.071,0.143l0.228,0.191l0.156,0.114l0.299,0.085l0.313,0.078l0.17,0.128l0.199,0.071l0.17,0.107l0.185,0.157l0.17,0.071
		l0.142,0.135l0.128,0.143l0.242,0.121l0.298,0.071l0.313,0.029h0.213h0.27h0.185l0.298,0.014v0.191v0.462l0.1,0.32l0.142,0.149
		l0.171,0.114l0.228,0.164l0.312,0.213l0.1,0.106l0.057,0.235l0.057,0.185l0.114,0.32l0.028,0.348l0.085,0.263l0.028,0.306
		l0.114,0.426v0.256l0.029,0.206l0.185,0.221l0.157,0.071h0.298h0.256l0.427,0.057l0.313-0.114l0.526-0.014h0.824l0.398-0.135
		l0.455,0.093l1.265,0.796l0.668,0.149h0.896l0.91,1.152l0.256,0.277l1.536,0.711l0.867,0.377l0.995,1.138l1.052,0.554l0.668,0.534
		l0.71,0.761l0.697,0.554l0.739,0.598l0.711,0.434l0.91,0.761l1.138,0.597l0.796,0.156l1.621,1.287l1.038,0.597l0.967,0.541
		l2.047,0.597l1.023,0.285l0.612,0.227l0.014-0.028l0.284,0.085L1.343,19.7l1.166,0.626l0.981,0.568l0.91,0.512l0.896,0.598
		l0.825,0.512l0.64,0.312l0.683,0.342l0.895,0.455l2.375,1.236l1.522,0.441l1.719,1.336l-0.412,0.498l-0.355,0.383l-0.383,0.3
		l-0.312,0.298l-0.199,0.356v0.454l0.057,0.412l0.426,0.313l0.27,0.256l-0.938,0.213l-0.299,0.198l-0.057,0.3l0.156,0.199h0.668
		l0.271,0.113v0.284l0.041,0.27l0.113,0.3L12.276,31.7l0.441,0.086L13,31.985l0.301,0.198l0.197,0.257l0.355,0.241l0.312,0.27
		l0.029,0.284l0.299,0.284l-0.029,0.284v0.257l0.229,0.555l0.029,0.241v0.355l0.027,0.271v0.512l0.127,0.128l0.398,0.271
		l0.285,0.227l0.199,0.156l0.582,0.228l0.312,0.129l0.186,0.17h0.285l0.24,0.355l0.242,0.157l0.312,0.241h0.469h0.242h0.541
		l0.256-0.114l0.143-0.127l0.113-0.086l0.227-0.156l0.441-0.156l0.199-0.256l0.199-0.143l0.242-0.186l0.312-0.184l0.256-0.114
		l0.299-0.1l0.184-0.17l0.471-0.086l0.199,0.015l0.354,0.042h0.314l0.396,0.113l0.328,0.086l0.312,0.128l0.256,0.114l0.285,0.127
		l0.242,0.129l0.512,0.256l0.24,0.156h0.199h0.271l0.312-0.213l0.084-0.285l0.156-0.312l0.242-0.299l0.129-0.327l0.256-0.284
		l0.213-0.199l0.312-0.142l0.469-0.028l0.314-0.1l0.297-0.156l0.498-0.171l0.342-0.228l0.299-0.185l0.297,0.099l0.242-0.099h0.199
		l0.312-0.015l0.285-0.028l0.24-0.014l0.584-0.057l0.256-0.214l0.27-0.156l0.299-0.085l0.143-0.058l0.441-0.185l0.256-0.114
		l0.439-0.085h0.455l0.328-0.028l0.299-0.086l0.242-0.057l0.297-0.228l0.256-0.171l0.299-0.042h0.285h0.299h0.199l0.24,0.042
		l0.215,0.057l0.27,0.029h0.299h0.297h0.229h0.299l0.326-0.086l0.328-0.127l0.213-0.171l0.242-0.128h0.539l0.441-0.028l0.27-0.057
		l0.312-0.085l0.229-0.114l0.312-0.142l0.299-0.101l0.441-0.185l0.299-0.028l0.426-0.028l0.326-0.214l0.186-0.185l0.299-0.113
		l0.17-0.199l-0.057-0.398l0.625-0.085h0.299h0.584h0.312h0.582h0.641h0.555h0.598l0.482,0.057l0.484,0.086h0.682h0.512H52h0.113
		l0.271-0.058l0.299-0.028h0.312l0.299-0.057h0.312h0.256l-0.043,0.171h0.369h0.854l0.668,0.028l0.312,0.014l0.299,0.015
		l0.385,0.028l0.113,0.1v0.113l-0.029,0.186l-0.084,0.185l-0.129,0.185l-0.299,0.171L56.196,31.7l-0.256,0.241l-0.412,0.228
		l-0.215,0.129l-0.199,0.143l-0.297,0.198l-0.285,0.114l-0.27,0.198l-0.312,0.256l-0.242,0.186l-0.285,0.27L53.11,33.89
		l-0.299,0.284l-0.213,0.299l-0.127,0.241l-0.086,0.199v0.199v0.171v0.199v0.271l0.057,0.298l0.229,0.312l0.154,0.313l0.086,0.298
		l0.186,0.214l0.256,0.113l0.184,0.1l0.229,0.157l0.129,0.17l0.24,0.086l0.129,0.184l0.227,0.157l0.299,0.171l0.299,0.228
		l0.369,0.185l0.271,0.156l0.297,0.114l0.342,0.185l0.312,0.128l0.441,0.128l0.299,0.185l0.312,0.213l0.299,0.086l0.383,0.411v0.285
		l-0.113,0.47l-0.129,0.54l-0.127,0.355l-0.17,0.299l-0.1,0.27l-0.029,0.299l-0.07,0.299l-0.143,0.326l-0.043,0.271v0.298
		l-0.641,0.868l-0.469,0.455l-0.213,0.256l-0.242,0.171l-0.299,0.213l-0.184,0.113l-0.299,0.129l-0.229,0.057l-0.27,0.171
		l-0.27,0.198l-0.186,0.228l-0.27,0.242l-0.256,0.241l-0.17,0.327l-0.158,0.54l-0.113,0.114l-0.127,0.199l-0.072,0.185l-0.184,0.284
		l-0.17,0.228l-0.115,0.284l-0.156,0.157l-0.242,0.298l-0.127,0.256l-0.186,0.312l-0.186,0.455l-0.041,0.228l0.014,0.327v0.312
		l0.199,0.356l0.199,0.298l0.199,0.271l0.156,0.256l0.127,0.241l0.271,0.242l0.199,0.283l0.34,0.398l0.213,0.186l0.172,0.156
		l0.299,0.17l0.184,0.171l0.199,0.186l0.256,0.27v0.47v0.213l-0.07,0.256l-0.072,0.256l-0.113,0.455v0.412v0.214v0.228v0.312
		l0.043,0.256l0.027,0.27l0.043,0.271l0.029,0.212v0.569l0.029,0.214l0.098,0.198l0.057,0.284l0.086,0.186l0.057,0.213l0.057,0.228
		l0.242,0.284l0.129,0.427l0.084,0.369l0.115,0.256l0.227,0.313l0.199,0.455l0.199,0.299l0.242,0.298l0.312,0.342l0.299,0.014
		l0.312-0.014l0.256-0.171l0.17-0.114L58,63.677l0.213-0.114l0.412-0.186l0.312-0.312l0.271-0.228l0.312-0.113l0.355-0.171
		l0.312-0.213l0.299-0.299l0.312-0.185l0.328-0.199l0.312-0.157l0.426-0.17l0.541-0.171l0.127-0.143l0.299-0.014h0.385h0.896
		l0.084,0.014l0.584,0.028l0.312,0.086l0.24,0.028l0.312,0.028l0.557,0.028l0.297,0.057h0.471l0.184,0.028l0.271,0.029l0.283,0.085
		l0.385,0.085h0.27h0.312h0.299l0.426,0.028l0.412,0.029l0.299,0.043l0.314,0.042l0.668,0.157l0.299,0.057l0.283,0.057l0.725,0.156
		l0.299,0.085l0.697,0.028l0.582,0.057l0.242,0.058l0.285,0.057l0.256,0.085l0.639,0.143l0.385,0.057l0.455,0.086l0.369,0.028
		l0.312,0.057l0.285,0.128l0.498,0.058l0.482,0.185l0.242,0.085l0.297,0.085l0.285,0.072l0.84,0.184l0.383,0.143h0.271l0.227,0.057
		l0.029,0.199v0.312v0.313l-0.072,0.326l-0.1,0.37l0.1,0.327l0.043,0.171l0.014,0.427v0.739v0.156V67.5v0.299l0.115,0.199
		l0.283,0.327l0.199,0.242l0.186,0.184l0.24,0.257l0.314,0.284l0.283,0.242l0.398,0.469l0.312,0.369l0.285,0.199l0.598,0.512
		l0.496,0.455l0.229,0.143l0.242,0.284l0.283,0.313l0.355,0.439l0.229,0.214l0.227,0.171l0.355,0.284l0.299,0.228l0.312,0.241
		l0.299,0.3l0.525,0.227l0.342,0.142l0.342,0.171l0.326,0.199l0.299,0.271l0.312,0.241l0.299,0.228l0.256,0.113l0.299,0.228
		l0.27,0.3l0.27,0.298l0.314,0.341l0.1,0.228l0.283,0.313l0.242,0.185l0.398,0.185l0.256,0.143l0.297,0.228l0.242,0.171l0.299,0.312
		l0.385,0.213l0.469,0.242l0.426,0.298l0.414,0.214l0.297,0.313l0.385,0.228l0.482,0.354l0.371,0.171l0.299,0.128l0.354,0.17
		l0.301,0.086l0.184,0.085l0.484,0.057l0.113,0.171l0.342,0.214l0.299,0.155l0.51,0.313l0.328,0.284l0.369,0.284l0.312,0.299
		l0.441,0.469l0.312,0.313l0.342,0.284l0.299,0.312l0.227,0.256l0.27,0.313l0.314,0.341l0.297,0.37l0.312,0.312l0.271,0.427v0.312
		l-0.498-0.128h-0.199h-0.582l-0.484,0.071l-0.553,0.171l-0.301,0.142l-0.027,0.313l0.498,0.625l-0.285,0.199l-0.738,0.497
		l-0.498,0.213l-0.611,0.313l-0.412,0.312l-0.455,0.356L97.91,90.05l-0.527,0.369l-0.439,0.513l-0.969,0.085l-1.52-0.654
		l-2.119,0.711l-0.312,0.086l-0.342,0.17l-0.312,0.186L90.887,91.6l-0.314,0.128l-0.24,0.256l-0.299,0.171h-0.27l-0.186-0.028
		l-0.299-0.143l-0.312-0.085l-0.455-0.114L88.1,91.699h-0.312l-0.299-0.071l-0.91-0.057l-0.299,0.085l-0.641,0.186l-0.283,0.099
		l-0.312-0.014l-0.824-0.114l-0.654-0.341l-0.328-0.113l-0.312-0.427l-0.299-0.128l-0.312-0.242l-0.256-0.085l-0.312-0.071h-0.27
		h-0.312h-0.271h-0.285l-0.297,0.043h-0.312h-0.385l-0.312-0.014l-0.469-0.016h-0.314h-0.369h-0.256l-0.256,0.058l0.029,0.299
		l0.27,0.27l0.27,0.228l0.242,0.171l0.299,0.171l0.326,0.582l0.256,0.242l0.271,0.355l0.127,0.327l0.229,0.37l0.312,0.312l0.1,0.199
		l0.127,0.54v0.128l-0.127,0.597v0.313l-0.143,0.256l-0.256,0.241l-0.299,0.228l-0.312,0.113l-0.385,0.028l-0.496,0.114
		l-0.641,0.028l-0.881,0.028h-0.512l-0.299,0.028l-0.471,0.057l-0.396,0.058l-0.312,0.113l-0.215,0.143v0.312l0.016,0.569
		l0.17,0.355l0.242,0.397l0.412,0.299l0.426,0.27l0.541,0.228l0.326,0.328l0.258,0.54l-0.172,0.37l0.213,0.312l0.057,0.341
		l0.158,0.228l0.027,0.341l-0.027,0.882l0.057,0.299l0.113,0.185v0.299v0.384v0.341v0.427v0.455v0.383l-0.016,0.398l-0.084,0.271
		l-0.115,0.299l-0.312,0.228l-0.113,0.214l-0.555,0.383l-0.412,0.242l-0.312,0.143l-0.641,0.085l-0.396,0.086l-0.27,0.113
		l-0.285,0.171l-0.441,0.155l-0.369,0.143l-0.285,0.085l-0.326,0.129l-0.398,0.113l-0.512,0.057l-0.312,0.113l-0.611,0.284
		l-0.385,0.228l-0.312,0.214l-0.355,0.213l-0.299,0.199l-0.355,0.199l-0.326,0.199l-0.484,0.299l-0.498,0.228l-0.469,0.241
		l-0.299,0.199l-0.426,0.228l-0.697,0.568l-0.299,0.313l-0.283,0.27l-0.299,0.312l0.213,0.683l0.086,0.242l0.312,0.312l0.129,0.37
		l0.199,0.241l0.154,0.328l0.172,0.298l0.227,0.298l0.229,0.385l0.227,0.383l0.215,0.427l0.227,0.398l0.428,0.641l0.256,0.469
		l0.354,0.369l0.314,0.313l0.354,0.369l0.312,0.27l0.301,0.413l0.027,0.398l0.229-0.114l0.354-0.142l0.285-0.043h0.598h0.369
		l0.312-0.1l0.312-0.028l0.314-0.057h0.297l0.91,0.057l0.299-0.057l0.398-0.214l0.598-0.228h0.355l0.582-0.185l0.426-0.327
		l0.982-0.128l0.299-0.085l0.654-0.384l0.326-0.128l0.498-0.058l0.297-0.17l0.314-0.257l0.283-0.227l0.242-0.114l0.299-0.213
		l0.398-0.242l0.299-0.085l1.236-0.143h0.582h0.854l0.215-0.085l0.312-0.171l0.426-0.37l0.07-0.298l0.172-0.555l0.227-0.426
		l0.213-0.312l0.215-0.257l0.184-0.228l0.213-0.426l0.1-0.171l0.242-0.284l0.213-0.242l0.312-0.185l0.455-0.256l0.312-0.299
		l0.258-0.242l0.242-0.185l0.312-0.057l0.426-0.028h0.312l0.299,0.085l0.312,0.185l0.441,0.199l0.383,0.228l0.256,0.256l0.285,0.213
		l0.127,0.114l0.312,0.271l0.301,0.113l0.482,0.199l0.283,0.028l0.812,0.143l0.297,0.085l0.312,0.058l0.484,0.028l0.369,0.028
		l0.441,0.127l0.754,0.044h0.256l0.342-0.313l0.098-0.256l0.229-0.256l0.113-0.214l0.227-0.171l0.045-0.184l0.07-0.171v-0.299
		v-0.213v-0.213v-0.114v-0.185l0.156-0.299l0.229-0.085l0.865-0.157l0.328-0.142l0.525-0.143l0.441-0.028h0.412l0.312-0.27
		l0.412-0.385l0.428-0.312l0.326-0.143l0.312-0.256l0.299-0.199l0.326,0.057l0.355,0.228l0.199,0.313l0.299,0.412l0.17,0.271
		l0.271,0.512l0.184,0.256l0.271,0.597l0.27,0.199l0.299,0.483l0.213,0.257l0.113,0.27l0.242,0.441l0.482,1.108l0.215,0.299
		l0.227,0.214l0.299,0.411l0.369,0.27l0.299,0.328l0.428,0.185l0.598,0.17l0.766,0.086h0.314h0.482l0.312-0.256l0.414-0.185
		l0.326-0.186l0.426-0.171l0.811-0.369h0.881l0.357,0.128h0.34l0.256-0.298l0.342-0.427l0.213-0.142l0.271-0.199l0.283-0.143h0.541
		l0.426,0.512l0.768,0.682l0.312,0.284l0.428,0.37l0.312,0.312l0.299,0.328l0.312,0.27l0.312,0.199l0.385,0.341l0.227,0.228
		l0.27,0.284l0.312,0.199l0.312,0.114l0.301,0.128l0.383,0.086l0.342,0.155h0.398h0.283l0.355,0.241l0.881,0.328l0.328,0.213
		l0.541,0.299l0.312,0.171l0.369,0.185l0.312,0.256l0.312,0.185l0.314,0.058l0.412,0.142l0.34,0.058l0.412,0.198l0.598,0.058
		l0.482,0.085l0.371,0.128l0.455,0.17l0.398,0.086l0.482,0.242l0.383,0.383l0.654,0.598l0.441,0.597l0.299,0.185l0.312,0.356
		l0.299,0.427l0.312,0.256l0.896,0.326h0.398h0.738l0.342-0.312l0.895-0.483l0.598-0.171l0.541-0.312l0.881-0.213l0.355-0.3h0.824
		l0.711-0.411l0.299-0.271l0.342-0.171l0.498-0.171l-0.355-0.312l-0.398-0.569l-0.299-0.597l-0.996-0.328l-0.525-0.326l-0.27-0.782
		l-0.314-0.498l-0.512-0.298l-0.482-0.654l-0.596-1.138l-0.398-0.811l-0.527-0.71l-0.27-0.284l-0.328-0.37l-0.725-0.626
		l-0.654-0.625l-0.91-0.711l-0.809-0.569l-0.91-0.597l-0.654-0.455l-0.896-0.598l-0.426-0.284l-0.881-0.284l-0.158-0.839
		l0.215-1.394v-0.668v-0.17l-0.527-0.513l-0.525-0.625l-0.498-1.151l-0.824-0.896l-0.725-2.673l0.197-0.683l0.385-0.995l0.867-1.166
		v-0.796l-0.283-1.166v-0.739l0.256-1.18l0.07-0.896v-0.896l-0.213-1.123v-1.053l0.156-1.394L127,88.003l0.512-0.654l0.199-0.54
		l-0.371-0.854l-0.469-0.597l-0.469-0.342l-0.598-0.427l-0.455-0.497l-0.299-0.726l-0.596-0.383l-0.256-1.053l-0.215-1.337
		l-0.652-0.952l0.213-1.194l0.057-0.341l0.455-0.854l0.439-0.654l0.299-0.838l0.385-0.598l0.213-0.896l-0.014-0.91v-0.995v-0.654
		l-0.156-0.854l-0.057-0.597l-0.285-0.683l-0.441-0.711l-0.312-0.512l-0.441-0.455l-0.283-0.427l-0.582-0.811l-2.049-0.768
		l-1.008-0.427l-0.57-0.711l-0.525-1.079l-0.213-1.096l-1.039-0.938l-0.867-0.683l-0.469-0.37l-0.783-0.71l-0.596-0.455
		l-1.109-0.653l-0.98-0.654l-0.725-1.081l-0.314-1.023l-0.299-1.138l-0.143-1.151v-1.407l0.271-1.28l0.525-0.327l1.492-0.483
		l0.939-0.241l1.238-0.312l0.24-0.541l0.74-0.91l0.711-0.653l0.213-1.109l0.383-0.938l0.199-0.84l0.072-0.668l0.668-0.896
		l0.582-0.554l0.242-1.052l-0.84-0.74l0.072-0.427l0.754-0.625l0.725-0.497l0.584-0.213l1.32-0.626l0.797-0.54l0.256-0.186
		l0.725-1.009h0.016l0.895-1.224l1.338-0.568l0.582-0.312l0.654-0.313l0.299-0.455l0.312-0.739l0.512-0.853l0.555-0.512l0.312-0.711
		l0.441-0.938l0.299-0.54l0.312-0.512l0.156-0.398l0.27-0.427v-0.654v-0.568l-0.156-0.256l0.156-0.313l0.498-0.312l0.312-0.454
		l0.412-0.427l0.312-0.555l0.514-0.668l0.354-0.455l0.385-0.341l-0.043-0.328l0.299-0.213l-0.1-0.683l-0.299-0.895l-0.398-0.783
		l-0.299-0.497l-0.525-0.669l-0.299-0.71l-0.299-1.081l-0.227-0.369l-0.229-0.455v-0.228v-0.654l0.072-0.554l0.312-0.669l0.199-0.44
		l0.539-0.391l0.342-0.278l0.67-0.455l0.68-0.27l0.199-0.234l1.053-0.611l0.854-0.555l0.811-0.277l0.598-0.334l0.953-0.448
		l0.512-0.384l0.725-0.448l0.596-0.376l0.314-0.178l0.297-0.391l0.229-0.334l0.227-0.278l0.271-0.291l0.512-0.611l0.299-0.263
		l0.412-0.668l0.525-0.654l0.156-0.234l0.371-0.235l0.127-0.177l0.242-0.213l0.426-0.398l0.299-0.277l0.27-0.334l0.312-0.334
		l0.299-0.391l0.727-0.434l0.184-0.298l-0.084-0.271l0.084-0.455V0.699v-0.903l0.059-0.398l0.141-0.547l0.512-0.732l0.299-0.447
		l0.242-0.221l0.498-0.391l0.369-0.277l0.439-0.334l0.514-0.398h0.668l0.895,0.277l0.527,0.057h0.596h0.711l0.385-0.271l0.512-0.676
		l0.285-0.447v-0.441v-0.505v-0.391l0.555-0.469l0.91-0.376l-0.812-0.889l-1.08-1.152l-0.895-0.832l-1.066-0.476l-0.783-0.355
		l-0.299-0.128l-0.795-0.292l-1.85-0.526l-0.938-0.213l-0.312-0.121l-0.682-0.291l-0.102-0.292l-0.17-0.555v-0.931l-0.014-0.931
		v-0.931l-1.223-0.405l-0.768-0.32l-0.953-0.512l-0.738-0.519l-1.139-0.455l-0.924-0.377h-0.1h-0.312l-0.129-0.625v-0.733v-0.526
		l0.342-0.725l0.555-0.235l0.383-0.171l0.357-0.22h1.094h0.881h0.611h0.896l0.611,0.206h0.17h0.229l0.355-0.206l-0.256-0.419
		l-0.91-0.832l-0.299-0.626l-0.229-0.206l-0.297-0.319l-0.484-0.726l-0.285-0.426l-0.283-0.825l-0.242-0.263l-0.299-0.277
		l-0.482-0.413l-0.611-0.519l0,0l-0.939-0.405l-0.625-0.313l-0.525-0.285l-0.867-0.44l-0.213-0.114l-0.172-0.107l-0.398-0.505
		l-0.084-0.121l-0.541-0.292l-0.199-0.114l-0.455-0.192l-0.512-0.221l-1.492-0.924l-0.328-0.22l-0.512-0.306l-0.596-0.526
		l-0.783-0.725l-0.439-0.483l-0.5-0.554l-0.951-1.031l-0.967-1.052l-1.236-2.083l-0.939-0.839l-0.299-0.732l-0.143-0.932
		l-0.34-0.838l-0.426-0.69l-0.172-0.249l-0.355-0.945l-0.07-0.52l-0.057-0.412l-0.484-1.045l-0.27-0.234l-0.299-0.292l-0.113-0.931
		v-1.236v-0.726l0.227-1.052l0.07-0.071l0.414-0.455v-1.151l-0.029-0.085l-0.242-0.64l-0.895-0.42l-0.611-0.817l-0.967-1.663
		l-1.508-1.877l-0.754-1.557l-0.482-1.557l-0.484-0.625l-0.611-0.846l-0.895-1.13l-0.158-0.647l-0.141-0.711l-0.514-0.846
		l-0.879-1.059l-0.896-1.884l-0.199-0.042l-0.91-0.17l-0.939-1.358l-0.908-1.045l-0.74-1.663l-0.525,0.277l-0.186,0.121
		l-0.129,0.057l-0.141,0.071l-0.213,0.114l-0.102,0.064l-0.354,0.185l-0.299,0.135l-0.412,0.292l-0.342,0.263l-0.285,0.213
		l-0.412,0.071l-0.1,0.092l-0.283,0.206l-0.412,0.014h-0.285l-0.312-0.014l-0.199,0.028l-0.227,0.029H106h-0.072h-0.113h-0.326
		h-0.299h-0.129h-0.426h-0.924h-0.527h-0.213l-0.754-0.029l-0.312-0.028l-0.199-0.036h-0.682h-0.312h-0.314l-0.312,0.164
		l-0.199,0.32l-0.127,0.292l-0.086,0.128l-0.141,0.22l-0.186,0.178l-0.156,0.185l-0.312,0.306l-0.186,0.249l-0.299,0.377
		l-0.283,0.149l-0.172,0.1l-0.07,0.028l-0.086,0.071l-0.299,0.164l-0.027,0.014L97.1-67.568l-0.285,0.1l-0.199,0.142l-0.299,0.235
		l-0.084,0.071l-0.213,0.178l-0.086,0.1l-0.129,0.106l-0.127,0.25l-0.1,0.199l-0.17,0.206l-0.172,0.362l-0.299,0.32l-0.143,0.121
		l-0.184,0.17l-0.156,0.128l-0.299,0.277l-0.242,0.149l-0.398,0.128l-0.312,0.093l-0.299,0.1l-0.213,0.085l-0.057,0.014
		l-0.824,0.042l-0.441,0.064l-0.227,0.071l-0.115,0.014l-0.312,0.249l-0.184,0.32l-0.312,0.32l-0.229,0.363l-0.113,0.334
		l-0.312,0.306l0,0l-0.299,0.249l-0.059,0.042l-0.326,0.277l-0.256,0.142l-0.312,0.277l-0.143,0.135l-0.084,0.057L88-60.701
		l-0.242,0.164l-0.283,0.334v0.291v0.221v0.228v0.32v0.292l-0.029,0.277l-0.027,0.22l-0.072,0.32l-0.014,0.292l-0.072,0.292
		l-0.127,0.149l-0.086,0.099l-0.227,0.249l-0.199,0.085l-0.199,0.071l-0.312,0.221l-0.299,0.128l-0.312,0.135l-0.086,0.028
		l-0.299,0.207l-0.283,0.142l-0.299,0.157l-0.299,0.014l-0.186,0.021l-0.07,0.014l-0.213,0.057l-0.398,0.057l-0.312,0.149
		l-0.215,0.057l-0.057,0.028l-0.512,0.014l-0.568,0.434l-0.625,0.234l-0.299,0.156l-0.312,0.249l-0.299,0.277l-0.17,0.121
		l-0.299,0.213l-0.258,0.106l-0.297,0.142l-0.398,0.121l-0.299,0.128l-0.312,0.164l-0.043,0.029l-0.355,0.099l-0.312,0.1
		l-0.299,0.164l-0.484,0.1l-0.596-0.128l-0.328-0.092l-0.299-0.085l-0.283-0.085l-0.355-0.249l-0.881-0.163l-0.498-0.128
		l-0.156-0.029l-0.299-0.085l-0.355-0.149l-0.441-0.235l-0.17-0.228l-0.113-0.249l-0.057-0.149l-0.158-0.448l-0.141-0.32
		l-0.199-0.306l-0.256-0.362l-0.312-0.25l-0.186-0.191l-0.186-0.114l-0.184-0.1l-0.213-0.107l-0.129-0.071l-0.242-0.135
		l-0.441-0.199l-0.496-0.249l-0.369-0.114l-0.428-0.263l-0.455-0.22l-0.555-0.235l-0.396-0.156H65.99l-0.754-0.206l-0.283-0.164
		l-0.312-0.213l-0.484-0.277l-0.383-0.22l-0.328-0.128l-0.469-0.221l-0.299-0.22l-0.312-0.213l-0.143-0.207L61.924-60.8l0.242-0.22
		l-0.355-0.207l-0.1-0.014l-0.184-0.043l-0.314-0.028l-0.326-0.1l-0.342-0.149l-0.555-0.377l0,0l-0.27-0.057l-0.113-0.014l0,0
		l-0.256,0.043l-0.143,0.071l-0.086,0.028l-0.127,0.136l-0.314,0.142l-0.326,0.206l-0.283,0.142l-0.186,0.221l0,0l-0.312,0.22
		l-0.285,0.17l-0.312,0.178h-0.084l-0.484,0.071l-0.455,0.107l-0.312,0.171l-0.369,0.263l-0.627,0.434l-0.312,0.235l-0.426,0.306
		l-0.172,0.277l-0.297,0.277l-0.654,0.057l-0.299-0.085l-0.398-0.071l-0.326-0.085l-0.711-0.191l-0.455-0.107h-0.355h-0.896h-0.484
		h-0.398h-0.326l-0.625-0.028h-0.555l-0.355-0.17l-0.27-0.277l-0.342-0.22l-0.256-0.278h-0.312h-1.023l-0.512,0.278l-0.299,0.028
		l-0.242,0.092l-0.455,0.114l-0.285-0.114l-0.312-0.263l-0.342-0.32l-0.312-0.164l-0.199-0.142l-0.326-0.164l-0.299-0.234
		l-0.396-0.114l-0.312-0.085L39.774-60.9l-0.541-0.043l-0.439-0.063l-0.242-0.028l-0.498-0.057l-0.328-0.028h-0.326l-0.496-0.085
		l-0.299-0.093l-0.441-0.085l-0.369-0.071h-0.299l-0.512-0.106h-0.654l-0.525-0.085l-0.129-0.085l-0.299-0.235l-0.1-0.206
		l-0.199-0.213l-0.256-0.163l-0.227-0.185l-0.186-0.235l-0.312-0.22l-0.229,0.028l-0.383,0.22L31.1-62.798l-0.326,0.192
		l-0.895,0.234h-0.514h-0.498h-0.553l-0.484-0.064l-0.342-0.113l-0.312-0.1l-0.312-0.114l-0.299-0.221l-0.227-0.164l-0.455-0.277
		l-0.541-0.362l-0.227-0.22l-0.711-0.114l-0.328,0.22l-0.299,0.228l-0.299,0.249l-0.383,0.235l-0.342,0.249l-0.24,0.207L22.201-62.3
		L22.1-61.966l-0.041,0.377l-0.072,0.334l-0.086,0.341l-0.098,0.362l-0.072,0.363l-0.127,0.334l-0.1,0.277l-0.014,0.292v0.419
		l0.098,0.369l0.102,0.392l0.141,0.348l-0.17,0.569l-0.072,0.249l-0.014,0.249l-0.17,0.391v0.334l-0.299,0.483l-0.143,0.213
		l-0.113,0.277l-0.229,0.363l-0.213,0.263l-0.027,0.305l-0.016,0.25l0.016,0.305v0.64v0.305l0.057,0.334l0.184,0.22l0.043,0.22
		v0.228v0.355l-0.07,0.228l-0.299,0.135l-0.312,0.142l-0.383,0.22l-0.242,0.277l-0.086,0.263l-0.1,0.277l-0.27,0.171l-0.258,0.221
		l-0.17,0.113l-0.312,0.178l-0.27,0.114l-0.312,0.178l-0.342,0.156l-0.328,0.163h-0.326h-0.342l-0.369-0.028h-0.312h-0.355
		l-0.328-0.057l-0.312,0.014l-0.355-0.078h-0.396l-0.328,0.028l-0.229,0.092l-0.297,0.142l-0.326,0.121h-0.371l-0.256-0.106
		l-0.213-0.071l-0.229-0.014l-0.213,0.071l-0.213,0.078l-0.255,0.028l-0.298,0.114l-0.313,0.028l-0.299,0.043l-0.284,0.085
		l-0.228-0.015l-0.299,0.064l-0.284,0.085L8.48-47.727L8.096-47.67l-0.497,0.092l-0.313,0.199l-0.37,0.114l-0.654,0.021H5.679
		l-0.427-0.036l-0.384,0.05l-0.327,0.042l-0.426,0.171L3.689-46.81l-0.426,0.206l-0.469,0.143l-0.541,0.149l-0.455,0.17l-0.37,0.085
		l-0.341-0.1l-0.397-0.249l0,0l-0.1-0.014l-0.299-0.057l-0.312-0.157l-0.185-0.121l-0.085-0.057l-0.27-0.22l-0.256-0.185
		l-0.199-0.207l-0.256-0.042h-0.1h-0.057l-0.299,0.071l-0.313,0.249H-2.51l-0.298-0.057l-0.014-0.014l-0.285-0.263l-0.114-0.163
		l-0.114-0.114l-0.17-0.235l-0.398-0.334l-0.185-0.1l-0.157-0.149l-0.028-0.029l-0.213-0.185L-4.7-48.893l-0.312-0.171l-0.185-0.078
		h-0.298h-0.071h-0.213l-0.242,0.092l-0.27,0.057l-0.128-0.014l-0.213-0.014l-0.228-0.043l-0.014-0.021h-0.014l-0.157-0.042
		l-0.327-0.085L-7.6-49.298l-0.199-0.071l-0.299-0.178l-0.142-0.114l-0.1-0.106l-0.228-0.242l-0.114-0.249l-0.114-0.32l-0.028-0.106
		l-0.028-0.085l-0.071-0.207l-0.028-0.171v-0.106l-0.142-0.264l-0.142-0.27l-0.057-0.306l-0.057-0.234l-0.029-0.071l-0.071-0.164
		l-0.199-0.362l-0.014-0.028l-0.185-0.192v-0.234v-0.057l-0.028-0.376L-9.96-54.09l-0.028-0.042l-0.199-0.277l-0.242-0.235
		l-0.114-0.071l-0.114-0.085h-0.228h-0.27h-0.242l-0.185-0.177l-0.042-0.085l-0.085-0.192l0,0l-0.54-0.028l-0.199,0.028
		l-0.313,0.014l-0.242,0.057l-0.327,0.221l-0.142,0.057l-0.114,0.035l-0.156,0.043h-0.271l-0.227,0.057h-0.327l-0.285,0.114
		l-0.185,0.221l-0.256,0.206l-0.171,0.128l-0.398,0.235l-0.313,0.306l-0.156,0.1l-0.298-0.085l-0.142-0.071l-0.043-0.263
		l-0.17-0.235h-0.199l-0.341,0.17l-0.312,0.121h-0.313l-0.299-0.192l-0.199-0.057l-0.256,0.15l-0.185,0.242h-0.071h-0.185h-0.313
		h-0.085h-0.057h-0.255l-0.114,0.035l-0.157,0.142l-0.128,0.1l-0.085,0.121l-0.042,0.071l-0.313,0.221l-0.213,0.142h-0.271h-0.284
		h-0.085h0.256h-0.242h-0.398l-0.313-0.028l-0.37-0.043l-0.299-0.149l-0.284-0.185l-0.156-0.121l-0.199-0.114l-0.256-0.22
		l-0.242-0.306l-0.384-0.157l-0.085-0.028l-0.271-0.106l-0.284-0.071l-0.242-0.178l-0.242-0.071h-0.085l-0.114-0.015h-0.327
		l-0.228-0.057l-0.312-0.128l-0.185-0.178l-0.313-0.583l-0.185-0.305l-0.299-0.278l-0.17-0.22l-0.143-0.17L-28.6-56.77l-0.483-0.277
		l-0.64-0.128l-0.285-0.085l-0.327-0.092l-0.384-0.142l-0.213-0.149l-0.782-0.043l-0.426-0.071h-0.142l-0.427-0.071h-0.313
		l-0.298-0.057l-0.498-0.015l-0.27-0.035l-0.412-0.228l-0.185-0.164l-0.313-0.292l-0.213-0.277l-0.199-0.263l-0.199-0.32
		l-0.142-0.242l-0.128-0.235l-0.171-0.398l-0.185-0.057l-0.128-0.277l0,0l-0.114-0.419v-0.555l-0.015-0.164l-0.014-0.085l-0.1-0.376
		v-0.362l-0.028-0.249v-0.085l-0.1-0.306l-0.028-0.164l-0.085-0.22v-0.142l-0.028-0.085l0.1-0.455l0.142-0.376l0.171-0.292
		l0.042-0.071l0.057-0.071l0.057-0.106l0.313-0.583l0.1-0.114l0.142-0.249l0.27-0.235l0.242-0.277l0.157-0.157l0.128-0.135
		l0.298-0.213l0.185-0.206l0.199-0.143l0.071-0.078l0.142-0.128l0.213-0.15l0,0l0.043-0.27l0.099-0.263l0.299-0.192l0.1-0.071
		l0.1-0.085l0.298-0.249l-0.142-0.249l-0.313-0.028h-0.412h-0.313h-0.071h-0.299h-0.441l-0.284-0.057l-0.285-0.064l-0.228-0.028
		l-0.142-0.014l0,0h-0.085h-0.256l-0.313,0.107l-0.952-0.136h-0.298h-0.341h-0.213h-0.327h-0.313h-0.057h-0.313h-0.213h-0.099
		l-0.541,0.043l-0.398,0.178l-0.085,0.043l-0.142,0.028l-0.313,0.142l-0.299,0.107l-0.185,0.114l-0.398,0.206l-0.085,0.014
		l-0.199,0.071l-0.455,0.149l-0.299,0.085l-0.27,0.085l-0.284,0.121l-0.299,0.128l-0.298,0.085l-0.469,0.164h-0.384h-0.298
		l-0.242-0.043l-0.029-0.164l-0.1-0.277v-0.278l-0.042-0.533l-0.284-0.249l-0.256-0.249l-0.185-0.22l-0.085-0.071l-0.185-0.128
		l-0.157-0.135l-0.213-0.029l-0.327-0.042l-0.298-0.178l-0.085-0.042l-0.185-0.071l-0.285-0.221l-0.256-0.127l-0.27-0.164
		l-0.299-0.306l-0.213-0.547v-0.192v-0.028l-0.142-0.306l0,0l-0.27-0.177l-0.355-0.157l-0.271-0.106l-0.17-0.085l-0.384-0.143
		l-0.355-0.028l-0.299-0.164l-0.228-0.1l-0.213-0.092v-0.213v-0.192v-0.085l0.085-0.277l0.242-0.498v-0.334v-0.114l-0.028-0.249
		v-0.376v-0.483v-0.362v-0.014l-0.114-0.37l-0.171-0.227l-0.284-0.221l-0.242-0.234l-0.085-0.071l-0.298-0.071l-0.327-0.177
		l-0.285-0.171l-0.199-0.107l-0.313-0.099l-0.213-0.234l-0.142-0.157l-0.114-0.121l-0.113-0.071l-0.299-0.185h-0.014l-0.185-0.249
		l-0.213-0.192l-0.014-0.014l-0.299-0.128l-0.412-0.149l-0.313-0.128l-0.313-0.249l-0.312-0.15l-0.185-0.1l-0.17-0.234l-0.071-0.142
		l-0.085-0.207l-0.199-0.206l-0.028-0.043l-0.256-0.277l-0.199-0.213l-0.185-0.192l-0.014-0.028l-0.256-0.277l-0.213-0.178
		l-0.114-0.085l-0.299-0.171l-0.242-0.121l-0.057-0.028l-0.284-0.192l-0.071-0.306l-0.327-0.291l-0.313-0.057h-0.355l-0.398,0.177
		l-0.284,0.142l-0.156,0.135l-0.299,0.199l-0.298,0.192l0,0l-0.199,0.014h-0.157h-0.498l-1.024-0.156l-0.298-0.121l-0.171-0.057
		l-0.27-0.156l-0.384-0.264l-0.441-0.234l-0.27-0.099l-0.569-0.341l-0.242-0.114l-0.313-0.143l-0.299-0.163l-0.483-0.349
		l-0.142-0.135l-0.142-0.1l-0.298-0.277l-0.128-0.249l-0.199-0.363l-0.313-0.362l-0.242-0.362l-0.299-0.306l-0.042-0.178v-0.434
		v-0.362l-0.057-0.981l-0.014-0.114l-0.014-0.071l-0.042-0.121l-0.014-0.057l-0.057-0.221l-0.028-0.156l-0.028-0.057l-0.029-0.192
		l-0.071-0.234l0.228-0.071l-0.043-0.143l-0.085-0.121l-0.157-0.085l-0.228-0.149l-0.1-0.071l-0.312-0.278l0,0l-0.271-0.305
		l-0.028-0.043l-0.185-0.17l-0.043-0.064l-0.042-0.071l-0.285-0.583l-0.042-0.043l-0.27-0.349l-0.028-0.057l-0.114-0.071
		l-0.171-0.177l-0.014-0.043l-0.014-0.042l-0.213-0.291l-0.128-0.235l-0.028-0.043l-0.299-0.555l-0.057-0.121l-0.043-0.071
		l-0.128-0.306v-0.142l0.014-0.164l-0.014-0.071v-0.206v-0.334v-0.213l0.128-0.312l0.128-0.405v-0.277l0.1-0.477l-0.1-0.234v-0.028
		l-0.028-0.264l-0.128-0.206l0,0l0,0l-0.028-0.142l-0.043-0.057l-0.099-0.178l-0.029-0.1v-0.05l-0.228-0.199l-0.156-0.305v-0.014
		l-0.17-0.292l-0.143-0.263l-0.057-0.057l-0.085-0.249l-0.142-0.235l-0.014-0.042l-0.271-0.206l-0.781-0.199l-0.071-0.107
		l-0.17-0.156l-0.313-0.441l-0.327-0.334l-0.569-0.17l-0.654-0.277l-0.526-0.107l-0.313-0.1l-0.597-0.249l-0.284-0.1l-0.213-0.085
		h-0.299h-0.298l0,0h-0.199l-0.739,0.028l-0.512,0.014l-0.54,0.015h-0.455h-0.128h-0.285h-0.085l-0.228-0.015l-0.299-0.071h-0.014
		h-0.028l-0.413-0.107l-0.298-0.142l-0.469-0.178l-0.285-0.071l-0.298-0.057l-0.271-0.057l-0.184-0.036l-0.441-0.1l-0.355-0.142
		l-0.313-0.192l-0.057-0.043l-0.213-0.177l-0.37-0.306l-0.256-0.263l-0.299-0.242l-0.213-0.207l-0.085-0.057l-0.114-0.121
		l-0.213-0.213l-0.185-0.149l-0.255-0.249l-0.256-0.306l-0.199-0.142l-0.1-0.1l-0.042-0.036l-0.199-0.142l-0.299-0.156l-0.284-0.135
		h-0.014h-0.014l-0.285-0.128l-0.242-0.121h-0.014l0,0l-0.341-0.156l-0.313-0.178l-0.312-0.099l-0.427-0.192l-0.298-0.071
		l-0.085-0.028l0,0l-0.299-0.028h-0.37h-0.298l-0.555,0.028l-0.171,0.057l-0.455,0.143l-0.37,0.149l-0.426,0.178l-0.483,0.156
		l-0.568,0.085l-0.313,0.149l-0.683,0.291l-0.625,0.114l-0.498,0.264l-0.412,0.419l-0.384,0.278l-0.455,0.803l-0.285,0.391
		l-0.142,0.512l-0.114,0.334l-0.114,0.334l-0.213,0.306l-0.042,0.349l-0.1,0.412l0,0l-0.313,0.234l-0.199,0.213l-0.043,0.042h-0.042
		l-0.299,0.043h-0.256h-0.042l-0.256-0.029l-0.298-0.142l-0.285-0.177l-0.114-0.028l-0.185-0.015h-0.142h-0.143h-0.142l-0.085,0.015
		l-0.228,0.106l-0.1,0.057l-0.143,0.085l-0.114,0.128l-0.185,0.149l-0.085,0.192l-0.071,0.128l-0.157,0.305l-0.27,0.363
		l-0.285,0.277l-0.37,0.164l-0.397-0.014l-0.313-0.079l-0.156-0.057h-0.384l-0.37,0.057h-0.085l-0.228,0.093l-0.114,0.1
		l-0.171,0.113l-0.37,0.341l-0.1,0.142l-0.199,0.157l-0.1,0.121l-0.171,0.156l-0.228,0.334l-0.298,0.355l-0.213,0.334l-0.085,0.17
		l-0.114,0.192v0.391v0.334l0.185,0.64l0.312,0.249l0.015,0.249v0.306l-0.071,0.071l-0.127,0.22l-0.541,0.455l-0.526,0.298
		l-0.299,0.178l-0.284,0.135l-0.427,0.256l-0.284,0.427l-0.299,0.376l-0.37,0.448l-0.085,0.441l0.114,0.334l0.156,0.469v0.17v0.043
		l0.071,0.334l0.042,0.341l0.071,0.185l0.042,0.149l0.029,0.057l0.042,0.192l0.142,0.334l0.285,0.242l0.114,0.164l0.128,0.142
		l0.085,0.178l0.1,0.128l0.199,0.384l0.028,0.185l0.071,0.234l0.256,0.363l0.156,1.009l-0.042,0.434v0.1v0.149v0.277v0.028v0.249
		v0.199l-0.199,0.249v0.398l-0.298,0.199l-0.441-0.028l-0.284-0.085l-0.228-0.22l-0.171-0.085l-0.298-0.135l-0.313-0.199
		l-0.298-0.177l-0.412-0.042l-0.483,0.099l-0.171,0.121l-0.313,0.157l-0.085,0.376v0.398v0.392v0.334v0.363l-0.029,0.305
		l-0.113,0.455l-0.256,0.277l-0.312,0.306l-0.313,0.142l-0.285,0.135l-0.497,0.142l-0.355,0.263l-0.199,0.164l-0.142,0.185
		l-0.057,0.263l-0.142,0.235l-0.185,0.277l-0.398,0.228l-0.299,0.178l-0.284,0.22l-0.313,0.249l-0.299,0.299l-0.17,0.341
		l-0.128,0.334l-0.171,0.263l-0.312,0.419l-0.213,0.306l-0.1,0.583l-0.028,0.263l-0.114,0.277v0.306l-0.043,0.348l-0.142,0.199
		l-0.071,0.207v0.306l0.143,0.277l0.028,0.249l0.128,0.277l0.028,0.25l0.043,0.277l0.071,0.228l0.085,0.349l0.142,0.298l0.199,0.299
		l0.114,0.313l0.242,0.298l0.028,0.249v0.206v0.128v0.206l-0.142,0.277l-0.228,0.157h-0.298h-0.284l-0.327-0.014h-0.284l-0.37-0.1
		l-0.143-0.085l-0.142-0.114l-0.313-0.22l-0.099-0.121l-0.185-0.213l-0.213-0.106l-0.298-0.142l-0.185-0.135l-0.256-0.114
		l-0.568-0.306l-0.185-0.071l-0.327-0.093l-0.285-0.142l-0.327-0.085l-0.284-0.028h-0.199l-0.199,0.057l-0.242,0.1l-0.298,0.192
		l-0.228,0.249l-0.199,0.228l-0.142,0.306l-0.1,0.483v0.391v0.668l-0.042,0.327l-0.085,0.362l-0.156,0.419l-0.185,0.377
		l-0.711,0.333l-0.228-0.099l-0.242-0.234l-0.1-0.1v-0.306l0.057-0.32l-0.285-0.206l-0.199-0.099l-0.298-0.363l-0.228-0.064h-0.541
		l-0.483,0.299l-0.384,0.348l-0.285-0.015l-0.312,0.171l-0.341,0.277l-0.143,0.498l-0.597-0.043l-1.052,0.434l1.266,0.71
		l0.413,0.263l1.138,0.668l0.867,0.554l0.91,0.747l2.729,2.751l0.541,1.472l1.749,3.028l0.753,1.379l0.313,0.555l0.228,0.817
		l0.555,0.917l-0.967,3.319v1.379v0.903l-0.213,0.746l-0.227,0.555l-1.066,0.547l-0.541,0.363l-0.924,0.555l-0.753,1.372
		l0.113,0.739l0.128,0.732l0.256,0.917l0.426,0.832l-0.312,1.003l0.753,0.554v0.739v0.917l-0.1,1.109l-1.308,1.102l-0.313,0.277
		l-0.228,0.832l-0.64,1.109l-0.668,1.379l-0.768,0.747l-0.242,0.554l-0.398,0.462l-0.426,1.002l-0.227,0.917l-1.067,1.557
		l-0.327,0.746l-0.285,0.555l-0.256,0.725l-0.284,0.917l-0.114,0.832l0.427,2.573l-0.142,0.917l-0.285,0.832l-0.256,0.747
		l-0.384,0.639v0.825L-131.551-15.318"/>
</g>
<g id="Layer_1_1_">
</g>
</svg>
