<?xml version="1.0" encoding="utf-8"?>
<!-- Generator: Adobe Illustrator 16.0.4, SVG Export Plug-In . SVG Version: 6.00 Build 0)  -->
<!DOCTYPE svg PUBLIC "-//W3C//DTD SVG 1.1//EN" "http://www.w3.org/Graphics/SVG/1.1/DTD/svg11.dtd">
<svg version="1.1" id="Layer_1" xmlns="http://www.w3.org/2000/svg" xmlns:xlink="http://www.w3.org/1999/xlink" x="0px" y="0px"
	 width="301.208px" height="318.949px" viewBox="-476.196 147.158 301.208 318.949"
	 style="enable-background:new -476.196 147.158 301.208 318.949;" xml:space="preserve">
<g id="Layer_122">
	<g id="Thatta_33_">
		<path id="Thatta" style="fill:#CCCCCC;stroke:#FFFFFF;stroke-width:1.15;" d="M-282.209,435.15L-282.209,435.15l-0.375-0.938
			l-2.854-0.281l-0.114,0.525l1.162,2.717l-0.088,0.523l-0.968-0.344l-1.119,1.033l-1.032,0.301l-1.851-0.119l-2.166-0.641
			l-2.097-1.672l-0.48-0.029l-4.667,3.432l-0.219,0.643l-0.931,1.268l-1.303,0.318l-0.553,0.656l-1.396,6.814l0.5,0.777l0.262,0.76
			l-0.428,0.412l-0.616-0.127l-0.492-0.475l-4.666,4.842l-0.4,1.473l0.202,0.967l0.359,0.354l1.517,0.059l0.898-0.816l-0.407-0.266
			l-1.307,0.141l0.029-0.475l0.601-0.49l0.871-0.182l1.496,0.115l2.384,0.908l6.43,2.402l0.561-0.174l0.556-0.697l-0.541-0.59
			l-2.79-1.352l-0.593-0.828l-0.072-0.883l0.395-0.273l1.505,1.32l0.262-1.66l2.934,3.857l0.854,1.135l1.018,0.623l1.104,0.059
			l2.244-0.695l0.816-0.615l0.795-1.439l-0.043-1.676l-0.263-0.438l-1.585-0.418l1.852-2.336l2.892-3.666l0.601-0.754l1.978-3.084
			l0.245-1.209L-282.209,435.15"/>
		<path id="Thatta_2_" style="fill:#CCCCCC;stroke:#FFFFFF;stroke-width:1.15;" d="M-448.819,290.107L-448.819,290.107l-3.69-0.02
			l-1.279-1.936l-0.999-0.848l-0.856-0.301l-0.838,0.086l-1.816,0.723l-1.936,1.787l-0.1,0.516l0.71,1.627l-0.078,1.031l1.207,2.027
			l-0.46,1.482l0.169,0.264l0.3,0.445l1.746-0.428l0.621-0.443l1.357,0.803l1.986-2.453l0.959-0.09l0.296,0.412l-0.803,1.879
			l0.439,0.924l1.079,0.822l2.154,0.805l0.702,0.438l0.727,1.148l1.759,0.895l1.637-0.203l1.288-0.85l1.365-1.875l0.432-2.326
			l-0.229-0.584l-0.815-0.416l-1.344-2.535l-0.625-0.627l-1.342-0.438l-0.295-1.387l-0.533-0.236l-1.839,0.17L-448.819,290.107"/>
		<path id="Thatta_1_" style="fill:#CCCCCC;stroke:#FFFFFF;stroke-width:1.15;" d="M-433.311,278.74L-433.311,278.74l-2.211-1.119
			l-1.702-0.496l-1.438,0.211l-1.732,0.814l-1.04,0.576l-0.722,0.418l-2.419,2.721l-1.175,0.701l-1.158,0.09l-0.854-0.301
			l-3.038-2.646l-1.003-0.041l-0.497,0.496l0.024,0.676l1.125,2.969l0.617,0.348l1.605,0.016l0.582,0.619l1.097,2.275l0.388,0.631
			l0.897,0.293l1.179-0.549l1.049,0.145l0.512-0.309l0.603,0.086l0.169,0.219l-1.355,1.143l-0.448,1.834l0.469,0.754l0.943,0.521
			l0.681-0.137l-0.555-1.742l0.136-0.652l0.545-0.396l2.929,0.07l0.475-0.201l0.097-0.623l-1.424-1.5l-0.237-0.916l0.219-0.594
			l0.5-0.107l0.49-0.088l2.062,0.408l1.344,1.604l0.858,0.379l0.838-0.088l0.904,0.521l0.512-0.203l0.578-1.561l1.209-0.928
			l1.633-0.297l3.963-0.096l1.854,0.199l1.542-0.566l-0.105-0.648l-0.904-0.619l-0.132-1.242l-0.642-0.123l-1.134-1.164l-1.112,0.26
			l-1.255-1.318l-1.424-0.59l-1.181-1.34l-1.521,0.012l-1.001,0.975l-0.427,0.432L-433.311,278.74"/>
		<path id="Thatta_3_" style="fill:#CCCCCC;stroke:#FFFFFF;stroke-width:1.15;" d="M-440.256,304.558L-440.256,304.558l-2.788,0.352
			l-1.976-0.26l-0.988,0.322l-1.509-0.033l-1.016-0.008l-1.018,0.656l-0.935-0.371l-0.593,0.205l-0.295,0.607l0.392,0.797
			l-0.21,0.742l-1.057,0.545l-0.211,0.764l0.271,0.76l3.271,1.68l0.376,0.434l0.326,2.08l0.439-0.074l0.414-1.625l0.799-0.062
			l0.613,0.236l1.212,1.32l1.129,0.123l0.669,0.641l0.48,0.02l0.572-0.789l1.296-0.613l0.563-0.938l1.504-0.379l0.782-0.537
			l0.489-0.797l-0.689-1.223l0.133-0.791l1.064-0.289l-0.136-0.475l-0.989-0.773l-0.613-1.188l-0.746-0.67L-440.256,304.558"/>
		<path id="Thatta_4_" style="fill:#CCCCCC;stroke:#FFFFFF;stroke-width:1.15;" d="M-417.531,288.154L-417.531,288.154l1.201-1.102
			l1.213-1.762l-0.563-1.082l-0.853-0.27l-2.672,0.348l-3.521,1.324l-3.791,0.006l-2.143,0.004l-1.981,0.545l-0.217,0.645
			l0.443,1.143l0.989,0.664l3.366-0.092l0.573,0.279l1.29,1.195l1.694,2.332l0.532,0.24l0.904-0.396l0.609,0.086l0.588,0.719
			l0.88-0.119l0.54-1.523l0.352-0.199l0.807,0.125l0.58,0.438l2.15,1.643l0.638-0.062l0.221-0.557l-1.891-2.213l-1.824-1.535
			L-417.531,288.154"/>
		<path id="Thatta_5_" style="fill:#CCCCCC;stroke:#FFFFFF;stroke-width:1.15;" d="M-434.702,271.96L-434.702,271.96l-1.211-1.242
			l-1.366-0.029l-1.065,0.404l-1.932,0.955l-1.733,1.85l-0.634,1.191l-0.812,0.689l-3.19,1.516l-1.036,1.172l-0.969-0.078
			l-0.749,0.26l0.254,1.322l0.902,0.924l0.688,0.711l1.079-0.188l2.194-1.391l2.771-2.77l1.61-0.934l4.017-0.867l1.023,0.438
			l0.697,1.4l0.968,0.148l1.095-0.73l0.918-1.164l0.776-1.672l-0.139-0.508l0.029-0.281l-1.032-0.746l-1.961,0.174L-434.702,271.96"
			/>
		<path id="Thatta_6_" style="fill:#CCCCCC;stroke:#FFFFFF;stroke-width:1.15;" d="M-439.066,315.185L-439.066,315.185l-0.8-0.982
			l-0.753,0.264l-0.755,1.16l-1.771-0.307l-0.313,0.195l-0.009,1.576l-0.008,1.994l1.255,0.404l-0.186,0.334l-1.303,0.463
			l-1.754,0.264l-0.452,0.598l0.549,1.711l0.702,0.486l1.205,0.07l0.76,0.93l0.571,0.213l4.856-0.631l0.376-0.566l-0.283-1.146
			l0.402-1.957l0.828-0.355l0.439-1.076l-1.153-1.838L-439.066,315.185"/>
		<path id="Thatta_7_" style="fill:#CCCCCC;stroke:#FFFFFF;stroke-width:1.15;" d="M-466.369,273.947L-466.369,273.947h-1.125
			l-0.436,1.154l-0.677,0.088l-0.633-0.746l-0.684-0.051l-0.601,1.012l-0.068,1.246l0.477,2.697l0.044,0.254l1.271,3.439
			l1.686,2.068l1.497,0.26l0.462-0.527l0.667-3.25l0.829-4.172l-0.188-0.691L-466.369,273.947"/>
		<path id="Thatta_8_" style="fill:#CCCCCC;stroke:#FFFFFF;stroke-width:1.15;" d="M-456.575,282.74L-456.575,282.74l1.108-3.336
			l3.308-0.459l2.9-1.805l2.408-0.928l0.263-0.438l-0.921-0.969l-0.532-1.264l-0.541-0.455l-1.366-0.031l-4.054,2.219l-0.653,0.359
			l-3.095,0.877l-1.29,0.887l-0.854,1.605l0.846,2.027l1.802,1.855L-456.575,282.74"/>
		<path id="Thatta_9_" style="fill:#CCCCCC;stroke:#FFFFFF;stroke-width:1.15;" d="M-426.906,313.751L-426.906,313.751l-0.402-1.086
			l-2.101-1.432l-2.489-0.141l-2.345-0.508l-1.399,0.119l-0.669,0.352l-0.747,1.316l-1.379,0.662l-0.495,0.617l0.182,0.615
			l1.741,1.449l0.56-0.09l0.087-0.137l0.702-1.027l0.588-0.352l1.129,0.24l0.634,0.801l0.41,1.283l0.908,0.652l3.095,1.312
			l1.133-2.732l0.79-1.238L-426.906,313.751"/>
		<path id="Thatta_10_" style="fill:#CCCCCC;stroke:#FFFFFF;stroke-width:1.15;" d="M-426.297,331.179L-426.297,331.179
			l-0.795-0.797l-1.379-0.465l-1.233,0.152l-1.869,0.316l-2.564,0.855l-1.792,0.207l-0.547,0.42l-0.143,0.334l0.727,0.232
			l0.755-0.062l1.254-0.771l1.165,0.123l1.179,0.566l0.799,0.967l-1.255-0.328l-1.88-0.012l-1.053,0.662l-1.318,0.045l0.266,0.721
			l-0.084,0.926l-0.758,2.113l0.466,0.641l2.421-0.414l0.965,0.041l0.773,0.344l1.238-0.086l0.219-0.443l-0.323-1.135l0.088-0.801
			l0.925-0.912l-0.021-0.549l-0.38-0.5l0.43-0.197l2.367,1.146l0.995-0.252l0.484-0.797l0.19-1.25L-426.297,331.179"/>
		<path id="Thatta_11_" style="fill:#CCCCCC;stroke:#FFFFFF;stroke-width:1.15;" d="M-431.698,298.952L-431.698,298.952
			l-1.375-1.275l-1.077-1.869l-0.706-0.562l-0.729-0.16l-1.416,0.57l-1.449,0.939l-0.722,1l-0.31,1.178l0.204,4.139l0.351,0.686
			l0.966-2.744l1.012-1.76l0.601-0.086l1.103,0.512l0.182,0.467l0.245,1.057l-0.541,2.555l0.187,0.615l0.52,0.061l0.024-1.34
			l0.331-0.816l0.475-0.199l1.961,0.008l0.254-0.705l-0.416-1.338l0.461-0.475L-431.698,298.952"/>
		<path id="Thatta_12_" style="fill:#CCCCCC;stroke:#FFFFFF;stroke-width:1.15;" d="M-452.679,267.288L-452.679,267.288
			l-0.977,0.686l-0.925-0.096l-1.036,1.152l-0.786,0.441l-0.398,1.039l-0.666,0.355l-1.053-0.264l-0.745,0.441l-1.042-0.682
			l-0.444-0.293l-0.677,0.215l-0.5,0.582l0.372,2.184l0.797,0.744l2.361,0.932l1.056-0.697l0.352-1.316l1.176-0.701l5.229-1.672
			l0.402-1.041l-0.262-0.541L-452.679,267.288"/>
		<path id="Thatta_13_" style="fill:#CCCCCC;stroke:#FFFFFF;stroke-width:1.15;" d="M-447.302,288.882L-447.302,288.882l-0.4-0.938
			l-0.807-1.148l-1.282-0.965l-1.694-0.256l-0.335-0.299l-1.348-4.541l-0.475,0.129l-1.175,1.652l-0.555,0.238l-0.784,1.383
			l-0.999,0.145l-0.308,0.342l0.186,0.615l3.872,1.631l0.493,0.211l0.797,1.805l0.7,0.453l1.641-0.09l1.694,0.271l0.64-0.133
			L-447.302,288.882"/>
		<path id="Thatta_14_" style="fill:#CCCCCC;stroke:#FFFFFF;stroke-width:1.15;" d="M-440.229,269.208L-440.229,269.208l-0.98-0.438
			l-1.616-0.236l-1.848,0.111l-1.5,0.459l-0.654,0.68l-0.617-0.271l-1.438,0.156l0.559,0.934l2.079,1.854l-0.389,0.26l-0.128,0.809
			l0.314,0.76l1.141,0.441l1.282-0.061l0.541-0.475l0.887-1.863l1.234-1.25l1.183-0.52l0.456-0.566L-440.229,269.208"/>
		<path id="Thatta_15_" style="fill:#CCCCCC;stroke:#FFFFFF;stroke-width:1.15;" d="M-425.354,326.718L-425.354,326.718
			l-1.459-0.426l-2.146,0.363l-0.706,0.352l-1.806-0.07l-3.457,0.52l-0.669-0.086l-0.662-0.107l-1.189,0.297l-0.899,1.461
			l0.773,1.326l0.857,0.379l5.492-1.688l0.968,0.09l0.908-0.281l0.858,0.414l1.193-0.223l2.142-1.467l0.182-0.482L-425.354,326.718"
			/>
		<path id="Thatta_16_" style="fill:#CCCCCC;stroke:#FFFFFF;stroke-width:1.15;" d="M-424.768,295.976L-424.768,295.976
			l-0.267-0.684l-2.962-1.867l-1.399,0.121l-1.42,0.594l-1.125,1.027l-0.875,0.215l-0.258,0.594l0.384,0.619l0.572,0.236
			l2.695-0.711l0.986,0.555l0.691,1.262l0.901,0.611l1.065-0.475L-424.768,295.976"/>
		<path id="Thatta_17_" style="fill:#CCCCCC;stroke:#FFFFFF;stroke-width:1.15;" d="M-429.887,290.281L-429.887,290.281
			l-0.355-0.904l-0.866-0.631l-0.642-0.967l-0.512,1.23l-1.062,0.549l-0.947,1.387l-0.638-0.016l-0.79-0.615l-0.524-0.021
			l-0.38,0.451l1.049,2.199l2.049,1.148l0.875-0.137l0.618-0.719l0.245-0.887l1.546-0.797L-429.887,290.281"/>
		<path id="Thatta_18_" style="fill:#CCCCCC;stroke:#FFFFFF;stroke-width:1.15;" d="M-438.01,289.599L-438.01,289.599l-1.375,0.67
			l-1.292-0.178l-0.427,0.346l-0.141,0.553l0.532,1.264l-0.671,1.234l0.207,1.098l0.582,0.529l1.645,0.037l2.126-0.881l0.293-0.764
			l-0.77-2.1l0.113-1.102L-438.01,289.599"/>
		<path id="Thatta_19_" style="fill:#CCCCCC;stroke:#FFFFFF;stroke-width:1.15;" d="M-431.83,341.04L-431.83,341.04l0.169-0.738
			l-0.271-0.793l-0.495-0.408l-2.574-0.297l-0.938,0.5l-0.287,0.805l1.181,2.414L-431.83,341.04"/>
		<path id="Thatta_20_" style="fill:#CCCCCC;stroke:#FFFFFF;stroke-width:1.15;" d="M-427.604,343.835L-427.604,343.835l0.219-0.52
			l-0.582-1.557l0.271-2.199l-0.291-0.355l-1.685,0.967l-0.86,1.424l-0.617,0.531l-0.098,0.516l0.263,0.6l2.506,0.627
			L-427.604,343.835"/>
		<path id="Thatta_21_" style="fill:#CCCCCC;stroke:#FFFFFF;stroke-width:1.15;" d="M-430.601,320.587L-430.601,320.587l0.71-0.205
			l0.347-0.455l0.219-0.463l-0.256-0.357l-2.039-0.941l-1.525-1.145l-1.268-1.658l-0.503,0.432l-0.554,1.193l0.219,0.434
			l3.742,2.443l0.146,0.764L-430.601,320.587"/>
		<path id="Thatta_22_" style="fill:#CCCCCC;stroke:#FFFFFF;stroke-width:1.15;" d="M-419.403,410.909L-419.403,410.909
			l-1.303-1.172l-0.747-0.061l-0.335,0.531l2.65,3.674l0.58,0.227l0.215-1.572l0.338-0.438l1.416-0.838l0.593-0.742l-0.322-0.475
			l-2.687,0.953L-419.403,410.909"/>
		<path id="Thatta_23_" style="fill:#CCCCCC;stroke:#FFFFFF;stroke-width:1.15;" d="M-434.062,324.113L-434.062,324.113l0.263-0.438
			l0.223-2.465l0.919-1.057l-0.955-0.82l-0.674,0.164l-1.706,2.295l-0.064,1.471l1.153,0.875L-434.062,324.113"/>
		<path id="Thatta_24_" style="fill:#CCCCCC;stroke:#FFFFFF;stroke-width:1.15;" d="M-426.365,292.072L-426.365,292.072l0.682-2.021
			l-0.302-0.6l-1.521,0.07l-1.103,0.516l-0.951,1.33l-0.593,0.26l0.234,0.875L-426.365,292.072"/>
		<path id="Thatta_25_" style="fill:#CCCCCC;stroke:#FFFFFF;stroke-width:1.15;" d="M-422.646,332.497L-422.646,332.497l0.943-0.406
			l0.537-0.527l0.101-0.426l-0.423-0.568l-1.094-0.367l-1.594,0.197l-0.968,0.764l-0.097,0.611l0.497,0.49l0.851,0.285
			L-422.646,332.497"/>
		<path id="Thatta_26_" style="fill:#CCCCCC;stroke:#FFFFFF;stroke-width:1.15;" d="M-467.38,288.286L-467.38,288.286l0.39-0.273
			l-0.019-0.469l-1.355-0.764l-0.808-1.145l-0.935-0.297l-0.4,0.896l0.117,0.953l0.306,0.537l0.823,0.576l0.844,0.08
			L-467.38,288.286"/>
		<path id="Thatta_27_" style="fill:#CCCCCC;stroke:#FFFFFF;stroke-width:1.15;" d="M-434.109,288.993L-434.109,288.993
			l-2.223-1.541l-1.255-1.316l-0.858-0.393l-0.88,0.1l4.38,4.219L-434.109,288.993"/>
		<path id="Thatta_28_" style="fill:#CCCCCC;stroke:#FFFFFF;stroke-width:1.15;" d="M-416.289,395.134L-416.289,395.134l0.145-0.406
			l-1.11-0.846l-0.285-1.127l-0.367-0.318l-0.44,0.018l-0.334,0.668l0.137,0.508l-0.753,0.604l0.926,0.715l-0.093,0.66l0.541,0.568
			L-416.289,395.134"/>
		<path id="Thatta_29_" style="fill:#CCCCCC;stroke:#FFFFFF;stroke-width:1.15;" d="M-436.38,303.292L-436.38,303.292l0.254-0.74
			l-0.118-2.025l-0.637,0.127l-0.576,0.682l-0.19,1.18l0.756,0.893L-436.38,303.292"/>
		<path id="Thatta_30_" style="fill:#CCCCCC;stroke:#FFFFFF;stroke-width:1.15;" d="M-449.542,267.325L-449.542,267.325
			l-1.141-1.354l-1.887-0.963l-0.675,0.145l-0.017,0.516l1.779,0.396l0.565,1.037l1.185,0.441L-449.542,267.325"/>
		<path id="Thatta_31_" style="fill:#CCCCCC;stroke:#FFFFFF;stroke-width:1.15;" d="M-429.633,299.519L-429.633,299.519l0.296-0.619
			l0.208-0.812l-0.225-0.615l-0.8,0.061l-0.616,0.619l0.456,1.453L-429.633,299.519"/>
		<path id="Thatta_32_" style="fill:#CCCCCC;stroke:#FFFFFF;stroke-width:1.15;" d="M-252.648,273.616L-252.648,273.616l-0.124-0.4
			l-0.173-0.344l-0.055-0.371l-0.208-0.938l-0.089-0.693l-0.088-0.264l-0.174-0.422l-0.07-0.283l-0.254-0.262l-0.423-0.246
			l-0.512-0.41l-0.634-0.564l-0.439-0.486l-0.706-0.537l-0.753-0.52l-0.904-0.504l-0.727-0.344l-0.884-0.273l-0.706-0.275
			l-0.6-0.182l-0.618-0.211l-0.423-0.164l-0.299-0.244l-0.335-0.305l-0.182-0.389v-0.207l0.219-0.619l0.302-0.498l0.177-0.674
			l0.046-0.775v-0.471l-0.215-0.447l-0.262-0.309l-0.423-0.268l-0.589-0.092l-0.803-0.164l-0.714-0.148l-0.283-0.178l-0.278-0.322
			l-0.297-0.582l-0.07-0.148l-0.2-0.514l-0.033-0.758l0.064-1.891l0.004-0.756l-0.174-0.389l-0.439-0.453l-0.584-0.537l-0.439-0.371
			l-0.404-0.26l-0.318-0.148l-0.194-0.322l-0.072-0.273l0.056-0.268l0.147-0.178l0.85-0.449l0.782-0.369l0.973-0.383l0.46-0.289
			l0.322-0.305l0.154-0.406l0.027-0.4l0.017-0.324l-0.174-0.578l-0.351-0.648v-0.271l0.021-0.244l0.161-0.582l0.186-0.445
			l0.554-0.443l0.817-0.334l0.443-0.078l0.888-0.066l0.573-0.012l0.491-0.092l0.44-0.223l0.388-0.408l0.266-0.527l0.089-0.504
			l0.019-0.447l-0.111-0.338l-0.274-0.426l-0.608-0.672l-0.55-0.492l-0.214-0.127l-0.589-0.566l-0.883-0.912l-0.648-1l-0.388-0.842
			l-0.19-0.709l-0.334-0.715l-0.411-0.66l-0.617-0.568l-0.693-0.4l-1.377-0.297l-1.153-0.273l-0.105-0.293l-0.089-0.549l-0.051-0.5
			l-0.089-0.586l-0.021-0.459l0.066-0.793l-0.028-0.541l-0.072-0.742l0.106-1.365l0.089-1.197l0.098-1.025l0.227-1.332l0.017-0.686
			l0.111-1.293l0.324-1.977l0.423-1.639l0.233-1.59l0.363-1.32l0.33-1.494l0.259-0.85l0.679-0.844l0.547-1.154l0.008-0.43
			l0.102-0.389l0.202-0.467l0.278-0.342l0.335-0.256l0.528-0.285l0.439-0.037l0.947,0.016l1.808-0.006l3.823,0.268l2.037,0.045
			l0.523-0.115l0.271-0.215l0.485-0.607l0.395-0.553l0.879-1.176l0.3-0.955l0.067-0.779l-0.254-1.486l-0.169-1.031l-0.029-0.682
			l-0.27-0.574l-0.444-0.742l-0.875-0.967l-0.951-0.531l-0.558-0.619l-0.12-0.615l0.02-0.393l0.282-0.775l0.3-0.949l0.301-0.732
			l0.439-1.02l0.444-0.969l-0.039-0.062l-0.254-0.355l-0.263-0.301l-0.502-0.463l-0.288-0.264l-0.244-0.367l-0.427-0.449
			l-0.395-0.434l-0.388-0.322l-0.706-0.619l-0.335-0.344l-0.193-0.312l-0.033-0.281l-0.015-0.238l0.056-0.24l0.178-0.277
			l0.376-0.549l0.334-0.494l0.393-0.4l0.394-0.547l0.411-0.646l0.351-0.666l0.163-0.549l0.33-0.834l0.367-0.916l0.242-0.705
			l0.198-1.037l0.043-0.342l-0.021-0.17l-2.318,0.814l-1.537,0.453l-2.77,0.264l-3.147,0.078l-3.433-0.107l-1.319-0.301
			l-0.931-0.801l-0.456-0.264l-1.146,0.133l-1.25,0.219l-0.944-0.381l-1.678-0.824l-0.951-0.285l-1.44,0.215l-1.602,0.438
			l-2.198-0.252l-3.117-0.621l-1.129-0.803l-1.194-1.082l-1.703-2.49l-1.358-1.783l-2.154-3.537l-1.427-2.82l-1.517-2.553
			l-0.98-1.586l-1.121-0.908l-1.492-1.168l-2.796-1.66l-2.613-1.65l-2.246-1.293l-2.34-1.197l-2.554-0.607l-2.295,0.021
			l-1.637,0.107l-0.875,0.49l-1.195,1.348l-0.918,1.447l-0.913,1.355l-1.104,1.268l-1.449,0.295l-1.446,0.225l-1.242-0.211
			l-0.904,0.193l-0.085,2.027l-0.617,0.949l-0.367,1.012l-0.545,1.568l-0.795,0.789l-0.968,0.541l-1.226,0.613l-1.146,0.789
			l-0.39,1.152l0.241,1.268l0.762,1.184l0.587,1.189l0.075,0.709l-0.358,0.707l-0.536,0.859l-0.359,0.705l-0.009,0.619l0.424,0.627
			l-0.094,0.557l-0.443,0.703l-1.403,0.619l-1.403,0.771l-0.706,0.545l-0.359,0.859l-1.068,1.721l-0.622,0.859l-1.142,0.531
			l-1.133,0.227l-0.879,0.789l-0.532,0.619l-0.635,1.812l-0.95,1.879l-1.691,2.121l-1.746,1.424l-0.773,0.578l-0.198,0.412
			l0.239,1.104l1.057,1.865l0.178,0.867l-0.646,4.68l-0.925,5.137l-0.619,2.844l-0.865,2.307l-0.601,1.723l-0.778,0.795l-1.153,0.57
			l-1.529,0.211l-1.979,0.09l-1.598,0.385l-1.674,0.965l-2.258,1.701l-1.416,1.09l-1.234,2.451l-0.658,1.449l-1.189,3.002
			l-1.001,3.107l-0.451,0.689l-0.702,0.1l-1.081-0.186l-2.407-0.838l-5.071-1.627l-1.522-0.309l-1.146,0.053l-0.702,0.166
			l-3.151,2.385l-4.316,3.959l-1.548,1.494l-1.407,0.674l-1.594-0.021l-1.965-0.309l-3.548-1.252l-2.788-0.908l-0.795-0.389
			l0.202,1.041l0.677,4.178l0.436,3.814l0.706,2.795l1.166,2.633l1.827,3.314l2.126,3.832l2.324,4.895l1.124,3.381l0.436,2.594
			l0.102,0.623l-0.274,0.697l-0.804,0.486l-0.87,0.016l-1.937-0.436l-2.565-0.229l-2.113-0.705l-2.584-0.797l-1.998-1.178
			l-1.771-1.084l-1.253-1.145l-0.896-1.102l-1.188-0.975l-0.545-1.051l-0.479-0.521l-1.053-0.033l-1.28,0.082l-1.58-0.123
			l-1.169-0.248l-0.234,0.004l-0.285,0.322l-0.562,0.797l0.029,1.283l0.245,3.027l-0.13,1.918l-0.204,1.322l-0.565,0.754
			l-0.403,0.232l-0.933-0.088l-2.223-0.441l-0.991,0.021l-1.851,0.355l-0.698,0.102l-0.29-0.09l-0.643-0.092l-1.277,0.289
			l-0.524,0.111l-0.524-0.086l-0.755,0.078l-0.403,0.264l0.009,0.373l0.068,0.643l1.322-0.701l0.888,0.086l1.767,1.092l1.053,0.135
			l0.63-0.297l1.476-0.264l2.65,1.09l0.795-0.092l2.755-1.445l0.918-0.078l2.062,0.373l0.499,0.457l-0.102,0.475l-0.664,0.393
			l0.06,0.545l1.699,1.338l0.263,0.582l-0.485,0.816l-0.407-0.131l-0.658-0.43l-0.25-1.242l-0.766-1.031l-0.021-0.555l-0.584-0.531
			l-1.763,0.02l-1.622,0.615l0.004,0.182l-1.226,0.441l-2.964-0.812l-2.07,0.471l-0.799-0.025l-2.246-0.957l-1.081,0.074
			l-1.682,1.094l-1.796,0.264l-0.927,0.963l0.271,1.848l-0.237,1.148l0.347,0.615l0.773,0.301l0.318,0.797l1.311,0.686l0.562,1.043
			l0.532,0.352l1.882-0.211l0.533,0.352l0.358,1.012l0.728,0.086l0.254,0.285l-0.234,1.217l0.311,0.686l1.913,0.707l1.996-0.266
			l2.347,0.443l0.649,0.238l0.588,0.682l0.073,0.764l-0.33,0.76l-2.481,2.283l1.97,2.199l1.149,0.734l0.616,1.408l0.403,0.078
			l1.149-1.646l0.332-0.455l0.161,1.016l-1.175,1.846l-1.061,0.508l-1.125-0.037l-2.582-1.424l-0.883-0.111l-0.383,1.588
			l-0.933,0.797l-1.403,0.018l-1.54-0.438l-1.118,0.086l-0.503,0.479l-0.17,2.734l-0.562,1.043l-1.007,0.953l-0.871,0.406
			l-1.783-0.529l-1.069,0.285l-1.548,1.443l-0.502,1.5l-0.229,0.287l-0.634,0.088l-1.779-0.422l-0.263,0.439l0.409,1.15
			l-0.076,0.334l-0.028,0.137l-0.541,0.529l-0.839,0.082l-1.819-1.457l-0.795,0.094l-0.271,0.266l0.109,0.771l2.734,3.211
			l-0.104,0.334l-1.59,0.24l-0.266,0.426l0.254,0.32l0.638-0.035l1.064-0.365l1.433,0.793l2.237-0.143l2.811-0.906l1.562-0.965
			l1.142-0.559l2.795-2.381l2.997-1.238l1.161-0.879l1.763-0.133l3.525,2.123l0.428,0.619l-0.182,0.475l-1.095-0.262l-2.484-2.117
			l-0.805-0.057l-0.82,0.535l-1.948,0.439l-3.021,1.6l-4.142,3.617l-0.331,0.779l0.469,0.719l1.848,1.041l0.918-0.033l0.223-0.441
			l-0.351-0.818l0.118-0.164l0.071-0.096l0.483-0.012l0.589,0.672l0.679-0.066l0.923-0.979l0.416,0.463l0.665-0.496l0.605,0.088
			l0.503,0.5l0.07,0.801l-0.109,1.209l-0.667,1.369l-0.391,0.303l-0.765-0.203l-1.897-1.361l-0.727-0.193l-1.027,0.441l-2.613,4.842
			l0.233,1.787l-0.194,0.252l-0.72,0.846l0.165,1.164l-0.964,0.957l-1.271,0.262l-0.677-1.887l-0.896-0.438l-0.435,0.16
			l-0.327,0.893l0.348,1.564l-0.439,1.035l-0.748,0.307l-1.483-0.021l-0.554,0.252l-0.093,0.594l0.489,0.352l0.931,0.148
			l0.917-0.104l1.023-0.457l2.443,0.031l1.474-0.795l0.407-0.221l1.036-0.145l2.679-1.117l1.442-2.061l1.082-0.957l1.915-0.129
			l0.461-0.527l-0.017-1.434l-0.382-0.498l-0.888-0.232l-0.663-1.555l0.146-0.33l0.677-0.062l0.424,0.537l0.755-0.133l1.677-1.312
			l0.189,0.793l-1.37,0.85l-0.242,0.986l0.693,2.424l1.327,1.168l0.391,1.783l0.634,0.896l0.903-0.396l0.275-1.115l1.398-0.092
			l0.218,0.324l-0.387,0.482l-0.012,0.697l0.996,0.979l0.693,0.309l1.831-0.316l-0.177,0.594l-0.626,0.348l-1.242-0.033
			l-1.441-1.127l-0.644-0.014l-0.782,0.445l-0.921-0.045l-0.579-0.42l-0.929-2.279l-0.952-0.756l-1.205-0.078l-1.034,0.182
			l-1.333,0.631l-1.288,1.904l-3.468,1.445l0.128,0.209l1.477-0.193l1.165,0.219l1.275,0.875l0.141,0.508l-0.414,0.678l-1.788,1.32
			l-0.178,0.609l0.815,0.439l1.045-0.918l1.222-0.516l0.076-1.102l0.271-0.264l0.521,0.074l0.363,0.994l0.097,0.607l0.447,0.203
			l1.84-0.066l4.505-0.439l1.041,1.107l0.887,0.09l1.399,1.092l1.121,0.002l1.659-0.568l0.495,0.389l0.105,0.613l-0.384,0.43
			l-1.036,0.182l-1.411-0.283l-0.812-0.232l-1.273-0.949l-1.994-0.893l-1.527-0.131l-1.355,0.156l-1.893,0.674l-0.547,0.445
			l-0.494,0.564l-0.321,0.971l-1.42,0.525l-0.771,0.791l-2.186,1.355l-1.364-0.096l-1.492,1.109l-1.399,0.051l-0.384,0.416
			l0.157,0.875l0.501,0.619l1.734,0.344l0.371-0.793l2.282-0.979l2.068-0.285l1.926,0.115l0.528,0.277l0.858,0.467l0.554-0.092
			l1.116-1.143l0.545,0.678l-0.239,1.072l0.367,0.17l1.433-0.232l0.169,2.342l0.141,1.494l-0.221,1.58l-0.96,0.1l-0.609-0.268
			l-0.214-0.455l0.879-1.973l-0.169-1.205l-0.786-0.668l-2.161-0.967l-1.323-0.133l-1.843-0.012l-1.944,0.396l-1.288,0.846
			l-0.951,1.246l-0.279,1.029l0.456,1.494l0.774,1.258l-0.439,1.078l0.54,0.582l4.752,2.906l1.175,0.412l1.362,0.033l1.072-0.104
			l0.65-0.676l0.875-0.174l-0.231,1.213l0.485,0.164l0.79-0.25l0.326,0.635l0.11,0.232l0.642,0.057l1.839-3.096l1.428-0.375
			l0.25,0.172l0.513,0.9l0.976,0.42l1.609,1.416l2.035-0.094l1.167-1.945l1.068-0.223l1.121-1.102l0.393-0.203l0.677-1.143
			l0.685,0.121l1.602,2.207l0.63,0.814l-0.689,0.824l-1.234-2.027l-0.608-0.197l-1.674,1.119l-1.534,0.668l-1.011,1.832
			l-1.488-0.172l-1.47,0.205l-1.318-1.105l-1.319,0.053l-1.112-0.879l-0.597,0.088l-0.447,1.775l-0.76,1.053l-1.286-0.096
			l-1.174-0.512l-1.4,0.049l-0.901,0.508l-0.723,0.904l-0.803-0.152l-1.023-1.623l-4.695-2.525l-4.006-1.271l-0.763,0.037
			l-0.464,0.348l-0.896,0.576l-0.047,0.926l0.487,0.727l3.166,4.721l0.485,1.189l-0.452,0.672l-0.854-0.424l-2.037-1.943
			l-0.512-0.832l-0.295-2.43l-0.774-1.32l-0.743-0.629l-0.795,0.066l-1.572,0.678l-0.339,0.523l0.17,0.256l0.964,0.092l0.299,0.453
			l-0.146,0.418l-0.969,0.828l-1.673,0.025l-0.863,0.5l-0.803,0.834l-0.317,1.109l0.338,0.504l0.795-1.135l0.439,0.066l0.339,0.441
			l-0.444,1.807l-0.697,0.545l0.021,0.508l0.929,1.252l0.563,2.15l0.774,1.32l2.291,2.41l0.523,0.092l0.376-0.627l-0.089-0.445
			l-0.063-0.344l0.697-0.494l0.677-0.088l0.96-1.102l1.492-2.729l1.154-1.064l0.823-0.359l1.086,0.1l1.003,1.146l0.685,0.16
			l2.531-1.691l0.406,0.129l0.428,0.686l-2.936,1.67l-1.038-0.045l-1.227-0.652l-1.269,0.264l-1.804,1.85l-0.363,0.85l0.198,1.057
			l4.189,1.912l2.045,0.189l2.038,0.045l2.093,1.359l0.92,0.049l0.847,1.148l0.105,1.672l0.249,0.223l0.675-0.07l0.576-1.672
			l-0.322-2.162l0.145-1.438l0.771-0.045l0.177,0.801l0.05,0.234l-0.304,3.488l-0.536,1.557l-1.299,0.471l-0.689-0.203l-0.29-0.359
			v-2.084l-0.476-0.812l-0.957-0.012l-0.947-0.662l-2.335-0.441l-4.534-0.463l-0.516,0.113l0.282,1.139l-1.868-0.812l-1.509,0.16
			l-0.862,1.527l0.304,0.578l1.107,0.738l0.098,0.508l-0.263,0.34l-1.374-0.4l-0.3,0.42l-0.043,0.92l0.556,0.945l0.334,1.42
			l0.719,0.967l1.298,0.508l0.63,0.746l-0.581,0.438l-1.927-0.264l-0.591,0.248l-0.373,0.746l-0.055,0.662l0.654,1.406l1.26,1.523
			l1.125,0.082l0.604,0.166l0.21,1.279l0.75,0.814l1.556,0.904l2.345,0.832l2.854,0.57l2.721,0.086l1.455-0.561l0.291,0.318
			l0.097,0.363l-0.768,0.764l-1.557,0.09l-6.92-1.65l-1.679-0.016l-0.016,2.537l0.604,1.18l-0.105,0.266l-0.102,0.438l0.756,0.969
			l-0.017,1.615l0.355,0.904l0.866,0.797l0.609,0.201l0.968,0.26l0.532,1.367l1.239,1.109l0.097,0.496l-0.308,0.305l-0.719-0.09
			l-1.442-1.152l-0.521,0.018l-0.097,0.516l0.604,1.148l1.872,1.992l0.851,0.299l0.795-0.078l0.553-4.232l0.085-1.027l0.664-1.322
			l2.514-1.998l1.852-2.621l1.649-1.729l0.597-0.029l0.423,0.619l-0.415,0.711l-1.568,0.705l-0.415,0.578l-0.375,1.631l-0.847,0.816
			l-1.731,0.578l-0.068,0.381l0.504,0.531l1.622,0.715l1.387,2.713l-0.473,0.439l-1.932,0.439l-2.521,2.91l-0.14,0.512v0.957
			l2.202,5.498l-2.361,0.441l0.32,0.426l0.976,0.5l3.02-0.088l0.494,0.459l0.14,0.316l-0.306,1.381l-1.146,1.143l-0.146,0.896
			l-1.083,1.812l-0.244,1.98l0.461,0.826l0.968,0.223l8.703-4.768l0.973-0.355l0.582-0.219l1.1,0.123l1.42,0.619l0.634,0.662
			l-0.508,0.619l-1.263,0.242l-0.951,0.459l-1.734,2.057l-1.752-0.051l-0.517,0.289l-0.022,0.564l0.621,0.504l2.052-0.17l0.76,0.506
			l0.521,1.234l-0.308,1.414l0.743,1.486l-0.457,0.781l-0.858,0.508l-0.617-0.07l-1.259-1.057l-0.786-1.318l-0.402-0.189
			l-0.609,0.178l-0.154,0.645l0.666,1.795l0.719,0.586l4.223,0.596l0.354,0.238l2.436,2.354l1.691,0.965l2.524,0.904l0.254-0.264
			l-0.17-1.246l-0.58-1.701l0.834-0.021l1.863,0.879l1.501,1.938l-0.96,0.227l-0.072,0.41l2.871,0.895l0.92,0.016l0.387-0.252
			l0.15-0.809l-0.219-1.547l0.71-1.023l0.508,0.916l0.25,2.369l-0.272,2.785l0.777,2.639l0.226,0.193l2.32,0.029l0.427-0.416
			l0.132-1.537l2.886,1.381l1.391-0.266l0.237,0.232l0.892,0.865l0.149,0.521l-1.158,3.775l0.146,0.617l1.987,0.602l2.417,1.916
			l0.702-0.021l1.294-0.631l1.44-0.1l0.932,0.338l1.444-1.457l1.362,0.223l2.477,0.971l1.855-0.73l1.42,0.574l3.674-0.051
			l0.642-0.338l0.161-0.57l-0.46-0.834l-5.476-4.779l-1.42-2.238l-0.731-1.139l0.702-0.086l0.148,0.164l0.352,0.389l4.058,2.678
			l3.187,1.26l3.259,0.734l1.859,0.793l1.477,0.971l1.763,0.467l1.221-0.189l2.333,0.602l1.129-0.396l0.654-0.564l0.541-0.459
			l0.326-0.9l-0.183-3.492l0.222-1.498l0.469-3.518l-0.187-0.438l1.369-5.902l1.56-2.18l1.586-4.338l1.492-1.508l1.517-2.133
			l1.991-0.893l0.335-0.516l1.538,1.82l-2.896,3.035l-2.324,3.148l-0.363,1.016l-0.988,3.885l-0.043,1.664l1.213,5.902l3.897,1.799
			l5.3,3.303l0.968,0.086l-1.368-2.102l-0.475-1.314l0.161-0.578l0.363,0.516l0.718,0.826l1.722,1.086l2.747,4.523l0.58,0.145
			l0.497-0.811l0.88,0.092l1.248,0.697l1.496,1.416l0.43,1.197l2.669,1.701l6.555-0.234l0.287-0.08l1.319-0.322l0.317-0.809
			l-0.148-0.92l-0.617-0.463l0.439-1.379l-0.439-1.924l0.351-1.494l-2.549-6.869l0.089-1.816l0.806-2.629l-0.513-1.506l2.13-1.512
			l0.625,0.141l0.5,1.023l1.203,0.389l-0.869,1.045l-0.439,1.254l-0.132,1.498l1.049,4.844l0.439,0.514l1.364,0.488l1.173,1.217
			l0.511,1.127l0.533,0.266l1.389-0.191l3.594-1.568l0.563-0.445l-0.71-1.695l1.428,0.354l0.917,0.297l0.464,1.242l0.805,0.438
			l3.158,0.447l0.211-0.318l-1.134-2.588l-0.398-1.676l0.254-0.637l1.315-0.016l2.879,2.613l1.396-0.307l0.964,0.951l0.858-0.541
			l1.885,0.725l0.262-0.32l0.439-3.436l-1.277-2.596l2.601,0.152l1.496-0.404l0.778-0.211l4.285-1.988l1.68-1.148l2.877-3.848
			l1.891-1.498l0.78-0.26l1.273,0.061l3.651,2.557l1.455,0.256l0.617-0.207l0.137,0.619l0.412-0.119l0.702-0.219l0.338-0.223
			l0.389-0.252l0.216-0.557l0.13-0.344l0.089-0.531l0.129-0.703l-0.089-0.416l-0.157-0.607l-0.017-1.234l-0.004-0.088l-0.035-1.48
			l0.274-0.59l0.31-0.654l0.241-0.102l0.485-0.244l0.727-0.338l0.854-0.018l0.516-0.135l0.33-0.088l0.739-0.271l0.475-0.186
			l0.235-0.57l0.471-0.256l0.376-0.215l0.608-0.326l0.258-0.119l0.17-0.08l0.439-0.164l0.367,0.23l0.3,0.537l0.198,0.355
			l0.264,1.119l0.26,0.557l0.365,0.408l0.076,0.088l0.079,0.078l32.142,0.193l31.835,0.186l0.113-2.617l0.177-4.045l1.501-6.287
			l0.271-9.436l0.052-1.838l0.037-5.424l0.056-5.324l0.024-2.361l0.035-2.891l0.159-2.729l0.196-5.168l-0.009-7.219v-1.23
			l0.033-0.059l-1.605-1.555l0.089-0.48l-0.545-0.439l-0.454-2.023l-0.465-2.113l-0.617-2.35l-0.439-2.633l-1.242-3.047
			l-0.682-1.078l-0.376-0.615l-1.061,0.029l-3.585-0.293l-5.147-0.07l-4.324,0.115l-4.596,0.422l-2.898,0.475l-0.888,0.092
			l-0.482,0.201l-0.512,0.504l-0.681,0.496l-0.511,0.494l-1.564,0.24l-1.057-0.047l-2.033-0.086l-1.129-0.43l-1.628-0.141
			l-2.819-0.797l-3.297-1.016l-1.496-0.799l-0.968-0.34l-1.631,0.014l-1.311-0.348l-1.754-0.896l-0.843-0.85l-0.245-0.387
			l-0.396-0.244l-0.339,0.211l-0.186,0.52l-0.262,0.271l-0.428-0.012l-0.569-0.029l-0.968-0.475l-0.221-0.682l0.024-0.516
			l0.439-0.594l0.605-0.727l0.968-1.234l0.545-1.156l0.334-1.854l-0.456-0.689l-0.727-0.178l-1.146,0.1l-1.069,0.186l-0.998,0.414
			l-1.353,0.99l-0.439,0.643l-0.613,0.434l-0.642,0.199l-0.572-0.455l-0.658-1.309l-0.816-2.324l-0.292-2.475l-0.121-2.246
			l0.351-2.305l0.375-1.031l-0.097-2.018l-0.141-0.525l-0.299-0.166l-1.463-0.652l-0.444-0.539l-0.206-0.83l0.024-0.594l0.483-1.854
			l-0.027-1.334l0.335-1.928l0.266-0.512l0.584-0.203l0.502-0.205l0.184-0.443l0.017-0.371l-0.31-0.387l-0.291-0.311l-0.597-0.02
			l-0.638,0.123l-0.98,0.037l-0.567-0.174l-0.3-0.537l-0.262-1.279l-1.125-2.674l-0.751-1.453l-0.141-0.529l0.524-0.727l1.133-1.076
			l0.089-0.443l-0.212-0.812l-0.448-0.346l-0.105-0.592l-0.169-0.754l-0.312-0.793l-0.545-0.875l-0.402-0.711l-0.44-0.355
			l-0.85-0.424l-0.663-0.219l-0.656-0.066l-0.262-0.16l-0.248-0.344l-0.141-0.338l0.005-0.641l0.217-0.23l0.687-0.441l0.973-0.604
			l0.432-0.434l0.282-0.643l0.136-0.621l-0.092-0.428l-0.263-0.566l-0.25-0.533l-0.049-0.631l0.097-1.109l0.165-1.475l0.146-0.801
			l0.355-0.855l0.262-0.684l0.233-0.744l0.06-0.66l-0.019-0.42l-0.171-0.289l-0.391-0.248l-0.512-0.305l-0.916-0.377l-0.545-0.408
			l-0.725-0.553l-0.278-0.289l-0.161-0.441l0.006-0.281l0.282-0.619l0.183-0.818l0.198-0.738L-252.648,273.616"/>
	</g>
</g>
<g id="Layer_1_1_">
</g>
</svg>
