<?xml version="1.0" encoding="utf-8"?>
<!-- Generator: Adobe Illustrator 16.0.4, SVG Export Plug-In . SVG Version: 6.00 Build 0)  -->
<!DOCTYPE svg PUBLIC "-//W3C//DTD SVG 1.1//EN" "http://www.w3.org/Graphics/SVG/1.1/DTD/svg11.dtd">
<svg version="1.1" id="Layer_1" xmlns="http://www.w3.org/2000/svg" xmlns:xlink="http://www.w3.org/1999/xlink" x="0px" y="0px"
	 width="301.827px" height="222.31px" viewBox="-103.472 -76.334 301.827 222.31"
	 style="enable-background:new -103.472 -76.334 301.827 222.31;" xml:space="preserve">
<g id="Layer_134">
	<path id="Zhob" style="fill:#CCCCCC;stroke:#FFFFFF;stroke-width:1.15;" d="M73.874,110.362L73.874,110.362l2.27,0.358l3.564,0.362
		l2.24,0.389l0.614,0.336l0.322,0.693l0.146,1.744l1.108,3.204l0.535,1.209l0.811,0.069l2.633,0.034l3.745,0.273l3.342,0.28
		l2.63,0.121l1.842,0.746l0.942,0.853l2.063,2.997l2.38,2.143l3.507,2.721l4.291,2.012l2.35,1.094l1.753,1.362l2.554,1.698
		l2.045,1.188l2.155,1.528l1.231,1.372l1.753,1.704l1.541,0.938l-1.367-1.786l-0.45-1.005l0.082-1.175l0.457-0.575l0.699-0.721
		l0.187-0.396l-0.027-0.476l-0.372-0.541l-0.368-0.226l-0.913-0.134l-0.639,0.012l-0.731-0.14l-0.191-0.313l0.262-0.398l0.064-0.557
		l-0.104-0.313l-0.459-0.539l-0.378-0.463l-0.098-0.313l0.073-0.472l0.064-0.554l-0.11-0.548l-0.56-0.381l-0.372-0.149l-0.547,0.013
		l-0.627,0.177l-1.071,0.733l-0.81,0.41l-0.557,0.013l-0.561-0.378l-0.558-0.538l-0.736-0.14l-0.636,0.016l-0.64-0.067l-0.286-0.46
		l-0.498-1.491l-0.204-1.099l-0.063-1.495l0.48-1.98l0.779-1.281l0.432-0.8l0.889-0.729l1.425-0.897l1.612-1.064l0.975-0.811
		l0.982-1.198l0.959-1.522l0.511-1.041l-0.018-0.547l-0.487-1.011l-0.109-0.548l0.348-0.64l0.157-0.639l0.07-0.548l-0.204-0.864
		l0.263-0.476l-0.025-0.629l-0.116-0.865l-0.37-0.225l-0.019-0.472l0.07-0.555l0.709-0.806l0.338-0.712l-0.03-0.713l-0.385-0.62
		l-0.011-0.317l0.715-0.727l1.601-1.376l0.895-0.493l0.998-0.255l0.612-0.569l0.857-1.678l0.972-0.971l1.497-1.296l2.052-1.777
		l1.868-1.774l1.327-1.687l1.808-4.051l0.853-1.832l0.971-1.281l1.235-1.683l0.243-0.95l-0.033-1.025l0.965-1.439l1.314-2.078
		l1.242-1.288l1.421-1.293l0.709-0.965l0.062-0.95l0.063-1.18l0.481-2.295l0.517-1.114l0.605-0.803l-0.018-0.555l-1.022-0.529
		l-1.367-0.9l-1.034-0.844l-0.207-0.943l-0.03-0.791l0.522-1.032l1.23-1.683l0.974-0.886l-0.019-0.475l-0.097-0.231l-0.92-0.14
		l-1.552,0.115l-0.657-0.377l-0.195-0.469l0.329-0.871l0.585-1.902l-0.263-2.675l-0.508-1.878l-0.335-2.045l0.493-1.744l1.68-2.243
		l0.426-0.958l-0.011-0.548l-1.029-0.608l-1.327-0.822l-0.384-0.62l-0.104-0.39l0.256-0.561l0.542-0.404l1.442-1.136l0.889-0.886
		l0.158-0.87l0.039-2.048l-0.032-0.867l0.529-0.798l1.445-0.818l0.618-0.722l0.715-0.575l0.03-0.033l0.444-0.082l0.296,0.122
		l0.291,0.45l0.201,1.36l0.624,0.821l0.627,0.365l0.621,0.122l0.913-0.003l1.825-0.554l0.716-0.539l0.669-0.746l0.378-0.453
		l0.529-0.374l0.618-0.293l0.998-0.212l1.205-0.336l0.719-0.295l0.432-0.206h0.39l0.588,0.364l1.017,0.819l1.595,0.69l1.104,0.572
		l1.591,0.48l1.735,0.776l0.975,0.575l1.204,0.444l0.676,0.243l0.913,0.159h0.243l0.716,0.203l0.587,0.49l0.48,0.079l0.286-0.164
		l0.378-0.825l0.907-1.241l0.809-0.749l1.104-1.074l1.579-1.309l0.471-0.375h0.582l0.578,0.162l1.107,0.283l1.102,0.036l1.388-0.088
		l1.297-0.378l0.855-0.624l0.715-1.074l0.192-0.867l-0.198-2.061l-0.012-1.893l0.134-0.949l0.325-0.746l0.149-0.25l0.326-0.124
		l0.383-0.004l-0.018-0.023l-0.521-0.755l-0.334-1.488l-0.454-2.18l-0.35-1.442l-0.055-0.949l-0.73-1.689l-0.785-2.14l-0.25-1.071
		l-0.925-1.521l-0.293-1.235l-0.346-0.861l-0.391-0.454l-0.676-0.161L183.91,3.83l-1.686,0.009l-0.913-0.079l-0.773-0.243
		l-0.478-0.493l-0.778-0.736l-1.074-0.779l-0.585-0.944l-0.39-0.824l-0.006-0.7l0.091-0.824l0.427-1.16l0.115-2.678l0.122-2.846
		l-0.027-3.546l0.179-1.941l0.365-2.931l0.07-2.971l0.066-2.478l0.083-1.281l-0.061-1.107l-0.152-0.825l-0.059-0.581l-0.304-0.657
		l-0.058-0.657l-0.007-0.95l0.231-0.952l0.441-0.25l0.523-0.456l0.235-0.742v-0.372l-0.095-0.246l-0.39-0.326l-0.627-0.407
		l-0.299-0.368l-0.194-0.536l-0.305-1.317l-0.408-3.05l-0.109-1.402l0.05-0.819l0.085-0.496l0.236-0.328l0.39-0.375l0.579-0.499
		l0.587-0.374l0.286-0.414l0.146-0.249v-0.25l-0.153-0.532l-0.194-0.411L179.09-43.9v-0.496l0.326-1.277l0.377-1.078l0.229-1.36
		l0.23-0.706v-0.657v-0.785l-0.005-0.177v-0.483L179.765-51l-0.722,0.003l-1.064,0.17l-0.871,0.25l-0.432,0.292l-0.48,0.335
		l-0.762,1.074l-0.578,0.827l-0.679,0.746l-0.529,0.664l-0.618,0.745l-0.673,0.87l-0.438,0.371l-0.719,0.211l-0.722,0.21
		l-0.675,0.13l-0.718-0.164l-0.78-0.447l-0.486-0.368l-0.6-0.052l-0.864,0.006l-0.152-0.204l-0.195-1.031l-0.005-0.785l-0.062-1.771
		l0.091-0.456l0.53-0.703l0.669-0.785L168-51.612l0.578-1.074l0.328-0.746l0.188-0.781l0.231-0.588l0.341-0.374l0.184-0.618v-0.496
		l-0.299-0.456l-0.682-0.243l-1.461-0.569l-0.968-0.283l-1.46-0.572l-2.43-1.181l-0.837-0.694l-0.931-0.572l-0.89-0.645
		l-0.727-0.533l-0.052-0.207l-0.006-0.164l0.389-0.21l0.529-0.21l0.914-0.667l0.441-0.374l0.091-0.453l0.146-0.25l0.473-0.456
		l0.581-1.032l0.955-2.069l0.761-1.616l0.585-0.66l0.965-0.831l0.191-0.581l-0.006-0.204l-0.191-0.125l-0.335,0.003l-0.773,0.128
		l-1.309,0.131l-0.827,0.292l-0.627,0.168l-0.536,0.046l-0.432,0.042l-0.73-0.036l-0.244-0.122h-0.243l-0.188,0.043l-0.682,0.292
		l-0.296,0.171l-0.331,0.082l-0.588,0.128l-0.237,0.167l-0.384,0.292l-0.298,0.082l-0.326,0.003h-0.148l-0.192-0.203l-0.194-0.247
		l-0.332-0.161l-0.587,0.128l-0.478,0.417l-1.011,0.335l-0.803,0.182l-0.01,0.004l-0.013,0.003l-0.066,0.021l-0.225,0.082
		l-0.479,0.146l-0.341,0.101l-0.322,0.095l-0.271,0.079l-0.716,0.066l-0.846,0.07l-0.706,0.058l-0.457,0.007l-0.508-0.016
		l-0.262-0.024l-0.174,0.031h-0.171l-1.75,0.219l-0.797,0.097l-0.7,0.08l-0.091,0.015l-0.082,0.019l-0.277,0.058l-0.037,0.006
		l-0.322,0.289l-0.512,0.493l-0.318,0.311l-0.427,0.404l-0.67,0.811l-0.018,0.066l-0.195,0.188l-0.249,0.231l-0.299,0.125
		l-0.012,0.003l-0.019,0.006l-0.45,0.18l-0.454,0.174l-0.371,0.377l-0.015,0.021l-0.146,0.201l-0.134,0.66v0.289l0.007,0.414
		l-0.146,0.246l-0.299,0.332l-0.572,0.749l-0.335,0.453l-0.048,0.085l-0.037,0.061l-0.104,0.189l-0.14,0.41l-0.01,0.073
		l-0.045,0.326l-0.013,0.158l-0.191,0.28l-0.347,0.219l-0.027,0.019l-0.031,0.015l-0.267,0.171l-0.326,0.173l-0.268,0.067
		l-0.293,0.07l-0.627,0.14l-0.194,0.109l-0.256,0.137l-0.426,0.319l-0.584,0.631l-0.457,0.597l-0.177,0.085l-0.185,0.082
		l-0.217,0.222l-0.243,0.244l-0.158,0.104l-0.192,0.115l-0.268,0.183l-0.073,0.055l-0.955,0.49l-0.713,0.252l-0.289,0.125
		l-0.706,0.424l-0.56,0.393l-0.174,0.121l-0.048,0.034l-0.226,0.17l-0.505,0.371l-0.109,0.076l-0.013,0.01l-0.191,0.124l-0.25,0.192
		l-0.023-0.004l0,0l-0.025-0.006l-0.736-0.131l-0.195-0.073h-0.012l-0.101-0.042l-0.597-0.223l-0.28-0.334l-0.474-0.588l-0.42-0.508
		l-0.177-0.247l-0.226-0.262l-0.213-0.109l-0.359-0.027l-0.216,0.058l-0.225,0.064l-0.494,0.206l-0.072,0.034h-0.007l-0.006,0.003
		l-0.109,0.027l-0.174,0.079l-0.949,0.225l-2.146,0.476l-1.013,0.167l-0.73,0.03l-0.204-0.021l-0.718-0.066l-0.633-0.024
		l-1.145-0.058h-0.356l-0.358,0.112l-0.592,0.171l-0.645,0.167l-0.331,0.012l-0.385,0.016l-0.599,0.024l-0.14,0.006h-0.913
		l-1.029-0.088l-0.627-0.052l-0.1-0.009l-0.457,0.075l-0.237,0.04l-0.28,0.055h-0.055h-0.072h-0.092h-0.055h-0.348l-0.321-0.055
		l-0.476-0.14l-0.713-0.231l-0.599-0.131h-0.006l-0.372,0.052l-0.313,0.076l-0.045,0.009l-0.089,0.043l-0.161,0.115l-0.374,0.295
		l-0.04,0.021l-0.279,0.226l-0.561,0.335l-0.715,0.392l-0.323,0.171l-0.338,0.167l-0.164,0.056l-0.535-0.027l-0.067-0.049
		l-0.344-0.186l-0.161-0.07l-0.338-0.174l-0.128-0.121l-0.146-0.131l-0.067-0.052l-0.007-0.007l-0.03-0.069l-0.109-0.237
		l-0.049,0.073l-0.012,0.006L98.05-53.56l-0.56,0.454l-0.334,0.226l-0.013-0.024l0.334,1.001l-0.036,0.444l-0.618,1.415
		l-0.103,0.226l-0.238,0.161l-0.383,0.259l-0.56,0.234l-1.203,0.502l-2.79,0.982l-0.381,0.351l-0.378,0.341l-0.584,1.431
		l-0.603,1.104l-4.072,3.11l-1.107,0.454l-1.559,0.647l-0.608,0.128l-0.322,0.067l-0.263,0.188l-0.492,0.356l-0.682,2.38
		l-0.122,0.124l-0.73,0.749l-0.413,1.181l-0.198,0.605l-0.371,0.566l-0.448,0.66l-2.272,1.993l-0.104,0.086l-0.938,3.247
		l-1.348,1.062l-0.444,0.355l-0.384,1.516l-0.633,1.521l-0.956,0.549l0.116,1.184l0.013,0.146l-0.326,0.673l-0.076,0.195
		l-0.512,0.179l-0.569,0.195l-1.289,0.666l-0.427,0.217v0.042l0.007,0.076l-0.616,0.463l-1.363,1.02l-1.083,1.025l-0.837,0.782
		l-2.496,0.938l-0.055,0.019l-1.992,1.244l-0.616,0.691l-0.325,0.359L58.425-11.5l-0.146,0.703l-1.308,0.255l-0.597-0.21
		l-0.694-0.243l-0.778,0.131l-0.195,0.03l-0.971-0.131l-0.767-0.812l-0.226-0.237l-0.585,0.037l-0.626,0.039l-0.96-0.639
		l-0.611-0.265l-0.988-0.42l-0.611,0.456L46.981-10l-0.679,0.929l-1.494,1.123l-0.63,0.131l-1.474,0.319l-2.894-0.049L38.98-7.558
		l-1.72,0.441l-1.352,0.112l-0.846-0.22l-1.309-0.852l-0.027-0.019l-1.245,0.113l-0.063-0.031l-1.202-0.572L30.27-8.627
		l-0.323-0.399l-0.325-0.383l-0.305-0.359l-1.917-2.13l-0.614-2.572l-0.566-0.761l-2.794-1.11l-0.749-0.831l-0.429-0.453
		l-2.082-1.385l-1.248-0.841l-0.066-0.115l-0.322-0.587l0.222-1.812L18.273-25l-0.348-1.885l-0.961-2.443l-0.49-0.195l-0.332-0.049
		l-1.723-0.243l-0.262,0.019l-0.255,0.019l-3.427-0.204l-1.589-0.095l-0.871-0.316L7.95-30.415l-6.489-5.515l-0.042-0.036
		l-0.733-0.572l-0.776-0.313l-1.987,0.986l-0.274,0.155l-1.844,1.04l-1.266,0.713l-1.029,0.575l-5.551,2.656l-1.54,0.858
		l-0.693,0.167l-1.203,0.286l-1.862,0.688l-0.027,0.009l-0.466,0.25l1.875,0.693l1.104,0.624l0.198,0.122l0.778,0.521l0.549-0.073
		l1.473-0.201l1.373-0.258l1.104-0.204l1.865-0.034l3.335-0.061l3.303,0.265l1.564,0.119l0.767,0.164L0.5-24.787l-1.442,1.953
		l-1.021,0.703l-2.407,0.043l-3.451-2.575l-0.657-0.304l-0.584-0.262l-1.166-0.234L-10.42-25.5l-1.458,0.146l-1.802-0.113
		l-1.114-0.066l-0.191-0.091l-0.225-0.11l-1.041-0.039l-1.199-0.6l-1.692-1.062l-0.146-0.222l-0.03-0.04l-0.29,0.149l-1.29-0.122
		l-4.857-0.17l-6.622,0.131l-4.446,0.061l-1.096-0.362l-0.529-0.469l-2.636-2.34l-0.363-0.499l1.084-2.098l-2.34-0.633l-8.06-1.02
		l-0.191-0.024l-0.722-0.931l-0.095-0.798l-0.301-0.828l-0.508,0.457l-1.406,1.72l-0.39,0.647l-0.852,1.452l-0.476,0.368
		l-0.036,0.027l-0.847,1.392l-2.23,3.715l-2.003,1.438l-0.109,0.118l-1.235,1.333l-0.594,0.693l-0.265,0.305l-1.85,1.449
		l-0.323,0.258l0.021,0.679l-0.441,1.403l-0.608,0.591l-0.191,0.194l-1.425,0.95l-1.464,0.639l-0.529,0.234l-1.16,0.706
		l-2.236,1.598l-2.271,1.619l-1.997,1.035l-0.322,0.174l-1.875,0.578l-0.712,0.225l-3.287,0.131l-0.992,0.289l-0.761,0.256
		l-0.852,0.283l-1.278,0.03l-1.023-0.48l-1.664-0.019l-0.259,0.042l-0.396,0.062l-2.578,1.241l-0.73,0.348l-3.332,2.477l0.69,0.85
		l1.717,1.323l3.116,1.894l4.209,1.957l6.3,2.854l4.688,1.442l5.603,2.785l4.888,3.631l3.421,2.739l4.642,4.245l3.722,3.159
		l3.312,3.083l3.104,2.069l3.004,1.987l2.012,0.986l3.677,1.214l8.342,2.59l5.329,1.485l1.104,0.322l1.479-0.103l1.573-0.359
		l2.757-1.139l3.038-1.309l4.304-2.426l2.744-1.138l1.979-0.277l1.763-0.444l1.871-0.529l2.545-1.132l1.771-0.615l0.788-0.009
		L3.214,24.3l1.096,0.492l3.184,1.492l2.483,0.903l1.09,0.155l0.313,0.588l0.322,1.773l-0.414,5.083l-0.364,2.039l-0.183,1.102
		l0.006,0.426l0.191,0.42l0.703,0.165l0.88,0.158l0.362,0.468l0.922,2.271l0.614,1.353l-0.088,0.764l-1.36,1.283l-0.688,0.597
		l-0.082,0.682l0.928,2.697l0.502,0.587l1.093,0.585l0.715,0.754l0.016,1.017l-0.271,1.692l0.423,1.856l0.505,0.847l1.199,1.171
		l1.096,0.158l2.754-0.62l2.444-1.041l1.859-1.117l1.646-1.796l1.458-1.625l0.578-0.938l0.393-0.173l0.492,0.078l0.893,0.415
		l0.696,0.328l0.588-0.006l0.587-0.177l1.373-0.353l0.493-0.004l0.791,0.246l0.587,0.585l1.103,0.755l1.089,0.243l0.785-0.009
		l2.663-0.617l1.76-0.187l0.593,0.167l0.493,0.247l0.305,0.588l0.319,1.263l0.201,1.016l0.404,0.761l0.7,0.166l1.272-0.184
		l2.449-0.958l1.37-0.688l1.75-1.201l0.779-0.688l0.308-0.085l0.304,0.423l0,0l0.007,0.758l0.012,0.843l0.104,0.253l0.396,0.167
		l0.587-0.003l1.27-0.694l2.052-1.198l0.985-0.18l0.688-0.007l1.092,0.074l1.678,0.492l0.985,0.159l0.587-0.083L65.8,52.6
		l0.873-0.688l0.696-0.341l0.786-0.177l0.882,0.165l0.983,0.242l1.093,0.674l1.104,0.84l1.984,1.677l1.497,1.512l3.451,1.495
		l0.989,0.25l0.883-0.092l0.883-0.007l0.791,0.25l0.699,0.503l0.92,1.562l0.807,1.518l1.102,1.093l1.375,0.919l1.392,1.516
		l0.791,0.926l1.388,0.584l1.869,0.413l1.883-0.185l1.182-0.341l1.467-0.855l1.477-1.193l1.569-1.193l0.968-0.939l0.785-0.426
		l0.493-0.007l0.588,0.164l0.7,0.335l0.889,0.585l0.006,0.594l-0.194,0.761l-2.821,3.914l-1.075,1.612l-1.077,0.512l-1.762,0.353
		l-2.656,0.688l-0.487,0.348l-0.478,1.017l-0.582,1.612l-0.867,1.784l-0.975,0.849l0.007,0.591l0.396,0.675l0.408,0.932
		l-0.083,1.442l-1.36,2.715l-0.669,1.868l-0.929,1.711l-0.688,0.938l-0.29,1.269l-0.082,1.017l-0.587,0.59l-0.977,0.348
		l-2.256,1.114l-2.925,1.116l-3.621,0.709l-3.053,0.701l-2.142,1.031l-2.436,1.458l-1.461,1.198l-0.591,0.512l-0.584,0.262
		l-1.181,0.183l-2.146,0.946l-1.856,1.117l-0.384,0.679l0.006,0.332l0.588,0.505l1.187,0.673l0.305,0.584l0.012,0.679l0.896,1.43
		l0.499,1.182l0.013,0.847l-0.195,1.102l0.2,0.426l0.493,0.249l0.688-0.003l0.974-0.435l1.659-0.603l1.953-0.776l0.487-0.18
		l0.493,0.165l0.493,0.846L73.874,110.362"/>
</g>
<g id="Layer_1_1_">
</g>
</svg>
