<?xml version="1.0" encoding="utf-8"?>
<!-- Generator: Adobe Illustrator 16.0.4, SVG Export Plug-In . SVG Version: 6.00 Build 0)  -->
<!DOCTYPE svg PUBLIC "-//W3C//DTD SVG 1.1//EN" "http://www.w3.org/Graphics/SVG/1.1/DTD/svg11.dtd">
<svg version="1.1" id="Layer_1" xmlns="http://www.w3.org/2000/svg" xmlns:xlink="http://www.w3.org/1999/xlink" x="0px" y="0px"
	 width="301.679px" height="232.938px" viewBox="-123.556 -95.335 301.679 232.938"
	 style="enable-background:new -123.556 -95.335 301.679 232.938;" xml:space="preserve">
<g id="Layer_67">
	<path id="Kohistan" style="fill:#CCCCCC;stroke:#FFFFFF;stroke-width:1.15;" d="M-5.467-84.226L-5.467-84.226l-0.664-0.536
		l-0.597-0.235l-0.538,0.07l-0.514,0.455l-0.45,0.659l-0.565,0.723l-0.769,0.804l-0.675,0.631l-0.916,0.504l-0.8,0.16l-0.926,0.434
		l-1.042-0.075l-0.999-0.364l-0.91-0.155l-0.57-0.269l-0.53-0.155l-0.664-0.155l-0.664-0.268l-0.757-0.321l0.139-0.118l-0.407-0.535
		l-0.394-0.803l-0.894-0.466l-0.653-0.198l-0.9-0.273l-0.41-0.466l-0.334-0.466l-0.511-0.6l-0.8-1.007l-1.063-0.932l-1.036,0.064
		l-1.486,0.739l-0.477,1.103l-1.322,1.173l-0.225,0.401l-1.25-0.337l-1.55-0.15h-1.381l-0.73,0.471l-0.089,1.125l-0.241,0.557
		l-0.812,0.536l-0.916,0.166l-0.812-0.113l-0.318,0.573l-0.932,0.583l-1.354,0.686l-1.381-0.054l-1.188-0.22l-0.472-0.996
		l-0.479-0.835l-0.367-0.883l-0.624-0.862l-1.181-0.996l-1.371-0.332l-1.042,0.182l-0.91,0.08l-0.624,0.204l-1.542,0.562
		l-1.722,1.172L-54.3-82.92l-1.055,0.295l-1.256,0.069l-1.042,0.123l-1.486,0.573l-1.486,0.504l-1.676,0.519l-1.804,0.134
		l-1.882-0.139l-1.556-0.064l-1.558-0.268l-1.058-0.541l-0.57-0.798l-0.161-1.007l0.249-0.942l0.23-1.291l0.207-1.682l-0.011-1.06
		l-0.76-0.112l-0.653-0.07l-1.558-0.134l-1.392,0.204l-1.309,0.075l-1.229,0.192l-1.486,0.337l-1.789,0.273l-1.962,0.059
		l-1.245-0.059l-0.889-0.739l-1.146-0.733l-0.905-0.745l-0.812-0.803l-0.334,0.739l-0.57,1.103l-0.398,1.537l-0.094,1.863
		l-0.57,0.524l-0.988-0.128l-0.806-0.139l-1.058-0.134l-0.9,0.134l-0.937,0.38l0.131,1.381l0.177,1.312l-0.538,0.669h-0.988
		l-1.002,0.075l-0.559,0.311l-0.33,0.354l-0.511,0.401l-0.645,0.648l-0.616,0.482l-0.57,0.509l-0.41,0.043l0.075,0.396l0.062,0.38
		l-0.817,0.605l-0.822,0.605l-0.819,0.604l-0.739,0.536l-0.691,0.145l-0.696,0.139l-1.261,0.252l-0.522,0.064l-0.57,0.01
		l-0.57,0.054l-0.514,0.118l-0.916,0.504l-0.9,0.364l-0.784,0.032l-0.517,0.15l-0.351,0.878l-0.206,0.938l-0.254,0.701l-0.075,0.536
		l0.185,0.493l0.088,0.466l-0.174,0.439l-0.774,0.75l-0.696,0.482l-0.167,0.535l0.56,0.38l0.544,0.359l0.439,0.332l-0.062,0.594
		l-0.34,0.413l-0.037,0.68l-0.188,0.75l-0.147,0.546l0.423,0.289l0.565,0.3l1.052,0.364l0.592,0.171l0.643,0.257l0.415,0.268
		l0.961,0.354l0.739,0.032l0.768-0.011l0.565,0.064l0.817,0.525l0.439,0.22l0.576,0.198l-0.094,0.921l-0.164,0.573l-0.198,0.712
		l-0.161,0.525l0.134,0.439l0.739,0.482l4.87-1.317l2.736-0.739l1.836,0.337l-0.115,0.954l0.278,0.813l0.183,0.847l-0.11,1.274
		l-0.23,1.252l-0.171,1.109l0.016,1.89l-0.23,1.221l-0.514,1.317v0.053l-0.176,0.418l-0.115,0.15l-0.367,0.686l-0.538,1.14
		l-0.29,1.312l-0.12,0.91l-0.11,1.329l-0.171,1.66L-96.935-39l-0.225,1.43l-0.399,0.895l-0.292,1.055l-0.096,0.745l0.021,1.081
		l-0.214,1.821l-0.214,0.637l-0.905,1.408l-0.691,1.226l-0.932,1.569l-0.674,1.483l-0.493,1.639l-0.358,1.215l-0.263,0.702
		l-0.163,1.783l-0.208,1.36l-0.167,0.583l-0.163,1.108l-0.121,1.414l0.083,1.874l0.085,1.323l0.072,1.376l-0.048,1.569l0.016,1.376
		l0.41,1.295l0.259,0.803l0.461,1.563l0.57,1.489l0.005,0.016l0.209,1.473l-0.27,1.231l-0.646,1.242l-0.423,0.354l-0.236,0.241
		l-0.38,0.375l0.835,1.917l0.115,0.021l0.329,0.466l0.782,0.219l0.067,0.011l0.517,0.423l-0.115,0.616l-0.313,0.878l-0.22,0.246
		l-0.297,0.343l-0.07,0.343l0.086,0.493l0.013,0.08l-0.621,0.669l-0.46,0.557l-0.279,1.296l-0.889,0.605l-0.712,0.562l-0.57,0.562
		l-0.418,0.744l-1.079,0.6l-0.742,0.096l-0.514,0.069l-0.669,0.413l-0.57,0.503l-0.434,0.835l1.224,1.564l0.099,0.91l-0.244,0.595
		l0.083,0.621l0.522,0.032l0.57,0.364l0.938,0.573l0.634,0.3l0.699,0.68l0.42,0.669l0.696,0.472l0.8,0.112l0.795,0.497l0.34,0.226
		l0.418,0.492l0.147,0.06h0.795l0.506-0.038l0.121,0.011l0.241,0.021l0.784,0.172l0.833,0.097l0.394,0.144l0.916,0.103l0.34,0.048
		l0.375,0.037l0.436,0.097l0.386,0.268l0.356,0.188l0.037,0.247l-0.115,0.685l0.005,0.439l0.005,0.192v0.043l0.094,0.739v0.037
		l-0.273,0.638l-0.571,0.412L-95.8,28.24l-0.195,0.3l0.217,0.653l0.133,0.321l-0.235,0.669l-0.04,0.129l-0.554,0.584l-0.53,0.804
		l-0.088,0.213l-0.099,0.226l0.104,0.472l0.115,0.471l0.182,0.482l0.164,0.535l0.125,0.52l-0.565,0.749l-0.503,0.482l-0.34,0.375
		l-0.251,0.46l-0.115,0.664l-0.024,0.493l0.046,0.573v0.037l-0.046,0.466l-0.005,0.349l-0.201,0.979l-0.375,0.69l-0.142,0.273
		l-0.57,0.443l-0.361,0.183l-0.11,0.236l-0.147,0.262l0.294,0.68l0.38,0.375l0.399,0.343l0.021,0.278l-0.272,0.301l-0.099,0.032
		l-0.439,0.17l-0.399,0.172l-0.139,0.15l-0.195,0.444l0.059,0.67l0.005,0.021l0.011,0.118l0.49,0.578l0.784,0.761l-0.292,0.595
		l-0.115,0.128l-0.23,0.311l-0.388,0.358l-0.239,0.338l-0.027,0.134l-0.115,0.633l-0.64,0.385l-0.456,0.38l-0.495,0.338
		l-0.619,0.048l-0.407-0.225l-0.45-0.107l-0.46-0.102l-0.57-0.204l-0.565,0.301l-0.801,0.326l-0.624-0.069l-0.602-0.011l-0.528,0.08
		l-0.527,0.145l-0.415,0.269l-0.632,0.486l-0.482,0.584l0.428,0.541l0.33,0.477l0.541,0.916l0.238,0.674l-0.38,0.873l-0.905,0.498
		L-110.383,57l-0.271,0.412l-0.203,0.766l-0.53,0.06l-0.758,0.048h-0.11l-0.57,0.021l-0.613,0.082l-0.247,0.797l0.263,0.439
		l0.192,0.449l-0.265,0.707l-0.356,0.804l-0.316,0.396l-0.23,0.984l-0.118,0.921l-0.337,0.321l-0.61,0.504l-0.41,0.343l-0.669,0.686
		l-0.276,0.417l-0.34,0.615l-0.19,0.686l-0.198,0.461l-0.172,0.439l0.156,1.012l0.372,0.348l0.543,0.455l0.439,0.247l0.57,0.278
		l0.565,0.155l0.646,0.161l0.543,0.118l0.905,0.214l0.969-0.06l0.479,0.118l0.571,0.535l0.257,0.429l0.174,0.449l0.265,0.429
		l0.503,0.503l0.701,0.621l0.675-0.326l0.707,0.118l0.658,0.284l0.653,0.144l0.514-0.203l0.587,0.113l0.806,0.391l0.768,0.192
		l0.758,0.15l0.53,0.187l0.233,0.573l-0.083,0.45l-0.016,0.101l0.546,0.81l0.239,0.547l0.032,0.074l-0.021,0.776l0.262,0.718
		l0.164,0.203l0.407,0.263l0.099,0.016l1.135,0.327l0.404,0.117l0.544-0.16l0.591-0.268l0.621-0.118l0.322,0.172l0.642,0.423
		l0.868,0.61l0.235,0.621l0.016,0.718l0.006,0.182l-0.043,0.321l0.021,0.043l0.536,0.6l0.15,0.155l0.377,0.252l0.367,0.401
		l0.605,0.728l0.597,0.327l-0.361,0.46l-0.669,0.75l-0.73,0.562l-0.11,0.209l-0.18,0.364l-0.099,0.401v0.037l0.115,0.535
		l0.188,0.505l0.34,0.834l0.085,0.311l0.209,0.761l-0.361,0.481l-0.067,0.086l-0.383,0.241l-0.059,0.006l-0.265,0.412l0.785,0.573
		l0.34,0.642l0.115,0.525l0.142,0.46l0.083,0.686l-0.251,0.927l-0.11,0.444l-0.115,0.601l-0.056,0.459l0.019,0.033l0.217,0.331
		l0.57,0.622l0.905,0.492l0.375,0.192l0.19,0.103l0.439,0.572l0.308,0.579l0.602,0.818l0.324,0.418l0.503,0.847l0.313,0.963
		l0.346,0.942l0.027,0.965l0.029,0.68l0.021,0.08l0.059,0.595l0.051,0.197l-0.035,0.509l-0.225,0.767l-0.185,0.616l-0.046,0.438
		l0.051,0.541l0,0l-0.078,0.524l0.016,0.043l-0.038,0.155l0.115,0.567l0.088,0.434l0.728,0.868l0.407,0.481l0.34,0.429l0.514,0.492
		l0.5,0.429l0.571,0.503l0.393,0.23l0.592,0.23l1.486,0.444l0.115,0.021l0.648,0.011l1.486-0.263l1.685-0.311l1.497-0.283
		l0.34-0.017l0.434-0.021l0.102-0.012l1.486-0.229l0.407-0.075l0.801-0.15l0.747,0.043l0.038,0.005l0.648,0.124l0.717,0.487
		l0.565,0.707l0.093,0.048l0.892,0.621l1.125,0.305l0.758,0.086l0.377,0.011l0.115,0.012l0.241-0.044l0.423-0.011l0.318,0.481
		l0.006,0.012l-0.006,0.011l-0.345,0.492l-0.576,0.632l-0.056,0.128l-0.174,0.445v0.011l-0.04,0.54l-0.147,0.311l-0.168,0.354
		l-0.346,0.289l-0.439,0.235l-0.586,0.268l-0.543,0.273l-0.466,0.251l-0.868,0.52l-0.428,0.402l-0.289,0.686l-0.046,0.176
		l-0.01,0.579l-0.022,0.187l-0.021,0.307l0.011,0.535l-0.011,0.465l0.021,0.863l-0.08,0.674l-0.008,0.075l-0.3,0.434l-0.22,0.627
		l-0.115,0.733l-0.099,0.032l0.263,0.23l0.428,0.192l0.078,0.032l1.015,0.337h0.043l0.742,0.235l0.112-0.01l0.281-0.112l1.058-0.783
		l0.632-0.642l0.367-0.268l1.009-0.343l0.603-0.359l0.702-0.572l1.531-0.67l0.487-0.524l0.273-0.659l0.34-0.38l0.225-0.063
		l0.11-0.022l0.506,0.006l0.817-0.102l0.361-0.054l1.805-0.192l1.486-0.215l0.624-0.16l0.873-0.209l0.34-0.102l1.2-0.343
		l0.318-0.048l0.308-0.044l0.168,0.044l0.34-0.204l0.95-0.449l0.97-0.535l0.176-0.194l0.038-0.01l0.8-0.83l1.904-0.579l0.437,0.032
		l1.711,0.172l0.631-0.226l1.015-0.016l1.151-0.311l1.36-0.423l0.734-0.203l1.663-0.567l1.03-0.178l0.739,0.021l2.198-0.262
		l1.269-0.107l0.755-0.063l0.496,0.032l1.031,0.353l0.833,0.434l1.832,1.028l0.827,0.321l1.13,0.349l0.953,0.438l0.38,0.776
		l0.444,1.018l0.691,0.804l1.261,0.803l0.324,0.155l0.76,0.38l1.376,0.889l0.696,0.573l0.209,0.172l0.287,0.257l1.611,0.6
		l2.021,0.054l1.5,0.021h0.115l1.021-0.129l0.586-0.086l2.171-0.032l1.215,0.011l0.6-0.048l0.996-0.037l0.8-0.29l0.099-0.026
		l0.927-0.257l0.653-0.043h0.289h0.046l0.607-0.026l0.482,0.026l0.8,0.086l0.659-0.204l0.356-0.213l1.992-1.158l0.624-0.637
		l1.208,0.455l0.094,0.006l0.519,0.054l1.031-0.284l0.329,0.043l1.063,0.112l0.324,0.9l-0.115,1l0.209,0.493l0.115,0.557l0.115,0.45
		l0.471,0.771l0.356,0.219l0.33,0.135l1.558,0.246l2.543-1.044l0.586-0.402l1.344-0.295l1.408,0.739l0.8,0.064l1.192-0.102
		l1.879-0.466l1.767-0.493l1.727,0.177l1.492-0.134l2.051-0.289l3.239-0.921l1.135,0.278l1.438-0.412l1.885-0.284l1.031-0.139
		l1.564,0.209l2.141,0.417l2.174,0.429l2.373,0.316l2.381-0.461h1.254l1.307,0.557l1.402,0.578l0.568,0.338l0.348,0.295l1.42,1.146
		l0.941,0.932l1.158,0.932l0.031,0.005l1.553,0.487l0.781,0.311l1.709,0.53L56.315,133h0.9l1.445-0.337l0.932-0.226l1.254,0.032
		l1.113,0.011l2.229,0.183l2.398,0.145l0.354-0.145l0.652-0.301l0.396-0.835l0.182-0.129l0.381-0.278l0.766-0.589l1.199-0.76
		l0.91-0.461l0.113-0.032l0.336-0.107l0.621-0.15l1.137-0.063l0.824-0.273l0.139-0.063l1.34-0.729l0.449-0.235l0.818-0.605
		l0.301-0.326l0.52-0.793l0.363-0.498l0.393-0.524l0.412-0.472l0.311-0.503l0.117-0.16l0.123-0.621l0.418-1.211l0.037-0.086
		l0.055-0.766l-0.242-0.717l0.338-0.783v-0.148l0.256-0.648l0.51-0.686l0.701-0.68l0.342-1.709l0.033-0.192l0.08-0.429l0.531-0.438
		l0.111-0.055l0.729,0.451l0.83,0.256l0.213-0.031l0.473-0.171l0.572-0.129l0.408-0.146l0.514-0.471l0.271-1.028l0.146-0.712
		l0.133-0.793l0.064-0.557l0.182-0.016l2.607-0.241l6.785-0.643l0.686-0.069l0.027,0.059h0.01l0.016,0.017l0.209,0.268l0.359,0.386
		l0.258,0.288l0.068,0.103l0.209,0.172l0.916,1.954l0.83,0.139l0.182,0.021l0.584,0.07l0.156,0.016l1.514,1.082l0.553,0.112
		l0.846-0.017l0.932-0.284l0.535-0.567l0.193-0.182l0.492-0.461l0.027-0.032l0.482-0.707l0.529-0.476l0.615-0.402l0.531-0.867
		l0.225-0.535l0.021-0.043l0.105,0.005l0.355-0.529l0.074-0.418l0.064-0.776l-0.119-0.503l-0.145-0.536v-0.032l0.402-0.937
		l0.344-0.349l0.127-0.134l0.777,0.155l0.695,0.203l0.744,0.107l1.057-0.176l1.064-0.012l0.562-0.246l0.111-0.472l0.061-0.54
		l0.443-0.461l0.568-0.332l0.664-0.054l0.781-0.069l0.553,0.064l0.572,0.278l0.289,0.375l0.363,0.38l0.514,0.369l0.848,0.07
		l0.793-0.103l0.941,0.178l0.467,0.337l0.486,0.23l0.461,0.118l0.395,0.036l0.049-0.016l0.691-0.101l0.215-0.017l1.387,0.331
		l1.531,0.183l0.799-0.118l0.717-0.449l1.082-0.793l0.824-0.203l0.016,0.011h0.01l2.395,1.697l0.842,0.761l0.604,0.535l0.375,0.241
		l1.334,0.423l0.461,0.226l0.396,0.192l1.258,0.449l0.471-0.106l0.574-0.263l0.256-0.15l0.531-0.348l0.428-0.295l0.16-0.112
		l2.592-2.292l0.338-0.348l0.369-0.953l-0.012-0.203l-0.084-1.323l0.889-0.562l0.262-0.209l0.336-0.252l0.082-0.621l-0.059-0.776
		l-0.188-0.375l-0.113-0.229l-0.117-0.247l-0.344-0.338l-0.16-0.214l-0.053-0.942l0.572-0.449l0.488-0.857l0.186-1.402l-0.068-0.23
		l-0.135-0.477l-0.08-0.401l-0.246-1.494l0.01-0.445l0.184-0.766l0.123-0.969l0.031-0.123l0.338-0.487l0.797-0.766l0.906-0.787
		l0.803-1.254l0.879-0.979l0.145-0.069l0.326-0.08l0.439-0.118l2.184-0.214l1.844-0.192l0.689-0.145l0.916-0.178l1.029-0.133
		l1.301,0.068l0.834,0.284l0.809,0.118l0.965,0.026l0.621-0.037l2.26-1.874l0.594-0.396l1.012-0.67l0.6-0.733l0.027-0.021
		l0.047-0.064l0.506-0.481l0.604-0.263l0.648-0.32l2.57-2.475l0.311-0.686l-0.381-0.492l-0.16-0.327l0.01-0.669l-0.197-0.975
		l-0.406-1.43l0.021-0.183l0.064-0.557l0.471-0.653l0.354-0.46l0.787-0.049l0.246-0.177l-0.574-0.214l-0.277-0.363l-0.316-0.595
		l-0.234-0.676l-0.307-0.652l-0.363-0.53l-0.439-0.45l-0.857-1.354l-0.529-0.583l-0.482-0.686l-0.646-0.562l-0.793-0.418
		l-0.537-0.482l-0.529-1.092l-0.102-0.552l-0.338-0.647l-0.225-0.172l-0.9-0.08l-0.572,0.08l-0.803,0.097l-0.814,0.16l-0.941,0.112
		l-0.799-0.154l-0.775-0.188l-0.531-0.182l-1.215,0.407l-0.568,0.117l-0.643,0.06l-0.406,0.032l-0.504,0.246l-1.199,0.461
		l-0.674,0.278l-0.525,0.235l-0.342,0.16l-0.643-0.032l-1.297-0.835l-0.643-0.439l-0.439-0.331l-0.117-0.29l-0.236-0.288
		l-0.133-0.295l-0.248-0.438l-0.346-0.429l-0.113-0.177l-0.135-0.118l-0.305-0.364l-0.113-0.278l-0.117-0.203l-0.305-0.257
		l-0.295-0.14l-0.342-0.038l-0.311,0.236l-0.338,0.086l-0.424,0.064h-0.406l-0.783-0.108l-0.283-0.01l-0.418-0.45l-0.428-0.343
		l-0.734-0.503l-0.893-0.675l-0.391-0.273l-0.879-0.471l-0.354-0.177l-0.488-0.257l-0.496-0.193l-0.516-0.102l-0.416-0.134
		l-0.482-0.107l-1.328,0.509l-0.504,0.102l-0.482,0.295l-0.406,0.24l-0.439,0.118l-0.504,0.054l-0.748-0.021l-0.568-0.074
		l-0.6,0.139l-0.535,0.723l-0.424,0.52l-0.689,0.781l-0.58,0.429l-0.498,0.236l-0.496,0.385l-0.762,0.369l-0.471-0.337l-1.27-0.054
		l-0.562-0.026l-0.566,0.155l-0.449,0.064l-0.344-0.113l-0.225-0.449l-0.08-0.438l0.059-0.375l0.01-0.648l-0.041-0.386l-0.172-0.492
		l-0.113-0.305l0.285-0.199l0.17-0.337l-0.418-0.031l-0.76,0.074h-0.332l-0.428-0.074l-0.568-0.15l-0.719-0.166l-0.803-0.509
		l-0.059-0.311l0.488-0.461l0.492-0.348l0.482-0.263l0.16-0.229l0.102-0.284l-0.037-0.247l-0.15-0.166l-0.117-0.337l-0.248-0.52
		l-0.191-0.401l-0.154-0.375l-0.221-0.434l-0.182-0.755l-0.129-0.269l-0.135-0.272l0.049-0.316l-0.086-0.23l-0.213-0.225
		l-0.344-0.219l-0.354-0.172l-0.342-0.219l-0.328-0.37l-0.219-0.439l-0.117-0.348l-0.396-0.257l-0.119-0.183l-1.027-0.15
		l-0.492-0.096l-0.348-0.263l-0.113-0.289l-0.293-0.369l-0.291-0.284l-0.336-0.278l-0.129-0.337l-0.225-0.322l-0.098-0.234
		l0.268-0.407l0.236-0.322l0.123-0.337l0.09-0.332l0.109-0.385l0.041-0.381l0.021-0.305l-0.01-0.278l-0.129-0.45l-0.139-0.481
		l-0.344-0.547l-0.385-0.407l-0.658-0.631l-0.551-0.365l-0.574-0.38l-0.348-0.348l-0.279-0.38l-0.225-0.316l-0.283-0.327
		l-0.219-0.535l-0.092-0.514l-0.209-0.386l-0.129-0.589l0.385-0.852l0.473-0.562l0.182-0.568l0.096-0.423l-0.107-0.504l-0.021-0.728
		l-0.139-0.61l-0.068-0.467l0.252-0.272l0.416,0.043l0.621,0.3l0.322,0.091l0.203-0.203l-0.129-0.247l-0.15-0.358l-0.213-0.503
		l-0.119-0.435l-0.191-0.492l-0.184-0.589l-0.213-0.29l-0.033-0.417l-0.117-0.375l-0.086-0.471l0.119-0.504l0.289-0.535l0.686-0.567
		l0.578-0.311l0.566-0.375l0.574-0.461l0.668-0.819l-0.031-0.567l0.031-0.546l-0.021-0.509l0.033-0.482l0.748-0.498l0.375-0.354
		l0.387-0.38l0.268-0.498l0.268-0.589l0.15-0.6l0.111-0.637l0.199-0.643l0.16-0.3l0.418-0.434l0.422-0.209l0.82-0.021l0.572-0.107
		L121,15.094l0.676-0.37l0.502-0.391l0.439-0.503l0.889-0.771l0.9-0.889l0.932-0.916l0.541-1.141l0.256-0.552l0.396-0.364
		l0.67-0.043l0.477,0.284l0.818,0.134l0.676-0.091l0.391,0.064l0.52,0.236l0.557,0.048l0.664-0.112l0.643-0.471l0.449-0.268
		l0.574-0.161L133.51,8.7l0.707-0.086l0.48-0.219l0.107-0.686l-0.219-0.98l-0.471-0.38l-0.73-0.391l-0.25-1.478l-0.086-0.53
		l-0.059-0.573l0.049-0.573L132.684,1.3l-0.064-0.632l-0.342-0.964l-0.117-0.605l-0.172-0.498l-0.117-0.953l0.117-0.852l0.037-1.355
		l0.289-0.466l0.07-0.364l0.01-0.503l0.676-0.659l0.234-0.568l-0.514-0.658l-0.477-0.327l-0.471-0.118l-0.91,0.022l-0.926,0.149
		l-0.885,0.006l-0.787-0.241l-0.803-0.177l-0.857-0.134l-0.662,0.048l-0.783,0.139l-0.621,0.214l-0.562,0.15l-0.717,0.037
		l-0.498,0.054l-0.621-0.46l-0.299-0.38L121.75-9.27l-0.258-0.455l-0.201-0.562l-0.436-0.23l-0.492-0.348l-0.676-0.171l-0.539-0.166
		l-0.686-0.021l-0.525-0.069l-0.686-0.059l-0.867,0.011l-0.99,0.054l-0.975,0.085l-0.99,0.193l-0.867,0.263l-0.805,0.241
		l-0.812,0.134l-1.709,0.289l-0.574,0.064l-0.898,0.069l-1.018,0.112l-1.061,0.054l-0.855-0.171l-1.125-0.338l-0.75-0.407
		l-0.686-0.429l-0.766-0.251l-0.775-0.354l-0.805-0.343l-0.707-0.198l-0.6-0.235l-0.76-0.311l-0.477-0.263l-0.738-0.937L96.01-14.7
		l-0.455-0.263l-1.365,0.37l-0.916,0.048l-0.969,0.311l-1.564,0.68l-1.402,0.45l-1.258,0.214l-1.254,0.145l-1.355,0.123
		l-0.797,0.471l-1.049,0.171l-1.082,0.557l-0.793,0.461l-0.963,0.455l-0.9-0.064l-0.6-0.037l-0.664-0.252l-0.771-0.754l-0.658-0.61
		l-0.895-0.423l-0.947-0.455l-1.023-0.418l-0.91-0.091l-0.492,0.514l-0.781,0.814l-1.156,0.803l-1.168,0.38l-0.092,0.005
		l-0.01,0.022l-1.131,0.289l-1.436-0.166L66.18-11.15l-0.799-0.616l-0.738-0.728l-0.574-0.391l-0.898-0.037l-0.922,0.118
		l-0.605,0.348l-0.957,0.755l-1.014,0.439l-0.996,0.01l-1.104,0.113l-1.113,0.327l-1.076,0.305l-1.295,0.342l-1.189,0.161
		l-1.125,0.278L50.94-9.816l-0.729,0.075l-1.045,0.332l-0.969,0.659l-0.996,0.187l-0.594-0.669L46.27-9.934l-0.729-0.664
		l-0.572-0.567l-0.215-0.701l0.092-0.98l0.031-0.766l0.205-1.274l0.053-0.637l-0.279-1.033l-0.139-0.686l-0.064-1.125l-0.102-0.803
		l-0.123-0.803l-0.021-0.852l0.332-0.996l-0.156-0.525l-0.48-0.819l-0.707-0.188l-1.023-0.418l-0.975-0.203l-0.814-0.348
		l-0.941-0.311h-0.568l-1.027-0.343l-0.408-0.241l-0.449-0.257l-0.76-0.61l-0.492-0.589l-0.51-0.439l-0.787-1.574l-0.572-1.114
		l-0.273-1.542l-0.289-0.787l-0.418-0.723l-0.268-0.782l-0.707-0.6l-1.352-0.84l-0.148-0.541l-0.568-1.071l-0.34-0.83l0.125-1.05
		l-0.115-0.648l-0.619-0.541l-0.543-0.214l-0.801,0.166l-0.616,0.23l-0.958,0.22l-0.816,0.268l-0.608-0.038l-1.025-0.203
		l-1.13-0.423l-1.255-0.37l-0.664-0.332l-0.34-0.562l-0.592-0.477l-1.025-0.365l-0.878,0.349l-1.486,0.337l-0.943-0.033
		l-1.114,0.145l-0.964,0.284l-0.961,0.219l-1.199,0.14l-0.889,0.417l-0.905,0.61l-1.438-0.102L7.1-40.21l-0.734-1.14l-0.8-0.161
		L4.08-41.506l-1.915-0.236L1.25-41.64l-1.914-0.546l-1.794-1.649l-3.087-2.806l-2.696-1.826l-1.941-0.536l-1.941-2.013
		l-1.612-1.141l-2.182-0.005l-1.371-1.194l-0.391-0.594l-0.811-1.473l-0.921-0.889l-0.57-0.899l-0.389-1.274l-0.37-0.776
		l0.089-1.312l0.319-1.038l0.351-0.595l0.476-0.171l0.472-0.155l0.386-0.081l0.8-0.268l0.87-0.257l0.423-0.133l2.198,0.316
		l2.287,0.278l1.641,0.069l1.21-0.278l0.73-0.524l0.812-1.296l1.633-1.151l2.495-1.264l1.325-0.525l0.8-0.278l0.589-0.439
		l0.169-0.514l-0.032-0.712l-0.161-0.932l0.115-1.066l-0.487-0.631l-0.23-1.237l0.171-0.76l0.514-0.916l0.691-0.52l-0.075-1.119
		l-0.961-1.151l-0.57-0.959l-1.328-1.655l-0.667-0.899l-0.773-1.065l-0.257-0.188l-0.38-0.68L-5.467-84.226"/>
</g>
<g id="Layer_1_1_">
</g>
</svg>
