<?xml version="1.0" encoding="utf-8"?>
<!-- Generator: Adobe Illustrator 16.0.4, SVG Export Plug-In . SVG Version: 6.00 Build 0)  -->
<!DOCTYPE svg PUBLIC "-//W3C//DTD SVG 1.1//EN" "http://www.w3.org/Graphics/SVG/1.1/DTD/svg11.dtd">
<svg version="1.1" id="Layer_1" xmlns="http://www.w3.org/2000/svg" xmlns:xlink="http://www.w3.org/1999/xlink" x="0px" y="0px"
	 width="301.097px" height="177.234px" viewBox="-34.596 -20.302 301.097 177.234"
	 style="enable-background:new -34.596 -20.302 301.097 177.234;" xml:space="preserve">
<g id="Layer_35">
	<path id="Jammu__x26__Kashmir" style="fill:#CCCCCC;stroke:#FFFFFF;stroke-width:1.15;" d="M176.652-13.116L176.652-13.116
		l0.002,0.009l-0.031,0.208l-0.168,0.217l-0.115,0.193l-0.057,0.094l-0.031,0.178l-0.039,0.208l0.025,0.13l-0.074,0.207
		l-0.129,0.109l-0.143,0.055l-0.244,0.092l-0.334,0.158l-0.285,0.124l-0.287,0.13l-0.248,0.112l-0.121,0.239l-0.072,0.134
		l-0.342,0.253l-0.184,0.135l-0.262,0.192l-0.34,0.251l-0.176,0.125l-0.186,0.14l-0.135,0.207l-0.111,0.177l-0.131,0.208
		l0.025,0.248l0.018,0.146l0.047,0.426l-0.131,0.181l-0.199,0.41l-0.342,0.231l-0.473,0.378l-0.656,0.307l-0.426,0.418l-0.707,0.261
		l-0.836,0.406l-0.619,0.308l-0.6,0.395l-0.373,0.244L166.8-4.171l-0.568,0.234l-0.48,0.433l-0.701,0.246l-0.492,0.283l-0.645,0.167
		l-0.705,0.434l-0.445,0.436l-0.311,0.307l-0.352,0.375l-0.377,0.282l-0.326,0.244l-0.551,0.41l-0.459,0.345l-0.525,0.394
		l-0.484,0.297l-0.598,0.366l-0.65,0.391l-0.527,0.317l-0.41,0.25l-0.373,0.222l-0.789,0.315l-0.672,0.441l-0.76,0.356l-0.688,0.319
		l-0.396,0.261l-0.582,0.493l-0.479,0.46l-0.359,0.184l-0.684,0.349l-0.297,0.335l-0.377,0.436l-0.652,0.475l-0.725,0.526
		l-0.727,0.165l-1.139,0.115l-0.906,0.173l-1.014,0.247l-0.855,0.145l-0.971,0.201l-0.58,0.406l-0.58,0.217l-0.492,0.102
		l-0.418,0.074l-0.271,0.144l-0.287,0.132l-0.344,0.115l-0.271,0.173l-0.383,0.176l-0.613,0.145l-0.523,0.245l-0.439,0.176
		l-0.25,0.144l-0.146,0.45l-0.326,0.261l-0.344,0.218l-0.34,0.131l-0.451,0.232l-0.473,0.217l-0.379,0.16l-0.508,0.174l-0.416,0.086
		l-0.434,0.073l-0.387,0.13l-0.34,0.146l-0.326,0.13l-0.344,0.188l-0.271,0.16l-0.254,0.158l-0.273,0.131l-0.361,0.217l-0.291,0.145
		l-0.191,0.176l-0.33,0.188l-0.383,0.218l-0.287,0.217l-0.287,0.159l-0.328,0.116l-0.307,0.173l-0.398,0.176l-0.307,0.261
		l-0.381,0.304l-0.447,0.247l-0.418,0.248l-0.398,0.261l-0.287,0.204l-0.277,0.204l-0.217,0.217l-0.271,0.275l-0.309,0.274
		l-0.287,0.291l-0.363,0.29l-0.344,0.291l-0.418,0.231l-0.393,0.305l-0.471,0.233l-0.439,0.275l-0.447,0.16l-0.334,0.087
		l-0.355,0.129l-0.385,0.087l-0.418,0.13l-0.379,0.073l-0.381,0.072l-0.361,0.13l-0.451,0.116l-0.416,0.115l-0.523,0.145
		l-0.342,0.072l-0.396,0.043l-0.393,0.014h-0.494l-0.541-0.102l-0.417-0.086l-0.504-0.118h-0.47l-0.416-0.028l-0.288,0.028
		l-0.271,0.044l-0.289,0.043l-0.219,0.16l-0.236,0.13l-0.221,0.161l-0.108,0.174l-0.182,0.188l-0.2,0.146l-0.199,0.102l-0.253,0.188
		l-0.164,0.146l-0.019,0.203l0.073,0.203l-0.128,0.176l-0.184,0.13l-0.183,0.233l-0.184,0.204l-0.251,0.217l-0.184,0.188
		l-0.272,0.204l-0.274,0.217l-0.237,0.204l-0.09,0.146l-0.086,0.146l-0.276,0.333l-0.273,0.261l-0.254,0.275l-0.236,0.262
		l-0.217,0.188l-0.276,0.204l-0.25,0.289l-0.222,0.219l-0.249,0.303l-0.183,0.218l-0.219,0.203l-0.184,0.146l-0.195,0.159
		l-0.274,0.146l-0.274,0.145l-0.237,0.16l-0.308,0.159l-0.326,0.16l-0.471,0.173l-0.417,0.131l-0.273,0.117l-0.22,0.204
		l-0.196,0.174l-0.307,0.233l-0.33,0.16l-0.288,0.159l-0.436,0.159l-0.362,0.058l-0.397,0.13l-0.435,0.057l-0.397,0.131
		l-0.394,0.102l-0.361,0.058l-0.252,0.146l-0.273,0.13l-0.361,0.131l-0.47,0.16l-0.561,0.028h-0.38l-0.436-0.117l-0.437-0.188
		l-0.394-0.176l-0.415-0.174l-0.327-0.16l-0.382-0.016l-0.308-0.028l-0.414-0.089l-0.491-0.146l-0.362-0.13l-0.378-0.19
		l-0.416-0.159l-0.396-0.204l-0.25-0.16l-0.49-0.231l-0.288-0.235l-0.361-0.261l-0.306-0.188l-0.325-0.174l-0.342-0.277
		l-0.412-0.204l-0.329-0.13l-0.362-0.188l-0.249-0.072l-0.089,0.274l-0.09,0.32l-0.057,0.277v0.246l-0.219,0.233l-0.306,0.204
		l-0.328,0.246l-0.307,0.233l-0.383,0.232l-0.307,0.233l-0.329,0.246L86.366,30.3l-0.346,0.204l-0.236,0.145l-0.236,0.175
		l-0.288,0.175L85.008,31.1l-0.254,0.13l-0.236,0.217l-0.22,0.159l-0.143,0.363l-0.11,0.335l-0.088,0.29l-0.13,0.306l-0.056,0.247
		l-0.183,0.29l-0.11,0.247l-0.144,0.305l-0.219,0.189l-0.197,0.16l-0.308,0.159l-0.288,0.144l-0.342,0.074l-0.437,0.025
		l-0.305-0.013l-0.343,0.029l-0.381,0.084l-0.307,0.117l-0.218,0.16l-0.288,0.204l-0.288,0.175l-0.308,0.102l-0.451,0.014
		l-0.435-0.03l-0.308,0.015l-0.326,0.043l-0.326,0.044l-0.328,0.028l-0.395-0.029l-0.288,0.029l-0.34,0.027l-0.308,0.102
		l-0.341,0.029l-0.416-0.029l-0.396-0.014h-0.381l-0.415-0.015l-0.438,0.013l-0.437-0.044l-0.414-0.015l-0.471-0.088l-0.381,0.015
		l-0.379-0.028l-0.381,0.027l-0.288,0.102l-0.34,0.015l-0.438-0.016l-0.435-0.015l-0.451-0.044l-0.524-0.174l-0.326-0.131
		l-0.489-0.086l-0.435-0.059l-0.559-0.16l-0.524-0.233l-0.435-0.161l-0.558-0.189l-0.579-0.144l-0.505-0.19l-0.524-0.102
		l-0.448-0.015l-0.47,0.072l-0.416,0.116l-0.471,0.074l-0.341-0.03l-0.416-0.072l-0.361-0.074l-0.47-0.043l-0.381-0.075h-0.415
		h-0.397l-0.437-0.072l-0.416-0.074l-0.38-0.117l-0.34-0.262l-0.361-0.159l-0.36-0.087l-0.36-0.03l-0.342-0.044l-0.38-0.087
		l-0.362-0.043l-0.325-0.031l-0.381-0.115l-0.208-0.123l-0.184-0.089l-0.233,0.036l-0.236,0.077l-0.239,0.037l-0.184-0.14
		l-0.084-0.235l-0.107-0.166l-0.199-0.054l-0.137-0.066l-0.076-0.188l-0.125-0.159l-0.293-0.015l-0.251-0.051l-0.14-0.123
		l-0.085-0.174l-0.05-0.123l-0.219,0.007l-0.206,0.007l-0.179-0.06l-0.218-0.112l-0.141-0.048l-0.181-0.126l-0.2-0.093l-0.214-0.022
		l-0.114-0.096l0.026-0.158l0.082-0.145l0.002-0.169l-0.034-0.15l-0.039-0.112l-0.019-0.209l-0.049-0.144l-0.073-0.153l-0.173-0.139
		l-0.251-0.152l-0.168-0.137l-0.183-0.109l-0.133,0.049l-0.078,0.028l-0.147,0.076l-0.217,0.086l-0.219,0.058l-0.186,0.026
		l-0.201-0.052l-0.184-0.06l-0.166-0.049l-0.153-0.049l-0.086-0.144l0.018-0.125l0.032-0.097l0.048-0.106l0.08-0.05l-0.062-0.108
		l-0.088-0.135l-0.053-0.094l-0.078-0.106l-0.104-0.133l-0.13-0.148l-0.094-0.173l-0.131-0.123l-0.107-0.16l-0.199-0.161
		l-0.272-0.109l-0.265-0.109l-0.337-0.104l-0.254-0.073l-0.251-0.115l-0.325-0.118l-0.288-0.13l-0.182-0.03l-0.183-0.044
		l-0.237,0.015h-0.327l-0.236,0.058l-0.252,0.073l-0.165,0.159l-0.109,0.204l-0.108,0.174l-0.129,0.379l-0.055,0.204l-0.164,0.145
		l-0.198,0.117l-0.307,0.115l-0.147,0.039l-0.18,0.048l-0.233,0.063l-0.26,0.044L40.6,28.335l-0.185,0.051l-0.236,0.126
		l-0.131,0.109l-0.215,0.22l-0.18,0.148l-0.149,0.179l-0.151,0.155l-0.2,0.156l-0.131,0.201l-0.091,0.212l-0.13,0.178l-0.217,0.144
		l-0.338,0.051h-0.35l-0.298-0.011h-0.231l-0.249-0.019l-0.198-0.023l-0.256-0.087l-0.241-0.115l-0.192-0.109l-0.123-0.076
		l-0.2-0.074l-0.28-0.11L35.39,29.59l-0.247-0.104l-0.249-0.068l-0.182-0.047l-0.189-0.046l-0.184-0.011l-0.267,0.033l-0.223,0.08
		l-0.183,0.033l-0.18-0.051l-0.173-0.097l-0.125-0.103l-0.09-0.145l-0.116-0.149l-0.097-0.122l-0.101-0.132L32.6,28.503
		l-0.133-0.022l-0.192,0.033l-0.192,0.063l-0.214,0.057l-0.173-0.034l-0.167-0.092l-0.236-0.092l-0.222-0.126l-0.273-0.132
		l-0.197-0.093l-0.184-0.109l-0.173-0.116l-0.013-0.019l-0.137-0.13l-0.163-0.237L29.8,27.298l-0.125-0.229l-0.107-0.184
		l-0.105-0.172l-0.101-0.203l-0.078-0.217l-0.099-0.213L29.07,25.89l-0.125-0.178l-0.097-0.15l-0.13-0.138l-0.149-0.167
		l-0.149-0.161l-0.207-0.195l-0.164-0.15l-0.115-0.098l-0.066-0.081l-0.125-0.075l-0.107-0.132l-0.084-0.086l-0.155-0.132
		l-0.076-0.087l-0.088-0.142l-0.1-0.128l-0.125-0.115l-0.13-0.087L26.72,23.54l-0.165-0.046l-0.185-0.044l-0.372-0.081l-0.3-0.104
		l0.114,0.185l0.077,0.263l-0.036,0.204l-0.131,0.154l-0.229,0.125l-0.339,0.061l-0.225,0.095l-0.186,0.141l-0.275,0.138
		l-0.263,0.093l-0.185,0.047l-0.206,0.015h-0.183l-0.263-0.031l-0.33-0.067l-0.033,0.002H22.95l-0.042,0.026l-0.029,0.02
		l-0.053,0.04l-0.058,0.007l-0.032,0.02l-0.052,0.033l-0.036,0.037l-0.078,0.05l-0.067,0.056l-0.032,0.051l-0.027,0.055
		l-0.065,0.056l-0.037,0.033l-0.075,0.05l-0.11,0.017l-0.138,0.003h-0.155h-0.111l-0.105-0.011l-0.096-0.013h-0.096l-0.115-0.01
		l-0.089-0.006l-0.111-0.016l-0.08-0.028l-0.1-0.018l-0.09-0.005l-0.078,0.009l-0.098,0.011l-0.056,0.021l-0.081-0.012l-0.074,0.012
		L20.43,25.21l-0.043,0.016l-0.076,0.016l-0.084-0.008l-0.063,0.012l-0.057,0.011l-0.065,0.005l-0.057,0.027l-0.051,0.027
		l-0.042,0.028l-0.051,0.011l-0.036,0.018l-0.038,0.033l-0.081,0.032l-0.026,0.014l-0.075,0.026H19.51l-0.058-0.009l-0.093-0.022
		l-0.057-0.048l-0.1-0.01l-0.085,0.002l-0.097-0.006l-0.097,0.013l-0.045,0.036L18.8,25.448l-0.073,0.02h-0.096l-0.097,0.006
		l-0.073-0.02l-0.078,0.008l-0.093-0.022h-0.093l-0.068-0.023l-0.11-0.016l-0.069-0.045l-0.072-0.033l-0.06-0.044l-0.068-0.05
		l-0.073-0.066l-0.047-0.048l-0.091-0.041l-0.033-0.035l-0.038-0.028l-0.052-0.055l-0.063-0.035l-0.076-0.042l-0.042-0.032
		l-0.064-0.027l-0.034-0.031l-0.033-0.011h-0.067h-0.095l-0.076-0.011l-0.068-0.026L16.752,24.7l-0.033-0.044l-0.035-0.045
		l-0.026-0.045l-0.039-0.044l-0.022-0.043l-0.011-0.048l-0.026-0.051l-0.034-0.075l-0.077-0.061l-0.087-0.023l-0.089-0.027
		l-0.055-0.018l-0.125-0.027l-0.106-0.004l-0.101-0.016l-0.061-0.04l-0.06-0.053l-0.061-0.068l-0.032-0.055l-0.017-0.062
		l-0.011-0.038l-0.033-0.045l-0.029-0.039l-0.018-0.064l-0.029-0.067l-0.026-0.128l-0.019-0.092l-0.033-0.082l-0.025-0.044
		l-0.067-0.059l-0.078-0.04l-0.033-0.045l-0.045-0.045l-0.078-0.01h-0.082l-0.065-0.002l-0.064-0.02l-0.078-0.023l-0.106-0.011
		l-0.085-0.018l-0.062-0.045l-0.078-0.025l-0.081-0.032l-0.088-0.033l-0.058-0.027l-0.054-0.032l-0.049-0.032h-0.083l-0.054-0.036
		l-0.035-0.034L13.95,22.65l-0.064-0.008l-0.05-0.04l-0.064-0.006l-0.056-0.022l-0.05-0.017l-0.054-0.033l-0.055-0.005l-0.036-0.023
		l-0.027-0.044l-0.026-0.053l-0.008-0.034l-0.032-0.062l-0.074-0.02l-0.025-0.033l-0.047-0.045l-0.054-0.023l-0.053-0.008
		l-0.054-0.014L13.04,22.15h-0.063l-0.083-0.002l-0.042-0.026l-0.07-0.013l-0.047-0.016l-0.041-0.039l-0.063-0.007l-0.097-0.011
		l-0.122,0.011l-0.079,0.002l-0.058,0.014l-0.07,0.014l-0.081,0.002l-0.023,0.017l-0.035,0.022l-0.038,0.023l-0.054,0.027
		l-0.031,0.028l-0.026,0.066l-0.061,0.011l-0.052,0.016l-0.026,0.028l-0.026,0.042l-0.062,0.014h-0.061l-0.072,0.008l-0.04,0.039
		l-0.13-0.007h-0.118l-0.121,0.011l-0.04,0.02l-0.044,0.014H10.95l-0.122-0.007l-0.123-0.023l-0.078-0.062l-0.058-0.031
		l-0.094-0.014l-0.077-0.025l-0.075-0.036l-0.078-0.028l-0.094-0.013l-0.069,0.011l-0.114,0.002l-0.054-0.013L9.85,22.192
		l-0.047-0.028l-0.05-0.034l-0.101-0.035l-0.075-0.032l-0.098-0.027l-0.078-0.042l-0.071-0.023l-0.072-0.016l-0.117-0.059
		L9.08,21.857l-0.114-0.033l-0.07-0.042l-0.047,0.005l-0.026,0.063l-0.028,0.062L8.76,21.976L8.758,22.07l-0.037,0.062v0.055
		l-0.025,0.062L8.66,22.26l-0.064-0.021l-0.093-0.011l-0.085-0.036H8.345l-0.058-0.006l-0.006-0.03l-0.044-0.045l-0.026-0.045
		L8.193,22.02l-0.057-0.053l-0.031-0.044l-0.013-0.049l-0.034-0.028l-0.036-0.037v-0.04l-0.04-0.033l-0.026-0.039l-0.073,0.009
		l-0.049-0.002l-0.043,0.002l-0.083-0.005l-0.074,0.005l-0.073-0.009l-0.064,0.005H7.441h-0.05H7.342l-0.054,0.021l-0.078,0.002
		l-0.06,0.005l-0.024,0.018l-0.061,0.023L7.009,21.78l-0.078,0.014l-0.062,0.011l-0.01,0.023l-0.025,0.033L6.81,21.898l-0.014,0.041
		l-0.038,0.048l-0.02,0.053l-0.025,0.038l-0.032,0.028H6.624l-0.058-0.008l-0.064-0.011l-0.026-0.021l-0.041-0.022l-0.054-0.023
		l-0.037,0.002L6.31,22.029l-0.046-0.011l-0.025-0.016L6.21,21.985l-0.04-0.017l-0.026-0.005H6.11l-0.038-0.005l-0.026-0.013
		l-0.061-0.037l-0.035-0.009l-0.037-0.011l-0.036-0.019l-0.057-0.008l-0.054-0.014l-0.026-0.025l-0.024-0.031l-0.051-0.053
		l-0.047-0.043l-0.035-0.037L5.506,21.64l-0.072,0.01l-0.037,0.023L5.32,21.687l-0.078-0.014l-0.097-0.015h-0.05H5.042l-0.094-0.02
		l-0.06-0.024l-0.097-0.05l-0.074-0.028l-0.058-0.04l-0.176-0.015L4.375,21.46l-0.121-0.023L4.13,21.43l-0.162,0.009l-0.101-0.014
		l-0.221,0.011l-0.103-0.017l-0.112-0.012l-0.158,0.008l-0.162-0.017H2.929H2.792l-0.1-0.006l-0.085-0.01l-0.094-0.006l-0.074,0.008
		l-0.054,0.016l-0.184,0.06l-0.04-0.005l-0.053-0.028l-0.068-0.022l-0.085-0.012l-0.049,0.003h-0.05l-0.049,0.012L1.744,21.43
		l-0.058,0.011l-0.066,0.026l-0.078,0.022l-0.06,0.014l-0.044-0.016L1.375,21.47L1.297,21.46l-0.049,0.007L1.21,21.473l-0.068,0.016
		l-0.036,0.023L1.059,21.53l-0.04,0.02L0.98,21.547l-0.107-0.019l-0.038-0.002l-0.027,0.04l-0.022,0.033l-0.024,0.035l-0.026,0.045
		L0.71,21.71l-0.027,0.028l-0.036,0.027l-0.026,0.021l-0.016,0.037l0.012,0.022l0.021,0.022l0.026,0.028l0.026,0.027l0.025,0.048
		l0.026,0.039l0.009,0.062l0.023,0.048l0.03,0.057l0.017,0.053l0.036,0.05l0.026,0.052l0.066,0.078l0.03,0.073l0.047,0.055
		l0.033,0.05l0.024,0.059l-0.003,0.035l-0.014,0.024l-0.021,0.052l0.004,0.044l0.027,0.027l0.025,0.051l0.013,0.042l0.026,0.067
		l0.026,0.075l0.006,0.056v0.076l0.006,0.053l0.018,0.061v0.057l0.022,0.053l0.021,0.056l0.026,0.058l0.026,0.053l0.024,0.074
		l-0.014,0.067v0.09l0.016,0.074l-0.02,0.055l-0.044,0.048l-0.041,0.022l-0.037,0.028l-0.033,0.045l-0.033,0.041L1.086,24.17
		L1.06,24.2l-0.056,0.053l-0.031,0.034l-0.016,0.055l-0.005,0.072v0.098l-0.017,0.081v0.104l-0.001,0.13l-0.021,0.146l-0.02,0.081
		v0.059v0.055l0.009,0.045l0.026,0.081l0.034,0.118v0.084v0.061l-0.026,0.027l-0.05,0.06L0.856,25.7l-0.054,0.074v0.043l0.021,0.064
		v0.061v0.079l-0.008,0.092L0.793,26.24l-0.038,0.04l-0.054,0.047l-0.06,0.048l-0.123,0.04L0.43,26.431l-0.098,0.002l-0.057-0.012
		l-0.131-0.022l-0.07-0.011l-0.078-0.027l-0.072-0.03l-0.061-0.023l-0.044-0.022l-0.089-0.039l-0.06-0.014l-0.054-0.025
		l-0.079-0.027l-0.075-0.028l-0.074-0.019l-0.087-0.028l-0.061-0.033l-0.078-0.028l-0.057-0.022l-0.05-0.009l-0.029,0.005
		l-0.03,0.04l-0.018,0.034l-0.016,0.059l-0.01,0.061v0.079l-0.006,0.082l-0.021,0.025l-0.058,0.02l-0.05,0.033l-0.057,0.037
		l-0.034,0.063l-0.027,0.068l-0.022,0.053l-0.033,0.044l-0.049,0.046l-0.07,0.042l-0.057,0.022l-0.078,0.066l-0.025,0.053v0.066
		v0.062l0.025,0.075l0.026,0.071v0.044v0.039v0.087l0.025,0.062l0.014,0.075l0.023,0.05l-0.003,0.035l-0.014,0.023L-1.56,27.69
		l-0.019,0.062l0.004,0.089l-0.001,0.081v0.085v0.066l-0.027,0.081l-0.01,0.056l-0.012,0.082l0.012,0.053l0.053,0.095l0.013,0.073
		l0.017,0.068v0.062l0.011,0.07l0.018,0.066l0.052,0.076l0.046,0.045l0.054,0.041l0.059,0.043l0.078,0.043l0.058,0.044l0.026,0.048
		l0.025,0.065v0.07l-0.072,0.015l-0.078,0.008H-1.34l-0.081,0.008l-0.143,0.005l-0.078,0.002L-1.7,29.31l-0.083,0.022l-0.035,0.033
		l-0.05,0.04h-0.057l-0.05-0.014l-0.024-0.016l-0.049-0.039l-0.05-0.062l-0.062-0.043l-0.078-0.037l-0.087-0.002h-0.089
		l-0.131,0.019l-0.115,0.011h-0.093l-0.096,0.002l-0.072,0.016l-0.076-0.011l-0.035-0.033l-0.052-0.051l-0.062-0.027l-0.083-0.062
		l-0.095-0.03h-0.06l-0.062,0.016l-0.064,0.064l-0.059,0.034l-0.075,0.05L-3.7,29.23l-0.047,0.046l-0.075,0.039l-0.046,0.052
		l-0.055,0.094l-0.07,0.058l-0.055,0.041l-0.043,0.005l-0.042-0.032l-0.053-0.035l-0.105-0.05l-0.077-0.046l-0.076-0.038
		l-0.081-0.033l-0.056-0.04l-0.078-0.039l-0.061-0.038l-0.064-0.034l-0.073-0.024l-0.067-0.048l-0.054-0.023l-0.064-0.042
		l-0.078-0.044l-0.078-0.042l-0.078-0.024l-0.018,0.04l-0.023,0.052l-0.01,0.042l-0.027,0.053v0.062l-0.026,0.084l-0.025,0.063
		l-0.025,0.068l-0.018,0.061l-0.024,0.051l-0.026,0.111l-0.002,0.104l-0.024,0.035l-0.034,0.016h-0.037h-0.076l-0.078,0.021
		L-5.817,29.8l-0.09,0.024l-0.057,0.04l-0.026,0.045l-0.02,0.048l0.02,0.046l0.009,0.047l0.014,0.065l-0.011,0.059l0.011,0.079
		v0.072V30.4l-0.007,0.089l-0.01,0.061l-0.012,0.055l-0.036,0.043l-0.047,0.055l-0.07,0.037l-0.055,0.059l-0.082,0.031l-0.072,0.009
		l-0.078,0.02l-0.082,0.028l-0.084,0.009h-0.082l-0.127-0.009l-0.131-0.005l-0.101,0.017l-0.057,0.027l-0.047,0.042l-0.061,0.057
		l-0.054,0.053l-0.049,0.044l-0.058,0.051l-0.069,0.035l-0.051,0.016l-0.056,0.011l-0.075,0.005l-0.078,0.01l-0.073-0.006
		l-0.026-0.022l-0.026-0.028l-0.051-0.039l-0.053-0.039l-0.064-0.013l-0.067,0.022l-0.038,0.043l-0.065,0.04l-0.054,0.029
		l-0.05,0.023l-0.078,0.041l-0.078,0.033l-0.087,0.037l-0.071,0.031l-0.05,0.067l-0.01,0.045l-0.006,0.059l-0.042,0.038
		l-0.008,0.033l-0.012,0.028l-0.025,0.032l-0.028,0.034l-0.03,0.035l-0.031,0.033l-0.068,0.035l-0.036,0.024l-0.076,0.031
		l-0.086,0.022l-0.054,0.015l-0.029,0.027l-0.018,0.059v0.056v0.106v0.087l-0.008,0.064l-0.035,0.028l-0.058,0.014l-0.065,0.017
		l-0.064,0.012l-0.082-0.012l-0.059-0.027l-0.077-0.039l-0.047-0.03l-0.09-0.037l-0.047-0.04l-0.076-0.034l-0.092-0.016
		l-0.064-0.022l-0.104-0.033l-0.057-0.037l-0.084-0.03l-0.064-0.047l-0.075-0.037l-0.058-0.033l-0.049-0.045l-0.05-0.04l-0.05-0.037
		l-0.03-0.035l-0.053-0.033l-0.026-0.065l-0.011-0.036l-0.011-0.043l-0.039-0.04l-0.046-0.044l-0.05-0.028l-0.058-0.008
		l-0.026,0.018l-0.051,0.032l-0.033,0.025l-0.026,0.042l-0.083,0.049l-0.05,0.045l-0.064,0.044l-0.062,0.056l-0.078,0.027
		l-0.052-0.011l-0.078-0.01l-0.033,0.037l-0.027,0.048l-0.026,0.046l-0.058,0.069l-0.032,0.05l-0.065,0.033l-0.058,0.012
		l-0.047,0.01l-0.06-0.005l-0.055,0.002l-0.074,0.007h-0.07l-0.037,0.022l-0.031,0.027l-0.028-0.005l-0.02-0.028l-0.029-0.04
		l-0.026-0.044l-0.026-0.036l-0.026-0.056l-0.033-0.051l-0.056-0.076l-0.037-0.041l-0.026-0.034l-0.044-0.046l-0.054-0.044
		l-0.046-0.038l-0.054-0.048l-0.078-0.031l-0.078-0.002l-0.051,0.007l-0.012,0.043l-0.014,0.062l-0.01,0.077l-0.017,0.091
		l-0.035,0.062l-0.033,0.047l-0.05,0.058l-0.026,0.022l-0.042,0.042l-0.035,0.035l-0.031,0.048l-0.043,0.05l-0.022,0.059
		l-0.01,0.045l-0.008,0.055l-0.013,0.04l-0.026,0.087l-0.047,0.062l-0.032,0.07l-0.041,0.045l-0.039,0.062l-0.044,0.081
		l-0.046,0.068l-0.045,0.051l-0.078,0.059l-0.044,0.023l-0.106,0.041l-0.072,0.026l-0.066,0.008h-0.051l-0.076-0.027l-0.04-0.024
		l-0.042-0.017l-0.036-0.031l-0.08-0.027L-14.45,32.9l-0.035-0.031l-0.06,0.005l-0.051,0.038l-0.061,0.028l-0.064,0.037
		l-0.036,0.026l-0.075,0.033l-0.026,0.022h-0.026l-0.023-0.014l-0.076-0.042l-0.078-0.022l-0.054,0.014l-0.067,0.02l-0.081,0.018
		l-0.078,0.016l-0.108,0.026l-0.061,0.05l-0.049,0.028l-0.105,0.035l-0.1,0.027l-0.086,0.035l-0.083,0.005l-0.057,0.011l-0.026,0.04
		l-0.055,0.043l-0.048,0.032l-0.052,0.052l-0.057,0.043l-0.066,0.025l-0.066,0.041l-0.078,0.059l-0.05,0.034l-0.026,0.035
		l-0.016,0.05l-0.026,0.073l-0.02,0.045l-0.017,0.053l-0.016,0.065l-0.036,0.023l-0.046,0.033l-0.01,0.047l-0.033,0.028
		l-0.068,0.011l-0.026,0.022l-0.074,0.039l-0.073,0.034l-0.078,0.021l-0.083,0.019l-0.058,0.005h-0.06l-0.048,0.004l-0.049,0.018
		l-0.1,0.048l-0.043,0.033l-0.068,0.051l-0.072,0.047l-0.049,0.045l-0.058,0.056l-0.034,0.034l-0.029,0.051l-0.033,0.021
		l-0.032-0.011l-0.022-0.016l-0.031-0.045l-0.06-0.037l-0.026-0.029l-0.065-0.053l-0.081-0.021l-0.1-0.008l-0.092-0.003l-0.043-0.02
		l-0.05-0.018l-0.026,0.012l-0.026,0.028l-0.053,0.045l-0.043,0.05l-0.071,0.034l-0.025,0.036l-0.173,0.083l-0.088,0.033
		l-0.062,0.05l-0.078,0.038l-0.087,0.04l-0.078,0.027l-0.091,0.027l-0.078,0.021l-0.083,0.021l-0.052,0.021l-0.056,0.026
		l-0.087,0.026l-0.098,0.04l-0.054,0.045l-0.05,0.039l-0.027,0.05l-0.023,0.072l-0.019,0.087l-0.029,0.055l-0.034,0.048
		l-0.043,0.022l-0.037,0.022l-0.038,0.028l-0.05,0.034l-0.059,0.032l-0.037,0.033l-0.047,0.049l-0.037,0.027l-0.051,0.019
		l-0.038,0.016l-0.055,0.011l-0.038,0.023l-0.038,0.011h-0.071l-0.069,0.006l-0.085,0.011l-0.029,0.024l-0.034,0.008l-0.078,0.014
		l-0.081,0.022l-0.026,0.026l-0.053,0.016l-0.039,0.015l-0.039,0.031l-0.038,0.025l-0.032,0.024l-0.032,0.031l-0.026,0.038
		l-0.058,0.039l-0.039,0.045l-0.074,0.022l-0.057,0.023l-0.031,0.037l-0.026,0.042l-0.024,0.056l-0.025,0.039l-0.026,0.033v0.059
		l0.026,0.087l0.028,0.075l0.023,0.045l0.026,0.04l0.026,0.045l0.021,0.035l-0.003,0.045l-0.01,0.042l-0.017,0.039l-0.026,0.038
		l-0.03,0.04l-0.026,0.05l-0.026,0.028l-0.028,0.029l-0.026,0.048l-0.019,0.043l-0.021,0.027l-0.078,0.034l-0.051,0.011
		l-0.067,0.017l-0.035,0.011l-0.026,0.027l-0.01,0.053v0.051l-0.012,0.058l-0.004,0.065l-0.01,0.045l0.003,0.016l-0.018,0.051
		l-0.004,0.076l0.021,0.04l0.05-0.002l0.029,0.004l0.012,0.024l0.026,0.038l0.027,0.039l0.022,0.046l0.026,0.05l0.037,0.047
		l0.027,0.036l-0.01,0.028l-0.02,0.045l-0.023,0.044l-0.022,0.04l0.019,0.028l0.042,0.014l0.054-0.011l0.035,0.031l-0.003,0.044
		l-0.015,0.063l-0.012,0.072l-0.001,0.07v0.059v0.163l-0.004,0.067l-0.003,0.048l-0.025,0.016l-0.066-0.005l-0.098-0.005
		l-0.117-0.002l-0.097-0.008l-0.073,0.008l-0.035,0.024l-0.044,0.051l-0.033,0.026l-0.064,0.052l-0.043,0.033l-0.044,0.035
		l-0.049,0.035l-0.029,0.033l-0.041,0.037l-0.069,0.045l-0.052,0.035l-0.054,0.047l-0.061,0.04l-0.029,0.042l-0.07,0.043
		l-0.043,0.032l-0.055,0.051l-0.031,0.018l-0.047,0.022l-0.026,0.023l-0.067,0.042l-0.061,0.032l-0.076,0.048l-0.078,0.048
		l-0.057,0.037l-0.058,0.038l-0.083,0.042l-0.077,0.052l-0.03,0.023L-23.8,39.96l-0.03,0.027l-0.028,0.023l-0.026,0.008
		l-0.046-0.045l-0.027-0.03l-0.024-0.037v-0.028l-0.026-0.022l-0.045-0.016l-0.037-0.012l-0.037-0.022l-0.054-0.013l-0.027,0.011
		l-0.026,0.022l-0.026,0.028l-0.035,0.031l-0.014,0.035l0.006,0.037l0.021,0.033l0.032,0.048l0.018,0.04l0.029,0.044l0.018,0.041
		l-0.008,0.029l-0.014,0.023l-0.045,0.021l-0.056,0.023l-0.072,0.004l-0.092-0.006l-0.099-0.005l-0.083-0.004h-0.088l-0.113,0.004
		l-0.061-0.008h-0.105h-0.078l-0.118-0.004h-0.108l-0.078,0.004l-0.086-0.007h-0.096l-0.097,0.005h-0.11l-0.073,0.002l-0.079-0.004
		l-0.045-0.006l-0.072-0.032l-0.054-0.021h-0.039l-0.024,0.034l-0.02,0.036l-0.01,0.047v0.05l-0.015,0.046l-0.017,0.069l-0.026,0.05
		l-0.017,0.041l-0.025,0.03l-0.028,0.051l-0.074,0.063l-0.051,0.028l-0.031,0.025l-0.058,0.047l-0.065,0.042l-0.077,0.068
		l-0.034,0.039l-0.026,0.056l-0.073,0.045l-0.142,0.114l-0.05,0.037l-0.093,0.022l-0.064,0.023l-0.054,0.016l-0.032,0.037
		l-0.06,0.073l-0.044,0.034l-0.039,0.03l-0.054,0.026l-0.05,0.027l-0.026,0.03l-0.046,0.043l-0.033,0.039l-0.03,0.033l-0.039,0.04
		l-0.044,0.033l-0.068,0.062l-0.036,0.066l-0.026,0.054l-0.026,0.053l-0.026,0.07l-0.037,0.061l-0.024,0.059l-0.026,0.042
		l-0.011,0.043l-0.027,0.037l-0.026,0.046l-0.031,0.038l-0.029,0.039l-0.05,0.026h-0.061h-0.081l-0.115,0.009l-0.067,0.014
		l-0.055,0.018l-0.036,0.023l-0.027,0.033l-0.026,0.026l-0.036,0.024l-0.048,0.034l-0.026,0.026l0.005,0.02l0.005,0.022l0.037,0.039
		l0.019,0.05l0.031,0.052l-0.008,0.028l-0.017,0.027l-0.042,0.034l-0.033,0.039l-0.063,0.039l-0.031,0.034l-0.032,0.045l-0.025,0.04
		l-0.026,0.044l-0.021,0.047l-0.026,0.06l-0.006,0.066l-0.022,0.036l-0.008,0.061l0.006,0.033l0.033,0.027l0.029,0.057l0.043,0.044
		l0.021,0.07l-0.002,0.073v0.067v0.067l-0.019,0.086l-0.017,0.074l-0.018,0.07l-0.026,0.068l-0.021,0.053l-0.014,0.03l-0.022,0.055
		l-0.024,0.045l-0.003,0.054v0.048v0.05l0.013,0.037l0.026,0.022l0.033-0.006l0.068-0.011l0.076-0.002l0.108-0.017h0.078
		l0.036,0.028l0.04,0.042l0.061,0.067l0.089,0.072l0.018,0.014l0.011,0.006l0.042,0.033l0.086,0.062l0.072,0.062l0.107,0.067
		l0.078,0.05l0.072,0.053l0.078,0.053l0.058,0.016l0.061-0.003l0.078-0.007l0.058-0.014l0.078-0.011l0.093-0.023l0.078-0.016
		l0.101-0.018l0.054-0.028l0.127-0.019l0.073-0.01l0.078-0.022l0.042-0.02l0.078-0.021l0.069-0.023l0.085-0.005l0.063-0.023
		l0.053-0.017l0.048-0.028l0.041-0.022v-0.052l-0.024-0.046l-0.025-0.039l0.002-0.044l0.022-0.052l0.05-0.023l0.026-0.039
		l0.026-0.044l0.047-0.011l0.054-0.002l0.054,0.017l0.07,0.014h0.043l0.041-0.011l0.063-0.019l0.061,0.009l0.033,0.023l0.043,0.043
		h0.078l0.049-0.023l0.034-0.033l0.026-0.023l0.026-0.033l0.041,0.002l0.02,0.024v0.031l-0.007,0.035l-0.026,0.053l-0.067,0.047
		l-0.03,0.027l-0.008,0.039l-0.013,0.047l-0.026,0.05l-0.031,0.028l-0.034,0.027l-0.026,0.017l-0.037,0.027l-0.018,0.03l0.016,0.045
		h0.044l0.065,0.006l0.02,0.029l0.025,0.039l0.054,0.053l0.063,0.059l0.067,0.059l0.047,0.012l0.078,0.016l0.101,0.005l0.108,0.008
		l0.101-0.002l0.107,0.011l0.073-0.006l0.078,0.003h0.091l0.075,0.002h0.061l0.08,0.005l0.082,0.004l0.088,0.014l0.09,0.005
		l0.074,0.011l0.063,0.023l0.078,0.027l0.07,0.028l0.087,0.02l0.063,0.033l0.054,0.044l0.046,0.066l0.026,0.044l0.02,0.061
		l0.071,0.045l0.036,0.033l0.089-0.005l0.047-0.02l0.073-0.028l0.056-0.027l0.046-0.05l0.022-0.059l0.025-0.055l0.028-0.058
		l0.046-0.066l0.044-0.041l0.074-0.073l0.029-0.034l0.027-0.05l0.017-0.044l0.011-0.045l0.06-0.031h0.072l0.097,0.005l0.052,0.018
		l0.06,0.021l0.083,0.022l0.078,0.01l0.072,0.014h0.101l0.09,0.002h0.106h0.076l0.086-0.011l0.063-0.006l0.065-0.006l0.039-0.024
		l0.026-0.037l0.026-0.039l0.026-0.033l0.026-0.035l0.026-0.039l0.06-0.033l0.062-0.021l0.045-0.016l0.069-0.022l0.062-0.017
		l0.089-0.033l0.066-0.035l0.078-0.034l0.072-0.032l0.079-0.037l0.078-0.011l0.058,0.009l0.061-0.016l0.07,0.003h0.116l0.082,0.002
		l0.1-0.009l0.109,0.009l0.078-0.009l0.054-0.007l0.046,0.004l0.101,0.012l0.076,0.037l0.05,0.047l0.047,0.05l0.053,0.035
		l0.07,0.028l0.078,0.029l0.062,0.021l0.078,0.024l0.096,0.018h0.078l0.078,0.012l0.072,0.016l0.076,0.016l0.039,0.023l0.002,0.045
		l-0.024,0.044l-0.037,0.048l-0.015,0.051l-0.031,0.055l-0.034,0.045l-0.027,0.042l-0.035,0.045l-0.026,0.056l-0.039,0.042
		l-0.026,0.038l-0.028,0.037l-0.028,0.034l-0.028,0.045l-0.03,0.033l-0.048,0.055l-0.03,0.043l-0.035,0.045l-0.015,0.064
		l-0.035,0.075l-0.039,0.032l-0.026,0.015l-0.03,0.029l-0.037,0.024l-0.029,0.024l-0.062,0.032l-0.066,0.044l-0.029,0.033
		l-0.044,0.021l-0.034,0.034l-0.02,0.028l-0.027,0.036l-0.02,0.046l-0.026,0.064l-0.006,0.053l0.004,0.047l0.014,0.048l0.026,0.03
		l0.05,0.009h0.058l0.078,0.003l0.078,0.011l0.056,0.012l0.084,0.006l0.057,0.002l0.064,0.008l0.058-0.01l0.023-0.019l0.011-0.022
		l0.003-0.028l0.006-0.033l0.027-0.019l0.011-0.032v-0.023l-0.015-0.029l-0.004-0.031l-0.011-0.045v-0.024l0.011-0.031l0.034-0.017
		l0.03-0.009l0.037-0.002h0.035h0.082l0.062-0.008h0.061l0.057-0.002l0.078,0.002l0.069,0.013l0.033,0.022l0.026,0.035l0.036,0.051
		l0.011,0.073v0.05l-0.007,0.055l-0.011,0.053l-0.012,0.082l0.008,0.059v0.093l0.006,0.053l-0.027,0.027l-0.032,0.028l-0.068,0.027
		l-0.071,0.044l-0.065,0.023l-0.06,0.022L-19.159,47l-0.031,0.004l-0.012,0.017l-0.007,0.03l0.004,0.064l-0.017,0.064l0.012,0.092
		l-0.004,0.054v0.078l-0.011,0.059l-0.01,0.046l-0.003,0.058v0.046l0.013,0.039l0.035,0.02h0.047h0.042l0.054-0.002h0.044h0.053
		l0.058,0.018l0.057,0.044l0.033,0.053l0.026,0.063l0.026,0.061l0.012,0.059l0.038,0.032l0.059,0.039l0.064,0.021l0.071,0.011h0.055
		h0.045l0.054-0.011l0.044-0.015l0.045-0.015l0.062-0.002l0.057,0.028l0.07,0.019l0.063,0.014h0.044l0.061-0.011l0.054,0.002h0.045
		l0.078,0.009l0.059,0.004l0.074,0.012l0.07,0.025l0.045,0.009l0.053-0.011l0.063-0.016l0.089-0.007l0.075,0.01l0.047,0.011
		l0.077,0.002l0.069,0.005l0.069,0.03l0.073,0.017l0.076,0.016l0.058,0.023l0.065,0.016l0.048,0.016l0.052,0.012l0.093,0.016
		l0.064,0.011h0.067l0.057,0.005l0.027,0.018v0.034v0.045l-0.025,0.084v0.066l-0.012,0.067l-0.006,0.066l-0.004,0.079l-0.007,0.043
		l-0.019,0.057v0.062l0.017,0.045l0.052,0.048l0.026,0.042l0.039,0.051l0.048,0.035l0.039,0.048l0.033,0.039l0.026,0.045
		l0.048,0.067l0.035,0.051v0.034v0.039v0.06l0.008,0.053v0.05l-0.01,0.044l-0.022,0.023l-0.026,0.027l-0.002,0.037l-0.007,0.022
		l-0.026,0.026l-0.01,0.061l0.01,0.102l-0.01,0.062v0.039l0.014,0.05l0.022,0.048v0.024l0.025,0.04l0.002,0.028l0.01,0.032
		l0.006,0.045v0.048l-0.006,0.07l0.006,0.055v0.085l-0.013,0.039l-0.026,0.027l-0.022,0.028v0.032l0.004,0.046l-0.013,0.039v0.062
		l0.006,0.081l0.025,0.048L-16,51.036l0.026,0.072l0.002,0.062l0.026,0.073v0.044l-0.004,0.051v0.05l-0.014,0.028l-0.017,0.027
		l-0.009,0.031v0.044l-0.009,0.033l-0.01,0.049v0.053l0.01,0.067v0.051l-0.007,0.075l0.016,0.072l0.012,0.053l0.013,0.045
		l0.016,0.034v0.042l-0.004,0.045l-0.025,0.03l-0.008,0.037l-0.026,0.039l-0.008,0.045l0.01,0.033l0.01,0.053l0.026,0.047
		l0.013,0.055v0.046l0.006,0.051v0.059l-0.022,0.04v0.063l0.01,0.084v0.055l-0.012,0.02l-0.019,0.025l-0.01,0.027l-0.009,0.023
		l-0.003,0.041l-0.013,0.028l-0.025,0.017l-0.044,0.021l-0.038,0.022l-0.052,0.031l-0.043,0.026l-0.026,0.023l-0.028,0.026
		l-0.035,0.027l-0.046,0.022l-0.054,0.028l-0.084,0.009h-0.069l-0.073-0.009l-0.057,0.003l-0.068-0.003l-0.057-0.033l-0.056-0.002
		l-0.026,0.011l-0.028,0.037l-0.029,0.038l-0.047,0.034l-0.055,0.028l-0.027,0.029l-0.078,0.035l-0.077,0.02h-0.075l-0.027-0.011
		l-0.034-0.022l-0.021-0.037l-0.05-0.013l-0.025,0.007l-0.013,0.024l-0.021,0.039l-0.03,0.035l-0.021,0.027l-0.037,0.053
		l-0.039,0.026l-0.051,0.013l-0.028,0.007h-0.027l-0.029-0.002l-0.033-0.02l-0.026-0.023l-0.026-0.024l-0.027-0.01l-0.046,0.016
		l-0.025,0.033l-0.025,0.029l-0.025,0.038l-0.026,0.059l-0.017,0.054v0.048l-0.002,0.057v0.058v0.048l0.057,0.059l0.073,0.02
		l0.071,0.02l0.078,0.022l0.082,0.018l0.078,0.013l0.026,0.039v0.027l-0.006,0.031l-0.018,0.027l-0.013,0.037l-0.012,0.039
		l-0.014,0.045l-0.023,0.035l-0.027,0.035l-0.032,0.037l-0.026,0.016l-0.064,0.011l-0.079,0.009h-0.068l-0.051-0.012l-0.035-0.011
		l-0.035-0.02l-0.047-0.013l-0.036-0.012l-0.073-0.008l-0.065,0.011l-0.03,0.022l-0.03,0.026v0.043l0.006,0.045l0.016,0.055
		l0.026,0.047l-0.006,0.026l-0.014,0.027l-0.054,0.018l-0.038,0.022l-0.057,0.033l-0.047,0.035l-0.037,0.016l-0.039,0.025
		l-0.051,0.027l-0.045,0.022l-0.022,0.019l-0.004,0.022l0.007,0.03l0.025,0.011l0.043,0.006h0.039l0.025,0.014l0.004,0.026
		l-0.004,0.031l-0.006,0.044l0.002,0.052l0.004,0.053l-0.019,0.038l-0.026,0.016l-0.037,0.002l-0.044-0.006l-0.042-0.012
		l-0.033,0.005l-0.026,0.011l-0.026,0.023l-0.026,0.016l-0.033,0.013l-0.029,0.021l-0.034,0.028l-0.046,0.033l-0.04,0.022
		l-0.057,0.023l-0.064,0.025l-0.065,0.011l-0.111,0.023l-0.058,0.011h-0.047l-0.043,0.01l-0.026,0.025l-0.037,0.018l-0.046,0.018
		l-0.042,0.028l-0.033,0.028l-0.017,0.039l-0.02,0.045l-0.018,0.045l-0.004,0.051v0.059l0.004,0.052l0.02,0.05l0.033,0.059
		l0.027,0.07l0.005,0.054v0.038l-0.005,0.055l-0.008,0.053l-0.002,0.062v0.06l-0.014,0.038l-0.018,0.053l-0.01,0.048l-0.024,0.084
		l-0.012,0.057l-0.017,0.058l-0.024,0.048l-0.019,0.045v0.062l-0.008,0.031l-0.021,0.033l-0.068,0.023l-0.091-0.002l-0.073-0.017
		l-0.05-0.027l-0.055-0.033l-0.026-0.025l-0.059-0.019l-0.096-0.009h-0.078l-0.078,0.009l-0.091-0.016l-0.088-0.022l-0.085,0.002
		l-0.048,0.022l-0.044,0.021l-0.026,0.039l-0.011,0.053v0.055l0.004,0.052l0.004,0.048v0.056l-0.012,0.059l-0.021,0.071
		l-0.017,0.045l-0.005,0.067l-0.027,0.051l0.017,0.022l0.017,0.023l-0.013,0.033l-0.026,0.019l-0.03,0.005l-0.026,0.022
		l-0.026,0.039v0.044l-0.006,0.057l0.034,0.032l0.026,0.039l0.036,0.027h0.057l0.064-0.003l0.026,0.02l0.036,0.022l0.03,0.033
		l0.021,0.05l0.021,0.063l-0.026,0.031l-0.03,0.005l-0.025,0.024l-0.026,0.042l-0.015,0.071l-0.024,0.057l-0.017,0.063l-0.021,0.059
		l-0.035,0.059l-0.03,0.023l-0.055,0.006l-0.036,0.008l-0.05,0.022l-0.037,0.042v0.045v0.057v0.05l-0.019,0.051l-0.025,0.033
		l-0.03,0.022l-0.026,0.024l-0.017,0.028l-0.021,0.05l-0.021,0.04v0.05v0.054l-0.003,0.041l-0.021,0.033l-0.025,0.04l-0.012,0.054
		l0.004,0.055l0.017,0.056l0.013,0.064l0.032,0.058l0.017,0.028l0.026,0.048l0.033,0.061l0.021,0.043l0.027,0.058l0.021,0.053
		l0.012,0.022l0.026,0.033l0.021,0.027l0.03,0.039l0.035,0.033l0.041,0.034l0.039,0.036l0.041,0.037l0.04,0.039l0.039,0.022
		l0.031,0.034l0.036,0.042l0.03,0.036l0.027,0.028l0.051,0.011l0.058,0.011h0.042l0.07,0.01l0.054,0.013l0.064,0.01l0.056,0.016
		l0.058-0.011l0.062,0.005l0.024,0.025l0.029,0.048l0.051,0.05l0.026,0.045l0.026,0.062l0.036,0.069l0.021,0.07l0.018,0.062
		l0.026,0.071l0.021,0.077l0.026,0.042l0.028,0.059l0.027,0.035l0.02,0.055l0.014,0.038l0.047,0.018l-0.016,0.027l-0.026,0.011
		l-0.035,0.02l-0.026,0.027l-0.043,0.031l-0.038,0.02l-0.085-0.003l-0.068,0.041l-0.073,0.02l-0.042,0.027l-0.038,0.027
		l-0.042,0.028l-0.039,0.031l-0.033,0.019l-0.025,0.02l-0.026,0.011l-0.001,0.003l-0.068,0.015l-0.031-0.018l-0.078-0.029
		l-0.042-0.011l-0.062-0.024l-0.032-0.022l-0.048-0.018h-0.029l-0.026,0.012l-0.024,0.012l-0.026,0.023l-0.021,0.022l-0.026,0.044
		h0.076l0.088,0.043l0.065,0.019l0.051,0.015l0.05,0.02l0.038,0.028l0.045,0.029l0,0l0.062,0.026l0.03,0.03l0.039,0.037l0.047,0.029
		l0.038,0.02l0.009,0.003l0.021,0.012l0.052,0.019l0.065,0.02l0.064,0.003h0.052h0.06l0.033-0.018l0.102,0.003l0.106,0.005
		l0.032,0.024l0.072,0.01h0.078l0.056-0.02l0.057-0.016l0.056-0.008l0.04-0.015l0.063-0.005l0.031-0.02l0.033-0.02l0.031-0.039
		l0.026-0.019l0.037-0.029l0.044-0.032l0.05-0.049l0.032-0.029l0.025-0.01l0.057-0.005l0.045,0.003l0.063,0.01l0.039,0.019
		l0.031,0.016l0.104,0.028l0.042,0.021l0.032,0.019l0.033,0.005l0.023,0.003h0.046h0.043l0.131,0.004l0.02,0.039v0.02l0.024,0.015
		l0.039,0.004l0.057,0.01l0.09,0.005l0.061,0.029l0.041,0.009l0.076,0.015l0.033,0.018l0.045,0.026l0.041,0.01h0.02l0.018-0.035
		l0.025-0.027l0.026-0.02l0.026-0.011h0.058l0.044,0.021l0.045,0.015l0.044,0.004h0.026l0.026-0.01l0.031-0.015l0.026-0.024
		l0.026-0.014l0.069-0.015h0.032h0.046l0.025,0.005l0.026,0.013l0.023,0.01l0.033,0.014l0.037,0.011h0.039h0.032h0.038l0.045,0.01
		h0.051h0.03h0.026h0.024h0.026l0.026-0.005l0.026-0.009l0.051-0.02l0.015-0.01l0.093-0.035l0.052-0.072l0.06-0.008l0.047-0.016
		l0.026-0.019l0.039-0.028l0.088-0.034l0.018-0.009l0.031-0.033l0.027-0.02l0.026-0.024l0.011-0.005l0.102-0.081l0.014-0.048
		l0.061-0.062l0.058-0.053l0.051-0.034l0.031-0.043l0.039-0.058l0.031-0.062l0.012-0.039l0.019-0.044l0.02-0.043l0.025-0.047
		l0.006-0.053l0.019-0.038l0.026-0.056l0.048-0.069l0.064-0.043l0.072-0.011h0.074l0.064,0.021l0.058,0.02l0.107,0.018l0.039,0.034
		l0.07,0.062l0.063,0.034l0.121,0.053l0.052,0.039l0.062,0.076l0.044,0.03l0.07,0.037l0.078,0.034l0.088,0.025h0.063h0.083
		l0.121-0.006l0.071-0.077l0.031-0.034l0.043-0.019l0.078-0.005h0.051l0.078-0.021l0.077-0.01l0.108-0.005l0.059-0.005h0.082
		l0.088-0.038l0.045-0.015l0.043-0.019l0.045-0.02l0.081-0.01l0.059-0.024l0.038-0.028l0.05-0.02l0.057-0.021l0.026-0.015
		l0.027-0.004l0.027-0.01l0.039-0.008l0.048-0.016l0.04-0.02l0.081-0.005l0.102-0.005l0.038-0.024l0.026-0.014l0.064-0.029h0.058
		h0.044h0.006l0.038-0.005h0.028h0.011l0.026,0.001l0.012,0.002l0.026,0.007l0.015,0.002l0.009,0.002l0.052,0.004l0.038,0.015
		l0.019,0.034l0.026,0.027h0.025l0.039-0.015l0.013-0.024l0.057-0.02h0.025h0.026l0.011,0.01l0.012,0.005l0.016,0.01l0.082,0.023
		l0.063,0.01h0.001l0.03-0.024v-0.038l-0.017-0.032l-0.002-0.002l-0.001-0.004l-0.011-0.015l-0.005-0.007l-0.015-0.016l-0.018-0.034
		v-0.044l0.056-0.019l0.078,0.034l0.026,0.013l0.027,0.011l0.026,0.001l0.044,0.002l0.043-0.003l0.021-0.001l0.037-0.01l0.12-0.005
		h0.026h0.019l0.026-0.004l0.031-0.004l0.03-0.004l0.007-0.001l0.059-0.01l0.026-0.003l0.033-0.006l0.135-0.01h0.026l0.043,0.01
		l0.018,0.005l0.026,0.008l0.068,0.005h0.052l0.025,0.008l0.026,0.011l0.026,0.015l0.063,0.014h0.077h0.146l0.043-0.019h0.001
		l0.045-0.039l0.05-0.03h0.078l0.026,0.016l0.026,0.014l0.043,0.025l0.064,0.009l0.096,0.053l0,0l0.026,0.007l0.039,0.011
		l0.113,0.025l0.077,0.058l0.051,0.003l0.09-0.025l0.056-0.043l0.078-0.024l0.039-0.004h0.005l0.058-0.005h0.07l0.063,0.015
		l0.062,0.004h0.072l0.045,0.009l0.026,0.004l0.045,0.016l0.026,0.008l0.078,0.019l0.04,0.02l0.029,0.015l0.026,0.006l0.078,0.017
		h0.041h0.012h0.101h0.029h0.009h0.01h0.03h0.038h0.002l0.026-0.008l0.038-0.025l0.044-0.019l0.032-0.019l0.082-0.044l0.039-0.015
		l0.03-0.016l0.026-0.002l0.019-0.001h0.044h0.031h0.013l0.083,0.038l0.045,0.015l0.094,0.043h0.025l0.045,0.024l0.043,0.015h0.078
		l0.043-0.01l0.033-0.015h0.038l0.04,0.015l0.048,0.019h0.021l0.011,0.01l0.026,0.004l0.059,0.016l0.017,0.013l0.019,0.024v0.029
		v0.034l0.006,0.028l0.014,0.056v0.035l0.008,0.028v0.044l0.011,0.02l0.026,0.044l0.007,0.043l0.025,0.033l0.026,0.029l0.023,0.023
		l0.038,0.023l0.046,0.024l0.051,0.015h0.08h0.065l0.102,0.03l0.128,0.047l0.078,0.015l0.109,0.005l0.125-0.02h0.031l0.026-0.016
		l0.03-0.003h0.032h0.044l0.083,0.03l0.043,0.004l0.083,0.005l0.02,0.013l0.02,0.035l0.026,0.038v0.028l-0.026,0.03l-0.043,0.023
		l-0.046,0.024l-0.026,0.014l-0.038,0.028l-0.007,0.02v0.032l0.007,0.039l0.025,0.028l0.013,0.024l0.021,0.025v0.037l-0.021,0.025
		l-0.037,0.039l-0.008,0.033l-0.019,0.03l-0.018,0.028l-0.013,0.039l-0.021,0.086l-0.005,0.044v0.034v0.034l0.019,0.024v0.044
		l-0.005,0.062l-0.026,0.048l0.045,0.028l0.032,0.047l0.02,0.039l0.036,0.047l0,0l0.057,0.025h0.115l0.127,0.014l0.033,0.004
		l0.026,0.005l0.031-0.001h0.171l0.063,0.005l0.078,0.015h0.046l0.042-0.012l0.078-0.004h0.095h0.031h0.031h0.071l0.065-0.023
		l0.145-0.015l-0.001-0.047l0.039-0.043h0.051l0.127,0.027h0.078l0.034-0.01l0.113-0.02l0.045,0.015h0.114l0.03,0.015l0.066,0.023
		l0.036,0.015h0.026h0.013l0.197,0.013l0.024-0.009l0.014-0.019l0.026-0.006l0.019-0.004l0.07-0.004h0.118h0.027l0.076,0.005
		l0.039,0.004l0.07,0.015l0.095,0.038l0.069,0.014l0.045,0.015l0.07,0.029l0.021,0.006l0.042,0.018l0.072,0.081l0.01,0.013
		l0.014,0.016l0.044,0.049l0.04,0.028l0.026,0.035l0.026,0.056l0.025,0.038l0.026,0.058l0.017,0.059l0.019,0.046l0.007,0.035v0.039
		l-0.012,0.043l-0.01,0.008l-0.021,0.016l-0.026,0.038l-0.026,0.04l-0.026,0.037l-0.036,0.049l-0.023,0.048l-0.011,0.029
		l-0.01,0.029l-0.002,0.009v0.034l0.024,0.033l0.027,0.028l0.026,0.029l0.027,0.038l0.025,0.027l0.033,0.029l0.024,0.009
		l0.027,0.005h0.039h0.011h0.038l0.05,0.019l0.026,0.021l0.014,0.008l0.07,0.032l0.026,0.008l0.026,0.008l0.045,0.018l0.026,0.007
		l0.093,0.027l0.025,0.014l0.044,0.044l0.045,0.048l0.026,0.033l0.02,0.029v0.053l-0.001,0.026l-0.004,0.042l-0.044,0.049
		l-0.026,0.039l-0.039,0.024l-0.057,0.067v0.047v0.016l-0.02,0.038l-0.025,0.042v0.034l-0.005,0.092v0.007v0.01l-0.019,0.01
		l-0.038,0.015l-0.013,0.006l-0.014,0.008l-0.089,0.009l-0.032,0.024l-0.023,0.028l-0.011,0.016l-0.007,0.014v0.021v0.007
		l0.011,0.015l0.026,0.029l0.058,0.044l0.005,0.004l0.007,0.004l0.025,0.015l0.004,0.002l0.007,0.009l0.039,0.038l0.026,0.009
		l0.058,0.024l0.039,0.009l0.043,0.005h0.021h0.011l0.006,0.005l0.032,0.024l0.006,0.038l0.018,0.039l0.046,0.043l0.025,0.035
		l0.026,0.038l0.012,0.02l0.038,0.02l0.028,0.028l0.018,0.033l0.019,0.033l0.004,0.011l0.011,0.018l0.018,0.039l0.026,0.038
		l0.025,0.024l0.001,0.001l0.026,0.043l0.021,0.044l0.004,0.008l0.021,0.045v0.058v0.039l-0.01,0.011l-0.006,0.007l-0.019,0.024
		l-0.021,0.048l-0.014,0.048l-0.023,0.028l-0.033,0.029l-0.026,0.028l-0.02,0.041L-1.5,65.986h-0.01l0,0l-0.033,0.048l-0.005,0.043
		l0,0l-0.017,0.062v0.028v0.02l0.006,0.056v0.016v0.032l-0.005,0.052l-0.046,0.048l-0.026,0.039l-0.038,0.066l-0.006,0.053v0.038
		l0.006,0.049l0.026,0.033l0.028,0.035v0.027l0.011,0.044v0.033v0.034l-0.011,0.037v0.001v0.043l0.013,0.019l0.01,0.02h0.001
		l0.035,0.033l0.016,0.034l0.001,0.043h-0.001l-0.026,0.018l-0.026,0.013l-0.023,0.044l-0.062,0.028l-0.026,0.028l0.024,0.028
		l0.026,0.04l0.033,0.015l0.029,0.018l0.034,0.025l0.002,0.009l0.002,0.01l0.012,0.035l0.028,0.032l0,0l0.038,0.019l0.026,0.024
		l0.034,0.019l0.035,0.028l0.008,0.004l0.008,0.035l-0.028,0.028l-0.045,0.02l-0.052,0.053l0,0l-0.002,0.001l-0.059,0.022
		l-0.027,0.024l-0.043,0.028l-0.039,0.039l-0.013,0.04l-0.012,0.037l0.007,0.039l0.015,0.035l0.002,0.003l-0.004,0.043l-0.039,0.027
		l-0.008,0.006L-1.728,68l-0.032,0.027l-0.014,0.013l-0.009,0.007l-0.034,0.04h-0.018l-0.039,0.01l-0.051,0.01l-0.062,0.02
		l-0.051,0.015l-0.063,0.015l-0.079,0.033l-0.028,0.02l-0.073,0.023l-0.026,0.015l-0.078,0.024l-0.056,0.013l-0.047,0.004
		l-0.027,0.001l-0.057,0.015l0,0l-0.003,0.002l-0.03,0.027l-0.021,0.002l-0.026,0.001l-0.03,0.01l-0.034,0.008l-0.057,0.016
		l-0.052,0.024l-0.043,0.038l-0.063,0.053l-0.045,0.024l-0.078,0.016l-0.016,0.025l-0.008,0.016l-0.045,0.03l-0.049,0.034
		l-0.012,0.009l0,0l-0.052,0.023l-0.004,0.004l-0.058,0.045l-0.039,0.038l-0.069,0.029l-0.026,0.017l-0.049,0.031l-0.012,0.024
		l-0.045,0.018l-0.031,0.027l-0.025,0.026l-0.024,0.026l-0.026,0.036v0.001l-0.045,0.038l-0.026,0.021l-0.039,0.02l-0.021,0.024
		l-0.006,0.004l0,0l-0.049,0.037l-0.044,0.034l-0.034,0.032l-0.044,0.068L-3.98,69.29l-0.019,0.008l-0.03,0.033l-0.011,0.008
		l-0.026,0.017l-0.052,0.042l-0.045,0.039l-0.051,0.062l-0.019,0.025l-0.016,0.021l-0.031,0.015l-0.002,0.001l-0.062,0.033
		l-0.039,0.038l-0.034,0.032l-0.022,0.025l-0.013,0.01l-0.033,0.029l-0.04,0.038l-0.035,0.029l-0.033,0.032l-0.039,0.015
		l-0.052,0.038l-0.017,0.029l-0.028,0.01l-0.025,0.006h-0.024h-0.027l-0.035-0.033l-0.016-0.016l-0.026-0.01l-0.021-0.01
		l-0.03-0.019h-0.015h-0.011h-0.031H-5.02h-0.04l-0.039,0.006l-0.022,0.035v0.001l-0.013,0.036l-0.015,0.064l0.009,0.049
		l0.001,0.004l0.027,0.043l0.011,0.053l0.008,0.045v0.05l0,0l-0.058,0.033l-0.012,0.008l-0.026,0.016l-0.026,0.025l-0.022,0.024
		l-0.027,0.029l-0.011,0.01l-0.026,0.02v0.01l0,0l-0.003,0.002l-0.014,0.01l-0.012,0.01l-0.012,0.009l-0.007-0.006l-0.02-0.024
		l-0.003-0.001l-0.011-0.014l-0.025-0.015l-0.012-0.02l-0.014-0.021l-0.018-0.003H-5.48h-0.013h-0.012h-0.026h-0.074h-0.022
		l0.021-0.029l-0.021-0.021l-0.006-0.008l-0.024-0.02l-0.019-0.017h-0.02h-0.013l-0.021,0.021l-0.011,0.012l-0.014,0.018
		l-0.007,0.011l-0.016,0.024l-0.013,0.042l-0.027,0.038l-0.01,0.048v0.038v0.05l0.003,0.034l0.002,0.029v0.057l-0.082,0.069
		l-0.059,0.027l-0.025,0.013l-0.004,0.001l0,0l-0.039,0.011l-0.045,0.016l-0.037,0.015l-0.032,0.014l-0.064,0.022l-0.057,0.01
		l-0.09,0.004l-0.071,0.011l-0.068,0.01l-0.078,0.016l-0.101,0.003l-0.056,0.028h-0.079h-0.023h-0.043h-0.078l-0.045,0.009
		l-0.013,0.001h-0.074l-0.091,0.004l-0.102-0.008l-0.043,0.028l0,0l-0.008,0.003l-0.026,0.01l-0.042,0.021l-0.057,0.02l-0.012,0.005
		l-0.064,0.028l-0.026,0.013l-0.034,0.013l-0.006,0.003L-7.659,71.1l-0.022,0.005l-0.015,0.007l-0.05,0.025l-0.045,0.028
		l-0.058,0.02L-7.876,71.2l-0.043,0.016l-0.051,0.005h-0.035l-0.05,0.019l-0.063,0.011h-0.034h-0.035H-8.19l-0.022,0.004h-0.003
		l-0.042,0.005H-8.29h-0.014H-8.31h-0.026h-0.026h-0.012l-0.045-0.01l-0.026-0.016l-0.007-0.006h-0.063l-0.006,0.008l-0.018,0.023
		l-0.028,0.01l-0.026,0.006l-0.034,0.006l-0.026,0.007h-0.064h-0.017h-0.008l-0.044,0.015l-0.004,0.002l-0.026,0.003l-0.035,0.01
		l-0.034,0.01l-0.033,0.01l-0.025,0.021l-0.063,0.022l-0.039,0.022l-0.045,0.018l-0.019,0.011l-0.026,0.015l-0.03,0.029
		l-0.055,0.024l-0.029,0.009l-0.026,0.006h-0.059l-0.063-0.004h-0.007h-0.001h-0.022l-0.026,0.003l-0.027,0.002l-0.072,0.016
		l-0.018,0.002l-0.024,0.002h-0.026l-0.018,0.003l-0.012,0.002l-0.044,0.005h-0.003l-0.047,0.006l-0.034,0.032l-0.012,0.021
		l-0.003,0.003l-0.014,0.016h-0.022h-0.012h-0.012h-0.044l-0.024,0.016l-0.026,0.013l-0.038,0.028h-0.002l-0.01,0.011l-0.024,0.019
		h-0.039l-0.026-0.019l-0.02-0.02l-0.013-0.021l-0.007-0.01l-0.005-0.015l-0.021-0.021l-0.015-0.011l-0.021-0.009l-0.03-0.005
		h-0.035h-0.078h-0.026h-0.009h-0.062l-0.04,0.024l-0.05,0.011l-0.034,0.003h-0.017h-0.031h-0.018h-0.02h-0.026l-0.028,0.001h-0.057
		l-0.058-0.021l-0.032-0.014h-0.057l-0.026-0.008l-0.019-0.012l-0.006-0.004l-0.032-0.028l-0.025-0.025l-0.026-0.014l-0.038-0.027
		v0.021l-0.064-0.005l-0.018,0.003l-0.034,0.002l-0.066,0.006h-0.003h-0.003l-0.065,0.009l-0.091,0.005l-0.042,0.004h-0.008l0,0
		l-0.058,0.016l-0.031,0.005l-0.023,0.004l-0.026,0.005l-0.045,0.005l-0.012,0.002h-0.013h-0.032h-0.051l-0.076,0.009l-0.051,0.005
		l-0.094-0.022l-0.131,0.031h-0.042l-0.026,0.011l-0.026,0.009l-0.044,0.011l-0.059,0.019h-0.024h-0.032l-0.043-0.009h-0.071h-0.037
		h-0.072l0,0l-0.055,0.027l-0.026,0.005h-0.026l-0.051,0.008l-0.036,0.006l-0.026,0.01l-0.007,0.002l-0.04,0.015l-0.042,0.018
		l-0.043,0.033l-0.051,0.055l-0.033,0.033l-0.045,0.017l-0.049,0.017l-0.012,0.008l-0.039,0.026l-0.026,0.011l-0.051,0.029
		l-0.017,0.007l-0.026,0.018l-0.033,0.033l-0.041,0.044l-0.041,0.037l0.002,0.013l0.004,0.021v0.011l-0.045,0.015h-0.008
		l-0.015-0.001v0.001v0.003l-0.011,0.033l0.021,0.068l0.021,0.017l0.004,0.004l0.026,0.018l0.023,0.028l0.005,0.008l0.008,0.021
		l-0.014,0.016l-0.026,0.013l-0.033,0.017l-0.033,0.003l-0.031,0.007l0,0l-0.078,0.031l-0.049,0.041v0.032v0.044v0.038l-0.023,0.039
		l-0.044,0.059l-0.031,0.024h-0.064h-0.052l-0.042-0.006l-0.078-0.024h-0.058l-0.044,0.033l-0.038,0.028l-0.03,0.023l-0.045,0.034
		l-0.019,0.02l-0.026,0.039l-0.044,0.062l-0.012,0.05l-0.005,0.032v0.078v0.036l-0.007,0.039l0.007,0.024l-0.014,0.026l-0.064,0.035
		l-0.026,0.035l-0.027,0.028l-0.023,0.029l-0.024,0.023l-0.038,0.033l-0.021,0.019l-0.011,0.016l-0.031,0.021l-0.014,0.022
		l-0.042,0.056l-0.038,0.058l-0.026,0.024l-0.041,0.052l-0.026,0.027l-0.018,0.022l-0.02,0.029l-0.026,0.034l-0.026,0.016
		l-0.051,0.031l-0.064,0.039l-0.044,0.033l-0.08,0.038l-0.052,0.028l-0.07,0.024l-0.076,0.046l-0.09,0.054l-0.017,0.021
		l-0.059,0.024l-0.058,0.039l-0.03,0.022l-0.046,0.034l-0.018,0.038l-0.025,0.058l-0.006,0.048v0.055v0.023l0.02,0.038l0.02,0.032
		l0.026,0.09l0.026,0.064l0.044,0.058l0.026,0.042l0.034,0.068l0.026,0.077l0.007,0.056l-0.026,0.021l0.001,0.027l-0.033,0.028
		l-0.032,0.039l-0.043,0.059l-0.026,0.046l-0.037,0.039l-0.026,0.038l-0.042,0.026l-0.014,0.027l0.014,0.022v0.049v0.052
		l-0.025,0.039l-0.013,0.033l-0.026,0.044l-0.027,0.046l-0.037,0.082l-0.025,0.061l-0.051,0.045l-0.044,0.073l-0.027,0.063
		l-0.029,0.038l-0.058,0.028l-0.048,0.027l-0.115,0.049l-0.078,0.105h-0.001l-0.063,0.087l-0.02,0.016l-0.07,0.046l-0.112,0.057
		l-0.05,0.02l-0.063,0.043l-0.063,0.053l-0.007,0.037l0.072,0.062l-0.02,0.092l-0.05,0.049l-0.057,0.078l-0.007,0.058l-0.018,0.071
		l-0.031,0.081l-0.018,0.095l-0.063,0.058l-0.063,0.078l-0.019,0.047l-0.108,0.026l-0.082,0.022l-0.128,0.041l-0.044,0.028
		l-0.025,0.11v0.121l0.014,0.101l0.026,0.095l0.026,0.091l0.061,0.094l0.084,0.057l0.096,0.056l0.051,0.039l0.068,0.062l0.04,0.032
		l0.076,0.059l0.089,0.08l0.019,0.096l0.045,0.093l0.051,0.062l0.051,0.038l0.179,0.068l0.049,0.065l0.025,0.039l0.04,0.039
		l0.026,0.042l0.039,0.063l0.025,0.058l0.007,0.054l0.013,0.07v0.058v0.088l0.001,0.077l-0.02,0.079l-0.031,0.054l-0.026,0.07
		l-0.037,0.057l-0.038,0.075l-0.005,0.027l-0.021,0.104l0.058,0.081l0.02,0.115l0.018,0.091l0.052,0.034l0.028,0.063l0.035,0.041
		l0.051,0.037l0.04,0.03l0.044,0.054l0.032,0.07l-0.02,0.05l-0.044,0.057l-0.035,0.086l-0.017,0.119v0.094l0.022,0.096v0.076
		l-0.006,0.078l-0.025,0.103v0.065l0.026,0.104v0.066l-0.078,0.101l-0.03,0.087l-0.021,0.059l0.064,0.229l0.072,0.079l0.045,0.101
		l0.042,0.053l0.043,0.043v0.016v0.057l0.003,0.118l0.015,0.071l0.074,0.025l0.039,0.024l0.075,0.053l0.056,0.038l0.079,0.055
		l0.068,0.049l0.079,0.062l0.056,0.051l0.063,0.054l0.026,0.035l0.025,0.022l0.045,0.062l0.03,0.068l0.049,0.098l0.045,0.057
		l0.045,0.025l0.026,0.042l0.025,0.068l0.045,0.029l0.085,0.025l0.026,0.053l0.032,0.049l0.03,0.027l0.046,0.054l0.039,0.037
		l0.038,0.042l0.026,0.035l0.026,0.051l0.03,0.064l0.045,0.086l0.026,0.033l0.026,0.077l0.017,0.054l0.028,0.07l0.022,0.053
		l0.027,0.064l0.023,0.042l0.026,0.044l0.024,0.033l0.026,0.044l0.024,0.043l0.026,0.058l0.035,0.048l0.034,0.025l0.052,0.016h0.072
		l0.074,0.004l0.051,0.014l0.078,0.011l0.077,0.009l0.082,0.011h0.045l0.077,0.009h0.046l0.133,0.01h0.045h0.063h0.044h0.051
		l0.045-0.028l0.079-0.027l0.04-0.044l0.051-0.02l0.025-0.058l0.014-0.057l0.037-0.039l0.072-0.047l0.062-0.039l0.051-0.024
		l0.05-0.016h0.04l0.038-0.004l0.031-0.015l0.033-0.015l0.029-0.022l0.026-0.004l0.068-0.019h0.04h0.026l0.087,0.037l0.096,0.029
		l0.075,0.008l0.064-0.037l0.051-0.033l0.055-0.026l0.072-0.019h0.026l0.093,0.049l0.065,0.041l0.052,0.045l0.03,0.015l0.072,0.043
		l0.031,0.049l0.046,0.058l0.062,0.024l0.045,0.024l0.052,0.029l0.031,0.052l0.03,0.049l0.041,0.055l0.045,0.056l0.042,0.044
		l0.083,0.044l0.115,0.026h0.088l0.078-0.042l0.078-0.032l0.091-0.034l0.062-0.021l0.123,0.015l0.056,0.057l0.057,0.049l0.063,0.037
		l0.083,0.048l0.056,0.053l0.057,0.043l0.038,0.043l0.05,0.038l0.046,0.024l0.044,0.029l0.078,0.066l0.043,0.03l0.04,0.017
		l0.052,0.017l0.078,0.005l0.031,0.012l0.057,0.01l0.033,0.019v0.038l0.034,0.036l0.033,0.032h0.045l0.131,0.043l0.045,0.03
		l0.044,0.036l0.026,0.024l0.077,0.01l0.026,0.005l0.038,0.016l0.065,0.01l0.057,0.02l0.078,0.037l0.027,0.028l0.026,0.04
		l0.04,0.028l0.026,0.03l0.034,0.027l0.022,0.02l0.026,0.013l0.045,0.021l0.037,0.033l0.027,0.033l0.018,0.045l0.014,0.036v0.059
		v0.031v0.047l0.026,0.024l0.027,0.021l0.072,0.042l0.061,0.038l0.069,0.048l0.064,0.028l0.033,0.039l0.039,0.048l0.03,0.027
		l0.008,0.057l0.007,0.039v0.068v0.03l0.018,0.022l0.02,0.024l0.025,0.039l0.024,0.037l0.027,0.033l0.014,0.054l0.018,0.038v0.048
		l0.008,0.037l0.012,0.058v0.048l0.006,0.043v0.055l-0.019-0.021v0.05v0.057v0.059v0.115l0.026,0.029l0.006,0.065v0.052
		l-0.011,0.059l-0.02,0.077l0.006,0.072l0.038,0.039l0.043,0.042l0.045,0.073l0.026,0.104l0.031,0.051l0.026,0.06l0.039,0.03
		l0.062,0.069l0.002,0.085l-0.026,0.058l0.006,0.049l0.045,0.059l0.045,0.053l0.045,0.041l0.151,0.074l0.076,0.027l0.064,0.028
		l0.042,0.028l0.059,0.052l0.038,0.048l0.077,0.058v0.024l0.026,0.06l0.045,0.044l0.044,0.042l0.058,0.037l0.031,0.017l0.071,0.018
		l0.068,0.015l0.072,0.034l0.036,0.023l0.045,0.028l0.025,0.024l0.043,0.029l0.065,0.033l0.044,0.018l0.026,0.025l0.03,0.043
		l0.031,0.033l0.027,0.063L-6,89.631l0.052,0.024l0.02,0.027l0.052,0.047l0.031,0.039l0.021,0.033v0.052v0.05l-0.006,0.115
		l-0.032,0.051l-0.208,0.089l-0.19,0.057l-0.038,0.112l0.038,0.044l0.006,0.073l0.026,0.105v0.067l-0.037,0.067l-0.026,0.049
		l-0.033,0.026l-0.045,0.085l0.001,0.04l-0.006,0.063L-6.401,91l-0.019,0.043l-0.006,0.034l0.019,0.037l0.027,0.039l0.016,0.037
		v0.039l0.021,0.038l0.026,0.028l0.026,0.058l0.024,0.031l0.025,0.063l-0.013,0.044l-0.05,0.004l-0.03,0.01l-0.026,0.027
		l-0.031,0.058l-0.037,0.022l-0.019,0.031l-0.026,0.024v0.037l-0.091,0.049l-0.011,0.039l-0.012,0.039l-0.038,0.052v0.024
		l-0.024,0.039v0.034v0.041v0.053l0.005,0.043l0.045,0.045l0.014,0.009l0.03,0.039l0.031,0.042v0.073v0.058v0.069l0.028,0.085
		l-0.007,0.038l0.001,0.058l-0.021,0.039l0.005,0.01v0.058l-0.022,0.062l-0.006,0.053v0.049v0.097v0.033v0.056v0.055l0.019,0.039
		l0.045,0.031l0.044,0.016l0.057,0.015l0.045,0.015l0.044,0.019l0.07,0.028l0.05,0.028l0.063,0.011l0.057,0.018l0.026,0.025
		l0.025,0.043l0.013,0.059v0.053l0.008,0.085l-0.026,0.067v0.073l-0.006,0.078l-0.006,0.067l-0.019,0.054v0.066l-0.008,0.086v0.068
		v0.026v0.064l0.001,0.064v0.132l-0.011,0.074l-0.056,0.124l-0.033,0.035l-0.026,0.046l-0.038,0.028l-0.05,0.073l-0.039,0.054
		l-0.012,0.046l-0.017,0.033l-0.008,0.141l-0.025,0.056v0.027l-0.012,0.05l-0.043,0.057l-0.009,0.026l-0.026,0.02l-0.044,0.004
		h-0.034h-0.056h-0.032l-0.024-0.032l-0.027-0.021l-0.026-0.014h-0.03l-0.05,0.009l-0.026,0.049l-0.026,0.04l-0.019,0.041v0.045
		v0.054l-0.006,0.041l-0.037,0.04l-0.026,0.033l-0.025,0.043l-0.026,0.052l-0.021,0.059v0.043l-0.005,0.014l-0.02,0.05l-0.011,0.047
		l-0.021,0.038l-0.019,0.064v0.035v0.053l-0.006,0.058l-0.024,0.048l-0.007,0.04v0.053v0.056l-0.057,0.055l-0.056,0.077v0.028v0.069
		l0.026,0.049l0.038,0.008l0.039,0.039l0.01,0.046v0.033l-0.01,0.094l-0.026,0.057l-0.019,0.062l-0.006,0.053l-0.025,0.026
		l-0.057,0.028l-0.033,0.035l-0.042,0.024l-0.072,0.029l-0.052,0.021l-0.036,0.008l-0.025,0.01h-0.052L-7.6,97.264h-0.062
		l-0.041,0.018l-0.077,0.021l-0.005,0.053l0.039,0.026l0.026,0.014v0.057l-0.014,0.01v0.048l0.005,0.02l0.009,0.025l0.032,0.033
		l0.006,0.019v0.038l-0.013,0.032l-0.031,0.028l-0.051,0.029l-0.051,0.038l-0.035,0.026l-0.066,0.038l-0.07,0.036l-0.044,0.008
		h-0.051h-0.035L-8.2,97.886l-0.057,0.025l-0.044,0.044l-0.037,0.028l-0.026,0.026l-0.039,0.03l0.001,0.044l-0.007,0.02
		l-0.029,0.021l-0.026,0.028l-0.03,0.037l-0.031,0.049l-0.052,0.045l-0.018,0.027l-0.051,0.033l-0.073,0.036l-0.034,0.039
		l-0.029,0.027l-0.05,0.038l-0.012,0.044l-0.011,0.037l-0.026,0.033l-0.085,0.025l-0.039,0.028l-0.044,0.029l-0.063,0.023
		l-0.046,0.033l-0.044,0.038l-0.023,0.039l-0.027,0.037l-0.03,0.039l-0.049,0.005h-0.045l-0.073-0.005l-0.026-0.004l-0.045,0.024
		l-0.006,0.029l-0.034,0.002l-0.026-0.028l-0.039-0.014l-0.05-0.005h-0.051h-0.045l-0.032,0.03l-0.049,0.021h-0.052l-0.026,0.006
		l-0.023,0.033l-0.013,0.047l-0.015,0.04l-0.027,0.038h-0.04l-0.032-0.028l-0.035-0.003h-0.041h-0.026l-0.026,0.037l-0.017,0.029
		l-0.035,0.028l-0.039,0.024l-0.026,0.037l-0.084,0.062l-0.024,0.028l-0.039,0.029l-0.026,0.02l-0.041,0.021l-0.029,0.011
		l-0.022,0.025l-0.045,0.029l-0.045,0.059l-0.034,0.057l-0.022,0.074l-0.05,0.036l-0.052,0.017l-0.078,0.005l-0.041,0.024
		l-0.023,0.024l-0.004,0.058v0.038l0.004,0.029l-0.022,0.016l-0.021,0.033h-0.043l-0.067-0.021l-0.068-0.028l-0.141-0.046
		l-0.074,0.014l-0.057,0.028h-0.034h-0.057l-0.073,0.004h-0.045l-0.045-0.029h-0.063l-0.05,0.011l-0.072,0.02l-0.042,0.028
		l-0.063,0.01l-0.052,0.032l-0.043,0.003h-0.04h-0.051l-0.082,0.032l-0.007,0.047l-0.027,0.039l-0.044,0.014h-0.107h-0.021
		l-0.036-0.01l-0.065-0.01h-0.06l-0.085,0.034l-0.064,0.054l-0.045,0.007l-0.049,0.011h-0.039h-0.026v-0.026l-0.019-0.04
		l-0.051-0.052l-0.025-0.043l-0.026-0.039l-0.063-0.062l-0.026-0.025l-0.063-0.039l-0.07-0.005h-0.051l-0.063,0.037l-0.058,0.039
		l-0.027,0.073l0.008,0.089v0.044v0.053l-0.014,0.032l-0.062,0.028l-0.045,0.031l-0.058,0.026l-0.063,0.026l-0.07,0.023l-0.051,0.02
		l-0.056,0.01l-0.044,0.019l-0.07,0.029l-0.052,0.023l-0.058,0.033l-0.03,0.02l-0.077,0.043l-0.026,0.026l-0.025,0.047l-0.031,0.015
		l-0.058,0.006v0.059l0.014,0.027l0.013,0.042l-0.044,0.045l-0.025,0.048l-0.026,0.038l-0.076,0.009l-0.064-0.005l-0.038-0.037
		l-0.051-0.032l-0.045-0.025l-0.051-0.032l-0.12-0.038l-0.039,0.01l-0.026,0.034l-0.045,0.032l-0.026,0.048l-0.056,0.058
		l-0.052,0.048l0.026,0.02l0.013,0.042l0.013,0.034l0.026,0.046l0.043,0.03l0.026,0.01l0.02,0.046l-0.008,0.028l-0.012,0.04v0.03
		v0.075l-0.057,0.057v0.056l-0.025,0.049l-0.052,0.048l-0.088,0.049l-0.13,0.056l-0.137,0.034l-0.076,0.005h-0.052l-0.049,0.005
		l-0.061,0.185l-0.078,0.192l0.006,0.119l0.018,0.1l0.078,0.136l0.057,0.166l-0.03,0.079l-0.079,0.263l0.014,0.122l0.035,0.304
		l0.026,0.04l0.073,0.068l0.141,0.084l0.078,0.024l0.138,0.037l0.104,0.049l0.078,0.055l0.083,0.125l0.128,0.092l0.076,0.031
		l0.162,0.045l0.105,0.049l0.101,0.08l0.136,0.09l0.184,0.007l0.157-0.073l0.176-0.078l0.132,0.017l0.185,0.09l0.109,0.122
		l0.105,0.1l0.026,0.136l0.212-0.078l0.324,0.083l0.178,0.052l0.153,0.074l0.115,0.052l0.181,0.104l0.078,0.094l0.079,0.103
		l0.137,0.149l0.078,0.079l0.059,0.086l0.087,0.107l0.12,0.107l0.111,0.101l0.125,0.085l0.077,0.037l0.121,0.022l0.078-0.001
		l0.348-0.017l0.124,0.016l0.144,0.028l0.079-0.004l0.109,0.062l0.16,0.132l0.113,0.108l0.18,0.101l0.076,0.044l0.08,0.025
		l0.282,0.036l0.135,0.052l0.068,0.008l0.197,0.115l0.192,0.188l0.116,0.078l0.183,0.223l0.11,0.143l0.11,0.159l0.131,0.199
		l0.093,0.179l0.095,0.167l0.091,0.132l0.052,0.039l0.21,0.01l0.047,0.093l-0.006,0.233l-0.017,0.104l-0.05,0.183l0.013,0.123
		l0.035,0.154l0.078,0.128l0.073,0.088l0.105,0.073l0.043,0.043l0.109,0.07l0.067,0.032l0.083,0.06l0.096,0.045l0.121,0.068
		l0.073,0.092l0.121,0.167l-0.006,0.115l-0.015,0.062l-0.093,0.076h-0.245l-0.049,0.049l-0.026,0.072l-0.009,0.086l-0.116,0.104
		v0.064l-0.023,0.057l0.082,0.205l0.153,0.001l0.116,0.027l0.15,0.003l0.24-0.042l0.103,0.018l0.13,0.077l0.348,0.234l0.176,0.092
		l0.062,0.035l0.06-0.003l0.125-0.052l0.124-0.07l0.13,0.016l0.063,0.074l0.098,0.131l0.078,0.088l0.063,0.028l0.078,0.007
		l0.117,0.035l0.051,0.037l0.129,0.073l0.071,0.019l0.114,0.022l0.109,0.025l0.211,0.064l0.254,0.196l0.285,0.152l0.09,0.082
		l0.129,0.083l0.108,0.044l0.029,0.085l0.031,0.024l0.135,0.013l0.063,0.024l0.026,0.051l0.078,0.069h0.035l0.171-0.014l0.099-0.032
		l0.098-0.04l0.131,0.084l0.031,0.044l0.042,0.02l0.086,0.041l0.128,0.037l0.036,0.037l0.154,0.09l0.084,0.084l0.089,0.075
		l0.076,0.072l0.13,0.037l0.172-0.009l0.219,0.11l0.197,0.078l0.203,0.047l0.151,0.007l0.195-0.047l0.141,0.076l0.203,0.032
		l0.161-0.031l0.153-0.026l0.148,0.026l0.046,0.033l0.003,0.066l0.008,0.051l-0.021,0.058l-0.051,0.064l-0.086,0.104l-0.072,0.105
		l0.002,0.048l0.108,0.052l0.079,0.183l-0.034,0.115l0.019,0.054l0.002,0.108l0.136,0.288l0.068,0.429l0.099,0.443l0.137,0.497
		l0.149,0.548l0.087,0.348l0.06,0.207l0.073,0.229l0.061,0.213l-0.063,0.087l-0.29,0.19l-0.193,0.137l-0.465,0.319l-0.173,0.11
		l-0.108,0.298l0.057,0.054l0.046,0.061l0.069,0.047l0.031,0.072l0.069,0.015l0.047,0.042l0.084,0.007l0.024,0.081l0.033,0.065
		l0.08,0.012l0.077,0.007l0.051,0.026l0.061-0.01l0.122-0.022l0.184-0.055l0.149-0.017l0.135,0.021l0.208-0.077l0.113-0.058
		l0.122,0.024l0.131,0.044l0.16,0.029l0.148,0.046l0.13,0.037l0.058,0.033l0.078-0.018l0.089,0.022l0.078,0.003l0.163,0.003
		l0.079-0.018l0.06,0.025l0.026,0.025l0.033,0.061l0.052,0.021l0.02,0.017l0.026,0.025l0.006,0.043l-0.183-0.037L3.2,119.351
		l0.104,0.049l0.163,0.078l0.186,0.026l0.198,0.01l0.137,0.014l0.085,0.029l0.034,0.015l0.037,0.029l0.098,0.076l0.18,0.165
		l0.059,0.051l0.078,0.068l0.075,0.042l0.075,0.003l0.16,0.03l0.121,0.008l0.121,0.047l0.062,0.022l0.079,0.035l0.119,0.042
		l0.119,0.086l0.005,0.052l0.019,0.05l0.037,0.031l-0.051,0.039l0.014,0.098l0.028,0.081l0.024,0.063l0.054,0.069l0.01,0.085
		L5.605,121l-0.033,0.098l-0.026,0.087l-0.03,0.107l-0.025,0.084l-0.03,0.101l-0.04,0.115l0.019,0.104l0.019,0.113l0.022,0.084
		l0.049,0.077l0.026,0.12l0.026,0.06l0.025,0.094l0.03,0.073l0.071,0.129l0.066,0.04l0.113,0.133l0.121,0.117l0.033,0.104
		l0.101,0.25l0.09,0.139l0.117,0.146l0.09,0.098l0.052,0.055l0.078,0.083l0.09,0.127l0.064,0.138l0.058,0.091l0.022,0.073
		l0.052,0.097l0.014,0.063l0.032,0.047l0.026,0.107l0.021,0.132l0.029,0.097l0.078,0.203l0.091,0.266l0.036,0.062l0.027,0.076v0.077
		l0.028,0.092l0.076,0.184h0.005H7.71l0.377,0.071l0.091,0.216l0.136,0.324l0.619,0.314l0.092,0.14l1.196,0.667l0.466,0.31
		l1.037,0.689l0.504-0.206l1.348-0.551l0.138-0.006l0.199-0.013l0.045,0.019l0.242,0.1l0.069-0.015l0.71-0.169l1.074-0.045
		L17,126.343l0.455-0.741l-0.216-0.94l-0.013-0.049l0.013-0.107l0.026-0.271l0.179-0.212l0.03-0.04l1.018-0.267l0.665-0.349
		l0.344-0.181l0.756-0.073l0.09-0.008l0.175,0.66l-0.301,0.916l-0.299,0.593l-0.061,0.11l-0.514,0.757l-0.437,0.633l-0.101,0.149
		l0.017,0.083l0.013,0.082l-0.188,0.266l-0.13,0.185l-0.613,1.9l0.214,1.356l0.412,0.625l0.376,0.281l0.008,0.012l0.307,0.451
		l0.033,0.304l0.013,0.126l-0.365,0.63l-0.218,0.176l-0.343,0.272l-0.48,0.6l-0.229,0.478l-0.141,0.297l0.016,0.187l0.042,0.602
		l0.246,1.257l0.161,0.434l0.068,0.178l0.396,0.36l0.068,0.062l0.033,0.032l0.061,0.044l0.911,0.65l0.026,0.099l0.103,0.35
		l-0.201,0.742l0.069,0.363l0.045,0.24l0.147,0.296l0.131,0.265l0.607,0.425l1.185,0.166l1.174,0.013l0.139,0.079l0.076,0.042
		l0.253-0.021l0.287-0.021l0.178-0.115l1.07-0.054l0.888-0.044l1.026-0.626l0.469-0.005l0.407-0.003l0.484,0.078l0.616,0.105
		l0.267,0.168l0.79,0.198l0.326,0.2l0.124,0.179l0.28,0.397l0.026,0.037l0.452,0.207l1.279-0.111l0.397,0.025l0.097,0.008
		l0.167,0.115l0.352,0.242l0.13,0.167l0.142,0.18l0.519,0.055l0.263,0.025l0.202,0.102l0.28,0.138l0.327,0.01l0.263-0.057
		l0.184-0.037l0.168-0.131l0.465-0.368l0.074-0.196l0.007-0.021l0.071-0.082l0.172-0.216l0.293-0.373l0.484-0.459l0.024-0.021
		l0.455-0.333l0.049-0.003l0.287-0.016l1.291,0.526l0.534-0.049l0.576,0.151l0.812,0.741l0.444,0.564l0.16,0.054l0.474,0.535
		l0.026,0.026l0.078,0.09l0.367,1.063l0.602,0.341l0.428,0.063l0.289-0.071l0.377-0.094l0.999-0.464l0.071,0.007l0.398,0.043
		l0.2,0.242l0.162,0.76l0.248,0.156l0.982,0.099l0.248,0.025l0.292,0.028l0.107,0.012l0.063,0.037l0.232,0.14l0.844,0.824
		l1.411,0.663l0.147,0.166l0.305,0.341l1.172,0.665l0.315,0.216l0.673,0.469l0.059,0.084l0.129,0.184l0.445-0.091l1.019,0.044
		l0.287-0.029l1.002,0.075l1.002,0.157l0.86-0.101l0.232-0.102l0.826-0.188l1.145-0.463l0.522-0.117l0.262-0.027l0.68,0.115
		l0.185,0.115l0.289,0.377l0.026,0.277l-0.118,0.23l-1.073,1.306l-0.121,0.203l-0.083,0.29l0.026,0.496l0.087,0.261l0.235,0.333
		l0.184,0.159l0.235,0.116l0.321,0.073l0.263-0.029l0.536-0.144l0.655-0.378l0.278-0.362l0.232-0.827l-0.026-0.245l0.04-0.275
		l-0.017-0.291l-0.072-0.217l-0.061-0.466l0.026-0.579l0.108-0.268l0.841-0.554l0.399-0.42l0.131-0.229l0.21-0.19l0.772-0.528
		l0.536-0.303l0.318-0.176l0.659-0.267l0.373-0.134l1.242-0.307l0.706-0.028l1.329,0.099l0.377-0.013l0.34-0.132l0.27-0.172
		l0.14-0.23l0.2-0.21l0.812-0.488l0.14-0.23l0.27-0.184l0.288-0.449l0.038-0.267l-0.071-0.327l0.037-0.287l0.553-0.32l0.842-0.207
		l0.725-0.238l0.246-0.189l2.504-1.177l0.203-0.204l0.16-0.235l0.084-0.239l0.278-0.485l0.706-0.564l0.529-0.344l0.198-0.2
		l0.141-0.22l0.026-0.279l-0.133-0.648l0.048-0.28l0.338-0.726l0.305-0.449l0.183-0.198l0.263-0.175l0.927-0.447l0.244-0.19
		l0.598-0.25l0.217-0.009l0.217-0.464l0.116-0.58l0.018-0.277l-0.178-0.448l-0.026-0.188l-0.227-0.391l-0.38-0.856l-0.026-0.218
		l-0.029-0.277l0.044-0.274l0.421-0.683l0.216-0.145l0.104-0.175l0.36-0.348l0.103-0.172l0.173-0.161l0.102-0.303l0.017-0.263
		l-0.042-0.232l-0.179-0.422l-0.55-0.739l-0.078-0.202l-0.479-0.798l-0.402-0.537l-0.101-0.204l-0.447-0.521l-1.117-0.885
		l-0.563-0.507l-0.741-0.551l-0.236-0.115l-0.52-0.508l-0.185-0.391l-0.058-0.247l0.014-0.275l0.087-0.304l0.114-0.261l0.033-0.054
		l0.23-0.34l0.494-0.493l0.449-0.216l0.695-0.233l0.61-0.117l0.942,0.045l0.55,0.187l0.812,0.348l0.522,0.158l0.725,0.378
		l0.55,0.203l0.319,0.073l0.608,0.016l0.538-0.087l0.277-0.117l0.655-0.349l0.898-0.767l0.55-0.376l0.185-0.233l0.377-0.248
		l0.392-0.348l1.58-0.986l0.698-0.375l0.177-0.161l0.201-0.087l0.446-0.287l0.13-0.131l1.219-0.754l0.378-0.319l0.419-0.261
		l0.639-0.307l0.607-0.131l1.146-0.073l0.333,0.043l0.958-0.015l0.564-0.087l0.71-0.276l0.505-0.564l0.336-0.261l0.841-0.508
		l0.377-0.319l0.825-0.479l0.523-0.449l0.218-0.115l0.143-0.234l0.505-0.507l0.186-0.261l1.493-1.45l0.2-0.13l0.143-0.188
		l0.44-0.318l0.562-0.319l0.962-0.422l0.596-0.377l0.594-0.479l1.004-0.622l0.244-0.073l0.158-0.131l0.304-0.042l0.71-0.246
		l0.923-0.058l1.334,0.086l1.844-0.057l1.014,0.084l0.305-0.027l0.654,0.027l1.387,0.189l0.783,0.319l0.826,0.826l0.418,0.261
		l0.277,0.103l0.363,0.059l0.338,0.015l1.303-0.349l0.236-0.028l1.754-0.594l0.406-0.188l0.869-0.131l0.332,0.014l0.348,0.086
		l0.012,0.004l1.09,0.359l0.9,0.246l0.35,0.318l0.391,1.351l0.318,0.594l0.422,0.522l0.824,0.608l0.465,0.244l0.754,0.32
		l1.162,0.378l1.004,0.159l0.822,0.305l0.246,0.361l0.434,1.348l0.182,0.404l0.025,0.22l0.16,0.479l0.131,0.145l0.1,0.218
		l0.436,0.564l0.348,0.291l0.656,0.392l0.637,0.466l0.449,0.172l0.217,0.161l0.303,0.131l0.188,0.159l0.176,0.071l1.283,0.858
		l0.248,0.102l0.178,0.145l1.127,0.654l0.275,0.101l0.18,0.144l0.697,0.378l0.521,0.186l1.027,0.523l0.578,0.176l0.201,0.115
		l0.553,0.174l1.824,0.738l0.232,0.132l0.322,0.072l0.303,0.132l0.277,0.041l0.143,0.052l1.77,0.615l0.318,0.076l0.539,0.233
		l1.26,0.304l1.383,0.216l0.725,0.074l0.912-0.028l2.584-0.246l0.984,0.145l0.861,0.334l0.287,0.042l0.318,0.044l0.541-0.146
		l0.197-0.086l0.783-0.623l0.656-0.68l0.303-0.45l0.971-1.001l0.436-0.188l0.539-0.102l2.971,0.176l0.916-0.017l0.869-0.159
		l0.68-0.275l0.781-0.594l0.496-0.479l0.365-0.291l0.361-0.376l0.174-0.103l0.318-0.346l0.305-0.422l0.318-0.289l0.668-0.738
		l0.551-0.538l0.344-0.214l0.504-0.222l0.568-0.072l0.758,0.051l0.209,0.194l0.289,0.479l0.379,1.203l0.1,0.219l0.219,0.724
		l0.102,0.697v0.464l0.23,1.044l0.203,0.262l1.322,1.306l0.236,0.304l0.842,1.362l0.494,0.595l0.32,0.276l0.605,0.348l0.277,0.245
		l0.188,0.234l0.186,0.274l0.336,0.726l0.219,0.594l0.158,0.246l0.217,0.219l0.248,0.044l0.287-0.016l0.26,0.129l0.119,0.219
		l0.117,0.506l0.014,0.798l-0.174,0.274l-0.217,0.235l-0.102,0.231l-0.043,0.261l0.025,0.234l0.219,0.245l0.402,0.245l0.812,0.376
		l0.885,0.681l0.445,0.45l0.551,0.797l0.664,0.812l0.26,0.219l0.287,0.129l0.508,0.045l0.26-0.086l0.277-0.188l0.521-0.464
		l0.303-0.204l0.305-0.159l0.359-0.115l0.303-0.059l0.783,0.246l0.656-0.015l0.342-0.102l0.465-0.449l0.316-0.029l0.408,0.479
		l0.303,0.174l0.344,0.016l0.322-0.045l0.26-0.231l-0.027-1.479l0.131-0.219l0.289-0.203l0.275-0.144l0.348-0.086l0.334,0.028
		l0.361,0.144l1.391,0.914l0.289,0.086l0.361,0.028l0.346-0.028l0.381-0.116l0.287-0.172l0.244-0.233l0.318-0.494l0.221-0.479
		l0.201-0.203l0.305-0.187l0.537-0.131l0.289-0.014l0.594,0.056l0.498-0.289l0.201-0.289l0.58-1.027l0.201-0.219l0.262-0.175
		l0.582-0.16l0.598-0.073l1.639-0.348l0.607-0.016l0.303,0.174l0.162,0.289l0.072,0.828l0.465,0.782l0.072,0.204l-0.059,0.347
		l-0.303,0.536l-0.521,1.203l-0.1,0.48l-0.02,0.55l0.119,0.537l0.117,0.234l0.244,0.261l0.582,0.159l0.141,0.216l-0.041,0.233
		l-0.564,0.32l-3.809,1.708l-0.34,0.19l-0.303,0.23l-0.221,0.233l-0.287,0.653l-0.131,1.22l-0.143,0.812l-0.402,1.202l-0.234,0.495
		l-0.076,0.246l0.086,0.476l0.201,0.234l1.598,1.116l0.506,0.074l0.287-0.233l0.145-0.231l0.363-1.029l0.346-0.479l0.549-0.364
		l0.596-0.202l0.188-0.218l0.26-0.739l0.188-0.204l0.539-0.392l0.287-0.375l-0.148-0.18l-0.154-0.445l0.043-0.268l0.385-0.332
		l0.236-0.311l0.123-0.207l0.025-0.103l0.236-0.209l0.189-0.228l0.285-0.187l0.732-0.15l0.547-0.068l0.08-0.03l0.26-0.146
		l0.092-0.04l0.34-0.092l0.072-0.002h0.395l0.131,0.039l0.391,0.076l0.895-0.377l0.453-0.499l0.525-0.824l0.486-0.107l0.508-0.025
		l0.381,0.105l0.203-0.255l0.455-0.27l0.443,0.12l0.625-0.037l0.115-0.156l-0.023-0.736l0.174-0.072l1.533,0.284l0.057-0.004
		l0.766-0.103l0.311-0.291l0.289-0.207l0.41-0.435l0.504-0.291l0.553-0.17l0.367-0.086l0.092-0.135l0.5-0.996l0.656,0.025
		l0.096-0.051l0.068-0.027l0.5-0.27l0.307-0.484l0.279-0.246l0.508-0.203l0.129-0.019l0.35,0.062l0.141,0.577l0.078,0.2l0.098,0.21
		l0.004,0.371l-0.074,0.328l-0.094,0.31l-0.043,0.246l-0.072,0.286l0.143,0.227l0.197,0.328l0.494,0.448l0.658,0.717l0.271,0.366
		l0.27,0.369l-0.008,0.625l-0.182,0.363l-0.217,0.245l-0.287,0.341l-0.242,0.323l-0.17,0.412l0.242,1.021l0.277,0.483l0.574,1.674
		l-0.047,0.392l0.105,0.77l0.367,0.337l0.318,0.368l0.32,0.604l0.117,0.218l0.131,0.314l0.219,0.458l0.297,0.332l0.268,0.161
		l0.445,0.122l0.322,0.27l0.234,0.27l0.291,0.259l0.58,0.059l0.342-0.001l0.246,0.046l0.236,0.109l0.271,0.334l0.277,0.165
		l0.312,0.186l0.502,0.097l0.221,0.204l0.051,0.369l0.002,0.226l0.242,0.308l0.414,0.245l0.684,0.32l0.105,0.077l0.822,0.437
		l0.65,0.506l0.078,0.055l0.457,0.299l0.191-0.024l0.041-0.37l0.123-0.245l0.406-0.658l0.342-0.474l0.748-0.477l0.648-0.08
		l0.256-0.005h0.277l0.547-0.078l0.793-0.146l0.057-0.002l0.654,0.027l0.102,0.041l0.059,0.01l0.543,0.235l0.191,0.132l0.363,0.142
		l0.553,0.018l0.145-0.265l-0.025-0.514l-0.027-0.453l0.264-0.546l0.799-0.64l-0.002-0.494l-0.176-0.844l0.031-0.418l0.443-0.691
		l0.266-0.474l0.471-0.234l0.482-0.36l0.352-0.253l0.363-0.062l0.654-0.187l0.287-0.293l0.148-0.263l0.123-0.412l0.289-0.021
		l0.314,0.061l0.24,0.041l0.172,0.061l0.24,0.042l0.123,0.037l0.115-0.021l0.18-0.225l0.047-0.229l0.172-0.164l0.238,0.042
		l0.393,0.162l0.314,0.103l0.348-0.159l0.205-0.213l0.211-0.333l0.078-0.2l0.242-0.126l0.123-0.123l0.17-0.145l0.217-0.245
		l0.027-0.483l-0.199-0.439l0.174-0.24l0.221-0.329l0.314-0.329l0.602-0.969l0.553-0.008l0.074-0.096l-0.072-0.512l-0.193-0.371
		l-0.219-0.369l-0.043-0.765l-0.352-0.373l-0.393-0.329l-0.305-0.525l-0.146-0.246l-0.176-0.655l0.145-0.311l0.49-0.184l0.17-0.228
		l-0.176-0.678l0.123-0.411l0.434-0.18l0.344-0.274l-0.049-0.369l-0.318-0.431l-0.41-0.699l-0.15-0.227l-0.229-0.46l-0.182-0.621
		l-0.07-0.192l-0.6-0.39l-0.459-0.039l-0.824,0.167h-0.537l-0.125-0.288v-0.594l0.07-0.333l0.219-0.535l0.047-0.45l0.018-1.519
		l0.125-0.849l-0.076-0.677l-0.1-0.468l0.023-0.269l1.072-1.998l0.025-0.271l-0.174-0.342l-0.611-0.454l-0.998-0.427l-0.256-0.026
		l-0.141-0.034l-0.084-0.06l-0.016-0.06l-0.025-0.107l0.01-0.179l-0.057-0.049l-0.072-0.035l-0.373-0.295l-0.314-0.2l-0.371-0.033
		l-0.107-0.003l-0.078,0.018l-0.084-0.071l-0.057-0.096l-0.021-0.119v-0.048l-0.025-0.167l-0.018-0.059l-0.074-0.169l-0.027-0.046
		l-0.301-0.26l-0.041-0.048l-0.197-0.105l-1.283-4.793l-0.166-0.873l0.025-0.368l0.113-0.445l0.184-0.578l0.457-0.646l0.207-0.193
		l0.184-0.306l-0.078-0.327l-0.162-0.345l-0.281-0.274l-0.162-0.099l-0.068-0.069l-0.729-0.463l-0.705,0.038l-0.578-0.251
		l-0.68-0.522l-0.367-0.287l-0.516-0.243l-0.369-0.41l0.037-0.323l0.107-0.19l0.463-0.37l-0.076-0.146l-0.449-0.062l-0.299-0.201
		l-0.635-0.231l-0.078-0.032l-0.314-0.177l-0.357-0.357l-0.129-0.698l-0.055-1.046l0.025-0.185l-0.049-0.186l-0.225-0.244
		l-0.346-0.313l-0.217-0.198l-0.223-0.035l-0.074,0.005l-0.295-0.09l-1.125,0.108l-0.611-0.142l-0.461-0.356l-0.33-0.527
		l-0.145-0.412l-0.17-0.736l-0.34-0.589l-0.525-0.183l-0.602-0.368L240.646,94l-1.029-0.72l-0.201-0.184l-0.301-0.016l-0.781-0.08
		l-0.602-0.108l-0.1-0.018l-0.629-0.171l-0.166-0.062l-0.277-0.207l-0.203-0.267l-0.041-0.454l-0.184-0.419l-0.371-0.24
		l-0.236-0.229l-0.225-0.388l-0.045-0.452l-0.004-0.474l-0.238-0.251l-0.729-0.467l-1.391-1.261l-0.559-0.635l-0.721-0.854
		l-0.26-0.287l-0.172-0.4l0.02-0.318l0.033-0.592l0.393-1.014l0.414-0.827l0.098-0.169l0.021-0.235l-0.307-0.042l-0.969,0.084
		l-0.473,0.002l-0.561-0.114l-0.533-0.501l-0.402-0.417l-0.203-0.253l-0.326-0.479l0.014-0.688l0.352-0.462l0.277-0.156l0.342-0.224
		l3.115-2.024l0.037-0.023l0.863-0.655l-0.145-0.387l-0.305-0.521l-0.234-0.349l-0.168-0.404l-0.115-0.404l-0.166-0.419
		l-0.066-0.405l0.156-0.623l0.281-1.056l0.062-0.814l-0.184-0.978l-0.246-0.437l-0.141-0.604l0.078-0.287l0.283-0.271l0.121-0.254
		l-0.002-0.168l0.02-0.236l-0.041-0.303l-0.135-0.151l-0.695-0.214l-0.475-0.166l-0.299-0.173l0.131-0.503l0.041-0.67l0.035-0.388
		l0.078-0.252l0.176-1.047l0.121-0.389l-0.084-0.402l-0.287-0.418l-0.465-0.269l-0.471-0.249l-0.566-0.299l-0.203-0.184
		l-0.203-0.117l-0.428-0.065l-0.24-0.014l-0.221,0.034l-0.527-0.114l-0.266-0.149l-0.346-0.131l-0.34-0.133l-0.184-0.269
		l-0.004-0.438l0.021-0.354l0.443-0.423l0.102-0.144l0.117-0.211l-0.104-0.235l-0.266-0.25l0.078-0.304l0.076-0.32l0.301-0.187
		l0.404,0.031l0.312,0.27l0.211,0.154l0.209-0.058l0.262-0.238l0.428-0.144l0.686,0.044l0.627-0.003l0.488-0.014l0.695-0.152
		l0.355-0.236l0.074-0.04l0.053-0.039l0.176-0.201l0.037-0.051l0.285-0.257l0.645-0.535l0.363-0.456l0.273-0.253l0.449-0.257
		l0.305,0.066l0.287,0.149l0.287,0.167l0.541,0.217l0.244,0.01l0.07-0.05l0.18-0.153l0.174-0.501l0.211-0.137l0.303,0.032
		l0.262-0.052l0.271-0.508l0.068-0.231l0.174-0.269l0.258-0.14l0.365,0.053l0.246,0.368l0.203,0.217l0.305,0.134l0.691,0.299
		l0.201,0.016l0.342-0.166l0.324-0.258L241,54.319l0.059-0.286l0.078-0.623l0.035-0.389l0.1-0.168l0.199-0.404l0.211-0.566
		l0.105-0.512l0.1-0.147l0.201-0.193l0.361-0.353l0.223-0.27l0.123-0.49l0.037-0.304l0.219-0.649l0.283-0.575l0.037-0.244
		l0.076-0.227l0.162-0.379l0.059-0.32l0.023-0.236l-0.082-0.227l-0.02-0.084l-0.002-0.311l0.043-0.252l0.092-0.096l0.189-0.18
		l0.084-0.005l0.527,0.081l1.346,0.196l0.465-0.018l0.365-0.137l0.223-0.168l0.318-0.209l0.014-0.049l-0.006-0.048l-0.08-0.192
		l-0.141-0.118l-0.025-0.121l-0.096-0.046l-0.898-0.234l-0.305-0.101l-0.916-0.484l-0.445-0.101l-0.346-0.271l-0.064-0.021
		l-0.404-0.218L243.46,43.5l-0.236-0.42l-0.182-0.509l-0.342-0.289l-0.303,0.035l-0.287,0.121l-0.301,0.176l-0.402,0.381
		l-0.361,0.242l-0.34,0.232l-0.203,0.119l-0.236,0.079l-0.051,0.074l-0.594,0.162l-0.377-0.037l-0.543-0.308l-0.213-0.29
		l-0.168-0.406l0.162-0.679l0.025-0.174l-0.361-0.594l-0.08-0.068l-0.451-0.215l-0.283-0.183l-0.258-0.066l-0.635-0.076
		l-0.422-0.113l-0.182-0.077l-0.07-0.168l-0.107-0.066l-0.062-0.033l-0.02-0.047l-0.52-0.345l-0.066-0.056l-0.086-0.056
		l-0.572-0.245l-0.061-0.021l-0.398-0.087l-0.102-0.03l-0.182-0.037l-0.215,0.054l-0.402,0.053l-0.289-0.049l-0.182-0.033
		l-0.203-0.082l-0.422-0.307l-0.107-0.065l-0.34-0.271l0.129-0.16l0.162-0.156l0.186-0.156l0.076-0.098l0.125-0.079l0.055-0.05
		l0.033-0.109l0.078-0.16l0.025-0.086l-0.006-0.059l-0.037-0.298l-0.064-0.08l-0.289-0.189l-0.076-0.02l-0.986-0.224l-0.432-0.251
		l-0.062-0.032l-0.064-0.032l-0.242-0.203l-0.049-0.045l-0.006-0.06l-0.064-0.248l-0.008-0.071l-0.021-0.083l-0.105-0.457
		l-0.15-0.119l-0.652-0.151l-0.334-0.114l-0.584-0.152l-0.121-0.028l-0.102-0.02l-0.061-0.009l-0.311-0.067l-0.092-0.054
		l-0.086-0.042l-0.047-0.035l-0.592-0.101l-0.104-0.019l-0.104-0.03l-0.445,0.001l-0.123-0.017l-0.074,0.003l-0.75,0.079
		l-0.059,0.002l-0.102,0.006l-0.346,0.13l-0.512,0.333l-0.299,0.302l-0.324,0.504l-0.268,0.291l-0.129,0.053l-0.33-0.066
		l-0.418-0.179l-0.061-0.009l-0.156-0.147l-0.021-0.059l-0.068-0.297l0.01-0.049l-0.076-0.368l0.039-0.698l0.021-0.455l-0.078-0.38
		l-0.021-0.059l-0.066-0.056l-0.004-0.048l-0.236-0.262l-0.094-0.091l-0.131-0.15l-0.078-0.092l-0.168-0.084l-0.061-0.033
		l-0.064-0.032l-0.34-0.042l-0.348-0.028l-0.146-0.016l-0.086,0.005l-0.586-0.053l-0.078-0.02l-0.104-0.018l-0.348,0.04
		l-0.211-0.018l-0.34-0.035l-0.283,0.104l-0.428,0.172l-0.541,0.199l-0.209,0.059l-0.184,0.119l-0.137,0.166l-0.115,0.233
		l-0.135,0.409l-0.324,0.273l-0.256,0.139l-0.184,0.021l-0.166-0.076l-0.105-0.196l-0.018-0.059l-0.115-0.87l-0.012-0.107
		l0.025-0.073l-0.027-0.562l0.018-0.146l0.018-0.157l-0.18-0.387l-0.049-0.068l-0.287-0.129l-0.105-0.043l-0.736-0.259l-0.463-0.166
		l-0.074,0.004l-0.061-0.02l-0.645-0.036l-1.074,0.075l-0.098,0.041l-0.102,0.006l-0.441-0.023l-0.084,0.005l-0.098,0.019
		l-0.504-0.117l-0.062-0.044l-0.062-0.03l-0.295-0.096l-0.303-0.135l-0.078-0.019l-0.121-0.017l-0.523-0.094l-0.93-0.278
		l-0.211-0.019l-0.305-0.152l-0.246-0.252l-0.109-0.079l-0.062-0.033l-0.232-0.274l-0.021-0.094l-0.039-0.129l0.01-0.332
		l-0.105-0.277l0.027-0.266l0.127-0.319l0.037-0.074l0.01-0.06l0.184-0.276l0.152-0.225l0.047-0.123l0.021-0.169l-0.025-0.071
		l-0.008-0.071l-0.025-0.359l-0.096-0.154l-0.137-0.204l-0.035-0.094l-0.023-0.071l-0.154-0.279l-0.078-0.068l-0.307-0.186
		l-0.189-0.021l-0.496-0.112l-0.443-0.092l-0.777-0.088l-0.32,0.001l-0.221-0.093l-0.184-0.259l-0.09-0.282l-0.008-0.471
		l0.025-0.544l0.115-0.239l0.197-0.42l0.496-0.366l0.338-0.356l0.064-0.111l0.053-0.375l0.021-0.313l0.002-0.157l0.01-0.408
		l-0.021-0.371l0.01-0.277l0.047-0.613l0.141-1.053l0.061-1.48l0.027-0.421l-0.023-0.059l-0.369-0.219l-0.475-0.067l-0.547-0.052
		l-0.076-0.02l-0.176-0.134l-0.02-0.059l0.025-0.207l-0.131-0.604l-0.107-0.318l-0.432-0.248l-0.555-0.314l-0.072-0.287l0.02-0.311
		l0.139-0.117l0.35-0.249l0.293-0.185l0.213-0.233l0.148-0.293l0.008-0.239l-0.029-0.311l-0.092-0.328l-0.145-0.174l-0.367-0.223
		l-0.414-0.148l-0.305-0.036l-0.355-0.054l-0.164-0.057l-0.402-0.169l-0.52-0.558l-1.059-1.342l-0.049-0.069l-0.342-0.421
		l0.104-0.408l0.336-0.215l0.438-0.247l0.385-0.493l0.201-0.337l-0.346-1.108l-0.689-0.818l-0.33-0.098l-1.205,0.215l-1.199,0.223
		l-0.693-0.439l-0.145-0.328l-0.014-2.033l-0.117-1.393l-0.117-0.263l-0.318-0.485l-0.77-0.78l-0.518-0.348l-0.525-0.633
		l-0.133-0.454l-0.014-0.522l0.105-0.843l0.086-0.378l0.053-0.969l0.121-1.366l-0.156-1.859l-0.236-0.498l-0.006-0.048l-0.006-0.234
		l0.037-0.037l0.141-0.088l0.236-0.087l0.287-0.139l0.314-0.209l0.359-0.163l0.355-0.236l0.223-0.375l0.18-0.362l0.227-0.194
		l0.047-0.039l0.566-0.431l0.238-0.292l0.154-0.208l0.131-0.048l0.217-0.148l0.314-0.21l0.377-0.09l0.275-0.186l0.213-0.172
		l0.094-0.278l0.029-0.276l0.004-0.371l0.08-0.3l0.148-0.326l0.225-0.328l0.312-0.27l0.34-0.401l0.283-0.329l0.227-0.126
		l-0.225-0.027l-0.098-0.012l-0.129-0.017l-0.189-0.027l-0.443-0.012l-0.381,0.005l-0.258-0.002l-0.336-0.036l-0.396,0.043
		l-0.447,0.043l-0.707,0.163l-0.211,0.073L196-15.325l-0.531-0.005l-0.076-0.007l-0.221-0.006l-0.137,0.193l-0.113,0.37
		l-0.113,0.312l-0.303,0.352l-0.334-0.093l-0.264-0.247l-0.24-0.226l-0.064-0.069l-0.354-0.496l-0.064-0.067l-0.02-0.048
		l-0.398,0.027l-0.227,0.101l-0.232,0.068l-0.584,0.002l-0.416-0.02l-0.275,0.217l-0.215,0.211l-0.361,0.063h-0.348l-0.498-0.206
		l-0.408-0.268l-0.393-0.258l-0.287-0.063l-0.184,0.143l0.061,0.854l-0.189,0.513l-0.406,0.026l-0.441-0.195l-0.303-0.227
		l-0.326-0.284l-0.582-0.678l-0.271-0.236l-0.359-0.027l-0.365,0.441l-0.566-0.456l-0.443-0.212l-0.049-0.043l-0.34-0.316
		l-0.43-0.383l-0.268-0.207l-0.443,0.268l-0.15,0.383l-0.129,0.677l-0.287,0.091l-0.445-0.062l-0.613-0.045l-0.633-0.155
		l-0.379-0.043l-0.217,0.215l-0.205,0.133l-0.496,0.356l-0.287,0.416l-0.08,0.366l0.145,0.37l-0.162,0.125l-0.242,0.07l-0.896,0.023
		l-0.414,0.05l-0.277,0.145l-0.166,0.272L176.652-13.116"/>
</g>
<g id="Layer_1_1_">
</g>
</svg>
