<?xml version="1.0" encoding="utf-8"?>
<!-- Generator: Adobe Illustrator 16.0.4, SVG Export Plug-In . SVG Version: 6.00 Build 0)  -->
<!DOCTYPE svg PUBLIC "-//W3C//DTD SVG 1.1//EN" "http://www.w3.org/Graphics/SVG/1.1/DTD/svg11.dtd">
<svg version="1.1" id="Layer_1" xmlns="http://www.w3.org/2000/svg" xmlns:xlink="http://www.w3.org/1999/xlink" x="0px" y="0px"
	 width="301.074px" height="280.271px" viewBox="-105.631 -98.279 301.074 280.271"
	 style="enable-background:new -105.631 -98.279 301.074 280.271;" xml:space="preserve">
<g id="Layer_12">
	<path id="Awaran" style="fill:#CCCCCC;stroke:#FFFFFF;stroke-width:1.15;" d="M-56.582,68.229L-56.582,68.229l1.595,0.871
		l2.599,2.396l2.983,3.891l1.2,3.131l1.149,4.037l0.236,1.86l-0.428,2.122l-0.297,0.993l-1.232,2.971l-1.448,1.475l-1.562,0.798
		l-2.135,0.885l-2.562,0.756l-3.747,0.335l-1.324,0.269l-1.478,0.734l-1.306,0.874l-1.576,2.457l-1.293,3.729l-0.823,2.521
		l-0.912,4.624l-0.684,4.018l0.208,1.137l0.363,0.747l0.654,1.935l-0.054,0.756l-0.731,0.55l-0.916,0.028l-1.165,0.038l-0.73,0.475
		l-0.635,0.923l-0.601,1.736l0.01,2.502l0.335,2.675l-0.271,1.682l-0.294,1.05l-1.456,1.114l-1.471,0.781l-1.976,0.604l-1.065,0.476
		l-0.371,1.158l0.064,1.657l0.584,2.24l0.523,0.603l1.146,1.621l0.373,1.121l0.773,0.58l1.177,0.338l2.109,0.748l1.887,1.448
		l1.976,1.583l0.373,1.13l-0.3,0.899l-1.216,0.881l-1.404,0.269l-1.11,0.667l-1.299,0.871l-1.401,0.415l-0.67-0.128l-1.013-0.421
		l-0.746,0.096l-1.293,0.868l-1.41,0.204l-1.19-0.729l-1.634-1.442l-0.834,0.025l-0.475,0.614l-0.214,0.906l-0.645,0.548
		l-1.162,0.045l-1.082,0.041l-0.884,0.706l-3.166,4.162l-1.739,2.246l-0.473,0.696l-0.131,0.152l-0.2,0.855l-0.585,1.497
		l-1.282,1.835l-1.988,2.362l-0.699,0.974l-0.817,1.292l-0.227,0.964l0.004,0.536l0.239,0.855l1.892,0.626l2.714,0.076l4.834,0.076
		l5.065-0.235l1.292,0.102l3.999,0.239l1.532,0.315l1.417,0.849l2.129,1.277l3.069,1.155l2.478,0.747l1.886,0.204l1.532-0.217
		l1.644-0.869l2.824-1.292l2.112-1.714l1.998-1.178l2.353-1.4l1.296-0.858l1.646-0.751l3.654-0.867l3.769-0.543l7.19-0.884
		l3.891-0.335l4.241-0.543l6.954-0.97l6.249-1.293l7.068-1.012l4.484-0.431l2.595-0.214h1.886l2.005-0.099l2.358-0.629l3.067-0.428
		l3.185-0.211l3.539-0.204l3.894-0.522l5.547-1.061l5.311-1.28l8.03-2.007l4.251-1.28l1.062,0.007l1.06,0.751l1.41,1.499
		l1.641,2.892l0.201,0.9l0.845-0.604l1.752-0.597l0.499-0.469l0.379-0.004l0.626,0.09l0.891,0.568l0.638,0.778l0.629,0.108
		l1.127-0.811l1.099-1.957l0.612-1.031l1.621-1.04l1.005-0.236l0.884-0.009l0.633-0.013l0.367-0.342l-0.135-0.342l-0.265-0.791
		l-0.007-0.469l0.504-0.007l0.381-0.007l1.011,0.453l1.144,0.448l1.652,1.123l0.511,0.562l0.505,0.108l0.628-0.121l0.37-0.342
		l-0.134-0.574l-0.262-0.896l0.233-0.798l1.119-1.042l2.379-1.154l1.008-0.128l0.885,0.204l1.882-0.249l1.756-0.594l2.132-0.597
		l1.992-1.618l1.49-1.282l1.254-0.702l2.764-0.479l2.384-0.605l2.126-1.283l0.874-0.804l0.753-0.014l0.632,0.342l0.263,0.575
		l-0.36,1.375l-0.614,1.378l-0.481,1.593l0.007,0.463l0.639,0.562l0.006,0.568l-0.121,0.476l-0.754,0.01l-1.251,0.338l-0.957,0.888
		l-0.871,0.922l0.007,0.457l0.134,0.567l1.158,1.469l0.763,1.136l0.013,0.906l-0.366,0.575l0.012,0.912l0.262,0.453l1.392,0.897
		l1.396,0.771l0.393,1.261l0.522,1.576l-0.108,1.262l-0.102,1.706l0.137,0.906l0.383,0.454l0.387,0.906l-0.243,0.574l-0.874,0.582
		l-0.488,0.911l-0.112,1.144l-0.476,1.034l-1.371,1.04l-1.622,0.705l-1.755,0.705l-0.243,0.568l0.007,0.575L86.662,176l1.264,0.56
		l1.886,0.203l3.01-0.479l4.251-1.979l4.493-2.662l2.493-1.506l3.507-1.168l4.133-1.635l3.757-1.167l3.635-0.837l1.51-0.013
		l1.465,0.571l2.652,0.891l3.156,1.331l3.664,1.334l2.518,0.437l1.886-0.12l1.877-0.818l1.628-1.155l1.252-0.229l0.628-0.117
		l1.012,0.341l0.628,0.894l0.764,1.245l0.76,0.341l1.385,0.45l1.254-0.013l1.753-0.587l1.378-0.696l0.504-0.006l0.885,0.341
		l0.756,0.342l1.389,0.792l1.898,1.701l1.517,1.139l1.257,0.447l0.757-0.007l0.878-0.227l1.624-1.273l2.377-2.062l2.241-3.096
		l2.243-3.647l2.05-3.188l3.111-5.145l1.615-3.08l1.486-3.322l2.371-3.881l2.113-4.005l1.238-3.651l1.489-4.005l1.743-3.658
		l1.494-3.428l1.117-3.072l1.13-1.835l0.363-1.708l-0.141-2.85l-0.772-3.07l-0.654-3.881l-0.517-1.946l-0.9-3.301l-0.651-3.536
		l-1.164-5.125l-0.66-4.564l-0.773-2.737l-0.408-3.064l-0.788-3.884l-0.536-4.324l-1.159-3.481l-1.413-2.519l-1.794-3.304
		l-0.645-1.937l-0.274-2.395l-0.013-1.939l0.613-3.654l-0.014-1.94l0.118-1.372l0.374-1.024l0.746-1.021l1.271-1.034l1.519-0.9
		l1.015-0.459l1.267-0.581l0.884-1.028l1.006-1.835l0.494-1.956l-0.016-2.384l0.108-3.081l0.115-2.285l0.249-1.018l0.504-0.576
		l1.268-1.157l0.635-0.455l-3.954-5.058l-0.166-1.598l0.179-0.557l-1.051-0.787L182.817,25l-0.985-1.045l-0.861-1.156l-0.862-0.746
		l-1.43-0.184l-1.646,0.577l-1.168,0.885l-1.647,0.68l-1.154,1.295l-1.974,1.974l-1.486,2.781l-0.543,1.837l-0.201,1.287
		l0.409,1.703l0.619,1.039l0.271,1.169l-0.073,1.392l-0.523,2.476l-1.739,1.553l-1.64,0.771l-0.457,0.655l-0.061,2.136l0.054,1.7
		l-0.069,1.714l0.511,1.273l0.612,0.747l0.019,0.536l-0.072,1.589l0.434,2.561l0.67,2.547l0.498,0.95l0.622,1.047l0.504,1.047
		l0.02,0.642l-0.283,0.642l-0.547-0.622l-3.494-5.787l-4.634-8.122l-3.864-6.003l-4.111-6.102l-3.511-5.355l-3.494-5.263
		l-0.785-2.439l-0.304-2.023l0.408-2.139l0.39-2.91l1.628-5.177l1.302-4.203l1.411-4.533l1.521-5.379l1.096-3.231l2.512-7.98
		l1.244-6.131l1.296-4.527l1.002-6.66l1.567-6.876l0.817-4.725l0.883-6.762l0.339-4.71l0.153-2.791l-0.058-2.028l-0.684-2.653
		l-0.379-0.749l-0.84,0.02l-0.817,0.663l-1.512,1.642l-1.373,2.173l-1.852,2.187l-1.771,0.793l-3.103,0.504l-3.829,0.088
		l-3.131-0.575l-2.473-2.385l-1.756-2.419l-1.449-4.248l-1.024-3.913l-0.68-2.552l-1.554-3.37l-2.521-3.892l-2.741-3.04
		l-3.962-3.755l-1.586-0.708L120-86.484l-3.894-1.503l-5.229-1.791l-6.197-1.975l-5.346-1.298l-0.201,0.34l-0.562,1.02l0.02,1.406
		l-0.159,2.684l-0.159,2.729l-0.358,1.706l-0.919,2.904l-1.484,3.084l-1.682,2.909l-1.871,2.929l-2.062,2.565l-1.69,2.245
		l-1.5,2.062L84.47-60.53l-1.867,2.579l-3.352,5.313l-3.181,4.463l-2.247,2.924l-2.23,2.95l-2.88,3.684l-1.738,2.986l-0.999,1.494
		L65.5-32.19l-0.09,2.52l-0.331,3.318l-0.342,2.855l-0.256,1.37l-0.211,1.147l-1.226,3.451l-2.47,4.934L59.35-9.613l-1.151,1.564
		l-2.254,2.093l-3.134,2.781l-3.246,3.68l-3.373,3.692L43.32,7.204l-2.876,2.788l-4.254,3.935l-5.001,4.288l-4.883,3.948L20,27.252
		l-5.761,4.076l-3.619,3.026L8.255,36.78l-0.986,1.496l0.029,1.475l0.424,2.271l1.822,2.483L9.7,46.092l-0.22,1.711l-0.737,1.025
		l-0.999,0.698l-2.399,0.495l-3.546,0.061l-4.825-0.479l-3.926-0.062l-4.934,0.318l-5.438,0.44l-7.943-0.523l-11.033-0.6
		l-6.463-0.221l-3.676-0.048l-6.709,0.242l-3.325,0.684l-2.174,1.836l-1.264,2.616l0.124,4.984l1.2,3.964L-56.582,68.229"/>
</g>
<g id="Layer_1_1_">
</g>
</svg>
