<?xml version="1.0" encoding="utf-8"?>
<!-- Generator: Adobe Illustrator 16.0.4, SVG Export Plug-In . SVG Version: 6.00 Build 0)  -->
<!DOCTYPE svg PUBLIC "-//W3C//DTD SVG 1.1//EN" "http://www.w3.org/Graphics/SVG/1.1/DTD/svg11.dtd">
<svg version="1.1" id="Layer_1" xmlns="http://www.w3.org/2000/svg" xmlns:xlink="http://www.w3.org/1999/xlink" x="0px" y="0px"
	 width="301.184px" height="475.382px" viewBox="-137.506 -217.336 301.184 475.382"
	 style="enable-background:new -137.506 -217.336 301.184 475.382;" xml:space="preserve">
<g id="Layer_87">
	<path id="Mirpur_Khas" style="fill:#CCCCCC;stroke:#FFFFFF;stroke-width:1.15;" d="M9.96-114.241L9.96-114.241l-0.159-0.244
		l-0.941-3.145l-1.541-3.956l0.193-0.34l0.549-2.114l0.034-1.201l-0.209-1.916l-0.686-3.621l-1.728-4.414l-1.162-4.109l-0.232-1.173
		l0.363-1.275l1.218-1.695l1.133-1.297l0.108-0.595l-0.176-1.042l-0.884-2.193l-0.68-0.884l-2.08-2.851l-1.428-1.802l-1.196-1.785
		l-1.162-0.896l-1.74-0.742l-1.938-0.788l-1.649-0.918l-0.72-0.618l-0.924-1.207l-1.966-3.361l-1.241-2.476l0.221-0.708l0.244-0.368
		l0.408-0.408l1.683-1.207l1.241-1.162l0.93-1.054l0.51-0.952l0.022-0.72l-0.312-0.589l-0.708-1.349l-1.428-1.507l-1.96-1.694
		l-2.482-2.045l-2.822-1.542l-1.303-0.544l-1.377-0.107l-2.731-0.091l-1.178-0.351l-1.626-0.72l-1.36-1.354l-1.274-0.986
		l-2.091-1.672l-2.516-0.94l-1.541-0.408l-1.956-0.833l-2.142-0.487l-3.519-0.442l-2.284-0.13l-1.462-0.278l-0.771-0.566
		l-1.695-1.774l-0.277-0.748l-0.567-0.459l-0.374-0.017l-0.312,0.25l-0.334,0.323l-0.198,1.321l-0.34,0.815l-0.51,0.499
		l-0.402,0.266l-0.663-0.011l-0.896-0.464l-1.762-1.208l-3.145-2.357l-2.59-1.683l-2.238-1.637l-1.054-0.278l-0.618,0.073
		l-0.232,0.244L-63-198.45l-0.329,0.731l0.074,1.405l0.125,1.412l0.142,1.116l0.057,0.884l-0.011,0.521l-0.244,0.442l-0.323,0.221
		l-0.583,0.181l-2.04-0.057l-2.947,0.176l-2.697,0.17l-1.564,0.165l-0.731,0.244l-0.419,0.442l-0.187,0.952l-0.113,1.253
		l0.125,1.569l-0.125,1.842l-0.267,0.952l-0.3,0.521l-0.697,0.244l-0.719-0.091l-1.672-0.244l-1.207-0.72l-2.414-1.706l-5.933-4.642
		l-5.497-4.17l-5.701-4.545l-3.621-2.879l-5.236-3.944l-1.218-1.06l-1.054-0.907l-1.638-0.611l-1.065-0.222l-0.975-0.022
		l-0.595,0.289l-0.334,0.578l-0.011,0.884l-0.034,1.485l0.221,1.558l0.289,1.264l0.221,1.286v0.289l-0.244,0.232h-0.329
		l-1.264-0.346l-1.774-0.408l-2.057-0.113l-1.672,0.113l-2.913,0.198l-2.669,0.243l-1.507,0.42l-1.287,0.312l-0.906,0.499
		l-0.601,0.595l-0.42,0.986l-0.022,0.913l0.114,2.3l0.277,1.683l0.244,1.185l0.232,1.252l-0.034,0.776l-0.125,1.252l-0.198,1.218
		l-0.221,0.884l0.187,0.816l0.38,1.241l1.496,2.658l1.978,3.281l1.576,3.168l2.448,4.771l0.873,1.337l0.765,0.975l0.72,1.864
		l1.065,2.998l0.907,3.423l0.329,2.89l-0.028,1.218l-0.244,1.173l-0.742,1.394l-0.209,0.811l-0.255,1.683l-0.255,1.122l-0.425,0.663
		l-0.595,1.105l-0.442,1.394l-0.21,1.111l-0.765,2.17l-0.442,1.473l-0.034,1.995l-0.034,1.196l-0.278,1.083l-0.487,1.009
		l-0.544,1.938l-0.244,1.717l-0.374,2.215l-0.453,2.425l-0.068,2.952l-0.454,1.774l-0.198,1.287l0.051,1.207l-0.13,1.116
		l-0.606,1.309l-0.623,2.148l-0.278,1.762l-0.255,2.069l-0.385,3.179l-0.29,2.068l0.267,2.618l0.396,4.125l0.255,0.963l0.369,2.363
		l0.85,2.182l1.451,4.595l1.864,3.74l1.944,4.477l0.68,2.533l0.941,2.12l1.96,3.53l1.756,2.833l2.295,2.567l2.669,2.562l2.182,1.96
		l1.032,1.207l1.326,2.034l1.417,1.576l1.62,2.238l1.315,2.544l1.496,2.691l2.182,3.599l1.207,2.136l1.773,3.678l1.026,2.459
		l1.099,3.1l0.861,4.018l0.312,3.559l0.187,3.507l-0.153,6.013l0.096,3.468l0.232,2.3l0.414,2.805l0.498,3.621l0.097,3.333
		l0.079,3.479l-0.022,1.207l0.611,1.848l0.941,1.309l0.153,0.396l0.13,0.266l-0.232,0.731l-0.119,5.304l-0.023,0.85l0.057,6.042
		l0.488,3.796l0.719,4.216l0.363,6.137l0.414,8.92l0.165,5.689l0.51,5.418l0.243,2.176l0.72,9.68l0.686,7.457l-0.244,5.191
		l0.465,6.119l1.105,5.463l1.74,4.33l1.762,2.459l2.748,2.766l3.984,2.822l4.085,2.664l3.457,2.525l2.228,1.43l2.034,0.725
		l2.658,1.699l3.944,1.859l4.108,1.35l4.539,0.805l4.154,1.553l4.828,2.141l3.621,2.449l2.17,2.947l0.51,3.219l0.323,3.377
		l-0.068,1.416l0.986,1.711l1.694,1.859l4.086,2.766l1.349,0.873l3.337,1.926l3.621,1.689l3.587,2.301l2.103,1.949l0.833,2.074
		l0.686,2.176l-0.187,1.416l-0.499,1.555l-0.975,1.609l-0.624,1.086l0.09,1.293l0.663,1.133l4.353,0.727l2.657,1.291l4.488,2.357
		l1.802,1.883l1.626,2.062l1.694,2.99l1.644,3.787l1.014,2.289l0.89,1.699l1.661,1.383l1.694,0.488l1.961,0.057l2.755-0.273
		l3.06-0.85l3.116-1.008l7.231-2.154l4.42-0.588l4.782,0.135l6.461,0.453l4.193,0.658l4.896-0.047l2.698-0.203l2.663-0.725
		l2.596-1.633l1.201-0.748l0.725-1.812l0.896-0.512l0.872,0.24l0.25,1.348l-0.454,1.961l-0.271,3.943l0.011,2.676l0.976,1.156
		l1.303,1.711l1.79,1.801l1.894,1.385l1.79,1.473l1.304,1.732l1.667,2.902l0.646,2.619v3.195l0.261,2.176l1.021,1.383l1.688,2.143
		l2.074,2.232l0.736,1.564l0.022,1.699l-0.022,0.783l-0.159,0.713l-0.532,0.771l-0.42,1.156l-0.249,1.859l0.022,2.65l-0.249,1.531
		l-0.532,1.189l-0.623,0.861l-0.715,0.51l-0.329,0.975l0.25,0.885l0.249,0.645l-0.022,0.896l-0.431,0.623l-0.589,0.43l-0.907,0.5
		l-0.59,0.432l-0.668,1.133l-0.624,0.725l-0.884,0.295l-1.258,0.713l-0.42,0.738l-0.022,0.68l0.182,0.725l-0.046,1.088l-0.294,0.771
		l-0.396,0.611l-1.032,0.953l-0.725,0.725l-0.521,0.727l-0.238,0.668l0.216,0.76l0.453,1.562l1.609,1.814l2.176,1.711l1.927,0.941
		l1.769,0.566l1.382,0.158l0.976,0.727l0.362,1.223l0.215,2.086l0.352,1.904v0.182l14.314-3.424l2.188-0.93l1.995-2.471l3.094-1.449
		l3.615-2.312l2.834-1.066l1.654-0.906l1.201-1.031l0.976-1.428l0.668-0.783l1.281-1.541l0.838-1.428l1.247-1.518l1.292-1.656
		l0.646-0.633l1.11-0.523h0.578l1.712-0.045l0.895,0.613l0.691,0.271l1.031,0.498l0.998,0.182l1.201-0.227l1.677-0.725l1.7-2.041
		l1.746-0.635l1.212-0.023l3.615,0.16l2.664,0.066l2.969-0.725l1.666-1.428l2.222-2.447l3.627-3.48l1.927-2.572l1.927-1.779
		l2.176-1.576l-0.362-0.928l-0.601-0.816l-0.715-1.111l-0.974-0.805l-0.612-0.941l-0.363-0.77l-0.192-1.123l0.261-3.061l0.238-3.898
		l0.261-4.996l0.431-3.186l0.271-2.346l0.068-3.221l-0.079-2.48l-0.261-1.598l-0.396-0.748l-0.454-0.387l-1.167-0.521l-0.861-0.725
		l-0.477-1.201l-0.136-1.701l-0.204-2.719l-0.271-3.922l-0.727-3.287l-0.702-1.904l-0.974-1.688l-1.213-1.236l-1.576-1.518
		l-2.516-1.406l-1.156-0.736l-0.884-1.021l-1.225-1.926l-2.04-2.641l-1.994-2.221l-1.7-2.062l-2.131-2.189l-1.338-1.211
		l-0.714-0.908l-2.368-3.059l-1.429-2.154l-1.903-2.369l-1.02-1.303l-1.666-1.406l-1.168-1.246l-0.884-0.76l-0.239-0.713
		l-0.215-0.783l-0.045-1.166l-0.023-1.236l-0.067-0.758l-0.578-1.066l-0.555-1.248l-0.408-1.779l0.227-1.732l0.793-2.336
		l0.612-1.801l2.29-4.115l0.997-2.357l0.249-1.041l-0.113-1.949l-0.136-1.996l-0.453-2.879l-0.749-2.107l-0.929-2.391l-1.406-2.732
		l-0.725-1.178l-0.249-0.42l-0.624-0.715l-1.099-1.746l-1.655-1.291l-1.474-1.473l-0.747-1.701l0.725-1.518l0.249-1.498
		l-0.714-1.699l-1.733-1.961l-0.521-1.393l-1.949-4.58l-0.976-2.855l-0.815-2.641l-0.091-2.891l-0.544-5.236l-0.363-4.102
		l-0.702-3.221l-1.904-3.875l-0.985-3.049l-0.851-2.662l-0.045-1.475l0.249-2.652l0.566-3.15l0.08-3.355l-0.352-4.867l-0.578-2.521
		l-0.714-5.672l-0.918-8.557l-0.193-0.867L99.264,7.63l-1.247-0.821l-3.082-2.046l-5.951-4.188l-3.015-2.301l-1.927-1.706
		l-2.617-2.901l-1.7-1.695l-0.442-1.031l0.147-1.859l-0.238-1.751l-0.601-0.833l-1.326-0.719l-1.009-0.861l-0.328-0.72l-0.022-0.697
		l0.419-2.085l0.34-2.476l-0.045-1.111l-0.329-0.697l-0.601-0.499h-0.567l-1.449,0.391l-1.564,0.34l-0.794,0.011l-0.714-0.419
		l-1.508-1.287l-1.313-1.36l-0.25-0.266l-0.317,0.011l-0.272,0.277l-0.192,0.244l-0.975,0.397l-0.59-0.165l-0.577-0.068
		l-0.408,0.012l-0.703,0.81l-0.589,0.907l-0.453,0.278l-0.602,0.119l-1.167-0.255l-1.972-0.464l-1.383-0.142l-0.997-0.045
		l-0.307-0.244l-0.022-0.232l0.374-0.907l2.04-3.213l0.839-1.332l0.68-1.127l0.182-0.72l-0.022-0.629l-1.134-1.621l-1.031-1.28
		l-1.733-1.621l-2.098-1.207l-0.782-0.153l-1.292,0.244l-1.303-0.034l-1.383-0.221l-1.213-0.221l-1.065-0.21l-0.431-0.232
		l0.521-0.244l1.042-0.431l0.557-0.243l0.396-0.3l0.249-0.312l-0.057-0.816l-0.283-0.635l-1.111-0.907l-1.382-0.476l-1.213-0.057
		l-1.474-0.244l-2.074-0.719l-2.663-1.553l-2.517-1.406l-1.882-1.173l-2.969-1.893l-1.904-1.53l-0.964-1.116l-0.929-1.207
		l-1.225-1.405l-1.757-1.683l-1.982-1.661l-3.196-2.317l-2.249-1.882l-0.29-0.175l-1.161-0.731l-1.207-1.207l-0.244-0.867
		l-0.176-1.451l-0.057-0.815l0.408-1.553l0.17-1.031l0.243-2.868l-0.113-2.114l-0.243-2.658l-0.289-3.632l-0.243-4.375l-0.362-3.145
		l-0.176-1.751l-0.459-1.014l-0.465-0.714l-0.362-0.283L10.912-93.8l-1.898-0.051L8.51-94.061l-0.357-0.238l-0.164-0.306
		l-0.011-0.199l0.209-0.232L8.51-95.58l0.25-0.578l0.289-0.754l0.113-2.068l0.188-1.74l-0.267-5.083l0.022-3.667l-0.068-2.703
		l0.267-1.28L9.96-114.241"/>
</g>
<g id="Layer_1_1_">
</g>
</svg>
