<?xml version="1.0" encoding="utf-8"?>
<!-- Generator: Adobe Illustrator 16.0.4, SVG Export Plug-In . SVG Version: 6.00 Build 0)  -->
<!DOCTYPE svg PUBLIC "-//W3C//DTD SVG 1.1//EN" "http://www.w3.org/Graphics/SVG/1.1/DTD/svg11.dtd">
<svg version="1.1" id="Layer_1" xmlns="http://www.w3.org/2000/svg" xmlns:xlink="http://www.w3.org/1999/xlink" x="0px" y="0px"
	 width="301.23px" height="197.365px" viewBox="-126.081 -82.43 301.23 197.365"
	 style="enable-background:new -126.081 -82.43 301.23 197.365;" xml:space="preserve">
<g id="Layer_97">
	<path id="Neelum" style="fill:#CCCCCC;stroke:#FFFFFF;stroke-width:1.15;" d="M168.665,17.462L168.665,17.462l-1.03-0.387
		l-0.509-0.271l-1.029-0.392l-1.006-0.44l-0.681-0.503l-0.793-0.689l-0.787-0.837l-0.614-0.914l-0.427-0.751l-0.474-0.861
		l-0.272-0.752l-0.656-0.583l-0.373-0.719l-0.414-1.056l-0.308-1.222l-0.443-1.056l-0.054-0.811l-0.012-0.965l-0.036-0.938
		l-0.201-0.861l-0.235-0.831l-0.657-0.775l-0.657-0.503l-0.894-0.497l-0.758-0.388l-0.633-0.636l-0.609-0.805l-0.657-0.692
		l-0.757-0.465L151.93-3.57l-0.94-0.423l-0.733-0.376l0.598-1.086v-0.636l-0.036-0.66l-0.473-0.861l-0.415-0.606l-0.426-0.598
		l-0.663-0.074l-0.663,0.086l-0.929,0.867l-0.692,0.243l-0.84-0.085l-0.515-0.189l-0.444-0.458l-0.793-2.121l-0.283-0.284
		l0.283-0.172l0.414-0.745l-0.443-0.267l-0.811-0.077l-0.93,0.109l-1.141,0.337l-0.622-0.266l-0.822-0.562l-0.396-0.462
		l-0.692-0.357l-0.261-0.376l-0.337-0.77l-0.16-0.884l-0.26-1.086l-0.509-0.896l-0.55-0.423l-0.646-0.116l-0.082-1l-0.249-0.568
		l-0.277-0.77l-0.556,0.21l-0.711,0.479l-0.562,0.497l-0.852,0.388l-1.019-0.012l-1.118-0.133l-0.94-0.284l-0.598-0.231
		l-0.545-0.461l-0.521-0.417l-0.438-0.272l-0.882-0.213l-0.758-0.441l-0.544-0.219l-1.142-0.42l-0.752-0.272l-0.965-0.417
		l-0.857-0.243l-0.852-0.322l-0.816-0.198h-0.823l-1.391,0.683l-0.982,0.657l-1.207,0.775l-0.692,0.453l-0.917,0.612l-1.32,0.77
		l-0.532-0.26l-0.994-0.284l-0.496-0.423l-0.054-0.594l0.308-0.897l0.651-0.92l0.379-0.813l0.142-0.826l0.047-0.591l-0.355-0.456
		l-0.52-0.225l-0.509-0.095l-0.77-0.05l0.373-0.296l0.763-0.56l0.628-0.603v-0.716l0.023-0.873l0.378-0.589l0.392-0.526l0.295-0.382
		l-0.509-0.346l-0.882-0.284l-0.882-0.896l-0.745-0.909v-0.793l0.485-0.612l0.338-0.213l0.42-0.267l-0.119-0.521l-0.212-0.406
		l-0.373-0.577l-0.042-0.671l0.723-0.68l0.769-0.557l0.544-0.805l0.065-0.832l-0.302-1.018l-0.131-0.811l0.208-0.523l0.491-0.291
		l0.627-0.313l0.604-0.201l0.379-0.375l0.384-0.382l0.67-1.332l-0.9-0.722l-0.514-0.896l-0.373-0.734l-0.225-0.964l-0.013-0.515
		l-0.201-0.446l-0.521-0.148l-0.474,0.015l-0.681,0.198l-0.621,0.328l-0.461,0.412l-0.344,0.698l-1.083,0.065l-0.94-0.207
		l-0.823-0.758l-0.633-0.423l-0.45-0.301l-0.887-0.48l-0.822-0.559l-0.444-0.459l-0.059-0.559l-0.355-0.615l-0.604-0.379
		l-0.734-0.556l-0.668-0.63l-0.042-0.722l0.154-0.979l0.225-1.139l0.331-0.94l0.433-0.503l0.574-0.405l0.609-0.329l0.053-0.515
		l-0.083-1l-0.13-0.914l-0.598-0.545l-0.574-0.781l-0.78-0.515l-1.077-0.728l-1.492-0.515l-0.945-0.808l-1.101-0.967l-0.628-0.905
		l-0.207-0.882l0.065-0.875l0.455-0.926l-0.745-0.358l-0.704-0.313l-0.722-0.63l-0.877-0.559l-0.851-0.482l-0.681-0.27l-0.201-0.054
		l-0.208,0.261h-0.687l-0.567-0.231l-0.775-0.521l-1.023-0.261l-0.876-0.139h-0.899l-1.373,0.381l-1.515,0.133l-0.633-0.908
		l-1.03-1.127l-0.745-1.074l-0.544-1.095l-0.485-1.127l-0.373-0.849l-0.438,0.151l-0.49-0.116h-0.42h-0.841l-0.774,0.346
		l-0.882,1.388l-0.344,0.716l-0.733,1.568l-0.19,0.559l-0.188,0.855l-0.178,0.894l-1.136,0.894l-1.255,0.47l-1.604,0.734
		l-1.035,0.583l-1.137,0.485l-0.308,1l-1.289,0.914l-0.485,0.613l-1.503,1.042l-1.024,1.816l-1.521,1.861l-1.243,1.589l-0.153,0.361
		l-2.147,0.536l-2.255-0.039l-1.77-0.435l-3.225-0.503l-1.645,0.163l-2.604-0.879l-1.858-0.568l-2-0.139l-1.291-0.092l-1.171,0.74
		l-1.142,1.077l-0.634,0.565l-0.769,1.394l-0.485,1.059l-0.58,0.547l-0.621,0.453l-1.51,0.672l-0.981,0.254l-1.035,0.213
		l-1.456,0.115l-1.615-0.115l-0.977,0.284l-1.615-1.568l-0.436-0.722l-1-0.92l0.249-0.571l-0.083-0.627l0.364-0.976l0.203-1.047
		l-0.041-0.778l-0.178-0.787l-0.446,0.195l-0.932,0.683l-1.026,0.316l-1.204-0.026L22.03-61.55l-0.77-0.174l0.018-0.861
		l-0.053-1.115l0.035-1.11l0.127-0.955v-0.687l-0.012-0.364l-0.606-0.243l-0.677-0.169l-1.006-0.55l-0.226-0.375l-0.305,0.417v0.642
		l-0.272,0.701l-0.538,0.264l-0.825-0.08l-0.882-0.08l-1.322,0.151l-0.799,0.213l-1.057,0.127l-0.752,0.213L11.53-65.47l-0.45,0.302
		l-0.914,0.098l-0.891-0.08L8.39-65.083l-1.139-0.311L6.979-65.87l-0.547-0.491l-0.816-0.411l-0.654-0.426L4.1-67.488l-0.733-0.11
		l-0.86-0.145l0.139-1.098l-0.308-0.666l-0.213-0.692l-0.811-0.544l-0.56-0.059l-0.932-0.027l-0.74-0.029l-1.452,0.334l-0.924,0.169
		l-1.127,0.388l-1.101,0.115l-0.769,0.226l-0.202,0.387l-0.763,0.225l-0.885,0.776l-0.357,0.671l-0.418,0.364l-0.456,0.722
		l-0.236,0.394l-0.133,0.334l-0.267,0.222l-0.382,0.062l-0.55,0.059l-0.267,0.503l-0.109,0.589l-0.207,0.502v0.695l-0.236,0.396
		l-0.187,0.272l-0.311,0.337l0.121,0.391v0.387l0.038,0.278l-0.346,0.394l-0.423,0.387l-0.376,0.557l-0.305,0.334l-0.267,0.417
		l-0.156,0.334l-0.045,0.278l0.275,0.387l0.337,0.226l0.353,0.115l-0.122,0.225l-0.352,0.278l-0.222,0.133l-0.281,0.34l-0.121,0.332
		v0.278v0.329l0.509-0.023h0.491h0.375l0.267,0.417l0.127,0.364l0.104,0.225l0.237,0.278l0.267,0.225l0.127,0.417l0.127,0.364
		l0.236,0.163h0.341l0.728,0.166l0.615,0.225l0.734,0.246l0.577,0.139l0.728-0.112l0.63,0.112l0.376,0.142l0.313,0.278l0.127,0.332
		l0.042,0.254l0.194,0.225l0.424,0.201l0.15,0.278v0.417l-0.035,0.311l0.127,0.364l0.237,0.272l0.26,0.364l0.311,0.308l0.267,0.225
		l-0.051,0.278l-0.423,0.34l-0.34,0.225l-0.302,0.192L-5.45-47.31l-0.192,0.162l-0.341,0.169l-0.266,0.171l-0.201,0.225L-6.71-46.42
		l-0.349,0.169l-0.201,0.162l-0.146,0.281l-0.073,0.222l-0.083,0.334l-0.382,0.157l-0.391,0.172l-0.388,0.222l-0.532,0.11h-0.539
		l-0.884-0.083l-0.607,0.089l-0.435,0.026h-0.426l-0.459,0.139l-0.388,0.192l-0.305,0.139l-0.198,0.023l-0.42-0.109l-0.344-0.198
		l-0.473-0.023l-0.631,0.115h-0.461l-0.394,0.053l-0.497,0.115l-0.115,0.456l-0.198,0.502l-0.299,0.447l-0.376,0.278l-0.302,0.281
		l-0.272,0.332l0.157,0.334l0.272,0.447l0.601,0.249l0.376,0.086l0.07,0.334l-0.15,0.332l-0.353,0.891l-0.15,0.281l0.067,0.332
		l0.127,0.163l-0.067,0.34l-0.041,0.334l-0.074,0.331l-0.042,0.334v0.388v0.533v0.275l0.376,0.139l0.37,0.11l0.353,0.03l0.076,0.278
		v0.473l-0.035,0.447l-0.048,0.42l-0.079,0.447l-0.068,0.225l0.346,0.115l0.272,0.109l-0.053,0.58v0.449l0.168,0.441l0.23,0.45
		l0.151,0.388l0.127,0.589l0.109,0.388l0.035,0.503l0.081,0.364l0.15,0.278l0.127,0.225l0.127,0.222l-0.381,0.115l-0.503,0.139
		l-0.713,0.311l-0.631,0.331l-0.461,0.334l-0.631,0.388l-0.308,0.225l-0.375,0.225l-0.264,0.225l-0.198,0.222l-0.189,0.249
		l-0.344,0.085h-0.576l-0.509,0.116l-0.388-0.086l-0.417-0.053h-0.468l-0.388,0.192l-0.376,0.281l-0.352,0.441l-0.128,0.387
		l-0.127,0.334l-0.121,0.346l-0.077,0.361v0.45l-0.068,0.447l-0.121,0.503l-0.08,0.722l0.08,0.449l0.128,0.441l0.029,0.643
		l0.08,0.304l0.266,0.198l0.189,0.281l0.233,0.222l0.128,0.281l0.127,0.222l0.391,0.056l0.157,0.107l0.225,0.115l-0.098,0.257
		l-0.237,0.308l-0.266,0.225l-0.376,0.225l-0.311,0.222l-0.376,0.163l-0.429,0.34l-0.532,0.225l-0.376,0.334l-0.311,0.332
		l-0.127,0.394v0.473l-0.122,0.45l-0.228,0.278l-0.341,0.278v0.334l-0.236,0.116l-0.429,0.053l-0.462,0.056l-0.63-0.085
		l-0.429-0.169l-0.341-0.305l-0.162-0.308l-0.305-0.225l-0.66,0.308l-0.382,0.254l-0.272,0.196l-0.375,0.053l-0.42-0.192
		l-0.847-0.278l-0.305-0.166h-0.095l0.071,0.364v0.225l-0.115,0.334l-0.077,0.308l-0.128,0.201l-0.225,0.222l-0.127,0.166
		l-0.109,0.169l-0.157,0.115l-0.311,0.163l-0.266,0.029l-0.341-0.112l-0.272-0.166l-0.423,0.109l-0.352,0.14l-0.151,0.166
		l-0.346,0.059l-0.187-0.254l-0.376-0.024l-0.341,0.169l-0.236,0.115l-0.394,0.163l-0.417,0.086l-0.426,0.053l-0.376-0.083
		l-0.394-0.139L-38.974-11l-0.369,0.086l-0.468,0.08l-0.376,0.083l-0.151,0.116l0.151,0.42l0.115,0.222l0.036,0.225l-0.036,0.334
		l-0.23,0.225L-40.5-8.988l-0.127,0.225l-0.154,0.225l-0.198,0.115l-0.115,0.332l0.181,0.34l0.127,0.278l0.033,0.281l-0.268,0.168
		l-0.229,0.278l-0.312,0.225l-0.077,0.388v0.278v0.388l-0.032,0.387l-0.083,0.279l-0.127,0.334l-0.127,0.272l-0.195,0.225
		l-0.272,0.225l-0.272,0.163l-0.642,0.172l-0.503,0.023h-0.462l-0.313,0.139l-0.352,0.163l-0.37,0.115h-0.497l-0.468-0.023
		l-0.568-0.109l-0.357,0.109l-0.642,0.023l-0.666-0.023l-0.468,0.053l-0.467,0.305l-0.231,0.337L-49.9-2.043l-0.237,0.272
		l-0.162,0.281l0.035,0.417l0.086,0.308l-0.086,0.391l-0.145,0.278l-0.042,0.254l-0.156,0.254l-0.16,0.225l-0.337,0.168
		l-0.201,0.139l-0.127,0.255v0.364l-0.17,0.417l-0.108,0.225l-0.231,0.225l-0.423,0.133h-0.438l-0.533-0.11l-0.467-0.225h-0.532
		h-0.631h-0.77l-0.18-0.225l-0.231-0.417l-0.375-0.225l-0.498-0.278l-0.236-0.364l-0.34-0.249l-0.631-0.053l-0.429,0.053
		l-0.236,0.254l-0.195,0.254l-0.157,0.166l-0.346,0.198l-0.267,0.133l-0.503,0.062h-0.388l-0.382,0.083l-0.394,0.086l-0.538,0.029
		l-0.37,0.056l-0.467,0.053h-0.533l-0.435-0.053l-0.63,0.169l-0.503,0.225l-0.396,0.11l-0.326,0.278l-0.538,0.302l-0.503,0.201
		l-0.63,0.219l-0.51,0.005h-0.363l-0.438-0.201l-0.423-0.225L-69.5,2.598l-0.533-0.192l-0.669-0.281l-0.191-0.254l-0.237-0.11
		l-0.267,0.311l-0.304,0.168l-0.308,0.166l-0.341,0.139h-0.278h-0.37l-0.109,0.47L-73.19,3.27l-0.376,0.195l-0.426,0.195
		l-0.267,0.447l-0.192,0.34l-0.127,0.331v0.388l-0.201,0.281L-74.93,5.61l-0.127,0.169l-0.127,0.225l-0.086,0.334l-0.127,0.332
		l-0.198,0.311l-0.128,0.115l-0.225,0.109h-0.278h-0.382l-0.316,0.083l-0.388,0.086L-77.7,7.537h-0.311l-0.331-0.192l-0.347-0.249
		h-0.423l-0.375,0.222h-0.311l-0.376-0.361l-0.424-0.218l-0.503-0.057h-0.816l-1.044,0.195l-0.568,0.168l-0.698,0.225l-0.37,0.201
		l-0.464,0.133h-0.571h-0.636l-0.855-0.254l-0.411-0.334l-0.423-0.34l-0.353-0.331h-0.369l-0.577,0.133l-0.308,0.168h-0.462
		l-0.429,0.056l-0.394,0.308l-0.606,0.364l-0.376,0.334l-0.539,0.361l-0.49,0.334l-0.509,0.388L-93.83,9.27l-0.388,0.388
		l-0.34,0.417l-0.545,0.116l-0.538,0.225l-0.382,0.447l-0.376,0.34l-0.23,0.254l-0.468,0.305l-0.162,0.278l-0.201,0.225
		l-0.234,0.222l-0.535-0.083l-0.497-0.115l-0.532-0.024l-0.376,0.053l-0.128,0.527l-0.168,0.364l-0.128,0.278l-0.352,0.219
		l-0.376,0.168l-0.34,0.225l-0.228,0.231l-0.128,0.588l-0.032,0.388l-0.127,0.417v0.388v0.45v0.308l-0.035,0.334v0.17v0.225
		l-0.036,0.168v0.162l-0.166,0.172l-0.411,0.053l-0.503,0.172l-0.267,0.223l-0.429,0.281l-0.305,0.33l-0.375,0.338l-0.187,0.391
		v0.332l-0.122,0.479l-0.103,0.338l-0.202,0.283l-0.156,0.379l-0.198,0.443l-0.184,0.385l-0.041,0.338V23.2v0.33l-0.278,0.668
		l-0.23,0.338l-0.347,0.445l-0.272,0.277l-0.23,0.283l-0.468,0.439l-0.343,0.277l-0.376,0.301l-0.189,0.262l-0.308,0.271
		l-0.159,0.225l-0.394,0.166l-0.411,0.084l-0.504,0.094l-0.544,0.166l-0.278,0.443l-0.382,0.277l-0.352,0.285l-0.376,0.271
		l-0.127,0.225l-0.006,0.285l0.109,0.449l0.035,0.496l-0.035,0.475l-0.16,0.592l-0.308,0.385l-0.305,0.385l-0.464,0.473
		l-0.267,0.449l-0.468,0.225l-0.388,0.119h-0.624l-0.462,0.164l-0.375,0.332l-0.198,0.451l-0.104,0.555l-0.127,0.285v0.248
		l-0.162,0.189l-0.231,0.225l-0.219,0.166l-0.198,0.166l-0.275,0.289l-0.228,0.443l-0.074,0.332l-0.162,0.391l-0.231,0.443
		l-0.079,0.338v0.33v0.393l0.382,0.33l0.304,0.285l0.43,0.271l0.272,0.283l0.611,0.166l0.631,0.107l0.468,0.143l0.532,0.117
		l0.468,0.084l0.567,0.166l0.376,0.117l0.341,0.271l0.308,0.225l0.393,0.166l0.571-0.059l0.308,0.088l0.577,0.137l0.302,0.119
		l0.115,0.225l0.305,0.225l0.465,0.166l0.388,0.166l0.127,0.271l-0.076,0.385l-0.202,0.332l-0.266,0.336l-0.347,0.51l-0.618,0.557
		l-0.84,0.84l-0.202,0.391l-0.337,0.438l-0.391,0.557l-0.343,0.426l-0.267,0.332l-0.394,0.449l-0.379,0.344l-0.372,0.33
		l-0.542,0.379l-0.302,0.172l-0.305,0.225l-0.198,0.137l-0.156,0.225l-0.039,0.271l-0.15,0.391v0.285l-0.192,0.271l-0.352,0.271
		l-0.272,0.35l-0.267,0.332l-0.311,0.391l-0.37,0.443l-0.429,0.338l-0.236,0.271l-0.306,0.225l-0.349,0.219l-0.382,0.451
		l-0.266,0.377l-0.237,0.227v0.164l0.109,0.309l0.198,0.26l0.267,0.332l0.201,0.344l0.198,0.383l0.154,0.475l0.222,0.271
		l0.121,0.385l0.109,0.508l0.121,0.381l0.098,0.26v0.33l-0.15,0.285v0.443l-0.237,0.445l-0.15,0.365l-0.202,0.332l-0.229,0.225
		l-0.231,0.338l-0.308,0.443l-0.127,0.385l-0.189,0.385l-0.198,0.449l-0.236,0.438l-0.151,0.332l-0.316,0.225l-0.151,0.172
		l0.098,0.137l0.128,0.123l0.029,0.113l0.023,0.131l0.038,0.129l0.03,0.189l0.092,0.148l0.106,0.158l0.109,0.373l0.073,0.078
		l0.093,0.082v0.023l0.029,0.07l0.041,0.131l0.092,0.102l0.127,0.1l0.272,0.227l0.104,0.07l0.109,0.131l0.092,0.105l0.21,0.225
		l0.121,0.094l0.086,0.102l0.086,0.148l0.071,0.111l0.115,0.154l0.06,0.107l0.127,0.143l0.127,0.094l0.092,0.088l0.062,0.119
		l0.216,0.152l0.127,0.107l0.128,0.131l0.127,0.125l-0.018,0.111v0.119l-0.071,0.129l-0.115,0.137l-0.012,0.26l0.07,0.125
		l0.128,0.143l0.133,0.143l0.098,0.117l0.08,0.131l0.109,0.225l0.127,0.178l0.15,0.199l0.036,0.131l0.175,0.189l0.015,0.072
		l0.035,0.07l0.341,0.242l0.064,0.084h0.133l0.128-0.238l0.172-0.172l0.089-0.111l0.085-0.1l0.098-0.049l0.364-0.07l0.127-0.072
		l0.169-0.094l0.127-0.088l0.127-0.125l0.128-0.096l0.121-0.117l0.242-0.096l0.134-0.076l0.127-0.059h0.23h0.35h0.311l0.266,0.123
		l0.054,0.059l0.225,0.037h0.23l0.376,0.129h0.175l0.154,0.035l0.156,0.025h0.192l0.127,0.117l0.201,0.072l0.181,0.07l0.115,0.059
		l0.16,0.09l0.157,0.111l0.103,0.107l0.128,0.131l0.139,0.225l0.296,0.166l0.163,0.105l0.127,0.082l0.127,0.078l0.143,0.053
		l0.222,0.07l0.151,0.037l0.153,0.035l0.115,0.082l0.388,0.143l0.313,0.094l0.376,0.072l0.219,0.07l0.146,0.064l0.127,0.102
		l0.109,0.088l0.023,0.125v0.119v0.152l-0.035,0.137l-0.104,0.184v0.248l0.207,0.012l0.127-0.07h0.364h0.366h0.249l0.287,0.094
		h0.267l0.363,0.125l0.243,0.053l0.239,0.012l0.353,0.09l0.127,0.123l0.242,0.125h0.134l0.127-0.029l0.184-0.035l0.133-0.061
		l0.115-0.1l0.127-0.09l0.198-0.023l0.433,0.066l0.302,0.059l0.328,0.1l0.127-0.047l0.303-0.143l0.301-0.082l0.27-0.059l0.302-0.096
		l0.146-0.129l0.363-0.154l0.225-0.059l0.157-0.061l0.249-0.064l0.225-0.041l0.319,0.201l0.086,0.023l0.08,0.07l0.162,0.154
		l0.376,0.236l0.175,0.16l0.127,0.125l0.121,0.094l0.128,0.09l0.266,0.383l0.104,0.113l0.092,0.088l0.376,0.014l0.26,0.023
		l0.323,0.018h0.127h0.361l0.443-0.066h0.267h0.387h0.317h0.337l0.328,0.037l0.128,0.164l0.127,0.207l0.064,0.238l0.051,0.213
		l0.006,0.213l-0.05,0.207l-0.048,0.178l-0.104,0.158l-0.127,0.232l-0.104,0.154l-0.121,0.211l-0.06,0.16L-92.8,78.88l-0.077,0.273
		l-0.079,0.188l-0.054,0.262l0.047,0.248l-0.005,0.184l-0.019,0.379l-0.018,0.432l0.065,0.225l-0.029,0.219l-0.261,0.125
		l-0.146,0.178l-0.121,0.207l0.054,0.166l0.092,0.182l0.127,0.178l0.127,0.131l0.151,0.35l0.092,0.195l0.127,0.164l0.092,0.139
		l0.06,0.211l0.062,0.225l-0.026,0.186l-0.023,0.188l-0.151,0.16l-0.098,0.09l-0.127,0.117l-0.358,0.154l-0.168,0.148l-0.128,0.16
		l-0.08,0.164l-0.191,0.119l-0.062,0.213l-0.151,0.137l-0.127,0.189l-0.181,0.1l-0.219,0.072l-0.26,0.129l-0.213,0.131l-0.237,0.029
		l-0.544-0.006l-0.255,0.064l-0.266,0.113l-0.364,0.1l-0.181,0.137l-0.255,0.178l-0.334,0.172l-0.272,0.195l-0.127,0.213
		l-0.018,0.213l-0.018,0.236l-0.074,0.154l-0.151,0.201l-0.171,0.178l-0.128,0.195l-0.354,0.248l-0.128,0.184l-0.254,0.154
		l-0.213,0.141l-0.195,0.213l-0.127,0.191l-0.121,0.295l0.062,0.141l0.219,0.203l0.157,0.33l0.284,0.297l0.174,0.201l0.287,0.26
		l0.364,0.402l0.272,0.314l0.181,0.23l0.2,0.166l0.151,0.225l0.334,0.236l0.234,0.119l0.376,0.082l0.177,0.125l0.32,0.271
		l0.127,0.184l0.127,0.289l0.038,0.137l0.012,0.113l0.007,0.195l0.029,0.26v0.131V95.2l-0.023,0.178v0.154l-0.074,0.117h-0.133
		l-0.192,0.041l-0.376,0.031l-0.166,0.035l-0.319,0.053l-0.127,0.082l-0.146,0.09l-0.266,0.088l-0.272,0.16l-0.242,0.131
		l-0.039,0.152v0.078l0.057,0.332l0.047,0.152l0.086,0.355l0.127,0.373l0.198,0.344l0.237,0.271l0.156,0.131l0.13,0.117l0.217,0.072
		l0.178,0.307l0.277,0.113l0.065,0.1l0.399,0.215l0.153,0.129v0.059l-0.005,0.166l-0.11,0.148l-0.139,0.236l-0.127,0.248
		l-0.057,0.113l-0.121,0.213l-0.104,0.271l0.086,0.25l0.074,0.211l0.07,0.186l0.074,0.188l0.054,0.125l0.017,0.309v0.117l0.01,0.344
		l0.029,0.332l0.077,0.359l0.006,0.166l0.012,0.268v0.111l0.032,0.326l-0.056,0.225l-0.019,0.117l-0.064,0.131l-0.104,0.143
		l-0.127,0.129l-0.14,0.238l-0.184,0.205l-0.198,0.227l-0.104,0.213l-0.067,0.248l-0.146,0.248v0.338l0.068,0.125l0.059,0.088
		l0.109,0.285l0.048,0.307l-0.023,0.248l-0.098,0.166l-0.163,0.189l-0.254,0.201l-0.382,0.09l-0.261,0.076l-0.26,0.023h-0.376
		l-0.237,0.012l-0.127,0.084l-0.098,0.225l-0.077,0.367l-0.067,0.146l-0.071,0.219l-0.127,0.396l-0.027,0.396v0.213l0.021,0.238
		l0.064,0.123l0.311,0.012l0.217-0.059l0.311-0.076h0.248l0.272,0.059l0.29,0.064l0.491,0.035l0.334-0.023l0.352-0.059l0.255-0.041
		l0.198-0.023l0.189-0.049l0.198-0.047h0.127l0.14,0.037l0.104,0.023h0.098h0.121l0.187-0.014l0.098-0.047l0.127-0.023l0.201-0.012
		h0.127h0.325h0.057l0.157-0.012l-0.023-0.107l0.127-0.123l0.225-0.16l0.163-0.125l0.133-0.123l0.127-0.16l0.169-0.113l0.261-0.094
		l0.334-0.059l0.562-0.049h0.375h0.299l0.243-0.123l0.145-0.184l0.145-0.189l0.128-0.213l0.127-0.178l0.068-0.207l0.118-0.195
		l0.13-0.285l0.163-0.307l0.127-0.332l0.121-0.26l0.128-0.266l0.168-0.314l0.335-0.295l0.21-0.166l0.171-0.178l0.157-0.154
		l0.157-0.189l0.219-0.207l0.127-0.141l0.243-0.139l0.26-0.123l0.195-0.135l0.21-0.166l0.293-0.355l0.139-0.166l0.261-0.082
		l0.326-0.113l0.432-0.111l0.242-0.172l0.689-0.557l0.347-0.213l0.127-0.271l0.156-0.191l0.376-0.33l0.296-0.201l0.281-0.225
		l0.162-0.125l0.249-0.137l0.346-0.307l0.151-0.248l0.109-0.137l0.095-0.201l0.109-0.248l0.092-0.32l0.08-0.225v-0.236l0.047-0.238
		l0.093-0.164l0.127-0.166h0.145l0.267,0.094l0.346,0.16l0.225,0.029l0.373,0.023l0.358-0.012h0.529l0.464-0.023h0.45l0.411,0.035
		l0.376-0.023h0.526l0.565,0.023h0.376h0.503l0.296,0.037l0.55-0.014h0.414l0.394,0.014l0.491,0.023l0.447,0.029l0.328-0.018
		l0.272-0.107l0.23-0.105l0.065-0.107l0.038-0.143l-0.092-0.201l-0.121-0.201l-0.086-0.189l-0.156-0.236l-0.109-0.152l-0.03-0.178
		l0.071-0.178l0.172-0.143l0.127-0.131l0.127-0.105l0.121-0.059l0.261,0.07l0.169,0.107l0.195,0.047l0.222,0.076l0.127,0.113v0.135
		l0.121,0.172l0.128,0.143l0.219,0.213l0.139-0.035l0.115-0.119l0.163-0.129l0.219-0.107l0.128-0.111l0.375-0.25l0.394-0.195
		l0.278-0.189l0.275-0.178l0.376-0.225l0.363-0.236l0.278-0.143l0.337-0.207l0.127-0.111l0.22-0.107l0.163-0.082l0.274-0.25
		l0.198-0.146l0.334-0.213l0.151-0.195l0.29-0.189l0.267-0.236l0.248-0.154l0.322-0.225l0.213-0.166l0.127-0.166l0.243-0.16
		l0.204-0.16l0.213-0.164l0.302-0.25l0.178-0.117l0.204-0.248l0.166-0.131l0.363-0.035l0.447,0.035l0.583,0.012l0.47,0.023
		l0.311,0.023l0.128-0.07l0.012-0.236l0.018-0.326v-0.703v-0.285l0.006-0.342l0.08-0.363l0.064-0.295l0.019-0.213l-0.169-0.148
		l-0.261,0.061l-0.207-0.072l-0.082-0.129l0.115-0.191l0.101-0.211l0.092-0.215l0.056-0.135l-0.127-0.178l-0.189-0.219l-0.121-0.248
		L-61,87.921l-0.128-0.188l-0.127-0.189l-0.047-0.107l-0.127-0.023l-0.243,0.012l-0.115-0.189l0.012-0.367l0.104-0.248l-0.012-0.076
		l0.047-0.227l0.012-0.307l0.062-0.271v-0.273l0.048-0.26l0.127-0.131l0.162-0.059l0.341-0.076l0.242-0.061l0.364-0.16l0.109-0.123
		l0.098-0.213l0.127-0.225l0.14-0.143l0.121-0.131l0.127-0.248l0.146-0.184l0.127-0.189l0.064-0.184l0.057-0.201l0.023-0.213
		l-0.109-0.178l-0.127-0.213l-0.127-0.189l-0.086-0.213l-0.157-0.367l-0.121-0.412V80.81l0.127-0.166l0.134-0.184l0.115-0.26
		l0.127-0.213l0.133-0.172l0.272-0.111l0.37-0.113l0.184-0.213l0.277-0.184l0.127-0.189l0.151-0.148l0.157-0.123l0.184-0.125
		l0.191-0.148l0.184-0.064l0.255-0.082l0.127-0.119l0.376-0.119L-56,78.011l0.168-0.047l0.128-0.113l0.417-0.047l0.328-0.035h0.353
		l0.168-0.061l0.184-0.105l0.261-0.059l0.192-0.078l0.236-0.088l0.189-0.137l0.222-0.236l0.172-0.148l0.272-0.152l0.242-0.168
		l0.192-0.123l0.189-0.113l0.198-0.117l0.153-0.225l0.151-0.271l0.083-0.416l0.097-0.354l0.134-0.238l0.236-0.189l0.267-0.213
		l0.462-0.189l0.429-0.129l0.281-0.131l0.248-0.113l0.382-0.094l0.376-0.113l0.423-0.123l0.376-0.125l0.435-0.189l0.376-0.189
		l0.299-0.236l0.429-0.166l0.825-0.385l0.14-0.176l0.331-0.162l0.213-0.234l0.249-0.225l0.127-0.131l0.121-0.055l0.243,0.078
		l0.225,0.107l0.435,0.01l0.474,0.043l0.394,0.094l0.308,0.26l0.127,0.143l0.281,0.172l0.151,0.213l0.104,0.084l0.15,0.059
		l0.151-0.107l0.151-0.248l0.15-0.16l0.287-0.266l0.236-0.219l0.349-0.225l0.329-0.248l0.207-0.162l0.482-0.225l0.242-0.088
		l0.23-0.023h0.291l0.274-0.023l0.399-0.09l0.376-0.117l0.353-0.154l0.349-0.184l0.127-0.113l0.346-0.059l0.14-0.129l0.057-0.227
		l0.216-0.16l0.178-0.111l0.07-0.318l0.098-0.25l0.086-0.225l0.127-0.355l0.089-0.236l0.128-0.166l0.236-0.158l0.375-0.285
		l0.312-0.201l0.313-0.125l0.272-0.201l0.248-0.248l0.237-0.16l0.26-0.195l0.14-0.189l0.274-0.059l0.394-0.029l0.411-0.16
		l0.497-0.129l0.497-0.154l0.243-0.137l0.284-0.242l0.515-0.131l0.375-0.082l0.376-0.078l0.328-0.1l0.267-0.064l0.405,0.088
		l0.37,0.195l0.115,0.064h0.121l0.134-0.111l0.346-0.148l0.192-0.131l0.29-0.178l0.293-0.123l0.242-0.189l0.29-0.023l0.175,0.146
		l0.376,0.154l0.381,0.131l0.184,0.148l0.21,0.088l0.172,0.107l0.376,0.129h0.243l0.308-0.035l0.352-0.123l0.515-0.203l0.207-0.111
		l0.382-0.285l0.222-0.248l0.225-0.33l0.201-0.393l0.182-0.295l0.206-0.213l0.163-0.344l0.213-0.295l0.134-0.414l0.053-0.189
		l0.038-0.271l0.06-0.209l0.109-0.289l0.207-0.242l0.14-0.225l0.168-0.178l0.213-0.195l0.128-0.113l0.242-0.271l0.169-0.236
		l0.175-0.297l0.067-0.438l0.042-0.373l0.067-0.297l0.077-0.211l0.248-0.037l0.358,0.014l0.376,0.141l0.267,0.236l0.207,0.178
		l0.271,0.215l0.202,0.225l0.127,0.158l0.181,0.201l0.271,0.355l0.14,0.248l0.127,0.273l0.127,0.164l0.127,0.227l0.128,0.184
		l0.115,0.129l0.127,0.023l0.166-0.129l0.18-0.107h0.341l0.347-0.035l0.26-0.012l0.308,0.023l0.213-0.047l0.29-0.061l0.309-0.164
		l0.147-0.238l0.29-0.33l0.115-0.225l0.145-0.238l0.139-0.17l0.376,0.053l0.249,0.047l0.37-0.125l0.302-0.271l0.328-0.213
		l0.243-0.219l0.375-0.236l0.127-0.201l0.134-0.125l0.248-0.148l0.139-0.088l0.279,0.041l0.242,0.137l0.225,0.213l0.175,0.184
		l0.068,0.213l0.047,0.166l0.127,0.312l0.261,0.16l0.15,0.166l0.243,0.178l0.242,0.184l0.237,0.225l0.278,0.16l0.346,0.172
		l0.322,0.23l0.388,0.143l0.272,0.176l0.503,0.148l0.319,0.111l0.426,0.084l0.376,0.166l0.21,0.184l0.433,0.178l0.225,0.135
		l0.375,0.189l0.278,0.131l0.382,0.059l0.325-0.059l0.311-0.088l0.278-0.072l0.175-0.123l0.032-0.32v-0.414v-0.521v-0.26
		l0.071-0.285l0.159-0.129l0.255-0.072l0.405-0.111l0.376-0.148l0.163-0.123l0.34-0.16l0.139-0.154l0.151-0.166l0.145-0.164
		l0.128-0.148l0.056-0.137l0.06-0.154l0.184-0.189l0.035-0.283l0.059-0.225l0.243-0.32l0.346-0.148l0.418-0.172l0.375-0.158
		l0.376-0.201l0.231-0.113l0.266-0.135L5.58,55.55l0.181-0.207l0.322-0.113l0.308,0.076l0.255,0.184l0.249,0.189l0.127,0.125
		l0.127,0.105l0.346,0.031l0.376-0.043l0.353-0.023l0.272-0.059l0.242-0.084l0.343-0.154l0.281-0.248l0.233-0.213l0.264-0.26
		l0.296-0.271l0.225-0.201l0.272-0.125l0.485-0.082l0.63,0.023l0.625,0.035h0.381l0.417-0.035l0.394-0.137l0.376-0.1l0.341-0.037
		l0.404-0.146l0.261-0.291l0.334-0.172l0.217-0.26l0.195-0.213l0.047-0.26l0.038-0.297l0.048-0.438v-0.361v-0.355l-0.067-0.371
		l0.067-0.291l-0.08-0.312l-0.029-0.238l-0.086-0.213l0.086-0.23l0.127-0.219l0.284-0.189l0.42-0.119l0.358-0.023l0.376-0.105h0.373
		h0.194l0.163-0.07l0.127-0.168l0.012-0.496l0.128-0.545l0.121-0.248l0.086-0.297l0.104-0.324l0.127-0.307l0.127-0.41v-0.295
		l0.128-0.254l0.047-0.195l0.109-0.25l0.098-0.188l0.37,0.105l0.375,0.201l0.37,0.225l0.319,0.189l0.267,0.119l0.322,0.225
		l0.335,0.131l0.308,0.152l0.302,0.189l0.376,0.189l0.274,0.184l0.394,0.154l0.364,0.184l0.367,0.225l0.512,0.236l0.26,0.166
		l0.198,0.166l0.201-0.035l0.261-0.189l0.357-0.273l0.261-0.461l0.222-0.248l0.37-0.189l0.225-0.219l0.272-0.184l0.331-0.248
		l0.296-0.16l0.319-0.314l0.296-0.07h0.296l0.449,0.141l0.392,0.297l0.308,0.131l0.248,0.236l0.153,0.16l0.379,0.053l0.344-0.076
		l0.473-0.014h0.479l0.515-0.059l0.628-0.088h0.414l0.414,0.012l0.378,0.178l0.297,0.207l0.237,0.295l0.235,0.184l0.125,0.084
		l0.242,0.07h0.272l0.242-0.195l0.16-0.154l0.408-0.107l0.29-0.088l0.373-0.012l0.681-0.023l0.391-0.041h0.426l0.373-0.041
		l0.337-0.072v-0.344l-0.112-0.312l-0.125-0.23L38.817,45.2l-0.379-0.201l-0.284-0.201l-0.261-0.201l-0.225-0.219l-0.248-0.361
		l-0.083-0.332l-0.06-0.338V43.11l-0.076-0.336l-0.065-0.344l-0.255-0.463l-0.053-0.26l0.053-0.385l0.048-0.271l0.137-0.385v-0.326
		v-0.408v-0.379l-0.024-0.438l0.101-0.295l0.124-0.273l0.059-0.105l0.013-0.166l-0.112-0.236l-0.065-0.367l-0.13-0.303v-0.42v-0.178
		v-0.225l-0.118-0.342l-0.13-0.361V35.55v-0.32l0.13-0.248l0.379-0.326l0.284-0.119l0.337-0.195l0.183-0.195l0.166-0.213
		l0.095-0.248l0.143-0.332l0.159-0.307l0.272-0.178l0.242-0.148l0.278-0.1l0.112-0.131l0.012-0.391V31.72l0.048-0.307l0.082-0.285
		l0.083-0.154l0.148-0.201l0.147-0.023l0.249,0.047l0.261,0.107l0.379,0.137l0.289,0.158l0.421,0.131l0.354,0.096l0.367,0.129
		l0.379,0.137l0.26,0.119l0.308,0.064l0.414,0.189l0.214,0.119l0.289,0.105l0.361,0.143l0.367,0.123l0.343,0.055l0.627,0.117
		l0.272,0.049l0.461-0.014l0.451-0.07l0.591-0.184l0.296-0.236l0.261-0.236l0.178-0.184l0.112-0.609l0.041-0.445v-0.371v-0.303
		l-0.106-0.307v-0.213l0.261-0.367l0.153-0.25l0.236-0.283l0.119-0.131v-0.295v-0.402l-0.166-0.568L49,26.921l-0.041-0.225v-0.26
		v-0.285l0.1-0.396l0.101-0.697v-0.635v-0.496l0.095-0.396v-0.473l0.013-0.355l0.082-0.271l0.148-0.154l0.266-0.26l0.131-0.137
		l0.124-0.201l0.124-0.195l0.166-0.213l0.178-0.131l0.213-0.117l0.201-0.225l0.105-0.273l-0.094-0.361v-0.432l0.083-0.324
		l-0.131-0.35l-0.13-0.258l-0.124-0.277l-0.101-0.273l-0.023-0.266v-0.254l-0.107-0.297l-0.035-0.258v-0.361l-0.029-0.271
		l-0.125-0.364l-0.123-0.322l-0.048-0.207l-0.124-0.243l-0.118-0.124l-0.019-0.213l0.083-0.254l0.065-0.122l0.023-0.163
		l-0.118-0.287l-0.166-0.243l-0.201-0.266l-0.153-0.352l-0.308-0.373l-0.131-0.248l-0.166-0.243l-0.089-0.255l-0.123-0.272
		l-0.131-0.231l-0.035-0.299l-0.118-0.187l-0.131-0.23l-0.117-0.133l-0.143-0.133l-0.095-0.11l-0.06-0.109l0.07-0.175l0.131-0.098
		l0.184-0.133l0.137-0.133l0.123-0.157l0.137-0.219l0.101-0.163l0.112-0.166l0.124-0.186l0.196,0.012l0.509,0.092l0.188,0.012
		l0.172-0.098l0.231-0.086l0.194-0.11l0.308-0.077l0.195-0.033l0.237-0.035l0.373,0.056l0.325,0.077l0.201,0.081l0.296-0.069
		l0.372-0.109l0.308-0.118l0.29-0.057l0.308-0.109l0.237-0.053h0.248l0.237-0.012l0.396,0.053l0.337,0.109l0.248,0.133l0.19,0.023
		l0.887-0.284l0.261-0.077l0.343-0.044l0.468,0.03l0.408,0.05l0.474,0.03h0.656h0.882l0.781,0.08l0.77-0.044l0.544,0.062
		l0.497,0.083l1.054-0.053l0.497,0.068l0.764-0.044l0.598,0.029l0.592,0.11l0.52,0.109l0.841,0.074l0.278,0.187l0.36,0.133
		l0.462,0.243l0.296,0.121l0.444,0.098h0.26h0.242l0.468,0.065l0.372,0.068l0.373-0.068l0.195-0.107l0.326-0.05l0.373,0.092
		l0.159,0.174l0.225,0.207l0.242,0.254l0.119,0.151l0.131,0.121l0.259,0.068l0.273,0.042l0.178,0.086l0.188,0.053l0.16,0.041
		l0.29,0.177L74,11.214l0.189,0.027h0.159l0.125,0.023l0.213,0.077l0.124,0.086l0.124,0.08l0.225,0.053l0.167-0.036l0.171-0.012
		l0.26,0.106l0.195,0.109l0.125,0.098l0.313,0.056l0.284,0.042h0.261l0.159-0.133l0.112-0.19l0.102-0.254l0.183-0.23l0.065-0.192
		l0.123-0.174l0.113-0.166l0.048-0.106l0.313-0.057l0.367-0.068l0.271-0.041l0.296-0.11l0.13-0.083l0.297-0.026l0.372-0.012
		l0.26-0.095h0.22h0.296h0.283l0.32-0.027l0.349,0.044l0.35-0.024l0.408,0.024l0.213-0.012l0.236,0.012l0.325-0.044l0.131,0.189
		l0.178,0.157v0.195l0.177,0.174l0.19,0.133l0.053,0.243l0.147,0.213l0.284,0.254l0.071,0.219l0.13,0.216l0.214,0.219l0.023,0.145
		l0.296,0.023h0.343l0.414,0.178l0.438,0.053l0.32,0.098l0.154-0.056l0.13-0.296v-0.266l0.154-0.296l0.011-0.456l0.154-0.308
		l0.153-0.298l0.118-0.308l0.231-0.026l0.35,0.201l0.556,0.166l0.296,0.187l0.556,0.284l0.344,0.08l0.367,0.11l0.366,0.198
		l0.474,0.133l0.366,0.151l0.485,0.171l0.237,0.163l0.225,0.133l0.308,0.133l0.272,0.068l0.562-0.012l0.309-0.056l0.467,0.068
		l0.379,0.133l0.373,0.169l0.349,0.127l0.456,0.068l0.277,0.145l0.379,0.296l0.574,0.109l0.586,0.036h0.556l0.201-0.065l0.195-0.098
		l0.587-0.053h0.556l0.621,0.036l0.214-0.187l0.324-0.044h0.297l0.295-0.065l0.131-0.201l0.13-0.133l0.248-0.08l0.308-0.053
		l0.125-0.323l0.178-0.133l0.261-0.133l0.171-0.109l0.154-0.109l0.129-0.077l0.373-0.012l0.35-0.068l0.297-0.065l0.371-0.012
		l0.61-0.056l0.449,0.056l0.331,0.036l0.179,0.186l0.201,0.062l0.207,0.042l0.2,0.122l0.386,0.012h0.308l0.379,0.044l0.259,0.065
		l0.255,0.044l0.261,0.106l0.23,0.219l0.106,0.163l0.373,0.092l0.148,0.296l0.047,0.166l0.124,0.254l0.143,0.219L110,13.868
		l0.261,0.024l0.271,0.159l0.237,0.083l0.272,0.109l0.319,0.033l0.243,0.186l0.308,0.042l0.29,0.145l0.177,0.166l0.261,0.174h0.379
		l0.236,0.151l0.272,0.16l0.271,0.127l0.427,0.157l0.402,0.157l0.373,0.122l0.301,0.218l0.414,0.083l0.516,0.056l0.372,0.11
		l0.32,0.098l0.308,0.012h0.402l0.373,0.047l0.225,0.22l0.159,0.215l0.373,0.189l0.314,0.285l0.129,0.211l0.143,0.395l0.101,0.443
		l0.124,0.625l0.154,0.318l0.083,0.309l0.142,0.189l0.143,0.219l0.07,0.184l0.077,0.303l0.16,0.271l0.29,0.318l0.277,0.262
		l0.29,0.189l0.485,0.076l0.515,0.023l0.592,0.137l0.272,0.07l0.433,0.137l0.42,0.111l0.36,0.303l0.172,0.367l0.13,0.248
		l0.059,0.225l0.107,0.201l0.189,0.213l0.13,0.219l0.165,0.213l0.154,0.225l0.213,0.195L126,24.72l0.362,0.053h0.461h0.313
		l0.172,0.061l0.16,0.141l0.312,0.131l0.207,0.148l0.356,0.201l0.307,0.178l0.249,0.26l0.188,0.137l0.154,0.152l0.438,0.201
		l0.237,0.225l0.343,0.32l0.331,0.248l0.291,0.215l0.349,0.152l0.331,0.221l0.533,0.076l0.319,0.117h0.456l0.449,0.107l0.373-0.043
		l0.354,0.102l0.474-0.035h0.45l0.354-0.096l0.379-0.07l0.219-0.172l0.473-0.064l0.469,0.023l0.413-0.012l0.485,0.053l0.272,0.232
		l0.438,0.105l0.271,0.047h0.367l0.355-0.123l0.13-0.072l0.379-0.146l0.188-0.154l0.178-0.084l0.237-0.064l0.2-0.123l0.249-0.131
		l0.284-0.131l0.308-0.023l0.272-0.047l0.308-0.061l0.402,0.037l0.36-0.084l0.214-0.07l0.271-0.154l0.35-0.059l0.396,0.059
		l0.271-0.105l0.475-0.049l0.36-0.047l0.443,0.023l0.485,0.082l0.385,0.137l0.533,0.078l0.438,0.035l0.556,0.047h0.462l0.449,0.059
		l0.509,0.055h0.545h0.739l0.663-0.014l0.539-0.076l0.366-0.248l0.166-0.154l0.331-0.277l0.112-0.266l0.159-0.25l0.32-0.271
		l0.379-0.236l0.178-0.178l0.248-0.148l0.153-0.102l0.284-0.033l0.249-0.191l0.137-0.105l0.201-0.131h0.259l0.172-0.012l1.586,0.332
		l1.261,0.141h0.894l0.994-0.07l0.888-0.225l1.266-0.449l1.374-0.664l0.882-0.686l1.106-0.449l1.62-0.295l1.096-0.605l0.632-0.746
		l0.172-0.986l-0.373-1.268L168.665,17.462"/>
</g>
<g id="Layer_1_1_">
</g>
</svg>
