<?xml version="1.0" encoding="utf-8"?>
<!-- Generator: Adobe Illustrator 16.0.4, SVG Export Plug-In . SVG Version: 6.00 Build 0)  -->
<!DOCTYPE svg PUBLIC "-//W3C//DTD SVG 1.1//EN" "http://www.w3.org/Graphics/SVG/1.1/DTD/svg11.dtd">
<svg version="1.1" id="Layer_1" xmlns="http://www.w3.org/2000/svg" xmlns:xlink="http://www.w3.org/1999/xlink" x="0px" y="0px"
	 width="301.5px" height="490.336px" viewBox="-125.863 -205.204 301.5 490.336"
	 style="enable-background:new -125.863 -205.204 301.5 490.336;" xml:space="preserve">
<g id="Layer_8">
	<g id="Sahiwal">
		<path id="Sahiwal_2_" style="fill:#CCCCCC;stroke:#FFFFFF;stroke-width:1.15;" d="M22.682,147.164L22.682,147.164l0.123,0.41
			l-0.123,0.375l-0.353,0.105l-0.621-0.205l-0.616-0.457l-0.522-0.528l-0.451-0.41l-0.429-0.275l-0.64-0.077l-1.185,0.123
			l-0.709,0.306l-0.628,0.281l-0.375,0.493l-0.247,0.938l-0.211,0.681l-0.164,0.199l-0.317,0.175l-0.521,0.435l-0.111,0.37v0.451
			l0.188,0.246h0.199l0.446-0.27l0.281-0.246h0.322l0.376,0.146l0.41,0.276l1.103,0.868l0.552,0.357l0.429,0.077l0.656,0.069
			l0.687-0.128l0.88-0.164l1.003-0.235l1.155-0.428l0.563-0.076l0.24,0.076l0.105,0.135l-0.129,0.645l-0.329,0.728l-0.727,0.552
			l-0.558,0.199l-0.763,0.129l-0.68,0.07l-0.681,0.023l-0.358,0.165l-0.375,0.551l-0.633,2.165l0.116,0.311l0.376,0.047l0.422-0.177
			l0.769-0.681l0.37-0.409l0.322-0.101l0.375,0.111l0.276,0.212l0.275,0.621l0.064,1.584l-0.006,0.316l-0.37,0.405l-0.627,0.404
			l-1.243,0.504l-0.956,0.199l-1.426,0.101l-0.435,0.17l-0.327,0.27l-0.13,0.235l0.07,0.445l0.193,0.281l0.517,0.199l0.522,0.294
			l0.152,0.48l-0.129,1.067l-0.869,2.071l-0.621,0.997l-0.61,0.475l-1.097,0.105l-0.903-0.011l-0.909-0.135l-3.554-0.628
			l-0.47,0.035l-0.293,0.058l-0.335,0.188l-0.188,0.34l-0.006,0.763l0.129,0.517l0.37,0.346l0.521,0.247l1.836,0.146l0.851,0.141
			l0.287,0.175l0.135,0.241l0.2,0.275l-0.006,0.416l-0.487,0.676l-0.968,0.715l-0.481,0.13l-0.516-0.105l-0.375-0.628l-0.675-0.528
			L8.61,170.15H8.247l-0.293,0.271l-0.399,0.521l-0.434,0.586l-0.48,0.382l-1.045,0.439l-1.478,0.129l-1.713-0.223l-1.426-0.422
			l-1.378-0.117l-0.88-0.007l-1.126,0.299l-2.088,0.846l-1.003,0.41l-0.962,0.271l-1.127,0.058l-0.281-0.135l-0.141-0.17
			l0.012-0.481l0.041-0.311l0.246-0.404l0.534-0.927l0.246-0.492l0.041-0.376l-0.029-0.751l-0.287-0.282l-0.229-0.21l-0.439-0.105
			h-0.428l-0.288,0.164l-0.393,0.352l-0.481,0.751l-0.287,0.757l-0.158,0.727l-0.341,0.862l-0.287,0.517l-0.534,0.375l-0.562,0.17
			l-0.669,0.024l-0.61-0.288l-0.363-0.475l-0.281-0.382l-0.328-0.164l-0.417-0.012l-0.668,0.123l-0.875,0.312l-1.718,0.146
			l-2.234,0.1l-1.566-0.012l-1.367-0.111l-1.038-0.224l-1.185-0.568l-0.476-0.306l-0.516-0.492l-0.323-0.48l-0.123-0.493l0.095-0.37
			l0.152-0.239l0.287-0.177l0.369-0.129l0.376-0.023l0.609,0.035l0.663,0.246l0.369,0.188l0.376,0.246l0.716,0.164l0.633-0.029
			l0.322-0.07l0.2-0.136l0.047-0.27l-0.235-0.411l-0.475-0.562l-0.599-0.41l-0.855-0.416l-0.563-0.112l-0.798,0.094l-0.962,0.2
			l-0.517-0.036l-0.281-0.175l-0.094-0.141l0.105-0.787l0.199-0.792l-0.088-0.557l-0.123-0.212l-0.562-0.164l-0.851-0.527
			l-1.044-0.522l-0.376-0.451l-0.193-0.381l-0.517-0.247h-0.369l-0.61,0.311l-0.627,0.511l-0.388,0.757l-0.41,1.167l-0.246,0.833
			l-0.37,0.581l-0.48,0.316l-0.353,0.223l-0.387,0.012l-0.446-0.094l-0.246-0.129l-0.07-0.774l0.047-0.633l0.176-0.481l0.159-0.306
			l0.621-0.539l0.458-0.527l0.281-0.394l0.164-0.568l0.012-0.341l-0.129-0.27l-0.411-0.176l-1.612-0.012l-0.728,0.082l-1.537,0.293
			l-1.062,0.458l-1.126,0.657l-0.275,0.21l-0.082,0.364l0.146,0.329l0.246,0.093l0.692-0.116l0.492-0.142l1.326-0.476l0.622-0.088
			l0.352,0.088l0.129,0.247v0.328l-0.827,1.924l-0.293,0.599l-0.399,0.153l-0.381,0.058l-0.763-0.258l-1.354-0.581l-1.215-0.697
			l-1.138-0.458l-0.639-0.059l-0.411,0.135l-0.41,0.294l-0.247,0.48v0.387l0.153,0.376l0.445,0.334l1.044,0.61l0.622,0.152
			l0.129,0.205l0.035,0.58l-0.053,0.787l-0.246,0.773l-0.774,0.751l-0.769,0.446l-1.665,0.322l-1.461,0.118l-1.045,0.082
			l-1.066,0.164l-0.019,0.363l0.082,0.387l-0.322,0.798l-0.369,1.079l-0.117,0.563l0.059,0.634l0.287,0.539l0.657,0.691l0.527,0.622
			l0.153,0.329l0.135,0.328l-0.059,0.353l-0.105,0.422l-0.452,0.54l-0.539,0.258l-0.528,0.229l-0.446,0.234l-0.387,0.123
			l-0.61,0.164l-0.932,0.142l-0.816,0.176l-0.633,0.158l-0.329,0.24l-0.223,0.376l-0.123,0.457l0.053,0.505l0.158,0.646l0.411,1.014
			l0.1,0.723l-0.111,0.926l-0.105,0.505l-0.012,0.422l0.123,0.259l0.404,0.404l0.146,0.334l-0.012,0.364l-0.047,0.363l-0.053,0.398
			l0.111,0.54l0.235,0.376l0.182,0.504v0.323l-0.053,0.428l-0.276,0.527l-0.533,0.669l-0.628,1.108l-0.504,1.103l-0.769,1.209
			l-0.851,1.354l-0.54,0.628l-0.851,0.985l-1.038,1.091l-1.202,1.085l-0.792,0.739l-0.792,1.021l-0.914,1.126l-0.792,1.067
			l-0.476,0.856l-0.24,0.938l-0.111,0.88l0.24,1.607l-0.34,1.349l0.088,0.846l0.082,0.697l0.275,0.733l0.24,0.78l0.112,0.439
			l-0.053,0.763l-0.235,1.924l-0.17,1.196l-0.129,1.231l0.006,0.599l0.088,1.032l0.088,0.733l0.076,0.733l-0.047,0.375l-0.328,0.622
			l-0.581,1.132l-0.34,0.628l-0.288,0.492l-0.803,1.22l-0.487,0.821l-0.499,0.634l-0.357,0.281l-0.088,0.364l-0.141,0.48
			l-0.129,1.455l-0.217,0.728l-0.37,0.527l-0.176,0.552l-0.51,0.703l-0.739,0.563l-0.722,0.398l-0.874,0.305l-0.634,0.347
			l-0.422,0.323l-0.24,0.281l-0.123,0.851l0.063,1.108l0.082,1.337l0.048,0.517l-0.13,0.621l-0.182,0.458l-0.299,0.363l-0.34,0.329
			l-0.452,0.234l-0.311,0.129l-0.388,0.376l-0.24,0.539l-0.123,0.763l0.053,0.622l0.059,0.773l0.281,0.422l0.692,0.506l0.528,0.422
			l0.334,0.375l0.241,0.411l0.07,1.161v0.95l0.053,0.915l-0.012,1.032l-0.177,0.728l-0.146,0.845l-0.111,0.47l0.064,0.844
			l-0.082,0.574l-0.17,0.67l-0.287,0.598l-0.218,0.375l-0.053,0.369l0.064,0.522l0.37,1.783l-0.123,3.379l0.674,0.129l0.634,0.305
			l0.598,0.505l0.276,0.669l0.012,0.398l-0.305,0.633l-0.593,0.687l-0.845,0.874l-0.739,0.903l-0.363,0.986l0.064,0.88l0.311,0.621
			l0.792,0.54l0.874,0.315l1.272,0.124l0.534-0.006l0.505,0.07l0.949,0.259l5.021,0.369l1.302,0.122l0.628,0.271l0.17,0.628
			l-0.059,0.346l-0.369,0.369l-0.517,0.317l-0.205,0.275l-0.053,0.375l0.322,0.388l0.786,0.423l1.501,0.545l2.019,0.546h0.457
			l0.376-0.153l0.381-0.375l0.463-0.751l0.3-0.593l0.375-0.48l0.382-0.347l0.504-0.117l0.569,0.13l0.763,0.141h0.498l0.229-0.111
			l0.241-0.246l0.41-0.505l0.176-0.481l0.117-0.704l0.023-0.445l-0.182-0.867l0.07-0.88l0.123-0.98l0.224-0.628l0.498-0.803
			l0.681-0.552l0.798-0.628l1.308-0.815l0.434-0.269l0.376-0.382l0.352-0.334l0.271-0.105h0.129l0.486-1.126l0.311-0.856
			l0.271-0.188l0.369-0.088l0.622-0.135l0.293-0.434l-0.006-0.329l-0.451-0.458l-0.511-0.204l-0.773-0.101l-0.698-0.082
			l-0.123-0.264l0.234-0.288l0.117-0.257l0.47-0.13l0.803-0.223l0.575-0.369l0.363-0.505l0.439-0.762l0.112-0.588l0.117-0.727
			l-0.129-0.739l-0.123-1.25l-0.135-1.349l0.058-0.586l0.341-0.704l0.469-0.247l0.916-0.223l0.375,0.076l0.639,0.124l0.306,0.234
			l0.357,0.352l0.322,0.123l0.341-0.064l0.229-0.211l0.029-0.293l-0.047-0.387l0.041-0.376l0.246-0.387l0.329-0.329l0.691-0.093
			l0.405-0.376l0.375-0.105l0.182,0.122l0.012,0.347l-0.029,0.628l0.224,0.628l0.363,0.27l0.522,0.1l0.51-0.123l0.382-0.37
			l0.352-0.469l0.275-0.241l0.423-0.281l0.375-0.064l0.61,0.07l0.862,0.246l0.956,0.077l1.425,0.129l0.575,0.129l0.211,0.258
			l0.07,0.353l-0.158,0.375l-0.123,0.505l-0.059,0.428l0.205,0.37l0.375,0.422l0.317,0.563l0.229,0.621l0.164,0.299l-0.059,0.44
			l-0.252,0.105l-0.364-0.124l-0.486-0.122l-0.306,0.17l-0.111,0.439l0.294,0.528l0.205,0.264l0.363,0.347l0.546,0.246l0.422,0.281
			l0.212,0.358l-0.13,1.12l0.041,0.574l0.376,0.399l0.358,0.146l0.984-0.041l0.869-0.37l0.063-0.404l-0.129-0.593l-0.381-0.569
			l-0.076-0.645l0.293-0.376l0.457-0.128l0.476,0.128l0.37,0.276l0.586,0.687l0.616,0.234l0.369-0.111l0.394-0.352l-0.007-0.399
			l-0.387-0.534l-0.123-0.75l0.123-0.599l0.334-0.369l0.81-0.651l0.54-0.376l0.704-0.082l1.073,0.053l0.974,0.042l0.451-0.095
			l0.37-0.246l0.135-0.293l-0.129-0.375l-0.558-0.165l-0.387-0.234l0.029-0.305l0.293-0.329l0.417-0.27l0.81-0.152l0.768-0.294
			l0.369-0.41l0.03-0.316l-0.006-0.328l-0.141-0.13l-0.341-0.046l-0.634-0.047l-0.311-0.317l0.029-0.218l0.235-0.321l0.615-0.329
			l0.306-0.305l0.104-0.352L-16,247.721l-0.224-0.264l-0.375-0.205l-0.288-0.13l-0.123-0.346l-0.018-0.346l0.029-0.358l0.135-0.281
			l0.224-0.124l0.369,0.024l0.258,0.2l0.17,0.122l0.265,0.124l0.252-0.076l0.199-0.101l0.346-0.035l0.3,0.035l0.546,0.076
			l0.264-0.087l0.229-0.136l0.029-0.246l-0.275-0.357l-0.164-0.458l0.034-0.271l0.271-0.233l0.51-0.106l0.411-0.059l0.316-0.129
			l0.218-0.316l0.094-0.322l-0.041-0.37l-0.2-0.211l-0.258-0.423l-0.059-0.246l0.035-0.328l0.129-0.094l0.259-0.035l0.398-0.013
			l0.557-0.059l0.417-0.128l0.281-0.282l0.329-0.416l0.046-0.452l-0.082-0.375l-0.211-0.335l-0.264-0.368l-0.129-0.435l0.088-0.282
			l0.188-0.188l0.34-0.094l0.651,0.036l0.71,0.281l0.476,0.504l0.621,0.399l0.54,0.175l0.504-0.07l0.37-0.223l0.229-0.375
			l0.399-0.599l0.281-0.622l0.087-0.434l-0.146-0.715l0.005-0.622l0.136-0.575l0.334-0.258l0.369-0.224l0.399-0.234l0.311,0.012
			l0.352,0.211l0.323,0.435l0.416,0.457l0.271,0.317l0.662,0.393l0.552,0.299l0.305,0.363l0.018,0.388l-0.211,0.499l-0.27,0.814
			l-0.265,0.933l-0.063,0.628l0.075,0.369l0.358,0.206l0.487,0.1l0.873,0.287l0.88,0.281l0.687,0.452l0.469,0.546l0.247,0.404
			l0.281,0.235l0.281,0.034l0.37-0.063l0.334-0.218l0.417-0.357l0.557-0.604l0.581-0.763l0.709-0.897l0.704-0.915l0.458-0.821
			l0.234-0.973l-0.018-0.687l-0.199-0.692l-0.37-0.874l-0.07-0.492l0.07-0.376l0.123-0.493l0.247-0.281l0.551-0.445l0.646-0.552
			l0.634-0.458l0.504-0.328l0.376-0.176l0.645,0.012l0.604,0.2l0.404,0.469l0.423,0.927l0.369,0.874l0.394,0.593l0.615,0.369
			l0.575,0.064l0.687,0.012l0.874-0.199l0.744-0.305l0.417-0.065l0.457,0.023l0.622,0.481l0.627,0.311l0.986,0.106l1.032-0.117
			l1.009-0.389l0.369-0.374l0.076-0.399l-0.088-0.316l-0.369-0.294l-0.205-0.369l-0.019-0.357l0.071-0.376l0.287-0.376l0.439-0.292
			l0.47-0.305l0.751-0.083l0.322,0.035l0.223,0.258l0.018,0.353l0.13,0.504l0.24,0.599l0.416,0.41l0.458,0.095l0.423-0.124
			l0.456-0.404l0.259-0.446l0.088-0.516l-0.123-0.411l-0.211-0.539l-0.206-0.416l-0.023-0.37l0.124-0.316l0.27-0.2l0.539-0.022
			h0.429l0.697,0.123l0.487,0.1l0.393,0.094l0.506-0.048l0.328-0.187l0.205-0.364l0.041-0.434l0.082-0.651l-0.123-0.827
			l-0.176-0.563l-0.124-0.258l-0.129-0.047l-0.287,0.117l-0.105,0.357l-0.188,0.37l-0.374,0.135l-0.622,0.041l-0.376-0.128
			l-0.141-0.376l0.023-0.493l0.177-0.798l0.346-0.773l0.281-0.281l0.439-0.306l0.558-0.282l0.369-0.17l0.733-0.111l0.745-0.011
			l0.645,0.111l0.365,0.299l0.498,0.247l0.586,0.058l0.176-0.2l0.135-0.34l0.241-0.211l0.334-0.135l0.593-0.012l1.097,0.123
			l1.044,0.129l0.722-0.093l0.639-0.341l0.37-0.434l0.136-0.593l0.087-0.54l0.035-0.545l-0.188-0.246l-0.271-0.06l-0.58,0.129
			l-0.64,0.141l-0.521-0.034l-0.329-0.13l-0.217-0.292l0.071-0.564l0.04-0.996l-0.093-0.546l-0.199-0.451l-0.37-0.364l-0.376-0.47
			l-0.393-0.562l-0.188-0.305l-0.111-0.452l0.088-0.246l0.275-0.247l0.792-0.311l0.499-0.011l0.663,0.135l0.404,0.346l0.37,0.41
			l0.411,0.271l0.416,0.082l0.65-0.212l0.37-0.369l0.24-0.416l0.388-0.641l0.287-0.228l0.445-0.117l0.616,0.059l0.517,0.346
			l0.375,0.616l0.293,0.903l0.651,0.328l0.656,0.141l0.522-0.188l0.423-0.323l0.281-0.299l0.376-0.176l0.416,0.059l0.451,0.146
			l0.429,0.322l0.27,0.382l0.281,0.534l0.199,0.552l0.363,0.315l0.411,0.048l0.381-0.136l0.376-0.492l0.34-0.275l0.47-0.042
			l0.352,0.135l0.13,0.447l0.164,0.374l0.517,0.13l0.598-0.059l0.622-0.212l0.457-0.375l0.152-0.505l-0.105-0.48l-0.252-0.429
			l-0.534-0.211l-0.879-0.205l-1.521-0.288l-1.09-0.239l-0.552-0.329l-0.147-0.328l0.042-0.81l0.129-0.587l0.276-0.252l0.393-0.17
			l0.492,0.035l0.234,0.152l0.089,0.476l0.041,0.492l0.368,0.44l0.739,0.094l0.827,0.005l0.481-0.122l0.376-0.247l0.205-0.328
			l0.047-0.41l-0.105-0.476l-0.288-0.657l-0.369-0.51l0.023-0.388l0.141-0.451l0.153-0.323l0.141-0.1l0.363,0.023l0.628-0.082
			l0.662-0.123l0.241,0.094l0.187,0.275l0.218,0.506l0.37,0.146l0.422-0.023l0.369-0.275l0.381-0.275l0.552-0.235l0.909-0.24
			l0.909-0.305l0.394-0.135h0.439l0.369,0.246l0.394,0.369l0.311,0.042l0.234-0.13l0.206-0.399l0.258-0.597l0.123-0.481
			l-0.053-0.306l-0.206-0.122l-0.492-0.03l-0.369-0.176l-0.117-0.141l0.029-0.223l0.223-0.281l0.376-0.223l0.791-0.341l0.88-0.212
			l0.722-0.075l0.305,0.099l0.035,0.223l-0.082,0.307l-0.135,0.357l-0.176,0.533l-0.193,0.845l-0.164,1.044l-0.082,1.074
			l0.204,0.305l0.329,0.217l0.609,0.07h0.774l0.381-0.199l0.13-0.364l-0.041-0.387l-0.217-0.528l-0.241-0.281l-0.063-0.422
			l0.029-0.259l0.239-0.381l0.329-0.217l0.375-0.177l0.599-0.128l0.628-0.388l0.574-0.587l0.347-0.316l0.322-0.07h0.586l0.569-0.111
			l0.323-0.218l-0.036-0.299l-0.193-0.334l-0.557-0.159l-1.168-0.075l-0.88-0.082l-0.229-0.188l-0.105-0.305l0.029-0.54l0.047-0.779
			l0.357-0.563l0.347-0.486l0.428-0.376l0.616-0.17h0.346l0.124,0.082l0.029,0.176l-0.042,0.317l-0.205,0.369l-0.141,0.357
			l0.029,0.294l0.3,0.321l0.504,0.171l0.569,0.136l0.639,0.422l0.517,0.562l0.159,0.493l0.233,0.58l0.435,0.969l0.557,0.968
			l0.44,0.867l0.516,0.71l0.64,0.423l0.721,0.223l1.062,0.188l0.517,0.012l0.504,0.07l0.206,0.211l0.082,0.505l-0.124,0.1
			l-0.369,0.123l-0.24,0.199l-0.124,0.188l0.036,0.305l0.111,0.146l0.128,0.557l0.188,0.458l0.129,0.363l0.199,0.399l0.37,0.264
			l0.486,0.264L77.189,216l0.569,0.071l0.493,0.17l0.727,0.234l0.517,0.018l0.363-0.234l0.253-0.387l-0.042-0.306l-0.093-0.305
			l-0.271-0.259l-0.481-0.363l-0.422-0.37l-0.105-0.258l-0.017-0.639l-0.153-0.811l0.029-0.445l0.183-0.141l0.286-0.04l0.505,0.017
			l0.604,0.376l0.634,0.562l0.857,0.739l0.814,0.58l1.338,0.552l0.786,0.076l0.351,0.013l0.365-0.124l0.17-0.188l0.157-0.562
			l-0.075-0.617l-0.628-0.82l-0.815-1.279l-0.211-0.305L84,210.511l0.229-0.188l0.394-0.235l0.68-0.023l0.792,0.082l0.416,0.47
			l0.124,0.604l0.299,1.413l0.135,0.504l0.364,0.505l0.434,0.176l0.562,0.124l0.669,0.022l0.27,0.158l0.2,0.458l0.245,0.517
			l0.376,0.258l0.363-0.035l0.405-0.27l0.13-0.458l0.023-0.346l-0.082-0.405l0.034-0.445l0.035-0.552l0.429-0.369l0.241-0.194
			l0.433,0.024l0.563,0.316l0.428,0.023l0.522-0.129l0.481-0.376l0.328-0.34l0.264-0.54l0.036-0.445l0.053-0.704l-0.124-0.645
			l-0.129-0.399l0.029-0.457l0.375-0.481l0.493-0.575l0.493-0.48l0.428-0.458l-0.035-0.357l-0.094-0.252l-0.382-0.117l-0.439-0.082
			l-0.557-0.224l-0.563-0.163l-0.047-0.106l0.022-0.246l0.3-0.927l0.312-0.938l0.193-0.435l0.346-0.533l0.599-0.229l0.451,0.019
			l0.275,0.111l0.317,0.264l-0.042,0.552l-0.122,0.234l-0.088,0.246l0.117,0.259l0.416,0.258l0.569,0.029l0.439,0.116l0.369,0.376
			l0.376,0.869l0.439,0.908l0.212,0.158l0.434,0.076l0.381,0.019l0.71-0.376l0.405-0.281l0.181-0.281l0.142-0.394l0.029-0.346
			l-0.322-0.271l-0.334-0.363l-0.177-0.458l0.029-0.258l0.312-0.328l0.404-0.135l0.622-0.023l0.316-0.335l0.1-0.246l-0.111-0.363
			l-0.205-0.212l-0.411-0.27l-1.748-0.164l-1.372-0.07l-0.375-0.111l-0.376-0.27l-0.176-0.358l0.018-0.246l0.177-0.193l0.369-0.13
			l0.539-0.328l0.388,0.023l0.562,0.123l0.663,0.129l0.751-0.059l1.19-0.246l1.63-0.48l0.628-0.224l0.927-0.305l0.457,0.023
			l0.733,0.035l0.628,0.129l0.657,0.17l0.493,0.171l0.445,0.075l0.451-0.029l0.599-0.223l0.609-0.375l0.247-0.182l0.2-0.429
			l0.04-0.346l-0.205-0.211l-1.133-0.059l-1.26,0.094l-0.599,0.164l-0.435-0.123l-0.322-0.259l0.041-0.38l0.552-0.423l0.604-0.316
			l0.598-0.223l0.751-0.124l0.732,0.129l0.921,0.34l0.856,0.141l0.792,0.088l0.628,0.03l3.067,0.164l0.786-0.54l1.179-0.198
			l0.311-0.142l0.54-0.17l0.264-0.199l0.171-0.146l0.369-0.617l0.305-0.381l0.247-0.246l0.182-0.07l0.17-0.053l0.159-0.023
			l0.334-0.035l0.71-0.111l0.85-0.212l0.815-0.146l0.511-0.042l0.645,0.042h0.593l0.346-0.077l0.312-0.076l0.357-0.239l0.306-0.353
			l0.281-0.376l0.193-0.574l0.122-0.522l0.106-0.281l-0.012-0.188l-0.146-0.159l-0.259-0.223l-0.146-0.105l-0.218,0.018
			l-0.199,0.076l-0.528,0.394l-0.369,0.228l-0.716,0.229l-0.874,0.088l-0.48-0.123l-0.347-0.246l-0.188-0.299l-0.123-0.464
			l-0.023-0.445l0.029-0.317l0.047-0.369l0.094-0.622l-0.023-0.458l-0.012-0.269l-0.129-0.212l-0.146-0.205l-0.265-0.17
			l-0.305-0.106l-0.504-0.075l-0.563-0.053l-0.117-0.171l-0.035-0.152l0.048-0.135l0.029-0.123l0.387-0.352l0.416-0.259l0.445-0.188
			l0.493-0.123h0.217l0.17,0.123l0.194,0.123l0.123,0.199l0.205,0.317l0.129,0.21l0.271,0.159l0.205,0.088l0.264,0.076l0.299-0.064
			l0.288-0.123l0.615-0.293l0.569-0.312l0.363-0.094l0.27-0.018l0.194,0.089l0.234,0.128l0.199,0.341l0.246,0.381l0.323,0.47
			l0.211,0.193l0.37,0.117l0.351,0.018l0.265-0.059l0.37-0.17l0.403-0.199l0.17-0.247l0.007-0.123l-0.041-0.205l-0.082-0.129
			l-0.188-0.258l-0.299-0.317l-0.246-0.363l-0.141-0.293l-0.123-0.317l-0.059-0.375v-0.188l0.117-0.188l0.093-0.177l0.165-0.141
			l0.253-0.129l0.269-0.07l0.218,0.035h0.164l0.211,0.1l0.294,0.193l0.457,0.346l0.376,0.147l0.375,0.111h0.329l0.393-0.111h0.223
			l0.217,0.076l0.188,0.223l0.164,0.587l0.122,0.229l0.218,0.129h0.24l0.247-0.076l0.181-0.146l0.241-0.294l0.053-0.223l-0.035-0.27
			l-0.105-0.34l-0.229-0.399l-0.317-0.316l-0.229-0.328l-0.37-0.241l-0.281-0.223l-0.135-0.135l-0.123-0.271l0.035-0.187
			l0.053-0.153l0.164-0.223l0.281-0.188l0.594-0.123l0.34-0.036l0.593,0.059l0.439,0.136l0.322,0.2l0.37,0.374l0.21,0.481
			l0.218,0.446l0.205,0.164l0.252,0.135l0.294,0.111l0.375,0.035h0.152l0.176-0.053l0.376-0.158l0.34-0.123l0.628-0.123l0.434-0.023
			l0.287,0.035l0.417,0.111l0.633,0.164l0.458,0.07h0.692l0.34-0.047l0.375-0.135l0.329-0.13l0.246-0.082h0.246l0.241,0.013
			l0.628,0.135l0.621,0.123l0.633,0.223l0.458,0.246l0.223,0.246l0.159,0.317l-0.035,0.199l-0.13,0.271l-0.492,0.422l-0.235,0.281
			l-0.157,0.211l-0.013,0.212l-0.011,0.205l0.146,0.259l0.394,0.311l0.786,0.387l0.803,0.41l0.417,0.094l0.224-0.012l0.187-0.1
			l0.124-0.205l0.018-0.27l-0.018-0.317l-0.281-0.598l-0.276-0.376l-0.111-0.328l-0.053-0.328l-0.006-0.205l0.088-0.265l0.123-0.205
			l0.193-0.299l0.363-0.376l0.687-0.668l0.985-0.821l0.476-0.188l0.299-0.116l0.341-0.13l-2.294,0.064l-1.372-0.334l-1.231-0.446
			l0.123-0.627l0.322-0.306l0.716-0.475l0.663-0.399l0.469-0.305l1.044-0.234l1.354-0.076l1.021-0.124l0.628-0.199l0.78-0.422
			l1.812-1.279l1.959-1.583l0.81-0.492l0.399-0.13l0.387-0.076l1.185,0.282l1.314,0.246l1.021-0.053l0.463-0.111l0.428-0.253
			l0.329-0.252l0.452-0.382l0.41-0.463l0.111-0.581l0.141-0.562l-0.117-0.569l-0.335-0.369l-0.58-0.246l-1.314-0.54l-1.031-0.533
			l-0.376-0.628l-0.176-0.786l0.123-0.504l0.288-0.505l0.668-0.516l1.231-0.61l2.312-0.757l1.132-0.44l0.786-0.48l0.598-1.026
			l0.171-0.346l0.363-0.845l0.006-1.232l-0.376-2.088l-0.063-1.108l-0.287-0.569l-0.622-0.369l-1.243-0.716l-0.358-0.404l0.123-0.54
			l0.235-0.346l-1.156-3.631l-0.37-0.856l-0.374-0.598l-0.622-0.669l-0.687-0.733l-0.622-0.874l-0.369-0.997l-0.235-1.185
			l-0.123-1.373l0.165-0.738l0.315-0.862l0.67-0.78l2.234-1.83l0.95-0.763l0.892-1.197l0.533-1.876l-0.029-0.692l0.076-1.672
			l-0.023-3.448l-0.164-2.13l-0.293-2.052l-0.551-1.086l-0.687-1.026l-0.969-0.868l-2.633-1.924l-2.552-1.103l-1.454-0.388
			l-1.026,0.006l-2.306,1.227l-1.349,1.05l-2.094,0.874l-0.763-0.035l-1.25-0.499l-0.979-0.486l-0.493-0.47l-0.429-0.738
			l-0.27-0.569l-0.486-1.402l-0.522-1.502l-0.527-1.108l-0.582-0.838l-0.457-0.775l-0.041-0.327l0.217-0.376l0.376-0.317l0.81-0.069
			l0.815-0.013l0.815-0.122l0.34-0.199l0.164-0.418l-0.088-0.75l-0.234-0.599l-0.558-0.575l-0.851-0.573l-1.29-0.963l-0.562-0.505
			l-0.481-0.861l-0.012-0.628l0.24-0.363l0.375-0.294l1.373-0.398l2.188-0.716l2.11-0.868l0.774-0.376l0.358-0.34l0.157-0.763
			l0.029-0.41l-0.122-0.316l-0.429-0.435l-0.88-0.146l-0.903,0.047l-1.694,0.521l-0.622-0.034l-0.364-0.276l-0.076-0.416
			l0.206-0.551l0.657-0.846l2.826-2.627l0.37-0.434l0.064-0.552l-0.054-0.558l-0.281-0.369l-0.662-0.059l-1.661,0.697l-2.094,1.038
			l-0.485,0.083l-0.477-0.088l-0.544-0.341l-0.821-0.762l-0.477-0.493l-0.393-1.05l-0.234-1.091l0.123-3.303l0.317-3.472
			l0.123-1.672l-0.123-0.874l-0.095-1.098l-0.404-0.651l-0.974,0.382l-1.132,0.047l-0.082-0.152l-0.199,0.023l-0.471,0.141
			l-0.562,0.357l-0.398,0.183l-0.61,0.281l-0.873,0.399l-0.893,0.246l-0.785,0.07l-0.487,0.164l-0.347,0.347l-0.403,0.439
			l-0.177,0.493l-0.023,0.492l-0.035,0.587l-0.129,0.398l-0.188,0.246l-0.433,0.306l-0.3,0.199l-0.129,0.246l-0.035,0.247
			l-0.17,0.504l-0.105,0.387l-0.17,0.105l-0.376,0.199l-0.445-0.099l-0.271-0.347l-0.129-0.193l-0.123-0.053l-0.2-0.094h-0.151
			l-0.117,0.046l-0.223,0.153l-0.37,0.599l-0.369,0.393l-0.347,0.252l-0.376,0.053l-0.357-0.04l-0.627-0.177l-0.587-0.234
			l-0.182-0.188l-0.042-0.429l-0.023-0.527l0.13-0.962l-0.183-0.962l-0.803-0.734l-0.628-0.334l-0.862-0.122l-0.75,0.116
			l-0.834,0.505l-0.451,0.61l-0.183,0.692l-0.082,0.691l0.177,0.3l0.353,0.193l0.486-0.013h0.41l0.164,0.177l0.347,0.751
			l0.281,1.196l0.17,0.674l-0.023,0.136l-0.129,0.111l-0.287,0.199l-0.369,0.111l-0.657,0.007l-0.71-0.124l-0.897-0.211
			l-0.657-0.316l-0.422,0.058l-0.528,0.071l-0.429,0.152l-0.381,0.258l-0.328,0.293l-0.041,0.288l-0.17,0.874l0.029,1.466
			l0.117,0.281l0.334,0.347l0.622,0.17l0.845,0.041l0.657,0.123l0.381,0.141l0.423,0.446l0.053,0.492l-0.235,0.504l-0.129,0.153
			l-0.164,0.153l-0.276,0.104l-0.428,0.06l-0.37-0.047l-0.369,0.011l-0.275,0.095l-0.217,0.164l-0.234,0.246l-0.193,0.457
			l-0.124,0.563l-0.059,0.604l0.13,0.258l0.311,0.094l0.739-0.006l0.763-0.211l0.873-0.259h0.604l0.521,0.106l0.095,0.199
			l0.04,0.146l-0.141,0.657l-0.381,0.205l-0.493,0.211l-0.375,0.205l-0.908,0.206l-0.283,0.104l-0.286,0.259l-0.083,0.159
			l-0.034,0.403l0.252,0.821l0.164,0.622l0.088,0.369l-0.13,0.628l-0.368,0.728l-0.564,0.47l-0.597,0.21l-0.705,0.159h-0.422
			l-0.37-0.146l-0.135-0.259l0.013-0.258l0.006-0.827l-0.13-0.211l-0.252-0.146l-0.429,0.117l-0.627,0.376l-0.193-0.059
			l-0.341-0.106l-0.17-0.363l0.416-3.977v-0.552l-0.17-0.252l-0.457-0.095l-1.432,0.082l-2.533,0.101l-0.587-0.035l-0.399-0.089
			l-0.233-0.292l-0.323-0.382h-0.334l-0.275,0.059l-0.476,0.552l-0.312,0.305l-0.855,1.009l-0.117,0.398l-0.048,0.446l0.124,0.393
			l0.557,0.3l0.962,0.375l0.751,0.604l0.317,0.651l0.146,0.716l0.093,0.915l0.053,0.88l0.124,0.821l0.24,0.423l0.247,0.409
			l-0.042,0.471l-0.229,0.475L111.081,110h-0.265l-0.264-0.212l-0.322-0.199l-0.369-0.152l-0.423-0.053l-0.218,0.112l-0.128,0.369
			l-0.37,1.624l-0.293,0.593l-0.288,0.322l-0.275,0.105l-0.405-0.164h-0.187h-0.13l-0.316,0.246l-0.123,0.341l-0.235,0.68
			l-0.445,0.447l-0.445,0.269h-0.517l-0.405-0.069l-0.298-0.271l-0.37-0.094l-0.275,0.035l-0.13,0.135l-0.217,0.271l-0.252,0.381
			l-0.293,0.616l-0.177,0.17l-0.345,0.076l-0.376-0.029l-0.376-0.07l-0.117-0.271l-0.158-0.639l-0.094-0.675l-0.124-0.398
			l-0.199-0.165l-0.24,0.035l-0.123,0.071l-0.146,0.24l-0.264,0.546l-0.199,0.785l-0.124,0.271l-0.122,0.622l0.122,0.34
			l-0.017,0.281l-0.183,0.551l-0.416,0.247l-1.484,0.457l-1.83,0.293l-1.173,0.153l-0.622-0.035l-0.439-0.271l-0.229-0.311
			l-0.095-0.27l-0.122-0.663l0.111-0.58l0.229-0.593l0.018-0.369l-0.164-0.101l-0.311,0.176l-0.218,0.13l-0.481,0.07l-0.34-0.235
			l-0.346-0.264l-0.505-0.023l-0.797,0.205l-0.986,0.552l-0.375,0.352l-0.306,0.44l-0.228,0.445l-0.183,0.581l-0.135,0.428
			l-0.205,0.077l-0.241,0.069l-1.067,0.042l-0.486,0.17l-0.352,0.141l-0.218,0.275l-0.011,0.347l0.252,0.621l0.334,0.353l0.44,0.305
			l0.059,0.246l-0.006,0.141l-0.111,0.387l-0.294,0.353l-0.615,0.786l-0.317,0.141l-0.369,0.035h-0.376L84,122.247l-0.446-0.076
			l-0.369,0.041l-0.404,0.281l-1.015,0.938l-0.628,0.54l-0.563,0.293l-0.398,0.035l-0.323-0.07l-0.151-0.211l-0.365-0.111
			l-0.393-0.252l-0.034-0.253l0.193-1.32l0.686-1.94l0.921-1.531l0.446-0.821l0.223-0.552l0.082-0.41l-0.141-0.375l-0.299-0.129
			l-0.54-0.023l-0.716,0.034l-0.715,0.071l-0.875,0.176l-0.398,0.07l-0.322,0.164l-0.153,0.311l-0.104,0.347l0.264,0.199
			l0.593,0.398l0.258,0.271l0.129,0.176l-0.018,0.34l-0.3,0.728l-0.422,1.678l-0.199,0.95l-0.129,0.832l-0.053,0.752l0.188,1.23
			l0.152,0.875l0.023,0.568l-0.135,0.188l-0.205,0.181l-0.393,0.183l-0.628,0.076l-1.168,0.082l-1.296-0.182l-0.34-0.271
			l-0.177-0.292l0.007-0.447l0.527-2.104l0.586-1.502l0.065-0.628l-0.094-0.492l-0.265-0.282l-0.346-0.141h-0.275l-0.317,0.035
			l-0.281,0.177l-0.305,0.281l-0.13,0.281l-0.157,0.563l-0.206,0.745l-0.035,0.933l-0.076,0.387l-0.299,0.504l-0.375,0.341
			l-0.347,0.141l-0.37,0.035l-0.193-0.141l-0.129-0.439l0.024-0.651l-0.077-0.71l-0.287-0.51l-0.24-0.035l-0.552,0.035l-0.346,0.263
			l-0.106,0.171l-0.129,0.388l0.042,0.433l0.122,0.224l0.095,0.247l0.123,0.292l-0.054,0.247l-0.34,0.481l-0.322,0.433l-0.921,0.775
			l-0.763,0.48l-0.885,0.259l-1.139,0.176l-1.12,0.217l-0.722,0.246l-0.492,0.417l-0.322,0.458l-0.212,0.58l-0.105,0.814
			l-0.053,0.622l-0.035,0.47l-0.105,0.281l-0.17,0.082l-0.487,0.023l-0.486,0.042l-0.212,0.193l-0.275,0.281l-0.347,0.281h-0.21
			l-0.323-0.246l-0.728-0.575l-0.17-0.199l-0.176-0.199l-0.281-0.095l-0.312,0.082l-0.176,0.153l-0.199,0.398l-0.322,0.81
			l-0.064,0.61l0.006,0.54l0.076,0.374l0.252,0.335l0.422,0.259l1.092,0.099l0.985,0.053l1.079,0.124l0.439,0.129l0.258,0.375
			l0.13,0.353l0.122,0.469l-0.029,0.258l-0.134,0.352l-0.164,0.224l-0.476,0.352l-0.451,0.177l-0.37,0.094l-0.352,0.217
			l-0.323,0.275l-0.094,0.763l0.123,1.877l0.101,0.95l0.035,0.388v0.393l-0.088,0.357l-0.141,0.252l-0.481,0.165h-0.569l-0.88-0.035
			l-0.732-0.2h-0.376l-0.376,0.111l-0.093,0.158l-0.071,0.47l-0.029,0.897l0.217,1.033l0.364,0.803l-0.047,0.17l0.07,0.212
			l-0.129,0.316l-0.182,0.223l-0.363,0.376l-0.435,0.164l-0.44,0.099l-0.54,0.065l-0.41-0.042l-0.774-0.099l-0.979-0.13
			l-1.878-0.387l-0.34-0.094l-0.053-0.07l-0.117-0.164l0.088-0.235l0.369-0.346l0.328-0.17l0.13-0.129l0.006-0.094l-0.158-0.023
			l-0.364-0.013l-0.851-0.04l-1.431-0.082l-0.873-0.042l-0.435-0.035l-0.206-0.375l-0.128-0.522l-0.118-1.021l-0.211-0.492
			l-0.352-0.211l-0.423-0.047l-0.417,0.158l-0.633,0.398l-0.669,0.522l-0.387,0.198l-0.411,0.013l-0.375-0.347l-0.164-0.393
			l-0.129-1.067l-0.27-1.085l-0.224-0.376l-0.463-0.059H40.02l-0.363,0.048l-0.358,0.151l-0.311,0.159l-0.235,0.334l-0.199,0.445
			l-0.023,0.218l-0.017,0.399l0.104,0.516l0.358,0.393l0.229,0.616l-0.715-0.077l-0.423,0.376l-0.311,0.968l-0.382,0.663
			l-0.34-0.023l-0.721-0.082l-0.564-0.07l-0.48-0.035l-0.511-0.223l-0.562-0.405l-0.282-0.475l-0.128-0.622l-0.019-0.968
			l0.006-0.429l-0.246-0.363l-0.369-0.094l-0.792,0.123l-0.498,0.1l-0.423,0.382l-0.217,0.627l-0.065,0.88l0.141,0.821l0.323,0.211
			l-0.059,0.064l-0.111-0.023l-0.129-0.046l-0.224-0.019l-0.387-0.059l-0.369-0.059l-0.217-0.012l-0.317,0.023l-0.246-0.023
			l-0.218-0.053l-0.193-0.076l-0.193-0.047h-0.234l-0.152,0.088l0.041,0.123l0.188,0.1l0.527,0.124l0.416,0.111l0.358,0.122
			l0.1,0.101l-0.142,0.217l-0.363,0.176l-0.416,0.036l-0.517-0.053l-0.727-0.095l-0.54-0.193l-0.369-0.212l-0.358-0.246l-0.27-0.123
			l-0.281-0.029l-0.347,0.106l-0.445,0.198l-0.399,0.188l-1.256,0.381L22.682,147.164"/>
		<path id="Sahiwal_1_" style="fill:#CCCCCC;stroke:#FFFFFF;stroke-width:1.15;" d="M-83.601-109.579L-83.601-109.579l1.561-0.54
			l2.129-0.697l0.622-0.449l0.247-0.223l0.381-0.173l0.369,0.047l0.464,0.457l1.272,0.924l0.815,0.338l0.41,0.1l0.224-0.029
			l0.087-0.275l0.218-0.2l0.281-0.196l0.376-0.035l0.739,0.173l0.557,0.452l0.58,0.126l0.323-0.009l0.475-0.232l0.722-0.536
			l0.141-0.414l0.094-0.984l-0.188-1.112l-0.012-0.352l0.17-0.657l0.845-0.733l0.546-0.34l0.404-0.006l0.546,0.064l0.562,0.182
			l0.429-0.038l0.533-0.311l0.558-0.366l0.229-0.522l0.335-0.854l0.246-1.202l0.275-0.522l0.388-0.252l0.621-0.234l0.657-0.42
			l0.375-0.469l0.024-0.247l-0.13-0.322l-0.387-0.434l-0.012-0.402l0.369-0.773l0.382-0.769l0.428-0.584l0.464-0.527l0.34-0.385
			l0.029-0.223l-0.041-0.217l-0.369-0.104l-0.552-0.07l-0.628-0.451l-0.258-0.481l-0.012-0.384l0.34-0.305l0.329,0.047l0.451,0.296
			l0.452,0.179l0.357-0.035l0.281-0.278l-0.012-0.299l-0.264-0.218l-0.516-0.094l-0.147-0.24l0.1-0.278l0.435-0.226l1.373-0.279
			l0.943-0.454l0.435-0.338l0.129-0.299l-0.006-0.246l-0.299-0.265l-0.44-0.044l-0.621,0.013l-0.552-0.15l-0.199-0.217l0.1-0.22
			l0.498-0.314l0.394-0.498l0.211-0.493l-0.094-0.601l-0.387-0.616l-0.041-0.193l0.059-0.246l0.246-0.2l0.65-0.396l0.3-0.085
			l0.393,0.044l0.745,0.343l0.979,0.769l0.845,0.821l0.363,0.217l0.293-0.006l0.253-0.091l0.275-0.305l0.218-0.332l0.245-0.384
			l0.247-0.223l0.47-0.094l0.258-0.062l0.188-0.114l0.217-0.121l0.129-0.223l0.141-0.167l0.106-0.085l0.387-0.275l0.439-0.035
			l0.399,0.155l0.376,0.296l0.368,0.317l0.528,0.428l0.423,0.369l0.451,0.103l0.287-0.005l0.177-0.191l0.064-0.302l-0.2-0.294
			l-0.586-0.372l-0.423-0.349l-0.17-0.271l0.124-0.331l0.375-0.827l0.398-0.39l0.534-0.313l0.316-0.139l0.37-0.196l0.129-0.246
			l0.029-0.224l-0.012-0.302l-0.158-0.407l-0.37-0.372l-0.41-0.203l-0.44-0.021l-0.334-0.155l-0.082-0.185l-0.012-0.302l0.357-0.253
			l0.404-0.173l0.464-0.284l0.252-0.196l0.511-0.036l0.375,0.126l0.599,0.449l1.449,1.281l0.439,0.232l0.328-0.006l0.353-0.197
			l0.504-0.445l1.196-1.472l0.927-1.194l1.145-1.501l0.123-0.391l-0.17-0.217l-0.17-0.252l-0.007-0.183l0.493-0.334l0.123-0.223
			l-0.111-0.281l-0.568-0.458l-0.476-0.528l-0.669-0.457l-0.422,0.012l-1.051,0.097l-0.422,0.007l-0.927-0.344l-1.601-0.936
			l-0.358-0.32l-0.059-0.252l0.182-0.756l0.487-0.769l0.281-0.432l0.041-0.325l-0.17-0.323l-0.006-0.252l-0.018-0.36l0.451-0.372
			l0.246-0.224l0.417-0.006l0.211,0.174l0.376,0.026l0.246-0.08l0.199-0.252l0.34-0.439l0.188-0.329l0.129-0.331l-0.012-0.252
			l-0.012-0.396l-0.123-0.612l-0.37-0.414l-0.229-0.681l-0.07-0.574l0.029-0.751l0.369-0.514l0.029-0.539l0.182-0.833l0.558-1.311
			l0.316-0.941l0.651-0.771l0.646-0.443l0.604-0.155l0.599-0.015l0.37-0.006l0.375-0.293l0.551-0.334l1.098-0.423l1.132-0.132
			l1.032-0.437l0.692-0.71l0.369-0.517l0.199-0.651l0.123-0.75l-0.094-0.839l-0.1-0.476l-0.328-0.486l-0.95-0.458l-1.044-0.593
			l-0.435-0.41l-0.141-0.419l-0.041-0.39l0.171-0.44l0.216-0.402l-0.022-0.36l-0.06-0.246l-0.381-0.155l-0.217-0.241l-0.035-0.39
			l0.035-0.179l0.709-0.607l0.317-0.446l-0.029-0.316l-0.211-0.24l-0.522-0.258l-0.628-0.114l-0.798,0.035l-0.861-0.144
			l-0.681-0.288l-0.399,0.094l-0.75,0.039l-0.599-0.08l-0.546-0.51l-0.404-0.053l-0.446,0.161l-0.88,0.337l-0.627,0.167l-0.41-0.091
			l-0.575-0.293l-0.44-0.337l-0.029-0.361l0.036-0.214l0.234-0.261l0.646-0.317l0.258-0.366l0.07-0.252l-0.023-0.36l-0.271-0.385
			l-0.322-0.487l-0.035-0.354l-0.012-0.144l0.123-0.114l0.346-0.012l0.358,0.018l0.504,0.05l0.376-0.126l0.686-0.282l0.411-0.056
			l0.405-0.018l0.416,0.155l0.445,0.408l0.282,0.486l0.639,0.326l0.505,0.047l0.369-0.126l0.558-0.42l0.422-0.596l0.47-0.48
			l0.628-0.568l0.662-0.675l0.61-0.528l0.346-0.018l0.299,0.097l0.224,0.162l0.363,0.343l0.323,0.34l0.568,0.079l0.54-0.059
			l0.451-0.097l0.476-0.305l0.363-0.302l0.435-0.449l0.17-0.404l-0.117-0.247l-0.347-0.161l-0.687-0.217l-0.738-0.426l-1.044-0.595
			l-0.692-0.288l-0.915-0.097l-1.226-0.193l-2.317-0.138l-1.895-0.408l-1.572-0.138l-3.067,0.007l-1.549-0.068l-0.621-0.287
			l-0.023-0.281l0.223-0.338l0.381-0.516l0.183-0.293l-0.129-0.212l-0.306-0.24l-1.431-0.713l-0.183-0.313l0.123-0.287l0.183-0.259
			l0.434-0.272l0.2-0.006l0.264,0.235l0.287,0.451l0.616,0.076l0.646-0.173l0.82,0.246l2.042,0.9l2.252,1.141l1.695,0.525
			l1.015,0.126l0.804-0.108l0.709-0.464l0.177-0.439l-0.036-0.391l-0.182-0.372l-0.141-0.493l-0.035-0.492l-0.035-0.281l0.17-0.476
			l0.035-0.214l-0.105-0.275l-0.621-0.651l-0.429-0.607l-0.545-0.51l-0.692-0.499l-0.499,0.062l-0.486,0.306l-1.162,1.305
			l-0.844,0.643l-0.464,0.023l-0.316-0.414l-0.182-0.812l-0.522-0.367l-1.936-0.155l-1.854-0.018l-1.325,0.313l-1.824,0.517
			l-1.25,0.059l-1.337-0.438l-0.722-0.108l-0.997,0.12l-0.487,1.085l-0.275,0.76l-0.07,0.54l-0.018,0.648l0.111,0.829l0.012,0.396
			l0.018,0.425l-0.281,0.546l-0.575,0.663l-1.196,0.924l-1.126,0.751l-1.419,0.636l-1.003,0.313l-0.846,0.162l-0.574-0.023
			l-1.073-0.446l-0.997-1.062l-0.616-0.991l-0.598-0.889l-0.616-0.631l-0.944-0.416l-0.88-0.123l-0.628,0.012l-0.921,0.24
			l-0.874,0.161l-0.61,0.012l-1.554-0.085l-0.985-0.155l-1.379-0.041l-1.683,0.035l-1.989,0.041l-1.267-0.076l-1.126-0.411
			l-1.196-0.763l-0.897-0.958l-0.37-0.751l-0.135-0.607l0.171-1.123l0.27-0.979l0.064-0.83l-0.234-0.607l-0.634-0.305l-1.848-0.504
			l-2.018-0.59l-1.49-0.366l-0.88-0.481l-0.434-0.316l-0.458,0.337l-0.146,0.293l-0.041,0.18l0.012,0.434l-0.117,0.54l-0.2,0.404
			l-0.65,0.551l-0.897,0.558l-0.698,0.739l-0.311,1.123l-0.07,0.505l0.006,0.858l-0.141,0.687l-0.287,0.329l-0.704,0.416
			l-1.104,0.196l-1.425,0.073l-0.604,0.082l-0.3,0.224l-0.287,0.331l-0.141,0.437l0.018,0.613l0.381,0.672l0.54,0.745l-0.546,0.897
			l-2.029-0.183l-2.123,0.493l-0.745,0.733l-0.429,0.173l-0.393,0.067l-0.499-0.018l-0.896-0.229l-0.751-0.193l-0.363,0.026
			l-0.335,0.173l-0.123,0.167l-0.411,0.378l-0.639,0.733l-0.305,0.452l-0.048,0.51l0.176,1.094l-0.164,1.13l-0.018,0.7l0.17,0.561
			l0.312,0.442l0.609,0.211l0.821,0.168l0.751,0.234l1.149,0.613l0.675,0.401l0.176,0.405v0.533l-0.129,0.918l-0.657,1.684
			l-1.325,2.718l-0.388,1.136l-0.134,0.795l-0.012,1.753l-0.012,2.054l-0.224,0.51l-0.357,0.24l-0.669,0.104l-0.621,0.047
			l-0.229,0.114l-0.129,0.319l0.059,0.511l0.176,0.469l0.129,0.252l0.622,0.209l0.575,0.17l0.651,0.19l0.188,0.234l0.164,0.511
			l0.24,1.088l0.129,0.833l0.305,0.728l0.511,0.854l0.505,0.659l0.557,0.555l0.34,0.252l0.124,0.361l-0.105,0.475l-0.048,0.769
			l0.165,0.618l0.205,0.599l0.375,0.492l0.253,0.235l0.369,0.144l0.634,0.108l0.533,0.062l0.563,0.06l0.188,0.216l0.205,0.534
			l0.141,0.877l-0.047,0.578l-0.223,0.349l-0.422,0.461l-0.37,0.498l-0.17,0.234l0.023,0.326l0.229,0.936l-0.018,0.343l-0.223,0.299
			l-0.328,0.153l-0.698,0.087l-0.457-0.017l-0.435-0.191l-0.798-0.486l-0.551-0.51l-0.481-0.297l-0.527-0.108l-0.64-0.082
			l-0.839-0.17l-0.527-0.208l-0.528,0.005l-0.27,0.209l-0.064,0.41l0.005,0.511l0.194,0.51l0.223,0.338l0.135,0.814l0.129,0.962
			l-0.158,0.637l-0.059,0.407l0.094,0.303l0.188,0.293l0.369,0.253l0.498,0.185l0.552,0.234l0.434,0.278l0.335,0.449l0.123,0.425
			l-0.094,0.493l-0.247,0.492v0.234l0.095,0.303l0.533,0.618l0.205,0.622l-0.035,0.469l-0.129,0.326l-0.599,0.407l-0.128,0.32
			l-0.054,0.401l-0.082,0.343l-0.129,0.276l-0.346,0.126l-0.651,0.108l-0.827-0.103l-0.874-0.294l-0.944-0.102h-0.809l-0.44,0.131
			l-0.211,0.174l-0.041,0.252l0.211,0.302l0.404,0.402l0.363,0.36l0.118,0.361l-0.141,0.214l-0.271,0.275l-0.48,0.193l-0.968,0.224
			l-0.862,0.173l-0.387,0.325l-0.247,0.625l-0.082,0.574l0.006,0.452l0.199,0.19l0.364,0.085l0.316,0.062l0.152,0.167l0.064,0.493
			l-0.264,0.437l-0.439,0.338l-0.651,0.337l-0.833,0.39l-0.599,0.224l-0.258,0.275l-0.176,0.499v0.437l-0.129,0.669l-0.323,0.39
			l-0.855,0.666l-0.769,0.669l-0.851,1.055l3.132,0.654l4.041,1.719l0.452,0.516l0.897,0.188l0.533-0.132l0.44-0.657l0.974-1.375
			l0.598-0.913l0.839-0.785l1.373-0.528l1.062-0.272l1.672,0.439l1.454,0.89l1.443,0.568l1.214,0.439l2.253,0.596l1.53,0.631
			l0.452,0.448l0.686,0.71l0.991,0.446l1.309,0.504l0.921,0.833l1.226,0.83l0.311,0.774l0.235,0.325l0.627,0.185l1.215,0.12
			l0.621,0.32l1.455,1.22l0.687,1.026l0.621,0.574l1.009,0.578l0.376,0.584l0.012,0.258L-83.601-109.579"/>
	</g>
</g>
<g id="Layer_1_1_">
</g>
</svg>
