<?xml version="1.0" encoding="iso-8859-1"?>
<!-- Generator: Adobe Illustrator 16.0.4, SVG Export Plug-In . SVG Version: 6.00 Build 0)  -->
<!DOCTYPE svg PUBLIC "-//W3C//DTD SVG 1.1//EN" "http://www.w3.org/Graphics/SVG/1.1/DTD/svg11.dtd">
<svg version="1.1" xmlns="http://www.w3.org/2000/svg" xmlns:xlink="http://www.w3.org/1999/xlink" x="0px" y="0px" width="44.9px"
	 height="36.877px" viewBox="0 0 44.9 36.877" style="enable-background:new 0 0 44.9 36.877;" xml:space="preserve">
<g id="Layer_70">
	<g id="Layer_75">
		<path id="Pishin" style="fill:#CCCCCC;stroke:#FFFFFF;stroke-width:1.07;" d="
			M24.679,1.182L24.679,1.182l0.724,0.02L25.257,1.24l-0.451,0.139l-0.375,0.077L24.058,1.49l-0.485,0.042L22.977,1.52L22.63,1.5
			l-0.05-0.013l-0.093-0.004l-0.144-0.006l-0.831,0.28l-0.19-0.023L21.123,1.71l-0.005-0.002l-0.243,0.544l-0.317,0.646
			l-0.059,0.448L20.47,3.598l0.083,0.195l0.198,0.222l0.066,0.292l-0.078,0.267l-0.096,0.141l-0.34,0.157l-0.307,0.157l-0.242,0.184
			L19.61,5.452l-0.142,0.365L19.217,6.49l-0.234,0.688l-0.061,0.35l0.003,0.224l0.169,0.487l0.322,0.54l0.083,0.125l-0.046,0.155
			L19.18,9.313l-0.242,0.114l-0.563,0.412l-0.227,0.114l-0.47,0.103l-0.34,0.074l-0.21,0.1l-0.45,0.341l-0.434,0.354l-0.5,0.299
			l-1.016,0.556l-0.387,0.186l-0.578,0.426l-0.45,0.34l-0.265,0.148l-0.041,0.023l-0.113,0.016l-0.147-0.068l-0.133-0.208
			l-0.166-0.264l-0.23-0.179l-0.378-0.303l-0.312-0.178l-0.572-0.203l-0.375-0.066l-0.683-0.03l-0.453,0.131l-0.307,0.102
			L8.88,11.824l-0.257,0.171l-0.111,0.183l0.002,0.126l0.084,0.181l0.052,0.223l-0.015,0.098l-0.096,0.071l-0.454,0.062l-0.26,0.017
			L7.6,13.099l-0.128,0.127l-0.175,0.226l-0.225,0.128l-0.146,0.03L6.584,13.56l-0.278-0.15l-0.213-0.082L5.98,13.328l-0.179-0.012
			L5.54,13.208l-0.182-0.152L5.21,12.904l-0.116-0.167L4.91,12.517l-0.164-0.11l-0.197-0.109l-0.147-0.054l-0.243,0.004
			l-0.372,0.145l-0.323,0.144l-0.125,0.066l-0.18,0.28L3.055,13.01l-0.047,0.188l0.022,0.129l0.058,0.099l0.103,0.069l0.104,0.05
			l0.16,0.099l0.148,0.237l0.08,0.208l0.011,0.237l-0.037,0.701l-0.059,0.405l-0.139,0.483l-0.121,0.355l-0.53,0.789l-0.541,0.73
			l-0.459,0.552l-0.392,0.542l-0.494,0.681l-0.264,0.395l-0.082,0.315L0.54,20.58l0.022,0.158l0.102,0.316l0.17,0.484l0.193,0.396
			l0.296,0.554l0.159,0.366l0.25,0.554l0.296,0.663l0.321,0.593l0.307,0.553l0.364,0.674l0.192,0.425l0.228,0.593l0.318,0.465
			l0.227,0.356l0.398,0.594l0.366,0.533l0.375,0.534l0.262,0.287l0.238,0.297l0.272,0.386l0.216,0.287l0.233,0.249l0.188,0.449
			l0.218,0.552l0.032,0.282v0.018l0.084,0.115l0.185,0.119l0.127,0.107l0.101,0.107l0.061,0.143l0.082,0.496l0.071,0.301L7.62,33.75
			l0.161,0.178l0.186,0.223l0.08,0.293l0.196,0.308l0.261,0.286l0.128,0.257l0.111,0.208l0.143,0.121l0.209,0.105l0.143,0.093
			l0.108,0.021l0.058-0.021h0.042l0.107,0.013l0.076,0.035l0.101,0.063l0.101,0.064l0.125,0.013l0.133-0.022l0.058-0.043
			l0.074-0.059l0.049-0.072l0.05-0.036l0.058-0.009l0.125,0.027l0.183,0.027l0.067,0.057l0.052,0.122l0.059,0.071l0.158,0.062
			l0.341,0.049l0.501,0.132l0.391,0.024l0.141-0.022l0.165-0.087l0.165-0.146l0.263-0.269l0.245-0.354l0.131-0.202l0.304-0.27
			l0.263-0.305l0.222-0.16l0.137-0.092l0.405-0.233l0.42-0.328l0.181-0.146l0.133-0.06l0.091-0.001l0.083,0.006l0.15,0.043
			l0.15,0.004l0.1-0.021l0.125-0.001l0.092,0.034l0.166,0.027l0.083-0.015l0.149-0.081l0.447-0.197l0.521-0.257l0.123-0.103
			l0.041-0.071l0.033-0.05l0.025-0.029l0.042-0.008l0.058,0.027l0.076,0.08l0.106,0.145l0.151,0.165l0.093,0.063h0.083l0.05-0.029
			l0.041-0.072l0.007-0.059l0.034-0.021l0.058-0.008l0.208,0.049l0.209,0.093l0.042,0.065l0.11-0.019l0.123-0.002h0.034
			l-0.008-0.074l0.041-0.147l0.078-0.128l0.148-0.162l0.079-0.107l0.045-0.086l-0.016-0.062l-0.039-0.071l-0.09-0.102l-0.042-0.113
			l-0.006-0.125l0.044-0.105l0.208-0.176l0.326-0.263l0.233-0.166l0.359-0.315l0.186-0.153l0.16-0.194l0.055-0.105l0.006-0.127
			l0.042-0.115l0.029-0.146l0.065-0.14l0.077-0.17l0.104-0.099l0.114-0.129l0.117-0.078l0.13-0.058l0.222-0.089l0.271-0.135
			l0.505-0.312l0.342-0.18l0.304-0.209l0.06-0.002l0.051,0.02l0.086,0.028l0.106-0.024l0.14-0.109l0.408-0.34l0.396-0.295
			l0.374-0.264l0.444-0.299l0.508-0.248l0.488-0.195l0.238-0.061l0.206-0.008l0.399-0.004l0.23,0.023l0.199,0.118l0.197,0.099
			l0.186,0.076l0.33,0.127l0.135,0.036l0.307,0.095l0.1,0.068l0.184,0.287l0.189,0.453l0.203,0.463l0.141,0.152l0.188,0.171
			l0.14,0.141l0.225,0.16l0.272,0.126l0.052,0.062l0.002,0.072l0.027,0.084l0.005,0.094l0.029,0.113l0.054,0.104l0.1,0.07
			l0.22,0.033l0.354,0.051l0.303,0.043l0.22,0.045l0.208,0.064l0.085-0.003l0.069-0.054l0.033-0.055l0.027-0.199l0.055-0.137
			l0.049-0.252l0.062-0.19l0.047-0.043l0.284-0.125l0.176-0.111l0.104-0.075l0.129-0.121l0.109-0.254l0.041-0.158l0.062-0.242
			l0.025-0.211l0.018-0.168l0.055-0.116l0.053-0.046l0.201-0.102l0.264-0.07l0.273-0.094l0.344-0.125l0.35-0.043l0.289-0.021
			l0.386-0.044l0.481-0.027l0.51,0.025l0.354,0.051l0.156-0.005l0.348-0.064l0.312-0.042l1.464-0.103l-0.054-0.082L39.21,27.01
			l-0.214-0.375l-0.146-0.301l-0.021-0.141l-0.004-0.016l0.004-0.131l0.043-0.131l0.09-0.101l0.074-0.017l-0.236-0.188l-0.146-0.218
			l-0.039-0.18l0.002-0.119l0.074-0.201l0.059-0.215l0.003-0.144l-0.052-0.155l-0.19-0.183l-0.245-0.22l-0.039-0.119l-0.012-0.12
			l-0.038-0.168l-0.065-0.168l-0.108-0.085l-0.082-0.049l-0.166-0.038l-0.125-0.003l-0.14,0.035l-0.068,0.035l-0.295,0.209
			l-0.139,0.022l-0.152-0.015l-0.068-0.049h-0.068l-0.098,0.01l-0.14,0.07l-0.167,0.057L36.169,23.6h-0.097l-0.151-0.051
			l-0.207-0.051l-0.124-0.049l-0.249,0.008l-0.125,0.034l-0.168,0.069l-0.293,0.162l-0.265,0.068l-0.375,0.078l-0.479,0.001
			l-0.347-0.017l-0.18-0.004l-0.193,0.021l-0.417,0.126l-0.265,0.056l-0.442,0.054l-0.761-0.022l-0.496-0.102l-0.233-0.146
			l-0.188-0.242l-0.012-0.119l-0.037-0.262l0.004-0.252l-0.08-0.203l-0.133-0.242l-0.055-0.071l-0.179-0.05l-0.429-0.03
			l-0.707,0.099l-0.194,0.021l-0.166-0.026l-0.08-0.156l-0.04-0.097l0.113-0.166l0.184-0.235l0.35-0.176l0.502-0.207l0.209-0.141
			l0.1-0.105l0.059-0.144l-0.008-0.403l-0.005-0.525l0.005-0.262l0.086-0.154l0.17-0.165l0.168-0.142l0.114-0.201l0.089-0.322
			l0.006-0.334l-0.074-0.455l-0.137-0.158l-0.149-0.085l-0.318-0.04l-0.345-0.064l-0.206-0.122l-0.222-0.191l-0.02-0.033
			l-0.021-0.107l-0.008-0.107l0.08-0.222l0.209-0.336l0.203-0.166l0.178-0.155l0.203-0.166l0.066-0.148l0.04-0.084l0.002-0.074
			l0.041-0.106l0.089-0.083l0.301-0.089l0.383-0.034l0.445-0.021l0.359,0.008l0.148-0.028l0.562-0.23l0.288-0.121l0.313-0.121
			l0.36-0.108l0.438-0.181l0.449-0.084l0.235-0.058l0.164-0.082l0.19-0.177l0.254-0.175l0.312-0.131l0.402-0.203l0.355-0.258
			l0.268-0.238l0.283-0.355l0.234-0.357l0.234-0.346l0.244-0.229l0.394-0.31l0.427-0.318l0.584-0.454l0.33-0.237l0.445-0.351
			l0.43-0.277l0.442-0.255l0.329-0.226l0.406-0.256l0.215-0.123l0.179-0.166l0.116-0.157l0.236-0.377l0.254-0.513l0.026-0.053
			l0.065-0.115l0.054-0.095l0.004-0.096l0.002-0.075L41.9,7.493l-0.121-0.056l-0.196-0.069L41.462,7.28l-0.046-0.086l0.018-0.127
			l0.077-0.083l0.138-0.05l0.137,0.003l0.21,0.006l0.272,0.007l0.324-0.045l0.338-0.076l0.238-0.101l0.23-0.197l0.104-0.168
			l0.041-0.116l0.019-0.191l0.066-0.105l0.053-0.062l0.051-0.042l0.103-0.093l0.126-0.082l0.076-0.052l0.04-0.063l0.001-0.053
			l0.003-0.074l-0.083-0.12L43.9,5.233l-0.07-0.087l-0.01-0.085l0.053-0.094L44,4.874l0.119-0.2l0.184-0.251l0.053-0.126
			l-0.008-0.096l-0.023-0.054L44.24,4.081l-0.123-0.035l-0.213,0.037l-0.461,0.105l-0.41,0.032l-0.174-0.004l-0.446-0.022
			l-0.298-0.029L41.906,4.16l-0.225,0.004l-0.236,0.058l-0.389,0.085l-0.375,0.086l-0.236,0.016l-0.354-0.126L39.783,4.19
			l-0.147-0.004l-0.176,0.06l-0.149,0.028l-0.106-0.051l-0.195-0.09l-0.223-0.005l-0.212,0.016l-0.37-0.042l-0.405-0.138
			l-0.438-0.245l-0.233-0.102l-0.319-0.083l-0.533-0.013l-0.448,0.053l-0.687,0.122l-0.349,0.045L34.67,3.696l-0.094-0.152
			l-0.09-0.29l-0.068-0.172l-0.083-0.13l-0.224-0.389l-0.09-0.269l-0.168-0.217l-0.238-0.262l-0.342-0.2l-0.428-0.077l-0.187-0.004
			l-0.485,0.02l-0.535,0.072l-0.515,0.169l-0.548,0.051l-0.199,0.017L29.98,1.821l-0.17-0.1l-0.328-0.189l-0.131-0.174l-0.095-0.194
			l-0.094-0.173l-0.097-0.087l-0.099-0.035l-0.137-0.003L28.771,0.8l-0.035-0.107l-0.022-0.066l-0.041,0.009L28.115,0.85
			l-0.438,0.144l-0.57,0.188l-0.295,0.06l-0.363,0.073l-1.012-0.106L24.679,1.182"/>
	</g>
</g>
<g id="Layer_1">
</g>
</svg>
