<?xml version="1.0" encoding="utf-8"?>
<!-- Generator: Adobe Illustrator 16.0.4, SVG Export Plug-In . SVG Version: 6.00 Build 0)  -->
<!DOCTYPE svg PUBLIC "-//W3C//DTD SVG 1.1//EN" "http://www.w3.org/Graphics/SVG/1.1/DTD/svg11.dtd">
<svg version="1.1" id="Layer_1" xmlns="http://www.w3.org/2000/svg" xmlns:xlink="http://www.w3.org/1999/xlink" x="0px" y="0px"
	 width="301.09px" height="257.195px" viewBox="-129.686 -110.711 301.09 257.195"
	 style="enable-background:new -129.686 -110.711 301.09 257.195;" xml:space="preserve">
<g id="Layer_60">
	<path id="Khanewal" style="fill:#CCCCCC;stroke:#FFFFFF;stroke-width:1.15;" d="M-63.985-59.852L-63.985-59.852l-0.446,0.495
		l-0.362,0.711l-0.69,1.227l-0.913,1.568l-1.087,1.75l-0.433,0.697l-1.597,1.938l-0.731,1.073l-1.053,1.087l-0.739,0.6l-1.233,0.69
		l-1.373,0.648l-1.401,0.425l-2.391,0.314l-1.192-0.049l-0.453,0.153l-0.32,0.251l-0.411,0.564l-0.558,0.669l-0.438,0.718
		l-0.858,1.066l-1.254,0.76l-1.081,0.46l-1.568,0.627l-2.376,0.885l-2.427,0.579l-2.411,0.537l-1.659,0.446l-1.513,0.495
		l-1.491,0.641l-0.795,0.446l-0.418,0.467l-0.16,0.446l-0.049,1.206l-0.028,1.178l-0.251,0.92l-0.146,0.348l-0.475,0.412
		l-1.052,0.641l-0.955,0.3l-0.6,0.125l-0.446,0.377l-0.209,0.292l-0.146,0.307l-0.069,0.376l0.098,0.495l0.083,0.641v0.46
		l-0.181,0.411l-0.495,0.328l-1.777,0.439l-1.297,0.578l-1.045,1.011l-0.864,0.892l-0.899,0.802l-0.948,1.269l-0.69,0.92
		l-0.585,0.377l-0.844,0.188l-1.011-0.042l-0.689-0.237l-0.962-0.544l-0.697-0.453l-0.426-0.432l-0.411-0.467l-0.745-0.425
		l-0.642-0.32l-0.558-0.154l-0.307,0.042l-0.704,0.439l-0.711,0.453l-0.439,0.139l-0.293,0.007l-0.571-0.118l-0.481-0.133
		l-0.348,0.056l-0.14,0.14l-0.146,0.258l-0.146,0.418l-0.021,1.15l0.383,1.457l0.439,0.656l0.502,0.606l0.438,0.676l0.05,0.635
		l-0.153,0.334l0.236,0.146l0.342,0.39l0.551,0.174h0.578l0.795-0.07l0.753-0.286l0.669-0.467l0.397-0.035l0.481,0.035l0.745-0.035
		l1.206-0.146l1.534-0.467l0.731-0.105l0.885,0.209l1.039,0.711l0.892,0.669l0.899,1.457l0.293,0.627l0.175,0.32l0.056,0.537
		l0.201,0.6l0.188,0.286l0.468,0.181l0.711,0.07l0.342,0.104l0.285,0.286l0.425,0.391l0.335,0.104h0.411l0.209-0.181l0.146-0.355
		l-0.153-0.46l-0.258-0.495l-0.104-0.433l0.133-0.25l0.244-0.146l0.627-0.035l0.738,0.39l1.039,0.781l1.889,0.801l1.764,0.642
		l0.941,0.244l0.404,0.209l0.042,0.391l-0.195,0.648l-0.453,0.955l-0.502,0.572L-99.5-7.643l0.014,0.286l0.313,0.251l0.712,0.286
		l1.094,0.418l1.018,0.676l1.555,1.171l1.046,1.018l0.146,0.676l0.008,0.391l-0.168,0.495l-0.438,0.495l-0.377,0.355l-0.571,0.362
		l-0.146,0.174l-0.063,0.397l0.259,0.71l0.216,0.614l0.056,0.76l0.349,0.439l0.948,0.439l1.944,0.474l1.722,0.725l1.631,0.718
		l1.688,1.081l0.592,0.181h0.377l0.439-0.39l0.851-1.45l0.452-1.003l0.328-0.363l0.537-0.104l0.592,0.181l0.258,0.376v0.321
		l-0.446,0.739l-0.522,0.857l-0.439,0.481l-0.459,0.439l-0.154,0.237l-0.027,0.293l0.174,0.334l0.251,0.265v0.411l-0.271,0.446
		l-0.739,0.718l-0.564,0.6l-0.648,0.969l-0.571,1.053l-0.355,1.373l0.014,0.669l0.049,0.767l0.286,0.349l1.449,1.053l1.854,1.129
		l1.046,0.544l0.92,0.09l2.049-0.014l1.938-0.062l0.704,0.223l1.394,0.655l2.81,1.128l0.745,0.293l0.844,0.67l0.258,0.439
		l0.335,0.09l0.293,0.029l0.376-0.252l0.404-0.154l0.593,0.057l0.376,0.223l0.418,0.244l0.447-0.084l0.487-0.236l0.411-0.725
		l0.781-0.76l0.445-0.635l0.711-0.502l0.453-0.111l0.419,0.146l0.174,0.363l0.133,0.522l0.153,0.398l0.209,0.438l0.425,0.197
		l1.039,0.438l0.606,0.445l0.349,0.35l0.342,0.168h0.334l1.066-0.279l1.896-0.572l1.931-0.152l2.397,0.168l2.043,0.557l0.885,0.35
		l0.613,0.25l0.167,0.291l0.153,0.441l0.021,0.6l-0.14,0.877l-0.285,1.123l-0.439,0.926l-0.739,1.039l-0.453,1.15l-0.62,1.346
		l-0.48,1.422l-0.363,1.338l-0.327,0.754l0.007,0.445l0.334,0.16h0.712l1.345-0.25l1.004-0.043l0.802,0.189l0.585,0.369l0.433,0.23
		l0.293,0.152h0.446l0.71-0.174l1.416-0.244l2.084-0.613l1.882-0.648l1.039-0.244l0.892-0.328l1.095-0.445l0.767,1.115l0.746,1.184
		l0.76,1.311l0.293,0.488l0.411,0.613l0.571,0.182l0.78,0.035l0.739,0.258l0.244,0.279l-0.021,0.383l-0.62,1.514l-0.23,0.418
		l-0.334,0.195l-0.265,0.111l-0.328,0.049l-0.278,0.312l-0.091,0.398l-0.236,0.654l-0.286,0.307h-0.153l-0.433,0.146l-0.271,0.154
		l-0.286,0.375l-0.3,0.656l-0.251,0.119l-0.99,0.012l-0.843,0.086l-0.146,0.195l-0.446,0.842l-0.132,1.047l0.738,0.453l0.564,0.188
		l-0.355,0.195l-0.334,0.738l-0.669,1.346l-0.684,1.039l-0.411,0.445l-0.558,0.189l-0.404,0.139l-0.474,0.146l-0.237,0.264
		l-0.418,0.58l-0.091,0.605l-0.028,0.746l-0.167,0.781l-0.251,0.521l-0.578,0.852l-0.453,0.516l-0.252,0.863l-0.194,1.381
		l-0.439,1.791l-0.711,1.904l-0.982,1.338l-0.732,0.725l-0.99,0.738l-1.338,0.385l-0.893,0.242l-1.205,0.852l-0.565,0.502
		l-0.745,1.373l-0.21,0.461l-0.125,0.73l-0.021,0.789l0.146,0.746l-0.021,0.424l-0.236,0.67l-0.35,0.418l-1.108,0.752l-0.745,0.447
		l-0.781,0.584l-0.432,0.252l-0.091,0.459l-0.098,0.398l-0.027,0.746l0.383,1.059l-0.007,0.334l-0.182,0.67l-0.654,0.865
		l-0.084,0.404l-0.021,0.418l-0.161,0.836l-0.16,0.271l-0.118,0.516l-0.342,0.859l-0.642,0.438l-0.236,0.412l-0.83,1.639
		l-1.06,1.875l-1.143,1.666l-0.495,0.676l-0.642,0.668l-0.641,0.51l-0.167,0.258l-0.021,0.684l-0.328,0.516l-0.48,0.787
		l-0.439,1.039l0.056,1.031l-0.265,1.039l-0.292,0.586l-0.405,0.453l-0.132,0.264l-0.14,0.502l-0.014,0.432l-0.335,0.6l-0.642,0.32
		l-1.296,0.719l-1.186,0.133l-1.018-0.014l-0.536-0.35l-0.551-0.209h-0.391l-0.313,0.146l-0.125,0.445l-0.015,0.531l-0.335,0.516
		l-0.397,0.266l-0.418,0.271l-0.647,0.25l-0.146,0.266l-0.161,0.18l-0.236,0.74l-0.537,0.152l-0.467-0.014l-0.313-0.188
		l-0.537-0.279l-0.544-0.195l-0.32,0.146l-0.32,0.258l-0.321,0.342l-0.327,0.439l-0.327,0.131l-0.795,0.252l-1.039,0.314
		l-1.024,0.453l-0.453,0.445l-0.642,0.74l-0.809,1.436l-0.209,0.473l-0.355,0.258l-0.376-0.006l-0.635,0.049l-0.445,0.201
		l-0.517,0.643l-0.383,0.312l-0.384,0.252l-0.571,0.152l-1.346,0.043l-0.738,0.082l-1.437,0.049l-1.129,0.098l-2.377,0.029
		l-0.795,0.119l-0.564,0.305l-0.669,0.586l-0.397,0.453l-0.439,0.838l-0.411,0.25l-0.642,0.432l-0.564,0.146l-0.954,0.461
		l-0.503,0.375l-0.396,0.844l-0.481,1.701l-0.174,0.906l-0.446,1.213l-0.572,0.648l-0.383,0.361l-0.502,0.266h-0.439l-0.494-0.23
		l-0.363-0.529l-0.46-1.24l-0.216-0.369l-0.495-0.279l-0.996-0.154l-0.753,0.057l-0.628,0.25l-1.582,0.67l-0.446,0.266l-0.16,0.193
		l-0.104,0.439l0.077,0.531l-0.266,0.453l-0.327,0.445l-0.258,0.627l0.202,0.439l0.487,0.467l0.621,0.168l1.024,0.258l0.439,0.209
		l0.307,0.334l0.745,0.223l0.384-0.125l0.383-0.209l0.621,0.027l0.188,0.146l0.355,0.725l0.301,0.469l0.487,0.445l0.439-0.098
		l0.446-0.152l0.689-0.266l0.313,0.014h0.446l0.439,0.141l0.564,0.125h0.495l0.487-0.635l0.259-0.426l0.425-0.85l0.391-0.32
		l0.69-0.127l0.445,0.016l0.628,0.158l0.362,0.385l0.558,0.285l0.676,0.377l0.244,0.404l0.16,0.586l-0.153,0.424l-0.327,0.377
		l-0.266,0.529l-0.139,0.377l-0.015,0.529l-0.153,0.643l-0.327,0.703l-0.32,0.383l-0.739,0.621l-0.711,0.627l-0.579,0.643
		l-0.265,0.654l-0.285,1.088l0.146,0.809l0.188,0.787l0.593,1.053l0.746,1.045l0.989,0.643l1.353,0.668l0.669,0.643l1.548,1.365
		l1.345,0.92l0.977,0.711l0.683,0.168l1.346-0.119l1.624-0.027h1.06l0.927,0.412l0.795,0.146l1.011-0.113l0.738-0.152h0.648
		l0.377,0.062l0.223,0.656l0.293,0.738l0.348,0.969l0.308,0.16l0.683,0.07l0.502-0.146l1.018-0.773l0.906-1.047l0.697-1.428
		l0.014-0.635l-0.383-0.391l-0.453-0.439l-0.182-0.271l0.007-0.328l0.014-0.445l0.446-0.244l0.439-0.328l0.446-0.459l0.014-0.453
		l-0.446-0.482l-0.843-0.131l-1.053-0.203l-0.544-0.6l-0.049-0.439l0.209-0.711l0.586-0.844l1.018-0.744l1.144-0.496l0.522-0.779
		l0.718-1.018l0.265-0.523l0.391-0.203l0.62,0.078l0.69,0.641l0.376,0.215l0.439-0.055l0.244-0.119l0.181-0.152l0.502-0.182h0.739
		l0.446-0.203l0.32-0.369l0.175-0.264l-0.112-0.643l-0.229-0.586l0.014-0.396l0.411-0.244l0.467,0.014l0.446,0.146l0.3,0.529
		l0.286,0.705l0.111,0.801l0.362,0.377l0.495,0.07l0.495-0.113l0.167-0.201l0.76-0.383l0.377-0.041l0.696-0.146l0.872,0.014
		l0.711,0.055l1.038-0.195l0.76-0.703l0.537-0.893l-0.126-1.275l0.391-1.107l0.809-0.838l0.313-0.25l0.23-0.043h0.223l0.265,0.113
		l0.217,0.131l0.278,0.383l0.522,0.314l0.363,0.084l0.404,0.021l0.418-0.189l0.453-0.543l0.223-0.439l0.146-0.926l-0.056-0.949
		l-0.132-0.684l0.118-0.459l0.16-0.404l0.362-0.502l0.32-0.432l0.453-0.279l0.997-0.475l0.467-0.51l0.23-0.369l0.174-0.244
		l0.091-0.326l-0.021-0.23l-0.028-0.445l0.133-0.426l0.146-0.293l0.147-0.133l0.167-0.111l0.383-0.084l0.182-0.139l0.202-0.195
		l0.146-0.182l0.091-0.363l0.125-0.264l0.146-0.154l0.411-0.188l0.313-0.154l0.446-0.215l0.23-0.23l0.153-0.334l0.014-0.342
		l-0.076-0.396l-0.168-0.518l-0.404-0.438l-0.745-0.879l-0.259-0.586l0.112-0.627l0.236-0.627l0.467-0.42l0.649-0.242l0.878-0.244
		l1.045-0.127h1.255l1.54-0.012l0.739,0.152l0.69,0.266l0.474,0.396l0.411,0.641l0.119,0.586l0.354,0.508l0.447,0.189l1.143-0.014
		l0.725-0.014l0.307,0.152l0.3,0.139l0.314,0.447l0.731,0.906l0.53,0.439l0.745,0.209l1.499,0.201l1.088,0.014l1.205-0.139
		l1.339-0.41l1.345-0.643l1.234-0.795l0.731-0.725l0.495-0.752l0.16-0.893l0.118-0.711l0.146-0.836l0.237-0.447l0.293-0.215
		l0.529-0.154l1.108-0.377l0.572-0.375l0.285-0.439l0.146-0.523l0.153-0.738l0.035-0.795l0.236-0.494l0.391-0.531l0.349-0.334
		l0.404-0.195l0.355-0.041l0.453,0.014h0.216l0.279,0.154l0.035,0.514l-0.035,0.963l-0.146,1.123l0.446,1.436l0.418,0.857
		l0.335,0.326l0.467,0.057l0.39-0.09l0.768-0.293l0.502-0.447l0.711-0.738l0.989-1.164l0.781-0.719l0.592-0.877l1.032-1.785
		l0.822-1.332l0.32-0.342l0.258-0.09h0.224l0.307,0.027l0.439,0.146l1.289,0.621l1.011,0.648l1.122,0.627l1.931,0.781l1.723,0.879
		l1.045,0.348l0.676,0.098h0.642l0.731-0.154l0.823-0.062l0.92,0.09l0.279-0.09l0.313-0.334l0.391-0.271l0.334-0.412l0.321-0.348
		l0.32-0.238l0.502-0.16l0.738-0.146l0.899-0.209l0.67-0.348l0.62-0.475l0.474-0.57l0.293-0.977l0.014-0.494l-0.182-0.488
		l-0.285-0.447l-0.628-0.766l-0.146-0.621l-0.027-0.627l0.014-0.432l0.146-0.322l0.3-0.445l0.746-1.08l0.822-1.115l0.467-0.586
		l0.488-0.23l0.307-0.049l0.391,0.154l0.446,0.516l0.467,0.766L9.484,90l0.438,0.174h0.237l0.586-0.098l0.335-0.279l0.647-0.787
		l0.635-0.705l0.46-0.627l0.278-0.676l0.195-0.725l0.251-0.697l0.307-0.545l0.321-0.41l0.502-0.174l0.557-0.084l0.586,0.068
		l0.955,0.168l1.422,0.445l1.729,0.439l1.527,0.453l1.366,0.529l2.356,1.025l0.759,0.334l2.21,1.109l1.366,0.502l1.61,0.502
		l1.129,0.363l1.004,0.293l0.613,0.055l0.502-0.098l0.6-0.369l0.488-0.467l0.334-0.613l0.202-0.236l0.446-0.141h0.251l0.354,0.16
		l0.237,0.203l0.266,0.396l0.3,0.264l0.445,0.016l0.308-0.07l0.571-0.236l0.642-0.746l0.627-0.887l0.236-0.307l0.161-0.111
		l0.586,0.111l0.425,0.154l0.418,0.453l0.46,0.621l0.453,0.277l0.78,0.125l1.199,0.043l0.468,0.014l0.278,0.146l0.104,0.168
		l0.327,0.988l0.328,0.811l0.292,0.348l0.308,0.152l0.438,0.1l0.712-0.127l0.885-0.355l0.914-0.635l1.01-0.795l0.69-0.836
		l0.335-0.613l0.369-0.85l0.411-0.654l0.516-1.131l0.244-0.521l0.293-0.971l0.592-0.746l-0.035-0.277l0.224-0.773l0.6-1.598
		l0.613-1.004l1.074-1.086l1.303-1.24l2.092-1.207l1.623-0.461l2.021-0.744l1.652-0.203l0.899-0.041l0.886,0.152l0.445,0.279
		l1.631,1.24l0.977,0.439l1.073,0.105l0.286-0.195l0.159-0.74l0.028-0.613l-0.152-0.418l-0.635-0.605l-1.004-1.115l-0.488-0.773
		l-0.446-1.264l-0.599-1.957l-0.272-1.283l0.182-0.928l0.152-0.654l0.314-0.494l0.439-0.531l0.704-0.682l0.878-0.607l0.439-0.133
		l0.453-0.006l0.278,0.041l0.593,0.363l1.324,0.445l0.648,0.238l1.213,0.146l0.718-0.008l0.739-0.035l0.725-0.25l1.039-0.426
		l1.352-0.154l0.621-0.133l0.529-0.193l0.488-0.453l0.349-0.482l0.319-0.6l0.203-0.271l0.396-0.328l0.628-0.326l0.899-0.162
		l1.045-0.361l0.628-0.285l0.341-0.279l0.217-0.439l0.014-0.424l-0.07-0.496l0.07-0.334l0.188-0.461l0.245-0.236l0.292-0.139
		l0.593,0.027l1.164,0.201l0.934-0.006l1.039-0.084l0.732-0.244l0.69-0.363l0.634-0.521l0.676-0.182h0.711l0.822,0.32l0.99,0.676
		l0.488,0.404l0.557,0.057l0.385-0.105l0.515-0.146l0.537-0.445l0.46-0.369l0.475-0.238l0.502,0.035l0.327,0.062h0.285l0.335-0.166
		l0.453-0.322l0.195-0.277l0.027-0.293l-0.216-0.391l-0.152-0.32l-0.258-0.383l-0.286-0.725l0.034-0.518l0.084-0.557l0.146-0.42
		l0.6-0.641l0.397-0.277l1.081-0.398l0.892-0.084l0.746-0.098l0.362-0.291l0.412-0.6l0.32-0.559l0.418-0.307l0.697-0.445
		l0.613-0.189l1.262,0.043l0.509-0.014l0.446-0.084l0.439-0.195l0.828-0.893l0.517-0.439h0.439l0.446,0.188l0.354,0.461l0.711,0.746
		l0.886,0.746l0.746,0.467l1.038,0.516L118,50.742l0.774,0.117l0.752,0.377l0.3,0.355l1.039,0.445l0.969,0.146l1.038-0.146
		l1.046-0.25l1.568-0.488l1.227-0.439l1.681-0.773l1.407-0.613l0.676-0.488l1.081-1.025l0.586-0.662l0.292-0.277l1.046-0.16
		l1.024-0.016l0.879,0.043l0.153-4.008l-0.447-2.133l-0.09-0.613l0.077-0.447l0.25-0.445l0.35-0.697l0.188-0.809l0.104-0.67
		l-0.09-1.039l0.146-0.535l0.153-1.012l0.21-0.863l0.014-1.227l-0.063-1.082v-1.129l-0.062-1.379l-0.286-0.488l-0.419-0.439
		l-0.627-0.502l-0.809-0.6l-0.349-0.494l-0.069-0.928l-0.063-0.738l0.154-0.914l0.286-0.648l0.452-0.439l0.376-0.152l0.537-0.285
		l0.397-0.398l0.376-0.424l0.195-0.553l0.146-0.744l-0.069-0.607l-0.104-1.582l-0.084-1.325l0.175-1.024l0.278-0.335l0.488-0.383
		l0.739-0.404l1.045-0.363l0.851-0.474l0.878-0.662l0.606-0.844l0.229-0.648l0.44-0.628l0.258-0.864l0.167-1.735l0.152-0.558
		l0.126-0.446l0.397-0.321l0.593-0.76l0.579-0.982l0.962-1.443l0.341-0.585l0.419-0.753l0.668-1.345l0.397-0.732l0.056-0.446
		l-0.091-0.871l-0.09-0.878l-0.118-1.22l-0.008-0.711l0.147-1.457l0.229-1.429l0.279-2.293l0.056-0.906l-0.146-0.516l-0.286-0.92
		l-0.3-0.871l-0.104-0.83l-0.077-0.997l0.377-1.604l-0.286-1.91l0.14-1.039l0.355-1.157l0.558-1.018l0.955-1.262l1.06-1.345
		l0.94-1.213l0.962-0.878l1.409-1.283l1.254-1.303l0.983-1.171l0.648-0.739l1.01-1.61l0.927-1.436l0.607-1.317l0.746-1.304
		l0.634-0.795l0.328-0.627l0.076-0.516v-0.384l-0.21-0.599l-0.278-0.439l-0.152-0.648l0.09-0.467l0.049-0.432l0.014-0.425
		l-0.195-0.397l-0.48-0.488l-0.146-0.307l0.015-0.509l0.139-0.592l0.119-1.101l-0.091-0.858l-0.523-1.206l-0.188-0.773l-0.063-0.592
		l0.167-0.551l0.245-0.446l0.41-0.286l0.739-0.188l0.99-0.224l1.088-0.167l0.738-0.188l0.446-0.146l0.529-0.279l0.628-0.272
		l0.641-0.313l0.586-0.606l0.153-0.509l0.062-0.418l-0.188-0.39l-0.154-0.383l-0.634-0.739l-0.781-0.829l-0.334-0.642l-0.076-0.759
		l0.125-0.663l0.439-1.283l0.39-0.948l-0.104-0.46l0.021-0.432l-1.555,0.076l-2.545-0.376l-0.961-0.362l-0.439-0.363l-0.321-0.718
		l-0.16-0.711l-0.076-0.892l-0.035-0.892l-0.251-0.425l-0.529-0.467l-0.51-0.579l-0.815-0.509l-1.08,0.028l-0.704,0.146
		l-1.073,0.132l-1.631-0.118l-0.67-0.147l-0.976-0.153l-1.039,0.069l-1.031,0.14l-2.146,0.697l-1.248,0.418l-0.662,0.684
		l-1.038,0.955l-0.955,0.244l-0.746-0.181l-0.334-0.321l-0.44-0.146l-0.627,0.14l-0.494,0.146l-0.621,0.258l-1.784,0.746
		l-1.701,0.781l-0.753,0.488l-0.627,0.823l-1.806,2.461l-1.317,1.282l-1.031,0.53l-0.788,0.028l-0.662-0.216l-1.616-1.192
		l-1.534-1.303l-0.516-0.362l-0.481,0.035l-0.251,0.251l-0.452,1.889l-0.294,1.471l-0.438,0.719l-0.335-0.035l-0.418-1.255
		l-0.049-0.85l0.21-1.611l0.173-1.289l-0.16-0.251l-0.863-0.153l-1.527,0.07l-1.046,0.167l-1.073,0.433l-1.198,0.885l-1.018,1.248
		l-1.088,2.23l-0.384,1.282l-0.209,1.004l-0.258,0.857l-0.62,0.634l-2,1.527l-0.83,0.6l-1.632,0.599l-0.626,0.46l-0.336,0.823
		l-0.056,1.212l-0.118,1.213l-0.292,0.425l-0.286,0.286h-0.481l-0.439-0.174l-0.362-0.363l-0.418-0.794l-0.404-1.004l-0.084-0.815
		l0.301-1.255l0.536-1.06l0.426-0.397l0.871-0.815l0.438-0.502l0.495-0.676l0.335-0.642l0.216-0.459l0.146-0.251l0.578-0.676
		l0.544-0.432l0.446-0.286l0.509-0.244l0.822-0.314l0.628-0.32l0.494-0.397l0.21-0.495l0.013-0.3l-0.208-0.146h-0.418l-0.453,0.146
		L110.96-56.5l-0.627,0.453l-0.537,0.112l-0.46,0.035l-0.746,0.251l-1.456,1.095l-1.199,0.718l-1.046,0.383l-1.359,0.063
		l-0.711,0.111l-0.334,0.132l-1.576,0.962l-2.244,0.746l-1.533,0.313l-1.491-0.042l-1.075-0.258l-1.352-0.502l-1.129-0.683
		l-0.62-0.543l-1.102-1.115l-0.537-1.29l-0.404-0.711l-0.334-0.439l-0.572-0.174l-0.578,0.035l-0.446,0.132l-0.913,0.537
		l-0.996,0.571l-0.823,0.25l-4.879-0.056l-3.438-0.376l-2.223-0.293l-4.315-0.857l-1.631-0.376l-4.712-0.976l-1.366-0.182
		l-0.251-0.292l0.077-0.495l0.285-1.29l0.439-1.143l0.871-1.136L64.16-63.4l0.704-0.432l0.662-0.39l0.704-0.677l1.066-2.544
		l0.746-1.617l0.962-2.523l0.94-2.119l0.411-1.562l0.049-0.432l-0.3-0.391l-0.529,0.028h-0.384l-0.438-0.153v-0.579l0.229-0.328
		l0.307-0.223l0.488-0.279l0.739-0.418l0.641-0.523l0.606-0.781l1.484-2.23l1.625-2.398l2.397-3.506l0.989-1.464l1.318-2.042
		l1.477-2.46l0.774-1.694l0.509-1.066l0.425-1.129l0.795-1.784l0.997-1.952l-2.746-0.258l-3.242,0.271l-3.108,0.362l-1.742,0.565
		l-0.921,0.286l-0.369,0.049l-0.445-0.014l-1.534-0.474l-2.781-1.269l-2.035-0.739l-2.293-0.572l-2.845-1.046l-3.276-0.913
		l-1.149-0.314l-1.331-0.202l-1.22-0.021l-1.464,0.035l-2.001,0.425l-2.224,0.412l-2.655,0.613l-1.548,0.181l-1.938-0.167
		l-2.029-0.321l-2.362-0.655l-2.503-0.781l-0.668-0.286l-0.342,0.028l-0.349,0.07l-0.377,0.348l-0.014,0.76l-0.105,1.826
		l-0.167,1.248l-0.307,0.683l-0.474,0.411l-0.865,0.237l-0.836,0.167l-0.871,0.244l-0.571,0.383l-0.404,0.391l-0.446,0.523
		l-0.146,0.537l-0.188,0.502l-0.655,0.495l-0.684,0.279l-1.693,0.258l-1.75,0.265l-1.115,0.453l-0.662,0.481l-0.572,0.467
		l-0.578,0.174l-0.67-0.014l-1.519-0.265l-1.597-0.411l-0.62-0.237l-0.335-0.035l-0.327,0.174l-0.035,0.251l0.571,0.648l0.809,0.718
		l0.788,0.83l0.271,0.501l0.126,0.391l-0.237,0.383l-0.278,0.397l0.056,0.46l0.098,0.467l0.139,0.739l-0.194,0.781l-0.495,1.136
		l-0.384,0.419l-0.438,0.25l-0.788,0.279l-1.464,0.209l-2.384,0.188l-1.548,0.202l-0.669,0.063l-0.753-0.083L7.922-86.48
		l-0.153-0.599l0.042-1.429l-0.098-0.425l-0.258-0.355l-0.593-0.153l-0.962,0.028l-2.342,0.195H2.764l-0.425-0.216L1.935-89.86
		l-0.328-0.293l-0.962-0.216l-0.502-0.042h-0.76l-0.934-0.188l-0.446-0.104l-0.251,0.069l-0.146,0.216l-0.062,0.641l0.021,0.857
		l-0.216,1.463l-0.349,0.851l-0.78,0.523l-1.248,0.355l-1.589,0.139l-0.468-0.174l-0.71-0.683l-0.712-1.073l-0.822-0.788
		l-1.45-0.899l-1.4-0.683l-0.899-0.697l-0.216-0.321l-0.384-0.174h-0.251l-0.529,0.453l-0.439,0.537l-0.648,0.851l-0.445,0.321
		l-0.544,0.14l-0.921,0.034l-0.759-0.181l-0.363-0.39l-0.125-0.822l-0.007-0.321l-0.161-0.286l-0.647-0.07l-0.335,0.104l-0.362,0.46
		l-0.237,0.432l-0.327,0.314l-0.244,0.216l-0.962,0.097l-0.948,0.216l-1.233,0.606l-0.746,0.488l-0.809,0.781l-0.795,0.564
		l-0.913,0.467l-1.498,0.412l-1.08,0.418l-1.032,0.711l-1.471,1.457l-1.722,1.311l-0.669,0.391l-0.446,0.028l-0.439-0.105
		l-0.802-0.425l-0.634-0.362l-0.544-0.105l-0.446,0.181l-0.913,0.6l-1.275,1.241l-1.729,1.311l-1.331,1.199l-1.743,2.342
		l-1.631,2.028l-1.275,1.805l-0.279,0.572v0.418l0.313,0.258l0.662,0.571l0.6,0.397l0.146,0.244l0.014,0.251l-0.438,0.355
		l-1.046,0.683l-2.481,1.485l-0.941,0.634l-0.982,0.286h-0.879l-5.423,1.513l-2.677,1.032l-0.683,0.962l-1.108,1.331L-63.985-59.852
		"/>
</g>
<g id="Layer_1_1_">
</g>
</svg>
