<?xml version="1.0" encoding="utf-8"?>
<!-- Generator: Adobe Illustrator 16.0.4, SVG Export Plug-In . SVG Version: 6.00 Build 0)  -->
<!DOCTYPE svg PUBLIC "-//W3C//DTD SVG 1.1//EN" "http://www.w3.org/Graphics/SVG/1.1/DTD/svg11.dtd">
<svg version="1.1" id="Layer_1" xmlns="http://www.w3.org/2000/svg" xmlns:xlink="http://www.w3.org/1999/xlink" x="0px" y="0px"
	 width="301.128px" height="221.939px" viewBox="-128.902 -94.74 301.128 221.939"
	 style="enable-background:new -128.902 -94.74 301.128 221.939;" xml:space="preserve">
<g id="Layer_20">
	<path id="Barkhan" style="fill:#CCCCCC;stroke:#FFFFFF;stroke-width:1.15;" d="M109.961,40.741L109.961,40.741l4.242-4.537
		l5.289-13.599l2.175-7.48l1.101-3.738l4.725-8.859l0.457-0.916l0.697-0.836l0.993-1.141l2.726-1.591l1.785-1.289l1.154-1.218
		l0.887-1.064l0.886-1.533l1.141-1.362l0.886-1.587l0.639-1.766l0.999-2.49l0.362-1.745l0.283-2.383l-0.424-2.433l-0.349-1.89
		l0.026-2.902l0.168-2.296l0.537-1.842l1.154-2.074l0.792-2.675l0.644-2.825l0.162-1.876l0.537-1.004l1.06-0.933l0.792-0.295
		l1.396-0.084l0.779-0.296l0.522-0.537l0.362-1.58l-0.066-3.044l0.362-1.89l0.442-1.003l0.537-0.839l0.967-0.735l1.758-0.446
		l1.679-0.144l1.865-0.296l1.424-0.439l1.14-0.93l3.544-4.474l2.403-3.349l1.061-1.45v-0.617l-0.255-0.762l-0.872-1.142
		l-1.571-0.536l-1.933-0.537l-1.061-0.014h-2.9l-1.771-0.014l-1.315-0.234l-1.288-0.231l-2.564-0.145l-1.047-0.014h-1.57
		l-1.537,0.604l-1.027,0.537l-0.899,0.912l-1.314,1.974l-1.263,1.909l-1.04,0.899l-1.51,0.759l-1.262-0.091l-1.49-0.715
		l-0.523-1.369l0.121-1.234l0.704-1.202l1.322-2.077l0.986-2.5l0.639-3.128l0.013-1.762l-0.268-0.694h-0.564l-0.993,0.312
		l-0.98,0.695l-1.06,0.993l-1.236,0.832l-0.993-0.15l-0.711-0.219l-0.409-1.198v-1.909l0.201-3.665l0.349-1.449l0.114-0.107
		l-2.523-0.752l-4.443-1.292l-2.953-1.084l-1.865-0.138l-2.98-0.007l-3.825,0.296l-2.847,0.624l-1.744,1.044l-1.987,1.906
		l-0.886,1.711l-1.269,1.292l-2.604,0.829l-4.57,1.383l-2.457,1.369l-2.134,1.503l-1.731,0.42l-2.228-0.014l-2.713-0.02
		l-2.094-0.749l-2.215-0.865l-1.731-0.668l-1.705-1.843l-1.007-1.292l-0.456-1.07l-0.135-2.353l-0.362-3.01l-0.456-2.762
		l-1.396-2.282l-1.503-0.859l-2.591-0.537l-1.571-0.426l-0.396-0.446l-1.349,2.144l-1.128,1.182l-1.49,1.574l-0.496,0.858v0.859
		l1.101,0.99l0.456,0.977l-0.469,0.846l-1.275,1.574l-1.731,1.916l-1.37,1.58l-1.489,1.705l-1.249,2.57l-0.886,2.682l-1.759,3.628
		l-2.725,3.526l-2.725,3.628l-1.101,1.168l-4.282,4.772l-2.229,2.144l-1.361,1.705l-0.383,0.665v0.858l0.719,0.963l0.408,1.074
		l-0.423,1.386l-1.731,3.614L38.2-34.958l-2.873,3.403l-3.577,3.091l-1.974,0.853l-1.577,0.117l-1.858-0.755l-0.86-0.735v-1.061
		l-0.715-1.063l-1.01-0.332h-2.221l-1.963-0.219l-0.716-0.426l-0.483-1.188l0.407-1.168l1.566-2.771l0.493-1.719l0.018-0.845
		l-0.866-0.859l0.007-0.742l0.128-0.977l2.13-1.704l2.607-2.231l2.108-3.004l0.872-1.92l0.255-1.587l-0.718-1.195l-1.343-0.653
		h-1.114l-2.349,1.288l-3.094,2.35l-5.699,5.113l-3.339,3.289l-4.577,5.014l-2.846,3.091l-3.326,2.997l-3.409,3.061l-5.194,5.124
		l-4.578,4.38l-3.58,4.282l-4.439,5.339l-0.524,0.426l-0.812,0.799l-0.853,0.691l-1.044,0.859l-0.53,0.765l-0.171,0.715l0.027,0.802
		l0.281,1.494v1.93l0.091-0.054l1.332-0.977l1.527-0.859l1.573-0.715l1.333-0.349l2.722-0.964l1.342-0.412l1.688-0.191l1.815-0.319
		l2.563-0.788l1.98-0.715l1.402-0.426l1.098-0.551l0.734-0.178h1.574l1.322,0.054h1.097l1.004,0.255L1.5-7.611l0.427,0.714
		L1.782-6.292L0.463-4.41l-1.402,1.114l-0.426,0.604v0.255l0.288,0.742v1.231l0.175,0.611l0.157,1.161l-0.426,0.916l-1.402,1.113
		l-2.722,1.971l-1.182,1.107l-0.366,0.61l0.071,0.607l0.577,0.742l0.886,0.872l0.933,0.547l0.145,0.312v0.671l-0.46,0.97
		l-1.698,2.584l-1.986,2.772l-1.399,1.971l-0.353,1.361l-0.762,0.974l-1.745,1.718l-1.003,1.464l-1.863,1.577l-2.07,1.645
		l-1.842,1.342l-2.145,1l-2.041,0.859l-0.949,0.503l-0.584,0.497l-0.157,0.617l-0.061,0.745l-0.145,0.423l-0.642,0.483l-0.872,0.858
		l-0.644,0.927l-0.427,2.215l-0.241,2.174l-0.493,0.712l-0.759,0.51l-2.722,0.551l-3.876,0.483l-3.373,0.511l-2.027,0.281
		l-2.62,1.101l-0.934,0.712l-0.459,0.711l-0.138,0.511l-0.366,0.442l-0.926,0.437l-1.171,0.369l-1.457,0.142l-1.396,0.141
		l-2.258,0.181l-2.434,0.41l-2.489,0.912l-2.047,0.846l-1.534,0.846l-3.642,1.973l-4.02,2.437l-5.35,2.759l-3.635,1.718
		l-3.258,1.611l-3.202,1.664l-1.332,0.913l-1.748,1.625l-2.259,1.771l-1.809,1.274l-1.862,1.31l-0.873,0.665l-0.701,1.006
		l-0.46,0.859l-0.235,1.303l-0.426,1.04l-1.234,1.073l-2.145,1.107l-3.527,1.517l-2.503,0.866l-3.256,1.128l-3.65,1.295
		l-2.729,0.818l-1.456,0.618l-1.225,0.819l-1.154,0.967l-1.971,1.006l-1.161,0.859l-0.718,2.658l1.873,2.04l2.113,2.752l1.437,1.858
		l0.866,2.102l2.433,2.752l2.242,1.456l3.01,1.403l4.151,1.999l3.527,1.303l3.135,1.12l1.704,1.014l3.148,2.511l1.51,1.255
		l3.127,1.832l2.394,1.799l0.486,0.362l2.99,0.698l2.963,0.442l4.417,2.04l4.536,1.169l3.679,0.98h2.577l2.694-0.424l6.501-1.51
		l7.974-2.142l6.624-2.449l5.154-2.135l2.95-1.705l3.208-1.074l3.437-0.63l3.437-1.49l2.708-2.161l4.054-3.424l5.037-2.872
		l5.011-1.886l5.561-1.168l7.731-1.041l7.87-0.959l6.624-0.295l7.115,0.563l6.375,1.731l4.899,1.847l2.35,1.409l1.651,0.711
		l2.55-1.853l3.296-1.584l3.013-0.792l3.887-1.073l1.785-1.866l2.114-0.53l5.101-0.564l3.007-1.308l2.081-2.383l1.799-2.383
		l2.094-2.9l2.088-1.858l2.396-1.577l1.825-1.309l2.095-0.53l1.799-1.315l1.489-2.631l2.397-4.188l2.67-5.007l0.578-2.122
		l6.269-12.51l5.745-4.188L109.961,40.741"/>
</g>
<g id="Layer_1_1_">
</g>
</svg>
