<?xml version="1.0" encoding="iso-8859-1"?>
<!-- Generator: Adobe Illustrator 16.0.4, SVG Export Plug-In . SVG Version: 6.00 Build 0)  -->
<!DOCTYPE svg PUBLIC "-//W3C//DTD SVG 1.1//EN" "http://www.w3.org/Graphics/SVG/1.1/DTD/svg11.dtd">
<svg version="1.1" xmlns="http://www.w3.org/2000/svg" xmlns:xlink="http://www.w3.org/1999/xlink" x="0px" y="0px"
	 width="95.049px" height="48.865px" viewBox="0 0 95.049 48.865" style="enable-background:new 0 0 95.049 48.865;"
	 xml:space="preserve">
<g id="Layer_72">
	<g id="Layer_77">
		<path id="Panjgur" style="fill:#CCCCCC;stroke:#FFFFFF;stroke-width:1.07;" d="
			M0.463,27.836L0.463,27.836l0.234,0.404l0.062,0.062l0.197,0.165l0.306,0.291l0.222,0.316l0.176,0.253l0.273,0.341l0.579,0.476
			l0.219,0.271l0.1,0.233l0.001,0.176l-0.117,0.322l-0.52,0.432l-0.367,0.296l-0.312,0.439l-0.3,0.43l-0.075,0.1L1.077,33.02
			l-0.032,0.166l0.045,0.176l0.152,0.087l0.348,0.019l0.488-0.032l0.369-0.012l0.12,0.028l0.065,0.067l0.011,0.068l-0.021,0.098
			l-0.107,0.196l-0.151,0.187l-0.043,0.117l0.077,0.087l0.108,0.038l0.239-0.03l0.444-0.147l0.423-0.109l0.228-0.05l0.174,0.009
			l0.097,0.029l0.077,0.097l-0.01,0.215L4.06,34.538l-0.638,0.511l-0.41,0.383l-0.117,0.265l0.034,0.165l0.185,0.186l0.413,0.096
			l0.521,0.036l0.705,0.056l0.348,0.058l0.358-0.04l0.43-0.119l0.368-0.101l0.26-0.107l0.368-0.188l0.314-0.068L7.6,35.55
			l0.628-0.256l0.813-0.258l0.455-0.138l0.855-0.374l1.03-0.424l0.93-0.278l0.401-0.089l0.619-0.138l0.488-0.051l0.347-0.012h0.25
			l0.174,0.028l0.761,0.232l1.075,0.396l1.365,0.423l0.521,0.194l0.641,0.263l0.413,0.253l0.369,0.194l1.141,0.545l0.912,0.419
			l0.271,0.136l0.152,0.107l0.076,0.273l-0.043,0.146l-0.043,0.06l-0.054,0.029h-0.109l-0.108-0.039l-0.108-0.029h-0.151
			l-0.141,0.06l-0.163,0.078l-0.174,0.06h-0.206l-0.119-0.049l-0.109-0.117l-0.098-0.078l-0.086,0.001l-0.087,0.029l-0.065,0.107
			l-0.163,0.077l-0.163,0.029h-0.239l-0.195,0.03l-0.087,0.059l-0.042,0.127l-0.053,0.378l-0.119,0.187l-0.109,0.049l-0.141-0.01
			l-0.217-0.097l-0.076-0.039h-0.075l-0.119,0.107l-0.086,0.321l0.011,0.234l0.195,0.224l0.25,0.137l0.206,0.06l0.401-0.001
			l0.574-0.108l0.542-0.088l0.412-0.011l0.293,0.058l0.282,0.117l0.185,0.264l0.066,0.292l-0.064,0.685l-0.097,0.634l-0.096,0.651
			l0.011,0.566l0.055,0.312l0.098,0.214l0.07,0.279l0.05,0.19l0.023,0.06l0.173,0.225l0.344,0.057l0.407-0.062l0.636-0.115
			l0.632-0.186l0.453-0.179l0.358-0.013l0.258,0.037l0.328-0.104l0.332-0.035l0.493,0.121l0.491,0.099l0.23-0.01l0.252-0.102
			l0.247-0.216l0.367-0.383l0.4-0.245l1.185-0.457l0.826-0.166l0.687-0.116l0.691-0.024l0.924,0.037l0.831,0.248l0.704,0.276
			l1.034,0.816l1.102,1.231l0.741,0.552l0.958,0.868l0.218,0.315l0.803,0.85l1.161,1.104l0.763,0.506l0.491,0.122l0.385,0.032
			l0.584-0.11l1.575-0.282l1.62-0.444l0.893-0.075l1.096-0.104l0.772,0.114l0.592,0.073l0.279-0.031l0.396-0.336l0.35-0.241
			l0.399-0.243l0.502-0.27l0.958-0.399l0.698-0.307l0.452-0.244l0.371-0.335l0.342-0.473l0.113-0.396l0.062-0.371l0.116-0.414
			l0.778,0.364l0.99,0.454l1.275,0.562l0.242,0.131l-0.613-1.545l-0.368-1.213l-0.038-1.524l0.387-0.802l0.666-0.562l1.018-0.209
			l2.052-0.075l1.125,0.014l1.978,0.068l3.377,0.183l2.431,0.16l1.664-0.134l1.509-0.095l1.202,0.016l1.476,0.15l1.086-0.019
			l0.733-0.15l0.306-0.214l0.227-0.317l0.066-0.524l-0.047-0.486l-0.558-0.759l-0.13-0.695l-0.01-0.453l0.303-0.458l0.723-0.744
			l1.108-0.924l1.762-1.247l1.931-1.556l1.493-1.208l1.531-1.312l1.301-1.204l0.88-0.849l0.879-0.92l1.031-1.13l0.994-1.129
			l0.959-0.852l0.689-0.636l0.353-0.483l0.375-0.912l0.756-1.51l0.374-1.052l0.066-0.352l-0.641-0.049l-0.404,0.032l-0.405,0.109
			l-0.405,0.107L92.26,17.56l-0.148-0.002l-0.188-0.098l-0.422-0.196l-0.274-0.1l-0.273-0.192l-0.188-0.174l-0.145-0.269
			l0.004-0.248l-0.059-0.322l-0.127-0.098l-0.212-0.021l-0.211-0.098l-0.272-0.252l-0.139-0.591l-0.279-1.202l-0.436-0.747
			l-0.562-0.69l-0.357-0.271l-0.473-0.156l-0.573-0.102l-0.896,0.085l-0.703,0.124l-0.469-0.005l-0.594-0.083l-0.189-0.117
			l-0.125-0.153l-0.019-0.247l0.007-0.532l-0.242-0.839l-0.373-0.729l-0.438-0.557l-0.12-0.496l-0.013-0.646L82.63,7.039
			l-0.207-0.479l-0.481-0.538l-0.582-0.562l-0.148-0.06l-0.17-0.039l-0.149,0.036l-0.192,0.112l-0.387,0.3l-0.238,0.169l-0.17,0.055
			l-0.256,0.018l-0.363,0.109L77.29,7.302l-1.116,0.73l-1.115,0.636l-1.394,0.881l-1.136,0.73l-1.094,0.675l-0.898,0.524
			l-1.152,0.607l-0.939,0.41l-0.726,0.261l-0.489,0.015l-0.359-0.079l-0.252-0.287l-0.189-0.19l-0.381-0.155l-0.467-0.099
			l-0.359-0.175l-0.421-0.422l-0.61-0.575l-0.762-0.501l-1.906-0.926l-1.609-0.867l-0.444-0.25l-0.131-0.17l-0.042-0.151
			l0.044-0.172l0.261-0.605l0.09-0.57l0.024-0.36l-0.104-0.211l-0.316-0.324l-0.146-0.27l-0.082-0.476l-0.019-0.361l-0.04-0.21
			l-0.169-0.172l-0.382-0.23l-0.402-0.25l-0.169-0.19l-0.062-0.362l0.024-0.476l-0.084-0.152l-0.212-0.135l-0.275-0.191
			l-0.188-0.324L56.9,1.557l-0.289-0.56L56.294,0.71l-0.036-0.02l-0.283-0.154l-0.213-0.001l-0.171,0.019l-0.192,0.112l-0.215,0.171
			l-0.279,0.321l-0.192,0.208l-0.108,0.247l-0.022,0.229L54.58,2.014l-0.064,0.133l-0.085,0.075L54.26,2.259l-0.299,0.094
			l-0.342,0.094l-0.491,0.227L52.764,2.88L52.55,3.03l-0.192,0.188l-0.281,0.437l-0.364,0.437l-0.664,0.644l-0.494,0.568
			l-0.235,0.133l-0.17,0.113l-0.173,0.208l-0.149,0.113l-0.234,0.074l-0.129,0.171l-0.064,0.113l-0.105,0.019L49.208,6.19
			l-0.104-0.267L49.02,5.753l-0.149-0.059l-0.106-0.001l-0.107,0.114l-0.193,0.284l-0.173,0.417l-0.29,0.379l-0.47,0.34
			l-0.619,0.321l-0.532,0.073L45.7,7.677l-0.639,0.036l-0.618,0.149l-0.469,0.15L43.59,8.354l-0.129,0.209V8.81l0.084,0.267
			l0.211,0.344l0.233,0.323l0.084,0.248l-0.001,0.229l-0.086,0.397l-0.259,0.95l-0.429,0.816l-0.267,0.457l-0.299,0.266
			l-0.448,0.341l-0.17,0.02l-0.106-0.038l-0.042-0.076l-0.021-0.267l0.214-0.532l0.534-0.588l0.428-0.664l0.194-0.514l0.001-0.343
			l-0.021-0.267l-0.147-0.343l-0.169-0.171L42.511,9.53l-0.574,0.018l-1.681-0.081l-0.937-0.078l-0.553-0.135l-0.34-0.172
			l-0.34-0.268l-0.637-0.344l-1.19-0.782l-1.382-0.916l-0.204-0.206L34.461,6.28L34.44,6.091V5.9l0.128-0.304l0.022-0.19V5.217
			l-0.191-0.152l-0.531-0.495l-0.404-0.608l-0.617-0.458l-0.532-0.382l-0.319-0.343l-0.17-0.305l-0.149-0.171l-0.192-0.096
			L31.166,2.11L30.74,2.092l-0.533-0.001l-0.341,0.113l-0.554,0.267l-0.661,0.381l-0.384,0.171l-0.384,0.095l-0.512,0.038
			l-1.044,0.059l-0.895,0.113l-0.724,0.096l-0.683-0.037l-0.467-0.112l-0.533-0.188L22.493,3.01L22.28,3.047l-0.086,0.114
			l-0.127,0.152l-0.192,0.361l-0.148,0.113L21.429,3.94L20.79,4.074l-1.385,0.154l-1.256,0.04l-1.257-0.017l-0.64,0.059
			l-0.404,0.096L15.38,4.56l-0.234,0.172l-0.362,0.115l-0.469,0.021l-0.319-0.074l-0.363-0.189l-0.448-0.132l-0.469,0.001
			L12.29,4.531L12.035,4.57l-0.362,0.001l-0.597-0.073l-0.591-0.095L9.803,4.35l-0.98-0.073L8.6,4.241L8.333,4.166L7.992,4.045
			L7.51,4.198l1.464,0.757l0.819,0.553l0.589,1.301l0.168,0.372l-0.182,0.388L9.97,7.857L9.422,8.135L8.711,8.687l-0.719,0.81
			L8,11.021l0.025,4.883l0.165,0.33l0.654,1.306l0.208,0.612L8.808,18.56l-2.939,0.633l-0.056,0.014l-0.47,0.238l0.46,3.125
			l-0.144,1.258l-0.108,0.274l-0.998,2.546L4.39,27.596l-0.298,0.152L3.863,27.69l-1.186,0.017L1.1,27.729L0.463,27.836"/>
	</g>
</g>
<g id="Layer_1">
</g>
</svg>
