<?xml version="1.0" encoding="utf-8"?>
<!-- Generator: Adobe Illustrator 16.0.4, SVG Export Plug-In . SVG Version: 6.00 Build 0)  -->
<!DOCTYPE svg PUBLIC "-//W3C//DTD SVG 1.1//EN" "http://www.w3.org/Graphics/SVG/1.1/DTD/svg11.dtd">
<svg version="1.1" id="Layer_1" xmlns="http://www.w3.org/2000/svg" xmlns:xlink="http://www.w3.org/1999/xlink" x="0px" y="0px"
	 width="301.07px" height="285.97px" viewBox="-137.448 -130.529 301.07 285.97"
	 style="enable-background:new -137.448 -130.529 301.07 285.97;" xml:space="preserve">
<g id="Layer_91">
	<path id="Muzaffarabad" style="fill:#CCCCCC;stroke:#FFFFFF;stroke-width:1.15;" d="M41.196-25.457L41.196-25.457l-0.292,0.023
		h-0.091h-0.654h-0.248l-0.384,0.021l-0.248,0.062l-0.18,0.079l-0.373,0.022h-0.215l-0.18-0.012l-0.203-0.045l-0.248-0.045h-0.249
		l-0.383,0.067l-0.339,0.096l-0.384,0.057l-0.496,0.057l-0.688,0.112l-0.62,0.062l-0.925-0.073l-0.541-0.124l-0.52-0.118h-0.474
		l-0.598,0.152l-0.418,0.112l-0.563-0.033l-0.113-0.231l-0.067-0.435v-0.418l0.067-0.75l0.248-0.761l0.113-0.43l0.157-0.293
		l0.137-0.677l0.18-0.439l0.237-0.164l0.463-0.022h0.721l0.474-0.045l0.497-0.13l0.722-0.169l0.485-0.406l0.282-0.35l0.215-0.321
		l0.032-0.474l-0.078-0.587l-0.236-0.53l-0.091-0.175l-0.135-0.243v-0.625l0.248-0.485l0.169-0.463l0.191-0.4l0.383-0.463
		l0.362-0.406l0.248-0.451l0.237-0.242l0.191-0.288l0.112-0.23l0.022-0.231l0.147-0.429l-0.103-0.609v-0.209l-0.022-0.507v-0.327
		l-0.135-0.677L37-40.703l-0.023-0.659v-0.221l-0.033-0.586L36.842-42.4l-0.158-0.35l-0.112-0.366l-0.147-0.396l-0.169-0.484
		l0.203-0.508l0.203-0.4l0.136-0.221l0.248-0.462l0.26-0.463l0.214-0.287v-0.316v-0.113l-0.26-0.253l-0.767-0.406l-0.124-0.187
		l-0.53-0.242l-0.327-0.587l-0.406-0.118l-0.249-0.243l-0.304-0.242l-0.439-0.519l-0.406-0.632l-0.248-0.723l-0.182-0.665
		l-0.067-0.305l-0.113-0.631v-0.142l0.068-0.288l0.474-0.253l0.52-0.311l0.473-0.164l0.282-0.175l0.237-0.146l0.608-0.107
		l0.339-0.067l0.711-0.045l0.35-0.073h0.282l0.146-0.226v-0.294l0.022-0.355v-0.541v-0.254l-0.022-0.508l-0.022-0.372l-0.022-0.22
		l-0.067-0.266l-0.248-0.53l-0.249-0.36l-0.608-0.53l-0.339-0.22l-0.711-0.164l-0.439-0.203l-0.678-0.451l-0.248-0.439l-0.395-0.311
		l-0.35-0.451l-0.519-0.604l-0.688-0.762l-0.552-0.507l-0.328-0.373l-0.542-0.575l-0.304-0.626l-0.406-0.378l-0.124-0.276
		l0.236-0.559L30.22-66l0.372-0.406L31-66.693l0.473-0.288l0.248-0.361l0.654-0.473l0.26-0.367l0.316-0.321l0.305-0.396l0.112-0.287
		l0.034-0.451l0.045-0.406l0.26-0.417l0.519-0.367l0.609-0.327l0.484-0.333l0.373-0.275l0.688-0.197l0.507-0.21l0.485-0.112
		l1.038,0.012l0.451-0.045l0.395-0.271l0.496-0.236l0.418-0.152l0.326-0.175l0.237-0.367l0.282-0.254l0.123-0.417l0.351-0.231
		l0.191-0.287l0.237-0.316l0.316-0.288l0.292-0.31l0.249-0.209l0.136-0.164l0.338-0.287l0.045-0.355l0.023-0.361l-0.103-0.417
		l-0.112-0.411l-0.191-0.254l-0.192-0.327l-0.146-0.378l-0.305-0.66L42.009-79.7l-0.237-0.345l-0.158-0.349l-0.124-0.322
		l0.248-0.406l0.271-0.321l0.495-0.23l0.068-0.418l-0.135-0.429l0.044-0.829l0.045-0.717l0.012-0.35l-0.101-0.473l0.112-0.497
		l0.158-0.366l0.158-0.52l0.157-0.372l0.113-0.311l0.247-0.417l0.192-0.355l0.237-0.439l0.181-0.316l0.112-0.344l0.09-0.396
		l-0.011-0.399l-0.091-0.418l-0.169-0.451l-0.237-0.406l-0.236-0.299l-0.586-0.067h-0.654h-0.599h-0.756h-0.496l-0.835,0.112h-0.699
		H38.58l-0.632-0.022l-0.496-0.045l-0.723-0.022l-0.135-0.164l-0.203-0.22l-0.508-0.739l-0.237-0.158l-0.248-0.174l-0.226-0.254
		l-0.36-0.299l-0.677-0.451l-0.316-0.299l-0.135-0.13l-0.182-0.057l-0.632-0.384l-0.417,0.085l-0.474,0.112l-0.282,0.113
		l-0.429,0.118L30.57-93.84l-0.271,0.243l-0.599,0.174l-0.495,0.124l-0.587,0.153l-0.598,0.265l-0.237,0.091l-0.62-0.182
		l-0.587-0.117l-0.801-0.113l-0.395,0.033l-0.248,0.176l-0.192,0.18l-0.282,0.119l-0.315,0.056l-0.249,0.057h-0.27l-0.463-0.22
		l-0.236-0.237l-0.678-0.175l-0.462-0.022l-0.463-0.096l-0.699-0.242h-0.52l-0.52-0.187h-0.473h-0.711h-0.705l-0.242,0.152
		l-0.366-0.034v-0.462l0.18-0.355l0.084-0.271v-0.288v-0.209l-0.061-0.242l-0.17-0.158l-0.242-0.197l-0.254-0.112l-0.418-0.13
		l-0.716-0.142l-0.627-0.169l-0.749-0.282l-0.231-0.146l-0.276-0.067l-0.266-0.073l-0.44-0.136l-0.265-0.096l-0.243-0.136
		l-0.243-0.163l-0.31-0.197l-0.581-0.311l-0.243-0.439l-0.243-0.243l-0.231-0.186l-0.287-0.209l-0.299-0.17l-0.22-0.106
		l-0.344-0.136L9.21-99.616l-0.254-0.22H8.527l-0.31-0.034l-0.288-0.068H7.602l-0.727-0.253H6.44L6-100.259l-0.107-0.106
		l-0.508-0.243l-0.575,0.012H4.117h-0.44l-0.243,0.102l-0.265,0.141l-0.462,0.175l-0.22,0.231l-0.231,0.175l-0.243,0.226
		L1.77-99.374l-0.333,0.164l-0.243,0.135l-0.683,0.13l-0.175,0.102L0.18-98.657l-0.175,0.197l-0.327,0.332l-0.237,0.463h-0.164
		l-0.118-0.157l-0.632-0.463l-0.073-0.141l-0.011-0.125l-0.333-0.372l-0.068-0.231l-0.305-0.383l-0.243-0.355l-0.203-0.429
		l-0.152-0.243l-0.163-0.22l-0.277-0.276l-0.243-0.265l-0.163-0.243l0.011-0.496l0.249-0.276l0.124-0.242v-0.231l0.034-0.197
		l-0.22-0.243l-0.243-0.242l-0.243-0.186l-0.412-0.311l-0.129-0.209l-0.175-0.175l-0.243-0.169l-0.243-0.282l-0.102-0.191
		l-0.186-0.305l-0.175-0.203l-0.146-0.282l-0.141-0.192l-0.231-0.174l-0.389-0.429l-0.175-0.198l-0.208-0.242l-0.197-0.135
		l-0.531-0.429l-0.231-0.187l-0.175-0.197l-0.079-0.231l-0.057-0.136l-0.012-0.033l-0.152-0.164l-0.13-0.152l-0.214-0.699
		l-0.198-0.305l-0.174-0.299l-0.057-0.355l-0.084-0.248l-0.034-0.236l-0.056-0.209l-0.243-0.242l-0.174-0.26l-0.717,0.118
		l-0.948,0.045l-0.654,0.164l-0.812-0.164l-0.959,0.062l-0.818,0.214l-0.795-0.158l-0.812-0.315l-1.083-0.53l-0.614-0.902
		l-0.649-0.795l-0.434-0.638l-0.129-0.733l-0.451-0.744l-0.451-0.739l-0.311-1.167l-0.852-0.739l-0.902-0.53l-0.948-0.429
		l-1.1-0.632l-1.613-0.536l-1.444-0.643l-1.398-0.693l-0.519-0.429l-1.896-0.164l-1.201,0.107h-0.592l-1.201-0.22h-0.575
		l-0.97-0.102h-1.179l-1.156,0.057h-1.257h-0.575l-1.021-0.057l-0.576-0.051l-0.937,0.327l-0.575,0.31l-0.958,0.221l-1.021,0.31
		l-0.654,0.164h-0.716l-0.57-0.107l-1.179-0.587l-0.367-0.637l-0.958-0.694l-0.795-0.484l-1.342-0.632l-1.597-0.429l-0.942-0.102
		h-1.032l-0.761,0.575l-0.44,0.429l-0.717,0.53l-0.366,0.429l-0.519,0.321l-0.305,0.31l-0.067,0.536l-0.311,0.52l-0.288,0.429
		l-0.451,0.378l-0.497,0.474l-0.327,0.53l-0.575,0.535l-0.806,0.423l-0.384,0.373l-0.508,0.474l-0.383,0.429l-0.53,0.203
		l-0.869,0.429l-1.201,0.22l-0.728,0.221l-0.886,0.101l-1.032,0.062h-1.15l-0.75-0.266h-0.581h-0.971h-0.288h-0.638h-0.75
		l-1.201-0.107h-0.716h-1.156l-1.026-0.102l-0.891-0.106l-1.015-0.519l-0.598-0.322l-0.705-0.372l-1.157-0.632l-0.716-0.428
		l-1.535-0.581l-1.263-0.158l-1.026,0.057l-1.523,0.327l-0.835,0.31l-0.739,0.321l-1.094,0.311l-0.524,0.118l-0.711,0.102
		l-0.429,0.107h-0.75l-1.1,0.265l-0.958,0.311l-0.508,0.384l-0.44,0.102l-0.66-0.164l-0.716-0.423l-0.717-0.536l-0.575-0.529
		l-0.44-0.209l-0.75-0.158l-0.649,0.311l-0.75,0.22h-0.254l-0.958,0.102l-0.762,0.107h-0.44l-0.575,0.057l-0.519,0.163l-0.209,0.209
		l-0.067,0.423l-0.35,0.265l-0.728,0.485l-0.428,0.536l-0.452,0.643l-0.242,0.429l-0.242,0.417v0.53l-0.147,1.27l-0.068,0.485
		l-0.208,0.429l-0.293,0.429l-0.321,0.321l-0.367,0.315l-0.293,0.221v0.474v0.586l0.513,0.902l0.181,0.424l0.254,0.592l0.197,0.632
		l0.311,0.745l0.208,0.529l0.073,0.632l0.057,0.638l0.102,0.75l-0.169,0.847l-0.141,0.902v0.53v0.643l0.067,0.53l-0.31,0.744
		l-0.649,0.53l-0.632,0.643l-0.524,0.536l-0.575,0.587l-0.971,0.429l-0.716,0.485l-0.818,0.529l-0.739,0.638l-0.243,0.587
		l-0.524,0.53l-0.243,0.429l0.062,0.959l0.451,0.738l0.564,1.179l0.378,0.857l0.452,0.739l0.276,0.959l0.44,1.06l0.327,0.96v0.913
		l0.243,0.739v0.637v0.531v0.958l-0.073,0.959l-0.147,0.739l-0.243,0.738l-0.141,0.751l-0.135,0.637l-0.243,0.632l-0.197,0.638
		l-0.231,0.75v0.637l0.158,0.531l0.085,0.637l-0.604,0.739l-0.507,0.75l-0.598,0.738l-0.728,0.847l-0.671,1.061l-0.705,0.739
		l-0.383,0.958l-0.654,0.853l-0.13,0.958l-0.378,0.857l0.276,0.53l0.389,0.857l0.243,0.632l-0.068,1.494l-0.079,0.853l0.242,1.179
		v0.841v0.744l-0.451,0.587l-0.209,0.484l-0.31,0.693l0.22,0.796l0.654,0.53l0.508,0.959l0.513,0.637l0.243,0.638l0.299,0.53
		l0.22,0.857l0.146,0.739l0.073,0.631l0.068,0.959l-0.451,0.959l-0.384,0.739l-0.507,0.738l-0.508,0.638l-0.377,0.53l-0.243,0.739
		l0.067,0.384l0.208,0.574l0.057,0.739l-0.208,0.638l-0.367,0.378l-0.812,0.474l-0.586,0.327l-0.451,0.321l-0.288,0.638
		l-0.243,0.632l-0.208,0.744l-0.31,0.632v0.53l0.367,0.474l0.451,0.22l0.384,0.22v0.43l-0.451,0.429l-0.507,0.529l-0.525,0.429
		l-0.435,0.644l-0.304,0.744l-0.079,0.852l-0.716,2.082l-0.462,1.004l-0.231,0.738l-0.321,0.739l-0.243,0.637l-0.067,0.853
		l-0.153,0.637l-0.451,0.102l-0.44,0.221v0.529l0.152,0.316l0.378,0.321l0.243,0.221l-0.068,0.529l-0.31,0.53l-0.209,0.372
		l-0.507,0.158l-0.891,0.051l-1.027,0.057l-1.179,0.321l-0.496,0.163l-0.959,0.367l-0.507,0.164l-0.959,0.53l-0.795,0.326
		l-0.451,0.158v0.592l0.655,0.841l0.513,0.485l0.621,0.485l0.603,0.535l0.519,0.424l0.276,0.429l0.243,0.484l0.243,0.474v0.429
		l0.163,0.53l0.519,1.28l0.198,0.418l0.124,0.327v0.632l-0.209,0.326v0.576l0.243,0.795l-0.022,0.536v0.53l0.31,0.632l0.243,0.315
		l0.373,0.102l0.614-0.22l0.519-0.265l0.355-0.373l0.35-0.124l0.598-0.197l0.705-0.209l0.75,0.045l0.581,0.316l0.243,0.632
		l0.355,0.429l0.383,0.738l0.576,0.327h0.75h0.869l0.948-0.107l1.105,0.152l0.361,0.113l0.231,0.429l-0.44,0.53l-0.508,0.209
		l-0.383,0.429l-0.31,0.321l-0.429,0.417l-0.377,0.321l-0.22,0.418v0.429l0.377,0.53l0.384,0.31l0.507,0.429l0.277,0.221
		l0.079,0.429l0.085,0.519v0.75l0.209,0.311l0.507,0.062l0.66,0.158l0.446,0.429l0.429,0.53l0.44,0.429l0.739,0.648l0.835,0.311
		l0.71,0.056l0.716,0.046l1.167,0.637l0.66,0.311l0.344,0.372l0.383,0.164l0.141,0.587l0.079,0.529l0.068,0.581l0.152,0.632
		l-0.011,0.581l0.068,0.485l0.056,0.586l0.074,0.53l0.231,0.372l0.203,0.311l0.249,0.429l0.203,0.311l0.13,0.315v0.423v0.429
		l-0.243,0.322l-1.026,0.428l-0.243,0.221l-0.186,0.31v0.429v0.209l0.355,0.175l0.36,0.254l0.367,0.366l0.519,0.486l0.373,0.106
		l0.384,0.322l0.507,0.044l0.632,0.062l0.451,0.157l0.242,0.311l-0.067,0.328l-0.141,0.31l0.164,0.321l0.429,0.209l0.243,0.316
		l0.135,0.321l0.22,0.428l0.197,0.322l0.395,0.106l0.564,0.103l0.508,0.208l0.327,0.164l0.288,0.321v0.366l0.135,0.423l-0.146,1.072
		l-0.152,0.418l-0.057,0.71l-0.067,0.599v0.474v0.372l0.124,0.429v0.428h-0.242l-0.717-0.169l-0.288-0.113l-0.519,0.046
		l-0.276,0.316v0.53l0.124,0.529l0.299,0.542l0.293,0.315l0.242,0.429l0.243,0.248l0.575,0.068l0.717,0.113l0.818,0.089l0.581-0.248
		l0.135-0.429l0.231-0.541v-0.699l0.293-0.316l0.242-0.202h1.162l0.891-0.113l0.66-0.519l0.378-0.654l0.293-0.688l0.299-0.553
		l0.22-1.105l0.135-0.598l0.948-0.215l1.145-0.067l1.179,0.857l0.057,0.653l0.254,0.475l-0.057,0.834v0.475l0.243,0.428l0.451,0.542
		l0.355,0.429l0.451,0.429l0.581,0.406l0.242,0.53l0.079,0.53l-0.22,0.372l-0.384,0.36l-0.507,0.373l-0.655,0.429l-0.507,0.248
		l-0.384,0.541l-0.637,0.474l-0.53,0.588l-0.508,0.631l-0.519,0.745l-0.508,0.857l-0.361,0.834l-0.451,0.745l-0.231,0.947
		l-0.276,0.97l0.243,1.061l0.056,0.655l0.384,0.834l0.372,0.857l0.243,0.632l0.31,0.857l0.22,0.361l0.135,0.18l0.429,0.644
		l0.373,0.846l0.377,1.116l0.243,1.017l0.243,0.733l0.208,0.721l0.451,0.902l0.373,0.542l0.434,0.632l0.592,0.632l0.598,0.71
		l0.497,0.688l0.451,0.587l0.581,0.587l0.507,0.654l0.44,0.519l0.508,0.541l0.451,0.643l0.378,0.645l0.243,0.518l0.384,0.542
		l0.208,0.52l0.146,0.495v0.588l0.129,0.405l0.311,0.429l0.288,0.429l0.057,0.542V58.4l-0.445,0.508l-0.074,0.405l-0.632,0.372
		l-0.53,0.271l-0.514,0.316l-0.147,0.428v0.406l0.22,0.654l0.243,0.654l0.22,0.406l0.243,0.653l0.231,0.632l-0.011,0.53l-0.22,0.632
		l-0.22,0.858l-0.429,0.643l-0.519,0.632l-0.316,0.429l-0.203,0.542v0.631l0.079,0.97l0.242,0.52l0.125,0.654l0.22,0.405l0.22,0.654
		v0.599l-0.079,0.755l-0.22,0.633l-0.152,0.429l-0.231,0.744l-0.203,0.722l-0.118,0.745l-0.068,0.971l0.209,0.946l0.124,0.654
		l0.507,0.745l0.231,0.631l-0.231,0.633l-0.243,0.767l-0.242,0.632l-0.124,0.643l0.299,0.733l0.208,0.723v0.519l0.299,0.744
		l0.288,0.699l0.243,0.497l0.073,0.519v0.654l-0.282,0.429l-0.643,0.632l-0.53,0.553l-0.243,0.418l0.08,0.834l0.355,0.542
		l0.372,0.519l0.508,0.236l0.508,0.316l0.716,0.52l0.592,0.326l0.299,0.429v0.429l-0.299,0.305l-0.383,0.429l-0.728,0.328
		l-0.604,0.169l-0.519,0.349l-0.355,0.429v0.644l0.242,0.666l0.355,0.936l0.592,0.733l0.22,0.745l0.288,0.631l0.243,0.745
		l0.277,0.857l0.152,0.52l0.079,0.743v0.733v0.644l0.056,0.429l0.44,0.417l0.604,0.057l0.564,0.305l0.451,0.214l0.056,0.113h0.519
		l0.463,0.226l0.592,0.271l0.181,0.022l0.175,0.068h0.417l0.4-0.361l0.164-0.361l0.186-0.451l0.231-0.236l0,0l0.631-0.237l0.66-0.26
		l0.716-0.406l0.35-0.123l0.576-0.091l0.705-0.045h0.869h0.597l0.474,0.136l0.384,0.191l0.553,0.124l0.243-0.068l0.044-0.552v-0.26
		l0.045-0.666l0.062-0.474l0.181-0.541l0.648-0.474l0.288-0.305l0.35-0.475l0.344-0.191h0.299h0.869h0.428l0.322,0.146l0.474-0.271
		l-0.011-0.384l-0.716-0.722l-0.242-0.339l-0.418-0.395l-0.389-0.191l-0.418-0.091l-0.406-0.135l-0.344-0.091l-0.288-0.09
		l-0.649-0.136l-0.462-0.135l-0.231-0.091l-0.344-0.079l-0.231-0.169l0.102-0.586l0.231-0.271l0.186-0.305l0.277-0.214l0.344-0.249
		l0.592-0.066l0.406,0.157l0.412,0.632l0.13,0.191l0.507,0.091h0.254h0.22l0.243-0.091l0.231-0.26V97.07l-0.288-0.248l-0.536-0.35
		l-0.288-0.124l-0.485-0.135l-0.417-0.475l0.243-0.361l0.547-0.181l0.288-0.045h0.649h0.75l0.716-0.044l0.53-0.046l0.406-0.18
		l0.333-0.046h0.66l0.463-0.045l0.243,0.045l0.169,0.451l0.242,0.36l0.242,0.328l0.407,0.496l0.417,0.563l0.344,0.452v0.169
		l0.062,0.35v0.62l-0.164,0.451l0.113,0.666l0.243,0.305l0.163,0.304l0.231,0.26l0.011,0.215v0.405l-0.113,0.328l-0.22,0.338
		l-0.164,0.361v0.338l-0.056,0.542v0.338l-0.164,0.305l-0.079,0.191l-0.242,0.475l-0.073,0.305l0.361,0.26l0.406,0.191l0.631,0.237
		l0.011,0.022l0.243,0.429v0.169v0.045l-0.462,0.711l-0.231,0.259l-0.243,0.496l-0.4,0.621l-0.242,0.35l-0.265,0.463l-0.13,0.18
		l-0.186,0.339v0.361l0.519,0.09l0.361,0.045h0.242h0.243l0.937-0.315l0.288-0.045h0.175h0.474l0.355,0.09l0.519,0.215l0.536,0.09
		h0.446h0.417h0.581h0.807h0.598l0.406-0.181l0.107-0.079l0.243-0.203l0.333-0.294l0.113-0.021l0.186-0.022l0.75,0.146l0.084,0.045
		l0.389,0.26l0.395,0.237l0.067,0.022l0.299,0.146l0.581,0.045h1.038h0.417h0.462l0.231,0.067l0.187,0.045l0.423,0.158h0.338
		l0.706,0.022h0.519h0.288l0.343,0.136l0.107,0.203l0.209,0.36l0.158,0.385l0.13,0.36l0.057,0.18l0.231,0.316l0.242,0.429
		l0.023,0.068l0.164,0.451v0.203v0.248l0.011,0.135v0.135v0.385l-0.057,0.236l0.158,0.496l0.152,0.214l0,0l0,0l0.231,0.182
		l0.355,0.36l0.474,0.429l0.406,0.35l0.243,0.215l0.141,0.09l0.474,0.316l0.243,0.35l0.288,0.327l0.395,0.406l0.237,0.405
		l0.474,0.429l0.338,0.451l0.124,0.136l0.271,0.384l0.253,0.406l0.243,0.339l0.243,0.405l0.243,0.226l0.462,0.361l0.31,0.157
		l0.288,0.113l0,0l0.451,0.214l0.355,0.237l0.361,0.191l0.164,0.079l0.412,0.181l0.581,0.271l0.254,0.18l0,0l0.575,0.316
		l0.254,0.135l0.254,0.181l0.53,0.169l0.265,0.091l0.26,0.102l0.242,0.09l0.75,0.237l0.344,0.236l0.361,0.181l0.102,0.045
		l0.417,0.181l0.355,0.191l0.288,0.182l0.547,0.169h0.034l0.474,0.226l0.288,0.09l0.243,0.136l0.333,0.112l0.062,0.022l0.243,0.079
		l0.231,0.046l0.288,0.089l0.124,0.057l0.649,0.35l0.395,0.17l0.344,0.135l0.88,0.181l0.034,0.091l0.141,0.248l0.344,0.102h0.011
		l0.31,0.236l0.045,0.045l0.084-0.045l0.022-0.022l0.113-0.451l-0.113-0.338l-0.107-0.351l-0.243-0.429l-0.034-0.462l-0.102-0.451
		v-0.271v-0.451v-0.373v-0.214v-0.237l-0.118-0.169l-0.113-0.135l-0.243-0.361l-0.243-0.35l-0.056-0.497v-0.53l0.231-0.395
		l0.22-0.26l0.18-0.315l0.13-0.202l0.243-0.407l0.147-0.191l0.141-0.169l0.243-0.249l0.451-0.191l0.66-0.191l0.576-0.181
		l0.716-0.045l0.395-0.181l0.355-0.236l0.462-0.306l0.649-0.36h0.344l0.463,0.226v0.361v0.09v0.045v0.384l0.186,0.406l0.187,0.248
		l0.102,0.09l0.045,0.248l0.011,0.113l0.062,0.36v0.362l-0.051,0.608v0.181l0,0l-0.056,1.14l0.107,0.439l0.265,0.451l0.102,0.339
		l0.243,0.384l0.243,0.405l0.107,0.203l0.057,0.113l0.186,0.406l0.057,0.066l0.124,0.362l0.22,0.338l0.243,0.158l0.35,0.237
		l0.378,0.214l0.683,0.181l0.333,0.135l0.282,0.113l0.242,0.157l0.136,0.068l0.35,0.248l0.276,0.181l0.66,0.181h0.011l0.22,0.113
		l0.299,0.314l0.242,0.137l0.311,0.18l0.35-0.113l0.124-0.022l0.243-0.067l0.09-0.022l0.327-0.226l0.463-0.191l0.287-0.045h0.023
		h0.728h0.152h0.113l0.35,0.169l0,0l0.243,0.09l0.067,0.023l0.113,0.021l0.338,0.045h0.243h0.231h0.243h0.056h0.034h0.277l0.36-0.09
		l0.102-0.09l0.299-0.124l0.05-0.022h0.023l0,0l0.389-0.091l0.581-0.146h0.463h0.423l0.163,0.022l0.417,0.079l0.474,0.045
		l0.31,0.068l0.553,0.101h1.365l0.626-0.259l0.462-0.079l0.716-0.136l0.412-0.146H1.11l0.304-0.146l0.474-0.226l0.728-0.181
		l0.311-0.181l0,0l0.519-0.135l0.141-0.08l0.079-0.066l0,0h0.012l0.242-0.237l0.209-0.191l0.175-0.091l0.242-0.191l0.412-0.181
		l0.293-0.091h0.333h0.164h0.136h0.429l0.242,0.068l0.242,0.045l0.243,0.045h0.119h0.135h0.164l0.242,0.045h0.057l0.395,0.046H8.38
		H8.9l0.31-0.497l0.288-0.237l0.107-0.045l0.169-0.101l0.524-0.328l0.474-0.146l0.564-0.35l0.243-0.406l0.242-0.474l0.034-0.045
		l0.288-0.361l0.107-0.439l0.186-0.531l0.102-0.281l0.068-0.214l0.034-0.373l0.011-0.237v-0.405v-0.35l-0.045-0.293l-0.299-0.315
		l-0.129-0.836L12.419,119h0.705l0.637,0.079h0.417h0.452l0.598-0.26l0.463-0.146h0.586l0.294,0.146l0.519,0.26l0.401,0.091
		l0.36,0.259l0.462,0.248l0.396,0.316l0.242,0.18l0.587,0.384l0.293,0.182l0.361,0.135l0.226,0.191l0.248,0.125l0.338,0.089
		l0.869,0.046l0.35-0.046l0.067-0.045l0.294-0.214l0.383-0.192l0.294-0.226l0.429-0.202l0.519-0.203l0.519-0.316l0.294-0.181
		l0.474-0.057h0.474l0.384-0.135l1.061-0.282h1.466l0.632-0.101h0.406h0.722l0.52-0.091l0.294-0.057l0.631-0.09l0.429-0.046h0.52
		h0.563l0.36,0.091h0.418l0.53-0.091l0.339-0.09l0.36-0.293l0.282-0.045h0.711l0.429,0.067l0.383,0.102l0.406,0.09h0.417
		l0.305-0.236l0.351-0.136l0.327-0.09l0.88-0.181l0.474-0.136l0.519-0.045h0.723l0.563,0.136l0.52,0.18l0.518,0.068l0.542,0.226
		l0.294,0.191l0.281,0.191l0.351,0.227l0.248,0.135l1.579,0.361h0.214h0.587l0.35-0.158l0.519-0.248l0.621-0.09h0.372h0.609
		l0.722,0.293l0.36,0.203l0.802,0.112l0.417,0.181l0.294,0.146l0.36,0.192l0.237,0.203l0.586,0.18l0.396,0.203l0.248,0.045
		l0.563,0.125l0.598,0.237l0.396,0.135h0.429h0.406l0.632-0.181l0.248-0.214l0.248-0.26l0.248-0.271l0.271-0.249l0.36-0.248
		l0.406-0.112l0.293-0.271l0.294-0.181l0.293-0.191l0.631-0.192l0.564-0.282l0.723-0.259l0.586-0.237l0.52-0.237l1.105-0.349
		l0.406-0.215l0.36-0.158h0.711l0.35-0.046h0.666l0.857,0.182l0.665,0.135l0.52,0.146l0.631,0.17l0.767,0.09l0.113,0.091l0.52,0.135
		l0.947,0.113l0.214,0.181l1.128,0.338l0.385,0.158l0.304,0.191l0.633,0.169l0.36,0.046l0.768,0.226l0.518,0.135l0.351,0.136
		l1.162,0.384l0.36,0.271l0.723,0.88l0.248,0.497l0.157,0.428l0.046,0.203l0.078,0.294l0.113,0.18l0.124,0.181l0.417,0.271
		l0.407,0.202l0.281,0.09l0.293,0.192l0.361,0.146l0.575,0.203l0.475,0.158l0.474,0.202l0.26,0.271l0.36,0.316l0.586,0.236
		l0.361,0.315l0.406,0.182h0.395l1.071,0.191l0.52,0.135l0.282,0.294l0.124,0.541v0.609v1.331v0.281l-0.249,0.361v0.497l-0.202,0.26
		l-0.249,0.247l-0.044,0.248l-0.068,0.26l-0.226,0.554l-0.157,0.18v0.429l0.056,0.542l0.237,0.36l0.236,0.395l0.328,0.576
		l0.067,0.237l0.067,0.112l0.045,0.259l0.068,0.406v0.429v0.496l-0.248,0.52l-0.046,0.497l-0.045,0.235l-0.068,0.237l-0.112,0.587
		l-0.112,0.529l-0.067,0.44v0.43v0.405l0.022,0.136l0.066,0.214l0.385,0.406l0.405,0.26l0.294,0.293l0.338,0.361l0.079,0.09
		l0.169,0.294l0.35,0.315v-0.046l0.125,0.52l0.045,0.474v0.136v0.621l0.045,0.146l0.09,0.203l0.282,0.406l0.475,0.26l0.36,0.191
		l0.236,0.136l0.136,0.045l0.067,0.045l0.169,0.091l0.17,0.315l0.237,0.293l0.067,0.181v0.384v0.112l0.057,0.34l0.022,0.044
		l0.091,0.237l0.247,0.102l0.248,0.091l0.282,0.021h0.237h0.248h0.35l0.124,0.045l0.451,0.137l0.226,0.135l0.249,0.226l0.202,0.236
		l0.023,0.057l0.226,0.067l0.338,0.305l0.191,0.146l0.079,0.046l0.395,0.35l0.406,0.056l0.88,0.068l0.52,0.045l0.214-0.022
		l0.203-0.022l0.339-0.191l0.429-0.146l0.439-0.068l0.429-0.135h0.079l0.304-0.045h0.373l0.406-0.181h0.022l0.384-0.091l0.236-0.045
		l0.192-0.022h0.587h0.203h0.428h0.339h0.474h0.587h0.293l0.35,0.067l0.327,0.158l0.474,0.136l0.598,0.044l0.407,0.068l0.541,0.091
		l0.327,0.045l0.304,0.247l0.305,0.26l0.271,0.26l0.35,0.091h0.405h0.418l0.406-0.046h0.068l0.338-0.135l0.236-0.181l0.306-0.227
		l0.27-0.248l0.248-0.27l0.113-0.068l0.226-0.113l0.282-0.226l0.056-0.044l0.249-0.192l0,0l0.248-0.406l0.248-0.215l0.237-0.226
		l0.214-0.09l0.248-0.113h0.249l0.429,0.158l0.304,0.204l0.599,0.236l0.349,0.09l0.711,0.26l0.294,0.169l0.632-0.146h0.022
		l0.236-0.091l0.237-0.202l0.294-0.158l0.36-0.293l0.406-0.249l0.339-0.259l0.405-0.237l0.654-0.181l0.632-0.383l0.745,0.045
		l0.36-0.191l0.383-0.282l0.249-0.248l0.339-0.181l0.248-0.091l0.124-0.248l-0.418-0.157l-0.135-0.361l-0.158-0.496l-0.249-0.316
		l-0.247-0.541l-0.136-0.407l-0.191-0.721l-0.237-0.633l-0.191-0.563l-0.169-0.654l-0.351-0.631l-0.236-0.564l-0.26-0.429
		l-0.463-0.451l0.158-0.429l-0.226-0.249l-0.587-0.045l-0.519,0.113l-0.496-0.157l-0.609-0.091l-0.496-0.135l-0.677-0.091h-0.361
		l-0.541-0.103l-0.463-0.112l-0.26-0.236l-0.271-0.339l-0.327-0.384l-0.282-0.293l-0.405-0.226l-0.339-0.361l-0.361-0.316
		l-0.361-0.338l-0.383-0.305l-0.315-0.304l-0.248-0.339l-0.226-0.271l-0.249-0.292l-0.091-0.203l-0.214-0.497l-0.237-0.519
		l-0.214-0.406l-0.282-0.564l-0.259-0.429l-0.147-0.248l-0.304-0.541l-0.125-0.587l-0.135-0.519l-0.022-0.52l0.09-0.496l0.226-0.338
		l0.204-0.316l0.021-0.372v-0.496v-0.451l0.192-0.35l0.215-0.474l0.135-0.249l0.248-0.226l0.271-0.214l0.249-0.316l0.18-0.462
		v-0.452v-0.529v-0.418l0.338-0.384l0.451-0.214l0.328-0.09l0.496-0.045l0.259-0.215l0.339-0.564l0.203-0.541l0.146-0.587
		l0.237-0.519l0.136-0.654l0.236-0.384l0.237-0.237l0.293-0.045l0.248-0.281l-0.181-0.599l-0.203-0.439l-0.271-0.315l-0.338-0.215
		l-0.248-0.181l-0.599,0.045h-0.519l-0.327-0.236l-0.249-0.361l-0.314-0.293l0.056-0.519v-0.407l0.236-0.36l0.248-0.203l0.271-0.045
		l0.248-0.181l0.135-0.293l-0.169-0.227l-0.146-0.214l0.271-0.451l0.021-0.643l0.159-0.395l0.191-0.666l0.123-0.542v-0.496
		l-0.044-0.451l-0.045-0.475v-0.495l0.112-0.474l0.248-0.362l0.383-0.226l0.43-0.202l0.812-0.023l0.789,0.203l0.847,0.159
		l0.711-0.068h0.721l0.88,0.068l0.542,0.169l0.237,0.259l0.508,0.294l0.462,0.247l0.666,0.159l0.857,0.022l0.608-0.226l0.215-0.294
		l0.079-0.271v-0.563l0.18-0.429l0.203-0.43l0.181-0.541l0.113-0.519l0.236-0.767l0.102-0.43l0.18-0.496l0.103-0.35v-0.553
		l0.022-0.564l0.079-0.474l0.045-0.519v-0.339l-0.045-0.474l-0.248-0.654l-0.316-0.541l-0.157-0.451l-0.046-0.474v-0.564
		l0.046-0.451l0.135-0.406l0.181-0.429l0.158-0.36l0.293-0.226l0.384-0.271l0.429-0.158l0.338-0.169l0.248-0.237l0.395-0.112h0.43
		l0.53-0.113l1.016-0.203l0.608-0.112l0.587-0.236l0.541-0.215l0.294-0.181l0.417-0.293l0.305-0.26l0.271-0.191l0.294-0.136
		l0.271-0.136l0.226-0.226l0.248-0.09l0.271-0.045l0.406,0.09L133,91.453l0.36-0.023l0.237-0.135l0.169-0.361l-0.045-0.497
		l-0.022-0.474l0.067-0.405l0.045-0.271l-0.045-0.247l-0.236-0.113h-0.351l-0.405-0.079l-0.226-0.09l-0.068-0.282l0.022-0.215
		l0.203-0.146l0.429-0.227l0.474-0.248l0.339-0.236l0.384-0.137l0.405-0.304l0.52-0.316l0.327-0.214l0.305-0.191l0.124-0.226
		l0.033-0.249l-0.226-0.428l-0.157-0.52l-0.068-0.406v-0.405l0.294-0.227l0.294-0.214l0.586-0.113l0.643,0.091l0.351,0.102
		l0.429,0.135l0.304,0.181l0.339,0.091l0.474,0.112h0.609l0.756-0.09l0.575-0.091l0.236-0.157l0.294-0.339l0.248-0.293l0.191-0.339
		l0.124-0.417l0.113-0.36l0.135-0.328l0.147-0.248l0.056-0.271v-0.249l-0.248-0.349l-0.71-0.136l-0.733-0.146l-0.723-0.226
		l-0.563-0.158l-0.677-0.203l-0.542-0.542v-0.428v-0.541l0.046-0.52v-0.429l0.157-0.496l0.226-0.542l0.248-0.36l0.203-0.271
		l0.248-0.304l0.406-0.147l0.248,0.102l0.249,0.237l0.236,0.226l0.327,0.181l0.248,0.022h0.248l0.248-0.068l0.451-0.135l0.372-0.226
		l0.351-0.496l0.169-0.237l0.305-0.305l0.169-0.361l0.125-0.236l0.236-0.068l0.462,0.113l0.17,0.338l0.327,0.215l0.248,0.113h0.711
		l0.688-0.192l0.723-0.305l0.248-0.271l0.496-0.271l0.439-0.292l0.294-0.351l0.236-0.326l0.249-0.125l0.496,0.022l0.519,0.305
		l0.621,0.023l0.529-0.023l0.7,0.08h0.608l0.79-0.08l0.497-0.248l0.428-0.214l0.305-0.237l0.271-0.236l0.237-0.215l0.395-0.237
		l0.474-0.259l0.351-0.226l0.429-0.181l0.202-0.181l0.136-0.248l0.045-0.372l0.068-0.214l0.101-0.248l0.147-0.249l0.112-0.18v-0.52
		l-0.09-0.768v-0.598l0.226-0.35v-0.541l-0.067-0.475v-0.405l-0.113-0.52l-0.236-0.429l-0.103-0.496l-0.09-0.305l0.067-0.418
		l0.249-0.36l0.067-0.338l0.248-0.26l0.033-0.407v-0.371l-0.169-0.315l-0.123-0.419l-0.103-0.483l-0.135-0.678l0.078-0.699v-0.474
		l-0.101-0.61v-0.495l0.101-0.451l0.057-0.305v-0.395l0.079-0.294l0.169-0.248l0.146-0.249v-0.451l0.034-0.474v-0.395l-0.248-0.688
		l-0.022-0.563l-0.236-0.677l-0.237-0.405l-0.214-0.452l-0.057-0.722v-0.609l0.09-0.361l-0.023-0.429v-0.282l0.204-0.26l0.237-0.247
		l0.09-0.339v-0.925l-0.046-0.541l0.057-0.655v-0.429l-0.057-0.429l-0.078-0.292l-0.022-0.237l-0.237-0.351v-0.236l-0.169-0.451
		l-0.136-0.451v-0.372l0.102-0.564l-0.102-0.947l0.102-0.564l0.203-0.226l0.078-0.214l0.023-0.327l0.248-0.248l0.203-0.226
		l0.091-0.407v-0.473l-0.091-0.474V37.44v-0.36v-0.316l-0.293-0.451l-0.439-0.632l-0.237-0.406l-0.316-0.361l-0.36-0.451
		l-0.451-0.315l-0.361-0.474l-0.249-0.384l-0.473-0.418l-0.182-0.429v-0.563l0.203-0.53l0.068-0.395l0.022-0.711l0.045-0.632
		l0.113-0.608V28.37l0.236-0.767v-0.406v-0.315l-0.271-0.158l-0.519-0.045h-0.599l-0.608-0.112l-0.835-0.159l-0.474-0.089
		l-0.451-0.17l-0.586-0.146l-0.542-0.226l-0.723-0.103l-0.643-0.169l-0.666-0.282l-0.62-0.044l-0.688-0.022l-0.429-0.103
		l-0.723-0.09l-0.812,0.067l-0.587,0.147l-0.475,0.112l-0.405-0.09l-0.654-0.237l-0.666-0.09l-0.553-0.068l-0.71-0.067h-0.396
		l-0.496-0.022l-0.564,0.09h-0.405l-0.576-0.112l-0.62-0.181l-0.52-0.236l-0.563,0.022l-0.429,0.146l-0.395,0.112l-0.496,0.113
		h-0.429h-0.497l-0.665-0.113l-0.609-0.192l-0.53-0.349l-0.35-0.294l-0.113-0.541l-0.226-0.564l-0.248-0.563l-0.271-0.496
		l-0.541-0.406l-0.542-0.17h-0.474h-0.384l-0.519,0.022h-0.361h-0.429l-0.35-0.18l-0.09-0.361v-0.396l0.034-0.552l0.066-0.418
		l0.113-0.541v-0.717l0.023-0.496l-0.091-0.841l0.136-0.592l-0.022-0.586l0.044-0.277l0.136-0.164l0.271-0.021l0.429-0.176
		l0.541-0.208l0.643-0.209l0.644-0.4l0.609-0.254l0.315-0.254l0.248-0.254l-0.067-0.49v-0.852l-0.091-0.542l0.113-0.75l0.124-0.485
		l0.067-0.508V9.018l-0.124-0.672l-0.271-0.474l-0.248-0.31l-0.282-0.209l-0.643-0.13l-0.768-0.034l-0.52,0.022h-0.574l-0.554,0.079
		h-0.755h-0.328l-0.338,0.022l-0.271,0.085l-0.339,0.164l-0.09,0.276v0.231l0.09,0.411l0.067,0.276l0.125,0.282v0.203l-0.102,0.304
		l-0.249,0.158l-0.067,0.316l-0.033,0.254l-0.102,0.208l-0.226,0.158l-0.52,0.096l-0.586-0.073l-0.531-0.022l-0.767-0.057
		l-0.519-0.102l-0.711-0.106l-0.723-0.023h-0.529l-0.463-0.078L119.936,10l-0.135-0.44l-0.046-0.439l0.067-0.485l0.237-0.587
		l0.192-0.417l0.226-0.339l0.203-0.253l0.304-0.322l0.373-0.187l0.248-0.31l0.586-0.406l0.609-0.288l0.26-0.23l0.327-0.209
		l0.271-0.276l0.248-0.124l0.361-0.305l0.315-0.677l0.158-0.592l0.293-0.418l0.294-0.389l0.429-0.508l0.293-0.316l0.26-0.417
		l0.259-0.311l0.237-0.332l0.236-0.361l0.339-0.378l0.271-0.519l0.315-0.418l0.248-0.384l0.316-0.411l0.271-0.508l0.157-0.474
		l0.315-0.44l0.249-0.417l-0.023-0.417l-0.36-0.21l-0.699-0.146l-0.677-0.152l-0.723-0.102h-0.71l-0.892-0.164l-0.722-0.23
		l-0.564-0.187l-0.711-0.276v-0.3l-0.474-0.31l-0.406-0.463l-0.462-0.439l-0.722-0.339l-0.925-0.102l-0.417-0.045l-0.497,0.067
		l-0.711,0.079l-0.993-0.079l-0.925,0.079l-0.767-0.022h-1.083l-0.621-0.022l-0.598,0.152l-0.462-0.085l-0.711,0.107l-0.732,0.333
		l-0.645,0.305l-0.721,0.311l-0.633,0.31l-0.767,0.316l-0.62,0.146l-0.621,0.208l-0.429,0.152l-0.563,0.181l-0.564,0.316
		l-0.237,0.355l-0.236,0.31l-0.248,0.305l-0.248,0.355L105.17-3.25l-0.328,0.231l-0.632,0.046l-0.586,0.056l-0.745,0.102h-0.722
		h-0.971l-0.834-0.022h-0.926l-0.654-0.124l-0.711-0.079L97.285-3.25l-0.542-0.197l-0.474-0.163l-0.902-0.045h-0.632L94.16-3.38
		l-0.102,0.418L93.9-2.545l-0.236,0.463l-0.26,0.311l-0.688,0.671l-0.372,0.367L91.916-0.12l-0.294,0.519l-0.203,0.508l-0.237,0.541
		l-0.428,0.463l-0.52,0.254l-0.666,0.254L89.14,2.605L88.317,2.65l-0.282-0.311l-0.7-0.417l-0.157-0.564l-0.248-0.406l-0.418-0.598
		l-0.508-0.417l-0.598-0.299L84.65-0.548l-0.688-0.254l-0.71-0.254l-0.575-0.208l-0.711-0.107L81.13-1.417l-0.768-0.125
		l-0.789-0.022l-0.699-0.05h-0.609l-0.678-0.023h-0.902L75.986-1.66l-0.677,0.062l-0.98-0.107l-0.926,0.022L72.41-1.761
		l-0.925-0.045l-0.71-0.152L70.346-2.06l-0.632-0.547l-0.587-0.542l-0.496-0.484l-0.226-0.355l-0.169-0.282l-0.62-0.057h-0.328
		l-0.18-0.417L67.3-5.021l0.305-0.254l0.237-0.146l0.304-0.26l0.305-0.248l0.248-0.463l0.112-0.439l0.068-0.361l0.282-0.242
		l0.62-0.44l0.215-0.484l0.067-0.333v-0.276l-0.169-0.231l-0.384-0.022l-0.226,0.311l-0.249,0.208l-0.27,0.311l-0.451,0.209h-0.723
		L67.21-8.58l-0.294-0.204l-0.542-0.084l-0.631,0.163l-0.338,0.102h-0.43l-0.62-0.124l-0.508-0.152l-0.507,0.022l-0.406,0.096
		l-0.237,0.418L62.45-7.988l-0.463,0.209l-0.214,0.474L61.75-6.888l0.236,0.355l0.215,0.418v0.484l-0.395,0.209l-0.441,0.254
		L60.881-5.01l-0.575,0.209l-0.789,0.046l-0.621,0.22l-0.71,0.186l-0.385,0.187l-0.732,0.208l-0.665,0.079L55.252-3.69l-0.52,0.254
		l-0.879,0.157L53.12-3.126l-0.868,0.209L51.53-2.816l-0.519,0.13l-0.723,0.068l-0.564,0.021l-0.518-0.146l-0.723-0.484
		l-0.643-0.485l-0.688-0.463l-1.016-0.626l-0.665-0.563l-0.778-0.564L44.31-6.245l-0.113-0.057l-0.169-0.113l-0.835-0.671
		L42.64-7.711l-0.361-0.384l-0.338-0.248h-0.722L40.26-8.197l-0.688,0.022l-0.586,0.107L38.647-8.01l-0.236-0.209l-0.136-0.333
		v-0.462v-0.44l0.169-0.508l0.226-0.417l0.192-0.508l0.146-0.276l0.18-0.485l0.249-0.626l0.18-0.648l0.136-0.666l0.158-0.801v-0.62
		v-0.615l0.022-0.671l-0.181-0.643l-0.396-0.406l-0.236-0.52l-0.338-0.23l-0.057-0.299l0.09-0.57l0.192-0.333l0.091-0.598
		l0.247-0.569l0.158-0.418l0.248-0.399l0.226-0.373l0.293-0.417l0.271-0.311l0.597-0.355l0.282-0.36l0.406-0.311l0.136-0.254
		l0.102-0.254l-0.281-0.474l-0.182-0.463l-0.338-0.36L41.196-25.457"/>
</g>
<g id="Layer_1_1_">
</g>
</svg>
