<?xml version="1.0" encoding="iso-8859-1"?>
<!-- Generator: Adobe Illustrator 16.0.4, SVG Export Plug-In . SVG Version: 6.00 Build 0)  -->
<!DOCTYPE svg PUBLIC "-//W3C//DTD SVG 1.1//EN" "http://www.w3.org/Graphics/SVG/1.1/DTD/svg11.dtd">
<svg version="1.1" xmlns="http://www.w3.org/2000/svg" xmlns:xlink="http://www.w3.org/1999/xlink" x="0px" y="0px" width="6.702px"
	 height="6.308px" viewBox="0 0 6.702 6.308" style="enable-background:new 0 0 6.702 6.308;" xml:space="preserve">
<g id="Layer_132">
	<g id="Layer_137">
		<path id="Karachi_South" style="fill:#CCCCCC;stroke:#FFFFFF;stroke-width:1.07;" d="
			M1.727,3.291L1.727,3.291l1.117,0.317L3.049,3.73l0.956,1.025l0.293,0.215L4.49,5.069l1.321,0.674l0.144,0.012l0.138-0.126
			l0.048-0.201L6.057,5.232L5.679,5.028L5.677,5.023L5.555,4.929L5.488,4.884L5.42,4.771L5.375,4.652L5.351,4.546L5.289,4.492
			L5.231,4.466L4.894,4.385L4.881,4.363l-0.057-0.11L4.812,4.221L4.808,4.19l0.013-0.14l0.021-0.109l-0.003-0.07L4.845,3.8
			l0.017-0.092V3.649L4.854,3.593L4.842,3.546L4.814,3.463L4.798,3.382V3.381L4.775,3.285L4.77,3.238l0.003-0.082l0.005-0.093
			L4.8,2.979l0.01-0.041L4.83,2.906l0.037-0.042L4.925,2.81l0.083-0.068l0.037-0.039L5.06,2.676l0.067-0.049L5.193,2.57l0.062-0.065
			L5.3,2.452l0.041-0.062l0.024-0.062l0.017-0.018l0.045-0.03l0.047-0.045l0.063-0.062l0.037-0.056l0.008-0.037L5.57,2.047
			L5.545,2.013L5.513,1.979L5.492,1.95L5.476,1.908L5.455,1.854L5.423,1.815l-0.039-0.04L5.289,1.637L5.186,1.492L5.168,1.467
			L5.16,1.466L5.152,1.467L5.07,1.508L4.861,1.606L4.729,1.669L4.721,1.675L4.717,1.68V1.69l0.029,0.03l0.062,0.076l0.034,0.047
			l0.021,0.027l0.002,0.006L4.863,1.885L4.822,1.894L4.604,1.956L4.4,2.014L4.365,2.024L4.356,2.021L4.35,2.013L4.285,1.891
			L4.283,1.883H4.277L4.256,1.896L4.222,1.913L4.215,1.912L4.207,1.911L4.173,1.847L4.164,1.835l-0.01-0.001L4.131,1.845L4.121,1.85
			L4.113,1.848L4.105,1.833L4.072,1.781L3.985,1.632L3.966,1.603L3.944,1.592L3.922,1.587L3.908,1.586l-0.03,0.011L3.832,1.619
			L3.706,1.682L3.635,1.718L3.625,1.719L3.619,1.718l-0.048-0.02L3.504,1.673L3.385,1.638l-0.067-0.01L3.236,1.626L3.201,1.612
			L3.126,1.581L3.113,1.579L3.094,1.578L3.073,1.584L3.036,1.596L3.021,1.599L3.008,1.596L2.975,1.582L2.94,1.562L2.929,1.554
			L2.883,1.457L2.821,1.335V1.323L2.837,1.31l0.022-0.015l0.003-0.012l0.001-0.012L2.844,1.248L2.835,1.217L2.81,1.168L2.773,1.107
			L2.74,1.051L2.704,0.969L2.667,0.88L2.625,0.821L2.604,0.796l-0.05-0.072L2.532,0.737l-0.025,0.02l-0.039,0.03L2.447,0.803
			L2.397,0.82L2.332,0.84L2.283,0.845L2.232,0.847L2.208,0.851L2.171,0.861l-0.037,0.01L2.072,0.87L2.044,0.866L2.016,0.851
			l-0.019-0.02L1.98,0.811L1.942,0.79l-0.065-0.02L1.823,0.76L1.736,0.759L1.64,0.761L1.553,0.762L1.48,0.765L1.434,0.776
			L1.387,0.795L1.338,0.829L1.304,0.85L1.276,0.866L1.244,0.873L1.191,0.888L1.124,0.919L1.057,0.958L1.003,0.981L0.955,0.999
			L0.917,1.01L0.883,1.018L0.835,1.032L0.798,1.05L0.752,1.073L0.716,1.098L0.693,1.114L0.686,1.12l0.005,0.01l0.055,0.037
			l0.143,0.116L0.976,1.35L1.02,1.39l0.022,0.019l0.017,0.023l0.016,0.035l0.008,0.037l0.006,0.024L1.218,1.55l0.025,0.129
			L1.097,1.824l0.019,0.023L1.15,1.868l0.048,0.015l0.071,0.011l0.035,0.005l0.019,0.008L1.33,1.921l0.006,0.015v0.006L1.333,1.953
			L1.307,1.987L1.278,2.022L1.27,2.039L1.273,2.06L1.29,2.083l0.028,0.026l0.033,0.026l0.012,0.014v0.012L1.342,2.175L1.281,2.213
			L1.259,2.227L1.256,2.239l0.005,0.013l0.015,0.02l0.007,0.006h0.009l0.043-0.01l0.063-0.019l0.014,0.002l0.033,0.004l0.132,0.026
			l0.177,0.029l0.174,0.031l0.076,0.015l0.077,0.011L2.159,2.37l0.068-0.001l0.066-0.004l0.079-0.014l0.062-0.021L2.517,2.29
			l0.019-0.002l0.016,0.006l0.039,0.038l0.025,0.036l0.025,0.056l0.013,0.069v0.054L2.647,2.605L2.634,2.662L2.623,2.69L2.609,2.712
			L2.574,2.75l-0.06,0.074L2.468,2.896L2.43,2.957L2.403,3.009L2.382,3.062L2.35,3.116L2.329,3.144L2.29,3.174L2.245,3.197
			L2.183,3.218L2.098,3.242l-0.055,0.02L1.978,3.278l-0.042,0.02L1.889,3.303L1.813,3.304L1.754,3.291H1.727"/>
	</g>
</g>
<g id="Layer_1">
</g>
</svg>
