<?xml version="1.0" encoding="iso-8859-1"?>
<!-- Generator: Adobe Illustrator 16.0.4, SVG Export Plug-In . SVG Version: 6.00 Build 0)  -->
<!DOCTYPE svg PUBLIC "-//W3C//DTD SVG 1.1//EN" "http://www.w3.org/Graphics/SVG/1.1/DTD/svg11.dtd">
<svg version="1.1" xmlns="http://www.w3.org/2000/svg" xmlns:xlink="http://www.w3.org/1999/xlink" x="0px" y="0px" width="36.43px"
	 height="26.851px" viewBox="0 0 36.43 26.851" style="enable-background:new 0 0 36.43 26.851;" xml:space="preserve">
<g id="Layer_110">
	<g id="Layer_115">
		<path id="Lakki_Marwat" style="fill:#CCCCCC;stroke:#FFFFFF;stroke-width:1.07;" d="
			M29.935,3.554L29.935,3.554l-0.062,0.007l-0.324,0.017l-0.182,0.055l-0.201,0.015l-0.323-0.013l-0.314-0.001l-0.269,0.024
			l-0.275,0.034l-0.16,0.018l-0.381,0.026l-0.188-0.008l-0.062-0.001L27.131,3.71l-0.068-0.103l-0.077-0.149l-0.001-0.001
			l-0.115-0.104l-0.092-0.064l-0.133-0.017l-0.204,0.04l-0.276,0.043l-0.291,0.041l-0.211,0.025l-0.104-0.02l-0.028,0.005
			l-0.051-0.035L25.476,3.37l-0.048-0.02l-0.076-0.044l-0.035-0.013l-0.041-0.036l-0.037-0.024l-0.062-0.038L25.095,3.12
			l-0.059-0.068L25.013,3.02l-0.001-0.001L24.98,2.984l-0.029-0.046l-0.044-0.067l-0.005-0.009l-0.019-0.028L24.8,2.711
			l-0.035-0.022l-0.11-0.135l-0.121-0.097l-0.055-0.051l-0.025-0.022l-0.069-0.043l-0.051-0.039l-0.049-0.039L24.24,2.214
			l-0.033-0.04L24.169,2.13l-0.038-0.058l-0.005-0.013h-0.001l-0.051-0.073l-0.072-0.135l-0.026-0.042l-0.039-0.051l-0.045-0.111
			l-0.023-0.054l-0.047-0.091l-0.039-0.106h-0.001l-0.022-0.038L23.722,1.26l-0.027-0.093l-0.029-0.092h-0.002l-0.177,0.037
			l-0.045,0.03L23.363,1.19l-0.118,0.017h-0.012l-0.062,0.01l-0.126,0.034l-0.128,0.066l-0.099,0.052L22.72,1.392l-0.096,0.004
			L22.54,1.404l-0.047,0.004l-0.129,0.014l-0.115,0.069l-0.096,0.068l-0.166,0.032l-0.119,0.025l-0.115,0.012l-0.084,0.005
			l-0.164,0.012l-0.113,0.043l-0.143,0.066L21.17,1.805l-0.056,0.067l-0.072,0.061l-0.156,0.173l-0.074-0.207l-0.076-0.255
			l-0.028-0.112l-0.062-0.243l-0.319-0.575L20.16,0.8l-0.089,0.024h-0.178l-0.111,0.021l-0.131,0.013l-0.489,0.388l-0.091,0.031
			l-0.087,0.076l-0.147,0.128l-0.043,0.087l-0.057,0.083l-0.054,0.104l-0.177,0.157l-0.952-0.498l-0.218-0.209l-0.223-0.056
			l-0.111-0.102l-0.083-0.08l-0.125-0.031l-0.167,0.081l-0.351,0.191l0.028,0.082l0.086,0.121l0.07,0.048l0.083-0.046l0.099,0.062
			l0.039,0.107l0.105,0.101l0.104,0.069l0.085,0.037l-0.038,0.09l-0.145-0.08L16.661,1.74l-0.078-0.081l-0.081-0.104L16.185,1.65
			l-0.054,0.122L15.865,2l-0.333,0.28l-0.044,0.098L15.438,2.45l-0.076,0.114l-0.082,0.163l-0.023,0.082l-0.047,0.1l-0.055,0.133
			l-0.11,0.049l-0.099,0.047l-0.296-0.084l-0.107-0.033l-0.128,0.003l-0.102,0.02l-0.195,0.073L14.03,3.153l-0.155-0.001
			l-0.102-0.041l-0.115-0.044l-0.083-0.036l-0.166-0.11l-0.085-0.062l-0.21-0.24l-0.075-0.06l-0.012-0.12l-0.136,0.042l-0.356-0.257
			l-0.078-0.058l-0.106-0.005l-0.32-0.057l0.034,0.168l-0.463,0.521l-0.223-0.032l-0.261,0.005l-0.091-0.092l-0.456,0.044
			l-0.096-0.047l-0.092,0.002l-0.087,0.033l-0.062,0.083L10.219,2.91l-0.062,0.104l-0.099,0.048l-0.22-0.09l-0.03,0.105L9.787,3.198
			l-0.34,0.094L9.339,3.294l-0.134-0.09l0.02-0.087l0.087-0.035l0.1-0.02l0.085-0.081L9.587,2.92l0.045-0.112L9.581,2.721
			L9.454,2.717L9.342,2.739l-0.156,0.01L9.074,2.757L8.953,2.764L8.859,2.69L8.571,2.557L8.468,2.543l-0.091-0.04L8.268,2.414
			L8.171,2.33L8.047,2.29L7.943,2.276L7.826,2.247l0,0L7.734,2.094L7.598,2.191L7.441,2.152L7.311,2.12L7.295,2.293L7.207,2.499
			L7.118,2.734L6.81,3.145L6.56,3.277L6.354,3.409L6.223,3.835v0.294L5.912,4.217L5.824,4.055L5.59,3.982l-0.104,0.47L5.369,4.966
			L5.325,5.275L5.09,5.348L4.884,5.216L4.752,5.084L4.545,5.328L4.383,5.484L4.051,5.679L3.812,5.828L3.474,5.964L3.252,6.017
			L3.156,6.04L2.886,6.144l-0.5,0.158L2.156,6.386L1.903,6.482l-0.331,0.09l-0.426,0.14L0.86,6.813L0.623,6.904L0.645,7l0.021,0.097
			l0.037,0.085l0.081,0.191L0.881,7.6l0.014,0.124L0.88,7.776L0.847,7.839l0.026,0.098l0.058,0.146l0.097,0.221l0.104,0.11
			l0.12,0.126l0.124,0.129l0.173,0.18l0.069,0.069l0.101,0.066l0.043,0.021L1.822,9.03l0.016,0.006l0.053,0.022L1.994,9.1
			l0.083,0.127l0.052,0.082l0.026,0.034l0.072,0.084l0.057,0.049l0.022,0.041l0.011,0.044l0.001,0.002l0.01,0.045L2.34,9.659
			l0.074,0.104l0.139,0.252l0.075,0.138l0.019,0.032l0.05,0.092l0.045,0.082l0.047,0.048l0.041,0.042l0.036,0.023l0.074,0.037
			l0.034,0.015l0.071,0.038l0.076,0.033l0.045,0.019l0.067,0.026l0.081,0.086l0.119,0.165l0.217,0.298l0.026,0.035l0.04,0.031
			l0.029,0.031l0.11,0.122l0.062,0.103l0.236,0.181l0.297,0.227l0.304,0.231l0.086,0.056l0.368,0.237l0.12,0.078l0.001,0.001
			l0.477,0.307l0.104,0.067l0.369,0.238l0.195,0.019l0.04,0.012l0.111,0.034l0.053,0.017l0.038,0.029l0.043,0.033l0.042,0.033
			l0.022,0.036l-0.012,0.102L6.804,13.52l-0.024,0.031l-0.021,0.057L6.74,13.699l-0.006,0.048l0.018,0.074l0.02,0.036l0.024,0.035
			l0.141,0.188l0.298,0.398l0.421,0.565l0.047,0.058l0.007,0.004l0.036,0.026l0.115,0.082l0.078,0.056L8,15.314l0.036,0.031
			l0.043,0.025L8.126,15.4l0.062,0.051l0.056,0.07l0.045,0.067l0.052,0.084l0.031,0.042l0.173,0.215l0.157,0.27l0.032,0.021h0.048
			l0.026,0.183l0.035,0.138l0.036,0.112l0.058,0.161l0.02,0.117l0.062,0.223l0.033,0.097l0.028,0.085l0.041,0.105l0.408,0.365l0,0
			h0.002l0.031,0.045l-0.019,0.064L9.54,17.92l-0.001,0.014l-0.146,0.244L8.87,19.051l-0.021,0.047l0,0v0.004l0.137,0.127
			l0.062,0.059l0.208,0.111l0.151,0.082L9.6,19.583l0.049,0.101l0.067,0.053l0.075,0.018l0.052,0.053l0.086,0.078l0.096,0.077
			l0.017,0.025l0.008,0.007l0.005,0.011l0.006,0.013l0,0l0.013,0.025l-0.032,0.09l0.014,0.03l0.097,0.043l0.006,0.002l0.031,0.004
			l0.026,0.023l0.015,0.007l0.19,0.02l0.092,0.025l0.128,0.052l0.312,0.362l0.201,0.055l0.072,0.049l0.049,0.073l0.047,0.033
			l0.596,0.128l0.081-0.013l0.026-0.017l0.256-0.26l0.014,0.01l0.011-0.008l0.595,0.493l0.002,0.001l0.446,0.357l-0.002,0.039v0.006
			l-0.001,0.02l-0.027,0.034l-0.02,0.009l-0.018,0.021l-0.031,0.056l0.014,0.028l-0.007,0.096l-0.021,0.014l-0.001,0.008
			l-0.128,0.074l-0.128,0.08l-0.007,0.004l-0.014,0.021l0.042,0.077l0.021,0.041l0.089,0.07l0.389,0.278l0.028,0.087l0.002,0.006
			l-0.003,0.006l-0.052,0.084h-0.001l-0.001,0.002l-0.083,0.088l-0.174,0.09l-0.163,0.117l-0.086,0.037l-0.075,0.008l-0.041-0.035
			l-0.047-0.033l-0.028,0.012l-0.054,0.055l-0.094,0.119l-0.162,0.164l-0.085,0.109l-0.184,0.045l-0.134,0.062l-0.255,0.189
			l0.055,0.107l-0.047,0.755l-0.006,0.01v0.021l-0.013,0.051l-0.061,0.013h-0.053L11.6,24.768l-0.069,0.066l-0.04,0.062l0.021,0.069
			l-0.028,0.056l-0.034,0.049l0.013,0.061l0.062,0.074l-0.001,0.003l0,0l0.023,0.03l-0.014,0.053l-0.008,0.105l-0.013,0.06
			l-0.012,0.067l-0.006,0.074l0.029,0.06l0.019,0.016l0,0l0.051,0.031l0.334,0.031h0.002l0.018,0.02l0.009,0.011h0.001l0.023,0.068
			L12,25.885l0.061,0.033h0.004l0,0l0.011,0.01l0.124,0.006l0.131,0.016l0.164,0.055h0.001l0.688,0.23l0.076,0.025l0.017-0.012
			l0.01,0.001l0.062-0.042l0.078-0.064l0.089-0.066l0.148-0.107l0.031-0.043l0.002-0.002l0.033-0.048l0.044-0.03l0.061-0.031
			l0.082-0.037l0.048-0.014l0.058-0.023l0.747-0.154l0.103-0.038l0.053-0.024l0.062-0.03l0.054-0.035l0.06-0.028l0.051-0.023
			l0.059-0.026l0,0l0.092-0.041l0.046-0.065l0.086-0.077l0.08-0.046l0.006-0.004l0.041-0.021l0.059-0.064l0.131-0.121l0.115-0.096
			l0.023-0.123l0.146-0.094l0.12-0.061l0.187-0.029l0.175,0.061l0.081,0.017l0.027,0.011l0.067,0.008l0.017,0.002h0.001l0.065,0.021
			l-0.001,0.001l0.056,0.008l0.063-0.003l0.072,0.01l0.176,0.04l0.163,0.03l0.042,0.014l0.095,0.032l0.046,0.02l0.186,0.008
			l0.049-0.006l0.061-0.016l0.051-0.016l0.027-0.002l0.177-0.062l0.096-0.065l0.165-0.114l0.049-0.024l0.021-0.008l0.052-0.023l0,0
			l0.122-0.024l0.016-0.021l0.009-0.002l0.041-0.027l0.015-0.035l-0.008-0.033l0.046-0.098l0.107-0.042l0.007-0.019l0.038-0.019
			l0.017-0.039l0.002-0.04l0.046-0.034l0.037-0.009l0.035-0.014l0.062-0.053l0.01-0.008l0.038-0.021l0.088-0.125l0.023-0.034l0,0
			l0.045-0.029l0.05-0.021l0.079-0.021l0.249,0.008l0.063-0.037l0.069-0.045l0.095-0.047l0.085-0.018l0.022-0.002l0.108-0.016
			l0.098-0.023h0.001l0.056-0.014l0.009-0.002l0.04-0.004l0.089-0.047l0.039-0.076l0.032-0.033l0.092-0.023l0.008-0.001l0.023-0.004
			l0.023-0.003l0.097-0.055l0.026-0.026l0.007-0.004l0.096-0.041l0.062-0.009l0.047,0.002l0.023-0.014l0,0l0.091-0.021L21,23.155
			l0.036-0.009l0.049-0.03l0.057-0.048l0.01-0.019l0,0l0.048-0.03l0.119-0.004l0.139-0.006l0.101-0.006l0.159-0.035l0.172-0.054
			l0.117,0.007l0.094,0.004l0.03-0.018l0.043-0.004l0.029-0.033l0.016-0.016l0.05-0.03l0.125-0.021l0.102-0.046l0.138,0.019
			l0.057-0.016h0.015l0.037-0.006l0.081-0.027l0.058-0.062l0.015-0.017l0.076-0.047l0.089-0.021l0.092-0.036l0.035-0.016
			l0.002-0.001l0.031-0.024l0.077-0.041l0.104-0.017l0.148-0.003l0.061,0.013l0.004,0.001h0.001l0.076-0.021l0.101-0.03l0.097,0.009
			l0.071-0.045l0.069-0.062l0.043-0.035l0.04-0.03l0.074-0.076l0.041-0.042l0.115-0.089l0.069-0.056h0.001l0.065-0.037l0.018-0.008
			l0.037-0.004l0.019,0.002l0.078,0.019l0.108,0.006l0.061-0.044l0.021-0.041l0.021-0.068l0.014-0.021l0,0l0.03-0.033l0.021-0.023
			l0.005-0.004l0.047-0.02l0.046-0.008l0.041-0.018l0.528-0.22l0.035,0.034l0.027,0.027l0.052,0.035l0.037,0.014l0.074,0.029
			l0.038,0.012l0.049,0.013l0.052-0.002l0.153-0.111l0.049-0.016l0.145-0.019l0.105-0.101l0.107-0.069l0.066-0.047l0.108-0.035
			l0.075-0.007l0.056,0.002l0.074,0.001l0.037-0.008l0.046-0.008l0.112-0.031l0.056,0.018l0.027,0.016l0.058-0.039l0.01-0.003
			l0.13-0.134l0.021-0.002h0.092l0.035-0.006l0.037-0.002l0.073-0.041l0.02-0.012l0.069-0.025l0.025-0.008l0.09-0.002l0.085,0.015
			l0.003-0.001l0.026-0.006l0.022-0.006l0.021-0.023l0,0l0.062-0.042l0.086-0.116l0.062-0.057l0.017-0.006h0.003l0.078-0.021l0,0
			l0.025-0.005l0.117-0.012l0.037-0.016l0.004-0.001l0.04-0.053l0.015-0.032l0.062-0.025l0.009-0.002l0.08,0.021l0.066-0.052
			l0.069-0.056l0.055-0.012l0.066-0.02l0.041-0.018l0.025-0.035l0.072-0.09l0.034-0.027l0.021-0.053l0.065-0.051l0.017-0.007
			l0.096-0.048l0.031-0.039l0.021-0.032l0.008-0.026l0.127-0.072l0.08-0.025l0.036-0.023l0.038-0.066l0.011-0.044l0.043-0.097
			l0.036-0.084l0.025-0.025l0.009-0.008l0.081-0.053l0.062-0.043l0.044-0.02l0.052-0.023l0.046-0.013l0.12-0.048l0.035-0.012
			l0.034-0.008l0.051-0.041l0.044-0.035l0.039-0.024l0.056-0.021l0.064-0.025l0.027-0.023l0.007-0.08l0.006-0.01l0.081-0.062
			l0.031-0.008l0.011-0.002l0.028-0.008l0.049-0.021l0.041-0.046l0.005-0.04l0.022-0.052l0.05-0.066l0.131-0.213l0.029-0.045
			l0.016-0.053l0.016-0.037l0.022-0.036l0.039-0.003l0.043-0.03l0.041-0.021l0.039-0.021l0.034-0.034l0.023-0.036l0.028-0.024
			l0.032-0.023l0.026-0.034l0.025-0.025l0.12-0.092l0.254-0.008l0.025,0.021l0.007,0.015l0.012-0.001l0.098,0.077l-0.002,0.021
			l0.486,0.271h0.001l0.339,0.188l0.146-0.264l0.237-0.086l0.064-0.07l0.123-0.137l0.186-0.248l0.351-0.455l0.161-0.269l0.279-0.353
			l0.326-0.414l0.526-0.465l0.055,0.065l0.09-0.101l0.108-0.188l0.421-0.735l0.042-0.117l0.038-0.08l0.002-0.131l-2.918-1.959
			l-0.103,0.004l-0.061-0.001l-0.05-0.017l-0.103-0.056l-0.103-0.063l-0.083-0.072l-0.045-0.037l-0.068-0.064l-0.03-0.052
			l-0.02-0.034L32.3,12.152l0.032-0.104l0.061-0.081l0.094-0.013l0.046-0.022l0.034-0.05l-0.022-0.175l-0.011-0.113l-0.009-0.048
			l-0.014-0.07l-0.051-0.104l-0.058-0.062l-0.051-0.045l-0.07-0.057l-0.028-0.057l-0.035-0.045l-0.032-0.072l-0.029-0.062
			l-0.051-0.089l-0.032-0.131l-0.021-0.069l-0.012-0.12l-0.015-0.084l-0.02-0.105l-0.015-0.055l-0.004-0.054l0.066-0.075
			l0.044-0.087l-0.083-0.018l-0.076,0.013l-0.08,0.036l-0.092-0.018l-0.055-0.021l-0.024-0.103l0.003-0.063l-0.002-0.077
			l0.013-0.059l0.315-0.574l0.062-0.083l-0.115,0.031l-0.093,0.03l-0.056,0.009L31.765,9.2l-0.083-0.043l-0.04-0.042l-0.084-0.073
			l-0.083-0.046l-0.072-0.049L31.36,8.869l0.003-0.059l-0.049-0.134l-0.049-0.062L31.22,8.546l-0.021-0.069l-0.028-0.06
			l-0.058-0.098l0.021-0.111l0.076-0.201l0.026-0.074l0.028-0.065l0.011-0.079l0.067,0.005l0.017-0.063l0.054-0.054l0.059-0.015
			l0.057-0.488L31.5,7.116l-0.035-0.089l-0.011-0.058l-0.006-0.051l-0.033-0.062l-0.069-0.095l-0.034-0.042l-0.075-0.065
			l-0.042-0.03l-0.057-0.037l-0.081-0.061l-0.03-0.07l-0.02-0.046l-0.058-0.067l-0.282-0.309l-0.064-0.098l0.054-0.072l0.028-0.03
			l0.028-0.072l0.014-0.03l0.002-0.038l-0.005-0.067L30.72,5.608l-0.017-0.063l-0.037-0.059l-0.021-0.032l-0.021-0.04L30.574,5.21
			l-0.014-0.043L30.555,5.08l0.021-0.042l0.002-0.05l-0.04-0.085L30.491,4.86l-0.058-0.057l-0.068-0.086L30.344,4.68l-0.029-0.072
			l-0.008-0.034l-0.003-0.082l-0.01-0.068L30.271,4.37l-0.014-0.019l-0.071-0.073l-0.01-0.023l-0.014-0.014l-0.02-0.007
			l-0.031-0.017l-0.04-0.028l-0.01-0.031l-0.011-0.38l0.002-0.059l-0.024-0.046l-0.021-0.039l-0.026-0.035L29.935,3.554"/>
	</g>
</g>
<g id="Layer_1">
</g>
</svg>
