<?xml version="1.0" encoding="utf-8"?>
<!-- Generator: Adobe Illustrator 16.0.4, SVG Export Plug-In . SVG Version: 6.00 Build 0)  -->
<!DOCTYPE svg PUBLIC "-//W3C//DTD SVG 1.1//EN" "http://www.w3.org/Graphics/SVG/1.1/DTD/svg11.dtd">
<svg version="1.1" id="Layer_1" xmlns="http://www.w3.org/2000/svg" xmlns:xlink="http://www.w3.org/1999/xlink" x="0px" y="0px"
	 width="301.384px" height="247.975px" viewBox="-125.771 -103.491 301.384 247.975"
	 style="enable-background:new -125.771 -103.491 301.384 247.975;" xml:space="preserve">
<g id="Layer_119">
	<path id="Sukkur" style="fill:#CCCCCC;stroke:#FFFFFF;stroke-width:1.15;" d="M-120.079-24.316L-120.079-24.316l0.667-0.059
		l1.174,0.012l3.361,0.666l0.683-0.018l0.521,0.059l0.771,0.216l1.333,0.59l1.245,0.497l0.854,0.368l0.555,0.082h1.028l0.842,0.07
		l0.935-0.029l1.11-0.128l1.338-0.281l0.684,1.199l0.479,0.97l0.596,0.847l0.427,0.736l0.502,1.058l0.502,0.83l0.713,0.941
		l0.771,0.935l0.508,0.45l0.701,0.596l0.748,0.368l1.052,0.362l1.052,0.158l1.146,0.316l1.093,0.123l0.876,0.228l1.291,0.386
		l1.018,0.24l0.853,0.099l0.497,0.234l0.754,0.105l0.648-0.094l0.584-0.116l0.368-0.24l0.375-0.403l0.385-0.497l0.339-0.502
		l0.766-1.005l0.526-0.521l0.497-0.555l0.689-0.777l0.725-0.573l0.339-0.257l0.573-0.123l0.514-0.111l0.988,0.012l1.046,0.146
		l1.374,0.187l1.251,0.333l0.94,0.251l0.842,0.193l0.736,0.228l0.403,0.105l0.86,0.082l0.491,0.14l0.21-0.029l2.911-0.216
		l1.076-0.128l2.244-0.491l1.443-0.21l1.023-0.129l1.087-0.123l0.222,0.046l0.123,0.199l0.123,0.93l-0.216,2.122l-0.012,1.701
		l0.07,2.302l0.135,1.549l0.111,1.403l0.298,0.596l0.403,0.491l1.192,0.824l0.304,0.321l0.164,0.246l0.006,0.304l-0.474,1.14
		l-1.18,1.875l-0.397,0.451l-0.912,0.602l-0.175,0.526l-0.468,0.392l-0.87,0.392l-1.152,0.456l-0.52,0.246l-0.239,0.228
		l-0.205,0.269l-0.099,0.304l-0.017,0.479l-0.1,0.625l-0.374,1.496l-0.538,1.274l-1.31,3.08l-0.584,1.309l-0.748,1.864l-0.684,2.057
		l-0.678,1.946l-0.374,1.168l-0.339,1.695l-0.532,1.946l-0.444,1.665l-0.619,1.771l-0.152,1.274l0.286,1.373l0.62,1.116l0.877,0.858
		l1.175,0.62l1.42,0.333l3.062,0.122l1.21,0.048l0.473,0.291l0.328,0.393l0.123,0.392l-0.053,0.894l-0.146,0.953l-0.123,0.999
		l0.094,0.777l0.286,0.672l0.625,1.123l0.678,0.232l1.344-0.122l2.314-0.625l1.636-0.28l1.514-0.123l2.151-0.374l1.835-0.28
		l1.367,0.163l0.497,0.374l0.193,0.216l0.105,0.456l-0.187,0.479l-0.765,0.795l-0.252,0.66l-0.479,0.871l-1.058,1.146l-1.31,1.31
		l-0.619,1.027l-0.386,0.433l-0.269,0.444l-0.228,0.368l-0.233,0.38l-0.199,0.404l-0.135,0.467v0.521l0.182,0.549l0.525,0.842
		l1.216,1.116l0.964,1.104l1.402,1.332l1.274,1.11l0.59,0.327l-2.367,3.618l-0.578,0.883l-4.062,5.476l-3.121,2.338l-2.209,0.567
		l-0.66,0.812l-0.946,4.523l-0.725,5.108l-0.491,3.746l0.421,1.379l1.309,1.596l5.043,3.406l8.106,6.002l10.396,6.341l5.716,2.069
		l3.933,2.017l4.172,1.233l5.062,1.618l4.4,0.649l3.752,0.04l3.77-0.351l2.864-0.76l2.665-1.139l3.542-0.152l3.536,0.059
		l4.184,0.433l4.851,1.244l5.043,2.63l1.742,1.21l1.543,0.38l2.87-0.129l2.863-0.151l4.623,0.45l7.92,1.297l11.629,3.519l7.68,1.888
		l3.285,1.817l6.275,3.774l3.473,2.42l5.26,2.244l6.357,1.864l6.365,1.304l3.506,1.238l3.893,3.391l3.482,2.419l4.365,1.257
		l4.98,0.87l0.373,0.029l0.381-0.876l0.291-0.83l0.434-1.233l2.279-5.435l1.865-4.431l1.162-2.951l0.91-2.326l3.215-6.714
		l2.129-3.11l3.453-2.863l0.297-0.351l0.463-0.596l15.504-14.512l4.869-3.909l3.248-2.618l6.465-4.237l11.35-8.485l-11.209-7.901
		l-0.812-0.62l-1.678-0.7l-3.623-1.356l-3.764-1.643l-3.619-1.631l-2.354-0.945l-2.08-0.626l-2.123-0.334l-2.312-0.427l-2.012-0.561
		l-2.209-1.017l-1.881-1.11l-1.947-1.543l-2.992-2.372l-2.098-1.701l-1.836-1.332l-2.793-1.603l-2.869-1.636l-2.145-1.549
		l-1.871-1.017l-1.268-0.625l-0.654-0.293V41.63l0.076-0.234l0.279-0.216l0.596-0.754l0.947-1.163l1.963-2.642l1.141-1.911
		l1.268-2.314l0.83-2.554l0.316-1.729l-0.012-0.597l-0.379-0.666L116.01,26.4l-1.422-0.129l-1.373,0.087l-0.625,0.304l-1.027,1.216
		l-1.293,0.305l-4.465,0.093l-3.162-0.029l-4.137,0.035l-4.336,0.158l-3.367,0.368l-1.227-0.105l-0.906-0.515l-1.17-0.795
		l-1.156-0.97l-0.807-1.028l-0.795-0.684l-1.1-0.438l-1.828-0.211l-3.32-0.315l-4.855-0.122l-4.4-0.409l-2.467-0.491l-3.951-0.766
		l-2.396-1.017l-3.465-2.344l-3.471-3.477l-3.027-3.18l-2.174-3.12l-2.012-2.619l-2.033-2.63l-0.514-1.087L43.406,1.86l-0.361-0.368
		l-0.199-0.246L42.261,0.58l-0.375-0.59l-2.676-3.577l-2.672-3.126l-2.488-2.373l-1.596-1.706l-2.449-1.906l-1.777-0.976
		l-1.678-0.725l-3.534-0.823l-1.643-0.117l-2.32,0.199l-0.783,0.128l-0.158-0.269l-0.433-0.526l-0.14-0.315l-0.228-0.415
		l-0.023-0.876l0.128-0.982l0.28-1.239l0.281-1.268l-0.023-0.731l-0.128-2.49l0.14-0.339l0.403-0.175l1.146,0.128l1.128,0.322
		l1.712,0.549l1.917,0.257l1.367-0.047l0.872-0.316l0.309-0.502l0.369-1.239l0.689-1.362l0.918-0.783l0.748-0.456l0.742-0.064
		l0.566,0.409l0.881,0.62l1.053,0.789l0.971,0.713l0.807,0.315l0.992,0.076l0.527,0.234l0.379,0.315l0.246,0.479l0.258,0.345
		l0.455,0.368l0.602,0.111l0.771,0.047l0.516-0.228l1.227-0.993l1.602-1.666l0.848-0.935l0.707-0.356l0.625-0.24l0.713-0.24
		l0.584-0.374l0.514-0.385l0.445-0.404l0.281-0.579l-0.123-0.45l-0.457-0.596l-1.25-1.175l-1.326-0.906l-1.176-1.029l-0.643-0.742
		l-0.35-0.877l-0.012-0.672l0.123-0.696l0.514-0.631l0.432-0.59l0.516-0.62l0.502-0.689l0.27-0.602l0.059-0.444v-0.304l-0.123-0.298
		l-0.715-0.339l-1.168-0.502l-1.689-0.958l-1.127-1.093l-0.795-1.11l-0.551-1.642l-0.479-1.104l-0.666-1.029l-1.279-1.368
		l-0.982-0.818l-0.842-0.848l-1.145-1.198l-0.643-1.116l-0.352-1.73l-0.264-1.262l-0.08-0.9l-0.695-1.297l-1.023-1.455l-0.426-0.789
		l-0.088-0.613l0.006-0.62l-0.129-0.777l-0.48-0.953l-0.414-0.749l-0.537-0.753L26.82-66.78l-0.625-1.11l-0.152-1.087v-0.462
		l-0.17-0.455l-0.379-0.339l-1.122-0.613l-0.304-0.526l-0.128-0.66l0.006-0.596l-0.21-0.982l-0.199-0.854l-0.532-1.25l-0.157-0.988
		v-0.351l0.175-0.666l0.321-0.357l0.491-0.467l0.368-0.742v-0.473l-0.035-0.509l-0.169-0.754l-0.52-1.806l-0.842-1.543l-0.848-0.625
		l-0.654-0.24l-1.116-0.21l-0.491-0.128l-0.316-0.24v-0.199l0.397-0.433l0.854-0.409l2.168-0.795l1.157-0.812l0.362-0.474
		l0.725-0.514l0.508-0.812l-0.508-0.637l-2.449,0.479l-1.297,0.21l-1.981,0.205l-1.303-0.059l-1.368-0.316l-2.022-0.824
		l-1.286-0.648l-0.772-0.637l-1.081-0.8l-0.93-0.368l-1.092-0.625l-1.093-0.894L7.476-95.58H7.108l-0.625,0.152l-0.871,0.631
		l-1.637,1.595l-1.42,1.374l-1.368,1.368l-1.198,0.625l-0.368,0.046L-0.7-89.917l-0.444-0.678L-2.02-91.63l-0.871-0.917
		l-0.917-0.895l-1.128-1.35l-0.643-1.163l-0.199-0.835l-0.041-0.416l0.111-0.368l0.128-0.625l0.234-0.62l-0.689,0.018l-1.408,0.193
		l-1.239,0.059l-0.982,0.199l-1.017,0.403l-0.438,0.45l-0.456,0.777l-0.31,0.567l-0.38,0.988l-0.596,0.812l-0.613,1.134
		l-0.526,0.894l-0.696,0.783l-0.766,0.895l-0.882,1.099l-1.163,1.636l-0.689,0.748l-0.661,0.374l-0.374,0.111l-0.859-0.053
		l-1.777-0.146l-1.502-0.123l-2.443,0.082l-0.906,0.123l-1.081,0.743l-1.005,0.643l-1.297,0.713l-1.005,0.637l-0.585,0.397
		l-0.607,0.52l-0.404,0.625l-0.368,0.357l-0.765,0.643l-0.871,0.462l-0.917,0.602l-0.62,0.351l-1.134,0.525l-0.789,0.649
		l-0.97,0.818l-0.912,0.567l-0.882,0.205l-1.087,0.263l-1.046,0.187l-0.824,0.041l-0.94-0.275l-0.538-0.041l-0.403-0.006
		l-0.344,0.21l-0.661,0.433l-0.228,0.835l-0.006,0.438l-0.064,0.725l0.193,0.771l0.298,1.064l0.128,0.625l-0.123,0.987l-0.514,1.198
		l-0.725,0.912l-0.848,0.894l-1.11,1.082l-0.842,0.532l-2.197-1.169l-1.777,1.596l-1.198,1.145l-0.76,0.889l-0.403,0.835
		l-0.047,0.45l-0.006,0.473l0.368,0.754l0.462,0.725l0.444,0.42l0.496,0.427l0.158,0.368l0.62,0.964l0.1,0.538l-0.012,0.357
		l-0.123,0.602l-0.725,1.157l-1.005,1.368l-0.392,0.531l-1.122,1.397l-1.374,1.566l-1.122,1.005l-1.175,0.912l-1.829,1.262
		l-1.122,0.912l-1.046,1.116l-0.514,0.742l-0.631,0.958l-0.584,1.093l-0.374,0.865l-0.152,0.298l-0.468,0.111l-1.11,0.129
		l-1.309-0.018l-1.408-0.134l-1.631,0.099l-1.046,0.257l-0.947,0.321l-0.871,0.339l-1.298,0.888l-1.292,0.824l-0.643,0.345
		l-0.45,0.058l-0.632-0.274l-0.426-0.404l-0.643-0.543l-0.736-0.544l-0.766-0.607l-1.093-0.549l-0.573-0.415l-0.374-0.433
		l-0.59-0.485l-0.562-0.316l-0.771-0.292l-0.731-0.432l-1.18-0.485l-1.117-0.409l-0.707-0.158l-1.011-0.07l-0.474,0.053
		l-0.538,0.175l-0.24,0.298l-0.123,0.298l0.123,0.374l0.497,0.514l0.327,0.374l0.164,0.479v0.21l-0.24,0.233l-0.356,0.105
		l-0.31-0.129l-1.005-0.573l-0.596-0.164h-0.269l-0.134,0.134l-0.064,0.322l-0.094,0.689l-1.379,0.807l-1.373,0.14l-2.87,0.386
		l-1.718,0.368l-2.156,0.801l-3.606,0.771l0.625,0.958l0.882,1.286l0.362,0.269l0.351,0.111l0.362-0.023l0.374-0.123l0.397-0.24
		l0.602-0.713l0.397-0.397l0.328-0.188l0.327-0.029l0.368,0.071l0.409,0.169l0.45,0.415l0.263,0.427l0.012,0.567l-0.059,0.532
		l-0.514,0.742l-1.245,1.216l-1.42,1.368l-1.327,1.163l-1.116,0.683l-0.959,0.397l-0.882,0.164l-0.93-0.064l-0.987-0.093
		l-1.123,0.128l-1.075,0.123l-1.051,0.135l-1.298,0.473l-0.725,0.374l-0.602,0.561l-1.146,1.181l-0.97,1.175L-120.079-24.316"/>
</g>
<g id="Layer_1_1_">
</g>
</svg>
