<?xml version="1.0" encoding="iso-8859-1"?>
<!-- Generator: Adobe Illustrator 16.0.4, SVG Export Plug-In . SVG Version: 6.00 Build 0)  -->
<!DOCTYPE svg PUBLIC "-//W3C//DTD SVG 1.1//EN" "http://www.w3.org/Graphics/SVG/1.1/DTD/svg11.dtd">
<svg version="1.1" xmlns="http://www.w3.org/2000/svg" xmlns:xlink="http://www.w3.org/1999/xlink" x="0px" y="0px"
	 width="43.616px" height="52.103px" viewBox="0 0 43.616 52.103" style="enable-background:new 0 0 43.616 52.103;"
	 xml:space="preserve">
<g id="Layer_119">
	<g id="Layer_124">
		<path id="Killa_Abdullah" style="fill:#CCCCCC;stroke:#FFFFFF;stroke-width:1.07;" d="
			M0.442,51.506L0.442,51.506l0.22,0.033l0.215-0.012l0.207-0.023l0.083-0.002l0.042,0.021l0.083,0.02l0.074-0.029L1.39,51.47
			l0.005-0.13l0.04-0.072l0.13-0.088l0.058-0.052l0.006-0.087l0.006-0.064l0.049-0.037l0.1-0.016l0.133-0.002l0.065-0.037
			l0.041-0.044l0.055-0.146l0.029-0.201l0.055-0.18l0.104-0.16l0.072-0.104l0.107-0.037l0.107-0.037l0.106-0.06l0.048-0.08
			l0.098-0.074l0.148-0.045l0.057-0.045l0.031-0.106l0.054-0.182l0.052-0.115l0.04-0.08l0.108-0.009l0.132-0.03l0.058-0.037
			l0.056-0.072l0.072-0.123l0.138-0.197l0.161-0.203l0.098-0.096L4.1,48.393l0.231-0.011l0.165-0.054l0.073-0.065l0.114-0.116
			l0.122-0.152l0.062-0.182l0.103-0.289l0.047-0.131l0.057-0.064l0.091-0.045l0.124-0.01l0.1,0.041l0.103,0.144l0.06,0.101
			l0.167,0.049l0.173-0.039l0.174-0.01l0.143,0.049l0.085,0.148l0.103,0.157l0.06,0.093l0.075,0.027l0.191-0.004l0.364-0.055
			l0.116-0.002l0.083,0.02l0.119,0.144l0.152,0.156l0.142,0.071l0.199-0.012l0.249-0.002l0.116-0.002l0.101,0.027l0.157,0.004
			l0.14-0.037l0.173-0.023L8.9,48.316l0.15,0.062l0.101,0.049l0.083-0.001l0.091-0.03l0.064-0.064l0.091-0.01l0.1,0.021l0.134,0.077
			l0.075,0.042l0.149,0.025h0.133l0.173-0.018l0.199-0.039l0.165-0.061l0.123-0.066l0.205-0.132l0.14-0.045l0.066-0.001l0.125,0.049
			l0.267,0.104l0.183,0.05l0.05-0.03l0.024-0.036l-0.001-0.071l-0.04-0.147l-0.042-0.058l-0.045-0.164l-0.026-0.107l0.023-0.094
			l0.04-0.094l0.089-0.14l0.023-0.058l-0.035-0.086l-0.051-0.057L11.725,47.1l0.015-0.086l0.032-0.072l0.015-0.08l0.015-0.137
			l0.065-0.072l0.057-0.036l0.073-0.052l0.041-0.037v-0.043l-0.034-0.043l-0.127-0.092l-0.092-0.078l-0.035-0.07l0.04-0.072
			l0.065-0.087l0.098-0.088l0.123-0.081l0.066-0.03l0.058-0.008l0.142,0.058l0.25,0.09l0.142,0.026l0.198-0.039l0.115-0.053h0.05
			l0.034,0.028v0.05l0.035,0.094l0.084,0.093l0.085,0.07l0.15,0.048l0.124-0.001l0.149,0.006l0.059,0.021l0.076,0.077l0.159,0.07
			l0.125,0.026l0.232-0.011l0.432,0.023l0.199,0.025l0.075,0.035l0.09,0.096l0.254,0.32l0.194,0.185l0.101,0.078l0.15,0.049
			l0.215,0.005l0.199,0.012l0.125,0.062l0.035,0.102l0.043,0.078l0.142,0.041l0.225,0.062l0.159,0.056l0.226,0.148l0.093,0.049
			l0.1,0.007l0.058-0.009l0.122-0.124l0.182-0.065l0.199-0.011l0.132-0.045l0.138-0.062l0.074-0.03l0.058-0.015l0.058-0.002
			l0.033,0.028l0.042,0.015l0.066-0.002l0.1-0.029l0.073-0.043l0.083-0.03l0.149-0.002l0.199-0.009l0.1-0.043l0.081-0.032
			l0.263-0.169l0.252-0.27L20,46.792l0.014-0.138l0.057-0.064l0.106-0.115l0.17-0.22l0.079-0.245l-0.002-0.144l0.016-0.06
			l0.041-0.043l0.058-0.037l0.123-0.08l0.147-0.139l0.214-0.269l0.17-0.226l0.123-0.123l0.023-0.095l-0.059-0.034l-0.042-0.058
			l0.007-0.08l0.04-0.079l0.082-0.072l0.032-0.086l-0.001-0.08l-0.001-0.078l0.049-0.066l0.09-0.051l0.124-0.045L21.759,44
			l0.073-0.107l0.056-0.166l-0.009-0.064l-0.026-0.059l-0.06-0.084l-0.026-0.108l0.023-0.079l0.122-0.167l0.164-0.175l0.124-0.037
			l0.132-0.03l0.132-0.059l0.166-0.117l0.293-0.363l0.088-0.165l0.031-0.146l0.022-0.103l0.188-0.238l0.22-0.283l0.098-0.131
			l0.049-0.079v-0.095l-0.012-0.157l0.03-0.166l0.056-0.158l0.106-0.167l0.09-0.202l0.097-0.194l0.105-0.16l0.182-0.139l0.114-0.109
			l0.024-0.057v-0.029l-0.018-0.043l-0.033-0.059l-0.06-0.057l-0.069-0.129l-0.01-0.122l0.008-0.072l0.04-0.087l0.091-0.087
			l0.213-0.146l0.123-0.132l0.031-0.173l0.004-0.322l0.041-0.094l0.072-0.159l0.032-0.086l0.048-0.138l0.057-0.13l0.163-0.21
			l0.255-0.197l0.164-0.167l0.082-0.087l0.049-0.107v-0.065l-0.026-0.122l-0.026-0.102l-0.001-0.078l0.033-0.065l0.122-0.181
			l0.154-0.231l0.022-0.087l0.017-0.094l0.006-0.079l0.033-0.052l0.059-0.037h0.074l0.059,0.007l0.25,0.216l0.135,0.07l0.176,0.07
			l0.174,0.006l0.149-0.023l0.183-0.088l0.24-0.111l0.42-0.17l0.498-0.148l0.143-0.03l-0.032-0.283l-0.218-0.552l-0.188-0.449
			l-0.234-0.249l-0.215-0.287l-0.272-0.386l-0.237-0.297l-0.263-0.287l-0.375-0.534l-0.366-0.532l-0.398-0.595L25.562,30.6
			l-0.318-0.465l-0.228-0.593l-0.192-0.425l-0.363-0.673l-0.307-0.554l-0.322-0.592l-0.295-0.664l-0.25-0.554l-0.166-0.365
			l-0.296-0.554l-0.193-0.396l-0.17-0.484l-0.102-0.316l-0.022-0.158l0.036-0.306l0.082-0.315l0.264-0.395l0.494-0.681l0.392-0.542
			l0.459-0.552l0.541-0.73l0.53-0.789l0.121-0.355l0.14-0.483l0.059-0.405l0.037-0.701l-0.012-0.237l-0.08-0.208l-0.147-0.237
			l-0.16-0.099l-0.104-0.05l-0.103-0.069l-0.058-0.099l-0.022-0.129l0.047-0.188l0.104-0.128l0.18-0.28l0.125-0.066l0.323-0.144
			l0.372-0.145l0.242-0.004l0.147,0.054l0.197,0.109l0.163,0.11l0.185,0.221l0.116,0.167l0.148,0.152l0.182,0.152l0.261,0.108
			l0.179,0.012l0.113-0.001l0.213,0.082l0.278,0.15l0.342,0.051l0.146-0.03l0.226-0.128l0.175-0.226l0.129-0.127l0.225-0.143
			l0.26-0.017l0.454-0.062l0.096-0.071l0.015-0.098l-0.051-0.223l-0.084-0.181l-0.003-0.126l0.111-0.183l0.257-0.171l0.258-0.171
			l0.307-0.102l0.453-0.131l0.684,0.03l0.375,0.066l0.572,0.203l0.312,0.178l0.378,0.303l0.23,0.179l0.166,0.264l0.133,0.208
			l0.146,0.068l0.113-0.016l0.041-0.023l0.266-0.148l0.449-0.34l0.578-0.426l0.387-0.186l1.017-0.556l0.5-0.299l0.434-0.354
			l0.45-0.341l0.21-0.1l0.34-0.074l0.47-0.103l0.228-0.114l0.563-0.412l0.241-0.114l0.273-0.254l0.046-0.155l-0.083-0.125
			l-0.322-0.54l-0.169-0.487l-0.003-0.224l0.062-0.35l0.233-0.688l0.251-0.673l0.143-0.365l0.144-0.239l0.242-0.184L42.101,8.1
			l0.341-0.157l0.096-0.141l0.078-0.267l-0.066-0.292l-0.198-0.222l-0.083-0.195l0.029-0.252l0.059-0.448l0.317-0.646l0.243-0.544
			l0,0l-0.672-0.322l-0.782-0.197l-1.298-0.049l-0.059-0.02l-0.457-0.156l-0.346-0.427l-0.167-0.206l-0.192-0.137l-2.024,0.086
			l-0.317,0.085l-0.675,0.305l-0.532,0.05L34.9,3.994l-0.369-0.035l-0.166-0.016l-0.271-0.126l-0.391-0.064l-0.342-0.177
			l-0.043-0.021L33.23,3.448l-0.133-0.163l-0.072-0.158l-0.086-0.189l0.082-0.174l0.041-0.086l0.641-0.333l0.312-0.247l0.148-0.442
			l-0.055-0.237l-0.097-0.213l-0.134-0.294l-0.408-0.226l-0.486-0.064L32.814,0.6l-0.602-0.028l-0.777-0.036l-0.687,0.011
			L30.439,0.6l-0.164,0.028l-0.246,0.035l-0.732,0.175l-1.325,0.392l-1.483,0.562l-0.424,0.175l-0.898,0.591L24.638,3.22
			l-0.353,0.541l-0.239,0.368l-0.093,0.102l-0.158,0.205l-0.377,0.25l-0.47,0.092l-0.223,0.044l-0.764,0.004l-1.113-0.118
			L20.394,4.98l-0.083,0.136l-0.085,0.343l-0.123,0.492l-0.16,0.91l-0.237,0.417l-0.277,0.771l-0.347,0.544l-0.1,0.156l0.081,0.588
			L18.938,9.59L18.9,9.666l-0.044,0.773l-0.523,0.253l-0.148,0.073l-0.003,0.003l-0.111,0.152l-0.184,0.111l-0.874,0.771
			l-0.856,0.885l-0.87,0.722l-0.73,0.606l-0.701,0.446l-0.009,0.005l-1.191,0.306l-0.637,0.078l-0.425,0.085l-0.035,0.007h-0.006
			l-0.964,0.088l-0.073,0.088l-1.503,0.25l-1.879,0.463l-0.219,0.096l-0.181,0.08L6.673,16.09l-0.137,0.19l-0.109,0.5l-0.108,0.289
			l-0.152,0.529l-0.238,0.827l-0.351,1.312l-0.073,0.274l-0.169,0.593L4.66,22.975l-0.346,1.336l-0.081,0.165l-0.152,0.546
			l-0.216,0.771l-0.191,0.513l-0.063,0.172l-0.719,2.56l-0.243,0.705l-0.082,0.316L2.5,30.318l-0.345,1.108l0.001,0.257l0.038,0.145
			l0.029,0.111l0.401,0.795l0.231,1.184l0.31,0.285l0.125,0.045l0.065,0.023l0.664,0.312l0.003,0.006l0.05,0.083l0.019,0.033
			l0.214,0.193l0.292,0.266l-0.132,0.967l0.049,0.195l0.046,0.183l0.443,0.547l0.188,0.271l0.01,0.229l-0.007,0.021l-0.128,0.375
			l-0.493,0.74L4.521,38.77l-0.136,0.377l-0.08,0.422l0.031,0.414l0.026,0.365l0.098,0.197l-0.021,0.203L4.407,41.06l-0.115,0.835
			l-0.097,0.221l-0.111,0.254l-0.29,1.097l-0.161,1.521l-0.257,0.61l-0.258,0.297l-0.117,0.136l-0.354,0.66l-0.247,0.6l0.021,0.441
			l0.011,0.244l-0.053,0.288l-0.048,0.116l-0.04,0.097l-0.219,0.249l-0.438,0.498l-0.268,0.374l-0.083,0.115L1.19,50.316
			l-0.024,0.161l-0.624,0.882L0.442,51.506"/>
	</g>
</g>
<g id="Layer_1">
</g>
</svg>
