<?xml version="1.0" encoding="utf-8"?>
<!-- Generator: Adobe Illustrator 16.0.4, SVG Export Plug-In . SVG Version: 6.00 Build 0)  -->
<!DOCTYPE svg PUBLIC "-//W3C//DTD SVG 1.1//EN" "http://www.w3.org/Graphics/SVG/1.1/DTD/svg11.dtd">
<svg version="1.1" id="Layer_1" xmlns="http://www.w3.org/2000/svg" xmlns:xlink="http://www.w3.org/1999/xlink" x="0px" y="0px"
	 width="301.114px" height="150.852px" viewBox="-112.923 -56.379 301.114 150.852"
	 style="enable-background:new -112.923 -56.379 301.114 150.852;" xml:space="preserve">
<g id="Layer_37">
	<path id="Ghanche" style="fill:#CCCCCC;stroke:#FFFFFF;stroke-width:1.15;" d="M-12.891,90.761L-12.891,90.761l0.894-0.13
		l0.845-0.138l0.901-0.088l1.295,0.088h1.462l1.555,0.362l1.295,0.271l1.707,0.313h1.52l1.238-0.042l1.218-0.134l1.073-0.229
		l1.631-0.446l1.298-0.363l1.387-0.359l1.127-0.407l1.188-0.229l1.195-0.226l1.299-0.405l1.184-0.268l1.123-0.408l1.016-0.268
		l1.409-0.496l1.353-0.855l1.466-0.729l1.242-0.947l1.298-0.722L22.382,83l1.131-0.897l0.897-0.897l0.947-0.862l0.859-0.856
		l0.68-0.676l0.848-0.634l0.894-0.635l1.237-0.813l1.299-0.771l1.409-0.764l1.185-0.946l0.958-0.817l1.223-0.543l0.955-0.542
		l1.02-0.358l0.897-0.501l0.894-0.672l1.199-0.685l1.012-0.58l0.619-0.55l0.894-0.446l1.126-0.681l0.856-0.408l0.779-0.492
		l0.858-0.497l1.059-0.584l1.016-0.405l1.069-0.451l1.184-0.408l1.356-0.232l1.291-0.264l1.576-0.547l1.185-0.496l1.467-0.676
		l1.409-0.723l1.059-0.404l1.068-0.68l1.017-0.813l0.45-1.401l0.79-0.447l1.356-0.546l1.631-0.76l1.913-0.45l1.188-0.543
		l0.852-0.546l1.062-0.359l0.894-0.405l0.859-0.45l1.295-0.229l1.523-0.312l1.802-0.681l1.808-1.26l3.035-0.634l2.651-0.447
		l3.154-0.768l2.831-0.538l3.532-0.362l2.265-0.506l2.249-1.642l2.039-1.475l1.181-1.362l0.894-1.055l2.119-1.081l1.124-0.572
		l1.493-1.433l1.813-1.539l1.229-0.81l2.144-0.993l2.363-1.107l2.097-1.378l2.459-0.982l1.15-0.694l1.287-0.772l1.638-0.988
		l2.013-1.211l1.856-1.138l1.516-0.933l1.639-1.222l1.433-1.073l1.711-1.271l1.013-0.757l1.188-0.882l1.077-1.171l0.97-0.952
		l1.397-1.354l2.196-1.354l2.001-0.52l1.543-0.881l2.166-0.766l1.505-1.346l1.768-0.731l1.131-0.938l1.157-0.762l1.875-1.227
		l1.937-0.957l2.594-1.264l2.195-0.813l1.329-1.302l2.051-0.957l1.467-1.174l1.058-0.725l0.622-1.273l0.413-0.563l-0.149-1.327
		l-0.068-0.452l-0.081-0.771l0.405-0.649l0.371-0.55l0.405-0.646l0.588-0.436l0.534-0.39l1.062-0.779l0.809-0.598l0.569-0.422
		l1.062-0.786l0.214-0.415l0.379-0.746l0.771-0.346l0.895-0.407l0.882-0.386l1.035-0.492l0.764-0.287l0.458-0.172l0.39-0.34
		l0.237-0.646l-0.084-0.402l0.121-0.646l0.092-0.556l0.195-0.292l0.359-0.6l0.5-0.677l0.119-0.646l-0.023-0.03l-0.535,0.034
		l-1.058-1.373l-1.478-1.359l-1.23-1.018l-1.569-0.997l-1.463-0.148l-1.058,0.72l0.244,2.635l-0.646,0.443l-1.845-0.771
		l-1.811-0.512l-2.165-0.224l-1.349,0.142l-0.771,0.496l-0.416-0.007l-0.332-0.467l-0.106-1.033l-0.493-0.656l-0.665-0.34
		l-3.41-0.535l-2.902-0.398l-1.451,0.825l-1.902-0.907l-2.673,0.284l-2.521,0.708l-1.63,0.438l-2.842,1.306l-1.245,0.795
		l-1.73-0.082l-1.312-0.43l-1.444-0.604l-0.699-0.3l-1.646,0.09l-2.097,0.146l-1.432-0.552l-1.355-0.967l-0.383-1.381l0.138-1.056
		l-0.438-0.359l-0.524-0.175l-0.767,0.038l-1.058,0.152h-1.001l-1.229-0.997l-0.573-1.447l-0.905-2.41l-1.093-1.086l-2.035-0.889
		l-1.837-0.7l-2.107,0.302l-2.113,0.414l-2.195,0.275l-3.311,1.046l-2.884,0.623l-2.918,0.783l-2.662,0.007l-1.677-0.607
		l-1.39-1.082l-2.365-1.029l-1.508-0.594l-1.215-0.845l-1.352-0.97l-1.058-0.735l-1.387-0.485l-2.566-0.735l-2.173-1.074
		l-2.188-1.933l-1.207-1.549l-1.306-0.766l-1.536-0.329l-0.962-0.212l-1.276-0.062l-1.817-0.124l-1.719-0.716l-1.677-1.015
		l-1.768-0.046l-0.829,0.755l-0.573,1.075l-1.607,0.746l-2.048,0.537l-1.39-0.146l-1.012-0.526l-1.692-0.903l-1.218-0.403
		l-1.249-0.25l-1.363-0.501l-1.837-1.041l-0.894-0.754l-0.493-0.532l-0.034,0.055l-0.504,0.407l-0.344,0.653l-0.409,0.542
		l-0.508,0.361l-0.572,0.452l-0.891,0.544l-0.573,0.497l-0.732,0.406l-0.791,0.317l-0.672,0.449l-0.901,0.316l-0.607,0.724
		l-0.737,0.361l-0.622,0.226l-0.481,0.082l-0.362,0.093l-0.447,0.271l-0.348,0.362l-0.168,0.317l-0.34,0.454l-0.39,0.767
		l-0.344,0.768l-0.245,0.676l-0.508,0.676l-0.454,0.634l-0.508,0.635l-0.562,0.632l-0.786,0.905l-0.681,0.722l-1.035,1.178
		l-0.732,0.947l-0.802,0.923l-0.737,0.798l-0.604,0.903l-0.455,0.813l-0.622,0.902l-0.623,0.814l-0.569,0.855l-0.736,0.905
		l-0.504,0.718l-0.341,0.903l-0.622,1.357l-0.622,1.447l-0.771,0.951l-0.963,0.993l-0.901,1.221L25.27-10.91l-0.684,0.766
		l-0.611-0.497l-0.676-0.454l-1.123-0.77l-0.955-0.813l-0.736-0.813l-0.771-0.861l-0.615-0.543l-0.79-0.179l-0.733-0.271
		l-0.737-0.77l-0.504-0.861l-0.573-0.859l-0.226-1.22l-0.446-0.899l-0.26-0.817l-0.447-1.041l-0.408-0.951l-0.771-0.77l-0.573-0.951
		l-0.561-0.95l-0.677-0.904l-0.34-0.902l-0.176-0.813l-0.562-0.813l-0.282-0.634l-0.775-0.993l-0.4-0.68l-0.734-0.772L7.19-32.762
		l-0.737-0.726l-0.894-0.771l-1.02-0.635l-0.852-0.542L2.74-35.979l-1.226-0.728l-1.123-0.496l-0.959-0.228l-0.955-0.407
		l-1.114-0.676l-0.607-0.501l-0.897-0.678l-0.844-0.769l-0.733-0.455l-0.569-0.68l-0.786-0.676l-0.779-0.589l-0.436-0.404
		l-0.855-0.454l-0.607-0.363l-0.615-0.588l-0.458-0.359l-0.516-0.313l-0.569-0.391l-0.424-0.567l-0.646-0.449l-0.5-0.35
		l-0.737-0.519l-0.37-0.631l-0.268-0.46l-0.534-0.402L-16-49.581l-0.409-0.471l-0.48-0.542l-0.497-0.56l-0.58-0.653l-0.336-0.372
		l-0.401-0.332l-0.394-0.306l-0.321-0.258l-0.289-0.239l-0.573-0.011l-0.523-0.008l-0.733-0.015l-0.569,0.112l-0.492,0.102
		l-0.459,0.095l-0.488,0.102l-0.657,0.136l-1.073,0.332l-0.488,0.13l-1.062,0.496l-0.917,0.142l-0.68,0.156l-0.737,0.169
		l-0.855,0.305l-0.706,0.266l-0.646,0.352l-0.672,0.216l-0.841,0.22l-0.572,0.336l-0.734,0.27l-0.622,0.022l-0.5,0.231l-0.791,0.148
		l-0.404,0.224l-0.405,0.226l-0.504,0.274l-0.749,0.419l-0.408,0.227l-0.775,0.258l-0.569,0.27l-0.48,0.271l-0.42,0.317l-0.681,0.14
		l-0.672,0.361l-0.512,0.272l-0.619,0.359l-0.568,0.45l-0.34,0.496l-0.513,0.365l-0.446,0.542l-1.02,0.545l-0.676,0.406
		l-0.845,0.317l-0.737,0.358l-0.894,0.228l-0.618,0.27l-0.733,0.316l-0.673,0.228l-0.962,0.27l-1.062,0.406l-0.844,0.455
		l-0.898,0.542l-0.95,0.634l-0.741,0.451l-0.68,0.586l-0.512,0.676l-0.897,0.768l-0.508,0.633l-0.508,0.454l-0.508,0.452
		l-0.513,0.451l-0.45,0.676l-0.508,0.544l-0.405,0.407l-0.516,0.359l-0.442,0.496l-0.237,0.544l-0.447,0.407l-0.68,0.992
		l-0.568,0.545l-0.409,0.316l-0.676,0.635l-0.397,0.406l-0.768,0.399l-0.611,0.488l-0.53,0.333l-0.737,0.311l-0.569,0.228
		l-0.848,0.36l-0.855,0.363l-0.894,0.36l-1.065,0.137l-1.295,0.36l-0.951,0.132l-1.188,0.18l-0.897,0.181l-1.023,0.18l-0.848,0.228
		l-0.848,0.266l-0.783,0.406l-0.684,0.407l-0.676,0.452l-0.791,0.451l-0.844,0.634l-0.959,0.448l-0.79,0.499l-0.733,0.404
		l-0.615,0.409l-0.852,0.496l-0.737,0.315l-0.844,0.454l-0.848,0.545l-0.508,0.496l-0.451,0.634l-0.622,0.813l-0.287,0.859
		l-0.34,0.771l0.077,0.405l-0.245,0.498l-0.095,0.68l-0.127,0.489l-0.022,0.648l-0.034,0.513l-0.088,0.816l0.198,0.377l0.076,0.542
		l0.058,0.544l-0.172,0.724l0.111,0.728l0.221,0.545l0.08,0.788l-0.13,0.747l-0.244,0.634l-0.054,0.813l-0.408,0.768l-0.236,1.083
		l-0.279,0.676l-0.229,0.724l-0.282,0.497l-0.394,0.63l-0.454,0.544l-0.45,0.676l-0.681,0.676l-0.618,0.724l-0.513,0.497L-98.41,4.9
		l-0.508,0.452l-0.408,0.587l-0.623,0.634l-0.436,0.678l-0.68,0.676l-0.45,0.543l-0.573,0.454l-0.676,0.813l-0.569,0.724
		l-0.408,0.766l-0.34,0.275l-0.283,0.406l-0.34,0.676l-0.396,0.677l-0.791,0.903l-0.623,1.084l-0.508,1.131l-0.168,1.311
		l-0.176,1.13l0.222,0.949l0.283,0.992l0.401,0.773l0.606,0.68l0.676,0.723l0.856,0.634l0.844,0.863l0.6,0.729l0.408,0.542
		l0.447,0.58l0.729,0.551l0.852,0.771l0.736,0.717l0.673,0.772l1.008,0.9l0.959,0.905l1.184,0.86l1.02,0.732l1.185,1.039
		l1.219,0.581l1.236,0.366h1.181l0.901-0.045l0.672,0.183l1.352,0.321l1.463,0.403l0.955,0.405l1.127,0.321l1.229,0.187l1.524,0.36
		l1.352,0.457l1.405,0.405l1.391,0.226l1.291,0.546l1.02,0.547l1.191,0.549l1.291,0.68l1.688,0.955l1.627,0.898l1.574,0.858
		l0.894,0.458l0.954,0.543l1.069,0.497l0.94,0.312l0.896,0.635l1.291,0.321h1.295h1.398l0.946,0.088l1.069,0.504l1.013,0.408
		l1.058,0.139l0.959-0.123l0.652-0.184l0.344-0.091l0.409-0.115l0.492-0.145l0.405-0.119l0.618-0.084l0.573-0.076l0.405,0.118
		l0.446,0.081l0.466,0.201l0.329,0.245l0.328,0.274l0.279,0.344l0.217,0.328l0.329,0.367l0.29,0.321l0.106,0.352l0.027,0.344
		l0.141,0.236l0.138,0.233l0.245,0.327l0.306,0.329l0.24,0.287l0.328,0.121l0.409,0.08h0.478l0.588-0.007h0.4l0.543-0.008h0.442
		l0.516-0.08l0.569-0.092l0.848-0.03l1.069,0.008l0.68,0.096l0.577,0.084l0.404-0.027l0.405,0.061l0.149,0.168l0.218,0.352
		l0.187,0.252l0.26,0.359l0.256,0.313l0.21,0.24l0.119,0.142l0.408,0.382l0.516,0.176l0.229,0.016l0.241,0.084l0.324,0.106
		l0.382,0.107l0.264,0.118l0.321,0.122l0.294,0.138l0.316,0.134l0.261,0.244l0.247,0.222l0.253,0.328l0.408,0.26l0.233,0.168
		l0.358,0.214l0.374,0.146l0.459,0.1l0.328,0.053l0.493,0.115l0.428,0.267l0.08,0.214l-0.022,0.336l0.042,0.313l-0.085,0.359
		l-0.232,0.45l-0.245,0.344l0.245,0.168l0.351,0.215l0.271,0.487l0.237,0.429l0.454,0.26l0.352,0.282l0.405,0.222l0.526,0.29
		l0.374,0.264l0.348,0.52l0.126,0.4l0.023,0.437l0.057,0.504l-0.152,0.542l0.026,0.008l-0.16,0.39l-0.156,0.557l-0.084,0.627
		l-0.21,0.413l-0.084,0.53l0.32,1.607l-0.004,0.5l0.195,0.379l0.294,0.618l0.218,0.451l0.404,0.749l0.352,0.48l0.348,0.527
		l0.394,0.604l0.359,0.416l0.332,0.436l0.206,0.455l0.256,0.377l0.306,0.299l0.179,0.336l0.157,0.557l0.072-0.03l0.149,0.202
		l0.091,0.295l0.177,0.321l0.194,0.168l0.156,0.305l0.111,0.352l0.225,0.306l0.245,0.359l0.206,0.408l0.24,0.466l0.134,0.313
		l0.29,0.256l0.169,0.424l0.24,0.409l0.084,0.4v0.48l0.05,0.371l-0.161,0.6l0.088,0.562l0.062,0.48l0.042,0.467l0.084,0.328
		l0.062,0.278l0.145,0.405l0.198,0.543l0.375,0.604l0.374,0.458l0.787,0.642l0.416,0.321l0.466,0.351l0.554,0.383l0.569,0.259
		l0.462,0.169l0.615,0.289l0.768,0.344l0.611,0.367l0.289,0.45l0.241,0.481v0.42l-0.08,0.374l-0.252,0.467l-0.252,0.408
		L-12.891,90.761"/>
</g>
<g id="Layer_1_1_">
</g>
</svg>
