<?xml version="1.0" encoding="utf-8"?>
<!-- Generator: Adobe Illustrator 16.0.4, SVG Export Plug-In . SVG Version: 6.00 Build 0)  -->
<!DOCTYPE svg PUBLIC "-//W3C//DTD SVG 1.1//EN" "http://www.w3.org/Graphics/SVG/1.1/DTD/svg11.dtd">
<svg version="1.1" id="Layer_1" xmlns="http://www.w3.org/2000/svg" xmlns:xlink="http://www.w3.org/1999/xlink" x="0px" y="0px"
	 width="301.125px" height="217.263px" viewBox="-105.985 -76.367 301.125 217.263"
	 style="enable-background:new -105.985 -76.367 301.125 217.263;" xml:space="preserve">
<g id="Layer_40">
	<path id="Gilgit" style="fill:#CCCCCC;stroke:#FFFFFF;stroke-width:1.15;" d="M-99.235,98.263L-99.235,98.263l0.206,0.092
		l0.151,0.141l-0.01,0.203l-0.071,0.174l-0.151,0.199l-0.203,0.273l-0.183,0.236l-0.142,0.373l0.039,0.225l0.17,0.297l0.29,0.248
		l0.321,0.156l0.563,0.277l0.181,0.08l0.276,0.189l0.28,0.193l0.424,0.277l0.377,0.244l0.344,0.174l0.396,0.07l0.482,0.02
		l0.402-0.09l0.479-0.129l0.338-0.008l0.473,0.098l0.766,0.283h0.318l0.287-0.275l0.167-0.35l0.222-0.314l0.258-0.373l0.206-0.205
		l0.161-0.094l0.514-0.129l0.473-0.061l0.496,0.061l0.557,0.041l0.344,0.107l0.177,0.318l0.042,0.205l0.032,0.277l0.032,0.424
		l0.025,0.361l0.1,0.457l0.068,0.354l-0.045,0.328l-0.016,0.264l0.097,0.309l0.029,0.27l0.46,0.6l0.392,0.23l0.322,0.252
		l0.344,0.205l0.341,0.283l0.145,0.248l0.045,0.338l0.042,0.322l-0.067,0.334l0.065,0.27l0.412,0.326l0.769,0.457l0.441,0.225
		l0.56,0.168l0.485,0.109l0.309,0.031l0.45,0.041l0.373-0.018l0.431-0.016l0.374-0.068l0.302-0.135l0.261,0.029l0.489-0.104
		l0.322-0.006h0.367l0.428,0.135l0.364,0.201l0.341,0.342l0.344,0.303l0.406,0.367l0.312,0.301l0.334,0.348l0.36,0.322l0.344,0.252
		l0.319,0.166l0.309,0.072l0.206,0.225l0.302,0.367l0.261,0.379l0.331,0.314l0.506,0.643l0.813,0.904l0.486,0.312l0.412,0.168
		l0.103,0.045l0.167,0.014l0.167,0.027l0.051,0.01l0.029,0.109l0.071-0.16l0.438-0.213l0.341-0.164l0.393-0.203l0.418-0.102
		l0.402,0.123l0.344,0.037l0.251,0.207l0.28,0.275l0.305,0.322l0.052,0.219l0.148,0.238l-0.022,0.27l0.081,0.572l0.341,0.309
		l0.138,0.375l0.036,0.166l-0.007,0.322l0.074,0.283l0.241,0.348l0.303,0.387l0.344,0.334l0.207,0.244l0.109,0.174l0.306,0.348
		l0.119,0.355l0.212,0.449l0.328,0.32l0.241,0.316l0.28,0.398l0.483,0.334l0.383,0.051l0.28,0.117l0.309,0.195l0.451,0.143
		l0.344,0.318l0.203,0.396l0.257,0.365l0.167,0.326l0.164,0.215l0.293,0.209l0.203,0.227l0.482,0.289l0.338,0.238l0.087,0.424
		l0.161,0.424l0.158,0.375l0.292,0.5l0.212,0.412l0.392,0.234l0.457-0.012l0.515-0.049l0.592-0.121l0.531-0.025l0.44-0.064
		l0.39-0.053l0.203-0.109l0.206-0.289l-0.062-0.342l-0.212-0.41l0.341,0.031l0.408,0.053l0.744-0.014l0.515,0.006l0.531,0.012
		l0.515-0.088l0.148,0.523l0.183,0.428l0.203,0.396l0.206,0.209l0.28,0.096l0.383,0.08l0.479,0.043l0.44-0.023l0.364,0.068
		l0.476,0.025l0.345,0.084l0.187,0.289l0.17,0.314l0.264,0.277l0.254,0.406l0.206,0.295l0.222,0.227l0.482,0.215l0.418,0.189
		l0.248,0.264l0.322,0.129l0.174,0.162l0.264,0.262l0.235,0.4l0.209,0.209l0.161,0.355l0.251,0.186l0.408,0.195l0.364,0.094
		l0.466-0.074l0.509-0.244l0.46-0.332l0.386-0.203l0.515,0.109l0.142,0.357l0.09,0.217l0.203,0.287l0.206,0.305l0.306,0.346
		l0.267,0.316l0.315,0.318l0.328,0.318l0.341,0.27l0.361,0.344l0.405,0.338l0.416,0.223l0.408,0.217l0.341,0.082l0.325-0.115
		l0.103-0.314l0.032-0.418l0.125-0.316l0.167-0.264l0.119-0.258l0.245-0.275l0.164-0.258l0.26-0.188l0.319-0.07l0.26,0.064
		l0.203,0.318l0.344,0.318l0.402,0.342l0.344,0.303l0.463,0.275l0.335,0.232l0.459,0.258l0.489,0.258l0.479,0.207l0.556,0.008
		l0.56-0.055l0.344,0.066l0.296-0.02l0.866-0.072l0.206-0.135l0.196,0.49l0.119,0.398l0.212,0.346l0.373,0.174l0.506-0.039
		l0.354-0.041l0.328-0.068l0.29-0.135l0.29-0.271l0.325-0.27l0.202-0.303l0.177-0.277l0.37-0.35l0.47-0.129h0.434l0.438,0.023
		l0.618,0.025h0.376l0.347-0.025l0.354-0.029l0.383-0.035l0.457-0.051l0.457-0.068l0.386-0.041l0.408-0.059l0.399,0.016l0.367,0.006
		l0.389,0.068l0.396,0.115l0.345,0.072l0.299,0.043l0.071-0.201l0.058-0.289l0.019-0.32l0.062-0.221l0.1-0.318l0.229-0.328
		l0.187-0.262l0.184-0.195l0.264-0.219l0.454-0.244l0.29-0.223l0.235-0.234l0.193-0.277l0.206-0.205l0.067-0.232l0.164-0.225
		l0.123-0.258l0.206-0.16l0.219-0.227l0.264-0.203l0.138-0.221l0.19-0.277l0.016-0.219l-0.042-0.25l-0.003-0.232l0.039-0.27
		l0.203-0.158l0.592-0.035l0.457-0.006l0.476,0.07l0.473,0.02l0.408,0.07l0.483,0.129l0.546,0.076l0.595,0.08l0.673,0.084
		l0.576,0.014l0.541-0.074l0.341-0.115l0.345-0.213l0.264-0.225l0.013-0.174l0.045-0.508l-0.006-0.008l-0.167-0.443l0.049-0.342
		v-0.309l0.019-0.211l-0.1-0.258l0.048-0.297l0.071-0.209l-0.071-0.277l-0.247-0.283l-0.071-0.271l0.1-0.266l0.035-0.064
		l0.067-0.186l0.106-0.398l0.08-0.135l0.155-0.291l0.167-0.289l0.268-0.258l0.26-0.201l0.283-0.156L-7,122.3l0.451-0.178
		l0.373-0.131l0.238-0.207l0.329-0.166l0.151-0.291l0.068-0.25l0.122-0.24l-0.055-0.393l0.006-0.367l-0.016-0.369l0.013-0.381
		l0.051-0.367l0.003-0.289l0.016-0.232l0.125-0.279l0.112-0.234l0.216-0.135l0.27-0.277l0.226-0.135l0.193-0.203l0.048-0.055
		l0.042-0.242l-0.048-0.221l-0.27-0.232l-0.344-0.166l-0.447-0.143l-0.428-0.084l-0.286-0.092l-0.322-0.203l-0.27-0.248
		l-0.203-0.312l-0.164-0.264l-0.171-0.242l-0.206-0.244l-0.19-0.229l-0.071-0.365l0.016-0.238l-0.077-0.254l-0.045-0.287
		l0.026-0.283l0.02-0.25l-0.02-0.322l0.087-0.387l0.25-0.34l0.39-0.18l0.396-0.207l0.451-0.199l0.438-0.213l0.392-0.113l0.287-0.189
		l0.232-0.135l0.25-0.344v-0.264l0.296-0.322l0.148-0.312l0.202-0.289l0.094-0.25l-0.203-0.178l-0.273-0.215l-0.344-0.182
		l-0.341-0.205l-0.135-0.174l-0.238-0.334l-0.222-0.201l-0.254-0.166l-0.354-0.203l-0.344-0.168l-0.379-0.121l-0.354-0.215
		l-0.328-0.277l-0.1-0.293v-0.289l0.084-0.332l0.148-0.275l0.202-0.291l0.145-0.18l0.083-0.129l0.123-0.25l0.135-0.266l0.154-0.215
		l0.122-0.176l0.093-0.168l0.129-0.129l0.167-0.121l0.196-0.137l0.283-0.105l0.319-0.086l0.276-0.137l0.206-0.127l0.228-0.252
		l0.168-0.189l0.119-0.197l0.161-0.254l0.141-0.184l0.071-0.189l0.155-0.145l0.042-0.053l0.113-0.166l0.042-0.096l0.067-0.174
		l0.2-0.227l0.264-0.086l0.067-0.055l0.158-0.109l0.206-0.129l0.329-0.008l0.261-0.082h0.34l0.38,0.039h0.135l0.206,0.01
		l0.392,0.037l0.245-0.006l0.273-0.115l0.215-0.129l0.067-0.039l0.322-0.148h0.428l0.286,0.053l0.248-0.068l0.286-0.104l0.367-0.096
		l0.34-0.064l0.344-0.02h0.267l0.344-0.135l0.345-0.193l0.341-0.189l0.251-0.17l0.25-0.197l0.235-0.061l0.344-0.271l0.299-0.191
		l0.238-0.277l0.341-0.203l0.344-0.109l0.405-0.119l0.341-0.096l0.325-0.027l0.335,0.008l0.218,0.109l0.258,0.107l0.141,0.244
		l0.116,0.27l0.048,0.205l0.042,0.326l-0.1,0.318l-0.139,0.305l-0.122,0.309l0.006,0.336l0.11,0.238l0.142,0.236l0.019,0.297
		l0.155,0.426l-0.064,0.32l-0.061,0.25l0.023,0.283l0.138,0.387l0.067,0.277l-0.067,0.18l-0.103,0.27l-0.123,0.277l-0.074,0.348
		l-0.026,0.398l-0.048,0.381l-0.161,0.254l-0.273,0.221l-0.267,0.164l-0.203,0.189l-0.122,0.207l-0.074,0.33l0.071,0.225
		l0.151,0.143l0.29,0.102l0.267,0.012l0.277-0.02l0.263,0.043l0.161,0.125l0.177,0.195l0.19,0.246l0.215,0.166l0.454,0.203
		l0.357,0.238l0.345,0.234l0.116,0.277l0.264,0.311l0.19,0.262l0.203,0.359l0.087,0.291l-0.033,0.377l0.014,0.385l-0.029,0.367
		l-0.128,0.34l-0.212,0.48l-0.216,0.441l-0.611,0.215l-0.482,0.229l-0.367,0.324l-0.071,0.312l0.009,0.402l0.071,0.404l0.01,0.387
		l-0.071,0.332l-0.174,0.404l-0.251,0.1l-0.203,0.109l-0.113,0.256l-0.077,0.293l0.177,0.455l0.47-0.074l0.367-0.16l0.354-0.115
		l0.264-0.129l0.264-0.084l0.434-0.213l0.276-0.166l0.264-0.168l0.148-0.014l0.379-0.174l0.482-0.275l0.329-0.156l0.203-0.301
		l0.618-0.324l0.344-0.326l0.425-0.16l0.286-0.246l0.267-0.141l0.241-0.105l0.396-0.252l0.292-0.129l0.306-0.201l0.373-0.264
		l0.473-0.229h0.447l0.515,0.086l0.695,0.084l0.399-0.014l0.512-0.168l0.479-0.295l0.489-0.283l0.315-0.199l0.235-0.25l0.042-0.277
		l0.068-0.34l0.071-0.361l0.18-0.293l0.158-0.357l0.238-0.27l0.09-0.236l0.147-0.238l0.203-0.201l0.151-0.309l0.09-0.289
		l0.067-0.277l0.1-0.244l0.109-0.258l0.277-0.244l0.428-0.277l0.408-0.27l0.537-0.238l0.447-0.207l0.553-0.209l0.447-0.203
		l0.431-0.236l0.602-0.109l0.47-0.188l0.582-0.232l0.399-0.18l0.463-0.256l0.319-0.227l0.286-0.303l0.238-0.34l0.212-0.406
		l0.19-0.344l0.071-0.438l0.068-0.398l0.013-0.398l0.048-0.297l0.026-0.352l-0.01-0.418l-0.071-0.41l0.209-0.092l0.476-0.115
		l0.615-0.143l0.501-0.115l0.344-0.102l0.479-0.064l0.557-0.213l0.666-0.053l0.476-0.07l0.492-0.012l0.325,0.037l0.37-0.121
		l0.412-0.07l0.345-0.227l0.312-0.121l0.438-0.014l0.299-0.193l0.299-0.174l0.29-0.129l0.421-0.225l0.428-0.354l0.344-0.248
		l0.254-0.17l0.216-0.248l0.07-0.195l0.064-0.252l-0.022-0.123l-0.206-0.186l0.248-0.373l0.029-0.344l0.013-0.352l-0.025-0.318
		l-0.068-0.336l-0.18-0.236l-0.232-0.258l-0.006-0.242l0.074-0.275l0.09-0.299l0.165-0.432l0.064-0.357l0.135-0.361l0.055-0.34
		l-0.158-0.205l-0.206-0.258l-0.189-0.354l-0.138-0.412l-0.152-0.238l-0.147-0.303l-0.257-0.275l-0.216-0.258l-0.174-0.277
		l0.087-0.27l-0.09-0.217l-0.267-0.189l-0.396-0.143l-0.37-0.107l-0.624-0.207l-0.573-0.154l-0.508-0.135l-0.466-0.123l-0.483-0.115
		l-0.55-0.135l-0.499-0.074l0.074-0.244l0.251-0.209l0.454-0.256l0.66-0.439l0.373-0.348l0.47-0.463l0.373-0.424l0.09-0.504
		l-0.611-0.598L35.62,81.79l-0.482-0.473l-0.303-0.324l-0.479-0.277l-0.448-0.07l-0.427-0.199l-0.477-0.414l-0.367-0.527
		l-0.341-0.508l-0.119-0.412l-0.489-0.334l-1.1-0.521l-0.531-0.289l-0.524-0.396l-0.257-0.389l-0.206-0.283l-0.341-0.617
		l0.341-0.193l0.641-0.342l0.617-0.514l0.245-0.641l0.174-0.412l0.248-0.646l0.087-0.533l0.145-0.742l0.174-0.523l0.482-0.395
		l0.618-0.277l1.306,0.352l1.274-0.006L36,70.323l1.094-0.549l1.303-0.535l1.055-0.547l1.371,0.48l1.09,0.572l1.136,0.344
		l0.666-0.682l0.524-1.223l0.421-0.93l0.293-0.373l0.192-0.701l0.357-0.621l0.395-0.586l0.506,0.242l0.42,0.27l0.443,0.482
		l0.479,0.527l0.377,0.232l0.951,0.154l0.084,0.578l0.309,1.166l-0.062,0.75l-0.068,0.742l0.076,0.646l0.238,0.688l0.621,0.566
		l0.854,0.332l0.781,0.045l0.775-0.494l0.697-0.49l0.088-0.887l0.164-0.381l0.82,0.502l0.811,0.291l0.949,0.23l0.984-0.264
		l0.887-0.457l0.73-0.322l0.764-0.736l0.756-0.676l0.537-0.736l0.752-0.707l0.664-0.676l0.355-0.586l0.098,0.361l0.059,0.424
		l0.092,0.434l0.307,0.551l0.479-0.477l0.227-0.662l0.553-0.863l0.428-0.9l0.379-0.869l0.371-0.803l0.287-0.766l0.4-0.65
		l0.148-0.412l0.184-0.357l0.363-0.652l0.451-0.65l0.42-0.836l0.455-0.615l0.195-0.668l0.258-0.486l0.293-0.305l0.209-0.559
		l0.457-0.617l0.283-0.732l0.404-0.689l0.432-0.65l0.367-0.766l1.387-2.695l0.262-0.521l0.195-0.199l0.617-0.432l0.588-0.109
		l0.6-0.289l0.947-0.303l0.939-0.199l1.059-0.047l0.85-0.133l0.836-0.023l0.734-0.318l0.754-0.1l0.846-0.096l0.752-0.033
		l0.662-0.066l0.754-0.072l0.383-0.365l0.576-0.578l0.742-0.42l0.344-0.482l0.701-0.457l0.66-0.533l0.824-0.344l0.736-0.348
		l0.627-0.342l1.059-0.453l0.844-0.412l0.688,0.594l0.779,0.832l1.518,0.93l0.648,0.404l0.812,0.508l0.695,0.555l1.725,1.113
		l0.746,0.688l0.588,0.49l0.635,0.545l0.869,0.555l0.994,0.379l0.703,0.547l0.199,1.062l0.355,1.08l0.65,1.012l0.35,0.736
		l1.051,0.568l0.809,0.555l0.826,0.328l1,0.797l1.031,0.479l1.576,0.326l1.434,0.1l0.775,0.068l1.238,0.17l1.102,0.209l1.025,0.051
		l0.75,0.184l0.523,0.297l0.758,0.131l0.617,0.254l0.592,0.252l0.68,0.201l0.598,0.207l0.439,0.174l0.436,0.279l0.977,0.184
		l0.658,0.168l0.752-0.119l0.541-0.021l0.717,0.059l0.904-0.055l1.307,0.078l1.045-0.309l0.973,0.006l0.93-0.264l0.895-0.365
		l0.875-0.104l0.379-0.188l0.547,0.033l0.527,0.035l0.525,0.012l0.479,0.074l0.521,0.068l0.438-0.143l0.234-0.244l0.078-0.289
		l0.24-0.418l-0.086-0.418l0.398,0.074l0.432,0.182l0.34,0.277l0.398,0.314l0.303,0.467l0.6,0.438l0.619,0.482l0.729,0.451
		l0.482,0.314l0.305,0.143l1.078,0.508l0.734,0.352l0.66,0.209l0.623,0.332l0.447,0.473l-0.035,0.553l-0.184,0.32l-0.336,0.451
		l-0.33,0.516l-0.293,0.631l-0.324,0.533l-0.174,0.264l-0.277,0.512l0.27,0.264l0.447,0.217l0.654,0.264l0.678,0.225l0.596,0.225
		l0.479,0.148l0.541,0.064l0.441-0.096l0.447,0.029l0.496-0.227l0.07,0.277l0.031,0.553l0.016,0.324l0.078,0.521l0.203,0.391
		l0.281,0.359l0.346,0.328l0.229,0.219l0.299,0.289l0.229,0.174l-0.039,0.447l0.033,0.398l-0.129,0.477l-0.158,0.348l-0.109,0.283
		l0.055,0.457l0.113,0.438l0.34,0.143l0.467,0.127l0.475,0.188l0.428,0.199l0.662,0.27h0.617l0.814-0.094l0.65-0.189l0.826-0.256
		l0.65-0.168l0.623-0.223l0.611-0.08l0.566-0.17l0.531-0.006l0.521,0.055l0.631,0.152l0.48,0.102l0.48,0.115l0.652-0.014
		l0.482-0.129l0.342,0.062l0.488-0.008l0.48-0.141l0.543-0.178l0.396-0.148l0.408-0.301l0.031-0.062l0.475-0.344l0.406-0.283
		l0.279-0.244l0.291-0.203l0.342-0.193l0.334-0.15l0.582-0.248l0.516-0.17l0.617-0.223l0.74-0.195l0.602-0.326V70.28l-0.004-0.393
		l-0.215-0.494v-0.215l0.119-0.324l0.635,0.055l0.479-0.049l0.627-0.174l0.512-0.219l0.775-0.215h0.537l0.607-0.039l0.342-0.312
		l1.168-0.701l-0.133-0.041l1.027-1.166l-1.062-1.131l-0.479-0.789l-0.273-1.553l0.518-1.031l0.158-0.643l-0.836-0.689l-1.141-0.693
		l0.252-1.121l0.9-0.43l2.783-0.373l1.578-1.059l-0.945-1.432l1.275-0.426l2.438,0.09l2.904-0.559l0.01-0.883l-0.08-0.945
		l0.023-1.344l-0.209-1.223l-0.062-1.133l-0.246-1.48l-0.088-1.711l1.289-0.816l1.387,0.35l2.271,0.609l1.082,0.449l0.736-0.045
		l0.559-0.707l-0.443-1.668l-0.896-1.393l-1.539-0.924l-1.76-1.412l-0.344-2.254l-0.756-1.033l-0.895-0.984l-0.891-0.305
		l-1.492-1.236l-0.605-1.359l-0.467-1.34l-0.219-1.126l0.207-1.618l0.121-0.142l2.604-4.174l0.682-0.481l1.557-0.478l0.621-1.028
		l0.383-1.512l-0.617-2.033l-0.277-0.761l-0.527-0.978l-0.521-0.685l-0.492-0.824l-0.891-0.912l-0.059-0.874l0.619-0.867
		l-0.066-0.599l-0.07-0.326l-1.951-0.619l-0.064-0.327l0.344-1.249l-0.258-0.603l-0.611-0.494l-1.143-0.5l-1.207-1.071l-2.059-1.953
		l-0.35-0.962l-0.164-0.92l-0.596-1.416l-0.527-0.861l-0.678-0.56l-0.654-0.814l-0.811-0.682l-0.258-0.563l0.02-0.918l0.482-1.38
		l0.492-0.97l0.75-0.441l-0.506,0.007l-0.865-0.399l-0.717-0.655l-0.961-0.836l-0.896-0.891l-0.656-0.639l-1.15-0.695l-0.607-0.299
		l-0.545-0.241l-0.795-0.648l-0.832-0.87l-0.596-0.658l-0.607-0.69l-0.895-1.034l-1.078-0.935l-0.965-0.597l-0.848-0.639
		l-0.896-0.547l-0.775-0.594l-0.9-0.642l-0.965-0.445l-1.064-0.243l-0.947-0.742l-0.949-0.646l-0.438-0.183l-0.35-0.34l-0.602-0.494
		l-1.027-0.424l-0.273-0.314l-0.162-0.175l-0.197-0.139l-0.287-0.125l-0.395-0.098h-0.465l-0.479-0.089l-0.352-0.235l-0.514-0.463
		l-0.441-0.465l-0.551-0.581l-1.074-0.608l-1.365-0.606l-1.484-0.644l-1.496,0.491l-1.16,0.139l-1.082-1.03l-0.969-0.449
		l-1.029-0.688l-1.746-0.5l-2.828-0.775l-1.932-0.079l-1.682,0.333l-2.43,0.425l-2.105,0.455l-2.215-0.965l-1.363-0.128
		l-1.834-0.057l-1.633-0.254l-0.076,1.219l-0.355,1.519l0.066,0.83l0.344,2.303l-0.672,0.484l-1.029,0.142l-1.391-0.642
		l-1.332-1.819l-0.854,0.29l-1.098,0.339l-1.102,0.926l-1.34,1.459l-0.975,0.194l-1.018-0.096l-0.643-0.944l-0.535-1.071
		l-0.578-0.695l-0.482-1.512l-0.418-1.078l-0.848-1.129l-0.965-1.468l-0.277-0.979l-0.055-1.588l0.213-0.918l0.322-1.097
		l0.521-1.662l0.479-1.188l-0.193-1.443l0.033-0.579l-0.184-1.713l-0.293-1.763l-0.779-1.423l-1.441-1.422l-1.578-0.838
		l-0.779-0.539l-0.189-0.785l-0.127-1.271l0.297-0.857l0.482-0.88l1.102-0.142l0.793-0.343l0.551-0.487l-0.115-1.421l-0.453-0.711
		l-1.303-0.365l-0.758,0.217l-1.021,0.098l-0.85,0.018l-0.908-0.1l-1.756-0.642l-1.77-0.201l-0.854,0.095l-0.98-0.396l-1.711-0.592
		l-1.158-0.346l-1.834-0.346l-2.17-0.194l-2.523,0.522l-0.859,0.439l-0.975,0.286l-1.646,0.29l-1.221-0.247l-1.283-0.833
		l-0.859-0.392l-1.336-0.148l-1.576-0.49l-1.359-0.445l-1.924-0.731l-0.91-0.59l0.488-3.031l-3.27-1.65l-1.721,0.372l-0.385,1.459
		l-0.223,0.205l-2.852,0.145l-2.086-0.148l-2.748,0.782l-1.58-0.1l-1.41-0.686l-1.404-0.685l-1.402-0.098l-0.994,0.721l-1.277,1.091
		l-0.477,0.534l-0.907,0.692l-1.77,0.145l-1.309-0.306l-1.001,0.161l-0.785,0.537L38.477-58.6l-1.837,0.393l-1.715,0.541
		l-1.03,0.635l0.071,0.883l0.306,0.632l0.428,1.126l0.794,1.125l0.068,0.585l-0.12,0.393l-1.583-0.145l-0.55-0.049l-0.409,1.219
		l-0.978,0.312L30.48-51.05l-0.946-0.455l-0.2-0.293l-2.258-4.45l-0.312-1.123l-0.746-1.371l-0.673-0.78l-0.614-0.735l-1.413-0.754
		l-0.85-0.893l-0.202-0.942l0.518-1.459L23.045-66l-0.19-1.835l-1.296,0.206l-4.211,0.174l-0.975,0.783l-0.604,0.59l0.067,1.808
		l-0.428,0.492l-1.223,0.003l-1.097,0.098l-1.219,0.176l-1.403-0.027l-1.682-0.182l-0.708-0.139l-0.618-0.503l-0.736-0.729
		l-0.743-0.928l-0.482-0.78l0.424-1.42l-0.312-0.732l-0.794-0.438l-0.55-1.028l-0.318-1.173l-0.91-0.632l-1.287,0.148l-1.026,0.639
		l-1.496,0.823l-2.13,0.468l-1.496,0.355l-2.062,0.619l-0.546,0.541l-0.299,1.226l-0.788,0.833l-0.479,0.537l-2.13,0.645
		l-3.252,0.708l-0.482,0.054l0.235,1.671l-0.618,4.684l-0.814,3.185l-0.618,0.534l-1.042,0.082l-1.271-0.191l-0.666-0.563
		l-1.142-3.465l-0.496-0.386l-1-0.768l-2.638-0.088l-9.619,0.264l-1.003,0.208l-0.972,1.089l-1.676,1.062l-2.931,0.688l-0.804,0.195
		l-2.709,1.271l-3.101,2.8l-2.815,1.967l-6.415,3.479l-1.255,0.435l-0.344,0.119l-2.178,0.114l-3.574-1.1l-2.68-0.333l-3.304-0.205
		l-1.988,0.229l-0.618,0.566l-0.875,1.367l-0.952,3.304l-0.92,3.212l-1.065,0.872l-1.361,0.106l-2.127-0.735l-1.254,0.003
		l-0.836,0.298l-3.581,2.11l-2.609-0.052l0.016,0.006l0.772,0.78l0.132,0.132l0.145,0.139l0.125,0.147l0.225,0.142l0.753,0.7
		l0.187,0.079l0.254,0.072l0.257,0.023l0.312,0.025l0.31,0.066l0.244,0.09l0.215,0.088l0.216,0.138l0.125,0.214l0.096,0.188
		l0.142,0.168l0.067,0.225l0.016,0.193l0.049,0.222l0.09,0.247l0.109,0.238l0.158,0.154l0.206,0.176l0.184,0.158l0.254,0.088
		l0.319,0.119l0.254,0.125l0.289,0.052l0.328,0.03l0.341,0.003l0.348,0.003l0.386-0.019l0.335,0.026l0.325,0.016l0.37,0.016
		l0.415,0.018l0.341,0.003l0.344,0.079l0.318,0.12l0.231,0.142l0.132,0.16l0.08,0.129l0.097,0.142l-0.022,0.273l-0.045,0.33
		l-0.071,0.217l-0.058,0.264l-0.051,0.23l-0.068,0.244l-0.003,0.247l-0.058,0.257l-0.022,0.273l0.077,0.251l0.067,0.21l0.109,0.276
		l0.097,0.224l0.113,0.205l0.167,0.214l0.129,0.229l0.067,0.196l-0.016,0.185l0.016,0.214l-0.122,0.191l-0.212,0.145l-0.251,0.158
		l-0.235,0.149l-0.254,0.142l-0.229,0.145l-0.206,0.122l-0.09,0.203l-0.039,0.248l-0.02,0.248l-0.009,0.154l-0.013,0.217
		l-0.029,0.182l-0.17,0.227l-0.196,0.161l-0.174,0.153l-0.216,0.145l-0.158,0.147l-0.106,0.102l-0.229,0.146l-0.141,0.161
		l-0.29,0.195l0.062,0.158l0.234,0.062l0.293,0.013l0.322,0.04l0.379-0.03l0.341-0.095l0.454-0.079l0.412-0.083l0.219-0.132
		l0.338-0.058l0.334-0.1l0.271-0.009l0.302-0.053l0.344-0.022l0.341-0.04l0.374-0.02l0.309-0.022l0.361-0.053l0.424-0.019
		l0.373-0.053l0.428,0.003l0.309-0.01l0.309-0.022l0.283,0.009l0.393,0.026l0.286-0.01l0.357,0.003l0.325,0.013l0.222,0.016
		l0.18,0.015l0.132,0.01l0.206,0.016l0.276,0.025l0.203,0.066l0.154,0.031l0.116,0.02l0.257,0.053l0.119,0.032l0.151,0.043
		l0.145,0.053l0.189,0.069l0.187,0.089l0.203,0.098l0.103,0.084l0.126,0.098l0.071,0.05l0.122,0.075l0.109,0.057l0.123,0.06
		l0.089,0.042l0.087,0.047l0.235,0.035h0.186h0.123l0.161,0.015l0.174,0.013l0.119-0.024l0.103-0.019l0.11-0.02l0.148-0.016
		l0.112-0.011l0.113,0.003l0.083,0.077l0.068,0.076l-0.01,0.088l-0.013,0.072l-0.103,0.116l-0.068,0.085l-0.074,0.106l-0.068,0.064
		l-0.109,0.096l-0.087,0.073l-0.116,0.095l-0.083,0.106l-0.096,0.104l-0.129,0.132l-0.071,0.079l-0.071,0.1l-0.077,0.102
		l-0.071,0.112l-0.081,0.125l-0.067,0.135l-0.087,0.108l-0.026,0.131l-0.009,0.116l-0.013,0.123l-0.032,0.151l-0.062,0.158
		l-0.016,0.145l0.025,0.128l0.029,0.135l0.032,0.106l0.026,0.105l0.019,0.09l0.02,0.082l0.006,0.092l0.007,0.142l0.016,0.112
		l0.022,0.148l0.045,0.095l0.013,0.132l0.022,0.109l-0.01,0.069l0.016,0.083l0.026,0.109l0.071,0.079l0.077,0.095l0.093,0.086
		l0.103,0.105l0.161,0.141l0.174,0.151l0.161,0.063l0.183,0.069l0.18,0.04l0.206,0.042l0.215,0.031l0.174,0.023l0.292,0.013
		l0.187,0.011l0.209,0.016h0.338l0.306,0.025l0.257,0.01l0.389-0.003l0.145-0.013l0.2-0.022l0.116-0.04l0.145-0.053l0.206-0.003
		l0.203-0.013l0.173-0.016l0.238-0.003l0.206,0.029l0.332,0.069l0.267,0.09l0.303,0.066l0.337,0.069l0.318,0.066l0.287,0.051
		l0.286,0.066l0.309,0.106l0.302,0.117l0.203,0.119l0.167,0.112l0.37,0.221l0.216,0.198l0.245,0.22l0.196,0.241l0.251,0.195
		l0.261,0.265l0.28,0.214l0.206,0.232l0.257,0.22l0.229,0.257l0.245,0.195l0.196,0.176l0.18,0.148l0.184,0.162l0.222,0.098
		l0.25,0.05l0.242,0.022l0.257,0.015h0.328l0.299,0.026l0.209,0.039l0.202,0.05l0.277,0.129l0.135,0.214l0.02,0.154l0.016,0.093
		l-0.058,0.142l-0.022,0.079l-0.019,0.075l-0.01,0.063l-0.055,0.132l-0.019,0.085l-0.025,0.085l0.009,0.062l0.022,0.06l0.074,0.069
		l0.074,0.043l0.145,0.079l0.138,0.06l0.151,0.063l0.164,0.045l0.138,0.053l0.161,0.04l0.225,0.051l0.209,0.056l0.189,0.05
		l0.207,0.053l0.193,0.023l0.096,0.013l0.129,0.018l0.199,0.023l0.083,0.003l0.126,0.006h0.119h0.139l0.106,0.016l0.068,0.01
		l0.09,0.021l0.109,0.035l0.078,0.024l0.106,0.013l0.096,0.035l0.081,0.05l0.07,0.046l0.068,0.123l0.013,0.079l0.013,0.092
		l0.013,0.135L-48.99-9.16L-49-9.081L-49.057-9l-0.084,0.085l-0.067,0.05l-0.1,0.063l-0.078,0.063l-0.071,0.054l-0.125,0.062
		l-0.1,0.05l-0.147,0.066l-0.103,0.047l-0.113,0.022l-0.08,0.02l-0.094,0.02l-0.087,0.024l-0.128,0.029l-0.145,0.037l-0.152,0.042
		l-0.093,0.031l-0.081,0.026l-0.254,0.047l-0.125,0.032l-0.116,0.03l-0.094,0.022l-0.074,0.021l-0.042,0.013l-0.093,0.029
		l-0.08,0.022l-0.087,0.024l-0.084,0.023l-0.125,0.022L-52.204-7.9l-0.067,0.02l-0.097,0.06l-0.071,0.057l-0.119,0.095l-0.18,0.145
		l-0.067,0.105l-0.071,0.083l-0.08,0.164l-0.048,0.116l-0.033,0.119l-0.07,0.105l-0.068,0.1l-0.071,0.092l-0.067,0.082l-0.067,0.062
		l-0.093,0.094l-0.109,0.067l-0.106,0.08l-0.106,0.092l-0.09,0.06l-0.142,0.085l-0.087,0.053l-0.067,0.053l-0.071,0.053
		l-0.067,0.064l-0.103,0.116l-0.067,0.066l-0.067,0.109l-0.045,0.118l-0.013,0.119l0.013,0.085l0.01,0.069l0.022,0.125l0.019,0.109
		l-0.003,0.107l-0.003,0.106l-0.003,0.079l-0.026,0.151l0.01,0.103l0.006,0.073l0.029,0.095l0.042,0.131l0.039,0.106l-0.003,0.114
		l-0.006,0.149l-0.068,0.108l-0.096,0.066l-0.067,0.04l-0.09,0.026l-0.115,0.013h-0.12l-0.112-0.026l-0.177-0.024l-0.122-0.022
		l-0.158-0.029L-55.72-3.54l-0.1-0.025l-0.184-0.05l-0.119-0.036l-0.129-0.04l-0.119-0.037l-0.119-0.039l-0.096-0.032l-0.165-0.05
		l-0.157-0.04l-0.113-0.026l-0.119-0.079l-0.1-0.037l-0.148-0.056l-0.186-0.039l-0.161-0.038l-0.177-0.051l-0.1-0.021L-58.13-4.26
		l-0.116-0.043l-0.093-0.035l-0.181-0.041l-0.071-0.016l-0.122-0.016l-0.122-0.018l-0.132-0.026l-0.125-0.022l-0.158-0.01
		l-0.109-0.008l-0.161-0.036l-0.071-0.019l-0.09-0.008l-0.106-0.006l-0.145-0.01l-0.17-0.006l-0.154-0.009l-0.106-0.003
		l-0.103-0.006l-0.142-0.006l-0.1-0.007l-0.145-0.006l-0.154-0.007l-0.238-0.018l-0.109-0.022l-0.165-0.013l-0.093-0.015
		l-0.128,0.011l-0.071,0.098l-0.067,0.151l-0.148,0.179l-0.119,0.154l-0.097,0.211l-0.071,0.245l-0.093,0.23l-0.148,0.227
		l-0.109,0.204l-0.206,0.172l-0.251,0.158l-0.318,0.151l-0.341,0.166l-0.254,0.033l-0.148,0.056l-0.183,0.066l-0.235,0.069
		l-0.154,0.079l-0.158,0.109l-0.225,0.123l-0.193,0.104l-0.25,0.123l-0.229,0.098l-0.206,0.198l-0.28,0.151l-0.203,0.159
		l-0.129,0.177l-0.025,0.169v0.208l0.025,0.204l0.155,0.227l0.135,0.142l0.113,0.116l0.067,0.167l-0.058,0.217l-0.074,0.27
		l-0.074,0.219l-0.131,0.267l-0.206,0.25l-0.171,0.241l-0.125,0.205l-0.071,0.202l-0.035,0.232l0.057,0.22l0.058,0.22l-0.019,0.069
		l0.125,0.271l0.09,0.223l-0.02,0.327l-0.042,0.245l-0.116,0.224l-0.113,0.06l-0.142,0.025l-0.148,0.024l-0.18-0.003l-0.273-0.037
		l-0.225-0.076l-0.17-0.082l-0.113-0.069l-0.148-0.073l-0.103-0.062l-0.119-0.085l-0.128-0.056l-0.136-0.073l-0.1-0.04l-0.1-0.042
		l-0.067-0.027l-0.09-0.01l-0.135-0.006l-0.109,0.022l-0.119,0.047l-0.151,0.194l-0.158,0.121l-0.119,0.09l-0.083,0.065
		l-0.148,0.112L-70.58,4.52l-0.283,0.132l-0.318,0.089l-0.344,0.05l-0.341,0.022l-0.418-0.02l-0.37-0.003l-0.36-0.069l-0.347-0.069
		l-0.293-0.027l-0.341-0.029l-0.341-0.043l-0.328,0.027l-0.341,0.023l-0.344,0.075l-0.241,0.172l-0.19,0.217L-75.85,5.31l-0.1,0.336
		l0.02,0.358l-0.003,0.198v0.267l0.109,0.783l0.052,0.279l0.035,0.289l0.068,0.267l-0.045,0.286l0.042,0.243l-0.071,0.198
		l-0.203,0.169l-0.067,0.296l-0.071,0.296l-0.106,0.393l-0.039,0.276l-0.045,0.299l-0.045,0.326l-0.071,0.336l-0.071,0.29
		l-0.067,0.357l-0.112,0.355l-0.167,0.188l-0.071,0.058l-0.203,0.135l-0.222,0.132l-0.29,0.09l-0.299,0.075l-0.344,0.088
		l-0.338,0.116l-0.299,0.076l-0.341,0.088l-0.264,0.106l-0.129,0.067l-0.157,0.09l-0.081,0.092l-0.071,0.082v0.139l0.048,0.148
		l0.026,0.125l0.023,0.126l-0.003,0.151l-0.003,0.149l0.013,0.287l-0.055,0.309l-0.096,0.27l-0.023,0.238l-0.112,0.243l-0.148,0.254
		l-0.116,0.254L-80.54,16.6l-0.119,0.28l-0.145,0.227l-0.193,0.277l-0.212,0.311l-0.232,0.17l-0.196,0.162l-0.174,0.136
		l-0.171,0.135l-0.096,0.23l0.087,0.252l0.17,0.229l0.212,0.233l0.209,0.204l0.071,0.188l0.123,0.254l0.113,0.236l0.125,0.267
		l0.206,0.273l0.25,0.296l0.239,0.235l0.312,0.22l0.241,0.182l0.228,0.167l0.293,0.198l0.231,0.151l0.206,0.178l0.203,0.205
		l0.193,0.23l0.084,0.211l-0.02,0.198l-0.09,0.217l-0.235,0.158l-0.27,0.143l-0.344,0.206l-0.132,0.046l-0.158,0.057l-0.206,0.076
		l-0.132,0.053l-0.203,0.119l-0.148,0.055l-0.154,0.069l-0.116,0.056l-0.132,0.063l-0.112,0.091l-0.203,0.153l-0.199,0.042
		l-0.2,0.027l-0.109,0.006l-0.142,0.007l-0.122,0.016l-0.158,0.023l-0.303,0.09l-0.215,0.184l-0.103,0.323l-0.135,0.307l-0.1,0.292
		l-0.087,0.309l-0.139,0.342l-0.215,0.308l-0.064,0.208l-0.203,0.254l-0.241,0.208l-0.273,0.224l-0.193,0.16l-0.251,0.16
		l-0.312,0.051l-0.264,0.066l-0.257,0.003l-0.238-0.039l-0.402,0.092l-0.225,0.185l-0.203,0.191l-0.067,0.23l-0.129,0.239
		l-0.093,0.191l-0.106,0.166l-0.225,0.183l-0.187,0.214l0.039,0.222l0.051,0.277l0.009,0.325l-0.099,0.297l-0.1,0.193l-0.17,0.241
		l-0.081,0.106l-0.154,0.17l-0.106,0.11l-0.187,0.189l-0.209,0.201l-0.203,0.198l-0.164,0.192l-0.032,0.244l-0.084,0.309
		l-0.052,0.455l0.068,0.457l0.006,0.416l-0.042,0.215l0.077,0.486l0.006,0.359l0.029,0.328l0.154,0.338l0.055,0.119l0.106,0.344
		l0.045,0.184l0.048,0.232l0.052,0.283l0.067,0.406l-0.129,0.27l-0.125,0.41l-0.07,0.66l-0.023,0.492l-0.032,0.447l-0.055,0.383
		l0.006,0.293l0.122,0.125l0.187,0.104l0.177,0.031l0.158,0.104l0.109,0.154l0.077,0.178l0.023,0.201l0.1,0.252l0.071,0.219
		l0.035,0.135l0.071,0.199l0.01,0.188l0.032,0.244l0.029,0.129l0.022,0.232l0.017,0.176l0.029,0.178l0.055,0.223l0.067,0.195
		l0.109,0.207l0.17,0.166l0.145,0.143l0.154,0.102l0.219,0.059l0.241,0.02h0.206l0.229,0.041l0.203,0.105l0.264,0.203l0.203,0.164
		l0.135,0.154l0.203,0.168l0.164,0.143l0.19,0.191l0.135,0.188l0.174,0.17l0.206,0.141l0.155,0.143l0.173,0.08l0.209,0.039
		l0.268-0.02l0.235,0.104l0.187,0.135l0.148,0.193l0.157,0.176l0.167,0.252l0.084,0.215l0.097,0.203l0.167,0.324l0.062,0.188
		l0.122,0.197l0.083,0.201l0.128,0.197l0.184,0.209l0.203,0.264l0.122,0.211l0.078,0.258l-0.045,0.203l-0.013,0.158l-0.067,0.193
		l-0.087,0.211l-0.029,0.246l0.042,0.152l0.206,0.117l0.203,0.111l0.267,0.172l0.229,0.191l0.312,0.195l0.267,0.135l0.251,0.16
		l0.235,0.123l0.202,0.135l0.257,0.127l0.2,0.156l0.306,0.23l0.283,0.129l0.312,0.123l0.241,0.16l0.354,0.283l0.206,0.189
		l0.184,0.191l0.1,0.162l0.016,0.107l0.071,0.223l0.019,0.275l-0.009,0.197l-0.045,0.25L-76.2,55.88l-0.08,0.479l-0.135,0.303
		l-0.206,0.277l-0.283,0.344l-0.264,0.309l-0.357,0.268l-0.193,0.086l-0.231,0.164l-0.293,0.209l-0.257,0.168l-0.267,0.16
		l-0.247,0.158l-0.216,0.168l-0.203,0.201l-0.206,0.217l-0.106,0.221l-0.067,0.252l-0.074,0.338l-0.035,0.277l-0.02,0.305
		l0.029,0.242l-0.029,0.27l-0.013,0.283l0.016,0.203l0.003,0.25l-0.003,0.244l0.026,0.258l-0.026,0.25l0.036,0.178l0.071,0.139
		l0.09,0.16l0.135,0.174l0.119,0.115l0.158,0.168l0.145,0.129l0.142,0.115l0.077,0.182l0.068,0.205l0.113,0.174l0.192,0.199
		l0.125,0.16l0.087,0.199l0.103,0.117l0.077,0.203l0.081,0.121l0.071,0.203l0.032,0.205l0.104,0.182l0.096,0.289l0.135,0.27
		l0.077,0.238l0.068,0.227l0.074,0.256l0.077,0.242l0.035,0.23l0.068,0.229l0.058,0.203l0.067,0.174l0.039,0.225l0.022,0.191
		l0.026,0.16l0.013,0.166l0.016,0.168v0.162l-0.029,0.135l-0.061,0.09l-0.132,0.055l-0.187,0.055l-0.202-0.025l-0.203-0.074
		l-0.17-0.074l-0.096-0.062l-0.145-0.08l-0.135-0.102l-0.145-0.08l-0.196-0.088l-0.103-0.049l-0.212,0.113l-0.148,0.158
		l-0.173,0.295l-0.193,0.352l-0.206,0.338l-0.148,0.289l-0.161,0.293l-0.094,0.451l-0.1,0.225l-0.154,0.279l-0.129,0.238
		l-0.128,0.307l-0.125,0.309l-0.113,0.295l-0.112,0.303l-0.081,0.289l-0.067,0.219l-0.087,0.277l-0.077,0.283l-0.039,0.283
		l-0.097,0.275l-0.128,0.348l-0.065,0.248l-0.035,0.229l-0.07,0.264l-0.106,0.277l-0.071,0.219l-0.061,0.244l-0.11,0.295
		l0.014,0.295l-0.106,0.428l-0.042,0.354l0.067,0.244l0.036,0.219l0.148,0.199l0.135,0.186l0.135,0.277l0.19,0.373l0.273,0.438
		l0.077,0.406l-0.051,0.379l-0.203,0.367l-0.245,0.289l-0.189,0.16l-0.184,0.023l-0.438-0.006l-0.427-0.061l-0.432-0.023h-0.341
		l-0.322,0.143l-0.267,0.17l-0.248,0.184l-0.219,0.275l-0.248,0.352l-0.245,0.33l-0.302,0.203l-0.299,0.174l-0.283,0.129
		l-0.351,0.043l-0.248-0.055l-0.315-0.117l-0.293-0.135l-0.229-0.111l-0.25-0.049l-0.235,0.012l-0.209,0.068l-0.202,0.189
		l-0.274,0.258l-0.405,0.086l-0.406,0.094l-0.483,0.006l-0.418-0.018l-0.405-0.123l-0.479-0.193l-0.37-0.148l-0.383,0.104
		l-0.302,0.219l-0.203,0.27l-0.061,0.277l0.058,0.264l0.081,0.377l-0.003,0.385v0.395l-0.022,0.543l-0.039,0.387l0.016,0.559
		l0.174,0.283l-0.116,0.461l-0.067,0.465l0.016,0.381l0.067,0.537l0.016,0.533l-0.003,0.521l-0.067,0.336l-0.28,0.225l-0.312,0.105
		l-0.28,0.098l-0.305,0.018l-0.338,0.02l-0.341,0.104l-0.399,0.074l-0.489,0.061l-0.557,0.008l-0.283-0.062l-0.273-0.16
		l-0.106-0.123l-0.206-0.318l-0.222-0.264l-0.235-0.1l-0.688-0.102l-0.644-0.148l-0.514-0.127l-0.293-0.084l-0.428-0.066
		l-0.219-0.119l-0.206-0.016l-0.042,0.439l-0.081,0.402l-0.061,0.373l-0.055,0.352l0.051,0.449l0.035,0.477l0.154,0.471l0.344,0.568
		l0.322,0.506l0.206,0.512l0.187,0.498l0.234,0.516l-0.032,0.41l0.023,0.412l-0.016,0.336l-0.064,0.443v0.365l-0.048,0.594
		L-99.235,98.263"/>
</g>
<g id="Layer_1_1_">
</g>
</svg>
