<?xml version="1.0" encoding="iso-8859-1"?>
<!-- Generator: Adobe Illustrator 16.0.4, SVG Export Plug-In . SVG Version: 6.00 Build 0)  -->
<!DOCTYPE svg PUBLIC "-//W3C//DTD SVG 1.1//EN" "http://www.w3.org/Graphics/SVG/1.1/DTD/svg11.dtd">
<svg version="1.1" xmlns="http://www.w3.org/2000/svg" xmlns:xlink="http://www.w3.org/1999/xlink" x="0px" y="0px"
	 width="27.586px" height="20.467px" viewBox="0 0 27.586 20.467" style="enable-background:new 0 0 27.586 20.467;"
	 xml:space="preserve">
<g id="Layer_111">
	<g id="Layer_116">
		<path id="Lahore" style="fill:#CCCCCC;stroke:#FFFFFF;stroke-width:1.07;" d="M21.889,0.522
			L21.889,0.522L20.654,0.8l-0.085-0.001L20.488,0.8l-0.074,0.014l-0.045,0.031l-0.043,0.064l-0.068,0.085l-0.095,0.12L20.07,1.215
			l-0.158,0.082l-0.144,0.057l-0.137,0.048l-0.079,0.006l-0.065,0.017l-0.038,0.031l-0.043,0.07l-0.111,0.189L19.21,1.786
			l-0.091,0.05l-0.107,0.018l-0.109-0.003l-0.067-0.02L18.8,1.813l-0.028-0.026l-0.017-0.048l-0.006-0.087l-0.016-0.048L18.712,1.59
			l-0.043-0.005l-0.038,0.01l-0.077,0.034l-0.12,0.09l-0.089,0.08l-0.044,0.052l-0.003,0.051l0.009,0.039l0.032,0.023l0.07-0.001
			l0.108,0.01l0.021,0.011l0.019,0.021l0.001,0.033v0.1l0.021,0.065l0.044,0.047l0.071,0.053l0.074,0.034l0.148,0.021l0.082,0.01
			l0.05,0.017l0.015,0.029v0.03L19.046,2.55l-0.073,0.149l-0.037,0.037L18.87,2.768l-0.076,0.026l-0.13,0.021L18.53,2.818
			L18.407,2.83l-0.076,0.02l-0.07,0.041l-0.066,0.071l-0.065,0.062l-0.084,0.107l-0.084,0.128l-0.055,0.085l-0.047,0.047
			l-0.062,0.046l-0.058,0.024L17.628,3.5l-0.062,0.013l-0.045,0.028L17.5,3.562l-0.02,0.034v0.03l0.012,0.033l0.036,0.035
			l0.021,0.03l0.017,0.032V3.78l-0.018,0.037l-0.025,0.021l-0.039,0.02l-0.054,0.007l-0.08,0.002l-0.092-0.004l-0.067-0.022
			l-0.055-0.038l-0.052-0.056L17.069,3.66l-0.008-0.09L17.04,3.531l-0.033-0.029L16.98,3.49l-0.035,0.001l-0.042,0.021l-0.034,0.028
			l-0.042,0.007h-0.039l-0.036-0.022l-0.024-0.051l-0.034-0.062l-0.022-0.039l-0.027-0.015l-0.093-0.003l-0.119,0.009l-0.057-0.002
			l-0.089-0.025l-0.075-0.046l-0.053-0.049l-0.015-0.036l0.009-0.045l0.003-0.039l-0.002-0.061l-0.021-0.06l-0.059-0.047
			l-0.086-0.067l-0.104-0.063l-0.064-0.059l-0.013-0.048l-0.016-0.045L15.775,2.64l-0.039-0.017h-0.024h-0.021l-0.014,0.016
			l-0.003,0.033l-0.006,0.027l-0.021,0.024l-0.024,0.016l-0.049,0.01l-0.061,0.007l-0.046,0.013L15.448,2.79l-0.017,0.031
			l-0.007,0.036l0.001,0.036L15.42,2.92l-0.013,0.024l-0.035,0.013L15.33,2.958h-0.021l-0.033,0.016l-0.019,0.019L15.234,3.03
			l-0.04,0.052l-0.053,0.055l-0.047,0.016l-0.042,0.001L14.99,3.143l-0.02-0.03l0.007-0.03l0.021-0.066l-0.001-0.021l-0.012-0.032
			l-0.035-0.02l-0.005-0.037l-0.001-0.039l0.007-0.105L14.95,2.706l-0.02-0.023l-0.018-0.012h-0.028l-0.023,0.01L14.84,2.702
			L14.813,2.73l-0.021,0.019l-0.018,0.009l-0.041,0.004L14.69,2.766L14.655,2.77l-0.038,0.019l-0.044,0.034l-0.024,0.025
			l0.004,0.024l0.01,0.021l0.034,0.008l0.063,0.011l0.062,0.008l0.051,0.022l0.051,0.038l0.025,0.032l0.008,0.021l-0.003,0.033
			l-0.017,0.045l-0.03,0.049l-0.021,0.021L14.76,3.2l-0.056,0.021l-0.042,0.01l-0.066,0.023l-0.033,0.019l-0.057,0.025l-0.026,0.028
			l-0.04,0.058l-0.022,0.042l-0.036,0.094l-0.028,0.091l-0.011,0.032l-0.003,0.009l-0.066,0.045l-0.057,0.037l-0.057,0.026
			l-0.086,0.004l-0.051-0.016l-0.104-0.021l-0.129-0.005l-0.083-0.021L13.65,3.665l-0.04-0.051l-0.021-0.168l-0.014-0.239
			l-0.022-0.186L13.523,2.92l-0.066-0.118L13.326,2.67l-0.123-0.059l-0.071-0.025l-0.05-0.012l-0.054,0.002l-0.048,0.02
			l-0.053,0.041L12.849,2.7l-0.043,0.041L12.771,2.77l-0.055,0.002L12.675,2.76l-0.033-0.002l-0.053,0.013l-0.08,0.052l-0.303,0.255
			l-0.051,0.051l-0.031,0.043l-0.018,0.057l-0.021,0.085l-0.023,0.085l-0.021,0.068l-0.02,0.036L11.978,3.54l-0.051,0.047
			l-0.098,0.089l-0.062,0.076l-0.063,0.062l-0.052,0.037l-0.068,0.031l-0.102,0.036l-0.061,0.03L11.39,3.974l-0.025,0.057
			l-0.013,0.068l0.015,0.038l0.031,0.056l0.04,0.055l0.015,0.034l0.012,0.045l-0.007,0.042l-0.021,0.05L11.39,4.473l-0.04,0.03
			l-0.048,0.033l-0.106,0.057l-0.049,0.034l-0.044,0.026l-0.03,0.04l-0.009,0.081l-0.005,0.124l-0.019,0.07l-0.029,0.054
			l-0.036,0.033l-0.062,0.031h-0.087l-0.188-0.024l-0.179-0.021l-0.125-0.03L10.29,5.016l-0.049,0.027l-0.02,0.032L10.22,5.11
			l0.016,0.052l0.062,0.089l0.115,0.154l0.138,0.17l0.095,0.141l0.036,0.08l0.042,0.072l-0.004,0.021l-0.002,0.024l-0.021,0.05
			l-0.073,0.091l-0.136,0.15l-0.03,0.047l-0.021,0.061l-0.017,0.071l0.017,0.066l0.024,0.083l0.032,0.055l0.061,0.064l0.036,0.055
			l0.016,0.059l0.004,0.063l-0.009,0.067l-0.046,0.069l-0.051,0.122l-0.038,0.062l-0.031,0.025l-0.064,0.003l-0.076-0.04
			L10.22,7.097l-0.046-0.002l-0.062,0.02L10.098,7.14l-0.014,0.053l-0.015,0.043l-0.032,0.032L10.014,7.29L9.973,7.291L9.919,7.279
			L9.84,7.272L9.792,7.291L9.757,7.328L9.743,7.374l-0.02,0.05L9.71,7.467L9.651,7.525L9.591,7.559L9.514,7.58L9.396,7.613
			L9.332,7.626L9.3,7.645L9.285,7.674l0.002,0.032l0.028,0.026L9.323,7.76L9.315,7.785L9.281,7.832L9.254,7.858L9.227,7.887
			L9.221,7.912L9.215,7.958L9.214,8.015L9.188,8.061l-0.062,0.08L9.03,8.201L8.946,8.243L8.832,8.262l-0.09-0.003l-0.049,0.02
			L8.658,8.316l-0.015,0.04l0.001,0.031l0.034,0.055L8.728,8.5l0.054,0.062l0.011,0.042L8.781,8.643L8.755,8.672L8.695,8.71
			L8.582,8.747L8.525,8.77l-0.02,0.025L8.494,8.817l0.001,0.024l0.016,0.063l0.014,0.08l0.009,0.074L8.524,9.115L8.502,9.151
			L8.416,9.235L8.34,9.284L8.239,9.316l-0.11,0.008L7.996,9.308L7.9,9.294l-0.05,0.002L7.803,9.319L7.756,9.37L7.745,9.406
			L7.744,9.455l0.012,0.056l0.032,0.062l0.04,0.051l0.093,0.053l0.057,0.047l0.019,0.034L8.011,9.8l0.003,0.045l-0.02,0.092
			l-0.021,0.089l-0.012,0.095l-0.029,0.072l-0.028,0.058L7.84,10.345l-0.074,0.077l-0.088,0.105L7.616,10.6l-0.01,0.036l0.01,0.039
			l0.021,0.027l0.057,0.043l0.055,0.029l0.097,0.027l0.042,0.02l0.018,0.016l0.001,0.024l-0.019,0.05l-0.056,0.097l-0.085,0.1
			l-0.062,0.055l-0.071,0.045l-0.052,0.029l-0.078,0.018l-0.057,0.018L7.388,11.3l-0.047,0.052l-0.029,0.055l-0.029,0.047
			l-0.035,0.033l-0.062,0.022l-0.153,0.039L6.87,11.583L6.789,11.6l-0.155,0.014l-0.073,0.018l-0.043,0.033l-0.068,0.091
			l-0.036,0.083l-0.051,0.167l-0.054,0.101l-0.067,0.09l-0.076,0.043l-0.043,0.029l-0.032,0.02L6.076,12.33L6.07,12.383l0.005,0.066
			l0.029,0.039l0.031,0.047l0.003,0.039l-0.006,0.06L6.098,12.73l-0.02,0.015l-0.062-0.009l-0.049,0.002l-0.039,0.027L5.837,12.84
			l-0.031,0.029l-0.031,0.025l-0.058,0.018l-0.103-0.01l-0.108-0.024l-0.098-0.065l-0.087-0.078l-0.03-0.098l0.021-0.117
			l0.031-0.051l0.039-0.016l0.051,0.008l0.044,0.055l0.055,0.079l0.042,0.017l0.058-0.006l0.031-0.029l0.021-0.043l-0.002-0.032
			l-0.007-0.049l-0.03-0.03l-0.053-0.051l-0.048-0.061L5.51,12.227l-0.011-0.119l0.021-0.071l0.063-0.115l0.013-0.06l-0.003-0.039
			l-0.021-0.03l-0.046-0.009l-0.059,0.002l-0.056,0.031L5.29,11.898l-0.088,0.057l-0.076,0.027L4.97,11.993l-0.237,0.01
			l-0.206,0.022l-0.108,0.037l-0.093,0.045l-0.034,0.045l-0.033,0.068l-0.013,0.062l-0.024,0.068l-0.031,0.047l-0.056,0.029
			l-0.031,0.029l-0.033,0.041l-0.025,0.075l-0.031,0.1l-0.063,0.099l-0.025,0.033L3.861,12.82l-0.122,0.02l-0.063,0.018L3.66,12.872
			l-0.016,0.039l0.003,0.053l0.004,0.074l-0.014,0.036L3.606,13.1L3.57,13.126l-0.048,0.03l-0.061,0.017l-0.027,0.029l-0.011,0.021
			l0.008,0.063L3.419,13.35l-0.033,0.067l-0.059,0.062L3.289,13.52l-0.02,0.035l0.009,0.092l0.028,0.069l0.031,0.034l0.041,0.016
			l0.156-0.006l0.202-0.037l0.069-0.017l0.034,0.012L3.87,13.73l0.019,0.043l0.019,0.037L3.9,13.839l-0.027,0.072l-0.027,0.04
			l-0.037,0.058L3.79,14.055l-0.022,0.106l-0.044,0.09l-0.062,0.083L3.576,14.4l-0.097,0.05l-0.022,0.024l-0.025,0.01l-0.03,0.015
			l-0.006,0.112l0.006,0.123l0.04,0.145l0.021,0.062l-0.027,0.08L3.373,15.07l-0.192,0.022l-0.143-0.006l-0.145,0.004l-0.107,0.026
			L2.64,15.163l-0.243,0.093l-0.255,0.092l-0.133,0.035l-0.096-0.004L1.83,15.366l-0.27-0.093l-0.278-0.133l-0.113-0.047
			l-0.017,0.043l-0.045,0.049l-0.075,0.033l-0.063,0.02l-0.11,0.031L0.728,15.3l-0.073,0.029l-0.054,0.028l-0.045,0.066
			l-0.018,0.049l0.004,0.123L0.574,15.7l0.105,0.155l0.172,0.25l0.107,0.228l0.179,0.284l0.127,0.191l0.164,0.188l0.245,0.295
			l0.129,0.167l0.036,0.112l0.019,0.049l0.034,0.099l0.069,0.035l0.064,0.113l0.103,0.14l0.065,0.123l0.126,0.148l0.087,0.102
			l0.116,0.052l0.154,0.078l0.23,0.055l0.072,0.063l0.038,0.046l0.079,0.141L3.14,18.93l0.008,0.086l0.108,0.088l0.128,0.031
			l0.077-0.009l0.062-0.032l0.092-0.136l0.132-0.233l0.118-0.19l0.13-0.112l0.076-0.039l0.049-0.007l0.043,0.022l-0.008,0.152
			l-0.063,0.17l-0.041,0.201l-0.002,0.109l0.038,0.07l0.1,0.01l0.069-0.002l0.104-0.034l0.074-0.052l0.201-0.072l0.077-0.008
			l0.05,0.011l0.052,0.035l0.01,0.06l-0.001,0.008l-0.001,0.004l-0.004,0.03l0.012,0.05l-0.002,0.041l-0.024,0.047l-0.022,0.056
			l0.002,0.03l0.021,0.049l0.053,0.051l0.046,0.021l0.047,0.027l0.08-0.003l0.088-0.026l0.104-0.062l0.185-0.138l0.14-0.141
			l0.062-0.105l0.026-0.137l0.036-0.162l0.035-0.094l0.006-0.062L5.7,18.419l-0.011-0.046L5.688,18.35l0.038-0.039l0.162-0.125
			l0.111-0.098l0.049-0.033l0.058-0.021l0.05-0.001l0.055,0.024l0.064,0.031l0.064,0.043l0.047,0.014l0.084-0.012l0.058-0.018
			l0.036,0.01l0.042,0.025l0.002,0.037l0.02,0.043l0.101,0.08l0.098,0.072l0.037,0.022l0.067,0.001l0.059,0.008l0.024,0.03
			l0.003,0.058l-0.008,0.043l0.011,0.03l0.04,0.063l0.115,0.08l0.042,0.028l0.036,0.015l0.055-0.011l0.052-0.032l0.016-0.039
			l0.034-0.029l0.036-0.008l0.098-0.004l0.062-0.002l0.054-0.003l0.035-0.013l0.021-0.023l0.023-0.056l0.021-0.047l0.047-0.021
			l0.054-0.01l0.043-0.041l0.05-0.052L8,18.328l0.104-0.055l0.062-0.002l0.142,0.049L8.4,18.378l0.062,0.06l0.08,0.069l0.025,0.046
			l0.012,0.057l0.012,0.107l0.03,0.075l0.093,0.126l0.085,0.104l0.065,0.055l0.051,0.04l0.019,0.057l0.021,0.093l0.054,0.069
			l0.062,0.052l0.044,0.066l0.048,0.07l0.031,0.064l0.062,0.07l0.026,0.072l0.046,0.09l0.03,0.061l0.06,0.032l0.077,0.013
			L9.6,19.909l0.151-0.087l0.184-0.104l0.126-0.056l0.15-0.103l0.14-0.166l0.05-0.075l0.083-0.034l0.075-0.021l0.1-0.069l0.064-0.11
			l0.072-0.057l0.106-0.023l0.038-0.027l0.026-0.098l0.075-0.156l0.042-0.063l0.112-0.065l0.104,0.002l0.119-0.006l0.099-0.027
			l0.067-0.055l0.07-0.115l0.06-0.066l0.052-0.029l0.099-0.004l0.104,0.008l0.092,0.034l0.063,0.048l0.091,0.08l0.088,0.055
			l0.078,0.027l0.086,0.016l0.075,0.004l0.091,0.027l0.079,0.043l0.085,0.07l0.059,0.018l0.1,0.006l0.144-0.004l0.115-0.013
			l0.092,0.023l0.1,0.022h0.115l0.146-0.041l0.141-0.078l0.138-0.063l0.088-0.019l0.111-0.021l0.085,0.004l0.125,0.019l0.036,0.017
			l0.128,0.042l0.162,0.062l0.147,0.032l0.124,0.03l0.142,0.003l0.072-0.017l0.079-0.035l0.107-0.062l0.062-0.07l0.059-0.071
			l0.064-0.041l0.069-0.038l0.138-0.055l0.156-0.059l0.101-0.029l0.06-0.014h0.024l0.034,0.008l0.04,0.032l0.029,0.027l0.039,0.017
			l0.056-0.001l0.065-0.032l0.068-0.027l0.111-0.049l0.083-0.01l0.099-0.003l0.119,0.007l0.08-0.012l0.06-0.027l0.138-0.101
			l0.104-0.044l0.167-0.073l0.067-0.024l0.053-0.002l0.032,0.015l0.022,0.022l0.008,0.066l0.01,0.069l0.033,0.047l0.071,0.041
			l0.066,0.03l0.134,0.05l0.188,0.053l0.155,0.03l0.131,0.023l0.043,0.023l0.04,0.053l0.061,0.041l0.074,0.018l0.053-0.008
			l0.017-0.037l-0.012-0.023l-0.024-0.042l-0.047-0.021l-0.04-0.041L18.5,18.275l0.018-0.037l0.034-0.037l0.062-0.053l0.062-0.055
			l0.021-0.05l0.017-0.075l-0.03-0.06l-0.062-0.065l-0.053-0.041l-0.028-0.082l-0.002-0.084l-0.003-0.105l0.021-0.04l0.017-0.013
			l0.07-0.002l0.065-0.01l0.027-0.019l0.003-0.03l0.006-0.048l0.006-0.026l0.023-0.029l0.038-0.024l0.065-0.015l0.061-0.004
			l0.03-0.023l0.041-0.061l0.009-0.047l-0.006-0.086l-0.008-0.105l0.016-0.079l0.035-0.146l0.01-0.129l0.006-0.145l0.031-0.139
			l0.021-0.101l0.016-0.103l0.022-0.148l0.039-0.096l0.051-0.055l0.035-0.028l0.052-0.011l0.042,0.012l0.052,0.029l0.042,0.01
			l0.119-0.002l0.125-0.049l0.062-0.049l0.013-0.041l-0.004-0.031l-0.036-0.034l-0.032-0.056l0.002-0.045l0.025-0.052l0.041-0.043
			l0.102-0.044l0.084-0.001l0.173,0.026l0.189,0.025l0.099,0.014l0.057-0.012l0.076-0.031l0.027-0.022l0.062-0.004l0.053,0.014
			l0.062,0.025l0.021,0.039l0.028,0.099l0.021,0.165l0.021,0.113l0.034,0.077l0.059,0.074l0.071,0.057l0.085,0.025l0.131,0.026
			l0.147-0.003l0.125-0.018l0.11-0.039l0.044-0.041l0.003-0.023l-0.015-0.029l-0.029-0.051l-0.029-0.064l0.01-0.049l0.036-0.08
			l0.036-0.043l0.104-0.028l0.069-0.011l0.062,0.004l0.092,0.025l0.074,0.029l0.058,0.004h0.118l0.117-0.008l0.104,0.007l0.05,0.022
			l0.062,0.025l0.051,0.001l0.104,0.027l1.38,0.498l0.036-0.082l0.581-1.308l0.351-0.793l0.276-0.289l1.003-0.812l0.654-1.707
			l-0.067-0.296l-0.217-0.491l-0.153-0.153L25.81,9.529l-0.076-0.221l-0.106-0.307L25.565,8.25l-0.002-0.021l-0.154-0.961
			L25.36,6.967l-0.002-0.006L25.015,5.95l-0.26-0.586l-0.12-0.259l-0.206-0.446l-0.111-0.176l-0.776-1.226l-0.648-0.98l-0.245-0.378
			l-0.224-0.343L21.99,0.742l-0.104-0.217L21.889,0.522"/>
	</g>
</g>
<g id="Layer_1">
</g>
</svg>
