<?xml version="1.0" encoding="iso-8859-1"?>
<!-- Generator: Adobe Illustrator 16.0.4, SVG Export Plug-In . SVG Version: 6.00 Build 0)  -->
<!DOCTYPE svg PUBLIC "-//W3C//DTD SVG 1.1//EN" "http://www.w3.org/Graphics/SVG/1.1/DTD/svg11.dtd">
<svg version="1.1" xmlns="http://www.w3.org/2000/svg" xmlns:xlink="http://www.w3.org/1999/xlink" x="0px" y="0px"
	 width="57.483px" height="65.919px" viewBox="0 0 57.483 65.919" style="enable-background:new 0 0 57.483 65.919;"
	 xml:space="preserve">
<g id="Layer_64">
	<g id="Layer_69">
		<path id="Rahim_Yar_Khan" style="fill:#CCCCCC;stroke:#FFFFFF;stroke-width:1.07;" d="
			M48.932,1.561L48.932,1.561l-0.223-0.129L47.682,1.02l-0.525-0.172l-0.32-0.162L46.6,0.582l-0.152-0.045l-0.15,0.003L46.16,0.579
			l-0.094,0.099l-0.054,0.098l0.004,0.119l0.006,0.192l0.007,0.265l-0.035,0.254l-0.053,0.049l-0.082,0.039l-0.191,0.016
			L45.24,1.634l-0.306-0.055l-0.221-0.056l-0.25-0.067l-0.181-0.093l-0.194-0.092l-0.125-0.035l-0.19,0.004l-0.138,0.039
			l-0.107,0.062l-0.094,0.135L43.25,2.061L43.177,2.4l-0.086,0.41l-0.153,0.412l-0.286,0.562l-0.285,0.643l-0.145,0.28l-0.116,0.255
			l-0.066,0.062l-0.067,0.062l-0.137,0.025l-0.11-0.01l-0.084-0.07l-0.085-0.094l-0.111-0.082L41.34,4.814l-0.078,0.002
			l-0.108,0.053l-0.12,0.09l-0.132,0.07l-0.133,0.052l-0.121,0.013L40.48,5.088l-0.078,0.001l-0.065,0.021l-0.11,0.041L40.14,5.23
			L40.066,5.35l-0.095,0.245L39.859,5.9l-0.085,0.166l-0.125,0.295l-0.094,0.275l-0.092,0.275L39.42,7.066l-0.039,0.205L39.318,7.4
			l-0.086,0.108l-0.099,0.09L38.97,7.699l-0.241,0.074l-0.409,0.067L37.767,7.97L37.192,8.07l-0.376,0.065L36.64,8.218l-0.098,0.07
			l-0.054,0.079l-0.041,0.107l-0.061,0.225l-0.105,0.589l0.106,0.28l-0.079,0.033l-0.141,0.069l-0.207,0.04l-0.37,0.107
			l-0.369,0.121l-0.378,0.143l-0.314,0.164l-0.189,0.095l-0.234,0.131L33.9,10.618l-0.142,0.104l-0.149,0.154l-0.143,0.154
			l-0.122,0.139l-0.168,0.139l-0.188,0.146l-0.178,0.13l-0.263,0.121l-0.131,0.056l-0.084,0.05l-0.104,0.016l-0.083-0.008
			L32.082,11.8l-0.148-0.041L31.85,11.74l-0.186-0.016l-0.148,0.021l-0.225,0.064l-0.149,0.072l-0.215,0.104l-0.027,0.091
			l-0.001,0.122l0.018,0.105l0.055,0.172l0.092,0.271l0.082,0.262l0.021,0.104l0.02,0.106l-0.003,0.099l-0.036,0.063l-0.065,0.074
			l-0.065,0.04l-0.073,0.023l-0.095,0.008h-0.083l-0.14-0.002l-0.131,0.023l-0.093,0.033l-0.075,0.04l-0.037,0.024l-0.047,0.039
			l-0.01,0.059l-0.038,0.146l-0.029,0.123l-0.028,0.063l-0.047,0.041l-0.064,0.041l-0.131,0.049l-0.104,0.023l-0.177,0.016
			l-0.177,0.031l-0.111,0.008l-0.131-0.002l-0.204-0.024l-0.278-0.05l-0.362-0.092l-0.307-0.102l-0.26-0.058l-0.278-0.06
			l-0.455-0.142l-0.247-0.051l-0.185,0.183l-0.379,0.133l-0.252,0.079l-0.156,0.039l-0.088,0.075L25.64,14.34l-0.177,0.124
			l-0.224,0.241l-0.061,0.107l-0.003,0.103l0.084,0.165l0.157,0.072l0.169,0.09l0.287,0.14l0.333,0.239l0.121,0.082l0.146,0.181
			l0.147,0.172l0.074,0.099l0.258,0.189l0.324,0.214l0.443,0.321l0.176,0.156l0.056,0.099l0.046,0.188l0.036,0.14l0.009,0.176
			l-0.04,0.15l-0.057,0.114l-0.088,0.168l-0.135,0.233l-0.084,0.15l-0.036,0.098l-0.037,0.108l-0.045,0.185l-0.069,0.319
			l-0.072,0.229l-0.106,0.336l-0.146,0.309l-0.091,0.144l-0.123,0.116L26.8,20.39l-0.088,0.025l-0.121,0.016l-0.104-0.019
			l-0.08-0.057l-0.104-0.111l-0.241-0.327l-0.09-0.106l-0.028-0.076l-0.045-0.146l-0.043-0.077l-0.113-0.15l-0.1-0.088l-0.104-0.102
			l-0.082-0.117l-0.069-0.104l-0.071-0.067l-0.117-0.039l-0.105-0.007l-0.242,0.021l-0.41,0.071l-0.308,0.029l-0.31,0.062
			l-0.222,0.057l-0.354,0.074l-0.255,0.09l-0.135,0.065l-0.054,0.054l-0.024,0.055l-0.042,0.064l-0.004,0.051l0.013,0.105
			l0.042,0.084l0.112,0.102l0.288,0.256l0.305,0.344l0.292,0.393l0.224,0.377l0.077,0.16l-0.002,0.092l-0.047,0.142l-0.074,0.126
			l-0.129,0.091l-0.177,0.089l-0.219,0.065l-0.108,0.043l-0.108,0.019l-0.069-0.005h-0.086l-0.133-0.026l-0.117-0.032l-0.113-0.069
			l-0.135-0.078l-0.15-0.066l-0.145-0.053l-0.098-0.024l-0.098-0.007l-0.151,0.027l-0.123,0.035l-0.153,0.064l-0.116,0.043
			l-0.059,0.009l-0.105-0.001l-0.057-0.016l-0.081-0.043l-0.155-0.166l-0.161-0.18l-0.149-0.158l-0.146-0.117l-0.11-0.024
			l-0.064,0.015l-0.082,0.058l-0.026,0.062l-0.013,0.061l0.001,0.074l0.025,0.103l0.042,0.091l0.023,0.062l0.002,0.062l-0.005,0.057
			l-0.035,0.078l-0.064,0.09l-0.104,0.066l-0.102,0.03l-0.137,0.017l-0.143-0.02l-0.093-0.068l-0.11-0.119l-0.1-0.074l-0.062-0.047
			l-0.062-0.023l-0.063-0.004l-0.065,0.033l-0.095,0.104L19.121,21.9l-0.005,0.068l0.003,0.131l0.04,0.115l0.097,0.112l0.185,0.155
			l0.266,0.217l0.256,0.166l0.246,0.178l0.144,0.146l0.114,0.155l0.053,0.13l0.029,0.164l0.021,0.243l-0.023,0.185l-0.102,0.273
			l-0.148,0.266l-0.163,0.25l-0.102,0.111l-0.107,0.104l-0.141,0.078l-0.134,0.072l-0.146,0.041l-0.229,0.022l-0.271,0.02h-0.48
			l-0.277,0.025l-0.342,0.021l-0.358-0.022l-0.252,0.005l-0.158,0.027l-0.244,0.053l-0.229,0.047l-0.241,0.01l-0.346-0.01
			l-0.177,0.001l-0.104,0.036l-0.19,0.082l-0.234,0.109l-0.276,0.188l-0.227,0.172l-0.193,0.199l-0.198,0.181l-0.146,0.146
			l-0.04,0.053l-0.049,0.072l-0.044,0.109l-0.007,0.079l0.007,0.169l0.017,0.15l0.047,0.107l0.118,0.113l0.246,0.104l0.324,0.091
			l0.368,0.079l0.271,0.049l0.248,0.072l0.126,0.102l0.056,0.098l-0.004,0.049l-0.036,0.098l-0.106,0.105l-0.15,0.103l-0.143,0.097
			l-0.211,0.08l-0.163,0.089l-0.144,0.103l-0.156,0.115l-0.07,0.068l-0.123,0.111l-0.119,0.166l-0.135,0.185l-0.094,0.101
			l-0.146,0.134L14.06,29.73l-0.053,0.115l-0.002,0.121l0.023,0.145l0.067,0.114l-0.092,0.048l-0.078,0.045l-0.078,0.074
			l-0.038,0.043l-0.04,0.062l-0.053,0.07l-0.05,0.104l-0.04,0.123l-0.015,0.11l-0.001,0.109l-0.007,0.067l-0.017,0.069l-0.037,0.049
			l-0.054,0.035l-0.069,0.055l-0.147,0.07l-0.095,0.035l-0.04,0.006l-0.068-0.004l-0.131-0.031l-0.115-0.051l-0.181-0.101
			l-0.109-0.082l-0.123-0.087l-0.113-0.102l-0.05-0.039l-0.222-0.157l-0.125-0.093l-0.133-0.065l-0.082-0.026h-0.097l-0.099,0.018
			l-0.186,0.035l-0.055,0.027l-0.101,0.067l-0.046,0.038l-0.062,0.054l-0.038,0.043l-0.04,0.117l-0.007,0.062l0.013,0.053
			l0.019,0.076l-0.004,0.066l-0.011,0.074l-0.052,0.102l-0.05,0.082l-0.076,0.109l-0.062,0.061l-0.074,0.062l-0.082,0.058
			l-0.08,0.039l-0.097,0.03l-0.13,0.028l-0.136,0.037l-0.159,0.049l-0.13,0.065l-0.07,0.044l-0.066,0.066l-0.034,0.061L9.65,32.279
			l-0.015,0.088l-0.004,0.127l0.013,0.138l0.019,0.076l0.004,0.132l0.009,0.095l0.001,0.363l-0.016,0.312l-0.056,0.258l-0.028,0.108
			l-0.031,0.072l-0.028,0.054l-0.038,0.045l-0.061,0.059l-0.102,0.062l-0.175,0.08l-0.163,0.091l-0.138,0.086l-0.141,0.068
			l-0.104,0.057L8.49,34.716l-0.095,0.065l-0.188,0.138l-0.082,0.059l-0.125,0.077l-0.137,0.092l-0.101,0.043l-0.104,0.045
			l-0.072,0.014l-0.104,0.044l-0.097,0.055l-0.16,0.048l-0.19,0.029l-0.159-0.007L6.74,35.395l-0.08-0.021L6.539,35.3l-0.074-0.084
			l-0.18-0.179l-0.122-0.135l-0.114-0.137l-0.145-0.117l-0.146-0.174l-0.072-0.07L5.57,34.311l-0.096-0.08L5.39,34.162l-0.118-0.038
			l-0.095-0.019l-0.091-0.008l-0.113,0.016l-0.059,0.011l-0.055,0.028l-0.024,0.041l-0.02,0.063l0.02,0.11l0.099,0.183l0.127,0.188
			l0.101,0.155l0.062,0.152l0.074,0.168l0.019,0.073l0.005,0.078l-0.028,0.056l-0.04,0.03L5.146,35.49l-0.139,0.025l-0.221-0.031
			L4.62,35.473L4.4,35.471l-0.14,0.051l-0.095,0.035L4.06,35.625l-0.081,0.053l-0.037,0.05L3.912,35.83l-0.023,0.107l-0.022,0.071
			l-0.039,0.067l-0.082,0.111l-0.119,0.139l-0.16,0.133l-0.171,0.115l-0.15,0.084l-0.15,0.059l-0.099,0.018l-0.083-0.002
			l-0.119-0.014l-0.09-0.062l-0.643-0.129l-1.366-0.146l0.004,0.041l0.019,0.034l0.028,0.031l0.067,0.125l0.209,0.269l0.073,0.188
			l0.036,0.067l0.039,0.01l0.062-0.002l0.147,0.019l0.128,0.043l0.375,0.076l0.173,0.049h0.03l0.086-0.029l0.233,0.014l0.065,0.019
			l0.009,0.011l-0.043,0.089l-0.08,0.077l-0.049,0.062l-0.015,0.062l0.001,0.039L2.21,37.73l0.039,0.073l0.026,0.035l0.023,0.003
			l0.032-0.012l0.011-0.115l0.01-0.031l0.02-0.009l0.048,0.003l0.025,0.021l0.02,0.185l0.018,0.049l0.087,0.074l0.012,0.011
			l0.088,0.036l0.164,0.032l0.184-0.026l0.093,0.011l0.043,0.018l0.089,0.104l0.035,0.057l0.022,0.105v0.049l-0.031,0.166
			l-0.004,0.057l0.018,0.068l0.024,0.065l0.126,0.147l0.042,0.108l0.003,0.088l-0.04,0.205l-0.047,0.099l-0.063,0.108l-0.031,0.052
			L3.235,39.64l0.002,0.028l0.036,0.054l0.07,0.052l0.017,0.021L3.26,39.939l-0.025,0.065l-0.094,0.123l-0.013,0.051l0.016,0.084
			l0.001,0.042l-0.069,0.07L3.05,40.418l-0.013,0.138l0.04,0.195l0.033,0.073l0.012,0.025l0.055,0.34l0.041,0.144l0.016,0.141
			l0.023,0.136l0.033,0.084l0.084,0.11l0.076,0.058l0.091,0.043l0.151,0.039l0.144,0.018l0.112-0.01l0.094-0.025l0.042-0.002
			l0.043,0.01l0.013,0.025l-0.013,0.059l-0.075,0.104L3.958,42.24l-0.037,0.052l-0.014,0.032l0.01,0.028l0.142,0.114l0.059,0.077
			l0.015,0.042l-0.007,0.031l-0.137,0.138l-0.027,0.084L3.973,42.9l-0.009,0.041l-0.023,0.09L3.93,43.107l0.042,0.142l0.025,0.049
			l0.064,0.101l0.056,0.084l0.062,0.063l0.185,0.136l0.018,0.045l-0.003,0.085l0.011,0.086l0.039,0.049v0.071l0.031,0.17
			l0.027,0.071l0.039,0.039l0.231,0.234l0.003,0.023l0.028,0.112L4.911,44.8l0.066,0.102l0.03,0.037l-0.022,0.099l-0.146,0.145
			l-0.145,0.209l-0.108,0.101l-0.022,0.064l-0.189,0.094l-0.149,0.289l-0.044,0.138l-0.005,0.09l0.003,0.037l0.022,0.014
			l0.018,0.003l0.022-0.009l0.088-0.147l0.017-0.009l0.072,0.005l0.02,0.014l-0.05,0.179l0.011,0.071l0.125,0.237l0.037,0.101
			l0.034,0.126l0.001,0.127l-0.05,0.242l-0.034,0.158l-0.043,0.171v0.062l0.021,0.044l0.097,0.069l0.736,1.122l0.177,0.215
			l0.095,0.139l0.062,0.085l0.074,0.152l0.071,0.259l0.079,0.16l0.204,0.19l0.604,0.819l0.373,0.454l0.375,0.459l0.274,0.354
			l0.321,0.302l0.348,0.326l0.27,0.229l0.087,0.088l0.205,0.248l0.256,0.271l0.221,0.224l0.169,0.172l0.097,0.137l0.089,0.268
			l0.065,0.17l0.165,0.183l0.139,0.169l0.036,0.047l0.238,0.345l0.16,0.191l0.108,0.081l0.271,0.21l0.771,0.235l0.278,0.068
			l0.376,0.124l0.227,0.193l0.114,0.108l0.188,0.278l0.772,0.65l0.111,0.086l0.291,0.042l0.407,0.186l0.19,0.063l0.284,0.062
			l0.312,0.075l0.564,0.115l0.211,0.014l0.735,0.312l0.23,0.115l0.977,0.488l0.57,0.051l0.284-0.321l0.691-0.784l3.064-1.871
			l0.854-0.626l0.04-0.028l0.788-0.776l0.058-0.062l0.399-0.445l0.038-0.062l0.11-0.186l1.233-1.045l1.765-0.376l0.522-0.095
			l0.463-0.083l0.648-0.188l0.488-0.143l0.805-0.176l0.443-0.025l0.834-0.05l0.491,0.073l0.359,0.054l0.922,0.361l0.42,0.166
			l0.203,0.176l1.299,1.131l1.227,1.121l0.755,0.718l0.593,0.564l0.028,0.039l0.444,0.633l0.031,1.852l0.068,0.445l0.053,0.335
			l0.051,0.229l0.06,0.266l0.362,0.653l0.093,0.165l0.365,0.484l0.117,0.175l0.088,0.131l0.031,0.094l0.056,0.173l0.38,0.601
			l0.021,0.133l0.168,0.183l0.112,0.122l0.053,0.11l0.12,0.251l0.507,0.752l0.562,0.646l0.145,0.219l0.114,0.173l0.192,0.046
			l0.203,0.048l1.521,0.091l0.478,0.052l0.123,0.015l1.073,0.086l0.084,0.006l0.804,0.161l0.825-0.03l0.846-0.203l1.113-0.422
			l1.65-0.679l1.817-0.747l1.301-0.542l1.636-0.682l0.796-0.354l-0.302-1.229l-0.013-0.392l-0.039-0.263l-0.03-0.196l-0.037-0.216
			L56.362,59l-0.052-0.3l-0.022-0.3l0.011-0.221l0.012-0.206l-0.015-0.395l-0.024-0.228l-0.042-0.167l-0.181-0.369l-0.177-0.427
			L55.77,56.17l-0.135-0.45l-0.121-0.402l-0.072-0.377l-0.043-0.372l-0.034-0.283l-0.141-0.467l-0.094-0.435l-0.045-0.257
			l-0.004-0.274l-0.011-0.126l-0.062-0.251l-0.156-0.428l-0.124-0.303l-0.145-0.359l-0.082-0.293l-0.037-0.21l-0.086-0.234
			l-0.165-0.465l-0.129-0.281l-0.054-0.178l-0.043-0.204l-0.021-0.253l-0.032-0.257l-0.062-0.245l-0.072-0.341l-0.078-0.22
			l-0.104-0.234l-0.103-0.203l-0.164-0.254l-0.146-0.227l-0.182-0.248l-0.251-0.353l-0.45-0.588l-0.197-0.354l-0.095-0.281
			l-0.124-0.303l-0.146-0.561l-0.156-0.571l-0.109-0.375l-0.088-0.277l-0.097-0.523l-0.116-0.751l-0.031-0.204l-0.016-0.095
			l-0.028-0.289l-0.002-0.368l0.029-0.34l0.062-0.387l0.035-0.344l-0.006-0.168l0.063-0.523l0.015-0.781l-0.035-0.482l-0.043-0.674
			l-0.112-0.799l-0.048-0.311l-0.07-0.314l-0.142-0.592l-0.155-0.676l-0.059-0.332l-0.125-0.625l-0.089-0.596l-0.029-0.806
			l-0.088-0.534l0.007-0.746l-0.021-0.599l0.11-0.659l0.074-0.72l0.103-0.381l0.292-0.828l0.256-0.851l0.109-0.68l0.062-0.498
			l0.146-0.65l0.12-0.391l0.131-0.342l0.181-0.479l0.143-0.303l0.167-0.336l0.319-0.585l0.432-0.682l0.355-0.57l0.268-0.604
			l0.123-0.326l0.291-0.631l0.118-0.209l0.289-0.686l0.197-0.699l0.056-0.285l0.178-0.791l0.093-0.689l0.044-0.27v-0.252
			L54.9,15.951l-0.06-0.147l-0.095-0.155l-0.104-0.115l-0.104-0.113l-0.185-0.153l-0.067-0.132l-0.014-0.149l0.022-0.095l0.042-0.08
			l0.087-0.064l0.097-0.066l0.309-0.182l0.139-0.131l0.052-0.072l0.016-0.078l-0.023-0.148l-0.066-0.141l-0.088-0.188l-0.115-0.209
			l-0.081-0.281l-0.043-0.196l0.014-0.103l0.062-0.058l0.08-0.063l0.104-0.074l0.061-0.08l0.048-0.176l0.02-0.197l-0.032-0.164
			l-0.039-0.117l-0.085-0.107l-0.11-0.061l-0.179,0.005l-0.144,0.028l-0.099-0.006l-0.102-0.037l-0.049-0.102l-0.007-0.188
			l0.031-0.159l0.041-0.088l0.122-0.104l0.134-0.037l0.169-0.035l0.052-0.049l0.033-0.096l0.04-0.127l0.024-0.072l0.068-0.063
			l0.098-0.06l0.096-0.071l0.053-0.05l0.023-0.104l-0.021-0.117l-0.077-0.146l-0.08-0.22l-0.021-0.148l0.029-0.184l0.139-0.152
			l0.192-0.124l0.229-0.155l0.238-0.115l0.148-0.101l0.086-0.112l0.086-0.104l-0.027-1.098l-0.168-0.989l-0.41-0.476l0.175-0.136
			l0.175-0.135l0.055-0.099l-0.006-0.205l-0.101-0.201l-0.084-0.071L55.59,5.319l-0.165-0.021l-0.302,0.006L54.74,5.371
			l-0.409,0.127l-0.38,0.176l-0.298,0.199l-0.188,0.172l-0.119,0.158L53.15,6.615l-0.325,0.752L52.591,7.89l-0.132,0.219
			l-0.134,0.136L52.23,8.306l-0.109-0.011L51.982,8.25l-0.235-0.115l-0.545-0.352l-0.392-0.316l-0.35-0.247l-0.07-0.07l-0.029-0.12
			l-0.005-0.205l-0.033-0.238l-0.076-0.264l-0.153-0.131l-0.309-0.258l-0.113-0.131l-0.016-0.084l0.021-0.193l0.035-0.253
			l-0.032-0.18l-0.071-0.144l-0.111-0.06l-0.097-0.045l-0.125-0.06l-0.084-0.069l-0.085-0.107L49.089,4.49l0.008-0.24l-0.023-0.131
			l-0.057-0.084l-0.124-0.033l-0.139,0.002l-0.148,0.063l-0.218,0.124l-0.202,0.102l-0.22,0.026l-0.18-0.03L47.744,4.24
			l-0.016-0.072l0.039-0.072L47.927,3.9l0.227-0.293l0.241-0.246l0.228-0.232l0.146-0.194l0.09-0.229l0.089-0.291l0.062-0.277
			l0.033-0.303L49.01,1.643L48.932,1.561"/>
	</g>
</g>
<g id="Layer_1">
</g>
</svg>
