<?xml version="1.0" encoding="iso-8859-1"?>
<!-- Generator: Adobe Illustrator 16.0.4, SVG Export Plug-In . SVG Version: 6.00 Build 0)  -->
<!DOCTYPE svg PUBLIC "-//W3C//DTD SVG 1.1//EN" "http://www.w3.org/Graphics/SVG/1.1/DTD/svg11.dtd">
<svg version="1.1" xmlns="http://www.w3.org/2000/svg" xmlns:xlink="http://www.w3.org/1999/xlink" x="0px" y="0px"
	 width="43.857px" height="31.384px" viewBox="0 0 43.857 31.384" style="enable-background:new 0 0 43.857 31.384;"
	 xml:space="preserve">
<g id="Layer_128">
	<g id="Layer_133">
		<path id="Kasur" style="fill:#CCCCCC;stroke:#FFFFFF;stroke-width:1.07;" d="M0.362,9.967
			L0.362,9.967l0.152,0.098l0.09,0.089l0.074,0.131l0.102,0.156l0.039,0.078l0.079,0.136l0.082,0.099l0.086,0.177l0.108,0.196
			l0.072,0.164l0.039,0.165l0.085,0.127l0.06,0.1l0.013,0.055l-0.011,0.057l-0.05,0.081l-0.1,0.07l-0.189,0.069l-0.149,0.059
			l-0.123,0.065l-0.082,0.083l-0.025,0.079l-0.009,0.084l0.036,0.131l0.065,0.192l0.008,0.083l-0.008,0.085l-0.051,0.073
			L0.698,13.03l-0.02,0.071l0.008,0.083l0.08,0.072l0.307,0.126l0.352,0.109l0.609,0.155l0.528,0.175l0.21,0.07l0.131,0.082
			l0.062,0.073l0.05,0.095l0.032,0.082l0.059,0.171l0.123,0.37l0.145,0.404l0.175,0.311l0.239,0.215l0.269,0.178l0.419,0.126
			l0.163,0.01l0.142,0.012l0.082,0.015l0.02,0.041l0.004,0.035l0.03,0.244l0.041,0.095L4.98,16.54l0.012,0.119l-0.023,0.1
			l-0.093,0.32l-0.111,0.204l-0.115,0.169l-0.095,0.125l-0.056,0.102l-0.014,0.127l0.024,0.097L4.608,18l0.342,0.258l0.391,0.268
			l0.131,0.123l0.033,0.025l0.084,0.062l0.073,0.062l0.096,0.076l0.063,0.032l0.051,0.009l0.044-0.002l0.056-0.016l0.078-0.036
			l0.121-0.062l0.193-0.102l0.293-0.156l0.139-0.053l0.122-0.027l0.124-0.002l0.085,0.012l0.062,0.041l0.082,0.104l0.082,0.119
			l0.121,0.249l0.062,0.124l0.054,0.097l0.271,0.33l0.259,0.318l0.173,0.291l0.174,0.344l0.032,0.105l-0.008,0.096l-0.037,0.088
			l-0.02,0.131l0.017,0.131l0.038,0.125l0.069,0.084l0.064,0.066l0.126,0.089l0.097,0.042l0.271,0.018l0.208-0.004l0.139-0.019
			l0.14-0.038l0.095-0.002l0.132,0.016l0.118,0.055l0.18,0.132l0.113,0.041l0.146,0.001l0.168-0.018l0.226-0.002l0.229,0.016
			l0.158,0.017l0.065-0.002l0.033-0.03l0.017-0.044l-0.003-0.077l-0.009-0.058l0.017-0.054l0.044-0.016l0.106-0.002l0.168,0.016
			l0.188,0.039l0.146,0.035l0.165,0.062l0.205,0.102l0.104,0.07l0.036,0.053l0.015,0.106l-0.031,0.078l-0.044,0.059l-0.009,0.048
			l0.007,0.039l0.02,0.049l0.046,0.047l0.115,0.08l0.166,0.103l0.229,0.135l0.125,0.045l0.164,0.025l0.104,0.014l0.235-0.001
			l0.126,0.016l0.067,0.039l0.041,0.051l0.053,0.072l0.046,0.041l0.104,0.037l0.08,0.051l0.047,0.057l0.024,0.096l0.025,0.102
			l0.035,0.037l0.079,0.019l0.066-0.001l0.055-0.031l0.033-0.033l0.054-0.099L14.59,22.9l0.048-0.079l0.07-0.093l0.049-0.045
			l0.111-0.032l0.146,0.017l0.119,0.035l0.2,0.07l0.046,0.033l0.019,0.027l-0.004,0.078l-0.042,0.098l-0.028,0.117l-0.021,0.112
			l0.018,0.149l0.036,0.11l0.041,0.067l0.029,0.033l0.04,0.013l0.106,0.002l0.057,0.019l0.046,0.037l0.053,0.071l0.037,0.091
			l0.031,0.096l0.035,0.062l0.058,0.057l0.284,0.114l0.373,0.073l0.168,0.016l0.291-0.031l0.252-0.024l0.112,0.007l0.062,0.027
			l0.081,0.066l0.047,0.062l0.031,0.065l0.174,0.334l0.125,0.25l0.038,0.148l-0.007,0.135l-0.035,0.107l-0.092,0.133l-0.074,0.157
			l-0.008,0.102l0.025,0.071l0.04,0.048l0.062,0.037l0.103,0.046l0.089,0.039l0.354,0.214l0.148,0.112l0.069,0.081l0.031,0.106
			l0.004,0.11l0.008,0.062l0.013,0.043l0.047,0.053l0.045,0.037l0.2,0.117l0.326,0.205l0.113,0.08l0.076,0.086l0.041,0.09
			l0.021,0.098l0.021,0.309l0.063,0.26l0.072,0.153l0.07,0.101l0.092,0.095l0.059,0.047l0.092,0.051l0.051,0.023l0.091,0.013
			l0.102,0.012l0.057,0.02l0.046,0.033l0.029,0.048l0.025,0.096l0.004,0.14l-0.018,0.199l0.021,0.092l0.029,0.057l0.045,0.033
			l0.053,0.033l0.118,0.035l0.112,0.045l0.08,0.062l0.116,0.123l0.053,0.07l0.097,0.188l0.055,0.107L21.198,30l0.051,0.041
			l0.074,0.043l0.035,0.399l0.099,0.131l0.592-0.491l0.301-0.25l0.121,0.004l0.189-0.221l0.255-0.295l0.471-0.686l0.574-0.826
			l0.265-0.299l0.157-0.178l0.367-0.105l0.102-0.008l0.439-0.028l0.594-0.351l0.172,0.032l0.301,0.056l0.041-0.018l0.004-0.001
			l0.008-0.003l0.037-0.016l0.021-0.141l0.006-0.039l-0.362-0.361l-0.31-0.797l-0.043-0.059l-0.126-0.173l0.001-0.002l0.115-0.194
			h0.633h0.304l0.36-0.24l0.141-0.273l-0.209-0.395l0.152-0.317l0.094-0.192l0.25-0.296l0.482-0.573l0.062-0.656l0.159-0.105
			l0.077-0.051h0.464l0.315-0.212l0.295,0.103l0.006,0.002l0.309,0.166l0.178,0.004l0.312-0.25l0.06-0.047l-0.028-0.255l-0.005-0.05
			l-0.082-0.111l-0.29-0.393l-0.015-0.286l0.03-0.05l0.121-0.204l0.357-0.138l0.09-0.033l0.085-0.028l0.183-0.062l0.513-0.492
			l0.742-0.117l0.133,0.014l0.129-0.236l0.027-0.268l0.034-0.32l0.33-0.354l0.736-0.603l0.746-0.524l0.044-0.015l0.102-0.03
			l0.062-0.076l0.053-0.063l0.603-0.187l0.265,0.044l0.446,0.191l0.52-0.235l0.12-0.055l0.666-0.451l0.101-0.057l0.236-0.135
			l0.28-0.232l-0.163-0.67l-0.008-0.167l-0.007-0.09l0.385-1.971l0.08-0.08l0.125-0.125l0.554,0.004l0.392,0.29l0.473,0.35
			l0.1,0.119l0.104,0.124l0.173,0.164l0.147,0.14l0.526,0.479l0.38,0.209l0.259,0.026l0.248,0.024l0.417-0.238l0.102-0.74
			l0.117-0.204l0.083-0.144l0.107-0.066l0.129-0.08l0.288-0.004l0.453-0.006l0.104-0.085l0.136-0.109l0.06-0.151l-0.05-0.147
			l-0.087-0.259l-0.066-0.159l-0.139-0.329L42.667,11.6l-0.018-0.033l-0.057-0.051l-0.249-0.224l-0.57-0.24l-0.574-0.102
			l-0.803-0.172l-0.553-0.013l-0.556,0.416l-0.211,0.031l-0.178,0.026l-0.07-0.019l-0.238-0.064l-0.412-0.229l-0.188-0.182
			l-0.144-0.14l-0.451-0.43l-0.015-0.03l-0.01-0.022l-0.023-0.051l-0.347-0.753L36.913,8.83L36.89,8.688l0.021-1.019l0.148-0.482
			l0.616-1.975L37.72,4.87l-0.021-0.075l-0.04-0.136l-0.054-1.086L37.6,3.482l0.717-1.664l0.001-0.002l0.012-0.05l0.005-0.022
			l0.007-0.028l0.064-0.151l0.067-0.154l-1.38-0.498l-0.105-0.027l-0.05-0.001l-0.063-0.026l-0.05-0.022L36.721,0.83l-0.117,0.008
			h-0.119l-0.057-0.004l-0.074-0.029L36.262,0.78l-0.063-0.004l-0.068,0.01l-0.105,0.029l-0.036,0.043l-0.036,0.08l-0.01,0.048
			l0.03,0.065l0.028,0.05l0.016,0.03l-0.003,0.024l-0.044,0.04l-0.111,0.039l-0.125,0.018l-0.146,0.003l-0.132-0.027L35.37,1.203
			L35.3,1.147l-0.06-0.074l-0.034-0.078l-0.021-0.113l-0.021-0.165l-0.027-0.099l-0.021-0.039l-0.062-0.025L35,0.54l-0.062,0.004
			l-0.027,0.022l-0.076,0.032l-0.057,0.011l-0.098-0.013L34.49,0.57l-0.173-0.026l-0.084,0.001l-0.101,0.044l-0.041,0.043
			l-0.026,0.051l-0.002,0.045l0.033,0.056l0.036,0.035l0.004,0.03l-0.014,0.042L34.062,0.94l-0.125,0.048l-0.119,0.003L33.775,0.98
			l-0.051-0.029L33.683,0.94l-0.052,0.01l-0.035,0.028l-0.052,0.055l-0.038,0.096l-0.023,0.148L33.468,1.38l-0.021,0.1l-0.031,0.139
			l-0.006,0.145l-0.01,0.129l-0.035,0.145L33.35,2.117l0.007,0.105l0.006,0.087l-0.009,0.046l-0.041,0.061l-0.03,0.024l-0.06,0.004
			l-0.066,0.014l-0.038,0.025l-0.022,0.028L33.09,2.539l-0.007,0.048l-0.003,0.03l-0.026,0.019l-0.066,0.01l-0.07,0.002L32.9,2.659
			l-0.02,0.04l0.003,0.105l0.002,0.084l0.027,0.083l0.054,0.041l0.062,0.065l0.03,0.059l-0.017,0.076l-0.021,0.049l-0.062,0.056
			L32.896,3.37l-0.034,0.037l-0.017,0.037l0.013,0.074l0.04,0.042l0.047,0.02l0.025,0.042l0.011,0.024l-0.016,0.036l-0.054,0.008
			l-0.073-0.017l-0.062-0.041l-0.04-0.053l-0.043-0.023l-0.131-0.024l-0.155-0.03l-0.188-0.053l-0.134-0.049L32.02,3.368
			l-0.071-0.041L31.915,3.28l-0.01-0.069l-0.008-0.066l-0.021-0.023l-0.032-0.014l-0.053,0.001l-0.068,0.025l-0.167,0.073
			l-0.104,0.044l-0.138,0.1l-0.059,0.028l-0.08,0.011l-0.119-0.006l-0.1,0.002l-0.082,0.011l-0.111,0.048l-0.069,0.028l-0.064,0.032
			l-0.057,0.001l-0.039-0.017l-0.028-0.027l-0.04-0.032L30.43,3.422h-0.024l-0.059,0.014l-0.102,0.029L30.09,3.523l-0.139,0.055
			l-0.068,0.038l-0.065,0.041L29.76,3.729l-0.063,0.071L29.59,3.861l-0.079,0.035l-0.073,0.017L29.297,3.91l-0.124-0.03
			l-0.148-0.033l-0.162-0.062l-0.128-0.042l-0.036-0.017l-0.125-0.018l-0.085-0.004l-0.11,0.02L28.29,3.743l-0.139,0.063
			l-0.14,0.079l-0.146,0.04l-0.114,0.001L27.65,3.903L27.559,3.88l-0.115,0.012l-0.143,0.005L27.2,3.891l-0.059-0.017l-0.085-0.07
			L26.978,3.76l-0.09-0.027l-0.076-0.004l-0.086-0.016l-0.078-0.028L26.56,3.631L26.47,3.55l-0.064-0.047l-0.092-0.035L26.21,3.461
			l-0.1,0.004l-0.052,0.029l-0.06,0.067L25.93,3.675l-0.068,0.056l-0.098,0.027l-0.12,0.005L25.54,3.761l-0.111,0.066l-0.042,0.063
			l-0.076,0.157l-0.026,0.097l-0.038,0.028l-0.105,0.023l-0.073,0.057l-0.064,0.11l-0.1,0.069l-0.075,0.022l-0.083,0.034
			l-0.05,0.075l-0.139,0.167l-0.151,0.102l-0.126,0.055L24.097,4.99l-0.152,0.087L23.84,5.093l-0.077-0.012l-0.061-0.032
			l-0.029-0.061l-0.047-0.09l-0.025-0.072l-0.062-0.07l-0.03-0.064L23.46,4.622l-0.045-0.067l-0.062-0.051l-0.053-0.07l-0.022-0.092
			l-0.018-0.057l-0.051-0.04l-0.066-0.055l-0.085-0.103L22.967,3.96l-0.031-0.076l-0.011-0.107L22.912,3.72l-0.024-0.045l-0.08-0.07
			l-0.062-0.059l-0.093-0.058L22.512,3.44l-0.062,0.002l-0.104,0.054l-0.048,0.044l-0.051,0.052l-0.043,0.041L22.15,3.643
			l-0.047,0.021L22.082,3.71L22.06,3.765L22.038,3.79l-0.035,0.013l-0.054,0.002l-0.062,0.002l-0.099,0.004l-0.036,0.009
			L21.72,3.847l-0.017,0.039l-0.052,0.033l-0.054,0.01l-0.036-0.014L21.52,3.886l-0.116-0.08l-0.04-0.063l-0.01-0.03L21.36,3.67
			l-0.003-0.058l-0.024-0.03l-0.059-0.008l-0.067-0.001L21.17,3.551l-0.098-0.072l-0.1-0.081l-0.021-0.042L20.95,3.318l-0.042-0.025
			l-0.036-0.01l-0.058,0.018L20.73,3.312l-0.046-0.013l-0.065-0.043l-0.063-0.032L20.5,3.2l-0.05,0.001l-0.057,0.021l-0.049,0.034
			l-0.111,0.097L20.07,3.479l-0.038,0.04l0.002,0.023l0.011,0.046l0.013,0.115l-0.006,0.062l-0.035,0.094L19.98,4.021l-0.027,0.136
			l-0.062,0.106l-0.141,0.14l-0.185,0.138l-0.104,0.062l-0.088,0.026l-0.08,0.003l-0.047-0.028l-0.046-0.021l-0.052-0.051
			l-0.021-0.049l-0.002-0.03l0.023-0.055l0.023-0.047l0.002-0.042l-0.012-0.049l0.004-0.031l0.001-0.003l0.001-0.008l-0.01-0.06
			l-0.051-0.035l-0.05-0.011l-0.077,0.008L18.78,4.192l-0.075,0.051l-0.104,0.034l-0.07,0.002l-0.099-0.009l-0.038-0.071
			l0.002-0.109l0.041-0.201L18.5,3.718l0.008-0.151l-0.043-0.023l-0.049,0.007L18.34,3.59l-0.13,0.112l-0.118,0.191L17.96,4.126
			l-0.092,0.136l-0.062,0.032l-0.076,0.009l-0.129-0.032l-0.108-0.087l-0.007-0.087l-0.043-0.114l-0.079-0.141l-0.038-0.046
			l-0.073-0.063l-0.229-0.055L16.868,3.6l-0.117-0.051l-0.087-0.102l-0.126-0.148l-0.065-0.123l-0.103-0.14l-0.064-0.113
			l-0.068-0.036l-0.035-0.098L16.18,2.777l-0.105-0.012L15.762,2.74L15.59,2.751l-0.077,0.033l-0.057,0.063l-0.037,0.098
			l-0.065,0.073l-0.078,0.039l-0.147,0.023l-0.103-0.023l-0.073-0.048l-0.18-0.06l-0.145-0.034l-0.184-0.003l-0.14,0.024
			l-0.092,0.08l-0.047,0.059L13.99,3.192l-0.16,0.114l-0.177,0.117l-0.158,0.083l-0.18,0.035l-0.203,0.017l-0.225-0.014L12.606,3.53
			l-0.203,0.017l-0.196,0.035l-0.099,0.034l-0.073,0.046l-0.054,0.057l-0.062,0.1l-0.084,0.082l-0.099,0.06l-0.089,0.023
			l-0.05,0.064L11.6,4.143l-0.034,0.062l-0.087,0.043l-0.184,0.046l-0.258,0.048l-0.139,0.044L10.837,4.44l-0.024,0.083l0.022,0.112
			l0.07,0.104l0.117,0.096l0.197,0.121l0.108,0.075l0.029,0.095l-0.005,0.062l-0.04,0.061l-0.117,0.093l-0.204,0.104l-0.07,0.06
			L10.9,5.577l-0.019,0.109l-0.005,0.106L10.851,5.88l-0.085,0.106l-0.144,0.106l-0.2,0.124l-0.153,0.072l-0.121,0.035l-0.089-0.02
			L9.987,6.25L9.921,6.204L9.849,6.18L9.796,6.182L9.661,6.213L9.516,6.236L9.287,6.284L9.132,6.337L8.995,6.375l-0.161,0.07
			L8.686,6.524L8.561,6.546L8.445,6.521L8.361,6.482L8.268,6.43L8.21,6.422L8.148,6.434L8.07,6.473L7.954,6.526L7.854,6.61
			L7.679,6.728L7.56,6.757L7.494,6.755L7.425,6.72L7.338,6.594L7.24,6.509L7.073,6.408L6.95,6.355L6.904,6.363L6.85,6.42
			L6.844,6.488L6.777,6.605L6.644,6.708L6.459,6.804L6.261,6.878L6.137,6.9L5.952,6.902l-0.15-0.01L5.696,6.925L5.62,6.958
			L5.543,7.017L5.415,7.101L5.3,7.168L5.196,7.214L5.05,7.237L4.944,7.226L4.847,7.234L4.735,7.259L4.643,7.301L4.521,7.362
			L4.383,7.425L4.248,7.482L4.114,7.56L4.043,7.6l-0.03,0.075L4.011,7.768L3.995,7.89L3.959,8.007L3.9,8.102L3.859,8.187
			L3.842,8.291l0.012,0.084L3.828,8.458L3.762,8.53L3.63,8.626L3.4,8.756l-0.22,0.114l-0.13,0.04L2.953,8.895l-0.078-0.03
			L2.792,8.776L2.68,8.663L2.568,8.529L2.472,8.483L2.396,8.498L2.32,8.549L2.194,8.672L2.134,8.797L2.076,8.961L1.959,9.104
			L1.785,9.311l-0.2,0.187L1.411,9.608L1.24,9.689L1.137,9.735L1.022,9.729L0.971,9.705L0.882,9.66l-0.09-0.064L0.707,9.539
			L0.665,9.555L0.632,9.591L0.604,9.661L0.576,9.754L0.476,9.863L0.362,9.967"/>
	</g>
</g>
<g id="Layer_1">
</g>
</svg>
