<?xml version="1.0" encoding="utf-8"?>
<!-- Generator: Adobe Illustrator 16.0.4, SVG Export Plug-In . SVG Version: 6.00 Build 0)  -->
<!DOCTYPE svg PUBLIC "-//W3C//DTD SVG 1.1//EN" "http://www.w3.org/Graphics/SVG/1.1/DTD/svg11.dtd">
<svg version="1.1" id="Layer_1" xmlns="http://www.w3.org/2000/svg" xmlns:xlink="http://www.w3.org/1999/xlink" x="0px" y="0px"
	 width="301.091px" height="394.87px" viewBox="-140.078 -183.867 301.091 394.87"
	 style="enable-background:new -140.078 -183.867 301.091 394.87;" xml:space="preserve">
<g id="Layer_112">
	<path id="Shangla" style="fill:#CCCCCC;stroke:#FFFFFF;stroke-width:1.15;" d="M-12.681,201.355L-12.681,201.355l1.87,0.257
		l3.325,0.471l6.422,0.914l1.428,0.328l0.428,0.457l1.285,0.1l1.513,0.014l2.583-0.299l1.242-0.4l1.356-1.483l1.227-0.542
		l1.484-0.843l0.6-0.328l0.742-1.884h0.07l1.385-0.542h0.016l1.684-0.314l0.084,0.086l1.158,0.942l1.74,1.769l0.898,1.171
		l0.914,0.186l1.113,0.228l1.1-0.685l0.984-0.756l1.297-0.828l1.129-0.629l2.17-0.998l1.213-0.885l1.525-1.057l1.715-1.727
		l1.625-1.413l0.115-0.028l0.285-0.356l1.213-1.498l1.17-1.313l0.715-1.057l0.57-1.17l0.4-0.742l0.199-0.343l0.414-1.313
		l0.229-3.396v-0.229l-0.301-1.983l-0.312-1.255l-0.672-0.986l-1.07-1.141l-1.014-1.342l-0.984-1.355l-0.342-0.543l-0.172-0.114
		l-1.156-1.556l-1.014-1.441l-1.07-1.342l-0.869-0.927l-1.385-1.271l-1.514-1.057l-1.07-0.257l-1.598-0.385l-1.385-0.129
		l-1.398-0.627l-1.129-0.828l-2.867-3.625l-0.186-0.343l-0.314-0.6l-0.455-1.013l-0.645-1.613l-0.471-1.312l-0.312-1.312
		l0.027-1.214l0.814-1.042l2.184-1.455l2.141-1.513l1.1-0.914l1.598-1.541l1.084-1.342l0.898-1.327l0.9-1.398l0.541-1.142
		l0.814-1.513l0.914-1.698l0.77-1.585l0.729-1.47l0.627-1.67l0.543-1.684l0.043-0.114l0.385-1.642l0.371-1.556l0.314-1.47
		l0.285-0.742l0.557-2.483l-0.67-2.497l-1.57-3.554l-1.227-1.113l-0.016-0.043l-1.383-1.413l-0.842-1.327l-0.314-1.77l-0.229-1.783
		l0.057-1.784l0.299-1.514l0.486-2.298l0.27-1.641l0.301-1.584l0.67-1.927l0.5-1.327l0.643-1.171l0.857-1.327l0.086-0.128
		l1.127-1.827l1.012-1.698l0.914-1.299l0.115-0.186l0.07-0.085l0.941-2.884l0.414-3.011l0.244-2.911l0.285-1.499l1.127-1.855
		l1.355-2.27l1.471-2.269l0.143-0.229l0.043-0.029l0.213-0.313l0.43-0.242l1.297-1.085l1.172-1.527l2.555-4.11l1.584-2.512
		l0.598-0.542l0.457-0.414l3.311-0.699l2.641-0.085l1.613,0.057h0.186h1.428l1.512-0.057l1.941,0.028l2.955,0.128l2.939,0.143
		l1.799,0.314l2.811,0.828l2.127,0.485l2.926,0.513l0.414,0.129l0.285,0.028l2.312,0.414l4.381,0.898l2.826,0.301l1.525,0.057
		l1.057-0.085l2.627-0.4l1.227-0.799l3.781-2.397l1.941-0.6l3.525-0.999l1.355-0.328l1.371-0.429l0.484-0.257l0.957-1.171
		l0.443-0.541l-0.473-2.541l-0.299-6.022l0.686-1.771l0.199-1.555l1.299-2.512l0.656-1.156l0.941-1.428l3.041-1.227l0.898-0.057
		l2.682,0.356l2.471-0.385l2.627-2.085l1.812,0.015l2.139-0.628l1.371-0.799l1.242-0.971l1.283-0.999l1.1-0.856l1.883-0.799
		l0.887-0.386l0.514-0.085l1.783,0.313l1.527,0.799l1.426,0.571l2.057,0.542l1.283,0.028l2.74-0.356l3.354,0.471l2.441-2.954
		l1.514-1.912l0.598-1.556l0.473-1.37l1.227-1.113l0.014-2.754l-0.299-1.413l-1.514-3.068l0.016-1.271l-1.129-2.255l-1.984-0.442
		l-4.666-1.042l-3.125-0.157l-2.369-0.229l-5.752-0.785l-1.197-0.385l-1.914-0.628l-3.967-1.784l-2.17-1.869l-0.443-1.213
		l-1.611-1.57l-1.756-1.713l-1.17-0.428l-2.127-0.828l-1.326-0.471l0,0l-2.141-0.785l-0.43,0.114l-0.199-0.014l-1.156-0.114
		l-2.768-0.071l-2.113-1.37l-1.77,0.613l-2.127-0.613l-0.555,0.627h-0.473l-2.369-2.24L99.75-4.757l-3.268-1.47l-1.783-0.729
		l-1.457,0.929l-2.969-0.3L88.818-6.94l-1.512-0.885l-1.242-0.643l-1.527-0.057l-0.371-0.257l-2.141-0.913l-3.211-1.299
		l-1.799-0.057l-0.314-0.072l-1.727-0.385l-1.541-0.215l-1.727-0.557l-2.127-1.327l-0.6-1.498l-0.113-0.928l0.172-1.884l0.457-1.385
		l0.584-1.655l0.656-1.27l0.898-1.186l1-1.17l1.342-1.427l1.541-1.327l1.041-0.757l0.514-1.327l0.457-1.156l0.043-0.086L77.9-32.6
		l0.6-1.685l0.801-1.155l0.014-0.186l0.184-1.812l-0.057-2.298l0.029-1.242l-0.029-1.412l0.057-0.828l0.059-0.499l0.043-1.527
		l0.127-0.471l0.787-1.827l1.141-1.07l2.297-1.385l1.258-0.685l1.455-0.729l1.512-0.728l1.172-0.628l0.941-0.785l0.455-0.927
		l0.371-0.828l0.131-1.428v-0.028l0.428-1.185l0.17-0.356l1.527-1.684l0.957-1.313l0.014-0.029l-0.014-0.014l-0.885-1.313
		l-1.129,0.043L91.674-62.5l-0.271-0.014l-1.057-0.043l-1.969-0.215l-3.041-0.812l-2.396-1.656l-0.201-0.128l-1.512-1.884
		l-1.955-1.256l-1.727-0.343l-0.102-0.015l-1.926-0.113l-2.141,0.398l-1.07,0.2l-3.953,0.614l-0.242,0.028l-1.143,0.057
		l-0.941,0.043l-3.969,0.742l-4.523,0.828l-3.896,0.699l-1.754-0.028l-0.314-0.058l-3.955-1.185l-1.625-0.613l-1.014-0.614
		l-1.514-1.341l-1.299-1.143l-1.342-1.298l-0.941-1.142l-1.07-1.285L36.855-76.4l-0.186-1.156l-0.314-1.513l0.129-0.442l-0.07-0.1
		l0.256-1.398l0,0l-0.156-1.441l0.143-1.171l0.441-1.641l0.6-2.041l0.113-1.342l-0.184-0.542l-0.172-1.584l-0.057-0.2l-0.072-1.812
		l-0.057-2.555l-0.928-2.526l-0.842-2.568l-1.285-2.241l-0.912-1.127l-1.557-2.184l-0.871-1.556l-1.156-1.527l-0.471-0.257
		l-1.055-0.528l-2.412-1.312l-1.471-1.655l-0.584-0.871l-0.072-0.086l0.186-1.256l0.242-1.569l0.314-1.199l0.67-2.469l-0.27-1.827
		l-0.328-1.213l-0.314-1.398l-0.9-1.727l-2.125-1.513l0.713-1.113l0.199-0.028l0.971-0.629l0.229-0.228l0.914-1.285l-0.557-2.012
		l-0.242-0.828l-0.914-2.24l-0.457-1.328l-0.344-1.427v-0.1l0.314-1.085l0.43-0.984l0.312-0.585l1.941-1.47l1.785-1.984l1.027-1.228
		l-1.656-0.87l-1.598-1.941l-0.943-1.07l-1.055-0.656l-0.387-0.429l-1.441-1.598l-0.07-0.129l0.113-0.856l-0.014-0.484l-0.043-1.913
		l-0.627-1.641l-2.312-1.642l-1.684-1.128l-0.887-0.471l-1.641,0.328l-1.541,0.714l-1.484,0.428l-1.042-0.313l-3.026-0.871
		l-0.313-0.043l-1.071-0.685l-0.4-0.557l-0.728-1.912l0.086-2.056l-0.114-0.199l-0.643-1.428l-1.47-2.169l0.043-0.257l0.243-1.213
		l-0.614-1.513l-1.441-0.515l-1.984-0.399l-2.041-0.527l-2.241-1.028l-1.584-0.299l-1.37,0.527l-1.741-0.386l-1.755-0.741
		l-1.884-0.314l-1.798,0.871l-1.37,0.956l-1.228,0.956l-0.756,1.027l-1.556,1.841l-1.17,1.1l-0.956,0.885l-1.028,0.771l-1.926,0.6
		l-3.097,0.414l-1.07,0.77l-0.043,1.3l0.086,1.798l-1.128,1.698l0.714,2.454l0.842,2.056l-0.128,1.698l-0.186,1.256l-0.029,1.698
		l-0.128,1.599l-0.942,1.642l-0.913,1.284l-0.5,1.242l-0.542,1.513l-0.556,1.27l-0.942,0.871l-2.041-0.129l-2.64,0.101l-1.185,0.585
		l-0.97,0.941l-0.913,0.856l-1.128,0.813l-0.585,1.113l-0.799,2.312l-0.457,2.74l-0.314,1.199l-0.428,1.484l-0.442,1.556
		l-0.799,1.998l-0.785,1.17l-3.696,2.155l-1.47,0.442l-1.741,1.027l-2.184,1.142l-1.527,0.386l-1.969-0.071l-1.228-0.186
		l-2.326-1.085l-1.784,0.528l-1.727,1.427l-0.985,0.886l-1.013,0.741l-1.471,0.8l-1.084,0.484l-2.141,0.357l-1.627,0.785
		l-1.042,3.567l-0.814,1.77l-1.013,1.855l-0.528,1.799l0.214,2.055l-2.126,1.027l-1.142,0.643l-1.641,1.612l-1.428,1.984
		l-0.884,1.37l-0.814,1.27l-0.699,1.299l-1.028,2.112l-0.314,2.298l-0.242,3.439l-1.213-0.6l-2.026-0.028l-1.998,0.186l-1.27-0.328
		l-2.769-0.314l-1.67,0.571l-1.199,1.042l-1.541,1.112l-1.313,0.8l0.699,1.441l0.856,2.141l0.214,1.484l0.257,1.441l-0.171,1.642
		l-0.728,1.541l-0.699,1.142l-0.657,2.026l0.657,1.513l0.856,1.213l0.899,1.642l0.813,1.484l1.17,1.242l1.199,1.256l1.613,1.483
		l1.527,1.613l1.27,1.241l1.513,1.57l1.341,1.355l1.17,1.784l-0.813,0.971l-1.927,2.112l-0.371,1.47l-0.028,2.54l0.271,1.798
		l-0.014,1.812l-1.213,1.784l-0.928,0.999l-1.198,1.456l-0.3,2.084l-0.057,1.299l-0.243,1.841l-0.257,2.169l-0.328,1.527
		l-0.171,2.069l-0.143,1.756l0.071,1.983l0.428,1.755l1.114,2.227l0.756,1.756l0.885,1.727l0.414,1.898l-0.257,1.599l-0.071,2.854
		l-0.214,1.242l-0.114,1.228l-0.128,1.227v1.642l0.214,2.198l0.5,1.427l0.1,1.484l-1.398,1.784l-1.113,0.971l-0.914,1.412
		l-0.356,1.655l-0.728,2.998l-1.013,1.47l-0.785,1.398l-0.657,1.527l-0.685,1.555l0.143,2.484l0.584,1.313l1.527,2.439l0.414,2.24
		l-0.942,1.413l-0.542,1.085l-0.229,1.271l0.485,1.27l0.799,1.386l0.885,1.612l0.128,1.569l-0.871,1.855l-0.828,1.627l-0.657,1.513
		l0.214,1.541l-0.014,1.827l-0.757,1.74l-0.67,1.514l-0.785,1.855l-1.013,2.112l-0.571,1.584l-0.628,1.812l-0.457,1.428
		l-0.457,1.412l-0.3,1.185l-0.042,1.355l0.2,2.055l-0.828,2.127l-0.528,1.799l0.571,1.784l0.828,1.812l1.127,1.983l0.3,0.414
		l0.771,0.955l-0.043,1.898l-0.385,1.913l-2.869,0.813l-1.741,0.5l-1.87,0.827l-1.456,0.514l-2.012,0.942l-1.527,1.969l-0.228,1.47
		l0.043,2.669l-0.842,1.971l-0.714,1.026l-1.327,1.285l-0.899,1.099l-1.527,1.685l-1.413,0.613l-0.985,0.656l-0.742,1.07
		l-0.799,0.999l-1.428,1.028l-0.913,1.112l-1.527,1.771l-1.299,1.255l-1.127,1.313l-0.357,0.656l-0.585,1.028l-0.528,1.483
		l-0.014,0.029l-0.186,0.399l0.171,0.984l0.028,1.513l0.3,1.655l0.057,0.742l-0.114,1.784l0.656,2.569l0.571,0.97l0.685,1.542
		l0.157,0.328l0.47,1.171l0.942,2.055l0.828,1.555l0.057,0.144l0.771,1.427l1.084,0.686l1.114,0.571l0.456,0.057l0.8,0.271
		l2.041-0.372l2.455-0.228l1.698,0.414l0,0l0.899,0.484l0.314,0.2l1.584,1.841l0.842,1.228l0.813,1.085l0.442,0.457l0,0l0.4,0.413
		l1.013,0.842l0.928,0.843l0.542,1.213l0.471,1.17l0.314,1.228l0.3,1.113l0.357,2.483l0.385,1.441l0.314,0.885l0,0l0.143,0.571
		l0.014,0.057l1.341,2.013l1.67,1.099l1.271,0.156l1.612-0.213l1.627-0.714l1.37-0.771l0.3-0.128l1.97-0.771l3.596-0.657l2.426-0.6
		l2.012-0.97l2.74-1.783l2.155-0.758l1.926-0.171l2.74,0.243l3.083,0.014l1.456,0.2l4.167-0.028l1.428-0.114l0.456,0.015
		l2.469-0.215l0.728-0.058l2.226,0.029l0.229-0.114l-0.043-0.1h0.271h0.129l1.812-0.956l1.141-1.085l1.142-1.826l-2.126-1.199
		l-1.256-1.428l-0.014-1.013l0.014-0.157l0.399-1.014l0.628-0.57l0.514-0.342l0.214-0.314l0,0l0.328-0.301l0.071-0.271l0.571-0.813
		l0.243-2.269l1.984-1.015l2.298-0.156l1.513-0.229l1.613-0.585l1.199-0.285l2.512-0.558l1.228-0.398l1.341-0.571l1.028-0.643
		l1.099-0.728l0.485-0.271l2.583-1.285l1.641-0.1l0.942,0.613l0.871,0.771h0.299l0.828,0.313l1.984,0.058l2.811-0.586l1.884-0.242
		l0.314-0.043l1.384,0.557l0.114,0.286l0.4,1.512l0.528,2.056h0.014l0.171,0.627l1.556-0.156l0.813-0.086l1.812-1.013l0,0
		l1.755-0.429l2.455,0.886l0.657,0.984l0.328,0.6v0.014l0.313,0.756l-1.712,1.214l-0.585,0.242l0,0l-0.557,0.243l-0.6,1.099
		l1.584,1.513l-0.913,0.5h-2.041l-0.171-0.028l-1.313-0.044l-0.3,2.312l-0.742,1.441l-1.77,1.97l-1.527,1.513l-1.698,2.155
		l-0.742,1.271l-0.7,1.483l-0.856,2.541l0.257,1.27l0.257,2.369l-0.042,1.556l-0.186,1.884l-0.329,1.342l0.414,2.341l1.313,1.77
		l1.598,1.713l0.913,0.6l0.528,0.455l0.2,0.314l0.3,0.742l0.015,0.971l0.285,2.327l0.257,1.47l0.428,1.056l0.143,0.199l0.343,1.085
		l0.57,0.8l0.428,0.628l1.028,0.913l0.286,0.171l0.728,0.899l1.227,1.027l1.156,0.957l1.156,1.255l1.384,2.027l0.528,1.198
		l0.3,1.113l0.029,0.086l0.171,0.656l0.214,0.571l0.357,0.928l1.042,2.454l0.813,2.041l0.756,1.526l0.528,1.527l0.656,1.827
		l0.485,1.712l0.471,1.885l0.314,1.398l0.328,2.141l0,0l-0.742,2.74l-1.27,2.697L-12.681,201.355"/>
</g>
<g id="Layer_1_1_">
</g>
</svg>
