<?xml version="1.0" encoding="iso-8859-1"?>
<!-- Generator: Adobe Illustrator 16.0.4, SVG Export Plug-In . SVG Version: 6.00 Build 0)  -->
<!DOCTYPE svg PUBLIC "-//W3C//DTD SVG 1.1//EN" "http://www.w3.org/Graphics/SVG/1.1/DTD/svg11.dtd">
<svg version="1.1" xmlns="http://www.w3.org/2000/svg" xmlns:xlink="http://www.w3.org/1999/xlink" x="0px" y="0px" width="43.32px"
	 height="32.48px" viewBox="0 0 43.32 32.48" style="enable-background:new 0 0 43.32 32.48;" xml:space="preserve">
<g id="Layer_171">
	<g id="Layer_176">
		<path id="Barkhan" style="fill:#CCCCCC;stroke:#FFFFFF;stroke-width:1.07;" d="
			M34.535,19.998L34.535,19.998l0.619-0.66l0.77-1.979l0.316-1.088l0.158-0.544l0.691-1.289l0.066-0.133l0.102-0.122l0.143-0.166
			l0.396-0.231l0.258-0.188l0.166-0.177l0.129-0.155l0.129-0.222l0.166-0.199l0.131-0.232l0.09-0.256l0.145-0.363l0.053-0.254
			l0.041-0.346l-0.062-0.355L38.99,10.76l0.004-0.422l0.025-0.334l0.078-0.266l0.168-0.301l0.117-0.389l0.092-0.411L39.5,8.363
			l0.078-0.146l0.154-0.134l0.115-0.043l0.205-0.012l0.115-0.043l0.076-0.078l0.053-0.232l-0.01-0.444l0.053-0.276l0.064-0.146
			l0.078-0.122l0.141-0.109l0.256-0.066l0.244-0.021l0.27-0.043L41.6,6.382l0.166-0.134l0.516-0.652l0.35-0.487l0.154-0.211V4.809
			l-0.037-0.111l-0.127-0.166l-0.229-0.08l-0.281-0.078l-0.154-0.002h-0.424l-0.256-0.002l-0.191-0.033l-0.191-0.034l-0.373-0.022
			l-0.152-0.002l-0.23-0.001L39.92,4.365l-0.152,0.077l-0.131,0.134l-0.193,0.287l-0.182,0.277l-0.152,0.132l-0.219,0.111
			l-0.182-0.013L38.492,5.27L38.416,5.07l0.016-0.179l0.102-0.175l0.193-0.301l0.143-0.365l0.092-0.455l0.002-0.256l-0.039-0.102
			h-0.076l-0.141,0.045l-0.143,0.1L38.41,3.527l-0.18,0.121l-0.143-0.023l-0.104-0.032l-0.062-0.166l0.002-0.278l0.027-0.533
			l0.053-0.211l0.012-0.016l-0.367-0.109L37.002,2.09l-0.43-0.158l-0.271-0.018l-0.432-0.002l-0.557,0.043l-0.414,0.09l-0.254,0.154
			l-0.289,0.278l-0.129,0.249l-0.182,0.188l-0.377,0.121L33,3.233l-0.359,0.201l-0.309,0.218L32.08,3.713l-0.322-0.002l-0.396-0.002
			l-0.303-0.11l-0.324-0.126l-0.25-0.096l-0.25-0.266L30.09,2.923l-0.068-0.156l-0.018-0.343l-0.051-0.438l-0.068-0.404L29.68,1.25
			l-0.215-0.125l-0.377-0.079l-0.232-0.063l-0.055-0.066l-0.199,0.315l-0.164,0.171l-0.217,0.231l-0.072,0.125v0.125l0.16,0.142
			l0.07,0.141l-0.072,0.123l-0.182,0.232l-0.252,0.279l-0.201,0.232l-0.217,0.248l-0.182,0.373l-0.127,0.389l-0.256,0.529
			l-0.396,0.512l-0.398,0.529l-0.162,0.17l-0.623,0.695l-0.324,0.311l-0.199,0.248l-0.055,0.095v0.125l0.105,0.14l0.055,0.156
			l-0.057,0.202l-0.252,0.528l-0.488,0.699L23.68,9.479l-0.521,0.45l-0.288,0.124l-0.232,0.016l-0.27-0.111l-0.125-0.108V9.693
			l-0.105-0.156L21.994,9.49H21.67l-0.286-0.033l-0.107-0.062l-0.07-0.172l0.056-0.17l0.233-0.404l0.072-0.25l0.002-0.123
			L21.444,8.15l0.001-0.109L21.463,7.9l0.307-0.248l0.379-0.326l0.307-0.436l0.127-0.279l0.037-0.233l-0.106-0.173l-0.196-0.094
			h-0.162l-0.342,0.187l-0.45,0.341l-0.829,0.745l-0.487,0.481L19.38,8.595l-0.415,0.45L18.481,9.48l-0.496,0.445l-0.756,0.746
			l-0.666,0.637l-0.521,0.622l-0.646,0.778l-0.076,0.062l-0.118,0.118l-0.124,0.1l-0.155,0.125l-0.077,0.111l-0.025,0.104
			l0.004,0.117l0.041,0.217v0.281l0.012-0.008l0.195-0.14l0.221-0.125l0.229-0.104l0.194-0.051l0.396-0.139l0.195-0.059l0.246-0.029
			l0.264-0.045l0.373-0.116l0.288-0.103l0.204-0.06l0.16-0.08l0.11-0.028h0.229l0.194,0.008h0.161l0.146,0.037l0.066,0.06
			l0.061,0.104l-0.019,0.088l-0.188,0.271L18.4,13.588l-0.061,0.088v0.037l0.042,0.109V14l0.025,0.089l0.024,0.169l-0.061,0.133
			l-0.204,0.162l-0.398,0.287l-0.17,0.161l-0.052,0.089l0.009,0.088l0.084,0.109l0.127,0.127l0.136,0.08l0.024,0.045v0.097
			l-0.07,0.14l-0.247,0.375l-0.289,0.404l-0.204,0.287l-0.051,0.199l-0.111,0.14l-0.254,0.25l-0.145,0.214l-0.271,0.229l-0.301,0.24
			l-0.265,0.197l-0.312,0.146l-0.297,0.125l-0.136,0.074l-0.085,0.072l-0.025,0.09l-0.009,0.109l-0.019,0.061l-0.093,0.071
			l-0.127,0.125l-0.094,0.134l-0.061,0.323l-0.035,0.317l-0.075,0.103l-0.11,0.074l-0.396,0.08l-0.567,0.071l-0.491,0.074
			l-0.295,0.041l-0.381,0.162l-0.136,0.104l-0.067,0.103l-0.018,0.074l-0.052,0.065l-0.135,0.066l-0.17,0.051l-0.212,0.022
			l-0.203,0.022L10.789,21.1l-0.355,0.059l-0.363,0.133L9.773,21.41l-0.22,0.123L9.02,21.822l-0.585,0.354L7.657,22.58l-0.529,0.25
			l-0.474,0.234l-0.466,0.243L5.994,23.44L5.74,23.677l-0.329,0.258l-0.263,0.185l-0.271,0.191L4.75,24.406l-0.102,0.147
			l-0.067,0.125l-0.034,0.19l-0.065,0.154L4.303,25.18l-0.312,0.162l-0.513,0.22l-0.364,0.126L2.641,25.85l-0.532,0.191L1.711,26.16
			L1.5,26.248l-0.178,0.119l-0.169,0.14l-0.287,0.147l-0.169,0.125l-0.104,0.385l0.272,0.297l0.308,0.402l0.209,0.269l0.126,0.306
			l0.351,0.401l0.326,0.212l0.441,0.204l0.602,0.291l0.513,0.187l0.456,0.165l0.248,0.149l0.458,0.365l0.22,0.181l0.455,0.265
			l0.348,0.262l0.072,0.052l0.433,0.1l0.43,0.066l0.643,0.296l0.66,0.171l0.535,0.142h0.375l0.392-0.062l0.946-0.217l1.16-0.312
			l0.964-0.356l0.75-0.311l0.429-0.249l0.465-0.155l0.5-0.092l0.5-0.217l0.393-0.314l0.59-0.498l0.733-0.418l0.731-0.278
			l0.806-0.169l1.125-0.153l1.145-0.137l0.964-0.044l1.035,0.082l0.927,0.252l0.713,0.268l0.34,0.204l0.242,0.104l0.371-0.268
			l0.48-0.232l0.436-0.117l0.566-0.156l0.26-0.27l0.307-0.078l0.742-0.082l0.438-0.192l0.303-0.347l0.26-0.344l0.303-0.422
			l0.303-0.27l0.348-0.23l0.262-0.193l0.307-0.077l0.262-0.192l0.215-0.383l0.346-0.611l0.389-0.728l0.084-0.306l0.912-1.822
			l0.836-0.61L34.535,19.998"/>
	</g>
</g>
<g id="Layer_1">
</g>
</svg>
