<?xml version="1.0" encoding="iso-8859-1"?>
<!-- Generator: Adobe Illustrator 16.0.4, SVG Export Plug-In . SVG Version: 6.00 Build 0)  -->
<!DOCTYPE svg PUBLIC "-//W3C//DTD SVG 1.1//EN" "http://www.w3.org/Graphics/SVG/1.1/DTD/svg11.dtd">
<svg version="1.1" xmlns="http://www.w3.org/2000/svg" xmlns:xlink="http://www.w3.org/1999/xlink" x="0px" y="0px"
	 width="26.342px" height="13.438px" viewBox="0 0 26.342 13.438" style="enable-background:new 0 0 26.342 13.438;"
	 xml:space="preserve">
<g id="Layer_96">
	<g id="Layer_101">
		<path id="Malakand" style="fill:#CCCCCC;stroke:#FFFFFF;stroke-width:1.07;" d="
			M8.876,13.117L8.876,13.117l0.006-0.008l0.061-0.084l-0.01-0.049L8.93,12.962l0.017-0.013l0.073-0.043l0.084-0.03l0.068-0.029
			l0.072-0.037l0.003-0.003l0.047-0.033L9.35,12.74L9.4,12.707l0.049-0.034l0.062-0.037l0.071-0.037l0.062-0.03l0.085-0.043
			l0.107-0.057l0.102-0.045l0.106-0.046l0.088-0.03l0.062-0.02l0.069-0.023l0.097-0.02l0.062-0.01l0.07,0.004l0.098,0.008
			l0.084,0.006l0.074-0.004l0.078-0.01l0.095-0.008H11l0.074,0.012l0.053,0.013l0.062,0.032l0.05,0.024l0.047-0.008l0.062-0.043
			l0.049-0.062l0.013-0.045l-0.004-0.043l0.004-0.014l0.004-0.053l0.003-0.053l0.003-0.041v-0.051l-0.012-0.049l-0.003-0.037
			l0.028-0.068l0.024-0.037l0.01-0.041l0.01-0.02l0.043-0.01l0.05-0.025l0.022-0.035l0.001-0.032l0.031-0.025l0.013-0.038
			l0.015-0.061l0.006-0.021l0.01-0.043l0.033-0.023l0.043-0.04l0.009-0.007l0.032-0.021l0.037-0.073l-0.018-0.033l0.005-0.057
			l0.029-0.027l0.03-0.027l0.022-0.047l0.016-0.012l0.064-0.01l0.05-0.008l0.076-0.021l0.062-0.019l0.078-0.022h0.002l0.061-0.01
			l0.081-0.023l0.056-0.027l0.027-0.023l0.009-0.041l-0.004-0.065l0.005-0.056l0.012-0.086l0.009-0.034l-0.012-0.04l-0.002-0.006
			l0.026-0.026l0.046-0.022l0,0l0.008-0.004l0.041,0.006l0.062-0.012l0.037-0.039l0.044-0.008h0.037l0.039,0.001l0.062-0.003
			l0.077,0.008l0.035,0.002l0.041,0.002l0.065-0.004l0.086-0.027l0.049-0.02l0.085-0.056l0.034-0.027l0.045-0.034l0.037-0.029
			l0.041-0.035l0.004-0.004l0.045-0.023l0.054-0.021l0.047-0.006l0.057-0.002h0.056h0.059l0.053-0.002l0.055-0.006l0.046-0.008
			l0.055-0.011l0.077-0.024l0.032-0.02l0.036-0.031l0.025-0.027l0.045-0.047l0.028-0.025l0.036-0.034l0.021-0.031l0.017-0.026
			l0.006-0.012l0.018-0.041l0.012-0.039L14.355,9.73l0.002-0.041l0.002-0.039l0.014-0.041l0.04-0.084l0.043-0.043l0.08-0.07
			l0.03-0.043l0.005-0.039l0.009-0.066l0.037-0.064l0.007-0.039l-0.021-0.055L14.6,9.045L14.623,9l0.018-0.061l-0.025-0.05
			L14.6,8.887l-0.001-0.006l-0.057-0.059l-0.047-0.02l-0.034-0.014l-0.009-0.047L14.43,8.695L14.428,8.64l0.013-0.044l0.011-0.164
			l-0.006-0.023l0,0l0.001-0.004L14.44,8.361l-0.02-0.049L14.388,8.27l-0.055-0.035l-0.035-0.029l0.001-0.022l0.02-0.054l0.01-0.051
			l0.027-0.067l0.03-0.027l0.048-0.034l0.067-0.032l0.045-0.021l0.05-0.022l0.042-0.021l0.058-0.031l0.076-0.031l0.062-0.034
			l0.039-0.033l0.036-0.041l0.044-0.041l0.052-0.042l0.081-0.033l0.019-0.026l0.004-0.057l-0.005-0.073l0.005-0.049l0.023-0.041
			l0.031-0.028l0.046-0.034l0.077-0.063l0.041-0.043l0.056-0.07l0.034-0.032l0.031-0.022l0.028-0.021l0.043-0.042l0.069-0.062
			l0.024-0.025l0.044-0.029l0.064-0.027l0.033-0.017l0.039-0.023l0.035-0.039l0.033-0.057L15.86,6.626l0.022-0.074l0.02-0.036
			l0.017-0.027l0.017-0.022l0,0l0.017-0.015l0.022-0.01l0.019-0.005l0.03-0.01L16.031,6.4l0.014-0.023l0.06-0.015l0.064-0.008
			l0.086-0.006l0.089,0.007l0.034,0.012l0.079,0.027h0.046l0.044-0.011l0.049-0.008l0.035-0.01l0.058-0.021l0.04-0.01l0,0
			l0.017-0.004l0.038-0.003l0.019,0.007l0.052,0.025l0.108,0.061l0.029,0.016l0.023,0.03l0.058,0.071l0.055,0.067l0.043,0.023
			l0.039,0.023l0.035,0.015l0.034,0.014l0.034,0.028l0.062,0.039l0.054,0.005l0.051-0.007l0.058-0.01l0.048-0.01l0.035-0.011
			l0.048,0.035l0.059,0.059l0.019,0.028l0,0l0.018,0.041l0.015,0.036l0.022,0.045l0.031,0.049l0.02,0.037l0.031,0.032l0.051,0.048
			l0.047,0.041l0.047,0.031l0.059,0.042l0.04,0.026l0.065,0.05l0.059,0.083l0.04,0.045l0.002,0.002l0.071,0.061l0.011,0.017
			l0.032,0.048l0.043,0.034l0,0l0.001,0.001l0.012,0.053l0.034,0.016l0.078,0.001l0.081,0.006h0.075l0.093,0.012l0.047-0.011
			l0.048-0.014l0.079-0.001L19.03,7.68l0.01,0.003l0.032,0.03l0.023,0.044l0.019,0.054l0.006,0.078l0.001,0.07l0.001,0.135
			l0.005,0.105l0.013,0.047l0.022,0.05l0.021,0.03l0.034,0.045l0.05,0.068L19.28,8.49l-0.006,0.041l0.004,0.051l0.014,0.072
			l0.004,0.065l0.002,0.015l0,0L19.29,8.755l-0.032,0.013l0.02,0.028l0.012,0.026l0.02,0.019v0.001l0.025,0.03l0.016-0.021
			l0.017-0.004l0.008-0.011l0.016-0.019l0.004-0.033l-0.002-0.023l0.033-0.02l0.032-0.039l-0.001-0.021V8.66l-0.022-0.039
			l-0.024-0.057l-0.027-0.056L19.38,8.453l-0.009-0.039l-0.003-0.047l0.006-0.024l0,0l0.005-0.021l0.041-0.067l-0.027-0.039
			l-0.054-0.03l-0.04-0.023l-0.04-0.028l0.001-0.024l0.001-0.023l0.048-0.03l0.04-0.024l0.054-0.023l0.048-0.021l0.062-0.029
			l0.034-0.015l0.09-0.036l0.062-0.039l0.022-0.027l0.021-0.035l0.041-0.088l0.021-0.039l0.036-0.023l0.006-0.002l0.044-0.016
			l0.037-0.017h0.001h0.002l0.068-0.015l0.047-0.026l-0.044-0.002l0.003-0.072l0.019-0.044l0.043-0.07l0.028-0.045l0.024-0.045
			l0.034-0.043l0.051-0.049l0.116-0.078l0.01-0.003l0.074-0.026l0.08-0.025l0.06-0.021l0.07-0.049l0.002-0.003l0.018-0.048
			l0.013-0.103l0.023-0.067l0.007-0.06l0.032-0.079l0.03-0.033l0.055-0.022l0.062-0.008l0.057-0.01l0.047-0.014l0.043-0.026
			l0.073-0.036l0.134-0.069l0.068-0.032l0,0l0.015-0.006l0.114-0.042l0.063-0.024l0.104-0.031l0.085-0.011l0.054,0.002l0.121,0.03
			l0.065,0.025l0.153,0.009l0.069,0.011l0.061,0.025l0.065,0.029l0.073,0.039l0.029,0.015l0.021,0.011l0.039,0.029l0.067,0.014
			l0.054-0.032l0.025-0.01h0.029l0.05,0.001L22.7,6.491l0.048-0.005l0.044-0.004l0.056-0.011l0.054-0.009l0.053-0.01l0.037-0.013
			l0.082-0.015l0.066-0.007l0.074,0.002l0.035,0.007l0.039,0.014l0.041,0.026l0.039,0.036l0.04,0.036l0.04,0.065l0.016,0.026
			l0.019,0.032l0.016,0.045l0.021,0.04l0.008,0.013l0.06,0.059l0.053,0.028h0.044h0.009l0.103-0.006h0.053h0.011h0.004l0.05,0.006
			l0.058,0.007l0.056,0.013l0.051,0.021l0.046,0.023l0.048,0.021l0.041,0.013l0.076,0.024l0.057,0.021l0.06,0.015l0.054,0.039
			l0.026-0.038l0.032-0.014l0.129-0.056l0.089-0.062l0.015-0.005l0.178-0.067l0.061-0.047V6.716l-0.011-0.092l0.002-0.059
			l0.048-0.185l0.094-0.096l0.064-0.013l0.053-0.005l0.198-0.006l0.211-0.004l0.074-0.037l-0.003-0.012l0.008-0.021l0.021-0.039
			l0.015-0.04l0.021-0.065l-0.009-0.034L25.765,6l-0.065-0.058l-0.103-0.109l-0.009-0.012L25.569,5.8l-0.027-0.042l-0.027-0.03
			l-0.012-0.059l-0.007-0.042l-0.009-0.042l-0.021-0.041l-0.095-0.085l-0.119-0.082L25.2,5.323L25.18,5.261l0,0l-0.04-0.128
			l-0.027-0.08L25.11,5.049L25.098,4.93l0,0l-0.02-0.094l-0.021-0.041l-0.01-0.027l-0.015-0.019l-0.021-0.007l-0.023-0.008
			l-0.053-0.003l-0.055,0.007h-0.043l-0.082-0.009l-0.104-0.012l-0.091-0.011l-0.104-0.024l-0.113-0.04L24.238,4.61l-0.111-0.038
			l-0.076-0.034L23.947,4.51l-0.122-0.035l-0.088-0.024l-0.142-0.025l-0.161,0.015L23.279,4.52l-0.074,0.031l-0.06,0.012
			l-0.058,0.004h-0.066L22.944,4.56l-0.066-0.006l-0.146-0.001l-0.146-0.024l-0.081-0.025L22.433,4.48l-0.056-0.029l-0.052-0.027
			l-0.07-0.025l-0.094-0.04l-0.068-0.033l-0.061-0.025l-0.06-0.021l-0.062-0.038l-0.072-0.044l-0.045-0.027l-0.067-0.057
			l-0.029-0.029l-0.039-0.036l-0.001-0.001l-0.039-0.061L21.6,3.961l-0.061-0.095V3.722l0.044-0.033l0.026-0.002V3.676l0.004-0.065
			l-0.001-0.073l-0.021-0.072L21.568,3.41l-0.004-0.008l-0.021-0.065l-0.062-0.06L21.441,3.24l-0.053-0.053l-0.026-0.03L21.354,3.15
			l-0.047-0.046l-0.05-0.036l-0.021-0.017l-0.022-0.022l-0.09-0.084l-0.088-0.092l-0.104-0.1l-0.06-0.106L20.83,2.534l-0.001-0.006
			l0.001-0.016l0.004-0.064l0.013-0.072l0.013-0.058l0.012-0.046l0.011-0.058l0.017-0.069l0.009-0.044l0.014-0.05l0.02-0.073
			l0.027-0.059l0.031-0.047l0.037-0.057l0.044-0.054l0.053-0.05l0.044-0.047l0.01-0.01l0.038-0.042l0.039-0.05l0.028-0.039
			l-0.004-0.105l0.035-0.11l0.006-0.021L21.36,1.19l0.051-0.132l0.088-0.067l0.091-0.077l0.059-0.081l0.063-0.095l-0.146-0.012
			l-0.092-0.001l-0.098-0.001l-0.123,0.009l-0.08-0.007l-0.086-0.007l-0.135-0.022l-0.097-0.03l-0.094-0.04l-0.115-0.045
			l-0.099-0.025L20.44,0.544l-0.115-0.007l-0.133,0.01l-0.11,0.021l-0.089,0.02l-0.032,0.01l-0.027,0.009l-0.03,0.017l0.025,0.025
			l0.057,0.096l-0.307,0.224l-0.205-0.002l-0.263,0.062L18.902,1.07l-0.326,0.014l-0.139,0.032l-0.339,0.155l-0.258,0.123
			L17.59,1.501L17.4,1.602l-0.078,0.034l-0.159,0.07l-0.468,0.086l-0.26,0.113l-0.322-0.002l-0.022,0.008l-0.023-0.008h-0.035
			l-0.033-0.02L15.94,1.86l-0.001-0.001l-0.006-0.002l-0.036-0.016l-0.014-0.006l-0.057-0.019l-0.061-0.015l-0.07-0.012
			l-0.077-0.024L15.555,1.76l-0.132-0.011l-0.068-0.01l-0.083-0.008l-0.067-0.002l-0.037,0.003l-0.072,0.006l-0.092-0.003
			l-0.042-0.003H14.96l-0.011-0.001h-0.074l-0.044,0.003l-0.022-0.001l-0.056-0.004L14.659,1.71H14.62l-0.057,0.009l-0.028,0.004
			l0,0l-0.319-0.011L14.061,1.78h-0.055l-0.078-0.002l-0.029-0.004l-0.057-0.007H13.79l-0.053-0.001l-0.168-0.03h-0.002
			l-0.005-0.001l-0.079-0.024l-0.098-0.016H13.33l-0.053,0.01l-0.002,0.001l0,0l-0.056,0.02l-0.056,0.025l-0.056,0.038L13.06,1.821
			l-0.062,0.024l-0.061,0.026l-0.079,0.031l-0.103,0.031l-0.097,0.04L12.595,2l-0.003,0.001L12.545,2.02l-0.097,0.034l-0.125,0.012
			l-0.057,0.009l-0.065,0.01l-0.076,0.001l-0.058,0.007l-0.226-0.012l-0.041,0.004l-0.063,0.009l-0.06,0.001l-0.4-0.017l0,0
			l-0.062-0.017l-0.078-0.034l-0.109-0.033l-0.079-0.026l-0.064-0.024L10.85,1.931l-0.068-0.012l-0.047,0.003l-0.047,0.003
			l-0.062,0.004l-0.077,0.009l-0.062,0.005l-0.068,0.01l-0.076,0.008l-0.063,0.006l-0.062,0.011L10.144,1.99l-0.108,0.002
			L9.948,2.018L9.904,2.039L9.797,2.058L9.732,2.07L9.681,2.088L9.582,2.113L9.533,2.128L9.457,2.162l-0.086,0.04l-0.06,0.025
			L9.244,2.259L9.149,2.298L9.075,2.329L9.011,2.36L8.959,2.389L8.906,2.412L8.849,2.436L8.781,2.458L8.715,2.469L8.646,2.487
			L8.594,2.494L8.525,2.486L8.46,2.475L8.425,2.461L8.396,2.449L8.367,2.416l-0.024-0.06L8.33,2.323L8.303,2.26l-0.02-0.051
			L8.265,2.16L8.239,2.113L8.218,2.075l0,0L8.205,2.052L8.202,2.048l-0.066-0.12L8.038,1.875L7.873,1.797l-0.17-0.002L7.571,1.783
			H7.568L7.563,1.782L7.521,1.778L7.445,1.764l-0.06-0.003L7.354,1.756L7.309,1.737L7.271,1.704l-0.031-0.04l-0.021-0.03L7.2,1.6
			L7.18,1.571L7.153,1.538L7.125,1.51l-0.04-0.015L7.031,1.47L6.992,1.456l-0.068-0.01L6.908,1.447L6.873,1.449L6.794,1.45
			L6.758,1.443L6.72,1.432L6.691,1.413L6.658,1.38L6.63,1.349L6.61,1.318L6.59,1.278L6.569,1.253L6.542,1.232L6.505,1.203
			L6.461,1.178l-0.05-0.021L6.345,1.134L6.29,1.105L6.232,1.063L6.172,1.004l-0.046-0.03L6.092,0.953H6.09L6.074,0.995L6.066,1.042
			V1.08V1.1L6.052,1.145l-0.02,0.073l-0.033,0.04L5.951,1.302L5.899,1.314l-0.05-0.01L5.794,1.286L5.756,1.292L5.723,1.301
			l-0.02,0.038L5.7,1.372L5.694,1.404l-0.04,0.038L5.629,1.488l-0.04,0.028l-0.04,0.012L5.508,1.535L5.461,1.542L5.418,1.537
			L5.381,1.539L5.312,1.53L5.255,1.523L5.193,1.521L5.15,1.524H5.1L5.041,1.513L4.977,1.498l-0.025-0.02L4.907,1.453L4.865,1.434
			l-0.051-0.02L4.77,1.4l-0.04-0.011L4.661,1.392L4.625,1.413L4.586,1.45L4.555,1.488L4.547,1.536L4.545,1.582L4.547,1.62
			l0.012,0.072l0.006,0.062L4.504,1.78H4.458L4.415,1.766l-0.048-0.02L4.333,1.727L4.281,1.712l-0.06-0.024l-0.058-0.01L4.105,1.697
			L4.08,1.718L4.054,1.756l0.012,0.097l0.013,0.034l0.005,0.042l0.004,0.05l0.009,0.073v0.041l0.002,0.041l-0.03,0.042L4.029,2.181
			L3.951,2.163l-0.04-0.011L3.875,2.174l-0.009,0.06L3.855,2.276L3.841,2.319L3.82,2.344l-0.054,0.03L3.704,2.402l-0.04,0.003
			L3.605,2.396L3.553,2.391L3.516,2.398L3.471,2.4H3.409L3.365,2.396L3.317,2.392l-0.045,0.01L3.231,2.413L3.203,2.424L3.172,2.438
			L3.131,2.459L3.094,2.486L3.061,2.527l-0.026,0.05L2.986,2.613L2.943,2.63L2.871,2.622L2.839,2.617L2.683,2.64L2.678,2.66
			L2.669,2.72L2.665,2.773l0.006,0.036l0.016,0.028L2.71,2.869L2.729,2.91l0.014,0.053l0.003,0.049L2.74,3.045l-0.012,0.04
			L2.722,3.129l0.004,0.046l0.003,0.039l0.01,0.06v0.061l-0.01,0.046L2.72,3.426L2.706,3.467l-0.033,0.04L2.638,3.54L2.603,3.569
			L2.567,3.597L2.54,3.629L2.526,3.664L2.498,3.725L2.457,3.794L2.423,3.848l-0.02,0.034L2.386,3.938L2.381,3.985L2.375,4.034
			l-0.03,0.053L2.301,4.126L2.266,4.149L2.234,4.173L2.201,4.214L2.186,4.253L2.182,4.267l0.009,0.03L2.185,4.331L2.183,4.368
			L2.179,4.403v0.035l0.008,0.041l0.002,0.053L2.181,4.596l0.002,0.037l0.019,0.034l0.01,0.04l0.019,0.042l0.035,0.047l0.028,0.049
			l0.029,0.048l0.006,0.035l0.008,0.034l0.002,0.042L2.336,5.038L2.314,5.063L2.282,5.09L2.249,5.1L2.193,5.099H2.161H2.101
			L2.06,5.109L2.03,5.121L1.97,5.122L1.916,5.133l-0.058,0.03l-0.02,0.03L1.825,5.26l0.021,0.038l0.021,0.028l0.021,0.035
			L1.91,5.407l0.022,0.059L1.94,5.544L1.925,5.586L1.896,5.61L1.867,5.631L1.822,5.653L1.788,5.675L1.737,5.721L1.696,5.764
			L1.662,5.801L1.627,5.822L1.563,5.869L1.525,5.875l-0.07,0.007L1.403,5.895L1.3,5.907l-0.095,0.01L1.159,5.92L1.091,5.916
			L1.029,5.92l0.027,0.036L1.08,5.995l0.038,0.048L1.194,6.14l0.064,0.075l0.043,0.037l0.049,0.049l0.07,0.051l0.07,0.061
			l0.058,0.044l0.12,0.094l0.03,0.044l0.029,0.051l0.015,0.045l0.03,0.036l0.028,0.069L1.801,6.839L1.787,6.873L1.772,6.905
			L1.751,6.957L1.717,7.025L1.695,7.066l0.004,0.046l0.025,0.056l0.011,0.058l0.006,0.046L1.76,7.335l0.003,0.207l0.032,0.042
			l0.042,0.051l0.024,0.028L1.843,7.731L1.822,7.774L1.797,7.848l0.005,0.04l0.021,0.044l0.035,0.045L1.902,8.02l0.042,0.053
			l0.032,0.059L1.987,8.18l0.01,0.051l0.005,0.049l0.007,0.047l0.004,0.052L2.012,8.416L1.996,8.457L1.965,8.529L1.943,8.584
			l0.015,0.043v0.045L1.952,8.727L1.945,8.775L1.934,8.83L1.917,8.869L1.911,8.91l0.03,0.039l0.048,0.027l0.054,0.077l0.016,0.038
			L2.109,9.14l0.058,0.038l0.032,0.02L2.246,9.22l0.053,0.007l0.052-0.004L2.396,9.22l0.04,0.005L2.47,9.266l0.013,0.037l0.048-0.01
			l0.004-0.045l0.015-0.034l0.044-0.046l0.152-0.055l0.073-0.02L2.86,9.092l0.053,0.01l0.065,0.025l0.091,0.041l0.098,0.039
			L3.23,9.238l0.057,0.032L3.325,9.3l0.067,0.063l0.043,0.053l0.04,0.062l0.033,0.06L3.53,9.578l0.058,0.08l0.034,0.018l0.104,0.048
			L3.773,9.74l0.033,0.033l0.017,0.041l0.051,0.014l0.053-0.025l0.051-0.02l0.008-0.004l0.027-0.014L4.064,9.75l0.054-0.01
			l0.036-0.01l0.079-0.005h0.001l0.121,0.003l0.096,0.004l0.022,0.006L4.527,9.75l0.061,0.015l0.057,0.024l0.059-0.021l0.062-0.039
			l0.042-0.033l0.036-0.021l0.062-0.031l0.033-0.034l0.007-0.009l0.031-0.022l0.057-0.08l0.063-0.047L5.146,9.42L5.18,9.4
			l0.009-0.002L5.29,9.382l0.108,0.002L5.51,9.392l0.021,0.001h0.001l0.025,0.003l0.01-0.001l0.065,0.003l0.021-0.022l0.098,0.01
			l0.051,0.007l0.006,0.003l0.028,0.023l0.049,0.061L5.9,9.541l0.013,0.035l0.01,0.031L5.928,9.63h0.001l0.006,0.03l0.007,0.069
			L5.938,9.795L5.937,9.84V9.9l0.037,0.098l0.021,0.047l0.01,0.041l0.004,0.039l0.009,0.064l0.014,0.051l0.042,0.025l0.047,0.014
			h0.001l0.052,0.059l0.025,0.049l0.037,0.098l-0.001,0.002l0.004,0.06l0.002,0.048l-0.012,0.042l-0.019,0.04l-0.018,0.04
			L6.18,10.781l0.021,0.072l0.006,0.01l0.049,0.075l0.025,0.046L6.277,11.01l-0.004,0.027l0.016,0.067l0.047,0.069l0.006,0.001
			l0.012,0.021l0.114-0.041l0.21,0.015l0.002,0.004v0.001l0.001,0.029l0,0l-0.007,0.025l0.008,0.012l0.002,0.027l0.039,0.026l0,0
			l0.002,0.002l0.001,0.047L6.747,11.4l0.022,0.006l0,0l0.022,0.004l0.028,0.006l0.023-0.03h0.001l0.1-0.042l0.045,0.025
			l0.049,0.027l0.045,0.025l0.063,0.01l0.049,0.031l-0.001,0.004l0.011,0.043l0.039,0.033l0.039,0.003l0.048,0.003l0.078,0.002
			l0.07-0.001l0.05,0.006l0.05,0.021l0.058,0.029l0.002,0.002l0.045,0.024l0.046,0.034l0,0l0.012,0.011l0.037,0.056l0.03,0.03
			l0.038,0.044l0.06,0.068l0.057,0.047l0.028,0.029l0.032,0.033l0.034,0.018l0.009,0.01l0.008,0.189l0,0l-0.028,0.092l0.003,0.006
			l0.026,0.057l0.028,0.064l0.03,0.076l0.037,0.052l0.05,0.043l0.032,0.034l0.071,0.061l0.05,0.037l0.036,0.02l0.042,0.031
			l0.085,0.039l0.036,0.02l0.062,0.044l0.036,0.053l0.071,0.017l0.071,0.062l0.05,0.087L8.876,13.117"/>
	</g>
</g>
<g id="Layer_1">
</g>
</svg>
