<?xml version="1.0" encoding="utf-8"?>
<!-- Generator: Adobe Illustrator 16.0.4, SVG Export Plug-In . SVG Version: 6.00 Build 0)  -->
<!DOCTYPE svg PUBLIC "-//W3C//DTD SVG 1.1//EN" "http://www.w3.org/Graphics/SVG/1.1/DTD/svg11.dtd">
<svg version="1.1" id="Layer_1" xmlns="http://www.w3.org/2000/svg" xmlns:xlink="http://www.w3.org/1999/xlink" x="0px" y="0px"
	 width="301.259px" height="323.149px" viewBox="-134.615 -144.582 301.259 323.149"
	 style="enable-background:new -134.615 -144.582 301.259 323.149;" xml:space="preserve">
<g id="Layer_115">
	<path id="Sialkot" style="fill:#CCCCCC;stroke:#FFFFFF;stroke-width:1.15;" d="M13.023,172.726L13.023,172.726l0.782-1.381
		l0.875-1.547l0.93-1.078l1.188-0.846l1.574-1.299l1.418-0.469l1.693-0.221l1.564,0.193l1.381,0.57l1.252-0.312l1.27,0.037
		l0.498,0.055l0.699-0.139l0.404-0.303l0.848-0.084l0.977-0.588l0.469-0.637l0.553-1.178l0.32-0.865l0.277-0.193l0.506,0.027
		l0.287,0.221l0.432,0.471l0.332,0.23l0.293,0.109l0.268,0.027l0.24-0.137l0.248-0.277l0.119-0.166l0.396-0.258h0.689l0.709,0.24
		l0.488,0.35l0.396,0.322l0.459,0.018l0.287-0.248l0.193-0.771l0.119-1.143l-0.48-1.527l-0.479-1.373l-0.055-0.23l0.02-0.211
		l0.451-0.543l0.865-1.334l0.258-0.369l-0.01-0.424l-0.146-0.652l-0.379-0.672l-0.045-0.471l0.359-0.543l0.588-0.562l0.543-0.184
		l1.768-0.432l1.004-0.535l1.371-0.828l1.85-1.832l1.383-1.768l0.68-0.883l1.16-1.15l1.371-1.299l0.984-1.168l0.674-0.848
		l0.984-0.771l0.635-0.361l0.92-0.441l1.041-0.699l1.289-0.984l0.744-0.746l0.535-0.367l0.553-0.23l0.588-0.129l0.58,0.027
		l1.059,0.268l1.143,0.221l0.893,0.109l0.791-0.129l0.93-0.377l0.682-0.58l0.727-0.652l0.424-0.379l0.496-0.303l0.396-0.084
		l0.57,0.029l1.252,0.229h1.318l0.578-0.119l0.645-0.312l0.645-0.682l0.516-0.396l0.295-0.102l0.902,0.027l0.975-0.34l0.699-0.652
		l0.746-0.746l0.59-0.396l0.654-0.35l0.422-0.193l0.451-0.055l0.885,0.119l0.727,0.102l0.561-0.064l0.562-0.305l0.57-0.367
		l0.498-0.387l0.377-0.543l0.295-0.414l0.258-0.223l0.699-0.201l0.654-0.027l0.717,0.074l0.793,0.211l0.883,0.166l0.689-0.102
		l0.498-0.305l0.404-0.377l0.416-0.93l0.469-2.264l0.516-2.018l0.303-1.379l0.092-1.234l0.047-1.049l-0.203-0.461l-0.082-0.432
		l0.102-0.25l0.57-0.533l0.699-0.756l0.203-0.541l-0.074-0.627l-0.387-1.041l-0.838-1.25l-1.473-2.008l-1.113-1.666l-1.584-1.75
		l-1.5-1.693l-0.949-1.289l-0.385-1.104l-0.221-1.225l0.072-1.27l0.213-0.553l0.818-0.6l0.754-0.781l1.004-1.391l0.6-1.279
		l0.957-1.584l0.588-1.602l0.129-0.479l-0.129-0.479l-0.238-0.828l0.139-0.58l0.303-0.58l0.268-0.146l0.322-0.186l0.377,0.029
		l0.59,0.221l0.367,0.193l1.078,0.229l0.598,0.074l0.689-0.055l0.525-0.23l0.238-0.285l0.064-0.285l-0.146-0.902l-0.129-2.1
		l-0.275-1.426l-0.02-0.461l0.158-0.164l0.221-0.203l0.412-0.312l0.939-0.406l0.764-0.414l0.361-0.377l0.082-0.396v-0.516
		l-0.193-0.727l-0.434-0.912l-0.588-0.717l-0.508-0.607l-0.229-0.416l-0.074-0.605l0.137-0.562l0.193-0.441l0.572-0.699l0.58-1.004
		l0.451-0.793l0.377-0.34l0.404-0.211h0.379l0.422,0.119l0.211,0.018l0.223-0.119l0.203-0.35l0.238-0.275l0.359-0.213l0.332,0.02
		l0.32,0.35l0.59,0.396l1.004,0.377l1.27,0.201l2.08,0.111l0.719,0.146l0.756,0.258l0.938,0.471l0.404,0.35l0.525,0.441l0.359,0.35
		l0.754,0.305l0.857,0.072l0.496-0.072l0.682-0.295l0.59-0.488l0.781-0.744l0.471-0.545l0.514-0.459l0.258-0.156l0.305-0.047
		l0.469-0.01l0.203,0.146l0.441,0.287l0.461,0.35l0.59,0.129l0.635-0.102l0.139-0.166l0.045-0.404l-0.082-1.215l-0.203-0.957
		l-0.193-0.545l-0.451-0.57l-0.102-0.432l0.047-0.359l0.193-0.479l0.322-0.379l0.285-0.248l0.58-0.248l0.395-0.02l0.342,0.057
		l0.367,0.174l0.268,0.379l0.414,0.285l0.451,0.092h0.691L121,70.447h0.285l1.113,0.166l1.299,0.303l1.307,0.322l1.27,0.193h0.682
		l0.479-0.102l0.193-0.211l0.082-0.367l0.037-0.516l0.24-0.379l0.34-0.34l0.148-0.295l0.055-0.553l-0.129-0.727l-0.367-0.709
		l-0.857-0.58L126.596,66l-0.359-0.764l0.084-0.58l0.129-0.357l0.523-0.424l0.545-0.396l0.561-0.221l0.387-0.111l0.441-0.035
		l0.461,0.092l0.367,0.201l0.424,0.066l0.305-0.047l0.293-0.543l0.508-1.951l0.699-1.896l0.672-2.273l0.801-3.104l0.543-1.896
		l0.506-1.48v-0.396l-0.201-0.268l-0.6-0.357l-0.598-0.562l-0.176-0.432l-0.008-0.424l0.193-0.285l0.496-0.166l0.818-0.158
		l0.82-0.055l1.371,0.055l0.562-0.055l0.23-0.193l0.127-0.533l0.562-2.779l0.102-0.609l-0.074-0.293l-0.193-0.203l-0.424-0.156
		l-0.441-0.387l-0.193-0.275L136.656,41l0.23-0.838l0.572-0.727l0.385-0.508l0.508-0.33l0.395-0.184l0.516-0.037l0.543,0.258
		l1.492,0.193L143,38.92l0.977-0.055l0.818-0.121l1.326-0.488l0.984-0.588l0.791-0.746l0.811-0.984l1.354-1.74l0.828-1.344
		l0.91-0.709l0.637-0.359l1.389-0.764l1.381-1.17l1.408-1.297l0.922-1.391l0.746-2.145l1.094-2.881l0.305-2.43l-0.037-3.508
		l1.371-8.34l-1.252-0.856l-0.727-0.055l-2.973-0.212l-9.602,0.829l-3.369-1.528l-0.203-0.276l-2.08-3.001l-0.938-1.334l-2.449-1.5
		l-5.938-1.5l-1.998-1.251l-4.611-0.783l-3.637-0.607l-3.047,0.027l-3.516,0.037l-7.686,4.695l-6.666,0.332L92.28,1.27l-1.336,0.884
		l-2.152,0.147l-1.896,0.138l-0.58-0.313l-1.041-0.589l-8.828-0.092l-8.863-1.252l-4.547-3.185L62.049-4.98l-1.105-2.219
		l-0.33-1.813l-0.533-2.733l1.51-5.561l-0.773-2.624l-0.221-0.699l-6.84-4.879l-0.451-0.331l-0.24-0.23l-0.523-0.46l-2.955-2.706
		l-0.525-1.344l-1.205-3.25l-1.842-9.426l-0.312-4.529l-0.129-1.39l1.059-2.237l1.711-3.572l3.619-4.492l2.559-2.062l1.629-1.298
		l2.744-4.722l-0.102-0.939l-0.23-2.292l-2.301-3.388l-0.084-0.083l-2.807-2.099l-3.102-4.703l-1.594-10.172l4.604-14.259
		l0.984-1.372l1.398-1.998l-0.1-0.635l-0.111-0.607l0.754-1.123l3.25-4.75l3.885-5.688l0.424-0.819l2.273-4.437l2.246-6.857
		l-1.299-4.962l-0.662,0.055l-5.68,0.525l-2.578,1.372l-4.979,2.624l-7.641,2.006l-0.23,0.277l-1.334,1.592l-0.193,2.044
		l-0.111,0.819l0.111,0.377l1.602,7.042l-3.406,5.569l-7.088,7.824l-8.045,0.332l-5.34,1.261l-0.506,0.11l-1.832-0.745l-0.332-0.129
		l-1.51,0.073l-1.021,0.046l-10.144,4.133l-3.765,1.546l-7.788-5.173l-3.498-2.329l-8.976-4.999l-0.718-1.049l-4.63-2.356
		l-1.031-2.431l-0.672-1.61l-2.834-0.543h-2.946h-0.046l-0.027,0.009l0,0l0.119,0.304l0.203,0.506l0.12,0.672l0.073,0.341
		l0.304,2.034l1.813,2.246l0.019,0.368l-0.175,0.203l-0.47,0.524l-0.755,0.617l-1.436,0.828l-0.359,0.645l-0.027,0.359l0.442,0.681
		l0.193,0.415l-0.064,0.598l-0.332,0.552l-0.654,0.257l-1.16,0.194l-1.565,0.064l-2.025-0.156l-0.599-0.028l-0.506,0.267
		l-0.037,0.452l0.184,0.211l0.617,0.386l2.412,1.547l3.332,2.099l0.727,0.7l0.074,0.552l-0.46,0.59l-0.994,0.589l-1.206,0.902
		l-1.123,1.39l-0.193,0.497l-0.129,0.7l0.193,0.672l0.525,0.424l0.837,0.147l0.976,0.11l1.5-0.129l1.998-0.193l0.838,0.046
		l0.644,0.129l0.516,0.433l0.7,0.911l0.35,0.875l0.184,1.73l-0.239,1.197l-0.617,1.095l-0.69,0.47l-0.976,0.304l-1.289,0.074
		l-1.372-0.074l-1.188-0.166l-1.464-0.387l-0.488-0.027l-0.202,0.092l-0.147,0.092l0.055,0.203l0.211,0.976l0.654,1.363l0.709,0.847
		l0.414,0.166h0.911l1.16-0.23l2.513-0.488l1.703-0.11l0.911,0.046l0.607,0.341l0.249,0.469l0.138,0.719l-0.276,1.556l-0.939,2.642
		l-0.884,3.498l-0.746,1.988l-1.077,1.758l-2.182,2.421l-2.568,2.292l-1.952,1.169l-1.473,0.635l-1.353,0.285l-0.985,0.102
		l-0.737,0.368l-1.703,0.976l-1.51,0.829l-2.412,1.703l-2.669,2.035l-3.332,2.356l-2.375,1.5l-4.464,2.789l-5.892,4.262
		l-2.845,1.823l-1.703,1.546l-1.243,1.15l-1.178,1.354l-3.176,1.279l-0.736,1.187l-0.819,0.175l-1.132,0.193l-1.068,0.175
		l-0.865,0.046l-0.985,0.11l-0.792,0.027l-1.667-0.166l-1.556-0.147l-0.589-0.037l-0.377,0.157l-0.562,0.313l-0.617,0.405
		l-0.599,0.34l-0.589,0.184l-1.233,0.35l-1.188,0.313l-0.46,0.037l-0.359-0.028l-0.46-0.157l-0.543-0.516l-0.534-0.414l-0.589-0.433
		l-0.552-0.249l-0.663-0.175l-1.417-0.138l-1.556-0.092l-0.515,0.009l-0.406,0.102l-0.828,0.534l-1.85,1.206l-1.372,0.893
		l-0.984,0.497l-0.847,0.433l-0.58,0.358l-0.985,0.415l-0.663,0.184l-0.939,0.11l-1.086,0.055l-0.81,0.12l-1.114,0.616l-0.616,0.157
		l-1.584,0.414l-1.344,0.24l-0.985,0.23l-0.543,0.203l-0.377,0.386l-0.193,0.313l-0.424,0.783l-0.386,1.169l-0.681,1.896
		l-0.405,0.792l-0.405,0.377l-0.571,0.415l-0.663,0.469l-0.902,0.405l-1.381,0.525l-0.976,0.212l-1.022,0.092l-1.059,0.111h-0.396
		l0.304,3.332v2.808l-0.092,0.911l-0.718,0.571l-0.718,0.479l-0.194,0.608l-0.202,0.93l-0.469,0.663l-0.829,0.782l-1.132,0.69
		l-0.976,0.423l-0.212,0.405l0.313,0.257l1.27,0.295l1.086-0.028l0.58-0.009l0.294,0.203l0.157,0.663l0.202,1.685l0.175,1.528
		l0.046,1.685l0.525,1.013l0.229,0.911l0.028,0.718l-0.268,0.607l-0.57,0.414l-0.203,0.672l0.203,2.145l-0.175,1.279l-0.11,0.663
		l0.074,0.249l0.212,0.156h0.23l0.359,0.147l0.147,0.359l-0.064,0.405l-0.47,0.728v0.193l0.157,0.461l-0.257,0.479l-0.507,0.304
		l-0.92,0.377l-0.35,0.368l-0.193,0.405l-0.203,1.031l-0.193,1.224l-0.488,0.985l-0.58,1.583l-0.203,1.132l0.332,1.224l0.819,1.316
		l0.718,0.497l0.663,0.203l0.193,0.359v0.193l-0.065,0.313l-0.405,0.405l-0.267,0.415l0.156,0.304l0.193,0.359l-0.12,0.304
		l-0.359,0.258l-0.359,0.211l-0.479,0.258l-0.046,0.404l0.074,0.406l1.813,3.352l1.915,4.418l0.193,1.021l-0.11,0.561l-0.34,0.83
		l-0.415,0.791l-0.819,0.984l-1.123,0.977l-0.34,0.773l0.073,0.607l0.755,1.324l1.859,2.623l1.105,0.857l0.792,0.35l0.847,0.184
		h0.543l0.984,0.047l0.488,0.139l0.368,0.303l0.377,0.691l0.074,0.771l0.405,1.787l0.663,2.936l0.221,1.879l-0.074,1.021
		l-0.672,0.883l-0.764,0.525l-1.013,0.682l-0.534,0.367l-0.147,0.406l0.368,0.709l0.967,0.699l0.792,0.238l0.58,0.156l0.203,0.193
		l0.193,0.406l0.387,1.379l0.386,1.125l0.589,0.645l0.727,0.699l0.452,0.736l0.322,1.168l0.083,0.977l0.157,1.242l0.064,0.59
		l0.258,0.912l0.433,0.348l0.312,0.295l-0.12,0.461l-0.994,0.404l0.23,0.58l0.221,0.516l0.23,0.498l0.332,0.174l0.829,0.156
		l0.69,0.342l0.589,0.441l0.387,0.727l0.175,0.488l0.046,0.59l-0.147,0.377l-0.249,0.193l-0.488,0.193l-0.46,0.303l-0.405,0.352
		l-0.331,0.367l-0.175,0.285l-0.377,0.193l-0.239,0.166l-0.194,0.258l-0.018,0.404l0.304,0.369l0.589,0.377l0.801,0.553l0.469,0.424
		l0.203,0.422l-0.056,0.359l-0.211,0.701l-0.202,0.395l-0.323,0.268l-0.368,0.166l-0.58,0.092l-0.267,0.064l-0.386,0.203
		l-0.194,0.211l-0.074,0.275l0.074,0.314l0.194,0.248l0.396,0.203l0.377,0.035l0.488,0.111l0.248,0.211l0.129,0.156l0.11,0.48
		l0.193,0.367l0.414,0.369l0.506,0.404l0.58,0.332l0.948,0.479l0.893,0.588l0.203,0.406l0.267,0.635l0.451,0.773l0.59,0.855
		l0.331,0.625l0.203,0.6l0.313,1.076l0.193,0.977l0.268,0.689l0.938,0.562l1.593,0.811l0.976,0.303l1.381,0.451l1.915,0.645
		l1.51,0.645L-95,91.554l1.694,0.441l0.976,0.102l1.5,0.055l1.675,0.02l2.108-0.047l1.547-0.203l1.372-0.092l0.976,0.084
		l1.068,0.322l0.718,0.322l0.912,0.238l0.654,0.434l0.552,0.523l0.276,0.967l0.488,1.832l0.479,1.768l0.203,1.041l0.202,0.893v0.984
		l0.019,0.461v0.984l-0.138,1.012l-0.203,1.059l0.203,1.123l0.046,1.105l0.193,0.949l0.294,0.773l0.322,0.469l0.626,0.615
		l1.096,0.582l0.948,0.229l0.92,0.139l0.893,0.369l0.681,0.449l0.368,0.451l0.248,0.553l0.157,0.34l0.037,0.48l0.138,0.699
		l0.212,0.34l0.635,0.572l1.38,0.975l1.685,1.031l0.976,0.533l0.58,0.203l0.497,0.037l0.452-0.156l0.58-0.451l0.764-0.654
		l0.589-0.275l0.525-0.084l0.313,0.111l0.193,0.322l0.166,0.57l0.083,0.607l0.322,0.717l0.534,0.904l0.617,1.398l0.552,1.27
		l0.396,0.682l0.193,0.893l0.064,0.672l0.065,0.506l0.175,0.203l0.368,0.129l0.607,0.074l1.123-0.213l0.58-0.055l0.985-0.018
		l0.783-0.064l0.534-0.156h0.543l0.69,0.203l0.718,0.283l0.976,0.186l1.114-0.064l0.663-0.184l0.672-0.396l0.912-0.525l0.783-0.34
		l0.58-0.25l0.562-0.055l0.442,0.121l0.23,0.404l-0.074,0.764l0.074,0.727l0.267,0.461l0.607,0.414l1.316,0.396l1.924,0.357
		l1.077,0.139l0.534-0.035l0.267-0.111l0.148-0.258v-0.479l-0.193-0.699l-0.387-0.738l-0.267-0.615l-0.074-0.479l0.193-0.305
		l0.313-0.074l0.746,0.121l0.984,0.24l1.326,0.285l0.847,0.174l0.883,0.027l0.967-0.139l0.828,0.057l0.691,0.193l0.257,0.404
		l0.156,0.377l-0.064,0.488l-0.203,1.004l-0.046,0.588l0.193,0.406l0.239,0.174l0.488,0.047l0.755-0.092l0.469,0.018l0.599,0.193
		l1.289,0.654l2.265,0.652l1.693,0.498l0.93,0.332l0.562,0.137l0.589-0.027l0.58-0.275l0.295-0.268l0.405-0.139l0.34,0.102
		l0.193,0.322l0.469,0.258l0.856,0.148l1.215,0.156l0.58,0.275l0.387,0.305l0.552,0.035l0.773,0.02l0.525,0.102l0.368,0.35
		l0.212,0.479l0.203,0.736l0.174,0.561l-0.045,0.305l-0.23,0.471l-0.46,0.34l-0.248,0.266l-0.046,0.369l-0.129,0.285l-0.239,0.248
		l-0.377,0.176l-0.322,0.174l-0.12,0.193l-0.12,0.268l-0.23,0.203l-0.285,0.146l-0.157,0.258l-0.083,0.488l0.046,0.691l0.065,0.496
		l0.258,0.156l0.58,0.146h0.783l0.451,0.02l0.276,0.102l0.156,0.266l0.092,0.305l-0.156,0.258l-0.203,0.258l-0.147,0.479
		l-0.064,0.488l-0.074,0.551l0.11,0.508l0.617,0.395l0.984,0.479l1.041,0.424l0.423,0.258l0.479,0.047l0.267-0.055l0.405,0.119
		l0.497,0.377l1.096,0.818l0.709,0.617l0.221,0.305l0.221,0.523l0.387,0.535l0.938,0.727l0.81,0.746l0.654,0.645l0.193,0.486
		l0.083,0.471l-0.009,0.377l-0.258,0.332l-0.414,0.377l-0.452,0.248l-0.479,0.156l-0.571,0.084l-0.589-0.027l-0.322,0.047
		l-0.488,0.174l-0.368,0.322l-0.377,0.414l-0.239,0.404l-0.203,0.664l-0.102,0.551l0.221,0.525l0.451,0.479l0.239,0.58l0.166,0.543
		l0.35,0.498l0.515,0.275l1.022,0.34l0.948,0.451l1.04,0.672l0.58,0.479l0.202,0.369l0.092,0.461l0.055,0.432l0.193,0.506
		l0.451,0.295l0.507,0.359l0.11,0.111l0.286,0.367l0.386,0.424l0.359,0.451l0.193,0.488l0.239,0.625l0.193,0.6l0.203,0.266
		l0.359,0.203l0.599,0.109l0.985,0.24l2.706,0.432l2.899,0.277l0.58,0.166l0.488,0.203l0.616,0.459l0.589,0.58l0.819,0.828
		l0.617,0.984l0.598,1.105l0.203,0.654l0.193,0.809L13.023,172.726"/>
</g>
<g id="Layer_1_1_">
</g>
</svg>
