<?xml version="1.0" encoding="utf-8"?>
<!-- Generator: Adobe Illustrator 16.0.4, SVG Export Plug-In . SVG Version: 6.00 Build 0)  -->
<!DOCTYPE svg PUBLIC "-//W3C//DTD SVG 1.1//EN" "http://www.w3.org/Graphics/SVG/1.1/DTD/svg11.dtd">
<svg version="1.1" id="Layer_1" xmlns="http://www.w3.org/2000/svg" xmlns:xlink="http://www.w3.org/1999/xlink" x="0px" y="0px"
	 width="301.123px" height="148.905px" viewBox="-118.813 -58.529 301.123 148.905"
	 style="enable-background:new -118.813 -58.529 301.123 148.905;" xml:space="preserve">
<g id="Layer_51">
	<path id="Jaffarabad" style="fill:#CCCCCC;stroke:#FFFFFF;stroke-width:1.15;" d="M-57.883,75.733L-57.883,75.733l0.288-0.368
		l0.382-0.472l0.27-0.536l0.223-0.527l0.336-0.508l0.386-0.486l0.59-0.867l0.865-1.262l1.065-1.912l0.869-1.507l0.329-0.636
		l0.187-0.468l0.256-0.277l0.786-0.912l0.59-0.949l0.869-1.09l0.786-0.885l0.897-0.858l1.02-0.604l0.971-0.48l1.998-0.722
		l0.504-0.187l2.348-0.867l1.841-0.681l0.935-0.404l0.688-0.386l0.36-0.359l0.67-0.54l1.269-0.958l2.129-1.675l2.595-2.017
		l3.798-3.061l1.841-1.394l2.599-2.084l2.279-1.821l1.785-1.398l1.902-1.476l2.422-1.852l2.729-2.13l1.096-0.899l1.685-1.354
		l1.119-0.871l1.578-1.217l0.483-0.44l0.928-0.695l1.251-1.025l1.317-0.981l0.381-0.286l0.454-0.281l0.252-0.268l0.665-0.177
		l2.454-0.727l1.966-0.563L6.8,25.656l2.32-0.607l2.268-0.713l2.228-0.682l2.102-0.604l3.376-0.889l2.156-0.632l3.003-0.898
		l1.698-0.423l0.71-0.187l0.591-0.376l0.506-0.468l0.582-0.736l0.855-1.725l0.878-1.916l0.359-0.817l0.874-1.88l1.512-3.178
		l1.256-2.57l0.948-2.034l1.054-2.238l0.518-1.258l0.672-1.044l0.754-0.69l0.717-0.645l1.972-1.34l2.151-1.448l2.706-1.848
		l1.989-1.371l1.198-0.867l0.485-0.205l0.677-0.059l1.648-0.045l2.343,0.067l2.402-0.067l2.732,0.063l0.899,0.018l0.817,0.005
		l2.079-0.059l3.392,0.049l3.869,0.096l2.611-0.009l3.949,0.067l3.986,0.019l2.988-0.05l4.005,0.055l2.27,0.027l3.442,0.068
		l2.515-0.01l3.006-0.045l4.245,0.055l2.107,0.026l2.42-0.036l2.801-0.127l2.62-0.1l3.052,0.05l2.475,0.055l2.556,0.009l1.808,0.022
		l1.848-0.113l2.174-0.104l2.848-0.036h1.362l1.543,0.1l1.499,0.096l1.122,0.1l1.335,0.032h0.008l1.821,0.163l3.201-0.1l3.45-0.096
		l4.396-0.122l2.806-0.01l1.648-0.118l1.63-0.096l3.655-0.208L162.8-9.21l2.111-0.055l1.066-0.118l1.917-0.231l1.126-0.118
		l1.493-0.063l1.753-0.108l2.384-0.318l2.098-0.149l-0.336-3.328l-0.409-1.453l-0.99-1.435l-0.881-0.999l-0.681-0.731l-1.035-0.922
		l-0.89-0.871l-1.235-0.663l-1.162-0.286l-0.636,0.077l-0.877,0.341l-0.98,0.708l-1.742,1.39l-1.336,0.854l-1.743,1.316l-1.24,1.29
		l-1.262,0.989l-0.485,0.127l-0.577-0.172l-0.581-0.363l-1.226-0.096l-1.508-0.022l-2.443-0.187l-2.729-0.172l-0.658-0.164
		l-1.839-0.209l-2.811-0.095l-3.791,0.05l-3.859,0.286l-2.22-0.073l-2.08-0.122l-2.807-0.245l-3.337-0.6l-4-0.317l-4.404-0.763
		l-3.659-0.536l-4.985-0.931l-4.641-1.453l-4.295-1.839l-3.069-1.362l-4.522-2.156l-2.806-1.681l-4.109-2.151l-4.26-2.466
		l-2.715-1.621l-3.964-2.356l-5.748-3.755l-4.83-2.507l-3.451-1.793l-4.323-2.207l-3.014-1.993l-1.898-0.953l-2.229-1.199
		l-1.417-1.344l-1.82-2.284l-0.658-1.685l-0.372,0.01l-1.685,0.372L41.97-54.76l-1.439,0.449l-1.925,0.7l-1.676,0.739l-1.448,0.963
		l-1.349,1.145l-0.874,0.876l-0.675,1.162l-0.195,1.095l-0.032,1.716l0.148,1.594l-0.098,3.256l0.164,3.296l0.34,5.148l0.134,4.082
		l0.839,4.664l-0.054,1.92l-0.045,3.441l-0.61,3.002l-0.511,2.924L31.6-11.344l-1.739,1.189l-1.45,0.59l-2.228,0.168l-3.226-0.53
		l-3.585-0.846l-3.705-0.653l-2.019,0.091l-3.403,0.73l-2.311,0.359l-1.73-0.123l-2.103-0.177l-2.551-0.1l-3.292,0.122L-4.483-9.95
		l-3.619,0.944l-5.568,2.034l-3.195,1.484l-5.031,2.534l-2.461,1.489l-1.478,1.448l-0.75,1.353l-0.431,1.667l0.292,3.015
		l-0.004,1.262l-0.661,1.676l-1.993,2.058l-3.371,2.806l-3.106,2.111l-2.529,2.61l-0.797,0.559l-1.194,1.375l-1.399,1.844
		l-0.744,1.267l-1.442,1.263l-2.289,1.753l-2.197,0.989l-2.195,0.994l-5.542,1.449l-3.818,0.876l-4.207,0.862l-4.938,1.263
		l-5.384,1.207l-4.557,1.063l-1.854,0.595l-8.763,1.934l-16.779,6.303l-0.1,0.04l-1.668,0.505l-3.487,0.989l-1.18,0.29l-0.329,0.341
		v0.341l0.458,0.876l0.722,1.808l0.985,4.141l0.325,1.576l-0.129,1.639l-0.524,3.382l-0.327,1.676v1.112l0.266,1.099l0.59,1.454
		l1.775,2.274l1.383,1.221l1.841,2.23l0.795,1.625l0.325,0.872l0.07,1.334l0.065,0.754l0.459,0.481l0.265,0.872l-0.07,2.564v4.077
		l0.066,0.877l-0.524,0.586l-0.331,0.817l-0.064,0.581l0.098,0.781l1.966-0.173l2.338-0.254l2.302-0.277l1.017-0.014l2.209-0.386
		l2.018-0.2l2.218-0.386l1.607-0.305l1.734-0.235l0.811-0.009l0.688,0.096l0.241,0.222l0.205,0.1l0.327,0.178l0.44-0.114
		l0.526-0.187l0.484-0.304l0.356-0.363l0.647-0.326l0.643-0.404l0.116-0.358l-0.009-0.609l0.102-1.258l0.148-0.966l0.317-0.627
		l0.445-0.923l0.549-0.321l0.679-0.437l1.163-0.649l1.083-0.404l1.078-0.244l1.978-0.236l2.1-0.082l1.535-0.268l1.494-0.295
		l1.119-0.664l0.647-0.48l0.479-0.272l0.483-0.136l1.614-0.195l1.008,0.035l1.419,0.096l0.893,0.291L-57.883,75.733"/>
</g>
<g id="Layer_1_1_">
</g>
</svg>
