<?xml version="1.0" encoding="iso-8859-1"?>
<!-- Generator: Adobe Illustrator 16.0.4, SVG Export Plug-In . SVG Version: 6.00 Build 0)  -->
<!DOCTYPE svg PUBLIC "-//W3C//DTD SVG 1.1//EN" "http://www.w3.org/Graphics/SVG/1.1/DTD/svg11.dtd">
<svg version="1.1" xmlns="http://www.w3.org/2000/svg" xmlns:xlink="http://www.w3.org/1999/xlink" x="0px" y="0px"
	 width="33.996px" height="25.032px" viewBox="0 0 33.996 25.032" style="enable-background:new 0 0 33.996 25.032;"
	 xml:space="preserve">
<g id="Layer_82">
	<g id="Layer_87">
		<path id="Narowal" style="fill:#CCCCCC;stroke:#FFFFFF;stroke-width:1.07;" d="
			M0.431,18.485L0.431,18.485l0.078,0.106l0.068,0.104l0.065,0.177l0.047,0.426l0.022,0.096l0.062,0.209l0.058,0.137l0.106,0.107
			l0.127,0.061l0.12,0.028l0.091,0.036l0.08,0.066l0.08,0.09l0.06,0.098l0.022,0.104l0.04,0.121l0.066,0.137l0.117,0.076
			l0.072,0.043l0.091,0.034l0.036,0.019l0.017,0.039l0.016,0.088l0.021,0.129l0.046,0.184l0.065,0.17l0.065,0.161l0.034,0.058
			l0.062,0.049l0.055,0.043l0.091,0.035l0.063,0.043l0.054,0.033l0.033,0.065l0.066,0.239l0.014,0.089l0.044,0.057l0.092,0.021
			L2.9,22.258l0.235-0.037l0.132-0.02l0.119,0.028l0.033,0.089l0.03,0.104l-0.006,0.104l0.024,0.072l0.186,0.174l0.136,0.077
			l0.136,0.101l0.096,0.115l0.05,0.113l0.058,0.168l0.021,0.105l0.024,0.071l0.033,0.041l0.167,0.03l0.204,0.009l0.14,0.021
			l0.032,0.073l0.033,0.231l0.021,0.217l0.108,0.158l0.306-0.196l0.046-0.144l0.029-0.094l0.172-1.137l0.227,0.006l0.131,0.004
			l0.021,0.036l0.347,0.608l0.3,0.156l0.105,0.055l1.059,0.035l0.941-0.137l0.574-0.186l0.254-0.119l0.1-0.088l0.038-0.034
			l0.056-0.101l0.072-0.131l0.48-1.006l0.041-0.138l0.048-0.155l0.266-0.498l0.029-0.056l0.266-0.024l0.381-0.037l0.033-0.043
			l0.121-0.155l0.664-0.453l0.514-0.351l0.104-0.07l0.784-0.635l0.349-0.279l0.074-0.047l0.387-0.243l0.514-0.168l0.573,0.038
			l0.31,0.096l0.273,0.086l0.241,0.182l0.862,0.648l0.009,0.006l0.012,0.008l0.002,0.002l0.456,0.248h0.021h0.021h0.021l0.186-0.002
			h0.021l0.235-0.067l0.045-0.032l0.471-0.328l0.331-0.062l0.619,0.056l0.069-0.028l0.137-0.059l0.946-0.895l0.333,0.289l0.046,0.01
			l0.192,0.037l0.354-0.198l0.624-0.03l0.001-0.001l0.003-0.002l0.003-0.003l0.002-0.001l0.646-0.576l1.049,0.312l0.829,0.027
			l0.729-0.48l0.203-0.135l0.233-0.371l0.051-0.08l0.003-0.25l0.005-0.313l0.15-0.426l0.154-0.078l0.106-0.054l0.016-0.008
			l0.007-0.004l0.01-0.004l0.442,0.274l0.02,0.047l0.074,0.187l-0.059,0.66l0.106,0.164l0.066,0.104l0.236,0.008l0.185-0.09
			l0.055-0.026l1.363-1.062l0.116-0.254l0.035-0.229l0.066-0.45l0.02-0.023l0.23-0.266l0.197-0.094l0.454-0.216l0.435-0.207
			l0.2-0.19l0.147-0.483l-0.024-0.914l0.058-0.085l0.178-0.268l1.327-0.432l0.233-0.116L32.664,12l0.449-0.334l0.002-0.056
			l0.003-0.145l0.021-0.973l0.27-0.355l-0.029-0.105l-0.015-0.054l-0.061-0.089l-0.113-0.17l-0.062-0.033l-0.124-0.064l-0.674-0.027
			L32.06,9.188l-0.133-0.064l-0.262-0.128l-0.074-0.145l-0.079-0.153l-0.029-0.136l-0.05-0.223l0.062-0.473l0.037-0.284
			l-0.113-0.166l-0.1-0.146l-0.047-0.067l-0.536-0.373l-0.251-0.173l-0.933-0.529L29.31,5.857l-0.118-0.132l-1.123-0.529
			l-0.672-0.655l-0.185-0.112l-0.05-0.03L27.076,4.39l-0.232-0.023l-0.198-0.02L25.863,4.27l-0.199-0.125l-0.129-0.604l-0.159-0.193
			l-0.317-0.034l-0.056-0.006l-0.795,0.371l-0.3,0.073l-0.229,0.057l-0.341-0.051l-0.479-0.272l-0.292-0.845l-0.064-0.072
			l-0.02-0.021l-0.377-0.427l-0.127-0.042l-0.355-0.45L20.979,1.04l-0.458-0.122l-0.425,0.04L19.068,0.54l-0.23,0.011l-0.039,0.002
			l-0.362,0.265l-0.019,0.017l-0.385,0.365l-0.234,0.296l-0.137,0.172l-0.053,0.066L17.604,1.75l-0.059,0.156l-0.37,0.292
			l-0.134,0.106l-0.146,0.03l-0.209,0.044l-0.26-0.007l-0.223-0.11L16.043,2.18L15.834,2.16l-0.413-0.043l-0.113-0.142L15.2,1.841
			l-0.28-0.193l-0.144,0.885l0.004,0.372l-0.034,0.257L14.63,3.468l-0.08,0.228l-0.097,0.147l-0.151,0.138l-0.146,0.124l-0.15,0.081
			l-0.067,0.038l-0.097,0.075l-0.088,0.142l-0.141,0.184l-0.086,0.106l-0.084,0.079L13.34,4.872l-0.139,0.052l-0.087,0.013
			l-0.104,0.005l-0.18-0.009l-0.158-0.022l-0.056-0.027l-0.054,0.004l-0.042,0.019l-0.053,0.036l-0.041,0.053l-0.059,0.077
			l-0.026,0.089l0.021,0.08l0.021,0.029l0.046,0.041l0.044,0.016l0.023,0.022l0.006,0.031l-0.009,0.065l-0.059,0.296l-0.013,0.055
			l-0.025,0.02l-0.059,0.007l-0.143-0.007l-0.087,0.006l-0.087,0.016l-0.052,0.018l-0.021,0.03l0.001,0.045l0.017,0.046l0.065,0.059
			l0.066,0.038l0.02,0.029v0.042l-0.053,0.157l-0.057,0.201l-0.085,0.329l-0.07,0.243l-0.076,0.201l-0.052,0.206L11.694,7.54
			l-0.033,0.005l-0.044-0.006l-0.04-0.022l-0.048-0.01L11.483,7.51l-0.041,0.012l-0.06,0.021l-0.057,0.042L11.273,7.63L11.26,7.668
			L11.251,7.73l0.039,0.082l0.061,0.069l0.091,0.063l0.04,0.075l0.011,0.077l-0.005,0.059l-0.015,0.031l-0.035,0.036l-0.023,0.044
			L11.41,8.321l-0.007,0.038l-0.022,0.023l-0.05,0.011h-0.073l-0.134-0.021l-0.137-0.035L10.85,8.306l-0.117-0.017L10.7,8.288
			l-0.079,0.021h-0.074l-0.048-0.01l-0.043-0.03l-0.03-0.04l-0.039-0.019l-0.036-0.006L10.31,8.206l-0.062,0.028l-0.031,0.026
			l-0.035,0.04l-0.02,0.051l-0.004,0.038l0.01,0.046l0.047,0.06l0.021,0.057l0.021,0.102l0.008,0.129l-0.004,0.042l-0.014,0.017
			l-0.069,0.011l-0.063-0.014l-0.047-0.037l-0.047-0.03L9.995,8.755l-0.05,0.001L9.912,8.761L9.883,8.777L9.83,8.827L9.781,8.883
			L9.698,8.962L9.633,9.015L9.562,9.045L9.508,9.053l-0.09-0.008l-0.08-0.032L9.3,8.977L9.246,8.93L9.203,8.893l-0.099-0.05
			l-0.08-0.028L8.948,8.799L8.728,8.788L8.594,8.767l-0.107-0.04L8.424,8.685L8.39,8.647L8.354,8.646L8.315,8.667l-0.026,0.03
			L8.267,8.734L8.242,8.747L8.218,8.746L8.173,8.732l-0.04,0.001L8.09,8.755L8.05,8.792L8.003,8.875L7.942,8.983l-0.06,0.074
			L7.86,9.104L7.847,9.163l0.008,0.066L7.88,9.271l0.053,0.065l0.062,0.076L8.04,9.509l0.021,0.077v0.055L8.054,9.684l-0.039,0.04
			L7.934,9.768L7.837,9.811L7.793,9.843L7.767,9.866L7.753,9.882l0.001,0.049l0.03,0.151l0.013,0.223L7.811,10.4l-0.006,0.031
			l-0.026,0.03l-0.056,0.025l-0.073,0.006l-0.064-0.007l-0.117-0.026l-0.039-0.02l-0.063-0.024l-0.04-0.002l-0.034,0.019
			L7.26,10.447l-0.033,0.061L7.214,10.57l0.027,0.088l0.013,0.05l-0.013,0.051l-0.064,0.17l-0.099,0.168l-0.066,0.136L6.904,11.38
			l-0.08,0.083l-0.087,0.064l-0.024,0.058L6.707,11.72l0.023,0.13l0.041,0.117l0.101,0.137l0.159,0.179l0.168,0.185l0.118,0.177
			l0.156,0.213l0.089,0.133l0.041,0.11l0.008,0.066l-0.024,0.058l-0.075,0.08l-0.057,0.056l-0.011,0.027l0.009,0.046l0.018,0.049
			l-0.004,0.111L7.46,13.726l-0.035,0.147l-0.052,0.213l-0.05,0.24l-0.044,0.098l-0.043,0.041l-0.053,0.033l-0.073,0.01
			l-0.094-0.017l-0.084-0.024l-0.076-0.008l-0.069,0.004l-0.076,0.022l-0.03,0.022l-0.03,0.045l-0.04,0.057l-0.054,0.042
			L6.501,14.69l-0.06,0.032l-0.059,0.007l-0.077-0.011l-0.093-0.012l-0.046,0.004l-0.045,0.021L6.05,14.771l-0.063,0.042
			l-0.079,0.079l-0.074,0.069l-0.108,0.035H5.631l-0.033,0.008l-0.053,0.043l-0.07,0.072l-0.067,0.034l-0.066,0.011H5.206
			l-0.133-0.023l-0.062-0.004l-0.042,0.01l-0.051,0.031l-0.044,0.041l-0.078,0.068L4.723,15.35l-0.097,0.039l-0.083,0.015
			L4.45,15.392l-0.121-0.022l-0.116-0.031l-0.061-0.002L4.086,15.35l-0.055,0.025l-0.058,0.039l-0.078,0.08l-0.137,0.102
			l-0.11,0.074l-0.098,0.047l-0.067,0.039l-0.107,0.082l-0.072,0.09l-0.103,0.123l-0.148,0.139L2.93,16.312l-0.071,0.094
			L2.71,16.592l-0.197,0.195l-0.141,0.086L2.261,16.93l-0.183,0.047l-0.058,0.018l-0.062,0.061l-0.04,0.057l0.005,0.049l0.04,0.072
			l0.016,0.07l0.001,0.045l-0.027,0.039L1.86,17.527l-0.048,0.057l-0.002,0.024l0.006,0.024l0.051,0.146l0.047,0.162l-0.009,0.121
			l-0.022,0.082L1.854,18.17l-0.05-0.002l-0.042-0.035l-0.051-0.036l-0.076-0.025H1.562l-0.042,0.027l-0.014,0.017l-0.025,0.03
			l-0.025,0.013H1.423l-0.031-0.013l-0.034-0.026l-0.046-0.048l-0.03-0.024l-0.054-0.004l-0.029,0.022l-0.035,0.093l-0.058,0.125
			L1.055,18.35L0.956,18.41l-0.09,0.01l-0.043,0.033l-0.074,0.014l-0.053-0.006l-0.135-0.004L0.431,18.485"/>
	</g>
</g>
<g id="Layer_1">
</g>
</svg>
