<?xml version="1.0" encoding="iso-8859-1"?>
<!-- Generator: Adobe Illustrator 16.0.4, SVG Export Plug-In . SVG Version: 6.00 Build 0)  -->
<!DOCTYPE svg PUBLIC "-//W3C//DTD SVG 1.1//EN" "http://www.w3.org/Graphics/SVG/1.1/DTD/svg11.dtd">
<svg version="1.1" xmlns="http://www.w3.org/2000/svg" xmlns:xlink="http://www.w3.org/1999/xlink" x="0px" y="0px"
	 width="18.168px" height="21.807px" viewBox="0 0 18.168 21.807" style="enable-background:new 0 0 18.168 21.807;"
	 xml:space="preserve">
<g id="Layer_71">
	<g id="Layer_76">
		<path id="Peshawar" style="fill:#CCCCCC;stroke:#FFFFFF;stroke-width:1.07;" d="M2.195,4.079
			L2.195,4.079L2.191,4.083L2.1,4.173L1.992,4.266L1.859,4.361L1.719,4.48L1.609,4.597L1.512,4.698L1.428,4.783l-0.059,0.06
			L1.336,4.874L1.27,4.924L1.217,4.961L1.095,5.045L1.018,5.151l-0.006,0.13l0.044,0.29l0.05,0.174L1.092,5.887l-0.02,0.039
			L0.994,6.011L0.925,6.053L0.874,6.085L0.776,6.158L0.634,6.256L0.602,6.289L0.579,6.331l0.016,0.165l0.036,0.115l0.002,0.136
			L0.612,6.809L0.854,7.05L0.96,7.125l0.106,0.093L1.08,7.353L1.078,7.396L1.073,7.515L1.066,7.593l0.007,0.098l0.004,0.063
			l0.03,0.109l0.031,0.089l0.123,0.131l0.049,0.052l0.058,0.102l0.021,0.069l0.015,0.052l-0.021,0.18l-0.029,0.1L1.288,8.811
			L1.23,8.996L1.191,9.088L1.165,9.161L1.128,9.275L1.105,9.363l-0.02,0.088L1.069,9.536L1.062,9.639l-0.01,0.066L1.051,9.72
			L1.039,9.809L1.02,9.966l0.217-0.03l0.021-0.003l0.068,0.009l0.065,0.032l0.051,0.001l0.048-0.011l0.089-0.01l0.187,0.019
			l0.074,0.037l0.062,0.016l0.096,0.028l0.071,0.024l0.033,0.048l0.035,0.073l0.041,0.086l0.027,0.05L2.26,10.38l0.08,0.193
			l0.025,0.105l0.021,0.091l0.055,0.106l-0.021,0.158L2.35,11.232l-0.021,0.079l-0.015,0.164l0.02,0.105l0.13,0.113l0.064,0.033
			l0.068,0.048l0.143,0.115l0.069,0.045l0.057,0.043l0.061,0.042l0.031,0.215l0.1,0.094l0.13,0.1l0.271,0.269l0.018,0.063
			l0.015,0.061l0.009,0.037l0.058,0.121l0.076,0.133l0.069,0.137l0.062,0.117l0.061,0.109l0.037,0.092l0.04,0.102l0.014,0.047
			l-0.045,0.06l-0.019,0.028L3.84,13.854l-0.001,0.002l-0.012,0.061L3.635,14.01l-0.06,0.006l-0.089,0.078l-0.101,0.105l-0.046,0.27
			l-0.021,0.168l-0.027,0.197L3.25,14.975l-0.017,0.179v0.032l0.056,0.1l0.132,0.174l0.115,0.102l0.085,0.085l0.097,0.1l0.131,0.112
			l0.207,0.127l0.126,0.062l0.277,0.144l0.05,0.036l0.396,0.203l0.021,0.066l0.011,0.178l0.062,0.119l0.021,0.014l0.033,0.023
			l0.063,0.047l0.034,0.016l0.05-0.012h0.028l0.029,0.022l0.031,0.051l0.016,0.048l0.026,0.014l0.117,0.025l0.166,0.049l0.129,0.053
			l0.164,0.096l0.08,0.045l0.078,0.064l0.115,0.096l0.052,0.042l0.042,0.038l0.049,0.056l0.033,0.043l0.046,0.019l0.161,0.094
			l0.176,0.13l0.038,0.047l0.007,0.062l-0.025,0.144l-0.036,0.11l-0.036,0.132l-0.027,0.085l-0.028,0.111L6.579,18.74l-0.075,0.164
			l-0.088,0.141l-0.042,0.039l-0.015,0.039l0.008,0.064l0.027,0.22l-0.075,0.004l-0.06,0.054L6.204,19.59L6.14,19.711L6.122,19.77
			l-0.009,0.048l-0.007,0.021l-0.004,0.121l0.027,0.178l-0.012,0.055l-0.004,0.041l0.003,0.046l0.019,0.041l0.104,0.069l0.058,0.064
			l0.049,0.086l0.063,0.084l0.038,0.038l0.026,0.031l0.045,0.034l0.048,0.041l0.146,0.086l0.139,0.052l0.113,0.04l0.125,0.053
			l0.348,0.141l0.107,0.037l0.008,0.002l0.186,0.078l0.427-0.063l0.121-0.017l0.106,0.012l0.14,0.017l0.133-0.04l0.138-0.021
			l0.153,0.004l0.128,0.018l0.476-0.035l0.191-0.014L9.825,21.1l0.08-0.022l0.103-0.01l0.115-0.007l0.415-0.149l0.061-0.026
			l0.331-0.172l0.212-0.123l0.283-0.174l0.241-0.117l0.331-0.168l0.263-0.162l0.269-0.146l0.115-0.054l0.204-0.084l0.467-0.219
			l0.149-0.117l0.062-0.049l0.104-0.066l0.112-0.066l0.102-0.052l0.088-0.047l0.285-0.146l0.108-0.061l0.117-0.051l0.14-0.118
			l0.092-0.009l0.157-0.004l0.076,0.014l0.066,0.001l0.029-0.058l-0.023-0.105l-0.065-0.262l0.003-0.111l0.061-0.111l0.088-0.133
			l0.055-0.082l0.071-0.105l0.118-0.094l0.261-0.293l0.006-0.055l0.122-0.148l0.146-0.137l0.115-0.348l0.016-0.042l0.023-0.06
			l0.221-0.168l0.064-0.086l0.018-0.039l0.012-0.065l0.004-0.058l0.076-0.061l0.082,0.03l0.005,0.002l0.061,0.024l0.116-0.014
			l0.093-0.076l0.092-0.082l0.089-0.142l0.02-0.031l0.113-0.096l0.122-0.084l0.175-0.003l0.061,0.025l0.109-0.074v-0.111
			l-0.066-0.064l0.062-0.035l-0.064-0.199l-0.169-0.139l-0.066-0.104l-0.062-0.145l-0.032-0.092l0.001-0.008l0.06-0.201l0.012-0.105
			l-0.008-0.071l0.024-0.063l-0.003-0.072l-0.005-0.049l0.037-0.234l0.021-0.107l0.023-0.125l0.028-0.078l0.018-0.154l0.009-0.102
			l0.001-0.031l0.008-0.135l-0.013-0.117l0,0l-0.008-0.09l-0.105-0.238l-0.006-0.07l-0.01-0.102L17.2,12.391l0.062-0.188
			l0.044-0.139l0.029-0.081l0.067-0.196l0.011-0.164v-0.099l0.056-0.131l0.017-0.098l0.023-0.033l0.053-0.09v-0.196l0.016-0.215
			l-0.041-0.121l0.008-0.069l-0.062,0.01l-0.071,0.028l-0.227,0.113l-0.069,0.015l-0.164,0.018l-0.161-0.006l-0.235,0.047
			l-0.044,0.021l-0.041,0.051l-0.074,0.095l-0.062,0.023l-0.121-0.026l-0.08,0.031l-0.224,0.066l-0.229,0.019l-0.251,0.05
			l-0.165,0.022l-0.017-0.005l-0.126-0.042l-0.041-0.031l-0.21-0.093l-0.189-0.056l-0.043-0.038l0.01-0.032l-0.017-0.024
			l0.002-0.059l-0.082-0.08L14.52,10.65l-0.062-0.115l-0.004-0.01l0.023-0.102l0.069-0.043l0.051-0.093l0.021-0.016l0.117-0.029
			l0.104,0.008h0.052l0.055,0.011l0.06-0.009h0.014l0.011-0.004l0.005-0.001v-0.001l0.053-0.02l0.011-0.164l0.001-0.016l0.095-0.084
			l-0.003-0.031l-0.02-0.035L15.09,9.847l-0.033-0.033l-0.015-0.043l-0.04-0.023l-0.189-0.02l-0.06-0.035l-0.03-0.029l-0.08-0.007
			l-0.069-0.014l0.058-0.053l0.096-0.107l0.088-0.11l0.069-0.123l0.054-0.08l0.089-0.052l0.115-0.006l0.099-0.004l-0.008-0.044
			l-0.03-0.051l-0.028-0.04l-0.073-0.041L14.968,8.92L14.93,8.923l-0.03,0.001l-0.023-0.015L14.86,8.887l-0.016-0.03l-0.008-0.034
			l-0.01-0.053L14.7,8.652l-0.063-0.024l-0.013-0.072L14.61,8.485l-0.044-0.08l-0.043-0.049l-0.089-0.082l-0.044-0.095l-0.031-0.075
			l-0.089-0.036l-0.053-0.001l0.038-0.056l0.046-0.044l0.101-0.09l0.127-0.059l0.094-0.041l0.032-0.017l0.06-0.055l-0.019-0.051
			L14.67,7.62l-0.045-0.044l-0.057-0.045L14.514,7.49L14.47,7.453l-0.035-0.074L14.42,7.248l-0.061-0.076l-0.098-0.077l-0.074-0.087
			l-0.002-0.132l-0.002-0.108l0.004-0.054L14.2,6.623l0.034-0.122l0.04-0.146L14.34,6.18l0.068-0.053l0.143-0.037l0.141-0.026
			l0.16,0.001l0.118,0.031l0.102-0.009l0.062-0.028l0.033-0.021l-0.021-0.026l-0.055-0.053l-0.081-0.053l-0.075-0.05l-0.062-0.05
			l-0.042-0.044l-0.167-0.056l-0.469-0.078l-0.392-0.234h-0.229l-0.112-0.056l-0.011-0.021l-0.117-0.235l-0.02-0.056l-0.059-0.034
			l-0.061-0.001l-0.062-0.003l-0.083-0.042l-0.058-0.035l-0.034-0.034l-0.047-0.046l-0.039-0.037l-0.06-0.045L12.77,4.716
			l-0.066-0.04l-0.068-0.041L12.6,4.585l-0.009-0.033l-0.004-0.015l-0.011-0.058l-0.008-0.055l-0.007-0.057l-0.043-0.024
			l-0.069-0.059l-0.047-0.057L12.36,4.165l-0.024-0.043l-0.039-0.046l-0.058-0.052l-0.08-0.064l-0.036-0.005l-0.064-0.003
			l-0.087,0.013l-0.074,0.018l-0.079,0.029l-0.093,0.032l-0.085,0.029l-0.056,0.009l-0.144-0.048L11.43,4.027L11.37,3.99
			l-0.054-0.041L11.25,3.894L11.179,3.86L11.09,3.827l-0.084-0.038l-0.068-0.041L10.89,3.716l-0.051-0.021l-0.094-0.023l-0.062-0.01
			l-0.066-0.026l-0.071-0.021L10.444,3.62l-0.099,0.007l-0.062-0.005l-0.045-0.016l-0.06-0.055l-0.039-0.062l-0.019-0.086
			l-0.036-0.049L10.045,3.3L9.998,3.259L9.983,3.246l-0.052-0.04l-0.046-0.04L9.841,3.125L9.763,3.056L9.7,3.019L9.649,2.99
			L9.6,2.974l-0.15-0.189L9.345,2.656L9.033,2.422L9.001,2.401L8.979,2.428l0.017,0.048L9.005,2.53L8.97,2.568L8.923,2.597
			L8.874,2.612l-0.09,0.015L8.716,2.636L8.639,2.642L8.558,2.648L8.435,2.659L8.288,2.668L8.137,2.65L8.043,2.639l-0.12-0.014
			L7.822,2.606H7.733L7.624,2.573l-0.13-0.035L7.406,2.497L7.333,2.458L7.25,2.423L7.162,2.399L7.085,2.377L7.032,2.37L6.955,2.356
			l-0.06-0.01L6.817,2.347H6.725L6.686,2.358L6.66,2.365L6.584,2.403L6.506,2.419L6.428,2.418l-0.08-0.009L6.287,2.414L6.227,2.419
			l-0.06,0.005L6.076,2.415l-0.028-0.04L6.033,2.29L6.015,2.264L5.991,2.226l-0.078-0.05L5.878,2.054l-0.061-0.12L5.7,1.865
			L5.611,1.819l-0.064-0.06l-0.05-0.101L5.456,1.573L5.421,1.48l0.007-0.109l0.066-0.078l0.031-0.104L5.54,1.098l0.019-0.084
			L5.566,0.93l0.018-0.096l0.003-0.102l0.019-0.044L5.601,0.682l-0.02-0.028L5.539,0.613L5.512,0.596L5.467,0.564L5.426,0.549
			l-0.062,0.01L5.292,0.645l-0.18,0.054l-0.105,0.01L4.859,0.755L4.734,0.811L4.703,0.852l0.071,0.06L4.839,0.97L4.8,1.042
			L4.763,1.125L4.696,1.261L4.64,1.33L4.514,1.399l-0.152,0.06l-0.104,0.07L4.135,1.624L4.031,1.691L3.954,1.743L3.739,1.801
			L3.582,1.853L3.479,1.899L3.347,1.961L3.258,2.023L3.236,2.141l0.015,0.051l0.018,0.042L3.224,2.308L3.182,2.353L3.093,2.414
			L3.05,2.444L2.952,2.52L2.87,2.592l0.005,0.051l-0.04,0.065L2.714,2.803L2.617,2.85L2.526,2.938L2.433,2.984L2.384,3.006
			L2.352,3.039l-0.009,0.1L2.41,3.22l0.004,0.098L2.39,3.419L2.351,3.454l0.003,0.189l0.06,0.127L2.348,3.921L2.24,4.022
			L2.195,4.079"/>
	</g>
</g>
<g id="Layer_1">
</g>
</svg>
