<?xml version="1.0" encoding="utf-8"?>
<!-- Generator: Adobe Illustrator 16.0.4, SVG Export Plug-In . SVG Version: 6.00 Build 0)  -->
<!DOCTYPE svg PUBLIC "-//W3C//DTD SVG 1.1//EN" "http://www.w3.org/Graphics/SVG/1.1/DTD/svg11.dtd">
<svg version="1.1" id="Layer_1" xmlns="http://www.w3.org/2000/svg" xmlns:xlink="http://www.w3.org/1999/xlink" x="0px" y="0px"
	 width="301.026px" height="223.235px" viewBox="-125.838 -93.154 301.026 223.235"
	 style="enable-background:new -125.838 -93.154 301.026 223.235;" xml:space="preserve">
<g id="Layer_54">
	<path id="Jhelum" style="fill:#CCCCCC;stroke:#FFFFFF;stroke-width:1.15;" d="M169.675-27.768L169.675-27.768l-0.117,0.012
		l-0.89-0.498l-3.165-1.782l-2.632-1.038l-0.087-0.018l-1.144-0.257l-2.373-3.704l-1.448-2.25l-0.715-0.499l-1.372-0.955
		l-10.449-3.786l-3.129-1.125l-9.688-2.081l-3.44-1.248l-1.002-0.58l-2.673-1.559l-0.463-1.318l-0.51-1.454l0.369-1.682l0.123-0.604
		l0.076-3.252l0.874-1.325l0.403-0.645l1.354-0.616l0.122-0.053l0.053-0.023l1.501-0.773l4.343-1.864l1.184-1.4l0.64-0.768
		l0.223-5.731l0.11-2.644l-0.346-2.819l-0.369-3.1l-0.498-0.217l-0.65-0.275l-0.558-0.24l-0.579-0.434l-0.961-0.745l-1.16,0.094
		l-0.071,0.006l-1.395,1.143l-0.58,0.469l-0.281-0.762l0.656-3.282l-3.628-1.524l-1.242-1.395l0.076-2.508l-1.752,0.229
		l-0.153,0.064l-0.275,0.07l-0.404,0.053l-0.345,0.029l-0.312,0.211l-0.094,0.363l-0.123,0.018l-0.281,0.053l-0.246,0.047
		l-0.223,0.041l-0.199,0.035l-0.188,0.024l-0.182,0.017l-0.165,0.006l-0.151,0.006h-0.146h-0.146l-0.129-0.006h-0.123h-0.129h-0.123
		h-0.129l-0.123,0.012l-0.117,0.012l-0.111,0.018l-0.095,0.024l-0.093,0.029l-0.071,0.035l-0.064,0.047l-0.053,0.046l-0.035,0.053
		l-0.023,0.053l-0.023,0.064l-0.029,0.065l-0.017,0.064l-0.019,0.065l-0.04,0.076l-0.036,0.07l-0.046,0.07l-0.048,0.07l-0.059,0.077
		l-0.076,0.07l-0.069,0.07l-0.065,0.076l-0.075,0.07l-0.077,0.07l-0.063,0.07l-0.071,0.07l-0.082,0.07l-0.07,0.076l-0.053,0.076
		l-0.047,0.082l-0.059,0.083l-0.046,0.093l-0.036,0.094l-0.023,0.094l-0.018,0.105l-0.012,0.1l-0.006,0.111l-0.006,0.105
		l0.006,0.118l0.006,0.111l0.007,0.111l0.005,0.123l0.018,0.111l0.018,0.118l0.012,0.111l0.03,0.117l0.022,0.105l0.018,0.106
		l0.035,0.094l0.029,0.1l0.018,0.094l0.019,0.088l0.005,0.082v0.088l-0.005,0.07l-0.013,0.076l-0.023,0.07l-0.053,0.065
		l-0.035,0.059l-0.047,0.052l-0.047,0.053l-0.047,0.041l-0.047,0.036l-0.076,0.029l-0.064,0.023l-0.059,0.018l-0.064,0.011
		l-0.088,0.006h-0.064h-0.064h-0.059l-0.094-0.012l-0.064-0.012l-0.076-0.012l-0.094-0.023l-0.07-0.024l-0.082-0.023l-0.1-0.029
		l-0.082-0.029l-0.095-0.041l-0.11-0.035l-0.076-0.035l-0.088-0.035l-0.105-0.035l-0.076-0.035l-0.07-0.029l-0.076-0.041
		l-0.053-0.029l-0.029-0.023L114-83.321l-0.036-0.023l-0.034-0.023l-0.041-0.018l-0.059-0.023l-0.047-0.023l-0.077-0.024
		l-0.075-0.035l-0.095-0.029l-0.082-0.029l-0.104-0.029l-0.1-0.029l-0.088-0.023l-0.082-0.018l-0.094-0.018l-0.082-0.012
		l-0.077-0.006h-0.082h-0.076l-0.075,0.006l-0.071,0.012l-0.082,0.018l-0.094,0.023l-0.1,0.023l-0.104,0.035l-0.106,0.029
		l-0.093,0.029l-0.106,0.023l-0.105,0.023l-0.094,0.018h-0.094h-0.081l-0.082-0.006l-0.083-0.018l-0.076-0.029l-0.082-0.029
		l-0.064-0.035l-0.059-0.047l-0.07-0.047l-0.088-0.053l-0.076-0.064l-0.082-0.053l-0.088-0.053l-0.094-0.047l-0.088-0.041
		l-0.1-0.035l-0.105-0.018l-0.123-0.006l-0.117,0.006l-0.117,0.012l-0.123,0.018l-0.123,0.029l-0.123,0.029l-0.111,0.029
		l0.088-0.018l-0.111,0.029l-0.111,0.035l-0.094,0.029l-0.111,0.029l-0.105,0.035l-0.077,0.029l-0.122,0.029l-0.13,0.023
		l-0.122,0.018l-0.13,0.012l-0.123,0.012h-0.129h-0.123l-0.129-0.012l-0.123-0.018l-0.122-0.029l-0.106-0.035l-0.1-0.035
		l-0.111-0.035l-0.076-0.035l-0.082-0.029l-0.088-0.023l-0.07-0.012h-0.064l-0.053,0.012l-0.082,0.023l-0.046,0.035l-0.036,0.047
		l-0.046,0.064l-0.036,0.076l-0.029,0.082l-0.035,0.105l-0.029,0.105l-0.018,0.111l-0.012,0.123v0.117v0.118l0.012,0.111
		l0.029,0.105l0.047,0.094l0.042,0.082l0.04,0.076l0.059,0.07l0.059,0.064l0.082,0.064l0.059,0.058l0.064,0.065l0.064,0.064
		l0.083,0.07l0.059,0.07l0.053,0.07l0.04,0.07l0.048,0.077l0.023,0.076l0.017,0.07v0.076l-0.023,0.076l-0.041,0.07l-0.041,0.064
		l-0.047,0.076l-0.058,0.064l-0.071,0.059l-0.075,0.053l-0.071,0.052l-0.082,0.047l-0.094,0.041l-0.087,0.046l-0.083,0.047
		l-0.105,0.059l-0.1,0.059l-0.105,0.07l-0.111,0.076l-0.059,0.094l-0.123,0.1l-0.094,0.117l-0.094,0.124l-0.094,0.134l-0.076,0.141
		l-0.06,0.159l-0.034,0.17l-0.041,0.17l-0.012,0.188l-0.006,0.199v0.199v0.205l0.006,0.217v0.223v0.229v0.229l-0.018,0.234v0.229
		l-0.023,0.229l-0.042,0.217l-0.046,0.211l-0.053,0.188l-0.082,0.181l-0.088,0.164l-0.094,0.141l-0.118,0.135l-0.104,0.111
		l-0.118,0.1l-0.128,0.076l-0.123,0.058l-0.129,0.041l-0.123,0.024l-0.129,0.005l-0.123-0.012l-0.124-0.023l-0.111-0.041
		l-0.111-0.053l-0.064-0.071l-0.087-0.087l-0.083-0.094l-0.069-0.111l-0.06-0.111l-0.064-0.117l-0.053-0.129l-0.059-0.117
		l-0.053-0.129l-0.053-0.117l-0.07-0.129l-0.053-0.111l-0.059-0.117l-0.053-0.111l-0.047-0.111l-0.052-0.111l-0.023-0.117
		l-0.024-0.111l-0.023-0.123v-0.117v-0.129v-0.123l0.023-0.135l0.024-0.141l0.017-0.152l0.018-0.152l0.029-0.164l0.035-0.17
		l0.018-0.17l0.019-0.176l0.011-0.182l0.012-0.182v-0.175l-0.012-0.176l-0.011-0.17l-0.023-0.164l-0.048-0.159l-0.034-0.158
		l-0.054-0.141l-0.059-0.141l-0.063-0.123l-0.089-0.123l-0.088-0.111l-0.082-0.105l-0.104-0.094l-0.106-0.082l-0.111-0.082
		l-0.122-0.076l-0.106-0.071l-0.123-0.064l-0.117-0.07l-0.123-0.065l-0.117-0.064l-0.117-0.077l-0.117-0.082l-0.094-0.088
		l-0.105-0.105l-0.094-0.106l-0.071-0.123l-0.081-0.123l-0.064-0.135l-0.059-0.129l-0.047-0.129l-0.06-0.123l-0.04-0.117l-0.029-0.1
		l-0.035-0.094l-0.036-0.094l-0.022-0.082l-0.023-0.088l-0.047-0.094l-0.024-0.1l-0.029-0.117l-0.029-0.123l-0.04-0.141
		l-0.042-0.141l0.019-0.159l-0.042-0.164l-0.052-0.159l-0.041-0.158l-0.035-0.152l-0.035-0.152l-0.036-0.147l-0.029-0.129
		l-0.053-0.129l-0.046-0.117l-0.042-0.111l-0.059-0.1l-0.063-0.087l-0.094-0.083l-0.082-0.07l-0.101-0.046l-0.088-0.041
		l-0.099-0.035l-0.124-0.018l-0.105-0.011h-0.117l-0.105,0.018l-0.1,0.023l-0.111,0.03l-0.088,0.035l-0.087,0.041l-0.088,0.047
		l-0.059,0.047l-0.065,0.059l-0.064,0.053l-0.047,0.053l-0.053,0.059l-0.035,0.076l-0.029,0.082l-0.023,0.094l-0.018,0.123
		l-0.018,0.135l-0.018,0.164l-0.022,0.182v0.193l-0.013,0.199l-0.012,0.206l-0.018,0.205l-0.012,0.194l-0.012,0.176l-0.018,0.164
		l-0.023,0.146l-0.029,0.123l-0.034,0.117l-0.054,0.1l-0.059,0.083l-0.076,0.082l-0.076,0.064l-0.094,0.053l-0.123,0.046
		l-0.117,0.047l-0.129,0.035l-0.123,0.035l-0.135,0.029l-0.129,0.03l-0.146,0.035l-0.17,0.036l-0.164,0.047l-0.164,0.046
		l-0.182,0.047l-0.177,0.052l-0.176,0.053l-0.181,0.059l-0.164,0.059l-0.183,0.059l-0.157,0.059l-0.165,0.059l-0.175,0.064
		l-0.159,0.059l-0.17,0.052l-0.188,0.053l-0.192,0.053l-0.193,0.041l-0.224,0.041l-0.217,0.035l-0.21,0.023l-0.224,0.023
		l-0.211,0.011l-0.205,0.006l-0.182-0.006l-0.188-0.005l-0.182-0.018l-0.17-0.018l-0.141-0.029l-0.17-0.029l-0.158-0.035
		l-0.158-0.036l-0.165-0.046l-0.146-0.041l-0.17-0.041l-0.176-0.042l-0.159-0.041l-0.164-0.035l-0.181-0.041l-0.159-0.029
		l-0.157-0.024l-0.164-0.017l-0.141-0.018l-0.159-0.006l-0.141-0.005h-0.141h-0.158h-0.129h-0.146l-0.158,0.005l-0.135,0.006h0.199
		l-0.152,0.011l-0.182,0.012l-0.135,0.012l-0.141,0.018l-0.123,0.024l-0.129,0.029l-0.129,0.035l-0.123,0.041L86.49-82.09
		l-0.128,0.064l-0.117,0.077l-0.117,0.088l-0.118,0.1l-0.111,0.129l-0.104,0.128l-0.1,0.141l-0.106,0.146l-0.099,0.141l-0.101,0.135
		l-0.104,0.123l-0.095,0.118l-0.088,0.093l-0.105,0.077l-0.111,0.07l-0.117,0.046l-0.111,0.035l-0.104,0.018l-0.095,0.012
		l-0.099,0.005h-0.082l-0.082-0.005l-0.088-0.006l-0.082-0.012l-0.083-0.018l-0.087-0.017l-0.095-0.018l-0.111-0.012l-0.117-0.012
		l-0.123-0.012l-0.122-0.012l-0.13-0.018l-0.123-0.012l-0.123-0.018l-0.123-0.017l1.009-0.029l-0.106-0.03l-0.117-0.029L83.49-80.66
		l-0.07-0.041l-0.094-0.053l-0.053-0.053l-0.041-0.064l-0.029-0.064l-0.028-0.082l-0.007-0.076v-0.076l0.007-0.088l0.022-0.082
		l0.018-0.082l0.029-0.076l0.035-0.07l0.041-0.059l0.041-0.059l0.076-0.059l0.059-0.046l0.064-0.041l0.076-0.041l0.111-0.035
		l0.094-0.041l0.129-0.047l0.123-0.041l0.129-0.041l0.112-0.047l0.116-0.046l0.123-0.047l0.088-0.053l0.105-0.053l0.059-0.053
		l0.042-0.059l0.029-0.064l0.017-0.059l0.013-0.059l0.011-0.059v-0.064l0.006-0.053l0.007-0.046l0.006-0.047l0.005-0.041v-0.041
		l-0.023-0.052l-0.023-0.041l-0.029-0.047l-0.053-0.047l-0.064-0.053l-0.111-0.052l-0.094-0.059L84.44-83.38l-0.124-0.064
		l-0.122-0.076l-0.13-0.07l-0.117-0.076l-0.135-0.094L83.7-83.843l-0.129-0.094l-0.1-0.1l-0.123-0.094l-0.094-0.106l-0.088-0.105
		l-0.076-0.106l-0.059-0.111l-0.053-0.111l-0.035-0.118l-0.029-0.111v-0.117l0.023-0.111l0.029-0.117l0.059-0.105l0.076-0.105
		l0.129-0.105l0.112-0.1l0.128-0.1l0.124-0.088l0.134-0.082l0.124-0.082l0.128-0.07l0.111-0.059l0.129-0.059l0.088-0.059
		l0.077-0.047l0.099-0.046l0.059-0.047l0.047-0.047l0.035-0.059l0.023-0.058l0.019-0.059l0.006-0.065v-0.076l-0.006-0.076
		l-0.042-0.07l-0.023-0.082l-0.029-0.082l-0.035-0.083l-0.047-0.087l-0.052-0.083l-0.095-0.087l-0.069-0.088l-0.106-0.077
		l-0.111-0.076l-0.111-0.083l-0.129-0.064l-0.123-0.064l-0.152-0.058l-0.152-0.053l-0.146-0.053l-0.17-0.041l-0.182-0.041
		l-0.152-0.029l-0.182-0.029l-0.182-0.023l-0.182-0.012l-0.153-0.012l-0.175-0.006h-0.17l-0.146,0.006l-0.164,0.012l-0.141,0.018
		l-0.141,0.023l-0.136,0.023l-0.128,0.035l-0.17,0.042l-0.117,0.046l-0.129,0.053l-0.123,0.059l-0.13,0.064l-0.116,0.07l-0.13,0.076
		l-0.099,0.076L79.71-87.54l-0.105,0.082l-0.083,0.082l-0.105,0.07l-0.069,0.07l-0.059,0.07l-0.053,0.065l-0.083,0.064l-0.023,0.07
		l-0.034,0.059l-0.036,0.059l-0.035,0.064l-0.035,0.065l-0.029,0.064l-0.047,0.065l-0.035,0.064l-0.023,0.07l-0.023,0.07
		l-0.018,0.07v0.07l-0.012,0.076l-0.012,0.076l-0.006,0.071l-0.012,0.076l-0.012,0.07l-0.012,0.064l-0.018,0.064l-0.029,0.059
		l-0.047,0.047l-0.029,0.041l-0.035,0.035l-0.034,0.024l-0.042,0.023l-0.041,0.018l-0.058,0.005l-0.048,0.006h-0.041h-0.041
		l-0.029-0.006l-0.041-0.012l-0.059-0.012l-0.029-0.018l-0.029-0.018l-0.006-0.023l-0.018-0.029l-0.018-0.029l-0.012-0.029
		L78.028-85.7l-0.018-0.041l-0.012-0.041l-0.006-0.042l-0.018-0.041l-0.023-0.047l-0.012-0.041l-0.041-0.053l-0.012-0.041
		l-0.023-0.041l-0.018-0.041l-0.024-0.036l-0.011-0.029l-0.029-0.023l-0.047-0.018l-0.053-0.005h-0.064l-0.059,0.005l-0.064,0.018
		l-0.111,0.018l-0.094,0.029l-0.118,0.035l-0.122,0.041l-0.13,0.053l-0.122,0.053l-0.146,0.064l-0.13,0.064l-0.164,0.064
		l-0.163,0.07l-0.158,0.064l-0.182,0.064l-0.193,0.064l-0.17,0.07l-0.193,0.07l-0.199,0.07l-0.212,0.07l-0.199,0.076l-0.205,0.076
		l-0.217,0.07l-0.211,0.082l-0.223,0.07l-0.217,0.065l-0.193,0.059l-0.188,0.059l-0.163,0.041l-0.158,0.029l-0.141,0.023
		l-0.13,0.018l-0.128,0.005l-0.117,0.006l-0.095,0.012l-0.088,0.011l-0.063,0.018l-0.053,0.023l-0.029,0.041l-0.024,0.042
		l-0.011,0.053L72.02-84.3v0.094L71.997-84.1l-0.018,0.129l-0.023,0.141l-0.024,0.17l-0.034,0.17l-0.029,0.182l-0.035,0.182
		l-0.029,0.176l-0.036,0.158l-0.017,0.153l0.053,0.158l-0.007,0.117v0.1l-0.006,0.094v0.076l-0.011,0.077l-0.019,0.076l-0.023,0.071
		l-0.035,0.076l-0.076,0.082l-0.059,0.082l-0.063,0.082l-0.064,0.082l-0.077,0.082l-0.069,0.082l-0.065,0.07l-0.069,0.076
		l-0.071,0.064L71.03-81.03l-0.04,0.07l-0.036,0.064l-0.035,0.064l-0.029,0.07l-0.017,0.07l-0.019,0.077l0.012,0.07l0.013,0.087
		l0.029,0.088l0.023,0.094l0.017,0.105l0.019,0.106l0.018,0.123l0.012,0.123l0.018,0.135l0.011,0.135L71.03-79.4l0.006,0.129
		l0.007,0.135l0.006,0.123v0.117v0.1l-0.013,0.094v0.076v0.07l-0.006,0.065v0.07l0.006,0.064v0.065l0.013,0.07l0.017,0.07
		l0.013,0.076l0.017,0.07l0.007,0.083l0.006,0.076l0.005,0.07L71.107-77.7l-0.013,0.07l-0.022,0.064l-0.023,0.065l-0.029,0.07
		l-0.029,0.064l-0.036,0.065l-0.041,0.064l-0.018,0.076l-0.012,0.07l-0.005,0.076l0.005,0.083l0.006,0.076l0.013,0.082l0.011,0.088
		l0.029,0.088l0.035,0.094l0.019,0.1l0.011,0.094l0.018,0.105l0.006,0.1l0.006,0.1l-0.006,0.106l-0.011,0.1l-0.023,0.105l-0.059,0.1
		l-0.048,0.094l-0.053,0.1l-0.059,0.087l-0.064,0.094l-0.093,0.076l-0.077,0.07l-0.082,0.059l-0.111,0.059l-0.088,0.047
		l-0.093,0.041l-0.118,0.029l-0.111,0.029l-0.129,0.029l-0.122,0.023l-0.13,0.023l-0.105,0.03l-0.146,0.023l-0.146,0.029
		l-0.141,0.029l-0.158,0.029l-0.135,0.036l-0.141,0.035l-0.123,0.041l-0.13,0.047l-0.122,0.041l-0.117,0.047l-0.088,0.047
		l-0.111,0.053l-0.088,0.059l-0.076,0.059l-0.101,0.059l-0.081,0.059l-0.065,0.07l-0.099,0.064l-0.082,0.07l-0.071,0.07
		l-0.093,0.077l-0.064,0.076l-0.059,0.088L66.95-73.41l-0.059,0.088l-0.063,0.093l-0.048,0.094l-0.053,0.088l-0.064,0.094
		l-0.069,0.082l-0.076,0.076l-0.082,0.065l-0.106,0.059l-0.099,0.053l-0.117,0.041l-0.124,0.035l-0.117,0.035l-0.129,0.023
		l-0.146,0.023l-0.157,0.018l-0.17,0.006l-0.183,0.006h-0.164h-0.17h-0.176l-0.141-0.006l-0.152-0.006l-0.129-0.006l-0.123-0.012
		l-0.123-0.023l-0.117-0.018l-0.1-0.029l-0.105-0.036l-0.095-0.046l-0.116-0.059l-0.112-0.076l-0.122-0.082l-0.117-0.094
		l-0.13-0.105l-0.122-0.111l-0.13-0.129l-0.122-0.129l-0.123-0.141l-0.118-0.146l-0.088-0.158l-0.105-0.159l-0.088-0.146
		l-0.094-0.152l-0.076-0.141l-0.075-0.135l-0.082-0.117L61.613-74.8l-0.077-0.082l-0.076-0.065l-0.064-0.059l-0.076-0.035
		l-0.064-0.018l-0.087-0.012h-0.071l-0.094,0.012l-0.1,0.023l-0.094,0.029l-0.099,0.047l-0.111,0.047l-0.106,0.053L60.369-74.8
		l-0.105,0.064l-0.123,0.077l-0.111,0.07l-0.117,0.076l-0.1,0.094l-0.1,0.094l-0.088,0.105l-0.076,0.111v0.123l-0.047,0.141
		l-0.029,0.146l-0.012,0.152v0.158l0.018,0.158l0.018,0.159l0.035,0.164l0.041,0.153l0.047,0.152l0.188,0.146l0.053,0.129
		l0.053,0.129l0.053,0.117l0.064,0.117l0.041,0.105l0.048,0.094l0.029,0.087L60.17-71.6l0.023,0.064v0.064l-0.012,0.053
		l-0.034,0.041l-0.036,0.035l-0.053,0.03l-0.064,0.029l-0.105,0.017l-0.082,0.018l-0.105,0.018l-0.117,0.023l0.059,0.018
		l-0.094,0.018l-0.117,0.018l-0.088,0.029l-0.082,0.029l-0.094,0.042l-0.059,0.046l-0.059,0.059l-0.064,0.065l-0.083,0.07
		l-0.052,0.094l-0.053,0.1l-0.053,0.105l-0.059,0.118l-0.07,0.117l-0.047,0.123l-0.036,0.117l-0.023,0.117l-0.022,0.105l-0.023,0.1
		l-0.018,0.082l-0.006,0.076v0.07v0.07l0.006,0.059l0.005,0.053l0.007,0.053l0.018,0.059l0.012,0.047l0.012,0.047l0.011,0.052
		l0.013,0.053l0.018,0.065l0.018,0.059l0.023,0.064l0.035,0.07l0.023,0.082l0.059,0.077l0.041,0.076l0.035,0.088l0.029,0.077
		l0.029,0.076l0.023,0.076l0.017,0.07l0.019,0.064l0.018,0.064v0.064l0.029,0.064l0.012,0.064l0.012,0.077l0.018,0.076l0.012,0.082
		l0.018,0.094l0.023,0.082l0.018,0.088l0.029,0.094l0.029,0.088l0.035,0.083l0.047,0.082l0.041,0.064l0.047,0.059l0.041,0.053
		l0.041,0.041l0.041,0.035l0.082,0.023l0.047,0.012l0.047,0.005h0.047l0.07-0.005l0.053-0.012l0.059-0.017l0.059-0.024l0.053-0.035
		l0.076-0.036l0.07-0.035l0.054-0.036l0.069-0.035l0.076-0.03l0.076-0.023l0.064-0.012h0.088l0.082,0.012l0.094,0.035l0.105,0.053
		l0.094,0.076l0.111,0.094l0.101,0.1l0.111,0.106l0.104,0.105l0.082,0.106l0.105,0.105l0.082,0.088l0.077,0.077l0.069,0.076
		l0.071,0.07l0.053,0.059l0.046,0.059l0.053,0.059l0.029,0.047l0.035,0.053l0.036,0.053l0.011,0.059l0.019,0.052l0.006,0.053
		l0.017,0.053v0.059v0.064v0.059v0.064l-0.017,0.064v0.07l-0.006,0.064l-0.007,0.07v0.076v0.076v0.076v0.07l0.007,0.083l0.022,0.076
		l0.013,0.065l0.023,0.076l0.029,0.059l0.046,0.053l0.053,0.047l0.053,0.047l0.064,0.047l0.065,0.035l0.075,0.041l0.082,0.041
		l0.077,0.047l0.087,0.064l0.088,0.065l0.088,0.082l0.089,0.088l0.111,0.105l0.104,0.112l0.124,0.128l0.129,0.135l0.135,0.158
		l0.146,0.17l0.164,0.176l0.176,0.194l0.188,0.199l0.193,0.199l0.205,0.199L64.9-61.52l0.205,0.188l0.194,0.176l0.192,0.158
		l0.188,0.153l0.17,0.141l0.153,0.123l0.122,0.123l0.13,0.111l0.104,0.1l0.082,0.094l0.053,0.082l0.024,0.07v0.077l-0.019,0.064
		l-0.046,0.064l-0.141,0.071l-0.059,0.076l-0.089,0.077l-0.088,0.082l-0.099,0.094l-0.117,0.088l-0.101,0.1l-0.117,0.1l-0.116,0.1
		l-0.095,0.105L65.316-58.8l-0.111,0.111l-0.117,0.106l-0.111,0.105l-0.128,0.112l-0.124,0.105l-0.129,0.105l-0.123,0.1
		l-0.123,0.105l-0.129,0.094l-0.141,0.094l-0.123,0.094l-0.146,0.082l-0.123,0.076l-0.129,0.077l-0.117,0.064l-0.123,0.059
		l-0.088,0.059l-0.082,0.059l-0.07,0.052l-0.059,0.053l-0.053,0.059l-0.053,0.065l-0.053,0.07l-0.048,0.076l-0.034,0.088l-0.048,0.1
		l-0.04,0.093l-0.059,0.106l-0.053,0.1l-0.053,0.1l-0.059,0.105l-0.07,0.094l-0.065,0.094l-0.075,0.088l-0.07,0.082l-0.088,0.088
		l-0.082,0.077l-0.064,0.076l-0.077,0.076l-0.063,0.07l-0.065,0.064l-0.059,0.064l-0.064,0.07l-0.053,0.064l-0.04,0.065
		l-0.053,0.064l-0.059,0.077l-0.054,0.076l-0.063,0.076l-0.048,0.082l-0.059,0.077l-0.058,0.082l-0.054,0.076l-0.063,0.07
		l-0.053,0.064l-0.054,0.059l-0.047,0.059l-0.04,0.053L60.774-54.1l-0.034,0.047l-0.036,0.035l-0.035,0.042l-0.023,0.041
		l-0.017,0.041l-0.007,0.041l-0.006,0.041v0.047l0.006,0.041l0.012,0.053l0.012,0.047l0.013,0.047l0.011,0.047l0.018,0.047
		l0.012,0.053l0.006,0.047v0.053l-0.012,0.053l-0.011,0.053l-0.036,0.052l-0.046,0.053l-0.065,0.053l-0.064,0.053l-0.064,0.058
		l-0.076,0.053l-0.069,0.059l-0.065,0.059l-0.059,0.07l-0.047,0.064l-0.029,0.064l-0.006,0.065l-0.012,0.076l-0.023,0.07v0.076
		l0.012,0.077v0.088l0.023,0.082l0.012,0.094l0.006,0.082l0.006,0.077l0.012,0.076v0.076v0.059l-0.018,0.052l-0.018,0.041
		l-0.041,0.042l-0.023,0.023l-0.04,0.023l-0.042,0.011l-0.047,0.018l-0.047,0.012l-0.012,0.012l-0.047,0.018l-0.041,0.018
		l-0.059,0.018l-0.047,0.018l-0.064,0.023l-0.059,0.023l-0.07,0.029l-0.064,0.023l-0.082,0.023l-0.07,0.023l-0.094,0.029
		l-0.088,0.029l-0.083,0.023l-0.093,0.029l-0.1,0.023l-0.089,0.023l-0.069,0.023L58.5-50.941l-0.094,0.012l-0.082,0.012
		l-0.076,0.006L58.171-50.9h-0.063h-0.064l-0.071-0.012l-0.082-0.006l-0.059-0.012l-0.059-0.023l-0.082-0.035l-0.069-0.035
		l-0.064-0.041l-0.082-0.047l-0.088-0.053l-0.089-0.064l-0.082-0.064l-0.117-0.064l-0.069-0.064l-0.077-0.07l-0.105-0.064
		l-0.069-0.059l-0.064-0.053l-0.065-0.041l-0.059-0.041l-0.04-0.029l-0.035-0.023l-0.03-0.012h0.246l-0.023,0.012l-0.017,0.018
		l-0.024,0.029v0.041l-0.018,0.041l-0.006,0.047l-0.011,0.047l-0.013,0.047l-0.04,0.047l-0.013,0.047l-0.022,0.035l-0.029,0.035
		l-0.03,0.029l-0.041,0.029l-0.047,0.023l-0.064,0.018l-0.047,0.018l-0.052,0.012l-0.053,0.006h0.022l-0.094-0.018l-0.064-0.023
		l-0.076-0.041l-0.105-0.064l-0.094-0.082l-0.111-0.106l-0.123-0.123l-0.116-0.141l-0.124-0.147l-0.129-0.146l-0.117-0.152
		l-0.129-0.141l-0.124-0.135l-0.128-0.123l-0.123-0.111l-0.129-0.094l-0.123-0.082l-0.129-0.07l-0.123-0.059l-0.129-0.047
		l-0.106-0.041l-0.122-0.029l-0.13-0.035l-0.122-0.018l-0.123-0.012l-0.111-0.012l-0.124-0.006H52.98h-0.111h-0.07l-0.06,0.006
		l-0.052,0.006l-0.042,0.018l-0.053,0.023l-0.034,0.041l-0.029,0.047l-0.029,0.059l-0.029,0.077l-0.054,0.093l-0.034,0.094
		l-0.059,0.1l-0.053,0.105l-0.053,0.105l-0.077,0.105l-0.088,0.094l-0.082,0.088l-0.099,0.082l-0.118,0.077l-0.104,0.064
		l-0.124,0.065l-0.117,0.052l-0.123,0.053l-0.123,0.047l-0.123,0.041l-0.123,0.041l-0.123,0.036l-0.129,0.029l-0.123,0.029
		l-0.129,0.023l-0.105,0.023l-0.123,0.024l-0.129,0.018l-0.123,0.018l-0.135,0.018l-0.129,0.012l-0.123,0.018l-0.13,0.006h-0.122
		h-0.13l-0.122-0.006l-0.123-0.018l-0.124-0.012l-0.099-0.018l-0.095-0.023l-0.093-0.018l-0.088-0.023l-0.077-0.023l-0.069-0.029
		l-0.065-0.023l-0.075-0.023l-0.059-0.023l-0.076-0.029l-0.064-0.024l-0.095-0.017l-0.094-0.018l-0.082-0.012l-0.105-0.006
		l-0.123-0.006l-0.129-0.005h-0.123h-0.129l-0.123,0.005l-0.141,0.006l-0.128,0.006l-0.136,0.006l-0.141,0.011l-0.123,0.012
		l-0.141,0.017l-0.135,0.018l-0.129,0.029L45.73-51.68l-0.129,0.024l-0.124,0.029l-0.128,0.029l-0.129,0.035l-0.129,0.035
		l-0.141,0.035l-0.129,0.041l-0.158,0.041l-0.177,0.041l-0.157,0.041l-0.183,0.042l-0.181,0.041l-0.183,0.047l-0.187,0.041
		l-0.193,0.041l-0.193,0.035l-0.188,0.035l-0.17,0.041l-0.176,0.041l-0.175,0.035l-0.165,0.035l-0.175,0.029l-0.17,0.035
		l-0.177,0.029l-0.152,0.024l-0.17,0.029l-0.188,0.023l-0.158,0.029l-0.17,0.023l-0.176,0.023l-0.164,0.029l-0.171,0.024
		l-0.187,0.029l-0.183,0.029l-0.163,0.035l-0.193,0.036l-0.193,0.029l-0.183,0.035l-0.17,0.023l-0.193,0.024l-0.216,0.023
		l-0.183,0.018l-0.176,0.018l-0.175,0.012l-0.188,0.005h-0.181H37.73h-0.176l-0.158-0.012l-0.163-0.012l-0.165-0.018l-0.141-0.017
		l-0.146-0.012l-0.165-0.012l-0.141-0.005l-0.141-0.006L36.2-50.366l-0.146,0.005l-0.123,0.018l-0.129,0.018l-0.124,0.029
		l-0.128,0.035l-0.111,0.047l-0.105,0.041l-0.077,0.047l-0.063,0.058l-0.07,0.053l-0.053,0.07l-0.059,0.064l-0.059,0.07l-0.07,0.07
		L34.8-49.663l-0.106,0.076l-0.128,0.076l-0.124,0.082l-0.128,0.07l-0.124,0.07l-0.128,0.077l-0.136,0.064l-0.135,0.064
		l-0.146,0.053l-0.141,0.053l-0.141,0.053l-0.135,0.041l-0.146,0.041l-0.128,0.035l-0.17,0.041l-0.13,0.041l-0.146,0.041
		l-0.146,0.041l-0.13,0.041l-0.164,0.041l-0.129,0.041l-0.164,0.041l-0.17,0.041l-0.147,0.035l-0.175,0.035l-0.176,0.029
		l-0.17,0.035l-0.176,0.029l-0.199,0.029l-0.182,0.041l-0.176,0.035l-0.183,0.035l-0.187,0.035l-0.176,0.035l-0.17,0.035
		l-0.171,0.029l-0.163,0.035l-0.153,0.023l-0.157,0.012l-0.141,0.006l-0.141-0.006l-0.153-0.012l-0.123-0.023l-0.135-0.023
		l-0.129-0.024l-0.141-0.023l-0.129-0.018l-0.158-0.012h-0.141h-0.193l-0.182,0.012l-0.188,0.018l-0.188,0.03l-0.199,0.029
		l-0.223,0.041l-0.24,0.041l-0.329-0.018l-0.258,0.047l-0.269,0.052l-0.306,0.059l-0.27,0.064l-0.27,0.065l-0.258,0.064l-0.246,0.07
		l-0.234,0.077l-0.217,0.076l-0.17,0.07l-0.188,0.07l-0.176,0.059l-0.129,0.041l-0.129,0.029l-0.135,0.012l-0.123-0.012
		l-0.105-0.035l-0.117-0.059l-0.094-0.094l-0.1-0.111l-0.123-0.146l-0.123-0.17l-0.117-0.211l-0.152-0.24l-0.153-0.258l-0.182-0.275
		l-1.629,1.113l-1.131,1.178l-0.797,0.832l-0.457,0.715l-0.188,0.668l-0.007,0.516l0.206,0.721l0.328,0.65l0.375,0.574l0.076,0.357
		l0.006,0.475l-0.158,0.539l-1.015,1.887l-0.333,0.598l-0.152,0.275l-0.041,0.387l0.216,0.416l0.376,0.528l0.345,0.58l0.211,0.463
		l-0.011,0.299l-0.141,0.41l0.018,0.206l0.516,0.732l3.516,3.381l2.374,2.426l0.516,0.732l0.082,0.622l-0.076,0.592l-0.287,0.832
		l-0.773,1.008l-0.539,0.569l-0.357,0.123l-0.247,0.182l-0.322,0.082l-0.263,0.264l-0.194,0.926l-0.434,1.881l-0.129,0.54
		l-0.932,1.248l-0.773,1.008L17.909-16.1l-1.349,1.272l-1.195,1.295l-1.189,1.553l-0.48,0.621l-0.562,0.657l-0.504,0.445
		l-0.346,0.422l-0.281,0.61l-0.141,0.416l-0.37,2.022l-0.129,1.799l0.018,0.809l-0.011,0.264l-0.054,0.264L11.14-3.406L10.8-3.118
		L10.536-2.82l-0.129,0.287l0.041,0.475l-0.082,0.469l-0.199,0.44L9.845-0.821L9.529-0.634L8.902-0.557L8.398-0.634L7.647-0.675
		L7.279-0.628L7.031-0.393l-0.217,0.27L6.698,0.234l0.122,0.493l0.375,0.791L7.56,3.463l0.046,1.495L7.484,6.423L7.295,7.307
		L6.926,8.362L6.364,9.464L6.223,9.904l-0.188,0.34l-0.135,0.282L5.719,10.73l-0.322,0.258L5.25,11.099L5.098,11.24l-0.105,0.287
		l0.07,0.451l0.275,0.417L6,12.863l0.715,0.375l0.527,0.586l0.363,0.562l0.206,0.569l0.627,0.896l1.166-0.047l1.166,0.006
		l1.067,0.064l1.799,0.012l0.896,0.059l1.143,0.064l0.768,0.047l0.691,0.34l1.226,0.487l0.996,0.287l1.431,0.264l0.796,0.123
		l0.44-0.053l0.328-0.111l0.24-0.194l0.234-0.281l0.234-0.304l0.24-0.393l0.129-0.275l0.129-0.111h0.129l0.164,0.059l0.375,0.34
		l0.814,0.733l0.984,0.938l0.874,1.02l0.492,0.68l0.13,0.416l0.058,0.82l-0.082,0.732L27.374,22.1l0.111,0.345l0.111,0.146
		l0.422,0.111h0.376h0.403l0.3,0.146l0.157,0.223l0.101,0.369l0.199,1.242l0.181,0.985l0.369,1.717l0.376,1.518l0.369,1.325
		l0.422,1.243l0.182,1.377l0.375,1.77l0.258,0.703l0.258,0.451l0.27,0.311l0.375,0.259l0.457,0.233l0.229,0.218l0.124,0.545
		l-0.042,0.615l-0.129,0.756l-0.182,0.668l-0.199,0.287l-0.592,0.416l-0.375,0.182h-0.434l-0.469-0.088l-1.576-0.463l-0.873-0.258
		l-0.903-0.135l-1.312-0.076l-1.049-0.234l-0.669-0.064l-0.551,0.053l-0.381,0.223l-0.357,0.252l-0.316,0.363l-0.334,0.668
		L22.85,41.14l-0.27,0.369l-0.398,0.316l-0.68,0.105l-1.694-0.069l-2.068-0.013H16.08l-0.527-0.023l-0.369-0.176l-0.311-0.258
		L14.61,40.97l-0.146-0.316l-0.27-0.164l-0.727-0.205l-1.189-0.205l-1.349-0.258L9.2,39.577L8.286,39.4H7.823l-0.3,0.177
		l-0.17,0.245l-0.117,0.445l0.124,0.504l0.229,0.48l0.228,0.574l0.129,0.416L7.9,42.63l-0.369,0.34l-0.398,0.164l-0.798,0.023
		l-0.797-0.059l-0.668-0.129l-0.727-0.123h-0.34l-0.347,0.059l-0.315,0.281l-0.306,0.386l-0.07,0.341l0.1,0.34l0.229,0.423
		l0.158,0.703l-0.007,0.333L2.93,46.046l-0.505,0.416l-0.539,0.394l-0.369,0.182H1.142H0.644l-0.404-0.06l-0.234,0.124L-0.2,47.253
		l-0.264,0.253l-0.27,0.063h-0.352l-0.681-0.175l-0.632-0.146l-0.763-0.059l-0.656-0.006l-0.381,0.053l-0.311,0.229l-0.598,0.356
		l-1.201,0.663l-1.079,0.475l-0.768,0.305l-0.609,0.34l-0.463,0.505l-0.205,0.638l-0.035,0.674l0.176,0.568l0.082,0.533
		l-0.006,0.505v0.475l0.1,0.539l0.129,0.844l-0.059,0.873l-0.27,0.48l-0.51,0.347l-0.539,0.211l-0.61,0.082l-0.614-0.023
		l-0.804-0.129l-0.92-0.177l-0.844-0.311l-0.896-0.627l-1.107-0.626l-0.622-0.51l-0.545-0.428l-0.375-0.505l-0.346-0.621
		l-0.375-0.422l-0.598-0.599l-0.463-0.281l-0.615-0.304l-0.446-0.2l-0.469-0.099l-0.398,0.088l-0.369,0.135l-0.375,0.223
		l-0.264,0.252l-0.158,0.082l-0.311-0.053l-0.416-0.34l-0.346-0.451l-0.129-0.569l-0.193-0.598l-0.129-0.691l-0.141-0.48
		l-0.375-0.763l-0.34-0.568l-0.34-0.311l-0.265-0.029l-0.387,0.124l-0.299,0.182l-0.176,0.504v0.504l-0.07,0.346l-0.129,0.363
		l-0.123,0.199l-0.363,0.082l-0.404-0.059l-0.627-0.199h-0.404l-0.357,0.141l-0.2,0.363v0.346v0.363l-0.11,0.252l-0.2,0.17
		l-0.644,0.258l-0.739,0.281l-0.627,0.13h-0.533l-0.439-0.007l-0.328,0.2l-0.234,0.346l-0.129,0.586l0.041,0.48l0.123,0.504
		l0.199,0.311l0.1,0.505l-0.146,0.598l-0.369,0.844l-0.393,0.778l-0.271,0.562l-0.598,0.528l-0.497,0.369l-0.646,0.199l-1.225,0.246
		l-0.732-0.035l-1.084-0.122l-1.378-0.317l-1.395-0.211l-1.178-0.17l-1.383-0.246l-0.927-0.246l-0.885-0.123l-0.516,0.076
		l-0.428,0.229l-0.416,0.445l-0.241,0.428l-0.005,0.439l0.176,0.328v0.428l-0.129,0.369l-0.375,0.429l-0.64,0.322l-1.055,0.305
		l-0.885,0.164l-1.688,0.182l-1.876-0.006l-2.156-0.013l-1.225-0.046h-0.886l-0.809-0.042l-0.861-0.245l-0.75-0.164l-0.516-0.329
		l-0.574-0.122h-0.376l-0.24,0.199l-0.111,0.239l0.059,0.329l0.229,0.469l0.233,0.609l0.165,0.961v0.429l-0.188,0.48l-0.375,0.239
		l-0.517,0.275l-0.521,0.042l-0.785-0.118l-0.662-0.117l-0.996-0.094l-0.516-0.152l-0.328-0.245l-0.188-0.247l-0.093-0.433
		l-0.106-0.481l-0.1-0.316l-0.375-0.335l-0.457-0.321l-0.533-0.241l-0.445-0.315l-0.205-0.282l-0.082-0.093l-0.34-0.316L-70,59.766
		l-1.031-0.68l-0.879-0.558l-1.237-0.721l-1.582-0.123l-1.471,0.094l-0.874,0.311l-0.826,0.562l-1.014,0.129l-0.785-0.188
		l-1.173-0.627l-0.551-1.172l-0.105-0.961l-0.023-0.656l-0.152-0.528l-0.533-0.527l-0.785-0.469l-1.759-0.709l-0.662-0.469
		l-0.68-1.167l-0.639-0.579l-0.785-0.252l-1.629-0.165l-1.489-0.07l-0.621,0.129l-0.434,0.34l-0.422,0.499l-0.756,0.504
		l-1.014,0.245l-1.794,0.053l-1.207,0.311l-0.674,0.452l-0.223,0.656l0.047,0.973l0.293,0.961l0.375,1.079l-0.012,1.242
		l-0.047,0.645l-0.305,0.505l-0.422,0.608l-0.217,0.762l0.018,0.435l0.129,0.369l0.352,0.48l1.242,2.187l1.172,2.344l0.376,1.395
		l-0.059,0.727l-0.71,1.148l-1.869,1.196l-1.888,0.709l-1.535,0.199l-0.955,0.035l-1.893,0.369l-2.292,0.387l-2.462,1.055
		l-3.246,0.745l-2.655,0.732l-3.621,0.756l-0.211,3.709l-0.675,4.384l0.394,1.412l0.223,0.968l0.11,0.592l-0.029,0.492l-0.176,0.357
		l-0.375,0.47l-0.07,0.292l-0.035,0.493l-0.064,0.346l-0.205,0.239l-0.533,0.376l-0.381,0.516l-0.305,0.621l0.012,0.627l0.258,1.108
		l0.164,1.236l0.363,0.873l0.633,1.09l0.234,0.445l0.135,0.445l0.018,1.078l0.076,0.762l0.182,0.487l0.317,0.492l0.439,0.404
		l0.322,0.357l0.223,0.387l0.117,0.417l0.064,0.539l0.123,0.586l0.48,1.043l0.498,1.43l0.486,1.214l0.375,0.68l0.369,0.714
		l0.176,0.316l0.041,0.188l-0.152,0.111l-0.639,0.17l-1.043,0.223l-1.066,0.469l-0.832,0.646l-0.335,0.462l-0.028,0.358l0.075,0.438
		l0.369,0.628l0.211,0.503l0.341,0.64l0.182,0.422l0.14,0.328l0.124,0.486l0.094,0.598l-0.1,0.562l-0.076,0.41l0.152,0.656
		l0.369,1.02l0.264,0.991l0.1,0.762l0.65,2.538l1.711,4.043l1.683-0.022l0.955-0.065l0.873,0.153l1.272,0.433l0.808,0.183
		l0.575-0.059l0.773-0.147l0.738-0.245l0.568-0.235l0.615-0.245l0.205-0.036l-0.082-0.128l-0.141-0.329l-0.176-0.516l0.07-0.639
		l0.129-0.311l0.458-0.404l0.762-0.334l1.395-0.223l0.844-0.035l0.838-0.059l0.814-0.141l1.091-0.37l0.879-0.369l0.686-0.445
		l0.68-0.497l0.68-0.716l0.552-0.715l0.216-0.322l0.246-0.17l0.411-0.176l0.691-0.322l0.873-0.211l1.5-0.117l1.132-0.012
		l1.131,0.082l0.914,0.158l1.09,0.035l0.979-0.035l0.621-0.123l0.558-0.294l0.521-0.022l0.369,0.012l0.662,0.141l0.551,0.029
		l0.463-0.019l0.217-0.141l0.281-0.281l0.598-0.409l0.956-0.451l1.307-0.604l0.855-0.393l0.574-0.375l0.78-0.749l1.172-1.267
		l0.68-0.434l0.791-0.593l0.68-0.579l0.797-0.593l1.073-0.633l0.861-0.393l1.453-0.914l1.354-0.762l0.61-0.439l0.433-0.398
		l0.405-0.48l0.234-0.504l0.146-0.358l0.123-0.832l0.205-0.34l0.252-0.176l0.645-0.193l0.287-0.123l0.316-0.234l0.363-0.352
		l0.24-0.505l0.24-0.257l0.352-0.388l0.451-0.082l0.709-0.052l0.874,0.017l0.387-0.011l0.293-0.124l0.322-0.21l0.352-0.281
		l0.961-0.821l0.439-0.293l0.687-0.088l0.551-0.046l0.709-0.147l1.131-0.346l1.465-0.621l0.949-0.615l0.476-0.358l0.205-0.369
		l0.275-0.445l0.135-0.199l0.475-0.182l0.451-0.018l0.398,0.065l0.275,0.21l0.281,0.428l0.305,0.212l0.956,0.187l1.705,0.019
		l0.715-0.054l0.574-0.269l0.568-0.411l0.645-0.164l0.398-0.122l0.294-0.258l0.205-0.335l-0.023-0.257l-0.369-0.229l-0.1-0.306
		l0.17-0.252l0.188-0.135l0.427-0.023l1.167,0.211l1.02,0.17l0.914,0.047l0.527-0.1l0.687-0.322l0.469-0.322l2.391-2.052
		l0.469-0.491l0.13-0.528l0.052-1.025l0.094-0.779l0.165-0.539l0.27-0.481l0.539-0.404l0.627-0.299l0.891-0.059l0.932-0.128
		l0.744-0.218l0.82-0.063l0.422,0.076l0.317,0.298l0.586,0.839l0.281,0.321l0.41,0.206l0.92,0.117l1.242-0.053l1.823-0.293
		l1.219-0.322l0.768-0.229l0.627-0.247h1.436l1.683,0.077l1.049-0.094l0.967-0.147l0.745-0.223l0.691-0.375l1.676-1.195l0.732-0.375
		l0.37-0.152l0.451-0.018l0.199,0.047l0.233,0.129l0.164,0.27l0.253,0.445l0.281,0.316l0.369,0.047l0.973-0.116l2.338-0.622
		l0.628-0.334l0.533-0.457l0.562-0.551l0.609-0.246l1.037-0.123l2.122-0.557l2.139-0.545l1.647-0.628l1.371-0.574l1.729-0.727
		l1.519-0.363l1.036-0.223l0.856-0.035l1.465-0.129l0.902-0.2l0.773-0.222l0.991-0.463l1.096-0.521l1.102-0.621l0.574-0.399
		l0.908-0.814l0.621-0.375l0.429-0.04l0.293-0.013l1.406-0.574l1.441-0.352l0.856-0.281l0.627,0.059l0.562,0.105l0.363,0.211
		l0.328,0.469l0.357,0.68l0.082,0.716l0.105,0.475l0.199,0.311l0.434,0.223l0.569,0.146l0.621-0.082l0.891-0.48l0.962-0.575
		l0.504-0.27l0.444-0.116l0.785-0.065l0.997,0.118l0.732,0.034l1.237-0.17l1.933-0.427l1.331-0.452l1.031-0.393l0.346-0.158
		l0.375-0.346l0.27-0.405l0.188-0.369l0.247-0.104l0.187,0.018l0.445,0.129l0.48,0.059l0.364-0.013l0.334-0.093l0.562-0.398
		l0.627-0.398l1.002-0.546l1.126-0.645l0.772-0.444l1.132-0.646l0.996-0.639l0.722-0.492l0.826-0.58l0.416-0.252l0.557-0.152
		l0.422-0.076l0.932-0.193l0.92-0.165l1.396-0.252l0.403-0.053l0.159,0.013l0.135,0.093l0.111,0.375l0.082,0.622l0.081,0.188
		l0.183,0.141l0.199,0.059l0.217-0.024l0.193-0.111l0.123-0.122l0.152-0.306l0.105-0.345l0.217-0.404l0.123-0.369l0.123-0.341
		l0.152-0.245l0.311-0.224l0.369-0.193l0.411-0.146l1.317-0.416l2.093-0.516l2.11-0.504l0.961-0.129l0.011-0.855l0.897-0.095
		l1.337-0.111l1.043-0.081l1.001-0.259l0.804-0.258l1.037-0.457l1.102-0.527l1.67-0.369l1.196-0.234l1.378-0.123l0.854-0.152
		l0.486-0.181l0.868-0.124l0.779-0.176l0.369-0.135l0.521-0.388L79,61.343l1.102-0.645l1.302-0.873l1.436-1.114l0.709-0.439
		l0.51-0.123l0.311,0.012l0.476,0.024l1.33,0.104h0.984l1.037-0.193l0.715-0.176l0.902-0.34l0.78-0.434l0.691-0.451l0.592-0.557
		l0.779-0.868l1.014-1.078l0.651-0.545l0.287-0.223l0.438-0.393l0.464-0.275l0.164-0.059l0.434-0.123l0.357-0.035l0.826,0.082
		l0.634,0.047l0.468-0.035l0.265-0.117l0.157-0.088l0.17-0.258l0.241-0.404l0.229-0.387l0.164-0.188l0.375-0.223l0.604-0.246
		l1.008-0.451l0.517-0.274l0.274-0.095l0.622-0.398l0.585-0.393l0.546-0.492l0.375-0.445l0.263-0.328l0.329-0.27l0.375-0.153
		l0.311-0.104l0.41-0.094l0.581,0.018l0.444-0.013l0.158-0.029l0.141-0.111l0.111-0.21l0.141-0.271l0.006-0.403l-0.017-0.369
		l0.094-0.622l0.198-0.469l0.282-0.387l0.65-0.668l0.879-0.896l0.545-0.575l0.375-0.592l0.527-0.667l0.417-0.751l0.573-1.066
		l0.229-0.674l0.048-0.234l0.082-0.311l0.128-0.271l0.082-0.327l0.13-0.422l0.059-0.13l0.216-0.122l0.37,0.046l0.223,0.246
		l0.188,0.398l0.129,0.188l0.193,0.069l0.246,0.023l0.228-0.011l0.153-0.13l0.105-0.141l0.076-0.164l0.123-0.046l0.123-0.036h0.135
		l0.311,0.06l0.088-0.212l0.159-0.573l0.181-0.552l0.029-0.802l1.396-1.39l1.125-1.312l1.014-1.583l1.097-1.957l0.778-2.145
		l0.569-2.169l0.187-1.536l-0.005-0.99l0.164-0.674l0.258-0.551l0.374-0.633l0.64-0.938l0.375-0.932l0.545-1.395l0.439-0.984
		l0.435-0.709l0.726-1.166l1.841-2.233l1.107-1.395l1.876-2.168l1.324-1.225l1.312-1.154l1.272-0.897l1.423-0.943l1.583-0.868
		l1.688-0.973l1.114-0.615l1.406-1.079l0.984-0.838l1.301-1.231l0.797-0.521l2.626-1.764l2.379-1.94l2.491-2.338l2.345-2.151
		l1.787-1.6l1.554-1.747l1.194-1.448l1.741-1.588l1.055-1.073l1.167-1.588l1.576-0.422l0.105-0.445l0.094-0.51l0.632-0.463
		l0.675-0.627l0.445-0.451l0.17-0.551L169.675-27.768"/>
</g>
<g id="Layer_1_1_">
</g>
</svg>
