<?xml version="1.0" encoding="iso-8859-1"?>
<!-- Generator: Adobe Illustrator 16.0.4, SVG Export Plug-In . SVG Version: 6.00 Build 0)  -->
<!DOCTYPE svg PUBLIC "-//W3C//DTD SVG 1.1//EN" "http://www.w3.org/Graphics/SVG/1.1/DTD/svg11.dtd">
<svg version="1.1" xmlns="http://www.w3.org/2000/svg" xmlns:xlink="http://www.w3.org/1999/xlink" x="0px" y="0px" width="86.32px"
	 height="33.54px" viewBox="0 0 86.32 33.54" style="enable-background:new 0 0 86.32 33.54;" xml:space="preserve">
<g id="Layer_98">
	<g id="Layer_103">
		<path id="Loralai" style="fill:#CCCCCC;stroke:#FFFFFF;stroke-width:1.07;" d="
			M0.529,3.762L0.529,3.762l0.022,0.141l0.146,0.301l0.214,0.374l0.08,0.097l0.053,0.082l0.041,0.063l0.667,1.205l0.126,0.101
			l0.276,0.242l0.255,0.284l0.399,0.29L3.12,7.15l0.385,0.238l0.42,0.206l0.356,0.145l0.086,0.039L4.406,7.84l0.02,0.188
			L4.345,8.397L4.338,8.501l0.001,0.003l0.065,0.139l0.151,0.131L4.64,8.804l0.039,0.051L4.68,8.886l0.003,0.062l-0.077,0.17
			L4.342,9.44L4.064,9.722L3.795,9.93l-0.308,0.146l-0.139,0.14l-0.124,0.202l-0.116,0.401l-0.086,0.504L2.941,11.67l-0.099,0.233
			l-0.04,0.179l0.003,0.094l0.006,0.144l0.041,0.104l0.069,0.186l0.005,0.115L2.84,12.969l-0.175,0.423L2.612,13.48L3.36,13.5
			l3.221,0.384l1.341,0.382l0.223,0.089l0.059,0.105l0.004,0.119l-0.01,0.107L8.12,14.808l-0.065,0.097L8.003,14.99l0.003,0.095
			l0.043,0.06l0.183,0.114l0.265,0.088l0.267,0.136l0.309,0.158l0.499,0.118l0.32,0.086l0.439,0.103l0.501,0.177l0.351,0.183
			l0.545,0.235l0.609,0.139l0.419,0.145l0.183,0.09l0.155,0.129l0.229,0.244l0.313,0.289l0.295,0.172l0.431,0.143l0.498,0.095
			l0.566,0.068l0.869,0.12l0.735,0.184l0.348,0.098l0.163,0.088l0.072,0.082l0.022,0.263l0.02,0.166l0.062,0.177l0.144,0.163
			l0.281,0.185l0.489,0.262l0.196,0.127l0.156,0.149l0.13,0.188l0.062,0.189l0.142,0.127l0.347,0.086l0.442,0.084l0.265,0.112
			l0.155,0.115l0.2,0.233l0.16,0.271l0.197,0.174l0.209,0.103l0.29,0.053l0.223,0.029l0.209,0.091l0.074,0.088l0.038,0.147
			l0.108,0.215l0.06,0.283l0.028,0.371l0.182,0.284l0.458,0.304l0.559,0.235l0.636,0.347l0.763,0.388l0.587,0.368l0.48,0.192
			l0.456,0.15l0.279,0.106l0.331,0.217l0.305,0.218l0.509,0.346l0.561,0.325l0.584,0.325l0.38,0.149l0.204,0.195l0.077,0.197
			l0.002,0.088l0.001,0.132l0.003,0.22l0.103,0.219l0.709,0.676l1.022,0.935l0.535,0.523l0.382,0.37l0.322,0.252l0.306,0.283
			l0.331,0.326l0.606,0.303l0.784,0.281l0.886,0.322l0.432,0.238l0.254,0.218l0.202,0.13l0.707,0.062l1.058-0.096l1.135,0.06
			l1.261-0.052l1.26-0.095l1.537-0.161l1.535-0.271l1.082-0.444l0.779-0.398l0.678-0.528l0.625-0.644l0.803-0.814l0.555-0.223
			l0.68-0.243l0.355-0.046l0.578-0.133l0.682-0.244l0.527-0.286l0.15-0.11l0.178-0.023l0.201,0.133l0.432,0.262l0.328,0.264
			l0.203,0.239l0.102,0.22l0.152,0.328l0.133,0.322l0.121-0.012l0.279-0.016l0.256-0.008l0.219-0.021l0.203-0.061h0.061l0.084,0.059
			l0.09,0.136l0.061,0.104l0.092,0.028l0.129-0.001l0.355,0.089l0.203,0.06l0.244,0.043h0.111l0.117-0.037l0.195-0.088l0.152-0.09
			l0.244-0.17l0.254-0.146l0.254-0.111l0.111-0.021h0.195h0.178l0.262,0.043l0.484,0.134l0.305,0.088l0.211,0.021h0.117l0.186-0.067
			l0.238-0.097l0.152-0.059l0.092-0.021l0.127,0.015l0.264,0.052l0.145,0.008l0.094-0.037l0.162-0.154l0.102-0.141l0.109-0.125
			l0.195-0.117l0.236-0.061l0.541-0.133l0.299-0.029l0.381-0.015l0.551,0.007l0.203,0.008l0.354-0.031h0.289l0.617,0.008
			l0.398,0.015l0.51,0.001l0.482-0.021l0.363-0.045l0.314-0.021l0.33-0.022l0.391,0.016l0.219-0.043l0.104-0.053l0.086-0.008
			l0.066,0.03l0.025,0.043l0.041,0.074l0.102,0.037l0.145,0.012l0.178,0.008l0.076-0.028l0.043-0.045l0.033-0.08l0.061-0.082
			l0.066-0.029l0.145-0.014h0.137l0.135-0.008l0.078-0.029l0.033-0.037v-0.051v-0.053l-0.068-0.072l-0.066-0.104l-0.01-0.082
			l0.018-0.051l0.076-0.045l0.17-0.021l0.145,0.016l0.188,0.072l0.094,0.022l0.117-0.015l0.332-0.154l0.211-0.141l0.23-0.109
			l0.254-0.133l0.188-0.096l0.184-0.132V27.29l-0.041-0.215l-0.004-0.117l0.025-0.104l0.078-0.112l0.154-0.125l0.125-0.099
			l0.117-0.118l0.076-0.062l0.646-0.777l0.521-0.622l0.666-0.638l0.756-0.745l0.496-0.445l0.484-0.437l0.416-0.449l0.666-0.729
			l0.486-0.482l0.83-0.745l0.449-0.341l0.342-0.188l0.162,0.001l0.197,0.095l0.105,0.172l-0.037,0.233l-0.127,0.279l-0.307,0.437
			l-0.379,0.324l-0.307,0.249l-0.018,0.14l-0.002,0.109l0.127,0.125l-0.002,0.124l-0.072,0.25l-0.234,0.404l-0.055,0.17l0.07,0.172
			l0.107,0.062l0.285,0.033h0.324l0.145,0.049l0.105,0.155v0.155l0.125,0.109l0.27,0.109l0.232-0.015l0.287-0.124l0.521-0.45
			l0.416-0.496l0.488-0.698l0.252-0.529l0.057-0.202l-0.055-0.156l-0.105-0.14v-0.125l0.055-0.094l0.199-0.248l0.324-0.312
			l0.623-0.696l0.162-0.17l0.398-0.527L83.84,18.2l0.256-0.527l0.127-0.39l0.182-0.373l0.217-0.247l0.201-0.234l0.252-0.278
			l0.182-0.233l0.072-0.123l-0.07-0.141l-0.16-0.141v-0.125l0.072-0.125l0.217-0.232l0.164-0.17l0.199-0.316l-0.023-0.11
			l-0.201-0.212l-0.408-0.243l-0.205-0.083l-0.121,0.049l-0.129,0.28l-0.154,0.149l-0.207-0.006l-0.734-0.303l-0.611-0.43
			l-0.262-0.162l-0.148-0.004l-0.15,0.047l-0.092,0.101l-0.062,0.052l-0.09-0.004l-0.088-0.027l-0.145-0.159l0.006-0.154
			l0.125-0.152l0.096-0.203l0.133-0.358l0.004-0.103l-0.145-0.133l-0.27-0.007l-0.564-0.015l-0.289-0.24l-0.26-0.29l-0.377-0.294
			l-0.438-0.244l-0.381-0.216l-0.293-0.137l-0.178-0.004l-0.197-0.005l-0.26-0.071l-0.293-0.051l-0.494-0.3l-0.562-0.548
			l-0.398-0.44l-0.691-0.491l-0.656-0.38l-0.824-0.545L74.15,7.659l-0.754-0.35L72.02,6.664L70.895,5.79l-0.764-0.686l-0.662-0.962
			l-0.301-0.274l-0.59-0.24l-0.844-0.039l-1.072-0.09l-1.201-0.087L64.617,3.4l-0.26-0.022L64.184,2.99L63.83,1.961l-0.049-0.559
			l-0.104-0.222L63.48,1.072l-0.717-0.125l-1.141-0.116l-0.73-0.115l0.201,0.306l0.316,0.269l0.064,0.19l-0.062,0.19L61.193,1.81
			l-0.689,0.195l-0.691,0.06l-0.721,0.168L58.59,2.481l-0.871,0.822l-0.777,0.849l-0.529,0.33L55.85,4.758l-1.098,0.309l-1.41,0.23
			L52.59,5.495l-0.404,0.33l-0.498,0.439l-1.436,0.774l-1.906,0.617l-1.156,0.285l-0.719,0.198l-0.816,0.09l-0.281,0.03l-0.221-0.08
			l-0.064-0.135l-0.035-0.217l-0.07-0.515l-0.064-0.217L44.6,6.825L44,6.669l-0.599-0.184L42.8,6.248l-0.318-0.268l-0.098-0.216
			L42.256,5.71l-0.251,0.003l-0.153,0.137l-0.346,0.086L41.16,5.858l-0.567-0.184l-0.35-0.131l-0.346-0.023l-0.658,0.116
			l-0.722,0.09l-0.498,0.277L37.55,6.199l-0.375,0.059l-0.851-0.044l-1.1,0.041l-0.909,0.093l-0.438,0.087l-0.459,0.161
			l-0.276,0.248l-0.153,0.216l-0.342,0.167L32.3,7.178l-0.286-0.187l-0.163-0.324l-0.16-0.215l-0.16-0.134L31.278,6.24l-0.313-0.05
			l-0.443-0.185l-0.319-0.267l-0.161-0.215l-0.16-0.214l-0.254-0.051l-0.438-0.021l-0.284-0.05l-0.284-0.05l-0.28,0.031
			l-0.532,0.143l-1.03,0.395l-1.343,0.399l-0.843,0.338l-0.218,0.166l-0.248,0.113l-0.504-0.021l-0.787-0.124l-1.041-0.229
			l-0.57-0.235L20.839,5.82l-0.162-0.27l-0.099-0.161l-0.257-0.268l-0.166-0.405L19.93,4.42l-0.118-0.112l-0.054-0.15l-0.062-0.062
			L19.582,3.98l-0.255-0.054l-0.286-0.013l-0.286,0.042l-0.492,0.057l-0.668,0.03l-0.605-0.012l-0.461-0.04l-0.303-0.026
			l-0.491,0.082l-0.349,0.07L14.86,4.146l-0.478-0.012l-0.415,0.121l-0.208,0.125l-0.286,0.249L13.095,4.89l-0.223,0.069h-0.209
			l-0.364-0.111L11.997,4.69l-0.263-0.27l-0.275-0.303l-0.079-0.203l-0.028-0.293L11.35,3.44l-0.065-0.135l-0.132-0.079
			l-0.092-0.102l-0.08-0.327L10.952,2.29l-0.04-0.146L10.82,2.087l-0.183-0.021l-0.34,0.035l-0.196,0.068L9.867,2.307L9.49,2.432
			L9.007,2.524L8.382,2.798L7.6,3.119l-0.754,0.28L6.493,3.524l-0.352,0.16L5.737,3.855L5.346,3.902l-0.314-0.01L4.495,3.793
			L4.011,3.616L3.697,3.504L3.214,3.506L2.43,3.522L1.712,3.605L0.529,3.762"/>
	</g>
</g>
<g id="Layer_1">
</g>
</svg>
