<?xml version="1.0" encoding="utf-8"?>
<!-- Generator: Adobe Illustrator 16.0.4, SVG Export Plug-In . SVG Version: 6.00 Build 0)  -->
<!DOCTYPE svg PUBLIC "-//W3C//DTD SVG 1.1//EN" "http://www.w3.org/Graphics/SVG/1.1/DTD/svg11.dtd">
<svg version="1.1" id="Layer_1" xmlns="http://www.w3.org/2000/svg" xmlns:xlink="http://www.w3.org/1999/xlink" x="0px" y="0px"
	 width="301.573px" height="129.298px" viewBox="-133.874 -57.207 301.573 129.298"
	 style="enable-background:new -133.874 -57.207 301.573 129.298;" xml:space="preserve">
<g id="Layer_101">
	<path id="Orakzai_Agency." style="fill:#CCCCCC;stroke:#FFFFFF;stroke-width:1.15;" d="M-68.097,63.178L-68.097,63.178l0.035-0.079
		l0.54-8.184l0.377-0.035l0.8,0.386l0.632,0.466l0.773,0.176l0.899-0.202l0.997-0.159l1.33-0.166l0.936-0.141l0.816-0.562
		l1.026-0.527l0.853-0.185l1.532,0.334l0.755,0.456l0.772,0.562l0.918,0.281l1.229,0.475l0.609,0.544l0.984,0.22l1.049,0.518
		l0.729,0.237l0.988-0.018l0.9-0.264l1.312-0.157l0.522,0.579l0.062,0.852l0.558,0.386l0.693,0.114l1.071-0.114l0.773,0.019
		l1.089,0.184l0.653,0.649l0.396,0.729l0.386,0.57l0.427,0.413l0.697,0.676l0.936,0.957l0.83,0.545l0.602,0.245l0.97-0.114
		l0.686-0.553l0.935-0.43l1.133-0.167l0.926,0.035l0.883,0.21l0.997,0.281l0.456,0.133l0.575,0.465l0.694,0.447l0.729-0.22
		l0.646,0.29l0.899,0.326l1.313-0.186l0.943-0.097l0.686,0.035l0.852,0.264l1.664,0.149l0.614-0.492l1.159-0.597l0.755,0.369
		l0.558,0.307l1.071,0.642l0.681,0.298l1.559-0.211l0.953,0.352l0.987,0.211l0.86-0.264l0.747-0.562l0.966-0.756l0.737-0.535
		l1.313-0.755l0.943-0.369l0.936-0.167l0.935,0.07l0.755,0.255l0.971,0.413l0.711,0.157l1.076,0.404l1.062,0.298l0.637,0.062
		l1.321,0.712l0.83,0.597l1.049,0.272l0.694,0.185l0.838,0.132l0.698,0.062l1.87-0.062l0.865,0.025l0.746,0.106l0.755,0.22
		l0.936,0.315l0.686,0.404l0.754,0.658l1.023,0.913l0.593,0.29l0.575,0.29l0.755,0.097l1.19,0.035l1.475,0.192l0.721-0.026
		l0.931-0.078l1.242-0.114l1.457-0.686l0.638-0.378l1.102-0.333l0.825,0.404l0.781-0.193l-0.062,0.334l1.125-0.65l0.5,0.545h1.59
		l0.825-0.369l1.106-0.439l0.737-0.711l0.843-0.483l0.755-0.755l0.686-0.939l1.177-0.369l0.755-0.5l0.86-0.474l1.212-0.659
		l1.053-0.58l0.264-0.148l0.879-0.475l1.422-0.808l1.071-0.649l0.809-0.448l0.43-0.228l0.57-0.308l1.143-1.062l0.562-0.404
		l0.878-0.132l1.265-0.237l1.317-0.43l0.86-0.536l0.448-0.57l2.449-0.36l1.194-0.422l1.309-0.114l0.72-0.069l1.95-0.185l1.475-0.105
		l0.922-0.176l0.562-0.571l0.562-0.597l0.976-0.412l0.922-0.176l1.036,0.035l0.72,0.123l1.159-0.132l1.493-0.255l1.124-0.053
		l1.142-0.281l0.755-0.088l1.194-0.104l1.694-0.614l0.255-0.423l0.352-0.569l0.562-1.125l0.141-1.124l-0.702-0.078l-1.002,0.062
		l-1.054,0.096L71.33,47.89l-1.738,0.167l-1.353,0.035l-1.142-0.185l-0.939-0.431l-1.273-1.202l-0.553-0.861l-0.703-1.334
		l-0.939,0.025l-1.142,0.01h-0.721l-1.369-0.158l-1.317-0.544l-0.685-0.554l-0.422-0.527l-0.403-0.93l0.236-0.879l0.571-0.658
		l1.563-0.738l1.439-0.553l0.808-0.237l1.791-0.921l0.853-0.176l0.456-0.756l0.185-0.755l0.316-0.992l0.808-0.826l0.598-0.316
		l1.423-0.535l1.737-0.579l0.589-0.386l0.737-0.615l1.071-0.29l0.958-0.158l1.316-0.184l1.019-0.984l0.668-0.614l0.931,0.079
		l1.123-0.21l0.861,0.771l0.676,0.694l0.79,0.431l0.765,0.254l1.009,0.185l0.703,0.352l1.124,0.21l0.957,0.352l1.335,0.114
		l0.913-0.132l0.772,0.387l1.142,0.316l1.896,0.131l1.739-0.482l-0.449-0.686l-0.553-0.562l-0.957-0.816l-0.781-0.738l-0.825-0.702
		l-0.878-0.404l-0.562-0.403l-1.01-0.369l-1.273-0.236l-0.931-0.598l-1.089-0.931l-0.421-0.642l-0.177-0.351l-0.526-1.115
		l-0.456-0.808l-0.65-0.685l-0.562-0.502l-0.966-0.517l-0.633-0.404l-1.878-1.282l-0.931-0.816l-0.404-1.309l0.245-0.712
		l0.413-0.886l0.342-0.957l0.413-0.923l0.387-0.799l0.202-0.904l0.14-0.677v-1.149v-0.246l-0.157-0.746l-0.229-0.79l-0.272-0.975
		l-0.324-0.738L76.37,6.322l-0.123-0.825l-0.755-1.273l-0.623-0.562l-0.677-0.264l-0.913-0.193l-0.825-0.711l0.298-0.658
		l0.334-0.615l-0.501-0.544l-0.368-0.817l-0.22-1.22l-0.219-0.693l0.342-0.624l0.562-0.378l0.667-0.413l0.948-0.465l1.281-0.588
		l1.282-0.431L78.688-5.4l1.563,0.307l0.535,0.8l0.324,0.57L81.48-3.03l1.123,0.878l0.861,0.422l0.825,0.193l1.317,0.097
		l0.896,0.193l0.229,0.79l0.211,0.605l0.623,0.492l0.939-0.132l0.992-0.229l0.957-0.088l0.904-0.966l0.939-0.553l1.195,0.122
		l1.089,0.615l1.29,1.001l1.106,0.422l0.853,1.009l0.597,0.343l1.316,0.352l0.931,0.246l0.931,0.088l0.756,0.324l0.737-0.069
		l0.755-0.07l1.178,0.447l0.518,0.939l0.439,1.291l0.298,0.579l0.756,1.15l0.798,1.142l0.809,0.966l0.562,0.624l-0.228,1.316
		l0.035,0.746l0.271,1.722l0.413,0.632l0.475,0.553l0.597,0.352l1.054,0.343l0.755,0.184l1.142,0.87l0.791,0.86l0.868,0.649
		l0.94,0.378l1.054-0.104l1.79,1.747l1.125,0.746l1.071,0.764l0.245,0.685l0.931,0.721l0.896,1.203l0.869,1.29l1.115,0.483
		l0.72,0.184l0.737-0.122l1.178,0.412l0.729,0.229l0.781,0.352l0.896,0.324l0.939,0.492l1.599,0.519l1.018,0.518l1.028,0.79
		l1.545,1.054l0.809,0.571l1.483,0.342l0.756,0.501l1.114,0.764l1.466-0.062h0.659l0.649-0.246l0.702,0.624l0.624,0.57l0.554,0.869
		l0.904,1.037l0.975,0.938l0.65,0.633l0.641,0.702l0.904,1.106l0.737,0.369h0.009l0.765-0.624l0.666,0.026l1.002,0.176l1.457,0.668
		l1.493,0.598l0.983,0.017l1.045-0.359l0.975-0.431l0.843-0.562l0.667-0.721l0.281-0.702l0.421-0.755l-0.236-0.939l-0.255-0.861
		l0.422-0.553l0.474-0.86l-0.896-1.028l-0.491-0.491l0.14-0.693l0.615-0.86l1.317-0.589l-2.739-2.318l-2.652-4.285l-1.193-1.861
		l0.333-3.617l-0.668-2.468l-0.931-4.558l-0.526-2.326l-0.07-3.064l-0.457-3.363l-0.992-2.651l-0.746-3.969l-0.58-2.881
		l-2.046-1.747l-2.361-1.905l-2.046-3.293l-3.294-3.188l-1.931-3.618l-0.501-3.073l-2.484-5.672l-2.441,0.816l-3.214,1.01
		l-4.645-0.299l-3.364-1.976l-1.702-1.835l-2.863-0.781l-2.793-0.035l-4.196-1.563l-2.072-1.01l-1.625-0.746l-2.309-1.265
		l-2.774-1.422l-2.231-1.643l-1.273-1.87l-2.027-1.58l-5.813-2.459l-5.426-2.178l-4.936-1.94l-3.091-1.458l-2.529-0.632
		l-3.056-2.055l-3.941,0.711l-1.159,2.994l-1.801,3.846l-0.649,3.171l-1.773,2.467l-2.16,1.344l-1.801,2.282l-3.188,1.678
		l-2.16,0.447l-3.406,1.423l-4.109,0.483l-2.468,0.421l-4.118,0.105l-4.707,1.089l-2.985,0.035l-6.129,0.483l-2.766,0.158
		l-3.553,0.746l-3.67,0.22l-1.861,1.8l-0.566,2.134l0.188,4.513l-0.07,2.837l0.593,2.396l-0.083,3.847l-2.055,1.606l-4.983,0.677
		l-3.398,0.553l-3.696,0.641l-3.104,1.002L-4.761-8.14L-6.93-7.727l-2.463,0.553l-2.56,0.676L-14.5-6.164l-2.73,0.483l-5.058,1.432
		l-2.688-0.036l-3.587,0.15l-3.183,0.824l-2.178,0.413l-2.155,0.519l-3.293,0.896l-6.085,1.316l-1.208,0.054l-2.309,0.097
		l-5.15,1.501l-5.163,0.562L-63,2.872l-4.442,1.422h-2.651l-5.269,0.712l-6.924,0.553l-3.776-0.299l-6.124-0.034L-96.925,1.3
		l-2.669-1.379l-2.195-3.1l-2.067-1.721l-1.08-3.021l-1.682-3.696l-2.068-2.468l-1.681-1.502l-4.712-1.378l-1.76,1.686l-1.756,2.459
		l-2.021,2.651l-2.169,2.099l-1.448,2.169l-0.909,3.144l-2.199,2.134l-0.181,1.194l-0.565,2.915l3.363,3.548l3.183,2.133
		l-0.189,2.424l-0.737,3.064l1.726,1.721l-0.79,3.057l3.183,3.67l1.914,1.264l3.28,2.292l4.685,2.907l1.826,1.247l3.481,1.914
		l4.935,1.492l3.895,1.414l2.959,1.448l3.578,1.354l2.568,0.517l5.541,1.696l3.956,0.367h2.393l3.775,1.687l-1.312,3.662
		l-2.911,3.063l-0.452,3.662l-0.215,2.248l-0.079,2.915l4.873,4.382L-68.097,63.178"/>
</g>
<g id="Layer_1_1_">
</g>
</svg>
