<?xml version="1.0" encoding="iso-8859-1"?>
<!-- Generator: Adobe Illustrator 16.0.4, SVG Export Plug-In . SVG Version: 6.00 Build 0)  -->
<!DOCTYPE svg PUBLIC "-//W3C//DTD SVG 1.1//EN" "http://www.w3.org/Graphics/SVG/1.1/DTD/svg11.dtd">
<svg version="1.1" xmlns="http://www.w3.org/2000/svg" xmlns:xlink="http://www.w3.org/1999/xlink" x="0px" y="0px"
	 width="37.425px" height="27.695px" viewBox="0 0 37.425 27.695" style="enable-background:new 0 0 37.425 27.695;"
	 xml:space="preserve">
<g id="Layer_149">
	<g id="Layer_154">
		<path id="Gujrat" style="fill:#CCCCCC;stroke:#FFFFFF;stroke-width:1.07;" d="
			M26.262,20.645L26.262,20.645h0.041l0.113-0.012l0.109-0.01l0.106-0.021l0.146-0.057l0.094-0.043l0.072-0.049l0.059-0.044
			l0.043-0.04l0.043-0.084l0.072-0.202l0.041-0.123l0.045-0.083l0.022-0.033l0.039-0.041l0.056-0.021l0.107-0.025l0.14-0.024
			l0.168-0.045l0.067-0.017l0.12-0.065l0.085-0.012l0.116-0.007l0.098-0.011l0.072-0.02l0.102-0.045l0.062-0.037l0.09-0.047
			l0.103-0.054l0.147-0.094l0.197-0.128l0.088-0.057l0.043-0.012l0.053-0.001l0.165,0.011l0.151,0.016l0.07,0.018l0.059,0.027
			l0.063,0.046l0.056,0.044l0.057,0.053l0.05,0.018l0.038,0.002l0.046-0.004l0.126-0.031l0.13-0.037l0.064-0.02l0.064-0.037
			l0.068-0.043l0.057-0.032l0.04-0.017l0.064,0.004l0.165,0.016l0.177,0.017l0.084-0.003l0.104-0.011l0.091-0.005l0.114-0.02
			l0.12-0.02l0.087-0.02l0.078-0.125l0.338-0.138l0.125-0.144l0.132-0.121l0.18-0.164l0.3-0.194l0.624-0.45l0.474-0.298l0.253-0.157
			l0.354-0.25l0.282-0.217l0.257-0.18l0.158-0.088l0.18-0.104l0.08-0.038l0.103-0.012l0.143-0.029l0.156-0.067l0.207-0.124
			l0.272-0.243l0.234-0.257l0.116-0.188l0.079-0.211l0.093-0.371l0.099-0.28l0.03-0.165l-0.014-0.076l-0.027-0.05l-0.066-0.036
			l-0.095-0.005l-0.181,0.012l-0.265,0.051l-0.123,0.025h-0.096l-0.043-0.018l-0.076-0.09l-0.071-0.144l-0.023-0.104l-0.006-0.021
			l0.015-0.01l0.02-0.01l0.052,0.003l0.155,0.041l0.126,0.018l0.146,0.008l0.135-0.009l0.104-0.032l0.073-0.05l0.066-0.115
			l0.028-0.127l-0.02-0.184l-0.037-0.093l-0.075-0.096l-0.054-0.046l-0.069-0.014l-0.089-0.005l-0.212,0.021L36,13.297l-0.102-0.011
			l-0.088-0.016l-0.054-0.045l-0.021-0.071l0.012-0.074l0.023-0.053l0.119-0.148l0.128-0.095l0.105-0.064l0.05-0.062l-0.009-0.059
			l-0.076-0.074l-0.354-0.223l-0.255-0.164l-0.067-0.041l-0.018-0.022l0.004-0.048l0.053-0.029l0.064,0.003l0.215,0.017l0.166-0.007
			l0.123-0.02l0.071-0.028l0.036-0.057l0.006-0.064l-0.022-0.044l-0.046-0.072l0.003-0.038l0.037-0.068l0.153-0.088l0.081-0.066
			l0.049-0.056l0.018-0.022l-0.002-0.039l-0.194-0.238l-0.033-0.216l-0.006-0.036l-0.013-0.071l-0.02-0.054l-0.013-0.031l0,0
			l-0.246,0.056l-0.012,0.005l-0.428,0.192l-0.315,0.21l-0.064,0.043l-0.058,0.041l-0.312,0.225l-0.474,0.161l-0.565,0.058
			l-0.346-0.023l-0.302-0.058l-0.202-0.08l-0.292-0.116l-0.381-0.266l-0.302-0.323l-0.049-0.075l-0.193-0.294l-0.114-0.45
			L31.39,9.766l-0.174,0.008l-0.104,0.004l-0.206-0.067L30.65,9.628l-0.352-0.195l-0.168-0.094L29.96,9.261l-0.384-0.176
			l-0.461-0.173l-0.162-0.104l-0.504-0.183l-0.131-0.047l-1.327-0.693l-0.208-0.069l-0.346-0.195l-0.427-0.162L25.679,7.29
			l-0.218-0.11l-0.039-0.021h-0.001l-0.778-0.281l-0.087-0.031l-0.322-0.162L24.09,6.632l-0.318-0.12l-0.073-0.047l-0.076-0.049
			l-0.047-0.031l-0.067-0.03L22.986,6.12l-0.304-0.111l-0.517-0.188l-0.322-0.22l-0.157-0.078L21.06,5.21l-0.266-0.104l-0.408-0.094
			l-0.793-0.183L19.274,4.73l-0.456-0.14l-0.125-0.039l-1.015-0.438l-0.158-0.104l-0.361-0.242l-0.033-0.014l-0.129-0.056
			l-0.093-0.138l-0.056-0.044l-0.105-0.083L16.5,3.156l-0.668-0.981l-0.174-0.381l-0.098-0.098l-0.029-0.029l-0.028-0.061
			L15.45,1.493l-0.162-0.126l-0.126-0.173l-0.877-0.508l-0.739-0.139l-0.229-0.011L13.04,0.547l-0.163,0.055l-0.045,0.015
			L12.59,0.64l-0.274,0.07l-0.533,0.137l-0.139,0.104l-0.393,0.15L10.33,1.542l-0.141,0.067L9.97,1.678L9.516,1.734L9.168,2.541
			L9.14,2.633L9.064,2.708L8.949,2.813L8.844,2.89L8.828,2.975L8.813,3.049l-0.263,0.07L8.356,3.384L8.182,3.563l-0.29,0.264
			l-0.2,0.242L7.434,4.36L7.136,4.626L6.745,4.985L6.33,5.374L5.935,5.697L5.495,5.991L5.362,6.078L5.147,6.283l-0.164,0.14
			l-0.236,0.18L4.564,6.705L4.28,6.867L4.02,7.012l-0.24,0.157l-0.211,0.15L3.353,7.511l-0.22,0.204L2.82,8.076L2.638,8.309
			L2.331,8.681L2.21,8.875L2.138,8.993L2.063,9.157L1.974,9.39L1.907,9.545L1.801,9.701L1.738,9.807L1.696,9.899l-0.029,0.112
			l0.001,0.165l-0.031,0.256l-0.095,0.361l-0.13,0.359l-0.18,0.326L1.063,11.74l-0.188,0.22l-0.232,0.232l-0.005,0.132l-0.031,0.093
			l-0.029,0.095l-0.012,0.035L0.554,12.58l0.008,0.039l0.045,0.06l0.036,0.079l0.007,0.056l-0.026,0.113l-0.019,0.089l0.002,0.066
			l0.029,0.106l0.034,0.061l0.068,0.057l0.097,0.032l0.151,0.058l0.188,0.065l0.125,0.056l0.12,0.111l0.08,0.082l0.079,0.093
			l0.094,0.204l0.105,0.22l0.148,0.221l0.075,0.1l0.108,0.094l0.099,0.086l0.057,0.026l0.097,0.018l0.062,0.003l0.064-0.01
			l0.044-0.018l0.037-0.026l0.027-0.047l0.032-0.078l0.074-0.088l0.33,0.145l0.227,0.083l0.07,0.028l0.113,0.056l0.133,0.073
			l0.049,0.071l0.024,0.06l0.011,0.065l-0.014,0.06l-0.034,0.086l-0.033,0.063l-0.047,0.085l-0.046,0.064L3.459,15.49l0.006,0.031
			l0.024,0.045l0.043,0.06l0.087,0.115l0.104,0.174l0.14,0.282l0.071,0.207l0.03,0.107l0.011,0.151l0.011,0.087l0.018,0.076
			l0.056,0.082l0.057,0.064l0.037,0.039l0.062,0.039l0.107,0.034l0.083,0.028l0.057,0.033l0.05,0.043l0.101,0.1l0.075,0.083
			l0.104,0.11l0.057,0.049l0.095,0.056l0.189,0.047l0.4,0.104l0.216,0.047l0.141,0.041l0.177,0.084l0.111,0.062l0.062,0.039
			l0.051,0.057l0.038,0.052l0.013,0.044l0.003,0.048L6.33,18.245l-0.019,0.028l-0.019,0.021l-0.001,0.037l0.021,0.052l0.037,0.048
			l0.034,0.045l0.042,0.057l0.024,0.048l-0.002,0.04l0.003,0.062l-0.007,0.125l-0.02,0.072l-0.007,0.066l0.002,0.059l0.033,0.061
			l0.057,0.06l0.098,0.086l0.116,0.101l0.145,0.121l0.167,0.094l0.31,0.156l0.201,0.088l0.173,0.051l0.143,0.025l0.16,0.014
			l0.139,0.018L8.308,19.9l0.169,0.021l0.207,0.037l0.144,0.015l0.15,0.031l0.077,0.034l0.038,0.026l0.029,0.029l0.028,0.067
			l0.033,0.085l-0.002,0.066l-0.016,0.062l-0.008,0.051L9.112,20.52l-0.062,0.09l-0.071,0.076l-0.098,0.098l-0.09,0.09l-0.035,0.043
			l-0.031,0.062l-0.017,0.047v0.045l0.021,0.043l0.006,0.395L8.69,21.852l-0.001,0.084l-0.006,0.271v0.229l0.028,0.092l0.068,0.147
			l0.062,0.062l0.086,0.021l0.063,0.018l0.023,0.027l0.003,0.047l0.001,0.039l0.015,0.055l0.145,0.132l0.139,0.093l0.065,0.025
			l0.078,0.014l0.261,0.036l0.086,0.018l0.056,0.041l0.026,0.032l0.001,0.036L9.88,23.436l-0.01,0.056l0.024,0.062l0.084,0.09
			l0.104,0.076l0.162,0.08l0.154,0.053l0.152,0.027l0.116,0.014l0.121,0.034l0.119,0.05l0.194,0.112l0.269,0.106l0.197,0.082
			l0.103,0.067l0.099,0.147l0.082,0.132l0.073,0.08l0.137,0.226l0.089,0.084l0.108,0.066l0.062,0.033l0.159,0.039l0.087,0.043
			l0.118,0.065l0.062,0.056l0.037,0.06l0.011,0.047l0.001,0.039l-0.045,0.044l-0.048,0.083l-0.039,0.073l-0.031,0.107l-0.009,0.104
			l-0.003,0.099l0.038,0.094l0.061,0.153l0.069,0.153l0.014,0.098l-0.01,0.096l-0.003,0.086l0.023,0.082l0.042,0.072l0.052,0.059
			l0.031,0.025l0.035,0.008l0.062,0.006l0.134,0.119l0.119,0.082l0.216-0.068l0.135-0.057l0.051-0.018l0.037-0.001l0.025,0.005
			l0.026,0.027l0.045,0.025h0.058l0.114-0.057l0.151-0.09l0.271-0.107l0.146-0.047l0.258-0.109l0.102-0.045l0.172-0.063l0.223-0.058
			l0.07-0.002l0.046,0.016l0.045,0.042l0.091,0.03l0.166,0.003l0.143-0.003l0.102-0.006l0.127-0.041l0.185-0.047l0.12-0.039
			l0.279-0.119l0.203-0.074l0.312-0.104l0.202-0.09l0.113-0.078l0.107-0.078l0.056-0.065l0.08-0.121l0.066-0.108l0.037-0.065
			l0.062-0.099l0.05-0.066l0.111-0.088l0.112-0.083l0.089-0.072l0.067-0.083l0.086-0.126l0.101-0.144l0.093-0.131l0.087-0.109
			l0.1-0.143l0.094-0.105l0.088-0.077l0.119-0.083l0.172-0.079l0.177-0.106l0.15-0.1l0.177-0.148l0.101-0.072l0.058-0.039
			l0.052-0.001l0.052,0.005l0.058,0.021l0.04,0.08l0.062,0.174l0.035,0.146l0.054,0.106l0.046,0.07l0.085,0.041l0.097,0.021
			l0.083-0.001l0.063-0.028l0.057-0.039l0.03-0.066l0.005-0.07l-0.047-0.107l-0.041-0.106l-0.011-0.085l-0.008-0.055l0.029-0.065
			l0.038-0.044l0.051-0.033l0.108-0.014l0.07-0.012l0.088-0.039l0.106-0.084l0.069-0.039l0.058-0.028l0.103-0.013h0.07l0.122-0.019
			l0.102-0.028l0.07-0.019l0.121-0.002l0.063-0.019l0.069-0.027l0.107-0.023l0.069-0.022l0.058-0.034l0.051-0.033l0.037-0.027
			l0.068-0.088l0.354-0.457l0.094-0.152l0.043-0.045l0.045-0.017h0.032l0.024,0.005l0.021,0.017l0.014,0.032l0.021,0.037l0.02,0.017
			h0.038l0.038-0.039l0.056-0.062l0.14-0.11l0.117-0.087l0.068-0.032l0.052-0.019h0.069l0.084-0.018l0.057-0.021l0.09-0.045
			l0.062-0.051l0.139-0.072l0.141-0.084l0.12-0.072l0.106-0.083l0.062-0.044l0.024-0.027l0.013-0.061l-0.002-0.069l-0.009-0.06
			l-0.008-0.056l-0.001-0.038l0.031-0.049l0.037-0.07l0.012-0.033l-0.001-0.021l-0.038-0.021l-0.025-0.031l0.006-0.016l0.019-0.033
			l0.063-0.019l0.097,0.009l0.052,0.032l0.1,0.118l0.065,0.098l0.04,0.043l0.076,0.008l0.09,0.004h0.071l0.023-0.027l0.013-0.054
			l-0.01-0.109l-0.009-0.086l0.013-0.06l0.044-0.055l0.038-0.039l0.127-0.052l0.565-0.182l0.146-0.03h0.039l0.024,0.021
			L26.262,20.645"/>
	</g>
</g>
<g id="Layer_1">
</g>
</svg>
