<?xml version="1.0" encoding="utf-8"?>
<!-- Generator: Adobe Illustrator 16.0.4, SVG Export Plug-In . SVG Version: 6.00 Build 0)  -->
<!DOCTYPE svg PUBLIC "-//W3C//DTD SVG 1.1//EN" "http://www.w3.org/Graphics/SVG/1.1/DTD/svg11.dtd">
<svg version="1.1" id="Layer_1" xmlns="http://www.w3.org/2000/svg" xmlns:xlink="http://www.w3.org/1999/xlink" x="0px" y="0px"
	 width="301.079px" height="240.411px" viewBox="-134.406 -107.221 301.079 240.411"
	 style="enable-background:new -134.406 -107.221 301.079 240.411;" xml:space="preserve">
<g id="Layer_76">
	<path id="Lodhran" style="fill:#CCCCCC;stroke:#FFFFFF;stroke-width:1.15;" d="M156.422,39.852L156.422,39.852l0.699-0.571
		l0.908-0.881l0.535-0.518l1.108-1.407l-0.2-0.572l-0.354-1.117l-0.571-1.661l-0.563-1.018l-0.78-0.871l-0.554-0.473l-0.473-0.826
		l-0.2-1.062l0.055-1.68l0.372-1.462l0.545-1.525l0.427-0.981l0.327-0.58l0.391-0.546l0.326-0.29l0.428-0.182l1.353-0.508
		l0.581-0.255l0.263-0.382l0.091-0.336l-0.071-0.572l-0.481-0.58l-1.644-1.666l-0.427-0.5l-0.218-0.159l-0.236-0.027l-0.236,0.168
		l-0.3,0.187l-0.572,0.054l-0.309-0.035l-0.281-0.096l-0.163-0.223l-0.01-0.318l0.072-0.49l0.273-0.595l0.309-0.458l0.199-0.527
		l-0.009-0.381l-0.236-0.231l-0.19-0.022l-0.2,0.04l-0.29,0.195l-0.291,0.25l-0.535,0.286l-0.527,0.245l-0.662,0.195l-0.354-0.059
		l-0.617-0.037l-0.245,0.019l-0.191,0.077l-0.1,0.1l-0.136,0.15l-0.073,0.29l-0.072,0.509l0.181,0.494l0.236,0.723l0.146,0.727
		l0.155,0.645l0.136,0.572l-0.046,0.309l-0.145,0.309l-0.282,0.264l-0.454,0.136l-0.59,0.073l-0.454-0.191l-0.399-0.381
		l-0.581-0.645l-0.382-0.173l-0.391-0.091l-0.372-0.072l-0.627,0.163l-0.554,0.181l-0.572,0.273l-0.635,0.154l-0.581,0.054
		l-0.581-0.045l-0.545,0.109l-0.727,0.108l-1.062-0.127l-0.499-0.199l-0.582-0.336l-0.572-0.572l-0.254-0.582l-0.254-0.462
		l-0.363-0.531l-0.499-0.273l-0.682-0.34l-0.989-0.44l-0.19-0.231l-0.2-0.346l-0.036-0.381l0.218-0.649l0.136-0.24l0.318-0.195
		l0.362-0.195l0.572-0.045l1.372,0.072l1.089,0.195l0.718,0.141l0.572-0.068l0.19-0.331l0.108-0.486l0.109-0.276l0.236-0.178h0.437
		l0.662-0.194l0.264-0.15l0.208-0.213l0.128-0.445v-0.522l-0.19-0.604l-0.474-0.354l-0.898-0.195l-1.679-0.196l-2.524-0.036h-1.436
		l-0.771,0.036l-0.6,0.169l-0.345,0.036l-0.399-0.036l-0.519-0.272l-1.044-0.949l-2.288-2.379l-0.881-0.727l-0.199-0.163
		l-0.19-0.113l-0.382,0.062l-0.3,0.142l-0.582,0.132l-0.571-0.06l-0.89,0.15l-0.444,0.059l-0.646-0.022l-0.826-0.073l-0.608-0.019
		l-0.572,0.073l-0.472,0.178l-0.6,0.177l-0.373,0.026l-0.454-0.062l-0.172-0.15l-0.282-0.576l-0.681-2.353l-0.208-0.604
		l-0.318-0.391l-0.6-0.272l-0.462-0.19l-0.392-0.06l-0.29,0.078l-0.48,0.268l-0.409,0.223l-0.763,0.194l-0.4,0.087l-0.525,0.173
		l-0.228,0.149l-0.246-0.036l-0.407-0.168l-0.301-0.576l-0.372-1.367l-0.1-1.457l0.218-1.472l0.063-0.622l-0.173-0.78l-0.861-1.357
		l-0.101-0.327l0.101-0.686l0.381-0.967l0.199-0.959l0.109-0.662l-0.1-0.363l-0.101-0.195l-0.254-0.109h-0.282l-0.58,0.055
		l-0.772,0.063l-0.417-0.136l-0.745-0.204l-0.59-0.346l-0.2-0.195l-0.463-0.054l-0.699-0.005l-1.008,0.132l-0.555-0.036
		l-0.227-0.114l-0.372-0.19l-0.118-0.531l0.082-0.967l-0.199-0.663l-0.346-0.967l-0.191-0.55l0.056-0.436l0.008-0.454l-0.118-0.485
		l-0.117-0.241l-0.227-0.187l-0.209-0.036l-0.363,0.123l-0.19,0.341l-0.399,0.354l-0.173,0.346l-0.191,0.194l-0.391,0.063
		l-0.78-0.145l-0.464-0.2l-0.199-0.127l-0.408-0.063l-0.182,0.19l-0.127,0.363l-0.01,0.29l0.154,0.25l0.191,0.363l0.199,0.25
		l-0.019,0.186l-0.108,0.196l-0.236,0.271l-0.218,0.169l-0.391,0.145l-0.327-0.036l-0.199-0.108l-0.191-0.196l-0.126-0.417
		l-0.037-0.822l-0.136-0.744l-0.391-0.781l-0.427-0.55l-0.572-0.23l-0.59-0.037l-0.963-0.1l-0.264-0.041l-0.163,0.019l-0.199,0.132
		l-0.237,0.195l-0.345,0.467L97.39-15.42l-0.272,0.218l-0.636,0.091l-0.827-0.063l-0.943-0.3l-0.346-0.259l-0.145-0.326l0.099-0.577
		l-0.118-0.967l-0.208-0.473l-0.318-0.744l-0.026-0.69l-0.082-0.567l0.055-0.305l0.244-0.467l0.446-0.418l1.353-0.985l0.817-0.531
		l1.198-0.576l1.018-0.195l1.253-0.223l1.244-0.454l0.844-0.459l0.908-0.444l0.771-0.408l0.582-0.509l0.999-0.972l0.427-0.472
		l0.399-0.505l0.326-0.518l0.2-0.604l0.153-1.008l0.183-0.572l0.6-0.627l0.553-0.304l0.709-0.195l0.854-0.018l1.145-0.237
		l1.589-0.381l0.963-0.322l0.553-0.381l0.437-0.514l0.154-0.509l-0.127-0.326l-0.663-0.418l-0.617-0.327l-0.526-0.036l-0.509-0.036
		l-0.219-0.113l-0.362-0.214l-0.481-0.613l-0.346-0.513l-0.19-0.186l-0.336-0.073l-0.671,0.127l-1.189,0.15l-1.172,0.072
		l-1.117,0.077l-0.5-0.204l-0.281-0.399l-0.136-0.967l-0.019-0.478l0.245-0.399l0.009-0.204l-0.271-0.268l-0.563-0.195l-0.753-0.281
		l-0.473-0.155l-0.182-0.263l0.018-0.214l0.027-0.399l0.19-0.417l-0.018-0.282l-0.3-0.304l-0.408-0.309l-0.228-0.4l-0.39-0.612
		l-0.409-0.195l-0.59-0.268l-0.245-0.187l-0.309-0.399l-0.083-0.727l-0.289-0.763l-0.419-0.817l-0.254-0.477l-0.218-0.118
		l-0.381-0.059l-0.591-0.195l-0.408-0.322l-0.291-0.968l-0.272-0.78l-0.254-0.618l-0.318-0.399l-0.309-0.163l-0.535-0.041
		l-0.708,0.113l-1.054,0.15l-0.872,0.231l-0.535,0.091l-0.382-0.055l-0.291-0.195l-0.218-0.473l-0.209-0.726l0.083-1.126
		l0.289-0.967l0.282-0.836l0.036-0.54l-0.154-0.567l-0.263-0.232l-0.291-0.203l-0.427-0.096l-0.581-0.046l-0.562,0.195l-0.364,0.231
		l-0.544,0.423l-0.663,0.686l-0.745,0.708l-0.735,0.713l-0.363,0.195l-0.444,0.195l-0.437,0.067l-0.381-0.149l-0.555-0.291
		l-0.263-0.381l0.063-0.836l0.199-0.567l0.399-0.686l0.582-0.727l0.509-0.763l0.199-0.689l-0.109-0.418l-0.154-0.195l-0.382-0.1
		l-0.854-0.036l-0.907-0.15l-0.581-0.195l-0.19-0.281l-0.137-0.341l0.309-0.672l0.19-0.354l0.045-0.48l-0.062-0.363l0.009-0.195
		l0.118-0.318l0.19-0.285l0.199-0.159l0.481-0.072l1.009-0.168l0.572-0.255l0.971-0.526l0.627-0.576l0.437-0.459l0.181-0.668
		l0.055-0.567l-0.063-0.472l-0.272-0.346l-0.526-0.477l-0.5-0.286l-0.626-0.299l-0.854-0.178h-0.918l-0.463,0.059l-0.453,0.178
		l-0.527,0.072l-0.254-0.072l-0.418-0.159l-0.199-0.019l-0.563,0.055l-0.199,0.195l-0.273,0.346l-0.436,1.066l-0.399,1.599
		l-0.281,2.188l-0.037,2.288l-0.099,0.658l-0.191,0.326l-0.263,0.196l-0.427-0.019l-0.2-0.227l-0.454-0.4l-0.535-0.362l-0.745-0.428
		l-0.19-0.018l-0.173,0.123L76.813-59.9l0.046,0.586l0.072,0.518l-0.108,0.567l-0.127,0.531l-0.291,0.291l-0.354,0.195l-0.344,0.018
		l-0.481-0.123l-0.409-0.317l-0.444-0.445l-0.228-0.222l-0.182-0.295l-0.019-0.973l0.072-0.953l0.191-0.581l0.327-0.572l0.199-0.326
		l0.663-0.231l0.5-0.272l0.444-0.127l0.718-0.382l0.317-0.327l0.2-0.436l0.199-1.107l0.191-0.745l0.354-0.64l0.372-0.437l0.59-0.431
		l0.391-0.641l0.481-1.039L80.1-69.453l-0.281-0.799l-0.281-0.576l-0.336-0.195l-0.363-0.055l-0.372,0.019l-0.572,0.29l-0.799,0.358
		l-1.008,0.236l-0.237,0.072l-0.244-0.108l-0.327-0.149l-0.445-0.559l-0.363-0.968l-0.153-0.763l0.126-0.763l0.591-1.162
		l0.272-0.649v-0.531l0.146-0.921l0.172-0.586l0.291-0.346l0.545-0.399l0.891-0.472l0.652-0.418l0.972-0.939l0.318-0.559
		l0.154-0.708l-0.164-0.204l-0.335-0.159l-0.572-0.037L77.93-81.38l-0.363,0.195l-0.48,0.576l-0.373,0.4l-0.454,0.345l-0.763,0.382
		l-0.753,0.194l-0.836,0.073l-0.554-0.037l-0.264,0.055l-0.454,0.214l-0.172,0.204l-0.228,0.195l-0.182,0.086h-0.554l-0.636-0.231
		l-1.635-0.336l-1.316-0.195l-1.426-0.309l-1.579-0.549l-1.744-0.613l-1.462-0.649l-0.79-0.381l-0.581-0.595l-0.771-0.622
		l-0.646-0.45l-0.763-0.24l-0.662-0.363l-0.572-0.381h-0.609l-0.354,0.076l-0.108,0.286l-0.082,0.541l-0.199,0.122l-0.228,0.173
		l-0.236,0.208l-0.036,0.527l-0.163,0.291l-0.264,0.186l-0.372-0.186l-0.372-0.4l-0.419-0.149l-0.217-0.019l-0.092,0.109
		l-0.072,0.327l-0.036,0.132l-0.118,0.194l-0.336,0.073l-0.354,0.141l-0.128,0.136l-0.153,0.364l-0.409,0.894l-0.146,0.305
		l-0.19,0.149l-0.326,0.168l-0.572,0.132l-0.555,0.091H49.2l-0.372-0.055L48.42-79.56l-0.336,0.087l-0.418,0.222l-0.535,0.418
		l-0.582,0.504l-0.173,0.195l-0.19,0.332l-0.336,0.672l-0.218,0.744l-0.235,0.49l-0.437,0.437l-0.936,0.558l-0.562,0.214
		l-0.563,0.059l-0.399-0.122L42.2-74.928l-0.264-0.363l-0.2-0.641l-0.19-0.576l0.055-0.708l0.018-0.26l-0.036-0.194l-0.19-0.159
		l-0.563-0.036l-0.926-0.142l-0.582-0.149l-0.289-0.19l-0.346-0.363l-0.191-0.068l-0.626-0.055h-0.79l-0.372-0.054l-0.182-0.06
		l-0.245-0.231l-0.154-0.214l-0.445-0.549l-0.399-0.195l-0.59-0.1l-0.572-0.178l-0.609-0.195l-0.508-0.309l-0.354-0.345
		l-0.464-0.127l-0.763-0.195l-1.752-0.576l-1.381-0.505l-1.198-0.363l-0.654-0.213l-0.58-0.082l-0.282-0.159l-0.209-0.24
		l-0.372-0.604L24.42-85.38l-0.717-1.43l-0.163-0.522l-0.01-0.345l0.037-0.358l0.19-0.346l1.125-1.09l0.617-0.576l0.363-0.658
		l0.228-0.817l-0.082-0.522l-0.173-0.168l-0.208-0.018l-0.391,0.118l-0.49,0.354l-0.582,0.567l-0.598,0.69l-0.409,0.25l-0.454,0.194
		l-0.427,0.096L21.85-89.87l-0.8,0.046l-0.844-0.046l-1.771-0.214l-0.491-0.149l-0.19-0.213l-0.054-0.622l-0.609-4.427l-0.972,0.903
		l-1.371,0.259l-0.898-0.096l-1.126-0.018l-0.945,0.195l-0.499,0.059l-0.972,0.499l-0.227,0.264l-0.653,0.146L8.82-93.375
		l-0.5-0.495L8.175-94.9l-0.372-0.931l-0.391-0.686L6.84-96.712H6.214L5.705-96.39l-0.027,0.495l0.282,0.763l0.172,0.854
		l-0.254,0.326l-0.427,0.496l-0.572,0.268l-0.963-0.019l-0.662,0.268l-0.2,0.195l-0.327,0.15L2.145-92.53l-0.481-0.277l-0.871-0.84
		l-0.809-0.091l-0.545,0.272l-0.326,0.649l-0.963,1.349l-0.681,0.994l-1.463,0.667l-1.353,0.967l-0.763,1.1l-0.264,0.922
		l0.082,0.558l0.69,0.781l1.371,0.277l1.126,0.158l0.545,0.632L-2.576-83.8l-0.572,0.586l-0.581,0.418l-0.572,0.336l-0.009,0.586
		l-0.019,0.422l0.2,0.358l0.627,0.567l0.472,0.504l-0.018,0.836l-0.872,1.852l-1.198,1.367l-1.354,1.004l-0.645,0.194l-0.899-0.081
		l-0.399-0.209l-0.444-1.253l-0.382-0.958l-0.3-0.854l-0.481-0.078l-0.816-0.009l-0.981,0.195l-1.308,0.132l-1.044-0.195
		l-1.208-0.513l-1.361-0.01l-2.125,0.046l-1.707,0.132l-0.926-0.195l-1.281-0.949l-1.752-1.198l-2.034-1.775l-0.881-0.835
		l-1.753-0.877l-1.316-0.835l-0.936-1.357l-0.771-1.39l-0.264-1.04l-0.154-1.049l0.373-1.416l0.317-0.836l0.754-0.854l0.962-0.817
		l0.918-0.821l0.427-0.49l0.426-0.903l0.2-0.836l0.019-0.69l0.182-0.489l0.345-0.69l0.427-0.49l0.2-0.582l-0.219-0.758l-0.299-0.504
		l-0.899-0.522l-0.718-0.358l-0.48-0.494l-0.809-0.196l-0.581-0.018l-0.908,0.168l-0.499,0.418l-0.545,1.103l-0.3,0.581
		l-0.672,0.818h-0.645l-0.736-0.178l-0.571-0.168h-0.581l-0.408-0.036l-0.918,0.345l-0.581,0.195l-0.572,0.127l0.027,1.275
		l0.264,2.193l0.545,0.577l0.771,0.698l0.49,0.577l0.019,0.204v0.418l-0.19,0.481l-0.4,0.617l-0.581,0.536l-0.571,0.245
		l-0.618,0.127l-0.917,0.027l-0.962-0.154l-0.718-0.291l-1.571-0.854l-1.271-0.727l-1.017-0.345l-0.98-0.091l-0.817,0.091
		l-0.535,0.213l-0.745,0.622l-0.545,0.591l-0.318,0.649l-0.299,0.417l-0.336,0.454l-0.49,0.44l-0.399,0.305l-0.31,0.495
		l-0.118,0.463l0.2,0.826l0.164,0.354l0.163,0.449l-0.019,0.286l-0.209,0.372l-0.19,0.24l-0.354,0.041l-1.071-0.141l-1.025-0.195
		h-0.509l-0.345,0.137l-0.346,0.29l-0.436,0.872l-0.373,1.09l-0.181,1.349l0.118,0.876l0.29,0.817l0.227,0.744l0.445,0.854
		l0.317,0.809l0.092,0.477l-0.046,0.526l-0.2,0.422l-0.244,0.296l-0.31,0.336l-0.59,0.186l-0.799,0.195l-0.817,0.436l-0.672,0.463
		l-0.545,0.432l-0.228,0.277l-0.19,0.522l-0.199,0.744l-0.092,0.968l-0.018,0.544l0.118,0.858l0.363,0.708l0.681,0.572l0.763,0.513
		l1.081,0.763l0.935,0.781l1.026,0.79l0.372,0.495l0.064,0.399l-0.146,0.576l-0.336,0.577l-0.481,0.453l-0.254,0.532l-0.219,0.417
		l-0.127,0.346l-0.236,0.268l-0.499,0.132l-0.608-0.019l-0.49-0.195l-0.654-0.576l-0.617-0.486l-0.399-0.204l-0.209,0.06
		l-0.254,0.145l-0.581,0.454l-0.636,0.495l-0.318,0.195l-0.453,0.187l-0.546,0.149l-0.345-0.027l-0.372-0.132l-0.29-0.304
		l-0.264-0.763l-0.109-1.081l-0.054-0.54l-0.173-0.1l-0.254-0.06l-0.291,0.036l-0.463,0.363l-0.473,0.399l-0.228,0.541l-0.1,0.477
		l-0.027,0.304l0.291,0.459l0.49,0.622v0.418l-0.091,0.444l-0.436,0.913l-0.917,0.994l-0.454,0.459l-0.281,0.045l-0.31-0.141
		l-0.581-0.269l-0.418-0.235l-0.336-0.572l-0.499-1.239l-0.562-0.454l-0.49-0.077l-0.763,0.036l-0.572,0.168l-0.373,0.291
		l-0.753,0.799l-0.437,0.649l-1.025,1.339l-0.654,1.107l-0.317,0.296l-0.437,0.495l-0.218,0.398l-0.108,0.505l0.045,0.576
		l0.137,0.391l0.326,0.363l0.536,0.341l0.963,0.567l0.444,0.327l0.264,0.417l0.082,0.567l-0.092,0.373l-0.472,0.481l-0.536,0.485
		l-0.182,0.304l-0.026,0.382l0.145,0.404l0.509,0.195l0.354,0.195l0.263,0.276l0.091,0.345l-0.045,0.363l-0.209,0.399l-0.218,0.568
		l-0.19,0.612l-0.127,0.418l-0.046,0.613l0.336,0.648l0.972,0.973l0.581,0.935l0.754,0.931l0.78,1.462l0.572,1.485l0.418,0.895
		l0.381,1.162l0.209,1.107v1.271l-0.182,0.958l-0.245,0.672l-0.336,0.649l-0.372,0.258l-0.3,0.123l-0.427,0.204l-0.408,0.064
		l-0.572-0.046l-0.581-0.346l-0.663-0.417l-0.617-0.817l-1.1-0.418l-0.853-0.576l-0.245-0.513l-0.027-0.568l0.127-0.871
		l-0.036-0.577l-0.063-0.436l-0.346-0.272l-0.271-0.109l-0.509,0.019l-0.327,0.036l-0.3,0.205l-0.291,0.222l-0.281,0.454
		l-0.317,0.264l-0.209,0.118h-0.272l-0.572-0.055l-0.345-0.346l-0.245-0.194l-0.191-0.019h-0.218l-0.199,0.096l-0.218,0.204
		l-0.336,0.204l-0.354,0.223l-0.245,0.141l-0.218,0.082l-0.236,0.009l-0.182-0.109l-0.345-0.281l-0.509-0.363l-0.317-0.345
		l-0.21-0.241l-0.208-0.1l-0.264-0.041h-0.264l-0.281,0.209l-0.317,0.269l-0.49,0.381l-0.318,0.195l-0.336,0.149l-0.254,0.064
		l-0.409,0.018l-0.49-0.195l-0.199-0.204l-0.209-0.427l-0.01-0.204l0.064-0.231l0.235-0.214l0.264-0.363l0.063-0.408l-0.173-0.3
		l-0.19-0.223l-0.59-0.381l-0.227-0.205l-0.164-0.271l-0.019-0.277l0.109-0.223l0.554-1.003l0.2-0.541l-0.045-0.326l-0.191-0.241
		l-0.2-0.122l-0.49-0.118l-0.299,0.027l-0.572,0.24l-0.672,0.159l-0.872,0.499l-0.754,0.404l-0.526,0.118l-0.526,0.068l-0.536-0.15
		l-0.264-0.195l-0.417-0.245l-0.49-0.036l-0.373,0.059l-0.48,0.195l-0.264,0.205l-0.209,0.276l-0.29,0.504l-0.291,0.25l-0.245,0.195
		l-0.463,0.195l-0.718,0.223l-0.754,0.131l-0.336,0.073l-0.326,0.186l-0.209,0.195l-0.182,0.245l-0.082,0.269l0.072,0.744
		l0.109,0.836l-0.199,1.226v1.194l-0.146,0.571l-0.354,0.44l-0.173,0.445l-0.045,0.336l0.182,0.473l0.363,0.458l0.535,0.704
		l0.4,0.549l0.081,0.291l-0.108,0.408l-0.228,0.399l-1.026,1.067l-0.645,0.781l-0.608,0.681l-0.182,0.341l-0.1,0.254l0.173,0.382
		l0.326,0.336l0.118,0.295l0.063,0.354l-0.199,0.382l-0.327,0.345l-0.326,0.118l-0.373,0.068l-0.363,0.145l-0.218,0.237
		l-0.399,0.825l-0.354,0.809l-0.108,0.195l0.018,0.223l0.2,0.122l0.636,0.159l0.363,0.082l0.199,0.194l0.19,0.232l0.019,0.29
		l0.055,0.269l-0.137,0.204l-0.199,0.195l-0.236,0.195l-0.254,0.122l-0.437,0.123l-0.263,0.072l-0.281,0.168l-0.137,0.178
		l-0.118,0.535l-0.19,1.312l0.137,0.382l0.345,0.363l0.744,0.577l0.391,0.453l0.2,1.054l0.227,1.013l0.254,0.886l0.272,0.276
		l0.582,0.104l2.015,0.19l2.824,0.218l1.362,0.137l0.281,0.177l0.273,0.272l0.199,0.381l-0.019,0.277l-0.199,0.454l-0.427,0.373
		l-0.236,0.281L-95.56-9.6l-0.063,0.577l0.173,0.422l0.581,0.313l0.608,0.309l0.3,0.268l0.145,0.255l0.019,0.408l-0.154,0.214
		l-0.381,0.304l-0.445,0.168l-0.799,0.195l-0.735,0.063l-0.69-0.091l-0.473-0.036l-0.227,0.036l-0.2,0.1l-0.081,0.327l0.182,0.495
		l0.199,0.381l0.445,0.073l1.707,0.055l1.298-0.055l0.99-0.055l0.927-0.036l0.299,0.072l0.2,0.24l-0.072,0.418l-0.282,0.336
		l-0.572,0.195l-0.835,0.231l-1.253,0.236l-1.499,0.191l-0.489,0.141l-0.2,0.095l-0.236,0.195l-0.182,0.195l-0.009,0.418
		l0.019,0.372l-0.2,0.25l-0.418,0.309l-1.09,0.559L-99.8,0.017l-0.526,0.372l-0.282,0.196l-0.19,0.345l-0.245,0.854l-0.199,1.198
		l-0.164,0.577l0.063,1.171l0.2,1.33l0.272,0.781l0.281,0.84l0.436,0.781l0.617,1.03l0.572,0.949l0.209,0.576l-0.036,0.559
		l-0.345,0.862l-0.881,1.268l-0.953,1.43l-0.5,0.931l-0.2,0.522l0.027,0.572l0.082,0.244l0.309,0.195l0.481-0.104l0.317-0.101
		l0.336-0.027l0.246,0.118l0.19,0.309l0.072,0.444l-0.254,0.846l-0.536,0.626l-0.608,0.718l-0.509,0.382l-0.272,0.145l-0.199,0.109
		l-0.082,0.199l-0.018,0.336l0.045,0.418l0.291,0.136l0.363,0.109l0.418,0.127l0.281,0.19l0.173,0.264l0.054,0.381l-0.018,0.219
		l-0.264,0.309l-0.391,0.309l-0.399,0.2l-0.2,0.19l-0.1,0.209l-0.055,0.19l0.082,0.19l0.19,0.291l0.073,0.49l-0.046,0.581
		l-0.19,0.272l-0.354,0.272l-0.472,0.153l-0.182,0.064l-0.091,0.163l-0.109,0.282l0.182,0.426l0.281,0.437l0.2,0.327l-0.046,0.49
		l-0.163,0.554l-0.182,0.354l-0.445,0.581l-0.571,0.581l-0.254,0.271l-0.146,0.291l-0.01,0.454l0.182,0.481l0.582,0.809l0.217,0.617
		l0.037,0.417l-0.091,0.382l-0.354,0.345l-0.363,0.146l-0.272,0.2l-0.146,0.218l-1.171,0.771l-2.079,0.572l-0.2,0.3l-0.245,0.345
		l-0.835,0.291l-1.072,0.199l-0.599,0.2l-0.173,0.227l0.027,0.454l0.236,0.526l0.571,0.6l1.362,0.836l0.572,0.254l0.046,0.581
		l-0.191,0.346l-0.381,0.29l-1.026,0.154l-0.936-0.19h-0.463l-0.771,0.454l-0.254,0.326l-0.8,0.399l-0.59,0.491l-0.735,0.399
		l-0.772-0.072l-0.581-0.227l-0.835-0.355l-0.49-0.199l-0.608,0.055l-0.409,0.108l-0.626,0.2l-0.618,0.608l-0.391,0.554
		l-0.317,0.572l-0.418,0.572l-0.381,0.271l-0.2,0.354l-0.081,0.481l0.145,0.709l0.454,0.617l0.745,0.908l0.908,0.617l0.19,0.545
		l-0.49,0.454l-0.555,0.018l-0.907-0.108l-0.572,0.199l-0.581,0.536l-1.09,0.59l-1.688,0.871l-1.645,0.918l-1.216,1.48l-0.563,0.971
		l0.199,0.963l0.473,0.572l1.071,0.854l0.953,0.799l0.191,0.381l-0.154,0.836l-0.727,2.461l-0.745,3.105l-1.144,2.66l-0.109,0.799
		l0.318,0.2l0.708,0.281l1.743,0.219l2.098,0.354l0.826,0.346l0.845,0.362l0.427,0.563l0.2,0.653l0.89,0.6l0.944,0.491l0.581,0.617
		l-0.199,0.6l-0.454,0.626l-0.572,0.272l-0.745,0.009l-1.135-0.354l-1.435-0.29l-2.062-0.164l-0.454,0.146l-0.218,0.4l0.173,0.553
		l0.281,0.382l0.49,0.472l0.418,0.437l0.19,0.654l0.173,1.125l-0.073,1.381l0.228,0.871l0.617,0.582l0.69,0.69l0.936,0.326
		l0.735,0.209l0.362,0.19l0.055,0.163l-0.091,0.654l0.19,0.726l0.291,0.382l0.744,0.21l0.572,0.19l0.481,0.199l0.881,0.581
		l0.472,0.327l0.255,0.272l0.19,0.89l0.418,1.198l0.382,1.907l-0.245,1.48l-0.881,1.099l-0.727,0.799l-1.217,0.709l-2.924,1.034
		l-1.362,0.582l-1.126,0.681l-0.327,0.444l-0.281,0.927l0.027,0.854l-0.164,1.162l-0.472,1.227l-0.572,0.716l-0.699,0.328
		l-0.835,0.417l-0.527,0.218l-0.571,0.545l-0.391,0.663l-0.3,0.645v0.763l0.199,0.8l0.064,0.726l0.39,0.437l0.572-0.108l0.636,0.035
		l0.445,0.128l0.518,0.562l-0.101,0.944l-0.408,1.244l-0.027,0.682l0.518,0.671l2.47,2.579l0.654,0.055l0.49,0.2l0.372,0.299
		l0.019,0.409l0.027,0.454l-0.272,0.562l-0.209,0.472l-0.19,0.509l-0.082,0.364l-0.027,0.462l0.182,0.572l0.481,0.763l0.49,0.519
		l0.454,0.354l0.572,0.445l0.499,0.19l0.409,0.055l0.326-0.018l0.472-0.2l0.4-0.527l0.799-1.525l0.98-2.524l0.645-1.508l0.454-1.197
		l0.309-0.637l0.745-0.572l0.536-0.363l1.344-0.299l0.998-0.082l1.362-0.154h1.335l1.308,0.081l0.835-0.045l1.172-0.199l0.963-0.399
		l1.843-0.745l1.181-0.509l1.589-0.509l0.927-0.054l0.89,0.091l0.963,0.562l0.744,0.582l0.808,0.708l0.963,1.053l0.554,0.591
		l0.527,0.608l0.571,0.454l1.1,0.671l1.335,0.782l0.671,0.553l0.228,0.454l0.036,0.5l-0.19,0.571l-0.336,0.609l-0.2,0.454
		l0.046,0.436l0.227,0.845l0.672,0.735l1.789,1.889l1.553,1.353l0.972,1.071l0.926,0.781l1.108,1.062l0.944,0.399l0.744,0.155
		l0.336-0.073l0.454-0.255l0.481-0.489l0.518-1.317l0.418-1.145l0.1-0.417l-0.199-0.654l-0.346-0.753l-1.062-1.771l-0.29-0.808
		l-0.037-0.572l0.127-0.699l0.237-0.518l0.326-0.363l0.899-0.572l0.989-0.535l0.872-0.391l0.799-0.327l0.545-0.117l0.98-0.073
		l1.362-0.381l0.962-0.419l1.372-0.907l0.599-0.618l0.255-0.572l0.127-1.651l0.209-1.826l0.399-1.262l0.391-2.252l0.208-1.661
		l0.527-1.58l0.19-0.781l0.055-0.572l-0.173-0.408l-0.027-0.254l0.209-0.19l0.6-0.519l0.599-0.454l0.8-0.917l0.391-0.208
		l0.581-0.037l0.59,0.109l0.963,0.518l1.344,0.898l1.361,0.972l1.372,0.972l1.198,0.799l0.8,0.555l0.853,0.472l0.872,0.309
		l0.563,0.227l0.335,0.155l0.055,0.208l-0.081,0.419l-0.437,0.798l-0.572,1.009l-0.317,0.653l-0.199,0.862l-0.101,0.582l0.027,0.417
		l0.2,0.309l0.345,0.092l0.572-0.137l1.253-0.535l0.972-0.364l2.062-0.89l1.144-0.718l1.009-0.653l0.553-0.509l0.2-0.1l0.264,0.019
		l0.391,0.399l0.571,0.326l0.346,0.236l0.536,0.037l0.544-0.037l0.545-0.182l0.645-0.49l0.854-0.917l0.963-0.953l0.754-1.036
		l0.871-1.271l0.699-1.444l0.464-0.726l0.735-0.672l0.499-0.264l0.881-0.072l0.59,0.055l1.136,0.344l0.972,0.572l1.08,0.763
		l1.189,0.908l1.599,0.845l1.253,0.336l0.409,0.046l0.398-0.082l0.236-0.209l0.236-0.318l0.154-0.645l-0.082-1.298l0.027-1.407
		l0.191-0.999l0.408-1.181l0.699-1.235l1.071-1.488l1.217-1.525l1.026-1.182l1.289-1.234l0.954-0.636l1.044-0.454l1.935-0.963
		l0.808-0.316l1.234-0.191h2.025l2.434-0.055l2.352,0.091l1.381,0.2l0.753,0.271l0.799,0.437l0.709,0.617l0.617,0.582l0.682,0.489
		l0.571,0.2l0.654-0.019l0.472-0.199l0.518-0.19l1.217-1.054l1.717-1.544l1.733-1.615l0.899-0.973l0.754-0.472L3.48,84.9
		l0.863,0.181l0.299,0.2l0.727,0.944l0.708,0.936l0.346,0.19l0.645-0.055l1.326-0.345l1.253-0.572l0.89-0.571l0.19-0.273
		l0.127-0.381l0.063-0.944l0.191-0.78l0.345-0.6l0.336-0.418l0.391-0.245l0.944-0.381l1.153-0.536l0.908-0.799l0.763-0.99
		l0.335-0.572l0.273-1.054l0.045-1.308l-0.254-1.852l-0.654-2.515l-0.054-0.8l0.062-0.917l0.246-0.854l0.408-0.798l0.536-0.49
		l0.581-0.437l0.518-0.272l1.008-0.272l1.407,0.036l1.753,0.273l1.381,0.344l1.289,0.69l1.353,0.509l0.944,0.572l1.153,0.78
		l0.417,0.399l0.491,0.718l0.681,0.445l1.326,0.972l0.59,0.835l1.244,1.671l0.236,0.508l0.763,1.091l0.626,0.799l0.264,0.245
		l1.671,0.045l1.48,0.109l1.325-0.191l1.479-0.517l1.235-0.572l0.845-0.572l1.227-1.054l0.462-0.626l1.208-1.926l0.736-1.335
		l0.48-1.125l0.327-1.453l0.3-0.599l0.682-0.5l0.553-0.137l0.654-0.299l0.19-0.209l0.246-0.554l0.19-0.227l0.717-0.364l1.716-0.19
		l2.86-0.3l2.262-0.554l1.625-0.363l1.071-0.19l0.999,0.136l1.181,0.554l0.799,0.646l0.327,0.572v0.889l-0.209,2.288l0.145,1.036
		l0.527,1.289l0.381,0.781l0.555,0.526l0.972,0.254l1.834,0.218l1.879-0.254l1.354-0.345l0.163-0.191l0.063-0.362l-0.191-0.718
		l-0.562-0.653l-0.663-0.51l-0.127-0.562l-0.064-2.179l0.346-1.816l0.372-1.652l0.536-1.544l0.327-0.943l0.208-0.219l0.318-0.163
		l0.581,0.081l0.809,0.246l1.488,0.344l1.381,0.4l1.979,0.636l1.344,0.417l0.881,0.318l0.209,0.228l0.154,0.435l0.019,0.564
		l-0.209,2.124l-0.2,1.726l-0.163,1.099l0.153,0.662l0.273,0.5l0.173,0.862l0.126,1.48l-0.054,1.162l-0.2,1.48L80.609,77.6
		l0.245,1.053l0.519,0.728l0.962,0.816l0.899,0.236l0.744-0.072l0.608-0.237l0.645-0.962l0.572-1.852l0.463-1.962l0.063-0.554
		l0.063-0.854l-0.291-2.497l-0.035-0.99l-0.037-0.972l-0.227-1.162v-0.835l0.108-0.399l0.354-0.255l0.235-0.127l0.664-0.2
		l0.763,0.046l0.753,0.399l1.107,1.025l1.054,1.426l1.108,1.499l0.472,0.999l0.572,0.898l0.781,0.745l0.59,0.545l1.008,0.326
		l1.29,0.228l0.78,0.172l0.854-0.154l0.682-0.19l0.735-0.19l0.299-0.291l0.191-0.49l0.082-0.473l-0.055-0.572l-0.763-1.353
		l-1.208-1.525l-0.645-0.999l-1.88-1.652l-1.68-1.361l-1.689-1.781l-0.489-0.489l-0.846-0.59L89.5,61.937l-1.019-0.5l-0.316-0.363
		l-0.591-1.181l-0.354-1.162l-0.317-1.181l-0.019-1.353l-0.081-0.572l-0.101-0.454l0.019-0.463l0.027-0.191l0.173-0.199l0.436-0.164
		l0.508-0.19l0.536-0.054l0.826,0.154l0.963,0.199l0.708,0.427l0.627,0.591l0.562,0.172l0.699-0.009l0.399-0.163l0.944-0.608
		l0.854-0.591l0.508-0.236l0.264-0.091l0.444,0.164l0.272,0.381l0.69,1.162l0.363,0.69l0.317,0.581l0.5,0.49l0.463,0.218
		l0.572-0.018l0.735-0.2l1.472-0.89l1.361-0.963l1.208-1.017l0.572-0.254l0.381-0.19l0.572-0.082l0.581,0.036l0.572,0.182
		l0.372,0.437l0.382,0.971l0.264,1.389l0.354,1.708l0.3,0.999l0.544,0.545l0.9,0.581l1.024,0.382l1.753,0.153l2.171,0.136
		l1.906-0.199l2.806-0.381l1.616-0.209l1.562-0.373l0.708-0.227l0.336-0.218l0.327-0.526l0.572-1.317l0.571-1.789l0.673-1.606
		l0.581-1.771l0.48-1.354l0.582-1.253l0.326-0.599l0.19-0.282l0.255-0.19l0.254-0.073l0.392,0.055l0.299,0.2l0.19,0.345l0.01,0.563
		l-0.109,0.617l-0.128,0.981l-0.136,0.935l0.128,0.418l0.526,0.572l0.854,0.607l1.508,0.827l2.479,1.162l2.216,1.462l1.271,0.972
		l0.519,0.382l0.59,0.316l0.718,0.138l0.607-0.037l1.281-0.218l0.572,0.019l1.334,0.081l1.354-0.19l0.898-0.363l0.663-0.345
		l0.908-0.2l0.771-0.19l0.463-0.191l0.363-0.29l0.291-0.581l0.254-0.999l0.072-1.126l-0.153-1.907l-0.409-2.27l-0.263-1.29
		l-0.209-0.972l-0.155-1.162l-0.29-1.353l-0.137-0.581l0.137-0.418l0.2-0.399l0.326-0.599l0.1-0.437l0.073-0.472l-0.073-0.582
		l-0.19-0.299l-0.536-0.645l-1.044-0.881l-0.89-0.755l-0.236-0.58l0.072-0.464l0.191-0.417l0.3-0.245l0.326-0.118h0.464l0.572,0.173
		l0.689,0.653l0.636,0.78l0.98,1.045l0.382,0.362l0.345,0.155l0.445-0.018l0.681-0.191l0.881-0.173l0.953-0.309l0.582-0.127
		l0.816-0.101l0.581-0.136L156.422,39.852"/>
</g>
<g id="Layer_1_1_">
</g>
</svg>
