<?xml version="1.0" encoding="iso-8859-1"?>
<!-- Generator: Adobe Illustrator 16.0.4, SVG Export Plug-In . SVG Version: 6.00 Build 0)  -->
<!DOCTYPE svg PUBLIC "-//W3C//DTD SVG 1.1//EN" "http://www.w3.org/Graphics/SVG/1.1/DTD/svg11.dtd">
<svg version="1.1" xmlns="http://www.w3.org/2000/svg" xmlns:xlink="http://www.w3.org/1999/xlink" x="0px" y="0px"
	 width="24.715px" height="21.393px" viewBox="0 0 24.715 21.393" style="enable-background:new 0 0 24.715 21.393;"
	 xml:space="preserve">
<g id="Layer_49">
	<g id="Layer_54">
		<path id="Swabi" style="fill:#CCCCCC;stroke:#FFFFFF;stroke-width:1.07;" d="M0.435,12.625
			L0.435,12.625l0.041,0.021l0.038,0.018l0.041,0.007l0.094,0.014l0.069,0.008l0.061,0.013l0.057,0.026l0.055,0.044l0.027,0.06
			l0.013,0.029l0.008,0.02l0.052,0.012l0.084,0.008l0.017,0.002l0,0l0.083,0.021l0.06,0.012h0.002l0.028,0.009l0.092,0.038
			l0.098,0.05l0.052,0.022l0.057,0.011l0.087,0.001l0.051-0.006l0.099-0.016l0.051-0.025l0.005-0.002l0.056-0.037l0.024-0.035
			l0.03-0.035l0.031-0.006l0.164-0.048h0.053l0.007-0.002l0.133-0.004L2.398,12.9l0.011,0.053l0.022,0.057l0.019,0.027l0,0
			l0.006,0.01l0.016,0.045l-0.024,0.047l-0.001,0.004l-0.016,0.054l-0.016,0.04l-0.023,0.045l-0.001,0.003l-0.02,0.052l-0.018,0.049
			l-0.021,0.067l-0.014,0.043l-0.017,0.067l-0.01,0.06l-0.001,0.089l-0.015,0.055l-0.023,0.051l-0.025,0.04l-0.02,0.038l0.003,0.05
			l0.017,0.063l0.002,0.008l-0.001,0.047l-0.074,0.074l-0.013,0.002L2.099,14.17l-0.026,0.055L2.048,14.28l-0.002,0.006H2.045
			L2.012,14.34l-0.061,0.19l-0.019,0.047l-0.006,0.054l-0.006,0.084l-0.002,0.049l-0.005,0.07l0.009,0.061l0.006,0.056l0.008,0.065
			l0.008,0.044l0.002,0.047l0.006,0.053l-0.001,0.084l-0.014,0.072l-0.013,0.048l-0.009,0.059L1.9,15.527L1.897,15.58l0.001,0.092
			l0.001,0.065l-0.003,0.044l-0.006,0.042l0.007,0.05L1.9,15.889l0.008,0.043L1.906,16l0.001,0.064l-0.011,0.051l-0.018,0.053
			l-0.052,0.034l-0.051,0.029l-0.01,0.006L1.715,16.27l-0.031,0.033l-0.009,0.055v0.055l-0.027-0.1l-0.039,0.005L1.581,16.36
			l-0.038,0.063l-0.04,0.066l-0.006,0.061l-0.062,0.037l-0.052,0.01l-0.046,0.017l-0.051,0.048l-0.051,0.079l-0.035,0.037
			l-0.044,0.065l-0.073,0.022l-0.062,0.017l-0.046,0.017l-0.071,0.062l-0.041,0.041l-0.026,0.051L0.804,17.15L0.771,17.26
			l0.041,0.035l-0.004,0.006l-0.027,0.072L0.758,17.41l0.063,0.107l0.103,0.089l0.123,0.163l0.059,0.152l0.077,0.131l0.095,0.113
			l0.05,0.104l0.013,0.016l0.024,0.048l0.175,0.273l0.078,0.16l0.049,0.158l0.021,0.158l-0.006,0.082l0.009,0.141l0.02,0.08
			l-0.018,0.041l-0.04,0.08l-0.014,0.064l-0.003,0.059l0.006,0.055l0.025,0.029l0,0l0.029,0.112l0.04,0.033l0.043,0.146l0,0
			l-0.004,0.101l-0.002,0.06l-0.013,0.104L1.76,20.401l-0.007,0.087l0.07,0.098l0.034-0.033l0.048-0.021l0.055-0.018l0.124-0.073
			l0.145-0.074l0.229-0.112l0.086-0.051L2.71,20.09l0.301-0.138l0.241-0.118l0.318-0.175l0.249-0.127l0.191-0.096l0.029-0.015
			l0.177-0.099l0.329-0.177l0.253-0.121l0.163-0.12l0.275-0.165l0.157-0.107l0.09-0.045l0.047-0.012l0.103,0.027l0.126,0.038
			l0.116,0.022l0.13,0.036l0.182,0.042l0.078-0.033l0.244-0.088l0.215-0.087l0.129-0.046l0.133-0.048l0.204-0.079l0.153-0.057
			l0.091-0.034l0.105-0.033l0.083-0.022l0.069-0.022l0.136-0.095l0.01-0.049l0.005-0.117l-0.011-0.06l0.001-0.073l0.003-0.062
			l0.009-0.103l0.045-0.018l0.046-0.009l0.01-0.002L8,17.592l0.049-0.012l0.058-0.013l0.065-0.019l0.058-0.011l0.061-0.012
			l0.164-0.04l0.074-0.02l0.057-0.017l0.055-0.009l0.09-0.021l0.06-0.015l0.047-0.062l0.002-0.064l0.008-0.068l-0.001-0.057
			l0.005-0.057l0.008-0.086l0.007-0.078l0.003-0.092l0.001-0.082v-0.065l0.001-0.049l-0.003-0.084l-0.002-0.058l-0.027-0.09
			l-0.002-0.023l0.007-0.053l-0.011-0.076l0.003-0.053l0.061-0.035l0.055-0.023l0.07,0.005l0.074,0.026l0.073,0.022l0.072,0.019
			l0.054,0.02l0.062,0.021l0.088,0.014l0.104,0.023l0.075,0.017l0.09,0.028l0.049,0.019l0.071,0.021l0.033,0.004L9.9,16.4h0.049
			l0.082,0.003l0.062,0.002l0.059-0.004l0.113-0.001l0.094-0.008l0.104,0.002l0.064,0.02l0.036,0.084l0.079,0.113l0.054,0.062
			l0.025,0.051l0.039,0.05l0.188-0.045l0.18-0.031h0.005l0.284-0.069l0.336-0.094l0.24-0.046l0.197-0.058l0.095-0.021l0.174-0.05
			l0.331,0.053l0.166,0.072l0.062,0.035l0.073,0.019l0.094-0.007h0.056l0.071,0.009l0.087,0.004h0.085l0.094,0.002l0.127,0.004
			l0.063,0.009l0.075,0.001l0.065-0.006l0.05-0.041l0.034-0.035l0.056-0.041l0.043-0.028l0.049-0.021l0.061-0.008l0.052,0.011
			l0.053,0.022l0.062,0.043l0.162,0.092l0.048,0.021l0.047,0.03l0.05,0.023l0.059-0.008l0.073-0.052l0.012-0.006l0.07-0.034
			l0.062-0.03l-0.002,0.052l-0.018,0.084l0.003,0.049l0.011,0.021h0.076l0.115-0.022l0.097,0.009h0.327l0.223-0.005l0.233,0.005
			l0.141,0.004l0.087,0.003l0.048,0.001l0.062-0.008l0.089-0.056l0.076-0.054l0.077-0.059l0.065-0.046l0.055-0.047l0.049-0.031
			l0.054-0.042l0.104-0.056l0.094-0.072l0.08-0.062l0.138-0.107h0.097l0.108-0.002h0.007l0.186-0.002l0.132-0.002l0.026-0.01
			l0.067-0.031l0.046-0.021l0.042-0.025l0.062-0.029l0.226-0.072l0.104-0.046l0.141-0.062l0.118-0.052l0.079-0.104l0.072-0.062
			l0.026-0.092l0.057-0.082l0.086-0.056l0.111-0.109l0.148-0.119l0.138-0.134l0.091-0.09l0.145-0.142l0.06-0.062l0.069-0.076
			l0.088-0.095l0.068-0.074l0.07-0.076l0.124-0.133l0.062-0.067l0.158-0.059l0.097-0.036l0.108-0.149l0.069-0.097l0.007-0.01
			l0.071-0.101l0.013,0.004l0.012-0.014l0.059-0.078l0.042-0.07l0.024-0.047l0.054-0.07l0.054-0.061l0.046-0.061l0.051-0.061
			l0.035-0.037l0.065-0.078l0.034-0.044l0.053-0.066l0.031-0.055l0.002-0.009l0.025-0.068l0.034-0.08l0.022-0.056l0.043-0.041
			l0.045-0.022l0.05-0.015l0.088-0.022l0.083-0.031l0.048-0.022l0.092-0.035l0.105-0.049l0.071-0.028l0.089-0.037l0.051-0.021
			l0.049-0.021l0.057-0.021l0.053-0.02l0.086-0.029l0.089-0.028l0.07-0.03l0.059-0.023l0.047-0.024l0.1-0.034l0.083-0.024
			l0.058-0.013l0.052-0.013l0.062-0.024l0.042-0.051l0.044-0.337l0.009-0.059l0.012-0.04l0.133-0.098l0.152-0.104l0.063-1.894V9.507
			l0.071-0.055l0.071-0.041l0.056-0.058l0.062-0.048l0.052-0.031l0.045-0.026l0.062-0.05l0.047-0.054l0.028-0.042l0.043-0.083
			l0.021-0.052l0.011-0.09l-0.008-0.084l-0.031-0.085l-0.026-0.057l-0.033-0.053l-0.029-0.044l-0.058-0.066l-0.043-0.043
			l-0.05-0.059l-0.039-0.067l-0.036-0.061l-0.035-0.06l-0.021-0.059l-0.012-0.047l-0.01-0.073l0.026-0.085l0.021-0.066l0.018-0.054
			l0.021-0.056l0.023-0.087l0.024-0.065l0.027-0.047l0.02-0.047l0.017-0.06l0.016-0.056l0.046-0.092l0.025-0.085l0.012-0.054
			l0.07-0.147l0.024-0.075l0.046-0.125l0.041-0.059l0.05-0.062l0.034-0.043l0.033-0.048l0.031-0.041l0.026-0.055l0.021-0.053
			l0.014-0.058l0.004-0.049l0.007-0.071l0.006-0.056l-0.01-0.185l-0.021-0.188l-0.015-0.046l0.004-0.057l-0.04-0.072l-0.031-0.039
			l-0.041-0.038l-0.036-0.043l-0.015-0.069l-0.003-0.051L23.971,5.38l-0.009-0.072l-0.019-0.052L23.92,5.204l-0.035-0.067
			L23.861,5.09l-0.058-0.06l-0.077-0.008l-0.048,0.018l-0.064,0.039l-0.062,0.008l-0.062-0.023l-0.045-0.036l-0.056-0.046
			l-0.002,0.001l-0.135-0.137l-0.025-0.05l-0.023-0.062L23.197,4.67l-0.003-0.072L23.19,4.537l0.006-0.062V4.397L23.2,4.335
			l0.004-0.062l0.007-0.052l-0.006-0.065L23.194,4.09l-0.026-0.062l-0.025-0.043l-0.035-0.049l-0.06-0.056l-0.06-0.031l-0.044-0.023
			l-0.072-0.027l-0.063-0.025l-0.062-0.022l-0.076-0.027l-0.049-0.01l-0.094-0.004l-0.056,0.015l-0.07,0.013l-0.063,0.014
			l-0.071,0.03l-0.061,0.021l-0.065,0.028L22.059,3.87l-0.071,0.035l-0.059,0.033l-0.075,0.02l-0.082-0.005l-0.082-0.004
			L21.618,3.94l-0.107-0.005V3.912l-0.112,0.006l-0.179-0.02l-0.26-0.004l-0.191,0.005L20.678,3.9l-0.146,0.01L20.374,4
			l-0.032,0.031l-0.048,0.031L20.26,4.089l-0.088,0.065l-0.077,0.075l-0.153,0.153L19.701,4.5L19.58,4.495h-0.001l-0.046-0.008
			l-0.081-0.01l-0.083,0.009l-0.065,0.028L19.267,4.55l-0.015,0.004l-0.204,0.191l-0.081,0.088l-0.232,0.252l-0.16,0.093
			l-0.085,0.011l-0.078,0.015l-0.068,0.001l-0.06,0.016L18.22,5.26l-0.042,0.042l-0.026,0.053l-0.029,0.076L18.118,5.45
			l-0.005,0.012l-0.024,0.086l-0.08,0.067l-0.104,0.041l-0.004,0.005l-0.006,0.001l-0.008,0.015l0,0L17.832,5.75l-0.021,0.046
			l-0.078,0.029l-0.031,0.021l-0.028,0.019l0,0l-0.047,0.032l-0.032,0.042l-0.02,0.044h-0.001l-0.011,0.025l-0.01,0.029
			l-0.042,0.035l-0.028,0.04l-0.034,0.038L17.42,6.167l-0.001,0.001h-0.002h-0.001l-0.005,0.003l-0.004,0.002l-0.011,0.007
			L17.33,6.204l-0.054,0.022l-0.065,0.013l-0.062,0.005l-0.019,0.001l-0.049,0.026l-0.04,0.035l-0.046,0.036l-0.065,0.033
			l-0.054,0.023l-0.031,0.06l-0.061,0.034l-0.064,0.051l-0.014,0.035l-0.064,0.046l-0.077,0.113L16.533,6.75l-0.042,0.069
			l-0.056,0.079L16.32,6.97l-0.168,0.085l-0.104,0.08l-0.052,0.021L15.934,7.18L15.881,7.2l-0.065,0.025l-0.051,0.039l-0.036,0.059
			l-0.015,0.053l0.012,0.051l0.037,0.04l0.05,0.041l0.049,0.029l0.045,0.029l0.046,0.033L16,7.629l0.047,0.026l0.049,0.024
			l0.013,0.007l0.021,0.028l0.026,0.024h0.001l0.007,0.013L16.2,7.816l0.049,0.047l-0.007,0.053l0.017,0.046l0.021,0.049
			l0.039,0.037l0.03,0.063l0.033,0.062l0.031,0.042l0.038,0.058l0.004,0.053v0.002l0.003,0.042l-0.027,0.028l0.029,0.045
			l-0.005,0.069l-0.03,0.064L16.4,8.637l-0.024,0.047l0.011,0.052l0.025,0.043l-0.081,0.103L16.31,8.927l-0.04,0.027l-0.102,0.055
			l-0.042,0.039l-0.032,0.04l-0.035,0.038l-0.055,0.031l-0.057,0.029l-0.035,0.04l-0.054,0.052l-0.033,0.062L15.82,9.354h-0.001
			l-0.021,0.019l-0.147,0.003l-0.007-0.002L15.583,9.35l-0.062-0.031l-0.066-0.022l-0.046-0.02l-0.058-0.024l-0.062,0.02
			l-0.034,0.047l-0.04,0.065l-0.058,0.037l-0.101-0.033l-0.065-0.098l-0.058-0.019l0,0l-0.016-0.008l-0.049-0.019l-0.016,0.083
			l-0.024,0.077l-0.001,0.002l-0.021,0.045l-0.024,0.066l0,0l-0.012,0.019l-0.026,0.052l-0.036,0.086l-0.026,0.044L14.65,9.775
			l-0.036,0.063l-0.032,0.052l0.029,0.048l0.023,0.051l-0.001,0.062l-0.001,0.006l-0.031,0.07l-0.06,0.059l-0.023-0.001h-0.007
			l-0.042-0.001l-0.039-0.06l-0.063-0.039l-0.062-0.023l-0.068-0.002l-0.052-0.025l-0.032-0.044l-0.035-0.035L14.07,9.934h-0.06
			l-0.063-0.006l-0.05-0.024L13.85,9.868l-0.037-0.049L13.79,9.775l-0.017-0.02l0,0l-0.016-0.02L13.75,9.732l-0.018-0.017
			l-0.139-0.018L13.59,9.696h-0.005l-0.162-0.057L13.346,9.47h-0.001h-0.001l-0.062-0.034l-0.013-0.001l-0.039-0.003h-0.008
			l-0.047,0.016l-0.057,0.038l-0.005,0.005l-0.125,0.041l-0.104-0.035l-0.011,0.026h-0.009L12.793,9.53l-0.079-0.007l-0.061-0.008
			l-0.021-0.002l-0.066-0.018l-0.076-0.019l-0.047-0.013l-0.068-0.014l-0.09-0.035l-0.04-0.031l-0.037-0.051l-0.042-0.04
			l-0.071-0.016l-0.088-0.069l-0.053-0.038l-0.041-0.024l-0.054-0.027l-0.058-0.03l-0.019-0.021h-0.001l-0.02-0.049l0,0L11.76,8.989
			l-0.015-0.052l-0.007-0.059l-0.021-0.054l-0.065-0.01l-0.079-0.002l-0.076-0.003l-0.081-0.001l-0.062,0.007l-0.059,0.033
			l-0.063,0.015l-0.053,0.004l-0.072-0.012l-0.046-0.023l-0.062-0.016h-0.077l-0.069-0.002l-0.051-0.003l-0.01-0.001h-0.006
			l-0.067-0.004l-0.08,0.007l-0.064-0.01l-0.053-0.04l-0.047-0.021l-0.084-0.005l-0.08,0.005l-0.081-0.003l-0.053-0.002
			l-0.054-0.002L10.047,8.73L9.966,8.704L9.897,8.686L9.83,8.655L9.761,8.656L9.71,8.657L9.66,8.658L9.59,8.663L9.502,8.666
			L9.435,8.667L9.359,8.664H9.333L9.332,8.666l0.017-0.047l0.051-0.055l0.044-0.036l0.06-0.053L9.52,8.465L9.566,8.44l0.021-0.052
			l0.005-0.056L9.572,8.285l0.005-0.07l0.02-0.058l0.021-0.053l0.022-0.056L9.67,7.992l0.028-0.068L9.72,7.866L9.708,7.808
			l-0.03-0.045L9.676,7.759L9.644,7.708L9.609,7.646L9.589,7.614L9.566,7.571L9.557,7.55L9.541,7.502L9.524,7.451l-0.02-0.068
			L9.47,7.308L9.465,7.296L9.446,7.257L9.442,7.196L9.47,7.162l0.013-0.015l0.052-0.042l0.047-0.063h0.074l0.069,0.004l0.059-0.018
			l0.022-0.015l0.028-0.02L9.831,6.926L9.826,6.893l0,0l0.006-0.023L9.9,6.801l0.066-0.092L9.966,6.706l0.016-0.05L9.967,6.604
			L9.949,6.562l0,0L9.947,6.543l0.108-0.06l0.146-0.091l0.074-0.081l0.091-0.107l0.086-0.065l0.074-0.069l0.017-0.02l0.003-0.072
			l0.048-0.042l0.036-0.017l0.051-0.026l0.009-0.027l0.006-0.004l0.023-0.052l0.027-0.052l0.053-0.028l0.09-0.062l0.104-0.083
			l0.002-0.001l0.05-0.048l0.055-0.052l0.055-0.046l0.048-0.053l0.056-0.045l0.045-0.029l0.046-0.03l0.05-0.047l0.006-0.043l0,0
			l0.001-0.014l-0.032-0.042l-0.071-0.034l-0.048-0.01L11.145,5.08l-0.047-0.006L11.04,5.059l-0.034-0.044l0,0l0.002-0.044
			l0.023-0.078l0.002-0.006l0.022-0.071l0.013-0.046l0.002-0.008l-0.009-0.062l-0.048-0.033l-0.058,0.012L10.94,4.686L10.896,4.69
			h-0.07l-0.028-0.009l-0.053-0.034l-0.001-0.033l-0.048-0.027L10.662,4.56l0.021-0.018l0.042-0.013l0.04-0.029l-0.005-0.06
			L10.734,4.38l-0.027-0.042l0.003-0.024l0.019-0.02l0.089-0.042l0.013-0.023l0.04-0.007l0.032-0.044l-0.036-0.046l-0.027-0.045
			l0.01-0.052l0.018-0.056l0.001-0.067L10.84,3.854l0.016-0.048l0.021-0.06L10.871,3.72l0.05-0.046l0.126-0.025l0.079-0.016
			l0.011-0.02l0.036-0.007L11.16,3.558l-0.001-0.001l0.027-0.11l0.01-0.009l0.05-0.044l0.062-0.06l0.046-0.042l0.048-0.032
			l0.005-0.002l0.061-0.026l0.041-0.055l0.022-0.03l0.021-0.008l0.014-0.005l0.058-0.006l0.069-0.006l0.068-0.033l0.032-0.04
			l0.017-0.066l0.066-0.052l0.039-0.041l0.023-0.063l0.05-0.062l0.039-0.04l0.006-0.004l0.043-0.015l0.052-0.013l0.02-0.053
			l0.021-0.05l0.026-0.064l-0.01-0.031l0.018-0.042l0.003-0.056l0.002-0.051l0.009-0.058l0.008-0.066l0.002-0.044l0.003-0.017
			l-0.002-0.016l0,0l0.005-0.026l0.003-0.017l0.005-0.023l-0.013-0.063L12.22,1.964l-0.062-0.082l-0.039-0.053l-0.044-0.092
			l-0.04-0.1l-0.024-0.058l-0.033-0.047l-0.053-0.048l-0.011-0.017l-0.026-0.075l-0.001-0.021l0.001-0.063l0.021-0.059l-0.001-0.071
			l-0.002-0.052l-0.004-0.05l0.003-0.06l-0.089-0.042l-0.094,0.018l-0.105,0.013l-0.099,0.012l-0.062-0.002l-0.092-0.009
			l-0.07-0.019l-0.089,0.004l-0.038,0.029l-0.013-0.001l-0.085,0.062l-0.088,0.008l-0.035-0.023l-0.058-0.039l-0.067-0.022
			l-0.094-0.02l-0.062-0.001l-0.049,0.005L10.56,0.99l-0.071-0.002l-0.065-0.044l-0.041-0.048l-0.048-0.068l-0.032-0.045
			l-0.035-0.049l-0.043-0.038l-0.096-0.043l-0.057-0.02l-0.058-0.035L9.961,0.581L9.957,0.583L9.933,0.597L9.925,0.601L9.911,0.609
			L9.897,0.662L9.879,0.694L9.806,0.778L9.804,0.779L9.772,0.806l-0.06,0.042L9.709,0.851L9.681,0.87L9.635,0.892L9.58,0.919
			l-0.024,0.02L9.554,0.94L9.438,1.002L9.319,1.058L9.283,1.069L9.271,1.071L9.199,1.086L9.15,1.092L9.087,1.11L9.022,1.148
			l-0.009,0.01L9.002,1.164L8.92,1.26L8.863,1.353L8.836,1.396L8.787,1.449l-0.07,0.049l-0.109,0.06L8.533,1.597L8.418,1.661
			L8.375,1.688L8.351,1.695L8.289,1.726L8.232,1.76L8.188,1.801L8.15,1.853L8.13,1.905L8.107,1.967L8.063,2.028L8.006,2.093
			L7.967,2.128L7.931,2.181l-0.025,0.07L7.869,2.344L7.862,2.341L7.781,2.347L7.696,2.321l-0.089-0.01L7.515,2.299l-0.06-0.006
			L7.352,2.318H7.351L7.288,2.302L7.234,2.297l-0.08,0.015H7.068l-0.01-0.001H7.054L6.973,2.305L6.819,2.312L6.736,2.314
			L6.688,2.325l-0.01,0.011L6.631,2.387L6.58,2.462L6.523,2.527L6.496,2.58L6.488,2.594L6.468,2.669L6.44,2.713l0.009,0.057
			L6.446,2.774l0,0L6.425,2.797L6.372,2.811l-0.09,0.006L6.26,2.82L6.245,2.818L6.185,2.812l-0.077,0.02L6.024,2.887L6.021,2.894
			H6.02L6.009,2.903L5.988,2.921L5.977,2.946l-0.01,0.022l-0.032,0.04l0.021,0.037l0.025,0.028l0.006,0.052l-0.01,0.05l0.005,0.019
			L5.979,3.203l0.008,0.011h0.001L6.01,3.257l0.049,0.065l0.057,0.069l0.037,0.042l0.022,0.039l0.004,0.061l0.002,0.059l0.003,0.05
			v0.041v0.034L6.18,3.799L6.167,3.865L6.132,3.919l-0.02,0.022L6.046,3.995L5.992,4.037L5.958,4.088L5.89,4.157L5.821,4.203
			L5.769,4.258l-0.006,0.06L5.741,4.382l-0.05,0.05l-0.028,0.04L5.652,4.481L5.65,4.483L5.618,4.514L5.571,4.555L5.525,4.58
			L5.474,4.62l-0.06,0.039l-0.05,0.012L5.315,4.729L5.284,4.767l0,0l-0.02,0.052l0.01,0.014v0.005l0.018,0.038l0.029,0.036
			l0.017,0.029L5.335,4.967l-0.03,0.036l-0.04,0.035L5.258,5.054L5.244,5.065l0.012,0.018v0.001l0.018,0.031h0.05l0.029,0.066
			l0.013,0.058l0.044,0.038l0.067,0.016L5.54,5.352l0.033,0.03L5.62,5.423L5.69,5.48l0.048,0.038l0.066,0.049l0.031,0.037
			l0.065,0.088l0.027,0.051l0.007,0.055l0.003,0.01l0.011,0.041l0.022,0.053l0.01,0.052L5.95,5.986L5.896,6.008L5.866,6.021
			L5.802,6.053L5.784,6.062l-0.06,0.033L5.652,6.147L5.608,6.169L5.52,6.195H5.514L5.449,6.187l-0.08-0.034L5.314,6.118L5.29,6.103
			L5.241,6.07H5.24L5.198,6.035l-0.06-0.03L5.09,5.993L5.025,5.979L4.964,5.974H4.963L4.938,5.967l-0.06-0.029L4.806,5.913
			l-0.027-0.01H4.777L4.76,5.894L4.682,5.861L4.568,5.843L4.503,5.842L4.47,5.84l0,0L4.435,5.838L4.321,5.825L4.306,5.822
			L4.272,5.816L4.231,5.812H4.228L4.149,5.796L4.053,5.788H4.052L4.015,5.785L3.985,5.784H3.983H3.95l0,0H3.937L3.854,5.788
			L3.839,5.79L3.82,5.792H3.818L3.753,5.792L3.696,5.784l-0.06-0.012L3.6,5.756L3.515,5.735L3.468,5.728l-0.04-0.015L3.358,5.7
			L3.303,5.688L3.27,5.689L3.232,5.691L3.174,5.715L3.115,5.758L3.048,5.795l-0.076,0.01l-0.079,0.01L2.834,5.82L2.737,5.834
			L2.715,5.84H2.714L2.526,5.913L2.503,5.922H2.478H2.444L2.409,5.923h-0.03L2.347,5.924L2.041,6.036L2.01,6.056L1.976,6.081
			L1.92,6.103L1.865,6.128L1.822,6.147L1.768,6.18L1.763,6.184l-0.04,0.043L1.679,6.271L1.641,6.312L1.604,6.357L1.569,6.393
			L1.528,6.469l-0.041,0.06L1.451,6.574L1.425,6.619L1.398,6.667L1.36,6.735L1.343,6.773L1.325,6.833l-0.011,0.04L1.3,6.943
			L1.275,7.076L1.262,7.14L1.24,7.236l-0.015,0.07L1.215,7.359l0.001,0.049l0.013,0.046l0.006,0.043l0.002,0.006l0.01,0.081
			L1.2,7.604L0.956,7.709L0.744,7.787l-0.07,0.028l0,0l-0.03,0.078L0.678,8.05l0.012,0.064l0.006,0.024l0.001,0.001l0.017,0.047
			l0.011,0.061l0.013,0.048l0.016,0.055l0.027,0.076l0.023,0.055l0.02,0.047l0.015,0.057l0.006,0.032l0.005,0.028l0.025,0.186
			L0.88,8.886l0.006,0.048l0.013,0.069l0.007,0.055L0.9,9.109L0.866,9.126L0.818,9.148L0.785,9.18L0.76,9.215L0.719,9.271
			L0.695,9.314L0.67,9.377L0.644,9.429L0.617,9.5L0.592,9.589l-0.03,0.093L0.547,9.756l0.017,0.086l0.011,0.044l0.001,0.031
			l0.006,0.029l0.006,0.042l-0.006,0.053l-0.008,0.039v0.001l-0.001,0.026l-0.004,0.079L0.562,10.26l-0.018,0.084l-0.009,0.081
			l-0.001,0.058l0.001,0.061l0.007,0.073v0.004l0.008,0.068l0.013,0.077l0.02,0.115l0.012,0.067L0.6,10.973l0.017,0.068l0.005,0.07
			l0,0l0.014,0.032l0.014,0.072v0.071l0.003,0.074l0.002,0.081l-0.003,0.02v0.011L0.64,11.555l-0.016,0.107L0.621,11.74l0.001,0.108
			L0.62,11.945l-0.017,0.166l-0.009,0.093l-0.008,0.041l0.014,0.054l0.009,0.066L0.591,12.44l-0.045,0.038l-0.04,0.046l-0.019,0.042
			l-0.031,0.059H0.435"/>
	</g>
</g>
<g id="Layer_1">
</g>
</svg>
