<?xml version="1.0" encoding="utf-8"?>
<!-- Generator: Adobe Illustrator 16.0.4, SVG Export Plug-In . SVG Version: 6.00 Build 0)  -->
<!DOCTYPE svg PUBLIC "-//W3C//DTD SVG 1.1//EN" "http://www.w3.org/Graphics/SVG/1.1/DTD/svg11.dtd">
<svg version="1.1" id="Layer_1" xmlns="http://www.w3.org/2000/svg" xmlns:xlink="http://www.w3.org/1999/xlink" x="0px" y="0px"
	 width="301.102px" height="345.252px" viewBox="-135.388 -155.25 301.102 345.252"
	 style="enable-background:new -135.388 -155.25 301.102 345.252;" xml:space="preserve">
<g id="Layer_124">
	<path id="Toba_Tek_Singh" style="fill:#CCCCCC;stroke:#FFFFFF;stroke-width:1.15;" d="M-98.411,104.672L-98.411,104.672
		l-1.391,2.714l-1.1,2.48l-0.597,1.579l-0.707,1.474l-1.1,2.354l-2.055,3.421l-1.808,2.839l-1.419,2.035l-3.334,4.875l-2.199,3.333
		l-2.064,3.091l-0.843,1.086l-0.896,0.727l-1.042,0.582l-0.635,0.387l-0.426,0.311l-0.33,0.455v0.814l0.577,0.223h0.566l0.693-0.059
		l0.417,0.563l-0.059,0.591l-0.538,2.17l-1.309,2.956l-1.347,3.508l-1.032,2.238l-1.54,3.537l-0.931,0.94l-0.926,0.552l-1.012,0.601
		l-0.723,0.785l-1.211,1.579l-0.635,1.589l-0.407,1.793l-0.067,0.688l0.344,0.406l1.875,0.252l6.531,1.357l2.302,0.523l5.974,1.202
		l3.097,0.406l4.753,0.514l6.827,0.087l1.129-0.349l1.4-0.795l1.269-0.736l0.587-0.194l0.804-0.048l0.805,0.242l0.455,0.61
		l0.605,0.989l0.747,1.812l1.497,1.531l0.853,0.756l1.599,0.969l1.885,0.679l1.449,0.358l2.073,0.058l2.171-0.436l3.13-1.027
		l2.122-1.337l0.466-0.194l1.031-0.155l1.865-0.097l1.497-0.532l1.668-0.999l2.024-1.521l1.032-0.35l0.674-0.048l0.746-0.155
		l0.872-0.631l0.746-0.591l0.615-0.213h0.615l0.257,0.213l-0.01,0.407l-0.257,0.679l-0.688,0.562l-0.872,0.446l-1.139,0.426
		l-0.756,0.35l-0.577,0.407l-0.751,0.591l-0.813,0.94l-0.209,0.348l-0.3,0.641l-0.466,0.891l-0.683,0.94l-0.615,0.688l-1.212,1.143
		l-0.615,0.543l-0.746,1.492l-0.416,1.726l0.149,1.143l0.567,1.396l0.552,1.124l0.538,0.484l0.615,0.243h0.693l0.397-0.397
		l0.406-0.591l0.141-1.687l0.059-1.696l0.489-1.134l0.892-0.63l2.272-0.833l1.148-0.833l2.78-2.133l0.863-0.882l0.358-1.19
		l0.257-1.406l0.566-1.772l1.487-3.102l1.439-1.734l1.667-1.241l1.458-0.591l1.448-0.241l2.123-0.088l1.211,0.213l0.208,0.35
		l-0.208,1.802l-0.295,2.229l0.048,1.201l0.606,1.725l0.465,0.058l0.586-0.988l0.407-2.054l0.653-2.636l0.34-0.349l0.653-0.049
		l0.747,0.514l2.112,1.803l2.263,1.647l0.931,0.31l1.051-0.039l1.448-0.736l1.808-1.783l2.491-3.42l0.871-1.134l1.096-0.679
		l2.359-1.086l2.48-1.026l0.862-0.368l0.654-0.214l0.906-0.213l0.615,0.213l0.455,0.445l1.032,0.253l1.328-0.34l1.4-1.327
		l0.954-0.949l1.744-0.591l2.999-0.999l1.386-0.184l1.492-0.087l1.328,0.213l0.911,0.203l2.306,0.165l1.479-0.184l0.993-0.204
		l1.487-0.039l1.109,0.697l0.736,0.805l0.732,0.63l0.349,0.61l0.048,1.24l0.112,1.241l0.218,0.997l0.445,0.999l0.615,0.503
		l1.318,0.514l3.585,0.504l2.132-0.096l1.764-0.271l1.749-0.137l2.38-0.184l2.757-0.532l1.279-0.736l1.278-1.241l0.407-1.278
		l0.077-1.3l-0.058-0.959l-0.213-0.339l-1.027-0.252l-1.725-1.008l-0.737-0.562l-0.232-0.621v-0.629l0.407-0.795l0.659-0.484
		l0.679-0.243l1.084,0.116l1.861,0.757l2.016,1.152l2.229,0.96l1.26,0.426l0.63-0.116l0.697-0.232l0.466-0.988l1.347-3.179v-0.542
		l-0.203-0.407l-0.61-0.155l-1.028,0.155l-2.229,0.775l-0.813,0.242l-1.104,0.203l-0.407-0.164l-0.271-0.553l0.136-0.602
		l0.445-0.348l1.87-1.086l1.754-0.746l2.54-0.494l1.201-0.136l2.685,0.02l0.649,0.3l0.231,0.446l-0.009,0.552l-0.281,0.94
		l-0.476,0.649l-0.745,0.872l-1.037,0.892l-0.281,0.514l-0.29,0.795l-0.078,1.095l0.098,1.279l0.407,0.213l0.755,0.155l0.649-0.021
		l0.572-0.368l0.784-0.513l0.61-0.96l0.389-1.376l0.697-1.938l0.659-1.24l1.027-0.853l1.036-0.504h0.61l0.853,0.407l0.311,0.631
		l0.62,0.745l1.744,0.863l1.376,0.861l0.931,0.281l0.203,0.339l0.127,0.921l-0.33,1.317l-0.165,1.299l0.146,0.232l0.466,0.281
		l0.853,0.059l1.589-0.319l1.318-0.166l0.959,0.185l1.386,0.688l0.988,0.688l0.775,0.921l0.388,0.688l-0.059,0.446l-0.35,0.223
		l-0.522,0.117l-1.027,0.048l-1.192-0.281l-0.629-0.407l-0.61-0.31l-1.095-0.407l-1.009-0.058l-0.62,0.038l-0.601,0.224l-0.484,0.29
		l-0.242,0.397l-0.165,0.62l0.213,0.795l0.523,0.805l0.854,0.804l0.774,0.523l1.978,0.93l1.705,0.35l2.268,0.203l2.598,0.01
		l3.691-0.155l2.829-0.251l1.444-0.514l1.124-0.214l0.679,0.028l0.552,0.281l0.456,0.611l0.581,0.813l1.008,0.484l1.086-0.058
		l0.959-0.271l0.872-0.621l0.466-0.852l0.552-1.415l0.271-1.201l0.465-1.251l0.805-1.24l0.649-0.571l0.484-0.291h0.697l0.718,0.194
		l0.387,0.339l0.466,0.455l0.038,1.25l-0.059,0.63l-0.406,0.795l-0.873,1.531l-0.406,0.678l-0.077,0.504l-0.01,0.795l0.242,0.281
		l0.475,0.223l1.851-0.097l1.59-0.445l1.657-0.659l3.439-1.406l1.87-0.493l1.444,0.01l2.307,0.184l2.374,0.708l2.8,0.368
		l2.423-0.204l1.744-0.736l0.795-0.649l0.717-0.959l0.669-0.853l0.465-0.446h0.591l0.795,0.407l1.114,0.853l0.61,1.027l0.873,0.193
		l0.774-0.223l1.59-1.182l0.794-1.134l0.02-0.668l-0.311-0.466l-0.241-0.388l-0.456-0.291l-1.396-0.223l-3.042-0.252l-0.863-0.407
		l-0.591-0.581l-0.242-0.853l0.01-1.241l0.33-0.581l0.542-0.271l0.465-0.127l0.795-0.048l5.853,1.026l1.513,0.232l1.521,0.011
		l1.783-0.156l1.018-0.794l1.037-1.647l1.444-3.421l0.203-1.763l-0.262-0.815l-0.853-0.464l-0.854-0.35l-0.31-0.455l-0.116-0.727
		l0.203-0.407l0.533-0.446l0.727-0.262l2.354-0.164l1.57-0.329l2.054-0.834l1.047-0.668l0.62-0.67v-0.522l-0.106-2.626l-0.455-1.037
		l-0.456-0.349l-0.61-0.155l-0.532,0.175l-0.611,0.668l-1.279,1.134l-0.707,0.272l-0.61-0.059l-0.203-0.523l1.075-3.586l0.611-0.9
		l0.609-0.262l1.105-0.039l1.123-0.126l1.261-0.203l0.92-0.35l1.212-0.891l0.542-1.202l0.214-1.076l-0.155-0.223l-0.388-0.116
		l-0.959,0.098l-1.89,0.736l-1.647,0.387l-1.454,0.263l-1.104,0.223l-1.104-0.136l-0.717-0.126l-0.911-0.572l-1.803-1.444
		l-0.697-0.455l-0.62-0.232h-0.533l-0.466,0.388l-0.736,0.445h-0.319l-0.311-0.407v-0.736l0.175-0.62l0.862-0.716l0.533-0.272
		l0.262-0.348l0.349-1.125l0.407-1.531l0.649-0.853l1.017-0.446l1.192-0.503l1.958-0.213l1.036,0.145l0.707,0.455l0.776,0.679
		l0.853,0.853l0.998,0.757l1.037,0.348l0.553-0.164l0.202-0.63l-0.223-0.669l-0.649-0.746l-0.697-0.804l-0.232-0.853l0.01-0.979
		l0.203-0.679l1.037-0.843l1.26-0.979l0.01-0.61l-0.397-0.281h-0.853l-0.61,0.039l-0.62-0.059l-0.232-0.465l0.252-1.027l0.62-1.124
		l0.484-0.679l0.397-0.175h0.475l0.601,0.233l1.405,0.523l1.173,0.136l1.036-0.214l0.553-0.406l0.252-0.505l-0.232-0.852
		l-0.388-0.466l-0.31-0.736l-0.059-0.92l0.329-0.728l0.31-0.349l0.466-0.039l0.795,0.281l0.319,0.349l0.339,0.301l0.31,0.068h0.408
		l0.232-0.224l0.01-0.514l0.165-0.979l0.562-0.727l0.862-0.281l1.87-0.204h0.873l0.475,0.127l0.319,0.281l0.446,0.978l0.532,0.688
		l0.591,0.572l0.649,0.406l1.183,0.136l0.727-0.174l0.61-0.736l1.018-1.019l0.553-0.223l1.095-0.154l1.425,0.357l1.628,0.863
		l1.327,0.581h1.183l0.397-0.329l0.088-0.679l-0.397-0.523l-0.844-0.853l-1.105-0.427l-1.065-0.679l-0.639-0.804l-0.495-0.882
		l-0.281-1.163l0.078-2.005l-0.34-1.076l-0.716-1.221l-1.057-1.008l-1.513-0.921l-1.395-0.862l-3.169-0.892l-5.127-1.26
		l-4.146-0.523l-2.278,0.116l-0.668,0.427l-0.697,0.756l-0.427,2.132l-0.185,1.706l-0.3,0.493l-0.872-0.048l-1.124-0.32
		l-1.871-0.096l-1.356,0.241l-1.656,0.445l-1.435,0.368l-0.97,0.021l-1.026-0.253l-0.892-0.504l-1.026-0.601l-0.97-0.232
		l-2.171-0.368l-1.754-0.039l-1.095-0.039l-1.222-0.794l-0.493-0.669l-0.039-1.443l-0.368-1.899l-0.204-0.882l-0.32-0.679
		l-0.475-1.056l-0.339-1.561l-0.02-0.61l0.358-0.756l0.35-1.104l0.291-0.756l0.688-0.621l0.397-0.077l1.191,0.243l0.688,0.261
		l0.998,0.243l0.543-0.146l0.231-0.078v-0.271l-0.048-0.882l-0.31-0.475l0.135-0.833l0.466-0.688l0.388-0.416l-0.02-0.418
		l-0.407-0.609l-0.504-0.407l0.068-0.552l0.106-0.281l0.61-0.272l2.423-1.221l2.801-1.492l2.422-1.279l2.577-1.347l0.679-0.571
		l0.204-0.747l-0.011-0.416l-0.988-1.24l-2.258-2.763l-1.298-1.404l-0.591-0.466l-0.136-0.813l0.367-1.172l0.466-0.553l0.697-0.427
		l0.873-0.175l1.065-0.3l0.466-0.484l-0.039-1.367v-0.62l0.155-0.348l0.862-0.621l0.552-0.581l0.078-0.407l-0.106-0.774l-0.582-0.95
		l-1.153-1.279l-1.211-0.939l-0.862-0.649l-1.454,0.774l-1.502,0.504h-1.018l-1.831-1.056l-3.518-3.218l-2.364-2.131l-0.795-0.736
		l-0.427-0.32l-1.152,0.038l-1.735,0.126l-1.86-0.105l-0.736-0.204l-1.415-0.863l-2.267-2.034l-1.668-1.376l-0.853-0.969
		l-0.368-1.299l-0.426-1.706l-0.059-0.755l0.038-0.649l0.33-0.979l0.542-0.581l0.795-0.9l0.611-1.251l0.727-1.356l0.426-0.688
		l0.911-0.591l1.647-0.445l1.415-0.389l1.065-0.475l0.834-0.174l0.736-0.591l0.213-0.446l0.136-0.407l0.621-1.918l0.562-1.26
		l1.026-2.85l0.698-1.332l0.368-0.654l0.523-0.358l0.146-0.237l-0.155-0.286l-0.33-0.189l-0.397-0.46l-0.251-0.325l0.097-0.528
		l0.223-0.208l0.242-0.189l0.397-0.155l0.746-0.073l0.718-0.02l0.649,0.16l0.522,0.237l0.514,0.199l0.407,0.048l1.036,0.01
		l0.543,0.15l0.591,0.029l0.466-0.068l0.64-0.417l0.28-0.257l0.165-0.358l-0.106-0.267l-0.204-0.339l-0.164-0.683l-0.029-0.417
		l0.214-0.417l0.465-0.169l0.553-0.082l0.493,0.251l0.407,0.315l0.592,0.102l0.648-0.252l0.543-0.276l0.368-0.295l0.562-0.082
		l0.736-0.068l0.427,0.131l0.31-0.009l0.504-0.271l0.223-0.465l0.01-0.465l0.175-0.509l0.203-0.456l-0.067-0.558l-0.233-0.382
		l-0.387-0.32l-0.146-0.557l0.31-0.615l0.959-0.437l0.504-0.077l1.104-0.092l0.621-0.325l0.203-0.368l0.01-0.465l-0.407-0.605
		l-0.213-0.058l-1.027-0.935l-0.475-0.625l-0.532-0.911L125.646,0.5l-0.058-0.703l0.174-0.547l0.407-0.635l0.553-0.645l1.134-0.513
		l1.404-0.795l2.016-1.419l2.335-1.798l1.541-1.008l0.456-0.499l-0.029-0.615l-0.204-0.959l-0.212-0.877l-0.175-0.732l0.164-0.358
		l0.456-0.456l0.484-0.271l0.319-0.334l-0.165-0.446l-0.426-0.698l-0.62-0.949l-0.165-1.022l-0.146-0.509l0.388-0.533l0.757-0.31
		l0.406-0.684l-0.038-0.944l-0.214-0.596l0.214-0.693l0.445-0.257l0.659-0.208l0.62-0.286l0.154-0.538l-0.483-1.163l-0.185-0.78
		l0.407-0.64l0.377-0.344l0.805-0.131l1.115-0.039l1.608,0.267l0.774-0.126l0.795-0.46l0.736-0.635l0.562-0.804l0.204-0.504
		l-0.059-0.519l-0.3-0.664l-0.582-0.576l-0.562-0.892l-0.494-0.722l-0.077-0.848l0.097-0.621l0.106-0.538l0.553-0.615l0.581-0.514
		l0.494-0.271l-0.039-0.513l-0.193-0.446l-0.504-0.451l-1.202-0.751l-0.697-0.785l-0.214-0.92l0.059-0.538l0.611-0.339l0.959-0.436
		l0.736-0.169l0.445-0.068l0.039-0.577l-0.262-0.523l-1.018-1.361l-4.225-3.939l-2.385-1.808l-1.802-1.09l-1.492-0.378l-0.669,0.122
		l-0.649,0.247l-1.298,1.488l-3.043,3.382L126.11-41.9l-0.872,0.33l-0.949,0.049l-1.008-0.18l-1.89-0.969l-1.687-1.115l-2.451-2.17
		l-1.415-1.289l-0.62-0.708l-0.62-0.417l-0.446-0.058l-0.736-0.271l-0.542-0.417l-0.166-0.407l0.302-0.286l1.221-0.436l3.817-0.645
		l2.133-0.388l1.453-0.567l1.396-0.79l1.144-0.994l1.569-2.015l0.892-1.517l0.669-1.919l0.455-2.34l0.262-2.757l0.165-2.97
		l-0.194-1.638l-0.193-2.292l-0.02-1.43l0.484-1.962l0.33-0.911l0.61-0.766l0.892-1.003l0.872-0.794l-0.136-1.352l-0.494-1.177
		l-0.697-0.577l-1.009-0.504l-1.531-1.676l-0.368-0.964l-0.271-2.689l0.096-2.321l0.195-2.622l0.028-1.352l0.301-0.751l0.736-1.003
		l0.775-0.329l1.453-0.562l1.57-0.17l2.276-0.518l2.423-0.436l0.862-0.18l1.202-0.702l0.949-0.843l1.337-1.39l1.066-1.231
		l0.775-0.615l1.938-1.1l2.441-2.243l2.277-2.757l1.754-2.743l1.318-4.303l0.484-1.439l0.504-0.925l0.62-0.615l0.639-0.548
		l2.056-1.177l1.705-0.945l0.969-1.071l0.484-0.615l0.291-1.061l0.175-0.605l-0.301-2.016l-0.106-2.025l0.058-1.197l-0.387-1.333
		l-0.747-0.872l-0.813-0.727l-1.057-0.644l-1.134-0.495l-1.695-0.625l-0.358-0.514l-0.311-1.265l-0.465-0.81l-0.814-0.877
		l-0.707-0.586l-1.87-0.989l-0.697-0.436l-0.863-1.153l-1.309-1.986l-0.872-1.924l-1.443-1.449l-1.492-1.153l-2.259-1.061
		l-0.707-0.504l-0.193-0.208l-1.183,0.824l-1.104,0.95l-0.572,0.586l-3.091,2.96l-3.585,3.294l-3.295,3.232l-3.005,3.396
		l-1.87,2.282l-1.579,2.49l-0.649,0.843l-0.241,0.901l-0.572,0.693l-1.309,0.858l-2.713,1.317l-3.954,1.807l-4.758,2.171
		l-3.964,1.749l-3.644,2.113l-2.906,1.778l-1.687,1.425l-1.958,1.686l-0.678,0.586l-0.921,0.586l-1.114,0.417l-1.453,0.209
		l-1.948,0.208l-1.744,0.102l-2.258-0.218l-3.256-0.586l-1.037-0.32l-2.51-0.625l-2.403-0.582l-3.139-0.053l-3.276,0.053
		l-1.59-0.431l-1.859-0.853l-1.425-0.315h-0.804l-1.958,0.523l-3.102,1.371l-2.655,0.795l-1.608,0.315l-1.104-0.155l-1.356-0.479
		l-1.443-0.683l-0.427-0.684v-0.688l-0.204-0.635l-0.813-0.533l-0.813-0.16h-0.854l-1.037,0.485l-1.443,1.109l-1.366,0.528
		l-1.173,0.208l-0.862,0.111l-0.63,0.208l-0.203,0.208l-0.165,0.742l-0.339,0.954l-0.301,0.523l-0.436,0.32l-0.805,0.208
		l-0.795,0.523l-0.213,0.33l-0.136,0.528l0.203,0.684l0.185,0.586v0.475l-0.185,0.528l-0.533,0.475l-0.63,0.378l-1.036,0.315
		l-0.707,0.16l-1.095-0.208l-1.163-0.475h-0.736l-1.357,0.475l-3.14,1.429l-1.871,0.901l-0.881,0.063l-0.746-0.16l-0.427-0.475
		l-0.209-0.64l-0.779-0.741l-0.669,0.048l-0.731,0.16l-1.299,0.368l-0.866,0.155l-0.438-0.106l-0.871-0.32l-0.654-0.635
		l-0.674-0.257l-0.954,0.048l-0.494,0.32l-0.311,0.586l-0.131,0.635l0.378,0.901l0.645,0.368l0.232,0.417l-0.31,0.315l-0.703,0.111
		l-1.032,0.049l-1.114,0.208l-0.552,0.479l-0.567,0.63L7.893-98.39l0.208,0.746l0.437,0.634l0.503,0.523l0.728,0.417l0.446,0.319
		l0.208,0.378l0.077,0.417l-0.136,0.417l-0.499,0.586L9.002-93.05l-0.504,0.475l-0.209,0.577l-0.062,0.906l0.062,0.581l0.229,0.635
		l1.031,0.634l2.399,0.843l2.165,0.955l0.616,0.586l0.295,0.683l0.34,2.016l-0.189,1.749l-0.736,1.803l-1.168,1.013l-1.153,0.528
		l-2.112,0.315l-2.214,0.16l-3.033,0.048l-1.013,0.16l-0.437,0.417L2.81-77.173l-0.136,0.901l0.136,0.635l0.437,0.785l0.867,1.221
		l0.731,0.804l1.23,0.95l1.459,0.896l1.458,0.373l1.459,0.368l0.368,0.427l-0.078,0.794v0.417l-0.29,0.16l-0.616,0.315l-0.494,0.111
		l-0.237,0.32L8.905-67.07v0.95l-0.199,0.955L7.81-64.265l-0.77,0.479H6.424l-1.448-0.189l-2.979-0.218l-1.091,0.194l-0.417,1.066
		l-0.683,1.23l-1.521,1.25l-2.568,1.042l-2.122,0.95l-2.253,0.397l-1.666,0.377l-0.824,0.427l-0.427,0.896l-1.123,5.823
		l-0.219,2.815l0.17,1.521l0.892,0.853l0.615,1.584l0.208,1.919l-0.426,3.062l-1.013,3.556l-1.119,1.963l-1.052,0.765l-1.032,0.514
		l-1.032,0.034l-0.944,0.106l-1.846,1.032l-0.979,1.071l-0.45,0.814l-0.306,0.984l-0.615,1.138l-1.013,0.596l-1.211,0.121
		l-1.212,0.117l-1.865,0.469l-1.061,0.751l-0.615,0.906l-1.081,0.514l-1.381,0.684l-1.764,0.707l-1.183,0.359l-1.399,0.378
		l-0.615,0.654l-0.315,0.979l-0.301,1.618l-0.009,1.686l0.053,1.042l-0.218,0.974l-0.805,0.673l-0.794,0.756l0.028,0.882
		l-0.169,3.376l0.102,1.924l-0.339,0.736l-0.519,1.061l-0.901,0.911l-1.173,0.766l-1.821,1.187l-1.75,1.182l-0.784,1.153
		l-0.315,1.376l-0.319,2.583l0.368,2.403l0.111,1.846l-0.062,0.882l-0.247,0.407l-0.533,0.742l-1.013,0.833l-0.548,0.586
		l-0.237,0.567l-0.062,0.722l-0.204,1.371l-0.615,0.906l-0.905,0.673l-1.628,1.022l-1.687,0.998l-0.901,0.757l-0.34,0.654
		l0.122,0.557l0.314,0.717l0.029,0.64l-0.175,0.649l-1.172,0.766l-1.469,0.203l-2.301,0.088l-2.307,0.164l-0.446,0.32l-0.266,0.329
		l0.028,0.649l0.218,0.707l0.122,0.572l-0.131,1.443l-0.751,1.725l-0.916,0.834l-0.911,0.591l-0.717,0.184l-0.95,0.039l-0.745-0.213
		l-1.609-0.658l-0.959-0.059l-1.449,0.29l-2.292,0.407l-2.839,0.747l-2.282,0.882l-1.875,1.356l-1.492,1.336l-1.841,2.869
		l-0.785,1.327l-0.615,1.309l-0.785,1.144l-1.129,1.076l-0.63,1.473l-0.484,1.783l-0.209,0.591l-1.676,2.597l-0.538,0.736
		l-0.208,0.813l0.208,0.631l1.25,0.766l3.295,0.62l3.653,0.813l1.996,0.892l1.25,0.94l0.882,0.688l0.475,0.057l0.814-0.503
		l0.775-1.163l0.557-0.406l0.723-0.427l0.614,0.125l0.906,0.397l0.999,1.184l5.906,6.695l2.49,3.44l0.673,0.542l0.945,0.214
		l0.921-0.194l1.39-0.775l0.577-0.019l0.586,0.146l0.892,1.017l0.654,0.533l0.746,0.068l1.386-0.291l2.098-1.027l0.247-0.484
		l0.315-1.144l0.329-2.888l0.495-1.541l0.537-0.504l0.635-0.185l1.032,0.136l0.872,0.611l0.329,1.269l0.126,2.665l-0.562,2.161
		l-1.4,2.21l-0.615,1.705l-0.349,2.5l0.072,0.892l0.276,1.59l0.358,3.837l0.445,1.512l1.09,1.646l1.527,1.241l3.328,1.474
		l2.945,1.191l1.488,0.649l0.296,0.484l0.033,0.562l-0.45,0.493l-1.26,0.94l-2.272,1.114l-0.834,0.203l-1.108-0.445l-0.844,0.116
		l-0.824,0.349l-0.891,0.756l-0.35,0.582l0.209,0.717l0.028,0.562l-0.179,0.484l-0.368,0.098l-0.814,0.184l-0.354,0.339l0.029,0.621
		l0.494,0.562l0.766,0.522l0.964,0.058l0.713-0.116l0.615-0.406l1.308-0.137l1.439,0.524l0.615,0.697l0.301,0.62l0.635,0.058
		l-0.427,0.359l-0.427,0.901l-1.391,1.415l-2.185,2.615l-2.51,2.182l-1.735,1.075l-1.031,0.445l-0.955,0.204h-1.139l-1.26-0.224
		l-0.833-0.629l-1.42-1.27l-1.487-1.493l-1.013-0.514l-0.479-0.038l-0.596-0.087l-0.484,0.038l-0.296,0.232l-0.427,0.446
		l-0.843,0.892l-1.013,0.62l-0.658,0.271h-0.684l-0.713-0.271l-1.031-0.814l-1.323-0.775l-1.022-0.427h-0.615l-0.664,0.136
		l-0.673,0.495l-0.538,0.445l-1.032,0.669l-0.683,0.213l-1.013,0.039l-1.43-0.214l-1.507-0.833l-2.621-1.453l-0.615-0.271h-0.363
		l-0.669,0.038l-0.843,0.407l-0.901,0.408l-1.032,0.406l-1.032,0.185l-0.663-0.098l-0.538-0.32l-1.129-0.861l-1.313-1.057
		l-1.618-1.26l-0.354-0.262l-0.785-0.232l-0.538-0.088h-0.949l-0.727,0.088l-0.664,0.087l-0.131,0.185v0.406v0.504l-0.354,0.63
		l-0.843,1.163l-1.284,1.812L-98.411,104.672"/>
</g>
<g id="Layer_1_1_">
</g>
</svg>
