<?xml version="1.0" encoding="iso-8859-1"?>
<!-- Generator: Adobe Illustrator 16.0.4, SVG Export Plug-In . SVG Version: 6.00 Build 0)  -->
<!DOCTYPE svg PUBLIC "-//W3C//DTD SVG 1.1//EN" "http://www.w3.org/Graphics/SVG/1.1/DTD/svg11.dtd">
<svg version="1.1" xmlns="http://www.w3.org/2000/svg" xmlns:xlink="http://www.w3.org/1999/xlink" x="0px" y="0px"
	 width="58.146px" height="44.855px" viewBox="0 0 58.146 44.855" style="enable-background:new 0 0 58.146 44.855;"
	 xml:space="preserve">
<g id="Layer_53">
	<g id="Layer_58">
		<path id="Sibbi" style="fill:#CCCCCC;stroke:#FFFFFF;stroke-width:1.07;" d="
			M50.639,15.827L50.639,15.827L49.93,15.15l-0.104-0.219l-0.002-0.219l-0.002-0.132l-0.002-0.088l-0.076-0.197l-0.205-0.194
			l-0.379-0.15l-0.584-0.325l-0.561-0.325l-0.51-0.346l-0.305-0.219l-0.33-0.215l-0.279-0.107l-0.457-0.15l-0.48-0.193l-0.586-0.367
			l-0.764-0.389l-0.635-0.346l-0.559-0.236l-0.459-0.303l-0.182-0.283l-0.029-0.373L42.383,9.49l-0.107-0.215l-0.037-0.147
			l-0.072-0.094l-0.209-0.091l-0.223-0.029l-0.289-0.053l-0.209-0.103l-0.197-0.174l-0.16-0.271l-0.201-0.233l-0.154-0.115
			l-0.266-0.112L39.816,7.77l-0.348-0.086l-0.141-0.128l-0.062-0.188l-0.131-0.188l-0.156-0.149l-0.195-0.127l-0.49-0.262
			l-0.281-0.185l-0.143-0.163l-0.062-0.178l-0.02-0.165l-0.021-0.263l-0.072-0.082l-0.162-0.088l-0.35-0.098l-0.734-0.184
			l-0.869-0.12l-0.566-0.068l-0.498-0.095l-0.432-0.143l-0.295-0.172L33.475,4.35l-0.229-0.244L33.09,3.977l-0.182-0.091
			L32.49,3.742l-0.611-0.139l-0.545-0.235l-0.35-0.183l-0.502-0.177l-0.439-0.103l-0.32-0.086l-0.499-0.118l-0.309-0.158
			l-0.267-0.136L28.383,2.32L28.2,2.206l-0.043-0.06l-0.003-0.095l0.052-0.086l0.065-0.097l0.078-0.121l0.01-0.107l-0.004-0.119
			l-0.059-0.105l-0.223-0.089l-1.341-0.382l-3.221-0.384l-0.748-0.019l-0.049,0.082l-0.057,0.085l0.005,0.094l0.041,0.113
			l0.237,0.182l0.209,0.086l0.208,0.088l0.1,0.069l0.065,0.124l0.01,0.24l-0.053,0.158L23.335,2.18l-0.124,0.215l-0.149,0.182
			l-0.138,0.15L22.72,2.928l-0.283,0.155l-0.248,0.103l-0.523,0.186l-0.284,0.135l-0.367,0.139l-0.413,0.211l-0.45,0.192
			l-0.227,0.06l-0.181-0.004l-0.23-0.022l-0.413-0.06l-0.254-0.022l-0.265,0.009l-0.239,0.028l-0.453,0.12l-0.499,0.185L17.013,4.5
			L16.73,4.654l-0.14,0.109l-0.292,0.209l-0.189,0.08l-0.145-0.006L15.77,5.001l-0.364-0.104l-0.454-0.162l-0.503-0.191l-0.32-0.146
			l-0.38-0.133l-0.1-0.07l-0.041-0.092l-0.056-0.176l-0.067-0.145l-0.174-0.119l-0.307-0.125L12.82,3.49l-0.171-0.066L12.43,3.389
			l-0.556-0.043L11.51,3.307l-0.387-0.027l-0.205-0.004l-0.264,0.041l-0.07,0.043l-0.105,0.089l-0.176,0.09l-0.095,0.035
			l-0.36,0.044L9.439,3.632H9.126L9.028,3.605L8.89,3.495L8.741,3.395L8.581,3.318L8.201,3.206L7.826,3.145L7.585,3.143L7.163,3.126
			L6.764,3.107l-0.4-0.047L6.085,3.018l-0.26-0.137L5.651,2.782L5.428,2.676L5.206,2.547L5.067,2.438L4.932,2.4L4.737,2.355
			L4.508,2.354L4.377,2.379l-0.225,0.07L3.939,2.552l-0.23,0.101l0.033,0.039l0.112,0.235l0.079,0.267l0.048,0.355l0.115,0.326
			l0.041,0.162L4.092,4.232L3.86,4.479L3.409,4.865L2.975,5.236L2.728,5.542L2.546,5.771L2.228,6.003L2.092,6.052L1.834,6.073
			L1.56,6.111L1.479,6.232l-0.188,0.47L1.215,6.764L2.302,6.98l0.381-0.244l0.285-0.397l0.348-0.321l0.24-0.006l0.181,0.02
			L3.833,6.16L3.783,6.473L3.676,6.814L3.634,7.283l0.013,0.363L3.625,7.855l0.131,0.283l0.37,0.274l0.193,0.358l0.127,0.205
			l0.277,0.201l0.421,0.064L5.623,9.23l0.567-0.068l0.328-0.035l0.419-0.012l0.512,0.09l0.21-0.006l0.297-0.085l0.198-0.317
			l0.176-0.109l0.27-0.006L8.84,8.727l0.245,0.148l0.13,0.283l0.107,0.49l0.145,0.699l0.113,0.646l0.185,0.982l0.193,1.244
			l0.114,0.698l-0.049,0.404l-0.09-0.124l-0.414-0.157L9.29,14.087L8.888,14.21l-0.117,0.097l-0.383,0.324l0.272,0.092l0.356,0.172
			l0.129,0.136l0.051,0.183l-0.042,0.146l-0.101,0.214l-0.251,0.159l-0.385,0.205L8.071,16.08l-0.59,0.037l-0.497,0.122
			l-0.192,0.077L6.693,16.43l-0.042,0.166l0.011,0.264l0.087,0.299l0.184,0.202l0.197,0.434l0.104,0.349l0.067,0.332l-0.009,0.33
			L7.28,19.133l-0.025,0.273l0.17,0.253l0.288,0.094l0.633,0.206l1.017,0.27l0.6,0.276l0.373,0.224l0.197,0.367l0.31,0.437
			l0.142,0.351l0.22,0.269l0.346,0.503l0.235,0.4l0.285,0.617l0.23,0.551l0.192,0.549l0.084,0.397l0.012,0.394l0.029,0.298
			l0.139,0.448l-0.015,0.496l0.096,0.629l0.16,0.351l0.211,0.533l0.201,0.268l0.315,0.224l0.263,0.088l0.262,0.088l0.166,0.136
			l0.141,0.366l0.22,0.22l0.22,0.253l0.318,0.123l0.471,0.061l0.186,0.119l0.262,0.088l0.587-0.02l0.851,0.02l0.444,0.059
			l0.329,0.043l0.278,0.172l0.409,0.257l0.186,0.104l0.301,0.057l0.375,0.124l0.239,0.237l0.102,0.197l0.158,0.385l0.008,0.346
			l0.144,0.252l0.18,0.316l0.163,0.219l0.111,0.053l0.132,0.02l0.231-0.143l0.194-0.16l0.135-0.08l0.132,0.004l0.167,0.086
			l0.241,0.139l0.435,0.011l0.646-0.116l0.284-0.01l0.318,0.092l0.428,0.24l0.181,0.251l0.141,0.334l-0.006,0.183l0.007,0.363
			l-0.006,0.182l0.108,0.184l0.203,0.154l0.221,0.188l0.105,0.25l0.031,0.198l-0.01,0.329l-0.011,0.348l0.045,0.348l0.229,0.818
			l0.142,0.543l-0.055,0.246l-0.103,0.245l0.03,0.248l0.089,0.167l0.221,0.171l0.373,0.142l0.675,0.133l0.708,0.266l0.48,0.325
			l0.234,0.319l0.165,0.713l0.052,0.729l0.13,0.63l0.096,0.53l-0.027,0.247l-0.126,0.393l-0.14,0.229l-0.175,0.16l-0.137,0.162
			l-0.005,0.164l0.128,0.104l0.94,0.073l0.717,0.001l0.514-0.118l0.572-0.233l0.408-0.367l0.762-0.739l0.291-0.273l0.307-0.138
			l0.039-0.02l0.455-0.104l0.207,0.021l0.371,0.191l0.352,0.174l0.277,0.156l0.451,0.045l0.377,0.026l0.279,0.122l0.371,0.158
			l0.295,0.189l0.371,0.176l0.424,0.242l0.611,0.133l0.268-0.041l0.629-0.182l0.766-0.375l0.539-0.282l0.594-0.247l0.367-0.352
			L40.9,42.38l-0.162-0.17l-0.326-0.403l-0.27-0.306l-0.201-0.203l-0.615-0.183l-0.73-0.169l-0.539-0.195l-0.316-0.125l-0.092-0.084
			l0.021-0.082l0.119-0.18l0.512-0.548l0.533-0.693l0.42-0.807l0.088-0.17l0.404-0.729l0.525-0.978l0.268-0.586l0.521-0.828
			l0.271-0.719l0.182-0.309l0.158-0.161l0.248-0.092l0.455-0.037l0.514-0.101l0.482-0.301l0.312-0.238l0.105-0.312l0.174-0.271
			l0.467-0.383l0.23-0.094l0.775-0.01l1.379,0.057l0.98,0.045l1.17,0.066l0.697,0.053l0.547,0.066l0.68,0.02l0.416-0.004l0.27-0.106
			l0.342-0.535l0.322-0.47l0.143-0.242l0.234-0.225l0.348-0.121l0.844-0.321l1.137-0.511l1.137-0.478l0.443-0.362l0.238-0.257
			l0.229-0.521l0.223-0.323l0.193-0.144l0.025-0.131l-0.064-0.267l-0.262-0.569l-0.1-0.812l0.029-0.312l0.23-0.537l0.336-0.783
			l-0.027-0.281l-0.125-0.169l-0.223-0.14l-0.434-0.078l-0.377-0.045l-0.502-0.215l-0.656-0.168l-0.801-0.404l-0.221-0.139
			L53.26,22.05l-0.609-0.415l-0.6-0.184l-0.666-0.415l-0.594-0.365l-0.443-0.261l-0.197-0.319l0.014-0.346l0.006-0.61l-0.014-0.156
			l-0.021-0.129l-0.031-0.162l-0.012-0.447l0.111-0.331l0.078-0.3l0.059-0.436l0.129-0.404l0.043-0.285l0.096-0.359L50.639,15.827"
			/>
	</g>
</g>
<g id="Layer_1">
</g>
</svg>
