<?xml version="1.0" encoding="utf-8"?>
<!-- Generator: Adobe Illustrator 16.0.4, SVG Export Plug-In . SVG Version: 6.00 Build 0)  -->
<!DOCTYPE svg PUBLIC "-//W3C//DTD SVG 1.1//EN" "http://www.w3.org/Graphics/SVG/1.1/DTD/svg11.dtd">
<svg version="1.1" id="Layer_1" xmlns="http://www.w3.org/2000/svg" xmlns:xlink="http://www.w3.org/1999/xlink" x="0px" y="0px"
	 width="301.311px" height="217.85px" viewBox="-130.263 -94.082 301.311 217.85"
	 style="enable-background:new -130.263 -94.082 301.311 217.85;" xml:space="preserve">
<g id="Layer_66">
	<path id="Kohat" style="fill:#CCCCCC;stroke:#FFFFFF;stroke-width:1.15;" d="M-31.555-60.736L-31.555-60.736l-1.087,0.484
		l-0.47,0.696l-0.147,0.567l0.434,0.405l0.696,0.836l-0.359,0.707l-0.337,0.448l0.176,0.696l0.19,0.778l-0.33,0.61l-0.237,0.581
		l-0.548,0.588l-0.685,0.456l-0.8,0.351l-0.821,0.294l-0.84-0.015l-1.219-0.484l-1.184-0.552l-0.821-0.141l-0.545-0.021
		l-0.624,0.516h-0.008l-0.602-0.308l-0.747-0.896l-0.524-0.582l-0.513-0.513l-0.818-0.771l-0.717-0.854l-0.456-0.696l-0.509-0.48
		l-0.541-0.506l-0.581,0.197h-0.535l-1.198,0.054l-0.912-0.625l-0.617-0.413l-1.213-0.28l-0.66-0.463l-1.259-0.868l-0.843-0.639
		l-0.833-0.427l-1.305-0.417l-0.743-0.398l-0.764-0.272l-0.639-0.284l-0.595-0.194l-0.961-0.337l-0.603,0.104l-0.588-0.162
		l-0.912-0.384l-0.713-1.058l-0.689-0.983l-0.771-0.582l-0.201-0.566l-0.85-0.624l-0.918-0.61l-1.492-1.424l-0.868,0.09
		l-0.764-0.309l-0.71-0.538l-0.646-0.7l-0.925-0.71l-0.617-0.154l-0.868-0.28l-0.484-0.287l-0.391-0.448l-0.337-0.52l-0.222-1.406
		l-0.029-0.61l0.183-1.076l-0.456-0.509l-0.66-0.786l-0.653-0.933l-0.617-0.939l-0.244-0.478l-0.359-1.05l-0.419-0.771l-0.947-0.362
		l-0.61,0.054l-0.603,0.058l-0.617-0.266l-0.764-0.071l-0.764-0.198l-1.087-0.287l-0.492-0.28l-0.692-0.829l-0.904-0.341
		l-1.058-0.821l-0.886-0.499l-0.972-0.104l-0.771,0.455l-0.742,0.786l-0.778,0.076l-0.793,0.183l-0.771,0.107l-0.513-0.402
		l-0.169-0.492l-0.193-0.649l-0.731-0.154l-1.073-0.079l-0.678-0.162l-0.696-0.345l-0.925-0.713l-0.302-0.567l-0.265-0.47
		l-0.405-0.653l-1.306-0.251l-1.471,0.37l-1.065,0.352l-1.044,0.477l-0.778,0.384l-0.542,0.337l-0.47,0.309l-0.28,0.506l0.204,0.567
		l0.154,0.997l0.301,0.671l0.405,0.441l-0.237,0.505l-0.272,0.535l0.61,0.581l0.743,0.162l0.56,0.215l0.513,0.455l0.61,1.041
		l0.111,0.678l0.316,0.815l0.265,0.602l0.219,0.8l0.222,0.642l0.101,0.61v0.205l-0.007,0.939l-0.079,0.552l-0.201,0.743
		l-0.315,0.646l-0.337,0.757l-0.28,0.778l-0.33,0.725l-0.205,0.582l0.331,1.079l0.764,0.664l1.535,1.047l0.535,0.333l0.768,0.423
		l0.452,0.405l0.51,0.56l0.387,0.653l0.456,0.925l0.146,0.28l0.37,0.534l0.865,0.75l0.764,0.495l1.037,0.197l0.821,0.301l0.456,0.33
		l0.714,0.33l0.667,0.574l0.643,0.603l0.792,0.667l0.448,0.456l0.366,0.567l-1.41,0.387l-1.542-0.1l-0.926-0.266l-0.631-0.308
		l-0.771,0.104l-1.065-0.09l-0.811-0.294l-0.926-0.168l-0.57-0.287l-0.818-0.154l-0.631-0.205l-0.646-0.355l-0.545-0.563
		l-0.71-0.631l-0.918,0.168l-0.75-0.054l-0.567,0.502l-0.835,0.8l-1.051,0.154l-0.825,0.118l-0.872,0.248l-0.603,0.499l-0.449,0.319
		l-1.463,0.47l-1.159,0.441l-0.463,0.254l-0.685,0.678l-0.233,0.807l-0.201,0.624l-0.366,0.617l-0.66,0.14l-1.493,0.75l-0.639,0.197
		l-1.205,0.441l-1.241,0.61l-0.509,0.545l-0.19,0.703l0.337,0.764l0.362,0.42l0.535,0.455l1.072,0.434l1.148,0.133h0.535
		l0.954-0.011l0.757-0.021l0.574,1.098l0.456,0.696l1.051,0.983l0.764,0.355l0.933,0.14l1.108-0.021l1.442-0.133l1.101-0.083
		l0.861-0.072l0.821-0.043l0.603,0.057l-0.147,0.919l-0.448,0.918l-0.294,0.47l0.154,0.021l0.847,0.043l1.047,0.039l0.839,0.079
		l1.381,0.125l1.087-0.133l1.381-0.204l1.072-0.316l0.84-0.491l0.703-0.628l0.8-0.534l0.574-0.435l0.825-0.674l1.108-0.581
		l1.19,0.058l1.073,1.345l0.746,1.08l1.413,0.75l1.396,0.021l1.646,0.646l-0.463,0.685l-0.972,0.337l-0.897,1.102l0.714,0.068
		l1.654-0.168l1.653,0.122l0.71,0.581l1.403-0.093l1.176-0.14l1.683-0.187l1.507,0.075h1.284l0.771,0.359l-0.14,0.671l-0.144,0.886
		l-0.054,0.545l-0.118,0.667l-0.409,0.398l-0.495,0.94l0.011,0.836l-0.456,0.768l-0.714,0.204l-1.14,0.47l-0.718,0.352l-0.42,0.456
		l-0.828,0.979l-0.531,0.688l-0.197,1.55l-0.516,0.183l-1.102,0.068l-1.072,0.08l-1.352,0.186l-0.872,0.101l-0.728,0.427
		l0.133,0.771l0.176,1l0.021,0.75v0.021l-0.154,0.822l-0.125,0.646l0.154,0.657l-0.176,1.011l0.47,0.427l0.94-0.043l0.678-0.007
		l0.625,0.269l0.559,0.545l0.61,0.462l0.625,0.219l1.073,0.617l0.961,0.94l0.413,0.972l0.33,1.191l0.154,1.242l-0.118,0.036
		l-0.675,0.226l-0.825,0.165l-0.8,0.129l-0.66,0.068l-0.588,0.133l-0.896,0.345l-0.786,0.132l-0.617-0.125l-0.685-0.104h-1.349
		h-0.979l-0.875-0.086l-0.75-0.09l-0.968,0.083l-0.868,0.043l-0.961,0.14l-1.521-0.036l-0.997-0.029l-0.861-0.589l-0.918-0.33
		l-1.029-0.025l-0.617-0.175l-0.947,0.118l-0.563,0.427l-0.692,0.492l-0.674,0.617l-0.266,0.258l0.036,1.284l-0.176,0.764
		l-0.33,0.624l-0.147,0.661l-0.162,0.943l-0.068,0.961l0.062,0.549l-0.215,0.897l-0.764,0.713l-0.646,0.169l-1.256,0.516
		l-0.581,0.205l-0.786,0.125l-2.46-0.007l-0.625,0.057l-0.868-0.028l-0.534,0.133l-0.538,0.24l-0.764,0.362l-0.764,0.168
		l-0.882-0.104l-0.646-0.233l-0.456-0.294l-0.351,0.725l0.337,0.757l0.273,0.603l0.021,0.538l0.793,0.308l0.617,0.402l0.588,0.477
		l0.674,0.51l0.524,0.359l0.836,0.53l0.545,0.277l0.954,0.236l0.707,0.273l-0.42,0.491l-0.183,0.714v0.021l-0.083,0.617
		l-0.093,0.814l-0.104,0.807l-0.154,0.743l-0.33,0.94l-0.265,0.61l-0.395,0.918l-0.28,0.926l0.521,0.215l0.939-0.029l0.735-0.047
		l0.624,0.054l-0.301,0.625l-0.646,0.574l-0.154,0.66l-0.301,0.85l-0.237,0.664l-0.204,0.549l-0.345,0.42l-0.61,0.56l-0.545,0.703
		l-0.423,0.646l-0.48,0.761l-0.631,0.52l-0.911,0.233l-1.535,0.384l-0.94-0.036l-1.094-0.251l-1.198-0.043l-0.868-0.19l-0.674-0.244
		l-0.822,0.219l-0.972,0.194l-1.166,0.247l-0.764,0.169l-1.073,0.183l-0.771,0.266l-0.582,0.566l0.072,0.667l0.244,0.553
		l0.118,0.205l1.213-0.112l1.058,0.89l0.036,0.833l-0.538,0.933l-0.344,0.431l-0.484,1.09l0.667,0.301l0.854,0.273l1.086,0.424
		l1.177,0.365l1.41,0.416l1.152,0.345l0.986,0.373l0.667,0.172l1.331,0.337l1.184,0.28l0.638,0.094l1.823,0.329l0.639,0.036
		l1.381-0.107l0.764-0.158l1.682-0.144l1.03-0.121l0.542-0.015l0.854-0.101l0.976-0.114l1.234-0.087l1.134-0.036l1.195,0.021
		l1,0.072l1.381,0.165l0.94-0.136l0.883-0.223l1.094-0.08l0.667,0.051l0.589,0.15l1.263,0.259l1.169,0.287l0.735,0.1l1.184,0.044
		l1.424,0.064l0.843-0.122l1.001-0.072l0.933-0.114l0.882-0.266l1.073-0.279l1.166-0.201l0.635,0.086l1.054,0.301l0.635,0.159
		l0.739-0.044l0.764-0.086l0.56-0.014l1.037,0.43l0.309,0.545l-0.126,1.22l-0.211,0.94l0.183,0.825l0.807,0.229l0.552,0.1
		l0.718,0.087l0.943,0.028l0.983-0.071l0.757-0.172l0.8-0.23l0.685-0.229l0.542-0.144l0.664-0.086l0.624-0.071l0.682,0.014
		l0.097,0.102l0.696,0.071l1.058,0.042l1.585-0.071l1.198,0.157l1.549-0.042l1.683-0.137l0.642,0.338l0.57,0.58l0.007,0.618
		l0.301,0.423l0.047,0.058l0.764,0.172l0.743-0.086l2.055-0.158l1.704-0.014l1.22,0.149l0.968,0.316l0.876,0.329l0.567,0.224
		l1.176,0.028l0.919,0.287l0.072,0.983l-0.338,0.437l-0.846-0.058l-0.549,0.115l0.345,0.48l0.161,0.739l0.183,1.306l0.154,0.761
		l0.208,0.617l0.308,0.717l0.154,0.531l0.007,0.028l0.402,0.618l0.315,0.53l0.097,0.789l-0.506,0.459v0.617l0.072,1.026l0.021,0.753
		l0.456,0.502l0.986,0.13l1.725-0.029l1.46-0.107l1.22-0.15l1.072-0.187l0.764-0.13l1.008,0.604l0.639,0.222h0.875l0.869-0.287
		l0.764-0.193l1.783-0.287l0.638-0.151l0.789-0.164l1.518-0.093l1.316,0.149l2.117,0.366l0.456,0.812l0.161,0.573l0.19,0.675
		l0.154,0.904l0.405,0.982l-0.405,0.48l-0.477,0.237l-0.682,0.136l-0.764,0.617l0.911,0.56l1.209,0.15l0.735-0.078l1.428,0.036
		l1.108,0.042l1.058,0.309l1.033,0.229l0.523,0.381l0.506,0.588h0.825l1.108-0.15l0.983,0.058l0.426-0.395l0.237-0.646l0.484-0.338
		l1.137-0.989l0.911-0.574l0.714-0.158l0.969,0.028l0.969-0.043l0.566-0.401l0.911-0.065l0.814-0.193l1.266,0.072h0.007l0.043,0.201
		l0.154,0.616l-0.14,0.718l-0.169,0.603l-0.14,0.617l-0.043,0.545l-0.069,0.775l-0.211,0.954l-0.154,0.624l0.043,0.99l0.478,0.266
		l0.581,0.38l-0.028,0.875l-0.456,0.718l-0.14,0.919l0.061,0.53l0.115,0.746l0.23,0.904l0.154,0.674l0.118,0.531l0.036,0.688
		l-1.352,2.626l-0.456,0.919l0.111,0.1l0.254,0.517l-0.491,0.768l0.66,0.718l0.237,0.537l-0.545,0.281l-0.423,0.372l-0.337,0.754
		l0.599,0.315l1.044,0.259l0.287,0.48l0.076,0.854l0.918,0.359l0.717,0.078l0.89-0.028l1.219,0.078l0.814,0.144l1.708,0.144
		l0.893,0.194l1.273,0.294l0.456,0.358l0.646,0.331l0.505-0.015l0.588-0.087l1.285-0.322l1.065,0.021l0.237,0.703l-0.456,0.933
		l-0.33,0.617l0.33,0.588l0.882-0.115l0.771-0.171l0.743,0.086l0.556-0.115l0.14,0.631L9.82,75.588l0.061,1.343l0.646,0.149
		l1.037,0.158l0.764-0.344l0.976,0.157l0.742,0.287l1.36,0.345l1.058-0.173l0.771-0.76l0.254-0.56l-0.279-0.56l-0.438-0.359
		l-0.603,0.122l-0.456-0.566l-0.258-0.588l-0.567-1.005l-0.176-0.56l-0.154-0.546l0.337-0.574l0.882,0.151l1.27-0.452l1.184-0.588
		l1.704-0.89l1.045-0.474l1.667-0.56l1.563-0.381l1.934-0.251l0.94,0.358l0.035,1.034l0.488,0.903l0.646,0.187l1.356,1.019
		l1.141,1.034l1.392,1.377l0.739,0.817l0.365,0.467l0.416,0.596l1.579,1.492l1.233,0.846l1.327,0.919L39.339,80l1.147,0.646
		l0.825,0.984l-0.157,0.688l-0.144,1.099l-0.272,1.37l-0.345,1.205l-0.359,0.818v0.739l0.224,0.71l0.149,1.048l0.229,1.435
		l0.159,1.463l0.243,1.607l0.129,1.09l0.172,1.393l0.094,0.896l0.581,0.616l0.703-0.027l0.487,0.408l0.905,1.277l0.451,0.667
		l0.768,0.617l0.258,0.523l0.833,1.069l0.632,0.947l0.387,0.408l1.084,1.248l0.53,0.733l0.48,0.717l0.718,1.456l0.043,0.982
		l-0.115,0.769l0.604,1.37l1.061,0.789l1.134,0.667l1.07,0.582l0.825,0.516l1.076,0.445l0.961,0.631l1.349,0.818l1.75,0.43
		l1.852,0.245l1.306,0.114l1.076,0.301l1.277,0.51l0.631,0.409l0.517,0.244l0.919,0.545l1.184,0.517l1.435,0.215l1.93,0.201
		l1.857,0.086l1.256,0.201l0.891,0.071l0.538,0.058l-0.123-0.287l-0.215-0.674l-0.416-1.307l-0.373-1.334l-0.187-1.09l-0.043-0.56
		l-0.208-1.852l-0.151-1.463l-0.149-0.848l-0.108-0.868l-0.157-2.669l0.718-2.963l1.562-2.382l1.687-1.836l2.017-1.471l1.355-0.94
		l1.931-1.392l1.348-1.105l0.488-0.659l0.316-0.589l0.149-0.345l0.223-0.215l0.531-0.804l0.229-0.487l0.33-0.531l0.617-0.99
		l0.459-1.119l0.272-1.047l0.273-0.891l0.301-1.011l0.15-0.839l0.079-1.22l0.071-0.933l0.058-0.747l0.028-0.854l-0.114-0.739
		l-0.229-0.768l-0.272-0.918l-0.237-0.797l-0.466-0.903l-0.353-0.919l-0.207-0.803l-0.273-0.682l-0.358-0.589l-0.329-0.573
		l-0.618-0.617l-0.452-0.366l-0.767-0.732L84.2,71.062l-0.474-0.452l-0.603-0.459l-0.804-0.847l-0.976-0.695l-0.861-0.739
		l-0.76-0.531l-0.977-0.717l-0.896-0.761l-0.918-0.825l-0.796-0.812l-0.804-1.104l-0.316-0.545l-0.287-0.517l-0.028-0.53
		l-0.603-0.718l-0.431-0.891l0.129-1.111l0.18-0.955l-0.15-1.118l-0.244-1.485l-0.273-1.327l-0.314-0.718l-0.158-0.796l-0.129-0.668
		l-0.101-0.825l0.459-1.011l0.387-0.373l0.718-0.445l0.789-0.459l0.875-0.66l0.769-0.452l0.682-0.301l0.581-0.675l0.603-0.846
		l0.595-0.883l0.861-1.601l0.395-1.771v-0.682l0.021-1.901l-0.144-0.56l-0.373-1.033l-0.458-1.356l-0.359-0.401l-0.66-0.459
		l-0.15-0.043l0.05-0.021l-0.144-0.101l-0.631-0.129l-0.89,0.071l-0.617-0.071l-0.467-0.395l0.194-0.553l0.373-0.725l0.365-0.438
		l0.452-0.696l0.172-0.523l0.23-0.768l1.27-1.083l0.71-0.661l0.818-0.789l0.897-0.903l0.889-0.933l2.525-0.703l0.982-0.503
		l0.977-0.301l1.327-0.646l1.457-0.739l0.602-0.309l0.302-0.158l1.22-0.674l2.268-1.233l0.867-0.416l2.103-0.833l1.312-0.48
		l1.342-0.423l1.155-0.556l1.385-0.766l1.629-0.82l1.385-0.854l1.521-0.75l1.406-0.499l1.276-0.491l1.386-0.66l1.082-0.509
		l0.805,0.075l0.746,0.226l1.248,0.678l1.994,0.617l1.178,0.205l0.588-0.083l1.026-0.298l0.552-0.452l1.091-0.768l0.745-0.545
		l0.574-0.456l0.962-1.453l0.129-0.796l0.057-1.446l-0.286-1l-0.373-1.033l-0.531-1.737l-0.043-0.982l0.101-0.918l0.158-0.792
		l0.287-0.671l0.329-0.843l1.406-1.583l0.718-0.395l1.377-0.538l1.708-0.47l1.923-0.66l0.588-0.398l0.431-0.402l1.284-1.471
		l0.695-1.176l0.538-0.872l0.094-0.861l0.157-0.883l0.237-0.976l0.538-0.205l0.617-0.172l0.503-0.144l0.91-0.272l0.969-0.176
		l0.761-0.193l0.846-0.255l0.747-0.376l0.56-0.366l0.445-0.37l0.817-0.918l1.994-1.048l0.302-0.294l0.739-0.713l0.724-0.478
		l1.178-0.89l0.717-0.771l0.646-0.653l0.495-0.581l0.639-0.875l0.66-0.933l0.703-1.248l0.588-0.948l0.474-0.939l0.675-0.943
		l0.444-1.019l-0.172-1.395l-0.424-1.073l-0.452-1.248l-0.401-0.377l-0.516-0.506l-0.374-0.337l-0.517-0.714l-0.329-1.227
		l-0.488-0.854l-0.33-0.886l-0.603-1.743l0.703-1.177l0.939-0.653l1.026-0.542l1.448-0.333l1.479-0.33l1.428-0.771l0.48-0.542
		l0.531-0.617l0.294-0.965l0.165-1.277l0.157-1.248l-0.128-1.478l-0.115-0.556l-0.107-1.119l-0.122-0.998l0.157-1.374v-0.861
		l-0.215-1.073l0.072-0.843l0.15-1.119l0.007-0.778l0.345-0.527l1.076-1.116l0.474-0.603v-0.986l-0.187-0.632l-0.445-0.829
		l-0.516-1.212l-0.123-0.861l-0.05-0.674l-0.101-1.016l0.287-1.123l0.646-0.926l0.739-0.699l0.631-0.631l0.366-0.545l0.718-0.599
		l0.516-0.334l0.46-0.269l0.667-0.215l0.424-4.922l0.573-2.307l0.589-2.307l0.674-1.27l0.574-0.664l0.344-0.255l0.409-0.025
		l-0.409-1.108l-0.444-1.019l-0.444-0.481l-0.496-0.462l-1.154-0.058l0.028,0.065l-0.33,0.018l-1.42,0.122l-1.005,0.154
		l-1.191,0.014l-1.262-0.176l-0.474-0.161l-0.295-0.104l-0.172-0.459l0.229-0.383l-0.15-0.083l-0.107-0.036l-0.294-0.107
		l-0.775,0.057l-1.385,0.374l-0.674,0.133l-1.629,0.323l-0.918,0.208l-0.768-0.244l-0.237-0.14l-1.176-0.639l-1.084-0.631
		l-1.313-0.559l-1.635,0.05l-0.187,0.007l-1.715,0.524l-2.045,0.814l-1.327,0.8l-0.302,0.193l-1.413,0.947l-1.292,0.861
		l-0.458,0.248l-0.102,0.448l-0.365,0.366l-1.413,0.391l-0.388,0.104l-1.299,0.248l-1.255,0.649l-0.353,0.154l-1.212,0.871
		l-0.474,0.435l-0.431,0.384l-1.485,0.448h-0.021l-0.552-0.047l-1.083-0.835l-0.502-0.513l-0.259,0.15l-0.632,0.37l-0.545,0.66
		l-1.012,0.793l-1.068,0.523l-0.518,0.449l-1.033,0.896l-0.767,0.051l-0.381,0.021l-0.847-0.373l-0.731-0.054l-0.273-0.021
		l-0.344-0.05l-0.876-0.14l-1.248,0.219l-0.057,0.014l-0.79,0.28l-0.157,0.061l-1.277-0.456l-0.904-0.33l-0.774,0.043l-1.291,0.499
		l-0.847,0.301l-0.488,0.168l-0.947,0.021l-0.458-0.315l-0.044-0.036l-0.667-0.674l-0.401-0.133l-0.237,0.366l-0.682,0.56
		l-1.025,0.344l-1.264,0.316l-0.961,0.384l-0.761,0.402l-1.478,1.119l-1.048,0.416l-1.068,0.201l-0.753,0.592l-0.561,0.588
		l-0.51,1.116l0.151,0.635l0.315,0.506l0.416,0.545l1.378,1.306l0.51,0.61l0.781,0.968l0.711,0.789l0.603,0.47l0.681,0.52
		l0.604,0.639l0.553,0.833l0.682,1.205l0.56,0.768l0.545,0.244l1.233,0.244l0.653,0.161l0.725,0.435l0.56,0.821l0.89,0.875
		l0.76,0.162l0.733-0.18l1.197-0.438l1.126-0.154l0.33,0.456l0.797,1.341l0.682,1.119l0.703,0.75l-0.259,0.731l-0.603,0.581
		l-1.105,1.109l-0.466,0.649l-0.229,0.851l0.617,0.552l0.094,0.588l-0.668,0.373l-0.998,0.427l-1.305,0.567l-1.069,0.423
		l-0.918,0.355l-1.672,0.75l-1.076,0.233l-0.969,0.448l-1.068-0.24l-1.234,0.101l-0.675,0.441l-0.875,0.756l-0.947,0.197
		l-1.147-0.556l-1.026-0.133l-1.011,0.38l-0.761,0.341l-1.687,0.76l-0.768,0.301L90.9-41.997l-0.092,0.054l-0.625,0.431L89.28-40.54
		l-0.762,1.058l-0.566,0.388l-1.025,0.133l-0.731,0.021l-0.051,0.015l-0.86-0.036l-0.675,0.021l-0.934,0.19l-1.255,0.685
		l-1.306,0.463l-0.811,0.366l-0.603,0.23l-0.711,0.218l-1.154,0.596l-0.503,0.301l-0.811,0.61l-0.76,0.434l-0.761,0.456
		l-1.033,0.588l-1.349,0.14l-0.947,0.24l-0.811,0.176l-0.452,0.355l-0.66,0.542l-0.632,0.279l-0.889,0.374l-0.983,0.466
		l-0.538,0.283l-0.272,0.516l-0.574,0.61l-0.99,0.154l-0.997,0.162l-0.84,0.168l-0.329,0.456l-1.04-0.337l-0.797-0.187l-0.768-0.115
		l-0.366-0.7l-0.266-0.596l-0.423-0.344l-0.604-0.574l-1.011,0.413l-0.753,0.248l-0.754,0.018l-0.688,0.521l-1.284,0.47
		l-1.062,0.405l-1.162,0.133l-0.875,0.093l-0.89,0.448l-1.068,0.208l-0.911-0.18l-1.393,0.068l-0.99,0.112l-0.817,0.05l-0.977,0.154
		l-0.846,0.463l-0.661,0.344l-0.768,0.309l-0.193-0.015L40.888-27.5l-0.781-0.904l-0.99-0.236l-0.452-0.477l0.165-0.624
		l-1.334-0.352l-0.518-0.176l-0.724,0.043l-0.531,0.028L35.3-30.571l-0.79-0.097l1.363-1.249l0.632-0.441l0.157-0.75l-0.229-0.674
		L36.39-34.42l-0.028-0.369l0.058-0.66l-0.574-0.449l-1.249-0.043l-1.126-0.089l-0.933-0.133l-0.868-0.064l-0.76-0.258l-0.138-0.603
		l-0.014-0.071l-0.609-0.492l-1.076-0.208l-0.166-0.646l1.988-0.352l0.631-0.208l0.481-0.771l0.917-0.682l1.386-0.369l1.048-0.08
		h1.19l0.804-0.036l0.861-0.125l0.946-0.104l0.509-0.133l0.452-0.301l0.833-0.556l0.688-0.362v-0.57l-0.702-0.729l0.43-0.939
		l-0.531-0.804l0.036-0.8l1.385,0.015l1.19,0.029l0.797,0.039l1.162,0.162l0.617,0.064l0.969,0.029l0.86-0.136l0.459-0.413
		l1.335-0.617l0.789-0.19l1.212-0.187l0.668,0.021l0.617-0.248l0.674-0.384l1.091-0.226l1.09-0.287l0.56-0.456l-0.121-0.56
		l-0.718-0.879l-0.352-0.588l-0.416-1.016l-0.739-0.861l1.306-0.527l0.452-0.413l-0.172-0.71l-0.667-0.595l-0.783-0.337
		l-0.466-0.911l0.452-0.413l0.029-0.897l-0.33-0.66l-0.259-0.47l-0.89-0.456l-1.385,0.133L49.619-59.1l-1.671,0.222l-1.636,0.197
		l-0.94,0.19l-0.524,0.244l0.453,1.007l0.344,0.47l-0.875,0.75l-1.191-0.032l-1.047,0.294l-1.012,0.125l-0.739,0.043l-0.975,0.097
		l-1.234-0.068l-0.646-0.058l-0.661-0.162l-0.889,0.169l-1.041,0.19l-0.847-0.315l-0.703-0.66l-0.451-0.366l-1.55,0.506
		l-0.696-0.223l-0.753,0.14l-0.753-0.108l-0.783-0.007l-1.068-0.398l-0.48-0.653l-0.122-0.524l-0.316-0.505l-0.839-0.52L25.5-59.262
		l-1.303,0.624l-0.771,0.509l-0.875,0.596l-1.381,0.556l-0.991,0.061l-1.008-0.054l-0.786-0.477l-0.66-0.107l-0.692,0.079
		l-1.058,0.265l-1.682,0.865l-1.496,0.671l-0.833,0.33l-1.263-0.022l-0.839-0.222l-0.122-0.197L9.152-55.66l-0.567,0.176
		l-0.624,0.097l-1.198,0.029l-0.618-0.176l-1.241-0.061l-0.983-0.527l-0.456-0.355L2.782-56.88l-0.786-0.222l-0.559-0.094
		l-0.571-0.175l-0.624-0.183l-0.743-0.348l-0.839-0.373l-0.036-0.022l-0.456-0.333l-0.735-0.212l-0.724-0.14l-0.883-0.338
		l-0.707-0.825l-0.743-0.211l-0.764,0.083l-0.717,0.146l-0.628-0.104l-0.233-1.03l-0.449-0.61l-0.778-0.168l-0.491-0.219
		l-0.491-0.398l-0.657-0.294l-0.588,0.201l-0.872,0.66l-0.574,0.764l-0.33,0.757l-0.456,0.603l-0.678,0.807l-0.247,0.631
		l-0.714,0.083l-1.015-0.061l-0.6-0.169l-0.251-0.007l-0.631-0.029l-0.524,0.273l-1.144-0.646l-0.728-0.223l-0.646-0.111
		l-0.456-0.308l-0.764-0.998l-0.764-0.728l-1,0.021l-1.255,0.434l-0.983,0.419l-0.582,0.19l-1.123,0.021h-0.818l-1.058-0.441
		l-1.396-0.115l-0.61,0.197L-31.555-60.736"/>
</g>
<g id="Layer_1_1_">
</g>
</svg>
