<?xml version="1.0" encoding="iso-8859-1"?>
<!-- Generator: Adobe Illustrator 16.0.4, SVG Export Plug-In . SVG Version: 6.00 Build 0)  -->
<!DOCTYPE svg PUBLIC "-//W3C//DTD SVG 1.1//EN" "http://www.w3.org/Graphics/SVG/1.1/DTD/svg11.dtd">
<svg version="1.1" xmlns="http://www.w3.org/2000/svg" xmlns:xlink="http://www.w3.org/1999/xlink" x="0px" y="0px"
	 width="87.258px" height="65.741px" viewBox="0 0 87.258 65.741" style="enable-background:new 0 0 87.258 65.741;"
	 xml:space="preserve">
<g id="Layer_47">
	<g id="Layer_52">
		<path id="Tharparkar" style="fill:#CCCCCC;stroke:#FFFFFF;stroke-width:1.07;" d="
			M51.012,0.411L51.012,0.411l-0.57,0.474l-0.074,0.146l-0.096,0.174l-0.145,0.118l-0.205,0.108l-0.371,0.227L49.238,1.82
			L48.83,2.059l-0.301,0.129L48.23,2.35l-0.182,0.173l-0.168,0.207l-0.26,0.268L47.49,3.071l-0.24,0.056L46.83,3.18l-0.215,0.119
			l-0.145,0.141l-0.072,0.108l-0.037,0.151v0.099l0.023,0.13l0.035,0.108l0.012,0.119l-0.014,0.119l-0.105,0.064l-0.205,0.098
			l-0.119,0.075L45.916,4.62l-0.084,0.194l-0.049,0.238l-0.191,0.304l-0.217,0.282L45.17,5.845L45.111,5.98l0.021,0.109l0.203,0.032
			l0.648,0.045l0.25,0.001l0.168-0.109l0.133-0.063l0.084,0.001l0.096,0.031l0.119,0.056h0.084l0.275-0.173l0.301-0.314l0.203-0.075
			L47.83,5.51l0.215,0.044l0.287,0.099l0.42,0.12l0.525,0.057l0.229,0.032l0.084,0.044v0.043v0.055l-0.061,0.064l-0.18,0.142
			l-0.205,0.119l-0.203,0.063L48.713,6.51l-0.275,0.228l-0.35,0.391l-0.443,0.411l-0.48,0.399l-0.105,0.152L47.08,8.21l0.084,0.107
			l0.203,0.1l0.215,0.044l0.133-0.022l0.203-0.173l0.168-0.281l0.109-0.119l0.168-0.074h0.07l0.049,0.063l0.01,0.271l0.025,0.098
			l0.07,0.076l0.084,0.021l0.191-0.011l0.156-0.107l0.311-0.348l0.266-0.216l0.396-0.248l0.203-0.13l0.191-0.032l0.168,0.022
			l0.264,0.076l0.369,0.175l0.176,0.05l0.264,0.001l0.168-0.107l0.217-0.031l0.096,0.032l0.023,0.055l0.012,0.075l-0.012,0.065
			l-0.062,0.064l-0.131,0.086l-0.146,0.075l-0.059,0.075l-0.098,0.108v0.043l0.061,0.088l0.107,0.119l0.035,0.076v0.107
			l-0.037,0.076L51.74,8.681l-0.084,0.063l-0.205,0.131l-0.082,0.13l-0.002,0.141l0.061,0.142l0.119,0.076l0.191,0.087l0.131,0.066
			l0.047,0.075v0.142l-0.049,0.142l-0.119,0.228l-0.361,0.368l-0.324,0.281l-0.514,0.312l-0.363,0.312l-0.264,0.271l-0.084,0.163
			l-0.002,0.108l0.049,0.141l0.023,0.131l-0.098,0.086l-0.154,0.055l-0.121,0.087L49.5,12.515l0.012,0.098l0.061,0.13l0.201,0.143
			l0.191,0.076l0.191,0.012l0.443,0.001l0.059,0.022v0.043l-0.023,0.098l-0.119,0.119l-0.074,0.162l-0.035,0.13l0.061,0.12
			l0.084,0.055l0.154,0.032l0.18-0.011l0.168-0.075l0.203-0.151l0.119-0.161l0.062-0.108l0.178-0.054h0.217l0.096-0.054l0.217-0.205
			l0.145-0.185l0.096,0.001l0.096,0.054v0.087l-0.014,0.174l-0.072,0.108l0.023,0.217l0.07,0.055l0.107-0.011l0.229-0.107
			l0.25-0.054l0.084,0.033l0.012,0.087l-0.049,0.141l-0.07,0.162v0.087l0.07,0.099l0.145,0.021l0.215-0.086l0.215-0.063h0.096
			l0.133,0.087v0.119l-0.135,0.174l-0.432,0.323l-0.369,0.161l-0.289,0.185l-0.439,0.224l-0.191,0.108l-0.154,0.086l-0.133,0.063
			l-0.061,0.13l-0.049,0.163v0.218l0.096,0.075l0.119,0.087l0.131,0.022l0.096,0.011l0.168,0.1l0.107,0.055l0.189,0.011l0.166,0.012
			l0.084,0.12v0.087l-0.072,0.075l-0.166,0.118l-0.086,0.108l-0.012,0.174l0.023,0.173l0.01,0.261L52.5,17.763L52.451,18
			l0.047,0.195l0.094,0.312l0.068,0.748L52.6,19.538l-0.156,0.304l-0.336,0.453l-0.336,0.313l-0.287,0.237l-0.299,0.26l-0.287,0.205
			l-0.156,0.086l-0.25,0.011l-0.047-0.109l0.012-0.074l0.061-0.186l0.023-0.13l-0.01-0.098l-0.049-0.065l-0.227-0.064l-0.25-0.056
			l-0.133-0.021h-0.131l-0.287,0.106l-0.18,0.108l-0.084,0.075l-0.059,0.107l-0.072,0.151l-0.072,0.055l-0.096-0.001L48.656,21.2
			l-0.346-0.12l-0.275-0.055l-0.178-0.055l-0.586-0.023l-0.334,0.01l-0.143,0.056l-0.098,0.204l-0.059,0.099l-0.072,0.076h-0.096
			l-0.145-0.022h-0.119l-0.047,0.032l-0.049,0.055l-0.084,0.185l-0.059,0.119l-0.037,0.032l-0.096,0.043l-0.131-0.001l-0.119-0.021
			l-0.145-0.055l-0.119-0.021l-0.096-0.001l-0.166,0.012L45,21.812l-0.119,0.13l-0.06,0.065l-0.061,0.021l-0.131,0.021l-0.144-0.022
			l-0.239-0.076l-0.561-0.195L43.317,21.7h-0.18l-0.274,0.021l-0.44,0.13l-0.537,0.216l-0.287,0.13l-0.141,0.044l-0.118-0.021
			l-0.119-0.098l-0.107-0.186l-0.095-0.098l-0.062-0.021h-0.095l-0.239,0.142l-0.202,0.15l-0.144,0.108l-0.144,0.044l-0.441-0.022
			l-0.441-0.13l-0.632-0.305l-0.418-0.238l-0.584-0.336l-0.598-0.313l-0.68-0.305l-0.55-0.206l-0.18-0.021h-0.178l-0.107,0.054
			l-0.834,0.424l-0.87,0.479l-0.716,0.326l-0.596,0.348l-0.573,0.337l-0.62,0.271l-0.939,0.444l-0.585,0.283l-0.478,0.229
			l-0.227,0.072l-0.204,0.11l-0.521,0.046l-0.237,0.078l-0.682,0.289l-0.616,0.188L26.5,24.435l-0.002,0.101l0.123,0.103
			l0.466,0.279l0.573,0.381l0.246,0.231l0.154,0.117l0.574,0.295l0.45,0.208l0.154,0.104l0.03,0.058l-0.104,0.21l-0.08,0.084
			l-0.084,0.241l0.073,0.229l0.152,0.245l0.354,0.351l0.186,0.174l0.061,0.102l-0.096,0.099l-0.27,0.065l-0.33,0.066l-0.175,0.082
			l-0.003,0.113l0.062,0.072l-0.002,0.086l-0.08,0.1l-0.035,0.128l0.03,0.086l0.138,0.174l0.121,0.173l0.028,0.172l-0.006,0.2
			l-0.034,0.198l0.041,0.301l-0.021,0.171l-0.128,0.127l-0.489,0.162l-0.565,0.076l-0.433-0.206l-0.553-0.233l-0.453-0.329
			l-0.385-0.269l-0.351-0.271l-0.353-0.362l-0.417-0.236l-0.388-0.098l-0.19,0.124l-0.199,0.12l-0.196,0.175l-0.237,0.193
			l-0.224,0.227l-0.151,0.155l-0.163,0.217l-0.129,0.209l-0.162,0.252l-0.092,0.153l-0.064,0.2l-0.047,0.195l-0.053,0.23
			l-0.052,0.204l-0.045,0.098l-0.054,0.063l-0.015,0.02l-0.152,0.085l-0.237,0.07l-0.106,0.035l-0.077,0.049l-0.083,0.08
			l-0.101,0.13l-0.149,0.239l-0.173,0.209l-0.1,0.149l-0.249,0.246L21.04,32.88l-0.354,0.403l-0.315,0.303l-0.209,0.192
			l-0.185,0.198l-0.177,0.175l-0.176,0.189l-0.321,0.381l-0.201,0.206l-0.282,0.207l-0.275,0.146l-0.181,0.081l-0.187,0.132
			l-0.168,0.157l-0.165,0.219l-0.31,0.299l-0.195,0.211l-0.14,0.123l-0.255,0.063l-0.229-0.005l-0.312-0.014l-0.104,0.002
			l-0.15,0.054L16,36.778l-0.141,0.062l-0.104,0.019l-0.086-0.016l-0.086-0.042l-0.058-0.025l-0.077-0.051l-0.151,0.003
			l-0.048,0.001l-0.094,0.044l-0.056,0.053l-0.111,0.142l-0.111,0.131l-0.072,0.122l-0.11,0.133l-0.058,0.068l-0.083,0.123
			l-0.104,0.088l-0.141,0.078l-0.245,0.092l-0.312,0.199l-0.263,0.125l-0.172,0.213l-0.19,0.08l-1.234,0.296l-0.005,0.13
			l-0.017,0.108l-0.049,0.021l-0.05,0.054l-0.039,0.064l-0.039,0.107l-0.018,0.143l-0.054,0.142l-0.125,0.14l-0.147,0.128
			l-0.149,0.159l-0.16,0.084l-0.296,0.15l-0.413,0.131l-0.256,0.104l-0.088,0.097l-0.231,0.104l-0.485,0.161L9.03,40.769
			l-0.203-0.017L8.74,40.805l-0.05,0.063l-0.017,0.1l0.077,0.221l0.075,0.266L8.93,41.59l0.106,0.034l0.266,0.009l0.589,0.006
			l0.287,0.052l0.094,0.047l0.01,0.077l-0.04,0.098l-0.074,0.074l-0.109,0.062l-0.206,0.038l-0.218,0.049l-0.315,0.101l-0.195,0.072
			l-0.195,0.104l-0.122,0.074l-0.053,0.107l-0.063,0.07L8.542,42.77l-0.259,0.189l-0.184,0.104l-0.138,0.14l-0.176,0.226
			l-0.188,0.27l-0.214,0.279L7.34,44.162l-0.001,0.044l0.034,0.034l0.107,0.036l0.25,0.072l0.249,0.104l0.297,0.107l0.249,0.104
			l0.222,0.183l0.08,0.123l-0.015,0.076l-0.027,0.087l-0.122,0.062l-0.194,0.062l-0.173,0.148l-0.101,0.138l-0.052,0.108
			l-0.028,0.152L8.109,46l0.002,0.285l-0.023,0.373l-0.01,0.273L8.06,47.096l-0.089,0.117l-0.061,0.031l-0.049-0.002L7.78,47.196
			l-0.127-0.146l-0.091-0.18l-0.103-0.188l-0.186-0.191l-0.175-0.17l-0.118-0.069l-0.12,0.009l-0.135,0.084l-0.111,0.096
			l-0.026,0.087l-0.003,0.065l0.033,0.101l0.078,0.166l0.188,0.159l0.209,0.203l0.198,0.19l0.138,0.201l0.257,0.228l0.068,0.101
			L7.751,48.02l-0.025,0.076l-0.062,0.063l-0.062,0.074l-0.086,0.062l-0.074,0.063l-0.208,0.115L7.05,48.558l-0.098,0.062
			l-0.05,0.055l-0.002,0.055L6.893,48.74l0.188,0.107l0.146,0.132l0.116,0.072l0.142,0.153l0.047,0.133l-0.217,0.213l-0.288,0.335
			l-0.175,0.139L6.725,50.06l-0.089-0.034l-0.063-0.149l-0.025-0.138l-0.039-0.161L6.446,49.52h-0.05l-0.113,0.047l-0.339,0.267
			L5.617,50.02l-0.465,0.279l-0.201,0.186l-0.401,0.243l-0.326,0.187l-0.326,0.268l-0.162,0.127l-0.266,0.094l-0.162,0.104
			l-0.238,0.186L2.856,51.9l-0.087,0.197l-0.058,0.229l-0.124,0.276l-0.125,0.186l-0.149,0.081l-0.164,0.014l-0.15-0.045
			L1.872,52.78l-0.088,0.012l-0.051,0.069l-0.05,0.092l-0.036,0.162l0.001,0.207l-0.012,0.173l-0.073,0.242l-0.087,0.162
			l-0.112,0.127l-0.075,0.139l-0.048,0.288l-0.035,0.496L1.17,55.307l-0.049,0.229L1.06,55.641l-0.112,0.139l-0.05,0.127
			l-0.074,0.367l-0.11,0.369l-0.037,0.161l0.026,0.185l0.064,0.207l0.026,0.265l0.002,0.207l-0.024,0.15L0.67,57.933l-0.05,0.068
			l-0.073,0.348l0.117,0.527l0.293,0.574l0.269,0.436l0.178,0.312l0.04,0.145l-0.023,0.23l-0.036,0.294L1.35,60.962l0.007,0.25
			l0.376-0.207l0.213-0.104l0.043-0.021l0.105-0.012l0.205-0.021l0.521,0.125l0.533,0.152l0.281,0.139l0.493,0.239l0.351,0.103
			l0.12,0.033L4.6,61.67v0.007l0.294,0.006h0.007l0.104,0.112l1.327,0.438l0.363,0.021l0.042,0.002l0.936-0.509l0.25-0.142
			l0.027-0.017l0.168-0.014l0.143-0.012l0.289-0.146l1.013-0.348l0.124-0.021l0.021-0.075l0.01-0.029l0.027-0.018l0.116-0.07
			l0.323-0.093l0.409-0.117l0.735-0.115l0.854,0.111l1.018,0.256l0.275,0.068l0.319,0.003l0.521,0.006l0.401-0.131l0.137,0.019
			l0.217-0.093l0.311-0.081l0.157-0.04l0.396,0.004l0.433,0.004l0.206,0.029l0.074,0.011l0.188,0.073l1.055,0.271l0.186,0.021
			l0.209,0.021l0.001,0.042v0.005l0.498-0.015l0.603-0.019l1.056-0.304l0.537-0.154l0.715-0.143l0.805-0.391l0.315,0.003
			l0.142,0.001l0.646,0.546l0.3,0.253l0.19,0.302l2.05,1.717l0.113,0.097l0.025,0.02l0.206,0.159l0.253,0.302l0.492,0.299
			l0.388,0.312l0.104,0.023l0.156,0.039l0.248,0.294l0.078,0.094l0.335,0.187l0.695,0.04l0.395,0.005l0.39,0.06l0.267,0.039
			l1.169,0.084l1.271,0.091l0.19-0.002l0.203-0.002l0.926,0.045l0.04,0.002l0.322,0.045l0.048,0.007l0.14,0.02l0.145-0.059
			l1.038,0.037l0.3-0.04l0.028,0.009l0.231,0.074l0.325-0.005L38,65.183l1.1-0.015l0.544-0.033l0.342-0.021l0.026-0.002l0.03-0.003
			l0.437-0.05l0.184-0.058l0.096-0.03l0.229,0.019l0.331-0.156l0.7-0.436l0.209-0.186l0.223-0.198l0.528-0.671l0.22-0.277
			l0.459-0.813l0.153-0.337l0.497-1.097l0.136-0.339l0.117-0.291l0.372-0.241l0.395-0.116l0.641-0.188l0.27-0.105l0.689-0.131
			l0.99-0.188l0.98-0.205l0.678-0.141l0.26-0.031l0.436-0.164l0.965-0.358l1.086-0.417l0.408-0.085l0.018-0.005l0.066-0.019
			l0.701-0.205l1.004-0.143l0.322-0.048l0.062-0.007l0.469-0.054l3.711-1.394l0.068,0.003l0.203,0.006l0.346-0.081l0.359-0.084
			l0.963-0.384l0.795-0.316l0.254-0.101l0.248-0.074l0.938-0.281l0.398-0.047l0.215-0.024l0.762,0.356l0.113,0.477l-0.051,0.333
			l-0.391,0.755l-0.055,0.084l-0.102,0.154l-0.32,0.23l-0.518,0.183l0.02,0.257l0.4,0.875l0.252,0.493l0.408,0.38l-0.412,0.354
			l-0.168,0.145l-0.051,0.19l0.074,0.162l0.012,0.004l0.561,0.174l-0.195,0.264l-0.01,0.015l-0.143,0.125l-0.086,0.075l-0.205,0.372
			l-0.002,0.056l-0.008,0.184l0.059,0.199l0.025,0.086l0.418,0.341l0.217,0.09l0.168,0.07l0.842,0.034l0.469,0.161l0.354,0.121
			l0.902,0.313l0.146,0.008l1.289,0.068l1.494,0.1l0.885,0.002l0.693,0.002l1.131-0.051l0.398-0.02l0.213-0.012l0.438-0.097
			l0.02-0.01l0.705-0.315l0.145-0.066l0.141-0.107l0.047-0.036l0.004-0.005l0.184-0.205l0.049-0.028l0.262-0.152l0.217-0.062
			l0.281-0.081l0.715-0.115l0.467-0.146l0.416-0.334l-0.469-0.352l-0.842-0.188l-0.281-0.256l-0.053-0.305v-0.002l0.082-0.293
			l0.26-0.259l0.945-0.367l0.039-0.017l0.031-0.015l0.363-0.176l0.363-0.183l0.309-0.276l0.385-0.345l1.02-0.271l0.484-0.363
			l0.553-0.415l0.436,0.028l0.449,0.241l0.01,0.005l0.15,0.058l0.326,0.123l0.076-0.007l0.484-0.041l0.447-0.104l0.498-0.248
			l0.732-0.701l0.535-0.517l1.285-0.306l0.531-0.442l-0.02-0.216l-0.021-0.251l-0.229-0.274l-0.158-0.091l-0.277-0.156l-0.312-0.062
			L85.4,53.913l-0.494,0.064l-0.232,0.03l-1.072,0.006l-1.227,0.006l-0.082-0.062l-0.346-0.27l-0.152-0.047l-0.096-0.028
			l-0.061-0.104l-0.076-0.134l-0.074-0.447h-0.041l-0.146-0.57l-0.021-0.571l0.207-0.972l-0.084-0.687l-0.346-0.961l0.035-2.2
			l0.363-0.801l0.211-0.28l0.205-0.271l0.531-0.393l0.936-0.372l0.625-0.2l0.271-0.152l0.594-0.486l0.271-0.553l0.01-0.238
			l-0.156-0.228l-0.137-0.201l-0.197-0.399l-0.283-0.181l-0.428-0.543l-0.367-0.688l-0.135-0.254l-0.047-0.114l-0.361-0.875
			l-0.057-0.231l-0.037-0.148l-0.502-0.818l-0.869-1.338l-0.156-0.242l-0.416-0.533l-0.982-1.261l-0.287-0.597l-1.566-3.521
			l-0.166-0.565l-0.256-0.865l-0.252-0.854l-0.002-0.334l-0.139-0.634l-0.189-0.87l-0.201-0.98l0.01-0.307l-0.082-0.304
			l-0.244-0.915l-0.189-0.266l-0.535-0.533l-0.488-0.49l-2.527-2.379L72.1,20.011l-0.846-0.818l-0.318-1.02l-0.006-0.042
			l-0.016-0.13l-0.268-0.949l-0.029-0.104l-0.627-0.68l-0.744-0.806l-1.59-1.434l-0.043-0.218l-0.033-0.173l0.012-0.288l0.025-0.59
			l0.143-1.941l0.084-1.156l-0.252-2.048l0.012-0.776l0.004-0.386l0.021-0.867l0.006-0.296l0.293-2.289l-0.002-0.419l-0.078-0.321
			l-0.07-0.289L67.67,1.798l-0.285-0.463l-0.227-0.219l-0.188-0.181l-0.389-0.18l-0.623-0.073l-0.504,0.002l-0.307-0.051
			l-0.031-0.005l-0.053,0.014l-0.398,0.104l-1.049,0.386l-0.211,0.192l-0.021,0.019l-0.027,0.005L63.26,1.363l-0.746,0.299
			l-0.225,0.074l-0.426,0.139l-1.492-0.021l-0.264-0.018l-2.123,0.24l-0.756,0.07l-0.211,0.029l-0.139-0.104l-0.373,0.102
			l-0.059,0.016l-0.27-0.004l-0.625-0.01l-1.928-0.589l-0.812-0.299L52.283,1.15L51.43,0.927L51.1,0.629L51.012,0.411"/>
	</g>
</g>
<g id="Layer_1">
</g>
</svg>
