<?xml version="1.0" encoding="utf-8"?>
<!-- Generator: Adobe Illustrator 16.0.4, SVG Export Plug-In . SVG Version: 6.00 Build 0)  -->
<!DOCTYPE svg PUBLIC "-//W3C//DTD SVG 1.1//EN" "http://www.w3.org/Graphics/SVG/1.1/DTD/svg11.dtd">
<svg version="1.1" id="Layer_1" xmlns="http://www.w3.org/2000/svg" xmlns:xlink="http://www.w3.org/1999/xlink" x="0px" y="0px"
	 width="301.145px" height="361.354px" viewBox="-128.762 -154.626 301.145 361.354"
	 style="enable-background:new -128.762 -154.626 301.145 361.354;" xml:space="preserve">
<g id="Layer_65">
	<path id="Killa_Abdullah" style="fill:#CCCCCC;stroke:#FFFFFF;stroke-width:1.15;" d="M-123.189,199.923L-123.189,199.923
		l1.503,0.227l1.468-0.08l1.413-0.159l0.566-0.014l0.287,0.146l0.566,0.133l0.507-0.193l0.163-0.299l0.033-0.895l0.274-0.486
		l0.886-0.6l0.397-0.36l0.04-0.594l0.043-0.433l0.334-0.254l0.683-0.113l0.907-0.014l0.443-0.253l0.279-0.3l0.377-0.993l0.197-1.374
		l0.376-1.228l0.711-1.093l0.489-0.714l0.733-0.246l0.73-0.254l0.724-0.413l0.326-0.547l0.67-0.501l1.011-0.312l0.391-0.308
		l0.21-0.713l0.37-1.254l0.353-0.773l0.273-0.547l0.736-0.066l0.903-0.2l0.395-0.253l0.383-0.48l0.493-0.841l0.94-1.339l1.101-1.374
		l0.669-0.674l0.621-0.18l1.576-0.093l1.127-0.367l0.497-0.44l0.779-0.779l0.834-1.034l0.424-1.247l0.703-1.973l0.319-0.894
		l0.391-0.434l0.62-0.313l0.847-0.067l0.684,0.28l0.703,0.987l0.41,0.7l1.141,0.333l1.18-0.267l1.188-0.066l0.977,0.333l0.58,1.007
		l0.703,1.054l0.41,0.634l0.514,0.18l1.303-0.027l2.483-0.387l0.794-0.013l0.566,0.141l0.813,0.993l1.037,1.06l0.97,0.479
		l1.357-0.079l1.7-0.027l0.793-0.014l0.69,0.181l1.07,0.026l0.956-0.253l1.181-0.14l0.45-0.014l1.027,0.42l0.686,0.341l0.567-0.007
		l0.623-0.2l0.437-0.427l0.62-0.08l0.684,0.146l0.914,0.52l0.513,0.287l1.018,0.16h0.909l1.181-0.127l1.356-0.267l1.127-0.427
		l0.84-0.44l1.4-0.906l0.957-0.307l0.45-0.007l0.854,0.333l1.823,0.714l1.25,0.333l0.341-0.2l0.163-0.239l-0.007-0.487l-0.273-1
		l-0.287-0.406l-0.307-1.121l-0.177-0.74l0.157-0.64l0.273-0.646l0.606-0.974l0.157-0.406l-0.24-0.566l-0.347-0.388l-0.007-0.613
		l0.104-0.586l0.216-0.48l0.104-0.547l0.104-0.947l0.443-0.479l0.387-0.254l0.5-0.34l0.28-0.253v-0.3l-0.233-0.294l-0.866-0.64
		l-0.627-0.521l-0.24-0.479l0.273-0.48l0.443-0.594l0.67-0.619l0.841-0.533l0.449-0.207l0.397-0.054l0.97,0.407l1.707,0.62
		l0.966,0.159l1.354-0.267l0.783-0.36h0.343l0.23,0.181v0.333l0.24,0.661l0.573,0.64l0.58,0.473l1.023,0.327l0.847-0.007
		l1.021,0.046l0.399,0.141l0.521,0.521l1.087,0.467l0.854,0.18l1.584-0.08l2.946,0.14l1.36,0.161l0.514,0.239l0.613,0.667
		l1.733,2.174l1.327,1.273l0.687,0.533l1.026,0.333l1.467,0.034l1.357,0.099l0.854,0.421l0.239,0.713l0.294,0.521l0.97,0.273
		l1.537,0.427l1.084,0.393l1.543,1.008l0.637,0.34l0.681,0.047l0.396-0.061l0.833-0.847l1.243-0.439l1.357-0.08l0.903-0.308
		l0.94-0.42l0.506-0.213l0.397-0.094l0.396-0.02l0.224,0.187l0.286,0.113l0.45-0.02l0.684-0.193l0.5-0.294l0.567-0.193l1.017-0.02
		L5.1,172.46l0.684-0.294l0.554-0.213l1.797-1.16l1.72-1.854l0.49-1.232l0.097-0.947l0.39-0.433l0.724-0.774l1.16-1.514l0.54-1.674
		l-0.017-0.979l0.11-0.427l0.279-0.293l0.397-0.24l0.84-0.547l1.004-0.96l1.46-1.848l1.16-1.546l0.84-0.84l0.156-0.646l-0.399-0.234
		l-0.287-0.393l0.047-0.548l0.273-0.547l0.561-0.486l0.216-0.587l-0.006-0.547l-0.007-0.507l0.336-0.439l0.613-0.359l0.847-0.308
		l0.678-0.439l0.496-0.721l0.384-1.134l-0.063-0.433l-0.177-0.407l-0.409-0.573l-0.178-0.727l0.157-0.54l0.833-1.141l1.12-1.199
		l0.847-0.254l0.901-0.2l0.899-0.399l1.134-0.801l2-2.479l0.593-1.127l0.214-0.993l0.16-0.714l1.28-1.613l1.507-1.935l0.673-0.893
		l0.334-0.534l-0.007-0.652l-0.08-1.067l0.2-1.134l0.386-1.073l0.721-1.141l0.613-1.38l0.674-1.326l0.713-1.094l1.241-0.967
		l0.772-0.728l0.167-0.406v-0.18l-0.113-0.294l-0.24-0.42l-0.4-0.4l-0.467-0.879l-0.066-0.841l0.04-0.487l0.28-0.593l0.613-0.601
		l1.467-0.999l0.84-0.895l0.214-1.18l0.026-2.2l0.268-0.641l0.507-1.086l0.206-0.588l0.34-0.938l0.387-0.895l1.107-1.426
		l1.746-1.348l1.12-1.146l0.561-0.587l0.333-0.74l-0.014-0.44l-0.173-0.826l-0.173-0.7l-0.014-0.533l0.227-0.446l0.84-1.228
		l1.047-1.58l0.153-0.593l0.113-0.641l0.054-0.547l0.227-0.347l0.4-0.253h0.507l0.406,0.039l1.707,1.48l0.906,0.48l1.207,0.473
		l1.194,0.04l1.013-0.153l1.247-0.6l1.641-0.761l2.873-1.16l3.4-1.013l0.974-0.207l-0.227-1.927l-1.48-3.767l-1.28-3.067
		l-1.606-1.707l-1.474-1.961L61.07,74.92l-1.627-2.026l-1.8-1.96l-2.561-3.647l-2.494-3.641l-2.713-4.053l-1.554-2.428l-2.168-3.18
		l-1.565-4.047l-1.301-2.901l-2.48-4.601l-2.101-3.78l-2.193-4.047l-2.021-4.527l-1.707-3.781l-1.134-2.467l-2.02-3.78l-1.32-2.701
		l-1.16-3.307l-0.7-2.161l-0.146-1.073l0.247-2.093l0.561-2.147l1.807-2.701l3.366-4.647l2.688-3.701l3.134-3.767l3.693-4.987
		l3.613-5.387l0.821-2.42l0.953-3.301l0.406-2.767l0.254-4.787l-0.073-1.614l-0.547-1.42l-1.014-1.62l-1.093-0.674l-0.707-0.34
		l-0.707-0.473l-0.4-0.674l-0.146-0.887l0.32-1.28l0.707-0.873l1.24-1.914l0.854-0.446l2.192-0.987l2.541-0.987l1.66-0.033
		l0.993,0.373l1.347,0.74l1.121,0.753l1.253,1.507l0.8,1.14l1.008,1.04l1.246,1.041l1.773,0.733l1.234,0.087l0.767-0.007
		l1.453,0.553l1.894,1.027l2.334,0.346l1-0.199l1.533-0.874l1.2-1.547l0.88-0.867l1.534-0.974l1.787-0.12l3.087-0.42l0.659-0.487
		l0.107-0.667l-0.36-1.527l-0.573-1.233l-0.014-0.86l0.753-1.247l1.768-1.173l1.76-1.167l2.094-0.693l3.094-0.894l4.667,0.2
		l2.562,0.453l3.899,1.387l2.128,1.213l2.586,2.067l1.567,1.227l1.133,1.8l0.914,1.42l1,0.466l0.773-0.113l0.279-0.153l1.808-1.013
		l3.074-2.32l3.947-2.907l2.64-1.273l6.934-3.793l3.414-2.041l2.96-2.42l3.082-2.327l1.426-0.68l2.32-0.507l3.221-0.7l1.554-0.78
		l3.84-2.813l1.641-0.78l1.866-1.733l0.32-1.06l-0.573-0.854l-2.2-3.687l-1.147-3.32l-0.026-1.534l0.427-2.387l1.587-4.701
		l1.72-4.594l0.975-2.486l0.986-1.634l1.646-1.26l2.087-1.06l2.32-1.073l0.66-0.967l0.533-1.82l-0.446-1.994l-1.36-1.513
		l-0.56-1.334l0.2-1.72l0.4-3.061l2.159-4.407l1.661-3.713l0,0l-4.58-2.201l-5.349-1.347l-8.861-0.333l-0.406-0.134l-3.12-1.067
		l-2.347-2.914L141-127.431l-1.319-0.94l-13.815,0.586l-2.16,0.581l-4.614,2.086l-3.627,0.34l-3.387,0.313l-2.515-0.24l-1.134-0.107
		l-1.846-0.86l-2.674-0.44l-2.34-1.207l-0.294-0.14l-0.601-0.733l-0.906-1.113l-0.493-1.08l-0.588-1.287l0.561-1.187l0.28-0.593
		l4.381-2.274l2.127-1.68l1.013-3.021l-0.373-1.62l-0.666-1.454l-0.914-2.007l-2.78-1.54l-3.334-0.44l-1.147-0.146l-4.106-0.193
		l-5.308-0.247l-4.693,0.074l-2.107,0.367l-1.119,0.187l-1.674,0.24l-5.001,1.193l-9.048,2.681L54.656-139.5l-2.907,1.194
		l-6.128,4.04l-3.606,4.514l-2.414,3.694l-1.634,2.514l-0.633,0.7l-1.073,1.4l-2.573,1.707l-3.215,0.626l-1.526,0.3l-5.214,0.027
		l-7.598-0.807l-3.101,1.86l-0.566,0.927l-0.58,2.34l-0.841,3.36l-1.094,6.214l-1.616,2.847l-1.891,5.261l-2.37,3.714l-0.684,1.066
		l0.554,4.014L3.093-86.26l-0.26,0.52l-0.301,5.28l-3.57,1.727l-1.01,0.5l-0.021,0.02l-0.756,1.033l-1.257,0.761l-5.968,5.26
		l-5.844,6.047l-5.941,4.927l-4.983,4.141l-4.788,3.04l-0.06,0.034l-8.131,2.093l-4.351,0.533l-2.9,0.58l-0.24,0.047h-0.04
		l-6.584,0.6l-0.496,0.6l-10.262,1.707l-12.828,3.16l-1.497,0.653l-1.236,0.547l-0.417,0.567l-0.934,1.3l-0.744,3.414l-0.739,1.973
		l-1.037,3.614l-1.623,5.641l-2.397,8.961l-0.5,1.867l-1.153,4.054L-94.39,5.132l-2.363,9.121l-0.554,1.127l-1.036,3.727
		l-1.474,5.261l-1.308,3.507l-0.43,1.173l-4.907,17.476l-1.66,4.814l-0.56,2.16l-0.457,1.773l-2.354,7.561l0.008,1.761l0.256,0.986
		l0.2,0.76l2.737,5.429l1.577,8.08l2.116,1.947l0.854,0.307l0.443,0.16l4.534,2.127l0.02,0.04l0.344,0.567l0.127,0.227l1.464,1.319
		l1.993,1.807l-0.903,6.602l0.337,1.333l0.312,1.247l3.024,3.74l1.283,1.848l0.07,1.566l-0.051,0.14l-0.873,2.561l-3.364,5.054
		l-0.356,0.534l-0.927,2.573l-0.546,2.88l0.21,2.827l0.18,2.474l0.667,1.341l-0.144,1.366l-0.217,2.141l-0.787,5.7l-0.66,1.514
		l-0.76,1.734l-1.98,7.5l-1.097,10.389l-1.757,4.16l-1.76,2.027l-0.801,0.934l-2.417,4.506l-1.687,4.095l0.144,3.013l0.076,1.661
		l-0.363,1.954l-0.326,0.793l-0.273,0.666l-1.494,1.7l-2.99,3.401l-1.83,2.547l-0.566,0.786l-0.637,4.128l-0.164,1.093l-4.261,6.027
		L-123.189,199.923"/>
</g>
<g id="Layer_1_1_">
</g>
</svg>
