<?xml version="1.0" encoding="utf-8"?>
<!-- Generator: Adobe Illustrator 16.0.4, SVG Export Plug-In . SVG Version: 6.00 Build 0)  -->
<!DOCTYPE svg PUBLIC "-//W3C//DTD SVG 1.1//EN" "http://www.w3.org/Graphics/SVG/1.1/DTD/svg11.dtd">
<svg version="1.1" id="Layer_1" xmlns="http://www.w3.org/2000/svg" xmlns:xlink="http://www.w3.org/1999/xlink" x="0px" y="0px"
	 width="301.316px" height="199.597px" viewBox="-135.818 -89.872 301.316 199.597"
	 style="enable-background:new -135.818 -89.872 301.316 199.597;" xml:space="preserve">
<g id="Layer_78">
	<path id="Lower_Dir" style="fill:#CCCCCC;stroke:#FFFFFF;stroke-width:1.15;" d="M-23.711,90.111L-23.711,90.111h0.02l0.34,0.219
		l0.479,0.289l0.609,0.619l0.589,0.43l0.609,0.299l0.629,0.221l0.559,0.219l0.449,0.25l0.379,0.299l0.229,0.211l0.22,0.25l0.2,0.408
		l0.22,0.32l0.24,0.309l0.339,0.34l0.3,0.189l0.389,0.119l0.35,0.07l0.779-0.01l0.359-0.02l0.209-0.01l0.649,0.109l0.399,0.15
		l0.58,0.24l0.399,0.158l0.27,0.291l0.28,0.328l0.199,0.289l0.22,0.359l0.21,0.291l0.32,0.418l0.399,0.33l0.459,0.189l0.33,0.07
		l0.599,0.02l0.769,0.15l0.439,0.039l0.05,0.012h0.03l1.348,0.119l1.748,0.02l1.677,0.799l1.048,0.549l0.629,1.238l0.03,0.041
		l0.18,0.219l0,0l0.22,0.41l0.269,0.479l0.18,0.5l0.22,0.529l0.229,0.639l0.18,0.34l0.21,0.609l0.289,0.34l0.31,0.119l0.35,0.148
		l0.639,0.121l0.708,0.08l0.52-0.07l0.709-0.189l0.639-0.111l0.699-0.219l0.579-0.25l0.569-0.229l0.549-0.291l0.629-0.318
		l0.759-0.301l0.969-0.398l0.688-0.34l0.609-0.25l0.899-0.408l0.758-0.33l0.52-0.17l1.038-0.25l0.52-0.189l0.659-0.119l1.068-0.211
		l0.448-0.209l0.89-0.26l1.108-0.02l0.729-0.121l0.64-0.119l0.648-0.059l0.759-0.09l0.68-0.102l0.629-0.049l0.769-0.09l0.639-0.041
		l0.479-0.039l0.479-0.031l0.709,0.131l0.339,0.129l0.64,0.25l0.809,0.25l1.118,0.34l0.779,0.35l0.638,0.17l0,0l4.095,0.189
		l0.608-0.02l0.64-0.09l0.419-0.041l2.316,0.131l0.6-0.09h0.769l0.669-0.111l0.58-0.09l1.277-0.119l1.009-0.35l0.489-0.199
		l0.039-0.02l0.64-0.27l1.019-0.4l1.059-0.318l0.809-0.32l0.619-0.25l0.639-0.248l0.489-0.33l0.569-0.379l0.619-0.252l0.56-0.209
		l0,0l0.02-0.02l0.539-0.1h0.619l0.988,0.17l0.809,0.24l0.051,0.01h0.02l1.717,0.299l0.55,0.02h0.569l0.569,0.07l0.31,0.039
		l0.799,0.02h0.548l1.599-0.678l3.215,0.1l0,0l0.289-0.039l0.58-0.08h0.399l1.008,0.189l0.569,0.039l0.209,0.012l0.489-0.031h0.709
		l0.16,0.01h0.01l0.43,0.031l0.938,0.029l0.739-0.061l0.329-0.029l0.689,0.02l0.849,0.08l0.709,0.109l1.348,0.109l0.629,0.061
		l0.789,0.23l0.729,0.129l0.609,0.16l0.629,0.209l0.13,0.061l0.38,0.16l0.05,0.02l0.01,0.01l0.619,0.23l0.319,0.209h0.359l0.25,0.08
		l0.209-0.08l3.306,0.02l2.646-1.139l4.783-0.887l1.627-0.709l0.799-0.35l1.947-1.029l2.565-1.098l2.637-1.258l3.454-1.588
		l1.418-0.32l3.336-0.15l3.195-0.418l2.686-0.629l2.097,0.02l3.126-2.287l-0.569-0.988l-0.271-0.238l0.32-0.191l0.279-0.1l0.279-0.1
		l-0.09-0.318l-0.209-0.5l-0.779-0.969l-0.529-1.188l-0.26-0.609l1.777-0.92l2.775-0.639l1.108-1.906l2.417-2.537l-0.22-1.068l0,0
		l0.988-1.826l-1.068-1.527l0.25-1.639l1.247-2.027l0.391-1.078l0.269-0.928l0.38-1.109l0.26-1.736l0.1-0.68l-0.1-1.127l-0.101-0.93
		l-0.14-1.238l1.068-2.297l2.767-2.416l0.888-1.986l3.366-2.346l1.497-2.348l3.265-2.037l1.728-1.377l5.603-0.949l0.339-1.918
		l1.068-0.17l1.917-0.26l2.416-1.416l2.766-2.297l0.938-0.629l0.55-1.467l0.409-1.15l0.769-2.205l0.689-1.498l0.898-1.408
		l-2.047-0.969l-0.709-0.648l-1.118-1.119l-0.609-0.709l-1.008-1.238l0.029-0.988l0.209-1.527l-0.888-1.148l-0.439-0.609
		l-0.778-0.848l-0.68-1.02l-0.319-1.137l-0.469-0.73l-0.829-0.359l-0.868-0.309l-1.119-0.26l-0.918-0.32l-1.608-0.488l-1.208-0.51
		l-1.138-1.398l-0.649-0.619l-1.278-0.928l-0.629-0.68l-0.149-1.497l-0.051-0.2l-0.209-0.789l-0.769-0.739l-0.898-1.458
		l-1.498-0.649l-3.425-0.639l-1.688-1.967l-2.097,0.849l-1.059,0.25l-0.42,0.33l-1.937,2.097l-0.949,0.549l-1.637,0.569
		l-0.819,0.809l-0.549,1.048l-0.729,1.058l-1.487,0.828l-2.617,0.799l-1.288,2.227l-0.828,0.789l-1.927,0.379l-1.758,0.211
		l-1.757,0.408l-2.057,1.109h-0.011l-1.547,0.379l-1.149-0.5l-1.338-0.688l-1.208-0.17l-1.867,0.07l-2.236-0.359l-3.135-0.33
		l-2.606-0.379l-1.697-0.51l-1.817-1.059l-1.617-1.566l-0.819-0.561l-2.066-0.02l-0.609-0.25l-0.589-0.689l-1.769-2.975
		l-1.616-0.849l-1.358-0.689L77.914,4.38l-1.318-0.43l-0.569-1.627l-2.845-3.545L71.873-2.35l-2.546-1.917l-2.456-2.975l-0.479-0.21
		l-1.757,0.39l-3.824,2.746l-1.069,0.469l-3.494-3.694l-1.357-3.266l0.778-1.537L54.6-13.464l-0.649-1.508l-0.06-4.383l-1.147-1.258
		l-1.678-0.29l-1.418-0.389l-2.716-0.4l-3.955-0.539l-0.608-0.549l-0.229-0.589l-0.13-2.976l0.539-4.513l1.418-2.286l1.178-1.997
		l1.079-3.115l0.829-6.87l-0.021-1.178l0.131-2.656l-0.938-0.649l-4.344-1.328l-2.497-0.769l-1.067-1.407l-0.21-1.198l-0.17-0.15
		l-1.397-2.886l-0.32-1.827l-1.487-3.485l-0.369-1.688l-2.307-3.125l-2.656-2.247l-6.05-5.422l-1.858-1.298l-1.927-1.587
		l-2.207-1.138l-3.065-1.518l-1.568-1.498l-1.298-1.738l-0.389-0.469l-0.13-0.129l-1.927-0.799l-1.718-0.708l-2.117,0.14
		l-2.517,0.429l-6.2,4.463l-1.518,0.879l-1.438,0.149l-1.208,0.11l0,0l-1.418,0.27l-1.218,0.19l-4.293-0.42l-1.758,0.16l-0.749,0.33
		l-1.178,0.779l-2.217,0.898l-1.558,0.02l-2.106-0.07l-3.215,0.24l-1.877,1.408l-0.629,1.627l-0.859,1.637l-1.228,0.439
		l-1.907,0.549l-1.428,0.979l-1.218,0.939l-0.619,1.118l-0.33,3.964l-3.375-1.019l-6.39,0.09l-4.244-0.05l-2.186-0.869l-2.506-0.759
		l-2.826-0.509l-2.187-0.299l-3.175,0.469l-1.677,0.679l-2.447,0.17l-2.177-0.33l-1.807,0.599l-4.014,0.988l-1.118-1.098
		l-1.787-1.518l-1.787-0.879l-8.297-0.758l-2.586-0.609l-2.356-1.678l-0.869-1.488l-1.558-2.396l-3.005-0.119l-1.797-0.34
		l-2.406-0.459l-2.446-0.389l-4.384-1.048l-2.366-0.809l-2.096-0.47l-1.478-0.26l-2.487-0.25l1.398,2.966l0.559,1.038l2.766,5.742
		l3.345,3.425l0.629,0.659l-1.627,3.745l-0.07,0.07l-7.309,2.766l-7.339,3.564l-1.128,1.768l-2.007,3.135l0.12,4.543l1.558,0.17
		l1.468,1.388l1.148,1.288l1.019,1.108l1.957,1.518l0.789,1.039l3.734,2.626l1.348,1.128l2.766,1.507l1.698,1.498l1.937,1.877
		l0.709,1.328l1.128,1.688l0.38,1.318l0.729,2.437l0.958,1.308l1.318,1.507l2.257,1.697l1.318,1.129l1.927,2.256l0.949,0.939
		l1.128,1.688l1.079,2.636l2.795,4.972l0.21,2.107l1.248,2.027l1.088,1.927l0.41,1.737l0.628,2.506l0.989,2.007l0.768,1.468
		l0.639,1.338l0.36,1.378l0.25,1.257l0.179,1.729l-0.209,1.707l0.32,2.107l-0.041,1.887l0.3,1.328l1.069,2.016l2.955,2.158
		l1.438,0.799l1.168,0.318l2.686-0.908l1.598-0.609l0.439,0.02l1.617,0.109l3.615,0.48l4.434,0.76l4.473,0.1l6.57,0.639l2.437,0.857
		l1.498,0.729l1.388,2.787l2.916,1.297l4.164,0.08l2.936-0.539l3.345-0.18l0.999,0.439l1.498,1.969l4.063,1.477l6.32,1.469
		l1.048,2.176l1.927,2.516l2.966,2.836l1.917,1.289l1.598-0.17l1.199-0.568l1.018-0.541l1.308-0.648l0.12,1.488l0.08,1.309
		l0.339,0.547l3.185,0.111l0.869,0.18l0.699,1.188l-0.988,0.869l-1.638,1.338l-1.218,0.779l-1.059,0.068l-1.058-0.209l-1.059-0.26
		l-1.048-0.988l-0.919-0.928h-1.068l-0.579,1.059l0.469,2.176l-0.639,1.568l-1.877,0.479l-0.719,1.219l-0.429,1.188l-0.449,0.4
		l-0.2,0.668l-0.399,0.93l-0.859-0.279l-0.639-0.77l-0.798-0.73l-1.099,0.211l-1.248,0.988l-1.228,0.67l0.22,1.068l-0.2,1.287
		l0.27,0.998l0.129,1.26l-0.888,1.178l0.33,1.248l0.628,0.389l1.189-0.17l0.659-0.139l0.519,1.746l0.929,0.23l0.629,0.289
		l-1.717,1.977l-0.25,0.619l0.28,2.605l0.389,0.52l0.31,0.541l0.969,0.279l0.779,0.729l-0.789,0.908l-0.579,2.766l-0.759,0.859
		l-0.23,1.139l0.52,0.629l0.829,0.709l0.519,0.879l-0.219,2.387l-1.848,0.877l0.22,1.459l-0.869,1.938L-23.711,90.111"/>
</g>
<g id="Layer_1_1_">
</g>
</svg>
