<?xml version="1.0" encoding="utf-8"?>
<!-- Generator: Adobe Illustrator 16.0.4, SVG Export Plug-In . SVG Version: 6.00 Build 0)  -->
<!DOCTYPE svg PUBLIC "-//W3C//DTD SVG 1.1//EN" "http://www.w3.org/Graphics/SVG/1.1/DTD/svg11.dtd">
<svg version="1.1" id="Layer_1" xmlns="http://www.w3.org/2000/svg" xmlns:xlink="http://www.w3.org/1999/xlink" x="0px" y="0px"
	 width="301.74px" height="241.464px" viewBox="-144.962 -116.012 301.74 241.464"
	 style="enable-background:new -144.962 -116.012 301.74 241.464;" xml:space="preserve">
<g id="Layer_129">
	<path id="Peshawar_1_" style="fill:#CCCCCC;stroke:#FFFFFF;stroke-width:1.15;" d="M93.569,73.344L93.569,73.344v-0.506
		l-0.337-2.811l-0.112-1.096l2.332-6.186l4.722-4.271l6.324-4.947l4.048-3.963l4.104-3.908l3.485-2.922l1.434-2.361l3.739-3.598
		l2.922-4.047l3.991-3.598l5.397-3.289l5.424-3.936l4.132-3.26l2.361-2.84l2.474-2.922l0.899-1.49h-1.657l-0.872-1.518l-0.899-1.799
		l-1.124-2.952l-0.844-3.71l-0.675-2.333l-1.799-2.249l-1.855-3.063l-1.405-4.806l-2.023-4.02l-1.771-3.007l-2.671-3.879
		l-2.697-3.148l-1.8-1.518l-1.742-1.321l-0.309-0.169l-3.008-0.59l-4.413,0.084l-4.47,0.028l-4.665-0.759l-6.128-1.125
		l-11.103-0.056l-5.649,0.084l-7.195,1.04l-4.919,0.534l-4.694-0.73L66.782-32.2l-5.003-3.007l-2.417-1.096L56.945-37.4
		l-2.952-2.474l-5.396-2.501l-2.755-2.136l1.602-3.766l1.939-1.855v-1.715l-3.008-0.928l-3.71-1.855l-4.02-2.333l-5.171-2.22
		l-4.723-3.064l-4.385-3.401l-2.909-3.063l-1.56-1.714l-1.265-1.349l-1.21-36.09l1.785-1.125l1.532-1.405l-0.126-0.056l-2.361-0.871
		l-2.094,1.743l-0.226,1.687l-0.323,1.855l-0.52,1.152l-1.841,2.446l-6.366,4.806l-0.661,1.743l-0.45,1.237l-3.316,9.95
		l-4.203,3.935l-3.513,4.301l-0.141,1.574l-7.603,8.432l-3.302,2.67l-2.081,3.063l-1.63,2.333l-2.544,3.851l-1.757,3.205
		l-0.084,3.176l1.785,7.561l0.689,3.007l-0.83,1.714l-1.813-0.028l-2.22-0.449l-4.511,0.14l-2.656,0.281l-4.076,3.345l-3.317,1.518
		l-3.105,1.714l-8.208,4.216l-2.53,1.321l-2.938,1.461l-3.218,1.939l-3.022,1.912l-1.785,1.405l-4.329,3.401l-13.408,6.24
		l-5.874,2.418l-3.274,1.574l-7.772,4.16l-7.575,4.723l-9.528,4.805l-6.928,3.373l-8.151,5.004l-6.1,3.57l7.055,9.248L-123,42.538
		l14.616,8.012l48.359,24.621l41.065,19.816l20.153,9.389l26.856,7.615l30.553,7.309l11.918,1.463l-2.36-1.828l-2.783-3.064
		l-3.12-3.822l-2.023-2.389l-5.341-5.115l-1.573-2.137l-1.236-1.996l-0.676-2.473l2.053-4.328l2.192-2.305l2.95-2.361l4.104-0.787
		l4.161-1.631l5.762-4.385l3.008-1.574l3.71-1.518l4.946-1.209l4.104-1.377l2.699-2.164l0.927-1.434L93.569,73.344"/>
</g>
<g id="Layer_1_1_">
</g>
</svg>
