<?xml version="1.0" encoding="iso-8859-1"?>
<!-- Generator: Adobe Illustrator 16.0.4, SVG Export Plug-In . SVG Version: 6.00 Build 0)  -->
<!DOCTYPE svg PUBLIC "-//W3C//DTD SVG 1.1//EN" "http://www.w3.org/Graphics/SVG/1.1/DTD/svg11.dtd">
<svg version="1.1" xmlns="http://www.w3.org/2000/svg" xmlns:xlink="http://www.w3.org/1999/xlink" x="0px" y="0px" width="49.35px"
	 height="36.93px" viewBox="0 0 49.35 36.93" style="enable-background:new 0 0 49.35 36.93;" xml:space="preserve">
<g id="Layer_136">
	<g id="Layer_141">
		<path id="Jhelum" style="fill:#CCCCCC;stroke:#FFFFFF;stroke-width:1.07;" d="
			M48.858,10.795L48.858,10.795l-0.02,0.002l-0.148-0.083l-0.531-0.297l-0.438-0.173l-0.015-0.003l-0.19-0.043L47.12,9.582
			l-0.241-0.375L46.76,9.124l-0.228-0.159l-1.743-0.631l-0.521-0.188l-1.614-0.346l-0.576-0.208l-0.167-0.097l-0.445-0.26
			l-0.077-0.22l-0.085-0.242l0.06-0.28l0.021-0.101l0.012-0.542l0.144-0.22l0.07-0.108l0.223-0.102l0.02-0.009l0.008-0.004
			l0.25-0.129l0.722-0.31l0.198-0.234l0.109-0.128l0.037-0.955l0.017-0.44l-0.056-0.47l-0.062-0.517l-0.083-0.036l-0.108-0.046
			l-0.093-0.04l-0.096-0.072l-0.161-0.124l-0.193,0.016l-0.012,0.001l-0.232,0.19L42.001,2.19l-0.047-0.127l0.112-0.547
			l-0.604-0.254L41.255,1.03l0.013-0.418L40.977,0.65l-0.028,0.011l-0.045,0.012l-0.069,0.008l-0.057,0.005l-0.049,0.035
			l-0.016,0.061l-0.021,0.003l-0.046,0.009l-0.041,0.008l-0.038,0.006l-0.035,0.006l-0.032,0.004l-0.03,0.003L40.44,0.822
			l-0.028,0.001h-0.024h-0.025L40.34,0.822h-0.023h-0.021h-0.021h-0.021l-0.02,0.002l-0.017,0.002L40.201,0.83l-0.014,0.004
			l-0.015,0.005l-0.011,0.006l-0.009,0.007l-0.008,0.008L40.14,0.869l-0.004,0.009l-0.004,0.01l-0.005,0.011L40.124,0.91L40.12,0.92
			l-0.005,0.012l-0.006,0.012l-0.007,0.012l-0.008,0.012l-0.01,0.012l-0.01,0.012l-0.011,0.012l-0.011,0.012l-0.013,0.012
			L40.03,1.041l-0.012,0.012l-0.012,0.011l-0.011,0.012l-0.011,0.013l-0.01,0.012l-0.008,0.014l-0.009,0.014l-0.006,0.015
			L39.948,1.16l-0.004,0.016l-0.003,0.017l-0.002,0.017l-0.001,0.018l-0.001,0.018l0.001,0.019l0.001,0.019l0.001,0.019l0.001,0.02
			l0.003,0.019l0.003,0.019l0.002,0.019l0.004,0.019l0.004,0.018l0.003,0.017l0.003,0.016l0.005,0.017l0.003,0.015l0.003,0.015
			l0.001,0.014v0.014l-0.001,0.012l-0.002,0.013l-0.004,0.011l-0.006,0.011l-0.006,0.01L39.949,1.59l-0.008,0.008l-0.008,0.007
			l-0.009,0.006l-0.01,0.005l-0.01,0.004l-0.01,0.003l-0.01,0.002l-0.012,0.001h-0.011h-0.011h-0.011l-0.013-0.002l-0.011-0.002
			l-0.013-0.002l-0.013-0.004l-0.012-0.004l-0.014-0.004l-0.014-0.005L39.74,1.599l-0.015-0.006L39.71,1.586l-0.015-0.006
			l-0.014-0.006l-0.015-0.006l-0.013-0.006l-0.011-0.005l-0.01-0.006l-0.009-0.005l-0.007-0.004l-0.006-0.004l-0.006-0.004
			L39.602,1.53l-0.006-0.003l-0.009-0.004L39.579,1.52l-0.012-0.004l-0.012-0.005l-0.015-0.005L39.527,1.5l-0.016-0.005L39.496,1.49
			l-0.014-0.004l-0.014-0.003L39.455,1.48l-0.013-0.002l-0.012-0.001h-0.012h-0.012l-0.012,0.001L39.384,1.48L39.37,1.483
			l-0.014,0.004l-0.015,0.004l-0.017,0.006L39.31,1.502l-0.017,0.005l-0.016,0.004l-0.016,0.003l-0.016,0.003h-0.014H39.22
			l-0.013-0.001l-0.012-0.003l-0.012-0.004l-0.013-0.005l-0.01-0.006L39.149,1.49l-0.011-0.008l-0.013-0.009l-0.012-0.01
			l-0.013-0.009l-0.014-0.009l-0.014-0.008L39.06,1.431l-0.016-0.005l-0.017-0.003l-0.019-0.001l-0.018,0.001l-0.018,0.002
			l-0.019,0.003l-0.019,0.004l-0.019,0.005l-0.017,0.005l0.013-0.003l-0.017,0.005l-0.017,0.006l-0.015,0.005L38.85,1.459
			l-0.017,0.006l-0.018,0.005l-0.019,0.004l-0.02,0.004l-0.021,0.003l-0.021,0.002l-0.021,0.002h-0.021h-0.021l-0.021-0.002
			l-0.02-0.003l-0.019-0.005l-0.017-0.005l-0.016-0.006l-0.016-0.006l-0.013-0.006l-0.013-0.005l-0.013-0.004l-0.011-0.002h-0.01
			l-0.009,0.002l-0.011,0.004L38.48,1.454l-0.006,0.008l-0.007,0.01l-0.006,0.013l-0.005,0.014l-0.004,0.017l-0.005,0.018
			l-0.002,0.019l-0.002,0.02v0.02v0.019l0.002,0.019l0.004,0.017l0.006,0.016l0.007,0.014l0.007,0.012l0.009,0.012l0.009,0.011
			l0.012,0.01l0.01,0.01l0.01,0.011l0.01,0.011l0.012,0.011l0.009,0.012l0.009,0.012l0.007,0.012l0.006,0.012l0.004,0.013
			l0.003,0.012v0.012l-0.004,0.013l-0.005,0.012l-0.007,0.011l-0.008,0.012l-0.009,0.011l-0.011,0.01l-0.011,0.009l-0.012,0.008
			l-0.013,0.008l-0.013,0.007l-0.014,0.008l-0.014,0.008l-0.015,0.009l-0.016,0.01l-0.016,0.012l-0.017,0.013l-0.016,0.015
			l-0.018,0.017l-0.015,0.019l-0.015,0.021L38.32,2.105l-0.012,0.024L38.3,2.155l-0.006,0.028l-0.005,0.029l-0.002,0.031
			l-0.001,0.033V2.31v0.035l0.001,0.036v0.037v0.038v0.038l-0.003,0.039L38.282,2.57l-0.004,0.038l-0.006,0.036l-0.008,0.035
			l-0.008,0.032l-0.012,0.03l-0.014,0.027l-0.015,0.024L38.2,2.814l-0.017,0.019L38.166,2.85l-0.02,0.013l-0.02,0.01l-0.021,0.007
			l-0.02,0.004l-0.021,0.001l-0.02-0.002l-0.019-0.004l-0.018-0.007l-0.017-0.009l-0.016-0.012l-0.013-0.014L37.953,2.82
			l-0.011-0.018l-0.01-0.019l-0.009-0.02l-0.009-0.021l-0.009-0.02l-0.009-0.021l-0.009-0.02l-0.01-0.021L37.87,2.643l-0.009-0.019
			l-0.009-0.019l-0.007-0.018l-0.007-0.019l-0.004-0.019l-0.004-0.019l-0.003-0.02l-0.001-0.02V2.468l0.001-0.021l0.003-0.022
			l0.002-0.024l0.003-0.025l0.003-0.026l0.004-0.027l0.004-0.028l0.003-0.029l0.003-0.029l0.002-0.03l0.002-0.03v-0.03l-0.002-0.029
			L37.853,2.09l-0.004-0.028l-0.005-0.026L37.838,2.01l-0.009-0.024L37.82,1.963L37.81,1.942l-0.012-0.02l-0.014-0.019l-0.014-0.017
			L37.756,1.87l-0.017-0.014l-0.017-0.013l-0.019-0.013l-0.017-0.012l-0.019-0.011L37.65,1.796l-0.018-0.011l-0.019-0.011
			l-0.018-0.012l-0.018-0.014l-0.016-0.015l-0.015-0.017l-0.015-0.018l-0.012-0.02l-0.011-0.021l-0.01-0.022l-0.01-0.022
			l-0.008-0.021l-0.007-0.021l-0.007-0.019l-0.005-0.017L37.461,1.52l-0.006-0.015L37.451,1.49l-0.004-0.015L37.442,1.46
			l-0.004-0.017l-0.005-0.019l-0.005-0.021L37.423,1.38l-0.007-0.024L37.41,1.331l-0.006-0.027l-0.007-0.027L37.391,1.25
			l-0.006-0.026L37.38,1.199l-0.007-0.024l-0.005-0.022l-0.006-0.021l-0.008-0.02l-0.007-0.018l-0.009-0.017l-0.011-0.015
			l-0.013-0.013l-0.013-0.012l-0.016-0.008l-0.016-0.007l-0.016-0.006l-0.018-0.003l-0.017-0.001h-0.018l-0.016,0.002l-0.016,0.004
			l-0.017,0.005l-0.014,0.006l-0.014,0.007l-0.014,0.008l-0.012,0.008l-0.011,0.009l-0.01,0.009L37.075,1.08l-0.007,0.01
			l-0.006,0.012l-0.005,0.014l-0.004,0.016l-0.003,0.02l-0.003,0.023l-0.003,0.027l-0.003,0.03v0.032L37.04,1.297l-0.002,0.034
			l-0.002,0.034l-0.002,0.032l-0.002,0.03L37.03,1.454l-0.004,0.024L37.021,1.5l-0.005,0.019l-0.008,0.017l-0.01,0.014l-0.011,0.013
			l-0.012,0.011l-0.015,0.009L36.944,1.59l-0.019,0.007l-0.021,0.006l-0.021,0.006l-0.023,0.005l-0.026,0.005l-0.025,0.006
			l-0.028,0.006l-0.028,0.007l-0.029,0.008L36.69,1.654l-0.03,0.009l-0.03,0.009L36.6,1.681l-0.029,0.01l-0.029,0.01l-0.028,0.01
			l-0.029,0.01l-0.029,0.01l-0.028,0.01l-0.03,0.009l-0.031,0.009l-0.032,0.008l-0.034,0.007l-0.035,0.007l-0.036,0.006L36.19,1.792
			l-0.037,0.004l-0.035,0.002l-0.035,0.001l-0.032-0.001l-0.032-0.001l-0.03-0.003L35.959,1.79l-0.026-0.005L35.904,1.78
			l-0.026-0.006l-0.027-0.006l-0.027-0.007l-0.027-0.007l-0.029-0.007L35.737,1.74l-0.029-0.007L35.68,1.728l-0.03-0.006
			L35.62,1.716l-0.027-0.004l-0.027-0.003l-0.027-0.003l-0.026-0.001l-0.025-0.001h-0.025h-0.026h-0.025h-0.024l-0.027,0.001
			l-0.025,0.001h-0.024l-0.026,0.002L35.257,1.71l-0.024,0.002l-0.024,0.003l-0.022,0.004l-0.022,0.004l-0.021,0.006L35.12,1.736
			l-0.02,0.008L35.08,1.755l-0.019,0.012l-0.018,0.015l-0.018,0.017L35.01,1.82l-0.016,0.022l-0.016,0.023l-0.017,0.024
			l-0.015,0.024l-0.015,0.022l-0.016,0.021l-0.016,0.019l-0.017,0.016l-0.017,0.013l-0.017,0.011l-0.018,0.008l-0.017,0.006
			l-0.016,0.003l-0.016,0.002l-0.015,0.001h-0.015l-0.014-0.001L34.73,2.033l-0.013-0.002l-0.014-0.003L34.69,2.025l-0.014-0.003
			L34.659,2.02l-0.017-0.002l-0.02-0.002l-0.019-0.002l-0.021-0.002l-0.02-0.002l-0.02-0.003l-0.019-0.003l0.023-0.006l-0.018-0.005
			l-0.016-0.005l-0.014-0.007l-0.011-0.007l-0.013-0.008l-0.009-0.009l-0.007-0.011l-0.005-0.011l-0.004-0.013L34.454,1.91V1.896
			l0.001-0.014l0.003-0.014l0.003-0.014l0.005-0.012l0.006-0.012l0.007-0.01l0.007-0.01l0.009-0.009l0.01-0.008l0.011-0.007
			l0.013-0.007l0.015-0.006l0.016-0.007l0.018-0.007l0.019-0.007l0.021-0.007l0.019-0.008l0.019-0.008l0.019-0.008l0.015-0.008
			l0.014-0.009l0.01-0.009l0.007-0.01l0.005-0.01l0.003-0.01l0.002-0.01l0.001-0.01v-0.01l0.001-0.009l0.001-0.008l0.001-0.008
			l0.001-0.007V1.597l-0.002-0.008l-0.003-0.007L34.72,1.573l-0.009-0.008L34.7,1.557l-0.015-0.008l-0.016-0.01l-0.019-0.01
			l-0.02-0.011l-0.021-0.012l-0.021-0.012L34.57,1.48L34.55,1.465l-0.019-0.014l-0.02-0.016l-0.017-0.016l-0.017-0.016l-0.016-0.017
			L34.45,1.369l-0.013-0.018l-0.01-0.018l-0.009-0.019l-0.006-0.019L34.41,1.275l-0.001-0.019l0.003-0.019l0.005-0.019l0.01-0.018
			l0.013-0.018l0.018-0.017l0.019-0.017l0.021-0.016l0.021-0.015l0.022-0.014l0.021-0.013l0.021-0.012l0.019-0.01l0.018-0.01
			l0.015-0.009l0.013-0.008l0.013-0.008l0.01-0.008l0.008-0.008l0.006-0.009l0.004-0.01l0.003-0.01l0.001-0.011V0.965l-0.001-0.013
			L34.686,0.94l-0.004-0.013l-0.006-0.014L34.67,0.899l-0.008-0.014l-0.009-0.014l-0.012-0.015l-0.013-0.014L34.614,0.83
			l-0.018-0.013l-0.019-0.013l-0.021-0.011l-0.022-0.011l-0.025-0.01l-0.025-0.009l-0.028-0.008l-0.028-0.007l-0.03-0.007
			l-0.029-0.005l-0.03-0.005l-0.03-0.004l-0.031-0.002l-0.028-0.002l-0.029-0.001h-0.029l-0.027,0.001l-0.027,0.002l-0.026,0.003
			l-0.024,0.004L34.06,0.735l-0.022,0.006l-0.023,0.007l-0.021,0.008l-0.021,0.008l-0.021,0.01l-0.021,0.011l-0.02,0.012
			l-0.02,0.012l-0.017,0.013l-0.018,0.013l-0.016,0.013l-0.014,0.014l-0.014,0.012l-0.012,0.012l-0.01,0.011l-0.009,0.011
			l-0.01,0.011l-0.006,0.011l-0.006,0.01l-0.006,0.01l-0.006,0.011l-0.006,0.01L33.74,0.982l-0.005,0.011L33.73,1.004l-0.004,0.011
			l-0.004,0.012L33.72,1.04l-0.002,0.012l-0.002,0.012l-0.002,0.013l-0.001,0.012l-0.002,0.012l-0.002,0.012l-0.002,0.011
			l-0.003,0.011L33.7,1.144l-0.005,0.008L33.69,1.158l-0.006,0.006l-0.006,0.004l-0.007,0.004l-0.007,0.003l-0.006,0.001
			l-0.008,0.001h-0.007h-0.007l-0.005-0.001l-0.007-0.002L33.62,1.172l-0.005-0.003L33.61,1.167l-0.004-0.004l-0.003-0.005
			l-0.003-0.005l-0.002-0.005l-0.003-0.006l-0.003-0.006l-0.002-0.007L33.59,1.121l-0.003-0.007l-0.002-0.008l-0.002-0.007
			l-0.005-0.008l-0.002-0.007l-0.004-0.007L33.568,1.07l-0.004-0.006L33.559,1.06l-0.005-0.004l-0.007-0.002l-0.008-0.001H33.53
			l-0.01,0.001L33.51,1.055l-0.015,0.003l-0.016,0.005l-0.017,0.006l-0.021,0.007l-0.021,0.009l-0.023,0.009l-0.024,0.01
			l-0.025,0.011l-0.027,0.011l-0.029,0.011l-0.028,0.011l-0.03,0.011L33.202,1.17l-0.031,0.011l-0.033,0.012l-0.033,0.012
			l-0.035,0.012l-0.035,0.012l-0.035,0.013l-0.036,0.012l-0.036,0.013l-0.036,0.012l-0.035,0.011L32.822,1.3L32.789,1.31
			l-0.028,0.007l-0.027,0.005l-0.025,0.004l-0.022,0.003l-0.021,0.001L32.646,1.33l-0.015,0.002l-0.014,0.002l-0.01,0.003
			l-0.008,0.004l-0.005,0.006l-0.004,0.007L32.59,1.363l-0.001,0.012L32.588,1.39l-0.003,0.018l-0.002,0.021l-0.004,0.024
			l-0.004,0.028L32.57,1.51l-0.005,0.03L32.56,1.57L32.556,1.6l-0.005,0.027l-0.003,0.025l0.002,0.027l-0.001,0.019v0.017
			l-0.001,0.015v0.013l-0.002,0.013l-0.003,0.012l-0.004,0.012l-0.006,0.013l-0.009,0.013l-0.01,0.014l-0.011,0.014l-0.011,0.013
			L32.481,1.86L32.47,1.875l-0.011,0.012l-0.01,0.012l-0.01,0.011L32.43,1.92l-0.007,0.011l-0.006,0.011l-0.005,0.011l-0.004,0.012
			l-0.002,0.011l-0.003,0.013l0.002,0.012l0.002,0.014l0.002,0.015l0.003,0.016l0.003,0.017l0.003,0.018l0.003,0.02l0.002,0.021
			l0.003,0.022l0.002,0.023l0.001,0.024l0.001,0.022l0.001,0.022l0.001,0.021v0.019v0.017L32.43,2.308V2.32v0.012l-0.001,0.011
			v0.011l0.001,0.011v0.011l0.002,0.011l0.003,0.012l0.002,0.013l0.003,0.012l0.001,0.013l0.001,0.013l0.001,0.012l-0.001,0.012
			l-0.002,0.012l-0.004,0.011l-0.004,0.011L32.427,2.52L32.422,2.53l-0.004,0.011l-0.005,0.011L32.41,2.564l-0.002,0.012
			l-0.001,0.013l0.001,0.013l0.001,0.013l0.002,0.014l0.002,0.014l0.004,0.015l0.003,0.016l0.003,0.016l0.002,0.016l0.003,0.017
			l0.001,0.017l0.001,0.017l-0.001,0.017l-0.002,0.017l-0.004,0.017l-0.007,0.017l-0.007,0.016L32.4,2.857l-0.01,0.015L32.38,2.888
			L32.367,2.9l-0.013,0.012l-0.014,0.01l-0.015,0.009l-0.015,0.008l-0.014,0.007L32.28,2.952l-0.018,0.005l-0.02,0.005l-0.021,0.004
			L32.201,2.97l-0.023,0.004l-0.025,0.004l-0.024,0.005l-0.027,0.005l-0.026,0.005l-0.025,0.006l-0.024,0.006l-0.021,0.007
			l-0.021,0.007l-0.019,0.007l-0.018,0.008l-0.015,0.008L31.917,3.05L31.902,3.06l-0.013,0.01l-0.013,0.01l-0.014,0.01l-0.013,0.011
			l-0.013,0.011l-0.014,0.012l-0.012,0.012l-0.012,0.012l-0.013,0.013l-0.01,0.015l-0.01,0.014l-0.008,0.015L31.75,3.221
			l-0.008,0.015L31.733,3.25l-0.009,0.015l-0.01,0.014l-0.013,0.013l-0.013,0.011l-0.015,0.009l-0.017,0.009l-0.018,0.007
			L31.62,3.334L31.6,3.34l-0.023,0.004l-0.024,0.003l-0.028,0.003l-0.029,0.001l-0.03,0.001h-0.029h-0.03h-0.029l-0.026-0.001
			l-0.024-0.001L31.303,3.35l-0.021-0.002l-0.019-0.003l-0.018-0.003L31.23,3.336l-0.017-0.006l-0.016-0.008l-0.017-0.01L31.163,3.3
			l-0.019-0.014l-0.021-0.016l-0.02-0.017l-0.021-0.019l-0.02-0.021l-0.02-0.022l-0.019-0.023l-0.018-0.025l-0.017-0.026
			l-0.015-0.026l-0.015-0.025l-0.014-0.025l-0.013-0.024l-0.013-0.022l-0.012-0.02l-0.01-0.017l-0.011-0.014L30.88,2.934
			l-0.01-0.009l-0.011-0.006l-0.011-0.003l-0.013-0.002h-0.012l-0.014,0.002l-0.015,0.004l-0.015,0.005l-0.015,0.007l-0.018,0.008
			l-0.016,0.009l-0.019,0.01L30.698,2.97l-0.018,0.012l-0.018,0.012l-0.017,0.013L30.63,3.021l-0.015,0.016l-0.013,0.017
			L30.59,3.073l-0.008,0.021l-0.007,0.023l-0.004,0.024l-0.002,0.026v0.026l0.003,0.027l0.003,0.026l0.005,0.027l0.006,0.026
			l0.007,0.025l0.008,0.024l0.009,0.022l0.009,0.021l0.007,0.02l0.009,0.019l0.007,0.018l0.008,0.016l0.005,0.014l0.004,0.013
			l0.002,0.011l0.001,0.01l-0.002,0.009l-0.003,0.007l-0.006,0.006L30.641,3.54L30.63,3.544l-0.014,0.003L30.601,3.55l-0.017,0.003
			l-0.017,0.003L30.55,3.56l-0.017,0.003l-0.017,0.003L30.502,3.57l-0.013,0.005l-0.013,0.007L30.466,3.59L30.456,3.6l-0.01,0.011
			l-0.011,0.012l-0.009,0.015l-0.009,0.017l-0.009,0.018L30.4,3.691l-0.009,0.02l-0.008,0.02l-0.006,0.02l-0.006,0.019l-0.004,0.018
			l-0.004,0.016l-0.002,0.014l-0.001,0.013v0.012v0.011l0.001,0.01l0.001,0.009l0.001,0.009l0.002,0.009l0.002,0.008l0.002,0.008
			l0.002,0.009l0.002,0.009l0.003,0.01l0.003,0.01l0.004,0.011l0.006,0.012l0.004,0.013L30.4,3.995l0.006,0.013l0.006,0.014
			l0.005,0.013l0.005,0.013l0.004,0.012l0.003,0.012l0.003,0.011l0.002,0.011l0.001,0.01l0.002,0.011l0.002,0.011l0.002,0.012
			l0.002,0.013l0.002,0.014l0.003,0.015l0.004,0.014l0.003,0.015l0.005,0.015l0.005,0.015l0.006,0.014l0.005,0.013l0.007,0.011
			l0.007,0.01l0.007,0.009l0.007,0.007l0.007,0.005l0.01,0.004l0.008,0.002l0.008,0.001h0.008l0.009-0.001l0.009-0.002l0.009-0.003
			l0.01-0.004L30.587,4.3l0.01-0.006l0.011-0.006l0.009-0.006l0.011-0.006l0.011-0.005l0.012-0.004l0.011-0.002h0.012l0.014,0.002
			L30.7,4.272l0.015,0.009l0.015,0.013l0.017,0.015l0.016,0.017l0.017,0.018l0.016,0.017l0.014,0.018l0.015,0.017l0.013,0.015
			l0.012,0.013l0.011,0.012l0.011,0.012l0.008,0.01l0.008,0.01l0.007,0.009l0.005,0.008l0.006,0.009l0.005,0.009l0.002,0.009
			l0.003,0.009l0.001,0.009l0.002,0.009v0.01v0.01v0.01v0.011l-0.002,0.011v0.011l-0.001,0.011L30.91,4.625v0.012V4.65v0.013v0.012
			l0.001,0.013l0.003,0.013l0.002,0.011l0.004,0.012l0.005,0.01l0.006,0.009l0.008,0.008l0.009,0.008l0.01,0.007l0.01,0.006
			l0.011,0.007l0.013,0.007l0.013,0.008l0.013,0.01l0.014,0.011l0.013,0.014l0.014,0.015l0.017,0.017l0.017,0.019l0.02,0.021
			l0.021,0.023l0.023,0.026l0.025,0.028l0.029,0.03l0.03,0.032l0.032,0.033l0.033,0.033l0.035,0.033l0.035,0.032l0.034,0.031
			l0.033,0.029l0.033,0.027l0.032,0.025l0.029,0.023l0.026,0.021l0.023,0.02l0.021,0.019l0.017,0.017l0.012,0.015l0.008,0.014
			l0.004,0.012v0.012l-0.003,0.011l-0.007,0.011l-0.008,0.012l-0.01,0.012l-0.013,0.013L31.592,5.51l-0.016,0.015L31.56,5.54
			l-0.016,0.016l-0.018,0.017l-0.018,0.017l-0.018,0.017l-0.018,0.018l-0.018,0.018l-0.019,0.018L31.42,5.679l-0.019,0.018
			l-0.021,0.018L31.36,5.731l-0.021,0.017l-0.021,0.017l-0.024,0.016l-0.024,0.016l-0.023,0.015l-0.023,0.014l-0.022,0.013
			l-0.021,0.012l-0.019,0.011l-0.018,0.01l-0.014,0.01l-0.013,0.009L31.104,5.9l-0.01,0.009l-0.008,0.01l-0.007,0.01l-0.008,0.012
			l-0.008,0.013L31.058,5.97l-0.007,0.016l-0.007,0.016l-0.008,0.017l-0.008,0.017L31.02,6.053l-0.01,0.017L31,6.085l-0.012,0.015
			l-0.013,0.015l-0.011,0.014l-0.013,0.014l-0.013,0.013l-0.011,0.013l-0.011,0.012l-0.01,0.012l-0.011,0.011l-0.01,0.011
			L30.88,6.227l-0.008,0.011l-0.009,0.011L30.854,6.26l-0.009,0.012l-0.008,0.013l-0.009,0.013L30.82,6.311l-0.01,0.013
			l-0.009,0.014L30.794,6.35l-0.009,0.012l-0.009,0.011l-0.008,0.01L30.76,6.392L30.753,6.4l-0.007,0.007L30.74,6.416l-0.006,0.006
			l-0.005,0.007l-0.004,0.006l-0.003,0.007l-0.001,0.007l-0.001,0.007v0.008l0.001,0.007l0.002,0.008l0.002,0.008l0.002,0.008
			l0.002,0.008l0.002,0.008l0.002,0.008l0.001,0.008v0.009l-0.002,0.009L30.73,6.554l-0.005,0.008L30.717,6.57L30.708,6.58
			l-0.01,0.009l-0.01,0.009l-0.013,0.009l-0.01,0.01l-0.01,0.01l-0.009,0.011L30.64,6.648L30.635,6.66L30.632,6.67L30.63,6.683
			l-0.002,0.012v0.013l0.001,0.013l0.001,0.014l0.002,0.014l0.002,0.015l0.001,0.014l0.001,0.013l0.002,0.013v0.012v0.01
			l-0.003,0.009l-0.002,0.007l-0.005,0.006l-0.004,0.004l-0.007,0.004l-0.006,0.002L30.604,6.86l-0.008,0.002l-0.007,0.002
			l-0.008,0.003l-0.008,0.003l-0.008,0.003l-0.009,0.003L30.548,6.88l-0.01,0.004l-0.01,0.004l-0.011,0.004l-0.012,0.004L30.493,6.9
			l-0.014,0.005l-0.014,0.005l-0.014,0.004l-0.014,0.005l-0.015,0.004L30.41,6.928l-0.013,0.003l-0.014,0.003l-0.013,0.002
			l-0.013,0.002l-0.013,0.001L30.335,6.94h-0.011h-0.011l-0.011-0.002l-0.011-0.001l-0.01-0.002l-0.01-0.004l-0.012-0.005
			L30.25,6.92l-0.011-0.007l-0.014-0.008l-0.013-0.009l-0.014-0.01l-0.014-0.011L30.17,6.865l-0.014-0.011l-0.013-0.011L30.13,6.832
			l-0.012-0.01l-0.011-0.009l-0.009-0.007L30.09,6.8l-0.008-0.005l-0.006-0.004l-0.005-0.002h-0.004l-0.004,0.002l-0.003,0.003
			l-0.003,0.005v0.006l-0.003,0.007l-0.001,0.008l-0.002,0.008L30.05,6.835l-0.004,0.008l-0.003,0.007l-0.004,0.006l-0.005,0.006
			l-0.005,0.005l-0.007,0.005l-0.007,0.004l-0.008,0.003L30,6.883l-0.009,0.002l-0.009,0.001h-0.011L29.96,6.883l-0.011-0.004
			l-0.013-0.007L29.921,6.86l-0.016-0.014L29.888,6.83l-0.019-0.021l-0.019-0.023l-0.021-0.024l-0.021-0.025l-0.021-0.025
			l-0.021-0.024l-0.021-0.022l-0.021-0.021l-0.02-0.018L29.683,6.61l-0.021-0.014l-0.021-0.011l-0.021-0.01l-0.021-0.008
			l-0.021-0.007l-0.021-0.005l-0.021-0.005l-0.02-0.003l-0.021-0.002l-0.019-0.002l-0.017-0.001h-0.016h-0.015h-0.012l-0.01,0.001
			L29.4,6.544l-0.007,0.003l-0.007,0.004l-0.006,0.006l-0.006,0.008l-0.005,0.01l-0.005,0.013l-0.007,0.015L29.353,6.62
			l-0.008,0.017l-0.009,0.017l-0.009,0.018l-0.011,0.017l-0.013,0.016L29.29,6.72l-0.015,0.013l-0.018,0.013l-0.017,0.011
			l-0.02,0.01l-0.019,0.009l-0.02,0.009l-0.02,0.008L29.145,6.8l-0.02,0.006l-0.021,0.006l-0.021,0.005l-0.021,0.005l-0.021,0.004
			L29.021,6.83l-0.022,0.004l-0.021,0.003l-0.023,0.003l-0.022,0.003l-0.023,0.002l-0.021,0.002l-0.022,0.001h-0.021h-0.021
			l-0.019-0.001l-0.02-0.002l-0.018-0.002l-0.017-0.003l-0.014-0.004l-0.014-0.003L28.71,6.829l-0.012-0.004l-0.011-0.005
			l-0.01-0.004l-0.011-0.004l-0.01-0.004l-0.011-0.004L28.636,6.8l-0.014-0.003l-0.015-0.003l-0.017-0.002l-0.018-0.001L28.555,6.79
			l-0.021-0.001h-0.021h-0.022L28.47,6.79l-0.024,0.001l-0.022,0.001l-0.024,0.001l-0.024,0.002l-0.022,0.002L28.327,6.8
			l-0.023,0.003L28.28,6.807l-0.022,0.004l-0.022,0.004l-0.021,0.005l-0.022,0.005l-0.022,0.006l-0.022,0.006l-0.025,0.006
			l-0.023,0.006L28.07,6.855l-0.028,0.007L28.014,6.87l-0.031,0.007l-0.031,0.007l-0.03,0.007l-0.033,0.007l-0.032,0.007
			l-0.032,0.006l-0.031,0.006l-0.03,0.007L27.73,6.93l-0.029,0.006l-0.029,0.006l-0.03,0.005l-0.029,0.006l-0.029,0.005
			l-0.028,0.004l-0.029,0.005l-0.028,0.004l-0.029,0.004l-0.029,0.004l-0.029,0.004L27.38,6.988l-0.03,0.004l-0.031,0.005
			l-0.031,0.005l-0.03,0.006l-0.032,0.005l-0.032,0.005l-0.031,0.006L27.13,7.027l-0.032,0.004l-0.032,0.004l-0.031,0.003
			l-0.031,0.003l-0.029,0.002l-0.031,0.001h-0.03h-0.028h-0.029l-0.028-0.002l-0.028-0.002l-0.027-0.003l-0.026-0.003l-0.025-0.002
			l-0.026-0.002L26.667,7.03l-0.024-0.001L26.617,7.03l-0.024,0.001L26.57,7.034l-0.021,0.003l-0.021,0.005l-0.02,0.006
			l-0.018,0.007l-0.015,0.007L26.464,7.07l-0.01,0.01l-0.01,0.009L26.437,7.1l-0.01,0.011l-0.009,0.012l-0.012,0.012l-0.013,0.012
			L26.377,7.16l-0.019,0.013l-0.021,0.013l-0.021,0.012l-0.023,0.012l-0.022,0.012l-0.025,0.011l-0.023,0.011l-0.026,0.009
			l-0.025,0.009L26.147,7.27l-0.025,0.007l-0.025,0.007L26.072,7.29l-0.025,0.007l-0.023,0.007L25.998,7.31l-0.025,0.007
			l-0.024,0.007l-0.026,0.007l-0.025,0.007l-0.027,0.007l-0.027,0.006l-0.027,0.006l-0.029,0.006l-0.03,0.005l-0.031,0.006
			l-0.029,0.005l-0.032,0.005L25.631,7.39L25.6,7.396l-0.03,0.006l-0.031,0.006l-0.03,0.006l-0.03,0.006l-0.028,0.005L25.42,7.43
			l-0.027,0.004l-0.026,0.002L25.34,7.437l-0.024-0.001L25.29,7.434L25.266,7.43l-0.022-0.003l-0.025-0.004l-0.023-0.004
			l-0.025-0.003l-0.026-0.002h-0.025h-0.028l-0.03,0.002l-0.031,0.003l-0.033,0.005l-0.035,0.005l-0.037,0.006l-0.04,0.007
			l-0.014-0.003l-0.043,0.008L24.78,7.456l-0.047,0.01l-0.045,0.01l-0.045,0.011l-0.043,0.011L24.56,7.509l-0.039,0.012
			l-0.036,0.013l-0.032,0.012l-0.031,0.011l-0.029,0.01l-0.025,0.007L24.345,7.58l-0.021,0.002L24.306,7.58l-0.018-0.006
			l-0.016-0.01l-0.016-0.015l-0.016-0.019l-0.018-0.024l-0.02-0.029l-0.022-0.035l-0.026-0.04l-0.028-0.043l-0.03-0.046
			l-0.273,0.186l-0.187,0.196l-0.133,0.139l-0.076,0.119l-0.031,0.111l-0.001,0.086l0.034,0.12l0.055,0.109l0.059,0.095l0.013,0.06
			l0.001,0.079l-0.027,0.09L23.36,9.017l-0.055,0.1l-0.027,0.046l-0.005,0.064l0.036,0.07l0.061,0.088l0.058,0.096l0.035,0.077
			l-0.002,0.05l-0.023,0.069l0.002,0.034l0.086,0.122l0.586,0.563l0.396,0.405l0.086,0.122l0.013,0.103l-0.012,0.099l-0.047,0.138
			l-0.129,0.168l-0.09,0.095l-0.056,0.021l-0.041,0.03l-0.054,0.014l-0.044,0.044l-0.032,0.154l-0.073,0.313l-0.021,0.09
			l-0.155,0.208l-0.129,0.168l-0.156,0.172l-0.225,0.212l-0.199,0.216l-0.199,0.259l-0.082,0.103l-0.091,0.109l-0.084,0.075
			l-0.058,0.07l-0.047,0.102l-0.023,0.069l-0.062,0.337l-0.021,0.3l0.003,0.134l-0.002,0.044l-0.009,0.044l-0.029,0.041
			l-0.057,0.048l-0.044,0.05L22.323,15l0.004,0.079l-0.01,0.078l-0.035,0.073l-0.052,0.055l-0.053,0.031l-0.104,0.013l-0.084-0.013
			l-0.125-0.007l-0.062,0.008l-0.041,0.039l-0.036,0.045l-0.02,0.06l0.022,0.082l0.06,0.132L21.848,16l0.008,0.249l-0.022,0.244
			l-0.031,0.147l-0.062,0.176L21.647,17l-0.027,0.073l-0.031,0.057l-0.022,0.047l-0.034,0.034l-0.05,0.043l-0.028,0.018
			l-0.025,0.024l-0.018,0.048l0.012,0.075l0.046,0.069l0.11,0.078l0.119,0.063l0.088,0.097l0.061,0.094l0.034,0.095l0.104,0.149
			l0.195-0.008l0.194,0.001l0.178,0.011l0.3,0.002l0.149,0.01l0.193,0.011l0.127,0.007l0.117,0.057l0.204,0.081l0.166,0.048
			l0.238,0.044l0.133,0.02l0.073-0.008l0.055-0.019l0.04-0.032l0.039-0.047l0.039-0.051l0.04-0.065l0.021-0.046l0.022-0.019h0.021
			l0.028,0.01l0.064,0.057l0.134,0.122l0.164,0.156l0.147,0.17l0.082,0.113l0.021,0.07l0.01,0.136l-0.013,0.121l-0.018,0.089
			l0.016,0.058l0.018,0.023l0.07,0.02h0.066h0.067l0.05,0.023l0.026,0.038l0.017,0.062l0.033,0.207l0.03,0.164l0.063,0.285
			l0.062,0.253l0.064,0.222l0.07,0.207l0.03,0.229l0.066,0.295l0.043,0.118l0.043,0.075l0.045,0.052l0.062,0.043l0.076,0.038
			l0.038,0.038l0.021,0.089l-0.007,0.104l-0.02,0.125l-0.034,0.112l-0.033,0.047L26.041,22.1l-0.065,0.031h-0.072l-0.078-0.014
			l-0.266-0.078l-0.145-0.043l-0.153-0.023l-0.218-0.012l-0.172-0.039l-0.115-0.01l-0.09,0.008l-0.065,0.037L24.544,22l-0.051,0.06
			l-0.056,0.112l-0.034,0.106l-0.045,0.062l-0.068,0.051l-0.115,0.018l-0.282-0.011l-0.345-0.002h-0.276l-0.088-0.005l-0.062-0.029
			l-0.05-0.042l-0.044-0.071l-0.027-0.052l-0.044-0.028l-0.122-0.033l-0.198-0.034l-0.223-0.044l-0.288-0.04l-0.154-0.029h-0.077
			l-0.05,0.028l-0.028,0.042l-0.019,0.075l0.021,0.084l0.038,0.08l0.038,0.094l0.021,0.07l-0.007,0.065l-0.062,0.056l-0.066,0.027
			l-0.133,0.004l-0.133-0.01l-0.111-0.02l-0.122-0.021h-0.056l-0.056,0.009l-0.051,0.047l-0.051,0.065l-0.012,0.056l0.017,0.057
			l0.038,0.07l0.026,0.117l-0.001,0.057l-0.051,0.056l-0.084,0.069l-0.089,0.064l-0.062,0.032H20.79h-0.083l-0.07-0.011l-0.039,0.02
			l-0.034,0.027L20.52,23.34l-0.045,0.01h-0.057l-0.115-0.029l-0.105-0.023l-0.127-0.01l-0.111-0.002l-0.065,0.01l-0.051,0.037
			l-0.098,0.06l-0.201,0.11l-0.178,0.08l-0.128,0.051l-0.101,0.056l-0.078,0.083l-0.034,0.107l-0.007,0.113l0.031,0.094l0.012,0.088
			l-0.001,0.084v0.08l0.016,0.09l0.021,0.14l-0.008,0.146l-0.045,0.08l-0.084,0.057l-0.089,0.037l-0.101,0.013l-0.101-0.005
			l-0.132-0.02l-0.155-0.029l-0.139-0.053l-0.151-0.104l-0.183-0.104L17.808,24.5l-0.089-0.071l-0.061-0.084l-0.061-0.104
			l-0.061-0.07l-0.1-0.099l-0.077-0.047l-0.1-0.052l-0.077-0.033l-0.078-0.016l-0.066,0.015l-0.065,0.022l-0.062,0.037l-0.044,0.043
			l-0.028,0.014l-0.05-0.01l-0.071-0.057l-0.056-0.074l-0.025-0.095l-0.032-0.099l-0.021-0.117l-0.026-0.08l-0.061-0.126
			l-0.056-0.094l-0.055-0.052l-0.044-0.006l-0.066,0.02l-0.05,0.031l-0.029,0.084v0.084l-0.012,0.057l-0.019,0.061l-0.021,0.033
			l-0.057,0.014l-0.071-0.01l-0.102-0.033h-0.07l-0.057,0.023l-0.034,0.061v0.057v0.061l-0.018,0.043l-0.033,0.027l-0.108,0.044
			l-0.123,0.046l-0.104,0.023h-0.089l-0.073-0.001l-0.055,0.032l-0.039,0.057l-0.023,0.099l0.006,0.079l0.021,0.085l0.033,0.052
			l0.016,0.084l-0.027,0.099l-0.058,0.14l-0.066,0.131l-0.045,0.094l-0.097,0.088l-0.083,0.062l-0.11,0.032l-0.205,0.041
			l-0.122-0.005l-0.179-0.021l-0.23-0.053l-0.233-0.034l-0.198-0.028l-0.231-0.041l-0.156-0.041l-0.149-0.021l-0.086,0.014
			l-0.071,0.039l-0.071,0.072l-0.04,0.073l-0.001,0.073l0.031,0.053v0.072l-0.024,0.061l-0.062,0.073l-0.109,0.052l-0.174,0.052
			l-0.15,0.026l-0.281,0.031h-0.314l-0.361-0.002l-0.204-0.008h-0.149l-0.134-0.008l-0.143-0.041l-0.125-0.027l-0.086-0.054
			l-0.094-0.02H10.26l-0.04,0.032l-0.017,0.041l0.008,0.053l0.039,0.08l0.039,0.1l0.029,0.16v0.072l-0.032,0.08l-0.062,0.041
			l-0.086,0.045l-0.087,0.007l-0.126-0.021L9.815,26.1l-0.166-0.014l-0.086-0.027l-0.055-0.041l-0.031-0.04l-0.016-0.073
			l-0.015-0.08l-0.016-0.053l-0.062-0.055l-0.078-0.053l-0.087-0.041L9.126,25.57l-0.035-0.046L9.079,25.51l-0.055-0.053
			L8.93,25.383l-0.172-0.114l-0.144-0.093l-0.207-0.12l-0.263-0.021l-0.245,0.016l-0.147,0.051l-0.136,0.094l-0.169,0.023
			l-0.13-0.033l-0.196-0.104l-0.093-0.195l-0.018-0.162l-0.004-0.108l-0.025-0.089l-0.089-0.088l-0.131-0.077l-0.293-0.118
			l-0.11-0.078l-0.114-0.194l-0.109-0.097l-0.131-0.041l-0.269-0.028l-0.246-0.011l-0.104,0.021l-0.072,0.056l-0.071,0.084
			l-0.126,0.084L4.947,24.08l-0.299,0.008L4.447,24.14l-0.114,0.075l-0.038,0.109l0.007,0.162l0.049,0.161l0.062,0.179L4.41,25.033
			l-0.007,0.108l-0.05,0.083l-0.071,0.102l-0.037,0.127l0.003,0.072l0.023,0.062l0.057,0.08l0.207,0.363l0.197,0.391l0.062,0.233
			l-0.007,0.12l-0.12,0.193l-0.312,0.199l-0.316,0.117l-0.255,0.034l-0.16,0.005l-0.317,0.063l-0.382,0.065l-0.41,0.174
			l-0.541,0.125l-0.443,0.121L0.926,28l-0.035,0.619l-0.113,0.729l0.066,0.236l0.037,0.162l0.021,0.096l-0.004,0.082l-0.031,0.059
			l-0.062,0.078l-0.012,0.049L0.79,30.191L0.78,30.25l-0.035,0.039l-0.088,0.062l-0.07,0.087l-0.05,0.104l0.002,0.104l0.043,0.186
			l0.03,0.205l0.057,0.145l0.109,0.182l0.039,0.075l0.022,0.073l0.003,0.181l0.013,0.127L0.885,31.9l0.053,0.082l0.073,0.068
			l0.054,0.059l0.037,0.064l0.017,0.07l0.01,0.09l0.021,0.097l0.08,0.173l0.083,0.24l0.081,0.201l0.061,0.113l0.062,0.119
			l0.029,0.053l0.007,0.032l-0.023,0.019l-0.11,0.027l-0.173,0.038L1.07,33.523l-0.139,0.109l-0.056,0.076l-0.004,0.059l0.012,0.074
			l0.064,0.104l0.035,0.084l0.054,0.106l0.033,0.07l0.023,0.055l0.024,0.082l0.012,0.099l-0.013,0.093l-0.013,0.068l0.025,0.111
			l0.062,0.17l0.044,0.164l0.014,0.127l0.111,0.423l0.285,0.673l0.28-0.004l0.16-0.01l0.146,0.026l0.212,0.071l0.135,0.032
			l0.092-0.011l0.129-0.025l0.123-0.041l0.095-0.039l0.102-0.04l0.035-0.007L3.14,36.203l-0.023-0.055l-0.032-0.086l0.011-0.105
			l0.021-0.053l0.077-0.066l0.127-0.057l0.232-0.037l0.141-0.006l0.137-0.01l0.135-0.023l0.182-0.062l0.145-0.062l0.116-0.074
			l0.114-0.082l0.113-0.12l0.092-0.119l0.036-0.054l0.041-0.028l0.069-0.03l0.117-0.055l0.145-0.034l0.25-0.019l0.19-0.002
			l0.189,0.013l0.153,0.026l0.181,0.006l0.163-0.006l0.107-0.021l0.09-0.049l0.087-0.003l0.061,0.002l0.11,0.024l0.092,0.004
			l0.077-0.002l0.036-0.024l0.047-0.048l0.1-0.068l0.159-0.074l0.218-0.102l0.14-0.064l0.095-0.063l0.13-0.125l0.195-0.211
			l0.115-0.073l0.131-0.098l0.115-0.096l0.131-0.099l0.178-0.106l0.144-0.065l0.242-0.152l0.224-0.128l0.1-0.072l0.073-0.067
			l0.07-0.081l0.039-0.084L9.59,33l0.021-0.139l0.034-0.057l0.042-0.029l0.107-0.031l0.048-0.021l0.053-0.039l0.058-0.058
			l0.04-0.084l0.041-0.043l0.057-0.066l0.075-0.012l0.119-0.01l0.146,0.004l0.065-0.002l0.048-0.021l0.054-0.034l0.058-0.048
			l0.161-0.135l0.073-0.049l0.114-0.015l0.092-0.008l0.118-0.024l0.188-0.059l0.245-0.102l0.158-0.104l0.079-0.059l0.034-0.062
			l0.046-0.075l0.025-0.033l0.08-0.03l0.075-0.003l0.066,0.011l0.046,0.035l0.047,0.071l0.051,0.035l0.159,0.031l0.284,0.004
			l0.119-0.01l0.096-0.045l0.095-0.068l0.107-0.026l0.069-0.021l0.047-0.043l0.036-0.056l-0.003-0.042l-0.062-0.039l-0.014-0.05
			l0.029-0.043l0.031-0.023l0.071-0.003l0.198,0.034l0.17,0.029l0.152,0.009l0.088-0.017l0.114-0.054l0.078-0.053l0.402-0.343
			l0.078-0.082l0.021-0.088l0.009-0.17l0.016-0.131l0.027-0.089l0.045-0.08l0.09-0.067l0.102-0.051l0.152-0.01l0.155-0.02
			l0.124-0.037l0.137-0.01l0.07,0.012l0.053,0.049l0.094,0.141l0.047,0.053l0.072,0.035l0.153,0.018l0.207-0.008l0.304-0.049
			l0.203-0.053l0.128-0.039l0.104-0.041h0.239l0.284,0.014l0.174-0.016l0.162-0.024l0.124-0.037l0.115-0.063l0.279-0.199
			l0.122-0.064l0.064-0.025l0.075-0.002l0.033,0.008l0.039,0.021l0.029,0.045l0.042,0.073l0.046,0.054l0.061,0.007l0.162-0.02
			l0.39-0.102l0.104-0.056l0.089-0.077l0.094-0.091l0.098-0.041l0.173-0.021l0.354-0.092l0.356-0.092L21,29.258l0.225-0.096
			l0.288-0.121l0.253-0.06l0.173-0.038l0.143-0.005l0.244-0.022l0.15-0.033l0.129-0.036l0.165-0.079l0.183-0.085l0.18-0.104
			l0.096-0.066l0.151-0.135l0.104-0.063l0.071-0.007l0.049-0.002l0.234-0.096l0.243-0.058l0.14-0.047l0.108,0.009l0.09,0.018
			l0.061,0.035l0.055,0.078l0.056,0.114l0.014,0.119l0.018,0.079l0.033,0.051l0.072,0.038l0.095,0.024l0.1-0.014l0.152-0.08
			l0.16-0.095l0.084-0.046l0.074-0.018l0.131-0.012l0.166,0.02l0.122,0.006l0.206-0.029l0.322-0.07l0.222-0.076l0.172-0.066
			l0.057-0.025l0.063-0.058l0.045-0.067l0.031-0.062l0.041-0.017l0.033,0.002l0.076,0.021l0.08,0.01l0.057-0.001l0.056-0.017
			l0.094-0.066l0.104-0.066l0.167-0.09l0.189-0.108l0.129-0.074l0.188-0.108l0.166-0.106l0.12-0.083l0.138-0.096l0.069-0.041
			l0.093-0.026l0.07-0.013l0.158-0.033l0.154-0.027l0.232-0.041l0.071-0.01l0.026,0.003l0.024,0.015l0.017,0.063l0.014,0.103
			l0.011,0.031l0.033,0.023l0.033,0.011l0.036-0.005l0.032-0.018l0.023-0.021l0.025-0.052l0.018-0.057l0.036-0.068l0.017-0.061
			l0.022-0.057l0.025-0.04l0.052-0.037l0.063-0.032l0.07-0.025l0.219-0.069l0.346-0.087l0.352-0.083l0.16-0.022l0.002-0.143
			l0.149-0.014l0.223-0.02l0.174-0.014l0.167-0.042l0.133-0.044l0.171-0.076l0.183-0.088l0.279-0.061l0.201-0.039l0.227-0.021
			l0.143-0.025l0.081-0.029l0.141-0.021l0.13-0.029l0.062-0.022l0.087-0.065l0.137-0.101l0.184-0.108l0.217-0.146l0.239-0.185
			l0.118-0.074l0.085-0.021l0.052,0.002l0.079,0.004l0.222,0.018h0.164l0.171-0.033l0.121-0.029l0.15-0.056l0.13-0.073l0.115-0.074
			l0.099-0.094l0.13-0.143l0.169-0.18l0.108-0.091l0.048-0.038l0.073-0.064l0.077-0.047l0.031-0.01l0.072-0.021l0.057-0.005
			l0.137,0.012l0.108,0.008l0.079-0.006l0.044-0.018l0.026-0.015l0.028-0.043l0.04-0.067l0.039-0.065l0.03-0.032l0.062-0.037
			l0.101-0.041l0.168-0.074l0.086-0.047l0.045-0.016l0.101-0.066l0.098-0.065l0.09-0.082l0.061-0.075l0.044-0.054l0.055-0.045
			l0.061-0.026l0.052-0.017l0.068-0.015l0.097,0.002l0.074-0.002l0.03-0.004l0.023-0.02l0.019-0.034l0.023-0.046l0.001-0.066
			l-0.003-0.062l0.016-0.102l0.033-0.078l0.047-0.066l0.108-0.111l0.15-0.148l0.09-0.096l0.062-0.099l0.088-0.112l0.069-0.125
			l0.096-0.178l0.038-0.111l0.008-0.039l0.013-0.052l0.02-0.045l0.014-0.055l0.021-0.07l0.01-0.022l0.036-0.021l0.062,0.007
			l0.038,0.041l0.031,0.067l0.021,0.032l0.034,0.01l0.041,0.004l0.038-0.002l0.026-0.02l0.017-0.024l0.01-0.028l0.021-0.007
			l0.017-0.006h0.026l0.051,0.009l0.012-0.035l0.029-0.095l0.031-0.093l0.005-0.133l0.232-0.231l0.188-0.22l0.169-0.262l0.18-0.326
			l0.13-0.359l0.095-0.361l0.031-0.256l-0.001-0.164l0.029-0.113l0.042-0.092l0.062-0.106l0.106-0.156l0.066-0.155l0.09-0.233
			l0.074-0.164l0.072-0.118l0.121-0.194l0.307-0.372l0.183-0.233l0.312-0.361l0.221-0.204l0.216-0.192l0.211-0.15l0.24-0.157
			l0.261-0.145l0.284-0.162l0.183-0.102l0.236-0.18l0.164-0.14l0.215-0.205l0.133-0.087l0.439-0.294l0.396-0.323l0.415-0.389
			l0.391-0.359l0.298-0.266l0.258-0.291l0.2-0.242l0.29-0.264l0.175-0.179l0.195-0.265l0.262-0.07l0.015-0.074l0.016-0.085
			l0.105-0.077l0.115-0.105l0.075-0.075l0.028-0.092L48.858,10.795"/>
	</g>
</g>
<g id="Layer_1">
</g>
</svg>
