<?xml version="1.0" encoding="utf-8"?>
<!-- Generator: Adobe Illustrator 16.0.4, SVG Export Plug-In . SVG Version: 6.00 Build 0)  -->
<!DOCTYPE svg PUBLIC "-//W3C//DTD SVG 1.1//EN" "http://www.w3.org/Graphics/SVG/1.1/DTD/svg11.dtd">
<svg version="1.1" id="Layer_1" xmlns="http://www.w3.org/2000/svg" xmlns:xlink="http://www.w3.org/1999/xlink" x="0px" y="0px"
	 width="300.677px" height="157.821px" viewBox="-106.696 -55.674 300.677 157.821"
	 style="enable-background:new -106.696 -55.674 300.677 157.821;" xml:space="preserve">
<g id="Layer_7">
	<g id="Killa_Saifullah">
		<path id="Killa_Saifullah_2_" style="fill:#CCCCCC;stroke:#FFFFFF;stroke-width:1.15;" d="M155.146,73.644L155.146,73.644
			l-0.562-0.85l-0.537-0.906l-0.529-0.18l-0.523,0.19l-2.098,0.833l-1.77,0.647l-1.043,0.468l-0.742,0.003l-0.527-0.269
			l-0.209-0.454l0.203-1.184l-0.01-0.912l-0.539-1.269l-0.961-1.537l-0.014-0.729l-0.32-0.628l-1.271-0.719l-0.639-0.54l-0.006-0.36
			l0.412-0.731l1.994-1.196l2.299-1.023l1.266-0.196l0.627-0.278l0.631-0.553l1.572-1.285l2.617-1.568l2.301-1.105l3.279-0.756
			l3.896-0.758l3.143-1.203l2.43-1.193l1.043-0.373l0.631-0.637l0.082-1.093l0.307-1.363l0.742-1.004l0.979-1.817l0.719-2.004
			l1.459-2.92l0.092-1.548l-0.432-0.999l-0.432-0.727l-0.004-0.634l1.043-0.919l0.934-1.913l0.629-1.729l0.51-1.098l0.531-0.367
			l2.844-0.742l1.902-0.376l1.158-0.553l1.152-1.735l3.031-4.198l0.207-0.821l-0.004-0.638l-0.957-0.628l-0.752-0.359l-0.631-0.177
			l-0.531,0.004l-0.844,0.458l-1.043,1.01l-1.682,1.281l-1.59,1.282l-1.58,0.916l-1.268,0.369l-2.023,0.199l-2.012-0.447
			l-1.488-0.628l-0.85-0.994l-1.486-1.629l-1.486-0.987l-1.186-1.174l-0.863-1.632l-0.988-1.677l-0.748-0.543l-0.85-0.265
			l-0.953,0.006l-0.947,0.099l-1.064-0.269l-3.705-1.608l-1.605-1.624l-2.133-1.802l-1.176-0.902l-1.184-0.72l-1.049-0.265
			l-0.957-0.173l-0.846,0.189l-0.752,0.365l-0.928,0.736l-0.732,0.723l-0.629,0.092l-1.059-0.17l-1.805-0.53l-1.172-0.078
			l-0.738,0.006l-1.059,0.19l-2.203,1.291l-1.355,0.742l-0.633,0.003l-0.426-0.18l-0.111-0.271l-0.006-0.905l-0.014-0.814v-0.003
			l-0.322-0.451l-0.332,0.092l-0.836,0.735l-1.885,1.288l-1.471,0.739l-2.629,1.029l-1.363,0.193l-0.754-0.173l-0.438-0.817
			l-0.211-1.093l-0.346-1.359l-0.33-0.632l-0.527-0.268l-0.635-0.177l-1.895,0.199l-2.857,0.664l-0.846,0.006l-1.172-0.261
			l-1.178-0.808l-0.641-0.628l-0.852-0.265l-0.525,0.003l-1.479,0.38l-0.631,0.188l-0.631,0.007l-0.744-0.356l-0.961-0.444
			l-0.531-0.085l-0.418,0.187l-0.625,1.007l-1.562,1.746l-1.77,1.929l-1.998,1.2l-2.627,1.118l-2.953,0.67L94.391,17.1L93.1,15.841
			l-0.539-0.905l-0.457-1.994l0.291-1.821l-0.018-1.092l-0.766-0.812l-1.176-0.624l-0.537-0.631l-1-2.897l0.096-0.731l0.732-0.645
			l1.461-1.38l0.094-0.82l-0.656-1.452l-0.994-2.438L89.246-2.91l-0.943-0.17l-0.758-0.173l-0.209-0.451l-0.008-0.458l0.193-1.184
			l0.393-2.19l0.445-5.46l-0.348-1.906l-0.344-0.631L86.496-15.7l-2.666-0.971l-3.422-1.603l-1.174-0.529l-1.383-0.167l-0.848,0.01
			l-1.902,0.66l-2.729,1.217l-2.016,0.569l-1.887,0.478l-2.131,0.297l-2.949,1.223l-4.625,2.606l-3.262,1.405l-2.955,1.223
			l-1.682,0.386l-1.592,0.111l-1.174-0.346l-5.724-1.596l-8.975-2.783l-3.951-1.304l-2.146-1.06l-3.24-2.135l-3.326-2.224
			l-3.559-3.315l-3.997-3.394l-4.973-4.561l-3.688-2.943l-5.241-3.9l-6.032-2.992l-5.036-1.549l-6.763-3.067l-4.521-2.102
			l-3.348-2.034l-1.846-1.422l-0.735-0.913l-0.271,0.203l-1.651,1.919l-1.888,1.384l-1.643,0.932l-0.104,0.081l-1.457,1.132
			l-3.464,3.207l-2.23,1.233l-1.239,0.405l-0.562,0.183l-1.855,0.17l-3.056-0.209l-0.798-0.007l-1.435-0.003l-0.613,0.173
			l-0.489,0.141l-0.744,0.056l-0.341-0.274l-1.342-1.089l-0.945-0.223l-0.257-0.065l-0.861-0.134l-1.231-0.022l-0.37-0.007
			l-3.547-0.422l-2.086-0.039l-0.506,0.118l-0.893,0.205l-0.767,0.497l0.147,0.955l2.869,2.351l2.129,3.544l0.562,1.26l0.497,1.517
			l0.046,0.546l0.02,0.281l-0.612,2.69l0.053,0.135l0.356,0.908l1.077,1.151l0.948,0.187l1.483,0.29l0.371,0.131l0.309,0.108
			l0.228,0.48l0.61,1.285l1.259,0.474l0.17,0.062l1.416-0.036l0.811-0.02l1.901-0.464l2.153-0.53l5.163-1.049l2.028-0.396
			l1.306,0.157l0.505,0.308l0.696,0.425l0.205,0.125l0.499,0.562l1.021,0.484l0.493,0.624l0.475,0.599l1.042,2.302l0.173,0.774
			l0.389,1.727l-0.613,1.769l-1.031,1.001l-0.553,0.536l-1.573,0.738l-0.111,0.033l-0.81,0.213l-2.548,0.17l-0.898,0.18
			l-0.029,0.007l-1.875-0.03l-0.09,0.03l-1.386,0.415l-1.664,0.706l-0.476,0.202l-0.181,0.142l-1.051,0.817l-3.415,2.121
			l-5.272,2.109l-1.146,0.157l-1.288,0.35l-1.711-0.18l-2.224,0.15l-0.505,0.301l-4.418,1.003l-0.556,0.226l-0.54,0.217
			l-1.841,0.915l-1.076,0.533l-2.742,1.092l-0.386,0.068l-3.3,0.569l-2.055,0.48l-0.606,0.141l0.077,0.219l0.115,0.36l0.201,0.219
			l0.457,0.01l0.329,0.117l0.325,0.291L-79,0.046l0.315,0.647l0.438,0.582l1.102,0.635l0.569,0.333l1.326,0.141l0.666-0.056
			l1.836-0.17l1.72-0.565l1.794-0.242l1.624-0.068l0.623,0.013l1.437,0.259l1.141,0.67l0.801,0.876l0.56,0.729l0.304,0.899
			l0.747,1.301l0.278,0.438l0.231,0.575l0.297,0.971l0.315,0.507l0.408,0.151l1.169-0.151l2.295-0.408l1.504-0.177l1.785,0.043
			l1.068,0.277l0.78,0.344l1.466,0.82l1.356,0.461l1.242,0.141l0.706-0.052l0.747,0.016l0.652,0.301l0.356,0.171l0.502-0.096
			l0.588-0.199l0.495,0.013l1.029,0.312l1.188,0.422l0.79-0.053l1.255-0.288l1.299-0.284l0.793-0.193l0.75-0.016l0.703,0.02
			l0.995,0.095l1.493,0.075l0.582,0.013l1.374-0.107l1.546-0.35l0.709-0.125l0.412,0.118l0.281,0.219l0.076,0.18l0.031,0.324
			l-0.181,0.422l-0.613,0.84l-0.397,0.671l-0.425,0.311l-0.178,0.313l0.034,0.284l0.237,0.291l0.326,0.259l0.277,0.401l-0.011,0.249
			l-0.003,0.177l-0.134,0.209l-0.253,0.177l-0.422,0.274l-0.345,0.311l-0.172,0.141l-0.173,0.206l-0.22,0.353l-0.064,0.642
			l-0.137,0.386l-0.352,0.562l-0.77,0.66l-0.801,0.337l-1.128,0.255l-1.084,0.15l-0.916-0.022l-0.703-0.021l-0.455-0.009
			l-0.462,0.166l-0.26,0.281l-0.057,0.425l0.153,0.288l0.406,0.294l0.655,0.232l0.409,0.187l0.073,0.183l-0.006,0.252l-0.013,0.32
			l-0.178,0.317l-0.221,0.386l-0.09,0.177l-0.847,1.716l-0.792,1.267l-0.39,0.522l-0.601,0.557l-0.719,0.411l-1.357,0.857
			l-1.105,0.758l-1.48,0.856l-1.438,0.926l-1.491,1.174l-1.109,0.797l-1.955,1.518l-1.425,1.062l-1.319,1.043l-0.814,0.766
			l-0.787,1.157l-0.783,1.196l-0.951,1.187l-0.897,0.795l-1.188,0.863l-1.345,0.68l-1.048,0.438l-0.847,0.59l-0.64,0.595
			l-0.549,0.274l-0.792,0.193l-1.5,0.28l-1.469,0.609l-1.208,0.359l-1.049,0.405l-0.963,0.404l-1.882,0.769l-0.499,0.092
			l-1.203-0.025l-1.489,0.071l-1.285,0.111l-1.005,0.298l-0.297,0.277l-0.138,0.357l-0.006,0.248l-0.134,0.281l-0.22,0.49
			l-0.68,0.556l-0.597,0.521l-0.682,0.556l-0.696,1.127l-0.271,0.743l0.029,0.359l0.071,0.356l0.067,0.107l0.74,0.641l0.69,0.406
			l1.154,0.212l1.064,0.135l0.503,0.284l0.454,0.529l0.252,1.523l-0.02,1.119l-0.299,1.085l-0.381,0.674l-0.565,0.474l-0.565,0.553
			l-0.29,0.517l-0.016,0.88l0.016,1.755l0.024,1.347l-0.195,0.484l-0.332,0.351l-0.703,0.474l-1.68,0.693l-1.169,0.588l-0.617,0.785
			l-0.377,0.556l0.134,0.327l0.269,0.523l0.556,0.085l0.649-0.069l2.371-0.333l1.434,0.101l0.599,0.167l0.181,0.239l0.448,0.817
			l0.268,0.68l-0.013,0.844l0.124,0.876l0.04,0.398l0.629,0.812l0.78,0.486l1.661,0.344l2.549,0.072l1.482-0.18l0.885-0.189
			l1.396-0.422l0.649-0.069l0.604,0.014l1.157,0.056l1.607-0.003l1.256-0.259l0.884-0.229l0.981-0.543l0.562-0.232l0.418-0.111
			l0.834-0.029l0.415,0.166l0.693,0.171l0.505,0.17h0.325l0.416,0.01l0.559-0.192l0.469-0.236l0.323-0.032h0.232l0.228,0.164
			l0.508,0.049l0.466-0.072l0.987-0.7l0.23-0.117l0.466-0.114l0.418,0.006L-50,74.057l0.275,0.163l0.365,0.284l0.217,0.562
			l0.127,0.562l0.041,0.402l0.129,0.402l0.82,0.732l0.636,0.614l0.174,0.518l-0.01,0.483l-0.198,0.719l-0.245,0.675l-0.006,0.397
			l0.127,0.605l0.492,0.727l0.792,0.63l-0.25,0.056l-0.297,0.34l-0.149,0.438l-0.01,0.438l0.01,0.052l3.955-0.513l2.405-0.275
			l2.624-0.059l1.617-0.006l1.052,0.369l1.621,0.598l1.798,0.334l1.051,0.033l1.307-0.157l1.354-0.572l1.178-0.533l1.182-0.425
			l2.524-0.936l2.617-1.072l2.092-0.912l1.617-0.317l1.264-0.418l0.783-0.458l0.656-0.226l1.127-0.118l0.623,0.069l0.31,0.189
			l0.134,0.487l0.096,1.7l0.268,1.095l0.308,0.344l0.443,0.262l0.217,0.458l0.003,0.602l0.08,0.984l0.268,0.677l0.92,1.017
			l0.881,0.908l1.01,0.521l1.223,0.372h0.7l0.745-0.231l1.273-0.873l0.947-0.834l0.696-0.418l1.39-0.406l1.604,0.046l1.744-0.098
			l1.182-0.235l1.645-0.274l1.014,0.085l1.543,0.137l2.022,0.04l2.236-0.103l1.645-0.188l0.961-0.141l0.956,0.042l0.855,0.184
			l0.381,0.385l0.208,0.21l0.195,0.503l0.396,0.373l0.755,0.987l0.556,1.356l0.861,0.896l0.331,0.539l0.54,0.909l1.299,0.981
			l1.895,0.784l3.489,0.765l2.635,0.419l1.688,0.072l0.83-0.376l0.726-0.556l2.836-1.131l4.496-1.338l3.449-1.324l1.766-0.48
			l0.943-0.105l0.951,0.174l0.951,0.163l1.465,0.069l0.85,0.173l0.537,0.719l0.543,0.72l1.064,0.893l1.471,0.622l1.051,0.17
			l0.846,0.261l0.537,0.445l0.529,0.722l0.543,1.083l0.955,0.628l1.174,0.17l1.174-0.562l0.516-0.769l0.93-0.83l1.535-0.54
			l1.467-0.291l3.043-0.311l3.684-0.138l2.857,0.145l1.256-0.196l1.57-0.654l1.666-0.928l2.42-0.301l2.201-0.39l1.16,0.076
			l1.182,0.438l1.885,0.621l1.178,0.258l1.154-0.287l0.518-0.462l0.84-0.006l0.424,0.176l0.328,0.724l1.066,0.902l2.014,0.794
			l2.016,0.618l2.012,0.523l1.057,0.896l0.213,0.727l0.23,1.729l0.119,0.727l0.205,0.451l0.74,0.268l0.947-0.101l2.727-0.301
			l2.414-0.661l3.863-0.954l6.375-2.066l4.82-2.59l1.66-1.468l1.357-1.105l2.518-0.657l4.725-0.769l3.672-1.036l1.881-0.922
			l1.777-1.105l2.6-2.844l2.916-2.75l1.678-0.834l2.42-0.562l2.311-0.203l2.307-0.653l0.73-0.461l0.207-0.635l-0.219-0.637
			l-1.047-0.899L155.146,73.644"/>
		<path id="Killa_Saifullah_1_" style="fill:#CCCCCC;stroke:#FFFFFF;stroke-width:1.15;" d="M-94.332,0.128L-94.332,0.128
			l-0.327-0.007l-2.529,0.834l-0.451-0.053l-1.3-0.153l-0.649,0.213l-0.706,0.235l-1.064-0.046l0.167,0.046l1.162,0.062l1.995,0.046
			l1.624-0.141l1.249-0.114l1.256-0.258l1.51-0.465L-91.91,0.2L-94.332,0.128"/>
	</g>
</g>
<g id="Layer_1_1_">
</g>
</svg>
