<?xml version="1.0" encoding="utf-8"?>
<!-- Generator: Adobe Illustrator 16.0.4, SVG Export Plug-In . SVG Version: 6.00 Build 0)  -->
<!DOCTYPE svg PUBLIC "-//W3C//DTD SVG 1.1//EN" "http://www.w3.org/Graphics/SVG/1.1/DTD/svg11.dtd">
<svg version="1.1" id="Layer_1" xmlns="http://www.w3.org/2000/svg" xmlns:xlink="http://www.w3.org/1999/xlink" x="0px" y="0px"
	 width="301.375px" height="518.683px" viewBox="-112.416 -193.958 301.375 518.683"
	 style="enable-background:new -112.416 -193.958 301.375 518.683;" xml:space="preserve">
<g id="Layer_63">
	<path id="Khuzdar" style="fill:#CCCCCC;stroke:#FFFFFF;stroke-width:1.15;" d="M-47.804-37.493L-47.804-37.493l-2.232,1.289
		l-2.963,2.168l-1.675,2.188l-0.872,2.095l-1.671,2.071l-2.761,2.975l-3.419,2.845l-3.502,1.531l-2.705,1.458l-2.441,1.572
		l-2.354,2.879l-2.257,3.938l-1.304,3.133l0.371,3.415l-0.201,1.874l-0.579,1.393l-1.643,1.604l-4.884,3.396l-1.648,1.713
		l-1.175,3.383l-0.912,3.395l-0.729,2.099l-0.876,2.33l-0.736,2.215l-0.053,1.528l0.49,1.199l0.463,1.896l1.103,2.492l0.757,1.078
		l0.365,0.442l-18.012,16.388l-0.868,1.417l6.312,1.527l7.315,2.331l6.169,2.125l4.595,1.774l3.441,1.045l1.87,0.842l4.675,4.425
		l3.236,3.589l2.979,4.598l1.829,3.994l0.803,3.006l1.211,4.611l1.712,5.019l2.072,2.852l2.922,2.829l3.695,0.67l4.521-0.108
		l3.66-0.584l2.091-0.935l2.188-2.576l1.62-2.569l1.782-1.937l0.964-0.78l0.991-0.026l0.452,0.877l0.803,3.132l0.069,2.396
		l-0.183,3.293l-0.401,5.568l-1.036,7.968l-0.965,5.584l-1.857,8.118l-1.175,7.859l-1.531,5.35l-1.475,7.24l-2.958,9.407
		l-1.292,3.82l-1.799,6.349l-1.668,5.361l-1.534,4.954l-1.922,6.11l-0.458,3.429l-0.481,2.538l0.354,2.382l0.931,2.878l4.123,6.205
		l4.148,6.333l4.849,7.196l4.563,7.089l5.471,9.581l4.124,6.839l0.644,0.723l0.336-0.753l-0.023-0.746l-0.593-1.243l-0.738-1.243
		l-0.59-1.12l-0.791-3.002l-0.509-3.01l0.085-1.896l-0.019-0.632l-0.726-0.874l-0.603-1.507l0.081-2.008l-0.057-2.02l0.064-2.513
		l0.54-0.766l1.937-0.926l2.054-1.82l0.615-2.924l0.095-1.65l-0.32-1.37l-0.739-1.239l-0.478-2.009l0.234-1.526l0.641-2.166
		l1.756-3.293l2.326-2.328l1.362-1.536l1.944-0.803l1.377-1.044l1.949-0.686l1.689,0.218l1.01,0.874l1.023,1.364l1.16,1.229
		l1.166,1.491l1.241,0.927l-0.207,0.664l0.192,1.88l4.667,5.971l1.934-1.363l2.245-1.082l1.045-0.403l0.6-0.007l0.604,0.806
		l1.505,0.942l1.354,0.399l1.654,1.74l1.505,0.543l3.897,0.241l3.748,0.539l1.652,0.666l0.682,0.075l1.046-0.128l0.603,0.121
		l1.499,0.67l3.157,2.683l1.951,0.935l2.103,0.803l1.652,0.403l0.747-0.008l0.598-0.679l1.045-1.069l1.946-1.499l2.097-0.942
		l0.596-0.008l1.047,0.555l1.801-0.012l1.499-0.399l1.199-0.679l0.746-0.55l0.9-0.128l0.899,0.128l1.5,0.542l3.157,2.684
		l1.201,2.561l1.052,2.291l0.316,0.472l1.152-0.72l0.339-0.523l0.061-0.449l0.061-0.392l0.121-0.715l0.406-0.532l0.34-0.656
		l0.624-0.53l0.735-0.55l0.854-0.226l0.785-0.02l0.922-0.15l0.783-0.147l0.562-0.211l1.145-0.03l1.567-0.045l1.273-0.286
		l0.783-0.144l0.634-0.46l0.354-0.083l0.286,0.121l0.295,0.188l0.512,0.377l0.29,0.241l0.501-0.012l0.279-0.129l0.271-0.331v-0.199
		l-0.015-0.513l-0.158-0.444L71.407,200l0.067-0.203l0.347-0.399l0.211-0.204l0.426-0.075l0.426-0.016l0.434,0.109l1.653,0.351
		l0.791-0.022l0.49-0.256l0.482-0.468l0.561-0.535l0.562-0.399l0.498-0.011l0.365,0.117l0.509,0.237l0.526,0.825l0.403,1.721
		l0.833,4.096l0.588,3.135l0.994,4.739l0.381,3.127l0.381,2.814l0.101,1.36l0.389,1.021l1.044,1.582l1.518,2.852l1.273,2.163
		l0.973,1.578l1.529,1.439l1.262,1.771l0.837,1.903l1.035,3.639l0.434,2.871l0.58,2.494l0.562,1.985l1.246,4.016l0.923,2.49
		l0.618,1.851l0.886,3.635l0.862,2.547l0.275,2.494l0.206,2.241l1.033,3.5l0.475,1.666l0.994,2.539l0.783,2.546l0.977,1.907
		l1.13,2.335l1.187,1.703l0.973,1.847l1.213,2.931l0.634,2.298l1.167,3.771l0.419,2.43l0.426,2.547l1.047,2.298l0.84,2.29
		l1.314,3.949l0.772,2.426l0.042,1.398l-0.03,1.48l-0.588,1.868l-0.686,1.318l0.562,0.212l0.146,1.069l0.037,0.49l0.091-0.012
		l2.064,0.121l1.65,0.022l1.349-0.357l2.389-0.619l2.076-0.433l1.446-0.166l1.439,0.403l1.239,0.015l1.971-0.347l1.653-0.075
		l1.552-0.165l0.729-0.452l0.84-0.731l0.844-1.01l1.266-1.484l0.762-1.763l0.236-1.861l-0.263-2.434l-0.373-2.336l0.03-1.586
		l0.327-1.115l0.53-0.648l1.154-0.907l0.53-0.731l0.117-0.738l0.015-0.746l-0.497-1.032l-0.282-1.408l0.019-1.115l0.136-1.591
		l0.128-1.024l-0.373-2.245l-0.146-3.285l-0.354-3.278l-0.663-3.296l-0.565-2.713l0.038-2.158l0.444-1.771l0.987-2.795l1.322-4.182
		l0.455-2.154l0.196-4.951l0.193-5.048l0.056-2.811l0.158-2.812l0.438-1.303l0.452-1.854l0.132-1.394l-0.238-4.024l-0.06-2.629
		l0.06-2.984l-0.079-1.503l-0.087-0.931l-0.403-0.475l-0.719-0.286l-0.727-0.204l-1.756-0.501l-1.236-0.568l-0.923-0.569
		l-0.61-0.946l-0.7-1.213l-0.392-1.317l-0.482-2.017l-0.896-3.553l-0.776-3.292l-0.392-1.213l-0.611-0.663l-1.747-0.965
		l-1.018-1.417l-0.912-1.134l-0.904-1.604l-0.813-1.043l-1.206-2.457l-0.398-1.04l-0.512-0.565l-0.725-0.666l-0.912-1.134
		l-0.81-1.327l-0.813-1.13l-0.807-1.224l-0.508-0.942l-0.298-0.938l-0.298-0.659l-0.301-0.562l-0.927-0.482l-0.618-0.392
		l-0.618-0.564l-0.184-1.312l-0.39-1.518l-0.286-1.598l-0.497-1.318l-0.791-1.376l-0.821-1.047l-0.497-1.032l0.007-0.564
		l0.008-0.565l0.426-0.734l0.848-0.729l1.052-0.727l2-1.096l3.153-1.726l2.325-1.281l3.359-1.525l4.197-1.812l3.692-2.192
		l3.06-1.643l1.145-0.079l0.309,0.396l1.489-1.628l-0.02-1.417l-0.44-2.931l-0.592-4.713l-0.008-2.973l0.614-0.938l0.61-0.802
		l0.916-1.342l0.757-0.806l0.317-0.941l-0.283-1.62l-0.814-7.034l-0.406-3.512l-0.543-5.398l-0.029-6.017v-3.967l0.595,0.283
		l0.32-1.217l0.618-1.075l0.456-0.53v-0.067l-0.754-2.901l-0.377-1.56v-0.886l-0.008-1.006l0.999-2.576l1.367-4.71l1.111-3.911
		l-0.38-4.58l-0.26-4.039l-0.759-5.812l-1.231-6.673l-1.639-6.924l-1.138-4.702l-0.128-2.564v-1.562l0.618-2.908l1.13-2.129
		l1.877-2.234l2-2.146l0.513-2.558l0.492-5.242l1.243-7.045l0.369-6.373l0.875-7.268l0.625-1.223l1.251-1.015l1.636-1.119
		l2.509-1.562l1.378-1.892l1.131-3.133l1.138-4.561l0.882-4.026l0.882-1.69l2.517-2.125l4.249-2.97l2.167-1.395l4.411-4.259
		l2.261-3.788l0.886-3.016l-0.378-4.476l0.916-3.114l1.892-4.216l2.016-3.688l1.262-4.028l0.237-3.155l0.019-0.197l-0.509-5.593
		l0.008-8.612l-0.252-7.152l0.885-3.244l0.762-2.237l0.384-1.454v-1.018l-0.621-4.707l-0.754-4.903l0.257-5.26v-2.908l-0.502-3.918
		l-0.757-2.139l-1.669-5.139l-1.643-2.677l-0.886-0.562l-0.634-0.784l-0.761-1.343l-0.248-4.259l-0.377-1.794l-1.018-0.676
		l-1.77-1.681l-0.762-1.464v-1.01l0.128-4.707l-0.505-1.345l-0.885-1.022l-1.089-0.865l-0.177-0.143l-0.886-0.446l-1.391-0.103
		l-1.774,0.103l-1.777-0.232l-1.522-0.672l-1.018-1.223l-1.018-2.35l-0.888-1.554l-1.646-1.454l-2.446-2.332l-1.77-0.782h-1.65
		l-2.034,0.34l-2.159,0.347l-1.262-0.347l-0.761-0.776l-0.256-0.678v-0.673l0.504-0.781l1.145-1.219l2.916-1.796l2.532-2.014
		l1.018-2.681l0.505-3.468l0.248-2.801l0.762-3.593l0.633-3.356l0.12-1.897l0.886-3.799l0.908-4.009l0.09-2.185l0.03-0.608
		l-0.253-3.924l-1.525-5.489l0.381-2.679l0.636-2.008l1.907-3.135l1.782-2.132l1.397-1.462l1.846-1.162l-2.091,0.341l-3.605,0.763
		l-3.605,0.525l-4.585,0.693l-3.896,0.174l-4.482,0.256l-5.652,0.25l-6.524-0.081l-4.076,0.093l-3.123,0.008l-3.508-0.236
		l-2.728,0.008l-3.806,0.434l-3.79,0.258l-2.538-0.162l-3.7,0.266l-6.035,0.714l-3.312,0.181l-2.435,0.182l-2.437,0.355l-1.65,0.354
		l-1.756,0.595l-0.874,0.701l-1.259,1.462l-1.062,1.288l-1.65,1.722l-2.224,3.094l-2.546,4.206l-1.353,2.228l-0.965,1.372
		l-0.862,2.055l-0.769,1.803l-0.957,2.155l-1.349,2.061l-0.866,1.878l-0.667,1.987l-1.549,1.539l-1.541,1.888l-1.54,2.237
		l-0.995,1.481l-1.378,2.623l-3.294,2.489l-6.438,2.036l-7.84,0.817l-1.59,1.07l-1.548,0.906l-1.76,1.063l-1.267,1.689l-0.717,0.906
		l-1.135,1.513l-1.071,1.196l-0.949,2.253l-1.362,2.735l-1.527,3.6l-1.304,2.673l-0.286,1.535l0.209,2.146l1.496,3.939l2.284,3.818
		l1.403,1.536l1.959,1.847l1.903,1.471l2.434,1.739l1.527,1.854l1.172,2.07l0.373,0.853l-0.105,1.5l-0.23,1.336l0.272,2.237
		l0.331,2.665l-0.166,3.682l-0.986,3.43l-1.36,2.963l-0.953,1.223l-1.737,1.046l-2.695,1.627l-3.481,1.528l-3.95,1.542l-5.096,2.169
		l-2.381,1.138l-2.758,1.316l-2.754,1.365l-4.372,2.18l-3.174,1.527l-3.593,1.743l-2.576,1.258l-1.91,1.247l-3.461,2.168
		l-1.852,1.249l-1.484,0.854l-0.599,0.436L-10.397-49l-1.671,1.241l-1.608,1.302l-1.966,1.203l-1.192,0.871l-2.019,1.848
		l-1.667,1.231l-2.981,1.809l-1.972,0.92l-1.555,0.659l-2.519,0.427l-1.026,0.048l-2.281,0.509l-1.381,0.12l-1.981,0.239
		l-2.289-0.081l-2.89-0.117l-1.083,0.023L-47.804-37.493"/>
</g>
<g id="Layer_1_1_">
</g>
</svg>
