<?xml version="1.0" encoding="iso-8859-1"?>
<!-- Generator: Adobe Illustrator 16.0.4, SVG Export Plug-In . SVG Version: 6.00 Build 0)  -->
<!DOCTYPE svg PUBLIC "-//W3C//DTD SVG 1.1//EN" "http://www.w3.org/Graphics/SVG/1.1/DTD/svg11.dtd">
<svg version="1.1" xmlns="http://www.w3.org/2000/svg" xmlns:xlink="http://www.w3.org/1999/xlink" x="0px" y="0px"
	 width="45.607px" height="43.746px" viewBox="0 0 45.607 43.746" style="enable-background:new 0 0 45.607 43.746;"
	 xml:space="preserve">
<g id="Layer_58">
	<g id="Layer_63">
		<path id="Sargodha" style="fill:#CCCCCC;stroke:#FFFFFF;stroke-width:1.07;" d="
			M40.323,0.534L40.323,0.534l-0.049,0.002l-0.07,0.007l-0.105,0.063l-0.151,0.135l-0.096,0.067l-0.18,0.104l-0.183,0.085
			l-0.164,0.079l-0.13,0.037l-0.15,0.033l-0.244,0.022l-0.143,0.005l-0.173,0.038l-0.253,0.06l-0.288,0.121L37.72,1.488
			l-0.278,0.103l-0.355,0.091l-0.354,0.093l-0.173,0.02l-0.097,0.041l-0.094,0.091l-0.09,0.077L36.174,2.06l-0.389,0.102
			l-0.162,0.02l-0.062-0.007l-0.046-0.054l-0.042-0.073l-0.029-0.045l-0.039-0.021l-0.032-0.008l-0.076,0.003l-0.064,0.025
			L35.11,2.065l-0.278,0.199l-0.116,0.064l-0.124,0.037L34.43,2.389l-0.174,0.016l-0.284-0.013h-0.239L33.63,2.434l-0.128,0.038
			l-0.204,0.054l-0.303,0.048l-0.207,0.008l-0.154-0.018l-0.072-0.034l-0.047-0.054l-0.094-0.14l-0.052-0.049l-0.071-0.012
			l-0.136,0.01l-0.124,0.037l-0.156,0.02l-0.152,0.01l-0.102,0.05l-0.089,0.068l-0.045,0.08l-0.028,0.089l-0.015,0.13l-0.01,0.171
			l-0.021,0.088l-0.078,0.082L30.94,3.452l-0.078,0.053l-0.114,0.053l-0.087,0.017l-0.153-0.008l-0.17-0.03L30.14,3.502l-0.07,0.003
			l-0.031,0.024l-0.03,0.042l0.014,0.05l0.062,0.039l0.003,0.042l-0.036,0.056l-0.047,0.043l-0.069,0.021L29.828,3.85l-0.096,0.068
			l-0.096,0.045l-0.119,0.009l-0.284-0.003l-0.158-0.031l-0.052-0.035l-0.047-0.072l-0.046-0.035l-0.065-0.011l-0.076,0.003
			l-0.08,0.031l-0.025,0.033l-0.046,0.075l-0.034,0.062l-0.079,0.058l-0.157,0.103l-0.245,0.102L27.934,4.31l-0.118,0.025
			l-0.092,0.008l-0.114,0.014l-0.072,0.049l-0.162,0.135l-0.058,0.048l-0.054,0.034l-0.048,0.021L27.15,4.646l-0.146-0.003
			l-0.119,0.009L26.81,4.664l-0.057,0.066l-0.041,0.043l-0.04,0.084l-0.057,0.058l-0.054,0.039l-0.048,0.02l-0.106,0.032
			l-0.042,0.029l-0.034,0.057L26.31,5.23l-0.023,0.056l-0.039,0.084l-0.071,0.081l-0.073,0.067l-0.1,0.073L25.78,5.719l-0.242,0.152
			l-0.145,0.066l-0.178,0.106l-0.131,0.098L24.97,6.238l-0.131,0.097l-0.115,0.073L24.528,6.62l-0.13,0.125l-0.095,0.062
			l-0.139,0.065l-0.219,0.101l-0.158,0.075l-0.101,0.068l-0.047,0.048l-0.036,0.024l-0.077,0.003l-0.092-0.005l-0.109-0.024
			L23.265,7.16l-0.087,0.003l-0.09,0.049L22.98,7.234L22.817,7.24l-0.181-0.006l-0.153-0.027l-0.189-0.013l-0.19,0.002l-0.25,0.019
			L21.709,7.25l-0.117,0.055l-0.069,0.03l-0.041,0.029l-0.036,0.053l-0.092,0.119l-0.112,0.12l-0.115,0.083L21.01,7.812
			l-0.144,0.061l-0.183,0.062l-0.135,0.023l-0.136,0.01l-0.142,0.006L20.04,8.011l-0.127,0.056l-0.078,0.067l-0.021,0.052
			l-0.011,0.106l0.032,0.086l0.023,0.055l0.015,0.021l-0.036,0.007l-0.102,0.04l-0.095,0.039l-0.123,0.041L19.39,8.607l-0.092,0.01
			l-0.134-0.032l-0.212-0.071l-0.146-0.026l-0.16,0.009l-0.279,0.004l-0.31,0.003l-0.192-0.038l-0.169-0.034l-0.084-0.039
			l-0.042-0.022l-0.033-0.003l-0.04,0.002l-0.058,0.008l-0.127,0.065l-0.114,0.079l-0.11,0.045l-0.095,0.035l-0.131,0.017
			L16.668,8.64l-0.073,0.014l-0.14,0.042l-0.169,0.116l-0.107,0.089l-0.136,0.105l-0.131,0.09l-0.077,0.043l-0.105,0.035
			l-0.129,0.037l-0.254,0.051l-0.117,0.036l-0.117,0.051L15,9.433l-0.117,0.041L14.78,9.5l-0.124,0.026l-0.073,0.004L14.506,9.5
			l-0.115-0.081l-0.054-0.036l-0.076-0.015l-0.209,0.041l-0.322,0.126l-0.172,0.078L13.461,9.7l-0.114,0.152l-0.136,0.227
			l-0.07,0.057l-0.216,0.105l-0.271,0.123l-0.164,0.106l-0.156,0.121l-0.202,0.196l-0.121,0.124l-0.141,0.11l-0.24,0.087
			l-0.324,0.102l-0.226,0.042l-0.145,0.071l-0.167,0.136l-0.09,0.093l-0.127,0.065l-0.137,0.076l-0.092,0.093l-0.054,0.11
			l-0.019,0.132l-0.006,0.064l-0.072,0.096l-0.141,0.125l-0.017,0.054l0.012,0.072l-0.032,0.089L9.94,12.594l-0.05,0.018
			l-0.067,0.009L9.72,12.627L9.61,12.62l-0.137,0.008l-0.068,0.009l-0.11,0.035L9.19,12.727l-0.049,0.042l-0.044,0.017l-0.052,0.003
			l-0.052-0.002l-0.049-0.031l-0.043-0.032l-0.036-0.021L8.82,12.705l-0.06,0.047l-0.194,0.143l-0.087,0.063l-0.016,0.02l0.01,0.111
			l-0.013,0.059l-0.036,0.046L8.38,13.215l-0.078,0.02l-0.157,0.043l-0.175,0.03l-0.107,0.025l-0.071,0.023L7.688,13.43l-0.163,0.18
			l-0.161,0.213l-0.202,0.245l-0.143,0.164l-0.082,0.039l-0.072,0.033L6.8,14.337l-0.112,0.026L6.4,14.361l-0.23-0.036l-0.12,0.007
			l-0.028,0.007l-0.104,0.054l-0.062,0.091l-0.114,0.138l-0.189,0.196l-0.136,0.095l-0.148,0.082l-0.181,0.103l-0.165,0.146
			l-0.104,0.137l-0.029,0.124l-0.001,0.272l0.019,0.242L4.78,16.342l-0.066,0.295l-0.052,0.149l-0.199,0.357l-0.224,0.431
			l-0.083,0.199l-0.104,0.322l-0.072,0.228l-0.009,0.181L4.015,18.7l0.102,0.329l0.109,0.291l0.023,0.066l0.007,0.087l0.006,0.072
			l-0.006,0.069L4.23,19.728l-0.019,0.06l0.006,0.062l0.005,0.063l0.011,0.057l0.005,0.058l-0.022,0.069l-0.038,0.09l-0.062,0.072
			L4.038,20.36l-0.037,0.1l-0.016,0.176l0.025,0.319l0.021,0.28l0.012,0.131l0.021,0.115l-0.026,0.157l-0.095,0.188l0.002,0.216
			l0.049,0.137l0.063,0.053l0.037,0.053l0.009,0.066l0.002,0.048L4.072,22.46l-0.047,0.073l-0.013,0.054l0.072,0.053l0.149,0.08
			l0.248,0.061l0.336,0.099l0.307,0.083l0.106,0.05l0.039,0.102l-0.01,0.139l-0.045,0.162l-0.029,0.188l0.024,0.102l0.061,0.125
			l0.152,0.158l0.201,0.127l0.186,0.068l0.211,0.013l0.331-0.007l0.281-0.006l0.231,0.007l0.164,0.026l0.26,0.014l0.099-0.002
			l0.146-0.027l0.153-0.039l0.106-0.002l0.146,0.02l0.157,0.07L8.2,24.354l0.097,0.147L8.4,24.668l0.167,0.176l0.18,0.074
			l0.092,0.004l0.14-0.026l0.167-0.052l0.237-0.106l0.187-0.125l0.199-0.153l0.096-0.111l0.047-0.09l-0.003-0.071l-0.002-0.065
			l-0.018-0.139l0.003-0.107l0.012-0.091l0.046-0.126l0.081-0.181l0.166-0.021l0.12,0.019l0.222,0.073l0.209-0.01l0.301-0.086
			l0.22-0.053l0.308,0.003l0.323,0.026l0.087,0.061l0.03,0.135l0.053,0.069l0.077-0.004l0.14-0.106l0.194-0.218l0.081-0.051
			l0.083-0.011l0.116,0.084l0.09,0.085l0.072,0.101l0.104,0.108l0.024,0.046l-0.005,0.035l-0.03,0.08l0.004,0.047l0.005,0.082
			l0.026,0.082l0.032,0.064l0.005,0.064l-0.031,0.072l-0.12,0.078l-0.132,0.018l-0.168-0.021l-0.285-0.086l-0.375-0.191
			l-0.338-0.149l-0.135-0.041l-0.11,0.029l-0.099-0.013l-0.047-0.076l-0.045-0.039l-0.033,0.002l-0.074,0.045l-0.032,0.043
			l-0.018,0.048l0.03,0.052l0.238,0.119l0.052,0.039l0.023,0.035l-0.032,0.049l-0.063,0.086l-0.038,0.057l0.004,0.047l0.101,0.048
			l0.259,0.012l0.51-0.001l0.26,0.023l0.318,0.068l0.385,0.022l0.204,0.032l0.153,0.016l0.115,0.048l0.174,0.099l0.123,0.071
			l0.114,0.036l0.058,0.027l0.018,0.041l-0.03,0.066l-0.072,0.075l-0.06,0.05l-0.08,0.051l-0.075,0.017l-0.09,0.01l-0.093-0.013
			l-0.052-0.057l-0.061-0.058L13.4,25.043l-0.05-0.017l-0.055,0.003l-0.101,0.088l-0.11,0.112l-0.105,0.095l-0.078,0.08l-0.069,0.1
			l-0.094,0.069l-0.062,0.021l-0.084-0.008l-0.108-0.054l-0.047-0.081l-0.074-0.068l-0.07-0.025l-0.07,0.003l-0.068,0.009
			l-0.114,0.047l-0.062,0.021l-0.084-0.008l-0.057-0.004l-0.057,0.002l-0.02,0.02l0.002,0.023l0.004,0.06l0.054,0.081l0.046,0.062
			l0.005,0.061l-0.013,0.042l-0.043,0.062l-0.107,0.053l-0.039,0.043l-0.005,0.035l0.004,0.061l0.073,0.057l0.095,0.049l0.069,0.015
			l0.104-0.028l0.144-0.055l0.074-0.027l0.07,0.01l0.09,0.084l0.098,0.014l0.125-0.006l0.068-0.016l0.115,0.047l0.141,0.023
			l0.133-0.006l0.105,0.02l0.086,0.043l0.037,0.039l0.004,0.053l-0.051,0.074l-0.119,0.102l-0.005,0.029l0.005,0.065l0.037,0.04
			l0.063,0.025l0.01,0.041l0.004,0.061l-0.036,0.066l-0.03,0.074l0.004,0.064l0.026,0.07l0.072,0.068l0.175,0.098l0.157,0.076
			l0.055,0.082l0.014,0.078l0.015,0.141l-0.019,0.125l-0.035,0.107l-0.058,0.086l-0.117,0.119l-0.17,0.072l-0.189,0.021l-0.181,0.07
			l-0.09,0.057l-0.062,0.049l-0.062,0.001l-0.1,0.002l-0.099,0.026l-0.109,0.074l-0.108,0.127l-0.053,0.157l-0.093,0.218
			l-0.03,0.139l-0.005,0.091l-0.061,0.085l-0.004,0.125l0.01,0.096l0.039,0.113l0.063,0.068l0.019,0.103l0.002,0.065l0.001,0.043
			l-0.02,0.055l-0.033,0.055l-0.056,0.073l-0.033,0.042l-0.041,0.014l-0.064-0.005l-0.035-0.028h-0.069l-0.041,0.037l-0.076,0.062
			l0.002,0.061l0.001,0.041l0.03,0.055l-0.006,0.054l-0.048,0.071l-0.081,0.129l-0.03,0.126l0.008,0.042l0.058,0.053l0.267,0.156
			l0.155,0.057l0.07-0.001l0.175-0.017l0.071-0.002l0.114,0.076l0.08,0.088l0.093,0.076l0.016,0.047l-0.02,0.037l-0.083,0.057
			l0.001,0.029l0.029,0.043l0.028,0.035l-0.02,0.065l-0.194,0.25l-0.154,0.199l-0.199,0.245l-0.084,0.074l-0.059,0.033h-0.053
			l-0.075-0.039l-0.241-0.213l-0.098-0.074l-0.064-0.021l-0.085,0.006l-0.042,0.033L11.2,32.062l-0.068,0.029l-0.058,0.041
			l0.001,0.051l0.013,0.031l0.054,0.025l0.075,0.004l0.07,0.033l0.06,0.062l0.029,0.068l0.002,0.049l-0.005,0.037l-0.021,0.041
			l-0.058,0.033l-0.053,0.023l-0.089,0.052l-0.066,0.065l-0.065,0.138L11,32.901l0.028,0.045l0.07,0.058l0.098,0.062l0.033,0.049
			l-0.01,0.051l-0.03,0.031l-0.048,0.002l-0.075-0.018l-0.071-0.062l-0.087-0.07l-0.064-0.053l-0.062-0.049l-0.068-0.027
			l-0.074,0.006l-0.066,0.047l-0.016,0.014l-0.025,0.028l-0.021,0.036l-0.037,0.021l-0.031,0.018L10.4,33.101l-0.079,0.017
			l-0.041,0.036l-0.041,0.063l-0.035,0.056l-0.047,0.052l-0.042,0.014l-0.048,0.002l-0.06-0.036L9.87,33.166l-0.163-0.127
			l-0.124-0.058l-0.069-0.007l-0.048,0.014l-0.11,0.066l-0.041,0.033l-0.01,0.041l0.007,0.031l0.066,0.104l0.014,0.1l-0.035,0.082
			l-0.065,0.083L9.208,33.58l-0.017,0.037l0.033,0.036l0.092,0.025l0.102-0.003l0.075,0.008l0.049,0.044l0.001,0.041l-0.024,0.05
			l-0.073,0.057l-0.156,0.076l-0.229,0.045l-0.073,0.039L8.972,34.08L9,34.121l0.086,0.016l0.044,0.035l0.001,0.051l-0.046,0.046
			l-0.06,0.006l-0.075-0.03l-0.075-0.049L8.82,34.188l-0.057,0.051l0.002,0.064l0.043,0.08l0.104,0.074l0.091,0.013l0.06,0.017
			l0.006,0.036L9.065,34.56l-0.057,0.063l-0.077,0.088l-0.072,0.098l-0.064,0.128l-0.061,0.129l0.003,0.067l0.064,0.072l0.023,0.053
			l-0.004,0.041l-0.062,0.078l-0.109,0.07l-0.104,0.039l-0.067,0.043l-0.046,0.086l-0.041,0.2l-0.054,0.142l-0.04,0.088
			l-0.089,0.061l-0.089,0.053l-0.074,0.006l-0.091-0.031l-0.091-0.01H7.794l-0.089,0.058l-0.141,0.122l-0.028,0.109l0.002,0.059
			l0.032,0.186L7.554,36.82L7.53,36.889l-0.12,0.089l-0.079,0.039l-0.053,0.001l-0.098-0.021l-0.093-0.074l-0.123-0.029
			l-0.059,0.006l-0.047,0.033l-0.036,0.033l-0.016,0.046l-0.037,0.005l-0.068-0.018l-0.135-0.056l-0.213-0.153l-0.076-0.076
			l-0.063-0.008l-0.062,0.028l-0.041,0.037l-0.104,0.075l-0.354,0.115l-0.261,0.091l-0.25,0.251l-0.187,0.186l-0.087,0.086v0.064
			L4.82,37.726l-0.201,0.121l-0.226,0.164l-0.073,0.13l-0.037,0.087l0.063,0.054l0.076,0.041l0.025,0.032l-0.023,0.108l-0.148,0.152
			l-0.201,0.088l-0.103-0.01l-0.179-0.128l-0.091-0.192l-0.179-0.149L3.358,38.14H3.27l-0.101,0.065l-0.086,0.152l0.064,0.194
			l0.015,0.097l-0.074,0.076L3.102,38.8l0.114,0.063l0.065,0.129l0.051,0.278L3.298,39.52l-0.251,0.176l-0.399,0.188l-0.188,0.109
			l-0.4,0.274l-0.312,0.251L1.41,40.834l-0.124,0.143l-0.011,0.098l0.002,0.107l-0.011,0.184l-0.05,0.065l-0.138,0.056l-0.177,0.067
			l-0.149,0.12l-0.137,0.121l0.001,0.129l0.001,0.086l0.041,0.15l0.307,0.276l0.091,0.129l0.001,0.087L0.996,42.75l-0.327,0.123
			l-0.111,0.098l-0.022,0.098v0.055l0.039,0.074l0.062,0.01l0.151-0.012l0.301-0.133l0.163-0.066l0.101-0.002l0.141,0.031
			l0.077,0.053l0.14,0.097l0.103,0.03h0.089l0.149-0.045l0.162-0.131l0.049-0.13L2.26,42.77L2.258,42.65l0.036-0.109l0.087-0.086
			l0.049-0.108l-0.001-0.108l-0.001-0.054l0.075-0.087l0.138-0.023l0.189-0.056l0.201-0.045l0.1-0.056l0.074-0.098l0.113-0.076
			l0.125-0.045l0.074-0.043l0.239-0.121l0.226-0.111l0.2-0.12l0.138-0.12l0.111-0.109l0.102-0.012l0.063,0.032l0.114,0.063
			l0.139-0.013l0.177-0.065l0.288-0.166l0.271-0.181l0.271-0.14l0.158-0.125l0.048-0.11l-0.001-0.097l-0.15-0.396l-0.052-0.289
			l0.013-0.207l0.191-0.166l0.159-0.084l0.112-0.002l0.177,0.041l0.355,0.092l0.322,0.012l0.192-0.016l0.417-0.101l0.241-0.058
			l0.256-0.098l0.146-0.029l0.145,0.013L9.004,38.9l0.441-0.023l0.328-0.033l0.279-0.116l0.193-0.093l0.104-0.059l0.074-0.062
			l0.044-0.046l0.032-0.093l0.021-0.11l0.027-0.071l0.024-0.045l0.045-0.029l0.161-0.037l0.229-0.028l0.252-0.024l0.161-0.041
			l0.108-0.041l0.028-0.041l-0.001-0.082l-0.021-0.074l-0.076-0.092l-0.059-0.099l-0.039-0.086l-0.001-0.077l0.051-0.052
			l0.061-0.033l0.087-0.004l0.136,0.015l0.087,0.027l0.083,0.002l0.116,0.005l0.094-0.04l0.056-0.074l0.021-0.072l0.021-0.086
			l0.003-0.07l-0.017-0.07l-0.024-0.07l-0.03-0.076l-0.038-0.07l-0.028-0.09l-0.021-0.096l0.003-0.117l0.027-0.073l0.033-0.058
			l0.056-0.065l0.057-0.052l0.123-0.079l0.119-0.062l0.077-0.033l0.092-0.029l0.136-0.034l0.057-0.004l0.063,0.013l0.075,0.021
			l0.099,0.038l0.054,0.051l0.08,0.062l0.05,0.045l0.062,0.008l0.078-0.014l0.045-0.035l0.037-0.045l0.024-0.059l0.007-0.052
			l0.025-0.052l0.025-0.025l0.045-0.023h0.029l0.049-0.014l0.03-0.018l0.052-0.025l0.045-0.042l0.015-0.045l-0.005-0.067
			l-0.034-0.054l-0.051-0.093l-0.051-0.09l-0.034-0.073l-0.002-0.058l0.01-0.106l0.014-0.093l0.033-0.059l0.049-0.08l0.057-0.068
			l0.074-0.057l0.07-0.039l0.09-0.037l0.149-0.053l0.14-0.011l0.222-0.017l0.15,0.002l0.099,0.005l0.161,0.008l0.162-0.005
			l0.087-0.018l0.09-0.023l0.029-0.029l0.044-0.045l0.041-0.068l0.033-0.028l0.037-0.032l0.06-0.02l0.064-0.018l0.176-0.023
			l0.248-0.015l0.268-0.016l0.136-0.009l0.207-0.019l0.17-0.019l0.176-0.023l0.146-0.029l0.154-0.027l0.184-0.062l0.21-0.08
			l0.139-0.057l0.127-0.031l0.083-0.004l0.091,0.006l0.109,0.045l0.061,0.037l0.106,0.047l0.084,0.045l0.07,0.03l0.079,0.005
			l0.054-0.007l0.091-0.007l0.104-0.053l0.164-0.111l0.143-0.104l0.114-0.094l0.156-0.144l0.104-0.079l0.107-0.068l0.153-0.088
			l0.146-0.07l0.097-0.051l0.04-0.041l0.033-0.074l0.028-0.062l0.044-0.049l0.067-0.064l0.045-0.018l0.071-0.004l0.154,0.021
			l0.109,0.037l0.095,0.045l0.084,0.062l0.1,0.057l0.091,0.024l0.079-0.001l0.075-0.023l0.048-0.052l0.044-0.063l0.021-0.06
			l0.021-0.067l0.142-0.264l0.173-0.115l0.202-0.109l0.087-0.051l0.066-0.045l0.164-0.066l0.117-0.018l0.137-0.031l0.088-0.039
			l0.127-0.084l0.093-0.074l0.152-0.126l0.14-0.113l0.136-0.053l0.124-0.03l0.168,0.018l0.076-0.004l0.132-0.013l0.135-0.065
			l0.053-0.043l0.068-0.027l0.159-0.008l0.083-0.004l0.09-0.016l0.065-0.051l0.04-0.025l0.042-0.002l0.083,0.002l0.075-0.015
			l0.112,0.007l0.063,0.026l0.219,0.146l0.302,0.146l0.071,0.038l0.137,0.075l0.069,0.111l0.031,0.075l0.038,0.052l0.034,0.004
			l0.131-0.022l0.143-0.078l0.072-0.051l0.026-0.031l-0.017-0.035l-0.058-0.026l-0.018-0.06l-0.003-0.042l0.052-0.062l-0.002-0.028
			L25.9,31.742l-0.036-0.018l-0.051-0.027l-0.044-0.045l-0.01-0.029l0.012-0.049l0.085-0.099l0.139-0.101l0.065-0.074l0.018-0.055
			l-0.033-0.094l-0.067-0.086l-0.017-0.033l-0.005-0.065l0.063-0.104l0.072-0.062l0.049-0.002l0.127,0.018l0.102-0.039l0.064-0.08
			l0.062-0.099l0.04-0.031l0.055-0.009l0.077-0.003l0.081-0.033l0.054-0.038l0.048-0.025l0.073-0.027l0.104-0.018l0.074-0.057
			l0.08-0.045l0.123-0.035l0.066-0.045l0.048-0.008l0.042,0.004l0.035,0.01l0.056-0.002l0.081-0.039l0.05-0.008l0.042,0.016
			l0.025,0.076l0.022,0.034l0.044,0.034l0.038,0.04l0.002,0.034l-0.03,0.08l-0.03,0.066l-0.024,0.055l0.003,0.041l0.058,0.033
			l0.03,0.034l0.021,0.041l0.006,0.077l0.003,0.047l0.037,0.047l0.137,0.047l0.063,0.032l0.029,0.028l0.002,0.029l-0.024,0.056
			l-0.012,0.036l0.002,0.035l0.037,0.039l0.099,0.025l0.031,0.04l-0.012,0.042l-0.038,0.061l-0.003,0.066l0.043,0.027l0.062,0.009
			l0.179-0.056l0.119-0.094l0.129-0.06l0.164-0.049l0.187-0.032l0.348-0.068l0.188-0.021l0.326-0.008l0.119,0.018l0.052,0.039
			l0.076,0.109l0.04,0.094l0.006,0.083l-0.021,0.114l-0.009,0.089l0.032,0.075l0.08,0.045l0.056-0.002l0.108-0.041l0.069-0.098
			l0.086-0.082l0.04-0.025l0.069-0.002l0.036,0.016l0.029,0.021l0.056-0.002l0.02-0.019l0.056-0.021l0.11,0.002l0.077,0.02
			l0.09-0.01l0.121-0.071l0.053-0.067l-0.004-0.047l-0.03-0.053l-0.085-0.025l-0.07-0.016l-0.069,0.004l-0.042-0.011l-0.064-0.045
			l-0.018-0.035l-0.003-0.047l0.03-0.091l0.018-0.061l-0.002-0.018l-0.022-0.041l-0.037-0.034l-0.029-0.028l-0.017-0.041
			L30.992,30.8l0.01-0.048l0.082-0.039l0.205-0.045l0.144-0.061l0.012-0.042l0.015-0.106l-0.021-0.112l-0.039-0.063l-0.029-0.021
			l-0.105-0.014l-0.092-0.037l-0.045-0.051l-0.035-0.105l-0.051-0.152l-0.064-0.044l-0.058-0.016l-0.117,0.017l-0.139,0.006
			l-0.188,0.008l-0.169-0.033l-0.229-0.086l-0.195-0.121l-0.072-0.057l-0.048-0.086l-0.014-0.105l-0.03-0.04l-0.043-0.011
			l-0.033,0.002l-0.049,0.02l-0.024,0.042l-0.065,0.067l-0.047,0.027l-0.09,0.01l-0.069,0.002l-0.041,0.015l-0.047,0.032
			l-0.024,0.029l-0.021,0.025l-0.042,0.008l-0.048,0.002l-0.078-0.021l-0.124-0.091l-0.184-0.151L28.567,29.3l-0.084-0.009
			l-0.106-0.037l-0.196-0.139L28.04,28.99l-0.076-0.111l-0.104-0.125l-0.115-0.059l-0.053-0.064l0.039-0.055l0.078-0.086
			l0.018-0.062l-0.024-0.046l-0.105-0.037l-0.053-0.057l-0.017-0.041l0.011-0.066l0.047-0.032l0.067-0.021h0.111l0.078,0.025
			l0.049-0.002l0.068-0.021l0.043-0.084l0.03-0.061l0.068-0.027l0.033-0.012l0.078,0.025l0.052,0.033l0.061,0.08l0.116,0.09
			l0.123,0.066l0.064,0.026l0.084,0.009l0.115-0.054l0.052-0.067l0.05-0.084l0.017-0.078l0.01-0.19l0.051-0.091l0.061-0.032
			l0.111-0.005l0.096-0.021l0.039-0.045l0.031-0.055l0.034-0.014l0.056-0.002l0.156,0.041l0.201,0.099l0.164,0.075l0.163,0.154
			l0.158,0.1l0.086,0.031l0.076-0.01l0.039-0.049l-0.004-0.053l-0.052-0.045l-0.003-0.053l0.002-0.072l0.055-0.038l-0.018-0.041
			l-0.036-0.022l-0.07-0.015l-0.099-0.024l-0.051-0.039l-0.093-0.021l-0.219-0.032l-0.086-0.031l-0.115-0.061l-0.063-0.051
			l-0.1-0.161l-0.018-0.171l0.021-0.125l0.108-0.165l0.042-0.097l0.006-0.144l-0.012-0.188l-0.047-0.194l0.026-0.132l0.038-0.055
			l0.104-0.041l0.271,0.013l0.142,0.005l0.085,0.031l0.047,0.076l0.003,0.059l-0.006,0.137l0.002,0.137l0.024,0.064l0.074,0.074
			l0.049,0.016l0.08,0.051l0.066,0.055l0.08,0.068l0.227,0.049l0.215-0.01l0.106,0.02l0.124-0.023l0.155-0.084l0.177-0.186
			l0.085-0.077l0.184,0.169l0.085,0.089l0.119,0.103l0.073,0.047l0.104,0.047l0.104,0.033l0.086-0.012l0.119-0.005l0.114,0.022
			l0.216,0.08l0.231,0.084l0.138,0.056l0.175,0.118l0.132,0.138l0.171,0.179l0.068,0.075l0.062,0.075l0.033,0.035l0.072,0.029
			l0.088,0.029l0.169,0.018l0.103-0.018l0.161-0.035l0.174,0.008l0.146,0.021l0.067,0.049l0.074,0.08l0.108,0.033l0.16,0.049
			l0.195,0.021L35.943,28l0.373-0.027l0.112-0.018l0.059-0.025l0.047-0.029l0.042-0.029l0.086-0.008l0.082-0.004l0.062,0.03
			l0.062,0.039L36.914,28l0.03,0.06l0.041,0.06l0.057,0.035l0.076,0.029l0.07,0.006l0.087,0.002l0.114,0.004l0.088,0.034
			l0.056,0.042l0.039,0.021l0.071,0.021l0.059-0.007l0.05-0.016h0.097l0.122,0.052l0.096,0.071l0.126,0.037l0.158,0.018l0.094,0.033
			l0.104,0.039l0.073,0.048l0.056,0.049l0.013,0.037l0.001,0.129l0.008,0.161l0.023,0.133l0.026,0.1l0.02,0.078l0.062,0.053
			l0.175,0.146l0.065-0.051l0.099-0.045l0.082-0.065l0.059-0.044l0.052-0.061l0.047-0.055l0.062-0.068l0.069-0.07l0.016-0.038
			l0.019-0.073l0.012-0.064l0.006-0.135l-0.007-0.211l-0.002-0.088l0.019-0.062l0.023-0.044l0.029-0.048l0.043-0.033l0.031-0.03
			l0.015-0.041l0.009-0.043l0.021-0.077l0.011-0.058l0.02-0.052l0.054-0.114l0.05-0.078l0.052-0.073l0.019-0.041l0.011-0.055
			L40,27.49l0.004-0.041l-0.018-0.026l-0.03-0.021l-0.045-0.025l-0.035-0.036l-0.019-0.062v-0.057l0.007-0.051l0.022-0.037
			l0.055-0.055l0.066-0.047l0.039-0.027l0.03-0.038l0.02-0.033l0.026-0.069l0.059-0.078l0.043-0.071l0.021-0.07l0.026-0.085
			l0.026-0.07l0.033-0.064l0.017-0.023l0.051-0.037l0.113-0.076l0.199-0.135l0.168-0.127l0.305-0.221l0.148-0.109l0.108-0.108
			l0.136-0.166l0.104-0.118l0.114-0.21l0.071-0.209l0.042-0.158l0.002-0.087v-0.059l-0.003-0.18l-0.014-0.099l-0.018-0.069
			l-0.041-0.111l-0.032-0.047l-0.039-0.053l-0.097-0.039l-0.114-0.025l-0.049-0.036l-0.021-0.027l-0.004-0.043l0.011-0.03
			l0.021-0.051l0.021-0.037l0.074-0.062l0.129-0.089l0.102-0.062l0.079-0.035l0.079-0.014l0.074-0.014l0.111-0.012l0.134-0.039
			l0.082-0.027l0.031-0.03l0.019-0.037l0.012-0.054l-0.004-0.037l-0.001-0.047l-0.013-0.034l0.012-0.034l0.023-0.033l0.025-0.031
			l0.052-0.033l0.121-0.092l0.125-0.109l0.097-0.105l0.031-0.061l0.003-0.044l-0.001-0.037l-0.04-0.087l-0.032-0.056l-0.057-0.067
			l-0.062-0.12l-0.033-0.07l-0.028-0.097v-0.034l0.011-0.027l0.017-0.014l0.021-0.014l0.051-0.007l0.061-0.003l0.043-0.021
			l0.019-0.021l0.027-0.031l0.016-0.047l0.003-0.041l-0.013-0.05l-0.018-0.067l-0.005-0.067l0.007-0.058l0.013-0.034l0.02-0.03
			l0.031-0.041l0.035-0.017l0.034-0.031l0.03-0.021l0.021-0.024l0.012-0.03l0.021-0.033l0.069-0.102l0.073-0.064l0.078-0.055
			l0.079-0.035l0.138-0.059l0.133-0.059l0.047-0.027l0.027-0.034l0.021-0.037l0.046-0.084l0.039-0.047l0.034-0.031l0.06-0.027
			l0.204-0.076l0.26-0.094l0.201-0.122l0.065-0.041l0.052-0.044l0.03-0.037l0.023-0.067l0.018-0.081l0.008-0.121l0.003-0.043
			l0.016-0.024l-0.129-0.078l-0.113-0.112l-0.099-0.125l-0.101-0.149l-0.062-0.164l-0.043-0.105l-0.053-0.077L44.161,19
			l-0.135-0.092l-0.168-0.114l-0.119-0.107l-0.068-0.085l-0.045-0.109l-0.009-0.087l0.004-0.133l-0.027-0.142l-0.062-0.067
			l-0.072-0.035l-0.114-0.028l-0.137,0.005h-0.146l-0.144-0.041l-0.139-0.046l-0.129-0.074l-0.101-0.07l-0.076-0.099l-0.043-0.123
			l-0.021-0.119l-0.004-0.18l0.031-0.121l0.124-0.378l0.025-0.121l0.016-0.125l-0.016-0.193l-0.036-0.086l-0.124-0.102l-0.131-0.102
			l-0.069-0.089l-0.054-0.123l-0.013-0.124l-0.021-0.105l-0.029-0.045l-0.062-0.054l-0.099-0.02l-0.099-0.02l-0.051-0.04
			l-0.053-0.062l-0.015-0.078l0.007-0.083l0.064-0.122l0.055-0.113L41.9,14.8l-0.001-0.062l-0.015-0.073l-0.06-0.09l-0.078-0.052
			l-0.066-0.035l-0.177-0.049l-0.072-0.048l-0.036-0.059l-0.008-0.074l0.031-0.107l0.008-0.097l-0.032-0.087l-0.04-0.035
			l-0.062-0.021l-0.098,0.003l-0.074,0.026l-0.03,0.033l-0.021,0.056l-0.029,0.065l-0.034,0.043l-0.043,0.038l-0.063,0.03
			l-0.063,0.021l-0.053,0.029l-0.025,0.024l-0.016,0.033l0.002,0.046l-0.018,0.074l-0.009,0.051l-0.03,0.056l-0.044,0.094
			l-0.062,0.072l-0.225,0.188l-0.152,0.117l-0.084,0.053l-0.08,0.021l-0.098-0.001l-0.182-0.04l-0.179-0.072l-0.188-0.053
			L39.253,14.9l-0.107,0.013l-0.127,0.056l-0.122,0.069l-0.107,0.027l-0.167-0.004l-0.056-0.035l-0.063-0.062l-0.102-0.314
			l-0.062-0.275l-0.23-0.495l-0.13-0.222l-0.158-0.234l-0.184-0.14l-0.048-0.063l-0.024-0.091l-0.011-0.096l0.021-0.089l0.061-0.099
			l0.046-0.085l0.06-0.113l-0.003-0.055l-0.023-0.055l-0.062-0.058l-0.057-0.021l-0.082-0.016l-0.076,0.003l-0.097,0.031
			l-0.186,0.113l-0.414,0.204l-0.19,0.09l-0.194,0.123l-0.191,0.081l-0.146,0.033l-0.099,0.013l-0.082-0.011l-0.088-0.024
			l-0.071-0.03l-0.045-0.035l-0.026-0.087l0.001-0.087l-0.021-0.101l-0.023-0.069l-0.045-0.03l-0.077-0.021l-0.076,0.017
			l-0.101,0.041l-0.12-0.005l-0.11-0.028l-0.066-0.039l-0.035-0.054l-0.01-0.069l0.014-0.065l0.059-0.03l0.111-0.073l0.041-0.039
			l0.019-0.065l0.018-0.098l0.057-0.058l0.107-0.041l0.253-0.046l0.188-0.057l0.128-0.05l0.036-0.038l0.057-0.09l0.047-0.154
			l0.022-0.079l0.086-0.118l0.083-0.091l0.067-0.058l0.088-0.086L36.5,11l0.049-0.131l0.01-0.121l-0.005-0.115l-0.02-0.045
			l-0.046-0.035l-0.062-0.062l-0.074-0.062l-0.064-0.085l-0.021-0.091l-0.022-0.133l0.002-0.166l-0.023-0.151l-0.041-0.059
			l-0.084-0.047L36.02,9.632l-0.037-0.073L35.901,9.35l-0.05-0.141l-0.069-0.072l-0.062-0.044l-0.123-0.079l-0.152-0.096
			L35.42,8.812l0.018-0.075l0.033-0.093l-0.002-0.05L35.434,8.55l-0.119-0.088l-0.13-0.101L34.98,8.249l-0.194-0.067l-0.148-0.041
			l-0.273-0.032L34.26,8.076l-0.111-0.065l-0.054-0.076l-0.043-0.1l0.003-0.591l0.007-0.088l0.056-0.076L34.2,6.999l0.074-0.049
			l0.112-0.027l0.199-0.04l0.131-0.014l0.16-0.057l0.17-0.089L35.1,6.684l0.035-0.057l0.014-0.056l-0.034-0.104L35.109,6.37
			l0.051-0.182l0.062-0.104l0.047-0.034l0.053-0.021l0.077-0.002l0.099,0.019l0.12,0.01l0.168-0.015l0.319-0.044l0.422-0.07
			l0.335-0.049L37.1,5.851h0.136l0.182,0.035l0.192,0.03l0.181,0.007l0.199,0.005l0.205-0.035l0.332-0.109l0.207-0.123l0.166-0.158
			l0.049-0.104l0.129-0.342l0.04-0.23l-0.039-0.128l-0.041-0.054l-0.056-0.03L38.877,4.6l-0.195-0.012L38.565,4.56l-0.083-0.039
			l-0.03-0.054l-0.015-0.069l0.028-0.065l0.111-0.073l0.139-0.06l0.308-0.112l0.149-0.061l0.128-0.087l0.107-0.11l0.077-0.104
			l0.03-0.042l0.08-0.035l0.197-0.058l0.118-0.041l0.069-0.039l0.039-0.075l0.022-0.103l0.077-0.085l0.106-0.059l0.148-0.056
			l0.053-0.048l0.027-0.093L40.45,2.905l-0.083-0.429l-0.062-0.197l-0.089-0.375L40.168,1.48L40.16,1.107l0.03-0.163l0.053-0.15
			l0.089-0.17l0.01-0.042L40.323,0.534"/>
	</g>
</g>
<g id="Layer_1">
</g>
</svg>
