<?xml version="1.0" encoding="utf-8"?>
<!-- Generator: Adobe Illustrator 16.0.4, SVG Export Plug-In . SVG Version: 6.00 Build 0)  -->
<!DOCTYPE svg PUBLIC "-//W3C//DTD SVG 1.1//EN" "http://www.w3.org/Graphics/SVG/1.1/DTD/svg11.dtd">
<svg version="1.1" id="Layer_1" xmlns="http://www.w3.org/2000/svg" xmlns:xlink="http://www.w3.org/1999/xlink" x="0px" y="0px"
	 width="301.859px" height="317.019px" viewBox="-103.733 -109.359 301.859 317.019"
	 style="enable-background:new -103.733 -109.359 301.859 317.019;" xml:space="preserve">
<g id="Layer_38">
	<path id="Swat" style="fill:#CCCCCC;stroke:#FFFFFF;stroke-width:1.15;" d="M155.157-92.715L155.157-92.715l-0.337-0.007
		l-0.72-0.48l-0.027-0.019l-0.429-0.084l-1.017-0.2l-1.059-0.207l-0.791,0.357l-2.66,0.128l-2.146-0.583l-3.603-3.887l-2.366-1.15
		l-1.176-0.631l-2.376,0.29l-0.82-0.054l-0.605-0.814l-4.242-1.71l-3.197,0.129l-1.843,0.546l-1.013,0.485l-0.744-0.712
		l-0.472-0.805l-0.796-0.272l-1.129,0.26l-1.632-0.104l-1.754-0.555l-1.252,0.252l-0.456,0.303l-0.438,0.194l-1.096-0.069
		l-1.473-0.535l-1.133-0.957l-1.509-0.094l-4.024,0.301l-2.998,1.028l3.067,1.956l0.72,0.906l0.192,0.542l0.322,0.529l0.547,0.915
		l0.8,0.831l0.303,0.508l0.386,0.302l1.096,0.854l1.342,0.577l0.505,0.221l1.111,0.281l1.978,0.512l0.906,0.179h0.752l3.604,0.397
		l0.799,0.181l0.152,0.132l0.353,0.305l0.211,0.397l0.258,0.544l0.287,1.193l0.906,0.763l2.608,0.069l0.833,0.18l0.588,0.283
		l0.603,0.294l0.849,0.649l0.089,0.075l1.221,1.702l0.129,0.179l0.397,0.395l0.184,0.58l0.796,1.517l0.202,1.014l0.052,0.216
		l-0.076,1.956l-0.055,0.138l-0.185,0.586l-0.354,0.819l-0.441,0.99l-0.856,0.758l-0.043,0.038l-0.205,0.087l-0.407,0.167
		l-1.592,0.034l-0.024-0.003l-0.704-0.175l-1.212-0.536l-0.092-0.044l-0.343-0.119l-2.406-0.822l-1.659-0.326l-1.772-0.036
		l-0.977,0.146l-0.472,0.068l-1.81,0.688l-0.033,0.006l-0.763,0.139l-3.859-0.979l-0.561,0.057l-0.199,0.019l-1.305,0.395
		l-0.367,0.245l-0.68,0.445l-0.468,0.504l-0.449,0.191l-0.064,0.025l-0.604,0.253l-0.447,0.07l-0.943,0.149l-2.182-0.095
		l-1.24-0.052l-6.223-0.472l-0.523-0.456l-0.383-0.34l-1.374-1.804l-0.724-0.218l-1.463,0.032l-0.129,0.003l-3.508,0.724
		l-2.534-0.106l-1.108-0.129l-1.675-0.197l-1.484-0.261l-1.81-0.314l-2.256-1.146l-0.242-0.126l-0.615-0.215l-0.293-0.17
		l-0.833-0.482l-0.979-0.283l-0.652-0.187l-0.72-0.073l-2.954,0.307l-0.869,0.091l-0.377-0.049l-0.456-0.06l-0.52,0.1l-1.544,0.299
		l-1.304,0.436l-1.552,1.05l-0.35,0.085l-0.257,0.059l-0.612,0.326l-0.648,0.072l-0.33,0.138l-0.285,0.113l-1.375,0.291
		l-3.872,1.229l-0.689,0.072l-0.403,0.101L52.85-77.38l-2.286,0.216l-1.776-0.132l-1.687-0.125l-0.583-0.123l-0.949-0.2l-2.483-0.85
		l-0.373-0.129l-0.599-0.065L41.061-78.9l-2,0.539l-2.896,2.097l-0.58,0.326l-1.241,0.471l-2.787,0.433l-1.633,0.147l-0.758-0.039
		l-0.618,0.173l-0.176,0.045l-0.949,0.651l-0.355,0.507l-0.326,1.412l0.032,0.263l0.051,0.313l0.438,1.81l0.077,0.152l0.718,1.367
		l0.184,0.542l0.957,1.552l0.539,0.871l0.358,1.699l-0.28,0.684l-0.019,0.04l-1.633,1.627l-0.251,0.577L27.512-60.1l-0.05,0.135
		l-0.348,1.133l-0.359,0.542l-0.616,1.914l-0.58,1.229l-0.024,0.022l-0.335,0.375l-1.444,1.146l-0.464,0.376l-1.599,0.979
		l-1.038,0.517l-1.209,0.603l-1.51,0.448l-1.047,0.309l-0.32,0.227l-0.672,0.498l0.188,1.229l-0.04,1.343l-0.148,0.326l-0.141,0.326
		l-0.094,0.065l-0.329,0.257l-0.615,0.255l-3.36-0.146l-1.585,0.2l-0.697,0.089l-0.065,0.012l-0.559,0.132l-2.094,0.906L6.03-44.514
		L5.444-44.37l-1.122,0.649L3.93-43.325l-0.408,0.4l-0.289,0.58l-0.398,1.34l-0.115,1.122l-0.173,1.695l-0.762,3.47l-0.326,0.652
		l-0.069,0.095l-0.249,0.3l-0.544,0.398l-1.116,0.577l-1.194,0.47l-2.674,1.313l-0.12,0.06l-0.117,0.092l-0.823,0.632L-7-29.188
		l-1.953,1.444l-1.43,0.806l-0.311,0.17l-0.695,0.071l-1.088,0.471l-0.927,0.313l-1.64,0.555l-0.637,0.266l-0.473,0.201
		l-1.154,0.651l-0.843,0.989l-0.326,0.386l-0.072,0.146l-0.182,0.356l-0.47,0.47l-0.194,0.39l-0.066,0.119l-0.433,0.395
		l-0.398,0.652l-1.238,1.157l-1.765,0.651l-1.695,0.037l-1.413-0.542l-3.292-0.508l-1.14,0.179l-1.172,0.186l-1.583,0.674
		l-0.113,0.05l-2.1,1.373l-0.797,0.834l-0.563,0.712l-0.523,0.664l-0.744,1.084l-0.075,0.227l-0.392,1.071l-0.097,0.652
		l-0.326,0.726l-0.104,0.686l-0.012,0.152l-0.09,1.183l0.049,0.815l0.029,0.485l0.06,0.343l0.024,0.165l0.144,0.317l0.149,0.332
		l0.108,0.529l0.251,1.173l-0.072,0.912l-0.038,0.427l-0.207,0.536l-0.3,0.765l-1.471,2.128l-0.226,0.332l-0.583,1.157l-0.186,0.73
		l-0.326,1.404l0.437,2.385l0.297,0.471l0.326,0.508l1.483,1.737l0.502,0.356l0.513,0.367l1.106,1.02l0.669,0.607l0.59,0.979
		l0.218,0.542l0.098,0.721l0.069,0.508v0.614l-0.314,0.978l-0.969,1.991l-1.508,1.956l-0.592,1.104l-0.598,1.103l-0.188,0.58
		l-0.87,1.527l-0.432,0.748l-0.183,0.509l-1.013,1.555l-0.252,0.58l-0.146,1.338l0.128,0.11l-0.796,0.574l-0.303,0.246l-0.302,0.373
		l-0.066,0.096l-0.188,0.324l0.134,0.564l0.032,0.104l0.194,0.375l-0.186,0.379l-0.2,0.512l-0.036,0.104l-0.119,0.347l-0.417,0.022
		l-0.389,0.223l-0.316,0.323l-0.072,0.272l-0.091,0.294l-0.053,0.266l-0.065,0.258l-0.167,0.257l-0.219,0.113l-0.266,0.135
		l-0.421,0.098l-0.372,0.04l-0.329,0.06l-0.445,0.113l-0.329,0.126l-0.254,0.125l-0.41,0.201l-0.277,0.222l-0.075,0.251
		l-0.081,0.542l-0.185,0.232l-0.194,0.254l-0.176,0.21l-0.579,0.2l-0.417,0.123l-0.264,0.081l-0.354,0.047l-0.852-0.009
		l-0.568-0.242L-53.667,37l-0.52-0.046l-0.311,0.156l-0.363,0.223l-0.304,0.247l-0.024,0.019l-0.195,0.173l-0.295,0.294l-0.3,0.405
		l-0.098,0.192l-0.165,0.325l0.165,0.467l0.066,0.075l0.194,0.251l-0.12,0.313l-0.189,0.261l-0.326,0.326l-0.202,0.332l0.12,0.451
		l0.057,0.385l-0.153,0.304l-0.361,0.428l-0.257,0.266l-0.213,0.222l-0.278,0.242l-0.194,0.177l-0.298,0.18l-0.458,0.245
		l-0.263,0.135l-0.455,0.224l-0.204,0.112l-0.354,0.188l-0.06,0.032l-0.323,0.175l-0.134,0.424l-0.254,0.178l-0.176,0.051
		l-0.363,0.085l-0.267,0.097l-0.151,0.088l-0.288,0.197l-0.263,0.427l-0.263,0.06l-0.374,0.084l-0.392-0.179l-0.455-0.188
		l-0.281-0.031l-0.562-0.027l-0.267-0.06l-0.436-0.099l-0.326-0.094l-0.281-0.084l-0.592,0.069l-0.188,0.267l-0.389,0.385
		l-0.293,0.264l-0.47,0.132l-0.286,0.03l-0.354,0.039l-0.042-0.273l-0.044-0.311l-0.028-0.346l-0.138-0.249l-0.012-0.026
		l-0.134-0.229l-0.126-0.266l-0.05-0.261l0.041-0.283l0.049-0.362l-0.021-0.06l-0.05-0.141l-0.386-0.099l-0.366,0.069l-0.214,0.141
		l-0.329,0.286l-0.444,0.332l-0.211,0.182l-0.344,0.31l-0.091,0.396l-0.343,0.076l-0.658,2.15l-0.075,0.267l-0.06,0.281
		l-0.184,0.386l-0.34,0.348l0.066,0.41l-0.016,0.164l-0.179,0.132l-0.356,0.445l-0.044,0.304l-0.251,0.129l-0.168,0.423l-0.104,0.27
		l-0.294,0.502l-0.066,0.677l-0.101,0.364h-0.006l-0.021,0.281l-0.009,0.102l-0.11,0.34l-0.147,0.312l-0.29,0.373l-0.194,0.271
		l-0.209,0.348l-0.194,0.463l0.053,0.523l-0.12,0.432l-0.012,0.04l-0.26,0.212l-0.195,0.192l0.025,0.575l0.188,0.435l0.003,0.006
		l-0.134,0.227l-0.176,0.264l-0.255,0.242l-0.364,0.333l-0.219,0.38l-0.047,0.306l-0.01,0.073l0.096,0.68l-0.027,0.136l-0.075,0.187
		l-0.236,0.174l-0.589,0.27l-0.427,0.575l-0.19,0.233l-0.352,0.321l-0.294,0.358l-0.266,0.116l-0.655,0.227l-0.263,0.089
		l-0.343,0.009l-0.473,0.013l-0.404,0.306l-0.216,0.34l-0.646,0.555l0.065,0.306l0.066,0.261l0.135,0.468l0.054,0.288l0.132,0.275
		l0.234,0.144l0.101,0.248l0.389,0.521h0.003l0.276,0.205l0.326,0.224l0.229,0.195l0.271,0.27l0.003,0.006l0.288,0.251l0.649,0.196
		l0.313,0.086l0.59,0.098l0.476,0.07l0.703,0.193l0.282,0.34l0.332,0.138l0.218,0.499l0.156,0.532l0.297,0.267l0.194,0.398
		l0.271,0.505l0.422,0.584l0.458,0.644l0.304,0.214l0.449,0.325l0.263,0.189l0.309,0.3l0.527,0.523l0.345,0.192l0.68,0.367
		l0.743,0.071l0.637,0.113l0.326,0.189l0.06,0.076l0.11,0.044l0.168,0.18v0.006l0.125,0.426l-0.093,0.392l0.326,0.387l0.583,0.7
		l0.457,0.098l0.374,0.08l0.596,0.116l0.26,0.166l0.476-0.261l3.344,1.583l0.815,0.227l0.599,0.538V79.8l0.168,0.21l0.295,0.264
		l-0.219,0.325l-0.382,0.131l-0.415,0.248l-0.254,0.221l-0.422,0.297l-0.281,0.192l-0.521,0.35l-0.598,0.162l-0.458,0.257
		l-0.299,0.478l-0.009,0.649l0.294,0.247l0.065,0.308l0.173,0.541l0.752,0.156l0.405,0.153l0.551,0.221l0.562,0.416l0.407,1.634
		l0.006,0.249l0.458,0.522l0.09,0.423l-0.351,0.472l-0.006,0.012l-0.379,0.542l-0.429,0.634l-0.336,0.548l-0.184,0.276l-0.227,0.591
		l-0.404,0.474l-0.047,0.315l-0.075,0.502l-0.065,0.48l-0.082,0.561l-0.047,0.312l-0.066,0.387l0.329,0.554l0.245,0.854l0.571,0.508
		l0.536,0.443l0.56,0.393v0.416l-0.003,0.291v0.224l-0.455,0.29l-0.291,0.242l-0.191,0.413l-0.06,0.318l-0.028,0.322l0.248,0.257
		l-0.194,0.115l0.019,0.064l-0.371,0.147l-0.291,0.159l-0.589,0.055l-0.493,0.05l-0.36,0.116l-1.136,0.135l-0.865,0.034l-0.482-0.12
		l-0.388,0.066l-0.066,0.096l-0.148,0.224l-0.175,0.264l-0.095,0.323l-0.153,0.264l-0.58,0.275l-0.057,0.447l-0.051,0.426
		l-0.03,0.275l-0.044,0.707l0.266,0.456l0.22,0.354l0.063,0.258l-0.34,0.364l-0.112,0.297l-0.42,0.707l0.05,0.466l0.019,0.092
		l-0.049,0.328l-0.197,0.351l-0.198,0.276l-0.251,0.266l-0.592,0.23l-0.505,0.009l0,0l-0.26,0.004l-0.188,0.039l-0.36,0.449
		l-0.004,0.037l-0.027,0.141l-0.072,0.389l-0.079,0.457l0.034,0.257l-0.12,0.159l-0.138,0.221l-0.171,0.263l-0.11,0.355l0.47,0.159
		l0.311,0.239l0.245,0.207l0.264,0.222l0.188,0.195l0.123,0.079l0.156,0.098l-0.003,0.129l0.135,0.172l-0.066,0.275l0.194,0.683
		l0.542,0.413l0.43,0.184l0.401,0.178l-0.006,0.086l-0.016,0.496l-0.242,0.786l0.057,0.353l0.122,0.521l0.444,0.254l0.283,0.107
		l0.326,0.03l0.276,0.019l0.718-0.08l-0.167,0.436l0.02,0.165l-0.198,0.465l-0.038,0.062l0.095,0.294l0.091,0.459l0.37,0.379
		l0.344,0.35l0.36,0.49l-0.147,0.403l-0.228,0.312l-0.382,0.062l-0.35,0.062l-0.326,0.048l-0.272,0.044l-0.44,0.116l-0.628,0.066
		l-0.43-0.094l-0.419-0.092l-0.095-0.021l-0.066-0.013l-0.482-0.209h-0.021l-0.434-0.021l-0.347,0.045l-0.053,0.027l-0.326,0.305
		l-0.116,0.202l-0.1,0.168l-0.161,0.254l-0.266-0.067l-0.317-0.043l-0.332,0.004l-0.425,0.005l-0.326,0.007l-0.326,0.355
		l-0.065,0.303l-0.117,0.49l-0.144,0.412l-0.107,0.683h-0.003l0.006,0.526l-0.037,0.377l-0.023,0.236l-0.093,0.134l-0.287,0.233
		l-0.589,0.532l-0.075,0.33l-0.066,0.16l-0.036,0.091l-0.206,0.527l-0.159,0.281l-0.186,0.315l-0.311,0.315l-0.228,0.324
		l-0.458-0.062l-0.194,0.319l-0.637,0.079l-0.545,0.168l-0.311,0.135l-0.3,0.199l-0.361,0.141l-0.708,0.142l-0.769-0.129
		l-0.498-0.064h-0.721l-0.364,0.082l-0.333,0.086l-0.452,0.398l-0.068,0.328l-0.087,0.363l-0.042,0.393l-0.445,0.284l-0.297,0.463
		l0.066,0.098l0.156,0.125l0.298,0.327l0.266,0.328l0.326,0.545l0.134,0.489l0.066,0.45l0.366,0.747l0.11,0.64l0.352,0.867
		l0.333,0.566l0.065,0.26l0.135,0.582l0.099,0.459l-0.126,0.343v0.416l0.051,0.466l0.012,0.135l0.032,0.312l0.05,0.444l0.031,0.315
		l-0.577,0.578l-0.721,0.829l-0.153,0.411l-0.095,0.263l-0.012,0.644l-0.087,0.352l-0.323,0.264l-0.568-0.044l-0.326,0.384
		l-0.532,0.349l-0.605,0.484l-0.22,0.183l-0.121,0.264l-0.017,0.392l-0.019,0.281l-0.012,0.319l0.031,0.263l0.032,0.238l0.003,0.196
		l0.413,1.249l0.364,0.734l0.106,0.251l-0.333,0.185l-0.26,0.183l-0.213,0.153l-0.427,0.3L-87,150.682l-0.191,0.183l-0.17,0.332
		l-0.195,0.229l-0.218,0.327l-0.167,0.438l0.003,0.358l0.039,0.557l-0.132,0.441l-0.12,0.3l-0.116,0.324l-0.32,0.595l0,0
		l-0.193,0.227l-0.176,0.584l0.044,0.621l0.147,0.472l-0.003,0.03l-0.132,0.609l-0.125,0.496l-0.113,0.395l-0.269,0.196l-0.323,0.08
		l-0.811,0.346L-91,159.015l-0.723,0.262l-0.73,0.136l-0.586,0.27l-0.198,0.089l-0.194,0.082l0.179,0.46l0.16,0.293l0.325,0.566
		l0.195,0.365l-0.066,0.269l-0.159,0.129l-0.32,0.526l0.029,0.159l-0.07,0.168l0.057,0.383l0.517,0.601l1.05,0.195l0.458,0.196
		l0.277,0.45l0.234,0.227l0.065,0.241l0.016,0.058l0.041,0.463l0.194,0.209l0.392,0.281l0.194,0.192l0.362,0.426l0.362,0.159
		l0.49,0.146l0.285,0.099l0.338,0.082l0.267,0.095l0.254,0.11l0.144,0.218l0.098,0.352l0.213,0.31l0.236,0.297l0.194,0.187
		l0.273,0.353l-0.066,0.465l-0.006,0.3l0.323,0.38l0.175,0.221l0.361,0.337l0.207,0.195l0.63,0.3l-0.277,0.432l-0.212,0.463
		l-0.225,0.68l-0.129,0.348l-0.179,0.453l-0.284,0.194l-0.84,0.7l-0.75,0.438l-0.59,0.077l-0.326,0.055l-0.099,0.588l-1.719,0.288
		l-0.53,0.422l-1.002,0.625l-0.458,0.719l-1.035,0.72l-0.269,0.609l-0.855,0.74l-0.326,0.708l0.034,0.376l0.029,0.285l0.03,0.346
		l-0.03,0.205l-0.066,0.532l-0.119,0.344l-0.094,0.281l-0.119,0.333l-0.383,0.622l-0.066,0.502l0.326,0.469l-0.301,0.56l0,0
		l0.065,0.327l-0.727,0.778l-0.354,0.584l-0.85,0.196l-0.549,0.281l0.072,0.172l0.161,0.364l0.239,0.297l0.065,0.153l0.037,0.098
		l0.282-0.064l0.333-0.063l0.425-0.034l0.351,0.027l0.343,0.037l0.306,0.076l0.364,0.145l0.291,0.128l0.313,0.089l0.427,0.064
		l0.27,0.024l0.251,0.024l0.386-0.031h0.306l0.287,0.007l0.458,0.04l-0.214,0.31l-0.18,0.247l-0.29,0.242l-0.278,0.208l-0.167,0.416
		l-0.087,0.304l-0.021,0.064l-0.107,0.342l0.015,0.332l-0.084,0.121l-0.123,0.157l-0.119,0.131l-0.031,0.03l-0.138,0.147
		l-0.17,0.159l-0.141,0.171l-0.113,0.185l-0.093,0.147l-0.084,0.183l-0.065,0.227l-0.051,0.16l-0.029,0.138l-0.052,0.217
		l-0.041,0.181l-0.044,0.145l-0.037,0.183l-0.039,0.221l-0.021,0.195l-0.003,0.056l0.003,0.019l0.135,0.354l0.194,0.33l0.326,0.315
		l0.282,0.288l0.285,0.264l0.065,0.064l0.071,0.059l0.156,0.113l0.147,0.143l0.022,0.022l0.084,0.094l0.165,0.167l0.123,0.115
		l0.194,0.193l0.066,0.199l0.009,0.024l0.072,0.18l0.066,0.224l0.005,0.227l-0.014,0.199v0.04l-0.075,0.006l-0.138,0.101v0.453
		l0.194,0.301l0.06,0.079l0.122,0.196h0.003l0.119,0.116l0.094,0.086l0.206,0.183l0.144,0.08l0.224,0.139l0.194,0.118l0.188,0.067
		l0.194,0.077l0.207,0.104l0.297,0.125l0.208,0.074l0.175,0.085l0.176,0.092l0.229,0.073l0.252,0.077l0.458,0.07l0.458,0.006
		l0.198,0.019l0.245,0.03h0.207l0.182-0.013l0.194-0.042l0.224-0.092l0.488-0.248l0.505-0.053l0.442,0.08l0.278,0.073l0.383,0.11
		l0.326,0.095l0.237,0.104l0.335,0.119l0.336,0.098l0.351,0.123l0.326,0.079l0.282,0.03l0.326,0.044l0.256,0.027h0.135l0.173-0.021
		l0.162,0.009l0.077,0.024l0.065,0.027l0.059,0.059l0.032,0.082l0.065,0.129l-0.019-0.205v-0.076l0.016-0.099l0.417-0.152
		l0.395,0.012l0.182-0.006l0.019-0.006l0.089,0.006l0.267-0.049l0.084-0.003l0.433,0.04l0.141-0.019l0.204,0.024l0.066-0.064
		l0.066-0.016l0.009-0.024l0.026-0.061l0.031-0.03l0.098-0.172l0,0l0.04-0.064l0.213-0.15l0.254-0.135l0.264-0.171l0.299-0.196
		l0.293-0.106l0.352-0.102l0.41-0.07l0.26-0.04l0.305-0.024l0.297-0.04l0.066-0.009l0.272-0.037l0.066-0.116l0.073-0.042v-0.102
		l0.037-0.064l0.038-0.397l0.024-0.325l0.18-0.214l0.379-0.355l0.563-0.471h0.003l0.032-0.024l0.213-0.141l0.275-0.136l0.272-0.187
		l0.455-0.261l0.232-0.208l0.324-0.256l0.445-0.312l0.341-0.233l0.392-0.159l0.301-0.086h0.003h0.009l0.793-0.063l0.975,0.005
		l0.978-0.101l0.514-0.195l0.194-0.044l0.458-0.197l0.41-0.215l0.367-0.147l0.326-0.101l0.479-0.067l0.383-0.067l0.356-0.055
		l0.371-0.031l0.326-0.263l0.194-0.165l0.267-0.312l0.502-0.622l0.254-0.34l0.206-0.257l0.195-0.251l0,0l0.043-0.043l0.241-0.31
		l0.099-0.125l0.192-0.215l0.067-0.104l0.049-0.064l0.188-0.224l0.207-0.526l0.029-0.38l0.028-0.274l0.081-0.503l0.057-0.358
		l0.107-0.098l0.066-0.027l0.263-0.11l0.425-0.152l0.365-0.142l0.413-0.146l0.346-0.104l0.207-0.085l0,0l0.066-0.025l0.38-0.201
		l0.288-0.367l0.098-0.062l0.062-0.056l0.087-0.064l0.458-0.364l0.156-0.162l0.401-0.263l0.292-0.113l0.326-0.11l0.291-0.123
		l0.251-0.092l0.298-0.091l0.288-0.117l0.687-0.251l0.395,0.006l0.407,0.251l0.395,0.527l0.12,0.229l0.231,0.134l0.152,0.083
		l0.592,0.104l0.56,0.062l0.092,0.013h0.037l0.458,0.062l0.326,0.063l0.266,0.059l0.095,0.019l0.458,0.063l0.147,0.013l0.063,0.007
		l0.511,0.104l0.134,0.046l0.404,0.077l0.314,0.018l0.06-0.058l0.021-0.019l0.161-0.092l0.135-0.126l0.194-0.214l0.2-0.217
		l0.314-0.387l0.108-0.231l0.023-0.025l0.168-0.435l0.062-0.272l0.026-0.386l0.084-0.325l0.075-0.342l0.054-0.199l0.075-0.294
		l0.044-0.123l0.297-0.547l0.144-0.096l0.271-0.181l0.447-0.135l0.472-0.076l0.326-0.052l0.312,0.334l0.326,0.015l0.627-0.073
		l0.614,0.244l0.125,0.047h0.003l0.239,0.079l0.021,0.004l0.211,0.069l0.272-0.012l0.251,0.012l0.15-0.024l0.195-0.006l0.58,0.055
		l0.065,0.067l0.075-0.144l0.245-0.285l0.282-0.263l0.326-0.376l0.194-0.236l0.308-0.227l0.174-0.214l0.158-0.227l0.213-0.141
		l0.308-0.136l0.326-0.36l0.194-0.238l0.275-0.276l0.156-0.214l0.182-0.429l-0.012-0.569l0.057-0.315l0.326-0.426l0.435-0.202
		l0.307-0.11l0.404-0.175l0.374-0.109l0.617-0.175l0.076-0.41l0.009-0.404l-0.161-0.207l-0.066-0.089l-0.24-0.426l-0.185-0.39
		l-0.123-0.382l0.113-0.386l0.178-0.459l-0.046-0.438l0.009-0.29l0.066-0.254l0.096-0.304l0.095-0.303l0.135-0.392l0.122-0.34
		l0.219-0.45l0.17-0.404l0.144-0.322l0.166-0.375l0.006-0.394l-0.052-0.33l0.141-0.324l0.185-0.349l0.175-0.395l-0.025-0.337
		l-0.188-0.343l-0.176-0.301l-0.103-0.275l0.057-0.269l0.118-0.233l0.194-0.301l-0.084-0.483l-0.326-0.526l-0.125-0.281
		l-0.028-0.532l0.144-0.328l0.141-0.327l0.167-0.303l0.219-0.315l0.153-0.643l0.085-0.355l0.194-0.307l0.24-0.205l0.302-0.382
		l-0.027-0.319l-0.104-0.3l-0.047-0.475l0.002-0.354l0.026-0.264l0.028-0.264l0.047-0.266l0.016-0.613l0.057-0.342l-0.084-0.41
		l-0.194-0.367l-0.161-0.374l-0.24-0.475l-0.089-0.376l-0.018-0.429l0.033-0.376l0.039-0.445l0.069-0.327l0.057-0.462l0.047-0.398
		l0.013-0.275l0.069-0.443l0.26-0.315l0.191-0.218l0.26-0.379l0.006-0.387l-0.06-0.382l0.006-0.554l0.081-0.322l0.418-0.446
		l0.168-0.208l-0.251-0.386l-0.288-0.288l-0.326-0.333l-0.273-0.267l-0.326-0.347l-0.345-0.32l-0.257-0.276l-0.25-0.263
		l-0.173-0.318l-0.194-0.356l-0.185-0.257l-0.141-0.324l0.141-0.435l0.152-0.241l0.159-0.328l0.042-0.361l-0.066-0.306l-0.044-0.318
		l-0.182-0.46l-0.149-0.309l0.281-0.175l0.326-0.232l0.257-0.227l0.364-0.122l0.589,0.067l0.276,0.07l0.433-0.043l0.429,0.006
		l0.26,0.129l0.057-0.734l0.066-0.493l0.232-0.457l0.147-0.278l0.173-0.271l0.189-0.298l0.308-0.422l0.352-0.349l0.244-0.142
		l0.452-0.214l-0.034-0.447l0.106-0.386l0.214-0.397l0.177-0.38l0.218-0.759l0.347-0.172l0.458-0.074l0.236-0.101l0.234-0.171
		l0.207-0.168l0.217-0.188l0.372-0.303l0.383-0.117l0.499,0.233l0.264,0.04l0.422,0.015l0.323-0.086l0.47-0.244l0.376-0.215
		l0.311-0.094l0.793-0.463l0.173-0.245l0.171-0.435l0.091-0.33l0.091-0.318l0.072-0.258l0.098-0.591l0.171-0.49l0.125-0.234
		l0.242-0.185l0.194-0.189l0.213-0.195l0.254-0.126l0.565-0.021l0.432,0.027l0.208-0.188l0.123-0.275l0.115-0.323l0.107-0.267
		l0.194-0.275l0.204-0.347l0.027-0.349l0.007-0.361l0.034-0.267l0.024-0.367l-0.174-0.443l-0.17-0.521l0.239-0.361l-0.02-0.386
		l0.014-0.275l0.219-0.171l0.667-0.083l0.418-0.132l0.212-0.172l0.213-0.184l0.251-0.232l0.326-0.398l0.173-0.227l0.27-0.198
		l0.293-0.206l-0.4-0.354l-0.288-0.288l-0.151-0.239l-0.103-0.257l-0.147-0.244l-0.326-0.307l-0.277-0.067l-0.554,0.037
		l-0.518-0.123l-0.308-0.069l-0.372-0.093l-0.319-0.089l-0.326-0.155l-0.251-0.144l-0.308-0.261l-0.215-0.199l-0.084-0.579
		l0.093-0.251l0.113-0.263l0.109-0.393l0.194-0.352l0.161-0.238l0.38-0.393l0.231-0.195l0.348-0.288l0.194-0.183l0.065-0.527
		l0.132-0.561l0.185-0.229l0.201-0.459l0.151-0.403l-0.11-0.258l-0.15-0.251l0.141-0.459l0.351-0.043l0.329-0.012h0.06l0.433-0.028
		l0.308-0.033l0.112-0.438l0.161-0.235l0.366-0.27l0.511-0.291l0.216-0.499l-0.135-0.385l-0.3-0.521l-0.194-0.27l-0.245-0.315
		l0.276-0.328l0.361-0.275l0.238-0.155l0.301-0.084l0.311-0.045l0.335,0.006l0.356,0.039l0.458-0.186l0.317-0.175l0.329,0.116
		l0.267,0.062l0.251,0.062l0.232,0.128l0.354-0.024l0.283-0.196l0.26-0.217l0.366-0.224l0.066-0.361l0.026-0.073l0.135-0.196
		l0.212-0.202l0.129-0.178l0.066-0.069l0.165-0.34l-0.44-0.432l-0.28-0.334l-0.009-0.067l-0.006-0.012l-0.034-0.384l0.109-0.254
		l0.085-0.085l0.222-0.098l0.251-0.099l0.057-0.019l0.156-0.171l-0.015-0.16l-0.227-0.195l-0.216-0.214l-0.17-0.387l0.083-0.152
		l0.065-0.135l0.204-0.104l0.326-0.251l0.081-0.158l0.216-0.396l0.119-0.561l0.003-0.196l0.016-0.269v-0.021l-0.019-0.328
		l0.009-0.281l0.066-0.379l0.146-0.264l0.194-0.212l0.3-0.275l0.326-0.432l-0.069-0.309l-0.09-0.307l-0.104-0.271l-0.065-0.276
		l-0.048-0.27l0.044-0.129l0.054-0.121l0.314-0.457l0.306-0.333l0.026-0.071l0.135-0.382l-0.069-0.185l-0.123-0.373l0.11-0.172
		l0.024-0.098l0.326-0.235l0.156-0.364v0.018l-0.052-0.419v-0.027l-0.005-0.107l-0.003-0.254l0.073-0.392l-0.029-0.141l-0.207-0.104
		l-0.216-0.156l-0.251-0.058l-0.207-0.019l-0.197-0.024l-0.523-0.064l-0.227-0.079l-0.47-0.059l-0.455-0.098l-0.144-0.013
		l-0.066-0.006l-0.295,0.021h-0.457l-0.082-0.034l-0.236-0.288l-0.194-0.128l-0.452-0.281l-0.464-0.064l-0.395-0.27l-0.24-0.383
		l-0.402-0.389l-0.36-0.175l-0.536-0.327l-0.326-0.205l-0.302-0.019l-0.05-0.355l0.138-0.339l-0.046-0.521l-0.706-0.89l0.245-0.484
		l0.326-0.281l0.383-0.239l0.291-0.036l0.424-0.059l0.617-0.34l0.245-0.428l0.326-0.319l0.407-0.327l0.508-0.34l0.159-0.744
		l0.26-0.315l0.355-0.385l-0.014-0.044l-0.04-0.281l0.031-0.196l0.173-0.195l0.126-0.141l0.182-0.502l0.066-0.35l-0.295-0.239
		l-0.031-0.005l-0.455-0.129l-0.188-0.264l-0.066-0.012l-0.47-1.103l0.21-0.208l0.135-0.144l0.209-0.199l0.377-0.714l0.146-0.704
		l-0.119-0.841l-0.003-0.013l-0.326-0.849l-0.263-0.894l-0.147-0.456l-0.233-0.74l-0.012-0.787l0.032-0.896l-0.044-0.787
		l-0.053-0.756l-0.04-1.071l0.066-0.809l0.093-0.637l0.101-0.33l0.121-0.778l0.088-1.016l0.15-0.404l0.203-0.698l0.282-0.937
		l0.385-0.852l0.535-0.893l0.395-0.705l0.517-0.805l0.121-0.364l0.123-1.042l-0.016-0.618l0.06-0.422l0.165-0.605l0.229-0.508
		l0.125-0.821l-0.065-0.661l0.103-0.949l0.066-0.753l0.067-0.526l0.168-0.747l0.311-0.655l0.207-0.392l0.066-0.079l0.101-0.236
		v-0.034l0.293-0.756l0.132-0.697l-0.009-1.081l0.096-0.624l0.11-0.72l0.063-0.727l-0.09-0.485l-0.173-0.464l0.065-0.547
		l-1.05-0.192l-1.564,0.422l-2.773,0.754l-0.436-0.277l-0.069-0.252l0.081-0.297l0.113-0.406l0.093-0.33l0.057-0.523l-0.329-0.113
		l-0.251-0.125l-0.467-0.302l-0.323-0.033l-0.429,0.006l-0.433-0.019l-0.549-0.203l-0.238-0.151l-0.354-0.147l-0.351-0.101
		l-0.601-0.207l-0.323-0.171l-0.242-0.164l0.092-0.313l0.108-0.432l0.02-0.39l0.194-0.232l0.034-0.338l-0.245-0.191l-0.317-0.203
		l-0.312-0.223l0.084-0.301l0.407-0.279l0.436-0.427l0.107-0.254l-0.06-0.267l-0.108-0.281l0.051-0.302l0.141-0.401l0.122-0.538
		l0.195-0.499l0.303-0.091l0.442-0.019l0.515-0.208l0.523-0.285l0.295-0.065l0.332-0.035l0.323-0.006l0.297-0.037l0.721-0.144
		l0.397-0.08l0.396-0.077l0.424-0.312l0.467-0.341l0.479-0.351l0.46-0.342l-0.033-0.217l-0.036-0.231l0.224-0.022l0.326-0.288
		l0.354-0.278l0.364-0.367l0.303-0.236l0.18-0.2l0.323-0.178l0.574-0.038h0.563l0.313-0.386l-0.096-0.752l-0.081-0.79l0.536-0.214
		l0.514-0.074l0.604,0.074l0.458,0.075l0.574,0.076l0.326-0.298l0.06-1.068l0.222-0.876l0.326-0.632l0.191-0.421l0.464,0.461
		l0.517,0.421l0.655,0.422l0.515,0.42l0.705,0.038l1.122-0.038l1.029-0.153l0.842-0.191l0.708-0.116l0.744-0.037l0.796-0.116
		l0.891,0.075l0.372,0.041l0.436,0.061l0.006,0.61l-0.116,0.96l-0.129,0.738l-0.147,0.536l0.09,0.577l0.326,0.458l0.597,0.308
		l0.889,0.152l0.891,0.038l1.074,0.079l1.032-0.075l0.957-0.299l0.85-0.288l0.849-0.325l0.596-0.072l0.718-0.038l0.601-0.169
		l0.7-0.379l0.984-0.671l0.889-0.323l0.352-0.116l0.52-0.044l0.592-0.105l0.784,0.189l0.673,0.571l0.355,0.489l0.216,0.504
		l0.282,0.48l0.266,0.569l0.672,0.126l0.79,0.032l0.774-0.393l0.533-0.335l0.181-0.326l0.465,0.063l0.523-0.096l0.467-0.306
		l0.141-0.317l0.044-0.643l0.414-0.272h0.79l0.888,0.084l0.717,0.194l0.129-0.232l0.751-0.667l0.272-0.632l0.85-0.422l0.595-0.038
		l0.607,0.537l0.46,0.574l0.288,0.345l0.188,0.266l0.236,0.267l0.513,0.153l0.373,0.116l0.515,0.267l0.229,0.457l0.225,0.309
		l-0.069,0.065l0.422,0.185l0.379,0.153l0.386,0.088l0.301,0.089l0.326,0.152l0.521,0.088l0.563,0.211l0.603,0.04l0.53-0.247
		l0.458-0.092l0.523-0.288l0.385-0.36l0.438-0.458l0.323-0.413l0.26-0.377l0.295-0.26l0.306-0.042l0.343,0.136l0.379,0.307
		l1.108,0.847l0.837,0.64l0.603,0.174l0.974-0.077l1.217-0.253l1.253-0.567l0.457-0.302l0.465-0.432l0.189-0.458l-0.013-0.231
		l0.747,0.028l0.337,0.052l0.483-0.021l1.035-0.009l0.45-0.072l0.563-0.154l0.676-0.059l0.334-0.257l0.218-0.323l0.115-0.295
		l-0.082-0.419l-0.315-0.512l-0.169-0.439l-0.392-0.389l-0.261-0.237l-0.124-0.292l0.161-0.912l0.212-0.177l0.492-0.826l0.027-0.361
		l-0.34-0.257l-0.562-0.488l-0.056-0.493l0.019-0.542l0.297-0.46l0.496-0.32l0.272-0.323l0.067-0.436l-0.052-0.381l0.027-0.396
		l0.129-0.396l0.398-0.027l0.363,0.057l0.505,0.043l0.588,0.047l0.476,0.066l0.927-0.01l0.716-0.019l0.741-0.018l0.435,0.024
		l0.814,0.407l0.631-0.186l0.899-0.617l0.408-0.173l0.37-0.237l0.478-0.146l0.264-0.132l0.323-0.012l0.381,0.138l0.33,0.232
		l0.462,0.192l0.432,0.306l0.569,0.283l0.486,0.237l0.457,0.433l0.459,0.434l0.686,0.515l0.459,0.867l0.099,0.709l0.146,0.563
		l-0.202,0.417l0.165,0.323l0.337,0.207l0.539-0.026l0.333-0.181l0.487-0.151l0.41,0.065l0.258,0.229l0.128,0.273l0.251,0.29
		l0.192,0.239l0.199,0.254l0.624,0.75l0.393,0.356L74.3,30.53l0.591,0.048l0.328,0.036l0.37,0.045l0.033,0.084l0.72,0.054
		l0.41,0.138l0.42-0.006l0.398-0.078l0.498-0.096l0.557,0.086l0.79,0.366l0.46,0.188l0.397,0.26l0.374,0.173l0.367,0.087l0.462,0.23
		l0.407,0.197l0.318,0.129l0.264,0.074l0.287,0.066l0.34,0.035l0.456-0.089l0.325-0.125l0.357-0.132l0.328-0.175l0.386-0.176
		l0.532-0.201l0.312-0.051l0.267,0.063l0.168,0.081l0.189,0.146l0.227,0.485l0.185,0.26l0.066,0.225l0.325,0.553l0.146,0.207
		l0.159,0.176l0.288,0.2l0.327,0.12l0.284,0.065l0.242,0.043l0.327,0.025l0.248-0.022l0.343,0.035l0.598-0.144l0.235-0.032
		l0.42-0.216l0.386-0.132l0.33-0.311l-0.021-0.526l-0.017-0.299l0.065-0.249l0.003-0.265l0.235-0.253l0.251-0.317l0.119-0.25
		l0.16-0.204l0.348-0.069l0.328,0.034l0.337,0.183l0.346,0.176l0.258,0.178l0.312,0.151l0.315,0.182l0.221,0.147l0.205,0.103
		l0.459,0.22l0.267,0.084l0.264-0.044l0.577-0.216l0.282-0.084l0.181-0.132l0.15-0.06l0.152,0.051l0.196,0.131l0.156,0.188
		l0.204,0.222l0.222,0.239l0.293,0.129l0.423-0.005l0.252-0.03l0.25-0.01l0.245,0.01l0.33,0.047l0.301,0.034l0.317,0.022l0.576,0.24
		l0.306,0.129l0.325,0.101l0.251,0.156l0.202,0.095l0.214,0.027l0.141-0.099l0.19-0.267l0.159-0.289l0.109-0.207l0.196-0.244
		l0.171-0.248l0.215-0.285l0.214-0.232l0.202-0.181l0.27-0.148l0.218-0.034l0.315,0.003l0.321,0.034l0.425,0.062l0.307,0.089
		l0.318,0.097l0.325,0.089l0.379,0.084l0.287-0.006l0.328-0.126l0.346-0.238l0.592-0.58l0.18-0.169l0.285-0.116l0.174-0.016
		l0.145-0.014l0.271,0.161l0.258,0.254l0.429,0.41l0.171,0.179l0.037,0.031l0.211,0.125l0.192,0.158l0.384,0.3l0.315,0.238
		l0.348,0.142l0.35,0.119l0.413,0.078l0.456,0.066l0.423,0.021l0.324,0.041l0.307,0.33l0.306,0.235l0.38,0.132l0.631,0.392
		l0.309,0.012l0.487,0.103l0.569,0.08l0.652,0.153l0.413,0.095l0.648,0.055l0.526,0.099h0.912l0.282-0.506l0.141-0.291l0.05-0.307
		l0.113-0.323l0.118-0.392l0.258-0.377l0.016-0.021l0.275-0.358l0.419-0.228l0.195-0.383l0.325-0.024l0.68,0.417l0.382,0.325
		l0.76,0.608l0.737,0.238l0.367,0.068l0.197,0.069l0.618,0.032l0.594,0.027l0.495-0.051l0.775-0.177l0.357-0.107l0.387-0.147
		l0.271-0.254l0.303-0.377l0.209-0.176l0.264-0.084l0.202,0.146l0.141,0.142l0.342,0.164l0.496,0.247l0.324,0.113l0.387,0.141
		l0.349,0.166l0.361,0.153l0.337,0.146l0.336,0.2l0.3,0.122l0.38,0.194l0.545,0.276l0.178,0.172l0.153,0.156l0.067,0.291l0.066,0.27
		l0.022,0.43l0.076,0.351l0.324,0.455l0.42,0.164l0.343,0.056l0.456-0.022l0.349-0.043l0.466-0.185l0.361-0.192l0.382-0.188
		l0.298-0.194l0.327-0.231l0.328-0.151l0.584-0.178l0.523-0.135l0.489-0.208l0.521-0.27l0.4-0.003l0.396,0.119l0.483,0.245
		l0.423,0.178l0.287,0.122l0.521,0.126l0.618,0.141l0.304,0.022l0.288,0.112l0.027,0.011l0.109-0.257l0.049-0.565v-0.354L144.73,34
		l0.016-0.316l-0.02-0.392l0.034-0.396l-0.22-0.491l-0.188-0.473l-0.192-0.487l-0.3-0.484l-0.325-0.538l-0.147-0.446l-0.03-0.455
		l-0.061-0.427l0.066-0.332l0.05-0.354l0.08-0.383l0.036-0.418l0.196,0.014l0.204,0.115l0.408,0.062l0.278,0.078l0.49,0.123
		l0.614,0.137l0.655,0.099l0.227,0.096l0.202,0.254l0.208,0.299l0.099,0.116l0.263,0.156l0.27,0.057l0.527-0.009l0.458-0.057
		l0.383-0.069l0.327-0.098l0.315-0.019l0.285-0.019l0.271-0.089l0.298-0.105l0.269-0.212l0.068-0.32l0.003-0.496l-0.015-0.508
		l-0.068-0.512l-0.016-0.359l0.064-0.442l0.117-0.438l-0.166-0.271l-0.021-0.532l0.039-0.363l0.019-0.521v-0.376l0.006-0.364
		l-0.083-0.359l-0.052-0.254l0.052-0.258l0.199-0.254l0.288-0.213l0.367-0.095l0.346,0.138l0.457,0.182l0.404,0.117l0.397,0.018
		l0.459-0.003l0.386-0.093l0.376-0.081l0.257-0.249l0.193-0.176l0.196-0.065l0.229-0.013l0.242,0.048l0.22,0.108l0.275,0.126
		l0.301,0.113l0.238,0.047l0.324-0.034l0.27-0.126l0.294-0.162l0.288-0.197l0.232-0.312l0.227-0.335l0.211-0.264l0.242-0.176
		l0.251-0.159l0.303-0.135h0.328l0.41,0.019l0.404,0.057l0.413,0.007l0.168-0.019l0.19-0.155l0.227-0.272l0.195-0.35l0.043-0.358
		l-0.066-0.386l-0.258-0.42l-0.188-0.354l-0.128-0.264l-0.129-0.175l-0.144-0.191l-0.031-0.206l-0.061-0.233l0.043-0.338
		l0.098-0.407l-0.013-0.276l0.101-0.285l0.065-0.232l0.064-0.21l0.101-0.263l0.067-0.248l0.037-0.22l0.059-0.238l0.116-0.329
		l0.098-0.267l0.03-0.267l0.083-0.272l0.072-0.26l0.068-0.209l0.079-0.279l0.102-0.283l0.11-0.281l0.116-0.296l0.122-0.288
		l0.126-0.229l0.144-0.267l0.096-0.213l0.091-0.429l0.153-0.277l0.141-0.275l0.196-0.319l0.189-0.335l0.159-0.282l0.135-0.15
		l0.209-0.106l0.094,0.043l0.192,0.086l0.136,0.074l0.128,0.097l0.135,0.076l0.099,0.059l0.158,0.073l0.193,0.065l0.193,0.025
		l0.183-0.048l0.126-0.054l0.064-0.096l0.024-0.129V8.105l-0.013-0.154l-0.012-0.162l-0.024-0.151l-0.021-0.178l-0.034-0.218
		l-0.066-0.165l-0.056-0.188l-0.024-0.222l-0.056-0.236l-0.066-0.232l-0.064-0.243l-0.064-0.221l-0.067-0.222l-0.129-0.26
		l-0.098-0.273l-0.098-0.172l-0.031-0.195l-0.066-0.194l-0.074-0.111l-0.073-0.196l-0.104-0.108l-0.073-0.186l-0.123-0.152
		l-0.189-0.188l-0.097-0.167l-0.065-0.191l-0.073-0.171l-0.138-0.11l-0.138-0.126l-0.152-0.155l-0.111-0.111l-0.128-0.166
		l-0.076-0.153l-0.077-0.132l-0.033-0.17l0.027-0.237L162.84,1.34l0.005-0.235l-0.005-0.233l-0.013-0.198l0.013-0.27l0.024-0.257
		l-0.024-0.229l0.021-0.288l0.027-0.267l0.066-0.316l0.064-0.242l0.107-0.213l0.196-0.203l0.193-0.194l0.21-0.161l0.229-0.146
		l0.251-0.15l0.243-0.164l0.278-0.197l0.227-0.156l0.186-0.084l0.332-0.257l0.254-0.292l0.266-0.326l0.195-0.264l0.13-0.284
		l0.064-0.458l0.039-0.532l0.043-0.239l0.012-0.185l-0.018-0.264l-0.068-0.21l-0.018-0.104l-0.092-0.153l-0.165-0.183l-0.196-0.177
		l-0.343-0.271l-0.233-0.152l-0.293-0.12l-0.27-0.122l-0.282-0.216l-0.195-0.147l-0.244-0.125l-0.197-0.129l-0.227-0.116
		l-0.238-0.15l-0.254-0.132l-0.294-0.179l-0.218-0.185l-0.247-0.16l-0.199-0.109l-0.192-0.11l-0.05-0.147l0.027-0.235l0.086-0.204
		l0.062-0.18l0.018-0.148l0.03-0.195l-0.079-0.242l-0.116-0.209l-0.189-0.246l-0.172-0.2l-0.122-0.186l-0.086-0.194l-0.115-0.188
		l-0.068-0.186l-0.165-0.309l-0.119-0.196l-0.076-0.203l-0.167-0.24l-0.148-0.167l-0.142-0.182l-0.174-0.132l-0.224-0.097
		l-0.254,0.018l-0.196-0.033l-0.171-0.082l-0.145-0.135l-0.192-0.135l-0.178-0.159l-0.129-0.177l-0.181-0.182l-0.156-0.135
		l-0.189-0.159l-0.128-0.144l-0.194-0.158l-0.251-0.191l-0.192-0.103l-0.217-0.035l-0.192-0.003l-0.233-0.019l-0.212-0.053
		l-0.146-0.099l-0.138-0.135l-0.159-0.156l-0.104-0.197l-0.067-0.188l-0.053-0.212l-0.021-0.167l-0.02-0.169l-0.018-0.22
		l-0.031-0.126l-0.03-0.228l-0.03-0.18l-0.065-0.188l-0.032-0.132l-0.068-0.207l-0.098-0.239l-0.019-0.192l-0.073-0.17l-0.107-0.144
		l-0.146-0.099l-0.168-0.03l-0.172-0.098l-0.122-0.126l-0.007-0.272l0.059-0.369l0.03-0.421l0.027-0.47l0.062-0.63l0.116-0.393
		l0.129-0.257l-0.067-0.386l-0.05-0.27l-0.042-0.222l-0.043-0.173l-0.098-0.323l-0.059-0.119l-0.146-0.315l-0.028-0.311
		l-0.006-0.349l-0.073-0.46l0.042-0.208v-0.395l-0.066-0.435l0.049-0.434l0.079-0.295l0.031-0.231l0.156-0.183l0.192-0.188
		l0.202-0.191l0.178-0.181l0.098-0.104l0.147-0.163l0.073-0.1l0.162-0.229l0.092-0.185l0.095-0.283l-0.006-0.311l-0.049-0.264
		l-0.04-0.209l0.181-0.203l0.211-0.177l0.102-0.156l0.092-0.182l0.122-0.229l0.062-0.22l0.195-0.178l0.212-0.176l0.379-0.092
		l0.229,0.038l0.245-0.003l0.252-0.063l0.293-0.05l0.239-0.15l0.184-0.153l0.26-0.214l0.229-0.197l0.196-0.24l0.067-0.198
		l0.199-0.289l0.132-0.326l0.082-0.294l0.096-0.278l0.128-0.292l0.099-0.308l0.207-0.175l0.285-0.085l0.15-0.022l0.116-0.015
		l0.134-0.006l0.107-0.007l0.188-0.025l0.192-0.04L162-34.564l0.105-0.088l0.121-0.06l0.117-0.054l0.146-0.065l0.138-0.052
		l0.192-0.113l0.13-0.051l0.192-0.072l0.152-0.053l0.133-0.048l0.323-0.197l0.258-0.135l0.227-0.15l0.089-0.206l0.016-0.188
		l-0.08-0.201l-0.184-0.22l-0.196-0.192l-0.192-0.17l-0.218-0.145l-0.281-0.188l-0.221-0.16l-0.227-0.172l-0.3-0.21l-0.223-0.223
		l-0.236-0.282l-0.196-0.26l-0.119-0.254L161.564-39l-0.12-0.24l-0.067-0.18l-0.196-0.194l-0.202-0.222l-0.158-0.217l-0.086-0.24
		l0.086-0.221l0.165-0.129l0.165-0.129l0.188-0.152l0.22-0.164l0.205-0.294l0.181-0.264l0.138-0.216l0.113-0.268l0.171-0.203
		l0.105-0.24l0.141-0.242l0.106-0.232l0.021-0.226l0.095-0.257l0.056-0.294l-0.019-0.274l0.003-0.141l0.003-0.144l-0.021-0.119
		l-0.021-0.12l-0.048-0.141v-0.132l0.066-0.077l0.079-0.088l0.147-0.086l0.123-0.065l0.25-0.1l0.327-0.086l0.285-0.071l0.325-0.108
		l0.327-0.086l0.291-0.072l0.27-0.084l0.211-0.125l0.192-0.129l0.068-0.057l0.165-0.18l0.101-0.338l0.064-0.339l0.067-0.275
		l0.067-0.319l0.043-0.311l0.042-0.285l0.037-0.263l0.104-0.374l0.067-0.281l0.067-0.282l0.177-0.16l0.071-0.188l-0.04-0.231
		l0.043-0.273l-0.067-0.253l-0.031-0.276l-0.049-0.264l-0.098-0.745v-0.254l0.006-0.188l-0.027-0.342l0.095-0.319l0.068-0.233
		l0.18-0.206l0.229-0.163l0.328-0.071l0.327-0.023l0.31-0.024l0.327,0.042l0.318,0.027l0.278,0.024l0.334,0.067l0.334,0.064
		l0.354,0.003l0.404,0.02l0.327-0.022l0.325-0.046l0.306-0.086l0.275-0.126l0.215-0.149l0.141-0.105l0.079-0.063l0.11-0.086
		l0.147-0.115l0.144-0.184l0.113-0.045l0.104-0.021l0.129,0.006l0.082,0.01l0.064,0.024l0.092,0.041l0.095,0.037l0.128,0.07
		l0.123,0.052l0.116,0.083l0.101,0.06l0.136,0.068l0.11,0.066l0.158,0.078l0.215,0.071l0.208,0.036l0.178,0.002l0.141-0.022
		l0.135-0.024l0.106-0.057l0.105-0.213l0.045-0.232l0.019-0.311l-0.088-0.213l-0.12-0.258l0.015-0.065l-0.045-0.209l-0.049-0.21
		l0.03-0.221l0.067-0.194l0.122-0.194l0.165-0.229l0.189-0.238l0.13-0.254l0.066-0.207l0.074-0.257l0.045-0.207l-0.058-0.159
		l-0.107-0.11l-0.131-0.135l-0.145-0.215l-0.027-0.195v-0.197l0.027-0.16l0.12-0.17l0.195-0.15l0.27-0.144l0.195-0.188l0.215-0.094
		l0.235-0.116l0.188-0.101l0.211-0.115l0.15-0.104l0.153-0.075l0.217-0.066l0.181-0.062l0.141-0.054l0.238-0.03l0.325-0.157
		l0.306-0.145l0.238-0.15l0.196-0.163l0.104-0.194l0.141-0.216l0.083-0.219l0.064-0.232l0.091-0.201l0.113-0.146l0.139-0.17
		l0.066-0.144l0.068-0.096l0.121-0.009l0.086,0.012l0.157,0.014l0.104,0.022l0.229,0.015l0.147,0.006l0.134,0.008l0.099,0.006
		l0.135,0.007l0.099,0.006l0.094,0.003l0.147,0.009l0.162,0.007l0.141,0.009l0.095,0.007l0.083,0.006l0.073,0.02l0.153,0.034
		l0.104,0.006l0.153,0.011l0.117,0.021l0.128,0.024l0.109,0.016l0.12,0.017l0.064,0.016l0.172,0.038l0.092,0.033l0.11,0.042
		l0.116,0.024l0.091,0.018l0.172,0.051l0.153,0.035l0.171,0.037l0.142,0.053l0.092,0.034l0.116,0.077l0.11,0.024l0.152,0.038
		l0.15,0.046l0.095,0.032l0.116,0.036l0.107,0.036l0.125,0.038l0.11,0.033l0.178,0.047l0.095,0.024l0.113,0.027l0.153,0.027
		l0.113,0.021l0.174,0.023l0.104,0.024h0.083l0.119-0.012l0.086-0.026l0.061-0.037l0.099-0.062l0.062-0.104l0.002-0.141l0.003-0.108
		l-0.032-0.101l-0.034-0.126l-0.013-0.09l-0.006-0.069l-0.012-0.098l0.03-0.145v-0.075l0.006-0.101v-0.103l0.03-0.104l-0.024-0.12
		l-0.012-0.065l-0.013-0.081l0.013-0.113l0.049-0.113l0.067-0.103l0.063-0.063l0.096-0.109l0.064-0.063l0.063-0.05l0.068-0.05
		l0.079-0.05l0.138-0.081l0.089-0.057l0.099-0.088l0.101-0.076l0.104-0.065l0.088-0.088l0.064-0.06l0.064-0.078l0.067-0.089
		l0.067-0.093l0.064-0.1l0.034-0.113l0.042-0.11l0.079-0.156l0.064-0.078l0.064-0.101l0.172-0.138l0.116-0.091l0.067-0.054
		l0.085-0.057l0.068-0.019l0.119-0.022l0.119-0.021l0.08-0.021l0.086-0.022l0.073-0.021l0.085-0.028l0.043-0.014l0.074-0.019
		l0.085-0.021l0.11-0.029l0.12-0.031l0.241-0.044l0.077-0.024l0.088-0.029l0.144-0.039l0.138-0.036l0.123-0.027l0.086-0.022
		l0.079-0.019l0.083-0.019l0.107-0.022l0.098-0.043l0.141-0.062l0.089-0.048l0.12-0.06l0.066-0.054l0.07-0.06l0.101-0.059
		l0.068-0.047l0.076-0.082l0.059-0.076v-0.075l0.006-0.093l-0.013-0.129l-0.012-0.089v-0.075l-0.064-0.114l-0.064-0.044
		l-0.073-0.048l-0.092-0.034l-0.098-0.012l-0.079-0.023l-0.102-0.033l0.016-0.008l-0.067-0.01l-0.099-0.015h-0.132h-0.104
		l-0.119-0.006l-0.093-0.004l-0.18-0.021l-0.119-0.018l-0.105-0.012l-0.18-0.021l-0.192-0.051l-0.175-0.048l-0.212-0.053
		l-0.207-0.05l-0.154-0.038l-0.134-0.05l-0.16-0.043l-0.141-0.06l-0.128-0.057l-0.141-0.075l-0.068-0.042l-0.079-0.065l-0.013-0.057
		l-0.009-0.06l0.015-0.081l0.02-0.081l0.049-0.126l0.012-0.06l0.019-0.072l0.027-0.074l0.046-0.135l-0.012-0.089l-0.022-0.147
		l-0.128-0.203l-0.264-0.122l-0.192-0.048l-0.199-0.037l-0.275-0.024h-0.321l-0.241-0.014l-0.222-0.021l-0.251-0.048l-0.192-0.084
		l-0.196-0.119l-0.161-0.141l-0.188-0.17l-0.232-0.184l-0.227-0.245l-0.245-0.209l-0.196-0.221l-0.263-0.204l-0.251-0.254
		l-0.235-0.185l-0.188-0.229l-0.232-0.21l-0.214-0.188l-0.35-0.209l-0.165-0.107l-0.196-0.113l-0.287-0.112l-0.29-0.101l-0.28-0.062
		l-0.271-0.051l-0.291-0.062l-0.318-0.065l-0.304-0.063l-0.25-0.084l-0.31-0.065l-0.199-0.029l-0.223,0.004l-0.169,0.016
		l-0.192,0.013l-0.193,0.003l-0.144,0.051l-0.104,0.036l-0.192,0.023l-0.138,0.012l-0.371,0.003l-0.241-0.009l-0.294-0.025h-0.306
		l-0.212-0.016l-0.169-0.01l-0.274-0.012l-0.165-0.021l-0.209-0.029l-0.192-0.041l-0.178-0.037l-0.162-0.065l-0.153-0.061
		l-0.169-0.144l-0.162-0.135l-0.085-0.101l-0.093-0.081l-0.082-0.091l-0.052-0.076l-0.028-0.103l-0.018-0.078l0.009-0.065
		l-0.027-0.104l-0.016-0.126l-0.037-0.09l-0.013-0.141l-0.018-0.107l-0.006-0.135l-0.006-0.089l-0.025-0.078l-0.018-0.084
		l-0.024-0.101l-0.024-0.1l-0.02-0.129l-0.03-0.122l0.019-0.138l0.049-0.15l0.031-0.146l0.015-0.114l0.013-0.11l0.027-0.125
		l0.073-0.104l0.067-0.128l0.064-0.12l0.07-0.106l0.064-0.097l0.071-0.095l0.069-0.075l0.123-0.125l0.082-0.1l0.093-0.102
		l0.106-0.09l0.076-0.069l0.104-0.092l0.07-0.062l0.064-0.1l0.067-0.081l0.092-0.11l0.018-0.069l0.01-0.085l-0.052-0.072
		l-0.073-0.072l-0.107-0.003l-0.107,0.01l-0.144,0.017l-0.101,0.019l-0.105,0.018l-0.113,0.022l-0.161-0.013l-0.153-0.013h-0.116
		h-0.178l-0.22-0.033l-0.093-0.045l-0.079-0.041l-0.11-0.057l-0.109-0.052l-0.123-0.072l-0.064-0.047l-0.12-0.095l-0.091-0.079
		l-0.196-0.093l-0.171-0.086l-0.182-0.065l-0.137-0.049l-0.15-0.042l-0.107-0.032l-0.239-0.049l-0.116-0.019l-0.146-0.028
		l-0.202-0.063l-0.26-0.024l-0.193-0.017l-0.129-0.009l-0.175-0.013l-0.204-0.016l-0.315-0.012l-0.333-0.003l-0.276,0.009
		l-0.379-0.026l-0.264-0.009l-0.3,0.021l-0.301,0.011l-0.409-0.003l-0.353,0.049l-0.406,0.02l-0.332,0.049l-0.303,0.023
		l-0.346,0.019l-0.327,0.038l-0.322,0.021l-0.294,0.051l-0.254,0.009l-0.327,0.094l-0.312,0.057l-0.214,0.125l-0.393,0.078
		l-0.428,0.077l-0.325,0.09l-0.354,0.027l-0.312-0.036l-0.275-0.014l-0.224-0.059l-0.059-0.151l0.275-0.186l0.136-0.152l0.22-0.139
		l0.098-0.098l0.153-0.141l0.199-0.138l0.175-0.141l0.183-0.153l0.154-0.218l0.03-0.171l0.021-0.21l0.013-0.148l0.021-0.234
		l0.031-0.235l0.092-0.194l0.192-0.116l0.224-0.139l0.244-0.134l0.215-0.141l0.238-0.15l0.209-0.138l0.116-0.183l-0.016-0.203
		l0.016-0.176l-0.067-0.188l-0.122-0.216l-0.16-0.203l-0.104-0.195l-0.089-0.213l-0.101-0.263l-0.067-0.202l-0.068-0.237l0.02-0.261
		l0.052-0.244l0.003-0.236l0.067-0.23l0.043-0.221l0.059-0.246l0.063-0.207l0.043-0.313l0.024-0.26l-0.073-0.138l-0.089-0.123
		l-0.123-0.154l-0.21-0.135l-0.315-0.111l-0.322-0.075l-0.323-0.004l-0.408-0.017l-0.346-0.016l-0.318-0.015l-0.307-0.026
		l-0.373,0.021l-0.334-0.004l-0.327-0.004l-0.309-0.028l-0.278-0.05l-0.233-0.118l-0.312-0.113l-0.239-0.086l-0.171-0.149
		l-0.196-0.165l-0.152-0.149l-0.099-0.225l-0.092-0.235l-0.042-0.21l-0.02-0.186l-0.066-0.213l-0.129-0.16l-0.098-0.178
		l-0.123-0.203l-0.195-0.132l-0.209-0.086l-0.238-0.084l-0.288-0.063l-0.294-0.024l-0.244-0.022l-0.245-0.068l-0.171-0.075
		l-0.72-0.665l-0.206-0.135l-0.121-0.141l-0.136-0.131l-0.128-0.126l-0.738-0.744L155.157-92.715"/>
</g>
<g id="Layer_1_1_">
</g>
</svg>
