<?xml version="1.0" encoding="utf-8"?>
<!-- Generator: Adobe Illustrator 16.0.4, SVG Export Plug-In . SVG Version: 6.00 Build 0)  -->
<!DOCTYPE svg PUBLIC "-//W3C//DTD SVG 1.1//EN" "http://www.w3.org/Graphics/SVG/1.1/DTD/svg11.dtd">
<svg version="1.1" id="Layer_1" xmlns="http://www.w3.org/2000/svg" xmlns:xlink="http://www.w3.org/1999/xlink" x="0px" y="0px"
	 width="301.095px" height="258.427px" viewBox="-135.998 -116.662 301.095 258.427"
	 style="enable-background:new -135.998 -116.662 301.095 258.427;" xml:space="preserve">
<g id="Layer_45">
	<path id="Hafizabad" style="fill:#CCCCCC;stroke:#FFFFFF;stroke-width:1.15;" d="M94.436-111.794L94.436-111.794l-0.475-0.041
		l-1.488,0.142l-1.506,0.536l-2.619,1.184l-2.021,0.85l-2.631,0.991l-3.234,1.577l-2.801,1.325l-1.801,0.92l-1.619,0.92
		l-0.959,0.839l-1.811,0.799l-1.83,0.91l-3.246,1.325l-1.658,0.849l-1.953,1.001l-2.041,1.305l-1.527,0.647l-4.43,1.092
		l-2.812,0.344l-1.879,0.344l-3.58,0.981l-4.541,1.79l-4.418,2.032l-4.34,2.558l-2.83,1.841l-2.367,1.759l-2.002,1.558l-1.791,1.446
		l-0.707,1.295l-0.688,1.931l-0.445,0.9l-0.223,1.537l0.031,1.861l0.191,1.072l-0.182,1.092l-0.213,0.839l-0.443,0.576l-0.375,0.333
		l-0.605,0.131l-1.205,0.081l-1.668-0.303l-1.285-0.364l-0.838-0.566l-1.224-0.637l-0.91-0.435l-0.678-0.05l-0.809,0.131
		l-0.91,0.344l-1.083,0.597L8.623-68.18l-1.254,1.294l-0.293,0.445l0.01,0.384l0.304,0.445l0.222,0.313l0.111,0.515l-0.223,0.445
		l-0.95,1.426l-2.225,2.467l-0.667,0.708l-0.252,0.587l-0.283,0.576l-0.293,0.647l-0.587,0.708l-0.971,0.91L0.19-55.327
		l-0.809,0.647l-0.799,0.971l-0.88,1.103l-1.082,1.233l-2.487,2.205l-1.335,1.173l-1.183,1.547l-0.667,0.951l-0.9,0.272
		l-0.708,0.273l-1.618,0.445l-1.578,0.414l-0.961,0.212l-2.073,0.667l-1.588,0.496l-1.557,0.364l-1.891,0.577l-1.132,0.445
		l-1.82,0.637l-0.9,0.445l-0.991,0.617l-1.486,1.123l-1.385,1.274l-1.001,0.981l-1.345,1.334l-1.416,1.214l-1.173,0.798
		l-1.092,0.536l-1.122,0.485l-1.133,0.405l-1.416,0.404l-0.658,0.212l-0.526,0.313l-0.677,0.576l-0.88,0.637l-1.173,0.718
		l-1.193,0.708l-0.829,0.444l-0.344,0.445l-0.243,0.354l-0.485,0.444l-0.688,0.334l-0.89,0.445l-1.648,0.658l-1.719,0.597
		l-1.598,0.495l-0.83,0.486l-0.88,0.576l-1.244,0.718l-1.001,0.677l-1.881,0.931l-0.94,0.536l-1.062,0.364l-0.657,0.091
		l-0.223,0.061l-0.637,0.455l-0.576,0.151l-0.637,0.142l-0.486,0.112l-0.222,0.111l-0.222,0.212l-0.192,0.253l-0.031,0.445
		l-0.081,1.254l-0.212,0.829l-0.212,0.698l-0.313,0.384l-0.536,0.455l-0.667,0.425l-2.062,1.264l-2.71,0.971l-2.113,0.789
		l-0.627,0.283l-0.344,0.313l-0.404,0.496l-0.485,0.87l-0.212,0.374l-0.273,0.354l-0.496,0.283l-1.375,0.607l-1.446,0.617
		l-0.819,0.364L-80.78-5.18l-0.748,0.657l-0.708,1.062l-0.212,0.344l-0.142,0.303l-0.212,0.253l-0.313,0.212l-0.344,0.323
		l-0.344,0.183l-0.323,0.425l-0.223,0.303l-0.142,0.354l-0.081,0.607l0.061,0.688l0.192,0.698l0.151,0.516l-0.03,0.425l-0.183,0.486
		l-0.263,0.323l-0.222,0.212l-0.445,0.222l-0.637,0.031l-0.536,0.071l-0.212,0.142l-0.182,0.151l-0.122,0.273v0.354l0.273,1.012
		l0.334,0.718l0.637,1.244l0.607,0.698l0.324,0.576l0.415,0.9v0.384l-0.03,0.455l-0.314,0.637l-1.001,1.082l-1.284,1.132
		l-1.254,0.951l-0.546,0.354l-0.243,0.305l-0.232,0.354l-0.131,0.354l0.142,0.354l0.01,0.486l0.041,0.384l-0.122,0.557l-0.223,0.384
		l-0.293,0.313l-0.85,0.283l-1.396,0.395l-1.143,0.132l-0.759,0.142l-0.809,0.142l-0.819,0.363l-1.072,0.647l-1.335,0.92
		l-0.758,0.627l-0.222,0.395l-0.212,0.526l-0.122,0.313l0.041,0.444l0.212,0.283l0.496,0.374l1.193,0.253l1.012,0.414l0.384,0.547
		l0.343,0.495l0.425,1.133l0.192,0.729l0.162,1.021l0.041,1.88v0.607l-0.041,0.88l-0.435,1.638l-0.729,2.165l-1.173,2.183
		l-1.072,1.215l-1.416,1.719l-1.113,1.122l-1.517,1.143l-3.185,2.276l-1.74,1.304l-2.042,1.416l-1.153,0.768l-0.536,0.395
		l-0.192,0.254l-0.343,0.646l-0.253,0.738l-0.253,0.87l-0.212,0.728l-0.445,0.728l-0.627,0.81l-0.263,0.719l-0.233,0.363
		l-0.303,0.404l-0.405,0.263l-0.667,0.506l-0.586,0.566l-0.212,0.385l-0.082,0.525v0.586l0.203,0.638l0.364,0.374l0.466,0.263
		l0.303,0.213l0.203,0.272l-0.051,0.415l-0.131,0.697l-0.111,0.557l-0.212,0.424l-0.557,0.76l-0.516,0.809l-0.566,1.193
		l-0.202,0.525l-0.101,0.587l-0.223,0.798l-0.101,0.446l-0.162,0.425l-0.324,0.322l-0.445,0.345l-0.303,0.495l-0.212,0.465
		l-0.223,0.638l0.021,0.899l0.081,2.194l-0.061,1.406l-0.142,0.647l-0.212,0.758l-0.182,0.415l-0.688,0.728l-0.637,0.698
		l-0.476,0.576l-0.546,0.627l-0.627,0.445l-0.849,0.688l-1.032,0.465l-0.657,0.526l-1.436,1.466l-1.083,1.537l-0.88,1.335
		l-0.252,0.556l-0.081,0.607l0.01,0.869l0.334,1.072l0.293,1.071l0.202,0.678l0.102,0.728l-0.071,0.698l-0.082,0.678l-0.444,0.91
		l-0.86,1.86l-0.536,0.869l-0.536,0.618l-0.111,0.444l0.132,0.445l0.465,0.526l0.637,0.172l0.647,0.06l0.546,0.213l0.677,0.556
		l0.647,0.647l0.688,0.729l0.364,0.444l0.637,0.364l1.082,0.202l1.638,0.223l1.133,0.283l1.952,0.677l1.173,0.506l0.718,0.647
		l0.476,0.637l0.333,1.012l0.212,1.254l0.061,0.789l0.313,0.344l0.678,0.101l2.538,0.455l1.345,0.132l1.041,0.192l0.718,0.242
		l0.456,0.293l0.556,0.445l0.597,0.788l0.526,1.082l0.516,1.163l0.374,0.981l0.667,1.305l0.93,1.8l1.204,1.658l1.082,1.193
		l1.385,1.354l1.193,1.457l0.749,0.829l0.354,0.89l0.96,1.698l1.345,2.407l1.153,2.326l0.991,2.184l0.324,1.315l0.202,0.85
		l0.212,0.444l0.233,0.384l0.94,0.507l1.325,0.403l1.77,0.152l1.517-0.213l1.921-0.465l3.095-1.324l2.285-0.86l1.375-0.363
		l1.194-0.041l1.88,0.183l1.507,0.363l1.354,0.385l0.769,0.344l0.688,0.304l0.698,0.111l1.253-0.052l3.307-0.142l1.577-0.333
		l1.173-0.283h0.94l2.649-0.384l2.114-0.466l0.809-0.303l0.222-0.273l0.172-0.385l0.03-1.061l0.192-0.648l0.041-0.96l-0.03-1.841
		l-0.091-1.566l0.202-1.355l0.263-0.627l0.323-0.344l0.476-0.324l0.98-0.465l0.799-0.566l0.647-0.87l0.273-0.85l0.03-0.525
		l0.212-0.404l0.232-0.081l0.566,0.183l0.667,0.678l1.234,0.515l1.719,0.638l0.899,0.586l0.789,0.364l0.667,0.313l0.96,0.142
		l1.214-0.01l1.183-0.263l1.578-0.577l1.071-0.697l1.113-0.83l0.485-0.242l0.648-0.102l1.112,0.052l1.052-0.052l2.002-0.292
		l3.105-0.729l2.376-0.747l0.809-0.425l0.151-0.313l0.051-0.375l-0.182-0.91l-0.152-1.102l0.223-1.426l0.536-1.477l1.143-1.112
		l0.637-0.647l0.9-0.182l1.112,0.202l1.143,0.385l1.406,0.991l0.597,0.646l0.506,0.627l0.465,0.85l0.152,0.667l0.374,0.627
		l0.536,0.405l0.647,0.384l1.506,0.667l0.9,0.254l1.537,0.303l1.719,0.122l2.205-0.203l1.941-0.465l1.517-0.547l1.152-0.92
		l0.779-1.071l0.778-2.003l0.83-2.266l0.829-1.951l0.718-1.072l0.688-0.809l0.222-0.465l-0.151-1.021l0.121-1.396l0.192-0.95
		l0.475-0.628l0.688-0.15h0.627l0.647,0.142l0.496,0.333l0.415,0.647l0.425,0.89l0.404,0.627l0.375,0.304l0.91,0.515l1.881,0.648
		l1.365,0.444l1.355,0.364l1.062,0.294l0.486,0.303l0.415,0.485l0.223,0.606l0.526,0.557l0.344,0.444l0.606,0.364l1.002,0.444
		l1.859,0.658l1.922,1.001l2.053,1.183l2.479,1.487l1.061,0.678l0.445,0.262l0.334,0.061l0.494-0.101l0.648-0.485l1.83-2.043
		l1.426-1.567l0.92-0.85l0.82-0.384l0.637-0.152l0.939-0.181l0.91-0.405l0.789-0.495l0.586-0.698l0.617-1.011l0.738-1.811
		l0.404-0.758l0.314-0.263l0.92-0.486l1.061-0.525l1.205-0.85l0.939-1.012l0.648-1.233l0.748-2.134l0.656-1.951l0.223-1.416
		l0.203-1.396l0.395-1.021l0.191-0.89l0.09-0.657l-0.172-0.688l-0.312-0.566L43.46,89.39l-0.566-0.385l-0.182-0.313l-0.01-0.374
		l0.211-0.293l0.447-0.172l0.93-0.182l0.605-0.365l0.639-0.626l0.393-0.576l0.213-0.719l0.445-0.444l0.637-0.405l0.598-0.283
		l0.939-0.142l0.77,0.021l0.859,0.232l0.91,0.647l1.395,1.173l2.186,1.648l1.193,0.859l0.818,0.404l0.535,0.313l0.697,0.688
		l0.678,0.444l0.486,0.061l1.082-0.02l1.486-0.223l1.082-0.313l1.072-0.677l0.85-0.486l0.646-0.222l0.152-0.91l0.414-0.416
		l0.486-0.313l0.646-0.322l0.344-0.142l0.91-0.283l0.475-0.041l1.275-0.111l1.557-0.07l1.092-0.152l0.789-0.191l1.184-0.375
		l0.666-0.11l0.9-0.011l1.031,0.294l0.375,0.282l0.262,0.525l0.639,0.77l1.092,0.606l0.688-0.041l0.293-0.191l0.586-1.052
		l1.084-2.326l0.758-1.405l1.01-0.971l1.133-0.637l1.152-0.283l2.6-0.061l2.721,0.101l1.578,0.304l1.688,0.304l1.447,0.08
		l1.516-0.101l2.348-0.698l1.131-0.829l0.76-0.87l0.779-0.505l1.99-0.647l1.951-0.93l1.244-1.082l1.254-1.234l0.467-1.396
		l1.102-2.003l0.697-1.951l0.576-1.416l0.264-0.425l0.312-0.181l0.527-0.021l1.051,0.354l1.455,0.647l0.789,0.444l0.547,0.224
		l0.668-0.011l0.768-0.283l0.779-0.404l1.072-0.566l0.758-1.173l0.344-1.355l0.385-1.679l0.404-1.314l0.303-0.405l0.648-0.363
		l1.465-0.062l0.951-0.282l0.525-0.465l0.354-0.759l0.225-1.213l0.414-0.962l0.879-1.081l0.789-0.94l1.184-1.548l0.939-1.598
		l0.891-1.082l1.254-1.061l2.285-1.508l2.012-1.071l2.914-1.072l1.84-0.606l1.748-0.931l1.375-0.96l2.023-1.699l1.922-1.376
		l0.029-0.04l-0.566-1.173l-0.303-0.839l0.01-1.062l0.344-0.789l0.699-0.809l0.857-0.81l1.082-0.91l1.275-0.95l1.133-0.91
		l0.727-0.809l0.395-0.829l0.871-1.882l0.961-1.213l0.434-0.971l0.223-1.214l0.143-1.082l-0.143-1.142l-0.404-1.446L156.616,21
		l-0.688-1.335l-0.727-1.203l-0.355-0.718l0.082-0.566l0.061-0.293l0.283-0.395l0.566-0.476l0.859-0.818l1.08-0.678l0.791-0.81
		l0.637-1.011l0.232-0.88l0.111-0.405l-0.031-0.445l-0.08-0.252l-0.576-0.183l-1.527-0.728l-2.721-1.163l-1.941-1.012l-1.588-1.011
		l-1.506-0.859l-1.104-0.637L147.1,4.952l-1.283-0.445l-0.598-0.232l-0.443-0.476l-0.395-0.616l-0.072-0.546V2.353l0.102-0.172
		l0.426-0.415l0.697-0.566l0.777-0.809l0.779-1.143l0.395-1.405l0.092-1.851l-0.152-1.699l-0.941-2.022l-0.555-1.193l-0.477-0.92
		l-0.162-0.596l0.031-0.728l0.172-1.305l0.344-1.517l0.637-2.993l0.223-1.214l0.9-1.77l0.9-1.547l0.221-1.042l-0.119-1.577
		l0.787-1.831l-1.061,0.738l-0.537,0.01l-0.799-0.253l-1.121-0.375l-1.406-0.758l-0.961-0.637l-0.545-0.779l-0.283-1.001
		l-0.639-0.718l-0.971-0.708l-1.123-1.152l-1.041-0.83l-0.98-0.384l-0.809-0.546l-0.232-1.072l-0.324-2.235l-0.748-1.679
		l-1.133-2.042l-0.627-0.769l-0.627-0.435l-0.939-0.101l-1.467,0.021l-1.193-0.253l-1.193-0.313l-0.707,0.071l-0.861,0.03
		l-0.312-0.334l-0.273-0.718l-0.162-0.667l0.203-0.566l0.242-0.232l0.598-0.405l0.455-0.516v-0.404l-0.213-0.769l-1.387-1.84
		l-1.617-1.659l-1.283-1.203l-1.68-0.92l-2.355-0.91l-2.285-0.91l-1.205-0.88l-0.182-0.617l0.182-0.961l0.234-0.627l0.496-0.96
		l1.07-2.599l0.273-1.132l-0.264-0.647l-0.555-0.718l-1.508-1.315l-1.871-2.154l-2.012-2.205l-2.256-2.032l-1.799-2.326
		l-0.809-1.274l-0.314-1.689l0.162-1.628l0.041-1.406l-0.213-0.496l-0.729-0.374l-0.252-0.445l-0.395-2.74l-0.203-1.294
		l-0.424-1.173l-0.809-0.607l-1.508-1.254l-1.627-1.83l-1.377-1.325l-0.738-0.829l-0.484-1.052l-0.354-1.223v-1.74l-0.223-2.407
		l-0.535-4.176l-0.355-1.234l-0.373-1.911l-0.598-1.729l-0.525-2.063L94.436-111.794"/>
</g>
<g id="Layer_1_1_">
</g>
</svg>
