<?xml version="1.0" encoding="utf-8"?>
<!-- Generator: Adobe Illustrator 16.0.4, SVG Export Plug-In . SVG Version: 6.00 Build 0)  -->
<!DOCTYPE svg PUBLIC "-//W3C//DTD SVG 1.1//EN" "http://www.w3.org/Graphics/SVG/1.1/DTD/svg11.dtd">
<svg version="1.1" id="Layer_1" xmlns="http://www.w3.org/2000/svg" xmlns:xlink="http://www.w3.org/1999/xlink" x="0px" y="0px"
	 width="301.189px" height="226.596px" viewBox="-136.625 -102.679 301.189 226.596"
	 style="enable-background:new -136.625 -102.679 301.189 226.596;" xml:space="preserve">
<g id="Layer_17">
	<path id="Bajaur_Agency." style="fill:#CCCCCC;stroke:#FFFFFF;stroke-width:1.15;" d="M-131.031,16.478L-131.031,16.478
		l2.583,8.672l1.302,3.419l1.44,3.843l3.155,4.141l2.573,3.419l2.933,2.711l2.064,2.308l3.388,3.95l4.722,3.112l4.299,2.446
		l3.377,2.296l2.054,0.678l2.086,0.699l2.615,1.481l1.165,0.668l3.377,1.09l5.812,2.436l2.837-1.196l5.686,0.35l3.419,0.963
		l0.752,0.212l6.553,0.953l4.458-0.042l2.837-0.191l4.966,0.139l2.604-0.498l3.388-0.678l4.955-0.89l1.06-0.254l2.276-0.551
		l4.87-1.101l6.205-1.801l2.117-1.661l2.255-2.965l3.885-3.473l3.282-2.425l2.488-1.133l4.235-1.196l5.325-0.042l4.955,2.298
		l2.7,0.941l2.933,0.371l3.971-0.815l5.452-0.455l4.67-1.133l2.975-0.201l3.473,0.042l4.107-0.265l3.197,1.165l3.336,2.064
		l2.254,1.048l0.678,0.307l1.568,2.309l-1.482,2.255l-2.51,2.795l-2.646,3.155l-0.551,2.795l0.625,2.7l1.439,3.832l2.383,5.897
		l0.232,3.208l0.941,3.494l2.436,2.806l2.699,2.848l5.654,3.155l0.594,3.779l0.805,5.199l0.592,3.197l-0.041,2.699v0.413
		l0.041,4.235l-0.041,3.197l0.582,3.844l5.727,0.042l2.943-0.096l2.775-1.303l2.592-0.899l2.924-2.753l3.377-3.102l4.373-1.387
		l10.713-1.069l-0.201-0.487l-0.285-0.551l-0.316-0.477l-1.303-1.017l-0.625-0.476l-0.762-0.668l-0.764-0.561l-0.529-0.529
		l-0.465-0.402l-0.699-0.815l-0.783-1.048l-0.412-0.529l-0.244-0.413l-0.307-0.392l0.666-0.043l0.742,0.043l0.498-0.032l1.025-0.116
		l1.123-0.127l0.604-0.148l0.73-0.073l0.412-0.075l0.678-0.519l0.381-0.223l0.328-0.392l0.445-0.477l0.594-0.497l0.328-0.233
		l0.508-0.232l0.307-0.233l0.297-0.254l0.18-0.455l-0.117-0.826l-0.223-0.646l-0.232-0.509l-0.223-0.37l-0.232-0.296l-0.223-0.414
		l0.18-0.73l0.223-0.307l0.656-0.327l0.594-0.117l0.656-0.011l0.318-0.148l0.443-0.105h0.668h0.316l0.637,0.021l0.338-0.116
		l0.34-0.285l0.221-0.265l0.021-0.371l-0.021-0.455l-0.084-0.371l-0.105-0.37l-0.275-0.529l-0.297-0.529l-0.381-0.508l-0.211-0.455
		l-0.129-0.435l-0.221-0.371l-0.021-0.402l0.096-0.688l-0.021-0.571l-0.096-0.445v-0.38l0.043-0.382l0.031-0.392l0.064-0.371
		l-0.105-0.327l0.053-0.148l0.178-0.424l0.35-0.444l0.328-0.254l0.383-0.244l0.477-0.424l0.328-0.582l0.062-0.529l0.053-0.509
		l0.201-0.613l0.223-0.359l0.371-0.594l0.445-0.741l0.273-0.667l0.182-0.381l0.264-0.35l0.381-0.296l0.371-0.307l0.381-0.361
		l0.361-0.433l0.146-0.445l0.107-0.486l0.094-0.499v-0.666l-0.094-0.656l-0.043-0.424l-0.043-0.498l0.086-0.477l0.115-0.434
		l0.084-0.36l-0.053-0.529l-0.146-0.583l-0.213-0.444l-0.242-0.339l-0.182-0.296l-0.062-0.402l0.043-0.571l0.094-0.657L102,65.074
		l1.693-0.243l0.348,0.062l0.752,0.085l0.467-0.201l0.508-0.381l0.285-0.551l0.361-0.444l0.402-0.275l0.445-0.233l0.295-0.158
		l0.307-0.116l0.445-0.138l0.488-0.106l0.518,0.043l0.477,0.042h0.668l0.486-0.021l0.402-0.063l0.57,0.043l0.668,0.105l0.434-0.042
		l0.668-0.286l0.592-0.329l0.223-0.264l0.158-0.466l0.117-0.466l0.137-0.646l0.383-0.243l0.424,0.138l0.826,0.19l0.422-0.053
		l0.318-0.456l-0.021-0.444v-0.444l-0.096-0.784l-0.043-0.55l-0.031-0.477l-0.17-0.37l-0.125-1.048l0.273-0.414l0.244-0.232
		l0.668-0.201l0.635,0.117l0.646,0.254l0.602,0.169l0.33,0.212l0.561,0.222l0.467,0.148h0.379l0.658-0.274l-0.053-0.678
		l-0.139-0.773l-0.031-0.412l0.031-0.498l0.096-0.54l0.316-0.403l0.404-0.392l0.391-0.232l0.73-0.021l0.434,0.106l0.488,0.17
		l0.549,0.222l0.457,0.212l0.475,0.254l0.277,0.233l0.678,0.158l0.666,0.127h0.539l0.467-0.042l0.678,0.021l0.625,0.085l0.75,0.105
		l0.371-0.021l0.477,0.054l0.541-0.075l0.434-0.085l0.424-0.126l0.434-0.318l0.244-0.487l0.434-0.423l0.062-0.328l0.033-0.359
		l0.232-0.414l0.338-0.095l0.414-0.127l0.646,0.201l0.529,0.105l0.57-0.127l0.52-0.477l0.35-0.434l0.232-0.784l0.148-0.486v-0.223
		v-0.413l0.084-0.519l0.223-0.456l0.297-0.677l0.922-2.054l-0.213-1.546l1.938-0.933l0.232-2.54l-0.592-0.932l-0.869-0.741
		l-0.561-0.678l0.275-1.207l0.816-0.91l0.592-2.934l0.848-0.963l-0.838-0.772l-1.016-0.318l-0.34-0.571l-0.422-0.55l-0.309-2.765
		l0.275-0.656l1.822-2.085l-0.656-0.328l-1.027-0.244l-0.541-1.853l-0.666,0.158l-1.271,0.159l-0.666-0.413l-0.307-1.323
		l0.941-1.249l-0.18-1.334l-0.244-1.06l0.17-1.364l-0.213-1.123l1.293-0.73l1.291-1.027l1.176-0.232l0.857,0.783l0.656,0.826
		l0.91,0.286l0.424-0.985l0.223-0.71l0.477-0.423l0.455-1.26l0.773-1.291l1.969-0.509l0.678-1.673l-0.529-2.308l0.656-1.112
		l1.102,0.011l0.984,0.975l1.154,1.048l1.102,0.275l1.121,0.223l1.092-0.074l1.279-0.826l1.758-1.419l1.039-0.921l-0.701-1.26
		l-0.92-0.181l-3.387-0.116l-0.35-0.582l-0.096-1.387l-0.096-1.588l-1.377,0.698l-1.102,0.582l-1.238,0.583L148-1.181l-2.031-1.366
		l-3.145-3.007l-2.043-2.667l-1.027-2.298l-6.691-1.567l-4.33-1.557l-1.588-2.096l-1.092-0.466l-3.547,0.19l-3.113,0.593L115-15.516
		l-3.092-1.366l-1.482-2.976l-1.576-0.772l-2.605-0.91l-6.957-0.667l-4.742-0.096l-4.689-0.815l-3.844-0.508l-1.705-0.116
		l-0.465-0.021l-1.727,0.646l-2.816,0.953l-1.26-0.339l-1.514-0.847l-3.123-2.287l-1.154-2.139l-0.338-1.408l0.062-2.001
		l-0.328-2.234l0.201-1.81l-0.148-1.832l-0.307-1.334l-0.381-1.45l-0.668-1.419l-0.848-1.567l-1.016-2.128l-0.678-2.646
		l-0.434-1.853l-1.133-2.044l-1.324-2.149l-0.264-2.233l-2.943-5.263l-1.186-2.805l-1.176-1.79l-1.027-0.995l-2-2.393l-1.398-1.196
		l-2.414-1.8l-1.418-1.588l-0.984-1.387l-0.783-2.595l-0.393-1.397l-1.176-1.789l-0.793-1.397l-2.012-2.001l-1.801-1.588
		l-2.975-1.599l-1.408-1.187l-3.98-2.795l-0.836-1.101L31.9-94.16l-1.102-1.175l-1.207-1.366l-1.578-1.461l-1.619-0.19l0.01,0.561
		l-0.486,1.06l-1.303,2.985l-3.271,3.567l-2.361,0.371l-3.748,0.582l-3.737,3.42l-0.572,0.508l-9.613,2.445l-3.43,0.869l-0.699,0.19
		l-5.707,3.038l-1.948,1.419l-2.816,2.075l-6.141,2.572l-3.652,1.525l-7.178,2.159l-6.554,0.529l-6.437,1.578l-0.699,0.18
		l-4.754,3.917l-1.111,0.911l-5.823,4.965l-4.192,2.51l-4.161,2.487l-2.414,3.695l-1.514,2.319L-70.396-39l-0.508,2.541
		l-0.953,4.605l-0.042,0.223l-3.325,7.358l-2.52,5.601l-3.727,3.134l-7.284,2.086l-3.938,1.133l-7.39,13.711l-0.858,1.26
		l-1.345,1.947l-2.657,2.361l-7.898,0.275l-2.615,0.085l-5.167,3.821l-1.132,0.868l-4.744,3.092l-3.907,1.312L-131.031,16.478"/>
</g>
<g id="Layer_1_1_">
</g>
</svg>
