<?xml version="1.0" encoding="utf-8"?>
<!-- Generator: Adobe Illustrator 16.0.4, SVG Export Plug-In . SVG Version: 6.00 Build 0)  -->
<!DOCTYPE svg PUBLIC "-//W3C//DTD SVG 1.1//EN" "http://www.w3.org/Graphics/SVG/1.1/DTD/svg11.dtd">
<svg version="1.1" id="Layer_1" xmlns="http://www.w3.org/2000/svg" xmlns:xlink="http://www.w3.org/1999/xlink" x="0px" y="0px"
	 width="301.069px" height="219.398px" viewBox="-79.75 -58.037 301.069 219.398"
	 style="enable-background:new -79.75 -58.037 301.069 219.398;" xml:space="preserve">
<g id="Layer_61">
	<path id="Kharan" style="fill:#CCCCCC;stroke:#FFFFFF;stroke-width:1.15;" d="M215.785-52.123L215.785-52.123l-0.616,0.318
		l-0.499,0.173l-0.529,0.029l-0.612-0.026l-0.73-0.242l-0.532-0.438l-0.901-0.751l-0.781-0.584l-0.365-0.215l-0.39,0.033
		l-0.249,0.201l-0.174,0.379l-0.274,0.809l-0.643,0.868l-1.581,1.466l-0.636,1.157l-0.218,0.586l0.088,0.758l0.284,0.652
		l0.002,0.559l-0.163,0.539l-0.474,0.545l-0.83,0.658l-0.68,1.056L203.315-42l-0.721,1.226l-0.388,0.374l-0.584,0.213l-0.975,0.374
		l-1.493,1.024l-1.222,0.667l-2.225,0.725l-1.722,0.567l-0.67,0.248l-0.801,0.471l-1.855,1.076l-0.278,0.173l-0.527,0.074
		l-0.67-0.12l-0.781-0.339l-0.813-0.464l-0.588-0.363l-0.363-0.214l-0.645-0.069l-0.863,0.004l-1.921,0.136l-1.086-0.043
		l-0.892-0.043l-1.254,0.038l-1.306,0.301l-1.582,0.622l-1.138,0.694l-0.358,0.472l-0.108,0.343l0.046,1.775l-0.189,0.62
		l-0.411,0.468l-1.052,0.374l-0.863,0.25L171.939-30l-1.468,0.622l-0.608,0.347l-0.991,1.011l-0.605,0.714l-0.439,0.516l-0.858,0.25
		l-0.475,0.051l-0.946-0.136l-1.002-0.236l-2.199-0.223l-1.311-0.112l-2.084,0.236l-1.593,0.215l-0.475,0.084h-0.011l-1.582,0.456
		l-1.163,0.746l-1.564,1.229l-2.72,1.637l-2.223,1.459l-1.389,0.896l-1.893,1.42l-1.17,1.082l-1.721,1.075l-2.153,0.787
		l-1.552,1.032l-1.447,1.181l-1.238,1.611l-1.931,1.658l-2.006,1.696l-1.328,0.75l-1.648,0.406l-1.974,0.215l-2.464,0.151
		l-1.971,0.069l-1.209,0.315l-0.988,0.516l-1.615,1.513l-1.895,2.139l-2.005,1.942l-2.049,1.85l-1.279,1.378l-0.774,0.521
		l-1.423,0.274h-1.14l-1.743-0.169l-3.268-0.664l-1.31-0.254l-1.206,0.037l-2.138,0.745l-1.866,0.604l-1.809,0.461l-1.534,0.375
		l-1.921,0.56l-1.976,0.743l-1.699,0.416L84.81,6.755l-1.149-0.06l-0.87-0.105l-0.818,0.13l-1.209,0.613l-4.334,1.591l-1.417,0.498
		l-1.149,0.043l-0.816-0.008L72.168,9.93l-2.318,2.142l-0.996,1.148l-1.11,1.767l-1.213,1.093l-1.373,0.952l-2.183,0.27
		l-2.021-0.058l-1.798-0.159l-1.465-0.589L56.5,15.819l-0.926-0.25l-0.491-0.004l-0.494,0.475l-0.061,0.667l0.26,1.247l-0.006,0.579
		l-0.443,0.524l-0.603,0.334l-0.873,0.089l-1.199-0.009l-1.204,0.322l-1.094,0.762l-1.481,0.904l-0.856,0.132l-0.924-0.205
		l-0.762-0.103l-1.036,0.128l-1.038,0.388l-1.091-0.006l-1.036-0.015l-0.385,0.196l-1.205,0.997l-1.424,1.052l-1.096,0.963
		l-1.474,0.423l-0.928,0.091l-0.601,0.284l-0.494,0.673l-1.59,1.424l-0.604,0.969l-0.383,0.287l-0.218-0.043l-0.434-0.241
		l-0.323-0.529l-0.215-0.193l-0.547-0.004L28.513,28.6l-0.494,0.571l-1.254,0.331l-1.306-0.011l-0.873-0.198l-0.871,0.093
		l-1.525,0.667l-1.256,0.854l-1.476,1.197L17.6,33.636l-1.968,1.767l-0.439,0.286l-0.03,0.02l-0.159-1.113l-0.103-0.92l-0.36-1.432
		l-0.609,0.312l-0.544,0.393l-0.002,0.004l-0.024,0.11l-0.182,0.769l-1.197,1.084L9.241,35.82l-4.503,0.928l-2.862,0.225
		l-3.749-0.241l-4.633-0.223l-5.174,0.266l-3.631,0.343l-3.619,0.924l-2.524,0.626l-2.523,0.525l-2.753-0.049l-3.978-0.524
		l-1.771-0.464l-0.662,0.01l-0.872,0.502l-1.26,1.056l-0.857,1.18l-0.4,1.857l-0.087,1.16l-0.425,0.788l-0.849,1.48l-0.871,0.495
		l-0.77,0.013l-1.871,0.042l-1.528,0.611l-1.729,1.393l-1.948,1.4l-3.032,2.194l-1.837,1.494l-2.484,1.895l-2.585,2.387
		l-3.562,2.695l-2.576,2.582l-1.495,1.779l-1.814,2.082l-2.05,1.504l-2.27,1.408l-2.151,1.262l0.549,3.189l0.991,3.994l0.064,0.457
		l0.809,5.533l0.512,5.225l0.224,2.307l1.083,8.455l0.068,0.531l0.288,6.65l-1.32,3.439l-2.796,7.281l1.772,1.779l0.224,0.721
		l0.159,0.516l-0.802,1.604l-3.574,2.975l0.127,1.471l1.283,1.092l1.13,0.445l0.879,0.346l1.914-0.059l2.972-0.348l1.199,0.545
		l1.405,0.99l3.052,0.51l0.633,0.113l2.194-0.26l6.979-3.266l1.378-0.035l3.521-0.074l5.87-0.605l2.326,1.197l2.823,1.461
		l0.996-0.311l0.703,0.242l0.551,0.156l0.462,0.07l2.021,0.154l1.409,0.109l1.219,0.195l1.232,0.15h0.748l0.525-0.08l0.879-0.121
		l0.968-0.004l0.925,0.273l0.75,0.389l0.657,0.154l0.97-0.043l0.746-0.238l0.483-0.354l0.966-0.318l0.834-0.197l1.32-0.129
		l2.595,0.043l2.594-0.08l2.858-0.318l1.318-0.277l0.615-0.312l0.306-0.229l0.396-0.746l0.264-0.312l0.178-0.229l0.439-0.076
		l1.097,0.152l1.101,0.389l0.963,0.23l1.411,0.076l1.494-0.205l1.848-0.227l2.155-0.127l1.057-0.08l0.792-0.197l0.792-0.35
		l1.364-0.787l1.145-0.559l0.704-0.227l1.101,0.004l0.879,0.035l0.659,0.201l0.396,0.207l0.308,0.35l0.351,0.633l0.658,0.707
		l1.098,0.793l1.274,0.945l0.834,1.25l1.095,1.021l0.396,0.314v0.389l-0.047,0.391l-0.264,0.629v0.391l0.044,0.389l0.438,0.592
		l0.421,0.422l2.853,1.891l2.457,1.617l1.314,0.709l0.701,0.551l0.702,0.361l1.143,0.281l1.933,0.162l3.47,0.166l1.185-0.043
		l0.966,0.277l0.349,0.354l0.305,0.717l0.042,0.551l-0.002,0.707l-0.399,1.068l-0.885,1.371l-1.101,1.213l-0.441,1.094l0.043,0.557
		l0.087,0.156l0.219,0.078l0.351-0.043l0.924-0.703l0.618-0.549l0.551-0.943l0.885-1.686l0.536-1.961l0.178-0.816l0.002-0.475
		l-0.173-0.512l-0.482-0.664l-0.436-0.713l-0.173-0.553v-0.508l0.266-0.432l0.792-0.705l0.968-0.309l1.276-0.303l1.32-0.074
		l1.404-0.117l1.1-0.145l1.277-0.662l0.97-0.703l0.599-0.783l0.356-0.857l0.399-0.59l0.22-0.234l0.22,0.004l0.307,0.125l0.173,0.355
		l0.216,0.551l0.176,0.123l0.217-0.043l0.134-0.23l0.266-0.355l0.486-0.152l0.306-0.227l0.355-0.432l0.354-0.232l0.483-0.273
		l1.021-1.174l1.37-1.328l0.754-0.902l0.577-0.904l0.398-0.387l0.441-0.307l0.752-0.428l1.014-0.471l0.706-0.195l0.617-0.195
		l0.353-0.076l0.175-0.154l0.133-0.273l0.003-0.355l0.046-0.473l0.224-0.51l0.399-0.428l0.574-0.662l0.443-0.35l0.397-0.23
		l0.353-0.045l0.439,0.004l0.584,0.316l0.075,0.043l0.657,0.594l0.593,1.158l0.391,0.666l0.392,0.666l0.566,0.393l0.438,0.281
		l0.173,0.312l-0.049,0.963l0.125,0.748l0.349,0.387l0.831,0.518l0.789,0.473l0.348,0.354l0.083,0.434l0.038,0.746l0.169,0.982
		l0.303,0.559l0.655,0.664l0.214,0.439l-0.051,0.738l-0.186,1.178l-0.538,1.246l-0.091,0.357l0.087,0.307l0.271,0.352l0.917,0.516
		l3.319,1.789l3.935,1.912l1.573,1.033l1.262,1.188l0.866,0.871l0.741,0.361l0.964,0.211l0.786,0.318l0.392,0.389l0.52,0.592
		l0.74,0.164l1.012-0.033l1.499-0.543l1.936-0.848l2.379-1.248l1.853-1.082l2.26-1.393l2.344-1.504l2.877-1.826l2.301-1.312
		l2.305-1.502l4.118-2.363l0.747-0.217l0.53-0.045l0.354-0.113l0.487-0.35l0.8-0.619l0.397-0.232l0.307-0.072l0.351,0.08
		l0.304,0.123l1.202,1.16l0.994,1.111l0.427,0.988l0.25,1.023l0.026,1.336l0.25,1.021l0.904,1.15l0.767,1.504l0.5,1.734
		l-0.013,1.096l0.039,0.506l0.258,0.316l0.389,0.242l1.227,0.168l0.969,0.014l1.449-0.258l1.851-0.174l1.184,0.215l0.976,0.316
		l0.738,0.559l1.158,1.422l0.901,1.539l0.574,2.484l0.29,1.217l0.561,0.52l0.436,0.211l0.436,0.043l0.262,0.205l0.123,0.662
		l-0.009,0.512l0.299,0.559l0.389,0.361l0.561,0.389l0.566,0.213l0.871,0.4l0.387,0.207l0.307,0.004l0.616-0.148l0.837-0.217
		l0.836-0.223l0.833-0.066l1.324,0.105l0.161-0.869l0.214-1.805l0.214-2.094l0.062-1.576l0.304-1.238l0.632-0.943l1.098-1.887
		l1.821-2.326l1.406-1.854l1.419-1.852l2.006-2.82l2.121-3.355l1.181-1.625l1.411-2.482l0.948-1.311l1.063-1.412l1.309-1.623
		l1.179-1.848l1.062-1.844l0.939-1.941l0.578-1.84l0.226-1.076l0.102-1.725l0.096-1.693l-0.008-0.887l0.355-0.648l0.128-0.209
		l0.467-0.766l9.635-8.77l-0.195-0.238l-0.405-0.572l-0.589-1.334l-0.248-1.016l-0.264-0.637l0.032-0.816l0.391-1.184l0.472-1.246
		l0.388-1.125l0.487-1.814l0.629-1.805l0.885-0.924l2.613-1.814l0.878-0.857l0.311-0.746l0.109-1l-0.2-1.83l0.697-1.678l1.208-2.105
		l1.26-1.537l1.306-0.842l1.447-0.777l1.871-0.826l1.832-1.521l1.478-1.59l0.893-1.109l0.471-1.121l0.895-1.17l1.586-1.16
		l1.195-0.693l0.831-1.691l0.688-1.303l0.182-1.07l-0.064-2.086l-0.653-1.518l-0.667-1.158l-1.178-0.854l-0.632-0.209l-1.064-0.037
		l-0.373,0.303l-0.513,0.488l-0.575,0.229l-0.571,0.045l-0.423-0.076l-0.553-0.459l-0.86-1.729l-0.1-1.195l0.055-1.584l0.197-1.504
		l0.424-1.817l0.644-1.937l0.25-0.994l-0.307-1.401l-0.54-0.772l-0.835-0.529l-0.777-0.142l-1.003,0.155l-0.716,0.043l-0.987-0.281
		l-0.973-0.656l-0.053-0.506l0.101-0.817l0.551-1.432l0.995-1.93l0.395-1.065l1.53-2.968l0.72-2.124l0.792-1.441l0.951-1.339
		l0.716-0.731l0.408-0.904l0.586-1.269l0.756-1.272l0.945-0.663l1.447-0.939l0.883-0.894l2.004-1.993l1.012-1.722l0.949-2.219
		l1.199-1.333l1.833-2.107l0.697-1.441l0.508-1.558l0.254-0.944l0.508-0.993l1.014-1.438l0.256-1.16l0.456-4.44l-0.057-1.874
		l-0.129-0.116l-0.308-0.278h-0.444l-0.504,0.164l-0.381,0.56l-0.506,0.388l-0.633,0.388l-0.382,0.051l-0.881-0.169l-1.888-1.23
		l-0.63-0.664v-0.609l0.257-1.333l0.383-2.005l0.445-1.772l0.513-1.552l0.314-0.5l0.632-0.661l0.761-0.049h1.076l0.885-0.277
		l0.254-0.613l0.51-1.67l0.388-1.721l0.76-1.222l0.953-1.773l1.154-1.937l0.317-0.994l0.203-2.717l0.445-1.226l0.513-1.5
		l0.576-2.783l0.011-1.721l-0.062-0.829l-0.312-0.783l-1.326-1.333l-0.564-1.058l-0.565-1.278l-0.566-1.447l-0.124-1.49l0.126-1.162
		l0.902-2.613l0.959-2.665l1.406-3.224l0.964-2.614L215.785-52.123"/>
</g>
<g id="Layer_1_1_">
</g>
</svg>
