<?xml version="1.0" encoding="iso-8859-1"?>
<!-- Generator: Adobe Illustrator 16.0.4, SVG Export Plug-In . SVG Version: 6.00 Build 0)  -->
<!DOCTYPE svg PUBLIC "-//W3C//DTD SVG 1.1//EN" "http://www.w3.org/Graphics/SVG/1.1/DTD/svg11.dtd">
<svg version="1.1" xmlns="http://www.w3.org/2000/svg" xmlns:xlink="http://www.w3.org/1999/xlink" x="0px" y="0px"
	 width="29.697px" height="19.85px" viewBox="0 0 29.697 19.85" style="enable-background:new 0 0 29.697 19.85;"
	 xml:space="preserve">
<g id="Layer_97">
	<g id="Layer_102">
		<path id="Lower_Dir" style="fill:#CCCCCC;stroke:#FFFFFF;stroke-width:1.07;" d="
			M10.948,17.77L10.948,17.77h0.002l0.034,0.021l0.046,0.029l0.06,0.06l0.058,0.042l0.056,0.029l0.065,0.022l0.051,0.021
			l0.044,0.025l0.037,0.029l0.026,0.021l0.021,0.024l0.02,0.04l0.021,0.031l0.027,0.031l0.033,0.033l0.029,0.018l0.038,0.012
			l0.036,0.007l0.078-0.001l0.035-0.002l0.017-0.001l0.067,0.011l0.039,0.014l0.055,0.024l0.04,0.015l0.027,0.029l0.027,0.032
			l0.02,0.028l0.019,0.035l0.021,0.029l0.031,0.041l0.039,0.032l0.045,0.019l0.032,0.006l0.059,0.002l0.075,0.015l0.043,0.004
			l0.005,0.001h0.003l0.132,0.012l0.171,0.002l0.164,0.078l0.099,0.053l0.065,0.121l0.003,0.004l0.014,0.022l0,0l0.021,0.038
			l0.026,0.047l0.018,0.049l0.021,0.051l0.026,0.063l0.014,0.033l0.023,0.06l0.028,0.033l0.03,0.012l0.035,0.014l0.064,0.012
			l0.069,0.008l0.051-0.007l0.07-0.019l0.065-0.01l0.068-0.022l0.057-0.024l0.054-0.023l0.052-0.028l0.063-0.031l0.074-0.03
			l0.095-0.039l0.067-0.033l0.06-0.024l0.087-0.04l0.075-0.033l0.05-0.016l0.099-0.025l0.051-0.018l0.065-0.012l0.106-0.02
			l0.044-0.021l0.087-0.025l0.108-0.002l0.072-0.012l0.062-0.012l0.064-0.006l0.076-0.008l0.067-0.01l0.063-0.005l0.077-0.009
			l0.062-0.004l0.047-0.004l0.047-0.002l0.069,0.012l0.034,0.013l0.063,0.024l0.079,0.025l0.11,0.033l0.078,0.034l0.062,0.017l0,0
			l0.401,0.018l0.059-0.002l0.064-0.008l0.041-0.004l0.225,0.012l0.059-0.008h0.075l0.066-0.011l0.056-0.009l0.125-0.012
			l0.098-0.034l0.047-0.019l0.003-0.002l0.063-0.027l0.098-0.039l0.102-0.031l0.079-0.031l0.061-0.025l0.062-0.024l0.048-0.032
			l0.056-0.037l0.057-0.025l0.055-0.02l0,0l0.002-0.002l0.053-0.01h0.057l0.097,0.016l0.079,0.024l0.005,0.001h0.002l0.168,0.029
			l0.053,0.002H18.7l0.056,0.007l0.03,0.004l0.078,0.002h0.054l0.156-0.067l0.318,0.01l0,0l0.028-0.004l0.057-0.008h0.039
			l0.095,0.019l0.056,0.004l0.021,0.001l0.045-0.003h0.073l0.012,0.001h0.001l0.042,0.003l0.092,0.003l0.072-0.006l0.036-0.003
			l0.067,0.002l0.083,0.008l0.069,0.011l0.132,0.01l0.063,0.006l0.077,0.023l0.071,0.012l0.06,0.016l0.058,0.02l0.013,0.006
			l0.037,0.016l0.005,0.002l0.001,0.001l0.059,0.022l0.033,0.021h0.035l0.024,0.008l0.021-0.008l0.323,0.002l0.259-0.112
			l0.468-0.086l0.159-0.07l0.078-0.034l0.19-0.101l0.251-0.107l0.258-0.123l0.338-0.155l0.139-0.032l0.326-0.014l0.31-0.041
			l0.263-0.062l0.205,0.002l0.306-0.223l-0.056-0.097l-0.026-0.024l0.031-0.018l0.027-0.01l0.031-0.01l-0.009-0.031l-0.021-0.049
			l-0.076-0.094l-0.051-0.117l-0.023-0.054l0.174-0.09l0.271-0.063l0.112-0.186l0.236-0.248l-0.021-0.105l0,0l0.096-0.178
			l-0.104-0.15l0.024-0.16l0.122-0.198l0.038-0.106l0.03-0.09l0.037-0.109l0.025-0.17l0.01-0.066l-0.01-0.111l-0.009-0.09
			l-0.011-0.121l0.104-0.225l0.273-0.236l0.086-0.195l0.33-0.229l0.146-0.23l0.32-0.199l0.169-0.135l0.548-0.092l0.033-0.188
			l0.105-0.017l0.188-0.025l0.239-0.139l0.268-0.224l0.091-0.062l0.054-0.143l0.04-0.113l0.075-0.215l0.068-0.147l0.088-0.138
			l-0.201-0.094l-0.069-0.064L28.533,11.6l-0.057-0.07l-0.099-0.121l0.003-0.096l0.021-0.15l-0.087-0.112l-0.058-0.06l-0.076-0.083
			l-0.07-0.099l-0.031-0.112l-0.046-0.071l-0.081-0.035l-0.085-0.03l-0.109-0.026l-0.09-0.031l-0.157-0.048l-0.118-0.05
			l-0.115-0.136l-0.063-0.061l-0.125-0.091l-0.062-0.066l-0.011-0.147l-0.005-0.019l-0.021-0.077l-0.075-0.072l-0.088-0.143
			L26.685,9.53L26.35,9.468l-0.165-0.192l-0.205,0.083l-0.104,0.024l-0.041,0.032L25.646,9.62l-0.092,0.054L25.394,9.73l-0.08,0.079
			L25.26,9.911l-0.072,0.104l-0.147,0.081l-0.256,0.078l-0.126,0.218l-0.081,0.077l-0.188,0.037l-0.172,0.021l-0.172,0.04
			l-0.201,0.108h-0.001l-0.154,0.037l-0.113-0.049l-0.131-0.067l-0.118-0.017l-0.181,0.007l-0.217-0.035l-0.307-0.032l-0.255-0.037
			l-0.166-0.05l-0.177-0.104l-0.159-0.153l-0.08-0.055l-0.202-0.002l-0.059-0.024l-0.055-0.067l-0.173-0.291l-0.159-0.083
			l-0.133-0.068l-0.117-0.2l-0.129-0.042l-0.056-0.159l-0.278-0.347l-0.128-0.11l-0.249-0.188l-0.24-0.291l-0.047-0.02l-0.172,0.038
			l-0.374,0.268L19.11,8.58l-0.34-0.361L18.638,7.9l0.076-0.151L18.61,7.64l-0.064-0.148L18.54,7.064l-0.112-0.123l-0.164-0.029
			l-0.139-0.038L17.86,6.835l-0.384-0.053l-0.06-0.053l-0.022-0.058L17.381,6.38l0.053-0.441l0.136-0.224l0.118-0.195l0.105-0.305
			l0.081-0.672l-0.002-0.115l0.013-0.26l-0.092-0.063l-0.425-0.13L17.124,3.9l-0.102-0.138l-0.021-0.117L16.987,3.63l-0.136-0.282
			l-0.032-0.179l-0.147-0.341l-0.044-0.165l-0.225-0.305l-0.257-0.22l-0.592-0.53l-0.182-0.127l-0.185-0.156l-0.216-0.111
			l-0.3-0.148L14.52,0.919l-0.127-0.17l-0.038-0.046l-0.013-0.012l-0.188-0.078l-0.168-0.07l-0.207,0.014l-0.248,0.042l-0.608,0.436
			l-0.148,0.086l-0.141,0.015l-0.118,0.011l0,0l-0.139,0.026l-0.119,0.019l-0.42-0.041l-0.172,0.015l-0.073,0.032l-0.115,0.077
			l-0.217,0.088l-0.152,0.001l-0.206-0.006l-0.317,0.023l-0.182,0.138l-0.062,0.159l-0.084,0.16l-0.12,0.043L9.948,1.935L9.812,2.03
			L9.692,2.122l-0.062,0.11L9.599,2.619L9.269,2.52L8.644,2.529L8.229,2.524L8.015,2.439L7.77,2.364L7.49,2.315l-0.212-0.03
			L6.966,2.331L6.802,2.398L6.563,2.414L6.35,2.382L6.173,2.441L5.78,2.537L5.671,2.43L5.496,2.281L5.322,2.196l-0.81-0.075
			L4.26,2.062L4.031,1.898L3.947,1.752L3.792,1.518L3.498,1.506L3.324,1.473L3.087,1.428L2.848,1.39L2.419,1.287L2.188,1.208
			L1.983,1.162L1.838,1.137L1.595,1.113l0.137,0.29l0.051,0.101l0.274,0.562l0.327,0.335l0.062,0.064L2.285,2.831L2.281,2.838
			L1.567,3.109L0.849,3.457L0.738,3.63L0.539,3.937l0.012,0.444l0.152,0.017l0.144,0.135l0.112,0.126l0.1,0.109L1.25,4.916
			l0.077,0.102l0.368,0.257l0.129,0.11l0.274,0.147l0.166,0.147L2.45,5.863l0.072,0.129l0.11,0.165L2.67,6.286l0.073,0.239
			l0.092,0.128L2.964,6.8l0.221,0.166l0.129,0.11l0.185,0.221l0.093,0.092l0.11,0.165l0.109,0.258l0.273,0.486l0.024,0.206
			L4.23,8.702l0.106,0.189l0.04,0.17l0.062,0.245l0.095,0.196l0.077,0.144l0.06,0.131l0.035,0.134l0.028,0.123l0.014,0.169
			L4.729,10.37l0.031,0.206l-0.004,0.185l0.031,0.13l0.106,0.197l0.289,0.211l0.14,0.078l0.115,0.031l0.261-0.088l0.158-0.06
			L5.9,11.263l0.158,0.011l0.354,0.047l0.432,0.074l0.439,0.01l0.641,0.062l0.24,0.084l0.146,0.071l0.136,0.273l0.285,0.127
			l0.407,0.008l0.287-0.053l0.327-0.018l0.098,0.043l0.148,0.193l0.399,0.144l0.618,0.144l0.101,0.213l0.189,0.246l0.29,0.277
			l0.188,0.126l0.156-0.017l0.117-0.055l0.1-0.053l0.127-0.064l0.009,0.146l0.008,0.128l0.033,0.054l0.312,0.01l0.085,0.018
			l0.068,0.116l-0.095,0.085l-0.162,0.131l-0.119,0.076l-0.1,0.007l-0.104-0.021l-0.101-0.025l-0.107-0.098l-0.09-0.09H11.82
			l-0.057,0.103l0.046,0.213l-0.062,0.153l-0.183,0.047l-0.07,0.119l-0.042,0.117l-0.044,0.039l-0.02,0.065l-0.039,0.091
			l-0.084-0.027l-0.06-0.076l-0.079-0.071l-0.109,0.021l-0.122,0.096l-0.12,0.066l0.021,0.104l-0.017,0.126l0.026,0.098l0.013,0.123
			l-0.087,0.115l0.032,0.122l0.062,0.038l0.116-0.016l0.066-0.014l0.049,0.171l0.091,0.022l0.062,0.029l-0.168,0.193l-0.026,0.061
			l0.029,0.254l0.039,0.051l0.031,0.053l0.094,0.027l0.077,0.072l-0.078,0.088l-0.056,0.271l-0.074,0.084l-0.026,0.111l0.051,0.062
			l0.081,0.069l0.051,0.086l-0.021,0.233l-0.179,0.086l0.019,0.143l-0.085,0.189L10.948,17.77"/>
	</g>
</g>
<g id="Layer_1">
</g>
</svg>
