<?xml version="1.0" encoding="iso-8859-1"?>
<!-- Generator: Adobe Illustrator 16.0.4, SVG Export Plug-In . SVG Version: 6.00 Build 0)  -->
<!DOCTYPE svg PUBLIC "-//W3C//DTD SVG 1.1//EN" "http://www.w3.org/Graphics/SVG/1.1/DTD/svg11.dtd">
<svg version="1.1" xmlns="http://www.w3.org/2000/svg" xmlns:xlink="http://www.w3.org/1999/xlink" x="0px" y="0px"
	 width="26.312px" height="20.057px" viewBox="0 0 26.312 20.057" style="enable-background:new 0 0 26.312 20.057;"
	 xml:space="preserve">
<g id="Layer_130">
	<g id="Layer_135">
		<path id="Karachi_West" style="fill:#CCCCCC;stroke:#FFFFFF;stroke-width:1.07;" d="
			M19.047,0.336L19.047,0.336L18.78,0.667l-0.296,0.259l-0.309,0.2L17.957,1.3l-0.439,0.264L17.051,1.84l-0.277,0.138l-0.246,0.175
			l-0.151,0.185l-0.099,0.229l-0.149,0.244l-0.313,0.477l-0.264,0.427L15.4,3.945l-0.055,0.302l-0.031,0.264l-0.09,0.506
			l-0.028,0.395l0.116,0.332l0.119,0.417l0.02,0.167l-0.074,0.169l-0.316,0.369l-0.357,0.355l-0.448,0.408l-0.329,0.404
			l-0.471,0.468l-0.521,0.49L12.49,9.47l-0.63,0.486l-0.297,0.164l-0.444,0.107l-0.694,0.092l-0.667,0.139L9.13,10.584l-0.479,0.218
			l-0.297,0.152L8.02,11.203l-0.347,0.262L7.22,11.669l-0.415,0.168l-0.481,0.158L6.085,12.13l-0.475,0.35l-0.445,0.42l-0.42,0.408
			L4.311,13.68l-0.385,0.263l-0.409,0.323L3.21,14.538l-0.291,0.297l-0.204,0.312l0.233-0.104l0.162,0.012l0.128,0.101l0.244-0.07
			l0.024,0.104l-0.425,0.484l-0.36,0.04l-0.348-0.126l-0.2,0.198l-0.235,0.069L0.912,16.89l-0.056,0.444l-0.262,0.288l-0.021,0.157
			l0.255,0.181l0.587,0.16l0.127-0.003l0.357-0.008l0.386-0.084l0.981-0.375l0.523,0.007l0.226-0.27l0.713-0.2l0.199-0.008
			l0.487,0.27l0.211,0.034l0.68-0.104l0.597,0.123l0.295,0.062l0.342,0.004l0.139-0.073l0.27-0.365l0.238-0.191l0.701-0.269
			l0.436-0.033l0.346,0.083l1.08,0.576l0.978,0.425l0.2,0.131l2.264,1.489l0.1-0.125l-0.548-0.588l-0.438-0.704l-0.779-0.432
			l-0.127-0.039l-0.075-0.022l-0.445,0.033l-0.203-0.071l-0.267-0.25l-0.008-0.199l0.024-0.104l0.27-0.123l0.776-0.079l0.667-0.172
			l0.172,0.021l0.129,0.107l0.124,0.247l0.211,0.045l0.097-0.178l0.161-0.022l0.128-0.116l0.043,0.007l-0.006-0.025l-0.008-0.037
			l-0.017-0.035l-0.017-0.023l-0.021-0.019l-0.045-0.039l-0.087-0.067l-0.143-0.116l-0.055-0.037l-0.005-0.01l0.007-0.006
			l0.023-0.017l0.036-0.024l0.046-0.023l0.037-0.018l0.048-0.014l0.034-0.009l0.037-0.011l0.049-0.017l0.054-0.024l0.067-0.039
			l0.066-0.031l0.053-0.015l0.033-0.007l0.027-0.017l0.034-0.021l0.049-0.034l0.047-0.018l0.046-0.013l0.073-0.003l0.087-0.001
			l0.096-0.002l0.088,0.001l0.054,0.011l0.065,0.02l0.037,0.021l0.018,0.021l0.019,0.02l0.028,0.016l0.027,0.004l0.062,0.001
			l0.037-0.009l0.037-0.012l0.023-0.004l0.051-0.002l0.049-0.005l0.066-0.019l0.049-0.019l0.021-0.016l0.039-0.03l0.025-0.019
			l0.021-0.015l0.032-0.062l0.036-0.063l0.146-0.059l0.02-0.021l0.016-0.015l-0.003-0.018V15.52l-0.001-0.02l0.001-0.016
			l-0.002-0.016l-0.009-0.019l-0.008-0.015l-0.012-0.013l-0.025-0.013l-0.021-0.016l-0.036-0.029l-0.035-0.04l-0.026-0.031
			l-0.019-0.021l-0.021-0.02l-0.008-0.019l-0.002-0.012l0.002-0.018l0.002-0.018l0.004-0.028l0.007-0.035l0.013-0.038v-0.019
			l-0.004-0.018L15.713,15l-0.005-0.036l-0.001-0.029l0.003-0.036l-0.004-0.018l-0.001-0.026l0.003-0.006l0.006-0.007l0.002-0.009
			V14.82l-0.007-0.015l-0.011-0.011l-0.019-0.019l-0.025-0.02l-0.02-0.017l-0.019-0.021l-0.026-0.034l-0.02-0.029l-0.018-0.026
			l-0.003-0.01l0.001-0.015l0.008-0.021l0.012-0.044l0.014-0.034l0.004-0.021l-0.001-0.011l-0.002-0.036l-0.006-0.021l-0.009-0.012
			v-0.016l0.002-0.012l0.006-0.023l-0.006-0.039l-0.012-0.052l-0.006-0.039l0.002-0.05l0.004-0.046v-0.029l0.004-0.011l0.019-0.023
			l0.007-0.017l0.001-0.008l-0.002-0.014l-0.006-0.014l-0.004-0.007v-0.009l0.005-0.009l0.011-0.012l0.013-0.01l0.006-0.009
			l0.009-0.021l0.005-0.007l0.01-0.008l0.012-0.008l0.01-0.011l0.012-0.01l0.003-0.01l-0.004-0.009l-0.008-0.011l-0.015-0.013
			l-0.017-0.018l-0.019-0.014l-0.018-0.025l-0.035-0.046l-0.021-0.017l-0.029-0.027l-0.01-0.015v-0.012l0.007-0.007l0.013-0.008
			l0.023-0.005l0.029-0.006l0.023-0.008l0.033-0.021l0.04-0.028l0.032-0.01l0.044-0.034l0.043-0.038l0.038-0.027l0.056-0.036
			l0.052-0.027l0.028-0.016l0.024-0.017l0.041-0.033l0.024-0.022l0.028-0.033l0.033-0.053l0.025-0.051l0.01-0.024l0.035-0.049
			l0.032-0.048l0.046-0.055l0.061-0.071l0.043-0.054l0.035-0.058l0.033-0.059l0.03-0.051l0.021-0.037l0.025-0.044l0.02-0.04
			l0.013-0.037l0.013-0.07l0.012-0.045l0.013-0.043l0.017-0.058l0.026-0.075l0.026-0.092l0.024-0.087l0.003-0.034v-0.041
			l-0.007-0.05l-0.017-0.053l-0.006-0.041v-0.042l-0.006-0.033l-0.011-0.033l-0.004-0.017l-0.001-0.017l0.002-0.021l0.016-0.062
			l0.018-0.051l0.043-0.092l0.027-0.061l0.015-0.039l0.01-0.039l0.007-0.046l0.004-0.074l0.006-0.117l0.002-0.059l0.004-0.065
			l-0.004-0.026l-0.006-0.023l-0.012-0.023l-0.025-0.026l-0.032-0.032l-0.034-0.025l-0.036-0.026l-0.054-0.034l-0.044-0.021
			l-0.085-0.04l-0.057-0.027l-0.022-0.01l-0.005-0.005l0.002-0.006l0.191-0.052L16.71,10.6l0.119-0.034l0.108-0.006l0.238-0.012
			l0.244-0.015l0.182-0.008l0.213-0.011l0.174-0.009l0.113-0.007l0.156-0.007l0.041-0.01l0.021-0.003l0.045,0.006l0.044,0.003
			l0.048,0.002l0.041-0.005l0.029-0.001l0.013-0.002l0.013-0.002l0.008,0.002l0.762,0.083l0.41-0.122l0.428-0.06l0.414,0.003
			l0.306,0.057l0.361,0.08l0.221-0.005l0.494-0.124l0.289-0.044l0.222-0.005l0.483,0.027l0.276-0.006l0.123-0.041l0.407-0.272
			l0.445-0.399l0.538-0.552l0.402-0.485l0.238-0.383l0.227-0.332l0.109-0.078l0.038-0.088l-0.032-0.163l-0.045-0.122l-0.33-0.509
			l-0.414-0.531l-0.302-0.422L24.32,5.682l-0.451-0.317l-0.352-0.243l-0.35-0.106l-0.293-0.094L22.65,4.762l-0.084,0.002
			l-0.053,0.039l-0.133,0.254l-0.199,0.294l-0.402,0.476l-0.325,0.245l-0.465,0.225L20.92,6.297l-0.042-0.012l-0.169-0.146
			l-0.184-0.135L20.16,5.799l-0.553-0.454l-0.383-0.406l-0.33-0.396l-0.246-0.396l-0.187-0.26l-0.071-0.112l0.008-0.071l0.26-0.119
			l0.382-0.197l0.685-0.317l0.492-0.174l0.479-0.174l0.453-0.188l0.189-0.13l0.023-0.112l-0.004-0.151l-0.074-0.225l-0.201-0.299
			l-0.555-0.516l-0.42-0.229l-0.264-0.044l-0.389-0.005l-0.141-0.072L19.047,0.336"/>
	</g>
</g>
<g id="Layer_1">
</g>
</svg>
