<?xml version="1.0" encoding="utf-8"?>
<!-- Generator: Adobe Illustrator 16.0.4, SVG Export Plug-In . SVG Version: 6.00 Build 0)  -->
<!DOCTYPE svg PUBLIC "-//W3C//DTD SVG 1.1//EN" "http://www.w3.org/Graphics/SVG/1.1/DTD/svg11.dtd">
<svg version="1.1" id="Layer_1" xmlns="http://www.w3.org/2000/svg" xmlns:xlink="http://www.w3.org/1999/xlink" x="0px" y="0px"
	 width="301.107px" height="246.942px" viewBox="-135.153 -110.716 301.107 246.942"
	 style="enable-background:new -135.153 -110.716 301.107 246.942;" xml:space="preserve">
<g id="Layer_88">
	<path id="Mohmand_Agency." style="fill:#CCCCCC;stroke:#FFFFFF;stroke-width:1.15;" d="M39.112,131.538L39.112,131.538l0.419-0.42
		l1.021-0.992l0.63-1.469l-0.61-1.239l-0.02-1.841l0.382-0.344l0.229-0.991l-0.037-0.953l-0.648-0.792l0.075-0.983l0.324-0.313
		l0.478-0.22l0.925-0.448l0.906-0.858l0.953-0.457l1.174-0.944l0.391-0.62l-0.048-0.496l0.801-0.706l0.963-0.734l0.421-0.286
		l0.857-0.609l0.419-0.439l0.439-0.725l-0.182-0.4l-0.172-0.506l0.2-1.153l0.878-0.601l1.278-0.611l1.021-0.448l1.535-0.505
		l2.099-0.582l0.744-0.505l1.01-0.658l1.202-0.916l1.011-0.687l1.487-0.592l1.221-0.667l0.592-0.668l0.61-1.334l0.362-0.821
		l0.381-0.686l-0.629-0.573l-0.658-0.591l0.276-0.4l1.221-0.554l1.432-0.438l1.011-0.096l1.783-0.543l0.695-0.84l0.611-0.095
		l0.4,0.143l0.438,0.314l0.258,0.182l0.41,0.381l0.19,0.277l0.058,0.058l0.114-0.534l0.896-0.888l1.153-0.61l1.192-0.562
		l-0.534-1.087l0.325-1.183l0.2-1.392l-0.439-0.82l-0.906-0.487l-1.202-0.496l-0.667-0.686l1.011-0.754l-1.067-1.154l3.767,0.467
		l0.086,0.01l0.791,0.306l0.706,0.21l0.62,0.219l0.601,0.296l0.42,0.267l0.715,0.325l0.524,0.209l0.764,0.306l0.581,0.162
		l0.239,0.114l2.384-4.225l0.314-0.076l1.431-0.897l0.152-0.161l1.937-1.154l1.021-0.591l1.383-0.4l0.887-1.24l0.095-0.819
		l-0.209-1.222l0.572-1.392l0.258-0.85l-0.096-1.459l-0.944-1.029l-1.24-1.03l-0.609-0.582l-0.688-0.725l-0.01-1.364l0.668-1.077
		l0.582-0.811l0.572-0.63l1.067-1.068l0.172-1.229l-0.648-1.212l-0.83-0.991l-0.657-0.982l0.571-0.639l0.906-0.782l0.754-0.496
		l0.687-0.534l0.744-0.496l1.517-1.067l1.287-0.802l0.763-0.477l0.858-0.525l0.458-0.352l0.323-0.248l0.916-0.592l1.164-0.935
		l0.381-0.915l-0.543-1.021l0.581-0.602l0.935-1.182l-0.458-2.547l1.126-0.64l1.011-0.419l0.868-0.534l0.944-0.619l1.315-0.43
		l1.049,0.172l0.897-0.325l0.705-0.381l0.715-0.82l1.078-0.991l0.478-0.688l0.323-1.64l0.611-1.383l0.992-0.782l1.43,0.066
		l1.393,0.592l1.258,0.4l0.84,0.019l0.858,0.249l1.049,1.201l0.716,0.84l0.829,0.743l1.412,0.915l1.077,0.553l1.002,0.211
		l1.439-0.286l0.238-0.782l0.286-0.877l-0.037-0.82l-0.182-0.877l-0.067-0.812l0.134-1.803l-0.134-0.858l-0.095-0.935l-0.21-0.839
		l0.152-1.278l1.517-0.21l0.944-0.725l1.354-1.03l1.202-0.247l1.602-0.019l1.164-0.097l1.039-0.343l1.021-0.343l1.421-0.592
		l0.964-0.496l0.973-1.01l0.581-1.374l-0.372-0.878l-0.724-0.705l-0.554-0.725l0.172-1.24l0.725-1.278l0.019-1.144l0.039-1.068
		l-0.172-1.316l0.667-0.916l1.622-0.399l1.182-0.306l1.002-1.315l0.314-0.764l0.648-1.087l0.954-0.997l1.468-0.186l0.897-0.058
		l1.459-0.596l1.173-0.949l1.25-0.615l1.258-0.038l0.868,0.314l1.373-0.791l0.448-0.754l0.602-0.772l0.705-0.749l0.688-0.648
		l1.744-0.634l0.039-0.477l-0.525-0.139l-0.172-0.4l-0.323-0.31l-0.458-0.167l-1.002-0.458l-0.333-0.177l-0.592-0.782l-0.21-0.399
		l-0.324-0.578l-0.382-0.605l-0.419-0.505l-0.639-0.625l-0.362-0.286l-0.601-0.319l-0.602-0.306l-0.887-0.371l-0.878-0.4
		l-0.609-0.253L150.53,0.74l-0.41,0.02l-0.677,0.186l-1.488,0.534l-0.419,0.448l-0.153,0.343l-0.038,0.439l-0.515,0.091
		l-0.114-0.362l-0.325-0.401l-0.399-0.048l-0.439,0.029l-0.495,0.038l-0.525-0.067l-0.458-0.224l-0.314-0.187l-0.61-0.372
		l-0.477-0.467l-0.162-0.372l-0.562-0.753l-0.478-0.263l-0.247-0.391l0.057-0.391l0.172-0.392l0.096-0.529l0.113-0.477l0.058-0.539
		v-0.438l-0.19-0.41l0.219-0.534l0.307-0.715l0.161-0.4v-0.372l-0.038-0.506l-0.066-0.462l-0.048-0.468l-0.134-0.496l-0.096-0.481
		l-0.305-0.572l-0.4-0.511l-0.438-0.419l-0.305-0.438l-0.211-0.43l-0.047-0.391l0.2-0.725l0.209-0.42l0.172-0.663l-0.2-0.271
		l-0.409-0.501l-0.307-0.41l-0.019-2.021l-0.181-0.615l-0.105-0.448l-0.095-0.567l-0.238-0.549l-0.029-0.448l0.21-0.4l0.334-0.663
		l0.2-0.505l0.181-0.314l0.144-0.334v-0.42l-0.267-0.672l-0.268-0.353l-9.651,0.948l-3.948,1.249l-3.052,2.804l-2.632,2.471
		l-2.336,0.811l-2.499,1.183l-2.643,0.076l-5.168-0.038l-0.516-3.457l0.039-2.88l-0.039-3.819v-0.372l0.039-2.433l-0.544-2.88
		l-0.716-4.668l-0.544-3.405l-5.082-2.842l-2.441-2.561l-2.194-2.522l-0.849-3.161l-0.2-2.88l-2.155-5.312l-1.287-3.457
		l-0.562-2.432l0.505-2.522l2.375-2.842l2.27-2.519l1.335-2.031l-1.421-2.069l-0.601-0.281l-2.021-0.939l-3.014-1.864l-2.88-1.059
		l-3.701,0.248l-3.128-0.038l-2.642,0.162l-4.205,1.016l-4.922,0.41l-3.566,0.734l-2.651-0.334l-2.422-0.849l-4.464-2.069
		l-4.806,0.038l-3.814,1.092l-2.232,1.021l-2.956,2.184l-3.501,3.129l-2.031,2.675l-1.907,1.502l-5.588,1.621l-4.387,0.978
		L22.241-64.4l-0.964,0.233l-4.463,0.811l-3.047,0.61l-2.351,0.448l-4.473-0.129L4.393-62.26l-4.02,0.038l-5.898-0.849l-0.678-0.195
		l-3.085-0.858l-5.116-0.324l-2.561,1.092l-5.231-2.193l-3.047-0.978l-1.044-0.615l-2.355-1.33l-1.884-0.625l-1.846-0.624
		l-3.047-2.07l-3.886-2.188l-4.249-2.804l-3.057-3.571l-1.869-2.069l-2.632-2.442l-2.317-3.085l-2.842-3.733l-1.298-3.457
		l-1.173-3.085l-2.331-7.801l-2.904,0.978l-4.277,3.523l-2.704,2.351l-0.157,0.129l-8.993-0.382l-2.618,3.515l-0.857,1.164
		l-0.921,2.06l-1.239,2.794l-2.041,4.64l0.038,2.852l0.043,3.095l4.02,7.61l1.907,4.912l-0.448,1.249l-0.978,2.646l-8.097,12.136
		l-2.561,1.583l-2.828,1.759l-2.56,0.692l-5.374,1.468l-14.764,1.512l-0.262,0.119l-5.489,2.489l-3.323,4.863l-0.534,4.998
		l-0.605,6.008l0.83,14.658l2.527,6.456l2.317,5.875L-123,2.477l5.636,4.521l12.413,8.373l4.763,6.266l0.645,0.982l3.686,5.646
		l3.047,1.793l1.512,0.896l2.813,0.905l9.842,3.205l7.716,2.051l6.718,1.793l6.31,2.403l0.725,2.184l-0.081,7.84l-4.649,5.884
		l-0.478,0.601l3.615,0.286l1.902,0.095l3.085,0.201l2.804,0.038l2.433,0.486l4.706,1.345l5.517,0.991l2.767,0.554l2.794,1.145
		l3.075,1.793l2.565,1.43l2.646,2.251l2.646,4.291l3.205,2.09l2.121,1.42l3.457,1.718l4.645,3.738l2.756,2.632l1.76,2.078
		l0.115,2.519l-1.836,3.604l0.09,2.957l0.401,2.021l0.533,2.651l0.081,2.671l-0.576,2.574l-0.029,0.152l-1.702,2.155l-1.297,2.26
		l-0.296,0.544l-3.28,3.119l-0.281,4.387l0.205,0.086l3.681,1.497l4.006,0.601l0.076,0.02l2.365,0.744l1.798,0.991l0.582,0.305
		l0.605,3.166l3.704,0.611l2.752,0.648l3.371,0.4l4.921,0.896l4.678,0.133l2.556-0.457l4.062,0.038h1.669L39.112,131.538"/>
</g>
<g id="Layer_1_1_">
</g>
</svg>
