<?xml version="1.0" encoding="utf-8"?>
<!-- Generator: Adobe Illustrator 16.0.4, SVG Export Plug-In . SVG Version: 6.00 Build 0)  -->
<!DOCTYPE svg PUBLIC "-//W3C//DTD SVG 1.1//EN" "http://www.w3.org/Graphics/SVG/1.1/DTD/svg11.dtd">
<svg version="1.1" id="Layer_1" xmlns="http://www.w3.org/2000/svg" xmlns:xlink="http://www.w3.org/1999/xlink" x="0px" y="0px"
	 width="301.106px" height="227.284px" viewBox="-136.893 -103.171 301.106 227.284"
	 style="enable-background:new -136.893 -103.171 301.106 227.284;" xml:space="preserve">
<g id="Layer_114">
	<path id="Shikarpur" style="fill:#CCCCCC;stroke:#FFFFFF;stroke-width:1.15;" d="M34.031,100.931L34.031,100.931l1.243-2.322
		l1.792-2.162l2.119-2.193l1.123-1.025l1.34-0.681l2.398-0.875l1.923-0.238l1.999-0.227l2.074-0.238l1.837,0.173l1.707,0.119
		l1.643-0.324l1.761-0.691l2.063-1.264l2.464-2.173l2.615-2.517l2.312-2.247l0.951-1.372l0.108-0.983l-0.044-1.038l-0.476-0.788
		l-0.843-0.777l-0.745-0.313l-0.681-0.141l-0.627,0.054l-0.595,0.367l-0.723,0.735l-1.135,1.317l-0.725,0.443l-0.69,0.228
		l-0.671,0.042l-0.658-0.205l-0.648-0.497l-1.632-2.431l-1.156-1.75l6.655-1.438l3.998-1.502l3.177-0.681l5.305-0.745l2.539-0.227
		l2.539-1.523l0.194-1.243l0.13-0.648l0.205-0.227h0.519l1.123,0.271l1.859,1.091l0.572,0.227l0.67-0.173l0.433-0.432l0.021-0.39
		L85.093,66.4l-0.627-0.681l-0.907-0.95l-0.238-0.691l0.238-0.551l0.432-0.552l0.994-0.324l0.886-0.097l1.858,0.129l1.297,0.292
		l2.074,0.702l2.183,0.897l1.34,0.843l1.427,0.508l1.058,0.594l1.049,0.875l0.724,0.833l1.069,0.777l2.01,1.026l1.427,1.091
		l1.361,1.038l1.178,1.004l0.778,0.692l1.155,0.528l0.864-0.129l1.199-0.594l2.377-1.535l2.41-1.632l1.598-0.637l1.729-0.638
		l1.967-0.485l3.003-0.131l2.604,0.228l2.419,0.032l2.064-0.227l0.82-0.216l0.313-0.562l0.692-1.578l1.08-2.043l1.156-1.75
		l0.994-1.371l1.923-2.086l2.085-1.631l3.35-2.355l2.204-1.675l2.074-1.858l2.539-2.907l2.086-2.571l0.713-0.982l1.858-2.55
		l1.34-2.107l0.227-1.135l0.021-0.637l-0.217-0.994l-1.112-1.783l-0.292-0.691l-0.907-0.767l-0.864-0.778l-0.82-1.34l-0.681-1.394
		L150.697,30l0.065-0.875l0.768-1.502l1.404-1.686l2.203-2.074l3.285-2.982l0.238-4.635l-0.714,0.011l-1.264-0.702l-1.935-1.459
		l-1.632-1.556l-1.62-1.026l-1.761-0.929l-0.681-0.961l-1.156-2.539l-0.778-2.323l-0.658-2.409l-0.4-1.988l-0.476-0.843
		l-0.681-0.562l-0.562-0.313l-0.843-0.227l-1.06-0.054l-2.096-0.205l-2.269-0.411l-2.723-0.81l-2.074-0.681l-2.085-0.994
		l-2.464-1.438l-2.809-1.437l-1.416-0.886l-1.167-0.368l-1.901-0.162l-2.485-0.129l-4.062,0.281l-5.121,0.108l-2.183-0.086
		l-2.896-1.157l-2.204-1.286l-1.296-1.329l-2.529-1.761l-2.203-1.253l-1.513-0.659l-0.616-0.27l-4.105-0.951l-1.61-0.681
		l-0.886-0.746l-1.145-1.286l-1.687-1.383l-1.425-0.951l-2.118-0.778l-1.924-1.016l-2.657-1.048l-2.085-0.854l-2.885-0.464
		l-3.923-0.703l-2.183-0.194l-2.722-0.529l-4.56-0.94l-3.263-0.691l-2.355-0.832l-3.825-0.756l-3.609-1.199l-2.711-1.124
		l-0.994-0.746l-0.908-1.329l-0.227-1.124l0.249-0.648l0.432-0.724l0.681-0.659l0.854-0.475l2.539-0.238l4.084-0.216l3.512-0.162
		l0.734-0.238l0.238-0.227l0.335-0.302l0.064-0.454l-0.021-0.389l-0.584-0.659l-1.49-0.724l-2.744-1.361l-3.198-1.88l-2.453-1.75
		l-1.609-1.458l-0.595-0.832l-0.323-1.026l-0.411-1.416l-0.303-0.907l0.087-0.519l0.518-0.184l1.017-0.237l0.93-0.271l1.155-0.486
		l1.103-0.324l1.102-0.389l0.929-0.681l0.681-0.659l0.325-0.464l0.173-0.638l-0.411-0.356l-0.379-0.216l-0.788,0.086l-1.145,0.021
		l-0.973-0.335l-1.037-0.497l-0.659-1.004l-0.746-0.962l-0.551-0.681l-0.356-0.519l-0.432-0.302l-0.8-0.119l-0.692,0.151
		l-1.522,0.411l-0.702,0.346l-1.027,0.929l-1.49,1.578l-1.146,0.94l-1.112,0.281l-0.887-0.043l-0.647-0.162l-1.405-1.221
		l-1.103-1.275l-1.036-1.599l-1.772-3.058L23.4-70.577l-2.021-4.225l-1.123-2.377l-0.681-2.711l-0.638-4.387l-1.134-4.376
		l-1.146-4.322l-0.876-2.906l-2.106-0.583l-5.359-0.691L6.588-97.48l-1.577-0.303l-3.458-0.789l-3.122-0.238l-3.619,0.216
		l-5.315,0.843l-4.852,1.037l-4.506,1.426l-4.419,1.772l-3.468,1.988l-3.457,2.355l-1.838,1.145l-2.247,2.085l-1.977,1.21
		l-1.988,1.188l-2.085,0.767l-2.074,0.529l-2.086,0.573l-2.333,0.518l-2.615,0.897l-1.415,0.519l-1.578,0.454l-1.62,0.443
		l-2.398,1.21l-1.988,0.454l-3.425,0.303l-3.188,0.335l-1.75,0.076l-1.415,0.011l-1.945-0.227l-1.848-0.486l-2.766-0.691
		l-3.403-0.399l-2.69-0.184l-3.274-0.475l-2.809-0.519l-2.269-0.486l-2.193-0.303l-2.28-0.129l-0.658,0.194l-0.4,0.357l-0.259,0.864
		l-0.228,1.513l0.022,2.128l0.031,3.198l-0.043,2.993l-0.691,4.376l-0.465,2.517l-0.681,6.267l-0.583,6.158l-0.778,5.024
		l-0.604,5.521l-0.281,2.723l-0.086,1.199l-0.217,2.042l-0.227,1.156l-0.118,1.156l-0.476,3.166l-0.217,2.809l-0.011,1.772
		l0.433,3.198l-0.076,2.701l0.281,4.203l0.476,4.57l0.216,5.726l0.141,3.652l-0.032,3.674l-0.055,1.059l-0.118,0.702l-0.13,0.66
		l-0.271,0.107l-0.572-0.064l-0.605-0.249l-0.961-0.519l-4.182-1.578l-2.992-0.735l-0.908-0.14l-0.28,0.064l-0.065,0.443
		l0.292,0.854l0.67,1.772l0.389,0.745l0.119,1.07l-0.238,0.292l-0.658,0.507l-0.682,0.227l-3.446,0.541l-3.533,0.129l-4.138-0.173
		l-4.873-0.227l-2.571-0.237l-1.178-0.163l-0.119,0.811l0.292,1.512l1.34,4.42l1.664,4.851l1.912,4.483l2.485,3.695l1.794,2.529
		l1.944,2.538l1.48,1.254l1.134,0.562l0.681,0.01l0.681-0.248l1.016-0.907l0.691-0.291l0.962,0.054l1.275,0.896l1.415,0.854
		l1.037,0.756l0.562,1.167l0.454,1.458l-0.173,1.211l-0.681,1.112l-1.037,1.113l-0.389,0.8l-0.119,0.615v0.639l0.389,0.961
		l1.146,1.199l2.518,2.388l2.55,3.177l2.247,2.582l4.852,4.948l3.954,5.046l2.182,2.528l2.129,2.733l1.783,3.457l0.453,1.351
		l0.303,2.204l0.313,2.086l0.67,2.506l0.26,2.086v1.198l-0.357,1.47l-0.237,2.01l-0.141,0.443l0.217,0.346l0.562,0.303l1.858,0.854
		l1.987,0.572l2.031,0.519l2.097,0.562l1.35,0.681l1.697,1.179l1.718,1.198l0.356,0.454l0.659,0.173l1.069,0.227l1.308-0.227
		l1.426-0.454l0.897-0.323l1.025-0.163l1.362,0.011l1.566,0.292l1.523,1.243l0.767,1.036l0.076,0.952l-0.228,0.799l-0.453,0.832
		l-0.919,1.188l-0.572,0.734l-0.356,1.179v0.453l0.335,0.399l0.562,0.227l0.789,0.195h1.016l1.62-0.378l1.869-0.4l2.432-0.087
		l1.75,0.119l2.042,0.465l3.555,1.21l1.858,1.243l0.843,0.973l0.551,1.242l0.162,0.843l0.389,1.361l0.055,0.8l0.27,0.972
		l0.238,0.659l0.637,0.896l1.416,0.562l3.673,1.566l2.021,0.789l1.924,0.594l1.059,0.605l0.681,0.422l1.34-1.027l2.009-1.317
		l1.826-1.415l1.567-1.103l2.83-1.739l1.61-0.983l2.279-1.804l1.923-2.042l1.405-1.188l1.308-1.146l1.663-0.93l2.291-0.875
		l1.49-0.227l2.539,0.021l2.993,0.227l2.604,0.4l6.126,1.836l3.705,1.361l2.161,0.508l1.61,0.131l2.28-0.595l3.565-1.405
		l3.165-1.308l1.837-1.134l1.891-1.037l2.334-1.092l1.944-0.648l1.977-0.475h0.833"/>
</g>
<g id="Layer_1_1_">
</g>
</svg>
