<?xml version="1.0" encoding="iso-8859-1"?>
<!-- Generator: Adobe Illustrator 16.0.4, SVG Export Plug-In . SVG Version: 6.00 Build 0)  -->
<!DOCTYPE svg PUBLIC "-//W3C//DTD SVG 1.1//EN" "http://www.w3.org/Graphics/SVG/1.1/DTD/svg11.dtd">
<svg version="1.1" xmlns="http://www.w3.org/2000/svg" xmlns:xlink="http://www.w3.org/1999/xlink" x="0px" y="0px"
	 width="27.949px" height="29.958px" viewBox="0 0 27.949 29.958" style="enable-background:new 0 0 27.949 29.958;"
	 xml:space="preserve">
<g id="Layer_80">
	<g id="Layer_85">
		<path id="Naushahro_Feroze" style="fill:#CCCCCC;stroke:#FFFFFF;stroke-width:1.07;" d="
			M5.114,29.053L5.114,29.053l0.064,0.084l0.099,0.036l0.083,0.022l0.12,0.016l0.09,0.01l0.124,0.003l0.128-0.006l0.248-0.125
			l0.176-0.173l0.017-0.24l0.065-0.189l0.056-0.12l0.132-0.197l0.151-0.146l0.152-0.096l0.188-0.104l0.268-0.053l0.22-0.002
			l0.315,0.084l0.255,0.054l0.19,0.095l0.278,0.126l0.086,0.017h0.038l0.038-0.025l0.112-0.146l0.085-0.12l0.065-0.138l0.066-0.086
			l0.123-0.054l0.104-0.044l0.095-0.067l0.028-0.077l0.019-0.077l0.113-0.112l0.085-0.111l0.152-0.097l0.191-0.232l0.084,0.135
			l0.06,0.031l0.077,0.067l0.087,0.12l0.029,0.085l0.066,0.068l0.067,0.024l0.124,0.025l0.038,0.017l0.039,0.111l0.049,0.094
			l0.104,0.061l0.125,0.042l0.076,0.008h0.067l0.086,0.051l0.058,0.085l0.087,0.061l0.104,0.033l0.144,0.024L11.68,27.9l0.087,0.008
			l0.037,0.034l0.029,0.051l0.039,0.069l0.086,0.042h0.066l0.076-0.001l0.067,0.034l0.047,0.034l0.077-0.002l0.124-0.052
			l0.104-0.009l0.114,0.008l0.125,0.042l0.362,0.066l0.058-0.001l0.105-0.019l0.133-0.104l0.066-0.043l0.104-0.044l0.114-0.026
			l0.076-0.024l0.057-0.035l0.029-0.034l0.026-0.062l0.038-0.076l0.096-0.062l0.086-0.043l0.063-0.047l0.027-0.095l0.038-0.077
			l0.057-0.064l0.001-0.016l0.035-0.055l0.043-0.036l0.082-0.037l0.092-0.031l0.021-0.007l0.119-0.039l0.146-0.064l0.079-0.033
			l0.1-0.018l0.125-0.02l0.13,0.002l0.226,0.018l0.229,0.026l0.312,0.005l0.166,0.004l0.195,0.003l0.104,0.022l0.123,0.05
			l0.127,0.028l0.105-0.006l0.162-0.027l0.237-0.027l0.229-0.006l0.305-0.008l0.188,0.007l0.228-0.021l0.132-0.028l0.049-0.048
			l0.021-0.068l0.015-0.077l0.048-0.104l0.035-0.052l0.092-0.081l0.166-0.13l0.14-0.066l0.076-0.012l0.121-0.013l0.082-0.034
			l0.062-0.052l0.099-0.069l0.136-0.061l0.169-0.026l0.229-0.028l0.229-0.027l0.073-0.007l0.062-0.007l0.238-0.026l0.181-0.039
			l0.33-0.062l0.32-0.059l0.366-0.079l0.326-0.058l0.314-0.052l0.194-0.035l0.271-0.017l0.23-0.015l0.239,0.024l0.314,0.011
			l0.14,0.008l0.112,0.013l0.229,0.062l0.22,0.039l0.274-0.004h0.062l-0.052-0.076l-0.098-0.134l-0.062-0.043l-0.221-0.072
			l-0.302-0.067l-0.279-0.067l-0.19-0.044l-0.257-0.047l-0.266-0.019l-0.313,0.004l-0.188-0.034l-0.219-0.076l-0.134-0.044
			l-0.409-0.162l-0.297-0.112L21,24.729l-0.14-0.046l-0.08-0.032l-0.024-0.05l-0.001-0.092l-0.032-0.188l-0.013-0.146l-0.005-0.058
			l-0.008-0.271l-0.003-0.176l0.016-0.049l0.093-0.11l0.109-0.139l0.149-0.187l0.051-0.132l0.041-0.186l0.022-0.172l0.071-0.168
			l0.086-0.19l0.069-0.241l0.051-0.158l0.047-0.197l0.036-0.224l0.069-0.244l0.069-0.183l0.079-0.239l0.022-0.074l0.083-0.257
			l0.05-0.224l0.026-0.241l0.025-0.179l0.017-0.1l0.066-0.106l0.103-0.111l0.125-0.135l0.081-0.111l0.062-0.212l-0.189-0.355
			l-0.014-0.111l-0.062-0.167l-0.016-0.055l-0.011-0.042l-0.094-0.161l-0.051-0.13l-0.031-0.111l0.006-0.089l0.012-0.102
			l0.075-0.135l0.057-0.151l0.036-0.174l0.044-0.196l0.019-0.291l0.007-0.296l0.013-0.129l0.02-0.105l0.031-0.129l0.018-0.162
			l0.044-0.187l0.024-0.14l0.037-0.141l0.062-0.096l0.162-0.252l0.119-0.22l0.088-0.122V14.82l-0.021-0.027l-0.08-0.012
			l-0.118-0.006l-0.156-0.021l-0.088-0.034l-0.082-0.039l-0.012-0.039l0.006-0.022l0.05-0.021l0.125-0.022l0.182-0.039l0.112-0.04
			l0.156-0.105l0.192-0.162l0.087-0.146l0.156-0.196l0.145-0.196l0.125-0.18l0.137-0.226l0.105-0.155l0.151-0.214l0.163-0.279
			l0.033-0.071l0.071-0.158l0.106-0.252l0.137-0.37l0.131-0.318l0.068-0.202l0.037-0.073l0.082-0.09l0.076-0.043l0.244-0.068
			l0.368-0.135l0.375-0.168l0.162-0.135l0.214-0.172l0.281-0.288l0.206-0.286l0.088-0.162l0.112-0.146l0.105-0.135l0.091-0.207
			l0.161-0.342l0.058-0.258l0.023-0.271l0.024-0.257L27.38,7.756l-0.044-0.264l-0.082-0.27l-0.075-0.17l-0.008-0.018l-0.075-0.18
			l-0.064-0.109l-0.064-0.095L26.899,6.63l-0.056-0.049l-0.08-0.087l-0.075-0.086l-0.104-0.075l-0.109-0.161l-0.146-0.181
			l-0.076-0.122L26.23,5.777l-0.022-0.183l-0.043-0.074l-0.048-0.118l-0.01-0.033l-0.023-0.07l-0.065-0.104l-0.111-0.127
			l-0.11-0.114l-0.11-0.104l-0.198-0.127l-0.206-0.106l-0.253-0.128l-0.218-0.114l-0.103-0.045l-0.17-0.049l-0.17-0.08l-0.121-0.074
			l-0.116-0.062L24.05,4.02l-0.103-0.026l-0.054-0.021L23.84,3.914l-0.027-0.079l-0.015-0.091l0.012-0.096l-0.006-0.102
			l-0.032-0.107l-0.043-0.059L23.646,3.36l-0.181,0.003l-0.062-0.02l-0.06-0.009l-0.039,0.014l-0.033,0.024h-0.073l-0.016-0.025
			l0.012-0.057l0.063-0.108l0.1-0.144l0.104-0.16l0.025-0.096l0.041-0.195l-0.016-0.11l-0.054-0.05l-0.062-0.062l-0.089-0.044
			L23.231,2.27l-0.073-0.054l-0.033-0.039l-0.039-0.065L23.058,2.06l-0.053-0.141l-0.043-0.087l-0.072-0.04l-0.106-0.035
			l-0.131-0.011l-0.221-0.01L22.14,1.733l-0.19,0.004L21.774,1.71l-0.16-0.013l-0.146-0.04L21.27,1.552l-0.281-0.149L20.91,1.367
			l-0.059-0.014h-0.05l-0.028,0.021l-0.021,0.073l-0.035,0.131l-0.028,0.03l-0.061,0.021l-0.098,0.018l-0.199-0.02l-0.312-0.05
			l-0.22-0.046l-0.237-0.049l-0.19-0.051l-0.17-0.053l-0.111-0.055l-0.034-0.031l-0.037-0.052l-0.034-0.053l-0.043-0.022
			l-0.068-0.013l-0.078-0.001l-0.352,0.031h-0.078L18.27,1.162l-0.054-0.04l-0.078-0.048l-0.087-0.062l-0.032-0.069L17.98,0.864
			l-0.024-0.054l-0.038-0.024l-0.205-0.062l-0.072-0.006h-0.112l-0.072-0.021l-0.078-0.054l-0.102-0.064L17.21,0.545L17.151,0.54
			l-0.049,0.013l-0.034,0.021l-0.044,0.034l-0.088,0.077l-0.061,0.053l-0.049,0.029L16.72,0.811l-0.059,0.018h-0.054l-0.031-0.005
			l-0.105-0.019l-0.159-0.036l-0.195-0.021L15.961,0.75l-0.15,0.021l-0.112,0.03L15.58,0.874L15.395,0.99l-0.123,0.086l-0.265,0.177
			l-0.166,0.099l-0.112,0.096l-0.107,0.092l-0.143,0.159l-0.183,0.174l-0.138,0.106l-0.117,0.073l-0.062,0.021L13.9,2.059
			l-0.059-0.018l-0.059-0.057l-0.028-0.083l-0.02-0.054l-0.024-0.013l-0.038,0.004l-0.094,0.039l-0.229,0.09l-0.078,0.039
			L13.238,2.02l-0.029-0.005L13.175,1.98l-0.101-0.148l-0.068-0.096l-0.043-0.019l-0.094-0.001l-0.082,0.016l-0.132,0.062
			l-0.112,0.063l-0.084,0.078L12.43,1.982l-0.015,0.035l0.015,0.019l0.029,0.034l0.06,0.019l0.131,0.057l0.116,0.05l0.088,0.049
			l0.044,0.034l0.053,0.057l0.005,0.057L12.954,2.44l-0.029,0.068l-0.04,0.058l-0.083,0.061L12.67,2.718l-0.084,0.078l-0.072,0.061
			L12.46,2.938l-0.063,0.092l-0.068,0.135l-0.113,0.203l-0.079,0.14l-0.021,0.082l0.005,0.053l0.038,0.049l0.117,0.112l0.126,0.083
			l0.078,0.04l0.097,0.087l0.058,0.074l0.054,0.097l0.015,0.097l-0.016,0.117l-0.05,0.067l-0.089,0.074l-0.116,0.056l-0.083,0.021
			L12.285,4.62l-0.083-0.022L12.066,4.58L11.92,4.588l-0.165-0.014l-0.106-0.006h-0.146l-0.085,0.011l-0.054,0.017l-0.044,0.026
			l-0.054,0.044l-0.024,0.047l-0.016,0.048l0.01,0.048l0.024,0.03l0.062,0.049l0.107,0.026l0.141,0.01l0.238,0.04l0.253,0.05
			l0.171,0.015l0.039,0.013l0.022,0.026l0.005,0.034l-0.01,0.039l-0.034,0.018l-0.039,0.018l-0.127-0.001l-0.106,0.004L11.87,5.174
			l-0.194-0.036l-0.258-0.049l-0.243-0.045l-0.219-0.062L10.878,4.96l-0.004-0.001l-0.08,0.044l-0.092,0.062l-0.063,0.068
			l-0.083,0.096L10.487,5.32l-0.04,0.082l-0.056,0.146l-0.035,0.165l-0.021,0.135l-0.001,0.113l-0.001,0.131l-0.005,0.073
			l-0.01,0.053l-0.05,0.043l-0.103,0.047L10.021,6.36L9.883,6.39L9.811,6.429L9.771,6.45L9.647,6.549L9.585,6.635l-0.08,0.161
			L9.417,6.974L9.333,7.121L9.274,7.212L9.21,7.286L9.127,7.363L9.06,7.402L8.973,7.428L8.851,7.427L8.66,7.422L8.408,7.413
			L8.16,7.412L8.098,7.421L7.961,7.459L7.883,7.477L7.8,7.485L7.685,7.471L7.571,7.453L7.416,7.448l-0.175-0.01l-0.166-0.01
			L6.93,7.398L6.787,7.376L6.677,7.34l-0.05-0.004L6.595,7.345L6.556,7.37L6.467,7.448l-0.09,0.016L6.308,7.558L6.186,7.658
			L6.074,7.744L5.995,7.783L5.892,7.815l-0.13,0.031L5.628,7.839L5.498,7.91L5.219,7.909L5.121,7.952L5.072,7.996L5.038,8.172
			l0.014,0.381l0.057,0.086L5.149,8.7l0.229,0.104l0.229,0.089l0.31,0.119l0.394,0.135l0.343,0.074l0.229,0.001l0.098,0.03
			l0.032,0.117l0.081,0.118l0.131,0.073l0.098,0.001l0.099-0.044h0.1l0.081,0.045l0.08,0.178l0.16,0.527l0.079,0.41l0.03,0.205
			l-0.083,0.176l-0.164,0.116l-0.181,0.068l-0.312,0.058l-0.557,0.04l-0.328,0.027l-0.311,0.043l-0.279,0.086l-0.262,0.131
			L5.343,11.73l-0.035,0.337l0.011,0.064l0.202,0.398l0.12,0.086l0.084,0.075l0.085,0.062l0.074,0.071l0.043,0.098l0.015,0.054
			l0.005,0.087l-0.036,0.182l-0.029,0.062l-0.066,0.1L5.74,13.479l-0.096,0.047l-0.132,0.04l-0.176,0.006l-0.232,0.003l-0.053,0.021
			l-0.062,0.04L4.82,13.787l-0.16,0.13L4.6,13.934l-0.2,0.01l-0.255,0.016l-0.119,0.005l-0.04,0.014l-0.039,0.039L3.81,14.134
			l-0.131,0.09l-0.105,0.085l-0.098,0.079l-0.031,0.024L3.311,14.51l-0.154,0.223l-0.156,0.209l-0.296,0.263L2.36,15.568
			l-0.231,0.263l-0.181,0.307l-0.05,0.177l0.062,0.319l0.096,0.382l0.177,0.514l0.161,0.455l0.146,0.161l0.081,0.133l0.016,0.088
			L2.585,18.85l0.032,0.16l0.081,0.161l0.13,0.162l0.211,0.191l0.08,0.233l0.047,0.322l-0.084,0.366l-0.149,0.453L2.8,21.206
			l-0.066,0.205L2.68,21.599l-0.147,0.088l-0.295,0.101l-0.229,0.014l-0.082,0.06l0.032,0.189l0.03,0.322l0.145,0.44l0.193,0.365
			l0.195,0.134L2.733,23.4l0.358,0.119l0.163,0.117l0.112,0.221l0.048,0.293l-0.051,0.264l-0.132,0.175L3.1,24.735L2.854,24.94
			l-0.148,0.188L2.558,25.45l-0.099,0.175l-0.115,0.073l-0.262,0.13l-0.13,0.088l-0.098,0.103l-0.133,0.276l-0.229,0.233
			l-0.246,0.263l-0.229,0.16l-0.213,0.102l-0.166,0.165l-0.079,0.109L0.54,27.39l0.004,0.067l0.035,0.202l0.067,0.2l0.111,0.25
			l0.035,0.06l0.122,0.06l0.144,0.059l0.17,0.036l0.167,0.063l0.106,0.031l0.198,0.043l0.128,0.062L2,28.601l0.152,0.122
			l0.195,0.152l0.181,0.138l0.167,0.135l0.102,0.107l0.095,0.081l0.126,0.06l0.083,0.023l0.212-0.011l0.212-0.019l0.201-0.039
			l0.325-0.091l0.102-0.028l0.137-0.046L4.552,29.1l0.138-0.057l0.201-0.034L4.972,29l0.087,0.018L5.114,29.053"/>
	</g>
</g>
<g id="Layer_1">
</g>
</svg>
