<?xml version="1.0" encoding="iso-8859-1"?>
<!-- Generator: Adobe Illustrator 16.0.4, SVG Export Plug-In . SVG Version: 6.00 Build 0)  -->
<!DOCTYPE svg PUBLIC "-//W3C//DTD SVG 1.1//EN" "http://www.w3.org/Graphics/SVG/1.1/DTD/svg11.dtd">
<svg version="1.1" xmlns="http://www.w3.org/2000/svg" xmlns:xlink="http://www.w3.org/1999/xlink" x="0px" y="0px"
	 width="28.789px" height="28.685px" viewBox="0 0 28.789 28.685" style="enable-background:new 0 0 28.789 28.685;"
	 xml:space="preserve">
<g id="Layer_143">
	<g id="Layer_148">
		<path id="Haripur" style="fill:#CCCCCC;stroke:#FFFFFF;stroke-width:1.07;" d="M28.026,24.229
			L28.026,24.229l-0.062-0.059l-0.047-0.058l-0.07-0.071l-0.06-0.051l-0.036-0.134l0.062-0.062l0.02-0.019l0.161-0.147l0.154-0.14
			l-0.042-0.208l-0.035-0.056l-0.025-0.039L28.03,23.16l0.025-0.039l0.06-0.05l0.046-0.082l0.006-0.104l-0.053-0.086l-0.083-0.117
			l-0.137,0.027l-0.119,0.023l-0.101,0.025l-0.136,0.049l-0.055,0.02l-0.05,0.004L27.42,22.81l0.011-0.091l0.01-0.053l-0.007-0.09
			l0.004-0.072l-0.002-0.056l-0.059-0.067l-0.035-0.047l-0.045-0.06l-0.043-0.036l-0.028-0.021l-0.002-0.031l0.012-0.055
			l0.001-0.031l0.011-0.02l0.026-0.017l0.021-0.06l0.024-0.037l0.15-0.022l0.064-0.032l0.021-0.01l0.098-0.048l0.085-0.042
			l0.104-0.055l0.097-0.045l0.08-0.071l0.147-0.03l0.004-0.011l0.028-0.093l0.03-0.092l-0.023-0.08L28.18,21.24l-0.045-0.078
			l-0.033,0.006l-0.049,0.018l-0.058,0.025l-0.109,0.035l-0.095,0.012l-0.08,0.009l-0.068,0.004l-0.02-0.002l-0.062-0.007
			l-0.038-0.006l-0.051-0.028l-0.117-0.022l-0.084-0.029h-0.039H27.23l-0.059-0.004l-0.061-0.016l-0.042-0.015l-0.055-0.022h-0.041
			l-0.032,0.006l-0.03-0.029l0.001-0.006l0.027-0.041l0.007-0.01l0.075-0.09l-0.092-0.037l0.049-0.232l0.06-0.029l0.018-0.012
			l0.184-0.09h0.002l0.038-0.03l0.016-0.038l0.046-0.029l0.071,0.002l0.104-0.05l0.027-0.004l0.061-0.01l0.003-0.062l0.007-0.119
			l0.088-0.076l0.079-0.098l-0.023-0.104l-0.032-0.021l-0.051-0.021l-0.031,0.004l-0.029,0.033l-0.008,0.02l-0.005,0.014
			L27.6,19.986l-0.003,0.053l-0.007,0.029l-0.084,0.046l-0.015,0.007l-0.038,0.014l-0.062,0.027l-0.021,0.021l-0.022,0.046
			l-0.015,0.029l-0.017,0.02l-0.03,0.012l-0.064-0.027l-0.062-0.061l-0.021-0.033l-0.01-0.053v-0.027l-0.117,0.074l-0.026,0.018
			l-0.044,0.027l-0.094-0.021l-0.117-0.026l-0.125,0.006l-0.086,0.074l-0.136-0.033l-0.011-0.004l-0.048-0.146l-0.073-0.03
			l-0.027,0.008l-0.051,0.021l-0.016,0.01l0.021,0.136l-0.021,0.034l-0.037,0.06l-0.076,0.086l-0.138,0.029l-0.028,0.028
			l-0.049,0.083l-0.035,0.059l-0.026,0.043l-0.153,0.076l-0.074,0.036l-0.051,0.013l-0.03-0.004l-0.075,0.002l-0.061,0.018
			l-0.049,0.018l-0.04,0.016l-0.097,0.033l-0.072,0.024l-0.054,0.019l-0.198-0.092l-0.009-0.005l-0.013,0.011l-0.079,0.059
			l-0.059,0.102l-0.007,0.014l-0.113,0.035l-0.07,0.022l-0.047,0.017l-0.078,0.024l-0.01,0.004l-0.088,0.028l-0.082-0.006
			l-0.103-0.008l-0.07-0.052l-0.107-0.08l-0.256-0.01l-0.021,0.008l-0.051,0.017l-0.003,0.002l-0.084,0.022l-0.128,0.017
			l-0.028-0.021l-0.024-0.022l-0.025-0.049v-0.002v-0.005l0.037-0.202l0.001-0.007l0.111-0.087l0.065-0.018l0.085-0.022l0.037-0.043
			l0.034-0.039l0.04-0.058l0.026-0.041l0.051-0.072l-0.026-0.104l0.063-0.121l0.052-0.096l-0.017-0.123l-0.098-0.07l-0.089-0.01
			l-0.069-0.121l-0.042-0.037l-0.05-0.041l-0.035-0.026l-0.01-0.037l0.002-0.032l-0.023-0.043l-0.018-0.01l-0.215-0.085l0.085-0.058
			l0.061-0.043l0.033-0.108l0.089-0.067l0.047-0.035l0.099-0.073l0.002-0.001l0.064-0.123l0.112-0.055l0.16-0.023l0.057-0.007
			l0.082-0.009l0.151,0.02l0.114-0.023l0.049-0.012l0.053-0.011l0.064-0.017l0.057-0.021l0.059-0.035l0.026-0.015l0.039-0.073
			l0.045-0.083l-0.044-0.103v-0.008l0.001-0.013l0.009-0.163l0.069-0.084l0.054-0.064l0.09-0.09l0.07-0.072l0.062-0.062l0.072-0.072
			l-0.059-0.162l0.004-0.146l-0.001-0.172l0.042-0.095l0.077-0.071l0.027-0.144l-0.012-0.101l0.083-0.079l0.129-0.133l0.032-0.021
			l0.047-0.031h0.102l-0.001-0.069v-0.067l-0.011-0.063l-0.007-0.05l-0.122-0.076l-0.202-0.125l-0.104-0.064l-0.056-0.094
			l-0.041-0.056l-0.059-0.031l-0.075-0.019l-0.079-0.028l-0.024-0.024l-0.016-0.014l-0.064-0.033l-0.094-0.049l-0.087-0.037
			l-0.104-0.062l-0.132-0.068l-0.146-0.062l-0.128-0.051l-0.101-0.039l-0.092,0.1l-0.08,0.074l-0.062,0.099l-0.112,0.118
			l-0.189,0.057l-0.093-0.047l-0.076-0.046l-0.082-0.043l-0.123-0.036l-0.021-0.172l-0.046-0.128l-0.064-0.108l-0.077-0.05
			l-0.084-0.096l-0.083-0.13l-0.057-0.123l-0.011-0.096l0.019-0.088l0.011-0.068l0.003-0.059l0.001-0.014l0.026-0.001l0.03-0.009
			l-0.029-0.102l0.096-0.115l0.071-0.061l0.098-0.079l0.125-0.107l0.115-0.103l0.063-0.105l0.056-0.092l0.021-0.114l-0.024-0.134
			l-0.027-0.104l-0.018-0.134l-0.021-0.14l-0.01-0.149l-0.029-0.13l-0.002-0.119l-0.064-0.021l-0.006-0.006l-0.073-0.036
			l-0.043-0.008l-0.082-0.017l-0.088,0.007L22.7,12.69l-0.188-0.135l-0.202-0.389l-0.044-0.08l-0.097-0.134l-0.083-0.088
			L22.009,11.8l-0.11-0.092l-0.062-0.032l-0.051-0.02l-0.075-0.027l-0.093-0.035l-0.134-0.018l-0.128-0.011l-0.092-0.008
			l-0.158-0.013l-0.136-0.008l-0.114-0.007l-0.172,0.016l-0.19-0.028l-0.113-0.065l-0.068-0.068l-0.07-0.125l-0.003-0.132L20.317,11
			l0.112-0.102l0.146-0.079l0.097-0.064l0.06-0.11l0.042-0.077l0.109-0.214l-0.127-0.213l-0.009-0.014l-0.053-0.074l-0.055-0.078
			l-0.096-0.118l-0.061-0.07l-0.061-0.038l-0.041-0.021l-0.081-0.029l-0.053-0.006l-0.058-0.012l-0.049-0.01l-0.07-0.018
			l-0.063-0.006L19.94,9.641l-0.055-0.005l-0.062-0.01l-0.094-0.011L19.66,9.611h-0.056h-0.065l-0.166,0.012l-0.094,0.062
			l-0.13,0.077l-0.065-0.199l-0.205-0.126l-0.003-0.001L18.864,9.43l-0.719-0.444l0.013-0.014l0.021-0.019l0.021-0.019l0.026-0.03
			l0.023-0.023l0.055-0.04l0.086-0.082l0.057-0.022l0.048-0.021l0.088-0.034L18.6,8.675l0.169-0.311l0.016-0.027l-0.06-0.199
			l0.064-0.054l0.007-0.058l-0.023-0.04l-0.025-0.018L18.715,7.93l0.015-0.026l0.035-0.008l0.034-0.002l0.052-0.004l0.034,0.007
			l0.031,0.018l0.04-0.007l0.024-0.03l0.015-0.037l0.013-0.038l-0.015-0.038l-0.017-0.02l-0.003-0.004l-0.04,0.103l-0.12-0.034
			l-0.093,0.028l-0.078-0.05L18.618,7.69l-0.016-0.147l-0.063-0.102l-0.062-0.049L18.46,7.379l-0.145-0.124l-0.078-0.038
			L18.13,7.193l-0.161-0.032L17.855,7.04l-0.102-0.004l-0.1-0.087l-0.125-0.127l-0.073,0.051L17.442,6.98l-0.125,0.033L16.99,6.889
			l-0.146-0.191l-0.027-0.009l-0.108-0.036L16.68,6.641l-0.016-0.031l-0.144-0.037l-0.137,0.01l0.011-0.037l0.021-0.069
			l-0.014-0.097l-0.829-0.153l-0.24-0.232l-0.058-0.055l-0.118-0.068l-0.071-0.099l-0.097-0.077L14.961,5.55l0.008-0.037
			l0.033-0.094l-0.016-0.242L14.92,5.126l-0.013-0.012L14.89,5.062l-0.119-0.122l-0.364-0.155l-0.128-0.066l-0.176-0.038
			l-0.147-0.043l-0.162-0.081l-0.228-0.253l-0.09-0.095l-0.072-0.043l-0.167-0.009l-0.104-0.015l-0.038-0.004l-0.021-0.121
			l0.117-0.142l0.121-0.105l0.18-0.118l0.052-0.101l0.097-0.066l0.001-0.003l-0.003-0.122l0.002-0.18l-0.021-0.12l-0.048-0.082
			l-0.128-0.093l-0.321-0.184l-0.364-0.207L12.75,2.407l-0.047-0.105l-0.102-0.098l-0.194-0.186l-0.216-0.153L12.069,1.85
			l-0.126-0.053l-0.146,0.09l-0.037,0.062l-0.071,0.077l-0.145,0.049l-0.394,0.139l-0.14-0.03L10.843,2.13l-0.147-0.063L10.55,1.95
			l-0.11-0.1l-0.184-0.196l-0.249-0.101L9.86,1.476L9.536,1.375L9.341,1.476L9.268,1.514L9.1,1.639L8.891,1.757L8.72,1.845
			L8.553,1.835l-0.014-0.02L8.54,1.847l0.018,0.206L8.457,2.233L8.35,2.375L8.262,2.481l-0.168,0.24L7.951,2.978L7.847,3.117
			L7.719,3.229L7.616,3.391L7.511,3.555L7.424,3.689L7.314,3.876L7.273,3.953L7.212,4.048L7.136,4.093v0.024l0.106,0.005
			l0.071,0.008l0.082,0.004l0.082,0.005l0.076-0.02l0.058-0.033l0.072-0.035l0.083-0.037l0.065-0.028l0.061-0.021l0.071-0.03
			L8.026,3.92l0.071-0.013l0.055-0.015l0.095,0.004l0.049,0.01l0.076,0.027l0.062,0.022L8.497,3.98l0.071,0.027l0.044,0.023
			l0.061,0.031l0.059,0.056l0.036,0.049l0.025,0.043l0.025,0.062L8.83,4.337l0.006,0.065L8.829,4.455L8.824,4.517L8.82,4.579v0.077
			L8.814,4.719L8.818,4.78l0.003,0.072L8.83,4.916l0.022,0.062l0.026,0.05l0.135,0.137l0.002-0.001L9.07,5.209l0.045,0.036
			l0.062,0.023l0.061-0.008l0.065-0.039l0.047-0.018l0.078,0.008l0.057,0.06L9.51,5.318l0.035,0.067l0.022,0.052l0.02,0.052
			l0.009,0.072l0.001,0.055l0.002,0.051l0.016,0.069l0.035,0.043L9.69,5.817l0.031,0.039l0.041,0.072L9.759,5.985l0.014,0.046
			L9.794,6.22l0.01,0.185L9.798,6.46L9.791,6.532L9.787,6.581L9.772,6.639l-0.02,0.053L9.726,6.747L9.694,6.788L9.662,6.835
			L9.628,6.878L9.578,6.94L9.537,7L9.491,7.125L9.467,7.2L9.396,7.347L9.385,7.4L9.358,7.485L9.312,7.578L9.298,7.633l-0.017,0.06
			l-0.02,0.047L9.233,7.788L9.21,7.853L9.186,7.939L9.165,7.996L9.146,8.049L9.126,8.116L9.099,8.201l0.01,0.073L9.121,8.32
			l0.021,0.059l0.036,0.06L9.214,8.5l0.039,0.067l0.05,0.059l0.042,0.043l0.059,0.066L9.432,8.78l0.034,0.053L9.492,8.89l0.03,0.085
			l0.009,0.084L9.52,9.148L9.499,9.201L9.456,9.284L9.428,9.326L9.381,9.379L9.318,9.43L9.273,9.456L9.222,9.486L9.16,9.535
			L9.104,9.592l-0.07,0.041L8.962,9.688v0.003l-0.064,1.894l-0.151,0.104l-0.133,0.098l-0.013,0.04l-0.008,0.059l-0.044,0.337
			l-0.042,0.052l-0.062,0.024l-0.052,0.012l-0.057,0.013L8.253,12.35l-0.101,0.034l-0.047,0.024l-0.058,0.024l-0.071,0.03
			L7.889,12.49l-0.086,0.03L7.75,12.539L7.692,12.56l-0.049,0.021l-0.05,0.021l-0.089,0.036l-0.071,0.029l-0.105,0.049L7.235,12.75
			l-0.048,0.022l-0.083,0.031l-0.087,0.023l-0.05,0.015l-0.045,0.022L6.88,12.905L6.856,12.96l-0.034,0.08l-0.024,0.069
			l-0.002,0.008l-0.031,0.055l-0.053,0.066l-0.034,0.044L6.611,13.36l-0.035,0.038l-0.051,0.06L6.479,13.52l-0.053,0.06l-0.054,0.07
			l-0.024,0.047l-0.042,0.07l-0.059,0.079l-0.013,0.014l-0.012-0.004l-0.072,0.1l-0.007,0.01l-0.068,0.096l-0.108,0.15l-0.097,0.036
			l-0.158,0.058l-0.063,0.068l-0.124,0.133l-0.069,0.076l-0.068,0.074L5.3,14.751l-0.07,0.076L5.171,14.89l-0.146,0.142l-0.091,0.09
			l-0.137,0.135l-0.149,0.119l-0.11,0.108l-0.086,0.056l-0.058,0.082l-0.025,0.092l-0.072,0.062l-0.079,0.104l-0.119,0.053
			l-0.14,0.061l-0.105,0.047l-0.225,0.072l-0.062,0.029l-0.042,0.025l-0.046,0.021l-0.066,0.031l-0.026,0.01L3.254,16.23
			l-0.187,0.002H3.061l-0.107,0.001l-0.098,0.001l-0.137,0.107l-0.081,0.062l-0.093,0.072L2.44,16.531l-0.054,0.043l-0.048,0.031
			l-0.055,0.047l-0.065,0.045l-0.078,0.059L2.064,16.81l-0.089,0.056l-0.061,0.008H1.867L1.78,16.869l-0.142-0.004L1.406,16.86
			l-0.224,0.005H0.855l-0.097-0.008l-0.115,0.021H0.568H0.541l-0.004,0.178l0.092,0.261L0.62,17.516l-0.024,0.125l0.152,0.812
			l0.211-0.17l0.796,0.166l0.194,0.092l0.229,0.004l0.074,0.07l0.163,0.051l0.181-0.039l0.215-0.09l0.143,0.025l0.333,0.107
			l0.268,0.06l0.15,0.022l0.096,0.058l0.087,0.034L4,18.887l0.08,0.029l0.2,0.133l0.07,0.098l0.074,0.077l0.271,0.142l0.155,0.1
			l0.032,0.105l-0.015,0.145l-0.136,0.096l-0.109,0.081l-0.098,0.056L4.043,20.07L3.94,20.088l-0.108,0.031l0.07,0.113l-0.021,0.124
			l0.039,0.087l-0.148,0.198L3.471,20.9l-0.112-0.012l-0.355,0.223l0.085,0.241l-0.18,0.151l0.01,0.207l0.146,0.082l0.214-0.021
			l0.121,0.01l0.221,0.027l0.28-0.1l0.173-0.127l0.184,0.293l0.188,0.111l-0.075,0.206l0.103,0.146l0.032,0.188l0.482-0.289
			l0.251,0.108l0.19-0.041l0.144-0.067l0.172-0.072l0.146-0.021l0.346-0.102l0.059-0.082l0.238-0.01l0.291-0.197l0.283-0.184
			l0.087-0.074l0.021-0.281L7.18,21.095l-0.067-0.12l0.049-0.211l-0.156-0.11l0.032-0.13l0.173,0.021l0.158,0.02l0.105-0.023
			l0.641-0.037l0.145-0.006l0.051-0.092L8.243,20.33l-0.119-0.062l-0.16-0.07l-0.11-0.043l-0.069-0.078l0.035-0.135l0.086-0.072
			l0.117-0.082l0.176-0.138l0.086-0.084l0.108-0.091l0.232-0.15l0.023-0.117l0.108,0.023l0.127-0.068l0.288-0.332l0.102-0.1
			l0.139-0.199l0.124,0.061l0.142,0.111l0.146,0.06l0.133,0.081l0.132,0.111l0.16,0.069l0.061,0.084l0.096,0.341l0.053,0.192
			l0.078,0.122l-0.009,0.16l-0.11,0.125l-0.112,0.07l-0.173,0.025l-0.119-0.005l-0.27-0.013l0.295,0.5l0.117,0.035l0.116,0.049
			l0.11,0.08l0.143,0.051l0.028,0.188l0.072,0.082l0.076,0.086l0.041,0.102l0.363,0.091l0.113-0.015l0.13-0.146l0.992,0.061
			l0.023,0.242l0.02,0.104l-0.047,0.168l-0.023,0.093l-0.019,0.12l-0.011,0.227l0.001,0.118l0.007,0.112l0.071,0.216l0.083,0.073
			l0.036,0.275l-0.044,0.139L12.3,23.262l-0.007-0.127l-0.104-0.121l-0.171,0.025l-0.169,0.021l-0.123,0.006l0.02,0.295l0.074,0.113
			l0.037,0.143l0.051,0.129l0.009,0.024l0.222,0.058l0.12,0.002l0.102,0.014l0.382-0.307l0.187-0.013L13.05,23.6l-0.006,0.223
			l0.049,0.073l0.127,0.024l0.152,0.011l0.086-0.038l0.507-0.055l-0.069,0.353l-0.02,0.103l-0.085,0.11l-0.059,0.128l-0.124,0.16
			l-0.097,0.098l-0.077,0.088l-0.088,0.104l-0.064,0.055l-0.127-0.009l-0.219-0.122l-0.072-0.051l-0.148-0.057l-0.087,0.096
			l-0.053,0.072l-0.104,0.089l-0.117,0.122l-0.122,0.117l-0.059,0.099l-0.062,0.124l-0.031,0.111l-0.202,0.188l0.236,0.329
			l0.086,0.294l0.115,0.033l0.133-0.027l0.116-0.03l0.138-0.043l0.118,0.014l0.024,0.086l0.089,0.016l0.174-0.091l0.061-0.091
			l-0.028-0.115l0.142-0.003l0.09-0.034l0.19,0.02l0.117,0.084l0.104,0.234l0.134,0.053l0.215-0.031l0.198-0.102l0.334-0.102
			l0.041,0.104l-0.054,0.084l-0.089,0.096l-0.142,0.046l-0.09,0.042l0.247,0.191l0.085,0.067l0.148,0.033l0.817,0.112l0.113-0.012
			l0.087,0.055l0.166,0.019l0.128,0.028l0.091,0.351l-0.229,0.112l-0.172,0.212l0.247-0.052h0.123l0.091,0.005l0.13,0.026
			l0.142-0.016l0.449,0.027l0.275-0.047l0.102-0.004l0.115-0.015l0.001-0.089l0.088-0.047l0.085-0.032l0.119-0.147l0.14-0.037
			l0.154-0.02l0.087-0.006l0.237-0.059l0.064-0.086l0.432-0.28l0.041-0.292l0.367,0.025l0.283-0.144l0.111,0.086l0.085,0.004
			l0.04-0.187l-0.063-0.18l0.097-0.098l0.076-0.223l0.492-0.217l0.129-0.006l0.162-0.01l0.312-0.173l0.137-0.03l0.101,0.01
			l0.104,0.022l0.236,0.013l0.114,0.084l0.212-0.098l0.199-0.021l0.101-0.084l0.199-0.1l0.239-0.176l0.092,0.025l0.355,0.068
			l0.027,0.105l0.021,0.095l0.057,0.104l0.861-0.104l0.102,0.004l0.161-0.044l0.062-0.094l0.072-0.139l0.252-0.242l0.155-0.07
			l0.263-0.178l0.188,0.004l0.287-0.258l0.252-0.041l0.229,0.063l0.18,0.244l0.131-0.147l0.316-0.104l0.229,0.034l0.237-0.017
			l0.439-0.136L28.026,24.229"/>
	</g>
</g>
<g id="Layer_1">
</g>
</svg>
