<?xml version="1.0" encoding="utf-8"?>
<!-- Generator: Adobe Illustrator 16.0.4, SVG Export Plug-In . SVG Version: 6.00 Build 0)  -->
<!DOCTYPE svg PUBLIC "-//W3C//DTD SVG 1.1//EN" "http://www.w3.org/Graphics/SVG/1.1/DTD/svg11.dtd">
<svg version="1.1" id="Layer_1" xmlns="http://www.w3.org/2000/svg" xmlns:xlink="http://www.w3.org/1999/xlink" x="0px" y="0px"
	 width="301.44px" height="320.556px" viewBox="-134.046 -142.75 301.44 320.556"
	 style="enable-background:new -134.046 -142.75 301.44 320.556;" xml:space="preserve">
<g id="Layer_84">
	<path id="Mastung" style="fill:#CCCCCC;stroke:#FFFFFF;stroke-width:1.15;" d="M66.782,111.123L66.782,111.123l-0.223-0.115
		l-0.266-1.819l0.959-2.725l1.261-3.018l0.976-2.458l2.023-3.923l3.159-6.195l2.477-4.198l3.204-5.636l4.766-6.957l1.81-2.068
		l5.77-8.556l5.894-9.283l3.345-6.07l5.477-8.138l4.615-6.399l6.585-8.901l8.139-10.774l5.023-7.686l5.253-6.709l4.713-7.953
		l5.157-8.253l2.085-3.195l2.085-5.44l2.051-9.363l1.083-6.798l0.159-2.84l1.82-4.73l1.375-3.879l2.777-5.156l0.861-4.712
		l0.479-5.388l-0.044-6.319l-0.196-3.523l-0.984-5.866l-1.899-7.384l-1.598-5.271l-2.219,0.417l-4.926-0.32l-5.254-0.719
		l-4.118-1.499l-3.63-1.198l-1.002-0.293l-1.767,0.124l-0.977,0.443l-3.222,2.308l-6.07,4.908l-0.391,0.328l-3.222,1.855
		l-2.236,1.322l-1.269,0.204h-1.242l-4.438,0.328l-1.987,0.338l-2.628-0.746l-2.015-1.5l-0.63-1.961l-0.018-1.962l0.106-1.722
		l0.87-2.156l1.615-0.675l2.494-0.443l2.866-0.675l2.476-1.837l0.364-1.331l-0.266-1.838l-0.994-1.18l-1.137-1.074l-1.509-0.612
		l-2.36-0.311l-4.643-0.621l-3.505-2.13l-0.639-1.829l-0.026-3.479l-0.276-4.686l-0.896-1.704l-1.137-0.764l-3.878-0.612
		l-3.506-0.745l-4.747-0.835l-2.761-0.878l-2.885-2.148l-2.147-2.698l-2.609-3.479l-3.142-1.624l-3.133-0.604l-2.006,0.115
		l-2.272,0.143l-2.245,0.222l-1.109,0.559l-1.357,1.411l-2.352,3.168l-2.938,5.867l-2.841,5.769l-2.077,4.464l-2.946,5.777
		l-3.799,6.754l-3.559,7.083l-2.698,4.774l-1.872,3.604l-1.332,3.932l-1.561,5.76l-0.853,3.594l-0.586,4.137l-1.562,4.562
		l-1.962,4.482l-1.357,2.165l-2.344,2.601l-5.547,5.369l-2.955,3.719l-1.233,1.846l0.115,1.313l0.391,2.068l0.665,4.108l0.027,2.725
		l-0.711,4.012L12.2-28.072l-1.233,1.988l-1.481,2.086L7.656-20.75l-1.216,3.035l-1.58,4.136L2.9-11.147l-3.337,2.751l-2.725,1.109
		l-2.982,0.452l-4.108,0.178l-4.73-0.728l-4.003-1.153l-3.497-1.491l-3.78-3.222l-2.529-3.213l-2.529-3.604l-2.015-1.357
		l-2.121-1.057l-1.873-0.86l-1.491-0.115l-3.487,0.248l-4.233,0.799l-4.225,0.994l-5.477,0.825h-1.499l-2.13-0.532l-5.121-1.58
		l-4.136-1.171l-3.745-0.399l-3.363,0.026l-3.001,0.595l-2.467,0.115l-9.088-2.36l-9.062-4.606l-3.133,3.799l0.062,0.187
		l1.109,1.632l2.36,1.305l4.198,0.941l6.186,1.49l2.343,0.64l1.367,1.181l0.497,2.059v2.077l-0.115,1.819l-1.226,2.574l-3.949,3.452
		l-3.78,4.73l-1.34,3.78l-0.729,4.509l-0.098,6.461l0.01,4.943l0.381,2.573l0.373,1.713l1.242,1.509l1.233,1.181l0.497,1.385
		l0.143,2.13l-0.24,3.133l-0.595,2.901l-0.115,2.033l0.994,1.312l1.118,3.019l0.01,3.754l0.142,5.901l1.739,3.647l2.468,2.796
		l1.49,0.879l1.358,0.861l0.621,1.394l0.124,1.312l-1.225,2.557l-1.837,3.976l-2.353,3.985l-0.488,4.1l-0.105,3l-0.613,2.06
		l-1.961,2.804l-2.822,3.133l-1.846,3.018l-2.698,2.272l-2.458,1.837l-0.604,2.999l0.266,7.545l-0.86,5.484l-0.364,1.819
		l-0.604,1.633l-2.201,2.574l-1.473,2.716l-1.465,3.195l-0.728,3.336l-1.101,2.139l-1.713,2.068l-2.077,3.586l-0.86,1.189
		l-0.479,2.147l-0.87,0.949l-1.1,1.819l-0.853,2.272l-0.728,3.124l-3.053,3.647l-3.728,4.073l-2.219,2.468l4.411,1.819l5.315,2.353
		l9.195,4.703l6.62,3.213l8.209,2.458l6.435,2.077l5.219,0.639l5.308,0.648l5.608-0.045l4.642-0.736l3.843-0.985l3.657-2.272
		l2.077-1.712l1.579-2.672l1.722-3.967l1.251-4.669l0.275-3.931l-0.187-2.53l-0.009-1.545l0.142-1.677l0.95-2.12l1.278-2.646
		l1.553-5.343l1.882-4.509l4.908-7.89l4.446-5.92l4.295-5.095l2.849-4.507l4.296-5.211l4.455-5.095l5.512-5.893l2.547-2.103
		l5.271-5.112l3.026-3.106l4.154-3.666l6.248-4.1l3.674-2.841l5.769-3.407l4.802-2.982l4.819-1.837l2.894-0.017l2.742-0.027
		l2.077,0.567l3.878,1.971l2.894,2.379l1.473,2.831l1.474,3.354l1.136,3.621l0.018,2.84l-0.604,4.739l-2.147,6.194l-1.748,3.107
		l-1.261,2.511l-0.319,2.663l-1.58,3.559l-1.27,3.781l-1.401,4.934l-0.462,3.089l-0.595,6.461l0.516,4.207l1.454,2.662l2.104,1.811
		l5.147,2.219l2.424,0.408l2.732-0.426l3.835-1.153l1.917-1.562l2.086-2.272l1.419-2.085l1.908-2.956l2.548-2.831l2.556-2.254
		L66.782,111.123"/>
</g>
<g id="Layer_1_1_">
</g>
</svg>
