<?xml version="1.0" encoding="iso-8859-1"?>
<!-- Generator: Adobe Illustrator 16.0.4, SVG Export Plug-In . SVG Version: 6.00 Build 0)  -->
<!DOCTYPE svg PUBLIC "-//W3C//DTD SVG 1.1//EN" "http://www.w3.org/Graphics/SVG/1.1/DTD/svg11.dtd">
<svg version="1.1" xmlns="http://www.w3.org/2000/svg" xmlns:xlink="http://www.w3.org/1999/xlink" x="0px" y="0px"
	 width="20.278px" height="18.195px" viewBox="0 0 20.278 18.195" style="enable-background:new 0 0 20.278 18.195;"
	 xml:space="preserve">
<g id="Layer_163">
	<g id="Layer_168">
		<path id="Charsadda" style="fill:#CCCCCC;stroke:#FFFFFF;stroke-width:1.07;" d="
			M19.91,13.772L19.91,13.772l-0.051-0.024l-0.048-0.035l-0.052-0.047l-0.019-0.037l0.001-0.06l-0.02-0.071l-0.012-0.056
			l-0.052-0.108l-0.045-0.082l-0.061-0.096l-0.03-0.051l-0.043-0.107l-0.043-0.084l-0.048-0.098l-0.047-0.099l-0.057-0.121
			l-0.06-0.095l-0.065-0.106l-0.021-0.028l-0.04-0.056l-0.056-0.136l-0.045-0.098l-0.049-0.119l-0.036-0.155l-0.028-0.101
			l-0.054-0.123l-0.049-0.164l-0.038-0.074l-0.027-0.053l-0.078-0.155l-0.092-0.306l-0.011-0.049l-0.018-0.127l-0.017-0.076
			l-0.021-0.062l-0.038-0.116l-0.045-0.077l-0.047-0.104l-0.035-0.098l-0.021-0.055l-0.011-0.027l0,0l-0.06-0.159l-0.015-0.04
			l-0.002-0.004l-0.021-0.057l-0.026-0.07l-0.022-0.047l-0.03-0.046l-0.036-0.009l-0.036-0.009l-0.109-0.016l-0.05,0.001
			l-0.069,0.002L17.743,9.58l-0.049-0.01L17.68,9.565L17.558,9.56l-0.012-0.043l0.021-0.077l0.017-0.098l0.025-0.174l-0.04,0.018
			l-0.008,0.003l-0.035-0.008l-0.067,0.006l-0.052-0.002l-0.041-0.006l-0.054-0.01l-0.062-0.023l-0.056-0.01l-0.067-0.013
			l-0.051-0.011l-0.04,0.006l-0.05,0.005L16.93,9.109l-0.04,0.013h-0.028L16.8,9.118l-0.051-0.015L16.714,9.1l-0.052-0.005
			l-0.034-0.008l-0.083-0.012L16.51,9.08l-0.036,0.009l-0.045-0.008l-0.044-0.019l-0.046,0.001l-0.037,0.002l-0.091-0.021
			l-0.052-0.019l-0.03-0.032l-0.018-0.033l-0.032-0.026L16.03,8.913l-0.065-0.009L15.911,8.89l-0.114-0.022L15.715,8.82l-0.03-0.044
			l-0.04-0.034l-0.025-0.048l0.001-0.046l-0.005-0.033L15.6,8.553l-0.021-0.048l-0.021-0.031l-0.02-0.032l-0.021-0.031l-0.051-0.054
			l-0.041-0.04L15.409,8.27l-0.002-0.032l0.005-0.05l0.011-0.053l0.028-0.08l-0.017-0.037l-0.043-0.051L15.36,7.931l-0.035-0.029
			l-0.049-0.028L15.202,7.85l-0.09-0.045l-0.07-0.035l-0.008-0.008l-0.09-0.098L14.94,7.572l0.006-0.052L14.944,7.46l0.01-0.073
			l0.006-0.065l0.006-0.086V7.141l0.006-0.116l0.017-0.073l0.005-0.022l0.016-0.098l0.015-0.116l0.017-0.106l0.015-0.082l0.02-0.11
			l0.018-0.091l0.036-0.189l0.015-0.104L15.149,6l0.005-0.026l0.011-0.107l0.01-0.084l0.011-0.109l0.009-0.071l0.021-0.068
			l0.022-0.042l0.045-0.047l0.033-0.095l0.062-0.09l0.049-0.015l0.075-0.002l0.111-0.008l0.083,0.007l0.137,0.012l-0.051-0.066
			l-0.026-0.078l-0.042-0.058l-0.044-0.036l-0.041-0.029l-0.039-0.057l-0.036-0.116l0.008-0.072l-0.013-0.05l-0.022-0.05
			l-0.011-0.054L15.499,4.52L15.477,4.44l-0.021-0.073l-0.011-0.05l-0.011-0.019l-0.05-0.087L15.313,4.15l-0.071-0.017l-0.036-0.053
			l-0.062-0.044l-0.036-0.02l-0.085-0.039l-0.042-0.03l-0.036-0.02l-0.05-0.037l-0.071-0.06l-0.032-0.035l-0.05-0.043l-0.037-0.051
			l-0.03-0.077L14.646,3.56L14.62,3.503l-0.003-0.006l0.028-0.092l0,0l-0.009-0.189l-0.008-0.01l-0.034-0.018l-0.032-0.032
			l-0.028-0.03L14.478,3.08l-0.06-0.068L14.38,2.968l-0.03-0.031l-0.037-0.055l-0.012-0.011l0,0l-0.046-0.034L14.21,2.812
			l-0.002-0.001L14.15,2.782l-0.05-0.021l-0.05-0.006l-0.07,0.001l-0.078-0.002L13.854,2.75l-0.039-0.003l-0.039-0.033l-0.011-0.043
			l0.001-0.004l-0.049-0.031l-0.063-0.01l-0.045-0.025l-0.049-0.027l-0.046-0.026l-0.099,0.042h-0.001l-0.024,0.03l-0.027-0.006
			l-0.022-0.004l0,0l-0.022-0.005l-0.021-0.058L13.296,2.5l-0.002-0.002l0,0l-0.039-0.026l-0.002-0.027l-0.008-0.012l0.007-0.025
			V2.408l-0.001-0.029V2.377l-0.002-0.004l-0.211-0.022l-0.117,0.027l-0.011-0.02l-0.006-0.001l-0.047-0.069l-0.017-0.068
			l0.004-0.027l0.005-0.025l-0.025-0.046l-0.049-0.076L12.77,2.038l-0.021-0.072l0.012-0.066l0.019-0.04l0.018-0.04l0.013-0.042
			l-0.003-0.048l-0.004-0.06l0.001-0.002L12.766,1.57l-0.024-0.049l-0.052-0.059h-0.001L12.641,1.45L12.6,1.423l-0.015-0.05
			l-0.008-0.065l-0.004-0.038l-0.01-0.042l-0.021-0.047l-0.038-0.098v-0.06l0.001-0.045l0.004-0.065l-0.007-0.07l-0.005-0.03h-0.001
			l-0.005-0.023l-0.01-0.03l-0.014-0.036l-0.014-0.062l-0.049-0.061l-0.028-0.023l-0.006-0.003L12.32,0.568l-0.099-0.01
			l-0.021,0.023l-0.066-0.003L12.126,0.58L12.1,0.577h-0.001l-0.021-0.001l-0.112-0.008l-0.107-0.002l-0.103,0.017l-0.008,0.002
			l-0.035,0.02l-0.048,0.031l-0.063,0.046l-0.057,0.081l-0.032,0.022l-0.007,0.009l-0.033,0.034l-0.062,0.031l-0.036,0.021
			l-0.042,0.033l-0.062,0.039l-0.059,0.022l-0.057-0.025l-0.062-0.015l-0.053-0.011l-0.023-0.006l-0.096-0.004L10.802,0.91h-0.001
			l-0.079,0.005l-0.036,0.009l-0.054,0.01L10.581,0.95l-0.028,0.014l-0.007,0.003l-0.051,0.02l-0.053,0.025l-0.005,0.049
			l-0.175,0.065l-0.073,0.066l-0.072,0.077l-0.062,0.079l-0.046,0.077L9.868,1.505L9.78,1.474L9.651,1.478L9.523,1.541l-0.12,0.097
			l-0.15,0.061L9.162,1.705l-0.15,0.019L8.913,1.826L8.847,1.937L8.811,2.016L8.713,2.149L8.591,2.182l-0.165,0.04L8.353,2.315
			l0.019,0.135l-0.004,0.11L8.364,2.678L8.291,2.809L8.273,2.936L8.33,3.009l0.074,0.073L8.442,3.17L8.386,3.312l-0.1,0.103
			L8.188,3.463L8.042,3.525L7.938,3.561L7.831,3.596l-0.119,0.01L7.549,3.607L7.426,3.632L7.287,3.738L7.19,3.814L7.034,3.835
			L7.02,3.966L7.04,4.052l0.011,0.096L7.06,4.234L7.05,4.419l0.008,0.088l0.02,0.09L7.08,4.681l-0.029,0.09L7.023,4.852L6.876,4.88
			L6.773,4.858l-0.11-0.057L6.518,4.708L6.433,4.631L6.36,4.546L6.253,4.423L6.165,4.398L6.079,4.396L5.948,4.352l-0.143-0.06
			L5.661,4.285L5.56,4.365L5.5,4.505L5.467,4.674L5.418,4.745L5.303,4.846L5.23,4.93L5.157,4.97L5.066,5.002L4.959,4.984
			L4.823,5.028L4.728,5.093L4.639,5.146L4.535,5.189L4.42,5.255l0.047,0.26L4.372,5.638L4.312,5.7l0.055,0.104L4.328,5.897
			L4.21,5.993l-0.095,0.06L4.082,6.079L4.035,6.115L3.948,6.168L3.869,6.217L3.738,6.299L3.583,6.409L3.506,6.459L3.433,6.514
			L3.355,6.564L3.262,6.646L3.207,6.71l0.068,0.101l0.085,0.1l0.067,0.124L3.412,7.162l-0.11,0.111L3.245,7.336l-0.06,0.083
			l-0.068,0.11l0.001,0.14l0.07,0.074l0.062,0.06l0.127,0.105l0.094,0.106l0.01,0.15L3.454,8.251L3.396,8.394l0.023,0.124
			l-0.01,0.084l-0.09,0.127L3.18,8.77L3.075,8.831L2.876,8.948L2.861,8.965L2.717,9.057L2.682,9.064L2.437,9.497L2.412,9.484
			l-0.06-0.016L2.274,9.438L2.221,9.416L2.147,9.381L2.104,9.354l-0.061-0.03L1.978,9.301L1.905,9.278L1.824,9.248L1.815,9.247
			L1.43,9.198l0.113,0.118L1.438,9.396L1.51,9.464l0.124,0.052l0.089,0.049l0.045,0.084l-0.02,0.142L1.715,9.913l0.052,0.112
			l-0.122,0.058l-0.118,0.063l-0.092,0.089l-0.009,0.055l-0.019,0.045l-0.003,0.102l-0.018,0.096l-0.008,0.084L1.36,10.699
			l-0.015,0.092l-0.031,0.104l-0.066,0.078l-0.007,0.109l0.035,0.092l0.041,0.086l0.05,0.101l0.063,0.06l0.09,0.047l0.117,0.068
			l0.061,0.12l0.035,0.122l0.078,0.051l0.023,0.037l0.019,0.026l0.015,0.085l0.028,0.04l0.091,0.009l0.06-0.005l0.061-0.005
			l0.061-0.006l0.08,0.01l0.078,0.001l0.078-0.017l0.076-0.037l0.025-0.008l0.039-0.011h0.093l0.078-0.001l0.06,0.01l0.076,0.015
			l0.054,0.007L2.982,12l0.088,0.024l0.083,0.035l0.073,0.039l0.088,0.041l0.13,0.034l0.109,0.033h0.089l0.101,0.02l0.12,0.014
			l0.094,0.012l0.151,0.018l0.146-0.009l0.123-0.011l0.081-0.006l0.077-0.007l0.068-0.009l0.09-0.016l0.049-0.015L4.79,12.17
			l0.035-0.039l-0.009-0.053L4.8,12.029l0.021-0.027l0.032,0.021l0.312,0.234l0.104,0.129l0.15,0.189l0.05,0.016l0.051,0.029
			l0.062,0.036l0.078,0.069l0.045,0.041l0.046,0.04l0.052,0.04l0.015,0.013l0.047,0.041l0.041,0.054l0.036,0.049l0.019,0.086
			L6,13.152l0.059,0.055l0.046,0.017l0.062,0.005l0.098-0.007l0.102-0.005l0.071,0.021l0.066,0.026l0.062,0.01l0.094,0.023
			l0.051,0.021l0.048,0.032l0.068,0.041l0.084,0.037l0.089,0.033l0.071,0.035l0.066,0.055l0.054,0.041l0.06,0.037l0.012,0.006
			l0.144,0.049l0.056-0.01l0.085-0.028l0.092-0.032l0.08-0.029l0.074-0.018l0.087-0.014l0.064,0.004l0.036,0.005l0.08,0.063
			l0.058,0.053l0.039,0.046l0.023,0.043l0.042,0.062l0.048,0.057l0.069,0.06l0.043,0.024l0.006,0.057l0.009,0.055l0.011,0.059
			l0.004,0.015l0.009,0.033l0.035,0.05l0.068,0.041l0.066,0.04l0.046,0.033l0.06,0.045l0.039,0.037l0.047,0.046l0.034,0.034
			l0.058,0.034l0.083,0.043l0.062,0.002l0.061,0.002l0.059,0.033l0.02,0.057l0.117,0.234l0.011,0.021l0.112,0.057h0.229l0.391,0.233
			l0.47,0.078l0.167,0.056l0.042,0.044l0.062,0.05l0.075,0.051l0.081,0.053l0.055,0.053l0.021,0.026l0.021,0.03l0.05,0.043
			l0.041,0.033l0.053,0.033l0.049-0.001l0.006-0.06l-0.001-0.055l-0.001-0.068l0.153-0.096l0.05-0.006l0.042,0.032l0.074,0.056
			l0.066,0.045l0.11,0.041h0.084l0.085-0.008l0.075-0.018h0.073l0.064-0.003l0.083-0.011l0.046,0.006l0.299-0.105l0.111,0.016
			l0.287,0.02l0.098,0.01l0.142,0.035l0.068,0.023l0.166,0.105l0.071,0.03V15.73l-0.021-0.051l-0.024-0.053l0.087,0.006l0.155,0.043
			l0.092,0.027l0.104,0.031l0.106,0.023l0.059,0.018l0.089,0.03l0.089,0.036l0.114,0.035l0.078,0.031l0.065,0.051l0.092,0.068
			l0.138,0.089l0.138,0.058l0.075,0.025L15,16.221l0.071,0.029l0.021,0.063l0.023,0.14l0.012,0.09l0.012,0.121l0.036,0.129
			l0.044,0.16l0.011,0.118l0.053,0.12l0.064,0.115l0.056,0.105l0.05,0.059l0.098,0.096l0.057,0.064l0.071,0.026l0.098,0.003
			l0.199-0.021l0.18-0.013l0.123,0.021l0.149-0.021l-0.046-0.07l-0.124-0.102l0.044-0.143l0.087-0.084l0.077-0.066l0.049-0.084
			l0.061-0.107l0.091-0.143l0.087-0.133l0.077-0.125l0.104-0.141l0.11-0.176l0.123-0.205l0.142-0.272l0.151-0.206l0.131-0.221
			l0.166-0.26l0.207-0.346l0.185-0.244l0.146-0.192l0.158-0.211l0.077-0.019l0.11-0.01l0.14-0.025l0.084-0.024L19,13.979
			l0.079-0.015l0.103-0.018l0.4-0.074L19.91,13.772"/>
	</g>
</g>
<g id="Layer_1">
</g>
</svg>
