<?xml version="1.0" encoding="utf-8"?>
<!-- Generator: Adobe Illustrator 16.0.4, SVG Export Plug-In . SVG Version: 6.00 Build 0)  -->
<!DOCTYPE svg PUBLIC "-//W3C//DTD SVG 1.1//EN" "http://www.w3.org/Graphics/SVG/1.1/DTD/svg11.dtd">
<svg version="1.1" id="Layer_1" xmlns="http://www.w3.org/2000/svg" xmlns:xlink="http://www.w3.org/1999/xlink" x="0px" y="0px"
	 width="301.072px" height="439.025px" viewBox="-132.674 -193.682 301.072 439.025"
	 style="enable-background:new -132.674 -193.682 301.072 439.025;" xml:space="preserve">
<g id="Layer_90">
	<path id="Musakhel" style="fill:#CCCCCC;stroke:#FFFFFF;stroke-width:1.15;" d="M80.3-144.416L80.3-144.416l-1.029,0.008
		l-0.874,0.335l-0.394,0.666l-0.915,2.003l-0.359,2.554l0.032,5.087l0.539,5.529l-0.522,2.329l-1.913,2.885l-2.304,1.675
		l-3.481,1.013l-3.735,0.233l-2.968-0.09l-2.966-0.764l-1.562-0.433h-1.568l-1.259,1.005l-4.218,3.515l-2.975,2.885l-2.174,2.011
		l-2.436,3.331l-1.015,2.219l-0.767,0.441l-1.292-0.217l-1.577-1.316l-1.921-0.543h-0.646l-2.461-0.425l-1.814-0.654l-3.235-1.197
		l-2.616-1.541l-4.658-2.084l-4.291-1.295l-2.95-1.541l-4.274-1.859l-2.73-2.199l-1.569-0.981h-1.03l-1.169,0.56l-1.913,0.789
		l-3.245,0.903l-2.672,0.568l-1.676,0.789l-1.414,1.005l-1.022,1.222l-1.79,1.999l-1.913,1.446l-4.896,1.483l-2.452,0.008
		l-1.684-0.327l-1.676-0.977l-1.675-2.211l-0.54-3.649l-0.793-1.214l-0.792-0.327l-1.193,0.225l-0.09,0.086l-1.913,1.549
		l-1.659,1.933l-3.882,2.198l-1.438,2.146l0.098,2.325l-0.106,5.509l-0.433,2.333l-2.395,2.378l-3.858,3.044l-1.455,1.087
		l-0.695,1.5l0.278,1.046l1.038,1.675l3.563,2.199l2.763,1.634l0.032,1.479l-1.152,2.562l-4.503,6.023l-1.333,4.687l0.907,5.484
		l1.381,5.043l0.703,7.184l-1.577,5.112l-0.866,2.342l0.515,1.259l1.765,1.021l4.177-0.311l2.468,0.368l0.253,0.629l0.049,1.271
		l-2.607,2.383l-3.318,4.52l-1.397,2.779l0.073,2.117l0.564,2.53l2.77,2.268l3.67,2.419l2.754,1.422l0.041,1.479l-1.626,2.154
		l-1.389,2.995l-1.291,6.167l-0.147,3.174l-0.18,2.55l-1.888,2.579l-3.833,3.474l-3.326,3.457l-3.523,5.59l-2.583,3.866l0.082,2.754
		l-0.662,2.55l-3.311,4.52l-2.615,3.441l-2.304,4.924l-4.838,10.861l-3.572,4.529l-5.019,4.764l-5.5,4.781l-4.013,3.482
		l-2.624,2.607l-2.312,4.494l-1.635,1.529l-2.681,0.703l-2.402,1.314l-4.299,3.695l-1.913,1.945l0.024,0.865l1.038,1.66l0.065,1.904
		l-0.891,1.928l-1.913,2.158l-0.179,1.488l0.048,1.266l0.998,0.613l0.311,2.322l0.057,1.682l-0.703,1.293l0.556,2.312l-0.188,1.486
		l-0.441,1.701l-0.916,1.717l0.286,1.479l1.308,2.723l0.049,1.471l-1.381,2.785l-2.583,4.08l-2.624,3.227l-2.607,2.174l-4.332,2.861
		l-3.833,2.42l-2.386,1.953l-1.169,2.141l-2.084,3.441l-1.292,5.328l0.156,4.006l0.564,2.959l1.348,3.988l0.777,1.258l1.716,0.172
		l1.708-0.041l1.97,0.383l1.52,1.439l1.504,1.029l1.496-0.031l2.166-1.121l2.885-1.969l1.691-0.467l1.472-0.031l0.997,0.391
		l1.496,1.031l0.294,1.479l-0.18,1.48l-0.188,1.258l0.253,0.857l1.022,1.234l1.242,1.447l0.27,0.85l-0.18,1.496l-0.711,1.045
		l0.523,0.844l1.961,0.375l1.708-0.033l2.46,0.359l0.973,0.613l1.03,1.455l0.032,1.275l-0.466,1.062l-1.896,1.938l-1.218,1.527
		l-0.246,3.156l1.227,2.695l3.645,4.799l2.452,0.434l2.19,0.588l1.626,0.039l1.512,0.033l2.46,1.154l3.188,1.797l3.662,2.043
		l3.154,2.469l2.19,2.418l2.419,2.012l4.708,0.131l2.264,0.064l1.218,1.111l-0.033,0.867l-1.104,2.99l-0.825,1.701l-1.038,1.258
		l-0.065,1.291l1.226,1.334l0.736,0.236l0.752,0.025l0.514-0.434l0.785-0.867l1.226-0.393l1.234,0.033l2.207,1.355l5.1,3.629
		l6.138,2.535l1.733,0.057l1.267-1.26l1.079-2.344l1.013-0.41l1.725,0.703l3.416,2.027l1.667,1.781l0.18,0.924l0.482,0.564
		l1.92,0.514l3.155,0.672l1.806,1.045l1.708,2.779l0.564,3.375l0.441,3.662l0.164,2.877l0.555,1.299l1.218,1.578l2.084,2.238
		l2.101,0.803l2.681,1.045l2.566,0.924l3.318,0.016l2.705,0.018l2.109-0.516l2.574-1.814l3.016-1.684l5.583-1.66l3.163-1.012
		l1.528-1.562l1.087-2.092l2.419-2.32l2.125-1.291l3.465-0.762l4.667-0.359l3.629,0.018l2.264,0.154l3.596,1.316l5.403,1.594
		l3.057,0.873l1.226-1.691l1.504-1.943l1.308-2.518l0.531-2.125l0.875-1.684l1.209-2.125l2.935-5.199l1.609-2.965l0.539-2.689
		l0.532-3.262l0.139-3.906l-0.294-6.057l0.163-3.344l0.449-3.154l0.875-2.148l0.54-1.66l0.956-1.396l4.871-4.078l3.448-3.891
		l3.588-4.178l1.725-3.334l1.545-4.078l2.387-4.273l3.375-6.295l1.431-3.154l3.032-6.047l2.697-6.686l2.419-7.994l0.801-4.463
		l0.033-4.551l-0.442-2.787l-0.514-3.711l-0.949-2.713l-0.858-3.156l-0.188-2.695l0.221-2.697l0.523-1.586l1.11-1.006l1.26-1.217
		l0.98-1.291l0.646-1.578l0.229-2.043l0.457-3.344l0.449-1.576l0.875-1.219l0.948-0.734l1.095-0.467l1.274-0.082l2.911,0.303h0.874
		l1.594,0.385l3.563,0.564l2.795-0.066h1.308l1.079-0.475l0.874-0.914l0.458-1.219l0.033-2.043l0.44-3.703l0.67-2.893l0.874-1.389
		l0.876-0.834l0.874-0.557l2.158-0.18l5.312,0.033l3.139-0.359l1.92-0.539l1.079-0.736l0.981-1.291l1.095-1.773l0.998-5.189
		l0.735-7.896l0.563-3.252l0.516-1.129l0.979-0.914l1.938-0.082l8.868,0.049l2.264-0.18l0.932-0.539l0.891-2.615l0.343-2.518
		l-0.425-1.863l-0.751-0.76l-2.371-0.939l-1.716-0.736l-0.735-1.781l-0.311-1.855l0.522-2.697l1.438-4.36l1.487-6.125l0.442-1.573
		l0.588-6.788l0.065-6.877l-0.172-8.001l-0.18-4.287l0.155-2.869l0.343-3.809l0.834-5.112l0.522-2.235l1.3-2.035l3.073-4.536
		l1.766-3.625l1.324-4.083l0.98-4.831l0.171-3.346l-0.269-5.685l-0.589-7.445l0.065-4.279l0.114-1.581l-1.814-2.101l0,0
		l-6.996-8.091l-1.7-4.294l2.076-1.909l0.589-2.366l-1.218-1.332l-1.692-1.141l-1.479-1.12l-0.171-1.516l0.049-1.079l0.531-1.271
		l1.586-1.467l2.304-1.439l0.597-2.357l0.091-1.945l-0.654-2.607l-0.809-4.781l0.073-7.556l-0.793-5.423l0.18-4.319l0.769-5.807
		l1.635-9.677l0.939-4.291l0.915-4.879v-5.835l-0.784-6.077l-1.562-5.022l-1.577-4.802l-0.784-5.643l-1.185-8.026l0.081-1.733
		l-0.457-1.087l-1.26-0.257l-1.732-0.062l-2.256-0.065l-3.171,3.355l-2.632,2.73l-1.847,1.892l-3.629,1.397l-3.317,1.622
		l-2.061,1.23l-1.83,1.455l-3.195,3.792l-1.112,2.125l-2.125,2.313l-1.013,0.617l-1.242,0.176l-2.027-0.065l-2.533,0.352
		l-0.54,0.854l-0.286,1.07l-0.81,1.055l-1.52-0.049l-0.997-0.028l-1.994-0.703l-1.03,0.621l-0.515,0.846l-0.294,1.071l-0.769,0.409
		l-1.545-0.258l-0.956-0.678l-1.227-1.332l-0.188-1.304l-0.702-1.749l-0.687-1.316l-1.014-0.033l-3.481-0.96l-0.997-0.037
		l-0.785,0.192l-0.262,0.854l-0.114,1.941l0.875,3.265l0.155,2.811l-0.123,2.595l-0.801,1.275l-1.586,0.817l-3.302,0.989
		l-0.834,1.271l-0.09,1.507l-0.344,2.371l-0.784,1.054l-0.768,0.409l-1.259,0.175l-3.857-0.612h-0.344"/>
</g>
<g id="Layer_1_1_">
</g>
</svg>
