<?xml version="1.0" encoding="utf-8"?>
<!-- Generator: Adobe Illustrator 16.0.4, SVG Export Plug-In . SVG Version: 6.00 Build 0)  -->
<!DOCTYPE svg PUBLIC "-//W3C//DTD SVG 1.1//EN" "http://www.w3.org/Graphics/SVG/1.1/DTD/svg11.dtd">
<svg version="1.1" id="Layer_1" xmlns="http://www.w3.org/2000/svg" xmlns:xlink="http://www.w3.org/1999/xlink" x="0px" y="0px"
	 width="300.983px" height="513.254px" viewBox="-129.054 -220.33 300.983 513.254"
	 style="enable-background:new -129.054 -220.33 300.983 513.254;" xml:space="preserve">
<g id="Layer_30">
	<path id="Dera_Ghazi_Khan" style="fill:#CCCCCC;stroke:#FFFFFF;stroke-width:1.15;" d="M-123.562,203.334L-123.562,203.334
		l4.056,5.989l4.756,4.732l5.561,1.948l4.844,1.291l7.285,2.068l4.847,1.285l5.76,1.574l4.513,0.5l1.534-0.033l1.519,0.257
		l8.184,1.825l7.605,2.596l5.767,3.367l1.835,2.894l0.666,2.299l3.607,3.062l1.433,0.939l0.906,0.71l1.544,1.115l0.822,0.527
		l1.081,0.824l2.113,1.326l1.515,0.852l1.604,0.764l1.109,0.393l1.585,0.541l1.718,0.426l1.875,0.426l1.44,0.331l1.362,0.284
		l1.981,0.276l1.652,0.331l1.893,0.305l2.451,0.372l2.339,0.271l2.431,0.25l2.096,0.284l2.346,0.142l1.434,0.148l1.325,0.014
		l1.277-0.014l1.586-0.041l2.092-0.073h1.89l2.049,0.114l3.373-0.102l3.039,0.014l1.004-0.067l1.078-0.027l1.102,0.014l1.403,0.062
		l1.287,0.147l1.559,0.143l0.906,0.244l0.997,0.445l1.599,0.974l1.802,1.163l0.893,0.743l0.905,0.893l1.143,0.919l1.075,1.204
		l1.301,1.46l1.302,1.596l0.721,0.906l0.503,0.724l0.376,0.797l0.433,1.021l0.115,0.954l0.02,0.716l-0.148,0.866l-0.081,0.446
		l-0.199,0.54l-0.193,0.427l-0.118,0.371l-0.077,0.393l0.146,0.445l0.523,0.718l0.648,0.743l0.345,0.25l0.725,0.581l0.595,0.521
		l0.852,0.58l0.608,0.291l0.879,0.399l0.648,0.223l0.515,0.243l0.426,0.359l0.154,0.338l0.149,0.426l0.027,0.588l0.176,0.555
		l0.311,0.312L33,276.617l0.723,0.271l0.736,0.188l0.299,0.25l0.147,0.25v0.69l-0.351,1.033l-0.5,1.016l-0.447,0.938l-0.229,0.994
		l0.142,0.764l0.115,0.352l0.142,0.183l0.23,0.229l0.439,0.075l1.122-0.061l1.108-0.244l0.69-0.393l0.655-0.601l0.831-0.562
		l1.306-0.655l0.58-0.257l0.515-0.027l0.426,0.148l0.453,0.203l0.724,0.364l0.852,0.196l0.271-0.027l1.474-0.283l1.136-0.365
		l2.123-0.934l2.19-1.162l1.271-0.744l0.744-0.438l0.865-0.527l0.717-0.501l1.163-0.777l1.636-0.771l1.865-0.852l1.65-0.893
		l0.919-0.567l0.702-0.622l1.016-0.724l0.648-0.541l0.797-0.791l0.934-0.723l0.677-0.697l0.723-0.973l0.724-0.894l0.352-0.655
		l0.271-0.635l0.229-0.718l0.453-1.081l0.358-0.622l0.791-1.122l0.926-1.014l0.264-0.393l0.615-0.839l0.582-0.723l0.622-0.717
		l0.567-0.967l0.48-1.021l0.27-0.696l0.426-0.98l0.555-1.103l0.393-1l0.554-1.203l0.257-0.744l0.406-1.298l0.107-0.399l0.129-0.635
		L77.51,247.5l-0.107-1.148l0.066-1.089l0.143-1.859l0.102-1.643l0.081-0.771l0.122-0.906l0.054-0.473l0.128-0.434l0.265-0.385
		l0.743-0.933l0.298-0.46l0.229-0.494l0.216-0.459l0.514-0.582l0.528-0.392l1.122-0.622l0.608-0.372l0.48-0.426l0.607-0.852
		l0.825-1.015l0.838-0.879l0.764-0.5l0.596-0.236l0.724-0.128l0.642-0.015l1.008,0.13l0.662,0.12l0.446,0.108l0.426-0.006
		l0.798-0.264l0.866-0.203l0.999-0.155l1.097,0.013l1.081-0.081l1.203,0.068h1.515l2.177,0.385l1.487,0.365l0.501,0.277l0.324,0.202
		l0.852,0.697l0.648,0.297l0.556,0.23l0.757,0.419l0.661,0.514l0.582,0.311l0.622,0.434l1.055,0.857l0.798,0.852l0.662,0.894
		l0.298,0.541l0.297,0.933l0.108,1.305l0.115,1.109l-0.216,1.459l-0.413,0.825l-0.48,0.906l-0.27,1.108l-0.298,1.163l-0.143,1.163
		l0.027,0.526l0.169,0.365l0.217,0.352l0.271,0.217l0.426,0.183l0.426,0.074l0.467,0.257l0.203,0.148l0.27,0.622l0.108,0.433
		l0.149,0.243l0.338,0.143l0.379,0.034l0.364-0.075l0.386-0.054l0.358,0.223l0.297,0.439l0.21,0.399l-0.041,0.607l-0.203,0.697
		l-0.426,0.716l-0.445,0.879l-0.149,0.548l-0.027,0.527l0.149,0.535l0.487,0.797l1.189,2.156l0.432,0.839l0.725,1.108l0.352,0.805
		l0.169,0.567l0.358,0.637l0.398,0.811l0.521,1.122l0.426,1.008l0.229,0.695l0.224,0.791l1.008,2.387l0.317-0.526l0.312-0.447
		l0.52-0.223l0.913-0.568l0.534-0.433l0.271-0.845l0.101-0.602l0.196-1.055l0.345-0.777l0.393-0.853l0.155-1.163l-0.095-0.952
		l0.027-0.427l-0.439-0.323l-0.939-0.149l-0.622-0.392l-0.142-0.555l-0.413-0.5l-0.676-0.338l-0.257-0.622l0.148-0.487l0.013-0.494
		l0.69-0.898l0.771-0.635l0.474-0.541l0.724-0.325l0.784,0.217l0.411,0.378l0.737,0.088l0.724-0.433l2.211-3.164l2.921-4.123
		l1.305-1.771l1.007-1.225l1.447-2.155l1.224-1.23l1.007-1.623l0.479-0.838l0.387-0.555l0.466-0.283l0.527-0.278l0.724-0.155
		l0.426-0.412l0.297-0.345l0.041-0.736v-1.238l0.385-0.547l0.298-0.169l0.865-1.399l1.968-1.394l1.379-0.567l1.596-0.919
		l0.729-1.021l0.812-1.697l0.852-2.678l0.608-0.892l0.298-0.535l1.008-0.147l1.061-0.284l1.596-1.393l0.676-1.771l0.744-4.158
		l0.906-3.738l1.365-4.084l0.649-2.386l-0.271-1.074l-0.635-0.866l-0.879-0.602l-1.88-0.567l-1.555-0.156l-1.285-0.392l-0.459-0.521
		l-0.176-0.736l0.067-0.723l0.744-1.008l2.257-2.623l2.137-2.17l1.008-0.825l0.933-0.486l0.939-0.216l1.63,0.154l2.157,0.298
		l1.871-0.033l1.589-0.575l0.528-0.703l-0.027-0.805l-0.905-1.818l-0.879-1.055l-1.109-0.514l-1.244,0.027l-0.852,0.014
		l-0.473-0.251l-0.015-0.541l-0.473-0.676l-0.561-0.872l-0.163-0.872l0.203-0.696l0.311-0.271l0.44-0.013l1.107,0.723l0.636,0.527
		l0.724,0.136l0.608-0.217l0.527-0.804l0.129-1.238l-0.669-1.562l-0.724-1.588l-0.38-2.435l-0.142-1.149l-1.264-3.225l-0.419-2.027
		l-0.433-1.745l0.202-1.244l0.353-0.967l1.067-1.021l0.838-0.622l0.149-0.622l-0.149-0.452l-0.783-0.25l-1.285-0.663l-0.554-0.865
		l-0.108-0.724l0.081-0.412l0.446-0.203l1.258-0.155l3.109,0.148l1.001-0.284l0.513-0.628l0.068-1.068l-0.595-1.832l-1.149-2.346
		l-1.312-1.474l-1.204-1.312l-1.122-1.54l-1.555-2.461l-1.339-2.61l-2.156-5.645l-0.615-2.143l-1.23-10.817l-0.717-9.587
		l-0.364-0.952l-1.596-1.88l-1.447-1.541l-2.312-1.853l-3.3-3.19l-1.541-1.792l-0.824-1.873l-0.19-1.474l0.298-0.98l0.608-0.555
		l0.934-0.351l2.407-0.595l1.574-0.568l1.007-0.643l0.528-0.54l0.054-1.021l-0.284-1.474l-0.636-3.435l-1.223-7.673l0.101-2.109
		l0.649-2.319l0.541-2.649l-0.027-1.292l-0.325-3.535l0.251-2.157l0.939-2.865l1.318-2.793l0.426-1.771l0.243-2.718l-0.615-2.359
		l-1.008-2.354l-1.007-2.541l-0.438-2.299l-0.298-2.164l-0.143-1.345l0.358-1.358l-0.358-1.21l-0.79-0.731l-1.015-0.175
		l-1.487-0.041l-1.257-0.041l-1.109-0.243l-0.555-0.533l-0.486-0.73l-0.108-0.541l0.284-1.155l-0.027-1.008l-0.426-1.556
		l-0.595-1.48l-0.358-0.872l-0.013-0.541l0.397-0.683l-0.026-0.608l-0.555-0.595l2.197-3.658l1.149-2.92l-0.135-2.407l-1.69-2.481
		l-0.378-1.129l-0.298-1.298l-0.812-1.568l-0.325-1.744l0.108-1.19l0.379-0.974l0.979-0.75l0.894-0.919l1.163-0.703l1.548-0.595
		l0.893-0.75l0.648-0.75l0.121-0.906l-0.297-1.298l-0.723-0.608l-1.393-0.873l-0.622-0.784l-0.785-0.812L142.1,3.083l-0.014-0.622
		l0.243-0.913l0.426-0.406l0.894-0.757l1.148-0.872l0.751-0.696l0.243-0.622l-0.135-0.791l-0.353-0.669l-0.798-0.669l-1.271-0.48
		l-1.014-0.547l-0.596-0.555l-0.473-0.662l-0.419-1.177l-0.244-1.812l-0.04-1.751l0.04-2.758v-2.725l-0.284-0.669l-0.351-0.507
		l-0.298-1.237l-0.108-3.624l0.196-4.022l0.271-2.096l0.298-1.474l0.047-1.19l-0.128-8.708l0.142-2.725l-0.229-1.183l-0.71-1.23
		l-1.149-1.109l-1.292-0.987l-1.717-0.649l-1.258-0.311l-1.305-0.257l-2.156-0.291l-2.758-0.284l-1.434,0.034l-0.865-0.094
		l-0.46-0.433l-0.351-0.683l0.12-0.852l0.312-0.568l0.527-1.758l0.365-3.57l0.216-5.949l-0.107-1.068l-0.353-0.676l-0.676-0.378
		l-1.195-0.487l-0.792-0.486l-0.433-0.447l-0.081-0.568l0.121-0.622l0.393-0.466l0.724-0.459l0.852-0.358l1.434-0.264l1.446,0.088
		l1.785,0.412l0.865,0.494l1.048,0.203l0.927-0.081l1.021-0.608l0.71-1.028l1.034-2.339l1.38-2.521l0.621-1.427l0.568-0.804
		l0.743-0.757l0.392-0.859l-0.094-0.676l-0.217-0.886l-0.459-0.5l-0.725-0.324l-0.919-0.041l-1.358,0.257l-1.69,0.602l-0.581,0.122
		l-0.46-0.148l-0.46-0.332l-0.419-0.96l-1.677-6.017l-0.108-1.129l0.143-0.906l0.493-1.088l0.716-0.974l1.15-1.318l1.393-1.332
		l1.014-0.642l0.838-0.413l2.211-0.96l1.237-0.629l0.839-0.757l0.379-0.683l0.081-7.071l-0.149-0.453l-0.419-0.385l-0.338-0.162
		l-0.933-0.095l-2.556,0.054l-1.366,0.135l-1.298,0.257l-1.446,0.088l-0.669-0.047l-0.427-0.386l-0.026-0.446l0.654-0.926
		l1.319-1.555l1.677-1.278l1.284-1.439l0.298-0.858l0.433-1.082l0.284-1.312l-0.447-2.251l-0.919-4.787l-0.135-4.584l0.121-2.886
		l0.244-3.346l0.541-1.866l0.661-2.109l-0.054-1.872l-0.122-1.867l-0.378-1.244l-0.102-1.129l0.271-1.697l0.297-1.203l-0.013-0.562
		l-0.196-0.392l-0.717-0.095l-1.041,0.021l-1-0.156l-0.69-0.378l-0.426-0.73l-0.128-1.467l0.115-1.528l0.195-1.521v-2.21
		l-0.419-2.197l-1.001-3.09l-1.121-2.521l-0.894-1.345l-0.324-1.859l-0.338-2.596l0.143-1.967l0.426-5.78l0.581-2.954l0.608-1.765
		l0.946-1.947l0.757-0.859l1.008-1.156l0.054-0.622l-0.283-0.73l-0.622-0.838l-1.474-0.704l-2.062-0.75l-2.515-0.683l-0.879-0.264
		l-0.527-0.385l-0.149-0.399l-0.026-0.784l0.514-0.865l0.724-0.75l0.973-0.696l1.251-0.656l1.501-0.649l1.096-0.818l0.378-1.021
		l1.555-3.38l2.286-1.366l-1.096-0.703l-1.394-0.426l-1.433-0.304l-2.177-0.547l-2.447-1.23l-0.432-0.812l-0.325-1.413l-0.338-1.501
		l-0.203-0.906l-0.581-0.514l-0.933-0.311l-0.353-0.108l-0.46-0.108l-1.974-0.325l-2.218-0.027l-1.987-0.02l-1.744-0.027
		l-1.771,0.683l-2.144,0.872l-1.791,1.684l-1.218,2.292l-0.594,0.399l-1.035,0.385l-0.723-0.108l-1.854-0.223l-3.285-0.041
		l-3.86-0.148l-1.987,0.074l-1.615-0.622l-1.515-1.014l-1.028-0.419l-1.041-0.115l-0.581,0.094l-0.243,0.291l-0.581,0.196
		l-0.365,0.5l-0.731,0.393l-0.567-0.305l-0.351-0.507l-0.434-1.007l-0.445-0.413l-1.082-0.311l-2.211-0.229l-2.103-0.521
		l-2.325-1.237l-1.615-1.014l-0.927-0.311l-1.021-0.007l-1.048,0.088l-1.067,0.588l-1.137,0.737l-1.514-0.021l-0.203-0.02
		l0.108,0.723l-0.703,1.116l-0.622,0.933l0.143,0.493l-0.399,0.439l-0.445,0.541l-0.934,0.561l-0.961,0.474l-0.716,1.014
		l-0.054,0.615l-0.203,0.724l-1.008,0.878l-1.264,0.385l-1.866,0.122l-1.014,0.067l-1.189,0.237l-1.407,0.304l-0.453-0.021
		l-1.426,0.332l-1.353,0.304l-2.69,0.067l-2.88,0.372l-1.001,0.203l-0.723,0.128l-1.305,0.176l-0.777,0.23l-0.696,0.25l-0.919,0.108
		l-0.501,0.203l-0.405,1.014l-0.622,1.271l-1.88,2.278l-0.325,0.595l-0.702,1.034l-1.19,1.129l-0.567,0.811l-0.143,0.615
		l-0.223,1.108l-0.149,1.001l-0.297,0.716l-0.879,0.757l-0.243,0.345l-0.243,0.433l0.352,0.554l-0.419,0.466l-1.245,2.596
		l-1.405,3.029l-1.122,1.954l-1.325,1.724l-0.283,1.913l0.147,1.758l-3.032,0.993l-3.843,0.913l-3.38,0.743l-4.27,1.068l-4.901,1.23
		l-7.809,2.251l-4.979,2.008l-1.46,0.676l1.501,1.737l-0.108,1.312l-0.044,3.536l0.48,6.159l0.226,4.705l-0.138,2.765l-0.828,3.996
		l-1.089,3.38l-1.453,2.995l-2.542,3.752l-1.078,1.683l-0.437,1.845l-0.687,4.232l-0.29,3.15l-0.118,2.373l0.146,3.549l0.146,6.618
		l-0.048,5.686l-0.483,5.618l-0.368,1.298l-1.225,5.07l-1.192,3.604l-0.443,2.23l0.25,1.535l0.622,1.467l1.42,0.629l1.947,0.771
		l0.636,0.622l0.344,1.548l-0.283,2.076l-0.727,2.15l-0.795,0.46l-1.876,0.148l-7.324-0.047l-1.606,0.074l-0.804,0.757l-0.43,0.919
		l-0.463,2.697l-0.608,6.531l-0.832,4.299l-0.892,1.46l-0.812,1.075l-0.893,0.608l-1.585,0.453l-2.597,0.291l-4.388-0.021
		l-1.795,0.142l-0.72,0.46l-0.72,0.689l-0.721,1.149l-0.551,2.38l-0.375,3.076l-0.026,1.69l-0.382,1l-0.721,0.764l-0.893,0.378
		h-1.075l-2.318,0.067l-2.94-0.473l-1.328-0.318h-0.721l-2.403-0.25l-1.044,0.068l-0.906,0.385l-0.791,0.608l-0.72,1l-0.365,1.305
		l-0.382,2.765l-0.186,1.69l-0.528,1.312l-0.811,1.068l-1.038,1l-0.912,0.838l-0.437,1.305l-0.192,2.231l0.165,2.231l0.7,2.616
		l0.787,2.238l0.43,3.076l0.364,2.305l-0.02,3.765l-0.662,3.692l-2.009,6.611l-2.23,5.53l-2.519,4.996l-1.176,2.61l-2.799,5.212
		l-1.971,3.529l-1.268,3.38l-1.44,2.758l-2.957,3.455l-2.856,3.219l-4.022,3.366l-0.812,1.169l-0.436,1.38l-0.728,1.771
		l-0.375,2.609l-0.128,2.765l0.239,5.01l-0.111,3.231l-0.45,2.685l-0.429,2.224l-1.342,2.453l-2.417,4.301l-1.018,1.758l-0.72,1.379
		l-0.45,1.771l-1.071,2.083l-1.254,1.589l-1.011,1.433l-0.084,0.115l-0.358,1.46l-0.193,3.698l-0.007,1.907l0.426,1.148l0.721,0.23
		l1.004,0.142l1.247-0.839l1.064-1.014l0.99-0.703l0.991-0.304h0.521l0.264,0.71l-0.014,1.784l-0.639,3.149l-1.004,2.516
		l-1.328,2.109l-0.721,1.204l-0.098,1.243l0.527,1.379l1.5,0.724l1.248,0.081l1.545-0.751l1.037-0.926l1.281-1.913l1.315-1.987
		l0.906-0.92l1.044-0.541l1.518-0.607l1.592,0.013h1.059l2.575,0.143l1.302,0.243l1.321,0.229h1.782l2.927,0.014l1.064,0.014
		l1.927,0.54l1.586,0.541l0.879,1.163l0.256,0.751v0.615l-1.067,1.467l-2.424,3.366l-3.59,4.503l-1.159,0.92l-1.417,0.445
		l-1.875,0.312l-1.69,0.142l-1.778,0.446l-0.977,0.751l-0.541,0.838l-0.443,1.015l-0.368,1.898l0.078,3.069l-0.368,1.589
		l-0.511,0.555l-0.798,0.305l-1.409,0.088l-0.777,0.297l-1.065,0.933l-0.547,1.008l-0.173,1.894l-0.646,2.853l-0.795,2.697
		l-1.162,2.075l-0.527,1.859l-0.18,2.312l-0.02,2.921l0.344,1.92l0.43,2.447l-0.277,2.387l-0.395,1.778l-0.994,2.501l-0.633,1.765
		l-0.912,1.608l-1.149,1.366l-0.893,1.548l-0.902,1.074l-1.163,1.225l-1.777,1.305l-2.742,1.589l-1.004,1.149l-0.699,0.851
		l-0.449,0.928l-4.763,8.924l-1.103,3.771l-2.187,7.531l-5.331,13.704L-123.562,203.334"/>
</g>
<g id="Layer_1_1_">
</g>
</svg>
