<?xml version="1.0" encoding="iso-8859-1"?>
<!-- Generator: Adobe Illustrator 16.0.4, SVG Export Plug-In . SVG Version: 6.00 Build 0)  -->
<!DOCTYPE svg PUBLIC "-//W3C//DTD SVG 1.1//EN" "http://www.w3.org/Graphics/SVG/1.1/DTD/svg11.dtd">
<svg version="1.1" xmlns="http://www.w3.org/2000/svg" xmlns:xlink="http://www.w3.org/1999/xlink" x="0px" y="0px"
	 width="89.169px" height="64.531px" viewBox="0 0 89.169 64.531" style="enable-background:new 0 0 89.169 64.531;"
	 xml:space="preserve">
<g id="Layer_151">
	<g id="Layer_156">
		<path id="Gilgit" style="fill:#CCCCCC;stroke:#FFFFFF;stroke-width:1.07;" d="M0.921,52.301
			L0.921,52.301l0.062,0.029l0.046,0.043l-0.003,0.061l-0.024,0.053l-0.046,0.061L0.893,52.63l-0.055,0.071l-0.043,0.113
			l0.011,0.069l0.052,0.089l0.088,0.076l0.095,0.048l0.17,0.083l0.055,0.025l0.084,0.057l0.085,0.059l0.129,0.084l0.114,0.074
			l0.106,0.053l0.122,0.022L2.05,53.56l0.122-0.028l0.146-0.039l0.099-0.002L2.56,53.52l0.232,0.086h0.097l0.087-0.083l0.051-0.106
			l0.067-0.096l0.078-0.113l0.066-0.063l0.046-0.028l0.159-0.039l0.14-0.019l0.154,0.019l0.168,0.013l0.104,0.032l0.054,0.097
			l0.01,0.062l0.009,0.084l0.01,0.129l0.008,0.11l0.03,0.138l0.022,0.108L4.14,53.947l-0.005,0.08l0.03,0.094l0.008,0.082
			l0.14,0.181l0.119,0.071l0.097,0.076l0.102,0.062l0.105,0.086l0.045,0.079l0.012,0.102l0.013,0.098l-0.02,0.102l0.019,0.082
			l0.125,0.098l0.234,0.139l0.133,0.068l0.171,0.053l0.148,0.033l0.093,0.01l0.137,0.012l0.113-0.005l0.131-0.005l0.114-0.02
			l0.091-0.042l0.08,0.009l0.15-0.031l0.096-0.002h0.113l0.128,0.041l0.113,0.062l0.101,0.103l0.105,0.092l0.123,0.111l0.094,0.092
			l0.1,0.106l0.111,0.097l0.102,0.076l0.097,0.051l0.093,0.021l0.063,0.069l0.092,0.111l0.079,0.115l0.1,0.096l0.154,0.196
			l0.247,0.274l0.149,0.095l0.125,0.05l0.032,0.014l0.05,0.004l0.049,0.009l0.016,0.003l0.008,0.033l0.019-0.049l0.133-0.065
			l0.106-0.049l0.119-0.062l0.127-0.031l0.122,0.037l0.104,0.012l0.077,0.063l0.084,0.084l0.093,0.097l0.015,0.066l0.045,0.073
			L10.1,57.635l0.025,0.175l0.106,0.093l0.042,0.113l0.009,0.051l-0.001,0.098l0.024,0.086l0.073,0.105l0.092,0.117l0.105,0.102
			l0.062,0.074l0.033,0.053l0.093,0.106l0.036,0.108l0.065,0.136l0.099,0.097l0.074,0.096l0.085,0.121l0.148,0.102l0.117,0.016
			l0.085,0.034l0.093,0.06l0.135,0.043l0.104,0.097l0.061,0.12l0.08,0.111l0.049,0.099l0.049,0.065l0.089,0.064l0.063,0.068
			l0.145,0.088l0.102,0.072l0.027,0.129l0.048,0.129l0.048,0.113l0.089,0.152l0.065,0.125l0.119,0.072l0.138-0.004l0.157-0.014
			l0.179-0.037l0.161-0.008l0.134-0.02l0.118-0.016l0.061-0.033l0.062-0.088l-0.018-0.104l-0.065-0.125l0.104,0.01l0.124,0.016
			l0.225-0.004l0.156,0.002l0.162,0.004l0.158-0.028l0.045,0.16l0.053,0.13l0.061,0.12l0.063,0.063l0.085,0.03l0.118,0.024
			l0.144,0.013l0.133-0.007l0.111,0.021l0.144,0.007l0.104,0.025l0.056,0.089l0.051,0.095l0.081,0.084l0.077,0.123l0.062,0.09
			l0.07,0.068l0.146,0.066l0.127,0.057l0.075,0.08l0.097,0.04l0.053,0.049l0.08,0.079l0.072,0.121l0.064,0.064l0.048,0.109
			l0.077,0.055l0.124,0.06l0.112,0.028l0.14-0.023l0.156-0.074l0.138-0.1l0.117-0.061l0.158,0.032l0.043,0.109l0.028,0.065
			l0.062,0.088l0.065,0.092l0.092,0.105l0.081,0.096l0.094,0.097l0.099,0.097l0.106,0.082l0.11,0.104l0.123,0.103l0.126,0.067
			l0.124,0.066l0.104,0.025l0.097-0.036l0.031-0.095l0.01-0.127l0.038-0.096l0.05-0.08l0.037-0.078l0.074-0.084l0.05-0.078
			l0.079-0.057l0.096-0.021l0.079,0.02l0.062,0.096l0.105,0.097l0.123,0.103l0.104,0.092l0.139,0.084l0.101,0.07l0.139,0.078
			l0.149,0.079l0.146,0.063l0.168,0.002l0.17-0.017l0.104,0.021l0.089-0.006l0.263-0.022l0.062-0.042l0.059,0.15l0.036,0.121
			l0.065,0.104l0.114,0.054l0.155-0.012l0.108-0.013l0.099-0.021l0.088-0.04l0.088-0.082l0.096-0.082l0.062-0.093l0.052-0.083
			l0.114-0.107l0.141-0.039h0.131l0.132,0.007l0.188,0.007h0.114l0.106-0.007l0.11-0.009l0.116-0.01l0.137-0.016l0.138-0.021
			l0.118-0.012l0.124-0.018l0.121,0.005l0.113,0.002l0.118,0.021l0.121,0.034l0.106,0.022l0.09,0.014l0.021-0.062l0.016-0.088
			l0.006-0.096l0.017-0.068l0.031-0.097l0.07-0.099l0.056-0.079l0.055-0.06l0.08-0.066l0.137-0.075l0.087-0.067l0.073-0.071
			l0.057-0.084l0.062-0.063l0.019-0.07l0.049-0.068l0.037-0.079l0.065-0.048l0.067-0.068l0.08-0.062l0.042-0.068l0.057-0.084
			l0.005-0.066l-0.013-0.076l-0.001-0.071l0.012-0.081l0.062-0.048l0.178-0.011l0.138-0.002l0.143,0.021l0.143,0.007l0.124,0.021
			l0.147,0.039l0.166,0.024l0.18,0.024l0.204,0.025l0.175,0.004l0.164-0.022l0.104-0.035l0.104-0.065l0.08-0.068l0.004-0.053
			l0.013-0.154l-0.002-0.002l-0.05-0.135l0.013-0.104v-0.092l0.006-0.065l-0.031-0.078l0.014-0.09l0.021-0.063l-0.021-0.084
			l-0.076-0.086l-0.023-0.083l0.031-0.08l0.01-0.02l0.021-0.056l0.033-0.121l0.025-0.042l0.047-0.087l0.05-0.089l0.081-0.077
			l0.08-0.062l0.085-0.047l0.147-0.059l0.136-0.054l0.115-0.04l0.072-0.062l0.099-0.051l0.045-0.089l0.023-0.075l0.037-0.074
			l-0.016-0.119l0.002-0.111l-0.004-0.112l0.003-0.116l0.015-0.111l0.001-0.088l0.005-0.07l0.038-0.085l0.034-0.072l0.067-0.04
			l0.082-0.085l0.07-0.04l0.057-0.062l0.014-0.016l0.012-0.074l-0.014-0.067l-0.082-0.071l-0.103-0.051l-0.135-0.042l-0.13-0.026
			l-0.085-0.025l-0.096-0.062l-0.082-0.075l-0.062-0.095l-0.05-0.079l-0.051-0.074l-0.063-0.074l-0.058-0.069l-0.021-0.112
			l0.005-0.072l-0.025-0.077l-0.012-0.087l0.007-0.086l0.006-0.076l-0.006-0.098l0.027-0.117l0.078-0.104l0.118-0.054l0.121-0.062
			l0.136-0.061l0.132-0.064l0.12-0.035l0.086-0.057l0.071-0.042l0.077-0.104v-0.08l0.089-0.098l0.045-0.094l0.062-0.088l0.03-0.076
			l-0.063-0.054l-0.083-0.065l-0.102-0.056l-0.103-0.062l-0.034-0.053l-0.072-0.101l-0.07-0.06l-0.077-0.051l-0.108-0.062
			l-0.107-0.051L29,54.744l-0.107-0.065l-0.1-0.085l-0.03-0.088v-0.087l0.026-0.101l0.044-0.084l0.062-0.089l0.043-0.054l0.026-0.04
			l0.037-0.075l0.041-0.08l0.047-0.066l0.037-0.053l0.029-0.052l0.039-0.038l0.051-0.037l0.059-0.041l0.086-0.033l0.094-0.026
			l0.084-0.041l0.062-0.039l0.07-0.076l0.05-0.058l0.037-0.059l0.048-0.078l0.043-0.056l0.023-0.057l0.046-0.043l0.012-0.017
			l0.035-0.05l0.012-0.03l0.019-0.053l0.06-0.068l0.08-0.026l0.021-0.017l0.047-0.033l0.063-0.039l0.099-0.002l0.08-0.025h0.1
			l0.116,0.012h0.041l0.062,0.002l0.119,0.012l0.075-0.002l0.083-0.035l0.068-0.039l0.021-0.012l0.097-0.045h0.13l0.087,0.016
			l0.075-0.021l0.087-0.031l0.111-0.03l0.104-0.019l0.104-0.006h0.081l0.107-0.041l0.104-0.058l0.103-0.058l0.077-0.051l0.076-0.06
			l0.072-0.019l0.104-0.082l0.09-0.059l0.073-0.083l0.103-0.062l0.105-0.033l0.123-0.036l0.104-0.028l0.098-0.009l0.101,0.002
			l0.083,0.033l0.078,0.032l0.043,0.074l0.036,0.082l0.014,0.063l0.013,0.099l-0.033,0.096l-0.042,0.093l-0.037,0.093l0.002,0.102
			l0.033,0.072l0.043,0.073l0.006,0.09l0.046,0.128l-0.018,0.098l-0.017,0.076l0.007,0.086l0.042,0.118l0.018,0.083l-0.021,0.055
			l-0.032,0.082l-0.038,0.084l-0.024,0.106l-0.007,0.121l-0.013,0.115l-0.048,0.077l-0.083,0.068l-0.082,0.049l-0.064,0.058
			l-0.037,0.063l-0.024,0.1l0.023,0.068l0.046,0.043l0.088,0.03l0.081,0.004l0.084-0.006l0.08,0.013l0.049,0.039l0.052,0.059
			l0.056,0.074l0.067,0.051l0.137,0.062l0.111,0.072l0.103,0.071l0.036,0.084l0.08,0.095l0.057,0.079l0.061,0.109l0.029,0.088
			l-0.01,0.115l0.004,0.117l-0.008,0.111l-0.04,0.104l-0.066,0.145l-0.061,0.132l-0.186,0.065l-0.146,0.069l-0.112,0.099
			l-0.024,0.095l0.003,0.122l0.021,0.123l0.003,0.117l-0.021,0.1l-0.053,0.124l-0.076,0.03l-0.062,0.033l-0.036,0.077l-0.023,0.089
			l0.053,0.139l0.14-0.022l0.114-0.05l0.108-0.035l0.08-0.038l0.08-0.026l0.132-0.065l0.084-0.05l0.08-0.051l0.045-0.004
			l0.115-0.053l0.148-0.083l0.097-0.048l0.061-0.092l0.188-0.098l0.106-0.098l0.129-0.049l0.087-0.074l0.081-0.044l0.074-0.032
			l0.12-0.076l0.089-0.039l0.092-0.061l0.114-0.08l0.143-0.07h0.133l0.159,0.027l0.211,0.025l0.121-0.004L37,56.08l0.144-0.09
			l0.151-0.086l0.096-0.06l0.071-0.076l0.013-0.084l0.021-0.104l0.021-0.11l0.053-0.088l0.048-0.109l0.072-0.081l0.03-0.072
			l0.045-0.072l0.059-0.062l0.046-0.093l0.027-0.089l0.02-0.084l0.031-0.073l0.033-0.078l0.084-0.075l0.13-0.084l0.124-0.082
			l0.163-0.072l0.136-0.062l0.168-0.064l0.135-0.062l0.131-0.072l0.18-0.033l0.142-0.057l0.176-0.07l0.122-0.055l0.138-0.078
			l0.097-0.068l0.086-0.092l0.073-0.103l0.067-0.124l0.055-0.104l0.022-0.133l0.018-0.121l0.004-0.121l0.014-0.09l0.008-0.106
			l-0.003-0.128l-0.021-0.124l0.066-0.028l0.142-0.035l0.186-0.043l0.153-0.035l0.105-0.031l0.146-0.02l0.169-0.064l0.202-0.016
			l0.158-0.022l0.15-0.003l0.098,0.011l0.113-0.037l0.125-0.021l0.104-0.068l0.095-0.037l0.13-0.004l0.09-0.059l0.091-0.053
			l0.088-0.039l0.128-0.068l0.13-0.107l0.101-0.076l0.078-0.052l0.068-0.075l0.022-0.059l0.019-0.077l-0.007-0.036l-0.062-0.057
			l0.075-0.113l0.009-0.105l0.002-0.106l-0.006-0.097l-0.023-0.102l-0.054-0.072L43.048,50.5l-0.002-0.074l0.026-0.084l0.027-0.09
			l0.05-0.131l0.016-0.109l0.041-0.109l0.017-0.104l-0.048-0.062l-0.061-0.078l-0.057-0.108l-0.042-0.125l-0.046-0.071l-0.045-0.093
			l-0.078-0.084l-0.066-0.078l-0.052-0.083l0.026-0.083l-0.027-0.065l-0.081-0.058l-0.12-0.043l-0.115-0.033l-0.19-0.063
			l-0.174-0.045l-0.154-0.041l-0.142-0.039l-0.146-0.034l-0.167-0.041l-0.154-0.024l0.025-0.072l0.076-0.065l0.138-0.077l0.2-0.133
			l0.113-0.105l0.143-0.142l0.118-0.128l0.028-0.152l-0.183-0.182l-0.091-0.093l-0.147-0.144l-0.089-0.098l-0.149-0.085
			l-0.135-0.021l-0.129-0.061l-0.143-0.124l-0.111-0.161l-0.106-0.154l-0.036-0.125l-0.148-0.101l-0.334-0.159l-0.163-0.088
			L40,45.856l-0.079-0.118l-0.059-0.086l-0.104-0.188l0.107-0.058l0.194-0.104l0.188-0.155l0.077-0.195l0.05-0.125l0.078-0.197
			l0.026-0.161l0.044-0.226l0.053-0.158l0.144-0.121l0.188-0.084l0.393,0.107l0.387-0.002l0.279-0.169l0.332-0.167l0.399-0.162
			l0.32-0.166l0.416,0.146l0.331,0.174l0.345,0.104l0.202-0.207l0.159-0.371l0.128-0.282l0.089-0.114l0.058-0.213l0.109-0.188
			l0.12-0.178l0.154,0.073l0.127,0.083l0.134,0.146l0.146,0.16l0.114,0.07l0.289,0.048l0.026,0.175l0.093,0.354l-0.018,0.227
			l-0.021,0.226l0.024,0.196l0.075,0.209l0.187,0.172l0.259,0.101l0.238,0.013l0.238-0.15l0.212-0.149l0.026-0.269l0.05-0.115
			l0.249,0.152L47.826,44l0.288,0.07l0.299-0.08l0.267-0.138l0.221-0.099l0.232-0.223l0.229-0.205l0.165-0.218l0.23-0.215
			l0.203-0.205l0.108-0.178l0.03,0.11l0.017,0.129l0.029,0.132l0.092,0.167l0.146-0.145l0.07-0.201l0.168-0.262l0.13-0.273
			l0.115-0.264l0.113-0.244l0.086-0.232l0.123-0.198l0.044-0.124l0.056-0.109l0.11-0.198l0.137-0.198l0.128-0.253l0.136-0.187
			l0.058-0.203l0.079-0.147l0.088-0.093l0.066-0.169l0.137-0.188l0.085-0.222l0.124-0.209l0.124-0.198l0.112-0.232l0.421-0.819
			l0.08-0.158l0.058-0.06l0.186-0.131l0.177-0.033l0.182-0.088l0.288-0.092l0.285-0.06l0.322-0.015l0.257-0.041l0.254-0.006
			l0.223-0.097l0.229-0.03l0.256-0.029l0.228-0.01l0.202-0.021l0.229-0.021l0.116-0.112l0.175-0.175l0.225-0.127l0.105-0.146
			l0.213-0.139l0.2-0.162l0.25-0.105l0.223-0.105l0.191-0.104l0.324-0.137l0.254-0.126l0.209,0.181l0.238,0.252l0.461,0.283
			l0.197,0.123l0.247,0.154l0.211,0.167l0.524,0.338l0.226,0.209l0.178,0.149l0.193,0.166l0.263,0.168l0.302,0.115l0.212,0.166
			l0.059,0.322l0.109,0.329l0.199,0.306l0.107,0.223l0.321,0.174l0.246,0.168l0.251,0.1l0.301,0.242l0.315,0.145l0.478,0.098
			l0.435,0.031l0.236,0.021l0.376,0.051l0.334,0.064l0.311,0.016l0.225,0.055l0.16,0.09l0.229,0.04l0.188,0.077l0.177,0.076
			l0.206,0.062l0.181,0.062l0.134,0.053l0.132,0.085l0.295,0.055l0.201,0.052l0.225-0.037l0.165-0.007l0.217,0.019l0.276-0.016
			l0.396,0.023l0.319-0.094l0.294,0.002l0.284-0.08l0.271-0.111l0.266-0.031l0.115-0.057l0.166,0.009l0.16,0.011l0.159,0.004
			l0.146,0.023l0.158,0.02l0.133-0.043l0.071-0.074l0.025-0.088l0.075-0.127l-0.028-0.127l0.121,0.022l0.13,0.056l0.103,0.084
			l0.121,0.096l0.092,0.142l0.18,0.132l0.188,0.147l0.221,0.137l0.143,0.095l0.093,0.043l0.327,0.154l0.223,0.107l0.2,0.063
			l0.189,0.101l0.136,0.144l-0.01,0.167l-0.053,0.098l-0.102,0.137l-0.099,0.156L74.5,42.31l-0.098,0.161l-0.053,0.081l-0.084,0.155
			l0.082,0.08l0.136,0.065l0.198,0.08l0.206,0.069l0.181,0.068l0.145,0.045l0.165,0.02l0.131-0.029l0.136,0.008l0.152-0.068
			l0.021,0.084l0.01,0.168l0.004,0.099l0.024,0.158l0.061,0.118l0.086,0.109l0.102,0.1l0.07,0.066l0.09,0.088l0.071,0.053
			l-0.01,0.135l0.009,0.121l-0.039,0.145l-0.048,0.106l-0.034,0.086l0.015,0.138l0.034,0.133l0.104,0.043l0.139,0.039l0.143,0.057
			l0.13,0.06l0.201,0.082h0.188l0.247-0.028l0.198-0.057l0.251-0.078l0.197-0.052l0.192-0.067l0.183-0.024l0.172-0.052l0.161-0.002
			l0.159,0.016l0.194,0.048l0.146,0.03L79.412,45l0.199-0.004l0.146-0.039l0.106,0.018l0.148-0.001l0.146-0.044l0.165-0.053
			l0.12-0.045l0.124-0.092l0.007-0.018l0.14-0.105l0.124-0.086l0.084-0.074l0.089-0.062l0.104-0.058l0.098-0.046l0.177-0.075
			l0.156-0.052l0.19-0.067l0.222-0.06l0.182-0.098v-0.134l-0.001-0.119l-0.065-0.149v-0.066l0.036-0.098l0.192,0.017l0.146-0.015
			l0.192-0.053l0.155-0.066l0.237-0.066l0.164,0.001l0.182-0.012l0.107-0.095l0.354-0.213l-0.04-0.012l0.314-0.354l-0.324-0.344
			l-0.145-0.239l-0.083-0.472l0.157-0.312l0.048-0.195l-0.254-0.209l-0.345-0.211l0.077-0.341l0.275-0.131l0.844-0.112l0.479-0.322
			l-0.288-0.434l0.387-0.13l0.74,0.028l0.882-0.17l0.003-0.268l-0.027-0.286l0.007-0.409l-0.064-0.371l-0.019-0.344l-0.075-0.449
			l-0.026-0.519l0.389-0.249l0.42,0.107l0.693,0.184l0.328,0.137l0.221-0.014l0.17-0.214l-0.134-0.506l-0.274-0.423l-0.466-0.28
			l-0.535-0.429l-0.102-0.684l-0.233-0.314l-0.271-0.299l-0.273-0.092l-0.453-0.376l-0.183-0.412l-0.139-0.407l-0.069-0.342
			l0.062-0.491l0.037-0.043l0.79-1.267l0.207-0.146l0.473-0.145l0.188-0.312l0.117-0.459l-0.185-0.617l-0.084-0.231l-0.16-0.297
			l-0.159-0.208l-0.152-0.25l-0.268-0.277l-0.017-0.265l0.188-0.263l-0.019-0.182l-0.021-0.099l-0.592-0.188l-0.019-0.099
			l0.106-0.379l-0.079-0.183l-0.184-0.15l-0.346-0.152l-0.367-0.325l-0.625-0.593l-0.107-0.292l-0.049-0.279l-0.18-0.43
			l-0.161-0.261l-0.206-0.17l-0.199-0.247l-0.246-0.207l-0.078-0.172l0.005-0.279l0.148-0.419l0.15-0.294l0.226-0.134l-0.154,0.002
			l-0.262-0.121l-0.217-0.199l-0.292-0.254l-0.272-0.27l-0.2-0.194l-0.348-0.211l-0.184-0.091l-0.165-0.073l-0.241-0.197
			l-0.253-0.264l-0.18-0.2l-0.183-0.209l-0.272-0.314l-0.328-0.284l-0.293-0.181l-0.256-0.194l-0.274-0.166l-0.236-0.18
			l-0.275-0.195l-0.293-0.135l-0.323-0.074l-0.288-0.225l-0.288-0.196l-0.132-0.056l-0.108-0.103l-0.181-0.15l-0.311-0.129
			l-0.083-0.095l-0.049-0.053l-0.058-0.042l-0.087-0.038l-0.121-0.03h-0.139l-0.146-0.027l-0.108-0.071l-0.157-0.141l-0.133-0.141
			l-0.167-0.176l-0.327-0.185l-0.415-0.184l-0.451-0.195l-0.454,0.149L73.593,14.8l-0.329-0.313l-0.294-0.136l-0.312-0.209
			l-0.532-0.152l-0.859-0.235L70.68,13.73l-0.51,0.101l-0.738,0.129l-0.639,0.138l-0.671-0.293l-0.415-0.039l-0.555-0.017
			l-0.497-0.077l-0.025,0.37l-0.109,0.461l0.018,0.252l0.105,0.699l-0.204,0.147l-0.313,0.043l-0.422-0.195l-0.402-0.551
			l-0.259,0.088L64.71,15.09l-0.334,0.281l-0.408,0.443l-0.296,0.059l-0.306-0.029l-0.197-0.287l-0.163-0.325l-0.175-0.211
			l-0.147-0.459l-0.127-0.327L62.3,13.892l-0.293-0.446l-0.084-0.297l-0.014-0.482l0.065-0.279l0.098-0.333l0.158-0.504l0.146-0.361
			l-0.056-0.438l0.008-0.176l-0.054-0.52l-0.089-0.535l-0.237-0.432l-0.44-0.432l-0.479-0.254l-0.239-0.164L60.734,8l-0.038-0.386
			l0.089-0.26l0.147-0.267l0.334-0.043l0.241-0.103l0.167-0.148L61.64,6.363l-0.137-0.216l-0.397-0.112l-0.23,0.066l-0.308,0.03
			L60.31,6.136l-0.276-0.03l-0.535-0.195L58.961,5.85l-0.259,0.029l-0.296-0.12l-0.519-0.18l-0.351-0.105l-0.556-0.105L56.322,5.31
			l-0.766,0.159l-0.26,0.133l-0.296,0.088l-0.5,0.088l-0.37-0.075L53.743,5.45l-0.26-0.119l-0.405-0.045l-0.481-0.149l-0.413-0.135
			l-0.585-0.223L51.322,4.6l0.148-0.92l-0.992-0.501l-0.523,0.113l-0.118,0.443l-0.068,0.062l-0.865,0.044L48.27,3.796l-0.834,0.237
			l-0.48-0.03L46.53,3.795l-0.427-0.208l-0.426-0.03l-0.301,0.219l-0.385,0.331l-0.149,0.162l-0.275,0.21L44.03,4.522L43.629,4.43
			l-0.301,0.049l-0.241,0.163l-0.37,0.045l-0.555,0.119l-0.52,0.164l-0.313,0.193l0.019,0.268l0.093,0.192l0.13,0.342l0.241,0.341
			l0.02,0.178l-0.037,0.119l-0.48-0.044l-0.167-0.015l-0.124,0.37l-0.296,0.095l-0.438-0.029l-0.287-0.138l-0.058-0.089
			l-0.686-1.351l-0.094-0.341l-0.224-0.416l-0.204-0.237l-0.186-0.223l-0.429-0.229l-0.256-0.271l-0.062-0.286l0.158-0.443
			l0.079-0.514l-0.055-0.557l-0.393,0.062l-1.282,0.052l-0.296,0.238l-0.184,0.179l0.02,0.549l-0.129,0.149l-0.371,0.001
			l-0.333,0.03l-0.37,0.053L34.225,3.19l-0.51-0.055l-0.214-0.042L33.315,2.94l-0.224-0.222l-0.223-0.282L32.72,2.2l0.129-0.431
			l-0.095-0.222l-0.241-0.133l-0.167-0.312l-0.095-0.356l-0.278-0.192l-0.39,0.045L31.27,0.793l-0.454,0.25l-0.648,0.142
			l-0.454,0.108l-0.626,0.188l-0.166,0.164L28.83,2.018l-0.239,0.253l-0.146,0.163L27.797,2.63l-0.988,0.215L26.66,2.861
			l0.074,0.507L26.547,4.79L26.3,5.757l-0.188,0.162l-0.319,0.025l-0.385-0.058l-0.203-0.171l-0.344-1.052l-0.153-0.117
			l-0.302-0.233l-0.8-0.027l-2.92,0.08l-0.304,0.063L20.088,4.76l-0.509,0.322l-0.887,0.209L18.446,5.35l-0.824,0.386l-0.942,0.85
			l-0.854,0.597l-1.947,1.056l-0.381,0.132l-0.104,0.036l-0.661,0.035l-1.085-0.334l-0.816-0.101L9.828,7.945L9.228,8.014
			L9.04,8.186L8.777,8.601l-0.29,1.003l-0.281,0.975l-0.322,0.265l-0.413,0.032l-0.647-0.223l-0.379,0.001l-0.254,0.09l-1.087,0.641
			l-0.792-0.016l0.005,0.002l0.235,0.237l0.04,0.04l0.044,0.042l0.038,0.045l0.069,0.043l0.229,0.212l0.056,0.024l0.077,0.022
			l0.078,0.007l0.095,0.008l0.092,0.02l0.076,0.027l0.066,0.027l0.066,0.042l0.039,0.065l0.03,0.057L5.69,12.34l0.021,0.068
			l0.005,0.059l0.014,0.067l0.028,0.075l0.033,0.072l0.048,0.047l0.065,0.053l0.054,0.048l0.077,0.027l0.096,0.036l0.077,0.038
			l0.088,0.016l0.099,0.009l0.104,0.001l0.108,0.001l0.118-0.006l0.099,0.008l0.098,0.005l0.113,0.005l0.126,0.005l0.104,0.001
			l0.103,0.024l0.096,0.036l0.071,0.043l0.04,0.049l0.027,0.039l0.025,0.044l-0.006,0.083l-0.012,0.1l-0.021,0.066l-0.016,0.079
			l-0.015,0.07l-0.021,0.074l-0.001,0.075l-0.015,0.078l-0.007,0.083l0.024,0.076l0.02,0.064l0.033,0.084l0.03,0.068l0.035,0.062
			l0.05,0.065l0.039,0.069l0.021,0.06l-0.005,0.056l0.005,0.065l-0.037,0.058l-0.067,0.044l-0.077,0.048l-0.071,0.045l-0.077,0.043
			l-0.071,0.044l-0.062,0.037l-0.028,0.062l-0.011,0.075L7.26,15.118l-0.003,0.047l-0.005,0.067l-0.008,0.055l-0.05,0.069
			l-0.059,0.049L7.083,15.45l-0.066,0.044l-0.048,0.045L6.938,15.57l-0.071,0.044l-0.043,0.049l-0.087,0.059l0.016,0.048
			l0.072,0.019l0.089,0.004l0.097,0.012l0.115-0.009l0.105-0.029l0.136-0.024l0.125-0.025l0.068-0.04l0.1-0.018l0.101-0.03
			l0.082-0.003l0.092-0.016l0.103-0.007l0.104-0.012l0.113-0.006l0.094-0.007l0.109-0.016l0.129-0.006L8.7,15.541l0.129,0.001
			l0.094-0.003l0.094-0.007l0.085,0.003l0.12,0.008L9.31,15.54l0.108,0.001l0.099,0.004l0.067,0.005l0.055,0.004l0.04,0.003
			l0.062,0.005l0.083,0.008l0.064,0.02l0.047,0.009l0.035,0.006l0.078,0.016l0.036,0.01l0.046,0.013l0.044,0.016l0.057,0.021
			l0.054,0.027l0.062,0.03l0.031,0.025l0.038,0.03l0.023,0.015l0.038,0.023l0.033,0.017l0.037,0.018l0.028,0.013l0.029,0.014
			l0.071,0.011h0.056h0.038l0.048,0.004l0.051,0.004l0.036-0.007l0.034-0.006l0.033-0.006l0.045-0.005l0.034-0.003l0.034,0.001
			l0.026,0.023l0.021,0.023l-0.003,0.027l-0.004,0.022l-0.031,0.035l-0.02,0.026l-0.023,0.032l-0.022,0.02l-0.034,0.029
			l-0.027,0.022l-0.035,0.029l-0.028,0.032l-0.03,0.032l-0.039,0.04l-0.022,0.024l-0.024,0.03l-0.024,0.031l-0.022,0.034
			l-0.024,0.038l-0.021,0.041l-0.026,0.033l-0.008,0.04l-0.003,0.035l-0.004,0.037l-0.009,0.046l-0.016,0.048l-0.005,0.044
			l0.008,0.039l0.008,0.041l0.008,0.032l0.007,0.032l0.006,0.027l0.006,0.025l0.002,0.028l0.002,0.043l0.005,0.034l0.006,0.045
			l0.011,0.029l0.004,0.04l0.007,0.033l-0.003,0.021l0.005,0.025l0.008,0.033l0.018,0.024l0.026,0.029l0.029,0.026l0.031,0.032
			l0.049,0.043l0.053,0.046l0.048,0.019l0.053,0.021l0.055,0.012l0.062,0.013l0.066,0.009l0.052,0.007l0.089,0.004l0.054,0.003
			l0.066,0.005h0.1l0.093,0.008l0.078,0.003l0.118-0.001l0.044-0.004l0.061-0.007l0.035-0.012l0.044-0.016l0.064-0.001l0.06-0.004
			l0.052-0.005l0.073-0.001l0.065,0.009l0.098,0.021l0.081,0.027l0.092,0.02l0.102,0.021l0.094,0.02l0.087,0.016l0.087,0.02
			l0.091,0.032l0.092,0.036l0.062,0.036l0.05,0.034l0.114,0.067l0.067,0.06l0.074,0.067l0.06,0.073l0.076,0.059l0.079,0.081
			l0.085,0.065l0.064,0.07l0.078,0.067l0.071,0.078l0.074,0.059l0.06,0.054l0.053,0.045l0.059,0.047l0.068,0.03l0.079,0.015
			l0.073,0.007l0.078,0.004h0.1l0.088,0.008l0.066,0.012l0.059,0.015l0.084,0.039l0.041,0.065l0.006,0.047l0.004,0.028l-0.014,0.043
			l-0.007,0.024l-0.006,0.023l-0.003,0.019l-0.016,0.04l-0.005,0.026l-0.006,0.026l0.003,0.019L15,19.23l0.024,0.021l0.023,0.013
			l0.044,0.024l0.042,0.018l0.045,0.019l0.05,0.014l0.042,0.016l0.049,0.012l0.068,0.016l0.067,0.017l0.055,0.015l0.062,0.016
			l0.056,0.007l0.032,0.004l0.039,0.005l0.058,0.007l0.028,0.001l0.038,0.002h0.036H15.9l0.032,0.005l0.021,0.003l0.028,0.006
			l0.033,0.011l0.026,0.007l0.033,0.004l0.029,0.011l0.025,0.015l0.021,0.014l0.019,0.037l0.004,0.024l0.004,0.028l0.004,0.041
			l-0.002,0.03l-0.001,0.024l-0.016,0.024l-0.027,0.026l-0.021,0.015l-0.033,0.019l-0.024,0.019l-0.023,0.017l-0.038,0.019
			l-0.03,0.015l-0.045,0.02l-0.032,0.014l-0.034,0.007l-0.027,0.006l-0.028,0.006l-0.027,0.007l-0.039,0.009l-0.044,0.011
			l-0.046,0.013l-0.029,0.009l-0.026,0.008l-0.078,0.014l-0.038,0.01l-0.035,0.009l-0.029,0.007l-0.025,0.006l-0.012,0.004
			l-0.029,0.009l-0.024,0.007l-0.029,0.007l-0.026,0.007l-0.038,0.007l-0.038,0.007l-0.023,0.006L15.13,20.1l-0.022,0.017
			l-0.038,0.029l-0.052,0.044l-0.021,0.032l-0.019,0.025l-0.028,0.05l-0.011,0.035l-0.01,0.036l-0.021,0.032l-0.019,0.03
			l-0.021,0.028l-0.021,0.025l-0.02,0.019l-0.029,0.028l-0.033,0.021l-0.032,0.024L14.7,20.603l-0.028,0.018l-0.043,0.026
			l-0.026,0.016l-0.021,0.016l-0.021,0.016l-0.021,0.02L14.51,20.75l-0.019,0.02l-0.02,0.033l-0.014,0.036l-0.003,0.036l0.003,0.026
			l0.003,0.021l0.007,0.038l0.006,0.033l-0.001,0.033l-0.001,0.032l-0.001,0.024l-0.008,0.046l0.003,0.031l0.002,0.022l0.009,0.029
			l0.011,0.04l0.01,0.032l-0.001,0.035l-0.001,0.045l-0.018,0.033l-0.032,0.02l-0.02,0.012l-0.027,0.008l-0.038,0.004h-0.028
			l-0.035-0.008l-0.053-0.007l-0.037-0.007l-0.048-0.009l-0.037-0.008l-0.031-0.008l-0.055-0.015L14,21.366l-0.04-0.012
			l-0.036-0.011l-0.036-0.012l-0.031-0.01l-0.048-0.015l-0.048-0.012l-0.035-0.008l-0.038-0.024l-0.03-0.011l-0.045-0.017
			l-0.054-0.012L13.51,21.21l-0.053-0.016l-0.031-0.006l-0.036-0.008l-0.036-0.013l-0.03-0.011l-0.053-0.012L13.25,21.14
			l-0.038-0.005l-0.037-0.005l-0.04-0.008l-0.038-0.007l-0.048-0.003l-0.033-0.002l-0.049-0.011l-0.024-0.006l-0.028-0.002
			l-0.032-0.002l-0.044-0.003l-0.051-0.002l-0.047-0.003l-0.032-0.001l-0.031-0.002l-0.043-0.002l-0.031-0.002l-0.043-0.002
			l-0.047-0.002l-0.073-0.005l-0.034-0.007l-0.049-0.004l-0.029-0.004l-0.04,0.003l-0.021,0.03l-0.021,0.046l-0.044,0.054
			l-0.037,0.047l-0.029,0.064l-0.021,0.074l-0.029,0.07l-0.045,0.069l-0.033,0.062l-0.062,0.052l-0.076,0.048l-0.096,0.046
			l-0.103,0.05l-0.077,0.01l-0.045,0.017l-0.055,0.02l-0.072,0.021l-0.047,0.024l-0.047,0.033l-0.069,0.037L11.2,21.958
			l-0.077,0.037l-0.069,0.03l-0.063,0.06l-0.085,0.046l-0.062,0.048l-0.039,0.054l-0.008,0.051v0.063l0.008,0.062l0.046,0.069
			l0.042,0.043l0.034,0.035l0.019,0.051l-0.015,0.066l-0.025,0.082l-0.023,0.066l-0.04,0.081l-0.063,0.076l-0.05,0.073l-0.039,0.062
			l-0.023,0.062l-0.01,0.07l0.017,0.067l0.015,0.067l-0.005,0.021l0.038,0.082l0.029,0.068l-0.006,0.099l-0.012,0.074l-0.035,0.068
			l-0.035,0.018l-0.043,0.008l-0.045,0.007l-0.054-0.001l-0.068-0.011l-0.069-0.023l-0.051-0.025l-0.035-0.021l-0.044-0.022
			l-0.032-0.019l-0.037-0.026l-0.039-0.017l-0.041-0.022l-0.032-0.012l-0.03-0.013l-0.021-0.008l-0.029-0.003L9.948,23.6
			l-0.034,0.007l-0.036,0.014L9.832,23.68l-0.047,0.037L9.75,23.744l-0.025,0.02L9.68,23.798l-0.072,0.048l-0.086,0.04l-0.096,0.027
			l-0.104,0.015l-0.104,0.007l-0.127-0.006l-0.113-0.001l-0.11-0.021l-0.106-0.021l-0.089-0.008l-0.103-0.009l-0.103-0.013
			l-0.099,0.008l-0.104,0.007l-0.106,0.023l-0.074,0.052l-0.058,0.066l-0.021,0.074l-0.03,0.102l0.005,0.109l-0.001,0.06v0.081
			l0.034,0.238l0.013,0.084l0.01,0.088l0.021,0.081l-0.014,0.087l0.013,0.074l-0.025,0.06l-0.056,0.051l-0.021,0.09l-0.021,0.09
			L7.896,25.5l-0.009,0.084l-0.014,0.091L7.86,25.773l-0.022,0.102l-0.021,0.088l-0.019,0.108L7.763,26.18l-0.05,0.057l-0.023,0.018
			l-0.062,0.041l-0.07,0.04l-0.086,0.027l-0.09,0.023l-0.104,0.027l-0.101,0.035l-0.091,0.023l-0.104,0.027l-0.08,0.032
			l-0.039,0.021l-0.048,0.027l-0.025,0.028l-0.022,0.025v0.042l0.015,0.045l0.007,0.038l0.007,0.038L6.794,26.84l-0.001,0.045
			l0.004,0.087l-0.016,0.094l-0.03,0.082L6.744,27.22L6.71,27.294l-0.045,0.077l-0.034,0.077l-0.054,0.065l-0.036,0.085
			l-0.044,0.069L6.439,27.75l-0.065,0.094l-0.072,0.052l-0.058,0.049l-0.052,0.041L6.14,28.028l-0.028,0.07l0.027,0.077l0.051,0.069
			l0.067,0.071l0.064,0.062l0.021,0.057l0.038,0.077l0.034,0.072l0.039,0.081l0.062,0.083l0.077,0.09l0.073,0.071l0.094,0.067
			l0.074,0.055l0.07,0.051l0.089,0.06l0.07,0.046l0.063,0.054l0.061,0.062l0.059,0.07l0.025,0.064l-0.005,0.06l-0.028,0.066
			l-0.072,0.048l-0.082,0.043l-0.104,0.063l-0.042,0.015L6.89,29.749l-0.062,0.023l-0.04,0.016l-0.062,0.036l-0.044,0.017
			l-0.046,0.021l-0.037,0.017l-0.04,0.019l-0.034,0.028l-0.06,0.046l-0.059,0.013l-0.059,0.008l-0.035,0.002L6.27,29.997
			l-0.037,0.005l-0.048,0.007l-0.09,0.027l-0.067,0.056l-0.031,0.098l-0.041,0.093l-0.031,0.089l-0.029,0.094L5.853,30.57
			l-0.064,0.092l-0.023,0.063l-0.062,0.077l-0.073,0.063l-0.083,0.068l-0.058,0.049L5.411,31.03l-0.094,0.016l-0.08,0.02
			l-0.078,0.001l-0.073-0.012l-0.121,0.029L4.894,31.14l-0.059,0.057l-0.02,0.07L4.776,31.34l-0.029,0.058l-0.032,0.05l-0.071,0.056
			l-0.055,0.065l0.01,0.067l0.016,0.084l0.002,0.099l-0.03,0.09l-0.032,0.059l-0.049,0.073l-0.027,0.032l-0.047,0.052l-0.031,0.033
			l-0.056,0.058l-0.064,0.061l-0.063,0.06l-0.048,0.058l-0.01,0.074l-0.026,0.094l-0.015,0.138l0.02,0.139l0.001,0.126l-0.01,0.065
			l0.024,0.147l0.002,0.11l0.008,0.1l0.047,0.102l0.014,0.037l0.035,0.104l0.011,0.055l0.014,0.071l0.016,0.086l0.019,0.123
			l-0.04,0.082l-0.038,0.125l-0.02,0.2l-0.005,0.15l-0.01,0.135l-0.018,0.117l0.002,0.088l0.037,0.039l0.056,0.031l0.054,0.01
			l0.047,0.031l0.034,0.046l0.024,0.054l0.006,0.062l0.031,0.076l0.021,0.066l0.01,0.041l0.021,0.061l0.009,0.057l0.01,0.073
			l0.007,0.04l0.006,0.07l0.005,0.054l0.008,0.053l0.017,0.068l0.021,0.06l0.033,0.063l0.051,0.05l0.044,0.043l0.047,0.031
			l0.067,0.017l0.074,0.006l0.062,0.001l0.07,0.012l0.061,0.033l0.08,0.061l0.062,0.05l0.041,0.046l0.06,0.051l0.05,0.043
			l0.055,0.059l0.041,0.056l0.053,0.052l0.064,0.043l0.046,0.043l0.051,0.025l0.066,0.012l0.081-0.007l0.072,0.031l0.056,0.042
			l0.045,0.059l0.046,0.053l0.05,0.076l0.028,0.065l0.029,0.062l0.051,0.099l0.021,0.059l0.037,0.06l0.028,0.062l0.039,0.059
			l0.054,0.064l0.062,0.079l0.037,0.065l0.024,0.078l-0.008,0.062l-0.004,0.047l-0.018,0.059l-0.028,0.064l-0.009,0.075l0.013,0.047
			l0.062,0.035l0.063,0.034l0.081,0.052l0.07,0.059l0.094,0.058l0.081,0.041l0.076,0.049l0.073,0.037l0.062,0.041l0.078,0.039
			l0.06,0.048l0.092,0.069l0.086,0.039l0.093,0.037l0.075,0.049l0.108,0.086l0.064,0.058l0.053,0.058l0.03,0.049l0.005,0.033
			l0.021,0.067l0.006,0.084L7.928,39.19l-0.012,0.076l-0.012,0.17l-0.025,0.146l-0.041,0.092l-0.062,0.084l-0.085,0.104L7.61,39.955
			l-0.109,0.082l-0.056,0.026l-0.072,0.05l-0.089,0.063l-0.078,0.052l-0.081,0.049l-0.076,0.047l-0.066,0.051L6.92,40.437
			l-0.062,0.065L6.824,40.57l-0.022,0.076l-0.021,0.102l-0.009,0.084l-0.006,0.093l0.007,0.073L6.766,41.08l-0.004,0.086
			l0.005,0.062l0.001,0.075l-0.001,0.075l0.008,0.078l-0.008,0.076l0.01,0.054L6.8,41.629l0.028,0.049l0.041,0.053l0.036,0.035
			l0.048,0.051l0.044,0.039l0.043,0.035l0.025,0.055l0.018,0.062l0.035,0.053l0.057,0.06l0.039,0.05l0.027,0.059l0.033,0.035
			l0.023,0.062l0.027,0.037l0.021,0.062l0.01,0.062l0.031,0.055l0.031,0.088l0.041,0.082l0.024,0.072l0.021,0.069l0.023,0.078
			l0.018,0.074l0.01,0.069l0.021,0.07l0.016,0.061l0.021,0.053l0.012,0.068l0.006,0.058l0.007,0.048l0.004,0.052l0.003,0.05v0.049
			l-0.007,0.041l-0.023,0.031l-0.04,0.016l-0.056,0.016l-0.061-0.008l-0.062-0.021l-0.051-0.022l-0.03-0.019l-0.043-0.024
			L7.23,43.558l-0.044-0.024l-0.059-0.026l-0.032-0.015l-0.066,0.035l-0.043,0.047l-0.052,0.09l-0.058,0.107l-0.062,0.102
			L6.77,43.961L6.721,44.05l-0.029,0.137L6.66,44.255L6.614,44.34l-0.04,0.072l-0.039,0.093l-0.039,0.094l-0.034,0.09l-0.035,0.091
			l-0.025,0.088l-0.022,0.067l-0.026,0.083l-0.026,0.087l-0.01,0.085l-0.031,0.085L6.246,45.38l-0.017,0.075l-0.011,0.07
			l-0.021,0.079l-0.033,0.084l-0.02,0.067L6.128,45.83l-0.033,0.09l0.003,0.089l-0.032,0.13l-0.012,0.107l0.018,0.074l0.01,0.066
			l0.045,0.061l0.041,0.057l0.041,0.084l0.057,0.113l0.083,0.133l0.024,0.123l-0.014,0.115l-0.061,0.111l-0.074,0.087l-0.057,0.05
			l-0.055,0.006l-0.131-0.002l-0.13-0.019L5.721,47.3H5.618l-0.096,0.043l-0.081,0.051l-0.077,0.056l-0.067,0.084l-0.076,0.107
			l-0.074,0.1l-0.092,0.062l-0.09,0.052l-0.086,0.04l-0.107,0.012l-0.076-0.016l-0.095-0.036l-0.089-0.04l-0.07-0.035l-0.077-0.015
			l-0.072,0.004l-0.064,0.021l-0.062,0.057l-0.083,0.079L3.96,47.951L3.837,47.98L3.69,47.981l-0.127-0.006L3.44,47.938
			l-0.146-0.058l-0.113-0.045l-0.117,0.031l-0.091,0.067l-0.064,0.081l-0.016,0.082l0.016,0.081l0.026,0.114L2.935,48.41v0.119
			l-0.006,0.166l-0.011,0.116l0.005,0.17l0.052,0.086l-0.036,0.14l-0.021,0.142l0.005,0.115l0.021,0.163l0.005,0.162l-0.001,0.158
			l-0.021,0.102l-0.085,0.068L2.747,50.15l-0.085,0.028L2.57,50.185L2.47,50.19l-0.102,0.031l-0.122,0.022l-0.149,0.018
			l-0.169,0.003l-0.086-0.019l-0.083-0.049L1.727,50.16l-0.065-0.096l-0.068-0.081l-0.072-0.03l-0.209-0.031l-0.197-0.045
			l-0.156-0.038l-0.089-0.025l-0.13-0.021l-0.067-0.036l-0.062-0.005l-0.012,0.134l-0.025,0.122l-0.016,0.113L0.54,50.227
			l0.015,0.137l0.01,0.145l0.047,0.143l0.104,0.172l0.096,0.154l0.062,0.155l0.056,0.151l0.072,0.156l-0.01,0.126l0.007,0.125
			l-0.005,0.101l-0.018,0.134v0.112l-0.013,0.181L0.921,52.301"/>
	</g>
</g>
<g id="Layer_1">
</g>
</svg>
