<?xml version="1.0" encoding="iso-8859-1"?>
<!-- Generator: Adobe Illustrator 16.0.4, SVG Export Plug-In . SVG Version: 6.00 Build 0)  -->
<!DOCTYPE svg PUBLIC "-//W3C//DTD SVG 1.1//EN" "http://www.w3.org/Graphics/SVG/1.1/DTD/svg11.dtd">
<svg version="1.1" xmlns="http://www.w3.org/2000/svg" xmlns:xlink="http://www.w3.org/1999/xlink" x="0px" y="0px"
	 width="76.544px" height="130.811px" viewBox="0 0 76.544 130.811" style="enable-background:new 0 0 76.544 130.811;"
	 xml:space="preserve">
<g id="Layer_121">
	<g id="Layer_126">
		<path id="Khuzdar" style="fill:#CCCCCC;stroke:#FFFFFF;stroke-width:1.07;" d="
			M16.111,38.698L16.111,38.698l-0.579,0.334l-0.768,0.562l-0.434,0.567l-0.226,0.543l-0.433,0.537l-0.716,0.772l-0.886,0.737
			l-0.908,0.4L10.46,43.53l-0.633,0.408l-0.61,0.746l-0.585,1.021L8.294,46.52l0.096,0.885l-0.052,0.486l-0.15,0.361l-0.426,0.416
			l-1.266,0.88l-0.427,0.446L5.764,50.87l-0.236,0.879l-0.189,0.544l-0.227,0.604l-0.191,0.574l-0.014,0.396l0.127,0.309l0.12,0.492
			l0.286,0.647l0.196,0.279l0.095,0.115l-4.669,4.248l-0.225,0.37l1.636,0.396l1.896,0.604l1.599,0.548l1.191,0.46l0.892,0.271
			l0.485,0.218l1.212,1.147l0.839,0.93l0.772,1.192l0.474,1.036l0.208,0.781l0.314,1.196l0.444,1.301l0.537,0.739l0.757,0.734
			l0.958,0.173l1.172-0.028l0.949-0.153l0.542-0.243l0.567-0.669l0.42-0.665l0.462-0.502l0.25-0.203l0.257-0.006l0.117,0.227
			l0.208,0.814l0.018,0.621l-0.047,0.854l-0.104,1.444l-0.269,2.068l-0.25,1.447l-0.481,2.104l-0.305,2.038l-0.397,1.385
			l-0.382,1.876l-0.767,2.441l-0.335,0.99l-0.466,1.646l-0.432,1.387l-0.398,1.286L14.882,93.8l-0.119,0.887l-0.125,0.658
			l0.092,0.619l0.241,0.747l1.069,1.609l1.075,1.64l1.257,1.867l1.183,1.837l1.418,2.484l1.069,1.774l0.167,0.189l0.087-0.195
			l-0.006-0.196l-0.154-0.323l-0.191-0.322l-0.153-0.29l-0.205-0.78l-0.132-0.782l0.022-0.491l-0.005-0.164l-0.188-0.225
			l-0.156-0.389l0.021-0.524l-0.015-0.523l0.017-0.653l0.14-0.2l0.502-0.24l0.532-0.471l0.16-0.757l0.024-0.427l-0.083-0.357
			l-0.191-0.322l-0.124-0.521l0.061-0.395l0.166-0.561l0.455-0.852l0.603-0.604l0.353-0.4l0.504-0.208l0.357-0.27l0.505-0.176
			l0.438,0.056l0.262,0.224l0.265,0.354l0.301,0.319l0.302,0.387l0.322,0.24l-0.054,0.171L27,97.733l1.21,1.548l0.501-0.354
			l0.582-0.281l0.271-0.105l0.155-0.001l0.157,0.209l0.39,0.243l0.351,0.104l0.429,0.452l0.39,0.139l1.01,0.065l0.972,0.137
			l0.428,0.173l0.177,0.019l0.271-0.035l0.156,0.033l0.389,0.174l0.818,0.695l0.506,0.243l0.545,0.208l0.428,0.104l0.194-0.001
			l0.155-0.175l0.271-0.28l0.504-0.386l0.543-0.245l0.155-0.001l0.272,0.14l0.467-0.002l0.389-0.105l0.31-0.175l0.194-0.141
			l0.232-0.035l0.233,0.034l0.39,0.14l0.817,0.696l0.312,0.664l0.272,0.593l0.082,0.122l0.3-0.183l0.088-0.136l0.016-0.116
			l0.015-0.102l0.031-0.184l0.106-0.136l0.088-0.17l0.162-0.138l0.19-0.141l0.221-0.057l0.204-0.005l0.24-0.039l0.203-0.038
			l0.146-0.054l0.296-0.007l0.407-0.01l0.331-0.075l0.203-0.038l0.163-0.121l0.092-0.019l0.075,0.031l0.076,0.049l0.132,0.097
			l0.075,0.063l0.13-0.003l0.073-0.033l0.07-0.086l-0.001-0.051l-0.004-0.133l-0.041-0.116l-0.003-0.115l0.018-0.052l0.09-0.102
			l0.054-0.052l0.11-0.02l0.111-0.003l0.112,0.03l0.429,0.09l0.204-0.005l0.127-0.069l0.126-0.12l0.145-0.137l0.146-0.103
			l0.129-0.003l0.095,0.03l0.131,0.063l0.137,0.213l0.105,0.447l0.215,1.061l0.153,0.812l0.257,1.227l0.099,0.813l0.098,0.729
			l0.028,0.35l0.1,0.265l0.271,0.41l0.392,0.739l0.33,0.56l0.252,0.41l0.397,0.373l0.328,0.459l0.217,0.493l0.267,0.943l0.113,0.747
			l0.151,0.644l0.144,0.514l0.325,1.041l0.238,0.645l0.162,0.479l0.229,0.942l0.222,0.661l0.073,0.647l0.053,0.581l0.268,0.907
			l0.123,0.431l0.258,0.659l0.203,0.661l0.252,0.493l0.293,0.608l0.308,0.442l0.252,0.478l0.315,0.759l0.164,0.596l0.302,0.975
			l0.108,0.628l0.11,0.663l0.272,0.593l0.219,0.595l0.34,1.023l0.2,0.628l0.01,0.365l-0.008,0.383l-0.151,0.486l-0.178,0.341
			l0.145,0.053l0.039,0.279l0.01,0.127l0.023-0.003l0.535,0.032l0.428,0.006l0.35-0.092l0.619-0.161l0.537-0.113l0.375-0.043
			l0.373,0.103l0.321,0.005l0.511-0.09l0.43-0.018l0.402-0.043l0.188-0.118l0.218-0.19l0.219-0.263l0.328-0.383l0.196-0.457
			l0.063-0.483l-0.069-0.631l-0.097-0.606l0.008-0.412l0.086-0.289l0.137-0.168l0.299-0.237l0.137-0.19l0.031-0.193l0.003-0.194
			l-0.129-0.268l-0.073-0.365l0.006-0.29l0.035-0.411l0.032-0.265l-0.096-0.582l-0.038-0.85l-0.092-0.85l-0.172-0.852l-0.147-0.704
			l0.011-0.559l0.115-0.458l0.255-0.724l0.343-1.085l0.118-0.556l0.052-1.284l0.049-1.307l0.015-0.728l0.041-0.727l0.114-0.339
			l0.117-0.481l0.033-0.363l-0.062-1.043l-0.015-0.68l0.016-0.775l-0.02-0.388l-0.023-0.243l-0.105-0.123l-0.187-0.075l-0.188-0.052
			l-0.455-0.128l-0.32-0.15l-0.239-0.148l-0.157-0.245l-0.183-0.317l-0.101-0.341l-0.125-0.535l-0.233-0.921l-0.2-0.853
			l-0.102-0.316l-0.16-0.172l-0.452-0.249l-0.263-0.368l-0.237-0.294l-0.235-0.416l-0.211-0.27l-0.312-0.636l-0.103-0.269
			l-0.133-0.147l-0.187-0.173l-0.236-0.294l-0.209-0.343l-0.211-0.294l-0.211-0.317l-0.131-0.244l-0.076-0.243l-0.078-0.171
			l-0.078-0.147l-0.241-0.124l-0.159-0.1l-0.16-0.147l-0.049-0.34l-0.101-0.39l-0.074-0.414l-0.129-0.342l-0.205-0.36l-0.212-0.271
			l-0.13-0.268l0.002-0.146l0.003-0.146l0.111-0.191l0.219-0.19l0.273-0.19l0.518-0.284l0.818-0.448l0.601-0.331l0.871-0.399
			l1.089-0.47l0.957-0.568l0.792-0.425l0.297-0.021l0.08,0.099l0.386-0.421l-0.005-0.367l-0.114-0.761l-0.154-1.218v-0.773
			l0.158-0.243l0.158-0.208l0.238-0.348l0.197-0.208l0.08-0.244l-0.072-0.42l-0.212-1.822l-0.106-0.91l-0.139-1.4l-0.008-1.559
			v-1.028l0.154,0.074l0.082-0.319l0.16-0.278l0.118-0.138v-0.014l-0.194-0.752l-0.099-0.405v-0.23l-0.001-0.261l0.258-0.667
			l0.354-1.218l0.291-1.014l-0.1-1.188l-0.066-1.043l-0.197-1.507l-0.32-1.729l-0.425-1.796l-0.295-1.217l-0.033-0.666v-0.405
			l0.161-0.754l0.292-0.551l0.486-0.58l0.519-0.553l0.133-0.663l0.129-1.362l0.321-1.826l0.097-1.652l0.226-1.884l0.162-0.317
			l0.325-0.263l0.423-0.29l0.651-0.405l0.356-0.493l0.293-0.812l0.296-1.182l0.229-1.044l0.228-0.436l0.651-0.551l1.103-0.77
			l0.562-0.361l1.142-1.102l0.587-0.985l0.229-0.782l-0.096-1.16l0.237-0.807l0.49-1.093l0.522-0.956l0.328-1.044l0.062-0.818
			l0.004-0.051l-0.13-1.45l0.002-2.232l-0.066-1.854l0.23-0.841l0.197-0.58l0.099-0.377V32.24l-0.162-1.22l-0.194-1.274l0.066-1.363
			v-0.755l-0.13-1.016l-0.196-0.551l-0.432-1.332l-0.426-0.697l-0.23-0.146l-0.164-0.203l-0.197-0.348l-0.064-1.103l-0.098-0.465
			l-0.264-0.175l-0.459-0.435l-0.197-0.379v-0.26l0.033-1.22l-0.131-0.348l-0.23-0.263l-0.281-0.224l-0.047-0.037l-0.229-0.116
			l-0.36-0.028l-0.461,0.028l-0.459-0.059L70.3,18.081l-0.263-0.318l-0.265-0.609l-0.229-0.405l-0.428-0.377l-0.633-0.603
			l-0.46-0.203h-0.428l-0.526,0.088l-0.559,0.088l-0.329-0.088l-0.196-0.203l-0.066-0.174v-0.174l0.131-0.203l0.296-0.318
			l0.756-0.465l0.657-0.523l0.263-0.695l0.132-0.9l0.064-0.725l0.197-0.931l0.164-0.87l0.031-0.492l0.23-0.986l0.234-1.039
			L69.1,6.386l0.008-0.158l-0.066-1.016L68.645,3.79l0.098-0.696l0.166-0.522l0.494-0.812l0.461-0.552l0.363-0.378l0.479-0.302
			l-0.541,0.088l-0.936,0.199L68.294,0.95l-1.188,0.179l-1.01,0.045l-1.162,0.067l-1.465,0.067l-1.691-0.02L60.72,1.315l-0.81,0.002
			l-0.908-0.064l-0.708,0.002l-0.985,0.113l-0.984,0.068l-0.656-0.043l-0.959,0.069l-1.565,0.185l-0.858,0.047l-0.631,0.047
			l-0.631,0.091l-0.429,0.091l-0.454,0.156l-0.227,0.18l-0.326,0.379l-0.276,0.334l-0.427,0.446L48.309,4.22l-0.66,1.09l-0.35,0.578
			l-0.25,0.356l-0.225,0.534l-0.199,0.467l-0.248,0.557l-0.35,0.534l-0.225,0.489L45.63,9.338l-0.401,0.401l-0.4,0.49l-0.398,0.58
			l-0.258,0.383l-0.357,0.68l-0.854,0.643l-1.669,0.528l-2.034,0.212l-0.411,0.279l-0.401,0.236l-0.456,0.276l-0.328,0.438
			l-0.186,0.236l-0.294,0.391l-0.278,0.308l-0.245,0.584l-0.353,0.709l-0.396,0.933l-0.338,0.693l-0.074,0.4l0.054,0.555
			l0.388,1.021l0.592,0.991l0.364,0.398l0.508,0.479l0.493,0.381l0.631,0.451l0.396,0.48l0.304,0.537l0.096,0.221l-0.026,0.389
			l-0.06,0.346l0.069,0.58l0.086,0.691l-0.042,0.954l-0.256,0.889l-0.352,0.766l-0.247,0.319l-0.45,0.268l-0.699,0.422l-0.902,0.396
			l-1.024,0.4l-1.322,0.566l-0.617,0.294l-0.715,0.339l-0.714,0.354l-1.133,0.565l-0.823,0.396l-0.931,0.452l-0.668,0.326
			l-0.495,0.323l-0.897,0.562l-0.48,0.324l-0.385,0.221l-0.155,0.113l-0.278,0.225l-0.433,0.322l-0.417,0.337l-0.51,0.312
			l-0.309,0.226l-0.523,0.478l-0.432,0.322l-0.773,0.467l-0.511,0.24l-0.403,0.171l-0.653,0.111l-0.266,0.012l-0.591,0.132
			l-0.358,0.031l-0.514,0.062l-0.593-0.021l-0.749-0.03l-0.281,0.003L16.111,38.698"/>
	</g>
</g>
<g id="Layer_1">
</g>
</svg>
