<?xml version="1.0" encoding="utf-8"?>
<!-- Generator: Adobe Illustrator 16.0.4, SVG Export Plug-In . SVG Version: 6.00 Build 0)  -->
<!DOCTYPE svg PUBLIC "-//W3C//DTD SVG 1.1//EN" "http://www.w3.org/Graphics/SVG/1.1/DTD/svg11.dtd">
<svg version="1.1" id="Layer_1" xmlns="http://www.w3.org/2000/svg" xmlns:xlink="http://www.w3.org/1999/xlink" x="0px" y="0px"
	 width="301.675px" height="223.641px" viewBox="-132.38 -98.146 301.675 223.641"
	 style="enable-background:new -132.38 -98.146 301.675 223.641;" xml:space="preserve">
<g id="Layer_81">
	<path id="Mandi_Bahauddin" style="fill:#CCCCCC;stroke:#FFFFFF;stroke-width:1.15;" d="M-74.881-38.015L-74.881-38.015l0.141,0.313
		l-0.076,0.346l-0.764,1.398l-0.438,1.229l-0.245,1.342l0.101,3.07l0.394,3.479l0.732,3.086l0.51,1.623l0.683,3.528l0.057,0.723
		l-0.229,0.763l-0.426,0.394l-1.23,0.458l-0.855,0.49l-0.615,0.699l-0.188,0.844l-0.329,0.619l-0.551,0.321l-0.965,0.337
		l-1.631,0.474l-0.724,0.289l-0.245,0.346l-0.635,0.86l-0.855,0.9l-1.045,0.715l-1.233,0.506l-2.528,0.924l-1.177,0.49l-0.88,0.603
		l-0.245,0.53l0.12,0.571l0.25,0.442l0.683,0.321l0.952,0.233l1.615,0.097l0.856,0.12l0.485,0.25l0.338,0.442l0.302,1.061
		l-0.302,1.888l-1.104,2.813l-0.402,0.86l-1.358,1.302L-89.644,5.1l-2.732,0.892l-1.688,0.289l-1.604-0.04l-1.523-0.056
		l-1.547-0.249l-1.531-0.29h-1.12l-1.957,0.225l-2.757,0.402l-3.472,0.579l-2.611,0.361l-1.383,0.121l-0.976-0.081l-0.848-0.16
		l-0.636,0.016l-0.438,0.176l-0.386,0.281l-0.511,0.852l-0.418,1.503l0.04,0.795l0.29,0.852l-0.117,0.466l-0.354,0.466l-0.438,0.321
		l-1.398,0.731l-1.314,0.474l-1.08,0.113l-1.636,0.33l-0.924,0.225l-0.607,0.402L-126,15.764l-0.463,0.619l-0.056,0.732
		l-0.024,4.861l0.354,0.819l0.442,0.627l0.916,0.539l0.856,0.265l2.246,0.265l1.217,0.338l1.571,0.547l1.68,0.915l1.068,0.837
		l0.981,0.73l0.285,0.37l0.02,0.41l-0.273,0.771l-0.148,0.611l0.181,0.868l1.25,0.787l1.013,0.651l0.51,0.362l0.571,0.595
		l0.409,1.157l0.667,1.719l0.306,0.604l0.651,0.53l0.69,0.394l0.338,0.49l0.169,1.246v1.366l0.185,1.093l0.173,0.747l0.526,0.699
		l0.599,0.515l0.511,0.506l0.378,0.29l0.172,0.369l0.044,0.939l-0.1,0.997l-0.41,1.077l-0.792,1.366l-0.723,0.707l-0.551,0.474
		l-0.684,0.748l-0.71,0.973l-0.173,0.65l-0.387,1.271l-0.494,0.739l-0.269,0.305l-1.054,0.418l-1.546,0.467l-2.086,0.394
		l-0.88,0.337l-0.466,0.475l-0.173,0.804l-0.157,0.538l-0.337,0.321l-0.916,0.587l-0.482,0.249l-0.125,0.539l0.089,0.554
		l0.265,0.458l0.543,0.322l0.903,0.217l0.98,0.048l0.84-0.338l0.628-0.145l0.63,0.177l0.37,0.233l0.173,0.57l0.173,0.827
		l-0.009,0.724l0.189,0.708l0.382,0.289l0.574,0.249l0.747,0.217l0.676,0.088l0.839-0.104l1.202-0.273l1.571-0.667l1.591-1.013
		l1.547-0.748l3.407-1.671l1.527-0.933l0.808-0.266l0.619-0.023l0.667,0.145l0.494,0.169l0.51,0.482l0.189,0.458l0.024,0.449
		l-0.503,0.925l-0.37,0.699l-0.51,0.819l-0.173,0.731l0.104,0.796l0.173,0.748l0.397,0.513l1.539,1.158l1.282,1.929l1.085,1.824
		l1.876,4.066l0.511,2.25l0.84,2.588l0.51,0.507l0.471,0.289l1.374,0.031l0.872-0.217l0.996-0.562l1.045-0.466l0.872-0.113
		l1.186,0.162l1.547,0.433l1.482,0.595l1.503,0.322l0.815,0.016l0.659-0.176l0.691-0.435l1.241-0.965l1.86-1.542l0.511-0.595
		l0.361-0.771l0.241-0.475l0.072-0.418l0.165-0.61l-0.016-0.378l0.141-0.265l0.196-0.201l0.426-0.233l0.511-0.169l0.518-0.249
		l0.338-0.313l0.281-0.354l0.229-0.53l0.173-0.467l0.248-0.272l0.6-0.201l0.815-0.032l0.51,0.169l0.322,0.289l0.253,0.716
		l-0.064,0.795l-0.245,0.885l0.072,0.61l0.289,0.482l0.583,0.394l1.467,0.41l0.526,0.281l0.639,0.434l0.511,0.739l0.133,0.603
		l0.008,0.515l-0.346,1.229l-0.458,0.916l-0.519,1.005l-0.068,0.683l0.141,0.644l0.426,0.506l0.438,0.338l0.824,0.169l0.84,0.16
		l0.511,0.458l0.229,0.37l0.173,0.852l0.108,1.021l0.467,1.013l0.562,0.73l1.077,0.853l1.021,0.836l0.298,0.707l0.137,1.592
		l-0.156,1.028l-0.182,0.996l-1.017,3.11l-0.249,0.988l0.032,1.487l0.173,0.979l0.354,1.013l0.627,0.812l0.848,0.578l1.061,0.611
		l1.146,0.377l1.201,0.338h1.178l1.125-0.04l0.94,0.217l0.582,0.289l0.511,0.555l0.213,1.165l-0.032,1.102l0.076,0.723l0.37,0.885
		l0.559,0.698l0.973,0.885l1.39,0.932l1.109,0.756l0.808,0.659l0.446,0.643l0.361,0.852l0.51,1.351l0.84,1.229l0.82,1.028
		l0.924,0.908l1.068,0.643l0.173-0.168l0.174-0.089l0.394-0.089l0.51-0.12l0.471-0.12l0.51-0.37l0.173-0.04l0.519-0.072l0.848-0.289
		l0.747-0.427l1.499-0.747l0.808-0.53l0.977-0.554l0.703-0.476l0.655-0.385l1.277-0.395l1.366-0.481l1.298-0.515l0.72-0.354
		l0.542-0.266l0.378-0.353l0.181-0.282l0.289-0.354l0.647-0.354l0.94-0.562l0.936-0.562l0.712-0.498l0.526-0.475l0.418-0.241
		l0.51-0.168l1.138-0.322l0.888-0.32l0.888-0.387l0.856-0.434l0.948-0.644l1.117-0.947l1.076-1.062l0.784-0.787l1.108-1.013
		l1.178-0.884l0.791-0.498l0.707-0.354l1.468-0.506l0.88-0.354l1.511-0.465l1.237-0.281l1.258-0.394l1.655-0.531l0.747-0.169
		l1.274-0.321l1.27-0.354L5.551,99.6l0.699-0.209l0.551-0.764l0.932-1.229l1.061-0.925l1.957-1.751l0.868-0.98l0.707-0.868
		l0.64-0.779l0.643-0.506l0.848-0.772l0.768-0.739l0.482-0.562l0.225-0.515l0.222-0.458l0.213-0.466l0.51-0.562l1.78-1.961
		l0.755-1.133l0.173-0.361l-0.089-0.402l-0.176-0.249l-0.221-0.354l-0.017-0.306l0.221-0.354l0.996-1.028l1.062-1.133l0.884-0.482
		l0.724-0.258l0.643-0.12l0.526,0.04l0.724,0.346l0.968,0.507l0.659,0.458l1.021,0.288l1.326,0.233l0.956-0.056l0.491-0.113
		l0.281-0.265l0.353-0.458l0.169-0.667l0.129-0.853l-0.129-0.859l-0.032-1.486l0.177-1.214l0.354-0.716l0.562-1.542l0.554-1.029
		l1.423-1.148l1.583-1.23l1.888-1.398l2.234-1.471l3.448-2.024l3.527-1.615l3.593-1.414l2.854-0.796l1.51-0.273l2.227-0.266
		l3.528-0.867l1.197-0.507l1.647-1.045l1.543-0.796l1.302-0.675l2.604-1.053l1.446-0.723l1.432-0.636l0.771-0.666l1.302-0.731
		l1.439-0.731l2.226-1.053l2.571-1.254l2.089-0.787l1.6-0.684l2.09-0.94l1.197-0.426l1.166-0.121l0.377,0.041l-0.176-0.659
		l-0.13-0.667l-0.008-0.313l0.507-0.281l0.859-0.145l0.257-0.064l1.166,0.064l2.121,0.097l1.688-0.032l1.295-0.112l0.57-0.105
		l0.24-0.265l0.169-0.354l0.032-0.466l0.186-0.716l0.16-0.361l0.297-0.313l0.845-0.33l1.672-0.658l1.044-0.193l0.578,0.129
		l0.313,0.209l0.33,0.45l0.498,0.53l0.435,0.201l0.441,0.08l0.49-0.057l0.37-0.177l0.474-0.546l0.507-1.037l0.466-0.53l0.354-0.547
		l0.257-0.401l0.241-0.226l0.724-0.24l1.125-0.105l0.804,0.025l0.547,0.023l0.256,0.354l0.515,1.021l0.242,1.6l0.595,0.972
		l0.264,0.395l0.387,0.345l0.377,0.482l0.274,0.41l0.515,0.169l0.208,0.49l0.499,0.475l0.883,0.305l1.495-0.032l1.061-0.169
		l0.37-0.272l0.145-0.675l0.378-1.704l0.032-1.068l0.169-0.531l0.257-0.272l-0.064-0.354l-0.129-0.225l-0.128-0.442l-0.017-0.41
		l0.177-0.618l0.112-0.409l-0.016-0.306l-0.177-0.507l-0.016-0.297l0.169-0.273l0.305-0.104l0.555-0.146l0.442,0.032l0.169,0.805
		l0.016,2.233l0.017,0.94l0.192,0.201h0.386l0.506-0.321l1.229-0.691l0.547-0.458l0.241-0.41l0.241-0.627l0.354-0.715l0.354-0.458
		l0.418-0.273l0.506-0.104l0.378-0.177l0.177-0.226l-0.016-0.321l-0.201-0.394l-0.322-0.354l0.169-0.273l0.193-0.169l0.386-0.096
		l0.418,0.128l1.703,0.458l0.997,0.024l0.787,0.121l0.394,0.272l0.322,0.387h0.426l0.361-0.186l0.37-0.361l0.474-0.418l0.707-0.387
		l0.731-0.465l0.57-0.226l0.547-0.072l0.885-0.145l0.562-0.145l0.481-0.186l0.515-0.28l1.173-0.779l1.704-1.23l0.852-0.739
		l1.237-0.731l1.222-0.61l0.933-0.152l0.948,0.071l0.948,0.178l0.57,0.12l0.37-0.104l0.152-0.266l-0.032-0.281l-0.168-0.226
		l0.168-0.266l0.258-0.272l0.482-0.137l0.506-0.017h0.441l0.627,0.121l0.37-0.104l0.186-0.218l0.184-0.313l0.322-0.184l0.401-0.098
		l0.756,0.032l0.746,0.137l1.215,0.322l0.996,0.482l0.691,0.257l0.562-0.048l0.378-0.153l0.361-0.233l0.298-0.305l0.297-0.699
		l0.192-0.266l0.306-0.266l0.676-0.192l0.69-0.009l0.482,0.032l0.209,0.138l0.048,0.409l0.209,0.402l0.258,0.217l0.377,0.08
		l0.925-0.329l1.35-0.506l-0.965-0.675l-1.108-0.989l-0.515-0.056l-0.273-0.073l-0.257-0.201l-0.418-0.489l-0.354-0.587
		l-0.177-0.675l0.024-0.708l0.08-0.787l-0.121-0.804l-0.562-1.262l-0.497-1.262l-0.322-0.779l0.032-0.804l0.064-0.853l0.257-0.892
		l0.321-0.603l0.402-0.683l0.369-0.362l-0.008-0.321l-0.104-0.386l-0.289-0.49l-0.515-0.458l-0.965-0.539l-0.723-0.346l-1.302-0.329
		l-0.515-0.273l-0.867-0.555l-0.724-0.691l-1.157-1.849l-0.579-0.659l-0.675-1.084l-0.828-1.214l-0.859-0.546l-1.606-0.675
		l-2.228-0.884l-1.583-0.916l-0.979-0.418l-0.997-0.281l-0.956-0.113l-1.229-0.233l-1.262-0.426l-1.334-0.659l-0.86-0.635
		l-0.69-0.731l-0.186-0.507l0.089-0.45l0.097-0.546v-0.297l-0.209-0.266l-0.467-0.337l-0.707-0.145l-2.178-0.297l-0.627-0.104
		l-0.522-0.217l-1.141-0.763l-1.205-1.085l-0.13-0.458l-0.016-0.321l-0.017-0.378l-0.185-0.217l-0.506-0.153l-0.716-0.169
		l-0.506-0.514l-0.555-1.206l-0.217-0.771v-1.88l0.048-2.218l0.017-0.708l0.354-2.821l-0.048-3.238l-0.178-0.362v-0.41l0.162-0.401
		l0.231-0.507l0.298-0.354l0.731-0.739l0.828-0.804l0.578-0.619l0.507-0.747l0.377-0.78l0.073-0.418l0.137-0.514l0.016-0.539
		l-0.265-0.699l-0.226-0.555l-0.233-0.249l-0.305-0.209l-0.644-0.282l-1.222-0.265l-1.189-0.112l-1.72-0.305l-1.382-0.169
		l-1.205-0.177l-1.158-0.145l-1.309-0.12l-1.183-0.193l-1.446-0.426l-1.64-0.723l-2.555-1.278l-1.375-0.788l-1.197-0.988
		l-0.948-0.828l-0.819-0.707l-0.474-0.491l-0.274-0.499l-0.016-0.482l0.048-0.546l0.178-0.603l0.056-1.029l-0.017-0.506l0.025-0.33
		l-0.186-0.394l-0.37-0.466l-0.257-0.37l-0.048-0.394l-0.177-0.426l0.008-0.305l0.152-0.177l0.177-0.233l0.129-0.273l-0.04-0.394
		l-0.097-0.37l-0.312-0.426l-0.451-0.466l-0.506-0.33l-0.908-0.506l-1.463-0.691l-1.157-0.338l-1.784-0.385l-3.286-0.86
		l-1.551-0.385l-0.772-0.451l-0.474-0.41l-0.86-0.9l-0.61-0.683l-0.836-0.82l-0.409-0.361l-0.491-0.266l-0.691-0.233l-0.852-0.281
		l-0.514-0.322l-0.289-0.321l-0.482-0.53l-0.458-0.675l-0.169-0.627l-0.097-0.715l-0.08-1.246l-0.241-0.876l-0.595-1.704
		l-1.149-2.331l-0.859-1.43l-0.724-0.949l-0.354-0.49l-0.169-0.37l-0.049-0.257l0.201-0.354l0.37-0.53l0.41-0.699l0.249-0.522
		l0.289-0.715l0.112-0.482l-0.097-0.539l-0.168-0.49l-0.427-0.586l-1.092-0.595l-0.908-0.466l-0.579-0.225l-1.889-0.683
		l-2.716-1.198l-0.579,0.723l-0.258,0.643l-0.24,0.386l-0.305,0.217l-0.37,0.145l-0.506,0.088l-0.508-0.032l-0.803-0.145
		l-0.467-0.216l-0.835-0.716l-0.86-0.771l-0.627-0.82l-1.213-1.825l-0.853-1.808l-0.771-1.679l-0.651-0.764l-0.658-0.675
		l-0.996-0.916l-1.021-0.45l-1.544-0.539l-1.229-0.474l-0.796-0.265l-0.562-0.466l-0.29-0.522l-0.24-0.868l-0.017-0.546l0.169-0.731
		l0.201-0.932l-0.065-0.458l-0.288-0.643l-0.37-0.49l-0.064-0.322l0.096-0.273l-0.417-0.072h-0.201l-0.152,0.048l-0.177,0.057
		l-0.097,0.233l-0.137,0.185l-0.217,0.168l-0.305,0.017l-0.354-0.033l-0.249-0.08l-0.169-0.266l-0.272-0.546l-0.307-0.338
		l-0.514-0.056l-0.289,0.177l-0.088,0.177l-0.169,0.579l-0.112,0.45l-0.178,0.37l-0.112,0.418l-0.064,0.321l-0.305,0.924
		l-0.796,1.462l-0.571,1.029l-0.723,0.924l-0.506,0.804l-0.748,0.796l-1.213,1.221l-0.893,0.916l-0.386,0.539l-0.272,0.643
		l-0.13,0.844l0.033,0.506l-0.024,0.546l-0.186,0.378l-0.16,0.281l-0.192,0.16l-0.226,0.04l-0.611,0.016l-0.803-0.024l-0.555,0.129
		l-0.427,0.136l-0.513,0.217l-0.451,0.37l-0.361,0.442l-0.507,0.619l-0.739,0.675l-0.812,0.538l-0.86,0.547l-0.369,0.128
		l-0.707,0.386l-1.383,0.611l-0.827,0.337l-0.507,0.306l-0.249,0.265l-0.305,0.538l-0.322,0.555l-0.232,0.354l-0.209,0.121
		l-0.369,0.145l-0.644,0.048l-0.868-0.064l-1.148-0.096l-0.475,0.04L31.5-71.816l-0.232,0.081l-0.636,0.385l-0.595,0.531
		l-0.401,0.313l-0.885,0.739l-1.397,1.487l-1.062,1.173l-0.819,0.763l-0.943,0.619l-1.077,0.603l-1.23,0.458l-0.992,0.241
		l-1.419,0.281h-1.346l-1.827-0.152l-0.651-0.032l-0.426-0.016l-0.704,0.185l-0.968,0.595l-1.969,1.527l-1.784,1.197l-1.515,0.892
		l-1.153,0.828L6.753-58.58l-0.511,0.185l-1.069,0.241l-1.185,0.176l-0.667,0.241l-1.186,0.209L0.251-57.35l-1.627,0.321
		l-2.307,0.499l-1.523,0.723l-1.406,0.627l-1.093,0.361l-1.374,0.346l-1.435,0.112l-1.841,0.16l-1.217,0.113l-0.017,1.174
		l-1.317,0.185l-2.881,0.691l-2.85,0.715l-1.824,0.571l-0.519,0.201l-0.526,0.273l-0.422,0.306l-0.204,0.33l-0.173,0.466
		l-0.165,0.498l-0.27,0.563l-0.177,0.466l-0.188,0.426l-0.181,0.169l-0.262,0.145l-0.297,0.04l-0.262-0.088l-0.265-0.193
		l-0.101-0.257l-0.121-0.844l-0.141-0.522l-0.196-0.12l-0.197-0.024l-0.578,0.072l-1.925,0.346l-1.25,0.225l-1.294,0.273
		l-0.574,0.104l-0.768,0.217l-0.566,0.346l-1.138,0.779l-0.984,0.683l-1.366,0.876l-1.547,0.892l-1.064,0.603l-1.548,0.884
		l-1.374,0.755l-0.855,0.539l-0.779,0.547l-0.463,0.136l-0.485,0.008l-0.647-0.08l-0.619-0.176l-0.272-0.025l-0.33,0.153
		l-0.253,0.499l-0.369,0.562l-0.511,0.466l-0.479,0.217l-1.414,0.546l-1.828,0.619l-2.648,0.587l-1.695,0.241l-1.005-0.041
		l-1.365-0.169l-1.077,0.081l-0.619,0.16l-0.691,0.378l-1.302,0.78l-1.241,0.659l-0.848,0.112l-0.772-0.208l-0.595-0.306
		l-0.261-0.418l-0.156-0.651l-0.117-0.98l-0.478-0.94l-0.45-0.651l-0.502-0.281l-0.752-0.144l-0.88-0.073l-1.157,0.386l-1.993,0.466
		L-74.881-38.015"/>
</g>
<g id="Layer_1_1_">
</g>
</svg>
