<?xml version="1.0" encoding="utf-8"?>
<!-- Generator: Adobe Illustrator 16.0.4, SVG Export Plug-In . SVG Version: 6.00 Build 0)  -->
<!DOCTYPE svg PUBLIC "-//W3C//DTD SVG 1.1//EN" "http://www.w3.org/Graphics/SVG/1.1/DTD/svg11.dtd">
<svg version="1.1" id="Layer_1" xmlns="http://www.w3.org/2000/svg" xmlns:xlink="http://www.w3.org/1999/xlink" x="0px" y="0px"
	 width="301.845px" height="301.717px" viewBox="-121.5 -121.694 301.845 301.717"
	 style="enable-background:new -121.5 -121.694 301.845 301.717;" xml:space="preserve">
<g id="Layer_24">
	<path id="Bolan" style="fill:#CCCCCC;stroke:#FFFFFF;stroke-width:1.15;" d="M-113.669-16.617L-113.669-16.617l1.247-0.199
		l1.165-0.218l1.423,0.218l1.034,0.109l1.812,0.557l2.33,0.775l2.203,0.333l1.165-0.109l1.038-0.229h0.772l0.773,0.109l1.558,0.328
		l1.423,0.108l1.553-0.328l1.553-0.322h0.777l1.166,0.224l1.164,0.328l1.938,0.447h1.427l1.685-0.229l1.938-0.547l2.462-1.019
		l4.01-2.146l2.073-1.147l1.813-0.447l1.163,0.109l0.907,0.224l0.772,0.795l0.646,0.904v0.79l0.13,0.681l0.771,0.914l0.389,0.904
		l-0.13,0.795l-0.385,1.004l0.126,1.699l0.452,3.468l1.422,4.074l2.71,3.955l1.942,1.873l0.637,0.61l5.042,2.843l3.617,2.026
		l3.099,0.925l1.165,0.779l1.16,1.247l0.256,0.91l-0.01,5.088v2.379l1.154,3.617l0.642,2.156l0.311,2.941l0.208,2.018l1.536,5.882
		l0.377,4.859l0.636,5.997l-0.528,6.46l-1.044,4.531l-1.299,3.943l-1.556,2.698l-1.806,2.256l-2.864,1.913l-1.94,1.694l-2.06,2.146
		l-2.325,3.065l-2.064,4.75l-1.553,4.174l-1.423,4.63l-1.802,3.847l-2.066,4.978l-1.16,3.056l-0.904,3.289l-0.484,2.901
		l-1.287,3.955l-0.906,2.937l-1.16,2.703l-2.06,2.604l-1.675,2.38l-2.06,1.59l-1.416,0.904l-0.511-0.229v-0.448l0.258-0.681
		l-0.132-0.472l-0.388-0.229l-1.413-0.104l-0.713,0.104l-2.438,1.561l-1.846,1.923l-2.348,2.807l-2.517,4.129l-0.84,2.654
		l-0.499,3.542l2.015,7.233l0.336,5.183l-0.035,0.79l4.034,1.689l1.108,0.368l1.498,0.338l2.486,0.446l3.831,0.229l0.772,0.169
		l1.712-0.029l1.86-0.278l1.807-0.558l1.088-0.342l0.871-0.651l0.753-0.779l0.477-0.746l0.704-0.581l1.093-0.521l1.863-0.518
		l0.874-0.263l1.094-0.457l1.582-0.8l2.457-1.058l3.165-1.268l3.048-1.163l1.64-0.616l0.65-0.491l1.414-0.845l1.538-0.412
		l1.485-0.03l1.495,0.313l1.443,0.605l1.675,0.949l1.398,1.144l1.363,2.066l1.2,2.116l0.577,1.152l0.787,0.766l1.115,0.8
		l1.384,0.368l1.155,0.029l0.937-0.258l0.763-0.349l0.481-0.531l0.631-1.521l0.408-1.753l0.127-1.949l0.086-1.261l0.067-2.177
		l-0.407-1.992l-0.311-1.888l-0.275-2.45l0.24-2.037l0.413-1.609l0.839-2.439l0.569-1.709l0.534-0.835l0.921-0.935l1.245-1.231
		l0.927-0.686l1.419-0.806l2.193-0.526l1.324-0.02l0.665,0.119l0.393,0.378l0.239,0.964l-0.035,1.113l-0.199,1.221l-0.102,0.677
		l0.229,0.437l0.559,0.323l1.089,0.02l1.212-0.104l2.301-0.814l3.778-1.312l3.455-1.023l2.147-0.269l1.436-0.109l3.143,0.139
		l2.927,0.155h0.015l2.747,0.337l2.549,0.706l2.946,1.203l1.725,1.052l0.782,0.667l0.174,0.486l-0.04,0.592l-0.636,0.561
		l-1.192,1.218l-1.413,1.028l-1.689,1.178l-1.302,1.148l-0.529,1.261l-0.254,1.163l-0.144,1.321l0.479,2.018l0.864,2.227l1.48,2.692
		l2.146,2.673l0.737,1.054l1.623,1.539l1.232,1.377l1.019,1.629l0.529,1.805l0.427,2.27l0.365,2.366l0.814,2.514l1.379,3.035
		l1.118,4.254l1.262,3.001l0.058,0.238l2.121-1.053l2.224-0.741l1.967-0.108l2.51-0.105l2.066-0.079l1.799,0.149l1.59,0.188
		l1.55,0.616l1.829,0.959l1.262,0.248l1.123-0.277l0.586-0.796l0.766-2.28l0.457-1.168l0.845-1.252l1.386-1.355l0.269-0.492
		l-0.01-0.482l-0.239-0.308l-0.362-0.188l-2.106-0.939l-1.783-0.944l-0.885-0.7l-0.199-0.582l-0.021-0.521l0.83-1.779l0.825-0.894
		l1.083-0.983l1.934-1.039l2.021-1.336l1.063-1.382l1.365-2.181l0.716-1.252l1.481-2.648l2.246-3.712l3.686-4.898l1.585-1.585
		l0.994-0.746l0.944-0.417l0.715-0.02l0.557,0.417l0.109,0.915l0.079,2.921l-0.546,4.651l0.03,4.461l-0.101,2.196l0.18,0.745
		l0.288,0.615l0.368,0.27l0.725,0.223l0.745,0.025l0.526-0.02l0.845-0.134l0.835-0.566l1.321-0.836l1.57-0.531l1.784-0.686
		l1.316-0.74l1.778-0.994l0.993-0.854l0.741-0.854l0.238-0.96v-2.226l-0.095-0.915l-0.446-1.152l-1.113-2.017l-0.636-1.591
		l0.03-1.405l1.43,0.114l1.432-0.09l2.594-0.318l4.133-0.844l2.604-0.974l1.591-0.865l2.007-0.457l2.584-1.062l3.14-1.64
		l4.591-2.439l2.614-1.253l3.278-1.645l3.984-1.585l2.296-0.675l2.524-0.751l2.604-0.919l1.231-0.79l0.696-0.999l0.725-2.136
		l0.89-3.284l0.874-2.659l0.864-2.454l0.677-1.933l0.557-2.072l0.01-0.744l-0.22-0.477l-0.929-0.289l-1.759-0.338l-1.987-0.348
		l-1.44-0.959l-0.526-0.874l0.089-0.473l0.537-0.745l1.539-0.934l1.163-0.865l1.073-0.983l0.865-1.471l0.477-1.004l0.387-0.74
		l0.711-0.531l1.585-0.313l3.22-0.636l4.084-1.511l4.591-2.026l3.31-2.316l2.772-1.986l3.348-2.494l2.704-1.998l0.477-0.477
		L152,80.128l-0.705-1.251l-0.696-0.874l-1.033-0.96l-0.864-1.242l-0.964-1.55l-2.534-3.677l-3.149-3.796l-1.63-1.754l-1.645-1.823
		l-2.161-2.116l-2.013-2.107l-1.803-1.669l-1.481-1.907l-0.637-1.839l-0.104-1.033l-0.04-1.789l0.114-2.296l1.034-2.544l1.072-1.371
		l1.501-0.974l0.745-0.159l1.441-0.02l1.609,0.188l2.981,0.974l3.069,1.377l4.006,1.183l2.98,0.834l4.412,0.468l3.22,0.237
		l2.703,0.041l3.279-0.199l3.061-0.417l2.692-0.323l1.947-0.825l1.302-0.8l0.711-0.7h-1.431l-2.888-0.502l-3.129-0.517l-2.286-0.518
		l-3.199-1.166l-3.727-1.521l-3.438-1.242l-2.595-1.103l-2.841-1.282l-4.735-2.013l-4.333-2.604l-4.953-3.198l-4.631-2.862
		l-3.721-2.718l-3.567-2.653l-2.823-1.426l-2.702-1.6l-1.897-1.615l-3.096-2.311l-2.285-1.371l-1.054-1.014l-1.868,1.804
		l-3.021,1.252l-2.742,1.432l-3.915,1.907l-3.205,0.935l-1.352,0.208l-3.119-0.681l-2.157-1.227l-1.889-0.899l-1.5-0.959
		l-1.888-0.795L81.03,14.53l-1.918-0.119l-2.285-0.229l-1.411-0.79l-1.799-0.89l-1.868-0.969l-1.053-0.104l-2.325,0.526
		l-0.199,0.104l-1.57,0.706l-1.48,1.376l-3.881,3.767l-2.07,1.868l-2.902,1.167l-2.614,0.602l-3.651-0.01l-4.774-0.354l-0.656-0.531
		l0.03-0.835l0.695-0.819l0.89-0.811l0.711-1.162l0.646-2.018l0.134-1.247l-0.491-2.698L46.51,7.907l-0.269-3.712l-0.834-3.632
		L44.22-1.051l-2.44-1.645l-3.607-1.361l-3.433-0.686l-1.898-0.726l-1.122-0.874l-0.455-0.846l-0.152-1.262l0.525-1.252l0.277-1.252
		l-0.721-2.763l-1.164-4.153l-0.229-1.779l0.055-1.769l0.052-1.669L29.749-24.1l-0.534-1.272l-1.126-0.959l-1.03-0.779l-0.552-0.939
		l0.032-0.934l-0.037-1.839l0.032-0.938l-0.718-1.699l-0.922-1.272l-2.177-1.228l-1.619-0.462l-1.443,0.055l-3.287,0.582
		l-2.213-0.055l-1.228-0.721l-0.85-0.438l-0.671-0.01l-0.686,0.397l-0.988,0.815L8.558-35.06l-0.67-0.104l-0.566-0.269l-0.828-1.123
		l-0.916-1.6l-0.733-1.282l-0.039-1.769l-0.806-1.958L3.48-44.167L2.266-45.36l-1.908-0.637l-1.532-0.298l-0.947-0.526l-2.079-1.317
		l-1.416-0.879l-1.672-0.219l-2.261-0.303l-4.33-0.109l-2.985,0.109l-1.332-0.452l-0.946-0.602l-2.397-0.312l-1.617-0.626
		l-1.121-1.298l-1.117-1.117l-0.718-1.863l-0.845-0.69l-1.334-0.447l-1.337-0.457l-1.603-1.133l-1.023-1.382l-1.072-2.702
		l-0.815-1.794l-0.487-3.199l0.075-2.524l-0.706-2.28l-0.148-1.511l-0.06-2.017l-0.428-2.013l-0.979-2.797l-1.17-2.808l-1.449-3.135
		l-1.196-2.013l-1.76-2.563l-1.12-1.376l-0.723-1.789l-1.575-2.226l-1.004-1.868l-1.897-1.133l-3.054-1.411l-5.172-1.382
		l-3.222-1.043l-2.914,1.178l-1.971,0.393l-1.229,0.611l-1.63,0.069l-1.093-0.104l-1.014-0.353l-0.66-0.532l-0.793-2.956
		l-0.743-2.018l-0.774-0.983l-1.297-0.507l-0.981,0.288l-0.795,0.338l-0.497,0.895l0.214,2.206l-0.504,0.805l-0.875,0.517
		l-1.091-0.034l-1.209-0.666l-1.121-0.571l-0.604-1.173l-0.184-1.321l-0.835-1.858l-1.17-1.53l-1.271-1.68l-1.414-1.122
		l-1.878-1.173l-1.028-0.517l-0.812,0.039l-1.081,0.194l-0.956,0.681l0.077,1.342l-0.127,0.954l-0.539,0.108l-0.825-0.06
		l-1.389-0.646l-1.067-1.292l-0.875-1.153l-1.135-0.814l-0.825-0.119l-0.986,0.119l-1.436,0.214l-2.961,1.267l-2.346,1.759
		l-2.972,1.849l-1.922,1.272l-1.638,1.331l-1.558,1.332l-0.626,1.773l0.087,1.49l0.621,1.377l0.929,2.017l0.994,1.595l0.957,2.484
		l1.164,3.021l0.803,3.046l0.557,6.345l0.507,5.809l0.576,2.186l0.808,1.556l0.738,1.788l0.523,1.237l1.223,0.89l1.744,0.487
		l0.866,0.919l0.619,1.376l0.423,1.083l0.765,0.75l1.379,0.407l1.749,0.547l1.679,0.959l2.412,1.163l2.935,0.824l2.8,1.282
		l1.14,1.054l1.068,1.381l1.485,0.735l1.54,0.1l0.729,0.05l0.457,0.129l0.022,0.388l-0.058,0.636l-1.058,2.087l-1.72,1.579
		l-2.879,1.784l-3.262,1.48l-2.355,1.437l-1.558,1.242l-1.53,1.629l-0.745,1.292l-1.058,2.018l-1.104,1.222l-0.52,2.053l0.154,4.342
		l-0.193,1.416l-1.009,1.377l-2.03,1.59l-0.509,0.551l-2.268,1.282l-1.841,0.959l-1.369,1.321l-3.816,2.614l-1.373,1.167
		l-0.566,1.188l-0.127,0.889L-113.669-16.617"/>
</g>
<g id="Layer_1_1_">
</g>
</svg>
