<?xml version="1.0" encoding="utf-8"?>
<!-- Generator: Adobe Illustrator 16.0.4, SVG Export Plug-In . SVG Version: 6.00 Build 0)  -->
<!DOCTYPE svg PUBLIC "-//W3C//DTD SVG 1.1//EN" "http://www.w3.org/Graphics/SVG/1.1/DTD/svg11.dtd">
<svg version="1.1" id="Layer_1" xmlns="http://www.w3.org/2000/svg" xmlns:xlink="http://www.w3.org/1999/xlink" x="0px" y="0px"
	 width="301.104px" height="550.245px" viewBox="-134.798 -246.646 301.104 550.245"
	 style="enable-background:new -134.798 -246.646 301.104 550.245;" xml:space="preserve">
<g id="Layer_48">
	<path id="Hyderabad" style="fill:#CCCCCC;stroke:#FFFFFF;stroke-width:1.15;" d="M-86.487,81.119L-86.487,81.119l0.047,0.373
		l-0.075,0.782l-0.489,2.338l-0.531,1.594l-0.829,2.067l-0.745,1.881l-0.382,1.248l-0.792,1.481l-0.908,1.462l-0.876,1.211
		l-0.917,0.941l-0.75,1.09l-0.853,1.267l-0.4,0.614l-0.112,0.513l0.018,0.568l0.075,0.605l0.438,0.717l0.754,0.783l1.593,1.396
		l0.889,0.699l0.895,0.996l0.946,0.988l0.563,0.855l0.638,0.597l1.146,1.053l0.591,0.651l0.582,0.802l0.075,0.178l-1.001,2.179
		l-1.01,2.328l-0.676,1.641l-0.661,2.151l-0.666,1.741l-0.028,0.876l0.284,1.388l1.262,1.388l2.114,1.211l1.975,2.18l1.029,1.677
		l0.592,1.267l0.07,1.564l0.377,2.329l0.596,3.326l-0.182,1.797l-0.652,2.124l-1.984,2.682l-0.913,1.248l-1.071,1.332l-0.638,0.513
		l-1.183,0.233l-4.587-0.084l-8.611-0.614l-4.075,0.036l-2.166-0.056l-0.96,0.111l-1.192,0.606l-0.764,0.586l-0.652,0.773
		l-0.456,1.025l-0.229,0.885l-0.019,0.987l-1.229,2.589l-1.537,1.9l-0.582,1.919l-0.745,3.381l-0.82,2.972l-0.503,3.596
		l-0.974,3.688l-0.717,4.48l-0.256,2.915l-0.028,1.546l-0.517,3.009l-0.238,2.282l-0.2,2.72l-0.219,3.093l0.14,1.658l0.07,1.211
		l-0.153,1.797l0.046,1.016l0.229,1.341l0.088,1.091l0.201,1.276l0.237,0.651l2.632,0.623l3.083,0.662l1.564,0.913l1.393,1.286
		l0.913,1.489l0.754,1.611l0.428,1.611l0.88,1.891l1.458,2.228l1.993,2.058l1.346,1.305l0.494,0.251l1.234,1.137l1.351,1.527
		l0.633,0.932l0.238,0.764l-0.042,1.043l-0.196,1.128l-0.615,1.191l-0.875,0.923l-0.992,0.465l-1.118,0.243l-1.294,0.037
		l-2.003,0.093l-1.011,0.205l-1.844,0.754l-1.249,1.016l-0.419,1.006l-0.363,1.322l-0.047,0.504v0.652l0.792,1.462l0.392,1.313
		l-0.038,0.727l-0.046,0.913l-0.364,0.875l-0.726,0.727l-1.03,0.643l-2.203,0.866l-1.756,0.838l-1.9,0.997l-0.368,0.41l-0.117,0.624
		l0.154,0.605l0.438,0.717l0.717,0.317l0.913,0.587l0.992,0.838l1.281,1.22l0.987,1.007l0.392,0.884l-0.01,1.705l-0.14,4.275
		l0.075,1.723l0.447,1.156l0.191,0.325l0.642,1.313l0.629,0.727l0.647,0.41l1.63,0.325l1.793,0.373l1.336,0.195l0.945,0.624
		l0.592,0.69l0.512,1.015v1.062l-0.13,1.752l-0.4,1.527l-0.652,1.127l-0.521,1.351v0.484l0.41,0.894l0.75,0.671l0.68,0.577
		l0.955,0.373l1.393,0.484l1.355,0.41l1.593,0.596l1.993,0.634l1.649,0.782l2.049,1.136l1.672,1.165l1.593,1.22l0.992,1.091
		l1.43,1.275l1.156,0.912l0.95,0.56l0.591,0.597l0.135,0.633l0.391,0.95l0.201,0.597l0.2,1.556l0.466,2.132l0.135,0.839l0.382,0.782
		l0.275,0.895l3.102-1.695l1.192-1.359l1.755-1.621l2.585-1.994l2.268-1.881l3.358-2.105l1.956-1.229l1.793-0.727l1.165-0.186
		l0.992,0.298l0.964-0.205l0.438-0.373l0.992-0.876l0.745-0.083l0.95,0.307l1.48,0.597l1.267,0.205l1.718-0.262l1.504-0.567
		l1.183-0.476l0.661-0.856l0.201-0.876l-0.382-1.788l-0.07-1.825l0.372-2.534l2.72-3.911l2.52-3.261l0.955-2.198l-0.307-0.597
		l-1.02-1.676l-0.2-1.286l0.2-0.651l0.754-0.262l0.629,0.01l0.736,0.689l1.569,1.071l1.416,1.584l0.731,0.596l0.862-0.242
		l0.992-0.765l0.447-0.875l0.447-0.987l0.857-0.484l1.081-0.354l0.544-0.373l0.447-1.053l0.056-1.164l0.465-0.969l0.433-0.204
		l0.75-0.262l1.034-0.466l0.219-0.391l0.018-0.764l-0.507-1.454l-0.274-1.378l0.591-2.329l0.591-0.643l0.601-0.195l0.438,0.279
		l0.41,0.689l-0.037,1.546l0.247,2.152l1.127,1.686l1.877,1.695l1.365,1.1h0.563l0.554-0.373l0.209-0.662l-0.089-1.834l0.251-1.435
		l0.992-1.751l0.922-1.137l1.802-1.229l1.318-0.959l1.392-1.127l0.773-1.258l0.457-1.053l0.438-0.476l0.862-0.372l0.638,0.121
		l1.048,0.522l3.376,1.619l1.481,0.317l2.566-0.168l3.651-0.205l2.212,0.056l0.746,0.299l0.722,0.671L3.897,248l0.81,1.556
		l0.717,0.995l0.96,0.317l1.183-0.643l2.599-1.332l1.611-0.727l5.599-2.655l4.844-1.937l3.986-1.667l1.834-0.56l2.348-0.568
		l1.723-0.344l1.184-0.243l0.855-0.586l0.672-0.979l0.131-0.895l-0.186-1.154l-0.729-0.895l-2.215-0.838l-0.84-0.792l0.02-0.494
		l0.447-0.987l1.191-0.354l2.99-0.429l1.799-0.446l0.912-0.484l0.438-0.672l1.387-0.727l2.254-0.325l3.205-0.326l2.664,0.065
		l1.389,0.027l0.979,0.597l0.512,1.154l-0.037,1.454l-0.271,2.319l-0.502,3.083l-0.029,1.061l-0.018,0.588l0.521,0.587l0.623,0.205
		l1.455,0.148l4.582-0.103l2.217-0.177l1.908-0.429l0.234-0.597l0.205-0.865l0.986-0.587l0.727,0.596l0.512,0.671l0.289,1.286
		l0.168,1.825l0.094,0.903l0.559,0.494l1.025,0.027l1.191-0.466l2.795-1.192l1.117-0.447l2.002-0.754l2.152-1.146l0.559-0.586
		l0.01-0.597l-0.4-0.987l-1.557-1.583l-1.014-1.071l-2.441-1.352l-0.586-1.051l0.027-0.905l0.596-2.402l0.504-1.816l0.139-1.389
		l-0.512-0.986l-1.547-1.695l-1.023-1.854l-0.588-1.463l0.215-0.764l0.895-0.587l1.49-0.745l0.986-1.238l0.559-4.974l0.188-3.187
		l0.01-0.261l-0.393-1.378l-0.828-1.314l-0.838-0.586l-2.012-0.727l-5.197-1.379l-2.758-0.466l-3.055-1.341l-2.73-1.621
		l-2.402-2.282l-1.863-2.188l-0.811-1.564l-1.787-1.491l-2.424-1.396l-3.045-1.752l-1.891-0.987l-2.328-0.94l-1.688-0.82
		l-1.611-1.154l-0.744-0.409l-0.531,0.092l-0.232,0.494l-0.121,0.782l-0.027,1.044l-0.188,0.736l-0.457,0.27l-0.428-0.019
		l-0.857-0.02l-1.48-0.53l-1.137-0.802l-0.596-0.586l0.01-0.484l0.018-0.597l0.645-0.651l0.465-1.044l0.01-0.261l0.01-0.391
		l-0.318-0.205l-2.338-0.55l-1.463-0.587l-1.693-1.107l-0.941-0.997l-1.221-2.18l-1.244-2.18l-1.629-2.758l-2.296-2.272
		l-1.891-1.099l-2.329-0.932l-2.124-0.55l-2.454-0.326l-1.486-0.53l-2.082-2.115l-1.239-1.956l-0.103-0.577l0.209-0.484l0.638,0.01
		l1.868,0.428l2.175,0.159l2.157-0.335l3.129-1.212l3.242-1.788l4.243-3.111l2.295-1.788l1.797-1.342l2.713-1.397l3.584-2.253
		l3.475-2.842l3.383-2.636l3.381-2.962l0.996-1.024l0.232-1.117l-0.289-1.389l-0.512-0.68l-0.643-0.205l-0.848-0.02l-2.477,0.541
		l-2.479,0.839l-2.6,1.192l-2.486,1.107l-1.191,0.364L27.165,139l-0.838-0.204l-0.857-0.802l-1.137-1.08l-0.625-0.503l-0.846-0.205
		l-1.715-0.038l-0.74-0.204l-0.545-0.689l0.018-0.391l0.137-0.588l0.889-0.978l0.875-1.034l1.193-0.475l1.611-0.345l1.631-0.643
		l1.191-0.96l1.201-0.735l2.189-0.727l1.918-0.232l1.51-0.476l1.191-0.466l0.447-0.764l0.141-0.978l-0.391-1.463l0.213-0.484
		l0.447-0.597l0.539-0.195l1.176,0.121l1.285,0.158l0.875-0.372l1.322-0.644l1.211-0.744l1.723-0.745l1.5-0.224l1.938-0.335
		l2.795-0.56l3.354-1.071l2.514-1.332l0.262-1.248l-0.262-0.987l-0.725-0.689l-1.725-0.335l-1.174-0.298l-0.838-0.671l-0.104-0.596
		l0.02-0.877l0.652-0.586l0.875-0.475l2.479-0.606l2.59-0.819l2.244-1.332l2.84-1.993l1.426-2.012l1.668-2.385l1.025-2.59
		l0.035-1.434l0.225-0.624l-0.057-0.802l0.652-0.195l0.652,0.056l1.387,0.504l2.385,1.062l1.035,0.586l1.639,0.728l0.838,0.325
		l0.904,0.587l1.602,1.08l0.746,0.233l1.779,0.205l1.619,0.074l1.389,0.289l0.438,0.195l0.252,0.447l-0.141,0.819l-0.549,0.988
		l-0.549,0.987l-1.035,1.807l-0.092,0.652l-0.4,1.452l-0.111,1.453l-0.039,1.23l0.205,1.462l0.801,1.499l1.994,1.397l1.471,0.298
		l3.289-0.26l2.99-0.708l3.371-1.08l3.121-1.091l3.566-1.033l3.02-0.783l1.928-0.549l1.723-0.345l2.637,0.093l1.863,0.037
		l0.885-0.074l1.535-0.597l3.064-0.931l1.975-0.354l2.982-0.252l1.871-0.409l1.631-0.644l1.266-1.434l0.318-1.435l-0.111-1.379
		l-0.234-0.708l-0.662-1.731l-0.213-1.37l0.008-0.586l0.01-0.448l0.113-0.446l0.566-1.1l0.074-1.397l-0.24-0.67l-0.205-0.802
		l-0.037-0.782l0.203-0.577l0.447-0.131l1.119,0.681l1.117,1.22l1.201,1.034l0.699,0.177l1.268-0.019l1.283-0.587l2.125-1.191
		l2.58-1.687l1.676-0.764l1.295-0.279l1.816-0.112l0.941-0.187l0.875-0.577l0.588-0.727l1.164-1.825l1.023-1.137l1.25-0.969
		l0.139-0.168l0.586-0.633l0.205-0.652l0.578-1.211l1.268-1.043l3.111-1.249l2.971-0.986l0.094-4.35l0.195-0.624l-0.074-0.206
		l-0.16-0.316l-0.771-1.099l-0.504-1.528l0.02-0.986l-0.066-2.86l-0.084-2.739l-0.391-2.971l-0.354-2.31l-0.186-1.872l-0.084-2.869
		l0.158-4.928l-0.188-2.878l-0.223-2.953l-0.727-3.297l-0.895-2.516l-0.857-2.03l-1.453-3.04l-0.996-1.738l-1.799-2.976
		l-1.209-2.193l-1.1-2.109l-1.305-1.821l-1.174-1.295l-1.098-1.69l-0.857-0.992l-1.789-1.621l-2.18-2.128l-1.9-2.105l-1.443-2.328
		l-1.611-2.893L134.683,5L134.114,2.9l-1.582-3.679l-1.51-2.967l-1.193-3.777l-0.689-1.784l-0.279-1.946l-0.24-0.792l-0.328-3.413
		l-0.195-2.129l0.205-1.719l0.318-2.594l0.223-1.695l0.205-1.448l0.521-1.779l0.521-1.066l0.092-0.927l-0.055-0.987l0.168-1.081
		l0.371-1.42l0.066-2.432l0.363-1.993l0.307-1.812l0.215-1.443l0.447-1.584l0.41-0.838l0.205-0.857l-0.01-0.964l0.029-1.658
		l0.361-1.216l0.625-1.76l0.178-0.918l0.354-1.146l0.502-0.922l0.346-0.545l0.205-0.917l0.205-1.394l0.168-0.629l0.613-1.146
		l0.205-0.992l0.02-0.991l-0.279-2.375l-0.727-2.813l-0.895-2.44l-0.598-1.537l-0.633-0.801l-0.707-1.104l-2.021-3.912l-1.295-2.632
		l-1.621-2.673l-1.23-2.203l-0.818,0.992l-0.857,0.954l-0.596,0.718l-1.396,0.587l-0.457,0.107l-0.625-0.038l-0.801-0.517
		l-0.559-0.782l-0.885-0.886l-1.779-1.891l-1.49-1.448l-1.789-1.393l-1.826-1.564l-1.303-1.085l-1.92-1.393l-1.881-1.127
		l-1.621-0.992l-1.676-0.713l-1.807-0.89l-1.359-0.429l-1.92-0.727l-1.621-0.619l-1.742-0.475l-2.049-0.498l-2.049-0.419
		l-1.723-0.257l-1.389-0.126l-1.312,0.01l-1.641-0.01L84.3-96.04l-1.881-0.475l-1.51-0.592l-1.619-0.526l-1.92-0.992l-1.695-0.847
		l-1.389-0.518l-1.238-0.876l-1.844-0.563l-0.689-0.103l-0.41,0.066l-0.41,0.372l-0.539,0.829l-0.354,1.229l-0.598,1.946
		l-0.623,2.269l-0.252,1.271l-0.391,2.431l-0.588,1.849l-1.164,1.993l-0.65,1.053l-0.598,0.294l-0.949,0.088l-1.268-0.172
		l-1.387-0.592l-0.941-0.591l-1.268-0.592l-1.955-0.848l-1.92-1.016l-1.713-0.968l-1.863-1.025l0.521,0.992l0.494,1.919
		l-0.141,2.688l-0.242,1.336l-1.023,1.43l-1.211,1.271l-0.951,0.839l-0.986,0.466l-0.309,0.172l0.01,0.271l0.652,0.601l0.26,0.694
		l0.113,0.591l-0.447,0.718l-0.988,1.448l-1.342,2.185l-0.717,1.536l-0.26,1.048l-0.037,1.393l0.195,0.583l-0.541,0.875
		l-0.279,0.373l-0.781,0.2l-0.467-0.037l-0.195-0.02l-0.699-0.274l-1.043-1.1l-2.133-2.947l-1.555-1.677l-1.742-1.5l-1.389-0.475
		l-1.389-0.219l-2.281,0.093l-1.342,0.479l-0.932,0.312l-0.818-0.2l-0.438-0.992l-0.68-1.546l-0.41-0.568h-0.234l-0.287,0.2
		l-0.373,0.638l-0.205,0.801l-0.195,0.513l-0.68,0.232l-0.635-0.204l-1.434-1.388l-1.799-1.863l-2.807-2.851L15.345-84l-0.373-1.29
		l-0.037-0.856l-0.116-0.503l-0.307-0.07l-0.876,0.028l-0.708-0.047l-0.41-0.2l-0.2-0.429l-0.112-0.936l-0.345-0.62l-0.563-0.135
		l-1.593-0.2l-1.603-0.447l-1.857-1.066L3.668-93.11l-2.604-2.147l-0.889-0.218l-0.792,0.027l-0.782,0.21l-0.694,0.307l-0.555,0.294
		l-0.065,0.582l-0.153,0.526l-0.145,0.447l-0.303,0.266l-0.382,0.298l-0.708,0.229l-2.538-0.154l-2.296-0.14l-1.118-0.2
		l-0.028-0.582l0.037-0.946l0.298-0.544l0.694-0.382l1.071-0.541l0.484-0.19l0.298-0.015l0.591,0.518l0.312,0.135l0.592-0.028
		l0.298-0.517l0.856-0.312l1.076-0.555l0.992-1.174l1.109-1.364l0.502-1.793l-0.093-1.747l-0.983-2.04l-1.746-1.583l-2.976-1.438
		l-0.992-0.681l-0.028-0.429l0.438-1.229l0.48-2.231l0.219-3.236l-0.419-2.487l-1.308-2.604l-1.104-1.793l-0.354-0.945l0.112-1.51
		l-0.4-1.812l-0.521-0.693l-0.811-0.4l-1.681-0.447l-2.185-0.624l-3.088-0.294l-3.167-1.393l-3.814-1.509l-1.299-0.782l-0.792-0.885
		l-0.2-0.718l0.019-0.922l0.298-1.062l-0.307-1.202l-0.019-0.609l0.247-0.592l0.689-0.182l1.942-0.182l2.198-0.2l1.923-0.685
		l2.129-0.592l2.375-0.693l1.565-1.007l0.237-0.619l-0.019-0.703l-0.591-0.717l-1.691-0.583l-3.223-0.218l-3.47-0.392l-1.537-0.755
		l-1.192-1.075l-0.638-1.402l-0.4-1.192l-0.298-1.211l-0.591-0.87l-1.165-0.563l-1.276-0.657l-0.563-0.582l-0.513-1.593
		l-0.433-1.514l-0.038-1.364l-0.046-0.992l-0.564-0.871l-0.475-0.392l-0.345,0.01l-0.563,0.023l-0.857,0.922l-0.927,1.556
		l-0.885,0.591l-1.053,0.028l-1.411-0.2l-1.63-0.592l-2.087-0.819l-2.184-1.728l-1.574-1.793l-0.391-0.95l0.2-1.309l0.964-1.668
		l0.777-0.582l0.68-0.345l1.411-0.037l3.102-0.191l1.583-0.362l1.23-0.447l0.675-0.629l0.754-1.243l0.428-0.723l0.68-0.591
		l1.393-0.853l0.209-0.484l-0.019-0.727l-0.382-0.782l0.038-0.503l0.14-1.211l0.596-1.863l0.377-1.793l0.201-2.385l-0.201-1.383
		l-0.018-0.895l0.507-0.727l0.703-0.019l0.591-0.19l0.345-0.321l-0.019-0.401l-0.191-0.488l-0.592-0.392v-0.303l0.084-0.232
		l0.815-0.247l0.959-0.666l1.29-1.472l1.355-2.86l0.494-1.937l-0.056-1.202l-0.526-1.374l-0.111-0.619l0.255-0.409l0.592-0.201
		l0.927,0.275l0.694,0.214l0.801-0.2l0.247-0.414l-0.018-0.568l0.079-0.489l0.419-0.512l0.429-0.499l0.075-0.582l-0.475-1.02
		l-0.927-0.773l-0.713-0.2l-1.071-0.056l-0.331-0.08l-0.363-0.391l2.575-1.667l0.675-1.323l0.382-0.997l-0.018-0.53l-0.219-0.782
		l-0.457-1.011l0.038-0.308l0.037-0.284l0.265-0.209l0.718-0.336l1.909-0.954l1.15-0.745l1.546-0.587l1.528-0.671l1.64-0.718
		l0.992-0.605l0.363-0.186l0.601-0.057l1.839,0.154l0.871-0.116l0.992-0.196l1.896-0.764l1.346-0.782l0.312-0.382l0.251-0.68
		l-0.019-0.54l-0.145-0.429l-0.326-0.363l-0.964-0.126l-1.485,0.028l-0.675-0.2l-0.289-0.112l-0.209-0.461l-0.275-0.229h-1.392
		l-0.518-0.209l-0.247-0.419l-0.819-1.058l-1.174-0.671l-0.638-0.111l-0.452,0.182l-0.563,1.048l-0.331,1.458l-1.038,0.991
		l-1.481,0.801l-1.564,0.802l-1.393,0.572l-4.969,1.393l-4.206,0.718l-4.07,0.466l-4.038,0.372l-6.115,0.173l-2.124-0.117
		l-0.526-0.419l-0.475-0.484l-0.689-0.438l-0.181-0.643l-0.932-0.592l-1.393-2.059l-1.383-1.355l-1.318-1.173l-0.773-1.584
		l-0.028-0.885l-0.2-1.201l-0.284-0.629l-0.717,0.13l-0.591-0.229l-1.011-0.936l-1.639-0.992l-1.463-0.922l-1.858-0.838l-2.119-1.51
		l-0.992-1.336l-1.001-0.573l-2.347-0.982l-1.649-1.248l-0.619-0.694l-0.591-0.382h-0.345l-0.591,0.019l-2.813,1.211l-4.187,2.45
		l-4.271,2.864l-3.41,3.553l-3.432,3.875l-2.384,3.13l-2.431,4.252l-1.202,3.777l-1.001,2.272l-0.726,1.868l-0.364,2.319
		l-0.591,1.793l-0.438,0.167l-1.257-0.037l-1.947,0.163l-1.229,0.526l-1.383,1.075l-0.382,1.821l-0.209,1.645l-0.419,0.992
		l-0.344,0.167l-0.447,0.01l-0.727-0.457l-0.4-1.201l-0.256-0.703l-0.373-0.373l-0.265,0.028l-0.983,0.582l-1.43,1.485l-3.027,2.637
		l-2.068,1.82l-1.784,1.858l4.503,3.232l-0.317,0.918l-3.902,5.16l-7.712,8.555l-3.186,3.614l-0.317,2.548l0.345,2.185l3.735,4.042
		l6.953,5.323l3.54,3.446l6.953,4.154l8.5,4.983l3.167,1.868l1.192,2.584l2.967,7.354l0.717,4.643l-0.08,6.889l-1.42,3.283
		l-2.44,1.485l-5.258,1.192l-1.793,1.076l-1.174,2.311l0.201,6.072l3.194,6.795l3.037,4.425l5.743,3.33l9.337,4.233l12.724,6.115
		l9.557,4.042l7.037,2.203l8.993,2.222l2.329,0.917l1.556,0.867l-0.2,2.31l-0.727,1.9l-2.23,2.496l-5.943,2.538l-8.164,3.032
		l-8.318,2.464l-6.771,1.723l-5.296,2.738l-1.792,1.7l-2.976,4.205l-0.293,1.947l0.103,2.733l2.226,3.609l3.279,4.173l2.584,5.766
		l2.04,4.555l0.717,1.636l2.156,5.537l2.212,3.628l-0.508,1.122l-1.951,0.727l-3.437,0.075l-4.336,0.633l-6.977,1.724l-6.139,2.175
		l-5.486,2.166l-2.673,1.862l-1.793,2.278l-2.105,3.65l-0.373,3.903l0.237,3.73l0.89,4.289l0.666,4.141l0.382,2.547l0.163,0.839
		l-0.773,3.064l-2.263,2.887l-2.487,2.623l-0.335,2.966l-0.093,2.143l0.554,2.757l2.003,3.782l2.943,6.948l1.406,1.854l0.256,0.586
		l0.275,0.587l0.2,0.41l0.229,0.195l0.251,0.038l0.2,0.148l0.391,0.484l0.54,0.708l0.279,0.634l0.14,0.409l0.471,1.062l0.373,1.285
		l0.457,0.82l0.466,1.257l0.354,1.164l0.535,0.987l0.657,1.034l1.192,1.779l0.61,0.875l0.736,0.987l0.866,1.024l0.783,1.118
		l0.67,1.192l0.592,1.788l0.628,2.18l0.61,2.151l0.191,1.016L-86.487,81.119"/>
</g>
<g id="Layer_1_1_">
</g>
</svg>
