<?xml version="1.0" encoding="utf-8"?>
<!-- Generator: Adobe Illustrator 16.0.4, SVG Export Plug-In . SVG Version: 6.00 Build 0)  -->
<!DOCTYPE svg PUBLIC "-//W3C//DTD SVG 1.1//EN" "http://www.w3.org/Graphics/SVG/1.1/DTD/svg11.dtd">
<svg version="1.1" id="Layer_1" xmlns="http://www.w3.org/2000/svg" xmlns:xlink="http://www.w3.org/1999/xlink" x="0px" y="0px"
	 width="301.564px" height="153.107px" viewBox="-137.606 -69.846 301.564 153.107"
	 style="enable-background:new -137.606 -69.846 301.564 153.107;" xml:space="preserve">
<g id="Layer_79">
	<path id="Malakand" style="fill:#CCCCCC;stroke:#FFFFFF;stroke-width:1.15;" d="M-40.027,80.307L-40.027,80.307l0.068-0.103
		l0.714-0.982l-0.114-0.571l-0.034-0.172l0.234-0.148l0.817-0.503l0.983-0.354l0.794-0.343l0.846-0.434l0.034-0.034l0.549-0.389
		l0.657-0.377l0.594-0.389l0.611-0.399l0.726-0.435l0.828-0.435l0.726-0.354L-30,73.383l1.251-0.663l1.194-0.525l1.24-0.537
		l1.028-0.354l0.726-0.229l0.777-0.274l1.154-0.229l0.726-0.126l0.823,0.046l1.143,0.103l0.983,0.069l0.869-0.047l0.914-0.125
		l1.108-0.092h0.903l0.869,0.149l0.617,0.148l0.726,0.377l0.623,0.274l0.548-0.092l0.726-0.502l0.571-0.721l0.188-0.537
		l-0.045-0.502l0.045-0.161l0.046-0.616l0.034-0.617l0.034-0.48v-0.605l-0.137-0.571l-0.034-0.434l0.292-0.788l0.28-0.435l0.12-0.48
		l0.114-0.24l0.503-0.114l0.623-0.297l0.246-0.399l0.012-0.378l0.359-0.297l0.155-0.445l0.211-0.708l0.068-0.252l0.114-0.503
		l0.388-0.263l0.503-0.469l0.108-0.079l0.371-0.252l0.434-0.857l-0.245-0.377l0.057-0.674l0.337-0.309l0.354-0.32l0.245-0.548
		l0.223-0.148l0.725-0.114l0.538-0.069l0.892-0.239l0.725-0.229l0.908-0.252h0.023l0.714-0.126l0.948-0.263l0.657-0.319l0.314-0.263
		l0.108-0.48l-0.046-0.766l0.057-0.651l0.171-1.005l0.108-0.4l-0.166-0.469l-0.022-0.068l0.291-0.308l0.543-0.253l0,0l0.091-0.045
		l0.48,0.068l0.726-0.148l0.434-0.457l0.514-0.092h0.434l0.452,0.012l0.726-0.034l0.903,0.092l0.412,0.022l0.479,0.022l0.726-0.045
		l1.005-0.309l0.595-0.24l1.005-0.651l0.366-0.32l0.537-0.399l0.423-0.332l0.479-0.411l0.046-0.046l0.549-0.274l0.646-0.239
		l0.549-0.068l0.668-0.023h0.616h0.687l0.628-0.022l0.674-0.081l0.55-0.09l0.639-0.126l0.893-0.286l0.388-0.229l0.377-0.366
		l0.286-0.319l0.537-0.548l0.331-0.286l0.412-0.4l0.251-0.365l0.229-0.298l0.068-0.194l0.206-0.479l0.137-0.457l-0.034-0.468
		l0.034-0.48l0.045-0.457l0.161-0.479l0.479-0.982l0.503-0.504l0.937-0.811l0.344-0.503l0.067-0.457l0.092-0.777l0.435-0.742
		l0.092-0.457l-0.251-0.651l-0.035-0.709l0.264-0.525l0.204-0.72l-0.251-0.583l-0.229-0.034l-0.011-0.068l-0.675-0.697l-0.548-0.229
		l-0.39-0.16l-0.113-0.548l-0.252-0.561l-0.022-0.617l0.183-0.515l0.138-1.919l-0.069-0.264l0,0v-0.045l-0.08-0.515l-0.239-0.571
		l-0.4-0.503l-0.651-0.41l-0.399-0.332l0.011-0.263l0.252-0.629l0.114-0.594l0.297-0.788l0.331-0.32l0.561-0.389l0.776-0.377
		l0.526-0.251l0.594-0.252l0.491-0.251l0.721-0.354l0.856-0.366l0.72-0.399l0.457-0.389l0.435-0.479l0.503-0.48l0.616-0.491
		l0.938-0.389l0.251-0.297l0.069-0.675l-0.092-0.845l0.092-0.572l0.239-0.479l0.354-0.331l0.548-0.4l0.892-0.73l0.48-0.504
		l0.663-0.822l0.388-0.389l0.366-0.251l0.285-0.252l0.515-0.491l0.8-0.72l0.285-0.297l0.515-0.343l0.73-0.309l0.39-0.205
		l0.457-0.264l0.411-0.457l0.377-0.674l-0.022-0.72l0.239-0.868l0.252-0.424l0.206-0.308l0.205-0.263l0,0l0.229-0.172l0.251-0.126
		l0.251-0.057l0.309-0.114l0.126-0.32l0.16-0.263l0.708-0.183l0.754-0.092l1.006-0.068l1.04,0.08l0.399,0.148l0.915,0.309h0.548
		l0.502-0.126l0.584-0.091l0.399-0.114l0.697-0.252l0.457-0.114l0,0l0.24-0.045l0.434-0.035l0.229,0.08l0.629,0.286l1.245,0.72
		l0.343,0.183l0.24,0.354l0.72,0.834l0.64,0.777l0.504,0.273l0.457,0.264l0.41,0.183l0.389,0.16l0.365,0.331l0.732,0.457
		l0.628,0.058l0.605-0.08l0.709-0.126l0.56-0.114l0.4-0.126l0.571,0.411l0.696,0.687l0.24,0.331l0,0l0.217,0.479l0.217,0.423
		l0.241,0.525l0.365,0.571l0.24,0.435l0.354,0.378l0.606,0.56l0.571,0.479l0.548,0.354l0.698,0.492l0.468,0.309l0.754,0.582
		l0.697,0.972l0.468,0.526l0.023,0.022l0.822,0.719l0.138,0.195l0.366,0.56l0.502,0.4l0,0l0.022,0.011l0.138,0.629l0.399,0.183
		l0.903,0.012l0.959,0.068h0.869l1.097,0.137l0.549-0.126l0.561-0.159l0.925-0.012l0.412,0.16l0.114,0.035l0.365,0.354l0.251,0.514
		l0.252,0.629l0.068,0.914l0.011,0.822l0.013,1.578l0.057,1.233l0.194,0.549l0.239,0.582l0.24,0.354l0.378,0.525l0.604,0.788
		l0.172,0.606l-0.149,0.479l0.047,0.595l0.171,0.834l0.046,0.766l0.034,0.171l0,0l-0.103,0.252l-0.366,0.148l0.24,0.332l0.148,0.308
		l0.24,0.217v0.013l0.263,0.354l0.217-0.251l0.206-0.046l0.092-0.126l0.229-0.229l0.045-0.378l-0.022-0.273l0.354-0.229l0.366-0.457
		l-0.011-0.252v-0.239l-0.252-0.457l-0.297-0.674l-0.309-0.651l-0.023-0.651l-0.114-0.457l-0.034-0.549l0.08-0.286l0,0l0.057-0.251
		l0.48-0.776l-0.297-0.458L82.68,22.59l-0.469-0.263l-0.456-0.331l0.022-0.286v-0.262l0.571-0.354l0.479-0.274l0.628-0.274
		l0.561-0.24l0.731-0.343l0.365-0.183l1.074-0.411l0.721-0.457l0.262-0.32l0.24-0.411l0.48-1.028l0.239-0.458l0.4-0.262l0.104-0.023
		l0.502-0.194l0.435-0.194l0,0h0.046l0.766-0.183l0.549-0.297l-0.515-0.022l0.034-0.846l0.239-0.515l0.503-0.822l0.32-0.525
		l0.263-0.526l0.4-0.503l0.594-0.571l1.349-0.914l0.126-0.033l0.856-0.31l0.937-0.285l0.721-0.252l0.811-0.57l0.022-0.035
		l0.218-0.56l0.172-1.211l0.251-0.777l0.08-0.709l0.377-0.925l0.344-0.378l0.651-0.263l0.719-0.091l0.674-0.114l0.561-0.172
		l0.503-0.297l0.846-0.423l1.565-0.834l0.788-0.377l0,0l0.183-0.068l1.326-0.491l0.72-0.274l1.223-0.366l0.994-0.125l0.64,0.022
		l1.417,0.343l0.743,0.297l1.771,0.104l0.799,0.125l0.721,0.298l0.73,0.343l0.846,0.456l0.343,0.172l0.252,0.126l0.457,0.343
		l0.777,0.16l0.64-0.366l0.273-0.126h0.32l0.595,0.012l0.73,0.114l0.571-0.068l0.503-0.046l0.686-0.125l0.641-0.104l0.617-0.114
		l0.434-0.16l0.96-0.171l0.754-0.08l0.857,0.022l0.4,0.08l0.456,0.16l0.479,0.309l0.458,0.423l0.479,0.423l0.457,0.754l0.194,0.309
		l0.24,0.377l0.183,0.525l0.252,0.469l0.091,0.148l0.708,0.686l0.641,0.332h0.525h0.114l1.211-0.069h0.641h0.137h0.046l0.583,0.069
		l0.697,0.079l0.663,0.16l0.604,0.239l0.537,0.275l0.571,0.239l0.48,0.148l0.88,0.286l0.674,0.251l0.732,0.172l0.639,0.457
		l0.297-0.445l0.366-0.16l1.508-0.663l1.052-0.72l0.184-0.058l2.079-0.788l0.73-0.548V5.405l-0.137-1.073l0.023-0.697l0.57-2.16
		l1.109-1.119l0.742-0.16l0.617-0.058l2.309-0.068l2.469-0.046l0.868-0.434l-0.047-0.138L157.49-0.8l0.24-0.458l0.194-0.468
		l0.251-0.754l-0.102-0.4l-0.104-0.092l-0.742-0.686l-1.223-1.269l-0.114-0.147l-0.229-0.24l-0.309-0.491l-0.286-0.354l-0.159-0.686
		l-0.092-0.491l-0.114-0.492l-0.252-0.479l-1.108-0.994l-1.382-0.96l-0.617-0.628l-0.252-0.731l0,0l-0.457-1.497l-0.319-0.938
		l-0.023-0.046l-0.16-1.394l0,0l-0.251-1.097l-0.252-0.48l-0.137-0.319l-0.184-0.218l-0.251-0.079l-0.251-0.104l-0.617-0.034
		l-0.663,0.08h-0.502l-0.96-0.103l-1.211-0.138l-1.074-0.125l-1.212-0.286l-1.303-0.469l-1.233-0.377l-1.291-0.435l-0.88-0.399
		l-1.235-0.331l-1.428-0.411l-1.028-0.274l-1.68-0.298l-1.875,0.172l-1.805,0.926l-0.868,0.365l-0.708,0.137l-0.698,0.046h-0.742
		l-0.902-0.079l-0.766-0.069l-1.715-0.012l-1.702-0.285l-0.948-0.285l-0.846-0.286l-0.663-0.331l-0.616-0.32l-0.812-0.297
		l-1.107-0.469l-0.777-0.377l-0.731-0.297l-0.708-0.24l-0.731-0.445l-0.847-0.515l-0.536-0.319l-0.766-0.663l-0.331-0.343
		l-0.458-0.423l-0.011-0.012l-0.457-0.72l-0.229-0.297l-0.731-1.108v-1.691l0.515-0.389l0.309-0.022v-0.126l0.045-0.766
		l-0.022-0.846l-0.24-0.846l-0.239-0.651l-0.047-0.103l-0.251-0.754l-0.731-0.709l-0.457-0.423l-0.617-0.628l-0.285-0.343
		l-0.103-0.092l-0.549-0.537l-0.605-0.423l-0.24-0.194l-0.251-0.263l-1.063-0.982L102.54-39.8l-1.223-1.165l-0.721-1.246
		l-0.491-1.314l-0.012-0.079l0.012-0.184l0.046-0.742l0.184-0.846l0.159-0.686l0.137-0.537l0.138-0.674l0.229-0.812l0.104-0.515
		l0.17-0.582l0.252-0.857l0.297-0.686l0.343-0.549l0.435-0.674l0.515-0.629l0.628-0.583l0.525-0.548l0.138-0.126l0.435-0.491
		l0.456-0.583l0.31-0.457l-0.058-1.223l0.411-1.291l0.069-0.24l0.365-1.143l0.594-1.543l1.04-0.776l1.063-0.902l0.719-0.949
		l0.721-1.119l-1.703-0.138l-1.108-0.012l-1.177-0.011l-1.44,0.103l-0.937-0.08l-1.006-0.08l-1.588-0.251l-1.144-0.354l-1.097-0.469
		l-1.325-0.525l-1.178-0.297l-1.245-0.148l-1.336-0.08l-1.565,0.114l-1.269,0.239l-1.052,0.24l-0.365,0.114l-0.286,0.104
		l-0.354,0.205l0.286,0.286l0.674,1.131l-3.6,2.617l-2.399-0.023l-3.096,0.721l-3.623,0.479l-3.816,0.172l-1.646,0.377l-3.954,1.805
		l-3.039,1.44l-2.948,1.257l-2.193,1.177l-0.915,0.4l-1.862,0.822l-5.474,1.006l-3.04,1.325l-3.77-0.034l-0.252,0.103l-0.252-0.103
		h-0.41l-0.378-0.229l-0.696-0.274l-0.022-0.011l-0.069-0.023l-0.411-0.183l-0.184-0.068l-0.686-0.229l-0.708-0.171l-0.823-0.137
		l-0.902-0.286l-0.696-0.057l-1.578-0.126l-0.776-0.114l-0.96-0.104l-0.788-0.022l-0.423,0.034L33.1-52.848l-1.098-0.035
		l-0.491-0.034h-0.012l-0.137-0.012h-0.857l-0.515,0.035l-0.251-0.012l-0.674-0.046l-1.12-0.217h-0.457l-0.675,0.103l-0.319,0.046
		l0,0l-3.703-0.126l-1.827,0.8h-0.663l-0.891-0.034l-0.344-0.046l-0.663-0.08h-0.627l-0.698-0.011l-1.96-0.354h-0.022l-0.057-0.012
		l-0.926-0.274l-1.171-0.193h-0.663l-0.623,0.125l-0.022,0.012l0,0l-0.68,0.229l-0.668,0.297l-0.651,0.446l-0.577,0.365
		l-0.686,0.286l-0.703,0.308l-0.926,0.354l-1.217,0.366l-1.137,0.468l-0.76,0.32l-0.034,0.012l-0.549,0.217L1.91-49.147L0.447-49.01
		l-0.691,0.114l-0.737,0.114l-0.886,0.012l-0.68,0.08l-2.679-0.138l-0.48,0.046l-0.726,0.103l-0.726,0.012l-4.645-0.194l0,0
		l-0.726-0.205l-0.914-0.4l-1.24-0.377l-0.937-0.309l-0.748-0.286l-0.377-0.148l-0.783-0.137l-0.548,0.034l-0.548,0.034
		l-0.737,0.046l-0.903,0.103l-0.725,0.058l-0.794,0.125l-0.892,0.092l-0.726,0.068l-0.726,0.126l-0.794,0.148l-1.263,0.022
		l-1.028,0.298l-0.52,0.251l-1.251,0.217l-0.726,0.138l-0.594,0.217l-1.194,0.286l-0.572,0.183l-0.891,0.4l-1.005,0.468
		l-0.703,0.285l-0.783,0.378l-1.114,0.457l-0.863,0.365l-0.725,0.354l-0.634,0.343l-0.617,0.274l-0.668,0.274l-0.794,0.251
		l-0.777,0.126l-0.783,0.206l-0.617,0.091l-0.789-0.103l-0.76-0.126l-0.371-0.16l-0.354-0.137l-0.326-0.389l-0.246-0.708
		l-0.189-0.378l-0.291-0.742l-0.246-0.595l-0.223-0.571l-0.291-0.56l-0.234-0.435l0,0l-0.189-0.273l-0.034-0.046l-0.737-1.406
		l-1.183-0.616l-1.931-0.915l-1.988-0.022l-1.542-0.137h-0.034l-0.063-0.012l-0.503-0.058l-0.874-0.159l-0.703-0.034l-0.366-0.058
		l-0.537-0.229l-0.446-0.377l-0.36-0.469l-0.246-0.354l-0.234-0.399l-0.234-0.343l-0.314-0.377l-0.332-0.331l-0.468-0.172
		l-0.628-0.297l-0.458-0.16l-0.783-0.126l-0.2,0.012l-0.411,0.034l-0.926,0.012l-0.726-0.08l-0.44-0.126l-0.331-0.217l-0.349-0.389
		l-0.342-0.365l-0.246-0.366l-0.246-0.469l-0.246-0.285l-0.292-0.252l-0.434-0.331l-0.514-0.297l-0.583-0.24l-0.771-0.274
		l-0.646-0.343l-0.703-0.491l-0.714-0.686l-0.537-0.354l-0.399-0.239h-0.023l-0.171,0.491l-0.131,0.548v0.446v0.229l-0.177,0.525
		l-0.234,0.857l-0.383,0.468l-0.555,0.515l-0.64,0.137l-0.588-0.114l-0.64-0.205l-0.446,0.068l-0.4,0.103l-0.234,0.445l-0.023,0.389
		l-0.103,0.366l-0.468,0.445l-0.257,0.537l-0.469,0.331l-0.468,0.138l-0.491,0.091l-0.537,0.08l-0.503-0.057l-0.434,0.022
		l-0.817-0.103l-0.657-0.092l-0.737-0.022l-0.502,0.034h-0.6l-0.674-0.126l-0.76-0.171l-0.263-0.24l-0.514-0.285l-0.491-0.229
		l-0.629-0.229l-0.525-0.172l-0.468-0.126l-0.76,0.034l-0.422,0.252l-0.458,0.434l-0.377,0.435l-0.091,0.571l-0.012,0.537
		l0.012,0.446l0.143,0.834l0.068,0.73l-0.702,0.309h-0.491l-0.503-0.171l-0.56-0.229l-0.4-0.229l-0.611-0.172l-0.737-0.285
		l-0.663-0.114l-0.726,0.229l-0.257,0.24l-0.32,0.445l0.143,1.131l0.188,0.4l0.057,0.491l0.045,0.582l0.109,0.857v0.48l0.023,0.479
		l-0.354,0.491l-0.417,0.058l-0.915-0.206l-0.469-0.137l-0.434,0.263l-0.103,0.697l-0.154,0.491l-0.177,0.503l-0.246,0.297
		l-0.651,0.354l-0.714,0.319l-0.469,0.046l-0.725-0.114l-0.623-0.057l-0.435,0.079l-0.526,0.023h-0.725l-0.526-0.046l-0.571-0.046
		l-0.526,0.114l-0.48,0.137l-0.308,0.126l-0.349,0.16l-0.492,0.24l-0.434,0.32l-0.383,0.479l-0.286,0.594l-0.583,0.412l-0.503,0.205
		l-0.805-0.091l-0.389-0.058l-1.823,0.263l-0.063,0.24l-0.091,0.697l-0.045,0.616l0.068,0.424l0.188,0.331l0.269,0.377l0.211,0.48
		l0.2,0.616l0.034,0.571l-0.074,0.389l-0.16,0.469l-0.08,0.515l0.045,0.536l0.035,0.458l0.125,0.696v0.721l-0.125,0.536
		l-0.108,0.526l-0.149,0.479l-0.389,0.469l-0.423,0.389l-0.405,0.331l-0.411,0.331l-0.28,0.378l-0.2,0.411l-0.292,0.708
		l-0.479,0.812l-0.412,0.628l-0.245,0.4l-0.223,0.651l-0.057,0.549l-0.058,0.582l-0.354,0.617l-0.526,0.446l-0.406,0.273
		l-0.366,0.286l-0.348,0.479l-0.223,0.457l-0.045,0.16l0.103,0.354l-0.068,0.399l-0.023,0.435l-0.051,0.4v0.411l0.097,0.479
		l0.022,0.629l-0.091,0.742l0.022,0.435l0.246,0.4l0.114,0.468l0.223,0.491l0.411,0.549l0.326,0.571l0.326,0.561l0.097,0.411
		l0.091,0.399l0.023,0.492l-0.035,0.399l-0.245,0.285l-0.337,0.32l-0.399,0.114l-0.669-0.012h-0.349h-0.737l-0.479,0.114
		l-0.303,0.149l-0.737,0.011l-0.634,0.126l-0.714,0.354l-0.234,0.343l-0.138,0.788l0.246,0.446l0.246,0.331l0.246,0.399l0.257,0.549
		l0.246,0.686l0.091,0.914l-0.2,0.491l-0.326,0.274l-0.314,0.251l-0.543,0.252l-0.372,0.263l-0.623,0.537l-0.48,0.503l-0.372,0.434
		l-0.422,0.252l-0.737,0.549l-0.445,0.068l-0.783,0.08l-0.634,0.148l-1.217,0.148l-1.108,0.114l-0.526,0.034l-0.812-0.046
		l-0.726,0.046l0.309,0.423l0.269,0.457l0.445,0.56l0.875,1.132l0.736,0.88l0.503,0.434l0.577,0.571l0.817,0.595l0.793,0.72
		l0.703,0.515l1.406,1.097l0.326,0.514l0.331,0.595l0.183,0.525l0.343,0.423l0.326,0.812v0.502l-0.166,0.4l-0.194,0.377
		l-0.234,0.605l-0.4,0.788l-0.257,0.48l0.045,0.537l0.28,0.662l0.131,0.675l0.08,0.537l0.28,0.742l0.034,2.423l0.377,0.491
		l0.491,0.594l0.257,0.332l-0.234,0.789l-0.234,0.502l-0.28,0.868l0.057,0.469l0.246,0.515l0.4,0.525l0.514,0.503l0.491,0.628
		l0.377,0.687l0.138,0.56l0.143,0.583l0.057,0.57l0.08,0.561l0.046,0.605l-0.023,0.446l-0.171,0.479l-0.377,0.834l-0.246,0.663
		l0.211,0.491v0.525l-0.069,0.64l-0.108,0.56l-0.148,0.652l-0.188,0.457l-0.068,0.479l0.314,0.457l0.571,0.309l0.657,0.903
		l0.188,0.445l0.583,0.571l0.714,0.446l0.377,0.239l0.548,0.252l0.618,0.08l0.611-0.047l0.514-0.033l0.469,0.057l0.4,0.48
		l0.149,0.434l0.6-0.114l0.046-0.525l0.16-0.4l0.52-0.537l1.777-0.65l0.84-0.229l0.491-0.022l0.634,0.114l0.726,0.309l1.086,0.468
		l1.16,0.458l0.726,0.365l0.703,0.377l0.446,0.354l0.749,0.731l0.502,0.628l0.468,0.721l0.383,0.708l0.257,0.468l0.68,0.938
		l0.4,0.206l1.217,0.56l0.548,0.194l0.389,0.377l0.234,0.48l0.594,0.171l0.623-0.297l0.594-0.229l0.131-0.057l0.28-0.161
		l0.594-0.171l0.668-0.114l0.423-0.125l0.92-0.058h0.017l1.377,0.034l1.16,0.046l0.245,0.068l0.657,0.148l0.714,0.171l0.674,0.286
		l0.714-0.251l0.725-0.458l0.503-0.388l0.412-0.24l0.726-0.366l0.377-0.398l0.091-0.104l0.338-0.252l0.691-0.937l0.726-0.549
		l0.588-0.354l0.36-0.264l0.143-0.022l1.177-0.183l1.269,0.023l1.263,0.091l0.246,0.012h0.034l0.257,0.034l0.154-0.012l0.726,0.046
		l0.246-0.263l1.143,0.114l0.6,0.08l0.068,0.034l0.326,0.273l0.577,0.698l0.211,0.73l0.137,0.411l0.12,0.354l0.057,0.274h0.012
		l0.08,0.354l0.108,0.799l-0.045,0.778l-0.029,0.524v0.698l0.423,1.153l0.245,0.549l0.121,0.491l0.046,0.446l0.114,0.742
		l0.188,0.605l0.492,0.286l0.548,0.159h0.011l0.611,0.698l0.292,0.57l0.435,1.143l-0.012,0.023l0.045,0.708l0.023,0.56l-0.166,0.492
		l-0.229,0.469l-0.211,0.468l-0.188,0.766l0.246,0.835l0.069,0.125l0.577,0.88l0.291,0.525l-0.034,0.298l-0.063,0.319l0.2,0.777
		l0.548,0.812l0.074,0.011l0.148,0.24l1.326-0.479l2.457,0.183l0.023,0.046v0.011l0.012,0.343l0,0l-0.08,0.286l0.091,0.148
		l0.023,0.309l0.457,0.309l0,0l0.023,0.022l0.023,0.549l0.223,0.674l0.246,0.08l0,0l0.246,0.046l0.326,0.068l0.245-0.354h0.017
		l1.2-0.492l0.532,0.297l0.571,0.31l0.526,0.297l0.737,0.114l0.571,0.365l-0.011,0.046l0.131,0.503l0.458,0.389l0.457,0.034
		l0.56,0.034l0.915,0.022l0.806-0.012l0.6,0.069l0.582,0.251l0.68,0.331l0.023,0.022l0.548,0.286l0.548,0.4l0,0l0.143,0.126
		l0.435,0.651l0.313,0.354l0.446,0.515l0.726,0.8l0.668,0.549l0.326,0.342l0.372,0.378l0.389,0.217l0.114,0.114l0.097,2.217l0,0
		l-0.326,1.074l0.034,0.068l0.303,0.651l0.326,0.766l0.32,0.891l0.429,0.606l0.588,0.503l0.371,0.399l0.834,0.709l0.583,0.435
		l0.423,0.239l0.491,0.354l0.994,0.445l0.423,0.252l0.726,0.502l0.417,0.629l0.834,0.194l0.829,0.73l0.583,1.019L-40.027,80.307"/>
</g>
<g id="Layer_1_1_">
</g>
</svg>
