<?xml version="1.0" encoding="utf-8"?>
<!-- Generator: Adobe Illustrator 16.0.4, SVG Export Plug-In . SVG Version: 6.00 Build 0)  -->
<!DOCTYPE svg PUBLIC "-//W3C//DTD SVG 1.1//EN" "http://www.w3.org/Graphics/SVG/1.1/DTD/svg11.dtd">
<svg version="1.1" id="Layer_1" xmlns="http://www.w3.org/2000/svg" xmlns:xlink="http://www.w3.org/1999/xlink" x="0px" y="0px"
	 width="301.076px" height="312.39px" viewBox="-116.037 -120.414 301.076 312.39"
	 style="enable-background:new -116.037 -120.414 301.076 312.39;" xml:space="preserve">
<g id="Layer_55">
	<path id="Kalat" style="fill:#CCCCCC;stroke:#FFFFFF;stroke-width:1.15;" d="M118.883-93.972L118.883-93.972l0.146,1.001
		l-0.259,0.8l-0.838,1.217l-1.359,1.33l-2.014,1.806l-1.146,1.238l-0.313,1.001l-0.037,0.842l-0.488,0.55l-0.525,0.092l-0.621-0.175
		l-0.792-0.625l-0.534-0.096l-0.354,0.471l0.054,0.851l-0.317,2.535l-0.479,0.746l-1.037,0.384l-1.814,0.083l-1.805-0.192
		l-2.885-0.333l-3.294-0.629l-2.728-0.146l-3.735-0.625l-1.834-0.242l-1.664,0.009l-2.03,0.267l-1.993,0.754l-2.085,0.571
		l-2.76,0.518l-3.073,0.262l-2.981,0.65L70.729-78.8l-3.994,0.184l-1.144-0.138l-1.013-0.476l-0.329-0.517l-0.054-0.847l0.112-0.659
		l1.792-2.86l2.401-2.897l2.043-2.535l1.719-2.852l0.583-1.826l0.509-1.535l0.297-1.33l-0.051-0.805l-0.213-1.051l-0.504-0.9
		l-1.021-0.667l-1.919-0.943l-2.572-1.184l-2.381-0.622l-2.063-0.371l-0.913,0.042l-1.413,0.325l-1.4,0.592l-2.143,2.085
		l-5.016,4.661l-4.303,3.828l-1.156,0.783l-0.829,0.055l-0.366-0.196l-2.41,2.285l-1.201,1.059l-1.2,1.334l-0.897,1.384
		l-0.671,0.979l-0.976,1.068l-0.9,0.729l-1.808,0.542l-1.279,0.2l-1.137-0.192l-2.42-1.034l-0.99-0.854L28.811-85.2l-0.24-1.98
		l0.279-3.035l0.217-1.459l0.661-2.318l0.594-1.776l0.742-1.664l0.146-1.251l0.599-1.188l0.819-1.455l1.012-2.906l0.287-2.234
		l-0.009-1.326l-0.54-1.701l-0.689-1.584L32-112.397l-1.366-1.117l-1.819-0.913l-0.982-0.263l-1.283,0.017l-1.359,0.009
		l-2.263,0.859l-2.257,1.396l-2.708,1.601l-1.729,1.334l-2.934,1.926l-1.951,1.714l-1.422,1.472l-2.477,2.393l-1.2,1l-2.587,2.756
		l-2.091,2.401l-2.021,2.435l-1.336,2.118l-2.021,2.406l-2.086,2.768l-2.31,3.707l-0.885,2.118l-0.729,2.51l-0.603,1.242
		l-0.443,0.984l-0.069,0.801l0.004,0.726l0.09,1.184l-0.131,1.851l-0.586,2.206l-0.811,1.852l-0.743,1.255l-0.973,0.804
		l-1.721,1.068l-1.803,0.455l-2.181,0.346l-2.635,0.021l-2.493-0.296l-2.454-0.309l-3.022-0.963l-3.856-1.16l-3.108-1.497
		l-4.319-2.222l-2.497-1.105l-2.072-0.854l-1.947,2.289l-0.628,1.159l-1.084,2.535l-0.974,2.126l-0.627,1.567l-1.288,4.211
		l-1.991,5.403l-2.91,6.667l-1.986,5.512l-1.857,5.395l-0.27,2.41l0.261,3.085l1.17,2.994l1.171,2.635l1.17,2.197l2.745,2.76
		l0.645,1.618l0.127,1.718l-0.013,3.569l-1.198,5.737l-1.059,3.11l-0.924,2.54l-0.413,5.616l-0.663,2.056l-2.383,4.002l-1.972,3.665
		l-1.574,2.527l-0.798,3.564l-1.055,3.457l-0.521,1.285l-1.832,0.566l-2.221-0.008l-1.57,0.104l-1.311,1.367l-0.652,1.026
		l-1.055,3.218l-0.924,3.673l-0.792,4.135l-0.529,2.757v1.268l1.301,1.376l3.906,2.539l1.824,0.351l0.783-0.101l1.308-0.805
		l1.047-0.801l0.785-1.154l1.045-0.338l0.915,0.005l0.64,0.57l0.27,0.242l0.118,3.877l-0.942,9.186l-0.529,2.401l-2.097,2.977
		l-1.051,2.051l-0.525,1.951l-1.053,3.22l-1.44,2.98l-3.79,4.36l-2.48,2.757l-1.964,4.586l-2.093,3.561l-4.145,4.128l-1.824,1.839
		l-2.996,1.942l-1.955,1.38l-1.563,2.635l-1.213,2.636l-0.845,1.867l-1.478,1.519l-1.969,2.764l-1.638,2.985l-1.486,4.391
		l-3.169,6.137l-0.815,2.206l-2.057,3.989l-1.141,2.961l-0.209,1.688l0.11,1.046l2.012,1.352l2.046,0.588l1.476-0.092l2.076-0.334
		l1.605,0.305l1.728,1.096l1.119,1.598l0.633,2.89l-0.518,2.063l-1.328,4.007l-0.875,3.761l-0.405,3.114l-0.12,3.269l0.206,2.477
		l1.78,3.573l1.145,0.95l0.873,0.159l1.181-0.092l1.194-0.476l1.062-1.009l0.766-0.638l2.201,0.079l1.308,0.438l2.437,1.763
		l1.38,2.385l1.357,3.148l0.134,4.307l-0.382,2.218l-1.422,2.701l-1.72,3.502l5.883,0.901l1.2-0.013l3.198,0.117l2.531,0.088
		l2.195-0.264l1.527-0.121l2.522-0.574l1.137-0.051l2.789-0.467l1.72-0.738l2.181-1.013l3.3-2.005l1.845-1.363l2.232-2.044
		l1.32-0.967l2.178-1.33l1.78-1.438l1.848-1.372l1.188-0.963l0.66-0.483l1.645-0.942l2.05-1.384l3.829-2.402l2.114-1.375
		l2.852-1.393l3.974-1.931l3.515-1.692l4.836-2.41l3.048-1.514l3.055-1.446l2.633-1.26l5.645-2.41l4.385-1.692l3.851-1.688
		l2.984-1.801l1.922-1.159l1.054-1.351l1.503-3.281l1.095-3.794l0.179-4.074l-0.367-2.943l-0.296-2.477l0.252-1.484l0.115-1.659
		l-0.408-0.954l-1.3-2.286l-1.69-2.047l-2.693-1.926l-2.105-1.626l-2.168-2.048l-1.555-1.692l-2.527-4.232l-1.657-4.356L-4.67,99.95
		l0.315-1.701l1.442-2.956l1.69-3.986l1.508-3.026l1.046-2.493l1.188-1.322l1.255-1.676l0.795-1.001l1.398-1.868l1.946-1.175
		l1.712-1.009l1.756-1.181l8.685-0.904l7.125-2.256l3.65-2.743l1.523-2.914l1.101-1.64l1.705-2.472l1.71-2.093l1.71-1.701
		l0.737-2.193l0.955-2.084l1.496-2.281l1.06-2.381l0.847-2.001l0.963-2.272l1.067-1.509l1.496-2.477l2.819-4.653l2.455-3.423
		l1.822-1.897l1.18-1.434l1.393-1.618l0.971-0.767l1.936-0.667l1.834-0.388l2.693-0.4l2.693-0.2l3.661-0.2l6.684-0.792l4.094-0.284
		l2.798,0.175l4.202-0.288l4.208-0.476l3.022-0.008l3.877,0.263l3.456-0.008l4.515-0.1l7.222,0.087l6.255-0.275l4.961-0.287
		l4.311-0.192l5.074-0.775l3.999-0.571l3.994-0.842l2.31-0.392l0.601-0.087l1.184,0.087l0.326,0.192l0.107,0.388l-0.216,0.575v0.375
		l0.433,0.2l1.185-0.767l1.729-1.334l1.401-1.993l1.73-2.188l0.976-2.272l0.759-2.46l1.084-3.306l0.409-2.452l0.758-2.76
		l0.977-2.568l1.73-4.182l1.513-3.227l1.192-3.885l1.301-3.498l1.734-3.99l1.951-2.568l1.727-1.801l1.626-1.421l2.401-1.605
		l1.513-1.897l1.306-2.264l1.093-3.307l0.875-3.807l0.446-5.416l-0.533-5.028l-0.313-4.082l-1.292-4.945l-0.175-1.692l-0.268-2.477
		l-0.533-1.801l-0.972-3.035v-1.993l0.009-4.27l-0.213-0.767l-0.976-1.047l-0.979-0.654l-2.599-0.776l-3.035-1.701l-4.227-2.385
		l-0.534-0.517l-1.635-1.568l-2.275-3.318l-1.188-3.419l-0.38-2.91l-0.104-1.426l0.324-0.842l0.104-0.667l-0.321-0.759l-0.65-0.767
		l-0.112-0.572v-0.663l-0.542-0.759l-0.642-0.667l-0.768-0.187l-0.976-0.092l-1.518,0.375l-1.739,0.959l-3.364,1.801l-2.067,0.854
		l-1.627,0.467l-1.413,0.192h-1.188l-1.634-0.375l-0.979-0.283l-0.98-0.188h-0.65l-1.301,0.275l-1.305,0.271l-1.197-0.091
		l-1.305-0.275l-0.646-0.092h-0.65l-0.875,0.192l-0.976,0.091l-1.852-0.279l-1.951-0.654l-1.518-0.463l-0.867-0.091l-1.201-0.184
		l-0.971,0.184L118.883-93.972"/>
</g>
<g id="Layer_1_1_">
</g>
</svg>
