<?xml version="1.0" encoding="iso-8859-1"?>
<!-- Generator: Adobe Illustrator 16.0.4, SVG Export Plug-In . SVG Version: 6.00 Build 0)  -->
<!DOCTYPE svg PUBLIC "-//W3C//DTD SVG 1.1//EN" "http://www.w3.org/Graphics/SVG/1.1/DTD/svg11.dtd">
<svg version="1.1" xmlns="http://www.w3.org/2000/svg" xmlns:xlink="http://www.w3.org/1999/xlink" x="0px" y="0px"
	 width="49.827px" height="40.965px" viewBox="0 0 49.827 40.965" style="enable-background:new 0 0 49.827 40.965;"
	 xml:space="preserve">
<g id="Layer_50">
	<g id="Layer_55">
		<path id="Sukkur" style="fill:#CCCCCC;stroke:#FFFFFF;stroke-width:1.07;" d="M0.464,12.991
			L0.464,12.991l0.112-0.01l0.196,0.002l0.562,0.111l0.114-0.003l0.087,0.01l0.129,0.036l0.222,0.099l0.208,0.083l0.14,0.058
			l0.093,0.014H2.5l0.137,0.012l0.159-0.005l0.183-0.025l0.224-0.044l0.114,0.201l0.08,0.162l0.1,0.139l0.071,0.124l0.084,0.175
			l0.084,0.139l0.119,0.157l0.129,0.156l0.085,0.079l0.117,0.096l0.125,0.062l0.177,0.062l0.176,0.03l0.191,0.049l0.183,0.022
			L5.18,15.02l0.216,0.064l0.17,0.04l0.142,0.017l0.083,0.039l0.126,0.018l0.109-0.016l0.097-0.019l0.062-0.04l0.064-0.068
			l0.065-0.083l0.057-0.084l0.127-0.168l0.087-0.087l0.083-0.093l0.117-0.128l0.121-0.094l0.055-0.043l0.094-0.023l0.086-0.015
			l0.165,0.002l0.175,0.024l0.229,0.031l0.209,0.056l0.159,0.042l0.137,0.032l0.123,0.038l0.071,0.018l0.14,0.014l0.082,0.021
			l0.037-0.005l0.488-0.036l0.178-0.021l0.375-0.083l0.243-0.038l0.169-0.021l0.18-0.021l0.037,0.008l0.021,0.033l0.018,0.159
			l-0.037,0.354l-0.002,0.284l0.012,0.385l0.024,0.259l0.017,0.234l0.05,0.1l0.067,0.082l0.201,0.138l0.049,0.05l0.029,0.041
			l0.001,0.051l-0.079,0.193l-0.199,0.314l-0.066,0.075l-0.154,0.101l-0.031,0.088l-0.078,0.065l-0.147,0.067L9.836,17.45
			L9.75,17.491l-0.038,0.037l-0.034,0.045l-0.015,0.05l-0.003,0.081l-0.015,0.103l-0.065,0.25L9.492,18.27l-0.217,0.515
			l-0.098,0.215l-0.125,0.312l-0.114,0.344l-0.115,0.325l-0.063,0.195l-0.055,0.283l-0.089,0.328l-0.075,0.279L8.44,21.361
			l-0.027,0.213l0.047,0.229l0.104,0.187l0.146,0.14l0.197,0.106l0.239,0.053l0.51,0.022l0.204,0.008l0.079,0.049l0.053,0.065
			l0.022,0.065l-0.009,0.153l-0.024,0.159l-0.023,0.167l0.015,0.131l0.048,0.112l0.104,0.188l0.114,0.039l0.223-0.023l0.387-0.104
			l0.274-0.047l0.253-0.022l0.36-0.062l0.306-0.047l0.23,0.027l0.083,0.066l0.032,0.036l0.016,0.076l-0.032,0.08l-0.127,0.133
			l-0.042,0.11l-0.081,0.146l-0.176,0.191l-0.217,0.219l-0.104,0.171l-0.065,0.072l-0.045,0.074l-0.038,0.063l-0.039,0.063
			l-0.035,0.071l-0.023,0.078v0.087l0.031,0.091l0.087,0.138l0.204,0.187l0.161,0.181l0.236,0.223l0.213,0.185l0.097,0.052
			l-0.394,0.608l-0.096,0.147l-0.678,0.915l-0.523,0.391l-0.369,0.095l-0.112,0.132l-0.158,0.756l-0.122,0.855l-0.082,0.626
			l0.071,0.23l0.218,0.267l0.842,0.569l1.354,1.003l1.739,1.06l0.955,0.342l0.658,0.337l0.698,0.206l0.845,0.272l0.736,0.108
			l0.627,0.007l0.629-0.058l0.481-0.126l0.445-0.192l0.592-0.025l0.59,0.008l0.7,0.074l0.809,0.208l0.842,0.439l0.291,0.202
			l0.258,0.067l0.48-0.025l0.479-0.025l0.773,0.075l1.325,0.217l1.943,0.588l1.285,0.315l0.549,0.304l1.047,0.631l0.582,0.404
			l0.879,0.375l1.062,0.312l1.064,0.215l0.586,0.207l0.65,0.569l0.582,0.404l0.732,0.21l0.834,0.146l0.059,0.003l0.066-0.145
			l0.049-0.139l0.074-0.206l0.379-0.908l0.309-0.74l0.197-0.493l0.152-0.389l0.539-1.122l0.354-0.52l0.578-0.475l0.049-0.059
			l0.078-0.096l2.588-2.425l0.818-0.655l0.543-0.438l1.078-0.708l1.898-1.418l-1.873-1.32l-0.135-0.104l-0.281-0.117l-0.605-0.227
			l-0.629-0.274l-0.607-0.273l-0.391-0.161l-0.348-0.104l-0.355-0.056l-0.387-0.071l-0.336-0.094l-0.367-0.17l-0.316-0.182
			l-0.326-0.258l-0.502-0.399l-0.348-0.285l-0.305-0.22l-0.469-0.267l-0.479-0.274l-0.359-0.258l-0.314-0.17l-0.217-0.104
			l-0.109-0.047v-0.029l0.012-0.039l0.047-0.036l0.098-0.126l0.158-0.194l0.33-0.445l0.191-0.319l0.211-0.387l0.137-0.426
			l0.053-0.289l-0.002-0.097l-0.066-0.114l-0.129-0.076l-0.238-0.018l-0.229,0.012l-0.107,0.05l-0.17,0.203l-0.217,0.051
			l-0.746,0.016l-0.529-0.005l-0.691,0.006l-0.725,0.026l-0.562,0.062l-0.205-0.018l-0.152-0.086l-0.197-0.133l-0.195-0.162
			L34.799,21.3l-0.131-0.114l-0.184-0.073l-0.303-0.035l-0.555-0.053l-0.811-0.021l-0.736-0.069l-0.412-0.082l-0.662-0.128
			l-0.4-0.17l-0.58-0.389l-0.58-0.581l-0.506-0.534l-0.363-0.518l-0.336-0.438l-0.34-0.439l-0.086-0.182l-0.051-0.103l-0.062-0.064
			l-0.035-0.041l-0.096-0.111l-0.062-0.099l-0.449-0.596l-0.447-0.524l-0.416-0.397l-0.266-0.287l-0.409-0.319l-0.297-0.163
			l-0.281-0.121l-0.59-0.138l-0.276-0.016l-0.387,0.033l-0.13,0.021l-0.027-0.044l-0.073-0.087l-0.025-0.051l-0.039-0.072
			l-0.003-0.147l0.023-0.164l0.046-0.207l0.047-0.212l-0.004-0.122l-0.023-0.416l0.025-0.057l0.069-0.029l0.192,0.021l0.189,0.053
			l0.287,0.092l0.321,0.043l0.227-0.008l0.146-0.052l0.051-0.084l0.06-0.207l0.116-0.225l0.154-0.131l0.125-0.076l0.124-0.011
			l0.095,0.069l0.148,0.106l0.175,0.132l0.163,0.119l0.135,0.052l0.166,0.01l0.088,0.039l0.064,0.053l0.041,0.08l0.043,0.058
			l0.076,0.058l0.1,0.019l0.129,0.008l0.086-0.038l0.205-0.166l0.266-0.282l0.141-0.156l0.117-0.059l0.107-0.04l0.119-0.04
			l0.098-0.06l0.086-0.067l0.074-0.068l0.045-0.096l-0.021-0.076l-0.078-0.096l-0.209-0.2l-0.219-0.151l-0.197-0.172L27.5,11.268
			l-0.057-0.144l-0.002-0.115l0.02-0.116l0.086-0.106l0.074-0.098l0.086-0.106l0.084-0.116l0.043-0.097l0.01-0.077v-0.048
			l-0.021-0.05l-0.121-0.057l-0.195-0.084l-0.285-0.16l-0.188-0.182L26.9,9.529l-0.09-0.277L26.73,9.07l-0.111-0.172L26.41,8.67
			l-0.166-0.134l-0.141-0.142l-0.191-0.2l-0.109-0.189l-0.057-0.289l-0.043-0.211L25.69,7.354l-0.116-0.217l-0.171-0.243
			l-0.072-0.132l-0.015-0.099l0.001-0.105l-0.021-0.131l-0.08-0.158l-0.071-0.125l-0.089-0.126l-0.072-0.118L24.88,5.715
			l-0.027-0.179V5.458l-0.028-0.079l-0.066-0.054l-0.185-0.104l-0.051-0.087l-0.021-0.111l0.001-0.099L24.466,4.76l-0.035-0.14
			l-0.088-0.209l-0.027-0.165V4.188l0.03-0.111l0.053-0.06l0.082-0.078l0.061-0.124V3.735L24.536,3.65l-0.029-0.126L24.42,3.223
			l-0.139-0.257L24.14,2.859l-0.109-0.04l-0.186-0.034L23.763,2.76l-0.051-0.04V2.688l0.067-0.072l0.142-0.07l0.363-0.131
			l0.193-0.136l0.061-0.079l0.121-0.086l0.085-0.136L24.66,1.871l-0.41,0.08l-0.216,0.035l-0.331,0.034l-0.218-0.01l-0.227-0.05
			l-0.337-0.137l-0.216-0.11l-0.129-0.109l-0.181-0.134l-0.155-0.058l-0.182-0.108l-0.181-0.149l-0.121-0.07h-0.061l-0.105,0.028
			l-0.148,0.105l-0.274,0.267L20.93,1.715l-0.229,0.229L20.5,2.048l-0.062,0.008l-0.052-0.018l-0.076-0.116l-0.146-0.171
			l-0.146-0.156l-0.153-0.149L19.676,1.22l-0.109-0.194l-0.033-0.14l-0.007-0.069l0.018-0.062l0.021-0.102l0.039-0.104l-0.115,0.002
			l-0.204,0.027L19.08,0.583L18.916,0.62l-0.17,0.067l-0.074,0.075l-0.076,0.13l-0.051,0.095l-0.067,0.165L18.38,1.288l-0.102,0.189
			L18.19,1.626l-0.116,0.131L17.946,1.91l-0.148,0.18L17.6,2.367l-0.115,0.125l-0.111,0.062l-0.064,0.019l-0.14-0.009l-0.296-0.025
			l-0.251-0.02l-0.409,0.014l-0.154,0.017l-0.178,0.124l-0.168,0.111l-0.216,0.119L15.33,3.01l-0.098,0.07l-0.1,0.085l-0.07,0.103
			L15,3.327l-0.127,0.107l-0.146,0.077l-0.153,0.101l-0.104,0.055l-0.188,0.088l-0.133,0.112L13.987,4l-0.153,0.095l-0.15,0.034
			l-0.179,0.044l-0.173,0.033l-0.138,0.005l-0.157-0.046l-0.09-0.003l-0.068-0.001l-0.057,0.035L12.71,4.269l-0.038,0.14
			l-0.001,0.073l-0.01,0.121l0.032,0.129l0.05,0.178l0.019,0.104l-0.018,0.165l-0.086,0.199l-0.121,0.156l-0.142,0.149l-0.184,0.181
			l-0.14,0.089l-0.367-0.199l-0.297,0.267l-0.2,0.191l-0.127,0.152L11.012,6.5l-0.007,0.079l-0.001,0.079l0.061,0.126l0.077,0.121
			l0.077,0.07l0.083,0.071l0.027,0.064l0.1,0.161l0.017,0.09l-0.002,0.057l-0.019,0.1l-0.121,0.193l-0.168,0.231l-0.068,0.089
			l-0.188,0.233l-0.229,0.262l-0.188,0.168l-0.199,0.152L9.961,9.06L9.774,9.212L9.599,9.398L9.513,9.522L9.41,9.682L9.311,9.865
			l-0.059,0.141l-0.029,0.05l-0.078,0.019l-0.182,0.02l-0.219-0.003l-0.236-0.019l-0.275,0.013l-0.175,0.043L7.9,10.182
			l-0.143,0.058l-0.216,0.148l-0.216,0.138L7.217,10.58l-0.078,0.009l-0.105-0.046l-0.071-0.066l-0.11-0.091l-0.123-0.091
			l-0.128-0.098l-0.18-0.093l-0.095-0.07L6.26,9.959L6.166,9.878L6.071,9.827L5.942,9.78L5.82,9.705L5.624,9.623L5.434,9.556
			L5.316,9.529L5.147,9.518L5.068,9.526l-0.09,0.029l-0.04,0.05l-0.019,0.05l0.021,0.061l0.083,0.086L5.08,9.866l0.027,0.081
			L5.106,9.982l-0.04,0.039l-0.057,0.016l-0.051-0.021L4.791,9.919L4.69,9.893H4.645L4.626,9.913L4.615,9.968l-0.014,0.115
			l-0.232,0.135l-0.23,0.025L3.66,10.31l-0.287,0.062l-0.361,0.133L2.41,10.634l0.104,0.16l0.148,0.215l0.06,0.045l0.056,0.019
			l0.061-0.004l0.062-0.021l0.069-0.04l0.098-0.119l0.069-0.066l0.052-0.034l0.055-0.004l0.061,0.01l0.069,0.031l0.075,0.07
			l0.044,0.071l0.004,0.094l-0.011,0.089l-0.086,0.124L3.19,11.477l-0.237,0.227L2.731,11.9l-0.183,0.114L2.387,12.08l-0.15,0.03
			L2.082,12.1l-0.165-0.015l-0.189,0.021L1.55,12.127l-0.175,0.024L1.159,12.23l-0.121,0.062l-0.101,0.093l-0.191,0.198
			l-0.162,0.199L0.464,12.991"/>
	</g>
</g>
<g id="Layer_1">
</g>
</svg>
