<?xml version="1.0" encoding="iso-8859-1"?>
<!-- Generator: Adobe Illustrator 16.0.4, SVG Export Plug-In . SVG Version: 6.00 Build 0)  -->
<!DOCTYPE svg PUBLIC "-//W3C//DTD SVG 1.1//EN" "http://www.w3.org/Graphics/SVG/1.1/DTD/svg11.dtd">
<svg version="1.1" xmlns="http://www.w3.org/2000/svg" xmlns:xlink="http://www.w3.org/1999/xlink" x="0px" y="0px"
	 width="80.225px" height="24.478px" viewBox="0 0 80.225 24.478" style="enable-background:new 0 0 80.225 24.478;"
	 xml:space="preserve">
<g id="Layer_140">
	<g id="Layer_145">
		<path id="Jaccobabad" style="fill:#CCCCCC;stroke:#FFFFFF;stroke-width:1.07;" d="
			M0.425,20.924L0.425,20.924L0.64,21.04l0.263,0.137l0.231,0.167l0.235,0.171L1.5,21.608l0.103,0.001l0.113-0.015l0.202-0.042
			l0.443-0.122l0.202-0.033l0.382-0.004l0.278,0.011l0.222,0.018l0.445,0.077l0.256,0.05l0.09,0.022l0.086-0.015l0.147-0.074
			l0.255-0.151l0.171-0.137l0.141-0.078l0.179-0.034l0.297-0.014l0.452,0.007l0.086,0.021l0.072,0.062l0.108,0.215l0.04,0.108
			l0.054,0.032l0.085,0.015l0.07-0.002l0.197-0.019l0.451-0.051l0.283-0.006l0.207,0.037l0.14,0.081l0.092,0.086l0.13,0.127
			l0.128,0.198l0.161,0.218l0.161,0.231l0.182,0.256l0.151,0.227l0.131,0.201l0.09,0.178l0.06,0.109l0.006,0.011l0.06,0.138
			l0.077,0.082l0.208,0.024h0.218l0.121-0.032l0.091-0.144l0.096-0.169l0.042-0.021l0.079-0.015l0.16-0.003l0.336,0.035l0.538,0.048
			l0.477,0.032l0.302,0.023l0.228,0.021l0.062,0.037l0.039,0.049l0.045,0.125l0.085,0.199l0.055,0.077l0.062,0.023l0.08-0.001
			l0.102-0.064l0.056-0.06l0.08-0.019l0.043,0.004l0.112,0.043l0.076-0.001l0.051-0.034l0.062-0.187l0.04-0.089l0.041-0.042
			l0.057-0.021l0.07-0.001l0.287,0.002l0.205,0.046l0.247,0.124l0.089,0.092l0.098,0.087l0.107,0.015l0.235,0.02l0.44,0.023
			l0.374,0.012l0.323-0.008l0.308-0.049l0.062-0.021l0.057-0.046l0.021-0.026l-0.011-0.097l-0.035-0.067l-0.061-0.16l-0.025-0.076
			l0.006-0.041l0.025-0.006l0.082,0.011l0.271,0.068l0.38,0.14l0.087,0.046l0.051,0.026l0.052,0.006l0.025-0.01l0.011-0.06
			l0.011-0.063l0.005-0.096l0.003-0.332l-0.013-0.33l-0.017-0.517l-0.043-0.414l-0.028-0.379l0.007-0.245l-0.039-0.289l0.001-0.16
			l0.018-0.254l0.043-0.286l0.01-0.105l0.021-0.106l0.017-0.184l0.008-0.109l0.026-0.246l0.053-0.499l0.072-0.454l0.052-0.557
			l0.063-0.566l0.042-0.228l0.062-0.393l0.004-0.271l-0.003-0.289l-0.002-0.192l0.023-0.137l0.023-0.078l0.036-0.032l0.06-0.018
			l0.206,0.012l0.198,0.027l0.205,0.044l0.254,0.047l0.296,0.043l0.243,0.017l0.308,0.036l0.25,0.062l0.167,0.044l0.174,0.021
			l0.129-0.001l0.159-0.007l0.288-0.03l0.308-0.03l0.179-0.041l0.217-0.109l0.146-0.04l0.141-0.041l0.128-0.047l0.236-0.081
			l0.211-0.047l0.19-0.052l0.187-0.047l0.19-0.069l0.178-0.107l0.179-0.113l0.203-0.188l0.166-0.104l0.312-0.212l0.312-0.179
			l0.402-0.161l0.408-0.128l0.436-0.094l0.484-0.076l0.327-0.02l0.282,0.025l0.314,0.071l0.141,0.027l0.158,0.031l0.487,0.063
			l0.19,0.053l0.021,0.004l0.438,0.02l0.238-0.012l0.19,0.014l0.2,0.043l0.133,0.015l0.111-0.015l0.225-0.021l0.219-0.018l0.25-0.04
			l0.185-0.026l0.212-0.012l0.271,0.019l0.305,0.017l0.18,0.037l0.466,0.107l0.272,0.071l0.373,0.127l0.268,0.105l0.188,0.084
			l0.155,0.114l0.175,0.106l0.192,0.078l0.28,0.099L33.32,15.3l0.232,0.036l0.238,0.035l0.206,0.02l0.257-0.017l0.185-0.033
			l0.284-0.006l0.206,0.024l0.365,0.062l0.266,0.072l0.273,0.105l0.309,0.152l0.222,0.13l0.176,0.119l0.227,0.083l0.271,0.075
			l0.34,0.06l0.265,0.022l0.299,0.029l0.142,0.05l0.252,0.061l0.261,0.116l0.427,0.134l0.245,0.042l0.152,0.009l0.158,0.02
			l0.248,0.118l0.253,0.104l0.2,0.102l0.195,0.119l0.106,0.068l0.106,0.037l0.066,0.006l0.099-0.037l0.084-0.042l0.085-0.049
			l0.085-0.031l0.15-0.104l0.155-0.062l0.25-0.075l0.132-0.014l0.203-0.052l0.153-0.046l0.126,0.036l0.12,0.094l0.095,0.078
			l0.131,0.064l0.029,0.008l0.108,0.031l0.113-0.021l0.122-0.053l0.106-0.105l0.089-0.115l0.07-0.068l0.053-0.021l0.026,0.022
			l0.042,0.077l0.023,0.14l0.032,0.141l0.043,0.107l0.067,0.116l0.06,0.055l0.087,0.057l0.156,0.017l0.2,0.003l0.235-0.027
			l0.367-0.111l0.28-0.105l0.148-0.027l0.228-0.036l0.296,0.02l0.243,0.033l0.182,0.087l0.217,0.143l0.396,0.298l0.345,0.29
			l0.257,0.28l0.607,0.661l0.341,0.413l0.095,0.095l0.017,0.062v0.038l-0.021,0.106l-0.006,0.019l-0.039,0.104l-0.02,0.102
			l-0.019,0.062l0.008,0.069l0.032,0.14l0.11,0.194l0.188,0.226l0.154,0.149l0.146,0.156l0.146,0.171l0.076,0.117l0.052,0.017
			l0.062-0.008l0.2-0.104l0.23-0.229l0.238-0.229l0.273-0.267l0.149-0.105l0.104-0.028h0.062l0.121,0.071l0.181,0.148l0.181,0.109
			l0.155,0.057l0.182,0.134l0.129,0.109l0.216,0.111l0.337,0.136l0.226,0.05l0.219,0.01l0.33-0.034l0.217-0.034l0.409-0.08
			l0.386-0.133l0.124-0.1l0.062-0.146l0.004-0.192l-0.122-0.527l-0.115-0.302l-0.025-0.086l0.037-0.115l0.107-0.222l0.107-0.146
			l0.106-0.178l0.037-0.152l0.003-0.102l-0.073-0.316l-0.06-0.133l-0.021-0.177l0.055-0.114l0.115-0.105l0.079-0.062l0.071-0.067
			l0.062-0.092l0.07-0.054l0.114-0.067l0.123-0.113l0.127-0.199l0.158-0.152l0.123-0.066l0.264-0.082l0.219-0.06l0.297-0.025
			l0.332-0.05l0.063-0.01l0.182-0.025l0.28-0.059l0.19-0.06l0.173-0.188l0.213-0.125l0.151-0.062l0.202-0.018l0.425-0.009
			l0.203-0.025l0.131-0.055l0.092-0.135l0.082-0.161l0.142-0.134l0.111-0.036l0.172,0.001l0.364,0.063h0.143l0.091-0.055l0.254-0.25
			l0.335-0.365l0.305-0.306l0.203-0.295l0.163-0.25l0.101-0.09l0.201-0.092h0.103l0.101,0.018l0.051-0.025l0.152-0.134l0.082-0.019
			l0.05,0.053l0.212,0.162l0.183,0.091l0.212,0.126l0.304,0.063l0.273,0.081l0.252,0.055l0.264,0.082l0.525,0.082h0.07l0.081-0.106
			l0.194-0.501l0.184-0.376l0.307-0.456l0.325-0.35l0.132-0.062l0.07-0.036l0.012-0.026l0.01-0.062l0.001-0.089l0.041-0.136
			l0.081-0.062l0.158-0.037l-0.2-0.069l-0.229-0.136l-0.093-0.113l0.009-0.104l0.044-0.149l0.146-0.193l0.17-0.271l0.129-0.271
			l0.068-0.313l0.001-0.12l-0.032-0.267l-0.093-0.241L65.36,9.852l-0.032-0.163l0.288,0.129l0.244,0.128l0.16,0.143l0.246,0.188
			l0.177,0.151l0.212,0.105l0.271,0.12l0.049,0.039l0.128-0.25l0.146-0.366l0.01-0.232l-0.008-0.15l0.051-0.082l0.067-0.037
			L67.6,9.567l0.339,0.046L68.1,9.668l0.042,0.074l0.084,0.113l0.118,0.12l0.102,0.067l0.193,0.104l0.144,0.113l0.211,0.135
			l0.137,0.023l0.254-0.045l0.137-0.06l0.144,0.001l0.246,0.001l0.306,0.093l0.135,0.067l0.056,0.049l-0.004-0.266l-0.041-0.254
			l-0.016-0.388l-0.023-0.276l-0.041-0.285l-0.106-0.347l-0.127-0.256l-0.202-0.211L69.66,8.024l-0.15-0.247l-0.094-0.203
			l-0.312-0.556l-0.117-0.226l-0.276-0.52l-0.126-0.226L68.439,5.83l-0.151-0.241l-0.135-0.144l-0.102-0.098l-0.05-0.083
			l-0.084-0.144l-0.16-0.256l-0.043-0.098l0.01-0.104l0.034-0.127l0.06-0.076l0.205-0.119l0.356-0.104l0.145-0.015l0.153-0.015
			l0.144,0.062L69.1,4.639l0.557,0.79l0.083,0.231l0.041,0.195l0.05,0.158l0.068,0.09l0.123,0.07l0.416,0.055l0.271,0.018
			l0.373-0.021l0.238-0.066l0.323-0.11l0.187-0.029l0.161,0.008l0.137,0.039L72.592,6.3l0.48,0.37l0.354,0.271l0.177,0.226
			l0.193,0.197l0.277,0.338l0.292,0.379l0.151,0.172l0.262,0.228l0.22,0.069l0.271,0.001l0.187-0.036l0.195-0.098l0.146-0.147
			l0.271-0.239l0.299-0.207l0.204-0.104l0.153-0.046l0.085-0.014l0.195,0.039l0.066,0.045l0.465,0.023l0.266-0.115l0.497-0.174
			l0.562-0.164l0.673-0.236l0.064-0.107l0.046-0.1l0.041-0.205l-0.003-0.088l-0.042-0.108L79.517,6.32l-0.025-0.066l-0.017-0.067
			l0.004-0.056l0.031-0.166V5.916l-0.023-0.105l-0.035-0.057l-0.089-0.104l-0.043-0.019l-0.092-0.01l-0.184,0.026L78.88,5.615
			L78.791,5.58l-0.012-0.012l-0.087-0.074l-0.017-0.049l-0.021-0.184l-0.024-0.022l-0.049-0.003l-0.02,0.01l-0.009,0.03
			l-0.011,0.116l-0.032,0.011L78.486,5.4l-0.025-0.035l-0.039-0.072l-0.017-0.057l-0.001-0.039l0.016-0.062l0.049-0.062l0.08-0.077
			l0.043-0.088l-0.01-0.012l-0.064-0.018l-0.234-0.015l-0.086,0.029l-0.029,0.001l-0.174-0.05L77.619,4.77l-0.128-0.043l-0.146-0.02
			l-0.063,0.002l-0.039-0.01l-0.036-0.066l-0.072-0.189l-0.209-0.268l-0.068-0.125L76.828,4.02l-0.018-0.035l-0.004-0.041
			l-0.12-0.09l-0.271-0.217l-0.289-0.25l-0.119-0.113l-0.052-0.025l-0.202-0.082l-0.415-0.109l-0.192-0.046L74.69,2.953
			l-0.243-0.062l-0.312-0.066l-0.232-0.011l-0.254,0.024L73.344,2.9l-0.467,0.016l-0.406-0.028l-0.334-0.056L71.64,2.73
			l-0.304-0.102l-0.273-0.082L70.8,2.439l-0.082-0.054l0.001-0.062l0.029-0.091l0.186-0.196l0.225-0.231l0.214-0.214l0.186-0.143
			l0.041-0.08V1.313L71.537,1.26l-0.396-0.083L70.34,1.039l-0.71-0.11l-0.578-0.048l-1.096-0.204l-0.71-0.119L66.86,0.537
			l-0.314-0.002l-0.812,0.033l-0.386,0.018l-0.254,0.043l-0.274,0.09l-0.244,0.053l-0.427,0.062l-0.396,0.105L63.6,1.002
			l-0.103,0.054l-0.092,0.099l-0.071,0.145l-0.092,0.214L63.09,1.783l-0.112,0.15l-0.081,0.09l-0.123,0.044L61.963,2.14
			l-0.682,0.034l-0.578-0.002L59.911,2.15l-1.197-0.002l-0.895,0.007l-0.802-0.011l-0.452,0.027l-0.332,0.02l-0.421,0.023h-0.63
			l-0.577-0.002h-0.079l-0.42,0.018l-0.402,0.018l-0.307,0.013l-0.541,0.038l-0.499,0.039l-0.779,0.027l-0.69,0.016l-0.454,0.031
			l-0.51,0.071l-0.376,0.025l-0.324,0.012l-0.245,0.026l-0.411,0.051l-0.229,0.027l-0.454,0.01L47.132,2.68l-0.787,0.045
			l-0.351,0.02L45.644,2.77l-0.604,0.001l-0.944,0.028L43.352,2.82L42.66,2.843l-0.39-0.035h-0.002l-0.287-0.007l-0.244-0.021
			l-0.322-0.021l-0.332-0.021L40.79,2.736l-0.611,0.01L39.71,2.769l-0.399,0.024l-0.387-0.004l-0.55-0.002l-0.53-0.014l-0.658-0.008
			L36.62,2.789l-0.6,0.027L35.5,2.826L35.047,2.82l-0.914-0.012l-0.65,0.009l-0.54,0.003l-0.74-0.015L31.713,2.8l-0.861-0.011
			l-0.643,0.01l-0.858-0.004l-0.849-0.014l-0.562,0.002l-0.833-0.021l-0.729-0.009L25.93,2.765l-0.176-0.001L25.56,2.76
			l-0.587-0.012l-0.516,0.013l-0.504-0.013L23.6,2.757l-0.148,0.012l-0.103,0.044l-0.255,0.186l-0.43,0.293l-0.581,0.398
			l-0.464,0.312l-0.423,0.289l-0.154,0.138l-0.161,0.149l-0.146,0.224l-0.111,0.271l-0.226,0.481l-0.205,0.44l-0.266,0.551
			l-0.327,0.683l-0.188,0.404l-0.077,0.176L19.145,8.22l-0.18,0.378l-0.125,0.16l-0.111,0.099l-0.127,0.081l-0.154,0.04
			l-0.365,0.091l-0.645,0.194l-0.463,0.135L16.25,9.592l-0.452,0.129l-0.479,0.145l-0.487,0.154l-0.499,0.131l-0.516,0.146
			l-0.421,0.121l-0.529,0.156l-0.14,0.038l-0.054,0.058l-0.098,0.057l-0.082,0.061l-0.283,0.211l-0.27,0.219l-0.199,0.153
			l-0.102,0.092l-0.339,0.261L11.06,11.91l-0.366,0.291l-0.235,0.193l-0.587,0.458l-0.52,0.398l-0.413,0.321l-0.38,0.301
			l-0.494,0.388L7.51,14.71l-0.4,0.299l-0.816,0.658l-0.559,0.434l-0.458,0.361l-0.272,0.205l-0.145,0.12l-0.077,0.077l-0.148,0.083
			l-0.201,0.087l-0.396,0.146l-0.505,0.187l-0.108,0.04l-0.43,0.155l-0.209,0.104l-0.22,0.13L2.373,17.98l-0.169,0.191l-0.184,0.237
			l-0.127,0.204L1.725,18.81l-0.055,0.06l-0.04,0.098l-0.071,0.136l-0.187,0.325l-0.229,0.411l-0.186,0.274L0.83,20.297
			l-0.083,0.105l-0.072,0.11l-0.048,0.113l-0.058,0.118l-0.082,0.099L0.425,20.924"/>
	</g>
</g>
<g id="Layer_1">
</g>
</svg>
