<?xml version="1.0" encoding="iso-8859-1"?>
<!-- Generator: Adobe Illustrator 16.0.4, SVG Export Plug-In . SVG Version: 6.00 Build 0)  -->
<!DOCTYPE svg PUBLIC "-//W3C//DTD SVG 1.1//EN" "http://www.w3.org/Graphics/SVG/1.1/DTD/svg11.dtd">
<svg version="1.1" xmlns="http://www.w3.org/2000/svg" xmlns:xlink="http://www.w3.org/1999/xlink" x="0px" y="0px"
	 width="30.332px" height="34.76px" viewBox="0 0 30.332 34.76" style="enable-background:new 0 0 30.332 34.76;"
	 xml:space="preserve">
<g id="Layer_13">
	<g id="Layer_18">
		<path id="Toba_Tek_Singh" style="fill:#CCCCCC;stroke:#FFFFFF;stroke-width:1.07;" d="
			M3.72,26.264L3.72,26.264l-0.14,0.273l-0.111,0.25l-0.06,0.158l-0.071,0.149l-0.111,0.237L3.02,27.677l-0.182,0.286l-0.14,0.205
			l-0.336,0.49L2.14,28.995l-0.208,0.312l-0.085,0.109l-0.09,0.073l-0.105,0.059l-0.067,0.039l-0.043,0.031l-0.032,0.046v0.082
			l0.058,0.022H1.62l0.073-0.005l0.042,0.056l-0.006,0.06l-0.054,0.219l-0.132,0.298l-0.135,0.353l-0.104,0.227L1.15,31.332
			l-0.094,0.095l-0.093,0.056l-0.099,0.06l-0.076,0.079l-0.122,0.16l-0.064,0.16l-0.041,0.18l-0.007,0.07l0.035,0.041l0.191,0.025
			l0.659,0.137l0.232,0.053l0.602,0.121l0.312,0.041l0.48,0.051l0.685,0.009l0.115-0.035l0.14-0.08l0.128-0.075l0.059-0.019
			l0.081-0.005l0.081,0.024l0.046,0.062l0.058,0.1l0.075,0.182l0.154,0.155l0.086,0.076l0.161,0.097l0.19,0.069l0.149,0.036
			l0.209,0.006L5.7,33.218l0.318-0.104l0.214-0.135l0.047-0.019l0.101-0.015l0.189-0.01l0.151-0.054l0.168-0.101l0.204-0.153
			l0.104-0.035l0.068-0.005l0.075-0.016l0.088-0.063l0.075-0.06l0.063-0.021h0.059l0.029,0.021L7.654,32.49L7.625,32.56
			l-0.069,0.056L7.468,32.66l-0.115,0.043l-0.076,0.035l-0.058,0.041l-0.076,0.06l-0.082,0.095l-0.021,0.035l-0.03,0.064
			l-0.047,0.09l-0.069,0.095l-0.063,0.069l-0.122,0.115l-0.06,0.055l-0.075,0.15L6.53,33.781l0.012,0.115l0.057,0.141l0.056,0.113
			l0.051,0.049l0.062,0.025h0.07l0.04-0.04l0.041-0.06l0.014-0.17l0.006-0.17l0.048-0.115l0.088-0.064l0.23-0.084l0.116-0.084
			l0.28-0.214l0.087-0.089l0.036-0.12l0.029-0.142l0.054-0.178l0.153-0.313l0.142-0.175l0.168-0.125l0.15-0.06l0.146-0.024
			l0.214-0.008l0.122,0.021l0.021,0.035l-0.023,0.181l-0.03,0.225l0.005,0.121l0.058,0.174l0.047,0.006l0.059-0.1l0.041-0.207
			l0.066-0.265l0.035-0.035l0.068-0.005l0.075,0.051l0.213,0.182l0.226,0.166l0.093,0.031l0.109-0.004l0.146-0.074l0.182-0.18
			l0.251-0.344l0.088-0.115l0.11-0.068l0.238-0.109l0.25-0.104l0.087-0.037l0.069-0.021l0.088-0.021l0.062,0.021l0.046,0.045
			l0.104,0.025l0.134-0.034l0.141-0.134l0.094-0.096l0.175-0.059l0.302-0.1l0.14-0.019l0.15-0.009l0.134,0.021l0.092,0.021
			l0.232,0.017l0.15-0.019l0.099-0.021l0.151-0.004l0.114,0.071l0.074,0.081l0.074,0.064l0.035,0.061l0.005,0.125l0.011,0.125
			l0.022,0.1l0.045,0.101l0.062,0.051l0.133,0.052l0.361,0.051l0.215-0.01l0.177-0.027l0.174-0.014l0.243-0.019l0.278-0.054
			l0.128-0.074l0.129-0.125l0.041-0.129l0.008-0.131l-0.006-0.096l-0.021-0.035l-0.104-0.025l-0.173-0.102l-0.075-0.056
			l-0.026-0.062v-0.064l0.041-0.08l0.069-0.049l0.069-0.024l0.11,0.011l0.189,0.076l0.202,0.117l0.225,0.096l0.127,0.043
			l0.064-0.011l0.07-0.024l0.047-0.1l0.136-0.32v-0.055l-0.021-0.041l-0.059-0.015l-0.104,0.015l-0.222,0.079l-0.082,0.024
			l-0.114,0.02l-0.041-0.016l-0.028-0.055l0.013-0.061l0.046-0.035l0.188-0.109l0.177-0.076l0.255-0.049l0.122-0.015l0.268,0.003
			l0.068,0.03l0.023,0.045l-0.001,0.056l-0.029,0.094l-0.047,0.066L17.39,30.74l-0.104,0.09l-0.029,0.051l-0.03,0.08l-0.007,0.104
			l0.011,0.13l0.041,0.021l0.075,0.015l0.066-0.001l0.057-0.038l0.08-0.051l0.061-0.097l0.041-0.139l0.069-0.195l0.067-0.125
			l0.105-0.086l0.102-0.051h0.061l0.086,0.041l0.032,0.064l0.064,0.075l0.174,0.087l0.139,0.087l0.093,0.028l0.021,0.035
			l0.013,0.092l-0.034,0.133l-0.016,0.131l0.014,0.023l0.047,0.028l0.086,0.007l0.16-0.033l0.133-0.017l0.094,0.019l0.14,0.07
			l0.099,0.069l0.079,0.093l0.039,0.069l-0.007,0.045l-0.034,0.022l-0.053,0.012l-0.106,0.005l-0.12-0.029l-0.064-0.04l-0.061-0.031
			l-0.111-0.041l-0.101-0.006l-0.061,0.004l-0.06,0.022l-0.048,0.029l-0.026,0.04l-0.015,0.062l0.021,0.081l0.052,0.081l0.086,0.081
			l0.079,0.052l0.199,0.094l0.172,0.037l0.226,0.019l0.261,0.001l0.372-0.016l0.286-0.025L20.549,32l0.113-0.022l0.07,0.002
			l0.054,0.029l0.046,0.063l0.059,0.08l0.101,0.047l0.112-0.004l0.094-0.029l0.088-0.062l0.047-0.086l0.055-0.144l0.028-0.12
			l0.047-0.126l0.081-0.125l0.066-0.059l0.048-0.027h0.072l0.073,0.018l0.039,0.035l0.047,0.046l0.005,0.126l-0.007,0.062
			l-0.041,0.082l-0.088,0.153l-0.041,0.069l-0.007,0.051l-0.001,0.08l0.025,0.029l0.047,0.022l0.187-0.01l0.16-0.045l0.167-0.067
			l0.347-0.141l0.188-0.051l0.146,0.002l0.232,0.019l0.239,0.071l0.284,0.037l0.246-0.021l0.174-0.074l0.08-0.064l0.073-0.098
			l0.068-0.086l0.047-0.045h0.06l0.079,0.041l0.113,0.088l0.063,0.104l0.087,0.018l0.079-0.021l0.161-0.119l0.081-0.113l0.001-0.07
			L25.111,31.5l-0.026-0.041l-0.046-0.028l-0.141-0.024l-0.305-0.024l-0.087-0.041l-0.059-0.058l-0.025-0.086l0.001-0.127
			l0.033-0.057l0.054-0.029l0.048-0.011l0.079-0.005l0.591,0.104l0.152,0.023l0.153,0.001l0.18-0.017L25.814,31l0.103-0.166
			l0.144-0.344l0.022-0.178l-0.026-0.081l-0.086-0.047l-0.086-0.034l-0.033-0.047l-0.011-0.074l0.021-0.039l0.053-0.045l0.074-0.029
			l0.238-0.016l0.16-0.033l0.207-0.084l0.106-0.067l0.062-0.068l0.001-0.052l-0.011-0.264l-0.046-0.104l-0.046-0.034l-0.061-0.019
			l-0.054,0.017l-0.061,0.068l-0.128,0.113l-0.073,0.029l-0.061-0.007l-0.02-0.052l0.11-0.361l0.062-0.091l0.061-0.028l0.112-0.004
			l0.113-0.011l0.127-0.022l0.093-0.033l0.121-0.092l0.055-0.121l0.021-0.107l-0.013-0.023l-0.04-0.012l-0.095,0.012l-0.192,0.072
			l-0.167,0.039l-0.146,0.027l-0.113,0.021l-0.112-0.012l-0.073-0.012l-0.092-0.059l-0.179-0.145l-0.073-0.046l-0.06-0.024h-0.054
			l-0.047,0.04l-0.074,0.045h-0.033l-0.031-0.04v-0.076l0.015-0.062l0.087-0.073l0.053-0.028l0.027-0.033l0.035-0.114l0.041-0.155
			l0.067-0.085l0.101-0.045l0.121-0.051l0.199-0.021l0.105,0.012l0.073,0.047l0.078,0.068l0.086,0.088l0.099,0.076l0.106,0.034
			l0.054-0.017l0.021-0.062l-0.025-0.07l-0.066-0.074l-0.071-0.081l-0.025-0.086l0.001-0.099l0.021-0.068l0.102-0.085l0.127-0.097
			l0.001-0.063l-0.04-0.028l-0.086-0.002l-0.061,0.006l-0.061-0.007l-0.025-0.046l0.027-0.104l0.062-0.114l0.048-0.069l0.04-0.017
			h0.047l0.06,0.024l0.14,0.053l0.12,0.013l0.105-0.022l0.054-0.039l0.027-0.053l-0.025-0.086l-0.039-0.046l-0.032-0.075
			l-0.005-0.092l0.033-0.074l0.033-0.033l0.047-0.006l0.079,0.029l0.033,0.035l0.035,0.031l0.033,0.006h0.04l0.025-0.022
			l0.001-0.052l0.016-0.098l0.055-0.074l0.086-0.028l0.187-0.022l0.088,0.002l0.047,0.012l0.033,0.029l0.045,0.098l0.053,0.068
			l0.059,0.059l0.066,0.041l0.119,0.014l0.074-0.018l0.061-0.074l0.102-0.104l0.054-0.021l0.112-0.016l0.142,0.035l0.164,0.088
			l0.133,0.059h0.12l0.04-0.033l0.008-0.068l-0.04-0.053l-0.085-0.088l-0.112-0.041l-0.109-0.07l-0.065-0.08l-0.05-0.09
			l-0.021-0.116l0.007-0.202l-0.035-0.109L28.91,25.32l-0.107-0.101l-0.153-0.093l-0.139-0.088l-0.321-0.09l-0.516-0.127
			l-0.418-0.053l-0.23,0.012l-0.07,0.043l-0.069,0.078l-0.043,0.215l-0.019,0.172l-0.03,0.049l-0.088-0.006l-0.113-0.031l-0.19-0.01
			l-0.137,0.023l-0.167,0.045l-0.143,0.037l-0.096,0.002l-0.104-0.025l-0.081-0.045l-0.104-0.061l-0.098-0.025l-0.217-0.037
			l-0.177-0.002l-0.111-0.004l-0.122-0.08l-0.05-0.068l-0.004-0.145l-0.037-0.192l-0.02-0.089l-0.034-0.068l-0.046-0.107
			l-0.036-0.157l-0.002-0.062l0.038-0.078l0.036-0.11l0.029-0.076l0.07-0.063l0.04-0.008l0.12,0.025l0.072,0.025l0.098,0.026
			l0.055-0.015l0.023-0.008v-0.027l-0.003-0.089l-0.033-0.048l0.014-0.084l0.046-0.069l0.039-0.042l-0.002-0.042l-0.041-0.062
			l-0.05-0.041l0.007-0.055l0.009-0.027l0.062-0.028l0.244-0.123l0.284-0.149l0.244-0.13l0.26-0.136l0.069-0.057l0.021-0.076
			l-0.001-0.042l-0.098-0.125l-0.226-0.278l-0.131-0.143l-0.058-0.047l-0.012-0.082l0.037-0.117l0.047-0.057l0.07-0.043l0.088-0.016
			l0.11-0.03l0.047-0.049l-0.004-0.138l-0.001-0.062l0.014-0.033l0.087-0.064l0.055-0.057l0.008-0.041l-0.01-0.08l-0.059-0.096
			l-0.116-0.129l-0.122-0.094l-0.09-0.066l-0.146,0.078l-0.154,0.049l-0.1,0.002l-0.184-0.108l-0.353-0.324l-0.24-0.215
			l-0.081-0.074l-0.042-0.032l-0.117,0.002l-0.174,0.014l-0.186-0.012l-0.074-0.019l-0.142-0.087l-0.229-0.205l-0.168-0.139
			l-0.086-0.096l-0.036-0.133l-0.044-0.171l-0.006-0.077l0.004-0.065l0.034-0.097l0.056-0.06l0.079-0.091l0.062-0.126l0.073-0.138
			l0.043-0.068l0.092-0.059l0.166-0.045l0.142-0.039l0.108-0.049l0.084-0.017l0.074-0.06l0.023-0.043l0.014-0.043l0.062-0.193
			l0.056-0.126l0.105-0.288l0.072-0.134l0.037-0.066l0.051-0.036l0.014-0.024l-0.015-0.029l-0.033-0.019l-0.04-0.046l-0.026-0.033
			l0.008-0.053l0.024-0.021l0.025-0.019l0.04-0.016l0.077-0.007l0.073-0.002l0.066,0.016l0.052,0.024l0.052,0.02l0.04,0.005
			l0.106,0.001l0.054,0.015l0.058,0.003l0.046-0.007l0.066-0.042l0.03-0.026l0.015-0.036l-0.01-0.027l-0.019-0.034l-0.015-0.069
			l-0.003-0.042l0.019-0.042l0.047-0.017l0.055-0.008l0.05,0.025l0.04,0.032l0.058,0.01l0.067-0.025l0.055-0.028l0.038-0.03
			l0.054-0.008l0.076-0.007l0.042,0.013l0.033-0.001l0.05-0.027l0.023-0.047l0.001-0.047l0.017-0.051l0.019-0.046l-0.007-0.056
			l-0.024-0.039l-0.04-0.032l-0.013-0.056l0.031-0.062l0.097-0.044l0.049-0.008l0.113-0.009l0.062-0.033l0.02-0.037l0.001-0.047
			l-0.041-0.061l-0.019-0.006l-0.104-0.094l-0.048-0.063l-0.053-0.092l-0.018-0.107l-0.005-0.071l0.017-0.055l0.041-0.064
			l0.053-0.065l0.117-0.052l0.139-0.08l0.203-0.143l0.237-0.181l0.156-0.102l0.045-0.05l-0.002-0.062l-0.021-0.097l-0.019-0.088
			l-0.017-0.074l0.016-0.036l0.046-0.046l0.049-0.027l0.032-0.034l-0.016-0.045l-0.043-0.07l-0.061-0.096l-0.016-0.103l-0.013-0.051
			l0.039-0.054l0.076-0.031l0.041-0.069l-0.003-0.095l-0.02-0.06l0.02-0.07l0.044-0.026l0.068-0.021l0.061-0.029l0.014-0.054
			l-0.048-0.117l-0.017-0.079l0.041-0.064l0.038-0.035l0.081-0.013l0.114-0.004l0.162,0.027l0.08-0.013l0.08-0.046l0.074-0.064
			l0.056-0.081l0.018-0.051l-0.005-0.052l-0.031-0.067l-0.058-0.058l-0.063-0.091l-0.05-0.073l-0.007-0.085l0.009-0.063l0.011-0.054
			l0.054-0.062l0.057-0.052l0.05-0.027l-0.005-0.052l-0.017-0.045l-0.049-0.045l-0.122-0.076l-0.072-0.079l-0.021-0.093l0.005-0.054
			l0.062-0.034l0.096-0.044l0.074-0.017l0.044-0.007l0.004-0.058l-0.025-0.053l-0.102-0.137l-0.425-0.397l-0.24-0.182l-0.181-0.11
			l-0.152-0.038l-0.069,0.012l-0.066,0.025l-0.131,0.15l-0.305,0.341l-0.182,0.144l-0.087,0.033l-0.095,0.005l-0.099-0.018
			l-0.193-0.098l-0.169-0.112l-0.248-0.219l-0.14-0.13l-0.065-0.071l-0.063-0.042l-0.046-0.006l-0.073-0.027l-0.063-0.042
			l-0.016-0.041l0.032-0.029l0.124-0.044l0.383-0.065l0.214-0.039l0.145-0.057l0.14-0.08l0.117-0.1l0.157-0.203l0.09-0.153
			l0.069-0.193l0.044-0.236l0.028-0.278l0.016-0.299l-0.019-0.165l-0.017-0.231l-0.003-0.144l0.05-0.198l0.032-0.092l0.062-0.077
			l0.09-0.101l0.088-0.08l-0.014-0.136l-0.049-0.119L26.715,7.55l-0.099-0.051L26.461,7.33l-0.039-0.097l-0.027-0.271l0.009-0.234
			l0.017-0.264l0.003-0.136l0.033-0.076l0.074-0.101l0.078-0.033l0.146-0.057l0.161-0.017l0.228-0.052l0.244-0.044l0.087-0.018
			l0.121-0.071l0.095-0.085l0.135-0.14l0.108-0.124l0.077-0.062l0.197-0.111l0.247-0.226l0.227-0.278l0.175-0.276l0.134-0.434
			l0.048-0.145l0.049-0.093l0.061-0.062l0.066-0.055l0.207-0.119l0.172-0.095l0.096-0.108l0.05-0.062l0.03-0.107l0.017-0.061
			l-0.033-0.203l-0.008-0.204l0.004-0.121l-0.04-0.134l-0.073-0.088l-0.082-0.073l-0.107-0.065l-0.116-0.05l-0.17-0.063
			l-0.037-0.052l-0.031-0.127l-0.047-0.082l-0.082-0.088L28.89,1.807l-0.188-0.1L28.63,1.663l-0.087-0.116l-0.131-0.2l-0.087-0.194
			l-0.146-0.146l-0.152-0.116l-0.226-0.107l-0.072-0.051L27.71,0.712l-0.119,0.083l-0.113,0.096L27.422,0.95l-0.31,0.298
			L26.749,1.58l-0.332,0.326l-0.301,0.342l-0.188,0.23l-0.16,0.251L25.7,2.814l-0.025,0.091l-0.057,0.07l-0.131,0.086l-0.275,0.133
			l-0.4,0.182l-0.48,0.219l-0.4,0.176l-0.368,0.213L23.27,4.163l-0.169,0.144l-0.198,0.17l-0.069,0.059L22.74,4.595l-0.112,0.042
			l-0.148,0.021l-0.198,0.021l-0.175,0.01l-0.225-0.022l-0.329-0.059l-0.105-0.032l-0.252-0.063l-0.243-0.059l-0.317-0.005
			l-0.329,0.005l-0.161-0.043l-0.188-0.086l-0.143-0.032h-0.081l-0.198,0.053l-0.312,0.138l-0.268,0.08l-0.162,0.032L18.682,4.58
			l-0.137-0.048l-0.148-0.069l-0.043-0.069V4.325l-0.02-0.064l-0.081-0.054l-0.081-0.016h-0.087L17.981,4.24l-0.145,0.112
			L17.7,4.405l-0.118,0.021l-0.087,0.011l-0.062,0.021l-0.024,0.021l-0.014,0.075L17.358,4.65l-0.031,0.053l-0.044,0.032
			l-0.081,0.021l-0.08,0.053l-0.019,0.033L17.09,4.895l0.02,0.069l0.018,0.059v0.048l-0.018,0.053l-0.051,0.048L16.991,5.21
			l-0.101,0.032l-0.074,0.016l-0.111-0.021l-0.118-0.048h-0.074l-0.138,0.048l-0.316,0.144l-0.188,0.091l-0.089,0.006l-0.075-0.016
			l-0.043-0.048l-0.02-0.064l-0.08-0.075L15.496,5.28l-0.074,0.016l-0.131,0.037l-0.087,0.016L15.16,5.338l-0.087-0.032
			l-0.067-0.064l-0.068-0.026l-0.094,0.005l-0.05,0.032l-0.031,0.059L14.75,5.376l0.038,0.091l0.067,0.037l0.024,0.042l-0.031,0.032
			l-0.073,0.011L14.67,5.594l-0.112,0.021l-0.056,0.048l-0.057,0.064l-0.02,0.075l0.02,0.075l0.044,0.064l0.05,0.053l0.074,0.042
			l0.044,0.032l0.023,0.038l0.007,0.042L14.675,6.19l-0.05,0.059L14.538,6.34l-0.05,0.048l-0.021,0.058l-0.006,0.091l0.006,0.059
			l0.024,0.064l0.105,0.064l0.242,0.085l0.218,0.096l0.062,0.059l0.031,0.069l0.035,0.203l-0.019,0.176l-0.074,0.182l-0.118,0.102
			l-0.117,0.053l-0.212,0.032l-0.224,0.016l-0.305,0.005l-0.1,0.016L13.975,7.86l-0.05,0.08l-0.013,0.091l0.013,0.064l0.044,0.079
			l0.087,0.123l0.074,0.081l0.124,0.096l0.149,0.09l0.148,0.038l0.149,0.037l0.037,0.043l-0.007,0.08v0.042l-0.03,0.016
			l-0.062,0.032l-0.05,0.011l-0.024,0.032l-0.02,0.063v0.096L14.527,9.15l-0.089,0.091l-0.079,0.048h-0.064L14.148,9.27
			l-0.303-0.022l-0.111,0.02l-0.042,0.107l-0.07,0.124l-0.154,0.126L13.209,9.73l-0.213,0.096l-0.225,0.04l-0.168,0.038
			l-0.083,0.043l-0.043,0.09l-0.114,0.587l-0.024,0.284l0.017,0.153l0.089,0.086l0.062,0.16l0.02,0.193l-0.043,0.309l-0.101,0.358
			l-0.113,0.198l-0.108,0.077l-0.103,0.052l-0.104,0.003l-0.094,0.011l-0.185,0.104l-0.098,0.108l-0.044,0.082l-0.033,0.099
			l-0.061,0.115l-0.102,0.06l-0.122,0.012L11.096,13.1l-0.186,0.047l-0.109,0.076l-0.062,0.091l-0.11,0.052l-0.138,0.069
			l-0.177,0.071l-0.12,0.036l-0.14,0.038l-0.062,0.066L9.96,13.745l-0.031,0.163l-0.001,0.17l0.005,0.105l-0.023,0.098l-0.081,0.068
			l-0.081,0.076l0.003,0.089l-0.015,0.34l0.009,0.194l-0.035,0.074l-0.051,0.107l-0.09,0.092l-0.119,0.077l-0.183,0.12l-0.174,0.119
			l-0.079,0.116l-0.032,0.139l-0.033,0.26l0.038,0.242l0.01,0.186L8.99,16.669L8.964,16.71l-0.053,0.075l-0.101,0.084l-0.054,0.059
			l-0.025,0.057l-0.006,0.073l-0.021,0.138l-0.062,0.091l-0.091,0.068l-0.164,0.103l-0.17,0.101l-0.09,0.076l-0.035,0.066
			l0.012,0.056l0.032,0.072l0.003,0.065l-0.016,0.065l-0.119,0.076l-0.149,0.021l-0.233,0.008l-0.234,0.017l-0.045,0.034
			l-0.027,0.033l0.003,0.064l0.022,0.072l0.012,0.057L7.34,18.488L7.264,18.66l-0.091,0.084l-0.091,0.061l-0.074,0.02l-0.094,0.002
			l-0.076-0.021l-0.163-0.067L6.58,18.734l-0.148,0.028l-0.232,0.041l-0.287,0.075l-0.231,0.089l-0.19,0.136l-0.152,0.135
			l-0.184,0.289l-0.079,0.135l-0.061,0.131l-0.079,0.115L4.82,20.018L4.76,20.166l-0.048,0.18L4.69,20.406l-0.169,0.261
			l-0.054,0.075l-0.022,0.082l0.021,0.063l0.126,0.077l0.332,0.064l0.369,0.082l0.202,0.09l0.126,0.093l0.088,0.069l0.047,0.006
			l0.082-0.051l0.079-0.115l0.055-0.043l0.073-0.043l0.062,0.013l0.09,0.04l0.1,0.118l0.595,0.675l0.251,0.348l0.068,0.055
			l0.095,0.021l0.093-0.021l0.138-0.077l0.057-0.001l0.058,0.014l0.089,0.102l0.068,0.055l0.075,0.006l0.14-0.029l0.211-0.104
			l0.025-0.049l0.032-0.115l0.034-0.292l0.049-0.155l0.054-0.051l0.065-0.018l0.104,0.013l0.088,0.062l0.033,0.129l0.013,0.266
			l-0.056,0.222l-0.14,0.224l-0.06,0.172L8.44,22.988l0.006,0.088l0.029,0.16l0.036,0.388l0.045,0.151l0.11,0.166l0.156,0.125
			l0.335,0.15l0.296,0.12l0.152,0.067l0.03,0.047l0.003,0.057l-0.045,0.05l-0.127,0.095l-0.229,0.112l-0.084,0.019L9.041,24.74
			l-0.084,0.011l-0.083,0.036l-0.09,0.076l-0.035,0.058l0.021,0.071l0.003,0.058l-0.017,0.049l-0.038,0.009l-0.083,0.02L8.6,25.16
			l0.003,0.064l0.05,0.055l0.077,0.055l0.096,0.005l0.073-0.011l0.063-0.043l0.131-0.012l0.144,0.051l0.06,0.072l0.031,0.062
			l0.065,0.006L9.35,25.501l-0.043,0.091l-0.138,0.141L8.95,25.997l-0.253,0.22l-0.175,0.107L8.421,26.37l-0.096,0.022H8.21
			l-0.127-0.023l-0.084-0.064l-0.143-0.128l-0.151-0.151l-0.101-0.051l-0.048-0.004l-0.058-0.009l-0.048,0.004L7.42,25.988
			l-0.043,0.045l-0.085,0.091L7.19,26.188l-0.067,0.026H7.054L6.98,26.186l-0.104-0.082l-0.132-0.078l-0.102-0.041H6.581
			l-0.068,0.013l-0.069,0.05L6.39,26.092L6.285,26.16l-0.069,0.021l-0.101,0.004l-0.143-0.022L5.819,26.08l-0.263-0.147
			l-0.062-0.028H5.458L5.39,25.91l-0.085,0.039l-0.09,0.041l-0.105,0.041L5.005,26.05l-0.069-0.01l-0.053-0.032l-0.115-0.087
			l-0.131-0.104l-0.163-0.129L4.437,25.66l-0.079-0.022l-0.053-0.009H4.21l-0.074,0.009l-0.068,0.009l-0.012,0.02v0.041v0.05
			L4.019,25.82l-0.085,0.119l-0.128,0.182L3.72,26.264"/>
	</g>
</g>
<g id="Layer_1">
</g>
</svg>
