<?xml version="1.0" encoding="utf-8"?>
<!-- Generator: Adobe Illustrator 16.0.4, SVG Export Plug-In . SVG Version: 6.00 Build 0)  -->
<!DOCTYPE svg PUBLIC "-//W3C//DTD SVG 1.1//EN" "http://www.w3.org/Graphics/SVG/1.1/DTD/svg11.dtd">
<svg version="1.1" id="Layer_1" xmlns="http://www.w3.org/2000/svg" xmlns:xlink="http://www.w3.org/1999/xlink" x="0px" y="0px"
	 width="301.398px" height="330.474px" viewBox="-125.605 -137.937 301.398 330.474"
	 style="enable-background:new -125.605 -137.937 301.398 330.474;" xml:space="preserve">
<g id="Layer_31">
	<path id="Dera_Ismail_Khan" style="fill:#CCCCCC;stroke:#FFFFFF;stroke-width:1.15;" d="M-59.736,186.53L-59.736,186.53l0.354-0.4
		l-0.302-0.476l0.209-0.372l0.215-0.308l0.755-0.633l0.255-0.621l0.116-0.865l0.197-0.946l0.128-0.528l0.481-0.691l1.022-0.97
		l0.604-0.888l0.284-0.511l1.626-1.95l0.522-1.099l0.343-0.864l0.436-0.175l0.783-0.093l0.616-0.221l0.661-0.191l1.121-0.157
		l0.615-0.104l0.87-0.175l2.479-0.319l2.293-0.063l1.167-0.255l1.231-0.291l0.377,0.012l1.202-0.255l1.027-0.21l0.871-0.063
		l1.591-0.099l1.103-0.331l0.854-0.755l0.18-0.621l0.041-0.528l0.621-0.871l0.831-0.4l0.795-0.487l0.383-0.459l0.354-0.371
		l-0.122-0.418l0.54-0.802l0.592-0.964l-0.075-0.621l0.151,0.018l1.323,0.012l0.958-0.627l0.906-0.512l0.899-0.075l0.883,0.007
		l0.807,0.267l1.376,0.871l1.991,1.056l1.817,0.453l1.887,0.191l0.899,0.273l0.366,0.354l0.389,0.866l0.297,0.44l0.493,0.256
		l0.621-0.343l0.313-0.424l0.505-0.162l0.203-0.25l0.505-0.087l0.877,0.104l0.895,0.359l1.288,0.871l1.399,0.534l1.707-0.07
		l3.31,0.123l2.81,0.041l1.614,0.185l0.598,0.104l0.912-0.343l0.505-0.336l1.039-1.968l1.533-1.446l1.852-0.749l1.516-0.586
		l1.503,0.022l1.707,0.019l1.904,0.022l1.684,0.279l0.395,0.093l0.297,0.092l0.807,0.273l0.493,0.436l0.181,0.784l0.278,1.288
		l0.284,1.214l0.384,0.697l2.096,1.056l1.875,0.471l1.219,0.262l1.197,0.365l0.929,0.609l0.058-0.017l0.999-0.604l0.702-0.802
		l0.418-0.754l0.384-1.115l0.486-2.177l0.21-1.236l-0.128-0.721l-0.232-0.65l-0.296-0.922l-0.121-0.581l0.052-0.54l0.121-0.389
		l0.232-0.431l0.372-0.214l0.487-0.191l1.394-0.337l1.114-0.18l0.64-0.129l0.621-0.399l0.714-0.616l0.609-0.708l0.081-0.11
		l0.54-1.144l0.181-0.819l-0.129-0.812l0.169-0.615l0.789-0.487l1.475-0.128l1.545,0.029l1.376-0.976l0.325-1.104l-0.012-0.522
		l-0.372-0.308l-0.405-0.191l-0.93-0.383l-0.539-0.209l0.081-0.268l0.243-0.464l0.465-0.273l0.761,0.023l0.604,0.04l1.068-0.006
		l0.528-0.121l0.22-0.372l-0.087-0.533l-0.168-0.273l0.139-0.574l0.146-0.471l-0.04-0.807l-0.238-0.866l0.018-1.167l0.029-1.207
		l0.052-0.563l0.285-0.214l0.371-0.07l0.517,0.116l0.528,0.069l0.528-0.115l2.107-0.209l2.891-0.023l1.017-0.244l0.94-0.406
		l0.761-0.349l0.348-0.365l0.366-0.297l0.232-0.231l0.87-0.332l0.656-0.411l0.129-0.354l0.116-0.396l-0.28-0.533l-0.632-0.424
		l-0.621-0.128l-0.633-0.418l-0.081-0.487l0.145-0.68l0.175-0.662l0.383-0.951l0.261-1.075l0.186-0.992l0.378-1.359l0.47-1.032
		l0.65-0.889l0.441-0.749l0.064-0.406l-0.168-0.366l-0.384-0.278l-0.634-0.278l-0.614-0.128l-1.667-0.272l-0.411-0.088l-0.372-0.139
		l-0.325-0.488l-0.383-0.47l-0.023-0.854l-0.006-0.708l-0.076-0.953l0.064-0.696l-0.14-0.453l-0.708-0.389l-0.47-0.244l-0.569-0.261
		l0.029-0.273l0.156-0.156l0.511-0.052l0.929,0.011l0.465,0.058l0.94,0.303l1.37,0.018l2.276,0.122l0.465-0.087l0.435-0.192
		l0.197-0.145l0.151-0.569l0.146-0.487l-0.053-0.952l-0.197-0.413l-0.39-0.371l-1.491-0.883l-0.812-0.604l-0.953-0.679l-0.592-0.599
		l-0.424-0.986l-0.401-0.511l-0.295-0.303l-0.772-0.162l-0.686-0.104l-0.481-0.07l-0.372-0.127l-0.162-0.372l0.232-0.795
		l0.209-0.523l0.272-0.545l0.169-0.197l0.284-0.222l0.337-0.017l0.533-0.128l0.372-0.296l0.262-0.319l0.186-0.436l0.035-0.69
		l-0.244-0.518l-0.047-0.767l0.116-0.383l0.238-0.232l0.401-0.058l0.476,0.058l0.557-0.209l0.702-0.511l0.232-0.418l0.157-0.615
		l0.082-0.929l0.226-0.424l0.279-0.122l0.864-0.046l0.36-0.21l0.121-0.487l0.013-0.609l-0.186-0.465l-0.646-0.702l-0.343-0.599
		l-0.586-0.835l-0.075-0.668l-0.203-0.796l-0.726-0.534l-0.616-0.278l-0.615-0.557l0.064-0.785l0.156-0.527l0.616-0.993l0.65-0.935
		l0.337-0.215l0.237-0.795l-0.075-0.662l-0.407-0.477l-0.44-0.29l-0.727-0.151l-0.464-0.289l-0.128-0.164l0.122-0.312l0.302-1.011
		l0.761-1.822l0.819-1.649l0.951-1.729l1.161-1.672l1.271-1.701l0.865-1.039l0.615-0.343l1.857-1.098l0.866-0.244l0.8,0.081
		l2.694,0.593l1.486,0.18l0.383-0.191l0.157-0.43l-0.278-0.534l-0.244-0.29l-1.504-0.331l-0.551-0.157l-0.146-0.267l-0.133-0.558
		l0.208-1.457l0.436-1.742l0.383-1.653l0.599-1.099l0.627-0.8l0.284-0.407l1.173-0.783l1.23-0.616l0.621-0.331l0.326-0.446
		l0.318-0.686l0.116-0.72l0.441-1.881l0.395-0.947l0.325-0.359l0.371-0.296l0.472-0.325l1.132-0.465l0.905-0.645l0.545-0.354
		l0.384-0.621l0.552-1.58l0.25-0.848l0.324-0.354l0.366-0.197l0.562-0.116h0.813l0.871-0.012l0.911-0.127l0.569-0.384l0.424-0.343
		l0.18-0.615l0.296-0.975l0.146-0.303l2.311-3.448l1.121-1.486l0.842-2.038l0.848-2.578l0.87-3.013l0.54-1.394l0.546-2.031
		l0.243-1.039l0.308-1.545l0.372-1.294l0.592-0.744l0.854-0.789l1.058-0.494l2.623-1.021l1.115-0.389l0.418-0.296l0.059-0.396
		l0.012-0.645l-0.122-0.65l-0.384-1.637l-0.278-1.045l0.122-0.854l0.371-0.639l0.396-0.441l0.614-0.69l0.709-0.738l0.122-0.499
		l-0.378-0.598l-0.289-0.802l-0.361-1.294l0.129-0.888l0.243-0.993l0.256-0.976l0.226-0.865l0.686-1.944l-0.436-2.746L99.62,7.627
		L99.423,7.25l0.767-2.903l0.168-1.196l0.406-2.891l-0.58-2.281l-0.268-2.456l-0.615-0.587l-0.343-0.673l-0.389-0.668L98.54-7.084
		l-0.006-0.343l0.662-0.441l0.812-0.267l1.603-0.029l1.289-0.197l0.98-0.784l0.883-0.615l0.552-1.614l-0.012-0.604l-0.012-0.25
		l-0.018-0.679l0.279-0.767l0.575-0.864l0.476-0.854l0.162-0.999l0.447-1.713l0.366-0.766l0.453-1.8l0.144-1.503l1.128-1.887
		l0.667-1.121l0.575-0.946l0.383-0.511l-0.069-1.782l-0.191-0.586l-0.419-0.673l-0.714-0.493l-0.511-0.325l-0.506-0.337
		l-0.313-0.505l-0.029-0.847l-0.033-0.68l0.935-2.142l0.371-1.794l0.47-0.859l0.459-1.277l0.163-0.772l0.197-0.168l0.365-0.517
		l0.511-0.012l1.898,0.557l1.614,0.39l3.008,0.116l0.864-0.186l1.301-1.039l0.946-1.039l1.434-2.322l1.48-1.544l0.604-0.772
		l0.783-0.865l0.563-1.457l0.022-0.058l0.274-0.511l-0.007-0.244l-0.012-0.494l-0.227-0.244l-0.302-0.488l-0.226-0.365l-0.366-0.424
		l-0.905-1.335l-0.256-1.284l-0.128-1.66l-0.04-1.475l0.65-2.967l0.382-1.115l0.575-0.871l0.772-0.935l0.696-0.871l0.553-1.184
		l0.841-1.121l1.283-1.19l1.133-0.581l0.87-0.366l0.709-0.383l0.911-0.511l0.499-0.5l0.418-0.615l0.378-1.236l0.395-1.365
		l0.546-1.114l0.575-0.993l0.568-0.813l1.208-1.068l1.485-1.196l2.602-2.38l6.815-5.475l1.092-1.004l1.086-0.755l1.178-1.248
		l0.424-0.499l0.425-0.563l0.354-0.313l0.499-0.198l0.65-0.127l1.017,0.104l0.807,0.232l1.016,0.104l2.352,0.145l1.021,0.041
		l1.358,0.163l0.372,0.052l1.597-0.087l0.871-0.505l0.789-0.325l0.499-0.441l0.349-0.493l0.297-0.616l-0.064-1.66l-0.302-0.912
		l-0.302-0.488l-0.738-0.667l-1.038-0.906l-0.453-0.662l-0.325-0.981l-0.029-1.294l0.668-1.544l0.272-0.807l0.592-0.377l0.588-0.012
		l1.021,0.232l0.794,0.046l0.604-0.441l-0.237-0.795l-1.173-0.534l-0.871-0.598l-0.365-0.18l-0.019-0.366l0.197-0.807l0.175-1.167
		l0.854-2.229l0.615-1.422l0.371-1.916l0.047-0.517l0.018-0.134l0.081-0.453l0.871-2.56l0.558-2.049l0.406-2.363l0.325-1.8
		l0.098-0.377l-0.22-0.255h-0.372l-0.76-0.005l-1.277-0.146l-0.981-0.459l-0.371-0.952l-2.085-5.097l-0.777-1.445l-0.441-0.377
		l-1.359-0.116l-1.242,0.18l-1.822,0.081l-1.707,0.273l-0.21,0.383l-0.005,0.482l-0.018,0.29l0.575,0.767l-0.013,0.865l-0.011,1.051
		l-0.824,0.76l-0.656,0.087l-1.016-0.197l-1.121-0.006l-1.243-0.012l-0.905,0.186l-0.44,0.377l-0.447,0.767l-0.244,1.045
		l-0.477,2.201l-0.238,1.144l-0.894,0.186l-0.789-0.006l-1.358-0.389l-1.005-0.679l-1.364-0.871l-0.998-1.347l-1.231-0.963
		l-1.353-0.877l-0.181-0.214l-0.33-0.395l-3.118,2.77l-1.938,2.461l-1.649,2.096l-0.957,1.591l-2.096,2.711l-1.109,1.475
		l-0.731,0.807l-0.378,0.423l-1.399,0.511l-0.87,1.562l-2.021-1.115h-0.005l-2.886-1.614l0.012-0.123l-0.592-0.458l-0.07,0.005
		l-0.059-0.087l-0.133-0.122l-1.51,0.041l-0.714,0.546l-0.145,0.151l-0.14,0.209l-0.191,0.134l-0.163,0.151l-0.121,0.215
		l-0.203,0.203l-0.232,0.123l-0.244,0.127l-0.255,0.174l-0.227,0.017l-0.135,0.215l-0.104,0.221l-0.1,0.319l-0.168,0.267
		l-0.784,1.266l-0.295,0.389l-0.128,0.314l-0.029,0.232l-0.244,0.278l-0.296,0.116l-0.162,0.046l-0.07,0.017l-0.18,0.047
		l-0.476,0.372l-0.041,0.058l-0.046,0.476l-0.151,0.139l-0.372,0.151l-0.343,0.122l-0.22,0.139l-0.262,0.215l-0.319,0.238
		l-0.198,0.047l-0.202,0.076l-0.708,0.284l-0.279,0.07l-0.313,0.145l-0.261,0.116l-0.366,0.25l-0.481,0.313l-0.059,0.052
		l-0.145,0.151l-0.21,0.494l-0.255,0.581l-0.069,0.261l-0.232,0.395l-0.209,0.139l-0.477,0.145l-0.754,0.429l-0.053,0.163
		l-0.128,0.191l-0.181,0.232l-0.573,0.284l-0.11,0.041l-0.378,0.302l-0.122,0.308l-0.197,0.163l-0.424,0.539l-0.14,0.209
		l-0.243,0.099l-0.384,0.122l-0.337,0.064l-0.4,0.331l-0.383,0.313l-0.476-0.127l-0.059,0.006l-0.39,0.157l-0.092,0.191
		l-0.238,0.313l-0.023,0.006l-0.221,0.087l-0.697,0.076l-0.139,0.029l0,0l-0.453,0.116l-0.023,0.006l-0.116,0.029l-0.365,0.343
		l-0.517,0.685l-0.366,0.25l0,0l-0.127,0.146l-0.122,0.029l-0.146,0.035l-0.018,0.006l-0.505-0.087l-0.546,0.011l-0.128,0.053
		l-0.412,0.151l-0.128,0.063l-0.424,0.244l-0.221,0.011l-0.214,0.041l-0.552-0.006l-0.128,0.012l-0.772,0.801l-0.058,0.017
		l-0.354,0.232L92.363-95l-0.343-0.104l-0.656,0.186l-0.272,0.046l-0.221,0.046l-0.436-0.005l-0.331-0.012l-0.447,0.035
		l-0.632,0.215l-0.384,0.279l-0.639,0.412l-0.615,0.598L86.516-93.2l-0.29,0.099l-0.917,0.663l-0.314,0.011l-0.29-0.081l-0.227-0.07
		l-0.44-0.168l-0.216-0.087l-0.313-0.203l-0.15-0.168l-0.197-0.197l-3.141,1.306l-0.244,0.099l-0.273,0.052l-0.278,0.122
		l-0.028,0.024l-0.129,0.139l-0.174,0.191l0,0l-0.093,0.127l-0.116,0.413l-0.128,0.244l-0.365,0.261l-0.639-0.035l-0.465-0.116
		l-0.11-0.006l-0.22,0.023l-0.123,0.046l-0.371,0.214h-0.005l-0.413,0.337l-0.68,0.528l-0.243,0.25l-0.424,0.453l-0.238,0.18
		l-0.262,0.208l-0.405,0.372l-0.424,0.267l-0.575-0.058l-0.621,0.186l-0.436,0.128h-0.007l-0.028-0.006l-0.371-0.082l-0.865,0.018
		l-0.621,0.104l-0.459,0.244l-0.18,0.14l-0.012,0.006l-0.197,0.099l-0.558,0.215l-0.528,0.122l-0.453,0.279l-0.092,0.099
		l-0.343,0.359l-0.482,0.168l-0.221,0.035l-0.104-0.006l-0.343,0.099l-0.818-0.11l-0.621,0.273l-0.743,0.116l-0.302,0.18
		l-0.093,0.099l-0.175,0.192l-0.256,0.023l-0.173,0.11l-0.564-0.023l-0.696-0.041l-1.021,0.319l-0.94,0.209l-0.604,0.035
		l-0.837,0.029l-0.696,0.029l-0.296,0.18l0,0l-0.064,0.11l-0.33,0.279l-0.296,0.18l-0.209,0.052l-0.059,0.006l-0.546,0.127l0,0
		l-0.121,0.087l-0.285-0.012l-0.371,0.046l-0.569,0.244l-0.035,0.029l-0.156,0.157l-0.575,0.319l-0.133,0.023l-0.122,0.023
		l-0.047,0.006l-0.563,0.139l-0.174,0.191l-0.232,0.459l-0.54,0.273l-0.238,0.028l-0.058,0.012l-0.337,0.075H50.77l-0.586,0.139
		l-0.639,0.093l-0.128,0.011l-0.511,0.11l-0.569,0.279l-0.4,0.261l-0.371,0.227l-1.48-0.047l-0.471,0.123l-0.29,0.127l-0.273,0.168
		l0,0l-0.133,0.209l-0.528,0.743l-0.227,0.128l-0.058,0.046l-0.372,0.308l-0.197,0.087l-0.221,0.052l-0.273,0.204l-0.011,0.238
		l-0.122,0.227l-0.221,0.116l-0.047,0.104l-0.615,0.25l-0.29,0.586l0.063,0.198l-0.098,0.203l-0.245,0.162L41.4-75.708l-0.093,0.122
		l-0.726,0.14l0,0l-0.313,0.145l-0.122,0.041l-0.284,0.145l-0.981,0.679l-0.574,0.395l-1.069,0.366l-0.145,0.006l-0.319,0.099
		l-0.36,0.093l-0.29,0.034l-1.12-0.052l-0.279-0.11l-0.562-0.192l-0.25-0.087l-0.97-0.174l-1.039-0.239l-0.436-0.058l-0.371,0.017
		l-0.349-0.052l0.006-0.006l-0.366-0.116h-0.006l-0.121-0.018l-0.378-0.041l-0.162-0.069l-0.481-0.093l-1.034-0.36l-1.12,0.174
		l-0.702,0.36l-0.866,0.551l-0.133,0.737L24.715-72.7l-0.778,0.714l-0.371,0.389l-0.244,0.122l-0.034,0.029l-0.477,0.267
		l-0.512,0.459l-0.267,0.395l-0.54,0.244l0,0l-0.371,0.151l-0.302,0.145l-0.36,0.168l-0.325,0.209l-0.365,0.18l-0.319,0.145
		l-0.616,0.226l-4.44,0.912l-0.343,0.14l-0.29,0.081l-0.488,0.221l-0.365,0.191l-0.262,0.18l-0.191,0.284l-0.018,0.012l-0.174,0.255
		l-0.877,0.639l-0.528,0.395l-0.465,0.383l-0.371,0.25l-0.07-0.006l-0.099,0.064l-0.452-0.151l-4.094-1.364H5.301l-0.976-0.331
		L3.547-66.79l-0.737-0.035l-0.075-0.058l0,0H2.711L2.34-67.086l-0.122-0.296L2.09-67.795H2.084l-0.627,0.383l-0.499,0.378
		l-1.417,0.888L-1.248-65.6l-0.796,0.349l-0.592,0.226l-0.378,0.569l-0.371,0.395l-0.656,0.604l-0.795,0.488l-0.627,0.15
		l-0.744,0.227l-0.951,0.325l-0.709,0.296l-0.452,0.174l-0.309,0.11l-1.55,0.575l-0.755,0.25l-0.418,0.191l-1.869,0.929l-1.388,0.79
		l-1.364,0.83l-0.755,0.686l-1.248,0.83l-0.366,0.227l-0.511,0.929l-0.15,0.528l-0.465,0.912l-0.865,0.795l-0.755,0.65l-0.639,0.058
		l-0.267,1.155l-0.72,1.295l-0.476,1.051l0.086,0.221l0.116,0.122l-0.017,0.227l-0.064,0.766l-0.029,0.79l-0.133,3.222v0.011
		l0.012,0.174l0.255,1.231l0.285,1.637l-0.059,1.237l0.006,0.43l0.023,0.023l-0.012,0.331l-0.157,4.163l-0.15,0.714l-0.215,0.453
		l-5.324,5.858l-1.55,1.312l-0.349,0.36l-1.051,1.086l-0.452,0.232h-0.006l-0.772,0.395l-0.522,0.255l-0.795-0.238l-0.616-0.389
		l-0.348-0.204l-0.14-0.145l-0.053-0.046l-0.128-0.018l-0.104-0.017l-0.013-0.006l-0.87-0.082l-1.179-0.25l-0.424-0.157
		l-0.621-0.128l-0.534-0.116l-0.761,0.064h-0.023l-0.522,0.238l-0.435-0.134l-1.713-0.626l-0.569,0.005l-0.552,0.174l-0.649,0.65
		l-0.778,0.569l-0.128,0.122l-0.43,0.337l-0.69,0.5h-0.053l-0.412,0.325l-0.702-0.702l-1.057,0.087l-0.459,0.243l-1.185,0.07
		l-0.441-0.459l-0.034-0.023l-0.053-0.029l-0.749-0.035l-0.667,0.365l-1.608,0.674l-0.622,0.256l-0.777,0.11l-0.337,0.354
		l-0.557,0.969l-2.561,0.349l-0.569-0.343l0,0l-0.14-0.035l-0.458-0.168l-0.522-0.15l-0.4-0.087l-0.477,0.018l-0.284,0.331
		l-0.686,1.149l-0.755,0.604l-0.673,0.186l-1.196,0.099l-0.639,0.348l-0.755,0.622l-0.69,0.157l-0.488-0.204l-0.44-0.238
		l-0.325-0.302l-0.354,0.128l-0.633,0.197l-0.221,0.081l-1.114-0.134l-1.144-0.308l-0.39-0.122l-0.905-0.099l-0.366,0.162
		l-0.917,0.123l-0.383,0.063l-0.68-0.018l-0.592-0.4l-0.506-0.006l-0.481-0.11l-0.227-0.499l-0.256-0.244l-0.517-0.191l-1.475-0.389
		l-1.062-0.308l-0.771-0.134l-1.086-0.058l-1.074,0.07l-1.045,0.063l-1.254,0.163l-2.038,0.511l-0.313-0.308l-0.29,0.023
		l-1.585,0.807l-0.801-0.273l-0.686-0.151l-0.215-0.012l-0.587-0.099l-1.05-0.011l-1.371-0.285l-1.474-0.406l-0.854-0.029
		l-1.052-0.087l-0.836-0.285l-1.067-0.627l-0.401-0.726l-0.783-0.905l-1.608-1.388l-0.424-0.099l-0.197,0.075l-0.569,0.145
		l-0.586,0.511l-0.465,0.801l-0.146,0.703l-0.116,0.865l0.151,0.668l0.081,0.092l0.082,0.262l0.349,0.557l0.278,0.505l0.406,0.888
		l0.255,0.342l0.437,0.453l0.214,0.255l0.325,0.244l0.726,0.441l0.518,0.325l-0.047,0.157l0.546,0.349l-1.707,1.684l-0.291,0.023
		l-0.069,0.006l-0.267,0.22l-0.981,0.772l-0.604,0.47l-0.285,0.273l0,0l-0.742,0.796l-0.61,0.824l-0.655,1.103l-0.477,1.155
		l-0.186,0.163l-0.104,0.215l-0.895,0.935l-0.645,0.476l-0.522,0.558l-0.371,0.371l-0.935,0.61l-2.271,1.353h-0.012l-4.58,2.723
		l-0.964,0.488l-0.047,0.018l-0.128,1.463l0.459,0.522l0.546,0.575l0.372,0.453l-0.366,0.436l-0.598,0.459l-0.691,0.481
		l-0.522,0.552l0.406,0.29l0.685,0.424l0.575,0.285l0.615,0.436l0.285,0.952l0.127,0.639l0.082,0.737l0.128,1.051l0.319,0.97
		l0.476,1.346l0.383,1.824l0.256,1.091l0.389,1.48l0.575,2.386l0.349,1.544l0.348,1.689l0.325,1.289l0.203,0.766l0.227,2.16
		l-0.012,1.26l0.621,2.305l0.569,1.748l0.255,0.888l0.366,1.526l0.371,1.672l0.256,1.133l0.488,1.486l0.574,1.236l-0.069,0.679
		l-0.285,0.843l-0.4,1.248l-0.452,1.521l-0.401,1.062l-0.343,1.487l-0.133,0.923l0.191,1.086l0.262,1.184l0.069,0.546l0.046,0.621
		l0.163,1.342l0.075,1.097l0.227,1.399l0.203,1.092l0.122,0.864l0.081,1.034l0.041,0.824l-0.087,0.998l-0.436,1.725l-0.262,0.528
		l-0.313,0.459l-0.609,0.72l-0.987,0.487l-0.424,0.592l-0.029,0.5l1.15,0.308l0.94,0.319l0.696,0.203l0.354,1.283l0.366,1.155
		l0.383,0.615l0.864,1.033l0.871,0.999l0.575,0.545l0.371,0.354l0.818,0.912l0.865,1.051l0.569,0.609l0.796,0.894l0.395,0.5
		l0.726,0.795l0.296-0.063l0.134,0.093l0.406,0.586l0.558,0.157l0.452-0.465l0.511,0.181l0.616,0.795l0.958,0.976l0.888,0.94
		l1.23,0.807l0.865,0.407l0.215,0.517l-0.121,0.94l-0.197,1.138l-0.273,1.898l-0.296,1.26l-0.175,0.604l-0.127,0.766l0.081,0.976
		l0.058,0.383l0.087,0.459l0.297,0.813l0.423,1.038l0.488,1.074l0.517,1.115l0.871,1.846l0.488,1.405l0.696,1.288l0.836,1.318
		l0.366,0.981l0.29,1.173l0.568,0.742l0.633,1.115l0.889,1.062l0.731,1.08l0.528,1.585l0.215,0.615l0.25,0.686l0.29,0.767
		l0.54,1.602l0.162,1.149l0.268,1.44l0.679,1.225l0.714,1.208l0.244,0.516l-0.018,0.656l0.128,1.058l0.645,1.329l0.627,0.986
		l0.354,0.755l0.552,0.79l0.626,0.366l1.383,0.411l0.836,0.553l0.336,0.685l-0.255,0.604l-0.459,0.633l-0.134,0.186l-0.418,0.743
		l0.059,0.767l-0.396,0.615l-1.26,1.445l-0.359,0.355l-0.43,0.812l0.865,0.841l0.527,0.278l0.448,0.326l0.702,0.521l0.702,0.559
		l0.29,1.074l-0.069,0.476l-0.035,0.481l0.047,1.01l0.104,0.704l0.528,1.485l0.731,1.944l0.319,1.04v2.025l-0.284,1.324l0.377,1.44
		l0.726,1.475l0.54,1.155l0.609,1.248l0.122,0.435l0.244,1.371l0.127,0.568l0.232,0.696l0.232,0.686l0.366,1.445l0.499,1.511
		l0.041,0.829l-0.018,1.591l0.04,1.725l0.268,1.846l0.389,1.406l0.279,0.435l1.266,2.183l0.284,1.208l0.128,0.836l0.365,1.8
		l0.621,1.852l0.895,2.206l0.482,1.359l0.272,0.97l0.452,1.678l0.506,1.735l0.197,0.708l0.673,2.044l0.424,1.533l0.181,0.452
		l0.743,0.546l0.871,0.366l0.731,0.343l0.748,0.586l0.761,0.412l0.465,0.256l0.568,0.389l0.668,0.441L-59.736,186.53"/>
</g>
<g id="Layer_1_1_">
</g>
</svg>
