<?xml version="1.0" encoding="iso-8859-1"?>
<!-- Generator: Adobe Illustrator 16.0.4, SVG Export Plug-In . SVG Version: 6.00 Build 0)  -->
<!DOCTYPE svg PUBLIC "-//W3C//DTD SVG 1.1//EN" "http://www.w3.org/Graphics/SVG/1.1/DTD/svg11.dtd">
<svg version="1.1" xmlns="http://www.w3.org/2000/svg" xmlns:xlink="http://www.w3.org/1999/xlink" x="0px" y="0px"
	 width="34.934px" height="28.192px" viewBox="0 0 34.934 28.192" style="enable-background:new 0 0 34.934 28.192;"
	 xml:space="preserve">
<g id="Layer_73">
	<g id="Layer_78">
		<path id="Pakpattan" style="fill:#CCCCCC;stroke:#FFFFFF;stroke-width:1.07;" d="
			M33.693,14.536L33.693,14.536l-0.035-0.182l0.001-0.258l-0.004-0.046l0.002-0.218l-0.03-0.256l0.009-0.078l0.028-0.23l0.037-0.148
			l0.055-0.221l0.013-0.165l0.018-0.146l-0.002-0.219l-0.015-0.349l-0.005-0.271l-0.011-0.211l-0.03-0.326l-0.007-0.18l0.007-0.08
			l0.027-0.067l0.05-0.05l0.049-0.032l0.059-0.026l0.057-0.017h0.041l0.08,0.019l0.094,0.022l0.049,0.003l0.076-0.018l0.059-0.028
			l0.027-0.035l0.004-0.045l-0.018-0.099l-0.023-0.057l-0.01-0.128l-0.021-0.118l-0.026-0.104l-0.021-0.053l-0.031-0.037
			l-0.083-0.045l-0.166-0.082l-0.116-0.081L33.77,9.789l-0.024-0.051l0.001-0.05l0.015-0.035l0.024-0.029l0.071-0.073l0.081-0.1
			l0.021-0.083V9.319l-0.022-0.033l-0.052-0.021L33.801,9.25l-0.104-0.01l-0.073-0.001L33.52,9.252l-0.101,0.025L33.312,9.28
			l-0.075-0.019l-0.073-0.033l-0.055-0.03L33.021,9.17l-0.104-0.004l-0.11,0.025l-0.045,0.029L32.727,9.25l-0.021,0.053v0.036
			l-0.001,0.059l0.015,0.062l-0.001,0.042l-0.011,0.05l-0.039,0.038l-0.056,0.035l-0.087,0.023l-0.083,0.02l-0.125,0.025
			l-0.128,0.014l-0.074,0.011l-0.09-0.016l-0.064-0.024l-0.056-0.036l-0.048-0.057L31.84,9.521l0.012-0.05l0.01-0.042l0.058-0.067
			l0.088-0.1l0.152-0.131l0.119-0.114l0.141-0.138l0.1-0.152l0.04-0.088l0.009-0.097l-0.005-0.138l-0.032-0.13l0.006-0.126
			l0.029-0.076l0.036-0.043l0.038-0.035l0.057-0.023l0.066-0.011l0.082,0.013l0.076,0.015l0.097,0.03l0.087,0.016l0.061,0.027
			l0.05,0.003l0.056-0.005l0.053-0.026l0.036-0.049l0.039-0.038l0.045-0.023l0.046-0.017l0.057-0.011l0.053-0.022l0.042-0.026
			l0.036-0.044l0.011-0.044l0.002-0.067l0.021-0.058l0.058-0.035l0.067-0.046l0.089-0.04l0.053-0.035l0.024-0.046l-0.009-0.038
			l-0.025-0.029l-0.019-0.009l-0.059-0.004l-0.076-0.009l-0.049-0.018L33.719,7.29l-0.033-0.047l-0.029-0.059l-0.008-0.087
			l0.017-0.082l0.05-0.116l0.052-0.081l0.052-0.084l0.036-0.052l0.076-0.06l0.092-0.065l0.102-0.084l0.056-0.075l0.002-0.052
			l-0.011-0.055l-0.029-0.033l-0.045-0.017l-0.079-0.024l-0.155-0.016l-0.184-0.016l-0.087-0.013l-0.103-0.044l-0.053-0.049
			l-0.049-0.084L33.38,5.934l0.011-0.072l0.037-0.076l0.042-0.03l0.073-0.037L33.63,5.69l0.092-0.028l0.058-0.034l0.013-0.034
			L33.78,5.574l-0.051-0.027l-0.078-0.018L33.554,5.52l-0.107-0.009L33.31,5.523l-0.183,0.021l-0.135-0.004l-0.148-0.004
			l-0.209-0.001l-0.079-0.007l-0.101-0.018l-0.069-0.044L32.306,5.4l-0.041-0.072l-0.018-0.063L32.241,5.19l0.017-0.031l0.026-0.045
			l0.041-0.04l0.028-0.071l0.002-0.056l-0.021-0.035l-0.051-0.021l-0.094-0.012l-0.378-0.063l-0.3-0.042l-0.206-0.033l-0.089-0.021
			l-0.029-0.018l-0.016-0.022L31.16,4.632l-0.015-0.043l-0.019-0.037l-0.058-0.023l-0.073-0.006l-0.087,0.002l-0.073,0.017
			l-0.022,0.025L30.798,4.59l0.004,0.042l-0.003,0.04l-0.018,0.042l-0.024,0.017l-0.055,0.02l-0.065,0.008l-0.119,0.005
			l-0.224,0.012l-0.312,0.017l-0.126,0.013L29.783,4.8l-0.021-0.015l-0.036-0.04l-0.036-0.032l-0.051-0.018h-0.045l-0.141,0.013
			L29.388,4.71l-0.062-0.009l-0.048-0.012l-0.05-0.035l-0.062-0.069l-0.041-0.068l-0.039-0.043l-0.067-0.06l-0.047-0.012
			l-0.066,0.002l-0.078,0.017l-0.059,0.002l-0.069,0.002l-0.025-0.023l-0.035-0.04v-0.04l0.011-0.056l0.028-0.057l0.015-0.053
			l0.001-0.062l-0.021-0.039l-0.032-0.037l-0.045-0.034l-0.081-0.032l-0.093-0.006l-0.077,0.002L28.24,3.951l-0.038-0.012
			l-0.031-0.023l-0.044-0.05L28.095,3.8l-0.013-0.053L28.04,3.713L27.967,3.68l-0.072-0.04l-0.063-0.026l-0.049-0.037L27.76,3.531
			l-0.018-0.042l0.01-0.028l0.03-0.058l0.017-0.053l0.036-0.055l0.016-0.041l-0.006-0.039l-0.026-0.02l-0.064-0.012L27.68,3.168
			h-0.057L27.581,3.18l-0.032,0.019l-0.031,0.027l-0.033,0.05l-0.021,0.066l-0.03,0.039l-0.033,0.024l-0.051,0.024l-0.058,0.002
			l-0.053-0.017l-0.073-0.037l-0.048-0.037l-0.01-0.047l-0.012-0.086l0.012-0.074l0.02-0.083l0.031-0.123l0.037-0.134l0.043-0.127
			l0.021-0.102l0.041-0.07l0.028-0.081l0.017-0.15l0.022-0.061l0.023-0.06l0.006-0.032l-0.01-0.084l-0.002-0.05l0.033-0.07
			l0.037-0.028l0.063-0.041l0.067-0.043l0.08-0.045l0.091-0.047l0.067-0.065l0.015-0.051V1.54l-0.015-0.056l-0.018-0.031
			l-0.025-0.041l-0.053-0.061l-0.041-0.058L27.681,1.24l0.004-0.049L27.7,1.148l0.029-0.051l0.013-0.031l0.007-0.034l-0.022-0.039
			l-0.04-0.03L27.59,0.919l-0.095-0.04l-0.083-0.018l-0.059-0.018l-0.038-0.026l-0.001-0.016l0.017-0.035l0.027-0.034l0.061-0.044
			l0.069-0.03l0.079-0.041l0.034-0.031l0.004-0.024l-0.022-0.016l-0.034-0.01l-0.052-0.001l-0.042,0.006l-0.066,0.02l-0.06,0.028
			l-0.037,0.028l-0.026,0.031l-0.036,0.026l-0.05,0.029l-0.078,0.009L27.046,0.73l-0.043,0.011l-0.036,0.018l-0.031,0.03
			l-0.072,0.055l-0.049,0.051l-0.052,0.03l-0.079,0.034l-0.098,0.039l-0.069,0.035L26.46,1.066l-0.032,0.029L26.417,1.12
			l-0.002,0.02l0.03,0.033l0.039,0.025l0.074,0.016l0.103,0.027l0.086,0.026L26.81,1.3l0.024,0.04l0.039,0.074l0.019,0.066
			l-0.003,0.056l-0.015,0.033l-0.057,0.033l-0.062,0.021h-0.027l-0.047-0.011l-0.067-0.032l-0.062-0.037l-0.062-0.029l-0.034-0.006
			L26.42,1.516l-0.053,0.02l-0.025,0.023l-0.017,0.025l-0.007,0.034l0.008,0.046l0.002,0.028l-0.006,0.031l-0.023,0.02L26.261,1.76
			l-0.037,0.004h-0.034l-0.054-0.011L26.077,1.72l-0.048-0.042l-0.004-0.021l0.006-0.026l0.049-0.059l0.043-0.053l0.014-0.025
			l-0.004-0.031l-0.026-0.028l-0.021-0.008H26.06l-0.048,0.009l-0.039,0.017l-0.097,0.055l-0.083,0.06l-0.057,0.061l-0.068,0.066
			l-0.054,0.044l-0.043,0.043l-0.037,0.054l-0.04,0.074l-0.017,0.058v0.045l0.005,0.024l0.03,0.011l0.062,0.001l0.086-0.017h0.073
			l0.062,0.017l0.023,0.032l0.011,0.04L25.82,2.147l-0.013,0.037l-0.032,0.053l-0.047,0.04l-0.068,0.04l-0.077,0.026l-0.101,0.023
			l-0.14,0.033l-0.135,0.042L25.116,2.47l-0.048,0.027L25.04,2.532l-0.017,0.046l0.004,0.03l0.021,0.039l0.014,0.033l0.004,0.03
			l-0.012,0.038l-0.006,0.022l-0.025,0.043l-0.039,0.043l-0.036,0.047l-0.02,0.052l-0.006,0.046l0.006,0.053l0.026,0.039
			l0.049,0.039l0.056,0.04l0.035,0.031l0.028,0.05L25.124,3.3l-0.007,0.044l-0.021,0.053l-0.042,0.036l-0.051,0.025l-0.085,0.016
			l-0.075,0.007L24.782,3.5l-0.075,0.044l-0.042,0.042L24.638,3.64l-0.02,0.062l-0.01,0.034L24.604,3.76l0.007,0.045l0.033,0.062
			l0.012,0.029l0.002,0.028l-0.01,0.037L24.631,3.98L24.595,4l-0.058,0.028l-0.088,0.027l-0.062,0.008l-0.054,0.008h-0.048
			l-0.058-0.015l-0.071-0.012l-0.05-0.02l-0.045-0.009l-0.064-0.003l-0.046,0.008l-0.05,0.025L23.885,4.06l-0.01,0.031l0.005,0.04
			l0.029,0.06L23.93,4.22l0.032,0.032l0.005,0.017l0.01,0.026l-0.003,0.048l-0.02,0.08l-0.018,0.06l-0.002,0.028l0.021,0.046
			l0.039,0.035l0.054,0.057l0.049,0.038l0.024,0.04l0.013,0.037L24.128,4.81l-0.025,0.034l-0.028,0.02l-0.066,0.028l-0.045,0.014
			h-0.037l-0.051-0.015l-0.081-0.035l-0.116-0.072l-0.108-0.021h-0.062l-0.057,0.017l-0.084,0.03l-0.055,0.012l-0.048-0.009
			l-0.04-0.015l-0.01-0.023l0.01-0.04l0.021-0.037l0.04-0.04l0.018-0.045l-0.002-0.041l-0.025-0.035l-0.033-0.02l-0.047-0.009
			l-0.042,0.011L23.1,4.562l-0.046,0.028l-0.08,0.028l-0.066,0.02l-0.079-0.001l-0.051-0.012l-0.059-0.04l-0.044-0.081l-0.048-0.117
			L22.59,4.36l-0.058-0.018l-0.051-0.003l-0.045,0.002L22.394,4.37l-0.05,0.025l-0.066,0.031l-0.104,0.025l-0.056,0.011
			l-0.056,0.002l-0.071,0.008L21.938,4.5l-0.032,0.034l-0.011,0.021l0.005,0.022l0.031,0.058l0.032,0.046l0.033,0.069l0.013,0.049
			l-0.006,0.046l-0.039,0.046l-0.059,0.042l-0.059,0.034l-0.073,0.026l-0.076,0.011l-0.082,0.005l-0.042,0.018l-0.027,0.025
			l-0.028,0.041l-0.012,0.031l-0.008,0.069l-0.01,0.078l-0.018,0.031l-0.055,0.046l-0.034,0.02h-0.081l-0.064-0.033l-0.089-0.052
			l-0.06-0.064l-0.014-0.026l-0.002-0.025l0.001-0.043l0.031-0.086l0.049-0.095L21.228,4.8l0.047-0.118l0.014-0.088l-0.01-0.072
			l-0.034-0.061l-0.05-0.038l-0.057-0.018l-0.104-0.024l-0.115-0.026l-0.08-0.041l-0.121-0.057l-0.156-0.081l-0.105-0.063
			l-0.073-0.077l-0.054-0.092l-0.007-0.12l0.021-0.074l0.018-0.067l0.003-0.048l0.002-0.021l-0.054,0.022l-0.05,0.018l-0.079,0.033
			l-0.165,0.135l-0.116,0.113L19.844,4l-0.033,0.048L19.79,4.083l-0.013,0.042l0.001,0.035l0.008,0.054l0.019,0.055l0.048,0.063
			l0.046,0.1L19.9,4.484L19.897,4.53l-0.021,0.034l-0.031,0.017l-0.037,0.002l-0.071-0.017L19.604,4.5l-0.13-0.066l-0.068-0.052
			l-0.024-0.043l0.002-0.034l0.001-0.035l0.028-0.037l0.04-0.046l0.082-0.071l0.021-0.045l0.005-0.032l-0.028-0.054l-0.038-0.041
			l-0.076-0.041l-0.106-0.037l-0.103-0.021l-0.104-0.023l-0.04-0.002h-0.041l-0.042,0.014l-0.053,0.022l-0.062,0.022l-0.055,0.008
			h-0.116l-0.078-0.012l-0.105-0.027l-0.07-0.017l-0.048-0.006l-0.074,0.003l-0.104,0.02l-0.058,0.019l-0.06,0.028l-0.031,0.008
			h-0.027l-0.061-0.006l-0.048-0.018l-0.042-0.022l-0.036-0.029l-0.037-0.074l-0.036-0.08L17.722,3.61l-0.053-0.034l-0.074-0.023
			l-0.099-0.009l-0.055,0.005l-0.097,0.022l-0.046,0.031L17.27,3.64l-0.008,0.025l-0.005,0.031l0.018,0.046l0.026,0.023l0.046,0.037
			l0.059,0.04l0.038,0.054l0.053,0.052l0.037,0.068l0.018,0.055l0.005,0.046l-0.008,0.037l-0.04,0.049l-0.032,0.025l-0.041,0.012
			h-0.04l-0.037-0.021l-0.019-0.038L17.31,4.083l-0.032-0.037l-0.036-0.012h-0.037l-0.068,0.017h-0.052l-0.063-0.017l-0.062-0.026
			L16.88,3.952l-0.047-0.032l-0.036-0.017h-0.03L16.73,3.897l-0.045,0.012l-0.042,0.02l-0.027,0.025l-0.016,0.029l-0.016,0.031
			l-0.001,0.032l0.008,0.063l0.024,0.054l0.024,0.049l0.041,0.06l0.049,0.052l0.032,0.043l0.013,0.021l0.007,0.034l-0.001,0.02
			l-0.029,0.041l-0.069,0.034l-0.059,0.029L16.58,4.555l-0.059-0.003l-0.061-0.018L16.425,4.5l-0.052-0.078l-0.041-0.063
			l-0.035-0.057l-0.039-0.02l-0.033-0.015L16.18,4.271l-0.058,0.015l-0.094,0.051l-0.102,0.049l-0.048,0.022l-0.048,0.009
			l-0.044-0.011l-0.036-0.015l-0.044-0.026L15.685,4.33L15.65,4.275l-0.021-0.032l-0.033-0.022L15.567,4.2H15.53l-0.082,0.021
			l-0.076,0.032l-0.07,0.043l-0.065,0.058l-0.004,0.02l-0.009,0.023l0.007,0.026l0.017,0.029l0.094,0.008l0.081,0.011l0.05,0.017
			l0.043,0.029l0.026,0.034l0.019,0.035l0.003,0.046l0.004,0.075l-0.015,0.104l-0.007,0.061L15.54,4.924L15.544,5l0.019,0.078
			l0.031,0.049l0.058,0.041l0.08,0.02l0.146-0.015l0.119-0.038l0.062-0.038l0.087-0.066l0.033-0.012l0.037-0.003l0.026,0.017
			l0.043,0.038l0.026,0.026l0.002,0.032l-0.017,0.046l-0.019,0.087l-0.034,0.096l-0.045,0.061l-0.05,0.058l-0.06,0.041l-0.051,0.012
			l-0.055,0.012h-0.099l-0.107-0.006l-0.085,0.006l-0.137,0.026l-0.14,0.035l-0.118,0.018l-0.055,0.006l-0.027,0.003l-0.029,0.009
			L15.156,5.65l-0.041,0.041l-0.05,0.064l-0.062,0.102l-0.028,0.025L14.93,5.915l-0.089,0.03L14.79,5.967L14.593,6l-0.131,0.09
			l-0.51-0.027l-0.104-0.005l-0.131-0.015l-0.141-0.023l-0.155-0.056l-0.122-0.022l-0.125,0.019l-0.098,0.037l-0.1,0.053
			l-0.092,0.07l-0.006,0.065l0.053,0.043l0.073,0.02l0.099-0.028l0.21-0.015l0.188,0.009l0.035,0.035l-0.005,0.058L13.496,6.38
			l-0.041,0.031l-0.1,0.062L13.257,6.51l-0.076,0.005l-0.074-0.012l-0.082-0.029l-0.111-0.029l-0.103-0.021l-0.122-0.006
			l-0.076-0.003l-0.156,0.051L12.35,6.503l-0.271,0.079l-0.201,0.041l-0.124,0.011l-0.112-0.021l-0.093-0.021l-0.064-0.003
			l-0.091,0.054l-0.059,0.022l-0.031,0.032L11.3,6.738l0.032,0.06l0.062,0.044l0.063,0.019l0.227,0.01L11.976,6.9l0.071,0.045
			l0.035,0.035l0.015,0.059L12.083,7.08l-0.051,0.056L11.928,7.14L11.86,7.162l-0.053,0.056L11.804,7.26l0.032,0.076l0.052,0.061
			l0.054,0.044L11.937,7.5l-0.023,0.065l-0.032,0.048l-0.069,0.047l-0.117,0.062l-0.066-0.003l-0.074-0.012L11.52,7.679
			l-0.074-0.152l-0.063-0.144L11.32,7.322l-0.074-0.02l-0.094-0.004L11.08,7.254l-0.016-0.042l0.013-0.041l0.021-0.04l0.008-0.091
			l-0.054-0.044l-0.046-0.018l-0.075-0.003l-0.098,0.038l-0.055,0.089l-0.034,0.073l-0.05,0.155l-0.05,0.155l-0.005,0.041
			l0.009,0.017l0.093,0.029l0.092,0.037l0.074,0.012l0.063,0.02l0.017,0.042l0.005,0.059l-0.074,0.076l-0.082,0.08l-0.082,0.096
			l-0.062,0.081L10.688,8.15l0.021,0.067l0.021,0.109l-0.01,0.116l-0.006,0.075l-0.044,0.09l-0.052,0.056l-0.08,0.063l-0.087,0.021
			l-0.074-0.003L10.287,8.69l-0.075-0.003l-0.04,0.032l-0.07,0.063l-0.006,0.091l-0.007,0.075l0.015,0.067L10.1,9.073l-0.023,0.075
			l-0.07,0.046L9.949,9.2L9.887,9.156L9.846,9.071L9.813,8.995L9.769,8.968L9.656,8.964L9.563,8.943L9.49,8.915L9.43,8.83
			L9.407,8.746L9.358,8.511L9.337,8.41L9.269,8.332L9.136,8.319L9.023,8.323L8.955,8.361l-0.04,0.032L8.899,8.467l0.035,0.051
			l0.135,0.213l0.092,0.153l0.013,0.101L9.149,9.076l-0.03,0.032L9.061,9.13L9.003,9.128L8.872,9.115l-0.22-0.092L8.518,8.926
			L8.375,8.804L8.27,8.709L8.169,8.647L8.085,8.645L8.037,8.651l-0.03,0.023L8.002,8.75L8.03,8.883l0.002,0.108l0.016,0.042
			l0.071,0.061l0.08,0.061l0.044,0.043L8.259,9.25l0.006,0.05L8.223,9.364l-0.06,0.039L8.078,9.4L7.956,9.361L7.874,9.333
			L7.78,9.321L7.723,9.319l-0.08-0.044L7.579,9.231L7.546,9.164l-0.022-0.06L7.49,9.028L7.469,8.936L7.452,8.91L7.446,8.86
			l0.021-0.032l0.04-0.032l0.06-0.022l0.02-0.016L7.573,8.674L7.538,8.639L7.454,8.628L7.369,8.625L7.192,8.594l-0.12-0.038
			l-0.107-0.07L6.879,8.367L6.805,8.223L6.713,8.062L6.641,7.901L6.602,7.805L6.572,7.722L6.486,7.63L6.379,7.558L6.284,7.536
			L6.2,7.506L6.151,7.454L6.147,7.405l0.024-0.059l0.035-0.062l0.007-0.053L6.209,7.202L6.188,7.188H6.131L6.03,7.218L5.958,7.279
			L5.9,7.361L5.843,7.456L5.835,7.584L5.83,7.674l0.018,0.05l0.038,0.031L6.031,7.77l0.197,0.013l0.09,0.026l0.034,0.056
			l0.004,0.049L6.306,7.951L6.211,7.969L6.113,7.97l-0.051,0.01L6.006,8.033L5.91,8.128L5.806,8.194L5.707,8.217L5.646,8.246
			L5.592,8.283l-0.04,0.063L5.547,8.39l0.011,0.07l0.04,0.047l0.036,0.088L5.641,8.66L5.615,8.72L5.552,8.752H5.423L5.321,8.742
			L5.271,8.706L5.234,8.654l0.012-0.179l0.029-0.173L5.31,8.162l0.029-0.088l0.024-0.059l0.011-0.052L5.369,7.926L5.32,7.91
			L5.198,7.922L5.056,7.958L4.924,8.015L4.859,8.052L4.822,8.098L4.817,8.135L4.834,8.16l0.062,0.029l0.083,0.005l0.034,0.022
			l0.008,0.05l-0.023,0.08L4.954,8.444L4.919,8.512L4.881,8.533L4.829,8.525L4.764,8.463L4.702,8.422L4.629,8.421L4.562,8.445
			L4.408,8.497l-0.151,0.04L4.164,8.576L4.101,8.621L4.039,8.666L3.97,8.669L3.907,8.646L3.87,8.562L3.84,8.516L3.8,8.5L3.687,8.521
			L3.582,8.536L3.523,8.532L3.498,8.546L3.473,8.601L3.446,8.677L3.443,8.742l0.061,0.085l0.048,0.109l0.015,0.079L3.559,9.083
			L3.524,9.139L3.464,9.18L3.384,9.2L3.245,9.198L3.122,9.184L3.061,9.109L3.056,9.027L3.041,8.948L3.003,8.922L2.921,8.917
			L2.853,8.945L2.807,8.987L2.786,9.084L2.78,9.218l0.026,0.055l0.091,0.055l0.18,0.04L3.33,9.417L3.479,9.45l0.089,0.035
			l0.042,0.072l0.017,0.079L3.598,9.72L3.521,9.784L3.421,9.819L3.322,9.83L3.236,9.808L3.207,9.745L3.184,9.669L3.128,9.646
			L3.049,9.653L2.992,9.699l-0.06,0.082L2.865,9.805L2.798,9.797l-0.06-0.053L2.703,9.652L2.656,9.563L2.613,9.5L2.541,9.446
			L2.466,9.421L2.394,9.413L2.33,9.441l-0.047,0.05L2.214,9.544L2.127,9.576L2.015,9.553L1.905,9.498l-0.048-0.15L1.796,9.246
			L1.71,9.188l-0.102-0.01l-0.076,0.02L1.486,9.235L1.421,9.341l-0.04,0.071L1.318,9.475L1.209,9.509L1.138,9.497L1.068,9.451
			L1.007,9.382L0.938,9.325L0.826,9.302L0.743,9.305l-0.13,0.05L0.567,9.397L0.554,9.438l0.016,0.074l0.031,0.051l0.067,0.093
			l0.064,0.078l0.062,0.061L0.827,9.87l0.015,0.091l-0.005,0.166l-0.012,0.094l0.037,0.048l0.053,0.022l0.088,0.004l0.107-0.024
			l0.095-0.023l0.045,0.007l0.032,0.043l-0.005,0.09l-0.014,0.09l-0.024,0.098l-0.019,0.193l-0.077,0.289l-0.031,0.396l-0.008,0.352
			l0.027,0.326v0.316l0.17,0.346l0.108,0.239l0.157,0.056l0.155,0.03l0.202-0.006l0.148-0.011l0.233-0.028l0.109-0.015l0.079-0.012
			l0.066,0.008l0.043,0.041l0.048,0.078l0.091,0.063l0.104,0.03l0.133,0.018l0.215-0.01l0.333-0.057l0.234-0.016l0.201-0.008
			l0.212,0.005l0.107-0.019l0.14,0.017l0.204,0.097l0.166,0.125l0.133,0.133l0.054,0.105l0.103,0.145l0.056,0.047l0.072,0.024
			l0.111,0.015l0.23-0.016l0.224-0.031l0.256-0.011l0.178,0.021l0.092,0.003l0.17-0.027l0.197-0.047l0.243-0.082l0.159-0.028h0.05
			l0.06,0.03l0.055,0.041l0.045,0.06l0.01,0.055l0.007,0.07l-0.011,0.061l-0.018,0.092l0.006,0.071l0.029,0.056l0.092,0.129
			l0.025,0.07l0.006,0.049l-0.021,0.074l-0.024,0.061L7.35,14.623l-0.034,0.021l-0.044,0.009l-0.07,0.005l-0.074,0.016l-0.098,0.045
			l-0.101,0.057l-0.093,0.061l-0.062,0.032l-0.069,0.015H6.654l-0.066-0.014L6.5,14.835l-0.067-0.027l-0.064,0.007l-0.083,0.028
			l-0.053,0.041l-0.094,0.069l-0.053,0.099l-0.059,0.121l-0.092,0.238l-0.058,0.227l-0.059,0.136l-0.083,0.188l-0.053,0.145
			l-0.024,0.188l0.01,0.107l0.016,0.057l0.03,0.057l0.069,0.062l0.073,0.08l0.036,0.064l0.037,0.084l0.011,0.117l0.014,0.266
			l-0.012,0.322L5.928,17.71l-0.039,0.258l-0.022,0.146l-0.048,0.203l-0.048,0.075l-0.058,0.031l-0.092,0.059l-0.113,0.066
			l-0.082,0.099l-0.063,0.077l-0.05,0.111l-0.021,0.152v0.332l0.019,0.143l0.07,0.375l0.036,0.446l-0.002,0.368l-0.006,0.271
			l-0.023,0.226l-0.006,0.093L5.34,21.647l-0.025,0.156l-0.028,0.074L5.23,21.982l-0.081,0.104l-0.101,0.104l-0.095,0.08
			l-0.078,0.069l-0.07,0.11l-0.013,0.083l0.015,0.208l0.033,0.134l0.023,0.103l0.109,0.241l0.127,0.279l0.052,0.229L5.16,23.91
			l-0.044,0.121L5.053,24.15l-0.082,0.094l-0.083,0.084l-0.102,0.095l-0.034,0.062l-0.043,0.085l-0.004,0.123l0.019,0.24
			l0.034,0.146l0.065,0.059l0.058,0.01l0.079-0.016l0.075-0.043l0.066-0.102l0.011-0.092l0.004-0.128l0.025-0.048l0.047-0.034
			l0.17-0.022l0.164-0.014l0.098-0.035l0.13-0.027l0.098,0.01l0.069,0.05l0.058,0.073l0.131,0.043l0.182,0.06l0.186,0.077
			l0.102,0.061l0.159,0.023l0.079,0.039l0.045,0.047l0.007,0.068l-0.03,0.057l-0.071,0.083l-0.12,0.067l-0.13,0.064l-0.089,0.075
			l-0.031,0.09l-0.024,0.115L6.35,25.868l-0.018,0.139l-0.023,0.11L6.28,26.191l-0.032,0.08L6.2,26.357L6.146,26.47L6.12,26.568
			l0.01,0.086l0.029,0.11l0.044,0.089l0.303,0.771l0.23,0.018l0.209,0.013l0.105-0.026l0.146-0.068l0.195-0.098l0.176-0.015
			l0.168,0.026l0.296,0.07l0.326,0.043l0.089-0.006l0.035-0.05l-0.004-0.098l-0.113-0.104l-0.176-0.105l-0.126-0.105l-0.074-0.119
			l-0.052-0.105l0.004-0.075l0.07-0.097l0.151-0.072l0.271-0.105l0.182-0.09l0.121-0.1l0.087-0.115l0.044-0.09l0.013-0.053
			l-0.058-0.139L8.725,25.66l-0.167-0.317l-0.126-0.281l-0.041-0.094l-0.006-0.205l0.039-0.123l0.088-0.115l0.309-0.165l0.153-0.019
			l0.216,0.035l0.19,0.043l0.304,0.146l0.236,0.169l0.326,0.216l0.321,0.236l0.479,0.371l0.182,0.137l0.213,0.22l0.228,0.104
			l0.071,0.011l0.104-0.024l0.042-0.08l0.009-0.096l-0.026-0.103l-0.027-0.103l-0.167-0.093l-0.125-0.053l-0.132-0.021l-0.128-0.043
			l-0.144-0.089l-0.044-0.083l0.007-0.085l0.065-0.075l0.187-0.057l0.155-0.027l0.231-0.093l0.265-0.104l0.337-0.117l0.245-0.1
			l0.214-0.128l0.182-0.143l0.189-0.132l0.219-0.146l0.09-0.07l0.234-0.049l0.152-0.072l0.09-0.07l0.145-0.149l0.091-0.18
			l0.047-0.22l-0.002-0.217l0.021-0.095l0.063-0.063l0.053-0.014l0.07,0.022l0.085,0.122l0.18,0.376l0.077,0.151l0.106,0.152
			l0.1,0.168l0.229,0.318l0.072,0.064l0.107,0.02L15.49,24.2l0.08-0.139l0.007-0.205l0.021-0.188l-0.035-0.123l0.009-0.15
			l0.021-0.094l0.051-0.121l0.119-0.088l0.088-0.008l0.205,0.088l0.229,0.092l0.193,0.086l0.172,0.008l0.12-0.035l0.068-0.086
			l0.064-0.129l0.146-0.213l0.057-0.089l0.039-0.177l0.11-0.221l0.06-0.099l0.102-0.069h0.125l0.242,0.028l0.184,0.021h0.136
			l0.086-0.049l0.119-0.144l0.162-0.231l0.151-0.182l0.101-0.061l0.106-0.035l0.196-0.098l0.112-0.002l0.096,0.016l0.095,0.025
			l0.062,0.055l0.059,0.129l0.054,0.096l0.08,0.034l0.158,0.016l0.256-0.032l0.303-0.015l0.161,0.026l-0.21-0.098l-0.067-0.074
			l-0.021-0.094l0.002-0.072l0.038-0.051l0.131-0.037l0.132-0.008l0.246,0.079l0.377,0.093l0.26,0.059l0.363,0.104l0.213,0.034
			l0.143,0.015l0.144-0.037l0.119-0.006l0.163,0.064l0.07,0.055l0.057,0.053l0.032,0.104l-0.003,0.104l0.067,0.084l0.069,0.043
			l0.142,0.046l0.057,0.073l0.032,0.084l0.019,0.154l0.041,0.196l0.089,0.167l0.138,0.139l0.07,0.021l0.071,0.002l0.096-0.038
			l0.049-0.04l0.026-0.082l-0.019-0.124l-0.021-0.083l0.016-0.072l0.062-0.05l0.048-0.04l-0.01-0.052l-0.032-0.065l-0.123-0.219
			l-0.135-0.199l-0.099-0.24l-0.062-0.291l-0.011-0.359l-0.043-0.137l0.006-0.204l0.021-0.269l0.02-0.195l0.039-0.122l0.028-0.123
			l0.005-0.146l0.025-0.082l0.087-0.08l0.108-0.059l0.179-0.025l0.097,0.002l0.247,0.037l0.199,0.058l0.152,0.065l0.177,0.035
			l0.07,0.002l0.038-0.039l0.024-0.052l-0.01-0.083l-0.066-0.094l-0.038-0.061l0.014-0.053l0.037-0.061l0.039-0.082l0.051-0.092
			l0.027-0.102l0.026-0.113l0.027-0.072l0.062-0.08l0.073-0.069l0.072-0.008l0.152,0.045l0.104,0.032l0.151,0.088l0.139,0.117
			l0.208,0.16l0.197,0.14l0.162,0.086l0.188,0.016l0.096-0.008l0.099-0.06l0.037-0.07l0.04-0.104l-0.044-0.113l-0.159-0.19
			l-0.126-0.127l-0.058-0.073l0.005-0.103l0.049-0.062l0.071-0.02l0.19-0.005l0.142,0.004l0.062-0.04l0.024-0.029l-0.01-0.072
			l-0.066-0.114l-0.057-0.095l0.005-0.135L26.597,18l-0.102-0.157l-0.056-0.115l-0.067-0.115l0.005-0.123l0.064-0.152l0.104-0.203
			l0.039-0.111l0.038-0.072l0.085-0.06l0.098-0.038l0.167-0.017l0.129,0.045l0.14,0.086l0.125,0.158l0.112,0.157l0.065,0.146
			l0.095,0.055l0.07-0.019l0.028-0.134l-0.041-0.168l-0.009-0.092l0.039-0.082l0.083-0.019l0.106,0.003l0.13,0.045l0.117,0.024
			l0.049-0.021l0.062-0.061l0.045-0.117l0.142-0.284l0.148-0.172l0.26-0.292l0.297-0.302l0.332-0.3l0.27-0.219l0.157-0.078
			l0.133-0.039l0.131-0.017l0.225,0.048l0.177,0.066l0.291,0.143l0.198,0.088l0.144,0.023l0.061-0.029l0.025-0.061l0.006-0.145
			l0.003-0.093l0.028-0.123l0.039-0.082l0.073-0.09l0.074-0.069l0.12-0.039l0.132-0.017l0.13,0.015l0.142,0.055l0.222,0.119
			l0.127,0.086l0.13,0.035l0.145-0.017l0.096-0.039l0.074-0.05l0.033-0.094l0.149-0.192l0.17-0.088l0.287-0.053L33.693,14.536"/>
	</g>
</g>
<g id="Layer_1">
</g>
</svg>
