<?xml version="1.0" encoding="iso-8859-1"?>
<!-- Generator: Adobe Illustrator 16.0.4, SVG Export Plug-In . SVG Version: 6.00 Build 0)  -->
<!DOCTYPE svg PUBLIC "-//W3C//DTD SVG 1.1//EN" "http://www.w3.org/Graphics/SVG/1.1/DTD/svg11.dtd">
<svg version="1.1" xmlns="http://www.w3.org/2000/svg" xmlns:xlink="http://www.w3.org/1999/xlink" x="0px" y="0px"
	 width="27.307px" height="20.951px" viewBox="0 0 27.307 20.951" style="enable-background:new 0 0 27.307 20.951;"
	 xml:space="preserve">
<g id="Layer_55">
	<g id="Layer_60">
		<path id="Shikarpur" style="fill:#CCCCCC;stroke:#FFFFFF;stroke-width:1.07;" d="
			M15.485,18.597L15.485,18.597l0.114-0.21l0.162-0.198l0.191-0.198l0.101-0.093l0.121-0.062l0.217-0.079l0.175-0.024l0.177-0.021
			l0.189-0.021l0.165,0.015l0.155,0.011l0.15-0.031l0.161-0.064l0.183-0.114l0.222-0.198l0.237-0.226l0.208-0.203l0.086-0.124
			l0.011-0.089l-0.004-0.094L18.463,16.5l-0.075-0.071l-0.069-0.031l-0.061-0.01l-0.055,0.004l-0.052,0.035l-0.069,0.066
			l-0.098,0.119l-0.069,0.04l-0.062,0.021l-0.061,0.004l-0.056-0.019l-0.06-0.045l-0.148-0.216l-0.104-0.159l0.602-0.129
			l0.361-0.134l0.287-0.062l0.479-0.067l0.23-0.024l0.232-0.136l0.014-0.114l0.012-0.056l0.019-0.02h0.045l0.101,0.025l0.168,0.098
			l0.051,0.021l0.057-0.015l0.04-0.039l0.001-0.035l-0.027-0.081l-0.056-0.064l-0.083-0.086l-0.021-0.061l0.019-0.05l0.04-0.05
			l0.09-0.029l0.079-0.009l0.169,0.012l0.118,0.026l0.189,0.066l0.196,0.082l0.122,0.076l0.129,0.046l0.095,0.051l0.095,0.081
			l0.066,0.076l0.095,0.07l0.18,0.093l0.128,0.097l0.123,0.092l0.11,0.091l0.071,0.065l0.105,0.046l0.078-0.009l0.108-0.054
			l0.216-0.138l0.216-0.148l0.143-0.058l0.157-0.055l0.176-0.043l0.275-0.012l0.236,0.019l0.219,0.003l0.182-0.02l0.078-0.019
			l0.029-0.05l0.059-0.141l0.099-0.184l0.104-0.159l0.086-0.124l0.175-0.188l0.188-0.151l0.302-0.212l0.199-0.152l0.188-0.168
			l0.229-0.262l0.188-0.233l0.068-0.089l0.168-0.232l0.121-0.192l0.019-0.101l0.002-0.056l-0.017-0.09l-0.1-0.161l-0.027-0.065
			l-0.083-0.07l-0.078-0.07l-0.076-0.121l-0.061-0.126l0.001-0.079l0.007-0.08l0.069-0.135l0.127-0.153l0.2-0.19l0.297-0.268
			l0.021-0.418l-0.066,0.001l-0.114-0.066l-0.175-0.132l-0.148-0.138l-0.146-0.092l-0.16-0.084l-0.062-0.087l-0.104-0.231
			L25.695,9.9l-0.059-0.216L25.6,9.505l-0.042-0.076l-0.061-0.051L25.449,9.35l-0.078-0.021l-0.095-0.004l-0.185-0.021l-0.205-0.037
			l-0.246-0.075l-0.187-0.061l-0.188-0.09l-0.222-0.13l-0.254-0.13l-0.128-0.079l-0.106-0.033l-0.172-0.014l-0.224-0.009
			l-0.369,0.025l-0.462,0.01l-0.198-0.008l-0.261-0.106l-0.2-0.118l-0.116-0.12L21.326,8.17l-0.201-0.113l-0.134-0.06l-0.054-0.024
			l-0.372-0.086L20.42,7.821l-0.08-0.067l-0.104-0.115l-0.154-0.125l-0.128-0.086l-0.193-0.072l-0.174-0.09l-0.24-0.095L19.16,7.094
			L18.9,7.052l-0.357-0.067l-0.198-0.014l-0.246-0.048l-0.411-0.085l-0.293-0.063l-0.214-0.077l-0.345-0.068l-0.326-0.11l-0.247-0.1
			l-0.089-0.068l-0.082-0.121l-0.022-0.1l0.024-0.059l0.038-0.065l0.063-0.06l0.078-0.043l0.226-0.018l0.369-0.02l0.32-0.013
			l0.066-0.024l0.024-0.019l0.032-0.029l0.005-0.041l-0.001-0.035l-0.054-0.058L17.127,5.58L16.88,5.457l-0.289-0.17l-0.222-0.158
			l-0.144-0.132l-0.055-0.075l-0.029-0.093l-0.037-0.128l-0.027-0.082l0.005-0.047l0.047-0.014l0.092-0.024l0.085-0.024l0.104-0.044
			l0.098-0.031l0.099-0.036l0.084-0.062l0.059-0.06l0.032-0.042l0.012-0.054l-0.034-0.033L16.726,4.13l-0.072,0.008L16.549,4.14
			l-0.088-0.032l-0.093-0.045l-0.062-0.087l-0.069-0.087l-0.048-0.062l-0.033-0.046l-0.04-0.028l-0.073-0.011l-0.061,0.014
			l-0.138,0.037l-0.065,0.031l-0.09,0.084l-0.135,0.143L15.45,4.136l-0.099,0.025l-0.08-0.004l-0.06-0.011l-0.129-0.114
			l-0.097-0.115l-0.093-0.144l-0.16-0.277l-0.209-0.405l-0.183-0.382l-0.099-0.215l-0.061-0.245l-0.058-0.396l-0.099-0.396
			l-0.104-0.39l-0.079-0.26l-0.19-0.053l-0.487-0.063L13.008,0.66l-0.141-0.027l-0.314-0.071l-0.282-0.025l-0.327,0.02l-0.484,0.076
			l-0.436,0.094l-0.408,0.128l-0.402,0.161L9.9,1.193L9.589,1.405L9.423,1.509L9.22,1.697L9.041,1.811L8.864,1.918L8.673,1.987
			L8.486,2.034l-0.19,0.052L8.085,2.133L7.849,2.214L7.721,2.261L7.58,2.302l-0.146,0.04L7.217,2.451L7.038,2.492L6.73,2.522
			l-0.288,0.03L6.283,2.56L6.155,2.561L5.98,2.54L5.813,2.496l-0.25-0.062L5.256,2.398L5.013,2.382L4.717,2.339L4.463,2.292
			L4.258,2.248L4.06,2.221L3.854,2.209l-0.06,0.018L3.758,2.259L3.734,2.337L3.711,2.474l0.002,0.192l0.003,0.289L3.712,3.227
			L3.65,3.619L3.608,3.847L3.545,4.413L3.493,4.97L3.421,5.424L3.368,5.923L3.342,6.169L3.334,6.278L3.317,6.462L3.297,6.568
			l-0.01,0.105L3.244,6.96L3.227,7.214l-0.001,0.16l0.039,0.289L3.258,7.908l0.028,0.379l0.043,0.414l0.017,0.517l0.013,0.33
			L3.355,9.88L3.351,9.976L3.34,10.039l-0.011,0.06l-0.025,0.01l-0.052-0.006l-0.051-0.026L3.114,10.03l-0.379-0.14L2.464,9.822
			L2.382,9.812L2.356,9.817L2.351,9.858l0.025,0.076l0.061,0.16l0.035,0.067l0.011,0.097l-0.021,0.026l-0.057,0.046l-0.062,0.021
			l-0.308,0.049l-0.323,0.008l-0.374-0.012l-0.44-0.023l-0.235-0.02L0.555,10.34l-0.011,0.073l0.03,0.137l0.121,0.4l0.15,0.44
			l0.173,0.405l0.225,0.334l0.162,0.229l0.173,0.229l0.133,0.114l0.103,0.05l0.058,0.001l0.062-0.022l0.092-0.082l0.062-0.03
			l0.087,0.005l0.117,0.082l0.128,0.078l0.094,0.071l0.051,0.105l0.041,0.132L2.589,13.2l-0.058,0.1L2.438,13.4l-0.036,0.072
			l-0.011,0.055v0.055l0.035,0.087l0.107,0.109l0.224,0.215l0.234,0.288l0.203,0.236l0.435,0.447l0.361,0.456l0.197,0.229
			l0.192,0.247l0.162,0.312l0.041,0.122l0.03,0.2l0.028,0.19l0.061,0.224l0.023,0.19v0.109l-0.032,0.132l-0.025,0.182l-0.011,0.041
			l0.016,0.031l0.051,0.028l0.168,0.078l0.18,0.051l0.18,0.046l0.193,0.051l0.122,0.062l0.153,0.108l0.155,0.109l0.036,0.041
			l0.056,0.015l0.097,0.02l0.118-0.019l0.129-0.041l0.081-0.029l0.093-0.015l0.123,0.001l0.139,0.027l0.137,0.114l0.071,0.092
			l0.005,0.086l-0.017,0.073l-0.041,0.077l-0.083,0.107l-0.052,0.068l-0.031,0.104v0.041l0.03,0.036l0.051,0.022l0.071,0.015h0.092
			l0.146-0.035l0.169-0.036l0.22-0.008l0.158,0.011l0.185,0.042l0.321,0.11l0.168,0.114l0.076,0.087l0.05,0.114l0.015,0.076
			l0.035,0.123l0.005,0.073l0.024,0.087l0.025,0.06l0.054,0.081l0.128,0.05l0.332,0.139l0.183,0.073l0.174,0.052l0.093,0.055
			l0.063,0.038l0.121-0.093l0.182-0.119l0.165-0.128l0.138-0.098l0.256-0.158l0.146-0.089l0.206-0.163l0.172-0.182l0.127-0.11
			l0.12-0.102l0.15-0.084l0.207-0.079l0.135-0.021l0.227,0.002l0.274,0.023l0.235,0.037l0.554,0.166l0.335,0.123l0.195,0.046
			l0.148,0.01l0.206-0.052l0.322-0.127l0.286-0.119l0.166-0.102l0.171-0.093l0.211-0.097l0.176-0.058l0.177-0.043H15.485"/>
	</g>
</g>
<g id="Layer_1">
</g>
</svg>
