<?xml version="1.0" encoding="utf-8"?>
<!-- Generator: Adobe Illustrator 16.0.4, SVG Export Plug-In . SVG Version: 6.00 Build 0)  -->
<!DOCTYPE svg PUBLIC "-//W3C//DTD SVG 1.1//EN" "http://www.w3.org/Graphics/SVG/1.1/DTD/svg11.dtd">
<svg version="1.1" id="Layer_1" xmlns="http://www.w3.org/2000/svg" xmlns:xlink="http://www.w3.org/1999/xlink" x="0px" y="0px"
	 width="301.158px" height="267.905px" viewBox="-117.302 -104.242 301.158 267.905"
	 style="enable-background:new -117.302 -104.242 301.158 267.905;" xml:space="preserve">
<g id="Layer_53">
	<path id="Jhang" style="fill:#CCCCCC;stroke:#FFFFFF;stroke-width:1.15;" d="M178.277-64.138L178.277-64.138l-0.403-0.728
		l-0.159-0.386l-0.321-0.355l-0.516-0.621l-0.589-0.576l-0.459-0.516l-0.519-0.708l-0.395-0.772l-0.295-0.559l-0.164-0.416
		l-0.217-0.502l-0.222-0.461l-0.268-0.341l-0.229-0.19l-0.19-0.13l-0.316-0.102l-0.438-0.084l-0.575-0.053l-1.088-0.194
		l-0.298-0.041l-0.122-0.146l-0.025-0.342l-0.096-0.537l-0.147-0.431l-0.199-0.28l-0.312-0.279l-0.493-0.216l-0.836-0.288
		l-0.477-0.126l-0.705-0.098l-0.472-0.084l-0.273-0.158l-0.16-0.19l-0.303-0.312l-0.281-0.279l-0.3-0.234l-0.229-0.089l-0.281-0.027
		l-0.272-0.07l-0.195-0.223l-0.077-0.19l0.068-0.195l0.226-0.257l0.221-0.373l0.368-0.792l0.19-0.391l0.034-0.294l0.039-0.297
		l-0.056-0.313l-0.073-0.293l-0.131-0.461l-0.139-0.461l-0.012-0.368l0.052-0.258l0.095-0.24l0.377-0.567l0.463-0.66l0.602-0.635
		l-0.77-0.647l-0.278-0.233l-0.087-0.347l-0.116-0.444l-0.091-0.589l-0.039-0.715l-0.013-0.571l-0.065-0.164l-0.242-0.22
		l-0.325-0.212l-0.459-0.169l-0.434-0.149l-0.696-0.08l-0.555-0.164l-0.433-0.314l-0.542-0.228h-0.429l-0.216,0.067l-0.277,0.03
		l-0.295-0.093l-0.173-0.093l-0.269-0.187l-0.386-0.149l-0.507-0.021l-0.385-0.007l-0.291-0.026l-0.342-0.132l-0.265-0.156
		l-0.181-0.262l-0.122-0.262l-0.212-0.318l-0.277-0.173l-0.269-0.133l-0.363,0.014L155.9-90.44l-0.19,0.13l-0.212,0.133l-0.272,0.11
		l-0.494,0.079l-1.649,0.12l-1.378,0.008l-0.866-0.093l-0.697-0.217l-0.477-0.145l-0.329-0.359l-0.281-0.215l-0.649-0.097
		l-0.771-0.031l-0.715,0.151l-0.46,0.079l-0.753-0.074l-0.403-0.13l-0.303-0.132l-0.199-0.169l-0.276-0.334l-0.295-0.336
		l-0.767-0.79l-0.585-0.612l-0.775-0.522l-0.61-0.244l-1.026-0.373l-0.957-0.354l-0.506-0.103l-0.529,0.018l-0.385,0.059
		l-0.455-0.151l-0.468-0.203l-0.304-0.213l-0.527-0.452l-0.377-0.395l-0.836-0.749l-0.372,0.34l-0.784,0.825l-0.688,0.372
		l-0.551,0.103l-0.458-0.085l-0.971,0.041l-1.009-0.217l-0.355-0.299l-0.29-0.246l-0.351-0.223l-0.225-0.072l-0.309-0.326
		l-0.112-0.284l-0.008-0.608l0.025-0.606l-0.014-0.262l-0.207-0.334l-0.377-0.141l-0.641-0.023l-1.204-0.052l-0.459,0.177
		l-0.169,0.243l-0.104,0.587l0.209,0.859l0.056,0.838l-0.03,0.635l-0.187,0.431l-0.463,0.731l-0.096,0.555l0.087,0.758l0.45,0.713
		l0.277,0.227l0.506,0.267l0.382,0.141l0.979,0.143l0.416,0.09l0.226,0.173l0.441,0.11l0.307,0.067l0.161,0.097l0.082,0.183
		l-0.247,0.167l-0.008,0.32l0.012,0.233l0.234,0.201l0.021,0.234l-0.186,0.219l-0.325,0.043l-0.386-0.143l-0.701-0.442l-0.724-0.68
		l-0.728-0.336l-0.893-0.435l-0.683-0.182l-0.261,0.008l-0.147,0.059l-0.13,0.243l-0.173,0.196l-0.433,0.098l-0.485,0.021
		l-0.277,0.142l-0.225,0.404l-0.049,0.843l-0.086,0.346l-0.222,0.377l-0.229,0.297l-0.511,0.236l-0.372-0.037l-0.277-0.119
		l-0.545-0.293l-0.503-0.399l-0.272-0.355l-0.234-0.146l-0.346-0.114l-0.144,0.056l-0.29,0.122l-0.134,0.269l-0.199,0.372
		l-0.3,0.096l-0.216,0.008l-0.347-0.117h-0.489l-0.29,0.094l-0.213,0.143l-0.056,0.293l0.082,0.182l0.238,0.253l0.468,0.163
		l0.096,0.205l-0.083,0.271l-0.347,0.386l-0.168,0.242l0.233,0.282l0.512,0.264l0.458,0.555l0.338,0.489l0.637,0.554l0.857,0.62
		l0.463,0.16l0.377,0.039l0.537,0.235l0.818,0.674l0.555,0.4l0.343,0.089l0.212-0.009l0.19-0.032l0.091-0.11l0.1-0.132l0.212-0.144
		l0.183-0.062l0.303-0.014l0.398-0.043l0.212-0.116l0.286-0.302l0.107-0.186l0.213-0.089l0.147-0.005l0.194,0.046l0.117,0.178
		l0.078,0.465l0.208,0.386l0.32,0.247l0.853,0.541l1.014,0.377l0.749,0.151l0.837-0.034l0.632-0.028l0.506-0.074l0.265,0.07
		l0.277,0.196l0.243,0.674l0.143,0.465l0.199,0.226l0.42,0.165l0.463,0.062l0.126,0.098l0.169,0.279l0.096,0.496l-0.074,0.474
		l-0.048,0.187l-0.645,0.266l-0.909,0.2l-0.356,0.173l-0.047,0.212l0.004,0.13l0.083,0.183l0.121,0.123l0.164,0.151l0.1,0.183
		l0.005,0.079l-0.092,0.267l-0.12,0.403l0.021,0.207l0.077,0.156l0.286,0.199l0.183,0.046l0.294-0.016l0.307,0.067l0.377,0.114
		l0.139,0.232l0.014,0.212l-0.234,0.297l-0.532,0.315l-0.403,0.044l-0.342-0.089l-0.489-0.004l-0.247,0.089l-0.091,0.084
		l-0.251,0.009l-0.125-0.098l-0.161-0.071l-0.294,0.013l-0.178,0.112l-0.382,0.36l-0.308,0.433l-0.472,0.182l-0.26,0.009
		l-0.351-0.195l-0.144-0.335l0.044-0.396l0.091-0.504l-0.025-0.368l-0.178-0.414l-0.333-0.487l-0.234-0.173l-0.528-0.081
		l-1.442,0.037l-0.836,0.094l-1.555,0.305l-0.832,0.143l-0.727,0.217L120.7-74.94l-0.533,0.42l-0.792,0.245l-0.273-0.04l-0.19-0.121
		l0.014-0.292l0.164-0.271l0.061-0.187l-0.13-0.178l-0.45-0.11l-0.165-0.178l-0.009-0.155l0.07-0.158l0.095-0.245l-0.009-0.132
		l-0.126-0.126l-0.286-0.145l-0.597-0.208l-0.165-0.206l-0.013-0.208l-0.03-0.342l-0.096-0.182l-0.129-0.149l-0.261-0.147
		l-0.017-0.182l0.095-0.243l0.131-0.298l0.134-0.352l-0.009-0.153l-0.169-0.178l-0.195-0.151l-0.091-0.149l-0.1-0.338l-0.187-0.071
		l-0.216,0.036l-0.359,0.174l-0.265,0.009l-0.151-0.046l-0.19-0.017l-0.212,0.034l-0.281,0.201l-0.546,0.153l-0.355,0.199
		l-0.329,0.254l-0.459,0.076l-0.324,0.119l-0.209,0.114l-0.255,0.169l-0.355,0.147l-0.329,0.013l-0.26,0.039l-0.178,0.139
		l-0.277,0.436l-0.281,0.354l-0.455,0.176l-0.562-0.08l-0.208,0.011l-0.325,0.279l-0.276,0.461l0.034,0.288l0.073,0.149l0.299,0.383
		l0.135,0.412l-0.082,0.245l-0.286,0.326l-0.619,0.448l-0.377,0.439l-0.047,0.213l0.038,0.134l0.194,0.199l0.226,0.119l0.161,0.076
		l0.004,0.102l0.008,0.128l-0.229,0.274l0.014,0.187l0.082,0.262l0.27,0.119l0.077,0.156l-0.104,0.136l-0.319,0.228l-0.642,0.347
		l-0.594,0.103l-0.143-0.018l-0.165-0.232l-0.138-0.335l-0.303-0.489l-0.611-0.336l-0.312-0.169l-1.342-0.652l-0.966-0.643
		l-0.281-0.114l-0.489-0.033l-0.329,0.067l-0.363-0.009l-0.191,0.009l-0.174,0.11l-0.298,0.228l-0.403,0.069l-0.368,0.017
		l-0.701,0.033l-0.29,0.119l-0.247,0.194l-0.603,0.288l-0.584,0.055l-0.338,0.017l-0.745-0.075l-0.55,0.134l-0.597,0.234
		l-0.633,0.502l-0.663,0.559l-0.415,0.331l-0.567,0.368l-0.395,0.178l-0.614,0.134l-0.512,0.079l-0.724,0.299l-0.281,0.194
		l-0.39,0.226l-0.893,0.489l-0.77,0.509l-0.642,1.171l-0.095,0.297l-0.096,0.262l-0.195,0.284l-0.216,0.229l-0.33,0.102l-0.35,0.007
		l-0.408-0.108l-0.441-0.251l-0.368-0.279l-0.433-0.195l-0.469-0.169l-0.692-0.093l-0.307,0.018l-0.204,0.075l-0.286,0.288
		l-0.194,0.217l-0.126,0.274l-0.144,0.329l-0.177,0.183l-0.433,0.229l-0.646,0.307l-0.672,0.395l-0.477,0.301l-0.463,0.351
		l-0.688,0.635l-0.507,0.416l-0.633,0.461l-0.727,0.492l-0.46,0.235l-0.407,0.03l-0.237,0.033l-0.352-0.022l-0.312-0.139
		l-0.372-0.194l-0.463-0.208l-0.273-0.169l-0.472-0.195l-0.412-0.027l-0.368,0.02l-0.563,0.136l-0.619,0.25l-0.926,0.354
		l-0.832,0.279l-0.671,0.119l-0.646,0.132l-0.784,0.106l-0.753,0.08l-0.914,0.084l-0.602,0.037l-1.2,0.071l-1.1,0.061l-0.78,0.106
		L62.5-61.43l-0.272,0.09l-0.165,0.143l-0.139,0.128l-0.182,0.301l-0.195,0.199l-0.121,0.13l-0.403,0.106l-0.39,0.075l-0.714,0.021
		l-0.711-0.034l-0.45-0.024l-0.654-0.004l-0.995,0.071l-0.623,0.05l-0.654,0.233l-0.403,0.161l-0.299,0.178l-0.334,0.246
		l-0.26,0.304l-0.221,0.359l-0.139,0.255l-0.073,0.414l-0.043,0.47l0.009,0.258l0.147,0.327l0.229,0.396l0.225,0.411l0.151,0.24
		l0.021,0.297l-0.068,0.199l-0.195,0.186l-0.243,0.115l-0.12,0.076l-0.222,0.062h-0.125l-0.204,0.102l-0.108,0.115l-0.1,0.227
		l-0.038,0.23l-0.096,0.257l-0.165,0.199l-0.199,0.16l-0.347,0.061l-0.276-0.038l-0.229-0.195l-0.355-0.279l-0.238-0.228
		l-0.441-0.167l-0.329-0.093l-0.277-0.054l-0.26,0.017l-0.606,0.152l-0.407,0.128l-0.342,0.146l-0.523,0.275l-0.546,0.351
		l-0.251,0.229l-0.265,0.288l-0.139,0.258l-0.117,0.327L47-52.006l0.096,0.427l0.126,0.398l0.164,0.31l0.134,0.338l0.096,0.316
		l0.087,0.31l-0.018,0.313l-0.092,0.382l-0.095,0.315l-0.255,0.332l-0.42,0.177l-0.512-0.021l-0.367-0.009l-0.387-0.123
		l-0.605-0.062l-0.382,0.017l-0.272,0.147l-0.229,0.229l0.009,0.343l0.169,0.381l0.264,0.439l0.338,0.407l0.091,0.329l0.005,0.359
		l-0.126,0.187l-0.477,0.178l-0.71,0.182l-1.117,0.11l-1.013,0.128l-0.715,0.164l-0.199,0.128l-0.104,0.201l-0.113,0.314
		l-0.091,0.486l-0.131,0.414l-0.199,0.204L39.63-42.98l-0.459,0.262l-0.845,0.412l-1.234,0.516l-1.455,0.145l-1.953,0.106
		l-1.854,0.324l-0.646-0.059l-0.649,0.131l-1.135,0.437l-1.061,0.254L26.49-40.01l-0.849,0.072l-1.429-0.051l-1.568-0.411
		l-0.797-0.178l-0.489,0.005l-0.71,0.372l-0.845,0.741l-0.06,0.918l0.233,1.277l0.663,1.76l0.004,0.429l-0.208,0.49l-0.706,0.554
		l-1.204,0.62l-1.2,0.803l-1.277,0.731l-0.78,0.293l-0.628,0.054l-0.494-0.279l-0.282-0.143l-0.45,0.054l-0.498,0.483l-0.606,0.532
		l-0.892,0.535l-1.004,0.489l-1.053,0.537l-0.333,0.194l-0.554,0.199L7.977-28.59l-0.321,0.434l-0.455,0.244l-0.888,0.199
		l-0.832,0.25l-0.624,0.101l-0.325,0.386l0.004,0.24l0.004,0.479l-0.221,0.479l-0.39,0.385l-0.156,0.482l0.009,0.529l0.013,0.575
		l-0.225,0.579l-0.715,0.58L2.2-22.448H1.802l-0.463-0.139L0.71-23.012l-0.337-0.235l-0.624-0.137l-0.494,0.004l-0.715,0.297
		l-1.343,0.587l-0.662,0.057l-0.273-0.044l-0.173-0.333v-0.238l0.095-0.436l0.485-0.435l1.447-0.546l0.273-0.434l-0.005-0.383
		l-0.407-0.572l-1.368-1.228l-0.183-0.665l-0.004-0.383l-0.004-0.572l0.606-0.536l0.654-0.53l0.792-0.297l0.619-0.249l0.225-0.288
		l0.052-0.816l-0.013-0.475l0.052-0.435l0.55-0.631l1.494-1.405l1.381-1.112l1.763-1.215l0.832-0.489l1.762-0.832l1.113-0.777
		l0.151-1.104l-0.229-1.231l-0.281-0.572l-0.498-0.286L7.371-42.32l0.329-0.337l-0.069-0.43l-0.281-0.861l0.381-0.674l0.459-0.292
		h0.39l0.736,0.373l0.802,0.66l0.402,0.855l0.801,0.568l0.463,0.044l0.892-0.39l0.645-0.68l0.1-0.479l-0.108-0.141l-0.333-0.187
		l-0.273-0.236l0.165-0.385l0.32-0.577l1.005-0.727l0.893-0.537l0.216-0.386v-0.283l0.386-0.386l0.832-0.82l1.108-1.113l0.161-0.626
		l-0.004-0.19l-0.273-0.431l-0.736-0.427l-0.463-0.425l-0.516-0.758l-1.065-0.9l-0.463-0.236l-0.901-0.089l-0.459-0.136l-0.173-0.24
		l-0.23-0.572l-0.905-0.61l-0.68-0.617l-0.966-0.372l-0.731-0.33L8.717-57.22l-0.342-0.333l-1.126-0.466l-1.663-0.439l-0.906-0.323
		L3.62-59.203l-1.074-0.656l-1.234-0.322l-0.784,0.199l-1.014,0.39l-0.619,0.58l-0.442,0.676l-0.714,1.013l-0.321,0.485
		l-0.398,0.098l-0.667-0.139l-0.338-0.381l-2.979-1.267l-2.308-0.485l-0.377,0.862l-0.52,0.898l-0.758,1.438l-0.329,0.656
		l-0.429,0.453l-0.671,0.207l-0.996,0.418l-1.053,0.169l-1.004-0.037l-1.39-0.363l-1.299-0.89l-1.446-0.85l-1.343-0.89l-0.628-0.363
		h-0.333l-0.19,0.123l-0.381,0.487l-0.636,0.985l-0.819,0.966l-0.749,1.434l-1.42,2.217l-1.304,1.85l-1.182,1.68l-1.611,1.895
		l-1.758,1.644l-1.109,0.938l-1.334,0.987l-1.135,1.234l-1.233,1.271l-0.945,1.069l-0.831,1.108l-1.537,1.397l-1.135,1.108
		l-0.944,1.193l-0.832,1.438l-0.507,2.003l-0.108,0.851l-0.104,1.963l-0.061,0.9l-0.233,0.491l-0.139,0.775l0.104,0.693l0.009,0.61
		l-0.286,0.413l-0.832,0.983l-0.901,0.825l-1.472,1.028l-1.031,0.946l-0.576,0.859l-1.282,1.871l-0.412,0.554l-0.615,0.945
		l-0.845,1.025l-0.199,1.401l0.122,2.704l0.017,0.297l0.303,0.377l1.135,0.591l1.983,0.699l1.178,0.245l0.355,0.182l0.113,0.288
		l0.112,0.927l-0.035,3.246l-0.008,2.661l0.372,2.395l0.316,1.508l0.035,0.443l-0.251,0.843l-0.234,0.943l-0.026,0.396l0.333,0.724
		l1.169,2.261l0.74,1.786l0.182,1.074l-0.121,1.827l-0.307,2.129l-0.113,0.987l0.19,1.273l0.463,0.963l0.451,0.767l0.026,0.444
		l-0.398,1.002l-0.364,1.144l-0.896,2.252l-0.407,2.724l-0.438,4.102l-0.542,1.5l-0.649,0.862l-0.71,0.572l-0.788,0.232
		l-0.918-0.003l-1.039-0.347l-1.572-0.42l-2.382-0.537l-2.611-0.469l-4.218-0.598l-2.78-0.413l-1.499-0.128l-2.053,0.143
		l-2.724,0.519l-1.083,0.292l-1.685,1.139l-1.953,1.615l-1.269,0.646l-2.434,0.702l-2.663,0.662l-2.019,0.779l-0.606,0.324
		l-0.849,1.17l-0.68,1.606l-0.481,1.399l-0.048,1.97l-0.095,1.382l-0.134,1.291l-1.563,1.628l-0.918,1.442l-2.369,1.875l0.542,2.625
		l0.463,1.801l0.45,1.191l0.649,0.931l0.936,1.195l0.922,1.754l1.23,2.992l1.035,1.958l0.922,1.559l1.65,1.759l0.627,1.144
		l0.057,0.926l0.039,1.486l-0.03,1.225l-0.321,1.438l-0.502,1.221l-0.923,1.266l-1.567,1.364l-0.988,0.757l-0.355,0.659
		l-0.489,1.013l-0.619,0.763l-0.377,0.606l-0.654,0.657l-0.455,1.127l-0.022,0.662l-0.004,0.516l0.29,0.312l0.944,0.523l0.649,0.572
		l2.681,1.936l0.585,0.624l0.749,1.144l1.187,0.736l1.126,0.835l0.511,0.671l0.156,0.619l-0.014,0.508l-0.242,0.406l-0.364,0.304
		l-0.545,0.351l-0.654,0.611l-0.836,1.489l-0.017,2.256l1.096,2.3l1.94,0.944l2.585,0.13l1.014-0.005l0.286-0.091l0.308-0.125
		l0.463,0.429l0.229,0.199l0.125,0.333l0.03,0.364l-0.095,0.489l-0.321,0.45l-0.458,0.381l-0.395,0.352l-0.463,0.735l-0.458,0.611
		l-0.81,0.866l-0.896,0.927l-0.602,0.511l-0.546,0.347l-0.645,0.272l-0.723,0.117l-0.836-0.026l-1.014-0.155l-0.649-0.014
		l-0.832,0.272l-0.359,0.485l-0.165,0.425l0.117,0.918l0.264,1.282l0.095,0.728l-0.021,0.658l-0.13,0.719l-0.273,0.71l-0.511,0.871
		l-0.706,0.71l-0.883,0.402l-0.732,0.277l-0.81,0.108l-1.72-0.108l-1.239-0.064l-1.29-0.03l-0.438,0.087l-0.502,0.251l-0.303,0.181
		l-0.463,0.352l-0.355,0.516l-0.545,0.571l-0.364,0.555l-0.113,0.225l-0.1,0.849l-0.143,0.944l-0.03,0.719l-0.216,0.59l-0.593,0.805
		l-0.516,0.546l-0.645,0.347l-1.001,0.204l-0.922,0.237l-0.81,0.308l-0.584,0.281l-0.494,0.251l-0.243,0.222l-0.243,0.324
		l-0.212,0.485l-0.277,0.68l-0.337,1.234l-0.338,0.944l-0.091,0.39l0.151,0.758l0.052,0.888l0.091,0.528l0.221,0.528l0.126,0.398
		l-0.009,0.321l-0.208,0.519l-0.394,0.516l-0.819,0.411l-0.74,0.538l-1.204,0.368l-1.75,0.281l-0.593,0.381l-0.199,0.255
		l-0.091,0.359l-0.013,0.226l0.359,0.598l0.217,0.537l0.347,0.857l0.03,0.459l-0.06,0.464l-0.342,1.238l-0.138,0.914l0.078,1.412
		l-0.021,0.614l-0.022,0.693l-0.169,0.515l-0.355,0.386l-1.373,1.403l-0.649,1.256l0.199,0.139l0.658,0.467l0.927,0.693l0.498,0.373
		l0.645,0.602l0.567,0.512l0.299,0.254l0.238,0.105l0.464,0.064l0.645-0.022l0.398,0.087l0.13,0.052l0.247,0.147l0.342,0.321
		l0.81,0.87l0.351,0.589l0.269,0.628l0.186,0.45l0.182,0.277l0.424,0.264l0.277,0.092l0.376,0.086l0.572,0.01l0.524-0.044
		l0.606-0.108l0.589-0.044l0.576,0.039l0.298,0.078l0.351,0.243l0.169,0.256l0.269,0.272l0.39-0.408l0.689-0.826l0.424-0.593
		l1.663-0.642l3.378-0.948h0.545l0.598-0.173l0.593-0.398l1.542-0.924l0.649-0.42l0.269-0.221l-0.008-0.15l-0.091-0.156
		l-0.372-0.247l-0.403-0.355l-0.19-0.155v-0.26l0.169-0.356l0.788-1.125l1.013-1.256l1.078-1.455l0.836-0.753l1.065-0.819
		l0.801-0.771l0.559-0.372l0.273-0.108l0.333,0.068l0.398,0.221l0.494,0.273l0.273,0.069l0.273-0.018l0.416-0.251l1.07-0.813
		l0.914-0.901l0.646-0.441l0.663-0.261l0.926-0.268l0.567-0.286l0.507-0.347l0.498-0.485l0.464-0.303l0.779-0.372l0.589-0.139
		l0.606-0.061l0.143-0.13l0.204-0.199l0.147-0.265l0.225-0.29l0.217-0.065l0.394,0.048l0.1,0.174l0.004,0.199l0.078,0.511
		l0.217,0.242l0.49,0.112l0.576-0.017l0.325-0.087l0.269-0.199l0.412-0.528l0.277-0.338l0.321-0.281h0.156l0.238,0.107l0.134,0.204
		l0.559,0.425l0.862,0.429l0.9,0.555l0.533,0.488l0.42,0.672l0.45,0.42l0.282,0.108l0.996-0.087l0.775-0.216l0.485-0.325
		l0.216-0.523l0.13-0.91l-0.018-0.537l0.048-0.398l0.095-0.13l0.143-0.043l0.273,0.065l0.589,0.116h0.477l0.308,0.026l0.606,0.125
		l0.19,0.183l0.247,0.272l0.269,0.13h0.494l1.447-0.121l0.606-0.018l0.368,0.091l0.16,0.229l0.061,0.265l-0.026,0.887l0.096,0.373
		l0.099,0.156l0.463,0.043l0.425-0.035l0.961-0.125l1.481-0.117l0.91-0.129l0.48-0.174l0.273-0.147l0.233-0.269l0.312-0.701
		l0.108-0.481l-0.074-0.463l-0.065-0.285l-0.034-0.286l0.165-0.247l0.152-0.247l-0.074-0.242l-0.169-0.312l-0.494-0.507
		l-0.498-0.455l-0.355-0.398l0.021-0.156l0.204-0.104l0.212,0.021l0.39,0.147l0.979,0.251l0.944,0.164l0.424,0.005l0.359-0.104
		l0.355-0.286l0.411-0.304l0.693-0.272l1.079-0.164l1.057-0.165l0.42-0.173l0.415-0.3l0.113-0.312l0.091-0.329l0.277-0.333
		l0.26-0.238l0.355-0.242l0.542-0.143l0.511-0.108l0.541-0.147l0.295-0.26l0.19-0.42l0.104-0.776l0.069-1.134l0.008-0.473
		l0.234-0.22l0.212-0.044l0.208-0.018l0.424,0.182l1.559,0.481l1.472,0.402l1.252,0.203l1.204,0.104l0.97-0.113l1.646-0.385
		l1.381-0.251l1.243-0.27l0.909-0.025l0.758,0.018l0.827,0.13l0.723,0.194l2.031,0.563l1.763,0.653l1.416,0.356l1.269,0.458
		l1.732,0.789l0.953,0.294l0.273,0.009l0.225-0.035l0.572-0.181l1.083-0.347l1.94-0.226l2.014-0.173l1.707,0.164l0.381-0.745
		l0.571-0.81l0.377-0.524l0.16-0.281v-0.221v-0.182l0.061-0.091l0.291-0.04l0.329-0.042h0.42l0.247,0.042l0.347,0.096l0.16,0.122
		l0.719,0.57l0.589,0.46l0.502,0.389l0.242,0.14l0.299,0.048l0.464-0.082l0.458-0.183l0.398-0.182l0.377-0.173l0.303-0.026h0.156
		l0.273,0.121l1.178,0.649l0.667,0.364l0.645,0.104l0.45-0.017l0.308-0.096l0.459-0.3l0.251-0.202l0.294-0.218l0.303-0.061h0.277
		l0.459,0.183l0.585,0.347l0.463,0.363l0.316,0.122h0.308l0.29-0.113l0.459-0.277l0.377-0.406l0.19-0.199l0.134-0.096l0.216-0.018
		l0.26,0.039l0.216,0.018l0.455,0.225l0.667,0.672l0.637,0.567l0.373,0.281l0.567,0.112h0.506l0.429-0.104l0.463-0.199l0.771-0.472
		l1.13-0.984l0.97-1.168l0.619-0.624l0.19-0.407l0.191-0.156l-0.282-0.026l-0.134-0.276l-0.273-0.321l-0.641-0.225l-0.589,0.053
		l-0.272,0.19l-0.329,0.052l-0.42-0.026l-0.342-0.242l-0.221-0.243l-0.017-0.285l0.16-0.147l0.368-0.087l0.165-0.039l0.083-0.217
		l-0.013-0.256l-0.096-0.312l0.156-0.259l0.398-0.338l0.368-0.156l0.373-0.052l0.498,0.19l0.376-0.082l1.018-0.498l0.563-0.42
		l0.203-0.222l-0.018-0.251l-0.129-0.212l-0.671-0.299l-1.312-0.528l-1.485-0.668l-0.693-0.554l-0.476-0.736l-0.204-0.666
		l-0.156-1.725l-0.126-0.71l-0.03-0.39l0.156-1.117l0.269-0.762l0.627-0.992l0.251-0.983l-0.056-1.182l-0.147-0.572l-0.39-0.272
		l-0.463-0.057l-0.277,0.082l-0.243,0.226l-0.225,0.685l-0.143,1.299l-0.143,0.511l-0.108,0.217l-0.936,0.459l-0.624,0.131
		l-0.33-0.027l-0.299-0.246l-0.398-0.45l-0.259-0.065h-0.26l-0.615,0.347l-0.411,0.096l-0.424-0.096l-0.299-0.242l-1.113-1.542
		l-2.641-2.997l-0.451-0.52l-0.402-0.182l-0.273-0.052l-0.325,0.19l-0.251,0.19l-0.342,0.506l-0.364,0.229l-0.208-0.03l-0.398-0.307
		l-0.559-0.408l-0.888-0.401l-1.637-0.365l-1.472-0.281l-0.559-0.342l-0.096-0.281l0.1-0.364l0.243-0.328l0.749-1.161l0.096-0.269
		l0.212-0.797l0.269-0.658l0.515-0.484l0.347-0.512l0.272-0.581l0.352-0.597l0.823-1.282l0.667-0.598l0.836-0.602l1.018-0.395
		l1.273-0.333l1.022-0.183l0.65-0.125l0.428,0.018l0.719,0.299l0.333,0.091l0.424-0.009l0.32-0.086l0.411-0.27L9.376,99.2
		l0.337-0.767l0.057-0.646l-0.057-0.251l-0.095-0.32l-0.013-0.286l0.117-0.146l0.199-0.156l1.031-0.069l1.031-0.034l0.649-0.096
		l0.529-0.338l0.078-0.281l-0.013-0.291l-0.138-0.319l-0.061-0.243l0.151-0.294l0.403-0.339l0.757-0.45l0.724-0.455l0.407-0.298
		l0.272-0.411l0.096-0.611l0.03-0.324l0.1-0.252l0.247-0.264l0.455-0.372l0.238-0.329l0.113-0.183l0.026-0.398l-0.047-0.822
		l-0.165-1.074l0.143-1.156l0.139-0.619l0.347-0.511l0.779-0.529l0.814-0.528l0.524-0.347l0.403-0.406l0.226-0.478l0.156-0.319
		l-0.048-0.862l0.074-1.507l-0.013-0.395l0.36-0.338l0.359-0.294l0.1-0.438l-0.026-0.464l0.005-0.753l0.13-0.728l0.147-0.438
		l0.277-0.291l0.624-0.172l0.533-0.156l0.788-0.312l0.615-0.312l0.485-0.225l0.277-0.408l0.477-0.337l0.832-0.208l0.542-0.052
		l0.537-0.053l0.458-0.272l0.273-0.511l0.143-0.438l0.195-0.364l0.446-0.48l0.822-0.463l0.42-0.044l0.463-0.017l0.459-0.234
		l0.472-0.338l0.498-0.874l0.446-1.59l0.199-1.373l-0.091-0.853l-0.277-0.71l-0.398-0.382l-0.078-0.671l0.1-1.265l0.502-2.599
		l0.19-0.403l0.368-0.19l0.745-0.169l1-0.173l0.948-0.429l1.156-0.463l0.676-0.562l0.299-0.547l0.195-0.476l0.489-0.087l1.342,0.091
		l0.646,0.091h0.281l0.347-0.217l0.398-0.402l0.082-0.429v-0.425l0.096-0.281l0.1-0.139l0.229-0.052l0.273-0.139l0.13-0.073v-0.187
		l0.034-0.354l-0.164-0.191l-0.654-0.164l-0.649-0.165l-0.654-0.398l-0.55-0.429l-0.324-0.363l-0.387-0.546l-0.199-0.346
		l-0.061-0.278l0.061-0.411l0.226-0.355l0.194-0.182l0.451-0.074l1.355-0.025l0.996-0.069l0.935-0.138l0.524-0.243l0.524-0.45
		l0.325-0.806l0.086-0.784l-0.147-0.896l-0.134-0.312l-0.276-0.265l-0.966-0.424l-1.074-0.373l-0.459-0.281l-0.104-0.286
		l-0.025-0.259l0.025-0.412l0.091-0.251l0.225-0.221l0.387-0.398l0.225-0.269l0.065-0.182l-0.039-0.19l-0.092-0.165l-0.194-0.139
		l-0.329-0.19l-0.222-0.234l-0.194-0.285l-0.095-0.329l0.095-0.333l0.256-0.281l0.247-0.213l0.498-0.092l0.459-0.025l0.316-0.043
		l0.139-0.147l-0.101-0.183l-0.294-0.164l-0.165-0.406l0.057-0.278l0.139-0.268l0.221-0.139l0.42-0.026l0.299,0.121l0.295,0.281
		l0.385,0.135l0.195,0.057l0.39-0.074l0.58-0.164l0.325-0.078l0.299-0.018l0.355,0.329l0.09,0.286l0.191,0.207l0.333,0.079
		l0.395-0.026l0.831-0.407l1.403-0.645l0.611-0.209h0.328l0.521,0.209l0.488,0.091l0.321-0.069l0.459-0.139l0.286-0.174l0.233-0.208
		l0.086-0.242v-0.208l-0.086-0.269l-0.091-0.304l0.057-0.232l0.095-0.147l0.355-0.234l0.359-0.095l0.194-0.14l0.135-0.233
		l0.155-0.433l0.07-0.329l0.095-0.096l0.276-0.091l0.387-0.057l0.523-0.091l0.611-0.229l0.645-0.498l0.464-0.216h0.385l0.359,0.073
		l0.36,0.233l0.09,0.286v0.312l0.191,0.303l0.649,0.298l0.605,0.222l0.494,0.069l0.715-0.139l1.191-0.354l1.386-0.616l0.875-0.233
		h0.358l0.641,0.139l0.832,0.376l0.711,0.191l1.459-0.018l1.403,0.018l1.074,0.264l1.121,0.281l0.459,0.14l1.46,0.264l1.004,0.1
		l0.78-0.048l0.87-0.095l0.654-0.096l0.489-0.182l0.42-0.269l0.299-0.26l0.87-0.754l0.754-0.641l1.29-0.793l1.637-0.943l1.772-0.782
		l2.122-0.97l1.774-0.808l1.213-0.589l0.581-0.381l0.26-0.312L91.16,28.9l0.29-0.377l0.711-1.113l0.831-1.02l1.334-1.518
		l1.472-1.446l1.611-1.471l1.378-1.323l0.251-0.26l0.502-0.426l0.524-0.368l0.064-0.405l0.222-0.373l0.095-0.669l0.025-0.436
		l0.278-0.678l0.338-1.112l0.095-0.572l0.025-0.621l0.091-1.942l0.078-1.176l0.252-0.673l0.468-1.016l0.645-1.355l0.611-0.72
		l1.065-1.438l0.896-1.13l1.563-1.646l0.979-1.101l1.199-1.507l0.836-1.429l1.018-1.8l1.018-1.934l0.676-1.592l0.434-1.214
		l0.472-1.15l0.276-0.606l0.928-1.295l1.382-1.176l1.566-1.185l1.568-1.041l0.862-0.626l0.57-0.453l1.344-1.073l1.87-1.321
		l1.759-1.082l1.381-0.661l2.823-1.113l3.271-1.457l2.387-1.069l2.576-1.104l2.43-1.069l2.139-1.09l2.127-1.29l1.19-0.866
		l1.291-1.169l1.473-1.544l0.992-1.131l0.936-1.197l0.692-1.121l0.588-1.287l0.183-0.372l0.147-0.071h0.112l0.16,0.194l0.459,0.589
		l0.272-0.34v-0.205l0.542-1.051l0.295-0.575l1.16-2.538l1.018-1.821l0.797-1.987l0.247-0.475l1.104-1.393l0.74-1.069l0.516-1.174
		l0.498-0.71l0.52-0.816l0.092-0.351l0.502-0.59l0.792-0.744L163.5-51.7l1.234-1.016l2.122-1.795l1.784-1.321l0.646-0.656
		l0.927-0.967l1.044-1.042l0.961-1.044l1.243-1.271l1.013-0.928l0.555-0.422L178.277-64.138"/>
</g>
<g id="Layer_1_1_">
</g>
</svg>
