<?xml version="1.0" encoding="utf-8"?>
<!-- Generator: Adobe Illustrator 16.0.4, SVG Export Plug-In . SVG Version: 6.00 Build 0)  -->
<!DOCTYPE svg PUBLIC "-//W3C//DTD SVG 1.1//EN" "http://www.w3.org/Graphics/SVG/1.1/DTD/svg11.dtd">
<svg version="1.1" id="Layer_1" xmlns="http://www.w3.org/2000/svg" xmlns:xlink="http://www.w3.org/1999/xlink" x="0px" y="0px"
	 width="300.791px" height="167.61px" viewBox="-127.306 -70.664 300.791 167.61"
	 style="enable-background:new -127.306 -70.664 300.791 167.61;" xml:space="preserve">
<g id="Layer_64">
	<path id="Khyber_Agency." style="fill:#CCCCCC;stroke:#FFFFFF;stroke-width:1.15;" d="M168.09,90.149L168.09,90.149l-0.681-0.237
		l-2.222-0.898l-0.799-0.336l-0.724-0.263l-0.893-0.33l-0.93-0.55l-0.324-0.263l-0.287-0.218l-0.15-0.2l-0.242-0.237l-0.399-0.536
		l-0.312-0.549l-0.374-0.412l-0.661-0.437l-0.125-0.263l-0.019-0.299l0.024-0.262l0.075-0.351l-0.169-1.136l0.031-0.772l0.057-0.139
		l0.056-0.306l0.119-0.38l0.404-0.768l0.363-0.799l0.393-0.343l0.468-0.025l-0.162-1.41l-0.05-0.412l0.1-0.249l0.269-0.25
		l0.562-0.898l0.487-1.048l0.337-1.187l0.175-0.711l0.168-0.543l0.219-0.842l0.23-0.699l0.155-0.911l-0.036-0.399l-0.251-0.3
		l-1.116-0.83l-1.03-0.598l-0.292-0.119l-0.22-0.275l-0.305-0.361l-0.269-0.243l-0.355-0.269l-0.712-0.611l-0.505-0.412
		l-0.512-0.286l-1.049-0.612l-0.823-0.337l-1.061-0.312l-0.749-0.161l-0.162-0.088l-0.106-0.312l-0.193-0.325l-0.162-0.138h-0.225
		l-0.318,0.076l-0.219-0.101l-0.399-0.299l-0.187-0.15l-0.132-0.101l-0.398-0.748l-0.094-1.136l-0.138-0.424l-2.527-1.298
		l-0.324-0.231l-1.766-0.917l-0.806-0.4l-1.322-0.811l-0.842-0.711l-0.624-0.643l-0.543-0.537l-0.73-0.655l-0.849-1.11l-0.355-0.637
		v-0.199l0.105-1.148l0.269-0.898l0.175-1.26l0.138-1.074l0.293-1.723l0.661-0.673l0.568-0.499l0.386-0.038l1.224-0.6l0.081-0.393
		l0.006-0.013l0.095-0.324l0.112-0.182l0.293-0.38l-0.094-0.306l-0.256-0.649l-0.237-0.586l-0.394-0.699l-0.399-0.749l-0.436-0.873
		l-0.487-0.849l-0.387-0.774l-0.056-0.236l-0.113-0.388l-0.118-0.405l-1.729-1.716l-0.836-0.637l-0.643-0.605l-0.193-1.372
		l-0.394-0.275l-0.381-0.274l-0.424-0.287l-0.93-0.736l-0.418-0.299l-0.412-0.213l-0.83-0.717l-0.131-0.675l0.105-1.048l0.139-0.499
		l0.436-1.272l0.138-1.011l-0.368-0.669l-0.138-0.586l-0.162-0.667l-0.505-1.224l-0.356-0.3l-0.168-0.312l-0.263-0.548l-0.218-0.475
		l-0.2-0.3l-0.455-0.149l-0.611-0.181l-0.394-0.106l-0.486-0.226l-1.198-0.124l-0.568,0.068l-0.299,0.062h-0.35l-0.399-0.212
		l-0.43-0.056l-0.139,0.019l-1.396,0.193l0.13-1.005l0.081-0.567l0.014-0.101l0.067-0.418l0.057-0.658l0.106-0.543l0.138-0.562
		l0.13-0.564l0.238-0.727l0.168-0.465l0.249-0.59l0.368-1.183l0.406-1.104l0.181-0.64l0.132-1.151l-0.112-0.33l-0.138-0.44
		l-0.381-0.651l-0.325-0.335l-0.786-0.836l-0.168-0.567l-0.2-0.695l-0.024-0.406l-0.038-0.624l0.038-0.499l0.031-0.762l0.013-0.274
		l-0.094-0.86l-0.674-0.596l-0.661-0.479l-1.548-1.541l0.131-0.396l-0.013-0.867l-0.225-0.736l-0.106-1.054l0.138-0.269l0.199-0.209
		l0.937-0.627l0.624-0.469l0.33-0.202l0.438-0.269l0.499-0.543l0.132-0.25l0.112-0.907l-0.344-1.11l-0.28-1.854l0.037-0.834
		l0.492-0.677l0.781-0.536l0.342-0.234l0.412-0.321l0.212-0.196l0.381-0.384l0.537-0.543l0.643-0.646l0.68-0.749l0.918-0.758
		l0.849-0.608l0.667-0.593l0.605-0.578l0.025-0.024l-6.533-2.505l-1.098-0.007l-2.665-0.013l-1.672,0.294l-3.058-0.082l-3.221-0.583
		l-2.209-0.268l-1.797-0.422l-2.427-0.402l-0.394-2.068l-0.398-0.206l-1.161-0.646l-1.56-0.49l-0.038-0.01l-2.633-0.396
		l-2.402-0.977l-0.138-0.05l0.181-2.871l2.146-2.043l0.199-0.353l0.844-1.476l1.123-1.438l0.018-0.103l0.394-1.68l-0.068-1.75
		l-0.361-1.731l-0.263-1.322l-0.056-1.938l1.203-2.361l-0.067-1.657l-1.154-1.354l-1.804-1.726l-3.026-2.446l-2.259-1.113
		l-1.392-0.933l-2.097-1.354l-1.729-2.817l-1.735-1.481l-1.672-0.934l-2.015-1.17l-1.822-0.748l-1.804-0.368l-3.625-0.64
		l-3.07-0.877l-1.592-0.318l-1.827-0.024l-2.034-0.138l-1.243-0.056l-2.364-0.191l-0.038,0.044l-0.431,2.549l-7.025,8.562
		l-2.203,3.638l-0.205,3.257l0.992,3.401l0.398,1.329l2.328,3.129l-1.872,2.955l-0.605,1.635l-0.405,1.117l0.274,4.14l0.149,2.409
		v1.79l0.007,2.646l-0.48,0.384l-3.95,3.16l-7.868,9.456l-1.828,2.065L45.4-6.22l0.611,3.451L45.73,1.786l-2.683,2.615L42.81,4.635
		l-3.014,0.321l-3.064,0.331l-0.66-0.094l-1.504-0.225l-1.566,1.342l-2.784,2.358l-4.273,1.744l-0.793,0.324l-4.13,0.054
		l-4.25,1.488l-3.326,1.163l-3.12,1.142l-1.934,0.702l-2.739-0.115L4.99,15.377l-0.829,0.256l-0.456,0.141l-0.393,2.262
		l-1.311,1.416L-1.38,23.09l-3.626,1.453l-3.038-0.274l-1.349-0.131l-1.604-0.237l-3.032-0.418l-6.353-0.262l-0.755-0.025
		l-0.094,0.038l-1.99,0.941l-1.896,0.918l-5.592,1.822l-2.34,2.639l-3.063,0.799l-2.321-0.799l-2.253-0.755l-2.521,0.112
		l-0.244,0.013l-10.42-0.188l-6.583,0.188l-6.677,1.565l-5.46-0.667l-2.259-0.462l-7.525-1.51l-8.88,1.709l-0.836,0.425
		l-2.539,1.272l-2.078,1.386l-0.175,0.125l-3.744-1.741l-1.46,0.394l-2.184,0.611l-1.386,0.692l-1.173,0.58h-0.094l-8.954,0.119
		l-5.935-2.202l0.1,7.424l-0.199,2.604l0.262,1.94l-0.037,1.571l0.499,1.598l1.654,1.967l1.734,1.971l2.04,1.348l2.533,1.548
		l2.328,0.979l3.045,2.79l2.378,2.214l1.142,2.734l0.849,2.334l0.667,2.495l4.138,2.103l2.833,0.88l2.826,0.499l1.585,1.111
		l2.259,1.173l1.679,0.749l2.184,1.535l-0.549,2.358l-0.624,2.921l0.736,3.058l0.562,2.738l0.649,1.729l1.147,1.647l1.561-1.51
		l0.63-2.246l1.03-1.535l1.547-1.485l1.436-1.884l1.254-1.76l1.248-1.192l3.332,0.979l1.204,1.062l1.46,1.753l1.205,2.634
		l0.761,2.146l1.466,1.217l1.567,2.203l1.89,0.979l3.389,2.789l4.337,0.025l2.689,0.212l4.93-0.393l3.743-0.512h1.892l3.15-1.005
		l2.628-0.593l3.669-0.394l3.65-1.06l1.646-0.076l0.861-0.043l4.331-0.93l2.333-0.637l1.535-0.38l1.542-0.287l2.258-0.588
		l2.54-0.112l1.915,0.031l3.595-1.017l1.922-0.349l1.828-0.231l1.829-0.48l1.74-0.399l1.529-0.287l0.593-0.199l2.209-0.699
		l2.627-0.462l2.415-0.393l3.55-0.48l1.46-1.149l0.057-2.732l-0.412-1.703l0.031-2.016l-0.131-3.208l0.399-1.509l1.322-1.273
		l2.628-0.163l2.514-0.536l1.979-0.1l4.33-0.35l2.128-0.025l3.357-0.773l2.926-0.075l1.741-0.305l2.921-0.337l2.427-1.012
		l1.522-0.324l2.265-1.191l1.279-1.635l1.536-0.949l1.266-1.74l0.462-2.266l1.273-2.733l0.823-2.121l2.802-0.512l2.19,1.466
		l1.791,0.443l2.19,1.036l3.513,1.392l3.863,1.541l4.124,1.747l1.447,1.123l0.893,1.323l1.591,1.173l1.979,1.011l1.653,0.904
		l1.13,0.525l1.485,0.718l2.995,1.116l1.971,0.024l2.034,0.55l1.212,1.311l2.389,1.397l3.308,0.212l2.271-0.711l1.741-0.586
		l1.76,4.03l0.355,2.19l1.366,2.563l2.353,2.266l1.448,2.334l1.678,1.36l1.454,1.235l2.927,1.186l4.867,1.61l2.184,0.88l2.414,0.742
		l2.541,0.188l2.626,0.643l2.715,0.274l2.384,0.075l3.369,0.024l1.74,0.263l4.157-0.075l3.213-0.537l2.222,0.025l6.421,0.275
		l9.971,0.062L168.09,90.149"/>
</g>
<g id="Layer_1_1_">
</g>
</svg>
