<?xml version="1.0" encoding="utf-8"?>
<!-- Generator: Adobe Illustrator 16.0.4, SVG Export Plug-In . SVG Version: 6.00 Build 0)  -->
<!DOCTYPE svg PUBLIC "-//W3C//DTD SVG 1.1//EN" "http://www.w3.org/Graphics/SVG/1.1/DTD/svg11.dtd">
<svg version="1.1" id="Layer_1" xmlns="http://www.w3.org/2000/svg" xmlns:xlink="http://www.w3.org/1999/xlink" x="0px" y="0px"
	 width="301.081px" height="215.809px" viewBox="-126.723 -90.706 301.081 215.809"
	 style="enable-background:new -126.723 -90.706 301.081 215.809;" xml:space="preserve">
<g id="Layer_75">
	<path id="Layyah" style="fill:#CCCCCC;stroke:#FFFFFF;stroke-width:1.15;" d="M-110.376-65.999L-110.376-65.999l-2.062,1.229
		l-1.399,3.042l-0.332,0.919l-0.992,0.729l-1.344,0.596l-1.123,0.584l-0.891,0.621l-0.632,0.675l-0.457,0.778l0.025,0.712
		l0.13,0.353l0.468,0.348l0.791,0.237l2.248,0.62l1.871,0.669l1.332,0.639l0.56,0.748l0.255,0.657l-0.055,0.56l-0.903,1.046
		l-0.69,0.773l-0.842,1.752l-0.548,1.587l-0.517,2.652l-0.386,5.207l-0.13,1.771l0.304,2.336l0.286,1.679l0.806,1.204l1.006,2.27
		l0.91,2.786l0.386,1.971v1.989l-0.186,1.368l-0.094,1.381l0.106,1.32l0.386,0.651l0.605,0.34l0.909,0.141l0.928-0.019l0.647,0.085
		l0.186,0.359l0.012,0.505l-0.268,1.077l-0.249,1.532l0.088,1.017l0.332,1.112l0.131,1.679l0.042,1.686l-0.605,1.897l-0.478,1.686
		l-0.213,3.005l-0.118,2.598l0.13,4.124l0.828,4.312l0.414,2.026l-0.262,1.174l-0.386,0.967l-0.274,0.772l-1.153,1.296l-1.509,1.149
		l-1.195,1.406l-0.575,0.827l0.012,0.401l0.386,0.353l0.593,0.037l1.302-0.073l1.171-0.231l1.229-0.128l2.303-0.048l0.836,0.085
		l0.304,0.146l0.387,0.348l0.131,0.406l-0.067,6.363l-0.337,0.621l-0.754,0.675l-1.107,0.566l-1.995,0.869l-0.761,0.365
		l-0.909,0.584l-1.262,1.191l-1.062,1.175L-114.4,33.8l-0.447,0.974l-0.131,0.815l0.085,1.016l1.515,5.419l0.381,0.864l0.417,0.293
		l0.417,0.14l0.532-0.122l1.512-0.535l1.216-0.231l0.828,0.037l0.654,0.297l0.423,0.445l0.177,0.796l0.103,0.615l-0.365,0.771
		l-0.66,0.676l-0.511,0.718l-0.557,1.29l-1.238,2.263L-111,52.445l-0.62,0.924l-0.937,0.553l-0.821,0.067l-0.952-0.183l-0.778-0.438
		l-1.609-0.377l-1.295-0.062l-1.29,0.237l-0.764,0.311l-0.635,0.413l-0.375,0.414l-0.106,0.56l0.076,0.511l0.386,0.402l0.702,0.438
		l1.089,0.432l0.606,0.348l0.31,0.607l0.112,0.961l-0.197,5.348l-0.344,3.218l-0.453,1.581l-0.283,0.512l-0.125,0.767l0.313,0.613
		l0.422,0.391l0.772,0.09l1.296-0.035l2.479,0.255l1.943,0.262l1.177,0.23l1.135,0.28l1.551,0.584l1.146,0.895l1.034,0.997
		l0.648,1.107l0.198,1.059l-0.131,2.458l0.1,7.841l-0.024,1.07l-0.262,1.326l-0.243,1.892l-0.167,3.613l0.091,3.255l0.268,1.119
		l0.307,0.45l0.255,0.608l0.006,2.452l2.241,0.376l2.288-0.109l1.73-0.249h1.582l2.092-0.214l1.427-0.328l1.234-0.438l1.265-0.596
		l1.046-0.707l0.828-0.729l0.486-0.413l0.529-0.377l0.35-0.122l1.007,0.049l2.68,0.226l3.47,0.449l3.164,0.208l1.776,0.194
		l1.028-0.067l0.697-0.152l1.29-0.511l1.469-0.438l1.29-0.231l1.825-0.097l2.275-0.572l2.092-0.055l1.308,0.256l0.672,0.297
		l0.131,0.293l-0.596,0.729l-0.249,0.65v0.512l0.404,0.456l1.159,0.389l1.266,0.177l1.536,0.158l1.615,0.098l2.409-0.292
		l1.622,0.066l1.569,0.286l0.94,0.438l0.909,0.846l0.909,0.906l0.666,0.65l0.879,0.555l1.022,0.292l1.582,0.206l1.557,0.098
		l0.575-0.091l0.708-0.353l0.867-0.682l1.618-0.991l1.858-0.961l1.101-0.451l1.515-0.151l1.688,0.207l1.563,0.042l1.658,0.219
		l0.815,0.384l0.647,0.535l0.624,0.791l0.59,0.322l0.386,0.061l0.73-0.183l0.91-0.279l1.25-0.59l2.206-1.43l2.744-2.117l2.719-1.765
		l2.631-1.441l0.642-0.371l0.112-0.347l-0.319-0.56l-1.152-1.186l-0.952-1.291l-0.63-1.046l-0.873-1.112l-0.38-0.772l0.012-0.554
		l0.182-0.65l0.423-0.585l0.934-1.083l0.961-1.107l1.034-1.112l1.159-1.405l1.6-2.196l0.423-0.906l0.131-0.65l-0.168-0.87
		l-0.416-1.655l-0.368-0.961l-0.274-0.559l0.085-0.591l0.283-0.523l0.459-0.377l1.539-0.602l1.213-0.316l1.171,0.03l1.365,0.177
		l2.741,0.614l1.527,0.279l1.046-0.134l1.177-0.364l0.997-0.391l0.964-0.547l0.991-0.134l0.821,0.115l2.942,0.548l1.393,0.219
		l1.746,0.128l2.467,0.206l1.8,0.53l0.69,0.298l1.508,0.888l1.25,1.047l0.523,0.705l0.706,0.378l1.463,0.121l1.266-0.073
		l3.096,0.341l1.785,0.358l0.822,0.354l0.852,0.718l1.355,0.985l2.209,1.771l1.727,1.356l2.264,2.067l1.52,1.363l2.482,1.91
		l1.605,1.575l1.133,1.223l0.717,1.149l0.926,1.485l0.705,0.899l0.814,0.645l1.545,0.926l0.889,0.596l1.107,1.113l1.453,1.119
		l1.357,1.027l0.814,1.394l1.447,1.546l1.783,1.653l1.223,0.846l1.473,1.077l1.301,1.052l1.424,1.083l2.227,1.302l2.025,1.035
		l2.287,1.404l2.488,1.503l2.482,1.138l2.699,1.186l2.52,1.181l1.887,0.778l1.277,0.645l1.312,0.426l0.463,0.457l0.256-0.007
		l0.242,0.019h0.365l0.639-0.164l0.566-0.256l0.656-0.231l0.912-0.328l0.385-0.207l0.48-0.024l0.389,0.109l1.156,0.269l0.717,0.091
		l1.133,0.061l0.668,0.043l0.656-0.207l0.426-0.236l0.33-0.165l0.475-0.097l0.607-0.044l0.59-0.267l0.348-0.262l0.268-0.104
		l0.4,0.049l0.475,0.109l0.389-0.03l0.908-0.195l0.662-0.358l0.639-0.535l0.566-0.657l0.291-0.462l0.074-0.383l-0.141-0.651
		l-0.291-0.889l-0.221-1.204l-0.018-0.767l0.262-0.571l0.291-0.487l0.482-0.498l0.424-0.292l0.549-0.164l0.463-0.067l0.668,0.048
		l1.752,0.476l1.156,0.389l0.328,0.171l0.383,0.279l0.73,0.249l1.479,0.408l0.889,0.291l1.088,0.64l0.42,0.267l0.486,0.299
		l0.566,0.183l0.57,0.11l0.592-0.135l0.188-0.14l0.27-0.183l0.273-0.194l0.443-0.183l0.316-0.207l0.248-0.226l0.391-0.462
		l0.475-0.596l0.803-0.961l0.9-1.765l1.947-1.972l0.486-0.54l0.23-0.73l0.037-0.962l0.035-0.875l-0.127-1.983l0.201-1.277
		l0.486-1.739l0.072-0.645l-0.035-0.651l-0.488-1.205l-0.303-0.742l-0.5-0.846l0.014-0.322l0.133-0.498l0.279-0.372l0.816-0.522
		l2.469-0.396l1.691-0.517l1.033-0.761l1.145-0.578l0.561-0.718l0.303-0.73l0.023-0.456l-0.193-0.56l-0.291-0.742l-0.135-0.741
		l-0.072-1.242l-0.207-1.063l0.133-0.555l0.463-1.312l0.469-1.74l0.406-0.949l0.281-0.688l0.34-0.45l0.354-0.316l0.688-0.352
		l0.82-0.391l1.156-0.426l1.289-0.341l1.4-0.291l0.912-0.48l0.711-0.767l0.846-1.138l0.305-0.815l0.037-1.01l0.193-1.338
		l0.135-1.187l0.17-0.322l0.512-0.767l0.766-0.814l0.512-0.719l0.645-0.493l0.432-0.261l0.723-0.341l0.598-0.134l1.812,0.049
		l1.752,0.097l2.402,0.146l1.137-0.158l1.029-0.384l1.234-0.571l0.998-0.985l0.729-1.229l0.359-1.004l0.189-1.01l0.037-0.919
		l-0.135-1.016l-0.383-1.8l-0.141-1.297l0.219-0.596l0.506-0.676l1.174-0.389l0.906,0.013l1.43,0.23l1.168,0.025l1.021-0.146
		l0.912-0.396l0.768-0.48l0.826-0.712l1.279-1.302l1.105-1.211l0.67-0.863l0.639-1.035l0.564-0.492l0.646-0.535l0.449-0.645
		l0.127-0.676l-0.041-0.511l-0.189-0.468l-0.311-0.286l-0.645-0.603l-0.426,0.17l-0.426,0.135l-1.398,0.005l-3.625-0.175
		l-2.732-1.333l-1.539-3.236l0.037-3.175l1.168-2.093l0.924-0.852l0.768-0.493l0.51-0.42l0.354-0.572l0.012-0.717l-0.23-0.864
		l-0.73-0.948l-1.568-1.175l-1.656-1.033l-1.045-1.601l-0.828-0.888l-3.777-2.714l-0.906-0.802l-1.332-0.743l-0.396-0.438
		l0.014-0.723l0.023-0.931l0.633-1.576l0.924-0.925l0.523-0.857l0.871-1.064l0.688-1.43l0.516-0.925l1.363-1.064l2.207-1.91
		l1.303-1.782l0.693-1.716l0.439-2.014l0.047-1.733l-0.055-2.086l-0.066-1.302l-0.889-1.594l-2.311-2.482l-1.303-2.178l-1.441-2.762
		l-1.758-4.203l-1.295-2.464l-1.303-1.679l-0.906-1.308l-0.645-1.667l-0.633-2.53l-0.766-3.717l-0.512-3.973l-0.049-0.316
		l-2.75-0.803l-2.549-0.475l-2.475-0.146l-2.568,0.012l-2.244,0.213l-2.846,0.486l-2.975,0.39l-0.871,0.024l-0.662-0.347
		l-0.828-0.767l-0.998-0.657l-1.988-1.204l-1.562-1.113l-1.26-1.277l-1.521-1.794l-2.08-1.983l-1.824-1.472l-1.492-1.162
		l-2.371-1.192l-1.85-0.974l-2.287-0.979l-2.465-0.882l-3.076-0.706l-2.58-0.395l-3.363-0.274l-3.771-0.315l-2.555-0.037
		l-1.176,0.188l-1.162,0.45l-0.594,0.438l-1.303,0.919l-1.191,0.554l-0.969,0.237l-1.637,0.255L78.1-46.308l-0.863,0.389
		l-0.389,0.487l-0.34,0.899l-0.232,1.625l-0.389,2.634l-1.352,2.53l-2.068,3.406l-2.311,3.261l-2.883,2.805l-2.396,1.319
		l-2.123,0.633l-2.986,0.292l-4.369,0.335l-4.002,0.055l-3.541-0.062l-3.887,0.371l-3.498,0.256l-2.385,0.225L35.325-24.3
		l-2.445,0.59l-1.424,0.518l-0.887-0.14l-0.938-0.475l-1.361-0.852l-1.34-0.87l-0.646-0.566l-0.525-0.741l-0.477-0.778l-0.277-0.907
		l-0.416-1.356l-0.478-1.441l-0.289-0.985l-0.405-2.835l-0.578-2.999l-0.362-2.798l-0.468-2.428l-0.292-2.39l-0.35-1.588
		l-0.334-0.742l-0.344-0.329l-0.362-0.249l-0.334-0.079l-0.529,0.079l-0.641,0.164l-0.387,0.164l-0.429,0.335l-0.243,0.407
		l-0.289,0.578l-0.334,0.328l-0.274,0.158L16.48-46.4l-0.629,0.079h-0.436l-0.866-0.158l-0.423-0.207l-0.404-0.413l-0.487-0.572
		l-0.909-1.277l-1.01-1.187l-1.052-1.648l-0.94-1.605l-1.682-2.165l-1.177-1.314l-1.122-1.234l-0.386-0.7l-0.143-0.742l-0.404-1.356
		L3.28-62.294l-1.351-1.655l-1.633-1.722l-1.588-1.112l-0.586-0.408l-0.18-0.207l-0.137-0.285v-0.572l0.225-1.479l-0.006-2.056
		l0.055-2.02l0.055-1.479l-0.131-0.778l-0.191-0.249l-0.238-0.165h-0.292l-0.462,0.329l-1.552,0.912l-0.654,0.408l-0.423,0.042
		l-0.635-0.042l-0.715-0.372l-2.406-0.778l-1.645-0.407h-0.946l-1.408,0.17l-1.001,0.377l-2.163,0.651l-1.825,0.371l-1.004,0.128
		l-0.696-0.079l-0.667-0.335l-0.961-0.693l-0.885-1.113l-0.815-0.9l-0.48-0.742l-0.386-0.316l-0.608-0.151l-1.086-0.146l-1.956,0.03
		l-2.877,0.305l-1.639,0.213l-1.463,0.066l-1.651,0.122h-0.69l-1.01-0.152l-2.467-0.292l-2.427-0.237l-1.627-0.055l-1.493-0.146
		l-2.239-0.177l-2.765,0.012l-1.29,0.177l-1.253,0.341l-2.421,0.937l-1.086,0.305l-0.882,0.151H-57.9l-0.648-0.061l-1.171-0.207
		l-1.01-0.055h-0.903l-0.599,0.092l-1.375,0.426l-1.329,0.42l-0.727,0.127l-1.545,0.006l-1.919-0.055l-0.952-0.268l-0.736-0.328
		l-0.393-0.511l-0.35-0.688l-0.249-0.961l-0.006-0.986l0.344-1.234l0.486-1.021l0.691-1.387l0.28-0.725v-0.358l-0.174-0.42
		l-0.325-0.329l-0.952-0.236l-2.448-0.262l-1.171,0.127l-0.809,0.244l-0.678,0.177l-1.159,0.486l-0.32,0.213l-0.316,0.298
		l-0.411,0.931l-0.736,1.654l-0.273,0.299l-0.593,0.571l-1.077,0.876l-0.94,0.633l-1.569,0.821l-1.052,0.547l-0.807,0.244
		l-1.557,0.596l-1.125,0.304l-0.855,0.183h-0.684l-0.648-0.121l-0.636-0.183l-0.611-0.231l-0.56-0.207l-0.411-0.097l-0.897,0.006
		l-1.122,0.151l-0.803,0.031l-0.605-0.092l-0.733-0.468l-4.063-1.886l-0.055,0.109l-0.654,0.742l-0.736,0.645l-0.648,0.426
		l-0.684,0.14l-1.146,0.177l-1.487,0.365l-0.511,0.194l-0.362,0.231l-0.243,0.45l-0.131,0.413l-0.061,0.561l0.131,0.602l0.329,1.004
		l0.243,0.688l0.106,0.754l-0.207,1.296l-0.511,2.281l-0.393,1.174l-0.465,0.791l-0.73,0.833l-1.052,0.633v-0.024"/>
</g>
<g id="Layer_1_1_">
</g>
</svg>
