<?xml version="1.0" encoding="utf-8"?>
<!-- Generator: Adobe Illustrator 16.0.4, SVG Export Plug-In . SVG Version: 6.00 Build 0)  -->
<!DOCTYPE svg PUBLIC "-//W3C//DTD SVG 1.1//EN" "http://www.w3.org/Graphics/SVG/1.1/DTD/svg11.dtd">
<svg version="1.1" id="Layer_1" xmlns="http://www.w3.org/2000/svg" xmlns:xlink="http://www.w3.org/1999/xlink" x="0px" y="0px"
	 width="301.324px" height="197.442px" viewBox="-137.5 -89.527 301.324 197.442"
	 style="enable-background:new -137.5 -89.527 301.324 197.442;" xml:space="preserve">
<g id="Layer_19">
	<path id="Bannu" style="fill:#CCCCCC;stroke:#FFFFFF;stroke-width:1.15;" d="M-128.888,61.845L-128.888,61.845l-0.748,3.092
		l-0.3,1.189l0.572,0.838l1.122,0.521l1.183,0.271l4.14,0.816l2.656,0.543l-0.147,1.381l-0.527,4.85l-0.555,2.424l-1.195,4.938
		l-1.122,4.689l-0.662,2.355l-0.385,1.971L-126,97.331l-0.363,1.756l-1.087,4.518l1.84-1.664l1.948-1.711l0.798-0.713l1.371-1.449
		l1.495-1.633l1.705-1.891l1.348-0.51l2.77-1.041l2.752-1.055l3.319-1.189l4.938-1.619l3.839-1.043l2.934-1.119l2.656-0.975
		l5.799-1.836l3.143-1.211l1.116-0.262l2.56-0.611l3.97-1.584l2.735-1.723l3.851-2.254l1.88-1.812l2.401-2.832l1.529,1.529
		l2.39,1.541l2.724-0.838l0.51-3.604l1.359-5.957l1.207-5.447l2.712,0.85l1.02,1.881l3.597-1.02v-3.432l1.58-4.939l2.328-1.529
		l2.899-1.539l3.619-4.758l1.059-2.707l1.02-2.367l0.221-2.027l1.518,0.373l1.761,0.453l1.637-1.133l1.07,1.768l0,0l1.354,0.34
		l1.206,0.158l1.438,0.465l1.161,0.973l1.229,1.031l1.07,0.477l1.201,0.158l3.341,1.553l1.093,0.85l1.405-0.092l1.286-0.09
		l1.772-0.113l1.302-0.25l1.473,0.045l0.589,0.998l-0.521,1.312l-1.054,0.715l-0.985,0.939l-1.161,0.227l-1.06,0.408l-0.215,1.008
		l1.552,1.053l1.251-0.033l3.941-1.088l0.244-1.404l0.362-1.213l2.537,1.055l1.195-0.555l0.719-1.213l0.232-1.404l0.719-0.963
		l1.014-0.385l1.087-0.023l1.127,0.545l5.289-0.498l1.054,1.064l3.024-0.068l2.622,0.385l5.375-6.037l-0.396-1.947l3.692,0.656
		l1.212,0.057l0.906,0.68l4.111,2.99l1.597-0.488l0.136,1.395l0.873,0.691l2.436,2.785l0.984,0.713l1.926,1.281l0.963,0.418
		l1.325,0.51l1.189,0.477l1.8,0.012l1.009-0.42l2.254-0.85l1.189-0.227l1.483-0.033l1.246,0.373l3.433,0.975l1.143-0.543l1.28-0.566
		l0.635-1.553l0.555-1.156l0.261-0.949l0.951-1.893l0.872-1.326l0.601-0.826l0.509-1.145l3.863-3.25l3.092-2.639l0.656-1.416
		l3.637-1.109l0.939,1.211l0.906,0.941l1.552,0.701l1.688,0.93l0.43-1.066l-0.974-0.406l-1.212-0.816l-1.213-1.178l-0.453-1.223
		l-1.166-0.725l-0.963,0.543l-0.793-0.566l-0.996-1.404l-0.307-0.951l4.066-2.209l1.948-0.93l1.45,0.352l0.951,0.951l1.291,1.18
		l2.583,0.656l2.56,2.424l11.032,5.766l2.061-1.824l0.634-1.201l0.657-0.963l0.499-1.008l1.71-1.484l1.009-0.883l1.053-0.352
		l5.674-4.508l1.519-0.158l1.269-0.238h2.084l1.031-0.283l1.925-0.996l3.636,6.615l0.713,2.82l0.329,1.303l0.86,2.955l0.861,2.402
		l1.79-2.027l0.838-0.703l0.646-0.77l0.917-0.59l1.677-0.758l1.291-0.498l1.903-0.148l0.973-0.068l1.337-0.135l1.382-0.295
		l1.926-0.363l1.11-0.781l1.336-0.781l1.495-0.182l0.544-0.045l0.975-0.09l1.133-0.047l1.166-0.271l1.144-0.6l1.495-0.76l1.45-0.385
		l0.726-0.123h0.136l1.369-0.205l0.906-0.555l0.521-0.352l2.051-0.43h0.022l0,0l-0.057-0.158l0.521-0.906l0.816-0.432l0.237-0.396
		l0.951-1.529l0.464-0.883l0.396-1.643l0.057-0.695l0.192-1.004l0.238-1.506l0.079-1.738l0.283-1.773l0.419-2.254l0.137-1.783
		l0.158-2.067l-0.317-0.742l-0.204-0.356L157.391,5.1l-0.045-0.011l-0.249-0.3l-1.337-3.007l-0.295-1.042l-1.302-2.135l-1.303-2.237
		l-0.68-1.529l-1.178-2.707l-0.521-1.41l-0.362-0.731l-1.698-2.475l-0.317-0.719l-0.714-1.875l-0.963-1.834l-0.883-1.982
		l-1.133-1.67l-0.726-0.674l-0.792-0.623l-0.385-0.408l-0.771-0.775l-0.453-0.618l-1.031-1.087l-0.396-0.419v-0.011l-0.022-0.023
		l-0.249-0.312l-1.246-1.223l-0.431-0.691l-0.102-0.498l-1.212-1.359l-0.498-1.558l-0.352-1.62l-0.43-2.764l-0.034-1.354
		l-0.091-0.431l-0.091-0.628l0.759-1.172l-0.419-2.412l-0.431-2.413l-0.555-0.645l-0.419-0.476l-2.288,0.198l-2.944,0.244
		l-2.039,0.181l-1.031-0.391l-2.514-1.025l-0.238-0.102l-2.492-0.997l-1.947-0.775l-1.11-0.453l-0.419-0.08l-2.187-0.442
		l-1.246-0.164l-0.249-0.102l-0.928-0.244l-1.745-0.351l-0.249-0.057l-0.634,0.566h-0.204l-2.187-0.266l-0.419,0.022l-0.996-0.09
		l-0.385-0.034l-0.261-0.034l-0.51-0.062l-0.612-0.068l-0.453-0.045l-0.725-0.096l-0.295-0.023l-1.064-0.125l-1.54-0.175
		l-1.313-0.278l-0.623-0.125l-1.145-1.07l-1.914-1.807l-3.092-2.011l-2.187-1.506l-2.163-1.625l-0.69-1.178l-0.669-1.127
		l-1.325-2.276l-1.076-1.784l-0.374-1.359l-1.052-1.852l-0.76-1.07l0,0l-0.136-0.244l-0.374-0.929l-0.249-0.9l-0.271-1.02
		l-0.046-1.28l0.034-0.646L80.27-74.66l-0.713-0.906l-0.669-0.855l-1.212-0.985l0.668-0.917l1.145-1.008l0.091-1.37l-0.046-0.012
		l-1.109-0.708l-0.952-0.566l-0.271-1.07l-0.499-0.719l-2.898-0.521l-1.541-0.918l-1.699,0.176l-1.109,1.286l-1.291,0.363
		l-0.419,1.098l-2.64-0.181l-0.86,0.368l-1.291,1.274l-0.431,1.104l-2.379,0.362l-0.453,0.912l-2.186,0.549l-1.529,1.648v2.922
		l-1.54,1.461l-1.971,0.912l-1.269,0.917l-1.11,1.274l-1.722,0.187l-1.518,1.274l-1.54,1.104h-1.541L42.95-66.46l-0.091,0.396
		l-0.045,0.181l0.136-0.578l-1.699,0.521l-1.177-0.034l-1.394-0.068l-1.416,0.159l-1.155,0.221l-6.185,0.55L28.86-64.28
		l-1.358,0.566l-2.039-0.091l-1.349,0.068l-3.521,0.062l-1.043-0.374l-1.042-0.022l-0.623,1.02l-0.662,0.895l-0.93,0.832
		l-1.46,0.719l-1.309,0.068l-1.053-0.323l-1.693,0.374l-1.246,0.623l-2.667,0.306l-1.144,0.17l-1.218-0.057l-1.359-0.102
		l-1.308,0.232l-1.207,0.068h-1.891l-2.622-0.209l-0.719-0.765l-0.674-0.708l-2.832-2.214l-0.997-0.045l-1.274,0.413l-1.274,0.674
		l-1.24,0.43l-1.207,0.465l-2.101,0.855l-1.314,0.476l-0.946,0.362l-0.939,0.499l-1.207,0.368l-1.988,0.883l-1.178,0.244
		l-1.347-0.022l-1.116-0.142l-0.985-0.125l-1.642-0.289l-1.195-0.561l-0.883-0.391l-1.02-0.464l-1.048-0.153l-1.217-0.011
		l-1.241-0.091l-1.393-0.244l-1.926-0.34l-1.053-0.244l-1.427-0.441l-1.065-0.776l-1.082-1.02l-0.912-0.334l-1.359-0.255
		l-1.127-0.362l-0.742-0.555l-1.042,0.068l-1.229-0.232l-0.952-0.158l-1.138,0.034l-0.975,0.181l-1.076,0.651l-0.396,0.975
		l0.057,1.229l0.618,1.042l-0.074,1.224l-0.255,0.985l-0.623,0.402l-0.396,0.255l-1.008,0.396l1.518,1.371l-0.17,1.132l0.566,1.127
		l-0.362,0.918l-0.702,0.81l-1.427,2.158l-0.884,0.821l-1.359,0.929l-0.878,0.719l-1.115,1.126l-0.963,1.507l-0.578,0.952
		l-0.595,0.775l-0.877,1.359l-0.708,0.94l-1.461,1.925l-0.838,1.404l-1.46,0.3l-1.218,0.255l-1.087,0.068l-1.325,0.396l-1.659-0.396
		l-1.24-0.068l-0.776,0.606l-0.73,1.008l-1.359,0.499l-1.903,1.206l-1.274,1.705l-1.206,0.696l-1.416,0.459l-1.67,0.628
		l-2.339,1.716l0.125,1.195l0.765,1.636l2.656,3.064l0.085,2.05l0.668,0.776l1.014,0.045l1.098,0.074l0.974,0.057l1.251,0.022
		l0.628,1.059l-0.974,0.714l-1.116,1.246l0.187,0.963l-0.068,1.122l-3.472,4.281l-5.091,3.664l-3.455,3.806l-2.089,3.896
		l-3.256,2.067l-0.833,0.753l-0.708,1.296l0.158,1.694l-1.109,1.37l-1.048,4.048l-3.789,3.732l-0.583,1.541l-1.841,1.777
		l-0.572,1.365l-0.334,1.473l-0.419,1.234l-0.962,1.484l-2.447,3.227l-0.113,1.326l0.764,1.529l-1.206,1.654l-0.719,0.984
		l0.113,3.455l-5.08,1.744l-1.042-0.691l-0.351-1.688l-2.027,0.906l-0.697,0.725l-1.382,1.178l-0.889-0.621l-1.161-0.805
		l-1.88-0.828l-0.963-0.576l-3.109,4.982l1.127,0.498l1.217,0.602l3.353,1.029l0.521,3.965l-0.011,1.145l-0.442,0.984l-0.589,0.748
		l-1.036,2.615l0.503,2.662l0.181,1.303l-1.495,3.318L-128.888,61.845"/>
</g>
<g id="Layer_1_1_">
</g>
</svg>
