<?xml version="1.0" encoding="utf-8"?>
<!-- Generator: Adobe Illustrator 16.0.4, SVG Export Plug-In . SVG Version: 6.00 Build 0)  -->
<!DOCTYPE svg PUBLIC "-//W3C//DTD SVG 1.1//EN" "http://www.w3.org/Graphics/SVG/1.1/DTD/svg11.dtd">
<svg version="1.1" id="Layer_1" xmlns="http://www.w3.org/2000/svg" xmlns:xlink="http://www.w3.org/1999/xlink" x="0px" y="0px"
	 width="302.157px" height="110.581px" viewBox="-37.117 -13.493 302.157 110.581"
	 style="enable-background:new -37.117 -13.493 302.157 110.581;" xml:space="preserve">
<g id="Layer_26">
	<path id="Chagai" style="fill:#CCCCCC;stroke:#FFFFFF;stroke-width:1.15;" d="M71.6,94.473L71.6,94.473l1.338-0.787l1.413-0.875
		l1.275-0.938l1.13-1.295l0.93-1.102l1.604-1.611l2.217-1.678l1.608-1.486l1.546-1.178l1.144-0.93l1.886-1.365l1.214-0.873
		l1.076-0.867l0.951-0.381l1.163-0.021l0.479-0.012l0.542-0.307l0.527-0.922l0.265-0.49l0.054-0.723l0.251-1.156l0.533-0.73
		l0.783-0.66l0.543-0.309l0.411-0.01l1.103,0.289l2.476,0.324l1.713,0.033l1.571-0.328l1.571-0.389l2.252-0.576l2.259-0.213
		l3.22-0.166l2.883,0.139l2.333,0.152l1.781-0.141l2.804-0.58l1.704-0.562l0.746-0.674l0.114-0.48l0.015-0.068h0.002l0.338-0.244
		l0.379-0.195l0.226,0.891l0.065,0.57l0.101,0.695l0.017-0.012l0.274-0.178l1.225-1.1l1.156-0.951l0.918-0.744l0.78-0.535
		l0.949-0.414L132,68.253l0.542,0.125l0.813,0.002l0.783-0.205l0.305-0.354l0.44-0.295h0.34l0.135,0.123l0.2,0.332l0.271,0.15
		l0.134,0.027l0.24-0.18l0.376-0.6l0.989-0.889l0.308-0.42l0.374-0.178l0.577-0.055l0.916-0.264l0.682-0.598l0.887-0.656
		l0.751-0.621l0.239-0.121l0.645,0.01l0.677,0.002l0.647-0.238l0.645-0.082l0.474,0.064l0.575,0.125l0.534-0.076l0.921-0.564
		l0.682-0.471l0.748-0.201l0.748,0.006l0.544-0.057l0.374-0.207l0.275-0.326l0.003-0.357l-0.161-0.777l0.038-0.418l0.307-0.297
		l0.306,0.002l0.574,0.156l0.743,0.424l0.912,0.365l1.12,0.1l1.256,0.039l1.358-0.168l0.854-0.594l0.756-0.68l0.689-1.102
		l0.619-0.715l1.443-1.332l0.547-0.295l0.509,0.004l0.713-0.025l0.884-0.309l2.697-0.99l0.752-0.387l0.509-0.08l0.545,0.066
		l0.713,0.037l1.295-0.35l1.059-0.258l1.229-0.461l1.195-0.35l0.954-0.232l1.125-0.285l1.161-0.377l1.334-0.465l0.748-0.02
		l0.815,0.158l2.032,0.412l1.088,0.102h0.707l0.885-0.168l0.481-0.324l0.798-0.857l1.277-1.152l1.244-1.209l1.179-1.33l1.006-0.945
		l0.615-0.32l0.753-0.193l1.227-0.043l1.533-0.096l1.226-0.133l1.026-0.256l0.828-0.465l1.247-1.057l1.203-1.031l0.771-1.004
		l0.899-0.734l0.966-0.645l1.34-0.488l1.071-0.67l0.727-0.678l1.18-0.879l0.863-0.557l1.385-0.906l1.692-1.021l0.971-0.762
		l0.726-0.467l0.983-0.281h0.008l0.295-0.053l0.991-0.133l1.298-0.148l0.815,0.071l1.367,0.137l0.624,0.144l0.59,0.086l0.295-0.032
		l0.534-0.155l0.273-0.321l0.376-0.448l0.616-0.625l0.379-0.217l0.913-0.39l0.674-0.216l0.535-0.158l0.655-0.229l0.256-0.292
		l0.118-0.383l-0.029-1.106l0.068-0.213l0.225-0.293l0.705-0.432l0.985-0.39l0.812-0.188l0.781-0.02l0.554,0.026l0.677,0.028
		l1.194-0.083l0.537-0.005l0.401,0.042l0.228,0.134l0.365,0.226l0.505,0.287l0.487,0.208l0.416,0.081l0.329-0.048l0.174-0.108
		l1.153-0.67l0.5-0.293l0.415-0.154l1.072-0.355l1.385-0.453l0.76-0.416l0.932-0.642l0.607-0.232l0.364-0.137l0.24-0.231
		l0.449-0.763l0.6-0.991l0.424-0.654l0.517-0.413l0.295-0.336l0.102-0.335l-0.002-0.35l-0.176-0.406l-0.056-0.468l0.136-0.365
		l0.396-0.723l0.983-0.911l0.4-0.539l0.171-0.503l0.109-0.238l0.153-0.124l0.244-0.02l0.226,0.133l0.486,0.361l0.562,0.469
		l0.33,0.273l0.454,0.15l0.381,0.014l0.329-0.017l0.314-0.107l0.381-0.198l0.188-0.474l0.293-0.64l0.326-0.76l0.188-0.349
		l0.585-0.686l0.312-0.348l0.527-0.578l0.432-0.514l0.103-0.444l0.121-0.321l0.155-0.254l0.123-0.137l0.067-0.302l0.123-0.168
		l0.292-0.505l0.242-0.293l0.156-0.3l0.103-0.472l0.208-0.455l0.206-0.382l0.312-0.366l0.085-0.229l0.053-0.258l0.122-0.775
		l-0.039-1.061l0.088-0.426l0.345-0.26l0.382-0.319l0.262-0.426l0.398-0.443l0.28-0.4l0.084-0.294l0.016-0.427l0.068-0.574
		l0.334-0.562l0.258-0.563l0.175-0.362l-0.02-0.187l-0.086-0.195l-0.191-0.124l-0.21-0.124l-0.35-0.396l-0.244-0.514l-0.021-0.834
		v-0.531l-0.158-0.424l-0.139-0.184l0.015-0.292l0.084-0.406l0.032-0.443l-0.02-0.302l-0.071-0.194l-0.175-0.17l-0.177-0.211
		l-0.053-0.241l-0.053-0.365l-0.002-0.7l0.016-0.912l0.102-0.64l0.191-0.53l0.532-0.67l0.559-0.489l0.174-0.364l0.016-0.256v-0.296
		l-0.07-0.293l-0.19-0.168l-0.333-0.085l-0.874-0.211l-0.597-0.134l-0.33-0.182l-0.158-0.23l-0.008-0.027l-0.311,0.376l-0.224,0.116
		l-0.218,0.114l-0.101,0.03l-0.705,0.218l-0.785,0.206l-0.727,0.188L252.1-9.299l-1.012,0.252l-0.481,0.167l-0.987,0.272
		l-1.109,0.303l-2.362,0.637l-0.619,0.176l-1.347,0.384l-1.762,0.454l-3.44,0.887l-1.203,0.36l-1.097,0.25l-0.371,0.085
		l-0.396,0.123l-0.324,0.101l-0.294,0.078l-0.843,0.213l-1.023,0.306l-2.822,0.784l-1.789,0.426l-0.557,0.131l-0.316,0.135
		l-1.788,0.426l-1.528,0.417l-0.56,0.153l-1.15,0.28l-0.056,0.017h-0.005l-1.34,0.295l-2.103,0.622l-1.964,0.471l-0.3,0.108
		l-0.348,0.129l-0.068,0.007l-0.294,0.043l-3.972,1.008l-0.953,0.271l-0.955,0.278l-1.915,0.555l-4.452,1.181l-0.366,0.065
		l-0.188,0.03l-0.744,0.231l-0.441,0.125l-0.731,0.205l-0.407,0.106l-1.998,0.51l-3.495,0.956L194.1,6.184l-1.605,0.349
		l-0.367,0.042l-0.328,0.035l-1.357,0.026l-1.524-0.167l-2.36-0.863L186.5,5.601l-7.1-0.557l-0.303-0.038l-0.267-0.026l-2.152-0.252
		l-0.457-0.055l-0.733-0.055l-4.316-0.334l-1.895-0.139l-1.721,0.085l-3.6,0.187l-0.188,0.019l-0.287,0.027l-1.91,0.175
		l-1.675,0.404l-0.039,0.01l-0.14,0.07l-1.321,0.627l-0.868,0.311l-1.124,0.05l-0.213-0.047l-0.056-0.014l-0.302-0.068l-0.539-0.118
		l-0.928,0.178L152.91,6.63l-0.534,0.215l-1.913,0.125l-0.671,0.226l-0.351,0.253l-0.459,0.336l-0.595,0.436l-0.163,0.118
		l-0.983,0.272l-0.585,0.16l-0.785,0.739l-1.191,1.122l-0.996,0.527l-0.308,0.829l-0.826,2.245l-0.593,0.525l-0.783,0.242
		l-0.882-0.264l-0.08-0.026l-0.14-0.064l-0.894-0.411l-0.785-0.721l-0.146-0.115l-0.32-0.295l-0.656-0.248l-1.818-0.31l-4.388-0.759
		l-0.183-0.028l-0.101-0.02l-7.296-1.124l-6.896-1.054l-0.678-0.137l-0.779-0.156l-1.425-0.292l-1.453,0.047l-0.184,0.005
		l-4.089,0.272l-3.589,0.242l-1.219,0.079l-1.545,0.102l-4.899,0.456l-2.261,0.213l-5.393,0.508l-2.311,0.22l-5.341,0.509
		l-7.649,0.734l-4.687,0.454l-2.962,0.29l-2.685,0.263l-4.961,0.488l-5.349,0.53l-0.924-0.274l-1.263-0.378l-5.22-1.551
		l-2.064-0.614l-7.289-2.161l-7.298-2.152l-1.525-0.449l-5.775-1.696l-2.508-0.733l-4.798-1.402l-2.485-0.723l-1.717-0.501
		L7.172,0.803l-7.277-2.234l-7.279-2.227l-7.286-2.22l-7.29-2.218l-7.295-2.208l-0.993-0.297l-0.79-0.242l4.624,5.387l4.616,5.392
		l3.955,4.63l0.694,0.73l2.866,3.024l2.242,2.006l4.084,3.659l1.385,1.074l1.896,1.473l0.26,0.718l-0.216,1.001l-0.837,1.796
		l0.314,0.75l1.061,2.524l0.398,0.416l0.436,0.274l1.245,0.426l0.331,0.356l-0.487,1.328l-0.25,0.675L-2.5,27.595l0.131,0.297
		l1.479,0.4l0.806,0.303l0.635,0.454l0.396,0.597l0.05,1.189l0.134,0.133l1.163,1.151l0.128,0.451l-0.124,1.534l0.058,0.622
		l1.875,1.962l0.414,0.434l0.859,1.076l0.548,1.521l2.128,2.671l0.349,0.439l1.082,1.818l1.356,1.414l0.819,1.312l0.666,0.539
		l1.471,1.193l3.014,3.111l0.556,0.734l0.411,0.549l0.454,0.832l1.001,0.4l2.519,1.9l1.177,0.717l0.877,0.529l2.614,1.34l1.899,0.42
		l1.211,0.654l0.13,0.094l1.336,1.006l3.868,1.215l1.749-0.211l0.204-0.027l0.971,0.107l1.7,0.471l1.999,0.688l1.579-0.033
		l0.931,0.104l0.503,0.057l2.864,1.189l1.203,0.168l2.357,1.049l0.084,0.043l1.143,0.557l1.743,1.66l1.63,2.385l0.472,0.326
		l0.228,0.158l1.366,0.656l1.683,1.68l1.025,1.252l1.478-0.164l0.569-0.064l7.52-1.049l0.819-0.113l0.267,0.217l0.246,3.637
		l-0.3,2.02l-0.541,3.637l-0.539,3.029l-0.131,0.729l0.191,0.932l0.973,1.971l0.336,2.881l0.061,0.512L71.6,94.473"/>
</g>
<g id="Layer_1_1_">
</g>
</svg>
