<?xml version="1.0" encoding="iso-8859-1"?>
<!-- Generator: Adobe Illustrator 16.0.4, SVG Export Plug-In . SVG Version: 6.00 Build 0)  -->
<!DOCTYPE svg PUBLIC "-//W3C//DTD SVG 1.1//EN" "http://www.w3.org/Graphics/SVG/1.1/DTD/svg11.dtd">
<svg version="1.1" xmlns="http://www.w3.org/2000/svg" xmlns:xlink="http://www.w3.org/1999/xlink" x="0px" y="0px"
	 width="40.773px" height="29.671px" viewBox="0 0 40.773 29.671" style="enable-background:new 0 0 40.773 29.671;"
	 xml:space="preserve">
<g id="Layer_116">
	<g id="Layer_121">
		<path id="Kohat" style="fill:#CCCCCC;stroke:#FFFFFF;stroke-width:1.07;" d="M13.229,4.514
			L13.229,4.514L13.082,4.58l-0.067,0.095l-0.017,0.077l0.056,0.055l0.095,0.114L13.1,5.017l-0.046,0.061l0.027,0.095l0.026,0.106
			l-0.045,0.083L13.03,5.441l-0.075,0.08l-0.093,0.062l-0.109,0.048l-0.115,0.04l-0.114-0.002l-0.166-0.066l-0.161-0.075
			l-0.112-0.019L12.01,5.506l-0.085,0.07h-0.001l-0.082-0.042l-0.101-0.122L11.67,5.333l-0.073-0.07l-0.111-0.105l-0.098-0.116
			l-0.061-0.095l-0.069-0.065l-0.077-0.069L11.104,4.84H11.03l-0.163,0.007l-0.124-0.085l-0.084-0.056l-0.165-0.038l-0.09-0.063
			l-0.171-0.118L10.118,4.4l-0.113-0.058L9.827,4.285L9.726,4.231L9.625,4.194L9.538,4.155L9.457,4.129L9.326,4.083L9.244,4.097
			l-0.08-0.022L9.04,4.023L8.943,3.879L8.849,3.745L8.744,3.666L8.717,3.589L8.598,3.504L8.473,3.421L8.271,3.227L8.152,3.239
			L8.048,3.197L7.951,3.124L7.863,3.029L7.737,2.932L7.653,2.911L7.535,2.873L7.469,2.834L7.416,2.773L7.37,2.702L7.34,2.511
			L7.336,2.428l0.025-0.147L7.301,2.212l-0.09-0.107L7.122,1.978L7.038,1.85L7.005,1.785L6.956,1.642L6.899,1.537L6.771,1.488
			L6.688,1.495L6.605,1.503L6.521,1.467l-0.104-0.01L6.313,1.43L6.165,1.391L6.098,1.353L6.004,1.24L5.881,1.194L5.737,1.082
			L5.616,1.014L5.484,1L5.379,1.062L5.278,1.169l-0.106,0.01l-0.11,0.025L4.956,1.219l-0.07-0.055L4.86,1.097L4.834,1.009
			l-0.1-0.021L4.588,0.977L4.496,0.955L4.401,0.908L4.275,0.811L4.234,0.734L4.198,0.67L4.144,0.581L3.968,0.547l-0.203,0.05
			L3.623,0.645L3.481,0.71L3.375,0.762L3.301,0.808L3.234,0.85L3.196,0.919l0.028,0.077l0.024,0.136L3.29,1.223l0.055,0.06
			L3.31,1.352L3.272,1.425l0.091,0.079l0.101,0.022L3.54,1.555l0.07,0.062l0.083,0.142l0.015,0.092l0.043,0.111l0.036,0.082
			l0.03,0.109L3.847,2.24l0.015,0.083v0.028L3.86,2.479L3.849,2.554L3.822,2.655L3.779,2.743L3.733,2.846L3.695,2.952L3.65,3.051
			L3.622,3.13l0.045,0.147l0.104,0.09L3.979,3.51l0.073,0.045L4.16,3.613l0.062,0.055l0.072,0.076l0.05,0.089l0.061,0.126
			l0.019,0.038L4.472,4.07l0.12,0.102l0.104,0.067l0.141,0.027l0.112,0.041l0.062,0.045l0.096,0.045l0.091,0.078l0.087,0.082
			l0.108,0.091L5.457,4.71l0.05,0.077L5.312,4.84l-0.21-0.014L4.976,4.79L4.89,4.748L4.788,4.762L4.64,4.75l-0.11-0.04L4.404,4.687
			L4.326,4.648L4.214,4.627L4.129,4.599L4.041,4.551L3.965,4.474L3.87,4.388L3.745,4.411L3.643,4.404L3.566,4.472L3.452,4.581
			L3.309,4.602L3.197,4.618L3.078,4.652L2.996,4.72L2.932,4.763L2.733,4.827l-0.158,0.06L2.509,4.922L2.418,5.014l-0.034,0.11
			L2.363,5.209L2.312,5.293l-0.09,0.019L2.02,5.414L1.933,5.441l-0.164,0.06L1.6,5.584L1.531,5.658L1.505,5.754L1.55,5.859
			l0.047,0.057l0.076,0.062l0.143,0.059l0.156,0.018h0.076l0.128-0.001l0.103-0.003L2.356,6.2l0.062,0.095l0.14,0.134l0.104,0.048
			l0.127,0.019l0.151-0.003l0.196-0.018l0.153-0.011l0.117-0.01l0.111-0.006L3.6,6.456L3.583,6.581L3.521,6.706L3.482,6.77
			l0.021,0.003l0.115,0.006l0.14,0.005l0.117,0.011l0.188,0.017l0.151-0.018l0.187-0.028L4.55,6.723l0.115-0.067l0.094-0.085
			l0.11-0.073l0.078-0.059L5.06,6.347l0.154-0.079l0.162,0.008l0.146,0.183l0.102,0.147l0.192,0.102L6.01,6.711L6.23,6.799
			L6.166,6.892L6.034,6.938l-0.122,0.15l0.097,0.009L6.23,7.074l0.226,0.017L6.553,7.17l0.191-0.013l0.16-0.019l0.232-0.025
			l0.205,0.01h0.173l0.107,0.049l-0.02,0.091L7.585,7.384L7.578,7.458L7.562,7.549L7.509,7.603l-0.07,0.128l0.001,0.114L7.381,7.949
			L7.283,7.977L7.129,8.041L7.03,8.089L6.976,8.151L6.86,8.284L6.789,8.378L6.762,8.589L6.688,8.614L6.539,8.623L6.392,8.634
			L6.21,8.659L6.091,8.673L5.992,8.731L6.01,8.836l0.024,0.136l0.003,0.102v0.003L6.015,9.189L6,9.277l0.019,0.089L5.994,9.504
			L6.06,9.562l0.127-0.006l0.092-0.001l0.085,0.037l0.076,0.074l0.083,0.063l0.085,0.03l0.146,0.084l0.131,0.128l0.053,0.132
			l0.045,0.162l0.021,0.169l-0.016,0.005L6.896,10.47l-0.112,0.022L6.674,10.51l-0.09,0.009l-0.08,0.018l-0.122,0.047l-0.11,0.018
			l-0.084-0.017l-0.091-0.014H5.915H5.782l-0.119-0.012l-0.102-0.012L5.43,10.558l-0.119,0.006l-0.13,0.019l-0.207-0.005
			L4.84,10.574l-0.118-0.08l-0.125-0.045l-0.139-0.003l-0.091-0.024l-0.129,0.016l-0.077,0.058l-0.094,0.067l-0.093,0.084
			l-0.036,0.035l0.005,0.175L3.92,10.961l-0.045,0.085l-0.02,0.09l-0.022,0.128l-0.009,0.131l0.008,0.075l-0.03,0.122l-0.105,0.097
			l-0.088,0.023l-0.171,0.07L3.358,11.81l-0.107,0.017l-0.335-0.001l-0.085,0.008L2.713,11.83l-0.076,0.018l-0.072,0.033L2.46,11.93
			l-0.104,0.023l-0.12-0.014l-0.088-0.032l-0.062-0.04l-0.048,0.099l0.046,0.103l0.037,0.082l0.003,0.073l0.108,0.042l0.084,0.055
			l0.08,0.065l0.092,0.069l0.071,0.049l0.117,0.072l0.074,0.038l0.13,0.032l0.093,0.037L2.92,12.75l-0.028,0.097v0.003l-0.008,0.084
			l-0.013,0.111l-0.014,0.11l-0.02,0.101l-0.045,0.128l-0.036,0.083l-0.054,0.125l-0.038,0.126l0.071,0.029l0.128-0.004l0.1-0.006
			l0.085,0.007l-0.041,0.085L2.92,13.907l-0.021,0.09l-0.041,0.116l-0.032,0.09l-0.028,0.075l-0.047,0.057l-0.084,0.076
			l-0.074,0.096l-0.058,0.088L2.47,14.698l-0.086,0.071L2.26,14.801l-0.209,0.052l-0.128-0.005l-0.152-0.034l-0.163-0.006
			l-0.118-0.026l-0.092-0.033l-0.112,0.03l-0.129,0.025l-0.159,0.034l-0.105,0.023l-0.146,0.025l-0.108,0.036L0.56,14.999
			l0.01,0.091l0.033,0.075l0.016,0.028l0.165-0.015l0.142,0.121l0.004,0.113l-0.073,0.127l-0.047,0.059l-0.066,0.148l0.091,0.041
			l0.116,0.037l0.148,0.058l0.161,0.049l0.194,0.057l0.157,0.047l0.134,0.051l0.091,0.023l0.178,0.046l0.162,0.039l0.086,0.012
			l0.249,0.045l0.087,0.005l0.188-0.015l0.104-0.021l0.232-0.02l0.138-0.016l0.076-0.002L3.45,16.17l0.133-0.016l0.168-0.012
			l0.154-0.004l0.163,0.002l0.136,0.011l0.186,0.022l0.128-0.019l0.12-0.03l0.152-0.011l0.091,0.007l0.08,0.021l0.171,0.035
			l0.16,0.039l0.097,0.014l0.163,0.005l0.195,0.009l0.115-0.016l0.136-0.01l0.127-0.016l0.12-0.036l0.144-0.038l0.161-0.027
			l0.086,0.012l0.142,0.041l0.086,0.021l0.1-0.006l0.104-0.012l0.076-0.001l0.141,0.058l0.042,0.074L7.31,16.455L7.28,16.583
			l0.025,0.112l0.113,0.031l0.075,0.015l0.097,0.011l0.128,0.004l0.132-0.01l0.103-0.023l0.109-0.031l0.093-0.032l0.074-0.019
			l0.09-0.012l0.085-0.01l0.093,0.002l0.012,0.014l0.093,0.01l0.144,0.005l0.216-0.009l0.163,0.021l0.211-0.005l0.227-0.019
			l0.087,0.045l0.078,0.08l0.001,0.084l0.041,0.057l0.006,0.008l0.106,0.023l0.1-0.016l0.281-0.021l0.234-0.002l0.166,0.02
			l0.132,0.043l0.119,0.045l0.077,0.03l0.16,0.004l0.125,0.039l0.01,0.134l-0.046,0.059l-0.115-0.008l-0.076,0.016l0.046,0.066
			l0.024,0.101l0.025,0.177l0.021,0.104l0.028,0.084l0.042,0.097l0.023,0.073l0.001,0.004l0.053,0.084l0.043,0.072l0.013,0.107
			l-0.07,0.062v0.084l0.008,0.14l0.003,0.103l0.062,0.068l0.133,0.018l0.236-0.004l0.199-0.015l0.166-0.021l0.146-0.025l0.102-0.018
			l0.137,0.082l0.087,0.031h0.119l0.118-0.039l0.105-0.027l0.244-0.039l0.087-0.02l0.107-0.023l0.207-0.012l0.179,0.02l0.288,0.05
			l0.062,0.11l0.023,0.078l0.026,0.092l0.023,0.123l0.054,0.134l-0.054,0.065l-0.067,0.033l-0.092,0.018l-0.104,0.084l0.124,0.076
			l0.165,0.021l0.1-0.011l0.194,0.005l0.152,0.006l0.143,0.042l0.14,0.032l0.072,0.051l0.069,0.08h0.114l0.152-0.021l0.134,0.008
			l0.055-0.053l0.034-0.088l0.067-0.046l0.155-0.135l0.124-0.078l0.097-0.021l0.132,0.004l0.131-0.006l0.078-0.055l0.124-0.009
			l0.111-0.026l0.172,0.01h0.001l0.006,0.027l0.021,0.084l-0.016,0.098l-0.026,0.082l-0.016,0.084l-0.006,0.074l-0.009,0.105
			l-0.029,0.13l-0.021,0.085l0.006,0.135l0.067,0.036l0.08,0.052l-0.004,0.119l-0.065,0.098l-0.016,0.125l0.007,0.072l0.014,0.102
			l0.031,0.123l0.022,0.091l0.015,0.073l0.003,0.093l-0.181,0.358l-0.062,0.125l0.015,0.013l0.035,0.071l-0.067,0.104l0.089,0.098
			l0.033,0.073l-0.075,0.038l-0.057,0.051l-0.046,0.102l0.082,0.043l0.142,0.035l0.039,0.066l0.009,0.116l0.125,0.049l0.096,0.011
			l0.121-0.004l0.166,0.01l0.114,0.02l0.232,0.02l0.122,0.026l0.173,0.04l0.062,0.049l0.088,0.045l0.072-0.002l0.08-0.012
			l0.174-0.044l0.143,0.003l0.032,0.096L18.5,22.799l-0.045,0.084l0.045,0.08l0.12-0.016l0.105-0.023l0.101,0.012l0.076-0.016
			l0.019,0.086l-0.063,0.063l0.008,0.182l0.088,0.021l0.139,0.021l0.103-0.047l0.133,0.021l0.099,0.039l0.184,0.047l0.143-0.023
			l0.106-0.104l0.035-0.076l-0.038-0.076l-0.058-0.049l-0.083,0.017l-0.06-0.077l-0.035-0.08l-0.077-0.137l-0.027-0.076
			l-0.021-0.074l0.045-0.078l0.121,0.02l0.172-0.062l0.162-0.08l0.232-0.12l0.142-0.065l0.225-0.076l0.212-0.052l0.263-0.034
			l0.128,0.049l0.005,0.14l0.066,0.123l0.088,0.026l0.184,0.139l0.156,0.14l0.19,0.188l0.1,0.111l0.05,0.063l0.055,0.081
			l0.214,0.203l0.168,0.115l0.18,0.125l0.209,0.115l0.156,0.088l0.113,0.133l-0.021,0.094l-0.018,0.15l-0.038,0.186l-0.047,0.164
			l-0.048,0.111v0.101l0.032,0.097l0.019,0.143l0.033,0.195l0.021,0.199l0.033,0.219l0.018,0.148l0.023,0.189l0.013,0.123
			l0.079,0.084l0.096-0.004l0.066,0.055l0.123,0.174l0.065,0.091l0.102,0.084l0.036,0.071l0.115,0.146l0.086,0.129l0.051,0.055
			l0.15,0.17l0.072,0.1l0.066,0.098l0.097,0.198l0.006,0.134l-0.016,0.104l0.083,0.187l0.144,0.107l0.154,0.091l0.146,0.079
			l0.113,0.07l0.145,0.061l0.13,0.086l0.184,0.111l0.239,0.059l0.251,0.033l0.178,0.016l0.145,0.041l0.173,0.069l0.087,0.056
			l0.07,0.033l0.126,0.074l0.162,0.07l0.196,0.029L27.328,29l0.253,0.012l0.169,0.027l0.123,0.01l0.074,0.008l-0.017-0.039
			l-0.029-0.092l-0.057-0.178l-0.049-0.182l-0.027-0.148l-0.006-0.076l-0.028-0.252l-0.021-0.199l-0.018-0.115l-0.014-0.119
			l-0.023-0.363l0.096-0.404l0.213-0.324l0.23-0.25l0.274-0.2l0.185-0.128l0.261-0.189l0.182-0.15l0.068-0.09l0.043-0.08
			l0.021-0.047l0.03-0.029l0.075-0.11l0.032-0.067l0.044-0.072l0.084-0.135l0.062-0.152l0.038-0.143l0.037-0.121l0.041-0.137
			l0.023-0.115l0.01-0.166l0.008-0.127l0.008-0.101l0.004-0.116l-0.015-0.101l-0.032-0.104l-0.037-0.125l-0.033-0.109l-0.066-0.123
			l-0.046-0.125l-0.03-0.109l-0.038-0.093l-0.048-0.08l-0.044-0.078l-0.084-0.084l-0.06-0.05l-0.105-0.096l-0.118-0.107
			l-0.065-0.062l-0.082-0.062l-0.111-0.115l-0.132-0.095l-0.118-0.101l-0.105-0.072l-0.133-0.098l-0.122-0.103l-0.125-0.112
			l-0.109-0.111l-0.111-0.15l-0.043-0.074l-0.038-0.07l-0.005-0.073l-0.082-0.097l-0.057-0.121l0.016-0.152l0.026-0.13l-0.022-0.152
			l-0.033-0.202l-0.037-0.181l-0.043-0.097l-0.02-0.109l-0.016-0.091l-0.013-0.112l0.063-0.138l0.052-0.05l0.096-0.061L27.71,19.4
			l0.121-0.09l0.104-0.062l0.093-0.041l0.079-0.092L28.188,19l0.081-0.119l0.117-0.219l0.054-0.242v-0.092l0.003-0.259l-0.019-0.076
			l-0.049-0.142l-0.065-0.183l-0.048-0.055l-0.089-0.062l-0.019-0.006l0.006-0.004l-0.019-0.014l-0.086-0.016l-0.121,0.01
			l-0.084-0.012l-0.064-0.053l0.027-0.076l0.051-0.098l0.049-0.061l0.063-0.092l0.025-0.074l0.032-0.104l0.172-0.146l0.096-0.09
			l0.112-0.108l0.122-0.124l0.122-0.126l0.343-0.095l0.132-0.069l0.133-0.041l0.18-0.087l0.198-0.102l0.082-0.042l0.041-0.021
			l0.166-0.093l0.309-0.167l0.118-0.057l0.286-0.114l0.179-0.065l0.18-0.057l0.159-0.076l0.19-0.104l0.221-0.112l0.188-0.116
			l0.208-0.102l0.192-0.068l0.173-0.067l0.19-0.09l0.149-0.069l0.111,0.01l0.1,0.031l0.17,0.092l0.273,0.084l0.16,0.028l0.08-0.011
			l0.139-0.041l0.076-0.061l0.149-0.105l0.101-0.074l0.078-0.062l0.131-0.198l0.016-0.108l0.006-0.197l-0.039-0.136l-0.049-0.141
			l-0.074-0.236l-0.005-0.134l0.013-0.125l0.021-0.108l0.04-0.091l0.044-0.115l0.194-0.215l0.095-0.054l0.189-0.073l0.233-0.064
			l0.262-0.09l0.08-0.054l0.058-0.055l0.174-0.2l0.093-0.16l0.075-0.119l0.012-0.117l0.021-0.12l0.032-0.133l0.073-0.028
			l0.085-0.023l0.07-0.02l0.124-0.037l0.13-0.024l0.103-0.026l0.115-0.035l0.102-0.051l0.076-0.05l0.06-0.05l0.112-0.125
			l0.271-0.143l0.041-0.04l0.1-0.097l0.098-0.065l0.16-0.121l0.096-0.105l0.088-0.089l0.069-0.079l0.087-0.119l0.088-0.127
			l0.095-0.17l0.08-0.129l0.067-0.128l0.09-0.128l0.06-0.139l-0.025-0.19l-0.054-0.145l-0.062-0.17L38.08,8.69l-0.073-0.069
			l-0.049-0.046l-0.071-0.097l-0.045-0.167l-0.068-0.116l-0.045-0.121l-0.082-0.237l0.095-0.16l0.128-0.089l0.139-0.074l0.197-0.045
			l0.202-0.045l0.195-0.105l0.067-0.074l0.073-0.084l0.041-0.131l0.024-0.174l0.021-0.17l-0.017-0.201l-0.015-0.076l-0.013-0.152
			L38.77,6.121l0.021-0.187V5.817l-0.031-0.146l0.01-0.115l0.021-0.152l0.001-0.106l0.047-0.072l0.146-0.152l0.066-0.082V4.858
			l-0.027-0.086l-0.058-0.113l-0.072-0.165l-0.015-0.117l-0.006-0.092l-0.013-0.138l0.039-0.153l0.088-0.126l0.099-0.095
			l0.086-0.086l0.049-0.074l0.096-0.082l0.072-0.045l0.064-0.037l0.09-0.029l0.056-0.67l0.078-0.314l0.081-0.314l0.091-0.173
			l0.078-0.09l0.047-0.035l0.055-0.003L39.973,1.67l-0.059-0.139l-0.06-0.065l-0.068-0.063l-0.158-0.008l0.003,0.009l-0.044,0.002
			l-0.195,0.017l-0.135,0.021l-0.163,0.002l-0.171-0.024L38.855,1.4l-0.04-0.014l-0.023-0.063l0.032-0.052L38.803,1.26L38.79,1.255
			L38.75,1.24l-0.106,0.008l-0.191,0.051l-0.091,0.018l-0.221,0.044l-0.125,0.028l-0.103-0.033l-0.034-0.019l-0.16-0.087
			l-0.149-0.086l-0.177-0.076l-0.221,0.007l-0.027,0.001L36.91,1.167l-0.28,0.111l-0.179,0.109l-0.042,0.026l-0.193,0.129
			l-0.175,0.117l-0.062,0.034l-0.013,0.061l-0.049,0.05l-0.193,0.053l-0.053,0.014l-0.176,0.034l-0.17,0.088l-0.048,0.021
			l-0.165,0.119l-0.065,0.059l-0.058,0.052l-0.203,0.061h-0.002l-0.076-0.006l-0.149-0.114l-0.069-0.07l-0.036,0.021l-0.086,0.05
			l-0.074,0.09l-0.137,0.108l-0.146,0.071l-0.071,0.061L33.8,2.638l-0.104,0.007l-0.05,0.003l-0.117-0.051L33.432,2.59l-0.037-0.003
			L33.348,2.58l-0.119-0.019l-0.17,0.03L33.05,2.593l-0.108,0.038l-0.023,0.008l-0.173-0.062l-0.123-0.045l-0.106,0.006L32.34,2.606
			l-0.116,0.041L32.156,2.67l-0.128,0.003L31.968,2.63l-0.005-0.005l-0.091-0.092l-0.054-0.018l-0.033,0.05l-0.093,0.076
			l-0.139,0.047l-0.172,0.043l-0.13,0.052l-0.105,0.055L30.945,2.99l-0.141,0.057l-0.144,0.027L30.56,3.155l-0.076,0.08
			l-0.071,0.152l0.022,0.086l0.043,0.069l0.055,0.074l0.187,0.178l0.07,0.083l0.107,0.132l0.097,0.107l0.082,0.064l0.092,0.071
			l0.082,0.087l0.076,0.113l0.092,0.164l0.077,0.105l0.074,0.033l0.168,0.033l0.089,0.022l0.097,0.059l0.077,0.112l0.122,0.119
			l0.103,0.022l0.098-0.024l0.163-0.06l0.154-0.021l0.045,0.062l0.11,0.183l0.092,0.152l0.094,0.102l-0.035,0.1l-0.082,0.079
			l-0.151,0.151l-0.066,0.088l-0.031,0.116l0.084,0.075l0.012,0.08l-0.091,0.051l-0.135,0.058l-0.176,0.077l-0.146,0.058
			l-0.125,0.048l-0.226,0.102l-0.146,0.032L31.535,6.69L31.39,6.657l-0.168,0.014l-0.091,0.06l-0.12,0.103l-0.13,0.027l-0.157-0.076
			l-0.138-0.018l-0.137,0.052l-0.104,0.046l-0.228,0.104L30.014,7.01L29.89,7.066l-0.011,0.007l-0.085,0.059l-0.123,0.132
			l-0.106,0.144l-0.077,0.053l-0.139,0.018l-0.098,0.003l-0.006,0.002l-0.119-0.005l-0.091,0.003l-0.127,0.026l-0.171,0.093
			l-0.176,0.063l-0.112,0.05l-0.082,0.031l-0.095,0.03l-0.159,0.081l-0.069,0.041L27.932,7.98l-0.101,0.059l-0.102,0.062
			l-0.141,0.08L27.406,8.2l-0.128,0.033l-0.111,0.024l-0.062,0.048l-0.09,0.074l-0.086,0.038l-0.122,0.051l-0.132,0.063L26.6,8.57
			l-0.036,0.07l-0.079,0.083L26.35,8.744l-0.134,0.022l-0.115,0.023l-0.046,0.062l-0.134-0.047l-0.112-0.025l-0.104-0.016
			l-0.049-0.095l-0.037-0.081L25.561,8.54l-0.082-0.078l-0.135,0.056l-0.102,0.034l-0.102,0.002l-0.092,0.071l-0.175,0.064
			l-0.146,0.055l-0.157,0.018l-0.12,0.013L24.33,8.836l-0.145,0.028L24.062,8.84l-0.189,0.009l-0.135,0.015l-0.112,0.007
			l-0.132,0.021l-0.116,0.063l-0.09,0.047l-0.104,0.042l-0.026-0.002l-0.062-0.004l-0.109-0.123l-0.135-0.032l-0.058-0.065
			l0.022-0.085l-0.178-0.048l-0.073-0.024l-0.096,0.006l-0.075,0.004L22.338,8.62l-0.11-0.013l0.186-0.17l0.085-0.06l0.019-0.102
			l-0.031-0.092l-0.006-0.087l-0.003-0.05l0.008-0.09l-0.079-0.061l-0.17-0.006l-0.153-0.012l-0.126-0.018L21.838,7.85l-0.105-0.035
			l-0.015-0.082l-0.002-0.01l-0.083-0.067l-0.15-0.028L21.46,7.54l0.271-0.048l0.086-0.028l0.068-0.105l0.125-0.093l0.189-0.05
			l0.142-0.011h0.162l0.11-0.005l0.117-0.017l0.128-0.014l0.073-0.018l0.062-0.041l0.112-0.076l0.095-0.049V6.907l-0.096-0.099
			l0.058-0.128l-0.072-0.109l0.005-0.109l0.185,0.002l0.162,0.004l0.112,0.005l0.158,0.022l0.084,0.009l0.132,0.004l0.117-0.019
			l0.063-0.056l0.182-0.084l0.107-0.026l0.165-0.025l0.091,0.003l0.084-0.034l0.092-0.052l0.148-0.031l0.151-0.039l0.076-0.062
			L25.19,6.007l-0.095-0.12l-0.047-0.08l-0.058-0.138l-0.097-0.117l0.17-0.072l0.063-0.056l-0.024-0.097l-0.091-0.081L24.904,5.2
			L24.84,5.076l0.062-0.056l0.003-0.122l-0.044-0.09l-0.035-0.064l-0.121-0.062L24.517,4.7l-0.228,0.037l-0.227,0.03l-0.22,0.027
			L23.714,4.82l-0.071,0.033l0.061,0.137l0.047,0.064l-0.12,0.102l-0.162-0.004l-0.142,0.04l-0.138,0.017l-0.098,0.006l-0.133,0.013
			l-0.169-0.009l-0.088-0.008l-0.089-0.022l-0.121,0.023l-0.139,0.026l-0.118-0.043l-0.093-0.09l-0.062-0.05l-0.21,0.069
			l-0.095-0.03l-0.104,0.019l-0.102-0.015l-0.107-0.001l-0.145-0.054l-0.065-0.089l-0.017-0.071l-0.043-0.069l-0.114-0.071
			l-0.065-0.028L20.836,4.8l-0.107,0.069l-0.12,0.081l-0.185,0.076l-0.135,0.008l-0.137-0.007l-0.107-0.065l-0.09-0.015L19.86,4.958
			L19.72,4.994l-0.232,0.118l-0.204,0.091L19.17,5.248l-0.172-0.003l-0.114-0.03l-0.017-0.027l-0.08,0.017L18.71,5.229l-0.085,0.013
			l-0.163,0.004l-0.084-0.024l-0.169-0.008l-0.134-0.072l-0.059-0.048l-0.093-0.055l-0.109-0.03l-0.077-0.013l-0.078-0.024
			l-0.085-0.025L17.477,4.9l-0.117-0.051l-0.004-0.003l-0.062-0.045l-0.1-0.029l-0.096-0.019l-0.12-0.046l-0.096-0.112l-0.101-0.029
			l-0.104,0.011l-0.098,0.02l-0.085-0.014l-0.032-0.14L16.399,4.36l-0.107-0.023l-0.067-0.03l-0.07-0.054l-0.088-0.04l-0.08,0.027
			l-0.119,0.09l-0.078,0.104l-0.045,0.103l-0.062,0.082l-0.092,0.11l-0.034,0.086L15.46,4.826l-0.138-0.008L15.24,4.795
			l-0.034-0.001L15.12,4.79l-0.071,0.037l-0.156-0.088l-0.099-0.03l-0.088-0.015l-0.061-0.042l-0.104-0.136l-0.104-0.099
			L14.302,4.42l-0.171,0.059l-0.134,0.057l-0.079,0.026l-0.153,0.003h-0.113l-0.142-0.06l-0.192-0.016l-0.083,0.027L13.229,4.514"/>
	</g>
</g>
<g id="Layer_1">
</g>
</svg>
