<?xml version="1.0" encoding="utf-8"?>
<!-- Generator: Adobe Illustrator 16.0.4, SVG Export Plug-In . SVG Version: 6.00 Build 0)  -->
<!DOCTYPE svg PUBLIC "-//W3C//DTD SVG 1.1//EN" "http://www.w3.org/Graphics/SVG/1.1/DTD/svg11.dtd">
<svg version="1.1" id="Layer_1" xmlns="http://www.w3.org/2000/svg" xmlns:xlink="http://www.w3.org/1999/xlink" x="0px" y="0px"
	 width="301.169px" height="156.582px" viewBox="-140.386 -72.75 301.169 156.582"
	 style="enable-background:new -140.386 -72.75 301.169 156.582;" xml:space="preserve">
<g id="Layer_125">
	<path id="Bannu." style="fill:#CCCCCC;stroke:#FFFFFF;stroke-width:1.15;" d="M74.381-29.33L74.381-29.33l-1.812,0.457
		l-1.693,0.294l-1.562,0.243l-1.43-0.221l-1.562,0.162l-1.943,0.243l-2.092,0.243l-1.856-0.015H58.37h-2.062l-1.384-0.288
		l-1.325-0.184l-1.414-0.663l-1.297-0.132l-1.061-0.317l-1.281-1.421l-1.282,0.044l-1.693-0.132l-1.016-1.223l0.221-1.945v-1.192
		l-0.943-0.707l-1.369-0.272l-1.134-0.316l-1.135-0.243l-1.693-0.501l-1.297-0.589l-0.707-0.928l-0.78-1.437l-1.252-0.391
		l-1.061-1.281l-0.619-1.193l-0.883-0.751l-0.236-1.223l-0.972-0.516l-1.679-0.529l0.234-1.599l2.048-1.237l2.21,0.199l0.928,0.5
		l1.812-0.589l1.061-0.589l0.31-0.663l0.663-1.148l-0.207-1.355l-1.576-0.501l-1.561-0.331l-1.164,0.229l-1.62,0.95l-2.209,0.604
		l-1.693-0.36l-1.989-0.501l-2.195-0.273l-1.796-0.184l-1.93-0.493l-1.841-0.214l-2.312-0.604l-1.061-0.604l-1.635-1.156
		l-1.414-0.979l-1.768-0.714l-1.605-0.316l-1.517,0.331l-1.032,0.397l-1.62-0.14l-2.077-0.376l-1.223-0.103l-1.193,0.736
		l-1.031,0.662l-1.547,0.361l-0.339-1.281l0.56-1.267l0.736-1.51l0.663-1.201l0.559-1.333l-0.338-1.583l-1.562,0.154l-1.62,0.104
		l-2.312,0.154l-2.136,0.31l-1.164,0.31l-2.489-0.456l-0.958-0.752l-1.959-0.987l-1.576-1.17l-0.898-0.634l-1.665-0.618l-3.02-0.95
		l-2.018-0.575l-15.73,10.782l-13.772,9.036l-38.251,24.046l-5.936,7.268l-13.698,16.755l-21.858,32.758l-1.487,5.759l10.104,4.772
		l13.506,3.756l6.731,4.492l7.88,5.979l7.482,5.628l7.453,8.615l9.043,5.259l5.288,4.802l0.854-0.53l0.31-1.267l0.088-1.576
		l-0.795-1.369l-0.073-1.591l0.515-1.267l1.399-0.841l1.267-0.25l1.458-0.029l1.238,0.206l1.605,0.31l1.355-0.089l0.972,0.722
		l1.458,0.472l1.767,0.324l1.223,0.427l1.37,1.326l1.384,1.017l1.856,0.573l1.37,0.31l2.504,0.442l1.812,0.323l1.649,0.118
		l1.562,0.029l1.355,0.191l1.326,0.604l1.149,0.5l1.576,0.737l2.106,0.383l1.281,0.147l1.458,0.191l1.753,0.029l1.576-0.309
		l2.194-1.149l1.576-0.485l1.222-0.649l1.238-0.471L-17.676,77l2.754-1.105l1.562-0.618l1.605-0.56l1.635-0.869l1.679-0.546
		l1.282,0.06l3.682,2.887l0.854,0.913l0.972,1.002l3.388,0.265h2.459l1.576-0.088l1.679-0.295l1.782,0.133l1.591,0.074l1.486-0.222
		l3.462-0.396l1.62-0.812l2.21-0.486l1.384,0.428l1.68-0.103l1.9-0.943l1.207-1.06l0.898-1.179l0.796-1.326l1.325,0.03l1.37,0.5
		l4.625-0.103l1.737-0.089l2.666,0.133l1.753-0.751l1.399-1.075l8.028-0.723l1.501-0.279l1.856-0.235l1.812,0.088l1.517,0.059
		l2.21-0.677l-0.177,0.766l0.03-0.265l0.146-0.501l1.017,0.324h2.062l2.017-1.43l1.975-1.664l2.209-0.235l1.474-1.664l1.62-1.193
		l2.577-1.178l2.003-1.916v-3.77l2.003-2.15l2.813-0.723l0.574-1.178l3.108-0.472l0.573-1.429l1.695-1.665l1.104-0.455l3.431,0.234
		l0.561-1.443l1.664-0.456l1.458-1.679l2.195-0.222l2.032,1.179l3.741,0.678l-0.073-0.06l-0.457-0.397l-0.957-0.78l-0.752-1.208
		l0.398-1.385l0.928-1.414l0.795-1.768l0.207-1.59l0.339-1.945l1.384-1.796l3.446-1.297l2.416-0.574l3.078-0.104l1.827-0.235
		l1.443-0.707l1.458-0.56l0.31,0.501l0.221,0.31l0.265,0.309l0.397,0.06l0.192-0.796l0.28-1.148l0.073-1.458l0.456-1.326
		l1.119-1.782l0.987-1.002h0.869l2.209-0.117l0.221-0.913l-1.796-0.354l-0.663-0.324l-0.118-0.398l-0.015-1.473l-0.118-1.605
		l1.562-0.633l1.046-0.692l0.943-0.942l1.207-0.517l0.354-0.221l0.472-0.338l-0.192-0.472l-2.032,0.25l-1.562,0.03l0.619-0.825
		l1.385-0.869l0.089-0.766l1.148-0.832l2.253-1.148l0.574-2.129l1.12-0.465l2.976-0.677l2.032-0.546l1.575-0.589l0.987-0.302
		l1.37-0.419l1.178-0.185l1.665-0.302l3.24-0.692l1.002-1.024l0.766-1.929l0.147-1.017l-0.206-1.311l1.62,0.044l0.691,0.066
		l0.914-1.223l0.795-0.832l1.119-1.223l0.619-0.994l0.176-1.628l-0.25-1.223l-1.398-0.766l-1.93-0.619l-0.752-0.743l-0.529-0.191
		l-1.503-0.272l-0.354-0.442l0.751-0.647l-0.5-0.303l-1.193-0.508l-0.531-0.589l-0.368-0.574l-0.368-0.906l-0.353-0.405l-0.472,0.03
		l-2.136-0.273l-1.635-0.766l-0.84-0.633l-0.354-0.111l-1.252,0.773l-0.161-1.148l-0.781-0.405l-1.326,0.509l-1.281,0.14
		l-0.31,0.117l-2.753-0.493l-0.236-0.699l-0.604-0.619l-0.529-0.42l-0.663-0.529l-0.545,0.271l-0.958-0.316l-0.044-0.824
		l-0.177-0.604l-0.31-0.634l-0.986-0.529l-0.604-0.303l-0.957-0.92l-0.324,0.272l-0.928-0.015l-0.339-0.229l-0.707,0.015
		l0.059,0.272l-0.972,0.316l-1.547-0.36l-1.061-0.391l-0.736-0.589l-1.443-0.391l-0.191-0.316l-1.001,0.597l-1.134-0.464
		l-0.311-0.089l-1.664-0.427l-1.487-0.493l-0.942,0.161l-0.148,0.272l-1.959-0.147l-0.309-0.302l-0.501,0.147l-1.148-0.42
		l-0.752,0.376l-0.721-0.044l-0.634,0.404l-0.986-0.92l-0.178-0.376l-0.382-0.449l-1.268,0.692l-1.443-0.133l-0.265,0.538
		l-0.31,0.905l-0.634,0.229l-0.324,0.06l-1.178,0.39l-0.957-0.493l-0.841-0.648l-1.502-0.242L93.97-25.39l-0.161-0.847l-0.368-0.42
		l-0.604-0.501l-0.766-0.817l-0.383-0.295l-1.68-0.972l-1.075-0.331l-1.782,0.346l-1.899-0.464l-0.869,0.229l-3.152,0.36
		l-2.209-0.029l-1.591-0.11l-2.048-0.162l-0.648-0.073L74.381-29.33"/>
</g>
<g id="Layer_1_1_">
</g>
</svg>
