<?xml version="1.0" encoding="iso-8859-1"?>
<!-- Generator: Adobe Illustrator 16.0.4, SVG Export Plug-In . SVG Version: 6.00 Build 0)  -->
<!DOCTYPE svg PUBLIC "-//W3C//DTD SVG 1.1//EN" "http://www.w3.org/Graphics/SVG/1.1/DTD/svg11.dtd">
<svg version="1.1" xmlns="http://www.w3.org/2000/svg" xmlns:xlink="http://www.w3.org/1999/xlink" x="0px" y="0px"
	 width="41.808px" height="33.45px" viewBox="0 0 41.808 33.45" style="enable-background:new 0 0 41.808 33.45;"
	 xml:space="preserve">
<g id="Layer_60">
	<g id="Layer_65">
		<path id="Sahiwal" style="fill:#CCCCCC;stroke:#FFFFFF;stroke-width:1.07;" d="
			M16.748,11.406L16.748,11.406l0.024,0.069l-0.021,0.063l-0.055,0.017l-0.105-0.035l-0.1-0.076l-0.086-0.087l-0.077-0.069
			l-0.073-0.046l-0.106-0.013l-0.198,0.021l-0.121,0.051l-0.102,0.045l-0.066,0.085l-0.041,0.155L15.586,11.7l-0.027,0.034
			l-0.053,0.028l-0.087,0.073l-0.016,0.063v0.075l0.032,0.041h0.033l0.074-0.045l0.047-0.04h0.054l0.06,0.024l0.072,0.046
			l0.18,0.145l0.092,0.058l0.072,0.012l0.112,0.012l0.114-0.022l0.146-0.027l0.167-0.039l0.193-0.073l0.094-0.011l0.04,0.012
			l0.014,0.023l-0.021,0.108l-0.055,0.121l-0.121,0.091l-0.093,0.034l-0.127,0.022l-0.113,0.011l-0.113,0.004l-0.06,0.028
			l-0.062,0.091l-0.109,0.361l0.02,0.052l0.06,0.006l0.073-0.028l0.128-0.114l0.062-0.068l0.054-0.017l0.061,0.018l0.046,0.035
			l0.046,0.104l0.011,0.264l-0.001,0.052l-0.062,0.068L16.514,13.4l-0.207,0.084l-0.16,0.033l-0.239,0.016l-0.073,0.028
			l-0.054,0.045l-0.021,0.04l0.011,0.074l0.033,0.046l0.086,0.035l0.086,0.047l0.026,0.081l-0.022,0.178l-0.144,0.344l-0.103,0.166
			l-0.101,0.08l-0.181,0.016L15.3,14.712l-0.152-0.024l-0.591-0.103l-0.079,0.005l-0.048,0.011l-0.055,0.029l-0.032,0.057
			l-0.001,0.126l0.024,0.086l0.06,0.058l0.087,0.041l0.305,0.025l0.14,0.024l0.047,0.029l0.025,0.04l0.033,0.046l-0.001,0.069
			l-0.081,0.114l-0.161,0.119l-0.08,0.022l-0.086-0.018l-0.063-0.104l-0.113-0.087l-0.079-0.041h-0.06l-0.048,0.045l-0.067,0.086
			l-0.073,0.097l-0.08,0.065l-0.174,0.074l-0.246,0.021l-0.285-0.037l-0.239-0.071l-0.231-0.019l-0.146-0.001l-0.187,0.05
			l-0.347,0.141l-0.167,0.067l-0.16,0.045l-0.188,0.01l-0.046-0.023l-0.026-0.029l0.002-0.08l0.007-0.051l0.041-0.069l0.088-0.154
			l0.041-0.081l0.007-0.063l-0.005-0.126l-0.047-0.046l-0.039-0.035l-0.073-0.018h-0.073l-0.047,0.028l-0.067,0.058l-0.08,0.125
			l-0.048,0.126l-0.027,0.121l-0.056,0.143l-0.047,0.086l-0.088,0.062l-0.093,0.028l-0.113,0.005l-0.1-0.047l-0.06-0.081
			l-0.046-0.063l-0.053-0.029l-0.071-0.002l-0.112,0.022l-0.146,0.051l-0.287,0.026l-0.372,0.015l-0.26-0.001l-0.226-0.019
			l-0.173-0.036l-0.198-0.094l-0.079-0.052l-0.086-0.081l-0.053-0.081l-0.02-0.081L8.582,15.2l0.027-0.04l0.047-0.029l0.061-0.022
			l0.061-0.005l0.1,0.007l0.112,0.041l0.061,0.03l0.064,0.041l0.12,0.029l0.106-0.005l0.053-0.011l0.034-0.023l0.007-0.045
			l-0.039-0.069l-0.079-0.093l-0.099-0.069l-0.141-0.07l-0.093-0.019l-0.133,0.017l-0.16,0.033l-0.086-0.007l-0.047-0.029
			l-0.015-0.023l0.017-0.131l0.034-0.132l-0.014-0.092l-0.02-0.035L8.469,14.42l-0.14-0.087l-0.173-0.087l-0.064-0.075L8.06,14.107
			l-0.086-0.041H7.912l-0.101,0.051l-0.106,0.085l-0.066,0.126l-0.069,0.195l-0.041,0.138l-0.061,0.097l-0.08,0.051L7.33,14.847
			l-0.065,0.001l-0.075-0.015l-0.041-0.021l-0.011-0.13l0.007-0.105l0.03-0.08l0.028-0.05l0.105-0.09l0.076-0.089l0.047-0.065
			l0.028-0.095l0.001-0.055l-0.022-0.045l-0.069-0.031l-0.267-0.002L6.98,13.989l-0.255,0.049l-0.177,0.077l-0.188,0.109
			l-0.046,0.035l-0.013,0.06l0.027,0.055l0.041,0.016l0.115-0.02l0.082-0.024l0.221-0.079l0.104-0.015l0.058,0.015l0.022,0.041
			v0.055l-0.137,0.32l-0.047,0.1l-0.069,0.024l-0.064,0.01l-0.127-0.042l-0.225-0.096l-0.202-0.117l-0.19-0.076l-0.109-0.011
			l-0.069,0.024l-0.07,0.049l-0.041,0.08v0.065l0.027,0.061l0.075,0.056l0.173,0.101l0.104,0.026l0.022,0.035l0.006,0.095
			l-0.008,0.131L5.98,15.327l-0.129,0.125l-0.128,0.075L5.445,15.58l-0.244,0.019l-0.173,0.013L4.852,15.64L4.849,15.7l0.013,0.065
			l-0.053,0.133l-0.062,0.179L4.73,16.17l0.009,0.106l0.047,0.09l0.111,0.116l0.087,0.104l0.026,0.054l0.025,0.054l-0.009,0.059
			L5.01,16.824l-0.078,0.088l-0.09,0.044l-0.088,0.038L4.68,17.033l-0.065,0.021L4.514,17.08l-0.155,0.024l-0.136,0.031
			l-0.106,0.026l-0.054,0.04l-0.037,0.063l-0.023,0.077l0.009,0.083l0.026,0.108l0.072,0.169l0.013,0.12l-0.015,0.155L4.09,18.059
			L4.088,18.13l0.021,0.043l0.067,0.068l0.027,0.056l-0.002,0.061l-0.007,0.06l-0.009,0.065l0.018,0.091l0.039,0.062l0.031,0.084
			v0.055l-0.009,0.072l-0.046,0.088l-0.089,0.11l-0.104,0.183l-0.084,0.185l-0.128,0.2l-0.142,0.227l-0.09,0.104l-0.138,0.164
			l-0.173,0.183l-0.2,0.18l-0.132,0.123l-0.132,0.171l-0.152,0.188l-0.132,0.177L2.444,21.27l-0.047,0.162l-0.019,0.145l0.04,0.268
			l-0.053,0.225l0.011,0.14l0.014,0.116l0.046,0.123l0.04,0.129l0.018,0.072l-0.008,0.127l-0.04,0.322l-0.031,0.199l-0.02,0.204
			l0.001,0.101l0.014,0.17l0.012,0.123l0.013,0.123l-0.008,0.061L2.372,24.18l-0.094,0.19l-0.056,0.106l-0.048,0.082l-0.134,0.203
			L1.96,24.898l-0.083,0.107l-0.056,0.046l-0.015,0.06l-0.024,0.08l-0.023,0.242l-0.036,0.121l-0.061,0.088L1.63,25.734
			l-0.085,0.117l-0.123,0.094l-0.12,0.066l-0.146,0.051l-0.104,0.056l-0.07,0.053l-0.04,0.047l-0.024,0.14l0.011,0.184l0.013,0.221
			l0.008,0.086L0.928,26.95l-0.03,0.077l-0.05,0.06l-0.056,0.054L0.717,27.18l-0.052,0.021l-0.064,0.064l-0.04,0.09l-0.022,0.127
			l0.008,0.104l0.01,0.129l0.047,0.069l0.115,0.085l0.088,0.071l0.055,0.062l0.04,0.069l0.01,0.196v0.158l0.008,0.153l-0.002,0.172
			l-0.029,0.121l-0.025,0.14l-0.018,0.077l0.01,0.142l-0.012,0.093l-0.029,0.114l-0.047,0.097l-0.037,0.065l-0.008,0.062l0.01,0.086
			l0.062,0.298l-0.021,0.561l0.113,0.021l0.106,0.05l0.099,0.084l0.046,0.112l0.002,0.067l-0.051,0.107l-0.098,0.114L0.85,31.309
			l-0.123,0.153l-0.061,0.164l0.011,0.146l0.052,0.103l0.131,0.09l0.146,0.05l0.212,0.021l0.089-0.001l0.084,0.012l0.158,0.043
			l0.836,0.06l0.217,0.021l0.102,0.045l0.031,0.103l-0.009,0.057l-0.062,0.062l-0.086,0.052l-0.034,0.046l-0.009,0.062l0.054,0.066
			l0.131,0.072l0.25,0.09l0.336,0.091h0.076l0.064-0.028l0.064-0.06l0.077-0.125l0.05-0.097l0.062-0.08l0.066-0.057L3.85,32.45
			l0.094,0.022l0.127,0.026h0.083l0.039-0.017l0.04-0.041l0.068-0.084l0.029-0.08l0.02-0.119l0.004-0.074l-0.031-0.143l0.009-0.147
			l0.021-0.164l0.037-0.102l0.083-0.132l0.113-0.092l0.133-0.107l0.218-0.133l0.072-0.045l0.065-0.067L5.129,30.9l0.045-0.018h0.024
			l0.081-0.188l0.049-0.141l0.045-0.033l0.062-0.012l0.1-0.025l0.049-0.072l-0.001-0.055l-0.075-0.076l-0.085-0.034L5.293,30.23
			l-0.116-0.012l-0.022-0.043l0.039-0.047l0.019-0.043l0.078-0.021l0.134-0.037l0.095-0.062l0.058-0.084l0.074-0.127l0.018-0.097
			l0.019-0.122l-0.021-0.123l-0.021-0.208L5.62,28.983l0.01-0.099l0.055-0.117l0.079-0.041l0.153-0.036l0.061,0.009l0.108,0.021
			l0.05,0.039l0.057,0.057l0.054,0.021l0.056-0.011l0.038-0.035l0.005-0.049l-0.007-0.067l0.006-0.062l0.041-0.065l0.053-0.054
			l0.117-0.015l0.068-0.063L6.686,28.4l0.032,0.02l0.002,0.057L6.716,28.58l0.037,0.105l0.058,0.045l0.087,0.016l0.084-0.021
			l0.067-0.059l0.056-0.078l0.045-0.041l0.073-0.046l0.063-0.01l0.101,0.011l0.141,0.041l0.16,0.012l0.239,0.022L8.021,28.6
			l0.036,0.043l0.01,0.057L8.04,28.76l-0.022,0.084L8.01,28.917l0.035,0.062l0.062,0.07l0.053,0.094l0.038,0.101l0.028,0.05
			l-0.008,0.073l-0.042,0.017l-0.06-0.021l-0.081-0.017l-0.051,0.028l-0.015,0.073l0.046,0.088l0.037,0.044l0.057,0.058l0.091,0.041
			l0.07,0.047l0.036,0.056l-0.019,0.185l0.007,0.094l0.062,0.068l0.06,0.027l0.164-0.006l0.143-0.061l0.009-0.068l-0.019-0.098
			l-0.066-0.097l-0.01-0.108l0.047-0.062l0.078-0.021l0.08,0.021l0.058,0.046l0.098,0.114l0.1,0.04l0.062-0.017l0.066-0.058
			l-0.001-0.067l-0.065-0.088L9.14,29.502l0.023-0.098l0.055-0.064l0.133-0.11l0.089-0.063l0.118-0.014l0.178,0.009l0.162,0.007
			l0.076-0.016l0.061-0.04l0.023-0.049l-0.021-0.062l-0.093-0.029L9.88,28.934l0.004-0.049l0.047-0.055l0.072-0.045l0.133-0.025
			l0.128-0.049l0.062-0.07l0.005-0.051l-0.001-0.055l-0.025-0.02l-0.055-0.008l-0.108-0.006l-0.05-0.052l0.004-0.037l0.039-0.053
			l0.101-0.052l0.051-0.051l0.016-0.057l-0.016-0.037l-0.037-0.043l-0.065-0.035l-0.048-0.022l-0.018-0.056l-0.003-0.057
			l0.005-0.059l0.022-0.047l0.038-0.021l0.061,0.003l0.043,0.034l0.028,0.022l0.044,0.019l0.042-0.011l0.034-0.016l0.057-0.006
			l0.05,0.006l0.09,0.012l0.043-0.014l0.039-0.023l0.004-0.041l-0.045-0.059l-0.029-0.076l0.005-0.045l0.045-0.039l0.085-0.017
			l0.069-0.009l0.052-0.02l0.037-0.052l0.015-0.053l-0.007-0.062l-0.033-0.035l-0.043-0.07l-0.01-0.042l0.006-0.054l0.02-0.016
			l0.043-0.006l0.068-0.001l0.092-0.009l0.07-0.018l0.047-0.048l0.053-0.071l0.007-0.076l-0.012-0.062l-0.036-0.055l-0.044-0.062
			l-0.021-0.072l0.015-0.047l0.031-0.031l0.056-0.016l0.109,0.006l0.118,0.047l0.079,0.084l0.107,0.066l0.089,0.029l0.083-0.01
			l0.06-0.037l0.038-0.061l0.069-0.1l0.046-0.102l0.013-0.072l-0.024-0.12l0.001-0.103l0.022-0.094l0.056-0.043l0.059-0.038
			l0.069-0.038l0.05,0.002l0.057,0.035l0.054,0.072l0.069,0.077l0.045,0.052l0.112,0.066l0.091,0.049l0.05,0.061l0.003,0.065
			l-0.029,0.071l-0.045,0.135l-0.044,0.156l-0.011,0.106l0.013,0.062l0.057,0.035l0.081,0.017l0.146,0.045l0.146,0.048l0.116,0.075
			l0.078,0.09l0.041,0.069l0.047,0.039l0.045,0.007l0.063-0.011l0.056-0.037l0.069-0.059l0.093-0.099l0.095-0.127l0.12-0.15
			l0.117-0.153l0.076-0.137l0.039-0.162l-0.003-0.115l-0.033-0.115l-0.062-0.146l-0.01-0.082l0.01-0.062l0.021-0.081l0.041-0.047
			l0.092-0.074l0.108-0.092l0.108-0.076l0.084-0.055l0.062-0.029l0.109,0.002l0.099,0.033l0.069,0.078l0.072,0.154l0.059,0.146
			l0.068,0.098l0.1,0.059l0.095,0.01l0.115,0.002l0.146-0.033l0.124-0.051l0.069-0.01l0.077,0.005l0.106,0.079l0.104,0.051
			l0.164,0.018l0.171-0.02l0.168-0.064l0.062-0.062l0.011-0.069l-0.013-0.05l-0.064-0.049l-0.035-0.063l-0.003-0.058l0.012-0.062
			l0.048-0.06l0.073-0.049l0.078-0.05l0.125-0.014l0.054,0.006l0.037,0.043l0.003,0.058l0.02,0.083l0.046,0.089l0.071,0.069
			l0.076,0.014l0.071-0.021l0.076-0.068L17.27,25.7l0.015-0.086l-0.021-0.069l-0.036-0.09l-0.034-0.07l-0.004-0.06l0.021-0.052
			l0.045-0.034l0.088-0.004h0.073l0.117,0.021l0.081,0.017l0.066,0.013l0.084-0.008l0.054-0.03l0.034-0.06l0.007-0.073l0.013-0.11
			l-0.02-0.136l-0.029-0.095l-0.023-0.043l-0.022-0.006l-0.048,0.019l-0.015,0.058l-0.033,0.06l-0.062,0.024l-0.103,0.006
			l-0.062-0.022l-0.025-0.062l0.004-0.082l0.031-0.133l0.055-0.129l0.047-0.048l0.074-0.049l0.092-0.048l0.062-0.028l0.122-0.019
			l0.124-0.002l0.108,0.019l0.06,0.05l0.083,0.041l0.096,0.01l0.031-0.035l0.023-0.055l0.04-0.035l0.055-0.025l0.097-0.003
			l0.182,0.022l0.174,0.019l0.12-0.013l0.107-0.057l0.062-0.072l0.023-0.099l0.014-0.09l0.006-0.089l-0.032-0.043l-0.045-0.008
			l-0.096,0.023l-0.107,0.025l-0.087-0.006l-0.054-0.021l-0.036-0.048l0.011-0.094l0.005-0.166l-0.014-0.091l-0.033-0.075
			l-0.062-0.062l-0.063-0.078l-0.068-0.093l-0.031-0.051l-0.016-0.074l0.014-0.041l0.046-0.042l0.131-0.05l0.083-0.003l0.111,0.023
			l0.068,0.057l0.062,0.068l0.069,0.045l0.071,0.014l0.109-0.035l0.062-0.062l0.04-0.07l0.065-0.105l0.047-0.039l0.075-0.02
			l0.102,0.01l0.086,0.059l0.062,0.102l0.049,0.15l0.108,0.056l0.112,0.022l0.087-0.031l0.07-0.053L20.37,23l0.062-0.029l0.072,0.01
			l0.075,0.025l0.072,0.053l0.044,0.064l0.047,0.088l0.034,0.092l0.06,0.054l0.068,0.008l0.066-0.024l0.061-0.082l0.056-0.045
			l0.079-0.008l0.056,0.023l0.024,0.074l0.028,0.063l0.086,0.022l0.099-0.01l0.101-0.035l0.076-0.064l0.028-0.084l-0.017-0.079
			l-0.042-0.071l-0.089-0.035l-0.147-0.034l-0.253-0.048l-0.181-0.041l-0.091-0.055l-0.025-0.055l0.006-0.134l0.02-0.097
			l0.046-0.043l0.068-0.028l0.082,0.006l0.039,0.026l0.014,0.078l0.005,0.082l0.062,0.074l0.123,0.016h0.138l0.08-0.02l0.061-0.041
			l0.034-0.055l0.008-0.068l-0.015-0.08l-0.048-0.108l-0.061-0.085l0.004-0.065l0.025-0.075l0.026-0.055l0.024-0.016l0.06,0.005
			l0.104-0.015l0.113-0.021l0.04,0.015l0.031,0.047l0.037,0.084l0.062,0.023l0.07-0.004l0.061-0.045l0.064-0.045l0.092-0.039
			l0.152-0.04l0.153-0.052l0.066-0.023l0.074,0.001l0.061,0.041l0.066,0.062l0.051,0.008l0.039-0.021l0.035-0.066l0.043-0.1
			l0.022-0.08l-0.008-0.05l-0.034-0.022l-0.083-0.004l-0.061-0.029l-0.018-0.025l0.005-0.037l0.037-0.046l0.064-0.036l0.132-0.058
			l0.144-0.035l0.121-0.013l0.05,0.016l0.005,0.037l-0.012,0.053l-0.024,0.059l-0.029,0.088l-0.034,0.141l-0.028,0.174l-0.013,0.178
			l0.036,0.052l0.052,0.036l0.101,0.011h0.129l0.064-0.033l0.024-0.06l-0.007-0.065l-0.036-0.088l-0.04-0.047l-0.011-0.069
			l0.005-0.045l0.04-0.062l0.055-0.037l0.061-0.029l0.099-0.021l0.105-0.066l0.095-0.096l0.057-0.053l0.052-0.011l0.097-0.001
			l0.095-0.018l0.051-0.037l-0.004-0.049l-0.034-0.057l-0.09-0.025l-0.197-0.014l-0.146-0.014l-0.038-0.031l-0.017-0.05l0.005-0.09
			l0.007-0.129l0.058-0.095l0.057-0.08l0.071-0.062l0.102-0.03h0.056l0.022,0.015l0.005,0.028l-0.007,0.054l-0.035,0.062
			l-0.025,0.059l0.004,0.05l0.05,0.052l0.084,0.03l0.095,0.022l0.106,0.071l0.086,0.093l0.029,0.082l0.039,0.096l0.073,0.162
			l0.092,0.16l0.074,0.145l0.086,0.119l0.106,0.07l0.12,0.037l0.177,0.031l0.086,0.003l0.084,0.011l0.034,0.035l0.014,0.084
			l-0.021,0.016l-0.059,0.022l-0.04,0.032l-0.021,0.031l0.006,0.051l0.018,0.025l0.021,0.092l0.033,0.076l0.023,0.061l0.033,0.066
			l0.062,0.045l0.081,0.043l0.057,0.002l0.095,0.013l0.082,0.028l0.121,0.039l0.086,0.002l0.06-0.038l0.042-0.065l-0.006-0.05
			l-0.016-0.051l-0.045-0.043l-0.08-0.062l-0.07-0.061l-0.017-0.042l-0.002-0.108L26.04,22.31l0.005-0.075l0.03-0.023l0.048-0.006
			l0.084,0.002l0.1,0.062l0.106,0.096l0.142,0.121l0.135,0.098l0.221,0.092l0.131,0.013l0.057,0.002l0.059-0.022l0.03-0.031
			l0.025-0.092l-0.013-0.101l-0.093-0.153l-0.135-0.213l-0.035-0.051l0.017-0.074l0.04-0.031l0.067-0.039l0.113-0.004l0.132,0.014
			l0.069,0.078l0.021,0.101l0.049,0.235l0.023,0.084l0.06,0.085l0.073,0.028l0.093,0.021l0.112,0.004l0.045,0.027l0.033,0.075
			l0.041,0.086l0.062,0.044l0.058-0.007l0.07-0.045l0.022-0.076l0.004-0.057l-0.014-0.068l0.006-0.074l0.006-0.092l0.071-0.062
			l0.04-0.031l0.075,0.002l0.091,0.055l0.074,0.003l0.087-0.021l0.08-0.063l0.052-0.056l0.044-0.09l0.006-0.076l0.009-0.115
			l-0.021-0.109l-0.022-0.066l0.005-0.076l0.063-0.08l0.082-0.096l0.082-0.08l0.073-0.076l-0.005-0.059l-0.016-0.043l-0.064-0.02
			l-0.073-0.012l-0.093-0.037l-0.093-0.029l-0.008-0.018l0.004-0.041l0.05-0.154l0.051-0.155l0.033-0.073l0.056-0.088l0.098-0.039
			l0.075,0.004l0.046,0.018l0.053,0.044l-0.007,0.091l-0.021,0.04l-0.014,0.041l0.017,0.042l0.071,0.044l0.095,0.005l0.073,0.02
			l0.062,0.061l0.062,0.145l0.074,0.152l0.035,0.026l0.074,0.013l0.065,0.002l0.118-0.062l0.069-0.048l0.031-0.047l0.024-0.065
			l0.005-0.058l-0.054-0.045l-0.053-0.061l-0.031-0.076l0.004-0.042l0.052-0.056l0.068-0.021l0.104-0.004l0.052-0.057l0.014-0.041
			l-0.016-0.059l-0.034-0.035l-0.071-0.045l-0.291-0.029l-0.227-0.01l-0.063-0.02l-0.063-0.044l-0.031-0.06l0.003-0.041l0.031-0.032
			l0.059-0.022l0.09-0.054l0.065,0.003l0.093,0.021l0.112,0.021l0.124-0.011l0.2-0.041l0.272-0.079l0.106-0.037l0.155-0.051
			l0.076,0.003l0.122,0.006l0.104,0.021l0.11,0.029l0.082,0.028l0.075,0.013l0.076-0.006l0.098-0.037l0.101-0.062l0.041-0.031
			l0.034-0.071l0.006-0.059l-0.035-0.035l-0.188-0.009l-0.21,0.015l-0.098,0.028l-0.073-0.021l-0.053-0.043l0.006-0.064l0.091-0.07
			l0.1-0.053l0.099-0.037l0.125-0.02l0.122,0.022l0.154,0.056l0.142,0.023l0.131,0.016l0.104,0.004l0.51,0.027l0.131-0.09
			l0.197-0.033l0.051-0.023l0.089-0.029l0.044-0.032l0.029-0.024l0.062-0.103l0.05-0.063l0.041-0.041l0.031-0.012l0.03-0.01
			l0.027-0.003l0.055-0.006l0.118-0.019l0.14-0.035l0.136-0.025l0.085-0.006l0.108,0.006h0.098l0.056-0.012l0.051-0.012l0.059-0.041
			l0.05-0.059l0.046-0.061l0.033-0.096l0.02-0.088l0.016-0.046l-0.002-0.032l-0.026-0.025l-0.043-0.038l-0.025-0.017l-0.037,0.002
			l-0.034,0.013l-0.087,0.065l-0.062,0.039l-0.119,0.037l-0.146,0.016l-0.08-0.021l-0.057-0.041L33.6,18.638l-0.018-0.078
			l-0.004-0.075l0.005-0.052l0.007-0.062l0.014-0.104L33.6,18.192l-0.002-0.046l-0.019-0.035l-0.026-0.033l-0.043-0.029l-0.05-0.018
			l-0.081-0.011l-0.094-0.008l-0.018-0.029l-0.006-0.026l0.008-0.023l0.004-0.02l0.066-0.058l0.07-0.043l0.075-0.032l0.082-0.021
			h0.037l0.029,0.021l0.033,0.022l0.021,0.032l0.035,0.054l0.021,0.035l0.045,0.026l0.035,0.015l0.044,0.011l0.049-0.009
			l0.048-0.022l0.101-0.049l0.094-0.051l0.059-0.015l0.045-0.003l0.033,0.015l0.039,0.02l0.034,0.057l0.041,0.063l0.053,0.078
			l0.035,0.034l0.062,0.019l0.058,0.002l0.044-0.009l0.06-0.028l0.068-0.035l0.029-0.041l0.001-0.02l-0.006-0.034l-0.013-0.021
			l-0.032-0.043l-0.049-0.052l-0.041-0.06l-0.025-0.049l-0.023-0.054l-0.009-0.063l0.001-0.032l0.017-0.031l0.015-0.029l0.028-0.025
			l0.042-0.02l0.045-0.012l0.036,0.005h0.029l0.036,0.017l0.048,0.032l0.077,0.057l0.063,0.026l0.062,0.017h0.053l0.067-0.017h0.037
			l0.037,0.012l0.032,0.037l0.028,0.097l0.02,0.038l0.037,0.021h0.04l0.041-0.012l0.031-0.025l0.04-0.049l0.009-0.037l-0.006-0.046
			l-0.017-0.055l-0.038-0.068l-0.052-0.052l-0.038-0.054l-0.06-0.04l-0.046-0.037l-0.025-0.023l-0.019-0.046l0.005-0.031
			l0.009-0.025l0.028-0.037l0.046-0.031l0.098-0.022l0.055-0.005l0.098,0.009l0.074,0.023l0.053,0.034l0.059,0.062l0.036,0.08
			l0.037,0.074l0.035,0.029l0.042,0.022l0.048,0.018l0.062,0.006h0.027l0.03-0.008l0.061-0.028l0.057-0.019l0.105-0.02l0.073-0.003
			l0.048,0.006l0.07,0.017l0.106,0.027l0.078,0.012h0.115l0.056-0.008l0.062-0.022l0.054-0.022l0.041-0.014h0.041l0.04,0.002
			l0.104,0.023l0.102,0.021l0.107,0.037l0.076,0.041l0.038,0.041l0.027,0.054l-0.005,0.032l-0.02,0.045l-0.082,0.071l-0.04,0.046
			l-0.029,0.037l-0.001,0.035l-0.002,0.034l0.025,0.043l0.067,0.052l0.13,0.066l0.134,0.067l0.07,0.017l0.037-0.002l0.032-0.017
			l0.021-0.034l0.003-0.046l-0.003-0.052l-0.046-0.1l-0.048-0.063l-0.018-0.055l-0.008-0.054l-0.001-0.035l0.013-0.042l0.02-0.036
			l0.033-0.048l0.059-0.064l0.115-0.113l0.165-0.135l0.079-0.033l0.05-0.018l0.055-0.022l-0.381,0.012l-0.228-0.056l-0.205-0.073
			l0.021-0.106l0.053-0.051l0.12-0.079l0.111-0.068l0.079-0.049l0.173-0.039l0.224-0.013l0.17-0.022l0.107-0.033l0.129-0.07
			l0.3-0.213l0.327-0.263l0.134-0.083l0.068-0.02l0.066-0.012l0.198,0.046l0.218,0.041l0.17-0.007l0.077-0.019l0.072-0.042
			l0.054-0.042l0.076-0.063l0.069-0.078l0.017-0.096l0.025-0.094l-0.021-0.096l-0.055-0.061l-0.095-0.041l-0.219-0.09l-0.171-0.088
			l-0.062-0.104l-0.03-0.131l0.019-0.085l0.048-0.083l0.112-0.086l0.205-0.102l0.384-0.126l0.19-0.073l0.13-0.081l0.099-0.17
			l0.029-0.058l0.059-0.141l0.001-0.204l-0.064-0.347l-0.01-0.185l-0.047-0.093l-0.105-0.062l-0.207-0.119L40.78,12.89l0.02-0.091
			l0.039-0.057l-0.194-0.604l-0.06-0.143l-0.063-0.1l-0.105-0.111l-0.115-0.122l-0.102-0.145l-0.061-0.167L40.1,11.153l-0.022-0.228
			l0.029-0.123l0.052-0.143l0.112-0.13l0.372-0.304l0.159-0.126l0.15-0.201l0.088-0.311l-0.004-0.115l0.011-0.28l-0.003-0.574
			l-0.028-0.354l-0.049-0.341l-0.091-0.181l-0.115-0.171L40.6,7.427l-0.438-0.321l-0.425-0.183l-0.242-0.065l-0.171,0.001
			l-0.384,0.204l-0.223,0.175L38.37,7.383l-0.127-0.005l-0.208-0.083l-0.163-0.081L37.79,7.136l-0.073-0.124l-0.045-0.094
			l-0.081-0.233l-0.087-0.25L37.417,6.25l-0.096-0.14L37.245,5.98l-0.007-0.055l0.037-0.061l0.063-0.051l0.135-0.012L37.608,5.8
			l0.135-0.021l0.055-0.033l0.029-0.07l-0.014-0.125l-0.04-0.099L37.681,5.35l-0.14-0.095l-0.215-0.16l-0.093-0.084l-0.08-0.144
			l-0.002-0.105l0.04-0.06l0.064-0.049l0.228-0.066l0.364-0.12l0.35-0.144l0.129-0.062l0.058-0.057l0.028-0.127l0.005-0.068
			l-0.021-0.053l-0.073-0.072l-0.148-0.026l-0.151,0.008L37.74,3.953l-0.105-0.006L37.576,3.9l-0.012-0.069L37.6,3.74l0.11-0.139
			l0.47-0.438l0.061-0.072l0.01-0.092l-0.008-0.093l-0.046-0.062l-0.112-0.008l-0.277,0.116l-0.348,0.173l-0.081,0.012l-0.079-0.013
			l-0.091-0.057l-0.136-0.127l-0.079-0.082l-0.067-0.174l-0.039-0.181l0.021-0.55l0.052-0.578l0.021-0.278l-0.021-0.146
			l-0.029-0.183L36.863,0.66l-0.162,0.064l-0.188,0.007l-0.014-0.025L36.466,0.71l-0.078,0.024l-0.094,0.059l-0.066,0.03
			L36.126,0.87l-0.142,0.066l-0.152,0.042l-0.131,0.011L35.62,1.016l-0.054,0.058l-0.071,0.074L35.466,1.23l-0.004,0.081
			l-0.006,0.098l-0.02,0.066l-0.032,0.042l-0.075,0.05L35.281,1.6l-0.022,0.042l-0.006,0.041l-0.028,0.083l-0.018,0.066
			l-0.028,0.017l-0.065,0.033l-0.075-0.016l-0.045-0.057l-0.021-0.033l-0.023-0.008l-0.033-0.015H34.89l-0.02,0.008l-0.037,0.025
			l-0.059,0.099l-0.061,0.066l-0.058,0.042l-0.062,0.009l-0.06-0.007l-0.102-0.03l-0.098-0.038l-0.03-0.031l-0.007-0.072
			l-0.004-0.088l0.024-0.161l-0.031-0.16l-0.133-0.122l-0.105-0.055l-0.141-0.022l-0.125,0.019L33.646,1.32l-0.076,0.1l-0.032,0.116
			l-0.011,0.116l0.029,0.049l0.058,0.032l0.081-0.001l0.069-0.001l0.028,0.031l0.057,0.125l0.047,0.199l0.028,0.112L33.92,2.222
			l-0.021,0.017l-0.048,0.034l-0.062,0.018l-0.112,0.001l-0.118-0.021l-0.15-0.036l-0.112-0.052l-0.07,0.01l-0.088,0.011
			L33.065,2.23l-0.066,0.042l-0.052,0.049L32.94,2.369l-0.029,0.146l0.003,0.243l0.02,0.048l0.055,0.056l0.102,0.03l0.14,0.005
			l0.11,0.022l0.066,0.024l0.07,0.073l0.009,0.083l-0.038,0.082l-0.021,0.025l-0.028,0.026l-0.046,0.017l-0.071,0.009l-0.061-0.007
			l-0.062,0.001l-0.046,0.017l-0.037,0.026l-0.039,0.042l-0.034,0.076l-0.019,0.093l-0.009,0.101l0.021,0.042l0.052,0.016
			l0.123-0.001l0.127-0.035l0.145-0.044h0.098l0.087,0.017l0.015,0.034l0.007,0.025l-0.026,0.11l-0.064,0.035L33.476,3.84
			l-0.063,0.035L33.26,3.91l-0.046,0.017L33.166,3.97l-0.012,0.026l-0.005,0.068l0.042,0.137l0.028,0.103l0.014,0.06l-0.024,0.104
			L33.147,4.59l-0.094,0.078l-0.099,0.035L32.838,4.73h-0.071l-0.061-0.025l-0.023-0.043l0.002-0.043l0.001-0.138l-0.023-0.034
			L32.62,4.422L32.548,4.44l-0.103,0.062l-0.033-0.009l-0.054-0.017l-0.03-0.06l0.071-0.662V3.662l-0.03-0.042l-0.077-0.015
			l-0.239,0.013l-0.422,0.017l-0.096-0.006l-0.068-0.015l-0.039-0.049l-0.053-0.064l-0.054,0.001l-0.045,0.009l-0.081,0.092
			l-0.05,0.05l-0.142,0.168l-0.017,0.067l-0.008,0.075L31,4.029l0.093,0.049l0.16,0.064l0.125,0.099L31.43,4.35l0.026,0.119
			l0.015,0.153l0.008,0.146l0.019,0.138l0.04,0.069l0.041,0.069l-0.006,0.079l-0.039,0.079L31.452,5.22h-0.044l-0.043-0.035
			l-0.053-0.034l-0.061-0.026l-0.071-0.008l-0.036,0.018l-0.021,0.062l-0.06,0.271l-0.049,0.097l-0.047,0.054l-0.046,0.018
			l-0.068-0.028h-0.022h-0.018l-0.053,0.04l-0.02,0.057l-0.039,0.113l-0.077,0.074l-0.074,0.045l-0.086,0.001l-0.067-0.011
			l-0.05-0.045l-0.062-0.016l-0.045,0.006l-0.023,0.022l-0.036,0.046l-0.042,0.063l-0.049,0.103l-0.029,0.029l-0.058,0.012
			l-0.063-0.005L29.88,6.132l-0.017-0.045L29.834,5.98l-0.013-0.113L29.802,5.8l-0.033-0.028l-0.04,0.006L29.706,5.79l-0.024,0.04
			l-0.044,0.09l-0.033,0.131l-0.023,0.045l-0.017,0.103l0.017,0.057l-0.003,0.046l-0.03,0.092l-0.069,0.041l-0.247,0.077
			L28.927,6.56l-0.195,0.025L28.625,6.58l-0.073-0.045l-0.038-0.051l-0.016-0.046l-0.02-0.108l0.016-0.097l0.038-0.097l0.003-0.062
			l-0.027-0.017l-0.052,0.029L28.42,6.108L28.34,6.12l-0.056-0.039l-0.055-0.044l-0.084-0.004l-0.133,0.035l-0.164,0.091
			l-0.065,0.058l-0.049,0.074l-0.038,0.074l-0.032,0.097l-0.023,0.071l-0.035,0.012l-0.04,0.012l-0.177,0.007l-0.081,0.029
			l-0.059,0.023l-0.036,0.046l-0.002,0.057l0.042,0.104l0.056,0.058l0.073,0.052l0.01,0.041l-0.001,0.023l-0.019,0.064L27.324,7.12
			l-0.1,0.131l-0.053,0.024l-0.062,0.006h-0.062l-0.092-0.023l-0.074-0.012l-0.063,0.006L26.749,7.3L26.58,7.456l-0.104,0.09
			l-0.094,0.049l-0.068,0.006l-0.052-0.012l-0.028-0.036l-0.058-0.018l-0.068-0.042l-0.005-0.042l0.034-0.22l0.114-0.323
			l0.153-0.254l0.076-0.138l0.039-0.091l0.01-0.068l-0.023-0.062l-0.05-0.022l-0.09-0.005l-0.119,0.006l-0.119,0.012l-0.145,0.029
			l-0.067,0.012l-0.053,0.028l-0.026,0.051L25.82,6.463l0.044,0.034l0.098,0.067l0.043,0.045l0.021,0.029l-0.003,0.057l-0.047,0.121
			l-0.073,0.279l-0.034,0.159l-0.021,0.137l-0.009,0.125l0.031,0.206l0.027,0.146l0.003,0.095l-0.023,0.031l-0.034,0.031
			l-0.068,0.031l-0.104,0.012l-0.196,0.013L25.259,8.05l-0.057-0.044l-0.029-0.049l0.001-0.074l0.088-0.352l0.095-0.25l0.01-0.106
			l-0.015-0.082l-0.043-0.047l-0.056-0.023h-0.046l-0.052,0.006l-0.047,0.029L25.06,7.104l-0.024,0.047l-0.026,0.094l-0.035,0.124
			l-0.005,0.155L24.956,7.59l-0.049,0.084l-0.06,0.055L24.79,7.753l-0.063,0.006l-0.033-0.024l-0.021-0.073l0.004-0.108l-0.013-0.12
			l-0.048-0.083l-0.04-0.006l-0.091,0.006L24.43,7.393l-0.018,0.029l-0.021,0.066l0.004,0.072l0.021,0.036l0.016,0.042l0.017,0.048
			l-0.008,0.042l-0.054,0.079l-0.054,0.074l-0.153,0.128L24.052,8.09l-0.15,0.042l-0.19,0.03l-0.186,0.036L23.404,8.24l-0.082,0.069
			L23.27,8.385l-0.036,0.096L23.22,8.617L23.211,8.72l-0.006,0.079l-0.017,0.046l-0.029,0.013l-0.081,0.005l-0.081,0.006
			l-0.035,0.033l-0.046,0.047l-0.058,0.046h-0.035l-0.053-0.041l-0.122-0.095L22.62,8.825l-0.029-0.034l-0.047-0.014L22.492,8.79
			l-0.029,0.026l-0.035,0.066l-0.052,0.134l-0.011,0.102l0.001,0.089l0.013,0.063l0.042,0.056l0.07,0.043l0.182,0.016l0.164,0.008
			l0.177,0.022l0.076,0.021L23.133,9.5l0.021,0.057l0.021,0.079l-0.005,0.043l-0.026,0.058l-0.027,0.037l-0.079,0.059l-0.075,0.029
			L22.9,9.877l-0.057,0.037l-0.052,0.045l-0.016,0.128l0.021,0.312l0.013,0.159l0.006,0.065v0.066l-0.012,0.059l-0.026,0.042
			l-0.08,0.027l-0.095,0.001l-0.145-0.007l-0.122-0.033l-0.064,0.001l-0.063,0.018l-0.016,0.026l-0.011,0.078l-0.003,0.15
			l0.037,0.173l0.057,0.132l-0.006,0.029l0.01,0.035l-0.021,0.053l-0.032,0.037l-0.058,0.064l-0.073,0.027l-0.076,0.016l-0.088,0.01
			l-0.07-0.006l-0.129-0.017l-0.163-0.021l-0.311-0.064l-0.057-0.016l-0.009-0.012l-0.017-0.028l0.012-0.039l0.063-0.057
			l0.054-0.029l0.021-0.021l0.001-0.014l-0.027-0.004l-0.06-0.003l-0.14-0.006l-0.24-0.013l-0.142-0.006l-0.074-0.006l-0.036-0.064
			l-0.021-0.086l-0.02-0.17l-0.035-0.082l-0.057-0.036l-0.072-0.008l-0.069,0.028l-0.107,0.066L20.111,11l-0.062,0.03l-0.071,0.002
			l-0.046-0.057l-0.028-0.066l-0.022-0.177l-0.045-0.181l-0.037-0.062l-0.077-0.009h-0.089l-0.058,0.007l-0.059,0.026l-0.052,0.027
			l-0.039,0.055l-0.033,0.074l-0.004,0.037l-0.003,0.066l0.017,0.086l0.057,0.067l0.038,0.101l-0.119-0.012l-0.07,0.062
			l-0.052,0.161l-0.064,0.112l-0.056-0.005l-0.12-0.013l-0.094-0.011l-0.08-0.007l-0.085-0.036l-0.094-0.068l-0.047-0.08
			l-0.018-0.102l-0.003-0.162l0.001-0.071l-0.041-0.06l-0.062-0.016l-0.129,0.021l-0.083,0.016l-0.073,0.064l-0.036,0.105
			l-0.011,0.147l0.027,0.137l0.052,0.035l-0.008,0.011l-0.019-0.004l-0.021-0.008l-0.038-0.003l-0.067-0.009l-0.062-0.011
			l-0.036-0.001l-0.052,0.004l-0.041-0.004l-0.037-0.008l-0.035-0.013l-0.032-0.007l-0.039,0.001l-0.025,0.013l0.006,0.021
			l0.032,0.016l0.088,0.019l0.069,0.019L17.98,11.3l0.014,0.016l-0.023,0.036l-0.061,0.03l-0.069,0.005l-0.086-0.008l-0.121-0.016
			l-0.09-0.032l-0.062-0.035l-0.059-0.041l-0.045-0.022l-0.047-0.004l-0.055,0.017L17.2,11.279l-0.066,0.032l-0.209,0.064
			L16.748,11.406"/>
	</g>
</g>
<g id="Layer_1">
</g>
</svg>
