<?xml version="1.0" encoding="utf-8"?>
<!-- Generator: Adobe Illustrator 16.0.4, SVG Export Plug-In . SVG Version: 6.00 Build 0)  -->
<!DOCTYPE svg PUBLIC "-//W3C//DTD SVG 1.1//EN" "http://www.w3.org/Graphics/SVG/1.1/DTD/svg11.dtd">
<svg version="1.1" id="Layer_1" xmlns="http://www.w3.org/2000/svg" xmlns:xlink="http://www.w3.org/1999/xlink" x="0px" y="0px"
	 width="301.092px" height="241.556px" viewBox="-133.08 -106.679 301.092 241.556"
	 style="enable-background:new -133.08 -106.679 301.092 241.556;" xml:space="preserve">
<g id="Layer_102">
	<path id="Pakpattan" style="fill:#CCCCCC;stroke:#FFFFFF;stroke-width:1.15;" d="M156.39,17.883L156.39,17.883l-0.302-1.561
		l0.009-2.21l-0.034-0.398l0.017-1.866l-0.251-2.192l0.101-0.67l0.209-1.972l0.318-1.268l0.477-1.896l0.135-1.414l0.15-1.252
		l-0.017-1.875l-0.126-3.017l-0.041-2.323l-0.117-1.808l-0.235-2.796l-0.074-1.54l0.074-0.687l0.201-0.557l0.443-0.447l0.436-0.256
		l0.502-0.226l0.52-0.143h0.352l0.67,0.172l0.819,0.176l0.419,0.038l0.652-0.172l0.502-0.234l0.235-0.289l0.033-0.394l-0.167-0.857
		l-0.185-0.498l-0.084-1.097l-0.184-1.013l-0.201-0.892L161.461-20l-0.259-0.317l-0.711-0.385l-1.424-0.704l-0.987-0.694
		l-0.921-0.753l-0.192-0.439v-0.427l0.15-0.302l0.184-0.246l0.604-0.628l0.695-0.854l0.184-0.711v-0.414l-0.184-0.281l-0.444-0.18
		l-0.744-0.13l-0.896-0.087l-0.61-0.009L155-27.449l-0.879,0.214l-0.903,0.017l-0.646-0.163l-0.61-0.28l-0.485-0.26l-0.746-0.229
		l-0.886-0.034l-0.93,0.214l-0.385,0.247l-0.302,0.251l-0.176,0.452v0.31l-0.009,0.506l0.143,0.532l-0.008,0.368l-0.092,0.427
		l-0.335,0.326l-0.494,0.301l-0.753,0.197l-0.721,0.171l-1.07,0.206l-1.097,0.121l-0.62,0.092l-0.778-0.134l-0.526-0.209
		l-0.494-0.306l-0.419-0.481l-0.159-0.548l0.101-0.432l0.093-0.359l0.519-0.573l0.754-0.858l1.288-1.122l1.021-0.975l1.222-1.185
		l0.862-1.301l0.335-0.754l0.092-0.832l-0.06-1.185l-0.258-1.113l0.059-1.08l0.233-0.653l0.302-0.368l0.326-0.297l0.502-0.2
		l0.553-0.093l0.703,0.101l0.645,0.13l0.837,0.26l0.753,0.138l0.536,0.23l0.427,0.025l0.494-0.042l0.46-0.223l0.311-0.422
		l0.334-0.327l0.385-0.196l0.394-0.146l0.494-0.092l0.443-0.188l0.359-0.227l0.311-0.376l0.108-0.377l0.017-0.573l0.176-0.498
		l0.52-0.297l0.552-0.397l0.771-0.344l0.468-0.297l0.185-0.394l-0.075-0.326l-0.209-0.251l-0.167-0.075l-0.528-0.033l-0.645-0.08
		l-0.427-0.15l-0.409-0.302l-0.277-0.401l-0.242-0.507l-0.067-0.749l0.151-0.698l0.436-0.996l0.452-0.695l0.451-0.72l0.31-0.443
		l0.645-0.515l0.795-0.557l0.879-0.725l0.494-0.64l0.025-0.448l-0.101-0.469l-0.242-0.284l-0.394-0.146l-0.67-0.205l-1.322-0.134
		l-1.591-0.139l-0.745-0.112l-0.887-0.377l-0.461-0.419l-0.442-0.72l-0.076-0.522l0.101-0.619l0.318-0.649l0.359-0.259l0.611-0.318
		l0.754-0.239l0.795-0.238l0.511-0.293l0.108-0.293l-0.101-0.18l-0.443-0.23l-0.662-0.154l-0.861-0.075l-0.896-0.08l-1.188,0.113
		l-1.581,0.18l-1.155-0.033l-1.264-0.033l-1.791-0.009l-0.671-0.062l-0.877-0.155l-0.587-0.376l-0.678-0.565l-0.352-0.615
		l-0.168-0.54l-0.05-0.645l0.15-0.264l0.218-0.389l0.352-0.339l0.227-0.611l0.016-0.481l-0.158-0.297l-0.443-0.18l-0.812-0.104
		l-3.247-0.54l-2.569-0.36l-1.767-0.28l-0.771-0.185l-0.242-0.15l-0.15-0.192l-0.093-0.41l-0.143-0.368l-0.167-0.318l-0.511-0.196
		l-0.61-0.051l-0.745,0.017l-0.628,0.147l-0.184,0.213l-0.151,0.197l0.051,0.359l-0.033,0.343l-0.168,0.36l-0.227,0.163
		l-0.477,0.172l-0.552,0.067l-1.021,0.045l-1.925,0.101l-2.679,0.147l-1.079,0.112l-0.62-0.054l-0.184-0.126l-0.31-0.343
		l-0.31-0.277l-0.436-0.154h-0.385l-1.223,0.113l-0.535,0.017l-0.528-0.075l-0.418-0.104l-0.427-0.302l-0.527-0.59l-0.352-0.582
		l-0.335-0.368l-0.569-0.515l-0.401-0.104l-0.561,0.017l-0.661,0.146l-0.52,0.017l-0.594,0.017l-0.192-0.196l-0.302-0.343v-0.34
		l0.092-0.48l0.242-0.49l0.126-0.452l0.017-0.535l-0.184-0.331l-0.276-0.317l-0.385-0.293l-0.694-0.272l-0.796-0.055l-0.661,0.021
		l-0.887,0.017l-0.327-0.104l-0.267-0.197l-0.377-0.427l-0.269-0.561l-0.117-0.452l-0.359-0.293l-0.62-0.289l-0.628-0.334
		l-0.526-0.223l-0.411-0.326l-0.184-0.385l-0.159-0.36l0.084-0.242l0.259-0.498l0.151-0.452l0.31-0.473l0.134-0.352l-0.05-0.335
		l-0.201-0.172l-0.544-0.101l-0.636-0.13h-0.485l-0.369,0.097l-0.268,0.163l-0.259,0.23l-0.269,0.427l-0.184,0.565l-0.252,0.334
		l-0.284,0.206l-0.435,0.204l-0.595,0.029l-0.469-0.146l-0.603-0.317l-0.46-0.318l-0.093-0.401l-0.1-0.736l0.1-0.637l0.185-0.711
		l0.242-1.056l0.31-1.146l0.368-1.088l0.185-0.874l0.352-0.599l0.218-0.695l0.168-1.284l0.175-0.523l0.201-0.515l0.051-0.276
		l-0.084-0.72l-0.018-0.427l0.276-0.599l0.318-0.242l0.527-0.352l0.568-0.368l0.688-0.386l0.786-0.401l0.544-0.557l0.16-0.439
		v-0.385l-0.16-0.481l-0.117-0.272l-0.217-0.352l-0.452-0.522l-0.353-0.498l-0.065-0.443l0.033-0.423l0.134-0.368l0.251-0.436
		l0.108-0.268l0.084-0.289l-0.184-0.335l-0.344-0.259l-0.837-0.377l-0.828-0.344l-0.721-0.154l-0.511-0.155l-0.325-0.222
		l-0.009-0.138l0.167-0.297l0.21-0.294l0.535-0.376l0.561-0.256l0.678-0.351l0.294-0.269l0.032-0.205l-0.175-0.138l-0.284-0.084
		l-0.461-0.009l-0.359,0.051l-0.554,0.172l-0.519,0.238l-0.301,0.243l-0.227,0.263l-0.31,0.222l-0.427,0.252l-0.669,0.075
		l-0.461,0.154l-0.368,0.097l-0.31,0.15l-0.269,0.26l-0.619,0.469l-0.418,0.439l-0.443,0.255l-0.678,0.293l-0.838,0.344
		l-0.595,0.301l-0.485,0.28l-0.275,0.251l-0.093,0.205l-0.025,0.172l0.235,0.28l0.334,0.218l0.637,0.134l0.879,0.234l0.753,0.222
		l0.527,0.289l0.193,0.343l0.325,0.637l0.186,0.564l-0.026,0.481l-0.125,0.272l-0.511,0.284l-0.527,0.18h-0.234l-0.401-0.096
		l-0.578-0.272l-0.527-0.318l-0.535-0.238l-0.285-0.055l-0.293,0.063l-0.485,0.172l-0.184,0.196l-0.176,0.214l-0.059,0.292
		l0.066,0.394l0.017,0.238l-0.05,0.269l-0.176,0.171l-0.326,0.155l-0.318,0.033h-0.293l-0.46-0.096l-0.536-0.28l-0.41-0.36
		l-0.033-0.18l0.05-0.226l0.419-0.503l0.368-0.456l0.15-0.214l-0.033-0.268l-0.227-0.238l-0.175-0.066h-0.226l-0.411,0.075
		l-0.335,0.146l-0.845,0.469l-0.695,0.516l-0.519,0.522l-0.544,0.557l-0.485,0.381l-0.368,0.369l-0.318,0.46l-0.344,0.636
		l-0.143,0.494v0.389l0.043,0.205l0.26,0.093l0.526,0.008l0.736-0.143h0.628l0.536,0.143l0.176,0.276l0.093,0.343l-0.093,0.223
		l-0.108,0.317l-0.277,0.452l-0.4,0.343l-0.587,0.344l-0.66,0.222l-0.863,0.201l-1.197,0.28L83.613-85.8l-0.786,0.251l-0.409,0.23
		l-0.244,0.302l-0.133,0.401l0.033,0.255l0.184,0.336l0.134,0.284l0.033,0.255l-0.108,0.326l-0.075,0.181l-0.192,0.368l-0.335,0.368
		l-0.31,0.401l-0.168,0.448l-0.083,0.394l0.083,0.456l0.192,0.33l0.42,0.335l0.511,0.343l0.292,0.269l0.218,0.427l0.017,0.401
		l-0.059,0.377l-0.176,0.456l-0.352,0.31l-0.469,0.214l-0.728,0.138l-0.62,0.059l-0.535,0.163l-0.645,0.377l-0.36,0.36l-0.209,0.464
		l-0.176,0.532l-0.083,0.288l-0.043,0.218l0.059,0.385l0.285,0.531l0.101,0.248l0.017,0.238l-0.084,0.317L78.633-72.6l-0.284,0.171
		l-0.519,0.243l-0.754,0.229l-0.527,0.067l-0.477,0.062h-0.411l-0.493-0.13l-0.611-0.104l-0.427-0.171l-0.385-0.076l-0.553-0.024
		l-0.394,0.066l-0.427,0.214l-0.184,0.121l-0.084,0.264l0.042,0.344l0.251,0.514l0.176,0.247l0.26,0.276l0.041,0.146l0.117,0.222
		l-0.041,0.41l-0.176,0.687l-0.159,0.515l-0.024,0.239l0.184,0.397l0.334,0.297l0.461,0.489l0.427,0.327l0.201,0.343l0.108,0.317
		l-0.033,0.402l-0.184,0.289l-0.244,0.176l-0.568,0.238l-0.385,0.121h-0.301L72.13-64.8l-0.695-0.301l-0.963-0.615l-0.929-0.181
		h-0.535l-0.502,0.139l-0.721,0.256l-0.468,0.104l-0.411-0.08l-0.343-0.13l-0.108-0.196l0.108-0.344l0.176-0.313l0.344-0.344
		l0.184-0.389l-0.025-0.348l-0.209-0.301l-0.284-0.172l-0.402-0.079l-0.368,0.104l-0.46,0.368l-0.402,0.23l-0.678,0.242
		l-0.569,0.172l-0.678-0.009l-0.435-0.104l-0.52-0.344l-0.385-0.694l-0.419-1.001l-0.301-0.226l-0.511-0.155l-0.427-0.024
		l-0.385,0.017l-0.368,0.242L58.99-69.06l-0.545,0.264l-0.895,0.218l-0.479,0.092l-0.477,0.017l-0.61,0.071l-0.461,0.238
		l-0.275,0.302l-0.093,0.18l0.042,0.188l0.242,0.494l0.269,0.397l0.285,0.59l0.108,0.419l-0.05,0.397L55.716-64.8l-0.502,0.36
		l-0.527,0.289l-0.603,0.226l-0.652,0.093l-0.703,0.041l-0.359,0.155l-0.235,0.213l-0.209,0.352l-0.134,0.269l-0.059,0.581
		l-0.084,0.67l-0.176,0.264l-0.478,0.397l-0.293,0.172h-0.526l-0.553-0.285l-0.762-0.443L48.351-62l-0.15-0.222l-0.018-0.213
		l0.009-0.368l0.269-0.737l0.418-0.815l0.636-1.227l0.402-1.009l0.117-0.757l-0.084-0.616l-0.293-0.522l-0.427-0.326l-0.485-0.151
		l-0.896-0.209l-0.988-0.222l-0.687-0.352l-1.003-0.489l-1.34-0.695l-0.904-0.535l-0.619-0.653l-0.477-0.791l-0.059-1.025
		l0.184-0.636l0.167-0.573l0.025-0.41l0.017-0.18l-0.46,0.188l-0.427,0.154l-0.679,0.28l-1.414,1.159l-0.996,0.967l-0.493,0.54
		l-0.285,0.41l-0.185,0.31l-0.108,0.36l0.009,0.301l0.066,0.461l0.185,0.473l0.409,0.539l0.395,0.858l0.017,0.443l-0.025,0.397
		l-0.176,0.289l-0.242,0.146l-0.318,0.017l-0.611-0.146l-1.146-0.573l-1.113-0.564l-0.586-0.448l-0.176-0.368l0.018-0.289
		l0.008-0.301l0.218-0.318l0.335-0.394l0.703-0.606l0.184-0.39l0.042-0.271l-0.243-0.465l-0.326-0.352l-0.645-0.352l-0.896-0.313
		l-0.887-0.185l-0.896-0.192l-0.343-0.021h-0.352l-0.359,0.121l-0.452,0.188l-0.536,0.188l-0.469,0.066h-1.005l-0.669-0.101
		l-0.888-0.229l-0.602-0.146l-0.411-0.051l-0.636,0.025l-0.887,0.172l-0.527,0.163l-0.511,0.238l-0.268,0.067h-0.227l-0.526-0.051
		l-0.411-0.154l-0.359-0.188l-0.31-0.247l-0.318-0.637l-0.31-0.686l-0.494-0.532l-0.452-0.288l-0.619-0.188L17.6-76.337
		l-0.461,0.033l-0.828,0.192l-0.394,0.264l-0.251,0.318L15.6-75.316l-0.042,0.264l0.15,0.397l0.226,0.197l0.394,0.313l0.502,0.344
		l0.327,0.464l0.469,0.448l0.301,0.581l0.185,0.469l0.042,0.398l-0.067,0.313l-0.343,0.423l-0.276,0.213l-0.36,0.104h-0.343
		l-0.318-0.184l-0.159-0.322l-0.251-0.833l-0.275-0.318l-0.302-0.1h-0.293l-0.586,0.142h-0.444l-0.543-0.142l-0.527-0.227
		l-0.67-0.485l-0.41-0.276l-0.31-0.146h-0.26l-0.31-0.041l-0.385,0.104l-0.36,0.172l-0.209,0.214l-0.159,0.247l-0.134,0.268
		l-0.009,0.271l0.067,0.54l0.192,0.465l0.192,0.418l0.352,0.516l0.419,0.447l0.275,0.368l0.109,0.18l0.075,0.289l-0.008,0.172
		l-0.235,0.352l-0.594,0.293l-0.502,0.247l-0.377,0.079l-0.535-0.029l-0.52-0.15l-0.31-0.293l-0.443-0.67l-0.344-0.54l-0.301-0.489
		l-0.335-0.168l-0.285-0.129l-0.385,0.024l-0.493,0.13l-0.829,0.436l-0.87,0.418l-0.41,0.193l-0.41,0.074L2.96-68.964l-0.301-0.129
		l-0.377-0.222L2.09-69.616l-0.276-0.465l-0.175-0.271l-0.285-0.188l-0.226-0.18h-0.31l-0.695,0.18l-0.67,0.271l-0.602,0.368
		l-0.536,0.498l-0.042,0.172l-0.092,0.197l0.075,0.222l0.159,0.251l0.804,0.066l0.694,0.097l0.427,0.146l0.368,0.247l0.226,0.289
		l0.168,0.301l0.025,0.394l0.05,0.645l-0.15,0.891l-0.059,0.523L0.927-64.52l0.025,0.646l0.158,0.669l0.269,0.419l0.527,0.352
		l0.67,0.171l1.255-0.129l1.021-0.327l0.527-0.322l0.77-0.564l0.26-0.104l0.317-0.025l0.227,0.146l0.368,0.322l0.192,0.226
		l0.042,0.272l-0.167,0.394l-0.168,0.749l-0.284,0.82l-0.385,0.522l-0.436,0.498l-0.527,0.352l-0.436,0.105l-0.477,0.1H3.806
		l-0.896-0.05l-0.729,0.05l-1.196,0.222l-1.197,0.302l-1.013,0.155l-0.477,0.05l-0.218,0.024l-0.243,0.08l-0.251,0.101l-0.352,0.352
		l-0.427,0.548l-0.527,0.875l-0.243,0.213l-0.385,0.276l-0.762,0.256l-0.435,0.196l-1.691,0.285l-1.121,0.77l-4.369-0.229
		l-0.904-0.034l-1.121-0.13l-1.214-0.196l-1.322-0.481l-1.046-0.188l-1.071,0.154l-0.846,0.327l-0.87,0.443l-0.787,0.603
		l-0.051,0.557l0.452,0.368l0.628,0.172l0.846-0.238l1.799-0.13l1.616,0.075l0.292,0.301l-0.041,0.498l-0.293,0.616l-0.352,0.268
		l-0.879,0.531l-0.854,0.313l-0.653,0.047l-0.628-0.105l-0.703-0.246l-0.929-0.252l-0.896-0.18l-1.046-0.05l-0.628-0.025
		l-1.331,0.436l-0.912,0.317l-2.318,0.678l-1.725,0.353l-1.062,0.092l-0.963-0.176l-0.795-0.185l-0.544-0.024l-0.804,0.464
		l-0.494,0.197l-0.268,0.276l-0.025,0.351l0.276,0.511l0.527,0.377l0.544,0.163l1.942,0.088l2.494,0.247l0.61,0.39l0.302,0.297
		l0.125,0.506l-0.116,0.352l-0.444,0.481l-0.887,0.033l-0.569,0.188l-0.461,0.478l-0.033,0.363l0.276,0.649l0.443,0.523l0.46,0.376
		l-0.041,0.489l-0.176,0.558l-0.276,0.409l-0.595,0.406l-0.979,0.532l-0.562-0.03l-0.636-0.1l-0.302-0.23l-0.602-1.306l-0.545-1.234
		l-0.527-0.52l-0.636-0.176l-0.804-0.033l-0.619-0.377l-0.143-0.359l0.117-0.352l0.176-0.344l0.093-0.778l-0.486-0.376l-0.401-0.155
		l-0.645-0.025l-0.837,0.326l-0.469,0.763l-0.293,0.623l-0.427,1.331l-0.461,1.326l-0.041,0.352l0.075,0.146l0.828,0.251
		l0.787,0.314l0.636,0.104l0.527,0.171l0.176,0.36l0.042,0.507l-0.636,0.648l-0.703,0.687l-0.703,0.824l-0.527,0.695l-0.075,0.64
		l0.184,0.573l0.176,0.938l-0.092,0.992l-0.05,0.645l-0.377,0.77l-0.443,0.481l-0.687,0.54l-0.745,0.18l-0.636-0.025l-0.778-0.464
		l-0.645-0.025l-0.344,0.271l-0.603,0.545l-0.05,0.778l-0.059,0.645l0.134,0.573l-0.042,0.498l-0.176,0.64l-0.603,0.394
		l-0.485,0.055l-0.536-0.377l-0.352-0.728l-0.275-0.653l-0.394-0.234l-0.93-0.033l-0.82-0.181l-0.603-0.238l-0.535-0.728
		l-0.176-0.72l-0.436-2.014l-0.176-0.866l-0.594-0.67l-1.13-0.112l-0.938,0.037l-0.586,0.322l-0.344,0.276l-0.134,0.632l0.276,0.439
		l1.18,1.825l0.787,1.31l0.109,0.866l-0.185,0.783l-0.26,0.271l-0.527,0.188l-0.493-0.018l-1.122-0.108l-1.883-0.791l-1.172-0.832
		l-1.23-1.043l-0.896-0.815l-0.87-0.531l-0.72-0.017l-0.41,0.05l-0.26,0.196l-0.042,0.645l0.243,1.147l0.017,0.929l0.134,0.359
		l0.61,0.52l0.687,0.527l0.377,0.368l0.134,0.435l0.059,0.428l-0.359,0.561l-0.52,0.33l-0.728-0.024l-1.047-0.335l-0.703-0.239
		l-0.804-0.101l-0.511-0.021l-0.686-0.377l-0.536-0.376l-0.284-0.573l-0.185-0.515l-0.276-0.653l-0.184-0.786l-0.143-0.223
		l-0.05-0.431l0.176-0.272l0.343-0.276l0.536-0.188l0.167-0.139l-0.108-0.72l-0.302-0.297l-0.72-0.097l-0.729-0.024l-1.515-0.268
		l-1.029-0.322l-0.921-0.604l-0.736-1.017l-0.628-1.234l-0.795-1.381l-0.604-1.382l-0.343-0.819l-0.234-0.712l-0.736-0.791
		l-0.921-0.615l-0.812-0.188l-0.72-0.259l-0.419-0.443l-0.033-0.419l0.176-0.507l0.301-0.531l0.059-0.456l-0.033-0.247l-0.184-0.121
		h-0.494l-0.862,0.255l-0.619,0.527l-0.67,0.721l-0.494,0.803l-0.1,1.105l-0.042,0.77l0.184,0.431l0.327,0.264l1.247,0.122
		l1.69,0.112l0.771,0.222l0.293,0.481l0.033,0.419l-0.436,0.326l-0.812,0.155l-0.862,0.008l-0.436,0.084l-0.485,0.456l-0.845,0.812
		l-0.888,0.568l-0.87,0.192l-0.52,0.251l-0.477,0.318l-0.335,0.54l-0.059,0.377l0.109,0.599l0.343,0.401l0.293,0.758l0.075,0.556
		l-0.218,0.515l-0.527,0.272h-1.122l-0.878-0.084l-0.436-0.317l-0.31-0.436l0.101-1.536l0.251-1.481l0.293-1.209l0.218-0.753
		l0.209-0.507l0.101-0.448l-0.042-0.305l-0.418-0.139l-1.047,0.101l-1.238,0.301l-1.147,0.499l-0.519,0.317l-0.318,0.394
		l-0.042,0.318l0.143,0.213l0.536,0.247l0.711,0.046l0.276,0.185l0.084,0.431l-0.201,0.687l-0.368,0.841l-0.302,0.582l-0.334,0.18
		l-0.436-0.071l-0.536-0.531l-0.535-0.352L-92.8-34.53l-0.535,0.21l-1.322,0.443l-1.307,0.344l-0.786,0.334l-0.527,0.386
		l-0.544,0.376l-0.569,0.034l-0.527-0.205l-0.326-0.721l-0.251-0.393l-0.326-0.13l-0.963,0.18l-0.904,0.13l-0.493-0.033
		l-0.227,0.117l-0.184,0.473l-0.227,0.652l-0.025,0.557l0.52,0.729l0.436,0.933l0.125,0.679l-0.066,0.581l-0.294,0.481l-0.519,0.353
		l-0.686,0.171l-1.223-0.017l-1.055-0.122l-0.519-0.644l-0.042-0.699l-0.159-0.678l-0.317-0.227l-0.695-0.05l-0.569,0.251
		l-0.393,0.359l-0.193,0.829l-0.042,1.151l0.227,0.468l0.778,0.474l1.54,0.343l2.159,0.41l1.272,0.293l0.762,0.297l0.368,0.628
		l0.143,0.678l-0.218,0.72l-0.653,0.549l-0.87,0.293l-0.87,0.084l-0.729-0.18l-0.243-0.54l-0.184-0.653l-0.485-0.196l-0.67,0.062
		l-0.519,0.393l-0.511,0.704l-0.578,0.213l-0.552-0.079l-0.527-0.443l-0.31-0.796l-0.402-0.766l-0.359-0.548l-0.611-0.452
		l-0.628-0.218l-0.619-0.066l-0.527,0.238l-0.427,0.431l-0.561,0.452l-0.753,0.284l-0.955-0.196l-0.945-0.489l-0.41-1.285
		l-0.519-0.866l-0.737-0.507l-0.896-0.084l-0.652,0.172l-0.394,0.323l-0.527,0.907l-0.344,0.611l-0.543,0.54l-0.913,0.292
		l-0.603-0.104l-0.603-0.386l-0.519-0.603l-0.595-0.477l-0.938-0.197l-0.711,0.025l-1.139,0.427l-0.394,0.352l-0.108,0.352
		l0.134,0.637l0.268,0.435l0.569,0.799l0.527,0.666l0.535,0.523l0.26,0.645l0.159,0.778l-0.051,1.423l-0.125,0.808l0.318,0.41
		l0.477,0.188l0.754,0.042l0.896-0.204l0.837-0.188l0.385,0.05l0.251,0.368l-0.042,0.774l-0.117,0.795l-0.209,0.85l-0.159,1.628
		l-0.661,2.478l-0.268,3.394l-0.059,3.01l0.234,2.782v2.713l1.456,2.962l0.904,2.051l1.339,0.478l1.331,0.268l1.732-0.059
		l1.247-0.096l2-0.239l0.913-0.129l0.669-0.105l0.569,0.071l0.385,0.36l0.41,0.665l0.778,0.536l0.896,0.238l1.138,0.172l1.841-0.089
		l2.854-0.506l2.009-0.143l1.725-0.071l1.816,0.047l0.887-0.172l1.23,0.155l1.725,0.837l1.423,1.071l1.163,1.138l0.46,0.896
		l0.888,1.246l0.502,0.406l0.62,0.197l0.92,0.138l1.976-0.146l1.917-0.26l2.192-0.101l1.557,0.181l0.787,0.033l1.457-0.222
		l1.69-0.402l2.05-0.702l1.356-0.243h0.436l0.535,0.259l0.469,0.353l0.386,0.531l0.092,0.477l0.083,0.595l-0.116,0.531l-0.159,0.795
		l0.05,0.603l0.251,0.485l0.787,1.105l0.218,0.594l0.05,0.427l-0.185,0.628l-0.176,0.528l-0.268,0.284l-0.293,0.184l-0.376,0.093
		l-0.604,0.041l-0.627,0.151l-0.862,0.385l-0.854,0.485l-0.812,0.535l-0.535,0.26l-0.595,0.143h-0.427l-0.544-0.125l-0.77-0.277
		l-0.562-0.233l-0.561,0.066l-0.712,0.219l-0.451,0.351l-0.804,0.586l-0.461,0.854l-0.526,1.038l-0.787,2.043l-0.519,1.941
		l-0.511,1.188l-0.712,1.606l-0.427,1.256l-0.209,1.606l0.101,0.904l0.15,0.485l0.26,0.502l0.561,0.536l0.628,0.67l0.31,0.535
		l0.318,0.721l0.092,1.004l0.117,2.293l-0.101,2.763l-0.134,1.69l-0.335,2.227l-0.192,1.247l-0.41,1.741l-0.41,0.628l-0.494,0.268
		l-0.82,0.519l-0.938,0.552l-0.703,0.863l-0.535,0.628l-0.427,0.938l-0.185,1.305v2.838l0.185,1.23l0.603,3.214l0.284,3.817
		l-0.017,3.154l-0.059,2.318l-0.176,1.942l-0.05,0.803l-0.335,3.466l-0.218,1.355l-0.234,0.628l-0.485,0.896l-0.694,0.888
		l-0.862,0.888l-0.837,0.686l-0.661,0.594l-0.586,0.93l-0.135,0.711l0.151,1.791l0.284,1.139l0.176,0.896l0.938,2.076l1.088,2.368
		l0.444,1.967l0.066,1.565l-0.376,1.038l-0.528,1.013l-0.702,0.812l-0.712,0.719l-0.896,0.829l-0.268,0.535l-0.377,0.737
		l-0.059,1.037l0.185,2.06l0.292,1.247l0.528,0.511l0.519,0.101l0.67-0.159l0.628-0.368l0.568-0.879l0.092-0.804l0.034-1.088
		l0.217-0.419l0.402-0.285l1.456-0.175l1.406-0.126l0.837-0.301l1.122-0.226l0.861,0.108l0.578,0.418l0.511,0.619l1.121,0.386
		l1.557,0.519l1.615,0.652l0.871,0.528l1.364,0.175l0.678,0.336l0.385,0.409l0.059,0.578l-0.242,0.493l-0.595,0.712l-1.029,0.569
		l-1.113,0.535l-0.762,0.637l-0.268,0.77l-0.209,0.988l-0.159,1.539l-0.168,1.188l-0.184,0.938l-0.243,0.637l-0.259,0.686
		l-0.419,0.737l-0.477,0.971l-0.201,0.854l0.101,0.737l0.226,0.938l0.385,0.77l2.612,6.604l1.958,0.158l1.791,0.117l0.904-0.218
		l1.247-0.568l1.674-0.854l1.507-0.135l1.439,0.218l2.536,0.595l2.795,0.368l0.762-0.05l0.302-0.436l-0.033-0.846l-0.988-0.896
		l-1.507-0.896l-1.079-0.888l-0.636-1.021l-0.444-0.903l0.034-0.628l0.603-0.846l1.271-0.602l2.327-0.896l1.557-0.77l1.038-0.879
		l0.745-0.963l0.376-0.778l0.143-0.469l-0.526-1.188l-0.838-2.561l-1.431-2.712l-1.08-2.41l-0.352-0.805l-0.051-1.758l0.336-1.055
		l0.753-0.97l2.645-1.415l1.314-0.176l1.85,0.301l1.632,0.369l2.604,1.255l2.025,1.439l2.771,1.867l2.745,2.017l4.109,3.182
		l1.558,1.171l1.824,1.884l1.967,0.896l0.577,0.092l0.896-0.201l0.359-0.678l0.075-0.829l-0.218-0.879l-0.209-0.887l-1.432-0.804
		l-1.071-0.469l-1.138-0.175l-1.113-0.368l-1.239-0.771l-0.376-0.703l0.059-0.736l0.561-0.637l1.599-0.493l1.33-0.226l1.968-0.805
		l2.285-0.895l2.887-0.989l2.102-0.87l1.833-1.087l1.557-1.256l1.624-1.122l1.874-1.246l0.771-0.604l2.009-0.418l1.289-0.62
		l0.786-0.595l1.239-1.255l0.786-1.549l0.41-1.899l-0.016-1.867l0.184-0.82l0.527-0.526l0.469-0.134l0.578,0.184l0.736,1.038
		l1.557,3.214l0.661,1.297l0.887,1.281l0.871,1.448l1.967,2.72l0.619,0.536l0.904,0.185l0.687-0.252l0.678-1.205l0.075-1.741
		l0.185-1.615l-0.302-1.054l0.075-1.265l0.185-0.828L1.68,91.89l1.021-0.753l0.753-0.067l1.758,0.754l1.959,0.795l1.64,0.736
		l1.474,0.084l1.029-0.302l0.578-0.737l0.535-1.104l1.247-1.824l0.502-0.771l0.335-1.531l0.93-1.9l0.527-0.854l0.887-0.586h1.071
		l2.075,0.235l1.591,0.184h1.164l0.736-0.436l1.021-1.248l1.39-1.966l1.281-1.565l0.879-0.527l0.895-0.284l1.666-0.854l0.962-0.016
		l0.82,0.149l0.829,0.201l0.536,0.47l0.519,1.121l0.478,0.82l0.669,0.284l1.356,0.151l2.192-0.269l2.612-0.151l1.364,0.219
		l-1.8-0.838L40.6,78.874l-0.184-0.804l0.017-0.619l0.326-0.436l1.122-0.317l1.146-0.067l2.109,0.67l3.23,0.804l2.227,0.519
		l3.113,0.887l1.825,0.277l1.229,0.143l1.256-0.312l1.005-0.058l1.397,0.536l0.594,0.484l0.495,0.461l0.267,0.888l-0.024,0.895
		l0.569,0.721l0.577,0.368l1.23,0.401l0.494,0.603l0.268,0.736l0.176,1.306l0.352,1.666l0.771,1.423l1.188,1.214l0.594,0.185
		l0.603,0.016l0.828-0.317l0.428-0.352l0.209-0.695l-0.176-1.054l-0.185-0.721l0.151-0.61l0.526-0.427l0.411-0.343l-0.093-0.452
		l-0.268-0.553l-1.055-1.883l-1.154-1.699l-0.862-2.051l-0.536-2.495l-0.108-3.063l-0.368-1.171l0.059-1.758l0.184-2.318
		l0.176-1.649l0.327-1.055l0.242-1.055l0.042-1.246l0.2-0.704l0.745-0.686l0.921-0.519l1.54-0.201l0.845,0.016l2.118,0.318
		l1.69,0.502l1.289,0.554l1.531,0.284l0.587,0.033l0.326-0.334l0.192-0.453l-0.084-0.719L78.7,61.775l-0.327-0.528l0.117-0.469
		l0.318-0.535l0.335-0.703l0.436-0.787l0.234-0.887l0.209-0.955l0.217-0.619l0.528-0.687l0.628-0.577l0.602-0.067l1.29,0.386
		l0.895,0.259l1.298,0.779l1.188,0.979l1.782,1.373l1.691,1.214l1.372,0.736l1.615,0.15l0.829-0.083l0.862-0.528l0.317-0.577
		l0.336-0.896l-0.386-0.954l-1.347-1.624l-1.08-1.088l-0.511-0.619l0.041-0.888l0.437-0.535l0.594-0.176l1.615-0.034l1.231,0.034
		l0.535-0.353l0.192-0.242l-0.093-0.603l-0.561-0.971l-0.485-0.82l0.042-1.172l-0.259-1.247l-0.879-1.355l-0.495-0.98l-0.552-0.97
		l0.042-1.055l0.535-1.272l0.888-1.741l0.335-0.954l0.326-0.61l0.729-0.528l0.836-0.318l1.433-0.149l1.104,0.385l1.222,0.736
		l1.071,1.355l0.954,1.34l0.544,1.247l0.812,0.477l0.604-0.167l0.226-1.155l-0.352-1.439l-0.084-0.804l0.327-0.703l0.711-0.176
		l0.912,0.034l1.113,0.385l1.005,0.2l0.418-0.184l0.536-0.527l0.385-1.004l1.23-2.42l1.256-1.481l2.234-2.511l2.554-2.578
		l2.845-2.577l2.311-1.883l1.348-0.662l1.138-0.334l1.13-0.16l1.95,0.419l1.516,0.569l2.493,1.222l1.699,0.763l1.281,0.226
		l0.527-0.243l0.201-0.527l0.058-1.247l0.026-0.812l0.226-1.055l0.335-0.703l0.628-0.77l0.619-0.578l1.028-0.335l1.139-0.158
		l1.122,0.142l1.222,0.469l1.908,1.021l1.089,0.736l1.13,0.301l1.247-0.158l0.828-0.335l0.628-0.436l0.276-0.812l1.272-1.633
		l1.456-0.753l2.452-0.473L156.39,17.883"/>
</g>
<g id="Layer_1_1_">
</g>
</svg>
