<?xml version="1.0" encoding="utf-8"?>
<!-- Generator: Adobe Illustrator 16.0.4, SVG Export Plug-In . SVG Version: 6.00 Build 0)  -->
<!DOCTYPE svg PUBLIC "-//W3C//DTD SVG 1.1//EN" "http://www.w3.org/Graphics/SVG/1.1/DTD/svg11.dtd">
<svg version="1.1" id="Layer_1" xmlns="http://www.w3.org/2000/svg" xmlns:xlink="http://www.w3.org/1999/xlink" x="0px" y="0px"
	 width="301.266px" height="360.491px" viewBox="-135.325 -162.003 301.266 360.491"
	 style="enable-background:new -135.325 -162.003 301.266 360.491;" xml:space="preserve">
<g id="Layer_94">
	<path id="Nasirabad" style="fill:#CCCCCC;stroke:#FFFFFF;stroke-width:1.15;" d="M-104.508,191.828L-104.508,191.828l9.688-2.229
		l11.444-2.596l10.489-2.673l8.945-1.853l8.105-1.834l11.782-3.087l4.661-2.104l4.651-2.123l4.882-3.725l3.068-2.683l1.592-2.683
		l2.962-3.918l2.538-2.913l1.689-1.197l5.374-5.548l6.601-4.497l7.15-5.943l4.256-4.381l1.408-3.551l0.01-2.674l-0.627-6.426
		l0.917-3.542l1.592-2.855l3.136-3.088l5.23-3.136l10.691-5.395l6.773-3.165l11.859-4.322l7.681-2.007l5.838-1.217l6.995-0.27
		l5.414,0.202l4.477,0.367l3.667,0.27l4.901-0.762l7.228-1.563l4.295-0.183l7.874,1.379l7.593,1.806l6.89,1.118l4.729-0.348
		l3.088-1.253l3.696-2.539l2.257-2.634l1.081-6.214l1.264-6.389l0.146-7.314l0.105-4.071l-1.775-9.899l-0.328-8.704l-0.714-10.904
		l-0.357-7.005l0.203-6.929l-0.319-3.377l0.078-3.647l0.415-2.354l1.429-2.471l1.861-1.853l2.866-2.422l3.078-2.046l3.561-1.573
		l4.092-1.486l3.049-0.964l3.193-0.782l3.619-0.782l0.781-0.029l-0.994-3.03l-1.013-2.306l-0.261-2.673l-0.512-5.558l-0.888-5.452
		l0.328-2.181l0.241-4.429l0.02-5.201l-0.106-4.41l-0.771-6.137l-0.617-6.34l-0.405-5.915l-0.569-4.477l-1.67-5.442l-1.862-6.986
		l-1.718-6.802l-2.683-8.347l-0.598-2.239l-0.521-6.407l-0.165-6.494l0.01-5.307l0.203-6.05l0.627-3.792l0.241-3.908l-0.502-2.934
		l-0.685-3.29l-1.023-1.101l-1.312-1.659l-0.888-2.258l-1.274-5.471l-0.724-3.898l-1.862-4.313l-2.065-4.728l-1.389-2.268
		l-1.611-2.383l-0.955,0.917l-5.211,3.87l-6.504,4.844l-5.385,3.879l-6.436,4.497l-8.944,3.927l-7.913,2.924l-6.233,1.245
		l-3.117,0.618l-1.36,1.023l-0.752,1.447l-0.917,1.92l-1.67,2.856l-2.094,1.92l-2.258,1.669l-2.991,1.814l-1.022,1.447l-0.202,0.907
		l1.031,1.718l2.761,1.862l3.888,0.666l3.416,0.657l1.775,0.54l0.454,0.926l-0.039,1.447l-1.042,4.024l-1.312,3.754l-1.689,4.776
		l-1.728,5.182l-1.707,6.388l-1.39,4.149l-1.37,1.93L70-74.058l-5.076,1.775l-4.901,1.457l-4.438,1.341l-7.739,3.087l-6.397,3.185
		l-5.065,2.432l-8.926,4.738l-6.06,3.194l-5.056,2.065l-3.87,0.878l-3.078,1.679l-5.085,1.881l-8.019,1.641l-5.056,0.618
		l-2.76,0.184l-2.769-0.222l-0.068,2.731l1.245,3.088l2.152,3.908l0.868,2.248l0.193,1.795l-0.01,4.323l-0.511,1.843l-1.428,1.659
		l-1.939,1.66l-3.435,1.94l-2.558,1.438l-3.493,1.351l-3.021,1.023l-2.566,1.602l-1.612,1.11l-1.65,0.251l-1.032,0.058l-1.409-0.058
		l-1.438-0.425l-0.675-0.541l-0.579-1.187l-0.328-1.438l0.203-4.265l-0.058-8.685l1.033-9.032l-0.125-5.655l-0.222-1.775
		l-1.052-0.83l-1.428,0.039l-1.814,0.83l-1.949,1.447l-3.04,3.079l-7.16,9.523l-4.361,7.208l-2.885,5.143l-1.389,2.432l-2.644,4.246
		l-2.075,2.673l-3.917,2.615l-3.753,1.998l-2.104,1.901l-1.592,1.747l-1.621,3.464l0.029,1.013l0.396,1.119l1.708,1.351l3.464,1.843
		l4.082,1.804l0.714,0.357l0.463,0.608l0.029,0.936l-0.531,0.936l-2.682,2.634l-1.66,2.432l-0.878,2.258l-1.477,4.4l-1.158,1.563
		l-2.161,0.521l-2.461-0.463l-3.561-1.872l-3.01-1.196l-3.078-0.386l-3.493-0.261l-4.014,0.154l-4.873,0.202l-3.821,0.213
		l-4.323,1.438l-4.12,2.036l0.695,2.924l0.058,3.502l1.255,4.594l1.062,5.249l1.669,4.699l0.801,2.711l-0.28,2.336l-2.152,5.664
		l-3.521,6.271l-1.872,2.837l-1.892,1.709l-1.264,1.253l-1.544,3.098l-1.766,3.426l-1.853,3.802l-1.737,4.824l-0.82,2.645
		l-0.569,9.804l0.058,3.088l1.563,4.391l1.728,6.378l2.19,9.379l1.785,5.075l2.132,6.389l2.818,8.723l2.017,5.143l2.113,5.588
		l1.033,5.113l2.47,7.497l2.808,9.264l0.666,4.015l0.154,3.021L-104.508,191.828"/>
</g>
<g id="Layer_1_1_">
</g>
</svg>
