<?xml version="1.0" encoding="iso-8859-1"?>
<!-- Generator: Adobe Illustrator 16.0.4, SVG Export Plug-In . SVG Version: 6.00 Build 0)  -->
<!DOCTYPE svg PUBLIC "-//W3C//DTD SVG 1.1//EN" "http://www.w3.org/Graphics/SVG/1.1/DTD/svg11.dtd">
<svg version="1.1" xmlns="http://www.w3.org/2000/svg" xmlns:xlink="http://www.w3.org/1999/xlink" x="0px" y="0px"
	 width="33.696px" height="14.393px" viewBox="0 0 33.696 14.393" style="enable-background:new 0 0 33.696 14.393;"
	 xml:space="preserve">
<g id="Layer_177">
	<g id="Layer_182">
		<path id="Bagh" style="fill:#CCCCCC;stroke:#FFFFFF;stroke-width:1.07;" d="M3.734,9.65
			L3.734,9.65l0.073-0.029l0.041,0.003L3.857,9.59l0.025-0.02l0.021-0.012L3.923,9.56L3.95,9.535l0.033-0.02h0.037L4.035,9.52
			l0.02,0.024l0.013,0.008l0.019,0.013L4.083,9.587v0.022l0.004,0.006l0.017,0.017l0.016,0.007l0.048-0.023L4.179,9.59l0.01-0.029
			l0.006-0.025l0.003-0.022V9.467V9.439l0.007-0.031l0.008-0.021l0.013-0.016L4.24,9.354l0.019-0.013l0.016-0.008L4.286,9.33h0.013
			L4.32,9.332l0.019,0.006l0.021,0.01l0.019,0.006l0.014,0.006L4.432,9.38l0.016,0.008l0.014,0.009l0.022,0.01l0.012,0.008
			l0.011,0.015l0.008,0.009l0.021,0.014L4.543,9.46l0.009,0.006l0.027,0.007h0.022l0.021,0.001h0.019H4.66l0.016-0.011l0.01-0.02
			V9.43V9.421V9.406L4.683,9.39L4.667,9.369L4.659,9.348L4.646,9.326l-0.01-0.02L4.632,9.283L4.627,9.267L4.625,9.248L4.623,9.23
			L4.615,9.212L4.613,9.195l-0.009-0.02V9.154l0.005-0.014l0.008-0.015L4.62,9.104V9.082l0.007-0.02l0.002-0.018l0.007-0.04
			L4.65,8.984l0.021-0.029l0.011-0.018l0.01-0.023l0.01-0.023l0.02-0.021l0.022-0.016l0.019-0.016l0.019-0.012L4.81,8.81
			l0.012-0.019L4.83,8.773l0.005-0.017l0.009-0.013l0.013-0.012l0.025-0.018l0.034-0.01l0.018-0.01l0.023-0.01l0.024-0.021
			l0.016-0.019l0.007-0.031l0.002-0.021V8.568V8.546V8.52V8.492l0.006-0.026l0.02-0.011l0.011-0.008l0.034-0.008l0.028,0.004
			l0.02,0.012l0.021,0.014l0.021,0.01l0.012,0.006l0.015,0.015L5.21,8.505l0.03,0.002l0.022-0.015V8.466l0.013-0.017V8.436V8.418
			V8.416V8.4v-0.01V8.384l0.002-0.03L5.267,8.285L5.251,8.26L5.246,8.244L5.242,8.23L5.229,8.205l-0.005-0.01L5.219,8.184
			l-0.008-0.01L5.203,8.162L5.186,8.146L5.177,8.123L5.174,8.109L5.172,8.105L5.17,8.096L5.165,8.083L5.163,8.06L5.159,8.037V8.033
			V8.021L5.149,7.99L5.142,7.967l0.005-0.03l0.027-0.031L5.192,7.88L5.21,7.851l0.031-0.018l0.017-0.009l0.021-0.012l0.035-0.021
			L5.352,7.76L5.36,7.745l0.004-0.006V7.718L5.363,7.701L5.342,7.684L5.33,7.64V7.617V7.59l0.007-0.012l0.006-0.013l0.015-0.023
			l0.019-0.023l0.016-0.023l0.011-0.012l0.006-0.007L5.42,7.465l0.008-0.009l0.025-0.023l0.012-0.009l0.008-0.007l0.015-0.005h0.004
			l0.026-0.004h0.027l0.012,0.004l0.019,0.004l0.029,0.001l0.026-0.01l0.019-0.019l0.016-0.025l0.012-0.022l0.004-0.009L5.687,7.32
			l0.01-0.01l0.008-0.009l0.011-0.007L5.721,7.29l0.015-0.006l0.004-0.001H5.75h0.009h0.01l0.01,0.001l0.009,0.002l0.019,0.011
			l0.019,0.011L5.841,7.31h0.003h0.016L5.88,7.307h0.003l0.003-0.003l0.011-0.015l0.024-0.017l0,0l0.007-0.027l0.003-0.024
			L5.942,7.2l0.009-0.023l0.007-0.024l0.011-0.035l0.017-0.027l0.032-0.054l0.027-0.019l0.029-0.029l0.033-0.018l0.044-0.009
			l0.047-0.02l0.023-0.009l0.039-0.006l0.033-0.012l0.029-0.011l0.028-0.01l0.031-0.01l0.012-0.005l0.038-0.002h0.019h0.026
			L6.5,6.879l0,0l0.005,0.002l0.018,0.006l0.032,0.012l0.022,0.008l0.023,0.011L6.625,6.93l0,0h0.001l0.016,0.008l0.018,0.009H6.66
			h0.001L6.68,6.956l0.019,0.011l0.014,0.01l0.003,0.002l0.007,0.006l0.012,0.011L6.75,7.017l0.018,0.017l0.01,0.009l0.015,0.016
			L6.8,7.066L6.806,7.07l0.013,0.015l0.02,0.017L6.854,7.12l0.027,0.021l0.013,0.011l0.005,0.004l0.02,0.013l0.025,0.01l0.031,0.007
			l0.012,0.002l0.018,0.003l0.021,0.004l0.019,0.006l0.031,0.012l0.021,0.01L7.126,7.23h0.002h0.001l0.02,0.004l0.015,0.001H7.17
			h0.017h0.008h0.032l0.038-0.001l0.036-0.001L7.35,7.231h0.012l0,0h0.021H7.4l0.015,0.006l0.018,0.008l0.041,0.017l0.022,0.007
			l0.036,0.006l0.045,0.019l0.039,0.013L7.64,7.33l0.021,0.029l0.011,0.012l0.005,0.006l0.052,0.015l0.019,0.014l0.001,0.003
			l0.009,0.016l0.007,0.016l0.002,0.005l0.009,0.017l0.012,0.02v0.001l0.01,0.021L7.81,7.52v0.002L7.812,7.53l0.007,0.011
			l0.003,0.004l0.002,0.011l0,0l0,0l0.008,0.013l0.002,0.018v0.002L7.84,7.606L7.833,7.639v0.019l-0.01,0.028L7.816,7.707v0.015
			v0.023v0.013l0.001,0.006L7.816,7.775v0.01l0.007,0.021l0.004,0.005l0.004,0.007L7.85,7.856l0.002,0.003L7.86,7.875l0.014,0.021
			l0.002,0.002l0.001,0.003l0.01,0.013l0.007,0.004l0.002,0.004l0.019,0.025L7.917,7.95l0.017,0.04l0.003,0.005l0.003,0.004
			l0.012,0.012l0.003,0.003L7.97,8.035l0,0l0.021,0.019l0.007,0.004l0.014,0.011l0.011,0.006l0.005,0.009l0.002,0.01l0.003,0.005
			l0.005,0.016l0.002,0.013L8.04,8.13l0.002,0.012l0.004,0.015L8.048,8.16l0.003,0.008l0.001,0.005l0.001,0.009l0.003,0.067v0.024
			v0.03l0.002,0.011l0.019,0.021l0.017,0.025l0.019,0.025l0.015,0.025l0.008,0.017l0.019,0.019l0.009,0.008l0.011,0.008l0.033,0.025
			l0.019,0.011l0.021,0.01l0.016,0.008l0.04,0.023l0.017,0.007l0.031,0.016l0.028,0.019l0.017,0.011l0.01,0.004l0.021,0.008
			l0.072,0.012h0.032h0.013l0.012-0.002l0,0l0.019-0.013l0.021-0.015l0.011-0.01l0.019-0.01l0.026-0.011h0.026L8.696,8.56
			L8.722,8.58l0.005,0.021l0.019,0.013l0.003,0.002l0.016,0.009l0.022,0.012l0.007,0.006l0.014,0.011l0.015,0.02l0.002,0.002
			l0.012,0.014l0.014,0.016l0.016,0.019l0.003,0.003l0.012,0.014l0.006,0.015l0.005,0.01l0.01,0.015l0.012,0.008l0.021,0.01
			l0.022,0.018l0.021,0.01l0.029,0.01L9.024,8.84l0.002,0.002l0.013,0.014l0.013,0.016h0.001l0.02,0.014L9.079,8.89l0.008,0.009
			l0.009,0.01L9.11,8.924l0.021,0.008l0.014,0.008l0.016,0.012l0.025,0.011l0.019,0.006l0.006,0.005l0.017,0.016l0.016,0.015
			L9.256,9.02l0.007,0.024v0.001V9.07v0.033v0.021l0.002,0.017V9.15v0.022L9.249,9.207L9.243,9.226v0.007v0.012V9.26l0.014,0.006
			l0.016,0.008l0.019,0.01l0.024,0.002l0.028,0.011l0.012,0.006l0.017,0.007L9.398,9.32l0.017,0.012l0,0l0.009,0.021v0.003v0.012
			l0.014,0.039l0.02,0.021l0.018,0.011L9.49,9.445l0.02,0.016l0.01,0.006L9.525,9.47l0.022,0.013L9.57,9.484l0.014,0.002l0.012,0.01
			l0.01,0.009L9.611,9.51l0.012,0.016L9.64,9.542l0.018,0.017l0.002,0.037v0.02l0.009,0.019L9.67,9.645l0.014,0.004h0.021H9.73
			l0.033-0.012l0.021-0.006l0.02-0.01l0.018-0.008L9.84,9.607L9.86,9.602l0.031-0.01l0.014-0.006l0.004-0.001l0.029-0.013
			l0.011-0.008l0.022-0.008l0.021-0.01l0.012-0.003l0.005-0.002l0.026-0.013l0.038-0.002h0.008h0.014h0.019h0.004h0.021h0.025h0.014
			H10.2h0.02l0.066,0.008l0.021-0.006h0.016h0.006h0.02h0.009l0.014,0.002l0.02,0.004l0.018,0.005h0.031h0.019h0.006h0.023h0.029
			l0.021,0.002l0.01,0.017l-0.02,0.018l-0.007,0.006l-0.006,0.005L10.496,9.6L10.49,9.617l-0.003,0.02l0,0l-0.014,0.01l-0.011,0.01
			L10.458,9.66l-0.012,0.011l-0.012,0.014l-0.021,0.015l-0.008,0.01l-0.01,0.011L10.38,9.738l-0.017,0.017l-0.009,0.017
			l-0.007,0.008L10.325,9.82l-0.004,0.006L10.318,9.83l-0.003,0.006l-0.013,0.021l-0.009,0.025l-0.006,0.031L10.29,9.92v0.01
			l0.005,0.016l0.002,0.01l0.006,0.021l0.001,0.006L10.305,10v0.025l0.008,0.025l0.001,0.006l0.001,0.012v0.037l0.007,0.029l0,0
			l0.009,0.02l0.011,0.004l0.012,0.026l0.008,0.017l0.01,0.017l0.012,0.022l0.014,0.018l0.014,0.02l0.022,0.02l0.012,0.011
			l0.029,0.017l0.018,0.002h0.034l0.019,0.004h0.024l0.029,0.005h0.011l0.029,0.006l0.054,0.003l0.014,0.01l0.027,0.01l0.023,0.006
			l0.019,0.007l0.043,0.009l0.034,0.02l0.034,0.014l0.009,0.012l0.011,0.016l0.019,0.019l0.013,0.021l0.023,0.041l0.011,0.012
			l0.023,0.009l0.013,0.004h0.025l0.008,0.001h0.006l0.015,0.005l0.016,0.013l0.021,0.004l0.017,0.008l0.006,0.002l0.027,0.011
			l0.016,0.021l0.017,0.015l0.012,0.009l0.011,0.008l0.019,0.014l0.019,0.01l0.026,0.003l0.021,0.002h0.027h0.017h0.006h0.006h0.02
			h0.016l0.016-0.011l0.018-0.014l0.003-0.006l0.006-0.008l0.009-0.008l0.011-0.01l0.009-0.002h0.014h0.004h0.006h0.02h0.012h0.005
			l0.014-0.017l0.014-0.01l0.014,0.004l0.022,0.013h0.021l0.021-0.008l0.025-0.013h0.015l0.009,0.017l0.003,0.018l0.009,0.006
			l0.021,0.006l0.009-0.007l0.023-0.021l0.027-0.016l0.012-0.009l0.016-0.014l0.012-0.016l0.021-0.008h0.021l0.016-0.004h0.017
			l0.01-0.004l0.008-0.002l0.01-0.004l0.021-0.015l0.016-0.004l0.02-0.001l0.014-0.002l0.036,0.002l0,0l0.006,0.013l0.003,0.007
			l0.011,0.012h0.017h0.016h0.015l0.009,0.006l0.008,0.005l0.014,0.017l0.013,0.019l0.002,0.003l0.007,0.02l0.002,0.025v0.004v0.016
			l0.01,0.014l0.001,0.002l0.014,0.025l0.005,0.01l0.001,0.006l0.004,0.016l0.006,0.021l0.008,0.019l0.008,0.019v0.007l0.002,0.012
			l0.005,0.015l0.002,0.006l0.002,0.006l0.007,0.022l0.01,0.017l0.012,0.018l0.007,0.007l0.009,0.009l0.02,0.012l0.013,0.005
			l0.017,0.006l0.019,0.006l0.011,0.003h0.001l0.001,0.001l0.016,0.003l0.012,0.002h0.009l0.019-0.004l0.016-0.006h0.015H12.4h0.019
			l0.012,0.005l0.021,0.013l0.014,0.006l0.014,0.014l0.002,0.002l0.009,0.01l0.013,0.008l0.026,0.022l0.015,0.017l0.007,0.008
			l0.008,0.011l0.016,0.018l0.002,0.001l0.021,0.004h0.033l0.021-0.017l0.02-0.005h0.004h0.005l0.014,0.003l0.015,0.014l0.016,0.013
			l0.016,0.016l0.007,0.004l0.013,0.008l0.018,0.012l0.024,0.004h0.005l0,0l0.029,0.018l0.023,0.007l0.028-0.006l0.032-0.012
			l0.036-0.011l0.032-0.01l0.032-0.014l0.031-0.014l0.028-0.012l0.026-0.004l0.027-0.003l0.028,0.002h0.04l0.045-0.001l0.028-0.008
			l0.021-0.014l0.033-0.006l0.03-0.004l0.028-0.002l0.017-0.006l0.021-0.004l0.015,0.001l0.021-0.006l0.02-0.003l0.02-0.002
			l0.02-0.008l0.014-0.002l0.016-0.006l0.013-0.004h0.013l0.016,0.006l0.016,0.007h0.027l0.02-0.009l0.022-0.01l0.014-0.006
			l0.024-0.002h0.026l0.027,0.004l0.02-0.001l0.025,0.005h0.026h0.021l0.027,0.002h0.021h0.026l0.022-0.012l0.027-0.011l0.021-0.013
			l0.018-0.008l0.019-0.012l0.013-0.008l0.016-0.016l0.017-0.012l0.007-0.019l0.006-0.019l0.012-0.019l0.031-0.015l0.021-0.01
			l0.021-0.01l0.004-0.016v-0.024v-0.016l-0.002-0.015l-0.012-0.016l-0.004-0.023v-0.021v-0.044l-0.002-0.021l0.004-0.017
			l0.002-0.021l0.014-0.019l0.012-0.024l0.008-0.02l0.011-0.016l0.016-0.032v-0.022l0.012-0.027l0.001-0.018l0.006-0.017
			l0.012-0.039l-0.01-0.024l-0.008-0.027l-0.007-0.024V10.23l0.002-0.02l0.007-0.02l0.01-0.022l0.005-0.024l0.005-0.025l0.004-0.023
			l0.004-0.023l0.003-0.025l0.007-0.023l0.021-0.029l0.014-0.014l0.027-0.018l0.026-0.016l0.021-0.018l0.019-0.016l0.024-0.016
			l0.047,0.008l0.016,0.016l0.037,0.025l0.031,0.019l0.016,0.011l0.021,0.016L14.626,10l0.021,0.007l0.025,0.008l0.032,0.005h0.038
			h0.034h0.036l0.061-0.017l0.024-0.013l0.029-0.01l0.025-0.016l0.017-0.002l0.02,0.016l0.014,0.016l0.014,0.013l0.016,0.011
			l0.015,0.016l0.016,0.013l0.019,0.017l0.01,0.006l0.035,0.006h0.045l0.035,0.007h0.021l0.025,0.005l0.029,0.007l0.024,0.007
			l0.034,0.006h0.021l0.027,0.002l0.033,0.004l0.017,0.002l0.031,0.004l0.035,0.002l0.022,0.003l0.026,0.006l0.026,0.009
			l0.022,0.016l0.021,0.012l0.015,0.01l0.017,0.012l0.028,0.021l0.019,0.018l0.022,0.008l0.03-0.008l0.018-0.006l0.016-0.002
			l0.035-0.02h0.075h0.018l0.019,0.02l0.021,0.016l0.02,0.019l0.023,0.012h0.038l0.043,0.002h0.027h0.026l0.033-0.001h0.063h0.023
			l0.031,0.008l0.045,0.014l0.027,0.006l0.026,0.005l0.024,0.006l0.043-0.004l0.02-0.019l0.013-0.02l0.028-0.021l0.022-0.016
			l0.043-0.029l0.029-0.019l0.02-0.012l0.033-0.007l0.036-0.006h0.003l0.023-0.012l0.018-0.012l0.023-0.016l0,0l0.015-0.015
			l0.015-0.01l0.027-0.015l0.019-0.01l0.009-0.009l0.007-0.002l0.01-0.005l0.012-0.003l0,0l0.008,0.001l0.02,0.004l0,0l0.038,0.025
			l0.022,0.011l0.026,0.007l0.021,0.002l0.014,0.003l0.006,0.001l0.023,0.014l0.017,0.02l0.021,0.021l0.009,0.014l0.02,0.016
			l0.023,0.014l0.031,0.015l0.023,0.009l0.028,0.016l0.033,0.019l0.021,0.015l0.019,0.012l0.051,0.014h0.032l0.029,0.011
			l0.038,0.017l0.033,0.015l0.029,0.019l0.026,0.008l0.037,0.017l0.031,0.015l0.015,0.008l0.008,0.006l0.013,0.007l0.013,0.007
			l0.011,0.01l0.015,0.012l0.021,0.018l0.016,0.025l0.013,0.021l0.009,0.022l0.01,0.031l0.004,0.01l0.007,0.017l0.011,0.017
			l0.03,0.016l0.027,0.009l0.021,0.006l0.011,0.002l0.034,0.009l0.059,0.012l0.026,0.017l0.018,0.006l0.019,0.007l0.024,0.006
			l0.041,0.009l0.033-0.007l0.022-0.012l0.021-0.007l0.026-0.007l0.003-0.002l0.021-0.012l0.021-0.008l0.028-0.009l0.021-0.01
			l0.016-0.007l0.019-0.016l0.011-0.008l0.02-0.019l0.021-0.017l0.021-0.012l0.043-0.016l0.039-0.03l0.036-0.001l0.004-0.001
			l0.014-0.004l0.02-0.011l0.029-0.004l0.014-0.004h0.004l0.013-0.002l0.021-0.002l0.021-0.011l0.018-0.01l0.021-0.015h0.004
			l0.021-0.01l0.021-0.009l0.021-0.015l0.015-0.006l0.012-0.006l0.015-0.018l0.005-0.007l0.008-0.011l0.005-0.02l0.001-0.02
			l0.005-0.022l0.002-0.015l0.002-0.02v-0.02v-0.021v-0.017v-0.015v-0.021l0.018-0.022l0.015-0.012l0.006-0.005l0.005-0.004
			l0.011-0.008l0.019-0.019l0.017-0.011l0.024-0.019l0.004-0.004l0.02-0.017l0,0l0.02-0.021l0.008-0.024l0.015-0.024L19.01,9.96
			l0.016-0.021l0.019-0.018l0.007-0.001l0.016-0.005l0.03-0.004l0.057-0.003l0.003-0.001l0.012-0.006l0.021-0.008l0.021-0.006
			L19.24,9.88l0.014-0.01l0.023-0.019l0.011-0.01L19.3,9.83l0.009-0.008l0.02-0.022l0.01-0.024l0.012-0.015l0.008-0.014l0.008-0.017
			l0.006-0.008l0.006-0.007l0.015-0.012l0.006-0.005l0.019-0.016l0.015-0.011l0.017-0.007l0.026-0.01l0.002-0.002l0.017-0.01
			L19.5,9.639l0.005-0.002l0.012-0.007l0.016-0.01l0.02-0.026l0.013-0.017l0.021-0.021l0.011-0.014l0.01-0.012l0.009-0.016
			l0.006-0.009l0.009-0.021l0.014-0.021l0.018-0.011h0.025h0.02h0.047l0.016,0.001l0.019,0.002l0.052,0.002h0.014h0.037h0.063h0.031
			h0.007h0.021h0.022h0.008h0.005h0.016l0.013-0.002l0.014-0.002l0.02,0.001h0.02l0.028-0.001l0.019-0.014l0.007-0.006l0.029-0.005
			l0.018-0.015l0.025-0.018l0.028-0.021l0.021-0.009l0.024-0.014l0.007-0.004l0.014-0.008l0.008-0.005l0.008-0.004l0.013-0.008
			l0.036-0.019l0.052,0.113l0.059,0.072l0.068,0.093L20.652,9.6l0.014,0.002l0.061,0.129l0.059,0.072l0.025,0.057l0.009,0.05
			l0.008,0.044l0.062,0.078l0.042,0.058l0.033,0.043l0.033,0.106l0.052,0.107l0.102,0.129l0.068,0.114l0.042,0.058l0.06,0.028
			l0.015,0.044l0.003,0.006v0.079l-0.029,0.031l-0.004,0.005l-0.018,0.071v0.05v0.086l0.009,0.064l0.02,0.02l0.016,0.016
			l0.033,0.072l0.004,0.028l0.005,0.036l0.025,0.064l0.011,0.018l0.031,0.047l0.025,0.058l0.009,0.064l0.018,0.05l0.067,0.059
			l0.085,0.143l0.067,0.072l0.066,0.07l0.036,0.038l0.031,0.033l0.052,0.05l0.042,0.036l0.035,0.021l0.022,0.016l0.103,0.064
			l0.036,0.015l0.032,0.013l0.014,0.008l0.037,0.021l0.006,0.008l0.026,0.035l0.013,0.007l0.014,0.008l0.058,0.03l0.035,0.021
			l0.043,0.021l0.067,0.028l0,0l0.042,0.035l0.034,0.028l0.017,0.019l0.018,0.019l0.018,0.058l0.018,0.028l0.033,0.05l0.021,0.022
			l0.013,0.014l0.024,0.043l0.06,0.058l0.018,0.028l-0.025,0.015h-0.015h-0.012L22.701,12.8h-0.059h-0.042h-0.06h-0.075
			l-0.025,0.015l-0.029,0.013l-0.039,0.016l-0.023,0.05v0.037v0.049l0.009,0.043h0.02h0.007l0.063,0.026l0.079,0.031l0.05,0.036
			l0.068,0.035l0.051,0.021l0.084,0.028v0.063l0.001,0.064v0.064l0.012,0.037l0.006,0.021l0.047,0.02l0.021,0.009l0.067,0.015
			l0.127,0.036l0.053,0.02l0.023,0.01l0.053,0.023l0.074,0.033l0.059,0.057l0.076,0.079l0.053,0.062l0,0l0.027-0.006l0.018-0.002
			l0.027-0.013l0.021-0.01l0.01-0.013l-0.006-0.016l-0.004-0.007l-0.019-0.021l-0.018-0.015l-0.003-0.003l-0.017-0.014l-0.014-0.053
			l0.005-0.026v-0.003v-0.002l0.012,0.002h0.006l0.036-0.012v-0.009l-0.003-0.016l-0.002-0.011l0.032-0.03l0.036-0.035l0.026-0.026
			l0.021-0.014l0.011-0.006l0.04-0.023l0.022-0.008l0.031-0.021l0.01-0.006l0.039-0.015l0.036-0.012l0.026-0.027l0.041-0.042
			l0.036-0.027l0.035-0.015l0.031-0.011l0.005-0.002l0.019-0.006l0.031-0.006l0.041-0.006h0.018l0.022-0.004l0.045-0.021h0.021
			h0.055h0.031h0.056l0.034,0.007h0.027h0.018l0.047-0.015l0.035-0.008l0.021-0.008l0.023-0.008h0.034l0.104-0.025l0.076,0.018
			l0.041-0.004l0.058-0.008h0.041h0.027h0.009h0.009l0.036-0.004l0.021-0.004l0.017-0.004l0.026-0.004l0.045-0.012l0,0h0.006
			l0.034-0.003l0.072-0.004l0.052-0.007h0.002h0.003l0.052-0.004l0.028-0.002l0.013-0.002l0.05,0.004l0,0l0.031,0.022l0.019,0.011
			l0.019,0.02l0.026,0.023l0.005,0.004l0.014,0.008l0.019,0.007h0.045l0.027,0.011l0.045,0.016h0.045h0.024h0.021h0.016h0.013h0.026
			l0.012-0.002l0.028-0.002l0.04-0.008l0.032-0.019h0.049h0.007h0.021h0.062h0.027l0.026,0.004l0.015,0.008l0.012,0.007l0.016,0.016
			l0.008,0.013l0.005,0.007l0.01,0.016l0.014,0.017l0.022,0.015h0.031l0.019-0.015l0.008-0.009h0.002l0.03-0.022l0.02-0.011
			l0.018-0.012h0.035h0.01h0.009h0.015l0.011-0.012l0.003-0.003l0.009-0.016l0.027-0.026l0.037-0.004h0.003l0.036-0.004l0.009-0.001
			l0.014-0.002h0.019l0.019-0.002l0.014-0.002l0.055-0.013l0.021-0.002l0.02-0.002h0.018h0.001h0.006l0.048-0.002h0.045l0.021-0.006
			l0.023-0.006l0.044-0.02l0.027-0.023l0.021-0.011l0.016-0.009l0.036-0.015l0.03-0.016l0.051-0.019l0.025-0.016l0.027-0.008
			l0.027-0.008l0.03-0.008l0.021-0.002l0.003-0.002l0.036-0.011h0.006h0.013h0.05l0.021-0.004l0.027-0.007l0.021-0.004l0.021-0.008
			l0.015-0.018l0.005-0.005h0.05l0.005,0.003l0.021,0.012l0.036,0.008h0.009h0.019h0.021h0.005h0.01h0.026l0.034-0.004h0.002
			l0.018-0.002h0.001h0.035h0.026l0.051-0.009l0.04-0.015h0.036l0.041-0.004l0.035-0.012l0.021-0.013l0.046-0.015l0.036-0.023
			l0.04-0.019l0.021-0.007l0.017-0.004l0.049-0.023l0.005-0.001l0.027-0.01l0.021-0.011l0.05-0.023l0.009-0.003l0.046-0.017
			l0.034-0.015l0.022-0.009l0.005-0.002h0.001l0.035-0.023l0.081,0.008l0.072-0.004h0.059l0.008-0.002l0.037-0.006h0.062h0.036
			h0.019h0.059l0.045-0.023L29,12.65l0.063-0.012l0.054-0.008l0.054-0.008l0.072-0.004l0.045-0.008l0.05-0.016l0.028-0.012
			l0.03-0.012l0.036-0.012l0.03-0.009l0,0l0.003-0.001l0.021-0.01l0.046-0.021l0.066-0.055V12.42l-0.002-0.023l-0.002-0.029v-0.038
			v-0.031l0.008-0.038l0.019-0.031l0.009-0.033l0.013-0.019l0.006-0.009l0.01-0.014l0.008-0.01l0.015-0.016h0.01h0.014l0.014,0.012
			l0.019,0.017l0.005,0.006l0.013,0.017l-0.013,0.023h0.015h0.059h0.021h0.009h0.01h0.018l0.014,0.003l0.011,0.017l0.009,0.014
			l0.017,0.012l0.009,0.011l0.001,0.001l0.016,0.018l0.004,0.006l0.009-0.008l0.01-0.008l0.011-0.006l0.003-0.002l0,0v-0.008
			l0.021-0.016l0.009-0.008l0.02-0.022l0.018-0.021l0.02-0.019l0.021-0.013l0.01-0.006l0.045-0.026l0,0v-0.039l-0.005-0.037
			l-0.009-0.042l-0.021-0.033l-0.001-0.004l-0.004-0.039l0.009-0.05l0.01-0.03l0,0l0.018-0.029l0.031-0.004h0.031h0.027h0.026h0.009
			h0.01l0.026,0.015l0.015,0.008l0.021,0.007l0.013,0.012l0.027,0.027h0.022h0.019l0.018-0.004l0.022-0.008l0.014-0.023l0.041-0.031
			l0.031-0.01l0.026-0.027l0.031-0.023l0.031-0.031l0.026-0.022l0.01-0.009l0.018-0.019l0.027-0.026l0.031-0.031l0.049-0.026
			l0.002-0.001l0.025-0.011l0.013-0.017l0.015-0.019l0.04-0.05l0.036-0.03l0.041-0.034l0.019-0.013l0.009-0.006l0.026-0.027
			l0.012-0.007l0.024-0.02l0.035-0.053l0.027-0.027l0.036-0.026l0.04-0.031l0,0l0.004-0.003l0.015-0.02l0.031-0.016l0.021-0.016
			l0.036-0.03v-0.001l0.022-0.029l0.018-0.021l0.019-0.022l0.026-0.02l0.036-0.016l0.009-0.019l0.039-0.024l0.021-0.014l0.055-0.023
			l0.031-0.029l0.046-0.036l0.003-0.003l0.041-0.02l0,0l0.01-0.006l0.039-0.027l0.036-0.023l0.007-0.013l0.012-0.021l0.062-0.013
			l0.036-0.021l0.05-0.041l0.035-0.03l0.041-0.021l0.045-0.012l0.027-0.007l0.025-0.008l0.021-0.001l0.017-0.002l0.024-0.021
			l0.003-0.002l0,0l0.045-0.012l0.025-0.001l0.037-0.003l0.045-0.012l0.06-0.019l0.021-0.012l0.055-0.019l0.025-0.016l0.063-0.027
			l0.05-0.011l0.041-0.012l0.049-0.017l0.041-0.007l0.031-0.008h0.014l0.027-0.03l0.007-0.007l0.011-0.01l0.026-0.022l0.009-0.008
			l0.007-0.005l0.03-0.022l0.004-0.033l-0.002-0.004l-0.012-0.026l-0.005-0.031l0.009-0.03l0.01-0.03l0.031-0.031l0.035-0.022
			l0.022-0.02l0.047-0.018l0.002-0.002l0,0l0.041-0.041l0.036-0.016l0.022-0.023L33.115,9.96l-0.006-0.003l-0.03-0.023l-0.027-0.015
			L33.031,9.9l-0.032-0.016l0,0l-0.022-0.025l-0.01-0.027l-0.002-0.008l-0.002-0.008l-0.027-0.02l-0.026-0.015L32.883,9.77
			l-0.021-0.03l-0.016-0.022l0.019-0.023l0.05-0.021l0.018-0.035l0.02-0.011l0.021-0.015h0.001l-0.001-0.034L32.96,9.55
			l-0.027-0.026h-0.001l-0.008-0.016l-0.01-0.015V9.459V9.458l0.009-0.03V9.4V9.375L32.914,9.34V9.318l-0.022-0.027L32.87,9.264
			l-0.005-0.039V9.195l0.005-0.043L32.9,9.1l0.021-0.031l0.037-0.037l0.004-0.042V8.964V8.951l-0.005-0.045V8.891V8.868l0.014-0.05
			l0,0l0.004-0.034l0.026-0.038l0,0h0.001l0.003-0.006l0.015-0.032l0.02-0.022l0.025-0.023l0.02-0.023l0.018-0.022l0.015-0.038
			l0.014-0.02l0.005-0.006l0.008-0.009v-0.03V8.467l-0.016-0.035l-0.003-0.007l-0.014-0.034L33.09,8.355h-0.001l-0.018-0.02
			l-0.02-0.029l-0.013-0.031l-0.007-0.014l-0.003-0.01l-0.015-0.025l-0.013-0.027l-0.023-0.021l-0.03-0.017l-0.01-0.015L32.92,8.115
			l-0.018-0.027l-0.037-0.033l-0.014-0.031l-0.005-0.031l-0.025-0.019l-0.005-0.004h-0.009h-0.016l-0.035-0.004l-0.031-0.007
			L32.68,7.939l-0.018-0.007L32.63,7.901l-0.006-0.006l-0.003-0.002l-0.019-0.012l-0.005-0.003l-0.004-0.003L32.549,7.84
			L32.53,7.817l-0.009-0.012V7.799V7.782l0.006-0.01l0.008-0.013l0.017-0.023l0.027-0.019l0.072-0.008l0.01-0.006l0.009-0.005
			l0.031-0.011l0.014-0.008V7.671V7.665l0.004-0.073V7.565l0.019-0.034l0.014-0.03V7.488V7.45l0.045-0.053l0.031-0.019l0.021-0.031
			l0.036-0.039l0.003-0.033l0.001-0.021V7.212l-0.014-0.023l-0.022-0.027l-0.035-0.038l-0.035-0.035l-0.02-0.011l-0.074-0.021
			l-0.021-0.006l-0.036-0.015L32.613,7.03l-0.021-0.006l-0.055-0.026l-0.01-0.007l-0.022-0.016l-0.04-0.015h-0.03h-0.01h-0.031
			l-0.022-0.004l-0.018-0.007l-0.027-0.023l-0.019-0.022l-0.019-0.03l-0.021-0.023l-0.022-0.023l-0.019-0.026V6.775l0.002-0.007
			l0.007-0.024l0.009-0.023l0.015-0.038l0.03-0.039l0.02-0.03l0.021-0.031l0.02-0.03l0.016-0.013l0.007-0.006L32.38,6.5V6.469
			l-0.005-0.027l-0.014-0.038l-0.013-0.046l-0.02-0.046l-0.018-0.031l-0.023-0.045l-0.021-0.027l-0.032-0.022l-0.036-0.039
			l-0.01-0.013l-0.008-0.01l-0.056-0.064l-0.033-0.014l-0.017-0.005l-0.054-0.023l-0.036-0.012l-0.055-0.011l-0.076-0.03
			l-0.054-0.012L31.77,5.951l-0.06-0.004h-0.022h-0.093L31.539,5.95l-0.014,0.003l-0.022,0.005l-0.009,0.015l-0.018,0.008
			L31.318,5.97H31.31h-0.02l-0.03-0.012L31.209,5.94l-0.025-0.012h-0.091l-0.036-0.012l-0.091,0.016L30.939,5.94h-0.062l-0.1-0.022
			h-0.04l-0.032,0.034l0.001,0.038l-0.117,0.012l-0.05,0.019h-0.055h-0.026h-0.026h-0.076l-0.063,0.004l-0.034,0.008h-0.037
			l-0.062-0.011l-0.05-0.004h-0.136l-0.026,0.001l-0.021-0.004l-0.027-0.004L29.798,6h-0.09l-0.046-0.019l0,0l-0.03-0.038
			l-0.015-0.031l-0.026-0.038l-0.036-0.022l0.019-0.038l0.004-0.05V5.701l-0.014-0.019V5.655V5.628l0.004-0.035l0.015-0.068
			l0.01-0.031l0.013-0.023l0.014-0.023l0.006-0.027l0.03-0.031l0.015-0.02V5.34l-0.015-0.019l-0.01-0.02l-0.018-0.022l-0.005-0.031
			V5.222l0.005-0.015l0.03-0.023l0.022-0.011l0.036-0.019l0.035-0.019l0.022-0.023V5.089l-0.019-0.03L29.74,5.032l-0.014-0.011
			l-0.067-0.004l-0.035-0.004L29.557,4.99h-0.036h-0.027l-0.025,0.003l-0.023,0.012h-0.025l-0.1,0.016l-0.086-0.004l-0.062-0.012
			l-0.101-0.038L28.99,4.944h-0.05h-0.066l-0.041-0.012l-0.036-0.019l-0.031-0.019l-0.019-0.019l-0.019-0.023L28.71,4.826
			l-0.004-0.035l-0.023-0.035l-0.009-0.015V4.706l-0.005-0.023V4.656l-0.01-0.045l-0.005-0.023V4.561V4.538l-0.014-0.019
			l-0.013-0.011l-0.046-0.012l-0.019-0.003l-0.009-0.008H28.54L28.501,4.47l-0.032-0.012h-0.031L28.411,4.47l-0.036,0.008h-0.062
			l-0.036-0.012L28.24,4.447h-0.019l-0.076-0.034l-0.036-0.012l-0.067-0.03h-0.009h-0.026h-0.036l-0.014,0.001l-0.022,0.002
			l-0.027,0.012l-0.03,0.012L27.81,4.433l-0.027,0.015l-0.035,0.015l-0.031,0.02L27.694,4.49h-0.002h-0.031h-0.028h-0.007h-0.008
			h-0.023h-0.081h-0.009h-0.032L27.41,4.476l-0.022-0.005l-0.025-0.012L27.33,4.444l-0.063-0.015l-0.021-0.007L27.209,4.41
			l-0.021-0.004L27.15,4.399h-0.055l-0.05-0.003l-0.049-0.012h-0.056l-0.045,0.004h-0.004L26.86,4.391l-0.062,0.02l-0.045,0.034
			l-0.072,0.02l-0.041-0.003l-0.059-0.046l-0.091-0.019L26.46,4.388l-0.021-0.006l0,0L26.361,4.34l-0.05-0.007l-0.036-0.02
			l-0.019-0.011L26.235,4.29h-0.062l-0.04,0.023l-0.036,0.031h-0.001l-0.035,0.015h-0.117h-0.059l-0.05-0.011l-0.019-0.012
			l-0.02-0.008l-0.018-0.007h-0.041l-0.054-0.004l-0.02-0.007l-0.013-0.004l-0.036-0.008h-0.021l-0.108,0.008l-0.027,0.005
			l-0.021,0.003l-0.046,0.008l-0.006,0.001L25.36,4.326L25.335,4.33l-0.023,0.003h-0.014h-0.022l-0.094,0.003l-0.032,0.008
			l-0.014,0.001l-0.035,0.003l-0.036-0.002l-0.022-0.001l-0.021-0.009l-0.023-0.01l-0.06-0.027l-0.044,0.015v0.035l0.014,0.027
			l0.01,0.013l0.004,0.006l0.008,0.012L24.93,4.41l0.002,0.002l0.012,0.025v0.03l-0.025,0.02h-0.001l-0.049-0.008L24.801,4.46
			l-0.012-0.007l-0.007-0.004l-0.01-0.008h-0.019h-0.019L24.69,4.457l-0.009,0.019l-0.032,0.012h-0.018L24.61,4.466l-0.015-0.027
			l-0.031-0.012l-0.041-0.003l-0.007-0.002L24.506,4.42l-0.022-0.005l-0.008-0.002l-0.022-0.001h-0.008h-0.024L24.39,4.416h-0.005
			H24.35h-0.046l-0.05,0.023L24.233,4.45l-0.032,0.019L24.12,4.473l-0.067,0.004l-0.032,0.016l-0.039,0.012L23.95,4.512L23.928,4.52
			l-0.019,0.003l-0.022,0.012l-0.045,0.016l-0.04,0.016l-0.03,0.022l-0.047,0.02l-0.065,0.008l-0.037,0.015l-0.035,0.015
			l-0.036,0.012l-0.071,0.03h-0.067l-0.045,0.004l-0.086,0.004l-0.06,0.008L23.16,4.721h-0.041l-0.06,0.004L23.024,4.74
			l-0.026,0.027l-0.055,0.062l-0.095,0.004h-0.067h-0.049L22.66,4.814l-0.06-0.027l-0.055-0.03L22.51,4.734l-0.049-0.061
			L22.42,4.642L22.325,4.6l-0.05-0.027l-0.055-0.049l-0.032-0.027l-0.085-0.015l-0.046-0.016l-0.05-0.016H21.95l-0.056,0.008
			l-0.05,0.035l-0.039,0.054l-0.019,0.045l-0.014,0.031l-0.005,0.042L21.75,4.703l-0.014,0.034l-0.014,0.035l-0.114,0.029
			L21.581,4.85l-0.03,0.046L21.523,4.93l-0.04,0.027l-0.046,0.042l-0.049,0.05L21.38,5.087l-0.081,0.065l-0.01,0.004l-0.021,0.019
			l-0.022,0.016l-0.026,0.026L21.21,5.225l-0.072,0.027l-0.031,0.023L21.085,5.29l-0.04,0.012L21,5.309l-0.041,0.058l-0.076,0.027
			l-0.01,0.008l-0.04,0.015l-0.022,0.008l-0.021,0.004h-0.02h-0.018h-0.022h-0.025h-0.041l-0.036-0.008h-0.032h-0.026h-0.031
			l-0.031-0.008l-0.027-0.011l-0.018-0.008l-0.019-0.011l-0.019-0.004h-0.04h-0.027l-0.054,0.012L20.28,5.402l-0.021,0.019
			l-0.026,0.012l-0.021,0.008h-0.022l-0.036-0.003l-0.036-0.012L20.079,5.41h-0.044l-0.022,0.008L19.99,5.434l-0.018,0.022
			l-0.014,0.027h-0.015l-0.035-0.008l-0.035-0.02L19.847,5.44l-0.059-0.012l-0.032-0.007l-0.049-0.023l-0.072-0.004L19.59,5.386
			l-0.032-0.004L19.54,5.371V5.354l-0.015-0.031l-0.104-0.003h-0.038h-0.036l-0.019-0.003l-0.026-0.004l-0.027-0.015L19.24,5.283
			L19.158,5.26l-0.025-0.012l-0.032-0.015l-0.049-0.008l-0.036-0.003l-0.045,0.004l-0.02,0.008l-0.026,0.023l-0.04,0.039
			l-0.036,0.026l-0.031,0.023L18.799,5.36l-0.026,0.031l-0.027,0.016L18.72,5.422l-0.051,0.004l-0.031,0.012l-0.045,0.007
			l-0.045,0.012l-0.045,0.016H18.44l-0.055-0.008l-0.027-0.019l-0.085-0.004l-0.081-0.003l-0.026,0.015h-0.05h-0.041l-0.05-0.003
			l-0.049-0.016L17.936,5.42l-0.017-0.009l-0.006-0.003l-0.031-0.016l-0.037-0.023l-0.031-0.03l-0.027-0.023l-0.049-0.022l0,0
			L17.7,5.271l-0.03-0.023l-0.04-0.015l-0.041-0.012l-0.05-0.015l-0.071-0.034h-0.06h-0.001L17.39,5.188l-0.005,0.004l-0.026,0.019
			l-0.018,0.01l-0.01,0.005l-0.022,0.023l-0.026,0.023l-0.026,0.019l-0.022,0.015l-0.03,0.011h-0.006l-0.035,0.004h-0.036h-0.035
			l-0.032-0.008L17.032,5.29l-0.026-0.023l-0.027-0.019l-0.03-0.004l-0.047-0.009l-0.035-0.006l-0.05-0.003l-0.041-0.012
			l-0.03-0.012l-0.031-0.007h-0.027h-0.05h-0.04h-0.031h-0.037h-0.017h-0.051l-0.014,0.003l-0.022,0.004l-0.033,0.007H16.39
			l-0.036,0.016h-0.032l-0.029,0.003h-0.006L16.25,5.239l-0.04,0.007l-0.036,0.012l-0.031,0.016l-0.017,0.002L16.11,5.278
			l-0.045-0.004l-0.077-0.007l-0.036-0.004l-0.035-0.031l-0.006-0.004l-0.014-0.011L15.866,5.19l-0.018-0.007L15.847,5.18
			l-0.016-0.02l-0.02-0.019l-0.019-0.012l-0.039-0.012l-0.011-0.003h-0.03h-0.023h-0.021l-0.026-0.003l-0.023-0.008l-0.021-0.007
			L15.59,5.074L15.588,5.07l-0.004-0.03V5.032V4.998l-0.007-0.016L15.56,4.956l-0.014-0.027l-0.015-0.008l-0.004-0.003l-0.01-0.005
			l-0.021-0.011l-0.032-0.016l-0.041-0.022l-0.026-0.035L15.392,4.81l-0.01-0.009V4.763L15.381,4.75l-0.003-0.041l-0.011-0.045
			V4.663l-0.03-0.026l-0.015-0.026l-0.005-0.008l-0.031-0.031L15.26,4.545l-0.036-0.023l-0.035-0.034l-0.004-0.019l-0.001-0.012
			V4.423V4.385l0.004-0.038l0.009-0.046l0.009-0.05L15.21,4.23l0.006-0.021l0.004-0.042l0.021-0.046V4.079V4.041l-0.006-0.035
			l-0.004-0.022l-0.003-0.011l-0.006-0.02l-0.031-0.049L15.17,3.869l-0.02-0.031l-0.005-0.046V3.754l0.014-0.016l0.019-0.046
			l0.005-0.023l0.004-0.023l0.019-0.022l0.019-0.023V3.559l0.018-0.031V3.501V3.386V3.333l-0.01-0.046l-0.026-0.026L15.16,3.249
			l-0.091-0.016l-0.036,0.001l-0.034-0.016l-0.032-0.027l-0.049-0.022l-0.032-0.027l-0.026-0.023L14.818,3.1l-0.041-0.012
			l-0.049-0.019l-0.032-0.011l-0.025-0.016l-0.027-0.007l-0.036-0.019l-0.036-0.023l-0.01-0.015l-0.008-0.016l-0.006-0.026
			L14.544,2.92l-0.015-0.038L14.508,2.84l-0.063-0.077L14.413,2.74l-0.1-0.034l-0.031-0.011l-0.045-0.012l-0.066-0.019L14.139,2.66
			l-0.054-0.015l-0.027-0.016l-0.036-0.012l-0.095-0.03l-0.019-0.015l-0.081-0.011L13.782,2.55l-0.01-0.008l-0.066-0.007
			L13.651,2.52l-0.045-0.011l-0.055-0.012l-0.076-0.015h-0.055L13.39,2.486h-0.062l-0.031,0.012L13.26,2.517l-0.094,0.031
			L13.12,2.567l-0.051,0.02L13.011,2.61l-0.049,0.026l-0.055,0.016l-0.026,0.016l-0.027,0.015l-0.026,0.023l-0.035,0.011
			l-0.032,0.02l-0.026,0.022l-0.021,0.023l-0.022,0.023l-0.021,0.019l-0.056,0.015h-0.034h-0.036l-0.036-0.011l-0.05-0.02
			l-0.051-0.011l-0.021-0.004l-0.036-0.016l-0.049-0.015l-0.023-0.019l-0.03-0.016l-0.027-0.011l-0.036-0.015L12.11,2.69
			l-0.031-0.016l-0.062-0.027h-0.05h-0.035l-0.051,0.008l-0.045,0.023L11.805,2.69h-0.05h-0.018l-0.137-0.031l-0.021-0.011
			l-0.031-0.02l-0.027-0.015l-0.026-0.016l-0.045-0.019l-0.045-0.007l-0.045-0.015l-0.051-0.011H11.25l-0.045,0.003l-0.041,0.011
			l-0.076,0.016l-0.031,0.008l-0.03,0.012l-0.027,0.019h-0.036l-0.036-0.008l-0.036-0.007l-0.036-0.007h-0.062l-0.027,0.004
			l-0.03,0.026L10.704,2.63l-0.045,0.008h-0.037L10.591,2.63h-0.049h-0.045L10.46,2.634l-0.054,0.007L10.38,2.645l-0.045,0.008
			h-0.062h-0.036l-0.056,0.008h-0.126l-0.09,0.026L9.929,2.699h-0.04L9.848,2.703L9.822,2.718L9.777,2.745L9.732,2.764L9.695,2.78
			L9.669,2.799L9.633,2.815L9.608,2.834L9.602,2.838l-0.03,0.004L9.495,2.838L9.463,2.83L9.441,2.819l-0.02-0.015L9.391,2.792
			L9.364,2.777l-0.05-0.034L9.292,2.727L9.256,2.701l-0.04-0.023L9.185,2.655L9.149,2.646L9.104,2.624L9.077,2.613h-0.05
			l-0.04,0.012L8.937,2.648h-0.04H8.86L8.807,2.641h-0.06L8.729,2.664l0.01,0.072l0.027,0.027L8.77,2.789v0.03v0.035L8.769,2.875
			L8.766,2.907L8.759,2.926L8.751,2.95L8.737,2.996L8.729,3.034L8.702,3.065L8.7,3.07L8.68,3.111L8.66,3.145L8.611,3.176L8.57,3.188
			l-0.045,0.03L8.512,3.226l-0.01,0.004L8.477,3.252L8.449,3.294H8.404H8.386L8.351,3.291H8.346L8.327,3.288H8.309H8.298H8.29
			L8.268,3.284L8.246,3.279L8.224,3.272H8.187H8.176H8.164H8.133L8.106,3.281L8.07,3.297L8.05,3.312L8.037,3.32L8.02,3.336
			L7.998,3.358H7.997l0,0L7.99,3.363L7.979,3.37L7.934,3.382l0,0L7.906,3.396L7.841,3.412L7.8,3.432L7.772,3.444H7.728L7.691,3.455
			L7.63,3.467L7.59,3.474L7.538,3.497h-0.12L7.372,3.489l-0.03-0.007L7.301,3.478L7.265,3.473L7.252,3.471H7.215h-0.04l-0.05,0.012
			L7.091,3.49L7.09,3.491H7.089L7.085,3.492l-0.027,0.01L7.049,3.51L7.018,3.518H7.006H7.004H6.999H6.98H6.962H6.939L6.908,3.514
			L6.9,3.512L6.895,3.51L6.873,3.503l0,0L6.842,3.488H6.833H6.822H6.756H6.754L6.729,3.492l-0.04,0.016l-0.03,0.019L6.652,3.53
			L6.632,3.536l-0.01,0.002L6.591,3.546L6.563,3.532L6.542,3.52L6.515,3.493L6.497,3.482H6.496L6.441,3.467L6.415,3.451L6.384,3.432
			L6.373,3.426L6.352,3.413L6.326,3.402L6.295,3.391L6.239,3.376L6.204,3.357l-0.031-0.02L6.154,3.325l-0.019-0.03L6.125,3.264
			L6.122,3.257L6.107,3.223L6.103,3.212L6.094,3.196L6.072,3.161L6.05,3.127l-0.009-0.03L6.018,3.058L6.009,3.02l0.005-0.099l0,0
			V2.906l0.004-0.053V2.822L6.013,2.791L6.012,2.782L6.008,2.761L5.999,2.753L5.986,2.73L5.971,2.696V2.662V2.658V2.651V2.62
			l-0.04-0.019H5.9L5.845,2.632l-0.04,0.027L5.773,2.678L5.738,2.694L5.675,2.698l-0.05,0.015L5.571,2.729l-0.04,0.015L5.511,2.767
			L5.499,2.782l-0.01,0.015L5.468,2.833L5.458,2.85L5.444,2.878L5.426,2.901L5.408,2.935V2.98l0.004,0.042l0.022,0.031l0.021,0.031
			l0.009,0.012l0.01,0.015v0.021V3.15v0.034v0.039v0.023l0.01,0.039l0.01,0.031l0.019,0.038l0.01,0.031l0.009,0.03L5.522,3.454
			L5.52,3.455L5.513,3.458L5.509,3.455l-0.027-0.02l0,0L5.45,3.427L5.438,3.404L5.436,3.396L5.36,3.381L5.328,3.369L5.293,3.354
			L5.238,3.324L5.229,3.32L5.202,3.312L5.185,3.309L5.161,3.302L5.156,3.3l-0.03-0.009L5.104,3.28L5.077,3.271L5.036,3.253
			L5.033,3.252L4.987,3.238L4.96,3.223L4.928,3.208L4.892,3.192L4.883,3.188l-0.03-0.015L4.82,3.153L4.753,3.131L4.732,3.123
			L4.706,3.115L4.683,3.107L4.637,3.093L4.613,3.079L4.589,3.065l-0.05-0.027l0,0L4.518,3.022L4.467,3L4.431,2.985L4.417,2.978
			L4.386,2.961L4.354,2.942l-0.04-0.019l0,0L4.287,2.915L4.261,2.9l-0.04-0.031L4.198,2.85L4.18,2.814l-0.022-0.03L4.136,2.75
			L4.108,2.716L4.1,2.705L4.068,2.667L4.027,2.628L4.009,2.593L3.973,2.559l-0.027-0.03l-0.021-0.03L3.884,2.472L3.871,2.463
			l-0.02-0.017L3.815,2.415L3.774,2.377L3.742,2.346L3.725,2.331l0,0L3.724,2.33L3.71,2.312L3.696,2.27L3.701,2.25V2.216v-0.01
			L3.7,2.194V2.172V2.155L3.688,2.116L3.687,2.109L3.664,2.072L3.646,2.045L3.642,2.029l-0.009-0.03L3.618,1.965L3.604,1.932
			L3.596,1.915L3.564,1.903H3.537H3.492L3.434,1.899h-0.05L3.347,1.888L3.332,1.883L3.314,1.876h-0.04H3.238h-0.09l-0.05-0.003
			L3.072,1.861L3.066,1.859L3.031,1.84L2.996,1.817L2.99,1.812L2.924,1.801L2.909,1.803L2.9,1.804L2.869,1.831L2.85,1.847
			L2.842,1.854L2.806,1.87h-0.05H2.684H2.635H2.598H2.559L2.513,1.862L2.468,1.843L2.437,1.836H2.396H2.384L2.356,1.84L2.275,1.867
			H2.254H2.23L2.198,1.863L2.154,1.855V1.825l0.015-0.03L2.178,1.78l0.025-0.039l0.023-0.031l0.035-0.054l0.022-0.042l0.019-0.023
			l0.04-0.061V1.524V1.501L2.321,1.464L2.32,1.463L2.266,1.441L2.23,1.425L2.198,1.402l0.005-0.026l0.021-0.042l0.007-0.015
			l0.012-0.027v-0.03l0.006-0.046v-0.03l0.013-0.031l0.018-0.03L2.29,1.098V1.062L2.288,1.044L2.271,1.021L2.257,0.994L2.234,0.968
			L2.226,0.91l0.013-0.038V0.818l-0.005-0.03V0.773L2.202,0.735l-0.035-0.05L2.131,0.643l-0.022-0.03L2.09,0.582L2.075,0.544
			L2.054,0.54l-0.04,0.004H1.959L1.928,0.548L1.893,0.563L1.847,0.567L1.784,0.57H1.717H1.663L1.636,0.574L1.591,0.589L1.568,0.62
			l0.036,0.042l0.041,0.011l0.027,0.011l0.045,0.031l0.027,0.019v0.011l-0.02,0.023L1.704,0.775H1.686H1.663L1.619,0.767
			L1.608,0.751L1.573,0.698L1.537,0.683L1.486,0.69l-0.03,0.02L1.43,0.729L1.416,0.756l-0.02,0.023l-0.008,0.05l0.019,0.015
			l0.03,0.008l0.02,0.007l0.04,0.011l0.05,0.012l0.026,0.007l0.031,0.008l0.036,0.011l0.036,0.008l0.036,0.016l0.036,0.034
			l0.021,0.03l0.062,0.062l0.001,0.034L1.793,1.115l-0.03-0.012H1.726H1.649H1.623L1.592,1.119L1.561,1.161L1.534,1.187L1.479,1.229
			L1.466,1.275L1.461,1.317L1.457,1.374v0.023L1.453,1.443L1.431,1.45L1.385,1.439L1.35,1.423L1.309,1.412h-0.05H1.182L1.123,1.415
			l-0.05,0.008l-0.03,0.011L0.979,1.469L0.926,1.492L0.872,1.511l0,0l-0.02,0.022L0.839,1.572L0.825,1.603L0.79,1.634H0.754
			L0.739,1.63L0.726,1.627l-0.05-0.023l-0.04-0.019H0.591L0.582,1.589L0.567,1.596l-0.01,0.027v0.03v0.035L0.559,1.73v0.035v0.058
			l0.009,0.034L0.59,1.884l0.036,0.05l0.026,0.049l0.02,0.031l0.018,0.107L0.681,2.155L0.677,2.189L0.654,2.231l-0.03,0.03
			L0.583,2.299L0.552,2.322L0.538,2.367v0.046l0.001,0.045v0.046v0.042v0.045v0.035l0.05,0.069l0.009,0.023l0.005,0.049L0.589,2.794
			L0.57,2.828L0.549,2.854L0.535,2.889V2.92v0.046V3.02L0.54,3.065l0.021,0.027l0.032,0.034l0.012-0.007l0.042,0.042L0.67,3.172
			l0.046,0.023L0.76,3.214L0.8,3.222l0.034,0.049l-0.002,0.05l0.021,0.046l0.015,0.046l0.046,0.114l0.021,0.061L0.94,3.627
			l0.014,0.038v0.046l0.02,0.03l0.004,0.031v0.042v0.054l0.01,0.157v0.008v0.034v0.088l0.023,0.096l0.014,0.034v0.031v0.042v0.038
			L1.021,4.495V4.59L1.016,4.617l0.001,0.061V4.72v0.077l0.036,0.061L1.16,4.995l0.031,0.038l0.022,0.031l0.035,0.038l0.02,0.084
			v0.149L1.27,5.484v0.081l0.004,0.05l0.001,0.053L1.247,5.722L1.226,5.761L1.208,5.829L1.189,5.906l0.004,0.042l0.023,0.069
			l0.03,0.035l0.072,0.064l0.086,0.038L1.46,6.181l0.05,0.035l0.059,0.038L1.613,6.28l0.041,0.027l0.055,0.03l0.032,0.037
			l0.017,0.038L1.81,6.538l0.022,0.038l0.029,0.063l0.037,0.044l0.029,0.063l0.008,0.082l0.06,0.075l-0.028,0.12L1.944,7.042v0.051
			l0.008,0.063l0.091,0.088l0.06,0.038L2.17,7.395v0.056L2.162,7.477L2.146,7.508L2.14,7.577L2.185,7.76v0.038l0.037,0.063
			l0.074,0.114l0.066,0.102l0.12,0.195l0.029,0.045l0.03,0.137l0.104,0.115L2.69,8.625l0.021,0.068L2.86,8.756l0.098,0.076
			l0.097,0.101L3.182,9.16l0.097,0.106l0.164,0.171l0.022,0.037l0.104,0.051l0.037,0.03h0.029l0.052,0.058L3.734,9.65"/>
	</g>
</g>
<g id="Layer_1">
</g>
</svg>
