<?xml version="1.0" encoding="iso-8859-1"?>
<!-- Generator: Adobe Illustrator 16.0.4, SVG Export Plug-In . SVG Version: 6.00 Build 0)  -->
<!DOCTYPE svg PUBLIC "-//W3C//DTD SVG 1.1//EN" "http://www.w3.org/Graphics/SVG/1.1/DTD/svg11.dtd">
<svg version="1.1" xmlns="http://www.w3.org/2000/svg" xmlns:xlink="http://www.w3.org/1999/xlink" x="0px" y="0px"
	 width="41.723px" height="47.191px" viewBox="0 0 41.723 47.191" style="enable-background:new 0 0 41.723 47.191;"
	 xml:space="preserve">
<g id="Layer_155">
	<g id="Layer_160">
		<path id="Faisalabad" style="fill:#CCCCCC;stroke:#FFFFFF;stroke-width:1.07;" d="
			M22.474,0.457L22.474,0.457l-0.765,0.467l-0.125,0.095l-0.229,0.209l-0.281,0.287L20.858,1.75L20.62,1.985l-0.209,0.218
			l-0.146,0.148l-0.404,0.298l-0.479,0.405l-0.279,0.229l-0.321,0.24l-0.177,0.168L18.49,3.824L18.47,3.903l-0.118,0.184
			l-0.114,0.16L18.12,4.512l-0.167,0.241l-0.249,0.314l-0.053,0.107l-0.179,0.448l-0.229,0.411l-0.259,0.572l-0.068,0.13
			l-0.122,0.237v0.046l-0.062,0.077l-0.102-0.133l-0.037-0.044h-0.026l-0.035,0.016l-0.041,0.084l-0.131,0.29l-0.159,0.253
			l-0.211,0.27L15.77,8.086l-0.332,0.348l-0.291,0.264L14.88,8.893l-0.481,0.291L13.914,9.43l-0.548,0.241L12.785,9.92l-0.538,0.241
			l-0.738,0.329l-0.636,0.251l-0.31,0.149l-0.396,0.244l-0.422,0.298l-0.301,0.242l-0.129,0.102l-0.197,0.141l-0.353,0.235
			l-0.352,0.267l-0.31,0.267l-0.209,0.292l-0.064,0.137l-0.107,0.259l-0.096,0.274l-0.154,0.359l-0.23,0.436l-0.23,0.406
			l-0.19,0.322l-0.27,0.34l-0.221,0.248l-0.35,0.371l-0.202,0.255l-0.243,0.324l-0.135,0.162l-0.146,0.306l-0.106,0.229
			l-0.056,0.152l-0.018,0.265L5.06,18.261l-0.005,0.14L5.033,18.53l-0.078,0.251l-0.063,0.153l-0.005,0.098l-0.021,0.151
			l-0.05,0.084l-0.014,0.091l0.019,0.021l0.072,0.051l0.225,0.107l0.153,0.116l0.146,0.146l0.088,0.194l0.131,0.2l0.087,0.116
			l0.071,0.044l0.188,0.1l0.072,0.059L6.136,20.6l0.047,0.082l0.031,0.127l0.036,0.052l0.171,0.063l0.115,0.05l0.108,0.065
			l0.082,0.073L6.8,21.2l0.04,0.134l-0.004,0.121l0.008,0.204l0.033,0.203L6.86,21.923L6.829,22.03l-0.05,0.062L6.685,22.2
			l-0.172,0.095l-0.207,0.119l-0.067,0.055l-0.06,0.062L6.13,22.624l-0.049,0.145l-0.134,0.434l-0.174,0.276l-0.227,0.278
			L5.3,23.983l-0.197,0.111l-0.077,0.062L4.916,24.28l-0.135,0.14l-0.094,0.085l-0.121,0.071l-0.087,0.018l-0.244,0.044L4.008,24.69
			l-0.161,0.017l-0.147,0.057l-0.078,0.033l-0.073,0.101l-0.033,0.076l-0.003,0.135l-0.018,0.265l-0.008,0.233l0.027,0.271
			l0.039,0.098l0.154,0.168l0.1,0.052l0.072,0.058l0.049,0.119l0.014,0.136l-0.088,0.08l-0.09,0.101l-0.062,0.078L3.67,26.859
			l-0.051,0.197l0.003,0.145l0.018,0.23l0.018,0.166l-0.015,0.299l-0.029,0.277L3.57,28.41L3.5,28.604l-0.09,0.152l-0.156,0.203
			l-0.117,0.1l-0.141,0.08l-0.144,0.058l-0.214,0.038l-0.383,0.066l-0.124,0.043L2.1,29.373l0.015,0.041l0.064,0.042l0.073,0.026
			l0.046,0.007l0.063,0.042l0.065,0.07l0.14,0.131l0.248,0.219l0.169,0.111l0.193,0.099l0.099,0.019l0.094-0.006l0.087-0.033
			l0.183-0.144l0.305-0.341l0.13-0.15l0.067-0.025l0.068-0.012l0.153,0.038l0.18,0.11l0.24,0.182l0.425,0.397l0.103,0.137
			l0.024,0.054L5.33,30.444l-0.044,0.007l-0.073,0.018l-0.097,0.043l-0.061,0.034L5.051,30.6l0.021,0.094l0.072,0.078l0.122,0.076
			l0.049,0.045l0.016,0.045l0.005,0.053l-0.05,0.027l-0.056,0.052l-0.054,0.062l-0.012,0.055l-0.008,0.062l0.006,0.085l0.051,0.073
			l0.063,0.091l0.057,0.058l0.031,0.067l0.005,0.052l-0.017,0.051l-0.056,0.082L5.223,31.87l-0.08,0.046l-0.08,0.014L4.9,31.902
			l-0.115,0.004l-0.081,0.013l-0.038,0.035l-0.04,0.063l0.017,0.08l0.048,0.116l-0.014,0.054l-0.062,0.029l-0.067,0.021
			l-0.044,0.025l-0.02,0.07l0.02,0.061l0.003,0.094l-0.041,0.07l-0.076,0.03l-0.039,0.054l0.012,0.051l0.017,0.104l0.061,0.096
			l0.043,0.07l0.015,0.045l-0.031,0.034l-0.05,0.026L4.37,33.195L4.355,33.23l0.016,0.074l0.02,0.088l0.021,0.098l0.002,0.062
			l-0.045,0.049l-0.155,0.103l-0.237,0.181l-0.203,0.143l-0.139,0.08L3.517,34.16l-0.053,0.064l-0.041,0.064l-0.018,0.055
			l0.005,0.071l0.019,0.106l0.053,0.093l0.047,0.063l0.104,0.094l0.019,0.006l0.041,0.061l-0.001,0.047l-0.02,0.037L3.61,34.955
			l-0.114,0.009l-0.049,0.009l-0.096,0.043L3.32,35.078l0.012,0.056l0.04,0.032l0.025,0.039l0.007,0.057l-0.019,0.045l-0.018,0.051
			l-0.001,0.048l-0.022,0.047l-0.05,0.026L3.262,35.48L3.22,35.467l-0.076,0.008L3.09,35.482l-0.038,0.029L2.996,35.54L2.93,35.564
			l-0.059-0.01l-0.04-0.031l-0.05-0.025l-0.054,0.008l-0.047,0.018l-0.02,0.041l0.003,0.043l0.016,0.068l0.018,0.034l0.01,0.026
			l-0.014,0.037l-0.031,0.025l-0.065,0.042l-0.046,0.007l-0.059-0.002L2.439,35.83l-0.107-0.001l-0.039-0.005l-0.053-0.02
			l-0.051-0.025l-0.067-0.016L2.05,35.766l-0.077,0.008l-0.04,0.016l-0.026,0.02l-0.023,0.021l-0.008,0.053l0.026,0.033l0.04,0.046
			l0.033,0.02l0.014,0.028l-0.013,0.024l-0.051,0.035l-0.037,0.066L1.815,36.27L1.71,36.557l-0.057,0.127l-0.061,0.193l-0.015,0.042
			l-0.022,0.044l-0.074,0.059l-0.084,0.018l-0.109,0.048l-0.141,0.039l-0.166,0.045L0.89,37.23l-0.043,0.068l-0.073,0.137
			l-0.062,0.127l-0.079,0.09l-0.057,0.06l-0.033,0.097l-0.005,0.066l0.007,0.077l0.044,0.171l0.036,0.132l0.086,0.097l0.168,0.139
			l0.229,0.205l0.142,0.087l0.073,0.019l0.187,0.012l0.174-0.014l0.117-0.003l0.042,0.033l0.081,0.073l0.239,0.216l0.354,0.323
			l0.183,0.108l0.101-0.001l0.153-0.05l0.146-0.078l0.09,0.067l0.122,0.094l0.116,0.129l0.059,0.096l0.009,0.079l-0.008,0.041
			l-0.054,0.058l-0.087,0.063L3.33,40.082l0.002,0.062l0.004,0.137l-0.047,0.05l-0.11,0.03l-0.088,0.016l-0.07,0.043l-0.047,0.057
			l-0.037,0.117l0.011,0.082l0.059,0.047l0.131,0.143l0.225,0.277l0.099,0.125l0.001,0.043l-0.021,0.075l-0.07,0.058l-0.26,0.136
			l-0.244,0.129l-0.283,0.149L2.338,41.98l-0.062,0.028l-0.008,0.028l-0.007,0.055l0.05,0.041l0.041,0.061l0.002,0.043l-0.039,0.041
			l-0.046,0.07l-0.014,0.084l0.032,0.047l0.004,0.09v0.027l-0.023,0.008l-0.055,0.015l-0.099-0.026l-0.071-0.025l-0.12-0.025
			l-0.04,0.008l-0.07,0.062l-0.03,0.076l-0.036,0.111l-0.037,0.077l0.002,0.062l0.036,0.158l0.046,0.107l0.033,0.068l0.021,0.088
			l0.037,0.192l0.004,0.146l0.05,0.067l0.122,0.08l0.111,0.004l0.177,0.003l0.217,0.037l0.097,0.025l0.105,0.06l0.081,0.046
			l0.104,0.025l0.097-0.002l0.143-0.037l0.167-0.045l0.136-0.023l0.191,0.01l0.113,0.031l0.088,0.006l0.03-0.05l0.019-0.172
			l0.043-0.215l0.069-0.077l0.069-0.043l0.231-0.012l0.418,0.053l0.515,0.127l0.322,0.09l0.138,0.088l0.154,0.092l0.107,0.102
			l0.073,0.123l0.035,0.109L6.104,44.4l0.021,0.117l0.05,0.09l0.064,0.08l0.11,0.069l0.112,0.042l0.085,0.087l0.04,0.054
			l-0.009,0.067l-0.04,0.034H6.419l-0.134-0.059l-0.164-0.088L5.98,44.859l-0.113,0.016l-0.053,0.021L5.713,45l-0.062,0.074
			l-0.074,0.017l-0.118-0.013l-0.066-0.041l-0.059-0.059L5.28,44.91l-0.045-0.098l-0.033-0.029l-0.047-0.012L5.068,44.77
			l-0.187,0.022L4.796,44.82L4.74,44.895l-0.015,0.098l-0.001,0.052l-0.026,0.022h-0.04l-0.032-0.006l-0.035-0.031l-0.033-0.035
			l-0.079-0.029L4.432,44.97l-0.033,0.034l-0.034,0.074l0.005,0.092l0.032,0.075l0.04,0.046l0.025,0.086l-0.027,0.052l-0.054,0.04
			L4.279,45.49l-0.12-0.012l-0.139-0.054L3.961,45.4H3.914l-0.04,0.018l-0.049,0.068l-0.061,0.115l-0.028,0.104l0.026,0.046
			l0.06,0.006l0.062-0.005l0.086,0.001l0.04,0.028l-0.001,0.063l-0.127,0.097l-0.103,0.086l-0.021,0.068l-0.001,0.098l0.024,0.086
			l0.072,0.082l0.066,0.074l0.167-0.033l0.209-0.064l0.066-0.032l0.077-0.032l0.055-0.018l0.046,0.004l0.046,0.021l0.059,0.041
			l0.061,0.035l0.091,0.032l0.121,0.017l0.086,0.008l0.069-0.006l0.061-0.029l0.023-0.036l-0.014-0.017l-0.059-0.021l-0.069-0.019
			l-0.088-0.02l-0.032-0.016L4.89,46.23l0.025-0.013l0.039-0.001l0.032,0.007l0.035,0.013l0.037,0.008L5.1,46.249l0.052-0.005
			l0.036,0.002l0.062,0.011l0.068,0.009l0.038,0.003l0.021,0.009l0.019,0.004l0.008-0.012l-0.052-0.035l-0.027-0.137l0.01-0.146
			l0.037-0.105l0.073-0.064l0.083-0.016l0.129-0.021l0.062,0.017l0.041,0.06l-0.001,0.071l0.003,0.162l0.018,0.103l0.047,0.08
			l0.094,0.067l0.085,0.036l0.079,0.007l0.095,0.011l0.12,0.014l0.056,0.005l0.063-0.112l0.053-0.161l0.07-0.062l0.119,0.012
			l-0.038-0.102l-0.057-0.066l-0.017-0.086l0.003-0.066l0.004-0.037l0.032-0.074l0.039-0.055l0.053-0.027l0.059-0.025l0.057-0.007
			h0.09l0.076,0.009l0.038,0.062l0.045,0.181l0.022,0.177l0.028,0.066l0.046,0.057l0.07-0.002l0.063-0.029l0.113-0.088l0.107-0.066
			l0.069-0.027l0.072,0.008l0.057,0.036l0.035,0.082l0.02,0.17l0.021,0.086l0.036,0.064l0.073,0.006l0.143,0.006l0.24,0.013
			l0.14,0.006l0.06,0.004l0.027,0.004l-0.001,0.014l-0.021,0.021l-0.054,0.028l-0.063,0.058L8.336,46.49l0.018,0.027l0.009,0.012
			l0.057,0.017l0.311,0.063l0.163,0.021l0.129,0.018l0.07,0.006l0.088-0.011l0.076-0.016l0.073-0.027l0.058-0.063L9.418,46.5
			l0.022-0.053l-0.01-0.035l0.006-0.029l-0.058-0.132l-0.036-0.173l0.003-0.15l0.011-0.078l0.016-0.025l0.063-0.019L9.5,45.805
			l0.122,0.033l0.145,0.007l0.095-0.001l0.08-0.027l0.025-0.041l0.013-0.06V45.65l-0.006-0.065l-0.013-0.159l-0.021-0.312
			l0.016-0.127l0.051-0.045l0.058-0.037l0.062-0.016l0.075-0.029l0.079-0.059l0.027-0.037l0.026-0.059l0.004-0.043l-0.021-0.078
			l-0.021-0.057l-0.043-0.064l-0.077-0.021L10,44.42l-0.164-0.008l-0.182-0.017l-0.07-0.043l-0.042-0.056l-0.013-0.062l-0.001-0.09
			l0.011-0.102l0.052-0.135l0.035-0.065l0.029-0.026l0.052-0.013l0.047,0.015l0.029,0.033l0.028,0.034l0.122,0.095l0.053,0.041
			h0.035l0.058-0.046l0.046-0.047l0.035-0.032l0.081-0.007l0.081-0.005l0.029-0.014l0.017-0.045l0.006-0.08l0.009-0.103l0.014-0.136
			l0.035-0.096l0.054-0.076l0.082-0.069l0.121-0.042l0.186-0.035l0.19-0.031l0.15-0.041l0.127-0.082l0.153-0.127l0.054-0.074
			l0.053-0.079l0.009-0.042l-0.017-0.048l-0.016-0.042l-0.021-0.036l-0.003-0.072l0.021-0.065l0.018-0.029l0.055-0.042l0.091-0.007
			l0.04,0.007l0.048,0.083l0.013,0.12l-0.004,0.108l0.021,0.072l0.033,0.023l0.063-0.006l0.058-0.023l0.06-0.055l0.049-0.084
			l0.013-0.066l0.005-0.154l0.035-0.125l0.026-0.094l0.024-0.047l0.049-0.046l0.047-0.029l0.052-0.006h0.046l0.056,0.022
			l0.043,0.047l0.015,0.082l-0.01,0.106l-0.095,0.25l-0.088,0.353l-0.001,0.074l0.029,0.049l0.057,0.043l0.214,0.031l0.196-0.013
			l0.104-0.012l0.069-0.031l0.034-0.03l0.023-0.031l-0.003-0.096l-0.027-0.146l-0.031-0.206l0.009-0.125l0.021-0.137l0.033-0.159
			l0.074-0.279l0.047-0.121l0.003-0.057l-0.021-0.029l-0.043-0.045l-0.098-0.067l-0.044-0.033L13,41.433l0.025-0.051l0.054-0.028
			l0.067-0.012l0.145-0.029l0.119-0.012l0.119-0.006l0.09,0.005l0.05,0.022l0.023,0.062l-0.01,0.067l-0.039,0.092l-0.076,0.138
			l-0.153,0.255L13.3,42.258l-0.034,0.221l0.005,0.041l0.068,0.043l0.058,0.018l0.028,0.035l0.052,0.013l0.068-0.006l0.094-0.05
			l0.104-0.09l0.169-0.156l0.068-0.047l0.063-0.006l0.074,0.012l0.092,0.022h0.062l0.062-0.006l0.053-0.024l0.1-0.131l0.048-0.059
			l0.019-0.064l0.001-0.022l-0.01-0.041l-0.073-0.052l-0.056-0.059l-0.042-0.104l0.002-0.057l0.036-0.047l0.059-0.023l0.081-0.028
			l0.177-0.007l0.04-0.012l0.035-0.013l0.022-0.071l0.033-0.097l0.038-0.073l0.049-0.074l0.065-0.059l0.164-0.091l0.133-0.035
			l0.084,0.005l0.055,0.043l0.056,0.039l0.08-0.012l0.036-0.021l0.052-0.029l0.027,0.017l-0.003,0.062l-0.039,0.098l-0.015,0.098
			l0.019,0.107l0.017,0.046l0.038,0.051l0.073,0.046l0.106,0.004l0.195-0.024l0.305-0.048l0.247-0.077l0.069-0.041l0.03-0.093
			l0.003-0.045l-0.017-0.058l0.017-0.103l0.023-0.045l0.033-0.131l0.044-0.09l0.024-0.041l0.022-0.012l0.04-0.006l0.033,0.027
			l0.02,0.067l0.013,0.113l0.029,0.106l0.017,0.045l0.062,0.012l0.063,0.005l0.058-0.013l0.029-0.028l0.049-0.103l0.042-0.063
			l0.036-0.046l0.022-0.021l0.045-0.007l0.062,0.017l0.05,0.045l0.067,0.011l0.086-0.001l0.074-0.045l0.076-0.074l0.039-0.113
			l0.021-0.057l0.053-0.04h0.018h0.022l0.068,0.028l0.046-0.019l0.047-0.054l0.049-0.098l0.06-0.271l0.021-0.062l0.036-0.019
			l0.071,0.009l0.061,0.025l0.052,0.034l0.043,0.034h0.045l0.08-0.018l0.04-0.078l0.006-0.08L18.7,40.002l-0.04-0.069l-0.019-0.138
			l-0.008-0.146l-0.015-0.152l-0.026-0.119l-0.052-0.109l-0.125-0.099l-0.16-0.064l-0.093-0.049l-0.021-0.065l0.008-0.076
			l0.017-0.066l0.142-0.168l0.05-0.05l0.081-0.093l0.045-0.008l0.054-0.002l0.053,0.064l0.039,0.049l0.067,0.016l0.097,0.006
			l0.422-0.018l0.239-0.013l0.076,0.015l0.031,0.043v0.092l-0.072,0.662l0.031,0.06l0.053,0.017l0.034,0.01l0.103-0.062l0.072-0.018
			l0.041,0.024l0.024,0.034l-0.001,0.138l-0.002,0.043l0.023,0.044l0.061,0.024h0.071l0.116-0.027l0.1-0.034l0.094-0.078
			l0.062-0.123l0.024-0.104l-0.014-0.061l-0.028-0.103l-0.042-0.137l0.005-0.068l0.012-0.026l0.048-0.043l0.046-0.017l0.151-0.034
			l0.064-0.035l0.082-0.035l0.064-0.034l0.026-0.11l-0.007-0.025l-0.015-0.033l-0.087-0.018h-0.098l-0.145,0.045l-0.127,0.035
			h-0.123l-0.052-0.016l-0.021-0.042l0.009-0.101l0.019-0.094l0.034-0.076l0.039-0.041l0.037-0.026l0.046-0.017l0.062-0.002
			l0.061,0.008l0.071-0.01l0.046-0.017l0.028-0.026l0.021-0.024l0.038-0.082l-0.009-0.083l-0.07-0.073l-0.066-0.024l-0.11-0.021
			l-0.14-0.005l-0.102-0.03l-0.046-0.039l-0.02-0.049l-0.003-0.242l0.029-0.146l0.007-0.049l0.052-0.049l0.066-0.041l0.072-0.026
			l0.088-0.011l0.07-0.01l0.112,0.051l0.15,0.037l0.118,0.021l0.112-0.002l0.062-0.019l0.048-0.033l0.021-0.018l0.004-0.023
			l-0.028-0.112l-0.047-0.198l-0.057-0.125l-0.028-0.031h-0.069l-0.081,0.002l-0.058-0.032l-0.029-0.05l0.011-0.115l0.032-0.116
			l0.076-0.101l0.138-0.084l0.125-0.02l0.141,0.021l0.105,0.056l0.133,0.122l0.031,0.16l-0.024,0.16l0.004,0.089l0.007,0.071
			l0.03,0.031l0.098,0.038l0.102,0.03l0.06,0.007l0.062-0.009l0.058-0.042l0.061-0.066l0.059-0.099l0.037-0.025l0.02-0.008h0.025
			l0.033,0.016l0.023,0.008l0.021,0.033l0.045,0.057l0.075,0.016l0.065-0.033l0.028-0.017l0.018-0.065l0.028-0.084l0.006-0.041
			l0.022-0.041l0.048-0.033l0.075-0.051l0.032-0.041l0.02-0.066l0.006-0.098l0.004-0.082l0.029-0.082l0.071-0.073l0.054-0.058
			l0.081-0.027l0.131-0.012l0.152-0.041l0.142-0.066l0.102-0.047l0.066-0.03l0.094-0.06l0.078-0.023l0.033-0.004l0.014,0.025
			l0.188-0.008l0.162-0.063l0.006-0.062l0.029-0.021l0.067-0.088l0.124-0.261l0.098-0.123l0.049-0.055l0.109-0.012l0.121,0.006
			l0.164,0.021l0.083-0.004l0.036-0.08l-0.019-0.176l-0.015-0.177l0.048-0.146l0.049-0.063l0.108-0.147l0.138-0.082l0.12-0.01
			l0.15,0.012l0.132,0.017l0.064-0.024l0.05-0.056l0.018-0.09l-0.003-0.239l0.008-0.175l0.051-0.056l0.06-0.008l0.061,0.037
			l0.04,0.074l0.042,0.114l0.093,0.075l0.062,0.033l0.061-0.031l0.027-0.09l-0.002-0.086l-0.002-0.103l0.039-0.057l0.05-0.009
			l0.071,0.025l0.051,0.031l0.033,0.107l0.015,0.098l0.034,0.077l0.063,0.044l0.096,0.017l0.053,0.001l0.062-0.031l0.075-0.072
			l0.058-0.079l0.059-0.063l0.092-0.022l0.095,0.006l0.037,0.021l0.037,0.062l0.067,0.017l0.065-0.019l0.07-0.044l0.131-0.141
			l0.062-0.113l0.063-0.077l0.053-0.05l0.054-0.038l0.104-0.063l0.288-0.15l0.198-0.094l0.099-0.025h0.044l0.033,0.025l0.008,0.084
			l-0.006,0.105l0.011,0.121l0.065,0.104l0.136,0.053l0.188-0.021l0.115-0.059l0.08-0.045l0.107,0.004l0.124-0.023l0.056-0.046
			l0.053-0.101l0.019-0.153l-0.01-0.106l-0.048-0.062l-0.083-0.002l-0.161-0.407l-0.153-0.229l-0.02-0.202l0.006-0.185l0.036-0.255
			l0.035-0.198l0.061-0.172l0.066-0.135l0.029-0.102l-0.027-0.098l-0.063-0.094l-0.067-0.102l-0.034-0.078l0.037-0.149l0.03-0.077
			l0.06-0.109l0.104-0.104l0.11-0.089l0.088-0.044l0.044-0.062l0.01-0.062l-0.009-0.053l-0.042-0.08L29.503,29.7l-0.048-0.089
			l0.01-0.112l0.023-0.081l0.055-0.066l0.164-0.104l0.161-0.099l0.202-0.09l0.207-0.082l0.115-0.054l0.062-0.042l0.063-0.1
			l0.085-0.116l0.077-0.118l0.073-0.048l0.104-0.019l0.067-0.006l0.087-0.009l0.101-0.034l0.087-0.037l0.057-0.103l0.025-0.116
			l0.015-0.21l-0.049-0.139l-0.087-0.099l-0.189-0.057l-0.058-0.056l-0.003-0.101l0.044-0.17l0.08-0.16l0.122-0.235l0.145-0.253
			l0.158-0.27l0.099-0.135l0.121-0.15l0.134-0.112L32,25.887l0.164-0.105l0.204-0.153l0.126-0.086l0.138-0.013l0.186,0.015
			l0.16,0.022l0.129-0.015l0.125-0.058l0.104-0.069l0.115-0.137l0.066-0.106l0.068-0.035l0.03,0.008l0.021,0.041l0.05,0.082
			l0.079,0.039l0.112,0.012l0.084-0.002l0.106,0.002l0.033,0.029l0.021,0.041l0.015,0.039l0.066,0.021l0.134,0.001h0.156
			l0.161-0.035l0.096-0.042l0.051-0.053l0.042-0.083l0.049-0.095l0.061-0.144l0.058-0.051l0.077-0.033l0.096-0.014l0.122-0.022
			l0.169-0.062l0.148-0.081l0.149-0.109l0.231-0.19l0.107-0.133l0.065-0.134l0.077-0.147l0.082-0.131l0.092-0.08l0.05-0.082
			l0.043-0.14l0.061-0.172l0.021-0.067l0.031-0.021l0.071,0.009l0.157,0.028l0.188,0.035l0.096,0.015l0.07-0.013l0.062-0.042
			l0.037-0.042l0.016-0.054l0.006-0.062l-0.048-0.089l-0.057-0.113l0.003-0.121l0.067-0.056l0.071-0.019l0.166,0.002l0.077-0.062
			l0.052-0.088l0.086-0.06l0.119,0.013l0.133,0.03l0.129-0.013l0.108-0.083l0.179-0.174l0.126-0.143l0.058-0.051l0.066-0.028
			l0.119-0.037l0.155-0.1l0.267-0.189l0.362-0.261l0.161-0.12l0.096-0.121l0.063-0.1l0.024-0.1l0.047-0.261l0.057-0.158l0.054-0.066
			l0.081-0.074l0.062-0.093l0.075-0.19l0.086-0.252l0.089-0.236l0.067-0.141l0.072-0.098l0.099-0.104l0.104-0.098l0.021-0.073
			l-0.015-0.061L40.77,19.15l-0.121-0.12l-0.102-0.13l-0.11-0.182l-0.043-0.131l-0.019-0.132l0.01-0.162l0.01-0.141l0.025-0.108
			l0.046-0.097l0.068-0.091l0.103-0.113l0.113-0.074l0.152-0.116l0.027-0.037l0.038-0.098L41,17.311l0.025-0.081l0.029-0.043
			l0.098-0.049l0.031-0.043l0.003-0.042l-0.011-0.141l-0.044-0.206l-0.1-0.206l-0.174-0.351L40.81,16l0.021-0.111l0.028-0.051
			l0.099-0.058l0.056-0.046l0.008-0.113l-0.073-0.155l-0.143-0.147l-0.118-0.096l-0.163-0.083l-0.077-0.098l-0.093-0.182
			l-0.032-0.157l0.04-0.129l0.03-0.143l-0.005-0.07l-0.084-0.123l-0.118-0.096l-0.125-0.074l-0.16-0.002l-0.131,0.028l-0.156,0.114
			l-0.175,0.087l-0.098,0.012l-0.094-0.09l-0.113-0.026l-0.175,0.042l-0.171,0.076l-0.248,0.105l-0.261,0.148l-0.156,0.114
			l-0.215,0.044l-0.214-0.048l-0.342-0.158l-0.282-0.122l-0.154-0.023l-0.13,0.028l-0.143,0.071l-0.197,0.117l-0.193,0.152
			l-0.232,0.144l-0.173,0.168l-0.242,0.176l-0.234,0.154l-0.255,0.127l-0.136,0.05l-0.209,0.022l-0.192-0.031l-0.193-0.067
			l-0.309-0.138l-0.104-0.093l-0.04-0.09l-0.148-0.217l-0.205-0.253l-0.205-0.253l-0.232-0.203l-0.171-0.188l-0.179-0.121
			l-0.174-0.096l-0.199-0.092l-0.19-0.123l-0.068-0.084l-0.064-0.095l0.008-0.113l0.032-0.108l0.045-0.059l0.063-0.032l0.101-0.054
			l0.288-0.124l0.258-0.125l0.104-0.077l0.072-0.091l0.019-0.059l0.003-0.081l-0.054-0.163l-0.009-0.115l-0.008-0.073l-0.03-0.068
			l-0.041-0.051l-0.038-0.029l-0.021-0.043l0.058-0.137l0.048-0.231l-0.022-0.173l-0.008-0.091l0.013-0.116l0.01-0.082l0.029-0.088
			l0.047-0.117l0.021-0.077l0.006-0.042l-0.005-0.049l-0.021-0.061l-0.032-0.067l-0.041-0.064l-0.057-0.039l-0.12-0.036l-0.148-0.04
			l-0.091-0.004l-0.062,0.007l-0.104-0.001l-0.078-0.004l-0.075-0.007l-0.096-0.021l-0.046-0.032l-0.027-0.032l-0.005-0.042
			l0.021-0.06l0.046-0.092l0.029-0.053l0.055-0.031l0.058-0.042l0.033-0.021l0.019-0.035V9.947L32.332,9.89l-0.008-0.053
			l-0.054-0.029l-0.074-0.011l-0.235-0.033l-0.169-0.029l-0.091-0.043l-0.049-0.036l-0.021-0.05l-0.009-0.049l0.01-0.05l0.024-0.074
			l0.051-0.208l0.029-0.106l0.039-0.092l0.025-0.091l0.009-0.099l0.018-0.106l0.014-0.127l0.002-0.148l0.005-0.092l0.017-0.099
			l0.031-0.127l0.012-0.071l0.002-0.162l-0.003-0.18l-0.011-0.163L31.881,7.47l-0.037-0.067l-0.115-0.132l-0.102-0.124l-0.111-0.125
			l-0.094-0.106l-0.074-0.061L31.275,6.81l-0.106-0.05l-0.183-0.075l-0.26-0.076l-0.193-0.076l-0.234-0.082L30.138,6.39l-0.16-0.079
			L29.768,6.2L29.59,6.117l-0.173-0.075L29.24,5.975l-0.211-0.05l-0.206-0.068l-0.363-0.1l0.42-0.455l-0.166-0.057L28.58,5.203
			l-0.106-0.017l-0.078-0.001l-0.049-0.026l-0.052-0.047l-0.022-0.064l0.002-0.046l0.01-0.056l0.031-0.069l0.068-0.093l0.063-0.068
			l0.019-0.07L28.465,4.58l-0.021-0.05l-0.025-0.057l-0.04-0.046l-0.057-0.079l-0.07-0.089l-0.083-0.125l-0.05-0.1l-0.034-0.092
			l-0.03-0.095l-0.013-0.106l0.002-0.078l0.011-0.073l0.001-0.042l0.002-0.032L28.042,3.47L28.03,3.431l0.007-0.046l0.005-0.038
			l0.018-0.049l-0.006-0.049l-0.021-0.043l-0.026-0.032l-0.049-0.029l-0.077-0.027l-0.173-0.004h-0.124l-0.085-0.003l-0.091-0.006
			l-0.09-0.009l-0.051,0.006l-0.148,0.021l-0.188,0.048l-0.133,0.067l-0.151,0.081l-0.074,0.026h-0.046l-0.053-0.012l-0.061-0.047
			L26.37,3.24l-0.04-0.054l-0.066-0.093l-0.087-0.107l-0.052-0.061l-0.08-0.065l-0.094-0.069l-0.035-0.019l-0.077-0.034
			l-0.122-0.056l-0.15-0.053L25.407,2.58l-0.149-0.053L25.09,2.488l-0.144-0.035l-0.028-0.018l-0.045-0.049l-0.02-0.036l0.006-0.045
			l0.026-0.049l0.067-0.069l0.083-0.043l0.08-0.062l0.047-0.052l0.026-0.031l0.006-0.049l0.034-0.24l-0.188-0.356l-0.066-0.01
			l-0.066-0.029l-0.076-0.033l-0.13-0.037l-0.142-0.036l-0.183-0.018l-0.114,0.005l-0.133,0.035l-0.22,0.083l-0.298,0.127
			L23.43,1.486l-0.146,0.021l-0.17-0.015l-0.127-0.039l-0.09-0.049l-0.025-0.037l-0.02-0.043l-0.019-0.081l-0.032-0.127
			l-0.095-0.211l-0.112-0.224L22.474,0.457"/>
	</g>
</g>
<g id="Layer_1">
</g>
</svg>
