<?xml version="1.0" encoding="utf-8"?>
<!-- Generator: Adobe Illustrator 16.0.4, SVG Export Plug-In . SVG Version: 6.00 Build 0)  -->
<!DOCTYPE svg PUBLIC "-//W3C//DTD SVG 1.1//EN" "http://www.w3.org/Graphics/SVG/1.1/DTD/svg11.dtd">
<svg version="1.1" id="Layer_1" xmlns="http://www.w3.org/2000/svg" xmlns:xlink="http://www.w3.org/1999/xlink" x="0px" y="0px"
	 width="301.078px" height="324.223px" viewBox="-136.592 -147.129 301.078 324.223"
	 style="enable-background:new -136.592 -147.129 301.078 324.223;" xml:space="preserve">
<g id="Layer_95">
	<path id="Naushahro_Feroze" style="fill:#CCCCCC;stroke:#FFFFFF;stroke-width:1.15;" d="M-81.72,167.164L-81.72,167.164
		l0.697,0.908l1.067,0.392l0.897,0.231l1.299,0.201l0.972,0.106l1.342,0.041l1.383-0.063l2.683-1.352l1.901-1.88l0.19-2.599
		l0.697-2.038l0.612-1.299l1.426-2.091l1.626-1.584l1.648-1.036l2.038-1.13l2.925-0.57l2.377-0.021l3.38,0.909l2.788,0.58
		l2.038,1.057l3,1.373l0.929,0.179h0.412l0.412-0.263l1.184-1.574l0.918-1.299l0.697-1.5l0.708-0.93l1.319-0.612l1.12-0.476
		l1.035-0.686l0.295-0.846l0.212-0.824l1.215-1.215l0.929-1.171l1.638-1.078l2.038-2.472l0.908,1.458l0.665,0.338l0.835,0.708
		l0.939,1.278l0.307,0.918l0.687,0.739l0.729,0.265l1.331,0.231l0.412,0.212l0.411,1.173l0.55,1.023l1.119,0.677l1.353,0.443
		l0.823,0.096h0.719l0.929,0.548l0.634,0.92l0.94,0.676l1.13,0.358l1.563,0.222l1.869-0.01l0.94,0.084l0.4,0.37l0.307,0.549
		l0.423,0.75l0.929,0.454h0.697l0.813-0.011l0.718,0.358l0.507,0.381l0.835-0.021l1.341-0.603l1.131-0.096l1.225,0.085l1.353,0.454
		l3.918,0.708h0.623l1.13-0.232l1.447-1.12l0.697-0.464l1.119-0.485l1.226-0.275l0.823-0.231l0.623-0.381l0.307-0.359l0.253-0.676
		l0.412-0.782l1.046-0.676l0.95-0.465l0.665-0.507l0.285-1.034l0.413-0.824l0.623-0.696l0.01-0.169l0.381-0.593l0.464-0.4
		l0.888-0.401l0.992-0.328l0.233-0.073l1.256-0.423l1.584-0.676l0.855-0.338l1.078-0.232l1.352-0.212l1.405,0.022l2.481,0.189
		l2.472,0.285l3.38,0.053l1.785,0.042l2.08,0.031l1.13,0.244l1.331,0.538l1.373,0.307l1.119-0.105l1.743-0.254l2.566-0.296
		l2.472-0.063l3.326-0.085l2.028,0.075l2.481-0.223l1.426-0.296l0.528-0.527l0.232-0.729l0.169-0.834l0.518-1.12l0.38-0.591
		l0.993-0.877l1.796-1.415l1.541-0.687L68,138.774l1.31-0.169l0.888-0.369l0.676-0.56l1.066-0.739l1.468-0.666l1.839-0.285
		l2.471-0.274l2.482-0.285l0.771-0.073l0.677-0.085l2.545-0.275l1.986-0.422l3.568-0.676l3.433-0.665l3.961-0.855l3.528-0.624
		l3.369-0.559l2.091-0.381l2.936-0.222l2.472-0.159l2.577,0.254l3.369,0.127l1.542,0.084l1.194,0.138l2.481,0.666l2.376,0.422
		l2.958-0.043h0.665l-0.56-0.823l-1.004-1.457l-0.676-0.466l-2.397-0.78l-3.264-0.729l-3.011-0.688l-2.048-0.485l-2.789-0.507
		l-2.883-0.222l-3.38,0.041l-2.027-0.369l-2.366-0.781l-1.469-0.507l-4.425-1.732l-3.21-1.204l-3.391-0.887l-1.531-0.529
		l-0.845-0.348l-0.255-0.538l-0.01-0.993l-0.349-2.038l-0.148-1.574l-0.053-0.665l-0.094-2.926l-0.043-1.911l0.189-0.561
		l1.015-1.162l1.172-1.531l1.584-2.017l0.56-1.438l0.444-2.027l0.232-1.858l0.761-1.816l0.93-2.038l0.729-2.588l0.57-1.711
		l0.507-2.134l0.391-2.429l0.718-2.641l0.74-1.975l0.855-2.588l0.222-0.804l0.897-2.767l0.55-2.429l0.263-2.598l0.265-1.965
		l0.189-1.099l0.708-1.12l1.12-1.183l1.352-1.468l0.877-1.193l0.676-2.303l-2.039-3.833l-0.158-1.173l-0.676-1.795l-0.18-0.635
		l-0.126-0.454l-1.024-1.721l-0.56-1.427l-0.328-1.173l0.073-0.961l0.139-1.119l0.802-1.468l0.634-1.627l0.38-1.879l0.486-2.123
		l0.211-3.147l0.085-3.2l0.148-1.395l0.221-1.12l0.327-1.404l0.212-1.742l0.486-2.038l0.231-1.511l0.401-1.552l0.666-1.052
		l1.742-2.725l1.289-2.376l0.95-1.32v-0.348l-0.222-0.291l-0.855-0.126l-1.278-0.069l-1.669-0.227l-0.95-0.343l-0.888-0.422
		l-0.137-0.422l0.063-0.238l0.549-0.227l1.353-0.237l1.985-0.423l1.193-0.433l1.679-1.125l2.07-1.753l0.94-1.579l1.689-2.086
		l1.574-2.118l1.352-1.949l1.489-2.477l1.13-1.643l1.627-2.35l1.753-2.984l0.349-0.766l0.761-1.711l1.13-2.725l1.499-4.002
		l1.416-3.407l0.729-2.186l0.391-0.787l0.887-0.972l0.813-0.47l2.661-0.766l3.972-1.458l4.056-1.817l1.753-1.462l2.312-1.859
		l3.043-3.116l2.218-3.095l0.961-1.753l1.193-1.579l1.131-1.479l0.992-2.239l1.731-3.697l0.646-2.793l0.232-2.931l0.242-2.778
		l-0.317-2.931l-0.475-2.888l-0.888-2.92l-0.812-1.838l-0.085-0.227l-0.812-1.949l-0.676-1.156l-0.677-1.025l-0.718-0.222
		l-0.623-0.56l-0.856-0.94l-0.812-0.929l-1.12-0.813l-1.172-1.711l-1.584-1.986l-0.803-1.32l-0.232-0.998l-0.254-1.964l-0.465-0.803
		l-0.539-1.272l-0.105-0.359l-0.232-0.724l-0.696-1.125l-1.193-1.373l-1.172-1.236l-1.184-1.125l-2.112-1.373l-2.25-1.167
		l-2.746-1.383l-2.376-1.236l-1.119-0.486l-1.838-0.527l-1.838-0.866l-1.31-0.803l-1.257-0.671l-0.887-0.475l-1.131-0.28
		l-0.592-0.227l-0.591-0.66l-0.285-0.856l-0.148-0.971l0.139-1.041l-0.064-1.125l-0.349-1.125l-0.327-0.628l-0.898-0.222
		l-1.953,0.032l-0.665-0.217l-0.666-0.121l-0.423,0.174l-0.358,0.227h-0.771l-0.189-0.238l0.148-0.649l0.664-1.135l1.099-1.579
		l1.12-1.722l0.253-1.046l0.443-2.102l-0.189-1.167l-0.592-0.539l-0.676-0.67l-0.939-0.497l-0.813-0.576l-0.771-0.607l-0.338-0.422
		l-0.422-0.676l-0.307-0.565l-0.57-1.558l-0.465-0.94l-0.781-0.433l-1.12-0.37l-1.425-0.126l-2.408-0.111l-3.158-0.032l-2.027,0.042
		l-1.923-0.28l-1.731-0.138l-1.585-0.433l-2.145-1.13l-3.009-1.584l-0.845-0.391l-0.666-0.153h-0.539l-0.285,0.227l-0.222,0.792
		l-0.381,1.416l-0.285,0.322l-0.676,0.227l-1.077,0.217l-2.133-0.227l-3.38-0.549l-2.376-0.497l-2.557-0.533l-2.038-0.549
		l-1.849-0.597l-1.192-0.602l-0.37-0.338l-0.392-0.56l-0.348-0.575l-0.476-0.238l-0.718-0.143l-0.845-0.01l-3.813,0.338h-0.834
		l-1.099-0.206l-0.592-0.433l-0.845-0.518l-0.94-0.67l-0.348-0.729l-0.391-0.839l-0.243-0.586l-0.412-0.259l-2.218-0.67l-0.771-0.09
		h-1.183l-0.781-0.222l-0.846-0.586l-1.108-0.692l-0.707-0.349l-0.646-0.063l-0.538,0.174l-0.359,0.227l-0.485,0.354l-0.961,0.834
		l-0.665,0.576l-0.529,0.312l-1.161,0.465l-0.634,0.195h-0.433l-0.338-0.053l-1.142-0.195l-1.689-0.391l-2.112-0.227l-1.669,0.042
		l-1.594,0.227l-1.215,0.306l-1.269,0.776l-2.017,1.257l-1.33,0.93l-2.895,1.922l-1.796,1.093l-1.183,1.04l-1.15,1.003l-1.554,1.711
		l-2.007,1.89l-1.499,1.135l-1.257,0.771l-0.676,0.206l-0.845-0.164L12.679-125l-0.644-0.618l-0.296-0.897l-0.222-0.591
		l-0.254-0.164l-0.411,0.053l-1.025,0.412l-2.472,0.982l-0.823,0.422l-0.369,0.175l-0.307-0.074l-0.381-0.359l-1.098-1.6
		l-0.729-1.04l-0.464-0.227l-1.025-0.01l-0.887,0.195l-1.426,0.67l-1.204,0.682l-0.908,0.845l-0.316,0.507l-0.169,0.38l0.169,0.206
		l0.316,0.365l0.666,0.216l1.425,0.639l1.226,0.544l0.982,0.528l0.476,0.37l0.569,0.623l0.063,0.639l-0.021,0.534l-0.307,0.713
		l-0.433,0.649l-0.898,0.666l-1.425,0.988l-0.909,0.845l-0.771,0.671l-0.592,0.876l-0.676,0.993l-0.729,1.468l-1.226,2.197
		l-0.866,1.494l-0.232,0.876l0.054,0.592l0.412,0.533l1.267,1.209l1.362,0.897l0.845,0.434l1.046,0.939l0.634,0.782l0.612,1.067
		l0.169,1.051l-0.18,1.267l-0.549,0.713l-0.982,0.787l-1.225,0.628l-0.898,0.227l-0.676,0.042l-0.897-0.227l-1.479-0.217L-8-97.345
		l-1.785-0.164l-1.13-0.063h-1.658l-0.919,0.127l-0.592,0.206l-0.476,0.259l-0.58,0.475l-0.265,0.512l-0.169,0.539l0.105,0.518
		l0.243,0.316l0.665,0.539l1.142,0.259l1.542,0.121l2.576,0.433l2.735,0.549l1.849,0.164l0.423,0.153l0.232,0.27l0.053,0.369
		l-0.116,0.417l-0.359,0.206l-0.423,0.217l-1.373-0.011l-1.13,0.042l-1.204-0.063l-2.08-0.38l-2.799-0.539l-2.63-0.497l-2.366-0.67
		l-0.845-0.248l-0.042-0.011l-0.866,0.475l-1.004,0.639l-0.665,0.724l-0.877,1.051l-0.749,0.982l-0.434,0.887l-0.602,1.579
		l-0.381,1.785l-0.222,1.469l-0.011,1.214l-0.01,1.426l-0.053,0.776l-0.116,0.586l-0.539,0.465l-1.119,0.507l-1.585,0.576
		l-1.51,0.312l-0.75,0.422l-0.422,0.227l-1.342,1.093l-0.676,0.929l-0.866,1.732l-0.951,1.933l-0.908,1.589l-0.634,0.988
		l-0.697,0.797l-0.897,0.813l-0.696,0.422l-0.962,0.27l-1.299-0.011l-2.049-0.063l-2.746-0.111l-2.672-0.011l-0.665,0.122
		l-1.5,0.406l-0.845,0.195l-0.888,0.101l-1.225-0.164l-1.236-0.217l-1.668-0.053l-1.901-0.11l-1.785-0.106l-1.584-0.322
		l-1.553-0.222l-1.183-0.385l-0.55-0.042l-0.338,0.105l-0.412,0.238l-0.971,0.845l-0.982,0.195l-0.729,1.014l-1.31,1.093
		l-1.204,0.93l-0.855,0.422l-1.119,0.348l-1.415,0.333l-1.437-0.084l-1.404,0.744l-3.021-0.01l-1.056,0.464l-0.539,0.475
		l-0.359,1.928l0.148,4.13l0.613,0.929l0.433,0.671l2.481,1.125l2.472,0.966l3.358,1.283l4.277,1.463l3.707,0.798l2.482,0.01
		l1.077,0.317l0.338,1.241l0.877,1.278l1.426,0.787l1.056,0.01l1.078-0.475h1.098l0.877,0.486l0.866,1.927l1.721,5.698l0.846,4.436
		l0.316,2.218l-0.897,1.901l-1.774,1.256l-1.965,0.703l-3.368,0.67l-6.021,0.434l-3.549,0.258l-3.369,0.465l-3.021,0.93l-2.83,1.437
		l-1.416,1.13l-0.38,3.644l0.116,0.692l2.187,4.283l1.299,0.929l0.908,0.813l0.919,0.666l0.781,0.739l0.465,1.093l0.18,0.581
		l0.063,0.94l-0.391,1.97l-0.37,0.681L-74-1.99l-0.813,0.776l-1.045,0.513l-1.426,0.433l-1.901,0.063l-2.514,0.031l-0.57,0.228
		l-0.676,0.433l-1.827,1.61l-1.722,1.426l-0.655,0.185l-2.165,0.111l-2.756,0.206l-1.289,0.053l-0.433,0.153l-0.423,0.417
		l-1.479,1.267l-1.415,0.972l-1.13,0.908l-1.067,0.855l-0.338,0.248l-1.446,1.072l-1.658,2.413l-1.69,2.26l-3.2,2.862l-3.739,3.918
		l-2.492,2.862l-1.954,3.338l-0.549,1.911l0.677,3.454l1.034,4.129l1.912,5.566l1.742,4.911l1.584,1.743l0.877,1.446l0.169,0.961
		l-0.56,5.207l0.349,1.722l0.877,1.753l1.404,1.753l2.281,2.028l0.866,2.514l0.507,3.475l-0.908,3.939l-1.616,4.9l-1.437,3.349
		l-0.718,2.218l-0.581,2.017l-1.584,0.961l-3.2,1.109l-2.472,0.169l-0.887,0.646l0.348,2.038l0.317,3.475l1.574,4.741l2.091,3.95
		l2.102,1.447l2.281,0.961l3.876,1.288l1.764,1.269l1.215,2.386l0.518,3.17l-0.56,2.872l-1.426,1.901l-1.415,1.573l-2.662,2.218
		l-1.595,2.038l-1.605,3.454l-1.066,1.89l-1.247,0.771l-2.819,1.437l-1.404,0.951l-1.067,1.13l-1.436,2.979l-2.472,2.492
		l-2.662,2.862l-2.481,1.732l-2.303,1.108l-1.806,1.774l-0.855,1.172l-0.201,0.666l0.043,0.719l0.38,2.186l0.718,2.145l1.204,2.703
		l0.381,0.666l1.319,0.644l1.553,0.676l1.838,0.391l1.806,0.666l1.151,0.327l2.145,0.475l1.384,0.677l1.869,0.823l1.637,1.31
		l2.112,1.638l1.954,1.51l1.795,1.437l1.109,1.162l1.024,0.866l1.362,0.655l0.898,0.242l2.291-0.137l2.292-0.212l2.176-0.423
		l3.517-0.992l1.099-0.296l1.5-0.485l2.831-0.93l1.489-0.634l2.175-0.358l0.877-0.117l0.94,0.222L-81.72,167.164"/>
</g>
<g id="Layer_1_1_">
</g>
</svg>
