<?xml version="1.0" encoding="iso-8859-1"?>
<!-- Generator: Adobe Illustrator 16.0.4, SVG Export Plug-In . SVG Version: 6.00 Build 0)  -->
<!DOCTYPE svg PUBLIC "-//W3C//DTD SVG 1.1//EN" "http://www.w3.org/Graphics/SVG/1.1/DTD/svg11.dtd">
<svg version="1.1" xmlns="http://www.w3.org/2000/svg" xmlns:xlink="http://www.w3.org/1999/xlink" x="0px" y="0px"
	 width="27.875px" height="22.643px" viewBox="0 0 27.875 22.643" style="enable-background:new 0 0 27.875 22.643;"
	 xml:space="preserve">
<g id="Layer_48">
	<g id="Layer_53">
		<path id="Tank" style="fill:#CCCCCC;stroke:#FFFFFF;stroke-width:1.07;" d="M5.371,21.721
			L5.371,21.721l0.008-0.004l0.162-0.082l0.771-0.457h0.001l0.382-0.229l0.157-0.102l0.06-0.063L7,20.69l0.112-0.08l0.15-0.157
			l0.018-0.035l0.031-0.029l0.08-0.193l0.11-0.186l0.103-0.139l0.125-0.134l0,0l0.048-0.046l0.098-0.079l0.165-0.13l0.046-0.037
			l0.012-0.001l0.049-0.004l0.287-0.283l-0.092-0.06l0.008-0.025l-0.087-0.055l-0.122-0.074l-0.055-0.041L8.05,18.859l-0.073-0.076
			l-0.043-0.059l-0.068-0.148l-0.047-0.085L7.76,18.397l-0.014-0.044l-0.01-0.016l-0.029-0.113l0.02-0.145l0.023-0.117l0.078-0.136
			l0.1-0.086l0.096-0.024l0.033-0.013l0.071,0.017l0.271,0.233l0.132,0.152l0.067,0.122l0.186,0.105l0.137,0.049l0.178,0.014
			l0.144,0.005l0.248,0.069l0.23,0.047l0.179,0.002l0.096,0.017l0.039,0.002l0.115,0.025l0.135,0.046l0.263-0.137l0.049-0.002
			l0.053,0.051l0.343-0.086l0.21-0.027l0.173-0.011l0.181-0.011l0.184,0.009l0.129,0.022l0.176,0.053l0.247,0.064l0.088,0.032
			l0.043,0.041l0.038,0.084l0.08,0.019l0.085,0.002l0.097,0.066l0.114,0.003l0.066-0.011l0.155-0.02l0.06-0.029l0.154,0.018
			l0.064,0.021l0.195,0.051l0.182,0.023l0.036-0.015l0.111-0.033l0.055-0.022l0.056,0.052l0.074,0.04l0.082,0.033l0.118-0.025
			l0.126-0.104l0.11-0.06l0.201-0.017l0.113-0.031l0.127-0.102l0.116-0.193l0.047-0.055l0.08-0.004l0.071,0.015l0.087,0.026
			l0.078,0.027l0.023,0.006l0,0l0.096,0.057l0.43-0.057l0.09-0.164l0.058-0.06l0.131-0.019l0.104-0.043l0.271-0.113l0.112-0.062
			l0.126,0.007l0.009,0.004l0.006,0.004l0.074,0.078l0.199-0.013l0.077-0.041l0.178-0.015l0.118,0.117l0.072-0.053h0.006L17.7,17.92
			l0.073-0.058l0.021-0.021l0.131-0.096l0.108-0.109l0.094-0.029l0.096-0.001l0.288,0.106l0.055,0.014l0.087-0.041h0.004l0.128-0.01
			l0.091,0.02l0.102,0.021l0.073,0.026l0.2,0.042l0.145,0.014h0.002l0.018,0.004l0.02,0.002l0.009,0.009l0.025,0.024l0.057,0.034
			l0.103,0.065l0.132,0.039l0.087-0.043l0.13-0.065h0.001l0.076-0.039l0.177-0.183l0.059-0.061l0.259-0.221l0.895-0.984l0.037-0.078
			l0.027-0.119l0.027-0.7l0.002-0.056l-0.004-0.004l-0.001-0.072l0.01-0.209l-0.048-0.274l-0.043-0.207l-0.002-0.03l0,0l0.023-0.543
			l0.005-0.133l0.01-0.129l0.003-0.038l-0.019-0.021L21.46,13.73l0.08-0.178l0.12-0.217l0.046-0.195l0.107-0.01l0.127-0.108
			l0.146-0.134l0.079-0.153l0.025-0.089l0.085-0.156l0.064-0.038l0.21-0.14l0.127-0.115l0.229-0.141l0.234-0.132l0.318-0.156
			l0.069-0.032l0.127-0.042l0.262-0.097l0.05-0.018l0.078-0.03l0.119-0.049l0.159-0.055l0.125-0.038l0.108-0.026l0.132-0.082
			l0.112-0.101l0.062-0.067l0.066-0.095l0.098-0.038l0.133-0.059l0.134-0.092l0.237-0.149l0.084-0.064l0.108-0.064l-0.009-0.01
			l-0.019-0.02h-0.002l-0.334-0.031l-0.05-0.031l0,0l-0.019-0.016l-0.029-0.059l0.006-0.074l0.011-0.068l0.014-0.059l0.008-0.106
			l0.014-0.053l-0.023-0.03l0,0l0.001-0.003l-0.062-0.074l-0.013-0.061l0.034-0.048l0.027-0.056l-0.021-0.069l0.04-0.063
			l0.068-0.066l0.082-0.021h0.054l0.061-0.013l0.012-0.05V9.468l0.007-0.01l0.047-0.754l-0.056-0.108l0.255-0.189l0.135-0.063
			l0.184-0.045l0.085-0.109l0.162-0.165l0.093-0.118l0.055-0.055l0.027-0.012l0.047,0.033l0.041,0.035L26.73,7.9l0.086-0.036
			l0.163-0.118l0.173-0.089l0.083-0.089l0.001-0.002h0.001l0.053-0.084l0.003-0.005l-0.002-0.006l-0.028-0.087l-0.389-0.278
			l-0.09-0.071l-0.021-0.04l-0.042-0.078l0.013-0.02l0.007-0.004l0.128-0.081l0.129-0.074l0.001-0.007l0.021-0.014l0.006-0.095
			l-0.013-0.029l0.031-0.056l0.018-0.021l0.02-0.009l0.026-0.034l0.001-0.019V6.448l0.002-0.04l-0.445-0.357L26.664,6.05
			l-0.596-0.493l-0.01,0.008l-0.014-0.01l-0.256,0.26l-0.026,0.016l-0.081,0.013l-0.596-0.128l-0.047-0.033l-0.05-0.074
			l-0.071-0.048l-0.201-0.055l-0.312-0.362l-0.128-0.052l-0.091-0.025l-0.191-0.02L23.98,5.041l-0.027-0.023l-0.03-0.004
			l-0.006-0.002l-0.098-0.043l-0.013-0.03l0.032-0.09l-0.014-0.026l0,0l-0.006-0.012l-0.004-0.011l-0.008-0.007l-0.017-0.025
			l-0.097-0.078l-0.085-0.078l-0.052-0.052l-0.075-0.018l-0.068-0.052l-0.049-0.101l-0.192-0.103l-0.151-0.081l-0.208-0.112
			l-0.062-0.059l-0.138-0.127V3.903l0,0l0.022-0.048l0.522-0.872l0.146-0.244l0.001-0.014l0.004-0.004l0.018-0.065l-0.03-0.044
			l-0.002-0.001l0,0l-0.408-0.365l-0.017,0.027L22.867,2.28l-0.02,0.005l-0.222,0.053l-0.215,0.051l-0.473,0.113l-0.677,0.163
			l-0.295,0.071l-0.093-0.152l-0.085-0.075l-0.18-0.134l-0.107-0.083l-0.061-0.035l-0.088-0.044L20.272,2.18l-0.118-0.045
			l-0.147-0.066l-0.188-0.076l-0.177-0.048l-0.319-0.25l-0.261-0.204L18.984,1.43l-0.081-0.037l-0.195-0.089l-0.186-0.095
			l-0.044-0.021l-0.15-0.123l-0.136-0.204l-0.177-0.123l-0.178-0.136L17.646,0.67l-0.09,0.072l-0.168,0.133L17.17,1.039
			l-0.123,0.096l-0.095,0.083l-0.067,0.06L16.776,1.34l-0.108,0.053l-0.154,0.124l-0.132,0.125l-0.116,0.142L16.055,2.04
			l-0.069,0.137L15.929,2.33l-0.038,0.145l-0.032,0.158l-0.002,0.059L15.823,2.96l-0.026,0.127l-0.084,0.107l-0.055,0.082
			l-0.053,0.123l-0.044,0.102l-0.035,0.053l-0.08,0.176L15.31,3.95l-0.071,0.115l-0.275,0.419l-0.025,0.074l-0.193,0.167
			l0.008,0.097L14.34,5.308l-0.2,0.236l-0.175,0.05l-0.11,0.092l-0.088,0.131l-0.052,0.085l-0.326,0.202l-0.563,0.349l-0.27,0.191
			l-0.1,0.052L12.259,6.8l-0.197,0.147l-0.215,0.117l-0.162,0.089l-0.073,0.051l-0.007,0.077l-0.039,0.18l-0.013,0.055l-0.114,0.107
			L11.29,7.79l-0.151,0.168l-0.074,0.166l-0.027,0.114l-0.041,0.166l-0.111,0.234v0.089l-0.022,0.09l-0.012,0.049l-0.104,0.069
			l-0.114,0.137l-0.147,0.177l-0.179,0.213l-0.197-0.038l-0.091-0.017L9.893,9.438L9.818,9.427L9.706,9.394L9.587,9.362l-0.158-0.05
			l-0.064-0.02L9.263,9.246L9.154,9.207L9.118,9.193L8.938,9.174L8.559,9.135L8.456,9.11L8.322,9.119L8.227,9.111L8.134,9.103
			L8.021,9.102L7.878,9.043H7.757L7.666,9.07l-0.07,0.023L7.313,9.182l-0.091,0.02L7.137,9.221l-0.108-0.03L6.984,9.17L6.929,9.147
			L6.855,9.113L6.794,9.087l-0.077-0.07L6.686,8.979L6.54,8.878L6.507,8.89L6.452,8.925L6.432,8.952L6.22,9.289l-0.07,0.104
			L5.916,9.74L5.24,10.738L4.93,11.196l-0.159,0.237l-0.079,0.052l-0.163,0.028l-0.062,0.054L4.374,11.7l-0.201,0.293l-0.148,0.149
			l-0.092,0.049l-0.247,0.094l-0.655,0.25l-0.862,0.328l-0.85,0.322L1.31,13.208l-0.128,0.289l-0.045,0.099l-0.034,0.086
			L0.783,14.17l-0.115,0.176l-0.026,0.062l-0.043,0.104l-0.04,0.137l0.036,0.117l0.187,0.599l0.078,0.476l0.312,0.162l0.188,0.031
			l0.474,0.18h0.001l0.1,0.1l0.231,0.566l0.067,0.188L2.061,17.82l0.881,3.158l1.542,0.965l0.158,0.021l0.044,0.068l0.126,0.029
			l0.325-0.252l0.062-0.025L5.371,21.721"/>
	</g>
</g>
<g id="Layer_1">
</g>
</svg>
