<?xml version="1.0" encoding="utf-8"?>
<!-- Generator: Adobe Illustrator 16.0.4, SVG Export Plug-In . SVG Version: 6.00 Build 0)  -->
<!DOCTYPE svg PUBLIC "-//W3C//DTD SVG 1.1//EN" "http://www.w3.org/Graphics/SVG/1.1/DTD/svg11.dtd">
<svg version="1.1" id="Layer_1" xmlns="http://www.w3.org/2000/svg" xmlns:xlink="http://www.w3.org/1999/xlink" x="0px" y="0px"
	 width="301.094px" height="220.731px" viewBox="-136.751 -100.133 301.094 220.731"
	 style="enable-background:new -136.751 -100.133 301.094 220.731;" xml:space="preserve">
<g id="Layer_71">
	<path id="Lahore" style="fill:#CCCCCC;stroke:#FFFFFF;stroke-width:1.15;" d="M102.311-95.939L102.311-95.939l-13.468,3.04
		l-0.94-0.011l-0.877,0.011l-0.812,0.155l-0.492,0.336l-0.47,0.706l-0.749,0.93l-1.047,1.314l-1.005,1.101l-1.752,0.898
		l-1.593,0.625L77.61-86.31l-0.867,0.069l-0.683,0.182l-0.406,0.342l-0.472,0.765l-1.217,2.067l-0.931,0.78l-0.994,0.545
		l-1.187,0.198l-1.165-0.032l-0.727-0.219l-0.385-0.198l-0.277-0.283l-0.214-0.523l-0.075-0.957l-0.182-0.523l-0.225-0.155
		l-0.47-0.053l-0.418,0.106l-0.844,0.374l-1.304,0.983l-0.983,0.877l-0.48,0.571l-0.032,0.556l0.097,0.428l0.352,0.251l0.759-0.011
		l1.155,0.112l0.234,0.118l0.203,0.229l0.011,0.363v1.096l0.235,0.71l0.471,0.514l0.77,0.577l0.791,0.374l1.624,0.229l0.898,0.112
		l0.544,0.182l0.161,0.32v0.326l-0.171,1.16l-0.802,1.635L70-71.71l-0.674,0.353l-0.833,0.283l-1.433,0.229l-1.453,0.032
		l-1.368,0.134l-0.834,0.219l-0.759,0.449l-0.694,0.775l-0.705,0.678l-0.92,1.171l-0.919,1.399l-0.599,0.931l-0.513,0.519
		l-0.685,0.502l-0.641,0.262l-1.219,0.428l-0.685,0.145l-0.491,0.304l-0.225,0.23l-0.225,0.374v0.326l0.15,0.363l0.384,0.379
		l0.235,0.332l0.214,0.347v0.268l-0.225,0.4l-0.245,0.23l-0.428,0.219l-0.62,0.08l-0.876,0.021l-1.006-0.048l-0.705-0.24
		l-0.631-0.417l-0.566-0.609l-0.171-0.951l-0.117-0.989l-0.268-0.422l-0.363-0.32l-0.268-0.128l-0.374,0.011l-0.47,0.229
		l-0.385,0.305l-0.448,0.074h-0.428l-0.396-0.24l-0.235-0.556l-0.374-0.679l-0.236-0.428l-0.256-0.165l-1.048-0.032l-1.281,0.102
		l-0.652-0.027l-0.973-0.272l-0.823-0.502l-0.588-0.535l-0.16-0.395l0.096-0.492l0.043-0.428l-0.021-0.668l-0.234-0.657
		l-0.643-0.513l-0.939-0.732l-1.144-0.689l-0.674-0.646l-0.182-0.529l-0.171-0.491l-0.182-0.358l-0.428-0.187h-0.256h-0.235
		l-0.183,0.176l-0.031,0.358l-0.064,0.3l-0.235,0.262l-0.257,0.171l-0.534,0.112l-0.673,0.074l-0.502,0.145l-0.235,0.229
		l-0.215,0.337l-0.074,0.396L31.533-70l-0.064,0.294l-0.128,0.262L30.956-69.3l-0.449,0.011h-0.235l-0.319,0.176l-0.235,0.209
		l-0.235,0.4l-0.428,0.572l-0.62,0.599l-0.513,0.176l-0.459,0.011l-0.675-0.117l-0.234-0.332l0.107-0.325l0.234-0.722l-0.043-0.23
		l-0.128-0.353l-0.385-0.219l-0.042-0.4l-0.022-0.428l0.086-1.149l-0.021-0.625l-0.235-0.251l-0.192-0.134h-0.299l-0.235,0.112
		l-0.225,0.229l-0.268,0.305l-0.234,0.209l-0.192,0.096l-0.449,0.043l-0.47,0.048l-0.385,0.043l-0.406,0.208l-0.492,0.374
		l-0.257,0.273l0.043,0.262L22.192-70l0.331,0.086l0.673,0.122l0.685,0.086l0.577,0.24l0.556,0.417l0.277,0.348l0.086,0.235
		l-0.032,0.357l-0.225,0.492l-0.31,0.539l-0.225,0.23l-0.299,0.208l-0.621,0.225l-0.448,0.112l-0.716,0.251l-0.342,0.208
		l-0.652,0.273l-0.256,0.31l-0.428,0.631l-0.246,0.459l-0.396,1.031l-0.288,0.994l-0.15,0.353l-0.032,0.097l-0.689,0.492
		l-0.656,0.405l-0.626,0.283l-0.94,0.049l-0.561-0.177l-1.134-0.229l-1.416-0.054l-0.908-0.23l-0.609-0.405l-0.438-0.562
		l-0.229-1.839l-0.155-2.612l-0.229-2.036l-0.305-1.106l-0.722-1.293l-1.438-1.443L7.309-73.1l-0.775-0.272L5.988-73.5l-0.583,0.021
		l-0.523,0.213L4.3-72.816l-0.865,0.695l-0.471,0.448l-0.369,0.315L1.98-71.336L1.531-71.47l-0.363-0.021l-0.609,0.145l-0.844,0.566
		l-3.351,2.795l-0.557,0.556l-0.342,0.471l-0.197,0.625l-0.225,0.93l-0.235,0.93l-0.294,0.743l-0.219,0.396l-0.492,0.406
		l-0.566,0.513l-1.073,0.973l-0.679,0.834l-0.68,0.679l-0.571,0.406l-0.743,0.336l-1.117,0.396l-0.679,0.326l-0.325,0.289
		l-0.251,0.619l-0.166,0.748l0.187,0.412l0.326,0.614l0.428,0.604l0.188,0.375l0.133,0.491l-0.08,0.46l-0.229,0.545l-0.502,0.593
		l-0.438,0.326l-0.523,0.363l-1.139,0.62l-0.551,0.374l-0.48,0.283l-0.315,0.438l-0.112,0.887l-0.064,1.357l-0.219,0.765
		l-0.315,0.593l-0.396,0.358l-0.679,0.342h-0.951l-2.058-0.262l-1.972-0.23l-1.368-0.331l-0.48,0.06l-0.535,0.294l-0.229,0.353
		l-0.021,0.379l0.192,0.572l0.684,0.973l1.257,1.683l1.512,1.866l1.048,1.538l0.396,0.877l0.448,0.791l-0.042,0.229l-0.032,0.262
		l-0.229,0.545l-0.803,0.994l-1.485,1.646l-0.331,0.513l-0.229,0.668l-0.198,0.774l0.198,0.728l0.251,0.908l0.353,0.599l0.668,0.7
		l0.39,0.604l0.188,0.646l0.064,0.689l-0.128,0.732l-0.503,0.753l-0.561,1.337l-0.418,0.679l-0.336,0.272l-0.679,0.032l-0.834-0.438
		l-0.785-0.428l-0.503-0.021l-0.678,0.22l-0.188,0.277l-0.155,0.577l-0.177,0.471l-0.336,0.353l-0.24,0.24l-0.449,0.011
		l-0.593-0.134l-0.861-0.074l-0.528,0.208l-0.38,0.406l-0.145,0.502l-0.229,0.546l-0.165,0.47l-0.658,0.636l-0.679,0.374
		l-0.839,0.23l-1.293,0.357l-0.679,0.145l-0.348,0.209l-0.154,0.315l0.021,0.353l0.283,0.283l0.112,0.304l-0.112,0.278l-0.348,0.513
		l-0.311,0.283l-0.283,0.315l-0.074,0.278l-0.069,0.502l-0.011,0.626l-0.251,0.502l-0.679,0.876l-1.048,0.657l-0.92,0.46
		l-1.261,0.203l-0.983-0.032l-0.539,0.22l-0.369,0.405l-0.188,0.438l0.012,0.337l0.363,0.604l0.544,0.637l0.615,0.678l0.118,0.46
		l-0.118,0.428l-0.3,0.315l-0.651,0.417l-1.24,0.405l-0.614,0.252l-0.24,0.272l-0.118,0.24l0.012,0.262l0.176,0.689l0.171,0.877
		l0.112,0.812l-0.112,0.619l-0.251,0.396l-0.94,0.919l-0.828,0.54l-1.096,0.348l-1.208,0.091l-1.464-0.177l-1.043-0.155
		l-0.566,0.021l-0.534,0.252l-0.519,0.561l-0.106,0.391l-0.011,0.539l0.128,0.609l0.353,0.679l0.438,0.562l1.016,0.577l0.625,0.519
		l0.22,0.368l0.165,0.46l0.043,0.491l-0.219,1.01l-0.23,0.974l-0.144,1.042l-0.306,0.785l-0.294,0.636l-0.699,1.026l-0.812,0.844
		l-0.973,1.149l-0.679,0.802l-0.123,0.39l0.123,0.428l0.229,0.3l0.657,0.47l0.599,0.31l1.063,0.299l0.46,0.215l0.229,0.181
		l0.011,0.268l-0.229,0.546l-0.614,1.058l-0.931,1.091l-0.699,0.599l-0.754,0.49l-0.594,0.321l-0.828,0.192l-0.646,0.193
		l-0.428,0.31l-0.513,0.566l-0.32,0.608l-0.284,0.514l-0.385,0.353l-0.679,0.246l-1.661,0.428l-1.774,0.384l-0.898,0.183
		l-1.693,0.148l-0.785,0.203l-0.477,0.354l-0.721,0.994l-0.391,0.908l-0.571,1.827l-0.604,1.102l-0.71,0.983l-0.829,0.47
		l-0.47,0.321l-0.354,0.225l-0.165,0.459l-0.075,0.577l0.064,0.727l0.31,0.428l0.315,0.513l0.043,0.428l-0.075,0.652l-0.363,1.059
		l-0.229,0.171l-0.679-0.107l-0.545,0.021l-0.428,0.299l-0.994,0.812l-0.342,0.32l-0.315,0.278l-0.657,0.193l-1.128-0.108
		l-1.17-0.267l-1.085-0.716l-0.951-0.855l-0.315-1.068l0.229-1.283l0.326-0.556l0.428-0.171l0.566,0.086l0.48,0.599l0.626,0.865
		l0.459,0.182l0.637-0.064l0.342-0.31l0.225-0.47l-0.021-0.354l-0.075-0.545l-0.315-0.331l-0.593-0.556l-0.523-0.663l-0.363-0.919
		l-0.118-1.304l0.23-0.78l0.678-1.261l0.14-0.652l-0.021-0.428l-0.229-0.332l-0.503-0.096l-0.657,0.021l-0.614,0.342l-1.331,0.897
		l-0.968,0.62l-0.828,0.3l-1.71,0.118l-2.581,0.106l-2.244,0.245l-1.171,0.406l-1.031,0.492l-0.368,0.491l-0.364,0.737l-0.139,0.695
		l-0.268,0.748l-0.325,0.513l-0.626,0.321l-0.326,0.32l-0.363,0.449l-0.262,0.812l-0.337,1.101l-0.678,1.079l-0.268,0.353
		l-0.679,0.182l-1.331,0.225l-0.679,0.203l-0.176,0.139l-0.198,0.428l0.032,0.578l0.043,0.812l-0.149,0.396l-0.342,0.277
		l-0.385,0.278l-0.535,0.32l-0.679,0.192l-0.272,0.331l-0.134,0.226l0.102,0.694l-0.154,0.694l-0.348,0.728l-0.657,0.684
		l-0.417,0.449l-0.229,0.374l0.106,1.016l0.289,0.747l0.336,0.375l0.449,0.182l1.71-0.075l2.196-0.405l0.732-0.183l0.374,0.129
		l0.305,0.148l0.219,0.472l0.23,0.405l-0.086,0.3l-0.272,0.791l-0.3,0.438l-0.39,0.631l-0.219,0.502l-0.229,1.165l-0.481,0.984
		l-0.679,0.918l-0.94,0.727l-1.085,0.546l-0.229,0.268l-0.263,0.106l-0.331,0.16l-0.074,1.229l0.074,1.346l0.428,1.583l0.229,0.684
		l-0.283,0.876l-0.679,0.535l-2.101,0.246l-1.576-0.064l-1.598,0.043l-1.148,0.288l-1.588,0.503l-2.661,1.015l-2.789,1.005
		l-1.47,0.385l-1.048-0.043l-0.908-0.139l-2.966-1.016l-3.02-1.454l-1.24-0.522l-0.208,0.48L-125,64.525l-0.796,0.363l-0.679,0.215
		l-1.208,0.342l-1.432,0.331l-0.775,0.321l-0.614,0.31l-0.491,0.715l-0.209,0.535l0.043,1.347l0.353,1.144l1.138,1.688l1.882,2.736
		l1.159,2.501l1.972,3.11l1.39,2.085l1.791,2.062l2.683,3.228l1.411,1.827l0.396,1.219l0.208,0.545l0.374,1.069l0.742,0.395
		l0.679,1.24l1.139,1.529l0.7,1.346l1.368,1.614l0.973,1.122l1.25,0.566l1.684,0.855l2.507,0.599l0.764,0.694l0.417,0.503
		l0.865,1.538l0.471,1.262l0.091,0.94l1.171,0.962l1.399,0.343l0.845-0.097l0.679-0.354l1.026-1.485l1.442-2.554l1.293-2.074
		l1.422-1.229l0.812-0.428l0.556-0.075l0.471,0.235l-0.097,1.657l-0.679,1.87l-0.406,2.223l-0.021,1.197l0.406,0.77l1.106,0.107
		l0.742-0.021l1.139-0.363l0.807-0.577l2.202-0.781l0.834-0.096l0.556,0.128l0.571,0.386l0.118,0.651v0.096l-0.021,0.044
		l-0.054,0.319l0.155,0.557l-0.021,0.428l-0.257,0.513l-0.229,0.62l0.026,0.32l0.225,0.535l0.583,0.566l0.513,0.225l0.529,0.299
		l0.871-0.032l0.967-0.289l1.139-0.673l2.047-1.508l1.539-1.549l0.679-1.145l0.277-1.496l0.391-1.773l0.374-1.037l0.074-0.674
		l-0.149-1.25l-0.144-0.503l-0.021-0.256l0.416-0.428l1.77-1.368l1.208-1.069l0.534-0.363l0.646-0.224l0.566-0.011l0.604,0.257
		l0.689,0.341l0.679,0.471l0.523,0.15l0.92-0.129l0.657-0.192l0.374,0.106l0.46,0.278l0.021,0.406l0.229,0.47l1.116,0.877
		l1.096,0.78l0.406,0.246h0.711l0.668,0.096l0.24,0.311l0.032,0.662l-0.102,0.471l0.134,0.331l0.438,0.684l1.245,0.877l0.459,0.31
		l0.396,0.16l0.615-0.116l0.577-0.354l0.187-0.428l0.374-0.31l0.38-0.086l1.085-0.054l0.679-0.021l0.614-0.032l0.369-0.139
		l0.229-0.257l0.246-0.599l0.229-0.514l0.513-0.224l0.599-0.118l0.486-0.448l0.546-0.566l0.523-0.481l1.138-0.609l0.679-0.021
		l1.566,0.534l1.042,0.643l0.679,0.661l0.859,0.749l0.278,0.502l0.129,0.631l0.145,1.165l0.314,0.833l1.031,1.38l0.931,1.133
		l0.699,0.608l0.566,0.439l0.23,0.619l0.229,1.026l0.594,0.748l0.678,0.566l0.481,0.727l0.534,0.76l0.332,0.705l0.679,0.77
		l0.272,0.791l0.513,0.982l0.32,0.663l0.668,0.353l0.839,0.139l1.139-0.181l1.641-0.952l2.036-1.143l1.379-0.61l1.624-1.133
		l1.55-1.817l0.551-0.812l0.908-0.374l0.818-0.235l1.105-0.759l0.689-1.197l0.78-0.62l1.139-0.257l0.411-0.299l0.278-1.068
		l0.807-1.71l0.46-0.685l1.219-0.716l1.138,0.021l1.288-0.064l1.106-0.289l0.71-0.619l0.76-1.24l0.673-0.727l0.572-0.32l1.095-0.044
		l1.139,0.086l1.005,0.374l0.679,0.514l1.021,0.887l0.962,0.6l0.855,0.299l0.94,0.171l0.817,0.042l0.999,0.3l0.86,0.47l0.936,0.77
		l0.652,0.192l1.096,0.064l1.598-0.042l1.25-0.139l1.005,0.245l1.106,0.245l1.261-0.01l1.593-0.438l1.555-0.845l1.524-0.694
		l0.972-0.203l1.208-0.235l0.93,0.043l1.368,0.214l0.396,0.182l1.4,0.459l1.764,0.685l1.593,0.342l1.357,0.331l1.561,0.032
		l0.79-0.192l0.855-0.385l1.154-0.673l0.685-0.759l0.661-0.78l0.685-0.449l0.749-0.417l1.517-0.599l1.7-0.652l1.122-0.31l0.662-0.16
		h0.257l0.363,0.086l0.438,0.352l0.311,0.301l0.427,0.181l0.609-0.01l0.695-0.343l0.747-0.3l1.197-0.534l0.909-0.128l1.101-0.021
		l1.283,0.085l0.876-0.139l0.685-0.289l1.517-1.111l1.133-0.481l1.828-0.802l0.716-0.256l0.577-0.021l0.353,0.16l0.225,0.246
		l0.085,0.716l0.129,0.737l0.343,0.535l0.79,0.449l0.694,0.319l1.465,0.557l2.052,0.576l1.699,0.321l1.443,0.257l0.471,0.256
		l0.428,0.577l0.684,0.449l0.791,0.192l0.598-0.085l0.215-0.407l-0.161-0.245l-0.245-0.46l-0.514-0.235l-0.428-0.448l-0.181-0.812
		l0.225-0.406l0.363-0.396l0.684-0.588l0.685-0.599l0.224-0.545l0.204-0.823l-0.321-0.652l-0.685-0.715l-0.587-0.449l-0.3-0.898
		l-0.021-0.919l-0.032-1.144l0.235-0.438l0.192-0.15l0.748-0.021l0.706-0.108l0.277-0.213l0.043-0.321l0.063-0.522l0.064-0.3
		l0.235-0.311l0.428-0.257l0.694-0.171l0.673-0.042l0.343-0.245l0.448-0.675l0.086-0.513l-0.063-0.939l-0.097-1.145l0.182-0.865
		l0.385-1.604l0.106-1.411l0.086-1.581l0.32-1.519l0.236-1.111l0.191-1.133l0.235-1.613l0.427-1.059l0.566-0.599l0.375-0.299
		l0.587-0.129l0.45,0.129l0.588,0.319l0.448,0.108l1.304-0.022l1.369-0.534l0.684-0.534l0.149-0.449l-0.054-0.342l-0.396-0.385
		l-0.32-0.599l0.021-0.492l0.246-0.566l0.448-0.47l1.145-0.48l0.918-0.012l1.893,0.289l2.052,0.268l1.101,0.16l0.643-0.139
		l0.821-0.332l0.289-0.246l0.685-0.042l0.577,0.149l0.685,0.278l0.234,0.417l0.288,1.089l0.225,1.808l0.235,1.239l0.363,0.845
		l0.652,0.812l0.77,0.62l0.93,0.278l1.443,0.277l1.593-0.032l1.368-0.203l1.187-0.428l0.48-0.448l0.042-0.245l-0.171-0.311
		l-0.32-0.566l-0.3-0.695l0.118-0.534l0.396-0.876l0.385-0.47l1.144-0.311l0.737-0.117l0.685,0.042l1.026,0.268l0.791,0.32
		l0.661,0.043h1.283l1.261-0.086L109,69.784l0.566,0.235l0.675,0.277l0.555,0.011l1.145,0.299l15.112,5.44l0.385-0.897l6.359-14.301
		l3.869-8.679l2.993-3.163l10.987-8.893l7.149-18.683l-0.715-3.239l-2.395-5.376l-1.667-1.673l-8.529-8.571l-0.835-2.421
		l-1.133-3.356l-0.683-8.219l-0.022-0.229l-1.677-10.522l-0.546-3.292l-0.021-0.064L136.812-36.6l-2.864-6.413l-1.304-2.832
		l-2.245-4.885l-1.219-1.924l-8.485-13.419l-7.065-10.726l-2.683-4.136l-2.458-3.758l-4.8-8.86L102.311-95.939L102.311-95.939"/>
</g>
<g id="Layer_1_1_">
</g>
</svg>
