<?xml version="1.0" encoding="utf-8"?>
<!-- Generator: Adobe Illustrator 16.0.4, SVG Export Plug-In . SVG Version: 6.00 Build 0)  -->
<!DOCTYPE svg PUBLIC "-//W3C//DTD SVG 1.1//EN" "http://www.w3.org/Graphics/SVG/1.1/DTD/svg11.dtd">
<svg version="1.1" id="Layer_1" xmlns="http://www.w3.org/2000/svg" xmlns:xlink="http://www.w3.org/1999/xlink" x="0px" y="0px"
	 width="301.033px" height="479.245px" viewBox="-139.946 -223.005 301.033 479.245"
	 style="enable-background:new -139.946 -223.005 301.033 479.245;" xml:space="preserve">
<g id="Layer_126">
	<path id="D._I._Khan." style="fill:#CCCCCC;stroke:#FFFFFF;stroke-width:1.15;" d="M155.57,200.031L155.57,200.031l-1.578-0.802
		l-1.619-1.057l-1.381-0.944l-1.127-0.619l-1.844-1.015l-1.816-1.407l-1.775-0.832l-2.098-0.888l-1.803-1.323l-0.451-1.099
		l-1.029-3.718l-1.619-4.958l-0.506-1.718l-1.184-4.226l-1.127-4.056l-0.662-2.353l-1.154-3.295l-2.184-5.352l-1.492-4.494
		l-0.916-4.364l-0.295-2.029l-0.719-2.929l-3.07-5.296l-0.676-1.057l-0.916-3.422l-0.648-4.465l-0.125-4.183l0.055-3.859
		l-0.111-2.014l-1.211-3.662l-0.889-3.506l-0.562-1.663l-0.564-1.689l-0.324-1.366l-0.59-3.31l-0.297-1.057l-1.465-3.028
		l-1.324-2.816l-1.76-3.577l-0.916-3.479l0.691-3.212v-4.914l-0.775-2.521l-1.76-4.718l-1.281-3.605l-0.27-1.69l-0.111-2.464
		l0.057-1.185l0.168-1.154l-0.703-2.605l-1.705-1.352l-1.689-1.268l-1.113-0.803l-1.238-0.663l-2.113-2.041l1.043-1.973l0.873-0.859
		l3.055-3.506l0.959-1.493l-0.154-1.858l1.027-1.804l0.324-0.45l1.113-1.549l0.619-1.465l-0.803-1.647l-2.043-1.339l-3.324-0.985
		l-1.549-0.901l-1.338-1.916l-0.859-1.83l-1.506-2.437l-1.564-3.226l-0.324-2.563l0.057-1.605l-0.592-1.239l-1.732-2.943
		l-1.646-2.958l-0.648-3.493l-0.381-2.803l-1.324-3.872l-0.703-1.859l-0.605-1.662l-0.521-1.493L86.066-0.65l-1.773-2.634
		L82.15-5.846L80.601-8.55l-1.379-1.788l-0.705-2.859l-0.887-2.38l-2.027-3.184l-1.691-3.127l-1.184-3.408l-2.111-4.479
		l-1.254-2.718l-1.184-2.592l-1.027-2.521l-0.732-1.972l-0.211-1.113l-0.127-0.929l-0.213-2.366l0.311-1.859l0.422-1.465
		l0.719-3.056l0.662-4.634l0.451-2.746l0.295-2.282l-0.52-1.254l-2.1-0.985l-2.986-1.958l-2.154-2.281l-2.449-2.365l-1.494-1.93
		l-1.24-0.437l-1.098,1.126l-1.352-0.38l-0.986-1.423l-0.338-0.226l-0.705,0.155l-1.76-1.929l-0.957-1.212l-1.957-2.169
		l-1.354-1.479l-2.098-2.549l-2-2.212l-0.889-0.858L38.9-85.701l-2.113-2.422l-2.098-2.507l-0.93-1.493l-0.832-2.816l-0.857-3.113
		l-1.691-0.493l-2.281-0.76l-2.803-0.746l0.07-1.226l1.027-1.423l2.395-1.183l1.479-1.746L31-106.742l0.619-1.281l1.098-4.197
		l0.211-2.423l-0.127-2l-0.168-2.507l-0.281-2.084l-0.494-2.634l-0.549-3.408l-0.184-2.647l-0.395-3.254l-0.111-1.507l-0.197-1.338
		l-0.648-2.858l-0.451-2.634l0.324-2.239l0.789-3.605l1.014-2.592l1.1-3.676l0.971-3.028l0.689-2.028l0.17-1.661l-1.395-3
		l-1.184-3.605l-0.604-2.761l-0.902-4.056l-0.887-3.704l-0.621-2.155l-1.408-4.239l-1.479-5.591l0.014-3.057l-0.549-5.238
		L6.929-193.64l-32.294-11.548l-27.802-3.465l-33.435-5.789l-33.21,2.142l0.014,0.816l0.056,3.634l0.014,3.042l-1.084,3.268
		l-1.085,6.296l-1.746,4.971l-1.493,5.93l0.028,2.296l0.014,1.535l0.887,1.901l0.69,2.464v1.155l-0.663,1.155l-1.337,1.915
		l-2.718,1.732l-2.676,2.31l-1.789,1.719l-1.112,1.534l-0.366,2.296l-0.254,3.789l0.507,6.492l1.887,14.098l1.395,6.113l0.901,2.479
		l1.366,1.704l2.916,1.887l1.803,1.508l0.451,1.141l0.014,1.718l-1.099,3.437l-2.437,2.112l-2.014,1.155l-1.071,4.394l0.028,4.409
		l0.239,3.042l1.437,3.042l0.226,2.676l0.704,3.83l0.31,5.127l-0.408,5.93l-0.352,11.464l-0.296,13.746l-1.69,13.562l-0.817,8.985
		l0.113,16.407l-0.563,13.169l-0.535,12.38l-1.986,5.366l-0.408,3.83l0.028,3.239l1.802,3.803l2.718,4.38l4.943,3.605l3.592,3.395
		l2.253,2.296l3.549,1.112l4.253,0.366l7.816-0.042l11.113,0.718l3.126,0.732l1.803,2.099l1.591,4l1.366,5.718l4.281,7.028
		l1.155,4.971l3.619,9.916l3.394,7.802l0.254,4.395l1.605,6.689l2.099,10.084l1.577,6.901l2.38,3.479l0.084,0.127h0.663l6.647,1.042
		l2.183-0.31l1.324-0.704l1.451-1.803l0.563-4.084l0.141-2.593l1.395-2.196l5.718-1.704l2.704-1.423l1.409-2.183l0.239-4.465
		l-0.31-4.845l-1.493-5.647l0.141-3.338l0.493-1.479l1.324-0.324l1.732,0.057l6.014,1.661l1.746,0.057l1.197,2.268l1.197,3.014
		l0.31,2.24l2.099,2.295l1.69,1.155l2.577,0.45l1.338-0.704l0.507-1.845l0.901-1.465l1.775-1.07l3.422,1.211l1.732,0.042l2.62,0.1
		l1.437-1.817l0.451-1.858l0.916-1.479l4.394-0.591l3.465,0.112l2.183-0.296l1.775-1.07l3.647-3.972l1.888-3.661l5.492-6.536
		l3.17-2.506l3.535-2.113l5.773-2.803l6.197-2.395l3.197-3.268l4.535-4.704l5.449-5.774l3.916,0.113l3.07,0.112l2.098,0.438
		l0.832,1.873l-0.17,2.985l2.098,13.83l1.326,9.731l2.717,8.268l2.703,8.662l1.311,10.479v10.055l-1.549,8.395L66.32,124.5
		l-2.873,16.676l-1.295,9.999l-0.295,7.437l1.365,9.337l-0.127,13.027l1.438,8.239l1.084,4.493l-0.17,3.338l-1.014,4.085
		l-3.984,2.478l-2.705,2.507l-0.916,2.197l-0.084,1.859l0.311,2.62l2.549,1.93l2.93,1.971l2.098,2.281l-1.07,4.085l-3.646,3.268
		l2.914,7.407l12.07,13.943l0,0l3.057-1.408l10.379-4.169l16.281-4.704l10.197-2.563l8.885-2.211l7.043-1.549l8-1.901l6.309-2.084
		l-0.309-3.662l0.59-3.972l2.775-3.592l2.324-4.07l2.943-6.309L155.57,200.031"/>
</g>
<g id="Layer_1_1_">
</g>
</svg>
