<?xml version="1.0" encoding="utf-8"?>
<!-- Generator: Adobe Illustrator 16.0.4, SVG Export Plug-In . SVG Version: 6.00 Build 0)  -->
<!DOCTYPE svg PUBLIC "-//W3C//DTD SVG 1.1//EN" "http://www.w3.org/Graphics/SVG/1.1/DTD/svg11.dtd">
<svg version="1.1" id="Layer_1" xmlns="http://www.w3.org/2000/svg" xmlns:xlink="http://www.w3.org/1999/xlink" x="0px" y="0px"
	 width="301.811px" height="371.055px" viewBox="-131.826 -162.527 301.811 371.055"
	 style="enable-background:new -131.826 -162.527 301.811 371.055;" xml:space="preserve">
<g id="Layer_85">
	<path id="Mianwali" style="fill:#CCCCCC;stroke:#FFFFFF;stroke-width:1.15;" d="M81.27,195.094L81.27,195.094l-0.374-4.199
		l-2.111-7.246l-0.912-5.729l-0.771-1.73l1.637-1.535l0.717-0.256l2.158-0.607l0.818-0.328l0.141-0.258l-0.304-1.129l-2.026-5.494
		l-0.507-1.201l-0.093-0.426v-0.344l0.811-0.857l6.817-7.301l4.153-4.545l6.016-6.771l3.787-4.121l3.522-3.701l1.933-1.963
		l3.351-2.494l4.792-4.029l1.504-1.457l0.546-0.662l0.047-0.678l-0.102-1.885l-0.077-1.498l0.163-0.357l0.795-0.266l0.787-0.312
		l0.429-0.459l0.046-0.451l-0.475-0.904l-0.46-0.904l-0.155-0.85l-0.055-0.949l0.163-1.162l-0.312-0.857l-0.499-0.443l-0.693-0.055
		l-1.091,0.094h-0.631l-0.437-0.273l-1.161-1.09l-0.787-0.672l-0.141-0.639l0.156-0.764l0.265-0.584l-0.015-0.396l-0.266-0.537
		l-0.491-0.32l-0.958-0.047h-0.577l-0.639-0.172l-0.483-0.459l-0.577-0.672l-0.685-0.318h-0.53l-0.39,0.039l-0.491,0.365
		l-0.49,0.219h-0.437l-0.358-0.172l-0.343-0.459l-0.312-0.717l-0.047-0.826l-0.219-0.49l-0.421-0.592l-0.429-0.273l-1.145-0.133
		l-1.341-0.18l-0.623-0.443l-0.375-0.539l-0.163-0.529l0.117-0.584l0.491-0.631l0.615-0.492l0.312-0.545l0.148-0.904l-0.055-0.717
		l-0.374-1.207l-0.078-0.561l0.219-0.461l0.319-0.258l0.476-0.146l0.833-0.086l0.958,0.227l0.959,0.311l0.631,0.172l0.234-0.086
		l0.265-0.17l0.265-0.227l0.437-0.172l0.421-0.133l0.397-0.42l0.062-0.617l0.18-0.592l0.312-0.529l0.498-0.359l0.811-0.365
		l1.527-0.492l1.598-0.67l1.13-0.818l0.631-0.545l0.382-0.717l-0.062-0.568l-0.202-0.904l0.047-0.498l0.148-0.406l0.318-0.264
		l0.562-0.172l0.39-0.359l0.234-0.498l0.146-0.326l0.165-1.389l0.14-1.121l-0.171-0.771l-0.048-0.453l0.196-0.264h0.506l0.904,0.1
		l1.324,0.041l1.714-0.141l1.435-0.406l3.74-1.074l2.672-0.719l1.075-0.537l0.569-0.842l0.249-1.535l0.211-1.207l0.429-0.771
		l0.327-0.271l0.374-0.133h0.764l0.757,0.271l1.066,0.359l1.496,0.584l1.629,0.312l1.831,0.279l1.371,0.227l1.224-0.141l0.756-0.266
		l0.686-0.42l0.211-0.078l0.678,0.031l0.632,0.18l0.381,0.318l0.258,0.406l0.116,0.67l0.047,0.811l0.257,0.904l0.429,0.404
		l0.951,0.498l0.966,0.273l1.271,0.008l1.488-0.139l0.857-0.359l1.324-0.771l0.483-0.498l0.405-0.234l-0.631-1.387l-0.32-0.266
		l-0.405-0.234l-1.06-0.086h-1.387l-0.951-0.279l-0.747-0.451l-0.429-0.633l-0.375-0.779l0.117-0.623l0.266-0.996l0.639-0.936
		l0.755-0.943l0.429-1.131l0.172-1.402l-0.124-1.473l-0.242-0.779l-1.013-0.889l-2.096-1.447l-1.388-1.311l-0.577-0.85l-0.171-1.074
		l0.171-1.459l0.491-2.385l0.382-1.83l0.125-1.246l-0.421-1.621l-0.529-0.818l-1.075-0.998l-1.824-1.52l-1.215-1.395l-0.429-0.824
		l-0.055-0.82l0.055-1.207l-0.366-1.504l-0.452-0.771l-0.507-0.717l-0.522-0.219l-1.059-0.146l-0.804-0.359l-0.319-0.631
		l-0.795-0.803l-0.685-0.547l-0.312-0.537l-0.195-0.584l0.008-0.396l0.188-0.375l0.21-0.203l0.304-0.227l1.021-0.217l1.815-0.312
		l1.605-0.357l0.966-0.359l0.562-0.326l0.452-0.492l0.312-0.949l0.436-2.828l0.414-2.199l-0.273-0.498l-0.249-0.219l-0.327-0.039
		l-0.686-0.102h-0.53l-0.499-0.131l-0.576-0.227l-0.499-0.453l-0.515-0.318l-0.326-0.188l-0.375-0.086l-0.374-0.086l-0.436-0.139
		l-0.312-0.133l-0.5-0.842l-0.639-1.037l-0.42-1.161l-0.203-1.45l0.163-0.989l0.32-0.452l0.693-0.631l0.756-0.67l0.499-0.491
		l0.054-0.46l-0.054-0.491l-0.452-0.499l-0.639-0.359l-0.936-0.491l-0.451-0.358l-0.312-0.459l-0.233-0.53l0.171-0.459l0.109-0.803
		l0.086-2.704l0.429-2.018l-0.203-1.215l-0.163-0.811V5.531l0.381-0.717l0.812-0.764l1.651-1.262l0.592-0.444l0.499-0.141
		l1.169-0.047l0.889-0.218l0.811-0.319l1.503-0.67l0.967-0.942l0.817-0.818l0.491-0.522l0.694-0.358l0.498-0.093l0.904-0.133
		l0.358-0.312l0.327-0.764l0.521-0.771l0.85-0.99l1.387-1.037l1.652-0.981l1.504-1.122l1.458-0.943l1.496-0.584l1.659-0.67
		l1.504-0.312l1.208-0.53l0.756-0.312l0.327-0.273l0.062-0.67l-0.194-0.717l-0.312-0.763l-0.258-0.725v-0.826l0.21-0.662
		l0.771-0.584l0.834-0.358l0.421-0.631l0.055-0.631l-0.203-0.631l-0.241-0.093l-0.491,0.047l-0.834,0.397l-0.685,0.179l-1.037,0.047
		l-1.013-0.234l-0.374-0.319v-0.312l0.07-0.366l0.304-0.406l0.498-0.755l0.437-0.857l0.062-0.943l-0.194-0.413l-0.694-0.18
		l-1.395-0.148l-0.95-0.133l-0.896-0.452l-1.216-1.044l-1.209-0.811l-1.784-0.811l-1.651-0.686l-1.497-0.382l-1.589-0.094
		l-2.096-0.358l-1.076-0.452l-1.021-0.733l-0.701-0.849l-0.062-0.943l-0.826-3.732l-0.312-2.384l-0.451-1.582l-1.161-1.348
		l-1.535-0.725l-0.818-0.491l-0.757-0.444l-0.201-0.499l-0.266-1.122l-0.163-1.582l-0.195-1.349l-0.64-1.215l-1.169-2.119
		l-0.942-3.242l-0.133-1.395l-0.109-2.158l-0.249-4.411l0.078-2.603l0.249-1.083v-1.075l-0.311-1.216l-0.64-0.764l-0.795-1.161
		l-0.203-0.818l-0.046-0.584l-0.444-0.538l-0.834-0.499l-1.527-0.631l-2.182-1.215l-1.566-0.483l-1.722-0.093l-1.402-0.226
		l-1.014-0.405l-0.576-0.592l-0.437-0.811L118.759-76l-1.021-0.452l-1.021-0.312l-1.216-0.187h-0.498l-0.701,0.272l-1.075,0.444
		l-1.021,0.366l-0.632,0.219h-0.709l-1.161-0.273l-2.167-0.538l-1.869-0.405l-1.325-0.366l-1.917,0.046l-2.196,0.304l-2.806,0.179
		L95.6-76.889l-0.92-0.218l-1.013-0.725l-0.429-0.811l-0.194-1.122v-0.95l0.374-0.99l0.577-1.036l0.062-0.632l-0.093-0.194
		l-0.787,0.125l-2.548,0.273l-1.278-0.055l-0.795-0.491l-1.122-1.27l-1.107-1.348l-1.736-1.605l-1.419-0.818l-1.574-0.834
		l-1.355-0.288l-2.486,0.281l-1.83-0.07l-0.335-0.468l0.062-0.998l0.686-0.818l1.161-1.403l0.405-1.395l-0.429-1.161l-0.561-0.047
		l-0.982-0.078l-1.355-0.226l-2.018-0.085l-2.081-0.25l-1.535-0.233l-1.294-0.561l-1.005-0.592l-0.545-0.273l-0.701-0.436
		l-1.388-0.554l-1.169-0.335l-1.402-0.125l-2.011-0.257l-1.917-0.468l-1.465-0.888l-1.036-0.686l-1.161-0.491l-0.888-0.553
		l-1.17-0.631l-1.224-0.725l-1.145-0.857l-0.671-1.488l0.109-0.841l-0.031-1.068l-0.787-1.589l-0.521-0.771l-0.569-0.795
		l-1.177-1.364l-0.413-0.429l-0.686-1.028l-0.912-1.168l-0.28-0.569l-0.833-0.663l-0.507-0.724l-0.982-1.387l-0.521-0.437
		l-0.771,0.023l-0.64-0.67l-0.093-0.982l-0.188-1.503l-0.141-1.192l-0.28-1.746l-0.163-1.59l-0.257-1.558l-0.164-1.138l-0.242-0.771
		v-0.803l0.391-0.888l0.373-1.309l0.297-1.488l0.155-1.192l0.172-0.748l-0.904-1.06l-1.247-0.701l-1.667-0.928l-1.434-0.997
		l-1.341-0.912l-1.714-1.621l-0.46-0.646l-0.412-0.515l-0.78-0.88l-1.519-1.504l-1.232-1.115l-1.487-1.114l-0.702-0.203
		l-0.514-0.974l-0.039-1.122l-1.036-0.39l-2.089,0.273l-1.688,0.42l-1.819,0.608l-1.134,0.522l-1.843,0.951l-1.286,0.646
		l-1.387,0.499l-0.95-0.164l-0.358,0.616l0.167,0.6l0.206,0.607l0.601,1.083l0.269,0.639l0.495,0.624l0.654-0.125l0.464,0.381
		l0.312,0.608l-0.288,0.6l-0.83,0.834l-1.165,0.187l-1.461-0.374l-0.811-0.319l-1.071-0.164l-0.814,0.374l-1.134-0.171l-0.709-0.163
		l-0.062-1.45l0.503-0.506l-0.167-0.686l-0.585,0.125l-0.799-0.093l-0.846,0.195l-0.931,0.125l-0.378-0.639l0.378-0.678l0.495-1.013
		l-0.258-0.756l-1.134-0.023l-1.395,0.343l-0.639,0.102l-0.581,0.015l-0.697-0.358l-0.495-0.39l-1.387-0.319l-0.974-0.21
		l-1.828-0.156l-0.899-0.164l-1.333-0.078l-0.966,0.031l-0.76-0.085l-0.997-0.39l-0.078-0.927l-0.312-0.53l-1.156-0.28l-0.655-0.343
		l0.366-0.811l0.487-0.405l0.592-0.304l-0.257-0.592l-0.717-0.771l0.511-0.826l-0.28-0.569l-0.109-0.102l-0.624,0.429l-0.821,0.257
		l-1.029-0.499l-0.768,0.397l-0.459,0.662l-0.242,0.577l-0.6,1.114L-18-152.031l-1.372,0.841l-0.86-0.265l-0.822,0.429l-0.783,0.164
		l-0.51-0.366l-0.573,0.436l-0.495,0.733l-0.343,0.545l-0.561,0.857l0.382,1.075l0.44,0.444l-0.558,1.255l-0.487,0.491l-0.584,0.732
		l0.553,0.966l-0.167,0.717l-0.495,0.702l-0.144,1.215l-0.495,0.764l0.853,1.161l0.413,0.476l0.83,0.382l0.713,0.07l0.687,0.132
		l0.494,0.562l0.655,0.639l0.51,0.296l0.779-0.055l0.912-0.413l0.76-0.062l0.868,0.125l0.565,0.32l0.519,0.615l-0.078,0.639
		l-0.366,0.6l-0.997,0.662l-0.379,0.732l0.227,0.795l0.109,0.646l0.167,1.037l0.319,0.491l-0.07,1.114l0.102,0.631l0.814,1.161
		l0.433,0.437l0.791,0.553l0.876,0.514v1.41l-0.257,1.403l0.09,0.943l0.6,0.429l0.822,0.397l0.557,0.32l0.495,0.467l-0.074,0.631
		l0.495,0.413l0.713,0.397l-0.838,1.411l-0.494,1.192l-0.343,0.624l-0.554,0.366l-0.799-0.164l-0.826-0.07l-0.813,0.802
		l-0.487,0.733l-0.783,0.771l-0.405,0.483l0.023,0.997l-0.128,0.584l-0.367,0.678l-0.744,0.857l-0.494,0.6l-0.757,0.818l-0.639,0.99
		l-0.167,0.382l-0.09,0.187l0.545,0.452l0.421,0.584l-0.016,0.623l0.358,0.865l0.009,0.031l0.21,0.919l0.564,1.013l0.83,0.343
		l0.366,0.623l0.943,0.935l0.709,0.483h0.654l0.374-0.577l0.168,0.904l-0.168,0.811l0.974,0.701l0.831,0.133l0.709-0.234
		l0.798-0.296l0.83-0.342l0.799-0.226l1.196,0.007l0.471,0.343l-0.104,0.592l-0.167,0.631l-0.017,0.771l0.219,0.569l0.795,0.491
		l1.126,1.317l0.463,0.732l0.526,0.647l0.807,0.335l0.893,0.335l0.447,0.444l-0.479,0.647l-0.791,0.218l-1.142,0.273l-0.611,0.14
		l-0.647,0.857l-0.39,0.888l-0.257,1.426l-0.039,0.678l-0.031,0.803l-0.592,0.873l-0.495,1.441l-0.464,0.701l-0.67,0.764
		l-0.756,0.748l-0.865,0.569l-1.005,0.507l-0.693,0.319l-0.632,0.382l-0.756,0.561l-1.149,0.639l-0.686,0.335l-0.592,0.436
		l-0.846,0.397l-1.293,0.272l-0.62,0.04l-1.165-0.172l-0.568-0.343l-0.55-0.475l-0.966-0.53l-0.951-0.21l-1.181-0.133l-0.829-0.242
		l-0.671-0.327l-0.421,1.075l-1.103,0.577l-0.829,0.639l-0.83,0.483l-1.037,0.374l-0.743,0.188l-0.534,0.249l-0.397,0.085
		l-0.425,0.086h-0.494l-0.982-0.779l-0.779-0.459l-0.701-0.366l-0.577-0.616l-0.494,0.351l-1.021,0.725l-0.494,0.405l-0.472,0.413
		l-0.031,0.016l-0.494,0.39l-0.632,0.545l-0.448,0.382l-0.588,0.444l-0.775,0.631l-0.374,0.25l-0.335,0.21l-0.647,0.202
		l-1.165-0.015l-2.727-0.156l-1.029-0.086l-0.911-0.281l-0.783-0.389l-1.259-0.452l-0.744-0.273l-0.861-0.397l-0.572-0.327
		l-0.456-0.233l-0.214-0.14l-0.168-0.141l-0.257-0.21l-0.503-0.335l-0.846-0.382l-0.257-1.496l0.168-0.787l0.082-0.663l0.198-0.701
		l0.074-1.13l-0.928,0.179l-0.533,0.203l-1.247,0.444l-1.294,0.351l-1.099,0.241l-0.752,0.266l-0.997,0.28l-1.29,0.483l-1.651,0.467
		l-1.325,0.382l-1.367,0.304l-1.5,0.397l-1.22,0.327l-0.936,0.234l-1.281,0.374l-0.881,0.257l-0.86,0.289l-0.137,0.093l-0.315,0.148
		l-0.495,0.25l-0.386,0.14l-0.487,0.023l-0.541-0.194l-0.421-0.203L-77.573-76l-0.184-0.109l-0.159-0.086l-1.894,0.468l-0.168,0.616
		l-0.237,0.366l-0.168,0.179l-0.167,0.188l-0.207,0.031l-0.631-0.491l-0.55-0.281l-0.584,0.569l-0.28,0.506l-0.429,0.304
		l-0.495,0.429l-0.662,0.53l-0.904,0.553l-0.86,0.18l-0.709,0.942l-0.297,0.569l-0.814,0.693l-0.487,0.179l-0.786,0.218l-1.5,0.319
		l-1.734,0.39l-1.469,0.117l-1.418-0.062l-0.584,0.117l-0.779,0.109l-0.495,0.062h-0.035l-0.604,0.241l-0.44,0.148l-0.472,0.382
		L-99.583-67l-1.364,0.942l-1.285,0.779l-0.717,0.476l-0.924,0.506l-1.013,0.312l-1.142,1.044l-0.601,1.169l-1.133,2.057
		l-0.39,0.849l-0.008,0.975l0.28,0.42l-0.145,0.663l-0.319,0.429l-1.103,0.966l-1.181,0.826l-1.157,1.099l-0.853,1.052l-0.558,0.982
		l-0.378,1.395l-0.167,1.13l-0.031,0.195l0,0l-0.32,1.956l0.242,1.831l-0.082,1.52l-0.222,1.395l0.167,1.021l0.487,1.146
		l0.292,0.273l0.339,0.584l-0.288,1.497l-0.159,1.168l-0.113,1.761l-0.055,1.239l-0.16,0.857l-0.464,0.974l-0.86,0.873l-0.215,0.943
		l-0.187,1.27l-0.078,1.45l-0.031,1.184l-0.073,2.541l-0.168,0.951l-0.229,0.522l-0.655,1.044l-0.229,1.846l0.085,0.741l0.129,0.935
		l-0.105,0.787l-0.167,1.146l0.272,1.815l-0.503,0.733l-0.744,0.491l-1.441,0.28l-1.157,0.094l-1.27-0.483l-1.173-0.624
		l-1.484-0.164l-1.235,0.14l-0.296,0.031l0.389,0.343l0.184,0.28l0.168,0.312l0.175,0.366l-0.023,0.468l0.113,3.031l0.082,0.25
		l0.315,0.226l0.241,0.132l0.168,0.054l0.113,0.109l0.101,0.187l0.542,0.584l0.137,0.148l0.167,0.437l0.09,0.538l0.031,0.655
		l0.07,0.272l0.218,0.577l0.167,0.296l0.526,0.685l0.479,0.453l0.366,0.342l0.319,0.678l-0.016,0.397l-0.175,0.327l0.055,0.693
		l0.12,0.343l0.405,1.628l0.168,0.319l0.167,0.257l0.296,0.467l0.145,0.507l0.047,0.148l0.023,0.546l-0.016,0.303l-0.137,0.242
		l-0.198,0.569l-0.223,0.242l-0.432,0.577l0.494,0.779l2.252,2.47l0.464,0.53l0.167,0.366l0.238,0.561l0.631,0.483l0.472,0.296
		l0.335,0.242l0.597,0.522l0.257,0.335l0.541,0.756l0.266,0.491l0.046,0.413l0.086,0.459l0.281,0.709l0.222,0.467l-0.468,3.889
		l-0.479,0.125l-0.433,0.429l-0.16,0.491l-0.51-0.039l-0.105,0.631l-0.19,0.522l-0.207,0.592l-0.608,1.598l-0.167,0.887l0.464,0.781
		l0.226,0.482l0.167,0.545l0.366,0.545l0.406,0.5l0.394,1.066l-0.027,0.469l0.335,0.623l0.561,0.381l0.67,0.375l0.671,0.576
		l0.312,0.344l0.67,0.342l0.413,0.047l0.448-0.062l0.732-0.248l0.919-0.234l-0.494,0.662l-2.513,4.574l-0.105,0.475l0.016,0.615
		l-0.023,0.5l0.167,0.826l0.464,0.164l0.732,0.148l0.639-0.289l0.601-0.117l0.67,0.148l-0.358,0.701l-0.519,0.592l0.031,0.438
		l0.117,0.436l0.167,0.834l0.121,0.67l0.113,0.957l0.168,0.539l0.253,1.061l0.409,0.709l0.229,0.49l0.242,0.568l0.261,0.367
		l0.233,0.451l0.557,0.459l0.406,0.359l0.472,0.49l0.408,0.834l0.129,0.553l0.07,0.391l0.077,0.889l0.188,1.41l-0.272,0.396
		l-0.366,0.172l-0.752,0.109l-0.503,0.639l-0.245,0.834l0.086,0.453l0.159,0.279l0.242,0.414l0.525,0.506l0.366,0.289l0.662,0.576
		l0.822,0.49l0.83,0.451l0.397,0.141l0.487,0.008l0.829-0.031l23.284,15.641l-0.016,1.051l-0.305,0.639l-0.335,0.92l-3.358,5.869
		l-0.86,1.502l-0.717,0.811l0.237,0.297l1.812,1.168l1.652,1.293l1.34,1.809l1.827,1.162l1.349,0.904l1.819,0.529l1.06,0.016
		l1.208-0.25l0.319-1.543l0.635-2.945l0.327-1.418l0.608-1.029l0.584-0.49l1.212-0.25l1.66,0.016l1.516,0.016l1.355,0.266
		l0.885-0.133l1.103-1.02l0.016-1.412l0.016-1.16l-0.756-1.029l0.016-0.396l0.008-0.646l0.288-0.508l2.264-0.357l2.45-0.125
		l1.668-0.234l1.827,0.156l0.593,0.506l1.044,1.941l2.824,6.834l0.495,1.277l1.316,0.623l1.715,0.18l1.021,0.008h0.503l0.304,0.344
		l-0.144,0.506l-0.44,2.416l-0.542,3.178l-0.748,2.744l-1.165,3.436l-0.136,0.602l-0.023,0.186l-0.066,0.703l-0.495,2.562l-0.83,1.9
		l-1.121,2.992l-0.258,1.576l-0.261,1.074l0.008,0.498l0.49,0.227l1.17,0.818l1.569,0.717l0.319,1.059l-0.791,0.594l-1.083-0.062
		l-1.406-0.164l-0.783,0.016l-0.795,0.498l-0.37,1.092l-0.915,2.072l0.062,1.738l0.432,1.316l0.608,0.889l1.395,1.215l0.989,0.889
		l0.405,0.654l0.425,1.225l0.086,2.229l-0.397,0.826l-0.472,0.662l-0.67,0.584l-1.06,0.443l-1.165,0.678l-2.146,0.117l-0.495-0.068
		l-1.804-0.172l-1.372-0.062l-3.144-0.188l-1.364-0.141l-1.087-0.312l-1.363-0.146l-0.869,0.172l-0.67,0.271l-0.479,0.422
		l-0.568,0.764l-0.565,0.67l-1.605,1.674l-1.434,1.014l-1.469,1.34l-9.145,7.342l-3.494,3.193l-1.995,1.607l-1.621,1.441
		l-0.748,1.082l-0.783,1.332l-0.725,1.496l-0.529,1.832l-0.511,1.658l-0.558,0.826l-0.67,0.67l-1.239,0.688l-0.931,0.514
		l-1.165,0.49l-1.551,0.779l-1.706,1.605l-1.134,1.496l-0.741,1.582l-0.935,1.186l-1.036,1.246l-0.768,1.168l-0.519,1.496
		l-0.868,3.99l0.054,1.979l0.168,2.223l0.347,1.721l1.212,1.793l0.494,0.576l0.305,0.5l0.405,0.654l0.304,0.326l0.015,0.662
		l0.031,0.328l-0.365,0.686l0.358,0.959l1.246,0.326l1.196,0.039l1.165,0.375l0.814,0.373l0.116,0.803l0.495,0.928l0.37,1.027
		l0.795,0.836l1.324,0.49l2.132,0.287l1.866,0.281l1.063,0.25l0.39,0.475l0.99,2.074l1.06,0.256l0.935,0.023l0.83-0.195l0.257-0.568
		l0.07-1.014l-0.494-1.168l-0.223-0.912l0.199-1.824l0.997-1.332l0.83-0.787l1.11-0.428l2.162-0.281l1.858,0.414l1.715,0.732
		l2.36,1.324l2.236,0.982l4.652,1.043l2.903,0.998l3.159,1.465l2.876,1.801l1.69,1.074l1.325,0.498l0.938-0.1l0.935-0.32
		l1.758-3.023l1.776-4.152l1.165-2.244l1.415-1.559l0.813-0.195l1.609-0.07l1.59,0.506l2.61,1.209l1.586,0.047l4.531,0.139
		l5.213,0.5l4.402,0.584l3.714,0.912l2.255,0.639l1.317,0.498l1.858,0.406l1.75-0.172l2.703-0.375l2.977-0.701l2.459-0.957
		l2.599-1.287l1.246-0.863l1.509-1.441l1.242-1.1l1.142-0.881l1.095-0.303l1.746-0.07l4.165-0.328l2.809,0.203l3.495,0.109
		l3.16,0.561l3.985,0.92l4.1,1.721l3.163,1.006l2.19,0.99l1.519,1.074l1.714,0.967l1.559,1.084l1.566,0.74l1.831,0.615l2.275,0.086
		l5.128-0.414l4.847-0.764l5.525-0.834l6.475-1.051l6.203-0.701l4.823,0.342l4.348,0.686l2.346,0.771L81.27,195.094"/>
</g>
<g id="Layer_1_1_">
</g>
</svg>
