<?xml version="1.0" encoding="utf-8"?>
<!-- Generator: Adobe Illustrator 16.0.4, SVG Export Plug-In . SVG Version: 6.00 Build 0)  -->
<!DOCTYPE svg PUBLIC "-//W3C//DTD SVG 1.1//EN" "http://www.w3.org/Graphics/SVG/1.1/DTD/svg11.dtd">
<svg version="1.1" id="Layer_1" xmlns="http://www.w3.org/2000/svg" xmlns:xlink="http://www.w3.org/1999/xlink" x="0px" y="0px"
	 width="301.07px" height="123.045px" viewBox="-133.667 -54.322 301.07 123.045"
	 style="enable-background:new -133.667 -54.322 301.07 123.045;" xml:space="preserve">
<g id="Layer_14">
	<path id="Bagh" style="fill:#CCCCCC;stroke:#FFFFFF;stroke-width:1.15;" d="M-99.66,29.153L-99.66,29.153l0.646-0.269l0.364,0.034
		l0.083-0.312l0.221-0.165l0.187-0.112l0.187,0.017l0.212-0.217l0.304-0.173h0.325l0.134,0.044l0.187,0.207l0.117,0.07l0.17,0.121
		l-0.031,0.19v0.19l0.057,0.062l0.16,0.147l0.139,0.061l0.446-0.199l0.096-0.243l0.091-0.243l0.052-0.225l0.026-0.191v-0.434V27.28
		l0.074-0.286l0.086-0.181l0.117-0.148l0.139-0.147l0.187-0.121l0.144-0.069l0.116-0.025h0.127l0.182,0.017l0.19,0.052l0.187,0.096
		l0.187,0.061l0.112,0.034l0.347,0.183l0.152,0.078l0.125,0.078l0.187,0.086l0.122,0.061l0.1,0.148l0.069,0.069l0.187,0.13
		l0.082,0.077l0.087,0.053l0.229,0.053h0.187l0.187,0.017h0.178h0.187l0.151-0.112l0.091-0.165v-0.121v-0.078v-0.131l-0.039-0.139
		l-0.147-0.199l-0.073-0.182l-0.126-0.19l-0.087-0.183l-0.052-0.208l-0.043-0.13l-0.022-0.183l-0.017-0.146l-0.07-0.165
		l-0.017-0.156l-0.091-0.183v-0.173l0.056-0.13l0.079-0.13l0.025-0.199v-0.191l0.064-0.165l0.018-0.173l0.069-0.347l0.144-0.183
		l0.187-0.26l0.104-0.155l0.1-0.209l0.096-0.199l0.16-0.19l0.187-0.147l0.178-0.147l0.187-0.104l0.242-0.139l0.113-0.182
		l0.083-0.147l0.043-0.156l0.086-0.121l0.135-0.104l0.204-0.164l0.295-0.087l0.178-0.078l0.186-0.086l0.204-0.191l0.152-0.174
		l0.052-0.233l0.018-0.191v-0.217v-0.199v-0.234v-0.251l0.069-0.226l0.178-0.104l0.099-0.07l0.304-0.068l0.248,0.034l0.177,0.104
		l0.187,0.121l0.187,0.095l0.121,0.052l0.135,0.131l0.169,0.052l0.26,0.018l0.187-0.13v-0.234l0.122-0.155v-0.113v-0.164v-0.019
		v-0.129v-0.087v-0.062l0.017-0.26l-0.095-0.624l-0.161-0.226l-0.043-0.139l-0.034-0.113l-0.117-0.233l-0.044-0.078l-0.064-0.104
		l-0.078-0.096l-0.073-0.096l-0.156-0.147l-0.092-0.208l-0.025-0.112l-0.018-0.035l-0.018-0.087l-0.052-0.112l-0.021-0.2
		l-0.035-0.216v-0.026v-0.104l-0.087-0.286l-0.082-0.208l0.057-0.261l0.221-0.277l0.195-0.234l0.16-0.251l0.273-0.165l0.16-0.077
		l0.187-0.104l0.304-0.191l0.338-0.276l0.087-0.131l0.035-0.052v-0.19l-0.018-0.147l-0.187-0.148l-0.117-0.39v-0.207v-0.243
		l0.073-0.104l0.052-0.112l0.152-0.209l0.16-0.19l0.16-0.208l0.104-0.104l0.057-0.061l0.095-0.122l0.092-0.078l0.203-0.199
		l0.122-0.087l0.073-0.061l0.13-0.034h0.039l0.229-0.035h0.222l0.116,0.035l0.179,0.034l0.256,0.009l0.221-0.087l0.178-0.164
		l0.143-0.226l0.126-0.199l0.035-0.078l0.052-0.112l0.091-0.087l0.078-0.087l0.108-0.061l0.052-0.035l0.144-0.052l0.034-0.009h0.113
		h0.073h0.087l0.091,0.009l0.087,0.017l0.178,0.096l0.178,0.104l0.16,0.019h0.035h0.143l0.187-0.026h0.026l0.034-0.025l0.091-0.131
		l0.204-0.147l0,0l0.069-0.242l0.03-0.217l0.113-0.19l0.082-0.208l0.069-0.208l0.108-0.312l0.156-0.243l0.269-0.468l0.229-0.165
		l0.247-0.26l0.295-0.156l0.39-0.086l0.417-0.173l0.194-0.078l0.355-0.069l0.287-0.104l0.246-0.095L-76,4.678l0.265-0.095
		l0.117-0.043l0.334-0.018h0.177h0.226l0.187,0.018l0,0l0.044,0.018l0.169,0.06l0.281,0.104l0.187,0.069l0.195,0.095l0.226,0.113
		l0,0h0.017l0.148,0.069l0.169,0.078h0.008h0.009l0.187,0.078l0.178,0.095l0.135,0.095l0.025,0.018l0.074,0.052l0.112,0.096
		l0.16,0.19l0.17,0.148l0.1,0.078l0.146,0.147l0.074,0.061l0.009,0.035l0.126,0.13l0.187,0.156l0.146,0.156l0.234,0.19l0.121,0.096
		l0.044,0.035l0.19,0.112l0.204,0.095l0.272,0.061l0.108,0.018l0.179,0.026l0.186,0.035l0.187,0.052l0.256,0.104l0.187,0.095
		l0.238,0.061h0.018h0.013l0.182,0.034l0.144,0.009h0.074h0.147h0.073h0.281l0.339-0.009l0.32-0.008l0.434-0.018h0.108l0,0h0.187
		h0.16l0.144,0.051l0.164,0.07l0.364,0.156l0.187,0.068l0.312,0.052l0.407,0.166l0.338,0.112l0.195,0.2l0.187,0.259l0.117,0.104
		l0.043,0.052l0.464,0.139l0.187,0.122l0.009,0.025l0.087,0.139l0.061,0.148l0.017,0.042l0.083,0.148l0.126,0.182v0.009l0.095,0.182
		l0.108,0.148v0.017l0.018,0.061l0.061,0.095l0.026,0.035l0.025,0.104l0,0l0,0l0.083,0.113l0.026,0.155v0.017l0.06,0.157
		l-0.069,0.295v0.164l-0.107,0.261l-0.069,0.182v0.139v0.199v0.112l0.008,0.062l-0.008,0.086v0.087l0.069,0.19l0.047,0.044
		l0.044,0.061l0.169,0.339l0.018,0.025l0.086,0.139l0.135,0.19l0.018,0.018l0.009,0.025l0.091,0.113l0.061,0.034l0.018,0.035
		l0.187,0.226l0.025,0.025l0.152,0.356l0.025,0.043l0.018,0.044l0.135,0.112l0.025,0.018l0.144,0.182l0,0l0.186,0.182l0.062,0.035
		l0.125,0.087l0.109,0.061l0.06,0.078l0.018,0.087l0.026,0.043l0.043,0.147l0.018,0.112l0.013,0.035l0.018,0.112l0.035,0.13
		l0.017,0.035l0.026,0.061l0.009,0.052l0.009,0.078l0.009,0.572v0.208v0.277l0.017,0.096l0.187,0.182l0.152,0.226l0.187,0.218
		l0.134,0.225l0.069,0.174l0.187,0.165l0.083,0.061l0.095,0.068l0.295,0.226l0.187,0.096l0.187,0.087l0.143,0.078l0.355,0.199
		l0.174,0.052l0.269,0.156l0.229,0.165l0.161,0.077l0.1,0.044l0.187,0.078l0.637,0.095h0.286h0.113l0.116-0.008l0,0l0.187-0.113
		l0.187-0.147l0.104-0.077l0.177-0.087l0.213-0.087h0.217l0.187,0.035l0.221,0.164l0.044,0.19l0.177,0.113l0.027,0.017l0.159,0.079
		l0.187,0.112l0.062,0.052l0.143,0.095l0.144,0.166l0.017,0.017l0.117,0.139l0.13,0.131l0.152,0.182l0.025,0.018l0.126,0.13
		l0.052,0.13l0.048,0.096l0.096,0.129l0.069,0.035l0.187,0.078l0.187,0.173l0.186,0.079l0.261,0.086l0.178,0.069l0.017,0.018
		l0.126,0.131l0.122,0.147h0.008l0.187,0.12l0.057,0.035l0.078,0.069l0.078,0.095l0.143,0.131l0.187,0.078l0.126,0.068l0.16,0.105
		l0.204,0.086l0.178,0.053l0.061,0.042l0.16,0.148l0.151,0.13l0.126,0.156l0.061,0.208l0,0v0.217v0.303v0.183l0.018,0.164v0.062
		v0.199l-0.151,0.303l-0.053,0.183v0.052v0.113v0.121l0.126,0.062l0.147,0.068l0.187,0.096l0.204,0.018l0.234,0.096l0.112,0.061
		l0.169,0.052l0.204,0.087l0.169,0.104l0,0l0.082,0.19v0.018v0.113l0.139,0.338l0.187,0.182l0.169,0.096l0.161,0.078l0.177,0.13
		l0.108,0.052l0.053,0.043l0.187,0.105l0.186,0.025l0.135,0.017l0.104,0.078l0.108,0.087l0.017,0.026l0.117,0.147l0.169,0.156
		l0.165,0.146l0.021,0.33v0.174l0.078,0.182l0.018,0.086l0.143,0.035h0.17h0.221l0.295-0.104l0.187-0.061l0.186-0.096l0.165-0.069
		l0.169-0.053l0.187-0.06l0.269-0.096l0.135-0.052h0.034l0.248-0.122l0.107-0.069l0.187-0.069l0.187-0.096l0.113-0.017l0.047-0.018
		l0.222-0.113l0.338-0.026h0.069h0.144h0.177h0.035h0.187h0.213h0.134h0.187h0.187l0.567,0.079l0.187-0.061h0.152h0.052h0.187
		l0.086,0.008l0.135,0.018l0.187,0.035l0.178,0.043h0.269h0.178h0.053h0.194h0.247l0.187,0.018l0.091,0.147l-0.187,0.156
		l-0.073,0.052l-0.052,0.052l-0.187,0.122l-0.052,0.164l-0.026,0.174l0,0l-0.135,0.096l-0.107,0.078l-0.053,0.042l-0.108,0.096
		l-0.112,0.13l-0.169,0.104l-0.069,0.078l-0.1,0.112l-0.161,0.165l-0.16,0.147l-0.078,0.155l-0.052,0.053l-0.187,0.355l-0.048,0.052
		l-0.026,0.044l-0.025,0.043l-0.126,0.19l-0.087,0.218l-0.043,0.286l0.018,0.052v0.095l0.043,0.139l0.026,0.096l0.061,0.19v0.061
		l0.013,0.131v0.226l0.069,0.216l0.009,0.062l0.009,0.104v0.338l0.069,0.243l0,0l0.082,0.182l0.104,0.035l0.117,0.242l0.069,0.14
		l0.1,0.155l0.117,0.19l0.13,0.157l0.134,0.181l0.187,0.174l0.117,0.113l0.247,0.138l0.169,0.019l0.291,0.008l0.187,0.035h0.194
		l0.252,0.044h0.112l0.243,0.052l0.485,0.025l0.144,0.087l0.221,0.096l0.194,0.052l0.179,0.062l0.39,0.077l0.286,0.174l0.304,0.12
		l0.078,0.113l0.117,0.139l0.177,0.174l0.113,0.191l0.204,0.354l0.1,0.104l0.194,0.087l0.126,0.044h0.213h0.078h0.056l0.139,0.052
		l0.161,0.104l0.186,0.044l0.17,0.062l0.061,0.017l0.225,0.112l0.161,0.183l0.147,0.139l0.126,0.069l0.107,0.069l0.165,0.122
		l0.191,0.086l0.203,0.043l0.187,0.018h0.229h0.161h0.052h0.052h0.187h0.151l0.152-0.104l0.177-0.13l0.027-0.053l0.052-0.069
		l0.082-0.077l0.112-0.079l0.092-0.017h0.125h0.035h0.052h0.187h0.108h0.043l0.144-0.148l0.13-0.086l0.126,0.034l0.194,0.113h0.187
		l0.187-0.078l0.195-0.112h0.16l0.078,0.147l0.03,0.164l0.078,0.043l0.187,0.062l0.078-0.062l0.187-0.182l0.242-0.139l0.104-0.096
		l0.169-0.121l0.108-0.139l0.187-0.078h0.187l0.143-0.034h0.178l0.087-0.026l0.069-0.017l0.1-0.035l0.187-0.131l0.143-0.034
		l0.187-0.018l0.121-0.017l0.321,0.017l0,0l0.052,0.122l0.031,0.052l0.104,0.104h0.169h0.143h0.161l0.078,0.053l0.069,0.061
		l0.126,0.139l0.143,0.173l0.018,0.026l0.061,0.173l0.018,0.226v0.035v0.147l0.091,0.112l0.009,0.018l0.151,0.226l0.043,0.095
		l0.01,0.044l0.034,0.146l0.057,0.183l0.068,0.183l0.069,0.155v0.07l0.018,0.112l0.074,0.121l0.018,0.052l0.017,0.061l0.061,0.2
		l0.092,0.147l0.112,0.156l0.082,0.068l0.078,0.07l0.178,0.104l0.144,0.061l0.151,0.053l0.187,0.052l0.104,0.018h0.009l0.013,0.017
		l0.139,0.018l0.125,0.018l0.087,0.008l0.169-0.043l0.161-0.052h0.143h0.035h0.186l0.117,0.052l0.187,0.104l0.135,0.061l0.13,0.121
		l0.026,0.018l0.082,0.087l0.126,0.069l0.221,0.208l0.139,0.139l0.065,0.069l0.078,0.112l0.151,0.157l0.018,0.008l0.187,0.035h0.286
		l0.187-0.148l0.186-0.052h0.044h0.043l0.135,0.035l0.143,0.122l0.147,0.112l0.152,0.139l0.073,0.034l0.121,0.069l-0.068-0.035
		l0.203,0.035l0.043,0.009l0,0l0.252,0.147l0.195,0.078l0.238-0.061l0.277-0.104l0.316-0.096l0.277-0.087l0.273-0.139l0.277-0.122
		l0.229-0.104l0.222-0.035l0.229-0.017l0.242,0.017h0.355l0.399-0.017l0.238-0.079l0.187-0.12l0.286-0.052l0.256-0.035l0.246-0.009
		l0.161-0.062l0.187-0.042l0.134,0.025l0.187-0.061l0.187-0.035l0.187-0.017l0.187-0.07l0.134-0.017l0.161-0.044l0.112-0.043
		l0.134,0.009l0.152,0.043l0.151,0.07h0.23l0.187-0.079l0.186-0.086l0.135-0.069l0.195-0.018h0.229l0.221,0.043h0.187l0.204,0.035
		h0.229h0.187l0.243,0.017h0.187h0.221l0.187-0.112l0.221-0.087l0.187-0.112l0.169-0.069l0.187-0.121l0.126-0.07l0.144-0.13
		l0.164-0.121l0.074-0.156l0.052-0.164l0.117-0.174l0.264-0.139l0.187-0.096l0.187-0.087l0.035-0.138v-0.209v-0.139l-0.018-0.139
		l-0.104-0.147l-0.048-0.19v-0.19v-0.398l-0.017-0.183l0.039-0.156l0.025-0.183l0.122-0.164l0.117-0.217l0.077-0.183l0.108-0.129
		l0.152-0.286v-0.209l0.112-0.234l0.009-0.164l0.057-0.139l0.112-0.348l-0.096-0.216l-0.073-0.234l-0.061-0.217v-0.183l0.018-0.181
		l0.064-0.165l0.096-0.199l0.043-0.218l0.048-0.226l0.044-0.199l0.034-0.199l0.035-0.233l0.064-0.191l0.187-0.269l0.13-0.121
		l0.234-0.165l0.238-0.147l0.187-0.155l0.178-0.147l0.203-0.131l0.417,0.069l0.151,0.13l0.329,0.226l0.265,0.174l0.152,0.104
		l0.187,0.129l0.186,0.07l0.187,0.068l0.213,0.078l0.277,0.035h0.334h0.294h0.321l0.551-0.147l0.203-0.121l0.256-0.087l0.204-0.147
		l0.169-0.017l0.187,0.146l0.126,0.139l0.143,0.121l0.151,0.104l0.147,0.13l0.144,0.122l0.178,0.146l0.108,0.053l0.29,0.052H3.88
		l0.304,0.069H4.37l0.204,0.035l0.251,0.077l0.213,0.052l0.29,0.053h0.187l0.243,0.018l0.272,0.034l0.169,0.018l0.273,0.035
		l0.295,0.017l0.187,0.035l0.221,0.052l0.212,0.078l0.196,0.147L7.77,33.74l0.151,0.086l0.16,0.113l0.251,0.182l0.165,0.173
		l0.195,0.07l0.251-0.07l0.178-0.06l0.144-0.018l0.308-0.174h0.667H9.065l0.177,0.174l0.187,0.139l0.187,0.173l0.187,0.113h0.338
		l0.382,0.018h0.243h0.203l0.291-0.018h0.55h0.187l0.277,0.069l0.399,0.121l0.221,0.053l0.222,0.052l0.217,0.061l0.381-0.034
		l0.187-0.183l0.121-0.174l0.243-0.19l0.187-0.147l0.381-0.261l0.247-0.155l0.187-0.112l0.295-0.07l0.316-0.043h0.026l0.187-0.112
		l0.178-0.113l0.186-0.13l0,0l0.144-0.13l0.144-0.096l0.229-0.13l0.178-0.087l0.091-0.077l0.069-0.019l0.1-0.06l0.104-0.018l0,0
		h0.082l0.188,0.034l0,0l0.333,0.234l0.187,0.095l0.234,0.053l0.187,0.018l0.13,0.043l0.065,0.009l0.186,0.121l0.17,0.165
		l0.187,0.19l0.087,0.122l0.186,0.147l0.195,0.13l0.27,0.13l0.194,0.078l0.23,0.139l0.294,0.174l0.183,0.139l0.177,0.096l0.464,0.12
		h0.277l0.243,0.113l0.347,0.138l0.278,0.139l0.251,0.166l0.217,0.068l0.33,0.157l0.268,0.129l0.147,0.078l0.069,0.044l0.131,0.068
		l0.121,0.054l0.095,0.095l0.147,0.112l0.183,0.147l0.156,0.226l0.129,0.19L25.204,37l0.087,0.277l0.034,0.087l0.078,0.155
		l0.113,0.147l0.251,0.139l0.233,0.087l0.183,0.061l0.112,0.018l0.296,0.078l0.52,0.095l0.234,0.166l0.164,0.052l0.183,0.052
		l0.199,0.052l0.364,0.087l0.295-0.069l0.182-0.096l0.183-0.061l0.226-0.078l0.025-0.018l0.182-0.095l0.191-0.078l0.226-0.069
		l0.19-0.096l0.139-0.069l0.19-0.13l0.104-0.069l0.19-0.174l0.19-0.156l0.183-0.104l0.381-0.147l0.348-0.26l0.303-0.018h0.044
		l0.139-0.035l0.182-0.095l0.26-0.035l0.122-0.034l0.043-0.01l0.131-0.008l0.19-0.018l0.182-0.095l0.165-0.096l0.19-0.13
		l0.044-0.009l0.19-0.087l0.182-0.078l0.191-0.139l0.146-0.052l0.113-0.053l0.147-0.164l0.052-0.052l0.078-0.096l0.052-0.19v-0.165
		l0.053-0.199l0.017-0.139l0.018-0.165v-0.191v-0.182v-0.147v-0.139v-0.182l0.165-0.2l0.147-0.104l0.052-0.043l0.052-0.035
		l0.096-0.069l0.182-0.174l0.156-0.095l0.208-0.173l0.034-0.026l0.191-0.156l0,0l0.191-0.182l0.068-0.209l0.147-0.216l0.183-0.19
		l0.139-0.183l0.19-0.165h0.052l0.147-0.052l0.27-0.034l0.528-0.019l0.026-0.017l0.104-0.052l0.191-0.062l0.19-0.052l0.261-0.087
		l0.12-0.086l0.183-0.174l0.13-0.095l0.104-0.104l0.078-0.069l0.182-0.191l0.096-0.216l0.104-0.13l0.069-0.122l0.096-0.156
		l0.052-0.06l0.062-0.07l0.129-0.104l0.053-0.052l0.19-0.14l0.13-0.095l0.182-0.07l0.199-0.086l0.019-0.009l0.182-0.096l0.069-0.061
		l0.043-0.017l0.112-0.052l0.166-0.087l0.173-0.243l0.147-0.139l0.183-0.19l0.112-0.122l0.104-0.104l0.078-0.139l0.053-0.079
		l0.078-0.182l0.139-0.199l0.173-0.087h0.208h0.191h0.416h0.173l0.165,0.018l0.46,0.018h0.147h0.319H45.5h-0.789h0.062h0.19h0.183
		h0.068h0.052h0.165l0.112-0.018l0.018,0.025l0.19,0.019h0.19l0.218-0.019l0.182-0.12l0.069-0.044l0.243-0.043l0.173-0.147
		l0.226-0.156l0.218-0.183l0.182-0.086l0.19-0.113l0.061-0.034l0.147-0.087l0.078-0.035l0.069-0.034l0.13-0.069l0.304-0.174
		l0.494,0.997l0.521,0.642l0.606,0.833l0.546,0.147l0.148,0.025l0.546,1.145l0.528,0.624l0.217,0.521l0.078,0.441l0.086,0.382
		l0.556,0.694l0.373,0.52l0.286,0.382l0.294,0.944l0.469,0.945l0.902,1.153l0.605,1.006l0.373,0.512l0.529,0.251l0.156,0.381
		l0.035,0.07v0.702l-0.261,0.27l-0.035,0.033l-0.173,0.643v0.433v0.763l0.087,0.572l0.182,0.174l0.165,0.156l0.277,0.625
		l0.052,0.259l0.053,0.312l0.19,0.581l0.104,0.147l0.27,0.416l0.226,0.528l0.077,0.563l0.174,0.435l0.58,0.528l0.755,1.267
		l0.59,0.641l0.563,0.615l0.321,0.348l0.259,0.295l0.46,0.433l0.373,0.33l0.312,0.19l0.19,0.13l0.919,0.572l0.312,0.139l0.294,0.104
		l0.122,0.078l0.329,0.182l0.053,0.069l0.226,0.312l0.12,0.069l0.122,0.069l0.537,0.26l0.295,0.191l0.399,0.182l0.571,0.252l0,0
		l0.373,0.321l0.304,0.233l0.146,0.182l0.183,0.156l0.165,0.521l0.183,0.242l0.277,0.46l0.19,0.183l0.112,0.12l0.217,0.382
		l0.529,0.521l0.19,0.242l-0.226,0.139h-0.164h-0.122l-0.46-0.139h-0.528h-0.364h-0.546h-0.65l-0.226,0.148l-0.26,0.104
		l-0.347,0.147l-0.191,0.45v0.312v0.451l0.087,0.382h0.19h0.053l0.555,0.216l0.702,0.277l0.442,0.321l0.606,0.312l0.451,0.19
		l0.746,0.243v0.571l0.009,0.556v0.563l0.13,0.347l0.052,0.173l0.416,0.183l0.191,0.069l0.598,0.139l1.127,0.32l0.468,0.183
		l0.199,0.077l0.477,0.218l0.659,0.285l0.521,0.512l0.676,0.694l0.477,0.555l0,0l0.234-0.043l0.164-0.035l0.234-0.113l0.182-0.086
		l0.105-0.104l-0.053-0.147l-0.053-0.069l-0.182-0.182l-0.164-0.131l-0.035-0.034l-0.164-0.112l-0.131-0.478l0.052-0.233v-0.026
		v-0.009l0.104,0.009h0.052l0.321-0.104v-0.077l-0.026-0.148l-0.018-0.095l0.286-0.269l0.321-0.304l0.199-0.234l0.182-0.129
		l0.104-0.053l0.355-0.199l0.183-0.078l0.269-0.182l0.096-0.044l0.346-0.139l0.312-0.113l0.234-0.234l0.363-0.381l0.321-0.225
		l0.312-0.139l0.242-0.105l0.069-0.017l0.174-0.052l0.277-0.044l0.364-0.052l0.156-0.008l0.19-0.035l0.399-0.19h0.19h0.502h0.286
		h0.53l0.276,0.068h0.234h0.182l0.416-0.139l0.295-0.069l0.19-0.069l0.191-0.077h0.286l0.928-0.209l0.677,0.148l0.363-0.035
		l0.512-0.061h0.364h0.234h0.087l0.077-0.01l0.321-0.025l0.19-0.034l0.174-0.044l0.207-0.043l0.417-0.104l0,0h0.052l0.295-0.017
		l0.624-0.044l0.469-0.061h0.035h0.017l0.477-0.025l0.234-0.027l0.13-0.008l0.442,0.026v0.009l0.277,0.19l0.165,0.095l0.182,0.174
		l0.208,0.208l0.053,0.035l0.146,0.068l0.165,0.062h0.398l0.243,0.096l0.399,0.155h0.398l0.208-0.008h0.182h0.148h0.138h0.208
		l0.131-0.019l0.216-0.017l0.364-0.078l0.278-0.165h0.433h0.07h0.19h0.554h0.234l0.234,0.035l0.13,0.077l0.113,0.053l0.165,0.156
		l0.069,0.104l0.043,0.061l0.087,0.147l0.156,0.147l0.19,0.13h0.269l0.182-0.13l0.079-0.069l0.017-0.008l0.252-0.191l0.182-0.104
		l0.165-0.096h0.312h0.086h0.095h0.14l0.095-0.12l0.035-0.019l0.087-0.147l0.226-0.233l0.329-0.034h0.035l0.312-0.035h0.087
		l0.122-0.026h0.19l0.164-0.017l0.139-0.018l0.495-0.104l0.19-0.017l0.19-0.026h0.164h0.018h0.053l0.425-0.018h0.415l0.183-0.061
		l0.2-0.052l0.398-0.174l0.226-0.207l0.19-0.096l0.156-0.07l0.304-0.139l0.268-0.147l0.451-0.164l0.226-0.147l0.226-0.069
		l0.226-0.07l0.26-0.06l0.191-0.026l0.025-0.018l0.312-0.096h0.061h0.121h0.45l0.183-0.033l0.217-0.07l0.191-0.035l0.19-0.061
		l0.147-0.173l0.043-0.034h0.451l0.052,0.017l0.183,0.112l0.312,0.07h0.096h0.173h0.191h0.043h0.096h0.226l0.286-0.026h0.025
		l0.174-0.025l0,0h0.312h0.216l0.468-0.079l0.348-0.139h0.312l0.364-0.034l0.304-0.104l0.19-0.112l0.416-0.139l0.312-0.209
		l0.355-0.164l0.182-0.052l0.165-0.043l0.442-0.209h0.052l0.226-0.096l0.19-0.095l0.434-0.208l0.087-0.026l0.416-0.139l0.295-0.138
		l0.19-0.087l0.035-0.019h0.017l0.312-0.207l0.711,0.078l0.634-0.043h0.528l0.087-0.019l0.312-0.052h0.555h0.312h0.191h0.528
		l0.399-0.19l0.719-0.025l0.556-0.113l0.485-0.069l0.477-0.069l0.633-0.034l0.398-0.07l0.451-0.147l0.243-0.104l0.26-0.104
		l0.32-0.112l0.252-0.069l0,0l0.034-0.018l0.191-0.087l0.399-0.19l0.58-0.485v-0.321l-0.026-0.199l-0.017-0.261v-0.338v-0.268
		l0.078-0.348l0.182-0.26l0.078-0.304l0.13-0.156l0.052-0.095l0.104-0.112l0.069-0.087l0.147-0.157h0.096h0.13l0.139,0.113
		l0.164,0.147l0.061,0.052l0.122,0.156l-0.122,0.2h0.148h0.521h0.19h0.086h0.087h0.174l0.139,0.033l0.104,0.147l0.087,0.131
		l0.174,0.095l0.068,0.113h0.019l0.146,0.156l0.034,0.052l0.096-0.069l0.087-0.069l0.104-0.052l0.026-0.018l0,0v-0.078l0.183-0.13
		l0.087-0.069l0.182-0.2l0.182-0.181l0.183-0.174l0.182-0.122l0.096-0.052l0.399-0.226l0,0v-0.347l-0.044-0.329l-0.087-0.382
		l-0.182-0.286l-0.018-0.043l-0.035-0.338l0.096-0.443l0.104-0.268l0,0l0.157-0.261l0.276-0.035h0.277h0.209h0.225h0.087h0.087
		l0.234,0.131l0.13,0.078l0.19,0.061l0.112,0.113l0.234,0.225h0.19h0.191l0.156-0.034l0.19-0.07l0.131-0.198l0.363-0.27l0.269-0.096
		l0.208-0.242l0.277-0.208l0.277-0.269l0.209-0.199l0.104-0.078l0.165-0.156l0.233-0.242l0.261-0.278l0.45-0.217l0.019-0.026
		l0.207-0.096l0.139-0.139l0.131-0.173l0.354-0.451l0.312-0.259l0.364-0.305l0.173-0.112l0.105-0.061l0.207-0.226l0.122-0.078
		l0.199-0.164l0.303-0.477l0.226-0.244l0.312-0.225l0.355-0.269l0,0l0.043-0.044l0.157-0.174l0.259-0.139l0.183-0.146l0.321-0.252
		v-0.018l0.182-0.26l0.183-0.182l0.164-0.199l0.234-0.183l0.312-0.13l0.086-0.173l0.347-0.218l0.183-0.121l0.512-0.199l0.26-0.27
		l0.399-0.312l0.052-0.034l0.363-0.165l0,0l0.087-0.062l0.348-0.242l0.312-0.199l0.069-0.113l0.104-0.182l0.556-0.113l0.294-0.182
		l0.469-0.373l0.312-0.26l0.363-0.182l0.399-0.112l0.208-0.07l0.226-0.068l0.182-0.009l0.183-0.019l0.182-0.19l0.034-0.017l0,0
		l0.425-0.113l0.191-0.009l0.329-0.025l0.399-0.096l0.537-0.182l0.19-0.105l0.486-0.172l0.121-0.122l0.555-0.234l0.46-0.112
		l0.363-0.104l0.442-0.139l0.364-0.079l0.269-0.068h0.13l0.226-0.277l0.069-0.052l0.104-0.087l0.217-0.183l0.095-0.078l0.052-0.052
		l0.27-0.183l0.043-0.303l-0.018-0.026l-0.121-0.243l-0.061-0.277l0.104-0.251l0.095-0.277l0.27-0.277l0.286-0.191l0.19-0.174
		l0.416-0.164l0.018-0.009l0,0l0.364-0.372l0.329-0.139l0.183-0.199l-0.062-0.244l-0.052-0.034l-0.251-0.19l-0.234-0.148
		l-0.183-0.164l-0.26-0.139l0,0l-0.199-0.226l-0.087-0.234l-0.018-0.077l-0.017-0.07l-0.244-0.173l-0.216-0.139l-0.234-0.086
		l-0.182-0.278l-0.147-0.19l0.174-0.2l0.459-0.19l0.165-0.303l0.182-0.112l0.183-0.131h0.017l-0.017-0.304l-0.104-0.243
		l-0.243-0.226h-0.017l-0.07-0.138l-0.087-0.139v-0.312v-0.017l0.087-0.261v-0.234V26.7l-0.087-0.312v-0.191l-0.19-0.242
		l-0.19-0.234l-0.044-0.347v-0.269l0.044-0.373l0.252-0.468l0.183-0.269l0.329-0.339l0.034-0.372v-0.226v-0.122l-0.044-0.398v-0.13
		V22.2l0.131-0.442l0,0l0.034-0.303l0.226-0.338l0,0h0.018l0.017-0.053l0.139-0.277l0.183-0.2l0.209-0.207l0.182-0.199l0.156-0.2
		l0.164-0.338l0.13-0.173l0.035-0.053l0.077-0.078v-0.277v-0.425l-0.147-0.304l-0.033-0.061l-0.131-0.303l-0.182-0.304l-0.018-0.009
		l-0.156-0.183l-0.19-0.251l-0.113-0.277l-0.06-0.122l-0.035-0.095l-0.156-0.217l-0.113-0.242l-0.199-0.183l-0.242-0.165
		l-0.122-0.13l-0.164-0.277l-0.182-0.243l-0.305-0.286l-0.147-0.277l-0.052-0.276l-0.182-0.174l-0.078-0.044h-0.069h-0.147
		l-0.312-0.034l-0.268-0.061l-0.417-0.165l-0.155-0.061l-0.287-0.278l-0.043-0.052l-0.026-0.017l-0.182-0.113l-0.052-0.025
		l-0.035-0.026l-0.398-0.312l-0.165-0.2l-0.112-0.104v-0.06v-0.147l0.068-0.087l0.087-0.122l0.157-0.199l0.232-0.174l0.617-0.068
		l0.112-0.052l0.078-0.044l0.277-0.095l0.121-0.07v-0.077v-0.044l0.035-0.65v-0.242l0.19-0.304l0.13-0.269V9.949V9.611l0.398-0.469
		l0.278-0.172l0.182-0.27l0.329-0.348l0.018-0.294l0.018-0.191V7.496l-0.139-0.2l-0.19-0.243l-0.312-0.338l-0.295-0.312l-0.19-0.095
		l-0.659-0.182l-0.182-0.061l-0.321-0.13l-0.165-0.052l-0.182-0.052l-0.494-0.234l-0.087-0.061l-0.199-0.139l-0.347-0.138h-0.277
		h-0.087h-0.277l-0.183-0.035l-0.182-0.061l-0.217-0.208l-0.182-0.191l-0.174-0.269l-0.191-0.199l-0.182-0.208l-0.183-0.234V3.62
		l0.019-0.061l0.077-0.217l0.078-0.199l0.139-0.339l0.261-0.346l0.19-0.269l0.182-0.278l0.183-0.269l0.156-0.113l0.061-0.052
		l0.078-0.303V0.898l-0.053-0.234l-0.121-0.338l-0.121-0.408l-0.191-0.408l-0.173-0.277l-0.19-0.399l-0.191-0.243l-0.26-0.191
		l-0.321-0.347l-0.095-0.121l-0.087-0.086l-0.502-0.564l-0.278-0.13l-0.156-0.043l-0.485-0.191l-0.321-0.113l-0.512-0.095
		l-0.658-0.277l-0.485-0.104l-0.277-0.026l-0.546-0.035h-0.183h-0.832l-0.494,0.026l-0.148,0.026l-0.181,0.043l-0.078,0.139
		l-0.174,0.069l-1.387-0.104h-0.087h-0.191l-0.269-0.104l-0.441-0.156l-0.227-0.113h-0.806l-0.321-0.104l-0.806,0.147l-0.234,0.069
		h-0.537l-0.902-0.199h-0.347l-0.277,0.303l0.009,0.338l-1.041,0.104l-0.441,0.174h-0.503h-0.304h-0.233h-0.659l-0.547,0.034
		l-0.303,0.069h-0.329l-0.556-0.095l-0.433-0.035h-1.241l-0.216,0.018l-0.183-0.034l-0.217-0.035l-0.91-0.112h-0.798l-0.407-0.165
		l0,0l-0.269-0.338l-0.13-0.278l-0.234-0.338l-0.321-0.191l0.191-0.338l0.034-0.442v-0.564l-0.139-0.165v-0.243v-0.243l0.052-0.312
		l0.131-0.598l0.087-0.278l0.129-0.2l0.139-0.208l0.052-0.243l0.27-0.269l0.13-0.182v-0.269l-0.13-0.165l-0.096-0.182l-0.182-0.19
		l-0.044-0.278v-0.226l0.044-0.139l0.269-0.199l0.183-0.104l0.312-0.165l0.312-0.174l0.182-0.199v-0.208l-0.182-0.26l-0.131-0.243
		l-0.146-0.096l-0.581-0.035l-0.304-0.035l-0.589-0.208h-0.304h-0.243l-0.216,0.026l-0.183,0.104h-0.226l-0.885,0.147l-0.779-0.035
		l-0.547-0.113l-0.893-0.338l-0.729-0.2h-0.451h-0.572l-0.364-0.104l-0.32-0.173l-0.269-0.165l-0.174-0.174l-0.19-0.199
		l-0.174-0.234l-0.034-0.312l-0.2-0.312l-0.087-0.13v-0.303l-0.042-0.2v-0.251l-0.087-0.398l-0.052-0.208v-0.226v-0.208
		l-0.122-0.165l-0.122-0.113l-0.415-0.104l-0.182-0.026l-0.087-0.069h-0.131l-0.347-0.139l-0.277-0.104h-0.269l-0.217,0.104
		l-0.32,0.079h-0.547l-0.329-0.113l-0.312-0.165h-0.183l-0.667-0.303l-0.312-0.104l-0.581-0.269h-0.095h-0.218h-0.441l-0.122,0.009
		l-0.19,0.017l-0.226,0.104l-0.277,0.113l-0.59,0.312l-0.226,0.13l-0.312,0.13l-0.268,0.182l-0.183,0.061h-0.018h-0.277h-0.26h-0.07
		h-0.068h-0.199h-0.711h-0.087h-0.277l-0.547-0.122l-0.19-0.043l-0.208-0.113l-0.277-0.13l-0.563-0.13l-0.183-0.069l-0.329-0.104
		l-0.19-0.035l-0.312-0.061h-0.511l-0.451-0.026l-0.442-0.113h-0.503l-0.408,0.043h-0.033l-0.27,0.026l-0.555,0.173l-0.398,0.304
		l-0.634,0.173l-0.364-0.026l-0.528-0.407l-0.815-0.165l-0.277-0.078l-0.155-0.061l0,0l-0.677-0.373l-0.459-0.061l-0.321-0.173
		l-0.174-0.104l-0.19-0.104h-0.547l-0.346,0.208l-0.321,0.269H99.08l-0.312,0.139h-1.014h-0.547l-0.45-0.096l-0.182-0.113
		l-0.191-0.069l-0.173-0.061h-0.365l-0.484-0.034l-0.174-0.052l-0.13-0.035l-0.304-0.086h-0.19l-0.954,0.078l-0.226,0.043
		l-0.182,0.026l-0.407,0.069l-0.053,0.008l-0.225,0.026l-0.2,0.035l-0.199,0.026h-0.13h-0.182l-0.841,0.026l-0.305,0.069
		l-0.12,0.009l-0.312,0.035l-0.312-0.017l-0.191-0.018l-0.19-0.078l-0.182-0.087l-0.546-0.242l-0.399,0.139v0.321l0.139,0.234
		l0.096,0.122l0.043,0.052l0.07,0.104l0.008,0.026l0.018,0.018l0.13,0.226v0.26l-0.226,0.182l0,0l-0.441-0.069l-0.607-0.182
		l-0.112-0.061l-0.069-0.035l-0.087-0.069h-0.183h-0.181l-0.399,0.139l-0.096,0.173l-0.269,0.104h-0.173l-0.191-0.199l-0.147-0.234
		l-0.269-0.113l-0.364-0.026l-0.069-0.018l-0.069-0.017l-0.19-0.043l-0.079-0.018l-0.182-0.008h-0.069h-0.207l-0.278,0.034h-0.043
		h-0.312h-0.407l-0.442,0.208l-0.183,0.096l-0.294,0.165l-0.711,0.043l-0.59,0.035l-0.26,0.139l-0.348,0.104l-0.276,0.069
		l-0.19,0.07l-0.174,0.026l-0.191,0.104l-0.407,0.139l-0.347,0.147l-0.252,0.191L78.09-15.61l-0.563,0.069l-0.32,0.13l-0.312,0.138
		l-0.321,0.113l-0.615,0.269h-0.591l-0.398,0.035l-0.771,0.035l-0.53,0.069l-0.554,0.147H72.75l-0.538,0.034l-0.329,0.122
		l-0.217,0.251l-0.494,0.546l-0.832,0.026h-0.59H69.3l-0.625-0.165l-0.537-0.243l-0.512-0.269l-0.312-0.2l-0.442-0.546l-0.364-0.269
		l-0.85-0.373l-0.45-0.243l-0.494-0.434l-0.27-0.243l-0.763-0.13l-0.398-0.147l-0.46-0.139h-0.528l-0.486,0.069l-0.459,0.312
		l-0.347,0.477l-0.165,0.398l-0.139,0.277l-0.043,0.381l-0.183,0.338l-0.12,0.304l-0.139,0.304l-1.189,0.251l-0.242,0.442
		l-0.234,0.407l-0.251,0.303l-0.355,0.234l-0.407,0.381l-0.442,0.442l-0.069,0.338l-0.711,0.572l-0.121,0.035l-0.191,0.165
		l-0.19,0.148l-0.208,0.225l-0.087,0.078l-0.642,0.234l-0.269,0.208l-0.182,0.13l-0.348,0.104l-0.398,0.069l-0.364,0.512
		l-0.676,0.243L52.549-8.57l-0.364,0.13l-0.19,0.07l-0.191,0.043h-0.182h-0.164h-0.191h-0.191h-0.363l-0.329-0.078h-0.278H49.87
		h-0.251l-0.278-0.069L49.107-8.57l-0.166-0.069L48.76-8.743l-0.164-0.035h-0.364h-0.234l-0.477,0.113L47.329-8.57l-0.19,0.165
		l-0.226,0.113l-0.19,0.069h-0.19L46.22-8.249l-0.295-0.113L45.561-8.5h-0.382l-0.199,0.069l-0.182,0.147l-0.19,0.19L44.486-7.85
		h-0.148l-0.303-0.069l-0.312-0.182l-0.234-0.13L42.96-8.344l-0.277-0.061l-0.434-0.199l-0.643-0.035l-0.397-0.078l-0.286-0.035
		l-0.147-0.096v-0.139l-0.139-0.277L39.7-9.289h-0.434h-0.312l-0.19-0.026L38.556-9.35l-0.234-0.139L38.01-9.628l-0.737-0.208
		L37.081-9.94l-0.294-0.13l-0.434-0.069l-0.312-0.026l-0.398,0.035l-0.199,0.069l-0.2,0.199L34.88-9.515l-0.329,0.234l-0.27,0.199
		l-0.165,0.139l-0.225,0.277l-0.234,0.139l-0.2,0.129l-0.45,0.035l-0.277,0.113L32.33-8.188l-0.398,0.104l-0.399,0.147h-0.554
		l-0.503-0.078l-0.243-0.165l-0.754-0.035l-0.72-0.026l-0.208,0.13h-0.46h-0.363l-0.452-0.026l-0.433-0.139l-0.364-0.139
		l-0.147-0.079l-0.078-0.026l-0.252-0.139l-0.329-0.208l-0.277-0.269L25.16-9.332l-0.441-0.2l0,0l-0.321-0.199L24.146-9.94
		l-0.348-0.13l-0.364-0.104l-0.45-0.139l-0.624-0.304h-0.555l0,0l-0.174,0.147l-0.035,0.035l-0.234,0.165l-0.159,0.095l-0.087,0.043
		l-0.195,0.199l-0.226,0.208l-0.213,0.165l-0.194,0.139l-0.247,0.095h-0.065l-0.29,0.035h-0.32h-0.308l-0.287-0.069l-0.246-0.208
		l-0.218-0.2L17.973-9.94l-0.26-0.035l-0.425-0.078l-0.312-0.052l-0.451-0.026l-0.364-0.113l-0.26-0.104l-0.256-0.061h-0.238h-0.446
		h-0.355h-0.273h-0.33h-0.151H13.4l-0.152,0.026l-0.187,0.035l-0.29,0.061H12.75l-0.316,0.147h-0.286l-0.229,0.035h-0.074
		l-0.299,0.095l-0.355,0.061l-0.321,0.104l-0.281,0.139l-0.152,0.018l-0.169,0.017l-0.39-0.034L9.199-9.766l-0.32-0.034
		l-0.291-0.278l-0.073-0.034l-0.13-0.104l-0.27-0.234l-0.169-0.061l-0.018-0.026L7.77-10.719l-0.187-0.165l-0.179-0.113
		l-0.343-0.104l-0.107-0.026H6.698H6.503H6.325l-0.213-0.026l-0.198-0.069l-0.187-0.061l-0.069-0.2l-0.018-0.034l-0.044-0.269
		v-0.069v-0.295l-0.073-0.147l-0.169-0.234l-0.121-0.234l-0.152-0.078L5.047-12.87l-0.092-0.043l-0.187-0.095l-0.272-0.147
		l-0.364-0.191l-0.221-0.312l-0.065-0.165L3.75-13.91v-0.33v-0.121l-0.034-0.364l-0.108-0.398v-0.009l-0.256-0.225l-0.143-0.234
		l-0.044-0.069l-0.269-0.278l-0.222-0.243l-0.312-0.2l-0.308-0.303l-0.039-0.173l-0.009-0.104v-0.303v-0.338l0.039-0.33l0.078-0.416
		l0.086-0.442l0.048-0.183l0.061-0.19l0.044-0.373l0.187-0.407v-0.373v-0.329l-0.052-0.312L2.463-21.15l-0.044-0.104l-0.056-0.182
		L2.09-21.869l-0.187-0.312l-0.187-0.277l-0.043-0.408v-0.338l0.121-0.138l0.187-0.408l0.044-0.208l0.038-0.199l0.187-0.199
		l0.179-0.2v-0.373l0.155-0.277v-0.243v-1.023v-0.468l-0.086-0.408l-0.213-0.234l-0.416-0.096L1.05-27.817H0.729l-0.272-0.148
		L0.17-28.198l-0.434-0.199l-0.282-0.234L-0.78-28.84l-0.372-0.165l-0.364-0.113l-0.434-0.165l-0.286-0.095l-0.195-0.147
		l-0.238-0.061l-0.329-0.165l-0.32-0.208l-0.087-0.13l-0.069-0.147l-0.057-0.226l-0.035-0.147l-0.16-0.338l-0.178-0.373l-0.56-0.676
		l-0.247-0.208l-0.914-0.304l-0.273-0.095l-0.403-0.104l-0.559-0.173l-0.291-0.035l-0.481-0.13l-0.238-0.148l-0.32-0.104
		l-0.841-0.269l-0.178-0.13l-0.711-0.095l-0.399-0.104l-0.107-0.069l-0.56-0.061l-0.516-0.13l-0.399-0.104l-0.49-0.104l-0.671-0.13
		h-0.49l-0.273,0.035h-0.55l-0.27,0.104l-0.316,0.173l-0.845,0.269l-0.408,0.173l-0.472,0.173l-0.525,0.208l-0.441,0.226
		l-0.499,0.147l-0.213,0.139l-0.238,0.139l-0.221,0.199l-0.304,0.095l-0.273,0.183l-0.233,0.19l-0.187,0.208l-0.195,0.208
		l-0.187,0.165l-0.516,0.13h-0.29h-0.312l-0.32-0.095l-0.451-0.173l-0.464-0.104l-0.182-0.035l-0.321-0.139l-0.438-0.129
		l-0.204-0.174l-0.247-0.139l-0.229-0.104l-0.321-0.13l-0.637-0.096l-0.26-0.147l-0.551-0.234h-0.478h-0.312l-0.455,0.069
		l-0.398,0.2l-0.273,0.112h-0.447h-0.169l-1.23-0.277l-0.187-0.095l-0.277-0.182l-0.238-0.13l-0.195-0.139l-0.399-0.173l-0.398-0.06
		l-0.412-0.13l-0.468-0.104h-0.524l-0.399,0.026l-0.364,0.104l-0.676,0.139l-0.273,0.069l-0.242,0.104l-0.238,0.174h-0.321
		l-0.316-0.069l-0.32-0.061l-0.33-0.069h-0.55l-0.239,0.043l-0.265,0.226l-0.26,0.069l-0.398,0.078h-0.33l-0.272-0.078h-0.438
		h-0.398l-0.329,0.034l-0.478,0.07l-0.229,0.035l-0.403,0.069h-0.55h-0.3l-0.524,0.069h-1.118l-0.798,0.234l-0.312,0.104h-0.355
		l-0.365,0.035l-0.194,0.13l-0.407,0.243l-0.399,0.173l-0.32,0.139l-0.238,0.165l-0.321,0.148l-0.195,0.165l-0.082,0.034
		l-0.247,0.035l-0.676-0.035l-0.282-0.069l-0.178-0.095l-0.195-0.13l-0.277-0.113l-0.212-0.13l-0.442-0.303l-0.195-0.139
		l-0.321-0.234l-0.354-0.208l-0.265-0.2l-0.304-0.069l-0.407-0.208l-0.229-0.096h-0.447l-0.355,0.104l-0.459,0.208h-0.338h-0.33
		l-0.498-0.061h-0.529l-0.178,0.199l0.104,0.642l0.212,0.243l0.048,0.226v0.269v0.312v0.182l-0.048,0.286l-0.061,0.165l-0.069,0.217
		l-0.117,0.408l-0.087,0.338l-0.233,0.278l-0.018,0.043l-0.187,0.364l-0.178,0.304l-0.425,0.269l-0.364,0.113l-0.398,0.26
		l-0.152,0.079l-0.087,0.034l-0.225,0.191l-0.222,0.373h-0.39h-0.195l-0.303-0.026h-0.053l-0.169-0.026h-0.178h-0.104h-0.073
		l-0.187-0.035l-0.187-0.043l-0.187-0.053h-0.329h-0.104h-0.109h-0.272l-0.222,0.07l-0.303,0.139l-0.195,0.139l-0.117,0.069
		l-0.178,0.139l-0.178,0.199h-0.009l0,0l-0.052,0.043l-0.126,0.061l-0.398,0.104l0,0l-0.221,0.139l-0.586,0.13l-0.363,0.182
		l-0.23,0.104h-0.403l-0.316,0.096l-0.55,0.104l-0.355,0.069l-0.465,0.2h-1.062l-0.412-0.069l-0.265-0.061l-0.363-0.034
		l-0.312-0.043l-0.122-0.018h-0.329h-0.355l-0.446,0.104l-0.299,0.061l-0.009,0.009h-0.009l-0.035,0.009l-0.233,0.086l-0.087,0.069
		l-0.269,0.079h-0.112h-0.018h-0.048h-0.178h-0.178h-0.187l-0.265-0.035l-0.087-0.017l-0.047-0.026l-0.187-0.06l0,0l-0.273-0.13
		h-0.082h-0.087h-0.594h-0.018l-0.217,0.035l-0.343,0.139l-0.269,0.173l-0.043,0.026l-0.195,0.052l-0.1,0.017l-0.265,0.07
		l-0.229-0.122l-0.195-0.104l-0.234-0.243l-0.169-0.096h-0.009l-0.477-0.139l-0.243-0.139l-0.264-0.165l-0.108-0.061l-0.187-0.113
		l-0.212-0.095l-0.273-0.096l-0.499-0.139l-0.312-0.165l-0.264-0.182l-0.178-0.104l-0.187-0.269l-0.096-0.269l-0.03-0.069
		l-0.13-0.294l-0.056-0.104l-0.079-0.139l-0.177-0.312l-0.195-0.304l-0.083-0.26l-0.203-0.347l-0.078-0.338l0.043-0.885l0,0v-0.129
		l0.044-0.468v-0.278l-0.053-0.277l-0.009-0.078l-0.034-0.19l-0.082-0.069l-0.113-0.191l-0.16-0.312v-0.303v-0.035v-0.061v-0.277
		l-0.355-0.165h-0.247l-0.516,0.269l-0.355,0.243l-0.256,0.165l-0.312,0.147l-0.559,0.035l-0.442,0.13l-0.481,0.147l-0.355,0.13
		l-0.195,0.208l-0.108,0.129l-0.086,0.13l-0.195,0.321l-0.091,0.156l-0.122,0.243l-0.187,0.208l-0.16,0.303v0.407l0.044,0.373
		l0.187,0.278l0.186,0.269l0.078,0.113l0.091,0.13v0.182v0.156v0.303v0.347v0.199l0.096,0.347l0.091,0.277l0.178,0.338l0.104,0.269
		l0.082,0.269l-0.091,0.346l-0.026,0.009l-0.078,0.026l-0.034-0.026l-0.226-0.174l0,0l-0.273-0.078l-0.117-0.199l-0.034-0.061
		l-0.646-0.147l-0.294-0.104l-0.304-0.121l-0.485-0.277l-0.091-0.035l-0.229-0.061l-0.179-0.034l-0.187-0.069l-0.043-0.018
		l-0.269-0.078l-0.178-0.095l-0.247-0.069l-0.364-0.173l-0.026-0.009l-0.398-0.122l-0.238-0.129l-0.286-0.139l-0.312-0.139
		l-0.087-0.035l-0.246-0.139l-0.286-0.173l-0.595-0.199l-0.178-0.069l-0.229-0.069l-0.187-0.061l-0.429-0.139l-0.195-0.122
		l-0.204-0.113l-0.442-0.243l0,0l-0.177-0.139l-0.473-0.208l-0.3-0.13l-0.143-0.061l-0.26-0.156l-0.273-0.165l-0.355-0.173l0,0
		l-0.238-0.061l-0.213-0.139l-0.355-0.277l-0.194-0.165l-0.178-0.312l-0.187-0.269l-0.178-0.312l-0.243-0.304l-0.086-0.095
		l-0.27-0.338l-0.364-0.347l-0.178-0.312l-0.308-0.295l-0.238-0.269l-0.178-0.26L-98-34.58l-0.126-0.086l-0.178-0.148l-0.329-0.269
		l-0.364-0.347l-0.273-0.269l-0.16-0.139l0,0l-0.009-0.008l-0.143-0.156l-0.126-0.373l0.048-0.173v-0.312v-0.086l-0.009-0.104
		v-0.199v-0.147l-0.108-0.347l-0.018-0.061l-0.195-0.33l-0.16-0.242l-0.043-0.139l-0.091-0.26l-0.139-0.312l-0.135-0.286
		l-0.082-0.156l-0.265-0.104h-0.238h-0.403l-0.521-0.026h-0.464l-0.312-0.104l-0.147-0.052l-0.161-0.052h-0.347h-0.329h-0.798
		l-0.455-0.018l-0.221-0.121l-0.052-0.018l-0.312-0.173l-0.308-0.2l-0.057-0.034l-0.823-0.113l-0.161,0.017l-0.082,0.017
		l-0.273,0.234l-0.178,0.147l-0.061,0.061l-0.32,0.139h-0.464h-0.603h-0.425h-0.338h-0.348l-0.398-0.069l-0.398-0.173l-0.286-0.061
		h-0.364h-0.096l-0.251,0.035l-0.716,0.243h-0.178h-0.217l-0.282-0.035l-0.39-0.061v-0.278l0.161-0.269l0.069-0.13l0.194-0.347
		l0.213-0.277l0.312-0.478l0.187-0.372l0.187-0.208l0.355-0.538v-0.043v-0.216l-0.187-0.33l-0.009-0.009l-0.489-0.191l-0.308-0.147
		l-0.286-0.199l0.043-0.234l0.187-0.373l0.064-0.13l0.104-0.243v-0.26l0.082-0.417v-0.26l0.113-0.277l0.16-0.269l0.117-0.234v-0.312
		l-0.026-0.173l-0.178-0.2l-0.117-0.243l-0.203-0.234l-0.083-0.512l0.117-0.338v-0.477l-0.043-0.269v-0.13l-0.261-0.338
		l-0.299-0.442l-0.329-0.373l-0.195-0.269l-0.169-0.269l-0.135-0.347l-0.194-0.026l-0.355,0.035h-0.478l-0.286,0.026l-0.308,0.138
		l-0.412,0.035l-0.541,0.026h-0.604h-0.468l-0.251,0.035l-0.399,0.13l-0.187,0.278l0.312,0.373l0.364,0.095l0.238,0.104l0.399,0.269
		l0.238,0.174v0.095l-0.187,0.208l-0.179,0.061h-0.194h-0.178l-0.391-0.07l-0.121-0.147l-0.295-0.468l-0.312-0.13l-0.478,0.061
		l-0.238,0.174l-0.243,0.173l-0.112,0.234l-0.195,0.208l-0.073,0.442l0.178,0.13l0.26,0.078l0.187,0.061l0.352,0.095l0.446,0.104
		l0.213,0.069l0.264,0.069l0.321,0.095l0.32,0.069l0.321,0.148l0.334,0.294l0.19,0.269l0.546,0.555l0.009,0.295l-0.359,0.208
		l-0.27-0.104h-0.338h-0.672h-0.204l-0.286,0.139l-0.272,0.373l-0.217,0.243l-0.512,0.364l-0.108,0.407l-0.043,0.373l-0.035,0.511
		v0.208l-0.057,0.399l-0.194,0.061l-0.407-0.095l-0.312-0.147l-0.364-0.096h-0.442h-0.685l-0.516,0.035l-0.469,0.061l-0.238,0.104
		l-0.567,0.304l-0.473,0.208l-0.499,0.165l0,0l-0.187,0.199l-0.112,0.347l-0.151,0.286l-0.295,0.26h-0.308l-0.161-0.034
		l-0.125-0.026l-0.442-0.199l-0.355-0.173h-0.391l-0.082,0.035l-0.16,0.069l-0.087,0.234v0.269v0.312l0.018,0.373v0.312v0.511
		l0.069,0.303l0.194,0.234l0.304,0.451l0.222,0.434l0.187,0.278l0.159,0.945l-0.06,0.303l-0.035,0.304l-0.203,0.373l-0.27,0.26
		l-0.364,0.338l-0.247,0.208l-0.151,0.399v0.407l0.009,0.399v0.407v0.373v0.398v0.312l0.468,0.616l0.083,0.2l0.043,0.442
		l-0.126,0.233l-0.194,0.304l-0.179,0.234l-0.147,0.312v0.269v0.407v0.486l0.044,0.399l0.187,0.234l0.281,0.304l0.108-0.061
		l0.373,0.373l0.187,0.095l0.425,0.208l0.391,0.165l0.355,0.078l0.277,0.434l-0.018,0.441l0.187,0.408l0.135,0.407l0.407,1.014
		l0.187,0.538l0.043,0.347l0.126,0.338v0.407l0.187,0.269l0.034,0.278v0.372v0.478l0.087,1.396v0.069v0.304v0.78l0.212,0.85
		l0.126,0.303v0.278v0.372v0.338l-0.034,0.875v0.841l-0.044,0.243l0.009,0.538v0.373v0.685l0.316,0.546l0.928,1.214l0.273,0.338
		l0.187,0.278l0.303,0.338l0.187,0.746v1.318l0.009,1.326v0.72l0.034,0.442l0.018,0.468l-0.247,0.486l-0.178,0.338l-0.187,0.607
		l-0.16,0.685l0.035,0.373l0.194,0.616l0.248,0.304l0.649,0.572l0.764,0.338l0.498,0.243l0.459,0.304l0.525,0.338l0.381,0.234
		l0.364,0.243l0.498,0.26l0.273,0.329l0.178,0.338l0.464,1.118l0.187,0.338l0.256,0.563l0.329,0.39l0.256,0.555l0.074,0.729
		l0.533,0.667l-0.226,1.066l-0.213,0.165v0.451l0.074,0.563l0.823,0.78l0.542,0.339l0.595,1.005V9.62l-0.097,0.233l-0.134,0.27
		l-0.061,0.615l0.398,1.622v0.338l0.325,0.563l0.642,1.014l0.577,0.894l1.066,1.733l0.256,0.399l0.242,1.222l0.923,1.015
		l0.399,0.504l0.187,0.615l1.313,0.546l0.871,0.677l0.885,0.91l1.136,2.003l0.862,0.953l1.456,1.509l0.187,0.329l0.924,0.45
		l0.338,0.287h0.247l0.473,0.503L-99.66,29.153"/>
</g>
<g id="Layer_1_1_">
</g>
</svg>
