<?xml version="1.0" encoding="utf-8"?>
<!-- Generator: Adobe Illustrator 16.0.4, SVG Export Plug-In . SVG Version: 6.00 Build 0)  -->
<!DOCTYPE svg PUBLIC "-//W3C//DTD SVG 1.1//EN" "http://www.w3.org/Graphics/SVG/1.1/DTD/svg11.dtd">
<svg version="1.1" id="Layer_1" xmlns="http://www.w3.org/2000/svg" xmlns:xlink="http://www.w3.org/1999/xlink" x="0px" y="0px"
	 width="301.137px" height="242.016px" viewBox="-136.633 -109.686 301.137 242.016"
	 style="enable-background:new -136.633 -109.686 301.137 242.016;" xml:space="preserve">
<g id="Layer_121">
	<path id="Tank" style="fill:#CCCCCC;stroke:#FFFFFF;stroke-width:1.15;" d="M-78.983,124.027L-78.983,124.027l0.085-0.053
		l1.759-0.889l8.363-4.959h0.011l4.147-2.479l1.7-1.102l0.674-0.689l0.953-1.018l1.187-0.867l1.626-1.707l0.196-0.381l0.334-0.307
		l0.868-2.098l1.192-2.023l1.117-1.504l1.356-1.453l0,0l0.519-0.496l1.097-0.859l1.791-1.408l0.498-0.402l0.132-0.012l0.529-0.041
		l3.115-3.072l-0.996-0.648l0.085-0.273l-0.943-0.594l-1.324-0.805l-0.598-0.445l-0.388-0.467l-0.794-0.826l-0.467-0.625
		l-0.736-1.609l-0.508-0.924l-0.642-1.016l-0.153-0.477l-0.127-0.18l-0.286-1.219l0.217-1.578l0.249-1.271l0.816-1.473l1.117-0.934
		l1.044-0.264l0.354-0.139l0.773,0.191l2.94,2.521l1.43,1.652l0.726,1.324l2.019,1.133l1.521,0.531l1.928,0.158l1.573,0.053
		l2.681,0.742l2.495,0.52l1.943,0.021l1.07,0.18l0.402,0.021l1.239,0.275l1.473,0.498l2.877-1.484l0.529-0.031l0.577,0.561
		l3.74-0.932l2.282-0.297l1.887-0.115l1.965-0.129l2.002,0.105l1.415,0.234l1.917,0.572l2.681,0.699l0.953,0.35l0.467,0.445
		l0.413,0.91l0.868,0.201l0.922,0.021l1.054,0.721l1.234,0.031l0.684-0.115l1.685-0.223l0.673-0.309l1.647,0.191l0.693,0.223
		l2.082,0.561l2.008,0.244l0.392-0.158l1.171-0.361l0.63-0.232l0.604,0.561l0.805,0.436l0.891,0.359l1.282-0.275l1.366-1.133
		l1.155-0.646l2.183-0.18l1.229-0.34l1.377-1.111L26,87.531l0.509-0.604l0.868-0.043l0.731,0.17l0.953,0.275l0.848,0.297
		l0.243,0.062l0,0l1.049,0.625l4.684-0.625l0.984-1.779l0.625-0.646l1.42-0.211l1.134-0.467l2.935-1.219l1.218-0.678l1.367,0.074
		l0.105,0.043l0.063,0.041l0.795,0.848l2.162-0.137l0.836-0.445l1.929-0.158l1.282,1.26l0.773-0.572h0.073l1.282-0.91l0.763-0.625
		l0.232-0.232l1.42-1.039l1.166-1.188l1.027-0.307l1.038-0.01l3.126,1.145l0.593,0.158l0.953-0.445h0.063l1.399-0.117l0.984,0.225
		l1.113,0.221l0.783,0.287l2.172,0.455l1.578,0.148h0.022l0.222,0.043l0.223,0.02l0.105,0.107l0.254,0.254l0.637,0.371l1.122,0.709
		l1.441,0.424l0.932-0.477l1.42-0.699h0.021l0.805-0.424l1.929-1.98l0.667-0.668l2.808-2.395l9.726-10.678l0.381-0.848l0.297-1.293
		l0.286-7.586l0.021-0.613l-0.042-0.043l-0.011-0.773l0.105-2.277l-0.519-2.967l-0.467-2.246l-0.031-0.328l0,0l0.233-5.891
		l0.063-1.441l0.116-1.398l0.031-0.412l-0.232-0.234l-0.116-0.391l0.868-1.939l1.303-2.352l0.498-2.119l1.134-0.105l1.377-1.166
		l1.59-1.461l0.857-1.654l0.244-0.963l0.933-1.695l0.678-0.414l2.278-1.514l1.377-1.25l2.489-1.537l2.511-1.43l3.453-1.686
		l0.731-0.348l1.377-0.457l2.861-1.059l0.54-0.191l0.848-0.328l1.282-0.529l1.716-0.594l1.355-0.412l1.154-0.288l1.431-0.89
		l1.219-1.091l0.667-0.731l0.71-1.027l1.07-0.413l1.462-0.636l1.462-1.006l2.542-1.611l0.934-0.699l1.144-0.689l-0.096-0.042
		l-0.223-0.222h-0.031l-3.624-0.339l-0.54-0.329l0,0l-0.211-0.18l-0.308-0.635l0.063-0.805l0.116-0.742l0.191-0.636l0.085-1.144
		l0.148-0.583l-0.233-0.318l0,0l0.021-0.042l-0.678-0.794L136.37-4.49l0.371-0.52l0.254-0.604l-0.222-0.752l0.434-0.678l0.7-0.72
		l0.889-0.233h0.614l0.668-0.137l0.158-0.541v-0.233l0.085-0.106l0.509-8.179l-0.635-1.166l2.775-2.055l1.482-0.688l1.992-0.488
		l0.932-1.176l1.748-1.79l1.007-1.282l0.636-0.593l0.254-0.138l0.53,0.36l0.424,0.381l0.826-0.084l0.933-0.392l1.759-1.281
		l1.886-0.964l0.89-0.964l0.021-0.021l0,0l0.614-0.911l0.031-0.053l-0.021-0.063l-0.308-0.954l-4.217-3.008l-0.995-0.773
		l-0.233-0.435l-0.456-0.847l0.138-0.212l0.085-0.042l1.398-0.879l1.42-0.805l0.01-0.074l0.223-0.159l0.063-1.027l-0.137-0.318
		l0.339-0.604l0.201-0.223l0.223-0.106l0.243-0.36v-0.212v-0.063l0.021-0.434l-4.788-3.878l-0.032-0.011l-6.494-5.339l-0.117,0.085
		l-0.147-0.106l-2.787,2.818l-0.274,0.169l-0.88,0.138l-6.463-1.388l-0.519-0.349l-0.573-0.805l-0.73-0.52l-2.183-0.604l-3.379-3.92
		l-1.398-0.572l-0.985-0.265l-2.045-0.223l-0.169-0.074l-0.275-0.244l-0.318-0.042l-0.073-0.032l-1.092-0.466l-0.138-0.317
		l0.35-0.975l-0.169-0.286l0,0l-0.085-0.127l-0.043-0.127l-0.085-0.074l-0.19-0.265l-1.08-0.848l-0.922-0.847l-0.562-0.562
		l-0.815-0.201l-0.688-0.562l-0.551-1.091l-2.055-1.123l-1.643-0.879l-2.257-1.218l-0.678-0.636l-1.525-1.377v-0.032l0,0l0.243-0.52
		l5.647-9.46l1.589-2.648l0.01-0.149l0.043-0.042l0.201-0.71l-0.297-0.477l-0.021-0.011l0,0l-4.429-3.962l-0.212,0.296l-0.043,0.074
		l-0.211,0.053l-2.416,0.572l-2.352,0.561l-5.138,1.219l-7.342,1.769l-3.2,0.773l-1.037-1.653l-0.933-0.815l-1.95-1.451
		l-1.123-0.901l-0.678-0.381l-0.953-0.477l-0.879-0.35l-1.282-0.498l-1.59-0.71l-2.033-0.826l-1.918-0.519l-3.464-2.712
		l-2.829-2.214l-0.848-0.657l-0.879-0.403l-2.098-0.963l-2.034-1.039l-0.478-0.222l-1.62-1.335l-1.483-2.214l-1.917-1.335
		l-1.939-1.473l-2.065,0.731l-0.975,0.784l-1.822,1.44l-2.384,1.78l-1.335,1.038l-1.06,0.9l-0.699,0.657l-1.165,0.667l-1.145,0.582
		l-1.663,1.346l-1.431,1.356l-1.26,1.536l-2.3,2.776l-0.752,1.483l-0.614,1.664l-0.413,1.579l-0.35,1.706l-0.021,0.646l-0.35,2.903
		l-0.275,1.377l-0.911,1.166l-0.614,0.89l-0.583,1.335l-0.477,1.102l-0.381,0.583l-0.869,1.907l-1.473,2.384l-0.773,1.25
		l-2.944,4.545l-0.276,0.805l-2.098,1.812l0.127,1.049l-4.471,5.276l-2.172,2.553l-1.896,0.541l-1.197,1.006l-0.953,1.419
		l-0.562,0.922l-3.539,2.193l-6.097,3.782l-2.939,2.077l-1.086,0.562l-2.156,1.123l-2.14,1.6l-2.331,1.271l-1.759,0.964
		l-0.789,0.551l-0.079,0.837l-0.424,1.949l-0.138,0.604l-1.239,1.155l-1.584,1.812l-1.638,1.822l-0.799,1.801l-0.276,1.24
		l-0.434,1.8l-1.202,2.543v0.964l-0.229,0.975l-0.143,0.53l-1.123,0.752l-1.239,1.483l-1.584,1.917l-1.955,2.31l-2.124-0.413
		l-0.996-0.18l-1.366,0.339l-0.806-0.127l-1.191-0.349l-1.293-0.35l-1.716-0.54l-0.673-0.223l-1.128-0.498l-1.16-0.424l-0.376-0.148
		l-1.977-0.212l-4.121-0.424l-1.117-0.265l-1.468,0.096l-1.049-0.084l-1.012-0.085l-1.202-0.011l-1.573-0.646h-1.313l-0.985,0.296
		l-0.763,0.244l-3.057,0.975l-0.99,0.212l-0.933,0.212l-1.16-0.329l-0.477-0.233l-0.619-0.244l-0.79-0.371l-0.673-0.286
		l-0.837-0.752l-0.334-0.413l-1.584-1.102l-0.359,0.138l-0.609,0.371l-0.228,0.296l-2.299,3.655l-0.758,1.133l-2.506,3.761
		l-7.347,10.827l-3.385,4.969l-1.722,2.574l-0.858,0.562l-1.759,0.307l-0.673,0.584l-1.006,1.439l-2.183,3.18l-1.604,1.621
		l-1.001,0.529l-2.676,1.016l-7.098,2.713l-9.328,3.561l-9.244,3.494l-0.111,0.234l-1.388,3.135l-0.487,1.07l-0.365,0.943
		l-3.464,5.297l-1.224,1.918l-0.281,0.668l-0.471,1.133l-0.43,1.482l0.302,1.273l2.04,6.492l0.837,5.16l3.385,1.758l2.039,0.34
		l5.175,1.949h0.011l1.081,1.092l2.511,6.133l0.694,2.045l-1.859,8.158l9.561,34.262l16.729,10.467l1.711,0.223l0.477,0.74
		l1.366,0.33l3.528-2.734l0.673-0.285L-78.983,124.027"/>
</g>
<g id="Layer_1_1_">
</g>
</svg>
