<?xml version="1.0" encoding="iso-8859-1"?>
<!-- Generator: Adobe Illustrator 16.0.4, SVG Export Plug-In . SVG Version: 6.00 Build 0)  -->
<!DOCTYPE svg PUBLIC "-//W3C//DTD SVG 1.1//EN" "http://www.w3.org/Graphics/SVG/1.1/DTD/svg11.dtd">
<svg version="1.1" xmlns="http://www.w3.org/2000/svg" xmlns:xlink="http://www.w3.org/1999/xlink" x="0px" y="0px"
	 width="111.778px" height="71.316px" viewBox="0 0 111.778 71.316" style="enable-background:new 0 0 111.778 71.316;"
	 xml:space="preserve">
<g id="Layer_162">
	<g id="Layer_167">
		<path id="Chitral" style="fill:#CCCCCC;stroke:#FFFFFF;stroke-width:1.07;" d="M20.256,70.818
			L20.256,70.818l0.349-0.137l0.043-0.021l0.133-0.164l0.188-0.078l0.173-0.01l0.182-0.002l0.266-0.015l0.173-0.013l0.198-0.028
			l0.159-0.043l0.124-0.157l0.048-0.135l0.102-0.212l0.099-0.163l0.087-0.084l0.549-0.098l0.329-0.014l0.028-0.051h0.003
			l0.267-0.048l-0.093-0.239l0.009-0.015l0.022-0.104l0.083-0.221l-0.037-0.156l-0.036-0.156l0.046-0.219l-0.089-0.185l0.013-0.218
			l0.062-0.096l0.141-0.211l0.111-0.041l0.273-0.078l0.188-0.174h0.001l0.11-0.103l0.124-0.104l0.02-0.185l-0.068-0.156
			l-0.105-0.192l-0.053-0.098l0.156-0.094l0.062-0.189l0.059-0.193l0.111-0.092l0.084-0.071l0.117-0.089l0.104-0.08l0.152-0.104
			l0.082-0.156l0.021-0.133l0.124-0.059l0.057-0.109l0.075-0.074l0.105-0.078l0.062-0.092l0.068-0.041l0.143-0.082l0.24,0.041
			l0.167,0.028l0.205,0.003l0.082,0.002h0.234l0.176,0.09l0.169,0.125l0.192,0.09l0.106,0.025l0.237,0.057l0.134,0.031l0.066-0.107
			l-0.002-0.006l0.009-0.149l0.061-0.138l-0.008-0.059l0.02-0.031l0.065-0.119l0.018-0.028l0.109-0.103l0.219-0.205h0.001
			l-0.045-0.19l0.057-0.133l0.053-0.134l0.033-0.06l0.009-0.017l0.019-0.084l0.001-0.163l0.004-0.351l0.001-0.145l0.002-0.216
			l0.081-0.042l0.258-0.135l0.08-0.041l0.099-0.053l0.022-0.17l-0.146-0.101l-0.216-0.243l-0.124-0.169l-0.042-0.153l-0.025-0.1
			l0.015-0.071l0.014-0.06l0.066-0.203l0.107-0.18l0.082-0.14l0.118-0.151l0.123-0.062l0.234-0.122l0.223-0.017l0.266-0.02
			l0.222-0.004l0.218-0.004l0.22-0.15l0.086-0.064l0.195-0.145l0.168-0.092l-0.166-0.068l-0.184-0.092l-0.213-0.149l-0.027-0.013
			l-0.043-0.097l-0.015-0.2l-0.034-0.138l-0.032-0.147l-0.023-0.108l0.008-0.099l0.008-0.099l0.013-0.167l0.008-0.1l0.013-0.155
			l0.012-0.153l0.011-0.144l0.007-0.086l0.019-0.229l0.016-0.207l0.011-0.142l0.006-0.09l0.008-0.085l0.05-0.129l0.002-0.004
			l0.085-0.092l0.22-0.232l0.109-0.145l0.066-0.185l0.031-0.121l0.04-0.081l0.187-0.133l0.196-0.141l0.239-0.332l0.126-0.127
			l0.207-0.192l0.221-0.104l0.229-0.227l0.134-0.096l-0.023-0.12l0.041-0.13l0.017-0.1l0.238-0.007l0.211-0.088l0.36-0.327
			l0.129-0.07l0.171-0.008h0.079l0.089-0.035l0.105-0.054l0.213-0.165l0.199,0.006l0.29-0.164l0.431-0.293l0.14-0.076l0.118-0.078
			l0.069-0.1l0.022-0.085l0.137-0.052l0.085,0.092l0.128-0.025l0.074,0.039l0.106,0.002l0.143,0.014l0.104,0.062l0.149-0.02
			l0.103,0.062l0.161,0.06l0.076-0.063l0.114-0.061l0.108-0.016l0.098-0.058l0.089-0.019l0.062-0.103l0.175-0.12l0.116-0.05
			l0.061-0.137l0.045-0.122l0.062-0.041l0.092-0.01l0.158-0.031l0.072-0.143l0.008-0.031l0.012-0.018l0.033-0.127l-0.004-0.132
			l0.021-0.114l0.002-0.013l0.084-0.136l0.062-0.135V51.58l0.004-0.006l0,0l0.159-0.179h0.001l0.04-0.032l-0.007-0.006l0.003-0.003
			l-0.06-0.056l-0.16-0.344l-0.011-0.01l-0.013-0.035l-0.076-0.09l-0.046-0.037h-0.001l-0.095-0.136l-0.009-0.01l-0.021-0.054
			l-0.099-0.096l-0.114-0.062l-0.152,0.019l-0.112,0.057l-0.069-0.051l0.109-0.162l0.024-0.086l0.082-0.125l0.074-0.186l0.191-0.008
			l0.166-0.258l0.062-0.168l0.018-0.022l0.028-0.099l0.029-0.125l0.059-0.153l0.049-0.103h0.001l0.012-0.026l0.024-0.062
			l0.013-0.031l0.018-0.078l0.002-0.006l0,0l0.002-0.008l-0.008-0.119v-0.006l0.073-0.111l-0.023-0.17l0.002-0.11l0.114-0.026
			l0.038-0.1l0.032-0.084l0.101-0.12l0.095-0.128l0.078-0.033l0.142-0.06l-0.018-0.138l-0.032-0.114l-0.02-0.168l0.039-0.122
			l0.146-0.08l0.105,0.048l0.099,0.115l0.091,0.103l0.096,0.028l0.175,0.052l0.126,0.018l0.238-0.037l0.104-0.09l0.057-0.065
			l0.218-0.006l0.082-0.004l0.199,0.065l0.09,0.033l0.115,0.041l0.092,0.1l0.12,0.127l0.003,0.174l-0.027,0.102l0.021,0.168
			l0.08,0.061l0.13,0.06l0.065,0.084l0.071,0.091l0.023,0.125l0.094,0.062l0.071,0.047l0.13,0.048l0.069-0.049l0.121-0.114
			l0.06-0.108l0.074-0.109l0.091-0.064l0.073-0.052l0.191-0.146l0.066-0.051l0.113-0.084l0.127-0.111l0.068-0.069l0.095-0.03
			l0.136-0.029l0.199,0.043l0.134,0.057l0.115,0.074l0.122,0.086l0.072,0.064l0.065,0.062l0.229,0.015l0.109-0.061l0.116-0.092
			l0.14-0.104l0.096,0.065l0.051,0.07l0.153,0.082h0.089l0.088-0.005l0.152,0.063l0.122,0.039l0.114,0.002l0.152-0.01l0.083-0.01
			l0.083-0.019l0.189-0.017l0.145,0.014l0.075-0.016l0.108-0.025l0.032-0.125l0.111-0.1l0.066-0.058l0.143-0.106l0.104-0.09
			l0.071-0.046l0.118-0.022l0.123,0.031l0.015,0.045l0.005,0.02l-0.014,0.115l-0.012,0.091l0.015,0.083l0.04,0.085l0.043,0.073
			l0.004,0.008l0.046,0.08l0.007,0.109l0.014,0.1l0.012,0.087l0.114-0.013l0.09-0.01l0.151-0.041l0.094-0.084l0.124-0.123
			l0.059-0.086l0.19-0.021l0.09,0.027l0.103,0.029l0.14,0.031l0.085,0.02l0.178,0.008l0.09,0.011l0.143,0.06l0.125,0.057
			l0.119-0.026l0.084-0.019l0.073-0.137l0.093-0.062l0.048-0.028l0.085-0.03l0.116-0.027l0.056-0.016l0.081-0.058l0.045-0.136
			l0.099-0.055l0.02-0.011l0.113-0.06l0.066-0.037l0.144-0.07l0.084-0.043l0.146-0.078l0.093-0.059l0.065-0.055l0.089-0.078
			l0.068-0.07l0.082-0.085l0.114-0.136l0.05-0.098l-0.017-0.123l-0.039-0.144l0.067-0.106l0.104-0.104l0.061-0.083l0.038-0.101
			l-0.062-0.08l-0.019-0.023l-0.054-0.148l0.054-0.104l0.03-0.062l0.097-0.129l0.094-0.094l0.062-0.055l0.008-0.006l0.097-0.08
			l0.116-0.07l0.097-0.051l0.166,0.016l0.14,0.061l0.182,0.078l0.271,0.002l0.115-0.015l0.084-0.026l0.131-0.039l0.186-0.063
			l0.055-0.067l0.062-0.08l0.06-0.074l0.026-0.174l0.025-0.08l0.087-0.07l0.13-0.064l0.081-0.039l0.109-0.041l0.138-0.035
			l0.109-0.02l0.119-0.013l0.134-0.031l0.085-0.043l0.07-0.036l0.053-0.082l0.021-0.082l0.018-0.085l0.029-0.094l0.025-0.087
			l0.099-0.104l0.123-0.07l0.134-0.008l0.038-0.11l0.011-0.033l0.063-0.163l0.06-0.121l-0.062-0.119l-0.008-0.033l-0.043-0.18
			l0.057-0.104l0.021-0.03l0.093-0.119l0.096-0.078l0.255-0.184l-0.041-0.035l0.046-0.427l0.081-0.185l0.322-0.496l0.059-0.162
			l0.137-0.239l0.278-0.487l0.058-0.186l0.19-0.352l0.189-0.352l0.484-0.624l0.306-0.636l0.1-0.312v-0.196l-0.023-0.162
			l-0.034-0.229l-0.069-0.173l-0.186-0.312l-0.212-0.194l-0.353-0.325l-0.164-0.117l-0.16-0.114l-0.474-0.554l-0.102-0.162
			l-0.095-0.15l-0.14-0.761l0.106-0.448l0.056-0.233l0.186-0.369l0.071-0.106l0.47-0.679l0.096-0.244l0.066-0.171l0.012-0.136
			l0.022-0.291l-0.08-0.374l-0.034-0.169l-0.047-0.106l-0.047-0.101l-0.007-0.053l-0.016-0.109l-0.009-0.155l-0.016-0.26
			l0.031-0.377l0.004-0.049l0.034-0.219l0.104-0.231l0.034-0.208l0.125-0.342l0.025-0.072l0.231-0.346l0.167-0.212l0.18-0.227
			l0.254-0.266l0.67-0.438l0.036-0.016l0.505-0.215l0.375-0.059l0.364-0.057l1.05,0.162l0.451,0.173l0.541-0.012l0.564-0.208
			l0.394-0.369l0.127-0.208l0.138-0.126l0.02-0.038l0.062-0.124l0.15-0.15l0.058-0.114l0.023-0.047l0.104-0.123l0.266-0.315
			l0.369-0.208l0.154-0.064l0.203-0.085l0.523-0.177l0.295-0.1l0.348-0.15l0.22-0.023l0.097-0.054l0.457-0.257l0.623-0.461
			l0.496-0.3l0.262-0.202l0.038-0.029l0.038-0.019l0.853-0.419l0.381-0.15l0.355-0.184l0.175-0.127l0.078-0.096l0.024-0.03
			l0.104-0.208l0.242-1.107l0.056-0.541l0.037-0.358l0.127-0.427l0.092-0.185l0.129-0.128l0.125-0.126l0.359-0.207l0.185-0.046
			l0.104-0.045l0.668-0.289l0.178-0.042l0.019-0.004l0.223-0.028l0.506-0.064l1.072,0.046l0.196-0.081l0.108-0.082l0.03-0.021
			l0.045-0.104l0.047-0.104l0.012-0.428l-0.059-0.392l0.214-0.159l0.098-0.072l0.334-0.099l0.485-0.143l0.385-0.192l0.332-0.165
			l0.508-0.312l0.15-0.12l0.461-0.365l0.107-0.12l0.008-0.007l0.185-0.392l0.196-0.611l0.114-0.173l0.113-0.361l0.014-0.043
			l0.127-0.173l0.08-0.184l0.521-0.519l0.005-0.013l0.087-0.218l-0.115-0.542l-0.171-0.278l-0.303-0.495l-0.058-0.173l-0.229-0.436
			l-0.025-0.049l-0.14-0.577l-0.013-0.1l-0.01-0.084l0.104-0.45l0.115-0.162l0.301-0.208l0.054-0.014l0.199-0.055l0.243,0.012
			l0.519-0.047l0.89-0.138l0.394-0.15l0.185-0.104l0.924-0.669l0.635-0.172l0.336,0.036l0.194,0.021l0.119,0.041l0.793,0.271
			l0.302,0.064l0.183,0.039l0.538,0.04l0.57,0.042l0.727-0.069l0.748-0.187l0.129-0.032l0.221-0.023l1.233-0.392l0.438-0.093
			l0.09-0.036l0.107-0.044l0.207-0.023l0.195-0.104l0.082-0.019l0.114-0.027l0.496-0.335l0.416-0.139l0.492-0.095l0.166-0.032
			l0.146,0.019l0.12,0.016l0.278-0.029l0.943-0.098l0.231,0.023l0.208,0.06l0.311,0.09l0.266,0.154l0.093,0.054l0.196,0.069
			l0.076,0.04l0.721,0.365l0.577,0.101l0.473,0.083l0.535,0.063l0.354,0.041l0.809,0.034l1.118-0.231l0.043-0.001l0.466-0.01
			l0.23,0.069l0.438,0.576l0.122,0.108l0.166,0.146l1.984,0.15l0.397,0.017l0.698,0.03l0.301-0.048l0.139-0.022l0.195-0.081
			l0.02-0.008l0.144-0.061l0.148-0.161l0.217-0.142l0.117-0.078l0.416-0.126l0.066-0.006l0.177-0.018l1.234,0.312l0.243-0.044
			l0.011-0.002l0.577-0.219l0.149-0.022l0.312-0.047l0.564,0.012l0.531,0.104l0.767,0.262l0.11,0.038l0.031,0.014l0.385,0.171
			l0.224,0.056l0.008,0.001l0.508-0.011l0.13-0.053l0.066-0.028l0.013-0.012l0.275-0.242l0.139-0.316l0.115-0.261l0.057-0.187
			l0.014-0.044l0.022-0.624l-0.016-0.069l-0.065-0.323l-0.254-0.484l-0.059-0.185l-0.127-0.126l-0.04-0.057l-0.387-0.543
			l-0.031-0.024l-0.269-0.207l-0.195-0.094l-0.186-0.09l-0.267-0.058l-0.831-0.022l-0.289-0.243l-0.093-0.381l-0.081-0.173
			l-0.067-0.127l-0.113-0.097l-0.049-0.042l-0.254-0.058l-1.153-0.127h-0.24l-0.289-0.057l-0.63-0.163l-0.351-0.09l-0.162-0.07
			l-0.427-0.184l-0.35-0.273l-0.124-0.096l-0.093-0.162l-0.254-0.265l-0.175-0.292l-0.103-0.169l-0.058-0.173l-0.231-0.289
			l-0.975-0.624l-0.874-0.055l-0.868-0.125l-0.501,0.18L99.38,0.991l-0.765,0.215L98.25,1.309l-0.938,0.154l-0.191-0.107
			l-0.31-0.171l-0.113-0.027l-0.273-0.066l-0.908-0.057l-0.62-0.038L94.391,1.07l-0.698,0.1l-0.856-0.143l-0.139-0.023l-0.562-0.105
			l-0.151,0.037L91.551,1.04l-0.698,0.417l-0.296,0.097l-0.34,0.111L89.837,1.5l-0.48-0.029l-0.771,0.236l-0.013,0.008l-0.448,0.262
			l-0.371-0.022l-0.352-0.235l-0.658-0.382L86.27,1.268l-1.188,0.144l-0.095-0.017l-0.641-0.113l-0.666,0.17L83.253,1.56
			l-0.14-0.027l-0.175-0.034L82.064,1.28l-0.691-0.173l-0.434,0.134l-0.5,0.155L79.877,1.38l-0.82-0.022l-0.365-0.021l-0.324-0.019
			l-0.485,0.299l-0.53,0.327l-0.763,0.494l-0.088,0.057l-1.221-0.07l-0.949-0.363l-0.237-0.09l-0.645,0.049l-0.274,0.269
			l-0.717,0.703l-0.08,0.041l-0.145,0.075l-0.51-0.029l-0.181-0.01l-0.434,0.102l-0.601,0.14l-0.192,0.006l-0.289,0.01l-1.801-0.101
			l-0.109-0.006l-1.104-0.19l-0.175,0.033l-0.528,0.1l-0.195-0.043l-0.59-0.129L65.26,2.957l-0.263-0.035l-0.59,0.16l-0.721,0.196
			L63.02,3.241l-0.712-0.039l-0.952-0.198l-0.257-0.053L60.077,3.01l-0.208,0.284l-2.513,0.381l-0.527,0.243l-0.333,0.154
			l-0.803,0.635l-0.771,0.609l-0.128,0.436l-0.326,0.171l-0.058,0.03l-1.546,0.016L50.918,5.99l-0.876,0.619l-0.933,0.173
			l-0.374-0.02L47.83,6.714l-0.427,0.241l-0.114,0.063l-0.421,0.237l-0.463,0.05L44.853,7.09l-0.989-0.137l-0.302,0.318l-0.3,0.315
			l-1.246,1.855l0.25,0.544l0.062,0.136l0.146,0.188l0.271,0.349l-0.67,0.279l-0.278,0.116l-0.485-0.091l-0.599-0.112l-0.515,0.158
			l-0.52,0.159l-0.523,0.05l-0.491,0.047l-0.554,0.046l-0.139,0.387l-0.096,0.266l0.371,1.126l-0.393,0.349l-1.562,0.07l-1.92,1.16
			l-1.702,0.041l-0.314,0.008l-1.209,0.236l-0.174,0.278l-0.139,0.224l-0.441,1.011l-0.021,0.294l-0.312,0.501l-0.518,0.013
			l-0.491,0.013l-2.191-0.032l-0.425,0.792l-0.148,0.916l-0.019,0.11l0.009,0.217l0.022,0.596l0.436,0.316l0.796,0.125l0.559,0.087
			l0.139,0.598l-0.178,0.357l-0.144,0.291l-0.122,0.042l-0.441,0.152l-0.754-0.036h-0.016l-0.322-0.016l-0.246-0.052l-0.653-0.138
			l-1.122-0.685l-0.451-0.275l-0.653-0.482l-0.735-0.543l-0.316-0.148l-0.392-0.181l-0.809-0.186l-0.606-0.471l-0.713-0.254
			l-0.842,0.256l-0.18,0.277l-0.333,0.511l-0.043,0.604l-0.024,0.353l-0.113,0.292l-0.223,0.578l-0.876,0.771l-1.14,0.612
			l-0.385,0.277l0.022,0.096l0.118,0.501l0.524,0.319l-0.032,0.172l-0.109,0.56l-1.38,0.159l-0.471,0.2l-0.126,0.511l-0.023,0.327
			l-0.002,0.041l-1.471,0.155l-0.678,0.56l-0.31,0.269l-0.176,0.152l-0.445,0.082l-0.201,0.036l-0.069,0.085l-0.229,0.271
			l-0.64,1.373l-0.772,0.63l-0.661,0.34l-0.705,0.11l-0.03,0.005l-0.104,0.041L7.206,30l-0.177,0.463l-0.102,0.264l-0.206,0.359
			l-0.001,0.001l-0.1,0.061L6.436,31.26L5.94,31.427l-0.764,0.258L4.366,32.09l-0.273,0.137l-0.164,0.091l-1.064,0.594l-0.34,0.216
			l-0.04,0.026l-0.058,0.179l-0.059,0.185l0.047,0.667l-0.029,0.11l-0.03,0.109l-0.104,0.015L1.76,34.49L0.986,35.25l-0.055,0.053
			L0.555,36.21l0.101,0.559l0.565,0.393l0.572,0.285l0.799,0.721l0.232,0.209l0.107,0.043l0.201,0.08l0.987,0.191l0.205,0.11
			l0.541,0.292l0.311,0.281l0.376,0.34l0.536,0.134l0.723,0.069l0.194-0.006l0.307-0.01l0.625,0.176l0.099,0.248l0.097,0.24
			l0.016,0.146l0.097,0.893L8.122,42.08l-0.019,0.258l0.321,0.244l0.198,0.149l0.242,0.026l0.344,0.037l0.214,0.01l0.239,0.011
			l0.476,0.354l1.335,1.722l0.133,0.321l0.102,0.244l0.933,0.965l-0.021,0.295l-0.334,0.908l-0.032,0.479l0.2,0.379l0.517,0.393
			l0.296,0.133l0.716,0.32l0.442,0.168L15,49.881l0.001,0.236l0.004,0.377l-0.332,0.713l-0.03,0.031l-1.184,1.217l-0.381,0.75
			l-0.035,0.519l-0.004,0.056l0.191,0.192l0.247,0.249l0.675,0.453l1.229,0.555l0.767,0.292l0.148,0.058l0.13,0.031l0.84,0.205
			l0.457,0.176l0.062,0.146l0.02,0.049l-0.136,0.606l-0.396,0.707l-0.087,0.153l-0.23,0.642l-0.006,0.377l-0.007,0.467l0.419,0.416
			l0.107,0.107l1.25,0.901l0.129,0.106l0.402,0.34l0.072,0.31l-0.179,0.529l-0.222,0.487l-0.542,0.343l-0.193,0.122l-2.808,4.011
			l-0.04,0.297l-0.054,0.39l0.146,0.303l0.1,0.205l0.439,0.404l0.429,0.264l0.648,0.4l1.104,0.934l0.534,0.369l0.925,0.16
			l0.596,0.18L20.256,70.818"/>
	</g>
</g>
<g id="Layer_1">
</g>
</svg>
