<?xml version="1.0" encoding="utf-8"?>
<!-- Generator: Adobe Illustrator 16.0.4, SVG Export Plug-In . SVG Version: 6.00 Build 0)  -->
<!DOCTYPE svg PUBLIC "-//W3C//DTD SVG 1.1//EN" "http://www.w3.org/Graphics/SVG/1.1/DTD/svg11.dtd">
<svg version="1.1" id="Layer_1" xmlns="http://www.w3.org/2000/svg" xmlns:xlink="http://www.w3.org/1999/xlink" x="0px" y="0px"
	 width="301.334px" height="125.355px" viewBox="-139.491 -57.628 301.334 125.355"
	 style="enable-background:new -139.491 -57.628 301.334 125.355;" xml:space="preserve">
<g id="Layer_127">
	<path id="Kohat." style="fill:#CCCCCC;stroke:#FFFFFF;stroke-width:1.15;" d="M-116.754,2.564L-116.754,2.564l0.121-0.067
		l1.146-0.364l2.667,0.216l1.94,0.836h1.563l2.061-0.041l1.091-0.364l1.859-0.781l2.412-0.821l1.846-0.041l1.428,1.361l1.442,1.886
		l0.835,0.579l1.199,0.203l1.415,0.417l2.169,1.213l0.916-0.513l1.186,0.055l0.471,0.014l1.132,0.323l1.899,0.107l1.388-0.148
		l0.485-1.185l1.252-1.523l0.849-1.132l0.62-1.428l1.078-1.428l1.644-1.239l1.105-0.378l1.212,0.553l0.97,0.741l0.876,0.417
		l1.482,0.324l0.849,1.145l0.445,1.927l1.172,0.188l1.415-0.27l1.428-0.148l1.441,0.391l1.307,1.55l1.657,0.634l1.32,0.269
		l1.415,0.391l0.849,0.62l0.04,0.041l1.617,0.714l1.348,0.646l1.172,0.337l1.078,0.337l1.064,0.175l1.522,0.418l1.267,0.755
		l0.809,0.659l1.886,0.997l2.331,0.107l1.159,0.337l2.25-0.054l1.159-0.175l1.024-0.337l1.105-0.229l0.296,0.365l1.522,0.417
		l2.398,0.04l1.523-0.62l2.815-1.252l3.206-1.631l1.94-0.498l1.307-0.148l1.28,0.202l1.441,0.902l1.9,0.095l1.913-0.108l2.533-1.051
		l1.657-1.118l1.468-0.943l2.452-1.172l0.849,0.377l1.576,0.984l0.593,0.942l0.27,0.984l0.862,1.226l2.021,0.741l1.441,0.014
		l1.442,0.215l1.428-0.269l1.307,0.417l2.91-0.956l0.849,0.7l1.28,1.239l1.63,0.593l1.913-0.363l1.671-0.31l1.226,0.296l1.226,0.108
		l2.345,0.134l1.872-0.188l1.334-0.082l1.914-0.229l2.007-0.552l2.223,0.054l1.644-1.414l-0.688-0.876l-0.834-1.886L28.077,6.7
		l1.793-0.364l3.017-0.377l3.153-0.404l3.153-0.513l2.6-0.256L43.45,5.65l0.472,0.875l0.605,1.254l-0.054,1.684l-0.849,0.768
		l0.849,1.712l1.51,0.632l1.239,1.119l0.323,1.334l-0.862,0.781l-2.345,0.982l1.334,1.604l0.849,1.912l0.661,1.105l1.293,1.657
		l0.242,1.037l-1.023,0.862l-2.116,0.539l-2.02,0.431l-1.28,0.714l-1.158,0.473l-1.268-0.055l-2.276,0.364l-1.455,0.35l-2.532,1.159
		l-0.836,0.781l-1.59,0.27l-1.832-0.054l-1.159-0.135l-2.169-0.297l-1.55-0.066l-2.236-0.068l-2.546-0.026l-0.081,1.509l0.971,1.495
		l-0.822,1.766l1.334,1.374v1.077l-1.321,0.674l-1.535,1.051l-0.862,0.566l-1.024,0.242l-1.765,0.202l-1.603,0.242l-1.496,0.081
		H9.243l-1.994,0.148l-2.6,0.688l-1.711,1.266l-0.957,1.428l-1.186,0.404l-3.731,0.646l0.283,1.214l2.075,0.403l1.145,0.902
		l0.041,0.148l0.188,1.132l1.441,0.473l1.604,0.134l1.738,0.256l2.102,0.162l2.344,0.095l1.092,0.834l-0.108,1.239l0.041,0.702
		l0.081,1.198l0.431,1.28l-0.283,1.414l-1.172,0.836l-2.574,2.344l1.509,0.176l0.781,0.7l1.051-0.054l1.308-0.081l1.01,0.337
		l2.452,0.66l-0.27,1.145l0.808,0.89l1.86,0.432l1.522,1.697l0.861,0.054l0.351,0.027l1.441-0.565l1.267-0.646l1.577-0.876
		l1.846-0.283l1.508-0.108l1.887-0.215l2.586-0.122l1.712,0.324l2.007-0.378l1.671-0.849l1.644-0.188l2.169-0.243l2.021-0.727
		l2.438-0.876l1.253-0.983l1.415-0.026l1.428-0.459l1.846-0.795l1.132,1.078l0.821,0.646l0.499,1.132l0.7,1.307l1.429,0.242
		l1.55,0.324l1.886,0.673l0.633-0.861l1.604-0.297l1.833-0.31l1.871-0.297l1.078-1.145l0.499-0.957l1.051-0.539l1.806-0.862
		l1.684-0.7l1.187-0.539l1.239-1.011l0.861-0.66l1.496-0.323l1.765-0.444l2.573-0.283l1.927-1.092l1.441-0.861l1.401-0.81
		l1.549-1.145l0.917-0.565l2.183-1.119l1.347-0.403l1.132-0.432l1.509-0.7l2.438-0.849l2.386-1.294l1.751-0.35l1.266-0.041
		l1.631,0.068l0.094-0.027l1.348-0.041l1.927-0.269l1.064-0.729l1.468-1.993l1.685-1.819l1.172-0.809l0.148-0.107l1.711-0.781
		l1.442-0.565l3.152-1.429l1.441-0.633l1.9-0.714l1.899,0.241l2.169,1.052l1.792-0.378l1.656-1.415l1.253-0.834l2.317-0.189
		l2.021,0.445l1.819-0.863l2.02-0.431l3.153-1.401l1.725-0.673l2.021-0.809l2.451-1.052l1.859-0.821l1.267-0.7l-0.175-1.105
		l-1.159-1.023l0.404-1.604l0.903-1.212l2.073-2.075l1.132-1.078l0.458-1.4l-1.307-1.401l-1.266-2.103l-1.51-2.519l-0.633-0.862
		l-2.102,0.296l-2.236,0.822l-1.375,0.336l-1.454-0.31l-1.685-1.63l-1.064-1.55l-1.348-0.821l-1.226-0.296l-2.331-0.459
		l-0.997-0.458l-1.063-1.441L133.3,1.62l-1.037-1.562l-1.132-1.199l-1.28-0.983l-5.685-0.701l-14.659-3.503l-12.866-3.65l-9.646-4.5
		l-19.697-9.498L44.111-35.794l-7.222-3.84l-4.298-5.335l-3.367-4.433l-4.554,2.358l-0.89,0.377l-5.727,2.062l-1.536,0.095
		l-1.441,0.134l-1.104,0.31l-1.01,0.216l-2.601,0.176L3.76-43.177l-1.779-0.242l-2.061-0.054l-1.954,0.296l-1.833,0.553
		l-1.913-0.216l-1.495-0.188l-1.671,0.242l-5.874,0.862l-2.56-1.078l-0.162-0.026l-0.215,0.31l-21.543-0.121l-13.891-0.593
		l-4.756-0.067l-6.938,1.146l-9.013,0.175l-3.719-0.565l-7.302-0.054l-5.16-0.176l-5.833-0.579l-5.672-1.374l-5.497-0.404
		l-5.214-1.617l-4.729-1.886l-10.482-3.489l-6.319-2.533l0.917,4.405l1.145,6.09l1.495,4.069l0.714,5.16l0.148,4.702l0.755,3.556
		l1.441,7.007l1.011,3.771l-0.499,5.564l1.873,2.87l4.096,6.574L-116.754,2.564"/>
</g>
<g id="Layer_1_1_">
</g>
</svg>
