<?xml version="1.0" encoding="utf-8"?>
<!-- Generator: Adobe Illustrator 16.0.4, SVG Export Plug-In . SVG Version: 6.00 Build 0)  -->
<!DOCTYPE svg PUBLIC "-//W3C//DTD SVG 1.1//EN" "http://www.w3.org/Graphics/SVG/1.1/DTD/svg11.dtd">
<svg version="1.1" id="Layer_1" xmlns="http://www.w3.org/2000/svg" xmlns:xlink="http://www.w3.org/1999/xlink" x="0px" y="0px"
	 width="301.156px" height="557.797px" viewBox="-122.22 -226.677 301.156 557.797"
	 style="enable-background:new -122.22 -226.677 301.156 557.797;" xml:space="preserve">
<g id="Layer_32">
	<path id="Dadu" style="fill:#CCCCCC;stroke:#FFFFFF;stroke-width:1.15;" d="M147.77,250.197L147.77,250.197l-0.082-0.514
		l-0.091-0.557l-0.347-1.177l-0.331-1.192l-0.321-0.984l-0.353-0.647l-0.428-0.611l-0.489-0.576l-0.388-0.541l-0.331-0.504
		l-0.652-0.953l-0.378-0.586l-0.275-0.516l-0.193-0.637l-0.255-0.684l-0.255-0.448l-0.204-0.709l-0.255-0.575l-0.092-0.224
		l-0.138-0.373l-0.311-0.392l-0.214-0.261l-0.112-0.056l-0.132-0.021l-0.148-0.112l-0.086-0.224l-0.174-0.295l-0.123-0.327
		l-0.765-0.988l-1.615-3.808l-1.096-2.064l-0.316-1.509l0.047-1.193l0.188-1.605l1.376-1.458l1.224-1.565l0.418-1.697l-0.071-0.458
		l-0.204-1.371l-0.377-2.279l-0.479-2.334l-0.143-2.064l0.204-2.125l1.168-2.009l0.983-1.229l1.458-1.015l2.997-1.198l3.364-1.172
		l3.812-0.942l2.36-0.348l1.891-0.04l1.081-0.394l0.26-0.631l-1.198-1.974l-1.192-3.037l-0.393-0.882l-1.121-2.498l-1.412-3.15
		l-1.794-2.294l-1.213-1.982l-0.062-1.488l0.147-1.056l1.626-2.304l0.984-0.928l2.91-1.499l3.711-0.952l4.547-1.361l4.455-1.642
		l3.252-1.411l1.234-1.352l0.397-1.055l0.102-1.254l-0.847-0.484l-1.274-0.479l-4.903-1.234l-3.854-1.191l-5.229-2.213l-6.963-3.369
		l-5.113-2.294l-3.135-1.845l-1.683-2.417l-1.742-3.7l-0.103-3.323l0.643-1.265l0.979-0.612l2.89-0.652l1.342-0.81l0.759-1.799
		l0.051-3.747l-0.382-2.564l-1.632-4.021l-0.652-1.418l-1.732-1.009l-4.64-2.717l-3.812-2.288l-1.928-1.871l-3.803-2.932
		l-2.048-2.216l-0.185-1.184l0.153-1.391l1.743-1.983l4.231-4.674l2.13-2.825l0.163-0.514l-2.472-1.774l-0.821-0.77l-0.988-0.877
		l-1.238-1.197l-0.816-0.979l-2.91,0.25l-4.129,0.229l-5.077-0.152l-3.073-0.525l-1.025-1l-1.254-1.33l-4.21-4.74l-2.386-2.651
		l-4.898-4.521l-9.027-8.538l-5.312-4.776l-2.956-2.88l-1.479-1.764l-0.673-1.198l-0.163-1.829l0.438-2.253l-0.331-3.344
		l-0.994-1.749l-0.806-0.668l-1.892-0.168l-2.717-0.184l-1.63-0.703l-2.896-2.228l-1.142-1.219l-1.417-0.683l-1.392-0.999
		l-1.27-1.116l-0.8-0.541l-1.065-0.147l-1.651-0.26l-1.987-1.132L55.63,43.98l-1.315-1.483l-0.877-2.172l-0.096-1.493l-0.128-2.05
		l0.062-1.932l0.041-0.983l-0.327-0.653l-0.714-0.106l-0.723,0.087l-0.76,1.045l-0.652,1.483l-0.031,1.075l-0.397,0.948l-0.733,0.52
		l-0.592,0.112l-0.576-0.448l-0.173-1.846l-0.082-1.07l-0.561-0.882l-0.448-0.657L46.2,33.153l-0.316-0.423l0.673-0.765l0.367-0.862
		l-0.418-2.253l-0.214-1.732l-0.484-2.391l0.143-0.979l0.606-0.826l1.081-0.744l1.243-0.571l0.846-0.887l0.327-1.274l0.275-1.993
		l0.643-2.503l0.488-1.468l1.01-2.171l0.505-1.626L53.021,8.9L53,8.131l-0.316-0.158L51.97,7.86l-1.111-0.127l-1.753,0.051
		l-2.161-0.53l-0.755-0.826l0.041-0.643l0.214-0.765l1.143-1.61l1.294-1.585l1.366-1.509l2.141-2.259l2.069-2.405l0.979-1.743
		l0.846-1.887l0.148-1.213l0.106-1.575l-0.234-2.595l-0.917-3.206l-0.688-1.83l-0.616-1.468l-0.357-0.662l-0.122-0.51l0.265-0.413
		l0.419-0.479l-0.316-0.198L53.51-22.24l-0.418,0.061l-1.05,0.164l-0.725,0.315l-1.365,0.449l-0.719,0.239l-0.535,0.147
		l-1.688,0.475l-1.05,0.203l-1.11,0.098l-1.101,0.056L43.31-20.14l-0.652-0.326l-0.504-0.418l-0.53-0.545l-0.877-0.704l-0.928-0.739
		l-1.015-0.774l-0.79-0.637l-0.912-0.403l-0.662-0.326l-1.036-0.224l-0.55-0.138l-0.867-0.337L33.101-25.9l-0.755-0.306
		l-0.643-0.326l-0.184-0.311l-0.575-1.306l-0.35-1.045l-0.184-1.055l-0.021-0.332l0.1-0.326l0.407-0.545l0.867-0.861l1.121-0.546
		l1.193-0.836l1.284-1.371l1.193-1.213l0.698-1.428l0.515-0.54l0.683-0.464l1.366-0.678l0.602-0.377l0.52-0.918l0.765-1.667
		l0.771-0.983l1.283-1.07l0.684-0.76l0.693-0.933l0.271-1.377l-0.261-1.529l-0.575-1.146l-0.856-0.616l-1.865-0.622l-1.102-0.464
		l-1.01-0.693l-1.009-1.911l-0.765-2.3L37.81-58.41l-0.163-0.994l0.429-0.306l1.192-0.097l1.539-0.525l0.765-0.459l0.285-0.983
		l0.337-1.07l0.704-1.601l0.774-2.365l0.438-1.911l-0.245-1.662l-0.418-1.218l-1.101-0.994l-0.688-0.836l-0.418-0.836l-0.168-0.836
		l0.274-2.523l-0.081-0.459l-0.429-0.693l-0.759-0.841l-0.846-2.375l-0.918-2.682L37.81-86.67l-0.326-1.712l0.255-0.918l0.948-1.626
		l1.203-1.371l1.805-1.901l1.549-1.371l0.806-1.091l0.806-1.163l0.704-0.529l0.162-0.107l0.51-0.413l0.541-0.443l0.692-0.469
		l0.714-0.611l0.204-0.204l0.204-0.092l0.622-0.025l1.335-0.082l1.04-0.051l0.316-0.106l0.835-0.679l0.877-0.77l0.327-0.209
		l0.274-0.112l1.213-0.015l0.918-0.031l0.693-0.209l0.505-0.244l0.371-0.378l0.348-0.524l0.152-0.326l0.184-0.948l-0.04-0.453
		l-0.082-0.302l-0.214-0.509l-0.398-0.373l-0.438-0.32l-0.438-0.393l-0.628-0.449l-1.05-2.079l-0.065-0.321l0.183-1.759l0.684-0.546
		l1.376-0.683l1.447-0.448l1.632-0.225l1.708-0.143l2.91-0.209l1.631-0.301l0.969-0.357l0.852-0.58l0.434-0.943l-0.153-1.065
		l-0.418-2.131l-0.837-2.747l-0.417-0.928l-0.423-0.234h-0.516l-0.52,0.229l-0.53-0.011l-0.684-0.377l-0.428-0.616l-0.163-0.638
		l-0.51-0.153l-1.197-0.01l-1.811-0.367l-2.049-0.724l-1.615-0.602l-1.198-0.479l-1.193-0.54l-0.204-0.326l-0.306-0.453
		l-0.076-1.988l0.184-0.918l0.255-0.229l0.515-0.224l1.453,0.005l0.678-0.372l0.694,0.046l0.682-0.148l0.54-0.168l0.414-0.204
		l0.555-0.448l0.643-0.535l0.362-0.5l0.463-0.081l0.47-0.407l0.204-0.133l0.168-0.046l0.26,0.021l0.576,0.188l0.739,0.112
		l0.765,0.143l0.861,0.066l0.923,0.056l0.801,0.025l0.575,0.092l0.606,0.097l0.434-0.046l0.407-0.112l0.714-0.198l0.321-0.046
		l1.295,0.005l1.315,0.046l0.983,0.025l0.633,0.005l0.458-0.112l0.352-0.203l0.434-0.403l0.326-0.387l0.321-0.475l0.438-0.759
		l0.459-0.943l0.418-0.841l0.321-0.449l0.652-0.515l0.204-0.112l0.377-0.193l0.714-0.147l0.765-0.275l0.53-0.266l0.265-0.224
		l0.062-0.275l0.036-0.383l0.005-0.683l0.005-0.581l0.107-0.714l0.183-0.861l0.306-0.76l0.21-0.428l0.341-0.475l0.438-0.524
		l0.332-0.337l0.479-0.326l0.418-0.229l-0.535-0.188l-0.47-0.204l-0.631-0.168l-0.49-0.143l-0.377-0.138l-0.692-0.321l-0.546-0.54
		l-0.484-0.193l-0.535-0.438l-0.719-0.479l-0.744-0.505l-0.397-0.178l-0.285-0.245l-0.521-0.393l-0.765-0.469l-0.524-0.393
		l-0.408-0.306l-0.362-0.285l-0.535-0.438l-0.484-0.479l-0.366-0.291l-0.275-0.361l-0.372-0.388l-0.525-0.581l-0.32-0.352
		l-0.179-0.25l-0.51-0.57l-0.521-0.419l-0.429-0.091l-0.371-0.235l-0.719-0.581l-0.607-0.448l-1.023-0.54l-0.648-0.326l-1.269-0.796
		l-1.417-0.815l-1.667-1.06l-1.325-0.771l-0.546-0.28l-0.157-0.198l-0.077-0.133l-0.065-0.433v-0.984l-0.051-0.979l-0.067-0.979
		l-0.051-0.592l0.107-0.173l0.157-0.112l0.449-0.112l1.417-0.326l0.755-0.312l0.407-0.336l0.245-0.418l0.106-0.448l0.006-0.632
		l-0.076-0.484l-0.174-0.464l-0.321-0.5l-0.204-0.433l-0.071-0.337l-0.021-0.393l0.112-0.331l0.107-0.296l0.438-0.331l0.576-0.576
		l0.637-0.479l1.413-0.948l0.846-0.72l1.142-0.933l0.943-0.907l0.912-0.953l0.541-0.729l0.575-0.836l0.576-1.102l0.495-0.841
		l-1.646,0.076l-0.994-0.081l-0.983-0.255l-0.465-0.036l-1.005,0.066l-1.171,0.117l-2.07-0.021l-3.38-0.056l-2.309-0.041
		l-1.274-0.352l-1.891-0.505l-1.392-0.851l-2.126-1.127l-2.666-1.3l-2.691-0.887l-1.213-0.229l-0.535-0.036l-1.111,0.26
		l-1.229,0.806l-1.55,0.918l-2.109,0.591l-2.978,0.597l-3.813,0.326l-3.114,0.326l-2.067-0.138l-3.078-0.106l-4.03,0.122
		l-4.197,0.315l-3.477,0.036l-1.763-0.117l-3.163,0.046l-2.37-0.24l-4.055-0.229l-1.215-0.148l-0.785-0.683l-1.001-0.902
		l-1.038-1.315l-0.895-1.229l-0.797-0.54l-0.533-0.112l-0.609-0.046l-1.185,0.261l-0.999,0.82l-1.226,0.806l-2.072,0.754
		l-2.256,0.179l-2.373-0.168l-2.031-0.123l-1.28-0.361l-1.185-0.556l-0.604-0.112l-1.004-0.005l-2.103,0.265l-1.784,0.147
		l-1.796,0.22l-1.774,0.01l-2.584-0.458l-1.659-0.397l-0.053-0.011l-0.146,0.025l-0.24-0.015l-0.257-0.144l-0.01-0.021l-0.224-0.285
		l-0.344-0.602l-0.818-0.948l-0.461-0.53l-0.833-0.54l-0.79-0.673l-1.058-0.602l-1.254-0.54l-1.331-0.229l-0.402-0.082l-0.166-0.086
		l-0.069-0.245l-0.543-0.907l-0.354-0.774l-0.792-0.643l-0.774-0.081l-0.762-0.077l-0.504-0.106l-0.992-0.097l-0.757-0.107
		l-0.209-0.133l-0.248-0.321l-0.26-0.698l-0.125-0.591l-0.14-0.062l-1.807-0.902l-1.807-0.938l-0.877-0.321l-1.83-0.774
		l-1.723-0.475l-1.947-0.412l-1.239-0.113l-1.19,0.016l-0.499,0.107l-0.548,0.367l-0.617,0.448l-0.454,0.54l-0.26,0.5l-0.402,1.549
		l-0.01,0.923l-0.273,0.745l-0.275,0.331l-0.846,0.214l-1.18,0.081l-0.637-0.051l-0.135-0.158l-0.074-0.54l-0.094-0.77l-0.11-0.943
		l-0.109-0.622l-0.333-0.463l-0.772-0.535l-0.729-0.107l-0.647,0.198l-0.872,0.326l-1.776,0.745l-1.46,0.667l-0.388,0.036
		l-0.166-0.107l-0.209-0.397l-0.318-0.749l-0.403-0.673l-0.573-0.867l-0.683-0.743l-1.165-0.842l-1.534-0.597l-1.43-0.315
		l-1.787-0.362l-1.2-0.122l-1.285,0.193l-0.329-0.112l-0.365-0.392l-1.195-0.734l-1.116-0.464l-1.061-0.255l-0.976-0.225
		l-0.423-0.209l-0.171-0.397l-0.069-0.591l-0.079-0.627l-0.176-0.484l-0.377-0.495l-0.522-0.366l-0.997-0.571l-0.933-0.515
		l-1.318-0.397l-2.844-0.296l-1.262-0.902l-0.861-0.851l-0.851-0.771l-3.571-2.176l-1.68,9.531l-0.667,7.096l-0.696,3.471
		l-2.709,2.891l-2.531,3.023l-1.524,2.879l-0.847,3.936v2.105l0.173,3.477l1.54,6.355l2.217,9.38l1.672,9.022l1.027,7.864
		l0.349,5.444l0.518,6.198l-1.514,5.302l-1.848,6.356l-1.346,3.486l0.005,1.366v1.198l0.513,2.1l1.017,3.925v0.081l-0.617,0.725
		l-0.833,1.442l-0.434,1.662l-0.806-0.378v5.357l0.043,8.146l0.724,7.3l0.553,4.75l1.106,9.502l0.382,2.197l-0.423,1.274
		l-1.028,1.085l-1.244,1.825l-0.823,1.086l-0.831,1.269l0.005,4.027l0.803,6.356l0.596,3.981l0.025,1.906l-2.013,2.207l1.068,3.771
		l0.502,3.426l1.608,4.455l1.165,5.581l1.58,5.984l1.468,4.322l1.21,2.799l2.139,5.984l0.935,3.049l1.096,1.539l1.524,1.544
		l1.808,1.29l1.241,1.167l0.821,1.274l1.356,2.554l2.475,2.931l2.63,4.71l1.901,3.451l2.316,3.706l1.909,2.818l1.624,3.319
		l1.613,3.593l1.489,2.932l1.898,3.323l2.579,4.348l2.959,6.393l1.479,3.313l2.046,2.936l1.186,3.69l0.504,2.676l1.106,2.921
		l0.811,1.529l1.085,1.8l1.112,0.535l1.674,0.413l1.249,0.652l2.072,1.411l0.683,0.908l0.667,1.411l0.935,2.29l1.764,2.812
		l1.473,3.176l1.932,1.555l0.948,1.54l0.245,1.519l-0.166,1.396l-1.624,3.64l-0.458,1.769l-0.349,3.283l-0.462,1.876l-0.798,4.425
		l-0.971,6.056l0.064,3.542l-0.382,4.42l0.058,3.807l-0.361,3.798l-0.734,1.759l0.11,1.143l0.379,2.043l0.788,2.427l1.322,3.568
		l0.783,2.671l-0.324,2.146l-0.472,2.14l-1.748,3.513l-2.149,2.498l-2.852,2.722l-2.442,3.12l-2.296,2.991l-2.449,3.502
		l-2.072,3.864l-0.737,1.87l-0.176,1.886l-1.353,4.526l-1.201,4.021l-0.035,1.887l2.067,0.229l2.541-0.111l0.795-0.021l1.31,0.047
		l1.091,0.111l2.093-0.438l1.075-0.412l0.941-0.148l0.52,0.327l0.597,0.718l0.313,0.983l0.199,2.044l0.25,1.434l0.688,1.56
		l0.778,1.743l0.308,0.927l0.163,0.72l-0.324,4.459l0.12,2.055l0.061,2.697l0.048,1.973l0.943,6.167l0.049,1.974l0.046,2.043
		l0.402,1.693l1.091,3.262l1.374,2.937l0.395,1.432l0.016,0.725l-0.27,0.86l-1.126,1.336l-1.06,1.07l-1.244,2.467l-1.231,2.921
		l-1.335,4.756l-1.195,2.146l-0.413,0.933l0.015,0.856l0.314,0.77l0.387,0.983l-0.133,0.734l-0.823,1.646l-1.911,4.837l-1.629,4.567
		l-1.19,1.729l-0.5,0.132l-0.298,0.016l-0.304-0.586l-0.304-0.565l-0.15-0.271l-0.428,0.087l-0.428,0.274l-1.211,0.612l-0.936,0.402
		l-0.41,0.861l0.03,1.434l-0.255,1.248l-1.254,1.998l-0.579,1.193l-1.424,0.882l-2.052,1.672l-1.195,1.468l-1.19,1.656l-0.961,1.999
		l-1.888,2.527l-1.233,2.772l-0.24,1.901l-0.742,2.182l-0.469,1.255l0.016,0.663l0.234,0.769l0.528,0.643l1.249,0.765l1.524,0.494
		l1.32,0.82l1.628,1.551l1.685,1.075l1.578,0.601l4.926,0.816l4.213,1.102l2.113,0.678l4.308,2.028l6.211,3.15l5.618,2.65
		l4.791,2.722l3.596,2.626l2.302,2.772l2.655,2.574l2.067,2.191l0.696,2.08l0.114,2.039v3.206l0.051,2.242l0.653,3.284l0.981,0.483
		l3.446,1.116l4.378,1.55l2.429,0.377l1.968,0.025l1.738-0.83l1.909-1.846l5.33-4.889l3.894-2.946l0.867-0.204l1.415-0.065
		l1.878,0.382l6.265,2.004l2.969,1.039l1.336,0.229l0.867-0.122l0.561-0.852l1.236-3.843l1.465-3.706l0.816-1.784l1.524-3.027
		l1.749-1.347l2.789-2.105l2.067-1.191l1.972-0.48l2.442-0.106l1.892-0.261l1.424-0.707l0.959-0.979l0.743-2.131l1.07-2.854
		l0.761-3.507l1.146-6.341l0.801-5.78l-0.128-1.157l-1.306-2.314l-0.3-1.36l0.244-0.495l0.954-0.714l2.16-1.759l2.086-2.619
		l1.177-2.319l0.78-2.237l0.652-0.765l1.091-0.964l1.402-0.296l1.406-0.657l0.765-1.065l1.325-2.105l0.438-1.06l0.877-0.673
		l1.733-0.969l1.732-0.759l0.545-0.867l0.107-0.684l-0.52-0.779l0.01-0.775l0.449-0.866l0.662-1.05l0.438-0.871l-0.092-0.883
		l-0.733-1.463L53,238.896l-0.301-1.56l0.479-1.432l1.412-0.959l1.519-0.764l1.192-0.668l0.979-0.959l0.674-1.941l0.458-1.26
		l0.765-1.157l0.103-2.518l1.137-0.239l1.529,0.26l1.778-0.271l1.784-0.372l1.355-1.565l1.132-1.666l1.147-1.794l1.463-1.651
		l1.081-0.603l2.033-0.147l2.834-0.021l3.155,0.754l2.9,1.47l2.763,1.61l3.228,2.033l3.456,2.034l1.844,1.453l1.387,1.115
		l1.203,1.963l1.876,3.165l1.754,3.481l2.666,4.369l1.676,2.197l2.122,3.068l1.477,1.33l1.377,1.01l3.859,0.76l2.695,0.325
		l1.979-0.545l1.783-0.26l1.193,0.361l2.064,1.004l1.178,0.48l1.549-0.281l1.412-0.144l0.576,0.322l1.132,0.999l1.636,0.352
		l4.236,0.143l3.895-0.091l3.436-0.322l1.891-0.57L147.77,250.197"/>
</g>
<g id="Layer_1_1_">
</g>
</svg>
