<?xml version="1.0" encoding="utf-8"?>
<!-- Generator: Adobe Illustrator 16.0.4, SVG Export Plug-In . SVG Version: 6.00 Build 0)  -->
<!DOCTYPE svg PUBLIC "-//W3C//DTD SVG 1.1//EN" "http://www.w3.org/Graphics/SVG/1.1/DTD/svg11.dtd">
<svg version="1.1" id="Layer_1" xmlns="http://www.w3.org/2000/svg" xmlns:xlink="http://www.w3.org/1999/xlink" x="0px" y="0px"
	 width="301.712px" height="196.979px" viewBox="-125.066 -81.652 301.712 196.979"
	 style="enable-background:new -125.066 -81.652 301.712 196.979;" xml:space="preserve">
<g id="Layer_98">
	<path id="North_Waziristan_Agency." style="fill:#CCCCCC;stroke:#FFFFFF;stroke-width:1.15;" d="M-116.007,101.38L-116.007,101.38
		l2.973,0.477l1.982,0.465l1.709,0.842l1.602,0.67l1.227,1.191l1.767,2.279l1.187,1.311l1.255,1.154l2.176,0.965l1.717,0.771
		l2.082-0.068l2.303-0.051l2.227-0.318l1.135-0.453l0.384-0.143l4.239-0.943l2.303-1.26l2.005-0.943l3.024-1.408l3.146-1.248
		l1.738-0.824l2.757-1.143l2.413-1.635l-1.42-2.607l-1.331-0.635l-1.645-0.727l-0.65-1.404l0.312-1.418l1.232-2.494l1.814-0.783
		l0.049-0.012l0.889-1.557l1.477-0.771l1.831-0.523l0.415-0.125l1.544-0.357l1.747,0.289l2.058-0.215l2,0.521l2.007,0.08
		l1.587,0.172l1.36-0.115l1.687-0.137l3.53-0.021l1.791,0.295l2.979-0.104l1.616-0.135l2.124,0.068l2.127-0.488l1.814-0.381
		l4.034,0.227l3.269-0.193l2.757,0.125l2.303,0.244l2.548,0.023l2.251-0.045l2.609-0.193l4.449,0.271l2.587,0.125l2.542,0.182
		l2.269,0.365h2.203l2.38-0.625H2.3l1.448,0.078l2.947-0.533l2.251,0.023l3.215,0.193l2.925,0.75l4.403-0.967l2.059,0.238
		l3.845-0.312l2.604-0.322l1.588-0.143l3.055-0.965l2.919-0.443l1.966-1.738l1.885-0.771l2.465-1.863l1.521-1.25l1.477-0.988
		l3.044-0.682l2.806-1.248l2.044-0.846l0.369-0.143l2.255-0.42l1.812,0.119l1.988,0.027l2.538,0.068l1.761-0.521l2.657,0.238
		l2.181-0.045l2.373,0.51l1.442,0.023h0.228l1.863,0.512l3.027,0.477l1.544,0.607l2.062-0.318l0.097-1.646l-1.38-1.182l-0.29-2.283
		l3.197,0.25l1.761,0.852l1.136,0.965l2.096,0.562l1.879-1.322l0.467-0.33l1.482-1.635l0.085-0.033l0.749-0.33l1.533-0.682
		l0.716-0.443l0.954-0.602l1.477-0.432l0.477-0.5l0.727-0.762l0.58-0.545l0.533-0.488l1.869-0.988l1.027-0.607l0.761-0.453
		l0.512-0.297l1.146-1.67l3.146-1.021l1.125-0.953l0.806-0.637l1.284-1.215l1.096-1.033l1.13-0.988l0.682-0.539l0.59-0.467
		l0.478-0.369l1-0.607l1.091-0.443l0.175-0.705l0.75-1.656l-0.107-0.66l-0.25-1.328l0.517-1.307l0.312-0.385l0.211-0.49l0.011-0.578
		l-0.267-1.977l-1.675-0.527l-0.619-0.297l-0.552-0.25l1.54-2.504l0.488,0.289l0.942,0.416l0.579,0.408l0.455,0.307l0.692-0.592
		l0.357-0.35l1.017-0.467l0.165,0.852l0.527,0.354l2.545-0.881l-0.057-1.727l0.363-0.506l-4.81-4.527l-6.173-3.264h-5.459
		l-5.082,1.09l-5.083,3.271l0.728-2.182l4.355-10.533l7.996-16.237l3.998-8.095l9.438-18.161l2.907-3.634l0.239,0.093l0.034-0.122
		l0.584-2.215l8.423-12.63l5.28-6.462l2.301-2.802l14.736-9.269l5.31-3.484l6.065-4.157l-0.517-0.182l-1.193-0.429l-0.852-0.361
		l-0.704-0.449l-0.613-0.454l-0.602-0.565l-0.625-0.44l-0.341-0.292l-0.386-0.744l0.057-0.71l0.006-0.255v-0.355l-0.107-0.599
		l-0.239-0.557l-0.58-0.426l-0.527-0.295l-0.716-0.25l-0.573-0.244l-0.272-0.676l0.182-0.61l0.182-0.511l0.193-0.56l0.17-0.579
		l-0.08-0.52l-0.482-0.628l-0.653-0.193l-0.408-0.732l-0.216-0.517l-0.352-0.267l-0.5-0.022l-0.432,0.116l-0.199,0.545l-0.902,0.06
		l-0.46-0.035l-0.523-0.13l-0.289,0.809l-1.044,1.244l-1.659,1.63l-2.465,0.045l-1.8-0.076l-1.448,0.147l-2.386,0.099l-2.805-0.025
		l-1.932-0.122l-2.532,0.239l-2.271-0.123l-1.84-0.849l-1.158-2.274l-1.107-1.616l-1.54-0.673l-1.931,0.705l-1.737,0.213
		l-2.657,0.36l-2.347,1.258l-2.44-0.582l-1.062-1.119l-2.476,0.797l-2.147,1.042h-1.585l-2.209,0.579l-2.725,0.147l-2.113-1.181
		l-0.057,0.15l-3.771,0.122l-4.021,0.627l-4.94,5.52l-0.756,0.727l-2.209,2.11l-6.133,5.903l-4.838,3.524l-1.25,0.915l-1.374,0.673
		l-3.032,1.496l-5.282,0.849l-0.987,1.261l-0.603,0.837l-1.386,1.942l-0.937,0.301l-4.991,1.564l-3.59,0.449l-2.93,0.36
		l-2.487,0.432l-3.601-1.936L44.4-47.244l-0.591,0.139l-2.17,3.456L33.115-30.11l-2.793,0.446l-1.216,0.193l-1.564,0.202
		l-3.104,0.415l-1.332,0.232l-1.135,0.199l-2.82,1.202l-4.656,0.616l-3.723,2.439l-0.415,0.272L9.83-23.313l-2.397,2.681
		l-3.728,0.656l-0.685-0.023l-1.465-0.045l-4.066,1.417l-4.611-0.15l-4.351-1.326l-2.308-0.71l-3.263-2.092l-3.936-2.542
		l-2.663-0.767l-0.372-0.099l-1.803,0.977l-1.35,0.727l-1.581,1.505l-2.596,0.054l-2.348,0.057l-2.198,0.971l-0.25,0.349
		l-1.38,1.931l-0.383,0.361l-1.537,1.392l-3.268,0.483l-1.094,0.155l-3.656-0.888l-1.338-0.471l-1.082-0.381l-1.899-0.057
		l-1.17-0.04l-2.785,0.685l-0.018,0.006l-9.211-0.545l-8.49-0.011h-0.426l-1.575,1.837l-1.665,1.942l-5.767,5.52l-8.601,7.249
		l-0.139,0.525l-1.653,5.895l-1.575,8.754l-0.233,5.459l-0.005,0.227l3.855,9.439l1.709,4.191l3.867,2.965l0.85,1.84l-0.122,0.158
		l-0.85,1.107l-4.367,1.68l-1.348,0.717l-1.454,0.75l-6.42-0.703l-2.502,0.953l-0.844,2.016l-0.557,1.311l-4.177,4.539l-2.611,1.953
		l-4.348,3.277l-4.101,2.73l-0.122,0.324l-0.582,1.471l0.174,3.113l2.328,2.906l1.977,1.443l1.005,0.727l3.901,1.92l2.407,1.107
		l0.1,0.682l0.128,1.129l-0.406,2.566l-0.372,2.33l-0.366,1.537l-0.06,1.363l-0.017,0.449l1.448,2.102l0.533,0.75l0.625,0.846
		l0.844,1.834l-1.642,2.795l-2.569,3.543l-4.206,5.055L-116.007,101.38"/>
</g>
<g id="Layer_1_1_">
</g>
</svg>
