<?xml version="1.0" encoding="utf-8"?>
<!-- Generator: Adobe Illustrator 16.0.4, SVG Export Plug-In . SVG Version: 6.00 Build 0)  -->
<!DOCTYPE svg PUBLIC "-//W3C//DTD SVG 1.1//EN" "http://www.w3.org/Graphics/SVG/1.1/DTD/svg11.dtd">
<svg version="1.1" id="Layer_1" xmlns="http://www.w3.org/2000/svg" xmlns:xlink="http://www.w3.org/1999/xlink" x="0px" y="0px"
	 width="301.085px" height="245.658px" viewBox="-128.092 -104.395 301.085 245.658"
	 style="enable-background:new -128.092 -104.395 301.085 245.658;" xml:space="preserve">
<g id="Layer_105">
	<path id="Pishin" style="fill:#CCCCCC;stroke:#FFFFFF;stroke-width:1.15;" d="M37.219-96.088L37.219-96.088l4.789,0.132
		l-0.969,0.252l-2.979,0.922l-2.482,0.511l-2.469,0.223l-3.213,0.278l-3.942-0.088l-2.301-0.116l-0.33-0.087l-0.613-0.026
		l-0.957-0.042l-5.493,1.855l-1.261-0.152l-1.318-0.158l-0.032-0.013l-1.609,3.6l-2.095,4.276l-0.394,2.963l-0.188,1.661
		l0.549,1.293l1.306,1.467l0.439,1.933l-0.517,1.768l-0.634,0.935l-2.249,1.037l-2.036,1.04l-1.603,1.219l-0.95,1.581l-0.944,2.417
		l-1.661,4.453l-1.545,4.554l-0.406,2.316l0.02,1.484L0.25-49.38l2.133,3.574l0.549,0.827l-0.304,1.024l-1.803,1.69l-1.604,0.753
		l-3.729,2.728l-1.499,0.753l-3.109,0.682l-2.255,0.491l-1.39,0.663l-2.974,2.256l-2.876,2.342l-3.31,1.979l-6.722,3.681
		l-2.566,1.231l-3.819,2.818l-2.979,2.252l-1.759,0.979l-0.271,0.152l-0.743,0.106l-0.976-0.453l-0.88-1.377l-1.098-1.744
		l-1.525-1.187l-2.502-2.004l-2.062-1.18l-3.788-1.344l-2.481-0.437l-4.518-0.197l-2.999,0.866l-2.03,0.676l-1.713,1.124
		l-1.699,1.132l-0.73,1.212l0.013,0.833l0.556,1.199l0.343,1.483l-0.104,0.646l-0.634,0.472l-3.005,0.41l-1.719,0.113l-1.487,0.938
		l-0.847,0.84l-1.163,1.497l-1.486,0.847l-0.97,0.2l-2.263-0.34l-1.835-0.992l-1.416-0.543l-0.743,0.007l-1.189-0.078l-1.726-0.707
		l-1.202-1.009l-0.982-1.005l-0.769-1.105l-1.216-1.464l-1.086-0.727l-1.306-0.721l-0.969-0.359l-1.61,0.029l-2.462,0.957
		l-2.14,0.953l-0.827,0.436l-1.189,1.855l-0.686,0.847l-0.316,1.244l0.148,0.854l0.382,0.656l0.686,0.455l0.685,0.333l1.061,0.652
		l0.982,1.571l0.529,1.376l0.071,1.568l-0.245,4.641l-0.389,2.679l-0.924,3.199l-0.802,2.35L-107.534,9l-3.58,4.835l-3.038,3.652
		l-2.599,3.587l-3.271,4.506l-1.745,2.623l-0.543,2.082l-0.239,2.022l0.149,1.04l0.672,2.082l1.125,3.206l1.279,2.617l1.958,3.665
		l1.054,2.424l1.655,3.665l1.958,4.395l2.126,3.917l2.03,3.672l2.411,4.446l1.266,2.817l1.513,3.93l2.101,3.077l1.507,2.353
		l2.63,3.93l2.424,3.529l2.481,3.529l1.739,1.9l1.57,1.964l1.804,2.561l1.429,1.899l1.544,1.643l1.241,2.973l1.441,3.658
		l0.214,1.874v0.116l0.556,0.75l1.221,0.802l0.848,0.698l0.666,0.704l0.4,0.951l0.543,3.283l0.472,1.996l0.834,1.087l1.065,1.183
		l1.229,1.474l0.53,1.938l1.299,2.036l1.726,1.894l0.847,1.7l0.737,1.377l0.95,0.802l1.383,0.697l0.943,0.608l0.718,0.142
		l0.382-0.142h0.277l0.711,0.084l0.498,0.226l0.672,0.427l0.666,0.413l0.827,0.098l0.879-0.137l0.388-0.284l0.491-0.388l0.323-0.491
		l0.33-0.232l0.381-0.051l0.827,0.18l1.215,0.168l0.44,0.389l0.349,0.801l0.388,0.466l1.047,0.413l2.256,0.324l3.316,0.891
		l2.585,0.143l0.938-0.143l1.092-0.568l1.093-0.969l1.738-1.784l1.623-2.347l0.865-1.344l2.01-1.791l1.746-2.017l1.467-1.06
		l0.905-0.608l2.682-1.537l2.779-2.173l1.196-0.97l0.885-0.387l0.602-0.013l0.55,0.038l0.988,0.284l0.996,0.026l0.659-0.143h0.827
		l0.613,0.233l1.1,0.168l0.549-0.104l0.982-0.53l2.96-1.305l3.445-1.694l0.814-0.685l0.271-0.479l0.22-0.322l0.168-0.193
		l0.278-0.052l0.382,0.18l0.504,0.524l0.698,0.963l1.001,1.085l0.614,0.421h0.55l0.329-0.188l0.271-0.479l0.052-0.388l0.22-0.142
		l0.388-0.052l1.377,0.322l1.383,0.614l0.278,0.434l0.724-0.129l0.814-0.014H1.84l-0.052-0.485l0.271-0.975l0.517-0.854l0.977-1.073
		l0.523-0.704l0.297-0.569l-0.104-0.407l-0.259-0.472l-0.594-0.679l-0.278-0.75L3.1,109.5l0.29-0.691l1.377-1.163l2.158-1.739
		l1.539-1.099l2.378-2.087l1.229-1.015l1.06-1.28l0.368-0.698l0.039-0.834l0.278-0.769l0.188-0.964l0.433-0.924l0.511-1.125
		l0.686-0.658l0.756-0.854l0.775-0.518l0.86-0.375l1.467-0.595l1.797-0.892l3.341-2.068l2.263-1.189l2.01-1.383l0.401-0.013
		l0.336,0.129l0.568,0.181l0.704-0.154l0.925-0.725l2.701-2.236l2.618-1.964l2.476-1.746l2.941-1.978l3.36-1.642l3.232-1.293
		l1.576-0.4l1.364-0.052l2.637-0.025l1.525,0.147L57.58,75.6l1.306,0.646l1.234,0.504l2.185,0.84l0.892,0.246l2.03,0.621
		l0.665,0.452l1.215,1.894l1.248,2.999l1.345,3.063l0.938,1.009l1.24,1.138l0.931,0.937l1.486,1.054l1.804,0.827l0.343,0.414
		l0.013,0.479l0.174,0.555l0.04,0.621l0.187,0.75l0.362,0.686l0.659,0.465l1.454,0.22l2.347,0.337l2.003,0.284l1.455,0.297
		l1.376,0.427l0.562-0.026l0.459-0.355l0.22-0.362l0.175-1.312l0.368-0.911l0.323-1.668l0.407-1.261l0.316-0.284l1.875-0.827
		l1.17-0.737l0.685-0.49l0.853-0.802l0.725-1.681l0.271-1.048l0.407-1.602l0.168-1.391l0.116-1.111l0.369-0.77l0.348-0.311
		l1.332-0.672l1.745-0.465l1.811-0.62l2.274-0.827l2.314-0.285l1.912-0.142l2.554-0.291l3.187-0.175l3.373,0.162l2.348,0.342
		l1.026-0.038l2.309-0.414l2.062-0.285l9.688-0.684l-0.356-0.544l-0.522-0.64l-1.416-2.481l-0.963-1.991l-0.142-0.938l-0.026-0.104
		l0.026-0.865l0.284-0.867l0.595-0.672l0.491-0.109l-1.564-1.247l-0.963-1.435l-0.259-1.196l0.014-0.788l0.49-1.332l0.388-1.422
		l0.021-0.951l-0.343-1.026l-1.261-1.21l-1.616-1.453l-0.258-0.795l-0.084-0.788l-0.253-1.112l-0.426-1.112l-0.718-0.568
		l-0.543-0.323l-1.099-0.252l-0.827-0.013l-0.924,0.226l-0.453,0.233l-1.965,1.441l-0.918,0.148l-1.009-0.098l-0.445-0.329h-0.452
		l-0.646,0.077l-0.932,0.459l-1.105,0.381l-0.82-0.012l-0.64-0.007l-1.002-0.336l-1.37-0.336l-0.82-0.33l-1.648,0.058l-0.828,0.227
		l-1.111,0.452l-1.938,1.073l-1.752,0.452l-2.482,0.518h-3.167l-2.301-0.104l-1.189-0.025l-1.279,0.142l-2.76,0.841l-1.752,0.361
		l-2.928,0.362l-5.035-0.148l-3.283-0.679L74.43,53.87l-1.242-1.604l-0.077-0.782l-0.245-1.738l0.025-1.668l-0.529-1.344
		l-0.88-1.597l-0.368-0.479l-1.184-0.323l-2.836-0.206l-4.681,0.658l-1.292,0.143l-1.1-0.174L59.5,43.722l-0.266-0.634l0.75-1.099
		l1.222-1.563l2.313-1.163l3.322-1.37l1.384-0.938l0.658-0.692l0.395-0.949l-0.052-2.67l-0.038-3.471l0.038-1.738l0.562-1.028
		l1.118-1.099l1.119-0.938l0.749-1.331l0.595-2.129l0.039-2.212l-0.492-3.012l-0.904-1.047l-0.996-0.562l-2.094-0.266l-2.288-0.424
		l-1.363-0.808l-1.474-1.27l-0.136-0.217l-0.136-0.711l-0.053-0.708l0.531-1.467l1.383-2.228l1.344-1.095l1.177-1.028l1.344-1.099
		l0.434-0.979l0.266-0.557l0.012-0.491l0.272-0.7l0.588-0.55l1.991-0.588l2.54-0.224l2.947-0.142l2.372,0.055L81.655-1.6
		l3.717-1.525l1.9-0.798l2.075-0.802l2.385-0.714l2.902-1.199l2.96-0.556l1.563-0.385l1.08-0.543l1.268-1.17l1.68-1.16l2.062-0.866
		l2.663-1.344l2.34-1.707l1.784-1.573l1.875-2.353l1.544-2.362l1.551-2.289l1.616-1.516l2.604-2.052l2.818-2.104l3.865-3.006
		l2.191-1.57l2.947-2.32l2.843-1.836l2.922-1.687l2.185-1.497l2.689-1.693l1.422-0.814l1.176-1.099l0.776-1.037l1.563-2.498
		l1.681-3.394l0.168-0.353l0.433-0.759l0.356-0.631l0.025-0.633l0.013-0.498l-0.104-0.358l-0.802-0.368l-1.299-0.459l-0.802-0.582
		l-0.304-0.568l0.117-0.841l0.517-0.549l0.912-0.333l0.904,0.022l1.384,0.039l1.81,0.045l2.139-0.297l2.236-0.501l1.577-0.669
		l1.525-1.306l0.686-1.111l0.271-0.767l0.129-1.267l0.433-0.695l0.35-0.41l0.343-0.277L164-65.807l0.833-0.543l0.505-0.343
		l0.259-0.42l0.013-0.35l0.019-0.49l-0.549-0.792l-0.646-0.505l-0.466-0.575l-0.065-0.562l0.35-0.624l0.84-0.614l0.788-1.325
		l1.21-1.661l0.361-0.833l-0.059-0.637l-0.148-0.355l-0.562-0.443l-0.813-0.232l-1.409,0.245l-3.052,0.695l-2.714,0.21l-1.15-0.025
		l-2.961-0.146l-1.964-0.184l-1.384-0.032l-1.486,0.025l-1.564,0.382l-2.572,0.562l-2.481,0.572l-1.564,0.103l-2.347-0.834
		l-2.035-0.613l-0.97-0.025l-1.171,0.391l-0.988,0.184l-0.704-0.339l-1.286-0.595l-1.48-0.032l-1.396,0.106l-2.456-0.278
		l-2.676-0.914l-2.895-1.622l-1.546-0.676l-2.106-0.549l-3.529-0.084l-2.974,0.349l-4.543,0.808l-2.314,0.298l-0.808-0.298
		l-0.62-1.005l-0.595-1.92l-0.452-1.138l-0.55-0.862l-1.48-2.572l-0.595-1.781l-1.111-1.438L96.36-91.87l-2.263-1.325l-2.837-0.508
		l-1.241-0.029L86.813-93.6l-3.542,0.479l-3.399,1.118l-3.627,0.329l-1.317,0.113l-2.624-0.277l-1.125-0.663l-2.172-1.25
		l-0.872-1.151l-0.627-1.283l-0.627-1.146l-0.633-0.575l-0.66-0.232l-0.897-0.02l-0.389-0.437l-0.233-0.708l-0.147-0.436
		l-0.272,0.058l-3.689,1.415l-2.903,0.954l-3.768,1.244l-1.952,0.397l-2.404,0.491l-6.696-0.701L37.219-96.088"/>
</g>
<g id="Layer_1_1_">
</g>
</svg>
