<?xml version="1.0" encoding="iso-8859-1"?>
<!-- Generator: Adobe Illustrator 16.0.4, SVG Export Plug-In . SVG Version: 6.00 Build 0)  -->
<!DOCTYPE svg PUBLIC "-//W3C//DTD SVG 1.1//EN" "http://www.w3.org/Graphics/SVG/1.1/DTD/svg11.dtd">
<svg version="1.1" xmlns="http://www.w3.org/2000/svg" xmlns:xlink="http://www.w3.org/1999/xlink" x="0px" y="0px"
	 width="82.323px" height="46.473px" viewBox="0 0 82.323 46.473" style="enable-background:new 0 0 82.323 46.473;"
	 xml:space="preserve">
<g id="Layer_117">
	<g id="Layer_122">
		
			<path id="Killa_Saifullah" style="fill:#CCCCCC;stroke:#FFFFFF;stroke-width:1.07;" d="
			M71.791,38.387L71.791,38.387l-0.168-0.254l-0.16-0.271l-0.158-0.053l-0.156,0.056l-0.627,0.249l-0.531,0.194l-0.312,0.139
			l-0.221,0.001l-0.158-0.08l-0.064-0.135l0.059-0.354l-0.002-0.272l-0.162-0.379l-0.287-0.459l-0.004-0.218l-0.096-0.188
			l-0.379-0.214l-0.191-0.162l-0.002-0.107l0.123-0.219l0.596-0.357l0.689-0.305l0.377-0.058l0.188-0.083l0.189-0.165l0.469-0.384
			l0.781-0.469l0.689-0.33l0.975-0.226l1.164-0.226l0.941-0.36l0.723-0.356l0.312-0.111l0.189-0.191l0.027-0.326l0.09-0.407
			l0.221-0.3l0.291-0.543l0.215-0.599l0.436-0.872l0.027-0.462l-0.129-0.298l-0.129-0.217v-0.19l0.311-0.274l0.279-0.571
			l0.186-0.517l0.154-0.328l0.158-0.109l0.85-0.222l0.568-0.112l0.346-0.165l0.342-0.519l0.908-1.254l0.061-0.245v-0.19L81.5,23.13
			l-0.223-0.107l-0.188-0.053l-0.158,0.001l-0.252,0.137l-0.312,0.301l-0.504,0.383l-0.471,0.383l-0.471,0.273l-0.379,0.111
			l-0.602,0.059l-0.6-0.133l-0.445-0.188l-0.254-0.297l-0.447-0.486l-0.443-0.295L75.4,22.87l-0.258-0.487l-0.295-0.501
			l-0.223-0.162l-0.254-0.079l-0.285,0.002l-0.283,0.029l-0.318-0.08l-1.109-0.48l-0.48-0.486l-0.637-0.538l-0.352-0.269
			l-0.35-0.215l-0.316-0.079l-0.285-0.052l-0.254,0.056l-0.221,0.11l-0.281,0.22l-0.215,0.215l-0.188,0.028L68.48,20.05
			l-0.539-0.159l-0.35-0.024l-0.221,0.002l-0.316,0.057l-0.658,0.386l-0.408,0.221l-0.189,0.001l-0.127-0.053L65.639,20.4
			l-0.002-0.271l-0.004-0.243v-0.001l-0.096-0.135l-0.096,0.028l-0.25,0.22l-0.564,0.385l-0.439,0.221L63.4,20.912l-0.408,0.058
			l-0.223-0.052l-0.131-0.244l-0.066-0.326l-0.1-0.406l-0.098-0.189l-0.158-0.08l-0.191-0.053l-0.568,0.06l-0.852,0.198
			l-0.252,0.002l-0.35-0.078l-0.352-0.241l-0.191-0.188l-0.254-0.079l-0.158,0.001l-0.441,0.113l-0.189,0.057l-0.189,0.002
			l-0.223-0.106l-0.285-0.133l-0.158-0.026l-0.127,0.056l-0.186,0.301l-0.467,0.521l-0.529,0.576l-0.596,0.359l-0.785,0.334
			l-0.881,0.2l-0.35-0.051l-0.385-0.376l-0.162-0.27l-0.137-0.596l0.088-0.544l-0.006-0.326l-0.227-0.242l-0.35-0.187l-0.162-0.188
			l-0.297-0.866l0.027-0.218l0.219-0.193l0.438-0.412l0.027-0.245l-0.197-0.433l-0.295-0.729l-0.117-0.151l-0.283-0.051L51.6,15.418
			l-0.064-0.135l-0.002-0.136l0.059-0.354l0.117-0.654l0.133-1.631l-0.104-0.569l-0.1-0.189l-0.35-0.05l-0.797-0.29l-1.021-0.478
			l-0.352-0.158l-0.412-0.05l-0.254,0.003l-0.568,0.197l-0.816,0.363l-0.6,0.17l-0.566,0.143l-0.635,0.089l-0.881,0.365
			l-1.381,0.778l-0.973,0.42l-0.881,0.365l-0.506,0.116l-0.475,0.033l-0.35-0.104l-1.71-0.476l-2.678-0.831l-1.18-0.39l-0.641-0.316
			l-0.965-0.638l-0.995-0.664l-1.067-0.989l-1.194-1.014l-1.488-1.362l-1.099-0.879l-1.567-1.165l-1.799-0.894l-1.504-0.463
			l-2.021-0.916l-1.35-0.628l-1-0.607l-0.551-0.425l-0.222-0.272l-0.081,0.06l-0.493,0.573L15.652,1.78l-0.491,0.278L15.13,2.082
			l-0.435,0.338l-1.035,0.958l-0.666,0.368l-0.37,0.121l-0.168,0.055l-0.554,0.051L10.989,3.91l-0.238-0.001l-0.429-0.001
			L10.14,3.959L9.994,4.001L9.771,4.018L9.669,3.936L9.269,3.61L8.986,3.543L8.91,3.524l-0.257-0.04L8.285,3.479l-0.11-0.002
			l-1.06-0.126L6.492,3.338L6.34,3.374L6.074,3.436L5.845,3.583l0.044,0.285l0.857,0.702l0.636,1.059l0.168,0.376l0.148,0.453
			l0.014,0.163l0.006,0.084L7.535,7.51L7.55,7.55l0.106,0.271l0.322,0.344l0.283,0.056l0.443,0.087l0.111,0.039l0.092,0.032
			l0.068,0.144l0.182,0.383l0.376,0.142l0.051,0.019l0.423-0.011L10.25,9.05l0.568-0.139l0.643-0.158l1.542-0.313l0.606-0.119
			l0.39,0.047l0.151,0.092l0.208,0.127l0.061,0.037l0.149,0.168l0.305,0.145l0.147,0.186l0.142,0.179l0.311,0.687l0.052,0.232
			l0.116,0.516l-0.183,0.528l-0.308,0.299l-0.165,0.16l-0.47,0.221l-0.033,0.009l-0.242,0.064l-0.761,0.051l-0.268,0.053
			l-0.009,0.002l-0.56-0.009l-0.027,0.009l-0.414,0.124l-0.497,0.211l-0.142,0.061l-0.054,0.042l-0.314,0.244l-1.02,0.634
			l-1.575,0.63l-0.342,0.046l-0.385,0.105L7.36,14.167l-0.664,0.045l-0.151,0.09l-1.32,0.3L5.06,14.668l-0.161,0.065l-0.55,0.273
			l-0.321,0.159l-0.819,0.326l-0.115,0.021l-0.986,0.17l-0.614,0.143l-0.181,0.042l0.023,0.066l0.034,0.107l0.06,0.066l0.137,0.003
			l0.098,0.035l0.097,0.087l0.094,0.173l0.094,0.194l0.131,0.174l0.329,0.189l0.17,0.1l0.396,0.042l0.199-0.017l0.548-0.051
			l0.514-0.169l0.536-0.072l0.485-0.02l0.186,0.004l0.429,0.077l0.341,0.2l0.239,0.262l0.167,0.217l0.091,0.269l0.223,0.389
			l0.083,0.13l0.069,0.172l0.089,0.29l0.094,0.152l0.122,0.045l0.349-0.045l0.686-0.122l0.449-0.053l0.533,0.013l0.319,0.083
			l0.233,0.102l0.438,0.245l0.405,0.138l0.371,0.042l0.211-0.016l0.223,0.005l0.195,0.09l0.106,0.051l0.15-0.028l0.176-0.06
			l0.148,0.004l0.307,0.093l0.355,0.126l0.236-0.016l0.375-0.086l0.388-0.085l0.237-0.058l0.224-0.004l0.21,0.005l0.297,0.029
			l0.446,0.022l0.174,0.004l0.41-0.032l0.462-0.105l0.212-0.037l0.123,0.035l0.084,0.066l0.023,0.054l0.009,0.096L16.9,19.664
			l-0.183,0.251l-0.119,0.2l-0.127,0.093l-0.053,0.094l0.01,0.085l0.071,0.087l0.097,0.077l0.083,0.12l-0.003,0.074l-0.001,0.053
			l-0.04,0.063l-0.076,0.052l-0.126,0.082l-0.103,0.093l-0.051,0.042l-0.052,0.062l-0.066,0.105l-0.019,0.191l-0.041,0.116
			l-0.105,0.168l-0.23,0.197l-0.239,0.101l-0.337,0.076l-0.324,0.045l-0.273-0.007l-0.21-0.006l-0.136-0.003l-0.138,0.05
			l-0.078,0.083l-0.017,0.127l0.046,0.086l0.121,0.088l0.196,0.069l0.122,0.056l0.022,0.054l-0.002,0.075l-0.004,0.096l-0.053,0.095
			l-0.066,0.115l-0.027,0.053l-0.253,0.513l-0.236,0.376l-0.117,0.157l-0.179,0.166l-0.215,0.123l-0.405,0.257l-0.33,0.226
			l-0.442,0.255l-0.43,0.277l-0.445,0.351l-0.331,0.237l-0.584,0.453l-0.426,0.318l-0.394,0.311l-0.243,0.229l-0.235,0.346
			l-0.234,0.357l-0.284,0.355l-0.268,0.237l-0.355,0.259l-0.402,0.203l-0.313,0.131l-0.253,0.174l-0.191,0.178l-0.164,0.082
			l-0.236,0.059l-0.448,0.084l-0.439,0.18l-0.361,0.108l-0.313,0.121l-0.288,0.121l-0.562,0.229l-0.149,0.029l-0.359-0.009
			l-0.445,0.021l-0.384,0.035l-0.3,0.088l-0.089,0.084l-0.041,0.105l-0.002,0.074l-0.04,0.084l-0.066,0.148l-0.203,0.166
			l-0.178,0.154l-0.204,0.166l-0.208,0.336L1.245,32.4l0.009,0.106l0.021,0.106l0.02,0.033l0.221,0.191l0.206,0.122l0.345,0.063
			l0.318,0.041l0.15,0.084l0.136,0.158l0.075,0.455l-0.006,0.334L2.65,34.418l-0.114,0.201l-0.169,0.142l-0.169,0.165L2.112,35.08
			l-0.005,0.263l0.005,0.524l0.007,0.404l-0.058,0.143L1.962,36.52l-0.21,0.141L1.25,36.867l-0.349,0.176l-0.184,0.236l-0.113,0.166
			l0.04,0.097l0.08,0.155l0.166,0.026l0.194-0.021l0.708-0.098l0.428,0.029l0.179,0.05l0.054,0.072l0.134,0.241l0.08,0.203
			l-0.004,0.252L2.7,38.716l0.012,0.119L2.9,39.076l0.233,0.146l0.496,0.102l0.761,0.022l0.443-0.053l0.264-0.056l0.417-0.127
			l0.194-0.021l0.18,0.003l0.346,0.018l0.48-0.002l0.375-0.078l0.264-0.067l0.293-0.163l0.168-0.068l0.125-0.035l0.249-0.008
			l0.124,0.049l0.207,0.052l0.151,0.05l0.097,0.001l0.124,0.002l0.167-0.058l0.14-0.069l0.097-0.011l0.069,0.001l0.068,0.049
			l0.152,0.015l0.139-0.022l0.295-0.21l0.069-0.035l0.139-0.034l0.125,0.002l0.166,0.038l0.082,0.049l0.109,0.085l0.065,0.169
			l0.038,0.168l0.012,0.119l0.039,0.12l0.245,0.22l0.19,0.182l0.052,0.156l-0.003,0.144l-0.059,0.214l-0.073,0.202l-0.002,0.118
			l0.038,0.181l0.147,0.217l0.237,0.188l-0.075,0.017l-0.089,0.101l-0.044,0.132l-0.003,0.131l0.003,0.015l1.181-0.154l0.718-0.082
			l0.784-0.017l0.483-0.002l0.314,0.111l0.484,0.178l0.537,0.099l0.314,0.01l0.391-0.047l0.404-0.17l0.352-0.16l0.353-0.127
			l0.754-0.279l0.782-0.32l0.625-0.273l0.483-0.094l0.377-0.125l0.234-0.137l0.196-0.068l0.34-0.035l0.183,0.021l0.092,0.057
			l0.04,0.146l0.029,0.508l0.08,0.327l0.092,0.102l0.132,0.08l0.065,0.135l0.001,0.181l0.027,0.293l0.08,0.203l0.275,0.303
			l0.263,0.271l0.302,0.156l0.365,0.111h0.209l0.223-0.068l0.378-0.262l0.285-0.249l0.208-0.125l0.415-0.12l0.479,0.012l0.524-0.029
			l0.35-0.07l0.491-0.082l0.303,0.026l0.461,0.04l0.605,0.012l0.668-0.029l0.491-0.058l0.287-0.042l0.286,0.014l0.255,0.053
			l0.114,0.117l0.062,0.062l0.055,0.149l0.118,0.112l0.226,0.296l0.166,0.404l0.257,0.268l0.099,0.162l0.161,0.27l0.385,0.293
			l0.569,0.234l1.042,0.229l0.787,0.124l0.504,0.021l0.248-0.113l0.217-0.166l0.844-0.338l1.343-0.399l1.03-0.396l0.531-0.143
			l0.281-0.031l0.284,0.051l0.284,0.05l0.438,0.021l0.253,0.051l0.161,0.215l0.161,0.215l0.319,0.267l0.442,0.185l0.315,0.051
			l0.252,0.078l0.16,0.134l0.16,0.215l0.164,0.324l0.285,0.187l0.348,0.051l0.344-0.169l0.154-0.219l0.277-0.248l0.459-0.161
			l0.438-0.087l0.91-0.093l1.1-0.041l0.85,0.043l0.375-0.059l0.469-0.195l0.498-0.277l0.723-0.09l0.658-0.116l0.346,0.022
			l0.35,0.131l0.566,0.185l0.348,0.078l0.346-0.086l0.154-0.138l0.25-0.002l0.127,0.053l0.098,0.216l0.318,0.269l0.602,0.237
			l0.6,0.185l0.6,0.156l0.316,0.268l0.066,0.217l0.07,0.516l0.035,0.217l0.062,0.135l0.221,0.08l0.283-0.03l0.814-0.09l0.721-0.198
			l1.154-0.285l1.906-0.617l1.438-0.773l0.496-0.439l0.406-0.33l0.752-0.196l1.41-0.23l1.098-0.309l0.561-0.276l0.531-0.33
			l0.777-0.849l0.871-0.822l0.5-0.249l0.723-0.168l0.691-0.06l0.689-0.195l0.219-0.138l0.062-0.19l-0.066-0.19l-0.316-0.269
			L71.791,38.387"/>
	</g>
</g>
<g id="Layer_1">
</g>
</svg>
