<?xml version="1.0" encoding="iso-8859-1"?>
<!-- Generator: Adobe Illustrator 16.0.4, SVG Export Plug-In . SVG Version: 6.00 Build 0)  -->
<!DOCTYPE svg PUBLIC "-//W3C//DTD SVG 1.1//EN" "http://www.w3.org/Graphics/SVG/1.1/DTD/svg11.dtd">
<svg version="1.1" xmlns="http://www.w3.org/2000/svg" xmlns:xlink="http://www.w3.org/1999/xlink" x="0px" y="0px" width="4.94px"
	 height="3.412px" viewBox="0 0 4.94 3.412" style="enable-background:new 0 0 4.94 3.412;" xml:space="preserve">
<g id="Layer_43">
	<g id="Layer_48">
		<path id="Thatta" style="fill:#CCCCCC;stroke:#FFFFFF;stroke-width:1.07;" d="
			M3.448,0.531L3.448,0.531l-0.66,0.083L2.321,0.553L2.087,0.63L1.73,0.625L1.49,0.623L1.249,0.778L1.028,0.69l-0.14,0.049
			L0.818,0.88l0.093,0.188l-0.05,0.176l-0.25,0.129L0.561,1.55l0.064,0.18l0.774,0.398l0.089,0.102l0.077,0.492l0.104-0.014
			l0.098-0.385l0.189-0.015l0.145,0.056l0.287,0.312l0.267,0.033L2.813,2.86l0.114,0.005l0.136-0.187l0.307-0.142l0.133-0.222
			l0.355-0.09l0.186-0.127l0.116-0.188L3.996,1.622l0.031-0.191l0.252-0.068L4.247,1.25L4.013,1.067L3.868,0.786L3.691,0.627
			L3.448,0.531"/>
	</g>
</g>
<g id="Layer_1">
</g>
</svg>
