<?xml version="1.0" encoding="iso-8859-1"?>
<!-- Generator: Adobe Illustrator 16.0.4, SVG Export Plug-In . SVG Version: 6.00 Build 0)  -->
<!DOCTYPE svg PUBLIC "-//W3C//DTD SVG 1.1//EN" "http://www.w3.org/Graphics/SVG/1.1/DTD/svg11.dtd">
<svg version="1.1" xmlns="http://www.w3.org/2000/svg" xmlns:xlink="http://www.w3.org/1999/xlink" x="0px" y="0px"
	 width="50.173px" height="54.595px" viewBox="0 0 50.173 54.595" style="enable-background:new 0 0 50.173 54.595;"
	 xml:space="preserve">
<g id="Layer_160">
	<g id="Layer_165">
		<path id="Dera_Ismail_Khan" style="fill:#CCCCCC;stroke:#FFFFFF;stroke-width:1.07;" d="M10.936,54.105
			L10.936,54.105l0.06-0.067l-0.051-0.08l0.035-0.063l0.036-0.051l0.127-0.107l0.043-0.104l0.02-0.146l0.033-0.159l0.021-0.089
			l0.082-0.116l0.171-0.163l0.099-0.15l0.048-0.086l0.273-0.328l0.088-0.184l0.058-0.146l0.073-0.029l0.132-0.016l0.102-0.037
			l0.113-0.032l0.188-0.026l0.104-0.018l0.143-0.029l0.417-0.054l0.386-0.011l0.196-0.043l0.207-0.049l0.067,0.002l0.202-0.043
			l0.173-0.035l0.146-0.01l0.268-0.017l0.183-0.056l0.143-0.127l0.03-0.104l0.007-0.089l0.104-0.147l0.137-0.067l0.134-0.082
			l0.067-0.077l0.057-0.063l-0.02-0.07l0.089-0.135l0.099-0.162l-0.012-0.104l0.028,0.003l0.22,0.002l0.162-0.106l0.154-0.086
			l0.151-0.013l0.151,0.001l0.134,0.045l0.234,0.147l0.335,0.178l0.303,0.076l0.32,0.032l0.151,0.046l0.065,0.059l0.065,0.146
			l0.05,0.074l0.083,0.043l0.103-0.057l0.053-0.072l0.085-0.027l0.034-0.042l0.085-0.015l0.151,0.018l0.15,0.06l0.217,0.147
			l0.235,0.09l0.287-0.012l0.557,0.021l0.473,0.006l0.271,0.032l0.101,0.017l0.153-0.057l0.085-0.057l0.175-0.331l0.258-0.243
			l0.308-0.126l0.255-0.099l0.253,0.004l0.287,0.003l0.32,0.004l0.286,0.047l0.067,0.015l0.05,0.016l0.135,0.046l0.083,0.073
			l0.031,0.132l0.047,0.217l0.047,0.204l0.065,0.117l0.352,0.178l0.316,0.079l0.205,0.044l0.201,0.061l0.157,0.103l0.009-0.003
			l0.168-0.102l0.118-0.134l0.074-0.127l0.064-0.188l0.082-0.366l0.035-0.208l-0.018-0.121l-0.039-0.11L26,50.061l-0.021-0.097
			l0.009-0.091l0.021-0.066l0.039-0.072l0.059-0.037l0.082-0.031l0.238-0.057l0.184-0.03l0.111-0.022l0.104-0.068l0.12-0.104
			l0.103-0.119l0.01-0.018l0.091-0.193l0.031-0.137l-0.022-0.137l0.028-0.104l0.133-0.083l0.248-0.02l0.26,0.005l0.231-0.164
			l0.055-0.186l-0.002-0.088l-0.06-0.052l-0.072-0.032l-0.156-0.064l-0.091-0.035l0.014-0.045l0.041-0.078l0.078-0.046l0.128,0.004
			l0.101,0.006l0.177-0.001l0.089-0.02l0.037-0.063l-0.012-0.089l-0.031-0.046l0.027-0.097l0.024-0.08l-0.007-0.135l-0.04-0.145
			l0.003-0.197l0.005-0.203l0.009-0.094l0.048-0.037l0.06-0.011l0.087,0.019l0.089,0.012l0.089-0.02l0.354-0.035l0.489-0.004
			l0.17-0.041l0.159-0.068l0.128-0.059l0.055-0.061l0.062-0.051l0.039-0.038l0.146-0.056l0.113-0.069l0.019-0.06l0.02-0.066
			l-0.047-0.09l-0.108-0.071l-0.104-0.022l-0.107-0.07l-0.013-0.082l0.024-0.114l0.032-0.112l0.065-0.16l0.044-0.18l0.031-0.167
			l0.067-0.229l0.079-0.174l0.109-0.149l0.074-0.126l0.011-0.068l-0.028-0.062l-0.068-0.047l-0.106-0.047l-0.104-0.021l-0.281-0.046
			L30,43.932l-0.066-0.023l-0.052-0.082l-0.067-0.079l-0.004-0.144l-0.001-0.119l-0.01-0.16l0.008-0.117l-0.023-0.077l-0.119-0.065
			l-0.08-0.041l-0.092-0.037l0.005-0.045l0.026-0.026l0.086-0.009l0.156,0.002l0.079,0.01l0.161,0.051l0.23,0.002l0.383,0.021
			l0.078-0.015l0.073-0.033l0.034-0.023l0.028-0.096l0.024-0.082l-0.008-0.16l-0.034-0.07l-0.065-0.062L30.5,42.3l-0.137-0.101
			l-0.16-0.114l-0.1-0.101l-0.071-0.166l-0.067-0.086l-0.05-0.051l-0.13-0.027l-0.115-0.019l-0.081-0.01l-0.066-0.022l-0.027-0.062
			l0.039-0.134l0.035-0.088l0.046-0.092l0.028-0.033l0.048-0.037l0.057-0.004l0.09-0.02l0.062-0.05l0.044-0.054l0.031-0.073
			l0.006-0.117l-0.041-0.086l-0.008-0.129l0.02-0.065l0.04-0.039l0.067-0.01l0.08,0.01l0.094-0.035l0.118-0.086l0.039-0.07
			l0.03-0.104l0.01-0.156L30.468,40l0.045-0.021l0.149-0.008l0.058-0.035l0.023-0.082l0.002-0.102l-0.031-0.078l-0.112-0.119
			l-0.055-0.1l-0.098-0.141l-0.013-0.112l-0.034-0.134l-0.122-0.09l-0.105-0.047l-0.102-0.093l0.011-0.132l0.026-0.089l0.104-0.167
			l0.109-0.157l0.057-0.036l0.04-0.134l-0.013-0.113l-0.069-0.079l-0.077-0.048l-0.122-0.026l-0.078-0.049l-0.021-0.027l0.017-0.053
			l0.051-0.17l0.128-0.306l0.138-0.278l0.16-0.291l0.195-0.281l0.214-0.286l0.145-0.175l0.102-0.058l0.315-0.184l0.143-0.041
			l0.135,0.014l0.453,0.099l0.25,0.031l0.064-0.033l0.03-0.072l-0.047-0.09l-0.041-0.049l-0.253-0.055l-0.093-0.027l-0.024-0.045
			l-0.026-0.093l0.035-0.246l0.077-0.292l0.064-0.279l0.101-0.184l0.105-0.135l0.048-0.069l0.197-0.131l0.207-0.104l0.108-0.056
			l0.052-0.075l0.053-0.115l0.02-0.121l0.074-0.316l0.066-0.16l0.055-0.06l0.062-0.05l0.081-0.055l0.19-0.078l0.152-0.108
			l0.092-0.06l0.067-0.104l0.09-0.266l0.042-0.142l0.055-0.06l0.064-0.033l0.091-0.02h0.137l0.149-0.002l0.154-0.021l0.095-0.065
			l0.072-0.057l0.03-0.104l0.05-0.164l0.024-0.051l0.389-0.58l0.188-0.25l0.141-0.342l0.143-0.434l0.144-0.508l0.091-0.233
			l0.092-0.342l0.041-0.175l0.052-0.26l0.062-0.217l0.1-0.125l0.14-0.133l0.178-0.083l0.441-0.172l0.188-0.065l0.07-0.05l0.01-0.067
			l0.002-0.108l-0.021-0.109l-0.064-0.276l-0.047-0.176l0.021-0.143l0.062-0.108l0.067-0.074l0.103-0.116l0.119-0.124l0.021-0.084
			l-0.067-0.101l-0.049-0.134l-0.057-0.218l0.021-0.15l0.041-0.167l0.043-0.164l0.038-0.145l0.119-0.327l-0.077-0.462l-0.068-0.321
			l-0.033-0.063l0.129-0.488l0.028-0.201l0.068-0.487l-0.094-0.384l-0.045-0.413l-0.104-0.098l-0.054-0.114l-0.069-0.112
			l-0.005-0.114l-0.001-0.058l0.115-0.074l0.133-0.045l0.27-0.005l0.217-0.033l0.165-0.132l0.148-0.103l0.093-0.272l-0.002-0.101
			l-0.002-0.042l-0.003-0.115l0.047-0.129l0.097-0.145l0.08-0.144l0.027-0.168l0.075-0.288l0.063-0.129l0.076-0.302L39.174,19
			l0.193-0.318l0.112-0.188l0.097-0.159l0.064-0.086l-0.009-0.3l-0.035-0.099l-0.07-0.113l-0.12-0.083l-0.086-0.055l-0.085-0.056
			l-0.053-0.085l-0.005-0.143l-0.003-0.114l0.158-0.36l0.06-0.302l0.079-0.145l0.078-0.215l0.03-0.129l0.033-0.029l0.063-0.087
			l0.085-0.002l0.321,0.094l0.271,0.066l0.506,0.019l0.149-0.031l0.215-0.175l0.162-0.175l0.242-0.39l0.249-0.26l0.098-0.13
			l0.132-0.146l0.095-0.245l0.004-0.009l0.046-0.086l-0.001-0.041l-0.002-0.083l-0.038-0.041l-0.051-0.082l-0.038-0.062
			l-0.062-0.071l-0.152-0.225l-0.043-0.216l-0.02-0.279l-0.007-0.248l0.109-0.499l0.066-0.188l0.095-0.146l0.13-0.157l0.117-0.147
			l0.093-0.199l0.142-0.188l0.214-0.201l0.192-0.097l0.146-0.062l0.121-0.064l0.155-0.086l0.084-0.084l0.07-0.104l0.066-0.208
			l0.067-0.229l0.092-0.188l0.094-0.167l0.095-0.136l0.203-0.18l0.25-0.201l0.44-0.401l1.146-0.921l0.184-0.168l0.18-0.127
			l0.201-0.21l0.071-0.084l0.071-0.095l0.06-0.053l0.084-0.033l0.109-0.022l0.171,0.018l0.136,0.039l0.171,0.018l0.392,0.024
			l0.172,0.007l0.231,0.027l0.062,0.009l0.269-0.015l0.145-0.085l0.133-0.054l0.084-0.074l0.059-0.083l0.047-0.104l-0.008-0.279
			l-0.053-0.154l-0.051-0.082l-0.124-0.112l-0.175-0.152L48.57,6.307l-0.054-0.165l-0.005-0.217l0.115-0.26l0.046-0.136l0.096-0.063
			l0.099-0.002l0.172,0.039l0.134,0.008l0.098-0.075l-0.04-0.133l-0.197-0.09l-0.149-0.101l-0.062-0.03L48.821,5.02l0.033-0.135
			l0.031-0.197l0.142-0.375l0.104-0.239l0.062-0.322L49.2,3.665l0.003-0.023l0.013-0.076l0.146-0.43l0.094-0.345l0.068-0.398
			l0.055-0.302l0.014-0.064l-0.038-0.043h-0.062l-0.128-0.001l-0.215-0.024l-0.165-0.077l-0.063-0.161l-0.35-0.857L48.44,0.621
			l-0.074-0.064l-0.229-0.019l-0.209,0.03l-0.303,0.014l-0.286,0.046l-0.038,0.064L47.3,0.773l-0.001,0.049l0.094,0.129
			l-0.002,0.145l-0.002,0.177l-0.135,0.128L47.14,1.416l-0.17-0.033L46.78,1.382L46.572,1.38L46.42,1.411l-0.077,0.063l-0.076,0.129
			l-0.041,0.176l-0.08,0.37l-0.04,0.193l-0.15,0.031l-0.133-0.001l-0.229-0.066l-0.169-0.114l-0.227-0.146L45.03,1.819l-0.207-0.162
			L44.596,1.51l-0.03-0.037l-0.055-0.066l-0.525,0.466l-0.326,0.414l-0.28,0.352l-0.161,0.268l-0.35,0.456l-0.187,0.248
			l-0.123,0.136l-0.063,0.071l-0.238,0.086l-0.146,0.263l-0.34-0.188h-0.001l-0.485-0.271l0.002-0.021L41.188,3.61l-0.012,0.001
			L41.17,3.596l-0.025-0.02l-0.254,0.007l-0.12,0.092L40.746,3.7l-0.027,0.035l-0.032,0.023l-0.027,0.025l-0.024,0.036l-0.034,0.034
			l-0.039,0.021l-0.041,0.021l-0.043,0.03l-0.038,0.003l-0.023,0.036l-0.015,0.037l-0.017,0.053l-0.028,0.045l-0.132,0.213
			l-0.05,0.066L40.153,4.43l-0.005,0.04l-0.041,0.046l-0.05,0.02L40.03,4.544l-0.012,0.003l-0.03,0.007l-0.081,0.063l-0.006,0.01
			l-0.008,0.08L39.867,4.73l-0.065,0.026l-0.055,0.02L39.708,4.8l-0.044,0.036l-0.051,0.04l-0.034,0.008l-0.036,0.012l-0.12,0.048
			l-0.046,0.012L39.326,4.98L39.282,5L39.22,5.042l-0.081,0.053L39.13,5.103l-0.025,0.026l-0.035,0.083l-0.043,0.097l-0.012,0.044
			L38.977,5.42l-0.035,0.023l-0.08,0.025L38.734,5.54l-0.009,0.027l-0.02,0.032l-0.032,0.039l-0.095,0.048l-0.018,0.007
			l-0.064,0.051l-0.021,0.052l-0.033,0.027L38.37,5.914l-0.026,0.035l-0.041,0.017l-0.065,0.02l-0.056,0.011l-0.068,0.056
			l-0.067,0.052l-0.08-0.021l-0.009,0.001l-0.062,0.026L37.88,6.143l-0.04,0.053l-0.004,0.001l-0.037,0.015l-0.117,0.012
			l-0.024,0.005l0,0l-0.078,0.02L37.576,6.25l-0.018,0.005l-0.062,0.057l-0.086,0.116L37.348,6.47l0,0l-0.021,0.024l-0.023,0.005
			l-0.025,0.006l-0.003,0.001L37.19,6.491L37.1,6.493l-0.024,0.009l-0.07,0.025l-0.019,0.011l-0.073,0.041l-0.038,0.002L36.84,6.588
			l-0.092-0.001l-0.021,0.002l-0.13,0.134l-0.01,0.003L36.53,6.765L36.502,6.75l-0.055-0.018l-0.113,0.031l-0.045,0.008
			l-0.038,0.008l-0.074-0.001l-0.055-0.002l-0.076,0.006l-0.107,0.036l-0.066,0.047l-0.108,0.069l-0.104,0.101l-0.146,0.018
			l-0.049,0.016L35.312,7.18L35.26,7.182l-0.049-0.013l-0.038-0.012l-0.074-0.028l-0.037-0.015L35.01,7.08l-0.026-0.028
			l-0.035-0.034l-0.529,0.22l-0.041,0.017l-0.045,0.008l-0.047,0.021l-0.005,0.004L34.26,7.31l-0.03,0.033l0,0l-0.014,0.021
			l-0.021,0.069l-0.022,0.041l-0.06,0.044l-0.109-0.006l-0.078-0.019l-0.018-0.001l-0.037,0.004l-0.019,0.008L33.788,7.54h-0.001
			l-0.07,0.056l-0.115,0.089l-0.041,0.042l-0.073,0.076l-0.04,0.031l-0.043,0.035l-0.069,0.062l-0.072,0.045l-0.096-0.009
			l-0.102,0.031L32.99,8.019h-0.001l-0.004-0.001l-0.062-0.013l-0.147,0.003l-0.104,0.017l-0.077,0.041L32.563,8.09l-0.002,0.001
			l-0.034,0.016l-0.093,0.036l-0.089,0.021L32.27,8.211l-0.015,0.016l-0.057,0.061l-0.081,0.028L32.08,8.322l-0.016-0.001
			l-0.057,0.017l-0.137-0.019l-0.103,0.046l-0.125,0.02l-0.05,0.03l-0.015,0.016l-0.03,0.033l-0.043,0.004l-0.03,0.018l-0.094-0.004
			l-0.117-0.007l-0.172,0.054l-0.159,0.035l-0.1,0.006l-0.139,0.005L30.576,8.58l-0.048,0.03l0,0l-0.011,0.019l-0.056,0.047
			l-0.049,0.03l-0.036,0.009l-0.008,0.001l-0.091,0.021l0,0l-0.023,0.015L30.208,8.75l-0.062,0.008L30.05,8.799l-0.006,0.004
			L30.017,8.83l-0.096,0.054l-0.024,0.003l-0.022,0.004l-0.008,0.001l-0.093,0.024l-0.031,0.032l-0.039,0.077l-0.089,0.046
			l-0.04,0.005l-0.01,0.002l-0.056,0.013h-0.001l-0.097,0.023L29.302,9.13L29.28,9.132L29.194,9.15L29.1,9.197l-0.068,0.044
			l-0.064,0.038l-0.249-0.008l-0.079,0.021L28.59,9.313l-0.045,0.029l0,0l-0.024,0.035l-0.088,0.125l-0.038,0.021l-0.01,0.008
			l-0.062,0.052l-0.035,0.014l-0.037,0.009L28.205,9.64l-0.002,0.04l-0.018,0.039l-0.038,0.019l-0.007,0.018l-0.106,0.042
			l-0.047,0.098l0.009,0.033L27.98,9.964l-0.041,0.027l-0.009,0.003l-0.015,0.02l-0.122,0.024l0,0l-0.052,0.024l-0.022,0.007
			l-0.048,0.025l-0.165,0.114l-0.096,0.066l-0.178,0.062l-0.026,0.001l-0.052,0.016l-0.061,0.016l-0.048,0.006l-0.187-0.009
			l-0.046-0.019l-0.095-0.032l-0.042-0.014l-0.163-0.03l-0.175-0.04l-0.073-0.01l-0.062,0.003l-0.057-0.008l0.001-0.001l-0.064-0.02
			h-0.001l-0.018-0.003l-0.066-0.007l-0.028-0.011l-0.081-0.016l-0.174-0.061l-0.188,0.03l-0.119,0.06l-0.146,0.093l-0.023,0.124
			L25.125,10.5l-0.131,0.12l-0.06,0.065l-0.041,0.021l-0.006,0.005l-0.08,0.045l-0.086,0.077l-0.046,0.066l-0.091,0.041l0,0
			l-0.06,0.026l-0.051,0.024l-0.059,0.028l-0.054,0.035L24.3,11.084l-0.052,0.024l-0.104,0.038L23.397,11.3l-0.057,0.023
			l-0.048,0.014l-0.082,0.037l-0.062,0.032l-0.044,0.03l-0.032,0.048l-0.003,0.002l-0.03,0.043l-0.149,0.107l-0.089,0.067
			l-0.078,0.064l-0.062,0.042l-0.011-0.001l-0.017,0.011l-0.076-0.025l-0.687-0.23h-0.001l-0.164-0.055l-0.131-0.015l-0.124-0.006
			l-0.012-0.01l0,0h-0.004l-0.06-0.034l-0.021-0.05l-0.022-0.069h-0.001l-0.108,0.064l-0.084,0.064l-0.238,0.149l-0.133,0.092
			l-0.133,0.059l-0.098,0.038l-0.066,0.095l-0.062,0.067l-0.112,0.101l-0.132,0.082l-0.108,0.026L19.934,12.2l-0.16,0.055
			l-0.119,0.049l-0.077,0.03l-0.051,0.018l-0.261,0.097l-0.127,0.042l-0.07,0.032l-0.317,0.156l-0.234,0.133l-0.229,0.14
			l-0.127,0.115l-0.21,0.14l-0.064,0.038l-0.085,0.156l-0.026,0.089l-0.079,0.153l-0.146,0.134l-0.127,0.109l-0.108,0.01
			l-0.045,0.195l-0.121,0.217l-0.08,0.177l0.012,0.037l0.019,0.021l-0.003,0.038l-0.01,0.129l-0.005,0.133l-0.023,0.542v0.001
			l0.002,0.03l0.043,0.207l0.047,0.275l-0.009,0.208l0.001,0.072l0.004,0.004l-0.002,0.056l-0.028,0.7l-0.026,0.12l-0.037,0.077
			l-0.896,0.985l-0.259,0.221l-0.058,0.06l-0.177,0.183l-0.076,0.039h-0.001l-0.13,0.066l-0.087,0.043l-0.133-0.04l-0.102-0.065
			l-0.057-0.034l-0.025-0.025l-0.009-0.008l-0.021-0.003l-0.017-0.003l-0.002-0.001L14.86,18.54l-0.199-0.042l-0.073-0.027
			l-0.103-0.021l-0.09-0.02l-0.128,0.011h-0.004l-0.087,0.04l-0.062-0.021l-0.288-0.106l-0.096,0.001l-0.093,0.03l-0.109,0.109
			l-0.131,0.096l-0.021,0.02l-0.073,0.057l-0.119,0.084h-0.006l-0.072,0.054l-0.118-0.118l-0.178,0.015l-0.077,0.041l-0.199,0.012
			l-0.074-0.077l-0.006-0.004l-0.009-0.005l-0.126-0.006l-0.112,0.061l-0.271,0.114l-0.104,0.043l-0.131,0.018l-0.057,0.06
			l-0.091,0.163l-0.43,0.058l-0.096-0.057l0,0l-0.023-0.006l-0.078-0.028l-0.087-0.026l-0.071-0.014l-0.08,0.003l-0.047,0.055
			l-0.116,0.194l-0.127,0.101l-0.113,0.031l-0.201,0.017l-0.11,0.059l-0.126,0.104l-0.118,0.026l-0.082-0.034l-0.074-0.04
			l-0.055-0.051l-0.056,0.022l-0.11,0.033l-0.037,0.014L9.132,19.56l-0.195-0.051l-0.064-0.021l-0.154-0.017l-0.06,0.028
			l-0.155,0.02L8.437,19.53l-0.114-0.003L8.227,19.46l-0.085-0.001L8.061,19.44l-0.038-0.084l-0.043-0.041l-0.087-0.032
			l-0.248-0.065l-0.176-0.052L7.34,19.143l-0.184-0.009l-0.181,0.011l-0.173,0.011l-0.21,0.027L6.25,19.269l-0.053-0.051
			l-0.049,0.003l-0.263,0.136l-0.135-0.046l-0.115-0.025l-0.038-0.002l-0.097-0.017l-0.179-0.002l-0.23-0.047l-0.248-0.069
			L4.7,19.144L4.522,19.13l-0.137-0.048L4.2,18.976l-0.067-0.122l-0.132-0.152L3.73,18.469l-0.071-0.017l-0.033,0.013L3.53,18.489
			l-0.099,0.086L3.353,18.71l-0.023,0.118l-0.02,0.145l0.029,0.113l0.01,0.015l0.014,0.044l0.059,0.094l0.047,0.085l0.068,0.149
			l0.043,0.058l0.073,0.076l0.036,0.043l0.055,0.041l0.122,0.074l0.087,0.055l-0.008,0.026l0.092,0.059l-0.287,0.283L3.7,20.192
			l-0.012,0.001L3.643,20.23l-0.165,0.13L3.38,20.439l-0.048,0.046l0,0l-0.125,0.134l-0.103,0.139l-0.11,0.185l-0.08,0.194
			l-0.031,0.028l-0.018,0.036l-0.15,0.157l-0.112,0.08l-0.088,0.094l-0.06,0.063l-0.157,0.102l-0.382,0.228H1.915l-0.771,0.458
			l-0.162,0.082l-0.008,0.003l-0.02,0.246l0.077,0.088l0.092,0.096l0.06,0.076l-0.058,0.074l-0.103,0.077l-0.116,0.081l-0.088,0.093
			l0.07,0.048l0.117,0.072l0.093,0.048l0.105,0.073l0.048,0.16l0.019,0.107l0.014,0.124l0.021,0.177l0.054,0.163l0.08,0.227
			l0.068,0.306l0.043,0.184l0.065,0.249l0.097,0.401l0.055,0.26l0.059,0.284l0.055,0.217l0.034,0.129l0.038,0.363l-0.001,0.212
			l0.105,0.388l0.095,0.294l0.043,0.149l0.062,0.257l0.059,0.281l0.043,0.191l0.082,0.25l0.097,0.208l-0.012,0.115l-0.048,0.141
			l-0.067,0.21l-0.076,0.256l-0.071,0.178l-0.054,0.25l-0.026,0.156l0.035,0.183l0.043,0.198L2.272,30.9l0.008,0.105l0.027,0.225
			l0.013,0.185l0.038,0.235l0.034,0.184l0.021,0.145l0.012,0.174l0.005,0.139L2.42,32.459L2.344,32.75l-0.043,0.089L2.25,32.916
			l-0.103,0.121l-0.166,0.082l-0.071,0.1l-0.005,0.084l0.193,0.051l0.162,0.054l0.117,0.034l0.056,0.216l0.062,0.194l0.064,0.104
			l0.146,0.174l0.143,0.168l0.097,0.091l0.063,0.06l0.135,0.153l0.146,0.177l0.094,0.103l0.132,0.15l0.07,0.084l0.122,0.134
			l0.049-0.011l0.023,0.016l0.068,0.098l0.094,0.027l0.076-0.078l0.086,0.03l0.104,0.134l0.161,0.164l0.149,0.158l0.207,0.136
			l0.148,0.068l0.036,0.087l-0.021,0.158l-0.031,0.191l-0.046,0.32l-0.05,0.212l-0.029,0.101L4.71,37.189l0.01,0.164l0.01,0.065
			l0.015,0.077l0.05,0.137l0.071,0.174l0.082,0.181l0.087,0.188l0.145,0.311l0.082,0.236l0.119,0.217l0.139,0.221l0.063,0.165
			l0.047,0.198l0.094,0.123l0.11,0.188l0.149,0.177l0.123,0.184l0.093,0.266l0.036,0.104l0.042,0.115l0.049,0.129l0.091,0.269
			l0.027,0.194l0.045,0.242l0.114,0.205l0.12,0.204l0.041,0.086L6.761,42.12l0.025,0.178l0.108,0.224l0.108,0.168l0.056,0.127
			l0.093,0.134l0.108,0.062l0.233,0.069l0.141,0.093l0.053,0.115l-0.043,0.1l-0.077,0.108l-0.022,0.032L7.47,43.654l0.01,0.128
			l-0.066,0.104L7.201,44.13l-0.061,0.058l-0.072,0.138l0.147,0.142l0.086,0.045l0.078,0.055l0.118,0.09l0.118,0.093l0.049,0.181
			l-0.012,0.08l-0.004,0.082l0.008,0.17l0.017,0.118l0.086,0.25l0.124,0.327l0.053,0.175v0.341l-0.048,0.221l0.067,0.242
			l0.122,0.248l0.091,0.196l0.099,0.21l0.024,0.073l0.041,0.229l0.021,0.097l0.039,0.118l0.039,0.115l0.062,0.243l0.084,0.255
			l0.007,0.137l-0.003,0.269l0.007,0.29l0.044,0.309l0.066,0.238l0.047,0.073l0.213,0.368l0.047,0.203l0.021,0.14l0.064,0.304
			l0.103,0.311l0.15,0.369l0.082,0.23l0.045,0.163l0.079,0.282l0.083,0.292l0.036,0.12l0.113,0.343l0.071,0.258l0.031,0.076
			l0.125,0.092l0.148,0.062l0.123,0.057l0.126,0.098l0.128,0.07l0.078,0.043l0.096,0.064l0.112,0.074L10.936,54.105"/>
	</g>
</g>
<g id="Layer_1">
</g>
</svg>
