<?xml version="1.0" encoding="iso-8859-1"?>
<!-- Generator: Adobe Illustrator 16.0.4, SVG Export Plug-In . SVG Version: 6.00 Build 0)  -->
<!DOCTYPE svg PUBLIC "-//W3C//DTD SVG 1.1//EN" "http://www.w3.org/Graphics/SVG/1.1/DTD/svg11.dtd">
<svg version="1.1" xmlns="http://www.w3.org/2000/svg" xmlns:xlink="http://www.w3.org/1999/xlink" x="0px" y="0px"
	 width="25.998px" height="14.518px" viewBox="0 0 25.998 14.518" style="enable-background:new 0 0 25.998 14.518;"
	 xml:space="preserve">
<g id="Layer_2">
	<g id="Layer_7">
		<path id="Ziarat" style="fill:#CCCCCC;stroke:#FFFFFF;stroke-width:1.07;" d="
			M4.333,11.579L4.333,11.579l0.23-0.102l0.213-0.103l0.225-0.07l0.131-0.024l0.229,0.002l0.195,0.045l0.135,0.037l0.138,0.108
			l0.223,0.129l0.223,0.106l0.174,0.099l0.26,0.138l0.279,0.041l0.4,0.049l0.398,0.018l0.423,0.016l0.241,0.002l0.375,0.062
			l0.379,0.111l0.161,0.078l0.149,0.1l0.138,0.109l0.098,0.027h0.313l0.409-0.015l0.36-0.044l0.095-0.035l0.176-0.09l0.105-0.088
			l0.07-0.045l0.264-0.039l0.205,0.002l0.387,0.029l0.364,0.039l0.556,0.043l0.219,0.034l0.171,0.066l0.183,0.047l0.307,0.125
			l0.174,0.118l0.067,0.146l0.056,0.175l0.041,0.094l0.101,0.07l0.379,0.133l0.32,0.146l0.504,0.19l0.453,0.164l0.364,0.104
			l0.194,0.046l0.146,0.006l0.188-0.079l0.293-0.209l0.14-0.109l0.283-0.155l0.378-0.159l0.499-0.184l0.452-0.121l0.24-0.028
			l0.265-0.009l0.254,0.021l0.413,0.061l0.23,0.023l0.18,0.004l0.228-0.061l0.45-0.191l0.413-0.213l0.366-0.138l0.285-0.135
			l0.522-0.185l0.248-0.104l0.283-0.155l0.204-0.2l0.138-0.151l0.149-0.183l0.123-0.213l0.145-0.318l0.053-0.157l-0.01-0.24
			l-0.064-0.124l-0.101-0.068l-0.208-0.088l-0.209-0.088l-0.236-0.181l-0.041-0.113l-0.006-0.094l0.057-0.085l0.05-0.082
			l0.053-0.089l0.175-0.424l0.086-0.242l-0.005-0.115l-0.069-0.186l-0.041-0.104L23.58,8.164L23.578,8.07l0.039-0.18l0.1-0.233
			l0.08-0.348l0.086-0.504L24,6.405l0.123-0.202l0.14-0.14l0.308-0.146l0.27-0.208l0.277-0.281l0.264-0.322l0.078-0.17l-0.004-0.063
			V4.842l-0.039-0.051L25.33,4.762l-0.15-0.131l-0.064-0.139l-0.002-0.003l0.008-0.104l0.08-0.369l-0.02-0.188l-0.039-0.062
			l-0.086-0.039l-0.355-0.145l-0.42-0.206l-0.386-0.238l-0.312-0.209l-0.399-0.29L22.93,2.355l-0.276-0.242l-0.126-0.101
			L21.86,0.807l-0.041-0.063l-1.464,0.103l-0.312,0.042l-0.348,0.064l-0.156,0.005l-0.354-0.051l-0.509-0.025l-0.482,0.027
			L17.81,0.953l-0.29,0.02l-0.35,0.043l-0.344,0.126l-0.273,0.093l-0.264,0.071l-0.201,0.101l-0.053,0.046L15.98,1.57l-0.018,0.168
			l-0.025,0.21l-0.062,0.243l-0.041,0.158l-0.109,0.254l-0.128,0.12l-0.104,0.076L15.315,2.91l-0.284,0.125l-0.047,0.043
			l-0.062,0.19L14.873,3.52l-0.055,0.138l-0.027,0.199l-0.033,0.054l-0.069,0.054l-0.085,0.003l-0.208-0.065l-0.22-0.045
			l-0.303-0.042l-0.354-0.051l-0.219-0.034l-0.1-0.07l-0.054-0.103l-0.029-0.114L13.112,3.35l-0.027-0.083l-0.003-0.073
			l-0.051-0.062l-0.272-0.126l-0.225-0.16l-0.14-0.141l-0.189-0.171l-0.14-0.152l-0.203-0.463l-0.19-0.453l-0.183-0.287l-0.1-0.069
			l-0.307-0.094l-0.134-0.037l-0.33-0.126l-0.185-0.077l-0.198-0.098l-0.199-0.119L9.805,0.536L9.406,0.54L9.2,0.548L8.96,0.609
			L8.474,0.804L7.965,1.052L7.521,1.35L7.146,1.614L6.75,1.91L6.342,2.249l-0.14,0.109L6.096,2.383L6.009,2.354l-0.05-0.02
			l-0.06,0.002L5.596,2.546l-0.342,0.18L4.749,3.038L4.478,3.173L4.255,3.262l-0.13,0.057L4.008,3.397l-0.114,0.13L3.791,3.625
			l-0.077,0.17L3.648,3.934L3.62,4.081L3.578,4.197L3.572,4.323L3.517,4.429l-0.16,0.194L3.17,4.776L2.812,5.092L2.579,5.258
			L2.252,5.521L2.044,5.696L2,5.802l0.006,0.125L2.048,6.04l0.09,0.102l0.039,0.071l0.016,0.062L2.148,6.36L2.069,6.468L1.921,6.63
			L1.843,6.758L1.802,6.906L1.811,6.98l0.012,0.103L1.769,7.21L1.575,7.426L1.414,7.599L1.035,8.072L0.818,8.33L0.669,8.504
			L0.604,8.583l-0.03,0.126L0.555,8.814L0.537,8.93l0.012,0.24l0.057,0.154L0.66,9.447l0.02,0.157l0.009,0.188l0.007,0.146
			l0.021,0.178l0.092,0.164l0.116,0.151l0.214,0.19l0.139,0.119l0.162,0.109l0.188,0.129l0.197,0.086l0.125,0.09l0.066,0.123
			l0.054,0.113l0.125,0.079l0.271,0.125l0.394,0.153l0.331,0.092l0.233,0.096l0.088,0.07l0.238-0.129l0.246-0.146l0.212-0.103
			L4.333,11.579"/>
	</g>
</g>
<g id="Layer_1">
</g>
</svg>
