<?xml version="1.0" encoding="iso-8859-1"?>
<!-- Generator: Adobe Illustrator 16.0.4, SVG Export Plug-In . SVG Version: 6.00 Build 0)  -->
<!DOCTYPE svg PUBLIC "-//W3C//DTD SVG 1.1//EN" "http://www.w3.org/Graphics/SVG/1.1/DTD/svg11.dtd">
<svg version="1.1" xmlns="http://www.w3.org/2000/svg" xmlns:xlink="http://www.w3.org/1999/xlink" x="0px" y="0px"
	 width="59.256px" height="63.887px" viewBox="0 0 59.256 63.887" style="enable-background:new 0 0 59.256 63.887;"
	 xml:space="preserve">
<g id="Layer_63">
	<g id="Layer_68">
		<path id="Rajanpur" style="fill:#CCCCCC;stroke:#FFFFFF;stroke-width:1.07;" d="
			M58.741,10.513L58.741,10.513l-0.146-0.344l-0.035-0.115l-0.032-0.099L58.464,9.81l-0.076-0.163l-0.055-0.118l-0.05-0.09
			l-0.028-0.083l-0.05-0.117L58.1,9.078l-0.063-0.12l-0.17-0.312l-0.072-0.117l-0.02-0.077l0.004-0.075l0.02-0.082l0.065-0.127
			l0.062-0.101l0.03-0.099L57.96,7.88l-0.032-0.057l-0.042-0.064l-0.05-0.035l-0.054,0.008l-0.053,0.011l-0.054-0.005l-0.049-0.02
			l-0.022-0.035l-0.014-0.062l-0.04-0.09l-0.029-0.024l-0.069-0.035L57.387,7.46l-0.058-0.025L57.288,7.4l-0.031-0.048l-0.025-0.055
			l-0.006-0.076l0.021-0.166l0.043-0.168l0.039-0.162l0.072-0.131l0.057-0.119l0.034-0.209l-0.017-0.161l-0.015-0.187l-0.043-0.136
			l-0.042-0.078l-0.095-0.129l-0.117-0.123l-0.153-0.124l-0.089-0.064L56.839,5.22l-0.095-0.076l-0.111-0.059l-0.081-0.033
			l-0.093-0.045L56.337,4.91l-0.048-0.03l-0.072-0.043l-0.215-0.049l-0.316-0.055l-0.218-0.001l-0.173-0.009l-0.156,0.012
			L54.98,4.732l-0.146,0.026l-0.125,0.029l-0.115,0.038l-0.062,0.001l-0.067-0.014l-0.096-0.016L54.222,4.78l-0.09,0.001L54.027,4.8
			l-0.086,0.035l-0.113,0.071l-0.12,0.127l-0.12,0.147l-0.087,0.121L53.43,5.365l-0.088,0.052l-0.163,0.09l-0.077,0.055
			l-0.073,0.085l-0.033,0.067l-0.033,0.072L52.92,5.853l-0.11,0.135l-0.038,0.057l-0.017,0.059l-0.008,0.07l-0.015,0.131
			L52.72,6.415l-0.013,0.238l-0.018,0.268l-0.01,0.158l0.016,0.166l0.006,0.159l-0.019,0.091L52.669,7.55l-0.056,0.189l-0.037,0.109
			l-0.081,0.174l-0.056,0.142l-0.08,0.159l-0.062,0.141l-0.039,0.098l-0.071,0.152l-0.082,0.135l-0.091,0.104L51.93,9.058
			l-0.086,0.121l-0.04,0.057L51.673,9.38l-0.117,0.166l-0.05,0.088L51.438,9.79l-0.032,0.104l-0.039,0.091l-0.052,0.093
			l-0.102,0.129l-0.104,0.137l-0.098,0.101l-0.134,0.104l-0.116,0.118l-0.093,0.078l-0.146,0.104l-0.101,0.089l-0.131,0.081
			l-0.24,0.13l-0.268,0.123l-0.237,0.11l-0.168,0.115l-0.102,0.072l-0.125,0.078l-0.109,0.066l-0.182,0.106l-0.318,0.168
			l-0.305,0.135l-0.164,0.052l-0.213,0.039l-0.039,0.004l-0.123-0.028l-0.106-0.052l-0.067-0.029l-0.061-0.021l-0.075,0.004
			l-0.083,0.037l-0.184,0.092l-0.122,0.082l-0.093,0.086l-0.101,0.057l-0.159,0.037l-0.163,0.007l-0.065-0.011l-0.035-0.032
			l-0.018-0.027l-0.017-0.051l-0.016-0.11l0.033-0.144l0.063-0.136l0.074-0.146l0.049-0.15l-0.001-0.099l-0.021-0.036l-0.043-0.037
			l-0.109-0.029l-0.106-0.039l-0.063-0.035l-0.044-0.045l-0.029-0.08l-0.003-0.085l-0.018-0.062l-0.026-0.047l-0.061-0.052
			L45.957,11l-0.095-0.034l-0.127-0.056l-0.087-0.042l-0.123-0.084l-0.086-0.075l-0.105-0.085l-0.047-0.035l-0.095-0.109
			l-0.076-0.104l-0.023-0.065l0.01-0.057l0.017-0.052l0.028-0.065l0.029-0.078l0.012-0.064l0.021-0.125l-0.002-0.105L45.19,9.63
			L45.13,9.478l-0.053-0.114l-0.074-0.104l-0.104-0.133l-0.189-0.23l-0.188-0.209l-0.155-0.174L44.201,8.38L44.07,8.25l-0.129-0.106
			l-0.261-0.17l-0.23-0.14l-0.145-0.065l-0.129-0.037L42.954,7.71l-0.187-0.021l-0.202-0.004l-0.159-0.002L42.25,7.687l-0.145,0.006
			L41.666,7.69l-0.489,0.014l-0.295-0.016h-0.275l-0.302,0.011l-0.228,0.005l-0.186,0.002l-0.19-0.002l-0.207-0.018l-0.339-0.021
			l-0.304-0.041l-0.347-0.037l-0.338-0.039l-0.355-0.053l-0.273-0.043l-0.24-0.048l-0.287-0.04l-0.198-0.041l-0.208-0.048
			l-0.27-0.062l-0.248-0.062l-0.229-0.078l-0.16-0.058l-0.233-0.109l-0.218-0.123l-0.305-0.193l-0.156-0.117l-0.119-0.078
			l-0.223-0.163l-0.131-0.099l-0.207-0.137l-0.519-0.441l-0.096-0.334l-0.266-0.416l-0.833-0.49L31.299,3.94l-1.182-0.26
			l-0.219-0.037H29.68l-0.655-0.071l-0.832-0.224l-0.7-0.187L26.44,2.864l-0.7-0.186l-0.804-0.283l-0.683-0.682l-0.586-0.865
			l-0.9,0.943l-0.837,0.61L21.02,4.224L20.935,4.53l-0.388,0.727l-0.346,0.612l-0.215,0.383l-0.263,0.192l-0.305,0.078l-0.262,0.191
			l-0.349,0.231l-0.304,0.269l-0.302,0.422l-0.26,0.346L17.64,8.327l-0.436,0.193l-0.743,0.08l-0.306,0.08l-0.261,0.269
			l-0.565,0.155l-0.438,0.119l-0.479,0.231l-0.372,0.269l-0.235,0.192l-0.216,0.271l-0.26,0.223l-0.125,0.543l-0.3,0.65
			l-0.307,0.039l-0.349,0.08L11.989,11.8l-0.215,0.383l0.047,0.305l0.311,0.418l0.136,0.494l-0.183,0.723l-0.051,0.624l0.005,0.522
			l0.009,0.86l-0.146,0.841l-0.112,0.287l-0.229,0.322l-0.268,0.288l-0.229,0.222l-0.202,0.348l-0.156,0.348l-0.093,0.355
			l-0.017,0.319l-0.013,0.624l-0.015,0.473l0.005,0.405l0.079,0.234l0.099,0.135l0.193,0.083l0.212-0.02l0.308-0.121l0.21-0.17
			l0.269-0.205l0.21-0.202l0.211-0.12l0.174-0.001l0.213,0.03l0.193,0.117l0.329,0.232l0.564,0.52l0.473,0.551l0.138,0.219
			l0.163,0.208l0.326,0.682l0.062,0.287l-0.113,0.254l-0.248,0.271l-0.382,0.308l-0.229,0.237l-0.153,0.188l-0.132,0.254l0.04,0.202
			l0.021,0.136l0.154,0.1l0.386-0.003l0.366-0.003l0.213,0.066l0.174,0.082l0.234,0.336l0.215,0.252l0.022,0.42l-0.017,0.406
			l0.003,0.252l0.078,0.168l0.098,0.102l0.154,0.049l0.192-0.018l0.152-0.068l0.097-0.085l0.151-0.153l0.325-0.221l0.345-0.256
			l0.324-0.272l0.325-0.288l0.384-0.205l0.27-0.121l0.249-0.051l0.231,0.031l0.115,0.033l0.079,0.186l0.021,0.37l-0.074,0.288
			l-0.268,0.372l-0.374,0.673l-0.188,0.322l-0.132,0.338l-0.016,0.49l-0.053,0.557l0.041,0.337l0.118,0.304l0.078,0.168l0.098,0.117
			l0.078,0.135l-0.019,0.22l-0.073,0.271l-0.209,0.321l-0.229,0.373l-0.209,0.306l-0.188,0.32l-0.246,0.457l-0.305,0.391
			l-0.171,0.254l-0.072,0.354L16.69,34.08l-0.074,0.235l-0.075,0.152l-0.172,0.137l-0.363,0.154l-0.326,0.172l-0.439,0.104
			l-0.421,0.138l-0.364,0.154l-0.229,0.137l-0.15,0.187l-0.171,0.222l-0.15,0.254l-0.209,0.306l-0.246,0.307l-0.19,0.152
			l-0.247,0.256l-0.171,0.203l-0.193,0.367l-0.165,0.209l-0.267,0.256l-0.189,0.254l-0.131,0.338l-0.092,0.32l-0.094,0.321
			l-0.215,0.438l-0.284,0.254l-0.363,0.055l-0.27,0.002l-0.153,0.034L10.141,40.3l-0.11,0.289l-0.151,0.287L9.71,41.163
			l-0.247,0.205l-0.248,0.154l-0.286,0.17l-0.361,0.189l-0.286,0.137l-0.306,0.205l-0.303,0.271L7.54,42.699l-0.036,0.202
			l0.003,0.186l-0.033,0.522l-0.016,0.237L7.27,44.151l0.003,0.201l0.002,0.136l0.06,0.168l0.077,0.116l0.174,0.066l0.23,0.031
			l0.325,0.048l0.327,0.065l0.25,0.148l0.155,0.101l0.155,0.2l0.272,0.435l0.137,0.319l0.101,0.269l0.003,0.32l-0.092,0.372
			L9.34,47.62l-0.356,0.594l-0.435,0.627l-0.414,0.627l-0.339,0.441l-0.358,0.492l-0.112,0.177l-0.628,1.177l-0.283,0.389
			l-0.469,0.765l-0.489,0.713l-0.412,0.711l-0.356,0.576l-0.396,0.308l-0.552,0.157l-0.478,0.156l-0.589,0.31l-0.609,0.176
			l-0.568,0.291l-0.468,0.236L0.69,56.687l-0.113,0.221l-0.026,0.252l0.259,0.432l0.217,0.42l0.234,0.453l0.082,0.453l0.177,0.319
			l0.14,0.403l0.22,0.722l0.438,0.864l0.577,0.003l0.682-0.034l0.811-0.072l0.123-0.044l0.081-0.09l0.112-0.151l0.152-0.27
			l0.093-0.214l0.07-0.144l0.093-0.1l0.102-0.055l0.153-0.062l0.396-0.106l0.428-0.062l0.243-0.053l0.274-0.089L6.96,59.64
			l0.386-0.016l0.812-0.033l0.314,0.002l0.387,0.02l0.71,0.119l1.095,0.205l0.578,0.047l0.71,0.111l0.802,0.137l0.396,0.083
			l0.061,0.054v0.055l-0.041,0.08l-0.185,0.144l-0.215,0.214l-0.225,0.232l-0.185,0.195l-0.03,0.09L12.33,61.44l0.082,0.054
			l0.263,0.108l0.273,0.082l0.304,0.101l0.497,0.101l0.334,0.057l0.406,0.027l0.467-0.015l0.306-0.062l0.254-0.025l0.232,0.01
			l0.312,0.067l0.243,0.063l0.456,0.057l0.192,0.046l0.415,0.11l0.203,0.082l0.051,0.024l0.119,0.113l0.29,0.25l0.27,0.217
			l0.12,0.09l1.366,0.146l0.642,0.13l0.09,0.062l0.119,0.014l0.083,0.002l0.1-0.018l0.149-0.059l0.151-0.083l0.171-0.116l0.16-0.133
			l0.119-0.139l0.082-0.111l0.039-0.066l0.022-0.072l0.023-0.106l0.028-0.103l0.037-0.051l0.082-0.053l0.106-0.068l0.095-0.035
			l0.139-0.051l0.221,0.002l0.167,0.012l0.221,0.031l0.138-0.025l0.107-0.038l0.04-0.031l0.027-0.055l-0.005-0.078l-0.018-0.074
			l-0.074-0.168l-0.062-0.151l-0.101-0.156l-0.127-0.188l-0.099-0.183l-0.021-0.11l0.021-0.064l0.023-0.04l0.056-0.029l0.059-0.011
			l0.113-0.016l0.091,0.008l0.094,0.019l0.119,0.039l0.085,0.067l0.095,0.08l0.117,0.094l0.072,0.07l0.145,0.174l0.146,0.117
			l0.114,0.138l0.122,0.135l0.18,0.179l0.074,0.084l0.121,0.073l0.079,0.021l0.137,0.022l0.158,0.007l0.191-0.029l0.16-0.047
			l0.096-0.056l0.105-0.044l0.072-0.014l0.104-0.045l0.1-0.043l0.138-0.092l0.125-0.076l0.082-0.06l0.188-0.137l0.094-0.065
			l0.107-0.068l0.104-0.057l0.142-0.068l0.138-0.086l0.163-0.09l0.174-0.08l0.103-0.062l0.061-0.059l0.038-0.045l0.028-0.053
			l0.031-0.072l0.028-0.108l0.056-0.259l0.016-0.311L27.5,59.552l-0.009-0.096l-0.004-0.132l-0.019-0.075l-0.013-0.138l0.004-0.128
			l0.014-0.087l0.033-0.093l0.034-0.061l0.065-0.066l0.071-0.043l0.129-0.065l0.16-0.049l0.135-0.037l0.13-0.029l0.098-0.03
			l0.08-0.039l0.082-0.058l0.073-0.062l0.062-0.061l0.076-0.109l0.05-0.082l0.052-0.102l0.01-0.074l0.005-0.066l-0.019-0.076
			l-0.013-0.052l0.007-0.062l0.04-0.117l0.038-0.043l0.062-0.055l0.046-0.038l0.102-0.067l0.055-0.027l0.186-0.035l0.099-0.018
			h0.096l0.082,0.027l0.133,0.065l0.125,0.092l0.223,0.158l0.05,0.039l0.113,0.101l0.123,0.088l0.108,0.082l0.182,0.1l0.114,0.052
			l0.131,0.03l0.069,0.005l0.04-0.007l0.094-0.035l0.148-0.07l0.069-0.055l0.054-0.035l0.037-0.049l0.017-0.069l0.006-0.067
			l0.001-0.108l0.016-0.11l0.04-0.123l0.05-0.105l0.053-0.07l0.04-0.062l0.038-0.043l0.078-0.073l0.078-0.045l0.092-0.048
			l-0.068-0.114l-0.022-0.146l0.002-0.121l0.053-0.115l0.157-0.108l0.146-0.133l0.095-0.101l0.135-0.186l0.119-0.166l0.123-0.111
			l0.069-0.067l0.157-0.115l0.144-0.103l0.162-0.09l0.212-0.08l0.143-0.097l0.15-0.103l0.106-0.105l0.036-0.097l0.004-0.05
			l-0.056-0.098l-0.126-0.102l-0.248-0.072l-0.271-0.049l-0.368-0.079l-0.323-0.09l-0.246-0.104l-0.118-0.112l-0.047-0.108
			l-0.018-0.15l-0.007-0.168l0.007-0.08l0.044-0.109l0.05-0.072l0.04-0.052l0.146-0.146l0.198-0.182l0.193-0.199l0.227-0.172
			l0.276-0.188l0.234-0.109l0.19-0.082l0.103-0.035l0.177-0.002l0.347,0.01l0.241-0.01l0.229-0.047l0.244-0.053l0.158-0.027
			l0.252-0.005l0.357,0.022l0.343-0.021l0.276-0.024h0.481l0.27-0.021l0.229-0.022l0.145-0.041l0.134-0.071l0.142-0.078l0.106-0.104
			l0.103-0.111l0.163-0.25l0.147-0.266l0.103-0.273l0.022-0.184l-0.021-0.244l-0.029-0.164l-0.053-0.129l-0.114-0.156l-0.144-0.146
			l-0.246-0.178l-0.256-0.166l-0.266-0.217l-0.185-0.155l-0.098-0.112l-0.04-0.115l-0.003-0.131l0.006-0.067l0.062-0.063
			l0.094-0.105l0.066-0.033l0.062,0.004l0.062,0.023l0.061,0.047l0.101,0.074l0.109,0.119l0.094,0.068l0.143,0.02l0.136-0.017
			l0.103-0.03l0.104-0.066l0.064-0.09l0.035-0.078l0.005-0.057l-0.002-0.062l-0.023-0.062l-0.042-0.09l-0.026-0.103L38.15,47.94
			l0.014-0.061l0.025-0.062l0.082-0.057l0.065-0.015l0.11,0.024l0.146,0.116l0.149,0.158l0.16,0.18l0.156,0.166l0.081,0.043
			l0.057,0.016l0.105,0.002l0.058-0.01l0.116-0.043l0.154-0.064l0.123-0.035l0.15-0.026l0.099,0.006l0.098,0.025l0.145,0.053
			l0.149,0.065l0.135,0.078l0.114,0.069l0.117,0.032l0.133,0.027h0.085l0.07,0.004l0.108-0.019l0.108-0.043l0.218-0.065l0.178-0.088
			l0.129-0.092l0.073-0.125l0.048-0.142l0.002-0.093l-0.077-0.159l-0.225-0.377l-0.292-0.394l-0.304-0.344l-0.289-0.256
			l-0.111-0.102l-0.042-0.084l-0.014-0.105l0.004-0.05l0.042-0.065l0.025-0.055l0.054-0.053l0.134-0.066l0.256-0.089l0.354-0.075
			l0.221-0.057l0.311-0.062l0.308-0.028l0.41-0.072l0.242-0.021l0.104,0.008l0.117,0.039l0.072,0.066l0.069,0.104l0.082,0.117
			l0.104,0.102l0.099,0.088l0.114,0.15l0.043,0.078l0.044,0.146l0.029,0.075l0.09,0.106l0.241,0.327l0.104,0.111l0.08,0.057
			l0.104,0.02l0.121-0.017l0.088-0.024l0.114-0.094l0.123-0.115l0.091-0.145l0.146-0.309l0.106-0.336l0.071-0.229l0.07-0.318
			l0.044-0.185l0.038-0.108l0.036-0.099l0.084-0.149l0.134-0.234l0.088-0.168l0.058-0.114l0.04-0.149l-0.009-0.176l-0.036-0.141
			l-0.046-0.188l-0.056-0.1l-0.176-0.156l-0.444-0.32l-0.323-0.215l-0.259-0.188l-0.073-0.099l-0.147-0.172l-0.146-0.182
			l-0.121-0.082l-0.333-0.238l-0.287-0.141l-0.169-0.089l-0.157-0.073L43,41.531l0.003-0.103l0.06-0.107l0.225-0.24l0.177-0.125
			l0.104-0.125l0.089-0.074l0.155-0.039l0.252-0.08l0.38-0.133l0.185-0.183l0.247,0.052l0.455,0.142l0.278,0.059l0.26,0.058
			l0.307,0.102l0.362,0.092l0.278,0.051l0.203,0.024l0.132,0.002l0.11-0.008l0.177-0.032l0.178-0.016l0.104-0.023l0.13-0.048
			l0.065-0.041l0.047-0.041l0.028-0.063l0.028-0.123l0.038-0.146l0.011-0.059l0.047-0.039l0.037-0.024l0.074-0.04l0.094-0.033
			l0.131-0.022l0.14,0.001l0.083,0.001l0.094-0.009l0.074-0.023l0.065-0.04l0.064-0.073l0.037-0.064l0.002-0.098L48.99,39.73
			l-0.022-0.104l-0.082-0.262l-0.091-0.271l-0.055-0.172l-0.019-0.104l0.001-0.123l0.028-0.09l0.215-0.104l0.149-0.072l0.225-0.064
			l0.148-0.021l0.186,0.017l0.084,0.019l0.148,0.041l0.064,0.018l0.083,0.008l0.104-0.016l0.084-0.049l0.131-0.057l0.262-0.121
			l0.179-0.13l0.188-0.146l0.168-0.139l0.122-0.139l0.142-0.154l-0.14-0.201l-0.093-0.14l-0.024-0.06l-0.003-0.064l0.156-0.23
			l0.297-0.572l0.121-0.251l0.031-0.17l-0.002-0.119l-0.016-0.16l-0.083-0.219l-0.037-0.179l0.009-0.229l0.031-0.12l0.032-0.101
			l0.158-0.229l0.065-0.141l0.042-0.229l0.028-0.312l0.042-0.17l0.066-0.101l0.056-0.061l0.217-0.014l0.158-0.021l0.103-0.031
			l0.066-0.061l0.032-0.131l-0.039-0.288l-0.109-0.478l-0.03-0.459l-0.053-0.398l0.02-0.309l0.074-0.261l0.143-0.291l0.076-0.221
			l-0.002-0.109l-0.048-0.188l-0.131-0.316l-0.165-0.328l-0.096-0.258l-0.048-0.109l-0.092-0.037h-0.125l-0.102,0.041l-0.183,0.054
			l-0.102,0.002l-0.035-0.011L51.7,29.145l0.021-0.05l0.101-0.143l0.101-0.109l0.112-0.111l0.181-0.093l0.171-0.013l0.284-0.032
			l0.135-0.062l0.034-0.06l0.021-0.149l-0.002-0.159l0.02-0.31l0.075-0.24l0.043-0.17l0.101-0.11l0.067-0.051l0.124-0.052
			l0.182-0.043l0.138-0.012l0.125-0.052l0.057-0.029l0.01-0.07l-0.001-0.08l-0.003-0.13l-0.001-0.079l0.044-0.109l0.124-0.103
			l0.136-0.075l0.124-0.062l0.147-0.031l0.124-0.052l0.079-0.07l0.032-0.07l0.021-0.229l0.009-0.141l0.057-0.131l0.077-0.101
			l0.056-0.12l0.021-0.12l-0.023-0.079l-0.093-0.068l-0.114-0.049l-0.126-0.039l-0.06-0.118l-0.038-0.21l-0.081-0.129l-0.003-0.148
			l-0.001-0.1l0.032-0.12l0.044-0.08l0.011-0.101l-0.013-0.061l-0.036-0.068l-0.067-0.021l-0.001-0.06l0.011-0.069l0.032-0.08
			l0.045-0.062l-0.001-0.101l-0.025-0.099l-0.046-0.07l-0.104,0.002l-0.079-0.02l-0.024-0.049l-0.001-0.07l0.094-0.061l0.183-0.082
			l0.09-0.109l0.077-0.15l0.076-0.211l0.062-0.359l0.02-0.221l-0.069-0.107l-0.16-0.049l-0.219-0.047L54.03,21.8l-0.06-0.068V21.71
			l0.043-0.188l0.022-0.228l0.027-0.192l0.01-0.11l-0.001-0.049l0.057-0.021h0.091l0.104,0.048l0.081,0.079l0.023,0.101l0.024,0.108
			l0.014,0.08l0.058,0.039l0.113-0.002l0.092-0.041l0.021-0.101l0.031-0.159l0.01-0.109l0.033-0.07l0.046-0.001h0.046l0.068,0.039
			l0.082,0.089l0.012,0.09l0.058-0.001l0.067-0.041l0.056-0.131l0.042-0.209l-0.014-0.16l-0.002-0.079l-0.023-0.1l-0.047-0.1
			l-0.002-0.08l0.021-0.069v-0.002l-0.016-0.002l-0.052-0.148l-0.008-0.213l-0.047-0.089l0.014-0.107l0.074-0.166l0.005-0.125
			l-0.028-0.293l0.059-0.379l0.065-0.128l0.142-0.325l0.054-0.106l0.123-0.163l0.088-0.093l0.094-0.034l0.144,0.006l0.19,0.021
			l0.224,0.052l0.215,0.08l0.283,0.01l0.317-0.013l0.262-0.034l0.203-0.045l0.067-0.021l0.034-0.035l0.007-0.152l-0.011-0.124
			l-0.028-0.118l-0.029-0.098l-0.054-0.117l-0.062-0.126l0.003-0.066l0.026-0.028l0.187-0.037l0.106,0.004l0.076-0.004l0.035-0.028
			l0.029-0.095l0.021-0.108l0.013-0.116l0.012-0.044l0.044-0.05l0.067-0.041l0.057-0.07l-0.029-0.104l-0.088-0.09l-0.356-0.275
			l-0.281-0.236l-0.136-0.18l-0.118-0.165l-0.126-0.172l-0.002-0.161l0.005-0.109l0.021-0.095l0.104-0.128l0.104-0.076l0.128-0.076
			l0.079-0.07l0.098-0.143l0.058-0.131l0.17-0.25l0.085-0.222l0.145-0.229l0.03-0.115l-0.011-0.133l-0.043-0.168l0.003-0.074
			l0.037-0.063l0.067-0.049l0.087-0.069l0.108-0.187l0.128-0.224l0.073-0.137l0.03-0.139l-0.02-0.139l-0.04-0.229l-0.021-0.08
			l-0.049-0.053l-0.137-0.121l-0.208-0.037l-0.142-0.032l-0.074-0.033l-0.023-0.029l0.002-0.045l0.089-0.084l0.181-0.117
			l0.205-0.089l0.121-0.076l0.097-0.106l0.088-0.1L58.741,10.513"/>
	</g>
</g>
<g id="Layer_1">
</g>
</svg>
