<?xml version="1.0" encoding="iso-8859-1"?>
<!-- Generator: Adobe Illustrator 16.0.4, SVG Export Plug-In . SVG Version: 6.00 Build 0)  -->
<!DOCTYPE svg PUBLIC "-//W3C//DTD SVG 1.1//EN" "http://www.w3.org/Graphics/SVG/1.1/DTD/svg11.dtd">
<svg version="1.1" xmlns="http://www.w3.org/2000/svg" xmlns:xlink="http://www.w3.org/1999/xlink" x="0px" y="0px"
	 width="44.811px" height="28.771px" viewBox="0 0 44.811 28.771" style="enable-background:new 0 0 44.811 28.771;"
	 xml:space="preserve">
<g id="Layer_68">
	<g id="Layer_73">
		<path id="Quetta" style="fill:#CCCCCC;stroke:#FFFFFF;stroke-width:1.07;" d="
			M30.047,18.372L30.047,18.372l0.18-0.016l0.609,0.065l0.854-0.007l0.624,0.003l0.512-0.101l0.202-0.179l0.097-0.206l0.071-0.281
			l0.101-0.406l0.078-0.5l0.061-0.497l0.078-0.205l0.119-0.082l0.107-0.021l0.157-0.039l0.14-0.053l0.068-0.064L34.1,15.678v-0.185
			l-0.243-0.5l-0.171-0.178l-0.012-0.187l0.029-0.125l0.057-0.25l0.099-0.144l0.343-0.342l0.235-0.148l0.565-0.412l0.229-0.04
			l0.303-0.015l0.195-0.008l0.75-0.002l0.409-0.018l0.37-0.062l0.438-0.143l0.503-0.254l0.518-0.301l0.365-0.271l0.131-0.116
			l0.315-0.293l0.5-0.433l0.386-0.265l0.355-0.176l0.238-0.052l0.238-0.082l0.092-0.075l0.076-0.062l0.188-0.469l0.082-0.123
			l0.273-0.037l0.258-0.021l0.137-0.049L42.67,9.61l0.182-0.229l0.247-0.307l0.435-0.371l0.45-0.387l0.231-0.244l0.046-0.196
			L44.22,7.715l-0.115-0.326l-0.048-0.354l-0.079-0.268l-0.112-0.234l-0.033-0.039l-0.135,0.059l-0.213,0.104l-0.246,0.146L43,6.93
			L42.912,6.86L42.68,6.764l-0.331-0.092l-0.394-0.153l-0.271-0.125l-0.125-0.078l-0.055-0.113l-0.065-0.123l-0.125-0.09
			l-0.196-0.086l-0.188-0.129l-0.162-0.109l-0.14-0.12l-0.213-0.19l-0.117-0.152l-0.092-0.164L40.185,4.86l-0.007-0.146l-0.01-0.188
			l-0.02-0.156l-0.054-0.124l-0.058-0.154l-0.012-0.24l0.018-0.116l0.02-0.105l0.03-0.126l0.065-0.079l0.149-0.173l0.216-0.259
			l0.379-0.473l0.161-0.173l0.194-0.216l0.054-0.127L41.3,1.903h-0.034l-0.123,0.001l-0.109,0.019L40.99,1.857l-0.209-0.092
			l-0.207-0.049l-0.059,0.008l-0.034,0.021l-0.007,0.058l-0.041,0.072l-0.05,0.029l-0.083,0.001l-0.094-0.064l-0.15-0.165
			l-0.105-0.145l-0.076-0.079l-0.059-0.028l-0.041,0.008L39.75,1.461l-0.033,0.05l-0.041,0.072l-0.123,0.102L39.031,1.94
			l-0.446,0.198L38.436,2.22l-0.083,0.015l-0.165-0.027l-0.093-0.035L37.97,2.174l-0.101,0.022L37.72,2.19L37.57,2.148l-0.084-0.006
			l-0.09,0.001l-0.134,0.059l-0.181,0.146l-0.42,0.328L36.257,2.91l-0.138,0.092l-0.221,0.16l-0.264,0.305l-0.305,0.27l-0.131,0.202
			l-0.244,0.354l-0.264,0.269l-0.164,0.146l-0.166,0.087l-0.141,0.022L33.83,4.792l-0.502-0.131l-0.34-0.049L32.83,4.551
			l-0.059-0.071l-0.053-0.122l-0.066-0.057l-0.184-0.027l-0.125-0.027l-0.059,0.008l-0.049,0.036l-0.049,0.073l-0.074,0.058
			l-0.059,0.043l-0.133,0.022l-0.125-0.013l-0.102-0.064l-0.101-0.064l-0.076-0.035l-0.106-0.013h-0.043l-0.058,0.022L31.203,4.3
			l-0.143-0.092l-0.209-0.106L30.709,3.98l-0.111-0.208L30.47,3.516l-0.261-0.286l-0.196-0.308l-0.08-0.293l-0.187-0.222
			l-0.16-0.178l-0.127-0.164l-0.07-0.301l-0.082-0.496l-0.061-0.143l-0.102-0.107l-0.127-0.107l-0.186-0.12l-0.084-0.115V0.659
			l-0.142,0.03l-0.497,0.149l-0.422,0.17l-0.24,0.111l-0.182,0.088l-0.148,0.023l-0.176-0.005l-0.176-0.07l-0.134-0.071l-0.25-0.216
			l-0.058-0.007l-0.076,0.001l-0.057,0.037L26.158,0.95L26.15,1.029l-0.016,0.094l-0.023,0.087L25.957,1.44l-0.121,0.181
			l-0.033,0.065l0.001,0.079l0.026,0.101l0.025,0.122l0.002,0.065l-0.05,0.108l-0.082,0.087l-0.164,0.167l-0.255,0.197l-0.163,0.21
			l-0.057,0.13l-0.048,0.138l-0.032,0.086l-0.073,0.159l-0.04,0.094L24.89,3.751l-0.03,0.173l-0.123,0.131l-0.215,0.146l-0.09,0.087
			l-0.041,0.087l-0.007,0.072l0.01,0.122l0.069,0.129l0.059,0.058l0.034,0.058l0.017,0.043v0.029l-0.023,0.059l-0.115,0.107
			l-0.181,0.141l-0.104,0.158l-0.098,0.195l-0.09,0.201l-0.105,0.168l-0.057,0.158l-0.03,0.166l0.011,0.157l0.002,0.095
			l-0.049,0.078L23.634,6.7l-0.22,0.283l-0.188,0.239l-0.022,0.103L23.172,7.47l-0.088,0.166l-0.293,0.363l-0.166,0.117
			l-0.132,0.059l-0.132,0.029l-0.124,0.037l-0.164,0.176l-0.122,0.166l-0.023,0.08l0.026,0.107l0.06,0.085l0.026,0.058l0.009,0.064
			l-0.056,0.166L21.92,9.251l-0.099,0.066l-0.124,0.045l-0.09,0.051l-0.049,0.066l0.001,0.078l0.001,0.08l-0.032,0.086l-0.082,0.073
			l-0.04,0.079l-0.007,0.08l0.042,0.057l0.059,0.035l-0.023,0.094l-0.123,0.124l-0.17,0.226L20.97,10.76l-0.147,0.139l-0.123,0.08
			l-0.058,0.037l-0.041,0.043l-0.016,0.06l0.002,0.144l-0.079,0.245l-0.17,0.219l-0.106,0.116l-0.057,0.065l-0.014,0.137
			l-0.072,0.181l-0.252,0.269l-0.263,0.17l-0.081,0.033l-0.1,0.041l-0.199,0.01l-0.149,0.002l-0.083,0.029l-0.073,0.043l-0.1,0.03
			l-0.066,0.001l-0.042-0.014l-0.033-0.028l-0.058,0.001l-0.058,0.016l-0.074,0.029l-0.138,0.062l-0.132,0.045l-0.199,0.01
			l-0.182,0.066l-0.122,0.123l-0.058,0.01l-0.1-0.008l-0.093-0.049l-0.226-0.147l-0.159-0.056l-0.225-0.062l-0.142-0.041
			l-0.043-0.078l-0.035-0.101l-0.125-0.063l-0.199-0.012l-0.215-0.004l-0.15-0.049l-0.101-0.078l-0.194-0.186l-0.254-0.319
			l-0.09-0.097l-0.075-0.035l-0.199-0.025l-0.432-0.023l-0.232,0.012l-0.125-0.027l-0.159-0.068l-0.076-0.078l-0.059-0.021
			l-0.149-0.005l-0.124,0.001l-0.15-0.049l-0.085-0.07l-0.084-0.092l-0.035-0.094v-0.051l-0.034-0.027h-0.05l-0.115,0.053
			l-0.198,0.039l-0.142-0.027l-0.25-0.09l-0.142-0.057l-0.058,0.008l-0.066,0.029l-0.123,0.082l-0.098,0.088l-0.065,0.087
			l-0.04,0.071l0.035,0.071l0.092,0.078l0.127,0.093l0.034,0.043v0.043l-0.041,0.036l-0.073,0.052l-0.057,0.037l-0.065,0.071
			l-0.015,0.138l-0.015,0.079l-0.032,0.072l-0.015,0.086l0.001,0.087l0.051,0.057l0.035,0.086L11.95,12.64l-0.089,0.139l-0.04,0.094
			l-0.023,0.095l0.026,0.106l0.045,0.166l0.042,0.057l0.04,0.146l0.001,0.072l-0.024,0.036l-0.05,0.03l-0.183-0.049l-0.267-0.104
			l-0.125-0.05l-0.066,0.002l-0.14,0.045l-0.205,0.132l-0.123,0.065l-0.165,0.062l-0.199,0.039l-0.173,0.017l-0.133,0.002
			L9.95,13.715l-0.075-0.042l-0.134-0.077l-0.1-0.021L9.55,13.583l-0.064,0.065l-0.091,0.03L9.312,13.68l-0.101-0.049l-0.15-0.062
			l-0.066,0.001l-0.173,0.024l-0.14,0.036l-0.157-0.004L8.424,13.6l-0.116,0.001l-0.249,0.003L7.86,13.614l-0.142-0.07l-0.152-0.156
			l-0.119-0.143l-0.083-0.021l-0.116,0.002l-0.364,0.056l-0.191,0.002l-0.075-0.027l-0.06-0.092l-0.103-0.158L6.37,12.858
			L6.227,12.81l-0.174,0.01L5.88,12.858l-0.167-0.048l-0.06-0.101L5.55,12.566l-0.1-0.041l-0.124,0.011l-0.091,0.043l-0.057,0.065
			l-0.047,0.13l-0.103,0.29l-0.062,0.181l-0.122,0.153L4.73,13.515l-0.073,0.064l-0.165,0.055l-0.231,0.011L4.17,13.673L4.072,13.77
			l-0.161,0.203l-0.138,0.196l-0.072,0.123l-0.056,0.072l-0.058,0.037l-0.132,0.031L3.347,14.44l-0.04,0.08l-0.052,0.116
			l-0.054,0.181L3.17,14.925L3.113,14.97l-0.148,0.045l-0.098,0.074l-0.048,0.08l-0.106,0.059l-0.107,0.038l-0.107,0.037
			l-0.072,0.103l-0.104,0.16l-0.055,0.18l-0.029,0.202l-0.055,0.146l-0.041,0.044l-0.065,0.036l-0.133,0.002l-0.1,0.017
			l-0.049,0.037L1.79,16.292L1.784,16.38l-0.058,0.052l-0.13,0.088l-0.04,0.071l-0.005,0.131l-0.024,0.044l-0.074,0.028l-0.083-0.02
			l-0.042-0.021l-0.083,0.002l-0.207,0.024L0.823,16.79l-0.22-0.033l-0.059,0.084l-0.002,0.193l-0.006,0.541l0.085,0.283
			l0.058,0.189l0.4,0.254l0.322,0.205l0.901,0.664l0.324,0.237l0.494,0.25l0.139,0.138l0.702,0.492l0.065,0.047l0.771,0.539
			l0.746,0.521l0.114,0.103l0.018,0.16l-0.123,0.237l-0.088,0.17l-0.466,0.341l-0.642,1.043l-0.469,0.514l-0.238,0.074l-0.025,0.068
			L3.61,24.142l-0.951,0.71l-0.812,0.678l-0.073,0.089l0.997,0.506l1,0.26l0.272-0.012l0.33-0.066l0.37-0.003l0.412,0.044
			l0.455,0.127l0.564,0.174l0.234,0.057h0.165l0.603-0.09l0.465-0.111l0.465-0.088l0.384-0.026l0.164,0.01l0.206,0.095l0.234,0.116
			l0.221,0.152l0.279,0.393l0.278,0.355l0.416,0.354l0.385,0.163l0.44,0.128l0.521,0.079l0.452-0.016l0.328-0.05l0.3-0.123
			l0.367-0.301l0.216-0.266l0.174-0.455l0.133-0.335l0.202-0.36l0.163-0.228l0.135-0.217l0.134-0.3l0.078-0.442l-0.003-0.298
			l-0.073-0.453l-0.043-0.227l-0.012-0.143l0.135-0.204l0.325-0.409l0.611-0.59l0.258-0.287l0.149-0.24l0.215-0.491l0.173-0.503
			l0.064-0.454l0.093-0.396l0.172-0.634l0.147-0.431l0.206-0.396l0.297-0.527l0.391-0.778l0.419-0.743l0.324-0.636l0.229-0.491
			l0.311-0.635l0.324-0.646l0.258-0.349l0.15-0.156l0.123-0.062l0.246-0.014l0.249-0.014l0.22-0.014l0.345,0.068l0.345,0.178
			l0.288,0.383l0.236,0.297l0.318,0.236l0.303,0.095l0.523,0.092l0.385,0.082l0.427,0.067l0.125,0.084l0.098,0.189l0.031,0.514
			l0.004,0.383l0.069,0.203l0.386,0.235l0.51,0.069l0.262,0.033l0.165,0.07l0.125,0.119l0.11,0.131l0.029,0.202l-0.041,0.144
			l-0.273,0.205l-0.315,0.074l-0.274,0.049l-0.178,0.072l-0.094,0.239l-0.014,0.19l0.003,0.216l0.069,0.215l0.222,0.165l0.288,0.082
			l0.221-0.037l0.488-0.036h0.137l0.139-0.024l0.245-0.145l0.354-0.205l0.045-0.035l0.667-0.541l0.354-0.254l0.109-0.048
			l0.191-0.013l0.11,0.035l0.4,0.129l0.454,0.165l0.578,0.081l0.541,0.033L30.047,18.372"/>
	</g>
</g>
<g id="Layer_1">
</g>
</svg>
