<?xml version="1.0" encoding="iso-8859-1"?>
<!-- Generator: Adobe Illustrator 16.0.4, SVG Export Plug-In . SVG Version: 6.00 Build 0)  -->
<!DOCTYPE svg PUBLIC "-//W3C//DTD SVG 1.1//EN" "http://www.w3.org/Graphics/SVG/1.1/DTD/svg11.dtd">
<svg version="1.1" xmlns="http://www.w3.org/2000/svg" xmlns:xlink="http://www.w3.org/1999/xlink" x="0px" y="0px" width="5.672px"
	 height="3.7px" viewBox="0 0 5.672 3.7" style="enable-background:new 0 0 5.672 3.7;" xml:space="preserve">
<g id="Layer_41">
	<g id="Layer_46">
		<path id="Thatta" style="fill:#CCCCCC;stroke:#FFFFFF;stroke-width:1.07;" d="
			M4.088,0.838L4.088,0.838L3.801,0.544L3.478,0.537L3.226,0.633L2.769,0.857l-0.41,0.438l-0.15,0.282L2.017,1.74L1.262,2.103
			L1.017,2.38L0.788,2.361L0.611,2.427l0.06,0.312l0.213,0.219l0.163,0.168l0.255-0.044l0.519-0.329l0.656-0.655l0.381-0.221
			l0.95-0.205l0.243,0.104l0.164,0.333l0.229,0.035L4.703,1.97L4.92,1.693l0.185-0.396l-0.033-0.12l0.007-0.068L4.834,0.935
			L4.37,0.976L4.088,0.838"/>
	</g>
</g>
<g id="Layer_1">
</g>
</svg>
