<?xml version="1.0" encoding="utf-8"?>
<!-- Generator: Adobe Illustrator 16.0.4, SVG Export Plug-In . SVG Version: 6.00 Build 0)  -->
<!DOCTYPE svg PUBLIC "-//W3C//DTD SVG 1.1//EN" "http://www.w3.org/Graphics/SVG/1.1/DTD/svg11.dtd">
<svg version="1.1" id="Layer_1" xmlns="http://www.w3.org/2000/svg" xmlns:xlink="http://www.w3.org/1999/xlink" x="0px" y="0px"
	 width="301.315px" height="260.459px" viewBox="-32.565 -28.153 301.315 260.459"
	 style="enable-background:new -32.565 -28.153 301.315 260.459;" xml:space="preserve">
<g id="Layer_6">
	<g id="Kech">
		<path id="Kech_2_" style="fill:#CCCCCC;stroke:#FFFFFF;stroke-width:1.15;" d="M95.763,217.418L95.763,217.418l0.658-0.85
			l1.195-1.569l0.335-0.268l0.409-0.017l0.438-0.015l0.245-0.207l0.081-0.344l0.18-0.233l0.313-0.011l0.617,0.545l0.451,0.273
			l0.532-0.077l0.489-0.328l0.281-0.038l0.384,0.16l0.253,0.048l0.528-0.157l0.489-0.333l0.421-0.251l0.53-0.1l0.459-0.334
			l0.113-0.342l-0.142-0.424l-0.745-0.598l-0.713-0.547l-0.798-0.288l-0.443-0.129l-0.292-0.22l-0.142-0.427l-0.432-0.608
			l-0.198-0.226l-0.221-0.848l-0.025-0.627l0.141-0.436l0.403-0.181l0.745-0.227l0.556-0.3l0.551-0.417l0.111-0.399l0.103-0.633
			l-0.126-1.013l-0.005-0.943l0.228-0.66l0.24-0.345l0.276-0.182l0.439-0.012l0.346-0.014l0.277-0.206l0.021-0.283l-0.248-0.734
			l-0.138-0.282l-0.077-0.425l0.258-1.518l0.344-1.747l0.311-0.953l0.487-1.407l0.597-0.929l0.492-0.333l0.558-0.275l0.502-0.101
			l1.414-0.128l0.968-0.282l0.808-0.335l0.588-0.3l0.548-0.557l0.465-1.124l0.112-0.375l0.161-0.799l-0.087-0.708l-0.436-1.521
			l-0.454-1.185l-1.126-1.47l-0.983-0.907l-0.601-0.327l-0.301-0.163l-1.575-0.692l-1.223-0.56l-0.961-0.448l-0.144,0.512
			l-0.077,0.458l-0.14,0.488l-0.421,0.586l-0.459,0.414l-0.559,0.298l-0.862,0.384l-1.183,0.488l-0.62,0.334l-0.494,0.3
			l-0.432,0.296l-0.488,0.417l-0.346,0.034l-0.731-0.087l-0.953-0.14l-1.354,0.129l-1.103,0.094l-2,0.547l-1.944,0.346l-0.721,0.135
			l-0.475-0.04l-0.606-0.148l-0.943-0.627l-1.433-1.363L86.247,184l-0.269-0.385l-1.183-1.073l-0.915-0.681l-1.36-1.52l-1.277-1.005
			l-0.869-0.34l-1.026-0.307l-1.14-0.046l-0.854,0.028l-0.848,0.143l-1.02,0.204l-1.463,0.564l-0.494,0.301l-0.454,0.476
			l-0.305,0.269l-0.311,0.126l-0.284,0.013l-0.607-0.122l-0.609-0.15l-0.41,0.043l-0.405,0.129l-0.318-0.042l-0.441,0.014
			l-0.56,0.222l-0.782,0.232l-0.785,0.138l-0.503,0.076l-0.424-0.07l-0.213-0.28l-0.029-0.074l-0.061-0.234l-0.085-0.344
			l-0.122-0.267l-0.067-0.385l-0.013-0.698l0.118-0.801l0.119-0.788l0.08-0.845l-0.082-0.36l-0.228-0.327l-0.348-0.143l-0.362-0.076
			l-0.509,0.018l-0.669,0.109l-0.709,0.128l-0.494,0.002l-0.254-0.074l-0.309-0.169l-0.241-0.281l-0.013-0.284l0.106-0.396
			l0.147-0.133h0.093l0.093,0.048l0.269,0.126l0.173,0.012l0.135-0.061L63,174.425l0.067-0.466l0.052-0.157l0.107-0.072l0.24-0.038
			h0.295l0.201-0.035l0.202-0.095l0.081-0.128l0.107-0.036l0.106-0.001l0.121,0.094l0.135,0.146l0.147,0.061h0.254l0.215-0.073
			l0.202-0.096l0.173-0.077h0.187l0.133,0.036l0.134,0.048h0.134l0.067-0.036l0.053-0.074l0.053-0.18l-0.094-0.334l-0.188-0.133
			l-0.334-0.169l-1.126-0.516l-1.409-0.673l-0.456-0.241l-0.51-0.312l-0.792-0.325l-0.643-0.239l-1.686-0.522l-1.329-0.49
			l-0.939-0.282l-0.214-0.035h-0.309l-0.428,0.016l-0.603,0.065l-0.765,0.171l-0.496,0.11l-1.148,0.344l-1.272,0.523l-1.055,0.46
			l-0.562,0.171l-1.004,0.321l-0.775,0.318l-0.495,0.146l-0.388,0.081l-0.455,0.232l-0.321,0.128l-0.455,0.129l-0.531,0.143
			l-0.443,0.05l-0.429-0.071l-0.871-0.069l-0.644-0.044l-0.509-0.122l-0.229-0.229l-0.042-0.205l0.144-0.326l0.507-0.476
			l0.787-0.633l0.146-0.266l0.012-0.266l-0.094-0.121l-0.121-0.036l-0.215-0.011l-0.281,0.062l-0.523,0.131l-0.547,0.183
			l-0.295,0.037l-0.134-0.048l-0.094-0.107l0.053-0.145l0.186-0.231l0.132-0.238l0.025-0.125l-0.013-0.081l-0.081-0.081
			l-0.146-0.035l-0.456,0.019l-0.603,0.038l-0.429-0.026l-0.188-0.106l-0.056-0.218l0.04-0.205l0.079-0.219l0.093-0.125l0.37-0.532
			l0.386-0.541l0.453-0.366l0.641-0.533l0.145-0.397l-0.001-0.218l-0.124-0.289l-0.27-0.335l-0.715-0.592l-0.336-0.419l-0.218-0.313
			l-0.274-0.387l-0.377-0.36l-0.244-0.203l-0.076-0.078l-0.289-0.497l-1.2,0.199l-2.541-0.736l-0.824-0.074l-1.699,0.02
			l-0.319,0.005l-1.388,0.347l-4.072-0.075l-0.949-0.236l-0.39-0.001l-0.541-0.003l-1.27-0.001l-0.924,0.196l-1.224,0.506
			l-0.269,0.22l-0.267,0.524l-0.257,0.216l-0.574,0.148l-0.669,0.182l-0.616,0.041l-1.247-0.202l-0.641,0.381l-0.542,0.497
			l-1.521,0.743l-1.344,0.111l-0.269,0.025l-2.402,0.2l-0.919-0.147l-1.721,0.604l-0.772,0.101l-1.134-0.126l-0.344,0.096
			l-1.222,1.215l-0.367,0.258l-0.33,0.053l-1.835-0.062l-0.406,0.184l-0.521,0.235l-0.496,0.139l-0.952-0.018l-0.464,0.229
			l-0.339,0.554l-0.181,0.763l0.06,0.232l0.384,0.479l0.221,0.42l-0.337,0.466l-0.647,0.671l-0.361,0.374l-0.657,0.076l-0.619-0.157
			l-0.068,0.142l0.422,0.713l0.004,0.997l1.367,1.324l0.009,0.806l-0.463,0.651l-0.973,0.01l-1.294-0.336l-0.275-0.07l-1.707-0.176
			l-2.819-1.016l-0.632-0.033l-0.221,0.492v0.834v1.773l-0.356,0.657l-0.739,0.129l-2.34-0.061l-1.16,0.555l-2.659,1.276
			l-1.458,0.568l-2.542,0.427l-0.069,0.015l-1.879,0.686l-1.172,0.952l-0.762,2.923l-0.028,0.153l-1.13,6.396l-0.445,2.525
			l-0.534,3.496l-0.082,0.382l-0.373,1.697l-0.117,0.756l0.087,0.997l-0.082,1.704l-0.024,0.034l0.433,0.252l0.082,0.107
			l0.333,0.049l0.167-0.06l0.317,0.004l0.048,0.181l-0.001,0.123l-0.07,0.166l-0.018,0.133l-0.018,0.149l0.045,0.194l0.114,0.257
			l0.114,0.257l0.046,0.36l-0.039,0.336l-0.118,0.179l-0.219,0.164l-0.119,0.228l0.013,0.194l0.115,0.23l0.129,0.257l0.03,0.212
			l0.272,0.01l0.479,0.201l0.206-0.026l0.365,0.029l0.314,0.13l0.331,0.179l0.281,0.154l0.448,0.078l0.581,0.035l2.764,0.932
			l0.198,0.135l0.233,0.077l0.382,0.004l0.332-0.014l0.2,0.003l0.382,0.066l0.231,0.092l0.232,0.077l0.267,0.003l0.251-0.118
			l0.269-0.192l0.337-0.313l1.143-0.208l0.07-0.241l0.022-0.33l0.037-0.333l0.136-0.213l0.169-0.179l0.201-0.122l0.12-0.122
			l0.006-0.401l-0.064-0.216l0.005-0.387l0.12-0.21l0.234-0.13l0.218-0.08l0.416,0.007l0.226,0.083l0.154,0.13l0.098,0.133
			l0.098,0.231l0.013,0.18l-0.039,0.345l-0.257,0.447l-0.018,0.18l-0.04,0.521l0.064,0.619l0.093,0.432l0.179,0.192l0.308,0.29
			l0.307,0.267l0.149,0.289l0.304,0.411l0.042,0.354l0.017,0.402l-0.089,0.398l-0.202,0.689l-0.036,0.38l-0.005,0.188l0.096,0.359
			l0.204,0.24l0.153,0.19l0.098,0.262l0.12,0.406l0.28,0.362l0.264,0.202l0.333,0.256l0.361,0.246l0.252,0.386l-0.007,0.282
			l-0.112,0.304l-0.136,0.186l-0.237,0.087l-0.422,0.065l-0.682,0.105l-0.452,0.229l-0.296,0.328l-0.298,0.35l-0.139,0.306
			l-0.141,0.398l-0.064,0.449l-0.033,0.306l0.071,0.08l0.054,0.062l0.118,0.043l0.089,0.031l0.652,0.083l0.991,0.091l0.362,0.127
			l0.257,0.223l0.032,0.182l0.014,0.077l0.065,0.501l0.254,0.285l0.182,0.026l0.444-0.017l0.793-0.269l0.684-0.192l0.397-0.116
			l1.426-0.513l1.086-0.431l0.473-0.078l0.922-0.219l1.452-0.419l1.558-0.488l1.559-0.507l1.581-0.391l1.634-0.365l0.816-0.146
			l1.075-0.023l0.992,0.095l0.217-0.009l0.491-0.025l1.077-0.089l1.126-0.041l2.803-0.026l1.416-0.058l1.364-0.062l0.943-0.046
			l1.045,0.125l0.993,0.075l0.863-0.026l0.737-0.097l1.182-0.112l1.626-0.097l1.445-0.129l0.683-0.076l0.419,0.012l0.489,0.232
			l0.463,0.228l0.39,0.06l0.604-0.057l0.349-0.248l0.434-0.416l0.271-0.252l0.268-0.16l0.527-0.104l0.712-0.126l0.866-0.071
			l0.979-0.155l0.76-0.322l0.645-0.242l0.664-0.107l0.345-0.017l0.416,0.151l0.304,0.415l0.473,0.637l0.996,1.044l0.464,0.487
			l0.176,0.365l0.11,0.309l0.167,0.223l0.32,0.099l0.686-0.115l0.567,0.03l0.44,0.039l0.552,0.345l0.451,0.233l0.949,0.13
			l1.57-0.008l0.849,0.022l0.524-0.165l0.374-0.098l0.445,0.126l0.328,0.274l0.201,0.278l0.345-0.018l0.622-0.109l0.953,0.217
			l1.74,0.274l1.068,0.116l1.414,0.002l1.351,0.031l0.608,0.23l0.295,0.278l0.144,0.388l0.373,0.555l0.172,0.305l0.355,0.214
			l0.382,0.128l0.913,0.051l0.322,0.183l0.271,0.417l0.184,0.621l0.2,0.245l0.421,0.297l0.111,0.334l0.043,0.255l-0.27,0.267
			l-0.693,0.568l-0.452,0.385l-0.268,0.325l-0.02,0.282l0.175,0.364l0.475,0.128l0.492-0.188l1.271-0.99l0.921-1.089l1.228-0.59
			l1.931-0.984l2.817-1.529l1.659-0.771l1.046-0.49l2.211-1.036l2.463-1.085l0.709-0.283l0.842-0.174l0.46-0.243l0.268-0.35
			l0.43-0.184l1.088-0.268l1.739-0.459l2.361-0.626l2.737-0.635l1.182-0.296l0.839-0.256l1.247-0.24l1.248-0.046l1.161-0.07
			l0.413,0.128l0.296,0.36l0.289,0.162l0.348,0.045l0.509,0.127l0.199,0.251l0.044,0.368l0.241,0.502l0.394,0.414l0.676,0.437
			l0.854,0.174l1.097-0.066L95.763,217.418"/>
		<path id="Kech_1_" style="fill:#CCCCCC;stroke:#FFFFFF;stroke-width:1.15;" d="M247.215,14.705L247.215,14.705l-0.1-0.673
			l0.031-0.212l0.137-0.291l0.336-0.283l0.926-0.634l0.332-0.321l0.445-0.232l0.551-0.311l0.125-0.134l0.492-0.385l0.242-0.334
			l0.049-0.344L250.742,9.5l0.127-0.503l0.27-0.294l0.256-0.489l0.182-0.314l0.371-0.397l0.377-0.301l0.574-0.346l0.791-0.359
			l0.697-0.436l0.42-0.381l0.254-0.508l0.016-0.153l-0.006-0.094l-0.111-0.033l-0.178-0.013l-0.373-0.023l-0.361-0.178l-0.258-0.334
			l-0.277-0.255l-0.682-0.311l-0.711-0.199l-0.586-0.283l-0.408-0.232l-0.424-0.132l-0.334-0.099l-0.186-0.181l-0.102-0.263
			l-0.15-0.336l-0.211-0.223l-0.422-0.116L249,1.496l-0.129-0.299l-0.178-0.435l-0.197-0.378l-0.139-0.529l-0.125-1.412
			l-0.133-1.541l-0.195-0.738l-0.283-0.733l-0.232-0.601l-0.238-0.389l-0.227-0.489l-0.152-0.334l-0.021-0.362l0.152-0.429
			l0.379-0.325l0.398-0.323l0.465-0.307l0.723-0.451l0.568-0.427l0.719-0.306l0.348-0.053l0.24-0.028l0.197,0.028l0.277,0.197
			l0.213,0.28l0.26,0.314l0.336,0.158l0.199,0.013l0.131-0.026l0.031-0.232l-0.02-0.324l0.232-0.165l0.262-0.048l0.197-0.009
			l0.248,0.125l0.455,0.285l0.346,0.271l0.309,0.407l0.283,0.372l0.199,0.45l0.041,0.339l0.146,0.283l0.273,0.141l0.293,0.16
			l0.264,0.007l0.213-0.124l0.123-0.196l-0.051-0.536l0.119-0.215l0.193-0.084l0.236-0.067l0.318,0.124l0.186,0.238l0.182,0.489
			l0.189,0.719l0.164,0.128l0.244,0.083l0.266,0.026l0.396-0.018l0.297-0.146l0.479-0.097l0.707-0.283l-0.355-0.116l-0.211-0.313
			l0.031-0.336l0.016-0.404l0.01-0.408l-0.08-0.41l-0.129-0.431l-0.242-0.539l-0.229-0.249l-0.107-0.369l-0.014-0.327l0.053-0.203
			l0.121-0.14l0.238-0.097l0.611-0.149l0.73-0.045l0.426-0.176l0.479-0.253l0.309-0.196l0.125-0.265l0.053-0.18l-0.064-0.229
			l-0.16-0.166l-0.438-0.212l-0.336-0.116l0.475-0.397l0.143-0.122l0.496-0.152l0.281-0.056l0.512,0.194l0.113,0.152l0.059-0.498
			l-0.141-0.859l-0.236-1.536l-0.229-1.213l-0.141-0.797l-0.178-0.862l-0.133-0.603l-0.162-0.35l-0.301-0.18l-0.299-0.056
			l-0.334,0.007l-0.215,0.132l-0.246,0.39l-0.367,0.106l-0.258,0.007l-0.635-0.111l-0.516,0.015l-0.404,0.043l-0.701,0.081
			l-0.592,0.018l-0.52-0.079l-0.34-0.246l-0.156-0.253l-0.24-0.44l-0.455-0.337l-0.162-0.35l0.027-0.258l-0.016-0.446l0.051-0.582
			l0.133-0.422l0.061-0.386l-0.117-0.159l-0.225-0.026l-0.295,0.01l-0.432,0.396l-0.352,0.488l-0.471,0.299l-1.344-0.269
			l-0.113,0.094l-0.293,0.101l-0.295,0.067l-0.438,0.215l-0.477,0.331l-0.617,0.536l-0.391,0.364l-0.16,0.14l-0.451,0.333
			l-0.639,0.374l-0.621,0.313l-0.541,0.178l-0.459,0.077l-0.502,0.022l-0.926,0.005l-0.244,0.012l-0.371,0.017l-0.283,0.049
			l-0.699,0.507l-0.289,0.181l-0.422,0.423l-0.121,0.18l-0.072,0.309l-0.035,0.154l0.016,0.231l0.211,0.224l0.301,0.618v0.229
			l0.008,0.13l-0.084,0.078l-0.174,0.065l-0.193,0.045l-0.133,0.026l-0.148,0.102l-0.094,0.253l-0.076,0.615l-0.096,0.615
			l-0.125,0.502l-0.09,0.344l-0.117,0.256l-0.252,0.222l-0.629,0.125l-0.773-0.005l-1.055,0.011l-0.752-0.079l-0.221,0.02
			l0.217,0.716l0.254,1.003l0.137,0.797l0.023,0.478l0.01,0.858l-0.07,0.731l-0.115,0.638l-0.375,0.703l-0.189,0.524l-0.248,0.644
			l-0.02,0.385l-0.148,0.922l-0.275,1.271l-0.285,0.742l-0.281,0.437l-0.703,1.119L235.51,0.3l-0.713,0.912l-0.684,1.044
			l-1.105,1.467l-0.893,1.209L231.486,5.8l-0.744,1.106l-0.453,0.822l-0.803,1.248l-0.785,1.163l-0.246,0.281l-0.646,0.947
			l-0.436,0.767l-0.338,0.569l-0.43,0.846l-0.275,0.529l-0.129,0.335l-0.174,0.41l-0.129,0.369l0.035,0.248l0.029,0.015l0.107,0.055
			l0.238-0.012l0.334-0.231l1.244-1.106l1.453-1.345l0.619-0.602l0.406-0.173l0.408-0.095l0.262-0.013l0.598,0.106l0.689,0.181
			l0.744,0.345l0.553,0.27l0.295,0.194l0.146,0.263l0.062,0.301l0.014,0.23l-0.086,0.386l-0.146,0.443l-0.168,0.526l-0.498,0.827
			l-0.59,0.734l-0.695,0.836l-0.518,0.828l-0.031,0.189l0.014,0.246l0.096,0.15l0.295,0.137l0.33,0.041l1.154-0.053l0.74-0.072
			l0.863-0.191l0.891-0.077l0.797-0.149l0.604-0.165l0.578-0.217l0.586-0.081l0.482-0.003l0.527,0.075l1.08,0.18l0.791,0.043
			l0.951,0.183l0.836,0.099l0.523,0.053l0.523-0.025l0.299-0.111l0.141-0.216l0.09-0.733l-0.016-0.244l0.104-0.138l0.154,0.027
			l0.229,0.181l0.18,0.05l0.152-0.026l0.143-0.159l0.01-0.248l0.09-0.288l0.332-0.357l0.582-0.523l0.393-0.383l0.242-0.354
			l0.074-0.231L247.215,14.705"/>
	</g>
</g>
<g id="Layer_1_1_">
</g>
</svg>
