<?xml version="1.0" encoding="utf-8"?>
<!-- Generator: Adobe Illustrator 16.0.4, SVG Export Plug-In . SVG Version: 6.00 Build 0)  -->
<!DOCTYPE svg PUBLIC "-//W3C//DTD SVG 1.1//EN" "http://www.w3.org/Graphics/SVG/1.1/DTD/svg11.dtd">
<svg version="1.1" id="Layer_1" xmlns="http://www.w3.org/2000/svg" xmlns:xlink="http://www.w3.org/1999/xlink" x="0px" y="0px"
	 width="301.086px" height="190.426px" viewBox="-128.137 -80.823 301.086 190.426"
	 style="enable-background:new -128.137 -80.823 301.086 190.426;" xml:space="preserve">
<g id="Layer_107">
	<path id="Quetta" style="fill:#CCCCCC;stroke:#FFFFFF;stroke-width:1.15;" d="M73.138,40.467L73.138,40.467l1.192-0.104
		l4.041,0.408l5.661-0.053l4.139,0.025l3.401-0.693l1.334-1.184l0.647-1.367l0.466-1.865l0.675-2.688l0.518-3.316l0.401-3.291
		l0.519-1.348l0.79-0.543l0.713-0.143l1.036-0.254l0.933-0.361l0.446-0.416l-0.031-0.691v-1.238l-1.613-3.316l-1.133-1.186
		L97.194,15.6l0.194-0.828l0.376-1.658l0.654-0.965l2.28-2.28l1.555-0.965l3.75-2.733l1.516-0.259l2.015-0.104l1.288-0.071
		l4.975-0.013l2.715-0.129l2.454-0.415l2.902-0.952l3.342-1.697l3.433-2.001l2.423-1.794l0.867-0.771l2.087-1.943l3.315-2.876
		l2.565-1.762l2.351-1.179l1.581-0.343l1.58-0.544l0.609-0.499l0.505-0.408l1.243-3.122l0.545-0.816l1.813-0.24l1.709-0.136
		l0.907-0.324l2.111-1.541l1.205-1.516l1.639-2.046l2.889-2.455l2.979-2.578l1.535-1.613l0.304-1.296l-0.271-1.062l-0.764-2.164
		l-0.318-2.351l-0.523-1.788l-0.738-1.548l-0.222-0.214l-0.899,0.395l-1.412,0.687l-1.632,0.972l-1.575,0.855l-0.582-0.46
		l-1.542-0.641l-2.195-0.615l-2.61-1.011l-1.801-0.829l-0.829-0.519l-0.362-0.745l-0.435-0.816l-0.829-0.596l-1.295-0.577
		l-1.25-0.854l-1.075-0.719l-0.927-0.791l-1.411-1.25l-0.778-0.984l-0.608-1.088l-0.143-1.179l-0.046-0.971l-0.064-1.244
		l-0.136-1.056l-0.356-0.822l-0.383-1.024l-0.084-1.593l0.124-0.765l0.129-0.7l0.201-0.835l0.434-0.524l0.984-1.146l1.433-1.717
		l2.513-3.141l1.068-1.146l1.289-1.432l0.356-0.842l-0.065-0.687h-0.227l-0.816,0.007l-0.718,0.123l-0.292-0.447l-1.386-0.609
		l-1.374-0.324l-0.395,0.052l-0.228,0.143l-0.045,0.382l-0.271,0.479l-0.331,0.194l-0.55,0.007l-0.622-0.428l-0.997-1.095
		l-0.693-0.958l-0.506-0.525l-0.395-0.188l-0.271,0.052l-0.163,0.194l-0.22,0.331l-0.271,0.479l-0.816,0.673l-3.453,1.697
		l-2.96,1.314l-0.99,0.538l-0.551,0.097l-1.095-0.175l-0.615-0.233l-0.836,0.014l-0.667,0.149l-0.99-0.046l-0.998-0.278
		l-0.557-0.039l-0.596,0.006l-0.888,0.395l-1.199,0.965l-2.784,2.176l-2.688,1.548l-0.913,0.609l-1.47,1.062l-1.749,2.021
		l-2.021,1.788l-0.854,1.341l-1.62,2.351l-1.755,1.782l-1.088,0.971l-1.101,0.583l-0.934,0.136l-2.584-0.148l-3.33-0.868
		l-2.26-0.343l-1.043-0.401l-0.395-0.479l-0.351-0.81l-0.44-0.376l-1.217-0.181l-0.83-0.175l-0.388,0.052l-0.331,0.24L87.323-52.5
		l-0.493,0.382l-0.388,0.285l-0.882,0.142l-0.829-0.084l-0.68-0.421l-0.667-0.428l-0.505-0.233l-0.7-0.084h-0.284l-0.369,0.143
		l-0.713-0.136l-0.953-0.609l-1.386-0.706l-0.945-0.803l-0.738-1.379l-0.849-1.697l-1.729-1.897l-1.302-2.041L72.38-64.01
		l-1.237-1.47l-1.062-1.185l-0.843-1.088l-0.466-1.995l-0.544-3.291l-0.402-0.946l-0.68-0.712l-0.842-0.706L65.073-76.2
		l-0.557-0.764v-0.11l-0.945,0.194l-3.297,0.991l-2.798,1.127l-1.594,0.738l-1.204,0.583L53.7-73.291l-1.173-0.033l-1.165-0.459
		l-0.888-0.473l-1.659-1.432l-0.368-0.058l-0.506,0.007l-0.382,0.246l-0.214,0.35l-0.059,0.511l-0.104,0.628l-0.154,0.577
		l-1.018,1.528l-0.803,1.205l-0.221,0.428l0.006,0.525l0.175,0.674l0.163,0.803l0.013,0.434l-0.33,0.719l-0.545,0.577l-1.088,1.107
		l-1.69,1.302l-1.082,1.399l-0.376,0.861l-0.311,0.913l-0.214,0.57l-0.485,1.056l-0.266,0.622l-0.026,2.137l-0.2,1.146l-0.816,0.868
		l-1.425,0.972l-0.596,0.576l-0.272,0.577l-0.045,0.479l0.065,0.803l0.459,0.868l0.389,0.388l0.227,0.389l0.117,0.285v0.194
		l-0.156,0.395l-0.764,0.706l-1.199,0.933l-0.692,1.049l-0.647,1.296l-0.596,1.334l-0.7,1.114l-0.375,1.036l-0.201,1.094
		l0.078,1.037l0.013,0.642l-0.331,0.505L30.609-37l-1.456,1.865l-1.251,1.587l-0.143,0.693l-0.207,0.965l-0.583,1.101l-1.956,2.403
		l-1.101,0.777l-0.875,0.395l-0.88,0.188l-0.823,0.233l-1.082,1.179l-0.81,1.101l-0.155,0.532l0.175,0.693l0.395,0.563l0.175,0.402
		l0.058,0.408l-0.369,1.101l-0.486,0.706l-0.661,0.427l-0.823,0.298l-0.596,0.35l-0.324,0.427l0.006,0.518l0.007,0.525l-0.214,0.583
		l-0.544,0.473l-0.259,0.531l-0.052,0.531l0.278,0.375l0.396,0.233l-0.155,0.628l-0.816,0.816l-1.127,1.503l-1.418,1.8l-0.972,0.926
		L11.145-8.63l-0.388,0.24l-0.272,0.285l-0.104,0.408l0.013,0.965L9.869-5.107L8.742-3.649L8.037-2.892L7.661-2.464L7.57-1.544
		L7.091-0.346l-1.671,1.8L3.677,2.582L3.14,2.796L2.473,3.068L1.151,3.138L0.167,3.152l-0.551,0.188l-0.485,0.285l-0.661,0.194
		l-0.44,0.007l-0.278-0.097l-0.22-0.182l-0.382,0.006L-3.234,3.67l-0.493,0.181l-0.919,0.395L-5.52,4.544l-1.321,0.071L-8.047,5.05
		l-0.809,0.816L-9.238,5.93l-0.667-0.051l-0.616-0.337l-1.496-0.972l-1.056-0.369l-1.489-0.415l-0.946-0.272l-0.285-0.518
		l-0.233-0.68l-0.829-0.415l-1.321-0.078l-1.425-0.026l-0.991-0.33l-0.673-0.518l-1.282-1.25l-1.685-2.105l-0.602-0.654
		l-0.492-0.213l-1.322-0.162l-2.869-0.143l-1.535,0.077l-0.829-0.168l-1.056-0.447l-0.505-0.506l-0.389-0.142l-0.991-0.039
		l-0.822,0.013l-0.991-0.324L-37.2-5.58l-0.557-0.609l-0.233-0.628v-0.35l-0.227-0.162h-0.331l-0.764,0.35l-1.315,0.259
		l-0.939-0.168l-1.658-0.609l-0.946-0.375l-0.382,0.051l-0.44,0.188l-0.816,0.544l-0.647,0.589l-0.428,0.57l-0.266,0.473
		l0.227,0.454l0.615,0.518l0.842,0.622l0.227,0.285v0.285L-45.51-3.06l-0.486,0.363l-0.382,0.233l-0.427,0.466l-0.097,0.92
		l-0.104,0.531L-47.22-0.08l-0.097,0.57l0.006,0.577l0.337,0.395l0.233,0.57l-0.149,0.395l-0.595,0.933l-0.266,0.622L-47.9,4.609
		l0.174,0.706l0.298,1.101l0.279,0.375l0.266,0.972l0.007,0.453l-0.162,0.24l-0.331,0.181l-1.218-0.324l-1.768-0.693l-0.829-0.331
		l-0.44,0.013l-0.926,0.298l-1.36,0.875l-0.816,0.427l-1.095,0.409l-1.321,0.258l-1.146,0.13l-0.881,0.013l-0.985-0.155
		l-0.499-0.278l-0.887-0.512l-0.667-0.136L-62.81,8.69l-0.428,0.414l-0.603,0.195l-0.55,0.006l-0.673-0.324l-0.998-0.408
		l-0.434,0.013l-1.153,0.136l-0.926,0.239l-1.043-0.032l-0.667-0.169l-0.771,0.007l-1.651,0.02l-1.321,0.097l-0.939-0.466
		l-1.01-1.037l-0.784-0.945l-0.551-0.143L-78.077,6.3l-2.416,0.382l-1.27,0.013l-0.492-0.168l-0.402-0.609l-0.68-1.049L-83.9,3.896
		l-0.953-0.343l-1.152,0.084l-1.146,0.259l-1.108-0.33l-0.402-0.674l-0.68-0.972l-0.661-0.271l-0.823,0.084l-0.609,0.285
		l-0.375,0.421l-0.317,0.868l-0.687,1.917l-0.401,1.211l-0.81,1.004l-0.758,0.771l-0.479,0.421l-1.094,0.369l-1.535,0.071
		l-0.602,0.188l-0.654,0.641l-1.062,1.348l-0.919,1.302l-0.473,0.816l-0.375,0.473l-0.382,0.239l-0.875,0.194l-0.719,0.065
		l-0.266,0.519l-0.343,0.771l-0.356,1.217l-0.207,0.699l-0.382,0.299l-0.978,0.299l-0.647,0.498l-0.324,0.531l-0.7,0.389
		l-0.713,0.252l-0.706,0.246l-0.479,0.693l-0.687,1.055l-0.369,1.199l-0.195,1.348l-0.362,0.965l-0.272,0.291l-0.428,0.24
		l-0.887,0.012l-0.661,0.111l-0.324,0.246l-0.039,0.414l-0.039,0.59l-0.389,0.344l-0.861,0.582l-0.266,0.473l-0.032,0.869
		l-0.168,0.291l-0.486,0.188l-0.544-0.143l-0.278-0.137l-0.551,0.014l-1.374,0.156l-1.425,0.07l-1.464-0.213l-0.388,0.557
		l-0.013,1.27l-0.039,3.588l0.564,1.873l0.382,1.248l2.656,1.686l2.125,1.367l5.979,4.402l2.15,1.562l3.277,1.658l0.92,0.926
		l4.657,3.258l0.428,0.318l5.117,3.568l4.949,3.453l0.757,0.691l0.117,1.062l-0.816,1.562l-0.583,1.139l-3.089,2.262l-4.262,6.916
		l-3.109,3.42l-1.581,0.48l-0.162,0.439l-0.097,0.246l-6.302,4.709l-5.389,4.516l-0.486,0.582l6.613,3.355l6.633,1.734l1.807-0.09
		l2.189-0.428l2.455-0.02l2.727,0.293l3.019,0.842l3.744,1.166l1.555,0.381h1.088l4.003-0.596l3.083-0.73l3.083-0.584l2.545-0.176
		l1.088,0.084l1.367,0.609l1.554,0.777l1.463,0.99l1.853,2.625l1.846,2.344l2.759,2.352l2.552,1.076l2.915,0.854l3.458,0.52
		l2.999-0.117l2.177-0.33l1.988-0.816l2.435-1.994l1.432-1.789l1.153-3.012l0.881-2.215l1.34-2.377l1.082-1.521l0.894-1.445
		l0.888-1.988l0.518-2.928l-0.02-1.982l-0.485-3.004l-0.285-1.51l-0.078-0.953l0.894-1.359l2.157-2.701l4.055-3.92l1.71-1.896
		l0.991-1.588l1.425-3.258l1.146-3.336l0.421-3.012l0.622-2.623l1.14-4.217l0.972-2.863l1.367-2.629l1.969-3.479l2.597-5.154
		l2.778-4.93l2.15-4.223l1.516-3.252l2.067-4.217l2.144-4.281l1.716-2.319l0.991-1.03l0.816-0.408l1.632-0.097l1.651-0.104
		l1.458-0.097l2.293,0.434l2.286,1.198l1.911,2.54l1.561,1.969l2.112,1.566l2.008,0.629l3.471,0.609l2.552,0.543l2.831,0.447
		l0.829,0.557l0.654,1.244l0.201,3.426l0.032,2.547l0.453,1.34l2.564,1.549l3.382,0.453l1.736,0.221l1.087,0.465l0.83,0.777
		l0.738,0.881l0.181,1.322l-0.265,0.971l-1.808,1.361l-2.093,0.492l-1.813,0.322l-1.186,0.473l-0.621,1.568l-0.091,1.258
		l0.013,1.438l0.467,1.424l1.464,1.096l1.917,0.543l1.464-0.238l3.238-0.246h0.907l0.913-0.137l1.632-0.971l2.352-1.361l0.298-0.221
		l4.418-3.588l2.352-1.691l0.725-0.33l1.27-0.084l0.726,0.227l2.649,0.855l3.019,1.088l3.834,0.545l3.588,0.201L73.138,40.467"/>
</g>
<g id="Layer_1_1_">
</g>
</svg>
