<?xml version="1.0" encoding="iso-8859-1"?>
<!-- Generator: Adobe Illustrator 16.0.4, SVG Export Plug-In . SVG Version: 6.00 Build 0)  -->
<!DOCTYPE svg PUBLIC "-//W3C//DTD SVG 1.1//EN" "http://www.w3.org/Graphics/SVG/1.1/DTD/svg11.dtd">
<svg version="1.1" xmlns="http://www.w3.org/2000/svg" xmlns:xlink="http://www.w3.org/1999/xlink" x="0px" y="0px"
	 width="71.921px" height="64.669px" viewBox="0 0 71.921 64.669" style="enable-background:new 0 0 71.921 64.669;"
	 xml:space="preserve">
<g id="Layer_176">
	<g id="Layer_181">
		<path id="Bahawalnagar" style="fill:#CCCCCC;stroke:#FFFFFF;stroke-width:1.07;" d="
			M69.521,0.981L69.521,0.981l-0.009,0.005L69.43,0.983l-0.061,0.02l-0.016,0.071l-0.027,0.123l-0.051,0.091l-0.054,0.111
			l-0.096,0.019l-0.179,0.005l-0.152-0.057l-0.031-0.113l-0.021-0.32l-0.025-0.248l-0.032-0.084l-0.046-0.043L68.58,0.546
			l-0.085,0.018l-0.136,0.101l-0.259,0.22L67.684,1.21l-0.281,0.208l-0.195,0.117l-0.182,0.099l-0.146,0.047l-0.144,0.037
			l-0.084,0.008l-0.038,0.051l-0.015,0.051l-0.01,0.248l-0.052,0.102l-0.073,0.039l-0.071-0.003L66.323,2.19l-0.068-0.062
			l0.01-0.258l-0.043-0.114L66.12,1.629l-0.187-0.118l-0.271-0.07l-0.268-0.049l-0.223-0.088l-0.118-0.015l-0.236-0.026
			l-0.152-0.058L64.525,1.16l-0.132-0.004L64.25,1.172l-0.204,0.056l-0.204,0.037l-0.264,0.053l-0.169,0.078l-0.097,0.049
			l-0.052,0.07l-0.004,0.092l-0.035,0.896L63.201,2.75L63.15,2.841L63.04,2.91l-0.287,0.053l-0.469,0.132L62.043,3.19l-0.23,0.127
			l-0.233,0.188L61.513,3.58l-0.071,0.008l-0.095-0.022l-0.09-0.127l-0.092-0.084l-0.08-0.074l-0.118-0.035l-0.392-0.031H60.23
			l-0.156,0.047l-0.12,0.059l-0.231,0.128l-0.122,0.09l-0.071,0.019l-0.061-0.013l-0.058-0.032l-0.09-0.137l-0.063-0.208
			l-0.045-0.073L59.05,3.006l-0.165-0.024l-0.202-0.006l-0.155,0.037l-0.134,0.066l-0.172,0.13l-0.147,0.16l-0.14,0.192
			l-0.139,0.232l-0.163,0.211l-0.121,0.069l-0.117-0.005l-0.048-0.053l-0.029-0.134l0.005-0.114l0.09-0.183l0.055-0.194
			l-0.031-0.125l-0.066-0.084l-0.28-0.084l-0.205,0.01l-0.287,0.053l-0.17,0.088L56.278,3.44l-0.034,0.095l-0.074,0.05l-0.096,0.039
			L55.93,3.64L55.8,3.606l-0.127-0.086l-0.222-0.121l-0.141-0.055L55.18,3.331l-0.132,0.018l-0.12,0.037l-0.073,0.07l-0.074,0.09
			l-0.039,0.082l-0.028,0.123L54.71,3.843l-0.006,0.145l-0.025,0.062l-0.061,0.029l-0.144-0.023l-0.197-0.089l-0.292-0.143
			l-0.177-0.065L53.584,3.71l-0.131,0.018L53.32,3.765l-0.157,0.078l-0.269,0.221l-0.332,0.299l-0.297,0.302l-0.261,0.292
			l-0.147,0.172l-0.143,0.284L51.67,5.528L51.608,5.59L51.561,5.61l-0.118-0.024l-0.129-0.045l-0.107-0.003l-0.083,0.02L51.084,5.64
			l0.009,0.092l0.041,0.166l-0.027,0.135L51.035,6.05l-0.094-0.054l-0.066-0.146l-0.111-0.158l-0.125-0.158l-0.141-0.086
			l-0.129-0.045L50.202,5.42l-0.097,0.038l-0.085,0.061l-0.038,0.07l-0.04,0.112l-0.104,0.202l-0.063,0.154l-0.005,0.123
			l0.066,0.114l0.057,0.115l0.101,0.157l0.031,0.146l-0.005,0.134l0.056,0.096l0.067,0.115l0.009,0.071l-0.024,0.029l-0.062,0.04
			l-0.143-0.004l-0.189,0.005l-0.072,0.02L49.613,7.28l-0.004,0.103l0.057,0.073l0.126,0.127l0.159,0.189l0.044,0.115l-0.04,0.103
			l-0.037,0.071L49.82,8.12l-0.097,0.008l-0.188-0.016l-0.162-0.086l-0.197-0.141l-0.208-0.16l-0.139-0.117l-0.151-0.086
			l-0.104-0.033l-0.152-0.045l-0.072,0.008l-0.072,0.07l-0.062,0.08l-0.026,0.071L48.16,7.787L48.133,7.89l-0.051,0.092l-0.039,0.08
			l-0.037,0.062l-0.014,0.052l0.038,0.061l0.067,0.095l0.01,0.083l-0.025,0.051l-0.038,0.04l-0.069-0.002l-0.178-0.035l-0.151-0.065
			l-0.2-0.058l-0.247-0.036l-0.096-0.004l-0.18,0.026l-0.107,0.06l-0.087,0.079l-0.026,0.082l-0.005,0.146l-0.028,0.123L46.63,8.942
			l-0.02,0.194l-0.021,0.269L46.583,9.61l0.043,0.136l0.011,0.36l0.062,0.291l0.099,0.238l0.135,0.2l0.123,0.219l0.032,0.065
			l0.01,0.052l-0.048,0.04l-0.062,0.05l-0.016,0.072l0.021,0.083l0.019,0.124l-0.025,0.082l-0.049,0.04L46.841,11.7l-0.07-0.002
			l-0.071-0.021l-0.137-0.139l-0.09-0.167l-0.041-0.196l-0.019-0.155l-0.032-0.082l-0.057-0.074l-0.141-0.045l-0.07-0.043
			l-0.067-0.084l0.003-0.104l-0.031-0.104l-0.058-0.053l-0.07-0.054l-0.163-0.065l-0.118,0.006l-0.145,0.039l-0.143-0.016
			l-0.212-0.035l-0.364-0.104l-0.259-0.059l-0.377-0.092l-0.247-0.079l-0.131,0.007L43.6,10.018l-0.037,0.052l-0.002,0.071
			l0.021,0.093l0.068,0.074l0.21,0.098l-0.162-0.025l-0.302,0.014l-0.257,0.033l-0.157-0.016l-0.08-0.034l-0.055-0.097l-0.059-0.129
			l-0.062-0.054l-0.095-0.026l-0.096-0.016l-0.112,0.003l-0.196,0.099l-0.106,0.035l-0.1,0.06l-0.152,0.181l-0.162,0.232
			l-0.119,0.143l-0.086,0.051l-0.136-0.002l-0.184-0.02l-0.241-0.029l-0.125,0.001l-0.103,0.069l-0.06,0.099l-0.11,0.22
			l-0.039,0.178l-0.057,0.089l-0.146,0.213l-0.064,0.129l-0.068,0.086l-0.12,0.035l-0.172-0.008l-0.192-0.087l-0.229-0.092
			l-0.205-0.088l-0.088,0.008l-0.119,0.088l-0.051,0.121l-0.021,0.095l-0.009,0.149l0.035,0.125l-0.021,0.187l-0.007,0.205
			l-0.08,0.138l-0.081,0.03l-0.107-0.019l-0.072-0.065l-0.229-0.319l-0.101-0.168l-0.104-0.146l-0.077-0.152l-0.18-0.376
			l-0.085-0.122l-0.07-0.023l-0.053,0.015l-0.063,0.063l-0.021,0.096l0.002,0.216l-0.047,0.22l-0.091,0.18l-0.145,0.149l-0.09,0.071
			l-0.152,0.072l-0.234,0.047l-0.09,0.071l-0.219,0.147l-0.19,0.131l-0.181,0.143l-0.214,0.127l-0.245,0.101l-0.337,0.118
			l-0.265,0.104l-0.231,0.092l-0.155,0.028l-0.187,0.056l-0.065,0.076l-0.007,0.085l0.044,0.083l0.144,0.088l0.128,0.043
			l0.132,0.021l0.125,0.053l0.167,0.094l0.026,0.102l0.027,0.104l-0.009,0.096l-0.042,0.078l-0.104,0.025l-0.071-0.011l-0.228-0.103
			l-0.213-0.221l-0.182-0.137l-0.479-0.371l-0.322-0.236l-0.325-0.216l-0.236-0.169l-0.304-0.146l-0.19-0.043l-0.216-0.035
			l-0.153,0.02l-0.309,0.165l-0.088,0.115l-0.039,0.123l0.006,0.206l0.041,0.093l0.126,0.28l0.167,0.318l0.098,0.297l0.058,0.14
			l-0.013,0.053l-0.044,0.09l-0.087,0.115l-0.121,0.101l-0.182,0.088l-0.271,0.106l-0.151,0.072l-0.07,0.097l-0.004,0.075
			l0.052,0.104l0.074,0.121l0.126,0.105l0.176,0.105l0.113,0.104l0.004,0.098l-0.035,0.049l-0.089,0.008l-0.326-0.043l-0.296-0.07
			l-0.168-0.027l-0.176,0.016l-0.195,0.097L30.45,16.2l-0.105,0.025l-0.209-0.013l-0.231-0.017l-0.449,0.012l-0.332,0.044
			l-0.129,0.022l-0.108-0.02l-0.101-0.049l-0.14-0.108l-0.11-0.233l-0.104-0.211l-0.24-0.32l-0.154-0.264l-0.181-0.203l-0.188-0.105
			l-0.215-0.1l-0.201-0.045l-0.297-0.004l-0.244,0.034l-0.169,0.093l-0.136,0.106l-0.044,0.09l-0.024,0.115l-0.042,0.198
			l-0.061,0.162l-0.137,0.172l-0.239,0.188l-0.251,0.187L25.5,16.06l-0.072,0.107l-0.075,0.117l-0.099,0.112l-0.116,0.17
			l-0.053,0.188l0.032,0.198l0.074,0.229l0.103,0.104l0.121,0.074l0.155,0.025l0.094,0.025l0.061,0.063l-0.013,0.062l-0.044,0.09
			l-0.101,0.061l-0.062,0.064l-0.026,0.023l-0.061-0.01l-0.289-0.083l-0.127-0.058l-0.115-0.115l-0.15-0.146l-0.065-0.144
			l-0.003-0.183l-0.126-0.227l-0.19-0.21l-0.034-0.253l-0.026-0.18l-0.035-0.119l-0.061-0.053L24.1,15.944l-0.077-0.064
			l-0.074-0.098l-0.049-0.121l-0.057-0.067l-0.084-0.06l-0.12-0.051l-0.229-0.02l-0.27,0.001l-0.359,0.014l-0.314,0.005
			l-0.261,0.023l-0.258,0.057l-0.146,0.073l-0.167,0.104l-0.196,0.178l-0.107,0.146l-0.069,0.137l-0.033,0.134l0.018,0.146
			l0.049,0.107l0.09,0.154l0.13,0.201l0.089,0.159l0.047,0.142l-0.01,0.065l-0.061,0.086L21.3,17.638l-0.206,0.132l-0.04,0.056
			l-0.027,0.145l-0.004,0.061l0.092,0.133l0.079,0.115l0.144,0.199l0.109,0.128l0.089,0.064l0.01,0.067l-0.014,0.094l-0.067,0.115
			l-0.194,0.154l-0.154,0.084l-0.123,0.012l-0.147-0.027l-0.162-0.084l-0.118-0.088l-0.105-0.082l-0.063-0.075l-0.052-0.138
			l-0.088-0.188l-0.108-0.244l-0.101-0.171l-0.014-0.102l-0.017-0.129l-0.054-0.041l-0.122-0.021l-0.169,0.033l-0.188,0.032
			l-0.05-0.002l-0.111-0.053l-0.129,0.002l-0.05,0.033l-0.174,0.023l-0.206,0.1l-0.11,0.102l-0.013,0.088l-0.041,0.06l-0.105,0.022
			l-0.091,0.078l-0.08,0.094l-0.014,0.068l0.048,0.228l0.098,0.219l-0.006,0.14l-0.032,0.067l-0.086-0.01l-0.104-0.046l-0.082-0.098
			l-0.031-0.166L18.081,18.7l-0.033-0.131l-0.037-0.027h-0.067l-0.068,0.06l-0.144,0.181l-0.075,0.207l0.043,0.112l0.118,0.142
			l0.148,0.114l0.148,0.15l0.071,0.088l0.006,0.087l-0.033,0.139l-0.053,0.312l-0.108,0.312l-0.102,0.109l-0.077,0.008l-0.085-0.037
			l-0.062-0.078L17.6,20.306l-0.075-0.055l-0.057-0.019l-0.093,0.005l-0.112-0.07l-0.092-0.08l-0.055-0.07l-0.075-0.062
			l-0.132-0.045l-0.174-0.013l-0.117,0.05l-0.109,0.104l-0.144,0.205l-0.151,0.171l-0.108,0.05l-0.222,0.006l-0.24,0.006
			l-0.135-0.004l-0.195,0.066l-0.118,0.066l-0.07,0.096l-0.107,0.041l-0.098,0.008l-0.092,0.119l-0.103,0.129l-0.064,0.172
			l-0.071,0.086l-0.146,0.059l-0.184,0.016l-0.231-0.004l-0.269-0.029l-0.221-0.012l-0.146-0.012l-0.23,0.023l-0.089,0.041
			l-0.061,0.034l-0.062,0.095l-0.046,0.137l-0.024,0.139l0.021,0.199l0.034,0.097l0.019,0.252l-0.015,0.312l0.013,0.19l-0.107,0.483
			l-0.144,0.543l-0.011,0.152l0.024,0.145l0.041,0.154l0.029,0.092l0.066,0.15l0.125,0.19l0.044,0.087l0.039,0.175l0.046,0.351
			l0.036,0.308l0.031,0.137l0.02,0.032l0.029,0.004l0.043-0.006l0.049-0.04l0.066-0.07l0.055-0.038l0.055,0.006l0.038,0.021
			l0.032,0.053l0.038,0.174l0.045,0.211l0.071,0.181l0.104,0.135l0.136,0.136l0.086,0.041l0.147,0.055l0.13,0.049l0.067,0.055
			l0.057,0.068l0.115,0.104l0.059,0.033l0.084,0.02h0.112l0.169-0.016l0.104-0.021h0.076l0.084,0.022l0.074,0.029l0.028,0.048
			l0.004,0.145l-0.02,0.18l0.015,0.07l0.038,0.051l0.054,0.033l0.082,0.014l0.214,0.027l0.179,0.041l0.175,0.065l0.208,0.092
			l0.055,0.072l0.018,0.067l-0.03,0.11v0.071l0.018,0.049l0.041,0.057l0.001,0.094l-0.022,0.175l-0.07,0.252l-0.028,0.146
			l-0.003,0.19l0.014,0.092l0.032,0.05l0.058,0.023l0.049,0.006l0.109-0.05l0.093-0.06l0.067-0.033l0.077-0.014l0.09,0.002
			l0.135,0.037l0.165,0.084l0.088,0.051l0.075,0.061l0.049,0.09l-0.001,0.102l-0.003,0.105l0.015,0.044l0.023,0.033l0.049,0.019
			l0.061-0.011l0.08-0.04l0.088-0.046l0.071-0.028l0.063-0.01l0.061,0.018l0.03,0.044l0.023,0.073l0.009,0.101l-0.003,0.136
			l-0.03,0.071l-0.034,0.053l-0.058,0.017l-0.079-0.004l-0.098-0.015l-0.052,0.003l-0.03,0.014l-0.021,0.035l-0.018,0.043
			l-0.049,0.035l-0.053,0.034l-0.012,0.019l-0.008,0.047l0.028,0.062l0.035,0.045l0.005,0.041l-0.008,0.078l0.01,0.043l0.022,0.037
			l0.033,0.031l0.061,0.023l0.039,0.033l0.019,0.045l-0.016,0.085l-0.027,0.103l-0.022,0.065l-0.023,0.107l-0.048,0.049
			l-0.055,0.008l-0.059,0.007l-0.062,0.019l-0.046,0.058l-0.018,0.059l0.016,0.058v0.058l-0.001,0.071l0.045,0.029l0.027,0.008
			l0.065-0.013l0.049-0.01l0.027,0.008l0.019,0.02l0.002,0.036l-0.019,0.054l-0.019,0.104l0.02,0.045l0.063,0.03l0.057,0.002
			l0.06-0.022l0.04-0.041l0.05-0.039l0.055-0.008l0.059,0.021l0.107,0.013l0.081,0.001l0.061-0.027l0.062-0.041l0.045-0.023
			l0.073-0.01l0.112,0.014l0.066,0.025l0.03,0.027l0.016,0.043l0.01,0.057l0.007,0.051l0.03,0.045l0.054,0.031l0.048,0.037
			l0.025,0.041l0.021,0.068l0.019,0.049l0.035,0.027l0.034,0.006l0.083-0.004l0.107,0.021l0.098,0.039l0.062,0.07l0.034,0.075
			l0.03,0.084l0.004,0.103l0.026,0.092l0.033,0.037l0.069,0.02l0.051,0.014l0.035,0.027l0.021,0.051l0.003,0.076l-0.016,0.044
			l-0.098,0.058l-0.062,0.041l-0.053,0.021h-0.112l-0.062,0.02l-0.061,0.053l-0.037,0.043l0.001,0.055l0.062,0.07l0.016,0.053
			l-0.018,0.049l-0.017,0.014l-0.096,0.015l-0.107,0.019l-0.094,0.02l-0.062,0.031l-0.029,0.041l-0.024,0.066l-0.004,0.068
			l0.013,0.054l0.021,0.021l0.036,0.014l0.021,0.011l0.027,0.062l0.018,0.054l0.028,0.019l0.044,0.002l0.109-0.019l0.118-0.021
			l0.071,0.002l0.098,0.021l0.077,0.027l0.055,0.045l0.046,0.084l0.021,0.095l0.038,0.05l0.055,0.029l0.106,0.029l0.068,0.033
			l0.045,0.043l0.019,0.08l0.011,0.108l-0.015,0.165l-0.007,0.171l-0.003,0.119l0.042,0.108l0.045,0.084l0.031,0.07l0.016,0.07
			L19.85,35.34l-0.023,0.349l-0.051,0.447l-0.036,0.394l-0.006,0.14l0.011,0.098l0.002,0.105l-0.02,0.052l-0.023,0.025h-0.046
			l-0.049,0.009l-0.036,0.018l-0.03,0.065l-0.023,0.052l-0.027,0.022l-0.072,0.003l-0.134,0.007h-0.193l-0.125,0.011l-0.047,0.018
			l-0.065,0.039l-0.059,0.051l-0.053,0.061l-0.029,0.066l-0.021,0.088l-0.022,0.118l-0.012,0.114l-0.005,0.141l-0.01,0.109
			l-0.024,0.068l-0.041,0.04l-0.076,0.032l-0.057,0.016l-0.195,0.008l-0.124,0.006l-0.076,0.015l-0.061,0.041l-0.057,0.056
			l-0.044,0.051l-0.064,0.025L17.77,38.31l-0.054,0.024l-0.064,0.039l-0.068,0.034l-0.065,0.014l-0.099,0.016l-0.092,0.045
			l-0.084,0.035l-0.033,0.035l-0.011,0.059l-0.019,0.049l-0.032,0.035l-0.063,0.021l-0.135,0.02l-0.099,0.019l-0.1,0.025
			L16.684,38.8l-0.271,0.035l-0.052,0.15l-0.134,0.096l-0.151,0.074l-0.08,0.057l-0.025,0.039l0.001,0.104l0.004,0.195l0.038,0.607
			l-0.045,0.347l-0.047,0.371l0.031,0.267l0.113,0.275l0.148,0.258l0.157,0.242l0.146,0.1l0.209,0.092l0.265,0.154l0.184,0.146
			l0.14,0.251l0.064,0.125l0.073,0.046l0.09-0.001l0.143-0.065l0.205-0.104l0.224-0.19l0.132-0.16l0.07-0.088l0.126-0.05
			l0.179-0.024l0.18-0.02l0.154,0.029l0.062,0.029l0.028,0.062l-0.017,0.096l-0.054,0.079l0.011,0.048l0.055,0.047l0.068,0.051
			l0.101,0.134l0.093,0.172l0.003,0.144l-0.043,0.086l-0.044,0.071l0.001,0.062l0.028,0.056l0.102,0.155l0.103,0.173l0.108,0.068
			l0.073,0.031l0.126-0.01l0.08-0.041l0.098-0.088l0.204-0.168l0.188-0.113l0.105-0.049l0.101-0.002l0.072,0.031l0.108,0.076
			l0.058,0.109l0.062,0.039l0.072-0.001l0.1,0.015l0.063,0.039l0.055,0.039l0.072-0.002l0.033-0.07l-0.019-0.057l0.008-0.078
			l0.054-0.033h0.1l0.062,0.039l0.038,0.086l0.027,0.055l0.046,0.031l0.072-0.002l0.045-0.008l0.035-0.049l0.016-0.109l0.016-0.135
			l0.016-0.175l0.018-0.069l0.089-0.033l0.101-0.002h0.054l0.055,0.047l0.083,0.094l0.121,0.211l0.066,0.26l-0.017,0.127
			l-0.069,0.086l-0.144,0.065l-0.188,0.026l-0.251,0.002l-0.198,0.012l-0.107,0.064l-0.069,0.096l-0.105,0.096l-0.099,0.064
			l-0.151,0.041h-0.071l-0.117-0.021l-0.082-0.029l-0.138-0.084l-0.091-0.031l-0.261-0.02l-0.137-0.039l-0.162-0.013l-0.045,0.001
			l-0.054,0.057l-0.017,0.062l-0.044,0.087l-0.054,0.009l-0.045-0.008l-0.056-0.031l-0.063-0.093l-0.038-0.071l-0.09-0.014
			l-0.107,0.002l-0.288,0.043l-0.106,0.049l-0.079,0.08l-0.112,0.237l-0.062,0.12l-0.062,0.016l-0.035,0.001l-0.055-0.03
			l-0.072,0.016l-0.045,0.033l-0.079,0.125l-0.051,0.127l-0.087,0.205l0.011,0.056l0.037,0.055l0.099,0.009l0.064,0.045l0.046,0.086
			l-0.007,0.11l-0.062,0.058L18.21,45.53l-0.116,0.031l-0.062,0.049l-0.025,0.049l-0.009,0.055l0.011,0.086l0.037,0.071l0.136,0.037
			l0.1-0.001l0.071,0.021l0.028,0.039l0.046,0.031l0.071-0.001l0.07-0.033l0.035-0.087l-0.002-0.062l-0.026-0.039l-0.011-0.055
			l0.025-0.041l0.062-0.056l0.152-0.019l0.108,0.021l0.072,0.031l0.056,0.054l0.021,0.142l0.003,0.15l0.011,0.062l0.062,0.039
			l0.063,0.015l0.135-0.026l0.125-0.057l0.116-0.025l0.099-0.009l0.081-0.001l0.081-0.002l0.062-0.055l0.08-0.09l0.055-0.031h0.062
			l0.063,0.014l0.036,0.057l-0.007,0.125l-0.034,0.127l0.021,0.062l0.062,0.07l0.074,0.055l0.036,0.062l-0.008,0.07l-0.025,0.057
			l-0.062,0.103l0.001,0.063l0.047,0.086l0.155,0.123l0.136,0.062l0.081,0.016l0.396-0.029l0.198-0.002l0.146,0.045l0.055,0.029
			l-0.008,0.071l-0.035,0.04l-0.125,0.064l-0.216,0.019l-0.262-0.004l-0.226-0.028l-0.207,0.004l-0.161,0.024l-0.19,0.106
			l-0.205,0.113l-0.151,0.088l-0.107,0.019l-0.099-0.022l-0.101-0.068l-0.165-0.124l-0.199-0.093l-0.197-0.004l-0.135,0.057
			l-0.168,0.129l-0.115,0.096l-0.133,0.137l-0.133,0.064l-0.091,0.002l-0.063-0.023l-0.092-0.086l-0.147-0.193l-0.062-0.078
			l-0.082-0.055l-0.091-0.021l-0.1,0.01l-0.062,0.063l-0.079,0.11l-0.089,0.08l-0.106,0.025l-0.1-0.007l-0.101-0.054l-0.164-0.115
			l-0.173-0.094l-0.183-0.092l-0.154-0.084l-0.135-0.021l-0.145-0.021l-0.128-0.067l-0.092-0.078l-0.092-0.095l-0.1-0.067
			l-0.083-0.094l-0.104-0.164l-0.071-0.089l-0.102-0.123l-0.101-0.094l-0.162-0.053l-0.522,0.008l-0.458,0.021l-0.478,0.008
			l-0.296,0.036l-0.449,0.038l-0.458,0.038l-0.386,0.038l-0.343-0.004L11.325,46.3l-0.182-0.027l-0.117-0.039l-0.07,0.024
			l-0.026,0.041l-0.016,0.087l-0.025,0.096l-0.07,0.096l-0.196,0.064l-0.115,0.033l-0.153,0.012l-0.116,0.002l-0.09,0.024
			l-0.105,0.063l-0.1,0.025l-0.071-0.016l-0.055-0.018l-0.099,0.032L9.63,46.873l-0.008,0.069l0.01,0.056l0.092,0.094l0.073,0.056
			L9.79,47.217L9.764,47.28l-0.196,0.082l-0.221,0.16L9.169,47.66L8.91,47.79l-0.161,0.02l-0.108-0.021l-0.046-0.07L8.53,47.656
			l-0.172-0.013l-0.098,0.023l-0.215,0.074l-0.16,0.02l-0.118,0.002l-0.099-0.021l-0.072-0.022l-0.117,0.003l-0.233,0.02
			L6.94,47.769L6.582,47.79l-0.146-0.014l-0.207-0.053l-0.271-0.011L5.617,47.75l-0.089,0.049l-0.062,0.097l-0.062,0.047
			L5.198,47.97l-0.161,0.012l-0.198-0.028l-0.235-0.115l-0.29-0.151L4.085,47.5l-0.128-0.092l-0.064-0.07l-0.03-0.142L3.86,47.101
			l-0.002-0.102l0.024-0.119l-0.001-0.047l-0.047-0.086l-0.082-0.03l-0.137-0.028l-0.054-0.008l-0.027-0.055l-0.02-0.055
			l-0.028-0.016l-0.151,0.002l-0.107,0.01l-0.044,0.057l-0.053,0.062l-0.09,0.019l-0.091,0.009l-0.034,0.041l-0.044,0.049
			l-0.024,0.094l-0.071,0.033l-0.081,0.01l-0.09,0.017L2.5,46.968l-0.099,0.04l-0.105,0.089l-0.062,0.041l-0.081,0.01l-0.071,0.002
			l-0.046-0.008l-0.011-0.047l-0.01-0.062l-0.019-0.047l-0.037-0.031l-0.092-0.006l-0.053,0.031L1.71,47.06l-0.055,0.024
			l-0.135,0.011l-0.072,0.002l-0.116-0.021l-0.091,0.01l-0.07,0.01l-0.045,0.031L1.047,47.19L0.94,47.286l-0.067,0.12l0.001,0.063
			l0.038,0.069l0.091,0.053l0.055,0.031l0.046,0.039l0.027,0.055l0.002,0.062l-0.025,0.047l-0.062,0.041l-0.09,0.024l-0.099,0.002
			l-0.126,0.019l-0.045,0.024L0.651,47.96l-0.044,0.064l-0.032,0.142l0.003,0.11l0.037,0.086l0.083,0.062l0.136,0.022l0.152,0.004
			l0.082,0.046l0.047,0.069l0.011,0.057l0.002,0.102l-0.061,0.135l-0.125,0.127l-0.132,0.13L0.67,49.261l-0.077,0.143l-0.05,0.166
			l0.012,0.127l0.074,0.107l0.156,0.141l0.245,0.145l0.092,0.062l0.027,0.07L1.126,50.3l-0.124,0.112l-0.104,0.151L0.82,50.69
			l-0.032,0.15l0.002,0.11l0.021,0.094l0.057,0.07l0.127,0.062l0.243,0.059l0.082,0.046l0.037,0.039l-0.014,0.085l-0.06,0.158
			l-0.235,0.328l-0.061,0.183l0.003,0.103l0.029,0.103l0.109,0.093l0.127,0.029l0.377-0.016l0.135,0.006l0.072,0.03l0.063,0.062
			l0.03,0.166l0.047,0.873l0.03,0.143l0.064,0.07l0.116,0.045l0.182,0.027l0.115-0.011l0.086-0.062l0.044-0.024l0.024-0.079
			L2.64,53.489l-0.021-0.117l-0.002-0.095l0.016-0.071l0.062-0.088l0.08-0.033l0.08-0.04l0.108,0.03l0.055,0.054l0.136,0.029
			l0.108-0.002l0.079-0.041l0.062-0.071l0.104-0.137l0.024-0.062l-0.01-0.048l-0.011-0.086L3.506,52.49l-0.022-0.197l-0.01-0.022
			l-0.027-0.062l-0.048-0.117L3.36,51.989l0.025-0.079l0.034-0.048l0.089-0.033l0.081-0.001l0.073,0.077l0.156,0.187l0.204,0.271
			l0.173,0.108l0.126,0.027l0.101-0.001l0.106,0.03l0.193,0.178l0.304,0.373l0.49,0.631l0.438,0.684l0.481,0.711l0.541,0.951
			l0.303,0.728l0.068,0.229l0.168,0.744l0.111,0.598l0.146,0.533l0.201,0.588l0.434,1.018l0.426,1.017l0.229,0.626l0.104,0.235
			l0.131,0.28l0.287,0.461l0.188,0.398l0.095,0.274l0.062,0.146l0.373-0.191l0.306-0.155l1.199-0.685l0.019-0.01l0.318-0.158
			l0.361-0.303l0.087-0.023l0.185-0.049l0.765-0.412L14,61.624l0.516-0.252l0.477-0.232l0.176-0.16l0.132,0.008l0.02,0.002
			l0.132-0.141l2.229-1.255l0.238-0.177l0.154-0.115l0.535-0.279l0.241-0.096l0.086-0.035l0.622-0.346l0.069-0.05l0.28-0.203
			l0.65-0.237l0.438-0.16l0.718-0.293l0.308-0.125l2.747-1.045l1.004-0.359l0.604-0.231l1.206-0.461l0.151-0.019l0.731-0.286
			l0.341-0.271l0.75-1.449l0.055-0.164l0.06-0.178l1.438-2.881l0.021-0.084l0.024-0.097l0.199-0.245l0.848-0.866l0.312-0.319
			l0.43-0.513l0.016-0.016l2.171-2.384l0.018-0.06l0.052-0.178l0.801-1.306l0.555-0.906l0.047-0.182l1.827-2.938l0.887-1.475
			l0.516-0.825l0.192-0.31l0.165-0.279l0.498-0.846l0.093-0.274l0.053-0.056l0.008-0.009l0.185-0.198l0.412-0.713l0.14-0.242
			l0.139-0.36l0.133-0.093l0.688-1.248l0.13-0.336l0.33-0.858l0.557-1.728l0.453-1.402l0.283-0.936l0.276-0.916l0.104-0.318
			l0.188-0.582l0.095-0.303l0.065-0.094l0.068-0.097l-0.002-0.069l-0.005-0.205l0.277-0.74l0.164-0.568l0.311-1.023l0.661-2.184
			l0.316-1.033l0.007-0.102l0.008-0.117l0.045-0.027l0.044-0.029l0.036-0.228l0.015-0.095l0.143-0.384l0.126-0.339l0.104-0.273
			l0.096-0.339l0.164-0.581l0.488-0.354l2.438-0.896l3.471-1.284l0.122-0.046l0.202-0.073l0.828-0.302l1.653-0.515l0.462-0.068
			l0.004-0.001l3.42-0.844l0.209-0.024l2.236-0.541l0.266-0.129l0.463-0.115l0.663-0.244l0.438-0.422l0.293-0.326l0.872-0.719
			l0.19-0.09l0.042-0.02l0.02-0.021l0.116-0.139l2.266-1.586l0.312-0.27l0.725-0.427l0.045-0.026l0.567-0.379l0.041-0.031
			l0.776-0.592L71.376,6.3l-0.098-0.941L71.19,4.515l-0.326-1.369l-0.146-0.322l-0.218-0.484l-0.07-0.148l-0.107-0.227l-0.528-0.648
			l-0.164-0.198L69.521,0.981"/>
	</g>
</g>
<g id="Layer_1">
</g>
</svg>
