<?xml version="1.0" encoding="utf-8"?>
<!-- Generator: Adobe Illustrator 16.0.4, SVG Export Plug-In . SVG Version: 6.00 Build 0)  -->
<!DOCTYPE svg PUBLIC "-//W3C//DTD SVG 1.1//EN" "http://www.w3.org/Graphics/SVG/1.1/DTD/svg11.dtd">
<svg version="1.1" id="Layer_1" xmlns="http://www.w3.org/2000/svg" xmlns:xlink="http://www.w3.org/1999/xlink" x="0px" y="0px"
	 width="301.095px" height="153.658px" viewBox="-103.025 -52.4 301.095 153.658"
	 style="enable-background:new -103.025 -52.4 301.095 153.658;" xml:space="preserve">
<g id="Layer_103">
	<path id="Panjgur" style="fill:#CCCCCC;stroke:#FFFFFF;stroke-width:1.15;" d="M-97.478,34.943L-97.478,34.943l0.723,1.235
		l0.191,0.192l0.608,0.51l0.945,0.899l0.685,0.964l0.544,0.78l0.843,1.064l1.787,1.469l0.675,0.837l0.31,0.715l0.003,0.543
		l-0.361,0.997l-1.605,1.335l-1.132,0.917l-0.963,1.351l-0.928,1.326l-0.23,0.319l-0.197,0.543l-0.1,0.513l0.139,0.543l0.471,0.268
		l1.073,0.066l1.507-0.1l1.138-0.036l0.371,0.078l0.2,0.205l0.035,0.208l-0.062,0.305l-0.331,0.605l-0.467,0.576l-0.136,0.361
		l0.238,0.269l0.333,0.117l0.738-0.093l1.37-0.449l1.306-0.337l0.703-0.154l0.538,0.026l0.299,0.091l0.238,0.298l-0.031,0.664
		l-0.36,0.666l-1.971,1.585l-1.264,1.183l-0.362,0.816l0.105,0.51l0.569,0.581l1.275,0.296l1.608,0.111l2.177,0.172l1.074,0.189
		l1.104-0.123l1.328-0.368l1.135-0.319l0.804-0.322l1.135-0.578l0.971-0.202l1.237-0.374l1.938-0.79l2.509-0.796l1.405-0.438
		l2.639-1.154l3.179-1.309l2.872-0.855l1.237-0.277l1.91-0.426l1.506-0.156l1.072-0.045h0.771l0.537,0.084l2.35,0.718l3.317,1.221
		l4.214,1.306l1.608,0.6l1.979,0.811l1.275,0.783l1.138,0.598l3.522,1.682l2.815,1.293l0.837,0.426l0.469,0.325l0.234,0.845
		l-0.133,0.448l-0.132,0.189l-0.168,0.085h-0.336l-0.333-0.12l-0.334-0.078h-0.469l-0.437,0.184l-0.502,0.241l-0.537,0.187h-0.637
		l-0.366-0.153l-0.338-0.358l-0.301-0.239l-0.266,0.007l-0.27,0.081l-0.2,0.332l-0.504,0.237l-0.502,0.078h-0.738l-0.602,0.094
		l-0.269,0.185l-0.13,0.392l-0.164,1.172l-0.367,0.58l-0.336,0.15l-0.437-0.03l-0.669-0.299l-0.235-0.12h-0.229l-0.368,0.319
		l-0.266,0.991l0.033,0.725l0.603,0.689l0.772,0.422l0.636,0.193l1.237-0.003l1.771-0.335l1.673-0.271l1.272-0.033l0.904,0.179
		l0.87,0.361l0.571,0.813l0.203,0.902l-0.197,2.125l-0.299,1.956l-0.296,2.008l0.033,1.738l0.17,0.965l0.302,0.661l0.217,0.858
		l0.154,0.579l0.07,0.192l0.535,0.697l1.062,0.174l1.257-0.189l1.962-0.355l1.95-0.576l1.399-0.561l1.104-0.039l0.797,0.114
		l1.012-0.322l1.024-0.1l1.522,0.364l1.517,0.317l0.71-0.034l0.777-0.321l0.763-0.667l1.132-1.182l1.234-0.756l3.658-1.412
		l2.55-0.512l2.121-0.358l2.133-0.066l2.852,0.105l2.565,0.766l2.173,0.854l3.192,2.52l3.401,3.792l2.287,1.704l2.957,2.679
		l0.674,0.975l2.478,2.622l3.584,3.409l2.356,1.562l1.515,0.376l1.188,0.091l1.803-0.331l4.86-0.871l5.001-1.369l2.757-0.223
		l3.384-0.322l2.383,0.353l1.83,0.227l0.859-0.098l1.223-1.036l1.079-0.745l1.23-0.751l1.549-0.831l2.961-1.233L63.534,90
		l1.396-0.754l1.148-1.033l1.056-1.46l0.343-1.223l0.196-1.146l0.355-1.278l2.402,1.125l3.057,1.401l3.937,1.733l0.748,0.416
		l-1.893-4.774l-1.14-3.75l-0.103-4.69l1.193-2.479l2.05-1.735l3.147-0.646l6.329-0.232l3.474,0.052l6.11,0.202l10.42,0.572
		l7.503,0.485l5.137-0.413l4.663-0.292l3.705,0.048l4.561,0.464l3.346-0.066l2.268-0.452l0.935-0.662l0.702-0.98l0.202-1.609
		l-0.146-1.498l-1.724-2.342l-0.398-2.146l-0.03-1.398l0.935-1.414l2.231-2.297l3.418-2.852l5.438-3.85l5.962-4.802l4.606-3.729
		l4.727-4.052l4.015-3.714l2.72-2.622l2.712-2.84l3.184-3.488l3.068-3.485l2.961-2.638l2.128-1.962l1.085-1.489l1.158-2.81
		l2.332-4.669l1.158-3.247l0.201-1.085l-1.979-0.163l-1.245,0.1l-1.251,0.338l-1.248,0.319l-0.922,0.223l-0.459-0.006l-0.581-0.302
		l-1.303-0.603l-0.841-0.313l-0.845-0.588l-0.578-0.536l-0.452-0.838l0.015-0.766l-0.184-0.982l-0.393-0.313l-0.656-0.063
		l-0.65-0.313l-0.836-0.778l-0.432-1.824l-0.861-3.71l-1.345-2.306l-1.736-2.122l-1.098-0.838l-1.464-0.471l-1.771-0.322
		l-2.764,0.263l-2.17,0.383l-1.447-0.015l-1.833-0.256l-0.585-0.362l-0.385-0.467l-0.055-0.76l0.024-1.643l-0.755-2.589
		l-1.145-2.252l-1.356-1.718l-0.368-1.531l-0.045-1.996l-0.374-1.528l-0.639-1.48l-1.486-1.658l-1.797-1.733l-0.455-0.193
		l-0.524-0.121l-0.461,0.111l-0.594,0.347l-1.197,0.925l-0.729,0.522l-0.53,0.168l-0.79,0.066l-1.118,0.329l-6.159,3.53
		l-3.441,2.249l-3.443,1.974l-4.305,2.719l-3.509,2.249l-3.369,2.086l-2.776,1.616l-3.554,1.875l-2.9,1.257l-2.243,0.814
		l-1.506,0.045l-1.109-0.244l-0.785-0.896l-0.578-0.579l-1.178-0.479l-1.442-0.304l-1.105-0.549l-1.305-1.305l-1.885-1.772
		l-2.345-1.546l-5.884-2.861l-4.972-2.67l-1.371-0.772l-0.407-0.527l-0.127-0.455l0.134-0.531l0.811-1.869l0.276-1.757l0.07-1.103
		l-0.323-0.651l-0.973-1l-0.455-0.841l-0.254-1.477l-0.061-1.116l-0.12-0.648l-0.524-0.53l-1.176-0.706l-1.242-0.771l-0.524-0.588
		l-0.187-1.115l0.071-1.471l-0.253-0.467L78.75-43.58l-0.85-0.588l-0.585-0.992l-0.579-1.001l-0.892-1.73l-0.979-0.884l-0.114-0.069
		l-0.872-0.473l-0.656-0.003l-0.534,0.066l-0.588,0.347l-0.662,0.528l-0.863,0.982l-0.597,0.642l-0.331,0.76l-0.076,0.711v0.53
		l-0.196,0.41l-0.265,0.232l-0.527,0.115l-0.922,0.29l-1.056,0.292l-1.519,0.706l-1.119,0.639l-0.666,0.455l-0.594,0.582
		l-0.865,1.35l-1.128,1.351l-2.049,1.99l-1.522,1.751l-0.724,0.41l-0.53,0.35l-0.531,0.642L54.9-32.843l-0.724,0.221l-0.397,0.53
		l-0.199,0.347l-0.322,0.066l-0.271-0.187l-0.323-0.822l-0.253-0.524l-0.46-0.193l-0.329-0.003l-0.332,0.353l-0.597,0.877
		l-0.533,1.287l-0.895,1.169l-1.452,1.049l-1.91,0.992l-1.643,0.223l-2.101,0.175l-1.97,0.111l-1.908,0.449l-1.447,0.464
		l-1.186,1.052l-0.401,0.648v0.763l0.26,0.822l0.65,1.074l0.719,0.985l0.26,0.766l-0.003,0.708l-0.266,1.221l-0.799,2.933
		l-1.325,2.52l-0.824,1.411l-0.922,0.82l-1.383,1.052l-0.525,0.066l-0.327-0.118l-0.13-0.235l-0.064-0.823l0.662-1.643l1.646-1.814
		l1.322-2.05l0.599-1.591l0.002-1.064l-0.064-0.823l-0.453-1.061l-0.521-0.534l-1.445-0.416l-1.771,0.066l-5.189-0.25l-2.892-0.244
		l-1.707-0.417l-1.051-0.54l-1.048-0.829l-1.966-1.061l-3.675-2.415L8.75-30.106l-0.63-0.636l-0.653-0.88L7.401-32.2v-0.588
		l0.395-0.938l0.068-0.588v-0.579l-0.59-0.471l-1.638-1.528l-1.248-1.866l-1.904-1.414l-1.643-1.185l-0.983-1.064l-0.525-0.941
		l-0.461-0.527l-0.593-0.299l-0.98-0.304l-1.314-0.057l-1.646-0.003l-1.053,0.34l-1.71,0.832l-2.044,1.176l-1.185,0.527
		l-1.187,0.292l-1.579,0.118l-3.223,0.193l-2.763,0.338l-2.235,0.307l-2.108-0.114l-1.441-0.347l-1.646-0.579l-1.642-0.232
		l-0.658,0.111l-0.265,0.344l-0.393,0.467l-0.593,1.115l-0.456,0.341l-0.92,0.467l-1.97,0.419l-4.276,0.477l-3.876,0.124
		l-3.88-0.058l-1.976,0.187l-1.246,0.295l-1.445,0.473l-0.722,0.531l-1.117,0.355l-1.448,0.063L-55.7-36.21l-1.121-0.582
		l-1.383-0.407l-1.448,0.003l-1.314,0.178l-0.79,0.121l-1.118,0.002l-1.842-0.217l-1.825-0.301l-2.105-0.166l-3.025-0.226
		l-0.684-0.109l-0.824-0.226l-1.053-0.37l-1.492,0.464l4.521,2.336l2.527,1.715l1.817,4.015l0.52,1.149l-0.562,1.197l-1.229,0.892
		l-1.691,0.856l-2.194,1.703l-2.219,2.505l0.027,4.703l0.077,15.072l0.509,1.02l2.019,4.042l0.642,1.877l-0.752,1.257l-9.071,1.954
		l-0.177,0.048l-1.451,0.727l1.42,9.646l-0.443,3.889l-0.335,0.844l-3.08,7.859l-0.502,2.927l-0.921,0.467l-0.707-0.187l-3.661,0.06
		l-4.864,0.066L-97.478,34.943"/>
</g>
<g id="Layer_1_1_">
</g>
</svg>
