<?xml version="1.0" encoding="utf-8"?>
<!-- Generator: Adobe Illustrator 16.0.4, SVG Export Plug-In . SVG Version: 6.00 Build 0)  -->
<!DOCTYPE svg PUBLIC "-//W3C//DTD SVG 1.1//EN" "http://www.w3.org/Graphics/SVG/1.1/DTD/svg11.dtd">
<svg version="1.1" id="Layer_1" xmlns="http://www.w3.org/2000/svg" xmlns:xlink="http://www.w3.org/1999/xlink" x="0px" y="0px"
	 width="301.073px" height="140.14px" viewBox="-118.764 -55.245 301.073 140.14"
	 style="enable-background:new -118.764 -55.245 301.073 140.14;" xml:space="preserve">
<g id="Layer_27">
	<path id="Chakwal" style="fill:#CCCCCC;stroke:#FFFFFF;stroke-width:1.15;" d="M-77.264,82.189L-77.264,82.189l0.064-0.609
		l0.287-1.439l0.255-1.002l0.661-0.52l0.783-0.527l0.524-0.146h0.715l1.129,0.078l0.875-0.102l0.751-0.178l0.26-0.199l0.095-0.174
		l-0.095-0.383l-0.551-0.232l-0.141-0.227l-0.241-0.547l-0.009-0.783l0.196-0.773l0.574-0.676l0.784-0.582l1.525-0.502l1.235-0.393
		l4.176-1.229l3.211-1.094l1.499-0.473l0.647-0.348l0.783-0.678l1.289-1.23l1.631-1.166l0.92-0.547l0.875-0.271l2.938-0.922
		l0.957-0.264l1.617-0.373l1.403-0.355l1.262-0.5l0.374-0.43l0.132-0.473l0.237-0.266l0.51-0.268l1.403-0.297l0.988-0.469
		l0.542-0.609l0.287-0.697l0.086-0.434l0.237-0.486l0.374-0.328l0.678-0.383l0.67-0.52l0.264-0.688l-0.005-0.67l-0.1-0.896
		l-0.101-1.061l-0.355-1.473l-0.483-1.389l-0.292-1.326l-0.305-1.215l-0.101-0.785l-0.004-0.6l0.337-0.291l0.952-0.273l0.875-0.027
		l0.546,0.199l0.178,0.465l0.082,0.947l0.104,0.547l0.132,0.438l0.378,0.287l0.538,0.031l2.665-0.078l2.573,0.238l3.02,0.711
		l1.403,0.189l0.884,0.027l1.53-0.391l1.157-0.287l1.421,0.02l2.747,0.445L-15.115,51l2.027,0.428l1.68,0.328l1.918,0.018
		l2.564-0.154l2.532-0.383l1.189-0.201l0.515-0.062l0.583-0.027l0.492,0.09l0.104,0.256l0.073,0.691l0.556,1.094l0.929,1.125
		l1.339,0.746l1.029,0.307L3.1,55.545l0.459,0.283l0.173,0.469l0.292,0.914l0.382,0.617l0.31,0.371l0.378,0.229l0.615,0.055
		l0.957-0.062l0.377-0.033l0.333,0.088l0.255,0.441l0.101,1.01v0.748l-0.173,1.871l0.059,0.775l0.278,0.609l0.415,0.232l0.715-0.068
		l0.92-0.609l0.442-0.113h0.506l0.92,0.312l0.305,0.342l0.168,0.318l0.005,0.492l0.036,0.43l0.141,0.691l0.323,0.373l0.961,0.064
		l1.084-0.174l0.888-0.273l0.442-0.227l0.342-0.756l0.31-1.254l0.342-0.574l0.442-0.494l1.671-0.904l1.057-0.783l0.87-1.064
		l0.82-0.875l1.266-1.102l1.371-1.066l0.848-0.51l0.492-0.209l0.679-0.092l1.267,0.264l1.065,0.256l0.925-0.037l0.993-0.227
		l0.934-0.785l0.496-0.592l0.725-1.531l1.199-0.674l0.879-0.428l0.822-0.605l0.324-0.305L36.431,51l0.684,0.482l0.307,0.473
		l0.189,0.662l0.061,1.137l-0.287,1.039l-0.615,1.035l-0.502,0.682l-0.309,0.385l-0.018,0.271l0.15,0.26l0.432,0.229l0.324-0.041
		l0.668-0.359l0.611-0.338l0.377-0.02l0.488,0.174l0.725,0.113l1.234-0.008l1.215,0.229l0.307,0.285l0.246,0.307l0.021,0.291
		l-0.377,0.4l-0.215,0.355l-0.291,1.094l-0.188,0.855l0.092,0.975l0.428,0.365l0.473,0.062l0.502-0.072l0.447,0.119l0.326,0.332
		l0.084,0.479l0.227,2.414l0.02,0.037l2.23,1.529l1.703,1.34l1.066,0.975l2.123,0.691l1.803,0.201l1.654,0.209l2.842,0.037
		l1.039-0.283l2.814-0.592l2.068-0.564l2.523-0.584l1.912-0.811l1.781-0.301l1.48-0.291l0.729-0.027l1.203-0.154l1.461-0.557
		l1.457-0.924l0.543-0.902l0.051-0.551l-0.293-1.094l-0.92-1.822l-0.961-1.693l-0.268-0.373l-0.098-0.291l-0.021-0.33l0.168-0.592
		l0.334-0.482l0.23-0.383l0.033-0.5l0.014-0.965l-0.293-0.84l-0.227-0.756l-0.033-0.746l0.17-0.512l0.523-0.35l0.939-0.242
		l1.393-0.045l0.783-0.191l0.588-0.393l0.332-0.381l0.332-0.266l0.482-0.1l1.148,0.061l1.266,0.121l0.611,0.201l0.492,0.451
		l0.533,0.906l0.514,0.363l1.367,0.547l0.609,0.355l0.416,0.41l0.109,0.418l0.021,0.502l0.086,0.756l0.434,0.912l0.916,0.482
		l0.605,0.154l0.787-0.109l0.652-0.436l0.678-0.229l1.145-0.082l1.225,0.1l0.967,0.564l0.682,0.428l0.807,0.529l0.441,0.346
		l0.256,0.246l0.072,0.074l0.164,0.209l0.346,0.254l0.424,0.184l0.348,0.26l0.289,0.244l0.074,0.252l0.086,0.373l0.072,0.342
		l0.146,0.182l0.256,0.191l0.4,0.123l0.775,0.068l0.51,0.096l0.588,0.1l0.404-0.027l0.4-0.219l0.291-0.186l0.146-0.369v-0.346
		l-0.119-0.748l-0.182-0.465l-0.182-0.373l-0.051-0.246l0.092-0.191l0.188-0.146h0.287l0.455,0.092l0.404,0.256l0.584,0.119
		l0.66,0.189l0.629,0.037h0.691l0.951,0.037l1.672,0.014l1.463,0.004l1.311-0.15l0.684-0.113l0.82-0.252l0.5-0.236l0.293-0.346
		l0.1-0.277v-0.342l-0.145-0.252l0.004-0.332l0.188-0.346l0.332-0.332l0.328-0.184l0.4-0.066l0.682,0.096l0.73,0.191l1.074,0.189
		l0.916,0.137l1.084,0.156l1.064,0.254l0.85,0.096l0.564,0.02l0.951-0.193l0.506-0.145l0.387-0.281l0.455-0.416l0.219-0.436
		l0.297-0.621l0.281-0.646l0.115-0.465l-0.074-0.391l-0.154-0.242l-0.096-0.4l-0.004-0.379l0.1-0.465l0.182-0.264l0.26-0.146h0.338
		h0.414l0.488-0.104l0.564-0.215l0.5-0.209l0.156-0.127l0.082-0.191l0.004-0.291v-0.266l0.154-0.287l0.27-0.104h0.326l0.488,0.154
		l0.314,0.045l0.283-0.062l0.096-0.156l0.1-0.285l0.055-0.26V48.85l0.137-0.393l0.232-0.148l0.297-0.088l0.209,0.018l0.264,0.252
		l0.26,0.438l0.291,0.582l0.113,0.373l0.102,0.547l0.141,0.465l0.109,0.441l0.27,0.342l0.322,0.27l0.246,0.045l0.119-0.064
		l0.205-0.199l0.291-0.174l0.295-0.1l0.311-0.074l0.359,0.074l0.355,0.154l0.473,0.246l0.361,0.219l0.465,0.465l0.291,0.324
		l0.287,0.486l0.291,0.393l0.42,0.326l0.482,0.393l0.861,0.486l0.697,0.488l0.658,0.242l0.717,0.131l0.623,0.096l0.475,0.029
		l0.477-0.064l0.42-0.174l0.393-0.26l0.209-0.373l0.037-0.684l-0.1-0.656l-0.074-0.418v-0.365l0.004-0.391l-0.059-0.42l-0.141-0.441
		l0.031-0.523l0.158-0.502l0.361-0.383l0.473-0.264l0.598-0.236l0.842-0.375l0.934-0.51l0.461-0.281l0.24-0.174l0.297-0.045
		l0.51,0.008l0.592,0.047l0.488,0.109l0.537,0.131h0.27l0.209-0.039l0.205-0.201l0.16-0.123l0.182-0.088l0.318,0.051h0.393h0.285
		l0.293-0.154l0.418-0.297l0.393-0.318l0.242-0.264l0.004-0.27l-0.123-0.541l-0.178-0.328l-0.078-0.266l0.055-0.258l0.246-0.307
		l0.246-0.219l0.26-0.039h0.27l0.559,0.094l0.52,0.092l0.619,0.051l0.629-0.023l0.301-0.119l0.291-0.264l0.043-0.301l-0.102-0.332
		l-0.176-0.441l-0.18-0.373l-0.096-0.393l0.082-0.342l0.133-0.199l0.232-0.129h0.359l0.719,0.137l1.34,0.182l1.043,0.209
		l0.926,0.152l0.568,0.162l0.205,0.129l0.109,0.246l0.209,0.328l0.246,0.191l0.287,0.137l0.41,0.027h1.303l1.604,0.008l1.316,0.051
		l0.541-0.086l0.297-0.238l0.209-0.291l0.16-0.492l0.277-0.523l0.242-0.277l0.264-0.201l0.309-0.172l0.416-0.037l0.541,0.045
		l0.803,0.184l1.012,0.059l0.719,0.105l0.67,0.199l1.256,0.359l0.355,0.068h0.328l0.305-0.141l0.447-0.324l0.16-0.223l0.154-0.514
		l0.09-0.594l0.033-0.477l-0.096-0.424l-0.174-0.168l-0.359-0.184l-0.287-0.201l-0.209-0.24l-0.205-0.352l-0.215-0.545l-0.291-1.377
		l-0.141-1.07l-0.324-0.965l-0.291-1.029l-0.287-1.18l-0.287-1.32l-0.146-0.762l-0.15-0.965l-0.082-0.283l-0.123-0.182l-0.236-0.109
		h-0.291h-0.311l-0.322-0.092l-0.086-0.109l-0.074-0.264l0.082-0.42l0.055-0.564l-0.041-0.629l-0.096-0.326l-0.383-0.529
		l-0.688-0.791l-0.77-0.73l-0.619-0.564l-0.291-0.268l-0.133-0.051h-0.104l-0.098,0.09l-0.104,0.221l-0.178,0.299l-0.174,0.238
		l-0.178,0.219l-0.186,0.15l-0.277,0.086l-0.32,0.041l-0.643-0.096l-1.088-0.201l-0.775-0.227l-0.951-0.379l-0.547-0.27
		l-0.592-0.027l-0.906-0.055l-0.68-0.049l-1.402-0.01l-0.846-0.055h-0.885l-0.91,0.037l-0.488-0.697l-0.141-0.441l-0.291-0.438
		l-0.406-0.461l-0.561-0.287l-0.492-0.363l-0.223-0.324l-0.068-0.346l0.102-0.227l0.094-0.111l0.139-0.082l0.23-0.199l0.16-0.154
		l0.096-0.229l0.141-0.264l0.129-0.338l0.428-0.859l0.291-0.82l0.133-0.688l0.109-1.137l-0.043-1.162l-0.289-1.51l-0.275-0.617
		l-0.109-0.383l0.102-0.28l0.158-0.209l0.191-0.182l0.293-0.037l0.582,0.032l0.393,0.062l0.482-0.062l0.256-0.144l0.24-0.257
		l0.164-0.339l0.047-0.364l-0.02-0.369l0.078-0.223l0.219-0.235l0.271-0.223l0.133-0.191l0.045-0.205l0.01-0.205l-0.014-0.626
		l0.092-1.398l0.291-1.571l0.096-0.321l0.229-0.476l0.281-0.328l0.393-0.349l0.422-0.51l0.385-0.478l0.928-1.209l0.922-1.007
		l1.055-0.99l0.729-0.802l0.602-0.783l0.711-0.97l0.102-0.419l0.34-1.459l0.137-0.718l0.209-0.207l0.26-0.063l0.191-0.142
		l0.26-0.098l0.42-0.442l0.605-0.784l0.229-0.644l0.059-0.463l-0.064-0.48l-0.4-0.567l-1.85-1.89l-2.732-2.626l-0.4-0.569
		l-0.01-0.157l0.096-0.323l0.014-0.232l-0.154-0.36l-0.287-0.446l-0.277-0.413l-0.17-0.326l0.023-0.298l0.123-0.214l0.26-0.467
		l0.793-1.46l0.121-0.421l-0.002-0.366l-0.08-0.281l-0.268-0.444l-0.264-0.508l-0.15-0.561l0.004-0.401l0.137-0.517l0.342-0.556
		l0.633-0.649l0.879-0.913l1.266-0.868l-0.141-0.209l-0.154-0.206l-0.15-0.191l-0.127-0.164l-0.133-0.13l-0.127-0.093l-0.096-0.057
		l-0.105-0.022l-0.096,0.004l-0.1,0.023l-0.078,0.043l-0.1,0.05l-0.072,0.057l-0.082,0.057l-0.086,0.055l-0.064,0.057l-0.086,0.055
		l-0.064,0.053l-0.061,0.045l-0.066,0.043l-0.061,0.041l-0.041,0.037l-0.018,0.034l-0.041,0.023l-0.033,0.022l-0.031,0.019
		l-0.031,0.016l-0.023,0.009l-0.023,0.009l-0.027,0.004h-0.031h-0.031l-0.027-0.004l-0.027-0.009l-0.023-0.016l-0.021-0.018
		l-0.018-0.019l-0.016-0.027l-0.021-0.027l-0.023-0.034l-0.014-0.032l-0.023-0.034l-0.027-0.037l0.006-0.032l-0.033-0.037
		l-0.041-0.034l-0.068-0.032l-0.045-0.039l-0.062-0.032l-0.074-0.027l-0.068-0.027l-0.068-0.03l-0.072-0.023l-0.059-0.027
		l-0.064-0.03l-0.078-0.027l-0.059-0.027l-0.068-0.022l-0.072-0.021l-0.068-0.014l-0.055-0.014l-0.082-0.004l-0.07-0.005
		l-0.086,0.005l-0.076,0.004l-0.068,0.009l-0.092,0.014l-0.059,0.02l-0.072,0.014l-0.074,0.019l-0.055,0.014l-0.064,0.014
		l-0.055,0.018l-0.053,0.014l-0.041,0.011l-0.051,0.009l-0.033,0.009h-0.035l-0.037-0.005l-0.037-0.004l-0.025-0.009l-0.037-0.016
		l-0.027-0.014l-0.027-0.019l-0.041-0.018l-0.041-0.019l-0.045-0.022l-0.045-0.021l-0.047-0.018l-0.051-0.018l-0.055-0.014
		l-0.049-0.009l-0.047-0.011h-0.049h-0.061l-0.055,0.006l-0.066,0.009l-0.096,0.019l-0.074,0.014l-0.117,0.027l-0.139,0.034
		l-0.176,0.037l-0.205,0.041l-0.25,0.048l-0.26,0.048l-0.293,0.05l-0.287,0.046l-0.301,0.048l-0.295,0.041l-0.318,0.039
		l-0.314,0.032l-0.332,0.027l-0.334,0.03l-0.318,0.019l-0.342,0.018l-0.328,0.014l-0.346,0.009l-0.318,0.004l-0.314,0.005
		l-0.311,0.004h-0.291l-0.287,0.007l-0.256,0.009l-0.227,0.018l-0.178,0.018l-0.143,0.027l-0.094,0.039l-0.096,0.042l-0.055,0.043
		l-0.041,0.05l-0.031,0.045l-0.016,0.048l-0.021,0.041l-0.027,0.043l-0.023,0.037l-0.018,0.032l-0.037,0.034l-0.037,0.027
		l-0.045,0.023l-0.051,0.02l-0.045,0.014l-0.049,0.014l-0.051,0.005l-0.064,0.004h-0.055h-0.051h-0.072h-0.055l-0.055-0.004
		l-0.072-0.005l-0.055-0.004l-0.059-0.009l-0.059-0.009l-0.064-0.009L152.4-25.95l-0.045-0.014l-0.064-0.014l-0.035-0.014
		l-0.047-0.014l-0.014-0.019l-0.031-0.021l-0.027-0.018l-0.033-0.023l-0.018-0.022l-0.014-0.027l-0.008-0.039l-0.006-0.032
		l-0.004-0.039v-0.036v-0.032v-0.043v-0.032l-0.004-0.039l-0.01-0.036l-0.01-0.037l-0.023-0.039l-0.018-0.032l-0.018-0.031
		l-0.027-0.03l-0.031-0.032l-0.033-0.022l-0.027-0.023l-0.031-0.009l-0.031-0.016l-0.037-0.009l-0.045-0.009l-0.037-0.004h-0.037
		h-0.035l-0.043,0.009l-0.049,0.009l-0.045,0.016l-0.047,0.019l-0.031,0.013l-0.045,0.019l-0.033,0.014l-0.035,0.018l-0.031,0.018
		l-0.033,0.021l-0.027,0.022l-0.027,0.018l-0.027,0.027l-0.018,0.034l-0.018,0.032l-0.023,0.037l-0.027,0.043l-0.02,0.045
		l-0.012,0.057l-0.016,0.055l-0.018,0.057l-0.018,0.066l-0.02,0.063l-0.012,0.066l-0.016,0.066l-0.012,0.063l-0.01,0.062
		l-0.01,0.066l-0.023,0.064l-0.012,0.066l-0.01,0.07l-0.01,0.064l-0.004,0.065l-0.004,0.066l-0.01,0.071l-0.004,0.073l-0.01,0.08
		l-0.014,0.088l-0.023,0.094l-0.023,0.107l-0.031,0.111l-0.041,0.128l-0.037,0.13l-0.035,0.134l-0.055,0.141l-0.041,0.134
		l-0.055,0.13l-0.037,0.127l-0.045,0.116l-0.037,0.107l-0.035,0.098l-0.041,0.098l-0.037,0.089l-0.018,0.08l-0.041,0.068
		l-0.033,0.066l-0.031,0.057l-0.045,0.055l-0.037,0.048l-0.041,0.041l-0.027,0.039l-0.037,0.032l-0.049,0.032l-0.047,0.034
		l-0.039,0.023l-0.043,0.027l-0.039,0.025l-0.047,0.022l-0.055,0.019l-0.045,0.019l-0.051,0.014l-0.062,0.013l-0.064,0.009
		l-0.055,0.004l-0.059,0.005l-0.068,0.007l-0.064,0.004l-0.064,0.004h-0.086l-0.064,0.004l-0.09,0.005l-0.064,0.009l-0.068,0.005
		l-0.086,0.009h-0.051l-0.064,0.005l-0.09,0.009l-0.055,0.01l-0.064,0.004h-0.082h-0.059h-0.064l-0.082-0.004l-0.068-0.01
		l-0.066-0.014l-0.074-0.014l-0.078-0.018l-0.096-0.025l-0.082-0.027l-0.094-0.036l-0.096-0.043l-0.092-0.046l-0.088-0.057
		l-0.072-0.06l-0.086-0.07l-0.078-0.075l-0.08-0.084l-0.078-0.088l-0.092-0.086l-0.082-0.096l-0.086-0.096l-0.102-0.1l-0.096-0.1
		l-0.1-0.104l-0.096-0.098l-0.1-0.098l-0.102-0.098l-0.094-0.098l-0.082-0.083l-0.096-0.075l-0.088-0.066l-0.082-0.055l-0.062-0.052
		l-0.051-0.048l-0.064-0.041l-0.027-0.036l-0.035-0.043l-0.02-0.041l-0.012-0.048l-0.01-0.05v-0.057v-0.059l0.01-0.071l0.008-0.075
		l0.01-0.084l0.004-0.093l0.006-0.103l0.008-0.107v-0.116l0.004-0.137l0.006-0.139v-0.157v-0.168v-0.182v-0.196v-0.205l0.014-0.209
		v-0.212v-0.214l0.014-0.201l0.01-0.196l0.012-0.177l0.02-0.157l0.014-0.141l0.014-0.125l0.008-0.103l-0.018-0.089l-0.018-0.075
		l-0.047-0.05l-0.066-0.048l-0.102-0.027l-0.096-0.014l-0.123-0.004l-0.141,0.004l-0.137,0.009l-0.154,0.014l-0.16,0.018
		l-0.15,0.019l-0.146,0.021l-0.127,0.018l-0.137,0.023l-0.127,0.014l-0.113,0.014l-0.115,0.018l-0.094,0.016l-0.111,0.013
		l-0.094,0.014l-0.102,0.01l-0.096,0.014l-0.1,0.004l-0.096,0.005l-0.1,0.005h-0.096l-0.111-0.005l-0.09-0.009l-0.1-0.01
		l-0.096-0.009l-0.096-0.009l-0.082-0.005h-0.086l-0.061,0.009l-0.045,0.019l-0.047,0.034l-0.012,0.041l-0.016,0.05v0.057
		l0.01,0.066l0.01,0.068l0.014,0.07l0.018,0.071l0.01,0.068l0.004,0.07l0.006,0.066v0.066l-0.006,0.068l-0.004,0.066v0.07
		l-0.018,0.064l-0.016,0.071l-0.027,0.066l-0.027,0.07l-0.025,0.068l-0.033,0.066l-0.037,0.066l-0.031,0.059l-0.055,0.062
		l-0.041,0.062l-0.049,0.059l-0.051,0.052l-0.072,0.055l-0.055,0.057l-0.064,0.059l-0.082,0.066l-0.059,0.071l-0.074,0.073
		l-0.08,0.084l-0.078,0.089l-0.086,0.093l-0.084,0.098l-0.082,0.098l-0.094,0.106l-0.088,0.109l-0.096,0.111l-0.092,0.112
		l-0.066,0.116l-0.088,0.116l-0.09,0.116l-0.088,0.119l-0.09,0.121l-0.082,0.111l-0.082,0.116l-0.082,0.112l-0.072,0.111
		l-0.084,0.114l-0.082,0.107l-0.072,0.107l-0.09,0.103l-0.082,0.103l-0.098,0.098l-0.094,0.098l-0.102,0.098l-0.094,0.093
		l-0.102,0.089l-0.096,0.084l-0.109,0.078l-0.109,0.075l-0.123,0.071l-0.123,0.062l-0.131,0.055l-0.129,0.057l-0.131,0.055
		l-0.133,0.057l-0.127,0.057l-0.109,0.051l-0.113,0.066l-0.119,0.07l-0.113,0.073l-0.125,0.079l-0.135,0.089l-0.143,0.093
		l-0.182,0.098l-0.191,0.107l-0.223,0.116l-0.242,0.127l-0.254,0.129l-0.283,0.13l-0.287,0.132l-0.291,0.125l-0.283,0.116
		l-0.287,0.116l-0.291,0.103l-0.287,0.098l-0.287,0.084l-0.271,0.071l-0.275,0.061l-0.254,0.046l-0.246,0.032l-0.246,0.019
		l-0.223,0.006h-0.209l-0.205-0.016l-0.184-0.023l-0.164-0.027l-0.148-0.037l-0.129-0.039l-0.119-0.032l-0.09-0.043l-0.096-0.036
		l-0.082-0.037l-0.068-0.043l-0.061-0.046l-0.049-0.053l-0.037-0.054l-0.045-0.071l-0.045-0.075l-0.041-0.084l-0.037-0.084
		l-0.041-0.087l-0.027-0.096l-0.037-0.086l-0.014-0.084l-0.014-0.084l-0.004-0.075l0.004-0.07l0.006-0.068l0.012-0.071l0.027-0.071
		l0.025-0.073l0.029-0.08l0.037-0.093l0.027-0.098l0.041-0.107l0.047-0.114l0.035-0.121l0.033-0.125l0.035-0.132l0.037-0.134
		l0.021-0.14l0.02-0.141l0.023-0.139l0.012-0.141l0.006-0.139l0.004-0.136l-0.004-0.13v-0.125l-0.014-0.121l-0.014-0.112
		l-0.01-0.105l-0.023-0.098l-0.012-0.093l-0.023-0.086l-0.027-0.084l-0.027-0.08l-0.041-0.075l-0.041-0.075l-0.064-0.068
		l-0.051-0.066l-0.062-0.066l-0.068-0.059l-0.072-0.062l-0.068-0.066l-0.078-0.06l-0.076-0.062l-0.092-0.066l-0.086-0.059
		l-0.098-0.062l-0.094-0.054l-0.088-0.057l-0.09-0.046l-0.102-0.047l-0.096-0.041l-0.1-0.039l-0.096-0.031l-0.1-0.027l-0.096-0.03
		l-0.102-0.027l-0.09-0.023l-0.078-0.022l-0.072-0.025l-0.064-0.023l-0.045-0.022l-0.047-0.023l-0.031-0.025l-0.031-0.023
		l-0.014-0.023l-0.018-0.022l-0.01-0.025v-0.027l0.023-0.019l0.027-0.027l0.031-0.039l0.059-0.037l0.068-0.047l0.096-0.055
		l0.102-0.061l0.109-0.071l0.117-0.078l0.113-0.084l0.096-0.089l0.102-0.093l0.072-0.098l0.027-0.098l-0.014-0.098l-0.064-0.107
		l-0.105-0.112l-0.117-0.127l-0.164-0.134l-0.191-0.144l-0.223-0.164l-0.25-0.187l-0.283-0.196l-0.291-0.191l-0.305-0.155
		l-0.338-0.089l-0.373,0.011l-0.406,0.135l-0.441,0.289l-0.547,0.13l-0.369-0.066l-0.865-0.391l-1.07-0.629l-0.287-0.214
		l-0.869,0.228l-0.871,0.444l-0.664-0.121l-0.76-0.435l-0.602-0.391l-0.529-0.258l-1.002,0.132l-0.629,0.192l-0.438,0.111
		l-0.555-0.239l-0.529-0.583l-0.486-1.157l-0.438-0.544l-0.816-0.373l-0.482-0.49l-0.545-0.765l-0.471-0.979l0.168-0.895
		l-0.045-0.645l-0.096-0.633l-0.178-0.784l-0.131-0.804l-0.492-1.175l-0.674-0.717l-1.193-0.066l-1.391,0.121l-2.275,0.328
		l-1.168,0.307l-0.654,0.307l-0.936,0.249l-0.486-0.025l-0.91-0.396l-1.084-0.665l-1.004,0.442l-0.924,0.075l-0.873,0.271
		l-0.699,0.405l-0.549,0.326l-0.502,0.057l-0.697-0.29l0.041-0.075l-0.561-0.178l-0.855-0.53l-0.373-0.141l-0.557,0.177
		l-0.188,0.196l-0.053,1.189l-0.441,0.112l-0.699-0.196L89.613-39l-0.701,0.019l-0.482-0.335l-0.621-0.877l-1.023-0.294l-1.262-0.61
		l-1.891-1.298l-2.182-1.198l-1.133-0.729l-0.762-0.605l-0.729-0.08l-1.348,0.191l-1.623-0.428l-2.299-0.471l-1.35-0.142
		l-0.482-0.139l-0.154-0.779l-0.137-0.574l-0.738-0.699l-1.023-0.881l-0.738-0.526l-1.062,0.148l-1.146,0.601l-1.184,0.075
		l-0.949-0.471l-0.531-0.178l-1.008,0.645l-0.625,0.271l-1.064-0.141l-1.115-0.784l-0.84-0.214l-0.363,0.155l-0.66,0.797
		l-0.328,0.761l-0.797,0.858L55.63-46l-1.252,0.435l-0.26-0.347l0.045-0.904l-0.242-0.061h-0.34l-0.475,0.041l-0.875,0.034
		l-0.615-0.111l-0.369-0.123l-0.646-0.019l-0.586,0.08l-0.457,0.066l-0.492,0.125l-0.369,0.022l-0.371-0.075l-0.439-0.224
		l-0.678-0.285l-0.506-0.275l-0.391-0.264l-0.402-0.378l-0.824-0.988l-0.514-0.622l-0.592-0.825l-0.484-0.489l-0.445-0.298
		l-0.51-0.221l-0.297-0.055l-0.438-0.027l-0.373-0.1L40.646-52.2l-0.684-0.228l-0.482-0.084l-0.611-0.027l-0.428,0.098l-0.109,0.228
		l-0.523,0.369l-0.68,0.61l-0.596,0.574l-1.84,1.61l-0.471,0.415l-0.445,0.342l-0.41,0.41l-0.441,0.569l-0.629,0.927l-0.342,0.503
		l-0.196,0.378l-0.096,0.471l-0.382,1.314l-0.209,0.644l-0.36,0.832l-0.492,0.82l-0.241,0.364l-0.574,0.517l-0.574,0.449
		l-0.761,0.476l-0.679,0.275l-0.983,0.25l-0.879,0.173l-1.129,0.111l-0.998,0.004l-1.38-0.066l-0.492,0.043l-0.756,0.045
		l-0.792,0.127l-1.052,0.242l-0.729,0.218l-0.656,0.235l-0.483,0.148l-0.925,0.155l-1.343,0.089l-0.979,0.022l-0.419-0.05
		l-0.925-0.057l-0.942-0.057l-0.993-0.125l-1.226-0.098L8.429-38.03L8.06-38.105l-0.843-0.121l-0.811-0.08l-0.555-0.06l-0.733-0.009
		l-0.542,0.036l-0.382,0.046l-0.529,0.114L3.128-38.03l-0.524,0.267l-0.605,0.387l-0.729,0.551l-0.497,0.375l-0.351,0.141
		l-0.501,0.152l-0.519,0.155l-0.646,0.116l-0.775,0.053l-0.92,0.063l-0.747,0.128l-0.761,0.205l-0.492,0.255l-0.661,0.275
		l-0.469,0.107l-0.683,0.084l-0.824,0.039l-0.62-0.013l-0.583-0.119l-0.533-0.273l-0.5-0.239l-0.483-0.121l-0.52-0.159l-1.348-0.681
		l-0.287-0.084l-0.292-0.054l-0.296,0.036l-0.191,0.15l-0.291,0.228l-0.406,0.334l-0.264,0.111l-0.423,0.146l-0.561,0.098
		l-0.797,0.07l-2.045,0.036l-0.988-0.009l-0.83-0.045l-0.601-0.075l-0.519-0.141l-0.392-0.264l-0.497-0.426l-0.542-0.544
		l-0.337-0.249l-0.446-0.298l-0.447-0.186l-0.383-0.126l-0.469-0.123l-0.292-0.116l-0.519-0.33l-1.18-0.832l-1.39-0.753
		l-0.328-0.191l-0.292-0.039l-0.228,0.034l-0.155,0.13l-0.086,0.276l-0.068,0.373l0.014,1.039l0.137,1.592l0.096,0.842l-0.014,0.751
		l-0.131,0.551l-0.287,0.485l-0.684,0.642l-0.893,0.948l-0.742,0.957l-0.474,0.508l-0.351,0.448l-0.182,0.438l-0.287,0.31
		l-0.341,0.269l-0.355,0.141l-0.519,0.13l-0.497,0.032L-35-29.027l-0.455-0.027l-0.711-0.187l-1.704-0.622l-0.76-0.257l-0.479-0.082
		l-0.688-0.03l-0.942-0.014l-1.143,0.018l-1.303,0.016l-1.071,0.107l-0.779,0.05l-0.729,0.053l-0.602-0.075l-1.339-0.331
		l-0.678-0.186l-0.287-0.119l-0.419-0.278l-0.737-0.533l-0.583-0.326l-0.378-0.127l-0.587-0.152l-0.424-0.103l-0.474-0.034
		l-0.414,0.03l-0.597,0.036l-1.567-0.07l-1.458-0.167l-2.1-0.408l-2.031,0.934l-1.048,0.271l-0.523,0.153l-1.367,0.524l-0.451,0.111
		l-0.724-0.027l-1.065-0.271l-2.045-0.223l-0.583-0.03l-0.533,0.066l-0.387,0.205l-0.497,0.248l-0.296,0.027l-0.574-0.164
		l-0.751,0.062l-0.884,0.369l-0.715,0.415l-0.602,0.62l-1.371,1.512l-1.917,1.791l-2.519,2.086l-1.339,1.016l-2.865,1.628
		l-1.822,1.041l-0.711,0.326l-2.619,0.289l-3.216,0.444l-1.449,0.205l-2.013,0.549l-1.84,0.592l-1.74,0.688l-1.967,0.811
		l-1.148,0.578l-1.075,0.708l-1.653,1.362l-0.606,0.289l-0.697,0.103l-0.961,0.146l-1.726,0.371l-2.191,0.221l-1.758,0.285
		l0.055,0.111l-0.037,0.369l-0.341,0.605l-0.219,0.579v0.553l0.123,0.658l0.246,0.472l0.597,0.424l0.533,0.131l1.057,0.107
		l1.648-0.103l1.271-0.182l1.125-0.023l0.779,0.21l1.102,0.232l1.262,0.319l0.683,0.157h0.41l0.373-0.13l0.597-0.209l0.624-0.262
		l0.41-0.159h0.292l0.697,0.107l0.597,0.182l0.606,0.267l0.287,0.342l0.251,0.476l0.341,0.344l0.592,0.239l0.815,0.13l0.998,0.057
		l0.924,0.278l1.28,0.715l0.884,0.369l0.496,0.287l0.251,0.319l0.032,0.339l0.127,0.476l0.465,0.686l0.373,0.449l0.187,0.708v0.631
		l-0.164,0.628l-0.037,1.526l0.151,2.573l0.059,1.264l0.086,0.817l0.551,1.893l0.679,1.241l0.373,0.708l0.119,0.788l0.096,0.925
		l0.155,0.658l0.105,0.287l0.456,0.262l0.473,0.285l0.902,0.424l0.679,0.791l0.273,0.922l0.182,1.395l0.483,2.186l0.032,0.547
		l0.401,0.502l0.592,0.422l0.646,0.27l1.216,0.209l0.938,0.055l0.875,0.229l0.966,0.391l1.029,0.482l0.715,0.479l0.715,0.602
		l0.515,0.27l0.551,0.082l0.833,0.086l0.405,0.105l0.101,0.236l-0.032,0.547l-0.251,0.502l-0.291,0.445l-0.187,0.236l-0.032,0.209
		v0.184l0.214,0.191l0.597,0.127l0.597-0.027l0.405-0.1l0.492-0.229l0.292-0.037l0.146,0.064l0.123,0.365l-0.032,0.363l-0.269,0.373
		l-0.483,0.211l-0.438,0.346l-0.132,0.383v0.479l0.155,0.418l0.182,0.451l0.105,0.418l-0.032,0.393l-0.187,0.154l-0.437,0.184
		l-0.715,0.309l-0.875,0.182l-0.97,0.393l-0.879,0.338l-0.843,0.555l-0.883,0.656l-0.966,0.574l-0.815,0.609l-0.483,0.574
		l-0.31,0.447l-0.191,0.455l-0.214,0.182l-0.533,0.078l-0.282,0.055l-0.401,0.209l-0.296,0.307l-0.469,0.473l-0.564,0.547
		l-0.879,0.391l-0.469,0.191l-0.529,0.129l-0.679,0.027l-0.291,0.082l-0.347,0.254l-0.97,0.738l-0.474,0.447l-0.218,0.428v0.436
		l0.091,0.484l0.124,0.701l-0.251,1.184l-0.05,1.586l-0.073,0.469l-0.095,0.264l0.132,0.32l0.182,0.264l0.269,0.209l0.552,0.291
		l0.369,0.215l0.264,0.281l0.032,0.293l-0.032,0.264l-0.287,0.281l-0.437,0.393l-0.405,0.365l-0.187,0.273l-0.1,0.572l0.119,0.848
		l0.246,0.684l0.374,0.605l0.292,0.488l0.187,0.086l0.255,0.072l0.214,0.059l0.218,0.051l0.187,0.1l0.31,0.191l0.287,0.27
		l0.342,0.123l0.287,0.086h0.305l0.401,0.057l0.187,0.025l0.155,0.129l0.155,0.287l-0.232,1.279l-0.264,1.658l-0.187,0.551
		l-0.255,0.287l-0.337,0.191l-0.565,0.209l-0.925,0.209l-1.066,0.184l-0.592,0.127l-0.182,0.131l-0.123,0.123l-0.105,0.215
		l-0.005,0.236l0.11,0.348l0.177,0.305l0.41,0.318l0.464,0.473l0.183,0.365l0.469,0.209l0.62,0.088l0.31,0.131l0.3,0.42l0.259,0.451
		l0.214,0.869l-0.036,0.707l0.036,0.477l0.246,0.496l0.715,0.826l1.066,0.889l0.633,0.586l0.296,0.475l0.255,0.947l-0.077,0.729
		l-0.219,1.074l-0.292,1.395l-0.073,0.848l0.114,0.629l0.328,0.5l0.811,0.766l1.225,0.838l0.592,0.527l0.15,0.447l0.063,0.865
		l0.005,0.844l-0.251,0.66l-0.455,0.537l-0.374,0.555l-0.136,0.584l-0.087,0.365l0.218,0.445l0.269,0.373l0.433,0.264l0.56,0.166
		h0.811l0.619,0.055l0.219,0.131l0.187,0.158L-77.264,82.189"/>
</g>
<g id="Layer_1_1_">
</g>
</svg>
