<?xml version="1.0" encoding="utf-8"?>
<!-- Generator: Adobe Illustrator 16.0.4, SVG Export Plug-In . SVG Version: 6.00 Build 0)  -->
<!DOCTYPE svg PUBLIC "-//W3C//DTD SVG 1.1//EN" "http://www.w3.org/Graphics/SVG/1.1/DTD/svg11.dtd">
<svg version="1.1" id="Layer_1" xmlns="http://www.w3.org/2000/svg" xmlns:xlink="http://www.w3.org/1999/xlink" x="0px" y="0px"
	 width="301.14px" height="239.989px" viewBox="-452.291 186.166 301.14 239.989"
	 style="enable-background:new -452.291 186.166 301.14 239.989;" xml:space="preserve">
<g id="Layer_74">
	<g id="Lasbela">
		<path id="Lasbela" style="fill:#CCCCCC;stroke:#FFFFFF;stroke-width:1.15;" d="M-317.561,334.626L-317.561,334.626l0.027-0.604
			l0.447-0.72l0.922-0.742l0.246-0.5l-0.129-0.159l-1.082,0.644l-1.033,0.917l-2.855,1.666l-0.484,0.509l-0.126,0.491l0.341,0.199
			l0.622-0.11l0.907-0.47l0.275,0.165l0.08,0.105l0.149,0.224l-0.101,0.972l0.493,0.31l1.544-0.366l0.27-0.581L-317.561,334.626"/>
		<path id="Lasbela_1_" style="fill:#CCCCCC;stroke:#FFFFFF;stroke-width:1.15;" d="M-287.59,338.095L-287.59,338.095l-0.224-0.331
			l-0.901-0.588l-0.291-0.426l1.058-1.131l0.098-0.387l-0.205-0.588l-0.476-0.472l-0.851-0.295l-1.202,0.649l-0.68,0.136
			l-0.224,0.361l-0.024,0.656l0.429,0.826l0.784,0.721l2.584,1.37L-287.59,338.095"/>
		<path id="Lasbela_2_" style="fill:#CCCCCC;stroke:#FFFFFF;stroke-width:1.15;" d="M-262.523,421.332L-262.523,421.332l0.307-0.45
			l0.089-0.625l-0.172-0.589l-0.622-0.526l-0.849-0.196l-0.579,0.321l-0.107,0.929l-0.579,0.35l-0.049,0.307l0.285,0.288l1.78,0.471
			L-262.523,421.332"/>
		<path id="Lasbela_3_" style="fill:#CCCCCC;stroke:#FFFFFF;stroke-width:1.15;" d="M-275.479,347.209L-275.479,347.209l0.834-0.086
			l0.668-0.439l0.306-0.554l-0.229-0.398l-0.929,0.034l-0.561,0.784l-1.477,0.548l-0.282,0.393l0.11,0.376L-275.479,347.209"/>
		<path id="Lasbela_4_" style="fill:#CCCCCC;stroke:#FFFFFF;stroke-width:1.15;" d="M-292.722,334.326L-292.722,334.326l0.411-1.434
			l-0.408-0.393l-0.444,0.117l-0.122,0.588l0.208,1.274L-292.722,334.326"/>
		<path id="Lasbela_5_" style="fill:#CCCCCC;stroke:#FFFFFF;stroke-width:1.15;" d="M-296.678,334.4L-296.678,334.4l-0.278-0.782
			l-0.506-0.523l-0.509,0.049l-0.138,0.224l0.757,0.732l0.11,0.509l0.435,0.221L-296.678,334.4"/>
		<path id="Lasbela_6_" style="fill:#CCCCCC;stroke:#FFFFFF;stroke-width:1.15;" d="M-295.682,330.3L-295.682,330.3l-0.938-0.779
			l-0.426-0.116l-0.132,0.414l0.812,0.646l0.604,0.086L-295.682,330.3"/>
		<path id="Lasbela_7_" style="fill:#CCCCCC;stroke:#FFFFFF;stroke-width:1.15;" d="M-251.161,420.599L-251.161,420.599l0.641-0.977
			l0.913-0.932l0.963-0.855l1.283-1.012l1.208-0.826l1.363-1.165l1.317-1.281l1.395-1.317l1.492-1.101l0.751-0.426l1.508-0.493
			l1.302-0.527l1.422-0.64l1.088-0.821l1.048-0.784l0.932-0.476l1.505-0.683l1.971-0.396l2.093-0.433l2.179-0.303l1.392-0.329
			l0.931-0.512l1.979-1.525l1.392-1.505l1.637-1.535l1.477-1.468l1.033-1.269l1.406-1.281l1.118-1.109l0.996-1.158l0.233-0.53
			l-0.062-0.523l-0.377-1.309l-0.364-1.041l0.091-1.242l0.279-1.59l0.099-0.827l0.174-0.947l0.473-0.727l0.824-1.339l0.986-1.502
			l0.469-0.766l0.31-0.72l0.476-0.592l0.769-0.545l0.874-0.436l1.461-0.864l1.382-0.83l0.684-0.546l0.972-0.629l0.926-0.814
			l0.839-1.035l0.264-0.797l0.438-0.5l0.649-0.469l0.479-0.576l0.061-0.601l-0.055-0.478l0.107-0.534l0.34-0.907l0.941-1.761
			l0.677-0.81l0.809-0.72l0.61-0.393l0.131-0.067l-0.438-0.202l0.153-1.581l-0.046-0.962l0.018-1.062l0.353-0.845l0.099-0.837
			l0.432-0.677l1.452-1.646l0.692-1.278l0.445-1.363l-0.196-3.049l-0.052-1.665l0.036-1.976l0.35-0.754l1.281-1.195l1.958-1.716
			l0.649-1.501l1.036-1.735l1.105-0.741l1.266-0.436l1.606-0.658l1.614-1.267l0.778-1.2l0.702-1.502l0.021-1.072l0.101-1.061
			l0.099-0.684l0.766-0.518l2.279-0.87l1.527-0.815l1.032-1.198l1.474-2.481l0.625-1.738l0.632-2.127l0.021-1.131l0.724-2.417
			l0.812-2.715l0.106-1.134l0.441-1.128l1.247-2.323l1.472-2.107l1.379-1.787l1.471-1.885l1.713-1.636l1.293-1.502l1.051-2.107
			l0.282-1.294l0.193-1.287l-0.469-1.605l-0.794-2.142l-0.475-1.453l-0.23-1.234l-0.064-0.687l0.441-1.057l0.218-2.29l-0.037-2.286
			l0.23-2.653l-0.037-2.14l0.582-3.633l0.481-2.663l0.275-1.126l0.212-1.973l0.275-1.066l0.975-2.182l0.102-0.846l-0.147-0.913
			l-0.569-0.926l-1.162-0.932l-0.886-1.912l-1.06-1.691l-0.561-1.376l-0.402-0.849l-0.413-0.545l-1.244-0.853l-0.751-0.393
			l-1.009-0.248l-0.668-0.327l-0.652-1.079l-0.483-0.92l-0.669-1.759l-0.303-1.605l-0.711-2.218l-1.232-1.763l-0.886-1.995
			l-1.78-3.836l-1.551-2.62l-1.143-1.998l-0.895-1.762l-0.969-2.161l-0.975-1.994l-1.148-1.692l-1.395-2.23l-1.143-2.071
			l-1.582-2.832l-1.486-1.765l-0.814-1.532l-0.493-0.769l-0.748-0.702l-1.085-0.772l-0.916-0.932l-0.659-0.926l-0.558-1.832
			l-1.287-3.598l-0.729-1.682l-0.882-2.596l-0.95-3.598l-0.698-3.361l-0.969-2.682l-0.3-2.053l-0.644-2.274l-0.252-0.314
			l-0.931,0.063l-2.486,1.336l-3.003,1.777l-3.417,1.483l-2.733,1.244l-1.884,1.038l-2.568,1.404l-1.624,0.892l-0.858,0.589
			l-0.686,0.594l-0.35,0.592l-0.009,0.457l-0.007,0.459l0.408,0.846l0.665,0.852l0.643,1.128l0.405,1.076l0.232,1.299l0.315,1.229
			l0.153,1.067l0.5,0.456l0.502,0.315l0.758,0.393l0.245,0.456l0.244,0.539l0.242,0.758l0.411,0.766l0.659,0.993l0.661,0.925
			l0.656,1.079l0.744,0.919l0.583,0.546l0.416,0.459l0.325,0.846l0.978,1.998l0.662,0.852l0.738,1.306l0.744,0.92l0.825,1.151
			l1.421,0.785l0.5,0.539l0.318,0.987l0.628,2.678l0.733,2.893l0.392,1.68l0.316,1.066l0.572,0.993l0.493,0.766l0.754,0.46
			l1.005,0.466l1.425,0.404l0.592,0.165l0.585,0.233l0.332,0.386l0.073,0.76l0.061,1.226l-0.045,2.424l0.043,2.137l0.195,3.271
			l-0.107,1.138l-0.367,1.505l-0.358,1.063l-0.129,2.289l-0.043,2.285l-0.156,4.104l-0.162,4.03l-0.368,1.746l-1.079,3.407
			l-0.799,2.274l-0.365,1.437l-0.03,1.756l0.466,2.21l0.539,2.681l0.285,2.666l0.119,2.673l0.301,1.826l-0.102,0.837l-0.11,1.289
			l-0.015,0.907l0.227,1.141l0.404,0.849l-0.01,0.609l-0.095,0.595l-0.432,0.594l-0.938,0.742l-0.43,0.527l-0.267,0.907l-0.024,1.29
			l0.301,1.896l0.218,1.982l-0.199,1.512l-0.616,1.434l-1.03,1.207l-0.686,0.824l-0.684,0.591l-0.595,0.368l-1.259,0.136
			l-1.346,0.061l-1.605,0.284l-1.006-0.015l-1.17-0.325l-1.177,0.136l-1.688,0.352l-1.943,0.5l-1.094,0.294l-1.345-0.021
			l-1.68-0.099l-0.073,0.01l-0.03-0.398l-0.12-0.87l-0.457-0.171l0.555-1.069l0.479-1.524l0.024-1.203l-0.03-1.138l-0.629-1.973
			l-1.066-3.209l-0.683-1.866l-0.858-1.862l-0.343-2.085l-0.344-1.967l-0.946-3.067l-0.516-1.872l-0.989-2.385l-0.791-1.501
			l-0.962-1.386l-0.919-1.899l-0.794-1.551l-0.638-2.068l-0.809-2.068l-0.387-1.357l-0.84-2.84l-0.165-1.823l-0.229-2.026
			l-0.696-2.074l-0.717-2.954l-0.505-1.505l-0.751-2.024l-1.021-3.268l-0.45-1.614l-0.476-2.023l-0.355-2.341l-0.837-2.96
			l-0.68-1.548l-1.026-1.44l-1.25-1.167l-0.791-1.287l-1.036-1.759l-1.229-2.319l-0.852-1.284l-0.312-0.833l-0.089-1.104
			l-0.307-2.286l-0.307-2.55l-0.809-3.855l-0.479-2.55l-0.677-3.33l-0.331-1.4l-0.426-0.668l-0.414-0.196l-0.297-0.092l-0.404,0.01
			l-0.454,0.352l-0.456,0.432l-0.396,0.378l-0.398,0.208l-0.641,0.019l-1.346-0.282l-0.352-0.089l-0.347,0.01l-0.35,0.066
			l-0.168,0.16l-0.282,0.327l-0.055,0.162l0.009,0.363l0.129,0.364l0.012,0.416l0.003,0.156l-0.22,0.276l-0.23,0.101l-0.404,0.01
			l-0.239-0.196l-0.413-0.301l-0.239-0.159l-0.236-0.092l-0.288,0.064l-0.512,0.38l-0.637,0.116l-1.039,0.229l-1.278,0.037
			l-0.928,0.024l-0.457,0.172l-0.638,0.116l-0.754,0.123l-0.64,0.019l-0.693,0.178l-0.597,0.45l-0.509,0.433l-0.276,0.533
			l-0.334,0.431l-0.098,0.586l-0.046,0.319l-0.05,0.361l-0.275,0.433l-0.94,0.578l-0.258-0.38l-0.852-1.863l-0.98-2.083
			l-2.568-2.182l-1.22-0.442l-0.729-0.107l-0.733,0.11l-0.609,0.445l-0.972,0.545l-1.223,0.331l-1.461,0.007l-0.853-0.445
			l-0.487,0.003l-1.703,0.767l-1.582,1.22l-0.852,0.87l-0.483,0.552l-0.61,0.003l-1.343-0.328l-1.709-0.649l-1.588-0.767
			l-2.567-2.172l-1.22-0.549l-0.49-0.098l-0.852,0.104l-0.555-0.062l-1.343-0.544l-3.052-0.436l-3.169-0.196l-1.223-0.438
			l-1.345-1.419l-1.104-0.324l-1.223-0.757l-0.493-0.656l-0.487,0.003l-0.849,0.325l-1.826,0.882l-1.572,1.11l-0.613,0.45
			l-1.213,1.1l-0.487,0.552l-0.239,0.987l-0.11,2.193l-0.102,2.947l0.013,2.299l-0.478,1.869l-0.963,1.763l-0.849,0.983
			l-1.214,0.557l-0.975,0.451l-1.462,0.85l-1.213,0.998l-0.723,0.981l-0.356,0.979l-0.113,1.317l0.013,1.864l-0.588,3.505
			l0.015,1.87l0.261,2.292l0.619,1.862l1.722,3.175l1.357,2.415l1.109,3.278l0.516,4.158l0.75,3.724l0.393,2.945l0.744,2.626
			l0.635,4.382l1.118,4.922l0.628,3.396l0.868,3.168l0.493,1.869l0.628,3.726l0.745,2.951l0.135,2.733l-0.354,1.641l-1.081,1.761
			l-1.072,2.951l-1.435,3.291l-1.673,3.512l-1.431,3.846l-1.189,3.502l-2.034,3.855l-2.271,3.727l-1.431,3.196l-1.551,2.951
			l-2.987,4.939l-1.971,3.061l-2.148,3.504l-2.153,2.972l-2.277,1.979l-1.56,1.223l-0.843,0.218l-0.727,0.006l-1.207-0.429
			l-1.456-1.088l-1.823-1.633l-1.333-0.761l-0.726-0.325l-0.853-0.324l-0.48,0.003l-1.321,0.668l-1.686,0.567l-1.204,0.012
			l-1.333-0.432l-0.727-0.328l-0.735-1.195l-0.606-0.87l-0.971-0.319l-0.602,0.111l-1.207,0.218l-1.56,1.112l-1.802,0.777
			l-1.811,0.123l-2.421-0.416l-3.516-1.284l-3.03-1.284l-2.543-0.853l-1.407-0.558l-1.449,0.021l-3.493,0.8l-3.606,1.122
			l-3.969,1.568l-3.367,1.125l-2.394,1.446l-4.314,2.553l-4.079,1.896l-2.89,0.463l-1.811-0.19l-1.214-0.539l-0.368-0.435
			l-0.006-0.552l0.236-0.558l1.682-0.674l1.561-0.674l1.314-1l0.466-0.98l0.107-1.104l0.472-0.87l0.836-0.563l0.236-0.552
			l-0.374-0.864l-0.367-0.44l-0.132-0.871l0.098-1.637l0.107-1.207l-0.506-1.52l-0.377-1.204l-1.336-0.751l-1.342-0.852
			l-0.245-0.442l-0.016-0.869l0.355-0.558l-0.013-0.865l-0.738-1.097l-1.105-1.403l-0.129-0.552l-0.007-0.441l0.834-0.882
			l0.916-0.852l1.207-0.337l0.724-0.01l0.116-0.444l-0.006-0.552l-0.612-0.546l-0.007-0.438l0.463-1.536l0.589-1.323l0.346-1.318
			l-0.251-0.548l-0.61-0.328l-0.724,0.013l-0.839,0.772l-2.038,1.237l-2.292,0.577l-2.653,0.462l-1.201,0.674l-1.435,1.223
			l-1.912,1.557l-2.05,0.576l-1.683,0.573l-1.811,0.239l-0.853-0.206l-0.965,0.123l-2.283,1.119l-1.072,0.983l-0.229,0.77
			l0.254,0.87l0.129,0.549l-0.355,0.324l-0.604,0.11l-0.487-0.098l-0.49-0.546l-1.588-1.072l-1.094-0.427l-0.975-0.438l-0.361,0.013
			l-0.484,0.007l0.006,0.44l0.255,0.763l0.129,0.329l-0.358,0.324l-0.604,0.01l-0.849,0.009l-0.962,0.232l-1.557,0.999l-0.592,0.983
			l-1.058,1.886l-1.075,0.777l-0.606-0.098l-0.612-0.754l-0.858-0.54l-0.601-0.098l-0.365,0.004l-0.478,0.45l-1.683,0.578
			l-0.809,0.574l0.475,2.114l0.205,4.511l-0.132,4.309l0.212,4.621l-0.19,2.414l-0.227,1.024l-0.232,1.434l0.221,1.44l0.447,1.017
			l0.787,1.244l2.365,1.759l0.688,0.693l-0.004,0.649l-0.063,0.526l0.31-0.251l1.048-3.594l0.38-0.671l0.487-0.405l1.746-0.387
			l2.375,0.103l1.544-0.236l1.512,0.171l1.134-1.55l-0.222,1.293l0.222,0.232l1.531,0.037l0.966,0.564l0.717-0.044l2.396-1.042
			l1.188-0.195l0.46,0.098l4.165,0.966l4.103-0.077l0.824,0.251l1.067-0.227l0.643,0.233l1.012-0.067l3.106,0.833l2.179-0.156
			l0.512-0.281l0.564-0.322l0.766-0.803l2.604-4.354l0.481,0.04l-0.714,1.733l-0.215,1.487l-0.601,1.554l-0.71,0.729l-1.217,0.735
			l0.101,0.209l0.512,0.062l0.941-0.319l2.457,0.588l8.271,1.999l1.683,0.066l1.517,0.332l0.684-0.147l3.215-1.453l2.01-0.027
			l2.219-0.027l2.859-1.33l2.739-0.949l2.96-0.19l1.21-0.324l0.555-0.271l0.99-1.111l0.975-0.261l1.786-1.33l1.3-0.969l2.957-0.753
			l2.666-0.086l5.804,0.857l3.04,0.171l1.743-0.288l0.279-0.058l1.63,0.198l5.347-0.97l2.4-0.053l0.438-0.205l0.19-0.384
			l-1.168-1.081l-0.141-0.401l0.27-0.589l1.67,0.938l-0.039-1.241l0.459,0.11l0.564,1.04l0.104,0.817l0.251,0.199l0.635,0.063
			l3.524-0.849l3.383-1.24l3.727-0.897l0.631-0.162l4.478-0.405l9.671-1.538l3.144-0.169l2.391-0.116l5.917,0.109l4.964,0.89
			l4.489,1.403l3.004,0.938l4.752,2.16l6.781,2.657l0.963,0.089l0.857-0.251l0.282-0.212l0.644-0.496l0.187-0.496l-2.117-1.582
			l-0.784-0.104l-1.009-0.454l-0.453-0.662l-0.275-1.379l0.472-1.434l2.216-1.992l0.125-1.115l0.509-0.613l-0.116-0.591
			l-1.977-0.666l-0.858-0.287l-1.118-0.146l-1.554,0.109l-0.892,0.117l-1.624,0.585l-1.979,1.277l-0.738,0.209l-1.109,0.024
			l-0.88-0.821l-1.33-0.196l-0.523-0.276l-0.172-0.48l0.202-1.317l-1.244,0.267l-0.254-0.318l0.358-0.46l0.432-0.536l-0.404-0.972
			l-1.171-0.589l-3.22,0.433l-0.729-0.273l-0.601-0.588l-0.371-0.809l-0.276-1.429l-0.72-0.625l-1.032-0.227l-1.109,0.05
			l-1.162,0.821l-1.137,0.018l-0.175,0.196l1.189,0.358l0.059,0.095l0.138,0.215l-0.527,0.27l-3.159-0.738l-0.652,0.162l-0.96,0.638
			l-0.438,0.889l-1.134,0.724l-0.41,0.814l-1.011,0.809l-0.702,0.344l-0.962-0.064l-1.085,0.506l-1.271,0.953l-2.498,0.9
			l-1.158,0.42l-0.797-0.324l-0.956,0.181l-1.29,0.592l-1.22,0.165l-1.725,0.883l-0.748,0.063l-0.272-0.609l-0.45-0.067l-1.37,0.87
			l-0.772,0.172l-0.15-0.527l0.107-0.821l-0.309-0.233l-0.451,0.05l-1.085,1.026l-0.846,0.5l-0.601-0.086l-0.215-0.196l-0.352-0.325
			l0.496-0.839l0.527-0.216h1.32l0.38-0.195l0.16-1.012l0.4-0.429l1.529-0.539l0.519-0.457l0.187-0.496l-0.456-1.247l0.778-1.244
			l-0.622-0.981l0.232-0.771l0.684-0.717l1.553-0.772l0.696-0.548l0.364-0.5l0.334-0.454l1.71-1.22l0.794-0.876l0.5-1.465
			l0.717-0.625l0.83-0.282l1.829-0.101l1.72,1.376l0.521,0.22l0.595-0.055l0.229-0.224l0.07-1.011l0.533-0.16l0.497,0.279
			l0.444-0.067l1.103-0.779l0.729-0.269l1.012-0.374l0.87-0.592l1.511-0.389l1.435-0.794l0.419,0.052l0.503,1l0.849,0.756
			l2.252-0.04l1.781-0.977l2.133,0.591l0.824-0.38l0.45,0.033l0.321,0.371l-0.42,0.588l0.307,0.509l0.444,0.733l0.54-0.022
			l0.462-0.345l0.377,0.912l2.084,1.474l1.247-0.857l3.616-0.362l1.174-0.563l0.487-0.539l0.227-0.771l-0.08-1.137l0.641-0.439
			l0.543,0.721l-0.156,1.069l0.257,0.367l0.714-0.104l0.19,0.165l0.475,1.766l-0.714,2.028l0.261,0.453l0.444-0.098l0.165-0.324
			l-0.119-0.595l0.162-0.442l1.008-0.857l0.479,0.533l1.22-0.205l0.251,0.264l-0.411,0.806l0.285,0.371h0.724l0.429-0.398
			l0.01-0.898v-0.138l0.355-0.778l0.644-0.346l0.396-0.509l-0.457-0.717l1.146-0.533l0.196-2.216l0.601-1.229l0.681-0.849
			l0.585-0.376l0.592-0.133l0.285,0.206l0.095,0.187l-0.523,1.658l-0.705,0.895l0.132,0.239l0.683-0.142l0.312,0.19l0.209,0.643
			l-0.355,1.043l-0.724,2.132l-0.453,0.617l-1.201,0.615l-0.794,2.237l0.619,1.005l1.039,0.978l-0.218,0.457l0.254,0.327
			l1.116,0.291l0.526,0.135l0.689-0.027l0.782-0.598l0.637,0.735l0.129,0.812l-0.181,1.591l-0.199,1.803l0.126,2.61l-0.209,0.717
			l0.619,2.289l0.03,1.278l1.753,0.916l1.922,1.382l0.781,1.343l-0.245,0.489l-1.088,0.476l-0.297,0.328l-0.447,0.46l-0.222,0.986
			l0.715,2.42l-0.043,0.981l-0.298,0.637l-0.754,0.546l-0.419-0.006l-0.559-0.321l-0.447-0.586l-0.291-1.729l-0.677-0.453
			l-0.659,2.642l-0.019,0.87l0.493,0.906l0.782,0.669l0.438,0.376l7.379,4.019l3.567,2.641l3.043,2.746l1.017,0.913l3.904,4.186
			l2.944,4.315l0.84,1.234l0.616,1.731l0.272,2.05l-0.72,3.3l-0.521,1.061l-2.004,2.636l-0.104,1.691l-1.125,0.803l-0.242,0.328
			l-0.325,0.45l-0.171,0.821l0.726,2.176l0.322,4.483l-0.401,0.983l-1.646,2.593l-0.132,0.521l-0.221,0.879l0.646,2.4l0.021,0.344
			l0.189,2.941l-0.428,0.453l-2.351,1.502l-0.279,0.429l-0.193,1.005l0.387,1.912l1.112,2.108l0.429,0.258l1.072,0.015
			L-251.161,420.599"/>
	</g>
</g>
<g id="Layer_1_1_">
</g>
</svg>
