<?xml version="1.0" encoding="iso-8859-1"?>
<!-- Generator: Adobe Illustrator 16.0.4, SVG Export Plug-In . SVG Version: 6.00 Build 0)  -->
<!DOCTYPE svg PUBLIC "-//W3C//DTD SVG 1.1//EN" "http://www.w3.org/Graphics/SVG/1.1/DTD/svg11.dtd">
<svg version="1.1" xmlns="http://www.w3.org/2000/svg" xmlns:xlink="http://www.w3.org/1999/xlink" x="0px" y="0px"
	 width="21.808px" height="17.197px" viewBox="0 0 21.808 17.197" style="enable-background:new 0 0 21.808 17.197;"
	 xml:space="preserve">
<g id="Layer_69">
	<g id="Layer_74">
		<path id="Poonch" style="fill:#CCCCCC;stroke:#FFFFFF;stroke-width:1.07;" d="M1.196,6.914
			L1.196,6.914l0.053,0.038l0.038,0.014l0.038,0.011l0.042,0.003l0.025,0.003l0.038,0.014l0.021,0.011l0.025,0.014l0.012,0.007
			L1.503,7.04l0.021,0.025l0.013,0.014l0.021,0.007h0.021l0.017,0.003h0.046h0.013v0.018v0.014l0.021,0.029l0.021,0.015l0.018,0.014
			l0.013,0.014l0.013,0.014l0.005,0.014l0.014,0.015l0.008,0.007l0.008,0.003l0.011,0.016l0.013,0.013l0.03,0.003h0.021l0.024,0.001
			l0.054-0.001l0.02-0.007h0.022h0.023h0.021L2.03,7.273h0.017h0.015l0.021-0.015l0.012-0.005l0.021,0.003l0.038,0.003h0.029
			l0.024-0.035l0.006-0.013l0.011-0.016L2.23,7.192l0.008-0.008l0.009-0.006l0.006-0.005L2.289,7.17l0.019-0.003l0.012-0.003
			l0.02-0.002h0.019l0.017-0.006l0.014-0.005h0.014h0.011h0.021l0.01-0.003L2.46,7.144l0.006-0.003l0.031-0.012l0.018-0.001h0.01
			h0.023L2.589,7.12l0.012-0.007l0.018-0.009l0.018-0.01l0.019-0.008l0.019-0.008l0.017-0.006L2.71,7.065l0.011-0.005l0.016-0.005
			l0.02-0.007l0.012-0.006l0.019-0.009L2.797,7.03l0.018-0.005l0.021-0.01L2.85,7.007L2.858,7l0.01-0.01l0.015-0.008l0.015-0.008
			l0.027-0.006l0.017-0.002L2.958,6.96l0.023-0.002H3.02h0.021h0.018h0.021l0.017,0.003l0.016,0.006l0.029,0.006l0.021,0.006
			l0.017,0.006l0.015,0.008L3.21,7L3.224,7.01l0.012,0.01l0.008,0.017L3.252,7.05l0.007,0.008l0.014,0.01l0.022,0.005l0.016,0.003
			l0.03,0.008l0.012,0.004l0.02,0.007l0.041,0.013l0.019,0.006l0.034,0.01l0.013,0.003l0.019,0.008l0.015,0.005L3.52,7.142
			l0.008,0.001l0.015,0.003h0.015L3.57,7.146h0.022h0.012L3.62,7.142l0.02-0.016l0.017-0.011l0.021-0.018l0.017-0.013l0.017-0.016
			l0.01-0.015L3.733,7.04l0.01-0.013l0.013-0.012l0.007-0.01l0.01-0.011L3.78,6.982l0.01-0.016l0.008-0.009l0.012-0.01l0.022-0.029
			l0.019-0.012l0.02-0.011l0.009-0.003l0.004-0.006l0.013-0.003l0.023-0.006l0.013-0.006l0.012-0.005l0.036-0.001l0.018-0.003
			l0.021-0.005l0.024-0.001l0.042-0.006h0.023L4.12,6.852l0.021,0.003l0.016,0.001l0.021,0.003L4.2,6.861l0.023,0.003h0.018h0.021
			l0.021-0.003l0.021-0.008l0.019-0.007l0.009-0.003l0.044-0.011l0.015-0.006L4.409,6.82h0.016l0.022,0.013l0.016,0.01l0.012,0.018
			l0.008,0.011l0.022,0.022l0.01,0.011l0.014,0.01l0.016,0.003h0.018h0.04h0.021h0.019l0.023-0.005l0.021-0.006h0.038L4.77,6.901
			l0.022-0.003l0.016-0.001l0.066-0.013l0.027,0.002h0.046l0.018-0.002L4.99,6.879h0.025h0.041h0.019h0.02h0.017h0.038l0.02,0.003
			h0.02l0.021-0.006L5.229,6.87l0.015-0.001h0.011l0.014,0.011l0.008,0.023l0.002,0.019l0.004,0.013l0.004,0.017l0.006,0.013
			l0.01,0.013L5.31,6.991l0.017,0.014l0.007,0.021l0.005,0.022v0.013l0.001,0.015l0.008,0.011L5.354,7.1l0.007,0.003l0.017,0.018
			l0.018,0.013l0.008,0.013l0.009,0.018l0.002,0.014L5.42,7.191l0.009,0.011L5.44,7.208l0.003,0.015l0.01,0.018l0.015,0.012
			l0.006,0.03v0.018L5.476,7.31v0.016v0.013l0.006,0.003L5.485,7.35l0.011,0.009l0.012,0.008l0.013,0.012l0.006,0.004l0.01,0.007
			l0.012,0.006L5.552,7.4l0.012,0.006L5.565,7.41l0.006,0.003l0.021,0.039l0.008,0.011L5.603,7.48l0.004,0.013l0.006,0.017
			l0.01,0.015l0.009,0.009L5.64,7.55l0.006,0.015l0.004,0.013l0.004,0.013L5.664,7.6L5.67,7.604v0.013l0.002,0.021L5.68,7.651
			l0.007,0.012L5.694,7.68l0.01,0.01L5.711,7.69l0.028,0.02l0.004,0.001L5.751,7.72l0.017,0.01l0.006,0.004L5.775,7.74l0.007,0.008
			l0.001,0.011l0.003,0.008l0.007,0.006l0.008,0.018l0.006,0.015l0.006,0.011l0.011,0.011l0.016,0.003h0.017l0.021-0.011
			l0.018-0.009l0.017-0.004l0.011-0.005l0.004-0.008l0.005-0.011V7.778l0.003-0.012l0.005-0.013l0.011-0.011l0.02-0.01l0.017-0.005
			l0.022-0.003l0.023-0.01l0.008-0.008V7.69l0.006-0.015L6.052,7.66l0.012-0.011l0.021-0.01l0.031-0.025l0.009-0.011l0.008-0.011
			l0.011-0.029l0.004-0.013l0.015-0.005l0.021,0.004l0.012,0.008l0.02,0.022l0.012,0.016L6.249,7.61l0.015,0.012L6.285,7.63
			l0.021,0.008l0.04,0.029l0.018,0.013l0.028,0.007l0.022,0.004l0.03,0.011l0.048,0.018L6.56,7.742l0.022,0.016l0.05,0.022
			l0.015-0.004L6.68,7.773h0.028h0.019h0.029h0.036h0.025l0.021,0.003L6.858,7.79l0.028,0.013l0.017,0.003l0.03,0.001l0.019-0.001
			L6.958,7.8l0.006-0.016L6.985,7.76l0.014-0.013l0.06-0.013h0.01h0.018L7.1,7.728l0.018-0.011l0.014-0.008h0.04V7.692l0.006-0.003
			l0.047,0.008l0.014,0.008l0.019,0.006l0.021,0.011l0.016,0.004l0.021,0.01l0.028,0.009L7.358,7.75l0.029,0.005l0.024,0.005
			l0.029,0.004L7.467,7.77l0.021,0.002l0.021,0.004l0.018,0.001L7.548,7.78H7.519h0.023l0.021-0.003h0.023h0.017H7.62h0.022h0.014
			l0.016,0.005L7.692,7.79l0.022,0.009l0.012,0.001l0.022,0.001h0.028h0.031h0.027l0.017,0.002l0.014,0.003h0.022l0.008,0.006
			l0.018,0.015v0.02l0.009,0.019l0.015,0.008l0.014,0.01l0.02,0.018l0.012,0.01l0.016,0.006l0.009,0.006l0.008,0.013L8.027,7.95
			l0.004,0.01l0.014,0.013l0.01,0.008l0.02,0.006l0.021,0.005L8.109,8L8.12,8.004l0.013,0.008l0.012,0.011l0.01,0.005l0.009,0.009
			l0.009,0.01l0.016,0.008L8.21,8.06L8.23,8.062h0.013H8.26h0.011l0.023,0.001v0.013v0.032L8.3,8.129l0.01,0.01l0.01,0.008
			l0.014,0.011l0.023,0.015l0.008,0.008l0.004,0.016L8.372,8.21l0.007,0.022l0.002,0.024l0.006,0.018l0.002,0.021l0.006,0.029v0.018
			l0.002,0.014l0.012,0.015l0.01,0.005H8.44h0.016L8.487,8.38l0.021-0.008l0.036-0.001h0.055l0.029-0.009L8.66,8.369l0.087,0.055
			l0.045,0.01h0.062l0.062,0.079l0.016,0.019L9.042,8.58l0.057,0.026l0.07,0.078l0.074,0.038l0.045,0.037l0.048,0.052l0.048,0.038
			L9.433,8.89l0.049,0.03l0.062,0.052l0.079,0.041l0.054,0.011l0.112,0.089l0.072,0.04L9.929,9.19l0.139,0.04l0.072,0.02
			l0.042,0.015l0.001-0.001L10.2,9.27l0.096,0.05l0.08,0.043l0.069,0.039l0.062,0.035l0.062,0.04l0.055,0.035l0.044,0.022
			l0.047,0.024l0.06,0.031l0.163,0.085l0.104,0.03l0.119,0.092L11.134,9.83l-0.026,0.027l-0.028,0.021l-0.023,0.02l-0.012,0.025
			v0.031l0.004,0.028l0.029,0.022l0.017,0.017l-0.064,0.015l-0.022,0.014l-0.003,0.021l0.009,0.013h0.046l0.017,0.008v0.019
			l0.003,0.019l0.007,0.021l-0.049-0.006l0.032,0.006l0.017,0.013l0.021,0.014l0.012,0.018l0.026,0.016l0.02,0.018l0.001,0.02
			l0.021,0.02l-0.002,0.02v0.016l0.014,0.039l0.002,0.016v0.025l0.002,0.018v0.036l0.008,0.008l0.028,0.019l0.018,0.016l0.014,0.01
			l0.04,0.016l0.021,0.008l0.012,0.013h0.018l0.016,0.024l0.016,0.011l0.021,0.017h0.033h0.015h0.038l0.017-0.009l0.008-0.008
			l0.008-0.007l0.014-0.01l0.031-0.01l0.013-0.017l0.013-0.011l0.015-0.012l0.023-0.014l0.017-0.008l0.021-0.006l0.011-0.012
			l0.033-0.006l0.013,0.002l0.026,0.002h0.022l0.028,0.008l0.024,0.006l0.022,0.009l0.017,0.008l0.018,0.009l0.016,0.008
			l0.035,0.019l0.016,0.009h0.021h0.017l0.023-0.013l0.005-0.021l0.01-0.021l0.016-0.02l0.008-0.023l0.016-0.02l0.014-0.013
			l0.021-0.011l0.033-0.002l0.023-0.006l0.019-0.01l0.035-0.012l0.024-0.016l0.022-0.012l0.018,0.006l0.016-0.006h0.013l0.023-0.002
			l0.018-0.002l0.015-0.001l0.04-0.004l0.017-0.015l0.017-0.01l0.021-0.006l0.009-0.004l0.032-0.013l0.016-0.007l0.03-0.006h0.033
			l0.024-0.002l0.021-0.006l0.015-0.004l0.022-0.015l0.016-0.013l0.021-0.002h0.018h0.021h0.013l0.016,0.002l0.013,0.004
			l0.017,0.002h0.021h0.019h0.016h0.022l0.023-0.006l0.023-0.008l0.015-0.012l0.015-0.008h0.037l0.032-0.002l0.017-0.005
			l0.021-0.004l0.014-0.009l0.02-0.01l0.022-0.006l0.032-0.014l0.021-0.001l0.029-0.003l0.024-0.014l0.013-0.012l0.021-0.008
			l0.01-0.014l-0.004-0.027l0.043-0.006h0.02h0.04h0.022h0.04h0.044h0.038h0.041l0.035,0.003l0.033,0.006h0.047h0.035h0.043h0.008
			l0.017-0.003l0.021-0.002l0.021-0.001l0.02-0.003h0.021h0.016l-0.003,0.011h0.027h0.057l0.046,0.002l0.021,0.001l0.021,0.002
			l0.028,0.002l0.006,0.006v0.008l-0.002,0.012l-0.004,0.014l-0.009,0.012L14.03,10.14l-0.006,0.003l-0.016,0.016l-0.029,0.016
			l-0.014,0.008l-0.012,0.01l-0.02,0.014l-0.018,0.008l-0.018,0.013l-0.02,0.019l-0.016,0.012l-0.019,0.019l-0.021,0.015l-0.02,0.02
			l-0.013,0.02l-0.008,0.017l-0.006,0.013v0.014v0.012v0.013v0.019l0.004,0.021l0.015,0.021l0.009,0.021l0.006,0.021l0.011,0.014
			l0.017,0.008l0.012,0.007l0.014,0.011l0.009,0.012l0.015,0.006l0.009,0.012l0.014,0.012l0.019,0.01l0.021,0.016l0.027,0.014
			l0.017,0.01l0.019,0.008l0.025,0.012l0.02,0.009l0.03,0.009l0.022,0.012l0.022,0.015l0.021,0.006l0.028,0.028v0.02l-0.008,0.032
			l-0.006,0.052l-0.008,0.024l-0.012,0.021l-0.005,0.019l-0.003,0.021l-0.005,0.021l-0.009,0.022l-0.002,0.018v0.021l-0.044,0.059
			l-0.033,0.031l-0.014,0.017l-0.015,0.013l-0.019,0.014l-0.013,0.008l-0.018,0.008l-0.015,0.005l-0.017,0.011l-0.017,0.014
			l-0.013,0.015l-0.016,0.017l-0.017,0.016l-0.011,0.023l-0.009,0.037l-0.008,0.008l-0.008,0.014l-0.005,0.013l-0.012,0.019
			l-0.01,0.017l-0.007,0.019l-0.011,0.01l-0.015,0.02l-0.008,0.018l-0.012,0.022l-0.013,0.03l-0.002,0.017l0.001,0.022v0.021
			l0.013,0.024l0.013,0.021l0.012,0.018l0.01,0.018l0.009,0.016l0.018,0.016l0.011,0.02l0.026,0.027l0.012,0.014l0.012,0.01
			l0.02,0.013l0.01,0.01l0.014,0.013l0.016,0.019v0.032v0.015l-0.004,0.017l-0.005,0.018l-0.007,0.031v0.029v0.014v0.016v0.021
			l0.003,0.018l0.002,0.018l0.002,0.019l0.002,0.014v0.039l0.002,0.015l0.006,0.014l0.004,0.019l0.004,0.013l0.004,0.014
			l0.004,0.016l0.016,0.02l0.008,0.029l0.004,0.026l0.008,0.017l0.015,0.021l0.013,0.031l0.012,0.021l0.016,0.021l0.022,0.023
			l0.023,0.002l0.019-0.002l0.017-0.011l0.011-0.008l0.021-0.013l0.014-0.008l0.029-0.013l0.023-0.021l0.017-0.016l0.021-0.008
			l0.026-0.012l0.021-0.014l0.021-0.021l0.021-0.013l0.024-0.014l0.02-0.01l0.032-0.012l0.037-0.012l0.008-0.01l0.021-0.001h0.028
			h0.06l0.006,0.001l0.04,0.002l0.021,0.006l0.016,0.002l0.022,0.002l0.038,0.002l0.02,0.004h0.032l0.013,0.002l0.017,0.003
			l0.018,0.005l0.028,0.006h0.017h0.021h0.019l0.029,0.002l0.03,0.001l0.021,0.003l0.021,0.004l0.046,0.01l0.022,0.004l0.018,0.004
			l0.05,0.01l0.021,0.006l0.048,0.003l0.04,0.003l0.015,0.004l0.018,0.004l0.016,0.006l0.044,0.011l0.028,0.003l0.031,0.005
			l0.027,0.003l0.023,0.003l0.018,0.009l0.035,0.004l0.034,0.012l0.015,0.006l0.021,0.006L15.6,12.31l0.056,0.013l0.028,0.01H15.7
			l0.015,0.004l0.002,0.014v0.021v0.021l-0.004,0.024l-0.007,0.024l0.007,0.022l0.002,0.013l0.001,0.029v0.05v0.011v0.025v0.02
			l0.007,0.015l0.018,0.022l0.013,0.016l0.012,0.013l0.015,0.017l0.02,0.02l0.018,0.016l0.029,0.032l0.023,0.026l0.018,0.013
			l0.041,0.036l0.035,0.031l0.014,0.011l0.016,0.019l0.018,0.021l0.025,0.03l0.015,0.014l0.014,0.013l0.026,0.019l0.019,0.015
			l0.023,0.017l0.021,0.021l0.036,0.015l0.025,0.01l0.025,0.012l0.024,0.014l0.021,0.018l0.021,0.017l0.021,0.015l0.016,0.008
			l0.021,0.017l0.017,0.019l0.017,0.022l0.021,0.022l0.007,0.016l0.018,0.021l0.015,0.013l0.029,0.012l0.016,0.01l0.022,0.016
			l0.016,0.012l0.018,0.021l0.028,0.015l0.033,0.016l0.03,0.021l0.029,0.015l0.021,0.022l0.026,0.014l0.035,0.025l0.026,0.012
			l0.021,0.008l0.026,0.012l0.02,0.006l0.013,0.006l0.033,0.004l0.008,0.012l0.024,0.014l0.022,0.012l0.035,0.02l0.023,0.02
			l0.028,0.02l0.021,0.02l0.031,0.032l0.023,0.022l0.024,0.02l0.021,0.021l0.014,0.018l0.018,0.021l0.022,0.023l0.022,0.025
			l0.021,0.022l0.018,0.031v0.021l-0.035-0.009H17.23h-0.04l-0.034,0.005l-0.038,0.012l-0.021,0.011l-0.002,0.021l0.036,0.043
			l-0.019,0.012l-0.051,0.035l-0.034,0.015l-0.042,0.022l-0.029,0.021l-0.032,0.024l-0.03,0.021l-0.036,0.025l-0.031,0.035
			l-0.068,0.006l-0.104-0.045l-0.146,0.049l-0.021,0.006l-0.024,0.011l-0.021,0.013l-0.034,0.006l-0.023,0.008l-0.015,0.018
			l-0.021,0.012h-0.016l-0.012-0.002l-0.021-0.01l-0.022-0.006l-0.031-0.008l-0.03-0.006h-0.021l-0.021-0.004l-0.064-0.004
			l-0.021,0.006l-0.044,0.013l-0.018,0.006l-0.023-0.001l-0.055-0.008l-0.045-0.023l-0.024-0.008l-0.023-0.005l-0.021-0.009
			l-0.022-0.016l-0.016-0.006l-0.022-0.005h-0.018h-0.02h-0.017h-0.018l-0.02,0.003h-0.02h-0.028l-0.021-0.001l-0.032-0.001h-0.024
			h-0.026h-0.016l-0.016,0.003l0.002,0.021l0.016,0.019l0.018,0.015l0.015,0.012l0.019,0.012l0.024,0.04l0.016,0.017l0.017,0.024
			l0.009,0.022l0.014,0.026l0.021,0.021l0.007,0.014l0.007,0.037v0.009l-0.007,0.041v0.021l-0.01,0.018l-0.016,0.016l-0.021,0.016
			l-0.022,0.008l-0.028,0.002l-0.034,0.007L15.503,14.6l-0.032,0.002h-0.036l-0.023,0.002l-0.032,0.004l-0.029,0.004l-0.023,0.008
			l-0.013,0.009v0.022l0.001,0.039l0.011,0.025l0.016,0.025l0.028,0.022l0.03,0.019l0.038,0.015l0.024,0.024l0.016,0.037
			l0.014,0.025l0.014,0.021l0.004,0.023l0.008,0.016l0.002,0.024l-0.002,0.06l0.004,0.021l0.008,0.011v0.021v0.027v0.023v0.029
			v0.033v0.026l-0.001,0.026l-0.006,0.02l-0.008,0.02l-0.02,0.016l-0.008,0.016L15.45,15.34l-0.029,0.016l-0.024,0.01l-0.044,0.006
			l-0.027,0.007l-0.019,0.008l-0.017,0.011l-0.032,0.01l-0.026,0.01l-0.018,0.006l-0.024,0.008l-0.028,0.008l-0.035,0.004
			l-0.023,0.008l-0.042,0.021l-0.027,0.015l-0.022,0.014l-0.024,0.015l-0.021,0.013l-0.024,0.014l-0.025,0.015l-0.034,0.019
			l-0.034,0.016l-0.032,0.018l-0.022,0.012l-0.029,0.017l-0.048,0.039l-0.021,0.021l-0.019,0.018l-0.019,0.021l0.013,0.047
			l0.006,0.017l0.02,0.021l0.009,0.026l0.012,0.017l0.011,0.021l0.01,0.021l0.014,0.021l0.016,0.027l0.014,0.025l0.013,0.029
			l0.015,0.029l0.03,0.043l0.016,0.033l0.026,0.025l0.021,0.021l0.026,0.025l0.021,0.018l0.022,0.029l0.002,0.028l0.014-0.009
			l0.026-0.01l0.018-0.002h0.041h0.027l0.023-0.006l0.023-0.004l0.021-0.002h0.021l0.062,0.002l0.022-0.002l0.027-0.016l0.041-0.016
			h0.026l0.04-0.012l0.031-0.023l0.067-0.008l0.023-0.006l0.044-0.027l0.023-0.008l0.034-0.004l0.023-0.012l0.019-0.017l0.02-0.015
			l0.015-0.01l0.021-0.014l0.027-0.016l0.023-0.006l0.085-0.009h0.04h0.056l0.014-0.006l0.022-0.013l0.031-0.025l0.004-0.02
			l0.011-0.039l0.014-0.028l0.014-0.022l0.014-0.018l0.011-0.016l0.014-0.028l0.007-0.013l0.015-0.02l0.014-0.015l0.022-0.013
			l0.031-0.018l0.023-0.02l0.017-0.018l0.015-0.012l0.023-0.003l0.03-0.003h0.022l0.019,0.006l0.022,0.012l0.031,0.014l0.027,0.016
			l0.017,0.018l0.018,0.014l0.008,0.009l0.022,0.019l0.021,0.008l0.034,0.012l0.018,0.003l0.055,0.009l0.021,0.006l0.023,0.004
			l0.034,0.002l0.026,0.002l0.031,0.008l0.051,0.004h0.017l0.024-0.021l0.007-0.019l0.014-0.016l0.008-0.016l0.014-0.012
			l0.003-0.012l0.004-0.012v-0.021v-0.014v-0.015v-0.009V15.65l0.01-0.021l0.015-0.006l0.058-0.011L17,15.604l0.036-0.009
			l0.031-0.003h0.03l0.021-0.018l0.03-0.026l0.03-0.022l0.023-0.01l0.024-0.018l0.018-0.012l0.025,0.002l0.024,0.016l0.014,0.021
			l0.018,0.029l0.011,0.018l0.018,0.035l0.011,0.018l0.018,0.041l0.017,0.015l0.021,0.032l0.014,0.018l0.007,0.018l0.015,0.031
			l0.034,0.076l0.014,0.02l0.014,0.016l0.021,0.028l0.026,0.019l0.021,0.022l0.03,0.012l0.041,0.013l0.052,0.004h0.021h0.034
			l0.023-0.018l0.029-0.012l0.024-0.012l0.03-0.012l0.055-0.025h0.059l0.026,0.008h0.024l0.017-0.02l0.024-0.029l0.014-0.01
			l0.017-0.014l0.018-0.009h0.038l0.03,0.035l0.051,0.046l0.021,0.02l0.03,0.026l0.021,0.021l0.021,0.023l0.021,0.018l0.023,0.015
			l0.027,0.022l0.015,0.016l0.017,0.021l0.023,0.012l0.021,0.008l0.02,0.009l0.027,0.006l0.026,0.009h0.027h0.018l0.026,0.018
			l0.059,0.023l0.024,0.014l0.037,0.02l0.022,0.012l0.027,0.012l0.021,0.018l0.023,0.012l0.023,0.006l0.03,0.008l0.023,0.004
			l0.03,0.015l0.041,0.003l0.034,0.006l0.026,0.008l0.031,0.013l0.03,0.006l0.034,0.015l0.026,0.028l0.045,0.041l0.03,0.041
			l0.021,0.012l0.021,0.025l0.021,0.028l0.018,0.018l0.064,0.023h0.027h0.051l0.023-0.021l0.062-0.032l0.041-0.012l0.037-0.021
			l0.06-0.016l0.025-0.02h0.056l0.048-0.028l0.021-0.019l0.023-0.012l0.037-0.012l-0.027-0.021l-0.027-0.039l-0.021-0.041
			l-0.068-0.022l-0.036-0.022l-0.019-0.055l-0.018-0.033l-0.036-0.021l-0.036-0.046L19.576,16l-0.027-0.055l-0.036-0.049
			l-0.019-0.019l-0.022-0.026l-0.05-0.043l-0.045-0.041l-0.062-0.05l-0.055-0.039l-0.062-0.042l-0.045-0.031l-0.06-0.041l-0.03-0.02
			l-0.06-0.02l-0.01-0.057l0.014-0.096v-0.045v-0.012l-0.036-0.035l-0.036-0.043l-0.035-0.08l-0.056-0.061l-0.05-0.184l0.014-0.047
			l0.026-0.068l0.06-0.08v-0.054l-0.02-0.081v-0.053l0.018-0.082l0.005-0.061v-0.061l-0.015-0.077v-0.073l0.011-0.096l0.03-0.069
			l0.035-0.045l0.014-0.038l-0.026-0.058L18.91,13.83l-0.032-0.023l-0.041-0.029l-0.031-0.035l-0.021-0.049l-0.041-0.027
			l-0.014-0.072l-0.015-0.092l-0.045-0.064l0.015-0.084l0.004-0.022l0.031-0.058l0.03-0.045l0.022-0.058l0.026-0.042l0.015-0.062
			l-0.001-0.062v-0.069v-0.045l-0.011-0.058l-0.004-0.042l-0.018-0.047l-0.032-0.049l-0.021-0.035l-0.032-0.03l-0.019-0.03
			l-0.04-0.054l-0.141-0.054l-0.041-0.03l-0.04-0.05l-0.036-0.072l-0.014-0.077l-0.072-0.063l-0.059-0.047l-0.032-0.025
			l-0.054-0.049l-0.041-0.031l-0.076-0.046l-0.068-0.045l-0.049-0.073l-0.022-0.072l-0.019-0.076l-0.01-0.08v-0.096l0.018-0.089
			l0.036-0.022l0.101-0.034l0.066-0.017l0.085-0.02l0.015-0.038l0.05-0.062l0.049-0.045l0.014-0.076l0.027-0.065l0.013-0.058
			l0.005-0.045l0.045-0.062l0.04-0.038l0.015-0.072l-0.056-0.051l0.005-0.029l0.05-0.043l0.05-0.035l0.04-0.014l0.091-0.043
			l0.054-0.037l0.015-0.013l0.05-0.069h0.001l0.062-0.084l0.09-0.039l0.04-0.022l0.045-0.022l0.022-0.031l0.019-0.049l0.036-0.059
			l0.04-0.035l0.019-0.05l0.03-0.063l0.023-0.039l0.021-0.035l0.011-0.027l0.018-0.03V9.855V9.816l-0.01-0.018l0.01-0.021
			l0.035-0.022l0.019-0.031l0.031-0.03l0.019-0.038l0.035-0.046l0.027-0.031l0.027-0.023l-0.001-0.023l0.019-0.015l-0.005-0.046
			L19.397,9.41L19.37,9.357l-0.022-0.035l-0.036-0.045l-0.018-0.05l-0.023-0.073l-0.014-0.026l-0.014-0.031V9.08V9.036l0.005-0.038
			l0.018-0.046l0.014-0.03l0.037-0.027l0.025-0.019l0.045-0.031l0.046-0.019l0.014-0.016l0.072-0.042l0.059-0.038l0.054-0.019
			l0.041-0.023l0.067-0.031l0.035-0.026l0.05-0.031l0.041-0.026l0.021-0.012l0.023-0.027l0.014-0.023l0.014-0.019l0.019-0.02
			l0.035-0.042l0.019-0.019l0.031-0.046l0.036-0.045l0.009-0.016l0.027-0.016l0.009-0.012l0.014-0.015l0.031-0.027l0.018-0.019
			l0.019-0.023l0.019-0.023l0.022-0.027l0.049-0.03l0.01-0.02l-0.005-0.019l0.005-0.031v-0.03V7.952l0.004-0.027l0.01-0.038
			l0.035-0.05l0.022-0.031l0.014-0.015l0.036-0.027l0.027-0.019l0.03-0.023l0.035-0.027h0.046l0.062,0.019l0.036,0.004h0.041h0.049
			l0.027-0.019l0.035-0.046l0.019-0.031v-0.03V7.557V7.53l0.039-0.032l0.06-0.026l-0.053-0.061l-0.076-0.079l-0.059-0.057
			l-0.074-0.033l-0.053-0.024l-0.023-0.009l-0.053-0.02l-0.127-0.036l-0.067-0.015L20.324,7.13l-0.047-0.02l-0.007-0.02L20.26,7.052
			V6.988l-0.001-0.064V6.86l-0.084-0.028L20.124,6.81l-0.068-0.035l-0.05-0.036l-0.079-0.031l-0.063-0.026h-0.007h-0.02
			l-0.009-0.043v-0.05V6.553l0.024-0.05l0.038-0.016l0.029-0.012l0.025-0.015h0.075h0.06h0.042h0.059l0.042,0.014h0.012h0.015
			l0.025-0.014l-0.018-0.029l-0.06-0.057l-0.024-0.043L20.16,6.317l-0.021-0.022l-0.033-0.05l-0.018-0.029L20.07,6.159l-0.018-0.018
			l-0.017-0.019l-0.034-0.028L19.96,6.058l0,0L19.893,6.03L19.85,6.009l-0.036-0.02l-0.057-0.03l-0.014-0.008l-0.012-0.007
			l-0.027-0.035l-0.006-0.008l-0.037-0.02l-0.014-0.008L19.615,5.86l-0.036-0.015l-0.102-0.064l-0.023-0.015l-0.035-0.021
			l-0.042-0.036l-0.052-0.05l-0.031-0.033l-0.036-0.038l-0.066-0.071l-0.067-0.072l-0.085-0.143l-0.067-0.058l-0.018-0.05
			L18.945,5.13L18.92,5.072l-0.031-0.047l-0.011-0.017l-0.025-0.065l-0.005-0.036l-0.004-0.028l-0.033-0.072l-0.016-0.016
			l-0.021-0.02l-0.008-0.064V4.621v-0.05L18.784,4.5l0.004-0.005l0.029-0.031V4.385l-0.002-0.006L18.8,4.335l-0.06-0.029
			l-0.042-0.057L18.63,4.135l-0.102-0.129l-0.052-0.107l-0.033-0.107L18.41,3.749l-0.042-0.058l-0.062-0.078l-0.008-0.044
			L18.29,3.52l-0.025-0.057l-0.059-0.072l-0.061-0.129l-0.014-0.003L18.07,3.247l-0.068-0.093l-0.059-0.072l-0.052-0.114
			l-0.036,0.019l-0.013,0.008l-0.008,0.004l-0.008,0.005l-0.014,0.008l-0.007,0.004l-0.024,0.013l-0.021,0.009l-0.028,0.02
			l-0.025,0.018L17.69,3.091l-0.029,0.005l-0.006,0.005l-0.02,0.014l-0.028,0.001h-0.02l-0.02-0.001l-0.014,0.002l-0.013,0.002
			h-0.016h-0.005h-0.008h-0.022H17.47h-0.007h-0.031h-0.063h-0.037h-0.014l-0.052-0.002l-0.019-0.002l-0.016-0.001h-0.047h-0.02
			H17.14l-0.018,0.011l-0.014,0.022L17.1,3.167l-0.006,0.009l-0.009,0.015l-0.01,0.012l-0.011,0.013l-0.021,0.021l-0.012,0.017
			L17.012,3.28l-0.016,0.01l-0.012,0.007l-0.005,0.002l-0.008,0.005l-0.017,0.011l-0.002,0.001l-0.026,0.01l-0.018,0.007
			l-0.014,0.01l-0.019,0.016l-0.006,0.005l-0.015,0.012l-0.006,0.007L16.845,3.39l-0.008,0.017l-0.008,0.014l-0.012,0.014
			l-0.01,0.025l-0.02,0.022l-0.01,0.008l-0.011,0.012l-0.011,0.009L16.733,3.53L16.72,3.54L16.69,3.549l-0.021,0.006l-0.021,0.007
			l-0.012,0.006l-0.003,0.001l-0.057,0.003l-0.03,0.004L16.53,3.581l-0.007,0.001l-0.019,0.017L16.489,3.62l-0.019,0.022
			l-0.015,0.025l-0.008,0.024l-0.02,0.021l0,0l-0.02,0.017l-0.004,0.003l-0.024,0.019l-0.017,0.01L16.346,3.78l-0.011,0.008
			L16.33,3.792l-0.006,0.005L16.31,3.808l-0.018,0.023v0.02v0.015v0.016v0.022v0.02L16.29,3.943l-0.002,0.015l-0.005,0.023L16.282,4
			l-0.004,0.02L16.27,4.03l-0.005,0.007L16.25,4.054L16.237,4.06l-0.014,0.006l-0.021,0.015L16.183,4.09l-0.021,0.009L16.158,4.1
			l-0.021,0.014l-0.018,0.01l-0.021,0.011l-0.021,0.002l-0.013,0.001L16.06,4.139l-0.014,0.004l-0.029,0.004l-0.02,0.01
			l-0.014,0.004l-0.004,0.001l-0.036,0.001l-0.039,0.03l-0.043,0.016L15.841,4.22L15.82,4.237l-0.02,0.019L15.79,4.264l-0.019,0.015
			l-0.016,0.007l-0.021,0.01l-0.028,0.008l-0.021,0.009l-0.021,0.011l-0.003,0.002l-0.026,0.007L15.613,4.34l-0.022,0.011
			l-0.033,0.007l-0.041-0.009l-0.023-0.006l-0.02-0.006l-0.018-0.006L15.43,4.314l-0.059-0.011l-0.034-0.009l-0.01-0.002
			l-0.021-0.006l-0.027-0.009l-0.03-0.016l-0.011-0.016L15.23,4.228l-0.004-0.01l-0.01-0.031l-0.009-0.022l-0.013-0.021L15.18,4.119
			l-0.021-0.017l-0.015-0.013L15.134,4.08l-0.012-0.007l-0.014-0.007l-0.008-0.005l-0.015-0.009l-0.031-0.014l-0.037-0.017
			l-0.026-0.008l-0.029-0.018L14.929,3.98l-0.038-0.016l-0.029-0.011h-0.032l-0.051-0.014L14.76,3.928l-0.021-0.015l-0.033-0.019
			l-0.028-0.015L14.653,3.87l-0.031-0.014l-0.023-0.015l-0.02-0.015L14.57,3.812L14.55,3.791l-0.031-0.015l-0.024-0.014L14.488,3.76
			l-0.013-0.003l-0.021-0.002l-0.026-0.007l-0.023-0.01l-0.038-0.026l0,0l-0.019-0.004L14.34,3.708l0,0L14.327,3.71l-0.01,0.005
			l-0.006,0.002l-0.009,0.009l-0.02,0.01L14.257,3.75l-0.016,0.01l-0.014,0.015l0,0l-0.023,0.015l-0.018,0.012l-0.023,0.012h-0.004
			l-0.035,0.005l-0.033,0.007L14.07,3.838l-0.028,0.018l-0.043,0.03l-0.022,0.016l-0.029,0.021l-0.012,0.019l-0.02,0.019
			l-0.044,0.004l-0.023-0.006l-0.027-0.005l-0.026-0.006L13.75,3.935l-0.031-0.007h-0.024h-0.062l-0.033,0.001h-0.027h-0.026
			l-0.043-0.002h-0.038l-0.024-0.012l-0.019-0.019L13.399,3.88l-0.018-0.019h-0.019h-0.074L13.254,3.88l-0.017,0.002l-0.017,0.006
			l-0.031,0.008l-0.021-0.008l-0.02-0.018l-0.027-0.022l-0.018-0.011l-0.014-0.01l-0.022-0.011L13.046,3.8l-0.027-0.009
			l-0.025-0.006l-0.022-0.003L12.935,3.78l-0.031-0.004l-0.016-0.002l-0.034-0.004l-0.026-0.002h-0.022l-0.034-0.006l-0.023-0.006
			L12.718,3.75l-0.026-0.005h-0.021l-0.035-0.007h-0.045l-0.036-0.006l-0.009-0.006l-0.019-0.016l-0.017-0.013l-0.014-0.015
			L12.481,3.67l-0.015-0.013l-0.013-0.016l-0.021-0.015l-0.016,0.002l-0.026,0.015l-0.028,0.01l-0.024,0.013l-0.061,0.016h-0.036
			h-0.034H12.17l-0.033-0.004L12.112,3.67l-0.021-0.007l-0.023-0.008L12.046,3.64L12.03,3.629L11.999,3.61l-0.037-0.025L11.946,3.57
			l-0.047-0.008l-0.024,0.015l-0.019,0.016L11.836,3.61l-0.027,0.016l-0.026,0.017l-0.014,0.014l-0.021,0.03L11.74,3.71
			l-0.003,0.026l-0.004,0.023l-0.004,0.023l-0.006,0.025l-0.005,0.025L11.71,3.855l-0.007,0.019l-0.002,0.019v0.029l0.007,0.025
			l0.007,0.027l0.01,0.024l-0.012,0.039l-0.005,0.017l-0.001,0.017l-0.012,0.027v0.023l-0.017,0.033l-0.01,0.015l-0.008,0.019
			l-0.012,0.025l-0.015,0.018l-0.002,0.021L11.63,4.27l0.001,0.021v0.044v0.021l0.004,0.023l0.013,0.015l0.002,0.015v0.016v0.024
			l-0.004,0.016l-0.021,0.009l-0.021,0.01l-0.03,0.015L11.56,4.517l-0.006,0.018l-0.007,0.019l-0.016,0.012l-0.017,0.015
			l-0.012,0.008l-0.019,0.012l-0.019,0.008l-0.021,0.012l-0.027,0.011l-0.022,0.011h-0.026h-0.022L11.32,4.641h-0.021h-0.025
			l-0.025-0.004l-0.021,0.001l-0.026-0.004h-0.027L11.15,4.636l-0.015,0.006l-0.021,0.01L11.094,4.66h-0.026l-0.017-0.007
			l-0.015-0.005l-0.013-0.001L11.01,4.652l-0.015,0.005l-0.014,0.002l-0.021,0.008l-0.019,0.002l-0.021,0.003l-0.02,0.006
			l-0.016-0.001l-0.02,0.004L10.85,4.688l-0.027,0.001l-0.03,0.004l-0.034,0.006l-0.02,0.014L10.71,4.72l-0.045,0.001h-0.04
			l-0.029-0.002l-0.026,0.003l-0.026,0.003l-0.029,0.012l-0.03,0.014l-0.032,0.014l-0.032,0.01l-0.037,0.01l-0.031,0.012
			l-0.028,0.006l-0.024-0.007L10.27,4.779l0,0l-0.006-0.001L10.24,4.774l-0.019-0.011l-0.013-0.008l-0.006-0.004l-0.016-0.015
			l-0.017-0.013l-0.014-0.014l-0.014-0.003h-0.006h-0.004l-0.019,0.005l-0.021,0.017h-0.032l-0.022-0.004l-0.001-0.001l-0.016-0.018
			l-0.008-0.011l-0.008-0.008L9.993,4.67L9.966,4.647L9.953,4.64L9.945,4.63L9.943,4.628L9.93,4.615L9.915,4.608l-0.02-0.012
			L9.883,4.591H9.865H9.861H9.847L9.83,4.597L9.812,4.601L9.804,4.6L9.791,4.599L9.776,4.596L9.775,4.595H9.774L9.764,4.592
			l-0.02-0.006L9.729,4.58L9.715,4.575L9.696,4.563L9.688,4.555L9.681,4.548L9.668,4.531L9.659,4.514L9.652,4.492L9.65,4.485
			L9.648,4.479L9.644,4.465L9.642,4.453V4.446L9.633,4.428L9.625,4.409L9.62,4.388L9.616,4.372L9.615,4.367L9.61,4.356L9.597,4.331
			L9.596,4.329L9.585,4.316V4.3V4.296L9.583,4.27L9.577,4.251L9.575,4.248L9.562,4.229L9.548,4.213L9.54,4.208L9.532,4.202H9.518
			H9.501H9.485L9.475,4.19L9.472,4.184L9.466,4.171l0,0L9.43,4.169L9.415,4.171L9.396,4.172L9.38,4.176L9.36,4.191l-0.01,0.004
			L9.343,4.197L9.332,4.2H9.316L9.301,4.204H9.279L9.258,4.212L9.245,4.227L9.23,4.241L9.219,4.25L9.191,4.266L9.167,4.287
			L9.158,4.294L9.138,4.288l-0.01-0.005L9.125,4.265L9.116,4.248H9.103L9.076,4.261L9.056,4.269H9.034L9.013,4.256L8.999,4.252
			l-0.015,0.01L8.972,4.279H8.967H8.954H8.936H8.93H8.926H8.911L8.902,4.281L8.893,4.29L8.884,4.298L8.878,4.306L8.875,4.311
			L8.856,4.326l-0.015,0.01H8.825H8.807H8.801h0.018H8.802H8.774L8.753,4.334L8.727,4.331l-0.019-0.01L8.689,4.308L8.679,4.3
			L8.667,4.291L8.65,4.277L8.635,4.256L8.607,4.245L8.602,4.243L8.585,4.236L8.563,4.231L8.548,4.219L8.533,4.214H8.527L8.52,4.213
			H8.495L8.481,4.209L8.458,4.2L8.447,4.188l-0.023-0.04L8.411,4.127L8.393,4.108L8.382,4.093L8.373,4.081L8.339,4.067L8.305,4.048
			L8.262,4.039L8.243,4.033L8.22,4.027l-0.027-0.01l-0.014-0.01L8.125,4.004L8.096,3.998H8.085L8.056,3.994H8.032L8.013,3.99
			L7.979,3.989L7.961,3.987L7.932,3.971L7.92,3.96L7.897,3.94L7.884,3.921L7.87,3.903L7.858,3.881l-0.01-0.017L7.841,3.848
			L7.829,3.821L7.818,3.817L7.81,3.798l0,0L7.803,3.769V3.731L7.802,3.72L7.801,3.714L7.793,3.688V3.663L7.792,3.646L7.791,3.64
			L7.785,3.619L7.783,3.608L7.779,3.593l-0.001-0.01L7.777,3.577l0.005-0.031L7.791,3.52L7.804,3.5l0.003-0.005L7.81,3.489
			l0.004-0.006l0.022-0.04l0.007-0.008l0.009-0.017l0.017-0.016l0.016-0.019l0.01-0.011l0.008-0.009l0.021-0.015l0.012-0.014
			l0.012-0.01l0.005-0.005L7.962,3.31L7.976,3.3l0,0l0.003-0.019l0.006-0.018l0.02-0.013L8.01,3.245l0.007-0.006l0.02-0.017
			l-0.01-0.017L8.005,3.203H7.976H7.952H7.947h-0.02H7.896L7.879,3.199L7.86,3.195L7.846,3.193L7.837,3.192H7.818H7.812H7.796
			L7.775,3.199L7.708,3.19h-0.02H7.665H7.651H7.626h-0.02H7.602H7.583H7.569H7.562L7.524,3.193L7.497,3.205L7.492,3.207L7.481,3.21
			L7.46,3.22L7.438,3.227L7.427,3.235L7.398,3.248L7.394,3.25L7.38,3.255l-0.031,0.01L7.328,3.271L7.31,3.277L7.292,3.285
			L7.273,3.294L7.252,3.3L7.219,3.311H7.192H7.172L7.158,3.308L7.156,3.297L7.148,3.278V3.259L7.146,3.222L7.128,3.205L7.111,3.188
			L7.1,3.173L7.094,3.168l-0.01-0.009L7.072,3.15L7.059,3.148L7.036,3.145L7.014,3.133L7.008,3.13l-0.01-0.006L6.979,3.109
			L6.963,3.101L6.945,3.09l-0.02-0.021L6.912,3.031V3.018V3.016L6.903,2.995l0,0L6.887,2.983L6.86,2.972L6.844,2.965L6.832,2.959
			l-0.028-0.01L6.779,2.947L6.761,2.936L6.745,2.929L6.731,2.923V2.908V2.895V2.889L6.737,2.87l0.016-0.034V2.813V2.805L6.751,2.788
			V2.762V2.729V2.704V2.703L6.744,2.678L6.732,2.662L6.716,2.647L6.699,2.631L6.693,2.626L6.675,2.621L6.65,2.609L6.634,2.597
			L6.62,2.59L6.599,2.583L6.584,2.567L6.575,2.556L6.567,2.548L6.562,2.543L6.541,2.53H6.54L6.527,2.513L6.515,2.5L6.513,2.499
			L6.494,2.49L6.465,2.48L6.443,2.471L6.421,2.454L6.399,2.444L6.388,2.437l-0.01-0.015l-0.005-0.01L6.367,2.397L6.355,2.383
			L6.354,2.38L6.337,2.361L6.323,2.346L6.312,2.333L6.311,2.331L6.295,2.312L6.281,2.3L6.274,2.294L6.252,2.282L6.236,2.274
			L6.233,2.272L6.215,2.259L6.21,2.238l-0.024-0.02L6.163,2.214H6.137L6.11,2.226l-0.019,0.01L6.081,2.245L6.06,2.259L6.041,2.272
			l0,0L6.029,2.273H6.018H5.984L5.912,2.262L5.892,2.254L5.882,2.25L5.865,2.239L5.837,2.221L5.806,2.206L5.789,2.198l-0.04-0.023
			L5.733,2.167l-0.021-0.01L5.693,2.146L5.66,2.122L5.649,2.113L5.641,2.106L5.622,2.087L5.614,2.07L5.601,2.045L5.581,2.02
			L5.564,1.995L5.546,1.974L5.544,1.962V1.932V1.907L5.541,1.84L5.54,1.832L5.539,1.827L5.536,1.819L5.534,1.815L5.53,1.8
			L5.528,1.789L5.527,1.785L5.525,1.772L5.521,1.756L5.519,1.751l-0.003-0.01L5.511,1.733L5.5,1.727l-0.014-0.01L5.479,1.712
			L5.458,1.693l0,0L5.442,1.672L5.439,1.669L5.428,1.657L5.425,1.653L5.422,1.648l-0.017-0.04L5.402,1.605L5.384,1.581L5.382,1.577
			L5.375,1.572L5.365,1.56L5.364,1.557L5.362,1.554L5.349,1.534L5.34,1.518L5.338,1.515L5.319,1.477L5.315,1.469L5.312,1.464
			L5.305,1.443v-0.01l0.001-0.011L5.305,1.417V1.403V1.38V1.365l0.008-0.021l0.009-0.028V1.297l0.007-0.033L5.321,1.248V1.246
			L5.319,1.228L5.312,1.214l0,0l0,0L5.31,1.204L5.307,1.2L5.3,1.188L5.298,1.181V1.178L5.284,1.164l-0.01-0.021V1.142l-0.012-0.02
			L5.254,1.104L5.252,1.1L5.245,1.083L5.236,1.067L5.235,1.064L5.217,1.05L5.165,1.036L5.16,1.029L5.149,1.018L5.128,0.988
			L5.104,0.965L5.065,0.953L5.021,0.934L4.984,0.927L4.962,0.92L4.921,0.903L4.903,0.896L4.889,0.89H4.871H4.851l0,0H4.838
			L4.789,0.892L4.753,0.893L4.715,0.894H4.683H4.675H4.658H4.651L4.637,0.893l-0.02-0.004H4.616H4.614L4.585,0.881l-0.021-0.01
			L4.532,0.859L4.514,0.854L4.492,0.85L4.475,0.846L4.463,0.844L4.432,0.837l-0.025-0.01l-0.02-0.013L4.382,0.811L4.369,0.799
			L4.342,0.778L4.326,0.76l-0.02-0.017L4.294,0.729L4.288,0.725L4.28,0.717L4.267,0.702L4.256,0.692L4.238,0.675L4.222,0.654
			L4.21,0.644L4.203,0.637L4.2,0.635l-0.013-0.01l-0.02-0.011L4.149,0.605H4.148H4.147L4.13,0.596L4.114,0.588H4.113l0,0
			L4.089,0.577L4.065,0.565L4.043,0.558L4.011,0.545L3.993,0.54L3.988,0.538l0,0L3.966,0.536H3.939H3.921L3.883,0.538L3.871,0.542
			L3.84,0.552l-0.028,0.01L3.782,0.574L3.749,0.585L3.71,0.591L3.687,0.601L3.64,0.621L3.597,0.629L3.562,0.647L3.533,0.676
			L3.506,0.695L3.474,0.75L3.457,0.776L3.446,0.812L3.439,0.835L3.431,0.858L3.419,0.879L3.416,0.903L3.409,0.931l0,0L3.386,0.947
			L3.374,0.962L3.371,0.965H3.368L3.348,0.968H3.332H3.329L3.312,0.966L3.294,0.956L3.275,0.944L3.267,0.942l-0.01-0.001h-0.01
			H3.238H3.228L3.224,0.942L3.209,0.949L3.203,0.953L3.192,0.959L3.185,0.968l-0.01,0.01L3.169,0.991L3.165,1L3.153,1.021
			L3.138,1.046L3.119,1.065l-0.026,0.01L3.063,1.075L3.045,1.07L3.033,1.066H3.007L2.979,1.07H2.976L2.961,1.076L2.953,1.083
			L2.941,1.091L2.916,1.114L2.908,1.124L2.896,1.135L2.891,1.143L2.88,1.154L2.864,1.177L2.846,1.201L2.831,1.224L2.825,1.236
			L2.818,1.249v0.027v0.023L2.83,1.342l0.021,0.017l0.001,0.017v0.021L2.849,1.403L2.841,1.418L2.803,1.449L2.767,1.47L2.746,1.482
			L2.729,1.491L2.698,1.509L2.681,1.539L2.662,1.564L2.636,1.595L2.63,1.625l0.008,0.023l0.01,0.032v0.012v0.003l0.004,0.023
			l0.002,0.023l0.005,0.013l0.002,0.01l0.002,0.004l0.003,0.013l0.01,0.023l0.017,0.017l0.008,0.011l0.008,0.01l0.006,0.012
			l0.006,0.009L2.73,1.889l0.004,0.013l0.005,0.016l0.016,0.025l0.011,0.069l-0.002,0.03v0.007v0.01v0.019v0.002v0.017v0.014
			L2.751,2.128v0.027L2.729,2.169l-0.03-0.002L2.681,2.162L2.666,2.146L2.654,2.14L2.634,2.131L2.612,2.117L2.594,2.105L2.564,2.102
			L2.53,2.109L2.52,2.117L2.5,2.128L2.494,2.154v0.027v0.027v0.023v0.025L2.492,2.277L2.485,2.308L2.47,2.327L2.445,2.348
			l-0.022,0.01L2.404,2.367L2.37,2.377L2.345,2.395L2.332,2.406L2.323,2.419L2.318,2.437L2.31,2.453L2.299,2.472L2.27,2.488
			L2.251,2.5L2.232,2.515L2.21,2.532L2.19,2.553l-0.01,0.023L2.172,2.599L2.16,2.617L2.139,2.646L2.124,2.667l-0.007,0.04
			L2.115,2.725L2.108,2.744v0.021L2.105,2.789L2.098,2.803L2.093,2.817v0.021l0.009,0.019l0.002,0.017l0.008,0.019L2.113,2.91
			l0.002,0.019L2.12,2.945l0.006,0.024l0.009,0.02L2.147,3.01l0.008,0.021l0.017,0.021l0.002,0.017v0.014v0.009v0.014l-0.01,0.019
			L2.148,3.136H2.13H2.111L2.09,3.135H2.067L2.041,3.128l-0.01-0.006L2.022,3.114L2.002,3.099L1.995,3.091L1.983,3.076L1.972,3.069
			l-0.022-0.01L1.936,3.05L1.92,3.042L1.881,3.021L1.868,3.016L1.849,3.01L1.828,3l-0.02-0.006L1.787,2.992H1.774L1.763,2.996
			L1.747,3.003L1.729,3.016L1.713,3.033L1.7,3.049L1.692,3.07L1.686,3.103v0.027v0.046L1.683,3.198L1.677,3.223l-0.01,0.029
			L1.655,3.278L1.607,3.301L1.592,3.294L1.576,3.278L1.571,3.271V3.25l0.004-0.022l-0.02-0.013L1.543,3.207l-0.02-0.024L1.509,3.178
			H1.472l-0.033,0.02L1.411,3.222L1.393,3.221L1.371,3.233L1.346,3.252L1.337,3.286L1.296,3.283l-0.073,0.03L1.31,3.362L1.339,3.38
			l0.078,0.046l0.059,0.038l0.061,0.051l0.187,0.189L1.76,3.805l0.12,0.208l0.052,0.095l0.022,0.038l0.015,0.056l0.038,0.063
			L1.94,4.493v0.095V4.65L1.926,4.701L1.911,4.739L1.837,4.777L1.8,4.802L1.739,4.84L1.688,4.934l0.008,0.051l0.008,0.05
			l0.016,0.063l0.03,0.057L1.727,5.224l0.052,0.038v0.051v0.063L1.771,5.452L1.683,5.528L1.661,5.547L1.646,5.604L1.602,5.68
			L1.557,5.775L1.505,5.826L1.49,5.864L1.461,5.896l-0.03,0.069L1.416,6.028L1.342,6.135L1.321,6.186L1.299,6.224l-0.015,0.05
			L1.262,6.337L1.255,6.394l0.03,0.177L1.276,6.634L1.255,6.691L1.24,6.742L1.211,6.786v0.057L1.196,6.914"/>
	</g>
</g>
<g id="Layer_1">
</g>
</svg>
