<?xml version="1.0" encoding="utf-8"?>
<!-- Generator: Adobe Illustrator 16.0.4, SVG Export Plug-In . SVG Version: 6.00 Build 0)  -->
<!DOCTYPE svg PUBLIC "-//W3C//DTD SVG 1.1//EN" "http://www.w3.org/Graphics/SVG/1.1/DTD/svg11.dtd">
<svg version="1.1" id="Layer_1" xmlns="http://www.w3.org/2000/svg" xmlns:xlink="http://www.w3.org/1999/xlink" x="0px" y="0px"
	 width="301.562px" height="224.076px" viewBox="-137.259 -102.028 301.562 224.076"
	 style="enable-background:new -137.259 -102.028 301.562 224.076;" xml:space="preserve">
<g id="Layer_83">
	<path id="Mardan" style="fill:#CCCCCC;stroke:#FFFFFF;stroke-width:1.15;" d="M-125.538-19.698L-125.538-19.698l0.123,0.578
		l0.238,0.822l0.229,0.912l0.183,0.789l0.162,0.611l0.238,0.567l0.184,0.578l-0.139,0.812l0.411,1.322l0.444,0.645l0.467,0.333
		l0.5,0.411l0.478,0.645l0.295,0.889l0.578,0.756l-1.545-0.122l-0.945-0.1l-1.277,0.111l-0.851,0.022l-0.556,0.167l-0.705,1.023
		l-0.367,1.066l-0.511,0.556l-0.262,0.478l-0.228,0.767l-0.105,0.8l-0.156,1.233l-0.116,0.956l-0.111,1.234l-0.062,0.3l-0.1,0.367
		l-0.184,1.2l-0.405,2.156l-0.195,1.033l-0.25,1.234l-0.161,0.934l-0.216,1.211l-0.184,1.334l-0.167,1.112l-0.061,0.255
		l-0.229,0.822l-0.066,1.322v1.09l-0.056,0.966l-0.066,0.745l-0.14,0.834l0.022,0.678l-0.078,0.589l0.056,1.057l1.045,1.11
		l0.095,0.089l0.772,0.4l1.045,0.512l0.822,0.277l0.577,0.312l0.379,0.334l0.339,0.41l0.494,0.578l0.223,0.423l-0.316,0.911
		l-0.123,0.6l-0.062,0.566l0.022,0.367l0.184,0.534l0.467,0.455l0.584,0.622l0.238,0.345l0.229,0.366l0.238,0.345l0.239,0.557
		l0.211,0.7l0.062,0.378l-0.011,0.521l0.249,0.567l0.456,0.366l0.339,0.5l0.934,0.557l1.301,0.244l0.611,0.156l0.717,0.11
		l0.583,0.234l0.339,0.288l0.229,0.378l0.339,0.355l0.594,0.223l1.034,0.232l0.422-0.021l0.522-0.011l0.5,0.223l0.518,0.089
		l0.405-0.089l0.4-0.079l0.944,0.145l0.39,0.101l0.589,0.056l0.399,0.033l0.578,0.178l0.706,0.066h0.294l0.456-0.166l0.684,0.166
		l0.583-0.066l0.456-0.078l0.578,0.145l0.75,0.145l0.65,0.111l0.705,0.256l0.64,0.122l0.467,0.066l0.589,0.022l0.739-0.066
		l0.389,0.089l0.1-0.033l0.456-0.2l-0.261,1.979l-0.239,1.1l-0.239,0.878l0.14,0.489l1.389,0.067l0.2,0.044l0.562,0.133l0.705,0.045
		l0.784-0.021l0.566-0.023l1.245,0.189l0.405,0.1l0.39,0.101l0.327,0.533l0.25,0.533l0.267,0.789l0.239,0.656l0.022,0.044
		l0.178,0.467l0.705,1.801l0,0l0.128,0.301l0.239,0.633l0.4,1.111l0.533,1.146l0.511,0.878l0.434,1.322l0.239,0.711l0.194,0.856
		l0.239,1.444l0.122,0.567l1.05,3.467l0.884,1.777l0.312,0.601l0.428,0.845l0.562,1.867l0.611,1.4l0.322,1.134l0.405,1.778
		l0.562,1.355l0.512,1.111l0.661,1.546l0.433,0.645l0.239,0.311l0.717,1.212l0.706,1.078l0.645,1.367l0.539,1.133l0.556,1.123
		l0.5,0.955l0.5,1.211l0.312,0.567l0.7,1.111l0.517,0.934l0.589,1.223l0.15,0.645l0.239,0.8l-0.012,0.689l0.217,0.423l0.622,0.533
		l0.551,0.4l0.577,0.266l0.239,0.123l0.956,0.434l0.705,0.244l0.795,0.089l1.483,0.133l1.112,0.245l1.072,0.444l1.262,0.489
		l0.822,0.289l1.661,0.389l0.772-0.077l0.967,0.066l0.9,0.222l1.184,0.279l1.194,0.288l1.206,0.245l0.706,0.321l0.934,0.089
		l0.601,0.233l0.922-0.089l1.039-0.178l1.34-0.211l1.105-0.289l0.955-0.256l1.057-0.154l0.955-0.245l0.706,0.066l0.801,0.133
		l0.988,0.189l0.534,0.022l0.9-0.189l0.238-0.256l0.206-0.377l0.033-0.245l0.845,0.012l1.078,0.145l1.322,0.089l0.979,0.188
		l0.899,0.2l0.851,0.067l0.706,0.065l0.705,0.089l1.022,0.046l0.267,0.032l0.328,0.033l0.378,0.245l0.272,0.488l0.25,0.645
		l0.229,0.701l0.194,0.589l0.238,0.366l0.239,0.468l0.316,0.121l0.295,0.323l0.294,0.321l0.345,0.4l0.589,0.701l0.605,1.399
		l-0.044,0.489l-0.661,0.622v0.934l-0.25,0.5l-0.194,0.59l-0.239,0.688l-0.089,0.678l0.033,0.622l0.295,0.868l0.728,1.311l0.4,0.39
		l1.351,0.744l1.149,0.267l0.706,0.145h1.218h1.005l0.706,0.367l-0.062,0.777l-0.238,0.511l-0.179,0.4l-0.238,0.423l-0.378,0.467
		l-0.64,0.633l-0.521,0.468l-0.239,0.378l-0.217,0.533l-0.155,0.489l-0.072,0.611l0.022,0.855l0.021,0.422l0.4,0.912l0.5,0.321
		l0.706-0.01l1.027-0.079l1.101-0.032l0.967-0.067l0.539,0.022l0.895,0.322l1.128,0.322l0.762,0.322l0.706,0.434l0.572,0.355
		l0.134,0.089l0.694,0.268l1.3,0.288l0.706-0.111l1.056,0.145l0.572-0.111l0.772-0.478l2.106-0.434l3.65-1.289l0.15-0.045h0.011
		l0.384-0.077l1.256-0.323l1.317-0.277l0.833-0.111l0.9-0.166l1.089-0.123l1.345-0.056l1.15-0.088l1.229-0.045l1.339-0.044
		l0.684,0.066l0.684,0.11l0.455,0.123l0.706,0.3l1.456,0.556l2.14,0.656l0,0l0.239,0.111l1.05,0.455l1.012-0.066l1.205,0.021
		l0.706,0.245l0.967,0.333l1.39,0.601l1.161,0.022l1.045-0.045h0.878l1.283,0.045l1.872,0.089l0.822,0.011l1.179-0.211l0.512-0.212
		l0.244-0.2l0.322-0.321l0.234-0.512l0.288-0.944l0.222-0.601l0.245-0.845l0.244-0.833v-0.012l0.033-0.133l0.156-0.701l0.122-0.733
		l0.2-0.822l0.145-0.1l0.61-0.499l0.734-0.135l3.468-0.422l0.434-0.044h0.699l1.156,0.533l0.556,0.4l0.889,0.555l0.39,0.4
		l0.233,0.133l0.045,0.046h0.044l0.689,0.354l0.244-0.244l0.277-0.311l-0.056-0.601l0.045-0.767l-0.045-0.812l0,0l-0.033-0.233
		l0.212-0.212l0.233-0.166l1.255,0.245l0.723,0.644l0.389,0.256l0.757,0.244l0.889,0.268l3.034-0.045l0.945-0.044l0.799,0.244
		l0.233,0.134l0.612,0.399l0.511,0.134l0.089,0.033l0.489-0.056l0.699-0.199l0.012-0.023l0.489-0.333l0.034-0.022l0.21-0.211
		l0.223-0.2l0.345-0.667l0.233-0.478l0.444-0.522l0.533-0.433l0.222-0.834l-0.11-0.768l-0.178-0.61l0.111-0.468l0.111-1.044
		l0.2-1.89l0.021-1.123l-0.012-1.211l0.056-0.889l0.179-1.223l0.133-0.945v-0.122l0.033-0.244l-0.021-0.912l-0.034-0.844v-0.801
		l-0.154-0.822l-0.19-0.344l0,0l-0.065-0.801l-0.189-0.778l-0.066-0.277l-0.145-0.756l-0.233-1.312l-0.155-0.878l-0.101-0.756
		v-0.045l-0.089-0.845l-0.011-0.688l0.011-0.667l0.101-0.922l0.222-0.957l0.078-0.844l0.045-0.889l0.01-0.301l0,0l0.111-0.444
		l0.067-0.601l-0.067-0.489l-0.089-0.333l-0.011-0.345l-0.122-0.5l-0.211-0.979l0.188-0.844l0.333-1.056l0.268-1.012l0.288-0.812
		l0.268-0.589l0.267-0.711l0.256-0.5l0.466-0.634l0.278-0.4l0.355-0.355l0.556-0.255l0.378-0.189l0.066-0.589l-0.088-0.634
		l-0.156-0.778l-0.077-0.544l-0.078-0.634l-0.278-2.123l-0.032-0.312l-0.079-0.377l-0.188-0.645l-0.233-0.545l-0.233-0.611
		l-0.3-0.867l-0.188-0.622l-0.167-0.556l-0.134-0.7L53.007,59V58.99l-0.089-0.268l-0.145-0.723l-0.379-1.788l0.335-0.879l0,0
		l0.789-0.311l2.422-0.89l2.757-1.2l0.533-0.223l-0.111-0.934l-0.021-0.066l-0.09-0.489l-0.155-0.511l-0.022-0.567l0.145-0.61
		l0.188-0.79l0.233-1.1l0.189-0.712l0.245-1.522l0.178-0.811l0.133-0.445l0.223-0.678l0.222-0.433l0.444-0.779l0.268-0.533
		l0.289-0.511l0.4-0.512l0.466-0.7l0.468-0.878l0.389-0.389l0.41-0.534l0.424-0.466l0.499-0.5l0.456-0.489l0.066-0.033l0.645-0.379
		l0.488-0.222l0.635-0.289l0.644-0.232l0.379-0.279l0.345-0.232l3.5-1.268l0.356-0.011h0.321l0.4-0.012h0.367h0.277l0.233-0.11
		l2.145-0.823l0,0l0.268-0.066l1.111-0.167l0.678-0.056l0.889-0.121l0.856-0.111l0.755-0.422l0.668-0.489l0.699-0.268l0.423-0.033
		l0.366-0.011l0.668,0.145l0.755,0.133l0.456,0.179l0.533,0.1l0.967,0.233l0.423,0.188l0.711,0.134l0.656,0.088h0.722h0.023
		l0.222-0.021l0.188-0.022l0.945-0.044h0.177l0,0h0.379h0.021l0.312,0.022l0.411,0.021h0.011l1.134,0.09l0.867,0.178h0.066
		l0.467,0.066l0.345,0.077l0.211,0.023l1.268,0.154l0.389,0.022l0,0l0.378,0.022l0.723,0.011l1.267,0.212l0.89,0.355l0.222,0.122
		h0.022l0.277,0.111l0.812,0.289l0.712,0.321l0.244,0.079h0.022l0.699,0.056l0.701,0.166l0.577,0.134l0.712,0.354l0.467,0.39h0.022
		l0.555,0.355l0.256,0.189l0.634,0.389l0.911,0.378l0.712,0.111h0.077l1.012-0.301l0.511-0.233l0.801-0.6l0.711-0.366l0.211-0.112
		l0.723-0.366l0.312-0.145l0.645-0.244l0.333-0.367l-0.121-0.589l-0.234-0.611l-0.145-0.467l-0.033-0.122l-0.089-0.623l-0.289-0.577
		l-0.733-1l-0.345-0.423l-0.723-0.566l-0.555-0.423l-0.801-0.667l-0.533-0.466l-0.356-0.345l-0.711-0.656l-0.756-0.188l-0.489-0.434
		l-0.155-0.667l-0.333-0.733h-0.556l-0.244-0.355v-0.022l-0.134-0.2l0.167-0.133l0.077-0.189l0.456-0.4l0.345-0.399l0.021-0.289
		l-0.199-0.322l-0.312-0.423l-0.223-0.422v-0.067l-0.133-0.155l0.244-0.6l0,0l0.345-0.444l0.567-0.646l0.577-0.133l0.678-0.444
		l0.611-0.456l0.534-0.289l0.533-0.467l0.355-0.345l0.022-0.021l0.133-0.111l0.312-0.456l0.578-0.566l0.232-0.723l0.101-0.688
		l0.601-0.623l0.744-0.522l0.767-0.789l0.378-0.578l0.623-0.478l0.755-0.611l0.223-0.255l0.411-0.612l0.145-0.756l0.067-0.934V8.287
		V7.821l-0.057-0.566l-0.021-0.667l-0.044-0.701l-0.234-0.444l-0.422-0.479l-0.656-0.778L113.5,3.442l-0.234-0.489h-0.021
		l-0.089-0.122l0.044-0.1l-0.066-0.222l0.111-0.566l-0.067-0.589l-0.266-0.322l-0.245-0.422l0.345-0.456l0.145-0.245l0.133-0.289
		l0.233-0.2l0.145-0.111h0.022l0.045-0.078l0.934-0.622l0.889-0.233l0.689,0.078l0.178,0.022l0.244-0.033l1.033-0.078l0.601-0.156
		l0.233-0.256l0,0l0.044-0.056l-0.111-0.645l0.289-0.5l0.245-0.856l0.1-0.155l0.3-0.601l0.668-0.744l0.577-0.856l0.578-0.578
		l0.111-0.122l0.533-0.133l0.955-0.022l1.734-0.078l0.934,0.066h0.045l0.111,0.012h0.978l0.911-0.167l0.634,0.056l0.7,0.189h0.021
		l1.179-0.289l0.712,0.067l1.044,0.133l1.022,0.123l0.967,0.289l0.923-0.066l0.077,0.034l0.412-1.056l0.288-0.8l0.4-0.6l0.422-0.4
		l0.689-0.733l0.489-0.7l0.244-0.701l0.244-0.6l0.424-0.589l0.51-0.467l0.656-0.389l0.7-0.345l0.256-0.1l0.5-0.289l1.289-0.733
		l0.845-0.444l1.233-0.678l0.778-0.556l0.556-0.622l0.3-0.479l0.667-1.056l0.922-1.089l0.167-0.066l0.089-0.123l0.712-0.422
		l0.711-0.211l0.556-0.067l0.8-0.167l0.156-0.022l0.399-0.134l1.356-0.633l1.312-0.711l0.022-0.011l0.255-0.222l0.646-0.311
		l0.521-0.245l0.301-0.222l0.056-0.034l0.688-0.478l0.356-0.3l0.021-0.011l0.822-0.956l0.223-0.367l0.178-0.6l0.179-0.1l0.088-0.044
		l0.267-0.156l-0.244-0.156l-0.122-0.145l-0.012-0.055l-0.377-0.867l-0.145-0.812l0.21-0.711l0.245-0.622l0.155-0.801l0.134-0.567
		l-0.111-0.522l-0.178-0.467l-0.289-0.723l-0.145-0.667l-0.233-0.711l-0.244-0.922l-0.223-0.623l-0.045-0.122l-0.166-0.578
		l-0.278-0.744l-0.244-0.312l-0.566-0.555l-0.723-0.6l-0.712-0.489l-0.666-0.334l-0.89-0.233l-0.711,0.022l-0.9,0.011l-0.745-0.011
		h-0.511l-0.867-0.011l-0.978,0.067l-0.845,0.078l-1.156,0.133l-0.889-0.044l-0.834-0.1l-0.545-0.1l-0.933-0.245l-0.712-0.234
		l-0.8-0.344l-0.7-0.39l-0.5-0.333l-0.922-1.167l-0.412-0.511l-0.689-0.6l-0.7-0.511l-0.566-0.256l-0.777-0.333l-0.822-0.167
		l-0.489-0.322l-1.001-1.489l-0.577-1.5l-0.233-0.767l-0.256-1l-0.333-0.467l-0.379-0.333l-0.511-0.211l-0.556-0.2l-0.422-0.067
		l-0.489-0.145l-0.645-0.167l-0.268-0.133l-0.244-0.133l-0.489-0.3l-0.666-0.111l-0.578,0.011h-0.668l-0.688,0.111l-0.29-0.011
		l-1.133-0.122l-0.234-0.089l-0.455-0.189l-0.589-0.256l-0.333-0.178h-0.345l-0.578,0.122l-0.556,0.189l-0.689,0.233l-0.867,0.256
		l-0.422-0.1l-0.601-0.222l-0.444-0.178l-0.467-0.211l-0.622-0.2l-0.7-0.289l-0.422-0.156l-0.7-0.256l-0.533-0.189l-0.612-0.233
		l-0.455-0.189l-0.312-0.122l-0.633-0.155l-0.767-0.044l-0.79,0.044l-0.744,0.033h-0.678l-0.789,0.122l-0.912,0.045l-0.589,0.155
		l-0.789,0.245l0,0h-0.6l-1.734,0.6l-0.634,0.322l-0.277-0.011l-0.111-0.011l-0.378-0.011l-0.423-0.067l-0.699-0.133l-1.122-0.245
		l-0.689-0.156l-0.533-0.055l-0.689,0.078l-0.845,0.211l-0.645,0.311l-0.701,0.244l-0.743,0.256l-1.657,0.478l-1.188,0.089
		l-0.745,0.044l-0.467,0.011l-0.555,0.012l-0.59,0.111l-0.533,0.089l-0.444,0.189l-0.622,0.3l-0.823,0.489l-0.489,0.411l-0.377,0.4
		l-0.557,0.711l-0.021,0.055l-1.278,0.678l-0.212-0.067l0,0l-0.222-0.155l-0.288-0.178l-0.567-0.256l-0.256-0.111l-0.345-0.111
		l-0.634-0.189l-0.489-0.133l-0.398-0.1l-0.39-0.122l-0.5-0.189l-0.556-0.234l-0.367-0.211l-0.389-0.189l-0.601-0.2l-0.389-0.29
		l-0.3-0.311l-0.4-0.567l-0.422-0.578l-0.334-0.378l-0.399-0.355l-0.379-0.234l-0.333-0.155l-0.277-0.078l-0.301-0.078l-0.244-0.033
		l-0.689-0.556l-0.244-0.145l-0.156-0.145l-0.377-0.344l-0.212-0.912h-0.3h-0.334h-0.288H72.5h-0.444l-0.645-0.066l-0.678-0.234
		l-0.612-0.245L69.5-57.351l-0.377-0.011h-0.301l-0.377,0.011L68.4-57.407l-0.3-0.077l-0.4-0.178l-0.378-0.222l-0.111-0.067l0,0
		l-0.422-0.344l-0.512-0.623l-0.066-0.022l-0.223-0.278l-0.512-0.422l-0.533-0.134l-0.833-0.245l-0.634-0.267l-0.511-0.267
		l-0.7-0.256l-0.656-0.478l-0.511-0.567l-0.278-0.355l-0.277-0.367l-0.289-1.278l-0.233-1.723l0.322-2.467l0.244-1.422l-0.489-1.834
		l0.067-1.011L60.409-73l0.012-0.122l0.033-0.011l0.244-0.667l0.233-0.545l0.1-0.5l0.045-0.6l0.022-0.645l-0.067-0.566l-0.021-0.534
		v-0.556l0.267-1.156l0.133-0.377l0.034-0.467l-0.301-0.278l-0.066-0.056l-0.356-0.189l-0.699-0.367l-1.467-0.844l-0.645-0.222
		l-0.434-0.211l-0.601-0.2l-0.489-0.067l-1.889-0.667l-0.556-0.189l-0.233-0.089l-1.189-0.456l-0.7-0.322l-1.022-0.556l0.133-0.422
		l0.256-0.667l0.212-0.456l-0.233-1.389l0.066-1.456l0.244-0.289l-0.645-0.445l-0.667-0.167l-0.688-0.245l-0.846-0.277l-0.444-0.145
		l-0.578-0.233l-0.533-0.267l-0.6-0.233l-0.6-0.155l-0.689-0.078l-0.578-0.066H44.56h-0.11h-0.634l-1.189,0.066h-0.089h-0.488
		l-0.623-0.322l-0.711-0.667l-0.067-0.145l-0.244-0.455l-0.2-0.511l-0.222-0.367l-0.2-0.3l-0.445-0.733l-0.466-0.411l-0.444-0.411
		l-0.468-0.3l-0.434-0.156l-0.389-0.078l-0.822-0.022l-0.756,0.078l-0.934,0.167l-0.411,0.156l-0.611,0.111l-0.601,0.1l-0.666,0.122
		l-0.501,0.044l-0.544,0.067l-0.7-0.111l-0.577-0.011H29.69l-0.267,0.122L28.8-95.061l-0.766-0.155l-0.445-0.333l-0.232-0.123
		l-0.334-0.167L26.2-96.283l-0.711-0.333l-0.711-0.289l-0.756-0.122l-1.756-0.1l-0.756-0.289l-1.367-0.333l-0.633-0.022
		l-0.956,0.122l-1.184,0.355l-0.718,0.267l-1.288,0.489l-0.194,0.055l0,0l-0.739,0.367l-1.545,0.789l-0.822,0.411l-0.489,0.29
		l-0.533,0.167l-0.673,0.111L9.664-94.26l-0.65,0.255l-0.316,0.367l-0.351,0.9l-0.095,0.689l-0.261,0.756l-0.14,1.178l-0.228,0.544
		l-0.022,0.034L6.818-88.97l-0.694,0.234l-0.911,0.278l-0.817,0.3l-0.139,0.033l-1.295,0.89l-0.605,0.555l-0.361,0.489l-0.25,0.511
		l-0.334,0.511l-0.488,0.8l-0.217,0.5l-0.045,0.823l0.5,0.022l-0.544,0.289l-0.751,0.178h-0.021h-0.011l-0.423,0.189l-0.5,0.188
		l-0.083,0.022l-0.395,0.256l-0.14,0.456l-0.455,1l-0.229,0.4l-0.25,0.311l-0.706,0.444l-1.033,0.4l-0.378,0.167l-0.717,0.345
		l-0.566,0.233l-0.606,0.278l-0.455,0.267l-0.556,0.345l-0.011,0.267l-0.012,0.278l0.456,0.323l0.455,0.255l0.623,0.355l0.3,0.445
		l-0.467,0.778l-0.072,0.222l0,0l-0.066,0.289l0.033,0.522l0.116,0.456l0.022,0.623l0.295,0.633l0.261,0.656l0.239,0.433v0.245
		l0.011,0.256l-0.35,0.433l-0.367,0.223l0.022,0.278l-0.056,0.377l-0.194,0.2l-0.101,0.123l-0.205,0.033l-0.194,0.245l-0.272-0.345
		v-0.011l-0.239-0.2l-0.161-0.311l-0.228-0.322l0.355-0.145l0.101-0.245l0,0l-0.034-0.155l-0.044-0.745l-0.172-0.822l-0.067-0.578
		l0.089-0.467l-0.166-0.589l-0.584-0.766l-0.372-0.512l-0.239-0.345l-0.239-0.566l-0.161-0.522l-0.056-1.211l-0.021-1.534
		l-0.017-0.8l-0.067-0.889l-0.228-0.611l-0.25-0.5l-0.351-0.344l-0.128-0.034l-0.339-0.167l-0.899,0.011l-0.545,0.156l-0.539,0.123
		l-1.066-0.134h-0.867l-0.9-0.066l-0.884-0.011l-0.389-0.167l-0.15-0.611l-0.011-0.011l0,0l-0.5-0.378l-0.351-0.556l-0.139-0.188
		l-0.783-0.701l-0.034-0.022l-0.455-0.511l-0.684-0.945l-0.717-0.567l-0.455-0.289l-0.706-0.478l-0.522-0.355l-0.533-0.467
		l-0.595-0.545l-0.339-0.367l-0.217-0.422l-0.345-0.556l-0.25-0.511l0.022-0.178l-0.217-0.478l0,0l-0.229-0.3l-0.678-0.678
		l-0.561-0.411l-0.384,0.144l-0.562,0.112l-0.672,0.111l-0.578,0.067l-0.617-0.045l-0.694-0.456l-0.395-0.3l-0.378-0.178
		l-0.384-0.167l-0.444-0.267l-0.489-0.255l-0.649-0.756l-0.662-0.811l-0.261-0.344l-0.306-0.189l-1.217-0.688l-0.606-0.29
		l-0.228-0.066l-0.444,0.033l-0.184,0.033l0,0l-0.455,0.123l-0.667,0.244l-0.4,0.111l-0.556,0.089l-0.5,0.122h-0.539l-0.884-0.3
		l-0.389-0.145l-1.012-0.066l-0.983,0.056l-0.717,0.1l-0.688,0.155l-0.184,0.267l-0.084,0.322l-0.339,0.111l-0.228,0.055
		l-0.239,0.111l-0.205,0.167l0,0l-0.194,0.256l-0.217,0.311l-0.229,0.411l-0.25,0.822l0.012,0.711l-0.362,0.656l-0.399,0.445
		l-0.434,0.267l-0.372,0.188l-0.729,0.311l-0.5,0.312l-0.25,0.3l-0.777,0.701l-0.489,0.478l-0.328,0.245l-0.333,0.256l-0.384,0.344
		l-0.661,0.812l-0.467,0.489l-0.856,0.722l-0.544,0.367l-0.328,0.333l-0.261,0.466l-0.05,0.556l0.05,0.833l-0.033,0.633l-0.229,0.3
		l-0.922,0.389l-0.617,0.478l-0.5,0.467l-0.411,0.467l-0.422,0.367l-0.689,0.378l-0.878,0.367l-0.661,0.345l-0.479,0.233
		l-0.566,0.256l-0.512,0.233l-0.756,0.378l-0.555,0.378l-0.328,0.322l-0.322,0.756l-0.111,0.567l-0.229,0.623l-0.011,0.255
		l0.395,0.344l0.628,0.4l0.378,0.478l0.239,0.556l0.056,0.5l-0.012,0.044l0,0l0.078,0.267l-0.122,1.867l-0.161,0.5l0.021,0.623
		l0.239,0.544l0.128,0.533l0.361,0.156l0.562,0.211l0.655,0.678l0.012,0.066l0.172,0.034l0.295,0.555l-0.239,0.678l-0.228,0.511
		l0.033,0.689l0.228,0.633l-0.089,0.445l-0.422,0.745l-0.111,0.756l-0.045,0.433l-0.345,0.489l-0.899,0.8l-0.501,0.489l-0.455,0.956
		l-0.167,0.456v0.444l-0.021,0.467l0.021,0.444l-0.149,0.467l-0.229,0.467l-0.066,0.111l-0.194,0.322l-0.229,0.333l-0.422,0.411
		l-0.294,0.278l-0.512,0.534l-0.272,0.322l-0.422,0.333l-0.356,0.234l-0.861,0.267l-0.649,0.145l-0.522,0.066l-0.628,0.067
		l-0.601,0.033l-0.694,0.011l-0.639-0.011l-0.673,0.022l-0.522,0.078l-0.628,0.245l-0.512,0.256l-0.044,0.033l-0.467,0.412
		l-0.423,0.344l-0.511,0.378l-0.389,0.3l-0.967,0.656l-0.556,0.233l-0.979,0.3l-0.728,0.034l-0.467-0.022l-0.411-0.022l-0.851-0.067
		l-0.694,0.022l-0.445-0.011h-0.41l-0.501,0.078l-0.434,0.445l-0.705,0.145l-0.467-0.078l-0.089,0.056l0,0l-0.522,0.267
		l-0.289,0.289l0.011,0.056l0.15,0.456l-0.116,0.4l-0.134,0.966l-0.056,0.656l0.045,0.745l-0.106,0.456l-0.294,0.278l-0.65,0.289
		l-0.917,0.278l-0.705,0.111h-0.012l-0.889,0.267l-0.706,0.211l-0.855,0.245l-0.578,0.066l-0.728,0.134l-0.184,0.111l-0.239,0.544
		l-0.327,0.311l-0.334,0.311l-0.056,0.645l0.206,0.378l-0.411,0.844l-0.339,0.234l-0.14,0.055l-0.489,0.456l-0.366,0.277
		l-0.122,0.489l-0.067,0.233l-0.172,0.7l-0.172,0.434l-0.328,0.278l-0.012,0.378l-0.25,0.389l-0.572,0.3l-0.489,0.1l-0.11,0.222
		l-0.139,0.478l-0.251,0.422l-0.316,0.778l0.033,0.422l0.161,0.556v0.578l-0.062,0.478l-0.032,0.578l-0.045,0.623l-0.045,0.144
		l0.045,0.478l-0.139,0.522l-0.567,0.7l-0.705,0.5l-0.534,0.078l-0.572-0.278l-0.706-0.377l-0.6-0.123l-0.845-0.156l-0.85,0.012
		l-1.106,0.1l-0.89,0.111l-0.816,0.022l-0.955-0.056l-1.14-0.077l-0.784-0.056l-0.694,0.111l-1.117,0.233l-0.783,0.267l-0.717,0.223
		l-1.017,0.333l-1.173,0.522l-1.194,0.522l-1.194,0.623l-0.968,0.5l-0.705,0.345l-0.784,0.433l-0.705,0.411l-0.533,0.389
		l-0.595,0.389l-0.656,0.367l-0.539,0.389l-0.045,0.022l-0.806,0.434l-0.75,0.311l-0.961,0.367l-0.828,0.478l-0.194,0.133
		l0.033,0.178l0.128,0.556l-0.706,0.945L-125.538-19.698"/>
</g>
<g id="Layer_1_1_">
</g>
</svg>
