<?xml version="1.0" encoding="utf-8"?>
<!-- Generator: Adobe Illustrator 16.0.4, SVG Export Plug-In . SVG Version: 6.00 Build 0)  -->
<!DOCTYPE svg PUBLIC "-//W3C//DTD SVG 1.1//EN" "http://www.w3.org/Graphics/SVG/1.1/DTD/svg11.dtd">
<svg version="1.1" id="Layer_1" xmlns="http://www.w3.org/2000/svg" xmlns:xlink="http://www.w3.org/1999/xlink" x="0px" y="0px"
	 width="301.071px" height="189.931px" viewBox="-141.747 -89.186 301.071 189.931"
	 style="enable-background:new -141.747 -89.186 301.071 189.931;" xml:space="preserve">
<g id="Layer_118">
	<path id="Sudhnoti" style="fill:#CCCCCC;stroke:#FFFFFF;stroke-width:1.15;" d="M-113.736,18.896L-113.736,18.896l0.325,0.359
		l0.378,0.327l0.292,0.205l0.377,0.24l0.464,0.24l0.497,0.326l0.172,0.258l0.325,0.206l0.326,0.359l0.224,0.326l0.326,0.36
		l0.721,0.36l0.359,0.309l0.721,0.411l0.48,0.139l0.12,0.051l0.412,0.103l0.188,0.155l0.292,0.172l0.48,0.033l0.411,0.138h0.652
		h0.463l0.24,0.172l0.086,0.24l0.24,0.515l0.068,0.292l0.172,0.377l0.188,0.343l0.104,0.258l0.343,0.359l0.171,0.155l0.069,0.206
		l0.12,0.325l0.051,0.498v0.48l0.035,0.497v0.395v0.36l-0.172,1.081v0.48v0.309l0.104,0.326l0.325,0.463l0.326,0.292l0.309,0.326
		l0.566,0.377l0.12,0.137l0.429,0.241l0.446,0.103l0.068,0.12l0.412,0.36l0.309,0.172l0.412,0.326l0.48,0.36l0.463,0.24l0.326,0.205
		l0.378,0.24l0.325,0.207l0.224,0.137l0.343,0.223l0.326,0.154l0.36,0.275l0.257,0.205l0.292,0.138l0.429,0.72l0.104,0.274
		l0.273,0.258l0.172,0.257l0.138,0.172l0.223,0.155l0.275,0.051l0.445,0.052l0.446,0.051h0.326l0.446-0.051l0.085-0.154h0.36
		l0.258-0.068h0.257h0.189h0.463l0.103,0.12l0.206,0.274l0.274,0.154l0.275,0.172l0.257,0.086l0.223,0.153l0.274,0.241l0.258,0.171
		l0.223,0.188l0.43,0.274l0.103,0.155l0.188,0.239v0.378v0.274l-0.377,0.36l-0.36,0.36l-0.378,0.549l-0.36,0.274l-0.12,0.188
		l-0.223,0.172l-0.24,0.258l-0.258,0.257l-0.205,0.172l-0.12,0.258l-0.052,0.325l-0.069,0.395v0.206v0.206l0.275,0.274l0.36,0.274
		v0.189l0.36,0.291l0.463,0.257l0.326,0.155l0.515,0.068l0.463,0.034l0.858,0.069h0.325h0.464h0.309l0.274,0.034h0.377l0.326,0.068
		l0.224,0.034l0.446,0.206l0.274,0.103l0.36,0.188l0.36,0.138l0.24,0.154l0.205,0.223l0.378,0.258l0.257,0.172l0.172,0.103
		l0.395,0.224l0.274,0.171l0.292,0.189l0.103,0.171l0.24,0.274l0.223,0.172l0.31,0.206l0.24,0.172l0.429,0.223l0.36,0.172
		l0.12,0.119l0.24,0.069l0.171,0.171l0.121,0.172l0.205,0.138l0.24,0.103l0.498,0.138l0.292,0.137l0.411,0.258l0.532,0.137
		l0.395,0.121l0.497,0.103l0.464,0.068h0.274l0.343,0.291l0.429,0.395l0.172,0.292l0.103,0.241l0.361,0.223l0.171,0.103l0.36,0.103
		h0.463h0.258h0.137l0.206-0.172l0.086-0.137l0.138-0.223l0.171-0.326l0.378-0.309l0.206-0.206l0.359-0.104h0.258l0.36,0.206
		l0.36,0.275l0.274,0.171l0.344,0.396l0.154,0.256l0.051,0.155l0.24,0.206l0.223,0.103l0.052,0.12l0.258,0.035l0.395,0.309
		l0.326,0.205l0.377,0.018l0.104,0.068h0.377l0.601-0.205l0.24-0.361l0.377-0.343l0.31-0.31l0.171-0.256l0.104-0.139l0.188-0.223
		l0.154-0.239l0.172-0.413l0.188-0.205l0.154-0.24l0.429-0.583l0.292-0.172h0.429l0.378,0.172l0.36,0.258l0.429,0.239l0.36,0.258
		l0.464,0.359l0.531,0.206l0.36,0.224l0.377,0.206l0.361,0.274l0.549,0.309l0.429,0.326l0.463,0.36l0.463,0.429l0.172,0.223
		l0.086,0.395l0.274,0.497l0.188,0.327l0.086,0.359l0.172,0.395v0.258l0.291,0.498l0.121,0.36l0.377,0.377l0.343,0.446l0.275,0.274
		l0.359,0.378l0.275,0.103l0.359,0.051l0.396,0.069l0.445,0.034h0.446l0.343,0.035h0.36l0.292-0.104l0.068-0.224l0.36-0.343
		l0.138-0.188l0.223-0.292l0.31-0.24l0.463-0.326l0.36-0.153l0.377-0.225l0.258-0.103h0.326h0.377l0.36,0.258l0.343,0.343
		l0.189,0.344l0.377,0.515l0.31,0.377l0.273,0.292l0.275,0.464l0.205,0.188l0.326,0.395l0.36,0.326l0.258,0.325l0.291,0.309
		l0.36,0.344l0.326,0.274l0.292,0.326l0.257,0.429l0.138,0.429l0.343,0.515v0.429l0.189,0.43l0.068,0.359v0.361v0.325v0.36
		l-0.052,0.395l-0.052,0.292l-0.086,0.395l-0.119,0.531l0.051,0.292l0.206,0.223l0.378,0.104h0.892l0.549,0.034l0.549,0.069
		l0.361,0.12l0.651,0.034l0.377,0.137l0.361,0.172l0.377,0.188l0.377,0.325l0.464,0.361l0.326,0.291l0.395,0.378l0.36,0.378
		l0.583,0.359l0.463,0.327l0.36,0.205l0.412,0.292l0.309,0.325l0.463,0.498l0.31,0.223l0.377,0.207l0.292,0.188l0.326,0.327
		l0.377,0.395l0.31,0.359l0.033,0.464l0.31,0.36l0.36,0.359l0.343,0.395l0.326,0.258l0.206,0.223l0.257,0.241l0.309,0.359
		l0.412,0.464l0.24,0.291l0.464,0.361l0.257,0.153l0.068,0.172l0.206,0.104l0.258,0.188l0.377,0.206l0.464,0.377l0.377,0.309
		l0.274,0.361l0.36,0.359l0.343,0.206l0.378,0.24l0.274,0.24l0.137,0.291l0.224,0.395l0.188,0.258l0.12,0.326l0.292,0.309
		l0.205,0.344l0.069,0.377l0.188,0.412l0.052,0.531l0.137,0.36l0.138,0.343l0.24,0.31l0.103,0.479l0.138,0.311l0.188,0.223
		l0.154,0.239l0.275,0.36V87.9l0.239,0.12l0.138,0.189l0.377,0.36l0.31,0.223l0.411,0.103l0.515,0.275l0.412,0.291l0.377,0.068
		l0.36,0.154l0.378,0.172l0.36,0.206l0.463,0.309l0.36,0.274l0.463,0.292l0.893,0.617l0.412,0.326l0.429,0.309l0.309,0.36
		l0.24,0.292l0.326,0.343l0.291,0.31l0.31,0.257l0.325,0.206l0.292,0.257l0.188,0.224l0.258,0.325l0.24,0.241l0.24,0.119
		l0.721,0.395l0.48,0.361l0.309,0.103l0.377,0.172l0.361,0.034l0.377,0.223l0.412,0.172l0.515,0.137h0.6l0.361,0.103l0.291,0.019
		l0.532,0.188h0.36h0.737l0.463,0.035h0.24l0.378-0.155l0.326-0.172l0.36-0.325l0.36-0.206l0.326-0.309l0.068-0.206l0.154-0.325
		v-0.292l0.12-0.344v-0.377v-0.378v-0.377l-0.12-0.274l-0.378-0.48l-0.239-0.241l-0.121-0.411l-0.24-0.309l-0.223-0.359l-0.12-0.396
		V90.73l0.532-0.497l0.188-0.377l0.36-0.618l0.257-0.273l0.36-0.652l0.206-0.395l0.172-0.515l0.103-0.497l0.12-0.378l0.12-0.48
		l0.224-0.206l0.086-0.446l0.188-0.359l0.325-0.395v-0.396v-0.497l0.378-0.687l0.309-0.446v-0.395l0.224-0.395l0.429-0.498
		l0.721-0.36l0.377-0.12l0.326-0.258l-0.789-0.376L0.94,79.699l-0.378-0.429l-0.12-0.325l-0.068-0.241l0.138-0.72L0.426,77.47
		l-0.206-0.464v-0.429v-0.549v-0.635l0.326-0.652l0.309-0.583l0.223-0.395l0.224-0.395l0.103-0.396l0.171-0.257l0.086-0.498V71.79
		v-0.36v-0.549v-0.172l-0.273-0.428l-0.395-0.619v-0.548l0.239-0.464l0.24-0.206l0.292-0.325l0.36-0.103l0.377-0.12h0.292h0.583
		h0.412h1.081l0.36,0.223l0.669,0.137l0.463,0.103l0.652,0.086l0.772,0.275l0.411,0.119l0.721,0.396l0.412,0.309l0.531,0.274
		l0.413,0.137l0.395,0.103l0.737,0.275l0.583,0.344l0.429,0.239l1.167,0.55l0.583,0.172l0.498,0.239l0.411,0.206l0.583,0.274
		l0.412,0.326l0.635,0.325l0.55,0.258l0.411,0.206l0.36,0.36l0.36,0.274l0.497,0.274l0.858,0.292l0.943,0.395l0.206,0.034
		l0.446,0.326l1.218,0.601l0.652,0.188l0.549,0.172l0.669,0.188l0.618,0.104l0.463,0.067h0.463h0.48l0.532-0.067l0.257-0.447
		l0.189-0.309l0.12-0.377v-0.309v-0.396l0.119-0.395l0.601-0.103h0.36h0.464l0.635-0.034l0.309-0.224l0.31-0.359l0.429-0.309
		l0.291-0.344l0.412-0.378l0.378-0.343l0.359-0.377l0.824-0.618l0.411-0.309l0.378-0.31l0.429-0.223l0.36-0.206l0.378-0.188
		l0.737-0.274h-0.651l0.188,0.172l0.377,0.377l0.172,0.034l0.24,0.172l0.479,0.24l0.31,0.224l0.412,0.359l0.462,0.31l0.361,0.273
		l0.72,0.309l0.532,0.155l0.292,0.309h0.737l0.378,0.155l0.291,0.274l0.31,0.515l0.205,0.395l0.121,0.617l0.12,0.395l0.291,0.36
		l0.429,0.36l0.378,0.31l0.36,0.171l0.479,0.205l0.464,0.104l0.515,0.172l0.377,0.086l0.842,0.325l0.359,0.035l0.789,0.068
		l0.961,0.257l0.361,0.155l0.36,0.24l0.479,0.239l0.48,0.258l0.48,0.36l0.395,0.309l0.464,0.412l0.84,0.292l0.24,0.36l0.481,0.48
		l0.377,0.239l0.395,0.206l0.377,0.326l0.344,0.395l0.772,0.446l0.462,0.274l0.652,0.189l1.081,0.273l0.961-0.309l0.875,0.035
		l0.515,0.359l0.48,0.138l0.651,0.171l0.36,0.154l0.858,0.361l0.721,0.171l0.514,0.24l0.79,0.275l0.652,0.256l0.549,0.275
		l0.583,0.258l0.686,0.429l0.43,0.463l0.378,0.445l0.309,0.43l0.257,0.36l0.086,0.618v0.411l-0.068,0.378l-0.154,0.377v0.377
		l0.017,0.275l0.206,0.154l0.103,0.359l0.395,0.223l0.498,0.207l0.291,0.223l0.48,0.034h0.687l0.241,0.069l1.098,0.205l0.395,0.138
		l0.48,0.052l0.378,0.12l0.359,0.103h1.047l0.359-0.103l0.584-0.224l0.532-0.052l1.029-0.034l0.6-0.103l0.516-0.069l0.909-0.223
		l0.359-0.137l0.602-0.224l0.377-0.171l0.395-0.207l0.412-0.273l0.412-0.206l0.531-0.224l0.532-0.034h0.979h0.582h0.584h0.652h0.6
		l0.378-0.068l0.601-0.188l0.497-0.104l0.48-0.171l0.67-0.035l0.531-0.137h0.566h0.48l0.549-0.034l0.36-0.104l0.429-0.153
		l0.36-0.155h0.188l0.67-0.171l0.119-0.224l0.104-0.068l0.36-0.224l0.051-0.395v-0.325v-0.206l-0.205-0.309l-0.224-0.241
		l-0.052-0.205l-0.205-0.189l-0.12-0.359v-0.206l-0.052-0.224l-0.085-0.137l-0.172-0.258l-0.172-0.171l-0.309-0.207l-0.309-0.067
		l-0.429-0.035h-0.395l-0.258-0.103l-0.361-0.068L89.52,83.92l-0.36-0.223l-0.258-0.258l-0.067-0.206v-0.325v-0.206l0.051-0.223
		l0.583-0.43h0.395l0.361-0.292l0.548-0.033h0.516l0.359,0.325h0.378h0.36l0.343-0.325l0.275-0.275l0.446-0.172h0.429h0.463
		l0.479-0.085l0.464-0.052h0.411l1.03,0.052l0.583,0.085l0.378,0.069l0.584,0.172l0.531,0.274l0.634,0.223l0.155,0.206l0.258,0.395
		l0.462,0.378l0.104,0.274l0.068,0.171l0.104,0.154l0.172,0.258l0.291,0.24l0.171,0.239l0.258,0.207l0.172,0.068l0.257,0.138h0.241
		l0.239,0.034l0.36,0.033h0.412l0.446-0.103l0.463-0.273l0.43-0.172l0.359-0.241l0.31-0.257l0.411-0.24l0.138-0.292l0.172-0.359
		l0.309-0.188l0.309-0.378l0.36-0.241l0.257-0.342l0.583-0.189l0.327,0.086l0.343,0.206l0.377,0.034l0.464,0.068l0.206,0.104
		l0.583,0.205l0.189-0.033h0.273v-0.206v-0.172v-0.292v-0.274l0.274-0.326v-0.239h0.378l0.36,0.067l0.257,0.275l0.344,0.188
		l0.257,0.103h0.188h0.327h0.239l0.188-0.154l0.343-0.273l0.275-0.241l-0.052-0.48l-0.377-0.515l-0.36-0.343l-0.446-0.446
		l-0.36-0.36l-0.445-0.429l-0.292-0.583l-0.395-0.756l-0.274-0.497l-0.275-0.498l-0.239-0.445l-0.31-0.48l-0.274-0.378l-0.171-0.377
		l-0.155-0.378l-0.257-0.292l-0.154-0.462l-0.361-0.361l-0.103-0.325l-0.257-0.824l0.378-0.359l0.343-0.327l0.377-0.343l0.858-0.686
		l0.497-0.31l0.36-0.205l0.566-0.327l0.583-0.257l0.566-0.344l0.429-0.273l0.378-0.24l0.377-0.224l0.412-0.291l0.36-0.206
		l0.48-0.274l0.737-0.378l0.36-0.137l0.635-0.069l0.497-0.153l0.378-0.138l0.36-0.12l0.412-0.137l0.531-0.189l0.378-0.188
		l0.325-0.138l0.48-0.137l0.772-0.104l0.36-0.172l0.515-0.291l0.635-0.412l0.138-0.274l0.36-0.257l0.171-0.378l0.103-0.343
		l0.019-0.446v-0.309v-0.583v-0.532v-0.396v-0.497v-0.359l-0.138-0.189l-0.104-0.36l0.052-1.063l-0.052-0.412l-0.153-0.309
		l-0.207-0.446l-0.223-0.359l-0.326-0.43l-0.206-0.651l-0.411-0.43l-0.652-0.292l-0.48-0.309l-0.515-0.378l-0.258-0.462l-0.257-0.43
		l-0.018-0.687v-0.411l0.292-0.172l0.36-0.104l0.515-0.103l0.583-0.068l0.36-0.034h0.635l0.566-0.034l0.755-0.069l0.618-0.137
		l0.428-0.035l0.378-0.137l0.36-0.291l0.326-0.275l0.172-0.291v-0.326l0.137-0.721v-0.171l-0.137-0.652l-0.12-0.224l-0.378-0.377
		l-0.274-0.446l-0.153-0.395l-0.344-0.429l-0.292-0.274l-0.411-0.721l-0.344-0.189l-0.274-0.223l-0.344-0.258l-0.291-0.325
		l-0.034-0.378l0.292-0.067h0.274h0.463h0.411l0.516,0.033h0.378h0.445h0.377l0.343-0.033h0.361h0.309h0.377h0.326l0.378,0.067
		l0.291,0.104l0.378,0.274l0.36,0.172l0.445,0.086l0.378,0.137l0.789,0.411l1.013,0.139l0.36,0.033l0.36-0.119l0.771-0.206
		l0.36-0.104l1.115,0.034l0.36,0.069l0.378,0.034l0.497,0.068l0.531,0.154l0.378,0.103l0.36,0.172l0.24,0.052h0.326l0.377-0.224
		l0.292-0.325l0.377-0.138l0.584-0.103l0.344-0.188l0.395-0.224l0.377-0.104l2.556-0.823l1.836,0.789l1.15-0.137l0.548-0.583
		l0.636-0.464l0.497-0.36l0.532-0.429l0.515-0.36l0.737-0.395l0.601-0.257l0.893-0.618l0.36-0.206l-0.584-0.771l0.034-0.36
		l0.361-0.206l0.669-0.206l0.601-0.068h0.703h0.223l0.617,0.137v-0.343l-0.325-0.531l-0.378-0.395l-0.359-0.464l-0.378-0.395
		l-0.325-0.378l-0.31-0.309l-0.36-0.377l-0.43-0.344l-0.359-0.395l-0.532-0.565l-0.359-0.344l-0.498-0.359l-0.395-0.327
		l-0.601-0.378l-0.377-0.205l-0.413-0.24l-0.153-0.172l-0.566-0.086l-0.24-0.103l-0.36-0.103l-0.445-0.224l-0.361-0.137
		l-0.446-0.188l-0.445-0.43l-0.395-0.239l-0.378-0.396l-0.464-0.257l-0.514-0.378l-0.601-0.273l-0.464-0.258l-0.343-0.361
		l-0.291-0.205l-0.395-0.292l-0.258-0.171l-0.532-0.188l-0.258-0.241l-0.377-0.377l-0.12-0.24l-0.36-0.395l-0.326-0.395
		l-0.257-0.344l-0.377-0.273l-0.258-0.155l-0.378-0.258l-0.359-0.273l-0.378-0.327l-0.36-0.257l-0.464-0.205l-0.377-0.155
		l-0.618-0.258l-0.395-0.343l-0.359-0.309l-0.378-0.274l-0.395-0.309l-0.309-0.223l-0.24-0.224l-0.498-0.549l-0.291-0.378
		l-0.31-0.309l-0.291-0.172l-0.618-0.566l-0.721-0.634l-0.273-0.241l-0.43-0.445l-0.445-0.55l-0.378-0.291l-0.326-0.36l-0.326-0.274
		l-0.206-0.223l-0.206-0.292l-0.377-0.377l-0.12-0.275v-0.325v-0.43v-0.206v-0.875l-0.017-0.515l-0.034-0.223l-0.104-0.386
		l0.104-0.438l0.067-0.43v-0.386v-0.368l-0.033-0.241l-0.241-0.068h-0.359l-0.464-0.162l-1.028-0.232l-0.292-0.086L123.8,11.09
		l-0.258-0.104l-0.601-0.197l-0.617-0.085l-0.292-0.146l-0.428-0.051l-0.395-0.052l-0.566-0.086l-0.498-0.051l-0.772-0.197
		l-0.257-0.104l-0.378-0.068l-0.273-0.052l-0.705-0.06l-0.84-0.052l-0.378-0.104l-0.892-0.172l-0.292-0.051l-0.411-0.095
		l-0.807-0.172l-0.36-0.051l-0.378-0.061l-0.515-0.017l-0.446-0.034h-0.377h-0.343h-0.378l-0.429-0.104l-0.378-0.085l-0.274-0.052
		l-0.257-0.018l-0.497-0.017l-0.395-0.061l-0.652-0.051L108.1,8.627l-0.342-0.051l-0.361-0.086l-0.703-0.034l-0.103-0.017h-1.099
		h-0.428l-0.378,0.017L104.55,8.61l-0.651,0.232l-0.55,0.188l-0.36,0.18l-0.411,0.224l-0.36,0.231l-0.377,0.352l-0.361,0.266
		l-0.445,0.188l-0.344,0.146l-0.378,0.273l-0.359,0.353l-0.532,0.231l-0.223,0.138l-0.378,0.214l-0.188,0.138l-0.326,0.197
		l-0.36,0.018l-0.378-0.018l-0.376-0.403l-0.275-0.386l-0.258-0.387l-0.239-0.548l-0.241-0.387l-0.188-0.283l-0.051-0.455
		l-0.155-0.506l-0.257-0.352l-0.086-0.283l-0.103-0.249l-0.068-0.205l-0.069-0.335l-0.12-0.231l-0.034-0.266V6.209L95.01,5.96
		l-0.034-0.317l-0.034-0.317l-0.035-0.317V4.639V4.382V4.116V3.215l0.104-0.541l0.086-0.317l0.068-0.283V1.816V1.25L94.89,0.933
		L94.598,0.71L94.41,0.53l-0.326-0.231l-0.258-0.172l-0.239-0.231l-0.412-0.472l-0.224-0.352l-0.325-0.283l-0.172-0.257l-0.206-0.3
		l-0.171-0.318l-0.206-0.368L91.58-2.876v-0.369v-0.403l0.051-0.283l0.24-0.549l0.206-0.386l0.154-0.309l0.309-0.334l0.188-0.197
		l0.12-0.317l0.188-0.283l0.258-0.326l0.086-0.232l0.137-0.232l0.155-0.137l0.153-0.652l0.241-0.42l0.292-0.283l0.343-0.283
		l0.24-0.257l0.273-0.232l0.361-0.188l0.258-0.095l0.342-0.12l0.275-0.163l0.309-0.223l0.325-0.231l0.258-0.283l0.584-0.541
		l0.771-1.055v-0.334l0.034-0.318l0.138-0.386l0.085-0.352l0.052-0.369l0.104-0.317l0.274-0.36l0.137-0.429l0.086-0.909l0.137-0.566
		v-0.352L99.3-17.442l-0.377-0.103l-0.361-0.266l-0.515-0.197l-0.548-0.154l-0.327-0.155l-0.462-0.197l-0.31-0.137l-0.377-0.197
		l-0.395-0.223l-0.395-0.249l-0.309-0.198l-0.327-0.188l-0.153-0.214l-0.241-0.103l-0.153-0.197L93.74-20.41l-0.223-0.12
		l-0.274-0.146l-0.206-0.249l-0.119-0.36l-0.154-0.377l-0.241-0.343l-0.103-0.36v-0.326v-0.232v-0.197v-0.24l0.137-0.232
		l0.121-0.283l0.223-0.343l0.378-0.343l0.343-0.258l0.377-0.317l0.258-0.231l0.36-0.309l0.343-0.231l0.326-0.146l0.378-0.223
		l0.205-0.18l0.326-0.12l0.43-0.283l0.359-0.275l0.103-0.06l0.31-0.224l0.154-0.214l0.12-0.223l0.052-0.215v-0.146l-0.155-0.103
		l-0.428-0.034l-0.396-0.017l-0.36-0.017l-0.806-0.035h-1.081h-0.395l0.052-0.188h-0.36h-0.361l-0.376,0.051l-0.361,0.018
		L92.3-28.508l-0.274,0.052h-0.137h-0.755h-0.618h-0.824l-0.583-0.103l-0.635-0.051h-0.72h-0.669h-0.807h-0.703h-0.344h-0.687
		h-0.378l-0.754,0.103l0.068,0.472l-0.171,0.249l-0.378,0.138l-0.24,0.214l-0.36,0.223l-0.515,0.06l-0.377,0.017l-0.499,0.224
		l-0.411,0.12l-0.326,0.18l-0.325,0.138l-0.36,0.077l-0.361,0.086l-0.514,0.035h-0.635l-0.327,0.137l-0.273,0.215l-0.395,0.137
		l-0.36,0.085h-0.395h-0.292h-0.344h-0.359l-0.274-0.034l-0.292-0.069l-0.292-0.017h-0.223h-0.378h-0.309l-0.377,0.017l-0.189,0.232
		l-0.395,0.24L72.26-25.24l-0.378,0.103l-0.359,0.035h-0.601l-0.516,0.085l-0.29,0.129l-0.566,0.223l-0.172,0.052l-0.378,0.111
		l-0.326,0.171L68.4-24.064l-0.703,0.069l-0.325,0.017l-0.327,0.035l-0.395,0.017h-0.223l-0.258,0.129l-0.377-0.129l-0.36,0.231
		l-0.446,0.267l-0.601,0.188l-0.326,0.197l-0.428,0.086l-0.55,0.035l-0.36,0.197l-0.206,0.223l-0.343,0.352l-0.154,0.386
		l-0.257,0.352l-0.224,0.386l-0.086,0.352l-0.36,0.231h-0.36h-0.36l-0.274-0.163l-0.583-0.334l-0.344-0.137l-0.292-0.137
		l-0.325-0.146l-0.36-0.138l-0.412-0.103l-0.429-0.146H56.94l-0.446-0.051l-0.275-0.018l-0.548,0.086L55.447-21.5l-0.377,0.085
		l-0.344,0.146l-0.378,0.223l-0.325,0.214l-0.223,0.189l-0.206,0.283l-0.532,0.171l-0.257,0.197l-0.172,0.103l-0.155,0.146
		l-0.291,0.138h-0.651h-0.309h-0.55L50.3-19.887l-0.257-0.188l-0.31-0.42H49.39l-0.223-0.232l-0.36-0.137l-0.687-0.267l-0.258-0.18
		l-0.343-0.258l-0.411-0.317l-0.172-0.138v-0.652l-0.051-0.317v-0.437l-0.035-0.283l-0.274-0.687v-0.283l0.035-0.334l-0.378-0.352
		l-0.018-0.335l-0.343-0.317l-0.412-0.257l-0.239-0.318l-0.378-0.249l-0.327-0.206l-0.531-0.103l0.858,0.103l-0.138-0.369
		l-0.051-0.317v-0.317L44.33-28.19h-0.48l-0.154-0.232l0.052-0.369l0.359-0.231l1.098-0.257l-0.273-0.3l-0.532-0.386l-0.068-0.498
		v-0.523l0.206-0.438l0.429-0.352l0.429-0.369l0.446-0.48l0.445-0.592l-2.041-1.622l-1.836-0.523l-2.865-1.492l-1.063-0.541
		l-0.807-0.429l-0.789-0.386l-0.944-0.625l-1.08-0.704l-1.099-0.617l-1.167-0.687l-1.406-0.755l-1.715-0.875l-0.344-0.094
		l-0.018,0.017l-0.737-0.257l-1.235-0.352l-2.471-0.704l-1.166-0.652l-1.253-0.704l-1.974-1.561l-0.926-0.214l-1.407-0.721
		l-1.098-0.892l-0.876-0.532l-0.856-0.738l-0.842-0.66l-0.84-0.918l-0.807-0.652l-1.27-0.661l-1.235-1.372l-0.995-0.463
		l-1.939-0.841l-0.257-0.334L5.812-57.16h-1.08l-0.808-0.18l-1.526-0.969l-0.532-0.103l-0.531,0.154H0.39l-0.651,0.017l-0.378,0.163
		l-0.549-0.069H-1.48h-0.309l-0.206-0.111l-0.223-0.24l-0.034-0.266v-0.318l-0.12-0.489l-0.034-0.369l-0.104-0.318l-0.017-0.42
		l-0.12-0.386l-0.103-0.249l-0.069-0.283l-0.154-0.12l-0.395-0.283l-0.257-0.188l-0.189-0.146l-0.171-0.171l-0.104-0.369v-0.583
		v-0.223l-0.395-0.018h-0.206h-0.309h-0.24l-0.36-0.034l-0.377-0.078l-0.275-0.12l-0.206-0.181l-0.137-0.171l-0.188-0.069
		l-0.224-0.214l-0.24-0.12l-0.205-0.103l-0.274-0.146l-0.378-0.085l-0.343-0.103l-0.224-0.146l-0.24-0.206l-0.068-0.18l-0.223-0.24
		l-0.188-0.231l-0.138-0.086l-0.292-0.128l-0.257-0.172l-0.344-0.317L-10.658-67l-0.309-0.146l-0.137-0.334v-0.352l-0.344-0.257
		l-0.154-0.111h-0.36l-0.223-0.051l-0.36-0.035h-0.446h-0.515h-0.515l-0.36-0.017l-0.258-0.017l-0.343-0.164l-0.395-0.137
		l-0.274-0.068h-0.258h-0.36h-0.309h-0.36h-0.343l-0.395,0.034h0.051h-0.395l-0.377-0.034l-0.309-0.017l-0.396-0.086l-0.359-0.035
		l-0.412-0.094l-0.532-0.068l-0.359-0.068l-0.516-0.104l-0.309-0.094l-0.48-0.154l-0.36-0.171l-0.274-0.078l-0.343-0.171
		l-0.36-0.111l-0.24-0.155l-0.823-0.137l-0.138,0.068v0.283h-0.686l-0.292,0.12l-0.292,0.197l-0.309,0.12h-0.292h-0.172
		l-1.098,0.206l-0.223,0.231l-0.395,0.437l-0.104,0.283L-28.57-68.2l-0.292,0.017l-0.565-0.017l-0.258-0.051l-0.515-0.232
		l-0.378-0.206l-0.343-0.052h-0.463h-0.635h-0.446h-0.378h-0.411l-0.601,0.035l-0.326,0.051l-0.875-0.386l-0.36-0.283l-1.201-0.369
		l-0.841-0.318l-0.531-0.189l-0.36-0.068l-0.515-0.129l-0.292-0.223l-0.687-0.515l-0.395-0.12l-0.343-0.163l-0.344-0.188l-0.359-0.3
		l-0.275-0.283l-0.325-0.386l-0.188-0.137l-0.395-0.051l-0.241,0.069l-0.068,0.231l-0.206,0.507l-0.188,0.197l-0.154,0.188
		l-0.549,0.438l-0.36,0.181l-0.24,0.188l-0.154,0.283l-0.104,0.283v0.258l-0.137,0.163l-0.378,0.18l-0.377,0.034l-0.31,0.103
		l-0.359,0.172l-0.172,0.197l-0.068,0.214l-0.068,0.206v0.069l-0.121,0.214l-0.103,0.12l-0.188,0.085l-0.258,0.078l-0.395,0.154
		l-0.343,0.188h-0.36l-0.274-0.051l-0.206-0.172l-0.12-0.214l-0.104-0.257l-0.171-0.317l-0.12-0.103l-0.034-0.146l-0.018-0.197
		l-0.104-0.137l-0.068-0.085l-0.103-0.086l-0.343-0.18l-0.121-0.12l-0.085-0.017l-0.48-0.352l-0.12-0.034l-0.188-0.18l-0.138-0.283
		l-0.138-0.189l-0.154-0.249l-0.051-0.369v-0.223l-0.086-0.094l-0.206-0.137l-0.068-0.232l-0.069-0.206l-0.119-0.283l-0.189-0.283
		l-0.137-0.137l-0.189-0.266l-0.103-0.317l-0.068-0.223l-0.052-0.3l0.034-0.197l-0.36-0.703l-0.12-0.051l-0.034-0.052l-0.24-0.086
		l-0.086-0.103l-0.188-0.112l-0.188-0.12l-0.12-0.052l-0.24-0.231l-0.206-0.12l-0.206-0.18l-0.086-0.137l-0.103-0.034v-0.249v-0.275
		l-0.034-0.146v-0.317l-0.138-0.523l-0.257-0.214l-0.172-0.318l-0.068-0.257l-0.24-0.112l-0.138-0.171l-0.119-0.249l-0.053-0.249
		l-0.137-0.309l-0.154-0.231l-0.343-0.232l-0.292-0.309l-0.138-0.06l-0.137-0.206l-0.172-0.197v-0.275v-0.214l-0.12-0.386
		l-0.12-0.369l-0.291-0.266l-0.138-0.223l-0.224-0.215l-0.103-0.249l-0.068-0.292l-0.068-0.214l-0.034-0.334l-0.138-0.403
		l-0.292-0.215h-0.188l-0.258,0.018l-0.377,0.128l-0.36,0.104h-0.378l-0.343-0.052h-0.669h-0.36h-0.343h-0.326h-0.703h-0.446
		l-0.446,0.086l-0.309,0.034h-0.807l-0.48-0.034l-1.149,0.231l-0.291,0.017l-0.344,0.069l-0.858,0.085h-0.617l-0.395,0.104
		l-0.36,0.111h-0.377h-0.344h-0.703h-0.378l-0.274-0.069l-0.309-0.18l-0.171-0.189l-0.326-0.395l-0.172-0.189l-0.24-0.317
		l-0.274-0.172l-0.395-0.232h-0.274l-0.36,0.103l-0.258,0.112l-0.789,0.189l-0.137,0.051l-0.378,0.128l-0.344,0.137l-0.395,0.052
		h-0.343h-0.377l-0.36-0.052l-0.378-0.034l-0.36-0.069l-0.291-0.017l-0.378-0.052l-0.188-0.017h-0.429l-0.755,0.103l-0.378,0.018
		l-0.36,0.085l-0.274,0.051l-0.635,0.018l-0.258,0.086l-0.24,0.128l-0.343,0.086l-0.291,0.051l-0.069,0.111l-0.154,0.052
		l-0.377,0.188l-0.344,0.214l-0.377,0.507l-0.24,0.18l-0.154,0.155l-0.138,0.283l-0.172,0.189l-0.205,0.214l-0.12,0.171
		l-0.206,0.214l-0.206,0.206l-0.258,0.231l-0.188,0.283l-0.292,0.266l-0.325,0.223l-0.378,0.317L-88-80.141l-0.361,0.283
		l-0.273,0.085h-0.258h0.995l-0.258-0.017h-0.309l-0.24-0.052l-0.138-0.017l-0.137-0.026l-0.326-0.086l-0.309-0.12l-0.292-0.068
		l-0.549-0.181l-0.36-0.085l-0.737-0.249l-0.309-0.104l-0.292-0.085l-0.446-0.146l-0.36-0.052l-0.343-0.069l-0.326-0.188
		l-0.12-0.146l-0.137-0.231l-0.12-0.292l-0.275-0.181l-0.257-0.188l-0.274-0.111l-0.344-0.12l-0.273-0.12l-0.378-0.111l-0.446-0.103
		l-0.36-0.086l-0.274-0.068h-0.378h-0.343h-0.377h-0.67l-0.395,0.051l-0.291,0.068l-0.344,0.035l-0.445,0.103l-0.292,0.146
		l-0.223,0.138l-0.224,0.18l-0.154,0.137l-0.274,0.137l-0.377,0.197l-0.344,0.086l-0.172,0.034l-0.36,0.163l-0.24,0.103l-0.359,0.12
		l-0.31,0.094l-0.188,0.086l-0.377,0.103l-0.344,0.103l-0.326,0.163l-0.343,0.12l-0.344,0.18l-0.343,0.155l-0.223,0.12l-0.721,0.163
		h-0.36h-0.206l-0.326,0.018l-0.531,0.188l-0.12,0.06l-0.292,0.086l-0.206,0.068h-0.377h-0.189h0.052l-0.24,0.068l-0.309,0.103
		h-0.343l-0.36,0.035l-0.258,0.06l-0.36,0.052l-0.601,0.069l-0.119,0.068l-0.138,0.111l-0.172,0.138l-0.103,0.051l-0.206,0.3
		l-0.12,0.206l-0.395,0.618h-0.48l-0.669-0.035l-0.378-0.051l-0.206,0.069l-0.377,0.283h-0.274h-0.292l-0.343-0.068h-0.018h-0.445
		h-0.344l-0.395,0.137h-0.943h-0.412h-0.36l-0.532-0.051l-0.205-0.249l-0.223-0.283l-0.155-0.051l-0.154-0.103l-0.223-0.283
		l-0.069-0.249l-0.291-0.223l-0.24-0.266l-0.326-0.249l-0.36-0.257l-0.377-0.515v-0.24v-0.301h-0.258h-0.823l-0.292-0.068h-0.378
		l-0.359-0.129l-0.275-0.24l-0.343-0.446l-0.291-0.188l-0.224-0.12l-0.411-0.249l-0.361-0.197l-0.651-0.24l-0.395-0.051
		l-0.738-0.052l-0.669-0.197l-0.651-0.249l-0.961-0.669l-1.956-0.472l-0.687,3.552l-1.956,5.267l-0.686,1.827l-0.807,8.098
		l0.395,8.098l3.638,8.527l3.843,5.55l4.495,6.537l6.914,10.011l1.904,5.448l1.527,4.306l1.63,8.716l-0.36,16.831l-1.407,7.901
		L-113.736,18.896"/>
</g>
<g id="Layer_1_1_">
</g>
</svg>
