<?xml version="1.0" encoding="iso-8859-1"?>
<!-- Generator: Adobe Illustrator 16.0.4, SVG Export Plug-In . SVG Version: 6.00 Build 0)  -->
<!DOCTYPE svg PUBLIC "-//W3C//DTD SVG 1.1//EN" "http://www.w3.org/Graphics/SVG/1.1/DTD/svg11.dtd">
<svg version="1.1" xmlns="http://www.w3.org/2000/svg" xmlns:xlink="http://www.w3.org/1999/xlink" x="0px" y="0px"
	 width="22.502px" height="38.275px" viewBox="0 0 22.502 38.275" style="enable-background:new 0 0 22.502 38.275;"
	 xml:space="preserve">
<g id="Layer_95">
	<g id="Layer_100">
		<path id="Malir" style="fill:#CCCCCC;stroke:#FFFFFF;stroke-width:1.07;" d="M1.789,16.961
			L1.789,16.961l0.267,0.414l0.141,0.073l0.388,0.004l0.264,0.044l0.421,0.229l0.554,0.517l0.201,0.298L4.1,18.765l0.004,0.151
			L4.08,19.028l-0.19,0.131l-0.452,0.187L2.959,19.52l-0.493,0.174l-0.684,0.317L1.4,20.208l-0.26,0.119l-0.008,0.071l0.072,0.112
			l0.187,0.26l0.246,0.396l0.329,0.396l0.384,0.406l0.552,0.454l0.365,0.205l0.184,0.135L3.62,22.91l0.042,0.011l0.069-0.001
			l0.465-0.224l0.325-0.246l0.403-0.476l0.199-0.294l0.132-0.254l0.054-0.039l0.083-0.002l0.225,0.159l0.293,0.094l0.349,0.106
			l0.352,0.244l0.451,0.316l0.312,0.309l0.301,0.421l0.414,0.531l0.331,0.51l0.045,0.122l0.032,0.163l-0.039,0.088L8.35,24.527
			l-0.227,0.332l-0.239,0.382l-0.402,0.485l-0.538,0.553l-0.445,0.398L6.091,26.95l-0.123,0.041l-0.276,0.006L5.208,26.97
			l-0.221,0.005l-0.289,0.044l-0.494,0.124l-0.221,0.006l-0.361-0.08l-0.306-0.058l-0.414-0.003l-0.427,0.061l-0.411,0.121
			l-0.762-0.082l0.003,0.01l0.008,0.025l0.01,0.043L1.322,27.24l-0.003,0.046L1.31,27.31l-0.003,0.032l-0.001,0.053l0.005,0.047
			l0.011,0.047l0.019,0.062l0.011,0.044l0.024,0.069l0.008,0.053l0.001,0.03l-0.003,0.027l-0.015,0.032l-0.013,0.014l-0.021,0.018
			l-0.018,0.014l-0.008,0.015l-0.002,0.013L1.3,27.904l-0.01,0.023L1.287,27.97l-0.004,0.045L1.279,28.04l-0.004,0.036l0.006,0.043
			l0.013,0.03l0.02,0.022l0.031,0.025l0.013,0.013l0.015,0.021l0.009,0.018l-0.001,0.01l-0.017,0.022l-0.026,0.012l-0.027,0.016
			l-0.007,0.015l-0.002,0.021l-0.007,0.031l-0.003,0.04l-0.006,0.05l-0.012,0.038l-0.013,0.03l-0.002,0.03l0.002,0.021l0.015,0.057
			l0.013,0.032l0.014,0.024l0.001,0.025L1.3,28.746l-0.019,0.036l-0.005,0.02v0.019l0.005,0.03l0.002,0.027l-0.013,0.04L1.251,28.95
			L1.23,28.977l-0.024,0.034l-0.021,0.024l-0.015,0.02L1.143,29.08l-0.021,0.021l-0.008,0.013l-0.007,0.019l-0.01,0.037
			l-0.004,0.046v0.048l0.005,0.044l0.008,0.03l0.002,0.025l-0.003,0.032l-0.011,0.034l-0.021,0.064l-0.007,0.042l0.001,0.025
			l0.003,0.017l0.013,0.025l0.019,0.024l0.029,0.035l0.034,0.043l0.028,0.044l0.026,0.038l0.043,0.059l0.013,0.029l0.014,0.04
			l0.006,0.022l0.006,0.022l0.023,0.035l0.017,0.059l0.009,0.04l0.022-0.028l0.055-0.056l0.03-0.023l0.023-0.008l0.061-0.009
			l0.05-0.002l0.013-0.004l0.004-0.007v-0.008l-0.009-0.021l-0.022-0.031l0.002-0.013l0.006-0.008l0.171-0.126l0.075-0.052
			l0.01-0.003l0.009,0.002l0.052,0.055l0.052,0.061l0.012,0.013l0.009-0.001l0.044-0.021l0.349-0.172l0.29-0.143l0.048-0.021
			l0.008-0.001l0.007,0.003l0.094,0.172l0.027,0.047l0.119,0.22l0.062,0.105l0.008,0.021l0.007,0.044l0.027,0.151l0.005,0.018
			l0.007,0.007h0.021l0.129-0.026l0.414-0.073l0.112-0.02l0.221-0.041l0.034-0.01l0.043,0.005l0.053,0.01l-0.008,0.01l-0.038,0.044
			l-0.077,0.091l-0.108,0.121l-0.055,0.065l-0.015,0.017l-0.01,0.016l-0.001,0.005l0.015,0.014l0.082,0.073l0.016,0.019l0.001,0.008
			l-0.011,0.012l-0.043,0.053l-0.107,0.119l-0.056,0.063l-0.007,0.011l0.002,0.022l0.006,0.057l-0.008,0.037L3.67,30.97
			l-0.017,0.006l-0.013,0.002h-0.02l-0.019,0.002l-0.006,0.005l-0.006,0.008l-0.001,0.019l-0.008,0.02l-0.016,0.028l-0.009,0.026
			l-0.01,0.043l-0.013,0.027l-0.01,0.008l-0.03,0.006l-0.018,0.008l-0.003,0.013l0.003,0.073l-0.005,0.063l-0.017,0.049
			l-0.016,0.012l-0.027,0.006l-0.016,0.009L3.384,31.42L3.38,31.447L3.37,31.474L3.353,31.49l-0.04,0.03l-0.011,0.028l-0.016,0.055
			l-0.021,0.056l-0.009,0.024l0.002,0.03l0.004,0.021l0.03,0.064l0.003,0.016l-0.01,0.024l-0.002,0.041v0.035l0.001,0.015
			l0.003,0.01l0.015,0.021l0.001,0.012l-0.003,0.025l-0.003,0.028l0.003,0.031l0.008,0.024v0.022l-0.013,0.021l-0.023,0.02
			l-0.037,0.021l-0.025,0.02l-0.01,0.033l-0.012,0.021l0.003,0.021l0.006,0.025l0.013,0.007l0.033,0.004l0.179,0.007l0.12,0.006
			l0.171,0.012l0.365,0.018l0.283,0.017l0.078,0.007l0.14,0.006l0.109,0.011l0.053,0.015l0.015,0.006l0.006-0.006l0.011-0.035
			l0.08-0.225l0.028-0.067l0.032-0.106l0.062-0.184l0.068-0.196l0.021-0.059l0.038-0.104l0.032-0.083l0.038-0.117H5.25l0.242-0.005
			l0.368-0.008l0.542-0.011l0.217-0.005l0.26-0.006l0.012,0.004l0.004,0.013l-0.003,0.063l-0.008,0.01l-0.012,0.004l-0.105,0.009
			l-0.124,0.003l-0.066,0.003l-0.015,0.008l-0.005,0.016l-0.008,0.038L6.545,31.5l-0.007,0.13l-0.002,0.021l0.007,0.022l0.016,0.021
			l0.001,0.014l-0.007,0.009l-0.044,0.021l-0.083,0.039L6.357,31.82l-0.054,0.025l-0.011,0.012l-0.001,0.008l0.006,0.023
			l0.005,0.018L6.29,31.927L6.234,31.97l-0.062,0.036l-0.078,0.05l-0.019,0.02l-0.02,0.027l-0.047,0.083l-0.018,0.021l-0.017,0.008
			L5.81,32.266l-0.099,0.028l-0.019,0.002l-0.016-0.008l-0.029-0.026l-0.024-0.021l-0.009-0.004l-0.013,0.009l-0.027,0.05
			l-0.01,0.015L5.55,32.314H5.502l-0.024-0.002l-0.006-0.005l0.002-0.013l0.015-0.014l0.002-0.009l-0.009-0.005l-0.023-0.009
			L5.432,32.25l-0.017,0.005l-0.033,0.026L5.31,32.327l-0.029,0.017l-0.006,0.013l0.001,0.011l0.007,0.016l0.008,0.021l0.007,0.004
			l0.012-0.001l0.055-0.023l0.04-0.02l0.014-0.001l0.009,0.004l0.04,0.038l0.006,0.012l-0.003,0.015l-0.015,0.02l-0.117,0.117
			l-0.033,0.037l-0.009,0.014l0.005,0.012l0.043,0.037l0.098,0.086l0.127,0.127l0.11,0.124l0.078,0.111l0.029,0.053l-0.01,0.007
			l-0.049,0.012L5.64,33.189l-0.073,0.003l-0.116,0.011l-0.085,0.006l-0.112,0.018l-0.065,0.005l-0.043-0.006l-0.069-0.019
			l-0.07-0.022l-0.078-0.046l-0.064-0.038l-0.062-0.034l-0.126-0.043l-0.112-0.035l-0.097-0.023l-0.104-0.028L4.281,32.9
			l-0.105-0.056L4,32.74l-0.05-0.029l-0.009-0.004l-0.004,0.008l0.003,0.023l0.015,0.086l0.06,0.332l0.053,0.293l0.046,0.271
			l0.032,0.186l0.005,0.014l0.007,0.003l0.027-0.005l0.188-0.034l0.252-0.054l0.409-0.082l0.033,0.127l0.007,0.017h0.01l0.089-0.017
			l0.198-0.036l0.223-0.044l0.255-0.049l0.027-0.001l0.007,0.004l0.009,0.037l0.023,0.046l0.064,0.071l0.024,0.02l0.014-0.001
			l0.008-0.004l0.013-0.009l0.008-0.001l0.002,0.008l-0.003,0.02l-0.019,0.093L5.991,34.14l-0.006,0.021l0.006,0.049l0.033,0.158
			l0.01,0.033l-0.003,0.01l-0.013,0.008l-0.288,0.06l-0.112,0.022L5.599,34.51l-0.014,0.009l-0.045,0.06l-0.006,0.01l0.007,0.014
			l0.105,0.084l0.04,0.029l0.002,0.01l-0.005,0.012L5.549,34.89L5.423,35.03l-0.034,0.038l-0.011,0.006l-0.013-0.007l-0.053-0.043
			l-0.148-0.119l-0.143-0.113l-0.028-0.021l-0.018-0.003L4.94,34.771l-0.013,0.011l-0.001,0.011l0.031,0.115l0.038,0.142l0.034,0.12
			l-0.001,0.009l-0.031,0.01l-0.121,0.034l-0.046,0.01l-0.12,0.011l-0.108,0.012l-0.077,0.012l-0.042,0.011l-0.01,0.008
			l-0.001,0.014l0.018,0.076l0.021,0.094l-0.004,0.017l-0.01,0.009L4.37,35.526L4.319,35.53l-0.035,0.008l-0.09,0.033l-0.075,0.037
			l-0.071,0.04l-0.042,0.009l-0.069,0.011l-0.08,0.01l-0.102,0.025L3.61,35.741l-0.072,0.015l-0.05,0.028L3.43,35.846l-0.044,0.05
			l-0.01,0.003L3.36,35.891l-0.068-0.048L3.2,35.784l-0.056-0.037l-0.021-0.019l-0.007-0.025l-0.035-0.188L3.066,35.43l-0.033-0.145
			l-0.024-0.097l-0.006-0.021l-0.009-0.004l-0.042,0.008l-0.087,0.016L2.8,35.204l-0.014-0.002l-0.008-0.007L2.77,35.156
			l-0.038-0.141l-0.004-0.009l-0.011-0.002h-0.01l-0.133,0.027L2.391,35.07l-0.239,0.049l-0.108,0.024l-0.041-0.021l-0.058-0.038
			l-0.092-0.057l-0.065-0.044l-0.049-0.008l-0.037-0.017l-0.034-0.022L1.604,34.92l-0.07-0.008l-0.047-0.008l-0.054-0.023
			l-0.059-0.037l-0.036-0.015l-0.066-0.028l-0.087-0.04l-0.07-0.044l-0.016-0.005l-0.006,0.009l0.005,0.032l0.008,0.048
			l-0.013,0.017l-0.029,0.045l-0.089,0.131l-0.03,0.038l-0.017,0.003l-0.279,0.026l0.017,0.08l0.027,0.083l0.012,0.048l0.008,0.056
			l-0.001,0.059l-0.016,0.093l-0.006,0.07l0.003,0.07l-0.021,0.11l-0.013,0.139l0.004,0.031l0.013,0.031l0.056,0.11l0.013,0.021
			l0.338,0.081L1.14,36.17l0.062,0.054l0.022,0.105l0.044,0.119l0.068,0.112l0.067,0.045L1.525,36.7l-0.084-0.228l0.149-0.281
			l-0.028-0.233l0.105,0.031l0.238,0.478l0.136,0.073l0.089-0.377l-0.062-0.345l0.082-0.089l0.162,0.02l0.378,0.646l0.185,0.114
			l0.284-0.036l0.193-0.161l0.189-0.017l0.443-0.318l0.234-0.087l0.219,0.02l0.127,0.101l0.237,0.435l0.218-0.024l0.068-0.035
			l0.08-0.04l0.229,0.002l0.111-0.081l0.133-0.223l0.112-0.056l0.14-0.274l0.327-0.148l0.296-0.409l0.158-0.092l0.256-0.019
			l0.146,0.091l0.008,0.198l0.118,0.092l0.372,0.039l0.108,0.093l0.063,0.181l0.225,0.14l0.061,0.095l-0.062,0.113l0.025,0.173
			l0.125,0.03l0.552-0.227l0.531-0.026l1.019,0.304l1.057,0.305l0.014,0.104l0.193,0.081l0.246-0.018l0.407-0.31l0.207-0.031
			l0.592,0.093l0.144-0.074l-0.017-0.153l-0.002-0.088l0.096-0.064l0.179-0.017l0.124,0.022l0.124-0.027l0.302-0.068l0.152,0.021
			l0.068,0.023l0.166-0.028l0.438-0.084l0.234-0.004l0.525,0.103l0.221,0.021l0.096-0.052l0.134-0.18l0.048-0.313l0.031-0.454
			l-0.059-0.715l-0.006-0.303l0.133-0.189l0.066-0.077l0.057-0.001l0.275,0.058l0.374,0.03l0.304-0.019l0.248,0.008l0.113,0.123
			l0.129,0.249l0.281,0.232l0.212,0.262l0.296,0.271l0.42,0.256l0.473,0.279l0.611,0.188l0.5,0.167l0.606,0.053l0.458,0.104
			l0.205-0.004l0.191-0.116l0.064-0.165l-0.023-0.149l-0.104-0.614l-0.266-0.799l-0.551-1.159l-0.503-0.907l-0.432-0.784
			l-0.276-0.623l-0.167-0.662l-0.103-0.903l-0.16-0.99l-0.049-0.246l-0.125-0.629l-0.01-0.428v-0.63l-0.021-0.389l-0.133-0.4
			l-0.396-0.42l-0.509-0.492l-0.44-0.532l-0.689-0.503l-0.918-0.521L15,22.55l-1.189-0.604l-0.826-0.388l-0.404-0.13l-0.807-0.211
			l-0.944-0.157l-0.303-0.113l-0.323-0.207l-0.312-0.297l-0.253-0.157l-0.292-0.095l-0.239-0.146l-0.101-0.124l-0.045-0.149
			l-0.003-0.126l0.09-0.24l0.142-0.418l0.046-0.365l0.236-0.533l0.362-0.486l0.185-0.381l0.228-0.318l0.229-0.281l0.393-0.322
			l0.273-0.169l0.111-0.228l0.24-0.383l0.049-0.238l-0.006-0.277l0.079-0.165l0.179-0.079l0.231-0.118l0.082-0.052l0.082-0.014
			l0.029,0.05l0.059,0.111l0.058,0.111l0.056-0.001l0.096-0.026l0.229-0.331l0.312-0.875l0.365-0.926l0.158-0.317l0.025-0.139
			l-0.074-0.188l-0.061-0.148l-0.002-0.164l0.078-0.179l0.229-0.417l0.256-0.911l0.236-0.558l0.237-0.471l0.203-0.205l0.217-0.256
			l0.052-0.165l-0.003-0.139L14.869,8.16l-0.264-0.562l-0.209-0.625L14.32,6.648l-0.01-0.391L14.303,5.88L14.121,4.7l-0.01-0.378
			L14.1,3.807l-0.022-0.391l0.062-0.857l-0.031-0.137l-0.059-0.176L13.9,1.912l-0.133-0.299l-0.047-0.276l-0.039-0.39l-0.06-0.188
			l-0.114-0.136l-0.1-0.062l-0.18,0.029l-0.207,0.079l-0.4,0.084l-0.209-0.021l-0.251-0.009L12.01,0.727l-0.488,0.021l-0.396-0.044
			l-0.201,0.675l-0.199,0.554l-0.47,0.791L9.927,3.105l-0.486,0.26L8.714,3.643L8.47,3.808L8.439,4.026L8.406,4.364L8.399,4.703
			l-0.223,0.48L7.928,5.566L7.413,5.97L6.901,6.18l-0.403,0.14L6.146,6.555L5.815,7.106L5.608,7.586L4.984,8.133L4.576,8.514
			l-0.111,0.24l-0.012,0.63L4.47,9.916l0.062,0.97L4.391,11.32L4.17,11.728l-0.463,0.524l-0.138,0.216l-0.031,0.268L3.426,13
			L3.42,13.338l0.015,0.306l-0.049,0.505l0.139,0.064l-0.042,0.025l-0.194,0.125l-0.258,0.229L2.815,14.85L2.516,15.41L2.407,15.7
			l-0.034,0.169l0.018,0.155l-0.02,0.191L2.219,16.4l-0.207,0.148l-0.14,0.159L1.789,16.961"/>
	</g>
</g>
<g id="Layer_1">
</g>
</svg>
