<?xml version="1.0" encoding="iso-8859-1"?>
<!-- Generator: Adobe Illustrator 16.0.4, SVG Export Plug-In . SVG Version: 6.00 Build 0)  -->
<!DOCTYPE svg PUBLIC "-//W3C//DTD SVG 1.1//EN" "http://www.w3.org/Graphics/SVG/1.1/DTD/svg11.dtd">
<svg version="1.1" xmlns="http://www.w3.org/2000/svg" xmlns:xlink="http://www.w3.org/1999/xlink" x="0px" y="0px"
	 width="32.267px" height="25.957px" viewBox="0 0 32.267 25.957" style="enable-background:new 0 0 32.267 25.957;"
	 xml:space="preserve">
<g id="Layer_99">
	<g id="Layer_104">
		<path id="Lodhran" style="fill:#CCCCCC;stroke:#FFFFFF;stroke-width:1.07;" d="
			M31.221,15.868L31.221,15.868l0.075-0.061l0.097-0.092l0.058-0.056l0.119-0.151l-0.023-0.061l-0.038-0.121l-0.062-0.176
			l-0.06-0.112l-0.084-0.092l-0.057-0.05l-0.051-0.088l-0.024-0.115l0.006-0.18l0.04-0.158l0.058-0.164l0.046-0.108l0.035-0.062
			l0.042-0.058l0.035-0.032l0.046-0.019l0.147-0.054l0.061-0.028l0.029-0.041l0.009-0.036l-0.007-0.062l-0.051-0.063l-0.175-0.179
			l-0.046-0.053l-0.026-0.015l-0.026-0.003l-0.025,0.016l-0.035,0.019l-0.059,0.006l-0.033-0.004l-0.033-0.01l-0.015-0.024
			l-0.001-0.035l0.008-0.052l0.029-0.065l0.033-0.049l0.025-0.056l-0.001-0.041l-0.028-0.026l-0.018-0.002l-0.021,0.004l-0.032,0.02
			l-0.031,0.029L31.1,13.14l-0.055,0.027l-0.072,0.02l-0.039-0.006l-0.066-0.004l-0.029,0.002l-0.019,0.008l-0.011,0.01
			l-0.013,0.014l-0.006,0.031l-0.008,0.055l0.017,0.051l0.028,0.08l0.013,0.078l0.016,0.069l0.015,0.062l-0.005,0.034l-0.016,0.033
			l-0.03,0.03l-0.049,0.013l-0.063,0.008l-0.049-0.019l-0.043-0.041l-0.062-0.071l-0.041-0.017l-0.042-0.01l-0.04-0.006
			l-0.068,0.016l-0.059,0.018l-0.062,0.031L30.17,13.67l-0.063,0.005l-0.062-0.004l-0.056,0.01l-0.078,0.012l-0.117-0.014
			l-0.051-0.021l-0.062-0.036l-0.059-0.06l-0.03-0.062l-0.028-0.05l-0.039-0.057l-0.053-0.029l-0.074-0.037l-0.106-0.047
			l-0.024-0.025l-0.02-0.037l-0.004-0.041l0.023-0.07l0.015-0.029l0.034-0.023l0.039-0.018l0.061-0.005l0.148,0.008l0.117,0.021
			l0.078,0.014l0.061-0.005l0.02-0.038l0.011-0.051l0.012-0.031l0.025-0.018h0.047l0.072-0.02l0.031-0.014l0.022-0.025l0.014-0.048
			v-0.054l-0.02-0.067l-0.051-0.038l-0.094-0.023l-0.181-0.021l-0.27-0.004h-0.156l-0.083,0.004l-0.065,0.015l-0.037,0.004
			l-0.043-0.004l-0.056-0.029l-0.112-0.1l-0.246-0.255l-0.095-0.079l-0.021-0.017l-0.02-0.009l-0.041,0.005l-0.032,0.014
			l-0.063,0.011l-0.062-0.004l-0.096,0.014l-0.047,0.006l-0.07-0.002l-0.089-0.008l-0.066-0.002l-0.061,0.008l-0.05,0.019
			l-0.065,0.019l-0.04,0.002l-0.049-0.006l-0.018-0.016l-0.031-0.062l-0.073-0.252l-0.025-0.068l-0.034-0.042l-0.065-0.03
			l-0.05-0.021l-0.042-0.006l-0.031,0.009l-0.052,0.028l-0.044,0.026l-0.082,0.021l-0.043,0.009l-0.056,0.017l-0.025,0.016
			l-0.026-0.004l-0.044-0.017l-0.034-0.063l-0.041-0.149l-0.008-0.158l0.023-0.159l0.007-0.068l-0.018-0.084l-0.09-0.146
			l-0.011-0.035l0.011-0.074l0.041-0.104l0.021-0.102l0.012-0.071l-0.011-0.039l-0.01-0.021l-0.028-0.01h-0.03l-0.063,0.004
			l-0.083,0.006l-0.045-0.012l-0.08-0.025L26.45,10.48L26.43,10.46l-0.049-0.006l-0.076,0.004l-0.109,0.012l-0.059-0.004
			l-0.025-0.01l-0.04-0.023l-0.013-0.055l0.009-0.104l-0.02-0.072l-0.038-0.105l-0.019-0.057l0.006-0.047l0.001-0.049l-0.013-0.051
			l-0.012-0.027l-0.025-0.018l-0.025-0.004l-0.038,0.012l-0.021,0.037L25.82,9.933L25.803,9.97L25.785,9.99l-0.042,0.007
			l-0.084-0.015l-0.05-0.022l-0.023-0.015L25.543,9.94l-0.021,0.021L25.51,10l-0.001,0.031l0.016,0.028l0.021,0.039l0.021,0.029
			l-0.002,0.018l-0.011,0.023l-0.026,0.029l-0.025,0.018l-0.042,0.014l-0.036-0.004l-0.022-0.01l-0.02-0.024l-0.011-0.044
			l-0.004-0.088l-0.015-0.08l-0.042-0.084l-0.045-0.058l-0.061-0.026l-0.066-0.004l-0.1-0.01l-0.031-0.004l-0.015,0.002
			l-0.024,0.012l-0.026,0.021l-0.037,0.049l-0.032,0.037L24.841,9.94l-0.068,0.009l-0.089-0.005L24.585,9.91l-0.039-0.028
			l-0.013-0.037l0.01-0.061l-0.012-0.105l-0.025-0.05L24.472,9.55l-0.003-0.076l-0.008-0.059l0.005-0.033l0.029-0.05l0.047-0.045
			l0.143-0.108l0.088-0.055l0.129-0.062l0.11-0.021l0.134-0.025l0.134-0.049l0.091-0.048l0.095-0.048l0.083-0.044l0.063-0.054
			l0.108-0.104l0.045-0.05l0.043-0.053l0.036-0.055l0.022-0.066l0.014-0.109l0.019-0.061l0.065-0.068l0.059-0.033l0.076-0.023
			l0.092-0.002l0.123-0.026l0.171-0.042l0.104-0.035l0.059-0.041l0.047-0.054l0.014-0.054L26.7,7.859l-0.074-0.044l-0.067-0.036
			l-0.056-0.004l-0.052-0.003l-0.026-0.01l-0.04-0.026l-0.051-0.067l-0.037-0.054l-0.019-0.019l-0.036-0.006l-0.074,0.012
			L26.04,7.616l-0.126,0.009l-0.12,0.007l-0.051-0.023L25.71,7.565l-0.012-0.103l-0.002-0.051l0.026-0.043l0.001-0.024l-0.029-0.029
			l-0.06-0.021l-0.081-0.032l-0.051-0.015l-0.017-0.03l0.002-0.023l0.003-0.043l0.021-0.045l-0.002-0.031l-0.035-0.031l-0.044-0.033
			l-0.024-0.043l-0.042-0.066l-0.044-0.022l-0.066-0.032l-0.027-0.018l-0.033-0.042l-0.009-0.078l-0.031-0.082l-0.045-0.088
			l-0.028-0.051l-0.026-0.011l-0.041-0.006l-0.063-0.02l-0.044-0.035l-0.034-0.104l-0.027-0.084l-0.027-0.066L24.783,6.12
			l-0.036-0.018l-0.055-0.004l-0.076,0.013l-0.115,0.014l-0.092,0.027l-0.057,0.009l-0.041-0.006L24.28,6.134l-0.027-0.051
			L24.23,6.005l0.009-0.121l0.031-0.106l0.03-0.089l0.004-0.057l-0.016-0.061L24.26,5.545l-0.031-0.022l-0.046-0.01l-0.064-0.004
			L24.061,5.53l-0.039,0.025l-0.059,0.045l-0.071,0.076l-0.08,0.077L23.732,5.83l-0.039,0.019l-0.048,0.021l-0.047,0.006
			L23.558,5.86l-0.059-0.031L23.47,5.787l0.007-0.089l0.022-0.061l0.043-0.074l0.062-0.077l0.053-0.082l0.021-0.075l-0.011-0.045
			l-0.014-0.021l-0.041-0.011L23.52,5.248l-0.098-0.015l-0.06-0.022l-0.024-0.03l-0.013-0.037L23.36,5.07l0.021-0.039l0.004-0.05
			L23.38,4.942l0.001-0.021l0.012-0.035l0.021-0.031l0.021-0.015l0.052-0.009l0.108-0.016l0.062-0.028l0.104-0.056l0.068-0.062
			l0.047-0.05l0.019-0.071l0.006-0.063l-0.007-0.051l-0.029-0.037l-0.057-0.051l-0.054-0.031l-0.067-0.033l-0.092-0.018h-0.088
			l-0.047,0.006l-0.049,0.017l-0.057,0.009l-0.027-0.009L23.28,4.272l-0.022-0.002L23.2,4.276l-0.023,0.019l-0.03,0.038
			l-0.046,0.115L23.055,4.62l-0.031,0.236L23.02,5.103l-0.01,0.072l-0.021,0.036L22.96,5.229l-0.046-0.002l-0.025-0.025
			l-0.048-0.043l-0.055-0.04l-0.079-0.045l-0.022-0.001l-0.016,0.012l-0.008,0.039l0.005,0.064l0.005,0.055l-0.009,0.06
			l-0.014,0.056L22.617,5.39l-0.038,0.022l-0.037,0.002L22.49,5.403l-0.044-0.035l-0.048-0.047l-0.024-0.025l-0.021-0.033
			l-0.002-0.102l0.008-0.102l0.019-0.061l0.037-0.062l0.021-0.035l0.072-0.027l0.053-0.029l0.048-0.014l0.077-0.041l0.035-0.034
			l0.021-0.048l0.022-0.119l0.02-0.08l0.038-0.07l0.04-0.047l0.064-0.045l0.042-0.07l0.051-0.114l-0.005-0.067l-0.031-0.086
			l-0.029-0.052l-0.036-0.019l-0.04-0.006l-0.041,0.002l-0.061,0.032l-0.086,0.039l-0.108,0.026l-0.028,0.007l-0.027-0.011
			L22.49,4.015l-0.048-0.06l-0.039-0.104l-0.017-0.082l0.016-0.084l0.064-0.125l0.032-0.072V3.433l0.013-0.099l0.018-0.063
			l0.031-0.037l0.059-0.043l0.093-0.051l0.073-0.045l0.101-0.101l0.035-0.058l0.016-0.076L22.92,2.836l-0.036-0.015l-0.062-0.004
			l-0.047,0.011l-0.039,0.022l-0.052,0.064l-0.04,0.043l-0.049,0.037l-0.082,0.04l-0.081,0.021l-0.089,0.008L22.287,3.06
			l-0.031,0.006L22.21,3.092l-0.023,0.022l-0.024,0.02l-0.02,0.008h-0.057l-0.071-0.027L21.84,3.08L21.701,3.06l-0.155-0.033
			l-0.168-0.058l-0.19-0.067L21.03,2.829l-0.085-0.041l-0.064-0.064l-0.084-0.068l-0.07-0.045l-0.082-0.028l-0.071-0.04l-0.062-0.04
			h-0.065l-0.038,0.007L20.397,2.54l-0.009,0.057l-0.021,0.012L20.34,2.627l-0.025,0.022l-0.004,0.057l-0.016,0.031l-0.03,0.02
			l-0.04-0.02l-0.039-0.043l-0.045-0.014l-0.023-0.002l-0.01,0.012L20.1,2.726l-0.001,0.014l-0.011,0.022l-0.037,0.007l-0.039,0.015
			L20,2.797l-0.016,0.039L19.94,2.931l-0.016,0.034l-0.018,0.015l-0.035,0.016l-0.062,0.013l-0.057,0.009h-0.061l-0.04-0.006
			l-0.044,0.004l-0.036,0.008L19.528,3.05l-0.057,0.043l-0.063,0.053l-0.018,0.021l-0.021,0.037l-0.036,0.071l-0.026,0.08
			L19.28,3.408l-0.047,0.047l-0.099,0.058l-0.06,0.026l-0.06,0.005l-0.043-0.011l-0.033-0.019l-0.028-0.039l-0.022-0.07
			l-0.021-0.061l0.006-0.076l0.002-0.029l-0.004-0.022l-0.021-0.015l-0.057-0.003l-0.1-0.015L18.633,3.17L18.6,3.151l-0.038-0.039
			L18.54,3.104l-0.07-0.006h-0.085l-0.04-0.005l-0.017-0.006L18.3,3.062l-0.015-0.025l-0.048-0.057l-0.043-0.021l-0.064-0.01
			l-0.062-0.018L18.003,2.91l-0.054-0.033L17.911,2.84l-0.05-0.014l-0.082-0.021l-0.188-0.061l-0.15-0.053l-0.129-0.039l-0.07-0.025
			l-0.063-0.009l-0.031-0.015l-0.023-0.027l-0.04-0.066l-0.061-0.115l-0.077-0.153l-0.018-0.056l-0.001-0.037l0.003-0.039
			l0.024-0.036l0.121-0.119l0.066-0.063l0.04-0.072l0.027-0.088l-0.009-0.054l-0.018-0.017l-0.024-0.002l-0.042,0.012l-0.053,0.038
			l-0.061,0.06l-0.068,0.075l-0.043,0.027l-0.048,0.022L16.8,1.903l-0.045,0.01l-0.086,0.004l-0.091-0.005l-0.191-0.024
			l-0.052-0.015l-0.022-0.024L16.308,1.78l-0.066-0.476l-0.104,0.097L15.988,1.43l-0.096-0.008L15.771,1.42L15.673,1.44
			l-0.054,0.006l-0.105,0.053l-0.026,0.029l-0.071,0.015l-0.068-0.009l-0.051-0.053l-0.016-0.112l-0.04-0.099l-0.042-0.074
			l-0.061-0.022l-0.069-0.001l-0.054,0.036l-0.002,0.053l0.032,0.082l0.015,0.091l-0.027,0.036l-0.045,0.052l-0.062,0.029
			l-0.104-0.001L14.751,1.58l-0.025,0.021L14.69,1.616l-0.062,0.007l-0.052-0.031l-0.094-0.09l-0.087-0.009l-0.054,0.029
			l-0.037,0.073l-0.102,0.142l-0.073,0.11L13.971,1.92l-0.144,0.103l-0.082,0.119l-0.028,0.098l0.007,0.06L13.8,2.382l0.147,0.031
			l0.121,0.017l0.059,0.068l-0.002,0.065L14.063,2.63l-0.062,0.045l-0.062,0.036l-0.002,0.06l-0.001,0.045l0.024,0.039l0.067,0.061
			l0.051,0.053l-0.002,0.089l-0.094,0.201l-0.127,0.147l-0.145,0.109l-0.069,0.021l-0.097-0.008l-0.043-0.023L13.455,3.37
			l-0.041-0.104l-0.032-0.091L13.33,3.167l-0.088-0.001l-0.105,0.021L12.996,3.2l-0.112-0.023l-0.13-0.054l-0.147-0.001
			l-0.229,0.004L12.194,3.14l-0.096-0.023l-0.138-0.1l-0.188-0.129l-0.217-0.191l-0.095-0.09l-0.188-0.094l-0.14-0.09l-0.101-0.145
			L10.95,2.129l-0.031-0.112l-0.016-0.113l0.04-0.155l0.037-0.089l0.081-0.09l0.1-0.088l0.099-0.088l0.046-0.053l0.046-0.096
			l0.021-0.09l0.002-0.074l0.02-0.053l0.037-0.074l0.046-0.053l0.019-0.06L11.472,0.76l-0.033-0.053l-0.096-0.054l-0.077-0.039
			l-0.052-0.053l-0.087-0.023l-0.062-0.002l-0.098,0.016l-0.054,0.044l-0.056,0.119l-0.036,0.06L10.75,0.862h-0.069l-0.079-0.017
			L10.54,0.829h-0.062l-0.044-0.002l-0.098,0.037l-0.062,0.021l-0.062,0.014l0.003,0.137l0.028,0.236l0.059,0.063l0.083,0.075
			l0.053,0.061l0.002,0.023V1.54L10.42,1.591l-0.043,0.066l-0.06,0.058l-0.065,0.026l-0.065,0.014l-0.099,0.003L9.985,1.741
			L9.906,1.71L9.737,1.618L9.604,1.54L9.491,1.503l-0.104-0.01l-0.088,0.01L9.24,1.526L9.16,1.596L9.105,1.661l-0.036,0.07
			L9.035,1.776L9,1.825L8.946,1.87L8.903,1.905L8.871,1.956l-0.01,0.05l0.021,0.088L8.9,2.133L8.914,2.18L8.912,2.212l-0.019,0.04
			L8.869,2.28L8.832,2.284L8.717,2.269l-0.11-0.02H8.552L8.515,2.264L8.478,2.295L8.431,2.388l-0.04,0.118L8.368,2.649l0.013,0.092
			l0.031,0.088l0.028,0.08l0.044,0.093l0.038,0.087l0.006,0.05L8.524,3.194L8.503,3.239L8.477,3.272L8.439,3.309L8.38,3.329
			L8.294,3.35L8.206,3.396l-0.072,0.05l-0.06,0.045L8.05,3.524L8.028,3.577l-0.021,0.08l-0.01,0.104L7.996,3.817l0.013,0.092
			l0.039,0.076l0.073,0.062l0.082,0.056l0.116,0.081L8.42,4.268l0.11,0.084l0.04,0.052l0.007,0.043L8.563,4.51L8.524,4.573
			L8.477,4.622L8.445,4.678L8.423,4.723L8.408,4.761L8.384,4.789L8.33,4.803L8.265,4.802L8.212,4.778l-0.07-0.062l-0.07-0.053
			L8.028,4.644L8.008,4.649L7.979,4.664L7.917,4.713L7.849,4.764L7.812,4.784L7.766,4.803L7.707,4.817L7.67,4.815L7.63,4.802
			L7.599,4.769L7.566,4.687L7.559,4.569L7.553,4.514L7.534,4.502L7.507,4.497L7.476,4.501L7.426,4.54L7.375,4.583L7.351,4.64
			L7.34,4.69L7.337,4.724l0.031,0.049L7.421,4.84v0.044l-0.01,0.049L7.363,5.028L7.269,5.138L7.22,5.187L7.188,5.19L7.152,5.178
			l-0.059-0.03L7.049,5.121L7.013,5.06L6.959,4.928l-0.06-0.05L6.849,4.87L6.767,4.874L6.704,4.892l-0.04,0.031L6.583,5.009
			L6.535,5.08l-0.11,0.142l-0.07,0.119L6.317,5.374L6.273,5.427L6.248,5.471L6.235,5.522L6.24,5.584l0.016,0.041l0.035,0.04
			l0.058,0.036l0.1,0.06l0.048,0.035l0.028,0.045l0.009,0.059L6.521,5.946L6.472,5.998L6.415,6.05L6.397,6.083L6.395,6.124
			l0.013,0.043l0.055,0.02l0.039,0.021l0.027,0.03l0.01,0.037L6.534,6.313L6.511,6.356l-0.025,0.06L6.465,6.483L6.452,6.528
			L6.447,6.597l0.036,0.07l0.107,0.105l0.062,0.1L6.734,6.97l0.083,0.156L6.88,7.288l0.045,0.094l0.041,0.125l0.022,0.119v0.137
			L6.972,7.866L6.942,7.938L6.906,8.012L6.866,8.04L6.835,8.053L6.789,8.071L6.745,8.078L6.684,8.073L6.62,8.036L6.548,7.991
			L6.479,7.903L6.361,7.858l-0.091-0.06L6.243,7.744L6.24,7.685l0.013-0.094L6.25,7.53L6.243,7.483L6.206,7.454l-0.03-0.012
			L6.122,7.444L6.086,7.448L6.054,7.47L6.021,7.496L5.99,7.545L5.955,7.573L5.932,7.586H5.906L5.844,7.58L5.807,7.543L5.779,7.522
			L5.758,7.521H5.733L5.712,7.528L5.686,7.551L5.65,7.575L5.612,7.601L5.584,7.614L5.56,7.623L5.534,7.624L5.512,7.612l-0.037-0.03
			L5.421,7.543L5.386,7.504L5.363,7.479L5.338,7.468L5.31,7.463L5.28,7.464L5.249,7.487L5.214,7.517L5.162,7.558L5.127,7.578
			L5.091,7.592L5.063,7.601L5.02,7.603L4.967,7.579l-0.02-0.021L4.923,7.511L4.922,7.487l0.006-0.026l0.027-0.024l0.03-0.039
			l0.006-0.043L4.974,7.321L4.951,7.297L4.887,7.255L4.861,7.231l-0.017-0.03L4.843,7.17l0.011-0.024l0.058-0.108l0.02-0.058
			L4.928,6.944l-0.02-0.027l-0.02-0.012L4.836,6.894L4.804,6.896L4.74,6.923L4.685,6.957L4.592,7.011L4.511,7.054L4.457,7.067
			L4.399,7.071L4.343,7.058L4.313,7.036L4.269,7.01L4.217,7.006l-0.04,0.005l-0.05,0.021l-0.03,0.023L4.073,7.087L4.043,7.14
			L4.009,7.168L3.981,7.188l-0.05,0.019L3.854,7.233L3.773,7.245L3.738,7.253L3.703,7.271L3.678,7.291L3.661,7.317L3.652,7.347
			l0.008,0.08l0.009,0.09L3.65,7.649v0.127L3.635,7.84L3.597,7.884L3.581,7.933L3.576,7.968l0.017,0.051l0.039,0.049l0.057,0.076
			l0.043,0.059L3.74,8.233L3.729,8.278L3.705,8.321L3.592,8.437l-0.07,0.084L3.456,8.594L3.434,8.632L3.424,8.66l0.018,0.041
			l0.035,0.036l0.013,0.035L3.495,8.81L3.472,8.851L3.438,8.887L3.402,8.901l-0.04,0.004L3.323,8.921L3.296,8.946L3.253,9.035
			L3.215,9.122l-0.01,0.021l0.001,0.025l0.023,0.012l0.068,0.016l0.04,0.009l0.023,0.019l0.02,0.027l0.001,0.031l0.006,0.031
			L3.374,9.334L3.354,9.354l-0.027,0.02L3.297,9.386L3.251,9.399L3.222,9.405l-0.03,0.017L3.177,9.44L3.165,9.497L3.147,9.638
			L3.16,9.679l0.039,0.039l0.08,0.061l0.042,0.049L3.339,9.94l0.028,0.111l0.027,0.094l0.03,0.03l0.062,0.011l0.215,0.022
			l0.303,0.024l0.146,0.014l0.03,0.018l0.03,0.03l0.021,0.04L4.23,10.366l-0.022,0.049l-0.045,0.04l-0.027,0.03L4.11,10.54
			l-0.007,0.062l0.017,0.045l0.063,0.035l0.066,0.034l0.034,0.029l0.013,0.028l0.002,0.043l-0.014,0.021l-0.041,0.033L4.198,10.89
			L4.112,10.91l-0.08,0.007l-0.076-0.01l-0.048-0.004L3.88,10.907l-0.021,0.011l-0.009,0.035l0.018,0.053l0.023,0.04l0.048,0.008
			l0.182,0.006l0.138-0.006l0.108-0.006l0.098-0.004l0.033,0.008l0.021,0.027l-0.007,0.045l-0.03,0.036l-0.062,0.021l-0.089,0.028
			l-0.133,0.024l-0.162,0.021l-0.051,0.013l-0.024,0.01l-0.026,0.022l-0.019,0.023l-0.001,0.045l0.002,0.04l-0.021,0.029
			L3.853,11.47l-0.117,0.057l-0.08,0.051l-0.057,0.04l-0.03,0.022l-0.024,0.037l-0.026,0.092l-0.021,0.129L3.481,11.96l0.007,0.126
			l0.021,0.142l0.03,0.084l0.033,0.088l0.045,0.084l0.068,0.113l0.062,0.1l0.025,0.064l-0.004,0.058l-0.039,0.094l-0.095,0.134
			l-0.101,0.156L3.483,13.3l-0.021,0.055l0.003,0.061l0.008,0.027l0.034,0.021l0.051-0.009l0.035-0.011l0.036-0.003l0.029,0.013
			l0.021,0.033l0.007,0.048l-0.027,0.09l-0.058,0.068l-0.065,0.078L3.48,13.812l-0.029,0.015l-0.021,0.01l-0.009,0.022l-0.002,0.037
			l0.003,0.045l0.033,0.015l0.04,0.008l0.044,0.015l0.031,0.023l0.016,0.028l0.006,0.041L3.59,14.097L3.561,14.13l-0.042,0.034
			l-0.043,0.021l-0.021,0.021l-0.01,0.022l-0.006,0.021l0.009,0.021l0.02,0.031l0.007,0.053L3.47,14.415l-0.021,0.03l-0.038,0.03
			l-0.05,0.015l-0.019,0.007l-0.01,0.016l-0.01,0.032l0.017,0.044l0.032,0.047l0.02,0.036l-0.004,0.052l-0.016,0.058L3.349,14.82
			l-0.047,0.059l-0.059,0.066l-0.03,0.032L3.2,15.009l-0.001,0.049l0.017,0.049l0.063,0.087l0.024,0.067l0.003,0.045l-0.009,0.041
			L3.26,15.384l-0.039,0.014l-0.03,0.021l-0.015,0.026L3.05,15.528l-0.221,0.062l-0.021,0.033l-0.027,0.037l-0.09,0.031
			l-0.115,0.021l-0.067,0.021l-0.016,0.027l0.003,0.049l0.025,0.054l0.063,0.067l0.146,0.09l0.063,0.027l0.004,0.063l-0.022,0.038
			l-0.041,0.031l-0.111,0.016l-0.1-0.021H2.476l-0.083,0.049l-0.028,0.035L2.278,16.3l-0.064,0.055l-0.08,0.043L2.051,16.39
			l-0.062-0.026l-0.09-0.038l-0.052-0.021L1.78,16.31L1.736,16.32l-0.068,0.021l-0.069,0.066l-0.042,0.059l-0.034,0.062
			l-0.045,0.062l-0.041,0.031l-0.022,0.039l-0.007,0.052l0.014,0.075l0.048,0.068l0.08,0.097l0.097,0.067l0.021,0.058l-0.051,0.048
			l-0.06,0.003l-0.096-0.012L1.4,17.14l-0.063,0.056l-0.118,0.065l-0.18,0.092l-0.176,0.099L0.732,17.61l-0.061,0.105l0.022,0.1
			l0.051,0.062l0.115,0.09l0.102,0.086l0.018,0.041l-0.014,0.092l-0.079,0.263l-0.08,0.334l-0.124,0.286l-0.01,0.086l0.035,0.021
			l0.077,0.031l0.185,0.023l0.225,0.039l0.089,0.037l0.09,0.039l0.045,0.06l0.022,0.071l0.096,0.067l0.099,0.05l0.064,0.068
			l-0.022,0.066l-0.046,0.068l-0.062,0.029l-0.079,0.001L1.367,19.79l-0.156-0.031l-0.22-0.018l-0.049,0.015L0.917,19.8l0.017,0.057
			l0.032,0.041l0.051,0.05l0.045,0.047l0.021,0.071L1.1,20.188l-0.007,0.15l0.026,0.094l0.067,0.062l0.075,0.074l0.1,0.035
			L1.44,20.63l0.039,0.018l0.006,0.017l-0.01,0.071l0.02,0.078l0.032,0.041l0.08,0.025l0.061,0.02l0.051,0.021l0.094,0.061
			l0.051,0.035l0.027,0.032l0.021,0.093l0.045,0.129l0.041,0.205l-0.028,0.16l-0.093,0.119l-0.079,0.084l-0.131,0.077L1.35,22.028
			l-0.146,0.062l-0.121,0.073l-0.035,0.048L1.016,22.31l0.003,0.092l-0.016,0.125l-0.051,0.13l-0.062,0.079l-0.075,0.035
			l-0.09,0.045l-0.055,0.025l-0.062,0.057L0.567,22.97l-0.032,0.07v0.082l0.021,0.086l0.007,0.078l0.042,0.047l0.061-0.01
			l0.07,0.002l0.048,0.014l0.054,0.059l-0.01,0.1l-0.044,0.134l-0.003,0.074l0.054,0.072l0.264,0.28l0.072,0.006l0.051,0.019
			l0.04,0.032l0.002,0.044l0.003,0.048l-0.029,0.059l-0.024,0.051l-0.02,0.054l-0.009,0.039l-0.003,0.049l0.018,0.063l0.052,0.082
			l0.051,0.053l0.049,0.039l0.063,0.047l0.053,0.018l0.043,0.006l0.036-0.002l0.05-0.021l0.043-0.057l0.086-0.164l0.107-0.271
			l0.071-0.161l0.047-0.129l0.035-0.069l0.08-0.064l0.056-0.04l0.143-0.032l0.109-0.008l0.146-0.016h0.147l0.139,0.008l0.091-0.001
			l0.126-0.019l0.104-0.043l0.198-0.08l0.127-0.055l0.171-0.054l0.098-0.005l0.096,0.009l0.104,0.06L4,23.61l0.087,0.078
			l0.102,0.113l0.058,0.065l0.055,0.067l0.062,0.049l0.12,0.072l0.142,0.084l0.072,0.058l0.026,0.049l0.004,0.052l-0.019,0.061
			l-0.037,0.068l-0.021,0.045l0.003,0.047l0.026,0.09l0.074,0.08l0.191,0.203l0.167,0.146l0.106,0.116l0.1,0.084l0.119,0.115
			l0.1,0.043l0.08,0.016l0.036-0.008l0.049-0.027l0.052-0.053l0.054-0.141l0.045-0.123l0.009-0.045l-0.022-0.071l-0.037-0.081
			l-0.114-0.191l-0.033-0.087l-0.004-0.063l0.014-0.075l0.026-0.056l0.037-0.039l0.095-0.059l0.108-0.058l0.093-0.042l0.085-0.035
			l0.058-0.012l0.107-0.008l0.146-0.041l0.104-0.045l0.149-0.096l0.065-0.068l0.029-0.062l0.012-0.178l0.024-0.196l0.043-0.136
			l0.042-0.242l0.024-0.178l0.056-0.17l0.021-0.084l0.004-0.062l-0.017-0.044l-0.003-0.028l0.024-0.02l0.066-0.055l0.064-0.049
			l0.086-0.097l0.042-0.026l0.062-0.002l0.065,0.01l0.102,0.056l0.143,0.096l0.146,0.103l0.149,0.106l0.128,0.087l0.086,0.057
			l0.091,0.051l0.093,0.033l0.059,0.027l0.037,0.014l0.005,0.025l-0.008,0.045l-0.047,0.086l-0.062,0.108l-0.035,0.071l-0.021,0.093
			l-0.011,0.062l0.003,0.043l0.021,0.035L8.3,23.474l0.062-0.013l0.134-0.057l0.103-0.039l0.221-0.095l0.126-0.077l0.11-0.071
			l0.057-0.054l0.023-0.011l0.029,0.002l0.042,0.043l0.06,0.035l0.038,0.027l0.056,0.004l0.058-0.003l0.057-0.019l0.07-0.051
			l0.092-0.099l0.104-0.1l0.081-0.113l0.094-0.135l0.075-0.157l0.05-0.078l0.079-0.072l0.053-0.031l0.094-0.006l0.065,0.004
			l0.122,0.039l0.104,0.062l0.117,0.082l0.128,0.097l0.171,0.09l0.134,0.037l0.043,0.004l0.043-0.008l0.027-0.023l0.027-0.035
			l0.015-0.07l-0.008-0.139l0.003-0.152l0.021-0.109l0.044-0.127l0.076-0.131l0.116-0.162l0.131-0.164l0.111-0.127l0.138-0.131
			l0.101-0.07l0.113-0.049l0.208-0.104l0.086-0.035l0.133-0.021h0.217l0.261-0.004l0.253,0.009l0.15,0.022l0.081,0.031l0.086,0.047
			l0.076,0.066l0.068,0.064l0.074,0.053l0.06,0.022l0.071-0.002l0.051-0.019l0.054-0.024l0.131-0.114l0.183-0.166l0.185-0.173
			l0.096-0.103l0.081-0.049l0.043-0.01l0.092,0.019l0.033,0.022l0.078,0.1l0.077,0.099l0.037,0.021l0.071-0.006l0.141-0.037
			l0.134-0.06l0.095-0.063l0.021-0.029l0.013-0.041l0.006-0.102l0.021-0.084l0.037-0.064l0.037-0.046l0.042-0.026l0.1-0.042
			l0.124-0.056l0.097-0.086l0.083-0.107l0.036-0.063l0.03-0.112l0.004-0.141l-0.028-0.2l-0.071-0.267l-0.005-0.086l0.006-0.098
			l0.028-0.09l0.043-0.086l0.056-0.053l0.065-0.047l0.054-0.03l0.11-0.03l0.152,0.004l0.187,0.031l0.15,0.037l0.138,0.074
			l0.146,0.055l0.101,0.059l0.124,0.084l0.045,0.043l0.052,0.077l0.074,0.048l0.141,0.105l0.065,0.089l0.133,0.179l0.026,0.055
			l0.082,0.117l0.069,0.086l0.029,0.026l0.179,0.005l0.16,0.012l0.141-0.024l0.16-0.052l0.132-0.063l0.09-0.062l0.132-0.115
			l0.05-0.068l0.129-0.207l0.08-0.142l0.05-0.122l0.036-0.156l0.033-0.066l0.073-0.053l0.059-0.014l0.071-0.032l0.02-0.024
			l0.028-0.058l0.021-0.026l0.078-0.039l0.183-0.02l0.307-0.033l0.244-0.058l0.174-0.04l0.116-0.018l0.108,0.013l0.127,0.058
			l0.086,0.07l0.035,0.064v0.094l-0.023,0.246l0.014,0.113l0.056,0.137l0.041,0.084l0.059,0.056l0.105,0.029l0.198,0.024
			l0.203-0.027l0.146-0.038l0.017-0.021l0.006-0.04l-0.02-0.078l-0.059-0.07l-0.072-0.055l-0.012-0.059l-0.007-0.236l0.038-0.195
			l0.04-0.178l0.056-0.166l0.036-0.1l0.023-0.025l0.035-0.016l0.064,0.008l0.087,0.027l0.16,0.037l0.15,0.043l0.213,0.07
			l0.143,0.045l0.093,0.035l0.024,0.026l0.015,0.047l0.002,0.058l-0.023,0.227l-0.022,0.184l-0.015,0.12l0.014,0.071l0.031,0.053
			l0.017,0.092l0.013,0.16l-0.005,0.125l-0.023,0.16l-0.006,0.133l0.027,0.115l0.055,0.079l0.104,0.087l0.096,0.025l0.081-0.006
			l0.066-0.027l0.071-0.105l0.06-0.199l0.05-0.211l0.006-0.057l0.007-0.092l-0.032-0.266l-0.004-0.109l-0.003-0.107l-0.027-0.125
			v-0.09l0.012-0.042l0.038-0.03l0.027-0.012l0.072-0.02l0.082,0.004l0.081,0.044l0.12,0.112l0.113,0.154l0.119,0.161l0.051,0.109
			l0.061,0.095l0.084,0.081l0.064,0.058l0.11,0.035l0.137,0.026l0.084,0.016l0.092-0.014l0.073-0.022l0.079-0.023l0.034-0.031
			l0.021-0.053l0.008-0.049l-0.005-0.06l-0.082-0.144l-0.13-0.164l-0.07-0.109l-0.203-0.177l-0.179-0.146l-0.182-0.193l-0.051-0.053
			l-0.09-0.063l-0.165-0.082l-0.114-0.054l-0.034-0.039l-0.064-0.127l-0.038-0.125l-0.035-0.127l-0.002-0.147l-0.008-0.062
			l-0.01-0.049l0.001-0.049l0.003-0.023l0.017-0.021l0.046-0.018l0.055-0.017l0.057-0.006l0.088,0.016l0.104,0.023l0.076,0.045
			l0.069,0.066l0.059,0.016l0.075-0.001l0.043-0.015l0.101-0.068l0.092-0.064l0.052-0.028l0.031-0.009l0.047,0.017l0.03,0.041
			l0.075,0.125l0.039,0.074l0.034,0.062l0.053,0.053l0.05,0.025l0.062-0.001l0.079-0.022l0.16-0.094l0.148-0.105l0.129-0.109
			l0.063-0.027l0.042-0.021l0.062-0.008l0.062,0.004l0.062,0.018l0.04,0.047l0.041,0.105l0.028,0.15l0.038,0.183l0.034,0.108
			l0.057,0.058l0.097,0.063l0.11,0.041l0.19,0.016l0.234,0.012l0.205-0.018l0.302-0.042l0.173-0.024l0.168-0.041l0.077-0.025
			l0.036-0.024l0.035-0.056l0.061-0.141l0.062-0.193l0.074-0.172l0.064-0.192l0.051-0.146l0.063-0.135l0.036-0.064l0.021-0.032
			l0.027-0.021l0.029-0.006l0.042,0.004l0.033,0.024l0.021,0.038l0.001,0.059l-0.01,0.067l-0.017,0.106l-0.015,0.1l0.014,0.045
			l0.055,0.059l0.091,0.068l0.163,0.088l0.265,0.125l0.239,0.158l0.136,0.102l0.055,0.041l0.064,0.037l0.078,0.012l0.067-0.004
			l0.137-0.024l0.062,0.003l0.142,0.008l0.146-0.021l0.096-0.039l0.072-0.037l0.097-0.023l0.083-0.021l0.049-0.021l0.039-0.032
			l0.032-0.062l0.028-0.11l0.008-0.121l-0.016-0.205l-0.044-0.246l-0.029-0.136l-0.024-0.106l-0.015-0.125l-0.032-0.144
			l-0.014-0.065l0.014-0.045l0.022-0.043l0.036-0.065l0.01-0.046l0.008-0.051l-0.008-0.062l-0.021-0.033l-0.056-0.072l-0.113-0.092
			l-0.095-0.082l-0.021-0.05l0.008-0.048l0.02-0.045l0.034-0.027l0.035-0.012h0.049l0.059,0.018l0.076,0.07l0.07,0.084l0.105,0.113
			l0.041,0.039l0.038,0.016l0.047-0.003l0.075-0.019l0.093-0.018l0.103-0.033l0.062-0.011l0.088-0.011l0.064-0.014L31.221,15.868"/>
	</g>
</g>
<g id="Layer_1">
</g>
</svg>
