<?xml version="1.0" encoding="utf-8"?>
<!-- Generator: Adobe Illustrator 16.0.4, SVG Export Plug-In . SVG Version: 6.00 Build 0)  -->
<!DOCTYPE svg PUBLIC "-//W3C//DTD SVG 1.1//EN" "http://www.w3.org/Graphics/SVG/1.1/DTD/svg11.dtd">
<svg version="1.1" id="Layer_1" xmlns="http://www.w3.org/2000/svg" xmlns:xlink="http://www.w3.org/1999/xlink" x="0px" y="0px"
	 width="301.39px" height="307.825px" viewBox="-138.647 -141.754 301.39 307.825"
	 style="enable-background:new -138.647 -141.754 301.39 307.825;" xml:space="preserve">
<g id="Layer_10">
	<path id="Abbottabad" style="fill:#CCCCCC;stroke:#FFFFFF;stroke-width:1.15;" d="M-122.309-51.146L-122.309-51.146l0.037,0.05
		l0.2,0.25l0.25,0.488l-0.238,0.487l-0.162,0.476l-0.275,0.387l-0.513,0.088l-0.399-0.225l-0.438-0.1l-0.664,0.062l-0.438,0.025
		l-0.45,0.1l-0.188,0.325l0.413,0.5l0.287,0.237l0.301,0.513l-0.088,0.738l-0.825,0.688l0.75,2.551l-0.188,0.35l-2.163,3.977
		l-0.226,0.075l-1.188,0.438l-0.601,0.275l-0.713,0.275l-1.101,1.05l-0.737,0.513l-0.263,0.3l-0.338,0.387l-0.263,0.237
		l-0.288,0.238l-0.137,0.187l9.204,5.678l0.188,0.1l0.037,0.013l2.626,1.613l0.789,2.539l1.663-0.976l1.25-0.8l2.126-0.15h0.788h0.7
		l0.9,0.038l1.2,0.138l0.801,0.125l0.7,0.062l0.888,0.087l0.788,0.075l0.9,0.225l0.626,0.125l0.787,0.163l0.676,0.075l1.038,0.375
		l0.525,0.263l0.763,0.487l0.8,0.901l1.226,1.5l0.701,1l0.713,0.951l0.112,0.175l1.626,2.738l-1.401,2.739l-0.537,0.988l-0.763,1.4
		l-1.301,0.826l-1.863,1.013l-1.438,1.301l-1.001,1.638l0.038,1.688l0.9,1.601l0.875,0.875l1.389,0.838l2.451,0.35l2.201-0.2
		l1.463,0.087l1.738,0.1l2.026,0.162l1.176,0.113l1.638,0.137l1.713,0.226l1.238,0.45l0.913,0.35l0.688,0.25l0.788,0.413
		l1.413,1.176l0.988,0.825l1.075,1.125l1.251,1.713l0.562,1.025l2.589,4.978l2.401,1.738l1.188-0.112l1.151-0.087l1.05,0.225
		l0.551,0.1l0.888,0.463l0.112,0.074l0.788,0.264l0.025,1.525l0.375,1.664l0.125,1.912l0.275,1.789l0.237,1.727l0.35,1.324
		l0.263,1.727l-0.263,1.451l-0.763,1.176l-0.787,1.35l-1.477,1.326l-1.601,1.363l-1.251,1.012l-0.912,0.777l-1.227,1.475
		l0.313,1.301l-0.325,0.137l-0.338,0.012l0.013,0.176l-0.037,0.752l-0.138,0.875l-0.275,1.125l0.163,1.213l0.737,1.576l1.062,1.65
		l1.076,1.25l0.988,0.639l0.787,1.389l0.575,1.639l0.275,2.199l1.576,0.463l1.05,0.551l0.976,0.588l1.188,0.6l2.4-0.725l1.438-1.514
		l0.801-1.275l0.987-0.938l1.238-1.289l1.288,0.5l1.639,0.65l1.876,0.801l1.688,0.852l1.325,0.801l1.113,0.475l1.25,0.611
		L-48,52.291l0.251,0.174l0.262,0.312l1.014,0.35l0.963,0.252l0.75,0.398l0.525,0.713l0.763,1.201l1.326,0.826l2.588,1.6
		l1.563,0.963l0.088,0.65l0.125,0.801v0.863l0.024,0.875h-1.325l-0.601,0.4l-0.412,0.275l-1.651,1.701l-1.062,1.014l0.149,1.287
		l-0.312,1.875l-0.987,0.9l-0.538,1.227l0.013,2.201l-0.05,1.863l0.75,2.076l-0.926,0.912l-0.787,0.801l-0.901,0.926l-1.149,1.15
		l-0.688,0.824l-0.888,1.09l-0.112,2.088l-0.013,0.162v0.1l0.562,1.326l-0.575,1.064l-0.5,0.924l-0.351,0.188l-0.75,0.451
		l-0.775,0.262l-0.788,0.225l-0.675,0.139l-0.65,0.15l-1.438,0.299l-1.938-0.262l-1.051,0.1l-0.726,0.113l-2.051,0.287l-1.438,0.699
		l-0.788,1.578l0,0l-1.289,0.949l-0.624,0.449l-1.139,0.865l-0.425,1.375l-0.775,0.551l-1.088,0.75l2.751,1.088l0.263,0.125
		l0.274,0.549l-0.024,0.426l0.125,0.475l0.45,0.326l0.638,0.525l0.538,0.475l0.888,1.551l1.138,0.125l1.251,0.9l0.263,1.562
		l-0.676,1.252l-0.812,1.551l0.325,1.338l-0.663,0.9l-0.312,0.525l-0.513,0.75l-0.438,0.5l-0.476,0.551l-1.088,0.287l-0.788,0.238
		l-1.426,1.113l-0.013,0.074l-0.475,2.602v0.051v0.023l0.312,0.639l0.275,0.289l0.362,0.262l1.639-0.213l1.075-0.287l0.037-0.025
		l0.65-0.213l0.275-0.113l3.276,0.125l1.338,1.027l0.889,0.662l1.351,0.1l1.062,0.074l1.113-0.35l0.138-0.051l1-0.324l0.601-0.199
		l0.9-0.289l1.4-0.449l0.101-0.176l0.787-1.312l1.014-0.75l0.162-0.139l0.113,0.062l2.538,1.176l0.688-0.238l0.925-0.312
		l1.238-0.424l0.513-0.201l0.65-0.236l0.788-0.227l0.95-0.023l0.375,0.049l0.663-0.162l0.938-0.477l1.939-0.963l0.337-0.549
		l0.438-0.752l0.638-1.062l0.325-0.361l1.801-0.375l0.963-1.102l0.45-0.762l0.274-0.451l-0.274-1.725l0.237-0.15l0.65-0.264
		l0.35-0.088l0.901,0.363l0.638,1.875l0.149,0.051l1.738,0.426l1.101-0.951l1.602-0.074l1.513,0.375l1.2,0.262l0.563-0.35
		l0.337-0.225l1.501-0.951v0.352l0.125,0.674l0.275,0.426l0.788,0.775l0.825,0.35l0.338-0.15l0.25-0.262l0.2-0.363l0.287-0.613
		l0.263-0.262l0.801-0.338l0.487-0.176l0.188-0.086l1.075-0.588l0.087-0.375l0.038-0.676l0.013-0.35l0.062-0.176l0.125-0.264
		l0.35-0.412l0.4-0.062l0.65,0.275l0.413,0.275l0.262,1.326l-0.987,1.262l-1.15,0.977l-0.101,1.512l-0.037,0.789l-0.775,0.15
		l-0.351,0.049l-1.325,0.639l-0.901-0.037l-0.587,0.387l-0.237,0.477l-0.488,0.387h-0.013l-2.363,1.15l-0.25,0.162l-0.788,0.363
		l-0.626,2.963l1.176,0.488l-0.963,1.15l-0.087,0.125l-0.325,0.525l-0.013,0.076l0.388,0.387l0.413-0.074h0.525l0.699,0.262
		l0.551,0.213l0.801,0.201l0.75,0.049h0.013h0.5l1.075,0.375l1.501,0.289l0.65,0.35l0.488,0.074l0.8,0.1l0.263,0.025l0.876-0.074
		l1-0.102l1.238-0.148l1.388-0.451l0.751-0.312l0.625-0.238l0.425-0.074l0.575,1l0.313,1.227l0.262,1.025l-0.375,1.176l-0.325,1.176
		l-0.062,0.162l-1.876,0.361l-1.025,0.928l-1.238,0.574l-1.338,0.713l-1.088,0.537l-1.263,0.613l-0.275,0.113l-0.775,0.426
		l-1.926,0.273l-0.275,0.475l-0.275,0.777l-0.287,0.211l-0.188,0.264l-0.012,0.387l-0.163,0.701l0.025,0.387l0.35,0.275l0.563,0.463
		l0.575,0.764l0.438,0.6l0.763,0.863l0.025,0.713l-0.05,0.938l0.087,1.15l-0.125,0.676l-0.149,1.176l0.199,0.262l0.639-0.051
		l0.75-0.273l1.738-0.602l1.288-0.324l1.526-0.312l1.775-0.35l1.075,1.5l0.676,1.125l-0.062,1.338l-0.613,1.051l-0.788,0.65
		l-0.324,0.463l0.237,0.324l0.287,0.488l0.438,0.727l0.537,2.662l-1.926,1.803l-2.063,1.875l-0.275,0.225l-0.787,0.801l0.462,1.713
		l0.763,0.639l0.889,0.926l0.612,0.725l0.801,0.775l0.737,0.275l0.788,0.1l1.801-0.387l1.001-0.275l0.787-0.125l0.751-0.301
		l1.514-0.35l1.013-0.438l1.101-0.451l1.101-0.5l1.375-0.75l1.738-0.764l0.388-0.449l0.738-0.863l0.412-0.826l1.163-2.963
		l0.275-0.926l0.551-1.375l0.375-0.551l0.688-0.775l0.65-0.639l0.801-0.311l1.863-0.564l0.8-0.463l0.825-0.375l0.726-0.125
		l0.851-0.201l0.275-0.111l1.163-0.225l0.862,0.5l0.801,0.812l0.438,0.688l0.812,1.627l0.45,0.625l0.7,0.1l4.39-2.652l3.627-1.625
		l1.726-0.525l1.163-0.176l0.988,0.076l0.876,0.301l1.138,0.338l0.863,0.398l0.8,0.176l0.876-0.125l0.913-0.398l1.137-1.277
		l1.101-1.213l1.439-2.176l0.612-0.488l1.001-0.574l0.787-0.264l1.789,0.238l0.462,0.012l0.563-0.275l0.324-0.449l0.464-0.676
		l0.375-0.424l0.287-0.252l-0.226-1.15l-0.787-0.236l-0.226-0.451l0.788-0.887l1.001-0.852l1.213-1.125l1.863-1.051l0.663-0.5
		l0.513-0.625l0.487-0.801l0.375-0.838l0.263-1.264l0.101-1l-0.251-0.701l-0.588-0.5l-0.675-0.799l-0.412-0.727l0.237-0.912
		l1.288-1.064l0.851-0.836l0.55-0.477l0.9-0.85l0.312-0.451l0.45-0.963l0.638-1.625l0.4-0.9l0.601-0.701l0.562-0.301l0.514-0.174
		l0.637-0.201l1.251-0.688l1.075-0.725l0.388-0.426l0.25-0.4l0.075-1.062l0.113-0.9l0.012-0.688l-0.338-0.977l-0.537-1.875v-0.363
		l0.55-0.113h0.801l1.551-0.35l0.475-0.275l1.989-2.051l0.787-0.787l0.926-0.438l1.576-0.301l0.7-0.051l0.888-0.174l1.025-0.551
		l0.287-0.4l0.589-0.738l1.05-0.75l1.151-0.725l0.763-0.65l1.149-0.713l0.676-0.65l0.525-0.787l0.788-1.102l0.65-0.738l1.325-2.5
		l0.25-1.15l0.251-1.301l0.174-1.227l-0.036-0.85l-0.126-0.201l-0.801-0.125l-0.95,0.176l-1.413,0.275l-1.037,0.062l-0.701,0.037
		l-0.975-0.262h-0.014l-0.036-0.426l1.125-0.801l0.9-0.912l0.013-0.576l0.012-0.424l0.264-0.727l0.688-0.025l1.038,0.176h0.938
		l0.926-0.188l0.987-0.812l0.639-0.551l0.65-0.812l0.587-1.15l0.513-0.852l0.264-0.586l0.212-0.439l0.463-0.637l1.801-0.801
		l0.688-0.15l1.789-0.324l0.687-0.102l0.801,0.125l0.263,0.15l0.4,0.539l0.288,0.674l0.5,0.525l0.763,0.363l0.551,0.275l0.988,1.025
		l1.013,0.525l0.562,0.5l0.312,0.551l-0.075,0.387l-0.15,0.537l0.188,0.789l1.602,1.025l0.212,0.576l-0.338,0.449l-0.699,0.426v0.9
		l0.787,0.537l0.925,0.213l0.789-0.025l0.9-0.051l0.524-0.162l0.276-0.361l-0.276-0.826l-0.45-1.125l0.214-0.826l0.262-0.475
		l0.425-0.287l0.563-0.264l0.876-0.287l0.851-0.289l0.799-0.373l0.526-0.527l0.263-0.424l0.338-0.389l0.787-0.574l0.801-0.525
		l0.638-0.562l0.438-0.701l0.613-0.688l0.487-0.287l0.412-0.312l0.226-0.439l-0.075-0.461l0.088-0.977l0.476-0.676l0.274-0.688
		L117.217,72l0.513-0.588l0.212-0.326l0.801-0.387l0.788-0.4l0.562-0.324l0.625-0.576l0.588-0.625l0.438-0.426l0.638-0.438
		l0.45-0.35l0.45-0.414l0.288-0.449l0.263-0.451l0.551-0.537l0.387-0.312l0.525-0.275l0.613-0.387l0.55-0.477l0.275-0.398
		l0.262-0.551l0.614-0.676l0.049-0.113l0.676-0.336l0.325-0.389l0.412-0.287l0.275-0.287l-0.688-0.889l0.575-0.275l1.788-1.438
		l0.2-0.326l0.463-0.514l0.275-0.887l0.787-0.75l-0.037-0.602l-0.025-0.736l0.188-0.838l0.088-0.463l0.725,0.236l0.751,0.213
		l0.425,0.201l0.726,0.213l1-0.213l0.775-0.426l1.525-0.551l1.414-0.35l0.75-0.062h0.787l1.177-0.025l1.112-0.025h0.838l0.688,0.127
		l0.551,0.086l0.537,0.113l0.639,0.025l0.788,0.125l0.35,0.137l0.775,0.088l0.488-0.139l0.575-0.137h1.301l2.413-0.049l1.163-0.139
		l0.875-0.062l0.938-0.576l-0.274-1.074l-0.463-0.488l-0.262-0.4l-0.389-0.486l-1.363-1.752l-0.438-0.789v-0.986v-0.525
		l-0.024-0.801l0.074-0.338v-1.225l0.063-1.264v-0.488V41.16v-0.4l-0.214-0.438l-0.262-1.227v-1.125v-0.438v-0.1l-0.139-2.014
		v-0.688v-0.639l-0.05-0.4l-0.274-0.375v-0.6l-0.188-0.475l-0.075-0.502l-0.275-0.787l-0.575-1.463l-0.212-0.588l-0.276-0.588
		l0.026-0.639l-0.426-0.65l-0.513-0.1l-0.562-0.236l-0.601-0.289l-0.263-0.15l-0.538-0.537l-0.187,0.088l-0.389-0.426l-0.275-0.338
		l-0.062-0.574v-0.713v-0.576v-0.4l0.188-0.436l0.274-0.34l0.238-0.438l0.212-0.35l-0.087-0.625l-0.125-0.287l-0.639-0.889v-0.449
		v-0.576V17.85v-0.588l-0.012-0.576v-0.588l0.188-0.574l0.388-0.301l0.525-0.488l0.388-0.375l0.263-0.537l0.05-0.438l0.15-0.438
		l-0.263-1.376l-0.264-0.388l-0.387-0.625l-0.45-0.65l-0.263-0.338l-0.138-0.438v-0.75V7.945l-0.013-0.538V6.956V6.569l0.15-0.351
		l0.187-0.087l0.126-0.05l-0.075-0.125l-0.487-0.237l-0.639-0.337l-0.662-0.05l-0.488-0.475l-0.062-0.476v-0.7V2.854l-0.074-0.825
		l-0.176-0.6l-0.312-0.938l-0.275-0.826l-0.3-0.7l-0.263-0.825l-0.638-0.813l-0.412-1.063l-0.275-0.725v-0.701l0.399-0.475
		l0.575-0.413l0.65-0.175l0.801-0.362l0.426-0.463l0.337-0.35v-0.475l-0.337-0.475l-0.639-0.363l-0.8-0.588l-0.563-0.337
		l-0.562-0.25l-0.388-0.588l-0.412-0.587l-0.076-0.938l0.276-0.475l0.574-0.588l0.713-0.7l0.338-0.476v-0.712l-0.062-0.588
		l-0.275-0.538l-0.3-0.775l-0.35-0.826v-0.575l-0.226-0.825l-0.338-0.826l0.15-0.7l0.275-0.7l0.263-0.838l0.262-0.7l-0.262-0.701
		l-0.563-0.838l-0.149-0.7l-0.226-1.063l0.075-1.063l0.15-0.826l0.25-0.812l0.238-0.826l0.162-0.475l0.236-0.7l0.076-0.888v-0.65
		l-0.238-0.701l-0.236-0.475l-0.15-0.726l-0.301-0.575l-0.075-1.063v-0.7l0.238-0.588l0.324-0.475l0.576-0.7l0.487-0.713l0.25-0.938
		l0.237-0.713l0.013-0.575l-0.25-0.713l-0.287-0.7l-0.238-0.476l-0.275-0.725l-0.212-0.701v-0.475l0.149-0.475l0.563-0.338
		l0.575-0.3l0.713-0.425l0.1-0.462l0.463-0.587v-0.701l-0.062-0.588l-0.312-0.475l-0.35-0.475l-0.15-0.476v-0.638l-0.176-0.538
		l-0.225-0.587l-0.426-0.588l-0.263-0.575l-0.412-0.713l-0.5-0.712l-0.562-0.588l-0.488-0.588l-0.562-0.713l-0.65-0.65l-0.501-0.638
		l-0.55-0.763l-0.663-0.776l-0.65-0.7l-0.487-0.701l-0.388-0.587l-0.5-1l-0.263-0.826l-0.263-0.813l-0.275-1.125l-0.4-1.238
		l-0.4-0.95l-0.499-0.7l-0.138-0.188l-0.263-0.4l-0.338-0.951l-0.263-0.7l-0.426-0.95l-0.425-0.938l-0.075-0.713l-0.263-1.175
		l0.301-1.062l0.262-1.063l0.501-0.826l0.388-0.926l0.588-0.95l0.587-0.825l0.551-0.701l0.576-0.65l0.712-0.525l0.425-0.538
		l0.563-0.3l0.726-0.462l0.562-0.425l0.413-0.4l0.262-0.413l-0.1-0.587l-0.263-0.588l-0.65-0.462l-0.488-0.475l-0.412-0.476
		l-0.501-0.587l-0.262-0.476v-0.538l0.05-0.925l-0.288-0.538l-0.062-0.701l-1.287-0.975l-1.289,0.075l-1.037,0.25l-0.163,0.65
		l-0.225,1.238l-0.338,0.588l-0.338,0.775l-0.388,0.701l-0.75,0.587l-0.976,0.125h-1.288l-0.275,0.225l-0.312,0.363v0.763
		l-0.263,0.588l-0.163,0.475l-1.112,0.175l-0.926-0.113l-0.775-0.112l-0.625-0.062l-0.274-0.3l-0.264-0.475l-0.351-0.35
		l-0.351-0.588l-0.137-0.588v-0.6l0.351-0.338l0.562-0.062l0.288,0.125l0.8,0.175h0.263v-0.475l-0.138-0.476v-0.4v-0.538
		l0.075-0.663l0.062-0.763l0.2-0.475l0.15-1.176l-0.138-0.476v-0.413l-0.351-0.35l-0.362-0.188l-0.562-0.225l-0.626-0.113
		l-0.45-0.125l-0.2-0.35l-0.225-0.475l-0.188-0.363l-0.238-0.337l-0.487-0.238l-0.188-0.362l0.188-0.337l0.062-0.363l-0.274-0.351
		l-0.488-0.175l-0.726-0.062l-0.563-0.05l-0.425-0.363l-0.375-0.113l-0.613-0.538l-0.374-0.413l-0.425-0.275l-0.414-0.2v-0.225
		v-0.476l0.25-0.35l0.238-0.237l1.125-0.476l0.275-0.362v-0.475v-0.463l-0.188-0.35l-0.212-0.35l-0.288-0.476l-0.225-0.338
		l-0.25-0.413l-0.076-0.587l-0.074-0.65l-0.076-0.538l0.013-0.65l-0.149-0.701l-0.075-0.638l-0.088-0.587l-0.15-0.651l-0.399-0.187
		l-0.4-0.413l-0.763-0.337l-1.275-0.701l-0.789-0.062l-0.787-0.063l-0.925-0.337l-0.776-0.726l-0.5-0.475l-0.487-0.588l-0.5-0.475
		l-0.7-0.175l-0.563-0.062l-0.262-0.35v-0.826l-0.076-0.575l-0.062-0.475l-0.351-0.25l-0.562-0.475l-0.413-0.338l-0.375-0.588
		v-0.475l0.212-0.463l0.426-0.362l0.487-0.463l0.313-0.351l0.412-0.475l0.562-0.238l0.488-0.588l-0.213-0.475l-0.425-0.125
		l-1.201-0.163l-1.051,0.112h-0.987h-0.851l-0.638-0.362l-0.413-0.813l-0.362-0.475l-0.3-0.701l-0.625-0.35l-0.851-0.05
		l-0.776,0.225l-0.663,0.225l-0.399,0.137l-0.425,0.413l-0.563,0.288l-0.638,0.25l-0.425-0.112l-0.288-0.35l-0.324-0.701v-0.587
		l0.012-0.601l-0.275-0.875v-0.638l0.25-0.363v-0.7l-0.162-0.363l-0.25-0.463l-0.575-1.425l-0.126-0.588v-0.475l-0.274-0.525
		l-0.263-0.538l-0.35-0.475l-0.576-0.463l-0.625-0.587l-0.713-0.55l-0.562-0.538l-0.763-0.926l-0.55,0.175l-0.163,0.087l-0.05,0.025
		l-3.377,2.413l-1.4,0.113l-2.939-0.363l-2.313-0.075l-1.213-0.088l-1.764-0.462l-0.788-0.538l-2.9,0.488l-1.451,0.5l-0.675,0.75
		l-0.351,0.963l-2.139,0.05l-0.65-0.338l-1.426,0.113l0.188,0.65v0.588l-0.124,0.562l-0.139,0.576l-0.012,0.012l-0.15,1.163
		l0.013,0.2l0.062,2.013l0.025,0.713l-1.201,1.338l-1.313,1.501l-1.15,0.8l-1.338,0.726l-0.025,0.037l-0.062,0.676l1.338,0.312
		l0.776,0.988l-0.45,0.237l-0.551,0.462l-0.3,0.463l-0.513,0.75l-0.488,0.463l-1.426,0.55l-1.101,0.488l-0.324,0.187l-0.276,0.263
		l-0.312,0.462l-0.788,0.588l-0.324,0.713l0.225,0.388l-0.787,0.587l-0.276-0.125l-0.236,0.213l-0.2,0.588l-0.188,0.362
		l-0.262,0.213l-0.463,0.488l-0.2,0.412l-0.075,0.613l-0.213,0.588l-0.25,0.438l-0.463,0.275l-0.774,0.225l-1.177,0.238l-0.65,0.025
		l-1.112-0.113l-0.438-0.038l-0.338,0.163l-0.175,0.15l0.263,0.375l-0.138,1.025l-0.312,1.726l-1.864,0.15l-4.802,0.788
		l-0.351,0.851l-0.9,1.163l-1.838,1.801l-1.326,0.488l-1.075,0.05l-1.363-0.275l-0.9,0.55l-2.188,0.951l-0.963-0.438L31-98.556
		l-2.677-0.976l-1.25-0.763l-0.788,0.025l-0.075,0.763l0.238,1.326l0.262,0.763l0.138,0.325l0.426,0.413l0.037,0.075v0.263
		l-0.212,0.55l-0.351,0.613l-0.775,0.925l-0.075,0.45l-0.062,0.487l0.112,0.601l0.063,0.388l-0.014,0.387l-0.012,0.538l-0.238,0.45
		l-2.626,0.676l-1.163,0.825l-0.888,1.676l-2.363,1.338l-1.501,0.875l0.688,2.213l-0.776,1.426l-1.325,0.325l-1.651-0.625
		l-0.438-0.638l-0.199-0.05l-0.613-0.175l-0.376-0.138l-0.299-0.15l-0.389-0.237l-0.399-0.363l-0.363-0.425l-0.274-0.338
		l-0.45-0.487l-0.325-0.45l-0.425-0.513l-0.326-0.113l-0.087-0.012L8.765-86.2l-0.388,0.325l-0.263,0.4l-0.388,0.3l-0.375,0.263
		l-0.788-0.012l-0.162-1.288l0.1-0.951l-0.438-1.426l-0.375-0.6l-1.751-1.138L3.363-90.34l0,0L2.35-90.502l-0.562,0.037
		l-0.676-0.037H0.373L0.048-90.29l-0.2,0.3l-0.675,0.576l-0.463,0.15l-0.638,0.05l-1.088,0.012l-1.038-0.55l-0.9-0.225l-0.551-0.138
		l-0.524,0.425l-0.538,0.913l-0.788-0.062l0.088,0.425l-0.538,0.225l-0.213,0.337l0.125,0.588l0.138,0.638l-0.199,0.538
		l-0.488,0.513l-0.263,0.262l-0.275,0.538l-0.438,0.4l-0.013,0.638l-0.15,0.7l-0.187,0.563l-0.063,0.9l-0.274,0.65l-0.325,0.713
		l-0.25,0.675l0.062,0.601l0.274,0.625l0.363,0.55l0.087,0.688l-0.149,1.375l-0.275,0.851l-0.388,0.838l-0.4,0.538l-0.337,0.475
		l0.037,0.488l-0.162,0.362l-0.363,0.438l-0.676,0.413l-0.3,0.575l-0.125,1.101v1.063l-0.274,0.6l-0.075,0.988l0.024,0.2
		l0.088,0.551l-0.2,0.663l-0.125,0.25l-0.275,1.101l-0.287,1.451l-1.864,2.526l-0.262,1.113l-0.163,0.538l-0.101,0.088l-1.325,0.638
		l-1.113,0.125l-0.976-0.325l-0.6-0.35l-0.488-0.275l-0.412-0.462l-0.513-0.938l-0.163-0.375l0.025-0.387l0.575-1.301l0.025-0.05
		l0.7-1.188l-0.213-0.625l-0.287-0.262l-0.376-0.676l-2.15-2.376l-0.713,0.613l-0.25,2.051l-0.088,1.15l-1.488-0.237l-1.013,0.087
		l-1.051,0.488l-0.288-0.05l-0.675-0.125l-1.176-0.175h-0.037l-1.389-0.2h-0.037l-0.775-0.25l-0.175-0.113l-0.213-0.05l-0.288-0.513
		l-0.125-0.2l0.2-1.025l-0.8,0.312l-0.263-0.163l-0.726-0.413l-0.75-0.425l-0.589,0.438l-0.074,0.062l-0.125,0.163l-0.338,0.275
		l-1.338-1.351l-0.263-0.325l-0.275-0.363l-0.138-0.088l-0.8-0.525l-0.613-0.313l-0.125-0.075l-1.751-0.963l-0.788-1.576
		l-1.101-0.563l-0.162,0.038l-0.112,0.025l-0.15,0.551l-0.074,0.212l-0.251,0.212l-0.25,0.2l-0.775,0.1l-0.676,0.576l-0.55,0.438
		l-1.525,1.438l-0.813,0.988l-1.101,0.8l-1.876,0.1l-0.8-0.488l-0.413-0.188l-0.375,0.138l-0.275,0.137l-0.137,0.063l-0.288,0.976
		l-0.351,0.562l-0.274,0.137l-0.163,0.063l-0.662,0.262l-1.176,0.476l-0.9,0.225l-0.176-0.013l-0.513-0.05l-0.312-0.025
		l-0.237-0.025l-1.051,0.05l-0.388,0.013l-0.726,0.075l-0.263,0.388l-0.05,0.062l-0.425,0.263l-0.638,0.075l-0.813-0.413
		l-0.875,0.075l-0.525,0.163l-0.25,0.013l-0.312,0.012l-0.288,0.25l-0.162,1.651l-0.2,0.225l-0.663-0.163l0,0l-1.264-0.25
		l-1.575,0.838l-0.287-0.188l-0.525-0.013l-0.65-0.175l-0.476-0.162l-0.225-0.063l-0.501-0.738l-0.324-0.9l-0.501-0.613
		l-0.013,0.013l-0.087-0.263l-0.476,0.45l-0.263,0.926l-0.037,1.388l-0.288,0.587l-0.062,0.1l-1.639,1.476l-0.3,0.275l-1.863,0.363
		l-0.538-0.325l0.15-0.788l0.363-0.488l0.137-0.562l-0.012-0.075l-0.138-0.7l-1.826-1.826l-0.312-0.612l-0.45-1.113l-1.876-1.476
		l-0.301-0.463l-0.574-0.8l-0.25-0.312l-0.213-0.901l-0.013-0.525l0.663-1.313l-0.075-0.462l-1.601-0.462l-0.25-0.226l-0.426-0.288
		l-0.225-0.137h-0.688l-0.9,0.475l-1.325,0.45l-0.713-0.288l-0.525,0.025h-0.138l-0.638-0.012l-0.676-0.125l-0.25-0.013
		l-0.149-0.037l-0.65-1.588l0.212-0.487l0.525-1.214l-0.838-0.425l-0.562-0.726l0.125-1.488l0.838-0.363l0.763-0.45l-0.138-0.363
		l-1.1-1.451l-1.852,0.188h-0.062l-1.226-0.087l-3.477-0.225l-0.149,0.1l-0.063,0.05l-1.488,1.313l-1.075,0.062l-0.175,0.213
		l-0.275,0.062l-0.562-0.025l-0.601,0.088l-0.338,0.062l-0.1,0.25l-1.951,2.789l-0.763,0.425l-1.062,0.313l-1.302,0.462
		l-0.274,0.476l-0.088,1.038l-0.55,1.451l-2.363,0.188l-0.213,0.413l-0.413,0.213l-0.726,0.375l-0.763,0.688l-1.801-1.301
		l-1.138-1.226l-0.876-0.075l-0.25,1.526l0.075,1.838l0.388,2.826l1.138,2.602l0.538,2.289l-2.102,3.789l-1.713,1.5l-1.375,0.125
		l-0.213,0.637l-0.138,0.413l-0.075,0.163l0.163,0.45v0.425l-0.301,0.601l-0.162,0.4l-0.051,0.15l-0.012,0.363L-122.309-51.146"/>
</g>
<g id="Layer_1_1_">
</g>
</svg>
