<?xml version="1.0" encoding="iso-8859-1"?>
<!-- Generator: Adobe Illustrator 16.0.4, SVG Export Plug-In . SVG Version: 6.00 Build 0)  -->
<!DOCTYPE svg PUBLIC "-//W3C//DTD SVG 1.1//EN" "http://www.w3.org/Graphics/SVG/1.1/DTD/svg11.dtd">
<svg version="1.1" xmlns="http://www.w3.org/2000/svg" xmlns:xlink="http://www.w3.org/1999/xlink" x="0px" y="0px"
	 width="43.641px" height="43.142px" viewBox="0 0 43.641 43.142" style="enable-background:new 0 0 43.641 43.142;"
	 xml:space="preserve">
<g id="Layer_152">
	<g id="Layer_157">
		<path id="Ghotki" style="fill:#CCCCCC;stroke:#FFFFFF;stroke-width:1.07;" d="M43.26,20.473
			L43.26,20.473l-0.57-0.05l-0.977-0.489l-0.23-0.115l-0.736-0.311l-0.209-0.015l-0.564-0.114l-0.312-0.076l-0.285-0.062
			l-0.189-0.063l-0.408-0.186l-0.291-0.042l-0.111-0.086l-0.771-0.649l-0.189-0.279l-0.113-0.108l-0.227-0.193l-0.375-0.124
			l-0.279-0.068l-0.771-0.234l-0.271-0.21l-0.107-0.081l-0.16-0.192l-0.238-0.344l-0.037-0.047l-0.137-0.169l-0.166-0.184
			l-0.064-0.17l-0.09-0.267l-0.096-0.138l-0.17-0.172l-0.221-0.224l-0.256-0.271l-0.205-0.248l-0.086-0.088l-0.27-0.229
			l-0.348-0.326l-0.322-0.302l-0.275-0.354l-0.375-0.459l-0.371-0.454l-0.605-0.818l-0.203-0.191l-0.08-0.16l-0.07-0.259
			l-0.074-0.152l-0.062-0.085l-0.096-0.139l-0.176-0.215l-0.736-1.122l-0.098-0.069l-0.02-0.044V8.964l0.043-0.171l0.033-0.159
			l0.051-0.242l-0.002-0.127l-0.035-0.126l-0.035-0.101l-0.125-0.237L29.08,7.729l0.049-0.179l-0.018-0.014l-0.072-0.005
			l-0.018,0.01l-0.088,0.146l-0.021,0.009l-0.018-0.003l-0.023-0.014l-0.002-0.037l0.004-0.09l0.043-0.137l0.15-0.289l0.189-0.095
			l0.023-0.064l0.107-0.101l0.145-0.209l0.146-0.145l0.023-0.098L29.67,6.38l-0.066-0.103L29.48,6.146l-0.027-0.112L29.449,6.01
			l-0.23-0.234L29.18,5.736l-0.027-0.07l-0.031-0.171v-0.07l-0.039-0.049L29.07,5.289l0.004-0.085l-0.018-0.045l-0.186-0.136
			l-0.061-0.062l-0.057-0.086l-0.064-0.1l-0.025-0.049l-0.041-0.141l0.01-0.076l0.023-0.09l0.01-0.043l-0.012-0.061l0.027-0.084
			l0.137-0.137l0.006-0.032l-0.014-0.042L28.75,3.944L28.609,3.83L28.6,3.802l0.014-0.032l0.037-0.051L28.744,3.6l0.076-0.104
			l0.012-0.06L28.82,3.412l-0.043-0.011l-0.043,0.002L28.641,3.43l-0.111,0.009L28.385,3.42l-0.15-0.039l-0.092-0.043l-0.076-0.057
			L27.982,3.17l-0.033-0.084l-0.023-0.135L27.91,2.811l-0.041-0.143l-0.055-0.34l-0.012-0.025L27.77,2.229L27.73,2.033l0.012-0.138
			l0.025-0.043l0.068-0.069V1.74L27.82,1.656l0.014-0.051l0.094-0.123l0.025-0.066l0.1-0.144L28.037,1.25l-0.07-0.051L27.93,1.146
			l-0.002-0.028l0.059-0.072l0.031-0.053l-0.672,0.236l-0.564,0.164l-0.496,0.174L26.02,1.682l-0.465-0.023l0.008,0.098L25.561,1.92
			l-0.104,0.263l-0.096,0.253l-0.104,0.486l-0.02,0.107l-0.023,0.59l-0.098,0.629l-0.172,0.33l-0.213,0.193l-0.221,0.081
			L24.346,4.86l-0.264-0.054l-0.17-0.084l-0.16-0.121L23.66,4.467l-0.1-0.144l-0.076-0.129L23.383,4.09L23.23,4l-0.201-0.138
			l-0.127-0.03L22.63,3.897l-0.137,0.082l-0.289,0.134L22.01,4.211l-0.104,0.172l0.023,0.225l0.126,0.301l-0.002,0.174l-0.062,0.2
			l-0.136,0.075l-0.17,0.066l-0.094,0.015l-0.263-0.062l-0.278-0.068l-0.406-0.069l-0.434-0.047l-0.262-0.009L19.67,5.22
			l-0.212,0.088l-0.153,0.119L19.23,5.448l-0.052-0.007l-0.041-0.104l-0.06-0.188L19.012,4.84l-0.066-0.264l-0.044-0.123
			l-0.021-0.02l-0.056-0.049L18.69,4.316l-0.305-0.092l-0.246-0.001l-0.145-0.001l-0.137,0.06l-0.254,0.044l-0.136-0.023
			l-0.212-0.135l-0.144-0.112l-0.193-0.104l-0.102-0.066L16.7,3.765l-0.084-0.113l-0.042-0.075l-0.161-0.054l-0.339-0.046
			l-0.229,0.007l-0.068,0.037l-0.051,0.082l0.008,0.149l-0.01,0.232l-0.146,0.367l-0.128,0.25l0.179,0.142L15.747,4.9l0.145,0.15
			l0.101,0.181l0.075,0.181l0.059,0.264l0.083,0.112L16.345,5.9l0.151,0.046l0.279,0.009l0.203,0.023l0.381,0.091l0.49,0.115
			l0.212,0.053l0.122,0.052l0.05,0.075v0.09l-0.062,0.164L17.951,6.91l-0.213,0.27l-0.077,0.21l-0.044,0.285l-0.01,0.127
			l-0.094,0.156l-0.052,0.144L17.427,8.19v0.113l0.065,0.218l0.05,0.172l-0.001,0.165l-0.035,0.157l-0.079,0.183l-0.13,0.135
			L17.086,9.46l-0.212,0.052l-0.262-0.001l-0.212-0.068l-0.187-0.129l-0.159-0.21l-0.05-0.255l-0.021-0.602l-0.015-0.449
			l-0.052-0.181l-0.059-0.06l-0.262-0.076l-0.094-0.091L15.42,7.165l-0.042-0.136l-0.102-0.104l-0.101-0.1l-0.181-0.142
			l-0.312-0.218L14.438,6.36l-0.32-0.174l-0.146-0.051l-0.158,0.037l-0.081,0.062l-0.041,0.135l-0.001,0.09l-0.01,0.062
			l-0.012,0.026l-0.07,0.036l-0.131,0.062l-0.326,0.349L12.835,7.45l-0.184,0.376l-0.194,0.501l-0.081,0.107h-0.07l-0.525-0.082
			l-0.264-0.082l-0.252-0.055l-0.273-0.081l-0.304-0.063l-0.212-0.126l-0.183-0.091l-0.212-0.162l-0.05-0.053L9.95,7.657
			L9.797,7.792L9.747,7.817L9.646,7.8H9.543l-0.2,0.092l-0.102,0.09l-0.163,0.25L8.875,8.526L8.571,8.832L8.236,9.197l-0.254,0.25
			L7.891,9.502H7.749L7.385,9.438L7.212,9.438L7.101,9.474L6.959,9.607L6.877,9.769L6.786,9.903L6.655,9.958L6.452,9.983
			L6.027,9.991L5.825,10.01l-0.151,0.062L5.46,10.196l-0.173,0.188l-0.19,0.06l-0.28,0.059l-0.181,0.025l-0.064,0.01l-0.332,0.05
			l-0.297,0.025l-0.219,0.06L3.46,10.755l-0.123,0.066l-0.158,0.152l-0.126,0.199l-0.124,0.112l-0.114,0.068l-0.07,0.053
			l-0.062,0.093l-0.071,0.067l-0.079,0.062l-0.115,0.105l-0.055,0.114l0.021,0.177l0.06,0.132l0.073,0.317l-0.002,0.101
			l-0.038,0.153L2.37,12.905l-0.106,0.146l-0.108,0.222l-0.037,0.115l0.025,0.086l0.115,0.302l0.122,0.527l-0.004,0.191
			l-0.062,0.146L2.19,14.74l-0.385,0.134l0.085,0.105l-0.085,0.136l-0.121,0.086L1.624,15.28L1.43,15.417l-0.363,0.13l-0.143,0.07
			l-0.066,0.072v0.032l0.051,0.04l0.082,0.025l0.186,0.034l0.109,0.04l0.141,0.106l0.14,0.257l0.086,0.302l0.029,0.126l0.006,0.085
			v0.079L1.625,16.94l-0.082,0.078l-0.052,0.06L1.46,17.189v0.06l0.028,0.164l0.088,0.209l0.035,0.14l0.036,0.164l-0.001,0.099
			l0.021,0.111l0.052,0.087l0.185,0.104l0.066,0.054l0.027,0.079v0.079l0.028,0.178l0.102,0.185l0.073,0.118l0.088,0.126
			l0.072,0.125l0.08,0.158l0.021,0.131L2.46,19.665l0.016,0.099l0.071,0.132l0.172,0.243l0.115,0.217l0.015,0.151l0.043,0.211
			l0.057,0.289l0.109,0.189l0.19,0.2l0.142,0.142l0.165,0.134L3.764,21.9l0.11,0.172l0.081,0.182l0.09,0.277l0.134,0.183
			l0.188,0.182l0.284,0.16l0.196,0.084l0.12,0.057l0.021,0.05v0.048L4.98,23.371l-0.043,0.097l-0.085,0.116L4.767,23.69
			l-0.074,0.098l-0.086,0.106l-0.021,0.116l0.002,0.115l0.058,0.144l0.108,0.124l0.198,0.172l0.219,0.151l0.209,0.2l0.077,0.096
			l0.023,0.076l-0.045,0.096L5.36,25.253L5.274,25.32l-0.097,0.06l-0.119,0.04l-0.107,0.04l-0.119,0.059l-0.139,0.156l-0.267,0.282
			l-0.204,0.166l-0.086,0.039l-0.13-0.009l-0.099-0.019l-0.077-0.057L3.787,26.02l-0.041-0.08l-0.062-0.053l-0.089-0.039
			l-0.165-0.01l-0.137-0.051l-0.161-0.12l-0.176-0.131l-0.147-0.107l-0.095-0.069l-0.124,0.012l-0.125,0.075L2.31,25.577
			l-0.116,0.225l-0.06,0.207l-0.052,0.084l-0.146,0.052l-0.228,0.008l-0.32-0.043l-0.287-0.092l-0.19-0.053L0.72,25.943
			l-0.069,0.029l-0.026,0.057l0.024,0.416l0.004,0.122l-0.047,0.212L0.56,26.986L0.536,27.15l0.003,0.147l0.039,0.073l0.026,0.05
			l0.073,0.087l0.026,0.044l0.131-0.021l0.387-0.033l0.275,0.016l0.591,0.138l0.28,0.121l0.297,0.163l0.409,0.319l0.268,0.287
			l0.416,0.397l0.446,0.524l0.449,0.596l0.063,0.099l0.096,0.111l0.034,0.041l0.062,0.064l0.051,0.103l0.087,0.182l0.341,0.439
			l0.335,0.438l0.363,0.518l0.506,0.534l0.581,0.581l0.578,0.389l0.402,0.17l0.661,0.128l0.412,0.082l0.737,0.069l0.811,0.021
			l0.553,0.053l0.305,0.035l0.183,0.073l0.132,0.114l0.132,0.172l0.196,0.162l0.196,0.133l0.151,0.086l0.206,0.019l0.562-0.063
			l0.725-0.026l0.691-0.006l0.53,0.005l0.745-0.016l0.217-0.051l0.171-0.203l0.106-0.05l0.229-0.012l0.238,0.018l0.13,0.076
			l0.065,0.114l0.001,0.097l-0.051,0.289l-0.137,0.426l-0.212,0.387l-0.191,0.319l-0.33,0.446l-0.159,0.193l-0.097,0.126
			l-0.047,0.036l-0.011,0.039v0.029l0.108,0.047l0.217,0.104l0.315,0.17l0.359,0.258l0.479,0.274l0.467,0.267l0.306,0.22
			l0.349,0.285l0.501,0.399l0.327,0.259l0.315,0.181l0.367,0.17l0.336,0.094l0.387,0.071l0.355,0.056l0.348,0.104l0.391,0.161
			l0.606,0.273l0.629,0.274l0.607,0.227l0.281,0.117l0.135,0.104l1.873,1.32l0.975-0.729l0.443-0.312l0.332-0.234l0.832-0.797
			l0.666-0.579l0.01-0.009l0.031-0.022l0.516-0.386l0.963-1.2l0.934-1.16l0.562-0.823l0.154-0.232l0.473-0.71l0.678-0.456
			l1.973-1.328l0.158-0.106l0.518-0.348l0.346-0.569l0.703-1.721l0.412-1.007l1.316-3.034l1.025-2.431l0.236-0.324l1.805-2.467
			l0.477-0.422l0.535-0.474L43.26,20.473"/>
	</g>
</g>
<g id="Layer_1">
</g>
</svg>
