<?xml version="1.0" encoding="iso-8859-1"?>
<!-- Generator: Adobe Illustrator 16.0.4, SVG Export Plug-In . SVG Version: 6.00 Build 0)  -->
<!DOCTYPE svg PUBLIC "-//W3C//DTD SVG 1.1//EN" "http://www.w3.org/Graphics/SVG/1.1/DTD/svg11.dtd">
<svg version="1.1" xmlns="http://www.w3.org/2000/svg" xmlns:xlink="http://www.w3.org/1999/xlink" x="0px" y="0px"
	 width="35.735px" height="51.662px" viewBox="0 0 35.735 51.662" style="enable-background:new 0 0 35.735 51.662;"
	 xml:space="preserve">
<g id="Layer_85">
	<g id="Layer_90">
		<path id="Musakhel" style="fill:#CCCCCC;stroke:#FFFFFF;stroke-width:1.07;" d="
			M25.331,5.492L25.331,5.492l-0.123,0.001l-0.107,0.04l-0.046,0.08l-0.106,0.239l-0.044,0.305l0.004,0.608l0.065,0.661
			l-0.062,0.278l-0.229,0.345l-0.275,0.2L23.992,8.37l-0.447,0.028L23.19,8.387l-0.355-0.091l-0.186-0.052h-0.186l-0.152,0.12
			l-0.505,0.42l-0.354,0.345l-0.261,0.24l-0.29,0.398l-0.121,0.265l-0.092,0.053l-0.155-0.026l-0.186-0.157l-0.231-0.065h-0.078
			l-0.293-0.051l-0.217-0.078l-0.387-0.143l-0.312-0.184l-0.557-0.249l-0.51-0.155l-0.356-0.183l-0.511-0.222l-0.326-0.263
			l-0.188-0.117h-0.123l-0.139,0.067l-0.229,0.094L15.507,8.46l-0.322,0.068l-0.2,0.094l-0.169,0.12l-0.122,0.146l-0.214,0.239
			L14.25,9.301l-0.585,0.177l-0.293,0.001l-0.201-0.039l-0.2-0.117l-0.203-0.264l-0.065-0.436l-0.094-0.145l-0.093-0.039
			l-0.14,0.027l-0.01,0.01L12.14,8.661l-0.2,0.231l-0.464,0.263l-0.169,0.256l0.009,0.278l-0.01,0.658l-0.052,0.279l-0.286,0.284
			l-0.461,0.364l-0.173,0.13l-0.083,0.179l0.033,0.125l0.124,0.2l0.426,0.263l0.33,0.195l0.004,0.177l-0.138,0.306l-0.538,0.72
			l-0.159,0.56l0.108,0.655l0.165,0.603l0.084,0.858l-0.188,0.611l-0.107,0.28l0.062,0.15l0.21,0.122l0.499-0.037l0.295,0.044
			l0.031,0.075l0.006,0.152l-0.314,0.285l-0.396,0.54l-0.167,0.332l0.008,0.253l0.068,0.302l0.331,0.271l0.441,0.289l0.329,0.17
			l0.005,0.177l-0.197,0.257l-0.166,0.358l-0.154,0.737l-0.018,0.379l-0.021,0.305l-0.226,0.308l-0.458,0.415l-0.398,0.413
			L9.742,24.1l-0.309,0.462l0.01,0.329l-0.079,0.305l-0.395,0.54l-0.311,0.411l-0.276,0.588l-0.58,1.298l-0.425,0.541l-0.599,0.57
			l-0.657,0.571l-0.483,0.416l-0.313,0.312L5.049,30.98l-0.198,0.182l-0.32,0.084l-0.288,0.158l-0.513,0.441l-0.229,0.232
			l0.003,0.103l0.124,0.199l0.007,0.228l-0.108,0.23l-0.228,0.258l-0.022,0.178l0.005,0.151l0.12,0.073l0.037,0.277l0.007,0.201
			L3.362,34.13l0.066,0.276l-0.023,0.178l-0.052,0.203l-0.11,0.205l0.035,0.177l0.156,0.325L3.44,35.67l-0.165,0.333L2.969,36.49
			l-0.315,0.386l-0.313,0.26l-0.517,0.341l-0.458,0.289L1.08,38l-0.139,0.256l-0.249,0.411l-0.155,0.636l0.016,0.479l0.07,0.354
			l0.161,0.477l0.093,0.149l0.205,0.021l0.204-0.004l0.236,0.045l0.181,0.172l0.179,0.123l0.177-0.004l0.259-0.133l0.344-0.235
			l0.202-0.056l0.176-0.004l0.119,0.047l0.179,0.123l0.035,0.176l-0.023,0.177l-0.023,0.151l0.031,0.102l0.122,0.148l0.15,0.172
			l0.033,0.102l-0.023,0.178l-0.084,0.127l0.062,0.101l0.235,0.045l0.204-0.004l0.294,0.043l0.118,0.073l0.123,0.174l0.004,0.152
			l-0.055,0.127l-0.226,0.232l-0.145,0.184l-0.03,0.377l0.145,0.322l0.435,0.573l0.293,0.052l0.26,0.07l0.196,0.005l0.179,0.004
			l0.294,0.138l0.38,0.215l0.438,0.244l0.377,0.295l0.26,0.289l0.289,0.24l0.565,0.016l0.269,0.007l0.145,0.133l-0.004,0.103
			l-0.132,0.358L8.43,46.958l-0.124,0.151L8.3,47.264l0.145,0.159l0.088,0.028l0.09,0.003l0.062-0.051l0.093-0.102l0.149-0.047
			l0.148,0.004l0.263,0.162l0.61,0.43l0.734,0.303l0.207,0.007l0.154-0.15l0.129-0.28l0.121-0.049l0.206,0.084l0.408,0.242
			l0.2,0.213l0.023,0.11l0.055,0.067l0.232,0.062l0.377,0.08l0.215,0.125l0.205,0.332l0.068,0.404l0.052,0.437l0.017,0.343
			l0.069,0.156l0.145,0.188l0.249,0.268l0.251,0.095l0.322,0.126l0.305,0.11l0.396,0.002l0.323,0.002l0.252-0.062l0.307-0.217
			l0.361-0.201l0.667-0.198l0.378-0.121l0.181-0.187l0.129-0.25l0.289-0.277l0.254-0.154l0.414-0.091l0.558-0.043l0.432,0.002
			l0.271,0.019l0.43,0.157l0.646,0.19l0.366,0.108l0.146-0.206l0.181-0.232l0.155-0.301l0.064-0.254l0.104-0.201l0.143-0.254
			l0.35-0.621l0.193-0.354l0.066-0.321l0.065-0.39l0.016-0.467l-0.035-0.724l0.016-0.399l0.054-0.377l0.106-0.255l0.065-0.2
			l0.116-0.167l0.581-0.487l0.413-0.465l0.427-0.499l0.208-0.398l0.183-0.488l0.285-0.51l0.404-0.754l0.17-0.377l0.364-0.721
			l0.324-0.799l0.289-0.955l0.094-0.533l0.003-0.544l-0.051-0.333l-0.061-0.445l-0.114-0.322L26.57,35.07l-0.024-0.321l0.028-0.322
			l0.064-0.188l0.131-0.122l0.153-0.144l0.117-0.156l0.078-0.188l0.027-0.244l0.055-0.399l0.053-0.188l0.104-0.146l0.115-0.088
			l0.13-0.055l0.154-0.01l0.345,0.036h0.104l0.192,0.046l0.425,0.068l0.335-0.01h0.155l0.129-0.055l0.104-0.109l0.053-0.146
			l0.003-0.244l0.054-0.444l0.08-0.344l0.104-0.166l0.104-0.1l0.104-0.066l0.258-0.021l0.632,0.004l0.375-0.042l0.231-0.065
			l0.129-0.088l0.117-0.154l0.131-0.211l0.12-0.621l0.088-0.945l0.067-0.389l0.064-0.133l0.117-0.109l0.232-0.01l1.058,0.006
			l0.271-0.021l0.115-0.066l0.106-0.311l0.041-0.301l-0.05-0.223l-0.09-0.09l-0.283-0.111l-0.205-0.09l-0.089-0.212l-0.037-0.222
			l0.066-0.322l0.172-0.521l0.175-0.732l0.053-0.188l0.07-0.811l0.007-0.822l-0.02-0.956l-0.021-0.512l0.017-0.343l0.042-0.455
			l0.097-0.611l0.065-0.267l0.156-0.243l0.367-0.542l0.21-0.433l0.159-0.488l0.12-0.577l0.018-0.4l-0.033-0.679l-0.07-0.89
			l0.006-0.511l0.014-0.189l-0.217-0.251l0,0l-0.837-0.967l-0.203-0.513l0.248-0.228l0.074-0.283l-0.145-0.159l-0.204-0.136
			l-0.175-0.134l-0.022-0.181l0.006-0.129l0.065-0.152l0.188-0.175l0.277-0.172l0.072-0.282l0.01-0.232l-0.077-0.312l-0.097-0.571
			l0.008-0.903l-0.093-0.648l0.021-0.516l0.09-0.694l0.198-1.156l0.112-0.513l0.109-0.583V4.459l-0.091-0.726l-0.186-0.6
			l-0.188-0.574l-0.093-0.674L33.83,0.926l0.01-0.207l-0.056-0.13l-0.149-0.031l-0.211-0.007l-0.271-0.008l-0.378,0.401L32.46,1.27
			l-0.221,0.226l-0.43,0.167l-0.4,0.194l-0.246,0.147l-0.219,0.174l-0.381,0.453l-0.131,0.254l-0.254,0.276l-0.122,0.074
			l-0.151,0.021l-0.241-0.008L29.36,3.29l-0.064,0.102L29.261,3.52l-0.096,0.126L28.984,3.64l-0.12-0.003l-0.238-0.084l-0.123,0.074
			l-0.063,0.101l-0.035,0.128l-0.093,0.049l-0.18-0.031l-0.116-0.081L27.87,3.634l-0.022-0.156l-0.083-0.209l-0.083-0.157
			l-0.121-0.004l-0.417-0.115l-0.12-0.004l-0.092,0.023l-0.034,0.102l-0.01,0.232l0.104,0.39l0.018,0.336l-0.013,0.31l-0.097,0.152
			l-0.186,0.098L26.318,4.75l-0.097,0.152l-0.009,0.18l-0.041,0.283l-0.096,0.126L25.984,5.54l-0.151,0.021l-0.461-0.073h-0.041"/>
	</g>
</g>
<g id="Layer_1">
</g>
</svg>
