<?xml version="1.0" encoding="utf-8"?>
<!-- Generator: Adobe Illustrator 16.0.4, SVG Export Plug-In . SVG Version: 6.00 Build 0)  -->
<!DOCTYPE svg PUBLIC "-//W3C//DTD SVG 1.1//EN" "http://www.w3.org/Graphics/SVG/1.1/DTD/svg11.dtd">
<svg version="1.1" id="Layer_1" xmlns="http://www.w3.org/2000/svg" xmlns:xlink="http://www.w3.org/1999/xlink" x="0px" y="0px"
	 width="300.979px" height="211.412px" viewBox="-128.529 -90.015 300.979 211.412"
	 style="enable-background:new -128.529 -90.015 300.979 211.412;" xml:space="preserve">
<g id="Layer_58">
	<path id="Kasur" style="fill:#CCCCCC;stroke:#FFFFFF;stroke-width:1.15;" d="M-123.04-22.197L-123.04-22.197l1.005,0.663l0.607,0.6
		l0.501,0.887l0.702,1.052l0.241,0.527l0.533,0.917l0.555,0.669l0.58,1.197l0.729,1.322l0.487,1.108l0.265,1.115l0.573,0.857
		l0.405,0.676l0.086,0.37l-0.072,0.386l-0.34,0.547l-0.673,0.472l-1.279,0.468l-1.006,0.399l-0.808,0.438l-0.554,0.561l-0.165,0.531
		l-0.06,0.567l0.244,0.887l0.419,1.295l0.053,0.561l-0.047,0.573l-0.346,0.495l-0.39,0.544l-0.142,0.488l0.053,0.561l0.541,0.485
		l2.094,0.851l2.378,0.738l4.111,1.046l3.545,1.18l1.418,0.475l0.891,0.554l0.419,0.491l0.34,0.643l0.214,0.554l0.399,1.154
		l0.83,2.5l0.986,2.728l1.181,2.1l1.616,1.452l1.81,1.203l2.829,0.85l1.103,0.066l0.979,0.082l0.554,0.104l0.136,0.277l0.026,0.232
		l0.201,1.652l0.276,0.641l0.143,0.6l0.102,0.805l-0.154,0.672l-0.63,2.164l-0.749,1.379l-0.774,1.133l-0.663,0.846l-0.379,0.691
		l-0.096,0.857l0.158,0.646l0.673,0.674l2.324,1.727l2.642,1.82l0.884,0.832l0.221,0.17l0.571,0.422l0.491,0.416l0.649,0.527
		l0.425,0.213l0.344,0.053h0.296l0.38-0.113l0.527-0.25l0.814-0.41l1.306-0.691l1.979-1.062l0.937-0.35l0.824-0.178l0.838-0.025
		l0.573,0.078l0.419,0.291l0.548,0.705l0.554,0.797l0.817,1.689l0.42,0.83l0.365,0.654l1.83,2.234l1.748,2.15l1.167,1.965
		l1.178,2.322l0.214,0.713l-0.059,0.633l-0.251,0.594l-0.143,0.891l0.136,0.877l0.258,0.844l0.444,0.58l0.433,0.436l0.851,0.607
		l0.656,0.275l1.83,0.133l1.404-0.039l0.937-0.119l0.946-0.264l0.663-0.014l0.891,0.119l0.798,0.369l1.213,0.885l0.766,0.275
		l0.985,0.014l1.135-0.133h1.547l1.546,0.105l1.065,0.113l0.436-0.014l0.207-0.197l0.136-0.303l-0.021-0.516l-0.082-0.395
		l0.135-0.363l0.297-0.105l0.703-0.014l1.134,0.092l1.27,0.264l0.986,0.238l1.114,0.422l1.378,0.699l0.696,0.469l0.244,0.363
		l0.103,0.711l-0.205,0.527l-0.303,0.396l-0.054,0.328l0.047,0.266l0.142,0.316l0.31,0.316l0.778,0.541l1.121,0.699l1.547,0.916
		l0.844,0.303l1.105,0.166l0.702,0.1l1.583-0.008l0.851,0.1l0.452,0.264l0.276,0.361l0.356,0.469l0.313,0.291l0.702,0.236
		l0.541,0.344l0.316,0.389l0.142,0.66l0.168,0.686l0.237,0.25l0.524,0.125l0.433-0.006l0.372-0.203l0.225-0.238l0.383-0.658
		l0.418-0.893l0.327-0.533l0.472-0.627l0.329-0.303l0.752-0.225l0.986,0.113l0.801,0.242l1.353,0.475l0.31,0.213l0.142,0.197
		l-0.04,0.527l-0.283,0.66l-0.168,0.791l-0.142,0.752l0.142,1.016l0.228,0.732l0.277,0.455l0.19,0.211l0.271,0.092l0.716,0.02
		l0.383,0.119l0.312,0.264l0.363,0.475l0.244,0.619l0.208,0.654l0.237,0.414l0.392,0.391l1.92,0.766l2.516,0.486l1.138,0.119
		l1.962-0.211l1.705-0.172l0.755,0.053l0.419,0.186l0.547,0.436l0.317,0.422l0.211,0.441l1.174,2.256l0.845,1.676l0.257,1.008
		l-0.05,0.918l-0.234,0.717l-0.623,0.898l-0.498,1.055l-0.056,0.693l0.171,0.48l0.271,0.322l0.416,0.244l0.702,0.318l0.604,0.262
		l2.391,1.445l0.999,0.76l0.458,0.539l0.195,0.713l0.029,0.752l0.072,0.414l0.09,0.291l0.315,0.35l0.304,0.264l1.353,0.785
		l2.202,1.385l0.749,0.541l0.505,0.566l0.276,0.621l0.142,0.652l0.143,2.098l0.425,1.754l0.475,1.029l0.466,0.672l0.623,0.646
		l0.419,0.316l0.619,0.35l0.344,0.152l0.623,0.092l0.702,0.086l0.386,0.125l0.316,0.225l0.188,0.33l0.169,0.646l0.029,0.949
		l-0.145,1.346l0.145,0.605l0.188,0.396l0.31,0.211l0.359,0.225l0.795,0.25l0.735,0.303l0.541,0.422l0.798,0.818l0.359,0.477
		l0.673,1.266l0.372,0.711l0.237,0.225l0.344,0.291l0.501,0.277l0.233,2.703l0.67,0.883l3.997-3.311l2.041-1.688l0.812,0.014
		l1.272-1.484l1.728-1.998l3.18-4.637l3.877-5.572l1.795-2.025l1.067-1.188l2.479-0.719l0.687-0.045l2.968-0.191l4.01-2.369
		l1.161,0.213l2.031,0.369l0.276-0.113l0.053-0.006l0.054-0.02l0.25-0.105l0.139-0.963l0.039-0.264l-2.42-2.428l-2.111-5.381
		l-0.289-0.402l-0.851-1.168l0.006-0.012l0.778-1.32h4.261h2.051l2.434-1.623l0.95-1.832l-1.412-2.678l1.029-2.137l0.633-1.287
		l1.688-2.004l3.258-3.879l0.415-4.424l1.075-0.707l0.521-0.35h3.133l2.123-1.424l1.991,0.686l0.04,0.027l2.091,1.119l1.22,0.027
		l2.11-1.688l0.422-0.316l-0.184-1.729l-0.04-0.344l-0.554-0.738l-1.952-2.664l-0.105-1.926l0.185-0.342l0.817-1.373l2.414-0.922
		l0.607-0.238l0.566-0.186l1.24-0.408l3.482-3.338l4.992-0.791l0.916,0.092l0.87-1.582l0.166-1.807l0.23-2.178l2.229-2.387
		l4.972-4.062l5.039-3.549l0.29-0.092l0.693-0.211l0.415-0.514l0.355-0.436l4.076-1.252l1.808,0.295l2.994,1.287l3.521-1.582
		l0.806-0.371l4.497-3.047l0.687-0.389l1.596-0.91l1.886-1.566l-1.094-4.524l-0.053-1.127l-0.073-0.61l2.618-13.309l0.541-0.541
		l0.845-0.844l3.746,0.026l2.644,1.959l3.212,2.364l0.68,0.805l0.706,0.834l1.173,1.108l0.983,0.946l3.555,3.234l2.565,1.412
		l1.748,0.174l1.675,0.166l2.815-1.61l0.706-4.996l0.771-1.378l0.561-0.973l0.726-0.445l0.871-0.541l1.944-0.026l3.054-0.042
		l0.707-0.574l0.942-0.735l0.402-1.019l-0.337-0.992l-0.593-1.751L165.588-5.4l-0.942-2.222l-1.919-3.538l-0.126-0.225l-0.389-0.343
		l-1.689-1.514l-3.831-1.622l-3.879-0.686l-5.42-1.164l-3.746-0.085l-3.773,2.809l-1.424,0.208l-1.2,0.175l-0.475-0.129l-1.59-0.429
		l-2.783-1.549l-1.272-1.227l-0.976-0.947l-3.034-2.905l-0.126-0.201l-0.071-0.149l-0.139-0.346l-2.368-5.085l-0.58-3.294
		l-0.139-0.966l0.139-6.882l1.002-3.255l4.148-13.338l0.311-2.301l-0.146-0.508l-0.264-0.917l-0.37-7.334l-0.032-0.617l4.847-11.238
		v-0.013l0.08-0.336l0.039-0.148l0.053-0.191l0.422-1.019l0.455-1.038l-9.331-3.364l-0.699-0.185l-0.343-0.006l-0.422-0.175
		l-0.344-0.148l-0.699-0.046l-0.792,0.053h-0.804l-0.383-0.026l-0.501-0.194l-0.62-0.168l-0.436-0.037l-0.448,0.069l-0.698,0.195
		l-0.251,0.29l-0.237,0.541l-0.066,0.323l0.197,0.438l0.172,0.34l0.126,0.201l-0.02,0.161l-0.298,0.271l-0.745,0.264l-0.844,0.122
		l-0.989,0.02l-0.896-0.182l-0.581-0.168l-0.455-0.379l-0.415-0.498l-0.238-0.527l-0.138-0.765l-0.139-1.115l-0.165-0.666
		l-0.139-0.264l-0.429-0.171l-0.383-0.092l-0.415,0.026l-0.185,0.148l-0.515,0.218l-0.383,0.073l-0.665-0.089l-1.287-0.175
		l-1.16-0.175l-0.567,0.006l-0.692,0.297l-0.276,0.291l-0.166,0.346l-0.013,0.304l0.218,0.379l0.237,0.234l0.033,0.204l-0.105,0.284
		l-0.416,0.33l-0.844,0.323l-0.798,0.023l-0.291-0.076l-0.343-0.195l-0.283-0.076l-0.369,0.069l-0.218,0.188l-0.369,0.373
		l-0.258,0.646l-0.138,0.999l-0.125,0.696l-0.14,0.676l-0.21,0.94l-0.04,0.979l-0.072,0.87l-0.231,0.979l-0.104,0.534l0.045,0.709
		l0.046,0.587l-0.064,0.31l-0.277,0.412l-0.197,0.162l-0.41,0.027l-0.448,0.095l-0.25,0.168l-0.133,0.188l-0.06,0.185l-0.046,0.323
		l-0.026,0.204l-0.157,0.125l-0.436,0.069l-0.475,0.013l-0.119,0.083l-0.139,0.27l0.026,0.706l0.026,0.571l0.165,0.557l0.362,0.277
		l0.416,0.442l0.204,0.396l-0.139,0.514l-0.132,0.33l-0.422,0.379l-0.415,0.353l-0.231,0.251l-0.118,0.247l0.093,0.501l0.27,0.284
		l0.323,0.135l0.158,0.284l0.079,0.162l-0.132,0.244l-0.356,0.053l-0.501-0.115l-0.408-0.277l-0.265-0.355l-0.297-0.155
		l-0.883-0.162l-1.049-0.205L92.1-66.219l-0.91-0.333l-0.436-0.208l-0.475-0.277l-0.224-0.32l-0.066-0.465l-0.06-0.445l-0.139-0.155
		l-0.224-0.095l-0.356,0.006l-0.441,0.168l-1.128,0.495l-0.713,0.297L86-66.875l-0.416,0.188l-0.54,0.076l-0.785-0.043l-0.692,0.013
		l-0.554,0.076l-0.726,0.323l-0.462,0.191l-0.435,0.215l-0.383,0.006l-0.265-0.116l-0.19-0.181l-0.271-0.214l-0.218-0.056h-0.165
		l-0.396,0.096l-0.699,0.195l-1.048,0.392L76.8-65.336l-0.449,0.257l-0.423,0.277l-0.401,0.479l-0.416,0.478l-0.725,0.412
		l-0.515,0.238l-0.488,0.115l-0.976-0.013l-0.831-0.205l-0.989-0.221l-1.095-0.419l-0.857-0.284l-0.251-0.115l-0.844-0.122
		l-0.567-0.026l-0.745,0.135l-0.594,0.128l-0.943,0.425l-0.943,0.531l-0.982,0.271l-0.771,0.006l-0.732-0.155l-0.627-0.155
		l-0.784,0.076l-0.97,0.033l-0.679-0.046l-0.423-0.116l-0.56-0.475l-0.534-0.291l-0.607-0.181l-0.515-0.026l-0.58-0.109
		l-0.534-0.182l-0.586-0.373l-0.607-0.547L52.82-65.85l-0.62-0.237l-0.698-0.046l-0.699,0.026l-0.35,0.198l-0.402,0.452
		l-0.462,0.769l-0.468,0.379l-0.66,0.181l-0.811,0.036l-0.699-0.016l-0.752,0.448l-0.277,0.426l-0.515,1.058l-0.157,0.656
		l-0.251,0.188l-0.712,0.155l-0.508,0.385l-0.416,0.742l-0.692,0.468l-0.481,0.148l-0.567,0.228l-0.356,0.508l-0.93,1.134
		l-1.009,0.689l-0.857,0.369l-1.239,0.699l-1.022,0.587l-0.706,0.105l-0.515-0.079l-0.409-0.218l-0.198-0.412l-0.315-0.607
		l-0.171-0.485l-0.423-0.475l-0.197-0.432l-0.331-0.478l-0.303-0.455l-0.415-0.343l-0.356-0.472l-0.151-0.623l-0.126-0.382
		l-0.35-0.271l-0.441-0.373l-0.574-0.696l-0.62-0.85l-0.21-0.515L29.329-64l-0.093-0.386l-0.157-0.303l-0.541-0.472l-0.422-0.399
		l-0.641-0.392l-0.956-0.323l-0.422,0.013l-0.699,0.366l-0.327,0.297l-0.336,0.349l-0.297,0.277l-0.379,0.062l-0.316,0.142
		l-0.142,0.317l-0.149,0.372l-0.135,0.162l-0.237,0.085l-0.369,0.013l-0.419,0.017l-0.67,0.026l-0.244,0.06l-0.224,0.191
		l-0.119,0.261l-0.366,0.224l-0.365,0.066l-0.241-0.092l-0.283-0.198l-0.785-0.538l-0.27-0.425l-0.066-0.205l0.046-0.29l-0.02-0.392
		l-0.143-0.202l-0.418-0.053l-0.433-0.006l-0.25-0.152l-0.683-0.485l-0.676-0.547l-0.143-0.284L15.92-67.1l-0.277-0.168
		l-0.233-0.066l-0.399,0.119l-0.567,0.076l-0.31-0.089l-0.425-0.29l-0.42-0.214l-0.385-0.162l-0.36,0.006l-0.382,0.142l-0.327,0.228
		l-0.748,0.656l-1.102,0.844l-0.257,0.271l0.013,0.155l0.09,0.31l0.095,0.778l-0.049,0.419l-0.234,0.633l-0.244,1.101l-0.168,0.92
		l-0.419,0.716l-0.96,0.943L6.588-58.84L5.886-58.42l-0.6,0.168l-0.535,0.02L4.428-58.42l-0.326-0.142l-0.343-0.343l-0.142-0.333
		l-0.014-0.201l0.142-0.373l0.149-0.316l0.02-0.284l-0.096-0.333l0.036-0.208v-0.02l0.014-0.056l-0.083-0.402l-0.343-0.237
		l-0.34-0.076l-0.521,0.056l-1.355,0.491l-0.508,0.346l-0.702,0.228l-0.472,0.013l-0.656-0.053l-0.258-0.478l0.014-0.739
		l0.277-1.355l0.418-1.157l0.063-1.019l-0.297-0.156l-0.34,0.046l-0.505,0.264l-0.887,0.758l-0.782,1.29l-0.906,1.573l-0.62,0.92
		l-0.419,0.214l-0.514,0.06l-0.871-0.214l-0.729-0.587l-0.047-0.586l-0.289-0.772l-0.534-0.953l-0.258-0.31l-0.491-0.425
		l-1.546-0.372l-1.043-0.531l-0.788-0.346l-0.59-0.689l-0.851-0.999l-0.419-0.831l-0.702-0.943l-0.426-0.771l-0.458-0.244
		l-0.237-0.66l-0.143-0.076l-0.715-0.079l-2.107-0.168l-1.154,0.073l-0.521,0.224l-0.402,0.425l-0.237,0.66l-0.433,0.495
		l-0.527,0.264l-0.986,0.155l-0.702-0.155l-0.491-0.326l-1.217-0.402l-0.986-0.231l-1.256-0.02l-0.946,0.162l-0.627,0.541
		l-0.333,0.399l-1.188,0.788l-1.081,0.771l-1.193,0.789l-1.069,0.561l-1.213,0.237l-1.372,0.115l-1.52-0.096l-1.896-0.095
		l-1.372,0.115l-1.325,0.237l-0.652,0.23l-0.495,0.311l-0.363,0.383l-0.418,0.676l-0.574,0.554l-0.676,0.406l-0.604,0.155
		l-0.336,0.432l0.006,0.637l-0.23,0.418l-0.587,0.291l-1.256,0.31l-1.741,0.323l-0.94,0.297l-0.419,0.373l-0.148,0.561l0.143,0.755
		l0.475,0.702l0.788,0.649l1.332,0.818l0.709,0.508l0.194,0.64l-0.033,0.419l-0.271,0.412l-0.791,0.626l-1.375,0.703l-0.462,0.405
		l-0.142,0.481l-0.135,0.735l-0.04,0.716l-0.161,0.593l-0.574,0.715l-0.985,0.716l-1.346,0.838l-1.019,0.488l-0.818,0.237
		l-0.6-0.139l-0.479-0.362l-0.448-0.31l-0.479-0.155l-0.366,0.006l-0.916,0.214l-0.986,0.155l-1.546,0.327l-1.033,0.356
		l-0.946,0.257l-1.088,0.471l-0.979,0.535l-0.844,0.148l-0.775-0.168l-0.566-0.264l-0.637-0.359l-0.412-0.046l-0.412,0.083
		l-0.528,0.257l-0.781,0.363l-0.683,0.567l-1.181,0.797l-0.804,0.202l-0.439-0.02l-0.451-0.238l-0.604-0.851l-0.659-0.573
		l-1.129-0.68l-0.83-0.359l-0.313,0.053l-0.369,0.385l-0.04,0.458l-0.448,0.792l-0.903,0.696l-1.263,0.646l-1.323,0.501
		l-0.837,0.148l-1.264,0.013l-0.992-0.065l-0.719,0.221l-0.512,0.23l-0.507,0.386l-0.878,0.567l-0.762,0.458l-0.702,0.31
		l-0.986,0.155l-0.709-0.08l-0.662,0.06l-0.749,0.168l-0.63,0.284l-0.824,0.412l-0.93,0.426l-0.927,0.386l-0.903,0.521l-0.475,0.271
		l-0.194,0.504l-0.014,0.63l-0.122,0.825l-0.251,0.794l-0.392,0.644l-0.277,0.574l-0.129,0.702l0.089,0.567l-0.168,0.56
		l-0.432,0.485l-0.913,0.65l-1.547,0.877l-1.484,0.772l-0.877,0.271l-0.669-0.103l-0.527-0.201l-0.567-0.604l-0.735-0.768
		l-0.752-0.9l-0.653-0.31l-0.514,0.102l-0.508,0.343l-0.852,0.831l-0.408,0.845l-0.405,1.107l-0.799,0.973l-1.167,1.391
		l-1.352,1.263l-1.174,0.742l-1.155,0.547l-0.702,0.31l-0.771-0.04l-0.35-0.161l-0.616-0.311l-0.607-0.435l-0.573-0.375
		l-0.283,0.099l-0.231,0.25l-0.168,0.468l-0.182,0.633l-0.683,0.735L-123.04-22.197"/>
</g>
<g id="Layer_1_1_">
</g>
</svg>
