<?xml version="1.0" encoding="utf-8"?>
<!-- Generator: Adobe Illustrator 16.0.4, SVG Export Plug-In . SVG Version: 6.00 Build 0)  -->
<!DOCTYPE svg PUBLIC "-//W3C//DTD SVG 1.1//EN" "http://www.w3.org/Graphics/SVG/1.1/DTD/svg11.dtd">
<svg version="1.1" id="Layer_1" xmlns="http://www.w3.org/2000/svg" xmlns:xlink="http://www.w3.org/1999/xlink" x="0px" y="0px"
	 width="301.13px" height="244.671px" viewBox="-519.908 184.503 301.13 244.671"
	 style="enable-background:new -519.908 184.503 301.13 244.671;" xml:space="preserve">
<g id="Layer_56">
	<g id="Karachi_5_">
		<path id="Karachi" style="fill:#CCCCCC;stroke:#FFFFFF;stroke-width:1.15;" d="M-306.634,340.285L-306.634,340.285l-0.101-0.461
			l-0.203-0.676l-0.259-0.404l-0.079-0.248l-0.068-0.236l-0.157-0.459l-0.146-0.338l-0.495-0.676l-0.304-0.438l-0.326-0.506
			l-0.382-0.496l-0.337-0.404l-0.225-0.27l-0.146-0.26l-0.033-0.213l-0.012-0.27l0.079-0.484l0.247-0.742l0.124-0.371l0.033-0.35
			l-0.022-0.291l-0.09-0.35l-0.056-0.506v-0.551l0.034-0.518l0.113-0.428l0.078-0.213l0.09-0.168l0.248-0.236l0.304-0.293
			l0.18-0.225l0.236-0.281l0.281-0.371l0.236-0.281l0.225-0.371l0.146-0.461l-0.022-0.281l-0.056-0.338v-0.248l0.056-0.225
			l0.213-0.416l0.056-0.236l-0.011-0.281l-0.168-0.281l-0.146-0.336l-0.169-0.867l-0.033-0.248l0.033-0.314l0.079-0.326l0.135-0.438
			l0.068-0.574l0.034-0.461l0.079-0.359l0.022-0.236l0.09-0.215l0.303-0.18l0.304-0.135l0.191-0.258l0.012-0.113l-0.101-0.246
			l-0.169-0.236l-0.157-0.158l-0.349-0.281l-0.236-0.27l-0.146-0.293l-0.067-0.494l0.045-0.416l0.045-0.293l0.045-0.518l0.033-0.484
			l0.113-0.246l0.056-0.281l0.022-0.146l0.102-0.213l0.202-0.158l0.248-0.248l0.146-0.146l0.169-0.381l0.034-0.26l-0.011-0.348
			l-0.09-0.607l-0.27-0.799l-0.135-0.506l-0.213-0.709l-0.124-0.572l-0.068-0.529l0.011-0.607l0.045-0.371l0.101-0.236l0.034-0.529
			l0.011-0.674l-0.112-0.496l-0.101-0.246l-0.034-0.17l-0.079-0.021l-0.146,0.021l-0.146,0.023l-0.337,0.012l-0.473,0.066h-0.551
			l-0.506-0.066l-0.518-0.068l-0.247,0.033l-0.484,0.146l-1.799,0.09l-1.293,0.08l-2.002,0.1l-2.463,0.125l-2.081,0.111
			l-2.812,0.191l-2.755,0.135l-1.237,0.068l-1.372,0.393l-1.811,0.484l-2.205,0.619l-0.011,0.078l0.045,0.066l0.248,0.113
			l0.674,0.293l0.967,0.449l0.506,0.236l0.618,0.395l0.417,0.281l0.394,0.27l0.371,0.371l0.292,0.27l0.124,0.258l0.079,0.236
			l0.045,0.305l-0.057,0.742l-0.022,0.686l-0.067,1.35l-0.045,0.844l-0.067,0.539l-0.113,0.451l-0.168,0.426l-0.315,0.709
			l-0.495,1.057l-0.203,0.586l-0.18,0.719l-0.022,0.238l0.011,0.225l0.045,0.201l0.112,0.371l0.067,0.383l0.011,0.484l0.079,0.471
			l0.18,0.607l0.079,0.574v0.473l-0.034,0.393l-0.281,1.002l-0.304,1.057l-0.304,0.867l-0.191,0.707l-0.158,0.496l-0.135,0.518
			l-0.135,0.764l-0.135,0.438l-0.236,0.451l-0.303,0.506l-0.225,0.439l-0.36,0.572l-0.372,0.721l-0.404,0.662l-0.484,0.654
			l-0.708,0.787l-0.529,0.662l-0.371,0.562l-0.405,0.562l-0.112,0.26l-0.281,0.607l-0.394,0.605l-0.326,0.383l-0.292,0.248
			l-0.461,0.359l-0.281,0.215l-0.326,0.201l-0.596,0.305l-0.641,0.393l-0.438,0.305l-0.495,0.438l-0.439,0.395l-0.416,0.291
			l-0.461,0.271l-0.382,0.246l-0.259,0.09l-0.349,0.068l-0.281,0.045l-0.135,0.09l-0.078,0.135v0.135l0.112,0.158l0.337,0.326
			l0.236,0.18l0.416,0.529l0.213,0.303l0.203,0.146l0.202,0.248l0.158,0.145l0.09,0.113l0.045,0.158l-0.034,0.111l-0.135,0.113
			l-0.101,0.111l-0.146,0.125l-0.112,0.113l-0.056,0.078l-0.09,0.246l-0.067,0.135l-0.157,0.113l-0.124,0.135l-0.056,0.113v0.135
			l0.045,0.078l0.067,0.158l0.022,0.18l-0.012,0.102l-0.078,0.201l-0.203,0.271l-0.067,0.123v0.326l-0.045,0.539l-0.022,0.574
			l0.067,0.449l0.146,0.598l0.067,0.449l-0.056,0.246l-0.022,0.158v0.191l0.09,0.156l0.067,0.236l0.023,0.416l0.011,0.146
			l-0.045,0.236l-0.146,0.361l-0.157,0.527l-0.079,0.236l-0.011,0.18l0.022,0.135l0.225,0.293l0.213,0.314l0.304,0.395l0.203,0.248
			l0.247,0.225l0.281,0.246l0.214,0.236l0.124,0.123l0.079,0.193v0.146l-0.023,0.123l-0.067,0.09l-0.033,0.078l0.011,0.281
			l0.045,0.225l-0.034,0.416l0.011,0.316l0.057,0.404l0.022,0.584l0.034,0.227v0.234l-0.135,0.428l-0.079,0.383l-0.033,0.338
			l-0.034,0.201l-0.011,0.248l0.022,0.135l0.079,0.236l0.236,0.248l0.225,0.236l0.315,0.336l0.382,0.463l0.427,0.336l0.236,0.18
			l0.292,0.17l0.146,0.168l0.09,0.168l0.09,0.248l0.023,0.18l-0.011,0.203l0.011,0.246v0.158l0.033,0.236v-0.012l0.293-0.246
			l0.225-0.125l0.372-0.168l0.348-0.113l0.371-0.123l0.518-0.18l0.225-0.068l0.304-0.111l0.259-0.068l0.304-0.09l0.349-0.111
			l0.405-0.248l0.607-0.26l0.213-0.18l0.405-0.18l0.326-0.135l0.372-0.09l0.427-0.033l0.518-0.057l0.27-0.012l0.191,0.078
			l0.259,0.035l0.45,0.01l0.427-0.055l0.349-0.023l0.293-0.078l0.562-0.236l0.349-0.17l0.518-0.201l0.652-0.248l0.326-0.18
			l0.584-0.371l0.259-0.201l0.461-0.248l0.439-0.18l0.506-0.225l0.573-0.193l0.551-0.178l0.36-0.113l0.652-0.18l0.281-0.068
			l0.203-0.066l0.236-0.191l0.248-0.236l0.394-0.449l0.18-0.26l0.203-0.506l0.135-0.428l0.158-0.348l0.157-0.428l0.034-0.26
			l0.236-0.605l0.18-0.385l0.326-0.527l0.248-0.303l0.258-0.395l0.192-0.236l0.236-0.156l0.529-0.248l0.483-0.158l0.292-0.068
			l0.483-0.09l0.652-0.225l0.787-0.234l0.438-0.135l0.45-0.236l0.236-0.158l0.371-0.293l0.214-0.168l0.18-0.191l0.146-0.236
			l0.191-0.494l0.067-0.506l0.079-0.732l0.067-0.527l0.011-0.934l0.09-0.596l0.112-0.475l0.18-0.324l0.135-0.225l0.146-0.227
			l0.259-0.191l0.405-0.246l0.708-0.35l0.641-0.258l0.619-0.236l0.416-0.248l0.259-0.248l0.382-0.281l0.248-0.314l0.248-0.326
			l0.225-0.584l0.236-0.619l0.18-0.865l0.067-0.406L-306.634,340.285"/>
		<path id="Karachi_1_" style="fill:#CCCCCC;stroke:#FFFFFF;stroke-width:1.15;" d="M-306.634,340.285L-306.634,340.285
			l-0.033,0.371l-0.067,0.416l-0.18,0.867l-0.236,0.605l-0.225,0.562l-0.248,0.361l-0.248,0.27l-0.382,0.293l-0.259,0.281
			l-0.416,0.246l-0.619,0.248l-0.641,0.248l-0.708,0.381l-0.405,0.236l-0.259,0.203l-0.146,0.18l-0.135,0.248l-0.18,0.281
			l-0.112,0.471l-0.09,0.631l-0.011,0.934l-0.067,0.527l-0.079,0.721l-0.067,0.506l-0.191,0.494l-0.146,0.26l-0.18,0.146
			l-0.214,0.213l-0.371,0.248l-0.236,0.191l-0.45,0.213l-0.438,0.123l-0.787,0.236l-0.652,0.191l-0.483,0.09l-0.292,0.068
			l-0.483,0.201l-0.529,0.203l-0.236,0.18l-0.192,0.236l-0.258,0.404l-0.248,0.281l-0.326,0.553l-0.18,0.348l-0.236,0.629
			l-0.034,0.248l-0.157,0.428l-0.158,0.371l-0.135,0.449l-0.203,0.496l-0.18,0.236l-0.394,0.449l-0.248,0.248l-0.236,0.156
			l-0.203,0.068l-0.281,0.068l-0.652,0.201l-0.36,0.111l-0.551,0.158l-0.573,0.213l-0.506,0.215l-0.439,0.18l-0.461,0.248
			l-0.259,0.18l-0.584,0.371l-0.326,0.18l-0.652,0.248l-0.518,0.168l-0.349,0.203l-0.562,0.236l-0.293,0.078l-0.349,0.021
			l-0.427,0.057l-0.45-0.01l-0.259-0.035l-0.191-0.078l-0.27,0.012l-0.518,0.055l-0.427,0.035l-0.372,0.113l-0.326,0.133
			l-0.405,0.158l-0.213,0.191l-0.607,0.248l-0.405,0.246l-0.349,0.125l-0.304,0.078l-0.259,0.057l-0.304,0.111l-0.225,0.068
			l-0.518,0.203l-0.371,0.123l-0.348,0.09l-0.372,0.18l-0.225,0.135l-0.293,0.248v0.023l-0.18,0.189l-0.225,0.248l-1.676,0.709
			l-0.427,0.719l-0.371,0.709l0.573,0.822l0.248,0.268l0.483,0.699l0.427,1.021l0.416,0.945l0.372,0.688l0.427,0.707l0.304,0.562
			l0.09,0.359l0.214,0.26l-0.011,0.135l-0.034,0.146l-0.248,0.201l-0.191,0.158v0.146l0.72,1.406l0.529,1.125l0.124,0.123
			l0.405,0.236l0.382,0.18l0.158,0.057l0.168-0.057l0.427-0.158l0.237-0.066l0.213,0.01l0.169,0.023l0.854,0.359l0.394,0.158
			l0.945,0.023l0.776,0.156l1.372,0.359l0.765,0.293l0.562,0.236h0.079h0.102l0.821-0.393l1.451-0.721l0.529-0.236l0.348-0.168
			l0.158,0.012l0.248,0.055l0.258,0.17l0.214,0.293l1.023,1.719l0.371,0.598l0.102,0.213l0.079,0.021l0.112-0.057l0.259-0.168
			l0.135,0.012l0.09,0.18l0.404,0.709l0.079,0.01l0.079,0.012l0.394-0.201l0.236-0.191h0.079l0.034,0.111l0.731,1.396l0.079,0.123
			l0.09,0.045l0.405-0.146l2.362-0.697l2.497-0.709l0.472-0.123l0.023-0.102l-0.012-0.078l-0.247-0.293l-0.394-0.551l-0.708-0.855
			l-0.337-0.338v-0.133l0.044-0.068l0.102-0.078l1.507-0.709l2.407-1.158l0.944-0.473l0.112-0.012l0.09,0.012l0.191,0.27
			l1.192,1.676l1.091,1.619l0.45,0.451l0.371,0.449l0.236,0.631l0.191,0.482l0.236,0.326l0.371,0.371l0.292,0.383l0.146,0.381
			l-0.102,0.428l-0.427,0.664l-0.731,0.719l-0.54,0.518l-0.517,0.35l-0.191,0.201l-0.281,0.709l-0.472,0.721l-0.517,0.629
			l-0.708,0.732l-0.754,0.662l-0.787,0.574l-0.168,0.281l-0.427,0.449l-0.957,0.777l-0.664,0.641l-0.416,0.482l-0.248,0.371
			l-0.113,0.473l-0.259,0.957l-0.056,1.078l-0.033,0.945l0.067,0.553l0.259,1.111v0.012l3.216-0.281l0.191-0.033l0.349-0.439
			l1.023-1.506l0.337-0.529l0.146-0.201l-0.09-0.564l-0.056-0.359l0.067-0.111l0.18,0.066l0.81,0.518l1,0.451l0.754,0.303
			l0.416,0.191l0.687,0.428l0.618,0.236l0.54,0.1l0.81,0.102l0.731,0.203l0.394,0.248l0.428,0.213l0.562,0.102l0.753,0.518
			l1.058,0.674l0.664,0.416l0.472,0.236l1.248-0.258l2.756-0.562l2.103-0.439l1.529-0.293h0.124l0.124,0.023l0.045,0.102
			l0.439,1.643l0.089,0.449l0.09,0.078l0.168,0.033l0.743-0.236l1.001-0.18l0.483-0.102l0.102,0.057l0.078,0.236l0.27,1.125
			l0.382,1.676l0.169,0.99l0.404,2.17l0.079,0.27l0.247,0.236l0.642,0.416l1.057,0.709l0.788,0.539l0.18,0.113l0.124-0.033
			l0.507-0.598l0.663-0.707l0.574-0.305l0.833-0.189l1.664-0.439l1.181-0.27l0.922-0.113l0.788-0.146l0.483-0.102l0.821-0.459
			l0.866-0.428l1.035-0.383l0.405-0.092l0.585-0.043l1.462-0.383l0.112-0.102l0.056-0.203l-0.247-1.113l-0.203-0.854l0.011-0.182
			l0.112-0.09l0.484-0.146l0.889-0.145l1.237-0.146l1.384-0.135l0.528-0.125l1.395-0.381l0.359-0.137l0.012-0.111l-0.394-1.371
			l-0.438-1.643l-0.349-1.328l0.011-0.123l0.146-0.135l0.405-0.045l0.203,0.045l0.326,0.248l1.642,1.305l1.709,1.359l0.607,0.494
			l0.146,0.092l0.135-0.08l0.394-0.438l1.451-1.643l1.541-1.742l0.056-0.158l-0.022-0.123l-0.461-0.316l-1.215-0.967l-0.079-0.18
			l0.067-0.113l0.518-0.719l0.168-0.102l0.214-0.111l1.293-0.248l3.318-0.709l0.146-0.111l0.033-0.113l-0.112-0.383l-0.382-1.811
			l-0.067-0.572l0.067-0.236l0.405-1.271l0.213-1.092l0.045-0.246l-0.034-0.092l-0.09,0.012l-0.146,0.102l-0.09,0.057l-0.168,0.012
			l-0.27-0.236l-0.743-0.822l-0.259-0.527l-0.101-0.428l-0.09-0.045l-0.304,0.012l-2.935,0.572l-2.575,0.506l-2.272,0.416
			l-1.035,0.203h-0.113l-0.079-0.203l-0.382-1.473l-4.712,0.945l-2.901,0.629l-2.159,0.395l-0.315,0.057l-0.079-0.035l-0.057-0.168
			l-0.371-2.148l-0.529-3.127l-0.607-3.373l-0.697-3.824l-0.169-0.99l-0.034-0.258l0.045-0.102l0.102,0.057l0.574,0.326l2.035,1.203
			l1.204,0.652l0.956,0.395l1.204,0.314l1.114,0.258l1.293,0.383l1.451,0.496l0.708,0.393l0.742,0.449l0.9,0.518l0.799,0.236
			l0.798,0.236l0.495,0.068l0.753-0.057l1.282-0.225l0.979-0.068l1.338-0.146l0.843-0.033l1.012-0.023l0.562-0.156l0.112-0.078
			l-0.326-0.619l-0.899-1.271l-1.271-1.428l-1.462-1.463l-1.125-0.99l-0.495-0.426l-0.056-0.135l0.101-0.18l0.382-0.428l1.338-1.338
			l0.18-0.238l0.033-0.189l-0.067-0.158l-0.461-0.428l-0.112-0.055l-0.157,0.01l-0.461,0.236l-0.63,0.248l-0.135,0.012l-0.09-0.047
			l-0.09-0.246l-0.078-0.203l-0.012-0.135l0.068-0.156l0.337-0.215l0.833-0.539l0.371-0.281l0.202-0.057l0.304,0.111l0.27,0.104
			l0.101,0.078l-0.022,0.09l-0.169,0.18l-0.022,0.168l0.067,0.057l0.27,0.023h0.562l0.157-0.045l0.113-0.191l0.315-0.596
			l0.146-0.102l0.101,0.045l0.281,0.236l0.337,0.281l0.18,0.1l0.213-0.021l1.147-0.314l1.89-0.598l0.247-0.1l0.214-0.248l0.54-0.957
			l0.225-0.303l0.225-0.236l0.9-0.584l0.708-0.406l0.641-0.506l0.146-0.236l-0.057-0.213l-0.067-0.258l0.011-0.113l0.124-0.123
			l0.619-0.281l0.798-0.484l0.956-0.449l0.506-0.248l0.079-0.1l-0.011-0.182l-0.18-0.246l-0.09-0.238l0.023-0.246l0.089-1.496
			l0.034-1.688l0.09-0.428l0.056-0.189l0.168-0.092l0.765-0.033l1.428-0.057l1.204-0.1l0.146-0.047l0.089-0.123l0.034-0.719
			l-0.045-0.158l-0.135-0.045l-3.003,0.08l-2.497,0.055l-6.242,0.123l-4.24,0.113l-2.778,0.057h-0.899l-0.438,1.35l-0.372,0.955
			l-0.438,1.203l-0.236,0.688l-0.788,2.238l-0.72,2.146l-0.36,1.205l-0.326,0.752l-0.922,2.598l-0.124,0.418l-0.067,0.055
			l-0.18-0.055l-0.607-0.191l-1.26-0.146l-1.608-0.068l-0.899-0.09l-3.262-0.203l-4.195-0.225l-1.979-0.146l-1.372-0.078
			l-2.069-0.078l-0.371-0.057l-0.157-0.09l-0.068-0.27l-0.033-0.236l0.135-0.248l0.124-0.383l0.281-0.234l0.427-0.248l0.27-0.236
			l0.146-0.248v-0.236l-0.09-0.246l-0.034-0.35l0.034-0.326l0.034-0.258l-0.011-0.17l-0.181-0.234l-0.033-0.137l-0.011-0.191v-0.381
			l0.022-0.473l0.124-0.26l-0.034-0.201l-0.349-0.721l-0.045-0.246l-0.022-0.35l0.101-0.27l0.236-0.631l0.192-0.652l0.124-0.314
			l0.461-0.35l0.191-0.201l0.134-0.293l0.045-0.293l0.101-0.225l0.18-0.123l0.315-0.068l0.18-0.156l0.203-0.562l0.056-0.719
			l-0.034-0.822l0.034-0.168l0.203-0.102l0.348-0.078l0.113-0.102l0.157-0.293l0.112-0.494l0.102-0.293l0.18-0.314l0.102-0.236
			l0.011-0.236l0.068-0.102l0.067-0.066l0.214-0.023h0.236l0.146-0.021l0.203-0.068l0.135-0.191l0.09-0.416l-0.068-0.686
			l-0.022-0.236l0.079-0.135l0.641-0.721l1.237-1.371l0.495-0.607l0.124-0.158l-0.011-0.111l-0.18-0.215l-0.945-0.844l-0.18-0.156
			l0.011-0.068l0.124-0.213l0.169-0.191l0.629-0.754l1.249-1.383l0.888-1.068l0.439-0.506l0.09-0.102l-0.607-0.123l-0.495-0.057
			l-0.394,0.123l-2.542,0.473l-1.293,0.236l-4.768,0.832l-1.484,0.293h-0.248l-0.078-0.09l-0.057-0.225l-0.315-1.732l-0.079-0.506
			l-0.09-0.236l-0.708-1.203l-1.372-2.543l-0.315-0.539l-1.08-1.98l-0.079-0.033h-0.102l-0.551,0.236l-3.34,1.676l-4.015,1.99
			l-0.506,0.236l-0.102,0.012l-0.146,0.045l-0.596-0.697l-0.596-0.631l-0.102-0.033l-0.124,0.033l-0.855,0.609l-1.979,1.449
			l-0.067,0.09l-0.023,0.158l0.259,0.348l0.102,0.248v0.09l-0.045,0.078l-0.146,0.045l-0.584,0.023l-0.698,0.102l-0.27,0.123
			l-0.337,0.236l-0.641,0.664L-306.634,340.285"/>
		<path id="Karachi_2_" style="fill:#CCCCCC;stroke:#FFFFFF;stroke-width:1.15;" d="M-350.079,396.293L-350.079,396.293
			l12.866,3.645l2.362,1.371l11.01,11.809l3.374,2.475l2.216,1.17l15.216,7.77l1.653,0.135l1.585-1.449l0.552-2.318l-0.967-2.215
			l-4.353-2.35l-0.022-0.057l-1.406-1.125l-0.765-0.518l-0.787-1.26l-0.506-1.371l-0.292-1.248l-0.708-0.619l-0.664-0.305
			l-3.891-0.934l-0.146-0.246l-0.641-1.26l-0.157-0.371l-0.045-0.314l0.146-1.643l0.248-1.236l-0.034-0.787l0.068-0.822l0.18-1.057
			l0.011-0.686l-0.09-0.688l-0.135-0.551l-0.315-0.955l-0.191-0.934v-0.012l-0.259-1.102l-0.067-0.551l0.033-0.945l0.056-1.102
			l0.259-0.969l0.113-0.471l0.248-0.338l0.416-0.484l0.664-0.664l0.957-0.752l0.427-0.439l0.168-0.303l0.787-0.562l0.754-0.664
			l0.708-0.742l0.517-0.619l0.472-0.709l0.281-0.719l0.191-0.236l0.517-0.314l0.54-0.518l0.731-0.709l0.427-0.65l0.102-0.418
			l-0.135-0.393l-0.304-0.395l-0.371-0.393l-0.236-0.293l-0.191-0.484l-0.236-0.662l-0.371-0.439l-0.45-0.461l-1.091-1.598
			l-1.192-1.676l-0.191-0.281l-0.09-0.01l-0.112,0.01l-0.944,0.473l-2.407,1.137l-1.507,0.719l-0.102,0.068l-0.044,0.057v0.123
			l0.337,0.35l0.708,0.877l0.394,0.539l0.259,0.305l0.011,0.078l-0.034,0.09l-0.461,0.102l-2.508,0.719l-2.362,0.664l-0.394,0.123
			l-0.101-0.045l-0.079-0.09l-0.731-1.404l-0.034-0.092h-0.079l-0.236,0.146l-0.394,0.248l-0.079-0.012l-0.079-0.01l-0.404-0.744
			l-0.09-0.135l-0.124-0.012l-0.27,0.125l-0.112,0.057l-0.079-0.023l-0.102-0.168l-0.371-0.643l-1.023-1.676l-0.214-0.336
			l-0.258-0.123l-0.248-0.057l-0.158-0.012l-0.348,0.123l-0.529,0.26l-1.451,0.709l-0.821,0.416l-0.102,0.01l-0.079-0.01
			l-0.551-0.248l-0.776-0.26l-1.372-0.404l-0.776-0.113l-0.933-0.021l-0.405-0.191l-0.854-0.326l-0.158-0.021l-0.225-0.012
			l-0.237,0.066l-0.427,0.137l-0.168,0.033l-0.158-0.033l-0.382-0.158l-0.405-0.248l-0.124-0.09l-0.529-1.113l-0.708-1.406v-0.156
			l0.18-0.182l0.248-0.168l0.045-0.156l0.011-0.158l-0.225-0.248l-0.09-0.348l-0.304-0.562l-0.427-0.721l-0.372-0.652l-0.416-0.943
			l-0.427-1.023l-0.483-0.721l-0.248-0.246l-0.573-0.832l-0.248,0.156l-0.292,0.248l-0.45,0.338l-0.237,0.189l-0.584,0.213
			l-0.742,0.25l-0.562,0.055l-0.596,0.023l-0.27,0.045l-0.428,0.135l-0.427,0.146l-0.708-0.012l-0.326-0.057l-0.326-0.213
			l-0.214-0.236l-0.202-0.236l-0.438-0.248l-0.742-0.236l-0.619-0.123l-1.001-0.012l-1.113,0.023l-1.001,0.012l-0.844,0.033
			l-0.528,0.145l-0.54,0.248l-0.562,0.383l-0.394,0.248l-0.326,0.225l-0.359,0.09l-0.619,0.168l-0.765,0.361l-0.776,0.449
			l-0.619,0.236l-0.551,0.248l-0.438,0.123l-0.394,0.09l-0.551,0.213l-0.427,0.203l-0.529,0.27l-0.416,0.236l-0.259,0.236
			l-0.09,0.068l0.056,0.111l0.641,0.428l1.642,1.338l1,0.721l0.507,0.461l0.258,0.248l0.191,0.236l0.191,0.402l0.09,0.428
			l0.067,0.248l1.484,0.248l0.293,1.484l-1.687,1.676l0.225,0.246l0.394,0.238l0.551,0.18l0.81,0.123l0.405,0.057l0.225,0.111
			l0.079,0.191l0.067,0.17v0.078l-0.033,0.168l-0.304,0.371l-0.326,0.383l-0.102,0.236l0.045,0.236l0.191,0.27l0.326,0.271
			l0.371,0.291l0.146,0.158v0.18l-0.248,0.158l-0.697,0.438l-0.259,0.158l-0.034,0.191l0.056,0.145l0.18,0.236l0.079,0.09h0.101
			l0.495-0.145l0.73-0.215l0.158,0.021l0.382,0.047l1.519,0.303l2.035,0.293l2.002,0.359l0.877,0.18l0.888,0.158l0.9,0.033
			l0.776-0.012l0.765-0.045l0.911-0.201l0.708-0.236l0.956-0.473l0.225-0.021l0.18,0.066l0.45,0.439l0.292,0.414l0.281,0.643
			l0.158,0.797v0.619l-0.079,0.697l-0.158,0.676l-0.124,0.314l-0.157,0.248l-0.405,0.438l-0.697,0.855l-0.528,0.775l-0.438,0.721
			l-0.304,0.596l-0.247,0.641l-0.371,0.641l-0.237,0.271l-0.45,0.348l-0.517,0.258l-0.72,0.248l-0.979,0.281l-0.63,0.225
			l-0.753,0.227l-0.483,0.236l-0.54,0.055l-0.866,0.012l-0.687-0.146L-350.079,396.293"/>
		<path id="Karachi_3_" style="fill:#CCCCCC;stroke:#FFFFFF;stroke-width:1.15;" d="M-350.079,396.293L-350.079,396.293l0.27-0.033
			l0.675,0.145l0.877-0.01l0.54-0.057l0.483-0.248l0.753-0.213l0.63-0.238l0.979-0.27l0.72-0.246l0.517-0.248l0.45-0.348
			l0.236-0.281l0.372-0.652l0.236-0.619l0.315-0.596l0.438-0.721l0.529-0.809l0.697-0.82l0.394-0.439l0.169-0.248l0.124-0.281
			l0.146-0.697l0.079-0.674v-0.631l-0.146-0.787l-0.281-0.652l-0.292-0.404l-0.45-0.439l-0.181-0.066l-0.225,0.021l-0.956,0.473
			l-0.709,0.236l-0.911,0.191l-0.765,0.057l-0.776,0.01l-0.9-0.033l-0.888-0.168l-0.877-0.168l-2.002-0.361l-2.036-0.348
			l-1.529-0.248l-0.36-0.066l-0.168-0.023l-0.72,0.213l-0.495,0.113h-0.102l-0.089-0.068l-0.169-0.225l-0.056-0.146l0.034-0.191
			l0.248-0.156l0.708-0.439l0.236-0.168v-0.168l-0.135-0.158l-0.382-0.305l-0.315-0.258l-0.203-0.27l-0.033-0.236l0.089-0.236
			l0.337-0.393l0.304-0.373l0.034-0.168v-0.068l-0.068-0.168l-0.09-0.203l-0.213-0.1l-0.405-0.057l-0.821-0.123l-0.551-0.191
			l-0.394-0.236l-0.214-0.26l-0.315,0.293l-4.915,2.756l-1.563,1.664l-1.305,7.885l0.382,1.102l1.406-0.449l0.877-1.352l0.664-1
			l1.923-0.979l0.641,2.385l-1.35,4.127l1.766,2.947l1.991,0.629l1.113-2.439l1.799-1.059l2.969,0.09L-350.079,396.293"/>
		<path id="Karachi_4_" style="fill:#CCCCCC;stroke:#FFFFFF;stroke-width:1.15;" d="M-301.595,189.01L-301.595,189.01l-3.071,3.812
			l-3.396,2.98l-3.576,2.305l-2.508,2.004l-5.061,3.035l-5.375,3.184l-3.194,1.584l-2.823,2.014l-1.754,2.17l-1.125,2.633
			l-1.732,2.811l-3.61,5.523l-3.036,4.914l-1.721,2.643l-0.652,3.498l-0.349,3.037l-1.024,5.826l-0.337,4.564l1.339,3.824
			l1.383,4.803l0.213,1.922l-0.855,1.945l-3.643,4.252l-4.117,4.072l-5.162,4.701l-3.79,4.654l-5.421,5.387l-5.994,5.646
			l-5.117,5.512l-7.254,5.6l-3.419,1.889l-5.117,1.193l-7.996,1.057l-7.681,1.643l-7.231,1.451l-5.511,2.508l-3.419,1.754
			l-3.846,2.867l-4.004,3.016l-5.207,2.35l-4.78,1.934l-5.544,1.822l-2.755,1.553l-5.466,4.025l-5.128,4.836l-4.836,4.701
			l-4.993,4.285l-4.443,3.025l-4.701,3.723l-3.542,3.139l-3.352,3.418l-2.351,3.588l2.688-1.191l1.867,0.135l1.473,1.201
			l2.812-0.809l0.27,1.193l-4.893,5.566l-4.15,0.461l-4.003-1.451l-2.306,2.283l-2.699,0.754l-11.82,11.932l-0.641,5.117
			l-3.026,3.318l-0.236,1.811l2.936,2.08l6.758,1.844l1.462-0.033l4.116-0.123l4.442-0.967l11.303-4.318l6.017,0.111l2.608-3.127
			l8.21-2.305l2.283-0.09l5.612,3.127l2.429,0.369l7.839-1.191l6.872,1.418l3.396,0.709l3.937,0.078l1.608-0.832l3.104-4.207
			l2.744-2.182l8.075-3.115l5.016-0.383l3.981,0.957l12.438,6.635l11.269,4.893l2.294,1.508l26.092,17.15l1.136-1.439l-6.309-6.771
			l-5.038-8.109l-8.975-4.969l-1.462-0.451l-0.866-0.258l-5.128,0.381l-2.339-0.82l-3.07-2.879l-0.09-2.25l0.27-1.203l3.116-1.416
			l8.94-0.912l7.682-1.979l1.979,0.246l1.484,1.193l1.428,2.846l2.43,0.516l1.113-2.045l1.856-0.248l1.473-1.305l0.495,0.078
			l-0.067-0.293l-0.09-0.426l-0.191-0.371l-0.191-0.26l-0.259-0.225l-0.506-0.438l-1.001-0.777l-1.642-1.338l-0.641-0.426
			l-0.056-0.113l0.09-0.068l0.258-0.213l0.416-0.26l0.529-0.258l0.427-0.215l0.551-0.156l0.394-0.146l0.438-0.125l0.551-0.189
			l0.618-0.281l0.776-0.451l0.765-0.348l0.619-0.18l0.359-0.08l0.326-0.225l0.394-0.234l0.563-0.395l0.54-0.203l0.528-0.18
			l0.844-0.045l1.001-0.012l1.113-0.021l1.001,0.01l0.619,0.158l0.742,0.236l0.439,0.236l0.202,0.248l0.213,0.234l0.326,0.191
			l0.326,0.047l0.708,0.01l0.428-0.1l0.427-0.148l0.27-0.066l0.596-0.033l0.562-0.057l0.742-0.213l0.585-0.248l0.236-0.18
			l0.45-0.348l0.292-0.215l0.248-0.213l0.371-0.709l0.428-0.73l1.676-0.676l0.225-0.248l0.18-0.18l-0.034-0.213v-0.182l-0.012-0.225
			l0.012-0.225l-0.023-0.18l-0.089-0.236l-0.09-0.189l-0.146-0.158l-0.292-0.158l-0.236-0.201l-0.428-0.316l-0.382-0.461
			l-0.315-0.348l-0.225-0.236l-0.236-0.236l-0.079-0.236l-0.022-0.135l0.011-0.227l0.034-0.225l0.033-0.303l0.079-0.404l0.135-0.428
			v-0.236l-0.034-0.215l-0.022-0.584l-0.056-0.404l-0.011-0.326l0.033-0.416l-0.044-0.227l-0.012-0.279l0.034-0.068l0.067-0.09
			l0.022-0.111v-0.17l-0.079-0.18l-0.124-0.135l-0.213-0.236l-0.281-0.248l-0.248-0.213l-0.202-0.248l-0.304-0.381l-0.214-0.328
			l-0.225-0.281l-0.022-0.123l0.011-0.191l0.078-0.236l0.158-0.506l0.146-0.393l0.045-0.236l-0.011-0.135l-0.022-0.418l-0.067-0.234
			l-0.09-0.158v-0.191l0.023-0.146l0.056-0.258l-0.068-0.451l-0.135-0.596l-0.079-0.449l0.022-0.584l0.056-0.529v-0.326l0.056-0.135
			l0.203-0.26l0.079-0.201l0.011-0.102l-0.022-0.18l-0.067-0.168l-0.045-0.08v-0.111l0.056-0.125l0.124-0.146l0.157-0.111
			l0.067-0.113l0.09-0.246l0.056-0.078l0.112-0.092l0.146-0.102l0.102-0.145l0.135-0.125l0.034-0.123l-0.045-0.102l-0.09-0.146
			l-0.158-0.156l-0.202-0.227l-0.203-0.18l-0.214-0.258l-0.417-0.541l-0.236-0.213l-0.337-0.293l-0.112-0.189v-0.146l0.079-0.09
			l0.135-0.092l0.281-0.078l0.349-0.068l0.259-0.088l0.382-0.248l0.461-0.316l0.371-0.123l0.506-0.383l0.495-0.438l0.439-0.305
			l0.641-0.416l0.596-0.281l0.326-0.213l0.281-0.203l0.472-0.371l0.281-0.246l0.326-0.371l0.394-0.619l0.281-0.607l0.124-0.246
			l0.394-0.574l0.371-0.574l0.528-0.631l0.708-0.809l0.484-0.631l0.416-0.684l0.36-0.699l0.36-0.596l0.236-0.416l0.293-0.506
			l0.236-0.461l0.135-0.428l0.135-0.787l0.146-0.518l0.146-0.494l0.191-0.688l0.303-0.865l0.315-1.057l0.27-1.002l0.034-0.393
			v-0.473l-0.079-0.574l-0.18-0.629l-0.079-0.473l-0.011-0.484l-0.067-0.371l-0.112-0.371l-0.045-0.213l-0.011-0.215l0.022-0.246
			l0.18-0.709l0.202-0.584l0.495-1.08l0.315-0.709l0.168-0.449l0.113-0.439l0.067-0.539l0.045-0.832l0.068-1.35l0.033-0.697
			l0.045-0.721l-0.034-0.291l-0.09-0.248l-0.124-0.248l-0.281-0.293l-0.382-0.348l-0.394-0.281l-0.417-0.281l-0.618-0.383
			l-0.506-0.246l-0.967-0.463l-0.674-0.279l-0.248-0.148l-0.044-0.055l0.011-0.066l2.204-0.609l1.811-0.482l1.372-0.383l1.249-0.078
			l2.744-0.146l2.812-0.191l2.081-0.102l2.474-0.123l1.991-0.113l1.293-0.1l1.799-0.08l0.483-0.123l0.248-0.035l0.518,0.08
			l0.506,0.033l0.551,0.021l0.473-0.055l0.337-0.023l0.146-0.021l0.146-0.023l0.079,0.023l8.784,0.955l4.734-1.406l4.915-0.697
			l4.768,0.035l3.521,0.662l4.161,0.924l2.542-0.057l5.691-1.428l3.329-0.506l2.542-0.068l5.578,0.293l3.171-0.068l1.417-0.473
			l4.701-3.127l5.128-4.576l6.197-6.365l4.622-5.58l2.755-4.418l2.621-3.812l1.237-0.9l0.45-1.012l-0.372-1.879l-0.517-1.404
			l-3.812-5.861l-4.768-6.117l-3.464-4.859l-3.587-3.564l-5.196-3.633l-4.06-2.801l-4.015-1.201l-3.374-1.08l-2.586-1.834
			l-0.956,0.023l-0.63,0.449l-1.518,2.936l-2.294,3.385l-4.634,5.488l-3.745,2.822l-5.353,2.609l-0.799,0.012l-0.484-0.158
			l-1.945-1.676l-2.114-1.562l-4.206-2.361l-6.354-5.23l-4.431-4.656l-3.779-4.566l-2.834-4.555l-2.159-3.014l-0.833-1.271
			l0.102-0.82l2.992-1.35l4.397-2.26l7.873-3.645l5.679-2.002l5.522-2.014l5.207-2.17l2.182-1.496l0.281-1.281l-0.044-1.721
			l-0.866-2.609l-2.317-3.453l-6.376-5.949l-4.847-2.643l-3.048-0.518l-4.464-0.057l-1.62-0.82L-301.595,189.01"/>
	</g>
</g>
<g id="Layer_1_1_">
</g>
</svg>
