<?xml version="1.0" encoding="iso-8859-1"?>
<!-- Generator: Adobe Illustrator 16.0.4, SVG Export Plug-In . SVG Version: 6.00 Build 0)  -->
<!DOCTYPE svg PUBLIC "-//W3C//DTD SVG 1.1//EN" "http://www.w3.org/Graphics/SVG/1.1/DTD/svg11.dtd">
<svg version="1.1" xmlns="http://www.w3.org/2000/svg" xmlns:xlink="http://www.w3.org/1999/xlink" x="0px" y="0px"
	 width="10.455px" height="8.423px" viewBox="0 0 10.455 8.423" style="enable-background:new 0 0 10.455 8.423;"
	 xml:space="preserve">
<g id="Layer_66">
	<g id="Layer_71">
		<path id="Rahim_Yar_Khan" style="fill:#CCCCCC;stroke:#FFFFFF;stroke-width:1.07;" d="
			M9.905,4.078L9.905,4.078L9.838,4.033L9.643,3.994L9.558,4.009L9.405,4.054L9.201,4.158L8.902,4.365L8.63,4.604L8.484,4.752
			L8.289,4.85L8.102,4.886L7.831,4.885l-0.22-0.069L7.349,4.588l-0.15-0.172L6.906,4.037L6.628,3.699L6.435,3.502L6.258,3.276
			L5.904,3.006l-0.481-0.37L4.958,2.401L4.822,2.363L4.661,2.354L4.474,2.384l-0.322,0.11L3.913,2.561L3.54,2.582L3.269,2.564
			L2.853,2.51l-0.123-0.07L2.662,2.35l-0.05-0.158L2.571,1.996L2.488,1.765l-0.558-0.79L1.653,0.606L1.509,0.545L1.355,0.56
			L1.211,0.574L0.854,0.678L0.65,0.797L0.59,0.873L0.556,1l-0.01,0.104l0.043,0.098l0.16,0.256l0.084,0.144l0.05,0.083l0.103,0.098
			L1.12,1.925l0.15,0.241l0.145,0.218l0.126,0.226l0.277,0.52l0.116,0.226L2.247,3.91l0.094,0.203L2.492,4.36l0.185,0.218
			l0.202,0.211l0.127,0.256l0.107,0.347l0.041,0.285l0.022,0.276l0.017,0.388l0.041,0.254L3.238,6.86l0.021,0.019l0.044,0.125
			l0.066,0.263l0.065,0.309l0.06,0.188l0.041,0.104l0.052,0.008l0.075-0.022l0.154-0.119l0.212-0.088l0.279-0.037L4.57,7.618
			l0.433,0.048l0.406,0.068l0.279,0.069L5.95,7.865l0.094-0.015l0.17-0.066L6.35,7.71l0.062-0.201l0.002-0.173L6.287,7.035
			L6.264,6.81l0.104-0.172l0.194-0.097l0.289-0.135l0.138-0.082L7.259,6.26l0.127,0.029l0.202,0.138l0.152,0.09l0.101,0.104
			L7.917,6.75l0.1,0.144L8.11,7.029l0.159,0.12l0.17,0.084l0.263,0.054l0.167-0.008l0.22-0.08l0.214-0.195l0.172-0.328l0.099-0.629
			l0.021-0.59L9.615,5.35l0.103-0.486l0.096-0.254l0.104-0.262L9.92,4.184L9.905,4.078"/>
	</g>
</g>
<g id="Layer_1">
</g>
</svg>
