<?xml version="1.0" encoding="utf-8"?>
<!-- Generator: Adobe Illustrator 16.0.4, SVG Export Plug-In . SVG Version: 6.00 Build 0)  -->
<!DOCTYPE svg PUBLIC "-//W3C//DTD SVG 1.1//EN" "http://www.w3.org/Graphics/SVG/1.1/DTD/svg11.dtd">
<svg version="1.1" id="Layer_1" xmlns="http://www.w3.org/2000/svg" xmlns:xlink="http://www.w3.org/1999/xlink" x="0px" y="0px"
	 width="300.896px" height="292.956px" viewBox="-128.635 -124.9 300.896 292.956"
	 style="enable-background:new -128.635 -124.9 300.896 292.956;" xml:space="preserve">
<g id="Layer_39">
	<path id="Ghotki" style="fill:#CCCCCC;stroke:#FFFFFF;stroke-width:1.15;" d="M166.812,12.985L166.812,12.985l-3.87-0.338
		l-6.635-3.32l-1.558-0.782l-4.998-2.107l-1.419-0.119l-3.817-0.756l-2.114-0.517l-1.922-0.418L139.2,4.203l-2.764-1.273
		l-1.976-0.284l-0.735-0.59l-5.236-4.382l-1.272-1.896l-0.769-0.729l-1.558-1.292l-2.558-0.842l-1.863-0.457l-5.236-1.571
		l-1.829-1.425l-0.729-0.55l-1.088-1.306l-1.604-2.333l-0.252-0.318l-0.955-1.146l-1.112-1.272l-0.425-1.153l-0.609-1.81
		l-0.676-0.954l-1.141-1.174l-1.498-1.518l-1.763-1.85l-1.393-1.684l-0.596-0.603l-1.837-1.551l-2.365-2.214l-2.168-2.049
		l-1.849-2.405l-2.545-3.115l-2.519-3.075l-4.109-5.534l-1.379-1.3l-0.53-1.08l-0.478-1.763l-0.497-1.027l-0.418-0.577l-0.662-0.947
		l-1.192-1.458L72.02-63.92l-0.662-0.464l-0.134-0.305v-0.417l0.292-1.16l0.206-1.08l0.364-1.645l-0.014-0.861l-0.226-0.855
		l-0.252-0.702L70.747-73l-0.08-0.483l0.345-1.213l-0.146-0.113l-0.478-0.033l-0.133,0.066l-0.597,0.988l-0.132,0.065l-0.14-0.026
		l-0.139-0.093l-0.033-0.252l0.047-0.609l0.305-0.948l0.987-1.941l1.279-0.67l0.146-0.418l0.729-0.688l0.987-1.419l0.987-0.987
		l0.146-0.683l-0.199-0.232L74.2-83.399l-0.895-0.868l-0.18-0.756L73.1-85.169l-1.558-1.591l-0.266-0.265l-0.178-0.457l-0.213-1.174
		v-0.457l-0.265-0.332l-0.066-0.603l0.013-0.583l-0.125-0.305l-1.272-0.929l-0.412-0.417l-0.417-0.584l-0.417-0.688l-0.166-0.332
		l-0.292-0.961l0.099-0.518l0.141-0.609l0.053-0.291l-0.066-0.425l0.179-0.57l0.935-0.94l0.054-0.206l-0.113-0.278l-0.417-0.523
		l-0.962-0.762l-0.065-0.186l0.099-0.219l0.246-0.352l0.643-0.802l0.517-0.703l0.08-0.411l-0.08-0.158l-0.292-0.08l-0.297,0.014
		l-0.623,0.179l-0.757,0.06l-0.98-0.126l-1.021-0.265l-0.623-0.292l-0.518-0.411l-0.583-0.729l-0.219-0.57l-0.14-0.935l-0.132-0.961
		l-0.278-0.987l-0.371-2.313l-0.08-0.166l-0.225-0.483l-0.266-1.319l0.086-0.941l0.166-0.291l0.45-0.464l-0.013-0.299l-0.093-0.569
		l0.079-0.345l0.663-0.835l0.146-0.425l0.702-0.994l-0.133-0.139l-0.464-0.365l-0.239-0.338l-0.013-0.186l0.404-0.49l0.205-0.358
		l-4.546,1.598l-3.832,1.113l-3.366,1.18l-1.803,0.782l-3.155-0.152l0.053,0.663l-0.026,1.106l-0.702,1.803l-0.649,1.717
		l-0.709,3.281l-0.133,0.723l-0.146,4.01l-0.677,4.268l-1.173,2.24l-1.458,1.307l-1.485,0.55l-1.126,0.053l-1.81-0.357l-1.154-0.57
		l-1.086-0.822l-0.623-0.914l-0.683-0.994l-0.518-0.875l-0.702-0.703l-1.021-0.609l-1.366-0.954l-0.86-0.186l-1.837,0.424
		l-0.928,0.557l-1.962,0.908l-1.296,0.683l-0.706,1.167l0.156,1.531l0.854,2.048l-0.013,1.186l-0.421,1.353l-0.925,0.504
		l-1.153,0.45l-0.659,0.1l-1.79-0.417l-1.882-0.451l-2.74-0.471l-2.967-0.324l-1.779-0.06l-1.898,0.251l-1.433,0.604l-1.017,0.809
		l-0.511,0.146l-0.351-0.053l-0.279-0.702l-0.427-1.286l-0.428-2.101l-0.451-1.79L1.455-95.74l-0.143-0.146l-0.378-0.338
		l-0.918-0.457l-2.091-0.623l-1.647-0.007l-0.991-0.006l-0.931,0.41l-1.724,0.306l-0.944-0.152l-1.438-0.922l-0.978-0.749
		l-1.309-0.703l-0.693-0.443l-0.802-0.815l-0.562-0.782l-0.285-0.497l-1.091-0.378l-2.303-0.312l-1.555,0.047l-0.447,0.252
		l-0.345,0.557l0.053,1.008l-0.076,1.558l-0.987,2.492l-0.872,1.696l1.217,0.975l0.795,1.06l0.991,1.008l0.683,1.24l0.511,1.231
		l0.401,1.811l0.562,0.742l0.951,0.755l1.005,0.312l1.892,0.066l1.379,0.152l2.585,0.617l3.327,0.782l1.438,0.357l0.828,0.357
		l0.338,0.511v0.609l-0.421,1.113l-1.508,1.982l-1.445,1.836l-0.52,1.425l-0.302,1.936l-0.066,0.862l-0.653,1.04l-0.357,0.987
		l-0.231,0.604v0.769l0.44,1.479l0.342,1.166v1.127l-0.239,1.067l-0.543,1.246L-9.484-62.6l-1.432,0.875l-1.438,0.352l-1.779-0.007
		l-1.438-0.457l-1.276-0.882l-1.08-1.425l-0.338-1.73l-0.143-4.096L-18.532-73l-0.354-1.246l-0.397-0.411l-1.8-0.517l-0.639-0.616
		l-0.563-1.551l-0.285-0.929l-0.693-0.702l-0.705-0.702l-1.227-0.962l-2.117-1.478l-1.645-0.716l-2.157-1.18l-0.99-0.345
		l-1.061,0.252l-0.54,0.418l-0.279,0.921l-0.006,0.616l-0.09,0.418l-0.083,0.179l-0.474,0.245l-0.889,0.417l-2.207,2.374
		l-2.091,3.095l-1.249,2.552l-1.315,3.4l-0.551,0.729h-0.474l-3.549-0.557l-1.807-0.557l-1.717-0.371l-1.839-0.55l-2.071-0.432
		l-1.438-0.861l-1.249-0.616l-1.438-1.101l-0.338-0.357l-0.55,0.119l-1.031,0.941l-0.348,0.146l-0.699-0.113h-0.699l-1.355,0.623
		l-0.692,0.61l-1.107,1.697l-1.379,1.995l-2.07,2.101l-2.28,2.452l-1.73,1.696l-0.616,0.398h-0.971l-2.466-0.438h-1.173
		l-0.753,0.245l-0.964,0.901l-0.557,1.1l-0.623,0.908l-0.898,0.398l-1.27,0.152l-2.883,0.06l-1.372,0.139l-1.024,0.425l-1.444,0.849
		l-1.177,1.278l-1.275,0.411l-1.898,0.411l-1.25,0.152l-0.421,0.08l-2.253,0.344l-2.016,0.153l-1.495,0.417l-1.802,0.557
		l-0.822,0.438l-1.067,1.027l-0.861,1.353l-0.835,0.742l-0.766,0.464l-0.474,0.364l-0.422,0.644l-0.477,0.438l-0.537,0.431
		l-0.778,0.702l-0.375,0.775l0.143,1.2l0.421,0.901l0.49,2.147l-0.013,0.689l-0.259,1.033l-0.713,1.207l-0.705,0.987l-0.726,1.505
		l-0.259,0.782l0.162,0.583l0.766,2.048l0.829,3.579l-0.027,1.279l-0.421,0.987l-0.835,0.67l-2.618,0.921l0.576,0.702l-0.576,0.922
		l-0.821,0.59l-0.421,0.53l-1.296,0.94l-2.459,0.896l-0.991,0.45l-0.428,0.491v0.218l0.349,0.272l0.557,0.146l1.275,0.232
		l0.726,0.271l0.972,0.723l0.954,1.743l0.587,2.048l0.188,0.854l0.033,0.584v0.536l-0.421,0.843l-0.557,0.529l-0.352,0.405
		l-0.212,0.755v0.418l0.192,1.106l0.597,1.418l0.235,0.968l0.245,1.113l-0.007,0.67l0.143,0.756l0.368,0.59l1.262,0.709l0.441,0.385
		l0.169,0.517v0.537l0.188,1.22l0.693,1.252l0.497,0.803l0.597,0.854l0.486,0.849l0.544,1.073l0.143,0.889l-0.007,0.709l0.123,0.683
		l0.474,0.895l1.176,1.65l0.766,1.472l0.116,1.027l0.292,1.432l0.395,1.962l0.732,1.272l1.275,1.358l0.978,0.975l1.121,0.922
		l1.418,1.551l0.732,1.173l0.55,1.252l0.616,1.863l0.918,1.259l1.276,1.233l1.929,1.087l1.322,0.569l0.814,0.392l0.143,0.352v0.331
		l-0.062,0.517l-0.292,0.663l-0.583,0.789l-0.576,0.709l-0.497,0.683l-0.584,0.703l-0.143,0.788l0.014,0.782l0.408,0.975
		l0.719,0.841l1.339,1.174l1.491,1.021l1.418,1.359l0.517,0.649l0.156,0.517l-0.305,0.65l-0.511,0.463l-0.583,0.438l-0.663,0.418
		l-0.802,0.271l-0.726,0.271l-0.809,0.398l-0.944,1.06l-1.826,1.916l-1.375,1.127l-0.584,0.259l-0.891-0.074l-0.677-0.132
		l-0.517-0.417l-0.299-0.412l-0.278-0.543l-0.42-0.358l-0.613-0.265l-1.117-0.066l-0.938-0.358l-1.094-0.808l-1.193-0.901
		l-0.991-0.702l-0.665-0.472l-0.843,0.093l-0.848,0.491l-1.024,0.895l-0.788,1.545l-0.421,1.404l-0.358,0.57l-0.991,0.351
		l-1.554,0.054l-2.161-0.292l-1.938-0.623l-1.289-0.358l-1.293-0.145l-0.453,0.198l-0.176,0.385l0.162,2.823l0.026,0.828
		l-0.318,1.438l-0.317,1.398l-0.163,1.114l0.021,1l0.265,0.483l0.176,0.353l0.48,0.589l0.172,0.298l0.889-0.145l2.642-0.199
		l1.852,0.106l4.011,0.935l1.898,0.821l2.019,1.107l2.773,2.167l1.819,1.948l2.824,2.685l3.028,3.56l3.046,4.043l0.421,0.676
		l0.672,0.749l0.216,0.278l0.422,0.424l0.348,0.703l0.589,1.238l2.32,2.977l2.273,2.976l2.459,3.534l3.434,3.625l3.943,3.943
		l3.924,2.638l2.728,1.153l4.487,0.868l2.797,0.557l4.98,0.471l5.512,0.14l3.751,0.37l2.071,0.232l1.263,0.491l0.895,0.775
		l0.898,1.166l1.328,1.101l1.316,0.901l1.021,0.583l1.396,0.146l3.814-0.425l4.921-0.172l4.689-0.04l3.579,0.033l5.054-0.113
		l1.475-0.345l1.167-1.378l0.712-0.338l1.555-0.094l1.61,0.134l0.882,0.516l0.44,0.763l0.007,0.67l-0.348,1.962l-0.948,2.889
		l-1.438,2.633l-1.275,2.16l-2.24,3.028l-1.08,1.286l-0.66,0.855l-0.317,0.245l-0.097,0.266v0.198l0.735,0.317l1.472,0.71
		l2.138,1.159l2.416,1.764l3.251,1.836l3.171,1.837l2.075,1.49l2.389,1.937l3.4,2.69l2.221,1.776l2.117,1.227l2.492,1.152
		l2.28,0.643l2.624,0.478l2.41,0.385l2.362,0.702l2.668,1.094l4.096,1.836l4.282,1.863l4.103,1.536l1.896,0.796l0.928,0.709
		l12.712,8.948l6.635-4.944l2.989-2.121l2.267-1.564l5.634-5.422l4.534-3.916l0.053-0.08l0.212-0.146l3.507-2.632l6.548-8.132
		l6.351-7.874l3.804-5.588l1.061-1.551l3.208-4.818l4.606-3.096l13.401-9.014l1.074-0.716l3.52-2.367l2.347-3.856l4.771-11.686
		l2.797-6.833l8.928-20.593l6.939-16.498l1.604-2.2l12.248-16.742l3.241-2.876l3.619-3.229L166.812,12.985"/>
</g>
<g id="Layer_1_1_">
</g>
</svg>
