<?xml version="1.0" encoding="iso-8859-1"?>
<!-- Generator: Adobe Illustrator 16.0.4, SVG Export Plug-In . SVG Version: 6.00 Build 0)  -->
<!DOCTYPE svg PUBLIC "-//W3C//DTD SVG 1.1//EN" "http://www.w3.org/Graphics/SVG/1.1/DTD/svg11.dtd">
<svg version="1.1" xmlns="http://www.w3.org/2000/svg" xmlns:xlink="http://www.w3.org/1999/xlink" x="0px" y="0px"
	 width="24.476px" height="19.557px" viewBox="0 0 24.476 19.557" style="enable-background:new 0 0 24.476 19.557;"
	 xml:space="preserve">
<g id="Layer_76">
	<g id="Layer_81">
		<path id="Nowshera" style="fill:#CCCCCC;stroke:#FFFFFF;stroke-width:1.07;" d="M5.782,18.878
			L5.782,18.878l0.091,0.092l0.005,0.005l0.061,0.043l0.128-0.002l0.067-0.023l0.116-0.041l0.176-0.068l0.106-0.006l0.123,0.045
			l0.173,0.062l0.023-0.008l0.108-0.039l0.009-0.002l0.17-0.029l0.119,0.019l0.047,0.007l0.037,0.004l0.097,0.006l0.117,0.051
			l0.05-0.002l0.104-0.008l0.14-0.121L7.921,18.8l0.146-0.071l0.137-0.107l0.074-0.09l0.086-0.051l0.036-0.021l0.069,0.069
			l0.149,0.115l0.076,0.006h0.002l0.203-0.062l0.058-0.052l0.065-0.059l0.165-0.119l0.048-0.021l0.17-0.088l0.176-0.034l0.053-0.015
			l0.193-0.053l0.038-0.057l0.013-0.061l0.062-0.034l0.175-0.117l0.193-0.129l0.042-0.026l0.179-0.109l0.28-0.11l0.234-0.071h0.027
			l0.221-0.008l0.178,0.076l0.148,0.086l0.16,0.087l0.034,0.019l0.103,0.033l0.125-0.027l0.222-0.045l0.09-0.018l0.191-0.051
			l0.106-0.008l0.04,0.015l0.013,0.005l0.021,0.012l-0.032,0.052l0.023,0.063l0.04,0.014l0.067,0.021l0.171,0.023l0.163-0.002
			l0.135-0.021l0.195-0.017l0.044-0.002l-0.003-0.01l0.158,0.008l0.068,0.064l0.06,0.064l0.059,0.139l0.055,0.15l0.063,0.072
			l0.053-0.008l0.054-0.031l0.112-0.076l0.058-0.043l0.006-0.006l0.107-0.11l0.126-0.142l0.081-0.109l0.074-0.104l0.052-0.104
			l0.057-0.07l0.107-0.125l0.074-0.071l0.03-0.078l0.012-0.076l-0.004-0.096l-0.003-0.07l0.027-0.119l0.025-0.071l-0.017-0.019
			l0.035-0.055l0.061-0.043l0.074-0.031l0.159-0.041l0.217-0.037l0.145-0.021l0.092-0.047l0.097-0.031l0.5-0.088l0.134-0.091
			l0.174-0.104l0.125-0.141l0.029-0.111l-0.029-0.078l-0.104-0.139l-0.124-0.176l-0.083-0.105l0.098-0.094l0.208-0.09l0.291-0.02
			l0.415,0.092l0.369,0.136l0.391,0.125l0.564,0.179l0.516,0.123l0.081,0.017l0.052-0.003l0.233,0.018l0.366,0.051l0.269,0.041
			l0.35,0.065l0.297,0.132l0.111,0.053l0.428,0.032l0.287-0.063l0.078-0.025l0.094-0.012l0.119-0.034l0.151-0.037l0.015-0.065
			l-0.043-0.076l-0.029-0.092l0.037-0.059l0.09-0.014l0.12,0.01l0.272,0.123l0.189,0.104l0.287,0.151l0.236,0.084l0.2,0.019
			l0.045-0.051l0.006-0.039l-0.006-0.039l-0.053-0.127l-0.079-0.129l-0.037-0.062l-0.115-0.243l-0.125-0.237l-0.025-0.094
			l0.013-0.195l0.006-0.066l0.031-0.202l0.015-0.099l0.009-0.111l0.011-0.133l0.021-0.207l0.012-0.194l0.011-0.183l0.007-0.176
			l0.018-0.148l0.018-0.145l-0.011-0.395l-0.053-0.217l-0.036-0.2l0.041-0.163l0.047-0.096l0.038-0.193l0.019-0.038l0.021-0.167
			l-0.034-0.131l-0.088-0.16l-0.1-0.156l-0.1-0.185l-0.062-0.284l0.031-0.143l0.05-0.108l0.042-0.218l-0.069-0.097l0.006-0.087
			l0.001-0.131l0.013-0.104l0.002-0.06l0.004-0.1l0,0l-0.043-0.146l-0.04-0.033l-0.028-0.112l0,0l-0.026-0.03l-0.006-0.054
			l0.003-0.059l0.014-0.065l0.04-0.08l0.019-0.04l-0.021-0.08L23.11,9.076l0.006-0.081l-0.021-0.159l-0.05-0.158l-0.077-0.16
			l-0.176-0.273l-0.024-0.048l-0.012-0.016l-0.051-0.104l-0.095-0.114l-0.077-0.131L22.476,7.68l-0.123-0.163L22.25,7.428
			l-0.063-0.107l0.023-0.037l0.027-0.072l0.004-0.007L22.2,7.17l0.032-0.109l0.034-0.098l0.026-0.05l0.041-0.042l0.071-0.061
			l0.046-0.017l0.062-0.016l0.074-0.023l0.044-0.065l0.034-0.037l0.052-0.079l0.05-0.048l0.046-0.016l0.052-0.011l0.062-0.037
			l0.005-0.06l0.04-0.066l0.039-0.064l0.026-0.043l0.039-0.005l0.027,0.1V6.268l0.009-0.054l0.031-0.034l0.052-0.032l0.01-0.006
			l0.052-0.029l0.051-0.034l0.018-0.053l0.012-0.051L23.336,5.91l0.002-0.068L23.329,5.8l-0.003-0.016l-0.007-0.05l0.006-0.042
			l0.003-0.044l-0.001-0.066l-0.001-0.091l0.003-0.053l0.016-0.106l0.009-0.058l0.013-0.048l0.015-0.072l0.001-0.084l-0.006-0.053
			L23.373,4.97l-0.008-0.043l-0.008-0.066l-0.006-0.056l-0.008-0.06l0.004-0.07l0.002-0.049l0.006-0.084l0.006-0.054l0.02-0.047
			l0.06-0.19l0.033-0.054h0.001l0.002-0.006l0.025-0.056l0.025-0.055l0.044-0.03l0.014-0.003l0.073-0.074l0.001-0.046l-0.002-0.008
			l-0.017-0.064l-0.003-0.05l0.02-0.038l0.025-0.04l0.024-0.051l0.014-0.054l0.001-0.089l0.01-0.06l0.018-0.067l0.013-0.043
			l0.021-0.067L23.8,3.247l0.02-0.052l0.001-0.003l0.023-0.045l0.011-0.043L23.87,3.05l0.001-0.003l0.024-0.048L23.88,2.954
			l-0.005-0.009l0,0l-0.02-0.028l-0.021-0.056l-0.012-0.053L23.774,2.76l-0.133,0.004l-0.007,0.002h-0.052l-0.164,0.048L23.387,2.82
			l-0.03,0.035L23.333,2.89l-0.057,0.037l-0.005,0.002l-0.051,0.025L23.123,2.97l-0.052,0.006l-0.087-0.001l-0.057-0.011
			l-0.051-0.022l-0.099-0.05l-0.092-0.038l-0.028-0.009h-0.002l-0.06-0.011l-0.083-0.022l0,0L22.497,2.81l-0.084-0.008L22.361,2.79
			l-0.008-0.019l-0.013-0.029l-0.027-0.06l-0.055-0.044l-0.057-0.026l-0.061-0.013l-0.069-0.008l-0.094-0.014l-0.041-0.006
			l-0.038-0.018l-0.041-0.02L21.842,2.55l-0.003,0.003l-0.042,0.03l-0.001,0.001l-0.061,0.018l-0.043,0.004l-0.008-0.002
			l-0.044-0.013l-0.052-0.035l-0.02-0.011l-0.071-0.021l-0.082,0.004l-0.267,0.004l-0.078-0.024l-0.067-0.022l-0.035-0.023
			l-0.066-0.056l-0.11-0.022l-0.021,0.014l-0.015,0.018l0.002,0.021l0,0l0.003,0.072l-0.003,0.068l0.003,0.055l-0.026,0.028
			l-0.021,0.02L20.656,2.65h-0.005l-0.003-0.004l-0.02-0.011L20.594,2.6l-0.079-0.049l-0.048-0.036l-0.1-0.046h-0.06l-0.039,0.004
			l-0.303,0.036l-0.068,0.012l-0.051,0.044l-0.012,0.009l-0.018,0.072l-0.009,0.065l-0.012,0.062l-0.003,0.012v0.001l-0.021,0.073
			l-0.021,0.074l-0.019,0.053l-0.025,0.083l-0.024,0.045l-0.03,0.029L19.634,3.16l-0.045,0.017l-0.105,0.019l-0.071-0.001
			l-0.165-0.008l-0.113-0.004h-0.078l-0.091,0.005l-0.102-0.002l-0.122-0.053l-0.085-0.03l-0.063-0.021L18.484,3.08l-0.088,0.005
			l-0.091-0.04l-0.021-0.009l0,0l-0.189-0.057L17.967,2.93l-0.062-0.027l-0.04-0.01l-0.058-0.01l-0.059-0.006L17.63,2.88
			l-0.11,0.005l-0.099,0.007l-0.119,0.005l-0.095,0.011l-0.079,0.013l-0.074,0.011l-0.117,0.025l-0.111,0.028l-0.034,0.007H16.79
			l-0.013,0.004l-0.321,0.113l-0.184,0.038l-0.069,0.042l-0.05,0.01l-0.092-0.013L16,3.196L15.885,3.17l-0.052-0.02l-0.011-0.007
			l-0.049-0.032l-0.064-0.038l-0.067-0.028l-0.099-0.029l-0.078-0.029l-0.048-0.002l-0.085,0.006l-0.096,0.003l-0.089,0.007
			l-0.064,0.001l-0.044-0.03l-0.035-0.08l-0.002-0.037L15,2.78l0.006-0.054l0.013-0.042l0.017-0.047l0.024-0.033l0.045-0.041
			l0.057-0.056l0.034-0.041l0.022-0.037l0.014-0.034L15.25,2.35l0.006-0.069L15.19,2.249h-0.087h-0.109l-0.061-0.013l-0.1-0.024
			l-0.118-0.066L14.68,2.112l-0.067-0.115L14.586,1.92l-0.003-0.054l0.009-0.06l0.017-0.06l0.017-0.052l0.023-0.044V1.568
			l0.061-0.056l0.004-0.044L14.66,1.346l-0.052-0.061l-0.03-0.035l-0.026-0.029l-0.029-0.029l-0.028-0.011l-0.02-0.04l-0.02-0.033
			l-0.016-0.051l-0.018-0.061l-0.024-0.057l-0.025-0.043L14.34,0.875l-0.031-0.003l-0.025-0.003l-0.09-0.004l-0.062-0.007
			l-0.066-0.006L13.99,0.845l-0.079-0.016l-0.086-0.017l-0.116-0.007l-0.095-0.012L13.54,0.792l-0.003,0.02L13.52,0.845
			l-0.021,0.024l-0.079,0.016l-0.047-0.003l-0.087-0.015l-0.07-0.012l-0.065-0.006l-0.084,0.023l-0.091,0.013l-0.084,0.023
			l-0.096,0.025l-0.117,0.019l-0.092,0.015l-0.081,0.007l-0.053-0.019L12.37,0.947L12.31,0.919l-0.108-0.022l-0.104-0.026
			l-0.108-0.025l-0.079-0.019l-0.085-0.006l-0.068,0.007L11.61,0.794l-0.072-0.026l-0.11-0.043l-0.095-0.04l-0.098-0.021
			l-0.13-0.012l-0.07-0.007l-0.063-0.021l-0.083-0.038l-0.021-0.011L10.541,0.67l-0.399,0.074l-0.104,0.017L9.959,0.776L9.822,0.815
			L9.738,0.839L9.6,0.865l-0.111,0.01L9.411,0.893L9.253,1.104L9.107,1.297L8.923,1.541L8.717,1.887L8.551,2.146L8.419,2.367
			l-0.15,0.206L8.126,2.846L8.003,3.05L7.894,3.226L7.788,3.367L7.711,3.492L7.624,3.624L7.533,3.767l-0.06,0.107l-0.05,0.085
			L7.348,4.025L7.261,4.109L7.217,4.251L7.34,4.353l0.047,0.07l-0.15,0.021L7.113,4.423L6.935,4.436l-0.2,0.02L6.638,4.454
			L6.565,4.427L6.51,4.363L6.411,4.267l-0.05-0.059L6.307,4.103L6.241,3.988l-0.053-0.12L6.179,3.75L6.135,3.59L6.099,3.461
			L6.086,3.339l-0.012-0.09L6.052,3.11L6.03,3.047l-0.071-0.03L5.848,2.996L5.771,2.97L5.635,2.913L5.496,2.824L5.404,2.756
			L5.339,2.705L5.262,2.674L5.147,2.639L5.059,2.602L4.97,2.572L4.91,2.554L4.805,2.531L4.7,2.5L4.608,2.472L4.453,2.43L4.366,2.424
			l0.025,0.052l0.021,0.051v0.038l-0.07-0.03L4.176,2.43L4.106,2.406L3.965,2.371l-0.098-0.01L3.58,2.341L3.47,2.326l-0.3,0.105
			L3.124,2.425L3.041,2.436L2.978,2.439H2.903L2.828,2.456L2.743,2.465H2.659L2.55,2.423L2.482,2.378L2.408,2.323L2.366,2.29
			l-0.05,0.007L2.163,2.392L2.164,2.46l0.001,0.056L2.159,2.575L2.11,2.576L2.059,2.543L2.018,2.509l-0.05-0.043l-0.021-0.03
			L1.913,2.457L1.851,2.485L1.749,2.494L1.632,2.463l-0.16-0.001L1.33,2.488L1.188,2.525L1.119,2.578L1.055,2.753l-0.04,0.146
			L0.979,3.021L0.968,3.112L0.963,3.166l0.003,0.108l0.002,0.132l0.073,0.087L1.14,3.57l0.06,0.076l0.016,0.131l0.034,0.074
			l0.044,0.037l0.055,0.041l0.057,0.045l0.045,0.044l0.026,0.034l0.019,0.051l-0.06,0.055L1.402,4.175L1.309,4.216L1.182,4.275
			l-0.101,0.09L1.035,4.409L0.997,4.465l0.054,0.001l0.088,0.036l0.032,0.075l0.044,0.095l0.088,0.082l0.043,0.049l0.044,0.08
			l0.014,0.071l0.013,0.072L1.479,5.05l0.127,0.118l0.01,0.053l0.009,0.034l0.015,0.03l0.016,0.022l0.023,0.015L1.71,5.321
			l0.037-0.003L1.881,5.33l0.072,0.041l0.028,0.04l0.03,0.051L2.02,5.506L1.922,5.51L1.806,5.516L1.717,5.568l-0.054,0.08
			L1.594,5.771l-0.087,0.11L1.41,5.988L1.353,6.041l0.07,0.014l0.08,0.007l0.029,0.029l0.061,0.035l0.188,0.02l0.04,0.023
			l0.016,0.043l0.032,0.033l0.082,0.049l0.02,0.035L1.974,6.36L1.88,6.444L1.879,6.46L1.867,6.624l-0.053,0.02v0.001L1.81,6.646
			L1.8,6.65H1.785l-0.06,0.009L1.672,6.648H1.619L1.516,6.64L1.398,6.669L1.378,6.685L1.326,6.778L1.258,6.821L1.233,6.923
			l0.004,0.01L1.3,7.048l0.032,0.038l0.081,0.08L1.411,7.225l0.017,0.024L1.419,7.281l0.043,0.038L1.65,7.375l0.21,0.093
			l0.041,0.031l0.126,0.042l0.018,0.005L2.21,7.524l0.251-0.05l0.228-0.019l0.224-0.066l0.08-0.031l0.121,0.026l0.062-0.023
			L3.25,7.266l0.04-0.051l0.045-0.021l0.234-0.047L3.73,7.153l0.164-0.018l0.07-0.015L4.19,7.007l0.071-0.028l0.062-0.01
			L4.315,7.038l0.041,0.121L4.342,7.374V7.57L4.288,7.66L4.265,7.693L4.248,7.791L4.192,7.922v0.099L4.182,8.185L4.114,8.381
			L4.086,8.462L4.042,8.601L3.979,8.789l0.016,0.123l0.011,0.101l0.005,0.071l0.105,0.238l0.009,0.089l0,0l0.012,0.118L4.13,9.664
			l-0.001,0.03l-0.01,0.102L4.102,9.951l-0.028,0.078l-0.022,0.125l-0.021,0.107l-0.037,0.235l0.005,0.048l0.004,0.072L3.976,10.68
			l0.008,0.072l-0.012,0.105l-0.06,0.202l-0.001,0.006l0.032,0.094l0.062,0.145l0.065,0.104l0.169,0.138l0.064,0.199l-0.062,0.034
			l0.066,0.066v0.11L4.2,12.027L4.14,12.003l-0.174,0.003L3.843,12.09l-0.113,0.096l-0.019,0.031l-0.09,0.141l-0.092,0.084
			l-0.093,0.076L3.32,12.531L3.26,12.506l-0.053,0.049l-0.063,0.039l0.042,1.254l0.044,0.047l0.054,0.061l0.099,0.104l0.151,0.119
			l0.164,0.106l0.182,0.075l0.137,0.082l0.128,0.063l0.106,0.034v0.059l-0.069,0.065l-0.053,0.13l0.094,0.075l0.186,0.087
			l0.103,0.086l0.083,0.038l0.085,0.038l0.171,0.104l0.129,0.092l0.164,0.024l0.171-0.019l0.25-0.035l0.199-0.004l0.382,0.003
			l0.213,0.038l0.163,0.027l0.158-0.002l0.153-0.004l0.103,0.021l0.01,0.007l0.062,0.046l0.062,0.053l0.094,0.109l0.094,0.134
			l0.061,0.104l0.072,0.141l0.047,0.167l0.065,0.106l0.061,0.078l0.028,0.08l0.029,0.129l0.038,0.104l0.031,0.062l0.033,0.053h0.053
			l-0.03,0.052l-0.086,0.101l-0.083,0.1l-0.142,0.113l-0.188,0.137l-0.187,0.113l-0.136,0.125l-0.103,0.142l-0.129,0.125
			l-0.05,0.082l-0.121,0.101L6.38,18.062l-0.142,0.137L6.02,18.372L5.855,18.52l-0.081,0.215l0.004,0.039l0.012,0.099L5.782,18.878"
			/>
	</g>
</g>
<g id="Layer_1">
</g>
</svg>
