<?xml version="1.0" encoding="utf-8"?>
<!-- Generator: Adobe Illustrator 16.0.4, SVG Export Plug-In . SVG Version: 6.00 Build 0)  -->
<!DOCTYPE svg PUBLIC "-//W3C//DTD SVG 1.1//EN" "http://www.w3.org/Graphics/SVG/1.1/DTD/svg11.dtd">
<svg version="1.1" id="Layer_1" xmlns="http://www.w3.org/2000/svg" xmlns:xlink="http://www.w3.org/1999/xlink" x="0px" y="0px"
	 width="301.168px" height="185.392px" viewBox="-105.154 -64.604 301.168 185.392"
	 style="enable-background:new -105.154 -64.604 301.168 185.392;" xml:space="preserve">
<g id="Layer_34">
	<path id="Diamir" style="fill:#CCCCCC;stroke:#FFFFFF;stroke-width:1.15;" d="M-90.546-48.867L-90.546-48.867l0.211,0.499
		l0.222,0.401l0.155,0.111l0.451,0.628l0.395,0.53l0.79,0.976l0.335,0.565l0.562,0.679l0.044,0.663l-0.407,0.31l-0.307,0.54
		l-0.098,0.445l0.136,0.729l0.284,0.373l-0.066,0.631l0.095,0.546l0.025,0.417l-0.104,0.304l-0.345,0.258l-0.473,0.165l-0.783,0.312
		l-1.471,0.742l-0.966,0.679l-0.48,0.764l-0.426,0.31l-0.713,0.164l-0.966-0.041l-1.348-0.165l-1.297-0.186l-0.256,0.082
		l-0.518,0.151l-0.47,0.158l-0.228,0.05l-0.278,0.088l-0.281,0.101l-0.205,0.354l-0.193,0.609l-0.047,0.773l0.215,0.458l0.234,0.751
		l0.334,0.531l0.537,0.524l0.48,0.868l0.23,0.351l0.809,0.704l1.294,0.003l0.954,0.672l1.143,1.187l1.146,0.316l1.585,1.077
		l1.819,1.658l1.061,0.972l1.146,0.319l0.54-0.057l1.137,0.135l0.877-0.003l0.471,0.092l0.429,0.672l0.505,0.43l0.843,0.057
		l0.534-0.36l0.524-0.246l0.704-0.082l0.568-0.129l0.568-0.165l0.656-0.088l0.556,0.022l0.875-0.196l0.518-0.208l0.603,0.214
		l0.351,0.278l0.202,0.331l0.391,0.196l0.736,0.218l0.669,0.25l0.606,0.12l0.36,0.022l0.48-0.157l0.572-0.13l0.356-0.136l0.47-0.098
		l0.319,0.126l0.366,0.322l0.069,0.382l-0.073,0.615l0.202,0.49l0.334,0.631l0.085,0.318l0.796,0.499l0.417,0.351l0.164,0.464
		l0.249,0.426l0.165,0.461l0.161,0.909l0.338,0.657l0.467,0.932l0.299,0.259l0.291,0.344l0.451,0.36l0.265,0.152l0.234,0.142
		l0.6,0.205h0.338l0.565,0.181l0.486,0.205l0.568,0.12l0.606,0.246l0.42,0.111l0.284,0.486l0.079,0.307l-0.189,0.587l0.01,0.502
		l0.082,0.474l0.05,0.474l0.035,0.663l0.091,0.404l0.155,0.609l-0.025,0.376l-0.123,0.751l-0.016,0.452l-0.054,0.578l0.117,0.414
		l0.338,0.334l0.426,0.392l0.208,0.413l0.341,0.396l0.597-0.111l0.565-0.388l0.619-0.193l0.433-0.047l0.483,0.054l0.663-0.161
		l0.698-0.098l0.767-0.202l0.635-0.18l0.666-0.189l0.657-0.07l0.578-0.006l0.593-0.259l0.578-0.445l0.348-0.205l0.543-0.07
		l0.533,0.022l0.334,0.234l0.433,0.426l0.473,0.366l0.578,0.114l0.84,0.098l0.669-0.17l0.003-0.013l0.05-0.003l0.691-0.224
		l0.682-0.471l0.464-0.483l0.291-0.303l0.534,0.054l0.6,0.247l0.565,0.269l0.521,0.249l0.389,0.363l0.464,0.442l0.388,0.148
		l0.351,0.022l0.53,0.038l0.565-0.269l0.474-0.271l0.635-0.328l0.612-0.101l0.471-0.278l0.799-0.07l0.742-0.088l0.739-0.126
		l0.83-0.266l0.919-0.401l0.572-0.18l0.54-0.031l0.805-0.218l0.269,0.155l0.372,0.401l0.436,0.553l0.278,0.154l0.448,0.187
		l0.357,0.139l0.417,0.117l0.47,0.199l0.47,0.212l0.445,0.148l0.404,0.252l0.442,0.237l0.66,0.199l0.505,0.104l0.631-0.035
		l0.594-0.066l0.534-0.038l0.341-0.041l1.01-0.17l0.486-0.079l0.47-0.142l0.518-0.155l0.578-0.114l0.584-0.05l0.578-0.029
		l0.521-0.006l0.401,0.032l0.307,0.041l0.404,0.013l0.312,0.098l0.398,0.101l0.297,0.206l0.256,0.136l0.117,0.332l0.155,0.269
		l0.098,0.281l0.177,0.228l0.363,0.271l0.293-0.035l0.423-0.022l0.334-0.088l0.366-0.123l0.458-0.085l0.395-0.025l0.515,0.076
		l0.471,0.104l0.473,0.142l0.515-0.003l0.552-0.089l0.537-0.012l0.278,0.069l0.278,0.193l0.297,0.388l-0.136,0.338l-0.401,0.388
		l-0.003,0.293l-0.035,0.215L-9.44-1.898l-0.029,0.799l-0.066,0.502l0.066,0.562l0.107,0.293l0.066,0.357l0.202,0.568l0.039,0.373
		l0.211,0.891l-0.022,0.334l0.028,0.341l0.048,0.31l0.145,0.872l0.436,0.23l0.278,0.224l0.129,0.578L-7.881,5.74l-0.284,0.129
		L-8.578,5.92L-8.898,5.99l-0.334,0.098l-0.265,0.154L-9.876,6.52l-0.392,0.067l-0.329-0.029l-0.303-0.139l-0.23-0.038l-0.398,0.054
		l-0.489-0.076l-0.281-0.17l-0.395,0.028l-0.227,0.211l-0.152,0.329l-0.325,0.672l-0.549,0.54l-0.531,0.524l-0.524,0.452
		l-0.255,0.296l-0.3,0.231l-0.398,0.217l-0.312,0.08l-0.338,0.062l-0.486,0.016l-0.252,0.12l-0.247,0.256l-0.098,0.18l-0.11,0.379
		l-0.066,0.373l-0.092,0.354l-0.155,0.351l-0.154,0.294l-0.233,0.221l-0.212,0.208l-0.451,0.293l-0.016,0.284l0.01,0.3l-0.02,0.322
		l0.02,0.335l-0.389,0.483l-0.334,0.272l-0.338,0.224l-0.335,0.18l-0.407,0.334l-0.167,0.319l-0.069,0.294l0.05,0.275l0.069,0.227
		l0.02,0.243l0.126,0.17l0.114,0.344l0.117,0.291l0.066,0.256l0.126,0.299l0.095,0.212l0.069,0.142l-0.117,0.12l-0.193-0.048
		l-0.366-0.18l-0.243-0.025l-0.149,0.161l0.048,0.275l0.066,0.369l0.022,0.427l0.063,0.3l-0.057,0.246l-0.101,0.332l-0.281,0.332
		l-0.228,0.502l0.073,0.354l0.123,0.224l0.057,0.307l0.13,0.312l0.164,0.189l0.133,0.189l0.158,0.221l0.215,0.206l0.329,0.23
		l0.337,0.214l0.382,0.37l0.221,0.247l0.208,0.315l0.073,0.284l0.083,0.268l0.006,0.162l-0.013,0.183l-0.022,0.221l-0.07,0.23
		l-0.047,0.196l-0.082,0.193l-0.14,0.189l-0.151,0.24l0.06,0.142l0.132,0.189l0.07,0.196l0.199,0.161l0.173,0.17l0.167,0.215
		l0.067,0.17l0.202,0.158l0.288,0.054l0.609,0.091l0.066,0.104l0.237,0.154l0.066,0.203l0.13,0.258l0.202,0.225l0.199,0.131
		l0.218,0.098l0.199,0.129l0.123,0.133l0.063,0.135l-0.035,0.191l0.073,0.156l0.083,0.158l0.107,0.441l0.13,0.256l0.082,0.223
		l0.113,0.238l0.149,0.305l0.066,0.199l0.082,0.096l0.028,0.146l-0.066,0.166l-0.092,0.137l-0.288,0.158l-0.293,0.201l-0.281,0.271
		l0.032,0.188l0.47,0.299l0.42,0.096l0.338,0.088l0.252,0.045h0.199l0.442-0.045l0.249,0.02l-0.104,0.201l-0.165,0.117l0.069,0.176
		l0.101,0.291l0.028,0.229l-0.009,0.385l-0.032,0.219l0.044,0.258l0.136,0.266l0.199,0.07l0.269-0.043l0.332-0.088l0.334,0.014
		l0.742,0.031l0.278,0.201l0.455-0.221l0.297-0.227l0.284-0.141l0.344-0.252l0.404-0.461l0.243-0.303l0.329-0.43l0.341-0.082
		l0.345,0.045l0.438,0.012l0.294-0.031l0.259-0.066l0.24-0.145l0.284-0.174l0.296-0.057l0.783-0.303l0.288,0.062l0.243,0.082
		l0.303,0.057l0.297,0.113l0.293,0.152l0.202,0.107l0.518,0.273l0.234,0.162l0.53,0.396l0.426,0.299l0.256,0.203l0.25,0.266
		l0.164,0.008l0.458,0.059h0.237l0.252-0.041l0.199-0.047l0.192-0.139l0.195,0.025l0.183,0.078l0.177,0.152l0.066,0.119l0.069,0.166
		l0.174,0.213l0.079,0.072l0.06,0.102l0.211,0.254l0.149,0.258l0.072,0.174l0.142,0.174l0.066,0.168l0.265,0.195l0.382,0.26
		l0.764,0.49l0.373,0.021l0.206-0.096l0.306-0.139l0.398-0.164l0.707-0.273l0.303-0.145l0.23-0.018l0.382-0.014l0.335-0.076
		l0.72-0.234l0.306,0.105l0.461,0.111l0.473,0.094l0.553-0.068l0.486-0.092l0.464-0.059l0.35-0.043l0.527,0.037l0.133,0.107
		l0.196,0.383l0.063,0.318l0.316,0.645l0.309,0.283l0.471,0.246l0.375,0.336l0.288,0.404l0.312,0.348l0.512,0.801l0.252,0.26
		l0.208,0.309l0.183,0.385l0.142,0.398l0.183,0.357l0.165,0.215l0.334,0.119l-0.145,0.107l-0.47,0.031l0.606,0.102l0.609-0.113
		l0.672-0.334l0.84-0.754l0.534-0.336l0.284-0.18l0.167-0.102l0.356-0.195h0.594l0.676,0.057h0.385l0.36-0.254l0.032-0.359
		l0.202-0.277l0.452,0.082l-0.06,0.473l0.028,0.588l0.249,0.451l-0.034,0.449l0.429,0.225l0.698,0.191l0.502,0.033l0.47,0.668
		l0.338,0.594l0.631,0.59l0.249,0.277l0.392,0.166h0.612l0.335-0.25l0.309-0.061l0.568,0.225l0.489,0.082l0.783,0.078h0.531
		l0.594-0.078l0.354-0.225l0.176-0.252l0.215-0.311l0.613,0.031l0.808,0.336l0.569,0.172l0.417,0.418l0.606,0.363l0.338,0.229
		l0.587-0.064l0.36-0.248l0.565-0.338l0.218-0.277l0.356-0.279l0.386,0.311l0.176,0.359l0.174,0.447v0.367l-0.338,0.529
		l-0.139,0.449l-0.392,0.199l-0.139,0.17v0.361l0.218,0.334l0.451,0.252l0.531,0.311l0.388,0.221l0.471,0.252l0.701,0.195
		l0.312,0.061l0.338,0.252l0.351,0.422l0.082,0.277v0.529l-0.028,0.199l-0.161,0.424l0.439,0.287l0.11,0.369l0.167,0.354
		l-0.085,0.588l0.467,0.074l0.388,0.059l0.458,0.156l0.351,0.229l0.442,0.217l0.284,0.262l0.146,0.254l0.606,0.168l0.473-0.039
		l0.477,0.045l0.48-0.059l0.246-0.156l0.31-0.064l0.401-0.113l0.565-0.068l0.433-0.111l0.707-0.078l0.464,0.041l0.448,0.047
		l0.291-0.143l0.146-0.373v-0.344l0.154-0.217l0.123,0.197l0.537,0.291l0.356,0.096l0.325,0.129l0.007,0.193v0.365L48.77,55.27
		l-0.025,0.592l0.038,0.6l-0.013,0.457l0.413,0.096l0.461,0.098l0.65,0.016l0.543-0.166l0.496-0.363l0.23-0.105l0.098,0.42
		l0.016,0.418l-0.107,0.555l-0.188,0.525l0.04,0.338l-0.132,0.303l0.529,0.488l0.237,0.385l0.859,0.84l0.521-0.156l0.872,0.066
		l0.767-0.066l0.562-0.107l0.514-0.137l0.806-0.359l0.338-0.246l0.303-0.291l0.256-0.564l0.414-0.742l0.335-0.305l0.608-0.574
		l0.636-0.395l0.685,0.049l1.07,0.074l0.985,0.303l1.386,0.469l0.881-0.082l1.725,0.268l0.944,0.236l1.2,0.02l1.139-0.285
		l0.092-0.195l0.663-0.85l0.812-0.998l0.547-0.971l0.801-0.557l0.256-0.324l0.692-0.49l0.151-0.529l0.605-0.26l0.557-0.312
		l0.861-0.391l0.67-0.25l0.605-0.475l0.102-0.477l0.104-0.457l0.098-0.303l0.386-0.834l0.192-0.379l0.47-0.74l0.414-0.184H79.4
		h0.211l0.263,0.061l0.239-0.082l0.202,0.455L80.571,49l0.298,0.588l0.397,0.57l0.549,0.602l0.335,0.488l0.812-0.072l0.732-0.199
		h0.477l0.472,0.072l0.549,0.139l0.414,0.271l0.296,0.127h0.373l0.104-0.139l0.105,0.031l0.362,0.143l0.451,0.258l0.474,0.297
		l0.385,0.336l0.367,0.174l0.397,0.188l-0.236,0.496l-0.045,0.465l0.12,0.473l0.338,0.479l0.581,0.518l0.509,0.428l0.799,0.279
		l0.565,0.385l0.416,0.277l0.307,0.418l0.325,0.289l0.065,0.486l0.049,0.535l-0.028,0.273l-0.326,0.156l-0.3,0.213l-0.24,0.27
		l-0.171,0.498l-0.12,0.609l-0.088,0.525l0.025,0.385l0.356,0.334l0.392,0.301l0.322,0.205l0.192,0.328l0.032,0.301l0.237,0.242
		l0.441,0.299l0.47,0.256l0.247,0.162l0.338,0.225l0.436,0.402l0.505,0.109l0.571-0.031l0.187-0.373l0.246-0.219l0.335-0.18
		l0.359-0.104l0.256-0.008l0.278,0.08l0.11,0.236l0.007,0.275l0.116,0.514l0.202,0.393l0.275,0.473l0.479,0.385l-0.357,0.715
		l-0.198,0.201l-0.206,0.199l-0.318,0.107l-0.334,0.164l-0.263,0.158l-0.113,0.277l0.065,0.436l0.165,0.543l-0.038,0.445
		l-0.291,0.43l-0.41,0.297l-0.386,0.359l0.023,0.363l0.201,0.307l0.113,0.217l0.063,0.279l-0.224,0.143l-0.183,0.113l-0.256,0.328
		l-0.007,0.426l0.398,0.484l0.467,0.477l0.474,0.15l0.271,0.188l-0.161,0.201l-0.208,0.281l-0.199,0.316l-0.013,0.467v0.379
		l-0.338,0.326l-0.407,0.299l-0.199,0.158l0.41,0.021l0.281,0.057l0.275,0.119l0.189,0.242l-0.022,0.322l-0.082,0.438l-0.202,0.436
		l-0.344,0.49l-0.168,0.473l0.032,0.322l0.265,0.221l0.531,0.152l0.284,0.143l0.7-0.414l0.49-0.322l0.366-0.246l0.646-0.41
		l0.527-0.352l0.738-0.363h0.443l0.432,0.107l0.455,0.172l0.461,0.129l0.512,0.221l0.4,0.148l0.609,0.221l0.287,0.113l0.408,0.238
		l0.474,0.109l0.23,0.146l0.277,0.217l0.294,0.246l0.296,0.127l0.509,0.152l0.59,0.068l0.537,0.006l0.465-0.209l0.303-0.258
		l0.379-0.256l0.297-0.111l0.145,0.412l0.134,0.303l0.044,0.533l0.348,0.062l0.29,0.229l0.274,0.473l0.14,0.582l0.085,0.469
		l0.18,0.412l0.143,0.201l0.366,0.193l0.204,0.24l0.446,0.303l0.331,0.139l0.606-0.176l0.489-0.061l0.436,0.041l0.234,0.145
		l-0.216,0.395l-0.157,0.092l0.157,0.152l0.427,1.129l0.23,0.246l0.277,0.102l0.439,0.045l0.363-0.127l0.489-0.463l0.363-0.051
		l0.35,0.043l0.228,0.32l0.228,0.322l0.25,0.463l0.019,0.352v0.338l-0.322,0.578l0.392,0.201l0.496,0.225l0.404,0.227l0.403,0.25
		l0.36,0.369l0.322,0.43l0.344,0.338l0.404,0.205l0.474,0.266l0.363,0.268l0.344,0.414l0.124,0.445l0.11,0.461l0.015,0.498
		l0.007,0.512l0.035,0.436l0.23,0.562l0.171,0.654l0.214,0.561l0.199,0.387l0.344,0.311l0.146,0.402l0.256,0.461l0.237,0.398
		l0.315,0.488l0.423,0.445l0.426,0.369l0.361,0.27l0.533,0.232l0.549,0.205l0.271,0.146l0.549,0.207l0.771,0.27l0.959,0.201
		l0.472,0.121l0.426,0.119l0.403,0.117l0.336,0.221l0.314,0.301l0.26,0.328l0.23,0.365l0.189,0.223l0.397,0.344l0.222,0.219
		l0.277,0.334l0.316,0.195l0.17,0.209l0.297,0.252l0.423,0.385l0.531,0.5l0.385,0.416l0.382,0.43l0.335,0.354l0.253,0.385
		l0.318,0.461l0.297,0.482l0.256,0.551l0.199,0.559l0.259,0.521l0.271,0.445l0.274,0.469l0.318,0.594l0.338,0.398l0.42,0.609
		l0.351,0.338l0.035,0.047l0.445,0.297l0.471,0.285l0.505,0.24l0.707,0.334l0.572,0.328l0.605,0.236l0.43,0.234l0.445,0.088
		l0.553-0.145l0.492-0.164l0.492-0.088l0.345,0.062l0.47,0.4l0.26,0.338l0.249,0.312l0.301,0.385l0.23,0.371l0.318,0.266
		l0.451,0.252l0.464,0.133l0.474-0.09l0.575-0.199l0.682-0.088l0.474,0.031l0.49,0.121l0.467,0.119l0.638,0.178l0.641,0.268
		l0.61,0.133l0.723,0.281l0.515,0.199l0.315,0.193l0.492,0.279l0.616,0.301l0.659,0.221l0.512,0.062l0.645,0.045h0.594l0.768,0.031
		h0.899l0.868-0.133l0.559-0.365l0.338-0.461l0.24-0.549l0.335-0.516l0.515-0.4l0.388-0.398l0.386-0.461l0.464-0.385l0.557-0.562
		l0.337-0.277l0.606-0.332l0.478-0.133l0.59-0.057l0.669-0.121l0.601-0.156l0.463-0.127l0.38-0.102l0.789-0.297l0.508-0.297
		l0.424-0.379l0.142-0.523l0.335-0.973l0.278-0.447l0.281-0.525l0.423-0.41l0.65-0.189l0.608-0.148h0.841l0.605-0.037l0.474,0.113
		l0.468,0.072l0.742,0.338l0.84,0.303l0.644,0.297l0.653,0.189l0.873,0.268l0.684,0.281l0.702,0.281l0.512,0.418l0.274,0.41
		l0.338,0.316l0.245,0.447l0.335,0.379l0.269,0.342l0.202,0.277l0.136,0.24l0.225,0.342l0.164,0.277l0.616-0.193l0.289-0.18
		l0.329-0.152l0.351-0.258l0.202-0.301l0.13-0.33l0.122-0.273l0.066-0.391l0.199-0.184l0.31-0.406l0.11-0.156l0.066-0.264
		l0.069-0.188l0.18-0.139l0.168-0.104l0.243-0.123l-0.066,0.031l0.143-0.068l0.17-0.184l0.202-0.09l0.199-0.23l0.15-0.207
		l0.295-0.213l0.274-0.041l0.414-0.084l0.211-0.131l0.237-0.016l0.28-0.098l0.284-0.119l0.192-0.035l0.061-0.076l-0.003-0.088
		l-0.035-0.145l-0.004-0.158l-0.097-0.146l-0.139-0.195l-0.07-0.174l-0.061-0.186l-0.116-0.307l-0.104-0.369l-0.116-0.178
		l0.12-0.248l0.246-0.125l0.325-0.178l0.195-0.188l-0.019-0.252l-0.013-0.26l-0.212-0.234l0.099-0.416l0.192-0.211l0.187-0.076
		l0.202-0.098l0.04-0.188l-0.053-0.223l0.01-0.285l0.065-0.133l0.045-0.148l0.054-0.145l0.068-0.229l-0.306-0.197l-0.196-0.127
		l-0.312-0.225l-0.151-0.23l-0.025-0.535l-0.11-0.291l-0.143-0.346l-0.233-0.482l-0.139-0.186l-0.18-0.189l-0.158-0.326
		l-0.117-0.199l-0.065-0.232l-0.004-0.246l-0.019-0.23l0.066-0.215l-0.016-0.24l-0.007-0.246l-0.057-0.199l-0.021-0.217l0.019-0.23
		l0.028-0.188l0.003-0.176l0.019-0.48l-0.03-0.158l-0.184-0.26l-0.184-0.125l-0.065-0.158l-0.022-0.107l0.072-0.178l0.085-0.246
		l-0.041-0.309l0.117-0.193l-0.114-0.232l-0.15-0.264l-0.155-0.178l-0.385-0.273l-0.219-0.236l-0.183-0.291l-0.218-0.207
		l-0.193-0.316l-0.303-0.186l-0.183-0.26l-0.259-0.158l-0.472-0.164l-0.334-0.047l-0.331-0.133l0.167-0.354l-0.061-0.277
		l-0.188-0.105l-0.266-0.037l-0.474-0.121l-0.42-0.174l-0.25-0.139l-0.29-0.094l-0.312-0.025h-0.423l-0.36-0.117l-0.246-0.113
		l-0.104-0.135l-0.078-0.229l-0.291-0.186l-0.266-0.127l-0.338-0.104l-0.294-0.209l-0.293-0.158l-0.329-0.189l-0.435-0.195
		l-0.288-0.236l-0.249-0.211l-0.262-0.152l-0.342,0.092l-0.277,0.041l-0.202,0.012l-0.202,0.02l-0.202,0.025l-0.098,0.012
		l-0.363-0.049l-0.161-0.035l-0.186-0.045h-0.181l-0.221,0.02l-0.199,0.061l-0.164,0.084l-0.155,0.086l-0.082,0.027l-0.101,0.029
		l-0.113-0.025l-0.11-0.025l-0.199,0.002l-0.187-0.062l-0.158-0.082l-0.123-0.043l-0.037-0.102l-0.029-0.145l-0.041-0.217
		l-0.041-0.139l0.003-0.182l-0.037-0.139l-0.026-0.158l0.08-0.174l0.068-0.146l0.067-0.129l0.072-0.094l0.038-0.07l0.063-0.098
		l0.065-0.098l-0.034-0.086l-0.069-0.115l-0.048-0.137l-0.034,0.041l-0.072-0.098l-0.114-0.121l-0.066-0.082l-0.054-0.094
		l0.007-0.133l-0.023-0.098l-0.05-0.146l-0.069-0.182l0.06-0.277l0.123-0.199l0.076-0.133l0.069-0.236l-0.019-0.168l-0.054-0.086
		l-0.095-0.082l-0.139-0.072l-0.202-0.061l-0.206-0.078l-0.188-0.104l-0.171-0.16l-0.167-0.094l-0.13-0.137l-0.12-0.1l-0.202-0.057
		l-0.24-0.025l-0.199-0.004l-0.224-0.018l-0.256-0.055l-0.199-0.047l-0.353-0.154l-0.209-0.1l-0.186-0.123l-0.067-0.205v-0.15
		l-0.062-0.174l-0.187-0.111l-0.198-0.113l-0.237-0.127l-0.26-0.139l-0.284-0.164l-0.192-0.201l-0.192-0.184l-0.183-0.234
		l-0.088-0.189l-0.092-0.207l-0.073-0.199l-0.069-0.174l-0.069-0.129l0.01-0.117l-0.035-0.121l-0.069-0.082l-0.025-0.084
		l0.123-0.041l0.174-0.027l0.3-0.072l0.123-0.059l0.136-0.076l0.137-0.07l0.115-0.088l0.124-0.088l0.157-0.057l0.092-0.102
		l0.048-0.047l0.079-0.051l0.192-0.07l0.069-0.1l0.066-0.111l0.113-0.059l0.272-0.014l0.192-0.064l0.107-0.002l0.126,0.027
		l0.164,0.008l0.18-0.055l0.212-0.113l0.107-0.031l0.106-0.064l0.199-0.088l0.174,0.029l0.196-0.02l0.24,0.086l0.16,0.018
		l0.155-0.018l0.146-0.02l0.136-0.061l0.098-0.1l0.069-0.143l0.079-0.096l0.104-0.244l0.066-0.115l0.124-0.062l0.04-0.029
		l0.099-0.002l0.092,0.031l0.119,0.012l0.104-0.012l0.164,0.012l0.107,0.006l0.038-0.047l0.051-0.035l0.12-0.197l0.04-0.107
		l0.063-0.1l-0.044-0.1l-0.025-0.088l-0.016-0.146l-0.061-0.154l0.007-0.219l0.069-0.125l0.069-0.127l0.066-0.113l0.13-0.102
		l0.154-0.119l0.151-0.092l0.099-0.08l0.068-0.104l0.063-0.072l0.066-0.113l0.098-0.006l0.158,0.021l0.149,0.006l0.17,0.057
		l0.17,0.08l0.14,0.053l0.065,0.031l0.114,0.047l0.18,0.023l0.215-0.035l0.23,0.045l0.148,0.021l0.157,0.031l0.244-0.043
		l0.239-0.055l0.174,0.025l0.161,0.006l0.25-0.086l0.306-0.012l0.228-0.021l0.236-0.055l0.23-0.104l0.11-0.092l0.237-0.061
		l0.224-0.057l0.241-0.078l0.195-0.066l0.259-0.219l0.287-0.236l0.151-0.174l0.184-0.191l0.281-0.168l0.211-0.137l0.051-0.031
		l0.111-0.119l0.201-0.174l0.335-0.158l0.091-0.18l0.114-0.117v-0.178l-0.048-0.131l-0.142-0.162l-0.107-0.15l-0.102-0.189
		l-0.201-0.152l-0.282-0.174l-0.197-0.184l0.04-0.184l0.066-0.221l0.013-0.252l-0.225-0.291l-0.388-0.334l-0.192-0.193l-0.124-0.139
		l0.117-0.25l0.202-0.271l0.211-0.324l0.294-0.293l0.253-0.311l0.274-0.281l0.275-0.287l0.236-0.332l0.404-0.328l0.281-0.334
		l0.362-0.295l0.259-0.152l0.189-0.127l0.212-0.307l0.127-0.184l0.104-0.184l0.079-0.148l0.072-0.211l0.076-0.201l0.047-0.188
		l-0.202-0.211l-0.198-0.164l-0.066-0.27l0.062-0.4l0.061-0.199l0.06-0.189l0.067-0.135l0.068-0.17l0.066-0.152l-0.116-0.113
		l-0.189-0.045l-0.199-0.061l-0.208-0.066h-0.225l-0.161-0.119l-0.24-0.047h-0.265l-0.187-0.055l-0.146-0.104l0.032-0.123
		l0.034-0.184l0.089-0.168l0.038-0.201l0.062-0.168l0.045-0.25l-0.048-0.174l-0.009-0.139l-0.117-0.164l-0.192-0.059l-0.171-0.066
		l-0.237-0.045h-0.142l-0.183-0.07l-0.171-0.068l-0.054-0.143l-0.062-0.174l-0.054-0.189V59.19l0.106-0.186l0.107-0.162l0.171-0.193
		l0.066-0.17l0.075-0.168l0.014-0.17l0.05-0.215l0.034-0.186l0.013-0.168l0.019-0.158l0.07-0.119l0.157-0.082l0.253-0.051
		l0.137-0.057l0.145-0.148l0.051-0.123l-0.01-0.172l-0.044-0.129l-0.013-0.154l-0.12-0.117l-0.196-0.088l-0.167-0.066l-0.448-0.086
		l-0.202-0.041l-0.164-0.088l-0.063-0.129l-0.17-0.164l-0.158-0.148l-0.142-0.146l-0.066-0.164l-0.101-0.145l-0.102-0.182
		l-0.063-0.156l-0.069-0.199l-0.061-0.195l-0.188-0.221l-0.004-0.127l-0.066-0.18l-0.068-0.174l-0.117-0.193l-0.028-0.344
		l-0.082-0.223l-0.054-0.172l0.002-0.277l-0.087-0.279l-0.035-0.188l-0.066-0.127l-0.076-0.197l-0.044-0.174l0.081-0.07l0.194-0.035
		l0.264-0.02l0.272-0.076l0.284,0.016h0.246l0.199,0.014l0.299-0.035l0.336,0.047l0.246-0.012l0.157-0.041l0.266-0.031l0.209-0.02
		l0.113-0.088l0.101-0.1l0.067-0.188l0.009-0.152l-0.007-0.143l-0.116-0.176l-0.137-0.184l-0.147-0.039l-0.123-0.129l-0.082-0.16
		l-0.025-0.156l0.057-0.174l0.143-0.109l0.202-0.133l0.142-0.145l0.218-0.113l0.239-0.076l0.234-0.062l0.246-0.055l0.429-0.133
		l0.171-0.16l0.022-0.154l-0.069-0.16l-0.098-0.197l-0.083-0.146l-0.119-0.176l-0.113-0.199l-0.174-0.193l-0.025-0.217l0.044-0.242
		l0.129-0.188l0.066-0.211l0.127-0.146l0.082-0.119l0.157-0.068l0.212-0.049l0.335-0.104l0.202-0.021l0.214-0.018l0.209-0.041
		l0.195-0.051h0.269l0.205-0.033l0.225-0.057l0.198-0.035l0.206-0.066l0.198-0.006l0.181-0.07l0.174-0.018l0.211-0.08l0.177-0.066
		l0.206-0.02l0.204-0.068l0.184-0.021l0.196-0.02l0.202-0.02l0.249-0.053l0.199-0.076l0.23-0.051l0.192-0.02l0.139-0.086
		l0.107-0.131l0.082-0.139l0.034-0.121l-0.05-0.158l-0.214-0.107l-0.565-0.031h-0.266h-0.263l-0.312,0.062l-0.202,0.057
		l-0.249,0.029l-0.23,0.029l-0.215-0.041l-0.215-0.109l-0.183-0.119l-0.189-0.088l-0.146-0.113l-0.11-0.164l-0.17-0.146l-0.14-0.16
		l-0.066-0.197l-0.038-0.23l-0.025-0.221l0.022-0.211l0.022-0.219v-0.217l0.013-0.154l0.016-0.188l-0.117-0.156l-0.066-0.182
		l-0.066-0.129l0.007-0.164l-0.044-0.143l-0.148-0.1l-0.07-0.143l-0.006-0.156l-0.025-0.17l-0.051-0.191l-0.006-0.188l-0.022-0.186
		l-0.271-0.137l-0.187-0.057l-0.173,0.008l-0.212,0.068l-0.239-0.012l-0.181,0.066l-0.177,0.057l-0.202,0.053l-0.271,0.076
		l-0.177,0.092l-0.192,0.102l-0.199,0.098l-0.215,0.129l-0.221,0.031l-0.23,0.066l-0.205,0.021l-0.193-0.012l-0.126-0.057
		l-0.233-0.119l-0.25-0.199l-0.198-0.148l-0.155-0.184l-0.189-0.184l-0.177-0.184l-0.065-0.125l-0.164-0.152l-0.092-0.145
		l-0.099-0.162l-0.094-0.189l-0.067-0.129l-0.101-0.117l-0.022-0.154l-0.009-0.154l0.054-0.154l0.031-0.137l-0.066-0.111
		l-0.12-0.131l-0.164-0.115l-0.143-0.088l-0.101-0.111l-0.123-0.148l-0.181-0.131l-0.192-0.139l-0.139-0.115l-0.139-0.176
		l-0.161-0.121l-0.148-0.037l-0.192-0.062l-0.19-0.102l-0.188-0.088l-0.202-0.074l-0.126-0.053l-0.209-0.068l-0.123-0.135
		l-0.143-0.104l-0.167-0.113l-0.098-0.148l-0.045-0.158l-0.024-0.174l-0.041-0.348l0.079-0.148l0.104-0.182l0.127-0.152l0.054-0.15
		l-0.045-0.158l0.123-0.133l0.102-0.121l0.031-0.324l-0.016-0.111l0.004-0.125l-0.067-0.174l0.079-0.295l0.117-0.082l0.127-0.133
		l0.037-0.201l0.187-0.113l0.075-0.082l0.07-0.139l0.122-0.133l-0.009-0.127l0.139-0.068l0.126-0.166l0.146-0.145l0.104-0.133
		l0.086-0.133l0.127-0.199l0.104-0.148l0.12-0.15l0.107-0.18l0.198-0.221l0.07-0.121l0.066-0.168l0.107-0.162l0.012-0.172
		l-0.006-0.154l-0.025-0.174l-0.072-0.174l-0.123-0.117l-0.051-0.143l-0.007-0.139l-0.005-0.186l-0.007-0.19l-0.089-0.189
		l-0.098-0.177l-0.151-0.183l-0.108-0.164l-0.125-0.203l-0.199-0.151l-0.104-0.183l-0.198-0.148l-0.134-0.183l0.067-0.158
		l0.186-0.129l0.225-0.142l0.189-0.205l0.192-0.088l0.136-0.189l0.069-0.196l-0.038-0.158l-0.205-0.11l-0.303-0.113L178.607,25
		l-0.155-0.187l-0.041-0.139l-0.069-0.243l-0.067-0.18l-0.057-0.243l-0.028-0.278l-0.18-0.247l-0.069-0.277l-0.239-0.253
		l-0.089-0.325l-0.01-0.195l0.028-0.259l0.066-0.252l-0.003-0.256l-0.031-0.316l-0.215-0.256l-0.137-0.277l-0.204-0.155l-0.23-0.18
		l-0.199-0.167l-0.187-0.11l-0.199-0.161l-0.271-0.173l-0.106-0.183l-0.278-0.187l-0.198-0.098l-0.305-0.133l-0.35-0.12l-0.42-0.164
		l-0.404-0.079l-0.31-0.117l-0.334-0.076l-0.254-0.111l-0.258-0.076l-0.199-0.041l-0.193-0.11l-0.183-0.19l-0.202-0.145
		l-0.095-0.165l-0.044-0.18l-0.007-0.199l-0.198-0.123l-0.196-0.013l-0.125-0.016l-0.149-0.047l-0.139-0.066l-0.158-0.167
		l0.013-0.101l0.01-0.136l-0.116-0.205l-0.209-0.148l-0.124-0.224l-0.094-0.262l-0.158-0.203l-0.151-0.208l-0.076-0.199
		l-0.126-0.167l-0.184-0.187L169.56,14.9l-0.224-0.133l-0.225-0.114l-0.209-0.066l-0.224-0.111l-0.518-0.145l-0.23-0.095
		l-0.209-0.05l-0.284-0.057l-0.224-0.107l0.016-0.218l0.14-0.167l0.227-0.247l0.168-0.208l0.164-0.19l0.065-0.215l0.083-0.173
		l0.044-0.174l-0.025-0.275l-0.092-0.189l-0.113-0.266l-0.104-0.198l-0.155-0.189l-0.202-0.206l-0.221-0.17l-0.202-0.148
		l-0.198-0.129l-0.253-0.114l-0.107-0.146l-0.188-0.208l-0.099-0.18l-0.098-0.243l-0.123-0.244l-0.269,0.022l-0.318,0.025
		l-0.348,0.139l-0.288,0.003l-0.334-0.06l-0.253-0.114l-0.372-0.136l-0.149-0.266l-0.176-0.284l-0.057-0.24l0.044-0.23l0.259-0.225
		l0.117-0.23l-0.077-0.183l-0.164-0.126l-0.17-0.028L163.145,7.6l-0.26-0.073l-0.202-0.069l-0.303-0.035l-0.315-0.095l-0.294,0.041
		l-0.243,0.047l-0.215,0.066l-0.201,0.07l-0.181,0.066l-0.218,0.069l-0.107-0.126l-0.136-0.126l-0.152-0.303l-0.154-0.167
		l-0.132-0.164l-0.162-0.167l-0.192-0.028l-0.18,0.032l-0.154,0.11l-0.25,0.082l-0.136,0.193l-0.183,0.148l-0.266-0.013l-0.24,0.007
		l-0.135-0.108l-0.067-0.205l-0.06-0.117l-0.133-0.146l-0.133-0.145l-0.189-0.108l-0.259-0.073l-0.262-0.031l-0.266-0.038
		l-0.233-0.05l-0.234-0.013l-0.132-0.104l0.016-0.196l0.161-0.167l0.187-0.17l0.11-0.211l0.024-0.256l-0.033-0.218l0.047-0.236
		l-0.004-0.275l0.032-0.252l-0.161-0.246l-0.189-0.385l-0.13-0.165l-0.16-0.126l-0.13-0.186l-0.189-0.167l-0.07-0.221l-0.003-0.161
		V2.09l0.026-0.256l-0.038-0.199l-0.171-0.031l-0.174-0.048l-0.177,0.05l-0.139,0.25l-0.072,0.23l-0.057,0.14l-0.134,0.208
		l-0.331,0.259l-0.154,0.053l-0.272,0.063l-0.29,0.038l-0.356-0.054l-0.234-0.07l-0.157-0.233l-0.082-0.202l-0.092-0.183
		l-0.174-0.06l-0.107-0.094l-0.116-0.022h-0.174l-0.316-0.032l-0.274-0.041l-0.233-0.016l-0.123-0.003h-0.082l-0.14-0.06
		l-0.107-0.117l-0.092-0.092l-0.157-0.192l-0.181-0.142l-0.204-0.111l-0.104-0.205l-0.136-0.146l-0.199-0.129l-0.104-0.183
		l-0.061-0.202l-0.104-0.202l-0.13-0.165l-0.037-0.202l-0.197-0.088l-0.242-0.013l-0.246-0.092l-0.249-0.151l-0.07-0.221
		l-0.007-0.237l-0.068-0.221l-0.178-0.291l-0.05-0.277l-0.095-0.3l-0.032-0.262l-0.068-0.259l-0.247-0.133l-0.253-0.151
		l-0.256-0.133l-0.228-0.17l-0.252-0.196l-0.253-0.151l-0.274-0.192l-0.199-0.148l-0.277-0.151l-0.205-0.149l-0.158-0.145
		l-0.18-0.17l-0.192-0.205l-0.259-0.076l-0.316-0.016l-0.338,0.022l-0.325,0.003l-0.293,0.022l-0.323,0.063l-0.426,0.075
		l-0.354,0.041l-0.269,0.142l-0.089-0.104l-0.072-0.161V-5.08l-0.072-0.262L141.7-5.604l-0.048-0.3l-0.174-0.129l-0.458-0.224
		l-0.369-0.136l-0.341-0.173l-0.281-0.117l-0.269-0.252l-0.303-0.193l-0.38-0.082l-0.173,0.044l-0.344,0.088l-0.003-0.278
		l0.057-0.312l-0.221-0.173l-0.228-0.17l-0.219-0.23l-0.232-0.269l-0.295-0.092l-0.224-0.073l-0.411-0.041l-0.331-0.199
		l-0.218-0.189l-0.23-0.148l-0.099-0.187l-0.183-0.224l0.303-0.189l0.256-0.158l0.237-0.18l0.199-0.152l0.324-0.359l0.105-0.212
		l0.044-0.148l0.041-0.183l-0.158-0.164l-0.126-0.129l-0.12-0.124l-0.284-0.243l-0.195-0.158l-0.263,0.013l-0.303,0.016
		l-0.275-0.174l-0.129-0.149l-0.139-0.161l-0.278-0.133l-0.198-0.12l-0.241-0.142l-0.135-0.146l-0.082-0.088l-0.131-0.202
		l-0.217-0.17l-0.202-0.149l-0.489-0.208l-0.344-0.234l-0.323-0.215l-0.306-0.211l-0.24-0.212l-0.331-0.214l-0.067-0.338
		l0.026-0.315l0.098-0.335l-0.061-0.445l0.146-0.313l0.136-0.208l0.304-0.044l0.417-0.042l0.205,0.035l0.211,0.032l0.209-0.041
		l0.214-0.039l0.221-0.044l0.237-0.047l0.253-0.107l0.195-0.228l0.143-0.268l0.198-0.385l0.07-0.212l-0.007-0.161l0.022-0.293
		l-0.129-0.202l0.46,0.063l0.536-0.028l0.487-0.114l0.395-0.177l0.262-0.224l0.26-0.221l0.075-0.177l0.123-0.211l0.209-0.256
		l0.057-0.316l-0.151-0.221l-0.206-0.332l-0.12-0.303l-0.065-0.379l-0.003-0.274l-0.025-0.3l0.012-0.177l0.275-0.085l0.119-0.098
		l0.168-0.161l0.173-0.206l0.174-0.31l0.045-0.274l0.069-0.291l0.035-0.275l0.139-0.211l0.007-0.392l-0.007-0.24l-0.136-0.42
		l-0.117-0.344l-0.092-0.338l-0.146-0.363l-0.198-0.467l-0.143-0.379l-0.122-0.265l-0.174-0.306l-0.189-0.224l-0.23-0.269
		l-0.167-0.205l-0.155-0.187l-0.271-0.23l-0.06-0.199l-0.357-0.041l-0.442,0.016l-0.416,0.038l-0.913-0.05l-0.473-0.066
		l-0.434-0.271l-0.338-0.401l-0.297-0.211l-0.192-0.167l-0.338-0.236l-0.334-0.193l-0.256-0.114l-0.316-0.035l-0.319,0.003
		l-0.23,0.187l-0.136,0.11l-0.148,0.114l-0.258,0.221l-0.195,0.17l-0.308,0.199l-0.306,0.142l-0.398,0.158l-0.366,0.06l-0.391,0.076
		l-0.439,0.019l-0.369,0.038l-0.417-0.202l-0.417-0.259l-0.334-0.136l-0.354-0.095l-0.312-0.038l-0.382-0.076l-0.287-0.035
		l-0.345,0.098l-0.303,0.124l-0.4,0.18l-0.742,0.196l-0.41-0.019l-0.206-0.022l-0.198-0.019l-0.199-0.022l-0.164-0.019l-0.199-0.028
		l-0.256-0.148l-0.341-0.117l-0.252-0.092l-0.199-0.069l-0.284-0.132l-0.604-0.379l-0.177-0.445l0.069-0.288l0.117-0.249
		l0.202-0.111l0.243-0.098l0.177-0.401l0.068-0.322l-0.012-0.379l-0.066-0.397l-0.016-0.395l0.079-0.306l0.359-0.315l0.474-0.224
		l0.606-0.215l0.199-0.426l0.214-0.464l0.127-0.337l0.028-0.357l-0.016-0.379l0.034-0.376l-0.094-0.284l-0.196-0.354l-0.193-0.256
		l-0.252-0.307l-0.117-0.269l-0.335-0.233l-0.353-0.23l-0.448-0.202l-0.212-0.164l-0.187-0.24l-0.161-0.187l-0.161-0.129
		l-0.259-0.038l-0.271,0.019l-0.262-0.013l-0.284-0.101l-0.152-0.136l-0.068-0.224l0.072-0.319l0.116-0.208l0.206-0.183l0.265-0.158
		l0.269-0.224l0.155-0.25l0.04-0.373l0.042-0.389l0.068-0.347l0.127-0.268l0.104-0.269l0.066-0.174l-0.057-0.269l-0.137-0.382
		l-0.025-0.281l0.055-0.247l0.065-0.312l-0.151-0.414l-0.025-0.294l-0.143-0.233l-0.097-0.237l-0.007-0.328l0.11-0.3l0.136-0.3
		l0.111-0.31l-0.042-0.319l-0.05-0.205l-0.11-0.265l-0.143-0.237l-0.23-0.091l-0.277-0.082L118.385-49l-0.328,0.025l-0.335,0.095
		l-0.397,0.117l-0.338,0.107l-0.332,0.199l-0.235,0.268L116.128-48l-0.338,0.266l-0.221,0.06l-0.247,0.189l-0.249,0.164
		l-0.331,0.189l-0.335,0.187l-0.345,0.129l-0.255,0.003l-0.335,0.016l-0.341,0.063l-0.357,0.098l-0.281,0.098l-0.242,0.073
		l-0.284-0.05l-0.418-0.003l-0.324,0.145l-0.07,0.041l-0.218,0.123l-0.268,0.117l-0.234,0.003l-0.382-0.038l-0.199-0.006h-0.133
		l-0.369-0.035h-0.328l-0.259,0.079l-0.319,0.006l-0.205,0.126l-0.151,0.107l-0.069,0.057l-0.26,0.085l-0.198,0.221l-0.061,0.167
		l-0.05,0.101l-0.104,0.161l-0.047,0.05l-0.148,0.139l-0.07,0.187l-0.142,0.18l-0.157,0.25l-0.117,0.189l-0.171,0.19l-0.212,0.246
		l-0.201,0.126l-0.272,0.132l-0.299,0.082l-0.278,0.107l-0.196,0.136l-0.171,0.12l-0.125,0.123l-0.086,0.165l-0.117,0.173
		l-0.153,0.215l-0.134,0.259l-0.117,0.243l-0.085,0.129l-0.139,0.173l-0.202,0.284l-0.143,0.272l-0.078,0.325v0.284l0.092,0.284
		l0.328,0.274l0.341,0.212l0.366,0.12l0.348,0.164l0.341,0.202l0.246,0.161l0.224,0.192l0.237,0.329l0.114,0.17l0.334,0.199
		l0.335,0.18l0.266,0.211l0.202,0.174l-0.101,0.247l-0.199,0.284l-0.146,0.303l-0.294,0.316v0.259l-0.243,0.337l-0.227,0.136
		l-0.281,0.183l-0.389,0.11l-0.427,0.212l-0.438,0.192l-0.392,0.205l-0.382,0.174l-0.253,0.338l-0.082,0.376l0.021,0.315
		l-0.021,0.247l-0.028,0.277l0.044,0.282l0.073,0.252l-0.02,0.23l0.069,0.367l0.189,0.221l0.202,0.243l0.171,0.24l0.161,0.256
		l0.201,0.306l0.263,0.244l0.319,0.195l0.274,0.082l0.419,0.089l0.437,0.136l0.335,0.164l0.266,0.23l0.047,0.215l-0.041,0.243
		l-0.051,0.048l-0.187,0.205l-0.227,0.129l-0.263,0.275l-0.211,0.129l-0.108,0.233l-0.122,0.275l-0.017,0.228l-0.003,0.281
		l-0.057,0.36l-0.01,0.378l0.016,0.363l-0.009,0.36l0.06,0.382l-0.119,0.243l-0.073,0.243l-0.146,0.287l-0.321,0.165l-0.234,0.202
		l-0.369,0.126l-0.442,0.177l-0.477,0.189l-0.275,0.148l-0.259,0.202l-0.261,0.25l-0.165,0.288l-0.154,0.281l-0.073,0.136
		l-0.107,0.392l-0.065,0.18l-0.035,0.063l-0.099,0.256l0.07,0.269l0.246,0.281l0.069,0.271l-0.069,0.202l-0.051,0.294l0.098,0.252
		l-0.025,0.211v0.297l-0.037,0.334l0.161,0.439l0.006,0.006l-0.041,0.499l-0.016,0.17l-0.259,0.218l-0.335,0.215l-0.337,0.113
		l-0.528,0.07l-0.574-0.013l-0.656-0.079l-0.585-0.08l-0.537-0.079l-0.474-0.126l-0.4-0.067l-0.471-0.022l-0.464-0.073l-0.448,0.009
		l-0.581,0.035l-0.202,0.155l-0.045,0.262l0.007,0.228l0.044,0.25l-0.016,0.215l-0.192,0.271l-0.136,0.222l-0.259,0.202
		l-0.209,0.221l-0.208,0.155l-0.119,0.256l-0.159,0.221l-0.062,0.227l-0.198,0.203l-0.188,0.271l-0.237,0.233l-0.28,0.218
		l-0.441,0.243l-0.26,0.215l-0.186,0.192l-0.184,0.256l-0.225,0.319l-0.095,0.312l-0.059,0.221l-0.023,0.306l-0.054,0.284
		l-0.065,0.206l-0.297-0.047l-0.335-0.069l-0.392-0.111l-0.379-0.066l-0.366-0.006l-0.388-0.02l-0.401,0.061l-0.383,0.034
		l-0.448,0.073l-0.426,0.051l-0.375,0.028l-0.354,0.028l-0.338,0.025h-0.366l-0.609-0.025l-0.433-0.022l-0.423,0.003l-0.461,0.123
		L84.098-11l-0.174,0.268l-0.198,0.297l-0.313,0.265l-0.29,0.269l-0.281,0.129l-0.324,0.066L82.17-9.662l-0.496,0.038l-0.366-0.173
		l-0.205-0.338l-0.113-0.392l-0.193-0.486l-0.199,0.136l-0.853,0.069l-0.286,0.019l-0.336-0.063l-0.549,0.054l-0.543-0.009
		l-0.474-0.202l-0.479-0.256l-0.449-0.252l-0.335-0.231l-0.448-0.268l-0.334-0.297l-0.398-0.331l-0.338-0.316l-0.198-0.306
		l-0.253-0.063l-0.315,0.066l-0.253,0.184l-0.164,0.255l-0.237,0.269l-0.12,0.255l-0.164,0.259l-0.123,0.307l-0.034,0.411
		l-0.099,0.309L72.495-10.9l-0.335-0.082l-0.401-0.218l-0.406-0.215l-0.398-0.335L70.6-12.08l-0.338-0.265l-0.321-0.312
		l-0.308-0.312l-0.261-0.31l-0.301-0.344l-0.205-0.297l-0.202-0.284l-0.092-0.211l-0.132-0.351l-0.512-0.107l-0.379,0.199
		l-0.448,0.322l-0.502,0.24l-0.452,0.076l-0.363-0.091l-0.401-0.193l-0.246-0.176l-0.157-0.357l-0.202-0.206l-0.23-0.391
		l-0.259-0.256l-0.174-0.158l-0.318-0.129l-0.237-0.258l-0.414-0.187l-0.47-0.211l-0.225-0.224l-0.202-0.291L62-17.562l-0.263-0.275
		l-0.164-0.303l-0.186-0.288l-0.336-0.085l-0.473-0.019l-0.351-0.07l-0.433,0.025l-0.471-0.044l-0.382-0.076l-0.274-0.098
		l-0.202-0.208l-0.199-0.385l-0.174-0.423l-0.148-0.515l-0.508,0.088l-0.521-0.01l-0.499-0.006l-0.735,0.013l-0.401-0.05
		l-0.338-0.032l0.202,0.404l0.067,0.335l-0.199,0.284l-0.199,0.107l-0.382,0.048l-0.434,0.066l-0.523,0.022l-0.578,0.124
		l-0.505,0.041l-0.448,0.013l-0.382-0.231l-0.209-0.404l-0.29-0.493l-0.157-0.369l-0.152-0.417l-0.089-0.417l-0.331-0.23
		l-0.474-0.284l-0.198-0.222l-0.294-0.211l-0.161-0.211l-0.162-0.319l-0.258-0.36l-0.14-0.385l-0.334-0.315l-0.438-0.136
		l-0.301-0.192l-0.274-0.11l-0.379-0.051l-0.474-0.332l-0.274-0.392l-0.237-0.306l-0.328-0.312l-0.202-0.442l-0.114-0.347
		l-0.306-0.344l-0.104-0.17l-0.199-0.24l-0.334-0.329l-0.303-0.379l-0.23-0.341l-0.079-0.281l0.003-0.312l-0.032-0.164l-0.136-0.369
		l-0.338-0.297l-0.076-0.565l0.019-0.263l-0.142-0.236l-0.053-0.218l-0.3-0.31l-0.271-0.271l-0.24-0.208l-0.335-0.038l-0.395-0.117
		l-0.41,0.098l-0.389,0.202l-0.334,0.158l-0.433,0.211l-0.066,0.155l-0.025-0.104l-0.057-0.009l-0.164-0.032l-0.161-0.013
		l-0.104-0.041l-0.404-0.161l-0.471-0.306l-0.795-0.887l-0.499-0.635L36.8-33.494l-0.253-0.375l-0.303-0.36l-0.199-0.221l-0.3-0.067
		l-0.319-0.164l-0.338-0.246l-0.354-0.313l-0.325-0.347l-0.303-0.293l-0.398-0.363l-0.344-0.297l-0.322-0.328l-0.369-0.202
		l-0.414-0.132H31.9l-0.316,0.006l-0.48,0.104l-0.256-0.029l-0.3,0.136l-0.363,0.063l-0.423,0.016l-0.36,0.016l-0.448-0.041
		l-0.31-0.032l-0.47-0.104l-0.552-0.173l-0.433-0.218l-0.748-0.448l-0.404-0.316l-0.072-0.265l0.069-0.329l-0.048-0.316
		l-0.047-0.328L25.8-39.718l-0.338-0.278l-0.334-0.199l-0.31-0.246l-0.385-0.23l-0.458-0.588l-0.032-0.265l-0.091-0.3l0.022-0.262
		l0.041-0.316l-0.069-0.354l-0.095-0.442l-0.028-0.36l-0.038-0.414l-0.025-0.275l-0.032-0.196l-0.18-0.316l-0.334-0.101
		l-0.543-0.044l-0.498-0.057l-0.452,0.06l-0.511,0.126l-0.152,0.092l-0.208,0.202l-0.252,0.366L20.281-43.8l-0.167,0.344
		l-0.281,0.269H19.51l-0.742-0.278l-0.474-0.094l-0.319,0.006l-0.474,0.124l-0.395,0.095l-0.471-0.019l-0.395-0.076l-0.334-0.167
		l-0.366-0.244l-0.417-0.268l-0.274-0.19l-0.271-0.186l-0.187-0.079l-0.553-0.269l-0.303-0.155l-0.284-0.247l-0.173-0.287
		l-0.041-0.224l0.145-0.366l0.183-0.234l0.199-0.269l0.155-0.196l0.076-0.167l0.009-0.196l-0.148-0.139l-0.202-0.095l-0.022-0.009
		l-0.296-0.117l-0.31-0.025l-0.641-0.146l-0.537-0.129l-0.297-0.124l-0.442-0.187l-0.49-0.252l-0.407-0.123l-0.414,0.003
		l-0.537,0.278l-0.505,0.215l-0.54,0.139l-0.609,0.183l-0.332,0.158l-0.344,0.237l-0.304,0.202l-0.4,0.192l-0.373,0.199
		l-0.474,0.189l-0.363,0.047l-0.471,0.022l-0.357-0.06l-0.429-0.167l-0.341-0.467L3.152-47.51l-0.026-0.442l-0.069-0.281l-0.075-0.3
		l-0.165-0.161l-0.173-0.177l-0.559-0.284L1.69-49.357l-0.304-0.126l-0.347-0.205l-0.357-0.149l-0.366-0.161l-0.363-0.17
		l-0.397-0.146l-0.338-0.117l-0.508-0.256l-0.354-0.167l-0.148-0.145l-0.206-0.152l-0.274,0.085l-0.214,0.183l-0.313,0.388
		l-0.281,0.262l-0.395,0.151l-0.37,0.11l-0.802,0.184l-0.518,0.05l-0.613-0.028l-0.638-0.032l-0.205-0.073l-0.376-0.069
		l-0.761-0.246l-0.783-0.628l-0.395-0.334l-0.698-0.43l-0.34,0.025l-0.199,0.395l-0.437,0.237l-0.287,0.366l-0.022,0.022
		l-0.262,0.388l-0.121,0.404l-0.113,0.335l-0.057,0.315l-0.142,0.3l-0.287,0.521h-0.941l-0.543-0.101l-0.669-0.057l-0.423-0.098
		l-0.672-0.158l-0.587-0.079l-0.499-0.107l-0.325-0.013l-0.647-0.404l-0.388-0.136l-0.325-0.243l-0.312-0.341l-0.332-0.041
		l-0.439-0.022l-0.458-0.069l-0.426-0.079l-0.363-0.123l-0.37-0.146l-0.315-0.247l-0.395-0.309l-0.199-0.164l-0.215-0.129
		l-0.035-0.032l-0.189-0.183l-0.433-0.423l-0.262-0.262l-0.281-0.164l-0.151,0.013l-0.18-0.009l-0.284,0.12l-0.187,0.177
		l-0.606,0.597l-0.366,0.246l-0.332,0.129l-0.297,0.006l-0.391-0.088l-0.338-0.088l-0.319-0.101l-0.313-0.091l-0.448-0.063
		l-0.325-0.035l-0.322-0.003l-0.228,0.034l-0.278,0.152l-0.211,0.187l-0.215,0.24l-0.221,0.294l-0.176,0.255l-0.199,0.253
		l-0.12,0.214l-0.155,0.297l-0.195,0.274l-0.142,0.104l-0.224-0.032l-0.209-0.095l-0.256-0.161l-0.344-0.104l-0.312-0.133
		l-0.604-0.249l-0.322-0.022l-0.303-0.038l-0.344-0.047l-0.252-0.009l-0.266,0.009l-0.259,0.031l-0.43,0.003l-0.3-0.133
		l-0.228-0.243l-0.208-0.23l-0.171-0.196l-0.199-0.136l-0.158-0.05l-0.152,0.06l-0.192,0.14l-0.291,0.085l-0.59,0.224l-0.271,0.044
		l-0.275-0.088l-0.474-0.224l-0.205-0.108l-0.23-0.151l-0.322-0.186l-0.329-0.158l-0.268-0.183l-0.351-0.18l-0.347-0.19
		l-0.335-0.034l-0.357,0.073l-0.161,0.208l-0.123,0.259l-0.262,0.325l-0.243,0.262l-0.003,0.271l-0.069,0.259l0.019,0.309
		l0.019,0.543l-0.344,0.319l-0.398,0.135l-0.429,0.225l-0.243,0.031l-0.616,0.148l-0.354-0.035l-0.259,0.022l-0.347-0.025
		l-0.244-0.047l-0.3-0.066l-0.338-0.124l-0.297-0.208l-0.167-0.18l-0.155-0.215l-0.329-0.568l-0.076-0.231l-0.183-0.268
		l-0.237-0.502l-0.189-0.148l-0.177-0.085l-0.278-0.063l-0.319,0.05l-0.549,0.208l-0.398,0.18l-0.332,0.18l-0.373,0.135
		l-0.335,0.129l-0.467,0.092l-0.359-0.035l-0.291-0.069l-0.262-0.076l-0.322-0.132l-0.42-0.206l-0.477-0.236l-0.366-0.089
		l-0.385-0.18l-0.417-0.269l-0.474-0.192l-0.814-0.379l-0.571-0.088l-0.518,0.098l-0.411,0.082l-0.43,0.006l-0.426-0.142
		l-0.736-0.057l-0.035-0.085l-0.389-0.047l-0.337-0.039l-0.61-0.047l-0.334-0.139l-0.407-0.37l-0.644-0.774l-0.202-0.262
		l-0.199-0.247l-0.258-0.3l-0.136-0.281l-0.265-0.236l-0.426-0.066l-0.501,0.155l-0.338,0.187l-0.556,0.028l-0.354-0.215
		l-0.167-0.335l0.205-0.429l-0.148-0.581l-0.107-0.729l-0.471-0.896l-0.707-0.531l-0.471-0.445l-0.47-0.448l-0.505-0.243
		l-0.584-0.293l-0.452-0.316l-0.467-0.196l-0.347-0.24l-0.395-0.142l-0.338,0.013l-0.266,0.136l-0.499,0.148l-0.385,0.247
		l-0.42,0.176l-0.932,0.638l-0.65,0.19l-0.84-0.42l-0.436-0.025l-0.77,0.019l-0.739,0.019l-0.954,0.009l-0.486-0.066l-0.609-0.051
		l-0.518-0.044l-0.375-0.057l-0.41,0.029l-0.133,0.408l-0.028,0.407l0.053,0.395l-0.075,0.448l-0.284,0.335l-0.502,0.328
		l-0.316,0.477l-0.015,0.559l0.062,0.508l0.581,0.502l0.348,0.265l-0.035,0.373l-0.502,0.853l-0.211,0.183l-0.17,0.941l0.129,0.3
		l0.268,0.247l0.405,0.401l0.174,0.452l0.318,0.527l0.092,0.433l-0.117,0.303l-0.24,0.335l-0.335,0.265l-0.697,0.06l-0.591,0.161
		l-0.452,0.073l-1.064,0.01l-0.512,0.022l-0.34-0.054l-0.771-0.028l0.016,0.237l-0.199,0.474l-0.477,0.445l-0.474,0.313
		l-1.288,0.584l-1.256,0.262l-1.004,0.076l-0.625-0.177l-0.859-0.66L-90.546-48.867"/>
</g>
<g id="Layer_1_1_">
</g>
</svg>
