<?xml version="1.0" encoding="utf-8"?>
<!-- Generator: Adobe Illustrator 16.0.4, SVG Export Plug-In . SVG Version: 6.00 Build 0)  -->
<!DOCTYPE svg PUBLIC "-//W3C//DTD SVG 1.1//EN" "http://www.w3.org/Graphics/SVG/1.1/DTD/svg11.dtd">
<svg version="1.1" id="Layer_1" xmlns="http://www.w3.org/2000/svg" xmlns:xlink="http://www.w3.org/1999/xlink" x="0px" y="0px"
	 width="301.098px" height="220.546px" viewBox="-131.836 -96.426 301.098 220.546"
	 style="enable-background:new -131.836 -96.426 301.098 220.546;" xml:space="preserve">
<g id="Layer_42">
	<path id="Gujrat" style="fill:#CCCCCC;stroke:#FFFFFF;stroke-width:1.15;" d="M78.965,68.324L78.965,68.324h0.327l0.904-0.101
		l0.873-0.078l0.827-0.164l1.169-0.459l0.748-0.344l0.577-0.39l0.468-0.351l0.343-0.32l0.344-0.67l0.577-1.614l0.326-0.981
		l0.359-0.663l0.172-0.266l0.311-0.327l0.469-0.163l0.826-0.203l1.139-0.187l1.349-0.359l0.506-0.141l0.959-0.515l0.679-0.101
		l0.928-0.055l0.787-0.086l0.569-0.156l0.834-0.366l0.491-0.288l0.717-0.382l0.834-0.429l1.162-0.748l1.574-1.021l0.702-0.46
		l0.344-0.094l0.443-0.008l1.311,0.085l1.192,0.134l0.554,0.14l0.475,0.219l0.507,0.366l0.445,0.351l0.459,0.421l0.421,0.148
		l0.297,0.016l0.374-0.031l0.998-0.25l1.045-0.296l0.49-0.156l0.507-0.296l0.546-0.343l0.452-0.257l0.312-0.141l0.5,0.038
		l1.309,0.126l1.436,0.132l0.67-0.023l0.835-0.086l0.725-0.039l0.912-0.163l0.959-0.156l0.692-0.164l0.617-0.997l2.704-1.1
		l0.999-1.146l1.052-0.967l1.45-1.311l2.401-1.551l4.989-3.594l3.78-2.378l2.02-1.247l2.822-1.996l2.237-1.738l2.065-1.435
		l1.239-0.702l1.459-0.833l0.639-0.305l0.826-0.093l1.17-0.234l1.216-0.53l1.653-0.989l2.167-1.942l1.848-2.05l0.927-1.504
		l0.632-1.685l0.741-2.962l0.811-2.229l0.226-1.318l-0.117-0.607l-0.21-0.397l-0.507-0.289l-0.765-0.039l-1.465,0.094l-2.12,0.405
		l-0.982,0.202h-0.764l-0.344-0.147l-0.608-0.717l-0.553-1.146l-0.164-0.834l-0.062-0.163l0.125-0.079l0.171-0.086l0.438,0.024
		l1.216,0.327l1.006,0.148l1.161,0.062l1.092-0.071l0.826-0.257l0.576-0.397l0.515-0.92l0.219-1.014l-0.171-1.466l-0.289-0.748
		l-0.6-0.764l-0.438-0.366L160.36,9.42l-0.717-0.047l-1.692,0.172l-1.262,0.102l-0.827-0.086l-0.701-0.109l-0.444-0.358
		l-0.164-0.569l0.102-0.593l0.18-0.421l0.951-1.185l1.013-0.756l0.835-0.515l0.404-0.491l-0.077-0.468l-0.601-0.593l-2.822-1.785
		l-2.042-1.302l-0.522-0.327l-0.147-0.18l0.031-0.383l0.429-0.233l0.507,0.023l1.714,0.141l1.325-0.062l0.983-0.156l0.553-0.226
		l0.289-0.452l0.046-0.515l-0.171-0.351l-0.358-0.569l0.015-0.305l0.297-0.545l1.216-0.702l0.647-0.529l0.397-0.445l0.14-0.171
		l-0.015-0.312l-1.536-1.901l-0.257-1.724l-0.055-0.288l-0.117-0.569l-0.164-0.429l-0.108-0.249l0,0l-1.965,0.444l-0.117,0.047
		l-3.414,1.527l-2.495,1.677l-0.499,0.343l-0.476,0.327l-2.486,1.801L142.384-3.6l-4.498,0.468l-2.768-0.187l-2.417-0.46
		l-1.613-0.64l-2.331-0.928l-3.04-2.12l-2.425-2.581l-0.39-0.6l-1.528-2.347l-0.912-3.594l-0.639-1.934l-1.356,0.062l-0.835,0.031
		l-1.637-0.538l-2.058-0.662l-2.807-1.552l-1.342-0.756l-1.364-0.624l-3.079-1.403l-3.68-1.38l-1.271-0.826l-4.03-1.466l-1.06-0.374
		l-10.588-5.535l-1.652-0.546l-2.774-1.559l-3.407-1.294L74.24-38.29l-1.737-0.873l-0.312-0.172h-0.008l-6.205-2.245l-0.702-0.242
		l-2.572-1.294l-1.146-0.429l-2.533-0.951l-0.592-0.382l-0.586-0.39l-0.374-0.25l-0.53-0.233l-4.171-1.879l-2.432-0.889
		l-4.132-1.497l-2.564-1.754l-1.256-0.623l-5.004-2.503l-2.121-0.826l-3.259-0.748l-6.33-1.467l-2.541-0.787l-3.645-1.122
		l-0.998-0.312l-8.104-3.492l-1.259-0.834L6.261-66.41l-0.265-0.117l-1.029-0.443l-0.76-1.1l-0.444-0.351l-0.831-0.663L0.999-71.29
		l-5.332-7.835l-1.396-3.04l-0.792-0.779l-0.234-0.234l-0.207-0.483l-0.44-0.904l-1.275-1.006l-1.005-1.379l-7-4.055l-5.902-1.114
		l-1.828-0.086l-2.187,0.086l-1.302,0.444l-0.359,0.116l-1.941,0.188l-2.179,0.554l-4.245,1.099l-1.119,0.827l-3.146,1.2
		l-7.352,3.516l-1.142,0.538l-1.758,0.546l-3.613,0.452l-2.787,6.439l-0.214,0.732l-0.608,0.601l-0.908,0.842l-0.83,0.615
		l-0.136,0.679l-0.128,0.585l-2.101,0.561l-1.555,2.113l-1.388,1.435l-2.316,2.104l-1.598,1.934l-2.058,2.323l-2.382,2.12
		l-3.126,2.869l-3.313,3.103l-3.161,2.58l-3.497,2.347l-1.08,0.694l-1.708,1.637l-1.309,1.115l-1.867,1.442l-1.478,0.811
		l-2.276,1.294l-2.074,1.161l-1.917,1.248l-1.684,1.2l-1.723,1.528l-1.758,1.629l-2.499,2.885l-1.454,1.863l-2.456,2.97
		l-0.967,1.544l-0.569,0.943l-0.588,1.31l-0.717,1.863l-0.522,1.231l-0.838,1.248l-0.495,0.85l-0.335,0.732l-0.229,0.889
		l0.007,1.317l-0.237,2.05l-0.768,2.877l-1.037,2.869l-1.454,2.604l-1.341,2.09l-1.5,1.754l-1.844,1.855l-0.039,1.052l-0.25,0.741
		l-0.214,0.764l-0.113,0.272l-0.094,0.266l0.063,0.312l0.358,0.483l0.289,0.624l0.054,0.452l-0.191,0.896l-0.168,0.718l0.016,0.521
		l0.234,0.85l0.261,0.483l0.526,0.46l0.791,0.25l1.189,0.467l1.501,0.515l0.998,0.452l0.951,0.882l0.639,0.654l0.631,0.74
		l0.748,1.63l0.83,1.762l1.182,1.762l0.592,0.795l0.846,0.756l0.807,0.687l0.46,0.203l0.775,0.147l0.495,0.023l0.495-0.077
		l0.351-0.148l0.296-0.203l0.214-0.382l0.25-0.616l0.573-0.71l2.635,1.162l1.828,0.663l0.542,0.226l0.904,0.444l1.06,0.585
		l0.397,0.562l0.188,0.483l0.085,0.515l-0.113,0.483l-0.269,0.686l-0.265,0.499l-0.374,0.679l-0.367,0.515l-0.199,0.343l0.055,0.249
		l0.175,0.358l0.343,0.476l0.694,0.921l0.831,1.388l1.119,2.26l0.565,1.646l0.233,0.85l0.094,1.208l0.089,0.694l0.16,0.607
		l0.452,0.655l0.456,0.515l0.296,0.304l0.495,0.312l0.838,0.273l0.663,0.227l0.472,0.265l0.405,0.343l0.807,0.795l0.601,0.663
		l0.83,0.881l0.46,0.39l0.76,0.444l1.509,0.374l3.169,0.834l1.742,0.374l1.13,0.328l1.415,0.67l0.884,0.492l0.495,0.312l0.425,0.459
		l0.304,0.414l0.109,0.351l0.023,0.382l-0.125,0.266l-0.167,0.227l-0.16,0.163l-0.008,0.296l0.167,0.413l0.292,0.39l0.272,0.358
		l0.335,0.452l0.168,0.383l-0.016,0.319l0.023,0.499l-0.055,0.998l-0.167,0.569l-0.066,0.529l0.019,0.468l0.253,0.491l0.48,0.476
		l0.783,0.687l0.924,0.81l1.166,0.967l1.325,0.749l2.491,1.248l1.606,0.701l1.38,0.412l1.142,0.196l1.278,0.109l1.107,0.14
		l1.173,0.179l1.349,0.165l1.653,0.295l1.15,0.126l1.2,0.241l0.612,0.273l0.304,0.21l0.207,0.226l0.226,0.538l0.261,0.678
		l-0.016,0.531l-0.145,0.49l-0.07,0.406l-0.351,0.771l-0.495,0.717l-0.569,0.608l-0.788,0.779l-0.736,0.718l-0.261,0.343
		l-0.242,0.498l-0.16,0.375v0.358l0.167,0.351l0.047,3.142l-0.351,2.752l-0.008,0.671l-0.046,2.159v1.832l0.199,0.732l0.545,1.17
		l0.495,0.498l0.702,0.165l0.495,0.147l0.183,0.219l0.031,0.366l0.008,0.312l0.121,0.437l1.165,1.053l1.107,0.74l0.503,0.203
		l0.616,0.109l2.109,0.288l0.686,0.155l0.448,0.312l0.207,0.257l0.008,0.289l-0.105,0.522l-0.085,0.444l0.191,0.498l0.671,0.718
		l0.83,0.601l1.294,0.639l1.228,0.429l1.188,0.211l0.928,0.117l0.967,0.265l0.947,0.405l1.551,0.89l2.148,0.85l1.571,0.654
		l0.822,0.546l0.814,1.161l0.655,1.053l0.557,0.639l1.119,1.809l0.709,0.671l0.837,0.522l0.496,0.265l1.271,0.312l0.694,0.343
		l0.927,0.521l0.495,0.445l0.293,0.476l0.089,0.374l0.008,0.312l-0.359,0.351l-0.386,0.663l-0.308,0.584l-0.249,0.858l-0.047,0.834
		l-0.023,0.795l0.3,0.749l0.496,1.231l0.545,1.208l0.109,0.787l-0.078,0.765l-0.024,0.686l0.184,0.655l0.335,0.576l0.413,0.469
		l0.25,0.202l0.261,0.062l0.495,0.055l1.072,0.943l0.951,0.654l1.723-0.546l1.084-0.452l0.425-0.147l0.296-0.008l0.175,0.039
		l0.207,0.219l0.358,0.202h0.464l0.908-0.46l1.208-0.718l2.164-0.85l1.166-0.382l2.058-0.865l0.814-0.358l1.372-0.507l1.805-0.46
		l0.534-0.016l0.378,0.125l0.375,0.335l0.725,0.25l1.325,0.015l1.142-0.015l0.831-0.055l1.013-0.328l1.478-0.374l0.959-0.312
		l2.226-0.951l1.622-0.593l2.49-0.826l1.614-0.725l0.9-0.616l0.83-0.624l0.472-0.521l0.624-0.967l0.518-0.858l0.292-0.521
		l0.499-0.788l0.421-0.53l0.861-0.701l0.897-0.663l0.709-0.576l0.534-0.663l0.686-1.005l0.808-1.146l0.76-1.045l0.702-0.873
		l0.798-1.138l0.749-0.842l0.701-0.616l0.952-0.663l1.367-0.631l1.442-0.842l1.178-0.804l1.411-1.177l0.834-0.577l0.452-0.312
		l0.437-0.009l0.421,0.04l0.468,0.171l0.312,0.64l0.499,1.388l0.266,1.161l0.452,0.85l0.374,0.562l0.67,0.327l0.779,0.163
		l0.655-0.007l0.507-0.227l0.46-0.312l0.234-0.522l0.046-0.562l-0.374-0.85l-0.327-0.85l-0.094-0.679l-0.086-0.437l0.226-0.522
		l0.312-0.351l0.405-0.266l0.858-0.101l0.537-0.102l0.725-0.312l0.827-0.671l0.553-0.312l0.46-0.227l0.835-0.101h0.538l0.967-0.157
		l0.833-0.218l0.538-0.155l0.967-0.016l0.499-0.148l0.53-0.219l0.85-0.179l0.538-0.179l0.483-0.273l0.405-0.265l0.296-0.211
		l0.53-0.701l2.823-3.648l0.756-1.217l0.357-0.358l0.359-0.125h0.241l0.188,0.031l0.171,0.133l0.134,0.257l0.163,0.296l0.172,0.134
		h0.304l0.297-0.312l0.459-0.491l1.106-0.881l0.936-0.687l0.547-0.265l0.42-0.148h0.538l0.67-0.147l0.461-0.164l0.717-0.358
		l0.499-0.405l1.107-0.577l1.13-0.671l0.959-0.577l0.843-0.662l0.498-0.351l0.187-0.218l0.11-0.483l-0.016-0.555l-0.078-0.475
		l-0.062-0.452l-0.008-0.296l0.233-0.397l0.289-0.555l0.117-0.265l-0.008-0.171l-0.305-0.165l-0.194-0.249l0.047-0.124l0.163-0.266
		l0.491-0.148l0.796,0.071l0.421,0.249l0.795,0.943l0.521,0.787l0.32,0.344l0.601,0.062l0.725,0.038l0.546-0.008l0.187-0.219
		l0.094-0.429l-0.078-0.873l-0.07-0.686l0.102-0.476l0.358-0.437l0.297-0.312l1.014-0.422l4.514-1.449l1.162-0.242h0.311
		l0.195,0.172L78.965,68.324"/>
</g>
<g id="Layer_1_1_">
</g>
</svg>
