<?xml version="1.0" encoding="utf-8"?>
<!-- Generator: Adobe Illustrator 16.0.4, SVG Export Plug-In . SVG Version: 6.00 Build 0)  -->
<!DOCTYPE svg PUBLIC "-//W3C//DTD SVG 1.1//EN" "http://www.w3.org/Graphics/SVG/1.1/DTD/svg11.dtd">
<svg version="1.1" id="Layer_1" xmlns="http://www.w3.org/2000/svg" xmlns:xlink="http://www.w3.org/1999/xlink" x="0px" y="0px"
	 width="301.201px" height="511.942px" viewBox="-139.354 -237.285 301.201 511.942"
	 style="enable-background:new -139.354 -237.285 301.201 511.942;" xml:space="preserve">
<g id="Layer_80">
	<path id="Malir" style="fill:#CCCCCC;stroke:#FFFFFF;stroke-width:1.15;" d="M-118.23-5.134L-118.23-5.134l3.637,5.638l1.915,0.997
		l5.284,0.054l3.597,0.599l5.731,3.117l7.539,7.08l2.739,4.056l1.023,3.065l0.054,2.055l-0.326,1.488l-2.586,1.822l-6.156,2.546
		l-6.522,2.366l-6.714,2.401l-9.314,4.294l-5.199,2.673l-3.536,1.621l-0.113,0.944l0.983,1.516l2.547,3.538l3.344,5.384l4.481,5.386
		l5.231,5.531l7.513,6.195l4.973,2.779l2.507,1.849l2.3,1.994l0.572,0.16l0.938-0.026l6.329-3.046l4.427-3.35l5.485-6.529
		l2.712-3.988l1.795-3.458l0.738-0.531l1.13-0.026l3.059,2.154l3.995,1.276l4.747,1.448l4.793,3.311l6.144,4.282l4.248,4.229
		l4.095,5.743l5.638,7.207l4.508,6.968l0.611,1.647l0.439,2.208l-0.532,1.223l-1.47,1.038l-3.091,4.547l-3.258,5.226l-5.472,6.555
		l-7.326,7.554l-6.057,5.397l-5.558,3.696l-1.675,0.559l-3.757,0.093l-6.588-0.358l-3.012,0.053l-3.936,0.612l-6.722,1.674
		l-3.012,0.107l-4.913-1.091l-4.168-0.798l-5.638-0.053l-5.811,0.851l-5.598,1.623l-10.378-1.118l0.04,0.174l0.113,0.305
		l0.133,0.586l-0.014,0.784l-0.04,0.625l-0.119,0.293l-0.04,0.426l-0.014,0.717l0.066,0.666l0.146,0.664l0.26,0.851l0.152,0.586
		l0.326,0.943l0.105,0.731l0.014,0.398l-0.04,0.347l-0.206,0.425l-0.173,0.187l-0.285,0.279l-0.246,0.199l-0.106,0.239l-0.033,0.187
		l-0.066,0.345l-0.133,0.293l-0.04,0.532l-0.06,0.612l-0.054,0.332l-0.054,0.492l0.08,0.598l0.18,0.359l0.272,0.306l0.419,0.332
		l0.18,0.187l0.206,0.292l0.119,0.28l-0.013,0.146l-0.232,0.293l-0.353,0.159l-0.366,0.213l-0.1,0.253l-0.026,0.278l-0.093,0.426
		l-0.04,0.546l-0.08,0.678l-0.166,0.519l-0.18,0.412l-0.026,0.372l0.026,0.359l0.206,0.784l0.18,0.426l0.186,0.332l0.014,0.306
		l-0.053,0.293l-0.26,0.465l-0.066,0.279v0.293l0.066,0.372l0.027,0.386l-0.173,0.545l-0.26,0.412l-0.286,0.333l-0.326,0.479
		l-0.285,0.318l-0.206,0.293l-0.366,0.346l-0.285,0.267l-0.113,0.186l-0.093,0.293l-0.14,0.491l-0.054,0.678v0.64l0.073,0.61
		l0.106,0.399l0.026,0.346l-0.039,0.399l-0.153,0.452l-0.286,0.903l-0.093,0.572l0.013,0.306l0.04,0.267l0.18,0.292l0.259,0.333
		l0.393,0.479l0.466,0.585l0.379,0.598l0.353,0.519l0.585,0.812l0.179,0.385l0.193,0.546l0.08,0.293l0.079,0.292l0.312,0.479
		l0.233,0.798l0.126,0.545l0.299-0.385l0.745-0.759l0.412-0.306l0.312-0.106l0.831-0.133l0.678-0.026l0.18-0.053l0.053-0.094v-0.146
		l-0.119-0.293l-0.299-0.425l0.026-0.173l0.079-0.106l2.327-1.715l1.023-0.745l0.134-0.053l0.126,0.026l0.705,0.798l0.711,0.824
		l0.16,0.187h0.126l0.599-0.293l4.753-2.34l3.942-1.968l0.658-0.293l0.106-0.014l0.093,0.04l1.283,2.34l0.366,0.64l1.622,3.031
		l0.844,1.436l0.106,0.293l0.1,0.611l0.366,2.021l0.066,0.279l0.1,0.093h0.286l1.755-0.346l5.638-1.011l1.522-0.266l3.012-0.559
		l0.458-0.134l0.585,0.067l0.726,0.146l-0.113,0.133l-0.512,0.584l-1.051,1.276l-1.47,1.623l-0.751,0.877l-0.206,0.24l-0.133,0.239
		l-0.014,0.079l0.206,0.187l1.117,0.984l0.213,0.292l0.013,0.12l-0.146,0.172l-0.585,0.719l-1.456,1.622l-0.765,0.852l-0.093,0.159
		l0.026,0.266l0.08,0.825l-0.106,0.505l-0.167,0.212l-0.232,0.026l-0.173,0.027H-93.3l-0.26,0.026l-0.086,0.08l-0.08,0.146
		l-0.013,0.254l-0.106,0.292l-0.22,0.346l-0.126,0.358l-0.134,0.599l-0.179,0.346l-0.133,0.133l-0.412,0.08l-0.239,0.106
		l-0.047,0.186l0.047,0.984l-0.073,0.864l-0.227,0.664l-0.22,0.174l-0.365,0.079l-0.22,0.134l-0.126,0.292l-0.053,0.333
		l-0.146,0.332l-0.232,0.239l-0.546,0.398l-0.152,0.372l-0.213,0.771l-0.286,0.784l-0.126,0.279l0.026,0.426l0.054,0.267
		l0.412,0.877l0.04,0.214l-0.134,0.318l-0.033,0.559v0.479l0.014,0.213l0.046,0.133l0.2,0.279l0.013,0.172l-0.039,0.333l-0.04,0.359
		l0.04,0.398l0.112,0.332v0.279l-0.179,0.293l-0.312,0.267l-0.506,0.292l-0.339,0.266l-0.14,0.479l-0.159,0.279l0.04,0.279
		l0.079,0.346l0.18,0.094l0.445,0.053l2.44,0.094l1.635,0.079l2.327,0.213l4.973,0.239l3.85,0.267l1.063,0.106l1.908,0.079
		l1.482,0.159l0.718,0.213l0.206,0.106l0.08-0.106l0.153-0.451l1.09-3.111l0.379-0.865l0.438-1.449l0.845-2.499l0.924-2.66
		l0.286-0.811l0.519-1.423l0.433-1.117l0.518-1.596h1.064l3.29-0.133l5.013-0.119l7.38-0.146l2.958-0.106l3.537-0.079l0.166,0.053
		l0.054,0.212l-0.04,0.852l-0.113,0.173l-0.159,0.053l-1.43,0.12l-1.688,0.04l-0.897,0.039l-0.206,0.107l-0.066,0.253l-0.113,0.491
		l-0.04,1.995l-0.093,1.755l-0.026,0.293l0.093,0.265l0.22,0.293l0.013,0.186l-0.1,0.134l-0.598,0.279l-1.131,0.518l-0.937,0.586
		l-0.738,0.319l-0.146,0.159l-0.014,0.146l0.08,0.279l0.066,0.292l-0.173,0.293l-0.751,0.584l-0.845,0.479l-1.063,0.691
		l-0.259,0.279l-0.273,0.333l-0.638,1.116l-0.246,0.293l-0.213,0.105l-2.233,0.692l-1.35,0.371l-0.26,0.027l-0.219-0.106
		l-0.393-0.346l-0.326-0.279l-0.126-0.054l-0.173,0.12l-0.372,0.692l-0.133,0.186l-0.193,0.053h-0.651l-0.325-0.026l-0.087-0.08
		l0.033-0.159l0.199-0.199l0.026-0.173l-0.119-0.053l-0.312-0.107l-0.365-0.133l-0.233,0.067l-0.452,0.358l-0.977,0.638
		l-0.399,0.239l-0.08,0.187l0.014,0.173l0.093,0.226l0.113,0.279l0.093,0.054l0.167-0.014l0.744-0.319l0.545-0.265l0.192-0.015
		l0.12,0.054l0.546,0.519l0.086,0.159l-0.047,0.213l-0.199,0.279l-1.596,1.596l-0.445,0.492l-0.126,0.199l0.066,0.173l0.585,0.505
		l1.336,1.171l1.729,1.729l1.496,1.675l1.063,1.516l0.399,0.719l-0.14,0.105l-0.665,0.2h-1.196l-0.998,0.04l-1.575,0.146
		l-1.163,0.092l-1.522,0.267l-0.885,0.067l-0.585-0.094l-0.938-0.267l-0.957-0.292l-1.063-0.639l-0.871-0.505l-0.845-0.466
		l-1.715-0.585l-1.522-0.492l-1.323-0.318l-1.416-0.333l-1.13-0.491l-1.43-0.798l-2.393-1.409l-0.686-0.399l-0.119-0.053
		l-0.054,0.106l0.04,0.306l0.206,1.17l0.817,4.521l0.719,3.988l0.624,3.684l0.439,2.553l0.066,0.187l0.093,0.054l0.373-0.08
		l2.559-0.453l3.431-0.743l5.571-1.118l0.445,1.729l0.093,0.278h0.141l1.21-0.278l2.698-0.479l3.032-0.61l3.477-0.666h0.366
		l0.093,0.054l0.127,0.505l0.312,0.612l0.871,0.971l0.326,0.279h0.192l0.106-0.08l0.18-0.12l0.106-0.014l0.026,0.106l-0.04,0.293
		l-0.259,1.264l-0.479,1.529l-0.08,0.292l0.08,0.585l0.452,2.141l0.139,0.452l-0.046,0.133l-0.173,0.12l-3.923,0.824l-1.522,0.293
		l-0.259,0.133L-66.548,234l-0.611,0.852l-0.079,0.133l0.093,0.226l1.429,1.144l0.546,0.359l0.026,0.16l-0.067,0.159l-1.827,2.048
		l-1.716,1.954l-0.459,0.519l-0.152,0.08l-0.18-0.094l-0.718-0.584l-2.015-1.623l-1.948-1.528l-0.379-0.279l-0.246-0.04l-0.479,0.04
		l-0.179,0.146l-0.014,0.159l0.426,1.556l0.519,1.928l0.459,1.649l-0.014,0.132l-0.419,0.159l-1.648,0.426l-0.625,0.16L-78.461,244
		l-1.47,0.159l-1.05,0.199l-0.571,0.12l-0.134,0.106l-0.02,0.213l0.246,1.011l0.285,1.303l-0.053,0.24l-0.133,0.132l-1.729,0.452
		l-0.698,0.054l-0.472,0.105l-1.23,0.453l-1.018,0.505l-0.97,0.532l-0.572,0.133l-0.938,0.133l-1.09,0.187l-1.39,0.293l-1.975,0.531
		l-0.978,0.212l-0.685,0.373l-0.791,0.838l-0.599,0.69l-0.133,0.041l-0.22-0.106l-0.924-0.678l-1.257-0.812l-0.757-0.506
		l-0.286-0.252l-0.1-0.332l-0.473-2.567l-0.206-1.183l-0.452-1.995l-0.325-1.316l-0.08-0.278l-0.119-0.054l-0.572,0.106l-1.19,0.253
		l-0.884,0.119l-0.187-0.026l-0.112-0.106l-0.106-0.532l-0.519-1.94l-0.054-0.106l-0.152-0.026h-0.133l-1.815,0.345l-2.486,0.519
		l-3.258,0.666l-1.469,0.306l-0.559-0.267l-0.791-0.505l-1.25-0.771l-0.884-0.599l-0.672-0.146l-0.499-0.238l-0.465-0.279
		l-0.871-0.253l-0.95-0.12l-0.646-0.105l-0.731-0.307l-0.804-0.506l-0.492-0.212l-0.897-0.372l-1.184-0.532l-0.957-0.612
		l-0.213-0.079l-0.087,0.133l0.073,0.426l0.106,0.665l-0.18,0.266l-0.392,0.611l-1.211,1.782l-0.411,0.519l-0.233,0.039
		l-3.796,0.319l0.232,1.091l0.366,1.144l0.166,0.678l0.106,0.759l-0.014,0.823l-0.219,1.29l-0.08,0.917l0.04,0.944l-0.286,1.503
		l-0.173,1.875l0.053,0.426l0.173,0.385l0.765,1.489l0.18,0.292l4.601,1.091l0.778,0.332l0.844,0.758l0.3,1.41l0.598,1.622
		l0.924,1.489l0.911,0.664l1.662,1.317l-1.144-3.125l2.027-3.803l-0.379-3.165l1.43,0.426l3.237,6.516l1.855,0.983l1.21-5.132
		l-0.845-4.694l1.117-1.21l2.207,0.267l5.146,8.802l2.52,1.516l3.868-0.479l2.627-2.207l2.572-0.24l6.03-4.307l3.184-1.197
		l2.986,0.293l1.729,1.383l3.224,5.956l2.972-0.318l0.925-0.479l1.09-0.533l3.118,0.027l1.509-1.077l1.815-3.071l1.521-0.771
		l1.909-3.723l4.447-1.994l4.035-5.571l2.147-1.25l3.483-0.279l1.988,1.25l0.112,2.686l1.609,1.25l5.06,0.532l1.476,1.303
		l0.857,2.46l3.059,1.928l0.831,1.316l-0.845,1.502l0.346,2.367l1.702,0.399l7.513-3.099l7.233-0.358l13.867,4.147l14.394,4.188
		l0.192,1.423l2.626,1.091l3.352-0.239l5.524-4.256l2.832-0.385l8.071,1.263l1.954-1.01l-0.226-2.049l-0.027-1.222l1.276-0.852
		l2.46-0.266l1.675,0.292l1.702-0.372l4.108-0.878l2.061,0.292l0.945,0.307l2.233-0.386l5.97-1.144l3.178-0.053l7.167,1.409
		l3.019,0.279l1.29-0.705l1.834-2.5l0.651-4.241l0.413-6.183l-0.785-9.732l-0.106-4.149l1.809-2.565l0.918-1.051l0.758-0.014
		l3.763,0.812l5.092,0.399l4.123-0.267l3.403,0.106l1.529,1.675l1.755,3.391l3.816,3.125l2.898,3.604l4.028,3.684l5.704,3.483
		l6.437,3.803l8.323,2.552l6.807,2.288l8.271,0.731l6.224,1.423l2.818-0.054l2.566-1.596l0.864-2.233l-0.306-1.995l-1.423-8.35
		l-3.616-10.891l-7.486-15.782l-6.848-12.339l-5.878-10.649l-3.763-8.471l-2.272-9.015l-1.41-12.286l-2.181-13.482l-0.638-3.351
		l-1.702-8.562l-0.159-5.824v-8.59l-0.293-5.292l-1.808-5.451l-5.399-5.717l-6.927-6.702l-6.011-7.232l-9.373-6.861l-12.499-7.087
		l-14.652-6.928l-16.194-8.217l-11.223-5.292l-5.518-1.769l-10.971-2.912L4.854,50.923l-4.128-1.528l-4.395-2.846l-4.248-4.042
		l-3.45-2.128l-3.976-1.303l-3.252-1.995l-1.375-1.701l-0.612-2.009l-0.04-1.715l1.224-3.265l1.935-5.69l0.625-4.946l3.211-7.246
		l4.933-6.615l2.52-5.186L-3.07-5.62l3.117-3.803l5.353-4.367l3.716-2.301l1.51-3.118l3.27-5.219l0.665-3.225l-0.079-3.742
		l1.07-2.248l2.439-1.076l3.165-1.603l1.117-0.711l1.116-0.207l0.386,0.698l0.784,1.482l0.811,1.496l0.759-0.013l1.33-0.339
		l3.098-4.495l4.241-11.913l5-12.632l2.14-4.281l0.333-1.928l-1.011-2.56l-0.824-2.015l-0.026-2.233l1.063-2.44l3.124-5.677
		l3.472-12.433l3.217-7.599l3.219-6.422l2.777-2.779l2.939-3.497l0.718-2.247l-0.054-1.908l-1.023-3.703l-3.576-7.651l-2.846-8.51
		l-1.063-4.408l-0.106-5.325l-0.133-5.152l-2.473-16.075l-0.107-5.159l-0.159-7.026l-0.306-5.339l0.837-11.654l-0.425-1.868
		l-0.798-2.406l-2.021-4.548l-1.809-4.102l-0.665-3.717l-0.505-5.332l-0.825-2.565l-1.556-1.862l-1.369-0.844l-2.446,0.393
		l-2.819,1.076l-5.451,1.144l-2.846-0.286l-3.404-0.119l-2.073,0.04l-6.628,0.286l-5.393-0.599l-2.739,9.201l-2.705,7.545
		l-6.402,10.771l-4.48,5.186l-6.615,3.557l-9.899,3.77l-3.324,2.248l-0.418,2.965l-0.452,4.606l-0.094,4.641l-3.038,6.522
		l-3.377,5.198l-7.008,5.498l-6.974,2.865l-5.484,1.901l-4.794,3.205l-4.507,7.499l-2.819,6.535l-8.496,7.445l-5.551,5.193
		l-1.517,3.264l-0.159,8.576l0.226,7.233l0.845,13.216l-1.914,5.911l-3.013,5.544l-6.302,7.12l-1.882,2.952l-0.419,3.649
		l-1.528,3.637l-0.08,4.614l0.206,4.168l-0.672,6.874l1.896,0.871l-0.572,0.319l-2.64,1.701l-3.517,3.112l-2.938,3.517l-4.068,7.652
		l-1.489,3.936l-0.459,2.313l0.246,2.081l-0.272,2.6l-2.074,2.52l-2.818,2.027l-1.902,2.154L-118.23-5.134"/>
</g>
<g id="Layer_1_1_">
</g>
</svg>
