<?xml version="1.0" encoding="utf-8"?>
<!-- Generator: Adobe Illustrator 16.0.4, SVG Export Plug-In . SVG Version: 6.00 Build 0)  -->
<!DOCTYPE svg PUBLIC "-//W3C//DTD SVG 1.1//EN" "http://www.w3.org/Graphics/SVG/1.1/DTD/svg11.dtd">
<svg version="1.1" id="Layer_1" xmlns="http://www.w3.org/2000/svg" xmlns:xlink="http://www.w3.org/1999/xlink" x="0px" y="0px"
	 width="300.996px" height="89.716px" viewBox="-110.372 -32.612 300.996 89.716"
	 style="enable-background:new -110.372 -32.612 300.996 89.716;" xml:space="preserve">
<g id="Layer_50">
	<path id="Jaccobabad" style="fill:#CCCCCC;stroke:#FFFFFF;stroke-width:1.15;" d="M-104.874,44.079L-104.874,44.079l0.786,0.414
		l0.963,0.515l0.845,0.608l0.859,0.629l0.48,0.342h0.377l0.413-0.05l0.74-0.156l1.61-0.444l0.738-0.121l1.399-0.015l1.017,0.036
		l0.812,0.078l1.627,0.272l0.937,0.193l0.331,0.078l0.325-0.058l0.534-0.271l0.933-0.551l0.625-0.5L-88,44.79l0.656-0.125
		l1.086-0.05l1.654,0.024l0.314,0.076l0.265,0.228l0.384,0.787l0.145,0.393l0.209,0.122l0.311,0.05l0.245-0.008l0.722-0.064
		l1.651-0.2L-79.324,46l0.753,0.136l0.517,0.294l0.336,0.314l0.476,0.464l0.469,0.729l0.592,0.8l0.589,0.844l0.667,0.937
		l0.552,0.832l0.479,0.732l0.331,0.653l0.227,0.396l0.021,0.044l0.22,0.515l0.282,0.292l0.761,0.086h0.801l0.439-0.118l0.339-0.524
		l0.352-0.622l0.154-0.074l0.289-0.055l0.584-0.014l1.23,0.128l1.967,0.179l1.746,0.114l1.106,0.079l0.838,0.078l0.227,0.125
		l0.143,0.189l0.164,0.458l0.311,0.715l0.213,0.282l0.227,0.082h0.292l0.38-0.236l0.209-0.222l0.292-0.074l0.158,0.018l0.405,0.157
		l0.271-0.004l0.193-0.118l0.227-0.686l0.146-0.329l0.15-0.15l0.209-0.078l0.255-0.004l1.051,0.012l0.75,0.171l0.904,0.45
		l0.325,0.336l0.359,0.322l0.391,0.054l0.853,0.074l1.606,0.078l1.369,0.058l1.183-0.042l1.125-0.18l0.227-0.078l0.209-0.164
		l0.077-0.101l-0.043-0.351l-0.128-0.25l-0.224-0.582l-0.091-0.274l0.029-0.15l0.084-0.025l0.3,0.054l0.991,0.236l1.396,0.521
		l0.318,0.172l0.186,0.082l0.191,0.025l0.091-0.043l0.04-0.215l0.041-0.231l0.021-0.354l0.014-1.215l-0.054-1.207l-0.062-1.888
		l-0.157-1.514l-0.104-1.391l0.027-0.897l-0.143-1.057l0.004-0.586l0.077-0.93l0.154-1.051l0.036-0.378l0.079-0.387l0.064-0.672
		l0.03-0.4l0.095-0.899l0.194-1.823l0.263-1.665l0.189-2.036l0.227-2.073l0.154-0.828l0.227-1.451l0.016-0.993l-0.013-1.058
		l-0.007-0.7l0.081-0.5l0.077-0.286l0.132-0.118l0.227-0.068l0.747,0.044l0.724,0.1l0.75,0.164l0.929,0.172l1.084,0.157l0.888,0.064
		l1.134,0.129l0.915,0.229l0.611,0.156l0.641,0.08l0.472-0.004l0.577-0.025l1.054-0.107l1.131-0.1l0.656-0.15l0.793-0.4l0.534-0.149
		l0.517-0.15l0.468-0.172l0.863-0.293l0.771-0.172l0.693-0.192l0.688-0.172l0.695-0.25l0.651-0.389l0.655-0.404l0.743-0.69
		l0.607-0.382l1.142-0.771l1.14-0.668l1.472-0.579l1.488-0.479l1.599-0.348l1.767-0.274l1.19-0.075l1.033,0.086l1.148,0.258
		l0.515,0.1l0.579,0.11l1.777,0.226l0.688,0.192l0.077,0.022l1.603,0.078l0.872-0.046l0.688,0.054l0.73,0.156l0.488,0.054
		l0.405-0.054l0.824-0.078l0.813-0.078l0.915-0.144l0.677-0.086l0.775-0.057l0.992,0.078l1.115,0.064l0.659,0.136l1.711,0.39
		l0.992,0.246l1.365,0.465l0.98,0.386l0.688,0.308l0.568,0.418l0.64,0.382l0.691,0.286l1.025,0.357l0.955,0.364L16.35,23.6
		l0.872,0.118l0.754,0.079l0.94-0.071l0.677-0.11l1.038-0.026l0.754,0.079l1.336,0.229l0.974,0.25l0.999,0.385l1.131,0.551
		l0.812,0.479l0.655,0.43l0.831,0.307l0.992,0.271l1.247,0.225l0.97,0.076l1.093,0.106l0.531,0.186l0.922,0.222l0.956,0.422
		l1.562,0.493l0.896,0.157l0.556,0.035l0.575,0.072L39.329,29l0.929,0.379l0.72,0.372l0.715,0.436l0.387,0.243l0.38,0.136
		l0.242,0.021l0.364-0.128l0.308-0.154l0.307-0.188l0.314-0.104l0.547-0.383l0.562-0.226l0.915-0.274l0.489-0.058l0.74-0.192
		l0.55-0.172l0.465,0.136l0.435,0.344l0.351,0.285l0.49,0.232l0.096,0.029l0.394,0.114l0.415-0.076l0.435-0.196l0.387-0.382
		l0.328-0.411l0.254-0.246l0.193-0.079l0.097,0.079l0.153,0.278l0.075,0.515l0.118,0.524l0.156,0.383l0.247,0.422l0.219,0.2
		l0.317,0.222l0.571,0.064l0.732,0.006l0.848-0.092l1.343-0.4l1.026-0.386l0.532-0.086l0.839-0.133l1.083,0.076l0.89,0.121
		l0.664,0.314l0.798,0.535l1.45,1.095l1.265,1.057l0.937,1.019l2.223,2.412l1.247,1.516l0.347,0.353l0.075,0.226v0.143l-0.075,0.379
		l-0.021,0.079l-0.144,0.379l-0.074,0.378l-0.075,0.229l0.029,0.25l0.114,0.515l0.402,0.708l0.69,0.84l0.561,0.532l0.532,0.572
		l0.536,0.628l0.279,0.426l0.189,0.061l0.225-0.028l0.729-0.379l0.837-0.836l0.872-0.84l0.989-0.983l0.547-0.378l0.379-0.101h0.229
		l0.443,0.258l0.66,0.535l0.662,0.397l0.568,0.211l0.675,0.486l0.472,0.4l0.793,0.406l1.233,0.501l0.825,0.178l0.814,0.036l1.2-0.11
		l0.801-0.126l1.493-0.292l1.416-0.486l0.453-0.379l0.226-0.532l0.014-0.704l-0.442-1.93l-0.411-1.101l-0.094-0.314l0.137-0.421
		l0.39-0.814l0.382-0.533l0.39-0.661l0.128-0.547l0.015-0.382l-0.265-1.144l-0.229-0.5l-0.074-0.644l0.2-0.422l0.421-0.378
		l0.29-0.229l0.256-0.232l0.226-0.336l0.255-0.211l0.406-0.232l0.45-0.411l0.465-0.729l0.578-0.547l0.45-0.24l0.973-0.3l0.808-0.221
		l1.086-0.094l1.215-0.182l0.229-0.039l0.675-0.086l1.02-0.222l0.689-0.229l0.633-0.687l0.778-0.457l0.555-0.229l0.739-0.063
		l1.555-0.043l0.743-0.082l0.479-0.212l0.336-0.492l0.3-0.593l0.525-0.486l0.4-0.136l0.628,0.007l1.333,0.229h0.532l0.337-0.214
		l0.929-0.915l1.226-1.322l1.114-1.129l0.744-1.079l0.597-0.915l0.371-0.328l0.736-0.34h0.378l0.368,0.067l0.19-0.082l0.554-0.496
		l0.3-0.072l0.183,0.194l0.779,0.593l0.679,0.328l0.774,0.465l1.111,0.229l1.001,0.296l0.922,0.204l0.965,0.3l1.922,0.301h0.244
		l0.3-0.383l0.707-1.841l0.672-1.375l1.136-1.662l1.179-1.293l0.494-0.226l0.242-0.132l0.051-0.095l0.042-0.228l0.004-0.332
		l0.15-0.502l0.296-0.227l0.572-0.136l-0.725-0.252l-0.841-0.497l-0.339-0.414l0.032-0.38l0.164-0.545l0.533-0.695l0.621-0.992
		l0.472-0.992l0.25-1.141l0.004-0.436l-0.118-0.981l-0.336-0.87l-0.225-0.465l-0.115-0.597l1.051,0.472l0.894,0.472l0.583,0.53
		l0.899,0.688l0.646,0.554l0.78,0.379l0.989,0.439l0.178,0.143l0.469-0.915l0.536-1.334l0.04-0.841l-0.032-0.55l0.188-0.296
		l0.24-0.131l0.835-0.034l1.24,0.177l0.59,0.2l0.153,0.271l0.308,0.406l0.433,0.439l0.371,0.237l0.708,0.38l0.528,0.415l0.772,0.493
		l0.511,0.077l0.929-0.165l0.5-0.22l0.533,0.004l0.9,0.003l1.125,0.339l0.493,0.247l0.211,0.178l-0.021-0.977l-0.15-0.929
		l-0.057-1.417l-0.079-1.013l-0.15-1.038l-0.389-1.271l-0.464-0.938l-0.74-0.772l-0.687-0.808l-0.543-0.904l-0.343-0.74
		l-1.144-2.037l-0.429-0.84l-0.997-1.9l-0.461-0.832l-0.536-0.791l-0.543-0.88l-0.508-0.535l-0.371-0.363l-0.182-0.307l-0.308-0.531
		l-0.587-0.936l-0.156-0.359l0.038-0.38l0.122-0.464l0.222-0.275l0.751-0.435l1.3-0.38l0.529-0.059l0.561-0.062l0.533,0.227
		l1.011,1.351l2.04,2.887l0.308,0.838l0.15,0.709l0.188,0.577l0.24,0.331l0.45,0.255l1.521,0.202l0.99,0.07l1.365-0.077l0.86-0.237
		l1.18-0.404l0.687-0.099l0.578,0.034l0.515,0.141l1.701,0.845l1.751,1.358l1.297,0.992l0.646,0.831l0.707,0.718l1.001,1.237
		l1.071,1.386l0.551,0.632l0.958,0.838l0.818,0.245l0.989,0.007l0.69-0.134l0.703-0.359l0.532-0.534l0.99-0.874l1.101-0.757
		l0.743-0.381l0.557-0.166l0.312-0.057l0.715,0.139l0.232,0.168l1.708,0.077l0.975-0.418l1.819-0.64l2.058-0.6l2.466-0.856
		l0.229-0.384l0.168-0.373l0.15-0.747l-0.011-0.325l-0.153-0.391l-0.461-0.534l-0.094-0.243l-0.06-0.234l0.014-0.214l0.114-0.6
		v-0.177l-0.082-0.38l-0.129-0.214l-0.328-0.38l-0.15-0.074l-0.336-0.041l-0.676,0.095l-0.597-0.116l-0.328-0.129l-0.051-0.042
		l-0.313-0.272l-0.064-0.178l-0.078-0.677l-0.08-0.077l-0.186-0.01l-0.074,0.035l-0.032,0.111l-0.044,0.42l-0.114,0.044
		l-0.085-0.011l-0.086-0.128l-0.14-0.261l-0.074-0.21v-0.143l0.064-0.227l0.182-0.227l0.293-0.282l0.157-0.321l-0.039-0.048
		l-0.232-0.07l-0.854-0.057l-0.314,0.102h-0.104l-0.646-0.181l-1.372-0.277l-0.464-0.157l-0.537-0.077l-0.229,0.007l-0.143-0.036
		l-0.129-0.24l-0.257-0.688l-0.765-0.988l-0.25-0.458l-0.094-0.113l-0.07-0.121l-0.019-0.15l-0.439-0.336l-0.989-0.795l-1.055-0.915
		l-0.436-0.406l-0.193-0.087l-0.74-0.293l-1.518-0.395l-0.7-0.171l-1.673-0.213l-0.886-0.227l-1.144-0.238l-0.851-0.041l-0.93,0.08
		l-1.117,0.227l-1.709,0.066l-1.485-0.102l-1.223-0.206l-1.818-0.38l-1.112-0.377l-0.997-0.3l-0.965-0.384l-0.3-0.2l0.004-0.227
		l0.104-0.334l0.683-0.717l0.825-0.837l0.79-0.788l0.683-0.525l0.15-0.293v-0.205l-0.226-0.202l-1.447-0.311l-2.937-0.5
		l-2.599-0.404l-2.115-0.175l-4.012-0.747l-2.608-0.423l-1.415-0.077l-1.141-0.01l-2.969,0.112l-1.411,0.073l-0.931,0.157
		l-1.003,0.329l-0.887,0.202l-1.565,0.227l-1.449,0.377l-0.559,0.227l-0.382,0.206l-0.347,0.366l-0.246,0.534l-0.347,0.779
		l-0.548,0.992l-0.41,0.545l-0.293,0.329l-0.45,0.16l-2.97,0.265l-2.505,0.119l-2.115-0.011l-2.895-0.077l-4.373-0.003l-3.279,0.027
		l-2.935-0.041l-1.653,0.094l-1.216,0.077l-1.536,0.077h-2.309l-2.107-0.004h-0.294l-1.536,0.074l-1.462,0.066l-1.132,0.059
		l-1.979,0.136l-1.823,0.138l-2.851,0.096l-2.516,0.066l-1.658,0.105l-1.869,0.256l-1.375,0.084l-1.187,0.051l-0.894,0.091
		l-1.508,0.188l-0.836,0.098l-1.661,0.036l-2.756,0.166l-2.879,0.165l-1.295,0.077l-1.285,0.091h-2.208l-3.452,0.102l-2.717,0.076
		l-2.525,0.077l-1.433-0.127H48.24l-1.05-0.026l-0.894-0.077l-1.165-0.077l-1.215-0.077l-1.072-0.01l-2.234,0.041l-1.717,0.077
		l-1.463,0.087l-1.417-0.018l-2.011-0.011l-1.94-0.051l-2.407-0.038l-2.056,0.082l-2.207,0.102l-1.907,0.039l-1.658-0.025
		l-3.345-0.044l-2.378,0.037l-1.976,0.007l-2.696-0.059L9.64-22.353l-3.15-0.044l-2.353,0.044l-3.14-0.018l-3.106-0.055
		l-2.057,0.007l-3.048-0.077l-2.667-0.036l-1.638,0.043l-0.645-0.007l-0.709-0.014l-2.147-0.044l-1.889,0.052l-1.848-0.052
		l-1.295,0.038l-0.534,0.042l-0.381,0.165l-0.935,0.69l-1.572,1.072l-2.125,1.449l-1.701,1.141l-1.56,1.058l-0.552,0.511
		l-0.59,0.538l-0.534,0.827l-0.395,0.992l-0.838,1.76l-0.75,1.603l-0.973,2.017l-1.196,2.508l-0.688,1.476l-0.282,0.646
		l-0.699,1.504l-0.659,1.379l-0.458,0.586l-0.405,0.37l-0.464,0.293l-0.565,0.148l-1.328,0.331l-2.363,0.709l-1.694,0.499
		l-2.653,0.702L-48.6,2.971l-1.753,0.534l-1.771,0.563l-1.826,0.48l-1.899,0.534l-1.54,0.443l-1.928,0.569l-0.52,0.136l-0.198,0.216
		L-60.4,6.662l-0.291,0.229l-1.036,0.775l-0.992,0.805l-0.72,0.554l-0.38,0.336l-1.242,0.961l-0.881,0.689l-1.34,1.065l-0.849,0.702
		l-2.147,1.677l-1.907,1.446l-1.511,1.176l-1.39,1.104l-1.808,1.423l-2.031,1.636l-1.463,1.102l-2.975,2.401l-2.057,1.597
		l-1.676,1.312l-0.991,0.751l-0.535,0.442l-0.27,0.278l-0.541,0.304l-0.736,0.318l-1.449,0.536l-1.848,0.687l-0.397,0.146
		l-1.572,0.564l-0.772,0.382l-0.816,0.472l-0.691,0.687l-0.618,0.686l-0.681,0.869l-0.464,0.746l-0.618,0.715l-0.202,0.221
		l-0.146,0.365l-0.259,0.5l-0.684,1.187l-0.838,1.501l-0.681,1l-0.464,0.672l-0.304,0.386l-0.265,0.393l-0.175,0.416l-0.212,0.428
		l-0.3,0.365L-104.874,44.079"/>
</g>
<g id="Layer_1_1_">
</g>
</svg>
