<?xml version="1.0" encoding="utf-8"?>
<!-- Generator: Adobe Illustrator 16.0.4, SVG Export Plug-In . SVG Version: 6.00 Build 0)  -->
<!DOCTYPE svg PUBLIC "-//W3C//DTD SVG 1.1//EN" "http://www.w3.org/Graphics/SVG/1.1/DTD/svg11.dtd">
<svg version="1.1" id="Layer_1" xmlns="http://www.w3.org/2000/svg" xmlns:xlink="http://www.w3.org/1999/xlink" x="0px" y="0px"
	 width="301.072px" height="342.114px" viewBox="-129.682 -147.457 301.072 342.114"
	 style="enable-background:new -129.682 -147.457 301.072 342.114;" xml:space="preserve">
<g id="Layer_36">
	<path id="Faisalabad" style="fill:#CCCCCC;stroke:#FFFFFF;stroke-width:1.15;" d="M32.478-141.274L32.478-141.274l-5.479,3.331
		l-0.892,0.676l-1.632,1.492l-2.007,2.049l-1.534,1.68l-1.701,1.673l-1.491,1.561l-1.042,1.053l-2.881,2.126l-3.419,2.893
		l-1.993,1.638l-2.29,1.707l-1.265,1.199l-0.819,0.955l-0.15,0.558l-0.843,1.317l-0.812,1.143l-0.836,1.889l-1.191,1.722
		l-1.778,2.237l-0.376,0.767l-1.279,3.199l-1.635,2.935L-6.713-97.4l-0.467,0.927l-0.868,1.693v0.328l-0.442,0.55l-0.728-0.947
		l-0.266-0.313h-0.185l-0.25,0.111l-0.293,0.6l-0.934,2.069l-1.136,1.806l-1.512,1.931l-1.579,1.818l-2.369,2.481l-2.074,1.889
		l-1.899,1.388l-3.432,2.076l-3.464,1.757l-3.91,1.721l-4.146,1.778l-3.841,1.721l-5.244,2.349l-4.555,1.792l-2.216,1.059
		l-2.83,1.743l-3.025,2.125l-2.146,1.729l-0.92,0.726l-1.408,1.01l-2.52,1.673l-2.526,1.91l-2.213,1.902l-1.492,2.084l-0.457,0.982
		l-0.742,1.848l-0.701,1.951l-1.083,2.564l-1.641,3.108l-1.635,2.9l-1.355,2.3l-1.927,2.425l-1.6,1.771l-2.499,2.648l-1.439,1.819
		l-1.735,2.313l-0.962,1.157l-1.042,2.182l-0.749,1.638l-0.401,1.08l-0.149,1.896l-0.136,3.122l-0.042,0.997l-0.143,0.927
		l-0.558,1.791l-0.443,1.087l-0.042,0.704l-0.143,1.073l-0.358,0.6l-0.105,0.648l0.143,0.153l0.512,0.362l1.606,0.767l1.091,0.822
		l1.042,1.046l0.634,1.387l0.944,1.422l0.627,0.829l0.484,0.313l1.341,0.718l0.509,0.419l0.592,0.627l0.342,0.585l0.212,0.906
		l0.244,0.369l1.227,0.453l0.816,0.355l0.77,0.468l0.586,0.515l0.519,0.635l0.278,0.955l-0.035,0.864l0.073,1.456l0.22,1.443
		l-0.122,0.438l-0.22,0.767l-0.358,0.439l-0.677,0.773l-1.227,0.677l-1.478,0.85l-0.474,0.391l-0.436,0.446l-0.363,0.662
		l-0.348,1.031l-0.958,3.102l-1.234,1.965l-1.641,1.987l-1.756,1.609l-1.398,0.795l-0.543,0.445l-0.784,0.886l-0.965,0.997
		l-0.676,0.606l-0.858,0.509l-0.626,0.125l-1.736,0.313l-1.634,0.37l-1.144,0.125l-1.042,0.404l-0.554,0.237l-0.522,0.718
		l-0.22,0.543l-0.031,0.962l-0.139,1.896l-0.06,1.658l0.185,1.938l0.279,0.696l1.094,1.205l0.725,0.363l0.501,0.426l0.363,0.85
		l0.108,0.968l-0.634,0.572l-0.645,0.718l-0.442,0.558l-0.22,0.655l-0.362,1.407l0.021,1.039l0.143,1.638l0.136,1.186l-0.115,2.133
		l-0.202,1.979l-0.314,1.679l-0.498,1.373l-0.642,1.088l-1.115,1.449l-0.819,0.711l-1.021,0.571l-1.035,0.412l-1.526,0.271
		l-2.736,0.474l-0.878,0.313l-0.227,0.21l0.111,0.292l0.45,0.3l0.509,0.181l0.328,0.057l0.45,0.3l0.457,0.494l1.007,0.934
		l1.763,1.568l1.213,0.788l1.37,0.711l0.714,0.133l0.673-0.042l0.62-0.237l1.321-1.024l2.182-2.433l0.93-1.073l0.471-0.181
		l0.47-0.084l1.091,0.271l1.287,0.787l1.711,1.297l3.035,2.83l0.743,0.982l0.157,0.383l-0.028,0.404l-0.313,0.063l-0.523,0.125
		l-0.693,0.307l-0.436,0.236l-0.049,0.385l0.149,0.668l0.506,0.558l0.871,0.544l0.352,0.32l0.123,0.321l0.034,0.383l-0.358,0.188
		l-0.404,0.363l-0.394,0.446l-0.094,0.39l-0.056,0.446l0.042,0.606l0.366,0.522l0.442,0.649l0.411,0.41l0.223,0.481l0.035,0.369
		l-0.129,0.362l-0.411,0.586l-0.502,0.453l-0.572,0.327l-0.571,0.098l-1.154-0.202l-0.815,0.034l-0.578,0.091l-0.269,0.251
		l-0.285,0.446l0.136,0.571l0.348,0.829l-0.108,0.384l-0.443,0.209l-0.47,0.146l-0.321,0.182l-0.143,0.501l0.143,0.433l0.021,0.676
		l-0.293,0.502l-0.537,0.216l-0.275,0.384l0.09,0.362l0.129,0.746l0.442,0.683l0.307,0.502l0.108,0.32l-0.209,0.244l-0.369,0.182
		l-0.328,0.334l-0.108,0.251l0.115,0.529l0.15,0.628l0.15,0.703l0.014,0.439l-0.32,0.349l-1.094,0.738l-1.683,1.29l-1.45,1.018
		l-0.997,0.571l-0.836,0.376l-0.387,0.453l-0.293,0.46l-0.143,0.391l0.038,0.509l0.149,0.753l0.384,0.662l0.338,0.446l0.742,0.669
		l0.143,0.042l0.29,0.445l-0.007,0.335l-0.149,0.265l-0.443,0.236l-0.812,0.063l-0.349,0.056l-0.687,0.321l-0.219,0.445l0.083,0.397
		l0.286,0.23l0.178,0.278l0.052,0.397l-0.143,0.334l-0.143,0.363l-0.007,0.341l-0.149,0.335l-0.373,0.188h-0.219l-0.3-0.099
		l-0.537,0.05l-0.394,0.049l-0.271,0.223l-0.411,0.194l-0.457,0.182l-0.435-0.069l-0.286-0.236l-0.359-0.168l-0.383,0.056
		l-0.345,0.118l-0.146,0.308l0.021,0.292l0.126,0.495l0.136,0.244l0.073,0.188l-0.102,0.251l-0.219,0.188l-0.45,0.307l-0.331,0.056
		l-0.433-0.028l-0.38-0.104l-0.763-0.008l-0.278-0.048l-0.38-0.14l-0.362-0.167l-0.477-0.111l-0.502,0.013l-0.547,0.043
		l-0.279,0.125l-0.185,0.133l-0.149,0.152l-0.073,0.377l0.185,0.237l0.286,0.327l0.237,0.132l0.101,0.21l-0.094,0.174l-0.373,0.251
		l-0.261,0.467l-0.509,0.955l-0.742,2.063l-0.411,0.892l-0.446,1.387l-0.118,0.3l-0.15,0.314l-0.523,0.425l-0.599,0.125
		l-0.777,0.342l-1.007,0.278l-1.192,0.321l-0.655,0.417l-0.307,0.496l-0.516,0.982l-0.443,0.893l-0.557,0.654l-0.418,0.425
		l-0.237,0.697l-0.035,0.467l0.049,0.551l0.321,1.22l0.251,0.941l0.606,0.676l1.199,0.997l1.634,1.456l1.014,0.635l0.52,0.125
		l1.341,0.077l1.251-0.091l0.826-0.021l0.3,0.236l0.579,0.523l1.694,1.539l2.526,2.308l1.313,0.767l0.732-0.007l1.08-0.355
		l1.042-0.558l0.648,0.467l0.871,0.684l0.819,0.919l0.428,0.677l0.066,0.571l-0.059,0.293l-0.383,0.404l-0.627,0.459l-0.122,0.245
		l0.014,0.438l0.035,0.997l-0.349,0.349l-0.77,0.202l-0.631,0.125l-0.491,0.307l-0.341,0.397l-0.258,0.843l0.08,0.586l0.433,0.342
		l0.938,1.01l1.613,1.987l0.718,0.892l0.007,0.293l-0.146,0.544l-0.502,0.404l-1.854,0.982l-1.743,0.919l-2.014,1.067l-1.746,0.871
		l-0.443,0.195l-0.059,0.202l-0.048,0.39l0.355,0.293l0.292,0.438l0.014,0.293l-0.275,0.307l-0.331,0.496l-0.098,0.599l0.219,0.349
		l0.035,0.62v0.202l-0.157,0.049l-0.397,0.118l-0.721-0.188l-0.495-0.188l-0.847-0.174l-0.285,0.056l-0.499,0.445l-0.216,0.544
		l-0.25,0.787l-0.254,0.552l0.014,0.438l0.254,1.123l0.331,0.766l0.22,0.475l0.149,0.641l0.265,1.366l0.028,1.031l0.359,0.487
		l0.868,0.572l0.788,0.027l1.269,0.021l1.551,0.265l0.69,0.175l0.749,0.432l0.578,0.327l0.742,0.182l0.715-0.014l1.021-0.266
		l1.192-0.32l0.968-0.174l1.366,0.069l0.805,0.237l0.627,0.027l0.209-0.349l0.143-1.226l0.306-1.534l0.491-0.551l0.471-0.307
		l1.648-0.083l2.983,0.376l3.677,0.906l2.296,0.648l0.987,0.613l1.101,0.669l0.756,0.725l0.505,0.878l0.25,0.768l-0.045,1.463
		l0.15,0.83l0.373,0.634l0.442,0.586l0.784,0.487l0.791,0.3l0.61,0.62l0.282,0.377l-0.077,0.487l-0.285,0.244h-0.844l-0.962-0.433
		l-1.171-0.613l-1.007-0.265l-0.805,0.126l-0.379,0.152l-0.743,0.739l-0.443,0.516l-0.519,0.14l-0.843-0.098l-0.45-0.293
		l-0.442-0.41l-0.383-0.495l-0.324-0.704l-0.233-0.202l-0.334-0.084h-0.624l-1.342,0.153l-0.613,0.188l-0.408,0.529l-0.104,0.704
		l-0.007,0.376l-0.178,0.146h-0.286l-0.23-0.042l-0.244-0.223l-0.227-0.244l-0.564-0.202l-0.334,0.035l-0.244,0.244l-0.24,0.522
		l0.035,0.662l0.227,0.536l0.286,0.328l0.164,0.613l-0.178,0.369l-0.39,0.286l-0.75,0.16l-0.857-0.104l-0.993-0.377l-0.436-0.167
		h-0.341l-0.286,0.126l-0.349,0.488l-0.436,0.815l-0.195,0.745l0.171,0.328l0.443,0.041l0.442-0.034l0.624,0.006l0.275,0.21
		l-0.007,0.438l-0.906,0.697l-0.742,0.6l-0.15,0.495l-0.007,0.703l0.164,0.614l0.509,0.571l0.457,0.543l1.192-0.251l1.499-0.445
		l0.463-0.23l0.544-0.236l0.397-0.118l0.331,0.027l0.328,0.16l0.436,0.286l0.442,0.251l0.648,0.223l0.864,0.111l0.606,0.07
		l0.491-0.035l0.443-0.216l0.157-0.258l-0.105-0.111l-0.435-0.154l-0.488-0.139l-0.627-0.14l-0.22-0.111l-0.045-0.146l0.174-0.099
		l0.275-0.006l0.223,0.049l0.25,0.098l0.254,0.062l0.292,0.027l0.38-0.027h0.251l0.442,0.083l0.478,0.063l0.272,0.021l0.149,0.056
		l0.143,0.027l0.063-0.076l-0.38-0.243l-0.177-0.983l0.073-1.046l0.261-0.745l0.516-0.445l0.592-0.126l0.927-0.146l0.442,0.111
		l0.293,0.433l-0.007,0.501l0.021,1.157l0.143,0.732l0.334,0.564l0.673,0.487l0.606,0.251l0.564,0.049l0.684,0.084l0.85,0.091
		l0.415,0.041l0.442-0.802l0.383-1.149l0.495-0.438l0.85,0.09l-0.272-0.718l-0.415-0.48l-0.136-0.614l0.028-0.466l0.028-0.259
		l0.223-0.529l0.279-0.397l0.383-0.188l0.428-0.188l0.415-0.049h0.648l0.537,0.062l0.272,0.446l0.321,1.296l0.15,1.262l0.191,0.475
		l0.328,0.403l0.495-0.014l0.443-0.216l0.805-0.613l0.756-0.467l0.478-0.202l0.509,0.056l0.421,0.258l0.241,0.585l0.15,1.213
		l0.15,0.614l0.258,0.459l0.516,0.042l1.024,0.041l1.708,0.099l1.007,0.048l0.442,0.015l0.185,0.028l-0.006,0.104l-0.15,0.154
		l-0.386,0.202l-0.443,0.411l-0.098,0.278l0.133,0.195l0.073,0.098l0.415,0.111l2.227,0.46l1.164,0.146l0.927,0.119l0.484,0.049
		l0.634-0.077l0.537-0.111l0.53-0.243l0.418-0.453l0.216-0.258l0.15-0.391l-0.073-0.244l0.045-0.202l-0.421-0.947l-0.258-1.24
		l0.028-1.067l0.081-0.558l0.129-0.182l0.442-0.132l0.45-0.007l0.867,0.237l1.042,0.048l0.686-0.007l0.565-0.188l0.17-0.307
		l0.101-0.418v-0.475l-0.045-0.453l-0.098-1.135l-0.149-2.225l0.129-0.927l0.362-0.32l0.422-0.265l0.442-0.104l0.533-0.203
		l0.565-0.425l0.177-0.265l0.181-0.411l0.028-0.307l-0.149-0.571l-0.15-0.411l-0.307-0.446l-0.55-0.153l-1.254-0.153l-1.178-0.063
		l-1.3-0.117l-0.499-0.307l-0.3-0.397l-0.094-0.453l-0.021-0.635l0.091-0.725l0.373-0.955l0.251-0.474l0.199-0.182l0.379-0.097
		l0.334,0.097l0.206,0.244l0.185,0.244l0.871,0.683l0.38,0.286h0.248l0.429-0.328l0.331-0.334l0.248-0.236l0.571-0.043l0.572-0.035
		l0.199-0.09l0.143-0.335l0.045-0.558l0.062-0.746l0.108-0.968l0.241-0.69l0.394-0.536l0.585-0.495l0.857-0.3l1.341-0.258
		l1.342-0.202l1.062-0.313l0.906-0.564l1.091-0.927l0.387-0.517l0.377-0.564l0.073-0.299l-0.129-0.342l-0.115-0.307l-0.15-0.252
		l-0.021-0.515l0.15-0.475l0.143-0.195l0.394-0.299l0.655-0.043l0.286,0.043l0.355,0.592l0.094,0.857l-0.028,0.76l0.15,0.522
		l0.234,0.174l0.442-0.048l0.422-0.167l0.435-0.397l0.359-0.607l0.098-0.459l0.038-1.108l0.248-0.878l0.178-0.676l0.157-0.336
		l0.352-0.327l0.342-0.209l0.387-0.041h0.328l0.4,0.159l0.307,0.342l0.122,0.585l-0.087,0.746l-0.68,1.784l-0.627,2.517
		l-0.007,0.522l0.199,0.35l0.415,0.327l1.526,0.215l1.401-0.097l0.742-0.083l0.491-0.224l0.244-0.224l0.15-0.223l-0.021-0.676
		l-0.178-1.038l-0.216-1.471l0.063-0.893l0.153-0.99l0.227-1.121l0.522-1.994l0.335-0.863l0.021-0.405l-0.149-0.209l-0.321-0.307
		l-0.722-0.474l-0.313-0.243l0.143-0.412l0.157-0.362l0.401-0.195l0.463-0.091l1.042-0.202l0.84-0.091l0.85-0.041l0.648,0.035
		l0.367,0.146l0.149,0.446l-0.08,0.487l-0.279,0.648l-0.533,0.983l-1.083,1.812l-0.809,2.307l-0.244,1.568l0.038,0.307l0.485,0.293
		l0.421,0.133l0.192,0.265l0.373,0.084l0.484-0.042l0.669-0.349l0.742-0.647l1.209-1.108l0.471-0.356l0.449-0.041l0.519,0.09
		l0.666,0.161h0.442l0.443-0.042l0.383-0.168l0.721-0.934l0.349-0.425l0.143-0.453l0.014-0.16l-0.07-0.293l-0.522-0.376
		l-0.404-0.419l-0.3-0.738l0.014-0.411l0.258-0.328l0.425-0.152l0.579-0.21l1.265-0.049l0.286-0.098l0.248-0.084l0.15-0.501
		l0.223-0.696l0.272-0.531l0.349-0.521l0.463-0.418l1.171-0.649l0.948-0.251l0.6,0.028l0.408,0.32l0.401,0.279l0.571-0.091
		l0.254-0.16l0.38-0.195l0.185,0.119l-0.021,0.445l-0.278,0.69l-0.123,0.689l0.15,0.774l0.129,0.327l0.272,0.363l0.516,0.319
		l0.742,0.042l1.391-0.174l2.178-0.349l1.76-0.544l0.495-0.292l0.206-0.655l0.021-0.335l-0.136-0.411l0.136-0.739l0.15-0.319
		l0.237-0.941l0.313-0.641l0.164-0.28l0.15-0.09l0.286-0.042l0.237,0.202l0.143,0.467l0.104,0.809l0.196,0.76l0.136,0.327
		l0.439,0.077l0.442,0.035l0.422-0.083l0.202-0.21l0.355-0.746l0.3-0.438l0.257-0.328l0.15-0.16l0.32-0.042l0.443,0.118l0.355,0.321
		l0.47,0.084l0.617-0.008l0.526-0.319l0.529-0.531l0.279-0.801l0.149-0.411l0.384-0.286H0.35H0.5l0.478,0.195l0.331-0.132
		l0.341-0.384l0.349-0.689l0.442-1.938l0.15-0.438l0.257-0.133L3.347,142l0.442,0.188l0.373,0.243l0.307,0.251h0.328l0.564-0.139
		l0.286-0.564l0.056-0.558l-0.293-0.488l-0.286-0.494l-0.15-0.983l-0.062-1.046l-0.108-1.094l-0.185-0.843l-0.373-0.781
		l-0.893-0.704l-1.14-0.46l-0.666-0.348l-0.149-0.475l0.059-0.522l0.132-0.48l1.021-1.199l0.359-0.355l0.579-0.655l0.32-0.077h0.397
		l0.387,0.453l0.272,0.349l0.463,0.104l0.708,0.05l3.018-0.126l1.7-0.091l0.526,0.104l0.223,0.3v0.655l-0.516,4.726l0.224,0.439
		l0.376,0.117l0.244,0.063l0.742-0.438l0.512-0.14l0.293,0.181l0.157,0.244l-0.007,0.982l-0.014,0.307l0.157,0.307l0.443,0.182
		h0.499l0.829-0.195l0.714-0.251l0.676-0.558l0.443-0.856l0.156-0.746l-0.097-0.426l-0.202-0.746l-0.3-0.975l0.039-0.488
		l0.097-0.175l0.345-0.306l0.328-0.133l1.077-0.252l0.442-0.25l0.586-0.23l0.449-0.251l0.171-0.787l-0.048-0.167l-0.115-0.244
		l-0.627-0.126h-0.501l-1.035,0.307l-0.927,0.251l-0.857,0.015l-0.391-0.119l-0.149-0.299l0.062-0.732l0.136-0.654l0.244-0.544
		l0.279-0.307l0.261-0.175l0.331-0.133h0.443l0.435,0.05l0.505-0.063l0.328-0.126l0.202-0.181l0.15-0.174l0.268-0.585l-0.062-0.593
		l-0.498-0.523l-0.45-0.167l-0.788-0.153l-0.997-0.035l-0.743-0.216l-0.331-0.286l-0.136-0.341l-0.028-1.735l0.209-1.039
		l0.049-0.334l0.38-0.362l0.463-0.301L17,121.294l0.627-0.091l0.501-0.07l0.778,0.377l1.069,0.25l0.843,0.154l0.785-0.015
		l0.442-0.14l0.342-0.243l0.15-0.118l0.044-0.175l-0.202-0.787l-0.334-1.422l-0.422-0.893l-0.185-0.224l-0.492,0.015h-0.578
		l-0.415-0.216l-0.205-0.355l0.077-0.83l0.229-0.822l0.541-0.718l0.986-0.613l0.893-0.133l1.027,0.154l0.742,0.397l0.948,0.863
		l0.224,1.144l-0.146,1.149l0.027,0.635l0.042,0.502l0.224,0.223l0.696,0.272l0.726,0.208l0.445,0.056l0.439-0.068l0.439-0.294
		l0.432-0.474l0.446-0.711l0.264-0.174l0.141-0.056h0.181l0.223,0.104l0.154,0.056l0.152,0.237l0.321,0.411l0.516,0.119l0.46-0.236
		l0.209-0.119l0.126-0.474l0.195-0.593l0.041-0.293l0.153-0.3l0.362-0.236l0.517-0.356l0.229-0.299l0.146-0.468l0.056-0.703
		l0.028-0.572l0.195-0.585l0.494-0.522l0.397-0.425l0.571-0.196l0.948-0.076l1.066-0.3l1.038-0.467l0.726-0.342l0.474-0.202
		l0.669-0.425l0.558-0.168l0.236-0.034l0.098,0.174l1.339-0.049l1.149-0.445l0.049-0.446l0.202-0.139l0.48-0.628l0.879-1.861
		l0.703-0.892l0.349-0.391l0.774-0.077l0.863,0.043l1.172,0.146l0.6-0.028l0.251-0.559l-0.147-1.268l-0.104-1.254l0.334-1.047
		l0.355-0.438l0.773-1.045l0.977-0.6l0.863-0.063l1.046,0.078l0.962,0.132l0.446-0.167l0.355-0.405l0.146-0.641l-0.015-1.708
		l0.056-1.247l0.363-0.411l0.445-0.057l0.439,0.272l0.285,0.529l0.301,0.815l0.661,0.53l0.446,0.23l0.432-0.217l0.195-0.648
		l-0.014-0.612l-0.014-0.726l0.265-0.404l0.362-0.077l0.502,0.189l0.376,0.215l0.224,0.76l0.118,0.704l0.244,0.551l0.439,0.307
		l0.703,0.132l0.384,0.008l0.438-0.224l0.537-0.522l0.425-0.551l0.433-0.452l0.655-0.16l0.684,0.048l0.264,0.146l0.258,0.446
		l0.481,0.111l0.445-0.126l0.495-0.327L69.2,95.24l0.438-0.808l0.446-0.537l0.391-0.369l0.39-0.266l0.746-0.445l2.056-1.081
		l1.415-0.668l0.704-0.182h0.32l0.23,0.188l0.062,0.599l-0.049,0.746l0.091,0.864l0.453,0.739l0.969,0.368l1.346-0.146l0.815-0.419
		l0.571-0.319l0.745,0.027l0.886-0.167l0.404-0.328l0.39-0.717l0.14-1.096l-0.069-0.767l-0.349-0.431l-0.585-0.015l-1.15-2.906
		l-1.095-1.632l-0.139-1.449l0.041-1.317l0.251-1.819l0.251-1.422l0.439-1.22l0.466-0.962l0.189-0.724l-0.175-0.712l-0.445-0.662
		l-0.475-0.725l-0.224-0.571l0.252-1.053l0.209-0.558l0.445-0.767l0.739-0.746l0.781-0.634l0.627-0.313l0.313-0.445l0.077-0.439
		l-0.07-0.37l-0.3-0.585L82.7,67.432l-0.335-0.648l0.07-0.787l0.153-0.579l0.404-0.474l1.171-0.739l1.143-0.717l1.442-0.642
		l1.471-0.585l0.822-0.377l0.447-0.3l0.438-0.718l0.606-0.822l0.544-0.844l0.515-0.341l0.746-0.146l0.481-0.042l0.613-0.056
		l0.731-0.244l0.621-0.271l0.418-0.726l0.167-0.828l0.111-1.499l-0.349-0.989l-0.627-0.705l-1.338-0.41l-0.433-0.397l-0.021-0.732
		l0.313-1.206l0.571-1.143l0.872-1.673l1.038-1.819l1.129-1.916l0.711-0.962l0.864-1.08l0.955-0.795l1.345-1.031l1.156-0.753
		l1.457-1.08l0.899-0.613l1.004-0.091l1.324,0.104l1.143,0.146l0.92-0.098l0.893-0.418l0.739-0.488l0.814-0.976l0.467-0.76
		l0.475-0.25l0.209,0.048l0.153,0.293l0.355,0.586l0.564,0.293l0.781,0.076l0.6-0.015l0.752,0.015l0.237,0.202l0.146,0.292
		l0.117,0.279l0.461,0.153l0.962,0.015h1.107l1.144-0.252l0.689-0.3l0.377-0.383l0.293-0.586l0.362-0.676l0.438-1.031l0.425-0.363
		l0.544-0.236l0.698-0.098l0.863-0.16l1.213-0.439l1.039-0.578l1.059-0.781l1.638-1.358l0.753-0.947l0.46-0.956l0.544-1.052
		l0.586-0.934l0.655-0.571l0.362-0.587l0.306-0.996l0.446-1.227l0.153-0.481l0.209-0.146l0.502,0.063l1.115,0.202l1.338,0.251
		l0.697,0.104l0.487-0.091l0.446-0.3l0.265-0.3l0.119-0.39l0.041-0.439l-0.348-0.634l-0.411-0.809l0.027-0.864l0.475-0.397
		l0.487-0.14l1.185,0.015l0.551-0.439l0.377-0.628l0.62-0.432l0.836,0.098l0.962,0.209l0.92-0.091l0.76-0.593l1.289-1.24
		l0.899-1.024l0.426-0.362l0.46-0.195l0.836-0.265l1.102-0.718l1.923-1.346l2.572-1.867l1.15-0.851l0.683-0.864l0.446-0.718
		l0.16-0.711l0.341-1.861l0.418-1.129l0.385-0.474l0.577-0.529l0.447-0.663l0.529-1.352l0.613-1.798l0.642-1.688l0.459-1.003
		l0.516-0.704l0.704-0.739l0.746-0.704l0.146-0.516l-0.104-0.438l-0.376-0.544l-0.865-0.857l-0.738-0.927l-0.78-1.296l-0.307-0.935
		l-0.146-0.94l0.076-1.157l0.084-1.011l0.167-0.767l0.335-0.696l0.474-0.649l0.739-0.801l0.801-0.53l1.08-0.829l0.182-0.265
		l0.266-0.697l0.223-0.767l0.181-0.578l0.195-0.307l0.711-0.349l0.209-0.307l0.021-0.3l-0.083-1.004l-0.313-1.47l-0.725-1.472
		l-1.248-2.509l-0.349-1.06l0.146-0.794l0.195-0.362l0.711-0.418l0.411-0.328l0.062-0.802l-0.516-1.107l-1.024-1.053l-0.844-0.684
		l-1.157-0.592l-0.543-0.697l-0.677-1.304l-0.215-1.114l0.278-0.927l0.209-1.019l-0.042-0.501l-0.6-0.879l-0.836-0.683l-0.893-0.53
		l-1.135-0.014l-0.941,0.202l-1.102,0.815l-1.254,0.62l-0.712,0.084l-0.683-0.642l-0.795-0.188l-1.254,0.3l-1.227,0.544
		l-1.757,0.753l-1.875,1.052l-1.108,0.816l-1.533,0.313l-1.533-0.342l-2.453-1.129l-2-0.871l-1.095-0.16l-0.934,0.195l-1.031,0.509
		l-1.395,0.836l-1.366,1.08l-1.651,1.031l-1.241,1.199l-1.721,1.255l-1.658,1.101l-1.827,0.906l-0.969,0.355l-1.491,0.16
		l-1.372-0.223l-1.366-0.48l-2.217-0.983l-0.739-0.662l-0.286-0.642l-1.052-1.554l-1.449-1.806l-1.465-1.805l-1.65-1.45l-1.22-1.338
		l-1.283-0.864l-1.255-0.683l-1.407-0.662l-1.346-0.878l-0.48-0.6l-0.446-0.676l0.07-0.809l0.216-0.767l0.32-0.426l0.438-0.223
		l0.739-0.391l2.057-0.885l1.847-0.893l0.738-0.544l0.517-0.654l0.146-0.419l0.027-0.578l-0.397-1.164l-0.07-0.822l-0.056-0.516
		l-0.208-0.488l-0.293-0.362l-0.279-0.209l-0.146-0.307l0.426-0.976l0.334-1.651l-0.146-1.234l-0.056-0.647l0.105-0.83l0.069-0.585
		l0.194-0.627l0.35-0.837l0.146-0.551l0.048-0.3l-0.048-0.348l-0.146-0.433l-0.237-0.48l-0.293-0.461l-0.404-0.271l-0.851-0.258
		l-1.06-0.286l-0.654-0.027l-0.439,0.049l-0.746-0.007l-0.55-0.028l-0.523-0.056l-0.696-0.146l-0.335-0.229l-0.188-0.23l-0.034-0.3
		l0.153-0.425l0.32-0.655l0.202-0.376l0.397-0.224l0.418-0.299l0.237-0.153l0.146-0.252v-0.278l-0.069-0.404l-0.062-0.376
		l-0.39-0.209l-0.53-0.077l-1.659-0.237l-1.212-0.209l-0.655-0.307l-0.35-0.251l-0.152-0.362l-0.077-0.349l0.084-0.355l0.16-0.529
		l0.377-1.484l0.195-0.753l0.278-0.662l0.167-0.648l0.069-0.704l0.126-0.759l0.118-0.906l0.014-1.053l0.05-0.662l0.111-0.704
		l0.223-0.906l0.091-0.509l0.014-1.156l-0.021-1.282l-0.084-1.164l-0.118-0.655l-0.258-0.481l-0.809-0.94l-0.739-0.886l-0.78-0.892
		l-0.684-0.753l-0.515-0.439l-0.517-0.32L94.485-96.3l-1.316-0.536l-1.854-0.544l-1.38-0.537l-1.645-0.585l-1.157-0.439
		l-1.144-0.564l-1.49-0.787l-1.269-0.593l-1.248-0.536l-1.275-0.481l-1.506-0.355l-1.47-0.488l-2.572-0.711l2.997-3.247
		l-1.185-0.404l-0.962-0.3l-0.753-0.126l-0.558-0.007l-0.349-0.181l-0.377-0.342l-0.152-0.453l0.013-0.327l0.091-0.404l0.203-0.488
		l0.487-0.662l0.446-0.487l0.153-0.502l-0.014-0.468l-0.146-0.362l-0.16-0.403l-0.279-0.328l-0.425-0.564l-0.488-0.635l-0.592-0.892
		l-0.355-0.711l-0.244-0.662l-0.209-0.676l-0.104-0.753l0.014-0.558l0.076-0.522l0.015-0.3l0.014-0.23l-0.118-0.327l-0.104-0.279
		l0.069-0.327l0.035-0.271l0.132-0.349l-0.042-0.349l-0.153-0.307l-0.181-0.23l-0.349-0.209l-0.544-0.188l-1.24-0.034h-0.886
		l-0.605-0.021l-0.67-0.041l-0.641-0.062l-0.362,0.041l-1.06,0.153l-1.339,0.342l-0.947,0.474l-1.073,0.578l-0.529,0.188H61.38
		l-0.383-0.083l-0.433-0.335l-0.32-0.327l-0.279-0.391l-0.474-0.662l-0.613-0.767l-0.376-0.432l-0.572-0.468l-0.683-0.487
		l-0.237-0.14l-0.55-0.244l-0.871-0.397l-1.074-0.376l-1.129-0.349l-1.046-0.383l-1.198-0.279l-1.039-0.244l-0.174-0.132
		l-0.327-0.349l-0.146-0.258l0.042-0.321l0.181-0.348l0.46-0.495l0.6-0.307l0.564-0.439l0.342-0.376l0.181-0.217l0.042-0.348
		l0.237-1.715l-1.338-2.544l-0.461-0.069l-0.466-0.21l-0.537-0.229l-0.934-0.265l-1.019-0.258l-1.316-0.133l-0.815,0.035
		l-0.948,0.251l-1.582,0.593l-2.133,0.905l-1.317,0.321l-1.038,0.152l-1.214-0.104l-0.912-0.279l-0.642-0.355l-0.167-0.258
		l-0.153-0.307l-0.146-0.578l-0.216-0.906l-0.689-1.513l-0.788-1.596L32.478-141.274"/>
</g>
<g id="Layer_1_1_">
</g>
</svg>
