<?xml version="1.0" encoding="iso-8859-1"?>
<!-- Generator: Adobe Illustrator 16.0.4, SVG Export Plug-In . SVG Version: 6.00 Build 0)  -->
<!DOCTYPE svg PUBLIC "-//W3C//DTD SVG 1.1//EN" "http://www.w3.org/Graphics/SVG/1.1/DTD/svg11.dtd">
<svg version="1.1" xmlns="http://www.w3.org/2000/svg" xmlns:xlink="http://www.w3.org/1999/xlink" x="0px" y="0px"
	 width="35.496px" height="43.7px" viewBox="0 0 35.496 43.7" style="enable-background:new 0 0 35.496 43.7;" xml:space="preserve"
	>
<g id="Layer_86">
	<g id="Layer_91">
		<path id="Multan" style="fill:#CCCCCC;stroke:#FFFFFF;stroke-width:1.07;" d="
			M15.022,42.741L15.022,42.741l-0.006-0.078l-0.022-0.086v-0.082l0.032-0.07l0.041-0.072l0.062-0.057l0.056-0.025l0.089-0.045
			l0.076-0.035l0.061-0.079l0.051-0.13l0.017-0.125l-0.003-0.092l0.031-0.098l0.035-0.048l0.121-0.073l0.146-0.062l0.315-0.112
			l0.131-0.077l0.079-0.084l0.093-0.119l0.028-0.16l-0.041-0.205l-0.045-0.129l-0.02-0.093l-0.028-0.032l-0.051-0.035l-0.094-0.061
			l-0.051-0.021l-0.061-0.02l-0.08-0.025l-0.032-0.041l-0.019-0.078l0.009-0.071l-0.006-0.017l-0.039-0.018L15.82,40.06l-0.1-0.035
			l-0.075-0.074l-0.067-0.062l-0.026-0.094l0.008-0.15l-0.018-0.123l-0.021-0.071l-0.044-0.047l-0.052-0.05l-0.031-0.041
			l-0.018-0.057l0.025-0.044l0.049-0.015l0.22,0.018l0.156,0.031l0.122,0.038l0.079-0.001l0.062-0.029l0.046-0.068l0.022-0.066
			l-0.064-0.068L15.995,39l-0.096-0.067l-0.022-0.071l-0.045-0.06l-0.09-0.039l-0.089-0.037l-0.225-0.039l-0.185-0.023l-0.077-0.031
			l-0.035-0.021l0.011-0.086l0.124-0.286l0.079-0.334l0.079-0.263l0.014-0.092l-0.018-0.041l-0.102-0.086l-0.115-0.09l-0.051-0.062
			l-0.022-0.1l0.061-0.105l0.131-0.159l0.176-0.099l0.18-0.092l0.118-0.065l0.063-0.056l0.061-0.022l0.097,0.012l0.059-0.003
			l0.051-0.048l-0.021-0.058l-0.097-0.067l-0.08-0.097l-0.048-0.068l-0.014-0.075l0.007-0.052l0.022-0.039l0.041-0.031l0.045-0.062
			l0.035-0.062l0.042-0.059l0.068-0.067l0.068-0.02l0.044-0.011l0.066-0.006l0.052,0.021l0.09,0.038l0.062,0.026l0.083,0.008
			l0.08-0.043l0.064-0.056l0.086-0.04l0.029-0.035l0.083-0.049h0.048l0.1,0.021l0.111-0.016l0.041-0.031l0.022-0.039l-0.004-0.062
			l-0.063-0.027l-0.146-0.09l-0.063-0.067l-0.025-0.054l-0.003-0.049l0.016-0.027l0.067-0.021l0.115-0.021l0.09-0.031l0.028-0.037
			l0.02-0.033l0.221-0.062l0.126-0.083l0.015-0.026l0.03-0.021l0.039-0.014l0.038-0.037l0.01-0.041l-0.004-0.045l-0.024-0.068
			l-0.063-0.086l-0.017-0.049l0.001-0.049l0.013-0.031l0.03-0.032l0.059-0.066l0.048-0.059l0.022-0.039l0.016-0.058l0.005-0.052
			l-0.021-0.036l-0.032-0.047L17.782,34l0.01-0.032l0.01-0.016l0.019-0.007l0.05-0.015l0.038-0.03l0.021-0.03l0.005-0.061
			l-0.008-0.053l-0.02-0.031l-0.009-0.021l0.006-0.021l0.01-0.022l0.021-0.021l0.043-0.021l0.042-0.034l0.029-0.033l0.002-0.026
			l-0.006-0.041l-0.016-0.028l-0.031-0.023l-0.044-0.015l-0.04-0.008l-0.033-0.015l-0.003-0.045l0.002-0.037l0.01-0.022l0.021-0.01
			l0.029-0.015l0.055-0.041l0.065-0.078l0.058-0.068l0.027-0.09l-0.007-0.049l-0.021-0.032l-0.029-0.013l-0.036,0.002l-0.034,0.012
			l-0.052,0.009l-0.033-0.021l-0.009-0.027l-0.003-0.061l0.021-0.056l0.053-0.097l0.102-0.156l0.094-0.134l0.039-0.095l0.004-0.057
			l-0.025-0.064l-0.062-0.1l-0.068-0.113l-0.045-0.084l-0.033-0.088l-0.029-0.084l-0.022-0.142l-0.007-0.126l0.015-0.062
			l0.021-0.129l0.026-0.092l0.024-0.037l0.03-0.022l0.057-0.04l0.08-0.051l0.117-0.057l0.045-0.033l0.021-0.029l-0.002-0.04
			l0.001-0.045l0.019-0.023l0.026-0.022l0.024-0.01l0.051-0.013l0.162-0.021l0.133-0.024l0.089-0.028l0.062-0.021l0.031-0.036
			l0.006-0.045l-0.021-0.027l-0.033-0.008l-0.098,0.004l-0.108,0.005l-0.138,0.007l-0.182-0.006l-0.048-0.008l-0.023-0.04
			l-0.018-0.053l0.009-0.035l0.021-0.011l0.028-0.004l0.048,0.004l0.076,0.01l0.08-0.007l0.086-0.021l0.046-0.018l0.041-0.033
			l0.014-0.021l-0.002-0.043l-0.013-0.028l-0.034-0.029l-0.066-0.034l-0.063-0.035l-0.017-0.045l0.007-0.062l0.025-0.055l0.027-0.03
			l0.045-0.04l0.022-0.049l0.002-0.031l-0.021-0.04l-0.03-0.03l-0.03-0.018l-0.146-0.014l-0.303-0.024l-0.215-0.022l-0.062-0.011
			l-0.03-0.03l-0.027-0.094l-0.028-0.111l-0.018-0.113l-0.042-0.049l-0.08-0.061l-0.039-0.04l-0.013-0.04l0.018-0.141l0.012-0.057
			l0.015-0.019l0.031-0.017l0.028-0.006l0.046-0.014l0.029-0.012l0.027-0.02l0.021-0.021l0.015-0.021l-0.007-0.031l-0.001-0.031
			l-0.02-0.027l-0.023-0.019l-0.04-0.009l-0.068-0.016l-0.023-0.012l-0.001-0.025l0.01-0.021l0.038-0.087l0.043-0.089l0.027-0.025
			l0.039-0.016l0.04-0.004l0.035-0.015l0.035-0.036l0.022-0.041l-0.006-0.037l-0.013-0.035L17.9,28.156l-0.018-0.041l0.01-0.028
			l0.022-0.038l0.065-0.073l0.07-0.084l0.113-0.115l0.023-0.043l0.012-0.045l-0.009-0.031l-0.043-0.059l-0.057-0.076l-0.039-0.049
			l-0.017-0.051l0.005-0.035l0.017-0.049l0.038-0.044l0.015-0.063v-0.127l0.019-0.133l-0.009-0.09l-0.008-0.08l0.009-0.029
			l0.018-0.026l0.024-0.021l0.035-0.018l0.035-0.008l0.081-0.012l0.077-0.026l0.05-0.019l0.027-0.021l0.034-0.028l0.03-0.053
			l0.023-0.031l0.03-0.023l0.051-0.021l0.04-0.005l0.051,0.004l0.045,0.026l0.03,0.021l0.056,0.014l0.058-0.004l0.055-0.015
			l0.081-0.042l0.092-0.054l0.056-0.034l0.064-0.027l0.031-0.002l0.053,0.012l0.02,0.012l0.021,0.027l0.002,0.035l-0.02,0.058
			l-0.058,0.108l-0.011,0.024l0.003,0.031l0.016,0.03l0.026,0.023l0.063,0.042l0.022,0.024l0.018,0.033l-0.006,0.043l-0.03,0.039
			l-0.026,0.024l-0.007,0.026l0.001,0.023l0.024,0.047l0.02,0.021l0.053,0.023l0.044-0.002l0.027-0.009l0.036-0.014l0.035-0.021
			l0.052-0.041l0.035-0.029l0.031-0.023l0.029-0.001l0.028,0.005l0.025,0.012l0.023,0.024l0.034,0.039l0.054,0.039l0.038,0.03
			l0.021,0.012l0.025-0.001l0.024-0.009l0.028-0.014l0.038-0.025l0.035-0.024l0.026-0.022l0.021-0.008h0.024l0.021,0.002
			l0.027,0.021l0.038,0.037l0.062,0.006h0.025l0.023-0.013L20.449,27l0.03-0.049l0.034-0.026l0.031-0.021l0.036-0.004l0.055-0.002
			l0.029,0.012l0.037,0.029l0.007,0.047l0.003,0.061l-0.013,0.094l0.003,0.059l0.027,0.056l0.091,0.06l0.118,0.045l0.068,0.088
			l0.072,0.045l0.063,0.037l0.062,0.005l0.044-0.007l0.046-0.019l0.031-0.013l0.04-0.028l0.036-0.073l0.03-0.072l0.016-0.104v-0.137
			l-0.022-0.119l-0.041-0.125l-0.045-0.094l-0.062-0.162l-0.083-0.156l-0.081-0.098l-0.062-0.1l-0.107-0.105l-0.036-0.07
			l0.005-0.068l0.013-0.045l0.021-0.067l0.025-0.06l0.023-0.043l0.004-0.039l-0.01-0.037l-0.027-0.03l-0.039-0.021l-0.055-0.02
			l-0.013-0.043l0.003-0.041l0.018-0.033l0.058-0.052l0.048-0.052l0.013-0.047l-0.009-0.059l-0.028-0.045l-0.048-0.035l-0.099-0.061
			L20.75,25.12l-0.035-0.04l-0.016-0.041l-0.005-0.062l0.013-0.052l0.025-0.044l0.044-0.053l0.037-0.033l0.07-0.119l0.11-0.142
			l0.048-0.071l0.081-0.086l0.04-0.031l0.063-0.018l0.082-0.004l0.05,0.008l0.06,0.05l0.054,0.132l0.036,0.062l0.045,0.026
			l0.059,0.03l0.036,0.013l0.031-0.004l0.049-0.049l0.095-0.109l0.048-0.096l0.01-0.049v-0.044l-0.053-0.067l-0.031-0.049
			l0.003-0.033l0.011-0.051l0.024-0.057l0.051-0.043l0.05-0.039l0.031-0.004l0.027,0.005l0.02,0.012l0.005,0.056l0.008,0.117
			l0.032,0.082l0.031,0.033l0.04,0.014l0.037,0.002l0.059-0.015l0.047-0.019l0.036-0.021l0.068-0.051l0.062-0.049l0.029-0.015
			l0.02-0.006l0.043,0.02l0.07,0.054l0.07,0.062l0.053,0.023l0.065,0.001l0.055-0.015l0.023-0.027l0.015-0.038l0.022-0.045
			l0.031-0.056l0.048-0.049l0.039-0.063l0.014-0.063l-0.007-0.043l-0.04-0.052l-0.11-0.084l-0.101-0.084l-0.116-0.081l-0.082-0.056
			l-0.073-0.062l-0.038-0.076l-0.014-0.092l0.001-0.057l0.011-0.104l0.021-0.08l0.022-0.053l0.023-0.033l0.061-0.045l0.071-0.05
			l0.088-0.047l0.086-0.021l0.06-0.021l0.037-0.037l0.026-0.032l0.021-0.045l0.004-0.056l-0.006-0.05l-0.038-0.087l-0.044-0.093
			l-0.028-0.08l-0.031-0.088l-0.013-0.092l0.022-0.144l0.04-0.118l0.047-0.093l0.037-0.031l0.038-0.015h0.054l0.11,0.02l0.115,0.016
			l0.037-0.004l0.024-0.028l0.019-0.04l0.002-0.032l-0.014-0.047l-0.018-0.039l-0.021-0.088l0.01-0.05l0.032-0.051l0.043-0.035
			l0.054-0.045l0.035-0.049l0.034-0.045l0.036-0.07l0.055-0.065l0.08-0.069l0.059-0.023l0.089-0.01l0.104,0.01l0.113,0.037
			l0.133,0.078l0.169,0.092l0.079,0.031l0.103,0.017l0.099-0.003l0.065-0.014l0.065-0.026l0.06-0.058l0.043-0.066l0.021-0.051V20.95
			l-0.002-0.023l-0.053-0.061l-0.082-0.075l-0.06-0.063l-0.028-0.236l-0.003-0.137l-0.067-0.061l-0.042-0.067l-0.05-0.099
			l-0.026-0.021l-0.087-0.002l-0.054,0.029l-0.054,0.016l-0.104-0.031l-0.043-0.047l-0.062-0.029l-0.14-0.039l-0.087-0.023
			l-0.068-0.066l-0.033-0.061l0.037-0.089l0.045-0.06l0.037-0.067l-0.007-0.073l0.01-0.062l0.027-0.029l0.062-0.036l0.223-0.095
			l0.088-0.035l0.104-0.007l0.141,0.023l0.068,0.039l0.033,0.053l0.066,0.173l0.051,0.075l0.068,0.031h0.062l0.07-0.037l0.055-0.051
			l0.08-0.09l0.058-0.17l0.029-0.127l0.067-0.238l0.056-0.119l0.071-0.051l0.134-0.065l0.079-0.021l0.09-0.059l0.053-0.036
			l0.064-0.118l0.055-0.065l0.09-0.082l0.08-0.043l0.115-0.015l0.333-0.003l0.158-0.013l0.201-0.007l0.105-0.012l0.185-0.006
			l0.079-0.021l0.055-0.036l0.054-0.044l0.072-0.09l0.062-0.028l0.088-0.006l0.054,0.001l0.053-0.036l0.029-0.067l0.112-0.203
			l0.091-0.103l0.067-0.063l0.139-0.064l0.15-0.043l0.11-0.037l0.045-0.018l0.046-0.064l0.045-0.046l0.045-0.037l0.045-0.019
			l0.076,0.029l0.075,0.039l0.044,0.027l0.064,0.001l0.078-0.019l0.035-0.103l0.023-0.028l0.021-0.037l0.089-0.035l0.058-0.036
			l0.056-0.037l0.047-0.074l0.002-0.073l0.014-0.065l0.044-0.019h0.055l0.077,0.029l0.075,0.048l0.143,0.003l0.166-0.018
			l0.179-0.102l0.089-0.045l0.048-0.084l0.002-0.057l0.022-0.074l0.014-0.037l0.057-0.063l0.058-0.074l0.037-0.147l-0.008-0.142
			l0.06-0.147l0.069-0.111l0.046-0.074l0.003-0.094l0.023-0.036l0.09-0.073l0.09-0.092l0.069-0.094l0.16-0.236l0.152-0.261
			l0.116-0.231l0.034-0.056l0.09-0.063l0.048-0.121l0.015-0.073l0.021-0.037l0.025-0.121l0.002-0.058l0.012-0.055l0.092-0.121
			l0.025-0.093l0.001-0.046l-0.052-0.15l0.003-0.104l0.013-0.055L31.5,13.38l0.057-0.036l0.112-0.082l0.102-0.063l0.157-0.108
			l0.047-0.056l0.035-0.094l0.002-0.057L31.99,12.78l0.003-0.111l0.014-0.102l0.035-0.065l0.104-0.194l0.079-0.072l0.169-0.119
			l0.125-0.034l0.188-0.054l0.137-0.101l0.102-0.101l0.137-0.188l0.097-0.266l0.062-0.251l0.027-0.195l0.035-0.12l0.067-0.074
			l0.081-0.119l0.035-0.074l0.024-0.111l0.003-0.103l0.013-0.085l0.058-0.081l0.034-0.037l0.066-0.019l0.057-0.018l0.078-0.027
			l0.057-0.063l0.093-0.147l0.094-0.185l0.047-0.103l0.05-0.029l-0.079-0.027l-0.104-0.066l0.019-0.145l0.062-0.119l0.021-0.029
			l0.118-0.011l0.137-0.002l0.037-0.014l0.042-0.091l0.04-0.051l0.038-0.021l0.056-0.021h0.026l0.04-0.043l0.033-0.091l0.013-0.053
			l0.039-0.044L34.744,8.7l0.037-0.014l0.047-0.029l0.032-0.057l0.087-0.211l0.003-0.054l-0.034-0.039l-0.105-0.036l-0.109-0.005
			l-0.08-0.026l-0.058-0.086l-0.041-0.07l-0.107-0.182l-0.107-0.166L34.2,7.569l-0.158,0.063l-0.125,0.045l-0.141,0.035l-0.264,0.09
			l-0.292,0.086l-0.198,0.035l-0.1,0.024h-0.06l-0.041-0.02l-0.061-0.035L32.68,7.845l-0.112-0.029l-0.141,0.006l-0.188,0.035h-0.1
			l-0.047-0.023l-0.001-0.064l0.046-0.107l0.051-0.188l0.068-0.199l0.086-0.188l0.067-0.162l0.1-0.145l0.062-0.129l0.04-0.158
			l0.016-0.123l-0.001-0.084l-0.023-0.062l-0.023-0.041l-0.086-0.035l-0.124-0.049l-0.288-0.078l-0.334-0.024l-0.274,0.021
			l-0.265,0.08l-0.15,0.04h-0.047l-0.049-0.024l-0.047-0.049l-0.083-0.061L30.686,5.94l-0.06-0.029l-0.029-0.061l-0.02-0.054
			l-0.019-0.075l-0.024-0.049l-0.059-0.02l-0.063,0.015l-0.1,0.07L30.25,5.827l-0.11,0.107l-0.057,0.101l-0.069,0.034l-0.06,0.011
			l-0.059-0.034l-0.053-0.033L29.76,6.007l-0.053,0.02l-0.053,0.035l-0.041-0.004l-0.047-0.011L29.53,5.983L29.412,5.89
			l-0.108-0.041l-0.39-0.158l-0.2-0.092l-0.094-0.03l-0.274,0.006l-0.287,0.002L27.93,5.565l-0.143-0.078l-0.26-0.158l-0.203-0.15
			l-0.04-0.047l-0.007-0.109l-0.002-0.094l0.05-0.193l0.08-0.148l0.091-0.135l0.079-0.084l0.099-0.1l0.039-0.06V4.153l-0.035-0.039
			L27.653,4.07l0.005-0.041l0.019-0.034l0.068-0.064l0.058-0.068l0.073-0.12l0.062-0.104V3.593l-0.036-0.049l-0.083-0.029
			l-0.075,0.015L27.698,3.58L27.63,3.72l-0.118,0.203l-0.059,0.055H27.4l-0.083-0.028l-0.236-0.153l-0.229-0.099L26.61,3.599
			l-0.276-0.069l-0.129-0.06l-0.049-0.061l-0.008-0.107l-0.03-0.086l-0.037-0.099l0.005-0.056l0.023-0.024l0.08-0.051l0.053-0.05
			L26.3,2.867l0.027-0.07l-0.001-0.054l-0.024-0.095l-0.143-0.143l-0.218-0.164l-0.144-0.094l-0.152-0.059l-0.101-0.04l-0.042-0.035
			l-0.001-0.04l0.022-0.06l0.068-0.08l0.067-0.134l0.027-0.09l-0.006-0.055l-0.055-0.029l-0.13-0.035L25.25,1.501l-0.265-0.113
			l-0.143-0.109l-0.106-0.055l-0.088,0.005L24.614,1.25l-0.018,0.035l0.014,0.06l0.036,0.07l0.023,0.064l-0.021,0.05l-0.029,0.025
			h-0.058L24.515,1.54l-0.056-0.055l-0.041-0.04L24.371,1.43l-0.1-0.01l-0.065-0.025l-0.028-0.04l-0.03-0.084L24.14,1.196
			l-0.024-0.045l-0.041-0.088l-0.126-0.204l-0.125-0.094l-0.146-0.099l-0.124-0.03l-0.1,0.015l-0.215,0.065l-0.169,0.021
			l-0.105,0.005l-0.069-0.005l-0.054,0.005l-0.092,0.065l-0.109,0.04l-0.111,0.01h-0.081L22.37,0.833l-0.048-0.055l-0.033-0.021
			l-0.063,0.081l-0.067,0.058l-0.036,0.028l-0.075,0.025l-0.107-0.017l-0.131-0.034l-0.226-0.106l-0.144-0.109l-0.08-0.067
			l-0.108-0.057L21.167,0.54l-0.098,0.008l-0.151,0.039l-0.105,0.044l-0.09,0.056l-0.05,0.043l-0.067,0.113l-0.028,0.13l-0.002,0.17
			l-0.001,0.08l-0.007,0.094l0.006,0.077l0.033,0.092l0.005,0.067l-0.064,0.079l-0.107,0.075l-0.115,0.036l-0.128,0.012
			l-0.094-0.012l-0.1-0.039l-0.068-0.028l-0.059-0.039l-0.044-0.07l-0.044-0.136l-0.052-0.144L19.71,1.218l-0.047-0.051
			l-0.087-0.014l-0.067,0.032l-0.043,0.057l-0.024,0.057l-0.006,0.113v0.131l0.01,0.094l0.063,0.103L19.6,1.851l0.117,0.06
			l0.091,0.046l0.096,0.007l0.178-0.005l0.212,0.006l0.214,0.017l0.07,0.024l0.059,0.025l0.021,0.042l-0.002,0.044L20.648,2.17
			l-0.02,0.04L20.6,2.24l-0.078,0.019l-0.092,0.02l-0.042,0.016l-0.019,0.029l-0.007,0.028l-0.021,0.069l-0.02,0.044l-0.052,0.038
			l-0.062,0.02L20.123,2.53l-0.082,0.002l-0.062,0.009l-0.07-0.024h-0.088l-0.049,0.044l-0.021,0.048l-0.03,0.146l-0.057,0.188
			l-0.061,0.187l-0.069,0.13l-0.085,0.11l-0.108,0.084l-0.176,0.082l-0.133,0.01l-0.107-0.006l-0.081-0.026l-0.041,0.026
			l-0.037,0.072l-0.061,0.104l-0.077,0.055L18.54,3.802l-0.104,0.024l-0.104,0.024l-0.068,0.013L18.164,3.94l-0.231,0.192
			l-0.288,0.2l-0.043,0.03l-0.128,0.104l-0.095,0.104l-0.116,0.132l-0.07,0.092l-0.035,0.104L17.142,5v0.142l-0.011,0.127
			l-0.02,0.119l0.015,0.062l0.061,0.062l0.03,0.061l0.007,0.062l0.006,0.053l0.03,0.061l0.06,0.075l0.001,0.051l-0.048,0.08
			l-0.123,0.119L17.03,6.168l-0.038,0.073l-0.005,0.062l0.031,0.086l0.03,0.071L17.047,6.53l-0.015,0.046l-0.067,0.071l-0.079,0.033
			l-0.079,0.023l-0.049,0.029l-0.023,0.043l-0.038,0.123l-0.004,0.123l0.016,0.098l-0.027,0.102l-0.094,0.114l-0.083,0.082
			L16.403,7.46l-0.138-0.002l-0.15-0.04l-0.185-0.093L15.81,7.284l-0.081-0.002L15.659,7.31l-0.082,0.102l-0.042,0.105v0.041
			l0.077,0.086l0.136,0.061l0.118,0.046l0.09,0.07l0.148,0.11l0.141,0.062l0.08,0.067l0.021,0.031l-0.021,0.059l-0.021,0.022
			l-0.057,0.036l-0.095,0.004l-0.056-0.009l-0.096-0.058l-0.072-0.061l-0.029-0.011l-0.026,0.021l-0.045,0.076l-0.004,0.059
			l0.038,0.06l0.012,0.063l-0.038,0.072l-0.072,0.082l-0.103,0.035L15.561,8.56l-0.079,0.008l-0.049,0.029l-0.046,0.049
			l-0.102,0.162l-0.036,0.109l-0.023,0.117L15.181,9.12l-0.063,0.079l-0.131,0.071l-0.087,0.024l-0.172,0.009l-0.09,0.016
			l-0.085,0.062L14.46,9.494l-0.049,0.108L14.3,9.813l-0.112,0.213l-0.065,0.134l-0.062,0.039l-0.078,0.021l-0.126,0.008
			l-0.137,0.004l-0.085,0.021l-0.047,0.039l-0.074,0.075l-0.056,0.088L13.442,10.5l0.005,0.067l0.02,0.058l-0.011,0.052l-0.02,0.043
			l-0.033,0.049l-0.059,0.037l-0.094,0.028l-0.086,0.036l-0.079,0.074l-0.056,0.137l-0.019,0.079l-0.022,0.053l-0.056,0.072
			l-0.074,0.075l-0.118,0.146l-0.093,0.104l-0.058,0.087l-0.013,0.081l0.049,0.098l0.076,0.09l0.027,0.08l-0.009,0.084l-0.032,0.074
			l-0.121,0.09l-0.086,0.062l-0.054,0.093l-0.054,0.196l-0.036,0.148l-0.094,0.145l-0.062,0.127l-0.023,0.093l0.012,0.129
			l0.031,0.087l0.03,0.126l0.034,0.093l0.017,0.104l-0.058,0.168l-0.087,0.192l-0.008,0.162l0.041,0.18l0.066,0.175l0.077,0.19
			l0.001,0.102l-0.033,0.141l-0.038,0.098l-0.059,0.08l-0.084,0.059l-0.124,0.033l-0.136-0.01l-0.069,0.026l-0.028,0.05l-0.006,0.08
			l0.014,0.059l0.069,0.055l0.046,0.025l0.082-0.002l0.044,0.004l0.029,0.024v0.04l-0.021,0.149l-0.021,0.168l-0.031,0.096
			l-0.066,0.084l-0.102,0.071l-0.088,0.029l-0.079-0.006l-0.114-0.043l-0.074-0.016L11.352,16.2l-0.033,0.039l-0.043,0.096
			l-0.005,0.09L11.25,16.56l-0.005,0.153l0.035,0.216l0.095,0.195l-0.081,0.107l-0.112,0.119l-0.062,0.045l-0.038,0.076
			l-0.049,0.098l0.016,0.074l0.07,0.071l0.026,0.056l0.006,0.094l0.019,0.098l0.075,0.062l0.058,0.043l0.031,0.046l0.017,0.099
			l0.14,0.096l0.127,0.094l0.087,0.146l0.062,0.114l-0.012,0.1l-0.043,0.086l-0.105,0.133L11.502,19l-0.156,0.021L11.2,19.047
			l-0.16-0.001l-0.153-0.011l-0.063,0.022l-0.072,0.063l-0.059,0.115l-0.165,0.145l-0.162,0.111l-0.166,0.065h-0.121L9.97,19.563
			l-0.171-0.051l-0.185-0.09l-0.118-0.056l-0.145-0.03l-0.086,0.037l-0.087,0.094l-0.153,0.149l-0.234,0.56l-0.176,0.338
			L8.45,20.892l-0.301,0.742l-0.098,0.273l-0.05,0.152l0.038,0.162l0.062,0.17l-0.007,0.17l-0.057,0.117l-0.137,0.166l-0.176,0.084
			l-0.128,0.045H7.489l-0.123-0.045l-0.043,0.008l-0.027,0.08l0.046,0.119l0.073,0.198l-0.027,0.161l0.007,0.174l0.069,0.151
			l0.084,0.02l0.147-0.004l0.157-0.021l0.162-0.032l0.08-0.005l0.134,0.025l0.079,0.028l0.053,0.054l0.028,0.184l-0.022,0.229
			l-0.059,0.196L8.222,24.69l-0.025,0.187l0.026,0.238l0.085,0.202l0.023,0.062l-0.056,0.059l-0.09,0.048l-0.149,0.06L7.91,25.613
			l-0.104,0.075l-0.127,0.148l-0.054,0.105l-0.048,0.177l0.002,0.183l0.046,0.305l0.099,0.229l0.025,0.158l0.023,0.111l-0.019,0.062
			l-0.056,0.061L7.606,27.25l-0.256,0.009l-0.123,0.035l-0.031,0.034l-0.045,0.063l0.029,0.102l0.021,0.088l-0.064,0.104
			L7.067,27.78l0.008,0.115l0.121,0.103l0.115,0.089l0.082,0.18l0.071,0.254l0.106,0.131l-0.001,0.16l0.002,0.645l-0.144,0.07
			l-0.121,0.061l-0.174,0.135l-0.127,0.111l-0.107,0.176L6.848,30.14l0.026,0.08l0.102,0.146l0.118,0.099l0.241,0.19l0.269,0.229
			l0.123,0.134l0.094,0.157l0.011,0.121v0.069l-0.044,0.092l-0.076,0.105l-0.084,0.035l-0.134,0.066l-0.24,0.059l-0.285,0.08
			l-0.312,0.104l-0.246,0.041l-0.17-0.01l-0.174-0.018l-0.167-0.043l-0.154-0.064l-0.128-0.053H5.487l-0.115,0.034L5.337,31.84
			l0.015,0.089l0.032,0.11l0.007,0.093l-0.013,0.092l-0.023,0.045l-0.076,0.133L5.191,32.47l-0.138,0.045L4.97,32.535l-0.104,0.003
			l-0.08-0.014l-0.096-0.012l-0.106-0.012L4.42,32.536l-0.186,0.033l-0.101,0.006l-0.077-0.004l-0.121-0.053l-0.13-0.054
			l-0.213-0.116l-0.198-0.084l-0.167-0.029l-0.073,0.019l-0.097,0.015l-0.066,0.049l-0.038,0.066l0.011,0.066l0.077,0.061
			l0.068,0.104l0.01,0.107l-0.034,0.131l-0.041,0.072l-0.083,0.049L2.83,32.994l-0.154-0.011L2.51,32.997l-0.073,0.018l-0.052,0.049
			l-0.021,0.095l0.021,0.116l0.018,0.07l-0.028,0.092L2.33,33.513l-0.267,0.316l-0.058,0.129L2.004,34.06l0.109,0.144l0.315,0.312
			l0.263,0.27l0.136,0.152l0.021,0.06L2.837,35.06l-0.092,0.093L2.6,35.209l-0.12,0.06l-0.264,0.097l-0.121,0.019l-0.074,0.028
			l-0.105,0.06l-0.062,0.075l-0.073,0.075l-0.393,0.415L1.24,36.229L1.199,36.33l-0.019,0.116l0.047,0.145l0.126,0.101l0.058,0.079
			l0.017,0.098l-0.026,0.146L1.354,37.14l-0.094,0.168l-0.041,0.06l-0.061,0.063L1.07,37.449l-0.106-0.022l-0.117-0.043
			l-0.046-0.021l-0.1-0.007l-0.083,0.007L0.57,37.39l-0.031,0.058l-0.002,0.116l0.102,0.298l0.028,0.069l0.171,0.42l0.25,0.609
			l0.122,0.459l0.04,0.215l0.008,0.252l-0.015,0.152l0.062,0.13l0.104,0.167l0.039,0.129l0.008,0.141l-0.057,0.17l-0.047,0.111
			l-0.024,0.127l0.059,0.095l0.097,0.096L1.517,41.3l-0.019,0.187l-0.013,0.078l-0.036,0.14l0.007,0.127l0.123,0.107l0.447,0.224
			l0.275,0.095l0.055-0.012l0.03-0.057l0.066-0.117l0.103-0.066l0.149-0.041l0.129-0.031l0.046-0.012l0.153-0.02l0.198,0.027
			l0.097,0.041l0.09,0.08l0.096,0.123l0.015,0.145l0.062,0.129l0.045,0.047l0.087,0.029l0.242,0.006l0.165-0.082l0.112-0.1
			l0.084-0.149l0.051-0.173l0.085-0.206l0.104-0.128l0.092-0.094l0.087-0.025l0.134,0.002l0.142,0.031l0.135,0.07l0.057,0.06
			l0.076,0.019l0.031-0.041L5.312,41.64l-0.071-0.127l-0.062-0.156v-0.098l0.031-0.125l0.058-0.072l0.092-0.106l0.062-0.11
			l0.082-0.131l0.07-0.055l0.042-0.003l0.062,0.056l0.023,0.209l0.05,0.359l0.033,0.193l0.052,0.104l0.032,0.014h0.047l0.067-0.047
			l0.322-0.285l0.129-0.102l0.255-0.118l0.341-0.194l0.459-0.151l0.435-0.147l0.494-0.137l0.529-0.081l0.352-0.045l0.308,0.004
			l0.185,0.052l0.096,0.055l0.068,0.201l0.032,0.305l0.038,0.715l0.025,0.094l0.052,0.049l0.107,0.047l0.274,0.004l1.375,0.035
			l0.289,0.004l0.086-0.012l0.075,0.033l0.209,0.137l0.162,0.033l0.124-0.023l0.08-0.057l0.024-0.1l0.032-0.057l0.093-0.037
			l0.169-0.019l0.102-0.039l0.105-0.046l0.099-0.117l0.153-0.156l0.111-0.195l0.085-0.15l0.066-0.074l0.076-0.01l0.115,0.049
			l0.083,0.104l0.028,0.172v0.181l-0.031,0.193l-0.093,0.161l-0.276,0.36l-0.307,0.383l-0.139,0.179l-0.061,0.104l-0.041,0.086
			l0.02,0.078l0.082,0.076l0.105,0.051l0.144,0.014l0.108-0.078l0.072-0.128l0.017-0.14l0.003-0.172l0.041-0.129l0.061-0.078
			l0.074-0.017l0.079-0.001l0.191,0.081l0.113,0.146l0.115,0.159l0.074,0.08l0.082,0.062l0.107,0.02l0.097-0.029l0.099-0.131
			L15.022,42.741"/>
	</g>
</g>
<g id="Layer_1">
</g>
</svg>
