<?xml version="1.0" encoding="iso-8859-1"?>
<!-- Generator: Adobe Illustrator 16.0.4, SVG Export Plug-In . SVG Version: 6.00 Build 0)  -->
<!DOCTYPE svg PUBLIC "-//W3C//DTD SVG 1.1//EN" "http://www.w3.org/Graphics/SVG/1.1/DTD/svg11.dtd">
<svg version="1.1" xmlns="http://www.w3.org/2000/svg" xmlns:xlink="http://www.w3.org/1999/xlink" x="0px" y="0px"
	 width="15.515px" height="20.15px" viewBox="0 0 15.515 20.15" style="enable-background:new 0 0 15.515 20.15;"
	 xml:space="preserve">
<g id="Layer_89">
	<g id="Layer_94">
		<path id="Mirpur" style="fill:#CCCCCC;stroke:#FFFFFF;stroke-width:1.07;" d="M14.483,10.375
			L14.483,10.375l-0.017,0.011l-0.019,0.015l-0.052,0.062l-0.021,0.144l-0.103,0.004l-0.062,0.012l-0.171,0.02l-0.012-0.04
			l-0.046-0.091l-0.038-0.071l-0.084-0.051l-0.017-0.034l0.034-0.076l0.002-0.053l-0.039-0.091l-0.087-0.143L13.74,9.916
			l-0.072-0.011l-0.091-0.023l-0.072-0.022l-0.081-0.016l-0.086-0.019l-0.058-0.02l-0.068-0.007l-0.036-0.015l-0.031-0.027
			l-0.036-0.022l-0.026-0.02l-0.036-0.03l-0.062-0.045l-0.026-0.023l-0.031-0.03L12.894,9.56l-0.019-0.031l-0.026-0.042
			l-0.026-0.023l-0.026-0.031l-0.036-0.03l-0.046-0.038L12.678,9.33l-0.025-0.027L12.62,9.299L12.606,9.26l-0.063-0.05l-0.059-0.034
			l-0.046-0.03L12.39,9.085l-0.067-0.061l-0.056-0.058l-0.035-0.042l-0.04-0.05l-0.062-0.042l-0.037-0.034l-0.045-0.034l-0.05-0.046
			l-0.032-0.023L11.93,8.658l-0.026-0.022l-0.045-0.031l-0.027-0.023l-0.072-0.046l-0.035-0.03l-0.091-0.038l-0.026-0.03
			l-0.027-0.023l-0.036-0.03l-0.059-0.042l-0.021-0.027l-0.041-0.039l-0.05-0.038l-0.027-0.023l-0.054-0.08l-0.055-0.019
			l-0.05-0.042l-0.086-0.088l-0.06-0.034l-0.036-0.038L10.951,7.86l-0.036-0.042l-0.036-0.039l-0.036-0.034L10.802,7.71
			l-0.026-0.035l-0.026-0.038l-0.055-0.049l-0.022-0.035l-0.041-0.042l-0.03-0.038l-0.031-0.038l-0.045-0.042l-0.063-0.042
			l-0.032-0.026l-0.045-0.042l-0.021-0.031l-0.026-0.035l-0.019-0.023L10.295,7.16l-0.041-0.038l-0.026-0.026l-0.035-0.027
			l-0.023-0.031l-0.018-0.026l-0.027-0.034l-0.026-0.031l-0.022-0.031L10.058,6.89L10.03,6.848L9.989,6.798L9.971,6.768L9.956,6.741
			L9.936,6.718l-0.06-0.054L9.817,6.642L9.78,6.619L9.763,6.597L9.735,6.574L9.704,6.55L9.683,6.54L9.637,6.521L9.618,6.509
			L9.592,6.491L9.565,6.472L9.538,6.444l0.019-0.045l0.036-0.027l0.035-0.015l0.046-0.03l0.04-0.031L9.75,6.273l0.035-0.027
			l0.02-0.023L9.804,6.208l0.005-0.015L9.754,6.178L9.719,6.173L9.673,6.159L9.638,6.147l-0.06-0.012L9.537,6.127L9.506,6.124
			L9.394,6.085H9.372L9.3,6.047L9.25,6.013L9.188,5.991l-0.031-0.02L9.12,5.949l-0.036-0.03L9.048,5.883L9.013,5.853L8.977,5.83
			L8.94,5.803L8.918,5.788L8.882,5.765l-0.03-0.03L8.839,5.71L8.806,5.691L8.792,5.685L8.761,5.672L8.715,5.666l-0.04-0.011
			L8.624,5.639L8.562,5.631l-0.06-0.019l0.022-0.038l0.05-0.038l0.053-0.046l0.077-0.054l0.05-0.023l0.081-0.023l0.055-0.031
			l0.035-0.027l0.041-0.031L8.993,5.28l0.036-0.035l0.009-0.035V5.188L9.021,5.161L8.988,5.149L8.916,5.126L8.895,5.12L8.85,5.101
			L8.827,5.088l-0.05-0.023L8.741,5.05L8.72,5.021L8.688,4.99l-0.02-0.023L8.664,4.936L8.65,4.906L8.642,4.864L8.614,4.787
			l-0.009-0.03L8.592,4.726L8.569,4.699L8.524,4.649L8.497,4.623L8.451,4.615L8.398,4.61L8.361,4.604L8.34,4.584L8.321,4.573
			L8.303,4.558L8.249,4.542L8.177,4.517L8.146,4.479L8.124,4.443l-0.015-0.05V4.359L8.104,4.317L8.096,4.264v-0.03L8.095,4.18v-0.05
			l0.027-0.072l0.03-0.031l0.049-0.058l0.006-0.034l0.014-0.039l0.021-0.022l0.022-0.031l0.009-0.039L8.269,3.766l-0.036-0.03
			L8.219,3.708L8.2,3.678L8.182,3.636L8.178,3.594V3.556l0.004-0.042l0.021-0.034l0.022-0.046l0.027-0.035L8.273,3.36l0.032-0.046
			L8.327,3.28l0.031-0.03l0.027-0.027l0.054-0.038l0.018-0.016V3.13L8.431,3.084l-0.036-0.05L8.376,3.008L8.354,2.978L8.335,2.938
			L8.317,2.913L8.285,2.877L8.268,2.854l-0.02-0.03l-0.019-0.03L8.212,2.768L8.189,2.741L8.158,2.717L8.117,2.679L8.076,2.625
			L8.031,2.583L8.01,2.549L7.974,2.519L7.942,2.484L7.901,2.458L7.87,2.435L7.849,2.419L7.816,2.405L7.763,2.377L7.74,2.358
			L7.708,2.332L7.673,2.312L7.646,2.282L7.614,2.255L7.578,2.232L7.542,2.213L7.529,2.19L7.497,2.171L7.493,2.148L7.467,2.115
			L7.444,2.087L7.423,2.061L7.377,2.027L7.354,1.996L7.323,1.964L7.297,1.938L7.27,1.904L7.243,1.88L7.221,1.857L7.194,1.834
			l-0.037-0.03l-0.021-0.02l-0.05-0.019L7.056,1.743L7.027,1.721L6.992,1.694L6.961,1.675L6.938,1.66L6.926,1.648L6.894,1.633
			L6.853,1.602l-0.04-0.019L6.794,1.56L6.731,1.521L6.709,1.505L6.678,1.483L6.642,1.46L6.597,1.434L6.57,1.418H6.544L6.521,1.399
			L6.5,1.384L6.463,1.357l-0.031-0.02l-0.036-0.03l-0.01-0.006L6.337,1.27L6.322,1.254L6.297,1.228l-0.05-0.038L6.216,1.167
			L6.17,1.137L6.139,1.105L6.098,1.077L6.039,1.03L6.012,0.996L5.989,0.98L5.954,0.973h-0.05L5.882,0.969L5.847,0.954L5.81,0.942
			L5.792,0.935L5.756,0.923L5.725,0.908L5.688,0.892L5.647,0.875L5.612,0.865h-0.05H5.509H5.454H5.418H5.363H5.305H5.241H5.196
			h-0.05H5.088H5.039L5.003,0.869L4.971,0.872L4.952,0.884L4.935,0.892L4.907,0.907L4.872,0.93L4.841,0.946L4.818,0.949L4.782,0.953
			H4.751H4.732l-0.021-0.02L4.706,0.895L4.702,0.849L4.661,0.803L4.656,0.753L4.634,0.723L4.606,0.691L4.575,0.672l-0.03-0.019
			l-0.027-0.02l-0.05-0.015l-0.05-0.007L4.377,0.604L4.338,0.588L4.292,0.573l-0.06-0.019L4.196,0.562l0.005,0.027l0.006,0.023
			v0.022L4.18,0.649L4.157,0.658L4.144,0.665L4.13,0.672L4.111,0.691L4.09,0.708L4.071,0.719L4.058,0.733v0.023L4.053,0.78
			L4.035,0.798L4.016,0.81L3.994,0.833L3.98,0.852L3.976,0.867v0.011L3.967,0.894l0.004,0.015v0.007l0.005,0.016l0.009,0.023v0.019
			L3.95,0.986H3.927H3.914L3.892,0.993L3.86,1H3.838L3.815,1.004L3.79,1.02H3.763L3.736,1.004L3.682,0.978H3.663L3.649,0.958
			L3.614,0.951L3.559,0.935L3.505,0.923l-0.05-0.008H3.399H3.365L3.32,0.932L3.288,0.936H3.234H3.198H3.167l-0.02-0.004l-0.23-0.028
			L2.859,0.896l-0.164,0.36L2.303,1.399L2.095,1.476L1.852,1.613L1.646,1.729L1.531,2.133l0.057,0.485L0.953,3.276L0.839,3.469
			L0.735,3.645L0.55,4.049L0.539,4.476L0.538,4.51l0.161,0.375l0.428,0.999l0.444-0.018l0.144-0.005l0.121,0.092l0.226,0.173
			L1.794,6.497L1.705,6.761l0.353,0.272l0.075,0.058l0.006,0.08l0.005,0.064L2.071,7.375L2.038,7.438l0.045,0.136l0.336,0.293
			l0.004,0.003L2.386,7.94L2.276,8.148L2.266,8.264L2.254,8.406l0.245,0.483l0.244,0.48L2.741,9.417L2.728,9.834l0.208,0.232
			l0.604,0.254l-0.113,0.547l0.047,0.127l0.097-0.078l0.231-0.19l0.012-0.001l0.194-0.016l0.161,0.124l0.095,0.072l0.093,0.04
			l0.109,0.046l0.083,0.036l0.062,0.518l0.056,0.47l-0.017,0.44L4.613,13.41l-0.109,0.127l-0.199,0.234l-0.721,0.311l-0.25,0.129
			l-0.008,0.004l-0.021,0.009l-0.222,0.103l-0.071,0.107L2.87,14.654l-0.012,0.541l-0.021,0.102l-0.06,0.279l0.085,0.242
			l0.077,0.221l0.444,0.26l0.167,0.097l0.577,0.208l1.614,0.346l0.52,0.188l1.743,0.631l0.229,0.159l0.119,0.083l0.24,0.375
			l0.396,0.616l0.189,0.043l0.016,0.004l0.438,0.173l0.532,0.297l0.148,0.083l0.02-0.002l0.454-0.057l0.22-0.068l0.142-0.066v-0.009
			l0.26-0.303l0.051-0.138l0.072-0.146l0.057-0.063l0.149-0.023l0.071,0.005l0.117,0.076l0.176,0.063l0.096-0.023l0.047-0.075
			l0.006-0.087l0.097-0.082l0.034-0.023l-0.007-0.123l-0.004-0.125l0.01-0.185l0.019-0.042L12.578,18l0.15-0.094l0.186-0.072
			l0.099-0.098l0.135-0.156l0.104-0.183l0.089-0.216l0.033-0.117l0.006-0.037l0.035-0.044l-0.019-0.004l0.021-0.043l-0.073-0.116
			l-0.02-0.027l-0.123-0.062l-0.062-0.021l-0.152-0.024l-0.061-0.022l-0.065-0.049l-0.08-0.115l-0.108-0.149l-0.048-0.069
			l-0.038-0.043l-0.05-0.095l-0.022-0.046l-0.031-0.047l-0.065-0.078l-0.032-0.036l-0.047-0.06l-0.039-0.051l-0.021-0.033
			l-0.021-0.051l0.047-0.058l0.028-0.03l0.038-0.051l0.049-0.079l0.057-0.097l0.051-0.062l0.077-0.086l0.053-0.053l0.037-0.036
			l0.062-0.034l0.062-0.048l0.118-0.062l0.124-0.057l0.184-0.064l0.146-0.038l0.088-0.06l0.014-0.107l0.011-0.037l0.021-0.111
			l0.014-0.162l-0.003-0.092l-0.021-0.082l-0.051-0.145l-0.046-0.078l0.008-0.075l-0.034-0.135l-0.021-0.108l0.042-0.07l0.059-0.043
			l0.104-0.068l0.084-0.008l0.117-0.043l0.125-0.053l0.148-0.074l0.062-0.041l0.17-0.068l0.07-0.025l0.146-0.091l0.034-0.082
			l0.068-0.077l0.079-0.066l0.072-0.053l0.062-0.062l0.039-0.053l0.062-0.049l-0.031-0.125l-0.004-0.08l-0.08-0.107l-0.062-0.074
			l-0.047-0.136l-0.034-0.104l-0.046-0.065l-0.068-0.065l-0.03-0.017l-0.029-0.026l-0.053-0.033l-0.015-0.02L14.4,11.744
			l0.006-0.035l0.067-0.084l0.072-0.082l0.079-0.053l0.009-0.086l-0.014-0.076l-0.062-0.07l0.014-0.034l0.046-0.095l0.018-0.068
			l0.008-0.074l-0.036-0.078l-0.019-0.074l-0.022-0.049l-0.002-0.072v-0.053l-0.023-0.104V10.5l0.006-0.049L14.483,10.375"/>
	</g>
</g>
<g id="Layer_1">
</g>
</svg>
