<?xml version="1.0" encoding="utf-8"?>
<!-- Generator: Adobe Illustrator 16.0.4, SVG Export Plug-In . SVG Version: 6.00 Build 0)  -->
<!DOCTYPE svg PUBLIC "-//W3C//DTD SVG 1.1//EN" "http://www.w3.org/Graphics/SVG/1.1/DTD/svg11.dtd">
<svg version="1.1" id="Layer_1" xmlns="http://www.w3.org/2000/svg" xmlns:xlink="http://www.w3.org/1999/xlink" x="0px" y="0px"
	 width="301.275px" height="443.834px" viewBox="-125.339 -184.856 301.275 443.834"
	 style="enable-background:new -125.339 -184.856 301.275 443.834;" xml:space="preserve">
<g id="Layer_92">
	<path id="Muzaffargarh" style="fill:#CCCCCC;stroke:#FFFFFF;stroke-width:1.15;" d="M-75.237,92.35L-75.237,92.35l-0.299,1.194
		l-0.545,0.585l-0.569,0.62l-0.711,0.432l-1.206,0.545l-1.057,0.666l-0.517,0.499l-0.011,0.259l0.12,0.179l0.437,0.188l0.85,0.167
		l1.217,0.219l0.821,0.712l0.282,0.315l0.12,0.466l0.235,1.349l0.126,0.821l-0.178,0.821l-0.431,0.821l-0.752,1.327l-0.608,1.103
		l-0.511,0.401l-0.402,0.287l-0.218,0.367l-0.017,0.425l0.253,1l0.063,0.78l-0.149,0.679l-0.861,1.343l-0.517,1.31l-0.999,1.47
		l-0.333,0.771l-0.603,0.85l-0.465,0.402l-0.747,0.447l-0.608,0.448l-0.62,0.746l-0.121,0.569l-0.028,0.637l0.011,0.941l0.741,1.011
		l0.695,0.977l0.792,1.068l1.659,1.378l2.079,1.603l0.517,0.545l0.172,0.608l-0.321,0.402l-0.408,0.241l-0.258,0.299l-0.063,0.264
		l-0.098,0.666l-0.12,0.633l-0.172,0.562l-0.207,0.16l-0.419,0.022l-0.638-0.022l-1.097,0.218l-0.155,0.162l-0.011,0.372
		l0.356,0.759l0.345,0.684l0.144,0.585l0.167,0.684l0.063,0.735l-0.041,0.89l-0.201,0.207l-0.368,0.114l-1.194,0.27l-1.54,0.201
		l-1.872,0.081l-1.666-0.069l-1.264-0.465l-1.309-0.315l-1.131-0.115l-0.833-0.04l-0.58,0.188l-0.517,0.563l-0.724,0.947
		l-0.316,0.614l-0.833,1.901l-0.385,0.775l-0.344,2.217l0.144,1.733l-0.029,0.724l-0.437,0.977l-0.074,0.632l0.275,0.517
		l0.046,1.252l0.333,0.867l0.086,0.017v0.012l-0.126,0.402l0.017,0.471l0.293,0.598l0.121,0.597l0.012,0.448l0.109,0.941
		l-0.258,1.229l-0.356,0.77l-0.368,0.242l-0.367,0.011L-96.789,154l-0.482-0.527l-0.402-0.23h-0.27l-0.27,0.011l-0.195,0.402
		l-0.058,0.638l-0.184,0.931l-0.121,0.604l-0.534,0.24l-0.671,0.012l-0.345-0.229l-0.098-0.472l-0.121-0.631l-0.138-0.598
		l-0.477-0.465l-0.608-0.281h-0.557l-0.339,0.126l0.006,0.299l-0.058,0.632l-0.161,1.125l-0.121,1.345l-0.241,1.103v0.125
		l0.345,0.402l1.206,0.345l1.286,0.275l0.942,0.299l0.413,0.62l-0.126,1.31l-0.362,2.102l-0.454,1.24l-0.459,0.873l-0.528,0.655
		l-1.086,0.477l-0.562,0.35l0.006,0.414l0.144,0.287l0.471,0.126l0.603-0.012l0.27,0.401l0.149,0.587l0.006,0.608l-0.265,0.367
		l-0.189,0.466l-0.063,0.407l0.006,0.362l0.379,0.119l0.212,0.408l0.086,0.351l-0.075,0.603l-0.264,0.472l-0.178,0.706l0.012,0.592
		l0.023,0.872l0.471,0.758l0.218,1.229l0.362,0.694l0.747,0.219l0.677,0.293l0.54,0.396l0.121,0.472l-0.115,0.712l-0.333,0.694
		l-0.448,0.604l-0.35,0.77l-0.057,0.832l-0.121,1.351l-0.189,0.407l-0.466,0.402l-0.729,0.304l-0.861,0.179l-0.729,0.361
		l-0.81,0.431l-0.724,0.614l-0.264,0.638l0.011,0.454l0.018,0.774l0.006,0.472l-0.063,0.401l-0.339,0.167l-0.735,0.298l-0.815,0.08
		l-1.08,0.253l-0.729,0.311l-0.384,0.31l-0.603,0.638l-0.253,1l-0.442,1.406l-0.121,1.838l0.012,0.924l-0.121,0.874l-0.195,0.355
		l-0.786,0.367l-1.666,0.189l-1.01,0.075l-1.068,0.568l-0.655,0.631l-0.597,0.632l-0.603,0.851l-0.121,0.304l0.005,0.396
		l0.201,0.063l0.609-0.012l1.085-0.315l0.604-0.242h0.735l0.545,0.219l0.287,0.626l0.575,1.517l0.97,1.93l0.77,1.854l0.281,1.108
		l0.011,0.644l-0.442,1.298l-0.844,1.711l-0.436,1.557l-0.115,1.814l0.31,2.343l0.167,2.699l0.631,2.808l0.23,1.694l-0.184,0.786
		l-0.373,0.363l-0.615,0.183l-0.925,0.127l-1.28,0.086l-0.333,0.362l-0.385,0.591l-0.247,1.011l-0.155,1.832l-0.247,1.35
		l-0.379,0.832l-0.925,1.344l-0.178,0.609l-0.178,0.7l-0.046,1.344l0.201,1.057l0.488,1.286l0.104,0.941l0.012,0.695l-0.184,1.005
		l-0.706,1.481l-1.752,3.354l-0.907,1.354l0.018,0.361l0.132,0.362l0.551,0.827l0.844,1.183l0.838-0.907l0.856-0.62l1.194-0.856
		l1.367-0.774l1.114-0.552l1.832-0.965l2.228-0.854l2.165-0.701l2.176-0.626l1.217-0.241l0.821-0.391l0.459-0.194l-0.608-1.643
		l0.608-3.469l0.368-1.32l0.235-0.633l0.321-0.459l0.575-0.396l1.051-0.482l2.216-0.361l3.371-0.614l3.262-0.759l2.389-0.372
		l1.413-0.438l0.965-0.603l0.591-0.54l0.517-0.614l0.361-0.758l0.23-1.207l0.258-0.907l0.54-1.618l0.574-1.608l0.735-1.746
		l0.5-0.965l0.638-1.803l0.58-1.446l0.407-0.701l0.529-0.459l0.631-0.242l0.379-0.12h0.454l0.982,0.034l0.712-0.08l0.781-0.305
		l0.786-0.413l0.707-0.528l0.615-0.311l0.459-0.022l0.608,0.24l0.644,0.482l0.5,0.564l0.5,0.4l0.644,0.069l0.804-0.149l0.396-0.367
		l0.374-0.361l0.678-1.499l0.855-1.637l1.671-3.796l1.688-3.308l0.89-2.411l0.505-2.412l0.43-1.999l1.091-3.445l0.551-0.792
		l0.626-0.368l0.816-0.218l1.114-0.034l0.735,0.194l1.131,0.552l1.074,0.551l1.47,0.391l1.304,0.333l1.803,0.328l2.527,0.441
		l1.108-0.103l0.482-0.23l0.328-0.287l0.189-1.492l-0.04-1.568l-0.035-1.119l-0.029-0.701l0.322-0.586l0.562-0.598l0.81-0.229
		l0.867-0.011l0.896,0.275l1.384,0.609l1.867,0.952l3.089,1l6.03,2.435l1.32,0.758l1.396-2.47l0.08-2.279l-0.614-1.774l-0.815-0.517
		l-0.827-0.701l-0.362-0.758l-0.126-0.93l0.264-0.466l0.339-0.241h0.396l0.856,0.225l2.084,0.907l2.027,0.976l1.286,0.586
		l1.534,0.494l0.936-0.006l0.862-0.178l0.66-0.546l0.643-0.833l0.184-0.998l-0.282-0.988l-0.557-1.108l-0.482-1.292l-0.958-1.516
		l-1.022-0.632l-1.286-0.688l-1.344-0.633l-1.137-0.437l-0.821-0.827l-0.471-0.16l-0.666-0.068l-0.81-0.115l-0.735-0.114
		l-0.356-0.368v-0.391l0.327-1.114l1.166-2.349l0.804-1.165l0.988-1.351l0.913-0.774l0.815-0.367l0.936-0.013l1.344,0.276
		l1.35,0.287l1.08,0.057l1.269-0.31l1.005-0.844l0.454-0.77l0.551-1.166l0.54-0.838l0.379-0.299l0.391-0.075l0.609,0.063
		l0.545,0.361l0.827,0.454l0.746,0.356l0.661-0.012h0.534l0.545-0.367l0.798-1.011l0.614-0.598l0.454-0.402l1.344-0.482l1.676-0.562
		l3.061-1.091l2.01-1.085l0.798-0.77l0.534-0.775l-0.006-0.632l-0.023-2.005l-0.574-2.394l0.011-1.183l0.258-0.782l0.804-0.774
		l0.608-0.528l0.861-0.545l1.206-0.369l0.66-0.229l0.644-0.712l0.465-0.827l0.126-1.413l0.132-0.747l0.614-0.597l-0.758,0.185
		l-0.874,0.229l-0.608,0.372l-0.384,0.689l-0.178,0.339l-0.322,0.092l-1.62-0.574l-2.532-1.217l-0.724-0.632l-0.04-0.746
		l0.212-0.827l0.075-0.46l0.126-1.108l-0.195-0.567l-0.592-0.575l-0.344-0.562l0.144-0.753l0.275-0.637l0.333-1.005l-0.046-0.838
		l-0.23-0.753l-0.615-0.982l-0.361-0.764l0.086-0.896l-0.046-1.481l-0.235-1.263l-0.718-2.699l-1.47-3.578l-1.005-2.475
		l-0.161-0.402l-0.603-1.751l0.011-0.684l0.184-0.345l0.282-0.149l0.488-0.034l0.586,0.034l0.287,0.121l0.672,0.252l0.626,0.121
		l0.522-0.108l0.356-0.363l0.241-0.367l0.574-0.987l0.276-0.735l0.131-0.86l-0.098-0.587l-0.338-0.471l-0.741-0.591l-0.298-0.844
		l0.126-0.689l0.241-0.598l0.855-1.125l2.331-2.435l0.431-0.448l0.362-0.437l0.62-0.356l0.425-0.126l0.711-0.115l1.574-0.574
		l0.712-0.368l0.85-0.355l0.54-0.539l0.097-0.368l-0.132-0.361l-0.798-0.879l-1.544-1.591l-1.855-1.832l-0.644-0.85l0.012-0.608
		l0.362-0.758l1.568-1.85l0.258-0.441l0.167-0.552l-0.104-0.402l-0.126-0.684l0.126-0.557l0.305-0.293l0.431-0.115l0.97-0.097
		l0.89,0.074l0.77-0.12l0.488-0.305l0.241-0.407l0.201-0.771l-0.058-0.613l-0.401-0.615l-0.454-0.362L8.39,90.718l0.224-0.378
		l0.396-0.294l0.562-0.097l0.431-0.127l0.982,0.173l1.143,0.494l1.281,0.677l0.758,0.321l0.718,0.311l0.425,0.034l0.615-0.046
		l1.091-0.184l0.959-0.195l0.626,0.063l0.563,0.086l0.471,0.08l0.615-0.022l0.499-0.121l0.81-0.27l0.511-0.379l0.448-0.793
		l0.121-0.271l0.104-0.538l-0.069-0.558l-0.167-0.638l-0.109-0.522l0.207-0.275l0.678-0.201l0.758-0.006l0.752,0.328l0.908,0.361
		l0.981,0.252l1.022,0.127l1,0.068l1.447-0.24l1.831-0.615l1.677-0.465l1.413-0.345l0.786-0.39l0.494-0.207l0.448-0.609l0.259-0.551
		v-0.396l-0.063-0.712l-0.551-0.913l-0.725-0.799l-1.597-1.349l-1.412-1.103l-0.678-0.598l-0.614-0.861l-0.127-0.465l0.299-0.77
		l0.608-1.039l0.747-0.649l1.045-0.792l0.719-0.362l0.838-0.401l-0.011-3.796l0.005-0.937l-0.626-0.775l-0.396-1.493l-0.482-1.057
		l-0.678-0.521L32.63,64.36l-0.046-0.678l0.413-0.568l0.361-0.614l-0.12-0.518l-0.172-0.603l0.264-0.362l0.184-0.207l0.724-0.2
		l1.505-0.052l0.539-0.126l0.328-0.367l0.126-0.362l-0.138-0.649l-0.126-0.924l-0.604-1.35l-0.271-1.814l-0.022-1l0.281-1.045
		l0.328-0.614l0.746-0.867l0.609-0.436l0.74-0.374l0.879-0.361l0.528-0.287l0.326-0.351l-0.119-0.361l-0.501-1.195l-0.154-1.4
		l0.138-1.103l0.518-1.143l0.344-1.154l0.126-1.345l-0.154-1.09l-0.315-0.328l-0.46-0.154l-0.793-0.141l-0.476,0.03l-0.942,0.188
		L36.3,40.559l-0.856,0.028l-0.494-0.124l-0.396-0.875l-0.039-1.022l0.138-0.947l-0.414-1.164l-0.281-0.695l0.155-0.471l0.253-0.046
		l0.723,0.265h0.626l0.759-0.265l1.039-0.494l0.804-0.976l0.351-0.689l0.045-1l-0.367-0.999l-0.218-0.953l0.304-0.881l0.581-1.594
		l1.768-4.364l0.971-2.216l1.045-1.999l1.367-3.293l0.896-0.864l0.512-0.566l0.511-0.207l0.855,0.167l0.689,0.342l1.097,0.528
		l1.017,0.299l0.614-0.035h0.712l0.977-0.376l0.953-0.64l0.971-0.858l0.355-0.672l0.414-0.364l0.367-0.124l0.885,0.071h0.941
		l0.861-0.135l0.907-0.123l0.614-0.124l0.609-0.801l0.253-0.505l0.074-0.589l-0.367-0.663l-0.512-0.858l-0.747-0.56l-0.826-0.568
		l-0.114-0.594L57.506,6.7l-0.351-0.252l-0.441-0.365L56.604,5.5l-0.046-0.56l-0.145-0.328l-0.406-0.419l-0.099-0.428l0.287-0.583
		l0.225-0.448l0.367-0.264l0.643-0.698l0.478-0.626l-0.558-1.14l-0.206-1.275l0.028-0.896l0.126-0.792l0.041-0.529l0.253-0.571
		l0.188-0.23l0.431-0.23l0.432,0.089l0.671,0.264l0.466,0.035l0.517-0.158l0.603-0.417l0.385-0.494l0.172-0.572l0.121-0.987
		l0.127-0.858v-0.23l-0.167-0.146l-0.258-0.023L60.797-8l-0.271-0.141l-0.407-0.325l-0.081-0.353l0.034-0.471l0.162-0.298
		l0.396-0.146l0.804,0.063l0.729-0.195l0.494-0.35l0.355-0.466l0.224-0.583l0.196-0.841l-0.006-0.612l-0.454-1.105l-0.414-1.022
		l-0.234-1.083l0.052-0.947l0.517-1.128l0.35-0.988l-0.114-0.612l-0.184-0.54l-0.179-0.75l-0.183-0.522l-0.069-0.758l0.127-0.546
		l0.361-0.747l0.551-0.861l0.213-0.855l0.32-1.154l0.334-0.545l0.506-0.365l0.712-0.531l0.172-0.434l0.068-0.494l-0.16-0.471
		l-0.447-0.531l-0.294-0.609l0.074-0.477l0.363-0.511l0.545-0.615l0.695-0.855l0.431-0.442l0.333-0.419l0.125-0.315l0.121-0.465
		l0.328-0.804l0.465-0.436l0.505-0.207l0.568-0.169l0.351-0.218l0.195-0.288l0.115-0.252l0.068-0.307l-0.12-0.342l-0.028-0.393
		l0.086-0.265l0.35-0.517l0.414-0.442l0.281-0.229l0.517-0.124l0.804-0.022l0.741-0.046l0.459-0.123l0.362-0.23l0.384-0.787
		l0.644-1.26l0.649-1.24l0.287-0.629l0.562-0.652l0.505-0.365l0.528-0.112l1.012-0.055l0.511-0.129l0.769-0.411l0.374-0.465
		l0.258-0.505l0.121-0.689l0.212-0.634l0.615-0.954l0.275-0.287l0.281-0.158l0.466-0.061l0.591-0.112l0.614-0.198l0.396-0.482
		l0.224-0.425l-0.068-0.364l-0.225-0.365l0.023-0.348l0.264-0.445l0.155-0.124l0.173,0.063l0.402,0.359l0.591,0.359l0.321,0.072
		l0.558-0.043l0.355-0.198l0.121-0.123l0.126-0.348l-0.126-0.181l-0.472-0.396l-0.826-0.365l-0.873-0.651l-0.528-0.405l-0.694-0.272
		l-0.799-0.356l-0.453-0.508v-0.238l0.246-0.621l0.482-0.611l0.408-0.158l0.477,0.011l0.712,0.241l1.085,0.548l0.885,0.235
		l0.811,0.012l0.602-0.247l0.482-0.477l0.568-0.677l0.138-0.601l-0.091-0.574l0.022-0.724l0.225-0.724l0.132-0.253l0.293-0.172
		l0.465-0.135l0.448-0.175l0.391-0.42l0.086-0.27l0.028-0.394l-0.172-0.411l-0.185-0.505l0.029-0.368l0.224-0.422l0.701-0.572
		l0.723-0.692l0.282-0.471l-0.007-0.307l-0.35-0.439l-0.178-0.359l-0.035-0.325l-0.045-0.364l-0.173-0.365l-0.367-0.365
		l-0.086-0.365l0.12-0.698l0.08-0.747v-0.853l0.093-0.6l0.206-0.611l0.414-0.543l0.665-0.775l0.575-0.612l0.752-0.612l0.253-0.169
		l1.694-1.16l1.343-1.128l0.598-0.459l0.385-0.075l0.614-0.138l0.608-0.146l0.518-0.158l0.453-0.336l0.367-0.611l0.214-0.417
		l0.234-0.141l0.472,0.141l0.626,0.052l0.78-0.074l1.039-0.482l0.632-0.494l0.499-0.635l0.408-0.761l0.355-1.105l0.352-1.105
		l0.16-0.858l0.127-0.281l0.287-0.258h0.517l0.413,0.141l0.362-0.055l0.482-0.011l0.499-0.04l0.367-0.118l0.305-0.224l0.126-0.259
		l0.121-0.404l0.041-0.167l0.125-0.169l0.253-0.095l0.54-0.118l0.46-0.112l0.154-0.175l0.121-0.236l0.04-0.31l0.011-0.261
		l-0.119-0.247l-0.392-0.252l-0.413-0.141l-1.258-0.101l-1.246-0.035l-1.045,0.029l-0.563-0.041l-0.557-0.27l-0.689-0.354
		l-0.533-0.651l-0.362-0.606l-0.057-0.554v-0.758l0.028-0.672l0.121-0.333l0.252-0.336l0.396-0.187l0.512,0.081l0.275,0.301
		l0.154,0.405l0.305,0.847l0.259,0.798l0.258,0.413l0.351,0.23l0.396,0.164l0.609,0.229l0.551,0.069l0.753-0.069l0.678-0.212
		l0.608-0.442l0.379-0.462l-0.034-0.393l-0.189-0.543l-0.035-0.454l0.04-0.551l0.006-0.471l0.012-1l0.265-0.74l0.401-0.666
		l0.287-0.253l0.529-0.327l0.614-0.262l0.878-0.227l0.575-0.049l0.505,0.113l0.626,0.335l0.471,0.394l0.844,0.64l1.351,0.626
		l0.769,0.198l0.638,0.101l0.413-0.146l0.213-0.167l0.396-0.339l0.361-0.477l0.126-0.278l-0.04-0.517l-0.361-0.557l-0.414-0.5
		l-0.367-0.543l-0.316-1.2l0.018-0.944l0.121-0.348l0.126-0.207l0.115-0.112l0.293-0.046l0.396,0.106l0.471,0.1l0.242-0.005
		l0.361-0.121l0.585-0.368l0.581-0.368l0.253-0.028l0.459,0.124l0.528,0.264l0.604,0.353l0.361,0.382l0.355,0.359l0.574,0.365
		l0.793,0.448l0.574,0.195l0.821,0.035l0.694-0.147l0.488-0.312l0.568-0.758l0.781-1.042l0.74-0.664l0.712-0.735l0.862-0.83
		l1.011-0.517l1.464-0.365l0.408-0.27l0.149-0.335v-0.382l-0.069-0.529l-0.08-0.407l0.057-0.31l0.12-0.253l0.173-0.241l0.367-0.313
		l0.488-0.101l0.781-0.247l0.873-0.528l0.391-0.342l0.12-0.281l0.207-0.758l0.023-0.97l0.039-0.994l0.133-0.37l0.344-0.382
		l0.655-0.37l1.229-0.531l1.246-0.405l1.367-0.365l1.987-0.454l1.998-0.477l1.958-0.729l1.292-0.511l0.891-0.376l1.039-0.623
		l0.706-0.881l0.361-0.588l0.46-0.557l0.328-0.459l0.275-0.207l0.373-0.129l0.981,0.035l1.965-0.252l1.153-0.354l1.126-0.528
		l1.021-0.577l0.609-0.494l0.861-0.888l0.608-0.887l1.327-1.594l0.361-0.577l0.896-1.447l0.753-1.286l0.568-1.02l0.298-0.58
		l0.367-0.414l-0.367-0.371l-0.212-0.339l-0.466-0.312l-0.39-0.106l-0.764-0.051l-0.782,0.057l-0.82,0.146l-0.688,0.055
		l-0.771-0.011l-0.494-0.112l-0.355-0.118l-0.568-0.341l-0.241-0.376l-0.247-0.588l-0.361-0.835l-0.471-0.781l-1.057-1.157
		l-0.46-0.425l-0.321-0.201l-0.178-0.058l-0.523-0.118l-0.866,0.029l-0.609-0.086l-0.321-0.135l-0.391-0.342l-0.752-0.677
		l-0.873-0.798l-0.643-0.494l-1.229-0.918l-0.879-0.623l-0.265-0.184l-0.758,0.908l-0.459,0.557l-0.361,0.437l-0.236,0.218
		l-0.321,0.192l-0.396,0.178l-0.253,0.181l-0.259,0.178l-0.194,0.141l-0.54,0.117l-0.562-0.1l-0.535-0.175l-0.459-0.278
		l-0.373-0.253l-1.028-0.6l-0.855-0.276l-1.401-0.388l-0.666-0.235l-0.368-0.264l-0.304-0.164l-1.103-0.364l-1.626-0.442
		l-0.659-0.045l-0.437,0.057l-0.518,0.152l-0.378,0.278l-0.448,0.468l-0.281,0.465l-0.247,0.542l0.018,0.721l0.183,1.137l0.3,0.835
		l0.12,0.612l-0.062,0.365l-0.271,0.439l-0.528,0.623l-0.615,0.505l-0.585,0.307l-0.873,0.181l-0.351,0.031l-0.465-0.1l-0.39-0.049
		l-0.253,0.094l-0.316,0.248l-0.545,0.252l-0.592,0.043l-0.437,0.086l-0.327,0.161l-0.38,0.224l-0.637,0.198l-0.638-0.035
		l-1.062-0.065l-0.684-0.081l-1.017-0.253l-0.362-0.101l-0.454,0.023l-0.39,0.192l-0.832,0.313l-0.649,0.224l-0.517,0.241
		l-0.592,0.152h-0.367l-0.229-0.017l-0.248,0.005l-0.413-0.437l-1.257-0.393l-1.189-0.612l-1.803-0.735l-2.361-1.117l-2.561-1.123
		l-2.325-1.071l-2.354-1.421l-2.171-1.318l-1.917-0.982l-2.08-1.229l-1.354-1.02l-1.224-0.993l-1.367-1.017l-1.159-0.798
		l-1.688-1.554l-1.384-1.464l-0.77-1.312l-1.269-0.97l-1.379-1.057l-1.051-1.048l-0.815-0.565l-1.464-0.876l-0.77-0.6l-0.672-0.85
		l-0.885-1.401l-0.666-1.077l-1.079-1.163l-1.517-1.487l-2.332-1.794l-1.43-1.289l-2.136-1.953l-1.653-1.281l-2.067-1.677
		l-1.304-0.927l-0.805-0.678l-0.774-0.327l-1.683-0.342l-2.924-0.319l-1.194,0.066l-1.354-0.112l-0.678-0.354l-0.493-0.672
		l-1.184-0.988l-1.424-0.833l-0.638-0.279l-1.7-0.499l-2.332-0.198l-1.63-0.112l-1.332-0.212l-2.757-0.517l-0.769-0.106
		l-0.948,0.135l-0.925,0.517l-0.941,0.365l-1.103,0.342l-0.987,0.129l-1.441-0.264l-2.613-0.577l-1.287-0.169l-1.103-0.028
		l-1.125,0.298l-1.459,0.566l-0.453,0.353l-0.264,0.494l-0.058,0.557l0.259,0.522l0.32,0.913l0.42,1.565l0.138,0.815l-0.126,0.617
		l-0.413,0.853l-1.511,2.07l-1.074,1.329l-0.977,1.043l-0.924,1.045l-0.885,1.016l-0.373,0.554l-0.195,0.617l-0.005,0.523
		l0.355,0.729l0.844,1.054l0.568,0.981l0.919,1.217l1.068,1.123l0.304,0.528l-0.108,0.33l-0.592,0.342l-2.498,1.37l-2.572,1.662
		l-2.584,2.001l-2.084,1.347l-1.189,0.557l-0.85,0.265l-0.678,0.172l-0.385-0.055l-0.557-0.298l-0.574-0.752l-0.615-0.5
		l-0.764-0.364l-1.544-0.207l-1.476-0.04l-1.614-0.195l-1.43,0.146l-1.039,0.431l-1.734,0.904l-1.534,0.936l-0.833,0.646
		l-0.655,0.33l-0.545,0.081l-1.47-0.086l-1.499-0.196l-0.965-0.275l-0.821-0.522l-0.632-0.611l-0.855-0.864l-0.861-0.795
		l-0.867-0.416l-1.482-0.27l-1.55-0.055l-2.354,0.291L-13-149.739l-1.458-0.152l-1.195-0.172l-1.068-0.365l-0.408-0.433v-0.489
		l0.236-0.611l0.562-0.684l-0.121-0.281l-0.648-0.278l-1.235-0.241l-1.975,0.049l-2.148,0.545l-1.723,0.083l-1.217,0.219
		l-1.361,0.422l-1.217,0.482l-0.689,0.141l-0.971,0.061l-1.676-0.184l-2.986-0.198l-3.25-0.425l-2.555-0.212l-0.947-0.046
		l-0.328,0.112l-0.5,0.353l-0.459,0.394l-0.781,0.695l-0.988,0.663l-1.194,0.56l-1.166,0.416l-1.344,0.313l-1.963,0.198h-1.487
		l-1.66,0.236l-2.16,0.101l-2.119-0.353l-0.04,2.345l0.04,1.49l0.207,1.533l0.367,1l0.379,0.565l0.534,0.471l0.855,0.462
		l1.068,0.414l0.684,0.562l0.293,0.572l0.126,0.669l-0.207,0.531l-0.655,0.595l-0.976,0.741l-0.758,0.641l-0.361,0.347l-0.207,0.77
		l0.011,0.528l0.138,0.718l0.649,0.695l0.517,0.663l1.194,0.741l0.621,0.52l0.253,1.1l-0.104,0.77l-0.545,0.634l-0.758,0.641
		l-1.321,0.508l-0.982,0.591l-0.764,0.784l-0.838,0.64l-0.31,0.824l-0.092,1.011l0.265,1.481l0.7,1.335l0.253,1.105l0.316,0.959
		l1.458,2.105l0.115,2.039l-0.976,2.483l-1.866,3.104l0.477,0.505l0.022,0.517l-0.344,0.583l0.012,0.459l0.31,0.741l0.5,1.257
		l0.368,1.318l0.023,0.858l-0.241,0.982l0.109,0.46l0.391,0.623l0.471,0.454l0.941,0.209l1.062,0.037l1.286,0.029l0.861,0.152
		l0.683,0.618l0.293,1.031l-0.298,1.157l0.109,1.14l0.253,1.834l0.385,1.953l0.85,2.165l0.861,1.993l0.523,2.004l-0.213,2.306
		l-0.356,1.507l-1.131,2.375l-0.792,2.435l-0.218,1.835l0.276,2.986l0.029,1.1l-0.471,2.254l-0.545,1.97l-0.081,1.78l1.04,6.535
		l0.54,2.908l0.235,1.261l-0.046,0.859l-0.448,0.468l-0.85,0.531l-1.338,0.494l-2.044,0.505l-0.787,0.299l-0.523,0.471l-0.247,0.818
		l0.149,1.263l0.701,1.594l1.315,1.524l2.808,2.71l1.964,1.571l1.229,1.315l1.35,1.593l0.304,0.784l0.615,8.168l1.04,9.183
		l0.54,1.834l1.832,4.781l1.143,2.216l1.315,2.09l0.958,1.309l1.022,1.123l1.108,1.243l0.982,1.992l0.505,1.556l-0.052,0.908
		l-0.442,0.54l-0.861,0.241l-2.647-0.123l-1.056,0.123l-0.368,0.167l-0.086,0.339l0.115,0.625l0.47,0.741l1.08,0.551l0.666,0.219
		l0.121,0.387l-0.115,0.528l-0.718,0.531l-0.901,0.87l-0.304,0.818L-40.375,6l0.368,1.481l0.362,1.723l1.08,2.748l0.104,0.973
		l0.315,2.079l0.632,1.344l0.562,1.329l-0.104,1.048l-0.448,0.689l-0.517,0.175l-0.614-0.118l-0.54-0.436l-0.942-0.612l-0.368,0.009
		l-0.258,0.232l-0.184,0.583l0.126,0.746l0.482,0.735l0.413,0.589l0.012,0.459l0.402,0.218l0.724-0.025l1.057-0.023l0.936,0.437
		l0.752,0.887l0.77,1.553l0.017,0.681l-0.448,0.6l-1.344,0.482l-1.613,0.023l-1.832-0.253l-1.39-0.123l-0.792,0.184l-0.781,0.399
		l-0.861,0.707l-1.809,1.834l-1.918,2.222l-0.637,0.876l-0.052,0.618l0.15,0.617l0.379,0.442l1.097,0.339l1.32,0.129l1.603,0.482
		l0.741,0.508l0.545,0.735l0.225,0.916l-0.54,2.024l-1.166,3.474l-0.775,3.171l-0.632,3.542l-0.574,1.505l-1.355,1.184l-0.89,0.241
		l-0.862,0.12l-0.252,0.454l-0.511,0.764l-0.729,2.269l-0.689,1.447l-0.608,0.86l-1.367,0.793l-1.171,0.482l-1.683,1.171
		l-0.729,1.184l-0.252,0.16l-0.322,0.46v1.034l-0.028,0.643l-0.259,0.293l-0.367,0.339l-0.604,0.144l-0.454,0.241l-0.39,0.241
		l-0.333,0.465l-0.402,0.712l-0.861,1.384l-1.034,1.051l-1.224,1.844l-0.867,1.022l-1.103,1.521l-2.469,3.479l-1.901,2.688
		l-0.615,0.367l-0.62-0.062l-0.333-0.315l-0.678-0.19l-0.614,0.282l-0.391,0.454l-0.66,0.545l-0.58,0.746l-0.035,0.432l-0.12,0.419
		l0.224,0.527l0.574,0.281l0.362,0.432l0.115,0.47l0.529,0.328l0.798,0.121l0.374,0.275l-0.018,0.379l0.063,0.826l-0.121,0.988
		l-0.356,0.712l-0.287,0.678l-0.178,0.884l-0.081,0.518l-0.229,0.723l-0.46,0.368l-0.764,0.494l-0.448,0.195l-0.264,0.355
		L-75.237,92.35"/>
</g>
<g id="Layer_1_1_">
</g>
</svg>
