<?xml version="1.0" encoding="utf-8"?>
<!-- Generator: Adobe Illustrator 16.0.4, SVG Export Plug-In . SVG Version: 6.00 Build 0)  -->
<!DOCTYPE svg PUBLIC "-//W3C//DTD SVG 1.1//EN" "http://www.w3.org/Graphics/SVG/1.1/DTD/svg11.dtd">
<svg version="1.1" id="Layer_1" xmlns="http://www.w3.org/2000/svg" xmlns:xlink="http://www.w3.org/1999/xlink" x="0px" y="0px"
	 width="301.111px" height="327.596px" viewBox="-110.47 -120.157 301.111 327.596"
	 style="enable-background:new -110.47 -120.157 301.111 327.596;" xml:space="preserve">
<g id="Layer_16">
	<path id="Bahawalpur" style="fill:#CCCCCC;stroke:#FFFFFF;stroke-width:1.15;" d="M139.53,45.956L139.53,45.956l-0.226-0.533
		l-0.361-1.004l-0.692-1.464l-1.05-1.684l-0.483-1.032l-0.383-0.849l-0.839-2.296l-1.568-3.747l-1.598-3.733l-0.738-2.152
		l-0.533-1.959l-0.405-2.189l-0.616-2.733l-0.25-0.842l-1.11-2.672l-1.985-3.493l-1.759-2.604l-1.607-2.514l-1.799-2.321
		l-1.104-1.369l-0.694-0.655l-0.395-0.104h-0.365l-0.47-0.09l-0.641-0.387l-0.749-0.992l-0.562-0.692l-0.264-0.279h-0.302
		l-0.329,0.122l-0.122,0.18l-0.094,0.287l0.141,0.383l0.189,0.419l0.086,0.229l0.036,0.083l0.079,0.709l0.021,0.824l0.036,0.315
		l0.054,0.176l-0.09,0.226l-0.383,0.512l-0.226,0.254l-0.294,0.15l-0.384,0.007l-0.512-0.101l-0.2-0.208l-0.395-0.1l-0.294,0.146
		l-0.279,0.111l-0.229,0.323l-0.058,0.265l0.008,0.344l0.078,0.43l0.01,0.534l-0.074,0.29l-0.165,0.079l-0.312,0.229l-0.427,0.04
		l-0.673-0.093l-0.416-0.165l-0.235-0.254l-0.107-0.52l-0.176-3.209l-0.098-0.602l-0.232-0.226l-0.261-0.111l-0.499-0.021
		l-1.386,0.054l-0.466-0.093l-0.394-0.352l-0.094-0.379l-0.015-0.376l0.222-0.685l0.86-1.186l0.222-0.587l0.058-0.308l-0.128-0.144
		l-0.302-0.172l-0.896-0.222l-0.466-0.229l-0.215-0.247l-0.078-0.354l-0.008-0.394l0.122-0.541l0.272-0.469l0.38-0.555l0.458-0.405
		l0.075-0.291l-0.09-0.254l-0.336-0.226l-0.903-0.538l-0.573-0.519l-0.268-0.391l-0.048-0.458l0.188-0.616l0.279-0.53l0.519-0.538
		l0.491-0.473l0.458-0.466l0.226-0.501l-0.011-0.383l-0.035-0.204l-0.18-0.254l-0.3-0.172l-0.553-0.014l-0.501-0.076l-0.302-0.229
		l-0.136-0.314l-0.007-0.401l0.107-0.527l0.157-0.226l0.126-0.086l0.168-0.086l0.466-0.072l0.365-0.007l0.334-0.086l0.226-0.151
		l0.086-0.171l-0.008-0.226l-0.122-0.211l-0.172-0.143l-0.2-0.108l-0.337-0.201l-0.136-0.25l-0.008-0.229l0.24-0.444l0.383-0.358
		l0.294-0.226l0.165-0.115l0.258-0.036l0.329-0.046l0.431,0.079l0.25-0.004l0.505-0.05l0.212-0.075l0.38-0.29l0.208-0.115
		l0.33,0.021l0.136,0.111l0.071,0.175l0.043,0.229l0.05,0.172l0.165,0.029l0.258-0.008l0.294-0.032l0.229-0.151l0.379-0.326
		l0.365-0.15l0.384-0.043l0.341-0.068l0.289-0.036l0.255-0.115l0.086-0.354l0.165-0.179l0.129-0.15l0.329-0.04l0.33-0.072
		l0.193-0.229l0.164-0.215l0.388-0.036l0.552-0.007l0.093,0.058l0.079,0.208l0.09,0.211l0.211,0.025l0.502,0.104l0.3,0.097
		l0.173,0.315v0.179l-0.079,0.43l0.011,0.383l0.011,0.354l0.097,0.527l0.232,0.254l0.474,0.337l0.838,0.688l1.061,0.555l0.859,0.419
		l0.73,0.093l0.592-0.039l0.752-0.09l0.226-0.186l0.229-0.351l0.329-0.19l1.254-0.129l0.992,0.043l0.759,0.204l0.534,0.043
		l1.304-0.075l1.132-0.097l0.846-0.075l0.43-0.007l0.266,0.076l0.357,0.079l0.438-0.007l0.587-0.079l0.788-0.272l0.362-0.079
		l0.641,0.05l0.229,0.229l0.165,0.244l0.401,0.079l0.591-0.079l0.949-0.473l0.651-0.509l0.813-0.591l0.714-0.297l0.1-0.226
		l0.021-0.254l-0.265-0.204l-0.33-0.347l-0.036-0.208l0.028-0.251l0.323-0.261l0.365-0.118l0.208,0.068l0.254,0.072l0.377-0.086
		l0.379-0.229l0.34-0.09l0.416-0.007l0.562-0.039l0.423-0.122l0.713-0.237l0.247-0.354l0.094-0.351l0.057-0.315l0.1-0.151
		l0.243-0.083l0.431,0.133l0.681,0.104l0.591,0.054l1.258,0.011l1.418-0.136l1.677-0.143l1.647-0.136l1.089-0.122l1.752-0.043
		l1.68-0.076l1.913-0.029l0.595,0.193l0.372,0.348l0.38,0.459l0.247,0.322l0.384,0.602l0.301,0.348l0.365,0.247l0.34,0.344
		l0.352,0.287l0.469,0.24l0.53,0.075l0.498,0.079l0.562,0.312l0.681,0.34l0.638,0.344l0.602,0.415l0.365,0.208l0.377,0.025
		l0.383-0.086l0.322-0.293l0.294-0.397l0.226-0.229l0.369-0.032l0.329,0.075l0.301,0.197l0.229,0.283l0.537,0.709l0.337,0.315
		l0.229,0.086l0.337-0.014l0.487-0.233l0.491-0.498l0.419-0.358l0.616-0.476l0.498-0.215l0.72,0.029l0.73,0.336l0.602,0.452
		l0.373,0.247l0.38,0.076l0.379-0.072l0.553-0.322l0.752-0.409l0.691-0.383l0.591-0.094l0.76-0.01l0.838,0.104l0.96,0.014
		l0.788-0.079l0.459-0.226l0.128-0.147l0.029-0.25l-0.201-0.115l-0.533-0.165l-0.717,0.007l-1.45,0.1l-0.301-0.053l-0.494-0.229
		l-0.569-0.458l-0.176-0.319v-0.226l0.226-0.383l0.082-0.208l0.028-0.262l-0.128-0.226l-0.259-0.204l-0.232-0.254l-0.075-0.229
		l0.117-0.465l0.033-0.462l-0.137-0.208l-0.229-0.061h-0.229l-0.205,0.115l-0.289,0.33l-0.229,0.204l-0.294,0.008l-0.297,0.007
		l-0.362,0.04l-0.43,0.079l-0.458,0.222l-0.495,0.086l-0.229-0.061l-0.229-0.144l-0.038-0.226l-0.015-0.552L173-20.87l-0.204-0.204
		l-0.269-0.115l-0.394-0.075l-0.545,0.075l-0.226,0.208l-0.083,0.147l0.043,0.201l0.094,0.144l0.007,0.229l-0.122,0.322
		l-0.266,0.118h-0.254l-0.172-0.108l-0.09-0.143l-0.265-0.083l-0.372,0.007l-0.502-0.136l-0.133-0.247l-0.046-0.315l0.036-0.219
		l0.092-0.179l0.227-0.176l0.419-0.118l0.395-0.18l0.226-0.208l0.028-0.404l-0.172-0.315l-0.226-0.168l-0.377-0.029l-0.136-0.204
		l-0.046-0.215l0.321-0.745l0.193-0.473l0.287-0.462l0.172-0.104l0.254-0.075l0.212,0.107l0.121-0.015l0.229-0.057l0.226-0.437
		l0.405-0.867l0.294-0.283l0.383-0.197l1.054-0.158l0.39-0.007l0.33,0.068l0.137,0.247l0.232,0.354l0.204,0.097l0.165,0.046
		l0.2-0.046l0.161-0.323l0.075-0.226l0.193-0.215h0.165l0.594,0.054l0.506,0.143l0.967,0.075l0.34,0.104l0.503,0.312l0.3,0.1
		l0.431,0.079l0.258-0.007l0.545-0.15l0.372-0.229l0.38-0.362l0.258-0.351l0.383-0.233l0.728-0.039l0.916-0.015l0.692-0.089
		l0.526-0.229l0.258-0.319l0.057-0.462l-0.229-0.96l-0.444-0.781l-0.304-0.348l-0.212-0.172l-0.201,0.007h-0.369l-0.333,0.122
		l-0.07,0.251l-0.055,0.645l-0.075,0.495l-0.058,0.394l-0.128,0.186l-0.165,0.029l-0.266,0.007l-0.164-0.111l-0.101-0.204
		l-0.129-0.315l-0.229-0.143l-0.361,0.007l-0.212,0.115l-0.036,0.293l0.076,0.205l-0.126,0.257l-0.265,0.007l-0.2-0.143
		l-0.229-0.144l-0.369-0.057h-0.262l-0.229-0.144l-0.222-0.387l-0.387-0.287l-0.266-0.111l-0.372,0.015l-0.38,0.186l-0.691,0.401
		l-0.741,0.616l-0.373,0.33l-0.293,0.15l-0.466,0.043l-0.251-0.107l-0.401-0.254l-0.379-0.63l-0.38-0.573l-0.107-0.201v-0.226
		l0.157-0.261l0.158-0.319l-0.008-0.53l-0.344-0.63l-0.369-0.491l-0.247-0.197l-0.204-0.172l-0.04-0.176l0.197-0.286l0.061-0.366
		l-0.09-0.226l-0.226-0.111l-0.565-0.097l-0.658,0.075l-0.66,0.089l-0.462,0.183l-0.254,0.323l-0.488,0.587l-0.823,0.688
		l-0.745,0.383l-0.537,0.232h-0.33l-0.265-0.165l-0.229-0.458l-0.523-0.928l-0.678-0.537l-0.967-0.559l-0.77-0.34l-0.538-0.369
		l-0.572-0.884l-0.534-0.946l-0.412-1.006l-0.114-0.981l0.179-1.361l0.165-1.282l-0.133-2.217l-0.021-0.716l-0.003-0.38l0.086-0.143
		l0.293-0.222l0.556-0.269l0.486-0.355l0.19-0.537l0.996-0.129l0.236-0.075l0.384-0.093l0.361-0.064l0.494-0.079l0.229-0.075
		l0.111-0.129l0.076-0.172l0.042-0.229l0.122-0.125l0.309-0.118l0.336-0.168l0.377-0.068l0.226-0.054l0.25-0.118l0.229-0.144
		l0.211-0.086l0.204-0.05l0.226-0.086l0.169-0.183l0.208-0.211l0.226-0.151l0.275-0.064l0.459-0.014l0.717-0.039l0.208-0.068
		l0.279-0.104l0.149-0.15l0.09-0.247l0.032-0.394l0.021-0.523l0.044-0.408l0.078-0.438l0.078-0.322l0.107-0.236l0.194-0.226
		l0.226-0.19l0.226-0.14l0.176-0.075l0.458-0.043h0.705l0.495-0.029l0.266-0.007l0.093-0.079l0.079-0.193l0.107-0.232l0.132-0.076
		l0.18-0.029h0.168l0.086-0.086l0.071-0.201l-0.007-0.383l-0.039-0.358l0.021-0.52l0.132-1.454l0.187-1.634l0.079-1.282l0.054-0.369
		l-0.067-0.254l-0.102-0.25l-0.168-0.309l-0.157-0.394l0.018-0.437l0.021-0.63l0.058-0.602l-0.043-0.39l-0.076-0.294l-0.168-0.158
		l-0.235-0.118l-0.388-0.101l-0.201-0.107l-0.143-0.179l-0.075-0.358l-0.176-0.3l-0.201-0.172l-0.286-0.094l-0.358-0.075
		l-0.258-0.004l-0.437,0.076l-0.384,0.079l-0.16-0.015l-0.107-0.075l-0.068-0.197l-0.097-0.229l-0.076-0.046l-0.124-0.057
		l-0.08-0.076l-0.042-0.193l0.01-0.251l0.076-0.237l0.107-0.15l0.229-0.111l0.348-0.079l0.383-0.072l0.366-0.058l0.057-0.054
		l0.076-0.186L173-66.718l-0.226-0.247l-0.008-0.205l0.136-0.158l0.226-0.208l0.229-0.075h0.401l0.201-0.079l0.229-0.151
		l0.357-0.208l0.068-0.172l-0.015-0.272l-0.075-0.193l-0.128-0.093l-0.188-0.058l-0.258-0.079l-0.11-0.125l-0.09-0.347l-0.014-0.38
		l-0.115-0.308l-0.122-0.272l-0.222-0.258l-0.369-0.143l-0.405-0.061l-0.301,0.014l-0.128-0.021l-0.13-0.097l-0.064-0.183
		l-0.079-0.24l-0.078-0.158l-0.18-0.125l-0.207-0.118l-0.101-0.158l-0.025-0.193l-0.046-0.218l-0.054-0.158l-0.111-0.09
		l-0.236-0.093l-0.409-0.058l-0.264,0.05l-0.165,0.079l-0.229,0.144l-0.229,0.097h-0.301l-0.383-0.058l-0.226-0.075l-0.197,0.032
		l-0.19,0.144l-0.146,0.15l-0.226,0.082l-0.208-0.007l-0.236-0.115l-0.067-0.165l0.067-0.383l0.075-0.201l-0.007-0.129l-0.075-0.072
		l-0.094-0.039l-0.187,0.039l-0.229,0.05l-0.101-0.028l-0.165-0.107v-0.258v-0.215l-0.057-0.208l0.064-0.226l0.172-0.219
		l0.226-0.079l0.219-0.029l0.208-0.028l0.175-0.179l0.075-0.394l0.083-0.226l0.09-0.383l0.067-0.308l-0.075-0.165l-0.144-0.122
		l-0.222-0.083l-0.122-0.104l-0.075-0.133l-0.047-0.158l0.04-0.287l-0.021-0.15l-0.126-0.165l-0.094-0.226l0.022-0.183l0.05-0.072
		l0.197-0.122l0.183-0.129l0.064-0.165l0.078-0.119l0.108-0.053l0.193-0.015l0.357,0.058l0.295,0.018l0.21-0.068l0.126-0.197
		l0.107-0.254l0.015-0.505l-0.039-0.379L168.895-80l-0.104-0.165l-0.226-0.072l-0.229,0.036l-0.258,0.108l-0.33,0.168l-0.286,0.15
		l-0.229,0.043l-0.18-0.076l-0.082-0.118l-0.062-0.165l0.015-0.383l0.003-0.383l-0.182-0.33l-0.273-0.226l-0.321-0.194l-0.609-0.314
		l-0.486-0.129l-0.338-0.003l-0.279,0.054l-0.243,0.118l-0.344,0.226l-0.395,0.183l-0.187-0.025l-0.215-0.082l-0.114-0.18
		l-0.05-0.336l0.007-0.695L163-83.323l0.25-0.924l0.079-0.648l-0.007-0.351l-0.15-0.208l-0.071-0.186v-0.258l0.107-0.401
		l-0.068-0.232l-0.211-0.258l-0.761-0.34l-0.645-0.24l-0.651-0.151l-0.781-0.104l-0.301-0.054l-0.207-0.118l-0.134-0.19
		l-0.054-0.254l0.076-0.663l-0.022-0.534l-0.089-0.172l-0.272-0.104l-0.308-0.079l-0.279,0.003l-0.384,0.075l-0.62,0.065h-0.4
		l-0.309-0.079l-0.229-0.115l-0.408-0.38l-0.222-0.244l-0.236-0.208l-0.48-0.179l-0.537-0.205l-0.315-0.15l-0.493-0.505
		l-0.384-0.494l-0.262-0.667l-0.169-0.773l-0.136-0.645l-0.111-0.193l-0.136-0.079l-0.212-0.021l-0.211,0.136l-0.232,0.258
		l-0.184,0.143l-0.157,0.025l-0.1-0.018l-0.076-0.111l-0.11-0.505l-0.129-1.132l-0.172-1.29l-0.144-0.648l-0.164-0.315l-0.459-0.698
		l-0.236-0.538l-0.104-0.348l-0.15-0.555l-0.075-0.538l0.036-0.544l0.534-2.002l0.39-1.766l-0.05-0.695h-0.602l-0.924,0.15
		l-0.972-0.086l-0.677-0.326l-0.426-0.376l-0.355-0.473l-0.172-0.462l-0.114-0.508l-0.276-0.663l-0.286-0.452l-0.287-0.362
		l-1.014-0.734l-0.744-0.688l-0.717-0.354l-0.394-0.043l-0.517,0.211l-0.344,0.314l-0.329,0.631l-0.079,0.652l-0.258,1.73
		l-0.15,0.243l-0.323,0.212l-0.558,0.085l-0.201-0.025l-0.258-0.344l-0.207-0.373l-0.08-0.53l0.048-0.566l0.046-0.416l-0.094-0.24
		l-0.14-0.079h-0.226l-0.637,0.229l-0.824,0.354l-0.896,0.623l-0.83,0.534l-0.459,0.219l-0.438-0.079l-0.222-0.15l-0.235-0.269
		l-0.13-0.229l-0.007-0.433l0.079-0.226l0.222-0.423l0.219-0.559l0.046-0.387l0.172-0.688l0.108-0.437l0.086-0.391l-0.133-0.244
		l-0.326-0.075l-0.38,0.093l-0.286,0.197l-0.136,0.383l-0.173,0.656l-0.226,0.269h-0.218l-0.244-0.219l-0.207-0.279l-0.165-0.097
		l-0.272-0.025l-0.287,0.079l-0.63,0.262l-0.458,0.308l-0.537,0.064h-0.212l-0.333-0.097l-0.555-0.175l-0.796-0.201l-0.705-0.491
		l-0.401-0.383l-0.451-0.229l-0.388-0.537l-0.358-0.323l-0.408-0.204l-0.29-0.473l-0.089-0.226l-0.365-0.204l-0.48,0.014
		l-0.365,0.165l-0.229,0.34l-0.286,0.38l-0.445,0.287l-0.387,0.211l-0.473,0.247l-0.247,0.233l-0.397,0.354l-0.187,0.33l-0.107,0.62
		l-0.015,0.376l-0.063,0.269l-0.216,0.154l-0.243,0.076h-0.266l-0.379-0.136l-0.434-0.204l-0.337-0.218l-0.483-0.34l-0.384-0.172
		l-0.383-0.054l-0.659-0.011l-0.401,0.108l-0.243,0.097l-0.222,0.014l-0.193-0.047l-0.323-0.118l-0.236-0.022l-0.24,0.076
		l-0.211,0.158l-0.193,0.419l-0.015,0.229l0.051,0.215l-0.016,0.15l-0.164,0.079h-0.412l-0.416,0.036l-0.268,0.129l-0.397,0.315
		l-0.612,0.595l-0.509,0.534l-0.273,0.383l-0.2,0.534l-0.114,0.444l0.047,0.394l0.075,0.301l-0.033,0.34l-0.15,0.426l-0.182,0.286
		l-0.223,0.072l-0.193,0.007l-0.15-0.075l-0.054-0.079l0.01-0.133l0.087-0.136l0.039-0.215l-0.074-0.236l-0.201-0.183l-0.101-0.075
		l-0.265-0.022l-0.236-0.093l-0.147-0.226l-0.254-0.226l-0.345-0.036l-0.229,0.014l-0.408,0.205l-0.38,0.383l-0.365,0.573
		l-0.505,0.437l-0.451,0.118l-0.455-0.028l-0.688-0.229l-1.218-0.39l-0.526-0.25l-0.262-0.184l-0.157-0.333l-0.244-0.205
		l-0.265-0.05l-0.344-0.025l-0.258,0.039l-0.373,0.229l-0.516,0.498l-0.444,0.641l-0.212,0.376l-0.218,0.329l-0.215,0.333
		l-0.183,0.211l-0.309,0.186l-0.3,0.058l-0.384,0.107l-0.226,0.093l-0.197,0.293l-0.078,0.204l-0.012,0.237l0.14,0.39l0.086,0.233
		l-0.007,0.283l-0.129,0.315l-0.064,0.272l0.015,0.337l0.064,0.294l0.018,0.379l-0.018,0.38l-0.079,0.222l-0.183,0.215l-0.354,0.129
		l-0.33,0.068l-0.269-0.011l-0.383-0.064l-0.395,0.014l-0.372,0.186l-0.226,0.222l-0.176,0.272l-0.008,0.293l0.076,0.229
		l0.383,0.336l0.602,0.308l0.226,0.165l0.104,0.208l0.158,0.322l0.211,0.201l0.241,0.136l0.226,0.114l0.469,0.437l0.208,0.294
		l0.061,0.465l-0.032,0.63l0.046,0.348l0.283,0.365l0.229,0.222l0.487,0.229l0.172,0.144l0.079,0.201l0.187,0.229l0.229,0.083
		l0.251,0.036l0.235,0.032l0.251,0.007l0.079,0.083l-0.008,0.143l-0.093,0.383l-0.067,0.312l-0.226,0.52l-0.56,0.759l-0.312,0.279
		l-0.305,0.036l-0.491-0.014l-0.314,0.05l-0.146,0.108l-0.599,0.229l-0.842,0.119l-0.695-0.021l-0.529-0.075l-0.803-0.165
		l-0.502-0.151l-0.426-0.333l-0.369-0.254l-0.294-0.079l-0.255-0.007l-0.192,0.079l-0.219,0.183l-0.164,0.38l-0.094,0.505
		l-0.028,0.688l-0.016,0.734l-0.106,0.362L93.2-87.253l-0.229,0.548l-0.188,0.437l-0.021,0.429v0.412l0.086,0.383l-0.043,0.24
		l-0.15,0.215l-0.193,0.104l-0.287,0.072l-0.236,0.075l-0.1,0.093l-0.076,0.269l0.068,0.375l0.079,0.24l0.229,0.395l0.151,0.498
		l0.082,0.412l-0.015,0.309l-0.067,0.229l-0.226,0.237l-0.291,0.146l-0.196,0.064l-0.312-0.057l-0.473-0.076l-0.337-0.021
		l-0.498,0.075l-0.419,0.137l-0.352,0.186l-0.203,0.15l-0.069,0.261l-0.018,0.34l0.047,0.412l0.157,0.226l0.229,0.229l0.101,0.204
		l0.006,0.146l-0.035,0.183l-0.078,0.24l0.014,0.15l0.079,0.136l0.193,0.226l0.215,0.33l0.086,0.301l0.007,0.183l-0.165,0.176
		l-0.207,0.093l-0.294-0.021l-0.186-0.032l-0.176,0.032l-0.151,0.104l-0.118,0.151L88.5-76.382l-0.262,0.129l-0.304,0.075
		l-0.28,0.047l-0.372,0.226l-0.474,0.293l-0.662,0.537l-0.871,0.699l-0.702,0.691l-0.651,0.616l-0.236,0.115l-0.101,0.007
		l-0.262-0.107l-0.325-0.083l-0.201-0.007l-0.204,0.064l-0.18,0.201l-0.304,0.108l-0.387,0.043l-0.688-0.025l-0.501-0.018
		l-0.807,0.075l-0.645-0.655l-0.096-0.889l-0.272,0.089l-0.233,0.054l-0.325,0.05l-0.229,0.04l-0.38,0.118l-0.344,0.068
		l-0.272,0.075l-0.172,0.014l-0.14-0.068l-0.151-0.144l-0.383-0.404l-0.258-0.308l-0.275-0.258l-0.218-0.064h-0.18l-0.13,0.042
		l-0.121,0.09l-0.075,0.176l-0.035,0.175l0.074,0.179l0.352,0.301l0.415,0.34l0.205,0.262l0.074,0.122l0.029,0.226l-0.029,0.19
		l-0.046,0.172l-0.122,0.232l-0.082,0.158l-0.05,0.166l0.05,0.24l0.122,0.527l0.054,0.458l0.09,0.391l0.1,0.498l0.161,0.899
		l0.061,0.752l-0.028,0.444l-0.101,0.397l-0.118,0.229l-0.144,0.111l-0.183,0.079l-0.301,0.075l-0.357,0.079l-0.266,0.133
		L74.4-66.692l-0.533,0.075l-0.52-0.029l-0.229-0.014l-0.503,0.086l-0.239,0.018l-0.283-0.05l-0.232-0.136l-0.205-0.15l-0.501-0.376
		l-0.874-0.577l-0.975-0.458l-0.598-0.326l-0.341-0.247l-0.2-0.219l-0.051-0.165l0.051-0.369l0.064-0.383l0.05-0.248l-0.007-0.218
		L68.2-70.611l-0.121-0.09l-0.151-0.017l-0.097,0.032l-0.1,0.075L67.652-70.5l-0.101,0.237l-0.229,0.505l-0.189,0.534l-0.226,0.699
		l-0.271,0.63l-0.227,0.702l-0.226,0.523l-0.129,0.211l-0.133,0.082l-0.282,0.086l-0.616,0.143l-0.635,0.093l-1.106,0.147
		L62.53-65.84l-0.856-0.043l-0.691-0.061l-0.401-0.151l-0.365-0.222L60-66.538l-0.129-0.366l-0.144-0.681l-0.101-0.544l-0.146-0.379
		l-0.147-0.176l-0.229-0.075l-0.226-0.015l-0.226,0.029l-0.157,0.079l-0.226,0.097l-0.476,0.401l-0.537,0.383l-0.581,0.347
		l-0.293,0.075l-0.226,0.007l-0.184-0.083l-0.208-0.197l-0.114-0.229l-0.144-0.272l-0.275-0.458l-0.104-0.151l-0.176-0.068
		l-0.111,0.039l-0.193,0.097l-0.34,0.229L53.932-68.2l-0.157,0.053l-0.272,0.008l-0.222-0.058l-0.243-0.244l-0.279-0.165
		l-0.381-0.079l-0.325-0.064l-0.212,0.025l-0.208,0.068l-0.164,0.068l-0.071,0.079l-0.012,0.075l-0.004,0.19l0.036,0.183
		l0.033,0.226l0.01,0.537l0.126,0.466l0.14,0.458l0.229,0.466l0.122,0.143l0.415,0.201l0.605,0.301l0.329,0.229l0.189,0.197
		l0.674,0.702l0.659,0.538l0.745,0.655l0.251,0.397l0.479,0.602l0.301,0.533l0.019,0.223l-0.032,0.179l-0.075,0.197l-0.118,0.111
		l-0.294,0.079l-0.265,0.079l-0.338,0.057l-0.308-0.064l-0.509-0.094l-0.394-0.118l-0.233-0.219l-0.308-0.301l-0.226-0.351
		l-0.193-0.394l-0.438-0.595l-0.408-0.555l-0.44-0.401l-0.294-0.168l-0.301-0.01l-0.261,0.071l-0.094,0.054l-0.14,0.104l-0.054,0.15
		v0.336l0.1,0.459l0.012,0.387l0.018,0.394l0.114,0.982l-0.028,0.336l-0.021,0.218l-0.186,0.774l-0.226,0.727l-0.256,0.38
		l-0.239,0.093l-0.298,0.021l-0.351-0.085l-0.384-0.315l-0.203-0.293l-0.098-0.416L49-59.872l0.082-0.58l0.019-0.459l-0.047-0.584
		l-0.071-0.347l-0.107-0.193l-0.057-0.251l0.057-0.444l0.079-0.681l0.086-0.838l-0.015-0.219l-0.058-0.172l-0.078-0.089
		l-0.349-0.129l-0.533-0.165l-0.78-0.258l-0.534-0.165l-0.584-0.129l-0.322-0.1l-0.229-0.029l-0.126,0.064l-0.075,0.086
		l-0.136,0.373l-0.208,0.609l-0.147,0.655l-0.14,0.713l0.029,0.86l0.05,0.222l0.258,0.204l0.222,0.254l0.08,0.283l-0.029,0.147
		l-0.064,0.079l-0.537,0.144l-0.738,0.097l-0.724-0.089L42.889-61.1l-0.219-0.212l-0.15-0.308l-0.208-0.505l-0.058-0.412l0.08-0.903
		v-0.344l-0.13-0.233l-0.315-0.251l-0.463-0.222l-0.393-0.047l-0.425,0.068l-0.64,0.151l-0.894,0.215l-1.13,0.114l-0.676,0.079
		l-0.286,0.144l-0.077,0.097l-0.099,0.211l-0.077,0.086l-0.256,0.114l-0.22,0.058l-0.266,0.193l-0.12,0.236l-0.129,0.573
		l-0.188,0.444l-0.291,0.53l-0.476,0.752l-0.187,0.25L34.117-59.8l-0.332,0.226l-0.487,0.229l-0.58,0.183l-0.52,0.089l-0.587-0.05
		l-0.661-0.014l-0.105-0.093l-0.246-0.315l-0.301-0.426l-0.093-0.211l-0.487-0.652l-0.238-0.337l-0.518-0.383l-0.267-0.179
		L28.5-62.014l-0.165-0.165l-0.455-0.309l-0.377-0.218l-0.536-0.201l-0.51-0.272L25.91-63.31l-0.689-0.115l-0.554-0.015
		l-0.399,0.111l-0.202,0.1l-0.234,0.179l-0.21,0.197l-0.157,0.315l-0.103,0.33l-0.018,0.369l0.014,0.318l0.26,0.974l0.101,0.738
		l-0.016,0.52l-0.106,0.405l-0.132,0.226l-0.305,0.39L22.8-57.948l-0.455,0.208l-0.374,0.15l-0.15,0.101l-0.133,0.165l-0.136,0.229
		l-0.077,0.312l-0.021,0.376l-0.052,0.15l-0.077,0.104l-0.351,0.229l-0.493,0.222l-0.521,0.133l-0.256,0.025l-0.136-0.079
		l-0.281-0.369l-0.283-0.379l-0.122-0.076l-0.337-0.079l-0.157,0.05l-0.297,0.179l-0.356,0.38l-0.683,0.63l-0.679,0.609l-0.48,0.423
		l-0.2,0.082l-0.178,0.09l-0.256,0.007l-0.224-0.079l-0.275-0.201l-0.239-0.229l-0.277-0.24l-0.317-0.171L13.63-55.1l-0.548-0.083
		l-0.928-0.029l-0.96,0.015h-0.797l-0.491,0.075l-0.315,0.129L8.829-54.61l-0.412,0.18l-0.382,0.254L7.53-53.693l-0.401,0.466
		l-0.483,0.602l-0.421,0.591l-0.275,0.483l-0.161,0.466L5.71-50.698L5.7-50.139l0.028,0.509l-0.059,0.258l-0.095,0.125l-0.096,0.079
		l-0.157,0.036l-0.157-0.014l-0.496-0.136L4.041-49.62l-0.469-0.351l-0.43-0.301L2.76-50.497l-0.447-0.144l-0.234-0.014
		l-0.345,0.021l-0.198,0.115l-0.29,0.254l-0.183,0.287l-0.276,0.577l-0.344,0.498l-0.298,0.408l-0.381,0.373l-0.341,0.369
		l-0.254,0.186l-0.211,0.072l-0.217,0.015l-0.21-0.022l-0.14-0.089l-0.224-0.129l-0.154-0.158l-0.102-0.007l-0.081,0.05
		l-0.213,0.193l-0.399,0.265l-0.462,0.272l-0.815,0.358l-0.382,0.144l-0.494,0.215l-0.228,0.046l-0.132-0.029L-5.371-46.5
		l-0.011-0.157l0.039-0.229l0.077-0.336l0.129-0.266l0.228-0.383l0.172-0.315l0.03-0.165l-0.02-0.086l-0.134-0.057l-0.221-0.093
		l-0.346-0.122l-0.333-0.187l-0.319-0.215l-0.471-0.319l-0.539-0.383l-0.535-0.379l-0.527-0.365l-0.381-0.208l-0.231-0.036
		l-0.227,0.007l-0.156,0.089l-0.315,0.362l-0.228,0.179l-0.238,0.208l-0.084,0.078l0.007,0.09l0.073,0.165l-0.014,0.229
		l-0.077,0.308l-0.21,0.627l-0.084,0.656l-0.154,0.895l-0.157,0.494l-0.08,0.717l-0.052,0.652l-0.099,0.229l-0.235,0.243
		l-0.539,0.358l-0.382,0.165l-0.535,0.151l-0.392,0.039l-0.214,0.043l-0.312,0.129l-0.35,0.15l-0.388,0.223l-0.352,0.218
		l-0.133,0.143l-0.095,0.201l-0.052,0.279l0.014,0.229l0.119,0.322l0.413,0.691l0.137,0.294l0.077,0.257l-0.049,0.151l-0.161,0.451
		l-0.2,0.523l-0.188,0.201l-0.179,0.09l-0.133,0.028l-0.294-0.057l-0.374-0.158l-0.429-0.422l-0.374-0.309l-0.381-0.423
		l-0.613-0.533l-0.7-0.746l-0.269-0.293l-0.088-0.33l-0.011-0.172l0.077-0.168l0.133-0.247l0.069-0.226l-0.012-0.193l-0.088-0.179
		l-0.264-0.218l-0.521-0.309l-0.44-0.261l-0.228-0.183l-0.206-0.24l-0.215-0.237l-0.378-0.412l-0.324-0.286l-0.288-0.226
		l-0.382-0.223l-0.359-0.036l-0.364,0.021l-0.627,0.197l-0.465,0.205l-0.728,0.293l-0.382,0.158l-0.462,0.075h-0.336l-0.515-0.028
		h-0.543l-0.535,0.068l-0.399,0.032l-0.524,0.107l-0.21,0.143l-0.288,0.233l-0.129,0.254l-0.172,0.476l-0.262,0.588l-0.393,0.992
		l-0.315,0.602l-0.157,0.208l-0.185,0.079l-0.131,0.007l-0.157-0.021l-0.195-0.075l-0.228-0.172l-0.183-0.144l-0.188-0.201
		l-0.189-0.297l-0.077-0.229l0.007-0.18l0.049-0.143l0.071-0.2l0.09-0.194l0.095-0.226l-0.01-0.172l-0.008-0.165l-0.147-0.114
		l-0.188-0.072l-0.264-0.021l-0.969-1.024l-0.196-0.265l0.011-0.262l0.16-0.505l0.036-0.365l-0.196-0.219l-0.178-0.057l-0.257-0.007
		l-0.227,0.036l-0.154-0.172l-0.21,0.18l-0.361,0.487l-0.364,0.1l-0.385-0.075l-0.301-0.229l-0.272-0.294l-0.42-0.581l-0.405-0.533
		l-0.7-0.301l-0.289,0.007l-0.269,0.064l-0.228,0.279l-0.149,0.48l-0.011,0.634l-0.067,0.523l-0.259,0.466l-0.397,0.283
		l-0.527-0.057l-0.385-0.193l-0.301-0.272l-0.073-0.283l0.15-0.315l0.224-0.383l0.52-0.663l1.127-1.408l1.008-1.314l0.346-0.583
		l0.109-0.717v-0.659l-0.099-0.634l-0.305-0.383l-0.423-0.19l-0.277,0.047l-0.23,0.261l-0.312,0.552l-0.409,0.709l-0.561,0.57
		l-0.363,0.43l-0.382,0.171l-0.378,0.144l-0.619,0.068l-0.341,0.133l-0.118,0.219l-0.088,0.365l-0.29,0.222l-0.455,0.075
		l-0.589-0.114l-0.763-0.509l-0.276-0.115l-0.314,0.05l-1.061-0.018l-5.044-0.125l-1.005-0.015l-0.381-0.179l-0.199-0.187
		l-0.084-0.343l-0.14-2.622l-0.116-1.125l-0.242-0.734l-0.36-0.208l-0.679-0.187l-1.138-0.014l-1.294,0.165l-1.94,0.294
		l-1.809,0.501l-1.6,0.537l-1.684,0.548l-1.25,0.709l-0.938,0.43l-0.471,0.38l-1.184,1.06l-0.246,0.172h-0.174l-0.116-0.058
		l-0.191-0.383l-0.12-0.698l-0.185-1.318l-0.081-0.767l-0.228-0.208l-0.153,0.015l-0.257,0.2l-0.3,0.487l-0.228,0.394l-0.341,0.387
		l-0.221,0.261l-0.11,0.458v0.362l0.228,0.57l0.262,0.465l0.021,0.266l-0.115,0.15l-0.277-0.076l-0.209-0.229l-0.495-0.247
		l-0.532-0.115l-0.492-0.007l-0.319,0.089l-0.336,0.348l-0.382,0.465l-0.312,0.759l-0.188,0.634l-0.308,0.545l-0.41,0.369
		l-0.605,0.304l-0.881-0.021l-0.326-0.104l-0.165-0.175l-0.228-0.473l-0.059-0.537l-0.356-0.451l-0.33-0.287l-0.355-0.154
		l-0.726-0.097l-0.562,0.075l-0.17,0.043l-0.372,0.369l-0.094,0.466l-0.073,0.881l-0.288,0.516l-0.412,0.444l-0.413,0.151
		l-0.753,0.226l-0.535,0.34l-0.382,0.333l-0.5,0.48l-0.16,0.483l0.011,0.728l0.359,1.494l0.018,1.25l0.004,0.394l-0.333,0.483
		l-0.503,0.484l-1.251,0.67l-1.91,0.691l-1.037,0.34l-0.84,0.301l-0.287,0.247l-0.374,0.376l-0.496,0.63l-0.348,0.229h-0.335
		l-0.406,0.007l-0.462-0.226l-0.518-0.279l-0.337-0.226l-0.382-0.036l-0.234,0.043l-0.249,0.186l-0.331,0.527l-0.337,0.72
		l-0.287,0.488l-0.623,0.526l-0.791,0.193l-0.687-0.032l-0.84-0.183l-0.84-0.172l-0.58,0.008l-0.507,0.226l-0.572,0.48l-0.619,0.845
		l-0.496,0.731l-0.732,1.458l-0.199,0.695v0.254l0.221,0.226l0.458,0.071l0.514,0.076l0.407,0.043l0.294,0.1l0.521,0.516
		l0.697,0.276l0.84,0.387l0.799,0.423l0.632,0.401l0.601,0.945l0.301,0.81l0.346,0.691l0.176,0.62l-0.103,0.623l-0.412,0.527
		l-0.413,0.34l-0.536,0.111h-0.587l-0.949-0.308l-0.808-0.362l-1.269-0.606l-1.299-0.573l-0.542-0.136h-0.242l-0.221,0.15
		l-0.162,0.287l0.089,0.587l0.215,0.473l0.515,0.426l0.514,0.333l0.382,1.096l-0.049,1.429l-0.872,1.54l0.312,0.301l0.116,0.691
		l-0.119,1.121l-0.228,1.007l-0.326,1.067l-0.339,0.842l-0.535,0.706l-0.84,0.853l-0.876,0.896l-0.84,1.075l-0.588,0.712
		l-0.14,0.265l0.066,0.261l0.154,0.172l0.66,0.111l0.81-0.093l0.738-0.373l0.804-0.458l0.539-0.229l0.505-0.014l0.455,0.122
		l0.225,0.308l0.077,0.48l-0.029,0.881l0.077,0.434l0.312,0.386l0.309,0.254l0.458,0.219l0.355,0.165l0.408,0.226l0.248,0.53
		l0.119,0.673l-0.13,0.924l-0.077,0.703l0.06,0.308l0.414,0.484l1.134,0.949l0.561,0.48l0.279,0.978l0.118,0.87l0.021,0.752
		l0.095,0.437l0.256,0.244l1.28,0.91l1.453,1.153l1.999,1.297l0.863,0.415l0.509,0.172l0.396,0.036l0.353-0.226l0.491-0.498
		l0.485-0.806l0.857-1.909l1.193-2.759l0.704-1.518l0.437-0.574l0.689-0.637l1.093-0.724l1.394-0.645l1.5-0.473l1.404-0.236
		l1.109-0.022l0.605,0.079l0.406,0.104l0.309,0.266l0.37,0.734l0.021,0.752l-0.202,0.362l-0.642,0.498l-0.641,0.508l1.503,1.749
		l0.615,3.625l0.09,4.033l-0.317,0.383l-0.314,0.408l-0.536,0.373l-0.872,0.422l-0.84,0.559l-0.693,0.458l-0.521,0.552l-0.095,0.685
		l0.077,0.537l0.294,0.81l0.281,0.537l0.077,0.423l-0.081,0.379l-0.193,0.187l-0.363,0.265l-0.36,0.222l-0.249,0.229l-0.076,0.258
		l-0.147,0.466l-0.122,0.358l-0.186,0.183l-0.62,0.129l-0.496,0.129l-0.442,0.38l-0.15,0.33l-0.114,0.58l0.024,0.691l0.181,0.376
		l0.382,0.136l0.363,0.021l0.536-0.097l0.659-0.018l0.396,0.226l0.313,0.391l0.142,0.423l0.114,0.602l-0.073,0.724l-0.179,0.641
		l-0.228,0.293l-0.382,0.262l-0.29,0.226l-0.228,0.222l-0.052,0.379l0.157,0.709l0.298,1.032l0.419,0.767l0.325,0.688l0.231,0.526
		l0.084,0.534l-0.069,0.287l-0.19,0.261l-0.51,0.48l-1.138,0.67l-0.356,0.24l-0.318,0.229l-0.154,0.293l-0.077,0.351l0.06,0.544
		l0.234,0.48l0.689,0.559l0.382,0.416l0.381,0.412l0.35,0.566l0.228,0.541l0.226,0.63v0.924l-0.161,0.992l-0.341,2.525l-0.656,2.901
		l-0.212,1.046l-0.728,2.569l-1.053,2.521l-0.429,0.766l-1.066,2.318l-0.451,1.193l-0.994,2.213l-1.299,2.084l-1.596,2.508
		l-1.159,2.143l-0.612,1.238l-0.536,1.111l-0.66,1.756l-0.48,1.26l-0.44,1.434l-0.535,2.371l-0.228,1.834l-0.403,2.5l-0.937,3.121
		l-1.071,3.037l-0.376,1.396l-0.272,2.645l-0.406,2.416l0.077,2.197l-0.027,2.736l0.324,1.959l0.095,2.963l0.334,2.184l0.458,2.293
		l0.221,1.219l0.569,2.486l0.52,2.178l0.258,1.143l0.175,1.146l0.41,2.922l0.158,2.479l0.125,1.764l-0.062,2.861l-0.228,1.916
		l0.023,0.617l-0.125,1.264l-0.228,1.42l-0.099,1.254l0.007,1.338l0.099,1.061l0.062,0.361l0.113,0.732l0.415,2.762l0.367,1.916
		l0.322,1.006l0.396,1.379l0.563,2.09l0.536,2.062l0.455,1.109l0.349,1.033l0.723,1.297l1.647,2.16l0.921,1.297l0.671,0.908
		l0.535,0.838l0.603,0.932l0.382,0.746l0.381,0.852l0.289,0.814l0.265,1.25l0.228,0.898l0.119,0.941l0.078,0.932l0.157,0.746
		l0.199,0.658l0.472,1.025l0.606,1.711l0.314,0.846l0.137,0.777l0.301,1.076l0.535,1.309l0.451,1.111l0.568,1.58l0.228,0.92
		l0.041,0.463l0.015,0.996l0.164,0.949l0.346,1.6l0.528,1.713l0.124,1.039l0.157,1.365l0.251,1.383l0.445,1.469l0.504,1.643
		l0.382,0.811l0.649,1.572l0.674,1.35l0.153,0.613l0.078,0.838l0.062,1.451l-0.051,0.756l-0.041,0.816l0.077,1.104l0.195,1.096
		l0.267,1.584l0.133,0.799l0.105,0.713l0.144,0.971l0.049,1.436l1.117,4.51l7.479-3.305l2.087-0.932l8.001-3.324l1.948-0.559
		l1.548-0.441l0.836,0.035l3.364-0.559l10.927-1.836l1.424-0.176l10.232-0.518l6.31-0.283l7.662-0.361l11.298-0.496l7.561-0.729
		l6.062-0.584l3.287-0.979l4.361-1.732l1.413-0.473l2.215-0.734l12.86-4.635l5.328-1.6l2.673-0.77l0.688-0.197l1.3-0.83l0.118-0.076
		l0.935-6.314l0.817-5.428l0.827-4.576l0.813-4.508l0.053-0.959l0.052-1.035l7.171-9.553l1.49-1.756l1.963-2.35l3.904-3.451
		l0.229-0.199l0.235-0.193l5.832-4.355l4.449-3.053l1.913-1.406l3.581-2.66l2.522-2.248l1.52-1.67l0.106-0.545l0.817-0.602
		l4.212-3.148l1.612-2.787l2.106-3.611l2.977-8.328l1.124-3.072l0.513-1.484l0.631-1.797l0.172-1.434l0.759-0.766l0.369-1.455
		l0.247-1.01l3.998-11.334l0.889-2.664l1.21-3.383l1.301-3.625l4.237-5.941l10.112-10.779l0.089-0.078l2.226-1.691l0.767-0.219
		l0.226-0.072l3.495-1.123l4.872-1.57L139.53,45.956"/>
</g>
<g id="Layer_1_1_">
</g>
</svg>
