<?xml version="1.0" encoding="iso-8859-1"?>
<!-- Generator: Adobe Illustrator 16.0.4, SVG Export Plug-In . SVG Version: 6.00 Build 0)  -->
<!DOCTYPE svg PUBLIC "-//W3C//DTD SVG 1.1//EN" "http://www.w3.org/Graphics/SVG/1.1/DTD/svg11.dtd">
<svg version="1.1" xmlns="http://www.w3.org/2000/svg" xmlns:xlink="http://www.w3.org/1999/xlink" x="0px" y="0px"
	 width="77.652px" height="41.762px" viewBox="0 0 77.652 41.762" style="enable-background:new 0 0 77.652 41.762;"
	 xml:space="preserve">
<g id="Layer_59">
	<g id="Layer_64">
		<path id="Sanghar" style="fill:#CCCCCC;stroke:#FFFFFF;stroke-width:1.07;" d="
			M20.572,32.384L20.572,32.384l-0.033-0.108l-0.013-0.07l0.016-0.076l0.017-0.107l0.011-0.108l0.002-0.069l-0.02-0.108l-0.02-0.103
			l-0.025-0.142l-0.01-0.197l0.002-0.082l0.037-0.083l0.051-0.051l0.078-0.043l0.113-0.029l0.128-0.036l0.232-0.021l0.251-0.017
			l0.143-0.01l0.176,0.01l0.154,0.034l0.11,0.033h0.028l0.021-0.019v-0.025l-0.019-0.114l-0.025-0.109l-0.019-0.134l0.003-0.128
			l0.001-0.076l0.03-0.05l0.05-0.025l0.084,0.002l0.092,0.016l0.141,0.054l0.09,0.078l0.104,0.091l0.451,0.34l0.312,0.248
			l0.49,0.392l0.473,0.359l0.51,0.399l0.208,0.15l0.104,0.06l0.142,0.021l0.062,0.008l0.058-0.022l0.028-0.045l0.023-0.082
			l0.011-0.159l-0.011-0.135l0.01-0.108l0.017-0.082l0.035-0.038l0.063-0.022l0.135-0.012l0.232-0.015L26.16,31.8l0.176,0.004
			l0.05-0.013l0.028-0.019l0.021-0.038l0.001-0.045l-0.005-0.076l-0.012-0.096l-0.011-0.122l-0.005-0.121l0.029-0.062l0.028-0.045
			l0.021-0.023l0.05-0.006l0.091,0.026l0.194,0.139l0.222,0.145l0.271,0.203l0.152,0.104l0.077,0.039l0.057,0.002l0.035-0.025
			l0.044-0.043l0.029-0.07l0.017-0.114l0.029-0.03l0.028-0.02l0.034,0.001l0.047,0.04l0.025,0.064l0.146,0.154l0.068,0.048
			l0.126,0.026l0.197,0.012l0.303,0.037l0.183,0.042l0.168,0.072l0.133,0.035l0.217,0.081l0.181,0.144l0.109,0.085l0.117,0.117
			l0.14,0.062l0.099,0.032l0.238,0.006l0.119,0.009l0.112,0.047l0.243,0.133l0.214,0.176l0.169,0.144l0.123,0.13l0.061,0.116
			l0.027,0.052l-0.002,0.062l-0.044,0.082l-0.08,0.089l-0.107,0.1L31,33.796l-0.035,0.036l-0.021,0.032l-0.017,0.058l0.107,0.213
			l0.169,0.29l0.081,0.104l0.062,0.052l0.14,0.08l0.168,0.067l0.152,0.065l0.098,0.079l0.102,0.154l0.123,0.155l0.179,0.246
			l0.056,0.077l0.079,0.187l0.013,0.09l-0.009,0.051l-0.095,0.112l-0.108,0.146l-0.031,0.113l0.02,0.098l0.097,0.357l0.153,0.38
			l0.055,0.312l0.018,0.165l-0.003,0.107l-0.047,0.179l-0.017,0.032l0.133,0.338l0.081,0.271l0.014,0.021l0.025,0.037l0.097-0.004
			l0.181-0.013l0.229-0.032l0.455-0.084l0.312-0.052l0.184,0.009l0.196,0.073l0.291,0.131l0.196,0.107l0.048-0.001l0.258-0.005
			l0.209,0.04l0.209,0.074l0.148,0.041l0.122-0.002l0.158-0.036l0.107-0.058l0.185-0.015l0.295,0.038l0.479,0.08l0.504,0.104
			l0.415-0.063l0.426-0.149l0.497-0.209l0.069-0.156l0.095-0.201l0.144-0.18l0.109-0.002l0.248,0.117l0.233,0.117l0.283,0.062
			l0.431,0.115l0.319,0.071l0.328,0.071l0.196,0.041l0.099-0.001l0.061-0.013l0.083-0.112l0.048-0.123l0.107-0.09l0.171-0.003
			l0.173,0.062l0.225,0.186l0.284,0.149l0.284,0.141l0.333,0.139l0.333,0.128l0.16,0.063l0.16,0.042l0.122-0.024l0.096-0.067
			l0.108-0.123l0.132-0.113l0.109-0.035l0.134-0.024l0.157-0.103l0.145-0.124l0.169-0.103l0.17-0.069l0.172-0.014l0.074,0.031
			l0.037,0.021l0.014,0.077l0.038,0.1l0.037,0.032l0.085-0.035l0.108-0.101l0.05-0.001l0.013,0.056l0.002,0.1l0.001,0.057
			l0.037,0.021l0.025,0.011h0.061l0.072-0.09l0.094-0.201l0.13-0.213l0.122-0.067l0.231-0.017l0.098-0.033l0.06-0.123l0.059-0.123
			l0.061-0.102l0.084-0.067l0.086-0.001l0.132,0.021l0.087,0.076l0.014,0.122l0.003,0.1l0.062,0.065l0.246,0.04l0.231-0.003
			l0.109-0.068l0.106-0.135l0.171-0.06l0.086,0.011l0.062,0.076l0.001,0.045l-0.06,0.066l-0.108,0.124l-0.047,0.089l0.038,0.057
			l0.086,0.021l0.145-0.08l0.146-0.168l0.193-0.103l0.171-0.048l0.135,0.03L49.132,38l-0.036,0.067l-0.022,0.056l-0.061,0.058
			l-0.133,0.102l-0.171,0.047l-0.121,0.068l-0.084,0.102l0.002,0.077l0.037,0.032l0.11,0.021l0.086,0.011l0.05,0.044l0.037,0.033
			l-0.023,0.056l-0.06,0.066l-0.037,0.033l-0.022,0.045l-0.012,0.045l0.001,0.033l0.037,0.077l0.064,0.109l0.073,0.088l0.062,0.077
			l0.038,0.055l0.013,0.055l-0.035,0.067l-0.205,0.158l-0.217,0.136l-0.122,0.058l-0.134,0.024l-0.049-0.021l-0.125-0.131
			l-0.136-0.054l-0.073-0.01l-0.062,0.022l-0.048,0.057l0.002,0.078l0.026,0.109l0.066,0.108l0.021,0.034l0.176,0.195l0.249,0.229
			l0.136,0.075l0.146,0.021l0.048-0.057l0.072-0.102l0.104-0.29l0.022-0.145l0.084-0.079l0.086-0.012l0.05,0.043l0.001,0.065h0.049
			l0.048-0.066l0.084-0.046l0.074-0.001l0.05,0.055l0.001,0.056l-0.022,0.077l-0.035,0.045v0.022l0.073-0.001l0.049-0.001
			l0.025,0.044l-0.022,0.11l-0.145,0.091l-0.242,0.138l-0.098,0.067l-0.119,0.112l-0.013,0.045l0.001,0.044l0.05,0.044l0.244-0.025
			l0.256-0.06l0.293-0.005l0.416,0.017l0.418,0.094l0.394,0.07l0.271,0.118l0.209,0.098l0.143,0.036l0.086-0.014l0.046-0.133
			l0.045-0.257l0.091-0.366l0.146-0.146l0.168-0.158l0.097-0.058l0.086,0.021l0.088,0.077l0.187,0.13l0.16,0.042l0.182-0.035
			l0.23-0.147l0.361-0.237l0.254-0.215l0.12-0.123l0.109-0.024l0.146-0.002l0.158-0.013l0.185-0.081l0.169-0.113l0.083-0.111
			l0.061-0.078l0.134-0.035l0.184-0.015l0.364-0.138l0.328-0.16l0.193-0.146l0.33-0.291l0.252-0.336l0.129-0.29l0.082-0.234
			l0.06-0.089l0.192-0.247l0.215-0.258l0.218-0.214l0.156-0.157l0.071-0.156l0.104-0.334l0.13-0.268l0.097-0.18l0.021-0.178
			l0.118-0.279l0.094-0.244l0.053-0.165l0.096-0.135l0.169-0.156l0.204-0.226l0.256-0.114l0.243-0.092l0.146-0.08l0.279-0.17
			l0.229-0.214l0.241-0.169l0.39-0.228l0.292-0.114l0.159-0.059l0.085,0.011l0.087,0.055l0.099,0.021l0.062-0.002l0.085-0.034
			l0.133-0.135l0.302-0.28l0.29-0.271l0.192-0.246l0.422-0.438l0.41-0.449l0.429-0.479l0.289-0.357l0.291-0.225l0.207-0.08
			l0.172,0.009l0.172,0.053l0.248,0.131l0.249,0.273l0.199,0.229l0.285,0.309l0.188,0.187l0.161,0.176l0.136,0.088l0.209,0.02
			l0.208-0.014l0.307-0.06l0.511-0.283l0.278-0.226l0.206-0.135l0.259-0.036l0.391-0.062l0.195-0.078l0.096-0.124l0.157-0.2
			l0.292-0.17l0.477-0.172l0.781-0.265l0.389-0.098l0.135,0.011l0.16,0.042l0.148,0.1l0.221,0.086l0.222-0.002l0.232-0.024
			l0.158-0.08l0.134-0.112l0.134-0.079l0.159-0.046l0.281-0.014l0.344,0.019l0.344,0.053l0.295,0.053l0.196-0.002l0.146-0.035
			l0.134-0.112l0.134-0.077l0.085-0.058l0.073-0.057l0.084-0.146l0.183-0.091l0.123-0.022l0.147,0.031l0.124,0.1l0.185,0.075
			l0.246,0.074l0.185-0.013l0.824-0.262l-0.313-0.408l-0.275-0.259l-0.299-0.28l-0.149-0.209l-0.669-0.62l-1.934-1.791l-0.112-0.229
			l-0.026-0.058l-1.453-2.027l-0.44-0.836l-0.139-0.605l-0.062-0.26l-0.013-1.315l-0.184-1.429l-0.106-0.471l-0.146-0.652
			l0.088-0.649l0.145-0.344l0.046-0.085l0.296-0.547l1.334-1.746l0.031-0.045l-0.045-0.03l-0.199-0.176l-0.173-0.087l-0.211-0.086
			l-0.629-0.062l-0.592-0.025l-0.345-0.041l-0.52-0.14l-0.569-0.183l-0.347-0.151l-0.396-0.188l-0.532-0.204l-0.384-0.14
			l-0.593-0.095l-0.566-0.06L65.8,12.49l-0.517-0.005l-0.506-0.027l-0.197-0.062l-0.372-0.142l-0.37-0.051l-0.555-0.025
			l-0.567-0.061l-0.544-0.138l-0.507-0.094l-0.532-0.204l-0.31-0.087l-0.495-0.104l-0.789-0.057l-0.504,0.007l-1.01,0.102
			l-0.947,0.059l-1.097-0.029l-0.911-0.01l-0.913-0.076l-0.507-0.081l-0.298-0.118l-0.407-0.061l-0.628,0.02l-0.736,0.056
			l-0.297-0.04l-0.333-0.039l-0.247-0.02l-0.136,0.002l-0.158,0.069l-0.464,0.229l-0.502,0.174l-0.209,0.037l-0.234-0.019
			l-0.271-0.04l-0.423-0.139L48.01,11.42l-0.629-0.079l-0.617-0.046l-0.433-0.07l-0.259-0.008l-0.493-0.003l-0.825-0.021
			l-0.789-0.055l-0.419-0.026l-0.468,0.019l-0.566,0.021l-0.58-0.035l-0.729-0.088l-0.531-0.068l-0.569-0.111l-0.681-0.122
			l-0.926-0.096l-1.036-0.069l-0.729-0.065l-0.586-0.051l-0.366-0.119l-0.241-0.117l-0.215-0.056L35.12,10.21l-0.422,0.057
			l-0.454,0.11L33.4,10.573l-0.671,0.125l-0.5,0.056l-0.72,0.041l-0.687-0.001h-0.422l-0.637-0.132l-0.499-0.099l-0.404-0.156
			l-0.234-0.112l-0.047-0.099L28.689,10l0.202-0.38l0.031-0.141l-0.047-0.07l-0.187-0.057L28.455,9.31L28.36,9.295l-0.078,0.058
			l-0.017,0.195l-0.047,0.127h-0.062l-0.143-0.057L27.86,9.562l-0.095-0.058L27.75,9.406l0.016-0.169l0.125-0.492l0.126-0.464
			l0.109-0.269V7.887L28.064,7.83l-0.156-0.028L27.22,7.774l-0.578-0.07L26.33,7.661l-0.094-0.057l-0.345-0.703l-0.438-0.873
			l-0.566-0.981L24.81,4.962l-0.28-0.126l-0.501-0.142l-0.312-0.027l-0.142-0.07L23.512,4.4l0.062-0.184V3.852l-0.078-0.311
			l-0.109-0.394l-0.016-0.239L23.262,2.5L23.2,2.274l-0.048-0.126l-0.156-0.127l-0.173-0.239l-0.188-0.268l-0.242-0.416
			l-0.141-0.394l-0.062-0.17h-0.142l-0.078,0.043l-0.36,0.183L21.376,0.93l-0.234,0.113L20.736,1.27l-0.548,0.254l-0.393,0.154
			l-0.604,0.204l0.003,0.017l0.024,0.016l0.128,0.002l0.14,0.019l0.031,0.043l0.018,0.141l-0.053,0.378l-0.047,0.088L19.36,2.63
			l-0.106,0.091l-0.099,0.123l-0.074,0.145l-0.096,0.205l-0.193,0.359l-0.219,0.333l-0.234,0.323l-0.236,0.328l-0.109,0.145
			l-0.169,0.196l-0.293,0.287l-0.301,0.26l-0.384,0.289l-0.261,0.188l-0.147,0.086l-0.367,0.215l-0.366,0.262l-0.366,0.268
			L15.08,6.947l-0.174,0.087l-0.048,0.002l-0.031-0.021l-0.021-0.086V6.908l-0.004-0.101l0.02-0.321l0.035-0.203l0.008-0.115
			l-0.014-0.032l-0.078,0.002l-0.346,0.017l-0.43,0.019l-0.085,0.015l-0.043-0.026l-0.008-0.049l0.001-0.12l-0.007-0.038
			l-0.037-0.01l-0.127-0.002l-0.056,0.013l-0.018,0.017l0.009,0.229l-0.028,0.044l-0.097,0.02l-0.133,0.01l-0.043-0.011
			l-0.025-0.036l-0.002-0.05l-0.017-0.125l-0.008-0.021l-0.041-0.004l-0.164,0.004l-0.098,0.014l-0.037,0.025l-0.009,0.307
			l0.028,0.424l0.01,0.094l-0.048,0.018l-0.104-0.002L12.759,6.94l-0.005,0.049l0.013,0.507l-0.014,0.29l-0.027,0.071L12.685,7.88
			l-0.03-0.01l-0.021-0.049l-0.017-0.108l-0.013-0.189l-0.021-0.065l-0.055-0.004l-0.056,0.002L12.4,7.476l-0.021,0.07l0.006,0.143
			l0.021,0.075L12.39,7.819l-0.048,0.022l-0.666,0.016l-0.182-0.012l-0.045-0.043l-0.09-0.16L11.29,7.584l-0.134-0.013L10.69,7.596
			L10.606,7.62l-0.071,0.046l-0.037,0.12L10.5,7.9l0.037,0.185L10.521,8.15l-0.053,0.094l-0.205,0.17l-0.059,0.062l-0.003,0.087
			l0.012,0.654l0.018,0.098l0.024,0.038l0.121,0.007l0.739-0.006l0.079,0.009l0.031,0.031l0.02,0.044l0.005,0.228l0.018,0.627
			l0.019,0.512l0.021,0.056l0.056,0.023l0.188,0.018l0.062,0.021l0.039,0.069l0.027,0.256l0.008,0.261l-0.027,0.066l-0.059,0.051
			l-0.066,0.013l-0.126,0.021l-0.108,0.03l-0.031,0.021l-0.026,0.019l-0.005,0.037l0.002,0.056l0.021,0.054l0.056,0.167l0.003,0.093
			l-0.013,0.126l-0.117,0.276l-0.089,0.232l-0.104,0.111l-0.062,0.116l-0.054,0.045l-0.036,0.001l-0.051-0.069l-0.116-0.188
			l-0.058-0.091l-0.082-0.09l-0.126-0.139l-0.156-0.155l-0.094-0.096L10.05,12.1l-0.139-0.138l-0.068-0.041l-0.065,0.002
			l-0.081,0.096L9.652,12.14l-0.016,0.082l-0.039,0.104l-0.057,0.095L9.44,12.479l-0.084,0.019l-0.041,0.04L9.295,12.67
			l-0.008,0.104l-0.052,0.071l-0.064,0.073l-0.102,0.03l-0.122-0.013L8.812,12.88l-0.203-0.108l-0.261-0.134L8.14,12.556
			l-0.289-0.127l-0.367-0.131l-0.204-0.103l-0.346-0.158l-0.135-0.056l-0.025-0.043v-0.018l0.027-0.039L6.93,11.77l0.234-0.203
			l0.069-0.084l-0.001-0.038L7.18,11.358L7.068,11.28l-0.255-0.167l-0.21-0.099l-0.085-0.062l-0.16-0.104l-0.342-0.189l-0.233-0.108
			l-0.21-0.106l-0.145-0.115l-0.206-0.163l-0.217-0.13L4.771,9.918L4.592,9.82L4.367,9.663L4.131,9.497L4.07,9.487L3.986,9.517
			L3.26,10.009l-0.106,0.063l-0.004,0.049l0.015,0.049l0.203,0.104l0.292,0.154l0.118,0.1L3.865,10.6l0.024,0.195L3.828,11.13
			l-0.092,0.054l-0.095,0.021l-0.104,0.029l-0.176,0.091l-0.14,0.081L3.102,11.46l-0.057,0.002l-0.173-0.054L2.626,11.39
			l-0.113,0.003l-0.121,0.056l-0.211,0.169l-0.054,0.079l-0.025,0.077l-0.093,0.046l-0.347,0.088l-0.461,0.074L1.09,12.01
			l-0.037,0.043L1.045,12.07L0.98,12.04l-0.029,0.012l-0.108,0.043l-0.082,0.017l-0.086,0.02l-0.054-0.006l-0.038,0.01l-0.019,0.014
			l0.007,0.064l0.029,0.147l0.022,0.198l0.01,0.112l0.014,0.074l0.026,0.216l0.041,0.29l0.054,0.39l0.029,0.125l0.045,0.033
			l0.067,0.007l0.299-0.03l0.541-0.102l0.163-0.021l0.117,0.034l0.108,0.07l0.07,0.094l0.119,0.201l0.062,0.106l0.128,0.247
			l0.2,0.425l0.241,0.492l0.152,0.321l0.136,0.353l0.039,0.143l0.051,0.182l0.068,0.149l0.125,0.248l0.043,0.095l0.026,0.092
			l-0.002,0.063l-0.045,0.084L3.449,17.16l-0.064,0.066l-0.056,0.066l-0.174,0.11l-0.146,0.092l-0.148,0.08L2.76,17.613
			l-0.096,0.021l-0.048,0.001l-0.078-0.021l-0.1-0.071l-0.141-0.126l-0.114-0.097L2.09,17.274l-0.097-0.022l-0.099-0.005
			l-0.249,0.064l0.004,0.094l0.08,0.166l0.136,0.123l0.145,0.14l0.147,0.215l0.097,0.065l0.02,0.066l0.071,0.046l0.05,0.052
			l0.054,0.044l0.222,0.011l0.641-0.018l0.424-0.039l0.423-0.049l0.444-0.074l0.521-0.146l0.146-0.057l0.164-0.084l0.155-0.083
			l0.111-0.108l0.037-0.153l0.055-0.109l0.047-0.02l0.068,0.011l0.123,0.07l0.086,0.114l0.025,0.043l0.055,0.024H6.34l0.03,0.023
			l0.024,0.048l0.03,0.013l0.072,0.02l0.159-0.001l0.097,0.011l0.035,0.038l0.017,0.042l0.002,0.057l-0.025,0.071l-0.037,0.04
			l-0.138,0.082l-0.198,0.08l-0.105,0.025l-0.091,0.012L6.019,18.2l-0.066,0.006l-0.038,0.015l-0.104,0.068l-0.172,0.075
			l-0.16,0.069L5.317,18.5l-0.121,0.078l-0.204,0.098l-0.071,0.032L4.893,18.73l-0.004,0.03l-0.004,0.035l0.048,0.106l0.033,0.104
			l0.001,0.057l-0.04,0.101l-0.071,0.139l-0.269,0.175l0.039,0.041l0.037,0.007l0.111,0.006l0.075,0.023l0.098,0.081l0.05,0.107
			l-0.008,0.061l-0.046,0.052l-0.044,0.052l-0.008,0.051l0.002,0.06L4.868,20.06l-0.084,0.02l-0.075-0.022l-0.095-0.031l-0.064,0.02
			l-0.027,0.043l0.013,0.066l0.052,0.143l0.005,0.126l-0.05,0.203l-0.141,0.3L4.267,21.08l-0.1,0.07l-0.084,0.028l-0.008,0.024
			v0.033l0.059,0.041l0.02,0.05l0.002,0.042L4.12,21.404l-0.065,0.02L3.98,21.426l-0.053,0.077l0.002,0.093l0.023,0.143l-0.021,0.25
			l-0.04,0.187l-0.06,0.195l-0.015,0.127l0.012,0.067l0.041,0.083l0.002,0.076l-0.025,0.051l-0.146,0.089l-0.073,0.062l-0.044,0.076
			l-0.08,0.13l-0.072,0.068l-0.129,0.045l-0.166,0.039l-0.326,0.019l-0.148,0.004l-0.073,0.036l-0.082,0.061l-0.098,0.172
			l-0.023,0.137l0.041,0.1l0.165,0.188l0.23,0.181l0.218,0.086l0.17,0.062l0.149,0.021l0.111-0.003l0.092-0.062L3.66,24.12
			l0.09-0.095l0.056-0.002l0.037-0.001l0.049,0.041l0.06,0.091l0.004,0.103l0.004,0.143l0.043,0.159l0.053,0.167l0.06,0.058
			l0.133,0.072l0.123,0.056l0.059,0.092l0.032,0.126l0.042,0.125l0.07,0.148l0.125,0.115l0.16,0.079l0.364,0.041l0.338,0.023
			l0.18,0.062l0.059,0.075l0.002,0.074l-0.025,0.068l-0.164,0.105L5.362,26.12L5.14,26.186l-0.202,0.072L4.706,26.28l-0.205,0.016
			l-0.073,0.019l-0.026,0.06l0.003,0.067l0.031,0.126l-0.03,0.111l-0.002,0.097l0.021,0.075l0.083,0.093l0.136,0.082l0.401,0.158
			l0.332,0.146l0.326,0.034l0.229,0.065l0.176,0.047l0.085,0.042l0.054,0.073l0.042,0.193l-0.011,0.158l0.037,0.096L6.43,28.23
			l0.137,0.273l0.044,0.261l-0.025,0.339l-0.049,0.234l-0.044,0.129l0.002,0.045l0.103,0.071l0.314,0.154l0.181,0.166l0.103,0.214
			l0.009,0.181l-0.052,0.188l-0.117,0.14l-0.104,0.123l-0.113,0.058l-0.09,0.033l-0.031,0.054l-0.065,0.003l-0.033-0.014
			l-0.061-0.052l-0.033,0.001L6.455,30.85l-0.114,0.057l-0.073,0.04L6.236,31l-0.004,0.099l0.003,0.061l0.117,0.019l0.241,0.015
			l0.266,0.013l0.074-0.024l0.04-0.031l0.032-0.031l0.015-0.045l0.015-0.054l0.006-0.061l0.057-0.031l0.073-0.032l0.082-0.025
			l0.083-0.003l0.093,0.026l0.275,0.223l0.268,0.246l0.195,0.113l0.168,0.047l0.167,0.018l0.059,0.014l0.036,0.065l0.012,0.098
			l0.02,0.045l0.043,0.021l0.075,0.005l0.091-0.003l0.033,0.007l0.011,0.053l0.004,0.09l0.039,0.134l0.122,0.146l0.294,0.298
			l0.191,0.195l0.151,0.147l0.067,0.021l0.073-0.024l0.022-0.054l0.021-0.083l0.039-0.068l0.031-0.024h0.024l0.044,0.06l0.073,0.162
			l0.046,0.104l0.084,0.021l0.098-0.033l0.14-0.05l0.239-0.01l0.144,0.025l0.144,0.048l0.181,0.159l0.165,0.175l0.221,0.309
			l0.112,0.115l0.075,0.034l0.021,0.002l0.047,0.004l0.082-0.018l0.031-0.039l0.055-0.092l-0.021-0.061l0.003-0.143l0.028-0.113
			l0.076-0.161l0.14-0.229l0.103-0.153l0.047-0.077l-0.011-0.06L12.3,32.526l-0.069-0.065l-0.001-0.028l0.032-0.018l0.105-0.049
			l0.097-0.086l0.127-0.132l0.11-0.153l0.026-0.137l0.014-0.285l-0.051-0.201l-0.055-0.104l0.196,0.107l0.179,0.102l0.201,0.106
			l0.206,0.09l0.132,0.062l0.099,0.06l0.144,0.064l0.132,0.016l0.1-0.008l0.062-0.032l0.071-0.11l0.122-0.209l0.059-0.195
			l0.042-0.255l0.028-0.132l0.066-0.239l0.062-0.204l0.038-0.129l0.054-0.087l0.044-0.039l0.043-0.006l0.073,0.01l0.194,0.057
			l0.13,0.092l0.143,0.053l0.178,0.088l0.202,0.104l0.169,0.054l0.159,0.062l0.199,0.05l0.132,0.018l0.173,0.001l0.137-0.001
			l0.143,0.011l0.18,0.029l0.215,0.044l0.213,0.05l0.181,0.05l0.171,0.067l0.202,0.077l0.14,0.044l0.191,0.092l0.175,0.076
			l0.169,0.104l0.2,0.118l0.2,0.146l0.137,0.114l0.193,0.164l0.188,0.145l0.157,0.153l0.189,0.197l0.093,0.107l0.057,0.082
			l0.085,0.052l0.066,0.004l0.046-0.009l0.15-0.063l0.063-0.074l0.09-0.101L20.572,32.384"/>
	</g>
</g>
<g id="Layer_1">
</g>
</svg>
