<?xml version="1.0" encoding="utf-8"?>
<!-- Generator: Adobe Illustrator 16.0.4, SVG Export Plug-In . SVG Version: 6.00 Build 0)  -->
<!DOCTYPE svg PUBLIC "-//W3C//DTD SVG 1.1//EN" "http://www.w3.org/Graphics/SVG/1.1/DTD/svg11.dtd">
<svg version="1.1" id="Layer_1" xmlns="http://www.w3.org/2000/svg" xmlns:xlink="http://www.w3.org/1999/xlink" x="0px" y="0px"
	 width="301.026px" height="264.73px" viewBox="-124.806 -109.681 301.026 264.73"
	 style="enable-background:new -124.806 -109.681 301.026 264.73;" xml:space="preserve">
<g id="Layer_22">
	<path id="Bhakkar" style="fill:#CCCCCC;stroke:#FFFFFF;stroke-width:1.15;" d="M-119.292,97.198L-119.292,97.198l3.729,1.747
		l0.687,0.434l0.554,0.084l0.741-0.034l1.06-0.134h0.81l0.394,0.084l0.517,0.19l0.554,0.22l0.599,0.169l0.582,0.106h0.644
		l0.781-0.168l1.037-0.281l1.438-0.546l0.753-0.23l0.98-0.511l1.45-0.753l0.846-0.59l1.001-0.816l0.57-0.527l0.258-0.27l0.675-1.54
		l0.357-0.854l0.292-0.281l0.317-0.19l1.057-0.45l0.646-0.163l0.742-0.225l1.07-0.119l2.278,0.248l0.852,0.214l0.323,0.303
		l0.139,0.383v0.337l-0.254,0.687l-0.615,1.281l-0.449,0.943l-0.34,1.136l0.005,0.91l0.23,0.883l0.352,0.635l0.356,0.473
		l0.681,0.303l0.901,0.247l1.751,0.052l1.428-0.006l0.678-0.124l1.228-0.382l1.265-0.383l0.576-0.096h0.801l0.936,0.052l1.102,0.19
		l0.585,0.057h0.482l0.818-0.135l1.021-0.281l2.226-0.866l1.169-0.314l1.191-0.163l2.532-0.006l2.07,0.158l1.338,0.129l1.489,0.05
		l2.24,0.221l2.278,0.274l0.939,0.135h0.62l1.543-0.112l1.335-0.067l1.543-0.191l2.652-0.286l1.796-0.028l1.006,0.136l0.57,0.135
		l0.357,0.303l0.441,0.675l0.756,0.844l0.829,1.021l0.873,0.642l0.61,0.309l0.663,0.073l0.931-0.112l1.686-0.348l1.981-0.602
		l0.933-0.344l1.287-0.157h0.883l1.512,0.371l2.229,0.72l0.654,0.349l0.602,0.033l0.373-0.033l0.616-0.383l1.422-0.843l0.43-0.304
		h0.27l0.225,0.151l0.158,0.23l0.126,0.72l-0.042,1.371l-0.062,1.866l0.005,1.899l-0.196,1.355v0.527l0.121,0.275l0.174,0.181
		l0.534,0.371l1.467,1.033l1.515,1.585l1.262,1.534l1.023,1.299l0.396,1.247l0.121,0.687l0.357,0.64l1.02,1.142l1.104,1.214
		l1.543,2.006l0.885,1.484l0.973,1.522l0.927,1.097l0.841,1.181l0.444,0.527l0.39,0.377l0.374,0.191l0.818,0.14h0.385l0.593-0.072
		l0.357-0.118l0.264-0.146l0.329-0.303l0.264-0.529l0.225-0.382l0.38-0.314l0.356-0.146l0.576-0.146l0.489-0.078l0.317,0.078
		l0.334,0.225l0.31,0.311l0.317,0.68l0.334,1.478l0.265,2.204l0.438,2.241l0.314,2.586l0.537,2.765l0.385,2.62l0.265,0.91
		l0.443,1.332l0.374,1.253l0.27,0.844l0.438,0.719l0.483,0.686l0.599,0.518l1.226,0.803l1.262,0.793l0.874,0.433l0.806,0.13
		l1.329-0.473l2.237-0.55l2.568-0.512l2.187-0.197l3.234-0.236l3.592-0.354l3.262,0.057l3.707-0.052l4.036-0.313l2.753-0.271
		l1.956-0.584l2.204-1.22l2.669-2.592l2.13-3.012l1.922-3.147l1.242-2.333l0.365-2.434l0.226-1.506l0.304-0.831l0.37-0.451
		l0.787-0.359l1.062-0.269l1.535-0.236l0.871-0.214l1.106-0.517l1.203-0.843l0.557-0.405l1.085-0.405l1.067-0.18l2.36,0.033
		l3.507,0.293l3.104,0.253l2.365,0.365l2.839,0.652l2.281,0.81l2.114,0.909l1.708,0.9l2.181,1.096l1.394,1.085l1.675,1.349
		l1.922,1.832l1.417,1.652l1.146,1.18l1.444,1.029l1.838,1.119l0.921,0.601l0.754,0.708l0.629,0.32l0.788-0.022l2.759-0.359
		l2.624-0.444l2.068-0.196l2.361-0.012l2.31,0.136l2.338,0.438l2.535,0.742l0.045,0.292l0.472,3.67l3.069-2.428l1.191-1.871
		l2.018-2.119l0.186-1.669l0.124-1.799l0.066-2.552l0.613-1.81l0.894-2.091l1.102-1.517l0.786-0.417l2.619-1.012l3.451-0.86
		l3.153-0.909l1.646-0.838l2.54-2.103l2.192-1.473l1.394-0.381l3.53-0.675l2.664-0.18l1.944,0.162l3.608,0.534l5.474,0.775
		l3.395,0.618l3.085,0.687l2.04,0.55l1.36,0.45h1.191l1.023-0.298l0.922-0.742l0.843-1.118l0.696-1.95l0.586-5.322l0.527-3.536
		l1.158-2.921l0.472-1.49l0.517-1.304l-0.033-0.573l-0.596-0.994l-0.596-1.254l-0.247-1.647l0.13-1.287l0.409-2.759l0.158-2.372
		l-0.236-1.394l-0.955-2.311l-1.535-2.945l-0.421-0.933l0.044-0.517l0.304-1.226l0.314-1.091l-0.044-0.578l-0.405-1.956
		l-0.483-3.107l0.018-3.462l0.051-4.205l-0.146-1.202l-0.163-0.371l-0.449-0.236l-1.535-0.32l-2.579-0.905l-1.473-0.769
		l-0.383-0.489l-0.022-0.383l-0.15-3.507l0.257-1.821l1.091-1.32l0.799-1.226l0.539-0.719l-1.365-0.253l-2.254-0.838l-1.046-0.354
		l-0.966-0.416l-2.221-1.113l-1.602-0.741l-1.349-0.833l-0.934-0.628l-0.702-0.574l-0.354-0.449l-0.146-0.427l-0.124-1.327
		l-0.135-1.141l-0.168-0.782l-0.405-1.039l-0.438-0.73l-0.652-0.73l-0.775-0.961l-0.922-0.787l-1.314-1.046l-1.079-0.618
		l-0.989-0.584l-1.102-0.607l-0.922-0.292l-0.854-0.225l-0.837-0.398l-0.905-0.534l-1.226-0.417l-1.248-0.359l-1.989-0.219
		l-1.259-0.286l-0.562-0.226l-0.483-0.455l-0.287-0.533l-0.236-0.45l-0.118-0.304l-0.64-0.799l-2.113-1.708l-1.681-1.467
		l-1.152-0.793l-0.961-0.606l-1.439-0.866l-0.786-0.46l-1.523-0.872l-0.567-0.403l-0.129-0.299l-0.084-0.371l-0.102-0.629
		l-0.119-0.289l-0.291-0.242l-1.315-0.466l-1.545-0.456l-1.344-0.539l-1.821-0.928l-1.467-0.759l-0.877-0.669l-1.613-1.175
		l-1.264-0.913l-0.708-1.06l-0.552-0.874l-0.141-0.778l-0.19-0.978l-0.281-1.658l-0.236-1.762l-0.213-1.681l-0.046-1.495
		l-0.066-0.789l0.05-0.678l-0.006-0.225l-0.274-0.329l-0.209-0.323l-0.123-0.349l0.045-0.371l0.124-0.488l0.258-0.638l0.158-0.329
		l0.021-0.287l-0.039-0.225l-0.095-0.323l-0.529-0.593l-1.124-1.422l-1.085-1.22l-1.084-1.219l-0.754-1.324l-0.601-1.284
		l-0.613-1.202l-0.646-2.061l-0.725-2.082l-0.596-1.242l-0.281-0.467l-0.726-0.525l-1.208-0.522l-1.703-0.438l-1.31-0.396
		l-1.236-0.5l-2.197-0.905l-2.086-0.747l-2.979-1.146l-0.888-0.419L80.2-17.146l-3.086-0.967l-1.473-0.54l-0.522-0.427l-0.09-0.286
		l0.022-0.434l0.551-0.967l0.618-1.253l0.753-1.338l0.472-0.719l0.534-0.66L79.3-26.1l0.753-0.641l0.483-0.23l0.596-0.211
		l0.955-0.236l0.81-0.126l0.691-0.031l1.141-0.09l0.63-0.151l1.18-0.419l0.945-0.542l1.146-0.726l0.697-0.741l0.175-0.287
		l0.409-0.52l0.321-0.703l0.331-1.104l0.186-0.798l0.163-0.72l0.157-0.478l0.18-0.433l0.304-0.472l0.602-0.869l0.635-1.07
		l0.202-0.295l0.293-0.349l0.343-0.744l0.28-0.655l0.5-0.542l0.529-0.534l0.708-0.686l0.376-0.599l0.281-0.43l0.394-0.394
		l0.591-0.857l0.505-0.933l0.422-1.352l0.141-1.023l-0.079-0.986l-0.298-0.852l-0.741-1.362l-0.557-0.979l-0.382-0.635l-0.225-0.688
		l0.021-0.335l0.292-0.312l0.428-0.352l0.764-0.418l0.473-0.413l0.765-0.928l1.298-1.467l1.405-1.543l0.849-0.795l1.652-1.323
		l1.062-0.79l1.58-1.428l1.742-1.922l1.034-1.341l0.416-0.693l0.394-1.113l0.162-1.169l0.046-1.166l-0.187-1.395l-0.033-0.961
		l0.045-2.273l0.118-3.136l0.141-1.697l0.062-1.025l0.432-2.071l0.214-1.889l0.118-0.534l0.292-0.575l0.265-0.639l0.078-0.554
		l0.118-0.944l0.04-0.801l-0.259-0.736l-0.573-0.852l-0.736-0.834l-0.793-0.793l-1.203-1.272l-0.572-0.61l-1.36-1.587l-0.826-1.428
		l-0.287-0.979v-0.168l-0.843-0.188l-0.826-0.127l-1.376-0.219l-1.327-0.174l-0.568-0.413l0.006,0.072l-1.697-0.556l-3.136-0.489
		l-3.473-0.253l-4.463,0.511l-4.677,0.754l-3.979,0.604l-3.484,0.548l-3.71,0.292l-1.636-0.051l-1.32-0.455l-1.13-0.528L66.8-99.301
		l-1.241-0.697l-1.119-0.775l-1.585-0.714l-2.275-0.725l-2.957-1.245l-2.877-0.66l-2.288-0.402l-2.519-0.081l-2.034-0.144
		l-2.995,0.236l-1.265,0.045l-0.787,0.225l-0.814,0.632l-0.894,0.796l-1.102,1.034l-0.895,0.629l-1.871,0.928l-1.787,0.688
		l-2.147,0.509l-1.955,0.27l-1.259,0.121l-1.338-0.29l-0.952-0.356l-1.617-0.458l-2.68-0.658l-3.185-0.427l-3.752-0.359
		l-3.262-0.099l-1.164-0.036l-1.883-0.874l-1.144-0.362l-1.152,0.045l-0.599,0.146l-1.011,1.121l-0.841,1.616l-1.284,3.001
		l-1.256,2.181l-0.683,0.23l-0.681,0.057l-0.955-0.357l-1.22-0.77l-2.065-1.296l-2.279-1.054l-2.097-0.72l-3.354-0.753l-1.605-0.708
		l-1.711-0.955l-1.236-0.531l-1.329-0.286l-1.56,0.201l-0.787,0.304l-0.599,0.565l-0.72,0.961l-0.129,1.312l0.152,0.664l0.356,0.832
		l-0.036,0.739l-0.2,0.407l-0.599,0.144l-0.657-0.018l-0.781-0.183l-0.714-1.497l-0.289-0.341l-0.765-0.183l-1.335-0.202
		l-1.525-0.214l-0.956-0.356l-0.556-0.593l-0.262-0.742l-0.357-0.666l-0.073-0.582l-0.587-0.267l-0.846-0.271l-0.863-0.021
		l-0.876-0.236l-0.271-0.697l-0.109,0.07l-0.545,1.411l-0.762,0.84l-0.581,0.748l-1.434,1.495l-1.391,2.245l-0.916,1.009
		l-1.254,1.006l-0.84,0.177l-2.914-0.109l-1.561-0.379l-1.846-0.54l-0.489,0.011l-0.356,0.501l-0.191,0.165l-0.171,0.745
		l-0.428,1.236l-0.457,0.835l-0.357,1.736l-0.911,2.074l0.04,0.654l0.025,0.824l0.303,0.488l0.489,0.323l0.495,0.314l0.691,0.478
		l0.401,0.652l0.186,0.57l0.07,1.726l-0.383,0.494l-0.556,0.917l-0.646,1.081l-1.104,1.83l-0.132,1.483l-0.438,1.739l-0.356,0.742
		l-0.431,1.658l-0.163,0.967l-0.458,0.829l-0.559,0.834l-0.27,0.742l0.016,0.66l0.012,0.242l0.012,0.581l-0.534,1.565l-0.854,0.593
		l-0.949,0.762l-1.248,0.188l-1.554,0.03l-0.781,0.259l-0.642,0.425l0.006,0.334l0.025,0.658l0.38,0.644l0.325,0.654l0.599,0.565
		l0.262,2.377l0.557,2.209l-0.396,2.805l-0.16,1.154l-0.745,2.811l0.191,0.362l0.38,1.847l0.438,2.658l-0.675,1.883l-0.208,0.834
		l-0.253,0.944l-0.23,0.961l-0.121,0.863l0.329,1.256l0.301,0.771l0.368,0.581l-0.121,0.483l-0.686,0.714l-0.599,0.669l-0.368,0.425
		l-0.356,0.62l-0.121,0.824l0.27,1.014l0.368,1.588l0.121,0.627l-0.012,0.621l-0.057,0.385l-0.404,0.289l-1.082,0.374l-2.531,0.989
		l-1.023,0.478l-0.823,0.765l-0.576,0.719l-0.356,1.251l-0.301,1.489l-0.233,1.009l-0.531,1.968l-0.522,1.346l-0.84,2.92
		l-0.824,2.498l-0.823,1.967l-1.081,1.439l-2.24,3.338l-0.138,0.287l-0.286,0.943l-0.175,0.6l-0.413,0.322l-0.548,0.38l-0.88,0.121
		l-0.846,0.005h-0.789l-0.54,0.115l-0.356,0.191l-0.318,0.343l-0.235,0.812l-0.534,1.531l-0.368,0.599l-0.531,0.34l-0.874,0.627
		L-82.17,3.05l-0.467,0.31l-0.356,0.289l-0.317,0.346l-0.38,0.919l-0.425,1.82l-0.114,0.694l-0.324,0.664l-0.292,0.436l-0.604,0.316
		l-1.191,0.605l-1.142,0.752l-0.275,0.399l-0.604,0.776l-0.581,1.059l-0.368,1.604l-0.438,1.681l-0.188,1.417l0.132,0.536
		l0.139,0.253l0.533,0.16l1.456,0.317l0.236,0.275l0.272,0.521l-0.175,0.413l-0.356,0.188l-1.439-0.178l-2.607-0.564l-0.775-0.079
		l-0.84,0.236l-1.796,1.057l-0.599,0.334l-0.835,1.004l-1.23,1.644l-1.124,1.624l-0.919,1.667l-0.796,1.607l-0.736,1.753
		l-0.292,0.978l-0.115,0.311l0.121,0.151l0.447,0.28l0.69,0.152l0.438,0.275l0.396,0.455l0.076,0.652l-0.23,0.77l-0.329,0.208
		l-0.627,0.905l-0.587,0.966l-0.149,0.512l-0.064,0.759l0.588,0.54l0.604,0.27l0.702,0.518l0.196,0.77l0.073,0.646l0.564,0.809
		l0.335,0.573l0.626,0.687l0.178,0.449l-0.011,0.584l-0.133,0.473l-0.334,0.202l-0.852,0.045l-0.265,0.124l-0.208,0.404
		l-0.067,0.899l-0.163,0.596l-0.216,0.404l-0.68,0.495l-0.554,0.191l-0.453-0.057l-0.388,0.057l-0.23,0.225l-0.115,0.377
		l0.048,0.741l0.236,0.494l-0.034,0.675l-0.18,0.421l-0.253,0.315l-0.356,0.286l-0.518,0.118l-0.329,0.017l-0.274,0.209l-0.163,0.19
		l-0.265,0.529l-0.202,0.511l-0.225,0.77l0.157,0.36l0.362,0.123l0.467,0.068l0.66,0.101l0.747,0.157l0.29,0.292l0.385,0.495
		l0.402,0.955l0.581,0.579l0.922,0.658l0.79,0.578l1.444,0.86l0.374,0.359l0.188,0.399l0.054,0.921l-0.138,0.473l-0.157,0.551
		l-0.183,0.13l-0.422,0.202l-0.449,0.084l-2.204-0.118l-1.323-0.018l-0.927-0.291l-0.447-0.057l-0.894-0.012l-0.494,0.051
		l-0.149,0.146l-0.028,0.27l0.528,0.202l0.461,0.236l0.683,0.377l0.124,0.443l-0.048,0.674l0.07,0.923l0.012,0.686l0.022,0.825
		l0.368,0.456l0.312,0.473l0.368,0.135l0.396,0.078l1.613,0.271l0.596,0.123l0.606,0.27l0.38,0.27l0.16,0.354l-0.07,0.388
		l-0.419,0.73l-0.627,0.854l-0.455,1.001l-0.368,1.32l-0.18,0.961l-0.253,1.034l-0.374,0.922l-0.171,0.646l-0.133,0.658l0.073,0.472
		l0.615,0.399l0.594,0.152l0.621,0.404l0.271,0.517l-0.114,0.383l-0.121,0.349l-0.652,0.394l-0.84,0.325l-0.225,0.225l-0.354,0.287
		l-0.328,0.354l-0.731,0.325l-0.916,0.394l-0.978,0.236l-2.815,0.022l-2.038,0.202l-0.511,0.112l-0.512-0.067l-0.506-0.106
		l-0.356,0.062l-0.273,0.219l-0.05,0.546l-0.034,1.163l-0.017,1.136l0.228,0.837l0.048,0.776l-0.138,0.449l-0.152,0.562l0.169,0.265
		l0.082,0.512l-0.209,0.359l-0.52,0.118l-1.028,0.006l-0.582-0.034l-0.73-0.022l-0.449,0.264l-0.236,0.45l-0.084,0.258l0.527,0.203
		l0.886,0.365l0.41,0.186l0.357,0.298l0.011,0.505l-0.329,1.074l-1.317,0.944l-1.495-0.028l-1.422,0.124l-0.778,0.472l-0.148,0.596
		l0.12,0.787l-0.166,0.787L-119.292,97.198"/>
</g>
<g id="Layer_1_1_">
</g>
</svg>
