<?xml version="1.0" encoding="utf-8"?>
<!-- Generator: Adobe Illustrator 16.0.4, SVG Export Plug-In . SVG Version: 6.00 Build 0)  -->
<!DOCTYPE svg PUBLIC "-//W3C//DTD SVG 1.1//EN" "http://www.w3.org/Graphics/SVG/1.1/DTD/svg11.dtd">
<svg version="1.1" id="Layer_1" xmlns="http://www.w3.org/2000/svg" xmlns:xlink="http://www.w3.org/1999/xlink" x="0px" y="0px"
	 width="301.065px" height="445.811px" viewBox="-136.618 -202.533 301.065 445.811"
	 style="enable-background:new -136.618 -202.533 301.065 445.811;" xml:space="preserve">
<g id="Layer_52">
	<path id="Jhal_Magsi" style="fill:#CCCCCC;stroke:#FFFFFF;stroke-width:1.15;" d="M158.915,95.14L158.915,95.14l-1.672-12.772
		l-0.189-3.301l-0.721-4.402l-3.067-10.17l-2.71-8.232l-1.133-5.577l-2.327-6.147l-2.201-5.641l-3.101-9.556l-2.349-7l-1.969-5.572
		l-2.392-10.274l-1.884-7l-1.714-4.81l-0.063-3.381l0.635-10.773l0.889-2.867l1.905-5.291l2.031-4.169l1.947-3.772l1.672-3.381
		l1.396-1.376l2.074-1.884l2.053-3.111l3.842-6.904l2.381-6.196l0.286-2.581l-0.868-2.958l-1.842-5.17l-1.152-5.729l-1.376-5.037
		l-0.063-3.836l-0.762-3.223l-0.106-0.519l-2.688-6.349l-2.402-9.059l-2.931-6.492l-1.735-5.339l-0.763-5.063l-0.91-4.83
		l-1.122-3.815l-2.169-3.492l-2.624-2.937l-3.439-3.259l-1.597-2.243l-4.583-5.699l-3.153-5.745l-1.841-4.747l-1.016-4.29
		l0.307-2.794l0.528-2.481l1.133-2.709l2.772-2.439l3.598-2.492l3.005-2.222l2.54-2.588l1.355-1.206l0.084-1.232l-0.36-1.053
		l-1.672-1.418L123-185.702l-6.264-2.577l-5.439-1.486l-5.842-0.714l-0.042-0.021l-6.211-0.317l-6.699-0.312l-3.048,0.228
		l-4.571,0.598l-7.365,2.153l-8.042,2.82l-4.91,1.71l-2.561,0.227l-2.328-0.042l-1.186-0.672l-0.487-0.91l0.223-1.481l0.423-2.561
		l0.063-2.413l-0.508-2.042l-0.814-0.799l-1.429-0.271l-2.836,0.053l-4.667,1.127l-3.026,1.656l-1.968,1.519l-2.666,2.577
		l-1.958,2.026l-1.133,1.778l-1.207,3.64l-1.798,5.19l-0.867,3.392l-0.508,4.322l0.57,5.238l0.677,4.021l0.869,4.212l-0.148,4.672
		l-0.19,2.688l-0.275,4.138l-0.868,3.73l-1.333,3.237l-1.037,1.127l-1.608,0.726l-2.01,0.565l-2.456-0.079l-2.952-0.767
		l-2.371-1.704l-1.682-1.603l-1.223-2.482l-2.556-4.508l-2.905-4.386l-2.979-2.429l-3.566-2.037l-3.079-1.28l-3.185-0.667
		l-3.164,0.063l-3.271,0.868l-3.016,1.799l-1.386,1.079l-3.487,1.291l-6.492,2.481l-6.74,2.709l-5.233,2.244l-3.359,1.725
		l-2.328,0.973l-1.878,0.54l-3.964,1.116l-2.333,1.096l-1.492,1.237l-1.021,1.583l-1.604,1.666l-1.841,1.376l-2.329,0.746
		l-3.846,1.185l-3.969,0.593l-3.63,0.08l-1.656-0.381l-8.158-0.466l-5.302-0.952l-3.175-0.763l-2.375-0.757l-8.593-3.598
		l-0.27,6.133l-2.535,11.259l-2.491,10.661l-0.36,5.345l-1.772,9.418l-2.138,10.095l-0.693,7.868l-1.418,9.729l-2.852,7.535
		l-7.121,5.656l-8.191,5.037l-3.206,3.434l-1.418,2.201v1.884l0.714,1.899l2.133,2.2l3.566,0.953l6.058-0.953l5.698-0.968h4.63
		l4.984,2.18l6.856,6.545l4.63,4.096l2.492,4.386l2.857,6.582l2.852,3.434l4.28,1.884l4.984,0.651l4.984-0.291l3.91,0.291
		l2.497,1.248l0.497,0.397l3.054,2.438l2.492,2.863l1.423,3.783l-0.359,13.237v2.82l2.132,4.106l4.974,4.725l2.852,1.905
		l1.063,5.058l0.704,11.958l2.132,3.799l1.778,2.18l2.492,1.576l4.619,7.557l4.677,14.423l2.127,5.979l1.407,11.027v8.158
		l-0.725,14.762l2.111,13.799l1.757,13.228v2.836l-1.074,4.085l-2.133,6.286l-2.492,9.11l0.715,20.096l-0.011,24.159l1.407,15.714
		l-0.042,0.55l4.519-0.115l2.19,0.856l1.222,1.27l0.487,1.534l0.725,1.524l0.741,1.534l1.698,1.079h2.677l5.831-0.677l5.344-0.847
		l7.768-1.122l6.793-0.877l4.619-0.435l5.821-0.667l5.598-0.867l6.55-0.868l2.423,0.434l2.688,1.28l2.17,0.668l1.205-0.233
		l1.693-2.148l2.202-1.693l3.386-1.725l5.089-2.138l6.805-1.291l8.486-1.545l9.482-1.534l5.841-1.068l4.128-0.678l2.667-0.232
		l3.598-0.487l-0.224-1.799l0.16-1.354l0.75-1.926l1.229-1.365l-0.159-2.042v-9.503l0.18-5.969l-0.624-2.031l-1.08-1.079
		l-0.146-1.778l-0.17-3.11l-0.763-2.043l-1.862-3.81l-4.286-5.175l-3.216-2.889l-4.148-5.27l-1.376-3.376l-0.624-2.571v-2.551
		l0.762-3.925l1.228-7.905l0.296-3.82l-0.762-3.672l-2.307-9.64l-1.672-4.243L79.17,121.7v-0.825l0.782-0.804l2.752-0.677
		l8.127-2.317l3.904-1.133l0.223-0.063l39.101-14.73l20.434-4.508L158.915,95.14"/>
</g>
<g id="Layer_1_1_">
</g>
</svg>
