<?xml version="1.0" encoding="iso-8859-1"?>
<!-- Generator: Adobe Illustrator 16.0.4, SVG Export Plug-In . SVG Version: 6.00 Build 0)  -->
<!DOCTYPE svg PUBLIC "-//W3C//DTD SVG 1.1//EN" "http://www.w3.org/Graphics/SVG/1.1/DTD/svg11.dtd">
<svg version="1.1" xmlns="http://www.w3.org/2000/svg" xmlns:xlink="http://www.w3.org/1999/xlink" x="0px" y="0px"
	 width="56.711px" height="104.43px" viewBox="0 0 56.711 104.43" style="enable-background:new 0 0 56.711 104.43;"
	 xml:space="preserve">
<g id="Layer_159">
	<g id="Layer_164">
		<path id="Dadu" style="fill:#CCCCCC;stroke:#FFFFFF;stroke-width:1.07;" d="M51.244,90.309
			L51.244,90.309l-0.012-0.098l-0.018-0.107l-0.066-0.225l-0.066-0.229l-0.062-0.188l-0.07-0.124l-0.082-0.118l-0.09-0.11
			l-0.078-0.104l-0.064-0.093l-0.125-0.183l-0.072-0.112l-0.053-0.099l-0.037-0.122l-0.049-0.131l-0.047-0.086l-0.039-0.135
			l-0.049-0.111l-0.016-0.043l-0.029-0.071l-0.057-0.075l-0.041-0.05l-0.02-0.011l-0.027-0.004l-0.027-0.021l-0.018-0.043
			l-0.031-0.057l-0.027-0.062l-0.148-0.193l-0.309-0.729l-0.209-0.396l-0.059-0.289l0.01-0.225l0.035-0.308l0.262-0.279l0.236-0.3
			l0.082-0.325l-0.014-0.088l-0.041-0.263l-0.072-0.434l-0.09-0.45l-0.029-0.392l0.039-0.408l0.221-0.384l0.189-0.238l0.281-0.195
			l0.574-0.228l0.643-0.225l0.732-0.181l0.455-0.066l0.361-0.008l0.207-0.075l0.051-0.121l-0.232-0.378l-0.227-0.582l-0.074-0.169
			l-0.215-0.478l-0.27-0.604l-0.344-0.441l-0.234-0.378l-0.01-0.287l0.031-0.204l0.311-0.441l0.189-0.178l0.555-0.287l0.709-0.181
			l0.873-0.259l0.852-0.318l0.623-0.267l0.238-0.259l0.076-0.202l0.02-0.241l-0.164-0.092l-0.244-0.092l-0.943-0.236l-0.738-0.231
			l-1.002-0.424l-1.334-0.642l-0.979-0.443l-0.6-0.35l-0.322-0.463l-0.334-0.709l-0.018-0.637l0.123-0.242l0.186-0.117l0.551-0.125
			l0.256-0.155l0.15-0.345l0.008-0.718l-0.076-0.491l-0.311-0.771l-0.125-0.271l-0.332-0.194l-0.887-0.522l-0.732-0.436
			l-0.371-0.361l-0.729-0.558l-0.391-0.425l-0.037-0.227l0.033-0.267l0.334-0.38l0.809-0.896l0.41-0.541l0.031-0.096l-0.471-0.339
			l-0.158-0.151l-0.191-0.168l-0.238-0.228l-0.156-0.191l-0.557,0.048l-0.791,0.044l-0.973-0.029l-0.588-0.101l-0.197-0.191
			l-0.24-0.255l-0.807-0.908l-0.457-0.508l-0.938-0.866l-1.732-1.636l-1.014-0.915l-0.57-0.552l-0.283-0.338l-0.129-0.229
			l-0.031-0.351l0.084-0.429l-0.066-0.64l-0.191-0.335l-0.154-0.128l-0.363-0.032l-0.523-0.035l-0.312-0.135l-0.555-0.427
			l-0.219-0.233l-0.27-0.131l-0.266-0.192l-0.244-0.213l-0.154-0.107l-0.203-0.027l-0.318-0.05l-0.379-0.217l-0.135-0.087
			l-0.252-0.284l-0.167-0.416l-0.019-0.286l-0.025-0.393l0.014-0.37l0.006-0.186l-0.062-0.125l-0.137-0.023l-0.137,0.017l-0.146,0.2
			l-0.125,0.284l-0.007,0.206l-0.075,0.182l-0.142,0.1l-0.113,0.018l-0.111-0.086l-0.033-0.35l-0.015-0.206L31.93,48.92
			l-0.088-0.126l-0.065-0.063l-0.06-0.081l0.127-0.145l0.07-0.165l-0.08-0.431l-0.04-0.332l-0.093-0.458l0.027-0.19l0.117-0.158
			l0.207-0.14l0.237-0.112l0.163-0.17l0.062-0.244l0.054-0.382l0.122-0.477l0.094-0.282l0.193-0.416l0.097-0.312l0.009-0.15
			l-0.005-0.151l-0.06-0.03l-0.137-0.021l-0.213-0.024l-0.337,0.01l-0.405-0.104l-0.144-0.158l0.007-0.123l0.041-0.148l0.219-0.306
			l0.248-0.304l0.262-0.289l0.41-0.432l0.396-0.461l0.189-0.334l0.16-0.362l0.03-0.232l0.019-0.302l-0.045-0.497l-0.174-0.614
			l-0.132-0.351l-0.12-0.281l-0.068-0.127l-0.023-0.098l0.051-0.079l0.08-0.092l-0.061-0.038l-0.086-0.018l-0.082,0.01l-0.2,0.033
			l-0.138,0.057l-0.262,0.086l-0.138,0.046l-0.103,0.029l-0.324,0.09l-0.201,0.039l-0.212,0.019l-0.212,0.011l-0.084-0.023
			l-0.125-0.06l-0.096-0.08l-0.102-0.108l-0.167-0.135l-0.181-0.138l-0.195-0.152l-0.152-0.122l-0.173-0.077l-0.128-0.062
			l-0.197-0.043l-0.106-0.03l-0.167-0.064l-0.17-0.036l-0.145-0.059l-0.121-0.06l-0.036-0.06l-0.111-0.25l-0.067-0.2l-0.035-0.202
			l-0.004-0.067l0.019-0.062l0.079-0.108l0.167-0.165l0.213-0.103l0.229-0.16l0.246-0.263l0.229-0.233l0.134-0.276l0.098-0.103
			l0.13-0.088l0.262-0.13l0.115-0.073l0.1-0.175l0.148-0.321l0.147-0.188l0.245-0.205l0.132-0.146l0.132-0.176l0.051-0.264
			l-0.048-0.293l-0.112-0.22l-0.162-0.118l-0.358-0.119l-0.211-0.089l-0.195-0.133l-0.192-0.366l-0.146-0.44l-0.03-0.321
			l-0.031-0.19l0.082-0.059l0.229-0.015l0.295-0.101l0.146-0.088l0.055-0.188l0.066-0.205l0.133-0.307l0.148-0.453l0.084-0.366
			l-0.047-0.321l-0.08-0.234l-0.211-0.191l-0.13-0.162l-0.081-0.16l-0.031-0.161l0.051-0.483l-0.016-0.088l-0.08-0.133l-0.146-0.161
			l-0.161-0.455l-0.177-0.514l-0.096-0.381l-0.062-0.32l0.05-0.176l0.181-0.308l0.231-0.263l0.345-0.364l0.297-0.263l0.155-0.209
			l0.154-0.222l0.134-0.099l0.031-0.023l0.098-0.08l0.105-0.085l0.131-0.089l0.137-0.118l0.039-0.039l0.04-0.014l0.119-0.005
			l0.255-0.016l0.199-0.01l0.061-0.017l0.16-0.13l0.169-0.15l0.062-0.04l0.054-0.021l0.231-0.003l0.176-0.006l0.133-0.04
			l0.096-0.047l0.074-0.072l0.068-0.1l0.029-0.062l0.035-0.182l-0.006-0.087l-0.014-0.054L34.1,21.944l-0.074-0.071l-0.086-0.062
			l-0.084-0.075l-0.119-0.086l-0.202-0.398l-0.011-0.064l0.035-0.337l0.131-0.103l0.262-0.131l0.279-0.086l0.311-0.043l0.328-0.027
			l0.557-0.04l0.312-0.058l0.182-0.068l0.164-0.115l0.082-0.177l-0.029-0.204l-0.08-0.411l-0.16-0.527l-0.08-0.178l-0.082-0.044
			h-0.098l-0.1,0.043l-0.098-0.001l-0.131-0.073l-0.082-0.118l-0.031-0.117l-0.098-0.029l-0.229-0.002l-0.344-0.074l-0.393-0.135
			l-0.311-0.118l-0.229-0.089l-0.229-0.104l-0.04-0.061l-0.057-0.087l-0.014-0.381l0.033-0.176l0.049-0.044l0.098-0.043l0.279,0.001
			l0.131-0.071l0.133,0.009l0.129-0.032l0.105-0.032l0.078-0.039l0.111-0.086l0.121-0.1l0.07-0.095l0.09-0.016l0.088-0.078
			l0.039-0.025l0.033-0.009l0.049,0.004l0.111,0.036l0.143,0.022l0.146,0.03l0.166,0.01l0.174,0.01l0.156,0.005l0.111,0.018
			l0.117,0.015l0.082-0.008l0.078-0.019l0.137-0.038l0.062-0.009l0.248,0.001l0.252,0.009l0.189,0.005l0.123,0.001l0.086-0.025
			l0.068-0.039l0.084-0.077l0.062-0.074l0.061-0.091l0.084-0.146l0.088-0.179l0.08-0.161l0.061-0.086l0.125-0.099l0.039-0.021
			l0.072-0.039l0.137-0.03l0.146-0.052l0.102-0.048l0.051-0.043l0.01-0.053l0.006-0.073V15.08l0.002-0.112l0.02-0.136l0.035-0.165
			l0.057-0.146l0.041-0.082l0.066-0.091l0.084-0.097l0.064-0.068l0.092-0.062l0.08-0.044l-0.1-0.036l-0.09-0.039l-0.121-0.033
			l-0.094-0.03l-0.072-0.026l-0.133-0.062l-0.104-0.1l-0.09-0.037l-0.104-0.084l-0.137-0.092l-0.141-0.097l-0.076-0.034
			l-0.055-0.047l-0.098-0.075l-0.143-0.09l-0.102-0.075l-0.078-0.059l-0.068-0.051l-0.104-0.084l-0.092-0.092l-0.07-0.056
			l-0.053-0.069l-0.072-0.074l-0.098-0.115l-0.064-0.067l-0.035-0.048l-0.102-0.109l-0.096-0.08l-0.084-0.018l-0.074-0.045
			l-0.133-0.111l-0.119-0.086l-0.197-0.104l-0.125-0.061l-0.244-0.153l-0.27-0.159l-0.32-0.203l-0.254-0.147l-0.104-0.054
			l-0.033-0.038l-0.014-0.026l-0.012-0.083v-0.188l-0.01-0.185L34.5,10.37l-0.01-0.113l0.02-0.034l0.035-0.022l0.084-0.022
			l0.271-0.062l0.145-0.057l0.078-0.067l0.045-0.08l0.021-0.086V9.704l-0.014-0.093l-0.033-0.089L35.082,9.43l-0.039-0.083
			l-0.014-0.067l-0.002-0.075l0.021-0.064l0.02-0.056l0.084-0.067l0.111-0.11l0.121-0.092l0.271-0.179l0.162-0.137l0.219-0.179
			l0.178-0.174l0.174-0.179l0.104-0.14l0.109-0.16l0.113-0.211l0.092-0.161L36.49,7.308l-0.193-0.014l-0.189-0.049L36.02,7.238
			l-0.193,0.013l-0.225,0.022l-0.396-0.003l-0.65-0.009l-0.443-0.008l-0.243-0.069l-0.36-0.095l-0.267-0.163l-0.409-0.216
			l-0.509-0.249l-0.517-0.17l-0.232-0.044l-0.104-0.007l-0.211,0.05l-0.236,0.154l-0.297,0.176l-0.404,0.113L29.75,6.851
			l-0.73,0.064l-0.596,0.062l-0.396-0.028l-0.59-0.017l-0.771,0.022l-0.804,0.061l-0.665,0.005l-0.338-0.024l-0.606,0.009
			l-0.454-0.046l-0.777-0.044l-0.233-0.028l-0.15-0.131l-0.192-0.172l-0.199-0.252l-0.171-0.235l-0.153-0.104l-0.102-0.021
			l-0.117-0.009l-0.227,0.05L21.287,6.17l-0.235,0.154l-0.397,0.145l-0.432,0.034l-0.455-0.032l-0.396-0.028l-0.245-0.069
			L18.9,6.266l-0.116-0.021l-0.192-0.001l-0.403,0.051l-0.342,0.028l-0.344,0.042l-0.34,0.002l-0.495-0.088l-0.319-0.075
			l-0.01-0.002l-0.028,0.005l-0.046-0.003l-0.049-0.028l-0.002-0.004l-0.043-0.054l-0.066-0.115L15.948,5.82l-0.087-0.1l-0.16-0.104
			L15.55,5.488l-0.203-0.115l-0.24-0.105l-0.255-0.044L14.775,5.21l-0.032-0.017L14.73,5.146l-0.104-0.173l-0.068-0.15L14.406,4.7
			l-0.148-0.015l-0.146-0.012l-0.097-0.021l-0.19-0.016l-0.146-0.022l-0.04-0.025l-0.047-0.062l-0.05-0.133L13.518,4.28L13.491,4.27
			l-0.346-0.171L12.799,3.92l-0.167-0.065l-0.351-0.149l-0.33-0.091l-0.373-0.079l-0.237-0.019l-0.228,0.001L11.017,3.54
			l-0.105,0.07l-0.118,0.086L10.707,3.8l-0.05,0.093L10.579,4.19l-0.002,0.176l-0.052,0.142l-0.053,0.064L10.31,4.614L10.084,4.63
			L9.962,4.62L9.936,4.59L9.923,4.483L9.905,4.336L9.884,4.155L9.863,4.036L9.799,3.947L9.651,3.847l-0.14-0.021L9.387,3.864
			L9.22,3.928L8.88,4.068L8.6,4.196L8.526,4.203L8.493,4.181l-0.04-0.077L8.392,3.963L8.316,3.834l-0.11-0.166L8.075,3.525
			L7.851,3.364L7.557,3.25L7.284,3.188L6.942,3.119l-0.23-0.024L6.466,3.132L6.403,3.11l-0.07-0.075L6.104,2.895L5.889,2.807
			L5.686,2.759L5.499,2.716l-0.081-0.04L5.386,2.599L5.372,2.484l-0.015-0.12L5.324,2.272L5.252,2.179l-0.1-0.072L4.961,1.997
			L4.782,1.899L4.53,1.822L3.985,1.767L3.743,1.595L3.578,1.431L3.414,1.282L2.731,0.865L2.409,2.691L2.281,4.054L2.148,4.718
			L1.629,5.27L1.143,5.85L0.851,6.4L0.69,7.154V7.56l0.033,0.666l0.295,1.217l0.425,1.796l0.32,1.729l0.197,1.506l0.067,1.043
			l0.099,1.188l-0.29,1.015l-0.354,1.217l-0.258,0.667l0.001,0.261v0.231l0.098,0.404l0.195,0.752v0.014L1.4,21.402l-0.16,0.278
			L1.157,22l-0.154-0.073v1.027l0.008,1.559l0.139,1.4l0.106,0.91l0.212,1.822l0.073,0.42L1.46,29.31l-0.197,0.208l-0.238,0.348
			l-0.158,0.208l-0.159,0.243l0.001,0.774l0.154,1.217l0.114,0.761l0.005,0.367l-0.386,0.421l0.205,0.723l0.096,0.656l0.308,0.854
			l0.223,1.07l0.303,1.146l0.281,0.829l0.232,0.536l0.41,1.146l0.178,0.584l0.21,0.295l0.292,0.296l0.346,0.247l0.238,0.223
			l0.157,0.245l0.26,0.489l0.474,0.564l0.504,0.903l0.364,0.661l0.444,0.71l0.366,0.54l0.311,0.635l0.309,0.686l0.285,0.562
			l0.364,0.637l0.494,0.833l0.567,1.222L9.1,51.783l0.392,0.564l0.227,0.707l0.097,0.511l0.212,0.559l0.155,0.293l0.208,0.344
			l0.213,0.101l0.321,0.079l0.239,0.125l0.397,0.272l0.131,0.173l0.128,0.27l0.179,0.438l0.338,0.539l0.282,0.61l0.37,0.297
			l0.182,0.295l0.047,0.291l-0.032,0.267l-0.311,0.697l-0.088,0.339l-0.067,0.629l-0.088,0.36l-0.153,0.847l-0.186,1.16l0.012,0.679
			l-0.073,0.845l0.011,0.729l-0.069,0.726l-0.141,0.337l0.021,0.218l0.073,0.391l0.151,0.463l0.253,0.683l0.15,0.511l-0.062,0.411
			l-0.09,0.411l-0.335,0.672l-0.412,0.479l-0.546,0.522l-0.468,0.598l-0.44,0.573l-0.469,0.671l-0.397,0.74l-0.141,0.36L9.287,73.93
			l-0.259,0.867l-0.23,0.771l-0.007,0.363l0.396,0.044l0.487-0.021l0.152-0.003l0.251,0.008l0.209,0.021l0.401-0.084l0.206-0.079
			l0.18-0.029l0.1,0.062l0.114,0.136l0.06,0.188l0.038,0.39l0.048,0.276l0.132,0.299l0.149,0.334l0.059,0.176l0.031,0.137
			l-0.062,0.857l0.023,0.391l0.012,0.516l0.009,0.378l0.181,1.18l0.009,0.378l0.009,0.39l0.077,0.325l0.209,0.625l0.263,0.562
			l0.076,0.274l0.003,0.139l-0.052,0.165l-0.216,0.256l-0.203,0.205l-0.238,0.471l-0.236,0.558l-0.256,0.911l-0.229,0.417
			l-0.079,0.178l0.003,0.164l0.06,0.149l0.074,0.188l-0.025,0.14l-0.158,0.316l-0.366,0.927l-0.312,0.875l-0.228,0.331l-0.096,0.026
			L10,90.077l-0.058-0.112l-0.058-0.11l-0.029-0.05l-0.082,0.014L9.691,89.87l-0.232,0.118L9.28,90.067l-0.079,0.165l0.006,0.276
			l-0.049,0.239l-0.24,0.383l-0.111,0.228l-0.273,0.169L8.141,91.85l-0.229,0.281l-0.228,0.318L7.499,92.83l-0.362,0.486
			L6.901,93.85l-0.046,0.364l-0.142,0.418l-0.09,0.241l0.003,0.126l0.045,0.149l0.101,0.124l0.239,0.146l0.292,0.095l0.253,0.157
			l0.312,0.297l0.323,0.206l0.303,0.114l0.944,0.157l0.807,0.211l0.405,0.13l0.825,0.387l1.19,0.604l1.076,0.508l0.918,0.521
			l0.689,0.503l0.441,0.531l0.509,0.493l0.396,0.42l0.133,0.4l0.022,0.389v0.616l0.01,0.428l0.125,0.629l0.188,0.093l0.66,0.213
			l0.839,0.296l0.465,0.074l0.377,0.004l0.333-0.16l0.366-0.354l1.021-0.935l0.746-0.566l0.166-0.039l0.271-0.012l0.36,0.074
			l1.2,0.384l0.569,0.199l0.256,0.044l0.166-0.025l0.107-0.163l0.237-0.736l0.281-0.71l0.156-0.342l0.292-0.58l0.335-0.258
			l0.534-0.403l0.396-0.229l0.378-0.091l0.468-0.021l0.362-0.05l0.273-0.134l0.184-0.188l0.142-0.409l0.205-0.546l0.146-0.672
			l0.22-1.215l0.152-1.108l-0.031-0.212l-0.25-0.443l-0.058-0.261l0.047-0.095l0.183-0.136l0.414-0.337l0.399-0.502l0.226-0.445
			l0.149-0.428l0.126-0.147l0.208-0.184l0.269-0.054l0.27-0.126l0.146-0.204l0.254-0.406l0.084-0.203l0.168-0.129l0.332-0.183
			l0.332-0.145l0.104-0.166l0.022-0.131l-0.1-0.15l0.002-0.148l0.084-0.167l0.127-0.203l0.086-0.167l-0.019-0.168l-0.14-0.282
			l-0.18-0.282l-0.057-0.299l0.092-0.274l0.271-0.184l0.289-0.146l0.229-0.128l0.188-0.184l0.129-0.372l0.086-0.241l0.148-0.222
			l0.018-0.482l0.215-0.046l0.293,0.05l0.342-0.052l0.342-0.071l0.26-0.3l0.215-0.32l0.217-0.343l0.283-0.319l0.207-0.116
			l0.387-0.028l0.543-0.004l0.605,0.143l0.553,0.283l0.531,0.305l0.619,0.39l0.662,0.39l0.352,0.278l0.264,0.214l0.234,0.376
			l0.359,0.606l0.336,0.667l0.51,0.837l0.322,0.421l0.406,0.588l0.283,0.255l0.264,0.193l0.74,0.146l0.516,0.059l0.379-0.104
			l0.342-0.05l0.225,0.069l0.396,0.196l0.223,0.09l0.297-0.052l0.271-0.031l0.109,0.064l0.219,0.191l0.312,0.071l0.812,0.027
			l0.746-0.017l0.656-0.061l0.365-0.109L51.244,90.309"/>
	</g>
</g>
<g id="Layer_1">
</g>
</svg>
