<?xml version="1.0" encoding="utf-8"?>
<!-- Generator: Adobe Illustrator 16.0.4, SVG Export Plug-In . SVG Version: 6.00 Build 0)  -->
<!DOCTYPE svg PUBLIC "-//W3C//DTD SVG 1.1//EN" "http://www.w3.org/Graphics/SVG/1.1/DTD/svg11.dtd">
<svg version="1.1" id="Layer_1" xmlns="http://www.w3.org/2000/svg" xmlns:xlink="http://www.w3.org/1999/xlink" x="0px" y="0px"
	 width="301.074px" height="250.448px" viewBox="-119.05 -98.957 301.074 250.448"
	 style="enable-background:new -119.05 -98.957 301.074 250.448;" xml:space="preserve">
<g id="Layer_33">
	<path id="Dera_Bugti" style="fill:#CCCCCC;stroke:#FFFFFF;stroke-width:1.15;" d="M149.136-92.358L149.136-92.358l-3.839-1.181
		l-3.011-0.421l-1.953-0.215l-2.178-0.075l-0.787-0.01l-1.685,0.309l-1.515,0.421l-2.187,0.68l-3.532,1.283l-1.268,0.526
		l-1.13,0.881l-1.267,1.095l-2.063,1.391l-1.662,1.157l-1.409,1.032l-1.18,1.016l-1.816,1.931l-1.075,1.265l-1.808,1.489
		l-1.304,1.409l-0.888,1.107l-0.971,1.659l-0.75,2.187l-0.179,0.924l-0.127,1.462l0.055,1.41l0.096,1.617l0.604,0.979l1.446,1.274
		l1.939,0.856l1.794,0.746l2.329,0.559l2.668,0.219l1.725,0.357l1.212,0.448l0.687,0.741l0.48,1.302l-0.01,0.881l-0.411,1.814
		l-0.925,2.079l-1.593,2.391l-2.26,2.496l-1.857,1.688l-2.759,1.78l-1.569,0.881l-3.249,1.077l-3.023,1.391l-2.302,1.199L102-41.841
		l-2.517,1.15l-1.254,0.76l-1.011,0.831l-1.244,1.359l-1.305,1.793l-1.125,1.21l-1.351,1.025l-2.008,1.391l-1.624,0.881l-1.898,0.62
		l-2.293,0.567l-2.96,0.471l-1.656,0.385l-1.465,0.704l-1.568,0.963l-1.854,1.936l-1.423,1.551l-1.515,2.379l-1.35,2.052
		l-2.087,2.846l-1.643,2.052l-1.418,1.16l-2.169,1.08l-2.438,0.757l-3.417,0.895l-2.623,0.567l-2.837,0.119l-2.342-0.021
		l-4.278-0.613l-2.612-0.6l-3.724-0.666l-2.837-0.604l-3.661-0.165l-2.497,0.094l-1.762,0.291l-1.666,0.515l-1.271,0.684
		l-1.075,0.487l-0.956,1.027l-1.007,0.823l-2.452,1.354l-2.448,0.96l-2.566,0.961L12.845-5.57l-1.501,0.048L9.231-5.724L8.009-5.982
		L3.451-7.318l-5.056-1.249L-6.34-9.612l-4.832-0.858l-4.282-0.604l-4.282-0.661l-5.843-0.885l-3.67-0.538l-2.781-0.304
		l-3.793-0.105l-3.445-0.009l-2.562,0.333l-3.674,0.769l-3.803,1.157l-2.442,0.726l-3.624,0.823l-4.278,1.018l-4.282,0.97
		l-2.896,0.886l-2.256,0.837l-3.12,1.162l-0.901,0.402l-0.663,0.643l-1.198,0.736l-1.785,0.762l-2.489,0.3l-2.804,0.389
		l-3.029,0.192l-2.471-0.055l-2.979-0.22l-4.05-0.418l-2.754-0.773l-3.683-1.086l-2.833-1.266l-2.75-0.894l-1.486-0.183
		l-1.313,0.018l-0.69,0.138l-1.382,0.913l-0.983,1.247l-0.962,2.343l-0.101,2.123l0.042,1.659l0.096,0.94l0.586,1.693l1.363,1.748
		l1.661,1.544l1.848,1.949l1.986,1.95l1.519,1.663l1.506,1.631l2.9,3.487l2.329,3.388l0.878,1.418l0.802,1.152l0.951,0.881
		l0.646,0.805l0.663,1.152l0.489,0.752l0.773,1.131l0.663,1.076l0.979,2.242l0.883,2.049l0.348,1.844l0.6,2.58l0.426,1.076
		l0.617,0.787l0.485,0.521l0.312,1.564l0.251,1.393l-0.119,1.855l-0.302,1.785l-0.096,2.877l-0.005,2.518l0.063,3.08l0.262,3.033
		l0.283,1.064l1.272,3.926l0.818,3.223l0.865,3.312l0.796,2.58l0.283,2.123l0.192,2.812l0.288,3.006l0.38,2.906l0.037,2.096
		l-0.027,2.457l-0.097,2.1l-0.155,1.039l0.421,2.59l0.233,2.631l0.133,1.268l0.467,1.084l0.484,1.449l0.654,1.695l1.844,2.299
		l1.433,1.355l2.237,1.209l1.912,0.959l3.038,2.01l4.365,2.232l3.473,1.812l4.873,2.52l5.778,3.793l3.999,2.361l2.736,1.643
		l4.291,2.477l4.132,2.172l2.828,1.697l4.565,2.16l3.089,1.373l4.333,1.857l4.676,1.465l5.015,0.941l3.692,0.549l4.429,0.764
		l4.049,0.312l3.345,0.607l2.832,0.252l2.087,0.115l2.241,0.072l3.89-0.293l3.815-0.045l2.828,0.102l1.857,0.209l0.668,0.16
		l2.755,0.178l2.452,0.184l1.51,0.033l1.239,0.096l0.595,0.357l0.577,0.174l0.493-0.139l1.273-0.988l1.267-1.299l1.757-1.322
		l1.341-0.873l1.757-1.383l0.988-0.723l0.869-0.334l0.65-0.096l1.167,0.293l1.257,0.686l0.889,0.879l1.052,0.914l0.687,0.752
		l0.888,0.996l0.988,1.447l0.412,1.453l0.352,3.367l3.23-0.082l3.643-0.119l2.337-0.182l2.536-0.18l1.445-0.066l1.875-0.084
		l1.973-0.092h0.366l2.698,0.01h2.952l1.98-0.102l1.556-0.1l2.11-0.111l3.765,0.057l4.196-0.031l5.609,0.008l3.711,0.096
		l-2.056-4.049l-1.038-3.391l-0.654-1.881l-0.837-1.486l-0.385-2.123l-1.088-2.113l-1.017-1.967l-1.272-2.055l0.119-1.182
		l0.513-1.039l1.583-0.68l2.205-1.104l2.649-1.363l2.855-0.824l2.759-1.465l2.237-0.717l2.604-0.736l1.853-1.441l1.67-2.699
		l1.927-3.332l2.278-3.34l2.21-3.6l1.312-1.836l2.947-5.508l0.521-0.838l1.68-2.301l1.588-2.064l1.939-2.938l2.031-2.941
		l1.674-2.783l0.495-2.217l0.443-1.74l-0.014-1.496l-0.484-1.268l-0.642-1.486l-1.28-2.045l-0.709-0.934l-0.724-0.48l-1.172-0.691
		l-1.531-0.297l-1.528-0.232l-1.071-0.146l-0.828-0.293l-0.348-0.545l-0.293-0.787l-0.005-0.637l-0.013-0.941l0.883-1.428
		l0.077-1.117l0.155-2.438l-0.009-0.883l0.165-0.943l0.627-0.951l1.418-1.271l1.432-0.961l1.337-0.643l1.697-0.887l1.341-0.795
		l1.162-0.719l1.157-0.961l0.792-1.346l0.687-1.336l0.521-1.35l0.622-0.488l0.724-0.166l1.258-0.01l1.707-0.26l1.331-1.189
		l1.007-2.051l0.435-1.5l0.444-1.502l0.621-1.582l0.879-1.189l1.268-1.199l0.772-0.984l0.889-1.715l0.801-0.951l1.157-1.199
		l0.896-0.713l1.153-1.438l0.979-1.438l0.682-1.189l0.805-1.049l0.705-0.881l1.075-0.641l1.692-0.718l1.972-0.654l2.063-0.487
		l1.528-0.808l1.68-0.711l0.823-0.652l0.334-0.702l0.348-1.101l0.197-1.574l0.343-1.658l0.802-1.192l1.422-1.844l1.153-2.132
		l0.888-1.496l0.979-1.441l1.065-1.738l0.979-1.505l0.348-1.268l0.082-1.036l-0.343-0.634l-0.48-0.546l-0.366-0.787l-0.544-1.426
		l-0.193-1.583l0.262-2.615l0.068-2.294l0.618-1.585l0.888-1.503l1.752-3.157l1.249-1.739l0.352-1.345l-0.095-1.739l-0.371-0.876
		l-0.54-0.148l-1.089-0.146l-1.167,0.254l-1.258,0.556l-1.799,0.956l-1.523,1.354l-1.519,1.27l-1.615,1.206l-1.523,1.039
		l-0.714,0.713l-0.448,0.398l-0.714,0.313l-0.883,0.089l-0.724-0.236l-0.457-0.483l-0.366-0.787l-0.014-1.181l0.073-1.887
		l-0.096-1.977l-1.016-1.187l-1.09-1.574l-0.814-0.384l-1.002-0.304l-1.711,0.021l-1.816,0.014l-0.714-0.473l-0.097-0.639
		l-0.187-0.952l0.631-1.189l0.7-0.881l1.075-1.091l1.789-1.453l1.162-1.27l0.522-1.189l-0.294-1.345l-1.532-3.205l-0.765-0.979
		l-0.64-1.016l-2.215-2.597l-2.645-2.441l-1.547-1.082l-0.883-0.533l-1.011-0.146h-0.823l-0.988,0.567l-0.984,0.952l-1.253,0.952
		l-0.984,0.806l-1.464,0.555l-0.993,0.101l-0.884-0.385l-0.484-0.638l-0.467-1.095l-0.022-1.895l0.068-2.214l0.082-2.928l0.074-1.5
		l0.434-1.659l0.732-1.625l0.952-1.636l1.07-1.055l1.271-1.338l1.07-1.505l0.527-1.354l0.682-3.935l-0.047-4.024l-0.022-2.441
		l0.238-2.919l0.879-3.397l-0.646-2.324l-1.465-1.958l-0.219-1.43l1.006-1.803l1.222-0.357l1.657-0.371l1.432-0.185l1.405-3.036
		L149.136-92.358"/>
</g>
<g id="Layer_1_1_">
</g>
</svg>
