<?xml version="1.0" encoding="iso-8859-1"?>
<!-- Generator: Adobe Illustrator 16.0.4, SVG Export Plug-In . SVG Version: 6.00 Build 0)  -->
<!DOCTYPE svg PUBLIC "-//W3C//DTD SVG 1.1//EN" "http://www.w3.org/Graphics/SVG/1.1/DTD/svg11.dtd">
<svg version="1.1" xmlns="http://www.w3.org/2000/svg" xmlns:xlink="http://www.w3.org/1999/xlink" x="0px" y="0px"
	 width="62.986px" height="52.521px" viewBox="0 0 62.986 52.521" style="enable-background:new 0 0 62.986 52.521;"
	 xml:space="preserve">
<g id="Layer_158">
	<g id="Layer_163">
		<path id="Dera_Bugti" style="fill:#CCCCCC;stroke:#FFFFFF;stroke-width:1.07;" d="
			M56.617,0.942L56.617,0.942L55.799,0.69L55.155,0.6l-0.417-0.046l-0.465-0.016l-0.168-0.002l-0.359,0.069l-0.323,0.09
			l-0.467,0.142l-0.754,0.277l-0.274,0.112l-0.241,0.185L51.42,1.648l-0.444,0.297l-0.351,0.247l-0.301,0.217l-0.252,0.217
			l-0.388,0.412l-0.229,0.27l-0.386,0.318l-0.278,0.301l-0.192,0.236l-0.207,0.354l-0.16,0.467l-0.038,0.197l-0.027,0.312
			l0.009,0.301l0.021,0.345l0.129,0.209l0.307,0.272l0.415,0.183l0.38,0.159l0.498,0.119l0.572,0.047l0.368,0.076L51.125,7.3
			l0.143,0.158l0.103,0.281l-0.002,0.188L51.28,8.312l-0.196,0.444l-0.34,0.509L50.258,9.8l-0.396,0.361l-0.589,0.379l-0.335,0.187
			l-0.693,0.231L47.6,11.255l-0.491,0.257l-0.562,0.213l-0.538,0.246l-0.264,0.163l-0.216,0.176l-0.266,0.29l-0.278,0.383
			l-0.24,0.258l-0.288,0.218l-0.429,0.297l-0.347,0.186l-0.405,0.132l-0.489,0.121l-0.632,0.099l-0.357,0.082l-0.311,0.152
			l-0.335,0.206l-0.396,0.413l-0.301,0.331l-0.326,0.508l-0.289,0.437l-0.445,0.609l-0.35,0.436l-0.3,0.248l-0.463,0.232
			l-0.524,0.162l-0.727,0.193l-0.56,0.121l-0.605,0.026l-0.5-0.004l-0.913-0.131l-0.558-0.128L33.1,18.046l-0.605-0.129
			l-0.783-0.035L31.176,17.9L30.8,17.962l-0.355,0.112l-0.274,0.144l-0.227,0.104l-0.204,0.218l-0.215,0.176L29,19.005l-0.523,0.205
			l-0.548,0.205l-0.416,0.051l-0.32,0.009l-0.451-0.043l-0.261-0.054l-0.973-0.285l-1.079-0.266l-1.01-0.223l-1.032-0.182
			l-0.914-0.129l-0.914-0.139l-1.247-0.191l-0.783-0.116l-0.594-0.065l-0.809-0.023l-0.736-0.002l-0.547,0.072l-0.784,0.164
			l-0.811,0.247l-0.521,0.155l-0.773,0.176l-0.915,0.217l-0.915,0.207l-0.618,0.187l-0.481,0.179l-0.666,0.249l-0.195,0.086
			l-0.139,0.136l-0.256,0.158l-0.381,0.163l-0.531,0.065L7.257,20.3L6.61,20.341l-0.53-0.01l-0.633-0.047L4.58,20.195L3.994,20.03
			l-0.787-0.234l-0.604-0.268l-0.587-0.193l-0.317-0.039L1.417,19.3l-0.148,0.031l-0.295,0.195l-0.21,0.266l-0.205,0.5l-0.023,0.453
			l0.008,0.351l0.021,0.202l0.125,0.363l0.291,0.373l0.354,0.33l0.394,0.416l0.424,0.416l0.324,0.357l0.322,0.346l0.62,0.746
			l0.497,0.721l0.189,0.303l0.171,0.246l0.203,0.187l0.137,0.172l0.139,0.246l0.108,0.16l0.165,0.243l0.139,0.23l0.209,0.479
			l0.191,0.435l0.074,0.394l0.128,0.551l0.091,0.227l0.131,0.168l0.104,0.113l0.068,0.333l0.052,0.297L6.19,30.544l-0.067,0.381
			L6.105,31.54l-0.001,0.537l0.013,0.658l0.053,0.648L6.23,33.61l0.27,0.837l0.175,0.688l0.185,0.707l0.169,0.551l0.058,0.454
			l0.041,0.597l0.062,0.641l0.081,0.621l0.007,0.447l-0.002,0.528L7.251,40.13l-0.033,0.22l0.09,0.552l0.049,0.561l0.029,0.272
			l0.099,0.233l0.101,0.307l0.14,0.364l0.391,0.491l0.305,0.289l0.476,0.258l0.41,0.205l0.649,0.428l0.931,0.475l0.741,0.385
			l1.04,0.539l1.235,0.808l0.854,0.504l0.584,0.349l0.916,0.53l0.882,0.463l0.601,0.363l0.974,0.461l0.659,0.293l0.925,0.396
			l0.998,0.311l1.071,0.201l0.788,0.117l0.947,0.164l0.865,0.069l0.714,0.13l0.604,0.051l0.447,0.027l0.479,0.014l0.831-0.062
			l0.816-0.01l0.603,0.023l0.396,0.045l0.141,0.035l0.587,0.038l0.525,0.04l0.324,0.006l0.263,0.021l0.126,0.077l0.124,0.037
			l0.107-0.029l0.27-0.211l0.27-0.279l0.375-0.283l0.286-0.184l0.375-0.296l0.211-0.155l0.184-0.072l0.138-0.018l0.249,0.061
			l0.268,0.144l0.19,0.187l0.224,0.197l0.145,0.159l0.192,0.213l0.211,0.308l0.087,0.311l0.076,0.716l0.69-0.015l0.779-0.027
			l0.499-0.04l0.541-0.038l0.307-0.012l0.402-0.018l0.42-0.019l0.079,0.001l0.577,0.001l0.63,0.001l0.421-0.023l0.332-0.021
			l0.452-0.026l0.802,0.01l0.894-0.006l1.198,0.002l0.792,0.021L45.182,50.9l-0.221-0.722l-0.139-0.403l-0.177-0.319l-0.082-0.453
			l-0.235-0.452l-0.216-0.42l-0.259-0.433l0.025-0.252l0.113-0.221l0.337-0.145l0.468-0.236l0.569-0.291l0.609-0.176l0.589-0.31
			l0.477-0.155l0.553-0.158l0.396-0.307l0.356-0.576l0.411-0.711l0.489-0.713l0.469-0.765l0.283-0.39l0.628-1.176l0.113-0.178
			l0.358-0.492l0.339-0.441l0.414-0.627l0.434-0.627l0.357-0.594l0.108-0.473l0.092-0.372l-0.003-0.319l-0.1-0.27l-0.137-0.318
			l-0.273-0.436l-0.155-0.2l-0.154-0.101l-0.25-0.148l-0.327-0.064l-0.326-0.049l-0.229-0.031l-0.175-0.065l-0.076-0.117
			l-0.061-0.168l-0.001-0.135l-0.003-0.202l0.188-0.305l0.017-0.237l0.033-0.522l-0.003-0.186l0.035-0.202l0.134-0.204l0.303-0.271
			l0.305-0.205l0.286-0.137l0.362-0.189l0.286-0.17l0.248-0.154l0.247-0.205l0.169-0.287l0.15-0.287l0.111-0.289l0.133-0.103
			l0.154-0.034l0.269-0.002l0.364-0.055l0.284-0.254l0.215-0.438l0.093-0.322l0.092-0.32l0.132-0.338l0.188-0.254l0.267-0.256
			l0.165-0.209l0.193-0.367l0.171-0.203l0.247-0.256l0.191-0.152l0.246-0.307l0.209-0.305l0.149-0.254l0.171-0.222l0.151-0.187
			l0.229-0.138l0.364-0.153l0.421-0.139l0.44-0.104l0.326-0.172l0.362-0.153l0.173-0.138l0.074-0.151l0.074-0.235l0.042-0.337
			l0.073-0.354l0.171-0.255l0.304-0.391l0.246-0.457l0.189-0.32l0.209-0.306l0.228-0.372l0.209-0.322l0.074-0.271l0.018-0.22
			l-0.077-0.135l-0.099-0.117l-0.078-0.168l-0.118-0.303l-0.041-0.338l0.054-0.557l0.015-0.49l0.132-0.338l0.189-0.322l0.374-0.673
			l0.267-0.372l0.075-0.287l-0.021-0.371l-0.079-0.186l-0.115-0.033l-0.232-0.031l-0.249,0.052l-0.269,0.12l-0.384,0.205
			l-0.325,0.289l-0.324,0.271l-0.345,0.256l-0.325,0.221l-0.152,0.153l-0.096,0.085l-0.153,0.068l-0.191,0.018l-0.154-0.049
			l-0.098-0.102l-0.078-0.168l-0.003-0.252l0.016-0.405l-0.021-0.421l-0.216-0.252l-0.233-0.336l-0.174-0.082l-0.214-0.066
			l-0.365,0.003l-0.387,0.003l-0.153-0.1l-0.021-0.135l-0.04-0.203l0.132-0.254l0.153-0.188l0.229-0.236l0.382-0.308l0.248-0.271
			L58.3,13.96l-0.061-0.287l-0.327-0.683l-0.163-0.208l-0.137-0.218l-0.473-0.552l-0.564-0.52l-0.33-0.232l-0.192-0.116
			l-0.214-0.031l-0.174,0.001l-0.211,0.12l-0.21,0.203l-0.268,0.205l-0.21,0.17l-0.309,0.121l-0.212,0.019l-0.192-0.082l-0.1-0.136
			l-0.091-0.239l-0.005-0.404l0.015-0.473l0.014-0.625l0.016-0.32l0.093-0.354l0.156-0.347l0.203-0.348l0.229-0.223l0.269-0.287
			l0.229-0.322l0.112-0.289l0.146-0.84l-0.009-0.86L55.324,5.28l0.051-0.623l0.184-0.724l-0.137-0.494l-0.311-0.418l-0.047-0.305
			l0.215-0.384l0.261-0.077l0.35-0.079l0.306-0.04l0.3-0.649L56.617,0.942"/>
	</g>
</g>
<g id="Layer_1">
</g>
</svg>
