<?xml version="1.0" encoding="utf-8"?>
<!-- Generator: Adobe Illustrator 16.0.4, SVG Export Plug-In . SVG Version: 6.00 Build 0)  -->
<!DOCTYPE svg PUBLIC "-//W3C//DTD SVG 1.1//EN" "http://www.w3.org/Graphics/SVG/1.1/DTD/svg11.dtd">
<svg version="1.1" id="Layer_1" xmlns="http://www.w3.org/2000/svg" xmlns:xlink="http://www.w3.org/1999/xlink" x="0px" y="0px"
	 width="301.087px" height="366.354px" viewBox="-141.46 -172.273 301.087 366.354"
	 style="enable-background:new -141.46 -172.273 301.087 366.354;" xml:space="preserve">
<g id="Layer_104">
	<path id="Peshawar" style="fill:#CCCCCC;stroke:#FFFFFF;stroke-width:1.15;" d="M-108.29-105.437L-108.29-105.437l-0.067,0.05
		l-1.631,1.531l-1.766,1.599l-2.265,1.615l-2.448,2.016l-1.815,2.015l-1.715,1.731l-1.432,1.449l-0.999,1.016l-0.566,0.533
		l-1.132,0.85l-0.899,0.633l-2.082,1.432l-1.332,1.799l-0.1,2.23l0.75,4.946l0.849,2.964l-0.217,2.415l-0.333,0.666l-1.332,1.448
		l-1.183,0.716l-0.866,0.55l-1.715,1.249l-2.431,1.666l-0.549,0.565l-0.35,0.716l0.266,2.814l0.616,1.948l0.033,2.332l-0.366,1.049
		l4.08,4.113l1.798,1.282l1.765,1.581l0.3,2.299l-0.034,0.716l-0.1,2.049l-0.167,1.332l0.167,1.665l0.083,1.082l0.45,1.865
		l0.533,1.516l2.115,2.23l0.833,0.883l1.049,1.732l0.333,1.182l0.3,0.883l-0.366,3.081l-0.5,1.698l-1.066,2.947l-1.049,3.164
		l-0.666,1.565l-0.383,1.249l-0.633,1.932l-0.399,1.516l-0.333,1.499l-0.267,1.448l-0.183,1.748l-0.167,1.133l-0.017,0.25
		l-0.2,1.515l-0.367,2.682l3.747-0.516l0.35-0.051l1.166,0.15l1.049,0.549l0.866,0.018l0.866-0.184l1.532-0.167l3.181,0.316
		l1.266,0.633l1.049,0.267l1.666,0.482l1.182,0.417l0.533,0.815l0.599,1.249l0.699,1.466l0.466,0.85l0.933,0.766l1.366,3.297
		l0.416,1.782l0.35,1.549l0.932,1.814l-0.349,2.698l-1.183,3.381l-0.35,1.349l-0.317,2.797l0.367,1.799l2.215,1.915l1.066,0.566
		l1.132,0.815l2.464,1.966l1.149,0.766l0.999,0.732l1.066,0.717l0.533,3.663l1.699,1.615l2.215,1.698l4.629,4.612l0.3,1.066
		l0.316,1.032l0.15,0.617l0.982,2.081l1.299,2.248l1.182,2.348l1.049,1.998l1.065,1.865l0.633,1.549l0.649,1.765l0.267,0.8
		l-0.766,1.016l-0.367,0.467l-0.183,0.865l-0.017,0.033l-0.2,1.065l-3.264,1.532L-84.827,64l-1.516,1.332l-1.782,1.781l-0.766,4.612
		l-0.367,2.849l-0.433,3.381l-0.716,2.397l-0.316,3.064v0.532l0.982,1.698l2.248,2.964l1.965,1.732l1.449,1.465l1.648,1.716
		l2.232,1.882l3.53,2.165l2.148,1.065l4.729,2.464l0.849,0.6l6.761,3.48l0.35,1.116l0.183,3.047l1.049,1.999l0.35,0.25l0.566,0.382
		l1.083,0.8l0.533,0.267l0.899-0.199h0.417l0.5,0.382l0.533,0.883l0.267,0.816l0.45,0.217l1.965,0.449l2.831,0.815l2.198,0.899
		l2.797,1.648l1.366,0.767l1.299,1.082l1.965,1.632l0.882,0.732l0.716,0.634l0.883,0.966l0.533,0.732l0.783,0.299l2.748,1.6
		l3.031,2.247l0.616,0.8l0.167,1.033l-0.417,2.48l-0.616,1.865l-0.616,2.248l-0.416,1.432l-0.466,1.898l-0.899,3.147l-1.166,2.781
		l-1.499,2.431l-0.716,0.667l-0.25,0.649l0.133,1.083l0.4,3.779l-1.215,0.066l-1.066,0.916l-0.949,2.131l-1.099,2.049l-0.3,1.016
		l-0.167,0.816l-0.166,0.35l-0.067,2.064l0.466,3.047l-0.183,0.883l-0.083,0.699l0.066,0.8l0.316,0.7l1.782,1.165l0.983,1.116
		l0.833,1.465l1.082,1.433l0.633,0.665l0.399,0.517l0.766,0.583l0.816,0.7l2.498,1.448l2.365,0.915l1.932,0.649l2.131,0.917
		l5.929,2.414l1.831,0.616l0.134,0.033l3.214,1.333l7.293-1.066l2.065-0.3l1.765,0.216l2.448,0.301l2.265-0.7l2.348-0.366
		l2.614,0.05l2.182,0.316l8.11-0.6l3.264-0.232l1.266-0.267l1.365-0.366l1.748-0.184l1.966-0.116l7.077-2.531l1.032-0.466
		l5.645-2.915l3.613-2.114l4.83-2.948l4.113-2.015l5.628-2.864l4.479-2.78l4.629-2.465l1.916-0.949l3.48-1.432l7.976-3.714
		l2.532-1.999l1.049-0.832l1.781-1.149l1.915-1.115l1.731-0.866l1.499-0.815l4.862-2.481l1.849-1.049l1.966-0.866l2.413-1.998
		l1.565-0.15l2.682-0.083l1.299,0.233l1.065,0.05l0.5-1.016l-0.4-1.782l-1.048-4.479l0.05-1.881l1.031-1.898l1.532-2.266
		l0.966-1.382l1.183-1.815l1.981-1.582l4.514-5.012l0.1-0.933l2.081-2.531l2.481-2.331l1.965-5.945l0.267-0.699l0.4-1.032
		l3.763-2.864l1.1-1.449l0.299-0.683l0.218-1.099l0.115-0.982l1.232-1.049l1.399,0.516l0.116,0.033l1.066,0.417l1.981-0.25
		l1.582-1.282l1.565-1.416l1.515-2.414l0.366-0.517l1.916-1.649l2.031-1.432l3.047-0.066l1.032,0.433l1.865-1.265v-1.898
		l-1.132-1.083l1.065-0.6l-1.1-3.396l-2.88-2.349l-1.133-1.781l-1.049-2.448l-0.55-1.582l0.017-0.133l1.065-3.414l0.2-1.798
		l-0.133-1.199l0.349-1.1l-0.05-1.231l-0.083-0.816l0.633-4.014l0.367-1.798l0.349-2.132l0.483-1.332l0.3-2.648l0.15-1.73
		l0.016-0.517l0.2-2.298l-0.283-2.016l0,0l-0.133-1.515l-1.766-4.063l-0.149-1.199l-0.183-1.731l-0.268-2.098l1.05-3.197
		l0.749-2.382l0.5-1.383l1.148-3.33l0.184-2.797v-1.699l0.948-2.23l0.351-1.666l0.35-0.566l0.966-1.532v-3.347l0.266-3.664
		l-0.698-2.064l0.133-1.166l-1.05,0.167L151.253,5.9l-3.914,1.932l-1.115,0.25l-2.797,0.316l-2.748-0.1l-4.014,0.799l-0.749,0.35
		l-0.7,0.883l-1.198,1.615l-1.066,0.384l-2.064-0.434l-1.364,0.533l-3.814,1.115l-3.913,0.333l-4.28,0.85l-2.797,0.366l-0.3-0.083
		l-2.147-0.717l-0.7-0.532l-3.58-1.582l-3.214-0.949l-0.749-0.649l0.232-0.55l-0.35-0.399l0.034-1.016l-1.399-1.366l-0.499-0.649
		l-1.066-1.948l-0.066-0.183l0.366-1.732l1.148-0.732l0.867-1.582l0.366-0.283l1.997-0.483l1.766,0.134h0.883l0.999,0.184
		l1.016-0.15h0.283l0.199-0.066l0.083-0.017v-0.017l0.9-0.35l0.232-2.798l0.018-0.267l1.631-1.432l-0.166-0.533l-0.366-0.6
		l-1.399-0.832l-0.516-0.566l-0.3-0.733l-0.684-0.383l-3.196-0.35l-1.065-0.6l-0.483-0.482l-1.332-0.116l-1.183-0.25l0.982-0.899
		l1.698-1.832l1.499-1.865l1.116-2.098l0.982-1.365l1.516-0.883l1.964-0.117l1.683-0.066l-0.134-0.749l-0.516-0.866l-0.467-0.683
		l-1.198-0.699l-2.349-0.2l-0.632,0.05l-0.501,0.018l-0.416-0.25l-0.266-0.383l-0.283-0.517l-0.184-0.566l-0.166-0.916l-2.165-2.015
		l-1.05-0.399l-0.249-1.232l-0.233-1.216l-0.749-1.349l-0.732-0.85l-1.516-1.398l-0.733-1.615l-0.516-1.282l-1.516-0.616
		l-0.966-0.017l0.649-0.949l0.782-0.75l1.782-1.531l2.165-1.017l1.599-0.698l0.549-0.283l1.016-0.934l-0.316-0.865l-0.449-0.583
		l-0.766-0.749l-0.967-0.767l-0.965-0.699l-0.783-0.633l-0.532-1.266l-0.316-2.231L99.298-52.7l-1.732-1.315l-1.199-1.482
		l-0.05-2.248l-0.033-1.849l0.101-0.915l0.216-1.549l0.583-2.082l0.683-2.497l1.049-2.981l1.166-0.898l2.432-0.634l2.464-0.449
		l2.715,0.017l1.965,0.533l1.782-0.15l1.049-0.482l0.566-0.35l-0.351-0.449l-0.982-0.899l-1.382-0.899l-1.232-0.866l-1.065-0.849
		l-0.85-0.75l-2.847-0.949l-7.993-1.332l-6.729-3.996h-3.896l-1.915-0.949l-0.183-0.367l-1.998-3.996l-0.367-0.966l-0.998-0.566
		l-1.033-0.017l-1.065-0.05L76.75-90.65l-0.982-0.6l-0.583-0.583l-0.799-0.783l-0.666-0.632l-1.083-0.767l-0.782-0.566l-1.066-0.683
		l-1.165-0.699l-0.599-0.849l-0.15-0.566l-0.067-0.25l-0.183-0.999l-0.199-0.933l-0.117-0.966l-0.732-0.417l-1.116-0.998
		l-0.85-0.983l-0.716-1.049l-0.366-0.732l-0.666-0.783l-0.999-0.915l-1.349-1.083l-0.616-0.083l-1.1-0.05l-1.481,0.216l-1.267,0.3
		l-1.332,0.5l-1.598,0.549l-1.449,0.5l-0.949,0.149l-2.515-0.799l-0.2-0.133l-1.016-0.616l-0.966-0.699l-1.065-0.949l-1.216-0.583
		l-1.516-0.55l-1.432-0.649l-1.166-0.699l-0.815-0.55l-0.866-0.366l-1.599-0.383l-1.065-0.167l-1.066-0.449l-1.215-0.35
		l-1.766,0.083l-1.698,0.116l-1.05-0.083l-0.815-0.283l-1.032-0.933l-0.649-1.049l-0.316-1.481l-0.616-0.833l-0.699-0.916
		l-0.8-0.699l-0.3-0.217l-0.883-0.683l-0.782-0.683l-0.766-0.699l-1.332-1.183l-1.083-0.633l-0.865-0.482l-0.85-0.283l-2.564-3.214
		l-1.749-2.198l-5.345-3.997l-0.5-0.366l-0.367,0.466l0.35,0.816l0.15,0.933l-0.616,0.633l-0.799,0.5l-0.833,0.249L3.846-130.2
		l-1.115,0.15l-1.316,0.1l-1.382,0.1l-2.098,0.2l-2.481,0.149l-2.581-0.316L-8.726-130l-2.048-0.233l-1.765-0.35h-1.532
		l-1.798-0.533l-2.214-0.6l-1.549-0.699l-1.199-0.683l-1.416-0.583l-1.499-0.416l-1.316-0.366l-0.949-0.116l-1.266-0.268
		l-1.066-0.166l-1.349,0.033h-1.565l-0.666,0.184l-0.383,0.133l-1.299,0.633l-1.333,0.283l-1.332-0.017l-1.366-0.149l-1.032,0.083
		l-1.066,0.083l-1.016,0.083l-1.582-0.149l-0.45-0.683l-0.299-1.449l-0.333-0.449l-0.4-0.649l-1.265-0.85l-0.6-2.081l-1.066-2.049
		l-2.015-1.165l-1.515-0.8l-1.033-1.016l-0.849-1.715l-0.7-1.449l-0.6-1.615l0.117-1.849l1.132-1.332l0.466-1.781l0.316-1.549
		l0.316-1.433l0.133-1.432l0.366-1.632l0.05-1.749l0.316-0.749l-0.1-0.083l-0.333-0.467l-0.716-0.699l-0.466-0.3l-0.766-0.566
		l-0.699-0.232l-1.049,0.166l-1.216,1.466l-3.114,0.933l-1.766,0.166l-2.514,0.783l-2.132,0.949l-0.466,0.699l1.149,1.032
		l1.099,0.982l-0.65,1.216l-0.632,1.415l-1.083,2.331l-1.033,1.183l-2.131,1.166l-2.598,1.032l-1.765,1.199l-2.082,1.615
		l-1.765,1.132l-1.299,0.899l-3.68,0.982l-2.665,0.883l-1.798,0.783l-2.231,1.065l-1.515,1.032l-0.35,2.031l0.283,0.866l0.3,0.716
		l-0.783,1.266l-0.699,0.767l-1.516,1.049l-0.732,0.499l-1.665,1.3l-1.399,1.231l0.084,0.866l-0.683,1.116l-2.065,1.615
		l-1.648,0.799l-1.599,1.482l-1.599,0.799l-0.833,0.383l-0.566,0.566l-0.15,1.698l1.149,1.383l0.066,1.665l-0.399,1.732
		l-0.666,0.599l0.049,3.214l1.066,2.165l-1.115,2.581l-1.782,1.698L-108.29-105.437"/>
</g>
<g id="Layer_1_1_">
</g>
</svg>
