<?xml version="1.0" encoding="utf-8"?>
<!-- Generator: Adobe Illustrator 16.0.4, SVG Export Plug-In . SVG Version: 6.00 Build 0)  -->
<!DOCTYPE svg PUBLIC "-//W3C//DTD SVG 1.1//EN" "http://www.w3.org/Graphics/SVG/1.1/DTD/svg11.dtd">
<svg version="1.1" id="Layer_1" xmlns="http://www.w3.org/2000/svg" xmlns:xlink="http://www.w3.org/1999/xlink" x="0px" y="0px"
	 width="301.352px" height="250.855px" viewBox="-131.645 -109.61 301.352 250.855"
	 style="enable-background:new -131.645 -109.61 301.352 250.855;" xml:space="preserve">
<g id="Layer_41">
	<path id="Gujranwala" style="fill:#CCCCCC;stroke:#FFFFFF;stroke-width:1.15;" d="M48.809-104.032L48.809-104.032l-0.122-0.717
		l-0.201-0.162h-0.309l-1.149,0.231l-4.475,1.442l-1.003,0.401l-0.302,0.309l-0.346,0.432l-0.093,0.479l0.069,0.679l0.069,0.856
		l-0.093,0.432l-0.185,0.208l-0.532,0.007l-0.718-0.031l-0.595-0.069l-0.316-0.339l-0.523-0.764l-0.78-0.934l-0.408-0.254
		l-0.803-0.07l-0.486,0.139l-0.17,0.262l-0.046,0.124l0.208,0.254l0.302,0.17l0.008,0.162l-0.132,0.262l-0.263,0.563l-0.238,0.386
		l0.008,0.301l0.061,0.432l0.062,0.478l0.016,0.548l-0.093,0.478l-0.2,0.208l-0.486,0.347l-0.849,0.655l-0.948,0.579l-1.104,0.656
		l-1.097,0.578l-0.501,0.394l-0.702,0.355l-0.447,0.177l-0.663,0.139h-0.549L27.278-93.1l-0.548,0.255l-0.926,0.679l-1.095,0.88
		l-0.44,0.478L23.969-90.5h-0.301l-0.17-0.124l-0.162-0.301l-0.139-0.255l-0.162-0.123l-0.2-0.039h-0.224l-0.363,0.131l-0.347,0.347
		l-0.749,1.211l-2.792,3.603l-0.54,0.694l-0.301,0.224l-0.393,0.262l-0.479,0.262l-0.524,0.185l-0.856,0.177l-0.517,0.224
		l-0.509,0.146l-0.957,0.016l-0.517,0.139l-0.833,0.231l-0.964,0.139l-0.525,0.008l-0.825,0.092l-0.448,0.224l-0.547,0.316
		l-0.833,0.656l-0.703,0.316l-0.524,0.093l-0.864,0.108l-0.393,0.255l-0.301,0.347l-0.239,0.525l0.069,0.424l0.116,0.671
		l0.324,0.849l0.371,0.848l-0.039,0.556l-0.239,0.525l-0.455,0.309l-0.494,0.216l-0.656,0.008L3-76.166l-0.671-0.332l-0.363-0.547
		L1.51-77.887l-0.286-1.157l-0.494-1.365L0.415-81.05l-0.455-0.162l-0.433-0.039l-0.416,0.007l-0.448,0.301l-0.825,0.571
		L-3.55-79.19l-1.188,0.787l-1.404,0.841l-1.35,0.625l-0.949,0.656l-0.686,0.602l-0.741,0.833l-0.802,1.126l-0.703,0.864
		l-0.733,1.042l-0.802,1.134l-0.671,0.995l-0.525,0.656l-0.679,0.563l-0.895,0.656l-0.856,0.694l-0.424,0.524l-0.486,0.779
		l-0.293,0.517l-0.517,0.864l-0.617,0.957l-0.471,0.517l-0.817,0.617l-0.895,0.617l-1.597,0.709l-2.461,0.811l-1.604,0.586
		l-2.207,0.941l-0.949,0.316l-1.458,0.37l-1.003,0.316l-0.825,0.054l-1.119,0.016l-1.312-0.016l-0.733-0.239l-0.378-0.331
		l-0.363-0.124l-0.517,0.008l-1.797,0.463l-1.351,0.494l-0.802,0.355l-2.045,0.872l-1.157,0.362l-2.137,0.856l-1.188,0.71
		l-0.902,0.44l-0.456,0.008l-0.355-0.208l-0.208-0.208l-0.2-0.039l-0.263,0.007l-0.439,0.131l-1.042,0.447l-1.705,0.548
		l-1.304,0.494l-0.903,0.316l-0.355-0.085l-0.239-0.201l-0.201-0.386l-0.054-0.394l-0.208-0.124l-0.455-0.031l-0.664,0.008
		l-0.648,0.178l-0.293,0.262l-0.201,0.263l-0.286,0.655l-0.277,0.309l-0.347,0.224l-0.37,0.131l-0.525,0.046l-0.663-0.247
		l-0.964-0.455l-1.173-0.317l-0.718-0.116l-0.71-0.031l-0.393,0.093l-0.301,0.17l-0.192,0.308l-0.17,0.216l-0.362,0.092
		l-0.602-0.108h-0.417l-0.494,0.008l-0.47,0.131l-0.231,0.262l-0.17,0.262l0.17,0.216l0.031,0.262l-0.154,0.263l-0.363,0.101
		l-0.532-0.124l-0.918-0.154l-0.918-0.069l-0.887,0.147l-1.18,0.586l-1.196,0.702l-0.826,0.702l-1.628,1.188l-1.119,0.748
		l-0.486,0.27l-0.479,0.17l-0.525,0.146l-0.864,0.139l-0.525,0.054l-0.547,0.231l-0.694,0.44l-0.687,0.371l-0.471,0.401
		l-0.339,0.347l-0.347,0.17l-0.401,0.008l-0.317-0.378l-0.362-0.254l-0.771-0.108l-0.964-0.023l-1.612-0.439l-0.424-0.131
		l-0.355,0.092l-0.177,0.178l-0.17,0.262l0.316,0.339l0.209,0.378l0.007,0.309l-0.185,0.216l-0.355,0.169l-0.486,0.093l-0.409,0.27
		l-0.339,0.44l-0.339,0.687l-0.224,0.602l-0.239,0.393l-0.54,0.44l-1.165,0.663l-0.486,0.309h-0.363l-0.2-0.208l-0.023-0.895
		l-0.008-2.145l-0.169-0.764l-0.409-0.031l-0.548,0.139l-0.301,0.085l-0.146,0.262l0.016,0.301l0.169,0.471l0.016,0.301
		l-0.108,0.394l-0.169,0.594l0.008,0.394l0.131,0.424l0.124,0.216l0.062,0.339l-0.254,0.254l-0.154,0.525l-0.039,1.026l-0.362,1.635
		l-0.147,0.648l-0.347,0.263l-1.01,0.146l-1.435,0.031l-0.849-0.286l-0.479-0.455l-0.201-0.463l-0.494-0.169l-0.262-0.378
		l-0.363-0.463l-0.362-0.332l-0.263-0.386l-0.57-0.925l-0.24-1.536l-0.501-0.98l-0.247-0.339l-0.532-0.023l-0.771-0.023l-1.064,0.1
		l-0.702,0.231l-0.239,0.208l-0.239,0.394l-0.339,0.517l-0.44,0.524l-0.494,0.996l-0.448,0.517l-0.347,0.185l-0.471,0.046
		l-0.417-0.069l-0.417-0.208l-0.471-0.502l-0.316-0.432l-0.309-0.2l-0.555-0.124l-1.003,0.193l-1.604,0.633l-0.803,0.316l-0.293,0.3
		l-0.162,0.348l-0.17,0.686l-0.077,0.433l-0.154,0.339l-0.239,0.262l-0.555,0.093l-1.258,0.116l-1.612,0.031l-2.029-0.093
		l-1.119-0.069l-0.247,0.069l-0.825,0.139l-0.486,0.27l0.007,0.301l0.124,0.64l0.162,0.633l0.494,1.882l0.479,1.574l0.439,1.319
		l0.293,1.45l0.278,0.941l0.393,3.202l0.17,1.836l-0.007,1.327l0.254,0.926l0.394,0.81l0.548,0.632l1.042,1.011l1.242,1.389
		l1.158,0.965l0.617,0.455l0.332,0.895l0.139,0.988l0.301,2.098l0.208,0.339l0.54,0.278l0.17,0.386l-0.023,1.072l-0.131,1.242
		l0.239,1.289l0.625,0.964l1.365,1.782l1.705,1.551l1.558,1.682l1.419,1.643l1.149,1.003l0.424,0.54l0.208,0.509l-0.216,0.864
		l-0.818,1.982l-0.37,0.733l-0.186,0.471l-0.139,0.733l0.162,0.471l0.918,0.671l1.743,0.694l1.813,0.687l1.273,0.702l0.964,0.926
		l1.242,1.266l1.057,1.396l0.162,0.594l0.016,0.301l-0.355,0.395l-0.439,0.309l-0.2,0.177l-0.155,0.432l0.146,0.502l0.208,0.556
		l0.231,0.255l0.664-0.017l0.548-0.054l0.918,0.231l0.895,0.201l1.126-0.016l0.71,0.069l0.471,0.331l0.486,0.595l0.872,1.559
		l0.555,1.28l0.247,1.705l0.185,0.81l0.586,0.418l0.779,0.285l0.779,0.632l0.872,0.88l0.725,0.54l0.479,0.532l0.224,0.779
		l0.417,0.578l0.802,0.502l1.065,0.578l0.856,0.271l0.602,0.201l0.424-0.008l0.794-0.563l-0.609,1.412l0.108,1.195l-0.17,0.81
		l-0.671,1.165l-0.694,1.358l-0.162,0.918l-0.478,2.291l-0.27,1.157l-0.124,0.996l-0.023,0.54l0.116,0.47l0.363,0.702l0.439,0.91
		l0.718,1.527l0.101,1.296l-0.062,1.42l-0.301,1.08l-0.601,0.864l-0.594,0.617l-0.517,0.439l-0.339,0.316l-0.077,0.139v0.217
		l0.062,0.416l0.309,0.463l0.339,0.37l0.439,0.178l0.972,0.34l1.034,0.131l0.864,0.493l1.149,0.656l1.219,0.771l1.481,0.779
		l2.083,0.871l1.149,0.564l0.463,0.131l0.054,0.2l0.024,0.34l-0.078,0.309l-0.193,0.663l-0.471,0.765l-0.609,0.616l-0.826,0.524
		l-0.656,0.625l-0.424,0.362l-0.224,0.302l-0.054,0.216l-0.046,0.44l0.278,0.531l0.54,0.926l0.525,1.019l0.424,0.902l0.309,1.104
		l0.131,0.872l-0.131,0.817l-0.162,0.926l-0.332,0.725l-0.718,0.95l-0.664,1.435l-0.301,0.641l-0.555,0.594l-0.879,0.717
		l-0.973,0.718l-0.817,0.694l-0.656,0.625l-0.555,0.609l-0.247,0.586l-0.016,0.826l0.239,0.64l0.432,0.902l0.116,0.194l0.687,0.555
		l0.547,0.486l0.247,0.479l0.525,0.331l1.211,0.548l0.779,0.726l0.679,0.509l0.911,1.343l0.239,0.47l0.486,0.718l0.509,0.979
		l0.648,0.856l0.656,0.625l0.818,0.325l1.281,0.339l1.659,0.054l3.109,0.239l1.374,0.278l0.841,0.238l0.825,0.525l0.972,0.517
		l0.795,0.548l0.864,0.562l0.517,0.386l0.532,0.124l0.563-0.054l0.671-0.325l0.979-0.725l0.618-0.316l0.463-0.077l0.231,0.209
		l0.162,0.439l-0.162,0.424l-0.286,0.209l-0.471,0.432l-0.131,0.316l-0.131,0.856l-0.092,1.272l-0.378,0.996l-0.37,0.74
		l-0.378,0.524l-0.324,0.316l-0.825,0.602l-0.772,0.386l-1.204,0.811l-0.817,0.648l-0.178,0.509l-0.401,0.455l-0.648,0.447
		l-0.818,0.479l-0.501,0.309l-1.158,0.44l-0.462,0.169l-0.517,0.123h-0.232l-0.324,0.116l-0.023,0.132l0.131,0.531l0.463,1.026
		l0.532,0.833l0.879,0.825l1.427,0.949l1.358,1.088l1.442,0.949l0.941,0.855l1.327,1.605l0.756,0.81l1.389,1.675l0.494,0.602
		l0.162,0.509l0.069,0.71l-0.124,1.443l-0.471,1.89l-0.517,1.975l-0.494,0.934l-0.108,0.455l0.023,0.294l0.27,0.13l0.479-0.13
		l0.262-0.17l0.471-0.162l0.547,0.038l0.733,0.509l1.204,0.934l1.08,0.927l0.818,0.709l0.44,0.146l0.687,0.146l1.497-0.169
		l1.627-0.486l1.158-0.247l1.813,0.131l0.957,0.255l1.806,0.355l2.383,0.532l1.513,0.378l0.47,0.224l0.363,0.486l0.694,0.57
		l0.725,0.093l0.494-0.085l0.525-0.433l0.918-1.219l0.817-1.195l0.494-1.181l0.163-0.71l0.324-0.347l0.54-0.263l0.756-0.169
		l2.292-0.216l1.859-0.363l1.111-0.177h0.694l0.208,0.224l0.069,0.323l-0.108,0.401l-0.254,0.594l-0.055,0.648l-0.139,0.74
		l0.108,1.041v1.49l-0.116,1.08l0.061,0.47l0.378,0.309l1.234,0.387l1.365,0.123l1.967-0.123l0.895,0.061l1.628,0.147l2.847-0.178
		l2.114-0.394l0.825-0.123h0.54l0.694,0.216l0.794,0.124l0.717-0.124l0.826-0.394l0.355-0.401l0.031-0.548l-0.231-0.779l0.008-0.385
		l0.255-0.201l0.879-0.193l1.728,0.047l1.265,0.123l0.818,0.34l0.964,0.68l0.648,0.871l0.671,1.165l0.694,0.648l0.732,0.47
		l0.818,0.085l0.594-0.015l0.988,0.169l1.149,0.517l1.041,0.733l0.818,0.524l1.158,0.277l0.887-0.169l0.641-0.225l0.324-0.331
		l0.278-0.101l0.494-0.077l0.687,0.178l0.817,0.293l0.826,0.2l0.725-0.077l0.949-0.424l0.486-0.548l2.615,0.502l2.06,0.455
		l1.466,0.247l3.78,0.139l1.272-0.093l0.98-0.332l0.726-0.617l0.687-0.794l1.111-1.443l0.671-0.509l1.828-0.664l1.489-0.501
		l1.18-0.277l0.787-0.425l0.548-0.579l0.162-0.771l0.169-1.474l0.124-1.172l0.155-0.679l0.339-0.447l0.463-0.209l0.964-0.008
		l0.896,0.162l1.334,0.324l1.328,0.231l0.964,0.031l1.288-0.17l0.934-0.518l0.671-0.347l0.856-0.979l0.579-1.604l-0.047-0.757
		l-0.247-0.694l-0.432-0.578l-0.432-0.332l-0.17-0.571l0.485-0.602l0.849-1.104l1.705-1.635l1.088-0.902l1.273-0.587l1.126-0.262
		l1.25-0.209l1.327,0.047l1.003,0.416l1.104,0.54l1.095,0.417l1.759,0.131l1.714,0.062l1.897-0.247l1.728-0.246l1.351-0.455
		l1.651-0.749l1.148-0.524l0.749-0.101l0.94,0.101l1.004,0.486l1.156,0.841l0.926,0.486l0.741,0.031l0.679-0.116l0.956-0.155
		l1.127-0.277l1.034,0.046l0.578,0.085l0.425,0.502l0.563,0.216l0.501,0.016l0.586-0.17l0.594-0.479l0.494-0.926l0.841-1.156
		l0.726-0.965l0.694-0.602l0.609-0.425l0.493-0.115l0.664,0.022l1.304,0.34l0.71,0.479l1.157,0.849l1.357,1.05l1.003,0.532
		l0.648,0.339l1.312,0.239l1.767-0.131l2.075,0.015l1.412-0.146l1.442-0.579l0.532-0.532l0.779-0.733l0.532-0.663l0.632-0.849
		l0.486-0.733l0.271-0.934l0.023-0.378l0.231-0.493l0.309-0.302l1.041-0.092l0.51-0.417l0.239-0.439l0.479-0.486l0.408-0.494
		l0.817-0.532l0.587-0.224h1.79h1.52l1.05-0.146l0.594-0.362l0.331-0.609l0.124-0.625l0.331-0.817l0.486-0.533l0.902-0.732
		l0.787-0.648l1.489-1.45l1.59-1.82l0.725-0.964l0.702-0.849l1.026-1.089l1.759-1.063l1.65-0.625l0.779-0.656l0.162-0.386
		l-0.185-0.37l-0.494-0.154l-0.062-0.379l0.425-0.671l0.779-0.732l0.826-0.664l0.895-0.517l1.566-0.455l1.25-0.254l1.48,0.177
		l1.026,0.216l0.756-0.03l0.74-0.039l1.08-0.725l0.771-0.472l0.54-0.725l0.425-0.856l0.246-0.748l0.34-0.811l0.324-0.547
		l0.255-0.679l0.162-0.68l-0.039-0.757l-0.23-0.886l-0.333-0.642l-0.485-0.578l-0.17-0.447l0.17-0.625l0.193-0.609l0.616-0.603
		l1.181-0.393l1.196-0.332l1.798-0.625l1.133-0.154l2.361,0.278l2.469,0.107l1.411,0.055l1.058-0.216l0.586-0.217l0.695-0.416
		l0.608-0.532l0.348-1.058l0.146-1.126l-0.016-1.065l0.331-0.81l0.533-0.532l1.157-0.647l1.806-0.68l1.874-0.933l1.813-0.934
		l1.897-1.428l1.22-1.026l1.103-1.087l0.617-0.533l-0.548-0.493l-0.162-0.679l-0.161-0.541l-0.503-0.925l-0.501-0.826l-0.679-0.687
		l-0.524-0.494l-0.494-0.386l-0.424-0.169l-0.486-0.14l-2.414-0.231l-2.269-0.362l-0.818-0.2l-0.493-0.093l-0.294-0.17l-0.192-0.224
		l-0.162-0.493l-0.231-0.525l-0.154-0.401l-0.293-0.385l-0.324-0.355l-0.247-0.309l-0.084-0.092l-0.447-0.302l-0.379-0.238
		l-0.131-0.433l-0.062-0.362l-0.085-0.387l-0.162-0.316l-0.494-0.394l-0.849-0.562l-0.817-0.378l-0.834-0.285l-0.455-0.231
		l-0.285-0.417l-0.154-0.455l-0.186-0.486l-0.385-0.409l-0.17-0.439l0.062-0.455l0.17-0.548l0.185-0.354l0.316-0.339l0.309-0.263
		l0.409-0.155l0.27-0.038l0.494,0.023l0.464-0.077l0.4-0.132l0.378-0.207l0.362-0.317l0.201-0.271l0.008-0.315l-0.054-0.401
		l-0.17-0.417l-0.54-0.524l-0.688-0.625l-0.802-0.608l-0.324-0.455l-0.169-0.44l-0.209-0.247l-0.594-0.517l-0.903-0.688
		l-0.432-0.315l-0.34-0.108l-0.207,0.054l-0.418-0.046l-0.362-0.209l-0.849-0.354l-0.825-0.41l-0.51-0.331l-0.1-0.425l0.069-0.463
		l0.069-0.408l0.124-0.416l0.162-0.201l0.146-0.224l-0.078-0.263l-0.153-0.208l-0.217-0.101l-0.386-0.016l-0.655,0.016l-0.479-0.123
		l-0.277-0.093l-0.046-0.432l-0.031-0.564l0.054-0.424l0.154-0.2l0.224-0.123l0.2-0.162l0.093-0.217l0.116-0.17l0.254-0.139
		l0.316-0.153l0.208-0.217l0.093-0.246l0.047-0.294l0.208-0.224l0.362-0.293l0.209-0.394l0.046-0.255l-0.162-0.479l-0.162-0.608
		l-0.186-0.401l-0.3-0.301l-0.447-0.07l-0.648-0.015l-0.455-0.047l-0.324-0.262l-0.486-0.217l-1.025-0.139l-0.71-0.115l-0.387-0.224
		l-0.161-0.263l-0.277-0.077l-0.348,0.1l-0.224,0.225l-0.51,0.239l-0.494,0.022l-0.484-0.115l-0.757-0.278l-1.42-0.424l-1.905-0.54
		l-1.08-0.54l-0.502-0.162l-0.386-0.015l-0.633,0.077l-0.4-0.039l-0.224-0.139l-0.162-0.34l0.047-0.501l0.17-0.841l0.061-0.409
		l-0.131-0.316l-0.216-0.34l-0.556-0.17l-0.717-0.046l-0.811,0.116l-0.717-0.024l-0.718-0.146l-1.127-0.247l-0.825-0.193
		l-0.625-0.107l-0.277,0.069l-0.17,0.255l0.069,0.4l0.216,0.525l0.324,0.608l0.161,0.595v0.394l-0.123,0.225l-0.216,0.092
		l-0.456,0.022l-0.886-0.107l-1.621-0.301l-1.11-0.331l-0.493-0.348l-0.248-0.386l-0.054-0.609l0.054-0.641l-0.185-0.339
		l-0.37-0.102l-0.471,0.047l-0.494,0.2l-0.664,0.293l-0.764,0.44l-0.562,0.332l-0.54,0.153l-0.949,0.047l-0.825-0.146l-0.594-0.239
		l-0.586-0.17h-0.447l-0.456,0.132l-0.663,0.054l-0.826,0.008l-0.486,0.046l-0.94,0.185l-0.494-0.061l-0.309-0.109l-0.161-0.169
		l-0.055-0.425l-0.055-0.562l-0.17-0.756l-0.323-0.563l-0.478-1.065l-0.51-1.172l-0.447-0.756l-0.271-0.602l-0.068-0.518
		l-0.124-0.47l-0.162-0.271l-0.255-0.092l-0.448,0.069l-0.484,0.232l-0.642,0.555l-0.486,0.37l-0.377,0.132l-0.417-0.031
		l-0.485-0.169l-0.818-0.441l-1.396-0.872l-1.173-0.817l-0.532-0.479l-0.17-0.293l-0.123-0.578l-0.031-0.401l-0.131-0.286
		l-0.209-0.463l-0.308-0.378l-0.556-0.378l-0.764-0.308l-0.779-0.116l-0.779-0.192l-0.925-0.494l-0.525-0.509l-0.27-0.394
		l-0.224-0.648L87.87,7.887l-0.046-0.918l-0.17-0.942l0.17-0.887l0.124-0.864v-0.81l-0.016-0.385V2.262L87.77,1.514l-0.178-0.872
		l-0.409-1.489L86.79-2.389l-0.246-0.803l-0.433-0.439l-0.578-0.355l-0.732-0.208l-0.618-0.27l-0.91-0.27l-0.818-0.054l-1.149,0.078
		L80.01-4.55L78.25-4.51l-1.389-0.016L75.596-4.58L74.77-4.657L73.344-5.02l-1.721-0.579l-1.289-0.532l-1.612-0.54l-1.157-0.378
		l-0.817-0.263L65.421-7.99l-0.787-0.463l-0.217-0.579l-0.17-0.825l-0.261-0.895l-0.178-0.509l-0.278-0.525l-0.455-0.717
		l-0.409-0.656l-0.224-0.524l-0.185-0.34l-0.749-0.494L60.73-14.91l-0.486-0.278l-0.417-0.339l-0.354-0.309l-0.17-0.316
		l-0.093-0.401l-0.108-0.123l-0.208-0.185l-0.408-0.085l-0.316-0.031l-0.324-0.169l-0.17-0.216l-0.055-0.262l0.062-0.231
		l0.162-0.185l0.324-0.177l0.231-0.046l0.478-0.077l0.309-0.139l0.271-0.216l0.162-0.332l0.178-0.587l0.038-0.3l-0.17-0.355
		l-0.394-0.355L58.6-21.09l-0.486-0.324l-0.254-0.309l0.015-0.339l0.163-0.208l0.207-0.147l0.316-0.162l0.155-0.239l0.27-0.316
		l0.339-0.293l0.394-0.263l0.401-0.146l0.209-0.17l0.123-0.316l-0.186-0.486l-0.146-0.424l-0.323-0.609l-0.494-0.37l-0.579-0.286
		l-0.694-0.139l-0.277-0.139l-0.285-0.401l-0.201-0.44l-0.192-0.478l0.833-0.34l0.101-0.378l-0.263-0.247l-0.378-0.293l-0.186-0.764
		l-0.084-0.501l-0.131-1.042l-0.07-0.81l-0.27-0.98l-0.378-0.594l-0.61-0.594l-0.485-0.547l-0.316-0.934l-0.324-1.157l-0.17-0.339
		l-0.162-0.162l-0.494-0.131l-0.662-0.201l-0.78-0.586l-0.316-0.594l0.093-0.339l0.455-0.309l0.841-0.571l0.648-0.44l0.595-0.741
		l0.03-0.856l-0.186-1.574l-0.523-2.469l-0.34-1.497l-0.093-0.648l-0.316-0.586l-0.309-0.254l-0.409-0.124l-0.817-0.023h-0.479
		l-0.71-0.154l-0.663-0.293l-0.926-0.717l-1.528-2.207l-0.633-1.103l-0.092-0.517l0.286-0.648l0.94-0.818l0.687-0.833l0.348-0.509
		l0.285-0.687l0.116-0.479l-0.17-0.856l-1.598-3.703l-1.496-2.8l-0.085-0.34l0.054-0.339l0.416-0.224l0.302-0.178l0.301-0.215
		l0.046-0.255l-0.17-0.301l-0.114-0.254l0.238-0.348l0.348-0.347l0.046-0.262v-0.162l-0.178-0.301l-0.532-0.17l-0.609-0.416
		l-0.687-1.104l-0.277-1.026l0.161-0.949l0.494-1.327l0.394-0.826l0.17-1.026l0.153-0.856l0.186-0.339l0.263-0.309l0.787-0.316
		l0.401-0.262l0.246-0.386l-0.146-0.386v-0.17l0.425-0.609l0.038-0.339l-0.139-0.301l-0.301-0.123h-0.177l-0.201-0.131l-0.062-0.208
		l0.093-0.556l0.161-1.072l-0.192-1.798L48-85.131l0.455-0.355l0.232-0.517l-0.017-0.602l-0.262-0.764l-0.432-0.849l-0.023-1.412
		l-0.162-1.281l-0.162-1.412l-0.146-0.556l-0.23-0.162l-0.494,0.008l-0.911,0.015l-1.064-0.247l-0.262-0.215l0.185-0.34l0.811-0.347
		l0.948-0.571l0.695-0.655l0.416-0.563l0.146-0.779l0.17-0.509l0.586-0.393l0.602-0.486l0.085-0.771v-2.354L48.809-104.032"/>
</g>
<g id="Layer_1_1_">
</g>
</svg>
