<?xml version="1.0" encoding="utf-8"?>
<!-- Generator: Adobe Illustrator 16.0.4, SVG Export Plug-In . SVG Version: 6.00 Build 0)  -->
<!DOCTYPE svg PUBLIC "-//W3C//DTD SVG 1.1//EN" "http://www.w3.org/Graphics/SVG/1.1/DTD/svg11.dtd">
<svg version="1.1" id="Layer_1" xmlns="http://www.w3.org/2000/svg" xmlns:xlink="http://www.w3.org/1999/xlink" x="0px" y="0px"
	 width="300.772px" height="275.67px" viewBox="-139.967 -128.738 300.772 275.67"
	 style="enable-background:new -139.967 -128.738 300.772 275.67;" xml:space="preserve">
<g id="Layer_28">
	<path id="Charsadda" style="fill:#CCCCCC;stroke:#FFFFFF;stroke-width:1.15;" d="M155.419,81.513L155.419,81.513l-0.787-0.379
		l-0.744-0.546l-0.863-0.728l-0.289-0.576l0.016-0.925l-0.318-1.107l-0.197-0.863l-0.803-1.684l-0.699-1.273l-0.969-1.485
		l-0.41-0.788l-0.666-1.669l-0.668-1.303l-0.789-1.517l-0.742-1.546l-0.879-1.865l-0.955-1.485l-0.971-1.638l-0.318-0.439
		l-0.621-0.864l-0.879-2.122l-0.699-1.517l-0.758-1.85l-0.561-2.41l-0.439-1.562l-0.834-1.91l-0.758-2.547l-0.592-1.152
		l-0.424-0.818l-1.197-2.411l-1.439-4.744l-0.168-0.759l-0.318-1.971l-0.273-1.183l-0.318-0.956l-0.592-1.804l-0.697-1.198
		l-0.758-1.621l-0.516-1.517l-0.332-0.85l-0.168-0.424l0,0l-0.971-2.472l-0.227-0.622l-0.016-0.045l-0.318-0.879l-0.363-1.092
		l-0.35-0.728l-0.439-0.713l-0.531-0.137l-0.561-0.136l-1.697-0.258l-0.773,0.016l-1.061,0.03l-1.002-0.046l-0.758-0.151
		l-0.287-0.061l-1.865-0.092l-0.197-0.667l0.334-1.197l0.287-1.531l0.365-2.699l-0.607,0.288l-0.15,0.046l-0.531-0.121l-1.016,0.09
		l-0.805-0.03l-0.637-0.09l-0.879-0.167l-0.971-0.349l-0.879-0.167l-1.031-0.197l-0.787-0.167l-0.623,0.091l-0.773,0.076
		l-0.955-0.197l-0.621,0.197h-0.395l-0.969-0.076l-0.789-0.228l-0.531-0.045l-0.803-0.091l-0.531-0.121l-1.289-0.182l-0.545,0.076
		l-0.562,0.137l-0.695-0.122l-0.684-0.288l-0.713,0.016l-0.576,0.03l-1.41-0.334l-0.803-0.288l-0.471-0.5L96.245,6.8l-0.453-0.394
		l-0.789-0.333l-0.986-0.137l-0.832-0.212l-1.775-0.349l-1.273-0.743L89.68,3.95l-0.621-0.531l-0.348-0.743l0.014-0.712
		l-0.074-0.516l-0.305-0.97l-0.318-0.743l-0.334-0.47l-0.303-0.5L87.073-1.72L86.27-2.57l-0.637-0.622l-0.242-0.712l-0.031-0.5
		l0.076-0.773l0.166-0.834l0.439-1.228l-0.318-0.576l-0.666-0.804l-0.455-0.545l-0.516-0.455l-0.805-0.439l-1.105-0.364l-1.41-0.698
		l-1.076-0.546l-0.121-0.121l-1.426-1.531l-0.076-1.425l0.121-0.804l-0.029-0.939l0.182-1.122l0.09-1.016l0.092-1.334v-1.471
		l0.092-1.804l0.318-1.137l0.045-0.334l0.242-1.531l0.258-1.804l0.287-1.638l0.244-1.273l0.318-1.713l0.287-1.41L81.161-37
		l0.258-1.622l0.105-0.531l0.076-0.394l0.166-1.668l0.168-1.304l0.197-1.698l0.15-1.091l0.334-1.062l0.334-0.652l0.697-0.728
		l0.516-1.471l0.971-1.41l0.758-0.227l1.15-0.031l1.729-0.121l1.289,0.106l2.123,0.182l-0.787-1.016l-0.395-1.213l-0.652-0.91
		l-0.682-0.546l-0.639-0.455l-0.605-0.879l-0.545-1.804l0.15-1.122l-0.242-0.773l-0.334-0.773L87.27-61.06l-0.287-1.062
		l-0.318-1.244l-0.334-1.137l-0.168-0.773l-0.166-0.303l-0.803-1.35l-1.076-0.94l-1.107-0.258l-0.561-0.819l-0.957-0.682
		l-0.561-0.304l-1.318-0.606l-0.652-0.47l-0.561-0.319l-0.773-0.561l-1.105-0.94l-0.5-0.561l-0.773-0.667l-0.578-0.788l-0.439-1.198
		l-0.424-0.985l-0.41-0.879l-0.045-0.091l0.439-1.425l0,0l-0.166-2.941l-0.137-0.151l-0.5-0.273l-0.484-0.5l-0.441-0.47
		l-0.879-0.727l-0.969-1.046l-0.578-0.697l-0.439-0.47l-0.561-0.864l-0.213-0.167l0,0l-0.727-0.531l-0.713-0.379l-0.029-0.015
		l-0.896-0.455l-0.787-0.333l-0.803-0.091l-1.047,0.016l-1.213-0.046l-0.742-0.045l-0.607-0.046l-0.607-0.516l-0.197-0.667
		l0.031-0.06l-0.789-0.485l-0.971-0.151l-0.695-0.38l-0.758-0.424l-0.713-0.394l-1.562,0.652h-0.016l-0.348,0.47l-0.41-0.091
		l-0.334-0.06l0,0l-0.332-0.076l-0.318-0.91l-0.016-0.743l-0.031-0.03l0,0l-0.605-0.394l-0.031-0.425l-0.137-0.182l0.123-0.395l0,0
		l-0.031-0.455v-0.03l-0.029-0.061l-3.352-0.333l-1.82,0.409l-0.166-0.304l-0.09-0.015l-0.729-1.076l-0.318-1.062l0.076-0.409
		l0.105-0.394l-0.379-0.713l-0.758-1.182l-0.092-0.137l-0.334-1.122l0.197-1.016l0.318-0.622l0.289-0.622l0.242-0.652l-0.061-0.743
		l-0.09-0.94l0.014-0.03l-0.545-1.501l-0.379-0.758l-0.805-0.925h-0.014l-0.744-0.182l-0.637-0.409l-0.287-0.773l-0.121-1
		l-0.047-0.591l-0.15-0.652l-0.334-0.728l-0.576-1.531v-0.924l0.016-0.698l0.061-1.016l-0.121-1.091l-0.076-0.455h-0.016
		l-0.076-0.364l-0.15-0.47l-0.258-0.546l-0.229-0.97l-0.758-0.94l-0.439-0.364l-0.092-0.045l-0.787-0.106l-1.576-0.152l-0.334,0.349
		l-1.031-0.045l-0.105,0.015l-0.395-0.045h-0.016l-0.334-0.015l-1.742-0.121l-1.609-0.031l-1.621,0.258l-0.137,0.015l-0.545,0.318
		l-0.744,0.47l-0.953,0.728l-0.91,1.259l-0.486,0.333l-0.121,0.136l-0.5,0.531l-0.971,0.485l-0.561,0.318l-0.652,0.516l-0.955,0.606
		l-0.939,0.349l-0.879-0.394l-0.971-0.228l-0.818-0.182l-0.35-0.091l-1.502-0.061l-1.879-0.03h-0.016l-1.213,0.076l-0.561,0.137
		l-0.85,0.167l-0.788,0.243l-0.439,0.212l-0.106,0.046l-0.788,0.318l-0.849,0.394l-0.091,0.759l-2.729,1l-1.122,1.031l-1.076,1.198
		l-0.955,1.228l-0.728,1.183l-2.183,1.243l-1.364-0.47l-2.032,0.061l-1.971,0.97l-1.85,1.516l-2.334,0.94l-1.41,0.091l-2.32,0.303
		l-1.546,1.577l-1.016,1.728l-0.561,1.228l-1.531,2.062l-1.895,0.516l-2.562,0.622l-1.122,1.44l0.318,2.092l-0.06,1.713l-0.045,1.82
		l-1.137,2.046l-0.303,1.971l0.909,1.122l1.153,1.137l0.561,1.364l-0.895,2.213l-1.546,1.592l-1.547,0.758l-2.259,0.955
		l-1.606,0.561l-1.652,0.545l-1.85,0.152l-2.532,0.016l-1.91,0.379l-2.153,1.652l-1.516,1.183l-2.411,0.318l-0.257,2.032
		l0.318,1.319l0.167,1.501l0.152,1.349l-0.167,2.866l0.137,1.364l0.318,1.41l0.045,1.289l-0.455,1.41l-0.409,1.259l-2.259,0.425
		l-1.623-0.334l-1.683-0.879l-2.259-1.456l-1.319-1.197l-1.091-1.319l-1.668-1.91l-1.364-0.379l-1.334-0.03l-2.031-0.683
		l-2.259-0.94l-2.244-0.106l-1.607,1.243l-0.94,2.168l-0.515,2.623l-0.758,1.107l-1.789,1.577l-1.077,1.304l-1.137,0.606l-1.41,0.5
		l-1.668-0.273l-2.107,0.683l-1.471,1l-1.425,0.833l-1.623,0.667l-1.789,1.016l0.727,4.048l-1.47,1.91l-0.91,0.955l0.849,1.623
		l-0.53,1.44l-1.834,1.486l-1.471,0.925l-0.515,0.409l-0.728,0.561l-1.35,0.818l-1.228,0.758l-2.031,1.289l-2.411,1.698
		l-1.198,0.773l-1.077,0.849l-1.213,0.789l-1.485,1.273l-0.864,0.985l1.061,1.577l1.319,1.546l1,1.925l-0.243,1.971l-1.698,1.729
		l-0.895,0.97l-0.924,1.289l-1.046,1.713l0.016,2.168l1.091,1.152l0.956,0.925l1.971,1.637l1.47,1.653l0.197,2.32l-0.44,1.349
		l-0.91,2.229l0.319,1.925l-0.152,1.304l-1.395,1.971l-2.198,0.637l-1.622,0.94l-3.093,1.834l-0.227,0.243l-2.274,1.44l-0.531,0.106
		l-3.775,6.716l-0.379-0.196l-0.925-0.243l-1.213-0.47l-0.879-0.349l-1.076-0.531l-0.683-0.424l-0.97-0.471l-0.986-0.349
		l-1.122-0.363l-1.258-0.471l-0.136-0.015l-6.019-0.759l1.744,1.835l-1.592,1.243l1.046,1.062l1.925,0.818l1.38,0.759l0.743,1.304
		l-0.333,2.198l-0.516,1.88l0.834,1.743l-1.88,0.895l-1.819,0.986l-1.455,1.379l-0.167,0.849l-0.288,0.697l-0.045,1.592
		l-0.334,1.486l-0.121,1.305l-0.303,1.304l-0.273,1.424l-0.439,1.623l-1.016,1.213l-0.106,1.683l0.531,1.425l0.637,1.35l0.789,1.562
		l0.955,0.924l1.425,0.728l1.789,1.062l0.97,1.865l0.531,1.895l1.183,0.788l0.349,0.577l0.303,0.408l0.273,1.32l0.425,0.621
		l1.425,0.137l0.925-0.076l0.97-0.076l0.94-0.075l1.243,0.136l1.213,0.016l1.229-0.304l1.167-0.575l0.349-0.122l0.606-0.166h1.44
		l1.213-0.016l0.97,0.151l1.137,0.243l0.879,0.106l1.228,0.318l1.364,0.378l1.289,0.547l1.107,0.606l1.38,0.651l2.031,0.516
		l1.638,0.516h1.41l1.592,0.318l1.865,0.212l1.455,0.182l2.335,0.289l2.259-0.137l1.91-0.183l1.258-0.091l1.198-0.105l1.031-0.137
		l1.425-0.258l0.758-0.213l0.728-0.455l0.545-0.605l-0.151-0.818l-0.303-0.758l0.333-0.425l0.47,0.333l4.852,3.624l1.607,2.001
		l2.32,2.94l0.773,0.243l0.804,0.455l0.97,0.575l1.213,1.062l0.697,0.636l0.713,0.622l0.803,0.621l0.273,0.197l0.743,0.637
		l0.637,0.835l0.546,0.758l0.303,1.334l0.607,0.97l0.909,0.849l0.743,0.273l0.955,0.076l1.516-0.106l1.623-0.091l1.091,0.333
		l0.985,0.41l0.971,0.151l1.471,0.349l0.788,0.333l0.743,0.501l1.061,0.637l1.304,0.576l1.379,0.5l1.107,0.546l0.97,0.849
		l0.879,0.638l0.94,0.575l0.182,0.092l2.274,0.773l0.864-0.167l1.319-0.425l1.441-0.501l1.228-0.454l1.153-0.273l1.349-0.212
		l1.001,0.061l0.546,0.076l1.228,0.97l0.925,0.818l0.606,0.729l0.318,0.667l0.652,0.955l0.789,0.879l1.031,0.94l0.667,0.363
		l0.091,0.896l0.182,0.849l0.182,0.925l0.061,0.228l0.136,0.516l0.545,0.773l1.047,0.636l0.985,0.622l0.712,0.516l0.97,0.697
		l0.606,0.576l0.728,0.713l0.515,0.53l0.91,0.516l1.289,0.667l0.971,0.03l0.955,0.046l0.94,0.5l0.318,0.894l1.82,3.624l0.167,0.334
		l1.744,0.88h3.547l6.11,3.623l7.308,1.213l2.591,0.863l0.652,0.698l0.971,0.758l1.152,0.788l1.258,0.835l0.865,0.818l0.318,0.408
		l0.334,0.455l0.818,0.668l0.637,0.515l0.818,0.516l0.758-0.015l0.092-0.91l-0.016-0.879l-0.016-1.046l2.381-1.501l0.773-0.092
		l0.652,0.5l1.15,0.865l0.986,0.697l1.697,0.637h1.305l1.318-0.121l1.168-0.272h1.137l0.955-0.047l1.289-0.181l0.713,0.091
		l4.654-1.622l1.713,0.241l4.457,0.319l1.531,0.151l2.244,0.546l1.016,0.349l2.578,1.637l1.092,0.471v-0.591l-0.318-0.789
		l-0.35-0.834l1.35,0.092l2.41,0.666l1.426,0.425l1.621,0.485l1.623,0.349l0.924,0.288l1.426,0.471l1.379,0.546l1.729,0.545
		l1.215,0.485l1,0.788l1.426,1.062l2.152,1.396l2.184,0.879l1.152,0.395l1.697,0.317l1.107,0.455l0.332,0.986l0.35,2.167
		l0.182,1.396l0.227,1.879l0.531,2.002l0.713,2.486l0.182,1.834l0.818,1.865l0.986,1.774l0.879,1.637l0.773,0.91l1.531,1.501
		l0.924,0.985l1.094,0.41l1.531,0.045l3.092-0.334l2.789-0.196l1.912,0.333l2.289-0.333l-0.729-1.093l-1.926-1.576l0.713-2.214
		l1.35-1.304l1.166-1.031l0.805-1.303l0.939-1.669l1.426-2.213l1.35-2.062l1.182-1.94l1.623-2.198l1.668-2.729l1.91-3.185
		l2.242-4.215l2.305-3.198l2.031-3.441l2.578-4.033l3.215-5.367l2.91-3.79l2.275-2.986l2.439-3.275l1.197-0.287l1.715-0.152
		l2.168-0.395l1.303-0.363l2.139-0.606l1.213-0.242l1.621-0.273l6.172-1.152L155.419,81.513"/>
</g>
<g id="Layer_1_1_">
</g>
</svg>
