<?xml version="1.0" encoding="utf-8"?>
<!-- Generator: Adobe Illustrator 16.0.4, SVG Export Plug-In . SVG Version: 6.00 Build 0)  -->
<!DOCTYPE svg PUBLIC "-//W3C//DTD SVG 1.1//EN" "http://www.w3.org/Graphics/SVG/1.1/DTD/svg11.dtd">
<svg version="1.1" id="Layer_1" xmlns="http://www.w3.org/2000/svg" xmlns:xlink="http://www.w3.org/1999/xlink" x="0px" y="0px"
	 width="301.246px" height="227.121px" viewBox="-124.893 -93.954 301.246 227.121"
	 style="enable-background:new -124.893 -93.954 301.246 227.121;" xml:space="preserve">
<g id="Layer_117">
	<path id="South_Waziristan_Agency." style="fill:#CCCCCC;stroke:#FFFFFF;stroke-width:1.15;" d="M-79.164-42.928L-79.164-42.928
		l-1.388,2.233l-3.564,5.55l-4.078,1.63l-6.102,2.448l-2.375,0.996l-1.642,0.685l-6.085,0.347l-3.733,1.955l-3.599,6.582
		l-7.084,10.598l-0.457,4.101l2.764,7.272l1.27,2.402l3.812,7.248l2.053,3.83l0.187,0.347l-0.3,15.402l-0.608,1.264l-1.698,3.553
		l0.7,11.229l0.231,3.706l0.456,3.868l-0.236,2.477l-0.26,2.65l-0.203,5.132l3.987,13.987l-0.829,5.122l0.463,2.673l2.098,12.126
		l0.39,2.335l0.439,1.94l1.399,0.688l1.393,0.699l0.118,1.794l0.057,0.62l0.604,1.76l0.981,2.933l0.366,1.117l0.022,0.045
		l0.604-0.417l1.05-0.841l0.603-0.615l0.012-0.011l0.118-0.146l0.203,0.439l0.062,0.124l0.011,0.011l0.102,0.103l0.276,0.242
		l0.248,0.226l0.638,0.321l0.271,0.125l0.666,0.349l0.118,0.091l0.993,0.056l0.315-0.112l0.62-0.305l0.604-0.315l1.309-0.733
		l1.049-0.62l0.52-0.417l0.056-0.034l0.711-0.542l0.271-0.226l0.192-0.078l0.05-0.012l0.604-0.146l0.682-0.091h0.012l1.089,0.237
		l1.319,0.429l0.868,0.26l0.615,0.112h0.631h0.113h0.158h0.124h0.118l0.53-0.112l0.429-0.074l0.846-0.141l0.209,0.012l1.168,0.101
		l1.9,0.159h1.697l0.26-0.012l1.083-0.034l0.705-0.033l0.631-0.029l1.196-0.305l1.088-0.31l0.666-0.208h0.671l2.132,0.106
		l1.168,0.045l1.325,0.124l0.406,0.034l1.331-0.045l1.872-0.316l3.993-0.88l1.749-0.417l0.327-0.147l0.191-0.044l0.011-0.012h0.018
		l0.135-0.067l0.914-0.372l0.411-0.125l0.401-0.112l0.671,0.057l0.395,0.203l0.411,0.484l0.333,0.451l0.778,0.948l0.88,1.082
		l0.525,0.62l1.088,0.413l0.191,0.084h0.018l0.355,0.13l1.358,0.236l0.046,0.012h0.005l0.045,0.011l0.463-0.354l0.361-0.231
		l0.022-0.018l0.214-0.141l0.925-0.688l0.43-0.316l0.084-0.062l0.321-0.226l1.055-0.733l1.298-0.779l0.529-0.235l1.331-0.463
		l1.76-0.908l0.146-0.107l0.497-0.338l0.332-0.215l0.311-0.191l0.445-0.451l0.4-0.406l0.339-0.152l0.344-0.152l0.841-1.105
		l1.094-1.173l0.784-0.587l0.468-0.259l0.355-0.203l1.162-0.26l0.559-0.124l0.496-0.124l0.592-0.327l0.49-0.305l0.074-0.034
		l0.051-0.034l0.631-0.405l0.361-0.519l0.022-0.294l0.067-0.608l0.023-0.125l0.259-0.767l0.192-0.35l0.078-0.112l0.102-0.158
		l0.604-0.847l1.077-1.375l0.53-0.616l0.271-0.462l-0.006-0.761l-0.006-0.542l0.254-1.218l0.265-0.378l0.028-0.034l0.688-0.699
		l0.846-0.322l0.823-0.338l0.04-0.011l0.017-0.012l0.575-0.226l0.457-0.429l0.35-0.349l0.135-0.113l1.241-1.506l0.778-0.745
		l0.598-0.58l0.948-0.908l0.604-0.537l0.05-0.01l0.514-0.113l0.158-0.034l0.18-0.022l1.275-0.152l1.488-0.175l3.249-0.399h0.315
		l0.305-0.062l0.485,0.045l0.936,0.028l0.864-0.011l1.297-0.108l1.567-0.129l1.298-0.119l0.496-0.146l0.609-0.18l0.603-0.182
		l0.908-0.27l0.423-0.147l0.113-0.045H3.54l0.011-0.011l1.495-0.339l1.867-0.62l0.885-0.778l1.083-0.237l0.609,0.305l0.36,0.451
		l0.361,0.383h0.282l0.62-0.006l0.536-0.151l0.71-0.541l0.451-0.316l1.083-0.237l0.621-0.146l0.541-0.316l1.263-0.541l0.361-0.085
		h0.451l0.451,0.226l1.337,0.073l0.823-0.085l0.987-0.085l1.156-0.315l1.534-0.541l2.419-0.249l1.438-0.235h0.627l0.36,0.225
		l0.018,0.384l-0.355,1.071l-1.799,1.546l-1.077,1.229l-1.416,2.996l-1.776,3.834l-1.071,1.918l-0.88,0.841l-0.271,0.462
		l-0.163,0.847l-0.812,0.693l-1.691,1.235l-0.987,0.383l-0.716,0.39l0.006,0.31l0.101,0.379l1.349,0.98l1.646,1.196l1.72,1.065
		l1.552,1.292l4.494,2.193l2.707,1.049l1.805,0.531l2.708,1.06l1.263,0.451l0.56,0.841l0.005,0.913l-0.361,1.151l-0.608,0.693
		l-0.44,1.077l-0.36,1.443l-0.604,1.388l-1.065,1.985l-1.415,1.388l-1.259,1.455l-0.975,1.313l-0.164,0.841l0.118,3.277l0.012,1.455
		l0.366,1.917l0.271,0.373l1.608-0.012l1.1,0.102l0.891,0.677l1.443,0.834l1.337,0.3l1.258-0.237l1.331-0.389l1.331-0.384
		l0.812-0.688l1.24-1.614l1.151-1.376l0.98-1.229l1.247-1.387l1.083-1.534l1.421-1.997l0.874-0.608l0.818-0.554l1.602-0.462
		l1.979-0.315h1.331l0.886,0.146l0.011,0.885l13.287-0.852l13.407,2.324l11.11,1.381l12.954,4.631l7.378-1.646l-0.197-0.745
		l-0.322-1.257l-0.349-1.642l-0.322-1.506l-0.563-2.307l-0.372-1.444l-0.248-1.065l-0.384-1.766l-0.462-1.319l-0.316-0.937
		l-0.124-1.026l-0.085-0.711l-0.118-0.62l-0.282-0.919l-0.598-0.418l-0.541-0.282l-0.672-0.417l-0.4-0.271l0.514-0.541l0.666-0.469
		l0.598-0.445l0.338-0.429l-0.35-0.434l-0.536-0.56l-0.439-0.507l0.118-1.422l-1.032,0.366l-0.355,0.147l-1.872,1.455l-0.728-0.169
		l-0.26-0.395l-0.902-0.125l-8.905-5.572l-5.094-18.239l0.988-4.343l-0.378-1.088l-1.325-3.271l-0.588-0.576h-0.005L83.92,66.47
		l-1.082-0.175l-1.806-0.941l-0.451-2.741l-1.082-3.463l-0.209-0.677l0.231-0.789l0.248-0.599l0.146-0.361l0.659-1.021l1.834-2.814
		l0.197-0.496l0.26-0.575l0.738-1.669l-3.4-0.847l-6.622-5.053l-3.486-6.108l-3.84-7.146l-1.219-4.016l-2.098-7.501l0.44-3.833
		l0.862-6.63l1.055-8.894l1.562-3.841l3.311-6.458l0.862-2.789l2.775-2.271l12.396-8.2l1.743-2.618l3.146-4.188l2.442-1.046
		l8.043-3.486l9.058-3.663l6.812-2.789l6.447-2.789l5.059-2.445l8.73-1.224l11.517-1.917l5.217-1.571l15.713-3.66l0.598-0.364
		l-0.405-0.803l-0.807-1.455l-0.429-0.601l-0.067-0.293l-0.062-0.26l-0.006-0.014l-0.073-0.253l-0.113-0.237l-0.339-0.282
		l-0.405-0.479l-0.147-0.197l-0.304-0.474l-0.479-0.739l-0.604-0.243l-0.13-0.127l-0.096-0.034l-0.356-0.144l-0.248-0.121
		l-0.592-0.384l-0.395-0.397l-0.999-1.041l-0.715-0.744l-0.694-0.728l-0.604-0.634l-0.569-1.277L160.765-68l-0.152-0.564
		l0.191-0.364l0.079-0.302l-0.073-0.716l-0.569-1.311l-0.469-1.103l-0.208-0.491l-0.124-0.561l-0.119-0.553l-1.382,0.519
		l-0.676,0.253l-0.842,0.942l-0.749,0.804l-0.677,0.728l-0.4,0.358l-0.971,0.86l-0.919,0.821l0.524-2.248l0.197-0.877l0.569-2.797
		l0.182-0.976l0.349-1.176l0.559-2.341l0.575-2.454l0.293-1.195l0.26-2.414l0.073-0.694l-1.325-0.265l-2.054-0.418l-0.597-0.132
		l-0.554-0.26l-0.281-0.426l0.152-0.584l0.366-1.537l-1.071,0.445l-0.992,0.606l-0.475,0.369l-0.603,0.463l-0.654,0.53l-1.117,0.981
		l-1.088,1.029l-1.271,1.207l-0.777,0.634l-1.14,0.948l-3.124,1.009l-1.151,1.658l-0.501,0.302l-0.751,0.442l-1.003,0.601
		l-1.873,0.981l-0.52,0.491l-0.563,0.539l-0.733,0.756l-0.463,0.491l-1.477,0.434l-0.954,0.595l-0.698,0.44l-1.551,0.674
		l-0.745,0.33l-0.062,0.028l-1.466,1.63l-0.469,0.327l-1.877,1.3l-2.076-0.547l-1.111-0.964l-1.765-0.843l-3.188-0.243l0.305,2.256
		l1.354,1.179l-0.074,1.641l-2.063,0.31l-1.513-0.6l-3.011-0.485l-1.839-0.501l-0.226-0.006l-1.433-0.017l-2.374-0.508l-2.166,0.045
		l-2.64-0.243l-1.731,0.527l-2.532-0.07l-1.979-0.017l-1.794-0.122l-2.25,0.41l-0.355,0.149l-2.047,0.832l-2.77,1.249l-3.046,0.668
		l-1.466,0.984l-1.489,1.247L75.1-61.052l-1.873,0.77l-1.945,1.726l-2.905,0.434l-3.051,0.964l-1.568,0.144l-2.582,0.304
		l-3.842,0.313l-2.047-0.243l-4.377,0.959l-2.904-0.739l-3.17-0.192l-2.233-0.022l-2.933,0.525l-1.438-0.074h-1.8l-2.374,0.624
		h-2.183l-2.233-0.358l-2.533-0.191l-2.548-0.127l-4.445-0.266l-2.571,0.192l-2.256,0.045l-2.51-0.017l-2.307-0.243l-2.713-0.121
		L4.51-56.456l-3.987-0.217l-1.811,0.38l-2.092,0.479l-2.109-0.076l-1.608,0.144l-2.955,0.099l-1.805-0.288l-3.485,0.023
		l-1.675,0.132l-1.371,0.11l-1.562-0.169l-2.02-0.073l-1.969-0.524l-2.041,0.217l-1.731-0.283l-1.528,0.358l-0.435,0.122
		l-1.799,0.519l-1.467,0.77l-0.885,1.534l-0.046,0.02l-1.805,0.772l-1.219,2.468l-0.287,1.413l0.648,1.393l1.63,0.722l1.325,0.623
		l1.41,2.595l-2.396,1.627l-2.741,1.131l-1.748,0.814l-3.125,1.25l-2.973,1.39l-1.99,0.937l-2.29,1.251l-4.207,0.937l-0.384,0.15
		l-1.15,0.451l-2.188,0.313l-2.284,0.05l-2.07,0.071l-1.703-0.77l-2.16-0.965l-1.246-1.147l-1.179-1.3l-1.754-2.259l-1.219-1.179
		l-1.59-0.663l-1.703-0.843l-1.969-0.463L-79.164-42.928"/>
</g>
<g id="Layer_1_1_">
</g>
</svg>
