<?xml version="1.0" encoding="utf-8"?>
<!-- Generator: Adobe Illustrator 16.0.4, SVG Export Plug-In . SVG Version: 6.00 Build 0)  -->
<!DOCTYPE svg PUBLIC "-//W3C//DTD SVG 1.1//EN" "http://www.w3.org/Graphics/SVG/1.1/DTD/svg11.dtd">
<svg version="1.1" id="Layer_1" xmlns="http://www.w3.org/2000/svg" xmlns:xlink="http://www.w3.org/1999/xlink" x="0px" y="0px"
	 width="301.092px" height="199.733px" viewBox="-122.532 -81.142 301.092 199.733"
	 style="enable-background:new -122.532 -81.142 301.092 199.733;" xml:space="preserve">
<g id="Layer_73">
	<path id="Larkana" style="fill:#CCCCCC;stroke:#FFFFFF;stroke-width:1.15;" d="M165.41-8.234L165.41-8.234l-0.325-0.18
		l-0.485-0.312L163.656-9l-0.959-0.387l-1.753-0.734l-0.68-0.263l-0.278-0.428l-0.134-0.328l-0.119-0.459l-0.036-0.383l-0.17-0.645
		l-0.098-0.392l-0.258-0.601l-0.402-0.461l-0.887-0.601l-1.702-0.58l-0.968-0.222l-0.836-0.059l-1.165,0.044l-0.887,0.188
		l-0.773,0.186h-0.484l-0.382-0.08l-0.268-0.116l-0.15-0.188v-0.217l0.16-0.552l0.269-0.358l0.448-0.549l0.212-0.405l0.107-0.386
		l-0.03-0.454l-0.372-0.487l-0.721-0.6l-0.759-0.142l-0.649-0.005l-0.484,0.096l-0.433,0.137l-0.681,0.216l-0.618,0.111
		l-0.516-0.111l-0.289-0.08l-0.196-0.216l-0.814-0.575l-0.814-0.554l-0.634-0.328l-1.012-0.271l-0.937-0.243l-0.976-0.268
		l-0.887-0.412l-0.268-0.147l-0.082-0.16l0.051-0.217l0.119-0.964l0.165-0.698v-0.575l-0.104-0.993l-0.33-1.198l-0.154-0.993
		l-0.139-1.057l-0.218-0.652l-0.855-1.64l-1.011-1.302l-1.025-1.209l-1.907-2.408l-2.289-2.345l-1.073-1.245l-1.236-1.521
		l-1.186-1.134l-0.567-0.575l-0.186-0.459v-0.296l0.087-0.302l0.16-0.369l0.521-0.549l0.3-0.529l0.088-0.574l-0.218-0.696
		l-0.272-0.552l-0.495-0.378l-0.68-0.413l-0.62-0.433l-0.463-0.026l-0.32,0.165l-0.5,0.43l-0.325,0.114l-0.324-0.005l-0.536-0.266
		l-0.701-0.6l-0.908-1.204l-0.854-1.209l-1.202-1.763l-0.918-2.14l-0.767-2.312l-0.64-2.111l-0.165-0.725l0.057-0.389l-0.516-0.459
		l-0.475-0.487l-1.299-0.655l-1.083-0.242l-1.516-0.01l-0.371,0.005l-0.299,0.111l-0.217,0.221l-0.217,0.479l-0.324,0.995
		l-0.273,0.178h-0.401l-0.573-0.227l-0.227-0.02l-0.423,0.101l-0.314,0.327l-0.536,0.328l-0.423,0.005l-0.325-0.111l-0.304-0.413
		l-0.454-1.049l-0.237-0.66l-0.205-0.26l-0.32-0.196l-1.217-0.111l-1.588-0.111l-2.531-0.168l-2.83-0.252l-1.773-0.186l-0.845,0.015
		l-0.413,0.095l-0.228,0.111l-0.52,0.892l-0.479,0.771l-0.64,0.157H92.11l-1.103-0.116l-0.402-0.433l-0.32-0.732l-0.031-0.07
		l-0.318-0.56l-0.485-0.956l-0.69-1.049l-0.794-1.209l-0.959-1.351L86.15-69.3l-0.845-1.155l-0.681-1.042l-0.681-0.67L83.46-72.62
		l-0.758-0.428l-1.093-0.183l-1.479,0.036l-2.382,0.263l-1.042,0.105l-0.361,0.011l-0.453-0.088l-0.288-0.17l-0.207-0.549
		l-0.552-1.145l-0.381-0.327l-0.454-0.111l-2.393-0.039l-1.566,0.091l-0.938,0.165l-0.769,0.41l-0.896,0.74l-1.352,0.781
		l-0.772,0.387l-0.453,0.083l-0.476-0.108l-1.351-0.26l-2.351-0.41l-1.175-0.108l-1.465-0.062l-2.021,0.025l-1.062,0.17
		l-2.325,0.644l-1.062,0.222l-0.598,0.082l-0.547-0.005l-0.69-0.5L48.51-73.8l-1.222-0.882l-1.387-0.719l-1.134-0.618l-4.053-0.823
		l-1.01-0.317l-1.608-0.111l-1.149-0.026l-1.836,0.222l-0.546,0.163l-0.552,0.296l-0.722,0.554l-1.273,0.75l-1.696,0.338
		l-1.742,0.312l-2.387,0.072l-2.243,0.271l-1.222,0.291l-1.232,0.459l-1.32,0.711l-0.768,0.497l-0.624,0.369l-0.51,1.062
		l-0.356,0.696l-0.17,1.098l-0.114,1.431l0.01,0.696l-0.134,0.402l-0.727,0.464l-0.737,0.353l-0.407,0.408l-0.547,0.369
		l-0.598,0.211l-0.5,0.111l-0.371-0.201L13.393-65l-0.273-0.24l-0.784-0.106l-0.917,0.01l-1.969,0.286l-1.825,0.328l-2.516,0.443
		l-2.294,0.227l-2.505,0.438l-1.155,0.01l-2.614,0.327l-2.655,0.281l-2.238,0.201l-1.758,0.237l-1.294,0.111l-2.016,0.323
		l-2.841,0.531l-4.619,0.75l-4.135,0.745l-3.315,0.624l-2.485,1.049l-1.649,0.841l-1.067,0.828l-0.83,1.046l-0.593,0.111
		l-1.057-0.328l-1.304-0.624l-1.186-0.211l-3.191,0.422l-2.722,0.423l-2.835,0.328l-2.253,0.206l-3.31,0.428l-3.784,0.539
		l-2.604,0.418l-2.84,0.325h-1.305l-0.825-0.531l-0.361-0.739l-0.355-0.74l-0.238-0.743l-0.593-0.624l-1.067-0.423l-2.202,0.062
		l-0.335,4.314l-1.722,5.511l-2.711,4.888l-2.599,5.812l-1.248,4.282l0.511,6.104l-1.211,4.126l-3.099,5.199l-6.027,5.818
		l-2.964,1.908l-5.815,4.065l-3.443,2.928l-1.202,2.292l-1.206,5.511l-1.562,6.246l-1.546,4.287l-1.882,2.604l-3.438,2.143
		l-2.232,1.527l-1.717,1.387l-0.856,1.654l-1.191,9.971l-0.505,8.697l3.604,2.203l0.866,0.783l0.871,0.865l1.279,0.912l2.876,0.295
		l1.33,0.406l0.944,0.521l1.01,0.572l0.526,0.377l0.382,0.5l0.175,0.484l0.078,0.633l0.072,0.604l0.17,0.408l0.428,0.205
		l0.985,0.227l1.072,0.258l1.134,0.465l1.211,0.742l0.372,0.396l0.33,0.109l1.299-0.197l1.217,0.115l1.805,0.365l1.438,0.324
		l1.552,0.592l1.186,0.852l0.69,0.773l0.583,0.867l0.397,0.68l0.325,0.748l0.211,0.406l0.176,0.109l0.386-0.037l1.48-0.676
		l1.794-0.748l0.881-0.328l0.655-0.207l0.742,0.113l0.779,0.531l0.34,0.469l0.109,0.629l0.113,0.98l0.093,0.768l0.067,0.562
		l0.139,0.139l0.645,0.066l1.191-0.098l0.855-0.221l0.284-0.33l0.273-0.764l0.01-0.928l0.413-1.578l0.263-0.484l0.458-0.551
		l0.624-0.453l0.552-0.367l0.51-0.113h1.201l1.253,0.104l1.969,0.416l1.743,0.49l1.851,0.779l0.882,0.346l1.825,0.938l1.831,0.908
		l0.139,0.057l0.129,0.604l0.263,0.701l0.248,0.33l0.211,0.113l0.773,0.113l1,0.088l0.516,0.107l0.769,0.062l0.783,0.082l0.799,0.65
		l0.361,0.793l0.546,0.912l0.072,0.248l0.17,0.107l0.402,0.072l1.351,0.232l1.263,0.553l1.072,0.598l0.799,0.676l0.845,0.551
		l0.459,0.525l0.825,0.98l0.351,0.586l0.227,0.311l0.01,0.01l0.258,0.135l0.242,0.021l0.149-0.031l0.051,0.01l1.686,0.396
		l2.614,0.465l1.794-0.012l1.815-0.221l1.81-0.125l2.124-0.293l1.015,0.006l0.614,0.113l1.196,0.545l1.294,0.367l2.088,0.148
		l2.402,0.166l2.284-0.176l2.093-0.773l1.242-0.793l1.005-0.836l1.201-0.258l0.619,0.041l0.536,0.113l0.809,0.547l0.902,1.227
		l1.052,1.342l1.01,0.918l0.794,0.689l1.227,0.129l4.104,0.242l2.397,0.248l3.201-0.061l1.784,0.123l3.511-0.021l4.243-0.33
		l4.068-0.113l3.119,0.092l2.088,0.145l3.15-0.324l3.856-0.324l3.021-0.613l2.129-0.598l1.572-0.928l1.237-0.811l1.124-0.268
		l0.551,0.035l1.217,0.242l2.732,0.908l2.691,1.32l2.155,1.133l1.401,0.867l1.908,0.494l1.288,0.371l2.315,0.031l3.433,0.051
		l2.084,0.018l1.211-0.109l0.995-0.088l0.465,0.035l0.999,0.279l1.021,0.072l1.655-0.062l-0.495,0.836l-0.587,1.125l-0.562,0.83
		l-0.552,0.758l-0.917,0.941l-0.938,0.918l-1.16,0.953l-0.851,0.734l-1.434,0.941l-0.639,0.49l-0.562,0.578l-0.442,0.35L53.6,87.556
		l-0.109,0.328l0.021,0.393l0.061,0.352l0.201,0.441l0.32,0.49l0.176,0.469l0.082,0.496l-0.011,0.633l-0.103,0.459l-0.247,0.418
		l-0.413,0.355l-0.769,0.299l-1.422,0.332l-0.454,0.113l-0.175,0.113l-0.104,0.184l0.052,0.578L50.76,95l0.051,0.979v0.99
		l0.088,0.443l0.062,0.119l0.175,0.201l0.546,0.299l1.341,0.77l1.69,1.07l1.434,0.842l1.263,0.787l0.65,0.326l1.041,0.551
		l0.629,0.459l0.712,0.582l0.392,0.238l0.433,0.107l0.506,0.412l0.556,0.568l0.187,0.252l0.32,0.355l0.535,0.598l0.361,0.383
		l0.289,0.365l0.371,0.293l0.483,0.496l0.552,0.443l0.366,0.277l0.392,0.311l0.553,0.396l0.752,0.475l0.552,0.396l0.278,0.248
		l0.412,0.18l0.732,0.512l0.736,0.494l0.547,0.453l0.475,0.186l0.558,0.537l0.7,0.324l0.381,0.139l0.496,0.156l0.639,0.174
		l0.475,0.191l0.515,0.191l0.021,0.004l0.412,0.119l1.16,0.324l1.284,0.238l1.366,0.271l1.016,0.188l0.587,0.031l0.547-0.021
		l0.67,0.01l0.207-0.113l0.185-0.094l0.052-0.205l-0.031-0.186l-0.103-0.135l-0.207-0.072l-0.907-0.07l-1.33-0.279l-1.257-0.207
		l-0.769-0.061l-0.547-0.125l-0.329-0.268l-0.108-0.145l-0.052-0.258l0.083-0.268l0.134-0.248l0.278-0.23l0.237-0.119l0.278-0.109
		l0.453-0.057h0.774l0.545,0.031l0.867,0.072l0.772-0.041l0.723,0.113l0.433,0.109l0.33-0.021l0.434-0.109l0.612-0.314l0.469-0.381
		l0.279-0.346l0.083-0.617l-0.083-0.486l-0.305-0.529l-0.31-0.367l-0.494-0.475l-0.413-0.205l-0.67-0.434l-0.618-0.598l-0.196-0.248
		l-0.03-0.305l0.107-0.418l0.412-0.752l0.599-1.072l0.361-0.711l0.324-0.484l0.278-0.434l0.382-0.324l0.443-0.396l0.7-0.496
		l0.434-0.32l0.217-0.314l0.154-0.355V100l-0.02-0.314l-0.278-0.303l-0.248-0.176l-0.479-0.258l-0.582-0.258l-0.718-0.324
		l-0.309-0.1l-0.155-0.186l-0.082-0.102l0.082-0.176l0.155-0.258l0.442-0.402l0.589-0.334l0.701-0.326l0.433-0.104l0.495,0.006
		l0.227,0.107L86.542,97l0.526,0.783l0.186,0.176l0.155,0.031l0.175-0.082l0.387-0.207l1.217-0.475l0.494-0.207L89.879,97
		l0.123,0.076l0.107,0.295l0.145,0.434l0.31,0.299l0.331,0.113l0.386,0.082l0.33-0.113l0.619-0.381l0.731-0.557l0.959-0.918
		l0.773-0.842L95.239,95l0.599-0.506l0.876-0.535l1.403-0.938l0.639-0.455l0.995-0.607l0.629-0.387l0.562-0.139l0.805-0.115
		l0.814-0.016l1.016,0.109l0.835,0.191l0.557,0.107l-0.067-0.34l-0.107-0.195l-0.434-0.289l-0.541-0.402l-0.171-0.264l-0.164-0.324
		l0.072-0.227l-0.109-0.166l-0.02-0.387l0.03-0.23l-0.077-0.547l0.047-0.814l0.03-0.887l0.186-0.66l0.32-0.562l0.325-0.746
		l0.459-0.66l0.442-0.65l0.525-0.547l0.732-0.619l1.19-0.943l0.888-0.85l1.196-1.217l0.896-1.299l0.392-0.918l0.155-0.959
		l-0.031-0.959l0.021-0.764v-0.67l0.118-0.484l0.114-0.949l0.149-0.906l0.314-1.012l0.562-1.02l0.479-0.578l0.691-0.422l1.277-0.873
		l1.578-0.787l1.016-0.65l0.974-0.562l1.311-0.756l1.206-0.578l0.994-0.242l1.867-0.449l0.737-0.145l0.506,0.062l0.788,0.139
		l0.902,0.17l0.691,0.088l0.68,0.217l0.907,0.205l0.402,0.037l1.588,0.125l1.732-0.053l1.319-0.248l1.207-0.412l1.417-0.453
		l0.67-0.527l0.789-0.68l1.355-1.465l0.506-0.771l0.01-0.041l0.062-0.691l-0.154-0.639l-0.377-0.795l-0.691-0.598l-0.953-0.443
		l-1.006-0.361l-0.964-0.537l-0.989-0.705l-0.65-0.572l-0.412-0.752l-0.557-0.785l-1.263-1.258l-1.351-1.545l-0.558-0.775
		l-0.433-0.607l-0.299-1.133l-0.217-1.311l-0.67-1.371l-0.521-1.176l-0.66-1.135l-0.387-0.551l-0.552-0.635l-0.588-0.547
		l-0.562-0.994l-0.258-0.984l-0.145-1.207l-0.041-0.805l-0.305-0.959l-0.299-0.67l-0.185-0.535l-0.476-0.66l0.248-0.309l0.552-0.361
		l0.547-0.32l0.247-0.205l0.608-0.402l0.701-0.229l0.551-0.113l0.599-0.092l0.671,0.041l0.69,0.037l0.572-0.037l0.541-0.062
		l0.475-0.145l0.608-0.258l0.536-0.391l0.567-0.547l0.741-0.773l0.423-0.547l0.196-0.176l0.401-0.205l1.135-0.547l0.866-0.412
		l0.769-0.35l0.876-0.562l0.877-0.768l0.587-0.609l0.335-0.434l0.218-0.514l0.123-0.506l0.041-0.496l-0.021-0.359v-0.531
		l0.108-0.572l0.108-0.629l0.052-0.553l-0.031-0.221l-0.247-0.514l-0.176-0.65l-0.159-0.816l-0.187-0.683l-0.227-0.469l-0.361-0.601
		l-0.546-0.549l-0.351-0.708l-0.145-0.237l-0.355-0.51l-0.237-0.529L136.88,13.9l-0.088-0.56V12.97l0.165-0.943l0.186-0.645
		l0.258-0.443l0.401-0.519l0.526-0.58l0.511-0.348l0.397-0.281l1.021-0.418l0.721-0.384l0.108-0.085l0.258,0.371l0.846,0.454
		l2.608,0.379l4.156,0.175l4.618-0.039l1.305-0.237l1.15-0.222l0.768-0.09l1.052,0.149l1.269-0.075l1.428-0.263l0.758-0.387
		l0.552-0.5l0.67-0.941l0.608-0.502l0.186-0.052l0.402-0.116l1.264,0.105h1.103l1.021-0.11l1.319-0.176l1.236-0.299l0.918-0.472
		l0.769-0.766l1.211-0.595l0.32-0.907l0.134-1.315L172.9,1.13l-0.536-0.92l-3.919-4.934l-2.525-2.952l-0.314-0.397L165.41-8.234"/>
</g>
<g id="Layer_1_1_">
</g>
</svg>
