<?xml version="1.0" encoding="utf-8"?>
<!-- Generator: Adobe Illustrator 16.0.4, SVG Export Plug-In . SVG Version: 6.00 Build 0)  -->
<!DOCTYPE svg PUBLIC "-//W3C//DTD SVG 1.1//EN" "http://www.w3.org/Graphics/SVG/1.1/DTD/svg11.dtd">
<svg version="1.1" id="Layer_1" xmlns="http://www.w3.org/2000/svg" xmlns:xlink="http://www.w3.org/1999/xlink" x="0px" y="0px"
	 width="301.108px" height="226.542px" viewBox="-106.924 -80.406 301.108 226.542"
	 style="enable-background:new -106.924 -80.406 301.108 226.542;" xml:space="preserve">
<g id="Layer_123">
	<path id="Tharparkar" style="fill:#CCCCCC;stroke:#FFFFFF;stroke-width:1.15;" d="M68.581-76.172L68.581-76.172l-1.92,1.595
		l-0.25,0.489l-0.322,0.595l-0.493,0.389l-0.684,0.364l-1.24,0.767l-1.052,0.542l-1.373,0.803l-1.013,0.434l-1.007,0.546
		l-0.631,0.582l-0.565,0.696l-0.867,0.91l-0.444,0.24l-0.802,0.197l-1.421,0.181l-0.723,0.397l-0.486,0.478l-0.243,0.361l-0.118,0.5
		v0.342l0.078,0.44l0.102,0.361l0.057,0.392l-0.062,0.4l-0.349,0.214l-0.684,0.332l-0.404,0.254l-0.243,0.364l-0.282,0.645
		l-0.165,0.799l-0.631,1.025l-0.747,0.947l-0.684,0.693l-0.203,0.46l0.068,0.364l0.685,0.105l2.176,0.155l0.848,0.003l0.565-0.364
		l0.448-0.211l0.275,0.007l0.322,0.095l0.407,0.197h0.283l0.927-0.585l1.013-1.056l0.684-0.249l0.44-0.04l0.729,0.148l0.967,0.335
		l1.407,0.404l1.775,0.201l0.769,0.099l0.282,0.147l-0.006,0.145v0.193l-0.197,0.211l-0.604,0.48l-0.685,0.4l-0.689,0.211
		l-0.772,0.395l-0.911,0.769l-1.193,1.322l-1.476,1.384l-1.618,1.334l-0.348,0.514l0.065,0.4l0.282,0.353l0.685,0.345l0.724,0.147
		l0.446-0.072l0.685-0.582l0.565-0.946l0.368-0.397l0.565-0.244h0.235l0.165,0.211l0.032,0.91l0.086,0.333l0.221,0.249l0.283,0.072
		l0.644-0.036l0.525-0.352l1.049-1.18l0.904-0.727l1.331-0.835l0.684-0.44l0.635-0.105l0.576,0.072l0.887,0.256l1.242,0.589
		l0.592,0.168l0.888,0.003l0.565-0.358l0.74-0.095l0.322,0.099l0.075,0.193l0.042,0.253l-0.042,0.211l-0.207,0.214l-0.447,0.289
		L71.2-51.08l-0.197,0.25l-0.328,0.361v0.146l0.204,0.296l0.354,0.4l0.115,0.257l-0.007,0.352l-0.108,0.253l-0.21,0.401l-0.283,0.21
		l-0.69,0.45l-0.275,0.438l-0.004,0.48l0.211,0.476l0.391,0.257l0.645,0.293l0.44,0.22l0.158,0.253v0.48l-0.164,0.486l-0.398,0.767
		l-1.207,1.235l-1.084,0.947l-1.746,1.052l-1.206,1.049l-0.904,0.914l-0.282,0.549l-0.007,0.361l0.174,0.477l0.069,0.44
		l-0.329,0.289l-0.52,0.194l-0.407,0.293l-0.118,0.331l0.049,0.333l0.204,0.44l0.684,0.486l0.632,0.253l0.645,0.043l1.492,0.003
		l0.196,0.072v0.145l-0.068,0.332l-0.401,0.398l-0.243,0.545l-0.125,0.438l0.21,0.404l0.283,0.188l0.51,0.105l0.615-0.036
		l0.571-0.254l0.677-0.506l0.397-0.543l0.211-0.354l0.599-0.184h0.729l0.339-0.188l0.724-0.69l0.485-0.625l0.34,0.003l0.321,0.185
		v0.293l-0.046,0.585l-0.243,0.365l0.072,0.729l0.234,0.184l0.361-0.035l0.77-0.353l0.841-0.19l0.282,0.111l0.05,0.293l-0.184,0.47
		l-0.228,0.543v0.296l0.228,0.338l0.492,0.069l0.724-0.292l0.723-0.211h0.332l0.453,0.296l-0.005,0.397l-0.464,0.589l-1.454,1.085
		l-1.242,0.539L74.284-27.7l-1.473,0.753l-0.645,0.364l-0.519,0.29L71.2-26.087l-0.203,0.441l-0.171,0.549v0.736l0.328,0.253
		l0.401,0.293l0.44,0.072l0.322,0.039l0.565,0.346l0.361,0.184l0.631,0.04l0.559,0.049l0.283,0.397v0.296l-0.232,0.243l-0.566,0.398
		l-0.283,0.364l-0.049,0.585l0.079,0.582l0.032,0.878l-0.085,1.614l-0.164,0.792l0.157,0.651l0.333,1.052l0.213,2.518l-0.204,0.938
		l-0.525,1.035l-1.131,1.522l-1.131,1.052l-0.967,0.799l-1.006,0.874l-0.966,0.69l-0.526,0.289l-0.842,0.036l-0.158-0.354l0.04-0.25
		l0.211-0.631l0.064-0.444L66.98-7.487l-0.164-0.221l-0.77-0.207l-0.835-0.193l-0.453-0.07H64.32l-0.965,0.353l-0.605,0.358
		l-0.283,0.253l-0.203,0.349l-0.237,0.51l-0.243,0.184L61.46-6.175l-0.795-0.021L59.501-6.6l-0.928-0.184l-0.598-0.188l-1.973-0.075
		L54.879-7.01L54.39-6.813l-0.329,0.684l-0.204,0.335l-0.243,0.257h-0.322l-0.493-0.076h-0.401L52.24-5.504l-0.164,0.187
		l-0.282,0.632l-0.208,0.4L51.47-4.184l-0.331,0.146h-0.447l-0.395-0.069l-0.486-0.184l-0.401-0.073l-0.322-0.003l-0.565,0.05
		l-0.21,0.21L47.91-3.67l-0.2,0.22l-0.211,0.069l-0.44,0.072l-0.477-0.079l-0.806-0.253L43.89-4.288l-1.239-0.194h-0.615
		L41.121-4.41l-1.482,0.438L37.828-3.25l-0.964,0.441l-0.477,0.151L35.99-2.727l-0.397-0.336L35.24-3.694l-0.322-0.332l-0.21-0.069
		H34.39l-0.807,0.487l-0.68,0.496L32.42-2.746l-0.493,0.147l-1.473-0.075l-1.486-0.438l-2.126-1.025l-1.407-0.802L23.469-6.07
		L21.45-7.122l-2.295-1.035l-1.851-0.693L16.7-8.92h-0.608L15.74-8.74l-2.808,1.427l-2.929,1.614l-2.41,1.095L5.579-3.431
		l-1.92,1.135l-2.088,0.91L-1.591,0.1l-1.969,0.953l-1.607,0.77l-0.772,0.233l-0.684,0.368l-1.752,0.157l-0.8,0.26l-2.294,0.974
		l-2.074,0.634l-0.428,0.233l-0.007,0.342l0.414,0.349l1.568,0.94l1.93,1.282l0.828,0.772l0.51,0.395l1.93,0.992l1.516,0.701
		l0.52,0.348l0.092,0.197l-0.349,0.707l-0.27,0.282l-0.282,0.809l0.246,0.773l0.503,0.824l1.193,1.19l0.628,0.585l0.21,0.346
		l-0.331,0.342l-0.911,0.21l-1.111,0.221l-0.588,0.275l-0.01,0.379l0.207,0.236l-0.01,0.289l-0.267,0.345l-0.115,0.432l0.096,0.289
		l0.47,0.588l0.404,0.582l0.093,0.579l-0.021,0.674L-5,22.621l0.139,1.017l-0.072,0.575l-0.438,0.428l-1.637,0.545l-1.894,0.267
		l-1.456-0.693l-1.861-0.786l-1.525-1.098l-1.305-0.91l-1.184-0.915l-1.193-1.216l-1.403-0.796l-1.309-0.328l-0.631,0.417
		l-0.671,0.401l-0.66,0.592l-0.796,0.645l-0.757,0.769l-0.506,0.521l-0.539,0.732l-0.443,0.703l-0.536,0.849l-0.318,0.513
		l-0.207,0.667l-0.158,0.654l-0.188,0.77l-0.178,0.684l-0.151,0.339l-0.181,0.207l-0.059,0.072l-0.503,0.286l-0.799,0.233
		l-0.349,0.111l-0.257,0.171l-0.279,0.263l-0.349,0.444l-0.493,0.799l-0.582,0.703l-0.348,0.5l-0.839,0.825l-0.479,0.532
		l-1.193,1.349l-1.049,1.024l-0.703,0.642l-0.635,0.664l-0.592,0.599l-0.592,0.631l-1.081,1.286l-0.678,0.693l-0.946,0.696
		l-0.917,0.493l-0.612,0.272l-0.634,0.448l-0.565,0.525l-0.556,0.736l-1.045,1.009l-0.654,0.71l-0.474,0.415l-0.864,0.21
		l-0.77-0.017l-1.052-0.056l-0.349,0.011l-0.503,0.187l-0.49,0.592l-0.483,0.207l-0.348,0.068l-0.29-0.056l-0.289-0.145
		l-0.203-0.079l-0.254-0.171l-0.506,0.011l-0.161,0.003l-0.322,0.148l-0.194,0.177l-0.368,0.483l-0.368,0.447l-0.242,0.404
		l-0.362,0.453l-0.203,0.221l-0.28,0.415l-0.348,0.298l-0.483,0.261l-0.822,0.312l-1.049,0.667l-0.891,0.421l-0.582,0.717
		l-0.631,0.271l-4.155,0.995l-0.017,0.447l-0.056,0.354l-0.171,0.073l-0.171,0.181l-0.132,0.21l-0.131,0.355l-0.063,0.486
		l-0.181,0.483l-0.42,0.473l-0.497,0.431l-0.49,0.536l-0.538,0.283l-0.996,0.502l-1.391,0.441l-0.861,0.349l-0.303,0.335
		l-0.772,0.348l-1.631,0.543l-0.809,0.086l-0.681-0.065l-0.295,0.187l-0.175,0.208l-0.059,0.344l0.259,0.747l0.251,0.895
		l0.348,0.463l0.358,0.111l0.894,0.037l1.982,0.022l0.967,0.175l0.315,0.157l0.043,0.26l-0.135,0.329l-0.246,0.25l-0.368,0.21
		l-0.694,0.125l-0.732,0.171l-1.052,0.339l-0.658,0.23l-0.657,0.349l-0.411,0.246l-0.178,0.357l-0.21,0.23l-0.489,0.353l-0.875,0.63
		l-0.628,0.353l-0.463,0.47l-0.593,0.77l-0.634,0.91l-0.72,0.94l-0.146,0.625l-0.003,0.148l0.115,0.111l0.352,0.121l0.842,0.244
		l0.835,0.348l1.003,0.358l0.838,0.349l0.756,0.624l0.267,0.411l-0.06,0.253l-0.082,0.297l-0.407,0.21l-0.654,0.207l-0.585,0.486
		l-0.349,0.47l-0.178,0.358l-0.086,0.51l-0.029,0.657l0.011,0.957l-0.073,1.256l-0.036,0.917l-0.069,0.552l-0.299,0.388
		l-0.207,0.103l-0.167-0.003l-0.273-0.155l-0.431-0.489l-0.306-0.612l-0.349-0.634l-0.634-0.642l-0.589-0.571l-0.397-0.229
		l-0.404,0.032l-0.454,0.283l-0.371,0.328l-0.079,0.293l-0.01,0.213l0.108,0.346l0.253,0.559l0.638,0.532l0.704,0.685l0.667,0.631
		l0.467,0.678l0.864,0.769l0.23,0.349l-0.013,0.256l-0.083,0.257l-0.207,0.211l-0.21,0.249l-0.29,0.208l-0.249,0.209l-0.703,0.386
		l-0.619,0.275l-0.338,0.211l-0.168,0.184l-0.007,0.19l-0.026,0.044l0.635,0.357l0.49,0.444l0.391,0.239l0.478,0.51l0.16,0.45
		l-0.732,0.717l-0.97,1.131l-0.589,0.474l-0.428,0.115l-0.299-0.112l-0.21-0.499l-0.076-0.468l-0.131-0.542l-0.211-0.197h-0.167
		l-0.382,0.162l-1.145,0.9l-1.098,0.631l-1.567,0.938l-0.671,0.63l-1.345,0.815L-89,93.808l-1.099,0.907l-0.542,0.431l-0.897,0.316
		l-0.546,0.348l-0.799,0.631l-0.72,0.7l-0.293,0.661l-0.196,0.766l-0.418,0.927l-0.421,0.629l-0.503,0.272l-0.552,0.05l-0.497-0.151
		l-0.431-0.201l-0.296,0.047l-0.181,0.227l-0.167,0.312l-0.122,0.543l0.003,0.697l-0.039,0.581l-0.247,0.815l-0.292,0.546
		l-0.375,0.428l-0.243,0.467l-0.161,0.969l-0.118,1.67l-0.115,1.2l-0.168,0.773l-0.214,0.351l-0.368,0.471l-0.177,0.428l-0.24,1.235
		l-0.368,1.239l-0.125,0.539l0.086,0.628l0.207,0.697l0.089,0.895l0.006,0.696l-0.082,0.503l-0.338,0.382l-0.168,0.224l-0.243,1.177
		l0.391,1.769l0.986,1.933l0.907,1.473l0.605,1.053l0.131,0.488l-0.068,0.773l-0.122,0.989l-0.115,0.326l0.023,0.841l1.266-0.696
		l0.727-0.349l0.145-0.073l0.349-0.042l0.689-0.073l1.756,0.422l1.788,0.503l0.947,0.477l1.66,0.795l1.18,0.352l0.395,0.113
		l0.004,0.098v0.026l0.989,0.022h0.026l0.352,0.375l4.468,1.477l1.213,0.069l0.141,0.006l3.159-1.719l0.842-0.48l0.089-0.062
		l0.565-0.049l0.483-0.046l0.973-0.49l3.409-1.174l0.417-0.068l0.073-0.25l0.032-0.092l0.089-0.069l0.385-0.234l1.085-0.312
		l1.377-0.395l2.473-0.381l2.873,0.368l3.435,0.864l0.917,0.223l1.075,0.011l1.753,0.022l1.351-0.443l0.46,0.072l0.733-0.318
		l1.052-0.273l0.526-0.135l1.331,0.02l1.466,0.014l0.693,0.092l0.24,0.043l0.635,0.24l3.551,0.913l0.634,0.069l0.703,0.072
		l0.004,0.141v0.021l1.677-0.052l2.031-0.069l3.557-1.029l1.805-0.514l2.417-0.485l2.711-1.322l1.049,0.011l0.49,0.006l2.173,1.838
		l1.019,0.854l0.632,1.016l6.899,5.785l0.382,0.33l0.082,0.068l0.694,0.536l0.851,1.016l1.647,1.013l1.314,1.052l0.349,0.072
		l0.526,0.132l0.835,0.989l0.259,0.318l1.131,0.632l2.331,0.134l1.335,0.018l1.312,0.206l0.911,0.132l3.935,0.283l4.276,0.309
		l0.641-0.007l0.681-0.007l3.12,0.152l0.135,0.006l1.081,0.151l0.165,0.023l0.47,0.068l0.493-0.204l3.494,0.126l1.013-0.135
		l0.085,0.033l0.776,0.246l1.095-0.018l4.494-0.064l3.701-0.056l1.831-0.106l1.16-0.068l0.079-0.007l0.102-0.01l1.47-0.174
		l0.631-0.2l0.322-0.096l0.772,0.069l1.114-0.526l2.348-1.473l0.703-0.631l0.76-0.661l1.769-2.265l0.749-0.927l1.545-2.732
		l0.507-1.134l1.673-3.692l0.468-1.146l0.384-0.979l1.253-0.806l1.335-0.392l2.156-0.635l0.913-0.349l2.315-0.439l3.333-0.636
		l3.294-0.689l2.291-0.479l0.875-0.103l1.473-0.549l3.251-1.2l3.655-1.403l1.374-0.286l0.059-0.022l0.224-0.069l2.351-0.688
		l3.38-0.483l1.085-0.167l0.21-0.023l1.584-0.187l12.492-4.695l0.23,0.014l0.668,0.02l1.173-0.272l1.2-0.283l3.258-1.292
		l2.668-1.062l0.855-0.342l0.835-0.25l3.155-0.943l1.335-0.161l0.724-0.075l2.57,1.192l0.375,1.611l-0.164,1.121l-1.332,2.544
		l-0.184,0.283l-0.353,0.516l-1.068,0.773l-1.752,0.617l0.072,0.868l1.338,2.945l0.849,1.657l1.367,1.281l-1.38,1.193l-0.565,0.49
		l-0.178,0.635l0.249,0.545l0.047,0.014l1.89,0.585l-0.654,0.895l-0.039,0.056l-0.483,0.421l-0.289,0.25l-0.697,1.252l-0.007,0.19
		l-0.026,0.625l0.204,0.663l0.086,0.293l1.4,1.151l0.729,0.306l0.572,0.23l2.834,0.111l1.588,0.543l1.189,0.406l3.037,1.049
		l0.49,0.03l4.34,0.223l5.028,0.346l2.979,0.007l2.335,0.006l3.806-0.174l1.335-0.069l0.724-0.042l1.473-0.333l0.072-0.035
		l2.366-1.056l0.486-0.217l0.483-0.358l0.159-0.115l0.019-0.02l0.611-0.69l0.182-0.089l0.881-0.512l0.729-0.211l0.947-0.271
		l2.406-0.388l1.57-0.492l1.404-1.129l-1.578-1.189l-2.834-0.634l-0.946-0.862l-0.178-1.031v-0.007l0.276-0.986l0.874-0.874
		l3.183-1.233l0.122-0.062l0.104-0.056l1.217-0.592l1.223-0.621l1.038-0.924l1.302-1.167l3.439-0.91l1.614-1.22l1.87-1.396
		l1.473,0.091l1.512,0.812l0.033,0.017l0.506,0.197l1.089,0.413l0.256-0.025l1.631-0.139l1.498-0.351l1.677-0.836l2.456-2.357
		l1.802-1.745l4.326-1.035l1.788-1.479l-0.072-0.732l-0.069-0.845l-0.763-0.907l-0.532-0.307l-0.924-0.522l-1.052-0.211
		l-0.937-0.184l-1.67,0.214l-0.783,0.096l-3.608,0.02l-4.123,0.025l-0.276-0.206l-1.17-0.911l-0.507-0.161l-0.328-0.088
		l-0.211-0.353l-0.256-0.453l-0.24-1.499h-0.138l-0.493-1.916l-0.066-1.921l0.69-3.273l-0.282-2.314l-1.174-3.235l0.125-7.399
		l1.224-2.702l0.71-0.937l0.684-0.911l1.778-1.328l3.162-1.252l2.104-0.671l0.907-0.509l2.001-1.632l0.911-1.867l0.033-0.795
		l-0.517-0.77l-0.464-0.677l-0.66-1.335l-0.947-0.614l-1.446-1.828l-1.229-2.318l-0.461-0.857l-0.167-0.378l-1.2-2.945l-0.208-0.775
		l-0.114-0.49l-1.69-2.755l-2.926-4.504l-0.525-0.812l-1.4-1.795l-3.308-4.244l-0.949-2.012L159.8,26.927l-0.559-1.894l-0.868-2.912
		l-0.848-2.876v-1.125l-0.477-2.137l-0.632-2.926l-0.677-3.294l0.026-1.038l-0.27-1.026l-0.828-3.08l-0.632-0.897l-1.794-1.795
		l-1.651-1.646l-8.49-8.008l-2.581-2.482l-2.853-2.748l-1.066-3.438l-0.02-0.145l-0.059-0.438l-0.911-3.191l-0.088-0.349
		l-2.11-2.288l-2.506-2.722l-5.352-4.829l-0.144-0.74l-0.113-0.581l0.047-0.97l0.079-1.985l0.479-6.529l0.282-3.892l-0.841-6.894
		l0.049-2.61l0.014-1.302l0.065-2.916l0.021-0.999l0.992-7.702l-0.01-1.427l-0.264-1.082l-0.233-0.97l-0.354-0.589l-0.96-1.558
		l-0.763-0.739l-0.638-0.615l-1.308-0.608l-2.098-0.243l-1.697,0.007l-1.038-0.174l-0.099-0.017l-0.185,0.049l-1.334,0.353
		l-3.537,1.302l-0.704,0.644l-0.071,0.066l-0.083,0.02L109.765-73l-2.506,1.01l-0.763,0.247l-1.433,0.47l-5.023-0.073l-0.888-0.065
		l-7.146,0.806l-2.554,0.233l-0.711,0.092l-0.466-0.348l-1.256,0.345l-0.197,0.059l-0.914-0.017l-2.104-0.035l-6.488-1.982
		l-2.735-1.01l-1.771-0.467l-2.877-0.759l-1.11-1.003L68.581-76.172"/>
</g>
<g id="Layer_1_1_">
</g>
</svg>
