<?xml version="1.0" encoding="iso-8859-1"?>
<!-- Generator: Adobe Illustrator 16.0.4, SVG Export Plug-In . SVG Version: 6.00 Build 0)  -->
<!DOCTYPE svg PUBLIC "-//W3C//DTD SVG 1.1//EN" "http://www.w3.org/Graphics/SVG/1.1/DTD/svg11.dtd">
<svg version="1.1" xmlns="http://www.w3.org/2000/svg" xmlns:xlink="http://www.w3.org/1999/xlink" x="0px" y="0px" width="38.03px"
	 height="31.637px" viewBox="0 0 38.03 31.637" style="enable-background:new 0 0 38.03 31.637;" xml:space="preserve">
<g id="Layer_150">
	<g id="Layer_155">
		<path id="Gujranwala" style="fill:#CCCCCC;stroke:#FFFFFF;stroke-width:1.07;" d="
			M22.674,0.647L22.674,0.647l-0.016-0.091l-0.025-0.021h-0.039l-0.146,0.03l-0.566,0.182l-0.127,0.051l-0.038,0.039l-0.044,0.055
			l-0.012,0.06l0.009,0.086l0.009,0.109l-0.012,0.054l-0.024,0.027l-0.07,0.001l-0.09-0.004l-0.076-0.009l-0.04-0.043L21.3,1.076
			l-0.099-0.118l-0.052-0.032l-0.098-0.009l-0.062,0.018l-0.02,0.033l-0.006,0.016l0.026,0.032l0.038,0.021l0.001,0.021
			l-0.013,0.033L20.98,1.162l-0.031,0.049l0.001,0.038l0.008,0.055l0.008,0.06l0.002,0.07l-0.012,0.06l-0.025,0.027l-0.062,0.044
			l-0.107,0.083l-0.12,0.073l-0.14,0.083l-0.139,0.073L20.3,1.927l-0.089,0.045l-0.057,0.022L20.07,2.012h-0.069L19.949,2.03
			L19.88,2.063l-0.117,0.086L19.624,2.26l-0.056,0.061L19.53,2.36h-0.038l-0.021-0.016l-0.021-0.038l-0.014-0.032l-0.021-0.016
			l-0.025-0.005H19.36L19.315,2.27l-0.044,0.044l-0.094,0.153l-0.354,0.456l-0.068,0.088l-0.038,0.028l-0.05,0.033L18.61,3.106
			l-0.069,0.023l-0.108,0.023L18.364,3.18L18.3,3.198L18.179,3.2l-0.069,0.018l-0.103,0.029l-0.122,0.018l-0.069,0.001l-0.104,0.012
			l-0.057,0.028l-0.069,0.04l-0.106,0.083l-0.089,0.04l-0.069,0.012l-0.109,0.013l-0.05,0.033l-0.038,0.044l-0.03,0.066l0.008,0.054
			l0.012,0.085l0.041,0.107l0.047,0.107l-0.005,0.071l-0.03,0.066l-0.057,0.039l-0.063,0.028l-0.083,0.001l-0.097-0.021
			l-0.085-0.042l-0.046-0.069l-0.055-0.107L16.646,3.81l-0.062-0.173l-0.04-0.081l-0.058-0.021L16.434,3.53l-0.052,0.001
			L16.325,3.57l-0.102,0.072l-0.176,0.149l-0.151,0.1L15.72,3.997l-0.171,0.079l-0.12,0.083l-0.087,0.077l-0.094,0.105l-0.1,0.143
			l-0.088,0.109l-0.093,0.132l-0.1,0.143l-0.086,0.126l-0.068,0.083l-0.088,0.072l-0.113,0.083l-0.11,0.088l-0.051,0.066
			L14.29,5.485L14.253,5.55l-0.067,0.109l-0.08,0.121L14.05,5.846l-0.106,0.078L13.83,6.002l-0.202,0.09l-0.312,0.103l-0.203,0.074
			l-0.279,0.119l-0.12,0.04l-0.185,0.047l-0.127,0.04L12.3,6.522l-0.142,0.002l-0.166-0.002L11.9,6.491l-0.045-0.042L11.81,6.434
			L11.74,6.435l-0.224,0.058l-0.171,0.063l-0.102,0.045l-0.258,0.11L10.84,6.757l-0.271,0.108l-0.151,0.09l-0.114,0.056
			l-0.058,0.001L10.2,6.986l-0.026-0.027l-0.026-0.005l-0.036,0.001L10.06,6.972L9.926,7.029L9.71,7.098L9.545,7.16L9.431,7.2
			L9.386,7.19L9.354,7.164L9.327,7.115L9.32,7.066L9.294,7.05L9.236,7.046L9.152,7.047L9.07,7.07L9.033,7.103L9.008,7.136
			L8.972,7.219L8.935,7.258L8.891,7.286L8.846,7.303L8.776,7.309L8.692,7.278L8.57,7.22L8.422,7.18L8.331,7.165l-0.09-0.004
			l-0.05,0.012L8.153,7.195L8.129,7.234L8.104,7.261L8.06,7.273L7.982,7.259H7.931L7.868,7.26L7.81,7.277L7.779,7.31L7.76,7.343
			L7.781,7.37l0.004,0.034L7.767,7.437L7.722,7.449L7.652,7.434l-0.116-0.02L7.42,7.405L7.306,7.424l-0.15,0.074L7.004,7.587
			L6.897,7.676l-0.206,0.15l-0.14,0.095L6.49,7.955L6.432,7.977L6.363,7.995L6.254,8.013L6.185,8.02L6.115,8.049L6.027,8.105
			L5.941,8.152l-0.057,0.05L5.841,8.246L5.797,8.268L5.746,8.269l-0.04-0.048L5.66,8.189L5.563,8.175L5.441,8.172L5.236,8.116
			L5.184,8.1L5.14,8.112L5.115,8.134l-0.02,0.033l0.04,0.043l0.026,0.048l0.001,0.039L5.139,8.324L5.095,8.346L5.031,8.358
			L4.98,8.392L4.937,8.447L4.895,8.534L4.865,8.611L4.835,8.66L4.766,8.716L4.616,8.8L4.553,8.839H4.508L4.481,8.813L4.479,8.699
			L4.478,8.428L4.457,8.331L4.405,8.327L4.336,8.345L4.298,8.356L4.279,8.389l0.002,0.038l0.02,0.06l0.002,0.038L4.291,8.574
			L4.268,8.65l0.001,0.049l0.016,0.054L4.298,8.78l0.007,0.043L4.273,8.856L4.251,8.922l-0.003,0.13L4.202,9.259L4.185,9.341
			L4.141,9.374L4.013,9.393l-0.18,0.004L3.724,9.361L3.665,9.303L3.638,9.244L3.574,9.223L3.541,9.175L3.495,9.116L3.449,9.074
			L3.416,9.026L3.342,8.908L3.311,8.714L3.25,8.59L3.217,8.547L3.148,8.544L3.053,8.541L2.918,8.554L2.83,8.583L2.799,8.61
			L2.768,8.659L2.725,8.725L2.67,8.791L2.607,8.917L2.552,8.983L2.508,9.006L2.449,9.012L2.397,9.003L2.346,8.977L2.287,8.913
			l-0.04-0.054L2.208,8.833L2.137,8.818L2.01,8.842l-0.203,0.08l-0.101,0.04L1.669,9l-0.02,0.044L1.627,9.131L1.623,9.186
			l-0.02,0.043L1.572,9.262L1.503,9.274L1.344,9.288L1.139,9.292L0.883,9.28L0.741,9.272L0.71,9.28L0.605,9.298L0.544,9.332
			L0.545,9.37L0.56,9.451l0.021,0.08L0.646,9.77l0.058,0.199l0.056,0.167l0.037,0.184l0.035,0.119l0.05,0.405l0.02,0.232
			l-0.001,0.168l0.035,0.118l0.047,0.102l0.072,0.08l0.132,0.128l0.158,0.176l0.144,0.122l0.078,0.058l0.042,0.113l0.018,0.125
			l0.038,0.265l0.026,0.043l0.071,0.036l0.021,0.048l-0.003,0.136l-0.014,0.157l0.031,0.163l0.079,0.123l0.173,0.225l0.216,0.196
			l0.197,0.213l0.179,0.208l0.144,0.127l0.054,0.069l0.026,0.064l-0.027,0.109l-0.104,0.251l-0.047,0.093l-0.023,0.06l-0.017,0.093
			l0.021,0.059l0.116,0.085l0.221,0.088l0.226,0.087l0.162,0.089l0.124,0.117l0.158,0.16l0.132,0.177l0.021,0.075l0.002,0.038
			l-0.045,0.05l-0.056,0.039l-0.025,0.022l-0.018,0.055l0.015,0.064l0.027,0.07l0.032,0.032l0.083-0.002l0.069-0.007l0.116,0.03
			l0.115,0.025l0.141-0.002l0.09,0.009l0.059,0.042l0.06,0.075l0.11,0.197l0.074,0.162l0.031,0.216L4.729,17.1l0.078,0.053
			l0.096,0.037l0.099,0.08l0.11,0.111l0.092,0.068l0.06,0.068l0.029,0.098l0.053,0.074l0.098,0.063l0.135,0.073l0.109,0.035
			l0.078,0.025l0.051-0.001l0.101-0.071L5.84,17.99l0.01,0.152l-0.021,0.102l-0.085,0.148l-0.087,0.172l-0.021,0.116l-0.06,0.29
			l-0.034,0.146l-0.016,0.126l-0.003,0.069l0.015,0.059l0.046,0.089l0.053,0.114l0.09,0.195l0.013,0.164l-0.008,0.18l-0.038,0.136
			l-0.076,0.11l-0.075,0.078l-0.069,0.055l-0.041,0.039l-0.009,0.018v0.027l0.006,0.053l0.039,0.059l0.043,0.047l0.056,0.022
			L5.689,20.8l0.131,0.017l0.109,0.062l0.146,0.083l0.154,0.098l0.188,0.098l0.261,0.111l0.149,0.071l0.055,0.017l0.007,0.025
			l0.003,0.043l-0.01,0.039l-0.024,0.085L6.8,21.645l-0.077,0.078l-0.104,0.066l-0.083,0.079l-0.054,0.046l-0.028,0.038L6.447,21.98
			l-0.006,0.055l0.035,0.068l0.071,0.117l0.067,0.129l0.054,0.114l0.039,0.14l0.013,0.11l-0.013,0.104l-0.023,0.117l-0.042,0.092
			l-0.092,0.119l-0.084,0.181l-0.038,0.081l-0.071,0.076l-0.111,0.09l-0.123,0.091l-0.106,0.088l-0.083,0.079l-0.07,0.076
			l-0.032,0.076L5.83,24.088l0.03,0.081l0.054,0.114l0.012,0.025l0.087,0.07l0.072,0.062l0.032,0.06l0.066,0.042l0.155,0.07
			l0.097,0.091l0.086,0.065l0.115,0.17l0.033,0.059l0.061,0.091l0.067,0.124l0.082,0.109L6.962,25.4l0.104,0.041l0.162,0.043
			l0.21,0.006l0.394,0.031l0.173,0.035l0.107,0.03l0.104,0.067l0.123,0.065l0.098,0.069l0.112,0.072l0.066,0.047l0.067,0.017
			l0.074-0.007l0.085-0.041l0.124-0.092l0.079-0.04L9.1,25.736l0.032,0.026l0.019,0.056l-0.019,0.053l-0.038,0.027l-0.057,0.054
			l-0.017,0.04l-0.013,0.109L8.994,26.26l-0.048,0.126L8.899,26.48l-0.048,0.066l-0.041,0.04l-0.102,0.076l-0.098,0.049
			l-0.152,0.103l-0.107,0.082L8.33,26.96l-0.051,0.058l-0.082,0.057l-0.104,0.061l-0.066,0.039L7.881,27.23l-0.058,0.021
			l-0.066,0.016H7.726l-0.041,0.014l-0.003,0.017l0.017,0.067l0.057,0.13l0.069,0.106l0.111,0.104l0.181,0.12l0.172,0.138l0.18,0.12
			l0.12,0.109l0.168,0.203l0.094,0.102l0.176,0.212l0.062,0.076l0.021,0.065l0.009,0.09l-0.016,0.182l-0.058,0.24l-0.067,0.25
			L8.916,29.73l-0.013,0.057l0.003,0.037l0.034,0.017l0.061-0.017l0.033-0.021l0.058-0.021l0.071,0.005l0.091,0.065l0.154,0.118
			l0.135,0.117l0.103,0.09l0.056,0.019l0.087,0.018l0.189-0.021l0.206-0.062l0.15-0.031l0.226,0.016l0.121,0.033l0.229,0.045
			l0.3,0.067l0.193,0.048l0.058,0.028l0.046,0.062l0.087,0.072l0.091,0.012l0.062-0.011l0.068-0.055l0.116-0.154l0.104-0.151
			l0.06-0.15l0.021-0.09l0.041-0.044l0.068-0.033l0.096-0.021l0.29-0.028l0.235-0.046l0.141-0.022h0.088l0.026,0.028l0.009,0.041
			l-0.014,0.051l-0.032,0.075l-0.007,0.082l-0.016,0.094l0.012,0.132v0.188l-0.013,0.137l0.008,0.06l0.047,0.039l0.157,0.049
			l0.173,0.015l0.249-0.015l0.115,0.006l0.206,0.02l0.36-0.023l0.268-0.049l0.102-0.016h0.07l0.088,0.027l0.099,0.016l0.091-0.016
			l0.104-0.049l0.045-0.051l0.003-0.07l-0.029-0.098l0.001-0.049l0.032-0.025l0.113-0.025l0.217,0.006l0.162,0.016l0.104,0.043
			l0.122,0.086l0.082,0.11l0.085,0.147l0.088,0.082l0.091,0.06l0.104,0.011l0.075-0.002l0.125,0.021l0.146,0.066l0.13,0.092
			l0.104,0.067l0.147,0.035l0.114-0.021l0.081-0.029L17.36,31l0.035-0.012l0.062-0.01l0.087,0.022l0.104,0.037l0.103,0.026
			l0.092-0.011l0.12-0.053l0.06-0.069l0.331,0.063l0.261,0.058l0.184,0.031l0.479,0.018l0.161-0.012l0.124-0.042l0.092-0.078
			l0.087-0.101l0.139-0.182l0.085-0.065l0.233-0.084l0.188-0.063l0.15-0.035l0.099-0.054l0.07-0.073l0.02-0.098l0.021-0.186
			l0.016-0.149l0.018-0.086l0.043-0.056l0.057-0.027L21,29.71l0.114,0.021l0.168,0.041l0.168,0.029l0.122,0.004l0.164-0.022
			l0.119-0.065l0.085-0.044l0.108-0.124l0.075-0.203l-0.006-0.096l-0.031-0.088l-0.054-0.073l-0.054-0.042l-0.023-0.072l0.06-0.076
			l0.109-0.14l0.215-0.207l0.137-0.114l0.161-0.074l0.142-0.034l0.159-0.026l0.168,0.006l0.127,0.053l0.138,0.068l0.137,0.053
			l0.223,0.016l0.215,0.008l0.242-0.031l0.217-0.031l0.171-0.058l0.209-0.095l0.144-0.066l0.094-0.013l0.12,0.013l0.127,0.061
			l0.146,0.107l0.117,0.061l0.093,0.004l0.085-0.014l0.122-0.02l0.142-0.035l0.13,0.006l0.074,0.01l0.052,0.064l0.073,0.027
			l0.065,0.002l0.074-0.021l0.077-0.061l0.062-0.117l0.108-0.146l0.091-0.123l0.088-0.076l0.077-0.053l0.064-0.015l0.084,0.003
			l0.165,0.043l0.09,0.059l0.145,0.109l0.17,0.133L27.79,28.3l0.082,0.043l0.166,0.03l0.224-0.016l0.261,0.002l0.179-0.019
			l0.181-0.073l0.069-0.068l0.097-0.092l0.069-0.084l0.08-0.108l0.061-0.093l0.034-0.118l0.003-0.048l0.03-0.062l0.04-0.039
			l0.131-0.011l0.066-0.053l0.031-0.055l0.059-0.062l0.051-0.062l0.105-0.068l0.075-0.028h0.225h0.194l0.132-0.019l0.076-0.045
			l0.042-0.078l0.014-0.079l0.042-0.103l0.061-0.068l0.116-0.092l0.098-0.082l0.188-0.184l0.201-0.23l0.092-0.123l0.089-0.107
			l0.129-0.138l0.222-0.134l0.209-0.08l0.097-0.084l0.021-0.047l-0.025-0.047l-0.063-0.02l-0.007-0.048l0.052-0.085l0.097-0.092
			l0.107-0.084l0.114-0.066l0.198-0.057l0.16-0.033l0.186,0.023l0.13,0.027l0.094-0.004l0.093-0.005l0.136-0.091l0.097-0.06
			l0.069-0.092l0.054-0.108l0.031-0.095l0.043-0.103l0.041-0.069l0.032-0.086l0.023-0.086l-0.005-0.095l-0.031-0.113l-0.042-0.081
			l-0.062-0.073l-0.023-0.057l0.021-0.079l0.026-0.077l0.078-0.077l0.151-0.049l0.151-0.042l0.228-0.079l0.142-0.019l0.297,0.035
			l0.316,0.013l0.177,0.007l0.132-0.027l0.076-0.027l0.087-0.053l0.078-0.068l0.044-0.133l0.017-0.143l-0.002-0.135l0.042-0.102
			l0.069-0.068l0.145-0.082l0.229-0.086l0.239-0.118l0.229-0.118l0.242-0.181l0.156-0.129l0.138-0.138l0.078-0.068l-0.071-0.062
			l-0.018-0.086l-0.021-0.068L37.04,21.45l-0.066-0.104l-0.086-0.087l-0.066-0.062l-0.065-0.049l-0.052-0.022l-0.061-0.017
			l-0.305-0.03l-0.287-0.046l-0.104-0.025l-0.064-0.012l-0.038-0.021l-0.024-0.028L35.8,20.883l-0.029-0.066l-0.018-0.051
			l-0.038-0.049l-0.041-0.045l-0.032-0.039l-0.01-0.012l-0.054-0.038l-0.048-0.03l-0.017-0.055l-0.006-0.046l-0.01-0.048
			l-0.021-0.04l-0.062-0.05l-0.11-0.072l-0.101-0.047l-0.108-0.037l-0.055-0.029l-0.037-0.053l-0.018-0.057l-0.025-0.062
			l-0.048-0.051l-0.024-0.056l0.008-0.058l0.023-0.069l0.025-0.045l0.04-0.043l0.039-0.033l0.052-0.02l0.034-0.005l0.064,0.003
			l0.057-0.009l0.051-0.017l0.048-0.026l0.044-0.04l0.027-0.035l0.001-0.04l-0.007-0.05l-0.021-0.053l-0.069-0.067l-0.086-0.079
			l-0.1-0.077l-0.041-0.057l-0.023-0.056l-0.027-0.031l-0.075-0.066l-0.116-0.087l-0.053-0.04l-0.043-0.013l-0.028,0.006
			l-0.051-0.005l-0.046-0.027l-0.109-0.045l-0.106-0.051l-0.065-0.042l-0.012-0.054l0.009-0.059l0.007-0.052l0.014-0.052
			l0.021-0.026l0.015-0.028l-0.008-0.033l-0.018-0.027l-0.028-0.012l-0.048-0.002l-0.083,0.002l-0.061-0.016L34.115,18.2
			l-0.006-0.054l-0.004-0.072l0.007-0.053l0.018-0.026l0.03-0.015l0.025-0.021l0.012-0.027l0.013-0.022l0.034-0.017l0.04-0.02
			l0.026-0.027l0.012-0.031l0.006-0.037l0.026-0.029l0.046-0.037l0.027-0.05l0.005-0.032l-0.017-0.06l-0.021-0.078l-0.023-0.05
			l-0.039-0.038l-0.056-0.009l-0.082-0.002l-0.057-0.006l-0.041-0.033l-0.062-0.028l-0.13-0.017l-0.09-0.015l-0.048-0.028
			l-0.021-0.033l-0.036-0.01l-0.043,0.012l-0.031,0.029l-0.065,0.03l-0.062,0.003l-0.061-0.015l-0.096-0.035l-0.178-0.053
			l-0.242-0.069l-0.135-0.068l-0.066-0.021l-0.048-0.002l-0.081,0.01l-0.05-0.005l-0.029-0.017l-0.019-0.043l0.005-0.064
			l0.021-0.106l0.008-0.052l-0.017-0.04l-0.027-0.043l-0.073-0.021l-0.088-0.006l-0.103,0.014l-0.09-0.003l-0.09-0.018l-0.141-0.031
			l-0.104-0.025l-0.08-0.013l-0.036,0.008l-0.021,0.033l0.008,0.05l0.028,0.067l0.041,0.077l0.021,0.075v0.05l-0.014,0.028
			l-0.029,0.012l-0.056,0.003l-0.114-0.014l-0.205-0.038l-0.139-0.042l-0.066-0.044l-0.031-0.049l-0.007-0.077l0.007-0.081
			l-0.023-0.043l-0.047-0.013l-0.06,0.006l-0.06,0.026l-0.083,0.037l-0.097,0.055l-0.071,0.042l-0.071,0.02l-0.121,0.006
			l-0.104-0.019l-0.076-0.03l-0.076-0.021H30.17l-0.057,0.016l-0.084,0.007l-0.104,0.001l-0.062,0.006l-0.119,0.023l-0.064-0.008
			l-0.04-0.013l-0.018-0.022l-0.007-0.053l-0.007-0.072l-0.019-0.095l-0.042-0.072l-0.06-0.134l-0.064-0.149l-0.057-0.096
			l-0.034-0.076l-0.009-0.065l-0.014-0.06l-0.022-0.034l-0.033-0.012l-0.056,0.009l-0.06,0.029l-0.081,0.071l-0.062,0.047
			l-0.048,0.016l-0.052-0.004l-0.062-0.021l-0.103-0.056l-0.176-0.11l-0.15-0.104l-0.067-0.06l-0.025-0.037l-0.012-0.074
			l-0.004-0.05l-0.017-0.037l-0.026-0.058l-0.039-0.047l-0.072-0.048l-0.095-0.039l-0.099-0.015l-0.097-0.024l-0.119-0.062
			l-0.066-0.065l-0.034-0.05l-0.031-0.082l-0.021-0.101l-0.006-0.117l-0.02-0.119l0.019-0.112l0.016-0.109v-0.103l-0.002-0.049V14.1
			l-0.022-0.095l-0.022-0.11l-0.052-0.189l-0.05-0.195l-0.031-0.102l-0.055-0.055l-0.073-0.045l-0.093-0.027l-0.078-0.034
			l-0.115-0.034l-0.103-0.007l-0.146,0.01l-0.164,0.02l-0.223,0.005l-0.175-0.002l-0.161-0.006l-0.102-0.01l-0.181-0.046
			l-0.218-0.073l-0.163-0.068l-0.204-0.068l-0.144-0.048l-0.106-0.033l-0.168-0.086l-0.096-0.059l-0.031-0.073l-0.021-0.104
			l-0.033-0.114l-0.026-0.064L24.5,12.321l-0.058-0.09l-0.048-0.083l-0.032-0.067l-0.021-0.043l-0.095-0.062l-0.098-0.05
			l-0.061-0.035l-0.053-0.043l-0.045-0.039l-0.021-0.04l-0.012-0.051l-0.014-0.016l-0.026-0.023l-0.052-0.011l-0.04-0.004
			l-0.041-0.021l-0.021-0.028l-0.007-0.033l0.008-0.029l0.017-0.024l0.041-0.022l0.032-0.006l0.058-0.01l0.039-0.017l0.034-0.028
			l0.022-0.042l0.022-0.074l0.005-0.038l-0.018-0.045l-0.05-0.045l-0.085-0.058l-0.063-0.041l-0.032-0.039l0.002-0.043l0.021-0.027
			l0.026-0.018l0.04-0.02l0.019-0.03l0.035-0.04l0.043-0.037l0.049-0.033l0.048-0.019l0.03-0.021l0.012-0.04l-0.002-0.062
			l-0.018-0.054l-0.041-0.077l-0.063-0.047l-0.073-0.036l-0.088-0.017l-0.035-0.018l-0.024-0.052l-0.027-0.055l-0.024-0.061
			l0.105-0.043l0.013-0.048L23.8,10.135l-0.046-0.037l-0.027-0.097L23.72,9.938l-0.017-0.132l-0.009-0.103L23.66,9.579l-0.048-0.075
			l-0.077-0.075l-0.06-0.069l-0.041-0.119l-0.041-0.146l-0.021-0.043l-0.021-0.021l-0.063-0.016l-0.084-0.026l-0.099-0.074
			l-0.04-0.075l0.012-0.043l0.058-0.039l0.106-0.072l0.082-0.056l0.075-0.094l0.004-0.108L23.38,8.229l-0.07-0.313l-0.043-0.189
			l-0.008-0.082l-0.04-0.075L23.18,7.538l-0.052-0.015L23.024,7.52h-0.058l-0.09-0.02l-0.084-0.037l-0.117-0.091l-0.197-0.279
			l-0.08-0.14l-0.008-0.065l0.036-0.082l0.119-0.104l0.087-0.105l0.044-0.065l0.036-0.087l0.012-0.06l-0.021-0.108l-0.202-0.469
			l-0.192-0.355L22.301,5.41l0.005-0.043l0.051-0.028l0.038-0.022l0.038-0.028l0.006-0.032l-0.02-0.038l-0.015-0.032l0.03-0.044
			l0.044-0.044l0.006-0.033V5.045l-0.021-0.038l-0.071-0.021l-0.077-0.053l-0.087-0.14l-0.035-0.13l0.023-0.12l0.061-0.168
			l0.05-0.104l0.021-0.13l0.019-0.109l0.023-0.043l0.037-0.039l0.096-0.04l0.051-0.033l0.031-0.049l-0.015-0.049V3.758l0.05-0.077
			l0.005-0.043L22.632,3.6l-0.038-0.016h-0.026l-0.024-0.016l-0.008-0.027l0.012-0.07l0.017-0.136L22.54,3.108l0.023-0.071
			l0.058-0.045l0.029-0.065l-0.002-0.076l-0.026-0.097l-0.055-0.107l-0.004-0.179l-0.017-0.162l-0.022-0.179l-0.015-0.07
			l-0.032-0.021l-0.063,0.001l-0.115,0.002l-0.135-0.031l-0.033-0.027l0.023-0.043l0.103-0.044l0.12-0.073l0.088-0.083l0.05-0.071
			l0.018-0.098l0.023-0.065l0.076-0.05l0.076-0.061l0.011-0.098V0.997L22.674,0.647"/>
	</g>
</g>
<g id="Layer_1">
</g>
</svg>
