<?xml version="1.0" encoding="iso-8859-1"?>
<!-- Generator: Adobe Illustrator 16.0.4, SVG Export Plug-In . SVG Version: 6.00 Build 0)  -->
<!DOCTYPE svg PUBLIC "-//W3C//DTD SVG 1.1//EN" "http://www.w3.org/Graphics/SVG/1.1/DTD/svg11.dtd">
<svg version="1.1" xmlns="http://www.w3.org/2000/svg" xmlns:xlink="http://www.w3.org/1999/xlink" x="0px" y="0px"
	 width="53.489px" height="34.709px" viewBox="0 0 53.489 34.709" style="enable-background:new 0 0 53.489 34.709;"
	 xml:space="preserve">
<g id="Layer_4">
	<g id="Layer_9">
		<path id="Vehari" style="fill:#CCCCCC;stroke:#FFFFFF;stroke-width:1.07;" d="M15.54,33.734
			L15.54,33.734l0.031,0.24l0.173,0.179l0.22-0.021l0.136,0.004l0.185,0.006l0.108-0.01l0.083-0.031l0.049-0.053l0.052-0.017
			l0.056,0.001l0.088,0.025l0.072,0.029l0.028-0.002l0.066-0.031l0.178-0.168l0.191-0.188l0.238-0.191l0.181-0.147l0.128-0.081
			l0.101-0.062l0.077-0.011l0.083-0.018l0.071-0.035l0.034-0.063l0.032-0.039l0.041-0.029l0.047-0.01l0.051,0.008l0.081,0.008
			l0.056-0.029l0.045-0.047l-0.002-0.047l-0.026-0.082l-0.056-0.091l-0.053-0.063l-0.021-0.037l-0.002-0.041l0.019-0.067l0.01-0.048
			l-0.002-0.041l-0.029-0.055l-0.062-0.06l-0.044-0.06l-0.012-0.113l0.004-0.092l0.021-0.073l0.054-0.04l0.095-0.051l0.115-0.037
			l0.134-0.023l0.093,0.008l0.129,0.021l0.084,0.014l0.053-0.016l0.079-0.038l0.058-0.066l0.019-0.063l0.004-0.085l-0.025-0.113
			l-0.042-0.134l-0.062-0.11l-0.021-0.064l-0.016-0.104l0.02-0.074l0.028-0.025l0.066-0.021l0.079-0.015l0.052-0.032l0.041-0.057
			l0.011-0.067l-0.025-0.106l0.001-0.111l0.005-0.119l0.052-0.121l0.062-0.15l0.097-0.159l0.029-0.099l0.004-0.201l0.008-0.188
			l0.025-0.136l0.044-0.104l0.06-0.05l0.052-0.019l0.07,0.002l0.081,0.023l0.099,0.07l0.117,0.088l0.135,0.042l0.218,0.044
			l0.144,0.022l0.19,0.006l0.23-0.033l0.163-0.062l0.04-0.03l0.086-0.015l0.133,0.004l0.083-0.01l0.085-0.076l0.153-0.205
			l0.061-0.143l0.02-0.084l0.026-0.104l0.001-0.04l-0.021-0.025l-0.07-0.002l-0.065-0.006l-0.07-0.009l-0.063-0.026l-0.05-0.065
			l-0.023-0.051L21.45,28.5l-0.133-0.062l-0.062-0.061l-0.078-0.098l-0.012-0.093l0.008-0.173l-0.015-0.127l-0.056-0.079
			l-0.128-0.12l-0.063-0.032l-0.066-0.037l-0.057-0.053l-0.043-0.089l-0.029-0.053l-0.06-0.047l-0.165-0.084l-0.105-0.092
			l-0.023-0.062l0.003-0.08l0.047-0.074l0.063-0.062l0.101-0.051l0.108-0.004l0.105,0.018l0.074,0.002l0.09-0.018l0.096-0.033
			l0.049-0.058l0.02-0.063l0.005-0.102l-0.004-0.105l-0.017-0.08L21.1,26.336l0.017-0.074l0.035-0.086l0.003-0.078l-0.024-0.065
			l-0.039-0.106l0.003-0.067l0.022-0.054l0.054-0.08l0.063-0.028l0.106-0.03l0.082-0.015l0.084-0.048l0.049-0.057l0.057-0.09
			l0.059-0.091l0.055-0.101l0.122-0.174l0.14-0.135l0.1-0.062l0.071-0.011l0.094,0.006l0.073,0.013l0.067,0.054l0.043,0.09
			l0.072,0.051l0.143,0.068l0.33,0.109l0.189,0.061l0.124,0.008l0.123-0.032l0.138-0.119l0.098-0.159l0.105-0.105l0.111-0.055h0.062
			l0.094,0.01l0.071,0.062l0.04,0.061L24.2,25.03l0.072,0.006l0.03,0.021l0.053,0.05l0.021,0.064l-0.011,0.059l-0.024,0.036
			l-0.002,0.036l0.012,0.024l0.041,0.019l0.052-0.002l0.061-0.018l0.049-0.076l0.041-0.119l0.008-0.092l-0.022-0.082l-0.012-0.109
			l0.032-0.12l0.054-0.146l0.074-0.106l0.138-0.147l0.167-0.16l0.108-0.086l0.075-0.035l0.114-0.01l0.113,0.001l0.044-0.022
			l0.005-0.041l-0.014-0.059l0.004-0.062l0.052-0.117l0.057-0.042l0.067-0.02l0.065,0.006l0.088,0.033l0.052,0.013l0.059-0.005
			l0.067-0.028l0.11-0.028l0.18,0.002l0.104,0.014l0.104,0.045l0.133,0.092l0.092,0.059l0.118,0.055l0.101,0.037h0.074l0.067-0.021
			l0.057-0.042l0.015-0.073l0.005-0.101l0.03-0.168l0.05-0.091l0.11-0.094l0.068-0.065l0.129-0.07l0.106-0.055l0.121-0.081
			l0.079-0.1l0.062-0.094l0.1-0.045l0.121,0.004l0.099,0.055l0.025,0.06l0.08,0.129l0.111,0.056l0.098,0.088l0.106,0.144
			l0.123,0.065l0.111,0.104l0.193,0.135l0.217,0.053l0.152,0.047l0.09,0.029h0.058l0.144-0.017l0.126-0.085l0.171-0.073l0.079-0.022
			l0.075,0.008l0.044,0.029l0.056,0.074l0.067,0.059h0.059l0.062-0.074l0.046-0.178l0.038-0.107l0.079-0.051l0.104-0.028
			l0.089,0.019l0.036,0.068l-0.024,0.109l-0.031,0.12l-0.047,0.183l-0.012,0.109l-0.059,0.154l-0.058,0.113l-0.021,0.063l0.001,0.12
			l0.036,0.062l0.066,0.076l0.058,0.04l0.12,0.019l0.125-0.057l0.226-0.146l0.246-0.17l0.223-0.096l0.172-0.061h0.062l0.038,0.022
			l0.027,0.068l-0.012,0.114l-0.013,0.156l0.024,0.144l0.055,0.099l0.071,0.094l0.053,0.006l0.154-0.026l0.086-0.058l0.042-0.067
			l0.072-0.472l0.021-0.176l0.091-0.17l0.094-0.087l0.138-0.056l0.108,0.013l0.195,0.095l0.204,0.185l0.278,0.2l0.079,0.1
			l0.078,0.122l0.076,0.179l0.031,0.139l0.047,0.127l0.097,0.129l0.117,0.1l0.183,0.09l0.262,0.025l0.253-0.042l0.163-0.002
			l0.015-0.312l-0.019-0.252l-0.033-0.096l-0.021-0.199l0.025-0.139l0.045-0.137l0.062-0.096l0.061-0.033l0.089-0.041l0.23-0.023
			l0.146,0.011l0.221,0.013l0.27,0.028l0.23,0.005l0.185-0.016l0.146-0.059l0.071-0.086l0.064-0.172l0.103-0.13l0.092-0.118
			l0.098-0.009l0.107-0.041l0.071-0.095l0.117-0.066l0.195-0.066l0.135,0.003l0.24-0.005l0.222-0.006l0.108-0.051l0.151-0.171
			l0.144-0.204l0.109-0.104l0.118-0.051l0.173,0.013l0.132,0.046l0.075,0.062l0.055,0.069l0.092,0.08l0.112,0.071l0.093-0.005
			l0.058,0.019l0.074,0.055l0.071,0.141l0.063,0.078l0.085,0.037l0.076-0.008l0.102-0.11l0.109-0.312l0.052-0.312l0.034-0.138
			l-0.007-0.088l-0.071-0.088l-0.148-0.15l-0.147-0.114l-0.119-0.142l-0.043-0.112l0.075-0.207l0.144-0.181l0.069-0.06l0.066,0.001
			l0.037,0.027l0.033,0.131l0.033,0.121l0.03,0.166l0.082,0.097l0.104,0.046l0.086,0.01l0.032-0.067l0.006-0.14L40.48,21.25
			l-0.049-0.227l0.014-0.069l0.081-0.094l0.09-0.077l0.105-0.023l0.041-0.06l0.014-0.087l0.109-0.102l0.206-0.101l0.174-0.022
			l0.051-0.033l0.129-0.003l0.11,0.054l0.05,0.001l0.188-0.032l0.169-0.033l0.122,0.021l0.054,0.041l0.018,0.129l0.013,0.102
			l0.101,0.17l0.108,0.244l0.088,0.188l0.052,0.138l0.063,0.075l0.105,0.082l0.118,0.088l0.162,0.084l0.147,0.028l0.124-0.012
			l0.153-0.084l0.194-0.155l0.068-0.114l0.013-0.095l-0.01-0.067l-0.088-0.064l-0.11-0.127l-0.144-0.2l-0.078-0.114l-0.093-0.133
			l0.004-0.061l0.027-0.146l0.04-0.056l0.206-0.131l0.281-0.242l0.061-0.086l0.01-0.065l-0.047-0.142l-0.089-0.159l-0.13-0.201
			l-0.09-0.153l-0.049-0.107l-0.018-0.146l0.033-0.133l0.069-0.138l0.107-0.146l0.196-0.178l0.167-0.105l0.146-0.072l0.257-0.057
			l0.261-0.023l0.315-0.006L45.263,18h0.271l0.228,0.02l0.12,0.05l0.084,0.06l0.057,0.068l0.05,0.12l0.073,0.098l0.077,0.065
			l0.097,0.049l0.06,0.052l0.035,0.119l0.026,0.181l0.034,0.252l0.19,0.211l0.126,0.226l0.003,0.183l0.066,0.145l0.149,0.146
			l0.115,0.114l0.127,0.058l0.289,0.084l0.061,0.01l0.026-0.023l0.062-0.064l0.101-0.061l0.044-0.09l0.013-0.062l-0.061-0.063
			l-0.093-0.024l-0.156-0.025l-0.121-0.074l-0.103-0.104l-0.074-0.229l-0.032-0.199l0.053-0.187l0.116-0.171l0.099-0.112
			l0.075-0.117l0.072-0.106l0.108-0.103l0.252-0.187l0.238-0.188l0.138-0.172l0.06-0.163l0.042-0.198l0.025-0.115l0.044-0.09
			l0.135-0.106l0.169-0.093l0.244-0.034l0.297,0.005l0.201,0.044l0.215,0.101l0.188,0.105l0.18,0.202l0.155,0.264l0.239,0.32
			l0.104,0.211l0.11,0.233l0.14,0.108l0.101,0.05l0.108,0.019l0.129-0.022l0.332-0.043l0.45-0.013l-0.303-0.771l-0.044-0.088
			l-0.029-0.111l-0.01-0.086l0.025-0.099l0.055-0.112l0.048-0.086l0.032-0.08l0.028-0.074l0.023-0.111l0.018-0.138l0.019-0.179
			l0.024-0.115l0.031-0.09l0.089-0.075l0.13-0.064l0.12-0.067l0.072-0.084l0.029-0.057l-0.007-0.068l-0.045-0.047l-0.079-0.039
			l-0.159-0.022l-0.102-0.062l-0.186-0.076l-0.182-0.059l-0.131-0.045l-0.058-0.072l-0.069-0.049l-0.098-0.012l-0.129,0.027
			l-0.099,0.035L50.88,15.77l-0.17,0.023l-0.047,0.035l-0.025,0.047l-0.004,0.127l-0.011,0.092l-0.066,0.103l-0.075,0.042
			l-0.079,0.016l-0.058-0.01l-0.065-0.058l-0.034-0.147l-0.018-0.24l0.003-0.123l0.043-0.084l0.035-0.062l0.101-0.094l0.083-0.084
			l0.082-0.094l0.063-0.119l0.044-0.121l-0.008-0.182l-0.052-0.229l-0.127-0.28l-0.109-0.24l-0.023-0.103l-0.033-0.134l-0.015-0.208
			l0.013-0.083l0.07-0.11l0.079-0.069l0.094-0.08l0.101-0.104l0.081-0.104l0.057-0.104l0.027-0.075l0.025-0.156l0.039-0.406
			l0.006-0.092l0.023-0.226l0.007-0.272l0.001-0.367l-0.036-0.446l-0.07-0.375l-0.019-0.144l0.001-0.332l0.021-0.151l0.05-0.112
			l0.063-0.076l0.082-0.099l0.113-0.067l0.092-0.058l0.058-0.03l0.048-0.076l0.048-0.203l0.022-0.146l0.039-0.258l0.016-0.199
			l0.012-0.322l-0.014-0.266l-0.011-0.117l-0.037-0.083l-0.036-0.065l-0.073-0.079l-0.069-0.062l-0.03-0.058l-0.015-0.058
			l-0.011-0.106l0.024-0.188l0.053-0.145l0.083-0.188l0.06-0.136l0.057-0.227l0.092-0.239l0.059-0.12l0.053-0.099l0.094-0.07
			l0.053-0.04l0.083-0.028l0.064-0.006l0.067,0.025l0.089,0.034l0.065,0.013l0.051,0.001l0.069-0.015l0.062-0.032l0.093-0.062
			l0.101-0.057l0.098-0.045l0.074-0.016l0.07-0.004l0.044-0.008l0.034-0.021l0.031-0.034l0.024-0.062l0.021-0.073l-0.005-0.05
			l-0.026-0.069l-0.092-0.129l-0.029-0.056l-0.006-0.072l0.018-0.092l0.011-0.06l-0.007-0.071l-0.01-0.054l-0.045-0.06l-0.055-0.041
			l-0.06-0.031h-0.05l-0.159,0.029l-0.243,0.082l-0.197,0.047l-0.17,0.027l-0.091-0.002l-0.179-0.021L51.297,4.95l-0.224,0.031
			l-0.23,0.015l-0.111-0.014l-0.072-0.025l-0.055-0.046l-0.104-0.146l-0.054-0.104l-0.132-0.134l-0.167-0.125l-0.204-0.096
			l-0.14-0.017l-0.107,0.019l-0.212-0.006l-0.201,0.008L49.05,4.327l-0.333,0.056l-0.215,0.01l-0.133-0.016l-0.104-0.031
			l-0.091-0.064l-0.048-0.077l-0.043-0.041l-0.066-0.008l-0.078,0.013l-0.11,0.014l-0.233,0.029l-0.148,0.01l-0.202,0.006
			l-0.155-0.031l-0.157-0.055l-0.108-0.239l-0.17-0.347V3.238l-0.027-0.326l0.008-0.351l0.031-0.397l0.077-0.289l0.019-0.193
			l-0.062,0.074l-0.107,0.056l-0.121,0.013l-0.173-0.02l-0.182-0.021L46.02,1.786l-0.055,0.024l-0.04,0.035l-0.023,0.057
			L45.87,1.936l-0.096-0.008l-0.083-0.043l-0.06-0.049l-0.108-0.018l-0.124,0.001l-0.122,0.019l-0.062,0.028l-0.092,0.048
			l-0.074,0.049L45.002,2.01l-0.055,0.129l-0.031,0.134l-0.004,0.082l0.025,0.062l0.062,0.023l0.102-0.006l0.062-0.025l0.033-0.061
			l0.015-0.057l0.048-0.018l0.022,0.005l0.022,0.043l0.03,0.095l0.02,0.137l-0.013,0.109l-0.007,0.073L45.3,2.795l-0.054,0.03
			l-0.084,0.008L45.095,2.82l-0.081-0.018l-0.116-0.02h-0.073l-0.088,0.004l-0.045,0.034l-0.021,0.052l0.004,0.059l0.034,0.072
			l0.036,0.088l0.021,0.07l-0.014,0.086l-0.043,0.075l-0.076,0.069l-0.071,0.021L44.485,3.4l-0.071-0.07l-0.046-0.089l-0.021-0.083
			L44.345,3.1l-0.036-0.043l-0.054-0.006L44.13,3.066l-0.079,0.049l-0.072,0.049L43.93,3.225l-0.011,0.061l0.003,0.059l0.035,0.062
			l0.064,0.049l0.013,0.051l-0.011,0.068l-0.062,0.062L43.793,3.7l-0.171,0.021l-0.164-0.019l-0.104-0.051l-0.106-0.079L43.17,3.568
			l-0.069,0.009l-0.124,0.052L42.83,3.661l-0.115-0.002L42.62,3.65l-0.1-0.059l-0.068-0.099l-0.059-0.146l-0.072-0.155l-0.069-0.078
			l-0.099-0.033l-0.109-0.002l-0.062,0.03l-0.084,0.054L41.79,3.239l-0.109,0.092L41.59,3.405l-0.041,0.047l-0.021,0.081
			l-0.01,0.062l0.01,0.082l0.062,0.146l0.033,0.116l0.003,0.115l-0.039,0.162l-0.077,0.137l-0.116,0.152l-0.12,0.15l-0.096,0.127
			l-0.092,0.1l-0.07,0.058L40.96,4.979l-0.063,0.01l-0.045-0.007l-0.048-0.039l-0.041-0.069l-0.077-0.09l-0.116-0.075L40.423,4.66
			l-0.146-0.045L40.196,4.6l-0.058-0.035l-0.012-0.062l0.01-0.105l0.045-0.157l0.045-0.134l0.029-0.072l-0.003-0.064l-0.05-0.062
			l-0.091-0.049L40,3.792L39.955,3.74l-0.07-0.077l-0.053-0.071l-0.057-0.035l-0.05-0.002l-0.069,0.037l-0.059,0.039l-0.056,0.043
			L39.52,3.768l-0.001,0.102l0.024,0.12L39.53,4.062l-0.046,0.101l-0.069,0.099l-0.038,0.062l-0.06,0.038L39.234,4.37l-0.089-0.028
			l-0.107-0.066L38.959,4.19L38.84,4.145l-0.108-0.006l-0.057,0.015l-0.03,0.03L38.63,4.232l0.021,0.07l0.044,0.063l0.036,0.056
			l0.012,0.062l-0.007,0.077l-0.053,0.07l-0.048,0.047l-0.069,0.019l-0.092,0.009l-0.068,0.001l-0.043,0.007l-0.021,0.016
			l-0.005,0.053l0.01,0.042l0.043,0.071l0.032,0.033L38.43,4.99l-0.014,0.053l-0.037,0.053l-0.052,0.019l-0.07,0.009l-0.084,0.018
			L38.128,5.18l-0.005,0.045l0.029,0.076l0.045,0.059L38.193,5.4l-0.039,0.023l-0.043,0.014l-0.09-0.012L37.971,5.42l-0.056,0.006
			L37.881,5.44l-0.042,0.011l-0.044-0.02L37.767,5.41l-0.044-0.033l-0.06-0.004l-0.038,0.02l-0.022,0.049L37.597,5.5l0.004,0.057
			l0.018,0.055l0.048,0.023l0.065,0.035l0.037,0.043l0.016,0.037l-0.016,0.057l-0.052,0.051l-0.1,0.051l-0.039,0.053l-0.004,0.037
			l0.05,0.053l0.108,0.004l0.055,0.009l0.025,0.021l0.001,0.055l-0.005,0.05l-0.062,0.069l-0.128,0.051l-0.133,0.024l-0.072,0.046
			l-0.047,0.053l-0.004,0.05l0.063,0.04l0.094,0.027l0.021,0.062L37.516,6.66l-0.06,0.04L37.38,6.715l-0.163-0.006L37.04,6.7
			l-0.118,0.015l-0.089,0.062L36.7,6.889l-0.055,0.063l-0.023,0.099l0.021,0.123l0.065,0.09L36.71,7.33l-0.066,0.059l-0.062,0.016
			l-0.1-0.04L36.383,7.25l-0.057-0.046l-0.08-0.022l-0.078,0.021l-0.047,0.061l0.01,0.109l0.066,0.096l0.018,0.1l-0.008,0.066
			l-0.143,0.062L35.9,7.702L35.84,7.676l-0.062-0.069l-0.007-0.095l0.019-0.184l-0.036-0.056l-0.07-0.048l-0.092-0.039l-0.056-0.059
			l-0.037-0.044l-0.046-0.088l0.014-0.073l0.052-0.027L35.6,6.91l0.06,0.021l0.042-0.018l0.008-0.072L35.68,6.791L35.643,6.69
			l-0.054-0.095l-0.062-0.068l-0.035-0.062L35.5,6.393l0.022-0.086l0.025-0.06l-0.009-0.056l-0.036-0.044l-0.094-0.022L35.17,6.102
			l-0.161-0.01l-0.14-0.041l-0.101-0.012l-0.063,0.01l-0.073,0.047l-0.045,0.041l-0.056,0.078l-0.067,0.059L34.38,6.295
			l-0.087-0.017l-0.058-0.045l-0.037-0.104l0.004-0.104L34.2,5.969l-0.032-0.021l-0.062,0.017l-0.068,0.064L33.92,6.043
			l-0.053,0.055l-0.041,0.064L33.82,6.223l0.007,0.068L33.822,6.34l-0.038,0.035l-0.056,0.01l-0.054-0.021l-0.057-0.058l-0.05-0.037
			L33.46,6.247l-0.061-0.009l-0.153,0.037l-0.079,0.041l-0.055,0.117l-0.011,0.098l0.025,0.221l0.021,0.208l0.021,0.123L33.15,7.205
			l-0.018,0.098l-0.075,0.125l-0.057,0.084l-0.095,0.063l-0.135,0.038l-0.077,0.021l-0.019,0.043l-0.039,0.047l0.022,0.043
			l0.116,0.011l0.129,0.017l0.085,0.034l0.075,0.076l0.001,0.055l-0.05,0.072l-0.099,0.026l-0.062,0.011L32.81,8.104l-0.048,0.14
			l-0.081,0.188h-0.024l-0.045,0.018L32.556,8.5L32.49,8.568l-0.072,0.045L32.2,8.745l-0.133,0.108l-0.113,0.092l-0.083,0.131
			l-0.037,0.102l-0.021,0.164L31.805,9.49l0.031,0.143l-0.004,0.073l-0.021,0.119l-0.028,0.08L31.715,9.99l-0.04,0.04l-0.039,0.017
			h-0.083l-0.127-0.027l-0.094-0.021l-0.084,0.018l-0.067,0.058l-0.062,0.08l-0.05,0.097l-0.077,0.125l-0.064,0.059l-0.064,0.029
			h-0.076l-0.336-0.091l-0.25-0.089L30.07,10.21l-0.055-0.067l0.01-0.062l0.033-0.046l0.086-0.053l0.062-0.062l0.009-0.057
			l-0.032-0.103l-0.101-0.045l-0.217-0.021l-0.836-0.06l-0.158-0.043l-0.084-0.012l-0.089,0.001l-0.212-0.021l-0.146-0.051
			l-0.131-0.09L28.159,9.32l-0.011-0.146l0.061-0.164l0.123-0.152l0.139-0.146l0.098-0.113l0.051-0.107l-0.002-0.068l-0.046-0.111
			l-0.099-0.084l-0.106-0.051l-0.113-0.021L28.13,8.15l-0.141,0.002L27.84,8.176l-0.041,0.039l-0.082,0.092l-0.144,0.142
			l-0.095,0.069l-0.197,0.086l-0.238,0.108l-0.172,0.062l-0.208,0.049l-0.15,0.035l-0.144,0.022L26.233,8.86l-0.146-0.062
			l-0.042-0.05l-0.107-0.051L25.83,8.682l-0.104-0.021L25.581,8.59l-0.106-0.066l-0.124-0.105l-0.098-0.105l-0.048-0.067
			l-0.063-0.026h-0.059L25.008,8.28l-0.117,0.125L24.83,8.434l-0.065,0.012l-0.071,0.001l-0.177-0.005l-0.086,0.029l-0.095,0.062
			l-0.058,0.043l-0.045,0.078l-0.057,0.085l-0.048,0.04l-0.105,0.013l-0.125,0.012l-0.151,0.052l-0.056,0.04l-0.084,0.09
			l-0.021,0.057l-0.012,0.078l-0.004,0.073l0.04,0.101l0.035,0.051l0.023,0.045l0.03,0.057l-0.003,0.04l-0.028,0.039l-0.067,0.045
			l-0.047,0.022h-0.04L23.47,9.586l-0.071-0.004l-0.066,0.033l-0.068,0.051l-0.075,0.062L23.116,9.75l-0.054,0.012l-0.079-0.004
			L22.916,9.7l-0.14-0.094l-0.114-0.045h-0.1L22.469,9.59L22.38,9.663l-0.094,0.052l-0.103,0.033L22.039,9.76l-0.131,0.002
			l-0.163-0.032l-0.083-0.003l-0.041,0.018l-0.034,0.034l-0.03,0.065l-0.009,0.045l0.009,0.074l-0.002,0.056l-0.03,0.062
			l-0.048,0.039l-0.088,0.04l-0.146,0.052l-0.126,0.022l-0.089,0.045l-0.055,0.046l-0.029,0.039l-0.044,0.084l-0.049,0.068
			l-0.068,0.066l-0.074,0.028l-0.087,0.017l-0.192,0.022l-0.146,0.058l-0.102,0.034l-0.1,0.005l-0.101,0.002l-0.17-0.022
			l-0.09-0.033l-0.183-0.062l-0.083-0.051l-0.039-0.007l-0.066,0.001l-0.061,0.018l-0.123,0.084l-0.099,0.096l-0.062,0.074
			l-0.044,0.072l-0.024,0.09l-0.025,0.129l0.038,0.18l0.084,0.275l0.063,0.176l0.071,0.111l0.138,0.155l0.088,0.085l0.023,0.057
			l-0.004,0.084l-0.025,0.106l-0.041,0.029l-0.15-0.013l-0.137-0.062l-0.229-0.174l-0.064-0.039l-0.124-0.022l-0.126,0.006
			l-0.231,0.028l-0.283,0.103l-0.229,0.066l-0.293,0.17l-0.181,0.174l-0.152,0.151l-0.086,0.142l-0.084,0.22l-0.03,0.112
			l0.005,0.039L16.87,13.4l-0.041,0.133l-0.034,0.076l-0.075,0.157l-0.055,0.093l-0.052,0.118l-0.048,0.087l-0.095,0.115
			l-0.139,0.115l-0.128,0.088L16.08,14.43l-0.1,0.018l-0.058-0.012l-0.043-0.021l-0.041-0.049l-0.046-0.113l-0.046-0.138
			l-0.015-0.024l-0.038-0.021l-0.066-0.002l-0.168-0.006l-0.113-0.015l-0.063-0.039l-0.067-0.086l-0.056-0.067l-0.06-0.021
			l-0.082-0.014l-0.022,0.014l-0.033,0.043L14.875,14l-0.09,0.104l-0.08,0.035l-0.043,0.008l-0.066-0.002l-0.042-0.038l-0.037-0.052
			l-0.034-0.032L14.434,14h-0.036l-0.06,0.019l-0.032,0.032l-0.046,0.088l-0.07,0.065l-0.084,0.052l-0.069,0.013l-0.086-0.007
			l-0.141-0.043L13.65,14.17l-0.224-0.07l-0.193-0.073l-0.308-0.156l-0.108-0.047l-0.329-0.142l-0.193-0.072l-0.212-0.066
			l-0.245-0.06l-0.2-0.062l-0.133-0.023l-0.082-0.01L11.345,13.4l-0.072,0.025l-0.045,0.056l-0.043,0.077l-0.035,0.095l-0.026,0.101
			l-0.039,0.092l-0.069,0.086l-0.087,0.1l-0.09,0.109l-0.045,0.039l-0.083,0.016l-0.035-0.001l-0.062-0.024l-0.072-0.07
			l-0.069-0.111l-0.06-0.072l-0.056-0.02l-0.043,0.005l-0.067,0.033l-0.069,0.081l-0.116,0.158l-0.104,0.152l-0.042,0.062
			l-0.022,0.047l-0.002,0.059l0.004,0.088l0.024,0.086l0.086,0.108l0.04,0.065l0.028,0.068l-0.003,0.071l-0.04,0.135l-0.069,0.08
			l-0.085,0.067l-0.093,0.05l-0.126,0.028l-0.104,0.021l-0.071,0.025l-0.045,0.035l-0.045,0.047l-0.046,0.057l-0.052,0.039
			L9.251,15.61l-0.039,0.013l-0.129-0.012l-0.117,0.008l-0.1,0.018H8.775l-0.094-0.01l-0.146-0.049l-0.242-0.123l-0.271-0.113
			l-0.156-0.086l-0.143-0.088L7.548,15.08l-0.062-0.02l-0.043-0.004l-0.03-0.002l-0.036,0.014l-0.045,0.047l-0.116,0.184
			l-0.145,0.25l-0.083,0.125l-0.108,0.099l-0.14,0.164l-0.098,0.104l-0.072,0.064l-0.106,0.041l-0.055,0.009l-0.066-0.006
			l-0.046-0.045l-0.06-0.121L6.175,15.78l0.014-0.155l0.005-0.136l-0.005-0.071l-0.039-0.025H6.12l-0.067-0.002l-0.047,0.005
			L5.95,15.424L5.9,15.471l-0.054,0.076l-0.034,0.07l-0.005,0.115l-0.02,0.104l-0.022,0.072l-0.041,0.061l-0.08,0.053l-0.154,0.05
			l-0.074,0.021l-0.041,0.033l-0.034,0.061l-0.02,0.119l-0.017,0.098l-0.022,0.125l-0.07,0.105l-0.103,0.101l-0.173,0.114
			l-0.184,0.09l-0.19,0.055L4.394,17.01l-0.151-0.002l-0.21-0.029l-0.104-0.03l-0.076-0.063L3.754,16.76L3.71,16.695l-0.042-0.02
			l-0.043-0.021l-0.103,0.001l-0.159,0.002l-0.062-0.028l-0.048-0.072l-0.017-0.084L3.18,16.385L3.112,16.33l-0.097-0.037
			l-0.101-0.021l-0.216,0.001l-0.177,0.001l-0.142,0.014l-0.123,0.036l-0.091,0.035l-0.069,0.058l-0.034,0.086l-0.012,0.09
			l0.037,0.082l0.101,0.121l0.058,0.063l0.023,0.071l0.011,0.056l-0.002,0.047l-0.021,0.047l-0.036,0.033l-0.062,0.032l-0.044,0.021
			l-0.058,0.029l-0.021,0.023l-0.019,0.035l-0.01,0.051l-0.021,0.026l-0.028,0.03l-0.028,0.018l-0.051,0.012l-0.028,0.013
			L1.837,17.42l-0.021,0.041l-0.014,0.058l0.001,0.062l0.003,0.034l-0.01,0.044l-0.028,0.036l-0.033,0.051L1.67,17.817l-0.141,0.067
			l-0.062,0.039l-0.045,0.061l-0.051,0.068l-0.025,0.059l-0.014,0.064l0.016,0.096l0.006,0.132l-0.016,0.129l-0.034,0.063
			l-0.065,0.076L1.182,18.7l-0.054-0.002l-0.051-0.011l-0.073-0.043l-0.037-0.053l-0.034-0.019l-0.038-0.015l-0.03-0.002
			l-0.032,0.007L0.788,18.6l-0.113,0.117L0.62,18.875l0.016,0.176l-0.078,0.125l0.066,0.476l0.005,0.067l0.022,0.025l0.052,0.016
			l0.191,0.023l0.091,0.005l0.085-0.004l0.046-0.009l0.045-0.012l0.048-0.021l0.043-0.027l0.067-0.076l0.062-0.059l0.053-0.037
			l0.042-0.013L1.5,19.532l0.018,0.017l0.009,0.054L1.499,19.69l-0.04,0.071l-0.066,0.064l-0.121,0.119l-0.024,0.037l-0.003,0.038
			l0.001,0.038l0.018,0.055l0.077,0.154L1.4,20.383l0.04,0.065l0.023,0.026l0.031,0.016l0.063,0.01l0.07,0.024l0.129,0.04
			l0.15,0.052l0.188,0.06l0.082,0.021l0.05,0.014l0.038,0.037l0.054,0.033l0.065,0.021l0.061,0.017l0.065,0.01l0.043,0.021
			l0.048,0.058l0.015,0.024l0.028,0.027l0.017,0.006l0.04,0.006l0.085-0.002l0.07,0.008l0.021,0.007l0.038,0.04l0.033,0.018
			l0.062,0.016l0.1,0.014l0.057,0.003l0.021,0.015l0.004,0.022l-0.002,0.03l-0.006,0.076l0.021,0.061l0.022,0.068l0.028,0.041
			l0.033,0.018l0.043,0.012l0.06-0.006l0.06-0.025l0.099-0.059l0.047-0.047l0.026-0.053l0.026-0.08l0.036-0.072l0.021-0.037
			l0.018-0.021l0.063-0.052l0.057-0.043l0.045-0.027l0.036-0.01l0.044-0.002l0.04,0.004h0.06l0.058-0.008l0.062-0.013l0.035-0.015
			l0.018-0.016l0.016-0.035l0.044-0.094l0.016-0.039l0.012-0.014l0.039-0.014l0.036-0.008l0.012-0.022l0.001-0.013l0.008-0.035
			l0.01-0.012h0.023l0.045,0.016l0.039,0.043l0.04,0.02l0.029-0.02l0.017-0.032l0.004-0.056l0.025-0.023l0.028-0.019l0.021-0.011
			l0.009-0.058l0.011-0.03l0.038-0.008h0.065l0.062,0.04l0.071,0.04l0.082,0.028l0.07,0.045l0.084,0.069l0.064,0.063L5.347,20.7
			l0.157,0.073l0.189,0.066l0.168,0.059l0.156,0.033l0.139,0.02l0.175,0.034l0.07,0.028l0.058-0.002l0.02-0.006l0.024-0.021
			l0.023-0.022l0.046-0.025l0.031-0.006l0.057,0.003l0.089-0.007l0.081-0.021l0.082-0.04l0.049-0.037l0.04-0.043l0.052-0.065
			l0.039-0.021l0.047-0.01L7.2,20.693l0.036,0.014l0.017,0.025l-0.016,0.076l-0.035,0.057l-0.101,0.102L7.027,21.01l-0.092,0.053
			l-0.059,0.042l-0.031,0.038l-0.018,0.062l-0.013,0.098v0.057l-0.032,0.07l-0.064,0.127l-0.016,0.084l0.017,0.082l0.039,0.104
			l0.048,0.061L6.842,21.9l0.027,0.01l0.028-0.007l0.108-0.026l0.086-0.039l0.061-0.033l0.04-0.002l0.041,0.007l0.036,0.019
			l0.024,0.047l0.031,0.086l0.005,0.067l-0.051,0.115l-0.042,0.069l-0.064,0.045l-0.04,0.047l-0.038,0.07l-0.02,0.08l-0.022,0.119
			l-0.021,0.049l-0.035,0.033l-0.077,0.041l-0.048,0.014L6.817,22.74l-0.071,0.028l-0.021,0.034l-0.037,0.062L6.67,22.926
			l-0.008,0.102l0.002,0.102l0.021,0.033l0.025,0.025l0.048,0.047l0.044,0.035l0.051,0.011l0.037-0.002l0.039-0.022l0.031-0.031
			l0.013-0.055l0.009-0.061l-0.005-0.055L6.972,22.99l0.008-0.039l0.017-0.012l0.021,0.001l0.08,0.045l0.054,0.04L7.2,23.068
			l0.024,0.025l0.046,0.002L7.3,23.077l0.021-0.036l0.011-0.072l0.004-0.246l0.031-0.236l0.046-0.172l0.046-0.115l0.03-0.038
			l0.023-0.019l0.057-0.006l0.023,0.002l0.045,0.015l0.027,0.009l0.057-0.009l0.048-0.017l0.047-0.006h0.089l0.092,0.018
			l0.066,0.033l0.055,0.031l0.057,0.051l0.029,0.037l0.007,0.051l-0.006,0.064l-0.02,0.07l-0.046,0.05l-0.069,0.062l-0.103,0.056
			l-0.062,0.028l-0.107,0.016l-0.052,0.01l-0.021,0.014l-0.021,0.031l-0.013,0.035L7.69,22.809l0.007,0.039l-0.005,0.05
			l-0.021,0.039L7.637,23.01l0.012,0.037l0.025,0.03l0.059,0.023l0.099,0.014l0.092,0.004l0.041,0.011l0.013,0.021l0.011,0.045
			l-0.02,0.075l-0.053,0.082L7.853,23.43L7.81,23.504l-0.021,0.061l-0.007,0.089l0.028,0.042l0.06,0.031l0.041,0.015l0.047-0.006
			l0.048-0.021l0.039-0.019l0.079-0.075l0.08-0.078l0.07-0.076l0.06-0.045l0.039-0.025l0.058-0.021l0.064,0.004l0.046,0.01
			l0.03,0.022l0.03,0.026l0.016,0.061l-0.005,0.057l-0.029,0.089L8.551,23.75l-0.009,0.121l0.021,0.078L8.592,24l0.031,0.021
			l0.041,0.006l0.057-0.009l0.091-0.027l0.116-0.014l0.076-0.013l0.055,0.004l0.036,0.018l0.034,0.043l0.027,0.066l0.027,0.084
			l0.034,0.104l0.044,0.035l0.063,0.02l0.041,0.006l0.026,0.011l0.028,0.051l0.045,0.089l0.031,0.081l0.009,0.078l0.033,0.042
			l0.026,0.018l0.067,0.033l0.044,0.021l0.042,0.066l0.024,0.043l0.044,0.033l0.035,0.031l0.002,0.032l-0.021,0.044L9.8,25.061
			l-0.002,0.023l0.016,0.03l0.052,0.015l0.08,0.033l0.061,0.02l0.029,0.029l-0.001,0.024l-0.026,0.043l0.002,0.052l0.011,0.103
			l0.034,0.042l0.05,0.023l0.121-0.007l0.126-0.009l0.127-0.014l0.075-0.012l0.036,0.006l0.018,0.019l0.037,0.054l0.051,0.067
			l0.04,0.026l0.027,0.011l0.051,0.002l0.057,0.004l0.066,0.036l0.075,0.044l0.007,0.037l-0.013,0.053l-0.047,0.054l-0.06,0.041
			l-0.104,0.035l-0.171,0.042l-0.123,0.026l-0.092,0.003l-0.076,0.022l-0.06,0.033l-0.064,0.069l-0.02,0.06l-0.013,0.109
			l-0.023,0.066l-0.035,0.055l-0.043,0.053l-0.045,0.05l-0.108,0.104l-0.064,0.054l-0.083,0.044l-0.094,0.048l-0.091,0.048
			l-0.134,0.049l-0.135,0.025l-0.109,0.021L9.084,26.99l-0.088,0.055l-0.144,0.108l-0.046,0.045l-0.03,0.05l-0.005,0.033
			l0.008,0.059l0.004,0.076l0.033,0.08l0.026,0.049l0.011,0.105l-0.009,0.061l0.012,0.037l0.039,0.028l0.1,0.034l0.089,0.005
			l0.067-0.008l0.033-0.027l0.032-0.036l0.037-0.05l0.025-0.021l0.025-0.012l0.014-0.002l0.032,0.004l0.099,0.01l0.067,0.004
			l0.061,0.027l0.045,0.058l0.042,0.083l0.015,0.08l0.004,0.088l0.01,0.044l0.021,0.024l0.021,0.01l0.036,0.004l0.042-0.014
			l0.026-0.018l0.025-0.029l0.012-0.023l0.002-0.018l-0.021-0.029l-0.021-0.039l-0.017-0.028l0.001-0.031l0.014-0.038l0.02-0.021
			l0.043,0.005l0.024,0.015l0.05,0.022l0.084,0.015l0.042-0.007l0.017-0.021l0.019-0.037l0.043-0.038l0.021-0.038l0.038-0.012
			l0.026,0.004l0.025,0.018l0.012,0.027l0.013,0.051l-0.001,0.049l-0.006,0.047l0.018,0.057l0.038,0.105l0.021,0.072l-0.009,0.104
			l0.013,0.055l0.04,0.023l0.024,0.01l0.06,0.004l0.108-0.012l0.076-0.004l0.049,0.006l0.021,0.021l0.063,0.036l0.08,0.025
			l0.045,0.012l0.083-0.006l0.064-0.004h0.03l0.027,0.01l0.011,0.021l0.011,0.039l-0.012,0.071l-0.021,0.102l-0.041,0.104
			l-0.011,0.074l0.011,0.035l0.089,0.146l0.019,0.084l-0.007,0.068l-0.023,0.16l0.008,0.157l0.041,0.149l0.034,0.063l0.044,0.017
			l0.026,0.004l0.024-0.016l0.057-0.017l0.043-0.009l0.082-0.021l0.044-0.026l0.052-0.028l0.031-0.009l0.042,0.006l0.05,0.021
			l0.064,0.03l0.034,0.042l0.026,0.068l0.073,0.253l0.03,0.062l0.019,0.016l0.049,0.007l0.04-0.003l0.064-0.019l0.051-0.018
			l0.061-0.009l0.066,0.002l0.089,0.008l0.07,0.002l0.047-0.006l0.096-0.014l0.062,0.004l0.064-0.011l0.032-0.014l0.041-0.004
			l0.019,0.008l0.022,0.017l0.095,0.08l0.246,0.254l0.112,0.1l0.056,0.029l0.043,0.004l0.037-0.004l0.064-0.015l0.083-0.004h0.156
			l0.271,0.004l0.181,0.021l0.093,0.023l0.051,0.038l0.021,0.067v0.054l-0.014,0.048l-0.022,0.025l-0.032,0.014l-0.071,0.02h-0.048
			l-0.024,0.018l-0.012,0.031l-0.012,0.051l-0.019,0.038l-0.062,0.005l-0.078-0.014l-0.116-0.021l-0.148-0.008l-0.061,0.005
			l-0.039,0.018l-0.034,0.023l-0.015,0.03l-0.023,0.069l0.004,0.041l0.02,0.037l0.024,0.025l0.106,0.047l0.073,0.037l0.054,0.029
			l0.039,0.057l0.027,0.05l0.031,0.062l0.058,0.06l0.062,0.036l0.05,0.021l0.118,0.014l0.078-0.012l0.055-0.01l0.062,0.004
			l0.062-0.005l0.072-0.015l0.062-0.031l0.06-0.018l0.067-0.016l0.04,0.006l0.042,0.01l0.041,0.017l0.062,0.071l0.043,0.042
			l0.049,0.018l0.063-0.008l0.049-0.012l0.03-0.031l0.016-0.033l0.005-0.034l-0.015-0.062l-0.017-0.069l-0.012-0.078l-0.029-0.08
			l-0.016-0.051l0.008-0.055l0.005-0.031l0.014-0.014l0.011-0.01l0.018-0.008l0.03-0.002l0.066,0.004l0.038,0.006l0.072-0.02
			l0.056-0.027l0.058-0.031l0.031-0.029l0.031-0.02l0.021-0.004l0.017,0.002l0.029,0.026l0.001,0.041l-0.026,0.056l-0.032,0.049
			l-0.029,0.065l-0.008,0.052l0.001,0.035l0.014,0.024l0.034,0.01l0.033,0.004l0.058-0.006l0.036-0.019l0.025-0.016l0.025,0.004
			l0.027,0.014l0.046,0.053l0.174,0.179l0.051,0.064l0.008,0.062l-0.01,0.036l-0.028,0.041l-0.062,0.028L15.79,31.78l-0.046,0.019
			l-0.035,0.033l-0.042,0.057l-0.035,0.062l-0.046,0.108l-0.059,0.164l-0.04,0.158l-0.006,0.18l0.025,0.115l0.051,0.088l0.056,0.05
			l0.084,0.092l0.061,0.113l0.061,0.175l0.038,0.121l0.024,0.061l-0.119,0.151l-0.058,0.056l-0.098,0.092L15.54,33.734"/>
	</g>
</g>
<g id="Layer_1">
</g>
</svg>
