<?xml version="1.0" encoding="utf-8"?>
<!-- Generator: Adobe Illustrator 16.0.4, SVG Export Plug-In . SVG Version: 6.00 Build 0)  -->
<!DOCTYPE svg PUBLIC "-//W3C//DTD SVG 1.1//EN" "http://www.w3.org/Graphics/SVG/1.1/DTD/svg11.dtd">
<svg version="1.1" id="Layer_1" xmlns="http://www.w3.org/2000/svg" xmlns:xlink="http://www.w3.org/1999/xlink" x="0px" y="0px"
	 width="301.088px" height="269.835px" viewBox="-114.584 -102.574 301.088 269.835"
	 style="enable-background:new -114.584 -102.574 301.088 269.835;" xml:space="preserve">
<g id="Layer_15">
	<path id="Bahawalnagar" style="fill:#CCCCCC;stroke:#FFFFFF;stroke-width:1.15;" d="M173.308-95.675L173.308-95.675l-0.035,0.021
		l-0.34-0.012l-0.252,0.079l-0.076,0.292l-0.1,0.504l-0.208,0.372l-0.232,0.455l-0.392,0.076l-0.74,0.021l-0.619-0.232l-0.123-0.463
		l-0.084-1.308l-0.101-1.016l-0.132-0.344l-0.188-0.176l-0.243-0.053l-0.345,0.076l-0.567,0.424l-1.063,0.916l-1.707,1.319
		l-1.147,0.852l-0.792,0.476l-0.747,0.42l-0.596,0.191l-0.601,0.152l-0.344,0.032l-0.155,0.207l-0.064,0.209l-0.043,1.015
		l-0.209,0.42l-0.304,0.16l-0.283-0.016l-0.276-0.084l-0.271-0.252l0.039-1.063l-0.175-0.464l-0.417-0.52l-0.771-0.48l-1.108-0.287
		l-1.111-0.209l-0.912-0.354l-0.483-0.068l-0.968-0.101l-0.611-0.243l-0.588-0.185l-0.539-0.016l-0.592,0.068l-0.832,0.231
		l-0.84,0.152l-1.079,0.224l-0.696,0.312l-0.403,0.208l-0.212,0.28l-0.016,0.383l-0.145,3.671l-0.088,1.008l-0.212,0.38
		l-0.443,0.275l-1.168,0.229l-1.928,0.543l-0.983,0.393l-0.939,0.52l-0.939,0.771l-0.271,0.3l-0.288,0.036l-0.392-0.088l-0.368-0.52
		l-0.376-0.344l-0.327-0.305l-0.488-0.144l-1.606-0.12h-1.416l-0.64,0.191l-0.487,0.244l-0.939,0.528l-0.501,0.372l-0.287,0.084
		l-0.256-0.068l-0.24-0.128l-0.372-0.567l-0.252-0.852l-0.184-0.296l-0.672-0.36l-0.672-0.092l-0.827-0.028l-0.631,0.152
		l-0.549,0.26l-0.707,0.544l-0.596,0.647l-0.581,0.779l-0.57,0.948l-0.673,0.871l-0.495,0.276l-0.473-0.021l-0.198-0.22
		l-0.116-0.552l0.02-0.464l0.376-0.76l0.228-0.783l-0.124-0.512l-0.264-0.345l-1.151-0.343l-0.84,0.044l-1.171,0.216l-0.7,0.363
		l-0.6,0.78l-0.136,0.388l-0.301,0.208l-0.396,0.159l-0.6,0.068l-0.532-0.132l-0.519-0.355l-0.916-0.492l-0.58-0.228l-0.536-0.064
		l-0.547,0.08l-0.488,0.152l-0.296,0.279l-0.295,0.376l-0.161,0.332l-0.107,0.504l-0.012,0.38l-0.032,0.596l-0.092,0.256
		l-0.252,0.111l-0.596-0.088l-0.804-0.367l-1.199-0.592l-0.725-0.256l-0.931-0.2l-0.536,0.08l-0.548,0.144l-0.636,0.312
		l-1.107,0.911l-1.359,1.228l-1.215,1.239l-1.076,1.195l-0.596,0.708l-0.587,1.159l-0.193,0.472l-0.251,0.256l-0.196,0.084
		l-0.479-0.088l-0.527-0.188l-0.433-0.013l-0.344,0.084l-0.159,0.337l0.048,0.379l0.167,0.68l-0.111,0.556l-0.288,0.076
		l-0.388-0.224l-0.26-0.6l-0.452-0.647l-0.512-0.645l-0.587-0.355l-0.528-0.184l-0.68,0.08l-0.403,0.151l-0.349,0.252l-0.159,0.276
		l-0.161,0.455l-0.424,0.828l-0.26,0.628l-0.02,0.503l0.264,0.465l0.24,0.463l0.416,0.641l0.123,0.599l-0.02,0.552l0.232,0.4
		l0.271,0.464l0.04,0.288L93.9-70.323l-0.252,0.164l-0.588-0.016l-0.776,0.024l-0.287,0.083l-0.2,0.252l-0.024,0.428l0.24,0.296
		l0.513,0.52l0.655,0.772l0.176,0.472l-0.16,0.42l-0.152,0.292l-0.407,0.243l-0.396,0.032l-0.772-0.067l-0.663-0.353l-0.8-0.575
		l-0.852-0.656l-0.58-0.479l-0.607-0.352l-0.424-0.136l-0.616-0.185l-0.299,0.032l-0.293,0.288l-0.252,0.327l-0.104,0.288
		l-0.107,0.456l-0.104,0.428l-0.212,0.38l-0.16,0.328l-0.147,0.251l-0.063,0.217l0.151,0.251l0.271,0.4l0.041,0.336l-0.093,0.216
		l-0.152,0.16l-0.283-0.009l-0.728-0.144L83.777-65.2l-0.816-0.24l-1.016-0.144l-0.392-0.017l-0.74,0.104l-0.435,0.248l-0.36,0.319
		l-0.096,0.336l-0.032,0.588l-0.104,0.504l-0.161,0.504l-0.088,0.787l-0.084,1.108l-0.027,0.839l0.18,0.56l0.044,1.472l0.256,1.191
		l0.412,0.972l0.556,0.815l0.5,0.896l0.132,0.265l0.039,0.216l-0.195,0.168l-0.252,0.199l-0.071,0.292l0.088,0.34l0.084,0.508
		l-0.101,0.336l-0.2,0.164l-0.399,0.147l-0.28-0.008l-0.288-0.084l-0.566-0.579l-0.368-0.685l-0.169-0.799l-0.084-0.632
		l-0.127-0.336l-0.243-0.296l-0.576-0.188l-0.288-0.176l-0.265-0.344l0.013-0.424L77.132-56.7l-0.244-0.224l-0.283-0.224
		l-0.664-0.265l-0.48,0.032l-0.6,0.16l-0.592-0.072l-0.871-0.144l-1.482-0.428l-1.068-0.248l-1.543-0.376l-1.008-0.319l-0.536,0.023
		l-0.547,0.16l-0.148,0.212l-0.008,0.292l0.084,0.379l0.275,0.301l0.855,0.403l-0.663-0.096l-1.24,0.063l-1.052,0.128l-0.635-0.067
		l-0.328-0.132l-0.231-0.408l-0.249-0.527l-0.256-0.22l-0.388-0.108l-0.403-0.068l-0.448,0.017l-0.803,0.407l-0.428,0.141
		l-0.408,0.256l-0.624,0.743l-0.66,0.943l-0.483,0.592l-0.355,0.212l-0.563-0.008l-0.756-0.084l-0.979-0.111h-0.513l-0.428,0.279
		l-0.252,0.408l-0.443,0.903l-0.159,0.731l-0.236,0.368l-0.6,0.871l-0.256,0.528l-0.276,0.355l-0.487,0.141l-0.708-0.032
		l-0.779-0.36l-0.936-0.38l-0.84-0.359l-0.364,0.036l-0.483,0.359l-0.212,0.496l-0.084,0.392l-0.04,0.604l0.14,0.512l-0.084,0.772
		l-0.027,0.84l-0.328,0.559l-0.332,0.128l-0.436-0.083l-0.288-0.261l-0.936-1.307l-0.424-0.688l-0.424-0.6l-0.319-0.619
		l-0.736-1.544l-0.351-0.495l-0.281-0.084l-0.224,0.063l-0.252,0.252l-0.084,0.396l0.009,0.888l-0.196,0.903l-0.372,0.74l-0.6,0.611
		l-0.368,0.28l-0.623,0.296l-0.947,0.192l-0.372,0.283l-0.903,0.6l-0.768,0.536l-0.749,0.588l-0.881,0.52l-0.998,0.42l-1.385,0.479
		l-1.084,0.424l-0.937,0.38l-0.636,0.116l-0.77,0.228l-0.262,0.308l-0.028,0.353l0.18,0.336l0.594,0.363l0.527,0.176l0.54,0.088
		l0.512,0.221l0.684,0.392l0.104,0.416l0.105,0.424l-0.038,0.399l-0.176,0.32l-0.426,0.096l-0.286-0.052l-0.937-0.428l-0.872-0.908
		l-0.75-0.563l-1.961-1.52l-1.313-0.964l-1.327-0.879l-0.962-0.7l-1.25-0.596l-0.773-0.18l-0.884-0.136l-0.627,0.084l-1.27,0.672
		L19-45.509l-0.16,0.503l0.03,0.84l0.168,0.384l0.516,1.144l0.683,1.296l0.4,1.219l0.246,0.58l-0.06,0.216l-0.182,0.372
		l-0.356,0.468l-0.496,0.42l-0.744,0.364l-1.109,0.424l-0.605,0.295l-0.288,0.404l-0.016,0.3l0.214,0.424l0.302,0.491l0.516,0.428
		l0.722,0.429l0.462,0.428l0.016,0.407l-0.142,0.204l-0.366,0.036l-1.333-0.176l-1.214-0.284l-0.688-0.104l-0.719,0.067l-0.798,0.4
		l-0.598,0.279l-0.426,0.101l-0.855-0.057l-0.938-0.079l-1.835,0.056l-1.359,0.184l-0.527,0.084l-0.442-0.084l-0.414-0.204
		l-0.582-0.436L5.58-34.634l-0.426-0.864L4.179-36.81l-0.626-1.083l-0.745-0.828l-0.77-0.428l-0.88-0.42l-0.824-0.184l-1.215-0.02
		l-1,0.14l-0.692,0.384l-0.556,0.424l-0.184,0.372l-0.094,0.468l-0.172,0.808l-0.254,0.663l-0.57,0.704l-0.969,0.768l-1.042,0.775
		l-0.438,0.42l-0.294,0.436l-0.308,0.48l-0.406,0.447l-0.474,0.696l-0.218,0.771l0.132,0.812l0.298,0.936l0.426,0.428l0.496,0.296
		l0.636,0.101l0.384,0.096l0.25,0.256l-0.054,0.252l-0.18,0.371l-0.418,0.248l-0.254,0.265l-0.106,0.091l-0.25-0.047l-1.184-0.337
		l-0.52-0.247l-0.469-0.468l-0.606-0.601l-0.264-0.596l-0.012-0.755l-0.516-0.932l-0.777-0.864l-0.13-1.031l-0.108-0.724
		l-0.142-0.483l-0.25-0.22l-0.406-0.204l-0.308-0.256l-0.298-0.404l-0.204-0.495l-0.242-0.272l-0.344-0.248l-0.492-0.211
		l-0.938-0.084l-1.11,0.003l-1.458,0.061l-1.285,0.023l-1.07,0.088l-1.055,0.24l-0.598,0.296l-0.684,0.424l-0.793,0.728
		l-0.436,0.601l-0.282,0.567l-0.126,0.552l0.078,0.596l0.2,0.436l0.368,0.628l0.532,0.819l0.378,0.655l0.192,0.58l-0.054,0.268
		l-0.248,0.353L-24-27.446l-0.843,0.544l-0.165,0.224l-0.098,0.6l-0.016,0.252l0.376,0.544l0.324,0.468l0.59,0.815l0.446,0.52
		l0.366,0.256l0.04,0.269l-0.058,0.392l-0.273,0.464l-0.782,0.632l-0.63,0.344l-0.503,0.048l-0.598-0.104l-0.664-0.345l-0.479-0.359
		l-0.43-0.336l-0.254-0.304l-0.22-0.572l-0.366-0.768l-0.43-0.999l-0.426-0.704l-0.056-0.42l-0.074-0.531l-0.23-0.168l-0.5-0.084
		l-0.692,0.124l-0.77,0.132l-0.204-0.008l-0.456-0.221l-0.528,0.009l-0.204,0.136l-0.726,0.084l-0.833,0.411l-0.448,0.424
		l-0.052,0.36l-0.168,0.256l-0.429,0.084l-0.374,0.316l-0.328,0.387l-0.056,0.276l0.196,0.936l0.402,0.908l-0.026,0.567l-0.13,0.28
		l-0.352-0.053l-0.426-0.188l-0.336-0.404l-0.128-0.68l-0.13-0.491l-0.136-0.54l-0.142-0.107H-37.7l-0.278,0.256l-0.59,0.739
		l-0.306,0.844l0.176,0.464l0.482,0.579l0.598,0.468l0.605,0.604l0.292,0.368l0.024,0.355l-0.134,0.568l-0.218,1.279l-0.442,1.275
		l-0.418,0.44l-0.315,0.039l-0.348-0.151l-0.254-0.32l-0.278-0.575l-0.308-0.236l-0.24-0.08l-0.386,0.017l-0.45-0.28l-0.385-0.328
		l-0.224-0.275l-0.309-0.256l-0.54-0.184l-0.713-0.061l-0.478,0.208l-0.448,0.428l-0.587,0.836l-0.62,0.703l-0.43,0.208
		l-0.921,0.024l-0.97,0.023l-0.566-0.016l-0.786,0.268l-0.481,0.268l-0.288,0.393l-0.426,0.168l-0.414,0.035l-0.375,0.484
		l-0.422,0.532l-0.262,0.707l-0.29,0.353l-0.598,0.243l-0.762,0.072l-0.938-0.016l-1.11-0.112l-0.91-0.057l-0.597-0.052
		l-0.942,0.088l-0.364,0.168l-0.254,0.136l-0.254,0.393l-0.19,0.56l-0.098,0.576l0.086,0.815l0.14,0.399l0.078,1.036l-0.062,1.275
		l0.054,0.771l-0.429,1.975l-0.598,2.224l-0.046,0.619l0.086,0.596l0.168,0.628l0.12,0.38l0.27,0.611l0.511,0.768l0.18,0.356
		l0.16,0.731l0.188,1.436l0.148,1.264l0.114,0.56l0.086,0.136l0.106,0.017l0.18-0.024l0.21-0.168l0.258-0.288l0.238-0.144
		l0.224,0.023l0.156,0.088l0.132,0.225l0.146,0.711l0.194,0.864l0.278,0.747l0.426,0.552l0.555,0.56l0.354,0.169l0.602,0.231
		l0.531,0.2l0.262,0.235l0.246,0.268l0.461,0.425l0.25,0.136l0.344,0.084h0.46l0.692-0.068l0.426-0.084h0.31l0.344,0.084l0.304,0.12
		l0.102,0.199l0.028,0.596l-0.086,0.744l0.066,0.28l0.152,0.212L-48,13.104l0.336,0.063l0.875,0.104l0.732,0.168l0.717,0.26
		l0.852,0.376l0.238,0.296l0.072,0.268l-0.122,0.448v0.287l0.086,0.2l0.168,0.235l0.003,0.393l-0.09,0.72l-0.278,1.031l-0.112,0.596
		l-0.072,0.771l0.056,0.376l0.132,0.208l0.242,0.088l0.204,0.032l0.438-0.208l0.386-0.256l0.269-0.128l0.316-0.072l0.368,0.012
		l0.552,0.148l0.676,0.344l0.36,0.216l0.308,0.256l0.2,0.368l-0.003,0.419l-0.012,0.429l0.074,0.176l0.086,0.132l0.2,0.084
		l0.254-0.048l0.328-0.16l0.362-0.191l0.286-0.112l0.254-0.04l0.253,0.076l0.114,0.18l0.094,0.296l0.038,0.424l-0.012,0.552
		l-0.124,0.288l-0.134,0.224l-0.242,0.071l-0.324-0.016l-0.402-0.063l-0.216,0.008l-0.12,0.064l-0.086,0.136l-0.074,0.18l-0.2,0.14
		l-0.226,0.144l-0.052,0.081l-0.046,0.184l0.116,0.256l0.134,0.184l0.024,0.168l-0.04,0.319l0.054,0.177l0.086,0.151l0.133,0.116
		l0.25,0.092l0.16,0.132l0.086,0.188l-0.078,0.344l-0.098,0.424l-0.09,0.256l-0.086,0.436l-0.2,0.204l-0.234,0.032l-0.242,0.036
		l-0.254,0.075l-0.188,0.248l-0.074,0.244l0.066,0.243v0.244l-0.004,0.284l0.184,0.12l0.11,0.031l0.254-0.06l0.214-0.044
		l0.098,0.036l0.086,0.088l0.008,0.145l-0.086,0.228l-0.079,0.428l0.083,0.184l0.257,0.116l0.242,0.016l0.254-0.084l0.164-0.168
		l0.204-0.159l0.226-0.032l0.25,0.084l0.43,0.06l0.332,0.009l0.254-0.112l0.253-0.168l0.184-0.084l0.298-0.052l0.45,0.067
		l0.268,0.093l0.122,0.111l0.066,0.176l0.04,0.232l0.042,0.22l0.11,0.184L-34.943,31l0.196,0.145l0.09,0.168l0.086,0.279l0.078,0.2
		l0.144,0.111l0.138,0.024l0.34-0.017l0.43,0.085l0.41,0.159l0.254,0.284l0.136,0.304l0.122,0.345l0.016,0.424l0.108,0.375
		l0.126,0.152l0.278,0.088l0.21,0.056l0.144,0.112l0.086,0.208l0.012,0.312l-0.078,0.177l-0.401,0.239l-0.254,0.168l-0.216,0.088
		h-0.456l-0.254,0.08l-0.254,0.224l-0.142,0.176l0.004,0.232l0.254,0.279l0.076,0.22l-0.084,0.204l-0.07,0.061l-0.406,0.068
		l-0.426,0.079l-0.386,0.089l-0.253,0.115l-0.118,0.168l-0.086,0.268l-0.015,0.275l0.054,0.221l0.084,0.084l0.14,0.067l0.086,0.045
		l0.11,0.252l0.074,0.228l0.116,0.08l0.18,0.008l0.434-0.076l0.484-0.088l0.29,0.012l0.401,0.089l0.314,0.107l0.226,0.185
		l0.196,0.343l0.086,0.389l0.156,0.211l0.226,0.116l0.434,0.116l0.266,0.124l0.192,0.177l0.083,0.327l0.045,0.439l-0.062,0.68
		l-0.028,0.696l-0.014,0.487l0.172,0.436l0.186,0.344l0.114,0.288l0.078,0.28l-0.054,0.408l-0.09,1.431l-0.208,1.831l-0.148,1.619
		l-0.024,0.576l0.044,0.399l0.008,0.433l-0.086,0.216l-0.09,0.096h-0.18l-0.2,0.04l-0.148,0.079l-0.122,0.265l-0.086,0.208
		l-0.112,0.088l-0.294,0.016l-0.548,0.032h-0.792l-0.512,0.039l-0.192,0.085l-0.254,0.16l-0.254,0.211l-0.218,0.252l-0.118,0.269
		l-0.086,0.363l-0.09,0.476l-0.05,0.469l-0.021,0.563l-0.04,0.437l-0.098,0.271l-0.168,0.167l-0.312,0.129l-0.233,0.063l-0.798,0.04
		l-0.508,0.028l-0.308,0.063l-0.254,0.168l-0.231,0.231l-0.186,0.221l-0.258,0.092l-0.228,0.048l-0.234,0.096l-0.25,0.156
		l-0.278,0.14l-0.254,0.064l-0.417,0.071l-0.376,0.188l-0.346,0.132l-0.134,0.145l-0.046,0.251l-0.082,0.2l-0.126,0.145
		l-0.258,0.084l-0.554,0.088l-0.404,0.084l-0.422,0.095l-0.266,0.084l-1.109,0.145l-0.214,0.616l-0.548,0.392l-0.62,0.304
		l-0.326,0.232l-0.1,0.159l0.008,0.428l0.022,0.792l0.156,2.482l-0.194,1.428l-0.196,1.519l0.128,1.093l0.462,1.123l0.598,1.056
		l0.641,0.991l0.598,0.411l0.855,0.381l1.085,0.628l0.758,0.6l0.582,1.031l0.254,0.512l0.298,0.188h0.369l0.598-0.264l0.84-0.424
		l0.915-0.771l0.542-0.651l0.286-0.364l0.515-0.212l0.734-0.088l0.739-0.088l0.628,0.112l0.254,0.115l0.102,0.253l-0.07,0.392
		l-0.222,0.327l0.046,0.2l0.226,0.195l0.278,0.213l0.414,0.547L-32.259,76l0.016,0.6l-0.18,0.352l-0.184,0.276l0.004,0.256
		l0.116,0.24l0.425,0.624l0.422,0.715l0.441,0.276l0.286,0.116l0.52-0.045l0.324-0.168l0.414-0.359l0.835-0.688l0.77-0.46
		l0.43-0.204l0.412-0.008l0.295,0.128l0.43,0.308l0.25,0.444l0.254,0.155l0.294-0.008l0.414,0.072l0.253,0.155l0.226,0.16
		l0.294-0.008l0.136-0.284l-0.086-0.236l0.031-0.319l0.234-0.132h0.41l0.254,0.16l0.15,0.352l0.104,0.228l0.188,0.125l0.294-0.009
		l0.186-0.036l0.142-0.203l0.066-0.44l0.078-0.556l0.066-0.724l0.078-0.271l0.372-0.132l0.414-0.013h0.224l0.234,0.196l0.34,0.384
		l0.496,0.863l0.258,1.067l-0.07,0.524l-0.282,0.352l-0.59,0.264l-0.77,0.101l-1.027,0.012l-0.808,0.048l-0.43,0.26l-0.282,0.396
		l-0.426,0.392l-0.417,0.26l-0.606,0.168h-0.29l-0.479-0.088l-0.336-0.111l-0.565-0.344l-0.372-0.12l-1.078-0.088l-0.563-0.159
		l-0.664-0.049h-0.184l-0.222,0.24l-0.078,0.256l-0.184,0.363l-0.22,0.032l-0.184-0.032l-0.229-0.128l-0.258-0.375l-0.156-0.297
		l-0.368-0.06l-0.426,0.013l-1.18,0.176l-0.434,0.2l-0.324,0.327l-0.454,0.972l-0.254,0.484l-0.254,0.071l-0.136,0.008l-0.238-0.115
		l-0.282,0.063l-0.188,0.136l-0.32,0.512l-0.218,0.52l-0.359,0.84l0.058,0.232l0.144,0.224l0.412,0.044l0.254,0.185l0.19,0.351
		l-0.034,0.444l-0.253,0.244l-0.43,0.204l-0.47,0.123l-0.254,0.204l-0.098,0.2l-0.042,0.228l0.05,0.355l0.146,0.292l0.569,0.148
		l0.41-0.008l0.29,0.088l0.108,0.159l0.188,0.125l0.286-0.009l0.286-0.136l0.144-0.352l-0.008-0.252l-0.106-0.16l-0.046-0.228
		l0.094-0.168l0.254-0.236l0.616-0.08l0.438,0.084l0.294,0.129l0.23,0.224l0.086,0.592l0.012,0.6l0.046,0.256l0.251,0.155
		l0.256,0.068l0.552-0.107l0.512-0.236l0.476-0.097l0.404-0.039l0.332-0.008l0.332-0.009l0.254-0.224l0.328-0.372l0.226-0.123h0.252
		l0.254,0.056l0.148,0.248l-0.028,0.512l-0.14,0.52l0.086,0.252l0.254,0.284l0.304,0.228l0.142,0.256l-0.04,0.284l-0.09,0.239
		l-0.254,0.424l0.004,0.256l0.192,0.353l0.636,0.504l0.556,0.251l0.332,0.068l1.621-0.115l0.808-0.009l0.598,0.185l0.224,0.115
		l-0.032,0.283l-0.144,0.168l-0.512,0.256l-0.884,0.081l-1.074-0.017l-0.938-0.107l-0.848,0.016l-0.646,0.092l-0.777,0.433
		l-0.84,0.464l-0.614,0.359l-0.43,0.08l-0.406-0.084l-0.426-0.275l-0.675-0.504l-0.815-0.385l-0.794-0.02l-0.565,0.235l-0.688,0.532
		l-0.458,0.392l-0.558,0.572l-0.544,0.252l-0.372,0.007l-0.253-0.084l-0.39-0.351l-0.598-0.783l-0.254-0.32l-0.335-0.232
		l-0.372-0.088l-0.41,0.052l-0.254,0.252l-0.324,0.451l-0.364,0.329l-0.425,0.088l-0.422-0.024l-0.413-0.224l-0.672-0.473
		l-0.708-0.383l-0.761-0.38l-0.618-0.345l-0.566-0.088l-0.594-0.084l-0.523-0.268l-0.376-0.319l-0.39-0.392l-0.41-0.271l-0.34-0.385
		l-0.426-0.672l-0.278-0.367l-0.426-0.504l-0.414-0.389l-0.664-0.22l-2.133,0.036l-1.883,0.084l-1.961,0.032l-1.211,0.151
		l-1.837,0.152l-1.875,0.152l-1.581,0.16l-1.403-0.017l-0.664-0.067l-0.758-0.101l-0.468-0.16l-0.286,0.084l-0.105,0.168
		l-0.066,0.359l-0.102,0.404l-0.274,0.392l-0.804,0.265l-0.47,0.124l-0.614,0.06l-0.476,0.008l-0.368,0.084l-0.43,0.26l-0.41,0.088
		l-0.292-0.063l-0.224-0.084l-0.418,0.128l-0.352,0.271l-0.034,0.288l0.042,0.229l0.376,0.387l0.3,0.245l-0.028,0.267l-0.108,0.257
		l-0.79,0.335l-0.917,0.652l-0.728,0.567l-1.062,0.536l-0.658,0.079l-0.444-0.084l-0.188-0.283l-0.254-0.252l-0.704-0.061
		l-0.414,0.097l-0.875,0.304l-0.656,0.084l-0.484,0.008l-0.403-0.088l-0.296-0.088l-0.47,0.008l-0.954,0.093l-1.25,0.104
		l-1.465,0.088l-0.598-0.064l-0.848-0.22l-1.11-0.047l-1.405,0.155l-0.364,0.199l-0.254,0.4l-0.254,0.196l-0.843,0.107l-0.66,0.049
		l-0.81-0.104l-0.953-0.472l-1.188-0.611l-0.938-0.772l-0.524-0.38l-0.262-0.284l-0.115-0.591l-0.013-0.393l-0.008-0.415
		l0.086-0.488l-0.004-0.191l-0.192-0.353l-0.336-0.127l-0.558-0.112l-0.224-0.032l-0.104-0.224l-0.086-0.232L-97,91.012
		l-0.617,0.017l-0.43,0.039l-0.184,0.245l-0.222,0.251l-0.368,0.08l-0.372,0.045l-0.14,0.168l-0.18,0.199l-0.095,0.396l-0.284,0.123
		l-0.332,0.052l-0.372,0.072l-0.43,0.04l-0.406,0.169l-0.43,0.367l-0.254,0.16l-0.332,0.052l-0.302,0.004l-0.188-0.036l-0.046-0.2
		l-0.054-0.252l-0.076-0.195l-0.148-0.116l-0.378-0.032l-0.22,0.124l-0.425,0.323l-0.227,0.104l-0.555,0.044l-0.292,0.008
		l-0.474-0.083l-0.374,0.043l-0.286,0.045l-0.184,0.123l-0.324,0.26l-0.426,0.392l-0.273,0.488l0.004,0.252l0.156,0.284l0.372,0.216
		l0.23,0.128l0.191,0.16l0.102,0.224l0.008,0.256l-0.09,0.192l-0.254,0.168l-0.368,0.088l-0.406,0.007l-0.516,0.089l-0.188,0.088
		l-0.14,0.096l-0.184,0.252l-0.126,0.588l0.012,0.444l0.152,0.355l0.34,0.252l0.556,0.088l0.622,0.02l0.335,0.192l0.194,0.271
		l0.044,0.248l0.008,0.42l-0.25,0.556l-0.512,0.52l-0.548,0.535l-0.57,0.576l-0.312,0.592l-0.208,0.68l0.054,0.521l0.298,0.432
		l0.64,0.583l1.002,0.597l0.377,0.256l0.106,0.275l-0.09,0.315l-0.508,0.46l-0.426,0.611l-0.312,0.521l-0.13,0.62l0.008,0.443
		l0.086,0.388l0.238,0.284l0.52,0.252l0.996,0.243l0.335,0.196l0.15,0.16l-0.066,0.344l-0.248,0.64l-0.956,1.343l-0.254,0.761
		l0.014,0.42l0.114,0.428l0.438,0.383l0.524,0.108l1.543-0.071l0.558,0.027l0.29,0.124l0.254,0.252l0.116,0.68l0.196,3.569
		l0.118,0.601l0.258,0.276l0.471,0.188l0.75,0.104l0.47-0.043l0.352-0.256l0.181-0.089l0.089-0.327l-0.012-0.589l-0.086-0.479
		v-0.392l0.066-0.284l0.254-0.359l0.324-0.136l0.328-0.156l0.434,0.116l0.228,0.228l0.565,0.108l0.43-0.009l0.324-0.168l0.254-0.287
		l0.426-0.561l0.098-0.256l-0.042-0.191l-0.048-0.355l-0.02-0.911l-0.086-0.801l-0.046-0.088l-0.102-0.252l-0.204-0.479
		l-0.147-0.415l0.094-0.32l0.14-0.2l0.364-0.136h0.332l0.298,0.312l0.636,0.768l0.83,1.11l0.717,0.428l0.516,0.112h0.414l0.43,0.108
		l0.782,0.731l1.253,1.527l1.997,2.591l1.793,2.803l1.961,2.911l2.215,3.89l1.25,2.987l0.27,0.936l0.688,3.046l0.454,2.456
		l0.598,2.175l0.828,2.406l1.785,4.182l1.747,4.162l0.938,2.567l0.426,0.956l0.538,1.15l1.173,1.888l0.77,1.619l0.394,1.115
		l0.254,0.596l1.527-0.771l1.257-0.632l4.904-2.811l0.086-0.048l1.29-0.64l1.479-1.247l0.356-0.084l0.762-0.204l3.14-1.683
		l1.88-1.312l2.111-1.031l1.961-0.939l0.722-0.655l0.54,0.039l0.086,0.009l0.544-0.584l9.126-5.146l0.972-0.719l0.625-0.473
		l2.191-1.131l0.981-0.403l0.352-0.141l2.547-1.419l0.28-0.208l1.142-0.832l2.653-0.964l1.793-0.651l2.941-1.203l1.263-0.512
		l11.247-4.278l4.11-1.463l2.473-0.944l4.938-1.887l0.609-0.08l2.991-1.175l1.396-1.112l3.07-5.926l0.23-0.671l0.254-0.735
		l5.887-11.796l0.086-0.343l0.09-0.404l0.809-0.999l3.481-3.547l1.277-1.295l1.766-2.111l0.074-0.068l8.888-9.755l0.078-0.256
		l0.216-0.732l3.284-5.354l2.271-3.706l0.196-0.747l7.477-12.027l3.639-6.049l2.119-3.37l0.783-1.28l0.671-1.14l2.039-3.466
		l0.385-1.111l0.22-0.24l0.032-0.031l0.764-0.816l1.687-2.919l0.58-0.987l0.568-1.467l0.548-0.388l2.818-5.11l0.531-1.375
		l1.352-3.507l2.287-7.081l1.848-5.737l1.159-3.838l1.127-3.751l0.424-1.295l0.769-2.383l0.396-1.243l0.26-0.389l0.271-0.396
		L73.31,4.683l-0.02-0.839l1.131-3.027l0.672-2.314l1.275-4.187l2.703-8.943l1.291-4.227l0.032-0.424l0.032-0.472l0.183-0.107
		l0.181-0.112l0.148-0.939l0.063-0.388l0.592-1.575l0.52-1.396l0.424-1.107l0.399-1.392l0.664-2.375l1.999-1.451l9.979-3.667
		l14.218-5.258l0.5-0.188l0.827-0.3l3.383-1.235l6.766-2.114l1.891-0.276h0.02l14.002-3.462l0.855-0.093l9.152-2.215l1.091-0.527
		l1.903-0.473l2.711-0.991l1.795-1.731l1.199-1.331l3.57-2.95l0.776-0.368l0.168-0.088l0.088-0.084l0.476-0.572l9.276-6.492
		l1.275-1.112l2.974-1.755l0.185-0.096l2.323-1.556l0.167-0.124l3.171-2.427l0.619-1.743l-0.402-3.851l-0.36-3.458l-1.352-5.598
		l-0.596-1.319l-0.893-1.982l-0.283-0.601l-0.436-0.936l-2.159-2.643l-0.671-0.808L173.308-95.675"/>
</g>
<g id="Layer_1_1_">
</g>
</svg>
