<?xml version="1.0" encoding="utf-8"?>
<!-- Generator: Adobe Illustrator 16.0.4, SVG Export Plug-In . SVG Version: 6.00 Build 0)  -->
<!DOCTYPE svg PUBLIC "-//W3C//DTD SVG 1.1//EN" "http://www.w3.org/Graphics/SVG/1.1/DTD/svg11.dtd">
<svg version="1.1" id="Layer_1" xmlns="http://www.w3.org/2000/svg" xmlns:xlink="http://www.w3.org/1999/xlink" x="0px" y="0px"
	 width="301.091px" height="191.478px" viewBox="-94.648 -60.081 301.091 191.478"
	 style="enable-background:new -94.648 -60.081 301.091 191.478;" xml:space="preserve">
<g id="Layer_29">
	<path id="Chitral" style="fill:#CCCCCC;stroke:#FFFFFF;stroke-width:1.15;" d="M-37.446,127.699L-37.446,127.699l0.923-0.357
		l0.112-0.055l0.348-0.43l0.494-0.207l0.46-0.025l0.478-0.004l0.695-0.041l0.46-0.033l0.513-0.074l0.417-0.111l0.324-0.412
		l0.126-0.355l0.272-0.553l0.26-0.43l0.228-0.221l1.438-0.256l0.862-0.039l0.074-0.133h0.007l0.7-0.123l-0.244-0.629l0.024-0.035
		l0.058-0.273l0.217-0.58l-0.097-0.408l-0.095-0.406l0.12-0.576l-0.232-0.482l0.037-0.574l0.162-0.254l0.368-0.551l0.292-0.105
		l0.713-0.207l0.492-0.455h0.003l0.287-0.268l0.325-0.275l0.053-0.48l-0.173-0.41l-0.272-0.504l-0.14-0.258l0.401-0.246l0.163-0.494
		l0.154-0.504l0.291-0.242l0.22-0.186l0.306-0.234l0.272-0.209l0.398-0.273l0.215-0.408l0.056-0.35l0.322-0.154l0.156-0.285
		l0.196-0.189l0.272-0.205l0.163-0.242l0.17-0.105l0.383-0.219l0.624,0.111l0.435,0.07l0.536,0.006l0.215,0.006h0.613l0.461,0.238
		l0.443,0.326l0.502,0.236l0.272,0.062l0.622,0.15l0.35,0.082l0.173-0.281l-0.005-0.012l0.024-0.393l0.162-0.359l-0.026-0.156
		l0.055-0.082l0.163-0.309l0.055-0.076l0.277-0.27l0.582-0.535l0.003-0.002l-0.118-0.498l0.15-0.346l0.138-0.354l0.087-0.156
		l0.023-0.047l0.055-0.221l0.002-0.424l0.011-0.924l0.003-0.379l0.005-0.562l0.212-0.111l0.677-0.352l0.21-0.109l0.259-0.139
		l0.058-0.445l-0.383-0.264l-0.565-0.641l-0.325-0.439l-0.109-0.404l-0.058-0.26l0.039-0.184l0.036-0.158l0.174-0.533l0.277-0.469
		l0.209-0.367l0.31-0.395l0.322-0.166l0.612-0.318l0.585-0.045l0.705-0.053l0.582-0.012l0.57-0.01l0.577-0.395l0.229-0.166
		l0.506-0.379l0.439-0.24l-0.435-0.176l-0.482-0.244l-0.558-0.389l-0.07-0.033l-0.112-0.256l-0.04-0.527l-0.09-0.357l-0.083-0.387
		l-0.055-0.281l0.023-0.258l0.021-0.262l0.033-0.439l0.021-0.262l0.041-0.404l0.032-0.4l0.029-0.377l0.021-0.225l0.055-0.605
		l0.042-0.541l0.034-0.367l0.019-0.236l0.021-0.225l0.131-0.338l0.006-0.012l0.223-0.24l0.578-0.609l0.283-0.379l0.171-0.482
		l0.078-0.316l0.103-0.215l0.492-0.348l0.511-0.367l0.621-0.873l0.33-0.332l0.543-0.5l0.585-0.273l0.601-0.596l0.352-0.252
		l-0.055-0.312l0.107-0.34l0.045-0.266l0.622-0.016l0.553-0.23l0.94-0.859l0.342-0.186l0.447-0.018h0.207l0.233-0.094l0.272-0.139
		l0.56-0.434l0.52,0.018l0.76-0.43l1.134-0.768l0.37-0.203l0.309-0.201l0.176-0.264l0.055-0.221l0.359-0.139l0.223,0.242
		l0.335-0.062l0.193,0.1l0.275,0.004l0.377,0.037l0.272,0.16l0.386-0.051l0.271,0.162l0.422,0.162l0.195-0.17l0.298-0.158
		l0.282-0.043l0.258-0.148l0.232-0.053l0.162-0.268l0.462-0.316l0.301-0.129l0.162-0.357l0.118-0.324L8.24,79.61l0.244-0.027
		l0.411-0.08l0.187-0.377l0.023-0.08L9.14,79l0.083-0.336l-0.01-0.342l0.055-0.301l0.005-0.033l0.22-0.357l0.163-0.355v-0.002
		l0.013-0.02l0,0l0.414-0.465h0.003l0.104-0.084l-0.021-0.018l0.008-0.006l-0.16-0.148l-0.419-0.9l-0.028-0.029l-0.037-0.088
		L9.335,75.28l-0.12-0.098H9.21l-0.252-0.354l-0.025-0.025l-0.055-0.146l-0.266-0.252l-0.293-0.158l-0.396,0.049l-0.292,0.146
		l-0.176-0.131l0.28-0.426l0.062-0.227l0.215-0.328l0.189-0.486l0.497-0.02l0.435-0.678l0.163-0.438l0.049-0.057l0.074-0.258
		l0.067-0.33l0.163-0.4l0.128-0.271H9.78l0.032-0.064l0.062-0.164l0.035-0.078l0.052-0.207l0.006-0.012v-0.004l0.007-0.021
		l-0.022-0.307v-0.021l0.186-0.289l-0.056-0.445l0.005-0.285l0.297-0.072l0.096-0.262l0.083-0.221l0.27-0.311l0.251-0.338
		l0.204-0.084l0.372-0.156l-0.047-0.367l-0.085-0.293l-0.055-0.441l0.1-0.322l0.383-0.209l0.272,0.129l0.265,0.301l0.238,0.268
		l0.252,0.076l0.464,0.133l0.33,0.051l0.618-0.1l0.272-0.236l0.149-0.168l0.57-0.016l0.215-0.01l0.522,0.168l0.234,0.088
		l0.301,0.104l0.242,0.262l0.314,0.338l0.008,0.453l-0.065,0.268l0.056,0.439l0.208,0.16l0.342,0.158l0.167,0.221l0.181,0.238
		l0.061,0.326l0.232,0.164l0.187,0.123l0.341,0.123l0.178-0.129l0.314-0.297l0.162-0.281l0.195-0.289l0.237-0.166l0.191-0.135
		l0.493-0.383l0.172-0.135l0.291-0.219l0.335-0.285l0.173-0.184l0.252-0.082l0.362-0.074l0.515,0.115l0.357,0.145l0.295,0.195
		l0.318,0.225l0.188,0.17l0.17,0.162l0.6,0.039l0.287-0.162l0.301-0.238l0.369-0.275l0.252,0.17l0.136,0.182l0.397,0.217
		l0.234-0.002l0.232-0.01l0.396,0.168l0.32,0.098l0.298,0.004l0.392-0.027l0.217-0.023l0.218-0.049l0.495-0.045l0.38,0.041
		l0.195-0.049l0.283-0.059l0.082-0.334l0.285-0.26l0.172-0.15l0.375-0.279l0.272-0.238l0.178-0.119l0.31-0.055l0.323,0.08
		l0.044,0.115l0.016,0.053l-0.045,0.305l-0.03,0.236l0.044,0.217l0.102,0.225l0.112,0.189l0.015,0.02l0.12,0.211l0.021,0.285
		l0.037,0.262l0.03,0.23l0.3-0.033l0.235-0.027l0.396-0.111l0.246-0.221l0.324-0.322l0.16-0.221l0.492-0.057l0.235,0.068
		l0.272,0.078l0.367,0.08l0.223,0.051l0.472,0.027l0.235,0.027l0.377,0.156l0.328,0.15l0.312-0.068l0.221-0.055l0.19-0.355
		l0.244-0.164l0.125-0.07l0.223-0.082l0.305-0.068l0.146-0.045l0.212-0.148l0.117-0.355l0.268-0.148l0.053-0.025l0.297-0.158
		l0.165-0.092l0.382-0.189l0.221-0.113l0.382-0.205l0.251-0.148l0.162-0.15l0.234-0.199l0.178-0.188l0.215-0.219l0.298-0.359
		l0.132-0.256l-0.047-0.322l-0.103-0.375l0.17-0.279l0.272-0.271l0.163-0.215l0.1-0.266l-0.163-0.211l-0.055-0.061l-0.142-0.389
		l0.142-0.271l0.078-0.164l0.254-0.338l0.246-0.248l0.163-0.143l0.021-0.018l0.253-0.205l0.305-0.188l0.255-0.127l0.435,0.035
		l0.375,0.164l0.476,0.199l0.71,0.008l0.297-0.039l0.22-0.068l0.348-0.1l0.49-0.166l0.145-0.178l0.162-0.211l0.157-0.193
		l0.068-0.451l0.062-0.211l0.228-0.186l0.343-0.168l0.21-0.104l0.28-0.105l0.367-0.092l0.28-0.053l0.312-0.031l0.351-0.082
		l0.223-0.113l0.185-0.094l0.138-0.215l0.055-0.215l0.048-0.223l0.077-0.246l0.06-0.23l0.265-0.271l0.322-0.184l0.351-0.018
		l0.1-0.289l0.028-0.088l0.163-0.43l0.159-0.314l-0.162-0.314l-0.025-0.084l-0.112-0.475l0.156-0.271l0.056-0.08L53.149,54
		l0.254-0.207l0.668-0.48l-0.107-0.092l0.12-1.115l0.213-0.49l0.844-1.299l0.154-0.422l0.358-0.625l0.729-1.279l0.156-0.482
		l0.493-0.924l0.491-0.924l1.264-1.633l0.808-1.664l0.264-0.818V41.03l-0.059-0.422l-0.087-0.602l-0.176-0.455l-0.494-0.818
		l-0.553-0.506l-0.926-0.854l-0.431-0.307l-0.419-0.299l-1.24-1.45l-0.272-0.425l-0.25-0.391l-0.369-1.995l0.272-1.172l0.152-0.611
		l0.489-0.967l0.183-0.276l1.234-1.781l0.252-0.64l0.173-0.447l0.031-0.355l0.056-0.763l-0.207-0.952L57.129,24.1l-0.123-0.276
		l-0.123-0.266l-0.021-0.139l-0.047-0.286l-0.024-0.405l-0.044-0.683l0.075-0.987l0.012-0.128l0.088-0.573l0.273-0.606l0.088-0.545
		l0.327-0.896l0.061-0.187l0.604-0.909l0.436-0.555l0.476-0.593l0.664-0.699l1.755-1.146l0.096-0.043l1.322-0.562l0.982-0.154
		l0.954-0.15l2.75,0.424l1.182,0.453l1.418-0.031l1.471-0.545l1.037-0.967l0.335-0.544l0.36-0.33l0.056-0.1l0.161-0.325l0.393-0.391
		l0.152-0.299l0.057-0.124l0.273-0.322l0.704-0.827l0.966-0.545l0.397-0.166l0.532-0.223l1.368-0.463l0.772-0.264l0.914-0.392
		l0.576-0.061l0.26-0.141l1.197-0.673l1.632-1.208l1.3-0.788l0.686-0.527l0.098-0.076l0.103-0.052l2.235-1.097l0.998-0.392
		l0.926-0.483l0.464-0.333l0.202-0.25l0.056-0.08l0.271-0.545l0.635-2.898l0.148-1.417l0.097-0.939l0.332-1.118l0.241-0.486
		l0.338-0.335l0.327-0.33l0.941-0.542l0.483-0.12l0.274-0.118l1.749-0.757l0.466-0.11l0.056-0.011l0.587-0.074l1.325-0.166
		l2.807,0.12l0.512-0.212l0.278-0.215l0.079-0.054l0.118-0.274l0.123-0.271l0.029-1.123l-0.152-1.026l0.56-0.417l0.259-0.189
		l0.875-0.259l1.269-0.374l1.009-0.504l0.869-0.432l1.33-0.816l0.394-0.315l1.208-0.957l0.276-0.314l0.025-0.018l0.484-1.028
		l0.514-1.599l0.297-0.453l0.292-0.946l0.04-0.113l0.333-0.453l0.209-0.483l1.367-1.358l0.015-0.034l0.23-0.573l-0.297-1.42
		l-0.45-0.727l-0.801-1.297l-0.151-0.453l-0.599-1.143l-0.065-0.128l-0.369-1.512l-0.038-0.261l-0.025-0.22l0.271-1.179l0.322-0.425
		l0.791-0.545l0.148-0.036l0.512-0.146l0.639,0.033l1.364-0.123l2.331-0.363l1.028-0.392l0.49-0.274l2.421-1.752l1.663-0.451
		l0.88,0.095l0.512,0.054l0.31,0.107l2.077,0.711l0.791,0.166l0.487,0.103l1.4,0.105l1.493,0.11l1.912-0.179l1.957-0.492l0.34-0.084
		l0.578-0.059l3.23-1.028l1.146-0.243l0.235-0.095l0.281-0.115l0.542-0.059l0.502-0.273l0.215-0.049l0.302-0.072l1.297-0.877
		l1.09-0.363l1.289-0.251l0.436-0.082l0.382,0.049l0.316,0.041l0.727-0.074l2.461-0.258l0.606,0.062l0.545,0.156l0.814,0.238
		l0.705,0.402l0.246,0.144l0.512,0.179l0.199,0.105l1.888,0.957l1.513,0.263l1.24,0.218l1.399,0.163l0.929,0.108l2.123,0.09
		l2.929-0.607l0.113-0.002l1.22-0.026l0.599,0.182l1.149,1.507l0.319,0.284l0.436,0.381l5.197,0.394l1.039,0.043l1.826,0.08
		l0.788-0.125l0.364-0.059l0.511-0.21l0.057-0.023l0.376-0.159l0.382-0.422l0.58-0.371l0.305-0.204l1.09-0.331l0.169-0.015
		l0.46-0.048l3.234,0.818l0.637-0.115l0.027-0.005l1.513-0.576l0.386-0.056l0.818-0.123l1.479,0.03l1.381,0.271l2.019,0.688
		l0.279,0.1l0.082,0.035l1.008,0.448l0.597,0.146l0.02,0.002l1.331-0.028l0.34-0.138l0.174-0.074l0.033-0.031l0.722-0.634
		l0.363-0.827l0.302-0.686l0.15-0.489l0.036-0.115l0.057-1.634l-0.042-0.182l-0.17-0.847l-0.666-1.266l-0.161-0.486l-0.333-0.33
		l-0.102-0.148l-1.019-1.423l-0.082-0.063l-0.703-0.542l-0.509-0.245l-0.489-0.236l-0.708-0.151l-2.175-0.059l-0.744-0.637
		l-0.254-0.998l-0.21-0.453l-0.169-0.333l-0.296-0.256l-0.129-0.11l-0.664-0.151l-3.02-0.332h-0.629l-0.762-0.149l-1.647-0.427
		l-0.922-0.235l-0.425-0.185l-1.117-0.483l-0.925-0.713l-0.326-0.251l-0.243-0.425l-0.665-0.695l-0.459-0.765l-0.271-0.443
		l-0.153-0.453l-0.604-0.757l-2.555-1.635l-2.29-0.143l-2.271-0.328l-1.315,0.471l-0.854,0.691l-2,0.562l-0.957,0.269l-2.456,0.405
		l-0.496-0.281l-0.816-0.448l-0.294-0.069l-0.716-0.174l-2.379-0.148l-1.62-0.1l-1.327,0.189l-1.825,0.264l-2.243-0.376
		l-0.363-0.059l-1.474-0.276l-0.386,0.097l-1.145,0.274l-1.823,1.092l-0.78,0.253l-0.891,0.292l-0.997-0.43l-1.254-0.077
		l-2.021,0.619l-0.032,0.021l-1.175,0.686l-0.973-0.057l-0.921-0.616l-1.724-1l-1.249-0.187l-3.11,0.378l-0.251-0.046l-1.684-0.294
		l-1.744,0.445l-1.121,0.281l-0.365-0.069l-0.464-0.09l-2.284-0.573l-1.809-0.456l-1.139,0.353l-1.31,0.404l-1.472-0.039
		l-2.148-0.059l-0.948-0.054l-0.85-0.051l-1.271,0.786l-1.385,0.854l-2.003,1.294l-0.23,0.151l-3.197-0.184l-2.486-0.952
		l-0.619-0.236l-1.691,0.128l-0.719,0.707l-1.878,1.841l-0.209,0.108l-0.382,0.194l-1.343-0.074l-0.477-0.028l-1.136,0.269
		l-1.581,0.366l-0.498,0.015l-0.755,0.028l-4.728-0.266l-0.277-0.016l-2.891-0.496l-0.46,0.084l-1.382,0.264l-0.504-0.113
		l-1.548-0.337l-0.7-0.095l-0.688-0.092L78.2-49.744l-1.896,0.512l-1.75-0.095l-1.862-0.102l-2.494-0.52l-0.672-0.138l-2.674,0.154
		l-0.546,0.744l-6.59,0.998l-1.373,0.637l-0.873,0.404l-2.107,1.663l-2.02,1.594l-0.335,1.143l-0.854,0.448l-0.152,0.079
		l-4.05,0.041l-5.095,0.057l-2.296,1.62l-2.448,0.455l-0.98-0.054l-2.366-0.123l-1.12,0.632l-0.297,0.164l-1.103,0.622l-1.213,0.13
		l-4.076-0.562l-2.583-0.358l-0.799,0.832l-0.786,0.826l-3.264,4.858l0.654,1.425l0.163,0.358l0.382,0.491l0.71,0.916l-1.755,0.729
		l-0.728,0.304l-1.271-0.238l-1.568-0.294l-1.352,0.415l-1.365,0.417l-1.364,0.131l-1.284,0.123l-1.46,0.121l-0.363,1.015
		l-0.252,0.696l0.972,2.95l-1.037,0.913L4.516-22.43l-5.029,3.04l-4.459,0.107l-0.822,0.021l-3.168,0.619l-0.455,0.726l-0.365,0.589
		l-1.154,2.647l-0.055,0.771l-0.817,1.312l-1.357,0.034l-1.287,0.035l-5.739-0.084l-1.113,2.074l-0.382,2.4l-0.056,0.29l0.023,0.567
		l0.058,1.561l1.143,0.829l2.086,0.328l1.471,0.228l0.365,1.565l-0.466,0.937l-0.383,0.762l-0.314,0.11l-1.152,0.396l-1.975-0.094
		h-0.051l-0.836-0.041l-0.645-0.136l-1.71-0.363l-2.94-1.793l-1.18-0.722l-1.704-1.261L-31.88-6.4l-0.824-0.389l-1.03-0.474
		l-2.119-0.488l-1.588-1.233l-1.867-0.665l-2.205,0.67l-0.478,0.727l-0.875,1.337l-0.112,1.584l-0.055,0.923l-0.297,0.765
		l-0.583,1.515l-2.295,2.021l-2.995,1.602l-1.011,0.726l0.057,0.251l0.308,1.312l1.367,0.836l-0.085,0.45l-0.277,1.466l-3.615,0.417
		l-1.241,0.524l-0.33,1.338l-0.056,0.856l-0.004,0.107l-3.862,0.407l-1.775,1.465l-0.812,0.706l-0.47,0.396l-1.157,0.215
		l-0.525,0.094l-0.182,0.223L-63.476,14l-1.685,3.597l-2.02,1.65l-1.73,0.89l-1.848,0.289l-0.079,0.013l-0.272,0.107l-0.572,0.228
		l-0.473,1.212l-0.268,0.691l-0.539,0.941l-0.003,0.002l-0.27,0.159l-0.471,0.292l-1.298,0.438l-2.001,0.676l-2.127,1.064
		l-0.71,0.358l-0.431,0.238l-2.787,1.558l-0.89,0.565l-0.105,0.069l-0.152,0.468l-0.162,0.483l0.124,1.748l-0.069,0.29l-0.078,0.284
		l-0.272,0.041l-1.284,0.184l-2.024,1.993l-0.144,0.138l-0.987,2.376l0.265,1.463l1.48,1.031l1.497,0.746l2.093,1.891l0.601,0.545
		l0.281,0.115l0.525,0.209l2.577,0.498l0.538,0.289l1.417,0.764l0.817,0.736l0.985,0.891l1.403,0.354l1.896,0.178l0.508-0.016
		l0.804-0.025l1.638,0.463l0.26,0.648l0.261,0.629l0.042,0.387l0.255,2.332l-0.322,1.248l-0.048,0.682l0.841,0.635l0.512,0.391
		l0.633,0.066l0.904,0.098l0.565,0.025l0.619,0.031l1.255,0.928l3.497,4.514l0.348,0.838l0.268,0.641l2.452,2.527l-0.055,0.771
		l-0.875,2.379l-0.077,1.254l0.517,0.994l1.362,1.033l0.775,0.344l1.875,0.84l1.159,0.439l1.503,1.01l0.003,0.619l0.017,0.986
		l-0.87,1.871l-0.079,0.078l-3.104,3.188l-1.003,1.965l-0.087,1.361l-0.013,0.146l0.498,0.504l0.646,0.648l1.768,1.188l3.22,1.453
		l2.01,0.768l0.388,0.15l0.341,0.084l2.2,0.533l1.197,0.463l0.163,0.381l0.055,0.129l-0.356,1.588l-1.038,1.85l-0.228,0.402
		l-0.6,1.684l-0.019,0.984l-0.019,1.223l1.099,1.09l0.28,0.281l3.274,2.361l0.338,0.279l1.05,0.887l0.185,0.814l-0.47,1.387
		l-0.582,1.277l-1.42,0.896l-0.505,0.324l-7.356,10.504l-0.104,0.777l-0.148,1.02l0.382,0.793l0.262,0.541l1.149,1.059l1.124,0.693
		l1.698,1.043l2.892,2.447l1.399,0.969l2.423,0.416l1.564,0.477L-37.446,127.699"/>
</g>
<g id="Layer_1_1_">
</g>
</svg>
