<?xml version="1.0" encoding="utf-8"?>
<!-- Generator: Adobe Illustrator 16.0.4, SVG Export Plug-In . SVG Version: 6.00 Build 0)  -->
<!DOCTYPE svg PUBLIC "-//W3C//DTD SVG 1.1//EN" "http://www.w3.org/Graphics/SVG/1.1/DTD/svg11.dtd">
<svg version="1.1" id="Layer_1" xmlns="http://www.w3.org/2000/svg" xmlns:xlink="http://www.w3.org/1999/xlink" x="0px" y="0px"
	 width="301.383px" height="185.419px" viewBox="-97.227 -59.742 301.383 185.419"
	 style="enable-background:new -97.227 -59.742 301.383 185.419;" xml:space="preserve">
<g id="Layer_9">
	<g id="Rahim_Yar_Khan">
		<path id="Rahim_Yar_Khan_4_" style="fill:#CCCCCC;stroke:#FFFFFF;stroke-width:1.15;" d="M176.713-53.319L176.713-53.319
			l-0.611-0.354l-2.823-1.132l-1.433-0.472l-0.88-0.446l-0.646-0.287l-0.411-0.124l-0.413,0.008l-0.376,0.107l-0.26,0.271
			l-0.155,0.271l0.016,0.327l0.02,0.526l0.021,0.729l-0.098,0.698l-0.147,0.134l-0.229,0.105l-0.524,0.051l-1.175-0.204
			l-0.846-0.153l-0.611-0.161l-0.688-0.178l-0.495-0.263l-0.534-0.252l-0.344-0.097l-0.515,0.011l-0.387,0.107l-0.287,0.169
			l-0.261,0.373l-0.512,1.604l-0.199,0.934l-0.236,1.127l-0.413,1.132l-0.785,1.543l-0.781,1.766l-0.402,0.77l-0.311,0.701
			l-0.181,0.171l-0.186,0.169l-0.375,0.067l-0.298-0.027l-0.234-0.193l-0.235-0.257l-0.295-0.226l-0.288-0.113l-0.214,0.005
			l-0.298,0.15l-0.33,0.247l-0.362,0.191l-0.367,0.145l-0.33,0.041l-0.462-0.021l-0.212,0.002l-0.18,0.059l-0.292,0.113l-0.242,0.22
			l-0.198,0.328l-0.263,0.663l-0.309,0.851l-0.233,0.456l-0.344,0.811l-0.261,0.746l-0.26,0.757l-0.12,0.416l-0.108,0.564
			l-0.169,0.354l-0.235,0.295l-0.276,0.257l-0.449,0.273l-0.659,0.204l-1.122,0.183l-1.521,0.354l-1.575,0.279l-1.033,0.177
			l-0.488,0.226l-0.276,0.193l-0.147,0.218l-0.113,0.287l-0.172,0.625l-0.284,1.618l0.284,0.77l-0.208,0.091l-0.414,0.198
			l-0.569,0.11l-1.017,0.295l-1.014,0.333l-1.038,0.392l-0.859,0.451l-0.518,0.26l-0.636,0.362l-0.563,0.4l-0.396,0.287
			l-0.403,0.421l-0.399,0.421l-0.335,0.384l-0.462,0.386l-0.518,0.4l-0.488,0.357l-0.729,0.333l-0.36,0.153l-0.23,0.142
			l-0.287,0.048l-0.228-0.026l-0.178-0.057l-0.408-0.113l-0.23-0.053l-0.51-0.043l-0.407,0.056l-0.617,0.172l-0.411,0.196
			l-0.59,0.287l-0.067,0.257l-0.003,0.327l0.052,0.288l0.149,0.475l0.261,0.743l0.226,0.719l0.059,0.287l0.057,0.29l-0.016,0.274
			l-0.092,0.172l-0.177,0.204l-0.178,0.11l-0.193,0.064l-0.268,0.022h-0.23l-0.385-0.006l-0.359,0.057l-0.257,0.091l-0.204,0.11
			l-0.102,0.056l-0.13,0.107l-0.029,0.164l-0.102,0.4l-0.08,0.338l-0.078,0.171l-0.129,0.113l-0.169,0.113l-0.365,0.134
			l-0.284,0.059l-0.486,0.049l-0.49,0.093l-0.304,0.022l-0.359-0.005l-0.561-0.065l-0.765-0.139l-0.992-0.252l-0.846-0.287
			l-0.714-0.166l-0.765-0.164l-1.25-0.392l-0.679-0.14l-0.508,0.502l-1.04,0.365l-0.693,0.218l-0.429,0.107l-0.241,0.209
			l-0.287,0.343l-0.486,0.341l-0.614,0.66l-0.172,0.287l-0.008,0.287l0.23,0.451l0.433,0.196l0.464,0.25l0.789,0.386l0.914,0.655
			l0.333,0.226l0.399,0.502l0.406,0.472l0.201,0.279l0.711,0.515l0.888,0.588l1.211,0.882l0.482,0.424l0.164,0.276l0.125,0.518
			l0.1,0.386l0.024,0.486l-0.11,0.411l-0.156,0.306l-0.246,0.464l-0.376,0.639l-0.229,0.408l-0.101,0.274l-0.099,0.295l-0.126,0.51
			l-0.181,0.875l-0.198,0.628l-0.289,0.923L116.824-2.6l-0.25,0.4l-0.338,0.319l-0.313,0.255l-0.245,0.067l-0.333,0.046
			l-0.287-0.056l-0.217-0.162l-0.287-0.3l-0.66-0.896l-0.25-0.29l-0.071-0.201l-0.127-0.403l-0.121-0.212l-0.303-0.405l-0.281-0.244
			l-0.285-0.285l-0.225-0.322l-0.19-0.285l-0.193-0.18l-0.313-0.107l-0.29-0.019L110.58-5.82l-1.124,0.191l-0.851,0.078
			l-0.851,0.169l-0.62,0.164l-0.972,0.204l-0.7,0.247l-0.378,0.171l-0.149,0.156l-0.057,0.15l-0.115,0.169l-0.02,0.147l0.029,0.298
			l0.115,0.23l0.303,0.282l0.793,0.703l0.842,0.953l0.802,1.089l0.615,1.036l0.212,0.435l-0.006,0.258l-0.129,0.389l-0.204,0.347
			l-0.354,0.249l-0.485,0.247l-0.606,0.177l-0.292,0.118l-0.299,0.054l-0.185-0.013h-0.236l-0.37-0.073l-0.317-0.08l-0.306-0.188
			l-0.376-0.212l-0.407-0.177l-0.402-0.145l-0.273-0.067l-0.269-0.019l-0.416,0.075l-0.338,0.088l-0.416,0.169l-0.314,0.118
			l-0.166,0.029l-0.284-0.003l-0.161-0.051l-0.223-0.118l-0.421-0.456l-0.443-0.494L99.352,0.84l-0.4-0.322l-0.303-0.059
			l-0.175,0.043L98.249,0.66l-0.073,0.171L98.141,1l0.003,0.199l0.064,0.284l0.115,0.255l0.06,0.169l0.006,0.171l-0.015,0.156
			l-0.096,0.215l-0.172,0.25l-0.284,0.179l-0.284,0.078l-0.382,0.051l-0.392-0.059l-0.258-0.182l-0.3-0.328l-0.276-0.201
			l-0.169-0.132L95.59,2.047l-0.172-0.011l-0.175,0.089l-0.266,0.285l-0.169,0.171l-0.016,0.186l0.01,0.359l0.11,0.314l0.266,0.306
			l0.513,0.424l0.735,0.598l0.703,0.457l0.676,0.488l0.399,0.402l0.309,0.429l0.15,0.354l0.075,0.451l0.057,0.668l-0.06,0.507
			l-0.284,0.749l-0.402,0.733l-0.448,0.687l-0.279,0.303l-0.294,0.287l-0.388,0.212l-0.372,0.199l-0.399,0.113l-0.631,0.059
			l-0.744,0.059h-1.316l-0.758,0.064l-0.938,0.059l-0.985-0.059l-0.692,0.014l-0.435,0.069l-0.665,0.15l-0.628,0.129l-0.663,0.029
			l-0.949-0.029l-0.491,0.002l-0.288,0.1l-0.517,0.225l-0.64,0.295l-0.759,0.516l-0.622,0.472l-0.531,0.548l-0.539,0.501l-0.4,0.4
			l-0.109,0.145l-0.14,0.196l-0.121,0.298l-0.024,0.212l0.024,0.47l0.045,0.405l0.132,0.29l0.322,0.306l0.676,0.287l0.891,0.255
			l1.006,0.217l0.746,0.134l0.682,0.193l0.347,0.285l0.158,0.276l-0.014,0.137l-0.097,0.269l-0.287,0.287l-0.41,0.284l-0.395,0.271
			l-0.58,0.22l-0.447,0.247l-0.4,0.284l-0.424,0.311l-0.192,0.188l-0.339,0.301l-0.324,0.456l-0.374,0.515l-0.257,0.276
			l-0.402,0.371l-0.43,0.292l-0.147,0.317l-0.008,0.333l0.062,0.397l0.18,0.317l-0.255,0.129l-0.215,0.123l-0.211,0.204
			l-0.103,0.118l-0.11,0.169l-0.149,0.193l-0.137,0.285l-0.111,0.338l-0.042,0.3l-0.003,0.298l-0.021,0.18l-0.051,0.188
			l-0.103,0.137l-0.147,0.094l-0.19,0.153l-0.399,0.19l-0.266,0.096l-0.11,0.016l-0.183-0.01l-0.361-0.083l-0.314-0.142
			l-0.502-0.284l-0.295-0.226l-0.338-0.239L76.1,27.392l-0.135-0.102l-0.608-0.427l-0.344-0.261l-0.37-0.174l-0.226-0.064H74.15
			l-0.274,0.051l-0.516,0.096l-0.155,0.073l-0.278,0.177l-0.13,0.105l-0.169,0.15l-0.104,0.118l-0.109,0.319l-0.019,0.172
			l0.037,0.148l0.059,0.207l-0.01,0.174l-0.035,0.204l-0.147,0.287l-0.137,0.226l-0.21,0.292l-0.172,0.172l-0.201,0.169
			l-0.226,0.161l-0.22,0.105l-0.268,0.083l-0.357,0.078l-0.381,0.102l-0.432,0.134l-0.357,0.174l-0.19,0.126l-0.18,0.171
			l-0.091,0.172l-0.086,0.255l-0.046,0.241l-0.011,0.349l0.04,0.384l0.056,0.204l0.012,0.363l0.023,0.268l0.003,0.996l-0.042,0.859
			l-0.159,0.711l-0.072,0.293l-0.086,0.197l-0.075,0.146l-0.102,0.125l-0.169,0.166l-0.285,0.172l-0.482,0.219L66.95,37.01
			l-0.384,0.236l-0.389,0.186l-0.285,0.158l-0.284,0.18l-0.268,0.174l-0.516,0.385L64.6,38.492l-0.344,0.215l-0.378,0.252
			l-0.285,0.117l-0.286,0.125l-0.196,0.037l-0.286,0.123l-0.271,0.152l-0.438,0.135l-0.518,0.072l-0.436-0.016l-0.376-0.057
			l-0.22-0.059l-0.329-0.205l-0.204-0.23l-0.496-0.494l-0.333-0.369l-0.314-0.377l-0.398-0.32l-0.4-0.479l-0.194-0.193l-0.315-0.258
			l-0.266-0.219l-0.237-0.188l-0.321-0.104l-0.266-0.053l-0.249-0.021l-0.309,0.043l-0.164,0.031l-0.155,0.076l-0.062,0.113
			l-0.059,0.168l0.059,0.297l0.277,0.508l0.349,0.518l0.281,0.424l0.169,0.416l0.198,0.461l0.057,0.197l0.014,0.215l-0.075,0.158
			l-0.11,0.076l-0.287,0.109l-0.386,0.062l-0.606-0.08l-0.459-0.037l-0.606-0.006l-0.392,0.143l-0.261,0.094l-0.287,0.184
			l-0.223,0.145l-0.094,0.143l-0.077,0.283l-0.062,0.293l-0.056,0.191l-0.108,0.182l-0.225,0.299l-0.328,0.389l-0.439,0.363
			l-0.47,0.314l-0.405,0.234l-0.41,0.16l-0.273,0.059l-0.229-0.008l-0.324-0.045l-0.25-0.17l-1.773-0.357l-3.748-0.4l0.011,0.111
			l0.057,0.094l0.074,0.078l0.178,0.344l0.574,0.742l0.201,0.52l0.1,0.18l0.106,0.033l0.169-0.006l0.403,0.055l0.352,0.117
			l1.029,0.207l0.476,0.137h0.08l0.239-0.074l0.636,0.041l0.175,0.053l0.023,0.033l-0.117,0.25l-0.221,0.205l-0.134,0.172
			L48.3,45.783l0.003,0.109l0.045,0.158l0.107,0.195l0.07,0.094l0.059,0.014l0.089-0.037L48.702,46l0.032-0.078l0.059-0.029
			l0.132,0.01l0.067,0.059l0.056,0.508l0.057,0.143l0.239,0.195l0.035,0.035l0.241,0.094l0.45,0.088l0.51-0.064l0.261,0.031
			l0.118,0.051l0.244,0.287l0.097,0.154l0.056,0.289v0.135l-0.08,0.457l-0.011,0.158l0.054,0.186l0.062,0.17l0.346,0.404
			l0.116,0.295l0.008,0.24l-0.11,0.564l-0.129,0.273l-0.169,0.295l-0.086,0.139l-0.161,0.205l0.006,0.068l0.1,0.154l0.188,0.143
			l0.051,0.057l-0.281,0.402l-0.073,0.174l-0.263,0.338l-0.04,0.145l0.051,0.23l0.003,0.113l-0.188,0.191l-0.064,0.117l-0.041,0.387
			l0.11,0.527l0.091,0.201l0.032,0.066l0.156,0.936l0.112,0.396l0.049,0.395l0.057,0.371l0.088,0.23l0.23,0.303l0.209,0.16
			l0.25,0.119l0.416,0.104l0.395,0.055l0.309-0.027l0.257-0.068l0.116-0.006l0.118,0.035l0.04,0.061l-0.04,0.17l-0.201,0.285
			l-0.264,0.326l-0.102,0.143l-0.037,0.088l0.026,0.072l0.395,0.311l0.166,0.211l0.046,0.115l-0.024,0.086l-0.376,0.381l-0.072,0.23
			l0.035,0.172l-0.024,0.109l-0.064,0.248l-0.035,0.205l0.116,0.393l0.064,0.135l0.174,0.283l0.155,0.232l0.169,0.168l0.514,0.379
			l0.054,0.129l-0.009,0.232l0.03,0.236l0.106,0.135v0.195l0.083,0.467l0.073,0.188l0.107,0.105l0.631,0.645l0.007,0.059
			l0.073,0.303l0.338,0.361l0.18,0.287l0.081,0.104l-0.057,0.27l-0.402,0.404l-0.4,0.576l-0.292,0.279l-0.06,0.172l-0.517,0.262
			l-0.403,0.795l-0.123,0.379l-0.015,0.246l0.009,0.102l0.06,0.043l0.053,0.008l0.06-0.029l0.241-0.4l0.051-0.029l0.199,0.02
			l0.059,0.037l-0.142,0.492l0.035,0.195l0.343,0.652l0.102,0.275l0.089,0.348l0.003,0.348l-0.137,0.666L54.713,72.4l-0.118,0.471
			v0.168l0.059,0.125l0.271,0.184l2.019,3.082l0.485,0.592l0.266,0.389l0.172,0.232l0.203,0.412l0.191,0.717l0.217,0.434
			l0.561,0.523l1.662,2.246l1.023,1.244l1.031,1.262l0.749,0.975l0.877,0.828l0.961,0.896l0.745,0.627l0.239,0.25l0.563,0.68
			l0.702,0.742l0.612,0.617l0.464,0.479l0.271,0.379l0.244,0.736l0.175,0.467l0.453,0.51l0.386,0.465l0.095,0.129l0.654,0.949
			l0.435,0.523l0.298,0.223l0.743,0.576l2.12,0.643l0.759,0.182l1.033,0.342l0.627,0.531l0.309,0.287l0.519,0.764l2.119,1.779
			l0.302,0.244l0.799,0.111l1.116,0.514l0.518,0.172l0.781,0.168l0.858,0.207l1.545,0.316l0.58,0.037l2.016,0.857l0.63,0.312
			l2.687,1.342l1.563,0.141l0.781-0.881l1.892-2.143l8.417-5.143l2.348-1.719l0.109-0.078l2.166-2.131l0.163-0.168l1.092-1.225
			l0.105-0.168l0.297-0.52l3.384-2.869l4.854-1.033l1.434-0.262l1.271-0.227l1.778-0.518l1.34-0.393l2.212-0.482l1.211-0.07
			l2.294-0.137l1.347,0.201l0.984,0.148l2.533,0.986l1.154,0.457l0.558,0.488l3.571,3.107l3.375,3.08l2.074,1.971l1.629,1.549
			l0.078,0.105l1.213,1.742l0.083,5.088l0.188,1.223l0.145,0.922l0.143,0.631l0.169,0.734l0.99,1.789l0.26,0.453l0.999,1.326
			l0.319,0.48l0.244,0.361l0.083,0.264l0.155,0.479l1.044,1.65l0.057,0.369l0.461,0.508l0.309,0.334l0.145,0.299l0.331,0.689
			l1.392,2.066l1.546,1.773l0.399,0.6l0.314,0.48l0.52,0.127l0.557,0.135l4.18,0.252l1.312,0.141l0.338,0.047l2.948,0.238
			l0.231,0.02l2.208,0.438l2.268-0.078l2.325-0.559l3.057-1.16l4.532-1.869l4.984-2.049l3.576-1.49l4.503-1.881l2.187-0.971
			l-0.837-3.379l-0.038-1.076l-0.106-0.727l-0.076-0.533l-0.099-0.596l-0.204-1.189l-0.145-0.822l-0.06-0.824l0.032-0.609
			l0.038-0.564l-0.046-1.088l-0.06-0.625l-0.114-0.459l-0.506-1.016l-0.487-1.172l-0.284-0.611l-0.376-1.232l-0.332-1.1
			l-0.191-1.035l-0.117-1.023l-0.095-0.777l-0.395-1.281l-0.257-1.201l-0.127-0.711l-0.01-0.742l-0.03-0.346l-0.169-0.689
			l-0.424-1.184l-0.341-0.836l-0.402-0.98l-0.226-0.807l-0.1-0.578l-0.238-0.637l-0.45-1.277l-0.357-0.771l-0.147-0.488
			l-0.118-0.561l-0.057-0.695l-0.083-0.711l-0.172-0.668l-0.195-0.943l-0.215-0.607l-0.288-0.639l-0.284-0.553l-0.447-0.705
			l-0.403-0.627l-0.498-0.682l-0.69-0.969l-1.236-1.619l-0.542-0.975l-0.261-0.773l-0.341-0.832l-0.398-1.541l-0.425-1.564
			l-0.298-1.031l-0.241-0.76l-0.271-1.43l-0.313-2.066l-0.086-0.557l-0.043-0.264l-0.077-0.793l-0.006-1.01l0.077-0.934l0.172-1.07
			l0.095-0.947l-0.017-0.461l0.172-1.438l0.048-2.137l-0.096-1.326l-0.119-1.852l-0.306-2.193l-0.134-0.859l-0.19-0.855
			l-0.392-1.629l-0.424-1.865l-0.164-0.912l-0.344-1.717l-0.249-1.637l-0.076-2.217l-0.24-1.47l0.019-2.044l-0.057-1.648
			l0.304-1.813l0.2-1.975l0.284-1.055l0.803-2.267l0.703-2.345l0.301-1.867l0.169-1.369l0.402-1.787l0.327-1.074l0.362-0.941
			l0.497-1.317l0.398-0.834l0.459-0.923l0.872-1.605l1.191-1.883l0.975-1.556l0.743-1.661l0.338-0.896l0.8-1.733l0.324-0.574
			l0.789-1.886l0.539-1.921l0.162-0.781l0.49-2.173l0.255-1.889l0.121-0.746v-0.692l-0.169-0.475l-0.169-0.403l-0.261-0.421
			l-0.287-0.314l-0.285-0.309l-0.517-0.416l-0.175-0.368l-0.04-0.402l0.059-0.266l0.115-0.22l0.239-0.172l0.266-0.175l0.858-0.507
			l0.381-0.359l0.145-0.198l0.051-0.215l-0.063-0.4l-0.172-0.387l-0.245-0.518l-0.313-0.574l-0.223-0.771l-0.117-0.534l0.037-0.287
			l0.172-0.161l0.217-0.172l0.287-0.204l0.169-0.217l0.135-0.486l0.054-0.539l-0.086-0.443l-0.105-0.322l-0.232-0.293l-0.299-0.169
			l-0.493,0.011l-0.399,0.073l-0.271-0.019l-0.287-0.1l-0.134-0.282l-0.019-0.515l0.083-0.435l0.112-0.241l0.336-0.288l0.37-0.102
			l0.464-0.094l0.143-0.137l0.091-0.268l0.11-0.349l0.059-0.193l0.186-0.172l0.268-0.167l0.274-0.196l0.146-0.137l0.061-0.285
			l-0.057-0.319l-0.211-0.4l-0.22-0.609l-0.057-0.402l0.075-0.51l0.386-0.414l0.523-0.338l0.631-0.427l0.652-0.311l0.401-0.282
			l0.236-0.309l0.236-0.284l-0.067-3.019l-0.466-2.739l-1.125-1.307l0.479-0.375l0.48-0.379l0.15-0.273l-0.016-0.561l-0.276-0.553
			l-0.23-0.193l-0.307-0.086l-0.453-0.059l-0.828,0.016l-1.053,0.183l-1.125,0.349l-1.043,0.482l-0.818,0.547l-0.518,0.472
			l-0.327,0.435l-0.525,1.126l-0.895,2.072l-0.644,1.43l-0.362,0.606l-0.367,0.376l-0.287,0.161l-0.299-0.029l-0.383-0.124
			l-0.649-0.314l-1.497-0.968l-1.087-0.867l-0.961-0.679l-0.192-0.191l-0.073-0.328l-0.013-0.566l-0.092-0.649l-0.207-0.729
			l-0.421-0.357l-0.848-0.708l-0.312-0.365l-0.045-0.23l0.059-0.526l0.097-0.698l-0.089-0.496l-0.188-0.397l-0.303-0.171
			l-0.269-0.124l-0.344-0.169l-0.232-0.182l-0.234-0.285l-0.056-0.328l0.021-0.657l-0.059-0.363l-0.164-0.23l-0.341-0.089
			l-0.381,0.005l-0.401,0.175l-0.604,0.338l-0.555,0.282l-0.604,0.072l-0.494-0.086l-0.118-0.134l-0.051-0.196l0.107-0.198
			l0.438-0.532l0.628-0.805l0.655-0.676l0.628-0.633l0.401-0.523l0.255-0.63l0.245-0.8l0.172-0.759l0.09-0.834l-0.087-0.521
			L176.713-53.319"/>
		<path id="Rahim_Yar_Khan_3_" style="fill:none;stroke:#FFFFFF;stroke-width:1.15;" d="M16.889,60.898L16.889,60.898l-0.135-0.107
			l-0.745-0.33l-0.583-0.291l-0.496-0.4l-0.676-0.518l-0.43-0.398l-0.67-0.354l-0.792-0.354l0.088,0.447l0.161,0.35l0.255,0.662
			l0.089,0.734l-0.003,0.328l-0.188,0.861l-0.354,0.742l-0.467,0.746l-0.399,0.521l-0.121,0.41l-0.035,0.287l0.267,0.309l0.63,0.375
			l0.55,0.188l0.4,0.141l0.88,0.48l0.676,0.289l0.856,0.598l0.499,0.393l0.279,0.281l0.284,0.287l0.115,0.383l0.228,0.619
			l0.258,0.252l0.719,0.205l0.17,0.17l0.142,0.502l0.041,1.236l0.062,1.654l0.134,0.699l0.44,0.578l0.51,0.354l0.587,0.186
			l0.725,0.002l0.585-0.143l0.58-0.346l0.354-0.381l0.22-0.504l0.095-0.43l0.002-0.453l-0.14-0.473l-0.182-0.604v-0.309l0.094-0.244
			l0.143-0.395l0.257-0.432l0.035-0.35l0.121-0.783l0.206-0.578l0.591-0.742l0.614-0.799l0.169-0.449v-0.252l-0.14-0.199
			l-0.335-0.148l-0.583-0.148l-1.344-0.314l-1.05-0.248l-0.555-0.061l-0.757-0.031l-0.418-0.127l-0.373-0.303l-0.229-0.307
			l-0.172-0.729l-0.201-0.5l-0.284-0.496l-0.396-0.41l-0.322-0.43L16.889,60.898"/>
		<path id="Rahim_Yar_Khan_2_" style="fill:#CCCCCC;stroke:#FFFFFF;stroke-width:1.15;" d="M44.632,52.808L44.632,52.808
			l-0.183-0.123l-0.536-0.107l-0.233,0.049l-0.411,0.123l-0.561,0.287l-0.82,0.568l-0.747,0.652L40.74,54.66l-0.535,0.271
			l-0.518,0.1l-0.743-0.004l-0.606-0.189l-0.729-0.629l-0.405-0.471l-0.802-1.043l-0.763-0.928l-0.531-0.543l-0.485-0.627
			l-0.974-0.742l-1.32-1.012l-1.277-0.645l-0.376-0.102l-0.439-0.027l-0.518,0.078l-0.878,0.301l-0.651,0.176l-1.025,0.061
			l-0.757-0.049l-1.143-0.152l-0.33-0.191l-0.183-0.246l-0.14-0.436l-0.112-0.531l-0.236-0.631l-1.54-2.17l-0.754-1.012l-0.399-0.17
			l-0.413,0.045l-0.4,0.045l-0.974,0.283l-0.562,0.32L19.051,44l-0.094,0.35l-0.026,0.283l0.117,0.273l0.44,0.705l0.23,0.398
			l0.137,0.229l0.285,0.275l0.373,0.398l0.41,0.658l0.4,0.602l0.346,0.625l0.76,1.432l0.311,0.621l0.858,1.531l0.258,0.561
			l0.413,0.682l0.51,0.594l0.556,0.58l0.349,0.703l0.293,0.959l0.112,0.779l0.059,0.756l0.054,1.07l0.113,0.697l0.011,0.73
			l0.059,0.057l0.121,0.344l0.183,0.725l0.169,0.854l0.172,0.518l0.109,0.285l0.146,0.023l0.206-0.059l0.422-0.324l0.582-0.244
			l0.759-0.1l0.73,0.027l1.19,0.133l1.114,0.184l0.767,0.188l0.72,0.168l0.26-0.045l0.467-0.178l0.373-0.201l0.172-0.551
			l0.006-0.479l-0.347-0.838l-0.064-0.621l0.287-0.473l0.532-0.27l0.785-0.373l0.387-0.225l0.746-0.176l0.349,0.082l0.556,0.379
			l0.416,0.248l0.278,0.285l0.209,0.354l0.277,0.398l0.263,0.375l0.437,0.332l0.468,0.232l0.724,0.143l0.459-0.021l0.604-0.219
			l0.591-0.531L43.481,60l0.277-1.73l0.056-1.623l0.059-0.291l0.285-1.328l0.268-0.699l0.287-0.725l0.006-0.451L44.632,52.808"/>
		<path id="Rahim_Yar_Khan_1_" style="fill:#CCCCCC;stroke:#FFFFFF;stroke-width:1.15;" d="M-34.49,85.484L-34.49,85.484
			l0.017-0.057l0.056-0.287v-0.105l-0.045-0.17l-0.271-0.256l-0.937-1.135l-1.66-1.816l-0.706-0.762l-0.958-0.797l-1.09-0.818
			l-0.593-0.404l-0.504-0.238l-0.668-0.088l-0.812-0.057l-0.629,0.1l-0.404,0.066l-0.765,0.287l-1.004,0.299l-0.646,0.072
			l-0.55-0.008l-0.43-0.047l-0.239-0.166l-0.163-0.15l-0.186-0.318l-0.118-0.285l-0.077-0.396l-0.064-0.385l-0.116-0.211
			l-0.072-0.057l-0.145,0.057l-0.193,0.188l-0.244,0.303l-0.287,0.293l-0.338,0.145l-0.309,0.059l-0.29-0.086l-0.077-0.021
			l-0.359-0.176l-0.271-0.215l-0.321-0.258l-0.35-0.1l-0.413,0.127l-0.561,0.148l-0.36,0.041l-0.687,0.207l-0.429,0.17l-0.408,0.287
			l-0.233,0.072l-0.239,0.146l-0.23,0.115l-0.271,0.098l-0.183-0.021l-0.284-0.098l-0.295-0.182l-0.523-0.328l-0.551-0.281
			l-0.694-0.287l-0.682-0.324l-0.438-0.055l-0.413-0.029l-0.674-0.113l-1.178-0.375l-0.716-0.311l-0.703-0.158l-0.395-0.137
			l-0.826-0.082l-0.728-0.057l-0.931-0.17l-0.749-0.205l-0.619-0.227l-0.483-0.326l-0.619-0.359l-0.849-0.41l-0.751-0.289
			l-0.729-0.193l-1.004-0.172l-0.566-0.064l-0.775,0.023l-0.512,0.08l-0.709,0.057l-0.563-0.057l-0.654-0.094l-0.631-0.094
			l-0.727-0.271l-0.757-0.277l-0.529-0.215l-0.48-0.287l-0.426-0.309l-0.519-0.234l-0.742-0.287l-1.025-0.35l-0.746-0.197
			l-1.279-0.287l-0.502-0.102l-0.84-0.045l-0.743-0.061l-0.583,0.033l-0.51,0.072l-0.687,0.109l-0.596,0.047l-0.628,0.059
			l-0.295,0.043l-0.375-0.043l-0.54-0.119l-0.522-0.037l-0.655,0.033l-1.205-0.057l-0.056-0.01l0.217,0.723l0.285,1.07l0.271,1.09
			l0.161,1.086l0.169,0.674L-90.159,76l0.513,1.047l0.574,1.115l0.44,0.756l0.247,0.4l0.265,0.316l0.354,0.303l0.169,0.041
			l0.217,0.01l0.274-0.066l0.284-0.234l0.376-0.395l0.246-0.23l0.175-0.086l0.384-0.102l0.166-0.037l0.202,0.029l0.106,0.078
			l0.095,0.125l0.131,0.172l0.186,0.24l0.171,0.238l0.255,0.131l0.245,0.08l0.284-0.004l0.198-0.025l0.081,0.057l0.093,0.09
			l-0.034,0.154l-0.083,0.113l-0.161,0.162l-0.229,0.172l-0.281,0.092l-0.271,0.084l-0.284,0.123l-0.233,0.066l-0.252,0.059
			l-0.129,0.047l-0.016,0.129l0.077,0.225l0.1,0.352l0.075,0.256l0.155,0.205l0.397,0.363l0.608,0.434l0.795,0.469l0.679,0.338
			l0.37,0.174l0.158,0.17l0.003,0.096l-0.014,0.111l-0.088,0.074l-0.07,0.059l-0.172,0.059l-0.88,0.043l-1.015,0.057l-0.619,0.057
			l-0.218,0.115l-0.174,0.166l-0.1,0.178l-0.062,0.162l0.059,0.279l0.226,0.328l0.247,0.186l0.676,0.275l0.894,0.305l0.953,0.184
			l0.59,0.207l0.805,0.17l1.127,0.232l0.677,0.135l0.539,0.043l0.981,0.18l0.714,0.115l0.516,0.209l0.654,0.262l0.482,0.248
			l0.526,0.199l0.352,0.234l0.424,0.344l0.287,0.314l0.218,0.184l0.399,0.174l1.02,0.236l0.15,0.064l0.367,0.166l0.553,0.309
			l0.628,0.438l0.313,0.326l0.551,0.32l0.716,0.289l0.545,0.021l1.27-0.025l1.014-0.068l0.615,0.023l0.478,0.047l0.287,0.09
			l0.351,0.211l0.698,0.363l0.614,0.357l0.518,0.248l0.516,0.168l0.673,0.207l0.562,0.102l0.515,0.057l0.26,0.014l0.218,0.059
			l0.129,0.076l0.169,0.141l0.115,0.207l0.103,0.496l0.169,0.594l0.188,0.576l0.287,0.633l0.169,0.242l0.438,0.23l0.402,0.254
			l0.4,0.385l0.485,0.363l0.309,0.174l0.18-0.004l-0.06,1.15l1.004,0.549l0.392-0.246l0.507-0.496l0.395-0.408l0.33-0.432
			l0.236-0.537l0.06-0.453l-0.06-0.285l-0.14-0.49l-0.083-0.355l0.032-0.332l0.003-0.199l0.102-0.387l0.298-0.195l0.163-0.096
			l0.181,0.002l0.249,0.006l0.43,0.127l0.384-0.012l0.48-0.094l0.49-0.121l0.411-0.086l0.413-0.268l0.445-0.363l0.368-0.311
			l0.515-0.242l0.287-0.146l0.421-0.281l0.4-0.211l0.351-0.291l0.172-0.166l0.193-0.285l0.273-0.23l0.274-0.191l0.461-0.285
			l0.599-0.326l0.461-0.309l0.489-0.336l0.424-0.049l1.118-0.039l0.689,0.057l0.818,0.066l0.384,0.027l0.172-0.059l0.301-0.17
			l0.316-0.344l0.542-0.764l0.402-0.492l0.352-0.424l0.319-0.359l0.244-0.402l0.284-0.518l0.266-0.373l0.183-0.453l0.145-0.264
			l0.207-0.361l0.196-0.201l0.467-0.184l0.45-0.104l0.561-0.012l0.542-0.059L-34.49,85.484"/>
	</g>
</g>
<g id="Layer_1_1_">
</g>
</svg>
