<?xml version="1.0" encoding="iso-8859-1"?>
<!-- Generator: Adobe Illustrator 16.0.4, SVG Export Plug-In . SVG Version: 6.00 Build 0)  -->
<!DOCTYPE svg PUBLIC "-//W3C//DTD SVG 1.1//EN" "http://www.w3.org/Graphics/SVG/1.1/DTD/svg11.dtd">
<svg version="1.1" xmlns="http://www.w3.org/2000/svg" xmlns:xlink="http://www.w3.org/1999/xlink" x="0px" y="0px"
	 width="69.002px" height="71.559px" viewBox="0 0 69.002 71.559" style="enable-background:new 0 0 69.002 71.559;"
	 xml:space="preserve">
<g id="Layer_135">
	<g id="Layer_140">
		<path id="Kalat" style="fill:#CCCCCC;stroke:#FFFFFF;stroke-width:1.07;" d="
			M54.266,5.385L54.266,5.385l0.035,0.237L54.24,5.812l-0.196,0.286l-0.318,0.308l-0.472,0.424l-0.268,0.29l-0.074,0.235l-0.008,0.2
			l-0.115,0.129l-0.123,0.021l-0.145-0.041l-0.186-0.146l-0.125-0.025l-0.083,0.112l0.012,0.199l-0.073,0.593l-0.113,0.175
			L51.71,8.661L51.285,8.68l-0.422-0.045l-0.677-0.078l-0.771-0.15l-0.639-0.034l-0.875-0.147l-0.429-0.057l-0.39,0.002
			l-0.475,0.066l-0.468,0.176l-0.487,0.131l-0.647,0.123l-0.722,0.062l-0.698,0.154l-0.599,0.059l-0.936,0.043l-0.268-0.033
			l-0.237-0.113L41.47,8.717l-0.013-0.199l0.027-0.155l0.42-0.67l0.562-0.677l0.478-0.594l0.403-0.668l0.136-0.426l0.119-0.361
			l0.07-0.312L43.66,4.471l-0.049-0.246l-0.119-0.211l-0.239-0.159l-0.449-0.218l-0.603-0.28l-0.558-0.146L41.16,3.125l-0.213,0.01
			l-0.332,0.076L40.287,3.35l-0.502,0.488L38.611,4.93l-1.008,0.897L37.332,6.01l-0.194,0.011l-0.086-0.045l-0.565,0.536
			L36.205,6.76l-0.281,0.312l-0.21,0.325l-0.157,0.23l-0.229,0.25l-0.211,0.17l-0.423,0.127l-0.3,0.047l-0.266-0.045l-0.567-0.244
			L33.33,7.732L33.169,7.44l-0.056-0.464l0.065-0.711l0.051-0.34l0.155-0.543l0.139-0.416l0.174-0.389l0.034-0.293l0.14-0.279
			l0.192-0.34l0.237-0.68l0.067-0.525l-0.002-0.309l-0.126-0.4l-0.162-0.371l-0.161-0.308l-0.32-0.261L33.17,0.598l-0.23-0.062
			l-0.301,0.003l-0.318,0.002l-0.53,0.202l-0.529,0.328l-0.634,0.375l-0.405,0.312l-0.687,0.451l-0.457,0.404l-0.333,0.342
			l-0.58,0.561L27.885,3.75l-0.606,0.648l-0.49,0.561l-0.473,0.573l-0.313,0.496l-0.473,0.56L25.041,7.24L24.5,8.108l-0.207,0.496
			l-0.171,0.588l-0.141,0.291l-0.104,0.233l-0.016,0.185l0.001,0.17l0.021,0.278l-0.031,0.433l-0.137,0.513l-0.19,0.434
			l-0.174,0.294l-0.228,0.188l-0.403,0.25l-0.422,0.11l-0.511,0.081l-0.617,0.005l-0.584-0.073l-0.575-0.071l-0.708-0.226
			l-0.903-0.271l-0.728-0.35l-1.012-0.518l-0.585-0.258l-0.485-0.201l-0.456,0.537l-0.147,0.271l-0.254,0.594l-0.228,0.498
			l-0.147,0.367l-0.302,0.988l-0.466,1.264l-0.682,1.562l-0.465,1.291l-0.435,1.264l-0.063,0.565l0.061,0.722l0.274,0.701
			l0.274,0.619l0.274,0.513l0.643,0.646l0.151,0.379l0.03,0.402l-0.003,0.836l-0.281,1.344l-0.248,0.728l-0.216,0.593l-0.097,1.317
			l-0.155,0.483l-0.558,0.937l-0.462,0.86l-0.369,0.591l-0.187,0.834l-0.247,0.808L10.707,33.5l-0.429,0.133l-0.52-0.002
			L9.39,33.657l-0.307,0.322L8.93,34.221l-0.247,0.754l-0.216,0.859l-0.186,0.969l-0.124,0.646v0.296l0.305,0.323l0.915,0.594
			l0.427,0.082l0.184-0.025l0.306-0.188l0.245-0.188l0.184-0.269l0.245-0.08l0.214,0.001l0.15,0.133l0.063,0.056l0.028,0.909
			l-0.221,2.152l-0.124,0.564l-0.491,0.697l-0.246,0.483l-0.123,0.457L9.971,44.2l-0.337,0.699L8.746,45.92l-0.581,0.645
			l-0.46,1.076l-0.49,0.834l-0.971,0.965l-0.427,0.43l-0.702,0.456l-0.458,0.323l-0.366,0.617l-0.284,0.617L3.809,52.32
			l-0.346,0.355l-0.461,0.649l-0.384,0.699L2.27,55.053l-0.742,1.438l-0.191,0.515l-0.482,0.933l-0.267,0.694l-0.049,0.396
			l0.026,0.245l0.471,0.318l0.479,0.136l0.346-0.021l0.486-0.078l0.376,0.072l0.405,0.256l0.262,0.374l0.148,0.677l-0.121,0.484
			l-0.311,0.938l-0.205,0.88l-0.095,0.729l-0.028,0.764l0.048,0.581l0.417,0.836l0.268,0.222l0.205,0.037l0.276-0.022l0.28-0.113
			l0.249-0.237L4.7,65.958l0.516,0.016l0.306,0.102l0.571,0.413l0.323,0.559l0.318,0.737l0.031,1.009L6.676,69.31l-0.333,0.632
			l-0.403,0.821l1.378,0.211l0.281-0.003l0.749,0.03l0.593,0.021l0.514-0.062l0.358-0.031l0.591-0.132l0.266-0.012l0.653-0.111
			l0.403-0.171l0.511-0.24l0.773-0.467l0.432-0.322l0.523-0.478l0.309-0.226l0.51-0.312l0.417-0.337l0.433-0.322l0.278-0.225
			l0.155-0.113l0.385-0.221l0.48-0.324l0.897-0.562l0.495-0.323l0.668-0.326l0.931-0.452l0.823-0.396l1.133-0.565l0.714-0.354
			l0.715-0.339l0.617-0.294l1.322-0.566l1.027-0.397l0.902-0.396l0.699-0.422l0.45-0.268l0.247-0.319l0.352-0.766l0.256-0.889
			l0.042-0.954l-0.086-0.69l-0.069-0.58l0.059-0.348l0.027-0.388l-0.096-0.222l-0.304-0.536l-0.396-0.481l-0.631-0.451l-0.493-0.381
			l-0.508-0.479l-0.364-0.398l-0.592-0.992l-0.388-1.021l-0.054-0.554l0.074-0.401l0.338-0.694l0.396-0.932l0.353-0.709l0.245-0.584
			l0.278-0.307l0.294-0.392l0.186-0.235l0.328-0.439l0.456-0.277l0.401-0.236l0.411-0.278l2.034-0.212l1.669-0.528l0.855-0.643
			l0.357-0.681l0.258-0.383l0.399-0.58l0.4-0.49l0.401-0.4l0.173-0.512l0.224-0.49l0.35-0.534l0.248-0.557l0.199-0.468l0.225-0.533
			l0.25-0.356l0.35-0.579l0.66-1.089l0.576-0.802l0.427-0.446l0.276-0.334l0.326-0.379l0.227-0.18l0.454-0.156l0.429-0.091
			l0.631-0.092l0.631-0.047l0.858-0.047l1.565-0.184l0.959-0.068l0.656,0.041l0.984-0.068l0.985-0.112l0.708-0.002l0.908,0.063
			l0.81-0.002l1.058-0.025l1.691,0.02l1.465-0.066l1.162-0.068l1.01-0.045l1.188-0.18l0.936-0.133l0.936-0.199l0.541-0.09
			l0.141-0.021l0.277,0.021l0.076,0.045l0.026,0.088l-0.051,0.135v0.088l0.101,0.045l0.278-0.178l0.405-0.311l0.328-0.468
			l0.406-0.511l0.228-0.532l0.178-0.577l0.253-0.777l0.096-0.574l0.178-0.645l0.228-0.601l0.406-0.978l0.354-0.756l0.279-0.91
			l0.305-0.821l0.406-0.933l0.457-0.6l0.405-0.422l0.381-0.333l0.563-0.376l0.354-0.444l0.306-0.532l0.256-0.776l0.205-0.89
			l0.104-1.267l-0.125-1.178l-0.074-0.956l-0.302-1.156l-0.041-0.395l-0.062-0.58L67.736,13.1l-0.228-0.711v-0.468l0.002-1
			l-0.05-0.178l-0.229-0.245l-0.229-0.154l-0.609-0.181l-0.711-0.399l-0.99-0.558l-0.125-0.121l-0.383-0.368l-0.533-0.777
			l-0.278-0.801l-0.089-0.681L63.26,6.124l0.076-0.198l0.025-0.156l-0.076-0.178l-0.152-0.179l-0.025-0.134V5.124L62.98,4.946
			L62.829,4.79L62.65,4.746l-0.229-0.021l-0.355,0.088l-0.408,0.223L60.87,5.457l-0.484,0.2l-0.381,0.11l-0.331,0.045h-0.279
			l-0.382-0.088l-0.229-0.067l-0.229-0.044h-0.152L58.097,5.68l-0.305,0.065l-0.28-0.021l-0.306-0.066l-0.152-0.021h-0.151
			l-0.205,0.045l-0.229,0.021l-0.434-0.066l-0.457-0.154l-0.356-0.11L55.019,5.35l-0.28-0.043L54.51,5.35L54.266,5.385"/>
	</g>
</g>
<g id="Layer_1">
</g>
</svg>
