<?xml version="1.0" encoding="iso-8859-1"?>
<!-- Generator: Adobe Illustrator 16.0.4, SVG Export Plug-In . SVG Version: 6.00 Build 0)  -->
<!DOCTYPE svg PUBLIC "-//W3C//DTD SVG 1.1//EN" "http://www.w3.org/Graphics/SVG/1.1/DTD/svg11.dtd">
<svg version="1.1" xmlns="http://www.w3.org/2000/svg" xmlns:xlink="http://www.w3.org/1999/xlink" x="0px" y="0px" width="5.873px"
	 height="7.36px" viewBox="0 0 5.873 7.36" style="enable-background:new 0 0 5.873 7.36;" xml:space="preserve">
<g id="Layer_65">
	<g id="Layer_70">
		<path id="Rahim_Yar_Khan" style="fill:#CCCCCC;stroke:#FFFFFF;stroke-width:1.07;" d="
			M2.551,1.915L2.551,1.915L2.502,1.876L2.232,1.755L2.02,1.649l-0.178-0.15L1.596,1.312L1.437,1.168L1.193,1.04L0.905,0.911
			l0.032,0.163l0.058,0.127l0.093,0.241L1.12,1.709l-0.001,0.12L1.05,2.144l-0.129,0.27l-0.17,0.271L0.607,2.877L0.563,3.026
			l-0.01,0.104l0.094,0.113L0.875,3.38l0.2,0.069L1.221,3.5l0.32,0.174L1.788,3.78l0.312,0.218L2.28,4.14l0.101,0.1l0.103,0.104
			l0.042,0.137l0.083,0.225l0.093,0.091l0.262,0.076l0.06,0.06l0.051,0.181l0.015,0.45L3.11,6.162l0.049,0.255l0.16,0.21
			l0.186,0.129l0.212,0.068l0.263,0.001l0.212-0.052l0.211-0.126l0.129-0.136l0.08-0.183l0.035-0.157V6.007L4.596,5.835L4.531,5.617
			V5.504l0.035-0.089l0.051-0.143l0.094-0.157l0.01-0.127l0.043-0.285l0.078-0.21l0.213-0.27l0.223-0.292l0.061-0.164v-0.09
			L5.287,3.603L5.166,3.551L4.953,3.498l-0.49-0.115L4.082,3.292L3.879,3.269L3.601,3.26L3.449,3.214L3.313,3.102L3.23,2.989
			L3.17,2.726L3.095,2.545l-0.101-0.18L2.851,2.214L2.733,2.058L2.551,1.915"/>
	</g>
</g>
<g id="Layer_1">
</g>
</svg>
