<?xml version="1.0" encoding="utf-8"?>
<!-- Generator: Adobe Illustrator 16.0.4, SVG Export Plug-In . SVG Version: 6.00 Build 0)  -->
<!DOCTYPE svg PUBLIC "-//W3C//DTD SVG 1.1//EN" "http://www.w3.org/Graphics/SVG/1.1/DTD/svg11.dtd">
<svg version="1.1" id="Layer_1" xmlns="http://www.w3.org/2000/svg" xmlns:xlink="http://www.w3.org/1999/xlink" x="0px" y="0px"
	 width="301.097px" height="288.306px" viewBox="-136.158 -129.623 301.097 288.306"
	 style="enable-background:new -136.158 -129.623 301.097 288.306;" xml:space="preserve">
<g id="Layer_47">
	<path id="Haripur" style="fill:#CCCCCC;stroke:#FFFFFF;stroke-width:1.15;" d="M157.386,115.284L157.386,115.284l-0.654-0.624
		l-0.492-0.614l-0.736-0.737l-0.645-0.521l-0.348-1.423l0.645-0.644l0.225-0.205l1.668-1.524l1.605-1.483l-0.43-2.169l-0.367-0.593
		l-0.225-0.41l-0.215-0.256l0.256-0.409l0.633-0.542l0.482-0.859l0.082-1.085l-0.574-0.91l-0.869-1.228l-1.432,0.287l-1.25,0.245
		l-1.062,0.267l-1.453,0.501l-0.572,0.225l-0.533,0.041l-0.174-0.226l0.135-0.951l0.102-0.552l-0.062-0.941l0.041-0.757l-0.02-0.595
		l-0.656-0.705l-0.336-0.49l-0.471-0.624l-0.461-0.39l-0.287-0.215l-0.02-0.338l0.123-0.562l0.02-0.337l0.113-0.205l0.275-0.174
		l0.215-0.624l0.256-0.389l1.564-0.235l0.646-0.338l0.225-0.112l1.023-0.491l0.9-0.45l1.084-0.572l1.021-0.472l0.84-0.736
		l1.525-0.327l0.041-0.103l0.295-0.971l0.307-0.962l-0.234-0.84l-0.234-1.023l-0.471-0.797l-0.348,0.051l-0.512,0.184l-0.635,0.267
		l-1.115,0.378l-1.023,0.113l-0.838,0.103l-0.686,0.04l-0.215-0.021l-0.645-0.081l-0.41-0.062l-0.531-0.287l-1.229-0.225
		l-0.879-0.317l-0.41,0.011l0,0l-0.643-0.041l-0.646-0.185l-0.449-0.143l-0.572-0.226h-0.43l-0.328,0.062l-0.328-0.317l0.021-0.051
		l0.287-0.44l0.061-0.091l0.799-0.962l-0.973-0.379l0.521-2.435l0.613-0.307l0.227-0.104l1.922-0.951l0.021-0.011l0.408-0.307
		l0.195-0.408l0.48-0.307l0.717,0.04l1.084-0.531l0.275-0.042l0.645-0.102l0.041-0.645l0.061-1.208l0.932-0.787l0.809-1.033
		l-0.215-1.095l-0.338-0.215l-0.531-0.225l-0.328,0.04l-0.307,0.358l-0.082,0.194l-0.041,0.153v0.267l-0.041,0.562l-0.07,0.297
		l-0.881,0.501l-0.193,0.062l-0.379,0.144l-0.645,0.286L150.45,72.9l-0.227,0.47l-0.174,0.308l-0.193,0.204l-0.307,0.144
		l-0.654-0.296l-0.645-0.625l-0.217-0.348l-0.121-0.552v-0.297l-1.219,0.787l-0.275,0.174l-0.451,0.297l-0.98-0.225l-1.229-0.267
		l-1.311,0.062l-0.898,0.777l-1.434-0.357l-0.143-0.031l-0.512-1.534l-0.736-0.327l-0.266,0.092l-0.543,0.215l-0.195,0.102
		l0.217,1.423l-0.217,0.358l-0.387,0.624l-0.779,0.909l-1.473,0.309l-0.266,0.285l-0.531,0.859l-0.348,0.635l-0.268,0.439
		l-1.596,0.799l-0.766,0.379l-0.543,0.132l-0.307-0.03l-0.758,0.021l-0.654,0.174l-0.512,0.205l-0.43,0.152l-1.002,0.358
		l-0.758,0.245l-0.572,0.194l-2.066-0.95l-0.104-0.062l-0.152,0.112l-0.809,0.613l-0.654,1.074l-0.062,0.144l-1.186,0.368
		l-0.707,0.235l-0.5,0.174l-0.809,0.256l-0.133,0.041l-0.922,0.286l-0.859-0.061l-1.084-0.072l-0.736-0.552l-1.084-0.829
		l-2.711-0.112l-0.215,0.082l-0.543,0.184l-0.031,0.01l-0.879,0.236l-1.352,0.174l-0.285-0.216l-0.246-0.234l-0.234-0.512v-0.021
		v-0.052l0.377-2.117l0.021-0.072l1.135-0.92l0.686-0.185l0.881-0.226l0.389-0.449l0.357-0.409l0.398-0.614l0.266-0.409l0.533-0.777
		l-0.246-1.084l0.654-1.27l0.553-1.002l-0.184-1.278l-1.033-0.737l-0.932-0.102l-0.715-1.279l-0.451-0.39l-0.521-0.429l-0.357-0.266
		l-0.113-0.389l0.021-0.328l-0.236-0.45l-0.193-0.123l-2.262-0.879l0.9-0.614l0.635-0.439l0.348-1.136l0.941-0.696l0.49-0.378
		l1.043-0.757l0.031-0.021l0.645-1.288l1.178-0.573l1.676-0.245l0.604-0.062l0.861-0.103l1.574,0.204l1.166-0.225l0.512-0.123
		l0.584-0.122l0.645-0.174l0.633-0.236l0.613-0.347l0.277-0.165l0.41-0.776l0.471-0.86l-0.461-1.084v-0.071l0.01-0.133l0.092-1.709
		l0.707-0.88l0.582-0.686l0.941-0.941l0.738-0.757l0.652-0.645l0.758-0.757l-0.645-1.698l0.061-1.514l-0.01-1.812l0.439-1.003
		l0.789-0.736l0.266-1.514l-0.123-1.043l0.871-0.829l1.359-1.411l0.328-0.216l0.49-0.338h1.064v-0.705v-0.706l-0.123-0.665
		l-0.072-0.532l-1.277-0.797l-2.109-1.311l-1.094-0.654l-0.604-0.982l-0.43-0.593l-0.613-0.317l-0.777-0.216l-0.84-0.285
		l-0.244-0.246l-0.164-0.164l-0.666-0.337l-0.992-0.522l-0.92-0.368l-1.086-0.655l-1.4-0.715l-1.525-0.645l-1.35-0.522l-0.982-0.419
		l-0.971,1.043l-0.84,0.777l-0.645,1.023l-1.166,1.228l-1.975,0.604l-0.982-0.502l-0.787-0.491l-0.859-0.449l-1.289-0.369
		l-0.215-1.801l-0.48-1.35l-0.656-1.116l-0.797-0.542l-0.879-0.992l-0.881-1.351l-0.604-1.299l-0.133-1.003l0.215-0.92l0.111-0.717
		l0.043-0.613v-0.154l0.275-0.01l0.287-0.092l-0.277-1.064l1.002-1.208l0.748-0.644l1.033-0.829l1.309-1.115l1.197-1.084
		l0.645-1.094l0.625-0.962l0.213-1.197l-0.213-1.402l-0.277-1.095l-0.205-1.401l-0.225-1.463l-0.102-1.565l-0.309-1.361l-0.02-1.248
		l-0.645-0.214l-0.072-0.072l-0.756-0.368l-0.451-0.092l-0.859-0.174l-0.93,0.071l-0.973,0.072L99.585-7.01l-2.129-4.071
		l-0.449-0.839l-1.035-1.401l-0.869-0.921l-0.807-0.675l-1.158-0.962l-0.643-0.337l-0.553-0.204l-0.768-0.287l-0.992-0.369
		l-1.402-0.184l-1.35-0.123l-0.963-0.082l-1.656-0.133L83.39-17.68l-1.197-0.083l-1.801,0.174l-1.984-0.297l-1.156-0.675
		l-0.707-0.717l-0.736-1.309l-0.029-1.381l0.809-1.34l1.186-1.074l1.525-0.829l1.043-0.665l0.623-1.156l0.451-0.808l1.146-2.241
		l-1.342-2.23l-0.111-0.143l-0.572-0.777l-0.574-0.818l-1.002-1.238l-0.656-0.727l-0.633-0.399l-0.43-0.225l-0.84-0.296
		l-0.582-0.072l-0.604-0.123l-0.512-0.103l-0.738-0.194l-0.652-0.062l-0.717-0.061l-0.574-0.051l-0.654-0.103l-0.98-0.112
		l-0.717-0.041h-0.594h-0.664l-1.74,0.133l-0.992,0.644l-1.371,0.808l-0.654-2.086l-2.148-1.32l-0.031-0.01l-0.152-0.071
		l-7.529-4.655l0.143-0.144l0.215-0.194l0.215-0.205l0.285-0.317l0.217-0.235l0.592-0.42l0.912-0.859l0.592-0.235l0.502-0.215
		l0.941-0.358l0.193-0.062l1.781-3.253l0.162-0.287l-0.633-2.087l0.654-0.563l0.092-0.613l-0.234-0.42l-0.256-0.184l-0.328-0.409
		l0.154-0.276l0.367-0.082l0.369-0.021l0.531-0.041l0.369,0.072l0.307,0.194l0.418-0.072l0.236-0.317l0.154-0.389l0.174-0.399
		L62.724-57.2l-0.174-0.205l-0.041-0.041l-0.41,1.074l-1.268-0.358l-0.961,0.297l-0.818-0.522l-0.256-1.023l-0.174-1.534
		l-0.645-1.075l-0.645-0.511l-0.195-0.133l-1.523-1.299l-0.818-0.399l-1.105-0.255l-1.678-0.328l-1.207-1.279l-1.064-0.041
		l-1.084-0.91l-1.311-1.34l-0.736,0.542l-0.162,1.125l-1.311,0.348l-3.438-1.31l-1.523-2.005l-0.277-0.092l-1.105-0.379
		l-0.285-0.123l-0.174-0.328l-1.525-0.389l-1.441,0.113l0.111-0.389l0.227-0.726l-0.164-1.013l-8.676-1.606l-2.506-2.425
		l-0.625-0.583l-1.227-0.707l-0.727-1.043l-1.033-0.808l-0.277-1.524l0.113-0.389l0.316-0.982l-0.174-2.537l-0.686-0.532
		l-0.133-0.133l-0.199-0.552l-1.236-1.279l-3.802-1.617l-1.299-0.685l-1.847-0.399l-1.54-0.45l-1.678-0.849l-2.409-2.65
		l-0.941-0.992l-0.752-0.45l-1.749-0.092l-1.089-0.164l-0.389-0.041l-0.22-1.269l1.222-1.483l1.269-1.104l1.887-1.238l0.573-1.053
		l1.018-0.696l0.01-0.031l-0.041-1.279l0.021-1.882l-0.22-1.258l-0.501-0.859l-1.351-0.972l-3.335-1.923l-3.811-2.169l-0.087-0.91
		l-0.522-1.105l-1.069-1.023l-2.03-1.954l-2.261-1.596l-1.278-0.164l-1.32-0.552l-1.53,0.941l-0.389,0.655l-0.747,0.797
		l-1.519,0.522l-4.148,1.453l-1.463-0.317l-1.77-0.553l-1.54-0.665l-1.519-1.228l-1.156-1.054l-1.929-2.057l-2.604-1.053
		l-1.544-0.808l-3.391-1.054l-2.01,1.054l-0.778,0.399l-1.76,1.309l-2.189,1.249l-1.78,0.911l-1.75-0.092l-0.179-0.215l0.021,0.327
		l0.209,2.159l-1.059,1.893l-1.13,1.494l-0.911,1.105l-1.76,2.517l-1.53,2.681L-54-105.887l-1.34,1.167l-1.1,1.698l-1.079,1.719
		l-0.911,1.412l-1.156,1.964l-0.43,0.798l-0.639,1.002l-0.793,0.461v0.256l1.089,0.051l0.732,0.082l0.859,0.041l0.859,0.051
		l0.798-0.205l0.603-0.348l0.757-0.368l0.87-0.389l0.649-0.296l0.649-0.215l0.742-0.316l0.65-0.144l0.747-0.133l0.573-0.163
		l0.998,0.041l0.542,0.113l0.767,0.276l0.65,0.235l0.649,0.256l0.742,0.287l0.46,0.235l0.649,0.327l0.619,0.593l0.379,0.512
		l0.281,0.45l0.23,0.645l0.128,0.695l0.092,0.676l-0.103,0.552l-0.056,0.644l-0.041,0.655v0.798l-0.062,0.665l0.041,0.634
		l0.031,0.757l0.097,0.675l0.23,0.645l0.271,0.521l1.417,1.443l0.021-0.011l0.573,0.481l0.471,0.379l0.649,0.235l0.64-0.082
		l0.68-0.409l0.497-0.184l0.813,0.082l0.599,0.625l0.25,0.491l0.368,0.706l0.22,0.542l0.23,0.553l0.092,0.747l0.015,0.583
		l0.021,0.532l0.164,0.717l0.358,0.45l0.429,0.399l0.337,0.409l0.43,0.757l-0.046,0.593l0.149,0.491l0.22,1.964l0.102,1.934
		l-0.062,0.593l-0.071,0.747l-0.072,0.512l-0.148,0.604l-0.21,0.552l-0.281,0.583l-0.337,0.43l-0.333,0.501l-0.327,0.45
		l-0.552,0.645l-0.43,0.624l-0.486,1.31l-0.22,0.788l-0.742,1.535l-0.118,0.562l-0.281,0.89l-0.471,0.972l-0.159,0.583l-0.209,0.624
		l-0.21,0.501l-0.281,0.491l-0.23,0.675l-0.241,0.911l-0.23,0.593l-0.2,0.562l-0.23,0.696l-0.271,0.89l0.103,0.757l0.148,0.491
		l0.22,0.624l0.373,0.624l0.378,0.645l0.41,0.696l0.521,0.624l0.44,0.451l0.619,0.685l0.296,0.461l0.353,0.562l0.24,0.593
		l0.317,0.89l0.092,0.88l-0.123,0.941l-0.22,0.553l-0.45,0.869l-0.276,0.44l-0.491,0.562l-0.66,0.522l-0.46,0.276l-0.547,0.317
		l-0.66,0.511l-0.583,0.604l-0.737,0.43l-0.721,0.573v0.031l-0.67,19.847l-1.59,1.085l-1.396,1.033l-0.133,0.419l-0.087,0.614
		l-0.461,3.53l-0.44,0.542l-0.649,0.256l-0.542,0.123l-0.598,0.144l-0.87,0.256l-1.08,0.357l-0.491,0.256l-0.609,0.246l-0.742,0.317
		l-0.916,0.297l-0.9,0.307l-0.583,0.204l-0.599,0.215l-0.511,0.225l-0.527,0.215l-0.951,0.378l-0.727,0.308l-1.11,0.511
		l-0.972,0.369l-0.491,0.225l-0.87,0.327l-0.915,0.245l-0.532,0.153l-0.481,0.226l-0.46,0.43l-0.22,0.593l-0.358,0.839l-0.23,0.716
		l-0.041,0.092l-0.297,0.573l-0.583,0.686l-0.328,0.471l-0.69,0.808l-0.368,0.399l-0.532,0.634l-0.481,0.634l-0.558,0.634
		l-0.593,0.727L-69.8,4.939l-0.44,0.737l-0.645,0.829l-0.128,0.143l-0.128-0.041l-0.752,1.054l-0.071,0.102l-0.716,1.003l-1.1,1.575
		l-1.048,0.378l-1.631,0.604l-0.65,0.716l-1.299,1.392l-0.721,0.798l-0.681,0.777l-0.925,0.993l-0.732,0.798l-0.639,0.645
		l-1.53,1.493l-0.951,0.941l-1.438,1.402l-1.56,1.248l-1.15,1.125l-0.911,0.604l-0.609,0.859l-0.261,0.961l-0.726,0.635
		l-0.829,1.104l-1.243,0.543l-1.468,0.654l-1.1,0.481l-2.358,0.746l-0.649,0.307l-0.44,0.267l-0.44,0.215l-0.691,0.316l-0.25,0.134
		l-1.381,0.021l-1.969,0.021h-0.087h-1.12l-1.028,0.01l-1.433,1.115l-0.849,0.645l-0.967,0.768l-1.089,0.604l-0.562,0.44
		l-0.507,0.326l-0.604,0.492l-0.649,0.48l-0.818,0.613l-0.808,0.542l-0.931,0.594l-0.629,0.082l-0.532-0.01l-0.911-0.031
		l-1.488-0.041l-2.43-0.071l-2.348,0.071h-3.427l-1.018-0.093l-1.192,0.236h-0.797h-0.251l-0.072,1.861l0.992,2.722l-0.112,2.088
		l-0.23,1.309l1.591,8.512l2.209-1.779l8.338,1.729l2.005,0.981l2.399,0.031l0.772,0.726l1.708,0.553l1.897-0.42l2.251-0.94
		l1.509,0.266l3.499,1.126l2.818,0.613l1.57,0.235l1.008,0.604l0.91,0.358l1.172,0.45l0.838,0.317l2.066,1.391l0.732,1.023
		l0.772,0.798l2.839,1.504l1.626,1.043l0.333,1.085l-0.184,1.535l-1.427,1.012l-1.11,0.839l-1.059,0.584l-5.028,1.31l-1.089,0.184
		l-1.1,0.317l0.701,1.187l-0.22,1.289l0.409,0.921l-1.55,2.066l-3.151,2.722l-1.176-0.144l-3.708,2.333l0.89,2.517l-1.913,1.586
		l0.133,2.168l1.529,0.869l2.241-0.225l1.269,0.112l2.337,0.277l2.911-1.045l1.816-1.33l1.959,3.069l1.97,1.156l-0.788,2.148
		l1.09,1.534l0.332,1.965l5.019-3.028l2.634,1.125l1.989-0.43l1.509-0.695l1.8-0.747l1.529-0.225l3.622-1.074l0.649-0.85
		l2.466-0.132l3.048-2.036l2.962-1.934l0.911-0.778l0.22-2.946l-0.353-1.237l-0.701-1.248l0.532-2.221l-1.621-1.156l0.332-1.35
		l1.811,0.225l1.647,0.205l1.089-0.246l6.717-0.389l1.529-0.051l0.532-0.962l-0.69-0.818l-1.228-0.654l-1.673-0.737l-1.156-0.449
		l-0.701-0.81l0.348-1.421l0.911-0.758l1.218-0.858l1.852-1.453l0.911-0.88l1.11-0.941l2.43-1.564l0.22-1.229l1.135,0.236
		l1.33-0.717l3.018-3.479l1.064-1.043l1.489-2.077l1.289,0.634l1.499,1.166l1.53,0.615l1.412,0.849l1.386,1.176l1.678,0.706
		l0.634,0.88l1.018,3.591l0.578,1.995l0.813,1.279l-0.112,1.678l-1.13,1.319l-1.177,0.727l-1.811,0.266l-1.248-0.062l-2.829-0.132
		l3.094,5.237l1.212,0.368l1.197,0.521l1.151,0.829l1.499,0.542l0.292,1.965l0.757,0.858l0.783,0.9l0.429,1.064l3.781,0.951
		l1.187-0.153l1.361-1.534l10.394,0.635l0.22,2.536l0.22,1.095l-0.497,1.75l-0.24,0.971l-0.2,1.269l-0.123,2.374l0.011,1.228
		l0.082,1.187l0.716,2.251l0.87,0.768l0.373,2.885l-0.46,1.453l-1.442,0.9l-0.077-1.33l-1.089-1.269l-1.79,0.266l-1.77,0.225
		l-1.289,0.062l0.22,3.09l0.742,1.187l0.389,1.493l0.548,1.361l0.112,0.235l2.327,0.613l1.258,0.021l1.069,0.143l4.021-3.212
		l1.969-0.144l1.269,0.798l-0.061,2.333l0.511,0.757l1.33,0.266l1.59,0.103l0.901-0.389l5.314-0.573l-0.726,3.684l-0.21,1.084
		l-0.89,1.146l-0.65,1.351l-1.299,1.678l-1.013,1.023l-0.808,0.931l-0.921,1.085l-0.649,0.582l-1.341-0.112l-2.307-1.269
		l-0.731-0.531l-1.54-0.594l-0.911,1.002l-0.568,0.758l-1.089,0.921l-1.228,1.278l-1.274,1.228l-0.619,1.033l-0.649,1.31
		l-0.297,1.167l-2.112,1.964l2.46,3.458l0.911,3.069l1.177,0.347l1.412-0.285l1.197-0.298l1.473-0.449l1.207,0.132l0.25,0.9
		l0.931,0.174l1.826-0.961l0.649-0.94L1.5,135.826l1.509-0.04l0.951-0.349l1.975,0.215l1.223,0.87l1.09,2.466l1.417,0.552
		l2.25-0.338l2.072-1.054l3.499-1.074l0.43,1.095l-0.594,0.87l-0.936,1.002l-1.484,0.48l-0.945,0.44l2.588,2.016l0.891,0.685
		l1.529,0.349l8.557,1.177l1.178-0.112l0.92,0.562l1.74,0.194l1.34,0.296l0.951,3.673l-2.395,1.177l-1.811,2.22l2.6-0.542
		l1.287,0.011l0.941,0.04l1.373,0.276l1.514-0.164l4.695,0.276l2.854-0.48l1.096-0.041l1.176-0.174l0.01-0.921l0.941-0.49
		l0.891-0.349l1.238-1.524l1.482-0.398l1.605-0.205l0.91-0.062l2.457-0.613l0.676-0.9l4.521-2.946l0.43-3.059l3.846,0.275
		l2.967-1.524l1.146,0.9l0.9,0.042l0.408-1.954l-0.654-1.883l1.023-1.023l0.799-2.343l5.145-2.261l1.361-0.082l1.688-0.092
		l3.264-1.821l1.463-0.307l1.053,0.103l1.096,0.226l2.445,0.122l1.186,0.899l2.23-1.021l2.076-0.216l1.055-0.89l2.086-1.044
		l2.508-1.852l0.971,0.276l3.705,0.706l0.266,1.095l0.225,0.992l0.594,1.084l9.023-1.084l1.062,0.041l1.689-0.45l0.645-0.981
		l0.736-1.464l2.639-2.537l1.627-0.736l2.752-1.853l1.975,0.042l3.008-2.711l2.639-0.43l2.404,0.654l1.914,2.558l1.371-1.535
		l3.283-1.094l2.395,0.357l2.475-0.173l4.584-1.434L157.386,115.284"/>
</g>
<g id="Layer_1_1_">
</g>
</svg>
