<?xml version="1.0" encoding="iso-8859-1"?>
<!-- Generator: Adobe Illustrator 16.0.4, SVG Export Plug-In . SVG Version: 6.00 Build 0)  -->
<!DOCTYPE svg PUBLIC "-//W3C//DTD SVG 1.1//EN" "http://www.w3.org/Graphics/SVG/1.1/DTD/svg11.dtd">
<svg version="1.1" xmlns="http://www.w3.org/2000/svg" xmlns:xlink="http://www.w3.org/1999/xlink" x="0px" y="0px"
	 width="231.944px" height="136.639px" viewBox="0 0 231.944 136.639" style="enable-background:new 0 0 231.944 136.639;"
	 xml:space="preserve">
<g id="Layer_156">
	<g id="Layer_161">
		
			<path id="Disputed_Area" style="fill:#CCCCCC;stroke:#FFFFFF;stroke-width:1.07;" d="
			M164.25,3.557L164.25,3.557l0.002,0.008l-0.029,0.165l-0.129,0.173l-0.092,0.153l-0.046,0.075l-0.026,0.142l-0.032,0.165
			l0.02,0.103l-0.059,0.165l-0.1,0.087l-0.117,0.044l-0.195,0.073l-0.265,0.126l-0.223,0.099l-0.231,0.104l-0.197,0.088
			l-0.097,0.191l-0.055,0.106l-0.271,0.201l-0.147,0.108l-0.208,0.153l-0.271,0.199l-0.136,0.1l-0.151,0.111l-0.106,0.165
			l-0.091,0.141l-0.106,0.166l0.021,0.197l0.014,0.116l0.038,0.339l-0.105,0.144l-0.159,0.326l-0.274,0.185l-0.375,0.3l-0.524,0.245
			l-0.34,0.333l-0.562,0.208l-0.663,0.323l-0.496,0.245l-0.476,0.313l-0.296,0.195l-0.289,0.24l-0.453,0.187l-0.384,0.344
			l-0.555,0.196l-0.391,0.225l-0.511,0.133l-0.562,0.346l-0.357,0.346l-0.248,0.244l-0.278,0.299l-0.301,0.225l-0.259,0.194
			l-0.438,0.326l-0.367,0.275l-0.419,0.313l-0.385,0.237l-0.474,0.291l-0.515,0.31l-0.419,0.253l-0.329,0.198l-0.294,0.177
			l-0.629,0.251l-0.536,0.352l-0.604,0.283l-0.548,0.254l-0.316,0.208l-0.462,0.392l-0.382,0.367l-0.287,0.146l-0.542,0.277
			l-0.233,0.267l-0.301,0.347l-0.519,0.378l-0.575,0.419l-0.579,0.13l-0.907,0.092l-0.72,0.138l-0.807,0.196l-0.678,0.115
			l-0.776,0.161l-0.462,0.323l-0.461,0.173l-0.39,0.081l-0.331,0.058l-0.217,0.115l-0.229,0.104l-0.273,0.092l-0.216,0.138
			l-0.304,0.139l-0.489,0.115l-0.417,0.196l-0.347,0.139l-0.202,0.115l-0.115,0.358l-0.26,0.208l-0.274,0.173l-0.272,0.104
			l-0.36,0.185l-0.375,0.173l-0.303,0.127l-0.403,0.138l-0.331,0.069l-0.346,0.058l-0.304,0.104l-0.272,0.116l-0.26,0.104
			l-0.273,0.15l-0.217,0.127l-0.201,0.126l-0.217,0.104l-0.288,0.173l-0.231,0.116l-0.157,0.139l-0.26,0.15l-0.304,0.173
			l-0.229,0.173l-0.23,0.127l-0.26,0.092l-0.244,0.138l-0.317,0.139l-0.245,0.208l-0.303,0.243l-0.359,0.196l-0.332,0.197
			l-0.317,0.208l-0.229,0.162l-0.218,0.162l-0.173,0.173l-0.216,0.219l-0.246,0.219l-0.229,0.231l-0.289,0.231l-0.273,0.231
			l-0.332,0.184l-0.316,0.243l-0.375,0.185l-0.347,0.219l-0.359,0.127L121,29.908l-0.286,0.104l-0.304,0.069l-0.332,0.104
			l-0.302,0.057l-0.303,0.058l-0.288,0.104l-0.359,0.092l-0.332,0.092l-0.417,0.115l-0.273,0.058l-0.316,0.034l-0.315,0.011h-0.39
			l-0.432-0.081l-0.331-0.069l-0.402-0.093h-0.374l-0.331-0.023l-0.229,0.023l-0.216,0.035l-0.23,0.034l-0.174,0.127l-0.188,0.104
			l-0.174,0.127l-0.086,0.139l-0.145,0.15l-0.159,0.116l-0.158,0.081l-0.202,0.15l-0.13,0.116l-0.015,0.162l0.058,0.162
			l-0.102,0.139l-0.146,0.104l-0.145,0.185l-0.146,0.162l-0.2,0.173l-0.146,0.15l-0.217,0.162l-0.216,0.173l-0.188,0.162
			l-0.072,0.116l-0.071,0.116L111,33.974l-0.217,0.208l-0.202,0.219l-0.188,0.208l-0.173,0.15l-0.217,0.162l-0.202,0.231
			l-0.174,0.173l-0.201,0.242l-0.146,0.173l-0.174,0.162l-0.145,0.116l-0.158,0.127l-0.216,0.116l-0.218,0.115l-0.188,0.127
			l-0.245,0.127l-0.259,0.127l-0.375,0.138l-0.331,0.104l-0.217,0.093l-0.173,0.162l-0.158,0.139l-0.245,0.185l-0.26,0.127
			l-0.23,0.126l-0.346,0.127l-0.288,0.046l-0.317,0.104l-0.346,0.045l-0.316,0.104l-0.316,0.081l-0.288,0.046l-0.201,0.116
			l-0.217,0.104l-0.288,0.104l-0.374,0.127l-0.446,0.023h-0.303l-0.345-0.093l-0.346-0.15l-0.315-0.139l-0.331-0.139l-0.259-0.127
			l-0.302-0.012l-0.245-0.023l-0.331-0.07l-0.389-0.116l-0.288-0.104l-0.301-0.151l-0.331-0.127l-0.315-0.162l-0.201-0.127
			l-0.388-0.185l-0.229-0.186l-0.288-0.208l-0.243-0.15l-0.259-0.139l-0.272-0.22l-0.33-0.162l-0.26-0.104l-0.288-0.15l-0.2-0.058
			l-0.072,0.219l-0.072,0.255l-0.045,0.22v0.196l-0.174,0.185l-0.244,0.162l-0.26,0.196l-0.245,0.185l-0.303,0.185l-0.245,0.185
			l-0.26,0.196l-0.273,0.173l-0.275,0.162l-0.187,0.115l-0.188,0.139l-0.229,0.139l-0.202,0.081l-0.202,0.104l-0.188,0.173
			l-0.174,0.127l-0.115,0.289l-0.087,0.266l-0.072,0.231l-0.103,0.243l-0.044,0.196l-0.145,0.231l-0.087,0.196l-0.116,0.243
			l-0.173,0.15l-0.158,0.127l-0.245,0.127l-0.229,0.115l-0.274,0.058l-0.346,0.021l-0.244-0.011l-0.273,0.023l-0.303,0.068
			l-0.244,0.093l-0.174,0.127l-0.229,0.162l-0.23,0.139l-0.245,0.081l-0.359,0.011l-0.346-0.023l-0.245,0.011l-0.259,0.035
			l-0.26,0.035l-0.259,0.022l-0.316-0.023l-0.229,0.023l-0.273,0.022l-0.245,0.081l-0.272,0.023l-0.331-0.023l-0.316-0.012h-0.303
			l-0.33-0.012L81.92,42.51l-0.347-0.035l-0.329-0.012l-0.375-0.07l-0.303,0.012l-0.303-0.023l-0.302,0.022l-0.23,0.081
			l-0.272,0.011l-0.347-0.012l-0.346-0.012l-0.359-0.035l-0.417-0.139l-0.259-0.104l-0.389-0.069l-0.345-0.047l-0.446-0.127
			l-0.417-0.185l-0.345-0.128l-0.445-0.15l-0.461-0.116l-0.402-0.151l-0.417-0.081l-0.359-0.012l-0.374,0.058L73,41.278
			l-0.375,0.058l-0.272-0.023l-0.331-0.058l-0.288-0.058l-0.374-0.035l-0.303-0.059h-0.33H70.41l-0.346-0.058l-0.331-0.058
			l-0.302-0.093l-0.272-0.208l-0.287-0.127l-0.287-0.069l-0.288-0.024l-0.273-0.035l-0.302-0.069l-0.288-0.035l-0.259-0.024
			l-0.302-0.092l-0.165-0.097l-0.147-0.072l-0.185,0.029l-0.188,0.061l-0.192,0.029L65.85,40.05l-0.069-0.187l-0.085-0.132
			l-0.159-0.043l-0.11-0.053l-0.059-0.149l-0.097-0.127l-0.235-0.012l-0.201-0.041l-0.111-0.098l-0.07-0.138l-0.039-0.098
			l-0.173,0.006l-0.164,0.006l-0.141-0.048l-0.174-0.089l-0.112-0.038l-0.144-0.101l-0.159-0.074l-0.171-0.018l-0.09-0.076
			l0.021-0.126l0.066-0.115l0.002-0.135l-0.028-0.12l-0.031-0.089l-0.015-0.167l-0.039-0.114l-0.057-0.122l-0.136-0.11l-0.202-0.121
			l-0.132-0.11l-0.146-0.087l-0.106,0.039l-0.062,0.023l-0.117,0.06l-0.173,0.069l-0.173,0.046l-0.149,0.02l-0.16-0.041
			l-0.148-0.048l-0.131-0.039l-0.122-0.039l-0.07-0.114L61.19,37l0.027-0.077l0.038-0.085l0.066-0.04l-0.049-0.086l-0.071-0.107
			l-0.042-0.074l-0.062-0.085l-0.083-0.106l-0.104-0.118l-0.076-0.138l-0.104-0.097l-0.085-0.128l-0.159-0.128l-0.216-0.087
			l-0.211-0.087l-0.269-0.083l-0.202-0.058l-0.2-0.092l-0.259-0.093l-0.23-0.104l-0.144-0.023l-0.145-0.035l-0.188,0.011h-0.259
			l-0.188,0.046l-0.202,0.058l-0.13,0.127l-0.087,0.162l-0.086,0.139l-0.102,0.301l-0.044,0.162l-0.13,0.116l-0.158,0.092
			l-0.245,0.092l-0.118,0.032l-0.142,0.038l-0.184,0.05l-0.207,0.036l-0.182,0.018l-0.148,0.041l-0.188,0.101l-0.104,0.087
			l-0.172,0.174l-0.143,0.119l-0.119,0.142l-0.121,0.123l-0.159,0.124l-0.103,0.16l-0.074,0.169l-0.104,0.142l-0.172,0.114
			l-0.268,0.041h-0.279l-0.238-0.009h-0.183l-0.199-0.014l-0.159-0.019l-0.204-0.069l-0.193-0.092l-0.153-0.087l-0.097-0.06
			l-0.159-0.06L52,37.589l-0.188-0.041l-0.198-0.083l-0.199-0.055l-0.143-0.037l-0.153-0.037l-0.147-0.009l-0.211,0.027
			l-0.177,0.063l-0.147,0.027l-0.143-0.041l-0.137-0.078l-0.098-0.082l-0.072-0.115l-0.092-0.119l-0.078-0.097l-0.08-0.105
			l-0.147-0.124l-0.107-0.018l-0.154,0.027l-0.153,0.05l-0.171,0.045l-0.137-0.027l-0.131-0.073l-0.188-0.073l-0.176-0.101
			l-0.217-0.105l-0.158-0.074l-0.144-0.087l-0.137-0.092l-0.01-0.015l-0.109-0.104l-0.13-0.188l-0.103-0.124l-0.098-0.183
			l-0.085-0.146l-0.084-0.137l-0.08-0.161l-0.062-0.173l-0.079-0.17l-0.091-0.15l-0.098-0.142l-0.078-0.119l-0.104-0.11L46.388,34.1
			l-0.119-0.128l-0.164-0.155l-0.131-0.12l-0.091-0.078l-0.052-0.064l-0.097-0.06l-0.086-0.105l-0.069-0.068l-0.123-0.106
			l-0.058-0.069l-0.072-0.114l-0.08-0.101l-0.097-0.092l-0.103-0.069l-0.125-0.037l-0.131-0.037l-0.148-0.036l-0.296-0.064
			l-0.239-0.083l0.091,0.147l0.059,0.209l-0.03,0.162l-0.104,0.124l-0.18,0.099l-0.269,0.049l-0.179,0.075l-0.149,0.112
			l-0.223,0.111l-0.209,0.074l-0.148,0.037l-0.164,0.012h-0.148L42.246,33.7l-0.262-0.053l-0.028,0.002h-0.043l-0.034,0.02
			l-0.024,0.016l-0.042,0.031l-0.046,0.006l-0.025,0.016L41.7,33.764l-0.031,0.029l-0.061,0.04l-0.053,0.044l-0.026,0.041
			l-0.02,0.044l-0.051,0.045l-0.031,0.026l-0.057,0.041l-0.088,0.013l-0.112,0.002h-0.123H40.96l-0.083-0.009L40.8,34.071h-0.077
			l-0.091-0.008l-0.072-0.005l-0.088-0.013l-0.064-0.022l-0.079-0.014l-0.074-0.004l-0.06,0.007l-0.078,0.009l-0.045,0.016
			l-0.066-0.009l-0.057,0.009l-0.045,0.026l-0.034,0.012l-0.06,0.013l-0.067-0.006l-0.051,0.009L39.646,34.1l-0.051,0.004
			l-0.045,0.021l-0.041,0.022l-0.034,0.022l-0.04,0.009l-0.029,0.014l-0.031,0.026l-0.066,0.025l-0.021,0.011l-0.06,0.021h-0.057
			l-0.045-0.007l-0.075-0.018l-0.045-0.038l-0.08-0.008l-0.069,0.002l-0.077-0.005l-0.077,0.011l-0.037,0.029l-0.064,0.011
			l-0.056,0.016h-0.077l-0.078,0.005l-0.056-0.016l-0.064,0.007l-0.074-0.018h-0.075l-0.053-0.018l-0.088-0.013l-0.054-0.036
			l-0.055-0.026l-0.048-0.036l-0.054-0.04l-0.056-0.052l-0.038-0.038l-0.074-0.033l-0.026-0.027l-0.031-0.022l-0.042-0.044
			l-0.05-0.029l-0.059-0.033l-0.034-0.025l-0.051-0.022l-0.027-0.024l-0.028-0.009h-0.052h-0.077l-0.059-0.009l-0.054-0.02
			l-0.037-0.033l-0.026-0.036l-0.029-0.036l-0.023-0.036l-0.031-0.035l-0.017-0.034l-0.008-0.038l-0.021-0.041l-0.028-0.06
			l-0.06-0.049l-0.069-0.018l-0.073-0.022l-0.044-0.013l-0.097-0.022l-0.085-0.004l-0.08-0.013l-0.048-0.031l-0.046-0.042
			l-0.048-0.054l-0.026-0.044l-0.013-0.049l-0.009-0.031l-0.026-0.036l-0.024-0.031l-0.013-0.051l-0.025-0.053l-0.021-0.103
			l-0.014-0.073l-0.026-0.065l-0.021-0.035l-0.052-0.047l-0.062-0.031l-0.026-0.036l-0.037-0.036l-0.063-0.008h-0.066l-0.051-0.002
			l-0.051-0.016l-0.06-0.018l-0.085-0.009l-0.069-0.014l-0.049-0.036l-0.062-0.02l-0.066-0.026l-0.071-0.026l-0.045-0.021
			l-0.043-0.026l-0.04-0.025h-0.066l-0.043-0.029l-0.029-0.027l-0.048-0.024l-0.051-0.007l-0.04-0.031l-0.051-0.005l-0.045-0.018
			l-0.04-0.014l-0.043-0.026l-0.043-0.004l-0.029-0.018l-0.023-0.036l-0.021-0.042l-0.006-0.027l-0.026-0.049l-0.059-0.015
			l-0.017-0.027l-0.038-0.036l-0.043-0.018l-0.042-0.007l-0.043-0.011l-0.062-0.007h-0.05l-0.067-0.002l-0.033-0.02l-0.041-0.012
			l-0.037-0.013l-0.032-0.031l-0.051-0.006l-0.077-0.009l-0.097,0.009l-0.063,0.002l-0.046,0.011l-0.056,0.011l-0.064,0.002
			l-0.019,0.013L33.256,31.6l-0.031,0.018l-0.043,0.022l-0.028,0.022l-0.021,0.053l-0.048,0.009l-0.042,0.013l-0.023,0.022
			l-0.02,0.033l-0.049,0.011h-0.048l-0.055,0.007l-0.034,0.031l-0.102-0.006h-0.094l-0.096,0.009L32.49,31.86l-0.035,0.011h-0.09
			l-0.097-0.006l-0.095-0.018l-0.062-0.049l-0.046-0.024l-0.075-0.011l-0.058-0.021l-0.06-0.028l-0.063-0.022l-0.077-0.011
			l-0.052,0.009l-0.091,0.002l-0.043-0.011l-0.051-0.022l-0.037-0.022l-0.04-0.027l-0.08-0.028l-0.059-0.025l-0.078-0.022
			l-0.062-0.033l-0.057-0.018l-0.056-0.013l-0.091-0.047l-0.049-0.031l-0.091-0.027l-0.056-0.033l-0.038,0.004l-0.02,0.051
			l-0.025,0.049l-0.027,0.051l-0.002,0.074l-0.029,0.049v0.044l-0.02,0.049l-0.029,0.009l-0.051-0.016l-0.074-0.009l-0.068-0.029
			h-0.057l-0.046-0.004l-0.005-0.024l-0.035-0.036l-0.022-0.036l-0.013-0.036l-0.045-0.042l-0.025-0.035l-0.01-0.04l-0.03-0.022
			l-0.029-0.029v-0.032l-0.032-0.026l-0.021-0.031l-0.055,0.007l-0.039-0.002l-0.034,0.002l-0.069-0.004l-0.056,0.004l-0.058-0.007
			l-0.051,0.004h-0.045h-0.047h-0.039l-0.043,0.016l-0.062,0.002l-0.048,0.004l-0.019,0.014l-0.049,0.018l-0.045,0.007l-0.06,0.011
			l-0.049,0.009l-0.008,0.018l-0.017,0.027l-0.019,0.029l-0.011,0.032l-0.03,0.038l-0.016,0.042l-0.017,0.031l-0.028,0.022h-0.043
			l-0.046-0.007l-0.051-0.009l-0.023-0.016l-0.032-0.018l-0.043-0.018l-0.029,0.002l-0.028,0.006l-0.037-0.009l-0.02-0.013
			l-0.023-0.014l-0.034-0.013l-0.021-0.004h-0.028l-0.032-0.004l-0.021-0.011l-0.048-0.029l-0.028-0.007l-0.032-0.009l-0.029-0.014
			l-0.045-0.007l-0.043-0.011l-0.02-0.02L28.2,31.34l-0.04-0.042l-0.038-0.034l-0.028-0.029l-0.062-0.015l-0.054,0.008l-0.032,0.018
			l-0.06,0.011l-0.063-0.011l-0.077-0.011h-0.04h-0.043l-0.074-0.016l-0.048-0.02l-0.077-0.04l-0.059-0.022l-0.046-0.031
			l-0.137-0.012l-0.086-0.018l-0.096-0.018l-0.099-0.005l-0.126,0.007l-0.082-0.011l-0.174,0.009l-0.082-0.014l-0.089-0.01
			l-0.126,0.007l-0.129-0.013H25.99h-0.109l-0.08-0.005l-0.068-0.008l-0.077-0.005L25.6,31.017l-0.043,0.013l-0.146,0.047
			l-0.032-0.004l-0.042-0.022l-0.054-0.018l-0.067-0.009l-0.039,0.002h-0.041l-0.039,0.009l-0.051,0.018L25,31.062l-0.051,0.02
			L24.89,31.1l-0.048,0.011l-0.035-0.013l-0.051-0.013l-0.061-0.009l-0.04,0.006l-0.032,0.005L24.572,31.1l-0.032,0.018
			l-0.038,0.014l-0.031,0.016l-0.031-0.002l-0.085-0.015l-0.032-0.002l-0.021,0.031l-0.017,0.027l-0.017,0.027l-0.022,0.036
			l-0.022,0.026L24.2,31.298l-0.03,0.022l-0.021,0.016l-0.012,0.029l0.009,0.018l0.016,0.018l0.023,0.022l0.02,0.022l0.019,0.038
			l0.02,0.031l0.006,0.049l0.019,0.038l0.024,0.045l0.013,0.042l0.029,0.04l0.021,0.041l0.052,0.062l0.025,0.058l0.037,0.044
			l0.027,0.04l0.018,0.047l-0.002,0.027l-0.011,0.02l-0.014,0.042l0.003,0.035l0.019,0.021l0.02,0.04l0.008,0.034l0.023,0.053
			l0.02,0.06l0.005,0.045v0.06l0.005,0.042l0.014,0.049v0.045l0.015,0.042l0.016,0.045l0.021,0.046l0.021,0.042l0.019,0.058
			l-0.011,0.054v0.071l0.013,0.06l-0.016,0.044l-0.035,0.038l-0.033,0.018l-0.032,0.022l-0.027,0.036l-0.022,0.032l-0.021,0.033
			l-0.023,0.024L24.44,33.3l-0.025,0.027l-0.013,0.044L24.4,33.429v0.078l-0.013,0.065v0.083l-0.001,0.103l-0.016,0.116
			l-0.014,0.065v0.047v0.044l0.005,0.036l0.021,0.064l0.027,0.094v0.067v0.049l-0.018,0.022l-0.04,0.047l-0.026,0.042l-0.043,0.06
			v0.034l0.017,0.051v0.049v0.062l-0.006,0.074l-0.017,0.1l-0.031,0.031l-0.043,0.038l-0.048,0.039l-0.095,0.031l-0.073,0.013
			l-0.078,0.002l-0.045-0.009l-0.104-0.018L23.704,35l-0.06-0.021l-0.057-0.024l-0.048-0.018l-0.035-0.018l-0.071-0.031
			l-0.048-0.011l-0.043-0.02l-0.065-0.022l-0.058-0.022l-0.059-0.015l-0.069-0.022l-0.048-0.027l-0.063-0.022l-0.044-0.018
			l-0.042-0.007l-0.025,0.004l-0.024,0.032l-0.014,0.027l-0.013,0.047l-0.006,0.049v0.062l-0.004,0.066l-0.016,0.02l-0.046,0.016
			l-0.04,0.026l-0.045,0.029l-0.027,0.051l-0.025,0.054l-0.015,0.042l-0.028,0.035l-0.031,0.036l-0.055,0.033l-0.045,0.018
			l-0.062,0.053l-0.019,0.042v0.052v0.049l0.019,0.06l0.02,0.056v0.036v0.031v0.069l0.019,0.049l0.011,0.06l0.017,0.04l-0.003,0.027
			l-0.009,0.018l-0.019,0.044l-0.014,0.049l0.003,0.072l-0.001,0.064v0.067v0.053l-0.023,0.065l-0.008,0.044l-0.008,0.065
			l0.008,0.042l0.042,0.076l0.011,0.058l0.011,0.054v0.049l0.009,0.056l0.013,0.053l0.041,0.06l0.037,0.036l0.043,0.033l0.047,0.034
			l0.062,0.034l0.046,0.035l0.022,0.038l0.018,0.052v0.056l-0.055,0.011l-0.062,0.007h-0.07l-0.066,0.007l-0.114,0.004l-0.062,0.002
			l-0.046,0.013l-0.068,0.018l-0.029,0.026l-0.04,0.032h-0.045l-0.04-0.011l-0.017-0.013l-0.04-0.031l-0.04-0.049l-0.049-0.034
			l-0.062-0.029l-0.069-0.002h-0.07l-0.104,0.014l-0.085,0.009h-0.074l-0.077,0.002l-0.057,0.013l-0.06-0.009l-0.028-0.026
			l-0.041-0.04l-0.05-0.022l-0.066-0.049l-0.075-0.024h-0.048l-0.049,0.013l-0.051,0.051L20.81,37.19l-0.056,0.04l-0.045,0.031
			l-0.037,0.036l-0.06,0.031l-0.037,0.041l-0.043,0.076l-0.056,0.045l-0.043,0.033l-0.034,0.004L20.364,37.5l-0.042-0.027
			l-0.084-0.04l-0.059-0.036l-0.06-0.031l-0.065-0.026l-0.045-0.031l-0.064-0.031l-0.048-0.031l-0.051-0.027l-0.055-0.02
			l-0.053-0.038l-0.043-0.018l-0.051-0.033l-0.062-0.036l-0.062-0.033l-0.062-0.018l-0.014,0.031l-0.016,0.041l-0.008,0.033
			l-0.021,0.042v0.049l-0.021,0.067l-0.02,0.051l-0.017,0.054l-0.014,0.049l-0.017,0.04l-0.021,0.089l-0.002,0.083l-0.017,0.027
			l-0.029,0.013h-0.034h-0.06l-0.062,0.016l-0.056,0.004l-0.072,0.02l-0.045,0.031L18.899,37.8l-0.015,0.038l0.015,0.036
			l0.005,0.038l0.011,0.052l-0.009,0.047l0.009,0.062v0.058v0.06l-0.006,0.071l-0.006,0.049l-0.008,0.044l-0.032,0.034l-0.037,0.044
			l-0.054,0.029l-0.043,0.047l-0.068,0.024l-0.055,0.007l-0.062,0.016l-0.065,0.022l-0.07,0.007h-0.065l-0.101-0.007l-0.104-0.004
			l-0.08,0.014l-0.045,0.022l-0.037,0.033l-0.049,0.045l-0.043,0.042l-0.039,0.035l-0.046,0.041l-0.055,0.027l-0.04,0.013
			l-0.045,0.009l-0.057,0.004l-0.062,0.007l-0.056-0.004l-0.021-0.018l-0.021-0.022l-0.041-0.031l-0.042-0.031l-0.051-0.011
			l-0.053,0.018l-0.03,0.034l-0.052,0.031l-0.043,0.024l-0.04,0.018l-0.062,0.032l-0.063,0.027l-0.069,0.029l-0.057,0.025
			l-0.04,0.053l-0.008,0.036l-0.005,0.047l-0.033,0.031l-0.008,0.027l-0.008,0.022l-0.021,0.026l-0.023,0.027l-0.026,0.027
			l-0.025,0.027l-0.055,0.027l-0.028,0.02l-0.06,0.024l-0.069,0.018l-0.043,0.011l-0.025,0.022l-0.012,0.047v0.044v0.085v0.069
			l-0.006,0.052l-0.028,0.022l-0.046,0.011l-0.052,0.014l-0.051,0.009l-0.065-0.009l-0.047-0.022l-0.061-0.031l-0.038-0.024
			l-0.072-0.029l-0.037-0.031l-0.061-0.027l-0.072-0.013l-0.051-0.018l-0.083-0.026l-0.045-0.029l-0.067-0.024l-0.051-0.038
			l-0.056-0.029l-0.046-0.027l-0.039-0.036l-0.04-0.031l-0.04-0.029l-0.027-0.029l-0.042-0.026l-0.021-0.052L15.1,39.177
			l-0.009-0.034l-0.03-0.031l-0.037-0.036l-0.04-0.022l-0.046-0.007l-0.023,0.015l-0.041,0.025l-0.026,0.02l-0.021,0.033
			l-0.066,0.039l-0.04,0.036l-0.051,0.035l-0.049,0.045l-0.062,0.022l-0.041-0.009L14.455,39.3l-0.026,0.029l-0.023,0.038
			l-0.02,0.038l-0.046,0.054l-0.025,0.04l-0.052,0.027l-0.046,0.009l-0.037,0.008l-0.048-0.004l-0.043,0.002l-0.056,0.006h-0.057
			l-0.029,0.018l-0.028,0.021l-0.022-0.004l-0.016-0.022l-0.023-0.031l-0.021-0.036l-0.021-0.028l-0.021-0.045l-0.026-0.04
			l-0.045-0.06l-0.029-0.033l-0.021-0.027l-0.035-0.036l-0.043-0.035l-0.037-0.031l-0.043-0.038l-0.062-0.024l-0.06-0.002
			L13.351,39.1l-0.01,0.034l-0.011,0.049l-0.006,0.061l-0.012,0.073l-0.028,0.049l-0.029,0.038l-0.04,0.045l-0.021,0.018
			L13.159,39.5l-0.029,0.029l-0.025,0.038l-0.034,0.04l-0.018,0.047l-0.008,0.036l-0.006,0.044l-0.008,0.031l-0.024,0.069
			l-0.037,0.049l-0.026,0.056l-0.035,0.036l-0.031,0.049l-0.035,0.064l-0.037,0.054l-0.036,0.041l-0.064,0.047l-0.035,0.018
			l-0.085,0.033l-0.056,0.02l-0.051,0.007h-0.04l-0.061-0.022l-0.031-0.018l-0.034-0.014L12.28,40.23l-0.064-0.022l-0.063-0.026
			l-0.029-0.025l-0.048,0.004l-0.04,0.031l-0.048,0.022l-0.048,0.029l-0.032,0.021l-0.056,0.026l-0.024,0.018h-0.019l-0.018-0.011
			l-0.059-0.033l-0.062-0.018l-0.043,0.011l-0.053,0.016l-0.064,0.013l-0.062,0.013l-0.085,0.021l-0.046,0.04l-0.04,0.022
			l-0.083,0.027l-0.082,0.022l-0.069,0.027l-0.066,0.004l-0.045,0.009l-0.024,0.031l-0.043,0.034l-0.039,0.026l-0.041,0.041
			l-0.045,0.034l-0.051,0.02l-0.052,0.033l-0.062,0.047l-0.04,0.027l-0.021,0.027l-0.013,0.04l-0.021,0.058l-0.015,0.036
			l-0.013,0.042l-0.011,0.052l-0.03,0.018l-0.037,0.027l-0.008,0.038l-0.026,0.022l-0.054,0.009l-0.021,0.018l-0.057,0.031
			l-0.056,0.026l-0.064,0.018l-0.066,0.014l-0.046,0.004H9.931l-0.038,0.004l-0.039,0.014L9.773,41.3l-0.035,0.026l-0.053,0.041
			l-0.058,0.038l-0.039,0.036l-0.046,0.044l-0.027,0.027l-0.025,0.04L9.463,41.57l-0.025-0.009l-0.017-0.013l-0.025-0.036
			l-0.047-0.029l-0.021-0.024l-0.05-0.042l-0.067-0.016l-0.079-0.007l-0.073-0.002l-0.036-0.016l-0.04-0.013l-0.02,0.009
			l-0.021,0.022L8.9,41.43l-0.035,0.04l-0.054,0.027l-0.024,0.029l-0.136,0.065l-0.072,0.026l-0.048,0.04l-0.062,0.031l-0.071,0.031
			L8.334,41.74l-0.072,0.022L8.2,41.78l-0.066,0.016l-0.041,0.018l-0.045,0.02l-0.071,0.021l-0.077,0.031l-0.043,0.036l-0.04,0.031
			l-0.024,0.04l-0.014,0.058L7.766,42.12l-0.026,0.044l-0.027,0.038L7.678,42.22l-0.031,0.018L7.614,42.26l-0.04,0.027l-0.045,0.026
			l-0.03,0.026l-0.037,0.039L7.431,42.4l-0.04,0.014l-0.032,0.013l-0.043,0.009l-0.031,0.018l-0.03,0.009H7.198l-0.053,0.005
			l-0.07,0.009l-0.023,0.018l-0.028,0.007l-0.062,0.011l-0.063,0.018l-0.021,0.02l-0.042,0.013l-0.032,0.011L6.771,42.6l-0.032,0.02
			l-0.026,0.02l-0.026,0.024l-0.02,0.031L6.62,42.726l-0.031,0.036L6.53,42.78l-0.045,0.018l-0.024,0.029L6.44,42.861l-0.018,0.044
			L6.4,42.936l-0.021,0.026v0.047l0.02,0.069l0.025,0.06l0.015,0.036l0.022,0.031l0.021,0.036l0.016,0.029l-0.003,0.036
			l-0.008,0.033L6.476,43.37l-0.021,0.031L6.43,43.432l-0.02,0.04l-0.019,0.022l-0.024,0.024l-0.021,0.038L6.332,43.59l-0.016,0.022
			l-0.06,0.027l-0.04,0.009l-0.054,0.013L6.135,43.67l-0.02,0.022l-0.008,0.042v0.041l-0.009,0.046l-0.002,0.051l-0.009,0.036
			l0.002,0.013l-0.014,0.04l-0.002,0.061l0.016,0.031l0.04-0.002l0.024,0.004l0.008,0.018l0.02,0.031l0.021,0.031l0.018,0.036
			l0.019,0.04l0.032,0.038l0.019,0.029L6.281,44.3l-0.014,0.036l-0.017,0.035l-0.017,0.032l0.014,0.022l0.034,0.011l0.043-0.009
			l0.029,0.024l-0.003,0.036L6.34,44.536l-0.01,0.058L6.329,44.65v0.047v0.129L6.326,44.88l-0.002,0.038l-0.021,0.013l-0.052-0.004
			l-0.078-0.004l-0.093-0.002l-0.077-0.006l-0.057,0.006l-0.029,0.02l-0.035,0.041l-0.028,0.02l-0.05,0.041L5.77,45.07l-0.035,0.027
			l-0.04,0.027l-0.023,0.027L5.637,45.18l-0.054,0.036l-0.041,0.027l-0.043,0.038l-0.048,0.032l-0.025,0.033L5.371,45.38
			l-0.034,0.026l-0.043,0.041L5.268,45.46L5.23,45.478l-0.021,0.018L5.156,45.53L5.11,45.555l-0.059,0.038l-0.062,0.038L4.944,45.66
			l-0.046,0.031l-0.067,0.033l-0.062,0.041l-0.024,0.018l-0.037,0.018l-0.026,0.022l-0.019,0.018l-0.023,0.007l-0.037-0.036
			l-0.022-0.024l-0.018-0.029v-0.022L4.54,45.719l-0.036-0.013l-0.032-0.009l-0.029-0.018l-0.043-0.011l-0.019,0.009l-0.021,0.018
			l-0.021,0.022L4.31,45.741l-0.011,0.029l0.005,0.029l0.017,0.026l0.026,0.039l0.014,0.031l0.023,0.035l0.014,0.032l-0.006,0.024
			l-0.01,0.018l-0.038,0.016l-0.045,0.018l-0.055,0.003l-0.073-0.005L4.09,46.032L4.023,46.03H3.952l-0.089,0.002l-0.048-0.005
			H3.732H3.671l-0.094-0.004H3.491L3.43,46.027L3.36,46.021H3.283l-0.077,0.004H3.118l-0.057,0.002l-0.064-0.004l-0.036-0.005
			l-0.057-0.026l-0.043-0.016H2.835l-0.019,0.027l-0.014,0.029L2.795,46.07v0.04l-0.012,0.036L2.77,46.2l-0.018,0.04l-0.013,0.033
			l-0.017,0.024l-0.026,0.041l-0.056,0.051L2.6,46.411l-0.028,0.02l-0.046,0.038l-0.048,0.033l-0.062,0.054l-0.026,0.031
			l-0.021,0.045l-0.056,0.036l-0.115,0.091l-0.04,0.029l-0.074,0.018l-0.051,0.018l-0.043,0.013l-0.026,0.029l-0.048,0.058
			l-0.035,0.027l-0.031,0.024l-0.043,0.02l-0.04,0.022l-0.023,0.024l-0.037,0.034l-0.026,0.031L1.65,47.132l-0.031,0.031
			L1.584,47.19l-0.053,0.049l-0.029,0.051L1.48,47.334l-0.019,0.042L1.44,47.432l-0.029,0.049l-0.019,0.047l-0.02,0.033
			l-0.009,0.034l-0.021,0.029L1.323,47.66l-0.025,0.031l-0.026,0.031l-0.04,0.02H1.184H1.119L1.028,47.75L0.975,47.76l-0.043,0.015
			l-0.029,0.018L0.88,47.82l-0.024,0.02l-0.029,0.02l-0.037,0.027l-0.021,0.02l0.004,0.016l0.004,0.018l0.029,0.031l0.016,0.04
			l0.024,0.041L0.84,48.075l-0.012,0.022l-0.033,0.027l-0.029,0.031l-0.049,0.031L0.69,48.213L0.665,48.25l-0.02,0.032l-0.021,0.035
			L0.61,48.353L0.59,48.401l-0.005,0.052l-0.018,0.029L0.56,48.531l0.005,0.026l0.029,0.021l0.023,0.045l0.034,0.035l0.017,0.056
			l-0.002,0.058v0.053v0.054l-0.015,0.069l-0.011,0.058l-0.013,0.056l-0.022,0.054l-0.013,0.042l-0.011,0.024l-0.018,0.044
			l-0.016,0.036l-0.014,0.044v0.038v0.04l0.011,0.029l0.021,0.018l0.029-0.005l0.051-0.009l0.06-0.002l0.083-0.013h0.062
			l0.032,0.022l0.032,0.033l0.048,0.054l0.071,0.058l0.015,0.01l0.007,0.005l0.035,0.027l0.068,0.049l0.058,0.049l0.085,0.054
			l0.059,0.04l0.057,0.042l0.059,0.042l0.046,0.013l0.048-0.002l0.064-0.006L1.68,49.88l0.062-0.009l0.074-0.018l0.064-0.013
			l0.08-0.014l0.043-0.022l0.098-0.016l0.058-0.007l0.062-0.018l0.035-0.016l0.062-0.016l0.055-0.019l0.068-0.004l0.05-0.018
			l0.042-0.014l0.038-0.022l0.033-0.018v-0.042L2.59,49.558l-0.02-0.031l0.003-0.036L2.59,49.45l0.04-0.018l0.021-0.031l0.021-0.036
			l0.037-0.008l0.043-0.002l0.043,0.013l0.053,0.011h0.037l0.032-0.009l0.051-0.014l0.046,0.007l0.029,0.018l0.034,0.034h0.062
			l0.04-0.018l0.027-0.027l0.019-0.018l0.02-0.027l0.033,0.002l0.015,0.02v0.024L3.286,49.4l-0.02,0.042L3.216,49.48l-0.026,0.021
			l-0.006,0.031L3.176,49.57l-0.024,0.04l-0.025,0.022l-0.029,0.022l-0.019,0.013l-0.029,0.022l-0.014,0.024l0.013,0.036h0.035
			l0.051,0.005l0.014,0.024l0.02,0.031l0.043,0.042l0.048,0.047l0.053,0.047l0.037,0.009l0.064,0.013l0.08,0.004l0.086,0.007
			l0.08-0.002l0.085,0.009l0.056-0.005l0.061,0.002h0.076l0.06,0.002h0.048l0.064,0.004l0.066,0.002l0.071,0.011l0.072,0.004
			l0.059,0.009l0.048,0.018l0.062,0.022l0.056,0.022l0.069,0.016l0.051,0.026l0.043,0.036l0.037,0.052l0.021,0.035l0.015,0.049
			l0.056,0.036l0.029,0.027l0.071-0.004l0.037-0.016l0.058-0.022l0.045-0.022l0.037-0.04l0.017-0.047l0.018-0.044l0.024-0.045
			l0.038-0.053l0.035-0.032l0.056-0.058l0.026-0.027l0.021-0.04l0.014-0.036l0.008-0.036l0.048-0.024h0.054l0.077,0.004l0.041,0.014
			l0.048,0.017l0.069,0.018l0.062,0.007l0.057,0.011h0.08l0.072,0.002H6.06h0.06l0.069-0.009l0.05-0.005l0.051-0.004l0.032-0.02
			l0.019-0.029l0.021-0.031l0.02-0.026l0.021-0.027l0.021-0.031l0.049-0.027l0.049-0.016l0.036-0.013l0.055-0.018l0.05-0.013
			l0.07-0.027l0.053-0.027l0.06-0.027L6.9,49.504l0.063-0.029l0.062-0.009l0.046,0.007l0.048-0.013l0.054,0.002h0.093l0.067,0.002
			l0.08-0.007l0.085,0.007l0.064-0.007l0.043-0.006l0.037,0.004l0.08,0.009l0.059,0.029l0.04,0.038l0.038,0.04l0.042,0.027
			l0.054,0.022l0.062,0.024l0.049,0.016l0.062,0.02l0.077,0.014h0.062l0.062,0.009l0.057,0.013l0.059,0.013l0.032,0.018l0.002,0.036
			l-0.019,0.036L8.43,49.857l-0.012,0.041l-0.025,0.044l-0.029,0.036l-0.02,0.033l-0.028,0.036l-0.024,0.045L8.26,50.125
			l-0.02,0.031l-0.023,0.029l-0.023,0.027l-0.024,0.036l-0.025,0.027l-0.038,0.044l-0.026,0.034l-0.028,0.036L8.039,50.44
			L8.011,50.5l-0.032,0.026l-0.021,0.011l-0.025,0.024l-0.029,0.018l-0.026,0.02l-0.049,0.025l-0.051,0.035l-0.025,0.027
			l-0.031,0.016l-0.027,0.028l-0.016,0.022L7.66,50.78l-0.016,0.036l-0.021,0.051l-0.005,0.042l0.003,0.038l0.011,0.038l0.023,0.024
			l0.04,0.007h0.046l0.063,0.002l0.063,0.009l0.045,0.009l0.067,0.005l0.045,0.002l0.051,0.006l0.045-0.008l0.018-0.014l0.008-0.018
			l0.003-0.022l0.005-0.027l0.021-0.014l0.008-0.026v-0.018l-0.011-0.024l-0.003-0.024l-0.008-0.036v-0.02l0.008-0.024L8.2,50.76
			l0.024-0.007l0.03-0.002h0.03h0.066l0.048-0.007h0.049l0.045-0.002l0.063,0.002l0.054,0.011l0.027,0.018L8.66,50.8l0.026,0.041
			l0.009,0.058v0.04l-0.006,0.044l-0.008,0.042l-0.01,0.065l0.007,0.047v0.074l0.005,0.042l-0.02,0.022l-0.028,0.022l-0.052,0.022
			l-0.056,0.035l-0.052,0.018L8.429,51.39l-0.037,0.015l-0.026,0.002l-0.009,0.014l-0.005,0.024l0.003,0.051l-0.013,0.051
			l0.01,0.073l-0.003,0.043v0.062L8.34,51.772l-0.006,0.036l-0.003,0.047v0.036l0.008,0.031l0.03,0.016h0.037H8.44l0.043-0.002
			h0.035h0.042l0.046,0.013l0.045,0.036l0.026,0.042l0.021,0.049l0.019,0.049l0.01,0.047l0.03,0.026l0.047,0.031l0.051,0.016
			l0.056,0.009h0.043H8.99l0.043-0.009l0.035-0.011l0.037-0.012l0.048-0.002l0.045,0.022l0.054,0.015l0.05,0.011h0.035l0.049-0.009
			l0.043,0.002h0.036l0.062,0.007l0.047,0.004l0.057,0.009l0.055,0.02l0.037,0.007l0.042-0.009l0.049-0.013l0.072-0.005l0.059,0.007
			l0.037,0.009l0.059,0.002l0.055,0.004l0.054,0.024l0.056,0.014l0.06,0.013l0.046,0.018l0.051,0.013l0.039,0.013l0.041,0.009
			l0.074,0.013l0.051,0.009h0.051l0.045,0.004l0.024,0.014v0.027v0.036l-0.019,0.067v0.053l-0.009,0.054l-0.004,0.053l-0.002,0.062
			l-0.006,0.034l-0.014,0.046v0.049l0.012,0.036l0.042,0.038l0.021,0.033l0.031,0.041l0.039,0.028l0.032,0.038l0.027,0.031
			l0.021,0.036l0.038,0.054l0.029,0.04v0.027v0.031v0.047l0.005,0.042v0.04l-0.006,0.036l-0.017,0.018l-0.021,0.022l-0.002,0.029
			l-0.006,0.018l-0.018,0.02l-0.008,0.049l0.008,0.081l-0.008,0.049v0.031l0.011,0.04l0.015,0.038v0.02l0.019,0.031l0.002,0.022
			l0.006,0.026l0.005,0.036v0.038l-0.005,0.056l0.005,0.044v0.067l-0.008,0.031l-0.021,0.022l-0.017,0.022v0.026l0.002,0.036
			l-0.008,0.031v0.049l0.005,0.064l0.018,0.038l0.018,0.036l0.021,0.058l0.002,0.049l0.021,0.058v0.035l-0.003,0.041v0.04
			l-0.011,0.022l-0.013,0.022l-0.007,0.025v0.035l-0.005,0.027l-0.008,0.039v0.042l0.008,0.053v0.041l-0.006,0.06l0.011,0.058
			l0.009,0.042l0.011,0.036l0.011,0.027v0.033l-0.003,0.036l-0.019,0.024l-0.006,0.029l-0.021,0.031l-0.006,0.036l0.008,0.027
			l0.008,0.042l0.02,0.038l0.009,0.044v0.036l0.005,0.041v0.047l-0.017,0.031v0.051l0.008,0.067v0.044l-0.01,0.016l-0.013,0.02
			l-0.008,0.022L10.89,56.16l-0.002,0.033l-0.011,0.022l-0.018,0.014l-0.037,0.016l-0.03,0.018l-0.041,0.024l-0.034,0.021
			l-0.021,0.018l-0.023,0.021l-0.029,0.021l-0.037,0.018l-0.043,0.022l-0.069,0.007H10.44l-0.057-0.007l-0.046,0.002l-0.054-0.002
			l-0.045-0.026l-0.043-0.002l-0.02,0.009l-0.023,0.029l-0.025,0.031l-0.038,0.027l-0.043,0.022l-0.023,0.024l-0.064,0.027
			L9.9,56.563H9.842L9.82,56.554l-0.029-0.018l-0.014-0.029l-0.04-0.011l-0.019,0.006l-0.01,0.02l-0.015,0.031l-0.026,0.027
			l-0.015,0.022l-0.03,0.042l-0.032,0.02l-0.04,0.011l-0.024,0.006H9.504l-0.024-0.002L9.45,56.664L9.43,56.646l-0.021-0.021
			l-0.021-0.008l-0.037,0.013l-0.019,0.026l-0.018,0.024L9.294,56.71l-0.02,0.047L9.263,56.8v0.038l-0.002,0.045v0.046v0.038
			l0.045,0.047l0.057,0.016l0.054,0.015l0.063,0.018l0.066,0.013l0.062,0.011l0.021,0.031v0.022l-0.005,0.024l-0.012,0.022
			l-0.011,0.029l-0.008,0.031l-0.011,0.036l-0.017,0.029l-0.021,0.027l-0.027,0.029L9.496,57.38l-0.05,0.009l-0.065,0.007H9.328
			l-0.041-0.009l-0.029-0.009l-0.029-0.015l-0.037-0.011L9.16,57.343l-0.055-0.007l-0.051,0.009l-0.025,0.018l-0.026,0.02v0.034
			l0.005,0.036l0.011,0.044l0.02,0.038l-0.003,0.022l-0.011,0.02l-0.026,0.016l-0.029,0.018l-0.045,0.026l-0.038,0.027l-0.032,0.013
			l-0.031,0.021l-0.041,0.021l-0.036,0.018L8.729,57.75l-0.003,0.018l0.006,0.024l0.02,0.009l0.034,0.005h0.031l0.02,0.011
			l0.003,0.02l-0.003,0.025l-0.005,0.035l0.002,0.041l0.003,0.042l-0.015,0.031l-0.019,0.013l-0.032,0.002L8.736,58.02l-0.034-0.009
			l-0.026,0.004l-0.021,0.009l-0.019,0.018l-0.024,0.013l-0.025,0.011L8.56,58.082l-0.026,0.022l-0.037,0.026l-0.032,0.018
			l-0.045,0.018l-0.051,0.02l-0.052,0.009l-0.088,0.018l-0.046,0.009H8.146L8.11,58.23L8.09,58.25l-0.032,0.014L8.021,58.28
			l-0.034,0.022L7.96,58.324l-0.013,0.031l-0.015,0.036l-0.011,0.036l-0.003,0.04v0.047l0.003,0.041l0.013,0.04l0.029,0.047
			l0.021,0.056l0.004,0.042v0.031l-0.004,0.044l-0.006,0.042l-0.002,0.049v0.047l-0.009,0.031l-0.013,0.042l-0.008,0.038
			L7.927,59.13l-0.008,0.045l-0.014,0.046L7.889,59.26l-0.014,0.036v0.049l-0.006,0.024l-0.019,0.026L7.8,59.413l-0.075-0.002
			l-0.056-0.013l-0.04-0.022L7.586,59.35l-0.021-0.022l-0.046-0.014l-0.077-0.007H7.379l-0.064,0.007l-0.073-0.013l-0.07-0.018
			L7.1,59.285l-0.038,0.018l-0.034,0.018l-0.019,0.031L7,59.393v0.044l0.003,0.041l0.003,0.038v0.044l-0.009,0.047L6.98,59.663
			L6.97,59.699l-0.003,0.054l-0.025,0.04l0.013,0.018l0.014,0.018l-0.011,0.027L6.936,59.87L6.91,59.874l-0.021,0.018L6.87,59.922
			v0.035l-0.005,0.045l0.028,0.026l0.023,0.031l0.029,0.021h0.045l0.051-0.003l0.02,0.016l0.031,0.018l0.024,0.026l0.016,0.04
			l0.014,0.051l-0.021,0.024L7.1,60.257l-0.02,0.021l-0.021,0.033l-0.011,0.056l-0.019,0.045l-0.012,0.051L7.002,60.51l-0.029,0.047
			l-0.025,0.018l-0.043,0.004l-0.029,0.007l-0.04,0.018l-0.03,0.033v0.036v0.045v0.04l-0.014,0.041L6.77,60.825l-0.025,0.018
			l-0.021,0.02l-0.012,0.022l-0.016,0.04l-0.015,0.031v0.04v0.043l-0.002,0.033l-0.017,0.026l-0.018,0.031l-0.008,0.043l0.003,0.044
			l0.011,0.045l0.009,0.051l0.028,0.046l0.012,0.022l0.023,0.038l0.026,0.049L6.766,61.5l0.019,0.046l0.017,0.042l0.008,0.018
			l0.021,0.026l0.017,0.022l0.024,0.031L6.9,61.711l0.033,0.027l0.032,0.029l0.032,0.029l0.032,0.031l0.033,0.018l0.026,0.027
			l0.029,0.033l0.026,0.029l0.023,0.022l0.04,0.009l0.046,0.009h0.034l0.056,0.008l0.043,0.01L7.438,62l0.044,0.013l0.045-0.009
			l0.049,0.004l0.019,0.021l0.023,0.038l0.04,0.04l0.023,0.036l0.02,0.049l0.031,0.054l0.014,0.056l0.014,0.049l0.02,0.056
			l0.016,0.062l0.019,0.033l0.021,0.047l0.019,0.027l0.015,0.044l0.011,0.031l0.037,0.013l-0.012,0.022l-0.021,0.009l-0.03,0.015
			l-0.021,0.022l-0.034,0.024l-0.032,0.016L7.699,62.77l-0.053,0.032l-0.056,0.016L7.556,62.84l-0.032,0.022l-0.035,0.022
			l-0.03,0.025l-0.027,0.015l-0.019,0.016l-0.021,0.008l-0.002,0.001L7.337,62.96L7.31,62.947l-0.061-0.023l-0.033-0.009
			l-0.049-0.019l-0.028-0.018l-0.038-0.014H7.079l-0.021,0.01l-0.017,0.009l-0.022,0.019l-0.017,0.018l-0.022,0.035h0.06l0.07,0.034
			l0.051,0.015l0.041,0.012l0.04,0.015l0.03,0.023l0.037,0.023l0,0l0.049,0.022l0.027,0.023l0.031,0.03l0.037,0.023l0.03,0.016
			l0.007,0.003l0.017,0.009l0.041,0.015l0.049,0.016l0.05,0.003h0.041h0.049l0.027-0.015l0.081,0.003l0.085,0.004l0.027,0.019
			l0.055,0.008h0.062l0.045-0.016l0.045-0.012l0.045-0.007l0.031-0.012l0.051-0.004l0.025-0.015l0.027-0.016l0.026-0.031
			l0.019-0.015l0.031-0.023l0.036-0.026l0.04-0.039l0.026-0.023l0.02-0.008l0.045-0.004l0.036,0.003l0.049,0.008l0.032,0.015
			l0.025,0.012l0.082,0.023l0.035,0.016l0.027,0.015L8.9,63.101l0.019,0.003h0.036H8.99l0.104,0.003l0.014,0.031v0.016l0.019,0.011
			l0.031,0.004l0.045,0.008l0.072,0.004l0.049,0.023l0.032,0.007l0.06,0.012l0.026,0.015l0.036,0.02l0.035,0.008h0.014l0.014-0.027
			l0.019-0.022l0.021-0.016l0.023-0.008h0.044l0.037,0.016l0.036,0.012l0.036,0.003h0.021l0.022-0.008l0.025-0.012l0.022-0.019
			l0.021-0.011l0.055-0.012h0.026h0.036l0.02,0.004l0.018,0.011l0.018,0.008l0.027,0.011l0.031,0.008h0.032h0.025h0.032l0.036,0.008
			h0.041h0.025h0.022h0.018h0.02l0.021-0.004l0.022-0.008l0.04-0.015l0.01-0.008l0.076-0.027l0.041-0.058l0.045-0.007l0.04-0.012
			l0.021-0.015l0.031-0.023l0.072-0.027L10.783,63l0.027-0.026l0.021-0.016l0.022-0.019l0.009-0.004l0.081-0.065l0.009-0.038
			l0.049-0.05l0.046-0.042l0.04-0.027l0.027-0.034l0.031-0.046l0.026-0.049l0.009-0.031l0.014-0.035l0.014-0.034l0.019-0.038
			l0.005-0.042l0.014-0.031l0.019-0.045l0.039-0.054l0.05-0.035l0.056-0.008h0.058l0.05,0.016l0.046,0.016l0.086,0.015l0.031,0.027
			l0.055,0.049l0.05,0.027l0.095,0.042l0.041,0.031l0.049,0.061l0.036,0.023l0.055,0.03l0.06,0.027l0.072,0.019h0.049h0.067
			l0.095-0.004l0.055-0.062l0.026-0.027l0.035-0.015l0.06-0.004h0.041l0.062-0.016l0.06-0.008l0.086-0.004l0.045-0.004h0.067
			l0.071-0.03l0.036-0.012l0.035-0.015l0.037-0.015l0.065-0.008l0.047-0.02l0.03-0.022l0.04-0.016l0.045-0.016l0.022-0.012
			l0.019-0.003l0.022-0.008l0.032-0.007l0.038-0.012l0.032-0.016l0.067-0.004l0.081-0.004l0.031-0.019l0.021-0.011l0.05-0.023h0.046
			h0.035h0.005l0.031-0.004h0.024h0.008l0.022,0.001l0.009,0.002l0.021,0.005l0.011,0.002l0.007,0.002l0.041,0.003l0.031,0.012
			l0.014,0.027l0.022,0.022h0.018l0.032-0.012l0.009-0.019l0.045-0.016h0.019h0.019l0.009,0.008l0.008,0.004l0.012,0.007
			l0.067,0.019l0.049,0.008h0.001l0.025-0.02v-0.03l-0.012-0.025l-0.002-0.002l-0.001-0.003l-0.008-0.012l-0.004-0.006l-0.011-0.013
			l-0.013-0.027v-0.035l0.044-0.015l0.06,0.027l0.023,0.01l0.021,0.009l0.022,0.001l0.036,0.002l0.035-0.003l0.014-0.001
			l0.032-0.008l0.094-0.003h0.022h0.014l0.023-0.003l0.025-0.004l0.025-0.003l0.006-0.001l0.046-0.008l0.021-0.003l0.027-0.005
			l0.108-0.008h0.021l0.036,0.008l0.013,0.004l0.02,0.007l0.054,0.004h0.041l0.018,0.007l0.02,0.008l0.019,0.012l0.05,0.011h0.059
			h0.117l0.035-0.015h0.001l0.036-0.031l0.04-0.023h0.062l0.021,0.012l0.019,0.011l0.036,0.02l0.05,0.007l0.077,0.042l0,0
			l0.021,0.006l0.032,0.009l0.09,0.019l0.059,0.046l0.041,0.003l0.072-0.02l0.045-0.034l0.062-0.02l0.032-0.003h0.004l0.045-0.004
			h0.056l0.049,0.012l0.05,0.003h0.055l0.037,0.007l0.021,0.004l0.037,0.012l0.021,0.007l0.063,0.015l0.032,0.015l0.025,0.012
			l0.022,0.005l0.062,0.014h0.032h0.009h0.081h0.024h0.007h0.007h0.028h0.031h0.002l0.021-0.007l0.031-0.02l0.036-0.015l0.026-0.015
			l0.067-0.035l0.031-0.012l0.026-0.012l0.022-0.002l0.014-0.001h0.036h0.026h0.009l0.067,0.03l0.036,0.012l0.076,0.034h0.019
			l0.036,0.019l0.036,0.012h0.062l0.035-0.008l0.027-0.012h0.031l0.032,0.012l0.039,0.015h0.015l0.009,0.008l0.019,0.003
			l0.046,0.012L18.1,62.3l0.014,0.019v0.023v0.027l0.005,0.023l0.01,0.045v0.027l0.005,0.023v0.035l0.009,0.015l0.022,0.035
			l0.005,0.035l0.019,0.026l0.02,0.023l0.018,0.019l0.031,0.019l0.036,0.019l0.041,0.012h0.066h0.05l0.081,0.023l0.101,0.038
			l0.062,0.012l0.086,0.004l0.1-0.016h0.025l0.023-0.012l0.025-0.003h0.027h0.036l0.067,0.023l0.035,0.004l0.067,0.004l0.014,0.011
			l0.015,0.027l0.019,0.03v0.023l-0.022,0.023l-0.035,0.019l-0.036,0.019l-0.022,0.011l-0.03,0.023l-0.006,0.015v0.026l0.006,0.031
			l0.018,0.022l0.01,0.02l0.015,0.019v0.03l-0.015,0.02l-0.03,0.031l-0.006,0.027l-0.014,0.023l-0.013,0.023l-0.01,0.031
			l-0.015,0.068l-0.004,0.035v0.027v0.027l0.014,0.019v0.035l-0.004,0.05l-0.019,0.038l0.036,0.022l0.026,0.038l0.015,0.031
			l0.03,0.038l0,0l0.045,0.019h0.091l0.1,0.011l0.027,0.004l0.021,0.004l0.026-0.001h0.136l0.05,0.004l0.062,0.011h0.037
			l0.034-0.008l0.063-0.004h0.076h0.026h0.026h0.055l0.051-0.019l0.116-0.012l-0.001-0.038l0.032-0.034h0.04l0.1,0.022h0.062
			l0.027-0.008l0.09-0.016l0.036,0.012h0.091l0.025,0.012l0.051,0.018l0.03,0.012h0.02h0.009l0.158,0.011l0.018-0.008l0.009-0.015
			l0.022-0.005l0.014-0.003l0.055-0.003h0.094h0.022l0.06,0.004l0.031,0.003l0.055,0.012l0.076,0.03l0.055,0.011l0.036,0.012
			l0.054,0.023l0.016,0.005l0.034,0.014l0.056,0.064l0.008,0.01l0.01,0.013l0.036,0.039l0.032,0.022l0.021,0.027l0.023,0.045
			l0.018,0.031l0.02,0.046l0.013,0.046l0.014,0.038l0.005,0.027v0.031l-0.009,0.034l-0.007,0.006l-0.016,0.013l-0.02,0.03
			l-0.021,0.031l-0.02,0.03l-0.029,0.039l-0.016,0.038l-0.009,0.023l-0.007,0.024l-0.002,0.007v0.027l0.019,0.026l0.022,0.023
			l0.021,0.023l0.019,0.03l0.019,0.022l0.027,0.023l0.018,0.007l0.022,0.004h0.031h0.009h0.031l0.04,0.015l0.022,0.016l0.01,0.007
			l0.055,0.026l0.021,0.006l0.019,0.006l0.036,0.015l0.021,0.006l0.074,0.021l0.02,0.011l0.035,0.035l0.036,0.038l0.021,0.027
			l0.014,0.023v0.042l-0.001,0.021l-0.003,0.033L22.308,65.1l-0.021,0.031l-0.031,0.019l-0.045,0.053v0.038v0.013l-0.014,0.03
			l-0.019,0.034v0.027l-0.004,0.073v0.006v0.008l-0.014,0.008l-0.031,0.011l-0.009,0.005l-0.01,0.006l-0.072,0.008l-0.027,0.019
			l-0.017,0.023l-0.008,0.013l-0.006,0.01v0.017v0.006l0.009,0.012l0.019,0.023l0.045,0.035l0.004,0.003l0.006,0.003l0.018,0.012
			l0.003,0.002l0.006,0.006l0.032,0.031l0.018,0.007l0.046,0.019l0.031,0.007l0.035,0.004h0.016h0.009l0.005,0.004l0.025,0.019
			l0.005,0.031l0.014,0.031l0.037,0.034l0.018,0.027l0.02,0.031l0.009,0.015l0.03,0.016l0.023,0.022l0.013,0.027l0.015,0.026
			l0.003,0.009l0.007,0.014l0.013,0.031l0.02,0.03l0.018,0.019l0.001,0.001l0.021,0.034l0.014,0.035l0.003,0.006l0.016,0.036v0.046
			v0.031l-0.008,0.009l-0.005,0.006l-0.014,0.019l-0.015,0.038l-0.026,0.039l-0.019,0.023l-0.026,0.023l-0.02,0.023l-0.015,0.032
			l-0.003,0.006h-0.001l0,0l-0.026,0.038l-0.004,0.034l0,0l-0.014,0.05v0.022v0.016l0.005,0.045v0.013v0.025l-0.004,0.042
			l-0.037,0.038l-0.021,0.031l-0.03,0.053l-0.005,0.042v0.03l0.005,0.039l0.021,0.027l0.022,0.027v0.022l0.009,0.035v0.026v0.027
			l-0.009,0.03v0.001v0.034l0.01,0.015l0.008,0.015h0.001l0.027,0.027l0.013,0.027l0.001,0.034h-0.001l-0.021,0.015l-0.02,0.011
			l-0.018,0.035l-0.05,0.022l-0.019,0.023l0.016,0.022l0.021,0.031l0.026,0.012l0.026,0.015l0.027,0.019l0.002,0.008l0.002,0.008
			l0.01,0.027l0.022,0.026l0,0l0.032,0.015l0.021,0.019l0.027,0.015l0.031,0.023l0.005,0.003l0.005,0.027l-0.022,0.023l-0.036,0.015
			l-0.041,0.042l0,0l-0.002,0.001l-0.047,0.018l-0.022,0.019l-0.035,0.023l-0.031,0.031l-0.01,0.031l-0.009,0.03l0.005,0.031
			l0.012,0.027l0.002,0.003l-0.004,0.034l-0.03,0.022l-0.007,0.005l-0.009,0.008l-0.026,0.022l-0.011,0.01l-0.007,0.006
			l-0.027,0.031h-0.014l-0.031,0.008l-0.041,0.007l-0.049,0.016l-0.041,0.012l-0.05,0.011l-0.063,0.027l-0.025,0.015l-0.055,0.019
			l-0.021,0.012l-0.06,0.019l-0.045,0.011l-0.037,0.003l-0.025,0.001l-0.045,0.012l0,0l-0.003,0.002l-0.024,0.021l-0.017,0.002
			l-0.021,0.001l-0.025,0.008l-0.027,0.007l-0.045,0.012l-0.041,0.02l-0.035,0.03l-0.05,0.042l-0.036,0.02l-0.062,0.012
			l-0.012,0.021l-0.007,0.013l-0.036,0.023l-0.039,0.027l-0.01,0.007l0,0l-0.041,0.019l-0.003,0.003l-0.046,0.036l-0.031,0.03
			l-0.055,0.023l-0.021,0.013l-0.039,0.025l-0.009,0.019l-0.036,0.015l-0.026,0.02l-0.019,0.022l-0.018,0.02l-0.022,0.03v0.001
			l-0.036,0.03l-0.021,0.016l-0.031,0.015l-0.015,0.02l-0.004,0.003l0,0l-0.04,0.031l-0.036,0.025l-0.027,0.027l-0.035,0.055
			l-0.024,0.018l-0.012,0.008l-0.026,0.027l-0.009,0.006l-0.019,0.013l-0.041,0.034l-0.036,0.029l-0.04,0.051l-0.015,0.019
			l-0.013,0.017l-0.025,0.011l-0.002,0.001l-0.049,0.025l-0.031,0.031l-0.027,0.027l-0.018,0.018l-0.01,0.01l-0.026,0.022
			l-0.031,0.031l-0.031,0.022l-0.026,0.027l-0.031,0.012l-0.041,0.03l-0.014,0.022l-0.022,0.008l-0.018,0.005h-0.018h-0.023
			l-0.027-0.027l-0.013-0.012l-0.021-0.007l-0.015-0.008l-0.026-0.016h-0.01h-0.009h-0.026h-0.027h-0.031l-0.031,0.004l-0.018,0.029
			v0.001l-0.01,0.03l-0.009,0.05l0.004,0.039l0.001,0.003l0.021,0.033l0.009,0.043l0.006,0.037v0.039l0,0l-0.046,0.025l-0.01,0.006
			l-0.021,0.014l-0.02,0.019l-0.018,0.021l-0.02,0.022l-0.009,0.009l-0.021,0.014v0.009l0,0l-0.003,0.002l-0.011,0.006l-0.01,0.007
			l-0.009,0.008l-0.004-0.006l-0.015-0.017l-0.002-0.001l-0.009-0.012l-0.017-0.01l-0.009-0.016l-0.011-0.016l-0.014-0.004h-0.018
			h-0.01h-0.009h-0.021h-0.059h-0.015l0.013-0.022l-0.013-0.017l-0.005-0.006l-0.019-0.017l-0.014-0.013h-0.014h-0.01l-0.015,0.017
			l-0.008,0.011l-0.01,0.012l-0.006,0.01l-0.013,0.018l-0.009,0.034l-0.019,0.031l-0.008,0.038v0.031v0.037l0.002,0.029l0.002,0.023
			v0.046l-0.066,0.054l-0.046,0.021l-0.02,0.011l-0.003,0.001l0,0l-0.031,0.008l-0.036,0.012l-0.03,0.012l-0.028,0.012l-0.05,0.016
			l-0.045,0.008l-0.072,0.004l-0.054,0.009l-0.054,0.007l-0.063,0.012l-0.081,0.004l-0.045,0.022h-0.059h-0.019h-0.035h-0.063
			l-0.037,0.006l-0.008,0.001h-0.059l-0.072,0.004l-0.081-0.007l-0.035,0.022h-0.001l-0.005,0.002l-0.022,0.01l-0.034,0.015
			l-0.045,0.017l-0.01,0.002l-0.05,0.023l-0.021,0.012l-0.027,0.01h-0.005l-0.049,0.023L17.57,70.59l-0.021,0.006l-0.04,0.019
			l-0.036,0.022l-0.046,0.016l-0.021,0.012l-0.035,0.012L17.33,70.68h-0.036l-0.04,0.016l-0.05,0.008h-0.027h-0.035h-0.001
			l-0.018,0.003h-0.002l-0.034,0.003h-0.026h-0.01h-0.005h-0.021h-0.019h-0.009l-0.036-0.007l-0.021-0.013l-0.005-0.002h-0.05
			l-0.005,0.005l-0.014,0.019l-0.022,0.006l-0.021,0.004l-0.027,0.008l-0.021,0.004h-0.05h-0.013h-0.006l-0.036,0.011l-0.003,0.001
			l-0.021,0.003l-0.03,0.007l-0.027,0.008l-0.027,0.008l-0.025,0.016l-0.05,0.02l-0.031,0.016l-0.036,0.016l-0.015,0.008
			l-0.021,0.01l-0.027,0.023l-0.044,0.02l-0.023,0.007l-0.021,0.005h-0.045l-0.048,0.003h-0.006h-0.001h-0.018l-0.02,0.002
			l-0.021,0.002l-0.055,0.013L16.04,70.93l-0.018,0.002h-0.02l-0.014,0.002H15.98l-0.036,0.004h-0.003l-0.037,0.005l-0.027,0.026
			l-0.009,0.016l-0.003,0.003l-0.011,0.012H15.84h-0.009h-0.01h-0.035l-0.018,0.011l-0.02,0.012l-0.03,0.021l-0.002,0.002
			l-0.008,0.008l-0.019,0.015h-0.031l-0.021-0.015l-0.015-0.017l-0.01-0.017l-0.005-0.006l-0.008-0.012l-0.016-0.017l-0.012-0.007
			l-0.015-0.008l-0.026-0.004h-0.027h-0.062h-0.021h-0.007h-0.049l-0.032,0.019l-0.04,0.008l-0.028,0.002l-0.012,0.001h-0.026
			h-0.013h-0.016h-0.02l-0.025,0.001h-0.045l-0.045-0.017l-0.027-0.01h-0.045l-0.019-0.008l-0.014-0.008l-0.005-0.004l-0.026-0.023
			l-0.019-0.019l-0.019-0.011l-0.031-0.021v0.016l-0.05-0.002h-0.013l-0.028,0.004l-0.052,0.003h-0.002h-0.003l-0.052,0.007
			l-0.072,0.004l-0.034,0.003h-0.005l0,0l-0.046,0.013l-0.026,0.004l-0.017,0.004l-0.021,0.004l-0.036,0.003l-0.009,0.001h-0.009
			h-0.027h-0.041l-0.058,0.007l-0.041,0.004l-0.076-0.017l-0.104,0.025h-0.034l-0.023,0.006l-0.021,0.008l-0.035,0.009l-0.047,0.015
			h-0.018h-0.027l-0.034-0.007h-0.056h-0.03h-0.056h-0.021l-0.045,0.022l-0.022,0.002l-0.018,0.002l-0.041,0.006l-0.031,0.005
			l-0.018,0.006l-0.006,0.002l-0.031,0.011l-0.035,0.016l-0.036,0.027l-0.041,0.041l-0.026,0.027l-0.036,0.012l-0.039,0.016
			l-0.01,0.005l-0.031,0.022l-0.022,0.008l-0.04,0.022l-0.011,0.006l-0.021,0.013l-0.026,0.027l-0.036,0.035l-0.032,0.029
			l0.002,0.012l0.003,0.016v0.008l-0.036,0.013h-0.006l-0.012-0.001v0.001v0.003l-0.005,0.027l0.014,0.053l0.017,0.013l0.003,0.003
			l0.018,0.016l0.019,0.02l0.004,0.008l0.006,0.016l-0.01,0.012l-0.021,0.01l-0.027,0.012l-0.018,0.004L12.9,71.598l0,0l-0.06,0.027
			l-0.039,0.031v0.027v0.035v0.029l-0.019,0.031l-0.035,0.046l-0.027,0.019h-0.049h-0.041l-0.036-0.004l-0.062-0.019h-0.046
			l-0.035,0.026l-0.03,0.023l-0.027,0.02l-0.036,0.027l-0.014,0.014l-0.022,0.031l-0.035,0.051l-0.01,0.037l-0.004,0.027v0.061
			v0.031l-0.005,0.03l0.005,0.019l-0.01,0.021l-0.049,0.03l-0.022,0.027l-0.019,0.022l-0.019,0.022l-0.018,0.02l-0.031,0.027
			l-0.014,0.015l-0.009,0.012l-0.027,0.017l-0.009,0.016l-0.036,0.045l-0.031,0.046l-0.019,0.019L11.926,72.6l-0.019,0.02
			l-0.014,0.02l-0.014,0.022l-0.023,0.026L11.836,72.7l-0.041,0.026l-0.05,0.031l-0.035,0.025l-0.067,0.031l-0.041,0.023
			l-0.054,0.019l-0.059,0.038l-0.072,0.041l-0.013,0.017l-0.047,0.019l-0.045,0.031l-0.025,0.02l-0.037,0.027l-0.014,0.029
			l-0.018,0.046l-0.005,0.038v0.044v0.017l0.014,0.031l0.015,0.026l0.022,0.073l0.019,0.05l0.035,0.045l0.022,0.035l0.027,0.053
			l0.021,0.062l0.005,0.047l-0.019,0.015l0.001,0.022l-0.027,0.023l-0.027,0.031l-0.035,0.046l-0.019,0.038l-0.031,0.029
			l-0.019,0.031l-0.035,0.022l-0.01,0.021l0.01,0.019v0.039v0.042l-0.018,0.029l-0.01,0.027l-0.021,0.035l-0.023,0.038l-0.03,0.063
			l-0.019,0.051l-0.04,0.035l-0.036,0.058l-0.019,0.05l-0.022,0.031L10.9,74.463l-0.039,0.023l-0.091,0.039l-0.062,0.084h-0.001
			l-0.05,0.068l-0.015,0.013l-0.054,0.038l-0.091,0.041l-0.04,0.016l-0.05,0.035l-0.05,0.042l-0.005,0.03l0.056,0.05l-0.015,0.073
			l-0.04,0.037l-0.045,0.062l-0.005,0.046l-0.013,0.057l-0.027,0.065l-0.014,0.076l-0.049,0.046l-0.05,0.061l-0.015,0.039
			l-0.085,0.02l-0.066,0.016l-0.101,0.034l-0.036,0.022l-0.018,0.088v0.097l0.01,0.08l0.019,0.077l0.022,0.072l0.049,0.072
			l0.068,0.045l0.076,0.047l0.041,0.03l0.054,0.05l0.032,0.025l0.059,0.046l0.072,0.063l0.014,0.078l0.036,0.072l0.04,0.049
			l0.041,0.031l0.142,0.053l0.039,0.055l0.019,0.029l0.032,0.031l0.021,0.035l0.032,0.049l0.018,0.047l0.005,0.041l0.01,0.059v0.045
			v0.068l0.001,0.062l-0.015,0.062l-0.026,0.041l-0.022,0.058l-0.03,0.045l-0.031,0.058l-0.004,0.023l-0.015,0.083l0.045,0.065
			l0.015,0.092l0.014,0.072l0.041,0.026l0.022,0.05l0.03,0.034l0.041,0.03l0.032,0.022l0.035,0.042l0.027,0.059l-0.015,0.037
			l-0.035,0.045l-0.03,0.07l-0.011,0.096v0.072l0.015,0.077v0.062l-0.004,0.061l-0.019,0.081v0.054l0.02,0.08v0.055l-0.06,0.08
			l-0.025,0.068l-0.015,0.046l0.05,0.185l0.056,0.061l0.036,0.08l0.035,0.042l0.036,0.035v0.012V79.5l-0.003,0.094l0.01,0.057
			l0.059,0.02l0.031,0.019l0.059,0.042l0.045,0.031l0.063,0.041l0.054,0.039l0.063,0.049l0.045,0.043l0.05,0.041l0.022,0.027
			l0.019,0.02l0.036,0.049l0.026,0.055l0.04,0.076l0.036,0.045l0.036,0.02l0.019,0.035l0.019,0.054l0.036,0.022l0.068,0.022
			l0.021,0.042l0.027,0.038l0.026,0.022l0.037,0.041l0.031,0.031l0.031,0.034l0.021,0.026l0.022,0.043l0.026,0.049l0.036,0.07
			l0.02,0.026l0.021,0.062l0.014,0.041l0.022,0.058l0.018,0.042l0.02,0.05l0.019,0.034l0.019,0.035l0.019,0.027l0.022,0.033
			l0.018,0.035l0.02,0.046l0.03,0.038l0.027,0.02l0.041,0.013h0.058l0.056,0.003l0.041,0.011l0.062,0.009l0.059,0.008l0.067,0.006
			h0.036l0.059,0.008h0.036L13,81.408h0.036h0.05h0.035h0.041l0.036-0.023l0.066-0.022l0.031-0.035l0.041-0.015l0.018-0.045
			l0.01-0.047l0.03-0.03l0.056-0.038l0.049-0.031l0.04-0.02l0.041-0.01h0.031l0.031-0.004l0.027-0.012l0.026-0.012l0.026-0.016
			l0.019-0.004l0.054-0.016h0.032h0.021l0.072,0.029l0.076,0.023l0.059,0.008l0.05-0.031l0.041-0.026l0.044-0.021l0.056-0.014h0.021
			l0.076,0.038l0.05,0.034l0.041,0.035l0.026,0.012l0.055,0.034l0.027,0.039l0.036,0.046l0.049,0.02l0.036,0.019l0.041,0.022
			l0.026,0.043l0.026,0.039l0.032,0.041l0.036,0.047l0.035,0.035l0.067,0.033l0.09,0.023h0.072l0.063-0.034l0.062-0.026l0.072-0.027
			l0.05-0.016l0.095,0.01l0.045,0.047l0.045,0.037l0.051,0.031l0.066,0.037l0.045,0.042l0.045,0.035l0.032,0.034l0.04,0.031
			l0.037,0.019l0.035,0.022l0.062,0.054l0.036,0.022l0.031,0.016l0.041,0.012l0.062,0.004l0.027,0.008l0.045,0.008l0.027,0.016
			v0.031l0.019,0.031l0.026,0.025h0.037l0.106,0.034l0.036,0.022l0.036,0.031l0.021,0.02l0.06,0.008l0.021,0.003l0.032,0.012
			l0.05,0.009l0.045,0.014l0.062,0.031l0.022,0.022l0.021,0.03l0.032,0.023l0.021,0.026l0.027,0.019l0.018,0.016l0.022,0.012
			l0.036,0.016l0.03,0.026l0.02,0.026l0.014,0.035l0.009,0.03v0.046v0.026V82.6l0.02,0.02l0.021,0.016l0.056,0.035l0.049,0.029
			l0.055,0.039l0.049,0.023l0.028,0.029l0.031,0.039l0.025,0.023l0.006,0.045l0.005,0.031v0.054v0.022l0.014,0.02l0.014,0.02
			l0.019,0.029l0.019,0.031l0.018,0.027l0.011,0.041l0.014,0.031v0.038l0.005,0.03l0.009,0.046v0.038l0.005,0.035v0.041
			l-0.014-0.014v0.037v0.047v0.045v0.092l0.02,0.023l0.005,0.053v0.043l-0.009,0.045l-0.015,0.062l0.005,0.058l0.031,0.03
			l0.036,0.034l0.036,0.059l0.019,0.08l0.027,0.043l0.018,0.045l0.032,0.026l0.049,0.054l0.001,0.069l-0.019,0.045l0.005,0.039
			l0.036,0.046l0.036,0.042l0.036,0.034l0.121,0.057l0.06,0.023l0.049,0.023l0.036,0.022l0.046,0.042l0.031,0.038l0.059,0.046v0.02
			l0.02,0.045l0.036,0.035l0.035,0.035l0.046,0.029l0.026,0.012l0.055,0.016l0.054,0.011l0.055,0.026l0.031,0.02l0.036,0.023
			l0.018,0.019l0.036,0.022l0.051,0.027l0.035,0.016l0.02,0.019l0.025,0.034l0.027,0.027l0.022,0.049l0.021,0.031l0.041,0.019
			l0.014,0.021l0.041,0.037l0.031,0.031l0.014,0.025v0.043v0.039l-0.005,0.092l-0.026,0.041l-0.165,0.068l-0.152,0.047l-0.032,0.09
			l0.031,0.033l0.005,0.059l0.019,0.084v0.053l-0.03,0.055l-0.022,0.037l-0.026,0.023l-0.036,0.068l0.001,0.031l-0.005,0.049
			l-0.02,0.043l-0.013,0.035l-0.005,0.026l0.014,0.03l0.02,0.029l0.013,0.031v0.031l0.014,0.029l0.023,0.023l0.018,0.047
			l0.019,0.025l0.019,0.05l-0.009,0.035l-0.04,0.003l-0.027,0.008l-0.018,0.023l-0.027,0.045l-0.031,0.016l-0.014,0.027l-0.021,0.02
			v0.029l-0.072,0.039l-0.009,0.029l-0.01,0.031l-0.03,0.043v0.019l-0.019,0.03v0.027v0.034v0.042l0.004,0.035l0.036,0.035
			l0.011,0.007l0.025,0.03l0.027,0.035v0.058v0.046v0.053l0.022,0.069l-0.005,0.03l0.001,0.047l-0.014,0.029l0.004,0.008v0.047
			l-0.018,0.05l-0.005,0.042v0.038v0.077v0.025v0.047v0.041l0.015,0.031l0.036,0.026l0.036,0.013l0.045,0.01l0.036,0.013
			l0.035,0.015l0.056,0.021l0.04,0.023l0.05,0.008l0.045,0.016l0.018,0.019l0.02,0.035l0.009,0.046v0.042l0.005,0.068l-0.021,0.054
			v0.059l-0.005,0.062l-0.005,0.054l-0.013,0.041v0.055l-0.005,0.067v0.054v0.023v0.051l0.001,0.049v0.107l-0.009,0.057
			l-0.045,0.101l-0.027,0.026l-0.022,0.039l-0.03,0.022l-0.04,0.058l-0.032,0.041l-0.008,0.038l-0.014,0.027l-0.006,0.11
			l-0.018,0.045v0.023l-0.009,0.039l-0.035,0.046l-0.006,0.019l-0.021,0.017l-0.035,0.003h-0.027h-0.045h-0.027l-0.018-0.025
			l-0.022-0.017l-0.022-0.011h-0.026l-0.04,0.007l-0.019,0.039l-0.02,0.03l-0.013,0.035V90v0.041l-0.005,0.035l-0.031,0.031
			l-0.021,0.025l-0.019,0.035l-0.021,0.043l-0.015,0.045v0.035l-0.004,0.012l-0.014,0.037l-0.009,0.039l-0.015,0.03l-0.013,0.05
			v0.03v0.042l-0.005,0.046l-0.019,0.038l-0.005,0.031v0.042v0.045l-0.045,0.043l-0.045,0.062v0.022v0.054l0.02,0.039l0.03,0.008
			l0.032,0.03l0.004,0.03v0.027l-0.008,0.072l-0.022,0.047l-0.014,0.049L17.96,91.26l-0.018,0.021l-0.045,0.023L17.87,91.33
			l-0.035,0.021l-0.055,0.022l-0.041,0.016l-0.031,0.008l-0.018,0.008h-0.041l-0.035,0.004h-0.05l-0.032,0.016l-0.06,0.016
			l-0.004,0.042L17.5,91.5l0.02,0.012v0.045l-0.01,0.009v0.038l0.004,0.015l0.006,0.019l0.026,0.027l0.005,0.016v0.029l-0.016,0.027
			l-0.026,0.023l-0.041,0.022l-0.04,0.031l-0.03,0.019l-0.05,0.031l-0.055,0.029l-0.036,0.009h-0.04h-0.031l-0.055,0.004
			l-0.045,0.021l-0.036,0.035l-0.031,0.022l-0.021,0.019l-0.032,0.026l0.001,0.035l-0.005,0.015l-0.026,0.016l-0.019,0.023
			l-0.026,0.03l-0.026,0.038l-0.041,0.035l-0.014,0.022l-0.04,0.026l-0.055,0.031l-0.03,0.029l-0.023,0.023l-0.04,0.029
			l-0.009,0.035l-0.009,0.031l-0.02,0.025l-0.07,0.021l-0.032,0.022l-0.035,0.023l-0.05,0.02l-0.036,0.027l-0.036,0.03l-0.018,0.031
			l-0.022,0.03l-0.026,0.031l-0.04,0.002h-0.036l-0.056-0.002l-0.021-0.005l-0.036,0.019l-0.004,0.023l-0.027,0.004l-0.021-0.023
			l-0.031-0.012l-0.04-0.004h-0.041h-0.036l-0.026,0.026l-0.04,0.017h-0.041l-0.022,0.004l-0.019,0.026l-0.008,0.038l-0.011,0.031
			l-0.021,0.031h-0.032l-0.026-0.023l-0.026-0.008h-0.032H15.54l-0.021,0.031l-0.014,0.022l-0.027,0.022l-0.031,0.02l-0.021,0.03
			l-0.067,0.05l-0.019,0.023l-0.031,0.022l-0.021,0.017l-0.035,0.015l-0.023,0.008l-0.018,0.022l-0.036,0.022l-0.036,0.046
			l-0.027,0.047l-0.018,0.057l-0.04,0.031l-0.041,0.012l-0.062,0.004l-0.035,0.02l-0.015,0.018l-0.004,0.047v0.031l0.004,0.022
			l-0.018,0.013l-0.014,0.025h-0.036l-0.051-0.016l-0.054-0.022l-0.112-0.038l-0.059,0.012l-0.045,0.023h-0.027h-0.045l-0.059,0.003
			h-0.036l-0.036-0.022h-0.05l-0.04,0.008l-0.055,0.015l-0.035,0.022l-0.05,0.009l-0.041,0.026h-0.035h-0.032H13.93l-0.065,0.026
			l-0.006,0.038l-0.021,0.031l-0.036,0.011h-0.085h-0.014l-0.031-0.007l-0.05-0.008h-0.046l-0.071,0.027l-0.05,0.041l-0.036,0.008
			l-0.04,0.008h-0.031h-0.022v-0.023l-0.015-0.029l-0.04-0.043l-0.019-0.035l-0.019-0.029l-0.05-0.051l-0.021-0.021l-0.05-0.031
			l-0.055-0.004h-0.041l-0.05,0.031l-0.045,0.031l-0.021,0.057l0.006,0.073v0.034v0.042l-0.011,0.026l-0.049,0.022l-0.036,0.026
			l-0.046,0.02l-0.049,0.02l-0.055,0.02l-0.04,0.016l-0.045,0.008l-0.04,0.015l-0.055,0.022l-0.041,0.02l-0.046,0.025l-0.025,0.017
			l-0.06,0.034l-0.021,0.02l-0.019,0.038l-0.026,0.013l-0.045,0.004v0.045l0.01,0.022l0.009,0.035l-0.036,0.035l-0.018,0.038
			l-0.023,0.029l-0.058,0.008l-0.05-0.002L12,94.273l-0.041-0.027l-0.036-0.02l-0.041-0.025l-0.095-0.031l-0.031,0.008l-0.021,0.027
			l-0.036,0.027l-0.021,0.037l-0.045,0.047l-0.041,0.037l0.022,0.016l0.009,0.034l0.01,0.026l0.019,0.039l0.035,0.022l0.02,0.007
			l0.014,0.038l-0.005,0.022l-0.009,0.031v0.026v0.058l-0.045,0.045v0.047l-0.019,0.037l-0.041,0.039l-0.07,0.037l-0.104,0.047
			l-0.111,0.025l-0.059,0.004h-0.041l-0.039,0.006l-0.048,0.146l-0.062,0.154l0.005,0.094l0.013,0.078l0.062,0.107l0.045,0.133
			l-0.025,0.064l-0.062,0.209l0.011,0.098l0.028,0.24l0.021,0.033l0.056,0.054l0.114,0.067l0.06,0.018l0.112,0.031l0.083,0.039
			l0.062,0.044l0.068,0.097l0.1,0.075l0.06,0.024l0.129,0.035l0.084,0.041l0.08,0.064l0.109,0.07l0.146,0.006l0.124-0.057
			l0.139-0.062l0.107,0.014l0.148,0.071l0.087,0.097l0.084,0.078l0.021,0.109l0.168-0.062l0.257,0.067l0.141,0.041l0.123,0.06
			l0.09,0.041l0.142,0.08l0.063,0.076l0.062,0.082l0.111,0.119l0.063,0.062l0.047,0.068l0.07,0.085l0.095,0.085l0.088,0.081
			l0.099,0.067l0.059,0.031l0.096,0.018l0.062-0.001l0.278-0.015l0.097,0.014l0.116,0.023l0.062-0.004l0.086,0.051l0.127,0.104
			l0.09,0.086l0.141,0.081l0.059,0.034l0.065,0.019l0.224,0.03l0.108,0.041l0.054,0.006l0.157,0.093l0.155,0.149l0.09,0.062
			l0.148,0.18l0.088,0.113l0.088,0.125l0.102,0.158l0.074,0.143l0.078,0.134l0.073,0.104l0.041,0.03l0.167,0.007l0.037,0.075
			l-0.004,0.187l-0.013,0.082l-0.04,0.145l0.01,0.098l0.028,0.121l0.062,0.102l0.056,0.072l0.084,0.058l0.037,0.034l0.086,0.056
			l0.052,0.026l0.068,0.047l0.076,0.037l0.096,0.053l0.057,0.072l0.095,0.134l0.009,0.092l-0.012,0.05l-0.074,0.061l-0.195-0.002
			l-0.039,0.041l-0.021,0.056l-0.007,0.069l-0.09,0.082v0.052l-0.018,0.045l0.065,0.164l0.123,0.001l0.091,0.021h0.119l0.194-0.033
			l0.082,0.015l0.104,0.06l0.28,0.188l0.137,0.072l0.049,0.027h0.047l0.1-0.041l0.095-0.056l0.104,0.011l0.05,0.059l0.078,0.105
			l0.061,0.07l0.05,0.021l0.062,0.006l0.09,0.028l0.042,0.031l0.102,0.058l0.056,0.016l0.089,0.016l0.086,0.021l0.168,0.05
			l0.203,0.157l0.226,0.121l0.072,0.065l0.103,0.065l0.086,0.037l0.023,0.066l0.027,0.018l0.108,0.012l0.051,0.018l0.021,0.043
			l0.065,0.055h0.028l0.136-0.014l0.079-0.025l0.078-0.03l0.103,0.065l0.027,0.037l0.033,0.016l0.068,0.031l0.102,0.031l0.029,0.029
			l0.123,0.072l0.07,0.064l0.07,0.062l0.061,0.056l0.104,0.03l0.137-0.006l0.174,0.086l0.157,0.062l0.161,0.038l0.121,0.006
			l0.155-0.039l0.115,0.062l0.161,0.024l0.128-0.023l0.122-0.021l0.118,0.021l0.037,0.027l0.002,0.051l0.007,0.041l-0.017,0.047
			l-0.04,0.051l-0.069,0.082l-0.057,0.084l0.002,0.038l0.086,0.042l0.065,0.145l-0.029,0.09l0.015,0.043l0.002,0.086l0.108,0.23
			l0.054,0.34l0.079,0.354l0.109,0.394l0.12,0.438l0.071,0.275l0.048,0.164l0.055,0.184l0.049,0.17l-0.051,0.068l-0.23,0.152
			l-0.154,0.109l-0.372,0.255l-0.136,0.088l-0.086,0.237l0.045,0.041L24,108.523l0.055,0.039l0.025,0.056l0.055,0.011l0.037,0.034
			l0.067,0.007l0.019,0.064l0.027,0.051l0.066,0.01l0.059,0.004l0.041,0.023l0.048-0.009l0.097-0.017l0.144-0.045l0.119-0.012
			l0.11,0.016l0.166-0.06l0.089-0.046l0.095,0.018l0.106,0.035l0.127,0.025l0.118,0.037l0.104,0.027l0.046,0.028l0.062-0.013
			l0.071,0.017l0.062,0.002l0.128,0.002l0.065-0.014l0.048,0.019l0.018,0.022l0.029,0.048l0.041,0.018l0.013,0.012l0.021,0.02
			l0.005,0.035l-0.149-0.031l-0.033,0.034l0.083,0.039l0.13,0.062l0.149,0.022l0.158,0.007l0.111,0.01l0.068,0.025l0.03,0.012
			l0.029,0.023l0.078,0.059l0.143,0.133l0.045,0.039l0.062,0.055l0.059,0.035h0.058l0.127,0.025l0.096,0.008l0.094,0.035l0.048,0.02
			l0.065,0.025l0.093,0.035l0.093,0.068l0.004,0.041l0.015,0.041l0.029,0.023l-0.04,0.033l0.011,0.077l0.022,0.063l0.019,0.053
			l0.043,0.055l0.007,0.068l-0.016,0.121l-0.026,0.078l-0.022,0.07l-0.024,0.086l-0.02,0.067l-0.024,0.079l-0.033,0.093l0.014,0.083
			l0.015,0.09l0.016,0.066l0.039,0.062l0.023,0.095l0.021,0.049l0.019,0.074l0.025,0.057l0.056,0.103l0.052,0.033l0.089,0.106
			l0.095,0.092l0.028,0.084l0.08,0.199l0.072,0.109l0.093,0.116l0.072,0.078l0.041,0.044l0.062,0.066l0.074,0.101l0.049,0.11
			l0.046,0.07l0.017,0.059l0.041,0.078l0.011,0.049l0.025,0.037l0.021,0.086l0.014,0.105l0.026,0.078l0.059,0.162l0.074,0.211
			l0.03,0.049l0.022,0.061v0.062l0.024,0.073l0.058,0.146h0.004h0.312l0.3,0.057l0.073,0.171l0.11,0.258l0.492,0.25l0.075,0.11
			l0.953,0.531l0.372,0.248l0.826,0.547l0.401-0.164l1.075-0.438l0.111-0.005l0.158-0.009l0.036,0.014l0.195,0.079l0.053-0.013
			l0.568-0.133l0.855-0.035l0.751-0.83l0.363-0.592l-0.171-0.746l-0.009-0.041l0.009-0.086l0.022-0.215l0.141-0.17l0.025-0.029
			l0.809-0.213l0.53-0.278l0.274-0.146l0.602-0.056l0.071-0.006l0.14,0.526l-0.241,0.728l-0.24,0.471l-0.046,0.087l-0.411,0.604
			l-0.346,0.504l-0.08,0.119l0.012,0.064l0.01,0.067l-0.151,0.212l-0.104,0.145l-0.488,1.514l0.169,1.078l0.329,0.5l0.298,0.223
			l0.006,0.01l0.245,0.358l0.026,0.243l0.011,0.1l-0.291,0.501l-0.173,0.138l-0.274,0.219l-0.382,0.477l-0.181,0.379l-0.112,0.237
			l0.011,0.147l0.034,0.479l0.197,1l0.128,0.345L38,123.6l0.316,0.287l0.054,0.049l0.027,0.025l0.048,0.034l0.724,0.517l0.022,0.08
			l0.082,0.277l-0.16,0.59l0.055,0.29l0.036,0.192l0.118,0.236l0.104,0.209l0.484,0.338l0.943,0.134l0.934,0.01l0.111,0.062
			l0.06,0.035l0.202-0.016l0.228-0.016l0.14-0.094l0.851-0.041l0.707-0.037l0.818-0.498l0.373-0.002l0.324-0.004l0.385,0.064
			l0.49,0.083l0.212,0.133l0.629,0.159l0.259,0.158l0.098,0.143l0.221,0.318l0.021,0.029l0.359,0.162l1.017-0.088l0.317,0.021
			l0.077,0.007l0.133,0.091l0.28,0.193l0.106,0.133l0.114,0.143l0.413,0.043l0.209,0.021l0.161,0.081l0.223,0.109l0.259,0.008
			l0.209-0.045l0.146-0.029l0.134-0.105l0.37-0.293l0.058-0.156l0.006-0.017l0.054-0.065l0.137-0.172l0.234-0.297l0.385-0.365
			l0.018-0.017l0.363-0.265l0.039-0.002l0.229-0.012l1.028,0.418l0.424-0.039l0.458,0.121l0.646,0.59l0.354,0.449l0.127,0.043
			l0.377,0.426l0.021,0.021l0.063,0.072l0.292,0.845l0.479,0.272l0.34,0.051l0.23-0.057l0.3-0.073l0.795-0.371l0.055,0.006
			l0.318,0.034l0.159,0.193l0.129,0.604l0.198,0.125l0.782,0.078l0.199,0.02l0.232,0.023l0.086,0.009l0.05,0.03l0.184,0.111
			l0.672,0.655l1.123,0.529l0.118,0.132l0.243,0.271l0.932,0.529l0.251,0.172l0.536,0.373l0.047,0.067l0.101,0.146l0.354-0.072
			l0.809,0.035l0.229-0.023l0.797,0.059l0.797,0.125l0.683-0.08l0.184-0.08l0.658-0.15l0.911-0.369l0.415-0.093l0.209-0.022
			l0.541,0.092l0.149,0.092l0.231,0.3l0.021,0.22l-0.092,0.184l-0.854,1.039l-0.095,0.162l-0.067,0.231l0.021,0.394l0.07,0.207
			l0.185,0.266l0.149,0.127l0.185,0.092l0.255,0.059l0.209-0.023l0.426-0.116l0.52-0.3l0.22-0.289l0.185-0.658l-0.021-0.195
			l0.033-0.219l-0.012-0.232l-0.057-0.172l-0.047-0.371l0.022-0.461l0.085-0.213l0.67-0.44l0.319-0.334l0.105-0.183l0.167-0.152
			l0.616-0.42l0.425-0.242l0.253-0.139l0.525-0.213l0.297-0.106l0.988-0.244l0.562-0.022l1.056,0.078l0.3-0.01l0.272-0.105
			l0.214-0.137l0.113-0.184l0.16-0.167l0.646-0.388l0.113-0.184l0.214-0.145l0.229-0.358l0.031-0.213l-0.055-0.259l0.03-0.229
			l0.441-0.256l0.67-0.164l0.577-0.189l0.197-0.152l1.994-0.936l0.162-0.162l0.127-0.188l0.068-0.191l0.221-0.387l0.562-0.449
			l0.42-0.274l0.159-0.159l0.113-0.175l0.022-0.222l-0.106-0.516l0.038-0.222l0.268-0.579l0.242-0.357l0.148-0.158l0.209-0.139
			l0.738-0.356l0.196-0.152l0.474-0.198l0.172-0.008l0.173-0.369l0.092-0.461l0.013-0.221l-0.14-0.357l-0.021-0.15l-0.186-0.311
			l-0.301-0.683l-0.021-0.173l-0.023-0.219l0.035-0.219l0.335-0.543l0.172-0.115l0.082-0.14l0.287-0.276l0.082-0.139l0.138-0.127
			l0.081-0.242l0.012-0.207l-0.035-0.186l-0.139-0.335l-0.438-0.589l-0.059-0.161l-0.381-0.636l-0.322-0.426l-0.08-0.162
			l-0.358-0.416l-0.889-0.703l-0.449-0.404l-0.589-0.438l-0.186-0.092l-0.415-0.404l-0.149-0.312l-0.046-0.195l0.011-0.22
			l0.07-0.241l0.091-0.209l0.028-0.043l0.181-0.269l0.393-0.392l0.357-0.174l0.553-0.184l0.486-0.094l0.75,0.035l0.438,0.149
			l0.646,0.276l0.416,0.127l0.577,0.301l0.438,0.162l0.254,0.059l0.484,0.01l0.428-0.068l0.219-0.094l0.521-0.276l0.715-0.61
			l0.438-0.301l0.149-0.186l0.3-0.196l0.312-0.276l1.257-0.785l0.555-0.301l0.139-0.127l0.161-0.068l0.357-0.23l0.104-0.104
			l0.971-0.601l0.3-0.254l0.334-0.208l0.509-0.242l0.483-0.105l0.913-0.057l0.265,0.033l0.762-0.011l0.45-0.07l0.565-0.219
			l0.404-0.45l0.265-0.208l0.67-0.403l0.3-0.254l0.657-0.381l0.416-0.359l0.174-0.092l0.114-0.185l0.404-0.403l0.149-0.209
			l1.188-1.154l0.16-0.104l0.115-0.15l0.348-0.254l0.449-0.254l0.763-0.334l0.474-0.301l0.473-0.381l0.798-0.496l0.195-0.059
			l0.126-0.104l0.242-0.033l0.566-0.197l0.737-0.045l1.062,0.068l1.466-0.046l0.808,0.069l0.242-0.023l0.521,0.023l1.107,0.15
			l0.623,0.254l0.657,0.657l0.335,0.208l0.219,0.081l0.289,0.046l0.267,0.012l1.038-0.276l0.186-0.022l1.396-0.474l0.324-0.149
			l0.692-0.104l0.265,0.011l0.277,0.069l0.009,0.003l0.868,0.285l0.716,0.197l0.277,0.254l0.312,1.072l0.253,0.473l0.335,0.416
			l0.657,0.484l0.37,0.196l0.6,0.254l0.924,0.302l0.797,0.127l0.657,0.241l0.196,0.288l0.346,1.072l0.14,0.324l0.022,0.172
			l0.127,0.382l0.104,0.116l0.08,0.172l0.347,0.451l0.277,0.23l0.521,0.312l0.507,0.369l0.357,0.139l0.173,0.127l0.242,0.104
			l0.15,0.127l0.139,0.059l1.025,0.681l0.197,0.081l0.139,0.116l0.899,0.519l0.219,0.081l0.14,0.115l0.555,0.3l0.415,0.15
			l0.819,0.414l0.462,0.14l0.16,0.093l0.439,0.139l1.453,0.588l0.185,0.104l0.255,0.059l0.242,0.104l0.22,0.034l0.115,0.041
			l1.407,0.491l0.254,0.058l0.428,0.185l1.003,0.242l1.098,0.174l0.577,0.058l0.727-0.022l2.055-0.197l0.784,0.115l0.683,0.267
			l0.229,0.034l0.254,0.035l0.428-0.117l0.16-0.068l0.623-0.496l0.521-0.542l0.244-0.358l0.771-0.795l0.346-0.15l0.428-0.081
			l2.366,0.139l0.728-0.012l0.692-0.127l0.542-0.22l0.623-0.473l0.393-0.381l0.289-0.23l0.288-0.301l0.138-0.08l0.255-0.276
			l0.242-0.335l0.254-0.231l0.53-0.588l0.439-0.427l0.276-0.17l0.402-0.176l0.451-0.059l0.605,0.04l0.167,0.156l0.23,0.381
			l0.3,0.958l0.081,0.173l0.173,0.577l0.081,0.555v0.368l0.184,0.831l0.162,0.208l1.051,1.039l0.186,0.243l0.669,1.084l0.393,0.473
			l0.254,0.221l0.484,0.275l0.22,0.196l0.15,0.185l0.149,0.221l0.266,0.576l0.174,0.473l0.126,0.197l0.173,0.172l0.197,0.035
			l0.23-0.012l0.206,0.104l0.094,0.174l0.093,0.402l0.011,0.635l-0.139,0.22l-0.173,0.185l-0.081,0.186l-0.034,0.208l0.023,0.185
			l0.173,0.196l0.322,0.196l0.646,0.299l0.704,0.542l0.355,0.358l0.439,0.635l0.531,0.646l0.207,0.173l0.23,0.104l0.404,0.034
			l0.207-0.068l0.22-0.15l0.415-0.369l0.242-0.162l0.243-0.127l0.286-0.092l0.243-0.045l0.623,0.195l0.521-0.012l0.275-0.08
			l0.37-0.357l0.253-0.023l0.323,0.381l0.243,0.138l0.275,0.013l0.256-0.035l0.207-0.186l-0.023-1.177l0.104-0.173l0.23-0.162
			l0.22-0.115l0.277-0.068l0.265,0.021l0.288,0.115l1.108,0.728l0.229,0.069l0.288,0.023l0.277-0.023l0.3-0.092l0.231-0.139
			l0.195-0.185l0.253-0.392l0.175-0.381l0.161-0.162l0.242-0.149l0.428-0.104l0.23-0.011l0.473,0.045l0.394-0.229l0.162-0.231
			l0.46-0.819l0.162-0.172l0.208-0.14l0.462-0.127l0.474-0.058l1.304-0.277l0.484-0.012l0.242,0.138l0.127,0.231l0.058,0.658
			l0.37,0.622l0.058,0.162l-0.047,0.276l-0.242,0.428l-0.414,0.958l-0.081,0.381l-0.013,0.438l0.094,0.427l0.092,0.185l0.195,0.209
			l0.463,0.127l0.114,0.172l-0.034,0.185l-0.45,0.254l-3.034,1.36l-0.268,0.15l-0.241,0.186l-0.174,0.185l-0.229,0.521l-0.104,0.97
			l-0.114,0.646l-0.323,0.959l-0.185,0.393l-0.059,0.195l0.07,0.381l0.161,0.185l1.27,0.89l0.403,0.058l0.23-0.185l0.115-0.186
			l0.288-0.818l0.277-0.382l0.438-0.289l0.474-0.161l0.148-0.174l0.208-0.588l0.151-0.162l0.427-0.312l0.229-0.299l-0.121-0.142
			l-0.123-0.354l0.036-0.213l0.305-0.264l0.19-0.246l0.095-0.166l0.019-0.082l0.191-0.164l0.151-0.183l0.226-0.149l0.583-0.119
			l0.433-0.055l0.065-0.023l0.207-0.116l0.075-0.033l0.267-0.071l0.057-0.004h0.316l0.104,0.032l0.309,0.06l0.712-0.299l0.362-0.396
			l0.418-0.658l0.386-0.085l0.405-0.021l0.302,0.086l0.162-0.203l0.364-0.217l0.35,0.096l0.498-0.029l0.09-0.124l-0.017-0.586
			l0.138-0.056l1.22,0.224l0.045-0.003l0.61-0.082l0.249-0.23l0.229-0.166l0.325-0.346l0.404-0.232l0.441-0.133l0.293-0.07
			l0.072-0.107l0.4-0.793l0.52,0.021l0.076-0.043l0.055-0.021l0.399-0.214l0.245-0.386l0.221-0.196l0.405-0.161l0.101-0.014
			l0.279,0.048l0.113,0.46l0.06,0.16l0.078,0.167l0.003,0.294l-0.057,0.262l-0.075,0.246l-0.036,0.195l-0.055,0.229l0.114,0.18
			l0.157,0.262l0.391,0.357l0.526,0.569l0.217,0.292l0.213,0.294l-0.005,0.497l-0.144,0.289l-0.172,0.197l-0.227,0.27l-0.194,0.258
			l-0.134,0.328l0.192,0.813l0.222,0.384l0.456,1.332l-0.036,0.311l0.084,0.613l0.291,0.268l0.253,0.293l0.255,0.481l0.092,0.173
			l0.104,0.252l0.174,0.363l0.236,0.264l0.213,0.131l0.354,0.096l0.256,0.214l0.188,0.214l0.23,0.206l0.463,0.047l0.271-0.001
			l0.198,0.037l0.188,0.087l0.215,0.267l0.222,0.129l0.248,0.15l0.4,0.075l0.175,0.163l0.04,0.294l0.002,0.181l0.194,0.243
			l0.329,0.195l0.545,0.255l0.084,0.062l0.656,0.347l0.516,0.401l0.061,0.045l0.363,0.236l0.154-0.018l0.035-0.295l0.097-0.195
			l0.323-0.525l0.269-0.377l0.596-0.377l0.515-0.064l0.203-0.004l0.22-0.002l0.436-0.062l0.629-0.115l0.045-0.002l0.521,0.021
			l0.082,0.034l0.046,0.007l0.431,0.188l0.153,0.104l0.289,0.113l0.441,0.014l0.116-0.211l-0.021-0.409l-0.021-0.36l0.21-0.435
			l0.636-0.509l-0.002-0.393l-0.14-0.672l0.026-0.333l0.355-0.55l0.211-0.377l0.375-0.186l0.382-0.287l0.282-0.201l0.289-0.049
			l0.521-0.149l0.227-0.233l0.119-0.209l0.096-0.328l0.231-0.017l0.251,0.048l0.193,0.032l0.135,0.049l0.193,0.033l0.097,0.03
			l0.091-0.016l0.141-0.179l0.038-0.181l0.136-0.131l0.191,0.033l0.312,0.129l0.25,0.082l0.279-0.127l0.163-0.17l0.168-0.265
			l0.062-0.159l0.193-0.1l0.097-0.098l0.135-0.115l0.173-0.196l0.02-0.384l-0.158-0.35l0.138-0.191l0.173-0.262l0.251-0.262
			l0.481-0.77l0.44-0.006l0.059-0.078l-0.057-0.407l-0.154-0.294l-0.175-0.295l-0.034-0.608l-0.281-0.298l-0.312-0.262l-0.243-0.416
			l-0.118-0.197l-0.139-0.523l0.116-0.246l0.388-0.146l0.135-0.18l-0.138-0.541l0.097-0.327l0.344-0.142l0.275-0.219l-0.04-0.294
			l-0.252-0.343l-0.328-0.557l-0.119-0.178l-0.18-0.367l-0.147-0.494l-0.056-0.154l-0.474-0.309l-0.367-0.033l-0.657,0.133h-0.427
			l-0.098-0.229l0.001-0.474l0.055-0.265l0.174-0.424l0.037-0.36l0.012-1.209l0.099-0.673l-0.06-0.541l-0.08-0.371l0.018-0.213
			l0.855-1.592l0.018-0.215l-0.136-0.273L228.445,107l-0.792-0.34l-0.205-0.02l-0.112-0.027l-0.068-0.047l-0.012-0.047l-0.023-0.086
			l0.009-0.144l-0.045-0.038l-0.057-0.027l-0.297-0.236l-0.25-0.16l-0.294-0.025l-0.087-0.004l-0.062,0.014l-0.067-0.055
			l-0.046-0.076l-0.014-0.096v-0.037L226,105.415l-0.013-0.047l-0.058-0.134l-0.023-0.037l-0.239-0.207l-0.034-0.038l-0.158-0.084
			l-1.023-3.815l-0.131-0.693l0.019-0.293l0.09-0.354l0.146-0.461l0.364-0.513l0.165-0.154l0.148-0.242l-0.062-0.262l-0.128-0.275
			l-0.223-0.218l-0.13-0.077l-0.052-0.057l-0.58-0.368l-0.561,0.03l-0.46-0.199l-0.54-0.416l-0.293-0.229l-0.409-0.194l-0.294-0.326
			l0.03-0.257l0.085-0.152l0.368-0.295l-0.06-0.113l-0.358-0.051l-0.239-0.16l-0.504-0.185l-0.061-0.026l-0.249-0.14l-0.286-0.285
			l-0.101-0.556l-0.044-0.833l0.02-0.147l-0.039-0.146l-0.178-0.195l-0.276-0.249l-0.173-0.157l-0.177-0.027l-0.057,0.002
			l-0.236-0.072l-0.896,0.086l-0.487-0.113l-0.372-0.275l-0.26-0.422l-0.116-0.328l-0.135-0.584L216.45,89.6l-0.417-0.146
			l-0.479-0.293l-0.338-0.348l-0.819-0.572l-0.161-0.146l-0.24-0.012l-0.622-0.064l-0.479-0.084l-0.081-0.016l-0.501-0.135
			l-0.13-0.051l-0.22-0.164l-0.162-0.213l-0.034-0.361l-0.146-0.334l-0.295-0.189l-0.188-0.184l-0.178-0.309l-0.035-0.36
			l-0.003-0.376l-0.193-0.2l-0.579-0.372l-1.108-1.003l-0.446-0.506l-0.575-0.677l-0.207-0.229l-0.134-0.319l0.014-0.254l0.028-0.47
			l0.313-0.806l0.33-0.659l0.078-0.134l0.016-0.188l-0.245-0.033l-0.773,0.065l-0.375,0.002l-0.448-0.091l-0.422-0.398l-0.322-0.334
			l-0.162-0.201l-0.26-0.379l0.011-0.551l0.28-0.367l0.22-0.125l0.271-0.176l2.482-1.611l0.03-0.02l0.686-0.521l-0.115-0.307
			l-0.243-0.415l-0.187-0.276l-0.132-0.323l-0.091-0.322l-0.133-0.334l-0.052-0.321l0.125-0.498l0.223-0.838l0.05-0.648
			l-0.146-0.779l-0.196-0.348l-0.115-0.481l0.062-0.228l0.226-0.216l0.094-0.202l-0.001-0.134l0.015-0.188l-0.034-0.241l-0.109-0.12
			l-0.552-0.171l-0.377-0.132l-0.24-0.137l0.106-0.401l0.034-0.533l0.029-0.308l0.062-0.202l0.138-0.833l0.095-0.309l-0.067-0.321
			l-0.229-0.333l-0.371-0.213l-0.373-0.199l-0.452-0.238l-0.162-0.146l-0.162-0.093l-0.339-0.052l-0.193-0.012l-0.176,0.028
			l-0.42-0.091l-0.21-0.119l-0.275-0.105l-0.273-0.105l-0.146-0.214l-0.004-0.349l0.015-0.282l0.352-0.337l0.082-0.114l0.092-0.168
			l-0.082-0.188l-0.212-0.199l0.062-0.242l0.062-0.255l0.24-0.148l0.322,0.024l0.248,0.215l0.168,0.123l0.167-0.046l0.208-0.189
			l0.34-0.115l0.545,0.036l0.5-0.003l0.388-0.011l0.552-0.121l0.285-0.188l0.056-0.031l0.043-0.031l0.138-0.16l0.031-0.04
			l0.226-0.206l0.512-0.425l0.288-0.364l0.218-0.201l0.359-0.205l0.242,0.053l0.227,0.119l0.228,0.133l0.429,0.173l0.196,0.008
			l0.055-0.041l0.142-0.122l0.137-0.398l0.167-0.109l0.242,0.025l0.209-0.041l0.214-0.404l0.054-0.185l0.146-0.216l0.206-0.111
			l0.291,0.042l0.196,0.293l0.162,0.173l0.243,0.106l0.55,0.238l0.161,0.013l0.271-0.132l0.259-0.205l0.127-0.188l0.047-0.228
			l0.062-0.496l0.03-0.309l0.08-0.134l0.158-0.322l0.168-0.45l0.085-0.408l0.079-0.117l0.161-0.153l0.288-0.282l0.177-0.215
			l0.095-0.389l0.031-0.242l0.174-0.517l0.224-0.457l0.03-0.194l0.063-0.181l0.128-0.302l0.047-0.255l0.015-0.188l-0.064-0.181
			l-0.017-0.066l-0.001-0.247l0.036-0.201l0.074-0.077l0.151-0.143l0.068-0.004l0.42,0.064l1.071,0.157l0.371-0.015l0.291-0.108
			l0.176-0.134l0.253-0.167l0.009-0.039l-0.003-0.038l-0.065-0.154l-0.113-0.093l-0.02-0.096l-0.075-0.037l-0.715-0.187l-0.243-0.08
			l-0.729-0.386l-0.354-0.08l-0.277-0.215l-0.049-0.017l-0.324-0.174l-0.051-0.055l-0.188-0.334l-0.142-0.405l-0.272-0.229
			l-0.242,0.027l-0.229,0.097l-0.241,0.139l-0.319,0.304l-0.289,0.192l-0.271,0.185l-0.16,0.095l-0.186,0.062l-0.042,0.059
			l-0.472,0.129l-0.298-0.03l-0.431-0.245l-0.169-0.23l-0.133-0.323l0.127-0.54l0.018-0.139l-0.287-0.473l-0.062-0.054l-0.362-0.171
			l-0.225-0.146l-0.204-0.053l-0.504-0.06l-0.335-0.09l-0.149-0.061l-0.056-0.133l-0.085-0.053l-0.049-0.026l-0.015-0.038
			L210.74,45.8l-0.052-0.045l-0.071-0.044l-0.455-0.195l-0.048-0.017l-0.317-0.069l-0.082-0.024l-0.143-0.03l-0.171,0.043
			l-0.321,0.042l-0.228-0.039l-0.146-0.026l-0.162-0.066l-0.335-0.244l-0.085-0.052l-0.271-0.215l0.104-0.127l0.129-0.124
			l0.147-0.124l0.058-0.079l0.1-0.062l0.043-0.04l0.028-0.087l0.06-0.127l0.019-0.068l-0.004-0.047l-0.03-0.237l-0.052-0.064
			l-0.23-0.15l-0.06-0.016l-0.784-0.178l-0.345-0.2l-0.049-0.025l-0.049-0.026l-0.196-0.161l-0.038-0.036l-0.005-0.048l-0.05-0.197
			l-0.005-0.057l-0.017-0.066l-0.084-0.363l-0.118-0.095l-0.522-0.12l-0.262-0.091l-0.465-0.121l-0.095-0.023L205,41.645
			l-0.048-0.007l-0.247-0.054l-0.072-0.043l-0.072-0.034l-0.037-0.027l-0.47-0.08l-0.082-0.015l-0.083-0.024l-0.357,0.001
			l-0.095-0.014l-0.058,0.003l-0.597,0.062l-0.048,0.002l-0.08,0.005l-0.275,0.104l-0.407,0.265l-0.24,0.241l-0.256,0.401
			l-0.213,0.231l-0.102,0.042l-0.262-0.052l-0.333-0.143l-0.047-0.007l-0.125-0.117l-0.016-0.047l-0.054-0.236l0.008-0.039
			l-0.059-0.293l0.031-0.556l0.016-0.362l-0.064-0.303l-0.015-0.047l-0.052-0.045l-0.003-0.038l-0.189-0.209l-0.075-0.072
			l-0.104-0.119l-0.062-0.073l-0.134-0.068l-0.048-0.026l-0.05-0.026l-0.269-0.033l-0.279-0.022l-0.116-0.013l-0.069,0.004
			l-0.467-0.042l-0.061-0.016l-0.082-0.014l-0.278,0.031l-0.168-0.014l-0.271-0.028l-0.226,0.083l-0.339,0.137l-0.428,0.158
			l-0.167,0.047l-0.147,0.094l-0.11,0.132l-0.091,0.186l-0.108,0.325l-0.258,0.218l-0.204,0.11l-0.147,0.017l-0.131-0.061
			l-0.084-0.156l-0.017-0.047l-0.092-0.692l-0.008-0.085l0.019-0.059l-0.023-0.447l0.013-0.116l0.014-0.125l-0.142-0.308
			l-0.039-0.055l-0.229-0.102l-0.084-0.034l-0.585-0.206l-0.37-0.132l-0.057,0.003l-0.049-0.016l-0.512-0.028l-0.854,0.059
			l-0.079,0.033l-0.08,0.004l-0.35-0.018l-0.068,0.004l-0.08,0.014l-0.401-0.092l-0.049-0.035l-0.049-0.025l-0.236-0.076
			l-0.242-0.107l-0.061-0.015l-0.094-0.014l-0.416-0.075l-0.742-0.222l-0.168-0.014l-0.244-0.121l-0.197-0.202l-0.086-0.062
			l-0.049-0.026l-0.182-0.219l-0.018-0.075l-0.032-0.103l0.009-0.264l-0.084-0.22l0.022-0.211l0.1-0.254l0.03-0.059l0.007-0.048
			l0.145-0.219l0.124-0.179l0.038-0.098l0.013-0.134l-0.017-0.057l-0.006-0.057l-0.023-0.286l-0.076-0.123l-0.11-0.162l-0.029-0.075
			l-0.017-0.057l-0.123-0.222l-0.062-0.054l-0.245-0.148l-0.151-0.016l-0.394-0.089l-0.355-0.073l-0.617-0.071l-0.256,0.001
			l-0.175-0.074l-0.148-0.206l-0.072-0.225l-0.006-0.375l0.021-0.433l0.091-0.191l0.156-0.334l0.394-0.291l0.267-0.283l0.052-0.089
			l0.043-0.299l0.014-0.249l0.002-0.125l0.007-0.325l-0.015-0.295l0.006-0.22l0.039-0.489l0.113-0.838l0.047-1.178l0.022-0.335
			l-0.017-0.047l-0.294-0.174l-0.376-0.054l-0.434-0.042l-0.061-0.015l-0.138-0.107l-0.016-0.047l0.023-0.164l-0.104-0.481
			l-0.085-0.253l-0.345-0.197l-0.442-0.25l-0.056-0.229l0.015-0.247l0.111-0.093l0.281-0.198l0.232-0.147l0.17-0.186l0.119-0.233
			l0.006-0.191l-0.023-0.247l-0.077-0.261l-0.114-0.138l-0.293-0.177l-0.329-0.118l-0.244-0.028l-0.282-0.043l-0.132-0.045
			l-0.32-0.135l-0.414-0.443l-0.842-1.069l-0.039-0.055l-0.271-0.334l0.081-0.325l0.268-0.172l0.346-0.196l0.305-0.392l0.161-0.269
			l-0.277-0.882l-0.548-0.651l-0.262-0.078l-0.959,0.171l-0.955,0.177l-0.551-0.349l-0.115-0.261l-0.01-1.618l-0.093-1.109
			l-0.093-0.209l-0.252-0.386l-0.614-0.621l-0.412-0.277l-0.417-0.504l-0.109-0.361l-0.009-0.416l0.083-0.671l0.07-0.301
			l0.043-0.771l0.094-1.087l-0.124-1.48l-0.19-0.396l-0.004-0.038l-0.005-0.187l0.032-0.029l0.113-0.07l0.186-0.07l0.229-0.11
			l0.25-0.167l0.286-0.13l0.284-0.187l0.176-0.299l0.143-0.288l0.179-0.155l0.037-0.031l0.452-0.343l0.19-0.232l0.124-0.166
			l0.104-0.038l0.171-0.118l0.25-0.167l0.3-0.073l0.217-0.147l0.17-0.137l0.074-0.221l0.027-0.22l0.003-0.295l0.062-0.239l0.12-0.26
			l0.178-0.261l0.249-0.215l0.271-0.319l0.225-0.262l0.179-0.1l-0.177-0.022l-0.079-0.01l-0.101-0.013l-0.152-0.022l-0.354-0.009
			l-0.302,0.003l-0.207-0.002l-0.265-0.028l-0.318,0.034l-0.357,0.035l-0.562,0.129l-0.168,0.058l-0.117-0.002l-0.422-0.004
			l-0.061-0.006l-0.175-0.005l-0.11,0.155l-0.089,0.294l-0.09,0.248l-0.24,0.28l-0.266-0.074l-0.21-0.197l-0.191-0.179l-0.052-0.055
			l-0.281-0.394l-0.051-0.054l-0.016-0.038l-0.317,0.021l-0.18,0.081l-0.182,0.054l-0.466,0.002l-0.33-0.016l-0.219,0.173
			l-0.17,0.168l-0.288,0.051h-0.277l-0.396-0.164l-0.326-0.213l-0.311-0.206l-0.23-0.05l-0.146,0.113l0.048,0.68l-0.152,0.408
			l-0.323,0.021l-0.351-0.155l-0.244-0.18l-0.261-0.226l-0.462-0.539l-0.217-0.188l-0.285-0.022l-0.291,0.351l-0.451-0.362
			l-0.353-0.169l-0.038-0.035l-0.272-0.251l-0.341-0.305l-0.213-0.164l-0.351,0.213l-0.118,0.304l-0.107,0.539l-0.228,0.073
			l-0.356-0.049l-0.487-0.036L167.2,1.568l-0.301-0.035l-0.173,0.171l-0.164,0.106l-0.396,0.283l-0.227,0.331l-0.063,0.291
			l0.114,0.295l-0.129,0.1l-0.192,0.055l-0.713,0.019l-0.33,0.04l-0.221,0.115l-0.132,0.217L164.25,3.557"/>
	</g>
</g>
<g id="Layer_1">
</g>
</svg>
