<?xml version="1.0" encoding="utf-8"?>
<!-- Generator: Adobe Illustrator 16.0.4, SVG Export Plug-In . SVG Version: 6.00 Build 0)  -->
<!DOCTYPE svg PUBLIC "-//W3C//DTD SVG 1.1//EN" "http://www.w3.org/Graphics/SVG/1.1/DTD/svg11.dtd">
<svg version="1.1" id="Layer_1" xmlns="http://www.w3.org/2000/svg" xmlns:xlink="http://www.w3.org/1999/xlink" x="0px" y="0px"
	 width="301.02px" height="217.512px" viewBox="-133.52 -96.242 301.02 217.512"
	 style="enable-background:new -133.52 -96.242 301.02 217.512;" xml:space="preserve">
<g id="Layer_93">
	<path id="Narowal" style="fill:#CCCCCC;stroke:#FFFFFF;stroke-width:1.15;" d="M-128.01,65.861L-128.01,65.861l0.679,0.937
		l0.575,0.92l0.576,1.564l0.413,3.736l0.18,0.851l0.55,1.839l0.507,1.211l0.937,0.937l1.117,0.542l1.057,0.231l0.799,0.326
		l0.705,0.576l0.705,0.79l0.524,0.867l0.198,0.92l0.352,1.065l0.55,1.203l1.031,0.67l0.636,0.369l0.799,0.3l0.318,0.164l0.146,0.353
		l0.163,0.781l0.189,1.117l0.403,1.632l0.576,1.496l0.567,1.408l0.275,0.507l0.541,0.438l0.49,0.378l0.799,0.309l0.549,0.37
		l0.481,0.301l0.292,0.567l0.575,2.113l0.12,0.773l0.413,0.488l0.808,0.182l1.065-0.026l2.062-0.335l1.16-0.163l1.048,0.231
		l0.284,0.79l0.249,0.92l-0.051,0.919l0.206,0.636l1.641,1.529l1.194,0.67l1.22,0.895l0.851,1.014l0.438,0.979l0.516,1.496
		l0.189,0.91l0.206,0.619l0.266,0.36l1.47,0.274l1.795,0.069l1.254,0.188l0.258,0.637l0.292,2.026l0.18,1.925l0.928,1.375
		l2.715-1.719l0.403-1.263l0.232-0.825l1.538-10.009l2.002,0.053l1.151,0.033l0.181,0.31l3.059,5.361l2.637,1.375l0.919,0.48
		l9.322,0.31l8.273-1.212l5.026-1.623l2.251-1.049l0.894-0.773l0.335-0.309l0.49-0.894l0.636-1.143l4.21-8.85l0.36-1.229l0.43-1.349
		l2.345-4.382l0.25-0.507l2.345-0.206l3.351-0.326l0.292-0.378l1.065-1.357l5.834-3.986l4.527-3.094l0.911-0.602l6.873-5.592
		l3.102-2.449l0.636-0.412l3.419-2.147l4.519-1.478l5.043,0.344l2.724,0.841l2.405,0.739l2.114,1.606l7.577,5.713l0.086,0.044
		l0.112,0.077l0.017,0.009l4.013,2.19h0.18h0.189h0.18l1.65-0.018h0.181l2.053-0.602l0.396-0.274l4.157-2.887l2.905-0.55
		l5.438,0.498l0.61-0.249l1.203-0.508l8.324-7.877l2.93,2.543l0.404,0.077l1.684,0.327l3.119-1.745l5.489-0.249l0.009-0.017
		l0.026-0.018l0.025-0.017l0.017-0.019l5.68-5.068l9.234,2.741l7.295,0.231l6.409-4.227l1.778-1.178l2.045-3.264l0.456-0.713
		l0.025-2.191l0.042-2.759l1.315-3.744l1.349-0.688l0.919-0.48l0.154-0.069l0.069-0.025l0.086-0.043l3.884,2.405l0.188,0.412
		l0.644,1.659l-0.541,5.808l0.929,1.443l0.575,0.911l2.062,0.076l1.649-0.79L109.824,56l11.994-9.356l0.996-2.226l0.31-2.027
		l0.575-3.952l0.181-0.197l2.02-2.337l1.718-0.833l3.986-1.908l3.849-1.821l1.762-1.657l1.289-4.253l-0.198-8.037l0.524-0.748
		l1.563-2.358l11.676-3.802l2.044-1.018l1.314-0.644l3.952-2.938l0.018-0.494l0.025-1.276l0.181-8.557l2.388-3.123l-0.258-0.924
		l-0.128-0.477l-0.541-0.782l-0.979-1.499l-0.55-0.288l-1.091-0.562l-5.929-0.241l-2.389-3.578l-1.194-0.563l-2.302-1.125
		l-0.653-1.276l-0.688-1.345l-0.231-1.199l-0.447-1.963l0.55-4.158l0.327-2.5l-0.997-1.461l-0.876-1.284l-0.421-0.588l-4.709-3.282
		l-2.207-1.52l-8.223-4.657l-2.122-2.384l-1.03-1.16l-9.88-4.656l-5.919-5.761l-1.65-0.984l-0.438-0.266l-0.747-0.078l-2.019-0.202
		l-1.744-0.176l-6.874-0.688l-1.752-1.1l-1.151-5.313l-1.4-1.697L88.56-67.6l-0.507-0.052l-7.002,3.261l-2.638,0.644l-2.02,0.503
		l-3.006-0.451l-4.21-2.393l-2.56-7.432l-0.567-0.636L65.88-74.34l-3.325-3.754l-1.116-0.369l-3.119-3.961l-5.688-5.181
		l-4.029-1.074l-3.737,0.352l-9.029-3.677l-2.019,0.094l-0.344,0.017l-3.18,2.333l-0.18,0.151l-3.386,3.213l-2.045,2.603
		l-1.22,1.512l-0.463,0.58l-0.061,0.15l-0.541,1.375l-3.248,2.569l-1.186,0.932l-1.289,0.262l-1.83,0.387l-2.285-0.06l-1.985-0.971
		l-1.417-0.708l-1.838-0.185l-3.634-0.378l-0.971-1.25L1.78-80.551l-2.466-1.697l-1.271,7.788l0.043,3.273l-0.301,2.26l-1.014,2.689
		l-0.704,2.006l-0.86,1.292l-1.306,1.216l-1.28,1.091l-1.314,0.713l-0.567,0.335l-0.876,0.657l-0.791,1.25l-1.246,1.619
		l-0.756,0.933l-0.73,0.695l-0.919,0.537l-1.237,0.455l-0.765,0.116l-0.919,0.043l-1.607-0.077l-1.383-0.193l-0.49-0.241
		l-0.481,0.039l-0.37,0.168l-0.489,0.313l-0.361,0.468l-0.515,0.679l-0.223,0.782l0.18,0.705l0.189,0.253l0.43,0.36l0.387,0.142
		l0.189,0.193l0.052,0.271l-0.078,0.571l-0.524,2.607l-0.137,0.481l-0.197,0.176l-0.542,0.064l-1.263-0.064l-0.765,0.056
		l-0.765,0.137l-0.472,0.159l-0.189,0.262l0.009,0.4l0.155,0.403l0.567,0.52l0.566,0.335l0.181,0.253v0.37l-0.438,1.379l-0.524,1.77
		l-0.748,2.895l-0.593,2.139l-0.669,1.765l-0.456,1.813l-0.292,0.503l-0.292,0.043l-0.387-0.051l-0.352-0.194l-0.421-0.09
		l-0.404,0.034l-0.361,0.107l-0.542,0.185l-0.507,0.369l-0.463,0.396l-0.146,0.334l-0.077,0.545l0.343,0.722l0.55,0.606l0.808,0.554
		l0.353,0.662l0.094,0.679L-31.013-25l-0.155,0.271l-0.292,0.318l-0.197,0.386l-0.034,0.481l-0.061,0.335l-0.197,0.202l-0.447,0.099
		h-0.636l-1.186-0.185l-1.203-0.309l-1.237-0.279l-1.014-0.15l-0.274-0.009l-0.696,0.185h-0.645l-0.43-0.09l-0.378-0.263
		l-0.258-0.352l-0.343-0.167l-0.301-0.052l-0.369,0.017l-0.55,0.245l-0.267,0.228l-0.292,0.353l-0.181,0.451l-0.034,0.335
		l0.095,0.404l0.412,0.528l0.181,0.498l0.189,0.898l0.069,1.139l-0.035,0.369l-0.129,0.146l-0.601,0.099l-0.55-0.125l-0.412-0.327
		l-0.421-0.262l-0.188-0.142l-0.447,0.008l-0.283,0.043l-0.267,0.142l-0.455,0.434l-0.438,0.498l-0.73,0.696l-0.576,0.46
		l-0.601,0.27l-0.499,0.069l-0.791-0.069l-0.704-0.279l-0.335-0.326l-0.464-0.413l-0.378-0.327l-0.885-0.442l-0.704-0.245
		l-0.662-0.133l-1.959-0.103l-1.185-0.185l-0.919-0.352l-0.55-0.37l-0.3-0.326l-0.301-0.018l-0.327,0.193l-0.223,0.266l-0.198,0.323
		l-0.189,0.107l-0.223-0.008l-0.396-0.116l-0.344,0.008l-0.387,0.194l-0.352,0.317l-0.413,0.739l-0.532,0.949l-0.542,0.653
		l-0.18,0.413l-0.129,0.511l0.078,0.58l0.197,0.378l0.49,0.571l0.55,0.67l0.404,0.851l0.18,0.679v0.485l-0.077,0.37l-0.335,0.352
		l-0.713,0.387l-0.876,0.378l-0.386,0.288l-0.207,0.197l-0.146,0.146l0.009,0.434l0.267,1.327l0.111,1.963l0.146,0.833l-0.052,0.274
		l-0.231,0.262l-0.49,0.219l-0.644,0.056l-0.559-0.064l-1.005-0.228l-0.344-0.176l-0.559-0.21l-0.352-0.017l-0.301,0.167
		l-0.249,0.133l-0.292,0.533l-0.146,0.545l0.241,0.777l0.111,0.438l-0.111,0.447l-0.55,1.499l-0.885,1.478l-0.559,1.194
		l-0.936,1.293l-0.705,0.73l-0.765,0.563l-0.197,0.511l-0.077,1.186l0.197,1.147l0.361,1.026l0.894,1.208l1.4,1.577l1.478,1.624
		l1.04,1.56l1.366,1.873l0.782,1.172l0.361,0.962l0.078,0.585l-0.189,0.516l-0.661,0.705l-0.524,0.48l-0.094,0.24l0.077,0.413
		l0.181,0.43l-0.035,0.97l-0.086,1.16l-0.283,1.289l-0.481,1.873l-0.438,2.122l-0.387,0.858l-0.378,0.353l-0.473,0.293l-0.636,0.086
		l-0.825-0.146l-0.739-0.207l-0.67-0.068l-0.602,0.026l-0.662,0.188l-0.258,0.207l-0.257,0.386l-0.353,0.507l-0.481,0.36
		l-0.515,0.344l-0.524,0.293l-0.516,0.068l-0.679-0.104l-0.833-0.103l-0.412,0.043l-0.396,0.181l-0.618,0.326l-0.542,0.378
		l-0.696,0.688l-0.662,0.618l-0.928,0.318l-0.833-0.009l-0.284,0.077l-0.472,0.369l-0.61,0.645l-0.584,0.283l-0.559,0.112h-1.22
		l-1.168-0.198l-0.55-0.033l-0.37,0.086l-0.464,0.266l-0.387,0.353l-0.679,0.609l-0.636,0.559l-0.876,0.344l-0.713,0.12
		l-0.833-0.103l-1.065-0.197l-1.005-0.267l-0.542-0.035l-0.575,0.138l-0.499,0.206l-0.515,0.344l-0.688,0.704l-1.203,0.911
		l-0.971,0.645l-0.859,0.413l-0.584,0.335l-0.945,0.721l-0.61,0.791l-0.91,1.091l-1.289,1.229l-1.083,1.064l-0.618,0.808
		l-1.289,1.649l-1.727,1.719l-1.255,0.765l-0.97,0.507l-1.633,0.412l-0.507,0.155l-0.55,0.532l-0.352,0.498l0.043,0.438l0.353,0.627
		l0.154,0.609l0.008,0.404l-0.231,0.344l-0.816,1.237l-0.421,0.507l-0.018,0.197l0.052,0.216l0.464,1.279l0.412,1.426l-0.095,1.065
		l-0.188,0.722l-0.25,0.232l-0.447-0.018l-0.369-0.301l-0.456-0.327l-0.653-0.239h-0.627l-0.37,0.239l-0.128,0.164l-0.215,0.249
		l-0.207,0.129l-0.283-0.008l-0.275-0.104l-0.301-0.223l-0.404-0.446l-0.249-0.207l-0.49-0.025l-0.25,0.181l-0.301,0.825l-0.524,1.1
		l-0.446,0.602l-0.885,0.532l-0.799,0.077l-0.387,0.292l-0.636,0.121l-0.481-0.061l-1.186-0.034L-128.01,65.861"/>
</g>
<g id="Layer_1_1_">
</g>
</svg>
