<?xml version="1.0" encoding="utf-8"?>
<!-- Generator: Adobe Illustrator 16.0.4, SVG Export Plug-In . SVG Version: 6.00 Build 0)  -->
<!DOCTYPE svg PUBLIC "-//W3C//DTD SVG 1.1//EN" "http://www.w3.org/Graphics/SVG/1.1/DTD/svg11.dtd">
<svg version="1.1" id="Layer_1" xmlns="http://www.w3.org/2000/svg" xmlns:xlink="http://www.w3.org/1999/xlink" x="0px" y="0px"
	 width="301.955px" height="240.684px" viewBox="-124.208 -99.329 301.955 240.684"
	 style="enable-background:new -124.208 -99.329 301.955 240.684;" xml:space="preserve">
<g id="Layer_11">
	<path id="Attock" style="fill:#CCCCCC;stroke:#FFFFFF;stroke-width:1.15;" d="M-114.9,127.8L-114.9,127.8l0.293,0.824l-0.282,0.994
		l-0.834,0.988l-0.486,0.58l-0.039,0.707l0.243,0.326l1.287,0.055l1.769-0.205l0.955,0.205l1.122,0.592l0.999,0.58l1.227,1.133
		l0.779,0.961l0.812,0.895l0.558,0.348l0.906,0.039l1.812-0.188l0.542-0.1l2.132-0.348l2.657-0.266l2.094-0.453l1.165-0.166
		l0.84-0.117l0.734-0.352l2.006-1.658l1.298-0.861l1.392-0.701l2.387-0.984l2.11-0.828l2.237-0.707l2.436-0.674l1.762-0.254
		l3.895-0.535l3.183-0.354l0.861-0.398l2.209-1.26l3.475-1.971l1.624-1.238l3.055-2.523l2.32-2.184l1.668-1.822l0.729-0.762
		l0.845-0.504l1.066-0.447l0.911-0.066l0.696,0.188l0.359-0.033l0.597-0.297l0.47-0.254l0.646-0.084l0.707,0.039l2.48,0.271
		l1.293,0.336l0.878,0.033l0.547-0.137l1.651-0.619l0.636-0.189l1.271-0.33l2.469-1.139l2.547,0.498l1.762,0.197l1.9,0.09
		l0.724-0.045l0.497-0.033l0.58,0.033l0.514,0.123l0.724,0.186l0.448,0.15l0.707,0.393l0.895,0.646l0.508,0.342l0.349,0.139
		l0.822,0.227l1.624,0.402l0.729,0.088l0.884-0.066l0.945-0.055l1.309-0.133l1.568-0.016l1.387-0.029l1.144,0.023l0.823,0.039
		l0.58,0.109l0.922,0.309l2.066,0.752l0.862,0.227l0.558,0.033l0.591-0.039l0.602-0.043l0.631-0.154l0.43-0.166l0.415-0.332
		l0.348-0.369l0.227-0.537l0.425-0.541l0.575-0.613l0.911-1.16l1.072-1.148l0.823-0.783l0.354-0.588l0.154-0.662l0.027-0.916
		l-0.116-1.029l-0.165-1.928l-0.012-1.264l0.077-0.453l0.105-0.338l0.183-0.148l0.275-0.039l0.349,0.045l0.414,0.232l1.674,0.916
		l1.425,1.006l0.652,0.404l0.354,0.137l0.574,0.145l0.458,0.148l0.542,0.232l0.541,0.359l0.409,0.303l0.668,0.658l0.591,0.514
		l0.476,0.326l0.624,0.17l0.729,0.09l1.011,0.061l1.198,0.01l2.475-0.049l0.967-0.09l0.686-0.121l0.514-0.166l0.32-0.137L17,108.048
		l0.348-0.277l0.232-0.176l0.364-0.051l0.349,0.072l0.354,0.1l1.635,0.828l0.63,0.188l0.591,0.148l0.591,0.289l0.642,0.336
		l0.707,0.139l0.757,0.018l0.999-0.051l0.823-0.1l0.574-0.133l0.818-0.332l0.59-0.318l0.924-0.25l0.899-0.148l1.133-0.082
		l0.939-0.068l0.768-0.137l0.646-0.178l0.591-0.188l0.419-0.166l0.619-0.457l0.873-0.67l0.745-0.469l0.625-0.326l0.646-0.176
		l0.658-0.135l0.464-0.061l0.646-0.043l0.89,0.012l0.668,0.076l0.988,0.1l1.038,0.143l0.448,0.09l1.05,0.121l1.491,0.115l1.204,0.15
		l1.144,0.07l1.116,0.068l0.513,0.064l1.193-0.031l1.63-0.111l1.115-0.188l0.591-0.178l0.808-0.281l0.89-0.271l1.253-0.287
		l0.961-0.154l0.918-0.055l0.602-0.057l1.69,0.078h1.204l1.37-0.139l1.05-0.203l1.198-0.314l0.823-0.338l0.906-0.58l0.701-0.541
		l0.695-0.625l0.31-0.436l0.586-1l0.432-1.01l0.254-0.785l0.463-1.592l0.139-0.574l0.232-0.459l0.403-0.611l0.778-1.123l0.525-0.689
		l0.486-0.498l0.552-0.408l0.585-0.504l2.215-1.949l0.719-0.707l0.84-0.74l0.618-0.441l0.569-0.275l0.514-0.123l0.746,0.033
		l0.585,0.111l0.823,0.275l0.955,0.387l0.448,0.111l0.536,0.033l0.364,0.072l0.613,0.264l0.553,0.359l0.591,0.598l0.718,0.994
		l0.619,0.756l1.005,1.199l0.486,0.459l0.475,0.324l0.608,0.338l0.827,0.348l0.536,0.277l0.448,0.088l0.441-0.033l0.591-0.15
		l0.558-0.082l0.713-0.094l0.796,0.021l0.442,0.145l0.751,0.133l1.061-0.033l0.585-0.057h0.404l0.319,0.078l-0.127-1.426
		l-0.104-1.23l2.242-2.879l0.287-0.723l0.155-1.873l0.585-1.691l0.415-1.031l0.536-0.625l0.248-0.314l0.127-0.293l0.1-0.084
		l0.011-0.088v-0.07l0.017-0.062l0.011-0.049l0.018-0.055l0.021-0.045l0.027-0.055l0.028-0.045l0.038-0.049l0.044-0.057l0.056-0.066
		l0.055-0.066l0.056-0.07l0.061-0.084l0.077-0.088l0.078-0.088l0.065-0.105l0.089-0.1l0.094-0.109l0.083-0.105l0.104-0.1
		l0.089-0.105l0.1-0.1l0.11-0.109l0.094-0.094l0.105-0.105l0.093-0.088l0.106-0.088l0.088-0.102l0.094-0.082l0.088-0.082
		l0.083-0.084l0.078-0.072l0.077-0.076l0.071-0.078l0.078-0.072l0.06-0.064l0.067-0.078l0.055-0.066l0.061-0.072l0.05-0.066
		l0.05-0.066l0.039-0.061l0.039-0.064l0.038-0.078l0.039-0.066l0.027-0.072l0.021-0.072l0.027-0.078l0.018-0.076l0.017-0.072
		l0.011-0.078l0.011-0.076l0.012-0.082l0.006-0.078l0.01-0.076l0.006-0.084l0.006-0.084l0.006-0.082l0.011-0.082l0.005-0.072
		l0.012-0.072l0.006-0.07l0.016-0.072l0.012-0.061l0.017-0.066l0.011-0.061l0.011-0.051l0.022-0.045l0.011-0.037l0.017-0.045
		l0.012-0.039l0.021-0.021l0.017-0.027l0.028-0.023l0.021-0.016l0.027-0.021l0.039-0.018l0.028-0.016l0.038-0.018l0.039-0.016
		l0.055-0.012l0.044-0.01l0.066-0.012l0.061-0.018l0.062-0.01l0.088-0.012h0.077l0.077-0.012l0.095-0.01l0.088-0.012l0.094-0.018
		l0.088-0.016l0.089-0.018l0.095-0.021l0.071-0.021l0.082-0.027l0.089-0.033l0.072-0.027l0.077-0.033l0.071-0.029l0.066-0.021
		l0.062-0.027l0.071-0.021l0.061-0.023l0.051-0.021l0.055-0.021l0.05-0.021l0.05-0.027l0.061-0.035l0.044-0.021l0.045-0.021
		l0.038-0.023l0.05-0.021l0.044-0.016l0.045-0.018l0.032-0.01l0.033-0.012l0.027-0.012l0.039-0.01h0.039l0.028-0.012h0.032h0.027
		h0.027h0.033h0.039l0.044,0.012h0.033l0.045,0.01l0.038,0.012l0.055,0.021l0.073,0.018l0.055,0.027l0.065,0.027l0.078,0.033
		l0.077,0.039l0.077,0.039l0.083,0.043l0.088,0.039l0.083,0.039l0.083,0.037l0.083,0.039l0.072,0.051l0.088,0.039l0.062,0.037
		l0.065,0.033l0.072,0.033l0.061,0.033l0.05,0.023l0.039,0.027l0.044,0.021l0.033,0.012l0.05,0.016l0.027,0.012l0.027,0.012
		l0.022,0.01L112,77.284l0.022,0.006l0.028,0.006h0.027h0.055h0.032h0.039l0.05-0.006l0.056-0.006l0.082-0.006l0.062-0.006
		l0.072-0.01l0.099-0.006l0.066-0.018l0.077-0.01l0.105-0.012l0.077-0.01l0.077-0.012l0.101-0.018l0.071-0.01l0.077-0.012l0.1-0.012
		l0.071-0.021l0.072-0.012l0.099-0.01l0.067-0.012l0.065-0.012l0.078-0.016l0.065-0.012l0.055-0.01l0.057-0.012l0.044-0.012
		l0.044-0.016l0.044-0.012l0.022-0.021l0.021-0.012l0.018-0.027l0.016-0.021l0.012-0.033l0.017-0.033l0.005-0.039l0.012-0.049
		l0.011-0.051l0.006-0.049l0.016-0.051l0.012-0.055l0.016-0.115l0.006-0.062l0.018-0.055l0.011-0.061l0.011-0.061l0.011-0.051
		l0.012-0.055l0.006-0.049l0.01-0.061l0.012-0.057l0.006-0.055l0.011-0.055l0.011-0.061l0.006-0.057l0.006-0.061l0.006-0.061
		l0.005-0.072v-0.066l-0.005-0.066l-0.25,0.105l-0.005-0.066l-0.005-0.07l-0.012-0.066l-0.012-0.068l-0.01-0.055l-0.012-0.049
		l-0.011-0.055l-0.017-0.045l-0.017-0.045l-0.033-0.043l-0.276-0.045l-0.039-0.055l-0.043-0.045l-0.056-0.049l-0.051-0.057
		l-0.076-0.059l-0.071-0.068l-0.078-0.066l-0.1-0.064l-0.088-0.09l-0.1-0.082l-0.116-0.088l-0.105-0.105l-0.121-0.1l-0.11-0.105
		l-0.121-0.1l-0.11-0.104l-0.122-0.096l-0.1-0.094l-0.083-0.094l-0.104-0.088l-0.077-0.076l-0.077-0.078l-0.078-0.072l-0.065-0.055
		l-0.051-0.066l-0.05-0.051l-0.055-0.049l-0.039-0.039l-0.038-0.043l-0.033-0.045l-0.022-0.033l-0.027-0.033l-0.021-0.033
		l-0.012-0.039l-0.017-0.021l-0.011-0.033l-0.017-0.039l-0.006-0.043l-0.005-0.039l-0.012-0.039V72.29v-0.043l0.012-0.061V72.13
		l0.005-0.055l0.006-0.066v-0.066v-0.061l0.005-0.066l0.056,0.016v-0.076l-0.005-0.072l-0.018-0.078l-0.006-0.082l-0.016-0.072
		l-0.012-0.072l-0.011-0.076l-0.017-0.076l-0.011-0.074l-0.017-0.064l-0.011-0.072l-0.012-0.061l-0.012-0.061l-0.01-0.066
		l-0.012-0.066l-0.011-0.061l-0.005-0.057v-0.049V70.54V70.49l0.016-0.049l0.012-0.055l0.01-0.057l0.023-0.049l0.032-0.051
		l0.028-0.061l0.032-0.043l0.067-0.066l0.043-0.057l0.051-0.061l0.05-0.055l0.055-0.055l0.077-0.051l0.056-0.055l0.055-0.055
		l0.072-0.055l0.083-0.051l0.071-0.051l0.083-0.049l0.094-0.055l0.089-0.055l0.099-0.051l0.105-0.055l0.105-0.045l0.104-0.061
		l0.088-0.049l0.095-0.051l0.094-0.055l0.083-0.045l0.062-0.066l0.071-0.049l0.055-0.057l0.062-0.055l0.043-0.061l0.039-0.049
		l0.05-0.051l0.033-0.055l0.044-0.049l0.033-0.057l0.022-0.049l0.028-0.051l0.021-0.055l0.021-0.061l0.022-0.055l0.021-0.057
		l0.018-0.066l0.011-0.064l0.022-0.062l0.021-0.061l0.012-0.066l0.017-0.064l0.011-0.057l0.017-0.055l0.012-0.061l0.021-0.045
		l0.017-0.055l0.021-0.051l0.027-0.061l0.039-0.061l0.05-0.055l0.033-0.061l0.045-0.072l0.044-0.072l0.049-0.082l0.078-0.084
		l0.056-0.094l0.049-0.088l0.062-0.105l0.077-0.1l0.061-0.104l0.055-0.111l0.062-0.115l0.077-0.117l0.055-0.121l0.056-0.111
		l0.049-0.109l0.067-0.121l0.049-0.111l0.045-0.121l0.038-0.105l0.045-0.104l0.044-0.105l0.039-0.1l0.038-0.094l0.027-0.084
		l0.028-0.082l0.027-0.072l0.028-0.061l0.027-0.072l0.038-0.066l0.021-0.061l0.023-0.066l0.027-0.064l0.027-0.062l0.022-0.061
		l0.021-0.061l0.027-0.066l0.033-0.055l0.022-0.057l0.039-0.055l0.021-0.049l0.033-0.057l0.028-0.049l0.033-0.045l0.043-0.049
		l0.05-0.049l0.051-0.045l0.055-0.051l0.056-0.049l0.083-0.061l0.077-0.066l0.076-0.061l0.095-0.066l0.089-0.066l0.094-0.055
		l0.099-0.072l0.095-0.066l0.104-0.066l0.094-0.066l0.105-0.061l0.094-0.078l0.099-0.066l0.106-0.066l0.087-0.07l0.095-0.078
		l0.088-0.066l0.095-0.076l0.088-0.072l0.066-0.066l0.077-0.066l0.061-0.066l0.066-0.061l0.05-0.045l0.039-0.055l0.055-0.051
		l0.028-0.043l0.027-0.045l0.044-0.043l0.017-0.039l0.022-0.039l0.011-0.045l0.011-0.037l0.012-0.045l0.006-0.045l0.005-0.043
		v-0.051v-0.049l-0.005-0.051l-0.006-0.055l-0.012-0.051l-0.011-0.064l-0.011-0.055l-0.012-0.057l-0.011-0.072l-0.017-0.055
		l-0.011-0.066l-0.021-0.055l-0.012-0.066l-0.012-0.055l-0.005-0.061l-0.006-0.045l-0.005-0.057v-0.055l-0.006-0.049v-0.055
		l0.006-0.045v-0.051l0.005-0.043l0.011-0.045l0.018-0.043l0.016-0.045l0.033-0.061l0.033-0.049l0.028-0.057l0.044-0.061
		l0.044-0.061l0.05-0.061l0.066-0.066l0.065-0.072l0.073-0.072l0.082-0.07l0.089-0.072l0.089-0.084l0.088-0.07l0.094-0.072
		l0.082-0.072l0.083-0.07l0.083-0.062l0.061-0.055l0.067-0.061l0.055-0.055l0.044-0.045l0.039-0.039l0.039-0.039l0.033-0.039
		l0.027-0.031l0.027-0.033l0.033-0.027l0.022-0.029l0.027-0.027l0.022-0.027l0.033-0.033l0.033-0.027l0.044-0.033l0.043-0.039
		l0.051-0.033l0.056-0.033l0.065-0.033l0.072-0.039l0.071-0.049l0.066-0.039l0.089-0.043l0.071-0.045l0.083-0.051l0.088-0.049
		l0.072-0.045l0.077-0.043l0.095-0.045l0.065-0.045l0.066-0.049l0.083-0.033l0.061-0.043l0.05-0.039l0.045-0.033l0.049-0.033
		l0.05-0.039l0.033-0.039l0.028-0.033l0.016-0.027l0.018-0.033l0.005-0.027l0.005-0.027l0.006-0.029v-0.037l-0.006-0.023v-0.031
		l-0.005-0.023v-0.027l-0.005-0.027l-0.006-0.027l-0.006-0.039l-0.006-0.039l-0.011-0.033l-0.005-0.049l-0.012-0.045l-0.011-0.049
		l-0.017-0.062l-0.011-0.055l-0.012-0.061l-0.016-0.055l-0.018-0.057l-0.017-0.043l-0.005-0.049l-0.006-0.039v-0.033v-0.033v0.332
		l0.011-0.045l0.017-0.033l0.021-0.051l0.012-0.043l0.027-0.055l0.034-0.057l0.027-0.072l0.033-0.082l0.033-0.082l0.05-0.105
		l0.065-0.109l0.061-0.123l0.056-0.121l0.072-0.133l0.083-0.139l0.061-0.137l0.121-0.281l0.078-0.123l0.049-0.115l0.05-0.117
		l0.055-0.104l0.056-0.105l0.056-0.1l0.044-0.094l0.062-0.1l0.055-0.094l0.065-0.105l0.062-0.094l0.072-0.094l0.065-0.105l0.089-0.1
		l0.072-0.104l0.077-0.094l0.082-0.096l0.077-0.094l0.078-0.088l0.089-0.094l0.083-0.082l0.071-0.084l0.077-0.078l0.078-0.07
		l0.071-0.066l0.055-0.072l0.072-0.066l0.071-0.061l0.062-0.061l0.055-0.061l0.071-0.051l0.066-0.043l0.056-0.045l0.061-0.049
		l0.083-0.051l0.071-0.039l0.057-0.037l0.077-0.039l0.077-0.033l0.066-0.039l0.061-0.039l0.077-0.033l0.077-0.033l0.061-0.037
		l0.077-0.039l0.083-0.045l0.078-0.039l0.093-0.043l0.106-0.051l0.099-0.049l0.116-0.055l0.122-0.062l0.115-0.055l0.121-0.055
		l0.116-0.061l0.122-0.066l0.116-0.055l0.121-0.057l0.115-0.049l0.122-0.066l0.116-0.045l0.122-0.049l0.116-0.045l0.115-0.039
		l0.115-0.049l0.101-0.033l0.094-0.033l0.094-0.027l0.088-0.027l0.083-0.027l0.072-0.023l0.083-0.021l0.077-0.027l0.072-0.029
		l0.065-0.01l0.077-0.021l0.072-0.023l0.071-0.01l0.066-0.023l0.072-0.01l0.061-0.012l0.066-0.01l0.05-0.012l0.072-0.006
		l0.065-0.012l0.051-0.004l0.055-0.006h0.071l0.062-0.006h0.066h0.061h0.077h0.065h0.072h0.077l0.172-0.117l0.121-0.209l0.237-0.508
		l0.409-0.707l0.591-1.758l0.287,0.117l0.719,1.148l0.712,0.607l1.077,0.006l1.16-0.553l-0.42-1.32l-0.425-2.006l0.149-1.391
		l1.027-2.027l0.011-1.277l-0.348-1.512l0.348-1.027l0.592-0.736l1.446-0.59l1.585-0.293l1.365-0.359l0.938-0.719l1.243-0.232
		l1.021-0.43l0.862-0.646l1.027-0.426l1.641-0.236l1.37,0.309l0.801-0.061l1.293-0.42l3.679-1.553l3.038-1.021l1.53,0.072
		l2.298,0.607l1.536-0.354l1.999-0.299l0.183-0.088l0.094-0.055l0.11-0.084l0.061-0.061l0.725-0.393l0.48-0.209l0.922-0.453
		l0.651-0.242l0.757-0.277l1.128-0.441l0.408-0.172l0.486-0.148l0.348-0.051l0.204-0.049l0.299-0.066l0.089-0.021l-0.122-0.072
		l-0.205-0.066l-0.215-0.078l-0.144-0.021h-0.199l-0.165,0.021l-0.155,0.084l-0.121,0.066l-0.072,0.021h-0.441l-0.078-0.057
		l-0.038-0.031l0.044-0.105l0.061-0.072l0.039-0.045v0.111l-0.021-0.033l-0.057-0.016l-0.12-0.045l-0.078-0.012l-0.105-0.037
		l-0.027-0.033l-0.016-0.033l0.055-0.111l0.062-0.072l0.061-0.061V26.46l-0.012-0.023l-0.083-0.078l-0.121-0.07l-0.05-0.078
		l-0.089-0.088l-0.016-0.061l-0.045-0.078l-0.033-0.061l-0.022-0.051l-0.121-0.104l-0.083-0.039l-0.05-0.061l-0.021-0.084
		l0.033-0.154l0.017-0.072l-0.017-0.059l-0.078-0.09l-0.115-0.039l-0.078-0.033l-0.099-0.016l-0.033-0.006l-0.033-0.006
		l-0.083,0.012l-0.039,0.01h-0.05l-0.049,0.023l-0.05,0.01l-0.039,0.018l-0.11,0.033l-0.055,0.018h-0.073l-0.076-0.018l-0.172-0.078
		l-0.027-0.07l-0.116-0.072l-0.093-0.027l-0.106-0.045l-0.038-0.066l-0.022-0.133l0.105-0.158l0.033-0.051l-0.033-0.045
		l-0.006-0.033l-0.027-0.066l-0.116-0.088l-0.033-0.1l-0.05-0.16l-0.072-0.176l-0.104-0.166l-0.027-0.248l0.072-0.277l-0.018-0.293
		l-0.043-0.254l-0.072-0.115l-0.116-0.117l-0.121-0.049l-0.11-0.105l-0.078-0.16l-0.116-0.176l-0.121-0.217l-0.078-0.076
		l-0.115-0.078l-0.188-0.044l-0.122-0.022l-0.083-0.039l-0.077-0.061l-0.027-0.077l-0.056-0.122l-0.049-0.183l-0.072-0.188
		l-0.033-0.149l-0.105-0.11l-0.082-0.182l-0.028-0.122v-0.088l-0.061-0.066l-0.11-0.049l-0.138-0.006l-0.116,0.006l-0.221,0.055
		l-0.211,0.066l-0.227-0.027l-0.104-0.061l-0.055-0.072l-0.017-0.149v-0.1l-0.078-0.044l-0.071,0.005l-0.122,0.011l-0.066,0.011
		l-0.221,0.017l-0.116-0.039l-0.082-0.111l-0.05-0.043l-0.099-0.05l-0.122-0.011l-0.116,0.011l-0.122-0.011l-0.093-0.094v-0.088
		l0.005-0.105l-0.028-0.088l-0.967-0.149l-0.06-0.061l-0.111-0.027l-0.061-0.011l-0.105,0.028l-0.055,0.022l-0.065,0.017
		l-0.083,0.011l-0.111,0.006l-0.171-0.072l-0.066-0.072l-0.088-0.044l-0.116-0.044l-0.122-0.011l-0.099-0.033l-0.122-0.078
		L160.03,18.4l-0.033-0.088l-0.071-0.088l-0.177-0.116l-0.133-0.099l-0.122-0.017l-0.165-0.033l-0.133-0.011l-0.133,0.005
		l-0.298,0.1l-0.122,0.033l-0.088,0.033l-0.121,0.027h-0.056l-0.039-0.011l-0.066-0.072l-0.033-0.094l-0.011-0.089l-0.049-0.116
		l-0.012-0.055l-0.044-0.028l-0.056-0.017h-0.077h-0.077l-0.122,0.011l-0.11,0.005h-0.099l-0.211,0.022l-0.192-0.006l-0.26,0.033
		l-0.095,0.011l-0.093-0.022l-0.072-0.028l-0.121-0.049l-0.045-0.039l-0.199-0.055l-0.138-0.022l-0.094-0.027l-0.094-0.039
		l-0.061-0.072l-0.105-0.083l-0.121-0.017l-0.134,0.044l-0.12,0.099l-0.161,0.066h-0.148l-0.155-0.039l-0.171-0.039l-0.144-0.055
		l-0.116-0.122l-0.16-0.044l-0.271-0.055l-0.188-0.105l-0.165-0.077l-0.089-0.1l-0.104-0.11l-0.104-0.017h-0.056l-0.061,0.011
		l-0.061,0.033l-0.105,0.061l-0.078,0.028h-0.104l-0.066-0.028l-0.104-0.044l-0.039-0.055l-0.032-0.067l-0.039-0.044l-0.039-0.044
		l-0.121-0.039l-0.116-0.017l-0.078-0.072l-0.032-0.094l0.005-0.122l0.194-0.199l0.121-0.227l0.121-0.133l0.149-0.133l0.116-0.226
		v-0.221l0.044-0.204l0.066-0.199l0.011-0.194l0.006-0.231l-0.104-0.266l-0.155-0.104l-0.199-0.105l-0.021-0.271l0.061-0.227
		l0.095-0.21l0.016-0.166l-0.144-0.127l-0.166-0.116l-0.043-0.099l-0.045-0.088l-0.017-0.066l-0.094-0.083l-0.149-0.034
		l-0.121-0.021l-0.116-0.05l-0.166-0.088l-0.071-0.088l-0.116-0.139l-0.089-0.094l-0.121-0.022l-0.039-0.022l-0.017-0.061
		l-0.038-0.077l-0.045-0.072l-0.077-0.006l-0.055-0.011l-0.11-0.05l-0.034-0.083l-0.071-0.171l-0.082-0.221l-0.122-0.149
		l-0.089-0.122l-0.121-0.083l-0.083-0.066l-0.1-0.111l-0.055-0.127l-0.056-0.149v-0.138L150.17,9.97l-0.06-0.066l-0.194,0.028
		l-0.441,0.094l-0.211,0.055l-0.159,0.033l-0.116,0.033h-0.104l-0.101-0.066l-0.154-0.216l-0.115-0.182l-0.139-0.16l-0.072-0.044
		l-0.591-0.078h-0.121l-0.094,0.006l-0.122,0.033h-0.116l-0.193-0.027l-0.121-0.061l-0.116-0.033l-0.121-0.039l-0.281-0.017
		l-0.227,0.011l-0.288,0.072l-0.271,0.127l-0.172,0.033l-0.148,0.017l-0.216-0.022l-0.126-0.05l-0.145-0.111l-0.121-0.176
		l-0.133-0.182l-0.11-0.21L144.364,8.7l-0.115-0.061l-0.111-0.017l-0.115-0.006l-0.088-0.033l-0.155-0.027l-0.122-0.006
		l-0.093,0.022l-0.106,0.094l-0.12-0.011l-0.11-0.05l-0.122-0.144l-0.095-0.083l-0.065-0.11l-0.039-0.088l0.006-0.094l0.083-0.116
		l0.171-0.16l0.089-0.166l0.071-0.122l0.039-0.066l0.011-0.072l0.044-0.077l0.077-0.171l0.116-0.21l0.122-0.227l0.144-0.237
		l0.171-0.183l0.121-0.138l0.012-0.072l0.006-0.099l-0.045-0.105l-0.011-0.072V5.545l0.044-0.121l0.006-0.11l-0.006-0.116
		l-0.044-0.083l-0.061-0.127l-0.1-0.171l-0.249-0.254l-0.242-0.243l-0.105-0.138l-0.028-0.155l-0.071-0.116l-0.033-0.055
		l0.022-0.061l0.033-0.022l0.177-0.034l0.126-0.055l0.122-0.105l0.05-0.077l0.045-0.094l0.016-0.115l0.022-0.1l0.044-0.094
		l0.067-0.072l0.115-0.16l0.033-0.088l0.121-0.237l0.105-0.199l0.121-0.188l0.105-0.116l0.055-0.1l0.012-0.077l-0.045-0.072
		l-0.021-0.066l-0.139-0.122l-0.077-0.083l0.006-0.067l0.044-0.083l0.116-0.37l0.027-0.116V0.767l-0.027-0.078l-0.033-0.066
		l-0.033-0.066l-0.121-0.1l-0.227-0.161l-0.122-0.061l-0.314-0.132l-0.166-0.078l-0.127-0.049l-0.11-0.089l-0.022-0.083
		l-0.006-0.067v-0.088l-0.01-0.088l-0.028-0.094l-0.082-0.094l-0.095-0.088l-0.127-0.077l-0.121-0.05l-0.194,0.017l-0.121-0.017
		l-0.127-0.028l-0.249,0.017l-0.132-0.011l-0.177-0.055l-0.166-0.022l-0.232-0.011l-0.159,0.027l-0.045-0.011L141.199-1l0.116-0.094
		l0.26-0.276l0.039-0.138l0.032-0.171l0.012-0.171l-0.006-0.182l-0.038-0.105l-0.089-0.193l-0.21-0.238l-0.408-0.403l-0.354-0.215
		l-0.21-0.122l-0.165-0.033l-0.133-0.055l-0.066-0.061l-0.077-0.072l-0.044-0.072l-0.027-0.072l-0.051-0.055l-0.121-0.039
		l-0.115-0.017l-0.106-0.022l-0.087-0.039l-0.083-0.088l-0.089-0.11l-0.105-0.061l-0.12-0.05h-0.083h-0.066l-0.006-0.039
		l0.021-0.083l0.006-0.215v-0.171l-0.027-0.127l-0.039-0.11l-0.071-0.116l0.039-0.094l0.06-0.055l0.116-0.027l0.222-0.194
		l0.16-0.072l0.701-0.524l0.198-0.149l0.128-0.072l0.083-0.033l0.116-0.028l0.12-0.016l0.145-0.006h0.149l0.192-0.039l0.188-0.072
		l0.21-0.144l0.26-0.171l0.27-0.16l0.106-0.144l0.076-0.083l0.056-0.033v-0.044l-0.006-0.033l-0.016-0.044l-0.012-0.066v-0.078
		l0.033-0.072l0.066-0.049l0.116-0.034l0.127-0.021l0.116-0.034l0.049-0.033v-0.05l-0.033-0.033l-0.05-0.033l-0.115-0.027
		l-0.188-0.028l-0.271-0.017l-0.182-0.011l-0.193-0.039l-0.105-0.049l-0.116-0.061l-0.071-0.055l-0.033-0.077l0.006-0.083
		l0.021-0.115l0.116-0.061l0.227-0.133l0.11-0.121l0.088-0.133l0.018-0.066v-0.072l-0.022-0.044l-0.056-0.066l-0.055-0.05
		l-0.122-0.083l-0.1-0.066l-0.121-0.033l-0.116-0.011l-0.121-0.022l-0.138,0.012h-0.122l-0.1,0.049l-0.133,0.116l-0.116,0.088
		l-0.149,0.116l-0.281,0.198l-0.265,0.111l-0.314,0.155l-0.238,0.121l-0.237,0.122l-0.121,0.072l-0.205,0.055l-1.453-0.006
		l-2.242,0.066l-2.016-0.011l-2.314,0.166l-1.569-0.193l-0.558-0.033l-0.768,0.215l-0.774,0.215h-0.348l-0.591-0.033l-0.464-0.132
		l0.05-0.304l0.116-0.442l0.358-1.96l-0.089-0.757l-0.264-0.79l0.043-0.574l0.083-0.47l0.221-0.376l0.039-0.602l0.095-0.536
		l-0.116-0.315l-0.139-0.442l-0.05-0.32l-0.176-0.315l-0.222-0.188l-0.188-0.281l-0.674-1.039l-0.315-0.32l-0.138-0.094
		l-0.227,0.033l-0.266,0.033l-0.376,0.1l-0.304-0.034l-0.121-0.182v-0.16l0.044-0.315v-0.288v-0.282l-0.188-0.696l-0.121-0.597
		l0.265-0.16l0.597-0.066l0.861-0.127l0.63-0.155h0.183l0.088-0.066l0.077-0.061l1.027-0.033h0.697l0.568-0.646l0.348-0.293
		l0.183-0.26l0.144-0.906l-0.409-1.149l-0.353-0.304l0.016-0.961l-0.21-0.967l-0.568-0.668l-1.155-0.188l-1.767,1.491l-0.939,0.061
		l0.149-0.79l-0.48-2.596l-0.194-2.049l-0.12-1.271l-0.636-0.911l-1.867-0.973l-0.133,0.238l0.121,1.033l0.271,1.325l-0.072,0.365
		l-0.724,0.237l-2.176-0.254l-2.017-0.254l-1.221-0.673l-0.122-1.088l1.465-0.348l0.8-0.348l-0.276-0.967l-1.065-2.121l-0.193-0.724
		l0.144-1.088l1.027-0.718l0.823-0.591l-0.083-0.723l-0.514-0.608l-1.061-0.674l-0.21-0.906l-0.122-1.027l-0.618-1.149l-1.441-1.332
		l-0.282-0.851l-0.215-1.094l0.027-1.447l0.591-1.017l1.16-0.292l0.945-0.122l1.082,0.431h0.789l1.304-0.116l0.515-0.238
		l3.176,0.089l1.37,0.005l1.596-0.47l-0.425-0.607l-1.651-0.856l-0.934-0.724l-0.574-0.912l1.314-2.867l0.447-1.514l0.95-0.779
		l1.099-0.895l1.238-0.53l1.022,0.066l1.534,0.492l1.006,0.547l1.74,1.039l1.066,1.58l1.656,0.978l0.587,0.486l1.358,0.066
		l0.817,0.309l0.828,1.276l0.834,2.48l0.349,1.204l0.514,0.486l0.828,0.773l0.586,0.044l0.315,0.237l0.199,0.232l0.032,0.447
		l-0.032,0.442l0.114,0.586l-0.027,0.491l0.122,0.453l0.354,0.282l0.574,0.127l0.149-0.1l0.116-0.11l0.183-0.149l0.193-0.133
		l0.12-0.072l0.161-0.166l0.122-0.138l-0.018-0.088l-0.061-0.122l-0.089-0.127l-0.032-0.199l0.038-0.231l0.056-0.254l-0.11-0.288
		l-0.122-0.326l-0.115-0.226l-0.128-0.238l-0.265-0.26l-0.177-0.171l-0.11-0.144l-0.149-0.16l-0.248-0.127l-0.122-0.227
		l-0.066-0.139l0.027-0.099l0.018-0.094l0.044-0.066l0.066-0.044l0.26-0.149l0.121-0.11l0.077-0.089l0.017-0.104l-0.05-0.177
		l0.006-0.188v-0.061l0.022-0.067l0.132-0.121l0.122-0.094l0.038-0.116l0.022-0.088l0.204-0.166l0.116-0.094l0.237-0.094
		l0.199-0.105l0.116-0.138l0.171-0.193l0.182-0.061l0.26,0.066l0.072,0.149l0.188,0.1l-0.287-0.735l-0.209-0.806l-0.421-0.635
		l-0.116-1.674l0.696-0.033l0.956-0.122l0.973-0.144l0.585,0.685l0.05,0.718l0.784-0.486l0.249-0.784l-0.205-1.558l-0.475-0.42
		l-0.403-1.221l-0.039-0.63l-0.005-0.674l0.065-1.281l0.122-0.68l0.116-0.525l0.275-0.944l-0.115-0.585l-0.127-1.376l-5.606-0.342
		l-0.735,0.829l-0.636,0.083l-2.06-0.514l-0.232-0.568l-0.425-0.486l-0.398-0.464l-0.154-1.061l-0.823-0.293l-0.607-0.447
		l-0.658-0.282l-0.662-0.199l-1.668-2.829l1.535,0.072l0.663,0.027l0.988-0.143l0.619-0.393l0.618-0.712l0.051-0.906l-0.442-0.691
		l-0.298-1.082l-0.536-1.934l-0.354-0.475l-0.9-0.387l-0.752-0.635l-0.751-0.458l-0.828-0.332l-0.817-0.63l-0.702-0.342
		l-0.784,1.121l-0.591,0.564l-1.624,1.878l-0.719,0.387l-0.597-0.127l-0.132,0.663l-1.292,0.845l-0.625,0.514l-0.486,0.475
		l-0.994,0.779l-0.663,0.464l-0.486,0.409l-0.198,0.773l0.387,0.442l0.613,0.243l0.899,0.392l0.675,0.354l0.37,0.436l-0.287,0.514
		l-0.823,0.027l-3.635,0.21l-0.585,0.133l-0.896-0.105l-0.978-0.127l-0.183,0.74l0.884,0.619l-0.276,1.193l0.37,0.68l0.183,0.668
		l-0.116,1.59l-0.48,0.425l-1.602,1.039l-1.646,1.111l-1.348,0.06l-0.332,0.459l-1.966,0.574l-0.823,0.122l-0.973,0.409
		l-0.828,0.375l-1.061,0.232l-1.42-0.608l-2.729,1.63l-0.177-1.061l-0.586-0.823l0.425-1.16l-1.065-0.63l-1.032-1.657l-0.979,0.718
		l-1.585,0.558l-1.249-0.149l-0.685-0.061l-1.216,0.127l-0.822-0.469l-0.056-1.171l1.017-0.856l-0.48-1.358l2.011-1.26l0.618,0.067
		l1.713-1.464l0.829-1.116l-0.222-0.497l0.121-0.702l-0.397-0.641l0.608-0.171l0.585-0.099l2.729-0.702l0.558-0.314l0.612-0.458
		l0.773-0.542l0.083-0.817l-0.171-0.591l-0.867-0.564l-1.536-0.807l-0.414-0.441l-0.392-0.547l-1.133-0.751l-0.452-0.171
		l-0.63-0.243l-0.492-0.193l-0.548-0.326l-0.845-0.127l-1.524-0.331l-1.883-0.613l-0.812-0.144l-1.227,0.508l-1.027,0.227
		l-0.923-0.292l-0.414-0.398l-1.292-0.017l-1.1-0.525l-4.502-0.939l-1.193,0.961l-0.856-4.596l0.133-0.707l0.05-1.122l-0.52-1.475
		l0.022-1h0.155l-0.083-0.121l-0.006-0.271l0.121-0.469l0.012-0.293l-0.354,0.171l-0.376,0.194l-0.083,0.033l-0.397,0.293
		l-0.354,0.044l-0.282-0.133l-0.265-0.171l-0.271-0.127l-0.918-0.519l-0.353-0.237l-0.304-0.127L76.1-93.492l-0.354,0.049
		l-0.287,0.111l-0.244,0.166l-0.314,0.232l-0.193,0.205l-0.281,0.227l-0.376,0.027l-0.408-0.005l-0.349-0.056l-0.719-0.021
		l-0.529-0.011h-0.486l-0.497-0.022l-0.392-0.044h-0.332l-0.541,0.033l-0.403-0.1l-0.349-0.199l-0.939-0.409l-1.872-0.298
		l-0.983,0.282l-0.535,0.122l-1.11,0.326l-1.359,0.259l-1.9,0.525l-1.613,0.397h-0.021l-1.017,0.177l-1.065,0.254l-0.216-0.282
		l-0.121-0.287l-0.32-0.354l-0.442-0.641l-0.199-0.48l-0.364-0.105l-0.586-0.011l-0.547,0.044l-0.624,0.006l-0.354,0.021
		l-0.342-0.011l-0.465-0.017h-0.275l-0.199-0.061l-0.188-0.033l-0.403-0.111l-0.276-0.104l-0.508-0.161l-0.426-0.094l-0.586-0.133
		l-0.514-0.077l-0.348-0.122l-0.304-0.104l-0.409-0.111l-0.419-0.122l-0.409-0.155l-0.381-0.027l-0.326,0.127l-0.349,0.205
		l-0.017,0.292l0.056,0.437l-0.033,0.304l0.011,0.127l0.154,0.508l0.012,0.326l0.017,0.475l-0.005,0.277v0.364l-0.006,0.47
		l0.011,0.519L45.89-89.93l-0.062,0.492l-0.033,0.321l0.012,0.32l-0.051,0.387l-0.011,0.364l-0.26,0.348l-0.342,0.077l-0.52,0.127
		l-0.314,0.05l-0.326,0.094l-0.414,0.11l-0.929,0.227L42.3-86.947l-0.338,0.061l-0.353,0.105l-0.349,0.072l-0.271,0.066
		l-0.314,0.083l-0.062,0.011l-0.26,0.05l-0.26,0.1l-0.049,0.58l-0.017,0.348l-0.006,0.414l0.056,0.343l-0.022,0.652l-0.055,0.288
		l-0.779,0.53l-0.381,0.122l-0.47,0.132l-0.591,0.188l-0.524,0.199l-0.846,0.315l-1.155,0.447l-0.762,0.271l-0.729,0.26
		l-1.227,0.492l-1.369,0.491l-0.442,0.194l-1.032-0.238l-0.734-0.204l-0.664-0.127l-0.712-0.215l-0.58-0.155l-0.271,0.061
		l-0.514,0.259l-0.873,0.608l-1.552,0.933l-0.928,0.68l-1.426,0.685l-1.867,1l-0.994,0.553l-0.172,0.088l-1.065,0.542l-1.409,0.718
		l-1.795,0.989l-1.364,0.668l-1.701,0.773l-0.945,0.646l-0.485,0.287l-1.299,0.635l-0.822,0.42l-0.702,0.414l-0.314,0.1
		l-0.276,0.121l-0.188,0.183l-0.237,1.231l-0.282,0.613L5.35-67.061l0.348,1.608l0.575,1.044l0.562,0.883l0.503,0.906l0.177,0.768
		l-0.122,0.945l-0.115,0.21l-0.216,1.093l-0.271,0.542l-0.232,0.923l0.21,1.138l0.293,1.221l0.072,2.232l-0.105,0.823l-0.11,0.845
		l-0.044,0.989L6.802-49.86l-0.065,1.105l-0.116,1.166l-0.072,0.751L6.5-46.202L6.411-45.65l-0.172,1.144l-0.033,0.381l-0.077,1.1
		l0.133,0.536l0.707,1.337l0.646,1.381l0.21,0.354l0.442,0.724l0.303,0.724l0.039,0.215L8.57-37.53l-0.254,0.282l-1.127-0.1
		l-1.337-0.476l-1.623-0.855L3.163-39.27l-1.536-0.695l-0.668-0.056l-0.52,0.083l-0.21,0.326l0.166,0.519l0.243,0.436l-0.089,0.37
		l-0.851,0.205l-0.674,0.193l-0.53,0.072l-0.441,0.138l-1.624,0.364l-2.42-0.188l-0.63-0.293l-1.679-0.751l-1.983-0.37l-1.53-0.231
		l-2.061-0.282l-1.309-0.1l-0.299,0.011l-0.458-0.094l-2.922-0.691l-3.183-1.011l-2.221-0.707l-2.082-0.773l-2.348-0.519
		l-1.646,0.116l-1.177,0.508l-0.568,0.53l0.469,0.597l0.702,0.994l0.585,0.785l0.161,0.441l-0.161,0.63l-0.707,0.79l-0.982,0.597
		l-0.769,0.514l-2.828,0.492l-0.558,0.182l-0.52,0.265l-0.823,0.116l-1.237,0.21l-0.895,0.238l-0.403,0.171l-0.354,0.249
		l-0.193,0.309l0.11,0.105l-0.144,0.397l-0.138,0.674l0.017,0.398l0.027,0.546l-0.083,0.431l-0.154,0.442l-0.42,0.403l-0.602,0.707
		l-0.326,0.393l-0.293,0.591l-0.42,0.585l-0.453,0.619l-0.713,0.801l-0.607,0.624l-0.032,0.039l-0.332,0.243l-0.63,0.431
		l-0.31,0.177l-0.304,0.039l-0.354-0.404l-0.314,0.017l-0.271,0.199l-0.437,0.508l-0.52,0.978l-0.458,1.778l-0.437,1.773
		l-0.332,3.79l-0.508,0.16l-0.354,0.209l-0.403,0.254l-0.547,0.464l-0.282,0.419l-0.497,0.486l-0.541,0.536l-0.503,0.713
		l-0.221,0.867l0.077,0.779l0.039,0.525l0.094,0.658l0.403,0.934l0.331,0.641l0.155,0.486v0.757l-0.376,0.464l-0.823,0.862
		l-0.276,0.409l-0.005,0.597l-0.122,0.862l-0.055,0.652l0.16,0.823v0.663L-53.9-2.022l0.095,0.773l0.083,0.856l0.088,0.43
		l0.099,1.138l-0.121,0.961l-0.133,0.983l-0.231,0.74l-0.403,0.475l-0.376,0.42l-1.099,0.597l-1.144,0.254l-1.1,0.254l-0.801,0.42
		l-0.734,0.503l-0.542,0.906l0.465,1.337l0.259,0.685l0.381,0.657l0.255,0.944l0.393,0.547l0.286,0.26l0.398,0.392l0.314,0.288
		l0.354,0.961l0.305,0.823l0.144,1.071l-0.343,0.791l-0.525,0.724l-0.364,0.723l-0.453,0.729l-0.536,0.961l-0.496,0.718
		l-0.509,0.674l-0.376,0.447l-0.497,0.504l-0.558,0.596l-0.895,0.68l-0.569,0.369l-0.563,0.547l-0.231,0.227l-1.53,0.812
		l-0.619,0.707l-0.354,0.281l-0.425,0.283l-0.569,0.287l-0.651,0.203l-0.58,0.148l-0.735,0.129l-0.701,0.209l-0.397,0.115
		l-0.481,0.129l-0.414,0.158l-0.177,0.758l-0.121,0.68l-0.066,0.662l-0.426,0.674l-0.535,0.9l-0.989,1.127l-0.331,0.314
		l-0.453,0.311l-1.48,0.508l-1.32,0.365L-78,34.507l-0.553,0.314l-1.082,1.215l-0.249,0.652l-0.227,0.508l-0.121,0.609l-0.077,0.707
		l0.027,0.762l0.42,1.33l0.276,0.803l0.221,0.773l-0.033,1.115l-0.105,0.602l-0.739,1.121l-0.437,0.354l-0.575,0.414l-0.839,0.598
		l-0.431,0.342l-0.796,0.232l-0.447,0.066l-0.9-0.16l-1.536-0.475l-0.961-0.52l-0.58-0.178l-0.613-0.055l-0.851,0.387l-1.061,0.508
		l-0.988,0.381l-1.072,0.387l-1.177,0.574l-1.061,0.658l-1.254,0.641l-1.071,0.586l-0.884,0.432l-1.033,0.314l-1.016,0.365
		l-1.619,0.656l-0.663,0.32l-1.751,0.939l-0.938,0.529l-0.232,0.123l-0.464,0.23l-1.116,0.58l-1.021,0.492l-0.751,0.232
		l-0.746,0.387l-1.955,0.541l-0.686,0.713l-0.69,0.701l-0.618,0.607l-0.559,0.508l-0.972,0.828l-0.166,0.592l-0.144,0.408
		l-0.354,0.531l-0.276,0.336l-0.287,0.564l-0.155,0.43l0.359,0.299l0.476,0.062l0.685-0.062l0.486,0.094l0.11,0.088l-0.039,0.006
		l0.116,0.033l0.503,0.35l0.271,0.314l0.37,1.037l0.276,0.797l0.11,0.432l-0.017,1.463v0.529l-0.31,1.359l-0.663,1.238l-0.452,0.684
		l-0.464,0.643l-0.448,0.523l-0.53,0.232l-0.585,0.348l-0.68,0.508l-0.613,0.354l-0.541,0.338l-0.31,0.281l-0.354,0.791l0.077,0.623
		l0.105,0.514l0.115,0.619l0.249,0.547l0.199,1.021l0.188,1.15l0.121,0.855l-0.133,0.734l-0.11,0.85l0.337,0.697l0.465,0.541
		l0.027,0.42l0.215,0.398l0.243,0.408l0.613,0.855l0.613,0.631l0.707,0.623l0.69,0.58l0.757,0.559l0.592,0.414l0.651,0.562
		l0.763,0.547l0.613,0.641l0.464,0.355l0.364,0.352l0.668,0.609l0.586,0.541l0.354,0.281l0.475,0.475l0.249,0.441l0.271,0.453
		l0.216,0.537l0.16,0.607l0.271,0.707l0.354,0.695l0.188,0.625l0.21,0.695l0.183,0.592l0.083,0.58l-0.022,0.646l-0.044,0.568
		l-0.044,0.719l-0.078,0.949l-0.116,0.641l-0.231,0.773l-0.21,0.695l-0.215,0.803l-0.332,0.871l-0.475,0.764l-0.249,0.408
		l-0.171,0.371l-0.426,0.629l-0.166,0.166l-0.115,0.264l-0.243,0.443l-0.397,0.52l-1.028,0.844l-1.496,1.072l-1.044,0.725
		l-1.553,1.131l-1.293,1.426l-1.204,1.822l-0.563,2.299l0.133,2.043l0.077,0.68l0.122,0.652l0.11,1.127l0.165,1.414l0.033,0.441
		l0.155,0.828l0.276,1.027l0.32,1.006l0.165,0.52L-114.9,127.8"/>
</g>
<g id="Layer_1_1_">
</g>
</svg>
