<?xml version="1.0" encoding="utf-8"?>
<!-- Generator: Adobe Illustrator 16.0.4, SVG Export Plug-In . SVG Version: 6.00 Build 0)  -->
<!DOCTYPE svg PUBLIC "-//W3C//DTD SVG 1.1//EN" "http://www.w3.org/Graphics/SVG/1.1/DTD/svg11.dtd">
<svg version="1.1" id="Layer_1" xmlns="http://www.w3.org/2000/svg" xmlns:xlink="http://www.w3.org/1999/xlink" x="0px" y="0px"
	 width="301.093px" height="114.877px" viewBox="-107.394 -40.676 301.093 114.877"
	 style="enable-background:new -107.394 -40.676 301.093 114.877;" xml:space="preserve">
<g id="Layer_77">
	<path id="Loralai" style="fill:#CCCCCC;stroke:#FFFFFF;stroke-width:1.15;" d="M-101.847-27.816L-101.847-27.816l0.077,0.482
		l0.495,1.023l0.731,1.273l0.272,0.329l0.18,0.279l0.14,0.216l2.27,4.101l0.429,0.343l0.938,0.824l0.87,0.967l1.356,0.987
		l1.063,0.711l1.31,0.808l1.429,0.701l1.214,0.496l0.292,0.132l0.133,0.21l0.066,0.642l-0.276,1.256l-0.022,0.353l0.003,0.01
		l0.22,0.476l0.515,0.445l0.289,0.097l0.133,0.176l0.004,0.104l0.01,0.209l-0.263,0.578l-0.897,1.1l-0.947,0.954l-0.914,0.708
		l-1.05,0.499l-0.472,0.475l-0.422,0.688l-0.396,1.366l-0.293,1.715l-0.275,1.183l-0.336,0.795l-0.137,0.607l0.01,0.319l0.021,0.492
		l0.14,0.353l0.235,0.634l0.017,0.39l-0.292,0.827l-0.595,1.439l-0.183,0.306l2.546,0.063l10.964,1.303l4.563,1.303l0.758,0.306
		l0.202,0.352l0.014,0.406l-0.033,0.355l-0.266,0.415l-0.223,0.333l-0.177,0.292l0.01,0.329l0.146,0.21l0.622,0.382l0.903,0.303
		l0.907,0.465l1.054,0.535l1.695,0.398l1.09,0.293l1.496,0.355l1.701,0.604l1.203,0.632l1.854,0.791l2.064,0.479l1.433,0.499
		l0.624,0.306l0.528,0.438l0.781,0.831l1.063,0.983l1.004,0.586l1.466,0.491l1.695,0.322l1.928,0.233l2.947,0.401l2.499,0.632
		l1.187,0.335l0.556,0.3l0.242,0.279l0.077,0.904l0.066,0.564l0.212,0.602l0.492,0.555l0.957,0.636l1.658,0.894l0.665,0.436
		l0.528,0.505l0.442,0.642l0.213,0.642l0.481,0.432l1.184,0.293l1.502,0.285l0.903,0.373l0.525,0.392l0.682,0.78l0.545,0.925
		l0.661,0.592l0.712,0.352l0.986,0.187l0.769,0.094l0.711,0.314l0.266,0.273l0.12,0.498l0.365,0.731l0.213,0.964l0.083,1.263
		l0.632,0.957l1.559,1.044l1.901,0.791l2.167,1.189l2.605,1.316l1.997,1.256l1.629,0.646l1.552,0.509l0.95,0.354l1.127,0.738
		l1.037,0.751l1.734,1.181l1.911,1.103l1.987,1.101l1.293,0.505l0.695,0.661l0.262,0.672L-2.643,53l0.004,0.449l0.01,0.75
		l0.352,0.745l2.413,2.3l3.477,3.194l1.821,1.771l1.3,1.257l1.097,0.857l1.04,0.964l1.127,1.11l2.057,1.03l2.666,0.956l3.018,1.095
		l1.476,0.807l0.864,0.741l0.688,0.442l2.405,0.213l3.6-0.336l3.865,0.209l4.301-0.172l4.287-0.333l5.231-0.548l5.225-0.925
		l3.676-1.511L56,66.719l2.313-1.798l2.127-2.19l2.738-2.771l1.891-0.758l2.313-0.831l1.207-0.153l1.967-0.452l2.323-0.83
		l1.791-0.978l0.506-0.372l0.611-0.076l0.685,0.451l1.47,0.9l1.116,0.904l0.691,0.812l0.349,0.758l0.515,1.106l0.452,1.093
		l0.413-0.049l0.943-0.054l0.877-0.026l0.745-0.073l0.691-0.206h0.209l0.286,0.2l0.306,0.472l0.209,0.354l0.316,0.09l0.438-0.003
		l1.207,0.307l0.691,0.205l0.824,0.146h0.369l0.405-0.126l0.665-0.3l0.505-0.306l0.827-0.578l0.868-0.498l0.863-0.373l0.376-0.072
		h0.665h0.604l0.895,0.146l1.646,0.459l1.036,0.303l0.722,0.069h0.396l0.635-0.223l0.808-0.335l0.518-0.203l0.312-0.073l0.433,0.06
		l0.9,0.176l0.496,0.033l0.318-0.123l0.552-0.524l0.355-0.482l0.362-0.425l0.665-0.396l0.79-0.21l1.849-0.455l1.023-0.089
		l1.296-0.061l1.875,0.026l0.691,0.034l1.206-0.107h0.983l2.098,0.026l1.355,0.057h1.735l1.635-0.072l1.233-0.156l1.07-0.07
		l1.123-0.072l1.323,0.062l0.754-0.146l0.353-0.187l0.292-0.03l0.214,0.106l0.083,0.146l0.146,0.247l0.348,0.122l0.496,0.044
		l0.604,0.032l0.259-0.096l0.146-0.156l0.113-0.27l0.21-0.278l0.223-0.094l0.494-0.053h0.479l0.459-0.03l0.26-0.097l0.112-0.119
		v-0.18v-0.183l-0.226-0.242l-0.229-0.354l-0.03-0.278l0.07-0.173l0.253-0.152l0.584-0.074l0.492,0.061l0.645,0.239l0.326,0.076
		l0.398-0.053l1.124-0.522l0.724-0.482l0.778-0.368l0.867-0.455l0.639-0.326l0.625-0.452v-0.956l-0.14-0.731l-0.014-0.398
		l0.087-0.354l0.259-0.382l0.524-0.425l0.416-0.337l0.405-0.401l0.26-0.213l2.197-2.636l1.771-2.117l2.267-2.177l2.572-2.529
		l1.689-1.509l1.642-1.492l1.409-1.521l2.267-2.482l1.658-1.636l2.818-2.536l1.535-1.163l1.163-0.641h0.552l0.664,0.325l0.354,0.588
		l-0.127,0.787l-0.432,0.948l-1.043,1.488l-1.29,1.104l-1.051,0.845l-0.069,0.479v0.372l0.426,0.426l-0.007,0.418l-0.246,0.852
		l-0.781,1.372l-0.203,0.578l0.24,0.588l0.358,0.21l0.967,0.109h1.104l0.496,0.17l0.354,0.521v0.529l0.426,0.368l0.92,0.369
		l0.782-0.057l0.977-0.422l1.775-1.532l1.405-1.686l1.661-2.373l0.858-1.797l0.202-0.686l-0.195-0.532l-0.354-0.475v-0.445
		l0.188-0.319l0.678-0.844l1.104-1.061l2.12-2.366l0.542-0.579l1.349-1.794l1.347-1.748l0.874-1.795l0.438-1.329l0.618-1.271
		l0.737-0.837l0.685-0.791l0.858-0.944l0.628-0.787l0.236-0.419l-0.217-0.495l-0.545-0.482l0.007-0.425l0.239-0.426l0.744-0.781
		l0.552-0.584l0.671-1.071l-0.072-0.368l-0.678-0.722l-1.39-0.827L185.309,6.7l-0.402,0.169l-0.448,0.951l-0.509,0.501l-0.704-0.02
		l-2.5-1.037l-2.077-1.466l-0.894-0.552l-0.496-0.013l-0.512,0.163l-0.312,0.352l-0.209,0.173l-0.309-0.013l-0.3-0.087l-0.491-0.542
		l0.02-0.524l0.425-0.519l0.326-0.691l0.451-1.217l0.018-0.353l-0.496-0.451l-0.92-0.023l-1.915-0.05l-0.983-0.817l-0.884-0.987
		l-1.289-1.001l-1.492-0.83l-1.29-0.734l-1.004-0.466L165.5-3.397l-0.664-0.021l-0.885-0.239l-0.997-0.177l-1.682-1.02l-1.914-1.865
		l-1.344-1.495l-2.353-1.672l-2.23-1.293l-2.791-1.854l-1.928-1.492l-2.566-1.189l-4.686-2.2l-3.829-2.975l-2.599-2.333
		l-2.254-3.273l-1.029-0.935l-2.008-0.817l-2.875-0.133l-3.646-0.306l-4.089-0.296l-2.881-0.036l-0.884-0.077l-0.585-1.319
		l-1.207-3.503l-0.163-1.901l-0.352-0.754l-0.668-0.369l-2.446-0.425l-3.889-0.396l-2.482-0.392l0.685,1.043l1.067,0.914
		l0.219,0.648l-0.213,0.645l-0.737,0.472l-2.34,0.662l-2.354,0.206l-2.459,0.571l-1.702,0.848l-2.964,2.798l-2.646,2.889
		l-1.797,1.123l-1.915,0.938l-3.742,1.054l-4.792,0.781l-2.56,0.671L73.95-20.77l-1.695,1.496l-4.892,2.632l-6.481,2.101
		l-3.932,0.971l-2.453,0.675l-2.771,0.306l-0.96,0.1l-0.755-0.272l-0.209-0.459l-0.113-0.737l-0.239-1.752l-0.22-0.74l-1.07-0.911
		l-2.047-0.532l-2.047-0.624l-2.044-0.812l-1.084-0.91l-0.332-0.735l-0.442-0.183l-0.854,0.01l-0.516,0.469l-1.183,0.293
		l-1.184-0.267l-1.921-0.627l-1.2-0.446l-1.179-0.076l-2.24,0.396l-2.457,0.306l-1.694,0.94l-1.593,0.668l-1.275,0.199l-2.908-0.149
		l-3.742,0.14l-3.094,0.319l-1.489,0.296L10.07-18.14L9.139-17.3l-0.516,0.715L7.46-16.017l-1.18-0.173l-0.974-0.635l-0.555-1.104
		l-0.546-0.731l-0.545-0.454l-0.86-0.267L1.74-19.55l-1.509-0.631l-1.084-0.911l-0.548-0.73l-0.535-0.731l-0.871-0.17l-1.492-0.069
		l-0.964-0.17l-0.967-0.172l-0.943,0.105l-1.812,0.489l-3.503,1.343l-4.573,1.359l-2.868,1.149l-0.745,0.565l-0.84,0.382
		l-1.726-0.069l-2.672-0.423l-3.543-0.78l-1.941-0.798l-1.306-0.998l-0.552-0.92l-0.346-0.549l-0.874-0.91l-0.562-1.379
		l-0.771-1.004l-0.402-0.382l-0.183-0.51l-0.209-0.212l-0.379-0.393l-0.877-0.187l-0.964-0.043l-0.975,0.144l-1.675,0.192
		l-2.273,0.103l-2.057-0.039l-1.569-0.137l-1.033-0.09l-1.672,0.279l-1.19,0.239l-1.784,0.101l-1.629-0.044l-1.412,0.412
		l-0.708,0.426l-0.974,0.848l-1.286,0.887l-0.768,0.236h-0.712l-1.229-0.379l-1.04-0.531l-0.897-0.921l-0.924-1.03l-0.27-0.691
		l-0.096-0.997l-0.004-0.615l-0.219-0.462l-0.449-0.269l-0.315-0.346l-0.272-1.113l-0.097-1.729l-0.137-0.495l-0.312-0.193
		l-0.624-0.069l-1.157,0.116l-0.668,0.232l-0.794,0.466l-1.283,0.425l-1.645,0.319l-2.128,0.931l-2.662,1.09l-2.565,0.954
		l-1.2,0.429l-1.199,0.542l-1.373,0.584l-1.332,0.16l-1.067-0.036l-1.827-0.336l-1.649-0.605l-1.066-0.378l-1.646,0.006
		l-2.668,0.057l-2.443,0.282L-101.847-27.816"/>
</g>
<g id="Layer_1_1_">
</g>
</svg>
