<?xml version="1.0" encoding="iso-8859-1"?>
<!-- Generator: Adobe Illustrator 16.0.4, SVG Export Plug-In . SVG Version: 6.00 Build 0)  -->
<!DOCTYPE svg PUBLIC "-//W3C//DTD SVG 1.1//EN" "http://www.w3.org/Graphics/SVG/1.1/DTD/svg11.dtd">
<svg version="1.1" xmlns="http://www.w3.org/2000/svg" xmlns:xlink="http://www.w3.org/1999/xlink" x="0px" y="0px"
	 width="42.879px" height="72.604px" viewBox="0 0 42.879 72.604" style="enable-background:new 0 0 42.879 72.604;"
	 xml:space="preserve">
<g id="Layer_161">
	<g id="Layer_166">
		<path id="Dera_Ghazi_Khan" style="fill:#CCCCCC;stroke:#FFFFFF;stroke-width:1.07;" d="
			M0.443,60.427L0.443,60.427l0.586,0.865l0.684,0.684l0.803,0.281l0.7,0.187l1.052,0.298l0.7,0.186l0.832,0.225l0.655,0.072
			l0.219-0.002l0.219,0.037l1.182,0.261l1.096,0.375l0.833,0.489l0.265,0.418l0.096,0.332l0.519,0.442l0.207,0.136l0.131,0.1
			l0.223,0.162l0.119,0.078l0.156,0.119l0.305,0.192l0.218,0.123l0.233,0.11l0.16,0.057l0.229,0.078l0.248,0.061l0.27,0.062
			l0.208,0.048l0.198,0.041l0.287,0.04l0.24,0.048l0.273,0.043l0.355,0.054l0.338,0.039l0.348,0.036l0.303,0.041l0.339,0.021
			l0.207,0.019l0.191,0.002l0.185-0.002l0.228-0.005l0.302-0.011h0.275l0.295,0.016l0.489-0.014l0.439,0.002l0.145-0.007
			l0.156-0.004l0.159,0.002l0.203,0.006l0.186,0.021l0.223,0.021l0.13,0.038l0.144,0.064l0.231,0.141l0.26,0.168l0.129,0.107
			l0.131,0.129l0.165,0.133l0.155,0.174l0.188,0.21l0.189,0.231l0.104,0.131l0.074,0.105l0.053,0.115l0.061,0.15l0.017,0.135
			l0.002,0.104l-0.021,0.125l-0.012,0.065l-0.029,0.078l-0.028,0.064l-0.017,0.053l-0.01,0.055l0.023,0.066l0.076,0.104l0.095,0.108
			l0.047,0.037l0.105,0.084l0.086,0.075l0.123,0.084l0.086,0.042l0.127,0.055l0.096,0.035l0.072,0.035l0.061,0.051l0.027,0.047
			l0.018,0.062l0.004,0.085l0.027,0.08l0.045,0.045l0.062,0.035l0.107,0.039l0.109,0.028l0.043,0.037l0.021,0.037v0.098
			l-0.049,0.151l-0.074,0.147l-0.064,0.135l-0.033,0.143l0.018,0.111l0.016,0.051l0.018,0.027l0.035,0.033l0.064,0.01l0.164-0.007
			l0.16-0.037l0.1-0.056l0.092-0.086l0.123-0.082l0.184-0.092l0.084-0.039l0.074-0.002l0.061,0.021l0.066,0.028l0.107,0.053
			l0.123,0.029l0.039-0.004l0.213-0.041l0.164-0.051l0.305-0.135l0.318-0.168l0.182-0.107l0.109-0.065l0.125-0.078l0.102-0.072
			l0.168-0.114l0.236-0.111l0.268-0.123l0.24-0.129l0.131-0.082l0.102-0.09l0.146-0.104l0.094-0.078l0.115-0.117l0.135-0.105
			l0.096-0.1l0.104-0.138l0.102-0.129l0.053-0.093l0.039-0.091l0.031-0.103l0.068-0.158l0.051-0.088l0.115-0.164l0.133-0.146
			l0.039-0.056l0.086-0.121l0.084-0.105l0.09-0.104l0.082-0.137l0.072-0.15l0.039-0.098l0.062-0.142l0.08-0.159l0.055-0.142
			l0.082-0.175l0.037-0.108l0.055-0.188l0.016-0.056l0.018-0.091l-0.006-0.159l-0.016-0.166l0.01-0.157l0.018-0.269l0.012-0.237
			l0.014-0.113l0.014-0.129l0.008-0.07l0.018-0.061l0.039-0.056l0.109-0.134l0.041-0.067l0.033-0.071l0.033-0.068l0.074-0.085
			l0.076-0.054l0.164-0.09l0.088-0.053l0.07-0.062l0.088-0.123l0.119-0.146l0.121-0.127l0.113-0.072l0.086-0.035l0.104-0.018
			l0.092-0.001l0.145,0.017l0.096,0.017l0.068,0.014l0.062-0.001l0.115-0.038l0.125-0.03l0.146-0.025l0.158,0.003l0.156-0.011
			l0.172,0.008l0.219,0.001l0.316,0.055l0.215,0.05l0.072,0.041l0.047,0.031l0.123,0.098l0.092,0.043l0.082,0.035l0.111,0.059
			l0.094,0.074l0.084,0.045l0.088,0.065l0.154,0.124l0.117,0.123l0.094,0.129l0.043,0.078l0.043,0.135l0.016,0.188l0.016,0.161
			l-0.035,0.21l-0.057,0.119l-0.072,0.131l-0.039,0.16l-0.043,0.168l-0.02,0.168l0.004,0.076l0.025,0.054l0.031,0.048l0.041,0.034
			l0.059,0.026l0.064,0.01l0.07,0.037l0.029,0.023l0.039,0.09l0.014,0.061l0.023,0.035l0.049,0.021l0.053,0.005l0.053-0.011
			l0.055-0.007l0.049,0.033l0.043,0.065l0.031,0.056l-0.004,0.088l-0.031,0.1l-0.061,0.102l-0.066,0.127l-0.02,0.08l-0.004,0.076
			l0.02,0.077l0.072,0.117l0.17,0.312l0.064,0.121l0.105,0.16l0.049,0.117l0.029,0.083l0.049,0.09l0.055,0.118l0.076,0.163
			l0.064,0.146l0.033,0.098l0.033,0.117l0.146,0.342l0.047-0.077l0.043-0.064l0.078-0.034l0.129-0.082l0.078-0.063l0.039-0.123
			l0.014-0.087l0.031-0.152l0.047-0.115l0.057-0.123l0.023-0.168l-0.01-0.139l0.002-0.064l-0.064-0.047l-0.135-0.02l-0.09-0.055
			l-0.02-0.08l-0.057-0.074l-0.098-0.048l-0.039-0.089l0.021-0.072l0.002-0.072l0.1-0.129l0.111-0.092l0.07-0.078L36,67.896
			l0.115,0.033l0.057,0.053l0.109,0.012l0.104-0.062l0.322-0.457l0.42-0.594l0.188-0.256l0.148-0.176l0.207-0.313l0.176-0.177
			l0.145-0.236l0.072-0.122l0.055-0.079l0.068-0.041l0.078-0.041l0.102-0.025l0.062-0.057l0.043-0.05l0.006-0.108v-0.177
			l0.053-0.079l0.043-0.027l0.125-0.203l0.287-0.2l0.199-0.082l0.23-0.134l0.107-0.147l0.117-0.246l0.125-0.385l0.086-0.129
			l0.043-0.078l0.145-0.022l0.156-0.041l0.23-0.201l0.098-0.256l0.107-0.6l0.133-0.54l0.197-0.59l0.092-0.344l-0.037-0.156
			l-0.094-0.125l-0.125-0.086l-0.273-0.082l-0.225-0.024l-0.182-0.056l-0.068-0.076l-0.025-0.106l0.008-0.107l0.109-0.148
			l0.326-0.379l0.307-0.313l0.143-0.12l0.135-0.07l0.135-0.031l0.236,0.022l0.314,0.043l0.271-0.005l0.232-0.083l0.076-0.101
			l-0.004-0.116l-0.131-0.263l-0.127-0.152l-0.16-0.075l-0.18,0.004l-0.123,0.002l-0.068-0.036l-0.002-0.078l-0.07-0.098
			l-0.082-0.126l-0.025-0.126l0.031-0.099l0.045-0.04l0.066-0.001l0.16,0.104l0.092,0.076l0.104,0.019l0.088-0.031l0.076-0.118
			l0.018-0.177l-0.096-0.225l-0.107-0.229l-0.055-0.352l-0.018-0.166l-0.18-0.465l-0.062-0.293l-0.062-0.252l0.029-0.178
			l0.051-0.139l0.154-0.148l0.121-0.09l0.02-0.09l-0.023-0.066l-0.113-0.037l-0.184-0.094l-0.08-0.126L41.4,54.325l0.012-0.058
			l0.066-0.03l0.18-0.023l0.449,0.021l0.146-0.041l0.076-0.09l0.008-0.155l-0.086-0.264l-0.166-0.339l-0.188-0.211l-0.174-0.192
			l-0.162-0.222l-0.225-0.356l-0.193-0.377l-0.312-0.816l-0.088-0.309l-0.176-1.562l-0.104-1.386l-0.051-0.135l-0.232-0.27
			l-0.209-0.221l-0.334-0.267l-0.475-0.461l-0.223-0.259l-0.119-0.271l-0.027-0.213l0.041-0.14l0.088-0.08l0.135-0.051l0.348-0.086
			l0.223-0.083l0.145-0.092l0.076-0.078l0.008-0.147l-0.039-0.214l-0.092-0.495l-0.178-1.11l0.014-0.304l0.094-0.335l0.08-0.383
			l-0.006-0.186l-0.047-0.508l0.037-0.312l0.135-0.414l0.193-0.404l0.061-0.256l0.035-0.392l-0.09-0.342L39.91,39.07l-0.145-0.369
			l-0.066-0.332l-0.043-0.312l-0.018-0.194l0.051-0.197l-0.051-0.174l-0.115-0.105l-0.148-0.025l-0.215-0.006l-0.18-0.006
			l-0.16-0.036l-0.08-0.077l-0.072-0.105l-0.014-0.078l0.041-0.167l-0.004-0.146l-0.061-0.224l-0.086-0.214l-0.049-0.126
			l-0.002-0.078l0.055-0.099l-0.004-0.088l-0.08-0.086l0.32-0.528l0.166-0.422l-0.02-0.347l-0.248-0.358l-0.053-0.163l-0.043-0.187
			l-0.119-0.227l-0.045-0.252l0.014-0.172l0.053-0.14l0.141-0.109l0.129-0.133l0.166-0.101L39.15,32.6l0.129-0.109l0.094-0.108
			l0.016-0.131l-0.043-0.187l-0.105-0.088l-0.203-0.126l-0.088-0.113l-0.115-0.118l-0.023-0.122l-0.002-0.09l0.035-0.131
			l0.064-0.059l0.129-0.109l0.166-0.126l0.111-0.101l0.035-0.09l-0.021-0.114l-0.051-0.097l-0.115-0.096l-0.182-0.07l-0.146-0.079
			l-0.086-0.08L38.68,30.16l-0.062-0.17l-0.035-0.261l-0.008-0.253l0.008-0.399l-0.002-0.393l-0.041-0.097l-0.049-0.073
			l-0.043-0.179l-0.014-0.523l0.029-0.581l0.039-0.303l0.043-0.213l0.006-0.172l-0.018-1.258l0.02-0.393l-0.033-0.171l-0.102-0.178
			l-0.166-0.16l-0.184-0.143l-0.248-0.093l-0.182-0.045l-0.189-0.037l-0.314-0.042l-0.398-0.041l-0.209,0.005l-0.123-0.014
			l-0.068-0.063l-0.051-0.098l0.018-0.123l0.045-0.082l0.076-0.254l0.051-0.516l0.033-0.859l-0.016-0.155l-0.049-0.097l-0.098-0.055
			l-0.172-0.07l-0.115-0.071l-0.061-0.064l-0.012-0.082l0.018-0.09l0.055-0.067l0.102-0.067l0.123-0.051l0.207-0.038l0.209,0.012
			l0.258,0.06l0.125,0.071l0.154,0.029l0.131-0.011l0.15-0.088l0.1-0.149l0.152-0.338l0.199-0.364l0.09-0.206l0.082-0.116
			l0.109-0.109l0.055-0.124l-0.014-0.098l-0.031-0.128l-0.068-0.072l-0.104-0.047l-0.135-0.006l-0.197,0.037l-0.244,0.087
			l-0.084,0.018l-0.068-0.022l-0.066-0.048l-0.061-0.138l-0.244-0.87l-0.014-0.163l0.023-0.131L37.07,18l0.105-0.14l0.166-0.191
			l0.203-0.192l0.146-0.093l0.123-0.06l0.318-0.138l0.178-0.091l0.121-0.109l0.055-0.099l0.01-1.022l-0.02-0.065l-0.059-0.056
			l-0.049-0.023l-0.135-0.014l-0.369,0.008l-0.197,0.02l-0.189,0.037l-0.209,0.012l-0.096-0.006l-0.059-0.056l-0.002-0.065
			l0.092-0.133l0.191-0.225l0.242-0.185l0.186-0.208l0.043-0.124l0.062-0.156l0.043-0.189l-0.066-0.325l-0.133-0.692l-0.02-0.662
			l0.018-0.417l0.033-0.483l0.078-0.27l0.096-0.305l-0.006-0.27l-0.018-0.27l-0.053-0.179L37.889,10.4l0.039-0.246l0.043-0.173
			L37.969,9.9l-0.029-0.057L37.834,9.83l-0.152,0.003l-0.143-0.022l-0.098-0.055L37.381,9.65l-0.016-0.212l0.014-0.221l0.031-0.22
			V8.678l-0.064-0.317l-0.146-0.447L37.037,7.55l-0.129-0.194l-0.045-0.269l-0.049-0.375l0.021-0.284l0.061-0.835l0.084-0.427
			l0.088-0.255l0.135-0.281l0.111-0.124l0.146-0.167l0.008-0.09l-0.041-0.105l-0.09-0.121l-0.211-0.102l-0.301-0.108l-0.363-0.099
			l-0.125-0.038L36.26,3.62l-0.021-0.057l-0.004-0.114l0.074-0.125l0.102-0.108l0.141-0.101l0.18-0.094l0.215-0.094l0.16-0.118
			l0.053-0.148l0.223-0.488l0.33-0.197l-0.158-0.102l-0.201-0.061L37.146,1.77L36.83,1.69l-0.352-0.178l-0.064-0.117l-0.047-0.204
			L36.32,0.974l-0.031-0.131l-0.084-0.074L36.07,0.724l-0.049-0.016l-0.068-0.015l-0.285-0.047l-0.32-0.004l-0.287-0.003
			l-0.254-0.004l-0.254,0.099L34.244,0.86l-0.258,0.243l-0.174,0.331l-0.086,0.057l-0.152,0.056l-0.102-0.016l-0.271-0.032
			l-0.473-0.006l-0.557-0.021l-0.287,0.011l-0.234-0.09l-0.217-0.147l-0.15-0.06l-0.152-0.017l-0.084,0.014l-0.035,0.042
			l-0.084,0.028l-0.053,0.072l-0.104,0.057l-0.082-0.044l-0.051-0.073l-0.064-0.146L30.508,1.06l-0.15-0.045l-0.32-0.033
			l-0.303-0.076l-0.336-0.178l-0.234-0.147l-0.133-0.045l-0.152-0.001l-0.15,0.013l-0.154,0.085L28.412,0.74l-0.221-0.002
			l-0.027-0.003l0.012,0.104L28.076,1l-0.088,0.135l0.02,0.071l-0.057,0.063l-0.068,0.078L27.75,1.428l-0.137,0.068L27.51,1.643
			l-0.008,0.089l-0.029,0.104L27.33,1.963l-0.184,0.056l-0.268,0.017l-0.146,0.01L26.561,2.08l-0.203,0.044l-0.066-0.003
			L26.084,2.17l-0.197,0.044l-0.385,0.01l-0.418,0.054l-0.143,0.029l-0.104,0.018L24.65,2.351l-0.113,0.033L24.436,2.42
			l-0.133,0.016L24.23,2.465l-0.059,0.147l-0.088,0.183l-0.273,0.329L23.764,3.21l-0.098,0.15l-0.172,0.163l-0.082,0.116
			l-0.021,0.089l-0.033,0.16l-0.02,0.145l-0.043,0.104l-0.127,0.108l-0.035,0.05l-0.035,0.064l0.051,0.08l-0.061,0.067L22.91,4.881
			l-0.203,0.438l-0.162,0.282L22.352,5.85l-0.041,0.276l0.021,0.254l-0.437,0.144l-0.554,0.131l-0.489,0.108l-0.617,0.154
			l-0.708,0.178L18.399,7.42L17.68,7.71l-0.211,0.097l0.217,0.251l-0.014,0.189l-0.005,0.511l0.069,0.89l0.033,0.679l-0.017,0.4
			l-0.121,0.577l-0.159,0.488l-0.21,0.433l-0.367,0.542L16.74,13.01l-0.065,0.267l-0.097,0.611l-0.042,0.455l-0.017,0.343
			l0.021,0.512l0.019,0.956l-0.007,0.822l-0.07,0.811l-0.053,0.188l-0.175,0.732l-0.171,0.521l-0.067,0.322l0.037,0.222l0.089,0.212
			l0.205,0.09l0.283,0.112l0.09,0.09l0.05,0.223l-0.041,0.3l-0.105,0.311l-0.116,0.066l-0.271,0.021l-1.058-0.006l-0.232,0.01
			l-0.116,0.11l-0.065,0.133l-0.067,0.389l-0.088,0.944l-0.12,0.621l-0.131,0.211l-0.117,0.155l-0.129,0.088l-0.231,0.065
			l-0.375,0.042l-0.631-0.003l-0.259,0.021l-0.104,0.066l-0.104,0.1l-0.104,0.166l-0.08,0.344l-0.054,0.444l-0.002,0.244
			l-0.054,0.145l-0.104,0.11l-0.129,0.055h-0.155l-0.335,0.009l-0.425-0.068l-0.192-0.046h-0.104l-0.345-0.036l-0.154,0.01
			l-0.129,0.055l-0.116,0.088l-0.104,0.145L9.77,25.996l-0.055,0.4L9.688,26.64L9.61,26.829l-0.117,0.155l-0.153,0.144l-0.13,0.122
			l-0.065,0.189l-0.028,0.322l0.024,0.322l0.101,0.378l0.114,0.323l0.062,0.445l0.05,0.333l-0.003,0.544l-0.093,0.533l-0.289,0.955
			l-0.325,0.799l-0.364,0.721l-0.17,0.377l-0.404,0.753l-0.285,0.51L7.35,35.242l-0.208,0.399L6.715,36.14l-0.413,0.465
			l-0.581,0.487L5.605,37.26l-0.064,0.199l-0.107,0.255l-0.054,0.378l-0.016,0.399l0.035,0.723l-0.016,0.468L5.318,40.07
			l-0.065,0.321l-0.194,0.354l-0.349,0.621l-0.144,0.254l-0.104,0.2l-0.065,0.255l-0.155,0.3l-0.181,0.232l-0.145,0.207L3.905,42.83
			l-0.052,0.211l-0.028,0.534l-0.001,0.277l0.062,0.166l0.104,0.033l0.142,0.023l0.18-0.122l0.154-0.144l0.143-0.101l0.142-0.044
			h0.076l0.038,0.102l-0.002,0.256L4.77,44.478l-0.143,0.365l-0.193,0.301l-0.103,0.174l-0.014,0.179l0.076,0.2l0.217,0.102
			l0.18,0.012l0.22-0.11l0.153-0.132l0.182-0.278l0.193-0.287l0.13-0.133l0.152-0.078l0.219-0.088l0.23,0.001l0.153,0.001
			l0.372,0.022l0.191,0.035l0.191,0.033l0.257,0.001l0.423,0.001L8.012,44.8l0.281,0.078l0.229,0.079l0.127,0.167l0.037,0.111v0.089
			l-0.154,0.211l-0.35,0.487l-0.516,0.652L7.5,46.808l-0.206,0.065l-0.27,0.044l-0.244,0.021l-0.257,0.065l-0.141,0.11l-0.078,0.122
			l-0.064,0.145l-0.053,0.277l0.011,0.444l-0.053,0.232l-0.077,0.077l-0.115,0.044L5.75,48.468l-0.115,0.043L5.48,48.644
			l-0.078,0.146l-0.026,0.274l-0.092,0.412l-0.116,0.389L5,50.164l-0.078,0.267l-0.026,0.334l-0.003,0.422l0.05,0.276l0.062,0.356
			l-0.04,0.345l-0.054,0.255l-0.144,0.363l-0.091,0.255l-0.13,0.233L4.38,53.47L4.251,53.69l-0.129,0.156l-0.168,0.176l-0.257,0.188
			l-0.396,0.231L3.16,54.608l-0.103,0.123l-0.065,0.133L2.3,56.153l-0.159,0.544l-0.316,1.088l-0.77,1.979L0.443,60.427"/>
	</g>
</g>
<g id="Layer_1">
</g>
</svg>
