<?xml version="1.0" encoding="utf-8"?>
<!-- Generator: Adobe Illustrator 16.0.4, SVG Export Plug-In . SVG Version: 6.00 Build 0)  -->
<!DOCTYPE svg PUBLIC "-//W3C//DTD SVG 1.1//EN" "http://www.w3.org/Graphics/SVG/1.1/DTD/svg11.dtd">
<svg version="1.1" id="Layer_1" xmlns="http://www.w3.org/2000/svg" xmlns:xlink="http://www.w3.org/1999/xlink" x="0px" y="0px"
	 width="301.082px" height="372.982px" viewBox="-132.804 -164.63 301.082 372.982"
	 style="enable-background:new -132.804 -164.63 301.082 372.982;" xml:space="preserve">
<g id="Layer_89">
	<path id="Multan" style="fill:#CCCCCC;stroke:#FFFFFF;stroke-width:1.15;" d="M-5.115,197.994L-5.115,197.994l-0.05-0.659
		l-0.181-0.725v-0.691l0.263-0.593l0.346-0.61l0.527-0.478l0.494-0.214l0.749-0.379l0.643-0.296l0.519-0.635l0.428-1.128
		l0.165-1.054l-0.024-0.774l0.239-0.823l0.296-0.403l1.021-0.617l1.227-0.528l2.635-0.914l1.104-0.65l0.667-0.708l0.782-0.979
		l0.239-1.351l-0.345-1.729l-0.379-1.087l-0.173-0.807l-0.239-0.248l-0.428-0.296l-0.815-0.52l-0.428-0.18l-0.519-0.174
		l-0.675-0.206l-0.264-0.346l-0.172-0.643l0.082-0.593l-0.05-0.164l-0.329-0.157l-0.667-0.206l-0.865-0.279l-0.609-0.618
		l-0.56-0.526l-0.222-0.79l0.09-1.27l-0.173-1.021l-0.181-0.594l-0.387-0.395l-0.445-0.437l-0.239-0.337l-0.173-0.495l0.206-0.378
		l0.412-0.124l1.861,0.156l1.31,0.255l1.029,0.322l0.667-0.009l0.527-0.238l0.387-0.577l0.182-0.535l-0.535-0.56l-0.84-0.429
		l-0.807-0.552l-0.181-0.593l-0.379-0.519l-0.766-0.33l-0.75-0.304l-1.918-0.329l-1.565-0.182l-0.65-0.264l-0.288-0.174l0.09-0.724
		l1.046-2.413l0.667-2.816l0.667-2.231l0.14-0.791l-0.173-0.345l-0.864-0.726l-0.972-0.758l-0.428-0.519l-0.181-0.856l0.519-0.873
		l1.104-1.342l1.482-0.856l1.523-0.774l0.997-0.526l0.527-0.495l0.519-0.173l0.832,0.1l0.502-0.017l0.437-0.412l-0.181-0.52
		l-0.84-0.535l-0.675-0.831l-0.404-0.561l-0.124-0.633l0.058-0.438l0.189-0.329l0.346-0.239l0.379-0.518l0.28-0.528l0.346-0.493
		l0.568-0.561l0.576-0.172l0.371-0.091l0.536-0.058l0.461,0.181l0.757,0.321l0.527,0.206l0.7,0.073l0.675-0.362l0.535-0.485
		l0.725-0.329l0.23-0.297l0.692-0.429h0.428l0.839,0.182l0.939-0.157l0.346-0.254l0.181-0.321l-0.041-0.528l-0.52-0.222
		l-1.235-0.766l-0.519-0.543l-0.206-0.479l-0.024-0.411l0.14-0.215l0.56-0.181l0.972-0.173l0.758-0.255l0.222-0.313l0.173-0.271
		l1.869-0.519l1.062-0.709l0.148-0.213l0.23-0.174l0.329-0.132l0.321-0.313l0.091-0.345l-0.041-0.379l-0.181-0.561l-0.527-0.725
		l-0.148-0.429l0.008-0.411l0.116-0.255l0.247-0.256l0.502-0.552l0.411-0.502l0.174-0.329l0.14-0.511l0.05-0.444l-0.173-0.297
		l-0.271-0.396l-0.149-0.379l0.091-0.263l0.082-0.141l0.173-0.058l0.429-0.14l0.313-0.239l0.181-0.255l0.05-0.52l-0.082-0.469
		l-0.174-0.239l-0.073-0.181l0.049-0.173l0.091-0.182l0.173-0.173l0.362-0.181l0.362-0.28l0.223-0.264l0.017-0.223l-0.05-0.346
		l-0.141-0.23l-0.263-0.189l-0.37-0.124l-0.338-0.073l-0.272-0.124l-0.024-0.378l0.016-0.313l0.091-0.182l0.174-0.098l0.246-0.116
		l0.462-0.346l0.544-0.659l0.493-0.576l0.23-0.758l-0.073-0.411l-0.182-0.272l-0.238-0.106l-0.305,0.017l-0.264,0.099l-0.462,0.082
		l-0.271-0.173l-0.082-0.23l-0.024-0.511l0.172-0.502l0.445-0.815l0.873-1.318l0.807-1.136l0.33-0.815l0.033-0.486l-0.206-0.526
		l-0.528-0.856l-0.575-0.947l-0.38-0.708l-0.271-0.75l-0.239-0.708l-0.181-1.194l-0.058-1.062l0.131-0.52l0.173-1.095l0.198-0.774
		l0.197-0.312l0.238-0.173l0.494-0.346l0.676-0.437l0.988-0.486l0.379-0.279l0.182-0.231l-0.018-0.329l0.009-0.379l0.173-0.189
		l0.198-0.173l0.197-0.115l0.429-0.106l1.366-0.173l1.129-0.198l0.749-0.23l0.519-0.173l0.247-0.305l0.066-0.387l-0.174-0.215
		l-0.271-0.073l-0.84,0.033l-0.897,0.04l-1.17,0.075l-1.54-0.058l-0.42-0.075l-0.181-0.338l-0.165-0.444l0.091-0.297l0.182-0.098
		l0.23-0.033l0.411,0.033l0.635,0.091l0.675-0.058l0.725-0.182l0.388-0.148l0.346-0.28l0.123-0.173l-0.017-0.362l-0.115-0.222
		l-0.279-0.239l-0.553-0.271l-0.519-0.28l-0.147-0.379l0.058-0.526l0.197-0.462l0.223-0.255l0.378-0.338l0.182-0.411l0.017-0.264
		l-0.173-0.338l-0.248-0.247l-0.238-0.156l-1.227-0.116l-2.554-0.206l-1.819-0.181l-0.519-0.091l-0.239-0.255l-0.223-0.799
		l-0.238-0.931l-0.107-0.996l-0.354-0.412l-0.676-0.527l-0.329-0.329l-0.115-0.346l0.157-1.186l0.106-0.478l0.149-0.182l0.238-0.165
		l0.23-0.049l0.396-0.124l0.239-0.098l0.222-0.182l0.182-0.174l0.132-0.18L18.7,79.955L18.692,79.7l-0.173-0.223l-0.189-0.157
		l-0.337-0.091l-0.56-0.147l-0.189-0.107l-0.008-0.197l0.091-0.174l0.313-0.724l0.371-0.758l0.222-0.206l0.33-0.14l0.338-0.042
		l0.288-0.14l0.28-0.305l0.182-0.346l-0.051-0.313l-0.115-0.271l-0.296-0.297l-0.164-0.345l0.082-0.239l0.181-0.321l0.544-0.609
		l0.576-0.708l0.947-0.963l0.173-0.362l0.115-0.38l-0.074-0.255l-0.37-0.511l-0.486-0.634l-0.329-0.42l-0.157-0.437l0.05-0.288
		l0.148-0.42l0.321-0.371l0.14-0.519v-1.07l0.165-1.128l-0.074-0.766l-0.074-0.676l0.082-0.23l0.157-0.223l0.197-0.182l0.288-0.164
		l0.296-0.066l0.676-0.123l0.643-0.189l0.437-0.181l0.214-0.173l0.28-0.231l0.247-0.444l0.182-0.264l0.246-0.182l0.438-0.181
		l0.337-0.041l0.429,0.033l0.387,0.206l0.247,0.173l0.477,0.123l0.504-0.041l0.469-0.124l0.684-0.354l0.782-0.478l0.478-0.272
		l0.527-0.222l0.255-0.017l0.453,0.107l0.173,0.115l0.181,0.214l0.018,0.288l-0.182,0.52l-0.494,0.88l-0.099,0.19l0.024,0.255
		l0.148,0.247l0.206,0.188l0.518,0.363l0.182,0.172l0.165,0.281L32.09,63.98l-0.247,0.329l-0.206,0.182l-0.066,0.214l0.018,0.189
		l0.188,0.403l0.182,0.173l0.453,0.197l0.37-0.016l0.223-0.083l0.296-0.14l0.288-0.173l0.453-0.346l0.288-0.247l0.256-0.173
		l0.23-0.018l0.238,0.051l0.198,0.098l0.181,0.198l0.272,0.321l0.469,0.329l0.322,0.239l0.172,0.123l0.198-0.017l0.189-0.091
		l0.23-0.115l0.32-0.205l0.289-0.19l0.206-0.181l0.181-0.065h0.189l0.181,0.016l0.215,0.182l0.321,0.305l0.527,0.058h0.197
		l0.182-0.14l0.296-0.207l0.239-0.419l0.287-0.223l0.248-0.182l0.305-0.04l0.469-0.018l0.239,0.124l0.312,0.222l0.058,0.396
		l0.025,0.527l-0.116,0.799l0.033,0.503l0.214,0.485l0.774,0.511l0.988,0.379l0.56,0.757l0.61,0.388l0.519,0.305l0.526,0.041
		l0.371-0.058l0.387-0.173l0.255-0.115l0.338-0.23l0.297-0.61l0.256-0.584l0.14-0.881v-1.161l-0.182-1.005l-0.346-1.054
		l-0.379-0.791l-0.527-1.367l-0.7-1.31l-0.675-0.831L45.39,58.7l-0.882-0.872l-0.305-0.585l0.05-0.568l0.106-0.379l0.182-0.568
		l0.198-0.511l0.188-0.362l0.033-0.321l-0.091-0.312l-0.222-0.256l-0.33-0.181l-0.469-0.173l-0.116-0.362l0.025-0.346l0.164-0.28
		l0.503-0.428l0.403-0.47l0.115-0.396l-0.074-0.502l-0.23-0.387l-0.411-0.289l-0.841-0.526l-0.511-0.297l-0.296-0.338l-0.14-0.346
		L42.4,48.119l0.115-0.438l0.198-0.378l0.37-0.453l0.313-0.271l0.576-1.005l0.922-1.194l0.412-0.601l0.676-0.725l0.338-0.255
		l0.526-0.165l0.684-0.05l0.429,0.091l0.519,0.428l0.453,1.112l0.305,0.518l0.378,0.224l0.52,0.254l0.297,0.108l0.246-0.033
		l0.429-0.42l0.807-0.905l0.403-0.824l0.091-0.412v-0.362l-0.453-0.568l-0.255-0.42l0.024-0.271l0.106-0.437l0.189-0.485
		l0.429-0.379l0.437-0.312l0.247-0.051l0.222,0.075l0.174,0.099l0.05,0.47l0.156,1.028l0.271,0.692l0.239,0.271l0.338,0.124
		l0.313,0.016l0.51-0.123l0.404-0.182l0.305-0.173l0.551-0.453l0.527-0.419l0.223-0.124l0.182-0.058l0.362,0.173l0.575,0.453
		l0.586,0.519l0.452,0.189h0.535l0.47-0.123l0.189-0.223l0.132-0.321l0.182-0.387l0.255-0.47l0.411-0.429l0.322-0.518l0.122-0.527
		l-0.058-0.362l-0.337-0.438l-0.922-0.716l-0.857-0.708l-0.979-0.675l-0.684-0.494l-0.617-0.52l-0.312-0.642l-0.124-0.774
		l0.009-0.503l0.09-0.881l0.181-0.675l0.174-0.444l0.188-0.28l0.52-0.379l0.602-0.429l0.741-0.396l0.724-0.181l0.527-0.173
		l0.305-0.305l0.205-0.264l0.182-0.379l0.033-0.486l-0.049-0.436l-0.321-0.726l-0.371-0.79l-0.238-0.675l-0.255-0.741l-0.115-0.774
		l0.172-1.235l0.338-0.972l0.403-0.807l0.306-0.248l0.312-0.14h0.478l0.906,0.182l0.971,0.14l0.306-0.033l0.188-0.223l0.174-0.345
		l0.016-0.256l-0.123-0.403l-0.165-0.329l-0.173-0.741l0.083-0.437l0.271-0.429l0.361-0.296l0.453-0.379l0.297-0.412l0.28-0.387
		l0.305-0.585l0.47-0.526l0.675-0.577l0.502-0.197l0.749-0.083l0.882,0.083l0.947,0.312l1.128,0.659l1.425,0.773l0.667,0.264
		l0.872,0.148l0.849-0.017l0.536-0.132l0.535-0.214l0.518-0.494l0.363-0.535l0.172-0.453v-0.379l-0.016-0.173l-0.462-0.527
		l-0.69-0.634l-0.511-0.519l-0.23-1.993l-0.025-1.152L75.389,8.55l-0.354-0.568l-0.438-0.831l-0.197-0.174L73.659,6.96l-0.469,0.248
		L72.738,7.34l-0.881-0.264l-0.362-0.396l-0.52-0.247l-1.186-0.329l-0.732-0.173l-0.568-0.561l-0.271-0.519l0.305-0.741l0.387-0.527
		l0.304-0.543l-0.058-0.609l0.091-0.519l0.223-0.248l0.519-0.304l1.895-0.8l0.75-0.296L73.503,0.2l1.202,0.188l0.561,0.33
		l0.271,0.444l0.552,1.475l0.437,0.617l0.56,0.264h0.527l0.585-0.312l0.47-0.429l0.675-0.758l0.493-1.433l0.239-1.07l0.561-2.01
		l0.478-1.005l0.593-0.428l1.136-0.552L83.5-4.65l0.767-0.52l0.452-0.312l0.527-0.964l0.47-0.552l0.766-0.691l0.675-0.362
		l0.964-0.124l2.809-0.032l1.325-0.124l1.688-0.065l0.882-0.107l1.564-0.058l0.667-0.181l0.478-0.288l0.461-0.388l0.602-0.757
		l0.526-0.223l0.742-0.066l0.469,0.017l0.453-0.288l0.23-0.568l0.938-1.704l0.767-0.873l0.56-0.527l1.178-0.519l1.26-0.362
		l0.923-0.312l0.378-0.174l0.396-0.519l0.379-0.395l0.379-0.313l0.379-0.173l0.643,0.238l0.626,0.33l0.37,0.214l0.527,0.017
		l0.659-0.173l0.287-0.882l0.19-0.214l0.181-0.305l0.758-0.297l0.502-0.304l0.478-0.305l0.396-0.602l0.016-0.626l0.133-0.543
		l0.371-0.165h0.477l0.643,0.247l0.626,0.412l1.219,0.016l1.4-0.173l1.515-0.864l0.75-0.379l0.411-0.717l0.016-0.485l0.182-0.618
		l0.132-0.312l0.494-0.527l0.495-0.593l0.304-1.243l-0.065-1.194l0.51-1.243l0.577-0.931l0.396-0.617l0.024-0.799l0.189-0.306
		l0.757-0.609l0.759-0.773l0.584-0.808l1.334-1.976l1.276-2.216l0.973-1.927l0.287-0.494l0.759-0.519l0.402-1.013l0.14-0.609
		l0.182-0.313l0.198-0.996l0.024-0.52l0.106-0.469l0.774-1.021l0.206-0.8l0.017-0.378l-0.453-1.261l0.024-0.881l0.124-0.47
		l0.115-0.543l0.486-0.312l0.938-0.692l0.882-0.526l1.309-0.89l0.395-0.494l0.297-0.791l0.017-0.485l-0.173-0.881l0.025-0.906
		l0.123-0.881l0.297-0.544l0.881-1.614l0.658-0.609l1.434-1.005l1.053-0.271l1.582-0.469l1.161-0.856l0.873-0.873l1.161-1.581
		l0.823-2.257l0.527-2.107l0.23-1.64l0.279-1.013l0.553-0.617l0.683-1.005l0.297-0.602l0.189-0.938l0.024-0.881l0.124-0.725
		l0.494-0.676l0.28-0.312l0.56-0.165l0.478-0.164l0.659-0.223l0.485-0.527l0.791-1.227l0.807-1.573l0.395-0.873l0.421-0.247
		l-0.659-0.206l-0.872-0.551l0.164-1.228l0.526-1.004l0.174-0.239l0.987-0.107l1.161-0.017l0.313-0.123l0.354-0.774l0.338-0.428
		l0.312-0.182l0.485-0.173h0.206l0.337-0.362l0.28-0.782l0.107-0.453l0.329-0.362l0.387-0.065l0.313-0.115l0.396-0.248l0.271-0.494
		l0.733-1.778l0.024-0.453l-0.28-0.329l-0.872-0.305h-0.939l-0.667-0.214l-0.494-0.725l-0.346-0.593l-0.897-1.549l-0.881-1.399
		l-0.897-1.302l-1.327,0.527l-1.053,0.379l-1.203,0.297l-2.231,0.758l-2.471,0.724l-1.663,0.297l-0.856,0.182h-0.52l-0.337-0.165
		l-0.527-0.288l-0.691-0.42l-0.931-0.239l-1.202,0.05l-1.582,0.296h-0.855l-0.396-0.189l-0.008-0.519l0.387-0.905l0.445-1.582
		l0.56-1.671l0.725-1.581l0.552-1.367l0.856-1.228l0.527-1.087l0.337-1.334l0.148-1.037l-0.008-0.708l-0.189-0.527l-0.19-0.329
		l-0.732-0.297l-1.046-0.429l-2.421-0.642l-2.816-0.189l-2.289,0.181l-2.249,0.667l-1.251,0.33h-0.412l-0.42-0.182l-0.403-0.42
		l-0.691-0.519l-1.227-0.535l-0.52-0.256l-0.238-0.502l-0.182-0.478l-0.156-0.617l-0.206-0.421l-0.494-0.173l-0.526,0.115
		l-0.849,0.593l-0.527,0.758l-0.906,0.898l-0.502,0.848l-0.56,0.288l-0.535,0.091l-0.495-0.271l-0.46-0.272l-0.701-0.058
		l-0.452,0.173l-0.453,0.297l-0.345-0.033l-0.396-0.115l-0.305-0.526l-0.997-0.8l-0.896-0.337l-3.302-1.334l-1.672-0.774
		l-0.808-0.255l-2.298,0.058l-2.404,0.033l-1.104-0.107l-1.21-0.65l-2.191-1.335l-1.712-1.243l-0.338-0.411l-0.058-0.906
		l-0.017-0.79l0.421-1.631l0.675-1.227l0.766-1.146l0.667-0.708l0.839-0.856l0.33-0.511v-0.485l-0.288-0.329l-0.189-0.371
		l0.041-0.346l0.173-0.28l0.56-0.519l0.511-0.576l0.602-1.005l0.526-0.873v-0.396l-0.304-0.42l-0.7-0.238l-0.635,0.123l-0.387,0.453
		l-0.56,1.186l-1.005,1.688l-0.511,0.478h-0.444l-0.699-0.23l-1.993-1.269l-1.928-0.856l-2.033-0.84l-2.322-0.576l-1.095-0.511
		l-0.413-0.527l-0.065-0.873l-0.256-0.74l-0.305-0.849l0.042-0.478l0.189-0.189l0.675-0.444l0.445-0.42l0.502-0.585l0.214-0.585
		l-0.008-0.461l-0.182-0.799l-1.227-1.202l-1.837-1.384l-1.234-0.79l-1.261-0.503l-0.873-0.338l-0.354-0.296l-0.008-0.338
		l0.18-0.502l0.553-0.676l0.56-1.128l0.23-0.758l-0.065-0.47l-0.47-0.238l-1.104-0.297l-2.084-0.749l-2.231-0.955l-1.193-0.914
		l-0.873-0.461l-0.741,0.041l-0.288,0.181l-0.173,0.289l0.141,0.511l0.304,0.593l0.174,0.535l-0.174,0.42l-0.246,0.214h-0.495
		l-0.411-0.115l-0.478-0.47l-0.346-0.338l-0.396-0.123l-0.856-0.082l-0.535-0.214l-0.23-0.338l-0.231-0.708l-0.091-0.635
		l-0.181-0.379l-0.346-0.74l-1.062-1.722l-1.062-0.791l-1.234-0.831l-1.046-0.255l-0.849,0.123l-1.812,0.552l-1.424,0.164
		l-0.881,0.042l-0.577-0.042l-0.469,0.042l-0.783,0.552l-0.913,0.338l-0.914,0.082H57.24l-0.65-0.198l-0.404-0.469l-0.279-0.174
		l-0.527,0.685l-0.56,0.493l-0.306,0.239l-0.626,0.206l-0.88-0.14l-1.104-0.289l-1.729-0.848l-1.219-0.923l-0.676-0.56l-0.906-0.486
		l-0.708-0.156l-0.831,0.066l-1.268,0.329l-0.882,0.371l-0.783,0.469l-0.419,0.362l-0.544,0.955l-0.229,1.096l-0.026,1.433
		l-0.007,0.675l-0.058,0.791l0.049,0.65l0.28,0.774l0.041,0.568l-0.535,0.667l-0.881,0.634l-0.964,0.305l-1.087,0.099l-0.791-0.099
		l-0.864-0.329l-0.552-0.239l-0.52-0.329l-0.37-0.593l-0.379-1.145l-0.445-1.211l-0.213-0.585l-0.396-0.428l-0.741-0.124
		l-0.56,0.272l-0.362,0.485l-0.19,0.478l-0.041,0.972v1.104l0.083,0.791l0.526,0.873l0.79,0.93l0.964,0.511l0.791,0.388l0.807,0.058
		l1.508-0.041l1.787,0.049l1.803,0.14l0.593,0.206l0.495,0.215l0.18,0.354l-0.016,0.371l-0.066,0.444l-0.173,0.338l-0.222,0.255
		l-0.676,0.156l-0.799,0.173l-0.354,0.132l-0.157,0.247l-0.065,0.23l-0.165,0.585l-0.173,0.37l-0.437,0.322l-0.519,0.164
		l-0.717,0.066l-0.691,0.016l-0.527,0.074l-0.584-0.205h-0.749l-0.412,0.37l-0.174,0.403l-0.255,1.235l-0.478,1.581l-0.52,1.59
		l-0.575,1.111l-0.726,0.914l-0.905,0.708l-1.482,0.692l-1.128,0.082l-0.898-0.05l-0.684-0.206l-0.345,0.206l-0.288,0.609
		l-0.52,0.873l-0.65,0.461l-0.741,0.264l-0.881,0.189l-0.882,0.197l-0.576,0.132l-0.832,0.626l-1.935,1.614l-2.429,1.688
		l-0.363,0.247l-1.079,0.881l-0.823,0.873l-0.963,1.119l-0.585,0.774l-0.288,0.865l-0.132,0.881v1.219l-0.115,1.07l-0.173,1.005
		l0.132,0.527l0.519,0.519l0.231,0.527l0.082,0.519l0.049,0.444l0.23,0.527l0.519,0.634l0.008,0.429l-0.404,0.675l-1.037,1.005
		l-0.997,0.807l-0.321,0.618l-0.049,0.519l0.264,0.725l0.23,0.609l-0.016,0.577l-0.132,0.387l-0.56,0.593l-0.65,0.28l-0.659,0.181
		l-0.437,0.23l-0.181,0.37l-0.296,1.021l-0.042,1.038l0.14,0.84l-0.206,0.873l-0.816,0.963l-0.7,0.692l-0.856,0.337l-1.152-0.017
		l-1.26-0.337l-1.565-0.782l-1.021-0.346l-0.692-0.017l-0.576,0.197l-0.708,0.881l-0.354,0.882v0.346l0.642,0.725l1.153,0.519
		l0.997,0.387l0.757,0.585l1.243,0.931l1.194,0.527l0.675,0.56l0.173,0.238l-0.173,0.52L5.697-93.53l-0.478,0.306l-0.807,0.032
		l-0.494-0.074l-0.807-0.511l-0.609-0.519l-0.222-0.09l-0.214,0.181l-0.379,0.643L1.654-93.06l0.313,0.527l0.107,0.519l-0.321,0.609
		l-0.609,0.691l-0.865,0.297l-0.856,0.148l-0.667,0.065l-0.428,0.239l-0.387,0.411l-0.856,1.367l-0.305,0.922l-0.181,0.989
		l-0.404,0.725l-0.519,0.658l-1.112,0.602l-0.733,0.181l-1.458,0.1l-0.774,0.131l-0.716,0.527L-9.9-82.396l-0.395,0.914
		l-0.939,1.779l-0.922,1.795l-0.544,1.137l-0.526,0.329l-0.659,0.173l-1.062,0.065l-1.177,0.033l-0.716,0.182l-0.396,0.329
		l-0.626,0.634l-0.469,0.741l-0.132,0.379l0.042,0.561l0.172,0.494l-0.09,0.436l-0.181,0.362l-0.272,0.404l-0.519,0.312
		l-0.791,0.239l-0.725,0.304l-0.667,0.618l-0.478,1.161l-0.173,0.667l-0.181,0.444l-0.494,0.609l-0.601,0.626l-0.997,1.235
		l-0.791,0.873l-0.502,0.732l-0.116,0.684l0.42,0.832l0.634,0.758l0.222,0.675l-0.09,0.709l-0.255,0.625l-1.021,0.758l-0.725,0.52
		l-0.469,0.782l-0.461,1.655l-0.296,1.234l-0.799,1.228l-0.519,1.07l-0.182,0.799l0.107,1.087l0.255,0.733l0.247,1.062l0.272,0.791
		l0.165,0.873l-0.511,1.416l-0.733,1.614l-0.074,1.367l0.345,1.515l0.561,1.491l0.634,1.589l0.017,0.873l-0.272,1.186l-0.321,0.832
		l-0.519,0.675l-0.708,0.52l-1.045,0.255l-1.153-0.082l-0.56,0.214l-0.231,0.42l-0.049,0.676l0.115,0.502l0.584,0.486l0.387,0.188
		l0.692-0.016l0.371,0.032l0.239,0.197v0.338l-0.181,1.235l-0.173,1.417l-0.247,0.831l-0.551,0.708l-0.865,0.585l-0.742,0.247
		l-0.667-0.065l-0.963-0.362l-0.617-0.132l-0.634,0.305l-0.255,0.329l-0.371,0.832l-0.058,0.757l-0.181,1.153l-0.041,1.276
		l0.296,1.82l0.798,1.646l-0.684,0.882l-0.938,0.996l-0.527,0.387l-0.321,0.634l-0.412,0.832l0.14,0.626l0.584,0.593l0.198,0.479
		l0.058,0.79l0.173,0.848l0.634,0.52l0.494,0.362l0.255,0.396l0.148,0.839L-35-8.085l1.071,0.791l0.733,1.235l0.527,0.964
		l-0.099,0.848l-0.363,0.725l-0.881,1.12l-0.873,0.181l-1.317,0.174l-1.235,0.205l-1.351-0.008l-1.285-0.091l-0.527,0.173
		L-41.2-1.241l-0.502,0.947l-1.392,1.234l-1.367,0.923l-1.4,0.543h-1.013l-0.906,0.05l-1.441-0.437l-1.565-0.758l-0.997-0.478
		l-1.227-0.247l-0.741,0.305l-0.733,0.799l-1.268,1.252l-1.968,4.727l-1.466,2.865l-1.391,3.18l-2.537,6.25l-0.848,2.289
		l-0.42,1.277l0.322,1.358l0.519,1.433l-0.074,1.449l-0.486,0.972l-1.153,1.399l-1.499,0.709l-1.087,0.379h-0.881l-1.038-0.379
		l-0.362,0.082l-0.223,0.659l0.387,1.005l0.609,1.663l-0.222,1.351l0.074,1.491l0.568,1.243l0.708,0.181l1.235-0.041l1.318-0.173
		l1.351-0.28l0.675-0.033l1.145,0.207l0.65,0.23l0.469,0.46l0.214,1.557l-0.181,1.936l-0.494,1.655l-0.733,1.622l-0.189,1.581
		l0.198,1.993l0.725,1.696l0.181,0.519l-0.469,0.52l-0.766,0.411l-1.252,0.52l-1.062,0.542l-0.873,0.635l-1.07,1.243l-0.461,0.882
		l-0.28,1.672l0.017,1.54l0.387,2.568l0.856,1.936l0.19,1.334l0.189,0.923l-0.173,0.526l-0.478,0.519l-0.766,0.182l-2.182,0.083
		l-1.013,0.288l-0.263,0.287l-0.379,0.52l0.223,0.873l0.172,0.741l-0.535,0.872l-0.56,0.824l0.074,0.955l1.005,0.881l0.971,0.75
		l0.692,1.523l0.576,2.141l0.89,1.129l-0.008,1.325l0.017,5.451l-1.227,0.593l-1.013,0.527l-1.465,1.137l-1.071,0.922l-0.881,1.499
		l-0.461,1.095l0.222,0.676l0.856,1.235l0.997,0.848l2.034,1.59l2.281,1.927l1.013,1.137l0.816,1.317l0.099,1.021v0.568
		l-0.371,0.774l-0.643,0.873l-0.708,0.296l-1.136,0.552l-2.018,0.503l-2.405,0.675l-2.635,0.89l-2.075,0.346l-1.433-0.106
		l-1.466-0.157l-1.408-0.362l-1.293-0.535l-1.087-0.444h-1.087l-0.963,0.28l-0.296,0.411l0.148,0.741l0.247,0.922l0.058,0.791
		l-0.106,0.774l-0.181,0.379l-0.643,1.144l-0.733,0.562l-1.178,0.378l-0.708,0.182l-0.881,0.024l-0.667-0.14l-0.815-0.107
		l-0.89-0.091l-1.375,0.296l-1.573,0.272l-0.873,0.058l-0.65-0.033l-0.989-0.444l-1.12-0.479l-1.795-0.954l-1.646-0.709
		l-1.425-0.246l-0.601,0.173l-0.84,0.115l-0.535,0.444l-0.321,0.52l0.091,0.56l0.65,0.511l0.568,0.881l0.091,0.889l-0.289,1.104
		l-0.346,0.61l-0.7,0.411l-1.104,0.182l-1.301-0.1l-1.4,0.124l-0.593,0.164l-0.461,0.42l-0.181,0.808l0.181,0.972l0.173,0.585
		l-0.239,0.774l-0.371,0.642l-2.256,2.651l-0.511,1.096l-0.017,0.864l0.915,1.228l2.635,2.627l2.239,2.289l1.153,1.276l0.173,0.511
		l-0.099,0.527l-0.774,0.79l-1.235,0.494l-0.989,0.511l-2.248,0.823l-1.013,0.14l-0.585,0.182l-0.881,0.502l-0.527,0.635
		l-0.625,0.625l-3.335,3.5l-1.227,1.614l-0.337,0.856l-0.182,0.972l0.42,1.228l1.062,0.872l0.494,0.644l0.14,0.855l-0.198,1.228
		l-0.395,1.054l-0.824,1.408l-0.346,0.526l-0.51,0.52l-0.758,0.182l-0.889-0.182l-0.963-0.362l-0.412-0.189l-0.84-0.074l-0.7,0.074
		l-0.412,0.189l-0.255,0.52l-0.017,0.946l0.873,2.544l0.223,0.553l1.441,3.541l2.108,5.138l1.029,3.871l0.337,1.812l0.066,2.125
		l-0.124,1.284l0.519,1.096l0.881,1.407l0.321,1.088l0.074,1.186l-0.486,1.457l-0.396,0.914l-0.197,1.07l0.494,0.824l0.84,0.814
		l0.28,0.841l-0.173,1.581l-0.115,0.658l-0.296,1.178l0.058,1.07l1.038,0.906l3.763,1.894l2.298,0.791l0.486-0.099l0.23-0.478
		l0.56-0.988l0.865-0.561l1.26-0.345l1.087-0.256l0.387-0.107l1.285-0.165l1.671,0.223l0.824,0.346l0.757,0.676l0.807,1.038
		l0.148,1.227l0.527,1.087l0.379,0.396l0.741,0.246l2.035,0.05l1.391-0.691l0.947-0.848l0.708-1.252l0.428-1.458l0.717-1.737
		l0.873-1.079l0.783-0.799l0.732-0.206l1.128,0.017l1.219,0.256l1.145,0.593l0.478,0.511l0.642,0.155l0.255-0.345l-0.049-0.594
		l-0.593-1.078l-0.527-1.293v-0.857l0.255-1.053l0.511-0.577l0.782-0.881l0.519-0.922l0.692-1.104l0.593-0.478l0.354-0.033
		l0.519,0.494l0.189,1.762l0.42,3.006l0.28,1.623l0.429,0.872l0.271,0.116h0.396l0.56-0.396l2.701-2.404l1.103-0.874l2.149-0.988
		l2.882-1.63l3.871-1.261l3.672-1.234l4.159-1.152l4.463-0.676l2.965-0.395l2.619,0.049l1.565,0.436l0.823,0.479l0.561,1.68
		l0.271,2.586l0.321,6.044l0.189,0.79l0.453,0.421l0.881,0.402l2.306,0.033l11.594,0.297l2.438,0.033l0.724-0.115l0.634,0.28
		l1.762,1.152l1.351,0.28l1.046-0.181l0.667-0.495l0.206-0.856l0.264-0.493l0.791-0.297l1.425-0.174l0.864-0.328l0.881-0.396
		l0.832-0.988l1.293-1.31l0.93-1.63l0.717-1.252l0.535-0.617l0.642-0.091l0.963,0.411l0.7,0.881l0.239,1.466v1.532l-0.263,1.613
		l-0.783,1.352l-2.33,3.03l-2.586,3.235l-1.194,1.508l-0.519,0.881l-0.346,0.725l0.172,0.65l0.692,0.635l0.881,0.444l1.219,0.123
		l0.906-0.658l0.609-1.07l0.14-1.194l0.025-1.457l0.346-1.097l0.519-0.65l0.626-0.155h0.667l1.606,0.675l0.93,1.228l0.972,1.35
		l0.618,0.659l0.691,0.526l0.889,0.174l0.832-0.231l0.84-1.104L-5.115,197.994"/>
</g>
<g id="Layer_1_1_">
</g>
</svg>
