<?xml version="1.0" encoding="iso-8859-1"?>
<!-- Generator: Adobe Illustrator 16.0.4, SVG Export Plug-In . SVG Version: 6.00 Build 0)  -->
<!DOCTYPE svg PUBLIC "-//W3C//DTD SVG 1.1//EN" "http://www.w3.org/Graphics/SVG/1.1/DTD/svg11.dtd">
<svg version="1.1" xmlns="http://www.w3.org/2000/svg" xmlns:xlink="http://www.w3.org/1999/xlink" x="0px" y="0px"
	 width="63.395px" height="29.715px" viewBox="0 0 63.395 29.715" style="enable-background:new 0 0 63.395 29.715;"
	 xml:space="preserve">
<g id="Layer_164">
	<g id="Layer_169">
		<path id="Chakwal" style="fill:#CCCCCC;stroke:#FFFFFF;stroke-width:1.07;" d="M8.39,29.424
			L8.39,29.424l0.013-0.131l0.062-0.309l0.055-0.215l0.138-0.111l0.168-0.113l0.116-0.032h0.153l0.242,0.017l0.189-0.02l0.161-0.039
			l0.052-0.043l0.021-0.038l-0.021-0.081L9.619,28.26l-0.03-0.049l-0.052-0.118l-0.002-0.167l0.042-0.168L9.7,27.615l0.168-0.125
			l0.327-0.109l0.265-0.082l0.897-0.264l0.688-0.234l0.321-0.102l0.139-0.076l0.168-0.144l0.276-0.263l0.35-0.25l0.197-0.119
			l0.188-0.057l0.63-0.197l0.205-0.057l0.343-0.082l0.301-0.076l0.271-0.106l0.08-0.093l0.028-0.1l0.051-0.057l0.109-0.057
			l0.301-0.064l0.212-0.102l0.116-0.131l0.063-0.148l0.015-0.093l0.051-0.106l0.08-0.068l0.146-0.082l0.14-0.112l0.057-0.149
			l-0.001-0.143l-0.023-0.191l-0.021-0.229l-0.076-0.316l-0.104-0.297l-0.062-0.285l-0.068-0.26l-0.022-0.167l-0.001-0.13
			l0.072-0.062l0.204-0.057l0.191-0.007l0.117,0.043l0.038,0.099l0.017,0.204l0.023,0.118l0.028,0.094l0.082,0.061l0.117,0.007
			l0.572-0.017l0.552,0.053l0.647,0.15l0.301,0.043l0.189,0.004l0.33-0.082l0.249-0.063l0.302,0.004l0.589,0.097l0.581,0.157
			l0.435,0.091l0.36,0.072l0.411,0.004l0.55-0.033l0.543-0.084l0.255-0.041l0.11-0.014l0.125-0.007l0.109,0.019l0.022,0.057
			l0.016,0.148l0.119,0.234l0.199,0.24l0.287,0.16l0.221,0.067l0.146,0.062l0.097,0.062l0.037,0.099l0.066,0.198l0.082,0.13
			l0.066,0.082l0.081,0.049l0.132,0.01l0.205-0.012l0.081-0.006l0.072,0.018l0.054,0.093l0.022,0.217v0.161l-0.037,0.4l0.01,0.168
			l0.06,0.129l0.088,0.051l0.154-0.014l0.197-0.131l0.095-0.025h0.109l0.199,0.066l0.066,0.074l0.036,0.068l0.001,0.105l0.008,0.092
			l0.03,0.15l0.072,0.08l0.206,0.012L28.139,26l0.19-0.057l0.095-0.05l0.073-0.162l0.07-0.267l0.073-0.125l0.095-0.105l0.358-0.193
			l0.227-0.168l0.183-0.23l0.176-0.188l0.271-0.235l0.293-0.229l0.18-0.109l0.108-0.045l0.146-0.019l0.271,0.056l0.229,0.055
			l0.198-0.008l0.213-0.049l0.201-0.168l0.109-0.127l0.155-0.328l0.257-0.145l0.187-0.091l0.176-0.13l0.071-0.065l0.029-0.081
			l0.146,0.104l0.069,0.101l0.041,0.142l0.011,0.244l-0.06,0.223l-0.132,0.222l-0.107,0.146l-0.07,0.082l-0.004,0.058l0.035,0.056
			l0.09,0.049l0.073-0.009l0.14-0.077l0.131-0.072l0.081-0.004l0.108,0.037l0.155,0.024l0.264-0.002l0.258,0.049l0.069,0.062
			l0.051,0.065l0.003,0.063l-0.081,0.086L34,24.459l-0.063,0.234l-0.04,0.184l0.017,0.209l0.091,0.078l0.102,0.014l0.107-0.016
			l0.096,0.025l0.07,0.072l0.018,0.102l0.049,0.518l0.003,0.008l0.477,0.328l0.365,0.287l0.232,0.209l0.455,0.149l0.387,0.042
			l0.354,0.045l0.61,0.008l0.222-0.061l0.604-0.126l0.443-0.122l0.541-0.124l0.41-0.175l0.382-0.064l0.318-0.063l0.159-0.005
			l0.256-0.034l0.315-0.118l0.313-0.199l0.119-0.193l0.008-0.119l-0.062-0.233l-0.197-0.392l-0.207-0.363l-0.057-0.08l-0.022-0.062
			l-0.004-0.071l0.037-0.127l0.071-0.103l0.05-0.082l0.007-0.108l0.002-0.207l-0.062-0.179l-0.049-0.162l-0.006-0.161l0.038-0.109
			l0.113-0.075l0.201-0.052l0.299-0.009l0.168-0.041l0.126-0.084l0.071-0.083l0.072-0.056l0.104-0.021l0.246,0.012l0.27,0.027
			l0.13,0.042l0.109,0.097l0.114,0.194l0.11,0.078l0.293,0.118l0.131,0.076l0.089,0.088l0.025,0.09l0.004,0.107l0.018,0.162
			l0.093,0.196l0.196,0.103l0.13,0.033l0.169-0.023l0.137-0.094l0.146-0.049l0.245-0.017l0.263,0.021l0.207,0.121l0.144,0.092
			l0.172,0.113l0.095,0.074l0.055,0.053l0.012,0.016l0.036,0.045l0.077,0.054l0.088,0.04l0.077,0.055l0.062,0.053l0.016,0.054
			l0.016,0.079l0.015,0.074l0.031,0.039l0.055,0.041l0.086,0.027l0.166,0.014l0.109,0.021l0.126,0.021l0.087-0.006l0.086-0.047
			l0.062-0.04l0.032-0.079v-0.074l-0.028-0.16l-0.039-0.1l-0.039-0.08l-0.009-0.053l0.017-0.04l0.04-0.032h0.062l0.095,0.02
			l0.086,0.054l0.125,0.026l0.142,0.041l0.134,0.008h0.149l0.204,0.008l0.361,0.002l0.314,0.001l0.282-0.032l0.149-0.025
			l0.175-0.053l0.108-0.051l0.063-0.074l0.023-0.06v-0.073l-0.031-0.053l0.001-0.072l0.04-0.074l0.071-0.072l0.071-0.039
			l0.086-0.014l0.149,0.021l0.156,0.041l0.231,0.041l0.199,0.029l0.232,0.033l0.231,0.054l0.178,0.021l0.122,0.004l0.205-0.041
			l0.11-0.031l0.083-0.061l0.097-0.089l0.045-0.094l0.066-0.132l0.058-0.139l0.027-0.1l-0.016-0.084l-0.033-0.051l-0.021-0.086
			l-0.005-0.078l0.022-0.1l0.039-0.056l0.056-0.032h0.072h0.089l0.104-0.022l0.123-0.046l0.108-0.045l0.033-0.027l0.018-0.042
			l0.001-0.062v-0.056l0.033-0.062l0.057-0.022h0.071l0.101,0.033l0.071,0.01l0.057-0.014l0.021-0.033l0.018-0.062l0.012-0.056
			v-0.084l0.029-0.084l0.05-0.032l0.066-0.019l0.044,0.005l0.055,0.053l0.056,0.094l0.061,0.125l0.027,0.08l0.021,0.117l0.032,0.1
			l0.025,0.094l0.056,0.074l0.071,0.058l0.051,0.009l0.027-0.014l0.044-0.042l0.062-0.037l0.065-0.022l0.066-0.015l0.078,0.015
			l0.077,0.033l0.1,0.053l0.077,0.047l0.1,0.099l0.061,0.07l0.061,0.104l0.061,0.084l0.089,0.07l0.104,0.085l0.183,0.104
			l0.151,0.104l0.14,0.052l0.154,0.029l0.133,0.02l0.1,0.006l0.101-0.014l0.09-0.037l0.084-0.056l0.045-0.08l0.007-0.146
			l-0.021-0.141l-0.016-0.09v-0.078l0.001-0.084l-0.011-0.09l-0.032-0.094l0.007-0.112l0.034-0.108l0.078-0.082l0.101-0.057
			l0.128-0.051l0.179-0.079l0.2-0.11l0.098-0.06l0.051-0.038l0.065-0.009l0.111,0.001l0.127,0.01l0.105,0.024l0.116,0.028H57.1
			l0.045-0.008l0.044-0.043l0.034-0.027l0.039-0.019l0.07,0.011h0.084h0.062l0.062-0.033l0.09-0.064l0.084-0.068l0.05-0.057
			l0.001-0.057l-0.026-0.116l-0.038-0.07l-0.017-0.057l0.012-0.056l0.051-0.065l0.052-0.047l0.055-0.009h0.056l0.122,0.02
			l0.111,0.02l0.133,0.011l0.133-0.005l0.066-0.026l0.062-0.056l0.008-0.065l-0.021-0.071l-0.038-0.094l-0.038-0.08l-0.021-0.084
			l0.018-0.074l0.028-0.043l0.05-0.027h0.077l0.155,0.029l0.288,0.039l0.222,0.045l0.199,0.033l0.122,0.034l0.044,0.028l0.026,0.052
			l0.044,0.071l0.051,0.041l0.061,0.029l0.088,0.006h0.277l0.344,0.002l0.282,0.011l0.116-0.019l0.067-0.051l0.045-0.061
			l0.034-0.107l0.056-0.111l0.052-0.061l0.057-0.042l0.066-0.037l0.089-0.009l0.116,0.012l0.172,0.038l0.217,0.011l0.154,0.024
			l0.144,0.043l0.266,0.077l0.078,0.016h0.072l0.065-0.033l0.096-0.068l0.034-0.047l0.033-0.112l0.02-0.126l0.007-0.104
			l-0.021-0.088l-0.037-0.039l-0.077-0.037l-0.062-0.043l-0.045-0.053l-0.043-0.074l-0.043-0.119l-0.066-0.295l-0.03-0.229
			l-0.07-0.207l-0.063-0.221l-0.063-0.254l-0.06-0.282l-0.031-0.164l-0.033-0.207l-0.016-0.062l-0.027-0.037l-0.05-0.024H61.95
			h-0.066l-0.071-0.019l-0.017-0.024l-0.016-0.058l0.018-0.088l0.012-0.121l-0.009-0.137l-0.021-0.07l-0.082-0.112l-0.147-0.17
			l-0.165-0.156l-0.133-0.122l-0.064-0.057l-0.028-0.01h-0.021l-0.021,0.019l-0.022,0.046l-0.04,0.064l-0.039,0.052l-0.038,0.047
			l-0.04,0.032l-0.056,0.019l-0.072,0.009l-0.134-0.021l-0.237-0.044l-0.166-0.049l-0.204-0.08l-0.117-0.057l-0.127-0.008
			l-0.194-0.011l-0.148-0.011l-0.301-0.002l-0.178-0.01l-0.193-0.002l-0.195,0.008l-0.104-0.148l-0.033-0.096l-0.062-0.094
			l-0.087-0.097l-0.12-0.063l-0.109-0.078l-0.047-0.068l-0.012-0.074l0.019-0.049l0.024-0.023l0.029-0.019l0.05-0.043l0.034-0.034
			l0.021-0.047l0.032-0.057l0.027-0.073l0.092-0.184l0.062-0.176l0.031-0.147l0.023-0.244l-0.008-0.249l-0.061-0.324l-0.059-0.132
			l-0.023-0.082l0.021-0.06l0.036-0.045l0.041-0.039l0.062-0.008l0.125,0.007l0.084,0.013l0.104-0.013l0.053-0.031l0.052-0.055
			l0.035-0.073l0.01-0.078l-0.004-0.079l0.017-0.048l0.045-0.05l0.057-0.048l0.029-0.041l0.009-0.044l0.002-0.044l-0.003-0.134
			l0.02-0.3l0.062-0.337l0.022-0.069l0.047-0.102l0.059-0.07l0.084-0.075l0.091-0.109l0.082-0.103l0.199-0.259l0.198-0.216
			l0.226-0.212l0.156-0.172l0.129-0.168l0.154-0.208L60.658,11l0.073-0.313l0.031-0.154l0.044-0.044l0.055-0.014l0.041-0.03
			l0.056-0.021l0.089-0.095l0.129-0.168l0.048-0.138l0.012-0.099L61.223,9.82l-0.086-0.122L60.74,9.293L60.154,8.73l-0.086-0.122
			l-0.002-0.034l0.022-0.069l0.002-0.05l-0.034-0.077l-0.059-0.096l-0.06-0.088l-0.036-0.07l0.005-0.064l0.027-0.046l0.055-0.1
			l0.169-0.314l0.027-0.09l-0.001-0.079l-0.014-0.06l-0.058-0.095l-0.055-0.109l-0.034-0.12l0.001-0.086l0.031-0.111l0.075-0.119
			l0.134-0.139l0.187-0.196l0.273-0.186l-0.032-0.045L60.66,6.122l-0.033-0.041l-0.03-0.035l-0.029-0.028l-0.027-0.02l-0.022-0.012
			l-0.021-0.004l-0.021,0.001l-0.02,0.005l-0.017,0.009l-0.018,0.011L60.406,6.02l-0.016,0.012l-0.017,0.012L60.36,6.055
			l-0.015,0.012l-0.014,0.011l-0.013,0.01l-0.012,0.009l-0.012,0.009l-0.009,0.008l-0.008,0.006l-0.007,0.005L60.267,6.13
			l-0.006,0.004l-0.007,0.003L60.249,6.14l-0.005,0.002l-0.006,0.001h-0.005h-0.006l-0.005-0.001L60.217,6.14l-0.005-0.003
			l-0.005-0.004l-0.004-0.004L60.2,6.123l-0.004-0.006l-0.003-0.007L60.19,6.103l-0.004-0.007l-0.006-0.008L60.174,6.08
			l-0.007-0.008l-0.009-0.007l-0.011-0.007L60.137,6.05l-0.014-0.007L60.11,6.038l-0.014-0.006l-0.015-0.006L60.068,6.02
			l-0.013-0.006l-0.014-0.006l-0.014-0.006l-0.012-0.006L60.002,5.99l-0.013-0.004l-0.014-0.003l-0.014-0.002L59.946,5.98
			l-0.014-0.001L59.916,5.98l-0.015,0.001l-0.015,0.002L59.87,5.986l-0.014,0.003l-0.014,0.003l-0.015,0.004L59.816,6l-0.012,0.004
			l-0.011,0.004L59.783,6.01l-0.009,0.002l-0.009,0.002l-0.008,0.001h-0.007l-0.008-0.001l-0.007-0.001L59.73,6.011l-0.006-0.003
			l-0.006-0.003l-0.006-0.004l-0.008-0.004l-0.009-0.004l-0.008-0.005L59.68,5.984L59.67,5.98l-0.01-0.004l-0.01-0.003l-0.01-0.002
			l-0.01-0.002h-0.01H59.61L59.6,5.97l-0.014,0.002l-0.019,0.004L59.547,5.98l-0.026,0.006l-0.031,0.007L59.45,6.001L59.406,6.01
			l-0.051,0.01l-0.055,0.01L59.24,6.042l-0.062,0.01l-0.065,0.01L59.047,6.07l-0.069,0.008l-0.07,0.007l-0.069,0.006l-0.072,0.006
			l-0.071,0.004l-0.073,0.004L58.55,6.108L58.478,6.11l-0.071,0.001l-0.068,0.001L58.27,6.113h-0.062l-0.061,0.001l-0.054,0.002
			L58.047,6.12l-0.039,0.004l-0.03,0.006l-0.022,0.008l-0.018,0.009l-0.012,0.009l-0.008,0.011l-0.007,0.01l-0.003,0.01
			l-0.004,0.009L57.9,6.205l-0.005,0.008L57.89,6.219l-0.007,0.007l-0.008,0.006l-0.01,0.005l-0.008,0.004l-0.01,0.003l-0.01,0.003
			l-0.011,0.001L57.815,6.25h-0.011h-0.012H57.78L57.769,6.25l-0.012-0.001l-0.013-0.001l-0.012-0.001l-0.012-0.002l-0.012-0.002
			L57.697,6.24l-0.01-0.003l-0.01-0.003l-0.011-0.003l-0.008-0.003L57.65,6.226l-0.006-0.004l-0.007-0.004l-0.005-0.004
			l-0.006-0.005l-0.003-0.005l-0.003-0.006L57.619,6.19l-0.001-0.007l-0.001-0.008V6.167V6.16V6.151l-0.001-0.008l-0.001-0.008
			l-0.002-0.008L57.611,6.12l-0.004-0.008l-0.004-0.007L57.6,6.098l-0.005-0.006l-0.006-0.006l-0.006-0.005l-0.006-0.005
			L57.57,6.072l-0.007-0.003l-0.007-0.002l-0.009-0.002l-0.007-0.001h-0.008h-0.008l-0.009,0.002l-0.009,0.002l-0.009,0.003
			L57.49,6.076l-0.007,0.003l-0.009,0.004l-0.007,0.004L57.459,6.09l-0.006,0.004l-0.006,0.004l-0.006,0.005l-0.005,0.004
			l-0.005,0.006L57.428,6.12l-0.004,0.007l-0.005,0.008l-0.004,0.009l-0.004,0.01l-0.003,0.012l-0.003,0.012l-0.004,0.012
			l-0.003,0.014l-0.003,0.014l-0.003,0.014L57.39,6.246l-0.003,0.014l-0.004,0.014l-0.002,0.014l-0.004,0.014l-0.002,0.014
			L57.373,6.33l-0.002,0.014L57.37,6.357l-0.001,0.014l-0.002,0.015l-0.001,0.016l-0.002,0.017l-0.003,0.019l-0.004,0.02
			l-0.004,0.023l-0.008,0.025l-0.007,0.027l-0.008,0.028L57.323,6.59l-0.01,0.029l-0.009,0.029l-0.01,0.028l-0.008,0.027
			l-0.008,0.025l-0.008,0.023l-0.008,0.021l-0.007,0.021l-0.008,0.019L57.243,6.83l-0.007,0.015l-0.007,0.014l-0.007,0.012
			l-0.008,0.012l-0.008,0.01L57.2,6.901L57.193,6.91l-0.008,0.007l-0.009,0.007l-0.009,0.007L57.16,6.936l-0.009,0.006l-0.009,0.005
			l-0.01,0.005l-0.01,0.004l-0.01,0.004l-0.011,0.003l-0.012,0.003l-0.012,0.002l-0.012,0.001l-0.013,0.001l-0.013,0.001
			l-0.014,0.001l-0.013,0.001H57l-0.014,0.001l-0.016,0.001l-0.014,0.002l-0.015,0.001l-0.015,0.002L56.913,6.98l-0.014,0.001
			l-0.016,0.002l-0.013,0.001l-0.014,0.001h-0.014h-0.013h-0.014l-0.014-0.001l-0.015-0.002L56.775,6.98L56.76,6.977l-0.017-0.004
			l-0.017-0.005l-0.018-0.006l-0.018-0.008l-0.02-0.009l-0.017-0.01l-0.018-0.012L56.62,6.91l-0.016-0.015l-0.017-0.016L56.573,6.86
			l-0.016-0.019l-0.017-0.019l-0.017-0.02l-0.018-0.021l-0.02-0.021l-0.021-0.022l-0.021-0.022l-0.021-0.021l-0.021-0.021
			l-0.021-0.021l-0.021-0.021l-0.021-0.018l-0.019-0.016l-0.018-0.014l-0.016-0.012l-0.013-0.011l-0.011-0.01l-0.011-0.009
			l-0.008-0.008L56.24,6.525l-0.004-0.009l-0.003-0.01l-0.002-0.011V6.483V6.471l0.002-0.015l0.002-0.016l0.002-0.018l0.001-0.02
			l0.001-0.022l0.002-0.023V6.332l0.001-0.029l0.001-0.03V6.239V6.203V6.164V6.122V6.078l0.002-0.045V5.988l0.001-0.045l0.002-0.043
			l0.002-0.042l0.003-0.038l0.004-0.034l0.003-0.03l0.002-0.027l0.001-0.022l-0.002-0.019l-0.004-0.016l-0.01-0.012L56.233,5.65
			l-0.02-0.006l-0.022-0.003l-0.027-0.001l-0.03,0.001l-0.031,0.002l-0.034,0.003L56.035,5.65l-0.033,0.004L55.97,5.659L55.94,5.663
			l-0.029,0.004L55.884,5.67l-0.026,0.003l-0.025,0.004l-0.023,0.003l-0.023,0.003l-0.022,0.003l-0.021,0.002l-0.021,0.003
			L55.7,5.692l-0.021,0.001l-0.02,0.001h-0.021l-0.021-0.001l-0.021-0.002l-0.02-0.002l-0.021-0.002l-0.018-0.002l-0.017-0.001
			h-0.016l-0.012,0.002l-0.01,0.004l-0.009,0.007l-0.003,0.009l-0.002,0.011v0.012l0.001,0.014l0.002,0.015l0.002,0.015l0.004,0.015
			l0.002,0.015l0.001,0.015l0.001,0.014v0.014l-0.001,0.015l-0.001,0.014L55.48,5.89l-0.004,0.014l-0.003,0.015L55.47,5.933
			l-0.005,0.015l-0.006,0.015l-0.006,0.014l-0.008,0.014l-0.008,0.014l-0.009,0.013l-0.01,0.012l-0.01,0.013l-0.011,0.011
			l-0.013,0.012l-0.012,0.012l-0.013,0.013l-0.015,0.014L55.333,6.12l-0.015,0.016l-0.016,0.018l-0.016,0.019l-0.016,0.02
			l-0.018,0.021l-0.016,0.021L55.22,6.258l-0.017,0.023l-0.019,0.024l-0.018,0.024L55.15,6.354l-0.019,0.025l-0.017,0.025
			l-0.018,0.025l-0.017,0.026l-0.017,0.024l-0.016,0.025l-0.016,0.024l-0.016,0.024l-0.015,0.024l-0.017,0.023l-0.015,0.023
			l-0.017,0.022l-0.018,0.022l-0.017,0.021L54.9,6.708l-0.02,0.021l-0.021,0.02l-0.021,0.019l-0.023,0.018l-0.023,0.017
			l-0.025,0.016l-0.028,0.015L54.71,6.847l-0.029,0.012l-0.029,0.012l-0.029,0.012l-0.029,0.012l-0.029,0.012l-0.026,0.012
			L54.51,6.933l-0.026,0.014l-0.026,0.016l-0.028,0.017l-0.029,0.019l-0.032,0.02L54.33,7.04l-0.041,0.023l-0.047,0.025L54.19,7.115
			l-0.055,0.028L54.078,7.17l-0.061,0.028l-0.062,0.027l-0.062,0.026l-0.062,0.025l-0.062,0.022L53.71,7.319l-0.06,0.018
			l-0.057,0.015l-0.057,0.013l-0.055,0.01l-0.052,0.007L53.38,7.387l-0.047,0.001h-0.045l-0.044-0.003l-0.039-0.005l-0.036-0.006
			l-0.033-0.008l-0.029-0.008L53.081,7.35L53.06,7.341l-0.018-0.008l-0.017-0.008l-0.013-0.009l-0.011-0.01l-0.011-0.011
			l-0.008-0.012l-0.008-0.015l-0.009-0.016l-0.008-0.018l-0.008-0.018l-0.009-0.019l-0.006-0.02l-0.006-0.019L52.926,7.14
			l-0.003-0.018l-0.001-0.016l0.001-0.015l0.001-0.015l0.003-0.015l0.004-0.015l0.004-0.016l0.007-0.017l0.008-0.02l0.006-0.021
			l0.008-0.023l0.008-0.024l0.007-0.026l0.007-0.027l0.008-0.028l0.007-0.029l0.005-0.03l0.003-0.03l0.004-0.03l0.002-0.03
			l0.001-0.03l0.001-0.029l-0.001-0.028V6.581l-0.001-0.026l-0.002-0.024l-0.002-0.022l-0.003-0.021l-0.003-0.02l-0.005-0.019
			l-0.005-0.018l-0.006-0.017l-0.009-0.016L52.97,6.381l-0.011-0.015l-0.01-0.014l-0.014-0.014l-0.013-0.013l-0.014-0.013
			l-0.017-0.013l-0.015-0.013l-0.016-0.013l-0.018-0.014l-0.017-0.013L52.81,6.233l-0.019-0.012l-0.02-0.012l-0.021-0.011
			l-0.021-0.01L52.71,6.18l-0.021-0.008l-0.021-0.007l-0.021-0.006l-0.021-0.006l-0.021-0.006l-0.018-0.005l-0.016-0.005
			l-0.015-0.005l-0.012-0.005l-0.01-0.005l-0.008-0.005l-0.007-0.005l-0.006-0.005l-0.003-0.005L52.51,6.097l-0.002-0.005V6.086
			l0.003-0.005l0.004-0.006l0.007-0.008l0.012-0.008l0.014-0.01l0.02-0.012l0.021-0.013l0.025-0.015l0.025-0.017l0.026-0.018
			l0.022-0.019l0.021-0.02l0.014-0.021l0.006-0.021l-0.003-0.021L52.712,5.85l-0.021-0.024l-0.027-0.027L52.629,5.77l-0.041-0.031
			L52.54,5.704l-0.052-0.04l-0.06-0.042l-0.062-0.041L52.3,5.547l-0.074-0.019l-0.08,0.002L52.059,5.56l-0.094,0.062l-0.118,0.028
			l-0.079-0.014l-0.184-0.084l-0.229-0.135l-0.06-0.046l-0.185,0.049l-0.186,0.095l-0.14-0.026l-0.163-0.093l-0.129-0.084
			L50.38,5.256l-0.214,0.028l-0.135,0.041L49.936,5.35l-0.119-0.051l-0.113-0.125l-0.106-0.248l-0.093-0.117l-0.174-0.08
			l-0.104-0.105l-0.118-0.164L49.009,4.25l0.037-0.192L49.037,3.92l-0.021-0.136l-0.038-0.168l-0.028-0.172l-0.107-0.252
			l-0.143-0.155l-0.256-0.014L48.145,3.05L47.656,3.12l-0.25,0.066l-0.141,0.066l-0.2,0.053L46.962,3.3l-0.197-0.085l-0.233-0.143
			l-0.215,0.095l-0.198,0.016l-0.187,0.058l-0.15,0.087l-0.118,0.07l-0.11,0.012l-0.148-0.063l-0.138-0.016l-0.12-0.038L44.963,3.18
			l-0.08-0.03l-0.119,0.038l-0.04,0.042l-0.012,0.255l-0.095,0.024l-0.149-0.042L44.24,3.44l-0.15,0.004l-0.104-0.072l-0.13-0.188
			l-0.219-0.063l-0.272-0.131l-0.406-0.278l-0.468-0.257l-0.243-0.156l-0.163-0.13L41.93,2.152l-0.289,0.041l-0.348-0.092L40.8,2
			l-0.289-0.03l-0.104-0.03l-0.033-0.167L40.345,1.65L40.186,1.5l-0.219-0.189l-0.158-0.113L39.58,1.23l-0.246,0.129L39.08,1.375
			l-0.203-0.101l-0.114-0.038l-0.216,0.138l-0.134,0.058l-0.226-0.03l-0.242-0.168L37.77,1.188L37.69,1.222L37.55,1.393
			l-0.071,0.163l-0.17,0.184l-0.35,0.2l-0.266,0.093l-0.055-0.074l0.01-0.194l-0.054-0.013h-0.073L36.42,1.761l-0.187,0.007
			l-0.131-0.024l-0.079-0.026l-0.139-0.004L35.759,1.73l-0.098,0.014l-0.105,0.027l-0.078,0.005l-0.08-0.016l-0.094-0.048
			l-0.146-0.061l-0.108-0.059l-0.084-0.057l-0.086-0.081l-0.177-0.212l-0.11-0.133l-0.127-0.177l-0.104-0.105l-0.095-0.064
			l-0.111-0.047L34.09,0.705l-0.094-0.006l-0.08-0.02L33.747,0.61l-0.143-0.049L33.5,0.543l-0.131-0.006l-0.09,0.02l-0.099,0.049
			l-0.112,0.079l-0.149,0.131L32.792,0.94l-0.391,0.345l-0.101,0.089l-0.097,0.072l-0.086,0.088l-0.093,0.122l-0.135,0.199
			l-0.073,0.108l-0.042,0.081l-0.024,0.101l-0.082,0.282l-0.045,0.139l-0.077,0.178L31.444,2.92l-0.052,0.078L31.27,3.109
			l-0.124,0.095l-0.163,0.102l-0.146,0.059L30.625,3.42L30.44,3.458l-0.243,0.024l-0.213,0.001l-0.296-0.014l-0.109,0.009
			l-0.162,0.01l-0.17,0.027l-0.222,0.052l-0.157,0.047l-0.14,0.05l-0.104,0.032l-0.198,0.033l-0.288,0.019l-0.211,0.005l-0.09-0.011
			l-0.198-0.012l-0.202-0.012L27.224,3.69l-0.263-0.021l-0.186-0.021l-0.079-0.016l-0.181-0.026l-0.174-0.017l-0.119-0.013
			l-0.157-0.002l-0.117,0.008l-0.082,0.01L25.75,3.617l-0.115,0.032l-0.112,0.057l-0.13,0.083l-0.156,0.118l-0.11,0.081l-0.075,0.03
			L24.946,4.05l-0.114,0.032l-0.136,0.025L24.53,4.119l-0.2,0.014L24.17,4.16l-0.163,0.044l-0.104,0.056l-0.142,0.059L23.66,4.341
			l-0.143,0.018l-0.177,0.008l-0.133-0.003l-0.125-0.025l-0.114-0.059l-0.107-0.051l-0.105-0.026l-0.111-0.034l-0.289-0.146
			l-0.062-0.018l-0.062-0.012l-0.067,0.008l-0.041,0.032l-0.061,0.049l-0.087,0.072L21.92,4.179l-0.09,0.031L21.709,4.23
			l-0.171,0.015L21.1,4.253l-0.212-0.002l-0.178-0.01l-0.129-0.016l-0.111-0.03l-0.084-0.057l-0.106-0.091L20.16,3.931l-0.073-0.053
			l-0.095-0.064l-0.093-0.04l-0.082-0.027l-0.101-0.026l-0.062-0.025L19.54,3.625l-0.252-0.178l-0.296-0.162l-0.073-0.041
			l-0.061-0.008L18.81,3.243L18.777,3.27l-0.019,0.059l-0.013,0.08l0.002,0.223l0.032,0.341l0.017,0.181l-0.004,0.162l-0.028,0.118
			l-0.063,0.104l-0.146,0.138l-0.191,0.203l-0.162,0.205l-0.099,0.109l-0.075,0.096l-0.039,0.094l-0.062,0.066l-0.073,0.058
			l-0.076,0.03l-0.114,0.028l-0.107,0.007l-0.106,0.007l-0.096-0.006l-0.155-0.04l-0.366-0.133l-0.163-0.055l-0.1-0.018L16.421,5.32
			l-0.202-0.003l-0.245,0.004l-0.28,0.003l-0.232,0.023l-0.167,0.011l-0.156,0.011l-0.129-0.016l-0.287-0.071l-0.146-0.04
			l-0.058-0.025l-0.09-0.06l-0.158-0.114l-0.125-0.07l-0.081-0.027l-0.126-0.033l-0.091-0.022l-0.102-0.007L13.658,4.89L13.53,4.897
			l-0.336-0.015l-0.311-0.036l-0.45-0.087L11.998,4.96l-0.221,0.058l-0.116,0.033l-0.292,0.111l-0.094,0.024l-0.158-0.006
			l-0.226-0.058L10.45,5.075l-0.125-0.006L10.21,5.083l-0.083,0.044L10.021,5.18L9.954,5.186L9.831,5.151L9.67,5.164L9.481,5.243
			L9.329,5.332L9.2,5.465L8.906,5.789L8.495,6.173l-0.54,0.447L7.668,6.838L7.054,7.187L6.663,7.41l-0.152,0.07L5.949,7.542
			L5.26,7.637L4.949,7.681L4.521,7.8L4.126,7.926L3.753,8.073L3.331,8.247L3.085,8.371L2.858,8.523L2.5,8.815L2.37,8.877
			L2.221,8.899L2.015,8.93l-0.37,0.08l-0.47,0.047L0.798,9.118L0.81,9.142L0.802,9.221l-0.073,0.13L0.682,9.475v0.119l0.026,0.141
			l0.053,0.101l0.128,0.091l0.114,0.028L1.23,9.978l0.35-0.022l0.276-0.039l0.241-0.005l0.167,0.045L2.5,10.008l0.273,0.068
			l0.146,0.034h0.088l0.08-0.028l0.128-0.045L3.35,9.98l0.088-0.034h0.061L3.651,9.97l0.128,0.039l0.128,0.057l0.06,0.073
			l0.054,0.102l0.073,0.074l0.127,0.051l0.175,0.028l0.214,0.012l0.198,0.06l0.274,0.153l0.193,0.079l0.106,0.062l0.054,0.068
			L5.441,10.9l0.027,0.102l0.1,0.147l0.08,0.096l0.04,0.152v0.135l-0.034,0.135l-0.008,0.327l0.032,0.552l0.013,0.271l0.015,0.175
			l0.119,0.406l0.146,0.266l0.08,0.152l0.026,0.169l0.02,0.198l0.033,0.141l0.026,0.062l0.094,0.056l0.102,0.061l0.193,0.091
			l0.146,0.169l0.055,0.198l0.039,0.299l0.104,0.468l0.007,0.118l0.086,0.107l0.127,0.091l0.135,0.057l0.261,0.045l0.201,0.012
			l0.189,0.049l0.207,0.084l0.22,0.103l0.154,0.103l0.153,0.129l0.113,0.058l0.119,0.017l0.175,0.019l0.087,0.022l0.025,0.051
			L9.142,16.91l-0.054,0.107l-0.062,0.096l-0.04,0.051l-0.007,0.045v0.039l0.046,0.041l0.128,0.028l0.128-0.006l0.086-0.022
			l0.106-0.049l0.062-0.007l0.032,0.013l0.026,0.078l-0.007,0.08l-0.054,0.078l-0.106,0.045l-0.095,0.073l-0.028,0.083v0.102
			l0.033,0.09l0.039,0.097l0.026,0.09l-0.008,0.084l-0.04,0.034l-0.094,0.039l-0.153,0.066L8.92,18.324l-0.208,0.084l-0.188,0.073
			L8.343,18.6L8.154,18.74l-0.207,0.123l-0.175,0.131l-0.107,0.123l-0.066,0.096L7.558,19.31l-0.046,0.039l-0.114,0.017
			l-0.061,0.012l-0.086,0.045l-0.063,0.065L7.087,19.59l-0.121,0.117l-0.188,0.084l-0.101,0.041l-0.113,0.027l-0.146,0.006
			l-0.061,0.018l-0.073,0.056l-0.208,0.158l-0.102,0.096l-0.047,0.091v0.094l0.02,0.103l0.026,0.151L5.92,20.885l-0.008,0.339
			l-0.015,0.101l-0.021,0.057l0.031,0.068l0.039,0.057l0.055,0.045l0.12,0.062l0.08,0.046l0.053,0.062l0.007,0.062l-0.007,0.057
			L6.193,21.9L6.1,21.984l-0.087,0.079l-0.04,0.058l-0.021,0.123l0.025,0.182l0.053,0.146l0.08,0.13l0.062,0.105l0.04,0.018
			l0.054,0.016l0.046,0.012l0.047,0.011l0.04,0.022l0.066,0.041l0.065,0.057l0.073,0.027l0.062,0.018h0.066l0.086,0.012l0.04,0.006
			l0.033,0.027l0.034,0.062L6.877,23.41l-0.056,0.355l-0.04,0.119l-0.055,0.062l-0.072,0.04l-0.121,0.045l-0.199,0.045l-0.229,0.039
			l-0.127,0.028l-0.039,0.028l-0.026,0.027l-0.026,0.045l-0.001,0.051l0.027,0.074l0.038,0.066l0.088,0.068l0.096,0.101l0.04,0.079
			l0.1,0.045l0.133,0.018l0.066,0.028l0.067,0.09l0.053,0.097l0.046,0.187l-0.007,0.151l0.007,0.103l0.053,0.106l0.153,0.176
			l0.232,0.191L7.212,26l0.065,0.102l0.054,0.203l-0.016,0.156l-0.047,0.23L7.208,26.99l-0.021,0.182l0.025,0.135l0.073,0.107
			l0.173,0.164l0.26,0.18l0.127,0.113l0.033,0.096l0.013,0.186l-0.012,0.18l-0.054,0.141L7.73,28.59l-0.08,0.119l-0.033,0.125
			l-0.015,0.078l0.047,0.096l0.054,0.08l0.093,0.057l0.12,0.035H8.09l0.133,0.011L8.27,29.22l0.04,0.034L8.39,29.424"/>
	</g>
</g>
<g id="Layer_1">
</g>
</svg>
