<?xml version="1.0" encoding="iso-8859-1"?>
<!-- Generator: Adobe Illustrator 16.0.4, SVG Export Plug-In . SVG Version: 6.00 Build 0)  -->
<!DOCTYPE svg PUBLIC "-//W3C//DTD SVG 1.1//EN" "http://www.w3.org/Graphics/SVG/1.1/DTD/svg11.dtd">
<svg version="1.1" xmlns="http://www.w3.org/2000/svg" xmlns:xlink="http://www.w3.org/1999/xlink" x="0px" y="0px"
	 width="26.168px" height="40.71px" viewBox="0 0 26.168 40.71" style="enable-background:new 0 0 26.168 40.71;"
	 xml:space="preserve">
<g id="Layer_88">
	<g id="Layer_93">
		<path id="Mirpur_Khas" style="fill:#CCCCCC;stroke:#FFFFFF;stroke-width:1.07;" d="
			M12.753,8.684L12.753,8.684l-0.014-0.021l-0.081-0.271l-0.133-0.338l0.017-0.032l0.047-0.179l0.003-0.107L12.574,7.57
			l-0.056-0.312l-0.152-0.38L12.27,6.521l-0.02-0.098l0.031-0.113l0.108-0.146l0.095-0.112l0.009-0.051l-0.013-0.09l-0.079-0.188
			l-0.056-0.076l-0.179-0.246l-0.123-0.155l-0.102-0.154l-0.098-0.079l-0.152-0.065L11.524,4.88l-0.14-0.08l-0.062-0.052
			l-0.081-0.104l-0.169-0.29l-0.107-0.213l0.017-0.058l0.021-0.032l0.035-0.037l0.145-0.104l0.107-0.1l0.08-0.089l0.044-0.082
			l0.002-0.062l-0.027-0.052l-0.061-0.116l-0.123-0.13l-0.169-0.144L10.822,2.96l-0.243-0.133L10.467,2.78l-0.119-0.009
			l-0.238-0.006l-0.099-0.032l-0.14-0.062L9.754,2.555L9.644,2.47l-0.18-0.144L9.247,2.245L9.114,2.21L8.946,2.138L8.764,2.096
			L8.461,2.058L8.264,2.047L8.138,2.021L8.069,1.973L7.924,1.818L7.898,1.754l-0.047-0.04L7.817,1.713l-0.028,0.02L7.76,1.763
			L7.743,1.877l-0.029,0.07L7.67,1.99L7.635,2.015L7.578,2.014l-0.077-0.04L7.349,1.87L7.078,1.667L6.856,1.522L6.662,1.384
			L6.571,1.357l-0.05,0.006L6.5,1.387L6.472,1.431L6.442,1.494l0.005,0.121l0.011,0.122L6.47,1.833l0.005,0.076L6.474,1.954
			L6.452,1.992L6.424,2.011l-0.05,0.013L6.198,2.02L5.944,2.034L5.712,2.049L5.577,2.061L5.514,2.083L5.478,2.121L5.462,2.203
			l-0.01,0.108l0.011,0.135L5.452,2.605L5.429,2.688L5.4,2.732L5.343,2.755L5.281,2.747L5.14,2.727l-0.104-0.06l-0.208-0.15
			l-0.51-0.399L3.846,1.758L3.354,1.366L3.043,1.118l-0.451-0.34L2.488,0.688l-0.09-0.078L2.258,0.556L2.166,0.54L2.082,0.538
			l-0.05,0.025l-0.03,0.05L2.001,0.689L1.998,0.817l0.019,0.134l0.025,0.109l0.019,0.114V1.2L2.039,1.219H2.011L1.9,1.186
			L1.746,1.151L1.57,1.142l-0.143,0.01L1.177,1.168L0.944,1.189L0.816,1.226L0.703,1.255L0.625,1.298L0.574,1.349L0.537,1.432
			L0.535,1.513l0.01,0.198L0.57,1.853l0.02,0.103l0.02,0.108L0.607,2.133L0.597,2.241L0.58,2.349L0.563,2.425l0.014,0.07L0.61,2.604
			l0.129,0.231l0.17,0.283l0.135,0.276l0.211,0.411L1.33,3.921l0.068,0.084l0.061,0.161l0.092,0.256l0.078,0.295l0.029,0.249
			L1.656,5.069L1.634,5.171l-0.065,0.12L1.552,5.36L1.528,5.506L1.505,5.602L1.468,5.657L1.417,5.752l-0.038,0.12L1.362,5.968
			L1.295,6.152L1.257,6.279L1.254,6.451L1.251,6.554l-0.023,0.09L1.185,6.731L1.138,6.897L1.114,7.049L1.082,7.24L1.043,7.449
			L1.037,7.703L0.998,7.855L0.982,7.97l0.004,0.103l-0.01,0.096L0.925,8.281L0.871,8.466L0.847,8.618L0.822,8.796L0.789,9.07
			L0.764,9.248l0.023,0.224l0.034,0.357l0.025,0.083l0.032,0.204l0.073,0.188l0.125,0.396l0.161,0.322l0.167,0.386l0.059,0.218
			l0.081,0.181l0.169,0.303l0.151,0.244l0.199,0.221l0.232,0.221l0.188,0.169l0.089,0.104l0.115,0.175l0.123,0.136l0.137,0.193
			l0.115,0.219l0.128,0.232l0.188,0.31l0.102,0.181l0.155,0.32l0.088,0.212l0.093,0.264l0.076,0.346l0.027,0.307l0.016,0.3
			l-0.013,0.517l0.008,0.299l0.017,0.198l0.037,0.242l0.042,0.312l0.008,0.287l0.007,0.3L4.04,18.519l0.053,0.159l0.081,0.116
			l0.013,0.034l0.008,0.023l-0.017,0.066l-0.01,0.457l-0.002,0.073l0.005,0.521l0.042,0.328l0.062,0.363l0.031,0.529l0.036,0.769
			l0.014,0.49l0.043,0.466l0.02,0.188l0.062,0.834l0.056,0.642l-0.021,0.448l0.04,0.529l0.093,0.469l0.152,0.373l0.152,0.212
			l0.238,0.24l0.342,0.245l0.352,0.227l0.298,0.217l0.192,0.124l0.175,0.063l0.228,0.146l0.34,0.161l0.354,0.116l0.388,0.072
			l0.361,0.131l0.416,0.184l0.31,0.212L9.133,29l0.044,0.278l0.028,0.291l-0.006,0.122l0.085,0.151l0.147,0.16l0.349,0.238
			l0.117,0.075l0.289,0.166l0.312,0.147l0.309,0.198l0.178,0.168l0.075,0.178l0.056,0.188l-0.013,0.122l-0.043,0.134l-0.084,0.138
			l-0.054,0.095l0.008,0.11l0.054,0.099l0.375,0.061l0.229,0.111l0.387,0.205l0.155,0.164l0.139,0.174l0.144,0.258l0.142,0.326
			l0.086,0.201l0.078,0.144l0.14,0.119l0.149,0.042l0.169,0.005l0.237-0.024l0.264-0.076l0.266-0.086l0.622-0.183l0.381-0.051
			l0.413,0.012l0.556,0.038l0.361,0.057l0.422-0.004l0.235-0.017l0.23-0.062l0.224-0.14l0.104-0.066l0.063-0.158l0.077-0.044
			l0.075,0.023l0.021,0.116l-0.039,0.168l-0.021,0.338l0.001,0.23l0.084,0.1l0.113,0.148l0.155,0.157l0.164,0.12l0.155,0.127
			l0.113,0.149l0.143,0.25l0.052,0.225v0.276l0.026,0.191l0.088,0.118l0.146,0.182l0.178,0.196l0.063,0.133l0.003,0.146
			l-0.002,0.069l-0.011,0.061l-0.045,0.062l-0.036,0.098l-0.022,0.161l0.001,0.229l-0.021,0.13l-0.046,0.1l-0.054,0.075
			l-0.061,0.044l-0.028,0.084l0.023,0.077l0.022,0.055l-0.003,0.077l-0.036,0.053l-0.052,0.037l-0.077,0.043l-0.052,0.037
			l-0.054,0.099l-0.054,0.061l-0.076,0.028l-0.111,0.059l-0.036,0.067l-0.002,0.055l0.015,0.062l-0.003,0.093l-0.026,0.067
			l-0.035,0.053l-0.088,0.083l-0.062,0.061l-0.045,0.066l-0.019,0.055l0.015,0.068l0.039,0.134l0.139,0.157l0.188,0.148l0.166,0.081
			l0.153,0.049l0.12,0.014l0.083,0.059l0.031,0.109l0.019,0.178l0.03,0.164v0.014l1.235-0.295l0.189-0.081l0.172-0.212l0.264-0.125
			l0.311-0.2l0.245-0.091l0.142-0.079l0.103-0.088l0.083-0.123l0.058-0.068l0.11-0.133l0.073-0.122l0.11-0.131l0.111-0.141
			l0.056-0.054l0.095-0.044l0.048-0.001l0.15-0.003l0.077,0.051l0.059,0.025l0.086,0.042l0.086,0.016l0.104-0.019l0.142-0.062
			l0.147-0.176l0.151-0.054l0.104-0.002l0.312,0.014l0.229,0.005l0.256-0.063l0.14-0.123l0.195-0.211l0.309-0.298l0.166-0.22
			l0.167-0.156l0.187-0.133l-0.033-0.082l-0.05-0.072l-0.062-0.093l-0.083-0.072l-0.053-0.081l-0.031-0.066l-0.015-0.097
			l0.023-0.262l0.02-0.336l0.024-0.43l0.037-0.276l0.025-0.203l0.004-0.277l-0.005-0.214l-0.024-0.137l-0.035-0.065l-0.039-0.034
			l-0.1-0.045l-0.074-0.064l-0.041-0.104l-0.013-0.146l-0.014-0.234l-0.027-0.339l-0.062-0.283l-0.06-0.163l-0.085-0.149
			l-0.102-0.107l-0.136-0.131l-0.216-0.121l-0.097-0.064l-0.079-0.088l-0.106-0.166l-0.176-0.227l-0.172-0.192l-0.146-0.177
			l-0.184-0.188l-0.114-0.106l-0.064-0.077l-0.205-0.265l-0.124-0.183l-0.163-0.204L22.57,29.94l-0.141-0.122l-0.101-0.107
			l-0.075-0.068l-0.019-0.06l-0.019-0.068l-0.003-0.099l-0.002-0.108l-0.006-0.066l-0.049-0.092l-0.046-0.108l-0.037-0.155
			l0.018-0.151l0.069-0.2l0.052-0.157l0.198-0.354l0.086-0.204l0.021-0.09l-0.009-0.167l-0.012-0.172l-0.04-0.249l-0.064-0.179
			l-0.08-0.206l-0.121-0.238l-0.062-0.099l-0.022-0.037l-0.054-0.061l-0.094-0.151l-0.14-0.113l-0.127-0.127l-0.068-0.144
			l0.066-0.131l0.022-0.13l-0.061-0.145L21.5,25.213l-0.045-0.12l-0.172-0.392l-0.085-0.247l-0.07-0.227l-0.007-0.249l-0.048-0.452
			l-0.031-0.351l-0.057-0.279l-0.164-0.334l-0.085-0.261l-0.076-0.228l-0.004-0.127l0.021-0.23l0.049-0.274l0.007-0.288l-0.033-0.42
			l-0.048-0.216l-0.063-0.49l-0.079-0.737l-0.017-0.076l-0.043-0.037l-0.107-0.073l-0.266-0.174l-0.509-0.363l-0.26-0.198
			l-0.166-0.149l-0.226-0.25l-0.146-0.147l-0.038-0.089l0.01-0.16l-0.02-0.152l-0.052-0.074l-0.114-0.062L18.47,17.21l-0.028-0.062
			l-0.002-0.059l0.036-0.179l0.029-0.212l-0.003-0.096l-0.029-0.058l-0.051-0.043h-0.05l-0.125,0.035l-0.133,0.029l-0.07,0.001
			l-0.058-0.036l-0.13-0.112l-0.116-0.118l-0.021-0.024l-0.027,0.001l-0.027,0.025l-0.013,0.02l-0.084,0.034l-0.051-0.013
			l-0.049-0.005l-0.036,0.001l-0.061,0.071l-0.047,0.078l-0.041,0.025l-0.05,0.009l-0.1-0.023l-0.17-0.04l-0.12-0.011l-0.085-0.004
			l-0.027-0.02l-0.002-0.019l0.033-0.078l0.175-0.278l0.073-0.117l0.058-0.095l0.013-0.062l-0.001-0.053l-0.096-0.138l-0.089-0.112
			l-0.151-0.138l-0.179-0.104l-0.07-0.012l-0.112,0.021l-0.112-0.003l-0.119-0.017l-0.106-0.018l-0.092-0.017l-0.038-0.018
			l0.046-0.021l0.089-0.037l0.048-0.02l0.034-0.027l0.023-0.028l-0.004-0.071l-0.027-0.054l-0.094-0.078l-0.121-0.041l-0.105-0.005
			l-0.127-0.021l-0.179-0.063l-0.226-0.133l-0.217-0.122l-0.162-0.099l-0.256-0.164l-0.164-0.131l-0.083-0.095l-0.08-0.104
			l-0.108-0.121l-0.152-0.143l-0.17-0.142l-0.276-0.201l-0.195-0.162l-0.02-0.013l-0.1-0.064l-0.103-0.104l-0.021-0.076
			l-0.012-0.125l-0.005-0.071l0.035-0.133l0.015-0.089l0.018-0.247l-0.01-0.181l-0.019-0.229l-0.027-0.315l-0.021-0.377
			l-0.031-0.269l-0.015-0.153l-0.04-0.086l-0.04-0.063l-0.031-0.025l-0.14-0.017l-0.164-0.004l-0.043-0.016l-0.031-0.021
			l-0.014-0.026l-0.001-0.017l0.018-0.019l0.028-0.045l0.021-0.05l0.025-0.067l0.01-0.176l0.013-0.152l-0.023-0.438l0.002-0.318
			l-0.006-0.234l0.025-0.11L12.753,8.684"/>
	</g>
</g>
<g id="Layer_1">
</g>
</svg>
