<?xml version="1.0" encoding="utf-8"?>
<!-- Generator: Adobe Illustrator 16.0.4, SVG Export Plug-In . SVG Version: 6.00 Build 0)  -->
<!DOCTYPE svg PUBLIC "-//W3C//DTD SVG 1.1//EN" "http://www.w3.org/Graphics/SVG/1.1/DTD/svg11.dtd">
<svg version="1.1" id="Layer_1" xmlns="http://www.w3.org/2000/svg" xmlns:xlink="http://www.w3.org/1999/xlink" x="0px" y="0px"
	 width="301.241px" height="248.171px" viewBox="-131.558 -108.357 301.241 248.171"
	 style="enable-background:new -131.558 -108.357 301.241 248.171;" xml:space="preserve">
<g id="Layer_70">
	<path id="Kurrum_Agency." style="fill:#CCCCCC;stroke:#FFFFFF;stroke-width:1.15;" d="M64.928-71.913L64.928-71.913l-1.967-0.729
		l-2.242-1.11l-2.026-1.006l-7.379-0.833l-25.331-0.096l-7.663-3.075l-1.582-0.637l-0.038,0.56l-6.112-2.43l-5.936,0.833
		l-7.232,1.494l-4.914-2.626l-8.27-1.336l-0.073-0.008l-9.444-4.538l-2.296-1.39l-2.6-1.582l-5.827-1.259l-8.021,0.426l-3.113,0.752
		l-0.741,0.177l-6.618-2.338l-3.333-2.411l-0.764-0.538l-6.949-4.089l-7.117-0.94l-1.029-0.035l-0.646-0.031l-2.392-2.875
		l-3.363-0.119l-0.541,0.307l-4.216,2.334l-6.765,0.817l-17.249,0.134l-2.161,1.382l-3.053,1.95l-0.195,4.154l-0.085,1.801
		l1.443,5.306l-0.015,0.195l-0.123,2.596l-1.425,1.896l-0.396,0.502l-2.986,1.463l-3.056,1.494l-0.008,0.015l-3.54,4.074
		l-0.841,2.994l-0.637,2.211l1.478,4.25l5.644,5.444l3.232,3.105l3.586,3.425l0.699,1.298l2.016,3.697l0.975,5.094l0.399,1.958
		l0.392,0.534l2.769,3.766l2.909,1.828l3.609,2.246l3.187,3.609l0.587,2.784l1.801,8.507l2.211,6.385l5.732,5.771l1.478,1.478
		l1.421,0.718l1.236,0.622l1.839,0.917l6.669,0.929l2.948-0.253l6.807,1.77l11.829,3.075l3.386-0.583l4.711-1.24l0.614,0.022
		l1.862,0.069l3.766,2.069l0.322,0.173l2.845,4.323l1.44,2.13l0.142,2.872l0.081,1.344l-1.148,6.262l0.312,1.482l0.364,1.696
		l6.558,3.041l3.686,0.722l2.948,0.568l1.974,1.781l0.464,0.407l-0.18,0.875l-0.944,4.684l-4.412,16.179l-0.218,0.821l-1.532,5.543
		l-0.173,4.094l-0.165,3.255l1.105,1.551l1.651,2.396l6.062,3.716l1.605,2.749l0.706,1.183l2.346,3.24l4.733,1.091l0.676,0.153
		l0.085,0.03l2.791,0.776l4.027,11.355l1.086,0.983l0.91,0.829l0.706,0.031l8.888,0.321l2.964,1.705l0.284,0.161l1.044,4.254
		l4.734,5.767l-0.165,2.795l-0.772,3.04l-0.283,1.13l3.025,6.058l0.538,1.45l1.289,3.525l-0.599,1.889l-0.33,1.029l2.864,1.589
		l3.686-0.191l2.979-0.791h2.149l2.918-1.405l3.332-1.075l1.443,1.49l3.302,0.783l3.164-1.689l3.594-0.491l2.349-0.293l2.626-0.943
		l2.058,0.913l1.505,2.196l1.567,3.071l2.487,1.152l3.071,0.161l3.425-0.323l2.626,0.162l3.778,0.03l3.239-0.123l1.966-0.199
		l2.411,0.107l3.332-0.062l2.227-2.271l1.397-1.69l0.384-1.09l0.339-1.152l0.491-0.813l0.169-0.599l0.016-1.144l0.046-0.591
		l0.476-0.808l0.799-0.522l0.03-1.059l-0.284-1.044l-0.613-0.568l-0.807-0.706l-0.521-0.568l-0.691-0.354l-1.137-0.468l-0.538-0.415
		l-0.552-0.46l-0.584-0.43l-0.568-0.554l-0.707-0.521l-0.659-0.208l-0.661-0.115l-0.768-0.138l-0.829-0.414l-0.646-0.446
		l-0.399-0.422l-0.706-1.045l-0.691-0.23l-0.752-0.161l-0.63-0.245l-0.521-0.368l-0.446-0.461l-0.245-9.007l0.216-0.191l0.476-0.423
		l0.859-0.03l1.152,0.307l0.997,0.1l0.799,0.092l0.737,0.062l0.077-0.045l0.614-0.323l1.259-0.537l0.599-0.185l1.475-0.491
		l0.783-0.369l0.614-0.275l1.083-0.186l0.898-0.353l0.599-0.292l1.06-0.03l0.76,0.092l0.821-0.101l0.892-0.16l1.044,0.23
		l0.737,0.107l0.714,0.384l0.822,0.246l0.545,0.015l0.822,0.146l1.335,0.354l0.73-0.207l1.074-0.338l1.113-0.354l0.799-0.308
		l0.63-0.191l0.675-0.207l0.568-0.161l1.229-0.323l0.69-0.276l0.483-0.299l0.5-0.638l0.774-0.943l0.399-0.492l0.715-0.937
		l0.43-0.492l0.43-0.553l0.43-0.583l0.431-0.537l0.675-0.768l0.807-0.914l0.369-0.53l0.392-0.477l1.235-1.551l0.177-0.799
		l-0.138-0.583l0.323-0.976l0.675-0.575l0.484-0.737l1.105-0.845l0.176-0.868l0.483-0.645l0.7-0.245l0.621,0.054l0.952-0.047
		l0.791-0.054l0.982,0.146l0.63,0.476l0.599,0.338l0.814-0.016l1.06-0.123l0.829-0.091l1.336-0.062l0.875-0.101l0.821,0.062
		l0.691,0.054l1.145-0.068l0.813,0.191l0.6,0.161l0.906,0.36l0.659,0.477l0.814-0.062l0.491-0.292l1.26-0.66l0.752-0.468
		l0.047-0.046l0.214-0.208l0.484-0.568l0.483-0.768l0.568-0.76l0.492-0.676l0.613-0.584l0.952-0.769l0.484-0.406l1.074-0.307
		l0.615-0.177l1.481-0.046l0.998,0.191l0.614,0.338l0.799,0.438l0.645,0.27l0.829,0.23l1.275,0.199l0.606,0.169l0.66,0.031
		l0.891,0.168l0.606,0.092l1.214,0.208l0.529,0.207l0.921,0.322l0.016-0.015l0.431-0.369l0.054-0.714l0.153-0.806l0.016-0.676
		l-0.292-0.799l-0.461-0.483l-0.431-0.484l-0.215-0.522l-0.03-0.599l0.208-0.646l0.037-0.613l0.399-0.492l-0.338-0.659l-0.629-0.576
		l-0.568-0.338l-0.522-0.645l-0.184-0.838l0.322-0.568l-0.284-0.507l-0.161-0.63l-0.276-0.921l-0.069-0.875l0.199-0.614l0.561-0.853
		l0.645-1.014l0.262-0.514l0.191-0.983l0.146-0.722l0.107-0.66l-0.161-0.86l-0.322-0.937l-0.077-0.691l0.545-0.399l0.377-0.483
		l0.414-0.438l0.661-0.415l0.613-0.23l0.6-0.414v-0.745l0.399-0.606l0.223-0.614l-1.236-0.491l-4.254-3.847l0.046-2.542l0.208-1.966
		l0.391-3.209l2.542-2.673l1.128-3.209l-3.301-1.475h-2.065l-3.479-0.322l-4.845-1.475l-2.242-0.461l-3.118-1.183l-2.58-1.267
		l-3.424-1.243l-4.314-1.306l-3.049-1.658l-1.59-1.099l-4.115-2.533l-2.864-1.997l-1.674-1.105l-2.787-3.213l0.691-2.672
		l-1.482-1.501l0.66-2.683l0.146-2.123l-2.788-1.862l-2.948-3.105l0.483-2.549l0.186-1.045l-1.413-2.027l-0.807-2.13l-0.691-3.367
		l-0.898-3.766l0.769-3.594l0.691-2.91l-2.703-1.892l-2.065-0.922l-2.788-1.44l-1.95-1.366l-3.486-0.622l-3.485-1.075l-5.075-2.588
		l-0.837-3.068l-1.053-2.875l-1.382-3.367l-2.933-2.722l-3.771-3.428l-2.849-1.209l-3.109-1.893l-2.503-1.67l-2.127-2.418
		l-2.027-2.415l-0.614-1.966l0.03-1.927l-0.322-2.388l0.261-3.202L64.928-71.913"/>
</g>
<g id="Layer_1_1_">
</g>
</svg>
