<?xml version="1.0" encoding="iso-8859-1"?>
<!-- Generator: Adobe Illustrator 16.0.4, SVG Export Plug-In . SVG Version: 6.00 Build 0)  -->
<!DOCTYPE svg PUBLIC "-//W3C//DTD SVG 1.1//EN" "http://www.w3.org/Graphics/SVG/1.1/DTD/svg11.dtd">
<svg version="1.1" xmlns="http://www.w3.org/2000/svg" xmlns:xlink="http://www.w3.org/1999/xlink" x="0px" y="0px"
	 width="11.787px" height="9.437px" viewBox="0 0 11.787 9.437" style="enable-background:new 0 0 11.787 9.437;"
	 xml:space="preserve">
<g id="Layer_8">
	<g id="Layer_13">
		
			<path id="Peshawar" style="fill:#CCCCCC;stroke:#FFFFFF;stroke-width:1.07;" d="
			M8.871,7.021L8.871,7.021l0.001-0.016l-0.012-0.1L8.856,6.867l0.081-0.214l0.164-0.147L9.32,6.332l0.141-0.137l0.14-0.136
			l0.121-0.101l0.05-0.082L9.9,5.751l0.102-0.141l0.136-0.125l0.188-0.114l0.188-0.137l0.143-0.113l0.083-0.099l0.086-0.101
			l0.03-0.052h-0.054l-0.032-0.053l-0.031-0.062l-0.038-0.103l-0.03-0.129l-0.027-0.081l-0.061-0.078l-0.065-0.106L10.468,4.09
			l-0.071-0.14l-0.062-0.105l-0.093-0.134l-0.094-0.11l-0.062-0.052l-0.061-0.046l-0.01-0.007L9.913,3.476L9.759,3.479L9.602,3.48
			L9.438,3.454L9.226,3.416L8.843,3.413L8.645,3.417l-0.25,0.036L8.224,3.47L8.06,3.445L7.931,3.354L7.759,3.25L7.674,3.212
			L7.591,3.174L7.489,3.088L7.304,3.001L7.209,2.926l0.054-0.13l0.068-0.065V2.672L7.226,2.639L7.098,2.575L6.96,2.494L6.779,2.417
			L6.615,2.311L6.463,2.192L6.366,2.086l-0.054-0.06L6.269,1.979L6.227,0.725l0.062-0.039l0.053-0.048L6.338,0.635l-0.082-0.03
			L6.18,0.667L6.175,0.724L6.164,0.789l-0.018,0.04L6.082,0.914L5.861,1.082l-0.023,0.06L5.822,1.184L5.707,1.53L5.562,1.667
			L5.439,1.816L5.434,1.871L5.173,2.165L5.055,2.257L4.983,2.363L4.929,2.444L4.841,2.578L4.78,2.689L4.777,2.8l0.064,0.262
			l0.024,0.105L4.837,3.226L4.771,3.225L4.694,3.21L4.537,3.215L4.445,3.224l-0.14,0.118L4.188,3.393L4.08,3.453L3.795,3.599
			L3.707,3.646L3.605,3.696L3.493,3.763L3.388,3.831L3.326,3.879l-0.15,0.117L2.71,4.214L2.506,4.298L2.391,4.353L2.122,4.498
			L1.859,4.661L1.528,4.828L1.287,4.945L1.004,5.119L0.792,5.243l0.245,0.321L1.352,5.95l0.508,0.278l1.68,0.857l1.427,0.688
			l0.7,0.326l0.933,0.265l1.062,0.255L8.074,8.67L7.992,8.605L7.896,8.498L7.788,8.366L7.717,8.283L7.531,8.105L7.477,8.031
			L7.434,7.963L7.411,7.877l0.071-0.152l0.076-0.08L7.66,7.563l0.143-0.026l0.142-0.058l0.201-0.151l0.105-0.056l0.13-0.052
			l0.171-0.043l0.14-0.047l0.093-0.076l0.033-0.051L8.871,7.021"/>
	</g>
</g>
<g id="Layer_1">
</g>
</svg>
