<?xml version="1.0" encoding="iso-8859-1"?>
<!-- Generator: Adobe Illustrator 16.0.4, SVG Export Plug-In . SVG Version: 6.00 Build 0)  -->
<!DOCTYPE svg PUBLIC "-//W3C//DTD SVG 1.1//EN" "http://www.w3.org/Graphics/SVG/1.1/DTD/svg11.dtd">
<svg version="1.1" xmlns="http://www.w3.org/2000/svg" xmlns:xlink="http://www.w3.org/1999/xlink" x="0px" y="0px" width="3.018px"
	 height="3.923px" viewBox="0 0 3.018 3.923" style="enable-background:new 0 0 3.018 3.923;" xml:space="preserve">
<g id="Layer_35">
	<g id="Layer_40">
		<path id="Thatta" style="fill:#CCCCCC;stroke:#FFFFFF;stroke-width:1.07;" d="
			M2.379,1.474L2.379,1.474L2.054,1.172L1.799,0.729L1.632,0.597L1.46,0.559L1.125,0.692l-0.343,0.22L0.611,1.151L0.538,1.431
			L0.586,2.41l0.083,0.162l0.229-0.649l0.239-0.416l0.142-0.021L1.54,1.606l0.043,0.111l0.058,0.25L1.513,2.571l0.044,0.146
			L1.68,2.73l0.006-0.32l0.078-0.193L1.876,2.17L2.34,2.172L2.4,2.005L2.302,1.688l0.109-0.115L2.379,1.474"/>
	</g>
</g>
<g id="Layer_1">
</g>
</svg>
