<?xml version="1.0" encoding="utf-8"?>
<!-- Generator: Adobe Illustrator 16.0.4, SVG Export Plug-In . SVG Version: 6.00 Build 0)  -->
<!DOCTYPE svg PUBLIC "-//W3C//DTD SVG 1.1//EN" "http://www.w3.org/Graphics/SVG/1.1/DTD/svg11.dtd">
<svg version="1.1" id="Layer_1" xmlns="http://www.w3.org/2000/svg" xmlns:xlink="http://www.w3.org/1999/xlink" x="0px" y="0px"
	 width="301.034px" height="237.786px" viewBox="-137.087 -108.116 301.034 237.786"
	 style="enable-background:new -137.087 -108.116 301.034 237.786;" xml:space="preserve">
<g id="Layer_23">
	<path id="Bhimber" style="fill:#CCCCCC;stroke:#FFFFFF;stroke-width:1.15;" d="M158.43,113.947L158.43,113.947l-0.635-1.646
		l-0.285-0.822v-0.69l-0.23-0.67l-0.34-0.559l-0.834-2.368l-0.657-1.821l-0.297-0.865l-0.153-1.174l-0.229-0.965l-0.242-0.417
		l-0.164-0.57l-0.461-0.855l-0.187-0.658l-0.516-0.812l-0.548-1.229l-0.833-1.14l-0.691-0.734l-0.461-0.494l-0.778-0.877
		l-1.074-1.294l-0.779-1.24l-0.899-2.236l-0.307-0.921l-1.074-1.053l-0.998-1.185l-0.593-0.361l-0.646-1.152l-0.264-0.657
		l-0.24-0.834l-0.23-0.526l-0.264-1.074l-0.438-0.691l-0.176-0.756l-0.208-1.01l-0.153-0.932l0.372-1.03l0.242-0.9l0.229-0.745
		l0.241-0.965l0.242-0.779l0.295-0.877l0.176-1.382l-0.076-0.757l-0.482-0.625l-0.242-0.57l-0.23-0.723l-0.143-0.867l0.439-0.352
		l-0.241-0.307l-0.198-0.438l-0.055-0.461l-1.041-0.777l-1.042-0.373l-0.734-0.308l-0.549-0.208l-1.042-0.406l-1.086-0.077
		l-1.437-0.273l-0.68-0.022l-0.646-0.372l-0.702-0.615l-0.504-0.46l-1.59-1.47l-0.878-0.68l-0.34-0.263l-0.329-0.133l-0.724-0.262
		l-1.25-0.121l-1.776-0.088l-1.646-0.23l-1.459-0.702l-0.942-0.438l0.34-0.362l1.678,0.33l-0.055-0.385l-0.241-0.219l-0.143-0.154
		l-0.461-0.197l-0.328-0.537l-0.197-0.23l-0.538-0.229l-0.746,0.164l-1.436-0.032l-0.691-0.022l-0.801-0.197l-0.69,0.153
		l-0.527-0.296l-1.162-0.329l-1.327-0.417l-1.425-0.263l-1.195-0.384l-1.074-0.219l-0.987,0.515l-1.865,0.69l-1.238-0.197
		l-1.315,0.154l-1.635,0.481l-1.085,0.198l-0.549,0.099l-0.439-0.274l-0.701-0.065l-0.702-0.109l-0.296-0.571l-0.229-0.723
		l-0.735-0.066L98.5,54.532l-0.614-0.143l-0.296-0.636l-0.603-0.428l-0.418-0.537l-0.504-0.482l0.965-2.654l1.514-0.987l4.178-2.851
		l1.744-1.239l2.577-1.689l0.593-0.777l-0.57-1.897l-0.626-2.062l-0.525-1.843l-0.812-3.104l-1.338-4.902l-1.194-4.43l-0.889-3.97
		l-0.625-3.816l-1.196-2.588l-0.021-0.965l-0.186-0.482l0.295-1.021l-0.689-1.623L98.27,8.934l-0.021-0.428l0.658-0.942l0.756-0.922
		l0.439-0.57l0.219-0.515l-0.076-0.461l-0.022-0.581l-0.417-0.308l-1.326-0.241l-1.371,0.241l-1.437,0.274l-1.81-0.285l-1.294-0.68
		l-1.699,0.428l-1.36-0.066l-1.809-0.416l-1.767-0.691l-1.951-0.976l-1.536,0.065l-1.162-0.34l-0.57-0.614l-0.778-0.701L79.179-0.53
		l-1.383-0.812L77.467-1.67l-1.141-0.34l-0.777-0.361l-0.373-0.176l-0.274-0.405l-1.174-0.746l-0.866,0.351l-0.899,0.285
		L70.428-2.92h-0.309l-0.701-0.613l-0.23-0.472l-0.581-0.209l-1.174-0.12l-0.318-0.209l-0.252-0.745l-0.965-0.406L64.736-6.44
		l-0.812-0.735l-2.556-1.359L59.11-10.3l-1.886-0.56l-0.986-0.241l-1.01-0.176l-0.636-0.175l-1.141-0.647l-0.471-0.34l-1.031-0.317
		l-0.702-0.066l-0.56-0.252l-0.69-0.779l-0.877-1.184l-0.56-0.658l-1.174-0.132l-1.074,0.626l-1.141,0.46l-0.526,0.011l-0.537-0.307
		L42.53-15.86l-3.104-2.095l-1.163-0.68l-0.921-0.153l-2.148,0.372l-1.339-0.011l-1.02-0.241l-1.382-0.011l-0.734-1.843l0.229-0.504
		v-0.57l1.02-0.933l0.078-0.778l0.24-0.625l0.439-0.449l2.183,0.011l0.832-0.681l0.078-0.548l-0.221-0.976l-1.096-1.492
		l-0.647-0.822l-1.096-0.592l-0.834-0.417l-0.768-0.526l-0.581-0.285l-0.965-0.636l-0.418-0.384l-0.942-0.647l-0.658-0.8
		l-0.701-1.142l-0.318-1.37l-0.109-1.086l0.449-1.634l0.143-0.921l0.088-2.084l-0.417-0.844l-1.875-0.077l-0.461-0.351l-0.822-1.174
		l-0.877-1.491l-0.79-1.579l-1.15-1.776l-0.988-1.415l-0.986-1.272l-1.667-2.006l-1.009-0.691l-1.732-1.688l-1.767-1.031
		l-0.613-0.065l-1.229-0.461l-2.512-0.34l-0.724-0.22l-0.669-0.372l-1.579-0.91l-1.009-0.966L2.81-61.325l-0.977-0.57l-0.69,0.044
		l-1.305-0.264l-1.064-0.143l-3.114,0.154l-0.702,0.011l-1.118-0.197l-0.658-0.341l-1.118-0.757l-1.02-0.909l-1.064-0.954
		l-0.778-0.955l-0.537-0.778l-0.702-0.69l-1.239-1.338l-0.69-0.921l-0.713-0.855l-1.591-0.91l-1.03-0.461l-1.36-0.658l-1.611-0.46
		l-2.884-0.757l-1.887,0.69l-0.23-1.217l-0.942-0.889l-0.987-1.074l-1.634-0.812l-1.218-0.143l-1.546,0.691l-1.404,0.636
		l-1.633-0.055l-1.196-0.79l-0.91-0.735l-0.942-0.449l-1.438-0.395l-0.701-0.274l-1.118-0.844l-0.769-1.086l-0.69-0.505
		l-0.932-0.428l-1.272-0.351l-0.669-0.208l-1.283-0.746l-0.636-0.614l-0.241-0.362l-0.318-2.708l-0.121-1.086l0.702-2.347
		l0.253-0.724l-0.505-1.491l-0.691-1.206l-0.164-0.889l-0.065-1.053l0.701-1.732l0.538-1.646l0.384-0.701l0.285-0.899l-1.711-0.099
		l-1.788,1.338l-0.943,0.109l-0.657,0.34l-0.592,0.296l-1.075,0.526l-0.362,0.472l-0.482,0.285l-0.778,0.746l-1.897,1.799
		l-1.995,1.655l-1.897,1.524l0.176-1.371l0.021-0.833l-0.416-1.141l-0.241-0.647l-0.385-0.12l-1.732,0.614l-1.185,0.34l-1.524,0.23
		l-1.228-0.691l-0.669-0.428l-0.823-1.02l-0.888-0.801l-0.746-0.713l-0.175-0.417l1.414,0.056l0.132-0.241l-0.088-0.625l-0.603-0.68
		l-0.604-0.57l-0.604-0.505l-0.526-0.285l-0.504-0.351l-0.713-0.406l-0.965-0.449l-0.691-0.307l-1.162-0.329l-0.889-0.406
		l-0.943,1.063l-0.789,1.118l-0.537,1.306l-0.329,1.118l-0.878-0.416l-0.471,1.085l-0.482,0.153l-0.143,0.56l-0.757,0.79
		l-0.91,0.548l-1.119,0.23l-1.393,0.219l-0.307,0.362l-0.45,0.812l-0.701,0.637l-0.241,0.504l-0.373,0.768l-0.68,0.636l-0.329,0.702
		l-0.396,0.636l-1.337,0.614l-0.889,0.263l-0.011,0.406l-0.494,0.132l-0.405-0.176l-0.56,0.011l-0.449-0.416l-0.472-0.308
		l-0.614-0.164l0.373,0.942l-0.065,0.549v0.637l0.241,1.162v0.592l0.011,0.812l0.252,0.549l0.209,0.833l0.416,0.877l-0.099,0.834
		l-0.219,0.757l-0.526,1.074l-0.143,0.373l0.69,0.801l0.176,0.854l-0.109,0.965l-0.878,0.593l-0.812,0.91l-0.746,0.943l-0.087,0.405
		l0.197,0.768l0.175,0.22l0.582,0.373l0.34,0.296l0.329,0.176l0.724,0.745l0.537,0.735l0.361,1.173l0.549,1.524l0.691,0.834
		l0.898,1.194l0.044,0.899l0.352,1.404l-0.691,0.559l-0.449,0.592l-0.681,0.702l-0.822,0.582l-0.877,0.756l-0.734,0.866
		l-0.385,0.922l-1.634,1.009l-0.756,0.296l-1.908,0.768l-0.691,0.449l-1.645,0.834l-1.403,0.592l-1.316,0.482l-0.943,0.088
		l-1.173,0.768l-0.67,0.482l-0.46,0.801l0.241,1.206l0.395,1.524l-0.109,0.834l0.516,0.877l0.581,1.634l0.23,0.921l0.033,1.021
		l-0.165,1.82l-0.241,1.261l-0.109,0.406l-0.197,1.217l-0.987,0.658l-1.623,0.438l-2.105,0.724l-1.393,0.637l-1.305,0.69
		l-0.702,0.526l-0.691,0.395l-0.405,0.406l-0.637,0.592l-0.844,0.965l-0.592,0.691l-0.637,1.097l-0.537,0.888l-0.428,0.57
		l-0.318,0.34l-0.537,0.637l0.241,0.57l0.23,0.372l0.438,0.57l0.526,0.68l0.362,0.396l0.702,0.877l0.361,0.526l0.23,0.526
		l0.581,1.064l0.417,0.471l0.548,0.79l1.174,1.678l0.898,1.294l0.735,0.548l0.68,0.253l1.711,0.273l0.702,0.241l1.382,0.691
		l0.229,0.318l0.812,1.305l-0.219,0.482l0.229,0.044l-0.395,0.493l-0.065,0.417l-0.373,1.315l-0.986,2.424l-1.174,2.04l-1.502,1.754
		l-1.13,1.108l-2.095,0.8l-1.645,1.053l-2.073,1.196l-0.197,0.471l-0.121,2.062l0.044,1.403l0.088,1.382l-0.384,0.274l-1.085,0.921
		L-119.233,4l-0.537,0.845l-1.108,0.263l-1.962-0.713l-1.327-0.855l-0.757-0.055l-1.667,0.264l-0.646,0.713l-0.801,1.634
		l-0.581,1.546l-2.95,3.399v0.088l10.363-4.957l4.419-1.678l1.558-1.173l5.977-1.535l3.081-0.79l2.72-0.252l0.504-0.176l1.832-0.614
		l3.07-0.12l2.577,0.12l8.269,1.558l9.848,5.713l1.437,1.941l1.798,1.415l0.626,1.271l0.285,0.681l0.329,0.328l1.096,1.098
		l1.985,4.276l7.501,11.01l2.697,3.093l1.185,0.933l0.625,0.492l1.074,1.558l1.459,0.637l0.34,0.153l4.047,2.72l1.776,1.173
		l11.395,4.913l1.403,0.438l5.121,1.568l3.563,1.13l8.916,2.051l4.562,1.074l3.005,1.163l7.04,3.509l1.755,0.866l3.619,2.489
		l5.812,2.105l3.41,1.25l5.856,2.632l0.746,0.329l0.537,0.34l0.834,0.559l0.812,0.527l3.563,1.349l1.623,0.592l3.619,1.821
		l0.977,0.351l8.718,3.158h0.021l0.439,0.23l2.456,1.238l3.718,1.887l4.803,1.82l3.882,2.193l2.335,0.768l14.903,7.774l1.47,0.527
		l5.67,2.062l1.809,1.173l5.177,1.952l4.343,1.975l1.918,0.877l1.897,1.053l3.948,2.192l2.862,0.922l2.313,0.768l1.174-0.044
		l1.952-0.109l0.91,2.73l1.272,5.044l2.138,3.312l0.57,0.833l3.399,3.642l4.288,2.981l3.278,1.295l2.259,0.899l3.4,0.658
		l3.882,0.263l6.35-0.669l5.318-1.81l3.509-2.533l0.647-0.461l0.713-0.481l3.509-2.348l4.814-2.16l0.165-0.055l2.752-0.637
		L158.43,113.947"/>
</g>
<g id="Layer_1_1_">
</g>
</svg>
