<?xml version="1.0" encoding="iso-8859-1"?>
<!-- Generator: Adobe Illustrator 16.0.4, SVG Export Plug-In . SVG Version: 6.00 Build 0)  -->
<!DOCTYPE svg PUBLIC "-//W3C//DTD SVG 1.1//EN" "http://www.w3.org/Graphics/SVG/1.1/DTD/svg11.dtd">
<svg version="1.1" xmlns="http://www.w3.org/2000/svg" xmlns:xlink="http://www.w3.org/1999/xlink" x="0px" y="0px"
	 width="25.504px" height="14.593px" viewBox="0 0 25.504 14.593" style="enable-background:new 0 0 25.504 14.593;"
	 xml:space="preserve">
<g id="Layer_141">
	<g id="Layer_146">
		<path id="Islamabad" style="fill:#CCCCCC;stroke:#FFFFFF;stroke-width:1.07;" d="
			M5.296,3.98L5.296,3.98L5.271,3.993L5.233,4.005L5.175,4.019L5.134,4.025L5.102,4.028H5.051L5.006,4.027H4.943L4.902,4.03
			l-0.05-0.003L4.801,4.035L4.726,4.047L4.674,4.066L4.627,4.08L4.576,4.103L4.524,4.147L4.496,4.193l-0.018,0.04L4.475,4.259
			L4.467,4.287L4.46,4.301L4.448,4.312L4.413,4.323l-0.09,0.019L4.234,4.359L4.182,4.368L4.079,4.395L3.975,4.409L3.893,4.412
			L3.845,4.408L3.758,4.402L3.663,4.389L3.589,4.384L3.548,4.386L3.478,4.4L3.374,4.436L3.268,4.453l-0.05,0.005L3.15,4.446
			L3.071,4.433L2.952,4.401L2.868,4.378L2.827,4.375L2.768,4.38L2.662,4.399l-0.1,0.037L2.489,4.484L2.375,4.57L2.299,4.651
			L2.27,4.704L2.241,4.761L2.216,4.844L2.204,4.91L2.197,4.942L2.179,4.954l-0.015,0.01L2.093,4.98L2.029,4.992L1.957,5.014
			L1.881,5.035l-0.096,0.02L1.638,5.082L1.464,5.097L1.327,5.112l-0.1,0.011L1.135,5.134L1.078,5.14L1.036,5.145l0.043,0.052
			l0.062,0.081l0.076,0.094l0.062,0.086l0.07,0.09l0.053,0.063L1.675,5.96l0.118,0.15l0.201,0.27l0.22,0.282l0.337,0.431
			l0.136,0.175l0.37,0.471L3.176,7.89L3.55,8.367l0.094,0.121l0.22,0.281l0.035,0.048L4.09,9.061l0.363,0.465l0.109,0.152
			l0.384,0.486l0.111,0.148l0.129,0.164l0.017,0.02l0.12-0.066l0.134-0.072l0.155-0.084l0.194-0.102l0.19-0.102l0.181-0.098
			l0.179-0.092l0.195-0.103l0.239-0.127l0.204-0.106L7.272,9.4L7.6,9.227L8.055,8.99l0.118-0.062L8.189,8.92L8.072,8.773l-0.069-0.1
			l-0.08-0.103L7.83,8.471L7.759,8.412L7.712,8.379L7.667,8.357L7.588,8.322L7.494,8.287L7.423,8.266L7.381,8.245L7.376,8.234
			l0.016-0.049l0.037-0.069l0.035-0.063l0.012-0.006H7.49l0.051,0.029l0.11,0.089l0.046,0.042l0.017,0.01l0.021,0.004l0.049-0.01
			l0.141-0.068L8.03,8.094l0.074-0.039l0.119-0.083l0.043-0.026l0.02-0.002l0.017,0.006l0.035,0.042l0.043,0.052l0.127,0.141
			l0.133,0.158l0.163,0.189l0.038,0.045l0.114-0.064l0.188-0.1l0.178-0.091l0.353-0.183l0.131-0.072l0.345-0.18l0.164-0.087
			l0.34-0.178l0.198-0.104l0.305-0.163l0.209-0.106l0.37-0.196l0.241-0.126l0.314-0.163l0.122-0.065l0.021-0.009L12.5,6.773
			l0.057,0.062l0.032,0.03l0.054,0.072l0.032,0.043l0.211,0.275l0.23,0.302l0.21,0.277l0.066,0.09l0.166,0.205l0.128,0.161
			l0.191,0.259l0.056,0.066l0.136,0.178l0.146,0.188l0.18,0.234l0.188,0.248l0.106,0.141l0.202,0.261l0.045,0.058l0.153,0.203
			l0.097,0.124l0.007,0.009l-0.124,0.067l-0.222,0.118l-0.136,0.072l-0.218,0.121l-0.252,0.139l-0.166,0.088l-0.169,0.082
			l-0.22,0.119l-0.267,0.138l-0.295,0.153L12.92,11.46l-0.104,0.058l-0.25,0.137l-0.188,0.095l0.098,0.041l0.146,0.072l0.34,0.157
			l0.146,0.065l0.086,0.037l0.35,0.162l0.283,0.132l0.087,0.042l0.275,0.132l0.253,0.113l0.154,0.075l0.312,0.144l0.229,0.105
			l0.294,0.143l0.268,0.127l0.117,0.055l0.235,0.115l0.259,0.121l0.127,0.057l0.282,0.131l0.226,0.105l0.117,0.055l0.011,0.004
			l0.079-0.092l0.104-0.11l0.151-0.157l0.097-0.102l0.228-0.236l0.095-0.1l0.257-0.269l0.281-0.292l0.043-0.044l0.185-0.196
			l0.149-0.152l0.223-0.229l0.062-0.066l0.177-0.182l0.312-0.285l0.042-0.041l0.275-0.254l0.103-0.104l0.203-0.208l0.057-0.065
			l0.041-0.043l0.123-0.139l0.049-0.043l0.085-0.08l0.067-0.061l0.123-0.144l0.075-0.075l0.076-0.062l0.105-0.127l0.023-0.026
			l0.033-0.022L21.03,9.9l0.036-0.037l0.024-0.042L21.13,9.78l0.058-0.058l0.015-0.015l-0.023,0.001L21.094,9.71l-0.067-0.002
			l-0.063-0.012l-0.012-0.007l-0.009-0.02l-0.003-0.029V9.588l0.008-0.048V9.51l0.001-0.059l0.013-0.055l0.015-0.049l0.02-0.035
			l0.021-0.035l0.03-0.08l0.021-0.045l0.029-0.051l0.038-0.039l0.054-0.034l0.054-0.037l0.053-0.03l0.035-0.023l0.014-0.016
			l0.003-0.016l-0.005-0.042l-0.019-0.037l-0.013-0.035l-0.008-0.046l0.002-0.064l0.011-0.037l0.004-0.021l-0.005-0.014
			l-0.028-0.077l-0.009-0.044l-0.002-0.071l-0.008-0.082L21.26,8.297l-0.008-0.025l-0.004-0.039l-0.01-0.09l0.001-0.076l0.027-0.076
			l0.021-0.054L21.3,7.897l0.002-0.015l0.002-0.016l-0.006-0.027l-0.006-0.014l-0.011-0.021l-0.037-0.033l-0.023-0.019l-0.023-0.024
			l-0.014-0.023l-0.021-0.029l-0.012-0.033L21.15,7.599l0.01-0.031l0.013-0.035l0.021-0.045l0.018-0.028l0.028-0.039l0.043-0.033
			l0.053-0.024l0.04-0.022l0.025-0.016l0.006-0.007l0.002-0.008l-0.006-0.016l-0.021-0.031L21.36,7.235l-0.021-0.037l-0.015-0.036
			L21.31,7.126l-0.007-0.027l0.005-0.017l0.017-0.014l0.033-0.007l0.115-0.015l0.049-0.015l0.03-0.014l0.011-0.011l0.021-0.033
			l0.026-0.03l0.018-0.017l0.036-0.027l0.044-0.02l0.054-0.021l0.039-0.016l0.041-0.021l0.053-0.029l0.047-0.028l0.053-0.021
			l0.027-0.016l0.004-0.008l-0.001-0.006l-0.016-0.009l-0.021-0.013l-0.003-0.01l0.006-0.012l0.025-0.016l0.059-0.02l0.071-0.018
			l0.052-0.017l0.025-0.011l0.021-0.002l0.026,0.009l0.02,0.012l0.02,0.001l0.018-0.005l0.033-0.014l0.021-0.007l0.017,0.001
			l0.023,0.007l0.018,0.014l0.019,0.022l0.022,0.012l0.032,0.008l0.061,0.018l0.026,0.006l0.131,0.027l0.102,0.012l0.111,0.005
			l0.074-0.007l0.041-0.013l0.047-0.004l0.069-0.013l0.028-0.002l0.022,0.007l0.014,0.012l0.008,0.02l0.021,0.046l0.021,0.021
			l0.026,0.015l0.031,0.01l0.032,0.001l0.035-0.01l0.05-0.024l0.042-0.015l0.056-0.038l0.045-0.04l0.028-0.048l0.02-0.051
			l0.005-0.048L23.654,6.47l-0.008-0.042L23.645,6.4l0.006-0.017l0.024-0.025l0.067-0.065l0.067-0.062l0.104-0.09l0.08-0.059
			l0.062-0.035l0.054-0.026L24.155,6l0.049-0.033l0.045-0.033l0.131-0.091l0.104-0.08l0.059-0.046l0.049-0.049l0.106-0.098
			l0.017-0.016l0.058-0.126l0.051-0.131l0.076-0.087l0.05-0.101l0.008-0.055L24.951,5.04l-0.087-0.021l-0.062,0.013l-0.054-0.004
			l-0.022-0.004L24.641,5.02l-0.099-0.008l-0.083-0.008h-0.034L24.396,5.01l-0.034,0.014l-0.081,0.041l-0.048,0.031l-0.025,0.017
			h-0.014l-0.021-0.02L24.15,5.069l-0.034-0.056l-0.023-0.031l-0.028-0.02L24.031,4.95l-0.06-0.012l-0.062-0.003l-0.061,0.004
			L23.81,4.943h-0.035l-0.057-0.001l-0.06-0.004l-0.079-0.012l-0.142-0.023l-0.09-0.021l-0.089-0.028l-0.055-0.031l-0.072-0.062
			l-0.104-0.104l-0.026-0.03L22.99,4.609l-0.009-0.042L22.96,4.489l-0.038-0.146l-0.081-0.23l-0.028-0.051l-0.019-0.021L22.775,4.03
			l-0.062-0.023l-0.018-0.008l-0.269-0.127l-0.104-0.046l-0.07-0.027l-0.068-0.03l-0.106-0.048l-0.055-0.027l-0.06-0.018
			l-0.165-0.06l-0.176-0.078l-0.12-0.064l-0.034-0.027l-0.026-0.028l-0.021-0.034L21.406,3.36l-0.018-0.024l-0.047-0.033
			l-0.056-0.037l-0.021-0.019l-0.013-0.019l-0.001-0.033l0.003-0.032l-0.004-0.019l-0.029-0.039l-0.022-0.021l-0.062-0.032
			l-0.063-0.034l-0.067-0.043l-0.075-0.059l-0.06-0.062l-0.049-0.042l-0.178-0.14l-0.138-0.11l-0.075-0.059l-0.128-0.108L20.2,2.33
			l-0.025-0.018L20.148,2.28l-0.072-0.063l-0.082-0.063l-0.055-0.051l-0.022-0.029l-0.035-0.022L19.826,2.03l-0.058-0.026
			l-0.037-0.019l-0.05-0.026l-0.043-0.03l-0.029-0.012l-0.04-0.01l-0.052-0.002L19.442,1.92l-0.056,0.015L19.36,1.941H19.34
			l-0.023-0.016L19.268,1.88l-0.031-0.039l-0.033-0.025l-0.025-0.012l-0.033-0.009L19.097,1.79l-0.044-0.006l-0.035-0.015
			L18.976,1.74l-0.021-0.021l-0.023-0.037L18.913,1.67l-0.041-0.021L18.823,1.63l-0.042-0.015l-0.075-0.01l-0.048-0.007L18.63,1.59
			l-0.036-0.018l-0.043-0.017L18.528,1.55l-0.036-0.006l-0.02,0.002L18.452,1.55l-0.03-0.004L18.387,1.54L18.35,1.529l-0.036-0.017
			l-0.034-0.014l-0.024-0.011l-0.027-0.006l-0.093-0.024l-0.067-0.016l-0.06-0.016l-0.05-0.012l-0.061-0.014l-0.087-0.02L17.75,1.36
			l-0.093-0.02L17.548,1.32l-0.036-0.006L17.437,1.29L17.34,1.266l-0.12-0.028l-0.159-0.039l-0.131-0.03l-0.047-0.013l-0.04-0.009
			l-0.02-0.003l-0.02-0.007l-0.018-0.013l-0.023-0.011L16.7,1.071L16.661,1.04l-0.039-0.025L16.6,1l-0.025-0.017l-0.053-0.028
			l-0.076-0.039l-0.073-0.032l-0.037-0.02l-0.036-0.015L16.261,0.84l-0.031-0.008l-0.06-0.007L16.105,0.82h-0.062l-0.087,0.004
			L15.87,0.837l-0.088,0.018l-0.18-0.244l-0.229-0.064l-0.252,0.041l-0.287,0.259l-0.189-0.004L14.384,1.02l-0.156,0.07
			l-0.252,0.243l-0.072,0.139l-0.061,0.093l-0.162,0.044L13.58,1.605l-0.861,0.104l-0.058-0.104L12.641,1.51l-0.027-0.105
			l-0.354-0.068l-0.092-0.026l-0.24,0.176l-0.199,0.099l-0.1,0.085l-0.2,0.021L11.216,1.79l-0.114-0.085l-0.235-0.012L10.762,1.67
			l-0.1-0.009l-0.138,0.03l-0.312,0.173l-0.162,0.009L9.922,1.88L9.429,2.096L9.353,2.319L9.257,2.416l0.062,0.18l-0.04,0.187
			L9.194,2.779l-0.11-0.086L8.801,2.837L8.433,2.811L8.392,3.103L7.961,3.384L7.896,3.47L7.658,3.528L7.571,3.534L7.418,3.553
			L7.277,3.591L7.158,3.738L7.073,3.77L6.985,3.817L6.984,3.906L6.87,3.921L6.768,3.925L6.492,3.971L6.044,3.944L5.901,3.959
			l-0.13-0.026L5.681,3.929L5.558,3.928L5.296,3.98"/>
	</g>
</g>
<g id="Layer_1">
</g>
</svg>
