<?xml version="1.0" encoding="utf-8"?>
<!-- Generator: Adobe Illustrator 16.0.4, SVG Export Plug-In . SVG Version: 6.00 Build 0)  -->
<!DOCTYPE svg PUBLIC "-//W3C//DTD SVG 1.1//EN" "http://www.w3.org/Graphics/SVG/1.1/DTD/svg11.dtd">
<svg version="1.1" id="Layer_1" xmlns="http://www.w3.org/2000/svg" xmlns:xlink="http://www.w3.org/1999/xlink" x="0px" y="0px"
	 width="301.475px" height="66.177px" viewBox="-74.632 -16.152 301.475 66.177"
	 style="enable-background:new -74.632 -16.152 301.475 66.177;" xml:space="preserve">
<g id="Layer_44">
	<path id="Gwadar_2_" style="fill:#CCCCCC;stroke:#FFFFFF;stroke-width:1.15;" d="M135.799,6.103L135.799,6.103l-1.652,0.189
		l-1.711,0.1l-1.33-0.268l-1.056-0.678l-0.612-0.645l-0.374-0.782l-0.07-0.576l-0.308-0.388l-0.793-0.2l-0.541-0.071l-0.451-0.25
		l-0.461-0.562l-0.644-0.2l-1.807,0.105l-1.946,0.071l-1.942,0.377l-1.308,0.398l-1.842,0.454l-4.269,0.998l-3.679,0.972
		l-2.709,0.716l-1.694,0.415l-0.673,0.288l-0.417,0.542l-0.718,0.378l-1.308,0.277l-1.106,0.438L96.54,9.895l-3.445,1.612
		l-1.627,0.768l-2.585,1.204l-4.389,2.382l-3.01,1.531l-1.912,0.917l-1.437,1.696l-1.979,1.546l-0.767,0.289l-0.741-0.195
		l-0.271-0.565l0.027-0.445l0.418-0.504l0.704-0.602l1.081-0.884l0.422-0.416l-0.067-0.398l-0.173-0.52l-0.657-0.463l-0.311-0.386
		l-0.29-0.963l-0.42-0.65l-0.503-0.288l-1.421-0.079l-0.597-0.2L72.04,13.95l-0.269-0.477l-0.579-0.864l-0.225-0.611l-0.461-0.428
		l-0.946-0.361l-2.106-0.047l-2.201-0.002l-1.666-0.181l-2.71-0.431l-1.483-0.339l-0.97,0.172l-0.537,0.028l-0.315-0.437
		l-0.51-0.423l-0.694-0.2l-0.581,0.156l-0.818,0.259l-1.323-0.039l-2.445,0.013L49.72,9.538l-0.701-0.369l-0.86-0.54l-0.688-0.053
		l-0.883-0.05l-1.067,0.178l-0.499-0.156l-0.261-0.345l-0.172-0.48l-0.272-0.565l-0.724-0.766L42.04,4.77L41.303,3.78L40.83,3.137
		l-0.648-0.239L39.645,2.92l-1.035,0.169l-1.004,0.38l-1.185,0.499L34.896,4.21l-1.351,0.117L32.437,4.52l-0.821,0.161L31.197,4.93
		l-0.421,0.394l-0.678,0.647l-0.543,0.39l-0.939,0.083l-0.61-0.091l-0.721-0.357l-0.762-0.36L25.87,5.618l-1.065,0.119l-2.251,0.2
		L20.02,6.089l-1.841,0.174L17.03,6.417l-1.345,0.04l-1.547-0.115l-1.628-0.194l-1.47,0.067L8.915,6.312L6.711,6.406l-4.37,0.039
		L0.588,6.511L-1.09,6.652l-0.764,0.035l-0.34,0.01l-1.546-0.145L-5.413,6.59l-1.271,0.229L-9.23,7.386l-2.463,0.604l-2.429,0.791
		l-2.429,0.762l-2.262,0.649l-1.438,0.339l-0.737,0.129l-1.69,0.666l-2.222,0.798l-0.62,0.18l-1.065,0.302l-1.235,0.417
		l-0.692,0.031l-0.282-0.045l-0.396-0.449l-0.103-0.771l-0.021-0.119l-0.052-0.281l-0.399-0.35l-0.563-0.197l-1.544-0.145
		l-1.018-0.13l-0.138-0.045l-0.185-0.067l-0.085-0.098l-0.111-0.127l0.052-0.479l0.1-0.694l0.221-0.621l0.215-0.476l0.464-0.544
		l0.461-0.51l0.705-0.361l1.062-0.162l0.657-0.099l0.371-0.138l0.212-0.283l0.175-0.477l0.012-0.443l-0.393-0.6l-0.562-0.384
		l-0.52-0.397l-0.412-0.315l-0.435-0.57l-0.187-0.632l-0.153-0.41l-0.237-0.3l-0.317-0.376l-0.148-0.554l0.008-0.293l0.056-0.597
		l0.313-1.068l0.139-0.626l-0.024-0.626l-0.068-0.551l-0.473-0.641l-0.232-0.446l-0.479-0.418l-0.479-0.452l-0.279-0.302
		l-0.146-0.671L-33.83-7.25l0.061-0.812l0.029-0.281l0.4-0.696l0.06-0.534l-0.021-0.281l-0.152-0.355l-0.15-0.211l-0.241-0.199
		l-0.352-0.135l-0.648-0.008l-0.34,0.137l-0.365,0.199l-0.187,0.329l-0.008,0.605l0.099,0.33l-0.01,0.632l-0.185,0.188l-0.313,0.188
		l-0.264,0.279l-0.212,0.327l-0.059,0.521l-0.033,0.517l-0.11,0.375l-1.781,0.325l-0.525,0.489l-0.419,0.297l-0.391,0.186
		l-0.416-0.006l-0.361-0.117l-0.361-0.143l-0.595-0.102l-0.312-0.007l-0.517,0.021l-0.597-0.006l-0.362-0.118l-0.307-0.213
		l-4.307-1.497l-0.905-0.055L-49.687-7.2l-0.439-0.239l-0.516-0.284l-0.488-0.194l-0.571-0.056l-0.321,0.042l-0.745-0.315
		l-0.425-0.014l-0.046-0.337l-0.201-0.399l-0.178-0.354l-0.021-0.306l0.184-0.35l0.341-0.255l0.185-0.28l0.06-0.519l-0.073-0.559
		l-0.174-0.4l-0.179-0.4l-0.073-0.306l0.029-0.235l0.029-0.209l0.108-0.258l0.002-0.188l-0.075-0.281l-0.495-0.006l-0.26,0.092
		l-0.519-0.074l-0.127-0.167l-0.676-0.394l-0.881,1.259l-0.466,0.076l-1.154,0.2l-2.467,0.192l-2.281-0.25l0.11,3.248l-0.024,1.461
		l-0.026,1.79l1.203,1.124l0.14,1.402l-0.181,1.103l-1.236,0.796l-0.663,0.656l-0.184,1.935l-0.896,9.42l0.02,0.637l0.191,6.597
		l-0.221,3.483l-0.223,3.591l-0.696,2.867l-0.843,1.906l-0.734,1.328l-0.52,0.935l-1.513,4.019l1.045-0.442l0.81-0.184l0.48,0.083
		l0.34,0.191l0.802,0.974l0.423,0.026l1.751-0.763l0.532-0.395l0.17-0.308l0.664,0.089l0.044,0.594l0.466,0.682l0.643-0.032
		l0.144-0.011l0.563,0.801l0.776-0.365l0.562,0.068l0.334,0.319l0.348,0.667l0.439,0.118l0.942-1.429l0.822-0.57l0.379,0.083
		l0.178,0.189l0.313,2.685l-0.027,0.185l-0.145,1.003l-0.385,0.822l-0.374,0.465l-0.365,0.137l-0.4-0.06l-1.006-0.771l-0.308,0.197
		l-0.006,0.261l0.547,0.654l0.304,1.435l-0.048,0.35l-0.27,0.271l-0.787,0.116l-0.369,0.252l-0.211,0.398l0.039,0.481l0.009,0.086
		l-0.116,0.571l-0.723,0.789l-0.236,0.585l0.049,0.405l0.252,0.37l0.912,0.549l0.759,0.214l1.242,0.154l0.787-0.053l1.86-0.42h1.751
		l0.903,0.002l0.789-0.169l0.349-0.206l0.142-0.785l0.257-0.543l1.126-1.464l0.009-0.353l-0.313-0.338l-0.129-0.459l0.067-0.277
		l0.409-0.282l0.812-0.241l2.12-0.226l0.253-0.015l6.416-0.312l4.643,0.282l0.241,0.017l1.523,0.187l1.759,0.48l0.921,0.117
		l0.49-0.225l0.071-0.425l-1.3-1.001l-0.004-1.082l-0.19-0.36l-1.321-0.951l-0.194-0.485l-0.087-0.218l0.234-1.131l0.323-0.765
		l0.907-0.761l2.562-0.875l2.479-0.692l1.519-0.277l0.543-0.057l2.367-0.256l1.108-0.012l2.924,0.55l0.899,0.281l1.867,0.854
		l0.985,0.666l0.219,0.233l0.582,0.611l0.326,0.521l0.553,1.664l0.031,1.047l-0.156,1.133l-0.229,0.289l-0.571,0.199l-2.364,0.309
		l-0.775,0.329l-0.229,0.288l0.072,0.199l0.293,0.147l0.123,0.062l3.646,0.567l1.608,0.079l2.955-0.527l0.792-0.284l0.251-0.232
		l-0.036-0.166l-0.436-0.229l-0.702-0.109l-1.477,0.272l-0.824-0.041l-0.567-0.565l-0.148-1.004l0.154-1.062l0.476-1.077l0.87-1.392
		l0.644-0.643l1.289-0.905l0.44-0.298l2.063-1.004l1.503-0.379l3.209-0.193L0.39,33.62l-0.055-0.169l-0.356-0.248l-0.715-0.331
		l-0.251-0.362l0.299-0.542l0.188-0.165l0.621-0.545l1.65-0.6l8.048-0.759l0.36,0.004l0.411,0.008l4.226,0.047l2.978,0.158
		l2.17,0.226l1.26,0.234l1.402,0.265l6.036,0.345l3.524,0.721l6.237,1.275l3.275,0.797l1.047,0.044l0.226-0.109l1.373-0.651
		l3.049-0.683l0.759-0.346l1.995-1.569l0.879-0.34l1.963-0.062l0.34-0.013l2.945,0.466l4.755,1.16l2.775,0.535l0.764,0.149
		l6.853,0.501l3.363,0.624l1.079,0.2l4.832,1.118l0.863,0.016l0.452-0.172l0.232-0.272l-0.034-0.199l-0.347-0.396l-0.04-0.385
		l0.726-0.563l-0.09-0.264l-0.685-0.383l-0.771-0.439l-0.154-0.201L80.735,30.6l-0.183-0.444l-0.44-0.545l-1.033-0.879l-0.751-0.966
		l0.305-0.504l0.435-0.261l0.913,0.895l0.66,0.222l0.269-0.154l0.366-0.61l0.104-0.335l0.292-0.954l0.345-0.557l2.981-2.286
		l0.74-0.348l1.898-0.499l2.395-0.923l0.581-0.22l3.022-0.443l2.508-0.519l3.521,0.274l1.308,0.017l1.799,0.026l0.595,0.336
		l2.292,0.177l3.937,1.372l2.015,0.503l3.743,0.628l1.139,0.319l1.308,0.108l4.785-0.151l0.975-0.04l1.244,0.158l2.45,0.628
		l0.251-0.158l-0.442-0.919l0.853-1.414l-0.046-0.298l-0.98-0.621l-0.567-1.291l-0.046-0.058l-0.829-1.089L125,18.415l-0.616-0.279
		l-0.602,0.011l-0.254,0.199l-0.438,1.19l-0.327,0.487l-0.308,0.129l-0.381-0.047l-0.25-0.268l-0.221-1.387l-0.186-0.342
		l-0.492-0.282l-0.366,0.06l-0.88,0.701l-0.117-0.079l-0.02-0.065l-0.034-0.135l0.289-1.075l0.271-0.209l0.604,0.025l0.437,0.215
		l1.068,0.906l0.395,0.201l0.435-0.665l0.717-0.653l-0.033-0.147l-0.199-0.061l-1.289,0.317l-0.421-0.053l-0.315-0.156l-0.034-0.168
		l0.154-0.27l1.379-0.496l1.165-0.423l0.273-0.226l0.163-0.419l-0.199-0.892l0.035-0.361l0.46,0.119l0.364,0.361l0.181,0.484
		l-0.521,1.191l0.447,0.329l0.56,0.187l0.308-0.079l0.662-0.762l0.375-0.266l1.206,0.119l0.331-0.096l2.72-0.762l0.213,0.173
		l0.333,1.066l0.492-0.125l2.013-1.206l0.446-0.057l0.312,0.253l0.146,0.388l-0.07,0.218l-1.625,0.581l-0.391,0.313l-0.216,0.175
		l-0.064,0.458l0.441,0.951l-0.071,0.273l-1.146-0.189l-0.347,0.059l-1.127,0.801l-0.493,0.165l-1.537,0.014l-0.232,0.229
		l0.012,0.199l0.209,0.248l2.284,1.688l0.313,0.228l0.11,0.271l-0.175,0.229h-0.463l-1.271-0.395l-0.146,0.087l-0.116,0.27
		l0.004,1.248l-0.6,1.114l0.066,0.279l0.677,0.21l3.765-0.24l0.233,0.009l1.7,0.062l4.781,0.865l0.672-0.059l0.495-0.28l0.67-0.82
		l0.379,0.44l-0.872,1.15l-0.053,0.063l-0.09,0.235l0.131,0.148l2.143,0.347l5.892,2.07l1.812,0.816l1.07,0.481l0.918,0.598
		l0.957,1.072l0.478,0.117l4.125-0.234l0.575-0.179l0.58-0.306l0.698-1.09l0.509-0.421l0.901-0.29l2.419-0.298l1.193,0.254
		l2.63,1.429l2.026,1.583l0.282,0.216l0.446,1.072l0.079,0.863l-0.2,0.747l-0.395,0.594l-0.682,0.372l-1.019,0.249l-0.072,0.17
		l-0.184,0.441l0.232,0.986l0.132,0.152l1.229,0.379h1.328l0.376-0.039l3.274-0.385l1.295-0.439l1.163-0.674l0.318-0.387
		l0.091-0.199l0.188-0.435l-0.106-0.316l-0.412-0.219l-2.84-0.106l-0.056-0.021l-0.755-0.256l-0.656-0.599l-0.252-0.542
		l-0.146-1.103l0.703-2.634l0.68-1.127l0.602-0.688l0.945-0.751l0.738-0.41l1.672-0.92l1.935-0.706l1.892-0.344l3.032-0.066
		l0.39-0.165l-0.991-1.108l-0.026-0.079l-0.199-0.567l0.244-0.154l0.376,0.251l1.048,1.181l1.337,0.667l0.955,0.205l2.379,0.064
		l3.069-0.518l0.657-0.118l3.807,0.207l1.198,0.22l1.082-0.272l1.26-0.11l0.372,0.233l0.22-0.062l3.272,0.618l3.299,0.217l0.94,0.3
		l0.042-0.764l0.268-0.146l0.099,0.145l0.366-0.052l0.229,0.457l0.358-0.182L211.24,26l0.197,0.179l0.342-0.119l0.883,0.039
		l0.918,0.221l0.958,0.049l1.557-0.427l0.582-0.047l0.525,0.201l0.462-0.01l0.533-0.583l0.474,0.249l0.443,0.041l0.428-0.254
		l0.583-0.063l0.259-0.295l-0.115-0.579l-0.016-0.085l0.086-0.385l0.301-0.484l0.424-0.344l0.042-0.323v-0.397l-0.423-0.423
		l-1.45-1.083l-0.48-0.756l-0.276-0.628l-0.133-0.882l0.141-0.879l0.139-0.63l0.119-1.482l-0.131-2.837l0.081-2.641l-0.125-2.766
		l-0.29-1.3l-0.12-0.526l-0.966-1.702l-0.83-0.883l-0.624-0.441l-0.623-0.002l-2.503,0.752l-4.728,1.182l-3.126,0.754l-3.265,0.623
		l-2.291,0.311l-2.085,0.119l-1.878,0.119l-1.805,0.254l-1.387,0.373l-1.18,0.062h-1.11l-1.527,0.121l-2.64,0.254l-4.159,0.597
		l-3.679,0.762l-4.097,0.576l-2.496,0.319l-2.287,0.193l-4.234,0.518l-2.225,0.319l-2.149,0.514l-0.969,0.44l-0.763,0.512
		l-1.384,0.823l-1.173,0.695l-1.246,1.004l-1.661,0.762l-0.969,0.508l-0.903,0.129l-1.107-0.121l-1.46-0.435l-1.806-0.684
		l-1.251-0.748l-0.838-0.5l-0.901-0.19l-2.354-0.141l-0.761-0.056l-2.983,0.136l-2.845-0.042l-1.597-0.05l-1.116-0.363l-0.141-0.509
		l-0.002-0.313l0.135-0.567l0.48-0.762l0.41-0.569l1.169-1.395l0.759-1.08l0.342-0.883l0.121-0.501l0.074-0.091L135.799,6.103"/>
</g>
<g id="Layer_1_1_">
</g>
</svg>
