<?xml version="1.0" encoding="iso-8859-1"?>
<!-- Generator: Adobe Illustrator 16.0.4, SVG Export Plug-In . SVG Version: 6.00 Build 0)  -->
<!DOCTYPE svg PUBLIC "-//W3C//DTD SVG 1.1//EN" "http://www.w3.org/Graphics/SVG/1.1/DTD/svg11.dtd">
<svg version="1.1" xmlns="http://www.w3.org/2000/svg" xmlns:xlink="http://www.w3.org/1999/xlink" x="0px" y="0px"
	 width="20.402px" height="11.186px" viewBox="0 0 20.402 11.186" style="enable-background:new 0 0 20.402 11.186;"
	 xml:space="preserve">
<g id="Layer_12">
	<g id="Layer_17">
		
			<path id="Bannu" style="fill:#CCCCCC;stroke:#FFFFFF;stroke-width:1.07;" d="
			M14.508,3.253L14.508,3.253l-0.12,0.03l-0.112,0.02l-0.107,0.016l-0.092-0.015l-0.104,0.011l-0.129,0.016l-0.138,0.016
			l-0.124-0.001h-0.133h-0.137l-0.092-0.019l-0.088-0.012L13.04,3.271l-0.085-0.009l-0.072-0.021l-0.085-0.094L12.712,3.15
			L12.6,3.142l-0.066-0.081l0.011-0.129V2.853l-0.062-0.047l-0.091-0.018l-0.075-0.021L12.242,2.75l-0.116-0.033L12.04,2.678
			l-0.045-0.062l-0.05-0.095l-0.083-0.026l-0.074-0.085l-0.041-0.079l-0.055-0.05l-0.017-0.081l-0.064-0.034l-0.114-0.035
			l0.016-0.106l0.136-0.082l0.146,0.013l0.065,0.033l0.12-0.039l0.07-0.039l0.024-0.044l0.044-0.076l-0.014-0.09l-0.107-0.033
			l-0.103-0.022l-0.077,0.015l-0.111,0.063l-0.145,0.04L11.45,1.74l-0.132-0.033l-0.146-0.018l-0.119-0.012l-0.128-0.033
			L10.802,1.63l-0.153-0.04l-0.071-0.04l-0.11-0.077l-0.094-0.065l-0.117-0.047L10.149,1.34l-0.101,0.022L9.98,1.389L9.87,1.379
			L9.736,1.354L9.655,1.348L9.574,1.396L9.504,1.44L9.405,1.464L9.379,1.379l0.037-0.084l0.049-0.1l0.044-0.08l0.037-0.088
			L9.525,0.922L9.42,0.933L9.312,0.939L9.155,0.95L9.017,0.97L8.94,0.99L8.775,0.96l-0.067-0.05l-0.13-0.065L8.475,0.768
			l-0.06-0.042l-0.11-0.041L8.105,0.622L7.971,0.583L6.928,1.298L6.015,1.897L3.479,3.491L3.085,3.974L2.177,5.084L0.728,7.256
			L0.629,7.637l0.67,0.318l0.895,0.248l0.447,0.299l0.522,0.396l0.496,0.373l0.496,0.572l0.598,0.348l0.351,0.318l0.053-0.034
			l0.021-0.085l0.006-0.105l-0.053-0.09L5.126,10.09l0.034-0.084l0.093-0.057l0.084-0.016L5.435,9.93l0.082,0.015l0.106,0.021
			l0.09-0.006l0.067,0.047l0.094,0.031l0.118,0.022l0.081,0.028l0.09,0.088l0.092,0.068l0.123,0.037l0.091,0.021l0.166,0.029
			l0.12,0.021l0.11,0.008l0.103,0.001l0.09,0.014l0.088,0.039l0.076,0.034l0.104,0.048l0.139,0.025l0.085,0.011l0.097,0.013
			l0.116,0.002l0.102-0.021l0.148-0.076l0.104-0.031l0.081-0.043l0.082-0.031l0.114-0.041l0.18-0.074l0.104-0.04l0.107-0.037
			l0.111-0.058l0.111-0.036l0.085,0.004l0.244,0.19l0.057,0.062l0.064,0.065l0.225,0.019h0.163l0.104-0.006l0.114-0.021l0.118,0.01
			l0.105,0.004l0.099-0.014l0.231-0.027l0.109-0.053l0.145-0.033l0.092,0.029l0.113-0.007l0.126-0.062l0.08-0.072l0.058-0.077
			l0.053-0.088l0.088,0.002l0.09,0.032l0.304-0.006l0.117-0.006l0.175,0.008l0.117-0.049l0.092-0.071l0.533-0.048l0.099-0.018
			l0.123-0.015l0.12,0.006l0.101,0.003l0.145-0.045l-0.01,0.051l0.002-0.017l0.008-0.034l0.071,0.021h0.132l0.133-0.094l0.131-0.111
			l0.148-0.016l0.096-0.109l0.111-0.08l0.169-0.078l0.132-0.126V8.93l0.132-0.141l0.188-0.048l0.038-0.079l0.206-0.031l0.038-0.094
			l0.112-0.111l0.074-0.031l0.227,0.016l0.037-0.095l0.111-0.03l0.096-0.111l0.148-0.016l0.132,0.079l0.249,0.045l-0.003-0.004
			L16.37,8.252l-0.064-0.053l-0.05-0.08l0.027-0.092l0.062-0.093l0.053-0.118l0.011-0.105l0.025-0.129l0.092-0.119l0.225-0.086
			l0.16-0.037l0.205-0.008l0.121-0.016l0.095-0.047l0.097-0.036l0.018,0.033l0.014,0.021l0.018,0.02l0.026,0.005l0.013-0.054
			l0.016-0.076l0.004-0.096l0.031-0.088l0.077-0.118l0.065-0.066h0.058l0.146-0.009l0.015-0.06L17.81,6.722L17.766,6.7l-0.008-0.026
			l-0.001-0.098l-0.008-0.106l0.104-0.042l0.07-0.046l0.062-0.063l0.08-0.034l0.026-0.014l0.031-0.023l-0.012-0.031l-0.132,0.017
			l-0.104,0.002l0.041-0.056l0.092-0.057l0.006-0.051l0.076-0.055l0.15-0.076l0.038-0.14l0.076-0.031l0.197-0.045l0.135-0.036
			l0.104-0.039l0.069-0.02l0.089-0.028l0.079-0.012l0.111-0.02l0.215-0.046l0.066-0.068l0.051-0.128l0.01-0.067l-0.014-0.087
			l0.109,0.003l0.044,0.004L19.682,5.1l0.053-0.055l0.074-0.081l0.041-0.066l0.012-0.108l-0.017-0.081l-0.093-0.051l-0.128-0.041
			l-0.05-0.049l-0.037-0.013l-0.096-0.018l-0.027-0.029l0.05-0.043l-0.033-0.02l-0.079-0.034l-0.035-0.039l-0.028-0.038l-0.024-0.06
			l-0.026-0.027l-0.032,0.002L19.067,4.23l-0.11-0.051l-0.054-0.042L18.878,4.13l-0.083,0.051l-0.011-0.076l-0.05-0.027
			l-0.086,0.034l-0.085,0.009L18.54,4.129l-0.181-0.033L18.344,4.05l-0.04-0.041l-0.035-0.028l-0.044-0.035l-0.036,0.018
			l-0.067-0.021l-0.003-0.055l-0.01-0.04l-0.021-0.042l-0.065-0.035l-0.041-0.02L17.919,3.69l-0.02,0.018l-0.062-0.001l-0.022-0.015
			l-0.047,0.001l0.004,0.018l-0.068,0.021l-0.099-0.024l-0.074-0.026l-0.047-0.039l-0.094-0.026l-0.013-0.021l-0.066,0.04
			l-0.077-0.031L17.215,3.6l-0.11-0.028l-0.099-0.033l-0.062,0.011l-0.008,0.018l-0.13-0.01l-0.024-0.02l-0.033,0.01L16.672,3.52
			l-0.047,0.025l-0.047-0.003l-0.042,0.027L16.47,3.507l-0.012-0.025l-0.025-0.03l-0.084,0.046l-0.096-0.009l-0.016,0.036
			l-0.021,0.06l-0.034,0.015l-0.021,0.004L16.081,3.63l-0.063-0.033l-0.056-0.043l-0.096-0.016l-0.058-0.024l-0.011-0.056
			L15.772,3.43l-0.04-0.033l-0.051-0.054l-0.025-0.02l-0.115-0.064L15.47,3.237L15.353,3.26l-0.126-0.031l-0.058,0.015L14.96,3.269
			l-0.144-0.002l-0.108-0.007l-0.132-0.011l-0.043-0.005L14.508,3.253"/>
	</g>
</g>
<g id="Layer_1">
</g>
</svg>
