<?xml version="1.0" encoding="iso-8859-1"?>
<!-- Generator: Adobe Illustrator 16.0.4, SVG Export Plug-In . SVG Version: 6.00 Build 0)  -->
<!DOCTYPE svg PUBLIC "-//W3C//DTD SVG 1.1//EN" "http://www.w3.org/Graphics/SVG/1.1/DTD/svg11.dtd">
<svg version="1.1" xmlns="http://www.w3.org/2000/svg" xmlns:xlink="http://www.w3.org/1999/xlink" x="0px" y="0px"
	 width="26.304px" height="18.355px" viewBox="0 0 26.304 18.355" style="enable-background:new 0 0 26.304 18.355;"
	 xml:space="preserve">
<g id="Layer_172">
	<g id="Layer_177">
		<path id="Bannu" style="fill:#CCCCCC;stroke:#FFFFFF;stroke-width:1.07;" d="M1.025,13.23
			L1.025,13.23l-0.067,0.266l-0.026,0.102l0.049,0.074l0.094,0.045l0.102,0.023l0.357,0.071l0.229,0.046l-0.013,0.12l-0.045,0.418
			l-0.047,0.207l-0.1,0.425l-0.097,0.405l-0.057,0.204l-0.034,0.169l-0.096,0.483l-0.034,0.152L1.15,16.83l0.159-0.142l0.168-0.149
			l0.069-0.062l0.118-0.126l0.129-0.139l0.15-0.164l0.116-0.043l0.239-0.09l0.237-0.092l0.286-0.101l0.426-0.14l0.331-0.09
			l0.253-0.097l0.229-0.084l0.5-0.158l0.271-0.104l0.096-0.022l0.221-0.053l0.339-0.136l0.239-0.149l0.332-0.194l0.162-0.156
			l0.207-0.244l0.132,0.132l0.206,0.132l0.235-0.072l0.044-0.31l0.117-0.515l0.104-0.469l0.234,0.072l0.088,0.162l0.31-0.088v-0.294
			l0.133-0.427l0.204-0.131l0.25-0.133l0.31-0.41l0.089-0.236l0.088-0.205l0.016-0.174l0.131,0.033l0.155,0.039l0.138-0.098
			l0.092,0.152l0,0l0.117,0.029l0.104,0.014l0.124,0.041l0.097,0.084l0.109,0.089l0.091,0.04l0.104,0.014l0.288,0.133l0.094,0.074
			l0.121-0.007l0.111-0.009l0.156-0.01l0.112-0.021l0.127,0.004l0.051,0.087l-0.045,0.112l-0.091,0.061l-0.085,0.082l-0.1,0.02
			L10.9,12.129l-0.019,0.086l0.134,0.091l0.108-0.002l0.34-0.095l0.021-0.121l0.031-0.104l0.219,0.091l0.1-0.049l0.062-0.104
			l0.017-0.121l0.062-0.084l0.087-0.032l0.091-0.002l0.097,0.047l0.456-0.044l0.091,0.092l0.261-0.005l0.223,0.032l0.463-0.521
			l-0.034-0.168l0.319,0.057l0.107,0.006l0.078,0.058l0.355,0.257l0.137-0.041l0.012,0.119l0.075,0.061l0.21,0.24l0.085,0.062
			l0.166,0.11l0.083,0.035l0.115,0.045l0.102,0.041h0.155l0.087-0.035l0.195-0.073l0.102-0.021l0.128-0.002l0.107,0.032l0.296,0.084
			l0.099-0.047l0.11-0.049l0.055-0.134l0.047-0.1l0.023-0.082l0.082-0.162l0.075-0.115l0.052-0.071l0.044-0.099l0.333-0.279
			l0.266-0.229l0.054-0.121l0.317-0.096l0.081,0.104l0.078,0.082l0.134,0.059l0.145,0.08l0.037-0.09l-0.084-0.037l-0.104-0.069
			l-0.105-0.101l-0.039-0.107l-0.099-0.062l-0.083,0.047l-0.07-0.049l-0.086-0.121l-0.028-0.081l0.351-0.191l0.167-0.081
			l0.125,0.031l0.083,0.08l0.111,0.102l0.223,0.057l0.218,0.209l0.952,0.498l0.177-0.157l0.054-0.104l0.057-0.082l0.043-0.088
			l0.147-0.127l0.087-0.076l0.091-0.031l0.489-0.388l0.131-0.013l0.111-0.021h0.178l0.089-0.024l0.166-0.086l0.318,0.575
			l0.062,0.242l0.028,0.113l0.075,0.254l0.075,0.207l0.156-0.173l0.072-0.062l0.056-0.066l0.079-0.051l0.143-0.066l0.113-0.043
			l0.164-0.012l0.084-0.005l0.115-0.013l0.119-0.024l0.166-0.032l0.096-0.068l0.115-0.068l0.129-0.014l0.047-0.004l0.084-0.008
			l0.096-0.004l0.099-0.023l0.099-0.053l0.128-0.065l0.126-0.034l0.062-0.01h0.012l0.118-0.018l0.078-0.047l0.045-0.031l0.177-0.037
			h0.002l0,0l-0.005-0.014l0.045-0.078l0.07-0.037l0.021-0.034l0.082-0.132l0.04-0.076l0.035-0.142l0.005-0.06l0.014-0.086
			l0.02-0.13l0.007-0.15L25.7,8.995L25.736,8.8l0.012-0.154l0.013-0.178l-0.029-0.064l-0.015-0.031l-0.021-0.036l-0.004-0.001
			l-0.019-0.026l-0.117-0.259l-0.027-0.09l-0.112-0.184l-0.113-0.193l-0.058-0.132l-0.1-0.233l-0.044-0.122l-0.033-0.063
			l-0.145-0.213L24.896,6.76l-0.062-0.162l-0.082-0.158l-0.076-0.171l-0.098-0.144l-0.062-0.058l-0.07-0.054l-0.034-0.035
			l-0.067-0.067l-0.039-0.053l-0.087-0.094l-0.036-0.036V5.727L24.18,5.725l-0.022-0.027L24.05,5.593l-0.038-0.06L24.004,5.49
			l-0.107-0.117l-0.041-0.134l-0.032-0.14L23.786,4.86l-0.003-0.117l-0.007-0.037l-0.008-0.054l0.068-0.101L23.8,4.344l-0.037-0.208
			L23.715,4.08l-0.036-0.041L23.48,4.056l-0.254,0.021l-0.176,0.016l-0.087-0.034l-0.218-0.088l-0.021-0.009l-0.214-0.086
			l-0.167-0.067L22.248,3.77l-0.036-0.007l-0.188-0.038L21.915,3.71l-0.024-0.009l-0.08-0.021l-0.151-0.03l-0.021-0.005
			l-0.053,0.049h-0.018l-0.187-0.023l-0.037,0.002l-0.085-0.008l-0.034-0.003L21.2,3.66l-0.044-0.005l-0.052-0.006l-0.04-0.004
			l-0.063-0.008l-0.026-0.002l-0.091-0.011l-0.132-0.015l-0.114-0.024l-0.053-0.011l-0.098-0.092l-0.165-0.156l-0.266-0.173
			l-0.188-0.13l-0.186-0.14l-0.059-0.102l-0.057-0.097l-0.115-0.196l-0.093-0.154l-0.032-0.117l-0.09-0.16L19.17,1.964l0,0
			l-0.011-0.021l-0.032-0.08l-0.023-0.078l-0.025-0.088l-0.004-0.11l0.003-0.056L19.041,1.46l-0.06-0.078l-0.056-0.074l-0.104-0.085
			l0.056-0.079l0.097-0.087l0.007-0.118l-0.002-0.001l-0.095-0.061l-0.082-0.049l-0.025-0.092l-0.044-0.062l-0.249-0.045
			L18.352,0.55l-0.148,0.015l-0.096,0.111l-0.111,0.031l-0.037,0.095l-0.227-0.016l-0.074,0.032l-0.112,0.11l-0.038,0.095
			l-0.206,0.031l-0.038,0.079l-0.188,0.047l-0.132,0.142v0.252l-0.132,0.126l-0.169,0.079l-0.111,0.079l-0.096,0.11l-0.148,0.016
			l-0.131,0.11l-0.133,0.095h-0.132l-0.071-0.022l-0.008,0.034l-0.002,0.016l0.01-0.05l-0.145,0.045l-0.101-0.003l-0.12-0.006
			l-0.123,0.014l-0.099,0.019l-0.533,0.047l-0.092,0.072l-0.117,0.049l-0.175-0.008L14.2,2.402l-0.304,0.005l-0.09-0.032
			l-0.088-0.002l-0.053,0.088l-0.058,0.077l-0.08,0.072l-0.126,0.062l-0.113,0.006L13.198,2.65l-0.146,0.032l-0.109,0.054
			l-0.231,0.026l-0.098,0.015l-0.106-0.005L12.39,2.764l-0.114,0.02L12.172,2.79h-0.163l-0.225-0.018L11.72,2.706l-0.057-0.061
			l-0.244-0.191L11.334,2.45l-0.111,0.036l-0.111,0.058l-0.107,0.037L10.9,2.621l-0.18,0.074l-0.114,0.041l-0.082,0.031L10.443,2.81
			l-0.104,0.032L10.19,2.917l-0.102,0.021L9.973,2.937L9.876,2.924L9.791,2.914L9.652,2.889L9.548,2.84L9.472,2.807l-0.088-0.04
			l-0.09-0.013L9.191,2.752l-0.11-0.008l-0.12-0.021L8.795,2.694L8.704,2.673L8.581,2.636L8.489,2.568L8.399,2.48l-0.08-0.029
			L8.2,2.43L8.106,2.398L8.039,2.351l-0.09,0.006l-0.106-0.02L7.761,2.323L7.663,2.326L7.579,2.341L7.486,2.397L7.452,2.481
			l0.005,0.106l0.053,0.09L7.504,2.783L7.483,2.868L7.43,2.902L7.396,2.924L7.31,2.958l0.13,0.118L7.425,3.174l0.049,0.097
			L7.442,3.351L7.379,3.42L7.256,3.606L7.18,3.678l-0.117,0.08L6.984,3.819L6.892,3.917l-0.083,0.13L6.758,4.128L6.707,4.195
			L6.631,4.312L6.57,4.394L6.444,4.56L6.372,4.681L6.246,4.707L6.143,4.729L6.048,4.734L5.935,4.769L5.791,4.734L5.685,4.729
			l-0.07,0.052L5.551,4.868L5.435,4.911L5.27,5.015L5.157,5.162l-0.101,0.06l-0.122,0.04L4.79,5.315L4.588,5.463l0.011,0.103
			l0.066,0.141l0.229,0.264l0.005,0.177l0.058,0.067L5.044,6.22l0.095,0.006L5.224,6.23l0.108,0.002l0.054,0.091L5.302,6.386
			L5.205,6.493l0.016,0.083L5.215,6.672L4.916,7.042L4.48,7.357L4.183,7.686l-0.18,0.336L3.722,8.2L3.647,8.265l-0.06,0.112
			l0.015,0.146L3.507,8.641L3.417,8.99L3.09,9.312L3.04,9.444L2.881,9.598L2.832,9.715L2.803,9.842L2.768,9.949l-0.083,0.127
			l-0.211,0.277l-0.01,0.116l0.065,0.13l-0.104,0.143l-0.063,0.086l0.01,0.299l-0.438,0.151l-0.09-0.06l-0.03-0.146l-0.174,0.079
			l-0.06,0.062l-0.119,0.1l-0.078-0.052l-0.1-0.07L1.12,11.119l-0.083-0.051l-0.265,0.43l0.094,0.043l0.108,0.053l0.289,0.089
			l0.045,0.341l-0.001,0.098L1.27,12.207l-0.051,0.065L1.13,12.496l0.043,0.229l0.016,0.112L1.06,13.125L1.025,13.23"/>
	</g>
</g>
<g id="Layer_1">
</g>
</svg>
