<?xml version="1.0" encoding="utf-8"?>
<!-- Generator: Adobe Illustrator 16.0.4, SVG Export Plug-In . SVG Version: 6.00 Build 0)  -->
<!DOCTYPE svg PUBLIC "-//W3C//DTD SVG 1.1//EN" "http://www.w3.org/Graphics/SVG/1.1/DTD/svg11.dtd">
<svg version="1.1" id="Layer_1" xmlns="http://www.w3.org/2000/svg" xmlns:xlink="http://www.w3.org/1999/xlink" x="0px" y="0px"
	 width="301.158px" height="218.536px" viewBox="-132.361 -95.846 301.158 218.536"
	 style="enable-background:new -132.361 -95.846 301.158 218.536;" xml:space="preserve">
<g id="Layer_72">
	<path id="Lakki_Marwat" style="fill:#CCCCCC;stroke:#FFFFFF;stroke-width:1.15;" d="M114.24-68.227L114.24-68.227l-0.506,0.056
		l-2.665,0.141l-1.493,0.45l-1.653,0.124l-2.658-0.108l-2.56-0.008l-2.232,0.2l-2.232,0.277l-1.315,0.148l-3.139,0.213l-1.551-0.064
		l-0.505-0.008l-0.515-0.141l-0.529-0.847l-0.634-1.225l-0.008-0.008l-0.948-0.855l-0.754-0.525l-1.1-0.141l-1.67,0.329L83.3-69.865
		l-2.393,0.337l-1.733,0.205l-0.859-0.165l-0.232,0.044l-0.426-0.289l-0.024-0.008l-0.417-0.164l-0.603-0.362l-0.28-0.107
		l-0.337-0.297l-0.306-0.197l-0.514-0.312l-0.674-0.615l-0.481-0.562l-0.177-0.261l-0.009-0.008l-0.24-0.289l-0.241-0.378
		l-0.361-0.55l-0.04-0.076l-0.177-0.229l-0.69-1.012l-0.272-0.181l-0.892-1.107l-0.995-0.799l-0.45-0.417l-0.209-0.186l-0.562-0.353
		l-0.426-0.321l-0.401-0.317l-0.361-0.405l-0.272-0.329l-0.321-0.361L66.61-80.41l-0.039-0.108h-0.009l-0.417-0.602l-0.594-1.108
		l-0.186-0.346l-0.32-0.421l-0.369-0.911l-0.193-0.445l-0.417-0.747l-0.322-0.871h-0.007l-0.186-0.313l-0.305-0.807l-0.209-0.763
		l-0.24-0.754h-0.017l-1.452,0.301l-0.369,0.249l-0.643,0.394l-0.972,0.141h-0.097l-0.514,0.08l-1.035,0.28l-1.052,0.542
		l-0.811,0.43l-0.827,0.188l-0.803,0.032l-0.69,0.064l-0.386,0.036l-1.059,0.112l-0.948,0.57l-0.786,0.558l-1.357,0.261
		l-0.979,0.209l-0.946,0.096l-0.691,0.041l-1.349,0.101l-0.898,0.353l-1.205,0.542l-0.649,0.422l-0.458,0.55l-0.594,0.501
		l-1.277,1.422l-0.585-1.702l-0.627-2.096l-0.232-0.919l-0.506-1.999l-2.625-4.729l-1.373,0.706l-0.73,0.201h-1.461L30.878-90.5
		l-1.076,0.107l-4.021,3.191l-0.747,0.253l-0.714,0.626l-1.213,1.052l-0.353,0.715l-0.466,0.683l-0.441,0.854l-1.549,1.292
		l-7.82-4.094l-1.79-1.718L8.858-88l-0.915-0.84L7.26-89.498L6.233-89.75L4.86-89.083l-2.882,1.569l0.201,0.674l0.73,0.995
		l0.554,0.395l0.683-0.378l0.835,0.51l0.32,0.879l0.859,0.831l0.851,0.565l0.698,0.306L7.397-82L6.2-82.658l-1.1-0.481l-0.643-0.667
		l-0.666-0.854l-2.593,0.779l-0.466,1.003l-2.176,1.874L-4.179-78.7l-0.369,0.803l-0.418,0.594l-0.626,0.936l-0.675,1.341
		l-0.185,0.674l-0.385,0.823l-0.458,1.092l-0.899,0.401l-0.818,0.39l-2.433-0.691l-0.875-0.272l-1.052,0.024l-0.843,0.164
		l-1.598,0.603l-0.714,0.293l-1.276-0.008l-0.844-0.337l-0.938-0.361l-0.683-0.293l-1.365-0.907l-0.698-0.51l-1.726-1.972
		l-0.618-0.493l-0.104-0.987l-1.116,0.345l-2.922-2.111l-0.643-0.478l-0.858-0.04l-2.626-0.47l0.273,1.381l-3.805,4.283
		l-1.847-0.266l-2.144,0.045l-0.755-0.759l-3.749,0.361l-0.786-0.386l-0.779,0.017L-47.25-75.2l-0.513,0.683l-0.161,0.995
		l-0.514,0.855l-0.827,0.393l-1.79-0.738l-0.217,0.863l-0.169,0.995l-2.802,0.771l-0.883,0.017l-1.1-0.739l0.168-0.714l0.723-0.289
		l0.835-0.165l0.698-0.666l0.739-0.502l0.369-0.919l-0.418-0.714l-1.043-0.037l-0.924,0.185l-1.26,0.081l-0.915,0.063l-0.996,0.061
		l-0.778-0.61l-2.36-1.092l-0.859-0.116l-0.746-0.329l-0.883-0.73l-0.819-0.69l-1.011-0.329l-0.859-0.116l-0.955-0.237l0,0
		l-0.763-1.26l-1.132,0.799l-1.277-0.321l-1.075-0.261l-0.145,1.421l-0.723,1.693l-0.73,1.931l-2.553,3.38l-2.056,1.084
		l-1.678,1.088l-1.092,3.5v2.417l-2.561,0.722l-0.73-1.328l-1.919-0.603l-0.859,3.865l-0.955,4.224l-0.369,2.54l-1.927,0.603
		l-1.694-1.088l-1.083-1.084l-1.702,2.007l-1.333,1.28l-2.729,1.606l-1.95,1.224l-2.785,1.116l-1.831,0.438l-0.795,0.188
		l-2.224,0.855l-4.11,1.296l-1.887,0.69l-2.079,0.791l-2.721,0.742l-3.509,1.148l-2.344,0.83l-1.943,0.747l0.169,0.791l0.177,0.799
		l0.305,0.698l0.658,1.569l0.811,1.866l0.129,1.02l-0.137,0.426l-0.265,0.519l0.209,0.807l0.481,1.2l0.811,1.818l0.859,0.902
		l0.979,1.036l1.02,1.06l1.421,1.48l0.569,0.566l0.827,0.542l0.354,0.173l0.506,0.208l0.136,0.049l0.442,0.181l0.858,0.345
		l0.683,1.044l0.426,0.674l0.217,0.277l0.577,0.69l0.482,0.405l0.168,0.337l0.104,0.361v0.017l0.089,0.369l0.096,0.422l0.61,0.854
		l1.148,2.071l0.61,1.132l0.168,0.265l0.417,0.755l0.37,0.675l0.385,0.397l0.337,0.345l0.298,0.188l0.602,0.302l0.273,0.124
		l0.569,0.313l0.627,0.269l0.369,0.16l0.546,0.213l0.666,0.707l0.963,1.356l1.799,2.448l0.192,0.289l0.329,0.253l0.241,0.257
		l0.891,1.004l0.514,0.843l1.936,1.489l2.44,1.866l2.504,1.898l0.707,0.462l3.026,1.946l0.987,0.643l0.008,0.008l3.926,2.525
		l0.859,0.55l3.026,1.954l1.59,0.157l0.329,0.101l0.907,0.28l0.441,0.137l0.305,0.24l0.354,0.27l0.377,0.272l0.177,0.298
		l-0.112,0.839l-0.064,0.582l-0.185,0.252l-0.168,0.47l-0.152,0.75l-0.057,0.394l0.16,0.606l0.169,0.297l0.185,0.289l1.172,1.542
		l2.449,3.274l3.476,4.641l0.386,0.481l0.056,0.032l0.297,0.225l0.932,0.659l0.643,0.466l0.505,0.369l0.297,0.256l0.354,0.209
		l0.386,0.241l0.506,0.417l0.474,0.57l0.369,0.554l0.426,0.69l0.257,0.338l1.421,1.766l1.292,2.232l0.257,0.16h0.401l0.201,1.509
		l0.28,1.141l0.289,0.914l0.49,1.333l0.177,0.955l0.506,1.831l0.265,0.795l0.225,0.706l0.337,0.858l3.348,3.003l0,0h0.017
		l0.249,0.369l-0.169,0.522l-0.032,0.048l-0.008,0.12l-1.204,1.999l-4.279,7.177l-0.177,0.394l0,0v0.032l1.141,1.044l0.514,0.489
		l1.71,0.916l1.244,0.666l1.565,0.843l0.409,0.835l0.538,0.433l0.618,0.145l0.434,0.442l0.706,0.642l0.795,0.635l0.152,0.208
		l0.064,0.049l0.048,0.096l0.057,0.105l0,0l0.12,0.2l-0.265,0.738l0.128,0.257l0.812,0.354l0.048,0.016l0.249,0.032l0.192,0.186
		l0.137,0.056l1.55,0.169l0.763,0.201l1.06,0.433l2.568,2.97l1.654,0.45l0.578,0.409l0.4,0.603l0.402,0.272l4.896,1.044l0.643-0.12
		l0.2-0.137l2.12-2.136l0.112,0.08l0.104-0.064l4.896,4.046l0.024,0.017l3.652,2.93l-0.017,0.322v0.056l-0.008,0.16l-0.208,0.273
		l-0.177,0.08l-0.152,0.169l-0.257,0.458l0.128,0.24l-0.063,0.786l-0.178,0.112l-0.008,0.064l-1.052,0.611l-1.052,0.657l-0.08,0.032
		l-0.112,0.169l0.345,0.634l0.169,0.338l0.747,0.578l3.203,2.279l0.225,0.723l0.024,0.048l-0.032,0.048l-0.45,0.691h-0.008
		l-0.008,0.016l-0.683,0.723l-1.429,0.738l-1.341,0.964l-0.706,0.305l-0.618,0.064l-0.338-0.289l-0.385-0.273l-0.209,0.097
		l-0.466,0.458l-0.771,0.979l-1.332,1.341l-0.699,0.899l-1.517,0.369l-1.108,0.514l-2.111,1.558l0.474,0.875l-0.385,6.206
		l-0.072,0.08v0.177l-0.104,0.417l-0.506,0.112h-0.457l-0.675,0.169l-0.546,0.537l-0.329,0.515l0.177,0.562l-0.209,0.466
		l-0.272,0.401l0.104,0.498l0.506,0.61l-0.008,0.031l0,0l0.177,0.241l-0.121,0.434l-0.063,0.867l-0.129,0.497l-0.096,0.546
		l-0.057,0.61l0.232,0.498l0.169,0.129l0,0l0.418,0.256l2.745,0.25h0.017l0.168,0.168l0.08,0.089h0.009l0.185,0.553l0.168,0.418
		l0.506,0.273h0.04l0,0l0.097,0.08l1.02,0.056l1.075,0.137l1.349,0.449h0.009l5.651,1.888l0.626,0.199l0.161-0.096l0.088,0.016
		l0.506-0.353l0.643-0.522l0.73-0.538l1.22-0.883l0.249-0.353l0.023-0.017l0.266-0.4l0.361-0.241l0.506-0.258l0.674-0.305
		l0.394-0.112l0.498-0.192l6.141-1.27l0.852-0.305l0.434-0.2l0.514-0.249l0.441-0.289l0.506-0.225l0.425-0.192l0.482-0.209l0,0
		l0.763-0.338l0.385-0.537l0.715-0.634l0.65-0.369l0.063-0.041l0.338-0.168l0.481-0.53l1.076-0.995l0.947-0.787l0.176-1.012
		l1.205-0.771l0.987-0.505l1.541-0.233l1.461,0.497l0.65,0.145l0.209,0.08l0.554,0.073l0.137,0.016h0.008l0.538,0.169l-0.008,0.017
		l0.457,0.063l0.514-0.032l0.57,0.081l1.461,0.337l1.324,0.24l0.354,0.121l0.803,0.265l0.378,0.16l1.524,0.064l0.41-0.049
		l0.514-0.128l0.418-0.129l0.225-0.016l1.452-0.514l0.795-0.538l1.349-0.939l0.418-0.192l0.176-0.064l0.426-0.192l0,0l1.004-0.192
		l0.16-0.177l0.072-0.016l0.338-0.225l0.12-0.29l-0.064-0.272l0.378-0.803l0.882-0.337l0.057-0.16l0.312-0.161l0.137-0.321
		l0.017-0.321l0.378-0.289l0.305-0.064l0.289-0.119l0.514-0.435l0.088-0.072l0.312-0.16l0.724-1.028l0.168-0.288l0,0l0.378-0.241
		l0.433-0.16l0.644-0.177l2.039,0.064l0.513-0.305l0.57-0.37l0.779-0.386l0.697-0.145l0.169-0.016l0.875-0.136l0.803-0.186h0.016
		l0.482-0.121l0.072-0.016l0.329-0.032l0.73-0.385l0.321-0.626l0.265-0.273l0.755-0.185l0.064-0.016l0.192-0.032l0.169-0.017
		l0.826-0.458l0.185-0.216l0.064-0.032l0.811-0.337l0.507-0.072l0.393,0.024l0.185-0.121l0,0l0.747-0.169l0.064-0.016l0.297-0.072
		l0.409-0.249l0.489-0.385l0.08-0.161l0,0l0.395-0.249l0.979-0.032l1.147-0.048l0.852-0.056l1.309-0.281l1.413-0.442l0.956,0.049
		l0.778,0.04l0.241-0.152l0.353-0.032l0.216-0.273l0.162-0.128l0.408-0.241l1.028-0.176l0.835-0.378l1.156,0.153l0.473-0.129h0.129
		l0.297-0.048l0.666-0.225l0.498-0.515l0.128-0.136l0.627-0.386l0.73-0.169l0.755-0.305l0.289-0.128h0.016l0.257-0.209l0.626-0.337
		l0.852-0.13l1.221-0.031l0.497,0.113h0.032h0.008l0.627-0.169l0.851-0.25l0.802,0.08l0.579-0.368l0.545-0.514l0.354-0.289
		l0.329-0.241l0.61-0.627l0.337-0.353l0.948-0.723l0.537-0.465h0.008l0.538-0.306l0.145-0.064l0.305-0.032l0.177,0.017l0.635,0.16
		l0.866,0.048l0.515-0.369l0.168-0.337l0.177-0.554l0.112-0.168l0,0l0.249-0.273l0.169-0.192l0.04-0.033l0.401-0.16l0.386-0.064
		l0.337-0.152l4.318-1.807l0.289,0.274l0.225,0.225l0.426,0.288l0.306,0.113l0.602,0.24l0.306,0.097l0.417,0.112l0.426-0.017
		l1.26-0.914l0.401-0.129l1.188-0.161l0.866-0.835l0.852-0.562l0.546-0.385l0.867-0.29l0.61-0.064l0.489,0.024l0.586,0.008
		l0.298-0.064l0.377-0.063l0.924-0.257l0.456,0.145l0.226,0.128l0.482-0.321l0.104-0.016l1.067-1.107l0.169-0.016h0.786l0.257-0.049
		l0.307-0.016l0.601-0.338l0.177-0.097l0.538-0.208l0.209-0.064l0.739-0.017l0.698,0.129l0.023-0.017l0.217-0.048l0.169-0.048
		l0.176-0.192l0,0l0.506-0.338l0.706-0.963l0.515-0.466l0.137-0.048h0.024l0.642-0.177l0,0l0.209-0.032l0.932-0.097l0.305-0.137
		l0.032-0.007l0.328-0.434l0.153-0.266l0.506-0.208l0.071-0.017l0.659,0.169l0.546-0.418l0.57-0.466l0.449-0.096l0.538-0.161
		l0.328-0.152l0.193-0.289l0.594-0.738l0.281-0.225l0.169-0.434l0.538-0.426l0.136-0.048l0.787-0.401l0.257-0.321l0.177-0.257
		l0.063-0.217l1.045-0.586l0.657-0.209l0.298-0.192l0.305-0.547l0.097-0.353l0.353-0.803l0.298-0.689l0.176-0.21l0.088-0.064
		l0.659-0.433l0.514-0.354l0.36-0.16l0.426-0.192l0.378-0.113l0.987-0.385l0.289-0.097l0.281-0.072l0.417-0.337l0.361-0.281
		l0.321-0.209l0.466-0.16l0.521-0.209l0.225-0.192l0.056-0.659l0.049-0.08l0.666-0.514l0.257-0.063l0.089-0.017l0.232-0.064
		l0.401-0.176l0.338-0.369l0.039-0.337l0.169-0.426l0.442-0.538l1.075-1.751l0.208-0.369l0.161-0.441l0.128-0.296l0.186-0.306
		l0.32-0.016l0.354-0.258l0.338-0.168l0.32-0.169l0.249-0.289l0.192-0.289l0.233-0.192l0.24-0.192l0.209-0.281l0.201-0.2
		l0.971-0.763l2.104-0.064l0.186,0.168l0.056,0.129l0.128-0.008l0.804,0.634l-0.017,0.169l3.982,2.224h0.023l2.785,1.549
		l1.196-2.167l1.951-0.715l0.506-0.57l1.003-1.123l1.55-2.039l2.883-3.741l1.324-2.208l2.296-2.905l2.681-3.404l4.295-3.821
		l0.481,0.529l0.739-0.826l0.858-1.55l3.469-6.037l0.345-0.963l0.306-0.659l0.016-1.075L139.231,6.175l-0.843,0.032l-0.514-0.009
		l-0.417-0.14l-0.844-0.458l-0.858-0.518l-0.683-0.594l-0.369-0.306l-0.547-0.525l-0.232-0.426l-0.176-0.281l-0.073-0.466
		l0.266-0.858l0.506-0.662l0.794-0.108l0.378-0.181l0.281-0.414l-0.186-1.437l-0.088-0.928L135.537-2.5l-0.128-0.573l-0.417-0.855
		l-0.522-0.541l-0.434-0.37l-0.562-0.47l-0.226-0.47l-0.289-0.369l-0.264-0.59l-0.209-0.51l-0.441-0.734l-0.241-1.075l-0.177-0.566
		l-0.096-0.987l-0.137-0.69l-0.169-0.863l-0.12-0.453l-0.048-0.442l0.529-0.618l0.361-0.714l-0.683-0.148l-0.618,0.108l-0.658,0.292
		l-0.763-0.144l-0.449-0.173l-0.192-0.847l0.023-0.519l-0.016-0.634l0.128-0.485l2.562-4.721l0.514-0.683l-0.947,0.257l-0.763,0.249
		l-0.481,0.072l-0.426-0.056l-0.683-0.354l-0.329-0.346l-0.682-0.602l-0.683-0.378l-0.587-0.405l-0.345-0.638l0.024-0.486
		l-0.402-1.104l-0.409-0.51l-0.377-0.558l-0.185-0.566l-0.209-0.493l-0.498-0.807l0.177-0.911l0.627-1.654l0.192-0.605l0.225-0.534
		l0.097-0.65l0.546,0.04l0.16-0.518l0.458-0.446l0.489-0.12l0.474-4.014l-0.209-0.474l-0.305-0.734l-0.088-0.479l-0.073-0.417
		l-0.249-0.51l-0.569-0.782l-0.281-0.346l-0.609-0.534L124.531-43l-0.474-0.306l-0.667-0.501l-0.24-0.574l-0.168-0.377l-0.49-0.555
		l-2.305-2.536l-0.529-0.808l0.458-0.594l0.216-0.245l0.233-0.594l0.112-0.245l0.017-0.312l-0.04-0.551l-0.032-0.156l-0.137-0.518
		l-0.305-0.485l-0.177-0.261l-0.169-0.33l-0.434-1.678l-0.128-0.354l-0.049-0.714l0.168-0.346l0.025-0.413l-0.321-0.698
		l-0.394-0.354l-0.481-0.47l-0.546-0.706l-0.169-0.301l-0.233-0.595l-0.071-0.276l-0.024-0.675l-0.08-0.562l-0.185-0.441
		l-0.112-0.157l-0.586-0.602l-0.08-0.188l-0.121-0.112l-0.168-0.061l-0.249-0.141l-0.33-0.229l-0.088-0.253l-0.089-3.127
		l0.017-0.486l-0.192-0.377l-0.168-0.32l-0.21-0.285L114.24-68.227"/>
</g>
<g id="Layer_1_1_">
</g>
</svg>
